<svg width="528" height="278" fill="none" xmlns="http://www.w3.org/2000/svg"><path fill="#EA650D" d="M0 0h528v278H0z"/><path d="M164 142.913c.067-.566.1-1.133.167-1.699.3-2.699 1.066-5.199 2.765-7.331 1.9-2.399 4.432-3.799 7.331-4.565 1.8-.467 3.632-.667 5.498-.667h25.792c-1.3 6.531-2.599 13.029-3.932 19.594a62.824 62.824 0 01-1.633-2.466c-2.732-4.132-5.465-8.297-8.231-12.429-.366-.567-.899-.833-1.599-.833h-7.831c-.733 0-1.133.333-1.266 1.066-1.433 6.964-2.832 13.962-4.265 20.926-.134.6.166.967.766.967h5.832c.599 0 1.066-.367 1.166-1a933.634 933.634 0 011.933-9.464l.999-4.898c.033-.1.067-.2.1-.366.367.533.667.999 1 1.499 2.932 4.432 5.865 8.83 8.797 13.262.433.667 1.033.967 1.799.967h7.598c.799 0 1.233-.367 1.399-1.133a4086.876 4086.876 0 014.066-19.794c.166-.866.333-1.766.533-2.632a2.421 2.421 0 00-.3-1.8c-1.633-2.565-3.266-5.131-4.932-7.664-.366-.566-.933-.799-1.633-.799h-35.521c-.3 0-.6 0-.867-.067-.433-.067-.566-.3-.366-.7.167-.333.4-.666.633-.966 4.132-4.932 9.23-8.397 15.495-9.897 11.296-2.732 21.16 0 29.39 8.231 4.632 4.632 7.331 10.296 8.131 16.794 1.166 9.33-1.4 17.561-7.764 24.525-4.565 4.999-10.264 8.031-16.928 9.197-1.266.233-2.566.3-3.832.433-.1 0-.167.034-.267.067h-2.066c-.1-.033-.2-.067-.3-.067-1.199-.133-2.399-.166-3.565-.366-8.964-1.6-15.861-6.265-20.626-13.995-1.8-2.899-2.933-6.065-3.299-9.497-.034-.4-.1-.767-.134-1.167-.033-.466-.033-.866-.033-1.266zm200 12.896c-.167.067-.367.167-.533.2-.533.033-1.1 0-1.633 0-.466 0-.533-.067-.533-.533v-6.431c0-.4-.033-.833-.1-1.233-.333-1.466-1.966-2.033-3.266-1.133-.933.633-1.299 1.566-1.333 2.632-.033 2-.033 3.999-.033 5.998 0 .7-.033.7-.7.7h-1.433c-.499 0-.566-.067-.566-.566v-10.797c0-.466.1-.533.533-.533h1.366c.367 0 .5.133.534.5.033.3.066.6.1.966.199-.2.366-.366.533-.5 1.199-1.066 2.565-1.466 4.132-1.133 1.599.367 2.632 1.633 2.865 3.499 0 .1.067.234.067.333v8.031zm-28.324-10.729v-5.265c0-.3.1-.467.433-.5.633-.067 1.233-.133 1.866-.167.134 0 .267.167.367.3.067.067 0 .2 0 .3v15.628c0 .6-.033.633-.633.633h-1.133c-.4.034-.6-.133-.633-.533-.034-.3-.1-.566-.134-.933a4.373 4.373 0 01-2.066 1.5c-2.066.733-4.331-.1-5.431-2.166-1.3-2.433-1.333-4.965-.133-7.464 1.399-2.833 4.865-3.499 7.297-1.466.067.033.1.033.2.133zm.033 4.865c0-.8-.033-1.6-.399-2.333-.467-.966-1.267-1.533-2.333-1.533-1.033 0-1.799.567-2.233 1.5-.766 1.666-.733 3.366.067 4.998.433.9 1.166 1.466 2.166 1.433 1.033 0 1.766-.566 2.233-1.466.433-.833.499-1.699.499-2.599zm-66.444-4.898v-5.232c0-.3.133-.466.433-.5.6-.033 1.233-.133 1.833-.166.266-.034.4.066.433.366v15.895c0 .666 0 .666-.666.666-.367 0-.734-.033-1.067 0-.4.034-.6-.166-.633-.533-.033-.3-.1-.566-.133-.833-.4.333-.767.7-1.2 1-1.932 1.233-4.398.766-5.831-1.033-.933-1.166-1.3-2.533-1.4-3.965-.1-1.533.1-3.033.867-4.399 1.499-2.599 4.698-3.232 7.064-1.4.1-.033.167.034.3.134zm.133 4.931c-.1-1.133-.233-1.866-.566-2.499-.967-1.766-3.266-1.866-4.332-.2-.967 1.533-.9 4.199.133 5.665.833 1.166 2.333 1.466 3.399.533.4-.366.766-.866.966-1.399.2-.667.267-1.4.4-2.1zm39.954-17.161c-.5.4-.933.866-1.467 1.166-1.832 1.033-4.198.4-5.498-1.466-1.033-1.5-1.333-3.166-1.233-4.932.067-1.366.433-2.666 1.266-3.799 1.467-1.899 4.132-2.432 5.999-1.166.366.267.699.567 1.066.9.033-.267.066-.533.1-.833.033-.333.2-.5.566-.5h1.233c.333 0 .5.133.5.466v10.83c0 .567-.033.633-.6.633h-1.233c-.366.034-.5-.133-.566-.466-.033-.267-.067-.567-.133-.833zm-.1-4.432c-.067-.767-.1-1.4-.234-1.999-.233-1.267-1.066-2.066-2.132-2.2-1.067-.1-2.033.467-2.533 1.633-.666 1.633-.633 3.266.167 4.865.3.6.766 1.066 1.433 1.3 1.166.4 2.332-.167 2.799-1.467.3-.666.366-1.499.5-2.132zm-52.749-4.798c.066-.366.099-.666.133-.966.033-.267.2-.433.5-.4h1.333c.333 0 .466.167.466.467v10.996c0 .333-.133.5-.466.466h-1.433c-.3 0-.434-.133-.467-.399a8.387 8.387 0 00-.166-.967c-.334.3-.6.633-.967.9-1.666 1.266-4.098.966-5.565-.633-.933-1.033-1.399-2.266-1.566-3.632-.2-1.7-.066-3.366.767-4.932 1.033-1.933 3.165-2.932 5.231-2.399.833.2 1.533.733 2.2 1.499zm-.2 4.465c-.134-.733-.2-1.466-.4-2.166-.3-.966-.967-1.566-1.966-1.666-1.033-.1-1.833.367-2.3 1.267-.933 1.799-.899 3.632.067 5.398.5.899 1.3 1.366 2.366 1.233 1-.134 1.599-.8 1.866-1.7.133-.766.233-1.566.367-2.366zm53.115 26.624c-.5.4-.933.867-1.466 1.167-1.733.999-4.099.399-5.398-1.333-1.066-1.433-1.4-3.099-1.333-4.832.033-1.266.3-2.466.966-3.532 1.2-1.966 3.566-2.866 5.532-2.033.666.267 1.233.8 1.866 1.2.033-.167.1-.434.1-.733.033-.334.2-.467.533-.467h1.266c.3 0 .467.1.467.433v11.03c0 .333-.167.466-.467.433h-1.433c-.333 0-.466-.166-.5-.433-.066-.333-.099-.633-.133-.9zm-.166-4.698c-.034-.5-.067-1-.134-1.466a3.27 3.27 0 00-.266-.933c-.367-.867-1-1.4-1.966-1.5-.933-.067-1.633.333-2.166 1.066-.567.8-.767 1.766-.767 2.733 0 1.099.167 2.199.833 3.099 1.167 1.599 3.199 1.333 3.999-.467.4-.799.467-1.666.467-2.532zm13.362-20.829c.2 2.2 1.666 3.299 3.899 2.933.699-.1 1.399-.367 2.099-.6.366-.133.566-.1.7.266.133.367.299.734.466 1.1.133.267.067.467-.2.6-2.066 1.033-4.232 1.366-6.431.533-1.333-.5-2.266-1.499-2.799-2.799-.8-2.033-.8-4.065.067-6.065.933-2.232 2.899-3.365 5.331-3.199 2.299.167 3.965 1.533 4.565 3.899.234.9.267 1.833.333 2.766.034.466-.099.566-.566.566h-7.464zm0-1.999h5.265c-.034-1.833-1-2.932-2.533-2.999-1.466-.067-2.566 1.166-2.732 2.999zm-45.352 23.86c.167 1.866 1.233 2.932 2.933 2.999a6.228 6.228 0 002.665-.5c.167-.067.334-.133.5-.233.234-.1.433-.034.533.2.2.433.367.866.534 1.332.133.334-.134.467-.367.567-1.499.766-3.099 1.033-4.765.866-1.6-.166-2.899-.899-3.832-2.266-.633-.899-.933-1.932-1.033-3.032-.133-1.566.033-3.099.8-4.498 1.066-1.933 3.032-2.933 5.364-2.666 2.233.266 3.566 1.566 4.266 3.632.333 1 .4 1.999.4 3.032 0 .367-.167.533-.534.5h-7.031c-.1.067-.266.067-.433.067zm.034-2h5.265c-.034-1.766-1-2.899-2.433-2.965-1.766-.1-2.666 1.333-2.832 2.965zm66.244 2c.133 1.966 1.433 3.099 3.332 2.999.933-.066 1.833-.266 2.7-.666.399-.167.533-.133.666.267.167.366.3.733.466 1.099.1.267.067.467-.199.6-2.066 1.033-4.232 1.366-6.432.533-1.533-.566-2.499-1.766-2.965-3.299-.567-1.866-.534-3.698.2-5.498.899-2.232 2.799-3.365 5.331-3.265 2.166.099 3.832 1.432 4.565 3.632.334 1.033.4 2.099.4 3.165 0 .367-.233.433-.533.433h-7.531zm5.265-1.999c0-1.733-1-2.899-2.466-2.966-1.699-.1-2.632 1.367-2.766 2.966h5.232zm-97.701 2c.067 1.866 1.433 3.099 3.199 2.999 1-.066 1.933-.266 2.799-.666.334-.167.533-.067.667.266.133.4.3.767.466 1.133.1.234.067.434-.2.567-2.099 1.033-4.265 1.399-6.531.533-1.333-.533-2.266-1.533-2.766-2.832-.799-2.133-.766-4.266.234-6.332 1.732-3.598 6.531-3.565 8.464-1.399.999 1.133 1.466 2.466 1.599 3.932.033.433.033.866.033 1.266 0 .467-.1.567-.566.567h-6.998c-.1-.034-.233-.034-.4-.034zm5.232-1.999c0-1.933-1.133-2.899-2.399-2.966-1.533-.066-2.666 1.1-2.799 2.966h5.198zm30.223-21.028c-.033 1.899-.433 3.499-1.666 4.765-1.566 1.633-3.532 2.033-5.665 1.466-2.099-.533-3.299-2.032-3.832-4.098a7.576 7.576 0 01.067-4.132c.766-2.699 3.032-4.265 5.831-4.066 2.733.2 4.699 2.1 5.132 4.832.067.5.1.967.133 1.233zm-8.63.2c0 .9.166 1.766.6 2.566.499.9 1.232 1.399 2.299 1.399 1.066 0 1.799-.499 2.299-1.399.433-.733.6-1.533.6-2.366.033-1.1-.134-2.166-.8-3.066-1.1-1.533-3.266-1.466-4.299.1-.499.833-.666 1.766-.699 2.766zm-39.587 17.394c.666-.733 1.366-1.233 2.199-1.533 2.599-.933 5.032.567 5.332 3.299.066.433.066.9.066 1.366v6.731c0 .533-.066.6-.599.6h-1.567c-.466 0-.533-.067-.533-.566v-6.631c0-.267 0-.567-.066-.834-.3-1.532-1.8-2.199-3.166-1.399-1.1.666-1.466 1.733-1.5 2.932-.033 1.966 0 3.932 0 5.865 0 .6-.066.633-.633.633h-1.399c-.633 0-.667-.033-.667-.666v-10.697c0-.533.067-.6.6-.6.4 0 .833.034 1.233 0 .433-.033.567.167.6.567.033.266.067.533.1.933zm79.14-.166c.667-.433 1.266-.933 1.933-1.267 2.666-1.199 5.398.434 5.598 3.333.1 1.333.067 2.699.067 4.032v3.932c0 .466-.067.566-.567.566h-1.566c-.533 0-.566-.067-.566-.566v-6.332c0-.333 0-.699-.067-1.033-.133-.799-.467-1.466-1.3-1.699-.866-.267-1.699-.1-2.366.533-.766.733-.999 1.633-.999 2.633v5.764c0 .634-.034.667-.7.667h-1.399c-.567 0-.634-.067-.634-.6v-10.73c0-.5.067-.6.567-.6h1.399c.267 0 .434.1.434.4.1.367.133.7.166.967zm-79.14-21.758c.366-.3.666-.6 1-.866 1.033-.767 2.199-1.033 3.465-.8 1.733.333 2.832 1.599 3.032 3.432.067.667.067 1.366.1 2.033v6.031c0 .567-.066.6-.633.6h-1.433c-.599 0-.633-.033-.633-.667v-6.531c0-.266 0-.533-.066-.799-.134-.767-.467-1.4-1.267-1.633-.866-.267-1.632-.1-2.299.466-.8.7-1.066 1.633-1.066 2.666v5.831c0 .6-.033.634-.633.634h-1.566c-.4 0-.534-.167-.534-.534v-10.763c0-.566.067-.666.634-.666h1.232c.367-.033.534.166.567.5.033.433.067.733.1 1.066zm52.982-.066c.533-.4 1.033-.833 1.6-1.133 2.799-1.466 5.798.133 5.964 3.299.134 2.632.067 5.298.067 7.964 0 .333-.167.466-.5.466a14.027 14.027 0 00-1.666 0c-.366 0-.533-.133-.533-.5v-6.631a4.89 4.89 0 00-.067-.7c-.1-.799-.433-1.466-1.266-1.732-.866-.3-1.666-.134-2.333.466-.833.733-1.066 1.7-1.099 2.733v5.764c0 .6-.034.667-.667.667h-1.466c-.5 0-.533-.067-.533-.567v-10.863c0-.366.133-.533.5-.5h1.433c.3 0 .466.134.5.467 0 .2.033.5.066.8zm-26.658-1.368h2.133c.633 0 .667.033.667.7v.966c.033.367-.134.533-.534.533h-2.299c0 .167-.033.3-.033.433v6.198c.066.967.466 1.3 1.433 1.167.3-.034.599-.134.899-.2.3-.067.467.033.5.333.067.433.1.866.2 1.299.033.234-.066.367-.266.467-1.167.433-2.366.566-3.566.2-1.133-.367-1.799-1.333-1.866-2.699-.033-1-.033-1.966-.033-2.966v-8.964c0-.699.033-.699.699-.766.467-.033.9-.1 1.367-.133.566-.067.633.033.633.566v2.599c.033.034.033.1.066.267zm34.289 25.36v7.764c0 .633-.067.7-.666.7h-1.533c-.333 0-.5-.167-.5-.5v-15.695c0-.333.133-.466.466-.5.6-.033 1.2-.1 1.8-.166.266-.034.4.1.433.333v8.064zm18.494-21.861v7.798c0 .566-.033.633-.6.633h-1.633c-.3 0-.433-.134-.466-.434v-15.528c0-.633.066-.699.7-.766a19.18 19.18 0 001.366-.133c.566-.067.666 0 .666.566-.033 2.633-.033 5.265-.033 7.864zm-27.191 19.859c.1-.133.167-.3.3-.4.833-.8 1.833-1.299 2.999-1.366.533-.033.6.033.6.533v1.666c0 .5-.067.6-.633.533-1-.133-1.833.2-2.466.967-.567.699-.7 1.499-.7 2.366v5.498c0 .566-.033.6-.6.6h-1.599c-.334 0-.467-.134-.467-.467v-10.963c0-.367.133-.5.5-.5h1.433c.333 0 .466.133.466.467.034.3.067.633.1.933-.033.066.034.1.067.133zm-17.428-17.36v5.398c0 .5-.033.533-.566.533h-1.633c-.366 0-.5-.133-.5-.5V122.92c0-.3.134-.467.433-.5.6-.067 1.233-.134 1.833-.167.4-.033.433.2.433.5v5.465zm.234-9.13c0 .899-.7 1.599-1.6 1.599-.866 0-1.566-.7-1.566-1.566 0-.9.666-1.566 1.533-1.6.933 0 1.633.7 1.633 1.567z" fill="#fff"/></svg>