<svg width="528" height="278" fill="none" xmlns="http://www.w3.org/2000/svg"><path fill="#F7DF9E" d="M0 0h528v278H0z"/><path fill-rule="evenodd" clip-rule="evenodd" d="M219.97 152.964c0-1.836-.908-2.639-2.805-3.245-.81-.262-1.799-.493-1.799-1.131 0-.524.324-.754.811-.754h.275c.551 0 .957.295 1.248.852.065.131.211.131.325.049l1.685-1.131c.163-.098.097-.262.032-.36a3.692 3.692 0 00-.777-.951c-.632-.558-1.492-.868-2.545-.868h-.243c-2.222 0-3.567 1.213-3.567 3.244 0 1.82.973 2.541 2.707 3.147 1.086.378 1.897.475 1.897 1.213 0 .475-.325.754-.827.754h-.502c-.551 0-.958-.295-1.248-.852-.065-.131-.211-.131-.326-.049l-1.685 1.13c-.162.099-.097.247-.032.344.178.312.389.591.648.837.648.639 1.556 1 2.675 1h.502c2.286 0 3.55-1.213 3.55-3.229h.001zm21.439 2.851v-10.041c0-.131-.113-.165-.178-.165h-2.381c-.082 0-.146.034-.146.165v10.041c0 .131.065.165.146.165h2.382c.097 0 .178-.034.178-.165h-.001zm-3.834-7.937v-2.104c0-.131-.097-.164-.162-.164h-6.742c-.081 0-.146.033-.146.164v10.041c0 .131.065.165.146.165h2.397c.082 0 .164-.034.164-.165v-3.698c0-.115.048-.181.194-.181h3.273c.082 0 .163-.032.163-.148v-2.119c0-.116-.081-.149-.163-.149h-3.273c-.146 0-.195-.065-.195-.18v-1.134c0-.115.049-.181.195-.181h3.987c.097 0 .162-.032.162-.148v.001zm13.84 7.888l-3.391-10.033c-.033-.099-.081-.115-.146-.115h-1.77c-.097 0-.13.032-.162.115l-3.392 10.033c-.049.131.016.214.162.214h2.5c.081 0 .113-.034.146-.116l.438-1.231c.032-.083.065-.115.195-.115h1.948c.13 0 .178.032.211.115l.422 1.231c.031.082.048.116.145.116h2.549c.178 0 .194-.083.146-.214h-.001zm-3.813-3.334c.015.082-.033.148-.146.148h-.942c-.13 0-.178-.065-.162-.149l.291-1.279c.228-.969.341-2.021.341-2.021h.049s.114 1.052.308 2.021l.261 1.28zm-47.735 3.357v-10.014c0-.131-.097-.164-.161-.164h-2.287c-.097 0-.145.033-.145.164v2.655c0 1.459.08 2.738.08 2.738h-.048s-.13-.362-.357-.788l-2.398-4.621c-.05-.099-.115-.148-.211-.148h-2.06c-.081 0-.146.033-.146.164v10.014c0 .13.065.164.146.164h2.335c.097 0 .162-.033.162-.164v-2.607c0-1.343-.097-2.638-.097-2.638h.065s.13.361.34.738l2.416 4.523c.048.082.097.148.178.148h2.026c.097 0 .162-.033.162-.164zm-9.297 0v-10.014c0-.131-.113-.164-.178-.164h-2.383c-.082 0-.146.033-.146.164v10.014c0 .13.065.164.146.164h2.383c.097 0 .178-.033.178-.164zm38.666-2.678v-4.605c0-1.868-1.41-3.081-3.485-3.081h-1.134c-2.076 0-3.519 1.229-3.519 3.081v4.605c0 1.852 1.41 3.082 3.518 3.082h1.134c2.076 0 3.486-1.23 3.486-3.082zm-2.691 0c0 .393-.292.672-.794.672h-1.134c-.568 0-.86-.262-.86-.672v-4.605c0-.344.389-.688.859-.688h1.134c.471 0 .795.295.795.688v4.605zm-16.762 2.629l-3.389-10.014c-.032-.098-.081-.115-.146-.115h-1.765c-.098 0-.131.033-.163.115l-3.388 10.014c-.049.13.016.213.162.213h2.496c.082 0 .114-.033.147-.115l.437-1.229c.032-.082.065-.115.195-.115h1.945c.13 0 .179.033.211.115l.421 1.229c.033.082.049.115.146.115h2.546c.178 0 .194-.082.146-.214l-.001.001zm-3.811-3.327c.017.082-.031.147-.145.147h-.94c-.13 0-.179-.065-.162-.147l.291-1.279c.228-.966.34-2.016.34-2.016h.049s.114 1.05.308 2.017l.26 1.278h-.001zm-19.674 3.376v-2.098c0-.115-.081-.147-.162-.147h-3.987c-.147 0-.195-.065-.195-.18v-1.262c0-.116.048-.181.195-.181h3.274c.081 0 .162-.033.162-.148v-2.114c0-.115-.081-.148-.162-.148h-3.275c-.146 0-.195-.065-.195-.18V148.2c0-.114.049-.179.195-.179h3.988c.098 0 .162-.034.162-.149v-2.097c0-.131-.097-.164-.162-.164h-6.743c-.081 0-.146.033-.146.164v10.014c0 .13.065.164.146.164h6.743c.098 0 .162-.033.162-.164zm-11.388-6.769c0 .443-.309.656-.811.656h-1.767c-.146 0-.196-.065-.196-.18V148.2c0-.114.05-.179.196-.179h1.767c.535 0 .811.245.811.687v.312zm2.999 6.719l-1.59-4.113c-.048-.147-.065-.262.082-.36.713-.46 1.183-1.245 1.183-2.262v-.148c0-2.016-1.361-3.245-3.485-3.245h-4.523c-.082 0-.146.033-.146.164v10.014c0 .13.065.164.146.164h2.398c.081 0 .162-.033.162-.164v-3.687c0-.116.049-.181.195-.181h1.118c.065 0 .114.033.147.115l1.49 3.802c.033.066.082.115.146.115h2.53c.162 0 .194-.099.146-.214h.001zm44.961-29.974c0 1.324-.985 2.202-2.435 2.202h-.792c-1.471 0-2.456-.878-2.456-2.202v-3.294c0-1.324 1.007-2.203 2.456-2.203h.793c1.45 0 2.434.867 2.434 2.202v.632h-1.879v-.632c0-.281-.227-.491-.555-.491h-.793c-.328 0-.6.246-.6.492v3.294c0 .292.204.48.6.48h.793c.351 0 .555-.2.555-.48v-.632h1.879v.632zm-46.697 1.951v-7.168c0-.094-.047-.118-.114-.118h-1.643a.133.133 0 00-.067.019.128.128 0 00-.046.052L173 124.103a7.079 7.079 0 00-.148.469h-.045s-.023-.211-.125-.469l-1.348-3.601a.116.116 0 00-.046-.052.127.127 0 00-.068-.019h-1.688c-.068 0-.102.024-.102.118v7.167c0 .093.034.117.102.117h1.598c.079 0 .113-.023.113-.117v-1.537c0-1.114-.102-2.135-.102-2.135h.035s.102.493.282 1.021l.601 1.771c.034.094.136.117.204.117h1.099c.068 0 .158-.023.193-.117l.6-1.736a8.928 8.928 0 00.283-1.056h.035s-.08 1.056-.08 2.158v1.514c0 .093.023.117.102.117h1.564c.068 0 .114-.023.114-.117zm18.854-.004v-1.502c0-.082-.056-.105-.113-.105h-2.639c-.102 0-.135-.047-.135-.13v-.903c0-.081.033-.129.135-.129h2.14c.057 0 .114-.023.114-.106v-1.513c0-.082-.057-.105-.114-.105h-2.14c-.102 0-.135-.046-.135-.13v-.808c0-.082.033-.13.135-.13h2.64c.067 0 .111-.023.111-.105v-1.501c0-.094-.067-.118-.111-.118h-4.565c-.058 0-.102.024-.102.118v7.167c0 .093.044.117.102.117h4.564c.068 0 .113-.023.113-.117zm-5.795-2.041c0-1.314-.634-1.89-1.96-2.324-.567-.186-1.258-.351-1.258-.808 0-.376.226-.539.567-.539h.193c.384 0 .668.21.871.609.047.093.148.093.227.035l1.179-.809c.113-.071.067-.188.023-.259a2.654 2.654 0 00-.545-.68c-.441-.399-1.042-.621-1.779-.621h-.17c-1.552 0-2.492.867-2.492 2.322 0 1.302.679 1.818 1.892 2.252.759.27 1.325.34 1.325.868 0 .34-.226.539-.577.539h-.351c-.386 0-.669-.21-.873-.609-.045-.093-.148-.093-.227-.035l-1.178.809c-.113.07-.068.176-.022.247.124.223.272.422.452.598.454.458 1.088.715 1.87.715h.351c1.599 0 2.482-.868 2.482-2.31zm12.345.105v-3.295c0-1.338-.986-2.205-2.436-2.205h-.793c-1.45 0-2.459.879-2.459 2.205v3.296c0 1.326.985 2.205 2.459 2.205h.793c1.45 0 2.436-.879 2.436-2.205v-.001zm-1.881 0c0 .281-.204.481-.555.481h-.793c-.397 0-.601-.187-.601-.481v-3.295c0-.247.272-.492.601-.492h.793c.329 0 .555.211.555.492v3.296-.001zm-16.529.004v-5.232c0-.093-.034-.117-.102-.117h-1.666c-.056 0-.102.024-.102.118v5.232c0 .293-.17.481-.567.481h-.793c-.419 0-.6-.188-.6-.482v-5.232c0-.093-.057-.117-.102-.117h-1.643c-.068 0-.102.024-.102.118v5.232c0 1.325.974 2.205 2.447 2.205h.793c1.45 0 2.437-.88 2.437-2.206zm26.626 1.938v-7.167c0-.094-.069-.118-.114-.118h-1.598c-.068 0-.102.024-.102.118v1.9c0 1.044.057 1.959.057 1.959h-.034s-.09-.258-.249-.563l-1.678-3.308c-.033-.071-.079-.106-.146-.106h-1.44c-.056 0-.102.024-.102.118v7.167c0 .093.046.117.102.117h1.632c.068 0 .113-.023.113-.117v-1.865c0-.962-.068-1.888-.068-1.888h.046s.09.257.238.527l1.688 3.238c.034.059.068.105.125.105h1.416c.068 0 .114-.023.114-.117zm41.598 0v-1.502c0-.081-.057-.106-.114-.106h-2.788c-.102 0-.135-.046-.135-.128v-5.431c0-.094-.068-.118-.114-.118h-1.677c-.056 0-.102.024-.102.118v7.167c0 .093.046.117.102.117h4.714c.068 0 .114-.023.114-.117zm-12.513 0v-7.167c0-.094-.068-.118-.114-.118h-1.597c-.069 0-.102.024-.102.118v1.9c0 1.044.055 1.959.055 1.959h-.033s-.09-.258-.249-.563l-1.678-3.308c-.034-.071-.08-.106-.147-.106h-1.439c-.057 0-.102.024-.102.118v7.167c0 .093.045.117.102.117h1.631c.069 0 .113-.023.113-.117v-1.865c0-.962-.067-1.888-.067-1.888h.046s.09.257.237.527l1.689 3.238c.033.059.067.105.124.105h1.416c.068 0 .114-.023.114-.117h.001zm-13.148 0v-7.167c0-.094-.08-.118-.124-.118h-1.667c-.055 0-.102.024-.102.118v7.167c0 .093.047.117.102.117h1.667c.068 0 .124-.023.124-.117zm19.882-.035l-2.368-7.167c-.023-.071-.058-.083-.102-.083h-1.236c-.067 0-.091.024-.113.083l-2.368 7.167c-.034.093.011.152.113.152h1.745c.056 0 .08-.023.102-.082l.306-.88c.022-.058.045-.081.136-.081h1.359c.091 0 .126.023.149.081l.294.88c.022.059.034.082.102.082h1.779c.124 0 .135-.058.102-.152zm-2.664-2.381c.012.058-.022.105-.102.105h-.656c-.091 0-.125-.047-.113-.105l.203-.916c.158-.692.238-1.443.238-1.443h.034s.079.751.215 1.443l.181.916zm-10.604.48v-3.296c0-1.337-.985-2.205-2.435-2.205h-.794c-1.45 0-2.459.88-2.459 2.205v3.296c0 1.326.986 2.206 2.459 2.206h.794c1.449 0 2.435-.88 2.435-2.206zm-1.881 0c0 .282-.204.482-.554.482h-.794c-.396 0-.6-.188-.6-.482v-3.296c0-.246.271-.493.6-.493h.794c.329 0 .554.212.554.493v3.296zm-13.706 1.9l-2.369-7.167c-.022-.071-.055-.082-.102-.082h-1.235c-.067 0-.09.023-.112.082l-2.369 7.167c-.034.094.012.153.113.153h1.745c.057 0 .079-.024.103-.082l.305-.88c.023-.059.045-.082.136-.082h1.36c.091 0 .124.023.148.082l.294.88c.022.058.034.082.102.082h1.779c.125 0 .136-.059.102-.153zm-2.663-2.381c.011.058-.022.106-.102.106h-.657c-.091 0-.125-.047-.114-.106l.205-.915c.158-.692.238-1.443.238-1.443h.033s.08.751.216 1.443l.181.915zM175.12 135.1c0 1.324-.985 2.203-2.435 2.203h-.792c-1.471 0-2.457-.879-2.457-2.203v-3.295c0-1.324 1.008-2.202 2.457-2.202h.793c1.449 0 2.434.866 2.434 2.202v.632h-1.88v-.632c0-.28-.226-.492-.554-.492h-.793c-.328 0-.6.246-.6.492v3.295c0 .293.204.48.6.48h.793c.35 0 .554-.198.554-.48v-.632h1.88v.632zm19.328-3.669v-1.502c0-.094-.068-.117-.102-.117h-4.951c-.055 0-.113.023-.113.117v1.502c0 .082.057.106.113.106h1.389c.124 0 .147.046.147.128v5.433c0 .093.045.117.102.117h1.665c.056 0 .114-.024.114-.117v-5.433c0-.082.022-.128.135-.128h1.4c.056 0 .102-.024.102-.106h-.001zm-6.303 5.667v-7.169c0-.094-.067-.117-.112-.117h-1.598c-.068 0-.103.023-.103.117v1.901c0 1.044.058 1.959.058 1.959h-.034s-.091-.258-.25-.563l-1.676-3.308c-.034-.072-.08-.106-.148-.106h-1.438c-.057 0-.103.023-.103.117v7.169c0 .093.046.117.103.117h1.631c.067 0 .113-.023.113-.117v-1.866c0-.962-.068-1.888-.068-1.888h.047s.09.257.237.527l1.688 3.238c.034.059.068.106.125.106h1.416c.068 0 .112-.023.112-.117zm19.903-1.996v-3.297c0-1.339-.985-2.206-2.435-2.206h-.793c-1.45 0-2.459.879-2.459 2.206v3.296c0 1.326.985 2.206 2.459 2.206h.793c1.449 0 2.435-.88 2.435-2.206v.001zm-1.88 0c0 .281-.204.48-.555.48h-.793c-.397 0-.6-.187-.6-.481v-3.296c0-.247.271-.493.6-.493h.793c.329 0 .555.211.555.493v3.297zm-4.665 1.961l-1.111-2.946c-.033-.105-.044-.187.057-.258.499-.328.827-.892.827-1.619v-.106c0-1.443-.951-2.323-2.435-2.323h-3.161c-.057 0-.103.024-.103.118v7.169c0 .093.046.117.103.117h1.676c.057 0 .114-.023.114-.117v-2.64c0-.083.033-.129.135-.129h.782c.046 0 .08.023.102.081l1.043 2.723c.022.047.056.082.102.082h1.767c.113 0 .136-.07.102-.152zm-2.095-4.811c0 .316-.215.47-.567.47h-1.236c-.102 0-.135-.047-.135-.13v-.927c0-.082.033-.128.135-.128h1.236c.373 0 .566.176.566.492v.223h.001zm-18.09 4.846v-1.502c0-.082-.056-.106-.114-.106h-2.787c-.102 0-.136-.046-.136-.129v-.903c0-.083.035-.129.136-.129h2.289c.056 0 .113-.024.113-.106v-1.513c0-.083-.056-.106-.113-.106h-2.289c-.102 0-.136-.047-.136-.129v-.809c0-.083.035-.13.136-.13h2.788c.068 0 .113-.023.113-.105v-1.502c0-.094-.068-.117-.114-.117h-4.713c-.056 0-.102.023-.102.117v7.169c0 .093.046.117.102.117h4.713c.069 0 .114-.023.114-.117zm70.072 0v-1.502c0-.082-.057-.106-.114-.106h-2.788c-.102 0-.135-.046-.135-.129v-.903c0-.082.034-.129.136-.129h2.288c.057 0 .114-.024.114-.105v-1.515c0-.081-.056-.105-.114-.105h-2.288c-.102 0-.136-.047-.136-.128v-.811c0-.082.034-.128.136-.128h2.787c.068 0 .114-.024.114-.106v-1.502c0-.094-.069-.117-.114-.117h-4.713c-.056 0-.103.023-.103.117v7.169c0 .093.047.117.103.117h4.713c.068 0 .114-.024.114-.117zm-6.277-5.667v-1.502c0-.094-.069-.117-.102-.117h-4.953c-.056 0-.113.023-.113.117v1.502c0 .082.056.106.113.106h1.388c.125 0 .147.046.147.128v5.433c0 .093.046.117.103.117h1.665c.056 0 .113-.024.113-.117v-5.433c0-.082.023-.128.136-.128h1.4c.055 0 .102-.024.102-.106h.001zm-21.833 5.667v-1.502c0-.082-.056-.106-.114-.106h-2.787c-.102 0-.136-.046-.136-.129v-.903c0-.082.034-.129.136-.129h2.289c.057 0 .113-.024.113-.105v-1.515c0-.081-.056-.105-.113-.105h-2.289c-.102 0-.136-.047-.136-.128v-.811c0-.082.034-.128.136-.128h2.788c.068 0 .113-.024.113-.106v-1.502c0-.094-.068-.117-.114-.117h-4.713c-.056 0-.102.023-.102.117v7.169c0 .093.046.117.102.117h4.713c.069 0 .114-.024.114-.117zm-8.246-2.089c0 .247-.249.481-.567.481h-1.235c-.102 0-.135-.046-.135-.129v-3.696c0-.082.034-.128.135-.128h1.236c.306 0 .566.257.566.492v2.98zm1.87-.093v-2.781c0-1.443-.952-2.323-2.436-2.323h-3.161c-.057 0-.102.023-.102.117v7.169c0 .093.045.117.102.117h3.161c1.484 0 2.435-.88 2.435-2.3l.001.001zm22.494 2.147l-1.11-2.946c-.034-.105-.045-.187.056-.258.499-.328.827-.892.827-1.619v-.106c0-1.442-.951-2.323-2.435-2.323h-3.161c-.057 0-.102.024-.102.118v7.169c0 .093.045.117.102.117h1.676c.056 0 .114-.023.114-.117v-2.64c0-.082.033-.129.136-.129h.781c.047 0 .08.024.102.082l1.043 2.721c.022.047.056.083.102.083h1.767c.113 0 .136-.07.102-.152zm-2.095-4.811c0 .316-.216.47-.567.47h-1.235c-.103 0-.136-.047-.136-.13v-.927c0-.082.033-.128.136-.128h1.235c.373 0 .567.176.567.492v.223zm-4.803 4.811l-2.368-7.169c-.023-.071-.056-.082-.103-.082h-1.234c-.068 0-.091.023-.113.082l-2.369 7.169c-.034.093.011.152.112.152h1.746c.056 0 .08-.023.102-.083l.307-.879c.021-.058.044-.082.134-.082h1.36c.091 0 .125.024.148.082l.294.879c.023.06.034.083.103.083h1.778c.125 0 .136-.058.103-.152zm-2.663-2.382c.011.058-.022.106-.102.106h-.657c-.09 0-.125-.048-.113-.106l.204-.916c.158-.692.238-1.443.238-1.443h.034s.079.751.215 1.443l.181.916z" fill="#000"/><path fill-rule="evenodd" clip-rule="evenodd" d="M166.467 140.181h87.884v-22.712h-87.883l-.002 22.712h.001zm87.885 2.468h-87.884v16.292h87.883l.001-16.292zM164 161.409h92.819V115H164v46.409z" fill="#000"/><path opacity=".5" fill-rule="evenodd" clip-rule="evenodd" d="M267.71 125.576v2.478a2.774 2.774 0 01-.808.308 4.346 4.346 0 01-.968.108c-.456 0-.869-.072-1.238-.216a2.812 2.812 0 01-.944-.592 2.537 2.537 0 01-.598-.895 3.043 3.043 0 01-.207-1.135c0-.464.083-.886.247-1.267a2.994 2.994 0 011.637-1.623 3.034 3.034 0 011.167-.228 3.682 3.682 0 01.884.112c.149.038.292.081.43.132.138.051.263.111.375.18l-.478.799a1.226 1.226 0 00-.267-.124 4.214 4.214 0 00-.323-.092 3.012 3.012 0 00-.637-.079c-.271 0-.53.054-.777.163a2.134 2.134 0 00-1.115 1.112 2.024 2.024 0 00-.02 1.586 2.01 2.01 0 001.068 1.075c.249.11.523.164.82.164.106 0 .239-.009.398-.028.16-.018.311-.052.454-.1v-.991h-1.083v-.847h1.983zm3.282 2.894c-.313 0-.607-.052-.88-.156a2.168 2.168 0 01-.713-.436 2.034 2.034 0 01-.478-.675 2.138 2.138 0 01-.175-.876v-3.749h.972v3.725c0 .171.033.331.099.48a1.28 1.28 0 001.175.759c.181 0 .349-.033.506-.1.156-.066.293-.156.41-.267a1.24 1.24 0 00.275-.392c.066-.149.099-.309.099-.48v-3.725h.972v3.749c0 .32-.058.612-.175.876a2.016 2.016 0 01-.482.675 2.216 2.216 0 01-.721.436 2.487 2.487 0 01-.884.156zm3.544-.064v-5.828h3.855v.888h-2.883v1.566h2.565v.912h-2.565v1.55h2.995v.912h-3.967zm4.931 0v-5.828h1.64c.319 0 .61.043.873.128.262.085.485.208.669.368.183.16.325.357.426.591.101.235.151.499.151.792 0 .16-.016.319-.048.479-.032.16-.082.315-.151.464a1.623 1.623 0 01-.669.735l.342.548.339.54.354.559.399.624h-1.171l-.677-1.06a83.67 83.67 0 00-.614-.947h-.892v2.007h-.971zm.971-2.926h.781c.202 0 .369-.035.502-.104a.97.97 0 00.318-.252.873.873 0 00.168-.32 1.21 1.21 0 00.047-.315c0-.091-.014-.193-.043-.308a.91.91 0 00-.474-.58 1.104 1.104 0 00-.51-.103h-.789v1.982zm9.224-2.902v6.099a3.537 3.537 0 00-.247-.263 29.59 29.59 0 00-.47-.46l-.617-.592-.689-.655a118.591 118.591 0 01-1.757-1.695 3.526 3.526 0 01-.242-.26 1.025 1.025 0 00-.064-.083 3.406 3.406 0 01-.096-.124l.024.255v3.606h-.972v-6.092c.038.048.12.135.247.26a40.826 40.826 0 001.088 1.027l.688.636c.234.216.462.429.685.639.223.211.428.403.614.576.186.173.341.321.466.444.125.122.205.207.243.255l.151.224-.024-.272v-3.525h.972zm1.338 0h.98v5.828H291v-5.828zm6.691 5.396a2.861 2.861 0 01-.674.316 3.69 3.69 0 01-1.158.18c-.457 0-.866-.079-1.227-.236a2.74 2.74 0 01-.916-.636 2.733 2.733 0 01-.573-.935 3.203 3.203 0 01-.2-1.127c0-.437.08-.841.239-1.211a2.936 2.936 0 011.605-1.587 3.05 3.05 0 011.167-.224c.159 0 .32.012.482.036.162.024.315.055.458.092.143.037.269.08.378.128a.685.685 0 01.235.152 3.762 3.762 0 00-.111.184l-.084.148a17.177 17.177 0 01-.243.435 1.036 1.036 0 00-.231-.112 1.807 1.807 0 00-.283-.075 3.24 3.24 0 00-.569-.06c-.297 0-.572.056-.824.167-.253.112-.47.26-.654.444a2.015 2.015 0 00-.585 1.403 2.04 2.04 0 001.195 1.842c.244.115.515.172.812.172.17 0 .335-.017.494-.052.159-.034.3-.073.422-.116.122-.042.222-.085.299-.127.077-.043.118-.072.123-.088l.423.887zm4.293.432l-.084-.2-.147-.352a42.558 42.558 0 01-.192-.46l-.215-.523h-1.999l-.637 1.535h-.964l.152-.356.298-.704.399-.935c.146-.344.296-.694.45-1.051.154-.357.304-.707.45-1.051.146-.344.278-.656.398-.935l.298-.704.152-.356a128.016 128.016 0 01.458 1.06l.398.935c.146.344.296.694.45 1.051.154.357.304.707.45 1.051l.398.935.299.704.151.356h-.963zm-2.302-2.359h1.322l-.574-1.39a.691.691 0 01-.039-.108 1.443 1.443 0 01-.048-.18 1.904 1.904 0 01-.048.18 1.125 1.125 0 00-.032.108l-.581 1.39zm-36.548-6.635v-4.214h1.147c.22 0 .422.029.605.087.184.058.342.144.475.259.133.114.237.253.31.418.073.165.11.354.11.567 0 .116-.012.232-.035.346a1.322 1.322 0 01-.312.628c-.082.091-.18.167-.296.229.155.245.323.515.504.811.182.297.365.587.55.869h-.758c-.078-.12-.158-.246-.241-.377a67.404 67.404 0 00-.249-.393l-.243-.384a85.198 85.198 0 00-.223-.351h-.707v1.505h-.637zm.637-2.104h.573a.856.856 0 00.389-.079.705.705 0 00.373-.444.915.915 0 00.038-.244.89.89 0 00-.038-.242.68.68 0 00-.13-.244.746.746 0 00-.246-.189.864.864 0 00-.38-.075h-.579v1.517zm3.001 2.104v-4.214h2.757v.575h-2.12v1.233h1.888v.587h-1.888v1.232h2.201v.587h-2.838zm4.211-2.104h.573a.842.842 0 00.389-.081.75.75 0 00.246-.198.73.73 0 00.127-.25.898.898 0 00.038-.238.89.89 0 00-.038-.242.68.68 0 00-.13-.244.746.746 0 00-.246-.189.864.864 0 00-.38-.075h-.579v1.517zm-.637 2.104v-4.214h1.147c.22 0 .422.029.605.087.183.058.342.144.475.259.133.114.237.253.31.418.073.165.11.354.11.567 0 .167-.025.332-.075.497a1.221 1.221 0 01-.244.442 1.24 1.24 0 01-.44.317 1.61 1.61 0 01-.66.122h-.591v1.505h-.637zm3.342 0v-4.214h2.757v.575h-2.12v1.233h1.889v.587h-1.889v1.232h2.202v.587h-2.839zm7.258-4.214v4.406a4.489 4.489 0 00-.312-.337l-.533-.535c-.201-.201-.415-.412-.64-.633-.226-.221-.44-.432-.641-.631-.2-.2-.376-.378-.527-.535a4.79 4.79 0 01-.301-.334l-.11-.151.017.186v2.778h-.637V115c.043.054.113.132.212.233a47.8 47.8 0 001.274 1.255c.164.159.326.315.487.468a33.23 33.23 0 01.785.776c.096.101.164.177.202.227l.11.163-.017-.198v-2.726h.631zm3.435.232l-.226.518a3.56 3.56 0 00-.472-.14 2.051 2.051 0 00-.449-.052c-.243 0-.437.05-.582.151-.145.101-.217.229-.217.384 0 .131.052.237.156.316.105.08.234.152.389.216.154.063.322.127.504.191.181.064.349.147.504.247.154.101.283.228.388.381.104.153.156.35.156.59 0 .186-.034.354-.101.503a1.062 1.062 0 01-.302.387 1.404 1.404 0 01-.498.25 2.502 2.502 0 01-.698.087c-.17 0-.323-.012-.46-.035a2.431 2.431 0 01-.371-.09 2.198 2.198 0 01-.29-.119 4.618 4.618 0 01-.211-.116l.278-.553c.154.089.326.161.516.215.189.055.361.082.515.082.077 0 .173-.01.287-.029.114-.02.223-.054.327-.102a.85.85 0 00.269-.195.432.432 0 00.113-.308.472.472 0 00-.089-.288.842.842 0 00-.238-.209 2.102 2.102 0 00-.336-.163 37.18 37.18 0 01-.385-.151 6.657 6.657 0 01-.385-.166 1.431 1.431 0 01-.336-.212 1.001 1.001 0 01-.238-.29.828.828 0 01-.09-.399 1.094 1.094 0 01.348-.796c.116-.109.26-.196.432-.262a1.66 1.66 0 01.599-.099c.139 0 .275.012.409.035.133.024.253.05.362.079.108.029.199.057.275.084.075.027.124.047.147.058zm3.47 3.982a10.276 10.276 0 01-.081-.186l-.119-.282a185.142 185.142 0 01-.304-.741h-1.483l-.498 1.209h-.625l1.871-4.412.124.296.214.515.279.663a158.884 158.884 0 00.625 1.468l.281.662.217.515.125.293h-.626zm-1.767-1.744h1.049l-.154-.369a57.172 57.172 0 00-.24-.584 3.718 3.718 0 01-.096-.256 1.38 1.38 0 01-.031-.128c-.008.039-.02.082-.035.128-.016.047-.025.074-.029.082l-.464 1.127zm2.914 1.744v-4.214h1.147c.22 0 .422.029.605.087.184.058.342.144.475.259.134.114.237.253.31.418.074.165.11.354.11.567 0 .116-.011.232-.034.346a1.364 1.364 0 01-.313.628 1.06 1.06 0 01-.296.229c.155.245.323.515.504.811.182.297.365.587.551.869h-.759l-.241-.377a67.404 67.404 0 00-.249-.393l-.243-.384c-.079-.125-.153-.243-.223-.351h-.707v1.505h-.637zm.637-2.104h.574a.851.851 0 00.388-.079.705.705 0 00.374-.444.91.91 0 00.037-.244.886.886 0 00-.037-.242.7.7 0 00-.377-.433.859.859 0 00-.379-.075h-.58v1.517z" fill="#000"/><path d="M262.947 134.475h97.895" stroke="#000" stroke-opacity=".2" stroke-width=".25"/><path d="M269.243 147.718a3.383 3.383 0 01-.358.2 3.632 3.632 0 01-.537.221 5.124 5.124 0 01-.694.158c-.26.049-.537.073-.832.073-.604 0-1.144-.101-1.622-.305a3.663 3.663 0 01-1.21-.842 3.624 3.624 0 01-.758-1.232 4.198 4.198 0 01-.264-1.484c0-.576.106-1.106.316-1.59.211-.492.495-.913.853-1.264a3.907 3.907 0 011.263-.831 4.073 4.073 0 012.18-.242c.217.028.421.066.61.115.19.049.355.106.495.169a.9.9 0 01.316.2 4.576 4.576 0 00-.147.242 7 7 0 01-.116.2l-.126.221c-.042.084-.106.2-.19.348a1.333 1.333 0 00-.305-.148 2.167 2.167 0 00-.379-.095 3.485 3.485 0 00-.748-.084 2.709 2.709 0 00-1.958.811 2.697 2.697 0 00-.569.842c-.133.323-.2.656-.2 1 0 .337.064.667.19.99.133.316.316.597.547.842.239.246.52.446.843.6.323.148.681.221 1.074.221.224 0 .442-.021.652-.063.211-.049.397-.101.558-.158.162-.056.292-.112.39-.168.105-.056.161-.095.168-.116l.558 1.169zm.244-3.254c0-.533.101-1.038.305-1.516.211-.477.491-.895.842-1.252a4.108 4.108 0 011.243-.853 3.73 3.73 0 011.526-.316c.534 0 1.039.105 1.516.316.478.21.895.495 1.253.853.358.357.639.775.842 1.252.211.478.316.983.316 1.516 0 .541-.105 1.05-.316 1.527-.203.47-.484.884-.842 1.242a4.01 4.01 0 01-1.253.832 3.813 3.813 0 01-1.516.305 3.84 3.84 0 01-1.526-.305 4.047 4.047 0 01-1.243-.832 4.232 4.232 0 01-.842-1.242 3.841 3.841 0 01-.305-1.527zm1.295 0c0 .372.066.723.2 1.053.14.323.33.607.568.853.246.239.527.428.843.569.322.14.67.21 1.042.21.358 0 .695-.07 1.011-.21.322-.141.6-.33.831-.569.239-.246.425-.53.558-.853.141-.33.211-.681.211-1.053 0-.372-.07-.719-.211-1.042-.14-.33-.33-.617-.568-.863a2.615 2.615 0 00-1.864-.79 2.55 2.55 0 00-1.863.79 2.888 2.888 0 00-.558.863c-.134.323-.2.67-.2 1.042zm14.596-3.853v8.033a4.781 4.781 0 00-.326-.347 27.973 27.973 0 00-.622-.6 44.89 44.89 0 00-.821-.779 53.979 53.979 0 00-.905-.864l-.906-.863c-.294-.281-.565-.537-.81-.769a46.803 46.803 0 00-.611-.6 5.702 5.702 0 01-.316-.347.82.82 0 00-.084-.105 6.526 6.526 0 01-.126-.169l.031.337v4.748h-1.284v-8.022c.049.063.158.179.326.347.169.162.376.358.621.59.246.231.516.484.811.758.302.273.607.554.916.842.309.281.611.562.905.842.295.274.565.527.811.758.246.225.449.418.611.579.168.162.277.274.326.337l.2.295-.031-.358v-4.643h1.284zm6.365 0v1.232h-1.895v6.443h-1.295v-6.443H286.7v-1.232h5.043zm1.331 7.675v-7.675h2.169c.421 0 .804.056 1.148.169.351.112.645.273.884.484.246.21.435.47.569.779.133.309.2.656.2 1.042 0 .211-.021.421-.064.632a2.666 2.666 0 01-.2.611c-.091.196-.21.379-.358.547a2.199 2.199 0 01-.526.421l.453.727c.147.231.295.466.442.705l.474.737.526.821h-1.548l-.894-1.389c-.281-.443-.551-.86-.811-1.253h-1.179v2.642h-1.285zm1.285-3.853h1.031c.267 0 .488-.046.664-.137.175-.091.316-.2.421-.326a1.23 1.23 0 00.221-.421c.042-.155.063-.295.063-.422 0-.119-.021-.252-.063-.4a1.065 1.065 0 00-.211-.431 1.157 1.157 0 00-.41-.337c-.176-.092-.4-.137-.674-.137h-1.042v2.611zm10.125 3.853a14.044 14.044 0 00-.116-.263 17.364 17.364 0 00-.189-.463l-.253-.6-.284-.695h-2.643l-.842 2.021h-1.274c.028-.063.095-.217.2-.463.105-.253.235-.561.39-.926.161-.372.337-.783.526-1.232l.6-1.39c.204-.47.4-.93.59-1.379.196-.456.372-.867.526-1.232.162-.372.295-.681.4-.927.106-.252.172-.41.2-.473.028.063.095.221.2.473.113.246.246.555.401.927.161.365.336.776.526 1.232.196.449.397.909.6 1.379.204.47.4.933.59 1.39.196.449.372.86.526 1.232.162.365.295.673.4.926.105.246.172.4.2.463h-1.274zm-3.042-3.106h1.747l-.758-1.832a.748.748 0 01-.052-.136 2.559 2.559 0 01-.064-.243 2.525 2.525 0 01-.063.243 1.364 1.364 0 00-.042.136l-.768 1.832zm4.899 1.306v-1.063h1.968v1.063h-1.968zm8.158 1.8l-.116-.263a17.823 17.823 0 00-.19-.463l-.252-.6c-.092-.225-.186-.457-.285-.695h-2.642l-.843 2.021h-1.274c.029-.063.095-.217.2-.463l.39-.926c.161-.372.337-.783.526-1.232l.601-1.39c.203-.47.4-.93.589-1.379.197-.456.372-.867.527-1.232l.4-.927c.105-.252.172-.41.2-.473.028.063.094.221.2.473.112.246.245.555.4.927.161.365.337.776.526 1.232.197.449.397.909.6 1.379.204.47.4.933.59 1.39.196.449.372.86.526 1.232.162.365.295.673.4.926l.2.463h-1.273zm-3.043-3.106h1.748l-.759-1.832a.748.748 0 01-.052-.136 2.525 2.525 0 01-.063-.243 2.525 2.525 0 01-.063.243 1.244 1.244 0 00-.043.136l-.768 1.832zm5.204 3.106v-7.675h2.169c.421 0 .804.056 1.148.169.351.112.645.273.884.484.246.21.435.47.569.779.133.309.2.656.2 1.042 0 .211-.021.421-.064.632a2.666 2.666 0 01-.2.611c-.091.196-.21.379-.358.547a2.199 2.199 0 01-.526.421l.453.727c.147.231.295.466.442.705l.474.737.526.821h-1.548l-.894-1.389c-.281-.443-.551-.86-.811-1.253h-1.179v2.642h-1.285zm1.285-3.853h1.031c.267 0 .488-.046.664-.137.175-.091.316-.2.421-.326a1.23 1.23 0 00.221-.421c.042-.155.063-.295.063-.422 0-.119-.021-.252-.063-.4a1.065 1.065 0 00-.211-.431 1.157 1.157 0 00-.41-.337c-.176-.092-.4-.137-.674-.137h-1.042v2.611zm11.065 3.285a3.383 3.383 0 01-.358.2 3.632 3.632 0 01-.537.221 5.105 5.105 0 01-.695.158 4.478 4.478 0 01-.831.073c-.604 0-1.144-.101-1.622-.305a3.653 3.653 0 01-1.21-.842 3.624 3.624 0 01-.758-1.232 4.198 4.198 0 01-.264-1.484c0-.576.106-1.106.316-1.59.211-.492.495-.913.853-1.264a3.907 3.907 0 011.263-.831 4.073 4.073 0 012.18-.242c.217.028.421.066.61.115.19.049.355.106.495.169a.9.9 0 01.316.2 4.576 4.576 0 00-.147.242 7 7 0 01-.116.2 8.47 8.47 0 01-.127.221c-.042.084-.105.2-.189.348a1.333 1.333 0 00-.305-.148 2.167 2.167 0 00-.379-.095 3.523 3.523 0 00-.748-.084 2.709 2.709 0 00-1.958.811 2.697 2.697 0 00-.569.842c-.133.323-.2.656-.2 1 0 .337.063.667.19.99.133.316.316.597.547.842.239.246.52.446.843.6.322.148.68.221 1.073.221.225 0 .443-.021.653-.063.211-.049.397-.101.558-.158.162-.056.291-.112.39-.168.105-.056.161-.095.168-.116l.558 1.169zm.955.568v-7.675h1.295v3.201h3.663v-3.201h1.306v2.106c0 .54-.004 1.119-.011 1.737v3.832h-1.295v-3.242h-3.663v3.242h-1.295zm8.03-7.675h1.294v7.675h-1.294v-7.675zm3.453 0l2.053 4.938c0 .007.014.056.042.147.028.085.049.165.063.242.014-.077.035-.157.063-.242a.866.866 0 01.053-.147l2.053-4.938h1.274c-.028.063-.095.221-.2.474-.105.253-.239.565-.4.937-.154.365-.33.775-.526 1.232a203.114 203.114 0 01-1.19 2.758c-.19.456-.365.87-.527 1.242-.154.365-.287.674-.4.927-.105.246-.172.4-.2.463l-.2-.463a42.304 42.304 0 00-.4-.927c-.154-.372-.33-.786-.526-1.242a262.046 262.046 0 00-1.19-2.758 57.5 57.5 0 00-.526-1.232l-.39-.937a27.521 27.521 0 00-.2-.474h1.274zm5.665 3.853c0-.533.101-1.038.305-1.516.211-.477.491-.895.842-1.252a4.108 4.108 0 011.243-.853 3.73 3.73 0 011.526-.316c.534 0 1.039.105 1.516.316.478.21.895.495 1.253.853.358.357.639.775.842 1.252.211.478.316.983.316 1.516 0 .541-.105 1.05-.316 1.527-.203.47-.484.884-.842 1.242a4.01 4.01 0 01-1.253.832 3.813 3.813 0 01-1.516.305 3.84 3.84 0 01-1.526-.305 4.047 4.047 0 01-1.243-.832 4.232 4.232 0 01-.842-1.242 3.841 3.841 0 01-.305-1.527zm1.295 0c0 .372.066.723.2 1.053.14.323.33.607.568.853.246.239.527.428.843.569.322.14.67.21 1.042.21.358 0 .695-.07 1.011-.21.322-.141.6-.33.831-.569.239-.246.425-.53.558-.853.141-.33.211-.681.211-1.053 0-.372-.07-.719-.211-1.042-.14-.33-.33-.617-.568-.863a2.609 2.609 0 00-.843-.579 2.472 2.472 0 00-1.021-.211 2.55 2.55 0 00-1.863.79 2.888 2.888 0 00-.558.863c-.134.323-.2.67-.2 1.042zm12.261-3.421l-.464 1.053a7.004 7.004 0 00-.873-.253 3.767 3.767 0 00-.801-.095c-.428 0-.768.084-1.021.253-.245.168-.368.382-.368.642 0 .225.091.407.273.548.19.14.425.266.706.379.281.112.582.228.905.347.33.112.635.26.916.442.281.183.513.414.695.695.19.281.284.639.284 1.074 0 .337-.063.642-.189.916a1.822 1.822 0 01-.548.705 2.72 2.72 0 01-.937.464c-.372.105-.81.157-1.316.157a5.157 5.157 0 01-1.526-.221 4.725 4.725 0 01-.527-.2 5.063 5.063 0 01-.4-.221l.558-1.126c.295.161.611.288.948.379.337.084.635.126.895.126.126 0 .287-.014.484-.042.204-.028.4-.081.59-.158.189-.077.351-.182.484-.316a.68.68 0 00.21-.516.738.738 0 00-.284-.6 2.531 2.531 0 00-.695-.421c-.28-.126-.586-.249-.916-.368a5.964 5.964 0 01-.905-.422 2.581 2.581 0 01-.705-.61c-.183-.246-.274-.555-.274-.927 0-.266.052-.526.158-.779.105-.259.263-.491.473-.695.218-.203.485-.368.801-.494.322-.127.702-.19 1.137-.19.273 0 .537.025.789.074.26.042.492.091.695.147.204.056.372.112.506.169.133.049.214.077.242.084zm-97.722 15.716c0-.533.05-1.042.148-1.526.098-.485.228-.934.389-1.348.169-.421.358-.8.569-1.137a5.08 5.08 0 01.653-.853l.484.127c.168.035.333.073.495.115a6.586 6.586 0 00-.611.832 7.695 7.695 0 00-.905 2.348 7.283 7.283 0 00-.137 1.442c0 .506.045.987.137 1.443.098.456.224.881.379 1.274.154.393.33.747.526 1.063.204.323.407.6.611.832a5.782 5.782 0 01-.495.126l-.484.126a5.446 5.446 0 01-.653-.863 7.354 7.354 0 01-.569-1.126 8.246 8.246 0 01-.389-1.348 7.68 7.68 0 01-.148-1.527zm3.714-4.569h1.295v7.675h-1.295v-7.675zm3.064-.337c.035.049.112.162.231.337.12.169.267.379.443.632.182.245.382.519.6.821.224.302.449.611.673.926.232.309.457.615.674.916.218.295.414.565.59.811l.442.621c.126.162.204.263.232.306l.189-.264.421-.6c.176-.238.372-.509.59-.81.218-.309.442-.622.674-.937.231-.316.456-.629.674-.937l.61-.843a33.163 33.163 0 00.716-.979v8.012h-1.379v-3.916c0-.056.007-.116.021-.179a.823.823 0 00.021-.116l-2.537 3.653a11.166 11.166 0 01-.263-.347c-.134-.19-.295-.414-.485-.674-.189-.26-.389-.537-.6-.832-.21-.302-.411-.579-.6-.832-.183-.259-.34-.477-.474-.652a5.494 5.494 0 01-.21-.316c0 .014.007.053.021.116a.829.829 0 01.021.179v3.916h-1.295v-8.012zm11.489 4.948a7.681 7.681 0 01-.547 2.875 6.828 6.828 0 01-.558 1.126 5.628 5.628 0 01-.653.864l-.979-.222a5.39 5.39 0 00.61-.831c.197-.323.372-.678.527-1.064.154-.393.277-.817.368-1.274.099-.463.148-.947.148-1.452 0-.506-.049-.987-.148-1.443a7.524 7.524 0 00-.368-1.274 6.54 6.54 0 00-.527-1.063 5.888 5.888 0 00-.61-.842l.484-.127.495-.147c.224.238.442.526.653.863.21.337.396.713.558 1.127.168.414.301.867.4 1.358.098.484.147.993.147 1.526zm2.534-.789h1.032c.267 0 .488-.046.663-.137.176-.091.316-.204.421-.337.106-.14.179-.284.221-.432.043-.154.064-.291.064-.41 0-.113-.021-.242-.064-.39a1.075 1.075 0 00-.21-.431 1.152 1.152 0 00-.411-.337c-.175-.092-.4-.137-.674-.137h-1.042v2.611zm-1.284 3.853v-7.675h2.168c.422 0 .804.056 1.148.169.351.112.646.273.884.484.246.21.436.47.569.779.133.309.2.656.2 1.042 0 .309-.046.618-.137.927a2.243 2.243 0 01-.453.821c-.203.239-.47.435-.8.59-.33.147-.737.221-1.221.221h-1.074v2.642h-1.284zm5.632-3.822c0-.533.102-1.038.306-1.516.21-.477.491-.895.842-1.253a4.131 4.131 0 011.242-.852 3.735 3.735 0 011.527-.316c.533 0 1.039.105 1.516.316.477.21.895.495 1.253.852.358.358.639.776.842 1.253.211.478.316.983.316 1.516 0 .541-.105 1.05-.316 1.527-.203.47-.484.884-.842 1.242a4.022 4.022 0 01-1.253.832 3.816 3.816 0 01-1.516.305 3.845 3.845 0 01-1.527-.305 4.055 4.055 0 01-1.242-.832 4.213 4.213 0 01-.842-1.242 3.842 3.842 0 01-.306-1.527zm1.295 0c0 .372.067.723.2 1.053.141.323.33.607.569.853.246.239.526.428.842.569.323.14.671.21 1.043.21.357 0 .694-.07 1.01-.21.323-.141.6-.33.832-.569.239-.246.425-.53.558-.853.14-.33.211-.681.211-1.053 0-.372-.071-.719-.211-1.042-.14-.33-.33-.618-.569-.863a2.594 2.594 0 00-.842-.579 2.475 2.475 0 00-1.021-.211 2.55 2.55 0 00-1.864.79 2.914 2.914 0 00-.558.863c-.133.323-.2.67-.2 1.042zm12.261-3.421l-.463 1.053a7.017 7.017 0 00-.874-.253 3.758 3.758 0 00-.8-.095c-.428 0-.768.084-1.021.253-.246.168-.369.382-.369.642 0 .225.092.407.274.548.19.14.425.266.706.379.28.112.582.228.905.347.33.112.635.26.916.442.281.183.512.414.695.695.189.281.284.639.284 1.074 0 .337-.063.642-.189.916-.12.274-.302.509-.548.705a2.73 2.73 0 01-.937.464 4.879 4.879 0 01-1.316.157 5.148 5.148 0 01-1.527-.221 4.705 4.705 0 01-.526-.2 4.89 4.89 0 01-.4-.221l.558-1.126c.295.161.611.287.947.379.337.084.636.126.895.126.127 0 .288-.014.485-.042.203-.028.4-.081.589-.158a1.44 1.44 0 00.485-.316.68.68 0 00.21-.516.74.74 0 00-.284-.6 2.547 2.547 0 00-.695-.421 13.109 13.109 0 00-.916-.368 5.92 5.92 0 01-.905-.422 2.6 2.6 0 01-.706-.61c-.182-.246-.274-.555-.274-.927 0-.266.053-.526.158-.779a2.03 2.03 0 01.474-.695c.218-.203.484-.368.8-.495a3.12 3.12 0 011.137-.189c.274 0 .537.025.79.074.26.042.491.091.695.147.203.056.372.112.505.168.134.05.214.078.242.085zm1.488-.432h1.295v7.675h-1.295v-7.675zm4.348 1.169v2.084h.969c.358 0 .621-.105.79-.316.175-.21.263-.463.263-.758 0-.344-.106-.596-.316-.758-.211-.168-.495-.252-.853-.252h-.853zm0 3.179v2.159h1.011c.19 0 .368-.021.537-.064.168-.049.316-.115.442-.2a.962.962 0 00.295-.337c.07-.14.105-.301.105-.484a.932.932 0 00-.463-.842 1.476 1.476 0 00-.484-.179 2.798 2.798 0 00-.548-.053h-.895zm-1.284 3.327v-7.675h2.095c.379 0 .723.039 1.032.116.309.07.572.186.789.347.218.155.383.362.495.621.12.253.179.558.179.916 0 .197-.021.39-.063.58a1.689 1.689 0 01-.189.515 1.453 1.453 0 01-.337.411 1.447 1.447 0 01-.527.274c.176.035.351.094.527.179.182.084.344.2.484.347.14.141.253.32.337.537.091.211.137.46.137.748 0 .372-.074.691-.221.958-.141.259-.33.473-.569.642a2.325 2.325 0 01-.811.368 3.89 3.89 0 01-.958.116h-2.4zm6.261 0v-7.675h1.285v6.454h3.727v1.221h-5.012zm6.056 0v-7.675h5.096v1.169h-3.811v2.063h3.39v1.2h-3.39v2.043h3.958v1.2h-5.243zm11.046-7.243l-.463 1.053a7.017 7.017 0 00-.874-.253 3.766 3.766 0 00-.8-.095c-.429 0-.769.084-1.022.253-.245.168-.368.382-.368.642a.66.66 0 00.274.548c.189.14.424.266.705.379.281.112.583.228.905.347.33.112.636.26.916.442.281.183.513.414.695.695.19.281.285.639.285 1.074 0 .337-.064.642-.19.916a1.828 1.828 0 01-.547.705 2.73 2.73 0 01-.937.464 4.879 4.879 0 01-1.316.157 5.17 5.17 0 01-1.527-.221 4.725 4.725 0 01-.527-.2 5.063 5.063 0 01-.4-.221l.558-1.126c.295.161.611.287.948.379.337.084.635.126.895.126.126 0 .288-.014.484-.042.204-.028.4-.081.59-.158.189-.077.351-.182.484-.316a.68.68 0 00.211-.516.739.739 0 00-.285-.6 2.531 2.531 0 00-.695-.421c-.28-.126-.586-.249-.915-.368a5.976 5.976 0 01-.906-.422 2.581 2.581 0 01-.705-.61c-.183-.246-.274-.555-.274-.927 0-.266.053-.526.158-.779.105-.26.263-.491.474-.695.217-.203.484-.368.8-.495a3.12 3.12 0 011.137-.189c.274 0 .537.025.79.074.259.042.491.091.694.147.204.056.372.112.506.168.133.05.214.078.242.085z" fill="#000"/></svg>