<svg width="528" height="278" fill="none" xmlns="http://www.w3.org/2000/svg"><path fill="#004380" d="M0 0h528v278H0z"/><path d="M224 138.923V59.928c0-.773.155-.928.928-.928h78.84c.773 0 .928.155.928.928v158.144c0 .773-.155.928-.928.928h-78.84c-.773 0-.928-.155-.928-.928v-79.149zm56.734-66.32c0 .156.155.31.309.31.773.464 1.392 1.237 1.856 2.164.927 1.855 1.545 3.71 1.855 5.72.154 1.237 1.082.773 1.7.773.928 0 .464-.618.464-1.082-.155-4.174-.464-8.502-.773-12.676v-.155s-.155 0-.155-.155c0-.309-.309-.309-.463-.309-.619.155-1.237.155-1.856.155h-45.294c-.464 0-.928-.155-1.237.464-.154.463-.309 1.082.155 1.546l.154.154c.155 0 .309.155.464.155 2.164 0 4.174.463 6.184.927 0 .31.154.464.618.464l.155.155c-.155.773.463 1.082.618 1.7.309 1.391.618 2.937.618 4.483v43.131c0 .463-.154.927.155 1.391 0 .927 0 1.855-.155 2.782-.463 2.629-1.546 3.711-4.174 4.329-1.546.309-3.091.309-4.637.464-.619 1.7-.464 2.009 1.391 2.009h46.531c.464 0 .928.155 1.237-.309.928-.309.618-1.236.773-1.855.309-.154.464-.464.464-.618.154-1.082.618-2.01.927-3.092.31-.773.773-1.546.619-2.628.154-.155.154-.309.154-.618.155-.155.155-.31.155-.619.618-2.009 1.237-3.864 1.855-5.874 0-.155.464-.464-.155-.618-.773-.31-1.546.154-2.009.772-1.546 2.628-3.092 5.102-5.102 7.266-2.009 2.164-4.483 3.71-7.42 4.02-.928-.155-2.01.154-2.937.154-5.102 0-10.203.155-15.305-.154-1.236 0-2.318-.619-2.782-1.856-.464-.927-.309-1.855-.309-2.937v-21.333c0-.928.309-1.237 1.236-1.237h11.131c2.782 0 5.565 0 8.193 1.082.464.773.928 1.546 1.701 2.01v.618c.463 1.546.927 2.938 1.082 4.638 0 .309 0 .618.463.773.619.309 1.083.464 1.701-.155v-.154c.309-.309.154-.773.154-1.082V87.29c0-.155 0-.31-.309-.464-1.391-.464-1.7-.31-1.855 1.082-.154 1.237-.309 2.474-.773 3.71-.618 1.7-1.7 3.092-3.555 3.556-1.546.154-3.092.464-4.483.464h-13.604c-.773 0-1.082-.31-1.082-1.082V72.14c0-.773.309-1.082 1.082-1.082 7.42.155 14.995-.464 22.415.618.155.155.309.155.619.155.154.31.463.464.773.464.309.154.309.154.463.309zm22.416 67.247c-.309-.927-1.082-.309-1.546-.309H225.7c-.309 0-.463 0-.618.309v.155c-.618.618-.154 1.237-.309 2.009v74.667c0 1.701 0 1.701 1.7 1.701h75.904c.309 0 .773.154.927-.464.31-.309.155-.773.155-1.082v-75.594c0-.619.155-1.083-.309-1.392z" fill="#fff"/><path d="M225.082 139.852v77.449c0 .464.155.618.618.618h76.368c.309 0 .773.155 1.082-.154-.155.463-.464.463-.928.463h-75.903c-1.701 0-1.701 0-1.701-1.7v-74.667c.31-.773 0-1.391.464-2.009zm51.942-12.524c-1.082.309-2.164.309-3.246.309h-13.604c-3.865 0-4.947-1.082-4.947-4.947v-22.106c0-.773.155-1.082.928-1.082 5.101.154 10.048-.155 15.149.154 1.546.155 3.247.31 4.638 1.392-2.628-1.082-5.411-1.082-8.193-1.082h-11.131c-.927 0-1.236.309-1.236 1.236v21.334c0 .927-.155 2.009.309 2.937.618 1.237 1.546 1.7 2.782 1.855 5.102.309 10.203.155 15.305.155 1.391-.155 2.319-.31 3.246-.155zm-39.729 2.01c.154 1.7.154 1.7 1.7 1.7h47.614c-.309.619-.773.31-1.237.31h-46.531c-2.01 0-2.165-.31-1.546-2.01zm66.009 10.513c-.309-.31-.773-.155-1.236-.155h-76.986c.155-.309.464-.309.618-.309h75.904c.618.154 1.391-.464 1.7.464zm0 77.757v-77.913c.31.309.31.773.31 1.082v75.595c-.155.618 0 .927-.31 1.236zM274.705 95.33c-1.546.618-3.246.772-4.792.772h-13.758c-.773 0-.928-.154-.928-.928V71.986c0-.618 0-.927.773-.927h19.014c1.392 0 2.783 0 4.02.773-7.42-1.083-14.995-.31-22.416-.619-.773 0-1.082.31-1.082 1.082v22.416c0 .773.309 1.082 1.082 1.082h13.604c1.546.154 3.092-.155 4.483-.464zM244.87 71.213c1.236 1.391 1.236 3.092 1.391 4.792.154 2.319 0 4.638 0 6.957v38.802c-.309-.464-.155-.928-.155-1.392v-43.13c0-1.546-.154-2.937-.618-4.483-.155-.464-.928-.773-.618-1.546zm40.966-3.713h-46.841c-1.7 0-1.7 0-1.7 1.701-.619-.463-.309-.927-.155-1.545.155-.464.773-.464 1.237-.464h45.294c.619 0 1.237 0 1.856-.155.154.155.309.155.309.464zm-4.793 41.432V87.135c.31 0 .31.154.31.463v20.406c-.155.155-.155.619-.31.928zm-43.748-39.576c2.009 0 3.864 0 5.719.618.31.154.619.154.928.464a20.658 20.658 0 00-6.184-.928c-.154 0-.309-.154-.463-.154zm49.932 59.828c.618-2.164 1.391-4.174 2.164-6.338.155.927-.309 1.7-.618 2.628-.309 1.082-.773 2.009-.928 3.092-.154.154-.309.463-.618.618zm-9.43-25.971c.928 1.546 1.082 3.246 1.237 4.947 0 .309 0 .618.154.927-.463-.154-.463-.463-.463-.773-.155-1.546-.464-3.091-1.082-4.637.154-.155.154-.31.154-.464zm-1.855-2.166c.773.464 1.391 1.237 1.701 2.01a5.587 5.587 0 01-1.701-2.01z" fill="#fff"/><path d="M286.454 131.039c.309-.619.309-1.237.773-1.855-.155.618.155 1.545-.773 1.855zm-7.111-21.951c.618 0 1.082 0 1.7-.154-.618.618-1.236.463-1.7.154zm.309-37.102a.85.85 0 01.773.464c-.309 0-.618 0-.773-.464zm-35.71-1.392c.309 0 .464.309.618.464-.309 0-.463-.155-.618-.464zm45.449 52.253c0-.155 0-.464.155-.618 0 .309 0 .463-.155.618zm.155-.619c0-.155 0-.464.154-.619 0 .31 0 .464-.154.619zm-10.512-50.396c.154 0 .464 0 .618.155-.154.154-.464 0-.618-.155zm1.7.774c.155.154.309.154.309.309-.154-.155-.309-.155-.309-.31zm-36.019-1.547l.155.154c-.155 0-.155-.154-.155-.154zm35.71 1.388c.155 0 .155.155.309.155-.154-.155-.154-.155-.309-.155zM231.884 179.27h-.309c-.155-1.082.464-1.082 1.237-1.082h62.917c.464 0 1.392-.309 1.392.464s-.928.464-1.392.464h-62.144c-.464 0-1.083-.155-1.701.154zm65.546 18.551v.309c-.464.464-.928.309-1.546.309h-63.227c-.309 0-.773.155-.773-.309 0-.464.464-.309.773-.309h63.536c.309-.155.773-.155 1.237 0zm-32.928-39.112h32c.31 0 .773-.155.928.154.309.464 0 .928-.618 1.082h-64.464c-.464 0-1.082.155-1.082-.773 0-.309.154-.463.463-.463h32.773zm.155.927h31.072c.464 0 1.546.309 1.546-.309 0-.773-.927-.464-1.546-.464h-62.608c-.464 0-1.237-.309-1.237.464 0 .618.773.309 1.237.309h31.536z" fill="#fff"/><path d="M297.43 197.821c-.464-.154-.928-.154-1.391-.154h-63.537c-.309 0-.773-.155-.773.309 0 .464.464.309.773.309h63.227c.464 0 1.083.155 1.701-.464 0 .309.155.619-.309.773h-65.392c-.463 0-.309-.309-.309-.618s0-.619.464-.619h64.773c.155.155.773-.309.773.464zm-65.546-18.55c.618-.309 1.082-.155 1.701-.155h62.144c.464 0 1.392.309 1.392-.464 0-.772-.928-.463-1.392-.463h-62.917c-.773 0-1.546 0-1.237 1.082-.464-.928-.309-1.237.618-1.237h64.309c.464 0 .928-.154.928.618 0 .773-.464.619-.928.619h-64.618zm44.831-31.692c-.618-.927-2.164-1.391-3.246-1.082-.155 0-.31.155-.31.309v2.164c0 .155 0 .31.155.31.618.463 2.164-.155 2.628-.928.155.928 0 1.701 0 2.474-.464-1.237-1.391-.928-2.319-.928-.464 0-.618.155-.464.618v.31c.155.772-.463 1.7.31 2.164 1.082.618 2.628-.155 3.401-1.082l.154-.155c.155 1.391-.309 1.855-1.546 1.855h-3.864c.463-.464.463-.927.463-1.546v-4.174c0-.618.155-1.391-.773-1.7 1.701 0 3.401-.155 4.947 0 .928-.155.309.773.464 1.391zm-37.72 17.622h2.783c-1.082.309-.773 1.082-.773 1.855v2.937c0 1.392.618 2.165 1.7 2.165 1.237 0 2.165-.619 2.319-2.01v-3.401c0-.618-.154-1.237-.927-1.391h2.164c-.773.309-.773.927-.773 1.546v3.401c0 1.7-1.082 2.473-2.783 2.473-1.855 0-2.782-.773-2.937-2.473v-3.401c0-.773 0-1.392-.773-1.701zm24.116 46.379a8.38 8.38 0 01-2.782 0c.772-.154.772-.618.463-1.236-.309-.464-.309-1.237-1.236-1.082h-.928c-1.082 0-1.546.463-1.7 1.546-.155.618.463.463.772.772-.618.155-1.082.155-2.318 0 .773-.309 1.082-1.082 1.391-1.7.773-1.855 1.546-3.71 2.473-5.72.464.155.464.464.619.773.773 1.701 1.546 3.556 2.164 5.411a2.07 2.07 0 001.082 1.236zm-2.937-2.782a14.87 14.87 0 01-1.082-2.783c-.464 1.082-.773 1.855-1.237 2.783h2.319zm5.411-43.593c1.545 0 2.782-.155 4.019.154.927.155 1.546.619 1.7 1.546.155.928-.154 1.546-1.236 2.01-.155 0-.155.154-.464.154 1.082 1.083 1.546 2.783 3.246 3.247-1.082.464-1.855.309-2.473-.464-.464-.773-1.082-1.391-1.546-2.164-.155-.309-.464-.619-.928-.464-.463.155-.154.618-.154.773v.927c0 .773 0 1.392.927 1.701h-2.937c.928-.309.928-1.082.928-1.855v-3.865c0-1.082 0-1.082-1.082-1.7zm4.328 1.236l-.309-.309c-.464-.464-1.082-.464-1.701-.309-.618.155-.154.773-.309 1.237v1.236c0 .619.309.619.773.619 1.391-.309 1.701-.928 1.546-2.474.773.619.155 1.392.155 2.01 1.391-.618 1.082-1.855.463-2.319-.463-.464-.618-.154-.618.309zm-2.628-.463h-.309v5.719c0 .155 0 .31.309.31s.309-.155.309-.464v-1.391c-.309-1.237-.309-2.628-.309-4.174zm12.522 40.81c.464 1.391.154 2.782-.773 3.864-1.082 1.237-2.319 1.237-3.71.928-1.237-.155-2.319-1.855-2.319-3.401.154-.618.309-1.082.154-1.701 0-.154.155-.309.155-.463.155-.155.155-.155.155-.464a1.87 1.87 0 00.773-.773c.154 0 .309-.155.463-.309.155.154.464.154.619.309-.773.618-.928 1.546-1.082 2.473-.31.464-.31.773 0 1.237 0 .155 0 .309.154.464-.154.154-.154.464.155.618 0 .155.154.155.154.309.464.928 1.082 1.392 2.01 1.392 1.082 0 1.546-.619 1.855-1.546.464-1.546.464-3.092-.309-4.483.154-.155-.309-.619.154-.619l.155.155.155.155.154.154c.155 0 .155.155.309.155 0 .154.155.309.31.463 0 .619 0 .928.309 1.083zm-21.643-20.407c-.927 2.01-1.7 3.865-2.782 6.184-.773-1.855-1.546-3.401-2.319-4.947.464 0 .618.309.773.773 0 .155.154.309.309.309s.309-.309.155-.309c-.619-.928-.773-1.855-1.392-2.783-.154-.154-.309-.309-.618-.154-.309.154-.309.463-.155.618.155.309.155.618.309.928v3.864c0 .773 0 1.392 1.083 1.546-.928.309-1.701.155-2.474 0 1.082-.154.928-.927.928-1.7v-4.02c0-.618 0-1.236-.928-1.236 1.391-.619 2.01-.309 2.628.927.619 1.392 1.391 2.937 2.164 4.483.619-1.391 1.237-2.782 1.855-4.019.773-1.546.773-1.546 2.629-1.546-.155.464-.464.309-.773.309-1.083-.618-1.237-.618-1.392.773zm-23.497 24.271l-1.392-1.855c-.309-.309-.618-.618-1.082-.464-.464.155 0 .464-.154.773v1.546c-.31 1.082-.31 1.082-1.082.464.309-.155.309-.309.309-.618v-4.793c0-.309-.155-.618.154-.927.309-.155.619 0 .928.155-.155 0-.309 0-.309.154 0 .928-.31 1.855.154 2.628 1.546.309 2.319-.464 2.319-1.855 0-.927-.773-.927-1.237-1.237.155 0 .31-.154.619-.154.309.154.773.154 1.082.309 1.237.618 1.237 2.319-.155 3.092-.618.309-.464.463-.154.927.618.773 1.082 1.546 1.7 2.319-.464.773-.773-.155-1.237-.155-.154-.154-.309-.309-.463-.309z" fill="#fff"/><path d="M234.976 211.116c.464 0 .773.928 1.237.155 2.164.463 2.164.463 2.164-1.855v-3.247c0-.773.154-1.391-.928-1.7h5.102c.309 0 .463.154.463.464v1.236c-.463-1.546-1.7-1.236-2.782-1.236-.618 0-.773.309-.773.772v2.01c-.618-.773-.155-1.546-.309-2.319 0-.309 0-.618-.309-.618-.464 0-.31.309-.31.618 0 1.855.155 3.556 0 5.411 0 .309 0 .773.31.773.463 0 .309-.309.309-.619.154-.772-.309-1.7.154-2.473v2.164c0 .619.155.928.773.928 1.237 0 2.628.154 3.092-1.701.155 1.546-.309 2.165-1.391 2.165h-6.029c-.309-.31-.619-.464-.773-.928zm61.681-19.942c.309.463.618.772 1.237.927-.773.309-1.855.309-2.937.155.463-.31 1.082-.464.618-1.237-.309-.618-.309-1.391-1.391-1.237h-.928c-.927 0-1.546.619-1.7 1.546 0 .618.463.464.772.773-.618.309-1.236.309-2.318 0 .773-.309 1.082-1.082 1.391-1.7.773-1.701 1.391-3.247 2.164-4.793.155-.154.155-.463.464-.463.309 0 .464.309.464.463.464 1.237 1.082 2.474 1.546 3.71l-.155.155c-.309-.155-.155-.773-.618-.464-.309.309-.155.619 0 .773.154.309.309.464.618.619v.773c0 .309 0 .618.309.618.464 0 .464-.309.464-.618zm-2.937-4.484c-.309.31-.464.773-.619 1.083-.773 1.7-.618 1.7 1.083 1.545.463 0 .463-.154.309-.618-.155-.618-.464-1.237-.773-2.01zm-34.628-14.684h.927c1.855 0 1.855 0 2.938-1.392.309 1.082-.155 1.855-1.237 1.855-1.546 0-3.092 0-4.638-.154 1.082-.309.928-1.082.928-1.855v-4.02c0-.618 0-1.082-1.082-1.236.618-.309 1.082-.155 1.391-.309h2.937c1.391 0 1.391 0 1.237 1.855-.464-1.855-1.855-1.392-2.937-1.392-.31 0-.619 0-.619.309v2.165c0 .154 0 .154.155.309.773.309 2.164-.155 2.628-.928v2.474c-.464-.464-.464-.928-1.082-1.082-1.701-.31-1.855-.155-1.855 1.546.309.927.309 1.391.309 1.855-.309-.31-.309-.773-.309-1.237v-4.638c0-.309 0-.618-.464-.618s-.309.464-.309.618v5.411c0 .309 0 .618.309.773.309.154.618 0 .773-.309zm-21.643 15.15c.928 2.473-.309 4.638-2.937 5.101-.309 0-.618.155-1.082.155-1.082 0-2.01 0-3.092-.155 1.237-.309.928-1.236.928-2.009v-3.711c0-.618.154-1.391-.928-1.545 1.701 0 3.401-.31 4.947.154.773.155 1.391.619 1.701 1.237-.31-.309-.619-.618-1.083-.773-.463-.309-.618-.155-.618.309-.618-.618-1.391-.773-2.319-.618-.464 0-.618.154-.618.618v5.102c0 .463.154.618.618.618 1.237.155 2.319-.309 3.092-1.391 0 .154-.155.463.155.618.154 0 .309-.155.463-.309.928-.928.928-2.164.773-3.401zm-5.101 1.391v-2.628c0-.309.154-.773-.309-.773-.464 0-.31.464-.31.773 0 1.855.31 3.71 0 5.565 0 .31 0 .464.464.464.309 0 .309-.309.309-.464-.154-.927-.154-1.855-.154-2.937zm-.155-39.422h1.237c.773 0 1.391 0 1.546-.927.154.772.154 1.545.154 2.473-.618-.928-1.545-1.237-2.473-.928-.309.155-.309.31-.309.619v1.546c0 1.082.154 1.236 1.237 1.236.927-.154 1.855-.309 2.473-1.391.155 1.237 0 1.701-1.082 1.701h-4.329s-.154 0-.309-.155c.928 0 .928-.618.928-1.237v-4.328c0-.619 0-1.237-.773-1.546 1.7 0 3.401-.155 5.101 0 .928.154.309.927.464 1.546-.773-1.855-2.319-1.082-3.556-1.082 0-.464-.309-.31-.463-.31-.31 0-.464.31-.464.619v5.41c0 .31 0 .619.309.619.464 0 .309-.464.309-.619-.309-1.082-.464-2.164 0-3.246 0 0-.154.155 0 0zm16.541 56.426c-.154-.309-.309-.464-.618-.773.309-.155.773-.309 1.082-.309 1.237 1.546 2.473 3.092 3.865 4.637.154.155.154.619.618.31.309.618.619 1.391-.154 1.855-1.392-1.701-2.783-3.401-4.329-5.102-.618.309.155 1.237-.464 1.546v-2.164c.155 0 0 .154 0 0zm38.029-1.237h2.783c-.928.31-.928.928-.928 1.701v4.174c0 .618 0 1.237.928 1.391h-2.783c.773-.154.928-.773.928-1.546v-4.174c0-.618 0-1.236-.928-1.546zm.309-53.023c.155.773-.154 1.237-.309 1.855 0 .155-.309.309-.463.309-1.701 0-3.401 0-5.257-.154.928-.155.928-.773.928-1.392v-4.174c0-.618 0-1.236-.773-1.546h2.937c-1.391.31-1.082 1.392-1.082 2.319v3.556c0 .618.155.927.928.927 1.236-.154 2.473 0 3.091-1.7zm-4.946-1.391v2.318c0 .31-.155.773.309.773.464 0 .309-.463.309-.618 0-1.7.309-3.401 0-5.256 0-.309.464-.773-.155-.773-.618-.155-.618.464-.618.928.155.773.155 1.7.155 2.628zm-7.112 22.722c.928-.155.928-.773.928-1.392v-4.174c0-1.082 0-1.082-.928-1.546.773-.154 1.856-.154 3.092 0-1.236.155-1.082.928-1.082 1.701v4.019c0 .619 0 1.237.928 1.546-.928-.154-2.01-.154-2.938-.154zm7.73 34.939h.927c.619 0 1.237-.155 1.392-.928.154.773.154 1.546.154 2.628-.309-.618-.309-1.082-.927-1.082-1.237-.154-1.546 0-1.546 1.237v.773c0 .618 0 1.237.927 1.391a9.333 9.333 0 01-2.937 0c.928-.154.928-.618.928-1.391v-4.329c0-1.082 0-1.082-1.082-1.546h5.101c.464 0 .464.155.464.464v1.082c-.618-1.7-2.164-1.082-3.246-1.236-.464-.155-.928-.31-.928.463v5.566c0 .463.309.773.773.773-.155-1.237-.464-2.628 0-3.865zm12.985-56.428c.464.619.464 1.701 1.546 2.165h-2.628c.464-.155.773-.619.464-1.082-.309-.464-.154-1.392-1.082-1.237h-1.082c-.928-.155-1.391.309-1.701 1.082-.154.618-.154.928.619 1.082-.773.155-1.392.155-2.474 0 .928-.309 1.237-.927 1.392-1.391.773-1.701 1.546-3.401 2.164-5.102v1.083c-.155.309-.309.618-.309.927-.155.618-.928 1.237-.464 1.701.464.618 1.391.154 2.01.154.309.155.463.464.618.773.464.618.773.309.927-.155zm.31 1.392c0-.155-.155-.309-.31-.464-.154 0-.309.155-.309.309 0 .155 0 .464.309.464.155.155.31 0 .31-.309zm-1.392 14.071c-.309-.309-.463-.773-.927-.773-.928-.154-1.237 0-1.237.928v2.937c-.309 0-.154-.309-.154-.464-.155-1.237-.155-2.473-.155-3.865-.464.31-.464.773-.464 1.082v3.556c0 .618.155 1.391-.309 2.01v-5.566c0-.618-.309-.927-.773-1.082h3.556c1.236.155 2.009.773 2.009 1.701.155.927-.464 1.546-1.7 2.01l-.464-.464c.155-.464.773-.464.928-.928 0 .155-.155.464.154.619.155.154.309-.155.464-.31.618-1.082.309-1.7-.928-2.318v.927s.155 0 0 0zm-23.652 43.282c-.618-.928-1.546-1.237-2.473-1.855-1.237-.773-1.701-1.546-1.082-2.783.309 0 .463.155.618.309 0 .619.155.928.773 1.237.618.309 1.391.773 2.01 1.082 1.391.773 1.545 2.474.309 3.556-.155 0-.309-.155-.464-.309.618-.31.773-.619.309-1.237zm23.498-4.483c0 .155.154.31.154.31 0 .154 0 .463.155.618 0 .309 0 .464.309.618 0 .155 0 .309.155.464.463 1.082.927 2.01 1.236 3.092.31.618.464 1.082 1.392 1.391-1.082.155-1.855.155-2.937.155.772-.464.463-1.082.309-1.546 0-.309 0-.464-.309-.619 0-.309-.155-.463-.31-.618-.309-.927-.618-1.855-1.236-2.628v-1.082c.618-.928.773-.464 1.082-.155zm-59.363-34.472c-.309-.773-1.082-1.082-1.7-1.391-.618-.31-1.082-.619-1.546-1.083-.618-.618-.773-1.391-.309-2.164.464.155.309.619.618.773.464.773 1.237 1.082 1.855 1.391.464.31.928.464 1.392.928l.154.155c0 .309.155.463.464.618.155.618-.155 1.391-.309 2.01-.619-.31-.464-.928-.619-1.237zm26.899-18.705c.773.773 1.7.928 2.628.618.928-.463 1.237-1.236 1.082-2.164v-3.092c0-.618 0-1.236-.927-1.236.773-.31 1.545-.155 2.473-.155-1.391.618-.928 1.855-.928 2.783v2.009c0 1.392-.618 2.165-1.7 2.474-1.546.464-2.937 0-3.556-1.082.31-.155.773.618.928-.155zm10.203 35.092c.927.309 1.855.773 2.628 1.391 1.237.928 1.237 2.01.309 3.092l-.155.155c-.154-.155-.618.464-.772-.155.927-.773.772-1.391-.155-2.164-.928-.618-2.01-.928-2.628-1.855 0-.464-.309-.773 0-1.237.309.155.464.773.773.773zm-32.155-2.32h3.556c1.391 0 1.391 0 1.237 1.701-.31-.619-.464-1.237-1.237-1.237h-1.855a.332.332 0 00-.309.309v2.164c0 .155.154.31.309.31.773.309 2.009-.155 2.473-1.083v2.629c-.309-.464-.309-.928-1.082-1.083-1.7-.154-1.855-.154-1.855 1.546v.619c-.309-.31-.309-.619-.155-.928.31-1.237-.154-2.473 0-3.71 0-.773-.154-1.237-1.082-1.237zm23.962 6.338c.773.618 1.7.773 2.628.309.927-.463.927-1.391 1.082-2.164v-2.783c0-.773 0-1.391-.928-1.545h2.319c-1.082.309-.927 1.082-.927 1.855v2.782c0 1.082-.31 2.164-1.546 2.474-1.237.463-2.628.463-3.556-.619l.155-.154c.309.309.618.154.773-.155zm-12.831-38.336c-2.165-1.546-2.474-4.174-.619-6.183h.619c0 .309-.155.463-.155.773-.618 1.082-.618 3.246 0 4.019 0 .154.155.154.155.309s.154.309.309.309l.154.155c0 .154.155.309.31.309 0 .155.309.309.309.618-.464-.154-.773-.309-1.082-.309zm28.599 32.308c0 .155-.155.155 0 0-.619.773-.309 1.701-.309 2.628 0 1.237-.31 2.473.154 3.71-.309.928-.773.464-1.237.155 0-2.01 0-3.865.155-5.875.155-.154.309-.309-.155-.309.464-.773.928-.154 1.392-.309z" fill="#fff"/><path d="M293.565 205.088v1.082c-.309.773-.618 1.701-1.082 2.628h2.319c.155.155.309.309.309.618-.773-.309-1.7-.154-2.473-.154-.773 0-.773.927-.928 1.546-.154.463.464.463.773.773-.773.309-1.546 0-2.319 0 .773-.464.928-1.237 1.237-1.855.773-1.546 1.546-3.092 2.164-4.638zm-53.488-20.099c.773 0 1.082.463 1.082 1.391-.154 1.237.155 2.473 0 3.71 0 .309 0 .618.155.928v.773c-.155.309-.309.618-.773.463-.464-.154-.309-.463-.309-.773v-4.792c0-.464 0-.927-.309-1.237 0-.309 0-.463.154-.463 0-.155 0 0 0 0zm6.184 19.789v.463c-.155.31-.155.773-.155 1.083v4.328c0 .309 0 .618-.309.618-.309.155-.464-.154-.618-.463a17.763 17.763 0 000-5.72c0-.155-.155-.309-.155-.464.309-.155.773-.155 1.237.155zm36.483 2.783c-.464 1.237-.155 2.474-.155 3.865-.463 0-.773-.154-.773-.773v-5.565c0-.773.464-.618.928-.464v2.937zm.618-15.925c-1.236-1.236-1.546-2.782-.927-4.483 0-.154.154-.309.154-.464.31-.154.464-.463.773-.618.155-.154.464-.464.619 0-.464.464-.309 1.082-.619 1.546-.309.928-.463 2.01.155 2.783 0 .309.154.463.309.618.155.309 0 .464-.464.618zm-25.198-5.255c.155-1.391.309-1.391 1.237-1.082v.309c-.309.464-.618.928 0 1.392v.309c-.309.154-.309.464-.309.773.154.927.154 2.009.154 2.937 0 .928-.154 1.082-1.082.773 0-.155.155-.309.155-.309.309-1.546.309-3.092 0-4.793 0 0-.155-.154-.155-.309zm-17.314-37.41c-.773-.618-.618-1.546-.154-2.164.618-.773 1.391-1.082 2.318-.928.464 0 1.083.773 1.701-.154a8.38 8.38 0 010 2.782c-.155-.464-.309-.773-.309-1.082-.309-.773-.928-1.237-1.855-1.237-.464 0-.928.31-1.082.773-.31.619.154.928.463 1.392-.463.309-.463 0-.618-.31-.155-.309-.155-.618-.464-.772-.309.618 0 1.082 0 1.7zm12.522 20.096c-.773.464-1.546.309-2.473.154-.31-.309-.31-.618-.31-.927v-1.701c0-.309.155-.927-.309-.927-.464 0-.309.618-.309.927v3.092c0 .618.155 1.391-.155 2.01v-4.947c0-.618-.154-1.082-.927-1.391 1.7.154 3.555-.619 4.947.773l-.155.154c-.309-.154-.618-.464-1.082-.464 0 .155.155.464.155.619-.155-.155-.31-.155-.31-.309-.463-.31-.927-.464-1.391-.155-.464.155-.154.618-.154 1.082v1.082c-.155.773.309.928.927.928.464 0 .773-.309 1.082-.619 0 .155 0 .464.464.619zm28.754 3.094a1.21 1.21 0 00-.619-.619.332.332 0 00-.309-.309c-.464-1.391-.618-2.628-.309-4.019.154-.155.309-.31.309-.464.309 0 .928-.773.928.309-.155.155-.155.309-.155.464-.155 1.391-.155 2.628.309 3.865 0 .154.309.618-.154.773zm-9.894 15.148c-.464 0-.464-.618-.773-.773-.309.464 0 .773 0 1.237-.618-.618-.464-1.391-.155-2.164.464-.773 1.546-1.082 2.474-.928 1.082.309 1.082.309 1.7 0V187c-.618-1.237-1.236-2.473-2.937-1.7-.927.618-.464 1.391-.309 2.009zm-32.773 20.87c-.464.773-.155 1.7-.155 2.473 0 .31.155.773-.309.619-.464 0-.464-.31-.309-.773a31.54 31.54 0 000-5.411c0-.154-.155-.618.309-.618.309 0 .309.309.309.618.155.773-.309 1.701.31 2.319.154 0 .154 0 .309.155 0 .154-.155.309-.155.309l-.309.309zm22.57-55.961c-.309.773-.618 0-.928.155-.309-.31-.154-.619-.154-.928 0-1.546.154-2.937-.155-4.483v-.309c.309-.773.773-.309 1.237-.155-.309.155-.309.464-.309.773 0 1.391-.155 2.628.154 4.019 0 .31.155.619.155.928z" fill="#fff"/><path d="M249.816 171.695c.31-.618.155-1.391.155-2.01v-3.091c0-.31-.155-.928.309-.928.464 0 .309.618.309.928v1.7c0 .309 0 .773.31.928v2.164c-.155 0-.31.154-.31.309 0 .773-.309.464-.773.309v-.309zm43.131-23.961v-1.082c.154-.464.309-.928.773-.155.464.619.309 1.237.773 1.855 0 .155 0 .31.154.464 0 .619 0 1.082.619 1.392 0 .309 0 .772.463.927-.154.464-.463.773-.772.155-.155-.31-.464-.464-.619-.773-.154-.464-.309-.773-.309-1.237 0-.155-.155-.155-.155-.309 0-.464 0-.773-.463-1.082l-.155-.155h-.309zm-52.097 1.236c-.154-.618-.309-1.082 0-1.7.309.154.309.463.464.772.155.31.155.619.618.31.155.154.31.154.31.309.618.618 1.236 1.237 2.318 1.391 0 .309.31.618.619.773 0 .464-.155.928-.309 1.391-.155.31-.31.464-.619 0 .464-.463.309-.773 0-1.236-.618-.773-1.237-1.237-2.164-1.237-.155-.618-.773-.618-1.237-.773zm22.416 42.668c-.619-.619-.619-1.392-.619-2.01v-3.092c0-.618 0-1.237-.927-1.546h2.782c-1.082.309-.927 1.237-.927 2.01 0 1.391-.155 2.783.309 4.174-.618-.309-.464-.773-.464-1.391v-3.865c0-.155.155-.619-.309-.619-.309 0-.309.31-.309.464.155 2.01-.155 3.865.464 5.875 0 0 0-.155 0 0zm-31.073-24.734c-.309-.154-.154-.618-.618-.773.773-1.082 1.546-1.236 2.937-.927.464.154.773.309 1.082-.309.155.927.155 1.7 0 2.473-.464-1.082-.927-2.164-2.319-1.855-.773.154-1.082.618-1.082 1.391zm18.86-19.172c0-.309.155-.464.155-.773h-.619c1.082-1.082 2.319-1.391 3.865-.773.464.155.928.309 1.391-.154 0 .773 0 1.546.155 2.319-.618-.773-1.082-1.701-2.319-1.856-1.237-.309-2.009.31-2.628 1.237zm33.082 38.339c-.154-.463-.464-.154-.618 0-.309.155-.464.619-.773.619.773-1.701 2.628-2.474 4.483-1.701.464.155.773.309 1.237-.464v2.319c-.619-.773-.928-1.546-1.855-1.7-1.082 0-1.855.309-2.474.927zm-16.077 19.634c-.155-.309-.309-.309-.618-.309.618-1.082 1.546-1.391 2.782-.928.464.155.773.464 1.237-.154.155.773.155 1.7 0 2.628-.464-1.082-.773-2.164-2.164-2.164-.619 0-.928.309-1.237.927zm-14.377 5.563c.773-.618.464-1.236.155-1.855v-3.555c0-.464.154-.928-.309-1.237h1.545c-.618.464-.618 1.082-.618 1.701v5.101c0 .155.155.618-.154.618-.464-.309-.619-.463-.619-.773zm37.565-39.261c.464-.619.31-1.237.31-2.01v-3.556c0-.309-.155-.772.463-1.082 0 1.392 0 2.628.155 3.865 0 .155 0 .309.154.464-.154.773-.309 1.7 0 2.473-.463.309-.927.309-1.391 0 .155 0 .309 0 .309-.154zm-56.116-1.084c0 .464 0 .928.464 1.082-.773.928-1.855.928-2.782.619-.464-.155-.928-.31-1.392.154-.154-.927-.154-1.7 0-2.473.464 1.236 1.237 2.164 2.628 2.009.773-.154 1.082-.618 1.082-1.391zm46.996-4.018c0-1.082-.619-.309-.928-.309.773-1.237 1.855-1.7 3.092-1.546 1.391.155 2.473.619 2.937 2.01h-.155l-.618-.619c-.464-.463-.464 0-.464.31-1.236-1.701-2.628-1.701-3.864.154z" fill="#fff"/><path d="M263.266 191.482c-.773-1.855-.464-3.71-.464-5.719 0-.155 0-.464.309-.464.464 0 .309.309.309.618v3.865c0 .464 0 1.082.464 1.391l.155.155c-.155.309-.464.464-.773.154zm-22.88-.153c.155.309-.154.618.31.773.309.155.618-.155.773-.464 1.391.309 2.628.309 3.864-.773 0 1.082-.309 1.546-1.391 1.392-1.546-.155-3.092 0-4.638-.155.464-.155.928-.309 1.082-.773zm3.865-39.112c.155.31.464.31.619 0 .154-.463.309-.927.309-1.391.464 1.546-.464 2.783-2.164 2.783a4.282 4.282 0 01-2.01-.464c-.773-.309-.464-.928-.155-1.391 1.082 1.546 2.319 1.7 3.401.463zm4.483 55.497c.619-.309 0-1.237.464-1.546v4.174c0 .618 0 1.237.928 1.237-.773.309-1.546.154-2.474.154.928-.154.928-.773.928-1.546.154-.927.154-1.7.154-2.473zm25.508-15.923c.154.618.463 0 .772.154-.772.619-1.7.619-2.473.309-.464-.154-1.082-.463-1.546.464v-2.782c.619 1.236 1.546 2.473 3.247 1.855zm20.56-21.951c.309.464.618.773.927 1.237.464.618.928 1.236 2.01 1.236-1.237.619-2.01.464-2.628-.464-.309-.463-.618-.772-.927-1.236.773.154.618-.309.618-.773zm-62.454 35.094c-.309-.309-.619-.464-.928-.155-.309.155-.154.619-.154.928v4.792c0 .309 0 .464-.309.618v-5.41c0-.773-.31-.928-.928-1.237 1.237 0 2.473-.309 3.556.155-.155 0-.31.154-.619.154-.154 0-.309 0-.618.155zm51.014-13.296c.309 0 .619-.154.619-.618 1.546 1.237 2.628 1.237 4.328-.155 0 .619-.464 1.082-1.237 1.392-1.236.463-2.473.309-3.71-.619zm-12.676 19.478c0 .155.155.31.464.31-.773.618-1.701.463-2.474.309-.463-.155-.927-.309-1.391.154v-2.473c.464.773.773 1.546 1.7 1.855.619.155 1.237.155 1.701-.155zm-18.087-24.272c-.155-.309-.155-.618-.309-.927 0-.309-.155-.464.154-.619.31-.154.464 0 .619.155.464.928.773 2.01 1.391 2.783.155.154 0 .309-.154.309-.155 0-.31-.155-.31-.309 0-.464-.309-.619-.773-.773-.154-.31-.154-.619-.309-.928-.309-.309-.309.155-.309.309zm29.527-14.686c.463-.155.154-.464.154-.773 1.082 1.236 2.01 1.391 3.401.464.464.309.773-.31 1.082-.464h.155c-1.237 1.546-3.092 1.855-4.792.773zm-30.918-19.168c.309 0 .618.154.927.154.155-.309-.154-.309-.309-.618 1.546.618 2.937.309 3.865-1.237 0 2.01-2.474 2.783-4.483 1.701zm-11.594 55.034c0-.154.154-.309.154-.309h.928c1.082 0 1.082 0 1.7-1.082v2.473c-.464-1.546-1.855-.773-2.782-1.082zm5.565 3.094c.154.155.309.618.618.464.309-.155.309-.464.309-.619v-4.328c0-.309 0-.773.155-1.082v5.101c0 .619 0 1.237.927 1.237h-2.937c.309-.618.619-.464.928-.773zm12.831-19.172c.927.309 1.082.155 1.082-.773s0-2.01-.155-2.937c0-.309-.154-.619.309-.773v3.555c0 .619 0 1.237.928 1.392h-2.937c.309-.619.618-.464.773-.464zm20.251 12.832c-.618 0-.155.464-.155.619-.773-.773-1.855-.928-2.782-.464-.155 0-.464-.155-.619-.309 1.237-.619 2.319-.619 3.556.154zm11.285-2.78c-.618.773-1.082 1.236-1.701 2.009.155-1.855.31-2.164 1.701-2.009zm-27.826-50.71c-.309-1.236-.155-2.628-.155-4.019 0-.309.155-.618.309-.773v4.019c0 .31.155.619-.154.773zm-11.904 20.715c.31.309.773.464.773-.309 0-.155 0-.309.31-.309.154.618.309 1.082 1.082 1.236h-2.938c.155-.463.619-.309.773-.618z" fill="#fff"/><path d="M294.802 169.84c.155.464.309.927-.464.927 0-.154-.154-.309-.309-.463l-.155-.155a.332.332 0 00-.309-.309c0-.155-.154-.155-.154-.309l-.155-.155v-.309c.309 0 .464-.155.618-.309h.155c.155 0 .464.154.464.464v.154c-.309.155 0 .309.309.464zm-29.681 14.841c.309-2.01.309-2.164 1.7-2.01-.464.619-1.082 1.237-1.7 2.01zm-18.86 20.097c-.464-.309-.928-.309-1.391 0-.31 0-.619 0-.773-.309h5.101c-.309.154-.773.309-1.082.309-.618-.309-1.237-.155-1.855 0zm-15.304 6.338c.772.618.927.618 1.082-.464.309.619.309.619 1.082.928h-2.628c.154-.155.464-.155.464-.464zm56.27-44.057c.773 1.545.618 2.937-.309 4.328h-.155c.619-1.391.928-2.783.464-4.328 0 .154 0 .154 0 0zm-45.14-17.317c.927 0 1.7.464 2.164 1.237.309.309.464.773 0 1.237.155-.773-.309-1.237-.927-1.546-.464-.309-.773-.619-1.237-.928zm36.328 42.051c.464.309.928.773 1.237-.154.155.309.619.463.928.618h-3.247c.619-.309.928-.464 1.082-.464zm-16.541-45.295c-.463-.155-.927-.619-1.236.154-.155-.309-.619-.309-.928-.618a10.338 10.338 0 013.092 0l-.928.464zm17.778 44.984c-.464-1.236-.154-2.473-.154-3.71 0-.773-.31-1.7.309-2.473-.155 2.164-.155 4.174-.155 6.183z" fill="#fff"/><path d="M279.807 185.299c-.464 0-.928-.463-1.392.155-.309-.155-.618-.309-.927-.309v-.155h2.937c0 .309-.464.155-.618.309zm-34.628 19.941a17.763 17.763 0 010 5.72v-5.72zm35.864-38.027c-.309 1.391-.154 2.783.31 4.019-.928-1.236-1.082-2.628-.31-4.019zm10.049 5.101c.464.155.927.155 1.391 0 .309 0 .618 0 .928.155-.928.464-2.01.309-2.938.309 0-.773.464-.154.619-.464zm-32.773 14.53c.309 1.546.309 3.092 0 4.792v-4.792zm-7.266-35.245c-.618-.773-.773-2.782 0-4.019-.309 1.391-.464 2.783 0 4.019zm-6.493-1.7c-.927 0-1.7-.773-2.318-1.391.772.464 1.7.773 2.318 1.391zm16.232-2.936c.309 1.391.155 2.937.155 4.483-.464-1.546-.155-3.092-.155-4.483zm-28.599-.467v2.628c-.618-.773-.464-1.7 0-2.628zm21.797 19.635c.619.773.619 1.391.155 2.164h-.155c.31-.773.155-1.391 0-2.164 0 0-.154 0 0 0zm29.682 24.269c-.773-.928-.464-1.855-.155-2.783 0 .928-.155 1.855.155 2.783zm12.367-1.08c.309.619.463 1.237.773 1.701h-.155c-.309-.155-.309-.773-.773-.773 0-.155 0-.464.155-.928-.155.155-.155.155 0 0zm-1.546 16.077c-.309-.155-.464-.773-.928-.155 0-.309.155-.618.464-.928.309.155.464.619.464 1.083zm-58.899-33.391c.155-.619.464-1.237.309-2.01.464.773.31 1.391-.309 2.01zm5.411-23.035c.464.154 1.082.154 1.082.773-.464-.155-.928-.31-1.082-.773zm18.396 38.03c-.464-.464-.309-.928 0-1.392v1.392zm35.865-36.793c-.464-.309-.619-.773-.619-1.392.31.31.619.773.619 1.392zm-22.107 56.425c.155.618-.154 1.082-.154 1.7-.155-.618-.155-1.236.154-1.7zm-2.164 3.246c.309.464.309.927-.309 1.082.309-.309.464-.618.309-1.082z" fill="#fff"/><path d="M254.145 168.293c-.155.309-.309.618-.773.773v-.155c.155-.154.464-.463.773-.618zm-14.222 16.695v.309c-.309 0-.464 0-.619-.154.155-.309.464-.309.619-.155zm34.319 20.1c-.155.464-.31.618-.773.773.154-.309.463-.619.773-.773zm21.487-53.953c-.309-.155-.463-.619-.463-.928.309.155.309.464.463.928zm-50.55-.462c-.309-.154-.464-.463-.619-.773.31.155.464.464.619.773zm34.628 56.114c-.309-.309-.464-.618-.464-.928.309.31.464.619.464.928zm14.84-39.111v-1.082h.155c.155.309.155.773-.155 1.082 0 0 .155 0 0 0zm.155 2.165c-.155-.155-.464-.155-.464-.618.155.154.309.309.464.618zm-1.082-1.237c-.155.154-.309.309-.619.309.155-.309.464-.155.619-.309zm-56.58 17.779c.309.154.309.464.309.773a1.185 1.185 0 01-.309-.773zm46.841 4.636c-.31-.155-.464-.309-.31-.619.155.155.31.464.31.619zm-48.078-21.024c-.309-.154-.309-.309-.463-.618.309.155.463.309.463.618zm59.208 39.421c.309.155.309.309.309.618 0-.154-.154-.463-.309-.618zm-16.696-23.961c.31 0 .31.155.155.309 0 0 0-.154-.155-.309zm16.387-36.638c-.155-.154-.155-.309-.155-.463 0 .154.155.309.155.463zm-20.097 55.962c-.154.155-.309.309-.463.309.154-.154.154-.309.463-.309zm6.493-38.185c0 .154 0 .309-.309.464.154-.155.309-.31.309-.464zm.309 4.949c.155 0 .309.155.464.464-.309-.155-.309-.309-.464-.464zm12.367-1.393c.155 0 .31.155.31.464-.155-.154-.155-.309-.31-.464zm-59.207 40.502c.154.155.309.31.309.464-.155-.154-.309-.309-.309-.464zm60.444-3.866c-.154-.154-.309-.309-.309-.618.309.155.309.464.309.618zm-15.613-.928c-.155-.154-.31-.309-.31-.463.155.154.155.309.31.463z" fill="#fff"/><path d="M294.957 206.323c-.155-.154-.31-.309-.155-.618 0 .155.155.309.155.618zm.463.928c-.154-.155-.154-.309-.154-.464 0 .155 0 .309.154.464zm-43.439-54.569a.331.331 0 01-.309-.309c.154 0 .154.155.309.309zm29.217 18.548c.155 0 .309.155.309.31-.154 0-.154-.155-.309-.31zm1.546 15.459c0 .155-.155.31-.155.464-.154-.154 0-.309.155-.464zm10.821-17.003c.155 0 .309.154.309.309l-.309-.309zm-42.048-17.469a.331.331 0 01-.309-.309c.154 0 .154.155.309.309zm21.797 53.951c0 .155-.155.309-.155.464 0-.155 0-.309.155-.464zm.155-.309c0 .155 0 .31-.155.464 0-.309 0-.309.155-.464zm21.178-.155c0-.155-.154-.155-.154-.309.154 0 .154.154.154.309zm-45.758.62c0 .155 0 .155 0 0-.155 0-.155 0 0 0zm-.155-.771c.155 0 0 .154 0 0zm30.454-.158c-.154 0-.154-.155-.309-.155.155 0 .155.155.309.155zm-.309-.154c-.154-.155 0 0 0 0zm-.154-.152c-.155-.155 0-.155 0 0zm-.155-.157c-.155-.155-.155 0 0 0zm-29.836 2.166c.155 0 .155 0 0 0 0 .154 0 .154 0 0zm2.474-55.189c0-.155-.155-.155-.155-.309 0 .154.155.154.155.309zm-15.614 17.468c-.154-.154-.154 0 0 0zm58.126.619c.154.155.154.155 0 0zm-.309-.619c0 .155.154.155.154.309-.154-.154-.154-.154-.154-.309zm-28.754-9.738h-31.536c-.464 0-1.237.309-1.237-.309 0-.773.773-.464 1.237-.464h62.608c.464 0 1.546-.309 1.546.464 0 .618-.927.309-1.546.309h-31.072zm2.628 6.336c0 1.391.155 2.937.155 4.328v1.391c0 .155 0 .464-.31.464a.332.332 0 01-.309-.309v-5.72c.155-.154.309-.154.464-.154zm2.628.464c0-.464.155-.619.618-.309.619.463.928 1.7-.463 2.318 0-.618.618-1.391-.155-2.009zm4.174 40.967v1.237c-.309-.309-.309-.773 0-1.237zm.155 1.699c0 .155 0 .464.154.619-.309-.155-.309-.464-.154-.619zm-42.203-4.017c.309.927.154 1.855.154 2.628-.464-.773-.154-1.701-.154-2.628zm63.845-15.615v.928c-.309 0-.464-.31-.618-.619-.155-.309-.464-.618 0-.773.463-.309.309.309.618.464zm0 .927c.464 0 .309.619.773.773 0 .31 0 .619-.309.619-.464 0-.309-.464-.309-.619-.155-.309-.155-.463-.155-.773zm-36.792-18.396c-.155.309-.464.464-.773.309-.309 0-.309-.463-.309-.618v-5.411c0-.309-.155-.618.309-.618.309 0 .464.309.464.618v4.638c0 .309 0 .773.309 1.082zm-26.744 16.541v2.938c0 .154 0 .463-.309.463-.31 0-.464-.309-.464-.463.309-1.855 0-3.71 0-5.566 0-.309-.155-.772.309-.772.464 0 .309.463.309.772.155.928.155 1.856.155 2.628zm4.638-2.008c.154.309.309.464.463.773.155 1.237.155 2.474-.618 3.401-.155.155-.309.309-.464.309-.309-.154-.154-.309-.154-.618.618-.773.773-2.473.309-3.556-.155-.463-.464-.927-1.082-.772 0-.464.309-.619.618-.31.309.155.618.464.928.773zm-4.793-40.039c-.309.928-.618 1.855 0 2.783-.309.927-.309 2.009-.154 2.937 0 .309.154.618-.31.618-.463 0-.309-.309-.309-.618v-5.411c0-.309 0-.618.464-.618 0 0 .309-.155.309.309zm49.933 3.402v-2.783c0-.464 0-.928.618-.928.618.155 0 .619.155.773.309 1.701-.155 3.401 0 5.256 0 .31.154.773-.31.619-.463 0-.309-.464-.309-.773-.154-.619-.154-1.391-.154-2.164zm13.913 2.626c0 .155-.155.309-.31.309-.309 0-.309-.309-.309-.463 0-.155.155-.31.309-.31.155.155.31.31.31.464zm-1.237 15.15c.155-.464.155-.773 0-1.237-.155-.309-.155-.464-.309-.773 1.236.618 1.391 1.237.927 2.319-.154.154-.154.309-.463.309-.31-.155-.155-.309-.155-.618zm-41.894.618c0-.155.155-.309.155-.464.309-.618.309-1.082-.155-1.546 0-.154-.154-.463-.154-.618.463 0 .773.155 1.082.464.309.618.464 1.391.154 2.009l-.773.773c-.309 0-.309-.309-.309-.618zm29.218-1.39c0 .155 0 .309-.155.464 0-.155 0-.309.155-.464zm11.594-17.933c-.309-.309-.309-.619-.464-1.082.464.154.464.618.464 1.082zm-.309-1.082c-.155-.155-.155 0 0 0zm.463 1.391c0-.155-.154-.155-.154-.309.154.154.154.154.154.309zm-8.193 22.418c.155-.464.464-.773.619-1.237.618-.927.463-2.782-.155-3.71.155-.155.155-.618.464-.309l.618.618c.464 1.392.155 2.783-.309 4.174-.464.155-.618.773-1.237.464z" fill="#fff"/><path d="M235.44 186.07c.618 0 .773.464 1.082.773.618 1.082.464 2.783-.309 3.556.463-1.546.463-3.092-.773-4.329zm17.468-19.631c.619.464.464.928.155 1.546 0-.618 0-1.082-.155-1.546zm33.237.309c.773.928.927 2.783.155 3.71.309-1.237.154-2.473-.155-3.71z" fill="#fff"/></svg>