<svg width="528" height="278" viewBox="0 0 528 278" fill="none" xmlns="http://www.w3.org/2000/svg">
<rect width="528" height="278" fill="#F3F3F3"/>
<path d="M171.273 116.213V128.233H171.374C172.99 126.011 175.01 125.001 177.737 125.001C182.788 125.001 185.212 128.435 185.212 133.486V145.91H178.141V135.506C178.141 133.183 177.838 130.657 174.909 130.657C172.081 130.657 171.172 133.082 171.172 135.506V145.91H164.101V116.213H171.273Z" fill="black"/>
<path d="M202.687 132.778C202.384 130.859 200.566 129.545 198.647 129.545C196.626 129.545 194.909 130.657 194.404 132.778H202.687ZM209.354 136.919H194.404C194.404 139.848 195.919 141.465 198.849 141.465C200.364 141.465 201.475 140.96 202.283 139.646H209.152C208.041 144.394 203.495 146.616 198.95 146.616C192.283 146.616 187.333 142.778 187.333 135.808C187.333 129.04 191.879 125 198.445 125C205.414 125 209.354 129.343 209.354 136.212V136.919Z" fill="black"/>
<path d="M211.374 145.91H218.444V116.213H211.374V145.91" fill="black"/>
<path d="M231.98 136.01L236.727 125.605H244.707L234.303 145.908H229.656L219.151 125.605H227.131L231.98 136.01Z" fill="black"/>
<path d="M258.343 132.778C258.04 130.859 256.222 129.545 254.303 129.545C252.283 129.545 250.565 130.657 250.06 132.778H258.343ZM264.909 136.919H249.959C249.959 139.848 251.475 141.465 254.404 141.465C255.919 141.465 257.03 140.96 257.838 139.646H264.707C263.596 144.394 259.05 146.616 254.505 146.616C247.838 146.616 242.889 142.778 242.889 135.808C242.889 129.04 247.434 125 254 125C260.969 125 264.909 129.343 264.909 136.212V136.919Z" fill="black"/>
<path d="M275.414 145.909H268.343V131.565H266.02V125.606H268.343V119.545H275.414V125.606H279.454V131.565H275.414V145.909" fill="black"/>
<path d="M287.839 145.908H280.768V125.605H287.839V145.908ZM288.344 119.242C288.344 121.464 286.525 123.282 284.404 123.282C282.182 123.282 280.465 121.464 280.465 119.242C280.465 117.019 282.283 115.201 284.404 115.201C286.525 115.201 288.344 117.019 288.344 119.242Z" fill="black"/>
<path d="M297.232 135.808C297.232 138.333 298.949 140.354 301.778 140.354C304.707 140.354 306.323 138.333 306.323 135.808C306.323 133.283 304.606 131.263 301.778 131.263C298.949 131.162 297.232 133.283 297.232 135.808ZM313.293 145.909H306.222V143.687H306.121C304.909 145.707 302.384 146.616 300.06 146.616C294.101 146.616 289.959 141.566 289.959 135.808C289.959 130.051 294.101 125 299.959 125C302.283 125 304.707 125.909 306.121 127.626V125.606H313.192V145.909" fill="black"/>
<path d="M330.364 138.939L338.344 136.817L340.061 132.777L336.525 124.494L335.717 126.514L330.364 138.939Z" fill="#533863"/>
<path d="M348.242 112.98L344.909 105.404L336.828 107.222L340.06 114.899L348.242 112.98Z" fill="#533863"/>
<path d="M335.919 123.283L336.02 122.98L339.253 115.505L336.02 108.232L323.394 138.131L329.152 139.142L335.919 123.283Z" fill="#875EA0"/>
<path d="M339.252 115.505L339.05 115.101L336.121 108.131L336.02 108.232L339.252 115.505Z" fill="black"/>
<path d="M338.546 137.93L331.98 139.546L343.697 141.667L342.485 138.637L338.546 137.93Z" fill="#006B71"/>
<path d="M329.253 140.253L327.03 139.849H327.131L322.889 139.041L320.263 145.506L347.535 150.455L344.303 142.879L329.253 140.253Z" fill="#00A2A9"/>
<path d="M327.232 139.748L322.889 139.041L327.131 139.849L327.232 139.748Z" fill="black"/>
<path d="M327.131 139.848H327.03L329.253 140.252L329.151 140.151L327.131 139.848Z" fill="black"/>
<path d="M329.757 140.253L329.454 140.152L329.252 140.253L344.303 142.88V142.779L329.757 140.253Z" fill="black"/>
<path d="M329.252 140.253L329.454 140.152H329.151L329.252 140.253Z" fill="black"/>
<path d="M329.152 140.152L327.232 139.748L327.131 139.849L329.152 140.152Z" fill="black"/>
<path d="M329.455 140.152L329.758 140.253L329.455 140.152Z" fill="black"/>
<path d="M340.465 115.909L342.485 120.556L355.919 151.869L363.899 149.546L348.647 113.99L344.606 114.899L340.465 115.909Z" fill="#B70417"/>
<path d="M344.606 114.899L348.646 113.99L344.606 114.899Z" fill="black"/>
<path d="M337.131 123.183L341.172 132.677V132.779L345.111 141.869L346.626 145.506L348.849 150.657L354.808 151.768L345.818 130.758L339.758 116.92L337.131 123.183Z" fill="#E3001B"/>
<path d="M341.172 132.778V132.677L337.131 123.182L337.03 123.283L341.172 132.778Z" fill="black"/>
<path d="M339.758 116.919V116.818L337.03 123.081L337.131 123.182L339.758 116.919Z" fill="black"/>
<path d="M337.03 123.282L337.131 123.181L337.03 123.08V123.181V123.282Z" fill="black"/>
<path d="M345.111 141.869L346.626 145.506L345.111 141.869Z" fill="black"/>
<path d="M354.808 151.768L345.818 130.758L354.808 151.768Z" fill="black"/>
<path d="M213.485 170.975H214.542V162.087H213.485V170.975Z" fill="black"/>
<path d="M216.59 170.975H217.535V168.104C217.535 167.495 217.535 167.035 217.858 166.637C218.169 166.251 218.654 166.04 219.213 166.04C220.208 166.04 220.693 166.587 220.693 167.706V170.975H221.638V167.196C221.638 165.941 220.842 165.219 219.549 165.219C218.679 165.219 218.007 165.555 217.523 166.276V161.564H216.59V170.975Z" fill="black"/>
<path d="M223.523 170.975H224.468V168.265C224.468 166.811 224.965 166.09 225.972 166.09C226.146 166.09 226.345 166.127 226.556 166.202L226.879 165.344C226.668 165.269 226.457 165.232 226.233 165.232C225.388 165.232 224.865 165.63 224.368 166.575V165.418H223.523V170.975Z" fill="black"/>
<path d="M232.829 168.34V168.153C232.829 166.313 231.785 165.207 230.156 165.207C228.54 165.207 227.384 166.425 227.384 168.178C227.384 169.993 228.528 171.212 230.219 171.212C231.362 171.212 232.233 170.702 232.792 169.695L232.071 169.21C231.611 170.018 231.014 170.416 230.268 170.416C229.199 170.416 228.428 169.633 228.428 168.427V168.34H232.829ZM231.81 167.569H228.428C228.528 166.624 229.212 166.04 230.119 166.04C231.126 166.04 231.748 166.587 231.81 167.569Z" fill="black"/>
<path d="M241.253 166.04L239.985 165.481C239.177 165.132 238.792 164.685 238.792 164.051C238.792 163.293 239.351 162.758 240.147 162.758C240.781 162.758 241.266 163.106 241.651 163.777L242.521 163.218C242.086 162.335 241.29 161.875 240.221 161.875C238.742 161.875 237.722 162.82 237.722 164.063C237.722 165.145 238.294 165.916 239.475 166.413L240.557 166.873C241.477 167.271 241.937 167.855 241.937 168.651C241.937 169.62 241.228 170.304 240.159 170.304C239.264 170.304 238.655 169.745 238.394 168.663L237.436 169.136C237.772 170.453 238.754 171.199 240.159 171.199C241.875 171.199 243.006 170.105 243.006 168.477C243.006 167.358 242.422 166.537 241.253 166.04Z" fill="black"/>
<path d="M248.571 169.658C247.987 170.08 247.453 170.292 246.856 170.292C245.7 170.292 244.867 169.397 244.867 168.278C244.867 166.96 245.712 166.139 246.93 166.139C247.477 166.139 248 166.313 248.472 166.624V165.605C247.962 165.356 247.366 165.219 246.744 165.219C245.078 165.219 243.847 166.438 243.847 168.253C243.847 170.006 244.979 171.212 246.707 171.212C247.428 171.212 248.062 171.063 248.571 170.764V169.658Z" fill="black"/>
<path d="M249.892 170.975H250.837V168.104C250.837 167.495 250.837 167.035 251.16 166.637C251.471 166.251 251.956 166.04 252.515 166.04C253.51 166.04 253.995 166.587 253.995 167.706V170.975H254.939V167.196C254.939 165.941 254.144 165.219 252.851 165.219C251.981 165.219 251.309 165.555 250.824 166.276V161.564H249.892V170.975Z" fill="black"/>
<path d="M260.219 165.219H260.069L258.379 169.21L256.899 165.418H255.842L258.316 171.324L260.144 167.059L261.971 171.324L264.445 165.418H263.376L261.884 169.21L260.219 165.219Z" fill="black"/>
<path d="M270.38 168.34V168.153C270.38 166.313 269.336 165.207 267.707 165.207C266.091 165.207 264.935 166.425 264.935 168.178C264.935 169.993 266.079 171.212 267.77 171.212C268.913 171.212 269.784 170.702 270.343 169.695L269.622 169.21C269.162 170.018 268.565 170.416 267.819 170.416C266.75 170.416 265.979 169.633 265.979 168.427V168.34H270.38ZM269.361 167.569H265.979C266.079 166.624 266.763 166.04 267.67 166.04C268.677 166.04 269.299 166.587 269.361 167.569Z" fill="black"/>
<path d="M271.856 170.975H272.8V165.418H271.856V170.975ZM271.632 162.745C271.632 163.143 271.943 163.442 272.328 163.442C272.713 163.442 273.024 163.143 273.024 162.758C273.024 162.373 272.713 162.049 272.328 162.049C271.943 162.049 271.632 162.36 271.632 162.745Z" fill="black"/>
<path d="M274.034 170.975H278.87V170.143H275.712L278.894 165.418H274.232V166.251H277.216L274.034 170.975Z" fill="black"/>
<path d="M285.131 168.34V168.153C285.131 166.313 284.087 165.207 282.458 165.207C280.842 165.207 279.686 166.425 279.686 168.178C279.686 169.993 280.83 171.212 282.52 171.212C283.664 171.212 284.534 170.702 285.094 169.695L284.373 169.21C283.913 170.018 283.316 170.416 282.57 170.416C281.501 170.416 280.73 169.633 280.73 168.427V168.34H285.131ZM284.112 167.569H280.73C280.83 166.624 281.513 166.04 282.421 166.04C283.428 166.04 284.05 166.587 284.112 167.569Z" fill="black"/>
<path d="M286.569 170.975H287.514V168.265C287.514 166.811 288.011 166.09 289.018 166.09C289.192 166.09 289.391 166.127 289.603 166.202L289.926 165.344C289.714 165.269 289.503 165.232 289.279 165.232C288.434 165.232 287.912 165.63 287.415 166.575V165.418H286.569V170.975Z" fill="black"/>
<path d="M297.217 171.324L300.959 162.087H299.816L297.217 168.887L294.607 162.087H293.463L297.217 171.324Z" fill="black"/>
<path d="M306.062 168.34V168.153C306.062 166.313 305.017 165.207 303.389 165.207C301.773 165.207 300.616 166.425 300.616 168.178C300.616 169.993 301.76 171.212 303.451 171.212C304.595 171.212 305.465 170.702 306.024 169.695L305.303 169.21C304.843 170.018 304.246 170.416 303.501 170.416C302.431 170.416 301.661 169.633 301.661 168.427V168.34H306.062ZM305.042 167.569H301.661C301.76 166.624 302.444 166.04 303.351 166.04C304.358 166.04 304.98 166.587 305.042 167.569Z" fill="black"/>
<path d="M307.5 170.975H308.444V168.265C308.444 166.811 308.942 166.09 309.949 166.09C310.123 166.09 310.322 166.127 310.533 166.202L310.856 165.344C310.645 165.269 310.434 165.232 310.21 165.232C309.364 165.232 308.842 165.63 308.345 166.575V165.418H307.5V170.975Z" fill="black"/>
<path d="M311.261 170.043C311.696 170.826 312.418 171.212 313.449 171.212C314.68 171.212 315.476 170.478 315.476 169.446C315.476 168.539 314.941 168.141 313.86 167.793C312.94 167.495 312.43 167.42 312.43 166.836C312.43 166.351 312.815 166.003 313.375 166.003C313.959 166.003 314.419 166.289 314.643 166.798L315.414 166.326C315.115 165.617 314.394 165.219 313.437 165.219C312.256 165.219 311.473 165.928 311.473 166.898C311.473 167.992 312.293 168.228 313.661 168.7C314.245 168.899 314.531 169.123 314.531 169.546C314.531 170.031 314.121 170.379 313.487 170.379C312.853 170.379 312.38 170.093 312.069 169.496L311.261 170.043Z" fill="black"/>
<path d="M316.958 170.975H317.903V165.418H316.958V170.975ZM316.734 162.745C316.734 163.143 317.045 163.442 317.43 163.442C317.816 163.442 318.127 163.143 318.127 162.758C318.127 162.373 317.816 162.049 317.43 162.049C317.045 162.049 316.734 162.36 316.734 162.745Z" fill="black"/>
<path d="M324.183 169.658C323.599 170.08 323.064 170.292 322.468 170.292C321.312 170.292 320.479 169.397 320.479 168.278C320.479 166.96 321.324 166.139 322.542 166.139C323.089 166.139 323.612 166.313 324.084 166.624V165.605C323.574 165.356 322.977 165.219 322.356 165.219C320.69 165.219 319.459 166.438 319.459 168.253C319.459 170.006 320.591 171.212 322.319 171.212C323.04 171.212 323.674 171.063 324.183 170.764V169.658Z" fill="black"/>
<path d="M325.504 170.975H326.449V168.104C326.449 167.495 326.449 167.035 326.772 166.637C327.083 166.251 327.568 166.04 328.127 166.04C329.122 166.04 329.606 166.587 329.606 167.706V170.975H330.551V167.196C330.551 165.941 329.756 165.219 328.463 165.219C327.592 165.219 326.921 165.555 326.436 166.276V161.564H325.504V170.975Z" fill="black"/>
<path d="M337.384 168.34V168.153C337.384 166.313 336.34 165.207 334.712 165.207C333.095 165.207 331.939 166.425 331.939 168.178C331.939 169.993 333.083 171.212 334.774 171.212C335.917 171.212 336.788 170.702 337.347 169.695L336.626 169.21C336.166 170.018 335.569 170.416 334.823 170.416C333.754 170.416 332.983 169.633 332.983 168.427V168.34H337.384ZM336.365 167.569H332.983C333.083 166.624 333.767 166.04 334.674 166.04C335.681 166.04 336.303 166.587 336.365 167.569Z" fill="black"/>
<path d="M338.822 170.975H339.767V168.265C339.767 166.811 340.265 166.09 341.272 166.09C341.446 166.09 341.645 166.127 341.856 166.202L342.179 165.344C341.968 165.269 341.756 165.232 341.533 165.232C340.687 165.232 340.165 165.63 339.668 166.575V165.418H338.822V170.975Z" fill="black"/>
<path d="M344.039 165.418H343.094V168.738C343.094 170.366 343.977 171.212 345.593 171.212C347.259 171.212 348.129 170.341 348.129 168.663V165.418H347.184V168.153C347.159 169.62 346.836 170.304 345.618 170.304C344.399 170.304 344.039 169.62 344.039 168.153V165.418Z" fill="black"/>
<path d="M349.967 170.975H350.912V168.104C350.912 167.495 350.912 167.035 351.235 166.637C351.546 166.251 352.031 166.04 352.59 166.04C353.585 166.04 354.07 166.587 354.07 167.706V170.975H355.015V167.196C355.015 165.941 354.219 165.219 352.926 165.219C352.056 165.219 351.385 165.555 350.912 166.276V165.418H349.967V170.975Z" fill="black"/>
<path d="M362.084 165.418H361.114V166.45C360.704 165.642 359.995 165.219 359.075 165.219C357.521 165.219 356.465 166.326 356.465 168.178C356.465 169.981 357.534 171.15 359.125 171.15C359.983 171.15 360.704 170.714 361.139 169.919V170.851C361.139 171.361 361.114 171.771 360.903 172.119C360.617 172.604 360.07 172.853 359.312 172.853C358.243 172.853 357.658 172.368 357.658 171.547V171.473H356.589C356.626 172.865 357.596 173.686 359.299 173.686C360.281 173.686 361.027 173.4 361.537 172.84C362.059 172.293 362.084 171.672 362.084 170.876V165.418ZM361.139 168.216C361.139 169.496 360.443 170.242 359.324 170.242C358.143 170.242 357.472 169.484 357.472 168.141C357.472 166.873 358.143 166.139 359.287 166.139C360.356 166.139 361.139 166.923 361.139 168.216Z" fill="black"/>
</svg>
