<svg width="528" height="278" viewBox="0 0 528 278" fill="none" xmlns="http://www.w3.org/2000/svg">
<rect width="528" height="278" fill="#F3F3F3"/>
<path d="M171.273 126.213V138.233H171.374C172.99 136.011 175.01 135.001 177.737 135.001C182.788 135.001 185.212 138.435 185.212 143.486V155.91H178.141V145.506C178.141 143.183 177.838 140.657 174.909 140.657C172.081 140.657 171.172 143.082 171.172 145.506V155.91H164.101V126.213H171.273Z" fill="black"/>
<path d="M202.687 142.778C202.384 140.859 200.566 139.545 198.647 139.545C196.626 139.545 194.909 140.657 194.404 142.778H202.687ZM209.354 146.919H194.404C194.404 149.848 195.919 151.465 198.849 151.465C200.364 151.465 201.475 150.96 202.283 149.646H209.152C208.041 154.394 203.495 156.616 198.95 156.616C192.283 156.616 187.333 152.778 187.333 145.808C187.333 139.04 191.879 135 198.445 135C205.414 135 209.354 139.343 209.354 146.212V146.919Z" fill="black"/>
<path d="M211.374 155.91H218.444V126.213H211.374V155.91" fill="black"/>
<path d="M231.98 146.01L236.727 135.605H244.707L234.303 155.908H229.656L219.151 135.605H227.131L231.98 146.01Z" fill="black"/>
<path d="M258.343 142.778C258.04 140.859 256.222 139.545 254.303 139.545C252.283 139.545 250.565 140.657 250.06 142.778H258.343ZM264.909 146.919H249.959C249.959 149.848 251.475 151.465 254.404 151.465C255.919 151.465 257.03 150.96 257.838 149.646H264.707C263.596 154.394 259.05 156.616 254.505 156.616C247.838 156.616 242.889 152.778 242.889 145.808C242.889 139.04 247.434 135 254 135C260.969 135 264.909 139.343 264.909 146.212V146.919Z" fill="black"/>
<path d="M275.414 155.909H268.343V141.565H266.02V135.606H268.343V129.545H275.414V135.606H279.454V141.565H275.414V155.909" fill="black"/>
<path d="M287.839 155.908H280.768V135.605H287.839V155.908ZM288.344 129.242C288.344 131.464 286.525 133.282 284.404 133.282C282.182 133.282 280.465 131.464 280.465 129.242C280.465 127.019 282.283 125.201 284.404 125.201C286.525 125.201 288.344 127.019 288.344 129.242Z" fill="black"/>
<path d="M297.232 145.808C297.232 148.333 298.949 150.354 301.778 150.354C304.707 150.354 306.323 148.333 306.323 145.808C306.323 143.283 304.606 141.263 301.778 141.263C298.949 141.162 297.232 143.283 297.232 145.808ZM313.293 155.909H306.222V153.687H306.121C304.909 155.707 302.384 156.616 300.06 156.616C294.101 156.616 289.959 151.566 289.959 145.808C289.959 140.051 294.101 135 299.959 135C302.283 135 304.707 135.909 306.121 137.626V135.606H313.192V155.909" fill="black"/>
<path d="M330.364 148.939L338.344 146.817L340.061 142.777L336.525 134.494L335.717 136.514L330.364 148.939Z" fill="#533863"/>
<path d="M348.242 122.98L344.909 115.404L336.828 117.222L340.06 124.899L348.242 122.98Z" fill="#533863"/>
<path d="M335.919 133.283L336.02 132.98L339.253 125.505L336.02 118.232L323.394 148.131L329.152 149.142L335.919 133.283Z" fill="#875EA0"/>
<path d="M339.252 125.505L339.05 125.101L336.121 118.131L336.02 118.232L339.252 125.505Z" fill="black"/>
<path d="M338.546 147.93L331.98 149.546L343.697 151.667L342.485 148.637L338.546 147.93Z" fill="#006B71"/>
<path d="M329.253 150.253L327.03 149.849H327.131L322.889 149.041L320.263 155.506L347.535 160.455L344.303 152.879L329.253 150.253Z" fill="#00A2A9"/>
<path d="M327.232 149.748L322.889 149.041L327.131 149.849L327.232 149.748Z" fill="black"/>
<path d="M327.131 149.848H327.03L329.253 150.252L329.151 150.151L327.131 149.848Z" fill="black"/>
<path d="M329.757 150.253L329.454 150.152L329.252 150.253L344.303 152.88V152.779L329.757 150.253Z" fill="black"/>
<path d="M329.252 150.253L329.454 150.152H329.151L329.252 150.253Z" fill="black"/>
<path d="M329.152 150.152L327.232 149.748L327.131 149.849L329.152 150.152Z" fill="black"/>
<path d="M329.455 150.152L329.758 150.253L329.455 150.152Z" fill="black"/>
<path d="M340.465 125.909L342.485 130.556L355.919 161.869L363.899 159.546L348.647 123.99L344.606 124.899L340.465 125.909Z" fill="#B70417"/>
<path d="M344.606 124.899L348.646 123.99L344.606 124.899Z" fill="black"/>
<path d="M337.131 133.183L341.172 142.677V142.779L345.111 151.869L346.626 155.506L348.849 160.657L354.808 161.768L345.818 140.758L339.758 126.92L337.131 133.183Z" fill="#E3001B"/>
<path d="M341.172 142.778V142.677L337.131 133.182L337.03 133.283L341.172 142.778Z" fill="black"/>
<path d="M339.758 126.919V126.818L337.03 133.081L337.131 133.182L339.758 126.919Z" fill="black"/>
<path d="M337.03 133.282L337.131 133.181L337.03 133.08V133.181V133.282Z" fill="black"/>
<path d="M345.111 151.869L346.626 155.506L345.111 151.869Z" fill="black"/>
<path d="M354.808 161.768L345.818 140.758L354.808 161.768Z" fill="black"/>
</svg>
