<svg width="400" height="95" viewBox="0 0 400 95" fill="none" xmlns="http://www.w3.org/2000/svg">
<path d="M14.1422 68.5458C14.2897 68.4669 14.4669 68.4669 14.6143 68.5458L16.9665 69.8055L19.2335 71.2127C19.3756 71.3009 19.4642 71.4544 19.4695 71.6216L19.5547 74.2884L19.4695 76.9553C19.4642 77.1225 19.3756 77.2759 19.2335 77.3642L16.9665 78.7714L14.6143 80.031C14.4669 80.11 14.2897 80.11 14.1422 80.031L11.7901 78.7714L9.52307 77.3642C9.38095 77.2759 9.29237 77.1225 9.28702 76.9553L9.20182 74.2884L9.28702 71.6216C9.29237 71.4544 9.38095 71.3009 9.52307 71.2127L11.7901 69.8055L14.1422 68.5458Z" fill="#B8163D"/>
<path fill-rule="evenodd" clip-rule="evenodd" d="M160.662 22.641H170.2V50.5188H181.938V59.3223H161.662C161.11 59.3223 160.662 58.8746 160.662 58.3223V22.641ZM41.8163 23.3768H51.3534L64.5587 59.3244H56.1132C55.4653 59.3244 54.894 58.8994 54.7079 58.2788L52.8207 51.9882H41.0827L39.1955 58.2788C39.0093 58.8994 38.4381 59.3244 37.7901 59.3244H28.611L41.8163 23.3768ZM46.9517 31.4467L43.2835 44.6519H50.6198L46.9517 31.4467ZM128.383 23.3768H137.92L151.125 59.3244H142.68C142.032 59.3244 141.461 58.8994 141.275 58.2788L139.387 51.9882H127.649L125.762 58.2788C125.576 58.8994 125.005 59.3244 124.357 59.3244H115.178L128.383 23.3768ZM133.518 31.4467L129.85 44.6519H137.186L133.518 31.4467ZM215.684 23.3768H206.147L192.942 59.3244H202.121C202.769 59.3244 203.34 58.8994 203.526 58.2788L205.414 51.9882H217.152L219.039 58.2788C219.225 58.8994 219.796 59.3244 220.444 59.3244H228.89L215.684 23.3768ZM207.614 44.6519L211.283 31.4467L214.951 44.6519H207.614ZM74.8285 23.3768H84.3657V39.5166L97.2708 23.7436C97.4608 23.5114 97.7449 23.3768 98.0448 23.3768H108.575L95.37 40.2502L108.575 59.3245H98.0832C97.7615 59.3245 97.4595 59.1698 97.2716 58.9088L84.3657 40.9838V59.3245H74.8285V23.3768Z" fill="white"/>
<path fill-rule="evenodd" clip-rule="evenodd" d="M9.53772 62.6625V46.1181H9.53713V54.5103C8.8035 54.7574 6.30918 54.955 5.13538 54.955C3.96158 54.955 1.46725 54.7574 0 54.5103V62.6626C0 62.6626 5.13538 63.4037 9.53713 62.6626C9.53732 62.6625 9.53752 62.6625 9.53772 62.6625Z" fill="white"/>
<path fill-rule="evenodd" clip-rule="evenodd" d="M9.53677 62.6611V54.509C9.53689 54.5089 9.53701 54.5089 9.53713 54.5088V22.641H19.0743V51.5444C19.0743 53.2736 18.8574 56.3583 16.2865 58.9555C15.8159 59.4309 13.227 62.0398 9.53713 62.6611C9.53701 62.6611 9.53689 62.6611 9.53677 62.6611Z" fill="url(#paint0_linear_3046_2069)"/>
<path d="M253.047 17.2747C253.047 16.0184 254.066 15 255.322 15V15C256.578 15 257.597 16.0184 257.597 17.2747V77.8754C257.597 79.1317 256.578 80.1501 255.322 80.1501V80.1501C254.066 80.1501 253.047 79.1317 253.047 77.8754V17.2747Z" fill="#B80000"/>
<path fill-rule="evenodd" clip-rule="evenodd" d="M327.501 30.801C329.007 32.7467 329.886 34.8493 330.953 37.0461C331.455 36.7323 332.114 31.209 332.27 30.3303C332.741 27.6 334.435 20.2565 338.044 20.2565C339.957 20.2565 341.244 22.1708 341.871 23.7713C342.75 25.9681 343.283 28.1335 343.691 30.4558C343.911 31.7111 344.319 34.4728 344.632 35.6025C347.331 34.3472 352.508 31.4914 352.602 31.46C354.327 30.5186 357.967 31.7111 356.116 34.9749C354.673 37.5482 348.366 43.4168 348.366 44.0758C348.366 44.4838 353.857 47.5906 354.641 47.7475C354.767 47.5279 354.955 47.3082 355.018 47.0885C355.708 45.3311 355.99 43.6678 356.9 41.9732C360.101 35.8536 367.976 28.4787 375.349 28.6984C377.608 28.7611 379.773 29.3574 381.687 30.3616C381.31 29.075 381.31 27.6941 381.875 26.2505C383.852 21.1352 391.257 18.6874 395.931 20.6645C399.257 22.0767 400.889 25.2149 399.508 28.8239C397.814 33.2488 392.637 36.952 388.025 36.0105C391.1 40.4668 392.323 46.2726 390.472 51.3565C387.868 58.6373 377.922 60.6144 371.082 60.6144C369.074 60.6144 362.046 59.2963 361.858 59.3277C358.093 59.6729 355.99 60.0181 352.163 59.0139L345.291 56.3464C344.57 56.1581 343.691 57.6644 343.221 58.0724C340.052 60.9596 335.094 59.5787 331.894 57.633C328.254 59.9553 321.917 60.8654 318.277 57.9782C317.649 57.4761 316.206 55.3421 315.987 55.248C308.3 60.1122 296.785 61.5872 287.905 59.3277C286.525 59.2963 283.482 57.1623 282.917 55.907C281.379 52.4863 281.568 49.1911 282.101 45.4566C282.697 41.3769 283.482 37.2972 284.172 33.2488C284.705 30.1734 286.745 20.0996 290.635 20.0996C295.53 20.0996 295.812 29.9223 297.35 30.5186C298.699 30.1106 301.366 29.6398 302.746 29.6398C309.241 29.6398 313.539 33.2175 317.649 37.7052C317.775 37.8307 317.932 37.9562 318.089 38.0817C318.434 37.7679 320.818 32.3701 321.917 30.8951L321.76 30.4558C314.826 27.0037 319.626 15.6119 327.47 18.4363C329.76 19.2836 331.266 21.6687 331.266 24.0538C331.266 28.1649 327.533 30.2675 327.501 30.801ZM391.434 27.3872C392.053 26.9007 392.728 26.4143 393.234 25.7981C393.627 25.3117 393.908 24.6955 393.824 24.1118C393.627 22.8794 392.221 22.5876 390.956 22.8794C390.169 23.074 389.382 23.4632 388.791 24.0469C388.538 24.2739 388.313 24.5658 388.201 24.8577C388.088 25.2468 388.369 25.5062 388.819 25.3765C389.157 25.2792 389.438 25.0522 389.691 24.8252C390 24.5009 390.281 24.1442 390.759 24.0469C391.069 23.9821 391.35 24.0793 391.35 24.4036C391.35 24.6631 391.125 24.9225 390.9 25.1171C390.703 25.2792 390.534 25.4414 390.338 25.5711C389.663 26.1224 389.016 26.6737 388.51 27.3547C388.285 27.679 388.088 28.0358 387.976 28.3925C387.835 28.8141 387.779 29.2357 387.863 29.6248C387.976 30.1761 388.426 30.5653 389.044 30.5977C390.197 30.6301 391.378 30.5328 392.587 30.3383C393.206 30.2085 393.852 29.8194 393.909 29.1708C393.965 28.4898 393.29 28.2628 392.643 28.3601C391.772 28.4898 390.9 28.5871 390.028 28.6844C390.366 28.1979 390.928 27.8088 391.434 27.3872ZM375.52 40.1724C373.463 40.1724 363.301 49.741 373.806 49.741C382.409 49.741 377.422 40.1724 375.52 40.1724ZM306.268 39.7375C303.952 39.7375 291.674 49.3061 304.269 49.3061C314.263 49.3061 308.584 39.7375 306.268 39.7375Z" fill="#E73F39"/>
<defs>
<linearGradient id="paint0_linear_3046_2069" x1="10.2703" y1="62.9906" x2="20.5407" y2="18.9728" gradientUnits="userSpaceOnUse">
<stop stop-color="#C01940"/>
<stop offset="1" stop-color="#E7304D"/>
</linearGradient>
</defs>
</svg>
