<svg width="197" height="32" viewBox="0 0 197 32" fill="none" xmlns="http://www.w3.org/2000/svg">
<path d="M6.82502 26.3618C6.97248 26.2828 7.14966 26.2828 7.29711 26.3618L8.33219 26.9161L9.32977 27.5353C9.47188 27.6235 9.56047 27.777 9.56581 27.9442L9.60331 29.1177L9.56581 30.2913C9.56047 30.4584 9.47188 30.6119 9.32977 30.7001L8.33219 31.3194L7.29711 31.8737C7.14966 31.9526 6.97248 31.9526 6.82502 31.8737L5.78995 31.3194L4.79237 30.7001C4.65025 30.6119 4.56166 30.4584 4.55632 30.2913L4.51883 29.1177L4.55632 27.9442C4.56166 27.777 4.65025 27.6235 4.79237 27.5353L5.78995 26.9161L6.82502 26.3618Z" fill="#B8163D"/>
<path fill-rule="evenodd" clip-rule="evenodd" d="M78.9039 3.75293H83.5877V17.4441H89.3524V21.7677H79.9039C79.3516 21.7677 78.9039 21.3199 78.9039 20.7677V3.75293ZM20.5371 4.11403H25.2209L31.7062 21.7685H27.5585C27.2403 21.7685 26.9597 21.5597 26.8683 21.2549L25.9415 18.1655H20.1768L19.2499 21.2549C19.1585 21.5597 18.878 21.7685 18.5597 21.7685H14.0518L20.5371 4.11403ZM23.0591 8.07727L21.2576 14.5626H24.8606L23.0591 8.07727ZM63.0513 4.11403H67.7352L74.2205 21.7685H70.0728C69.7546 21.7685 69.474 21.5597 69.3826 21.2549L68.4558 18.1655H62.691L61.7642 21.2549C61.6728 21.5597 61.3922 21.7685 61.074 21.7685H56.566L63.0513 4.11403ZM65.5734 8.07727L63.7719 14.5626H67.3749L65.5734 8.07727ZM105.927 4.11403H101.243L94.7574 21.7685H99.2654C99.5836 21.7685 99.8641 21.5597 99.9556 21.2549L100.882 18.1655H106.647L107.574 21.2549C107.665 21.5597 107.946 21.7685 108.264 21.7685H112.412L105.927 4.11403ZM101.963 14.5626L103.765 8.07727L105.566 14.5626H101.963ZM36.7502 4.11403H41.434V12.0405L47.6193 4.48079C47.8092 4.24866 48.0933 4.11403 48.3932 4.11403H53.3238L46.8385 12.4008L53.3238 21.7685H48.4316C48.11 21.7685 47.808 21.6138 47.62 21.3528L41.434 12.7611V21.7685H36.7502V4.11403Z" fill="url(#paint0_linear_3029_2209)"/>
<path fill-rule="evenodd" clip-rule="evenodd" d="M4.68384 23.4077V15.2822H4.68383V19.404C4.32353 19.5253 3.09853 19.6224 2.52206 19.6224C1.94559 19.6224 0.720589 19.5253 0 19.404V23.4077C0 23.4077 2.52206 23.7716 4.68383 23.4077C4.68383 23.4077 4.68383 23.4077 4.68384 23.4077Z" fill="url(#paint1_linear_3029_2209)"/>
<path fill-rule="evenodd" clip-rule="evenodd" d="M4.68359 23.4074V19.4038C4.6837 19.4038 4.6838 19.4037 4.68391 19.4037V3.75293H9.36773V17.9478C9.36773 18.7971 9.26125 20.312 7.99862 21.5875C7.7675 21.821 6.49606 23.1023 4.68391 23.4074C4.6838 23.4074 4.6837 23.4074 4.68359 23.4074Z" fill="url(#paint2_linear_3029_2209)"/>
<path d="M124.275 1.11716C124.275 0.500168 124.776 0 125.393 0V0C126.01 0 126.51 0.500168 126.51 1.11716V30.8791C126.51 31.4961 126.01 31.9962 125.393 31.9962V31.9962C124.776 31.9962 124.275 31.4961 124.275 30.8791V1.11716Z" fill="#B80000"/>
<path fill-rule="evenodd" clip-rule="evenodd" d="M160.84 8.7425C161.58 9.69807 162.012 10.7307 162.535 11.8096C162.782 11.6554 163.106 8.94286 163.183 8.51131C163.414 7.17043 164.246 3.56392 166.018 3.56392C166.958 3.56392 167.59 4.50408 167.898 5.29011C168.329 6.36898 168.591 7.43244 168.792 8.57296C168.899 9.18946 169.1 10.5457 169.254 11.1006C170.579 10.4841 173.121 9.08157 173.168 9.06616C174.015 8.60378 175.803 9.18946 174.893 10.7923C174.185 12.0562 171.087 14.9383 171.087 15.262C171.087 15.4623 173.784 16.9881 174.169 17.0652C174.231 16.9573 174.323 16.8494 174.354 16.7415C174.693 15.8784 174.832 15.0616 175.279 14.2293C176.85 11.2239 180.718 7.60198 184.339 7.70986C185.449 7.74069 186.512 8.03352 187.452 8.52672C187.267 7.89481 187.267 7.21667 187.544 6.50769C188.515 3.99547 192.152 2.7933 194.448 3.76428C196.081 4.45784 196.882 5.99908 196.204 7.77151C195.372 9.94466 192.83 11.7633 190.564 11.301C192.075 13.4895 192.675 16.3408 191.766 18.8376C190.487 22.4133 185.603 23.3843 182.244 23.3843C181.257 23.3843 177.806 22.737 177.713 22.7524C175.864 22.9219 174.832 23.0915 172.952 22.5983L169.577 21.2882C169.223 21.1957 168.792 21.9355 168.56 22.1359C167.004 23.5538 164.569 22.8757 162.998 21.9201C161.21 23.0606 158.098 23.5076 156.31 22.0897C156.002 21.8431 155.293 20.795 155.185 20.7488C151.41 23.1377 145.755 23.8621 141.394 22.7524C140.716 22.737 139.222 21.6889 138.944 21.0724C138.189 19.3925 138.282 17.7742 138.544 15.9401C138.836 13.9365 139.222 11.9329 139.561 9.94466C139.823 8.43425 140.824 3.48686 142.735 3.48686C145.139 3.48686 145.277 8.31095 146.032 8.60378C146.695 8.40342 148.005 8.17224 148.683 8.17224C151.872 8.17224 153.983 9.92925 156.002 12.1332C156.064 12.1949 156.141 12.2565 156.218 12.3182C156.387 12.1641 157.558 9.51312 158.098 8.78873L158.021 8.57296C154.615 6.87759 156.973 1.28288 160.825 2.67C161.95 3.08614 162.69 4.25748 162.69 5.42883C162.69 7.44785 160.856 8.48049 160.84 8.7425ZM192.239 7.06591C192.543 6.82701 192.874 6.58811 193.123 6.2855C193.316 6.0466 193.454 5.74399 193.413 5.45731C193.316 4.8521 192.625 4.70876 192.004 4.8521C191.617 4.94766 191.231 5.13878 190.941 5.42546C190.816 5.53695 190.706 5.68029 190.651 5.82363C190.596 6.01475 190.734 6.14216 190.955 6.07845C191.12 6.03067 191.258 5.91919 191.383 5.8077C191.535 5.64843 191.673 5.47324 191.907 5.42546C192.059 5.39361 192.197 5.44139 192.197 5.60065C192.197 5.72807 192.087 5.85548 191.976 5.95104C191.88 6.03067 191.797 6.11031 191.7 6.17401C191.369 6.44477 191.051 6.71552 190.803 7.04998C190.692 7.20925 190.596 7.38444 190.54 7.55964C190.471 7.76668 190.444 7.97373 190.485 8.16485C190.54 8.4356 190.761 8.62672 191.065 8.64265C191.631 8.65858 192.211 8.6108 192.805 8.51524C193.109 8.45153 193.426 8.26041 193.454 7.94188C193.482 7.60742 193.15 7.49593 192.833 7.54371C192.405 7.60742 191.976 7.6552 191.548 7.70298C191.714 7.46408 191.99 7.27296 192.239 7.06591ZM184.423 13.3449C183.413 13.3449 178.422 18.0442 183.581 18.0442C187.806 18.0442 185.357 13.3449 184.423 13.3449ZM150.412 13.1313C149.275 13.1313 143.245 17.8306 149.431 17.8306C154.339 17.8306 151.55 13.1313 150.412 13.1313Z" fill="#E73F39"/>
<defs>
<linearGradient id="paint0_linear_3029_2209" x1="15.1326" y1="21.7685" x2="108.449" y2="3.75459" gradientUnits="userSpaceOnUse">
<stop stop-color="#1D2749"/>
<stop offset="1" stop-color="#086DAA"/>
</linearGradient>
<linearGradient id="paint1_linear_3029_2209" x1="4.32366" y1="15.6847" x2="-0.762825" y2="17.7301" gradientUnits="userSpaceOnUse">
<stop stop-color="#1D2749"/>
<stop offset="1" stop-color="#096AA6"/>
</linearGradient>
<linearGradient id="paint2_linear_3029_2209" x1="5.04391" y1="23.5692" x2="10.0877" y2="1.9513" gradientUnits="userSpaceOnUse">
<stop stop-color="#C01940"/>
<stop offset="1" stop-color="#E7304D"/>
</linearGradient>
</defs>
</svg>
