<svg width="824" height="1222" viewBox="0 0 824 1222" fill="none" xmlns="http://www.w3.org/2000/svg">
<path d="M411.999 1085C334.044 1085 263.738 1064.81 201.082 1024.43C138.425 983.178 89.2478 926.561 53.5484 854.583C17.849 781.728 0 700.533 0 611C0 521.467 17.849 440.711 53.5484 368.733C89.2478 295.878 138.425 239.261 201.082 198.883C263.738 157.628 334.044 137 411.999 137C489.955 137 560.262 157.628 622.919 198.883C685.575 239.261 734.752 295.439 770.452 367.417C806.151 439.394 824 520.589 824 611C824 701.411 806.151 782.606 770.452 854.583C734.752 926.561 685.575 983.178 622.919 1024.43C560.262 1064.81 489.955 1085 411.999 1085ZM411.999 934.9C462.999 934.9 508.898 921.294 549.697 894.083C590.497 865.994 622.554 827.372 645.868 778.217C669.182 728.183 680.838 672.444 680.838 611C680.838 549.556 669.182 494.256 645.868 445.1C622.554 395.067 590.497 356.444 549.697 329.233C508.898 301.144 462.999 287.1 411.999 287.1C361 287.1 315.102 301.144 274.303 329.233C233.503 356.444 201.446 395.067 178.132 445.1C154.818 494.256 143.162 549.556 143.162 611C143.162 672.444 154.818 728.183 178.132 778.217C201.446 827.372 233.503 865.994 274.303 894.083C315.102 921.294 361 934.9 411.999 934.9Z" fill="#132631" fill-opacity="0.05"/>
</svg>
