<svg width="116" height="116" viewBox="0 0 116 116" fill="none" xmlns="http://www.w3.org/2000/svg">
<g clip-path="url(#clip0_2557_1845)">
<path d="M10.3046 41.7469L13.3529 42.948L13.9436 41.4488C14.361 40.3894 14.5384 39.5972 14.4759 39.0722C14.4133 38.5473 14.1089 38.1771 13.5625 37.9619C13.0095 37.744 12.535 37.7956 12.139 38.1169C11.743 38.4381 11.3416 39.1151 10.9347 40.1478L10.3046 41.7469ZM11.2036 36.2127C11.7562 35.5914 12.3327 35.2028 12.933 35.0467C13.5266 34.8881 14.1832 34.9505 14.9028 35.234C15.5092 35.4729 16.0044 35.8374 16.3886 36.3275C16.7729 36.8175 17.0172 37.3987 17.1218 38.0711C17.1823 38.4644 17.1772 38.8781 17.1063 39.312C17.0313 39.7366 16.8508 40.312 16.5646 41.0383L16.2339 41.8778L14.5091 46.2553C14.3358 46.6951 14.1245 46.9775 13.8752 47.1024C13.6284 47.2207 13.3085 47.2024 12.9154 47.0476C12.5622 46.9084 12.3312 46.7135 12.2221 46.4627C12.1065 46.2093 12.1169 45.9093 12.2534 45.5629L12.3203 45.393L4.8645 42.4553L4.79756 42.6252C4.66105 42.9717 4.46407 43.1982 4.20663 43.3045C3.94918 43.4109 3.64056 43.3933 3.28077 43.2515C2.89432 43.0992 2.65254 42.8924 2.55543 42.6309C2.45166 42.3668 2.4851 42.0182 2.65574 41.5851L4.46714 36.9877C5.02106 35.5818 5.71428 34.6233 6.54679 34.1123C7.38192 33.5947 8.32586 33.5433 9.37861 33.958C9.89832 34.1628 10.3134 34.4572 10.6239 34.8413C10.9304 35.216 11.1236 35.6732 11.2036 36.2127ZM5.77718 39.9631L8.29577 40.9554L8.82738 39.6062C9.15028 38.7866 9.28075 38.1722 9.21878 37.763C9.15945 37.347 8.8999 37.0485 8.44016 36.8673C8.00707 36.6967 7.6302 36.7252 7.30955 36.953C6.99153 37.1741 6.69863 37.6244 6.43086 38.304L5.77718 39.9631Z" fill="#C4C9CC"/>
<path d="M19.261 18.7096L25.0113 24.2911L26.2682 22.9962C26.6074 22.6467 26.9161 22.4624 27.1944 22.443C27.4725 22.4135 27.758 22.541 28.0509 22.8253C28.349 23.1146 28.4926 23.4037 28.4817 23.6925C28.4656 23.9763 28.2905 24.2904 27.9563 24.6347L23.5121 29.2133C23.1729 29.5628 22.8617 29.7497 22.5784 29.7742C22.3002 29.7936 22.0094 29.6561 21.7063 29.3618C21.4082 29.0725 21.2673 28.791 21.2835 28.5173C21.2996 28.2435 21.4798 27.9294 21.824 27.5748L23.0809 26.2798L17.3307 20.6983L16.0737 21.9933C15.7345 22.3427 15.4233 22.5297 15.1401 22.5542C14.8618 22.5735 14.5737 22.4385 14.2756 22.1492C13.9724 21.8549 13.8289 21.5709 13.8451 21.2972C13.8613 21.0235 14.0415 20.7093 14.3856 20.3547L18.8299 15.7761C19.184 15.4113 19.4952 15.2192 19.7633 15.2001C20.0314 15.1809 20.3171 15.3184 20.6203 15.6127C20.9183 15.902 21.0618 16.186 21.0508 16.4647C21.0398 16.7434 20.8621 17.0601 20.518 17.4147L19.261 18.7096Z" fill="#C4C9CC"/>
<path d="M35.3026 16.2694L32.1443 8.90432L31.9765 8.9763C31.6211 9.12871 31.3117 9.15228 31.0484 9.04702C30.7851 8.94176 30.5772 8.71142 30.4248 8.356C30.2611 7.97426 30.2413 7.65549 30.3653 7.39968C30.4866 7.1373 30.7677 6.91156 31.2087 6.72245L33.0647 5.92652L33.6472 5.67673C35.0228 5.08684 36.0552 4.71424 36.7445 4.55893C37.4337 4.40362 38.0614 4.36823 38.6275 4.45273C39.6271 4.58511 40.5267 5.00196 41.3261 5.70328C42.1293 6.3952 42.7779 7.31707 43.2718 8.46889C43.794 9.68652 44.0077 10.8572 43.9129 11.9809C43.822 13.0953 43.4324 14.0766 42.7443 14.9249C42.4331 15.3077 42.0288 15.6642 41.5314 15.9944C41.0312 16.318 40.248 16.7084 39.1818 17.1656L38.0859 17.6356L36.2298 18.4315C35.7757 18.6262 35.4179 18.6823 35.1565 18.5996C34.8922 18.5103 34.6754 18.2682 34.5061 17.8733C34.3565 17.5245 34.3357 17.2217 34.4438 16.9649C34.5491 16.7016 34.7794 16.4938 35.1348 16.3413L35.3026 16.2694ZM34.6745 7.77254L37.8498 15.1771L38.4126 14.9358C39.6565 14.4023 40.4448 13.7058 40.7775 12.8463C41.1074 11.9801 41.0014 10.9152 40.4595 9.65151C39.926 8.40755 39.2253 7.60934 38.3573 7.2569C37.4959 6.90164 36.4596 6.98367 35.2486 7.50301C35.0906 7.57075 34.9702 7.62625 34.8875 7.66953C34.8085 7.70339 34.7375 7.73773 34.6745 7.77254Z" fill="#C4C9CC"/>
<path d="M63.2552 10.4007L63.4378 10.3989C63.8245 10.3951 64.1191 10.4924 64.3216 10.691C64.5241 10.8823 64.6272 11.1678 64.6309 11.5473C64.6351 11.9698 64.5307 12.2752 64.3178 12.4635C64.1119 12.6518 63.7655 12.7483 63.2786 12.7532L60.0453 12.7853C59.5512 12.7902 59.1994 12.7041 58.99 12.5272C58.7805 12.343 58.6736 12.0362 58.6693 11.6065C58.6652 11.1911 58.7661 10.8929 58.972 10.7118C59.1779 10.5307 59.5279 10.4377 60.022 10.4328L60.3979 10.4291L59.9451 9.17671L55.3047 9.22278L54.8553 10.4841L55.2312 10.4804C55.7182 10.4756 56.0664 10.5652 56.2759 10.7493C56.4925 10.9262 56.6029 11.2188 56.6069 11.627C56.6111 12.0495 56.5067 12.3549 56.2937 12.5432C56.0879 12.7315 55.7415 12.828 55.2546 12.8328L52.4832 12.8603C51.9891 12.8652 51.6373 12.7756 51.4278 12.5915C51.2182 12.4074 51.1114 12.1041 51.1072 11.6816C51.1034 11.302 51.2008 11.0146 51.3994 10.8192C51.5979 10.6167 51.8906 10.5136 52.2773 10.5097L52.4599 10.5079L55.2591 2.46606L54.3997 2.47459C53.9128 2.47943 53.561 2.38982 53.3443 2.20576C53.1348 2.02163 53.0279 1.7219 53.0238 1.30655C53.0196 0.884048 53.1204 0.57867 53.3263 0.39042C53.5393 0.202098 53.8892 0.10552 54.3762 0.100686L58.4043 0.0606967C59.0416 0.0543695 59.4926 0.393659 59.7572 1.07857L59.7576 1.11079L63.2552 10.4007ZM57.547 2.44335L56.0345 6.99179L59.1496 6.96086L57.547 2.44335Z" fill="#C4C9CC"/>
<path d="M82.6588 5.42122C82.8445 5.24922 83.0165 5.14897 83.1749 5.12046C83.3333 5.09196 83.5419 5.13018 83.8007 5.23514C84.1856 5.39123 84.4016 5.56381 84.4486 5.75287C84.5049 5.93799 84.4535 6.24561 84.2946 6.67573L83.5593 8.60321L83.5149 8.71271C83.3561 9.10427 83.1648 9.34739 82.9409 9.44208C82.7264 9.53282 82.4333 9.50283 82.0617 9.35212C81.5905 9.16105 81.341 8.76622 81.3132 8.16765C81.3097 8.08119 81.3073 8.0107 81.3063 7.95617C81.2674 7.46128 81.1138 7.03965 80.8455 6.69128C80.5799 6.33627 80.2081 6.06189 79.7303 5.86812C79.133 5.62591 78.592 5.56881 78.1074 5.69684C77.632 5.82092 77.3069 6.09865 77.1319 6.53002C76.8844 7.14058 77.5321 7.96352 79.0751 8.99883C79.3363 9.17428 79.5431 9.31224 79.6955 9.4127C80.8567 10.2082 81.607 11.007 81.9463 11.8092C82.2856 12.6114 82.2547 13.5069 81.8537 14.4957C81.3585 15.7168 80.5616 16.491 79.4629 16.8183C78.3669 17.1389 77.0457 16.9857 75.4994 16.3586C74.8955 16.1137 74.3708 15.8546 73.9252 15.5811C73.4863 15.3104 73.0782 15.002 72.7008 14.6557C72.5247 14.7852 72.3521 14.8582 72.1831 14.8747C72.0115 14.8978 71.8029 14.8596 71.5573 14.76C71.1392 14.5905 70.8795 14.3924 70.7782 14.1659C70.6769 13.9393 70.705 13.6223 70.8625 13.2147L71.7713 10.8592L71.8157 10.7497C71.9934 10.3117 72.1968 10.0387 72.426 9.93075C72.6619 9.82548 72.9823 9.85493 73.3871 10.0191C73.8185 10.194 74.0537 10.6526 74.0927 11.3949C74.0972 11.5744 74.1032 11.7121 74.1107 11.8079C74.1623 12.4238 74.3659 12.9508 74.7216 13.3887C75.0839 13.8292 75.6002 14.1854 76.2705 14.4572C76.881 14.7048 77.4067 14.7712 77.8474 14.6562C78.2881 14.5413 78.6013 14.2549 78.787 13.7969C79.075 13.0868 78.5265 12.2384 77.1414 11.2518C76.7266 10.9599 76.4012 10.7236 76.1654 10.543C75.0151 9.68239 74.2934 8.899 74.0002 8.19278C73.7097 7.47992 73.7434 6.68216 74.1013 5.7995C74.5615 4.66465 75.3617 3.91109 76.5018 3.53883C77.6513 3.16261 78.9029 3.24901 80.2568 3.79802C80.7081 3.98103 81.1306 4.20645 81.5243 4.47429C81.9246 4.74482 82.3028 5.06047 82.6588 5.42122Z" fill="#C4C9CC"/>
<path d="M97.963 18.1721C97.3065 17.5221 96.528 17.2753 95.6274 17.4317C94.7318 17.5932 93.818 18.1446 92.8858 19.0861C91.9537 20.0275 91.4114 20.9519 91.2589 21.8591C91.1064 22.7663 91.3559 23.5424 92.0072 24.1873C92.6637 24.8373 93.4423 25.0841 94.3429 24.9277C95.2485 24.7663 96.17 24.2122 97.1072 23.2657C98.0393 22.3242 98.5791 21.4024 98.7266 20.5003C98.8791 19.6032 98.6246 18.8272 97.963 18.1721ZM99.7165 16.4012C100.968 17.6407 101.555 19.1089 101.478 20.8057C101.4 22.5025 100.674 24.0456 99.298 25.4349C97.9123 26.8343 96.3766 27.5813 94.6907 27.6757C93.0049 27.7702 91.531 27.1926 90.2689 25.943C89.0221 24.7085 88.435 23.2404 88.5075 21.5385C88.5852 19.8316 89.3092 18.286 90.6798 16.9018C92.0604 15.5074 93.5936 14.763 95.2794 14.6685C96.9754 14.574 98.4544 15.1516 99.7165 16.4012Z" fill="#C4C9CC"/>
<path d="M104.888 44.5509L104.958 44.7194C105.107 45.0763 105.127 45.3859 105.02 45.6482C104.918 45.9077 104.693 46.1105 104.342 46.2566C103.952 46.4193 103.63 46.4373 103.375 46.3107C103.124 46.1907 102.904 45.906 102.717 45.4565L101.472 42.4723C101.281 42.0163 101.229 41.658 101.314 41.3974C101.406 41.134 101.65 40.9196 102.047 40.7542C102.43 40.5943 102.745 40.5757 102.99 40.6985C103.235 40.8212 103.453 41.1106 103.643 41.5667L103.788 41.9137L104.778 41.0233L102.992 36.7404L101.654 36.7979L101.799 37.1449C101.986 37.5944 102.034 37.9508 101.942 38.2141C101.859 38.4813 101.63 38.6935 101.253 38.8507C100.863 39.0133 100.541 39.0313 100.286 38.9047C100.034 38.7847 99.8148 38.5 99.6273 38.0506L98.5604 35.4927C98.3701 35.0366 98.321 34.6769 98.4129 34.4136C98.5047 34.1502 98.7457 33.9372 99.1356 33.7746C99.4859 33.6284 99.7889 33.6107 100.045 33.7213C100.307 33.8292 100.512 34.0616 100.661 34.4185L100.732 34.587L109.236 34.159L108.905 33.3658C108.718 32.9164 108.668 32.5567 108.758 32.2867C108.849 32.0234 109.087 31.8117 109.47 31.6518C109.86 31.4892 110.181 31.4678 110.433 31.5878C110.688 31.7144 110.909 32.0025 111.096 32.4519L112.647 36.1698C112.892 36.758 112.747 37.3034 112.212 37.806L112.182 37.8184L104.888 44.5509ZM110.117 36.2707L105.333 36.5783L106.533 39.4535L110.117 36.2707Z" fill="#C4C9CC"/>
<path d="M106.799 75.9707L103.775 74.7093L103.155 76.1965C102.716 77.2474 102.523 78.0359 102.575 78.562C102.627 79.0881 102.924 79.4642 103.466 79.6903C104.015 79.9191 104.49 79.8769 104.893 79.5636C105.295 79.2503 105.71 78.5814 106.137 77.5569L106.799 75.9707ZM105.79 81.486C105.225 82.0961 104.641 82.4732 104.038 82.6173C103.441 82.7642 102.786 82.6887 102.072 82.391C101.471 82.1401 100.983 81.7659 100.608 81.2683C100.234 80.7707 100.001 80.1847 99.9099 79.5104C99.8572 79.116 99.8706 78.7025 99.9501 78.2701C100.033 77.8471 100.225 77.2753 100.526 76.5549L100.873 75.7221L102.685 71.3797C102.867 70.9434 103.083 70.6653 103.335 70.5453C103.584 70.4319 103.904 70.4566 104.294 70.6192C104.644 70.7654 104.871 70.9649 104.975 71.2178C105.086 71.4734 105.069 71.7731 104.926 72.1168L104.856 72.2853L112.252 75.3704L112.322 75.2019C112.465 74.8582 112.667 74.6357 112.926 74.5344C113.186 74.4332 113.494 74.457 113.851 74.6058C114.234 74.7657 114.472 74.9774 114.564 75.2407C114.662 75.5069 114.622 75.8547 114.443 76.2843L112.541 80.8449C111.959 82.2395 111.247 83.184 110.404 83.6783C109.559 84.1793 108.614 84.212 107.57 83.7764C107.054 83.5614 106.645 83.2588 106.342 82.8686C106.043 82.4878 105.859 82.027 105.79 81.486ZM111.29 77.844L108.791 76.8019L108.233 78.1403C107.894 78.9533 107.751 79.565 107.805 79.9754C107.856 80.3924 108.11 80.6961 108.566 80.8863C108.996 81.0655 109.373 81.0445 109.698 80.8231C110.02 80.6084 110.322 80.164 110.603 79.4898L111.29 77.844Z" fill="#C4C9CC"/>
<path d="M99.4934 96.7396L95.8387 95.4301L97.1652 99.0448L97.1957 99.0146C97.4247 98.7878 97.6709 98.6853 97.9341 98.7068C98.1922 98.7334 98.4573 98.8841 98.7294 99.1589C99.0317 99.4643 99.1848 99.741 99.1886 99.9892C99.1924 100.247 99.0442 100.525 98.7439 100.823L97.0035 102.546C96.6625 102.883 96.3553 103.057 96.0818 103.065C95.8134 103.079 95.528 102.933 95.2256 102.628C94.9535 102.353 94.8182 102.074 94.8196 101.791C94.8159 101.512 94.9464 101.242 95.211 100.98L95.3332 100.859L93.6075 95.0089L91.7483 93.1311L90.7483 94.1212C90.4022 94.4638 90.0924 94.6395 89.8189 94.6483C89.5454 94.6672 89.265 94.5316 88.9778 94.2415C88.6856 93.9463 88.5478 93.6545 88.5644 93.3659C88.586 93.0824 88.7674 92.7719 89.1083 92.4343L93.0625 88.5192C93.4034 88.1816 93.7132 88.0059 93.9918 87.9921C94.2704 87.9783 94.5583 88.1215 94.8556 88.4218C95.1529 88.722 95.2907 89.0038 95.2692 89.267C95.2526 89.5353 95.0688 89.8433 94.7177 90.191L93.7177 91.1811L95.3578 92.8375L101.524 94.7292L101.654 94.6007C101.918 94.3387 102.19 94.2109 102.468 94.2173C102.747 94.2238 103.022 94.3644 103.294 94.6392C103.597 94.9445 103.739 95.2314 103.723 95.4997C103.711 95.7731 103.535 96.0786 103.194 96.4162L101.194 98.3964C100.894 98.6937 100.615 98.8391 100.357 98.8328C100.093 98.8315 99.8129 98.6807 99.5157 98.3804C99.2486 98.1107 99.1031 97.8416 99.0791 97.5731C99.0551 97.3147 99.1575 97.0722 99.3865 96.8454L99.4934 96.7396Z" fill="#C4C9CC"/>
<path d="M60.4871 109.544L60.5196 106.267L58.9084 106.251C57.7697 106.24 56.9665 106.357 56.4985 106.603C56.0305 106.849 55.7936 107.266 55.7878 107.853C55.7819 108.448 55.9997 108.872 56.4412 109.127C56.8827 109.382 57.6584 109.515 58.7684 109.526L60.4871 109.544ZM54.997 110.681C54.2193 110.387 53.6503 109.988 53.2901 109.483C52.9298 108.985 52.7534 108.35 52.7611 107.576C52.7676 106.924 52.931 106.332 53.2514 105.798C53.5719 105.264 54.0274 104.828 54.618 104.49C54.9637 104.293 55.3519 104.15 55.7825 104.061C56.2058 103.979 56.8078 103.942 57.5884 103.95L58.4907 103.959L63.1955 104.006C63.6681 104.01 64.0074 104.107 64.2132 104.295C64.4119 104.483 64.5091 104.789 64.5049 105.211C64.5011 105.591 64.4016 105.876 64.2063 106.068C64.011 106.266 63.7271 106.364 63.3548 106.36L63.1722 106.358L63.0926 114.371L63.2752 114.373C63.6476 114.377 63.9295 114.48 64.1208 114.682C64.3122 114.885 64.4059 115.179 64.4021 115.566C64.398 115.981 64.2912 116.281 64.0816 116.465C63.872 116.657 63.5345 116.75 63.069 116.745L58.1279 116.696C56.6169 116.681 55.474 116.376 54.6993 115.781C53.9174 115.186 53.5321 114.323 53.5433 113.192C53.5488 112.633 53.6755 112.14 53.9232 111.713C54.1637 111.293 54.5217 110.949 54.997 110.681ZM60.4388 114.41L60.4656 111.703L59.0155 111.688C58.1347 111.679 57.5142 111.777 57.1541 111.981C56.7868 112.185 56.6008 112.534 56.5958 113.029C56.5912 113.494 56.7526 113.836 57.0798 114.054C57.3999 114.272 57.9252 114.385 58.6557 114.392L60.4388 114.41Z" fill="#C4C9CC"/>
<path d="M35.7704 109.41L38.9288 102.045L37.2701 101.334C36.8226 101.142 36.5401 100.919 36.4226 100.666C36.2957 100.417 36.3127 100.105 36.4735 99.7299C36.6373 99.3482 36.8559 99.1108 37.1296 99.0178C37.4004 98.9313 37.7563 98.9826 38.1973 99.1717L44.0617 101.687C44.5093 101.878 44.7951 102.102 44.9192 102.358C45.0367 102.611 45.0121 102.932 44.8456 103.32C44.6819 103.702 44.4693 103.934 44.2079 104.017C43.9465 104.099 43.5887 104.043 43.1345 103.849L41.4759 103.137L38.3176 110.502L39.9762 111.214C40.4238 111.406 40.7096 111.63 40.8337 111.885C40.9511 112.138 40.928 112.456 40.7643 112.837C40.5978 113.226 40.3838 113.461 40.1224 113.544C39.861 113.627 39.5032 113.571 39.049 113.376L33.1846 110.861C32.7173 110.661 32.4268 110.439 32.3131 110.195C32.1993 109.951 32.2257 109.636 32.3923 109.247C32.556 108.865 32.77 108.63 33.0342 108.541C33.2985 108.451 33.6577 108.504 34.1118 108.699L35.7704 109.41Z" fill="#C4C9CC"/>
<path d="M20.0786 98.8924L22.4141 96.6253L17.7204 96.5554C17.9489 96.8526 18.0565 97.1125 18.0431 97.3351C18.0245 97.5627 17.8841 97.8037 17.6221 98.0581C17.3189 98.3524 17.0306 98.4924 16.7574 98.4782C16.4791 98.4589 16.1704 98.2745 15.8312 97.9251L13.9981 96.0366C13.659 95.6872 13.4863 95.3757 13.4803 95.1021C13.4693 94.8234 13.6153 94.5369 13.9185 94.2426C14.2011 93.9682 14.4867 93.8358 14.7753 93.8451C15.0537 93.8543 15.33 94.0003 15.6044 94.2829L15.7765 94.4602L20.1814 94.541C20.0857 93.8254 20.1225 93.0511 20.2919 92.218C20.4562 91.3899 20.8329 90.2408 21.422 88.7707L21.3247 88.6705L21.1751 88.5164C20.8808 88.2132 20.7307 87.9197 20.7248 87.636C20.7189 87.3523 20.8547 87.0758 21.1322 86.8065C21.4354 86.5122 21.7286 86.3773 22.0118 86.4018C22.2901 86.4211 22.5988 86.6055 22.938 86.9549L23.8583 87.903C24.2623 88.3193 24.3089 88.9277 23.9982 89.7283C23.9403 89.8743 23.893 89.9901 23.8563 90.0756C23.4661 91.1131 23.2129 91.9627 23.0967 92.6244C22.9804 93.2861 22.945 93.9643 22.9904 94.6588L24.3874 94.71L25.8288 93.3108L25.7091 93.1875C25.4398 92.91 25.3072 92.6295 25.3114 92.3459C25.3055 92.0622 25.4388 91.7882 25.7111 91.5239C26.0143 91.2296 26.3075 91.0947 26.5908 91.1191C26.869 91.1385 27.1777 91.3229 27.5169 91.6723L29.4473 93.661C29.7914 94.0156 29.9716 94.3297 29.9878 94.6034C29.9988 94.8821 29.8502 95.1711 29.5419 95.4704C29.2695 95.7348 28.9941 95.8624 28.7157 95.8531C28.4322 95.8489 28.1557 95.7081 27.8864 95.4306L27.7592 95.2995L22.0089 100.881L22.1361 101.012C22.4005 101.284 22.5305 101.562 22.5263 101.846C22.5171 102.124 22.3737 102.398 22.0963 102.668C21.7931 102.962 21.5048 103.102 21.2316 103.088C20.9533 103.068 20.6446 102.884 20.3054 102.535L18.3751 100.546C18.0409 100.202 17.8658 99.8875 17.8497 99.6036C17.8337 99.3198 17.9773 99.0307 18.2805 98.7364C18.558 98.4671 18.841 98.3371 19.1295 98.3464C19.4131 98.3507 19.6895 98.4915 19.9589 98.769L20.0786 98.8924Z" fill="#C4C9CC"/>
<path d="M6.59883 79.3508C6.93749 80.2104 7.55042 80.7501 8.43763 80.9702C9.32222 81.1835 10.3808 81.0474 11.6135 80.5617C12.8461 80.0761 13.7151 79.4489 14.2205 78.6802C14.7258 77.9115 14.8105 77.1007 14.4744 76.2478C14.1358 75.3883 13.5228 74.8485 12.6356 74.6285C11.7418 74.4111 10.6752 74.5465 9.43585 75.0348C8.20321 75.5205 7.33755 76.1464 6.83887 76.9124C6.33757 77.6719 6.25755 78.4847 6.59883 79.3508ZM4.28013 80.2644C3.63433 78.6253 3.68906 77.0451 4.44432 75.5236C5.19959 74.0022 6.48672 72.8831 8.3057 72.1664C10.138 71.4445 11.8446 71.3802 13.4254 71.9735C15.0062 72.5669 16.1221 73.6897 16.7731 75.3421C17.4163 76.9745 17.3616 78.5548 16.6089 80.0829C15.8496 81.6137 14.5638 82.7361 12.7515 83.4501C10.9259 84.1694 9.22264 84.2324 7.64184 83.6391C6.05176 83.0417 4.93119 81.9168 4.28013 80.2644Z" fill="#C4C9CC"/>
</g>
<defs>
<clipPath id="clip0_2557_1845">
<rect width="116" height="116" fill="white"/>
</clipPath>
</defs>
</svg>
