<svg width="119" height="119" viewBox="0 0 119 119" fill="none" xmlns="http://www.w3.org/2000/svg">
<mask id="mask0" mask-type="alpha" maskUnits="userSpaceOnUse" x="36" y="31" width="48" height="51">
<path fill-rule="evenodd" clip-rule="evenodd" d="M76.0336 48.6303C79.3135 51.9761 80.079 52.696 82.3445 56.6251C84.61 60.5542 83.5063 68.027 81.4316 70.9805C79.3569 73.9341 76.8596 75.544 74.3983 76.8026C71.937 78.0612 56.0268 84.8619 43.8048 79.5565C31.5829 74.2511 38.8754 54.7854 38.8754 53.6976C38.8754 52.6097 44.7369 33.6912 44.7369 33.6912C44.7369 33.6912 53.27 30.7893 55.5081 32.1093C57.7463 33.4294 58.0667 40.9465 58.0667 40.9465C58.0667 40.9465 72.7537 45.2845 76.0336 48.6303Z" fill="white"/>
</mask>
<g mask="url(#mask0)">
<path fill-rule="evenodd" clip-rule="evenodd" d="M166.821 41.7645C167.584 41.1942 168.416 40.6239 169.04 39.9015C169.526 39.3312 169.873 38.6088 169.769 37.9245C169.526 36.4797 167.792 36.1375 166.231 36.4797C165.26 36.7078 164.289 37.1641 163.56 37.8484C163.248 38.1146 162.971 38.4567 162.832 38.7989C162.693 39.2552 163.04 39.5593 163.595 39.4072C164.011 39.2932 164.358 39.027 164.67 38.7609C165.052 38.3807 165.399 37.9625 165.988 37.8484C166.37 37.7724 166.717 37.8864 166.717 38.2666C166.717 38.5708 166.439 38.875 166.162 39.1031C165.919 39.2932 165.711 39.4833 165.468 39.6354C164.636 40.2817 163.838 40.9281 163.214 41.7265C162.936 42.1067 162.693 42.5249 162.555 42.9431C162.381 43.4374 162.312 43.9316 162.416 44.3879C162.555 45.0342 163.11 45.4905 163.873 45.5285C165.295 45.5665 166.751 45.4524 168.243 45.2243C169.006 45.0722 169.803 44.616 169.873 43.8556C169.942 43.0572 169.11 42.791 168.312 42.9051C167.237 43.0572 166.162 43.1712 165.086 43.2853C165.503 42.715 166.196 42.2588 166.821 41.7645ZM147.925 56.3829C145.592 56.3829 134.071 68.0645 145.981 68.0645C155.735 68.0645 150.08 56.3829 147.925 56.3829ZM67.033 55.5485C64.2984 55.5485 49.8015 67.2301 64.673 67.2301C76.4729 67.2301 69.7676 55.5485 67.033 55.5485ZM92.1688 45.5629C93.9217 47.8483 94.9442 50.318 96.1859 52.8982C96.7702 52.5296 97.5371 46.0421 97.7197 45.01C98.2674 41.8031 100.239 33.1777 104.439 33.1777C106.667 33.1777 108.164 35.4262 108.894 37.3061C109.917 39.8864 110.538 42.4298 111.013 45.1575C111.268 46.6319 111.743 49.8756 112.108 51.2026C115.249 49.7282 121.274 46.3739 121.384 46.337C123.392 45.2312 127.629 46.6319 125.474 50.4654C123.794 53.488 116.454 60.3809 116.454 61.155C116.454 61.6342 122.845 65.2834 123.758 65.4677C123.904 65.2097 124.123 64.9517 124.196 64.6936C124.999 62.6294 125.328 60.6758 126.387 58.6853C130.112 51.4975 139.278 42.8352 147.86 43.0933C150.489 43.167 153.009 43.8673 155.237 45.0469C154.799 43.5356 154.799 41.9137 155.456 40.2181C157.757 34.2098 166.375 31.3347 171.816 33.6569C175.687 35.3157 177.586 39.0017 175.979 43.2407C174.007 48.4381 167.982 52.7876 162.614 51.6818C166.192 56.916 167.617 63.7352 165.462 69.7067C162.431 78.2584 150.855 80.5806 142.893 80.5806C140.556 80.5806 132.376 79.0324 132.157 79.0693C127.775 79.4748 125.328 79.8802 120.873 78.7007L112.875 75.5675C112.035 75.3464 111.013 77.1157 110.465 77.5949C106.776 80.9861 101.006 79.3642 97.2814 77.0788C93.0453 79.8065 85.6685 80.8755 81.4323 77.4843C80.7019 76.8945 79.022 74.388 78.7664 74.2774C69.8193 79.9908 56.4169 81.7233 46.0821 79.0693C44.4752 79.0324 40.9329 76.5259 40.2756 75.0515C38.4862 71.0337 38.7053 67.1633 39.3261 62.7769C40.0199 57.985 40.9329 53.1931 41.7363 48.4381C42.3572 44.8257 44.7309 32.9934 49.2592 32.9934C54.9561 32.9934 55.2848 44.5308 57.0742 45.2312C58.6445 44.752 61.7486 44.1991 63.3555 44.1991C70.9149 44.1991 75.9179 48.4012 80.7019 53.6723C80.848 53.8197 81.0306 53.9672 81.2132 54.1146C81.6149 53.746 84.3903 47.406 85.6685 45.6735L85.4859 45.1575C77.4152 41.1028 83.0026 27.7224 92.1323 31.0398C94.7982 32.0351 96.5511 34.8365 96.5511 37.6379C96.5511 42.4666 92.2053 44.9363 92.1688 45.5629Z" fill="#132631"/>
</g>
<circle cx="59.6001" cy="59.5" r="58.5" stroke="#4E5C65" stroke-dasharray="2 5"/>
</svg>
