<svg width="176" height="179" viewBox="0 0 176 179" fill="none" xmlns="http://www.w3.org/2000/svg">
<mask id="mask0" mask-type="alpha" maskUnits="userSpaceOnUse" x="69" y="65" width="48" height="51">
<path fill-rule="evenodd" clip-rule="evenodd" d="M109.034 82.6303C112.314 85.9761 113.079 86.696 115.345 90.6251C117.61 94.5542 116.506 102.027 114.432 104.981C112.357 107.934 109.86 109.544 107.398 110.803C104.937 112.061 89.0268 118.862 76.8048 113.557C64.5829 108.251 71.8754 88.7854 71.8754 87.6976C71.8754 86.6097 77.7369 67.6912 77.7369 67.6912C77.7369 67.6912 86.27 64.7893 88.5081 66.1093C90.7463 67.4294 91.0667 74.9465 91.0667 74.9465C91.0667 74.9465 105.754 79.2845 109.034 82.6303Z" fill="white"/>
</mask>
<g mask="url(#mask0)">
<path fill-rule="evenodd" clip-rule="evenodd" d="M199.821 75.7645C200.584 75.1942 201.416 74.6239 202.04 73.9015C202.526 73.3312 202.873 72.6088 202.769 71.9245C202.526 70.4797 200.792 70.1375 199.231 70.4797C198.26 70.7078 197.289 71.1641 196.56 71.8484C196.248 72.1146 195.971 72.4567 195.832 72.7989C195.693 73.2552 196.04 73.5593 196.595 73.4072C197.011 73.2932 197.358 73.027 197.67 72.7609C198.052 72.3807 198.399 71.9625 198.988 71.8484C199.37 71.7724 199.717 71.8864 199.717 72.2666C199.717 72.5708 199.439 72.875 199.162 73.1031C198.919 73.2932 198.711 73.4833 198.468 73.6354C197.636 74.2817 196.838 74.9281 196.214 75.7265C195.936 76.1067 195.693 76.5249 195.555 76.9431C195.381 77.4374 195.312 77.9316 195.416 78.3879C195.555 79.0342 196.11 79.4905 196.873 79.5285C198.295 79.5665 199.751 79.4524 201.243 79.2243C202.006 79.0722 202.803 78.616 202.873 77.8556C202.942 77.0572 202.11 76.791 201.312 76.9051C200.237 77.0572 199.162 77.1712 198.086 77.2853C198.503 76.715 199.196 76.2588 199.821 75.7645ZM180.925 90.3829C178.592 90.3829 167.071 102.065 178.981 102.065C188.735 102.065 183.08 90.3829 180.925 90.3829ZM100.033 89.5485C97.2984 89.5485 82.8015 101.23 97.673 101.23C109.473 101.23 102.768 89.5485 100.033 89.5485ZM125.169 79.5629C126.922 81.8483 127.944 84.318 129.186 86.8982C129.77 86.5296 130.537 80.0421 130.72 79.01C131.267 75.8031 133.239 67.1777 137.439 67.1777C139.667 67.1777 141.164 69.4262 141.894 71.3061C142.917 73.8864 143.538 76.4298 144.013 79.1575C144.268 80.6319 144.743 83.8756 145.108 85.2026C148.249 83.7282 154.274 80.3739 154.384 80.337C156.392 79.2312 160.629 80.6319 158.474 84.4654C156.794 87.488 149.454 94.3809 149.454 95.155C149.454 95.6342 155.845 99.2834 156.758 99.4677C156.904 99.2097 157.123 98.9517 157.196 98.6936C157.999 96.6294 158.328 94.6758 159.387 92.6853C163.112 85.4975 172.278 76.8352 180.86 77.0933C183.489 77.167 186.009 77.8673 188.237 79.0469C187.799 77.5356 187.799 75.9137 188.456 74.2181C190.757 68.2098 199.375 65.3347 204.816 67.6569C208.687 69.3157 210.586 73.0017 208.979 77.2407C207.007 82.4381 200.982 86.7876 195.614 85.6818C199.192 90.916 200.617 97.7352 198.462 103.707C195.431 112.258 183.855 114.581 175.893 114.581C173.556 114.581 165.376 113.032 165.157 113.069C160.775 113.475 158.328 113.88 153.873 112.701L145.875 109.568C145.035 109.346 144.013 111.116 143.465 111.595C139.776 114.986 134.006 113.364 130.281 111.079C126.045 113.807 118.668 114.875 114.432 111.484C113.702 110.895 112.022 108.388 111.766 108.277C102.819 113.991 89.4169 115.723 79.0821 113.069C77.4752 113.032 73.9329 110.526 73.2756 109.051C71.4862 105.034 71.7053 101.163 72.3261 96.7769C73.0199 91.985 73.9329 87.1931 74.7363 82.4381C75.3572 78.8257 77.7309 66.9934 82.2592 66.9934C87.9561 66.9934 88.2848 78.5308 90.0742 79.2312C91.6445 78.752 94.7486 78.1991 96.3555 78.1991C103.915 78.1991 108.918 82.4012 113.702 87.6723C113.848 87.8197 114.031 87.9672 114.213 88.1146C114.615 87.746 117.39 81.406 118.668 79.6735L118.486 79.1575C110.415 75.1028 116.003 61.7224 125.132 65.0398C127.798 66.0351 129.551 68.8365 129.551 71.6379C129.551 76.4666 125.205 78.9363 125.169 79.5629Z" fill="#132631"/>
</g>
<path d="M13.5151 67.6237L13.1732 68.5284C13.1048 68.6991 13.0279 68.8015 12.9253 68.8442C12.8227 68.8869 12.6774 68.8698 12.4894 68.8015C12.3013 68.7333 12.1816 68.6479 12.1389 68.5455C12.0962 68.4431 12.1047 68.3151 12.1645 68.1444L13.5749 64.4402C13.7459 63.9964 13.951 63.6294 14.1904 63.3392C14.4297 63.049 14.7033 62.8271 14.9939 62.682C15.2845 62.537 15.6093 62.4601 15.9427 62.4601C16.2761 62.4601 16.6265 62.5199 16.9855 62.6564C17.3702 62.8015 17.6694 63.0149 17.8916 63.2966C18.1139 63.5782 18.2506 63.9111 18.3105 64.2866C18.678 63.8257 19.0969 63.527 19.5756 63.3904C20.0542 63.2539 20.5671 63.288 21.1227 63.5014C21.5159 63.6465 21.8407 63.8428 22.0972 64.0903C22.3536 64.3293 22.5502 64.6195 22.6784 64.9438C22.8067 65.2681 22.8579 65.6266 22.8408 66.0277C22.8238 66.4288 22.7297 66.8471 22.5588 67.3079L20.9603 71.5071C20.9005 71.6778 20.815 71.7802 20.7124 71.8229C20.6098 71.8656 20.4645 71.8485 20.2765 71.7802C20.0884 71.7119 19.9688 71.6266 19.926 71.5242C19.8833 71.4217 19.8918 71.2937 19.9517 71.123L20.2936 70.2183L13.5151 67.6237ZM17.2591 66.0192C17.4813 65.4388 17.5241 64.9609 17.3958 64.5853C17.2676 64.2098 16.9855 63.9452 16.5496 63.7745C16.0966 63.6038 15.7034 63.6123 15.3614 63.8086C15.0195 64.005 14.7375 64.389 14.5152 64.9779L13.934 66.5057L16.6778 67.5469L17.2591 66.0192ZM21.4646 67.1287C21.6954 66.5142 21.7467 65.9936 21.61 65.5668C21.4732 65.1401 21.1655 64.8414 20.6868 64.6621C19.6696 64.2781 18.9259 64.7048 18.4558 65.9424L17.695 67.9395L20.7295 69.0917L21.4646 67.1287Z" fill="#132631"/>
<path d="M18.4986 56.1444L17.5412 57.9367C17.4557 58.0989 17.3617 58.1927 17.2591 58.2183C17.1565 58.2439 17.0112 58.2183 16.8317 58.1245C16.6522 58.0306 16.5496 57.9282 16.5154 57.8257C16.4813 57.7233 16.5069 57.5868 16.5924 57.4331L19.0627 52.8072C19.1482 52.6451 19.2422 52.5512 19.3448 52.5256C19.4474 52.4915 19.5927 52.5256 19.7722 52.6195C19.9517 52.7134 20.0543 52.8158 20.0885 52.9182C20.1227 53.0206 20.097 53.1572 20.0115 53.3108L19.0542 55.1031L25.4565 58.5085L26.4823 56.5796C26.5678 56.4175 26.6618 56.3236 26.7644 56.298C26.8669 56.2639 27.0122 56.298 27.1918 56.3919C27.3713 56.4858 27.4738 56.5882 27.508 56.6906C27.5422 56.793 27.5166 56.9296 27.4311 57.0832L24.8154 61.9907C24.73 62.1529 24.6359 62.2468 24.5334 62.2724C24.4308 62.298 24.2855 62.2724 24.106 62.1785C23.9265 62.0846 23.8239 61.9822 23.7897 61.8798C23.7555 61.7774 23.7811 61.6408 23.8666 61.4872L24.8924 59.5583L18.4986 56.1444Z" fill="#132631"/>
<path d="M22.5674 49.1458L22.0545 49.8713C21.9519 50.0164 21.8408 50.1017 21.7382 50.1188C21.6271 50.1359 21.4903 50.0847 21.3279 49.9737C21.1655 49.8542 21.0715 49.7433 21.0544 49.6408C21.0373 49.5299 21.0715 49.4019 21.1826 49.2568L22.7981 46.9694C22.9007 46.8243 23.0118 46.739 23.1144 46.7219C23.2255 46.7049 23.3623 46.7561 23.5247 46.867C23.6871 46.9865 23.7812 47.0975 23.7983 47.1999C23.8153 47.3108 23.7812 47.4389 23.67 47.584L23.2512 48.1814L25.978 50.1017L25.2343 45.3734L24.9266 45.8172C24.824 45.9623 24.7129 46.0477 24.6103 46.0647C24.4992 46.0818 24.3624 46.0306 24.2 45.9197C24.0376 45.8002 23.9436 45.6892 23.9265 45.5868C23.9094 45.4758 23.9436 45.3478 24.0547 45.2027L25.5335 43.1032C25.636 42.9581 25.7472 42.8727 25.8497 42.8556C25.9609 42.8386 26.0976 42.8898 26.26 43.0007C26.4224 43.1202 26.5165 43.2312 26.5336 43.3336C26.5507 43.4445 26.5165 43.5726 26.4054 43.7177L26.1489 44.0847L26.8413 48.6679C27.0293 48.3606 27.2601 48.1131 27.5337 47.9253C27.8072 47.7376 28.1491 47.6352 28.5509 47.6096C28.7988 47.601 29.0466 47.6181 29.3116 47.6608C29.5766 47.7034 29.8331 47.7546 30.0809 47.8144C30.3374 47.8741 30.5767 47.9424 30.8161 48.0022C31.0554 48.0619 31.2691 48.1046 31.4657 48.1302C31.6623 48.1558 31.8333 48.1472 31.9871 48.1131C32.141 48.079 32.2521 48.0022 32.3461 47.8741L32.4744 47.6949C32.5769 47.5498 32.688 47.4645 32.7906 47.4474C32.9017 47.4303 33.0385 47.4815 33.2009 47.5925C33.3633 47.712 33.4574 47.8229 33.4745 47.9253C33.4916 48.0363 33.4574 48.1643 33.3462 48.3094L32.9701 48.8386C32.8334 49.0349 32.6282 49.18 32.3632 49.2739C32.0982 49.3677 31.7392 49.3848 31.2862 49.3165C31.0554 49.2824 30.8161 49.2312 30.5767 49.1714C30.3374 49.1117 30.098 49.0519 29.8672 48.9922C29.6365 48.9325 29.4057 48.8812 29.1834 48.8386C28.9612 48.7959 28.7475 48.7703 28.5509 48.7788C28.3286 48.7788 28.1235 48.8215 27.9269 48.9239C27.7388 49.0263 27.5679 49.1714 27.4311 49.3763C27.3029 49.5555 27.2174 49.7518 27.1576 49.9566C27.0977 50.17 27.0892 50.3919 27.1234 50.6138L27.1747 50.9381L29.1663 52.3464L29.91 51.2966C30.0126 51.1515 30.1237 51.0662 30.2263 51.0491C30.3374 51.032 30.4741 51.0832 30.6366 51.1942C30.799 51.3137 30.893 51.4246 30.9101 51.5271C30.9272 51.638 30.893 51.766 30.7819 51.9111L28.8415 54.6508C28.7389 54.7959 28.6278 54.8812 28.5252 54.8983C28.4141 54.9154 28.2773 54.8642 28.1149 54.7532C27.9525 54.6337 27.8585 54.5228 27.8414 54.4204C27.8243 54.3094 27.8585 54.1814 27.9696 54.0363L28.4825 53.3108L22.5674 49.1458Z" fill="#132631"/>
<path d="M30.5681 44.2809C30.0211 43.7859 29.6022 43.2653 29.2945 42.7105C28.9868 42.1558 28.7987 41.601 28.7218 41.0462C28.6449 40.4915 28.7047 39.9452 28.8756 39.4075C29.0466 38.8698 29.3458 38.3748 29.7646 37.9139C30.1835 37.453 30.6536 37.1117 31.1665 36.8897C31.6794 36.6678 32.2264 36.5654 32.782 36.5825C33.3462 36.5996 33.9189 36.7361 34.4916 36.9922C35.0729 37.2482 35.6285 37.6237 36.1755 38.1188C36.7226 38.6138 37.1414 39.1344 37.4492 39.6892C37.7569 40.2439 37.945 40.7902 38.0133 41.3535C38.0817 41.9168 38.0304 42.4545 37.8595 42.9922C37.6885 43.5299 37.3893 44.0249 36.9705 44.4858C36.5516 44.9466 36.0815 45.288 35.5686 45.51C35.0558 45.7319 34.5087 45.8343 33.9531 45.8172C33.3889 45.8001 32.8248 45.6636 32.2435 45.4075C31.6708 45.1515 31.1066 44.776 30.5681 44.2809ZM31.4144 43.3592C31.8332 43.7432 32.2606 44.0334 32.6966 44.2383C33.1325 44.4431 33.5513 44.5626 33.9531 44.5882C34.3548 44.6138 34.748 44.554 35.1156 44.409C35.4832 44.2639 35.8165 44.0249 36.1157 43.7006C36.4149 43.3762 36.62 43.0263 36.7312 42.6422C36.8423 42.2582 36.8679 41.8741 36.8081 41.4644C36.7397 41.0633 36.5858 40.6536 36.3465 40.2439C36.1072 39.8343 35.7738 39.4331 35.3464 39.0491C34.9275 38.665 34.5002 38.3748 34.0642 38.17C33.6283 37.9651 33.2094 37.8457 32.7991 37.82C32.3888 37.7944 32.0042 37.8542 31.6281 37.9993C31.2605 38.1529 30.9271 38.3833 30.628 38.7077C30.3288 39.032 30.1322 39.3819 30.0125 39.766C29.8928 40.1501 29.8757 40.5427 29.9441 40.9438C30.0125 41.3449 30.1664 41.7546 30.4143 42.1643C30.6622 42.574 30.987 42.9751 31.4144 43.3592Z" fill="#132631"/>
<path d="M43.7234 27.1003L43.2105 27.4332C43.0652 27.5356 42.9284 27.5697 42.8258 27.5441C42.7147 27.5185 42.6121 27.4246 42.501 27.2539C42.3899 27.0832 42.3472 26.9467 42.3642 26.8443C42.3813 26.7333 42.4668 26.6309 42.6207 26.537L44.0995 25.564C44.279 25.4445 44.4499 25.4275 44.5952 25.5043L51.4336 29.0463L48.2025 24.1558L47.4246 24.6679C47.2793 24.7703 47.1425 24.8044 47.0399 24.7788C46.9288 24.7532 46.8262 24.6593 46.7151 24.4886C46.604 24.3179 46.5613 24.1814 46.5784 24.079C46.5955 23.968 46.6809 23.8656 46.8348 23.7717L48.9803 22.3549C49.1342 22.2525 49.2624 22.2184 49.365 22.244C49.4761 22.2696 49.5787 22.3635 49.6898 22.5342C49.8009 22.7049 49.8436 22.8414 49.8266 22.9438C49.8095 23.0548 49.724 23.1572 49.5701 23.2511L49.194 23.4986L53.6218 30.1985C53.6987 30.3094 53.7158 30.4289 53.6902 30.5569C53.656 30.6849 53.5534 30.8044 53.3825 30.9154C53.2543 31.0007 53.126 31.0349 52.9978 31.0349C52.8696 31.0263 52.7328 30.9922 52.5875 30.9239L45.1081 27.0576L48.7068 32.5029L49.6129 31.9054C49.7667 31.803 49.8949 31.7689 49.9975 31.7945C50.1001 31.8201 50.2112 31.914 50.3223 32.0847C50.4335 32.2554 50.4762 32.3919 50.4591 32.4943C50.442 32.6053 50.3565 32.7077 50.2027 32.8016L47.8605 34.3464C47.7067 34.4488 47.5785 34.483 47.4759 34.4573C47.3648 34.4317 47.2622 34.3379 47.1511 34.1672C47.0399 33.9965 46.9972 33.8599 47.0143 33.7575C47.0314 33.6465 47.1169 33.5441 47.2707 33.4502L47.7152 33.1601L43.7234 27.1003Z" fill="#132631"/>
<path d="M51.955 21.8855C51.7926 21.9623 51.6643 21.9879 51.5618 21.9452C51.4592 21.9025 51.3652 21.8001 51.2711 21.6209C51.1856 21.4417 51.1515 21.2966 51.1856 21.1941C51.2198 21.0917 51.3139 20.9978 51.4763 20.921L53.7842 19.7859C53.9466 19.7091 54.0748 19.6835 54.186 19.7262C54.2885 19.7603 54.3826 19.8712 54.4766 20.0505C54.5706 20.2297 54.5963 20.3748 54.5621 20.4772C54.5279 20.5796 54.4338 20.6735 54.2714 20.7503L53.4765 21.1429L55.716 25.6749C55.8955 26.0419 56.0921 26.3407 56.2973 26.554C56.5024 26.7759 56.7247 26.9296 56.964 27.0149C57.2034 27.1003 57.4598 27.1173 57.7333 27.0747C58.0069 27.032 58.306 26.9296 58.6309 26.7674C58.9557 26.6052 59.2121 26.4345 59.4173 26.2382C59.6224 26.0505 59.7592 25.8286 59.8361 25.5896C59.913 25.3506 59.9301 25.0775 59.8788 24.7788C59.8276 24.4801 59.7164 24.1472 59.5284 23.7802L57.2888 19.2482L56.4939 19.6408C56.3315 19.7176 56.2033 19.7432 56.1007 19.7005C55.9981 19.6579 55.9041 19.5555 55.8101 19.3762C55.7246 19.197 55.6904 19.0519 55.7246 18.9495C55.7588 18.8471 55.8528 18.7532 56.0152 18.6764L58.3231 17.5412C58.4855 17.4644 58.6138 17.4388 58.7249 17.4815C58.8275 17.5156 58.9215 17.6266 59.0155 17.8058C59.101 17.985 59.1352 18.1301 59.101 18.2326C59.0668 18.335 58.9728 18.4289 58.8104 18.5057L58.3659 18.719L60.6738 23.3961C60.9217 23.8997 61.0756 24.3776 61.1183 24.8129C61.161 25.2482 61.1183 25.6493 60.9815 26.0163C60.8448 26.3833 60.6225 26.7162 60.3062 27.0149C59.9985 27.3136 59.6053 27.5782 59.1523 27.8087C58.6907 28.0391 58.2462 28.1842 57.8188 28.2439C57.3914 28.3037 56.9897 28.2781 56.6136 28.1671C56.2374 28.0562 55.887 27.8428 55.5707 27.5441C55.2544 27.2454 54.9638 26.8357 54.7159 26.3321L52.408 21.6636L51.955 21.8855Z" fill="#132631"/>
<path d="M62.1697 17.1658L61.409 17.4303C61.238 17.4901 61.1012 17.4901 61.0072 17.4474C60.9046 17.3962 60.8277 17.2767 60.7593 17.0889C60.6909 16.9012 60.6824 16.7561 60.7337 16.6537C60.7764 16.5512 60.8875 16.4744 61.0585 16.4147L67.6147 14.153C67.7857 14.0932 67.9225 14.0932 68.0165 14.1359C68.1105 14.1871 68.196 14.3066 68.2644 14.4943L68.9226 16.3976C68.9824 16.5683 68.9824 16.7134 68.9311 16.8158C68.8713 16.9182 68.7431 17.0036 68.5294 17.0804C68.3157 17.1487 68.1618 17.1658 68.0507 17.1231C67.9396 17.0804 67.8541 16.9695 67.7942 16.7902L67.3156 15.399L63.3066 16.7817L64.264 19.5555L66.1359 18.9069L65.8966 18.2241C65.8368 18.0534 65.8368 17.9083 65.8881 17.8059C65.9393 17.7035 66.0761 17.6181 66.2898 17.5413C66.5035 17.4645 66.6574 17.4559 66.7685 17.4986C66.8796 17.5413 66.9651 17.6522 67.0249 17.8315L67.8455 20.2127C67.9054 20.3919 67.9054 20.5285 67.8541 20.6309C67.7942 20.7333 67.666 20.8187 67.4523 20.8955C67.2386 20.9638 67.0848 20.9808 66.9736 20.9382C66.8625 20.8955 66.777 20.7845 66.7172 20.6053L66.4779 19.9225L64.6059 20.5712L65.6658 23.6266L69.8286 22.1928L69.2388 20.4773C69.179 20.3066 69.179 20.1615 69.2303 20.0591C69.2816 19.9567 69.4183 19.8713 69.632 19.7945C69.8457 19.7262 69.9996 19.7091 70.1107 19.7518C70.2218 19.7945 70.2988 19.9054 70.3672 20.0847L71.1365 22.3037C71.2048 22.4915 71.2134 22.6366 71.1621 22.739C71.1194 22.8414 71.0082 22.9182 70.8373 22.978L64.1357 25.2909C63.9648 25.3507 63.828 25.3507 63.734 25.308C63.6314 25.2568 63.5545 25.1373 63.4861 24.9495C63.4177 24.7618 63.4092 24.6167 63.4605 24.5143C63.5032 24.4118 63.6143 24.335 63.7853 24.2753L64.546 24.0107L62.1697 17.1658Z" fill="#132631"/>
<path d="M70.7261 14.3407C70.5466 14.3748 70.4184 14.3663 70.3244 14.3065C70.2303 14.2383 70.1705 14.1102 70.1278 13.9139C70.085 13.7176 70.0936 13.5726 70.1534 13.4787C70.2132 13.3848 70.3329 13.3165 70.5039 13.2824L73.4101 12.6764C73.5896 12.6423 73.7179 12.6508 73.8119 12.7105C73.9059 12.7703 73.9658 12.8983 74.0085 13.0946C74.0512 13.2909 74.0427 13.436 73.9828 13.5299C73.923 13.6238 73.8033 13.692 73.6324 13.7262L72.5383 13.9566L76.3506 20.3065L77.308 12.958L76.5301 13.1202C76.3592 13.1629 76.2224 13.1458 76.1284 13.0861C76.0343 13.0263 75.9745 12.8983 75.9318 12.702C75.889 12.5057 75.8976 12.3606 75.9574 12.2667C76.0173 12.1728 76.1369 12.1046 76.3079 12.0704L78.8979 11.5242C79.0774 11.49 79.2056 11.4986 79.2996 11.5583C79.3937 11.6181 79.4535 11.7461 79.4962 11.9424C79.539 12.1387 79.5304 12.2838 79.4706 12.3777C79.4108 12.4716 79.2996 12.5484 79.1201 12.5825L78.5218 12.7105L77.3764 21.1088C77.3507 21.3051 77.2738 21.4502 77.1541 21.5612C77.0344 21.6636 76.8635 21.7404 76.6412 21.7916C76.419 21.8343 76.2309 21.8343 76.0856 21.7831C75.9403 21.7319 75.8121 21.6209 75.7095 21.4588L71.3074 14.2212L70.7261 14.3407Z" fill="#132631"/>
<path d="M84.1292 19.3335C84.3087 19.3165 84.4369 19.3506 84.5224 19.4189C84.6079 19.4957 84.6506 19.6323 84.6677 19.8286C84.6848 20.0249 84.6592 20.17 84.5908 20.2553C84.5224 20.3407 84.3942 20.3919 84.2147 20.4089L81.5734 20.6223C81.3939 20.6394 81.2657 20.6052 81.1802 20.537C81.0947 20.4687 81.0434 20.3321 81.0349 20.1273C81.0178 19.931 81.0434 19.7859 81.1118 19.7005C81.1802 19.6152 81.3084 19.564 81.4879 19.5469L81.9324 19.5128L83.9583 12.0789L82.4795 12.1984C82.3 12.2155 82.1718 12.1813 82.0863 12.1131C82.0008 12.0448 81.9495 11.9082 81.941 11.7034C81.9239 11.5071 81.9495 11.362 82.0179 11.2766C82.0863 11.1913 82.2145 11.1401 82.394 11.123L85.2917 10.884C85.5054 10.867 85.6764 10.8926 85.8132 10.9609C85.9499 11.0291 86.0525 11.1572 86.138 11.3279L89.5657 18.8812L90.0443 18.8385C90.2239 18.8215 90.3521 18.8556 90.4376 18.9239C90.523 18.9922 90.5743 19.1287 90.5829 19.3335C90.6 19.5298 90.5743 19.6749 90.5059 19.7603C90.4376 19.8456 90.3093 19.8968 90.1298 19.9139L87.3347 20.1444C87.1552 20.1614 87.0269 20.1273 86.9415 20.059C86.856 19.9907 86.8047 19.8542 86.7962 19.6493C86.7791 19.453 86.8047 19.3079 86.8731 19.2226C86.9415 19.1372 87.0697 19.086 87.2492 19.069L88.3177 18.9836L87.5142 17.1572L83.6847 17.4729L83.1804 19.4018L84.1292 19.3335ZM83.9583 16.372L87.0526 16.1159L85.2319 11.968L85.078 11.9765L83.9583 16.372Z" fill="#132631"/>
<path d="M92.7455 19.6494C92.7369 19.8371 92.6857 19.9652 92.6002 20.042C92.5061 20.1188 92.3523 20.1529 92.13 20.1444C91.9078 20.1359 91.7539 20.0932 91.6685 20.0078C91.583 19.9225 91.5488 19.7945 91.5573 19.6067L91.6599 17.234C91.6685 17.0462 91.7197 16.9182 91.8052 16.8414C91.8992 16.7646 92.0531 16.7304 92.2754 16.739C92.5061 16.7475 92.6515 16.867 92.7198 17.0889C92.9079 17.712 93.2327 18.1899 93.6943 18.5398C94.1473 18.8898 94.7286 19.0775 95.421 19.1031C95.7714 19.1202 96.0792 19.0946 96.3442 19.0263C96.6091 18.958 96.8314 18.8556 97.0109 18.7276C97.1904 18.5996 97.3272 18.4374 97.4297 18.2411C97.5238 18.0533 97.5836 17.84 97.5921 17.6095C97.6092 17.2596 97.5323 16.978 97.3613 16.7646C97.1904 16.5512 96.9681 16.372 96.6775 16.2354C96.4382 16.1245 96.1732 16.0306 95.8826 15.9538C95.5919 15.877 95.2842 15.8001 94.9765 15.7233C94.6688 15.6465 94.3525 15.5612 94.0448 15.4758C93.737 15.3905 93.4464 15.2795 93.1814 15.143C92.9934 15.0491 92.8139 14.9381 92.6515 14.8101C92.4891 14.6821 92.3608 14.537 92.2497 14.3663C92.1386 14.1956 92.0531 14.0078 91.9933 13.7859C91.9334 13.564 91.9163 13.3165 91.9249 13.0349C91.942 12.6252 92.036 12.2582 92.1984 11.9339C92.3694 11.6095 92.5916 11.3364 92.8737 11.123C93.1558 10.9011 93.4892 10.739 93.8738 10.6366C94.2585 10.5341 94.6688 10.4915 95.1218 10.5085C95.6005 10.5256 96.0535 10.6366 96.4724 10.8414C96.8912 11.0377 97.2502 11.2937 97.5323 11.6095L97.5494 11.123C97.5579 10.9353 97.6092 10.8073 97.6947 10.7304C97.7887 10.6536 97.9426 10.6195 98.1648 10.628C98.3871 10.6366 98.541 10.6792 98.6264 10.7646C98.7119 10.8499 98.7461 10.978 98.7376 11.1657L98.6606 12.9836C98.6521 13.1714 98.6008 13.2994 98.5153 13.3763C98.4213 13.4531 98.2674 13.4872 98.0452 13.4787C97.84 13.4701 97.7118 13.3933 97.6434 13.2568C97.4041 12.7532 97.0622 12.3691 96.6091 12.1046C96.1561 11.84 95.6432 11.6949 95.062 11.6693C94.4722 11.6437 94.0106 11.7632 93.6858 12.0277C93.3609 12.2923 93.19 12.6423 93.1729 13.0861C93.1643 13.3165 93.2156 13.5043 93.3267 13.6494C93.4379 13.803 93.5917 13.931 93.7798 14.0334C93.9849 14.1444 94.2328 14.2468 94.5064 14.3151C94.7884 14.3919 95.0791 14.4602 95.3868 14.537C95.6945 14.6138 96.0108 14.6906 96.3356 14.776C96.6604 14.8613 96.9681 14.9637 97.2588 15.0918C97.4896 15.1942 97.7118 15.3222 97.9084 15.4673C98.105 15.6124 98.276 15.7916 98.4213 15.9879C98.5666 16.1928 98.6692 16.4317 98.7461 16.6963C98.823 16.9694 98.8487 17.2767 98.8401 17.6351C98.823 18.0448 98.7376 18.4118 98.5752 18.7447C98.4127 19.0775 98.1905 19.3592 97.8999 19.5896C97.6092 19.8201 97.2502 19.9908 96.8228 20.1102C96.404 20.2297 95.9168 20.2724 95.3697 20.2553C94.8397 20.2297 94.3525 20.1188 93.908 19.9139C93.4635 19.7091 93.0874 19.4104 92.7711 19.0178L92.7455 19.6494Z" fill="#132631"/>
<path d="M111.269 22.133C111.217 22.3122 111.132 22.4232 111.029 22.4744C110.927 22.5256 110.764 22.5171 110.551 22.4573C110.337 22.3976 110.2 22.3122 110.14 22.2098C110.081 22.1074 110.072 21.9708 110.132 21.7916L110.816 19.5128C110.867 19.3336 110.952 19.2226 111.055 19.1714C111.158 19.1202 111.32 19.1287 111.534 19.1885C111.747 19.2568 111.867 19.4018 111.876 19.6408C111.91 20.2895 112.098 20.8357 112.457 21.2881C112.816 21.7404 113.329 22.0647 113.996 22.261C114.329 22.3634 114.637 22.4147 114.91 22.4061C115.184 22.4061 115.423 22.3634 115.628 22.2781C115.833 22.1927 116.013 22.0733 116.15 21.9111C116.286 21.7489 116.397 21.5612 116.466 21.3393C116.568 21.0064 116.56 20.7162 116.449 20.4687C116.338 20.2212 116.158 19.9908 115.91 19.7859C115.705 19.6238 115.474 19.4616 115.209 19.3165C114.944 19.1714 114.671 19.0178 114.389 18.8642C114.107 18.7105 113.825 18.5569 113.551 18.3947C113.278 18.2326 113.021 18.0533 112.799 17.8656C112.636 17.729 112.491 17.5754 112.371 17.4132C112.252 17.2511 112.158 17.0718 112.089 16.8841C112.021 16.6963 111.987 16.4829 111.987 16.261C111.987 16.0391 112.03 15.7916 112.106 15.5185C112.226 15.1259 112.406 14.793 112.645 14.5199C112.884 14.2468 113.175 14.042 113.5 13.8969C113.825 13.7518 114.192 13.6835 114.585 13.675C114.979 13.6664 115.397 13.7262 115.825 13.8542C116.286 13.9908 116.697 14.2127 117.056 14.5114C117.415 14.8101 117.697 15.143 117.893 15.5185L118.03 15.0576C118.081 14.8784 118.167 14.7674 118.269 14.7162C118.372 14.665 118.534 14.6735 118.748 14.7333C118.962 14.793 119.099 14.8784 119.158 14.9808C119.218 15.0832 119.227 15.2198 119.167 15.399L118.646 17.1401C118.594 17.3193 118.509 17.4303 118.406 17.4815C118.304 17.5327 118.141 17.5242 117.928 17.4644C117.731 17.4047 117.62 17.3023 117.594 17.1486C117.492 16.6024 117.252 16.1501 116.876 15.7831C116.509 15.4161 116.038 15.1515 115.483 14.9808C114.919 14.8101 114.44 14.8101 114.064 14.9808C113.679 15.1515 113.431 15.4502 113.303 15.877C113.235 16.0903 113.243 16.2866 113.312 16.4659C113.38 16.6366 113.491 16.7987 113.654 16.9523C113.825 17.1145 114.038 17.2681 114.295 17.4047C114.551 17.5498 114.816 17.6949 115.098 17.84C115.38 17.9851 115.662 18.1387 115.953 18.3009C116.244 18.463 116.517 18.6422 116.765 18.8385C116.97 19.0007 117.141 19.1714 117.304 19.3677C117.466 19.5555 117.586 19.7688 117.671 19.9993C117.757 20.2297 117.808 20.4858 117.816 20.7674C117.825 21.0491 117.774 21.3563 117.671 21.6977C117.551 22.0903 117.38 22.4232 117.141 22.7048C116.902 22.9865 116.611 23.2084 116.278 23.362C115.936 23.5156 115.543 23.5925 115.107 23.601C114.671 23.6095 114.184 23.5327 113.662 23.3791C113.158 23.2255 112.713 22.995 112.337 22.6878C111.961 22.3805 111.662 21.9964 111.457 21.5356L111.269 22.133Z" fill="#132631"/>
<path d="M120.321 20.409C120.62 19.7348 120.979 19.1715 121.407 18.702C121.834 18.2326 122.304 17.8827 122.808 17.6352C123.313 17.3962 123.851 17.2682 124.415 17.2596C124.98 17.2511 125.544 17.3791 126.116 17.6352C126.689 17.8912 127.159 18.2241 127.535 18.6423C127.911 19.0605 128.176 19.5385 128.339 20.0761C128.501 20.6138 128.553 21.1942 128.484 21.8258C128.424 22.4574 128.245 23.106 127.946 23.7717C127.646 24.446 127.287 25.0093 126.86 25.4787C126.433 25.9481 125.963 26.2981 125.458 26.537C124.954 26.776 124.415 26.904 123.851 26.904C123.287 26.9126 122.723 26.7845 122.15 26.5285C121.577 26.2725 121.107 25.9396 120.731 25.5214C120.355 25.1032 120.09 24.6252 119.928 24.0875C119.765 23.5498 119.714 22.9695 119.774 22.3379C119.834 21.7063 120.03 21.0833 120.321 20.409ZM121.466 20.9211C121.236 21.4417 121.09 21.9367 121.03 22.4147C120.971 22.8926 120.996 23.3194 121.099 23.7205C121.201 24.1217 121.381 24.4631 121.637 24.7703C121.894 25.069 122.227 25.3165 122.629 25.4872C123.031 25.6665 123.432 25.7518 123.826 25.7348C124.227 25.7262 124.603 25.6238 124.962 25.436C125.321 25.2483 125.663 24.9752 125.971 24.6082C126.287 24.2497 126.561 23.8059 126.792 23.2853C127.022 22.7646 127.168 22.2696 127.228 21.7917C127.287 21.3137 127.262 20.8784 127.159 20.4858C127.057 20.0932 126.877 19.7348 126.621 19.436C126.364 19.1373 126.031 18.8898 125.629 18.7191C125.227 18.5399 124.826 18.4545 124.432 18.4716C124.039 18.4887 123.655 18.5825 123.287 18.7789C122.928 18.9666 122.586 19.2483 122.27 19.6067C121.954 19.9652 121.706 20.4005 121.466 20.9211Z" fill="#132631"/>
<path d="M132.69 22.2951L131.587 21.6294C131.433 21.5355 131.339 21.4331 131.322 21.3307C131.296 21.2198 131.339 21.0832 131.442 20.9125C131.544 20.7418 131.647 20.6394 131.758 20.6138C131.861 20.5882 131.997 20.6138 132.151 20.7077L135.912 22.9779C136.066 23.0718 136.16 23.1742 136.177 23.2767C136.203 23.3876 136.16 23.5242 136.058 23.6949C135.955 23.8656 135.852 23.968 135.741 23.9936C135.63 24.0192 135.502 23.9936 135.348 23.8997L133.707 22.9097L129.954 29.1145L133.314 31.1373L134.664 28.9097C134.758 28.7475 134.869 28.6621 134.981 28.6365C135.092 28.6109 135.246 28.6621 135.442 28.7731C135.63 28.8841 135.741 29.0035 135.775 29.1145C135.81 29.2254 135.775 29.362 135.681 29.5242L134.057 32.2126C133.955 32.3833 133.844 32.4858 133.741 32.5114C133.639 32.537 133.502 32.5114 133.348 32.4175L127.279 28.756C127.125 28.6621 127.031 28.5597 127.014 28.4573C126.988 28.3464 127.031 28.2098 127.134 28.0391C127.236 27.8684 127.347 27.766 127.45 27.7404C127.552 27.7148 127.689 27.7404 127.843 27.8343L128.946 28.5L132.69 22.2951Z" fill="#132631"/>
<path d="M140.323 27.1003C140.186 26.9894 140.109 26.8784 140.092 26.7675C140.084 26.6565 140.135 26.5285 140.263 26.3663C140.391 26.2127 140.502 26.1188 140.614 26.1103C140.725 26.0932 140.853 26.1444 140.99 26.2554L143.007 27.8429C143.144 27.9538 143.221 28.0648 143.238 28.1757C143.246 28.2867 143.195 28.4147 143.067 28.5769C142.939 28.7305 142.827 28.8244 142.716 28.8329C142.605 28.85 142.477 28.7988 142.34 28.6878L141.639 28.1416L138.502 32.1103C138.246 32.4346 138.066 32.7333 137.955 33.015C137.844 33.2966 137.801 33.5612 137.827 33.8173C137.853 34.0733 137.947 34.3123 138.101 34.5427C138.263 34.7732 138.477 34.9951 138.759 35.217C139.041 35.4389 139.314 35.601 139.571 35.7035C139.827 35.8059 140.092 35.84 140.34 35.8059C140.588 35.7717 140.844 35.6693 141.092 35.4986C141.34 35.3279 141.588 35.0804 141.844 34.7561L144.982 30.7874L144.289 30.2412C144.144 30.1302 144.067 30.0192 144.058 29.9083C144.05 29.7973 144.101 29.6608 144.229 29.5072C144.349 29.3535 144.469 29.2596 144.58 29.2511C144.691 29.234 144.811 29.2853 144.956 29.3962L146.973 30.9837C147.11 31.0946 147.187 31.2056 147.204 31.3165C147.213 31.4275 147.161 31.5555 147.033 31.7177C146.905 31.8713 146.794 31.9652 146.683 31.9737C146.571 31.9908 146.443 31.9396 146.306 31.8286L145.922 31.5214L142.691 35.6096C142.34 36.0534 141.973 36.3862 141.597 36.6167C141.22 36.8471 140.836 36.9752 140.443 37.0093C140.049 37.0434 139.656 36.9837 139.246 36.8301C138.844 36.6764 138.434 36.446 138.032 36.1302C137.622 35.8059 137.306 35.473 137.066 35.1146C136.827 34.7561 136.682 34.3891 136.622 33.9965C136.562 33.6124 136.605 33.2027 136.741 32.7845C136.878 32.3663 137.118 31.9396 137.468 31.4958L140.699 27.4076L140.323 27.1003Z" fill="#132631"/>
<path d="M148.204 44.1103C147.606 43.9993 147.042 43.7945 146.512 43.5043C145.982 43.2141 145.512 42.8556 145.084 42.4204C144.648 41.9766 144.332 41.4986 144.144 40.9694C143.956 40.4488 143.887 39.9111 143.939 39.3649C143.99 38.8187 144.17 38.2639 144.46 37.7006C144.751 37.1458 145.161 36.6081 145.682 36.0875C146.204 35.5754 146.751 35.1743 147.315 34.8926C147.879 34.611 148.443 34.4488 149.008 34.4061C149.563 34.3635 150.102 34.4403 150.623 34.6366C151.145 34.8329 151.615 35.1401 152.034 35.5669C152.393 35.9339 152.649 36.3094 152.794 36.702C152.94 37.0946 152.991 37.4872 152.957 37.8884L153.282 37.564C153.41 37.436 153.538 37.3763 153.658 37.3763C153.777 37.3848 153.914 37.4616 154.068 37.6238C154.222 37.7859 154.307 37.9225 154.307 38.0335C154.316 38.1529 154.247 38.2724 154.119 38.4005L152.256 40.2354C152.128 40.3635 151.999 40.4232 151.88 40.4232C151.76 40.4232 151.623 40.3379 151.469 40.1757C151.316 40.0135 151.23 39.877 151.23 39.766C151.222 39.6465 151.29 39.5271 151.418 39.3905C151.606 39.2113 151.751 39.0064 151.854 38.776C151.965 38.5455 152.016 38.3066 152.016 38.0505C152.016 37.7945 151.957 37.5299 151.837 37.2568C151.717 36.9837 151.521 36.7106 151.256 36.4374C150.957 36.1302 150.615 35.9168 150.239 35.7803C149.862 35.6437 149.469 35.601 149.059 35.6437C148.649 35.6864 148.23 35.8229 147.802 36.0363C147.375 36.2497 146.965 36.5655 146.554 36.9666C146.144 37.3677 145.828 37.7774 145.597 38.1956C145.366 38.6138 145.221 39.0235 145.17 39.4161C145.118 39.8172 145.153 40.2013 145.272 40.5683C145.4 40.9353 145.606 41.2767 145.913 41.584C146.281 41.9595 146.691 42.2667 147.127 42.4972C147.563 42.7276 148.025 42.8727 148.503 42.941C148.64 42.9581 148.743 43.0178 148.828 43.1117C148.905 43.2056 148.922 43.3677 148.862 43.5896C148.811 43.7945 148.726 43.9396 148.614 44.0249C148.512 44.1103 148.367 44.1359 148.204 44.1103Z" fill="#132631"/>
<path d="M157.453 43.6579L156.214 42.0534C156.102 41.9083 156.06 41.7888 156.077 41.6778C156.094 41.5669 156.179 41.4559 156.342 41.3279C156.504 41.1999 156.632 41.1487 156.743 41.1657C156.855 41.1743 156.966 41.2596 157.068 41.3962L160.265 45.5527C160.376 45.6977 160.419 45.8172 160.402 45.9282C160.385 46.0391 160.299 46.1501 160.137 46.2781C159.975 46.4061 159.846 46.4574 159.735 46.4403C159.624 46.4232 159.513 46.3464 159.41 46.2098L158.171 44.6053L152.418 49.0178L153.752 50.7504C153.863 50.8955 153.906 51.015 153.888 51.1259C153.871 51.2369 153.786 51.3478 153.624 51.4758C153.461 51.5953 153.333 51.6551 153.222 51.638C153.111 51.6209 153 51.5441 152.897 51.4076L149.512 46.995C149.401 46.85 149.358 46.7305 149.375 46.6195C149.392 46.5086 149.478 46.3976 149.64 46.2696C149.803 46.1416 149.931 46.0904 150.042 46.1074C150.153 46.116 150.264 46.2013 150.367 46.3379L151.7 48.0704L157.453 43.6579Z" fill="#132631"/>
<path d="M158.35 50.9382C158.983 50.5712 159.607 50.3151 160.231 50.1871C160.855 50.0591 161.436 50.042 161.992 50.1359C162.547 50.2383 163.052 50.4431 163.513 50.7675C163.975 51.0918 164.36 51.5271 164.676 52.0648C164.992 52.6025 165.18 53.1487 165.24 53.712C165.3 54.2753 165.231 54.813 165.052 55.3507C164.864 55.8798 164.565 56.3834 164.154 56.8613C163.736 57.3393 163.214 57.7575 162.582 58.133C161.949 58.5 161.317 58.7561 160.701 58.8841C160.086 59.0121 159.496 59.0292 158.949 58.9268C158.393 58.8244 157.889 58.611 157.427 58.2867C156.966 57.9623 156.581 57.5271 156.265 56.9894C155.948 56.4517 155.76 55.9054 155.701 55.3421C155.641 54.7788 155.701 54.2411 155.889 53.712C156.068 53.1828 156.367 52.6793 156.786 52.2013C157.196 51.7404 157.718 51.3137 158.35 50.9382ZM158.983 52.0221C158.487 52.3123 158.085 52.6281 157.761 52.978C157.436 53.3279 157.205 53.6949 157.051 54.079C156.906 54.4631 156.846 54.8471 156.88 55.2397C156.914 55.6323 157.043 56.0249 157.265 56.4005C157.487 56.776 157.761 57.0747 158.094 57.3052C158.427 57.5271 158.795 57.6722 159.197 57.7234C159.598 57.7831 160.034 57.7575 160.505 57.6466C160.966 57.5356 161.445 57.3393 161.941 57.0491C162.436 56.7589 162.838 56.4431 163.163 56.0932C163.488 55.7433 163.727 55.3763 163.872 54.9922C164.026 54.6081 164.078 54.2241 164.052 53.8229C164.018 53.4303 163.889 53.0377 163.667 52.6622C163.445 52.2867 163.171 51.9879 162.838 51.7575C162.505 51.5356 162.137 51.399 161.735 51.3393C161.334 51.2796 160.889 51.3137 160.428 51.4246C159.957 51.5356 159.479 51.7319 158.983 52.0221Z" fill="#132631"/>
<path d="M167.001 58.9951L166.762 58.4318C166.693 58.2696 166.676 58.133 166.719 58.0306C166.762 57.9282 166.873 57.8429 167.061 57.7575C167.249 57.6807 167.386 57.6551 167.488 57.6978C167.591 57.7404 167.676 57.8429 167.745 58.005L168.446 59.6352C168.531 59.8315 168.522 60.0022 168.42 60.1387L163.719 66.2326L169.112 63.9282L168.745 63.0747C168.676 62.9125 168.659 62.776 168.702 62.6736C168.745 62.5712 168.856 62.4858 169.044 62.4005C169.232 62.3236 169.369 62.298 169.471 62.3407C169.574 62.3834 169.659 62.4858 169.736 62.648L170.745 65.0036C170.813 65.1658 170.83 65.3023 170.788 65.4047C170.745 65.5071 170.634 65.5925 170.446 65.6778C170.258 65.7547 170.121 65.7803 170.018 65.7376C169.916 65.6949 169.83 65.5925 169.762 65.4303L169.582 65.0121L162.188 68.17C162.06 68.2212 161.941 68.2212 161.821 68.17C161.701 68.1188 161.607 67.9993 161.522 67.803C161.462 67.6579 161.445 67.5299 161.479 67.4019C161.505 67.2739 161.573 67.1458 161.667 67.0178L166.804 60.3521L160.795 62.9211L161.223 63.9197C161.291 64.0818 161.308 64.2184 161.265 64.3208C161.223 64.4232 161.111 64.5086 160.923 64.5939C160.735 64.6707 160.599 64.6963 160.496 64.6537C160.393 64.611 160.308 64.5086 160.24 64.3464L159.137 61.7689C159.068 61.6067 159.051 61.4702 159.094 61.3677C159.137 61.2653 159.248 61.18 159.436 61.0946C159.624 61.0178 159.761 60.9922 159.863 61.0349C159.966 61.0776 160.051 61.18 160.12 61.3421L160.334 61.8286L167.001 58.9951Z" fill="#132631"/>
<path d="M170.924 68.8954L170.702 68.1188C170.651 67.9481 170.659 67.8115 170.711 67.7176C170.762 67.6237 170.89 67.5469 171.087 67.4957C171.283 67.4445 171.429 67.436 171.523 67.4872C171.617 67.5384 171.694 67.6493 171.745 67.82L173.651 74.4772C173.702 74.6479 173.694 74.7845 173.643 74.8784C173.591 74.9722 173.463 75.0491 173.267 75.1003L171.326 75.655C171.147 75.7062 171.01 75.6977 170.907 75.638C170.805 75.5782 170.728 75.4417 170.668 75.2283C170.608 75.0149 170.6 74.8528 170.659 74.7503C170.711 74.6479 170.83 74.5626 171.001 74.5199L172.42 74.1188L171.258 70.0476L168.428 70.8584L168.975 72.7617L169.668 72.5654C169.847 72.5142 169.984 72.5227 170.087 72.5825C170.189 72.6422 170.266 72.7788 170.326 72.9922C170.386 73.2055 170.394 73.3677 170.343 73.4701C170.292 73.5725 170.172 73.6579 170.001 73.7006L167.574 74.3919C167.394 74.4431 167.257 74.4345 167.155 74.3748C167.052 74.3151 166.975 74.1785 166.915 73.9651C166.856 73.7518 166.847 73.5896 166.907 73.4872C166.958 73.3848 167.078 73.3079 167.249 73.2567L167.941 73.0604L167.394 71.1572L164.283 72.0448L165.496 76.2695L167.24 75.7745C167.42 75.7233 167.557 75.7318 167.659 75.7916C167.762 75.8513 167.839 75.9879 167.898 76.2013C167.958 76.4146 167.967 76.5768 167.916 76.6792C167.864 76.7816 167.745 76.867 167.574 76.9096L165.308 77.5583C165.112 77.6095 164.967 77.618 164.872 77.5668C164.778 77.5156 164.702 77.4047 164.65 77.234L162.701 70.4232C162.65 70.2525 162.659 70.1159 162.71 70.022C162.761 69.9281 162.889 69.8513 163.086 69.8001C163.283 69.7489 163.428 69.7404 163.522 69.7916C163.616 69.8428 163.693 69.9538 163.744 70.1244L163.966 70.9011L170.924 68.8954Z" fill="#132631"/>
<path d="M165.676 80.6053C165.496 80.6309 165.36 80.6138 165.266 80.537C165.172 80.4602 165.112 80.3151 165.078 80.0932C165.043 79.8713 165.061 79.7176 165.129 79.6152C165.197 79.5213 165.317 79.4531 165.496 79.4275L167.847 79.069C168.027 79.0434 168.172 79.0605 168.257 79.1373C168.351 79.2141 168.411 79.3592 168.446 79.5811C168.48 79.803 168.394 79.9737 168.189 80.0846C167.616 80.3919 167.206 80.8016 166.95 81.3137C166.693 81.8258 166.625 82.4317 166.727 83.1145C166.779 83.4559 166.864 83.7546 166.984 84.0021C167.103 84.2497 167.24 84.4459 167.411 84.5996C167.582 84.7532 167.762 84.8556 167.967 84.9154C168.172 84.9751 168.394 84.9836 168.625 84.9495C168.967 84.8983 169.232 84.7703 169.411 84.5569C169.591 84.3521 169.719 84.096 169.796 83.7802C169.856 83.5242 169.899 83.2425 169.924 82.9438C169.941 82.6451 169.958 82.3293 169.976 82.0135C169.993 81.6892 170.01 81.3734 170.035 81.0576C170.061 80.7418 170.112 80.4346 170.189 80.1529C170.241 79.9481 170.318 79.7518 170.412 79.5725C170.506 79.3933 170.625 79.2312 170.771 79.0861C170.916 78.941 171.087 78.8215 171.292 78.7276C171.497 78.6252 171.736 78.5569 172.01 78.5142C172.42 78.4545 172.796 78.4716 173.147 78.574C173.497 78.6764 173.805 78.8386 174.079 79.0775C174.352 79.3165 174.574 79.6067 174.745 79.9566C174.916 80.3065 175.044 80.7077 175.113 81.1515C175.181 81.6294 175.164 82.0903 175.053 82.5427C174.942 82.995 174.754 83.3876 174.506 83.729L174.985 83.6522C175.164 83.6266 175.309 83.6437 175.395 83.7205C175.48 83.7973 175.549 83.9424 175.583 84.1643C175.617 84.3862 175.6 84.5398 175.54 84.6423C175.472 84.7361 175.352 84.8044 175.164 84.83L173.361 85.1117C173.181 85.1373 173.036 85.1202 172.95 85.0434C172.856 84.9666 172.796 84.8215 172.762 84.5996C172.728 84.4033 172.779 84.2582 172.908 84.1643C173.352 83.8314 173.66 83.4218 173.839 82.9353C174.019 82.4488 174.053 81.9111 173.967 81.3393C173.873 80.7589 173.668 80.3322 173.352 80.059C173.036 79.7945 172.651 79.692 172.215 79.7603C171.993 79.7945 171.813 79.8798 171.685 80.0164C171.557 80.1529 171.463 80.3236 171.395 80.537C171.326 80.7589 171.275 81.0149 171.258 81.3051C171.241 81.5953 171.224 81.894 171.206 82.2098C171.189 82.5256 171.181 82.8499 171.155 83.1828C171.13 83.5157 171.087 83.8314 171.018 84.1472C170.959 84.3947 170.882 84.6337 170.771 84.8556C170.668 85.0775 170.531 85.2824 170.352 85.4616C170.181 85.6408 169.967 85.7945 169.719 85.9225C169.471 86.0505 169.172 86.1359 168.822 86.1956C168.42 86.2553 168.035 86.2383 167.676 86.1529C167.317 86.0676 166.992 85.8969 166.71 85.6494C166.428 85.4104 166.189 85.0861 165.992 84.702C165.796 84.3094 165.659 83.8485 165.573 83.3108C165.496 82.7902 165.514 82.2866 165.633 81.8172C165.753 81.3393 165.975 80.9125 166.291 80.5285L165.676 80.6053Z" fill="#132631"/>
<path d="M170.959 119.959L171.283 119.055C171.343 118.884 171.429 118.782 171.523 118.73C171.625 118.688 171.771 118.696 171.959 118.765C172.147 118.833 172.266 118.918 172.318 119.012C172.369 119.115 172.36 119.243 172.301 119.413L170.95 123.143C170.788 123.587 170.591 123.962 170.352 124.261C170.112 124.56 169.847 124.782 169.557 124.927C169.266 125.08 168.95 125.157 168.608 125.166C168.266 125.174 167.924 125.115 167.565 124.987C167.18 124.85 166.873 124.637 166.642 124.363C166.42 124.082 166.274 123.757 166.206 123.382C165.847 123.851 165.428 124.15 164.958 124.304C164.488 124.449 163.966 124.423 163.411 124.218C163.018 124.073 162.693 123.886 162.428 123.647C162.163 123.408 161.966 123.126 161.829 122.802C161.693 122.477 161.641 122.119 161.65 121.726C161.659 121.325 161.753 120.898 161.915 120.446L163.436 116.221C163.496 116.051 163.582 115.948 163.676 115.897C163.778 115.854 163.924 115.863 164.112 115.931C164.3 115.999 164.419 116.085 164.471 116.179C164.522 116.281 164.513 116.409 164.454 116.58L164.129 117.484L170.959 119.959ZM163.018 120.591C162.795 121.214 162.753 121.735 162.898 122.153C163.043 122.571 163.36 122.87 163.838 123.041C164.864 123.408 165.599 122.972 166.052 121.726L166.779 119.712L163.727 118.611L163.018 120.591ZM167.24 121.624C167.027 122.213 166.992 122.691 167.129 123.058C167.266 123.433 167.548 123.698 167.992 123.851C168.446 124.014 168.839 123.996 169.181 123.792C169.523 123.595 169.796 123.194 170.01 122.614L170.565 121.069L167.804 120.079L167.24 121.624Z" fill="#132631"/>
<path d="M166.163 131.533L167.086 129.723C167.163 129.561 167.266 129.467 167.369 129.433C167.471 129.399 167.616 129.433 167.796 129.519C167.975 129.604 168.078 129.706 168.121 129.809C168.163 129.911 168.129 130.048 168.052 130.201L165.667 134.87C165.582 135.032 165.488 135.126 165.385 135.16C165.283 135.194 165.138 135.16 164.958 135.075C164.779 134.981 164.676 134.887 164.633 134.785C164.599 134.682 164.616 134.546 164.702 134.392L165.625 132.583L159.163 129.288L158.171 131.234C158.086 131.396 157.991 131.49 157.889 131.524C157.786 131.558 157.641 131.524 157.462 131.439C157.282 131.345 157.179 131.251 157.137 131.149C157.094 131.046 157.12 130.91 157.205 130.756L159.735 125.806C159.821 125.644 159.915 125.55 160.017 125.516C160.12 125.482 160.265 125.516 160.445 125.601C160.624 125.695 160.727 125.789 160.77 125.891C160.812 125.994 160.778 126.13 160.701 126.284L159.71 128.23L166.163 131.533Z" fill="#132631"/>
<path d="M162.223 138.6L162.718 137.866C162.821 137.72 162.924 137.635 163.035 137.618C163.146 137.601 163.283 137.644 163.445 137.763C163.607 137.874 163.701 137.985 163.727 138.096C163.753 138.207 163.71 138.335 163.607 138.48L162.026 140.802C161.923 140.947 161.821 141.032 161.71 141.049C161.599 141.066 161.462 141.023 161.299 140.904C161.137 140.793 161.043 140.682 161.017 140.571C160.992 140.46 161.034 140.332 161.137 140.187L161.547 139.581L158.786 137.703L159.616 142.423L159.915 141.979C160.017 141.834 160.12 141.749 160.231 141.732C160.342 141.715 160.479 141.757 160.641 141.877C160.804 141.988 160.898 142.099 160.923 142.21C160.949 142.321 160.906 142.449 160.804 142.594L159.359 144.719C159.257 144.864 159.154 144.949 159.043 144.967C158.932 144.984 158.795 144.941 158.633 144.821C158.462 144.711 158.376 144.6 158.35 144.489C158.325 144.378 158.368 144.25 158.47 144.105L158.727 143.729L157.957 139.154C157.778 139.462 157.547 139.718 157.282 139.914C157.008 140.102 156.675 140.213 156.273 140.247C156.025 140.255 155.778 140.247 155.513 140.213C155.248 140.179 154.991 140.127 154.735 140.068C154.478 140.008 154.23 139.957 153.991 139.897C153.752 139.837 153.529 139.803 153.333 139.786C153.136 139.769 152.965 139.777 152.811 139.812C152.666 139.846 152.546 139.931 152.461 140.059L152.333 140.238C152.23 140.383 152.128 140.469 152.016 140.486C151.905 140.503 151.769 140.46 151.606 140.341C151.444 140.221 151.35 140.119 151.324 140.008C151.298 139.897 151.341 139.769 151.444 139.624L151.811 139.086C151.948 138.89 152.145 138.745 152.41 138.642C152.675 138.54 153.034 138.523 153.487 138.583C153.718 138.617 153.957 138.659 154.196 138.711C154.436 138.762 154.675 138.821 154.906 138.881C155.136 138.941 155.367 138.984 155.59 139.026C155.812 139.069 156.025 139.086 156.222 139.078C156.444 139.078 156.649 139.026 156.837 138.924C157.026 138.821 157.188 138.668 157.325 138.463C157.444 138.284 157.53 138.087 157.59 137.874C157.65 137.661 157.65 137.439 157.607 137.217L157.547 136.893L155.53 135.518L154.812 136.577C154.709 136.722 154.606 136.807 154.495 136.824C154.384 136.841 154.247 136.799 154.085 136.679C153.923 136.568 153.829 136.457 153.803 136.346C153.777 136.235 153.82 136.107 153.923 135.962L155.812 133.188C155.914 133.043 156.017 132.958 156.128 132.941C156.239 132.924 156.376 132.967 156.538 133.086C156.701 133.197 156.795 133.308 156.82 133.419C156.846 133.53 156.803 133.658 156.701 133.803L156.205 134.537L162.223 138.6Z" fill="#132631"/>
<path d="M154.307 143.601C154.863 144.088 155.29 144.6 155.615 145.146C155.94 145.692 156.137 146.247 156.214 146.802C156.29 147.356 156.248 147.903 156.085 148.44C155.923 148.978 155.632 149.482 155.222 149.951C154.812 150.42 154.35 150.77 153.837 151.001C153.324 151.231 152.786 151.342 152.222 151.334C151.657 151.325 151.085 151.197 150.503 150.95C149.922 150.702 149.35 150.344 148.802 149.857C148.255 149.371 147.819 148.858 147.495 148.312C147.178 147.766 146.982 147.211 146.896 146.665C146.819 146.11 146.862 145.564 147.025 145.026C147.187 144.489 147.478 143.985 147.888 143.516C148.298 143.046 148.76 142.696 149.273 142.466C149.785 142.235 150.324 142.124 150.88 142.133C151.444 142.142 152.016 142.27 152.598 142.509C153.196 142.756 153.76 143.123 154.307 143.601ZM153.487 144.54C153.059 144.164 152.623 143.874 152.187 143.678C151.751 143.482 151.333 143.371 150.922 143.354C150.512 143.336 150.127 143.405 149.76 143.558C149.392 143.712 149.067 143.959 148.777 144.284C148.486 144.608 148.29 144.967 148.178 145.351C148.067 145.735 148.05 146.127 148.127 146.528C148.196 146.93 148.358 147.331 148.614 147.74C148.862 148.15 149.204 148.543 149.632 148.918C150.059 149.294 150.495 149.584 150.931 149.78C151.367 149.977 151.786 150.088 152.196 150.105C152.606 150.13 152.991 150.062 153.359 149.9C153.726 149.746 154.051 149.499 154.342 149.174C154.632 148.85 154.829 148.491 154.94 148.107C155.051 147.723 155.068 147.331 154.991 146.93C154.914 146.528 154.752 146.119 154.504 145.718C154.256 145.308 153.914 144.924 153.487 144.54Z" fill="#132631"/>
<path d="M141.477 160.995L141.981 160.654C142.127 160.551 142.255 160.509 142.366 160.534C142.469 160.56 142.588 160.654 142.699 160.816C142.81 160.978 142.862 161.115 142.845 161.225C142.828 161.336 142.742 161.439 142.597 161.541L141.135 162.54C140.956 162.659 140.793 162.685 140.639 162.608L133.741 159.194L137.058 164.025L137.818 163.504C137.964 163.402 138.092 163.359 138.203 163.385C138.314 163.41 138.425 163.504 138.537 163.666C138.648 163.829 138.699 163.965 138.682 164.076C138.665 164.187 138.579 164.289 138.434 164.392L136.314 165.843C136.169 165.945 136.041 165.988 135.929 165.962C135.818 165.937 135.707 165.843 135.596 165.681C135.485 165.518 135.434 165.382 135.451 165.271C135.468 165.16 135.553 165.058 135.699 164.955L136.075 164.699L131.527 158.076C131.45 157.965 131.425 157.846 131.459 157.718C131.485 157.59 131.587 157.47 131.758 157.359C131.886 157.274 132.014 157.231 132.143 157.231C132.271 157.231 132.408 157.274 132.553 157.342L140.101 161.072L136.408 155.686L135.511 156.301C135.365 156.403 135.237 156.446 135.126 156.42C135.015 156.395 134.904 156.301 134.793 156.139C134.681 155.977 134.63 155.84 134.647 155.729C134.664 155.618 134.75 155.516 134.895 155.413L137.212 153.826C137.357 153.723 137.485 153.681 137.596 153.706C137.707 153.732 137.818 153.826 137.93 153.988C138.041 154.15 138.092 154.287 138.075 154.398C138.058 154.509 137.972 154.611 137.827 154.713L137.391 155.012L141.477 160.995Z" fill="#132631"/>
<path d="M133.314 166.372C133.476 166.287 133.604 166.27 133.707 166.304C133.81 166.338 133.912 166.449 133.998 166.628C134.083 166.807 134.117 166.952 134.092 167.055C134.057 167.157 133.963 167.251 133.801 167.336L131.519 168.514C131.356 168.6 131.228 168.617 131.125 168.583C131.023 168.548 130.92 168.437 130.835 168.258C130.741 168.079 130.715 167.934 130.741 167.831C130.775 167.729 130.869 167.635 131.031 167.55L131.818 167.14L129.501 162.651C129.313 162.284 129.117 161.994 128.903 161.78C128.689 161.567 128.467 161.413 128.228 161.336C127.988 161.26 127.732 161.243 127.45 161.294C127.176 161.345 126.877 161.447 126.561 161.618C126.245 161.789 125.98 161.959 125.783 162.156C125.586 162.352 125.45 162.574 125.373 162.813C125.296 163.06 125.287 163.325 125.339 163.624C125.39 163.923 125.518 164.247 125.706 164.614L128.023 169.103L128.809 168.693C128.971 168.608 129.1 168.591 129.202 168.625C129.305 168.659 129.407 168.77 129.493 168.95C129.587 169.129 129.612 169.274 129.587 169.376C129.553 169.479 129.459 169.573 129.296 169.658L127.014 170.836C126.852 170.921 126.723 170.938 126.621 170.904C126.518 170.87 126.416 170.759 126.33 170.58C126.245 170.4 126.21 170.255 126.236 170.153C126.27 170.051 126.364 169.957 126.527 169.871L126.963 169.649L124.578 165.015C124.321 164.511 124.159 164.042 124.108 163.607C124.056 163.171 124.091 162.77 124.227 162.395C124.356 162.028 124.578 161.686 124.886 161.379C125.193 161.072 125.569 160.799 126.031 160.568C126.493 160.329 126.937 160.176 127.356 160.107C127.775 160.039 128.185 160.056 128.561 160.167C128.937 160.278 129.288 160.474 129.613 160.773C129.937 161.072 130.228 161.464 130.493 161.968L132.878 166.602L133.314 166.372Z" fill="#132631"/>
<path d="M123.202 171.254L123.962 170.972C124.133 170.913 124.262 170.904 124.364 170.955C124.467 171.006 124.544 171.126 124.612 171.314C124.68 171.501 124.689 171.647 124.646 171.749C124.603 171.851 124.492 171.928 124.321 171.996L117.808 174.369C117.637 174.429 117.509 174.437 117.406 174.386C117.304 174.335 117.227 174.224 117.158 174.028L116.466 172.142C116.406 171.971 116.397 171.826 116.449 171.723C116.5 171.621 116.637 171.527 116.842 171.45C117.047 171.373 117.21 171.356 117.321 171.399C117.432 171.442 117.517 171.553 117.577 171.723L118.081 173.106L122.065 171.655L121.056 168.898L119.193 169.581L119.441 170.255C119.5 170.426 119.509 170.571 119.458 170.674C119.406 170.776 119.27 170.87 119.064 170.947C118.859 171.023 118.697 171.041 118.586 170.998C118.475 170.955 118.389 170.844 118.329 170.674L117.466 168.309C117.406 168.139 117.398 167.994 117.449 167.891C117.5 167.789 117.637 167.695 117.842 167.618C118.047 167.541 118.21 167.524 118.321 167.567C118.432 167.61 118.517 167.72 118.577 167.891L118.825 168.565L120.689 167.883L119.577 164.844L115.44 166.355L116.064 168.062C116.124 168.233 116.132 168.378 116.081 168.48C116.03 168.583 115.893 168.676 115.688 168.753C115.483 168.83 115.32 168.847 115.209 168.804C115.098 168.762 115.013 168.651 114.953 168.48L114.141 166.27C114.072 166.082 114.064 165.937 114.107 165.834C114.149 165.732 114.26 165.655 114.431 165.587L121.09 163.154C121.261 163.095 121.389 163.086 121.492 163.137C121.595 163.188 121.672 163.299 121.74 163.496C121.808 163.684 121.817 163.829 121.774 163.931C121.731 164.033 121.62 164.11 121.458 164.179L120.697 164.452L123.202 171.254Z" fill="#132631"/>
<path d="M114.688 174.241C114.867 174.198 114.996 174.207 115.09 174.275C115.184 174.335 115.252 174.463 115.295 174.659C115.338 174.856 115.329 175.001 115.278 175.095C115.218 175.188 115.107 175.257 114.927 175.299L112.038 175.957C111.859 175.999 111.73 175.991 111.636 175.922C111.542 175.863 111.474 175.735 111.431 175.538C111.388 175.342 111.397 175.197 111.448 175.103C111.508 175.009 111.619 174.941 111.799 174.898L112.893 174.651L108.969 168.361L108.14 175.726L108.91 175.547C109.089 175.504 109.217 175.521 109.311 175.581C109.405 175.641 109.474 175.769 109.516 175.965C109.559 176.161 109.551 176.307 109.499 176.4C109.44 176.494 109.328 176.563 109.149 176.605L106.567 177.194C106.388 177.237 106.26 177.228 106.166 177.16C106.072 177.1 106.003 176.972 105.961 176.776C105.918 176.58 105.926 176.435 105.978 176.341C106.037 176.247 106.149 176.179 106.328 176.136L106.926 175.999L107.927 167.584C107.952 167.388 108.021 167.234 108.14 167.132C108.26 167.021 108.422 166.944 108.645 166.893C108.867 166.841 109.055 166.841 109.2 166.893C109.345 166.935 109.474 167.046 109.576 167.217L114.107 174.369L114.688 174.241Z" fill="#132631"/>
<path d="M101.191 169.487C101.011 169.504 100.883 169.479 100.798 169.41C100.712 169.342 100.661 169.206 100.644 169.001C100.627 168.804 100.644 168.659 100.712 168.574C100.78 168.489 100.9 168.437 101.08 168.42L103.712 168.156C103.892 168.139 104.02 168.164 104.106 168.233C104.191 168.301 104.242 168.437 104.259 168.642C104.277 168.839 104.259 168.984 104.191 169.069C104.123 169.154 104.003 169.206 103.824 169.223L103.379 169.265L101.481 176.733L102.96 176.588C103.14 176.571 103.268 176.597 103.353 176.665C103.439 176.733 103.49 176.87 103.507 177.075C103.524 177.271 103.507 177.416 103.439 177.501C103.37 177.587 103.242 177.638 103.071 177.655L100.174 177.945C99.9599 177.962 99.7889 177.945 99.6522 177.877C99.5154 177.809 99.4043 177.689 99.3273 177.51L95.7714 170.016L95.2927 170.068C95.1132 170.085 94.985 170.059 94.8995 169.991C94.8141 169.922 94.7628 169.786 94.7457 169.581C94.7286 169.385 94.7542 169.24 94.8226 169.154C94.891 169.069 95.0107 169.018 95.1902 169.001L97.9853 168.728C98.1648 168.711 98.293 168.736 98.3785 168.804C98.464 168.873 98.5153 169.009 98.5324 169.214C98.5495 169.41 98.5324 169.555 98.464 169.641C98.3956 169.726 98.2759 169.777 98.0964 169.794L97.028 169.897L97.8571 171.706L101.687 171.331L102.157 169.393L101.191 169.487ZM101.413 172.44L98.3187 172.747L100.208 176.861L100.362 176.844L101.413 172.44Z" fill="#132631"/>
<path d="M92.5574 169.317C92.5574 169.129 92.6087 169.001 92.6942 168.924C92.7797 168.847 92.9421 168.813 93.1643 168.813C93.3866 168.821 93.5404 168.864 93.6259 168.941C93.7114 169.018 93.7541 169.154 93.7456 169.342L93.6857 171.715C93.6857 171.903 93.6345 172.031 93.549 172.107C93.4635 172.184 93.3011 172.218 93.0788 172.218C92.8481 172.21 92.7027 172.099 92.6258 171.877C92.4207 171.262 92.0958 170.784 91.6257 170.443C91.1641 170.102 90.5829 169.922 89.8819 169.914C89.5315 169.905 89.2237 169.94 88.9673 170.008C88.7023 170.076 88.4801 170.187 88.3091 170.324C88.1296 170.46 87.9928 170.622 87.8988 170.819C87.8048 171.015 87.7535 171.22 87.745 171.459C87.7364 171.809 87.8133 172.09 87.9928 172.295C88.1724 172.5 88.3946 172.679 88.6938 172.807C88.9331 172.91 89.1981 173.004 89.4973 173.08C89.7965 173.157 90.0956 173.225 90.4119 173.294C90.7282 173.362 91.0359 173.439 91.3436 173.524C91.6513 173.61 91.942 173.712 92.207 173.84C92.4036 173.925 92.5745 174.036 92.7369 174.164C92.8993 174.292 93.0361 174.437 93.1472 174.6C93.2584 174.77 93.3524 174.958 93.4122 175.18C93.472 175.393 93.4977 175.649 93.4891 175.931C93.4806 176.341 93.3951 176.708 93.2327 177.041C93.0703 177.373 92.848 177.638 92.5745 177.86C92.2924 178.082 91.9676 178.252 91.583 178.363C91.1983 178.474 90.788 178.526 90.335 178.517C89.8563 178.509 89.4032 178.406 88.9759 178.21C88.5485 178.014 88.1894 177.766 87.8988 177.459L87.8903 177.945C87.8817 178.133 87.839 178.261 87.745 178.338C87.6595 178.415 87.4971 178.449 87.2748 178.449C87.0526 178.44 86.8987 178.398 86.8132 178.321C86.7278 178.244 86.685 178.107 86.6936 177.92L86.7363 176.102C86.7363 175.914 86.7876 175.786 86.8731 175.709C86.9586 175.632 87.121 175.598 87.3432 175.598C87.5484 175.607 87.6766 175.675 87.7535 175.812C88.0014 176.307 88.3519 176.682 88.8049 176.947C89.2579 177.211 89.7794 177.339 90.3606 177.356C90.9504 177.373 91.412 177.245 91.7283 176.981C92.0531 176.716 92.2155 176.358 92.2241 175.914C92.2326 175.684 92.1728 175.496 92.0616 175.351C91.9505 175.206 91.7967 175.078 91.6001 174.975C91.3949 174.864 91.147 174.77 90.8649 174.702C90.5829 174.634 90.2922 174.565 89.976 174.497C89.6682 174.429 89.352 174.352 89.0271 174.275C88.7023 174.198 88.3946 174.096 88.104 173.968C87.8646 173.866 87.6509 173.746 87.4458 173.601C87.2406 173.456 87.0697 173.285 86.9244 173.089C86.779 172.884 86.6679 172.654 86.5825 172.381C86.5055 172.116 86.4628 171.8 86.4713 171.45C86.4799 171.041 86.5654 170.674 86.7192 170.332C86.8731 169.991 87.0953 169.709 87.3859 169.47C87.6766 169.231 88.027 169.052 88.4544 168.932C88.8818 168.813 89.3605 168.753 89.899 168.762C90.429 168.779 90.9162 168.881 91.3607 169.086C91.8052 169.291 92.1899 169.581 92.5147 169.965L92.5574 169.317Z" fill="#132631"/>
<path d="M74 167.149C74.0513 166.969 74.1282 166.858 74.2308 166.807C74.3334 166.756 74.4958 166.756 74.7095 166.816C74.9232 166.876 75.0599 166.952 75.1198 167.055C75.1796 167.157 75.1882 167.294 75.1369 167.473L74.4958 169.76C74.4445 169.94 74.3676 170.051 74.265 170.11C74.1624 170.161 74 170.161 73.7863 170.102C73.5641 170.042 73.4529 169.888 73.4358 169.658C73.3931 169.009 73.188 168.463 72.8289 168.019C72.4614 167.575 71.9485 167.26 71.2732 167.072C70.9399 166.978 70.6321 166.935 70.3586 166.935C70.0851 166.944 69.8457 166.986 69.6406 167.072C69.4354 167.157 69.2645 167.285 69.1192 167.447C68.9824 167.61 68.8798 167.806 68.8114 168.028C68.7174 168.361 68.726 168.651 68.8456 168.898C68.9653 169.146 69.1448 169.368 69.3927 169.573C69.5978 169.735 69.8372 169.888 70.1022 170.033C70.3671 170.179 70.6492 170.324 70.9313 170.469C71.2134 170.614 71.504 170.767 71.7776 170.921C72.0596 171.075 72.3075 171.245 72.5383 171.442C72.7007 171.578 72.846 171.723 72.9743 171.885C73.1025 172.048 73.1965 172.218 73.2649 172.415C73.3333 172.602 73.376 172.816 73.376 173.038C73.3846 173.268 73.3418 173.516 73.2734 173.78C73.1623 174.173 72.9914 174.514 72.752 174.787C72.5127 175.06 72.2306 175.274 71.9058 175.427C71.5809 175.573 71.2219 175.658 70.8202 175.666C70.427 175.684 70.0081 175.624 69.5722 175.504C69.1106 175.376 68.7003 175.163 68.3327 174.873C67.9737 174.583 67.6831 174.25 67.478 173.883L67.3497 174.344C67.2985 174.523 67.2215 174.634 67.119 174.693C67.0164 174.753 66.854 174.745 66.6403 174.685C66.4266 174.625 66.2898 174.548 66.23 174.446C66.1701 174.344 66.1616 174.207 66.2129 174.028L66.7087 172.278C66.7599 172.099 66.8369 171.988 66.9394 171.928C67.042 171.877 67.2044 171.877 67.4181 171.937C67.6147 171.988 67.7259 172.09 67.76 172.244C67.8797 172.79 68.1191 173.243 68.4952 173.601C68.8713 173.959 69.3414 174.224 69.897 174.378C70.4697 174.54 70.9399 174.531 71.316 174.352C71.6921 174.173 71.94 173.874 72.0596 173.447C72.1195 173.225 72.1195 173.038 72.0425 172.858C71.9742 172.688 71.8545 172.526 71.6921 172.381C71.5126 172.218 71.2989 172.073 71.051 171.937C70.7945 171.8 70.5296 171.655 70.2389 171.519C69.9569 171.373 69.6662 171.228 69.3756 171.066C69.085 170.913 68.8114 170.733 68.555 170.546C68.3498 170.392 68.1703 170.221 68.0079 170.033C67.8455 169.846 67.7173 169.632 67.6318 169.402C67.5378 169.171 67.4865 168.915 67.478 168.634C67.4694 168.352 67.5122 168.045 67.6062 167.703C67.7173 167.311 67.8883 166.969 68.1191 166.688C68.3498 166.398 68.6405 166.176 68.9738 166.022C69.3158 165.868 69.7004 165.775 70.1364 165.757C70.5723 165.74 71.0595 165.809 71.581 165.954C72.0853 166.099 72.5383 166.321 72.923 166.628C73.3076 166.935 73.6068 167.311 73.829 167.763L74 167.149Z" fill="#132631"/>
<path d="M64.9904 169.035C64.7084 169.709 64.3494 170.281 63.9305 170.759C63.5117 171.237 63.0501 171.595 62.5457 171.851C62.0414 172.107 61.5115 172.235 60.9473 172.252C60.3831 172.27 59.819 172.15 59.2377 171.911C58.665 171.672 58.1863 171.339 57.8017 170.93C57.417 170.52 57.1435 170.042 56.9725 169.504C56.8016 168.967 56.7417 168.386 56.793 167.755C56.8443 167.123 57.0067 166.474 57.2973 165.8C57.5794 165.126 57.9384 164.546 58.3573 164.076C58.7761 163.607 59.2377 163.24 59.742 162.992C60.2464 162.745 60.7763 162.608 61.3405 162.6C61.9047 162.582 62.4688 162.702 63.0501 162.941C63.6228 163.18 64.1015 163.513 64.4861 163.922C64.8708 164.332 65.1443 164.81 65.3153 165.339C65.4862 165.868 65.5461 166.457 65.4948 167.08C65.4435 167.703 65.2725 168.361 64.9904 169.035ZM63.8365 168.548C64.0587 168.019 64.1955 167.524 64.2468 167.046C64.2981 166.568 64.2639 166.142 64.1527 165.74C64.0416 165.348 63.8536 165.006 63.5886 164.708C63.3236 164.409 62.9902 164.179 62.5885 164.008C62.1867 163.837 61.785 163.76 61.3832 163.777C60.9815 163.794 60.6054 163.905 60.2464 164.102C59.8874 164.298 59.554 164.58 59.2463 164.947C58.9385 165.314 58.6736 165.757 58.4513 166.287C58.2291 166.816 58.0923 167.311 58.041 167.789C57.9897 168.267 58.0239 168.702 58.1265 169.095C58.2376 169.487 58.4171 169.837 58.6821 170.136C58.9471 170.435 59.2805 170.665 59.6822 170.836C60.084 171.006 60.4857 171.083 60.8875 171.066C61.2807 171.049 61.6653 170.938 62.0243 170.742C62.3833 170.546 62.7167 170.264 63.0244 169.897C63.3492 169.521 63.6142 169.069 63.8365 168.548Z" fill="#132631"/>
<path d="M52.579 167.362L53.6902 168.002C53.844 168.096 53.9381 168.19 53.9637 168.301C53.9894 168.403 53.9552 168.548 53.8526 168.719C53.75 168.89 53.6474 168.992 53.5449 169.026C53.4423 169.06 53.3055 169.026 53.1517 168.932L49.3479 166.73C49.194 166.637 49.1 166.543 49.0743 166.432C49.0487 166.321 49.0829 166.184 49.1854 166.014C49.288 165.843 49.3906 165.74 49.4932 165.706C49.5957 165.672 49.7325 165.706 49.8864 165.792L51.5447 166.756L55.1861 160.491L51.7926 158.528L50.4847 160.79C50.3907 160.952 50.2881 161.038 50.1685 161.063C50.0488 161.089 49.8949 161.046 49.7069 160.935C49.5188 160.824 49.3991 160.713 49.365 160.602C49.3308 160.491 49.3564 160.355 49.4504 160.193L51.0318 157.47C51.1344 157.299 51.2369 157.197 51.3395 157.163C51.4421 157.129 51.5789 157.163 51.7327 157.257L57.8616 160.807C58.0154 160.901 58.1094 160.995 58.1351 161.106C58.1607 161.208 58.1265 161.353 58.024 161.524C57.9214 161.695 57.8188 161.797 57.7162 161.831C57.6137 161.866 57.4769 161.831 57.323 161.738L56.2118 161.097L52.579 167.362Z" fill="#132631"/>
<path d="M44.8859 162.711C45.0312 162.822 45.1082 162.932 45.1167 163.035C45.1252 163.146 45.074 163.282 44.9543 163.436C44.8346 163.598 44.7149 163.684 44.6038 163.701C44.4927 163.718 44.373 163.675 44.2277 163.564L42.1848 162.011C42.0395 161.9 41.9625 161.797 41.954 161.686C41.9454 161.575 41.9967 161.439 42.1164 161.285C42.2361 161.123 42.3557 161.038 42.4669 161.021C42.578 161.004 42.6976 161.046 42.843 161.157L43.5524 161.695L46.6126 157.675C46.8605 157.351 47.04 157.043 47.1425 156.762C47.2451 156.48 47.2879 156.216 47.2537 155.959C47.2195 155.712 47.1255 155.464 46.963 155.243C46.8006 155.021 46.5784 154.79 46.2878 154.577C45.9971 154.363 45.7236 154.201 45.4672 154.107C45.2022 154.014 44.9457 153.979 44.6979 154.022C44.45 154.056 44.2021 154.167 43.9542 154.346C43.7063 154.526 43.467 154.773 43.2105 155.106L40.1504 159.126L40.8599 159.664C41.0052 159.775 41.0821 159.877 41.0906 159.988C41.1077 160.099 41.0479 160.235 40.9282 160.389C40.8086 160.551 40.6889 160.637 40.5778 160.654C40.4666 160.671 40.347 160.62 40.2017 160.517L38.1587 158.964C38.0134 158.853 37.9365 158.75 37.9279 158.639C37.9194 158.529 37.9707 158.392 38.0903 158.238C38.21 158.076 38.3297 157.991 38.4408 157.974C38.5519 157.957 38.6801 157.999 38.8169 158.11L39.2101 158.409L42.3728 154.261C42.7147 153.809 43.0738 153.467 43.4413 153.237C43.8089 153.006 44.1935 152.861 44.5867 152.819C44.9799 152.776 45.3731 152.827 45.7834 152.972C46.1937 153.117 46.604 153.348 47.0058 153.655C47.4161 153.971 47.7494 154.304 47.9973 154.654C48.2452 155.004 48.3991 155.379 48.4589 155.763C48.5188 156.147 48.4931 156.557 48.3649 156.975C48.2367 157.393 48.0059 157.829 47.6554 158.281L44.4927 162.429L44.8859 162.711Z" fill="#132631"/>
<path d="M36.7055 145.837C37.3124 145.94 37.8766 146.127 38.4066 146.409C38.9365 146.691 39.4238 147.041 39.8597 147.467C40.3042 147.903 40.629 148.38 40.8256 148.901C41.0222 149.422 41.0992 149.951 41.0564 150.506C41.0137 151.06 40.8513 151.615 40.5692 152.178C40.2871 152.742 39.8939 153.288 39.3725 153.809C38.8596 154.329 38.3211 154.739 37.7569 155.029C37.1928 155.319 36.6372 155.49 36.0815 155.541C35.5259 155.592 34.9789 155.524 34.4574 155.345C33.936 155.166 33.4573 154.858 33.03 154.44C32.6624 154.082 32.406 153.706 32.2521 153.322C32.0982 152.938 32.0384 152.537 32.0726 152.144L31.7478 152.469C31.6196 152.597 31.4913 152.665 31.3802 152.656C31.2605 152.648 31.1238 152.571 30.9699 152.417C30.8075 152.264 30.7306 152.127 30.722 152.008C30.7135 151.888 30.7733 151.769 30.9015 151.632L32.7308 149.763C32.859 149.627 32.9872 149.567 33.0983 149.575C33.218 149.575 33.3548 149.661 33.5172 149.814C33.6796 149.968 33.7565 150.105 33.7651 150.224C33.7736 150.344 33.7138 150.463 33.577 150.6C33.3975 150.787 33.2522 150.992 33.1496 151.223C33.047 151.453 32.9958 151.701 33.0043 151.948C33.0129 152.204 33.0727 152.469 33.2009 152.742C33.3291 153.015 33.5257 153.279 33.7993 153.544C34.107 153.843 34.4489 154.056 34.825 154.184C35.2011 154.312 35.5943 154.355 36.0046 154.304C36.4149 154.252 36.8252 154.116 37.2526 153.885C37.6715 153.655 38.0818 153.339 38.4835 152.93C38.8853 152.52 39.193 152.11 39.4152 151.683C39.6375 151.265 39.7742 150.856 39.8255 150.454C39.8768 150.053 39.8341 149.669 39.6973 149.302C39.5691 148.935 39.3468 148.602 39.0391 148.304C38.663 147.937 38.2527 147.638 37.8082 147.416C37.3637 147.194 36.9021 147.058 36.4235 146.998C36.2867 146.981 36.1756 146.93 36.0986 146.836C36.0132 146.742 36.0046 146.58 36.0559 146.358C36.1072 146.144 36.1841 145.999 36.2952 145.922C36.3978 145.846 36.5346 145.811 36.7055 145.837Z" fill="#132631"/>
<path d="M27.4396 146.426L28.7047 148.014C28.8158 148.15 28.8671 148.278 28.85 148.389C28.8329 148.5 28.7475 148.611 28.5936 148.739C28.4397 148.867 28.303 148.918 28.1919 148.91C28.0807 148.901 27.9696 148.824 27.8585 148.679L24.5932 144.574C24.4821 144.429 24.4308 144.309 24.4479 144.198C24.465 144.088 24.5505 143.977 24.7043 143.849C24.8582 143.721 24.9949 143.669 25.1061 143.678C25.2172 143.686 25.3283 143.763 25.4394 143.908L26.7045 145.496L32.3803 140.989L31.0212 139.282C30.9101 139.137 30.8588 139.018 30.8759 138.907C30.893 138.796 30.9785 138.685 31.1323 138.557C31.2862 138.429 31.423 138.378 31.5341 138.386C31.6452 138.395 31.7563 138.472 31.8674 138.617L35.3293 142.969C35.4405 143.115 35.4917 143.234 35.4746 143.345C35.4576 143.456 35.3721 143.567 35.2182 143.695C35.0644 143.823 34.9276 143.874 34.8165 143.866C34.7053 143.857 34.5942 143.78 34.4831 143.635L33.124 141.928L27.4396 146.426Z" fill="#132631"/>
<path d="M26.4224 139.163C25.7984 139.547 25.1744 139.803 24.559 139.948C23.9435 140.093 23.3537 140.119 22.7981 140.025C22.2425 139.94 21.7296 139.735 21.268 139.419C20.8065 139.103 20.4047 138.676 20.0799 138.147C19.7551 137.618 19.5585 137.072 19.4901 136.509C19.4217 135.954 19.473 135.408 19.6525 134.87C19.832 134.332 20.1226 133.829 20.5244 133.342C20.9347 132.856 21.4475 132.429 22.0801 132.045C22.7041 131.661 23.3281 131.405 23.9435 131.26C24.559 131.123 25.1488 131.097 25.6958 131.183C26.2515 131.277 26.7558 131.473 27.2259 131.789C27.6875 132.105 28.0892 132.531 28.4141 133.06C28.7389 133.59 28.9355 134.136 29.0039 134.699C29.0723 135.262 29.021 135.8 28.8415 136.338C28.6705 136.867 28.3799 137.379 27.9696 137.866C27.5678 138.352 27.055 138.779 26.4224 139.163ZM25.7728 138.096C26.26 137.797 26.6618 137.473 26.978 137.115C27.2943 136.756 27.5251 136.389 27.6704 136.005C27.8157 135.621 27.8585 135.237 27.8243 134.836C27.7901 134.435 27.6533 134.051 27.4225 133.684C27.1917 133.308 26.9096 133.018 26.5763 132.796C26.2429 132.583 25.8753 132.446 25.465 132.395C25.0633 132.344 24.6274 132.378 24.1658 132.497C23.7042 132.617 23.2255 132.822 22.7383 133.12C22.251 133.419 21.8493 133.743 21.533 134.102C21.2168 134.46 20.986 134.827 20.8406 135.211C20.6953 135.595 20.644 135.988 20.6868 136.381C20.7295 136.773 20.8577 137.157 21.0885 137.533C21.3193 137.908 21.6014 138.207 21.9348 138.42C22.2681 138.634 22.6357 138.77 23.046 138.822C23.4563 138.873 23.8922 138.839 24.3538 138.719C24.8154 138.6 25.2855 138.395 25.7728 138.096Z" fill="#132631"/>
<path d="M17.6438 131.268L17.8917 131.823C17.9686 131.985 17.9857 132.122 17.943 132.224C17.9002 132.326 17.7891 132.42 17.6096 132.497C17.4301 132.583 17.2848 132.6 17.1822 132.565C17.0796 132.531 16.9942 132.429 16.9172 132.267L16.1907 130.645C16.1052 130.449 16.1052 130.278 16.2078 130.142L20.8065 123.971L15.4555 126.369L15.8316 127.214C15.9086 127.376 15.9257 127.513 15.8829 127.615C15.8402 127.718 15.7291 127.812 15.5496 127.888C15.3701 127.974 15.2247 127.991 15.1222 127.957C15.0196 127.922 14.9341 127.82 14.8572 127.658L13.8058 125.319C13.7289 125.157 13.7118 125.021 13.7545 124.918C13.7972 124.816 13.9084 124.722 14.0879 124.645C14.2674 124.56 14.4127 124.543 14.5153 124.577C14.6178 124.611 14.7119 124.713 14.7803 124.876L14.9683 125.285L22.3024 121.999C22.4306 121.94 22.5503 121.94 22.67 121.991C22.7896 122.042 22.8922 122.161 22.9777 122.349C23.0375 122.486 23.0546 122.622 23.029 122.75C23.0033 122.878 22.9435 123.006 22.8495 123.134L17.8319 129.894L23.7897 127.223L23.3452 126.233C23.2683 126.07 23.2598 125.934 23.2939 125.831C23.3281 125.729 23.4478 125.635 23.6273 125.558C23.8068 125.473 23.9521 125.456 24.0547 125.49C24.1573 125.524 24.2513 125.627 24.3197 125.789L25.4651 128.349C25.542 128.511 25.5591 128.648 25.5164 128.75C25.4737 128.853 25.3625 128.947 25.183 129.023C25.0035 129.109 24.8582 129.126 24.7556 129.092C24.6531 129.058 24.5676 128.955 24.4907 128.793L24.277 128.307L17.6438 131.268Z" fill="#132631"/>
<path d="M13.5493 121.462L13.7886 122.23C13.8399 122.4 13.8399 122.537 13.7886 122.631C13.7374 122.725 13.6091 122.802 13.4211 122.861C13.233 122.921 13.0877 122.921 12.9851 122.878C12.8911 122.827 12.8142 122.716 12.7629 122.546L10.737 115.922C10.6858 115.752 10.6858 115.615 10.737 115.521C10.7883 115.427 10.9165 115.351 11.1046 115.291L13.0279 114.702C13.2074 114.651 13.3441 114.651 13.4467 114.711C13.5493 114.77 13.6348 114.907 13.6946 115.12C13.763 115.334 13.763 115.496 13.7203 115.598C13.669 115.701 13.5578 115.786 13.3783 115.837L11.9679 116.264L13.2074 120.318L16.0196 119.464L15.4384 117.578L14.746 117.792C14.5665 117.843 14.4297 117.843 14.3272 117.783C14.2246 117.723 14.1391 117.587 14.0793 117.373C14.0109 117.16 14.0109 116.998 14.0622 116.895C14.1135 116.793 14.2246 116.708 14.4041 116.656L16.8146 115.922C16.9941 115.871 17.1309 115.871 17.2334 115.931C17.336 115.991 17.4215 116.127 17.4813 116.341C17.5497 116.554 17.5497 116.716 17.507 116.819C17.4642 116.921 17.3446 117.006 17.1651 117.058L16.4727 117.271L17.0539 119.166L20.1483 118.227L18.8661 114.028L17.1309 114.557C16.9514 114.608 16.8146 114.608 16.712 114.548C16.6094 114.489 16.5325 114.352 16.4641 114.139C16.3957 113.925 16.3957 113.763 16.4385 113.661C16.4898 113.558 16.6009 113.473 16.7804 113.422L19.0285 112.739C19.2251 112.679 19.3704 112.679 19.4644 112.722C19.567 112.773 19.6354 112.884 19.6867 113.055L21.7553 119.823C21.8066 119.994 21.8066 120.13 21.7553 120.224C21.704 120.318 21.5758 120.395 21.3877 120.454C21.1997 120.514 21.0543 120.514 20.9518 120.472C20.8577 120.42 20.7808 120.309 20.7295 120.139L20.4902 119.371L13.5493 121.462Z" fill="#132631"/>
<path d="M18.584 109.624C18.7635 109.59 18.9088 109.615 18.9943 109.683C19.0798 109.752 19.1567 109.905 19.1909 110.119C19.2251 110.332 19.2166 110.494 19.1482 110.597C19.0798 110.699 18.9601 110.759 18.7806 110.793L16.4385 111.194C16.259 111.228 16.1137 111.203 16.0282 111.134C15.9427 111.066 15.8744 110.913 15.8316 110.699C15.7889 110.477 15.8744 110.307 16.0795 110.187C16.6522 109.871 17.054 109.453 17.2933 108.932C17.5412 108.412 17.601 107.814 17.4814 107.123C17.4215 106.782 17.336 106.483 17.2078 106.244C17.0882 105.996 16.9428 105.8 16.7719 105.655C16.6009 105.51 16.4129 105.408 16.2077 105.348C16.0026 105.288 15.7803 105.288 15.5495 105.322C15.2076 105.382 14.9426 105.518 14.7717 105.723C14.6007 105.937 14.4725 106.193 14.3956 106.509C14.3357 106.765 14.3015 107.046 14.2844 107.345C14.2673 107.644 14.2588 107.959 14.2503 108.275C14.2417 108.6 14.2246 108.915 14.2075 109.231C14.1904 109.547 14.1391 109.854 14.0622 110.136C14.0109 110.341 13.9425 110.537 13.8485 110.716C13.7545 110.895 13.6434 111.058 13.498 111.203C13.3527 111.348 13.1818 111.467 12.9852 111.57C12.78 111.672 12.5407 111.749 12.2671 111.792C11.8568 111.86 11.4807 111.851 11.1303 111.757C10.7798 111.664 10.4635 111.501 10.19 111.271C9.91647 111.041 9.68568 110.75 9.50618 110.4C9.32667 110.05 9.1899 109.649 9.11297 109.206C9.03604 108.736 9.04459 108.267 9.15571 107.814C9.25829 107.362 9.43779 106.961 9.68568 106.611L9.207 106.696C9.02749 106.73 8.89073 106.705 8.7967 106.637C8.70268 106.568 8.63429 106.415 8.6001 106.201C8.56591 105.979 8.57446 105.826 8.64284 105.723C8.70268 105.621 8.83089 105.561 9.0104 105.527L10.8055 105.22C10.985 105.186 11.1217 105.211 11.2158 105.28C11.3098 105.348 11.3782 105.501 11.4124 105.715C11.4465 105.911 11.4038 106.056 11.2756 106.159C10.8311 106.5 10.5319 106.91 10.3695 107.405C10.2071 107.9 10.1729 108.429 10.2669 109.001C10.3695 109.581 10.5832 110.008 10.908 110.272C11.2328 110.537 11.609 110.631 12.0534 110.554C12.2757 110.52 12.4466 110.426 12.5749 110.289C12.6945 110.153 12.7971 109.974 12.8569 109.769C12.9253 109.547 12.9681 109.282 12.9852 108.992C13.0023 108.702 13.0108 108.403 13.0194 108.079C13.0279 107.763 13.0365 107.439 13.0535 107.106C13.0706 106.773 13.1048 106.449 13.1732 106.142C13.2245 105.894 13.3014 105.655 13.404 105.425C13.5066 105.203 13.6434 104.998 13.8058 104.81C13.9767 104.631 14.1819 104.469 14.4298 104.341C14.6776 104.213 14.9768 104.11 15.3273 104.059C15.729 103.991 16.1137 103.999 16.4727 104.085C16.8317 104.17 17.1565 104.332 17.4472 104.571C17.7378 104.81 17.9771 105.117 18.1823 105.51C18.3874 105.903 18.5327 106.363 18.6268 106.893C18.7122 107.413 18.7037 107.908 18.5926 108.386C18.4815 108.864 18.2678 109.299 17.9515 109.692L18.584 109.624Z" fill="#132631"/>
<ellipse cx="14.9185" cy="87.572" rx="1.51474" ry="1.51672" transform="rotate(17.5227 14.9185 87.572)" fill="#132631"/>
<ellipse cx="169.916" cy="101.572" rx="1.51474" ry="1.51672" transform="rotate(17.5227 169.916 101.572)" fill="#132631"/>
<circle cx="92.6001" cy="93.5" r="58.5" stroke="#4E5C65" stroke-dasharray="2 5"/>
</svg>
