<svg width="176" height="179" viewBox="0 0 176 179" fill="none" xmlns="http://www.w3.org/2000/svg">
<mask id="mask0" mask-type="alpha" maskUnits="userSpaceOnUse" x="69" y="65" width="48" height="51">
<path fill-rule="evenodd" clip-rule="evenodd" d="M109.034 82.6303C112.314 85.9761 113.079 86.6959 115.345 90.625C117.61 94.5542 116.506 102.027 114.432 104.98C112.357 107.934 109.86 109.544 107.398 110.803C104.937 112.061 89.027 118.862 76.805 113.556C64.583 108.251 71.8755 88.7853 71.8755 87.6975C71.8755 86.6097 77.7371 67.6911 77.7371 67.6911C77.7371 67.6911 86.2701 64.7892 88.5082 66.1093C90.7464 67.4293 91.0668 74.9464 91.0668 74.9464C91.0668 74.9464 105.754 79.2845 109.034 82.6303Z" fill="white"/>
</mask>
<g mask="url(#mask0)">
<path fill-rule="evenodd" clip-rule="evenodd" d="M199.821 75.7644C200.584 75.1941 201.416 74.6238 202.041 73.9014C202.526 73.3311 202.873 72.6087 202.769 71.9244C202.526 70.4796 200.792 70.1374 199.231 70.4796C198.26 70.7077 197.289 71.164 196.561 71.8483C196.249 72.1145 195.971 72.4566 195.833 72.7988C195.694 73.2551 196.041 73.5592 196.596 73.4071C197.012 73.2931 197.359 73.0269 197.671 72.7608C198.052 72.3806 198.399 71.9624 198.989 71.8483C199.37 71.7723 199.717 71.8863 199.717 72.2665C199.717 72.5707 199.44 72.8749 199.162 73.103C198.919 73.2931 198.711 73.4832 198.468 73.6353C197.636 74.2816 196.838 74.9279 196.214 75.7264C195.937 76.1066 195.694 76.5248 195.555 76.943C195.382 77.4373 195.312 77.9315 195.416 78.3878C195.555 79.0341 196.11 79.4904 196.873 79.5284C198.295 79.5664 199.752 79.4523 201.243 79.2242C202.006 79.0721 202.804 78.6159 202.873 77.8555C202.942 77.0571 202.11 76.7909 201.312 76.905C200.237 77.0571 199.162 77.1711 198.087 77.2852C198.503 76.7149 199.197 76.2587 199.821 75.7644ZM180.925 90.3828C178.592 90.3828 167.071 102.064 178.981 102.064C188.735 102.064 183.081 90.3828 180.925 90.3828ZM100.033 89.5484C97.2989 89.5484 82.802 101.23 97.6735 101.23C109.473 101.23 102.768 89.5484 100.033 89.5484ZM125.169 79.5628C126.922 81.8482 127.945 84.3179 129.186 86.8981C129.771 86.5295 130.538 80.042 130.72 79.0099C131.268 75.803 133.24 67.1776 137.44 67.1776C139.667 67.1776 141.165 69.4261 141.895 71.306C142.917 73.8863 143.538 76.4297 144.013 79.1574C144.269 80.6318 144.743 83.8755 145.109 85.2025C148.249 83.7281 154.275 80.3738 154.384 80.3369C156.393 79.2311 160.629 80.6318 158.474 84.4653C156.795 87.4879 149.454 94.3808 149.454 95.1549C149.454 95.6341 155.845 99.2833 156.758 99.4676C156.904 99.2096 157.123 98.9515 157.196 98.6935C158 96.6293 158.328 94.6757 159.387 92.6852C163.112 85.4974 172.279 76.8351 180.86 77.0932C183.49 77.1669 186.01 77.8672 188.237 79.0468C187.799 77.5355 187.799 75.9136 188.456 74.218C190.757 68.2097 199.376 65.3346 204.817 67.6568C208.688 69.3156 210.587 73.0016 208.98 77.2406C207.008 82.438 200.982 86.7875 195.614 85.6817C199.193 90.9159 200.617 97.7351 198.463 103.707C195.431 112.258 183.855 114.58 175.894 114.58C173.557 114.58 165.376 113.032 165.157 113.069C160.775 113.475 158.328 113.88 153.873 112.701L145.875 109.567C145.036 109.346 144.013 111.116 143.465 111.595C139.777 114.986 134.007 113.364 130.282 111.079C126.046 113.806 118.669 114.875 114.433 111.484C113.702 110.894 112.023 108.388 111.767 108.277C102.82 113.991 89.4174 115.723 79.0826 113.069C77.4757 113.032 73.9334 110.526 73.2761 109.051C71.4866 105.034 71.7058 101.163 72.3266 96.7768C73.0204 91.9849 73.9334 87.193 74.7368 82.438C75.3576 78.8256 77.7314 66.9933 82.2597 66.9933C87.9566 66.9933 88.2853 78.5307 90.0747 79.2311C91.645 78.7519 94.7491 78.199 96.356 78.199C103.915 78.199 108.918 82.4011 113.702 87.6722C113.848 87.8196 114.031 87.9671 114.214 88.1145C114.615 87.7459 117.391 81.4059 118.669 79.6734L118.486 79.1574C110.416 75.1027 116.003 61.7223 125.133 65.0397C127.799 66.035 129.552 68.8364 129.552 71.6378C129.552 76.4665 125.206 78.9362 125.169 79.5628Z" fill="#132631"/>
</g>
<path d="M13.5152 67.6238L13.1733 68.5285C13.1049 68.6992 13.028 68.8016 12.9254 68.8443C12.8228 68.8869 12.6775 68.8699 12.4895 68.8016C12.3014 68.7333 12.1818 68.648 12.139 68.5456C12.0963 68.4431 12.1048 68.3151 12.1647 68.1444L13.5751 64.4403C13.746 63.9965 13.9512 63.6295 14.1905 63.3393C14.4299 63.0491 14.7034 62.8272 14.994 62.6821C15.2846 62.537 15.6095 62.4602 15.9428 62.4602C16.2762 62.4602 16.6267 62.5199 16.9857 62.6565C17.3703 62.8016 17.6695 63.015 17.8917 63.2966C18.114 63.5783 18.2508 63.9111 18.3106 64.2867C18.6781 63.8258 19.097 63.5271 19.5757 63.3905C20.0544 63.2539 20.5672 63.2881 21.1228 63.5015C21.516 63.6465 21.8409 63.8429 22.0973 64.0904C22.3537 64.3293 22.5503 64.6195 22.6786 64.9438C22.8068 65.2682 22.8581 65.6266 22.841 66.0278C22.8239 66.4289 22.7298 66.8471 22.5589 67.308L20.9604 71.5072C20.9006 71.6778 20.8151 71.7803 20.7125 71.8229C20.61 71.8656 20.4647 71.8485 20.2766 71.7803C20.0885 71.712 19.9689 71.6266 19.9261 71.5242C19.8834 71.4218 19.8919 71.2938 19.9518 71.1231L20.2937 70.2184L13.5152 67.6238ZM17.2592 66.0192C17.4814 65.4389 17.5242 64.9609 17.396 64.5854C17.2677 64.2098 16.9857 63.9453 16.5497 63.7746C16.0967 63.6039 15.7035 63.6124 15.3616 63.8087C15.0197 64.005 14.7376 64.3891 14.5153 64.978L13.9341 66.5057L16.6779 67.547L17.2592 66.0192ZM21.4648 67.1288C21.6956 66.5143 21.7468 65.9936 21.6101 65.5669C21.4733 65.1401 21.1656 64.8414 20.6869 64.6622C19.6697 64.2781 18.926 64.7049 18.4559 65.9424L17.6951 67.9396L20.7296 69.0918L21.4648 67.1288Z" fill="#132631"/>
<path d="M18.4987 56.1444L17.5414 57.9367C17.4559 58.0989 17.3619 58.1928 17.2593 58.2184C17.1567 58.244 17.0114 58.2184 16.8319 58.1245C16.6524 58.0306 16.5498 57.9282 16.5156 57.8258C16.4814 57.7234 16.5071 57.5868 16.5926 57.4332L19.0629 52.8073C19.1484 52.6451 19.2424 52.5512 19.345 52.5256C19.4476 52.4915 19.5929 52.5256 19.7724 52.6195C19.9519 52.7134 20.0545 52.8158 20.0886 52.9182C20.1228 53.0207 20.0972 53.1572 20.0117 53.3108L19.0544 55.1032L25.4567 58.5086L26.4825 56.5797C26.5679 56.4175 26.662 56.3236 26.7645 56.298C26.8671 56.2639 27.0124 56.298 27.1919 56.3919C27.3714 56.4858 27.474 56.5882 27.5082 56.6906C27.5424 56.7931 27.5168 56.9296 27.4313 57.0832L24.8156 61.9908C24.7301 62.1529 24.6361 62.2468 24.5335 62.2724C24.431 62.298 24.2857 62.2724 24.1062 62.1785C23.9266 62.0847 23.8241 61.9822 23.7899 61.8798C23.7557 61.7774 23.7813 61.6409 23.8668 61.4872L24.8926 59.5583L18.4987 56.1444Z" fill="#132631"/>
<path d="M22.5679 49.1459L22.055 49.8714C21.9525 50.0165 21.8413 50.1018 21.7388 50.1189C21.6277 50.136 21.4909 50.0848 21.3285 49.9738C21.1661 49.8543 21.072 49.7434 21.0549 49.641C21.0378 49.53 21.072 49.402 21.1832 49.2569L22.7987 46.9696C22.9013 46.8245 23.0124 46.7391 23.115 46.722C23.2261 46.705 23.3629 46.7562 23.5253 46.8671C23.6877 46.9866 23.7817 47.0976 23.7988 47.2C23.8159 47.3109 23.7817 47.439 23.6706 47.5841L23.2517 48.1815L25.9785 50.1018L25.2349 45.3735L24.9271 45.8174C24.8246 45.9624 24.7134 46.0478 24.6109 46.0649C24.4997 46.0819 24.363 46.0307 24.2006 45.9198C24.0382 45.8003 23.9441 45.6893 23.927 45.5869C23.9099 45.476 23.9441 45.3479 24.0553 45.2028L25.534 43.1033C25.6366 42.9582 25.7477 42.8728 25.8503 42.8558C25.9614 42.8387 26.0982 42.8899 26.2606 43.0009C26.423 43.1203 26.517 43.2313 26.5341 43.3337C26.5512 43.4447 26.517 43.5727 26.4059 43.7178L26.1495 44.0848L26.8419 48.668C27.0299 48.3607 27.2607 48.1132 27.5342 47.9255C27.8078 47.7377 28.1497 47.6353 28.5514 47.6097C28.7993 47.6011 29.0472 47.6182 29.3122 47.6609C29.5772 47.7036 29.8336 47.7548 30.0815 47.8145C30.3379 47.8743 30.5773 47.9425 30.8166 48.0023C31.056 48.062 31.2697 48.1047 31.4663 48.1303C31.6629 48.1559 31.8338 48.1474 31.9877 48.1132C32.1415 48.0791 32.2527 48.0023 32.3467 47.8742L32.4749 47.695C32.5775 47.5499 32.6886 47.4646 32.7912 47.4475C32.9023 47.4304 33.0391 47.4816 33.2015 47.5926C33.3639 47.7121 33.4579 47.823 33.475 47.9255C33.4921 48.0364 33.4579 48.1644 33.3468 48.3095L32.9707 48.8387C32.8339 49.035 32.6288 49.1801 32.3638 49.274C32.0988 49.3678 31.7398 49.3849 31.2868 49.3166C31.056 49.2825 30.8166 49.2313 30.5773 49.1715C30.3379 49.1118 30.0986 49.0521 29.8678 48.9923C29.637 48.9326 29.4062 48.8814 29.184 48.8387C28.9617 48.796 28.748 48.7704 28.5514 48.7789C28.3292 48.7789 28.124 48.8216 27.9274 48.924C27.7394 49.0265 27.5684 49.1715 27.4317 49.3764C27.3034 49.5556 27.218 49.7519 27.1581 49.9568C27.0983 50.1701 27.0897 50.392 27.1239 50.6139L27.1752 50.9383L29.1669 52.3465L29.9106 51.2967C30.0131 51.1516 30.1242 51.0663 30.2268 51.0492C30.3379 51.0321 30.4747 51.0834 30.6371 51.1943C30.7995 51.3138 30.8936 51.4247 30.9107 51.5272C30.9277 51.6381 30.8936 51.7661 30.7824 51.9112L28.8421 54.6509C28.7395 54.796 28.6284 54.8814 28.5258 54.8984C28.4147 54.9155 28.2779 54.8643 28.1155 54.7533C27.9531 54.6339 27.8591 54.5229 27.842 54.4205C27.8249 54.3095 27.8591 54.1815 27.9702 54.0364L28.4831 53.3109L22.5679 49.1459Z" fill="#132631"/>
<path d="M30.5688 44.2808C30.0218 43.7858 29.6029 43.2652 29.2952 42.7104C28.9875 42.1557 28.7994 41.6009 28.7225 41.0461C28.6456 40.4914 28.7054 39.9451 28.8764 39.4074C29.0473 38.8697 29.3465 38.3747 29.7653 37.9138C30.1842 37.4529 30.6543 37.1116 31.1672 36.8897C31.6801 36.6677 32.2271 36.5653 32.7827 36.5824C33.3469 36.5995 33.9196 36.736 34.4923 36.9921C35.0736 37.2481 35.6292 37.6236 36.1763 38.1187C36.7233 38.6137 37.1422 39.1343 37.4499 39.6891C37.7576 40.2438 37.9457 40.7901 38.0141 41.3534C38.0824 41.9167 38.0311 42.4544 37.8602 42.9921C37.6892 43.5298 37.3901 44.0248 36.9712 44.4857C36.5524 44.9466 36.0822 45.2879 35.5694 45.5099C35.0565 45.7318 34.5094 45.8342 33.9538 45.8171C33.3896 45.8 32.8255 45.6635 32.2442 45.4074C31.6715 45.1514 31.1074 44.7759 30.5688 44.2808ZM31.4151 43.3591C31.8339 43.7431 32.2613 44.0333 32.6973 44.2382C33.1332 44.443 33.5521 44.5625 33.9538 44.5881C34.3556 44.6137 34.7488 44.5539 35.1163 44.4089C35.4839 44.2638 35.8172 44.0248 36.1164 43.7005C36.4156 43.3761 36.6207 43.0262 36.7319 42.6421C36.843 42.2581 36.8686 41.874 36.8088 41.4643C36.7404 41.0632 36.5866 40.6535 36.3472 40.2438C36.1079 39.8342 35.7745 39.433 35.3471 39.049C34.9283 38.6649 34.5009 38.3747 34.0649 38.1699C33.629 37.965 33.2101 37.8456 32.7998 37.8199C32.3895 37.7943 32.0049 37.8541 31.6288 37.9992C31.2612 38.1528 30.9279 38.3832 30.6287 38.7076C30.3295 39.0319 30.1329 39.3818 30.0132 39.7659C29.8936 40.15 29.8765 40.5426 29.9448 40.9437C30.0132 41.3448 30.1671 41.7545 30.415 42.1642C30.6629 42.5739 30.9877 42.975 31.4151 43.3591Z" fill="#132631"/>
<path d="M43.7241 27.1003L43.2112 27.4332C43.0659 27.5356 42.9291 27.5697 42.8266 27.5441C42.7154 27.5185 42.6129 27.4246 42.5017 27.2539C42.3906 27.0832 42.3479 26.9467 42.365 26.8443C42.3821 26.7333 42.4675 26.6309 42.6214 26.537L44.1002 25.564C44.2797 25.4446 44.4507 25.4275 44.596 25.5043L51.4343 29.0463L48.2032 24.1558L47.4253 24.6679C47.28 24.7703 47.1432 24.8044 47.0407 24.7788C46.9295 24.7532 46.827 24.6593 46.7158 24.4887C46.6047 24.318 46.562 24.1814 46.5791 24.079C46.5962 23.968 46.6816 23.8656 46.8355 23.7717L48.981 22.3549C49.1349 22.2525 49.2631 22.2184 49.3657 22.244C49.4768 22.2696 49.5794 22.3635 49.6905 22.5342C49.8016 22.7049 49.8444 22.8414 49.8273 22.9438C49.8102 23.0548 49.7247 23.1572 49.5708 23.2511L49.1947 23.4986L53.6225 30.1985C53.6995 30.3094 53.7166 30.4289 53.6909 30.5569C53.6567 30.685 53.5541 30.8044 53.3832 30.9154C53.255 31.0007 53.1268 31.0349 52.9985 31.0349C52.8703 31.0263 52.7336 30.9922 52.5882 30.9239L45.1088 27.0576L48.7075 32.5029L49.6136 31.9054C49.7674 31.803 49.8957 31.7689 49.9982 31.7945C50.1008 31.8201 50.2119 31.914 50.323 32.0847C50.4342 32.2554 50.4769 32.3919 50.4598 32.4943C50.4427 32.6053 50.3572 32.7077 50.2034 32.8016L47.8613 34.3464C47.7074 34.4488 47.5792 34.483 47.4766 34.4574C47.3655 34.4318 47.2629 34.3379 47.1518 34.1672C47.0407 33.9965 46.9979 33.8599 47.015 33.7575C47.0321 33.6465 47.1176 33.5441 47.2715 33.4502L47.7159 33.1601L43.7241 27.1003Z" fill="#132631"/>
<path d="M51.9553 21.8855C51.7929 21.9623 51.6646 21.9879 51.5621 21.9452C51.4595 21.9025 51.3655 21.8001 51.2714 21.6209C51.186 21.4417 51.1518 21.2966 51.186 21.1942C51.2201 21.0917 51.3142 20.9979 51.4766 20.921L53.7845 19.7859C53.9469 19.7091 54.0751 19.6835 54.1863 19.7262C54.2888 19.7603 54.3829 19.8713 54.4769 20.0505C54.5709 20.2297 54.5966 20.3748 54.5624 20.4772C54.5282 20.5796 54.4342 20.6735 54.2717 20.7503L53.4768 21.1429L55.7163 25.675C55.8958 26.042 56.0924 26.3407 56.2976 26.554C56.5027 26.7759 56.725 26.9296 56.9643 27.0149C57.2037 27.1003 57.4601 27.1173 57.7336 27.0747C58.0072 27.032 58.3063 26.9296 58.6312 26.7674C58.956 26.6052 59.2124 26.4346 59.4176 26.2383C59.6227 26.0505 59.7595 25.8286 59.8364 25.5896C59.9133 25.3506 59.9304 25.0775 59.8792 24.7788C59.8279 24.4801 59.7167 24.1472 59.5287 23.7802L57.2891 19.2482L56.4942 19.6408C56.3318 19.7176 56.2036 19.7432 56.101 19.7006C55.9984 19.6579 55.9044 19.5555 55.8104 19.3762C55.7249 19.197 55.6907 19.0519 55.7249 18.9495C55.7591 18.8471 55.8531 18.7532 56.0155 18.6764L58.3234 17.5412C58.4858 17.4644 58.6141 17.4388 58.7252 17.4815C58.8278 17.5156 58.9218 17.6266 59.0158 17.8058C59.1013 17.9851 59.1355 18.1301 59.1013 18.2326C59.0671 18.335 58.9731 18.4289 58.8107 18.5057L58.3662 18.719L60.6741 23.3961C60.922 23.8997 61.0759 24.3777 61.1186 24.8129C61.1613 25.2482 61.1186 25.6493 60.9818 26.0163C60.8451 26.3833 60.6228 26.7162 60.3065 27.0149C59.9988 27.3136 59.6056 27.5782 59.1526 27.8087C58.691 28.0391 58.2465 28.1842 57.8191 28.2439C57.3917 28.3037 56.99 28.2781 56.6139 28.1671C56.2378 28.0562 55.8873 27.8428 55.571 27.5441C55.2547 27.2454 54.9641 26.8357 54.7162 26.3321L52.4083 21.6636L51.9553 21.8855Z" fill="#132631"/>
<path d="M62.1702 17.1657L61.4094 17.4303C61.2385 17.49 61.1017 17.49 61.0077 17.4474C60.9051 17.3962 60.8282 17.2767 60.7598 17.0889C60.6914 16.9011 60.6829 16.7561 60.7341 16.6536C60.7769 16.5512 60.888 16.4744 61.059 16.4147L67.6152 14.1529C67.7861 14.0932 67.9229 14.0932 68.0169 14.1359C68.111 14.1871 68.1964 14.3065 68.2648 14.4943L68.923 16.3976C68.9829 16.5683 68.9829 16.7134 68.9316 16.8158C68.8717 16.9182 68.7435 17.0036 68.5298 17.0804C68.3161 17.1487 68.1623 17.1657 68.0511 17.1231C67.94 17.0804 67.8545 16.9694 67.7947 16.7902L67.316 15.399L63.3071 16.7817L64.2644 19.5555L66.1364 18.9068L65.8971 18.224C65.8372 18.0533 65.8372 17.9083 65.8885 17.8058C65.9398 17.7034 66.0766 17.6181 66.2903 17.5413C66.504 17.4644 66.6578 17.4559 66.769 17.4986C66.8801 17.5413 66.9655 17.6522 67.0254 17.8314L67.846 20.2127C67.9058 20.3919 67.9058 20.5285 67.8545 20.6309C67.7947 20.7333 67.6665 20.8186 67.4528 20.8955C67.2391 20.9637 67.0852 20.9808 66.9741 20.9381C66.863 20.8955 66.7775 20.7845 66.7177 20.6053L66.4783 19.9225L64.6063 20.5711L65.6663 23.6266L69.8291 22.1928L69.2393 20.4772C69.1795 20.3065 69.1795 20.1615 69.2307 20.059C69.282 19.9566 69.4188 19.8713 69.6325 19.7945C69.8462 19.7262 70 19.7091 70.1112 19.7518C70.2223 19.7945 70.2992 19.9054 70.3676 20.0846L71.1369 22.3037C71.2053 22.4915 71.2139 22.6366 71.1626 22.739C71.1198 22.8414 71.0087 22.9182 70.8377 22.978L64.1362 25.2909C63.9652 25.3506 63.8285 25.3506 63.7344 25.308C63.6319 25.2568 63.5549 25.1373 63.4866 24.9495C63.4182 24.7617 63.4096 24.6166 63.4609 24.5142C63.5037 24.4118 63.6148 24.335 63.7857 24.2753L64.5465 24.0107L62.1702 17.1657Z" fill="#132631"/>
<path d="M70.7266 14.3406C70.5471 14.3748 70.4189 14.3662 70.3249 14.3065C70.2308 14.2382 70.171 14.1102 70.1283 13.9139C70.0855 13.7176 70.0941 13.5725 70.1539 13.4786C70.2138 13.3847 70.3334 13.3164 70.5044 13.2823L73.4107 12.6763C73.5902 12.6422 73.7184 12.6507 73.8124 12.7105C73.9064 12.7702 73.9663 12.8982 74.009 13.0945C74.0517 13.2908 74.0432 13.4359 73.9834 13.5298C73.9235 13.6237 73.8039 13.692 73.6329 13.7261L72.5388 13.9566L76.3511 20.3065L77.3085 12.958L76.5306 13.1201C76.3597 13.1628 76.2229 13.1457 76.1289 13.086C76.0349 13.0263 75.975 12.8982 75.9323 12.7019C75.8895 12.5056 75.8981 12.3605 75.9579 12.2667C76.0178 12.1728 76.1374 12.1045 76.3084 12.0703L78.8984 11.5241C79.0779 11.49 79.2061 11.4985 79.3002 11.5583C79.3942 11.618 79.454 11.746 79.4968 11.9423C79.5395 12.1386 79.531 12.2837 79.4711 12.3776C79.4113 12.4715 79.3002 12.5483 79.1206 12.5824L78.5223 12.7105L77.3769 21.1088C77.3512 21.3051 77.2743 21.4502 77.1546 21.5611C77.035 21.6635 76.864 21.7403 76.6418 21.7915C76.4195 21.8342 76.2315 21.8342 76.0861 21.783C75.9408 21.7318 75.8126 21.6208 75.71 21.4587L71.3079 14.2211L70.7266 14.3406Z" fill="#132631"/>
<path d="M84.1297 19.3335C84.3092 19.3165 84.4375 19.3506 84.5229 19.4189C84.6084 19.4957 84.6512 19.6322 84.6683 19.8286C84.6853 20.0249 84.6597 20.1699 84.5913 20.2553C84.5229 20.3406 84.3947 20.3919 84.2152 20.4089L81.5739 20.6223C81.3944 20.6394 81.2662 20.6052 81.1807 20.5369C81.0952 20.4687 81.0439 20.3321 81.0354 20.1273C81.0183 19.931 81.044 19.7859 81.1123 19.7005C81.1807 19.6152 81.3089 19.564 81.4884 19.5469L81.9329 19.5128L83.9588 12.0789L82.48 12.1984C82.3005 12.2155 82.1723 12.1813 82.0868 12.113C82.0013 12.0448 81.95 11.9082 81.9415 11.7034C81.9244 11.5071 81.95 11.362 82.0184 11.2766C82.0868 11.1913 82.215 11.1401 82.3945 11.123L85.2922 10.884C85.5059 10.867 85.6769 10.8926 85.8137 10.9608C85.9504 11.0291 86.053 11.1571 86.1385 11.3278L89.5662 18.8812L90.0449 18.8385C90.2244 18.8214 90.3526 18.8556 90.4381 18.9239C90.5235 18.9921 90.5748 19.1287 90.5834 19.3335C90.6005 19.5298 90.5748 19.6749 90.5065 19.7603C90.4381 19.8456 90.3099 19.8968 90.1303 19.9139L87.3352 20.1443C87.1557 20.1614 87.0275 20.1273 86.942 20.059C86.8565 19.9907 86.8052 19.8542 86.7967 19.6493C86.7796 19.453 86.8052 19.3079 86.8736 19.2226C86.942 19.1372 87.0702 19.086 87.2497 19.0689L88.3182 18.9836L87.5147 17.1571L83.6852 17.4729L83.1809 19.4018L84.1297 19.3335ZM83.9588 16.3719L87.0531 16.1159L85.2324 11.968L85.0786 11.9765L83.9588 16.3719Z" fill="#132631"/>
<path d="M92.7461 19.6494C92.7375 19.8371 92.6862 19.9652 92.6008 20.042C92.5067 20.1188 92.3529 20.1529 92.1306 20.1444C91.9084 20.1359 91.7545 20.0932 91.669 20.0078C91.5836 19.9225 91.5494 19.7945 91.5579 19.6067L91.6605 17.234C91.669 17.0462 91.7203 16.9182 91.8058 16.8414C91.8998 16.7646 92.0537 16.7304 92.2759 16.739C92.5067 16.7475 92.652 16.867 92.7204 17.0889C92.9085 17.712 93.2333 18.1899 93.6949 18.5398C94.1479 18.8898 94.7292 19.0775 95.4216 19.1031C95.772 19.1202 96.0797 19.0946 96.3447 19.0263C96.6097 18.958 96.832 18.8556 97.0115 18.7276C97.191 18.5996 97.3277 18.4374 97.4303 18.2411C97.5243 18.0533 97.5842 17.84 97.5927 17.6095C97.6098 17.2596 97.5329 16.978 97.3619 16.7646C97.191 16.5512 96.9687 16.372 96.6781 16.2354C96.4388 16.1245 96.1738 16.0306 95.8831 15.9538C95.5925 15.877 95.2848 15.8001 94.9771 15.7233C94.6693 15.6465 94.3531 15.5612 94.0453 15.4758C93.7376 15.3905 93.447 15.2795 93.182 15.143C92.994 15.0491 92.8145 14.9381 92.652 14.8101C92.4896 14.6821 92.3614 14.537 92.2503 14.3663C92.1392 14.1956 92.0537 14.0078 91.9939 13.7859C91.934 13.564 91.9169 13.3165 91.9255 13.0349C91.9426 12.6252 92.0366 12.2582 92.199 11.9339C92.37 11.6095 92.5922 11.3364 92.8743 11.123C93.1564 10.9011 93.4897 10.739 93.8744 10.6366C94.259 10.5341 94.6693 10.4915 95.1224 10.5085C95.6011 10.5256 96.0541 10.6366 96.473 10.8414C96.8918 11.0377 97.2508 11.2937 97.5329 11.6095L97.55 11.123C97.5585 10.9353 97.6098 10.8073 97.6953 10.7304C97.7893 10.6536 97.9432 10.6195 98.1654 10.628C98.3877 10.6366 98.5415 10.6792 98.627 10.7646C98.7125 10.8499 98.7467 10.978 98.7381 11.1657L98.6612 12.9836C98.6527 13.1714 98.6014 13.2994 98.5159 13.3763C98.4219 13.4531 98.268 13.4872 98.0458 13.4787C97.8406 13.4701 97.7124 13.3933 97.644 13.2568C97.4047 12.7532 97.0628 12.3691 96.6097 12.1046C96.1567 11.84 95.6438 11.6949 95.0625 11.6693C94.4727 11.6437 94.0112 11.7632 93.6863 12.0277C93.3615 12.2923 93.1906 12.6423 93.1735 13.0861C93.1649 13.3165 93.2162 13.5043 93.3273 13.6494C93.4384 13.803 93.5923 13.931 93.7804 14.0334C93.9855 14.1444 94.2334 14.2468 94.5069 14.3151C94.789 14.3919 95.0796 14.4602 95.3874 14.537C95.6951 14.6138 96.0114 14.6906 96.3362 14.776C96.661 14.8613 96.9687 14.9637 97.2594 15.0918C97.4901 15.1942 97.7124 15.3222 97.909 15.4673C98.1056 15.6124 98.2766 15.7916 98.4219 15.9879C98.5672 16.1928 98.6698 16.4317 98.7467 16.6963C98.8236 16.9694 98.8493 17.2767 98.8407 17.6351C98.8236 18.0448 98.7381 18.4118 98.5757 18.7447C98.4133 19.0775 98.1911 19.3592 97.9004 19.5896C97.6098 19.8201 97.2508 19.9908 96.8234 20.1102C96.4046 20.2297 95.9173 20.2724 95.3703 20.2553C94.8403 20.2297 94.3531 20.1188 93.9086 19.9139C93.4641 19.7091 93.088 19.4104 92.7717 19.0178L92.7461 19.6494Z" fill="#132631"/>
<path d="M111.269 22.1329C111.218 22.3121 111.133 22.4231 111.03 22.4743C110.928 22.5255 110.765 22.517 110.551 22.4572C110.338 22.3975 110.201 22.3121 110.141 22.2097C110.081 22.1073 110.073 21.9707 110.133 21.7915L110.816 19.5127C110.868 19.3335 110.953 19.2225 111.056 19.1713C111.158 19.1201 111.321 19.1286 111.534 19.1884C111.748 19.2567 111.868 19.4018 111.876 19.6407C111.911 20.2894 112.099 20.8356 112.458 21.288C112.817 21.7403 113.33 22.0646 113.996 22.2609C114.33 22.3633 114.637 22.4146 114.911 22.406C115.184 22.406 115.424 22.3634 115.629 22.278C115.834 22.1927 116.014 22.0732 116.15 21.911C116.287 21.7488 116.398 21.5611 116.467 21.3392C116.569 21.0063 116.561 20.7161 116.45 20.4686C116.338 20.2211 116.159 19.9907 115.911 19.7858C115.706 19.6237 115.475 19.4615 115.21 19.3164C114.945 19.1713 114.672 19.0177 114.389 18.8641C114.107 18.7104 113.825 18.5568 113.552 18.3946C113.278 18.2325 113.022 18.0533 112.8 17.8655C112.637 17.7289 112.492 17.5753 112.372 17.4131C112.253 17.251 112.158 17.0717 112.09 16.884C112.022 16.6962 111.988 16.4828 111.988 16.2609C111.988 16.039 112.03 15.7915 112.107 15.5184C112.227 15.1258 112.406 14.7929 112.646 14.5198C112.885 14.2467 113.176 14.0419 113.5 13.8968C113.825 13.7517 114.193 13.6834 114.586 13.6749C114.979 13.6663 115.398 13.7261 115.826 13.8541C116.287 13.9907 116.697 14.2126 117.056 14.5113C117.415 14.81 117.697 15.1429 117.894 15.5184L118.031 15.0575C118.082 14.8783 118.168 14.7673 118.27 14.7161C118.373 14.6649 118.535 14.6734 118.749 14.7332C118.963 14.7929 119.099 14.8783 119.159 14.9807C119.219 15.0831 119.228 15.2197 119.168 15.3989L118.646 17.14C118.595 17.3193 118.51 17.4302 118.407 17.4814C118.304 17.5326 118.142 17.5241 117.928 17.4643C117.732 17.4046 117.621 17.3022 117.595 17.1486C117.492 16.6023 117.253 16.15 116.877 15.783C116.509 15.416 116.039 15.1514 115.484 14.9807C114.919 14.81 114.441 14.81 114.065 14.9807C113.68 15.1514 113.432 15.4501 113.304 15.8769C113.236 16.0902 113.244 16.2865 113.312 16.4658C113.381 16.6365 113.492 16.7986 113.654 16.9523C113.825 17.1144 114.039 17.268 114.295 17.4046C114.552 17.5497 114.817 17.6948 115.099 17.8399C115.381 17.985 115.663 18.1386 115.954 18.3008C116.244 18.4629 116.518 18.6422 116.766 18.8385C116.971 19.0006 117.142 19.1713 117.304 19.3676C117.467 19.5554 117.586 19.7688 117.672 19.9992C117.757 20.2296 117.809 20.4857 117.817 20.7673C117.826 21.049 117.774 21.3562 117.672 21.6976C117.552 22.0902 117.381 22.4231 117.142 22.7047C116.903 22.9864 116.612 23.2083 116.279 23.3619C115.937 23.5156 115.543 23.5924 115.107 23.6009C114.672 23.6094 114.184 23.5326 113.663 23.379C113.159 23.2254 112.714 22.9949 112.338 22.6877C111.962 22.3804 111.663 21.9964 111.458 21.5355L111.269 22.1329Z" fill="#132631"/>
<path d="M120.321 20.409C120.62 19.7348 120.979 19.1715 121.407 18.7021C121.834 18.2327 122.304 17.8827 122.809 17.6352C123.313 17.3962 123.852 17.2682 124.416 17.2597C124.98 17.2511 125.544 17.3792 126.117 17.6352C126.689 17.8913 127.16 18.2241 127.536 18.6423C127.912 19.0605 128.177 19.5385 128.339 20.0762C128.502 20.6139 128.553 21.1942 128.484 21.8258C128.425 22.4574 128.245 23.1061 127.946 23.7718C127.647 24.446 127.288 25.0093 126.86 25.4787C126.433 25.9482 125.963 26.2981 125.459 26.5371C124.954 26.776 124.416 26.9041 123.852 26.9041C123.287 26.9126 122.723 26.7846 122.15 26.5285C121.578 26.2725 121.108 25.9396 120.732 25.5214C120.355 25.1032 120.09 24.6253 119.928 24.0876C119.766 23.5499 119.714 22.9695 119.774 22.3379C119.834 21.7063 120.031 21.0833 120.321 20.409ZM121.467 20.9211C121.236 21.4418 121.091 21.9368 121.031 22.4147C120.971 22.8927 120.997 23.3194 121.099 23.7206C121.202 24.1217 121.381 24.4631 121.638 24.7703C121.894 25.0691 122.227 25.3166 122.629 25.4873C123.031 25.6665 123.433 25.7519 123.826 25.7348C124.228 25.7263 124.604 25.6238 124.963 25.4361C125.322 25.2483 125.664 24.9752 125.971 24.6082C126.288 24.2497 126.561 23.8059 126.792 23.2853C127.023 22.7647 127.168 22.2696 127.228 21.7917C127.288 21.3137 127.262 20.8785 127.16 20.4859C127.057 20.0932 126.877 19.7348 126.621 19.4361C126.365 19.1373 126.031 18.8898 125.629 18.7191C125.228 18.5399 124.826 18.4546 124.433 18.4716C124.04 18.4887 123.655 18.5826 123.287 18.7789C122.928 18.9666 122.586 19.2483 122.27 19.6068C121.954 19.9652 121.706 20.4005 121.467 20.9211Z" fill="#132631"/>
<path d="M132.69 22.2952L131.587 21.6295C131.433 21.5356 131.339 21.4332 131.322 21.3308C131.297 21.2198 131.339 21.0833 131.442 20.9126C131.544 20.7419 131.647 20.6394 131.758 20.6138C131.861 20.5882 131.998 20.6138 132.151 20.7077L135.912 22.978C136.066 23.0719 136.16 23.1743 136.177 23.2767C136.203 23.3877 136.16 23.5242 136.058 23.6949C135.955 23.8656 135.853 23.968 135.741 23.9936C135.63 24.0192 135.502 23.9936 135.348 23.8998L133.707 22.9097L129.955 29.1146L133.314 31.1373L134.664 28.9097C134.758 28.7476 134.87 28.6622 134.981 28.6366C135.092 28.611 135.246 28.6622 135.442 28.7732C135.63 28.8841 135.741 29.0036 135.776 29.1146C135.81 29.2255 135.776 29.3621 135.682 29.5242L134.058 32.2127C133.955 32.3834 133.844 32.4858 133.741 32.5114C133.639 32.537 133.502 32.5114 133.348 32.4175L127.279 28.7561C127.125 28.6622 127.031 28.5598 127.014 28.4574C126.988 28.3464 127.031 28.2099 127.134 28.0392C127.236 27.8685 127.347 27.766 127.45 27.7404C127.553 27.7148 127.689 27.7404 127.843 27.8343L128.946 28.5L132.69 22.2952Z" fill="#132631"/>
<path d="M140.323 27.1004C140.187 26.9895 140.11 26.8785 140.093 26.7676C140.084 26.6566 140.135 26.5286 140.263 26.3664C140.392 26.2128 140.503 26.1189 140.614 26.1104C140.725 26.0933 140.853 26.1445 140.99 26.2555L143.007 27.843C143.144 27.9539 143.221 28.0649 143.238 28.1758C143.247 28.2868 143.195 28.4148 143.067 28.577C142.939 28.7306 142.828 28.8245 142.717 28.833C142.606 28.8501 142.477 28.7989 142.341 28.6879L141.64 28.1417L138.503 32.1104C138.246 32.4347 138.067 32.7334 137.956 33.0151C137.844 33.2967 137.802 33.5613 137.827 33.8174C137.853 34.0734 137.947 34.3124 138.101 34.5428C138.263 34.7733 138.477 34.9952 138.759 35.2171C139.041 35.439 139.315 35.6011 139.571 35.7036C139.828 35.806 140.093 35.8401 140.34 35.806C140.588 35.7718 140.845 35.6694 141.093 35.4987C141.341 35.328 141.588 35.0805 141.845 34.7562L144.982 30.7875L144.29 30.2413C144.144 30.1303 144.067 30.0194 144.059 29.9084C144.05 29.7974 144.101 29.6609 144.23 29.5073C144.349 29.3536 144.469 29.2598 144.58 29.2512C144.691 29.2341 144.811 29.2854 144.956 29.3963L146.974 30.9838C147.11 31.0947 147.187 31.2057 147.204 31.3167C147.213 31.4276 147.162 31.5556 147.033 31.7178C146.905 31.8714 146.794 31.9653 146.683 31.9738C146.572 31.9909 146.444 31.9397 146.307 31.8287L145.922 31.5215L142.691 35.6097C142.341 36.0535 141.973 36.3864 141.597 36.6168C141.221 36.8472 140.836 36.9753 140.443 37.0094C140.05 37.0435 139.657 36.9838 139.246 36.8302C138.845 36.6765 138.434 36.4461 138.032 36.1303C137.622 35.806 137.306 35.4731 137.067 35.1147C136.827 34.7562 136.682 34.3892 136.622 33.9966C136.562 33.6125 136.605 33.2029 136.742 32.7846C136.879 32.3664 137.118 31.9397 137.468 31.4959L140.699 27.4077L140.323 27.1004Z" fill="#132631"/>
<path d="M148.205 44.1103C147.606 43.9994 147.042 43.7945 146.512 43.5044C145.982 43.2142 145.512 42.8557 145.085 42.4204C144.649 41.9766 144.333 41.4987 144.144 40.9695C143.956 40.4489 143.888 39.9112 143.939 39.365C143.991 38.8187 144.17 38.264 144.461 37.7007C144.751 37.1459 145.162 36.6082 145.683 36.0876C146.205 35.5755 146.752 35.1743 147.316 34.8927C147.88 34.611 148.444 34.4489 149.008 34.4062C149.564 34.3635 150.102 34.4403 150.624 34.6366C151.145 34.8329 151.615 35.1402 152.034 35.5669C152.393 35.9339 152.65 36.3095 152.795 36.7021C152.94 37.0947 152.992 37.4873 152.957 37.8884L153.282 37.5641C153.41 37.4361 153.539 37.3763 153.658 37.3763C153.778 37.3849 153.915 37.4617 154.069 37.6238C154.222 37.786 154.308 37.9226 154.308 38.0335C154.316 38.153 154.248 38.2725 154.12 38.4005L152.256 40.2355C152.128 40.3635 152 40.4233 151.88 40.4233C151.761 40.4233 151.624 40.3379 151.47 40.1758C151.316 40.0136 151.231 39.877 151.231 39.7661C151.222 39.6466 151.291 39.5271 151.419 39.3906C151.607 39.2113 151.752 39.0065 151.855 38.776C151.966 38.5456 152.017 38.3066 152.017 38.0506C152.017 37.7945 151.957 37.53 151.838 37.2568C151.718 36.9837 151.521 36.7106 151.256 36.4375C150.957 36.1302 150.615 35.9169 150.239 35.7803C149.863 35.6438 149.47 35.6011 149.06 35.6438C148.649 35.6864 148.23 35.823 147.803 36.0364C147.376 36.2497 146.965 36.5655 146.555 36.9667C146.145 37.3678 145.828 37.7775 145.598 38.1957C145.367 38.6139 145.222 39.0236 145.17 39.4162C145.119 39.8173 145.153 40.2014 145.273 40.5684C145.401 40.9354 145.606 41.2768 145.914 41.584C146.281 41.9595 146.692 42.2668 147.128 42.4972C147.564 42.7277 148.025 42.8728 148.504 42.9411C148.641 42.9581 148.743 43.0179 148.829 43.1118C148.906 43.2056 148.923 43.3678 148.863 43.5897C148.812 43.7945 148.726 43.9396 148.615 44.025C148.512 44.1103 148.367 44.1359 148.205 44.1103Z" fill="#132631"/>
<path d="M157.453 43.658L156.214 42.0534C156.103 41.9083 156.06 41.7888 156.077 41.6779C156.094 41.5669 156.18 41.456 156.342 41.3279C156.505 41.1999 156.633 41.1487 156.744 41.1658C156.855 41.1743 156.966 41.2597 157.069 41.3962L160.266 45.5527C160.377 45.6978 160.42 45.8173 160.402 45.9282C160.385 46.0392 160.3 46.1501 160.137 46.2782C159.975 46.4062 159.847 46.4574 159.736 46.4403C159.625 46.4233 159.513 46.3464 159.411 46.2099L158.171 44.6053L152.419 49.0178L153.752 50.7504C153.863 50.8955 153.906 51.015 153.889 51.126C153.872 51.2369 153.786 51.3479 153.624 51.4759C153.462 51.5954 153.333 51.6551 153.222 51.638C153.111 51.621 153 51.5442 152.897 51.4076L149.512 46.9951C149.401 46.85 149.359 46.7305 149.376 46.6196C149.393 46.5086 149.478 46.3976 149.641 46.2696C149.803 46.1416 149.931 46.0904 150.042 46.1075C150.154 46.116 150.265 46.2013 150.367 46.3379L151.701 48.0705L157.453 43.658Z" fill="#132631"/>
<path d="M158.351 50.9383C158.983 50.5713 159.607 50.3152 160.231 50.1872C160.855 50.0592 161.437 50.0421 161.992 50.136C162.548 50.2384 163.052 50.4433 163.514 50.7676C163.975 51.0919 164.36 51.5272 164.676 52.0649C164.993 52.6026 165.181 53.1488 165.24 53.7121C165.3 54.2754 165.232 54.8131 165.052 55.3508C164.864 55.88 164.565 56.3835 164.155 56.8615C163.736 57.3394 163.215 57.7576 162.582 58.1332C161.95 58.5002 161.317 58.7562 160.702 58.8842C160.086 59.0122 159.496 59.0293 158.949 58.9269C158.394 58.8245 157.889 58.6111 157.428 58.2868C156.966 57.9625 156.581 57.5272 156.265 56.9895C155.949 56.4518 155.761 55.9056 155.701 55.3423C155.641 54.779 155.701 54.2413 155.889 53.7121C156.069 53.1829 156.368 52.6794 156.787 52.2014C157.197 51.7405 157.718 51.3138 158.351 50.9383ZM158.983 52.0222C158.488 52.3124 158.086 52.6282 157.761 52.9781C157.436 53.328 157.205 53.695 157.052 54.0791C156.906 54.4632 156.846 54.8472 156.881 55.2398C156.915 55.6324 157.043 56.025 157.265 56.4006C157.488 56.7761 157.761 57.0748 158.094 57.3053C158.428 57.5272 158.795 57.6723 159.197 57.7235C159.599 57.7832 160.035 57.7576 160.505 57.6467C160.967 57.5357 161.445 57.3394 161.941 57.0492C162.437 56.759 162.839 56.4433 163.163 56.0933C163.488 55.7434 163.727 55.3764 163.873 54.9923C164.027 54.6083 164.078 54.2242 164.052 53.8231C164.018 53.4304 163.89 53.0378 163.668 52.6623C163.445 52.2868 163.172 51.9881 162.838 51.7576C162.505 51.5357 162.138 51.3992 161.736 51.3394C161.334 51.2797 160.89 51.3138 160.428 51.4248C159.958 51.5357 159.479 51.732 158.983 52.0222Z" fill="#132631"/>
<path d="M167.001 58.9951L166.762 58.4318C166.694 58.2696 166.677 58.1331 166.719 58.0307C166.762 57.9282 166.873 57.8429 167.061 57.7575C167.249 57.6807 167.386 57.6551 167.489 57.6978C167.591 57.7405 167.677 57.8429 167.745 58.0051L168.446 59.6352C168.531 59.8315 168.523 60.0022 168.42 60.1388L163.719 66.2327L169.113 63.9282L168.745 63.0748C168.677 62.9126 168.66 62.776 168.702 62.6736C168.745 62.5712 168.856 62.4859 169.044 62.4005C169.232 62.3237 169.369 62.2981 169.472 62.3408C169.574 62.3834 169.66 62.4859 169.737 62.648L170.745 65.0036C170.814 65.1658 170.831 65.3024 170.788 65.4048C170.745 65.5072 170.634 65.5925 170.446 65.6779C170.258 65.7547 170.121 65.7803 170.019 65.7376C169.916 65.695 169.831 65.5925 169.762 65.4304L169.583 65.0122L162.189 68.1701C162.061 68.2213 161.941 68.2213 161.821 68.1701C161.702 68.1189 161.608 67.9994 161.522 67.8031C161.462 67.658 161.445 67.5299 161.479 67.4019C161.505 67.2739 161.573 67.1459 161.668 67.0179L166.805 60.3521L160.796 62.9211L161.223 63.9197C161.291 64.0819 161.308 64.2184 161.266 64.3208C161.223 64.4233 161.112 64.5086 160.924 64.594C160.736 64.6708 160.599 64.6964 160.496 64.6537C160.394 64.611 160.308 64.5086 160.24 64.3465L159.137 61.7689C159.069 61.6068 159.052 61.4702 159.095 61.3678C159.137 61.2654 159.248 61.18 159.437 61.0947C159.625 61.0179 159.761 60.9923 159.864 61.0349C159.966 61.0776 160.052 61.18 160.12 61.3422L160.334 61.8287L167.001 58.9951Z" fill="#132631"/>
<path d="M170.925 68.8955L170.702 68.1189C170.651 67.9482 170.66 67.8116 170.711 67.7177C170.762 67.6238 170.89 67.547 171.087 67.4958C171.284 67.4446 171.429 67.4361 171.523 67.4873C171.617 67.5385 171.694 67.6495 171.745 67.8201L173.651 74.4773C173.703 74.648 173.694 74.7846 173.643 74.8785C173.591 74.9723 173.463 75.0492 173.267 75.1004L171.326 75.6551C171.147 75.7063 171.01 75.6978 170.907 75.6381C170.805 75.5783 170.728 75.4418 170.668 75.2284C170.608 75.015 170.6 74.8529 170.66 74.7504C170.711 74.648 170.83 74.5627 171.001 74.52L172.42 74.1189L171.258 70.0477L168.429 70.8586L168.976 72.7618L169.668 72.5655C169.847 72.5143 169.984 72.5228 170.087 72.5826C170.189 72.6423 170.266 72.7789 170.326 72.9923C170.386 73.2056 170.395 73.3678 170.343 73.4702C170.292 73.5726 170.172 73.658 170.001 73.7007L167.574 74.392C167.394 74.4432 167.257 74.4346 167.155 74.3749C167.052 74.3152 166.975 74.1786 166.916 73.9652C166.856 73.7519 166.847 73.5897 166.907 73.4873C166.958 73.3849 167.078 73.3081 167.249 73.2568L167.941 73.0605L167.394 71.1573L164.283 72.0449L165.497 76.2696L167.24 75.7746C167.42 75.7234 167.557 75.7319 167.659 75.7917C167.762 75.8514 167.839 75.988 167.899 76.2014C167.958 76.4147 167.967 76.5769 167.916 76.6793C167.864 76.7817 167.745 76.8671 167.574 76.9098L165.309 77.5584C165.112 77.6096 164.967 77.6182 164.873 77.5669C164.779 77.5157 164.702 77.4048 164.65 77.2341L162.701 70.4233C162.65 70.2526 162.659 70.116 162.71 70.0221C162.761 69.9283 162.89 69.8514 163.086 69.8002C163.283 69.749 163.428 69.7405 163.522 69.7917C163.616 69.8429 163.693 69.9539 163.744 70.1246L163.967 70.9012L170.925 68.8955Z" fill="#132631"/>
<path d="M165.676 80.6054C165.496 80.631 165.36 80.6139 165.266 80.5371C165.172 80.4603 165.112 80.3152 165.078 80.0933C165.043 79.8714 165.061 79.7178 165.129 79.6153C165.197 79.5215 165.317 79.4532 165.496 79.4276L167.847 79.0691C168.027 79.0435 168.172 79.0606 168.257 79.1374C168.351 79.2142 168.411 79.3593 168.446 79.5812C168.48 79.8031 168.394 79.9738 168.189 80.0848C167.616 80.392 167.206 80.8017 166.95 81.3138C166.693 81.8259 166.625 82.4318 166.727 83.1146C166.779 83.456 166.864 83.7547 166.984 84.0023C167.103 84.2498 167.24 84.4461 167.411 84.5997C167.582 84.7533 167.762 84.8557 167.967 84.9155C168.172 84.9752 168.394 84.9838 168.625 84.9496C168.967 84.8984 169.232 84.7704 169.411 84.557C169.591 84.3522 169.719 84.0961 169.796 83.7803C169.856 83.5243 169.899 83.2426 169.924 82.9439C169.941 82.6452 169.958 82.3294 169.976 82.0136C169.993 81.6893 170.01 81.3735 170.035 81.0577C170.061 80.7419 170.112 80.4347 170.189 80.153C170.241 79.9482 170.318 79.7519 170.412 79.5727C170.506 79.3934 170.625 79.2313 170.771 79.0862C170.916 78.9411 171.087 78.8216 171.292 78.7277C171.497 78.6253 171.736 78.557 172.01 78.5143C172.42 78.4546 172.796 78.4717 173.147 78.5741C173.497 78.6765 173.805 78.8387 174.079 79.0776C174.352 79.3166 174.574 79.6068 174.745 79.9567C174.916 80.3067 175.044 80.7078 175.113 81.1516C175.181 81.6296 175.164 82.0904 175.053 82.5428C174.942 82.9951 174.754 83.3877 174.506 83.7291L174.985 83.6523C175.164 83.6267 175.309 83.6438 175.395 83.7206C175.48 83.7974 175.549 83.9425 175.583 84.1644C175.617 84.3863 175.6 84.5399 175.54 84.6424C175.472 84.7363 175.352 84.8045 175.164 84.8301L173.361 85.1118C173.181 85.1374 173.036 85.1203 172.95 85.0435C172.856 84.9667 172.796 84.8216 172.762 84.5997C172.728 84.4034 172.779 84.2583 172.908 84.1644C173.352 83.8316 173.66 83.4219 173.839 82.9354C174.019 82.4489 174.053 81.9112 173.967 81.3394C173.873 80.759 173.668 80.3323 173.352 80.0592C173.036 79.7946 172.651 79.6922 172.215 79.7604C171.993 79.7946 171.813 79.8799 171.685 80.0165C171.557 80.153 171.463 80.3237 171.395 80.5371C171.326 80.759 171.275 81.0151 171.258 81.3052C171.241 81.5954 171.224 81.8941 171.206 82.2099C171.189 82.5257 171.181 82.85 171.155 83.1829C171.13 83.5158 171.087 83.8316 171.018 84.1473C170.959 84.3949 170.882 84.6338 170.771 84.8557C170.668 85.0776 170.531 85.2825 170.352 85.4617C170.181 85.6409 169.967 85.7946 169.719 85.9226C169.471 86.0506 169.172 86.136 168.822 86.1957C168.42 86.2555 168.035 86.2384 167.676 86.153C167.317 86.0677 166.992 85.897 166.71 85.6495C166.428 85.4105 166.189 85.0862 165.992 84.7021C165.796 84.3095 165.659 83.8486 165.573 83.3109C165.496 82.7903 165.514 82.2867 165.633 81.8173C165.753 81.3394 165.975 80.9126 166.291 80.5286L165.676 80.6054Z" fill="#132631"/>
<path d="M170.959 119.96L171.284 119.055C171.344 118.884 171.429 118.782 171.523 118.731C171.626 118.688 171.771 118.696 171.959 118.765C172.147 118.833 172.267 118.918 172.318 119.012C172.369 119.115 172.361 119.243 172.301 119.413L170.95 123.143C170.788 123.587 170.591 123.962 170.352 124.261C170.113 124.56 169.848 124.782 169.557 124.927C169.266 125.08 168.95 125.157 168.608 125.166C168.266 125.174 167.924 125.115 167.565 124.987C167.181 124.85 166.873 124.637 166.642 124.364C166.42 124.082 166.275 123.758 166.206 123.382C165.847 123.851 165.428 124.15 164.958 124.304C164.488 124.449 163.967 124.423 163.411 124.218C163.018 124.073 162.693 123.886 162.428 123.647C162.163 123.408 161.967 123.126 161.83 122.802C161.693 122.477 161.642 122.119 161.65 121.726C161.659 121.325 161.753 120.898 161.915 120.446L163.437 116.221C163.497 116.051 163.582 115.948 163.676 115.897C163.779 115.854 163.924 115.863 164.112 115.931C164.3 115.999 164.42 116.085 164.471 116.179C164.522 116.281 164.514 116.409 164.454 116.58L164.129 117.484L170.959 119.96ZM163.018 120.591C162.796 121.214 162.753 121.735 162.898 122.153C163.044 122.571 163.36 122.87 163.839 123.041C164.864 123.408 165.599 122.972 166.052 121.726L166.779 119.712L163.727 118.611L163.018 120.591ZM167.241 121.624C167.027 122.213 166.993 122.691 167.13 123.058C167.266 123.433 167.548 123.698 167.993 123.851C168.446 124.014 168.839 123.997 169.181 123.792C169.523 123.595 169.796 123.194 170.01 122.614L170.566 121.069L167.805 120.079L167.241 121.624Z" fill="#132631"/>
<path d="M166.164 131.533L167.087 129.723C167.164 129.561 167.267 129.467 167.369 129.433C167.472 129.399 167.617 129.433 167.797 129.519C167.976 129.604 168.079 129.706 168.122 129.809C168.164 129.911 168.13 130.048 168.053 130.201L165.668 134.87C165.583 135.032 165.489 135.126 165.386 135.16C165.284 135.194 165.138 135.16 164.959 135.075C164.779 134.981 164.677 134.887 164.634 134.785C164.6 134.682 164.617 134.546 164.702 134.392L165.626 132.583L159.163 129.288L158.172 131.234C158.086 131.396 157.992 131.49 157.89 131.524C157.787 131.558 157.642 131.524 157.462 131.439C157.283 131.345 157.18 131.251 157.137 131.149C157.095 131.046 157.12 130.91 157.206 130.756L159.736 125.806C159.822 125.644 159.916 125.55 160.018 125.516C160.121 125.482 160.266 125.516 160.446 125.601C160.625 125.695 160.728 125.789 160.77 125.891C160.813 125.994 160.779 126.13 160.702 126.284L159.71 128.23L166.164 131.533Z" fill="#132631"/>
<path d="M162.223 138.599L162.719 137.865C162.822 137.72 162.924 137.635 163.035 137.618C163.146 137.601 163.283 137.644 163.446 137.763C163.608 137.874 163.702 137.985 163.728 138.096C163.753 138.207 163.711 138.335 163.608 138.48L162.027 140.801C161.924 140.947 161.821 141.032 161.71 141.049C161.599 141.066 161.462 141.023 161.3 140.904C161.138 140.793 161.044 140.682 161.018 140.571C160.992 140.46 161.035 140.332 161.138 140.187L161.548 139.581L158.787 137.703L159.616 142.423L159.915 141.979C160.018 141.834 160.12 141.749 160.232 141.732C160.343 141.715 160.479 141.757 160.642 141.877C160.804 141.988 160.898 142.099 160.924 142.21C160.95 142.321 160.907 142.449 160.804 142.594L159.36 144.719C159.257 144.864 159.155 144.949 159.043 144.966C158.932 144.984 158.796 144.941 158.633 144.821C158.462 144.71 158.377 144.599 158.351 144.489C158.325 144.378 158.368 144.25 158.471 144.104L158.727 143.729L157.958 139.154C157.778 139.461 157.548 139.718 157.283 139.914C157.009 140.102 156.676 140.213 156.274 140.247C156.026 140.255 155.778 140.247 155.513 140.213C155.248 140.178 154.992 140.127 154.735 140.067C154.479 140.008 154.231 139.957 153.992 139.897C153.752 139.837 153.53 139.803 153.333 139.786C153.137 139.769 152.966 139.777 152.812 139.811C152.667 139.846 152.547 139.931 152.462 140.059L152.333 140.238C152.231 140.383 152.128 140.469 152.017 140.486C151.906 140.503 151.769 140.46 151.607 140.341C151.444 140.221 151.35 140.119 151.325 140.008C151.299 139.897 151.342 139.769 151.444 139.624L151.812 139.086C151.949 138.89 152.145 138.745 152.41 138.642C152.675 138.54 153.034 138.523 153.487 138.582C153.718 138.617 153.957 138.659 154.197 138.71C154.436 138.762 154.675 138.821 154.906 138.881C155.137 138.941 155.368 138.984 155.59 139.026C155.812 139.069 156.026 139.086 156.223 139.077C156.445 139.077 156.65 139.026 156.838 138.924C157.026 138.821 157.189 138.668 157.325 138.463C157.445 138.284 157.53 138.087 157.59 137.874C157.65 137.661 157.65 137.439 157.607 137.217L157.548 136.892L155.53 135.518L154.812 136.577C154.71 136.722 154.607 136.807 154.496 136.824C154.385 136.841 154.248 136.799 154.086 136.679C153.923 136.568 153.829 136.457 153.804 136.346C153.778 136.235 153.821 136.107 153.923 135.962L155.812 133.188C155.915 133.043 156.017 132.958 156.129 132.941C156.24 132.924 156.376 132.966 156.539 133.086C156.701 133.197 156.795 133.308 156.821 133.419C156.847 133.53 156.804 133.658 156.701 133.803L156.205 134.537L162.223 138.599Z" fill="#132631"/>
<path d="M154.308 143.601C154.863 144.088 155.291 144.6 155.615 145.146C155.94 145.692 156.137 146.247 156.214 146.802C156.291 147.356 156.248 147.903 156.085 148.44C155.923 148.978 155.632 149.482 155.222 149.951C154.812 150.42 154.35 150.77 153.837 151.001C153.324 151.231 152.786 151.342 152.222 151.334C151.658 151.325 151.085 151.197 150.504 150.95C149.922 150.702 149.35 150.344 148.803 149.857C148.256 149.371 147.82 148.858 147.495 148.312C147.179 147.766 146.982 147.211 146.896 146.665C146.82 146.11 146.862 145.564 147.025 145.026C147.187 144.489 147.478 143.985 147.888 143.516C148.298 143.046 148.76 142.696 149.273 142.466C149.786 142.235 150.324 142.124 150.88 142.133C151.444 142.142 152.017 142.27 152.598 142.509C153.196 142.756 153.76 143.123 154.308 143.601ZM153.487 144.54C153.06 144.164 152.624 143.874 152.188 143.678C151.752 143.482 151.333 143.371 150.923 143.354C150.512 143.336 150.128 143.405 149.76 143.558C149.392 143.712 149.068 143.959 148.777 144.284C148.486 144.608 148.29 144.967 148.179 145.351C148.068 145.735 148.05 146.127 148.127 146.528C148.196 146.93 148.358 147.331 148.615 147.74C148.862 148.15 149.204 148.543 149.632 148.918C150.059 149.294 150.495 149.584 150.931 149.78C151.367 149.977 151.786 150.088 152.196 150.105C152.606 150.13 152.991 150.062 153.359 149.9C153.726 149.746 154.051 149.499 154.342 149.174C154.632 148.85 154.829 148.491 154.94 148.107C155.051 147.723 155.068 147.331 154.991 146.93C154.914 146.528 154.752 146.119 154.504 145.718C154.256 145.308 153.914 144.924 153.487 144.54Z" fill="#132631"/>
<path d="M141.477 160.995L141.982 160.654C142.127 160.551 142.255 160.509 142.366 160.534C142.469 160.56 142.589 160.654 142.7 160.816C142.811 160.978 142.862 161.114 142.845 161.225C142.828 161.336 142.742 161.439 142.597 161.541L141.135 162.54C140.956 162.659 140.793 162.685 140.64 162.608L133.741 159.194L137.058 164.025L137.819 163.504C137.964 163.402 138.092 163.359 138.203 163.385C138.315 163.41 138.426 163.504 138.537 163.666C138.648 163.829 138.699 163.965 138.682 164.076C138.665 164.187 138.58 164.289 138.434 164.392L136.314 165.843C136.169 165.945 136.041 165.988 135.93 165.962C135.819 165.937 135.708 165.843 135.596 165.681C135.485 165.518 135.434 165.382 135.451 165.271C135.468 165.16 135.554 165.058 135.699 164.955L136.075 164.699L131.528 158.076C131.451 157.965 131.425 157.846 131.459 157.718C131.485 157.59 131.587 157.47 131.758 157.359C131.887 157.274 132.015 157.231 132.143 157.231C132.271 157.231 132.408 157.274 132.553 157.342L140.101 161.072L136.408 155.686L135.511 156.301C135.366 156.403 135.237 156.446 135.126 156.42C135.015 156.395 134.904 156.301 134.793 156.139C134.682 155.977 134.63 155.84 134.648 155.729C134.665 155.618 134.75 155.516 134.895 155.413L137.212 153.826C137.357 153.723 137.485 153.681 137.597 153.706C137.708 153.732 137.819 153.826 137.93 153.988C138.041 154.15 138.092 154.287 138.075 154.398C138.058 154.509 137.973 154.611 137.827 154.713L137.391 155.012L141.477 160.995Z" fill="#132631"/>
<path d="M133.315 166.372C133.477 166.287 133.605 166.27 133.708 166.304C133.81 166.338 133.913 166.449 133.998 166.628C134.084 166.807 134.118 166.952 134.093 167.055C134.058 167.157 133.964 167.251 133.802 167.336L131.52 168.514C131.357 168.6 131.229 168.617 131.126 168.582C131.024 168.548 130.921 168.437 130.836 168.258C130.742 168.079 130.716 167.934 130.742 167.831C130.776 167.729 130.87 167.635 131.032 167.55L131.819 167.14L129.502 162.651C129.314 162.284 129.118 161.994 128.904 161.78C128.69 161.567 128.468 161.413 128.229 161.336C127.989 161.26 127.733 161.242 127.451 161.294C127.177 161.345 126.878 161.447 126.562 161.618C126.246 161.789 125.981 161.959 125.784 162.156C125.587 162.352 125.451 162.574 125.374 162.813C125.297 163.06 125.288 163.325 125.339 163.624C125.391 163.922 125.519 164.247 125.707 164.614L128.024 169.103L128.81 168.693C128.972 168.608 129.101 168.591 129.203 168.625C129.306 168.659 129.408 168.77 129.494 168.949C129.588 169.129 129.613 169.274 129.588 169.376C129.554 169.479 129.46 169.572 129.297 169.658L127.015 170.836C126.852 170.921 126.724 170.938 126.622 170.904C126.519 170.87 126.416 170.759 126.331 170.58C126.246 170.4 126.211 170.255 126.237 170.153C126.271 170.05 126.365 169.957 126.528 169.871L126.964 169.649L124.579 165.015C124.322 164.511 124.16 164.042 124.109 163.607C124.057 163.171 124.091 162.77 124.228 162.395C124.356 162.028 124.579 161.686 124.886 161.379C125.194 161.072 125.57 160.799 126.032 160.568C126.493 160.329 126.938 160.176 127.357 160.107C127.776 160.039 128.186 160.056 128.562 160.167C128.938 160.278 129.289 160.474 129.613 160.773C129.938 161.072 130.229 161.464 130.494 161.968L132.879 166.602L133.315 166.372Z" fill="#132631"/>
<path d="M123.202 171.254L123.963 170.972C124.134 170.913 124.262 170.904 124.365 170.955C124.467 171.007 124.544 171.126 124.613 171.314C124.681 171.502 124.689 171.647 124.647 171.749C124.604 171.851 124.493 171.928 124.322 171.997L117.808 174.369C117.637 174.429 117.509 174.438 117.407 174.386C117.304 174.335 117.227 174.224 117.159 174.028L116.466 172.142C116.407 171.971 116.398 171.826 116.449 171.723C116.501 171.621 116.637 171.527 116.842 171.45C117.048 171.374 117.21 171.356 117.321 171.399C117.432 171.442 117.518 171.553 117.578 171.723L118.082 173.106L122.065 171.655L121.057 168.898L119.193 169.581L119.441 170.255C119.501 170.426 119.509 170.571 119.458 170.674C119.407 170.776 119.27 170.87 119.065 170.947C118.86 171.024 118.697 171.041 118.586 170.998C118.475 170.955 118.39 170.844 118.33 170.674L117.466 168.309C117.407 168.139 117.398 167.994 117.449 167.891C117.501 167.789 117.637 167.695 117.843 167.618C118.048 167.541 118.21 167.524 118.321 167.567C118.432 167.61 118.518 167.721 118.578 167.891L118.826 168.566L120.689 167.883L119.578 164.844L115.441 166.355L116.065 168.062C116.124 168.233 116.133 168.378 116.082 168.48C116.03 168.583 115.894 168.676 115.689 168.753C115.483 168.83 115.321 168.847 115.21 168.805C115.099 168.762 115.013 168.651 114.953 168.48L114.141 166.27C114.073 166.082 114.064 165.937 114.107 165.834C114.15 165.732 114.261 165.655 114.432 165.587L121.091 163.154C121.262 163.095 121.39 163.086 121.493 163.137C121.595 163.189 121.672 163.3 121.74 163.496C121.809 163.684 121.817 163.829 121.775 163.931C121.732 164.034 121.621 164.11 121.458 164.179L120.698 164.452L123.202 171.254Z" fill="#132631"/>
<path d="M114.688 174.241C114.868 174.199 114.996 174.207 115.09 174.275C115.184 174.335 115.252 174.463 115.295 174.659C115.338 174.856 115.329 175.001 115.278 175.095C115.218 175.189 115.107 175.257 114.928 175.299L112.038 175.957C111.859 175.999 111.731 175.991 111.637 175.923C111.543 175.863 111.474 175.735 111.432 175.538C111.389 175.342 111.397 175.197 111.449 175.103C111.509 175.009 111.62 174.941 111.799 174.898L112.893 174.651L108.97 168.361L108.141 175.726L108.91 175.547C109.089 175.504 109.218 175.521 109.312 175.581C109.406 175.641 109.474 175.769 109.517 175.965C109.56 176.162 109.551 176.307 109.5 176.4C109.44 176.494 109.329 176.563 109.149 176.605L106.568 177.194C106.388 177.237 106.26 177.228 106.166 177.16C106.072 177.1 106.004 176.972 105.961 176.776C105.918 176.58 105.927 176.435 105.978 176.341C106.038 176.247 106.149 176.179 106.329 176.136L106.927 175.999L107.927 167.584C107.953 167.388 108.021 167.234 108.141 167.132C108.26 167.021 108.423 166.944 108.645 166.893C108.867 166.841 109.055 166.841 109.201 166.893C109.346 166.935 109.474 167.046 109.577 167.217L114.107 174.369L114.688 174.241Z" fill="#132631"/>
<path d="M101.191 169.487C101.012 169.504 100.884 169.479 100.798 169.41C100.713 169.342 100.661 169.206 100.644 169.001C100.627 168.804 100.644 168.659 100.713 168.574C100.781 168.489 100.901 168.437 101.08 168.42L103.713 168.156C103.893 168.139 104.021 168.164 104.106 168.233C104.192 168.301 104.243 168.437 104.26 168.642C104.277 168.839 104.26 168.984 104.192 169.069C104.123 169.154 104.004 169.206 103.824 169.223L103.38 169.265L101.482 176.733L102.961 176.588C103.14 176.571 103.269 176.597 103.354 176.665C103.44 176.733 103.491 176.87 103.508 177.075C103.525 177.271 103.508 177.416 103.44 177.501C103.371 177.587 103.243 177.638 103.072 177.655L100.174 177.945C99.9606 177.962 99.7896 177.945 99.6528 177.877C99.5161 177.809 99.4049 177.689 99.328 177.51L95.7721 170.016L95.2934 170.068C95.1139 170.085 94.9857 170.059 94.9002 169.991C94.8147 169.922 94.7634 169.786 94.7463 169.581C94.7292 169.385 94.7549 169.24 94.8233 169.154C94.8917 169.069 95.0113 169.018 95.1908 169.001L97.986 168.728C98.1655 168.711 98.2937 168.736 98.3792 168.804C98.4647 168.873 98.516 169.009 98.5331 169.214C98.5502 169.41 98.5331 169.555 98.4647 169.641C98.3963 169.726 98.2766 169.777 98.0971 169.794L97.0286 169.897L97.8578 171.706L101.687 171.331L102.157 169.393L101.191 169.487ZM101.414 172.44L98.3194 172.748L100.208 176.861L100.362 176.844L101.414 172.44Z" fill="#132631"/>
<path d="M92.5579 169.317C92.5579 169.129 92.6092 169.001 92.6946 168.924C92.7801 168.847 92.9425 168.813 93.1648 168.813C93.387 168.822 93.5409 168.864 93.6264 168.941C93.7118 169.018 93.7546 169.154 93.746 169.342L93.6862 171.715C93.6862 171.903 93.6349 172.031 93.5494 172.107C93.464 172.184 93.3015 172.218 93.0793 172.218C92.8485 172.21 92.7032 172.099 92.6263 171.877C92.4211 171.263 92.0963 170.785 91.6262 170.443C91.1646 170.102 90.5833 169.923 89.8824 169.914C89.5319 169.905 89.2242 169.94 88.9678 170.008C88.7028 170.076 88.4805 170.187 88.3096 170.324C88.1301 170.46 87.9933 170.622 87.8993 170.819C87.8053 171.015 87.754 171.22 87.7454 171.459C87.7369 171.809 87.8138 172.09 87.9933 172.295C88.1728 172.5 88.3951 172.679 88.6942 172.807C88.9336 172.91 89.1986 173.004 89.4977 173.08C89.7969 173.157 90.0961 173.226 90.4124 173.294C90.7286 173.362 91.0364 173.439 91.3441 173.524C91.6518 173.61 91.9424 173.712 92.2074 173.84C92.404 173.925 92.575 174.036 92.7374 174.164C92.8998 174.292 93.0366 174.437 93.1477 174.6C93.2588 174.77 93.3528 174.958 93.4127 175.18C93.4725 175.393 93.4981 175.649 93.4896 175.931C93.481 176.341 93.3956 176.708 93.2332 177.041C93.0708 177.373 92.8485 177.638 92.575 177.86C92.2929 178.082 91.9681 178.253 91.5834 178.364C91.1988 178.474 90.7885 178.526 90.3354 178.517C89.8567 178.509 89.4037 178.406 88.9763 178.21C88.5489 178.014 88.1899 177.766 87.8993 177.459L87.8907 177.945C87.8822 178.133 87.8394 178.261 87.7454 178.338C87.6599 178.415 87.4975 178.449 87.2753 178.449C87.053 178.44 86.8992 178.398 86.8137 178.321C86.7282 178.244 86.6855 178.107 86.694 177.92L86.7368 176.102C86.7368 175.914 86.7881 175.786 86.8735 175.709C86.959 175.632 87.1214 175.598 87.3437 175.598C87.5488 175.607 87.677 175.675 87.754 175.812C88.0019 176.307 88.3523 176.682 88.8054 176.947C89.2584 177.211 89.7798 177.339 90.3611 177.356C90.9509 177.373 91.4125 177.245 91.7287 176.981C92.0536 176.716 92.216 176.358 92.2245 175.914C92.2331 175.684 92.1732 175.496 92.0621 175.351C91.951 175.206 91.7971 175.078 91.6005 174.975C91.3954 174.864 91.1475 174.77 90.8654 174.702C90.5833 174.634 90.2927 174.565 89.9764 174.497C89.6687 174.429 89.3524 174.352 89.0276 174.275C88.7028 174.198 88.3951 174.096 88.1044 173.968C87.8651 173.866 87.6514 173.746 87.4462 173.601C87.2411 173.456 87.0701 173.285 86.9248 173.089C86.7795 172.884 86.6684 172.654 86.5829 172.381C86.506 172.116 86.4632 171.8 86.4718 171.45C86.4803 171.041 86.5658 170.674 86.7197 170.332C86.8735 169.991 87.0958 169.709 87.3864 169.47C87.677 169.231 88.0275 169.052 88.4549 168.932C88.8823 168.813 89.361 168.753 89.8995 168.762C90.4295 168.779 90.9167 168.881 91.3612 169.086C91.8057 169.291 92.1903 169.581 92.5151 169.965L92.5579 169.317Z" fill="#132631"/>
<path d="M74.0005 167.149C74.0518 166.969 74.1287 166.858 74.2313 166.807C74.3339 166.756 74.4963 166.756 74.71 166.816C74.9237 166.876 75.0604 166.952 75.1203 167.055C75.1801 167.157 75.1886 167.294 75.1374 167.473L74.4963 169.76C74.445 169.94 74.3681 170.05 74.2655 170.11C74.1629 170.161 74.0005 170.161 73.7868 170.102C73.5646 170.042 73.4534 169.888 73.4363 169.658C73.3936 169.009 73.1884 168.463 72.8294 168.019C72.4619 167.575 71.949 167.26 71.2737 167.072C70.9403 166.978 70.6326 166.935 70.3591 166.935C70.0856 166.944 69.8462 166.986 69.6411 167.072C69.4359 167.157 69.265 167.285 69.1196 167.447C68.9829 167.61 68.8803 167.806 68.8119 168.028C68.7179 168.361 68.7264 168.651 68.8461 168.898C68.9658 169.146 69.1453 169.368 69.3932 169.573C69.5983 169.735 69.8377 169.888 70.1027 170.033C70.3676 170.178 70.6497 170.324 70.9318 170.469C71.2139 170.614 71.5045 170.767 71.778 170.921C72.0601 171.075 72.308 171.245 72.5388 171.442C72.7012 171.578 72.8465 171.723 72.9747 171.885C73.103 172.048 73.197 172.218 73.2654 172.415C73.3338 172.602 73.3765 172.816 73.3765 173.038C73.385 173.268 73.3423 173.516 73.2739 173.78C73.1628 174.173 72.9918 174.514 72.7525 174.787C72.5132 175.06 72.2311 175.274 71.9063 175.427C71.5814 175.573 71.2224 175.658 70.8207 175.666C70.4275 175.683 70.0086 175.624 69.5727 175.504C69.1111 175.376 68.7008 175.163 68.3332 174.873C67.9742 174.582 67.6836 174.25 67.4784 173.883L67.3502 174.344C67.2989 174.523 67.222 174.634 67.1194 174.693C67.0169 174.753 66.8545 174.745 66.6408 174.685C66.4271 174.625 66.2903 174.548 66.2305 174.446C66.1706 174.344 66.1621 174.207 66.2134 174.028L66.7091 172.278C66.7604 172.099 66.8374 171.988 66.9399 171.928C67.0425 171.877 67.2049 171.877 67.4186 171.937C67.6152 171.988 67.7263 172.09 67.7605 172.244C67.8802 172.79 68.1195 173.243 68.4957 173.601C68.8718 173.959 69.3419 174.224 69.8975 174.378C70.4702 174.54 70.9403 174.531 71.3165 174.352C71.6926 174.173 71.9404 173.874 72.0601 173.447C72.12 173.225 72.12 173.038 72.043 172.858C71.9746 172.688 71.855 172.526 71.6926 172.38C71.5131 172.218 71.2994 172.073 71.0515 171.937C70.795 171.8 70.53 171.655 70.2394 171.518C69.9573 171.373 69.6667 171.228 69.3761 171.066C69.0855 170.913 68.8119 170.733 68.5555 170.546C68.3503 170.392 68.1708 170.221 68.0084 170.033C67.846 169.846 67.7178 169.632 67.6323 169.402C67.5383 169.171 67.487 168.915 67.4784 168.634C67.4699 168.352 67.5126 168.045 67.6067 167.703C67.7178 167.311 67.8887 166.969 68.1195 166.688C68.3503 166.398 68.641 166.176 68.9743 166.022C69.3162 165.868 69.7009 165.775 70.1368 165.757C70.5728 165.74 71.06 165.809 71.5814 165.954C72.0858 166.099 72.5388 166.321 72.9235 166.628C73.3081 166.935 73.6073 167.311 73.8295 167.763L74.0005 167.149Z" fill="#132631"/>
<path d="M64.9906 169.035C64.7085 169.709 64.3495 170.281 63.9306 170.759C63.5118 171.237 63.0502 171.595 62.5459 171.851C62.0415 172.107 61.5116 172.235 60.9474 172.252C60.3833 172.269 59.8191 172.15 59.2378 171.911C58.6651 171.672 58.1864 171.339 57.8018 170.93C57.4171 170.52 57.1436 170.042 56.9726 169.504C56.8017 168.967 56.7419 168.386 56.7931 167.755C56.8444 167.123 57.0068 166.474 57.2975 165.8C57.5795 165.126 57.9386 164.545 58.3574 164.076C58.7763 163.607 59.2378 163.24 59.7422 162.992C60.2465 162.745 60.7765 162.608 61.3406 162.6C61.9048 162.582 62.4689 162.702 63.0502 162.941C63.6229 163.18 64.1016 163.513 64.4862 163.922C64.8709 164.332 65.1444 164.81 65.3154 165.339C65.4863 165.868 65.5462 166.457 65.4949 167.08C65.4436 167.703 65.2726 168.361 64.9906 169.035ZM63.8366 168.548C64.0588 168.019 64.1956 167.524 64.2469 167.046C64.2982 166.568 64.264 166.141 64.1529 165.74C64.0417 165.348 63.8537 165.006 63.5887 164.708C63.3237 164.409 62.9904 164.178 62.5886 164.008C62.1869 163.837 61.7851 163.76 61.3834 163.777C60.9816 163.794 60.6055 163.905 60.2465 164.102C59.8875 164.298 59.5541 164.58 59.2464 164.947C58.9387 165.314 58.6737 165.757 58.4514 166.287C58.2292 166.816 58.0924 167.311 58.0411 167.789C57.9898 168.267 58.024 168.702 58.1266 169.095C58.2377 169.487 58.4172 169.837 58.6822 170.136C58.9472 170.434 59.2806 170.665 59.6823 170.836C60.0841 171.006 60.4858 171.083 60.8876 171.066C61.2808 171.049 61.6654 170.938 62.0244 170.742C62.3835 170.545 62.7168 170.264 63.0245 169.897C63.3494 169.521 63.6144 169.069 63.8366 168.548Z" fill="#132631"/>
<path d="M52.5792 167.362L53.6904 168.002C53.8443 168.096 53.9383 168.19 53.964 168.301C53.9896 168.403 53.9554 168.548 53.8528 168.719C53.7503 168.89 53.6477 168.992 53.5451 169.026C53.4425 169.06 53.3058 169.026 53.1519 168.932L49.3481 166.73C49.1942 166.637 49.1002 166.543 49.0746 166.432C49.0489 166.321 49.0831 166.184 49.1857 166.014C49.2883 165.843 49.3908 165.74 49.4934 165.706C49.596 165.672 49.7328 165.706 49.8866 165.792L51.5449 166.756L55.1863 160.491L51.7928 158.528L50.485 160.79C50.3909 160.952 50.2884 161.038 50.1687 161.063C50.049 161.089 49.8952 161.046 49.7071 160.935C49.5191 160.824 49.3994 160.713 49.3652 160.602C49.331 160.491 49.3566 160.355 49.4507 160.193L51.032 157.47C51.1346 157.299 51.2372 157.197 51.3398 157.163C51.4423 157.129 51.5791 157.163 51.733 157.257L57.8618 160.807C58.0157 160.901 58.1097 160.995 58.1353 161.106C58.161 161.208 58.1268 161.353 58.0242 161.524C57.9216 161.695 57.8191 161.797 57.7165 161.831C57.6139 161.866 57.4771 161.831 57.3233 161.738L56.2121 161.097L52.5792 167.362Z" fill="#132631"/>
<path d="M44.8866 162.711C45.0319 162.822 45.1089 162.933 45.1174 163.035C45.126 163.146 45.0747 163.282 44.955 163.436C44.8353 163.598 44.7157 163.684 44.6045 163.701C44.4934 163.718 44.3737 163.675 44.2284 163.564L42.1855 162.011C42.0402 161.9 41.9632 161.797 41.9547 161.686C41.9462 161.576 41.9974 161.439 42.1171 161.285C42.2368 161.123 42.3564 161.038 42.4676 161.021C42.5787 161.004 42.6984 161.046 42.8437 161.157L43.5532 161.695L46.6133 157.675C46.8612 157.351 47.0407 157.044 47.1433 156.762C47.2458 156.48 47.2886 156.216 47.2544 155.96C47.2202 155.712 47.1262 155.465 46.9638 155.243C46.8013 155.021 46.5791 154.79 46.2885 154.577C45.9978 154.364 45.7243 154.201 45.4679 154.108C45.2029 154.014 44.9465 153.979 44.6986 154.022C44.4507 154.056 44.2028 154.167 43.9549 154.346C43.707 154.526 43.4677 154.773 43.2112 155.106L40.1511 159.126L40.8606 159.664C41.0059 159.775 41.0828 159.877 41.0914 159.988C41.1085 160.099 41.0486 160.236 40.929 160.389C40.8093 160.551 40.6896 160.637 40.5785 160.654C40.4674 160.671 40.3477 160.62 40.2024 160.517L38.1594 158.964C38.0141 158.853 37.9372 158.75 37.9286 158.64C37.9201 158.529 37.9714 158.392 38.0911 158.238C38.2107 158.076 38.3304 157.991 38.4415 157.974C38.5526 157.957 38.6809 157.999 38.8176 158.11L39.2108 158.409L42.3735 154.261C42.7155 153.809 43.0745 153.467 43.442 153.237C43.8096 153.007 44.1942 152.861 44.5874 152.819C44.9806 152.776 45.3739 152.827 45.7842 152.972C46.1944 153.117 46.6047 153.348 47.0065 153.655C47.4168 153.971 47.7502 154.304 47.9981 154.654C48.2459 155.004 48.3998 155.379 48.4596 155.763C48.5195 156.147 48.4938 156.557 48.3656 156.975C48.2374 157.393 48.0066 157.829 47.6561 158.281L44.4934 162.429L44.8866 162.711Z" fill="#132631"/>
<path d="M36.706 145.837C37.3129 145.939 37.8771 146.127 38.407 146.409C38.937 146.691 39.4242 147.04 39.8602 147.467C40.3047 147.902 40.6295 148.38 40.8261 148.901C41.0227 149.422 41.0996 149.951 41.0569 150.506C41.0141 151.06 40.8517 151.615 40.5696 152.178C40.2876 152.742 39.8944 153.288 39.3729 153.809C38.8601 154.329 38.3216 154.739 37.7574 155.029C37.1932 155.319 36.6376 155.49 36.082 155.541C35.5264 155.592 34.9793 155.524 34.4579 155.345C33.9365 155.166 33.4578 154.858 33.0304 154.44C32.6629 154.082 32.4064 153.706 32.2526 153.322C32.0987 152.938 32.0389 152.537 32.073 152.144L31.7482 152.469C31.62 152.597 31.4918 152.665 31.3807 152.656C31.261 152.648 31.1242 152.571 30.9704 152.417C30.808 152.264 30.731 152.127 30.7225 152.008C30.7139 151.888 30.7738 151.769 30.902 151.632L32.7312 149.763C32.8595 149.626 32.9877 149.567 33.0988 149.575C33.2185 149.575 33.3552 149.661 33.5176 149.814C33.68 149.968 33.757 150.104 33.7655 150.224C33.7741 150.343 33.7142 150.463 33.5775 150.599C33.398 150.787 33.2527 150.992 33.1501 151.223C33.0475 151.453 32.9962 151.7 33.0048 151.948C33.0133 152.204 33.0732 152.469 33.2014 152.742C33.3296 153.015 33.5262 153.279 33.7997 153.544C34.1074 153.843 34.4494 154.056 34.8255 154.184C35.2016 154.312 35.5948 154.355 36.0051 154.304C36.4154 154.252 36.8257 154.116 37.2531 153.885C37.6719 153.655 38.0822 153.339 38.484 152.929C38.8857 152.52 39.1934 152.11 39.4157 151.683C39.6379 151.265 39.7747 150.856 39.826 150.454C39.8773 150.053 39.8345 149.669 39.6978 149.302C39.5695 148.935 39.3473 148.602 39.0396 148.304C38.6635 147.937 38.2532 147.638 37.8087 147.416C37.3642 147.194 36.9026 147.057 36.4239 146.998C36.2872 146.981 36.176 146.929 36.0991 146.836C36.0136 146.742 36.0051 146.58 36.0564 146.358C36.1076 146.144 36.1846 145.999 36.2957 145.922C36.3983 145.846 36.535 145.811 36.706 145.837Z" fill="#132631"/>
<path d="M27.4403 146.426L28.7054 148.013C28.8165 148.15 28.8678 148.278 28.8507 148.389C28.8336 148.5 28.7481 148.611 28.5943 148.739C28.4404 148.867 28.3036 148.918 28.1925 148.91C28.0814 148.901 27.9703 148.824 27.8591 148.679L24.5938 144.574C24.4827 144.429 24.4314 144.309 24.4485 144.198C24.4656 144.087 24.5511 143.976 24.705 143.848C24.8588 143.72 24.9956 143.669 25.1067 143.678C25.2178 143.686 25.329 143.763 25.4401 143.908L26.7052 145.496L32.381 140.989L31.0219 139.282C30.9107 139.137 30.8594 139.018 30.8765 138.907C30.8936 138.796 30.9791 138.685 31.133 138.557C31.2868 138.429 31.4236 138.378 31.5347 138.386C31.6459 138.395 31.757 138.472 31.8681 138.617L35.33 142.969C35.4411 143.114 35.4924 143.234 35.4753 143.345C35.4582 143.456 35.3727 143.567 35.2189 143.695C35.065 143.823 34.9282 143.874 34.8171 143.866C34.706 143.857 34.5949 143.78 34.4838 143.635L33.1246 141.928L27.4403 146.426Z" fill="#132631"/>
<path d="M26.4234 139.163C25.7994 139.547 25.1754 139.803 24.5599 139.948C23.9445 140.093 23.3547 140.119 22.7991 140.025C22.2434 139.94 21.7306 139.735 21.269 139.419C20.8074 139.103 20.4056 138.676 20.0808 138.147C19.756 137.618 19.5594 137.072 19.491 136.509C19.4226 135.954 19.4739 135.408 19.6534 134.87C19.8329 134.332 20.1236 133.829 20.5253 133.342C20.9356 132.856 21.4485 132.429 22.081 132.045C22.705 131.661 23.329 131.405 23.9445 131.26C24.5599 131.123 25.1497 131.097 25.6968 131.183C26.2524 131.277 26.7567 131.473 27.2269 131.789C27.6884 132.105 28.0902 132.531 28.415 133.06C28.7398 133.59 28.9364 134.136 29.0048 134.699C29.0732 135.262 29.0219 135.8 28.8424 136.338C28.6715 136.867 28.3808 137.379 27.9705 137.866C27.5688 138.352 27.0559 138.779 26.4234 139.163ZM25.7737 138.096C26.2609 137.797 26.6627 137.473 26.979 137.115C27.2952 136.756 27.526 136.389 27.6713 136.005C27.8167 135.621 27.8594 135.237 27.8252 134.836C27.791 134.435 27.6543 134.05 27.4235 133.683C27.1927 133.308 26.9106 133.018 26.5772 132.796C26.2439 132.582 25.8763 132.446 25.466 132.395C25.0642 132.344 24.6283 132.378 24.1667 132.497C23.7051 132.617 23.2265 132.821 22.7392 133.12C22.252 133.419 21.8502 133.743 21.534 134.102C21.2177 134.46 20.9869 134.827 20.8416 135.211C20.6963 135.595 20.645 135.988 20.6877 136.381C20.7305 136.773 20.8587 137.157 21.0895 137.533C21.3203 137.908 21.6024 138.207 21.9357 138.42C22.2691 138.634 22.6366 138.77 23.0469 138.821C23.4572 138.873 23.8932 138.839 24.3548 138.719C24.8164 138.6 25.2865 138.395 25.7737 138.096Z" fill="#132631"/>
<path d="M17.6446 131.268L17.8925 131.823C17.9694 131.985 17.9865 132.122 17.9438 132.224C17.901 132.326 17.7899 132.42 17.6104 132.497C17.4309 132.583 17.2856 132.6 17.183 132.565C17.0804 132.531 16.995 132.429 16.918 132.267L16.1915 130.645C16.106 130.449 16.106 130.278 16.2086 130.142L20.8073 123.971L15.4563 126.369L15.8325 127.214C15.9094 127.376 15.9265 127.513 15.8837 127.615C15.841 127.718 15.7299 127.812 15.5504 127.888C15.3709 127.974 15.2256 127.991 15.123 127.957C15.0204 127.922 14.9349 127.82 14.858 127.658L13.8066 125.319C13.7297 125.157 13.7126 125.021 13.7553 124.918C13.7981 124.816 13.9092 124.722 14.0887 124.645C14.2682 124.56 14.4135 124.543 14.5161 124.577C14.6187 124.611 14.7127 124.713 14.7811 124.876L14.9691 125.285L22.3032 121.999C22.4314 121.94 22.5511 121.94 22.6708 121.991C22.7904 122.042 22.893 122.161 22.9785 122.349C23.0383 122.486 23.0554 122.622 23.0298 122.75C23.0041 122.878 22.9443 123.006 22.8503 123.134L17.8327 129.894L23.7905 127.223L23.346 126.233C23.2691 126.07 23.2606 125.934 23.2948 125.831C23.3289 125.729 23.4486 125.635 23.6281 125.558C23.8076 125.473 23.9529 125.456 24.0555 125.49C24.1581 125.524 24.2521 125.627 24.3205 125.789L25.4659 128.349C25.5428 128.511 25.5599 128.648 25.5172 128.75C25.4745 128.853 25.3633 128.947 25.1838 129.023C25.0043 129.109 24.859 129.126 24.7564 129.092C24.6539 129.058 24.5684 128.955 24.4915 128.793L24.2778 128.307L17.6446 131.268Z" fill="#132631"/>
<path d="M13.5499 121.462L13.7893 122.23C13.8406 122.401 13.8406 122.537 13.7893 122.631C13.738 122.725 13.6098 122.802 13.4217 122.861C13.2337 122.921 13.0884 122.921 12.9858 122.878C12.8918 122.827 12.8148 122.716 12.7635 122.546L10.7377 115.923C10.6864 115.752 10.6864 115.615 10.7377 115.521C10.789 115.428 10.9172 115.351 11.1052 115.291L13.0285 114.702C13.208 114.651 13.3448 114.651 13.4474 114.711C13.5499 114.77 13.6354 114.907 13.6953 115.12C13.7636 115.334 13.7636 115.496 13.7209 115.598C13.6696 115.701 13.5585 115.786 13.379 115.837L11.9686 116.264L13.208 120.318L16.0203 119.465L15.439 117.578L14.7466 117.792C14.5671 117.843 14.4304 117.843 14.3278 117.783C14.2252 117.723 14.1397 117.587 14.0799 117.374C14.0115 117.16 14.0115 116.998 14.0628 116.896C14.1141 116.793 14.2252 116.708 14.4047 116.657L16.8152 115.923C16.9947 115.871 17.1315 115.871 17.2341 115.931C17.3367 115.991 17.4221 116.127 17.482 116.341C17.5503 116.554 17.5503 116.716 17.5076 116.819C17.4649 116.921 17.3452 117.007 17.1657 117.058L16.4733 117.271L17.0546 119.166L20.1489 118.227L18.8667 114.028L17.1315 114.557C16.952 114.608 16.8152 114.608 16.7127 114.548C16.6101 114.489 16.5331 114.352 16.4648 114.139C16.3964 113.925 16.3964 113.763 16.4391 113.661C16.4904 113.558 16.6015 113.473 16.781 113.422L19.0291 112.739C19.2257 112.679 19.371 112.679 19.4651 112.722C19.5676 112.773 19.636 112.884 19.6873 113.055L21.7559 119.823C21.8072 119.994 21.8072 120.13 21.7559 120.224C21.7046 120.318 21.5764 120.395 21.3883 120.455C21.2003 120.514 21.055 120.514 20.9524 120.472C20.8584 120.42 20.7814 120.31 20.7302 120.139L20.4908 119.371L13.5499 121.462Z" fill="#132631"/>
<path d="M18.5845 109.624C18.764 109.59 18.9093 109.615 18.9948 109.683C19.0803 109.752 19.1572 109.905 19.1914 110.119C19.2256 110.332 19.2171 110.494 19.1487 110.597C19.0803 110.699 18.9606 110.759 18.7811 110.793L16.439 111.194C16.2595 111.228 16.1142 111.203 16.0287 111.134C15.9432 111.066 15.8748 110.912 15.8321 110.699C15.7894 110.477 15.8748 110.306 16.08 110.187C16.6527 109.871 17.0544 109.453 17.2938 108.932C17.5417 108.412 17.6015 107.814 17.4818 107.123C17.422 106.782 17.3365 106.483 17.2083 106.244C17.0886 105.996 16.9433 105.8 16.7724 105.655C16.6014 105.51 16.4134 105.407 16.2082 105.348C16.0031 105.288 15.7808 105.288 15.55 105.322C15.2081 105.382 14.9431 105.518 14.7722 105.723C14.6012 105.937 14.473 106.193 14.3961 106.508C14.3362 106.764 14.302 107.046 14.2849 107.345C14.2678 107.644 14.2593 107.959 14.2507 108.275C14.2422 108.599 14.2251 108.915 14.208 109.231C14.1909 109.547 14.1396 109.854 14.0627 110.136C14.0114 110.341 13.943 110.537 13.849 110.716C13.755 110.895 13.6438 111.058 13.4985 111.203C13.3532 111.348 13.1823 111.467 12.9857 111.57C12.7805 111.672 12.5412 111.749 12.2676 111.792C11.8573 111.86 11.4812 111.851 11.1308 111.757C10.7803 111.663 10.464 111.501 10.1905 111.271C9.91696 111.04 9.68617 110.75 9.50666 110.4C9.32716 110.05 9.19039 109.649 9.11346 109.205C9.03653 108.736 9.04508 108.267 9.1562 107.814C9.25878 107.362 9.43828 106.961 9.68617 106.611L9.20749 106.696C9.02798 106.73 8.89122 106.705 8.79719 106.636C8.70316 106.568 8.63478 106.415 8.60059 106.201C8.5664 105.979 8.57495 105.826 8.64333 105.723C8.70316 105.621 8.83138 105.561 9.01089 105.527L10.8059 105.22C10.9854 105.186 11.1222 105.211 11.2162 105.279C11.3103 105.348 11.3787 105.501 11.4128 105.715C11.447 105.911 11.4043 106.056 11.2761 106.159C10.8316 106.5 10.5324 106.91 10.37 107.405C10.2076 107.9 10.1734 108.429 10.2674 109.001C10.37 109.581 10.5837 110.008 10.9085 110.272C11.2333 110.537 11.6094 110.631 12.0539 110.554C12.2762 110.52 12.4471 110.426 12.5754 110.289C12.695 110.153 12.7976 109.974 12.8574 109.769C12.9258 109.547 12.9686 109.282 12.9857 108.992C13.0027 108.702 13.0113 108.403 13.0198 108.079C13.0284 107.763 13.0369 107.439 13.054 107.106C13.0711 106.773 13.1053 106.449 13.1737 106.141C13.225 105.894 13.3019 105.655 13.4045 105.425C13.5071 105.203 13.6438 104.998 13.8063 104.81C13.9772 104.631 14.1824 104.469 14.4302 104.341C14.6781 104.213 14.9773 104.11 15.3278 104.059C15.7295 103.991 16.1142 103.999 16.4732 104.085C16.8322 104.17 17.157 104.332 17.4476 104.571C17.7383 104.81 17.9776 105.117 18.1828 105.51C18.3879 105.902 18.5332 106.363 18.6273 106.893C18.7127 107.413 18.7042 107.908 18.5931 108.386C18.4819 108.864 18.2682 109.299 17.952 109.692L18.5845 109.624Z" fill="#132631"/>
<ellipse cx="14.9185" cy="87.5721" rx="1.51474" ry="1.51672" transform="rotate(17.5227 14.9185 87.5721)" fill="#132631"/>
<ellipse cx="169.917" cy="101.573" rx="1.51474" ry="1.51672" transform="rotate(17.5227 169.917 101.573)" fill="#132631"/>
<circle cx="92.5996" cy="93.5" r="58" stroke="#132631" stroke-width="2"/>
</svg>
