<svg width="116" height="116" viewBox="0 0 116 116" fill="none" xmlns="http://www.w3.org/2000/svg">
<path d="M11.3025 29.7733L10.6428 30.6933C10.5734 30.7888 10.5039 30.8669 10.4258 30.919C10.3564 30.9711 10.2696 30.9971 10.1741 30.9971C10.0786 30.9971 9.96577 30.9624 9.83558 30.9016C9.70538 30.8409 9.54914 30.7454 9.36686 30.6152C9.18459 30.485 9.03703 30.3635 8.94155 30.268C8.84607 30.1725 8.77663 30.0684 8.74191 29.9816C8.70719 29.8948 8.69851 29.7993 8.72455 29.7212C8.75059 29.6344 8.80267 29.5476 8.87211 29.4434L12.0837 24.9473C12.5263 24.3223 12.9777 23.8362 13.4204 23.489C13.863 23.1418 14.3231 22.9075 14.7657 22.7946C15.2171 22.6818 15.6598 22.6818 16.1024 22.786C16.5451 22.8901 16.9704 23.0984 17.3871 23.4022C17.8731 23.7494 18.203 24.1661 18.3592 24.6435C18.5154 25.1209 18.5502 25.633 18.4547 26.1711C19.0536 25.685 19.6785 25.3986 20.3295 25.3292C20.9805 25.2597 21.6489 25.468 22.3259 25.9541C22.8207 26.31 23.1939 26.7006 23.4456 27.1259C23.6973 27.5512 23.8362 28.0112 23.8622 28.506C23.8883 29.0008 23.8015 29.5215 23.5932 30.0684C23.3848 30.6152 23.0811 31.1794 22.6557 31.7783L19.1057 36.7519C19.0362 36.8473 18.9668 36.9255 18.8887 36.9775C18.8106 37.0296 18.7324 37.0557 18.637 37.0557C18.5415 37.0557 18.4286 37.0209 18.2984 36.9602C18.1682 36.8994 18.012 36.8039 17.8297 36.6738C17.6475 36.5436 17.4999 36.422 17.4044 36.3266C17.3003 36.2224 17.2395 36.1269 17.2048 36.0401C17.1701 35.9533 17.1614 35.8578 17.1874 35.7797C17.2135 35.7016 17.2569 35.6061 17.335 35.502L17.9946 34.5819L11.3025 29.7733ZM16.033 28.046C16.4062 27.5252 16.5885 27.0738 16.5885 26.6919C16.5885 26.31 16.3889 25.9888 16.007 25.7111C15.6164 25.4333 15.2431 25.3552 14.8959 25.4767C14.5487 25.5982 14.1842 25.9281 13.8023 26.4575L12.9256 27.6814L15.1477 29.2698L16.033 28.046ZM20.642 30.6846C21.05 30.1118 21.2583 29.617 21.2496 29.2004C21.2409 28.7838 21.0413 28.4366 20.642 28.1588C20.208 27.855 19.8001 27.7595 19.4008 27.8897C19.0015 28.0199 18.6022 28.3671 18.1943 28.94L17.0138 30.5978L19.4615 32.3425L20.642 30.6846Z" fill="#C4C9CC"/>
<path d="M23.8622 15.6424L21.8832 17.1701C21.7877 17.2395 21.7009 17.2916 21.6142 17.3263C21.5274 17.3524 21.4406 17.3524 21.3538 17.3263C21.267 17.3003 21.1715 17.2308 21.0586 17.1354C20.9458 17.0399 20.833 16.901 20.6941 16.7187C20.5552 16.5365 20.451 16.3889 20.3903 16.2587C20.3209 16.1285 20.2861 16.0243 20.2775 15.9202C20.2688 15.816 20.2948 15.7379 20.3382 15.6598C20.3903 15.5904 20.4597 15.5122 20.5552 15.4428L26.6224 10.7817C26.7179 10.7123 26.8047 10.6602 26.8915 10.6255C26.9783 10.5994 27.0651 10.5994 27.1519 10.6255C27.2474 10.6602 27.3429 10.721 27.447 10.8164C27.5512 10.9119 27.6727 11.0508 27.8116 11.2331C27.9505 11.4153 28.0546 11.5629 28.1154 11.6931C28.1848 11.8233 28.2195 11.9275 28.2195 12.0229C28.2282 12.1184 28.2022 12.2052 28.1501 12.2746C28.098 12.3441 28.0286 12.4222 27.9331 12.4916L25.9541 14.0193L30.971 20.5466L33.1237 18.8887C33.2191 18.8193 33.3059 18.7672 33.3927 18.7325C33.4795 18.7064 33.5663 18.7064 33.6531 18.7325C33.7486 18.7672 33.8441 18.8279 33.9482 18.9234C34.0524 19.0189 34.1739 19.1578 34.3128 19.3401C34.4517 19.5223 34.5558 19.6699 34.6166 19.8001C34.686 19.9303 34.7207 20.0344 34.7207 20.1299C34.7294 20.2254 34.7034 20.3122 34.6513 20.3816C34.5992 20.4598 34.5298 20.5292 34.4343 20.5986L28.0373 25.5201C27.9418 25.5896 27.855 25.6416 27.7682 25.6764C27.6814 25.7024 27.5946 25.7024 27.5078 25.6764C27.421 25.6503 27.3255 25.5809 27.2127 25.4854C27.1085 25.3899 26.987 25.251 26.8481 25.0688C26.7092 24.8865 26.6051 24.7389 26.5443 24.6087C26.4749 24.4785 26.4402 24.3657 26.4315 24.2702C26.4228 24.1747 26.4488 24.0879 26.4922 24.0185C26.5443 23.9491 26.6138 23.8709 26.7092 23.8015L28.8618 22.1523L23.8622 15.6424Z" fill="#C4C9CC"/>
<path d="M37.9497 7.48336L36.1529 8.16039L37.1598 10.8598C37.2466 11.0855 37.2119 11.2765 37.0643 11.4414C36.9168 11.6063 36.6564 11.7539 36.2831 11.9014C35.9099 12.0403 35.6408 12.0837 35.4672 12.0403C35.2936 11.9969 35.1634 11.858 35.0766 11.641L33.5056 7.45732C33.4188 7.22296 33.4101 7.04068 33.4708 6.90181C33.5316 6.76293 33.6792 6.65009 33.9135 6.56329L42.8625 3.21286C43.0968 3.12606 43.2791 3.11738 43.418 3.17814C43.5568 3.2389 43.6697 3.38646 43.7478 3.62082L45.3189 7.80451C45.4057 8.03019 45.3709 8.22115 45.2234 8.38606C45.0758 8.55098 44.8154 8.70722 44.4422 8.8461C44.069 8.98497 43.7999 9.02837 43.6263 8.98497C43.4527 8.94158 43.3225 8.8027 43.2357 8.5857L42.2288 5.88626L40.4321 6.55461L43.2791 14.1669L45.423 13.3683C45.5359 13.3249 45.64 13.2989 45.7268 13.2989C45.8136 13.2989 45.9004 13.3249 45.9785 13.377C46.0567 13.4377 46.1348 13.5245 46.2042 13.6461C46.2737 13.7676 46.3518 13.9325 46.4299 14.1495C46.508 14.3578 46.5601 14.5401 46.5861 14.679C46.6122 14.8178 46.6122 14.9394 46.5948 15.0262C46.5688 15.1216 46.5254 15.1911 46.4559 15.2432C46.3865 15.3039 46.2997 15.3473 46.1869 15.3907L39.4166 17.9252C39.3037 17.9686 39.1996 17.9947 39.1128 17.9947C39.026 17.9947 38.9392 17.9686 38.861 17.9166C38.7829 17.8645 38.7135 17.7777 38.6354 17.6475C38.5572 17.5173 38.4878 17.3524 38.4097 17.144C38.3316 16.9357 38.2795 16.7535 38.2535 16.6146C38.2274 16.4757 38.2274 16.3542 38.2448 16.2587C38.2621 16.1632 38.3142 16.0851 38.3836 16.033C38.4531 15.9809 38.5399 15.9289 38.6527 15.8855L40.7967 15.0869L37.9497 7.48336Z" fill="#C4C9CC"/>
<path d="M53.0787 1.48557C53.2002 1.47689 53.3043 1.48557 53.3911 1.51161C53.4779 1.53765 53.5474 1.58105 53.6081 1.65917C53.6689 1.73729 53.7123 1.84145 53.747 1.98901C53.7817 2.12788 53.8078 2.31016 53.8164 2.53584C53.8338 2.76151 53.8251 2.94379 53.8164 3.09135C53.7991 3.23891 53.773 3.34307 53.721 3.42986C53.6689 3.50798 53.6081 3.56874 53.5213 3.60346C53.4345 3.63818 53.3391 3.65554 53.2175 3.66422L51.9763 3.74234L52.9137 9.88768L54.181 5.27C54.2157 5.12244 54.2938 5.00092 54.4154 4.89676C54.5369 4.7926 54.7799 4.73184 55.1445 4.7058C55.509 4.67976 55.7694 4.7058 55.9257 4.76656C56.0819 4.82732 56.1774 4.93148 56.2294 5.06168L58.0609 9.56653L58.2519 3.35174L57.1669 3.42118C57.0454 3.42986 56.9412 3.42118 56.8544 3.39514C56.7676 3.3691 56.6982 3.32571 56.6374 3.24759C56.5766 3.16947 56.5332 3.06531 56.4985 2.92643C56.4638 2.78755 56.4378 2.60528 56.4291 2.3796C56.4117 2.15392 56.4204 1.97165 56.4291 1.82409C56.4378 1.67653 56.4812 1.57237 56.5246 1.48557C56.5766 1.39878 56.6374 1.33802 56.7242 1.31198C56.8023 1.27726 56.9065 1.2599 57.028 1.25122L60.986 0.999501C61.1075 0.990821 61.2117 0.999501 61.2985 1.02554C61.3853 1.05158 61.4547 1.09498 61.5155 1.1731C61.5762 1.25122 61.6196 1.35538 61.6544 1.50293C61.6891 1.64181 61.7151 1.82409 61.7238 2.04977C61.7325 2.27544 61.7325 2.45772 61.7238 2.60528C61.7151 2.75283 61.6717 2.85699 61.6283 2.94379C61.5849 3.02191 61.5155 3.08267 61.4287 3.11739C61.3506 3.15211 61.2464 3.16947 61.1249 3.17815L60.5347 3.21287L60.0746 13.2121C60.0659 13.3423 60.0486 13.4464 60.0052 13.5419C59.9618 13.6374 59.901 13.7068 59.8056 13.7676C59.7101 13.8283 59.5886 13.8717 59.4323 13.9065C59.2761 13.9412 59.0764 13.9672 58.8334 13.9759C58.356 14.0019 58.0088 13.9759 57.8005 13.8717C57.5922 13.7676 57.4359 13.6113 57.3491 13.377L55.3528 8.49891L53.9466 13.5853C53.9119 13.7068 53.8598 13.811 53.7991 13.9065C53.7383 14.0019 53.6515 14.0801 53.5387 14.1408C53.4259 14.2016 53.287 14.2537 53.1221 14.2884C52.9571 14.3231 52.7488 14.3491 52.5145 14.3665C52.2714 14.3839 52.0805 14.3839 51.9242 14.3665C51.768 14.3491 51.6378 14.3231 51.5423 14.271C51.4468 14.2276 51.3687 14.1582 51.3253 14.0714C51.2819 13.9846 51.2472 13.8804 51.2212 13.7502L49.572 3.87254L49.0425 3.90726C48.921 3.91594 48.8168 3.90726 48.73 3.88122C48.6432 3.85518 48.5738 3.81178 48.513 3.73366C48.4523 3.66422 48.4089 3.55138 48.3742 3.4125C48.3395 3.27363 48.3134 3.09135 48.3047 2.86567C48.2874 2.64 48.2961 2.45772 48.3047 2.31016C48.3134 2.1626 48.3481 2.05844 48.4002 1.97165C48.4436 1.88485 48.513 1.82409 48.5998 1.79805C48.6866 1.76333 48.7821 1.74597 48.9036 1.73729L53.0787 1.48557Z" fill="#C4C9CC"/>
<path d="M67.2702 3.9767L66.2721 3.73366C66.1592 3.70762 66.0551 3.66422 65.9856 3.62082C65.9075 3.57742 65.8554 3.50798 65.8207 3.42118C65.786 3.33439 65.7773 3.22155 65.786 3.07399C65.7947 2.92643 65.8207 2.75283 65.8815 2.52716C65.9335 2.31016 65.9856 2.12788 66.0464 1.99769C66.1071 1.86749 66.1679 1.76333 66.2373 1.70257C66.3068 1.63313 66.3849 1.59841 66.4804 1.58973C66.5759 1.58105 66.6713 1.58973 66.7928 1.62445L76.1931 3.87254C76.4362 3.9333 76.5924 4.02009 76.6705 4.15029C76.7487 4.28049 76.7573 4.46277 76.7053 4.7058L75.9588 7.8132C75.9067 8.04755 75.7591 8.18643 75.5421 8.23851C75.3165 8.29059 74.9866 8.26455 74.544 8.16039C74.327 8.10831 74.1447 8.05623 74.0058 7.99547C73.8669 7.93472 73.7628 7.87396 73.6933 7.80452C73.6239 7.73508 73.5805 7.65696 73.5631 7.56148C73.5458 7.47468 73.5545 7.37052 73.5805 7.24901L73.9537 5.68663L69.8308 4.69712L69.2059 7.30108L71.723 7.9C71.8359 7.92603 71.94 7.96943 72.0094 8.02151C72.0876 8.07359 72.1396 8.15171 72.1657 8.24719C72.2004 8.34267 72.2091 8.46419 72.2004 8.61174C72.1744 8.76798 72.1483 8.95026 72.0962 9.16726C72.0442 9.38425 71.9921 9.56653 71.9313 9.69673C71.8706 9.83561 71.8098 9.93108 71.7404 10.0005C71.6709 10.07 71.5841 10.1134 71.4973 10.1307C71.4105 10.1481 71.3064 10.1394 71.1849 10.1134L68.6677 9.51445L67.9559 12.4916L72.183 13.4985L72.6778 11.4153C72.7299 11.181 72.8688 11.0421 73.0944 10.99C73.3201 10.9379 73.6586 10.964 74.1273 11.0768C74.3617 11.1289 74.5526 11.1897 74.6915 11.2504C74.8391 11.3112 74.9519 11.3806 75.0214 11.4501C75.0995 11.5195 75.1429 11.6063 75.1602 11.6931C75.1776 11.7799 75.1689 11.8841 75.1429 12.0056L74.2749 15.6338C74.2141 15.8768 74.1273 16.033 73.9971 16.1111C73.8669 16.1893 73.6847 16.1979 73.4416 16.1459L63.833 13.8457C63.7202 13.8197 63.616 13.7763 63.5466 13.7329C63.4685 13.6895 63.4164 13.62 63.3817 13.5332C63.3469 13.4464 63.3383 13.3336 63.3469 13.186C63.3556 13.0472 63.3903 12.8649 63.4424 12.6392C63.4945 12.4222 63.5466 12.2399 63.6073 12.1097C63.6681 11.9795 63.7289 11.8754 63.7983 11.8146C63.8677 11.7452 63.9458 11.7105 64.0413 11.7018C64.1281 11.6931 64.2323 11.7018 64.3538 11.7365L65.352 11.9795L67.2702 3.9767Z" fill="#C4C9CC"/>
<path d="M82.8159 8.91554L81.9306 8.39475C81.8264 8.33399 81.7483 8.27323 81.6875 8.20379C81.6268 8.13435 81.592 8.05623 81.592 7.96075C81.5834 7.86527 81.6094 7.75244 81.6615 7.62224C81.7136 7.48336 81.7917 7.32712 81.9132 7.12749C82.026 6.93653 82.1302 6.78029 82.2257 6.66745C82.3212 6.55461 82.408 6.48518 82.4948 6.44178C82.5816 6.39838 82.6684 6.3897 82.7552 6.40706C82.842 6.42442 82.9374 6.46782 83.0416 6.52857L91.3656 11.4327C91.5826 11.5542 91.7041 11.6931 91.7388 11.8407C91.7735 11.9882 91.7301 12.1618 91.6086 12.3788L89.9855 15.139C89.864 15.3473 89.6904 15.4428 89.456 15.4254C89.2303 15.4081 88.9179 15.2866 88.5273 15.0609C88.3363 14.948 88.1801 14.8439 88.0586 14.7397C87.9457 14.6442 87.8589 14.5488 87.8155 14.462C87.7721 14.3752 87.7548 14.2797 87.7634 14.1929C87.7721 14.1061 87.8155 14.0019 87.8763 13.8978L88.6922 12.509L85.038 10.3564L83.6752 12.6652L85.9059 13.9759C86.0101 14.0367 86.0882 14.1061 86.1403 14.1755C86.1924 14.245 86.2271 14.3318 86.2271 14.4359C86.2271 14.5401 86.2011 14.6529 86.149 14.8005C86.0969 14.9394 86.0101 15.1043 85.8973 15.3039C85.7844 15.5036 85.6803 15.6511 85.5848 15.764C85.4893 15.8768 85.4025 15.9549 85.307 15.9983C85.2202 16.0417 85.1248 16.0591 85.038 16.0504C84.9425 16.0417 84.847 15.9983 84.7428 15.9375L82.5121 14.6269L80.9584 17.2656L84.6994 19.4703L85.7844 17.6301C85.9059 17.4218 86.0795 17.3263 86.3139 17.3437C86.5396 17.361 86.8607 17.4912 87.2774 17.7343C87.4857 17.8558 87.6506 17.9686 87.7721 18.0641C87.8936 18.1596 87.9804 18.2638 88.0325 18.3506C88.0846 18.446 88.1019 18.5328 88.0933 18.6283C88.0846 18.7151 88.0412 18.8193 87.9804 18.9234L86.0882 22.135C85.958 22.352 85.8278 22.4735 85.6803 22.5082C85.5327 22.5429 85.3591 22.4995 85.1421 22.378L76.6358 17.3697C76.5317 17.309 76.4536 17.2482 76.3928 17.1788C76.332 17.1093 76.2973 17.0312 76.2973 16.9357C76.2886 16.8403 76.3147 16.7274 76.3668 16.5972C76.4188 16.4583 76.497 16.3021 76.6185 16.1025C76.7313 15.9115 76.8355 15.7553 76.931 15.6511C77.0264 15.5383 77.1132 15.4688 77.2 15.4254C77.2868 15.382 77.3736 15.3734 77.4604 15.3907C77.5472 15.4081 77.6427 15.4515 77.7469 15.5122L78.6322 16.033L82.8159 8.91554Z" fill="#C4C9CC"/>
<path d="M95.9746 17.8992L95.4972 17.3784C95.419 17.2916 95.3583 17.2048 95.3236 17.1267C95.2888 17.0486 95.2802 16.9618 95.2975 16.8663C95.3149 16.7708 95.3756 16.6753 95.4624 16.5625C95.5492 16.4497 95.6794 16.3108 95.8444 16.1632C96.0093 16.007 96.1568 15.8942 96.2783 15.816C96.3999 15.7379 96.504 15.6945 96.5995 15.6772C96.695 15.6598 96.7818 15.6772 96.8599 15.7206C96.938 15.764 97.0161 15.8334 97.1029 15.9202L98.9951 17.986C99.0819 18.0815 99.1514 18.1856 99.1861 18.2898C99.2208 18.394 99.2208 18.4981 99.1861 18.6196L96.7991 26.7787L100.775 23.1332L100.141 22.4474C100.063 22.3606 100.002 22.2739 99.9673 22.1957C99.9326 22.1176 99.9239 22.0308 99.9413 21.9353C99.9586 21.8399 100.019 21.7444 100.106 21.6315C100.193 21.5187 100.323 21.3885 100.488 21.2323C100.653 21.076 100.801 20.9632 100.922 20.8851C101.044 20.807 101.148 20.7636 101.252 20.7462C101.347 20.7288 101.434 20.7462 101.512 20.7896C101.59 20.833 101.669 20.8938 101.755 20.9892L104.446 23.9143C104.524 24.0011 104.585 24.0879 104.62 24.1661C104.654 24.2442 104.663 24.3397 104.637 24.4265C104.611 24.5133 104.559 24.6261 104.472 24.7389C104.385 24.8518 104.255 24.9906 104.09 25.1382C103.925 25.2944 103.778 25.4073 103.656 25.4854C103.535 25.5635 103.431 25.6069 103.335 25.6243C103.24 25.6416 103.153 25.6243 103.075 25.5809C102.997 25.5375 102.918 25.468 102.832 25.3812L102.424 24.9386L95.0979 31.6568C94.933 31.813 94.7507 31.8651 94.5511 31.8217C94.3514 31.7783 94.0997 31.596 93.7959 31.2662C93.6831 31.1447 93.5963 31.0232 93.5268 30.919C93.4574 30.8148 93.4227 30.7107 93.3966 30.6152C93.3706 30.5197 93.3619 30.4242 93.3706 30.3288C93.3793 30.2333 93.4053 30.1378 93.4314 30.0337L96.0266 21.1802L91.5652 25.2684L92.329 26.1017C92.4071 26.1885 92.4679 26.2753 92.5026 26.3534C92.5373 26.4315 92.546 26.527 92.52 26.6138C92.4939 26.7006 92.4418 26.8134 92.355 26.9263C92.2683 27.0391 92.1381 27.178 91.9731 27.3255C91.8082 27.4818 91.6607 27.5946 91.5391 27.6727C91.4176 27.7508 91.3135 27.7942 91.218 27.8116C91.1225 27.829 91.0357 27.8116 90.9576 27.7682C90.8795 27.7248 90.8014 27.6554 90.7146 27.5686L87.8242 24.4178C87.746 24.331 87.6853 24.2442 87.6506 24.1661C87.6158 24.0879 87.6072 24.0011 87.6245 23.9057C87.6419 23.8102 87.7026 23.7147 87.7894 23.6019C87.8762 23.489 88.0064 23.3502 88.1714 23.2026C88.3363 23.0464 88.4838 22.9335 88.6053 22.8554C88.7269 22.7773 88.831 22.7339 88.9265 22.7165C89.022 22.6992 89.1088 22.7165 89.1869 22.7599C89.265 22.8033 89.3431 22.8728 89.4299 22.9596L89.9073 23.4804L95.9746 17.8992Z" fill="#C4C9CC"/>
<path d="M102.632 48.8603C102.398 48.895 102.215 48.8429 102.085 48.6954C101.955 48.5478 101.86 48.244 101.781 47.8013C101.712 47.3587 101.712 47.0288 101.781 46.8292C101.851 46.6209 102.007 46.4994 102.241 46.4646L105.731 45.8918C105.965 45.857 106.147 45.9004 106.278 46.0306C106.399 46.1608 106.495 46.4039 106.547 46.7424C106.59 46.9854 106.59 47.1851 106.547 47.3413C106.503 47.4975 106.416 47.6191 106.278 47.7232C105.627 48.218 105.158 48.7474 104.88 49.329C104.602 49.9019 104.516 50.5442 104.628 51.2559C104.733 51.8809 104.932 52.3322 105.245 52.6013C105.548 52.8704 105.922 52.9745 106.364 52.9051C106.659 52.853 106.885 52.7402 107.05 52.5579C107.215 52.3756 107.337 52.15 107.423 51.8722C107.51 51.5684 107.571 51.2299 107.597 50.848C107.623 50.4661 107.649 50.0668 107.666 49.6501C107.684 49.2335 107.71 48.8082 107.753 48.3829C107.797 47.9576 107.883 47.5496 108.014 47.159C108.1 46.8986 108.213 46.6469 108.352 46.4126C108.491 46.1782 108.665 45.9699 108.873 45.7703C109.081 45.5706 109.333 45.4144 109.628 45.2842C109.923 45.154 110.262 45.0498 110.652 44.9891C111.208 44.8936 111.737 44.9109 112.232 45.0325C112.727 45.154 113.169 45.3623 113.569 45.6661C113.968 45.9699 114.289 46.3605 114.567 46.8205C114.836 47.2892 115.018 47.8274 115.122 48.435C115.218 48.9992 115.209 49.5286 115.105 50.0321C115.001 50.5355 114.81 50.9868 114.532 51.3861L114.923 51.3254C115.157 51.2906 115.339 51.3427 115.47 51.4903C115.6 51.6378 115.695 51.9416 115.773 52.3843C115.851 52.827 115.843 53.1568 115.773 53.3565C115.704 53.5648 115.548 53.6863 115.313 53.721L112.449 54.1897C112.215 54.2244 112.032 54.181 111.902 54.0508C111.781 53.9206 111.685 53.6776 111.633 53.3391C111.598 53.1047 111.59 52.9138 111.624 52.7749C111.659 52.636 111.729 52.5232 111.824 52.4277C112.275 52.0284 112.605 51.5424 112.805 50.9868C113.013 50.4313 113.057 49.8064 112.944 49.1033C112.857 48.5825 112.657 48.2006 112.353 47.9576C112.041 47.7145 111.685 47.6277 111.295 47.6972C111.086 47.7319 110.93 47.8274 110.817 47.9749C110.704 48.1225 110.626 48.3221 110.574 48.5652C110.513 48.8516 110.479 49.1901 110.479 49.5807C110.479 49.9713 110.461 50.3879 110.453 50.8219C110.435 51.2559 110.4 51.6986 110.348 52.15C110.296 52.6013 110.183 53.0266 110.019 53.4346C109.914 53.695 109.776 53.9467 109.611 54.181C109.446 54.4154 109.246 54.6324 109.003 54.832C108.76 55.023 108.482 55.1879 108.152 55.3268C107.823 55.4657 107.449 55.5698 107.024 55.6393C106.46 55.7347 105.93 55.7261 105.427 55.6219C104.923 55.5177 104.481 55.3181 104.09 55.0056C103.7 54.7018 103.361 54.2852 103.083 53.7818C102.806 53.2697 102.606 52.6534 102.493 51.9156C102.302 50.7525 102.493 49.7109 103.066 48.7822L102.632 48.8603Z" fill="#C4C9CC"/>
<path d="M113.82 59.7101C113.838 59.5886 113.864 59.4931 113.898 59.4063C113.933 59.3282 113.994 59.2588 114.081 59.2154C114.168 59.172 114.28 59.1459 114.419 59.1372C114.567 59.1286 114.749 59.1372 114.975 59.1633C115.2 59.1893 115.383 59.224 115.522 59.2674C115.661 59.3108 115.765 59.3629 115.843 59.4237C115.921 59.4844 115.964 59.5626 115.982 59.6494C115.999 59.7362 115.999 59.8403 115.99 59.9618L115.53 63.8938C115.513 64.0153 115.487 64.1108 115.452 64.1976C115.417 64.2757 115.348 64.3365 115.261 64.3799C115.174 64.4233 115.062 64.4493 114.914 64.458C114.766 64.4667 114.584 64.458 114.367 64.432C114.142 64.4059 113.959 64.3712 113.82 64.3278C113.681 64.2844 113.577 64.2323 113.508 64.1716C113.438 64.1108 113.395 64.0327 113.378 63.9459C113.36 63.8591 113.36 63.7549 113.369 63.6334L113.465 62.8262L107.684 62.1492C107.258 62.0971 106.894 62.1144 106.581 62.1839C106.269 62.2533 106 62.3748 105.783 62.5397C105.566 62.7047 105.392 62.913 105.271 63.1647C105.149 63.4164 105.071 63.7028 105.036 64.0153C105.002 64.3278 105.01 64.6229 105.071 64.9007C105.132 65.1784 105.253 65.4215 105.427 65.6298C105.601 65.8468 105.835 66.0204 106.121 66.1593C106.408 66.2981 106.764 66.3936 107.189 66.4457L112.97 67.1227L113.065 66.3155C113.083 66.194 113.109 66.0985 113.143 66.0117C113.178 65.9336 113.239 65.8641 113.326 65.8207C113.412 65.7773 113.525 65.7513 113.664 65.7426C113.812 65.7339 113.994 65.7426 114.22 65.7687C114.445 65.7947 114.628 65.8294 114.766 65.8728C114.905 65.9162 115.01 65.9683 115.088 66.0291C115.166 66.0898 115.209 66.1679 115.227 66.2547C115.244 66.3415 115.244 66.4457 115.235 66.5672L114.775 70.4992C114.758 70.6207 114.732 70.7162 114.697 70.803C114.662 70.8811 114.593 70.9419 114.506 70.9853C114.419 71.0287 114.306 71.0547 114.159 71.0634C114.011 71.0721 113.829 71.0634 113.603 71.0373C113.378 71.0113 113.195 70.9766 113.065 70.9332C112.926 70.8898 112.822 70.8377 112.753 70.7769C112.683 70.7162 112.64 70.6381 112.623 70.5513C112.605 70.4645 112.605 70.3603 112.614 70.2388L112.675 69.744L106.686 69.041C105.948 68.9542 105.305 68.7719 104.767 68.4855C104.229 68.199 103.786 67.8258 103.439 67.3658C103.101 66.9057 102.858 66.3676 102.727 65.76C102.597 65.1524 102.571 64.4754 102.658 63.7376C102.745 62.9998 102.918 62.3488 103.188 61.7846C103.457 61.2204 103.812 60.7517 104.246 60.3785C104.68 60.0052 105.201 59.7448 105.791 59.5973C106.382 59.441 107.05 59.4063 107.788 59.4931L113.777 60.1875L113.82 59.7101Z" fill="#C4C9CC"/>
<path d="M109.802 78.6756L110.774 76.3668C110.817 76.2539 110.869 76.1671 110.93 76.0977C110.991 76.0283 111.06 75.9849 111.156 75.9675C111.251 75.9501 111.364 75.9588 111.503 75.9849C111.642 76.0196 111.815 76.0803 112.024 76.1671C112.232 76.2539 112.397 76.3407 112.518 76.4189C112.64 76.497 112.727 76.5751 112.779 76.6532C112.831 76.7313 112.857 76.8181 112.848 76.9049C112.84 76.9917 112.813 77.0959 112.77 77.2087L109.802 84.2568C109.758 84.3696 109.706 84.4564 109.645 84.5259C109.585 84.5953 109.506 84.6387 109.411 84.656C109.316 84.6734 109.194 84.6647 109.055 84.63C108.916 84.5953 108.743 84.5345 108.534 84.4477C108.326 84.3609 108.161 84.2741 108.04 84.196C107.918 84.1179 107.831 84.0398 107.779 83.9617C107.727 83.8835 107.71 83.7967 107.71 83.7099C107.718 83.6231 107.744 83.519 107.788 83.4148L108.76 81.106L101.174 77.9118L100.124 80.4116C100.08 80.5244 100.019 80.6112 99.9673 80.6807C99.9065 80.7501 99.8284 80.7935 99.7329 80.8109C99.6375 80.8282 99.5159 80.8195 99.3771 80.7848C99.2382 80.7501 99.0646 80.6893 98.8563 80.6025C98.6479 80.5157 98.483 80.429 98.3615 80.3508C98.24 80.2727 98.1532 80.1946 98.1011 80.1165C98.049 80.0384 98.0317 79.9516 98.0317 79.8648C98.0404 79.778 98.0664 79.6738 98.1098 79.5696L101.243 72.131C101.287 72.0182 101.339 71.9314 101.399 71.8619C101.46 71.7925 101.538 71.7491 101.625 71.7317C101.721 71.7144 101.833 71.723 101.972 71.7491C102.111 71.7751 102.285 71.8446 102.493 71.9314C102.701 72.0182 102.866 72.105 102.988 72.1831C103.109 72.2612 103.196 72.3393 103.248 72.4174C103.3 72.4956 103.326 72.5824 103.318 72.6692C103.309 72.756 103.283 72.8601 103.24 72.9643L102.189 75.4641L109.802 78.6756Z" fill="#C4C9CC"/>
<path d="M102.137 92.0166L103.344 90.5236L101.104 88.7095C100.913 88.562 100.844 88.3797 100.887 88.1627C100.931 87.9457 101.078 87.6853 101.33 87.3728C101.582 87.0604 101.79 86.8868 101.964 86.8347C102.137 86.7826 102.32 86.8347 102.502 86.9822L105.982 89.7858C106.173 89.9421 106.278 90.0896 106.295 90.2459C106.312 90.4021 106.243 90.567 106.087 90.758L100.089 98.1966C99.9326 98.3876 99.785 98.4917 99.6288 98.5091C99.4812 98.5265 99.3076 98.457 99.1167 98.3008L95.636 95.4972C95.4451 95.3496 95.3756 95.1674 95.419 94.9504C95.4624 94.7334 95.61 94.473 95.8617 94.1605C96.1134 93.848 96.3217 93.6744 96.4953 93.6223C96.6689 93.5703 96.8512 93.6223 97.0335 93.7699L99.2729 95.5753L100.479 94.0824L94.1518 88.9786L92.7109 90.758C92.6328 90.8535 92.5634 90.9229 92.4852 90.975C92.4071 91.0184 92.3203 91.0444 92.2249 91.0358C92.1294 91.0271 92.0165 90.9837 91.895 90.9142C91.7735 90.8448 91.6173 90.7406 91.4437 90.5931C91.2701 90.4542 91.1312 90.324 91.0357 90.2198C90.9402 90.1157 90.8795 90.0115 90.8534 89.9247C90.8274 89.8292 90.8274 89.7424 90.8621 89.6643C90.8968 89.5775 90.9489 89.4907 91.0183 89.3953L95.5579 83.7707C95.636 83.6752 95.7055 83.6058 95.7836 83.5537C95.8617 83.5016 95.9398 83.4843 96.0353 83.4929C96.1308 83.5016 96.235 83.5363 96.3651 83.6058C96.4953 83.6752 96.6429 83.7794 96.8165 83.9269C96.9901 84.0658 97.129 84.196 97.2245 84.3002C97.3199 84.4043 97.3807 84.5085 97.4067 84.604C97.4328 84.6994 97.4328 84.7862 97.4067 84.8644C97.3807 84.9425 97.3199 85.038 97.2505 85.1334L95.8096 86.9128L102.137 92.0166Z" fill="#C4C9CC"/>
<path d="M93.5616 101.235L94.4035 100.644C94.499 100.575 94.5945 100.532 94.6813 100.505C94.7681 100.479 94.8549 100.479 94.9417 100.514C95.0285 100.549 95.1239 100.618 95.2281 100.714C95.3322 100.818 95.4451 100.957 95.5753 101.139C95.7055 101.321 95.801 101.478 95.8617 101.608C95.9225 101.738 95.9572 101.851 95.9572 101.946C95.9572 102.042 95.9398 102.129 95.8791 102.198C95.827 102.267 95.7489 102.337 95.6534 102.406L87.746 107.961C87.5464 108.1 87.3728 108.161 87.2252 108.135C87.0777 108.109 86.9301 107.996 86.7913 107.797L84.9511 105.175C84.8122 104.976 84.7949 104.776 84.9077 104.576C85.0119 104.377 85.2549 104.142 85.6282 103.882C85.8104 103.752 85.9754 103.656 86.1056 103.587C86.2444 103.517 86.3573 103.483 86.4614 103.483C86.5656 103.474 86.6524 103.5 86.7305 103.552C86.8086 103.604 86.8781 103.674 86.9475 103.769L87.8762 105.088L91.3395 102.649L89.7945 100.453L87.6766 101.938C87.5811 102.007 87.4856 102.051 87.3902 102.068C87.2947 102.085 87.2079 102.077 87.1211 102.042C87.0256 102.007 86.9301 101.929 86.826 101.825C86.7218 101.721 86.6003 101.573 86.4701 101.391C86.3399 101.209 86.2444 101.044 86.1837 100.913C86.1229 100.783 86.0882 100.662 86.0795 100.566C86.0708 100.462 86.0969 100.375 86.1489 100.297C86.201 100.219 86.2705 100.15 86.3659 100.08L88.4838 98.5959L86.7218 96.0874L83.1718 98.5872L84.4043 100.341C84.5432 100.54 84.5605 100.74 84.4477 100.939C84.3349 101.139 84.0918 101.382 83.6925 101.66C83.4929 101.799 83.328 101.903 83.1891 101.972C83.0502 102.042 82.92 102.077 82.8159 102.094C82.7117 102.103 82.6162 102.085 82.5381 102.033C82.46 101.981 82.3906 101.912 82.3211 101.816L80.1772 98.7695C80.0383 98.5699 79.9776 98.3963 80.0036 98.2487C80.0296 98.1012 80.1425 97.9536 80.3421 97.8147L88.4231 92.1381C88.5186 92.0687 88.614 92.0253 88.7008 91.9992C88.7876 91.9732 88.8744 91.9732 88.9612 92.0079C89.048 92.0426 89.1435 92.1121 89.2477 92.2075C89.3518 92.3117 89.4647 92.4506 89.5949 92.6328C89.7251 92.8151 89.8205 92.9714 89.8813 93.1016C89.9421 93.2318 89.9768 93.3446 89.9768 93.4401C89.9768 93.5356 89.9594 93.6224 89.8986 93.6918C89.8379 93.7612 89.7685 93.8307 89.673 93.9001L88.831 94.4903L93.5616 101.235Z" fill="#C4C9CC"/>
<path d="M65.2652 113.369L66.3936 113.308C66.5151 113.3 66.6193 113.308 66.706 113.334C66.7928 113.36 66.8623 113.404 66.923 113.482C66.9838 113.56 67.0272 113.664 67.0532 113.803C67.088 113.942 67.1053 114.124 67.114 114.35C67.1227 114.576 67.1227 114.758 67.1053 114.905C67.088 115.044 67.0532 115.157 67.0098 115.244C66.9578 115.331 66.897 115.383 66.8102 115.417C66.7234 115.452 66.6279 115.47 66.5064 115.478L60.9947 115.756C60.2309 115.791 59.5712 115.747 59.0157 115.608C58.4602 115.47 58.0001 115.261 57.6356 114.984C57.271 114.697 56.9933 114.359 56.8023 113.942C56.62 113.534 56.5072 113.065 56.4812 112.553C56.4464 111.954 56.5766 111.442 56.8457 111.025C57.1148 110.609 57.4967 110.262 57.9828 110.001C57.2276 109.836 56.62 109.515 56.16 109.055C55.7 108.586 55.4483 107.935 55.4049 107.102C55.3701 106.495 55.4483 105.965 55.6219 105.496C55.8041 105.036 56.0732 104.637 56.4465 104.316C56.8197 103.986 57.2797 103.734 57.8352 103.552C58.3907 103.37 59.0244 103.266 59.7535 103.222L65.8641 102.91C65.9856 102.901 66.0898 102.91 66.1766 102.936C66.2634 102.962 66.3328 103.005 66.3936 103.083C66.4543 103.162 66.4977 103.266 66.5238 103.405C66.5585 103.543 66.5759 103.726 66.5932 103.951C66.6019 104.177 66.6019 104.359 66.5845 104.507C66.5672 104.654 66.5325 104.759 66.4804 104.845C66.4283 104.932 66.3675 104.984 66.2807 105.019C66.1939 105.054 66.0985 105.071 65.9769 105.08L64.8486 105.141L65.2652 113.369ZM60.1701 105.488C59.467 105.522 58.9549 105.67 58.6338 105.939C58.3126 106.199 58.1651 106.581 58.1911 107.067C58.2171 107.597 58.4081 107.979 58.7553 108.205C59.1025 108.43 59.6233 108.534 60.3263 108.5L62.3574 108.395L62.2012 105.392L60.1701 105.488ZM60.9687 110.739C60.3263 110.774 59.8576 110.904 59.5625 111.147C59.2674 111.381 59.1285 111.737 59.1546 112.215C59.1806 112.692 59.3455 113.031 59.658 113.23C59.9705 113.43 60.4479 113.508 61.1075 113.473L62.6092 113.395L62.4703 110.661L60.9687 110.739Z" fill="#C4C9CC"/>
<path d="M48.73 107.172L51.0128 113.36L51.4902 113.465C51.6031 113.491 51.7072 113.525 51.7767 113.577C51.8548 113.621 51.9069 113.69 51.9416 113.777C51.9763 113.864 51.9937 113.977 51.985 114.124C51.9763 114.272 51.9503 114.445 51.8982 114.671C51.8461 114.897 51.794 115.07 51.742 115.201C51.6899 115.331 51.6204 115.435 51.551 115.504C51.4816 115.574 51.4034 115.608 51.3166 115.617C51.2298 115.626 51.1257 115.617 51.0042 115.591L46.9333 114.662C46.8205 114.636 46.7163 114.602 46.6469 114.55C46.5774 114.497 46.5167 114.437 46.482 114.341C46.4472 114.246 46.4386 114.133 46.4386 113.994C46.4472 113.846 46.4733 113.664 46.5254 113.447C46.5774 113.23 46.6295 113.048 46.6816 112.918C46.7337 112.788 46.8031 112.683 46.8639 112.623C46.9333 112.562 47.0114 112.518 47.0982 112.51C47.185 112.501 47.2892 112.51 47.4107 112.536L48.1051 112.692L46.8725 109.237L44.2425 111.815L44.7894 111.937C44.9022 111.963 45.0064 111.998 45.0758 112.05C45.1539 112.093 45.206 112.163 45.2407 112.249C45.2755 112.336 45.2928 112.449 45.2841 112.597C45.2755 112.735 45.2494 112.918 45.1973 113.143C45.1453 113.369 45.0932 113.543 45.0411 113.673C44.989 113.803 44.9196 113.907 44.8501 113.977C44.7807 114.046 44.7026 114.081 44.6158 114.089C44.529 114.098 44.4248 114.089 44.3033 114.063L40.4408 113.187C40.3279 113.161 40.2238 113.126 40.1543 113.074C40.0762 113.031 40.0241 112.961 39.9894 112.866C39.9547 112.779 39.946 112.657 39.946 112.518C39.9547 112.371 39.9807 112.189 40.0328 111.972C40.0849 111.755 40.137 111.572 40.1891 111.442C40.2411 111.312 40.3019 111.208 40.3713 111.147C40.4408 111.086 40.5189 111.043 40.6057 111.034C40.6925 111.025 40.7966 111.034 40.9182 111.06L41.3695 111.164L46.1348 106.564L46.7337 103.943L44.7113 103.483C44.5984 103.457 44.4943 103.422 44.4248 103.37C44.3554 103.318 44.2946 103.257 44.2599 103.162C44.2252 103.075 44.2165 102.953 44.2165 102.814C44.2252 102.667 44.2512 102.485 44.3033 102.268C44.3554 102.051 44.4075 101.868 44.4595 101.738C44.5116 101.608 44.5811 101.504 44.6418 101.443C44.7113 101.382 44.7894 101.339 44.8762 101.33C44.963 101.321 45.0671 101.33 45.1887 101.356L51.8201 102.866C51.9329 102.892 52.0371 102.927 52.1065 102.979C52.1846 103.023 52.2367 103.092 52.2714 103.179C52.3061 103.266 52.3235 103.379 52.3148 103.526C52.3061 103.674 52.2801 103.847 52.228 104.073C52.1759 104.299 52.1239 104.472 52.0718 104.602C52.0197 104.733 51.9503 104.837 51.8808 104.906C51.8114 104.976 51.7333 105.01 51.6465 105.019C51.5597 105.028 51.4555 105.019 51.334 104.993L49.3116 104.533L48.73 107.172Z" fill="#C4C9CC"/>
<path d="M22.6905 100.627L23.4977 101.426C23.5845 101.512 23.6452 101.59 23.6886 101.669C23.732 101.747 23.7407 101.834 23.7234 101.929C23.706 102.024 23.6539 102.129 23.5758 102.241C23.4977 102.363 23.3762 102.502 23.2199 102.658C23.0637 102.823 22.9248 102.945 22.8033 103.023C22.6905 103.109 22.5776 103.162 22.4821 103.179C22.3867 103.196 22.2999 103.188 22.2217 103.153C22.1436 103.109 22.0568 103.049 21.97 102.971L18.0294 99.0994C17.4825 98.5612 17.0746 98.0491 16.7968 97.5457C16.5191 97.0422 16.3628 96.5648 16.3194 96.1048C16.276 95.6448 16.3455 95.2021 16.5191 94.7855C16.6927 94.3688 16.9617 93.9782 17.3263 93.605C17.7429 93.1797 18.203 92.9193 18.6977 92.8412C19.1925 92.7631 19.7046 92.8065 20.2254 92.9801C19.8348 92.3117 19.6525 91.652 19.6872 90.9924C19.7219 90.3414 20.0257 89.7164 20.616 89.1175C21.0413 88.6835 21.484 88.3797 21.944 88.1974C22.404 88.0152 22.8814 87.9544 23.3762 88.0065C23.8709 88.0586 24.3657 88.2322 24.8778 88.5099C25.3812 88.7964 25.8933 89.1956 26.4141 89.6991L30.7801 93.9869C30.8669 94.0737 30.9276 94.1518 30.971 94.23C31.0144 94.3081 31.0231 94.3949 31.0058 94.4903C30.9884 94.5858 30.9363 94.69 30.8582 94.8028C30.7801 94.9157 30.6586 95.0632 30.4937 95.2195C30.3374 95.3844 30.1985 95.5059 30.0857 95.584C29.9729 95.6708 29.86 95.7229 29.7645 95.7402C29.6691 95.7576 29.5823 95.7489 29.5042 95.7142C29.426 95.6708 29.3392 95.6101 29.2524 95.5319L28.4452 94.7334L22.6905 100.627ZM21.7183 95.6882C21.2583 95.2368 20.8416 94.9851 20.4684 94.9243C20.0952 94.8723 19.7393 95.0111 19.4095 95.3497C19.071 95.6882 18.9408 96.044 19.0015 96.4086C19.071 96.7732 19.3313 97.1811 19.8001 97.6411L20.8764 98.6914L22.7946 96.7384L21.7183 95.6882ZM25.0514 91.5479C24.5479 91.0531 24.0879 90.7754 23.68 90.7233C23.272 90.6712 22.8901 90.8101 22.5516 91.1573C22.1783 91.5392 22.0308 91.9298 22.0915 92.3377C22.161 92.7457 22.4387 93.197 22.9422 93.6918L24.3917 95.1153L26.5009 92.9714L25.0514 91.5479Z" fill="#C4C9CC"/>
<path d="M11.2591 86.9822L12.5003 89.1522C12.5611 89.2564 12.5958 89.3519 12.6131 89.4387C12.6305 89.5255 12.6218 89.6123 12.5784 89.6991C12.535 89.7858 12.4656 89.8726 12.3527 89.9594C12.2399 90.0549 12.0923 90.1504 11.8927 90.2632C11.6931 90.3761 11.5282 90.4542 11.398 90.5063C11.2591 90.5584 11.1462 90.5757 11.0508 90.567C10.9553 90.5584 10.8685 90.5323 10.8077 90.4716C10.7383 90.4108 10.6775 90.3327 10.6168 90.2285L6.81499 83.5884C6.75423 83.4843 6.71951 83.3888 6.70215 83.302C6.68479 83.2152 6.70215 83.1284 6.74555 83.0416C6.78895 82.9548 6.86707 82.868 6.9799 82.7725C7.09274 82.677 7.2403 82.5816 7.43994 82.4687C7.63957 82.3559 7.80449 82.2778 7.93469 82.2257C8.07357 82.1736 8.1864 82.1562 8.2732 82.1649C8.36868 82.1736 8.4468 82.2083 8.51624 82.2691C8.58568 82.3298 8.64644 82.408 8.7072 82.5121L9.94842 84.6821L17.1006 80.6025L15.7552 78.2503C15.6945 78.1461 15.6598 78.0507 15.6424 77.9639C15.6251 77.8771 15.6424 77.7903 15.6858 77.7035C15.7292 77.6167 15.8073 77.5299 15.9202 77.4344C16.033 77.3389 16.1806 77.2434 16.3802 77.1306C16.5798 77.0178 16.7448 76.9396 16.875 76.8876C17.0138 76.8355 17.1267 76.8181 17.2221 76.8268C17.3176 76.8355 17.3957 76.8702 17.4652 76.931C17.5346 76.9917 17.5954 77.0698 17.6561 77.174L21.6576 84.1873C21.7183 84.2915 21.753 84.387 21.7704 84.4738C21.7878 84.5606 21.7791 84.6474 21.7357 84.7342C21.6923 84.821 21.6228 84.9078 21.51 84.9946C21.3972 85.0814 21.2496 85.1855 21.05 85.2984C20.8503 85.4112 20.6854 85.4893 20.5552 85.5414C20.4163 85.5935 20.3035 85.6108 20.208 85.6022C20.1125 85.5935 20.0257 85.5674 19.965 85.5067C19.8955 85.4459 19.8348 85.3678 19.774 85.2636L18.4286 82.9114L11.2591 86.9822Z" fill="#C4C9CC"/>
<path d="M5.97305 75.8199L6.24212 76.9223C6.26816 77.0351 6.27684 77.1393 6.27684 77.2261C6.26816 77.3129 6.23344 77.391 6.17268 77.4691C6.11193 77.5472 6.01645 77.5993 5.88625 77.6601C5.75605 77.7208 5.58245 77.7729 5.35678 77.825C5.1311 77.8771 4.9575 77.9118 4.80995 77.9205C4.66239 77.9292 4.54955 77.9205 4.45407 77.8858C4.36727 77.851 4.28915 77.799 4.24575 77.7208C4.20236 77.6427 4.15896 77.5472 4.13292 77.4344L3.10869 73.2767C3.08265 73.1639 3.07397 73.0598 3.07397 72.9643C3.07397 72.8688 3.11737 72.7907 3.18681 72.7212C3.25625 72.6518 3.35173 72.5824 3.48193 72.5303C3.61212 72.4782 3.78572 72.4174 4.0114 72.3654C4.23707 72.3133 4.41067 72.2786 4.55823 72.2699C4.70579 72.2612 4.81863 72.2699 4.90542 72.3046C4.99222 72.3393 5.06166 72.3914 5.11374 72.4695C5.16582 72.5476 5.20054 72.6431 5.22658 72.756L5.33942 73.242L8.62909 72.4261L4.51483 69.9003L4.65371 70.4471C4.67975 70.5599 4.69711 70.6641 4.68843 70.7596C4.67975 70.8464 4.64503 70.9245 4.58427 70.9939C4.52351 71.0634 4.42803 71.1241 4.29783 71.1849C4.15896 71.2543 3.98536 71.3064 3.75968 71.3585C3.54269 71.4106 3.36041 71.4453 3.21285 71.454C3.06529 71.4627 2.95245 71.454 2.85698 71.4193C2.7615 71.3845 2.69206 71.3325 2.64866 71.2543C2.60526 71.1762 2.56186 71.0807 2.53582 70.9679L1.54632 66.9665C1.52028 66.8536 1.5116 66.7495 1.5116 66.654C1.5116 66.5585 1.555 66.4804 1.62443 66.411C1.69387 66.3415 1.78935 66.2721 1.91955 66.22C2.04975 66.1679 2.22335 66.1072 2.44902 66.0551C2.6747 66.003 2.8483 65.9683 2.99585 65.9596C3.14341 65.9509 3.25625 65.9596 3.34305 65.9943C3.42985 66.0291 3.49929 66.0811 3.54269 66.1593C3.58608 66.2374 3.62948 66.3329 3.65552 66.4457L3.76836 66.8884L8.16037 69.6225C8.08226 69.2232 8.09962 68.85 8.21245 68.4855C8.32529 68.1209 8.51625 67.7911 8.78532 67.4786C8.95892 67.279 9.14988 67.088 9.34084 66.9057C9.54047 66.7321 9.74011 66.5585 9.93107 66.3936C10.1307 66.2287 10.3217 66.0638 10.5126 65.9075C10.7036 65.7513 10.8772 65.5951 11.0334 65.4388C11.2417 65.2392 11.398 65.0396 11.4934 64.8399C11.5889 64.6403 11.6236 64.4233 11.5629 64.2063L11.5368 64.1021C11.5108 63.9893 11.4934 63.8851 11.5021 63.7896C11.5108 63.7028 11.5455 63.6247 11.615 63.5466C11.6844 63.4772 11.7799 63.4077 11.9101 63.3557C12.0403 63.2949 12.2139 63.2428 12.4395 63.1907C12.6565 63.1387 12.8388 63.1039 12.9864 63.0953C13.1339 63.0866 13.2468 63.0953 13.3336 63.13C13.4204 63.1647 13.4898 63.2168 13.5419 63.2949C13.5853 63.373 13.6287 63.4685 13.6547 63.5813L14.0106 65.0135C14.0627 65.2392 14.08 65.4562 14.0453 65.6645C14.0106 65.8728 13.9498 66.0638 13.8544 66.2461C13.7589 66.4283 13.6374 66.6019 13.4898 66.7755C13.3423 66.9404 13.186 67.1054 13.0124 67.2529C12.8301 67.4092 12.6479 67.5741 12.4482 67.7216C12.2573 67.8779 12.0576 68.0341 11.8667 68.1903C11.6757 68.3466 11.4934 68.5028 11.3198 68.6504C11.1462 68.7979 10.99 68.9455 10.8511 69.1017C10.6341 69.3448 10.4779 69.5965 10.3737 69.8482C10.2696 70.0999 10.2435 70.3516 10.3043 70.5947C10.3824 70.8985 10.5647 71.1415 10.8511 71.3238L11.4934 71.7231L13.3075 71.2804L13.0124 70.0999C12.9864 69.9871 12.969 69.8829 12.9777 69.7874C12.9864 69.7006 13.0211 69.6138 13.0905 69.5444C13.16 69.475 13.2555 69.4055 13.3857 69.3534C13.5159 69.3014 13.6894 69.2406 13.9151 69.1885C14.1408 69.1364 14.3144 69.1017 14.462 69.093C14.6095 69.0844 14.7224 69.093 14.8092 69.1278C14.896 69.1625 14.9654 69.2146 15.0175 69.2927C15.0609 69.3708 15.1043 69.4663 15.1303 69.5791L16.3281 74.4312C16.3542 74.544 16.3715 74.6482 16.3628 74.7436C16.3542 74.8304 16.3194 74.9086 16.2587 74.978C16.1979 75.0474 16.1025 75.1082 15.9723 75.169C15.8421 75.2297 15.6685 75.2818 15.4428 75.3339C15.2258 75.386 15.0435 75.4207 14.896 75.4294C14.7484 75.438 14.6356 75.4294 14.5401 75.3946C14.4446 75.3599 14.3752 75.3078 14.3318 75.2297C14.2884 75.1516 14.245 75.0561 14.2189 74.9433L13.9498 73.8409L5.97305 75.8199Z" fill="#C4C9CC"/>
<path d="M0.999467 56.6027C1.02551 55.726 1.20778 54.9362 1.52894 54.2331C1.85009 53.53 2.31013 52.9311 2.89168 52.4364C3.47323 51.9416 4.16762 51.5684 4.98353 51.3167C5.79943 51.065 6.70214 50.9521 7.709 50.9868C8.71587 51.0216 9.61857 51.1865 10.4171 51.499C11.2157 51.8027 11.884 52.2194 12.4309 52.7575C12.9777 53.2957 13.3856 53.912 13.6634 54.6411C13.9411 55.3702 14.0713 56.1687 14.0366 57.0454C14.0106 57.9221 13.8283 58.7119 13.4985 59.415C13.1686 60.1181 12.7173 60.717 12.1357 61.2117C11.5542 61.7065 10.8598 62.0797 10.0439 62.3314C9.22798 62.5831 8.31659 62.696 7.30973 62.6613C6.31155 62.6265 5.40884 62.4616 4.61029 62.1491C3.8291 61.8367 3.16075 61.42 2.61392 60.8906C2.06709 60.3611 1.65046 59.7361 1.38138 59.007C1.09495 58.2779 0.973428 57.4707 0.999467 56.6027ZM3.40379 56.6808C3.36907 57.679 3.69891 58.4342 4.3933 58.9636C5.08768 59.4844 6.09455 59.7709 7.41389 59.8143C8.73323 59.8577 9.75745 59.6407 10.4866 59.1633C11.2157 58.6859 11.5976 57.9481 11.6323 56.9499C11.667 55.9517 11.3372 55.1966 10.6341 54.6671C9.93973 54.1463 8.93286 53.8599 7.60485 53.8165C6.28551 53.7731 5.26128 53.9901 4.53217 54.4675C3.82042 54.9449 3.43851 55.6826 3.40379 56.6808Z" fill="#C4C9CC"/>
</svg>
