<svg width="168" height="169" viewBox="0 0 168 169" fill="none" xmlns="http://www.w3.org/2000/svg">
<path d="M4.93453 57.1188L4.59261 58.0235C4.52423 58.1942 4.4473 58.2967 4.34473 58.3393C4.24215 58.382 4.09684 58.3649 3.90878 58.2967C3.72073 58.2284 3.60106 58.143 3.55832 58.0406C3.51558 57.9382 3.52413 57.8102 3.58396 57.6395L4.99437 53.9353C5.16532 53.4915 5.37047 53.1245 5.60981 52.8344C5.84915 52.5442 6.12269 52.3223 6.41331 52.1772C6.70394 52.0321 7.02876 51.9553 7.36213 51.9553C7.6955 51.9553 8.04596 52.015 8.40497 52.1516C8.78963 52.2967 9.0888 52.51 9.31105 52.7917C9.53329 53.0733 9.67006 53.4062 9.72989 53.7817C10.0975 53.3208 10.5163 53.0221 10.995 52.8856C11.4737 52.749 11.9865 52.7831 12.5421 52.9965C12.9353 53.1416 13.2602 53.3379 13.5166 53.5854C13.773 53.8244 13.9696 54.1146 14.0979 54.4389C14.2261 54.7632 14.2774 55.1217 14.2603 55.5228C14.2432 55.924 14.1491 56.3422 13.9782 56.8031L12.3797 61.0022C12.3199 61.1729 12.2344 61.2753 12.1318 61.318C12.0293 61.3607 11.884 61.3436 11.6959 61.2753C11.5079 61.207 11.3882 61.1217 11.3454 61.0193C11.3027 60.9169 11.3113 60.7888 11.3711 60.6181L11.713 59.7134L4.93453 57.1188ZM8.6785 55.5143C8.90075 54.9339 8.94349 54.456 8.81527 54.0804C8.68705 53.7049 8.40497 53.4403 7.96903 53.2696C7.51599 53.0989 7.12279 53.1075 6.78087 53.3038C6.43896 53.5001 6.15688 53.8841 5.93463 54.473L5.35338 56.0008L8.09725 57.042L8.6785 55.5143ZM12.8841 56.6238C13.1149 56.0093 13.1661 55.4887 13.0294 55.0619C12.8926 54.6352 12.5849 54.3365 12.1062 54.1573C11.089 53.7732 10.3453 54.1999 9.87521 55.4375L9.11445 57.4346L12.1489 58.5868L12.8841 56.6238Z" fill="#132631"/>
<path d="M9.918 45.6395L8.96063 47.4318C8.87516 47.594 8.78113 47.6879 8.67855 47.7135C8.57598 47.7391 8.43067 47.7135 8.25116 47.6196C8.07165 47.5257 7.96908 47.4233 7.93489 47.3209C7.9007 47.2184 7.92634 47.0819 8.01182 46.9283L10.4822 42.3024C10.5676 42.1402 10.6617 42.0463 10.7642 42.0207C10.8668 41.9866 11.0121 42.0207 11.1916 42.1146C11.3711 42.2085 11.4737 42.3109 11.5079 42.4133C11.5421 42.5157 11.5165 42.6523 11.431 42.8059L10.4736 44.5982L16.876 48.0036L17.9017 46.0748C17.9872 45.9126 18.0812 45.8187 18.1838 45.7931C18.2864 45.759 18.4317 45.7931 18.6112 45.887C18.7907 45.9809 18.8933 46.0833 18.9275 46.1857C18.9617 46.2881 18.936 46.4247 18.8505 46.5783L16.2349 51.4859C16.1494 51.648 16.0554 51.7419 15.9528 51.7675C15.8502 51.7931 15.7049 51.7675 15.5254 51.6736C15.3459 51.5797 15.2433 51.4773 15.2091 51.3749C15.1749 51.2725 15.2006 51.1359 15.2861 50.9823L16.3118 49.0534L9.918 45.6395Z" fill="#132631"/>
<path d="M13.9868 38.6409L13.4739 39.3664C13.3713 39.5115 13.2602 39.5968 13.1576 39.6139C13.0465 39.631 12.9098 39.5798 12.7473 39.4688C12.5849 39.3493 12.4909 39.2384 12.4738 39.136C12.4567 39.025 12.4909 38.897 12.602 38.7519L14.2176 36.4645C14.3202 36.3195 14.4313 36.2341 14.5339 36.217C14.645 36.2 14.7817 36.2512 14.9441 36.3621C15.1066 36.4816 15.2006 36.5926 15.2177 36.695C15.2348 36.8059 15.2006 36.934 15.0895 37.0791L14.6706 37.6765L17.3974 39.5968L16.6537 34.8685L16.346 35.3123C16.2434 35.4574 16.1323 35.5428 16.0297 35.5599C15.9186 35.5769 15.7818 35.5257 15.6194 35.4148C15.457 35.2953 15.363 35.1843 15.3459 35.0819C15.3288 34.971 15.363 34.8429 15.4741 34.6978L16.9529 32.5983C17.0555 32.4532 17.1666 32.3678 17.2692 32.3508C17.3803 32.3337 17.5171 32.3849 17.6795 32.4958C17.8419 32.6153 17.9359 32.7263 17.953 32.8287C17.9701 32.9397 17.9359 33.0677 17.8248 33.2128L17.5684 33.5798L18.2607 38.163C18.4488 37.8557 18.6796 37.6082 18.9531 37.4205C19.2266 37.2327 19.5686 37.1303 19.9703 37.1047C20.2182 37.0961 20.4661 37.1132 20.7311 37.1559C20.9961 37.1985 21.2525 37.2498 21.5004 37.3095C21.7568 37.3692 21.9962 37.4375 22.2355 37.4973C22.4748 37.557 22.6885 37.5997 22.8851 37.6253C23.0817 37.6509 23.2527 37.6424 23.4066 37.6082C23.5604 37.5741 23.6715 37.4973 23.7656 37.3692L23.8938 37.19C23.9964 37.0449 24.1075 36.9596 24.2101 36.9425C24.3212 36.9254 24.4579 36.9766 24.6204 37.0876C24.7828 37.2071 24.8768 37.318 24.8939 37.4205C24.911 37.5314 24.8768 37.6594 24.7657 37.8045L24.3896 38.3337C24.2528 38.53 24.0476 38.6751 23.7827 38.769C23.5177 38.8628 23.1587 38.8799 22.7056 38.8116C22.4748 38.7775 22.2355 38.7263 21.9962 38.6665C21.7568 38.6068 21.5175 38.5471 21.2867 38.4873C21.0559 38.4276 20.8251 38.3764 20.6028 38.3337C20.3806 38.291 20.1669 38.2654 19.9703 38.2739C19.7481 38.2739 19.5429 38.3166 19.3463 38.419C19.1583 38.5214 18.9873 38.6665 18.8505 38.8714C18.7223 39.0506 18.6368 39.2469 18.577 39.4517C18.5172 39.6651 18.5086 39.887 18.5428 40.1089L18.5941 40.4333L20.5858 41.8415L21.3294 40.7917C21.432 40.6466 21.5431 40.5613 21.6457 40.5442C21.7568 40.5271 21.8936 40.5783 22.056 40.6893C22.2184 40.8088 22.3124 40.9197 22.3295 41.0222C22.3466 41.1331 22.3124 41.2611 22.2013 41.4062L20.2609 44.1459C20.1584 44.291 20.0472 44.3764 19.9447 44.3934C19.8335 44.4105 19.6968 44.3593 19.5344 44.2483C19.372 44.1288 19.2779 44.0179 19.2608 43.9155C19.2437 43.8045 19.2779 43.6765 19.3891 43.5314L19.9019 42.8059L13.9868 38.6409Z" fill="#132631"/>
<path d="M21.9876 33.776C21.4405 33.281 21.0216 32.7604 20.7139 32.2056C20.4062 31.6509 20.2182 31.0961 20.1412 30.5413C20.0643 29.9866 20.1241 29.4403 20.2951 28.9026C20.466 28.3649 20.7652 27.8699 21.1841 27.409C21.6029 26.9482 22.073 26.6068 22.5859 26.3849C23.0988 26.163 23.6459 26.0605 24.2015 26.0776C24.7656 26.0947 25.3383 26.2312 25.911 26.4873C26.4923 26.7433 27.0479 27.1189 27.595 27.6139C28.142 28.1089 28.5609 28.6295 28.8686 29.1843C29.1763 29.7391 29.3644 30.2853 29.4328 30.8486C29.5012 31.4119 29.4499 31.9496 29.2789 32.4873C29.1079 33.025 28.8088 33.52 28.3899 33.9809C27.9711 34.4418 27.5009 34.7832 26.9881 35.0051C26.4752 35.227 25.9281 35.3294 25.3725 35.3123C24.8084 35.2952 24.2442 35.1587 23.6629 34.9026C23.0902 34.6466 22.5261 34.2711 21.9876 33.776ZM22.8338 32.8543C23.2526 33.2383 23.68 33.5285 24.116 33.7334C24.5519 33.9382 24.9708 34.0577 25.3725 34.0833C25.7743 34.1089 26.1675 34.0492 26.535 33.9041C26.9026 33.759 27.236 33.52 27.5351 33.1957C27.8343 32.8713 28.0395 32.5214 28.1506 32.1373C28.2617 31.7533 28.2874 31.3692 28.2275 30.9595C28.1591 30.5584 28.0053 30.1487 27.7659 29.7391C27.5266 29.3294 27.1932 28.9282 26.7658 28.5442C26.347 28.1601 25.9196 27.8699 25.4836 27.6651C25.0477 27.4602 24.6289 27.3408 24.2186 27.3152C23.8083 27.2896 23.4236 27.3493 23.0475 27.4944C22.6799 27.648 22.3466 27.8785 22.0474 28.2028C21.7482 28.5271 21.5516 28.877 21.4319 29.2611C21.3123 29.6452 21.2952 30.0378 21.3636 30.4389C21.4319 30.8401 21.5858 31.2497 21.8337 31.6594C22.0816 32.0691 22.4064 32.4702 22.8338 32.8543Z" fill="#132631"/>
<path d="M35.1428 16.5954L34.6299 16.9283C34.4846 17.0307 34.3478 17.0648 34.2453 17.0392C34.1341 17.0136 34.0316 16.9197 33.9204 16.749C33.8093 16.5783 33.7666 16.4418 33.7837 16.3394C33.8008 16.2284 33.8863 16.126 34.0401 16.0321L35.5189 15.0591C35.6984 14.9397 35.8694 14.9226 36.0147 14.9994L42.853 18.5414L39.6219 13.6509L38.844 14.163C38.6987 14.2654 38.562 14.2995 38.4594 14.2739C38.3483 14.2483 38.2457 14.1545 38.1346 13.9838C38.0234 13.8131 37.9807 13.6765 37.9978 13.5741C38.0149 13.4631 38.1004 13.3607 38.2542 13.2668L40.3997 11.85C40.5536 11.7476 40.6818 11.7135 40.7844 11.7391C40.8955 11.7647 40.9981 11.8586 41.1092 12.0293C41.2203 12.2 41.2631 12.3365 41.246 12.4389C41.2289 12.5499 41.1434 12.6523 40.9896 12.7462L40.6134 12.9937L45.0412 19.6936C45.1182 19.8045 45.1353 19.924 45.1096 20.052C45.0754 20.1801 44.9729 20.2995 44.8019 20.4105C44.6737 20.4958 44.5455 20.53 44.4173 20.53C44.289 20.5214 44.1523 20.4873 44.007 20.419L36.5276 16.5527L40.1262 21.998L41.0323 21.4005C41.1862 21.2981 41.3144 21.264 41.4169 21.2896C41.5195 21.3152 41.6306 21.4091 41.7418 21.5798C41.8529 21.7505 41.8956 21.887 41.8785 21.9894C41.8614 22.1004 41.776 22.2028 41.6221 22.2967L39.28 23.8415C39.1261 23.9439 38.9979 23.9781 38.8953 23.9525C38.7842 23.9269 38.6816 23.833 38.5705 23.6623C38.4594 23.4916 38.4166 23.355 38.4337 23.2526C38.4508 23.1416 38.5363 23.0392 38.6902 22.9453L39.1347 22.6552L35.1428 16.5954Z" fill="#132631"/>
<path d="M43.3744 11.3806C43.212 11.4574 43.0838 11.483 42.9812 11.4403C42.8786 11.3977 42.7846 11.2952 42.6906 11.116C42.6051 10.9368 42.5709 10.7917 42.6051 10.6893C42.6393 10.5868 42.7333 10.493 42.8957 10.4161L45.2036 9.28101C45.3661 9.2042 45.4943 9.1786 45.6054 9.22127C45.708 9.25541 45.802 9.36636 45.896 9.54559C45.99 9.72483 46.0157 9.86992 45.9815 9.97234C45.9473 10.0748 45.8533 10.1686 45.6909 10.2455L44.8959 10.6381L47.1355 15.1701C47.315 15.5371 47.5116 15.8358 47.7167 16.0491C47.9219 16.2711 48.1441 16.4247 48.3835 16.51C48.6228 16.5954 48.8792 16.6125 49.1528 16.5698C49.4263 16.5271 49.7255 16.4247 50.0503 16.2625C50.3751 16.1004 50.6315 15.9297 50.8367 15.7334C51.0418 15.5456 51.1786 15.3237 51.2555 15.0847C51.3325 14.8457 51.3496 14.5726 51.2983 14.2739C51.247 13.9752 51.1359 13.6423 50.9478 13.2753L48.7083 8.74332L47.9133 9.13592C47.7509 9.21274 47.6227 9.23834 47.5201 9.19567C47.4175 9.15299 47.3235 9.05057 47.2295 8.87134C47.144 8.69211 47.1098 8.54702 47.144 8.4446C47.1782 8.34218 47.2722 8.2483 47.4346 8.17148L49.7426 7.03635C49.905 6.95953 50.0332 6.93393 50.1443 6.9766C50.2469 7.01074 50.3409 7.1217 50.4349 7.30093C50.5204 7.48016 50.5546 7.62525 50.5204 7.72767C50.4862 7.83009 50.3922 7.92397 50.2298 8.00079L49.7853 8.21416L52.0932 12.8913C52.3411 13.3948 52.495 13.8728 52.5377 14.308C52.5805 14.7433 52.5377 15.1445 52.401 15.5115C52.2642 15.8785 52.0419 16.2113 51.7257 16.51C51.418 16.8088 51.0247 17.0733 50.5717 17.3038C50.1101 17.5342 49.6656 17.6793 49.2382 17.7391C48.8108 17.7988 48.4091 17.7732 48.033 17.6622C47.6569 17.5513 47.3064 17.3379 46.9901 17.0392C46.6739 16.7405 46.3832 16.3308 46.1354 15.8272L43.8274 11.1587L43.3744 11.3806Z" fill="#132631"/>
<path d="M53.5891 6.66087L52.8284 6.92545C52.6574 6.9852 52.5207 6.9852 52.4266 6.94252C52.3241 6.89131 52.2471 6.77183 52.1787 6.58406C52.1104 6.39629 52.1018 6.2512 52.1531 6.14878C52.1958 6.04636 52.307 5.96955 52.4779 5.90981L59.0342 3.64807C59.2051 3.58833 59.3419 3.58833 59.4359 3.631C59.5299 3.68221 59.6154 3.8017 59.6838 3.98946L60.342 5.89274C60.4018 6.06343 60.4018 6.20853 60.3505 6.31094C60.2907 6.41336 60.1625 6.49871 59.9488 6.57552C59.7351 6.6438 59.5812 6.66087 59.4701 6.6182C59.359 6.57552 59.2735 6.46457 59.2137 6.28534L58.735 4.89416L54.726 6.2768L55.6834 9.05063L57.5554 8.40198L57.316 7.71919C57.2562 7.5485 57.2562 7.4034 57.3075 7.30099C57.3588 7.19857 57.4955 7.11322 57.7092 7.03641C57.9229 6.95959 58.0768 6.95106 58.1879 6.99373C58.299 7.03641 58.3845 7.14736 58.4443 7.32659L59.2649 9.70781C59.3248 9.88705 59.3248 10.0236 59.2735 10.126C59.2137 10.2284 59.0854 10.3138 58.8717 10.3906C58.658 10.4589 58.5042 10.476 58.3931 10.4333C58.2819 10.3906 58.1965 10.2796 58.1366 10.1004L57.8973 9.41763L56.0253 10.0663L57.0852 13.1218L61.248 11.6879L60.6582 9.97239C60.5984 9.8017 60.5984 9.65661 60.6497 9.55419C60.701 9.45177 60.8378 9.36642 61.0515 9.28961C61.2651 9.22133 61.419 9.20426 61.5301 9.24693C61.6413 9.28961 61.7182 9.40056 61.7866 9.57979L62.5559 11.7989C62.6243 11.9866 62.6328 12.1317 62.5815 12.2341C62.5388 12.3365 62.4277 12.4134 62.2567 12.4731L55.5552 14.7861C55.3842 14.8458 55.2474 14.8458 55.1534 14.8031C55.0508 14.7519 54.9739 14.6324 54.9055 14.4447C54.8371 14.2569 54.8286 14.1118 54.8799 14.0094C54.9226 13.907 55.0337 13.8301 55.2047 13.7704L55.9655 13.5058L53.5891 6.66087Z" fill="#132631"/>
<path d="M62.1455 3.8358C61.966 3.86994 61.8378 3.86141 61.7438 3.80167C61.6498 3.73339 61.5899 3.60536 61.5472 3.40906C61.5045 3.21276 61.513 3.06767 61.5728 2.97379C61.6327 2.8799 61.7523 2.81162 61.9233 2.77748L64.8296 2.17151C65.0091 2.13737 65.1373 2.1459 65.2313 2.20565C65.3254 2.26539 65.3852 2.39342 65.4279 2.58972C65.4707 2.78602 65.4621 2.93111 65.4023 3.02499C65.3424 3.11888 65.2228 3.18716 65.0518 3.2213L63.9577 3.45174L67.7701 9.80167L68.7274 2.45316L67.9496 2.61532C67.7786 2.658 67.6418 2.64093 67.5478 2.58118C67.4538 2.52144 67.3939 2.39342 67.3512 2.19711C67.3085 2.00081 67.317 1.85572 67.3768 1.76184C67.4367 1.66795 67.5564 1.59967 67.7273 1.56553L70.3173 1.0193C70.4968 0.985165 70.625 0.993699 70.7191 1.05344C70.8131 1.11319 70.8729 1.24121 70.9157 1.43751C70.9584 1.63381 70.9499 1.77891 70.89 1.87279C70.8302 1.96667 70.7191 2.04349 70.5396 2.07763L69.9412 2.20565L68.7958 10.6039C68.7702 10.8002 68.6932 10.9453 68.5735 11.0563C68.4539 11.1587 68.2829 11.2355 68.0607 11.2867C67.8384 11.3294 67.6504 11.3294 67.5051 11.2782C67.3597 11.227 67.2315 11.116 67.129 10.9539L62.7268 3.71632L62.1455 3.8358Z" fill="#132631"/>
<path d="M75.5487 8.82866C75.7282 8.81159 75.8564 8.84573 75.9419 8.91401C76.0273 8.99082 76.0701 9.12738 76.0872 9.32368C76.1043 9.51998 76.0786 9.66508 76.0102 9.75043C75.9419 9.83577 75.8136 9.88698 75.6341 9.90405L72.9928 10.1174C72.8133 10.1345 72.6851 10.1004 72.5996 10.0321C72.5142 9.9638 72.4629 9.82724 72.4543 9.6224C72.4372 9.4261 72.4629 9.28101 72.5313 9.19566C72.5996 9.11031 72.7278 9.0591 72.9074 9.04203L73.3518 9.00789L75.3777 1.57404L73.8989 1.69353C73.7194 1.7106 73.5912 1.67646 73.5057 1.60818C73.4202 1.5399 73.3689 1.40334 73.3604 1.19851C73.3433 1.0022 73.3689 0.857111 73.4373 0.771763C73.5057 0.686414 73.6339 0.635205 73.8134 0.618135L76.7112 0.37916C76.9249 0.36209 77.0958 0.387694 77.2326 0.455973C77.3694 0.524252 77.4719 0.652275 77.5574 0.822972L80.9851 8.37631L81.4638 8.33364C81.6433 8.31657 81.7715 8.35071 81.857 8.41899C81.9425 8.48727 81.9938 8.62383 82.0023 8.82866C82.0194 9.02496 81.9938 9.17006 81.9254 9.2554C81.857 9.34075 81.7288 9.39196 81.5493 9.40903L78.7541 9.63947C78.5746 9.65654 78.4464 9.6224 78.3609 9.55412C78.2754 9.48584 78.2241 9.34929 78.2156 9.14445C78.1985 8.94815 78.2241 8.80306 78.2925 8.71771C78.3609 8.63236 78.4891 8.58115 78.6686 8.56408L79.7371 8.47873L78.9336 6.65228L75.1042 6.96806L74.5998 8.89694L75.5487 8.82866ZM75.3777 5.86707L78.472 5.61102L76.6513 1.46309L76.4975 1.47162L75.3777 5.86707Z" fill="#132631"/>
<path d="M84.1649 9.14448C84.1564 9.33225 84.1051 9.46027 84.0196 9.53709C83.9256 9.6139 83.7717 9.64804 83.5495 9.6395C83.3272 9.63097 83.1734 9.5883 83.0879 9.50295C83.0024 9.4176 82.9682 9.28958 82.9768 9.10181L83.0793 6.72912C83.0879 6.54135 83.1392 6.41333 83.2247 6.33652C83.3187 6.2597 83.4725 6.22556 83.6948 6.2341C83.9256 6.24263 84.0709 6.36212 84.1393 6.58403C84.3273 7.20707 84.6522 7.68502 85.1137 8.03495C85.5668 8.38488 86.148 8.57265 86.8404 8.59825C87.1909 8.61532 87.4986 8.58972 87.7636 8.52144C88.0286 8.45316 88.2508 8.35074 88.4303 8.22272C88.6098 8.0947 88.7466 7.93253 88.8492 7.73623C88.9432 7.54847 89.003 7.33509 89.0116 7.10465C89.0287 6.75472 88.9517 6.47307 88.7808 6.2597C88.6098 6.04633 88.3876 5.8671 88.097 5.73054C87.8576 5.61959 87.5926 5.52571 87.302 5.44889C87.0114 5.37208 86.7036 5.29527 86.3959 5.21845C86.0882 5.14164 85.7719 5.05629 85.4642 4.97094C85.1565 4.88559 84.8658 4.77464 84.6009 4.63808C84.4128 4.5442 84.2333 4.43325 84.0709 4.30522C83.9085 4.1772 83.7803 4.03211 83.6691 3.86141C83.558 3.69071 83.4725 3.50295 83.4127 3.28104C83.3529 3.05913 83.3358 2.81162 83.3443 2.52997C83.3614 2.1203 83.4555 1.7533 83.6179 1.42898C83.7888 1.10465 84.0111 0.831538 84.2931 0.618167C84.5752 0.396261 84.9086 0.234099 85.2932 0.131681C85.6779 0.0292623 86.0882 -0.0134119 86.5412 0.00365779C87.0199 0.0207275 87.473 0.131681 87.8918 0.336517C88.3107 0.532819 88.6697 0.788864 88.9517 1.10465L88.9688 0.618167C88.9774 0.4304 89.0287 0.302378 89.1142 0.225564C89.2082 0.14875 89.362 0.114611 89.5843 0.123146C89.8065 0.131681 89.9604 0.174355 90.0459 0.259703C90.1313 0.345052 90.1655 0.473075 90.157 0.660841L90.0801 2.47876C90.0715 2.66653 90.0202 2.79455 89.9348 2.87137C89.8407 2.94818 89.6869 2.98232 89.4646 2.97379C89.2595 2.96525 89.1312 2.88844 89.0629 2.75188C88.8235 2.24832 88.4816 1.86426 88.0286 1.59967C87.5755 1.33509 87.0627 1.19 86.4814 1.1644C85.8916 1.13879 85.43 1.25828 85.1052 1.52286C84.7804 1.78744 84.6094 2.13737 84.5923 2.58118C84.5838 2.81162 84.6351 2.99939 84.7462 3.14448C84.8573 3.29811 85.0112 3.42613 85.1992 3.52855C85.4044 3.6395 85.6523 3.74192 85.9258 3.8102C86.2079 3.88701 86.4985 3.95529 86.8062 4.03211C87.1139 4.10892 87.4302 4.18573 87.755 4.27108C88.0799 4.35643 88.3876 4.45885 88.6782 4.58687C88.909 4.68929 89.1312 4.81731 89.3279 4.96241C89.5245 5.1075 89.6954 5.28673 89.8407 5.48303C89.986 5.68787 90.0886 5.92684 90.1655 6.19142C90.2425 6.46454 90.2681 6.77179 90.2596 7.13026C90.2425 7.53993 90.157 7.90693 89.9946 8.23979C89.8322 8.57265 89.6099 8.8543 89.3193 9.08474C89.0287 9.31518 88.6697 9.48588 88.2423 9.60537C87.8234 9.72485 87.3362 9.76753 86.7891 9.75046C86.2592 9.72485 85.7719 9.6139 85.3274 9.40906C84.8829 9.20423 84.5068 8.90551 84.1906 8.5129L84.1649 9.14448Z" fill="#132631"/>
<path d="M102.688 11.6281C102.637 11.8074 102.551 11.9183 102.449 11.9695C102.346 12.0207 102.184 12.0122 101.97 11.9524C101.756 11.8927 101.62 11.8074 101.56 11.7049C101.5 11.6025 101.491 11.466 101.551 11.2867L102.235 9.00792C102.286 8.82869 102.372 8.71773 102.474 8.66653C102.577 8.61532 102.739 8.62385 102.953 8.6836C103.167 8.75187 103.287 8.89697 103.295 9.13594C103.329 9.78459 103.517 10.3308 103.876 10.7832C104.235 11.2355 104.748 11.5598 105.415 11.7561C105.748 11.8586 106.056 11.9098 106.33 11.9012C106.603 11.9012 106.842 11.8586 107.048 11.7732C107.253 11.6879 107.432 11.5684 107.569 11.4062C107.706 11.2441 107.817 11.0563 107.885 10.8344C107.988 10.5015 107.979 10.2113 107.868 9.96382C107.757 9.71631 107.578 9.48587 107.33 9.28103C107.125 9.11887 106.894 8.95671 106.629 8.81162C106.364 8.66653 106.09 8.5129 105.808 8.35927C105.526 8.20564 105.244 8.05202 104.97 7.88985C104.697 7.72769 104.441 7.54846 104.218 7.36069C104.056 7.22414 103.911 7.07051 103.791 6.90835C103.671 6.74618 103.577 6.56695 103.509 6.37919C103.44 6.19142 103.406 5.97805 103.406 5.75614C103.406 5.53423 103.449 5.28672 103.526 5.01361C103.646 4.62101 103.825 4.28815 104.064 4.01503C104.304 3.74192 104.594 3.53708 104.919 3.39199C105.244 3.24689 105.612 3.17862 106.005 3.17008C106.398 3.16155 106.817 3.22129 107.244 3.34931C107.706 3.48587 108.116 3.70778 108.475 4.0065C108.834 4.30522 109.116 4.63808 109.313 5.01361L109.45 4.55273C109.501 4.3735 109.586 4.26254 109.689 4.21133C109.791 4.16012 109.954 4.16866 110.168 4.2284C110.381 4.28815 110.518 4.3735 110.578 4.47591C110.638 4.57833 110.646 4.71489 110.586 4.89412L110.065 6.63523C110.014 6.81446 109.928 6.92542 109.826 6.97663C109.723 7.02783 109.561 7.0193 109.347 6.95956C109.15 6.89981 109.039 6.79739 109.014 6.64377C108.911 6.09754 108.672 5.64519 108.296 5.27819C107.928 4.91119 107.458 4.64661 106.902 4.47591C106.338 4.30522 105.859 4.30522 105.483 4.47591C105.099 4.64661 104.851 4.94533 104.723 5.37207C104.654 5.58544 104.663 5.78175 104.731 5.96098C104.8 6.13167 104.911 6.29384 105.073 6.44746C105.244 6.60963 105.458 6.76325 105.714 6.89981C105.971 7.0449 106.236 7.19 106.518 7.33509C106.8 7.48018 107.082 7.63381 107.372 7.79597C107.663 7.95813 107.937 8.13736 108.184 8.33367C108.39 8.49583 108.561 8.66653 108.723 8.86283C108.885 9.05059 109.005 9.26397 109.091 9.49441C109.176 9.72485 109.227 9.98089 109.236 10.2625C109.244 10.5442 109.193 10.8514 109.091 11.1928C108.971 11.5854 108.8 11.9183 108.561 12.2C108.321 12.4816 108.031 12.7035 107.697 12.8571C107.355 13.0108 106.962 13.0876 106.526 13.0961C106.09 13.1046 105.603 13.0278 105.082 12.8742C104.577 12.7206 104.133 12.4901 103.757 12.1829C103.381 11.8756 103.081 11.4916 102.876 11.0307L102.688 11.6281Z" fill="#132631"/>
<path d="M111.74 9.90412C112.04 9.22987 112.399 8.66657 112.826 8.19715C113.253 7.72774 113.723 7.37781 114.228 7.1303C114.732 6.89132 115.271 6.7633 115.835 6.75476C116.399 6.74623 116.963 6.87425 117.536 7.1303C118.109 7.38634 118.579 7.7192 118.955 8.13741C119.331 8.55562 119.596 9.03357 119.758 9.57127C119.921 10.109 119.972 10.6893 119.904 11.3209C119.844 11.9525 119.664 12.6011 119.365 13.2669C119.066 13.9411 118.707 14.5044 118.279 14.9738C117.852 15.4432 117.382 15.7932 116.878 16.0321C116.373 16.2711 115.835 16.3991 115.271 16.3991C114.706 16.4077 114.142 16.2797 113.57 16.0236C112.997 15.7676 112.527 15.4347 112.151 15.0165C111.775 14.5983 111.51 14.1203 111.347 13.5826C111.185 13.0449 111.133 12.4646 111.193 11.833C111.253 11.2014 111.45 10.5784 111.74 9.90412ZM112.886 10.4162C112.655 10.9368 112.51 11.4319 112.45 11.9098C112.39 12.3878 112.416 12.8145 112.518 13.2156C112.621 13.6168 112.8 13.9582 113.057 14.2654C113.313 14.5642 113.647 14.8117 114.048 14.9824C114.45 15.1616 114.852 15.2469 115.245 15.2299C115.647 15.2213 116.023 15.1189 116.382 14.9312C116.741 14.7434 117.083 14.4703 117.391 14.1033C117.707 13.7448 117.98 13.301 118.211 12.7804C118.442 12.2597 118.587 11.7647 118.647 11.2868C118.707 10.8088 118.681 10.3735 118.579 9.98094C118.476 9.58833 118.297 9.22987 118.04 8.93115C117.784 8.63243 117.45 8.38492 117.049 8.21422C116.647 8.03499 116.245 7.94964 115.852 7.96671C115.459 7.98378 115.074 8.07767 114.706 8.27397C114.347 8.46173 114.006 8.74338 113.689 9.10185C113.373 9.46031 113.125 9.89559 112.886 10.4162Z" fill="#132631"/>
<path d="M124.109 11.7903L123.006 11.1245C122.853 11.0307 122.759 10.9282 122.742 10.8258C122.716 10.7149 122.759 10.5783 122.861 10.4076C122.964 10.2369 123.066 10.1345 123.177 10.1089C123.28 10.0833 123.417 10.1089 123.571 10.2028L127.332 12.4731C127.486 12.5669 127.58 12.6694 127.597 12.7718C127.622 12.8827 127.58 13.0193 127.477 13.19C127.374 13.3607 127.272 13.4631 127.161 13.4887C127.05 13.5143 126.921 13.4887 126.768 13.3948L125.126 12.4048L121.374 18.6096L124.733 20.6324L126.084 18.4048C126.178 18.2426 126.289 18.1573 126.4 18.1317C126.511 18.1061 126.665 18.1573 126.862 18.2682C127.05 18.3792 127.161 18.4987 127.195 18.6096C127.229 18.7206 127.195 18.8571 127.101 19.0193L125.477 21.7078C125.374 21.8785 125.263 21.9809 125.161 22.0065C125.058 22.0321 124.921 22.0065 124.767 21.9126L118.698 18.2511C118.544 18.1573 118.45 18.0548 118.433 17.9524C118.408 17.8415 118.45 17.7049 118.553 17.5342C118.656 17.3635 118.767 17.2611 118.869 17.2355C118.972 17.2099 119.109 17.2355 119.263 17.3294L120.365 17.9951L124.109 11.7903Z" fill="#132631"/>
<path d="M131.742 16.5954C131.606 16.4845 131.529 16.3735 131.512 16.2626C131.503 16.1516 131.554 16.0236 131.683 15.8615C131.811 15.7078 131.922 15.6139 132.033 15.6054C132.144 15.5883 132.272 15.6395 132.409 15.7505L134.426 17.338C134.563 17.4489 134.64 17.5599 134.657 17.6708C134.666 17.7818 134.614 17.9098 134.486 18.072C134.358 18.2256 134.247 18.3195 134.136 18.328C134.025 18.3451 133.896 18.2939 133.76 18.1829L133.059 17.6367L129.922 21.6054C129.665 21.9297 129.486 22.2284 129.375 22.5101C129.263 22.7917 129.221 23.0563 129.246 23.3124C129.272 23.5684 129.366 23.8074 129.52 24.0378C129.682 24.2683 129.896 24.4902 130.178 24.7121C130.46 24.934 130.734 25.0962 130.99 25.1986C131.247 25.301 131.512 25.3351 131.759 25.301C132.007 25.2669 132.264 25.1644 132.512 24.9937C132.76 24.823 133.007 24.5755 133.264 24.2512L136.401 20.2825L135.709 19.7363C135.563 19.6253 135.486 19.5144 135.478 19.4034C135.469 19.2925 135.521 19.1559 135.649 19.0023C135.768 18.8486 135.888 18.7548 135.999 18.7462C136.11 18.7292 136.23 18.7804 136.375 18.8913L138.393 20.4788C138.529 20.5898 138.606 20.7007 138.623 20.8117C138.632 20.9226 138.581 21.0506 138.452 21.2128C138.324 21.3664 138.213 21.4603 138.102 21.4688C137.991 21.4859 137.863 21.4347 137.726 21.3238L137.341 21.0165L134.11 25.1047C133.76 25.5485 133.392 25.8814 133.016 26.1118C132.64 26.3422 132.255 26.4703 131.862 26.5044C131.469 26.5385 131.076 26.4788 130.665 26.3252C130.264 26.1715 129.853 25.9411 129.452 25.6253C129.041 25.301 128.725 24.9681 128.486 24.6097C128.246 24.2512 128.101 23.8842 128.041 23.4916C127.981 23.1075 128.024 22.6979 128.161 22.2797C128.298 21.8615 128.537 21.4347 128.887 20.9909L132.118 16.9027L131.742 16.5954Z" fill="#132631"/>
<path d="M139.624 33.6054C139.025 33.4944 138.461 33.2896 137.931 32.9994C137.401 32.7092 136.931 32.3508 136.504 31.9155C136.068 31.4717 135.751 30.9937 135.563 30.4646C135.375 29.9439 135.307 29.4062 135.358 28.86C135.409 28.3138 135.589 27.759 135.88 27.1957C136.17 26.6409 136.581 26.1033 137.102 25.5826C137.623 25.0705 138.17 24.6694 138.735 24.3877C139.299 24.1061 139.863 23.9439 140.427 23.9013C140.983 23.8586 141.521 23.9354 142.043 24.1317C142.564 24.328 143.034 24.6353 143.453 25.062C143.812 25.429 144.068 25.8045 144.214 26.1971C144.359 26.5897 144.41 26.9823 144.376 27.3835L144.701 27.0592C144.829 26.9311 144.957 26.8714 145.077 26.8714C145.197 26.8799 145.334 26.9567 145.487 27.1189C145.641 27.2811 145.727 27.4176 145.727 27.5286C145.735 27.6481 145.667 27.7675 145.539 27.8956L143.675 29.7306C143.547 29.8586 143.419 29.9183 143.299 29.9183C143.179 29.9183 143.043 29.833 142.889 29.6708C142.735 29.5087 142.65 29.3721 142.65 29.2611C142.641 29.1417 142.709 29.0222 142.838 28.8856C143.026 28.7064 143.171 28.5015 143.274 28.2711C143.385 28.0407 143.436 27.8017 143.436 27.5456C143.436 27.2896 143.376 27.025 143.256 26.7519C143.137 26.4788 142.94 26.2057 142.675 25.9326C142.376 25.6253 142.034 25.4119 141.658 25.2754C141.282 25.1388 140.889 25.0961 140.478 25.1388C140.068 25.1815 139.649 25.318 139.222 25.5314C138.794 25.7448 138.384 26.0606 137.974 26.4617C137.564 26.8629 137.247 27.2725 137.016 27.6907C136.786 28.1089 136.64 28.5186 136.589 28.9112C136.538 29.3124 136.572 29.6964 136.692 30.0634C136.82 30.4304 137.025 30.7718 137.333 31.0791C137.7 31.4546 138.111 31.7619 138.547 31.9923C138.982 32.2227 139.444 32.3678 139.923 32.4361C140.06 32.4532 140.162 32.5129 140.248 32.6068C140.324 32.7007 140.342 32.8629 140.282 33.0848C140.23 33.2896 140.145 33.4347 140.034 33.52C139.931 33.6054 139.786 33.631 139.624 33.6054Z" fill="#132631"/>
<path d="M148.872 33.153L147.633 31.5485C147.522 31.4034 147.479 31.2839 147.496 31.173C147.513 31.062 147.599 30.9511 147.761 30.823C147.924 30.695 148.052 30.6438 148.163 30.6609C148.274 30.6694 148.385 30.7548 148.488 30.8913L151.685 35.0478C151.796 35.1929 151.839 35.3124 151.821 35.4233C151.804 35.5343 151.719 35.6452 151.556 35.7732C151.394 35.9013 151.266 35.9525 151.155 35.9354C151.044 35.9183 150.932 35.8415 150.83 35.705L149.59 34.1004L143.838 38.5129L145.171 40.2455C145.282 40.3906 145.325 40.5101 145.308 40.621C145.291 40.732 145.205 40.8429 145.043 40.971C144.881 41.0905 144.752 41.1502 144.641 41.1331C144.53 41.1161 144.419 41.0392 144.316 40.9027L140.931 36.4902C140.82 36.3451 140.778 36.2256 140.795 36.1146C140.812 36.0037 140.897 35.8927 141.06 35.7647C141.222 35.6367 141.35 35.5855 141.461 35.6025C141.573 35.6111 141.684 35.6964 141.786 35.833L143.12 37.5656L148.872 33.153Z" fill="#132631"/>
<path d="M149.77 40.4333C150.402 40.0663 151.026 39.8102 151.65 39.6822C152.274 39.5542 152.856 39.5371 153.411 39.631C153.967 39.7334 154.471 39.9382 154.933 40.2626C155.394 40.5869 155.779 41.0222 156.095 41.5599C156.412 42.0976 156.6 42.6438 156.659 43.2071C156.719 43.7704 156.651 44.3081 156.471 44.8458C156.283 45.3749 155.984 45.8785 155.574 46.3565C155.155 46.8344 154.634 47.2526 154.001 47.6281C153.369 47.9951 152.736 48.2512 152.121 48.3792C151.505 48.5072 150.915 48.5243 150.368 48.4219C149.813 48.3195 149.308 48.1061 148.847 47.7818C148.385 47.4575 148 47.0222 147.684 46.4845C147.368 45.9468 147.18 45.4006 147.12 44.8373C147.06 44.274 147.12 43.7363 147.308 43.2071C147.488 42.6779 147.787 42.1744 148.206 41.6964C148.616 41.2355 149.137 40.8088 149.77 40.4333ZM150.402 41.5172C149.907 41.8074 149.505 42.1232 149.18 42.4731C148.855 42.823 148.624 43.19 148.471 43.5741C148.325 43.9582 148.265 44.3422 148.3 44.7348C148.334 45.1274 148.462 45.52 148.684 45.8956C148.907 46.2711 149.18 46.5698 149.513 46.8003C149.847 47.0222 150.214 47.1673 150.616 47.2185C151.018 47.2782 151.454 47.2526 151.924 47.1417C152.386 47.0307 152.864 46.8344 153.36 46.5442C153.856 46.254 154.258 45.9382 154.582 45.5883C154.907 45.2384 155.146 44.8714 155.292 44.4873C155.446 44.1033 155.497 43.7192 155.471 43.318C155.437 42.9254 155.309 42.5328 155.087 42.1573C154.864 41.7818 154.591 41.4831 154.258 41.2526C153.924 41.0307 153.557 40.8941 153.155 40.8344C152.753 40.7747 152.309 40.8088 151.847 40.9198C151.377 41.0307 150.898 41.227 150.402 41.5172Z" fill="#132631"/>
<path d="M158.42 48.4902L158.181 47.9269C158.113 47.7647 158.096 47.6282 158.138 47.5257C158.181 47.4233 158.292 47.338 158.48 47.2526C158.668 47.1758 158.805 47.1502 158.908 47.1929C159.01 47.2355 159.096 47.338 159.164 47.5001L159.865 49.1303C159.95 49.3266 159.942 49.4973 159.839 49.6338L155.138 55.7277L160.532 53.4233L160.164 52.5698C160.096 52.4077 160.079 52.2711 160.121 52.1687C160.164 52.0663 160.275 51.9809 160.463 51.8956C160.651 51.8188 160.788 51.7932 160.891 51.8358C160.993 51.8785 161.079 51.9809 161.156 52.1431L162.164 54.4987C162.233 54.6609 162.25 54.7974 162.207 54.8998C162.164 55.0023 162.053 55.0876 161.865 55.173C161.677 55.2498 161.54 55.2754 161.438 55.2327C161.335 55.19 161.25 55.0876 161.181 54.9254L161.002 54.5072L153.608 57.6651C153.48 57.7163 153.36 57.7163 153.24 57.6651C153.121 57.6139 153.027 57.4944 152.941 57.2981C152.881 57.153 152.864 57.025 152.898 56.897C152.924 56.769 152.992 56.641 153.086 56.5129L158.224 49.8472L152.215 52.4162L152.642 53.4148C152.71 53.5769 152.727 53.7135 152.685 53.8159C152.642 53.9183 152.531 54.0037 152.343 54.089C152.155 54.1658 152.018 54.1915 151.915 54.1488C151.813 54.1061 151.727 54.0037 151.659 53.8415L150.556 51.264C150.488 51.1018 150.471 50.9653 150.514 50.8629C150.556 50.7604 150.667 50.6751 150.855 50.5897C151.044 50.5129 151.18 50.4873 151.283 50.53C151.385 50.5727 151.471 50.6751 151.539 50.8373L151.753 51.3237L158.42 48.4902Z" fill="#132631"/>
<path d="M162.344 58.3905L162.122 57.6139C162.07 57.4432 162.079 57.3066 162.13 57.2127C162.181 57.1189 162.31 57.042 162.506 56.9908C162.703 56.9396 162.848 56.9311 162.942 56.9823C163.036 57.0335 163.113 57.1445 163.164 57.3152L165.071 63.9723C165.122 64.143 165.113 64.2796 165.062 64.3735C165.011 64.4674 164.883 64.5442 164.686 64.5954L162.746 65.1501C162.566 65.2014 162.429 65.1928 162.327 65.1331C162.224 65.0733 162.147 64.9368 162.087 64.7234C162.028 64.51 162.019 64.3479 162.079 64.2455C162.13 64.143 162.25 64.0577 162.421 64.015L163.84 63.6139L162.677 59.5427L159.848 60.3536L160.395 62.2568L161.087 62.0605C161.267 62.0093 161.404 62.0179 161.506 62.0776C161.609 62.1373 161.686 62.2739 161.745 62.4873C161.805 62.7006 161.814 62.8628 161.763 62.9652C161.711 63.0676 161.592 63.153 161.421 63.1957L158.993 63.887C158.814 63.9382 158.677 63.9297 158.574 63.8699C158.472 63.8102 158.395 63.6736 158.335 63.4602C158.275 63.2469 158.266 63.0847 158.326 62.9823C158.378 62.8799 158.497 62.8031 158.668 62.7519L159.361 62.5556L158.814 60.6523L155.702 61.5399L156.916 65.7647L158.66 65.2696C158.839 65.2184 158.976 65.227 159.079 65.2867C159.181 65.3464 159.258 65.483 159.318 65.6964C159.378 65.9097 159.386 66.0719 159.335 66.1743C159.284 66.2767 159.164 66.3621 158.993 66.4048L156.728 67.0534C156.531 67.1046 156.386 67.1132 156.292 67.062C156.198 67.0107 156.121 66.8998 156.07 66.7291L154.121 59.9183C154.069 59.7476 154.078 59.611 154.129 59.5171C154.181 59.4233 154.309 59.3465 154.505 59.2952C154.702 59.244 154.847 59.2355 154.941 59.2867C155.035 59.3379 155.112 59.4489 155.164 59.6196L155.386 60.3962L162.344 58.3905Z" fill="#132631"/>
<path d="M157.095 70.1004C156.916 70.126 156.779 70.1089 156.685 70.0321C156.591 69.9553 156.531 69.8102 156.497 69.5883C156.463 69.3664 156.48 69.2128 156.548 69.1103C156.617 69.0165 156.736 68.9482 156.916 68.9226L159.267 68.5641C159.446 68.5385 159.591 68.5556 159.677 68.6324C159.771 68.7092 159.831 68.8543 159.865 69.0762C159.899 69.2981 159.814 69.4688 159.609 69.5797C159.036 69.887 158.626 70.2967 158.369 70.8088C158.113 71.3209 158.044 71.9268 158.147 72.6096C158.198 72.951 158.284 73.2497 158.403 73.4972C158.523 73.7448 158.66 73.9411 158.831 74.0947C159.002 74.2483 159.181 74.3507 159.386 74.4105C159.591 74.4702 159.814 74.4788 160.044 74.4446C160.386 74.3934 160.651 74.2654 160.831 74.052C161.01 73.8472 161.139 73.5911 161.216 73.2753C161.275 73.0193 161.318 72.7376 161.344 72.4389C161.361 72.1402 161.378 71.8244 161.395 71.5086C161.412 71.1843 161.429 70.8685 161.455 70.5527C161.48 70.2369 161.532 69.9297 161.609 69.648C161.66 69.4432 161.737 69.2469 161.831 69.0677C161.925 68.8884 162.045 68.7263 162.19 68.5812C162.335 68.4361 162.506 68.3166 162.711 68.2227C162.917 68.1203 163.156 68.052 163.429 68.0093C163.84 67.9496 164.216 67.9667 164.566 68.0691C164.917 68.1715 165.224 68.3337 165.498 68.5726C165.772 68.8116 165.994 69.1018 166.165 69.4517C166.336 69.8017 166.464 70.2028 166.532 70.6466C166.601 71.1246 166.584 71.5854 166.472 72.0378C166.361 72.4901 166.173 72.8827 165.925 73.2241L166.404 73.1473C166.584 73.1217 166.729 73.1388 166.814 73.2156C166.9 73.2924 166.968 73.4375 167.002 73.6594C167.037 73.8813 167.02 74.0349 166.96 74.1374C166.891 74.2312 166.772 74.2995 166.584 74.3251L164.78 74.6068C164.6 74.6324 164.455 74.6153 164.37 74.5385C164.276 74.4617 164.216 74.3166 164.182 74.0947C164.147 73.8984 164.199 73.7533 164.327 73.6594C164.771 73.3265 165.079 72.9169 165.259 72.4304C165.438 71.9439 165.472 71.4062 165.387 70.8344C165.293 70.254 165.088 69.8273 164.771 69.5541C164.455 69.2896 164.071 69.1871 163.635 69.2554C163.412 69.2896 163.233 69.3749 163.105 69.5115C162.976 69.648 162.882 69.8187 162.814 70.0321C162.746 70.254 162.694 70.51 162.677 70.8002C162.66 71.0904 162.643 71.3891 162.626 71.7049C162.609 72.0207 162.6 72.345 162.575 72.6779C162.549 73.0108 162.506 73.3266 162.438 73.6423C162.378 73.8899 162.301 74.1288 162.19 74.3507C162.087 74.5726 161.951 74.7775 161.771 74.9567C161.6 75.1359 161.386 75.2896 161.139 75.4176C160.891 75.5456 160.592 75.631 160.241 75.6907C159.839 75.7504 159.455 75.7334 159.096 75.648C158.737 75.5627 158.412 75.392 158.13 75.1445C157.848 74.9055 157.608 74.5812 157.412 74.1971C157.215 73.8045 157.078 73.3436 156.993 72.8059C156.916 72.2853 156.933 71.7817 157.053 71.3123C157.172 70.8344 157.395 70.4076 157.711 70.0236L157.095 70.1004Z" fill="#132631"/>
<path d="M162.378 109.455L162.703 108.55C162.763 108.379 162.848 108.277 162.942 108.226C163.045 108.183 163.19 108.191 163.378 108.26C163.566 108.328 163.686 108.413 163.737 108.507C163.788 108.61 163.78 108.738 163.72 108.908L162.369 112.638C162.207 113.082 162.01 113.457 161.771 113.756C161.532 114.055 161.267 114.277 160.976 114.422C160.686 114.576 160.369 114.652 160.027 114.661C159.685 114.669 159.344 114.61 158.985 114.482C158.6 114.345 158.292 114.132 158.061 113.859C157.839 113.577 157.694 113.253 157.625 112.877C157.266 113.346 156.848 113.645 156.377 113.799C155.907 113.944 155.386 113.918 154.83 113.713C154.437 113.568 154.112 113.381 153.847 113.142C153.582 112.903 153.386 112.621 153.249 112.297C153.112 111.972 153.061 111.614 153.069 111.221C153.078 110.82 153.172 110.393 153.334 109.941L154.856 105.716C154.916 105.546 155.001 105.443 155.095 105.392C155.198 105.349 155.343 105.358 155.531 105.426C155.719 105.494 155.839 105.58 155.89 105.674C155.941 105.776 155.933 105.904 155.873 106.075L155.548 106.979L162.378 109.455ZM154.437 110.086C154.215 110.709 154.172 111.23 154.317 111.648C154.463 112.066 154.779 112.365 155.258 112.536C156.283 112.903 157.019 112.467 157.472 111.221L158.198 109.207L155.147 108.106L154.437 110.086ZM158.66 111.119C158.446 111.708 158.412 112.186 158.549 112.553C158.685 112.928 158.967 113.193 159.412 113.346C159.865 113.509 160.258 113.492 160.6 113.287C160.942 113.09 161.216 112.689 161.429 112.109L161.985 110.564L159.224 109.574L158.66 111.119Z" fill="#132631"/>
<path d="M157.583 121.028L158.506 119.218C158.583 119.056 158.685 118.962 158.788 118.928C158.891 118.894 159.036 118.928 159.215 119.014C159.395 119.099 159.497 119.201 159.54 119.304C159.583 119.406 159.549 119.543 159.472 119.696L157.087 124.365C157.001 124.527 156.907 124.621 156.805 124.655C156.702 124.689 156.557 124.655 156.377 124.57C156.198 124.476 156.095 124.382 156.053 124.28C156.018 124.177 156.036 124.041 156.121 123.887L157.044 122.078L150.582 118.783L149.59 120.729C149.505 120.891 149.411 120.985 149.308 121.019C149.206 121.053 149.06 121.019 148.881 120.934C148.701 120.84 148.599 120.746 148.556 120.644C148.513 120.541 148.539 120.405 148.624 120.251L151.155 115.301C151.24 115.139 151.334 115.045 151.437 115.011C151.539 114.977 151.685 115.011 151.864 115.096C152.044 115.19 152.146 115.284 152.189 115.386C152.232 115.489 152.198 115.625 152.121 115.779L151.129 117.725L157.583 121.028Z" fill="#132631"/>
<path d="M153.642 128.095L154.138 127.361C154.24 127.216 154.343 127.13 154.454 127.113C154.565 127.096 154.702 127.139 154.864 127.258C155.027 127.369 155.121 127.48 155.147 127.591C155.172 127.702 155.129 127.83 155.027 127.975L153.446 130.297C153.343 130.442 153.24 130.527 153.129 130.544C153.018 130.561 152.881 130.519 152.719 130.399C152.557 130.288 152.462 130.177 152.437 130.066C152.411 129.955 152.454 129.827 152.557 129.682L152.967 129.076L150.206 127.199L151.035 131.918L151.334 131.474C151.437 131.329 151.539 131.244 151.65 131.227C151.762 131.21 151.898 131.253 152.061 131.372C152.223 131.483 152.317 131.594 152.343 131.705C152.368 131.816 152.326 131.944 152.223 132.089L150.779 134.214C150.676 134.359 150.573 134.445 150.462 134.462C150.351 134.479 150.214 134.436 150.052 134.317C149.881 134.206 149.796 134.095 149.77 133.984C149.744 133.873 149.787 133.745 149.89 133.6L150.146 133.224L149.377 128.649C149.197 128.957 148.966 129.213 148.701 129.409C148.428 129.597 148.095 129.708 147.693 129.742C147.445 129.75 147.197 129.742 146.932 129.708C146.667 129.674 146.411 129.622 146.154 129.563C145.898 129.503 145.65 129.452 145.41 129.392C145.171 129.332 144.949 129.298 144.752 129.281C144.556 129.264 144.385 129.272 144.231 129.307C144.086 129.341 143.966 129.426 143.88 129.554L143.752 129.733C143.65 129.878 143.547 129.964 143.436 129.981C143.325 129.998 143.188 129.955 143.026 129.836C142.863 129.716 142.769 129.614 142.744 129.503C142.718 129.392 142.761 129.264 142.863 129.119L143.231 128.581C143.368 128.385 143.564 128.24 143.829 128.137C144.094 128.035 144.453 128.018 144.906 128.078C145.137 128.112 145.376 128.154 145.616 128.206C145.855 128.257 146.094 128.317 146.325 128.376C146.556 128.436 146.787 128.479 147.009 128.521C147.231 128.564 147.445 128.581 147.641 128.573C147.864 128.573 148.069 128.521 148.257 128.419C148.445 128.317 148.607 128.163 148.744 127.958C148.864 127.779 148.949 127.583 149.009 127.369C149.069 127.156 149.069 126.934 149.026 126.712L148.966 126.388L146.949 125.014L146.231 126.072C146.129 126.217 146.026 126.302 145.915 126.319C145.804 126.336 145.667 126.294 145.505 126.174C145.342 126.063 145.248 125.952 145.222 125.841C145.197 125.731 145.24 125.602 145.342 125.457L147.231 122.684C147.334 122.538 147.436 122.453 147.547 122.436C147.659 122.419 147.795 122.462 147.958 122.581C148.12 122.692 148.214 122.803 148.24 122.914C148.265 123.025 148.223 123.153 148.12 123.298L147.624 124.032L153.642 128.095Z" fill="#132631"/>
<path d="M145.727 133.096C146.282 133.583 146.71 134.095 147.035 134.641C147.359 135.187 147.556 135.742 147.633 136.297C147.71 136.851 147.667 137.398 147.505 137.935C147.342 138.473 147.052 138.977 146.641 139.446C146.231 139.915 145.769 140.265 145.257 140.496C144.744 140.726 144.205 140.837 143.641 140.829C143.077 140.82 142.504 140.692 141.923 140.445C141.342 140.197 140.769 139.839 140.222 139.352C139.675 138.866 139.239 138.354 138.914 137.807C138.598 137.261 138.401 136.706 138.316 136.16C138.239 135.605 138.282 135.059 138.444 134.521C138.606 133.984 138.897 133.48 139.307 133.011C139.718 132.541 140.179 132.191 140.692 131.961C141.205 131.731 141.743 131.62 142.299 131.628C142.863 131.637 143.436 131.765 144.017 132.004C144.616 132.251 145.18 132.618 145.727 133.096ZM144.906 134.035C144.479 133.659 144.043 133.369 143.607 133.173C143.171 132.977 142.752 132.866 142.342 132.849C141.931 132.832 141.547 132.9 141.179 133.053C140.812 133.207 140.487 133.455 140.196 133.779C139.906 134.103 139.709 134.462 139.598 134.846C139.487 135.23 139.47 135.622 139.547 136.024C139.615 136.425 139.777 136.826 140.034 137.236C140.282 137.645 140.624 138.038 141.051 138.413C141.478 138.789 141.914 139.079 142.35 139.275C142.786 139.472 143.205 139.583 143.615 139.6C144.026 139.625 144.41 139.557 144.778 139.395C145.146 139.241 145.47 138.994 145.761 138.669C146.052 138.345 146.248 137.987 146.359 137.603C146.47 137.218 146.488 136.826 146.411 136.425C146.334 136.024 146.171 135.614 145.923 135.213C145.675 134.803 145.334 134.419 144.906 134.035Z" fill="#132631"/>
<path d="M132.896 150.49L133.401 150.149C133.546 150.046 133.674 150.004 133.785 150.029C133.888 150.055 134.008 150.149 134.119 150.311C134.23 150.473 134.281 150.61 134.264 150.721C134.247 150.832 134.162 150.934 134.016 151.036L132.555 152.035C132.375 152.154 132.213 152.18 132.059 152.103L125.161 148.689L128.477 153.52L129.238 152.999C129.383 152.897 129.511 152.854 129.623 152.88C129.734 152.905 129.845 152.999 129.956 153.162C130.067 153.324 130.118 153.46 130.101 153.571C130.084 153.682 129.999 153.785 129.853 153.887L127.734 155.338C127.588 155.44 127.46 155.483 127.349 155.457C127.238 155.432 127.127 155.338 127.015 155.176C126.904 155.014 126.853 154.877 126.87 154.766C126.887 154.655 126.973 154.553 127.118 154.45L127.494 154.194L122.947 147.571C122.87 147.46 122.844 147.341 122.878 147.213C122.904 147.085 123.007 146.965 123.177 146.854C123.306 146.769 123.434 146.726 123.562 146.726C123.69 146.726 123.827 146.769 123.972 146.837L131.52 150.567L127.828 145.181L126.93 145.796C126.785 145.898 126.656 145.941 126.545 145.915C126.434 145.89 126.323 145.796 126.212 145.634C126.101 145.472 126.05 145.335 126.067 145.224C126.084 145.113 126.169 145.011 126.315 144.908L128.631 143.321C128.776 143.218 128.905 143.176 129.016 143.201C129.127 143.227 129.238 143.321 129.349 143.483C129.46 143.645 129.511 143.782 129.494 143.893C129.477 144.004 129.392 144.106 129.246 144.208L128.811 144.507L132.896 150.49Z" fill="#132631"/>
<path d="M124.733 155.867C124.896 155.782 125.024 155.765 125.126 155.799C125.229 155.833 125.331 155.944 125.417 156.123C125.502 156.302 125.537 156.447 125.511 156.55C125.477 156.652 125.383 156.746 125.22 156.832L122.938 158.009C122.776 158.095 122.647 158.112 122.545 158.078C122.442 158.044 122.34 157.933 122.254 157.753C122.16 157.574 122.135 157.429 122.16 157.327C122.194 157.224 122.288 157.13 122.451 157.045L123.237 156.635L120.921 152.146C120.733 151.779 120.536 151.489 120.322 151.275C120.109 151.062 119.886 150.908 119.647 150.832C119.408 150.755 119.151 150.738 118.869 150.789C118.596 150.84 118.297 150.943 117.98 151.113C117.664 151.284 117.399 151.455 117.202 151.651C117.006 151.847 116.869 152.069 116.792 152.308C116.715 152.556 116.707 152.82 116.758 153.119C116.809 153.418 116.937 153.742 117.126 154.109L119.442 158.598L120.228 158.189C120.391 158.103 120.519 158.086 120.622 158.12C120.724 158.154 120.827 158.265 120.912 158.445C121.006 158.624 121.032 158.769 121.006 158.871C120.972 158.974 120.878 159.068 120.716 159.153L118.433 160.331C118.271 160.416 118.143 160.433 118.04 160.399C117.938 160.365 117.835 160.254 117.75 160.075C117.664 159.896 117.63 159.75 117.655 159.648C117.69 159.546 117.784 159.452 117.946 159.366L118.382 159.145L115.997 154.51C115.741 154.007 115.578 153.537 115.527 153.102C115.476 152.667 115.51 152.265 115.647 151.89C115.775 151.523 115.997 151.181 116.305 150.874C116.613 150.567 116.989 150.294 117.45 150.063C117.912 149.824 118.356 149.671 118.775 149.603C119.194 149.534 119.604 149.551 119.981 149.662C120.357 149.773 120.707 149.97 121.032 150.268C121.357 150.567 121.647 150.96 121.912 151.463L124.297 156.098L124.733 155.867Z" fill="#132631"/>
<path d="M114.621 160.749L115.382 160.467C115.553 160.408 115.681 160.399 115.784 160.45C115.886 160.502 115.963 160.621 116.031 160.809C116.1 160.997 116.108 161.142 116.066 161.244C116.023 161.346 115.912 161.423 115.741 161.492L109.227 163.864C109.056 163.924 108.928 163.933 108.826 163.881C108.723 163.83 108.646 163.719 108.578 163.523L107.885 161.637C107.825 161.466 107.817 161.321 107.868 161.218C107.919 161.116 108.056 161.022 108.261 160.945C108.467 160.869 108.629 160.851 108.74 160.894C108.851 160.937 108.937 161.048 108.997 161.218L109.501 162.601L113.484 161.15L112.475 158.393L110.612 159.076L110.86 159.75C110.92 159.921 110.928 160.066 110.877 160.169C110.826 160.271 110.689 160.365 110.484 160.442C110.279 160.519 110.116 160.536 110.005 160.493C109.894 160.45 109.809 160.339 109.749 160.169L108.885 157.804C108.826 157.634 108.817 157.489 108.868 157.386C108.92 157.284 109.056 157.19 109.261 157.113C109.467 157.036 109.629 157.019 109.74 157.062C109.851 157.105 109.937 157.216 109.997 157.386L110.244 158.061L112.108 157.378L110.997 154.339L106.86 155.85L107.484 157.557C107.543 157.728 107.552 157.873 107.501 157.975C107.449 158.078 107.313 158.171 107.107 158.248C106.902 158.325 106.74 158.342 106.629 158.3C106.518 158.257 106.432 158.146 106.372 157.975L105.56 155.765C105.492 155.577 105.483 155.432 105.526 155.329C105.569 155.227 105.68 155.15 105.851 155.082L112.51 152.649C112.681 152.59 112.809 152.581 112.911 152.632C113.014 152.684 113.091 152.795 113.159 152.991C113.228 153.179 113.236 153.324 113.194 153.426C113.151 153.529 113.04 153.605 112.877 153.674L112.116 153.947L114.621 160.749Z" fill="#132631"/>
<path d="M106.107 163.736C106.287 163.694 106.415 163.702 106.509 163.77C106.603 163.83 106.672 163.958 106.714 164.154C106.757 164.351 106.748 164.496 106.697 164.59C106.637 164.684 106.526 164.752 106.347 164.795L103.458 165.452C103.278 165.494 103.15 165.486 103.056 165.418C102.962 165.358 102.893 165.23 102.851 165.034C102.808 164.837 102.816 164.692 102.868 164.598C102.928 164.504 103.039 164.436 103.218 164.393L104.312 164.146L100.389 157.856L99.5597 165.221L100.329 165.042C100.508 164.999 100.637 165.016 100.731 165.076C100.825 165.136 100.893 165.264 100.936 165.46C100.979 165.657 100.97 165.802 100.919 165.896C100.859 165.989 100.748 166.058 100.568 166.1L97.9869 166.689C97.8074 166.732 97.6791 166.723 97.5851 166.655C97.4911 166.595 97.4227 166.467 97.38 166.271C97.3372 166.075 97.3458 165.93 97.3971 165.836C97.4569 165.742 97.568 165.674 97.7475 165.631L98.3459 165.494L99.346 157.079C99.3716 156.883 99.44 156.729 99.5597 156.627C99.6793 156.516 99.8418 156.439 100.064 156.388C100.286 156.337 100.474 156.337 100.62 156.388C100.765 156.43 100.893 156.541 100.996 156.712L105.526 163.864L106.107 163.736Z" fill="#132631"/>
<path d="M92.6102 158.982C92.4307 158.999 92.3025 158.974 92.217 158.905C92.1315 158.837 92.0802 158.701 92.0631 158.496C92.0461 158.3 92.0631 158.154 92.1315 158.069C92.1999 157.984 92.3196 157.933 92.4991 157.915L95.1318 157.651C95.3113 157.634 95.4396 157.659 95.525 157.728C95.6105 157.796 95.6618 157.933 95.6789 158.137C95.696 158.334 95.6789 158.479 95.6105 158.564C95.5421 158.649 95.4225 158.701 95.243 158.718L94.7985 158.76L92.9008 166.228L94.3796 166.083C94.5591 166.066 94.6873 166.092 94.7728 166.16C94.8583 166.228 94.9096 166.365 94.9267 166.57C94.9438 166.766 94.9267 166.911 94.8583 166.997C94.7899 167.082 94.6617 167.133 94.4907 167.15L91.593 167.44C91.3793 167.457 91.2084 167.44 91.0716 167.372C90.9348 167.304 90.8237 167.184 90.7468 167.005L87.1909 159.511L86.7122 159.563C86.5327 159.58 86.4044 159.554 86.319 159.486C86.2335 159.418 86.1822 159.281 86.1651 159.076C86.148 158.88 86.1737 158.735 86.242 158.649C86.3104 158.564 86.4301 158.513 86.6096 158.496L89.4048 158.223C89.5843 158.206 89.7125 158.231 89.798 158.3C89.8834 158.368 89.9347 158.504 89.9518 158.709C89.9689 158.906 89.9518 159.051 89.8834 159.136C89.815 159.221 89.6954 159.272 89.5159 159.29L88.4474 159.392L89.2765 161.201L93.106 160.826L93.5761 158.888L92.6102 158.982ZM92.8325 161.935L89.7381 162.243L91.6272 166.356L91.7811 166.339L92.8325 161.935Z" fill="#132631"/>
<path d="M83.9769 158.812C83.9769 158.624 84.0281 158.496 84.1136 158.419C84.1991 158.342 84.3615 158.308 84.5838 158.308C84.806 158.317 84.9599 158.359 85.0453 158.436C85.1308 158.513 85.1736 158.649 85.165 158.837L85.1052 161.21C85.1052 161.398 85.0539 161.526 84.9684 161.603C84.8829 161.679 84.7205 161.713 84.4983 161.713C84.2675 161.705 84.1222 161.594 84.0452 161.372C83.8401 160.758 83.5153 160.28 83.0451 159.938C82.5835 159.597 82.0023 159.418 81.3014 159.409C80.9509 159.401 80.6432 159.435 80.3867 159.503C80.1218 159.571 79.8995 159.682 79.7286 159.819C79.549 159.955 79.4123 160.117 79.3183 160.314C79.2242 160.51 79.1729 160.715 79.1644 160.954C79.1558 161.304 79.2328 161.585 79.4123 161.79C79.5918 161.995 79.814 162.174 80.1132 162.302C80.3525 162.405 80.6175 162.499 80.9167 162.575C81.2159 162.652 81.5151 162.721 81.8313 162.789C82.1476 162.857 82.4553 162.934 82.7631 163.019C83.0708 163.105 83.3614 163.207 83.6264 163.335C83.823 163.42 83.9939 163.531 84.1564 163.659C84.3188 163.787 84.4555 163.933 84.5667 164.095C84.6778 164.265 84.7718 164.453 84.8316 164.675C84.8915 164.888 84.9171 165.144 84.9086 165.426C84.9 165.836 84.8145 166.203 84.6521 166.536C84.4897 166.869 84.2675 167.133 83.9939 167.355C83.7119 167.577 83.3871 167.748 83.0024 167.859C82.6177 167.97 82.2074 168.021 81.7544 168.012C81.2757 168.004 80.8227 167.901 80.3953 167.705C79.9679 167.509 79.6089 167.261 79.3183 166.954L79.3097 167.44C79.3012 167.628 79.2584 167.756 79.1644 167.833C79.0789 167.91 78.9165 167.944 78.6943 167.944C78.472 167.935 78.3182 167.893 78.2327 167.816C78.1472 167.739 78.1045 167.603 78.113 167.415L78.1557 165.597C78.1557 165.409 78.207 165.281 78.2925 165.204C78.378 165.127 78.5404 165.093 78.7626 165.093C78.9678 165.102 79.096 165.17 79.1729 165.307C79.4208 165.802 79.7713 166.177 80.2243 166.442C80.6774 166.706 81.1988 166.834 81.78 166.851C82.3699 166.869 82.8314 166.74 83.1477 166.476C83.4725 166.211 83.6349 165.853 83.6435 165.409C83.652 165.179 83.5922 164.991 83.4811 164.846C83.37 164.701 83.2161 164.573 83.0195 164.47C82.8143 164.359 82.5665 164.265 82.2844 164.197C82.0023 164.129 81.7117 164.061 81.3954 163.992C81.0877 163.924 80.7714 163.847 80.4466 163.77C80.1218 163.694 79.814 163.591 79.5234 163.463C79.2841 163.361 79.0704 163.241 78.8652 163.096C78.6601 162.951 78.4891 162.78 78.3438 162.584C78.1985 162.379 78.0874 162.149 78.0019 161.876C77.925 161.611 77.8822 161.295 77.8908 160.945C77.8993 160.536 77.9848 160.169 78.1386 159.827C78.2925 159.486 78.5148 159.204 78.8054 158.965C79.096 158.726 79.4465 158.547 79.8739 158.428C80.3013 158.308 80.7799 158.248 81.3185 158.257C81.8484 158.274 82.3357 158.376 82.7801 158.581C83.2246 158.786 83.6093 159.076 83.9341 159.46L83.9769 158.812Z" fill="#132631"/>
<path d="M65.4194 156.644C65.4707 156.465 65.5476 156.354 65.6502 156.302C65.7528 156.251 65.9152 156.251 66.1289 156.311C66.3426 156.371 66.4794 156.447 66.5392 156.55C66.599 156.652 66.6076 156.789 66.5563 156.968L65.9152 159.255C65.8639 159.435 65.787 159.546 65.6844 159.605C65.5818 159.657 65.4194 159.657 65.2057 159.597C64.9835 159.537 64.8724 159.383 64.8553 159.153C64.8125 158.504 64.6074 157.958 64.2484 157.514C63.8808 157.071 63.3679 156.755 62.6926 156.567C62.3593 156.473 62.0516 156.43 61.778 156.43C61.5045 156.439 61.2652 156.482 61.06 156.567C60.8549 156.652 60.6839 156.78 60.5386 156.942C60.4018 157.105 60.2992 157.301 60.2309 157.523C60.1368 157.856 60.1454 158.146 60.265 158.393C60.3847 158.641 60.5642 158.863 60.8121 159.068C61.0173 159.23 61.2566 159.383 61.5216 159.529C61.7866 159.674 62.0686 159.819 62.3507 159.964C62.6328 160.109 62.9234 160.263 63.197 160.416C63.4791 160.57 63.7269 160.741 63.9577 160.937C64.1201 161.073 64.2655 161.218 64.3937 161.381C64.5219 161.543 64.6159 161.713 64.6843 161.91C64.7527 162.098 64.7954 162.311 64.7954 162.533C64.804 162.763 64.7612 163.011 64.6929 163.275C64.5817 163.668 64.4108 164.009 64.1714 164.282C63.9321 164.556 63.65 164.769 63.3252 164.923C63.0004 165.068 62.6414 165.153 62.2396 165.162C61.8464 165.179 61.4276 165.119 60.9916 164.999C60.53 164.871 60.1197 164.658 59.7522 164.368C59.3932 164.078 59.1025 163.745 58.8974 163.378L58.7692 163.839C58.7179 164.018 58.6409 164.129 58.5384 164.189C58.4358 164.248 58.2734 164.24 58.0597 164.18C57.846 164.12 57.7092 164.043 57.6494 163.941C57.5896 163.839 57.581 163.702 57.6323 163.523L58.1281 161.773C58.1794 161.594 58.2563 161.483 58.3589 161.423C58.4614 161.372 58.6238 161.372 58.8375 161.432C59.0341 161.483 59.1453 161.585 59.1795 161.739C59.2991 162.285 59.5385 162.738 59.9146 163.096C60.2907 163.455 60.7608 163.719 61.3164 163.873C61.8891 164.035 62.3593 164.026 62.7354 163.847C63.1115 163.668 63.3594 163.369 63.479 162.942C63.5389 162.721 63.5389 162.533 63.462 162.354C63.3936 162.183 63.2739 162.021 63.1115 161.876C62.932 161.713 62.7183 161.568 62.4704 161.432C62.214 161.295 61.949 161.15 61.6584 161.014C61.3763 160.869 61.0856 160.723 60.795 160.561C60.5044 160.408 60.2309 160.228 59.9744 160.041C59.7693 159.887 59.5898 159.716 59.4274 159.529C59.2649 159.341 59.1367 159.127 59.0512 158.897C58.9572 158.667 58.9059 158.41 58.8974 158.129C58.8888 157.847 58.9316 157.54 59.0256 157.199C59.1367 156.806 59.3077 156.465 59.5385 156.183C59.7693 155.893 60.0599 155.671 60.3933 155.517C60.7352 155.364 61.1198 155.27 61.5558 155.253C61.9917 155.236 62.4789 155.304 63.0004 155.449C63.5047 155.594 63.9577 155.816 64.3424 156.123C64.727 156.43 65.0262 156.806 65.2485 157.258L65.4194 156.644Z" fill="#132631"/>
<path d="M56.4099 158.53C56.1278 159.204 55.7688 159.776 55.35 160.254C54.9311 160.732 54.4695 161.09 53.9652 161.346C53.4609 161.603 52.9309 161.731 52.3667 161.748C51.8026 161.765 51.2384 161.645 50.6572 161.406C50.0845 161.167 49.6058 160.834 49.2211 160.425C48.8365 160.015 48.5629 159.537 48.392 158.999C48.221 158.462 48.1612 157.881 48.2125 157.25C48.2638 156.618 48.4262 155.97 48.7168 155.295C48.9989 154.621 49.3579 154.041 49.7767 153.571C50.1956 153.102 50.6572 152.735 51.1615 152.487C51.6658 152.24 52.1958 152.103 52.7599 152.095C53.3241 152.078 53.8883 152.197 54.4695 152.436C55.0422 152.675 55.5209 153.008 55.9056 153.418C56.2902 153.827 56.5637 154.305 56.7347 154.834C56.9057 155.364 56.9655 155.952 56.9142 156.575C56.8629 157.199 56.692 157.856 56.4099 158.53ZM55.2559 158.043C55.4782 157.514 55.6149 157.019 55.6662 156.541C55.7175 156.063 55.6833 155.637 55.5722 155.236C55.4611 154.843 55.273 154.502 55.008 154.203C54.7431 153.904 54.4097 153.674 54.0079 153.503C53.6062 153.332 53.2044 153.255 52.8027 153.272C52.4009 153.29 52.0248 153.401 51.6658 153.597C51.3068 153.793 50.9734 154.075 50.6657 154.442C50.358 154.809 50.093 155.253 49.8708 155.782C49.6485 156.311 49.5117 156.806 49.4605 157.284C49.4092 157.762 49.4434 158.197 49.5459 158.59C49.6571 158.982 49.8366 159.332 50.1016 159.631C50.3665 159.93 50.6999 160.16 51.1017 160.331C51.5034 160.502 51.9052 160.578 52.3069 160.561C52.7001 160.544 53.0848 160.433 53.4438 160.237C53.8028 160.041 54.1362 159.759 54.4439 159.392C54.7687 159.016 55.0337 158.564 55.2559 158.043Z" fill="#132631"/>
<path d="M43.9984 156.857L45.1096 157.497C45.2635 157.591 45.3575 157.685 45.3832 157.796C45.4088 157.898 45.3746 158.043 45.272 158.214C45.1695 158.385 45.0669 158.487 44.9643 158.521C44.8617 158.556 44.725 158.521 44.5711 158.428L40.7673 156.226C40.6134 156.132 40.5194 156.038 40.4938 155.927C40.4681 155.816 40.5023 155.679 40.6049 155.509C40.7075 155.338 40.81 155.236 40.9126 155.201C41.0152 155.167 41.152 155.201 41.3058 155.287L42.9641 156.251L46.6055 149.987L43.212 148.024L41.9042 150.285C41.8101 150.447 41.7076 150.533 41.5879 150.558C41.4682 150.584 41.3144 150.541 41.1263 150.43C40.9383 150.319 40.8186 150.208 40.7844 150.098C40.7502 149.987 40.7759 149.85 40.8699 149.688L42.4512 146.965C42.5538 146.795 42.6564 146.692 42.759 146.658C42.8615 146.624 42.9983 146.658 43.1522 146.752L49.281 150.302C49.4349 150.396 49.5289 150.49 49.5545 150.601C49.5802 150.703 49.546 150.849 49.4434 151.019C49.3408 151.19 49.2383 151.292 49.1357 151.327C49.0331 151.361 48.8963 151.327 48.7425 151.233L47.6313 150.593L43.9984 156.857Z" fill="#132631"/>
<path d="M36.3053 152.206C36.4507 152.317 36.5276 152.428 36.5361 152.53C36.5447 152.641 36.4934 152.778 36.3737 152.931C36.2541 153.093 36.1344 153.179 36.0233 153.196C35.9121 153.213 35.7925 153.17 35.6472 153.059L33.6042 151.506C33.4589 151.395 33.382 151.292 33.3734 151.182C33.3649 151.071 33.4162 150.934 33.5358 150.78C33.6555 150.618 33.7752 150.533 33.8863 150.516C33.9974 150.499 34.1171 150.541 34.2624 150.652L34.9719 151.19L38.032 147.17C38.2799 146.846 38.4594 146.539 38.562 146.257C38.6646 145.975 38.7073 145.711 38.6731 145.455C38.6389 145.207 38.5449 144.96 38.3825 144.738C38.2201 144.516 37.9978 144.285 37.7072 144.072C37.4166 143.859 37.143 143.696 36.8866 143.603C36.6216 143.509 36.3652 143.475 36.1173 143.517C35.8694 143.551 35.6215 143.662 35.3736 143.842C35.1257 144.021 34.8864 144.268 34.63 144.601L31.5698 148.621L32.2793 149.159C32.4246 149.27 32.5015 149.372 32.5101 149.483C32.5272 149.594 32.4673 149.731 32.3477 149.884C32.228 150.046 32.1083 150.132 31.9972 150.149C31.8861 150.166 31.7664 150.115 31.6211 150.012L29.5782 148.459C29.4328 148.348 29.3559 148.246 29.3474 148.135C29.3388 148.024 29.3901 147.887 29.5098 147.733C29.6294 147.571 29.7491 147.486 29.8602 147.469C29.9714 147.452 30.0996 147.494 30.2363 147.605L30.6295 147.904L33.7923 143.756C34.1342 143.304 34.4932 142.962 34.8607 142.732C35.2283 142.502 35.613 142.356 36.0062 142.314C36.3994 142.271 36.7926 142.322 37.2029 142.467C37.6132 142.613 38.0235 142.843 38.4252 143.15C38.8355 143.466 39.1689 143.799 39.4168 144.149C39.6647 144.499 39.8185 144.874 39.8784 145.258C39.9382 145.642 39.9125 146.052 39.7843 146.47C39.6561 146.888 39.4253 147.324 39.0749 147.776L35.9121 151.924L36.3053 152.206Z" fill="#132631"/>
<path d="M28.125 135.332C28.7319 135.435 29.296 135.622 29.826 135.904C30.356 136.186 30.8432 136.536 31.2792 136.962C31.7236 137.398 32.0485 137.876 32.2451 138.396C32.4417 138.917 32.5186 139.446 32.4759 140.001C32.4331 140.556 32.2707 141.11 31.9886 141.674C31.7065 142.237 31.3133 142.783 30.7919 143.304C30.279 143.824 29.7405 144.234 29.1764 144.524C28.6122 144.814 28.0566 144.985 27.501 145.036C26.9454 145.088 26.3983 145.019 25.8769 144.84C25.3555 144.661 24.8768 144.354 24.4494 143.935C24.0818 143.577 23.8254 143.201 23.6715 142.817C23.5177 142.433 23.4578 142.032 23.492 141.639L23.1672 141.964C23.039 142.092 22.9108 142.16 22.7997 142.152C22.68 142.143 22.5432 142.066 22.3894 141.913C22.2269 141.759 22.15 141.622 22.1415 141.503C22.1329 141.383 22.1928 141.264 22.321 141.127L24.1502 139.258C24.2784 139.122 24.4067 139.062 24.5178 139.07C24.6374 139.07 24.7742 139.156 24.9366 139.309C25.099 139.463 25.176 139.6 25.1845 139.719C25.1931 139.839 25.1332 139.958 24.9965 140.095C24.817 140.282 24.6716 140.487 24.5691 140.718C24.4665 140.948 24.4152 141.196 24.4237 141.443C24.4323 141.699 24.4921 141.964 24.6204 142.237C24.7486 142.51 24.9452 142.775 25.2187 143.039C25.5264 143.338 25.8683 143.551 26.2444 143.679C26.6206 143.807 27.0138 143.85 27.4241 143.799C27.8344 143.748 28.2447 143.611 28.672 143.381C29.0909 143.15 29.5012 142.834 29.9029 142.425C30.3047 142.015 30.6124 141.605 30.8347 141.179C31.0569 140.76 31.1937 140.351 31.245 139.95C31.2962 139.548 31.2535 139.164 31.1167 138.797C30.9885 138.43 30.7663 138.098 30.4586 137.799C30.0824 137.432 29.6721 137.133 29.2277 136.911C28.7832 136.689 28.3216 136.553 27.8429 136.493C27.7061 136.476 27.595 136.425 27.5181 136.331C27.4326 136.237 27.4241 136.075 27.4753 135.853C27.5266 135.639 27.6036 135.494 27.7147 135.418C27.8173 135.341 27.954 135.307 28.125 135.332Z" fill="#132631"/>
<path d="M18.8591 135.921L20.1242 137.509C20.2353 137.645 20.2866 137.773 20.2695 137.884C20.2524 137.995 20.1669 138.106 20.013 138.234C19.8592 138.362 19.7224 138.413 19.6113 138.405C19.5002 138.396 19.389 138.319 19.2779 138.174L16.0126 134.069C15.9015 133.924 15.8502 133.805 15.8673 133.694C15.8844 133.583 15.9699 133.472 16.1237 133.344C16.2776 133.216 16.4144 133.164 16.5255 133.173C16.6366 133.181 16.7477 133.258 16.8589 133.403L18.124 134.991L23.7997 130.484L22.4406 128.778C22.3295 128.632 22.2782 128.513 22.2953 128.402C22.3124 128.291 22.3979 128.18 22.5518 128.052C22.7056 127.924 22.8424 127.873 22.9535 127.881C23.0646 127.89 23.1758 127.967 23.2869 128.112L26.7488 132.465C26.8599 132.61 26.9112 132.729 26.8941 132.84C26.877 132.951 26.7915 133.062 26.6376 133.19C26.4838 133.318 26.347 133.369 26.2359 133.361C26.1248 133.352 26.0137 133.275 25.9025 133.13L24.5434 131.423L18.8591 135.921Z" fill="#132631"/>
<path d="M17.8418 128.658C17.2179 129.042 16.5939 129.298 15.9784 129.443C15.363 129.588 14.7732 129.614 14.2175 129.52C13.6619 129.435 13.1491 129.23 12.6875 128.914C12.2259 128.598 11.8241 128.172 11.4993 127.642C11.1745 127.113 10.9779 126.567 10.9095 126.004C10.8411 125.449 10.8924 124.903 11.0719 124.365C11.2514 123.827 11.5421 123.324 11.9438 122.837C12.3541 122.351 12.867 121.924 13.4995 121.54C14.1235 121.156 14.7475 120.9 15.363 120.755C15.9784 120.618 16.5682 120.593 17.1153 120.678C17.6709 120.772 18.1752 120.968 18.6453 121.284C19.1069 121.6 19.5087 122.026 19.8335 122.556C20.1583 123.085 20.3549 123.631 20.4233 124.194C20.4917 124.758 20.4404 125.295 20.2609 125.833C20.0899 126.362 19.7993 126.874 19.389 127.361C18.9873 127.847 18.4744 128.274 17.8418 128.658ZM17.1922 127.591C17.6794 127.292 18.0812 126.968 18.3975 126.61C18.7137 126.251 18.9445 125.884 19.0898 125.5C19.2351 125.116 19.2779 124.732 19.2437 124.331C19.2095 123.93 19.0727 123.546 18.8419 123.179C18.6112 122.803 18.3291 122.513 17.9957 122.291C17.6623 122.078 17.2948 121.941 16.8845 121.89C16.4827 121.839 16.0468 121.873 15.5852 121.992C15.1236 122.112 14.6449 122.317 14.1577 122.615C13.6705 122.914 13.2687 123.238 12.9525 123.597C12.6362 123.955 12.4054 124.322 12.2601 124.706C12.1148 125.09 12.0635 125.483 12.1062 125.876C12.149 126.268 12.2772 126.652 12.508 127.028C12.7388 127.403 13.0208 127.702 13.3542 127.915C13.6876 128.129 14.0551 128.265 14.4654 128.317C14.8757 128.368 15.3117 128.334 15.7733 128.214C16.2348 128.095 16.705 127.89 17.1922 127.591Z" fill="#132631"/>
<path d="M9.06322 120.763L9.31111 121.318C9.38804 121.48 9.40514 121.617 9.3624 121.719C9.31966 121.822 9.20854 121.915 9.02903 121.992C8.84953 122.078 8.70421 122.095 8.60164 122.061C8.49906 122.026 8.41358 121.924 8.33665 121.762L7.61008 120.14C7.5246 119.944 7.5246 119.773 7.62718 119.637L12.2259 113.466L6.87496 115.864L7.25107 116.709C7.328 116.871 7.3451 117.008 7.30236 117.11C7.25962 117.213 7.1485 117.307 6.96899 117.383C6.78949 117.469 6.64417 117.486 6.5416 117.452C6.43902 117.418 6.35354 117.315 6.27661 117.153L5.22522 114.814C5.14829 114.652 5.1312 114.516 5.17394 114.413C5.21667 114.311 5.3278 114.217 5.5073 114.14C5.68681 114.055 5.83212 114.038 5.9347 114.072C6.03727 114.106 6.1313 114.208 6.19968 114.371L6.38773 114.78L13.7218 111.494C13.85 111.435 13.9697 111.435 14.0894 111.486C14.209 111.537 14.3116 111.657 14.3971 111.844C14.4569 111.981 14.474 112.117 14.4484 112.245C14.4227 112.373 14.3629 112.502 14.2689 112.63L9.25128 119.389L15.2092 116.718L14.7647 115.728C14.6877 115.566 14.6792 115.429 14.7134 115.327C14.7476 115.224 14.8672 115.13 15.0467 115.053C15.2262 114.968 15.3716 114.951 15.4741 114.985C15.5767 115.019 15.6707 115.122 15.7391 115.284L16.8845 117.844C16.9615 118.006 16.9786 118.143 16.9358 118.245C16.8931 118.348 16.782 118.442 16.6025 118.519C16.4229 118.604 16.2776 118.621 16.1751 118.587C16.0725 118.553 15.987 118.45 15.9101 118.288L15.6964 117.802L9.06322 120.763Z" fill="#132631"/>
<path d="M4.96873 110.957L5.20807 111.725C5.25936 111.896 5.25936 112.032 5.20807 112.126C5.15678 112.22 5.02857 112.297 4.84051 112.356C4.65246 112.416 4.50715 112.416 4.40457 112.373C4.31054 112.322 4.23361 112.211 4.18233 112.041L2.15648 105.418C2.10519 105.247 2.10519 105.11 2.15648 105.016C2.20776 104.923 2.33598 104.846 2.52404 104.786L4.44731 104.197C4.62682 104.146 4.76358 104.146 4.86616 104.206C4.96873 104.265 5.05421 104.402 5.11404 104.615C5.18243 104.829 5.18243 104.991 5.13969 105.093C5.0884 105.196 4.97728 105.281 4.79777 105.332L3.38737 105.759L4.62682 109.813L7.43907 108.96L6.85781 107.073L6.16543 107.287C5.98593 107.338 5.84916 107.338 5.74659 107.278C5.64401 107.218 5.55853 107.082 5.4987 106.869C5.43032 106.655 5.43032 106.493 5.4816 106.391C5.53289 106.288 5.64401 106.203 5.82352 106.152L8.23402 105.418C8.41353 105.366 8.55029 105.366 8.65287 105.426C8.75544 105.486 8.84092 105.622 8.90076 105.836C8.96914 106.049 8.96914 106.211 8.9264 106.314C8.88366 106.416 8.76399 106.502 8.58449 106.553L7.89211 106.766L8.47336 108.661L11.5677 107.722L10.2855 103.523L8.55029 104.052C8.37079 104.103 8.23402 104.103 8.13145 104.043C8.02887 103.984 7.95194 103.847 7.88356 103.634C7.81518 103.42 7.81518 103.258 7.85792 103.156C7.9092 103.053 8.02033 102.968 8.19983 102.917L10.4479 102.234C10.6445 102.174 10.7898 102.174 10.8839 102.217C10.9864 102.268 11.0548 102.379 11.1061 102.55L13.1747 109.318C13.226 109.489 13.226 109.625 13.1747 109.719C13.1234 109.813 12.9952 109.89 12.8071 109.95C12.6191 110.009 12.4738 110.009 12.3712 109.967C12.2772 109.915 12.2002 109.805 12.149 109.634L11.9096 108.866L4.96873 110.957Z" fill="#132631"/>
<path d="M10.0035 99.1189C10.183 99.0847 10.3283 99.1103 10.4138 99.1786C10.4992 99.2469 10.5762 99.4005 10.6104 99.6139C10.6446 99.8273 10.636 99.9894 10.5676 100.092C10.4992 100.194 10.3796 100.254 10.2001 100.288L7.85794 100.689C7.67844 100.723 7.53312 100.698 7.44765 100.63C7.36217 100.561 7.29378 100.408 7.25104 100.194C7.20831 99.9723 7.29378 99.8016 7.49893 99.6822C8.07164 99.3664 8.47339 98.9482 8.71273 98.4275C8.96062 97.9069 9.02046 97.3095 8.90079 96.6181C8.84095 96.2768 8.75547 95.978 8.62725 95.7391C8.50758 95.4915 8.36227 95.2952 8.19131 95.1502C8.02036 95.0051 7.8323 94.9026 7.62715 94.8429C7.422 94.7832 7.19976 94.7832 6.96897 94.8173C6.62705 94.877 6.36206 95.0136 6.19111 95.2184C6.02015 95.4318 5.89193 95.6878 5.815 96.0036C5.75517 96.2597 5.72097 96.5413 5.70388 96.8401C5.68678 97.1388 5.67823 97.4546 5.66969 97.7703C5.66114 98.0947 5.64404 98.4105 5.62695 98.7263C5.60985 99.042 5.55856 99.3493 5.48163 99.6309C5.43035 99.8358 5.36196 100.032 5.26794 100.211C5.17391 100.391 5.06279 100.553 4.91747 100.698C4.77216 100.843 4.6012 100.962 4.4046 101.065C4.19945 101.167 3.96011 101.244 3.68658 101.287C3.27628 101.355 2.90017 101.346 2.54971 101.253C2.19924 101.159 1.88297 100.997 1.60944 100.766C1.33591 100.536 1.10512 100.245 0.92561 99.8955C0.746104 99.5456 0.609338 99.1445 0.532407 98.7007C0.455476 98.2312 0.464024 97.7618 0.575147 97.3095C0.677721 96.8571 0.857227 96.456 1.10512 96.1061L0.626434 96.1914C0.446929 96.2255 0.310162 96.1999 0.216136 96.1317C0.122109 96.0634 0.0537259 95.9098 0.0195343 95.6964C-0.0146572 95.4745 -0.00610931 95.3209 0.0622738 95.2184C0.122109 95.116 0.250327 95.0563 0.429833 95.0221L2.22489 94.7149C2.40439 94.6807 2.54116 94.7063 2.63519 94.7746C2.72921 94.8429 2.7976 94.9965 2.83179 95.2099C2.86598 95.4062 2.82324 95.5513 2.69502 95.6537C2.25053 95.9951 1.95136 96.4048 1.78895 96.8998C1.62654 97.3948 1.59235 97.924 1.68637 98.4958C1.78895 99.0762 2.00264 99.5029 2.32746 99.7675C2.65228 100.032 3.02839 100.126 3.47288 100.049C3.69512 100.015 3.86608 99.9211 3.9943 99.7846C4.11397 99.648 4.21655 99.4688 4.27638 99.2639C4.34476 99.042 4.3875 98.7775 4.4046 98.4873C4.4217 98.1971 4.43024 97.8984 4.43879 97.5741C4.44734 97.2583 4.45589 96.9339 4.47298 96.6011C4.49008 96.2682 4.52427 95.9439 4.59265 95.6366C4.64394 95.3891 4.72087 95.1502 4.82345 94.9197C4.92602 94.6978 5.06279 94.493 5.2252 94.3052C5.39615 94.126 5.6013 93.9638 5.84919 93.8358C6.09708 93.7078 6.39626 93.6053 6.74672 93.5541C7.14847 93.4859 7.53313 93.4944 7.89214 93.5797C8.25115 93.6651 8.57597 93.8273 8.8666 94.0662C9.15722 94.3052 9.39656 94.6125 9.60171 95.0051C9.80686 95.3977 9.95218 95.8585 10.0462 96.3877C10.1317 96.9083 10.1231 97.4034 10.012 97.8813C9.90089 98.3593 9.68719 98.7945 9.37092 99.1871L10.0035 99.1189Z" fill="#132631"/>
<ellipse cx="6.33791" cy="77.0671" rx="1.51474" ry="1.51672" transform="rotate(17.5227 6.33791 77.0671)" fill="#132631"/>
<ellipse cx="161.336" cy="91.0676" rx="1.51474" ry="1.51672" transform="rotate(17.5227 161.336 91.0676)" fill="#132631"/>
</svg>
