<svg width="307" height="41" viewBox="0 0 307 41" fill="none" xmlns="http://www.w3.org/2000/svg">
<path fill-rule="evenodd" clip-rule="evenodd" d="M35.6087 9.9642C36.7799 11.4776 37.4631 13.1131 38.2927 14.8218C38.6831 14.5777 39.1956 10.2815 39.3176 9.59805C39.6836 7.47436 41.0012 1.76237 43.8073 1.76237C45.2957 1.76237 46.2961 3.2514 46.7841 4.49632C47.4673 6.20503 47.8822 7.88933 48.1994 9.69569C48.3702 10.6721 48.6874 12.8202 48.9314 13.699C51.0298 12.7226 55.0559 10.5012 55.1291 10.4768C56.4711 9.74451 59.3016 10.6721 57.862 13.2108C56.7395 15.2124 51.835 19.7771 51.835 20.2897C51.835 20.607 56.1051 23.0237 56.7151 23.1457C56.8128 22.9748 56.9592 22.804 57.008 22.6331C57.5448 21.2661 57.7644 19.9724 58.472 18.6542C60.9608 13.8942 67.0854 8.15785 72.8195 8.32872C74.5764 8.37754 76.26 8.84133 77.7484 9.62246C77.4556 8.62164 77.4556 7.54759 77.8948 6.42472C79.4321 2.44586 85.1906 0.541865 88.8263 2.07971C91.4127 3.17817 92.6816 5.61919 91.6079 8.42636C90.2903 11.8682 86.2642 14.7486 82.6773 14.0163C85.0686 17.4825 86.0202 21.9984 84.5806 25.9529C82.5553 31.616 74.8204 33.1539 69.501 33.1539C67.9394 33.1539 62.4737 32.1287 62.3273 32.1531C59.3992 32.4216 57.7644 32.6901 54.7875 31.909L49.4438 29.8341C48.8826 29.6876 48.1994 30.8593 47.8334 31.1767C45.3689 33.4224 41.5136 32.3484 39.0248 30.8349C36.1943 32.6413 31.2654 33.3492 28.4349 31.1034C27.9469 30.7129 26.8245 29.053 26.6537 28.9797C20.6755 32.7633 11.7205 33.9106 4.81518 32.1531C3.74155 32.1287 1.3747 30.4688 0.935491 29.4924C-0.260136 26.8316 -0.113733 24.2686 0.301077 21.3638C0.764687 18.1904 1.3747 15.0171 1.91151 11.8682C2.32632 9.476 3.91236 1.64032 6.93803 1.64032C10.7445 1.64032 10.9641 9.28072 12.1597 9.74451C13.209 9.42718 15.283 9.06102 16.3566 9.06102C21.4076 9.06102 24.7504 11.8438 27.9469 15.3344C28.0445 15.4321 28.1665 15.5297 28.2885 15.6274C28.5569 15.3833 30.4114 11.1847 31.2654 10.0374L31.1434 9.69569C25.7509 7.01057 29.4841 -1.85034 35.5843 0.346583C37.3655 1.00566 38.5367 2.86083 38.5367 4.71601C38.5367 7.91374 35.6331 9.54923 35.6087 9.9642ZM85.3287 7.30882C85.8098 6.93045 86.3346 6.55208 86.7282 6.07281C87.0344 5.69444 87.253 5.21517 87.1874 4.76113C87.0344 3.80259 85.941 3.57557 84.957 3.80259C84.3447 3.95394 83.7324 4.25663 83.2732 4.71068C83.0764 4.88725 82.9015 5.11427 82.814 5.34129C82.7266 5.64399 82.9452 5.84579 83.2951 5.74489C83.5575 5.66922 83.7762 5.49264 83.973 5.31607C84.2135 5.06382 84.4322 4.78635 84.8039 4.71068C85.0445 4.66023 85.2631 4.7359 85.2631 4.98815C85.2631 5.18995 85.0882 5.39174 84.9133 5.54309C84.7602 5.66922 84.629 5.79534 84.4759 5.89624C83.9511 6.32506 83.4482 6.75388 83.0546 7.2836C82.8796 7.53584 82.7266 7.81332 82.6391 8.09079C82.5298 8.41871 82.486 8.74663 82.5516 9.04933C82.6391 9.47815 82.989 9.78084 83.47 9.80607C84.3666 9.83129 85.285 9.75562 86.2253 9.60427C86.7064 9.50337 87.2093 9.20067 87.253 8.69618C87.2968 8.16646 86.772 7.98989 86.269 8.06556C85.5911 8.16646 84.9133 8.24214 84.2354 8.31781C84.4978 7.93944 84.9351 7.63674 85.3287 7.30882ZM72.9525 17.2536C71.3526 17.2536 63.4498 24.6963 71.6192 24.6963C78.31 24.6963 74.4313 17.2536 72.9525 17.2536ZM19.0954 16.9152C17.2943 16.9152 7.74594 24.358 17.541 24.358C25.3129 24.358 20.8965 16.9152 19.0954 16.9152Z" fill="#E73F39"/>
<path fill-rule="evenodd" clip-rule="evenodd" d="M120.79 5C119.976 5 119.316 5.65982 119.316 6.47375V15.3162H110.474C109.66 15.3162 109 15.9761 109 16.79C109 17.6039 109.66 18.2638 110.474 18.2638L119.316 18.2637V27.5262C119.316 28.3402 119.976 29 120.79 29C121.604 29 122.264 28.3402 122.264 27.5262V18.2637L131.526 18.2637C132.34 18.2637 133 17.6039 133 16.79C133 15.9761 132.34 15.3162 131.526 15.3162H122.264V6.47375C122.264 5.65982 121.604 5 120.79 5Z" fill="#E73F39"/>
<path fill-rule="evenodd" clip-rule="evenodd" d="M260 1H266.5V20H274.5V26H261C260.448 26 260 25.5523 260 25V1ZM179 1.5H185.5L194.5 26H188.744C188.302 26 187.913 25.7103 187.786 25.2873L186.5 21H178.5L177.214 25.2873C177.087 25.7103 176.698 26 176.256 26H170L179 1.5ZM182.5 7L180 16H185L182.5 7ZM238 1.5H244.5L253.5 26H247.744C247.302 26 246.913 25.7103 246.786 25.2873L245.5 21H237.5L236.214 25.2873C236.087 25.7103 235.698 26 235.256 26H229L238 1.5ZM241.5 7L239 16H244L241.5 7ZM297.5 1.5H291L282 26H288.256C288.698 26 289.087 25.7103 289.214 25.2873L290.5 21H298.5L299.786 25.2873C299.913 25.7103 300.302 26 300.744 26H306.5L297.5 1.5ZM292 16L294.5 7L297 16H292ZM201.5 1.5H208V12.5L216.7 1.86676C216.89 1.63463 217.174 1.5 217.474 1.5H224.5L215.5 13L224.5 26H217.512C217.191 26 216.889 25.8453 216.701 25.5843L208 13.5V26H201.5V1.5Z" fill="url(#paint0_linear_2288_2504)"/>
<path fill-rule="evenodd" clip-rule="evenodd" d="M157 28.2754V22.7192C156.5 22.8876 154.8 23.0223 154 23.0223C153.2 23.0223 151.5 22.8876 150.5 22.7192V28.2754C150.5 28.2754 154 28.7805 157 28.2754Z" fill="url(#paint1_linear_2288_2504)"/>
<path fill-rule="evenodd" clip-rule="evenodd" d="M157 1V22.7194V28.2755C159.515 27.8521 161.279 26.074 161.6 25.75C163.352 23.9799 163.5 21.8776 163.5 20.699V1H157Z" fill="url(#paint2_linear_2288_2504)"/>
<path d="M160.064 32.3266C160.211 32.2476 160.388 32.2476 160.536 32.3266L162.064 33.1449L163.536 34.059C163.679 34.1472 163.767 34.3006 163.772 34.4678L163.828 36.2002L163.772 37.9326C163.767 38.0998 163.679 38.2532 163.536 38.3414L162.064 39.2555L160.536 40.0738C160.388 40.1528 160.211 40.1528 160.064 40.0738L158.536 39.2555L157.063 38.3414C156.921 38.2532 156.832 38.0998 156.827 37.9326L156.772 36.2002L156.827 34.4678C156.832 34.3006 156.921 34.1472 157.063 34.059L158.536 33.1449L160.064 32.3266Z" fill="#B8163D"/>
<defs>
<linearGradient id="paint0_linear_2288_2504" x1="171.5" y1="26" x2="301" y2="0.999994" gradientUnits="userSpaceOnUse">
<stop stop-color="#1D2749"/>
<stop offset="1" stop-color="#086DAA"/>
</linearGradient>
<linearGradient id="paint1_linear_2288_2504" x1="156.5" y1="23" x2="151.5" y2="27" gradientUnits="userSpaceOnUse">
<stop stop-color="#1D2749"/>
<stop offset="1" stop-color="#096AA6"/>
</linearGradient>
<linearGradient id="paint2_linear_2288_2504" x1="157.5" y1="28.5" x2="164.5" y2="-1.5" gradientUnits="userSpaceOnUse">
<stop stop-color="#C01940"/>
<stop offset="1" stop-color="#E7304D"/>
</linearGradient>
</defs>
</svg>
