<svg width="168" height="169" viewBox="0 0 168 169" fill="none" xmlns="http://www.w3.org/2000/svg">
<path d="M5.5151 57.6237L5.17319 58.5284C5.10481 58.6991 5.02787 58.8015 4.9253 58.8442C4.82273 58.8869 4.67741 58.8698 4.48936 58.8015C4.3013 58.7333 4.18163 58.6479 4.13889 58.5455C4.09616 58.4431 4.1047 58.3151 4.16454 58.1444L5.57494 54.4402C5.7459 53.9964 5.95105 53.6294 6.19039 53.3392C6.42973 53.049 6.70326 52.8271 6.99389 52.682C7.28452 52.537 7.60934 52.4601 7.9427 52.4601C8.27607 52.4601 8.62653 52.5199 8.98555 52.6564C9.3702 52.8015 9.66938 53.0149 9.89162 53.2966C10.1139 53.5782 10.2506 53.9111 10.3105 54.2866C10.678 53.8257 11.0969 53.527 11.5756 53.3904C12.0542 53.2539 12.5671 53.288 13.1227 53.5014C13.5159 53.6465 13.8407 53.8428 14.0972 54.0903C14.3536 54.3293 14.5502 54.6195 14.6784 54.9438C14.8067 55.2681 14.8579 55.6266 14.8408 56.0277C14.8238 56.4288 14.7297 56.8471 14.5588 57.3079L12.9603 61.5071C12.9005 61.6778 12.815 61.7802 12.7124 61.8229C12.6098 61.8656 12.4645 61.8485 12.2765 61.7802C12.0884 61.7119 11.9688 61.6266 11.926 61.5242C11.8833 61.4217 11.8918 61.2937 11.9517 61.123L12.2936 60.2183L5.5151 57.6237ZM9.25908 56.0192C9.48132 55.4388 9.52406 54.9609 9.39584 54.5853C9.26763 54.2098 8.98555 53.9452 8.5496 53.7745C8.09657 53.6038 7.70336 53.6123 7.36145 53.8086C7.01953 54.005 6.73745 54.389 6.51521 54.9779L5.93395 56.5057L8.67782 57.5469L9.25908 56.0192ZM13.4646 57.1287C13.6954 56.5142 13.7467 55.9936 13.61 55.5668C13.4732 55.1401 13.1655 54.8414 12.6868 54.6621C11.6696 54.2781 10.9259 54.7048 10.4558 55.9424L9.69502 57.9395L12.7295 59.0917L13.4646 57.1287Z" fill="#132631"/>
<path d="M10.4986 46.1444L9.54119 47.9367C9.45571 48.0989 9.36169 48.1927 9.25911 48.2183C9.15654 48.2439 9.01122 48.2183 8.83172 48.1245C8.65221 48.0306 8.54964 47.9282 8.51545 47.8257C8.48126 47.7233 8.5069 47.5868 8.59238 47.4331L11.0627 42.8072C11.1482 42.6451 11.2422 42.5512 11.3448 42.5256C11.4474 42.4915 11.5927 42.5256 11.7722 42.6195C11.9517 42.7134 12.0543 42.8158 12.0885 42.9182C12.1227 43.0206 12.097 43.1572 12.0115 43.3108L11.0542 45.1031L17.4565 48.5085L18.4823 46.5796C18.5678 46.4175 18.6618 46.3236 18.7644 46.298C18.8669 46.2639 19.0122 46.298 19.1918 46.3919C19.3713 46.4858 19.4738 46.5882 19.508 46.6906C19.5422 46.793 19.5166 46.9296 19.4311 47.0832L16.8154 51.9907C16.73 52.1529 16.6359 52.2468 16.5334 52.2724C16.4308 52.298 16.2855 52.2724 16.106 52.1785C15.9265 52.0846 15.8239 51.9822 15.7897 51.8798C15.7555 51.7774 15.7811 51.6408 15.8666 51.4872L16.8924 49.5583L10.4986 46.1444Z" fill="#132631"/>
<path d="M14.5674 39.1458L14.0545 39.8713C13.9519 40.0164 13.8408 40.1017 13.7382 40.1188C13.6271 40.1359 13.4903 40.0847 13.3279 39.9737C13.1655 39.8542 13.0715 39.7433 13.0544 39.6408C13.0373 39.5299 13.0715 39.4019 13.1826 39.2568L14.7981 36.9694C14.9007 36.8243 15.0118 36.739 15.1144 36.7219C15.2255 36.7049 15.3623 36.7561 15.5247 36.867C15.6871 36.9865 15.7812 37.0975 15.7983 37.1999C15.8153 37.3108 15.7812 37.4389 15.67 37.584L15.2512 38.1814L17.978 40.1017L17.2343 35.3734L16.9266 35.8172C16.824 35.9623 16.7129 36.0477 16.6103 36.0647C16.4992 36.0818 16.3624 36.0306 16.2 35.9197C16.0376 35.8002 15.9436 35.6892 15.9265 35.5868C15.9094 35.4758 15.9436 35.3478 16.0547 35.2027L17.5335 33.1032C17.636 32.9581 17.7472 32.8727 17.8497 32.8556C17.9609 32.8386 18.0976 32.8898 18.26 33.0007C18.4224 33.1202 18.5165 33.2312 18.5336 33.3336C18.5507 33.4445 18.5165 33.5726 18.4054 33.7177L18.1489 34.0847L18.8413 38.6679C19.0293 38.3606 19.2601 38.1131 19.5337 37.9253C19.8072 37.7376 20.1491 37.6352 20.5509 37.6096C20.7988 37.601 21.0466 37.6181 21.3116 37.6608C21.5766 37.7034 21.8331 37.7546 22.0809 37.8144C22.3374 37.8741 22.5767 37.9424 22.8161 38.0022C23.0554 38.0619 23.2691 38.1046 23.4657 38.1302C23.6623 38.1558 23.8333 38.1472 23.9871 38.1131C24.141 38.079 24.2521 38.0022 24.3461 37.8741L24.4744 37.6949C24.5769 37.5498 24.688 37.4645 24.7906 37.4474C24.9017 37.4303 25.0385 37.4815 25.2009 37.5925C25.3633 37.712 25.4574 37.8229 25.4745 37.9253C25.4916 38.0363 25.4574 38.1643 25.3462 38.3094L24.9701 38.8386C24.8334 39.0349 24.6282 39.18 24.3632 39.2739C24.0982 39.3677 23.7392 39.3848 23.2862 39.3165C23.0554 39.2824 22.8161 39.2312 22.5767 39.1714C22.3374 39.1117 22.098 39.0519 21.8672 38.9922C21.6365 38.9325 21.4057 38.8812 21.1834 38.8386C20.9612 38.7959 20.7475 38.7703 20.5509 38.7788C20.3286 38.7788 20.1235 38.8215 19.9269 38.9239C19.7388 39.0263 19.5679 39.1714 19.4311 39.3763C19.3029 39.5555 19.2174 39.7518 19.1576 39.9566C19.0977 40.17 19.0892 40.3919 19.1234 40.6138L19.1747 40.9381L21.1663 42.3464L21.91 41.2966C22.0126 41.1515 22.1237 41.0662 22.2263 41.0491C22.3374 41.032 22.4741 41.0832 22.6366 41.1942C22.799 41.3137 22.893 41.4246 22.9101 41.5271C22.9272 41.638 22.893 41.766 22.7819 41.9111L20.8415 44.6508C20.7389 44.7959 20.6278 44.8812 20.5252 44.8983C20.4141 44.9154 20.2773 44.8642 20.1149 44.7532C19.9525 44.6337 19.8585 44.5228 19.8414 44.4204C19.8243 44.3094 19.8585 44.1814 19.9696 44.0363L20.4825 43.3108L14.5674 39.1458Z" fill="#132631"/>
<path d="M22.5681 34.2809C22.0211 33.7859 21.6022 33.2653 21.2945 32.7105C20.9868 32.1558 20.7987 31.601 20.7218 31.0462C20.6449 30.4915 20.7047 29.9452 20.8756 29.4075C21.0466 28.8698 21.3458 28.3748 21.7646 27.9139C22.1835 27.453 22.6536 27.1117 23.1665 26.8897C23.6794 26.6678 24.2264 26.5654 24.782 26.5825C25.3462 26.5996 25.9189 26.7361 26.4916 26.9922C27.0729 27.2482 27.6285 27.6237 28.1755 28.1188C28.7226 28.6138 29.1414 29.1344 29.4492 29.6892C29.7569 30.2439 29.945 30.7902 30.0133 31.3535C30.0817 31.9168 30.0304 32.4545 29.8595 32.9922C29.6885 33.5299 29.3893 34.0249 28.9705 34.4858C28.5516 34.9466 28.0815 35.288 27.5686 35.51C27.0558 35.7319 26.5087 35.8343 25.9531 35.8172C25.3889 35.8001 24.8248 35.6636 24.2435 35.4075C23.6708 35.1515 23.1066 34.776 22.5681 34.2809ZM23.4144 33.3592C23.8332 33.7432 24.2606 34.0334 24.6966 34.2383C25.1325 34.4431 25.5513 34.5626 25.9531 34.5882C26.3548 34.6138 26.748 34.554 27.1156 34.409C27.4832 34.2639 27.8165 34.0249 28.1157 33.7006C28.4149 33.3762 28.62 33.0263 28.7312 32.6422C28.8423 32.2582 28.8679 31.8741 28.8081 31.4644C28.7397 31.0633 28.5858 30.6536 28.3465 30.2439C28.1072 29.8343 27.7738 29.4331 27.3464 29.0491C26.9275 28.665 26.5002 28.3748 26.0642 28.17C25.6283 27.9651 25.2094 27.8457 24.7991 27.82C24.3888 27.7944 24.0042 27.8542 23.6281 27.9993C23.2605 28.1529 22.9271 28.3833 22.628 28.7077C22.3288 29.032 22.1322 29.3819 22.0125 29.766C21.8928 30.1501 21.8757 30.5427 21.9441 30.9438C22.0125 31.3449 22.1664 31.7546 22.4143 32.1643C22.6622 32.574 22.987 32.9751 23.4144 33.3592Z" fill="#132631"/>
<path d="M35.7234 17.1003L35.2105 17.4332C35.0652 17.5356 34.9284 17.5697 34.8258 17.5441C34.7147 17.5185 34.6121 17.4246 34.501 17.2539C34.3899 17.0832 34.3472 16.9467 34.3642 16.8443C34.3813 16.7333 34.4668 16.6309 34.6207 16.537L36.0995 15.564C36.279 15.4445 36.4499 15.4275 36.5952 15.5043L43.4336 19.0463L40.2025 14.1558L39.4246 14.6679C39.2793 14.7703 39.1425 14.8044 39.0399 14.7788C38.9288 14.7532 38.8262 14.6593 38.7151 14.4886C38.604 14.3179 38.5613 14.1814 38.5784 14.079C38.5955 13.968 38.6809 13.8656 38.8348 13.7717L40.9803 12.3549C41.1342 12.2525 41.2624 12.2184 41.365 12.244C41.4761 12.2696 41.5787 12.3635 41.6898 12.5342C41.8009 12.7049 41.8436 12.8414 41.8266 12.9438C41.8095 13.0548 41.724 13.1572 41.5701 13.2511L41.194 13.4986L45.6218 20.1985C45.6987 20.3094 45.7158 20.4289 45.6902 20.5569C45.656 20.6849 45.5534 20.8044 45.3825 20.9154C45.2543 21.0007 45.126 21.0349 44.9978 21.0349C44.8696 21.0263 44.7328 20.9922 44.5875 20.9239L37.1081 17.0576L40.7068 22.5029L41.6129 21.9054C41.7667 21.803 41.8949 21.7689 41.9975 21.7945C42.1001 21.8201 42.2112 21.914 42.3223 22.0847C42.4335 22.2554 42.4762 22.3919 42.4591 22.4943C42.442 22.6053 42.3565 22.7077 42.2027 22.8016L39.8605 24.3464C39.7067 24.4488 39.5785 24.483 39.4759 24.4573C39.3648 24.4317 39.2622 24.3379 39.1511 24.1672C39.0399 23.9965 38.9972 23.8599 39.0143 23.7575C39.0314 23.6465 39.1169 23.5441 39.2707 23.4502L39.7152 23.1601L35.7234 17.1003Z" fill="#132631"/>
<path d="M43.955 11.8855C43.7926 11.9623 43.6643 11.9879 43.5618 11.9452C43.4592 11.9025 43.3652 11.8001 43.2711 11.6209C43.1856 11.4417 43.1515 11.2966 43.1856 11.1941C43.2198 11.0917 43.3139 10.9978 43.4763 10.921L45.7842 9.7859C45.9466 9.70908 46.0748 9.68348 46.186 9.72615C46.2885 9.76029 46.3826 9.87124 46.4766 10.0505C46.5706 10.2297 46.5963 10.3748 46.5621 10.4772C46.5279 10.5796 46.4338 10.6735 46.2714 10.7503L45.4765 11.1429L47.716 15.6749C47.8955 16.0419 48.0921 16.3407 48.2973 16.554C48.5024 16.7759 48.7247 16.9296 48.964 17.0149C49.2034 17.1003 49.4598 17.1173 49.7333 17.0747C50.0069 17.032 50.306 16.9296 50.6309 16.7674C50.9557 16.6052 51.2121 16.4345 51.4173 16.2382C51.6224 16.0505 51.7592 15.8286 51.8361 15.5896C51.913 15.3506 51.9301 15.0775 51.8788 14.7788C51.8276 14.4801 51.7164 14.1472 51.5284 13.7802L49.2888 9.2482L48.4939 9.6408C48.3315 9.71762 48.2033 9.74322 48.1007 9.70055C47.9981 9.65787 47.9041 9.55546 47.8101 9.37622C47.7246 9.19699 47.6904 9.0519 47.7246 8.94948C47.7588 8.84706 47.8528 8.75318 48.0152 8.67637L50.3231 7.54123C50.4855 7.46442 50.6138 7.43881 50.7249 7.48149C50.8275 7.51563 50.9215 7.62658 51.0155 7.80581C51.101 7.98504 51.1352 8.13014 51.101 8.23255C51.0668 8.33497 50.9728 8.42886 50.8104 8.50567L50.3659 8.71904L52.6738 13.3961C52.9217 13.8997 53.0756 14.3776 53.1183 14.8129C53.161 15.2482 53.1183 15.6493 52.9815 16.0163C52.8448 16.3833 52.6225 16.7162 52.3062 17.0149C51.9985 17.3136 51.6053 17.5782 51.1523 17.8087C50.6907 18.0391 50.2462 18.1842 49.8188 18.2439C49.3914 18.3037 48.9897 18.2781 48.6136 18.1671C48.2374 18.0562 47.887 17.8428 47.5707 17.5441C47.2544 17.2454 46.9638 16.8357 46.7159 16.3321L44.408 11.6636L43.955 11.8855Z" fill="#132631"/>
<path d="M54.1697 7.16576L53.409 7.43034C53.238 7.49008 53.1012 7.49008 53.0072 7.44741C52.9046 7.3962 52.8277 7.27671 52.7593 7.08894C52.6909 6.90117 52.6824 6.75608 52.7337 6.65366C52.7764 6.55125 52.8875 6.47443 53.0585 6.41469L59.6147 4.15295C59.7857 4.09321 59.9225 4.09321 60.0165 4.13588C60.1105 4.18709 60.196 4.30658 60.2644 4.49435L60.9226 6.39762C60.9824 6.56832 60.9824 6.71341 60.9311 6.81583C60.8713 6.91824 60.7431 7.00359 60.5294 7.08041C60.3157 7.14869 60.1618 7.16576 60.0507 7.12308C59.9396 7.08041 59.8541 6.96945 59.7942 6.79022L59.3156 5.39904L55.3066 6.78169L56.264 9.55551L58.1359 8.90687L57.8966 8.22408C57.8368 8.05338 57.8368 7.90829 57.8881 7.80587C57.9393 7.70345 58.0761 7.6181 58.2898 7.54129C58.5035 7.46448 58.6574 7.45594 58.7685 7.49861C58.8796 7.54129 58.9651 7.65224 59.0249 7.83147L59.8455 10.2127C59.9054 10.3919 59.9054 10.5285 59.8541 10.6309C59.7942 10.7333 59.666 10.8187 59.4523 10.8955C59.2386 10.9638 59.0848 10.9808 58.9736 10.9382C58.8625 10.8955 58.777 10.7845 58.7172 10.6053L58.4779 9.92251L56.6059 10.5712L57.6658 13.6266L61.8286 12.1928L61.2388 10.4773C61.179 10.3066 61.179 10.1615 61.2303 10.0591C61.2816 9.95665 61.4183 9.8713 61.632 9.79449C61.8457 9.72621 61.9996 9.70914 62.1107 9.75182C62.2218 9.79449 62.2988 9.90544 62.3672 10.0847L63.1365 12.3037C63.2048 12.4915 63.2134 12.6366 63.1621 12.739C63.1194 12.8414 63.0082 12.9182 62.8373 12.978L56.1357 15.2909C55.9648 15.3507 55.828 15.3507 55.734 15.308C55.6314 15.2568 55.5545 15.1373 55.4861 14.9495C55.4177 14.7618 55.4092 14.6167 55.4605 14.5143C55.5032 14.4118 55.6143 14.335 55.7853 14.2753L56.546 14.0107L54.1697 7.16576Z" fill="#132631"/>
<path d="M62.7261 4.34069C62.5466 4.37483 62.4184 4.36629 62.3244 4.30655C62.2303 4.23827 62.1705 4.11025 62.1278 3.91395C62.085 3.71764 62.0936 3.57255 62.1534 3.47867C62.2132 3.38478 62.3329 3.31651 62.5039 3.28237L65.4101 2.67639C65.5896 2.64225 65.7179 2.65079 65.8119 2.71053C65.9059 2.77028 65.9658 2.8983 66.0085 3.0946C66.0512 3.2909 66.0427 3.43599 65.9828 3.52988C65.923 3.62376 65.8033 3.69204 65.6324 3.72618L64.5383 3.95662L68.3506 10.3065L69.308 2.95804L68.5301 3.1202C68.3592 3.16288 68.2224 3.14581 68.1284 3.08606C68.0343 3.02632 67.9745 2.8983 67.9318 2.702C67.889 2.50569 67.8976 2.3606 67.9574 2.26672C68.0173 2.17284 68.1369 2.10456 68.3079 2.07042L70.8979 1.52419C71.0774 1.49005 71.2056 1.49858 71.2996 1.55833C71.3937 1.61807 71.4535 1.74609 71.4962 1.94239C71.539 2.1387 71.5304 2.28379 71.4706 2.37767C71.4108 2.47156 71.2996 2.54837 71.1201 2.58251L70.5218 2.71053L69.3764 11.1088C69.3507 11.3051 69.2738 11.4502 69.1541 11.5612C69.0344 11.6636 68.8635 11.7404 68.6412 11.7916C68.419 11.8343 68.2309 11.8343 68.0856 11.7831C67.9403 11.7319 67.8121 11.6209 67.7095 11.4588L63.3074 4.2212L62.7261 4.34069Z" fill="#132631"/>
<path d="M76.1292 9.33354C76.3087 9.31647 76.4369 9.35061 76.5224 9.41889C76.6079 9.49571 76.6506 9.63226 76.6677 9.82857C76.6848 10.0249 76.6592 10.17 76.5908 10.2553C76.5224 10.3407 76.3942 10.3919 76.2147 10.4089L73.5734 10.6223C73.3939 10.6394 73.2657 10.6052 73.1802 10.537C73.0947 10.4687 73.0434 10.3321 73.0349 10.1273C73.0178 9.93098 73.0434 9.78589 73.1118 9.70054C73.1802 9.61519 73.3084 9.56399 73.4879 9.54692L73.9324 9.51278L75.9583 2.07892L74.4795 2.19841C74.3 2.21548 74.1718 2.18134 74.0863 2.11306C74.0008 2.04478 73.9495 1.90822 73.941 1.70339C73.9239 1.50709 73.9495 1.36199 74.0179 1.27665C74.0863 1.1913 74.2145 1.14009 74.394 1.12302L77.2917 0.884042C77.5054 0.866973 77.6764 0.892577 77.8132 0.960856C77.9499 1.02913 78.0525 1.15716 78.138 1.32785L81.5657 8.8812L82.0443 8.83852C82.2239 8.82145 82.3521 8.85559 82.4376 8.92387C82.523 8.99215 82.5743 9.12871 82.5829 9.33354C82.6 9.52985 82.5743 9.67494 82.5059 9.76029C82.4376 9.84564 82.3093 9.89684 82.1298 9.91391L79.3347 10.1444C79.1552 10.1614 79.0269 10.1273 78.9415 10.059C78.856 9.99073 78.8047 9.85417 78.7962 9.64933C78.7791 9.45303 78.8047 9.30794 78.8731 9.22259C78.9415 9.13724 79.0697 9.08603 79.2492 9.06896L80.3177 8.98361L79.5142 7.15716L75.6847 7.47295L75.1804 9.40182L76.1292 9.33354ZM75.9583 6.37195L79.0526 6.11591L77.2319 1.96797L77.078 1.9765L75.9583 6.37195Z" fill="#132631"/>
<path d="M84.7455 9.64937C84.7369 9.83713 84.6857 9.96516 84.6002 10.042C84.5061 10.1188 84.3523 10.1529 84.13 10.1444C83.9078 10.1359 83.7539 10.0932 83.6685 10.0078C83.583 9.92248 83.5488 9.79446 83.5573 9.60669L83.6599 7.234C83.6685 7.04624 83.7197 6.91821 83.8052 6.8414C83.8992 6.76459 84.0531 6.73045 84.2754 6.73898C84.5061 6.74752 84.6515 6.867 84.7198 7.08891C84.9079 7.71195 85.2327 8.18991 85.6943 8.53983C86.1473 8.88976 86.7286 9.07753 87.421 9.10314C87.7714 9.1202 88.0792 9.0946 88.3442 9.02632C88.6091 8.95804 88.8314 8.85563 89.0109 8.7276C89.1904 8.59958 89.3272 8.43742 89.4297 8.24112C89.5238 8.05335 89.5836 7.83998 89.5921 7.60954C89.6092 7.25961 89.5323 6.97796 89.3613 6.76459C89.1904 6.55122 88.9681 6.37198 88.6775 6.23543C88.4382 6.12447 88.1732 6.03059 87.8826 5.95378C87.5919 5.87696 87.2842 5.80015 86.9765 5.72333C86.6688 5.64652 86.3525 5.56117 86.0448 5.47582C85.737 5.39048 85.4464 5.27952 85.1814 5.14296C84.9934 5.04908 84.8139 4.93813 84.6515 4.81011C84.4891 4.68208 84.3608 4.53699 84.2497 4.36629C84.1386 4.1956 84.0531 4.00783 83.9933 3.78592C83.9334 3.56402 83.9163 3.31651 83.9249 3.03486C83.942 2.62518 84.036 2.25819 84.1984 1.93386C84.3694 1.60954 84.5916 1.33642 84.8737 1.12305C85.1558 0.901144 85.4892 0.738982 85.8738 0.636563C86.2585 0.534145 86.6688 0.491471 87.1218 0.508541C87.6005 0.52561 88.0535 0.636563 88.4724 0.8414C88.8912 1.0377 89.2502 1.29375 89.5323 1.60954L89.5494 1.12305C89.5579 0.935283 89.6092 0.80726 89.6947 0.730447C89.7887 0.653633 89.9426 0.619494 90.1648 0.628029C90.3871 0.636563 90.541 0.679238 90.6264 0.764586C90.7119 0.849935 90.7461 0.977957 90.7376 1.16572L90.6606 2.98365C90.6521 3.17141 90.6008 3.29944 90.5153 3.37625C90.4213 3.45306 90.2674 3.4872 90.0452 3.47867C89.84 3.47013 89.7118 3.39332 89.6434 3.25676C89.4041 2.75321 89.0622 2.36914 88.6091 2.10456C88.1561 1.83998 87.6432 1.69488 87.062 1.66928C86.4722 1.64368 86.0106 1.76316 85.6858 2.02774C85.3609 2.29232 85.19 2.64225 85.1729 3.08607C85.1643 3.31651 85.2156 3.50427 85.3267 3.64937C85.4379 3.80299 85.5917 3.93102 85.7798 4.03343C85.9849 4.14439 86.2328 4.24681 86.5064 4.31508C86.7884 4.3919 87.0791 4.46018 87.3868 4.53699C87.6945 4.6138 88.0108 4.69062 88.3356 4.77597C88.6604 4.86131 88.9681 4.96373 89.2588 5.09176C89.4896 5.19417 89.7118 5.3222 89.9084 5.46729C90.105 5.61238 90.276 5.79161 90.4213 5.98791C90.5666 6.19275 90.6692 6.43173 90.7461 6.69631C90.823 6.96942 90.8487 7.27668 90.8401 7.63514C90.823 8.04481 90.7376 8.41181 90.5752 8.74467C90.4127 9.07753 90.1905 9.35918 89.8999 9.58962C89.6092 9.82006 89.2502 9.99076 88.8228 10.1102C88.404 10.2297 87.9168 10.2724 87.3697 10.2553C86.8397 10.2297 86.3525 10.1188 85.908 9.91395C85.4635 9.70911 85.0874 9.41039 84.7711 9.01779L84.7455 9.64937Z" fill="#132631"/>
<path d="M103.269 12.133C103.217 12.3122 103.132 12.4232 103.029 12.4744C102.927 12.5256 102.764 12.5171 102.551 12.4573C102.337 12.3976 102.2 12.3122 102.14 12.2098C102.081 12.1074 102.072 11.9708 102.132 11.7916L102.816 9.5128C102.867 9.33357 102.952 9.22262 103.055 9.17141C103.158 9.1202 103.32 9.12873 103.534 9.18848C103.747 9.25676 103.867 9.40185 103.876 9.64083C103.91 10.2895 104.098 10.8357 104.457 11.2881C104.816 11.7404 105.329 12.0647 105.996 12.261C106.329 12.3634 106.637 12.4147 106.91 12.4061C107.184 12.4061 107.423 12.3634 107.628 12.2781C107.833 12.1927 108.013 12.0733 108.15 11.9111C108.286 11.7489 108.397 11.5612 108.466 11.3393C108.568 11.0064 108.56 10.7162 108.449 10.4687C108.338 10.2212 108.158 9.99075 107.91 9.78592C107.705 9.62376 107.474 9.46159 107.209 9.3165C106.944 9.17141 106.671 9.01778 106.389 8.86415C106.107 8.71053 105.825 8.5569 105.551 8.39474C105.278 8.23257 105.021 8.05334 104.799 7.86558C104.636 7.72902 104.491 7.57539 104.371 7.41323C104.252 7.25107 104.158 7.07183 104.089 6.88407C104.021 6.6963 103.987 6.48293 103.987 6.26102C103.987 6.03912 104.03 5.79161 104.106 5.51849C104.226 5.12589 104.406 4.79303 104.645 4.51991C104.884 4.2468 105.175 4.04196 105.5 3.89687C105.825 3.75178 106.192 3.6835 106.585 3.67496C106.979 3.66643 107.397 3.72617 107.825 3.8542C108.286 3.99075 108.697 4.21266 109.056 4.51138C109.415 4.8101 109.697 5.14296 109.893 5.51849L110.03 5.05761C110.081 4.87838 110.167 4.76742 110.269 4.71622C110.372 4.66501 110.534 4.67354 110.748 4.73329C110.962 4.79303 111.099 4.87838 111.158 4.9808C111.218 5.08321 111.227 5.21977 111.167 5.399L110.646 7.14011C110.594 7.31935 110.509 7.4303 110.406 7.48151C110.304 7.53272 110.141 7.52418 109.928 7.46444C109.731 7.40469 109.62 7.30228 109.594 7.14865C109.492 6.60242 109.252 6.15007 108.876 5.78307C108.509 5.41607 108.038 5.15149 107.483 4.9808C106.919 4.8101 106.44 4.8101 106.064 4.9808C105.679 5.15149 105.431 5.45021 105.303 5.87696C105.235 6.09033 105.243 6.28663 105.312 6.46586C105.38 6.63656 105.491 6.79872 105.654 6.95235C105.825 7.11451 106.038 7.26814 106.295 7.40469C106.551 7.54979 106.816 7.69488 107.098 7.83997C107.38 7.98506 107.662 8.13869 107.953 8.30085C108.244 8.46302 108.517 8.64225 108.765 8.83855C108.97 9.00071 109.141 9.17141 109.304 9.36771C109.466 9.55548 109.586 9.76885 109.671 9.99929C109.757 10.2297 109.808 10.4858 109.816 10.7674C109.825 11.0491 109.774 11.3563 109.671 11.6977C109.551 12.0903 109.38 12.4232 109.141 12.7048C108.902 12.9865 108.611 13.2084 108.278 13.362C107.936 13.5156 107.543 13.5925 107.107 13.601C106.671 13.6095 106.184 13.5327 105.662 13.3791C105.158 13.2255 104.713 12.995 104.337 12.6878C103.961 12.3805 103.662 11.9964 103.457 11.5356L103.269 12.133Z" fill="#132631"/>
<path d="M112.321 10.409C112.62 9.73475 112.979 9.17145 113.407 8.70204C113.834 8.23262 114.304 7.88269 114.808 7.63518C115.313 7.3962 115.851 7.26818 116.415 7.25965C116.98 7.25111 117.544 7.37913 118.116 7.63518C118.689 7.89123 119.159 8.22409 119.535 8.64229C119.911 9.0605 120.176 9.53845 120.339 10.0761C120.501 10.6138 120.553 11.1942 120.484 11.8258C120.424 12.4574 120.245 13.106 119.946 13.7717C119.646 14.446 119.287 15.0093 118.86 15.4787C118.433 15.9481 117.963 16.2981 117.458 16.537C116.954 16.776 116.415 16.904 115.851 16.904C115.287 16.9126 114.723 16.7845 114.15 16.5285C113.577 16.2725 113.107 15.9396 112.731 15.5214C112.355 15.1032 112.09 14.6252 111.928 14.0875C111.765 13.5498 111.714 12.9695 111.774 12.3379C111.834 11.7063 112.03 11.0833 112.321 10.409ZM113.466 10.9211C113.236 11.4417 113.09 11.9367 113.03 12.4147C112.971 12.8926 112.996 13.3194 113.099 13.7205C113.201 14.1217 113.381 14.4631 113.637 14.7703C113.894 15.069 114.227 15.3165 114.629 15.4872C115.031 15.6665 115.432 15.7518 115.826 15.7348C116.227 15.7262 116.603 15.6238 116.962 15.436C117.321 15.2483 117.663 14.9752 117.971 14.6082C118.287 14.2497 118.561 13.8059 118.792 13.2853C119.022 12.7646 119.168 12.2696 119.228 11.7917C119.287 11.3137 119.262 10.8784 119.159 10.4858C119.057 10.0932 118.877 9.73475 118.621 9.43603C118.364 9.13731 118.031 8.8898 117.629 8.71911C117.227 8.53987 116.826 8.45453 116.432 8.4716C116.039 8.48867 115.655 8.58255 115.287 8.77885C114.928 8.96662 114.586 9.24827 114.27 9.60673C113.954 9.96519 113.706 10.4005 113.466 10.9211Z" fill="#132631"/>
<path d="M124.69 12.2951L123.587 11.6294C123.433 11.5355 123.339 11.4331 123.322 11.3307C123.296 11.2198 123.339 11.0832 123.442 10.9125C123.544 10.7418 123.647 10.6394 123.758 10.6138C123.861 10.5882 123.997 10.6138 124.151 10.7077L127.912 12.9779C128.066 13.0718 128.16 13.1742 128.177 13.2767C128.203 13.3876 128.16 13.5242 128.058 13.6949C127.955 13.8656 127.852 13.968 127.741 13.9936C127.63 14.0192 127.502 13.9936 127.348 13.8997L125.707 12.9097L121.954 19.1145L125.314 21.1373L126.664 18.9097C126.758 18.7475 126.869 18.6621 126.981 18.6365C127.092 18.6109 127.246 18.6621 127.442 18.7731C127.63 18.8841 127.741 19.0035 127.775 19.1145C127.81 19.2254 127.775 19.362 127.681 19.5242L126.057 22.2126C125.955 22.3833 125.844 22.4858 125.741 22.5114C125.639 22.537 125.502 22.5114 125.348 22.4175L119.279 18.756C119.125 18.6621 119.031 18.5597 119.014 18.4573C118.988 18.3464 119.031 18.2098 119.134 18.0391C119.236 17.8684 119.347 17.766 119.45 17.7404C119.552 17.7148 119.689 17.7404 119.843 17.8343L120.946 18.5L124.69 12.2951Z" fill="#132631"/>
<path d="M132.323 17.1003C132.186 16.9894 132.109 16.8784 132.092 16.7675C132.084 16.6565 132.135 16.5285 132.263 16.3663C132.391 16.2127 132.502 16.1188 132.614 16.1103C132.725 16.0932 132.853 16.1444 132.99 16.2554L135.007 17.8429C135.144 17.9538 135.221 18.0648 135.238 18.1757C135.246 18.2867 135.195 18.4147 135.067 18.5769C134.939 18.7305 134.827 18.8244 134.716 18.8329C134.605 18.85 134.477 18.7988 134.34 18.6878L133.639 18.1416L130.502 22.1103C130.246 22.4346 130.066 22.7333 129.955 23.015C129.844 23.2966 129.801 23.5612 129.827 23.8173C129.853 24.0733 129.947 24.3123 130.101 24.5427C130.263 24.7732 130.477 24.9951 130.759 25.217C131.041 25.4389 131.314 25.601 131.571 25.7035C131.827 25.8059 132.092 25.84 132.34 25.8059C132.588 25.7717 132.844 25.6693 133.092 25.4986C133.34 25.3279 133.588 25.0804 133.844 24.7561L136.982 20.7874L136.289 20.2412C136.144 20.1302 136.067 20.0192 136.058 19.9083C136.05 19.7973 136.101 19.6608 136.229 19.5072C136.349 19.3535 136.469 19.2596 136.58 19.2511C136.691 19.234 136.811 19.2853 136.956 19.3962L138.973 20.9837C139.11 21.0946 139.187 21.2056 139.204 21.3165C139.213 21.4275 139.161 21.5555 139.033 21.7177C138.905 21.8713 138.794 21.9652 138.683 21.9737C138.571 21.9908 138.443 21.9396 138.306 21.8286L137.922 21.5214L134.691 25.6096C134.34 26.0534 133.973 26.3862 133.597 26.6167C133.22 26.8471 132.836 26.9752 132.443 27.0093C132.049 27.0434 131.656 26.9837 131.246 26.8301C130.844 26.6764 130.434 26.446 130.032 26.1302C129.622 25.8059 129.306 25.473 129.066 25.1146C128.827 24.7561 128.682 24.3891 128.622 23.9965C128.562 23.6124 128.605 23.2027 128.741 22.7845C128.878 22.3663 129.118 21.9396 129.468 21.4958L132.699 17.4076L132.323 17.1003Z" fill="#132631"/>
<path d="M140.204 34.1103C139.606 33.9993 139.042 33.7945 138.512 33.5043C137.982 33.2141 137.512 32.8556 137.084 32.4204C136.648 31.9766 136.332 31.4986 136.144 30.9694C135.956 30.4488 135.887 29.9111 135.939 29.3649C135.99 28.8187 136.17 28.2639 136.46 27.7006C136.751 27.1458 137.161 26.6081 137.682 26.0875C138.204 25.5754 138.751 25.1743 139.315 24.8926C139.879 24.611 140.443 24.4488 141.008 24.4061C141.563 24.3635 142.102 24.4403 142.623 24.6366C143.145 24.8329 143.615 25.1401 144.034 25.5669C144.393 25.9339 144.649 26.3094 144.794 26.702C144.94 27.0946 144.991 27.4872 144.957 27.8884L145.282 27.564C145.41 27.436 145.538 27.3763 145.658 27.3763C145.777 27.3848 145.914 27.4616 146.068 27.6238C146.222 27.7859 146.307 27.9225 146.307 28.0335C146.316 28.1529 146.247 28.2724 146.119 28.4005L144.256 30.2354C144.128 30.3635 143.999 30.4232 143.88 30.4232C143.76 30.4232 143.623 30.3379 143.469 30.1757C143.316 30.0135 143.23 29.877 143.23 29.766C143.222 29.6465 143.29 29.5271 143.418 29.3905C143.606 29.2113 143.751 29.0064 143.854 28.776C143.965 28.5455 144.016 28.3066 144.016 28.0505C144.016 27.7945 143.957 27.5299 143.837 27.2568C143.717 26.9837 143.521 26.7106 143.256 26.4374C142.957 26.1302 142.615 25.9168 142.239 25.7803C141.862 25.6437 141.469 25.601 141.059 25.6437C140.649 25.6864 140.23 25.8229 139.802 26.0363C139.375 26.2497 138.965 26.5655 138.554 26.9666C138.144 27.3677 137.828 27.7774 137.597 28.1956C137.366 28.6138 137.221 29.0235 137.17 29.4161C137.118 29.8172 137.153 30.2013 137.272 30.5683C137.4 30.9353 137.606 31.2767 137.913 31.584C138.281 31.9595 138.691 32.2667 139.127 32.4972C139.563 32.7276 140.025 32.8727 140.503 32.941C140.64 32.9581 140.743 33.0178 140.828 33.1117C140.905 33.2056 140.922 33.3677 140.862 33.5896C140.811 33.7945 140.726 33.9396 140.614 34.0249C140.512 34.1103 140.367 34.1359 140.204 34.1103Z" fill="#132631"/>
<path d="M149.453 33.6579L148.214 32.0534C148.102 31.9083 148.06 31.7888 148.077 31.6778C148.094 31.5669 148.179 31.4559 148.342 31.3279C148.504 31.1999 148.632 31.1487 148.743 31.1657C148.855 31.1743 148.966 31.2596 149.068 31.3962L152.265 35.5527C152.376 35.6977 152.419 35.8172 152.402 35.9282C152.385 36.0391 152.299 36.1501 152.137 36.2781C151.975 36.4061 151.846 36.4574 151.735 36.4403C151.624 36.4232 151.513 36.3464 151.41 36.2098L150.171 34.6053L144.418 39.0178L145.752 40.7504C145.863 40.8955 145.906 41.015 145.888 41.1259C145.871 41.2369 145.786 41.3478 145.624 41.4758C145.461 41.5953 145.333 41.6551 145.222 41.638C145.111 41.6209 145 41.5441 144.897 41.4076L141.512 36.995C141.401 36.85 141.358 36.7305 141.375 36.6195C141.392 36.5086 141.478 36.3976 141.64 36.2696C141.803 36.1416 141.931 36.0904 142.042 36.1074C142.153 36.116 142.264 36.2013 142.367 36.3379L143.7 38.0704L149.453 33.6579Z" fill="#132631"/>
<path d="M150.35 40.9382C150.983 40.5712 151.607 40.3151 152.231 40.1871C152.855 40.0591 153.436 40.042 153.992 40.1359C154.547 40.2383 155.052 40.4431 155.513 40.7675C155.975 41.0918 156.36 41.5271 156.676 42.0648C156.992 42.6025 157.18 43.1487 157.24 43.712C157.3 44.2753 157.231 44.813 157.052 45.3507C156.864 45.8798 156.565 46.3834 156.154 46.8613C155.736 47.3393 155.214 47.7575 154.582 48.133C153.949 48.5 153.317 48.7561 152.701 48.8841C152.086 49.0121 151.496 49.0292 150.949 48.9268C150.393 48.8244 149.889 48.611 149.427 48.2867C148.966 47.9623 148.581 47.5271 148.265 46.9894C147.948 46.4517 147.76 45.9054 147.701 45.3421C147.641 44.7788 147.701 44.2411 147.889 43.712C148.068 43.1828 148.367 42.6793 148.786 42.2013C149.196 41.7404 149.718 41.3137 150.35 40.9382ZM150.983 42.0221C150.487 42.3123 150.085 42.6281 149.761 42.978C149.436 43.3279 149.205 43.6949 149.051 44.079C148.906 44.4631 148.846 44.8471 148.88 45.2397C148.914 45.6323 149.043 46.0249 149.265 46.4005C149.487 46.776 149.761 47.0747 150.094 47.3052C150.427 47.5271 150.795 47.6722 151.197 47.7234C151.598 47.7831 152.034 47.7575 152.505 47.6466C152.966 47.5356 153.445 47.3393 153.941 47.0491C154.436 46.7589 154.838 46.4431 155.163 46.0932C155.488 45.7433 155.727 45.3763 155.872 44.9922C156.026 44.6081 156.078 44.2241 156.052 43.8229C156.018 43.4303 155.889 43.0377 155.667 42.6622C155.445 42.2867 155.171 41.9879 154.838 41.7575C154.505 41.5356 154.137 41.399 153.735 41.3393C153.334 41.2796 152.889 41.3137 152.428 41.4246C151.957 41.5356 151.479 41.7319 150.983 42.0221Z" fill="#132631"/>
<path d="M159.001 48.9951L158.762 48.4318C158.693 48.2696 158.676 48.133 158.719 48.0306C158.762 47.9282 158.873 47.8429 159.061 47.7575C159.249 47.6807 159.386 47.6551 159.488 47.6978C159.591 47.7404 159.676 47.8429 159.745 48.005L160.446 49.6352C160.531 49.8315 160.522 50.0022 160.42 50.1387L155.719 56.2326L161.112 53.9282L160.745 53.0747C160.676 52.9125 160.659 52.776 160.702 52.6736C160.745 52.5712 160.856 52.4858 161.044 52.4005C161.232 52.3236 161.369 52.298 161.471 52.3407C161.574 52.3834 161.659 52.4858 161.736 52.648L162.745 55.0036C162.813 55.1658 162.83 55.3023 162.788 55.4047C162.745 55.5071 162.634 55.5925 162.446 55.6778C162.258 55.7547 162.121 55.7803 162.018 55.7376C161.916 55.6949 161.83 55.5925 161.762 55.4303L161.582 55.0121L154.188 58.17C154.06 58.2212 153.941 58.2212 153.821 58.17C153.701 58.1188 153.607 57.9993 153.522 57.803C153.462 57.6579 153.445 57.5299 153.479 57.4019C153.505 57.2739 153.573 57.1458 153.667 57.0178L158.804 50.3521L152.795 52.9211L153.223 53.9197C153.291 54.0818 153.308 54.2184 153.265 54.3208C153.223 54.4232 153.111 54.5086 152.923 54.5939C152.735 54.6707 152.599 54.6963 152.496 54.6537C152.393 54.611 152.308 54.5086 152.24 54.3464L151.137 51.7689C151.068 51.6067 151.051 51.4702 151.094 51.3677C151.137 51.2653 151.248 51.18 151.436 51.0946C151.624 51.0178 151.761 50.9922 151.863 51.0349C151.966 51.0776 152.051 51.18 152.12 51.3421L152.334 51.8286L159.001 48.9951Z" fill="#132631"/>
<path d="M162.924 58.8954L162.702 58.1188C162.651 57.9481 162.659 57.8115 162.711 57.7176C162.762 57.6237 162.89 57.5469 163.087 57.4957C163.283 57.4445 163.429 57.436 163.523 57.4872C163.617 57.5384 163.694 57.6493 163.745 57.82L165.651 64.4772C165.702 64.6479 165.694 64.7845 165.643 64.8784C165.591 64.9722 165.463 65.0491 165.267 65.1003L163.326 65.655C163.147 65.7062 163.01 65.6977 162.907 65.638C162.805 65.5782 162.728 65.4417 162.668 65.2283C162.608 65.0149 162.6 64.8528 162.659 64.7503C162.711 64.6479 162.83 64.5626 163.001 64.5199L164.42 64.1188L163.258 60.0476L160.428 60.8584L160.975 62.7617L161.668 62.5654C161.847 62.5142 161.984 62.5227 162.087 62.5825C162.189 62.6422 162.266 62.7788 162.326 62.9922C162.386 63.2055 162.394 63.3677 162.343 63.4701C162.292 63.5725 162.172 63.6579 162.001 63.7006L159.574 64.3919C159.394 64.4431 159.257 64.4345 159.155 64.3748C159.052 64.3151 158.975 64.1785 158.915 63.9651C158.856 63.7518 158.847 63.5896 158.907 63.4872C158.958 63.3848 159.078 63.3079 159.249 63.2567L159.941 63.0604L159.394 61.1572L156.283 62.0448L157.496 66.2695L159.24 65.7745C159.42 65.7233 159.557 65.7318 159.659 65.7916C159.762 65.8513 159.839 65.9879 159.898 66.2013C159.958 66.4146 159.967 66.5768 159.916 66.6792C159.864 66.7816 159.745 66.867 159.574 66.9096L157.308 67.5583C157.112 67.6095 156.967 67.618 156.872 67.5668C156.778 67.5156 156.702 67.4047 156.65 67.234L154.701 60.4232C154.65 60.2525 154.659 60.1159 154.71 60.022C154.761 59.9281 154.889 59.8513 155.086 59.8001C155.283 59.7489 155.428 59.7404 155.522 59.7916C155.616 59.8428 155.693 59.9538 155.744 60.1244L155.966 60.9011L162.924 58.8954Z" fill="#132631"/>
<path d="M157.676 70.6053C157.496 70.6309 157.36 70.6138 157.266 70.537C157.172 70.4602 157.112 70.3151 157.078 70.0932C157.043 69.8713 157.061 69.7176 157.129 69.6152C157.197 69.5213 157.317 69.4531 157.496 69.4275L159.847 69.069C160.027 69.0434 160.172 69.0605 160.257 69.1373C160.351 69.2141 160.411 69.3592 160.446 69.5811C160.48 69.803 160.394 69.9737 160.189 70.0846C159.616 70.3919 159.206 70.8016 158.95 71.3137C158.693 71.8258 158.625 72.4317 158.727 73.1145C158.779 73.4559 158.864 73.7546 158.984 74.0021C159.103 74.2497 159.24 74.4459 159.411 74.5996C159.582 74.7532 159.762 74.8556 159.967 74.9154C160.172 74.9751 160.394 74.9836 160.625 74.9495C160.967 74.8983 161.232 74.7703 161.411 74.5569C161.591 74.3521 161.719 74.096 161.796 73.7802C161.856 73.5242 161.899 73.2425 161.924 72.9438C161.941 72.6451 161.958 72.3293 161.976 72.0135C161.993 71.6892 162.01 71.3734 162.035 71.0576C162.061 70.7418 162.112 70.4346 162.189 70.1529C162.241 69.9481 162.318 69.7518 162.412 69.5725C162.506 69.3933 162.625 69.2312 162.771 69.0861C162.916 68.941 163.087 68.8215 163.292 68.7276C163.497 68.6252 163.736 68.5569 164.01 68.5142C164.42 68.4545 164.796 68.4716 165.147 68.574C165.497 68.6764 165.805 68.8386 166.079 69.0775C166.352 69.3165 166.574 69.6067 166.745 69.9566C166.916 70.3065 167.044 70.7077 167.113 71.1515C167.181 71.6294 167.164 72.0903 167.053 72.5427C166.942 72.995 166.754 73.3876 166.506 73.729L166.985 73.6522C167.164 73.6266 167.309 73.6437 167.395 73.7205C167.48 73.7973 167.549 73.9424 167.583 74.1643C167.617 74.3862 167.6 74.5398 167.54 74.6423C167.472 74.7361 167.352 74.8044 167.164 74.83L165.361 75.1117C165.181 75.1373 165.036 75.1202 164.95 75.0434C164.856 74.9666 164.796 74.8215 164.762 74.5996C164.728 74.4033 164.779 74.2582 164.908 74.1643C165.352 73.8314 165.66 73.4218 165.839 72.9353C166.019 72.4488 166.053 71.9111 165.967 71.3393C165.873 70.7589 165.668 70.3322 165.352 70.059C165.036 69.7945 164.651 69.692 164.215 69.7603C163.993 69.7945 163.813 69.8798 163.685 70.0164C163.557 70.1529 163.463 70.3236 163.395 70.537C163.326 70.7589 163.275 71.0149 163.258 71.3051C163.241 71.5953 163.224 71.894 163.206 72.2098C163.189 72.5256 163.181 72.8499 163.155 73.1828C163.13 73.5157 163.087 73.8314 163.018 74.1472C162.959 74.3947 162.882 74.6337 162.771 74.8556C162.668 75.0775 162.531 75.2824 162.352 75.4616C162.181 75.6408 161.967 75.7945 161.719 75.9225C161.471 76.0505 161.172 76.1359 160.822 76.1956C160.42 76.2553 160.035 76.2383 159.676 76.1529C159.317 76.0676 158.992 75.8969 158.71 75.6494C158.428 75.4104 158.189 75.0861 157.992 74.702C157.796 74.3094 157.659 73.8485 157.573 73.3108C157.496 72.7902 157.514 72.2866 157.633 71.8172C157.753 71.3393 157.975 70.9125 158.291 70.5285L157.676 70.6053Z" fill="#132631"/>
<path d="M162.959 109.959L163.283 109.055C163.343 108.884 163.429 108.782 163.523 108.73C163.625 108.688 163.771 108.696 163.959 108.765C164.147 108.833 164.266 108.918 164.318 109.012C164.369 109.115 164.36 109.243 164.301 109.413L162.95 113.143C162.788 113.587 162.591 113.962 162.352 114.261C162.112 114.56 161.847 114.782 161.557 114.927C161.266 115.08 160.95 115.157 160.608 115.166C160.266 115.174 159.924 115.115 159.565 114.987C159.18 114.85 158.873 114.637 158.642 114.363C158.42 114.082 158.274 113.757 158.206 113.382C157.847 113.851 157.428 114.15 156.958 114.304C156.488 114.449 155.966 114.423 155.411 114.218C155.018 114.073 154.693 113.886 154.428 113.647C154.163 113.408 153.966 113.126 153.829 112.802C153.693 112.477 153.641 112.119 153.65 111.726C153.659 111.325 153.753 110.898 153.915 110.446L155.436 106.221C155.496 106.051 155.582 105.948 155.676 105.897C155.778 105.854 155.924 105.863 156.112 105.931C156.3 105.999 156.419 106.085 156.471 106.179C156.522 106.281 156.513 106.409 156.454 106.58L156.129 107.484L162.959 109.959ZM155.018 110.591C154.795 111.214 154.753 111.735 154.898 112.153C155.043 112.571 155.36 112.87 155.838 113.041C156.864 113.408 157.599 112.972 158.052 111.726L158.779 109.712L155.727 108.611L155.018 110.591ZM159.24 111.624C159.027 112.213 158.992 112.691 159.129 113.058C159.266 113.433 159.548 113.698 159.992 113.851C160.446 114.014 160.839 113.996 161.181 113.792C161.523 113.595 161.796 113.194 162.01 112.614L162.565 111.069L159.804 110.079L159.24 111.624Z" fill="#132631"/>
<path d="M158.163 121.533L159.086 119.723C159.163 119.561 159.266 119.467 159.369 119.433C159.471 119.399 159.616 119.433 159.796 119.519C159.975 119.604 160.078 119.706 160.121 119.809C160.163 119.911 160.129 120.048 160.052 120.201L157.667 124.87C157.582 125.032 157.488 125.126 157.385 125.16C157.283 125.194 157.138 125.16 156.958 125.075C156.779 124.981 156.676 124.887 156.633 124.785C156.599 124.682 156.616 124.546 156.702 124.392L157.625 122.583L151.163 119.288L150.171 121.234C150.086 121.396 149.991 121.49 149.889 121.524C149.786 121.558 149.641 121.524 149.462 121.439C149.282 121.345 149.179 121.251 149.137 121.149C149.094 121.046 149.12 120.91 149.205 120.756L151.735 115.806C151.821 115.644 151.915 115.55 152.017 115.516C152.12 115.482 152.265 115.516 152.445 115.601C152.624 115.695 152.727 115.789 152.77 115.891C152.812 115.994 152.778 116.13 152.701 116.284L151.71 118.23L158.163 121.533Z" fill="#132631"/>
<path d="M154.223 128.6L154.718 127.866C154.821 127.72 154.924 127.635 155.035 127.618C155.146 127.601 155.283 127.644 155.445 127.763C155.607 127.874 155.701 127.985 155.727 128.096C155.753 128.207 155.71 128.335 155.607 128.48L154.026 130.802C153.923 130.947 153.821 131.032 153.71 131.049C153.599 131.066 153.462 131.023 153.299 130.904C153.137 130.793 153.043 130.682 153.017 130.571C152.992 130.46 153.034 130.332 153.137 130.187L153.547 129.581L150.786 127.703L151.616 132.423L151.915 131.979C152.017 131.834 152.12 131.749 152.231 131.732C152.342 131.715 152.479 131.757 152.641 131.877C152.804 131.988 152.898 132.099 152.923 132.21C152.949 132.321 152.906 132.449 152.804 132.594L151.359 134.719C151.257 134.864 151.154 134.949 151.043 134.967C150.932 134.984 150.795 134.941 150.633 134.821C150.462 134.711 150.376 134.6 150.35 134.489C150.325 134.378 150.368 134.25 150.47 134.105L150.727 133.729L149.957 129.154C149.778 129.462 149.547 129.718 149.282 129.914C149.008 130.102 148.675 130.213 148.273 130.247C148.025 130.255 147.778 130.247 147.513 130.213C147.248 130.179 146.991 130.127 146.735 130.068C146.478 130.008 146.23 129.957 145.991 129.897C145.752 129.837 145.529 129.803 145.333 129.786C145.136 129.769 144.965 129.777 144.811 129.812C144.666 129.846 144.546 129.931 144.461 130.059L144.333 130.238C144.23 130.383 144.128 130.469 144.016 130.486C143.905 130.503 143.769 130.46 143.606 130.341C143.444 130.221 143.35 130.119 143.324 130.008C143.298 129.897 143.341 129.769 143.444 129.624L143.811 129.086C143.948 128.89 144.145 128.745 144.41 128.642C144.675 128.54 145.034 128.523 145.487 128.583C145.718 128.617 145.957 128.659 146.196 128.711C146.436 128.762 146.675 128.821 146.906 128.881C147.136 128.941 147.367 128.984 147.59 129.026C147.812 129.069 148.025 129.086 148.222 129.078C148.444 129.078 148.649 129.026 148.837 128.924C149.026 128.821 149.188 128.668 149.325 128.463C149.444 128.284 149.53 128.087 149.59 127.874C149.65 127.661 149.65 127.439 149.607 127.217L149.547 126.893L147.53 125.518L146.812 126.577C146.709 126.722 146.606 126.807 146.495 126.824C146.384 126.841 146.247 126.799 146.085 126.679C145.923 126.568 145.829 126.457 145.803 126.346C145.777 126.235 145.82 126.107 145.923 125.962L147.812 123.188C147.914 123.043 148.017 122.958 148.128 122.941C148.239 122.924 148.376 122.967 148.538 123.086C148.701 123.197 148.795 123.308 148.82 123.419C148.846 123.53 148.803 123.658 148.701 123.803L148.205 124.537L154.223 128.6Z" fill="#132631"/>
<path d="M146.307 133.601C146.863 134.088 147.29 134.6 147.615 135.146C147.94 135.692 148.137 136.247 148.214 136.802C148.29 137.356 148.248 137.903 148.085 138.44C147.923 138.978 147.632 139.482 147.222 139.951C146.812 140.42 146.35 140.77 145.837 141.001C145.324 141.231 144.786 141.342 144.222 141.334C143.657 141.325 143.085 141.197 142.503 140.95C141.922 140.702 141.35 140.344 140.802 139.857C140.255 139.371 139.819 138.858 139.495 138.312C139.178 137.766 138.982 137.211 138.896 136.665C138.819 136.11 138.862 135.564 139.025 135.026C139.187 134.489 139.478 133.985 139.888 133.516C140.298 133.046 140.76 132.696 141.273 132.466C141.785 132.235 142.324 132.124 142.88 132.133C143.444 132.142 144.016 132.27 144.598 132.509C145.196 132.756 145.76 133.123 146.307 133.601ZM145.487 134.54C145.059 134.164 144.623 133.874 144.187 133.678C143.751 133.482 143.333 133.371 142.922 133.354C142.512 133.336 142.127 133.405 141.76 133.558C141.392 133.712 141.067 133.959 140.777 134.284C140.486 134.608 140.29 134.967 140.178 135.351C140.067 135.735 140.05 136.127 140.127 136.528C140.196 136.93 140.358 137.331 140.614 137.74C140.862 138.15 141.204 138.543 141.632 138.918C142.059 139.294 142.495 139.584 142.931 139.78C143.367 139.977 143.786 140.088 144.196 140.105C144.606 140.13 144.991 140.062 145.359 139.9C145.726 139.746 146.051 139.499 146.342 139.174C146.632 138.85 146.829 138.491 146.94 138.107C147.051 137.723 147.068 137.331 146.991 136.93C146.914 136.528 146.752 136.119 146.504 135.718C146.256 135.308 145.914 134.924 145.487 134.54Z" fill="#132631"/>
<path d="M133.477 150.995L133.981 150.654C134.127 150.551 134.255 150.509 134.366 150.534C134.469 150.56 134.588 150.654 134.699 150.816C134.81 150.978 134.862 151.115 134.845 151.225C134.828 151.336 134.742 151.439 134.597 151.541L133.135 152.54C132.956 152.659 132.793 152.685 132.639 152.608L125.741 149.194L129.058 154.025L129.818 153.504C129.964 153.402 130.092 153.359 130.203 153.385C130.314 153.41 130.425 153.504 130.537 153.666C130.648 153.829 130.699 153.965 130.682 154.076C130.665 154.187 130.579 154.289 130.434 154.392L128.314 155.843C128.169 155.945 128.041 155.988 127.929 155.962C127.818 155.937 127.707 155.843 127.596 155.681C127.485 155.518 127.434 155.382 127.451 155.271C127.468 155.16 127.553 155.058 127.699 154.955L128.075 154.699L123.527 148.076C123.45 147.965 123.425 147.846 123.459 147.718C123.485 147.59 123.587 147.47 123.758 147.359C123.886 147.274 124.014 147.231 124.143 147.231C124.271 147.231 124.408 147.274 124.553 147.342L132.101 151.072L128.408 145.686L127.511 146.301C127.365 146.403 127.237 146.446 127.126 146.42C127.015 146.395 126.904 146.301 126.793 146.139C126.681 145.977 126.63 145.84 126.647 145.729C126.664 145.618 126.75 145.516 126.895 145.413L129.212 143.826C129.357 143.723 129.485 143.681 129.596 143.706C129.707 143.732 129.818 143.826 129.93 143.988C130.041 144.15 130.092 144.287 130.075 144.398C130.058 144.509 129.972 144.611 129.827 144.713L129.391 145.012L133.477 150.995Z" fill="#132631"/>
<path d="M125.314 156.372C125.476 156.287 125.604 156.27 125.707 156.304C125.81 156.338 125.912 156.449 125.998 156.628C126.083 156.807 126.117 156.952 126.092 157.055C126.057 157.157 125.963 157.251 125.801 157.336L123.519 158.514C123.356 158.6 123.228 158.617 123.125 158.583C123.023 158.548 122.92 158.437 122.835 158.258C122.741 158.079 122.715 157.934 122.741 157.831C122.775 157.729 122.869 157.635 123.031 157.55L123.818 157.14L121.501 152.651C121.313 152.284 121.117 151.994 120.903 151.78C120.689 151.567 120.467 151.413 120.228 151.336C119.988 151.26 119.732 151.243 119.45 151.294C119.176 151.345 118.877 151.447 118.561 151.618C118.245 151.789 117.98 151.959 117.783 152.156C117.586 152.352 117.45 152.574 117.373 152.813C117.296 153.06 117.287 153.325 117.339 153.624C117.39 153.923 117.518 154.247 117.706 154.614L120.023 159.103L120.809 158.693C120.971 158.608 121.1 158.591 121.202 158.625C121.305 158.659 121.407 158.77 121.493 158.95C121.587 159.129 121.612 159.274 121.587 159.376C121.553 159.479 121.459 159.573 121.296 159.658L119.014 160.836C118.852 160.921 118.723 160.938 118.621 160.904C118.518 160.87 118.416 160.759 118.33 160.58C118.245 160.4 118.21 160.255 118.236 160.153C118.27 160.051 118.364 159.957 118.527 159.871L118.963 159.649L116.578 155.015C116.321 154.511 116.159 154.042 116.108 153.607C116.056 153.171 116.091 152.77 116.227 152.395C116.356 152.028 116.578 151.686 116.886 151.379C117.193 151.072 117.569 150.799 118.031 150.568C118.493 150.329 118.937 150.176 119.356 150.107C119.775 150.039 120.185 150.056 120.561 150.167C120.937 150.278 121.288 150.474 121.613 150.773C121.937 151.072 122.228 151.464 122.493 151.968L124.878 156.602L125.314 156.372Z" fill="#132631"/>
<path d="M115.202 161.254L115.962 160.972C116.133 160.913 116.262 160.904 116.364 160.955C116.467 161.006 116.544 161.126 116.612 161.314C116.68 161.501 116.689 161.647 116.646 161.749C116.603 161.851 116.492 161.928 116.321 161.996L109.808 164.369C109.637 164.429 109.509 164.437 109.406 164.386C109.304 164.335 109.227 164.224 109.158 164.028L108.466 162.142C108.406 161.971 108.397 161.826 108.449 161.723C108.5 161.621 108.637 161.527 108.842 161.45C109.047 161.373 109.21 161.356 109.321 161.399C109.432 161.442 109.517 161.553 109.577 161.723L110.081 163.106L114.065 161.655L113.056 158.898L111.193 159.581L111.441 160.255C111.5 160.426 111.509 160.571 111.458 160.674C111.406 160.776 111.27 160.87 111.064 160.947C110.859 161.023 110.697 161.041 110.586 160.998C110.475 160.955 110.389 160.844 110.329 160.674L109.466 158.309C109.406 158.139 109.398 157.994 109.449 157.891C109.5 157.789 109.637 157.695 109.842 157.618C110.047 157.541 110.21 157.524 110.321 157.567C110.432 157.61 110.517 157.72 110.577 157.891L110.825 158.565L112.689 157.883L111.577 154.844L107.44 156.355L108.064 158.062C108.124 158.233 108.132 158.378 108.081 158.48C108.03 158.583 107.893 158.676 107.688 158.753C107.483 158.83 107.32 158.847 107.209 158.804C107.098 158.762 107.013 158.651 106.953 158.48L106.141 156.27C106.072 156.082 106.064 155.937 106.107 155.834C106.149 155.732 106.26 155.655 106.431 155.587L113.09 153.154C113.261 153.095 113.389 153.086 113.492 153.137C113.595 153.188 113.672 153.299 113.74 153.496C113.808 153.684 113.817 153.829 113.774 153.931C113.731 154.033 113.62 154.11 113.458 154.179L112.697 154.452L115.202 161.254Z" fill="#132631"/>
<path d="M106.688 164.241C106.867 164.198 106.996 164.207 107.09 164.275C107.184 164.335 107.252 164.463 107.295 164.659C107.338 164.856 107.329 165.001 107.278 165.095C107.218 165.188 107.107 165.257 106.927 165.299L104.038 165.957C103.859 165.999 103.73 165.991 103.636 165.922C103.542 165.863 103.474 165.735 103.431 165.538C103.388 165.342 103.397 165.197 103.448 165.103C103.508 165.009 103.619 164.941 103.799 164.898L104.893 164.651L100.969 158.361L100.14 165.726L100.91 165.547C101.089 165.504 101.217 165.521 101.311 165.581C101.405 165.641 101.474 165.769 101.516 165.965C101.559 166.161 101.551 166.307 101.499 166.4C101.44 166.494 101.328 166.563 101.149 166.605L98.5674 167.194C98.3879 167.237 98.2597 167.228 98.1657 167.16C98.0717 167.1 98.0033 166.972 97.9605 166.776C97.9178 166.58 97.9263 166.435 97.9776 166.341C98.0375 166.247 98.1486 166.179 98.3281 166.136L98.9264 165.999L99.9265 157.584C99.9522 157.388 100.021 157.234 100.14 157.132C100.26 157.021 100.422 156.944 100.645 156.893C100.867 156.841 101.055 156.841 101.2 156.893C101.345 156.935 101.474 157.046 101.576 157.217L106.107 164.369L106.688 164.241Z" fill="#132631"/>
<path d="M93.1908 159.487C93.0113 159.504 92.8831 159.479 92.7976 159.41C92.7121 159.342 92.6608 159.206 92.6437 159.001C92.6266 158.804 92.6437 158.659 92.7121 158.574C92.7805 158.489 92.9002 158.437 93.0797 158.42L95.7124 158.156C95.8919 158.139 96.0201 158.164 96.1056 158.233C96.1911 158.301 96.2424 158.437 96.2595 158.642C96.2766 158.839 96.2595 158.984 96.1911 159.069C96.1227 159.154 96.003 159.206 95.8235 159.223L95.379 159.265L93.4814 166.733L94.9602 166.588C95.1397 166.571 95.2679 166.597 95.3534 166.665C95.4389 166.733 95.4902 166.87 95.5073 167.075C95.5244 167.271 95.5073 167.416 95.4389 167.501C95.3705 167.587 95.2423 167.638 95.0713 167.655L92.1736 167.945C91.9599 167.962 91.7889 167.945 91.6522 167.877C91.5154 167.809 91.4043 167.689 91.3273 167.51L87.7714 160.016L87.2927 160.068C87.1132 160.085 86.985 160.059 86.8995 159.991C86.8141 159.922 86.7628 159.786 86.7457 159.581C86.7286 159.385 86.7542 159.24 86.8226 159.154C86.891 159.069 87.0107 159.018 87.1902 159.001L89.9853 158.728C90.1648 158.711 90.293 158.736 90.3785 158.804C90.464 158.873 90.5153 159.009 90.5324 159.214C90.5495 159.41 90.5324 159.555 90.464 159.641C90.3956 159.726 90.2759 159.777 90.0964 159.794L89.028 159.897L89.8571 161.706L93.6866 161.331L94.1567 159.393L93.1908 159.487ZM93.413 162.44L90.3187 162.747L92.2078 166.861L92.3616 166.844L93.413 162.44Z" fill="#132631"/>
<path d="M84.5574 159.317C84.5574 159.129 84.6087 159.001 84.6942 158.924C84.7797 158.847 84.9421 158.813 85.1643 158.813C85.3866 158.821 85.5404 158.864 85.6259 158.941C85.7114 159.018 85.7541 159.154 85.7456 159.342L85.6857 161.715C85.6857 161.903 85.6345 162.031 85.549 162.107C85.4635 162.184 85.3011 162.218 85.0788 162.218C84.8481 162.21 84.7027 162.099 84.6258 161.877C84.4207 161.262 84.0958 160.784 83.6257 160.443C83.1641 160.102 82.5829 159.922 81.8819 159.914C81.5315 159.905 81.2237 159.94 80.9673 160.008C80.7023 160.076 80.4801 160.187 80.3091 160.324C80.1296 160.46 79.9928 160.622 79.8988 160.819C79.8048 161.015 79.7535 161.22 79.745 161.459C79.7364 161.809 79.8133 162.09 79.9928 162.295C80.1724 162.5 80.3946 162.679 80.6938 162.807C80.9331 162.91 81.1981 163.004 81.4973 163.08C81.7965 163.157 82.0956 163.225 82.4119 163.294C82.7282 163.362 83.0359 163.439 83.3436 163.524C83.6513 163.61 83.942 163.712 84.207 163.84C84.4036 163.925 84.5745 164.036 84.7369 164.164C84.8993 164.292 85.0361 164.437 85.1472 164.6C85.2584 164.77 85.3524 164.958 85.4122 165.18C85.472 165.393 85.4977 165.649 85.4891 165.931C85.4806 166.341 85.3951 166.708 85.2327 167.041C85.0703 167.373 84.848 167.638 84.5745 167.86C84.2924 168.082 83.9676 168.252 83.583 168.363C83.1983 168.474 82.788 168.526 82.335 168.517C81.8563 168.509 81.4032 168.406 80.9759 168.21C80.5485 168.014 80.1894 167.766 79.8988 167.459L79.8903 167.945C79.8817 168.133 79.839 168.261 79.745 168.338C79.6595 168.415 79.4971 168.449 79.2748 168.449C79.0526 168.44 78.8987 168.398 78.8132 168.321C78.7278 168.244 78.685 168.107 78.6936 167.92L78.7363 166.102C78.7363 165.914 78.7876 165.786 78.8731 165.709C78.9586 165.632 79.121 165.598 79.3432 165.598C79.5484 165.607 79.6766 165.675 79.7535 165.812C80.0014 166.307 80.3519 166.682 80.8049 166.947C81.2579 167.211 81.7794 167.339 82.3606 167.356C82.9504 167.373 83.412 167.245 83.7283 166.981C84.0531 166.716 84.2155 166.358 84.2241 165.914C84.2326 165.684 84.1728 165.496 84.0616 165.351C83.9505 165.206 83.7967 165.078 83.6001 164.975C83.3949 164.864 83.147 164.77 82.8649 164.702C82.5829 164.634 82.2922 164.565 81.976 164.497C81.6682 164.429 81.352 164.352 81.0271 164.275C80.7023 164.198 80.3946 164.096 80.104 163.968C79.8646 163.866 79.6509 163.746 79.4458 163.601C79.2406 163.456 79.0697 163.285 78.9244 163.089C78.779 162.884 78.6679 162.654 78.5825 162.381C78.5055 162.116 78.4628 161.8 78.4713 161.45C78.4799 161.041 78.5654 160.674 78.7192 160.332C78.8731 159.991 79.0953 159.709 79.3859 159.47C79.6766 159.231 80.027 159.052 80.4544 158.932C80.8818 158.813 81.3605 158.753 81.899 158.762C82.429 158.779 82.9162 158.881 83.3607 159.086C83.8052 159.291 84.1899 159.581 84.5147 159.965L84.5574 159.317Z" fill="#132631"/>
<path d="M66 157.149C66.0513 156.969 66.1282 156.858 66.2308 156.807C66.3334 156.756 66.4958 156.756 66.7095 156.816C66.9232 156.876 67.0599 156.952 67.1198 157.055C67.1796 157.157 67.1882 157.294 67.1369 157.473L66.4958 159.76C66.4445 159.94 66.3676 160.051 66.265 160.11C66.1624 160.161 66 160.161 65.7863 160.102C65.5641 160.042 65.4529 159.888 65.4358 159.658C65.3931 159.009 65.188 158.463 64.8289 158.019C64.4614 157.575 63.9485 157.26 63.2732 157.072C62.9399 156.978 62.6321 156.935 62.3586 156.935C62.0851 156.944 61.8457 156.986 61.6406 157.072C61.4354 157.157 61.2645 157.285 61.1192 157.447C60.9824 157.61 60.8798 157.806 60.8114 158.028C60.7174 158.361 60.726 158.651 60.8456 158.898C60.9653 159.146 61.1448 159.368 61.3927 159.573C61.5978 159.735 61.8372 159.888 62.1022 160.033C62.3671 160.179 62.6492 160.324 62.9313 160.469C63.2134 160.614 63.504 160.767 63.7776 160.921C64.0596 161.075 64.3075 161.245 64.5383 161.442C64.7007 161.578 64.846 161.723 64.9743 161.885C65.1025 162.048 65.1965 162.218 65.2649 162.415C65.3333 162.602 65.376 162.816 65.376 163.038C65.3846 163.268 65.3418 163.516 65.2734 163.78C65.1623 164.173 64.9914 164.514 64.752 164.787C64.5127 165.06 64.2306 165.274 63.9058 165.427C63.5809 165.573 63.2219 165.658 62.8202 165.666C62.427 165.684 62.0081 165.624 61.5722 165.504C61.1106 165.376 60.7003 165.163 60.3327 164.873C59.9737 164.583 59.6831 164.25 59.478 163.883L59.3497 164.344C59.2985 164.523 59.2215 164.634 59.119 164.693C59.0164 164.753 58.854 164.745 58.6403 164.685C58.4266 164.625 58.2898 164.548 58.23 164.446C58.1701 164.344 58.1616 164.207 58.2129 164.028L58.7087 162.278C58.7599 162.099 58.8369 161.988 58.9394 161.928C59.042 161.877 59.2044 161.877 59.4181 161.937C59.6147 161.988 59.7259 162.09 59.76 162.244C59.8797 162.79 60.1191 163.243 60.4952 163.601C60.8713 163.959 61.3414 164.224 61.897 164.378C62.4697 164.54 62.9399 164.531 63.316 164.352C63.6921 164.173 63.94 163.874 64.0596 163.447C64.1195 163.225 64.1195 163.038 64.0425 162.858C63.9742 162.688 63.8545 162.526 63.6921 162.381C63.5126 162.218 63.2989 162.073 63.051 161.937C62.7945 161.8 62.5296 161.655 62.2389 161.519C61.9569 161.373 61.6662 161.228 61.3756 161.066C61.085 160.913 60.8114 160.733 60.555 160.546C60.3498 160.392 60.1703 160.221 60.0079 160.033C59.8455 159.846 59.7173 159.632 59.6318 159.402C59.5378 159.171 59.4865 158.915 59.478 158.634C59.4694 158.352 59.5122 158.045 59.6062 157.703C59.7173 157.311 59.8883 156.969 60.1191 156.688C60.3498 156.398 60.6405 156.176 60.9738 156.022C61.3158 155.868 61.7004 155.775 62.1364 155.757C62.5723 155.74 63.0595 155.809 63.581 155.954C64.0853 156.099 64.5383 156.321 64.923 156.628C65.3076 156.935 65.6068 157.311 65.829 157.763L66 157.149Z" fill="#132631"/>
<path d="M56.9904 159.035C56.7084 159.709 56.3494 160.281 55.9305 160.759C55.5117 161.237 55.0501 161.595 54.5457 161.851C54.0414 162.107 53.5115 162.235 52.9473 162.252C52.3831 162.27 51.819 162.15 51.2377 161.911C50.665 161.672 50.1863 161.339 49.8017 160.93C49.417 160.52 49.1435 160.042 48.9725 159.504C48.8016 158.967 48.7417 158.386 48.793 157.755C48.8443 157.123 49.0067 156.474 49.2973 155.8C49.5794 155.126 49.9384 154.546 50.3573 154.076C50.7761 153.607 51.2377 153.24 51.742 152.992C52.2464 152.745 52.7763 152.608 53.3405 152.6C53.9047 152.582 54.4688 152.702 55.0501 152.941C55.6228 153.18 56.1015 153.513 56.4861 153.922C56.8708 154.332 57.1443 154.81 57.3153 155.339C57.4862 155.868 57.5461 156.457 57.4948 157.08C57.4435 157.703 57.2725 158.361 56.9904 159.035ZM55.8365 158.548C56.0587 158.019 56.1955 157.524 56.2468 157.046C56.2981 156.568 56.2639 156.142 56.1527 155.74C56.0416 155.348 55.8536 155.006 55.5886 154.708C55.3236 154.409 54.9902 154.179 54.5885 154.008C54.1867 153.837 53.785 153.76 53.3832 153.777C52.9815 153.794 52.6054 153.905 52.2464 154.102C51.8874 154.298 51.554 154.58 51.2463 154.947C50.9385 155.314 50.6736 155.757 50.4513 156.287C50.2291 156.816 50.0923 157.311 50.041 157.789C49.9897 158.267 50.0239 158.702 50.1265 159.095C50.2376 159.487 50.4171 159.837 50.6821 160.136C50.9471 160.435 51.2805 160.665 51.6822 160.836C52.084 161.006 52.4857 161.083 52.8875 161.066C53.2807 161.049 53.6653 160.938 54.0243 160.742C54.3833 160.546 54.7167 160.264 55.0244 159.897C55.3492 159.521 55.6142 159.069 55.8365 158.548Z" fill="#132631"/>
<path d="M44.579 157.362L45.6902 158.002C45.844 158.096 45.9381 158.19 45.9637 158.301C45.9894 158.403 45.9552 158.548 45.8526 158.719C45.75 158.89 45.6474 158.992 45.5449 159.026C45.4423 159.06 45.3055 159.026 45.1517 158.932L41.3479 156.73C41.194 156.637 41.1 156.543 41.0743 156.432C41.0487 156.321 41.0829 156.184 41.1854 156.014C41.288 155.843 41.3906 155.74 41.4932 155.706C41.5957 155.672 41.7325 155.706 41.8864 155.792L43.5447 156.756L47.1861 150.491L43.7926 148.528L42.4847 150.79C42.3907 150.952 42.2881 151.038 42.1685 151.063C42.0488 151.089 41.8949 151.046 41.7069 150.935C41.5188 150.824 41.3991 150.713 41.365 150.602C41.3308 150.491 41.3564 150.355 41.4504 150.193L43.0318 147.47C43.1344 147.299 43.2369 147.197 43.3395 147.163C43.4421 147.129 43.5789 147.163 43.7327 147.257L49.8616 150.807C50.0154 150.901 50.1094 150.995 50.1351 151.106C50.1607 151.208 50.1265 151.353 50.024 151.524C49.9214 151.695 49.8188 151.797 49.7162 151.831C49.6137 151.866 49.4769 151.831 49.323 151.738L48.2118 151.097L44.579 157.362Z" fill="#132631"/>
<path d="M36.8859 152.711C37.0312 152.822 37.1082 152.932 37.1167 153.035C37.1252 153.146 37.074 153.282 36.9543 153.436C36.8346 153.598 36.7149 153.684 36.6038 153.701C36.4927 153.718 36.373 153.675 36.2277 153.564L34.1848 152.011C34.0395 151.9 33.9625 151.797 33.954 151.686C33.9454 151.575 33.9967 151.439 34.1164 151.285C34.2361 151.123 34.3557 151.038 34.4669 151.021C34.578 151.004 34.6976 151.046 34.843 151.157L35.5524 151.695L38.6126 147.675C38.8605 147.351 39.04 147.043 39.1425 146.762C39.2451 146.48 39.2879 146.216 39.2537 145.959C39.2195 145.712 39.1255 145.464 38.963 145.243C38.8006 145.021 38.5784 144.79 38.2878 144.577C37.9971 144.363 37.7236 144.201 37.4672 144.107C37.2022 144.014 36.9457 143.979 36.6979 144.022C36.45 144.056 36.2021 144.167 35.9542 144.346C35.7063 144.526 35.467 144.773 35.2105 145.106L32.1504 149.126L32.8599 149.664C33.0052 149.775 33.0821 149.877 33.0906 149.988C33.1077 150.099 33.0479 150.235 32.9282 150.389C32.8086 150.551 32.6889 150.637 32.5778 150.654C32.4666 150.671 32.347 150.62 32.2017 150.517L30.1587 148.964C30.0134 148.853 29.9365 148.75 29.9279 148.639C29.9194 148.529 29.9707 148.392 30.0903 148.238C30.21 148.076 30.3297 147.991 30.4408 147.974C30.5519 147.957 30.6801 147.999 30.8169 148.11L31.2101 148.409L34.3728 144.261C34.7147 143.809 35.0738 143.467 35.4413 143.237C35.8089 143.006 36.1935 142.861 36.5867 142.819C36.9799 142.776 37.3731 142.827 37.7834 142.972C38.1937 143.117 38.604 143.348 39.0058 143.655C39.4161 143.971 39.7494 144.304 39.9973 144.654C40.2452 145.004 40.3991 145.379 40.4589 145.763C40.5188 146.147 40.4931 146.557 40.3649 146.975C40.2367 147.393 40.0059 147.829 39.6554 148.281L36.4927 152.429L36.8859 152.711Z" fill="#132631"/>
<path d="M28.7055 135.837C29.3124 135.94 29.8766 136.127 30.4066 136.409C30.9365 136.691 31.4238 137.041 31.8597 137.467C32.3042 137.903 32.629 138.38 32.8256 138.901C33.0222 139.422 33.0992 139.951 33.0564 140.506C33.0137 141.06 32.8513 141.615 32.5692 142.178C32.2871 142.742 31.8939 143.288 31.3725 143.809C30.8596 144.329 30.3211 144.739 29.7569 145.029C29.1928 145.319 28.6372 145.49 28.0815 145.541C27.5259 145.592 26.9789 145.524 26.4574 145.345C25.936 145.166 25.4573 144.858 25.03 144.44C24.6624 144.082 24.406 143.706 24.2521 143.322C24.0982 142.938 24.0384 142.537 24.0726 142.144L23.7478 142.469C23.6196 142.597 23.4913 142.665 23.3802 142.656C23.2605 142.648 23.1238 142.571 22.9699 142.417C22.8075 142.264 22.7306 142.127 22.722 142.008C22.7135 141.888 22.7733 141.769 22.9015 141.632L24.7308 139.763C24.859 139.627 24.9872 139.567 25.0983 139.575C25.218 139.575 25.3548 139.661 25.5172 139.814C25.6796 139.968 25.7565 140.105 25.7651 140.224C25.7736 140.344 25.7138 140.463 25.577 140.6C25.3975 140.787 25.2522 140.992 25.1496 141.223C25.047 141.453 24.9958 141.701 25.0043 141.948C25.0129 142.204 25.0727 142.469 25.2009 142.742C25.3291 143.015 25.5257 143.279 25.7993 143.544C26.107 143.843 26.4489 144.056 26.825 144.184C27.2011 144.312 27.5943 144.355 28.0046 144.304C28.4149 144.252 28.8252 144.116 29.2526 143.885C29.6715 143.655 30.0818 143.339 30.4835 142.93C30.8853 142.52 31.193 142.11 31.4152 141.683C31.6375 141.265 31.7742 140.856 31.8255 140.454C31.8768 140.053 31.8341 139.669 31.6973 139.302C31.5691 138.935 31.3468 138.602 31.0391 138.304C30.663 137.937 30.2527 137.638 29.8082 137.416C29.3637 137.194 28.9021 137.058 28.4235 136.998C28.2867 136.981 28.1756 136.93 28.0986 136.836C28.0132 136.742 28.0046 136.58 28.0559 136.358C28.1072 136.144 28.1841 135.999 28.2952 135.922C28.3978 135.846 28.5346 135.811 28.7055 135.837Z" fill="#132631"/>
<path d="M19.4396 136.426L20.7047 138.014C20.8158 138.15 20.8671 138.278 20.85 138.389C20.8329 138.5 20.7475 138.611 20.5936 138.739C20.4397 138.867 20.303 138.918 20.1919 138.91C20.0807 138.901 19.9696 138.824 19.8585 138.679L16.5932 134.574C16.4821 134.429 16.4308 134.309 16.4479 134.198C16.465 134.088 16.5505 133.977 16.7043 133.849C16.8582 133.721 16.9949 133.669 17.1061 133.678C17.2172 133.686 17.3283 133.763 17.4394 133.908L18.7045 135.496L24.3803 130.989L23.0212 129.282C22.9101 129.137 22.8588 129.018 22.8759 128.907C22.893 128.796 22.9785 128.685 23.1323 128.557C23.2862 128.429 23.423 128.378 23.5341 128.386C23.6452 128.395 23.7563 128.472 23.8674 128.617L27.3293 132.969C27.4405 133.115 27.4917 133.234 27.4746 133.345C27.4576 133.456 27.3721 133.567 27.2182 133.695C27.0644 133.823 26.9276 133.874 26.8165 133.866C26.7053 133.857 26.5942 133.78 26.4831 133.635L25.124 131.928L19.4396 136.426Z" fill="#132631"/>
<path d="M18.4224 129.163C17.7984 129.547 17.1744 129.803 16.559 129.948C15.9435 130.093 15.3537 130.119 14.7981 130.025C14.2425 129.94 13.7296 129.735 13.268 129.419C12.8065 129.103 12.4047 128.676 12.0799 128.147C11.7551 127.618 11.5585 127.072 11.4901 126.509C11.4217 125.954 11.473 125.408 11.6525 124.87C11.832 124.332 12.1226 123.829 12.5244 123.342C12.9347 122.856 13.4475 122.429 14.0801 122.045C14.7041 121.661 15.3281 121.405 15.9435 121.26C16.559 121.123 17.1488 121.097 17.6958 121.183C18.2515 121.277 18.7558 121.473 19.2259 121.789C19.6875 122.105 20.0892 122.531 20.4141 123.06C20.7389 123.59 20.9355 124.136 21.0039 124.699C21.0723 125.262 21.021 125.8 20.8415 126.338C20.6705 126.867 20.3799 127.379 19.9696 127.866C19.5678 128.352 19.055 128.779 18.4224 129.163ZM17.7728 128.096C18.26 127.797 18.6618 127.473 18.978 127.115C19.2943 126.756 19.5251 126.389 19.6704 126.005C19.8157 125.621 19.8585 125.237 19.8243 124.836C19.7901 124.435 19.6533 124.051 19.4225 123.684C19.1917 123.308 18.9096 123.018 18.5763 122.796C18.2429 122.583 17.8753 122.446 17.465 122.395C17.0633 122.344 16.6274 122.378 16.1658 122.497C15.7042 122.617 15.2255 122.822 14.7383 123.12C14.251 123.419 13.8493 123.743 13.533 124.102C13.2168 124.46 12.986 124.827 12.8406 125.211C12.6953 125.595 12.644 125.988 12.6868 126.381C12.7295 126.773 12.8577 127.157 13.0885 127.533C13.3193 127.908 13.6014 128.207 13.9348 128.42C14.2681 128.634 14.6357 128.77 15.046 128.822C15.4563 128.873 15.8922 128.839 16.3538 128.719C16.8154 128.6 17.2855 128.395 17.7728 128.096Z" fill="#132631"/>
<path d="M9.6438 121.268L9.89169 121.823C9.96862 121.985 9.98571 122.122 9.94297 122.224C9.90023 122.326 9.78911 122.42 9.6096 122.497C9.4301 122.583 9.28479 122.6 9.18221 122.565C9.07964 122.531 8.99416 122.429 8.91723 122.267L8.19066 120.645C8.10518 120.449 8.10518 120.278 8.20775 120.142L12.8065 113.971L7.45554 116.369L7.83165 117.214C7.90858 117.376 7.92567 117.513 7.88293 117.615C7.84019 117.718 7.72907 117.812 7.54956 117.888C7.37006 117.974 7.22475 117.991 7.12217 117.957C7.0196 117.922 6.93412 117.82 6.85719 117.658L5.8058 115.319C5.72887 115.157 5.71177 115.021 5.75451 114.918C5.79725 114.816 5.90837 114.722 6.08788 114.645C6.26738 114.56 6.4127 114.543 6.51527 114.577C6.61785 114.611 6.71187 114.713 6.78026 114.876L6.96831 115.285L14.3024 111.999C14.4306 111.94 14.5503 111.94 14.67 111.991C14.7896 112.042 14.8922 112.161 14.9777 112.349C15.0375 112.486 15.0546 112.622 15.029 112.75C15.0033 112.878 14.9435 113.006 14.8495 113.134L9.83185 119.894L15.7897 117.223L15.3452 116.233C15.2683 116.07 15.2598 115.934 15.2939 115.831C15.3281 115.729 15.4478 115.635 15.6273 115.558C15.8068 115.473 15.9521 115.456 16.0547 115.49C16.1573 115.524 16.2513 115.627 16.3197 115.789L17.4651 118.349C17.542 118.511 17.5591 118.648 17.5164 118.75C17.4737 118.853 17.3625 118.947 17.183 119.023C17.0035 119.109 16.8582 119.126 16.7556 119.092C16.6531 119.058 16.5676 118.955 16.4907 118.793L16.277 118.307L9.6438 121.268Z" fill="#132631"/>
<path d="M5.5493 111.462L5.78864 112.23C5.83993 112.4 5.83993 112.537 5.78864 112.631C5.73735 112.725 5.60913 112.802 5.42108 112.861C5.23303 112.921 5.08771 112.921 4.98514 112.878C4.89111 112.827 4.81418 112.716 4.76289 112.546L2.73704 105.922C2.68576 105.752 2.68576 105.615 2.73704 105.521C2.78833 105.427 2.91655 105.351 3.1046 105.291L5.02788 104.702C5.20738 104.651 5.34415 104.651 5.44672 104.711C5.5493 104.77 5.63478 104.907 5.69461 105.12C5.76299 105.334 5.76299 105.496 5.72025 105.598C5.66897 105.701 5.55785 105.786 5.37834 105.837L3.96794 106.264L5.20738 110.318L8.01964 109.464L7.43838 107.578L6.746 107.792C6.5665 107.843 6.42973 107.843 6.32715 107.783C6.22458 107.723 6.1391 107.587 6.07927 107.373C6.01088 107.16 6.01088 106.998 6.06217 106.895C6.11346 106.793 6.22458 106.708 6.40409 106.656L8.81459 105.922C8.99409 105.871 9.13086 105.871 9.23344 105.931C9.33601 105.991 9.42149 106.127 9.48132 106.341C9.54971 106.554 9.54971 106.716 9.50697 106.819C9.46423 106.921 9.34456 107.006 9.16505 107.058L8.47267 107.271L9.05393 109.166L12.1483 108.227L10.8661 104.028L9.13086 104.557C8.95135 104.608 8.81459 104.608 8.71201 104.548C8.60944 104.489 8.53251 104.352 8.46413 104.139C8.39574 103.925 8.39574 103.763 8.43848 103.661C8.48977 103.558 8.60089 103.473 8.7804 103.422L11.0285 102.739C11.2251 102.679 11.3704 102.679 11.4644 102.722C11.567 102.773 11.6354 102.884 11.6867 103.055L13.7553 109.823C13.8066 109.994 13.8066 110.13 13.7553 110.224C13.704 110.318 13.5758 110.395 13.3877 110.454C13.1997 110.514 13.0543 110.514 12.9518 110.472C12.8577 110.42 12.7808 110.309 12.7295 110.139L12.4902 109.371L5.5493 111.462Z" fill="#132631"/>
<path d="M10.584 99.6237C10.7635 99.5896 10.9088 99.6152 10.9943 99.6835C11.0798 99.7518 11.1567 99.9054 11.1909 100.119C11.2251 100.332 11.2166 100.494 11.1482 100.597C11.0798 100.699 10.9601 100.759 10.7806 100.793L8.43851 101.194C8.25901 101.228 8.11369 101.203 8.02821 101.134C7.94273 101.066 7.87435 100.913 7.83161 100.699C7.78887 100.477 7.87435 100.307 8.0795 100.187C8.65221 99.8713 9.05396 99.453 9.2933 98.9324C9.54119 98.4118 9.60102 97.8144 9.48135 97.123C9.42152 96.7816 9.33604 96.4829 9.20782 96.2439C9.08815 95.9964 8.94284 95.8001 8.77188 95.655C8.60092 95.5099 8.41287 95.4075 8.20772 95.3478C8.00257 95.288 7.78032 95.288 7.54953 95.3222C7.20762 95.3819 6.94263 95.5185 6.77167 95.7233C6.60072 95.9367 6.4725 96.1927 6.39557 96.5085C6.33573 96.7646 6.30154 97.0462 6.28444 97.3449C6.26735 97.6437 6.2588 97.9594 6.25025 98.2752C6.2417 98.5996 6.22461 98.9153 6.20751 99.2311C6.19042 99.5469 6.13913 99.8542 6.0622 100.136C6.01091 100.341 5.94253 100.537 5.8485 100.716C5.75448 100.895 5.64335 101.058 5.49804 101.203C5.35272 101.348 5.18177 101.467 4.98517 101.57C4.78002 101.672 4.54068 101.749 4.26714 101.792C3.85684 101.86 3.48074 101.851 3.13027 101.757C2.77981 101.664 2.46354 101.501 2.19001 101.271C1.91647 101.041 1.68568 100.75 1.50618 100.4C1.32667 100.05 1.1899 99.6493 1.11297 99.2055C1.03604 98.7361 1.04459 98.2667 1.15571 97.8144C1.25829 97.362 1.43779 96.9609 1.68568 96.6109L1.207 96.6963C1.02749 96.7304 0.890729 96.7048 0.796702 96.6365C0.702675 96.5683 0.634292 96.4146 0.600101 96.2013C0.565909 95.9794 0.574457 95.8257 0.64284 95.7233C0.702675 95.6209 0.830894 95.5612 1.0104 95.527L2.80545 95.2198C2.98496 95.1856 3.12173 95.2112 3.21575 95.2795C3.30978 95.3478 3.37816 95.5014 3.41235 95.7148C3.44655 95.9111 3.40381 96.0562 3.27559 96.1586C2.8311 96.5 2.53192 96.9097 2.36951 97.4047C2.2071 97.8997 2.17291 98.4289 2.26694 99.0007C2.36951 99.5811 2.58321 100.008 2.90803 100.272C3.23285 100.537 3.60896 100.631 4.05345 100.554C4.27569 100.52 4.44665 100.426 4.57487 100.289C4.69454 100.153 4.79711 99.9737 4.85695 99.7688C4.92533 99.5469 4.96807 99.2823 4.98517 98.9922C5.00226 98.702 5.01081 98.4033 5.01936 98.0789C5.0279 97.7631 5.03645 97.4388 5.05355 97.106C5.07064 96.7731 5.10484 96.4488 5.17322 96.1415C5.22451 95.894 5.30144 95.655 5.40401 95.4246C5.50659 95.2027 5.64335 94.9979 5.80576 94.8101C5.97672 94.6309 6.18187 94.4687 6.42976 94.3407C6.67765 94.2126 6.97682 94.1102 7.32729 94.059C7.72904 93.9907 8.11369 93.9993 8.4727 94.0846C8.83171 94.17 9.15653 94.3321 9.44716 94.5711C9.73779 94.8101 9.97713 95.1173 10.1823 95.5099C10.3874 95.9025 10.5327 96.3634 10.6268 96.8926C10.7122 97.4132 10.7037 97.9082 10.5926 98.3862C10.4815 98.8641 10.2678 99.2994 9.95149 99.692L10.584 99.6237Z" fill="#132631"/>
</svg>
