<svg width="400" height="66" viewBox="0 0 400 66" fill="none" xmlns="http://www.w3.org/2000/svg">
<path d="M14.1422 53.5458C14.2897 53.4669 14.4669 53.4669 14.6143 53.5458L16.9665 54.8055L19.2335 56.2127C19.3756 56.3009 19.4642 56.4544 19.4695 56.6216L19.5547 59.2884L19.4695 61.9553C19.4642 62.1225 19.3756 62.2759 19.2335 62.3642L16.9665 63.7714L14.6143 65.031C14.4669 65.11 14.2897 65.11 14.1422 65.031L11.7901 63.7714L9.52307 62.3642C9.38095 62.2759 9.29237 62.1225 9.28702 61.9553L9.20182 59.2884L9.28702 56.6216C9.29237 56.4544 9.38095 56.3009 9.52307 56.2127L11.7901 54.8055L14.1422 53.5458Z" fill="#B8163D"/>
<path fill-rule="evenodd" clip-rule="evenodd" d="M160.662 7.64111H170.199V35.5189H181.937V44.3224H161.662C161.11 44.3224 160.662 43.8747 160.662 43.3224V7.64111ZM41.8161 8.37689H51.3532L64.5585 44.3245H56.113C55.4651 44.3245 54.8938 43.8995 54.7077 43.2789L52.8205 36.9883H41.0825L39.1953 43.2789C39.0091 43.8995 38.4379 44.3245 37.7899 44.3245H28.6108L41.8161 8.37689ZM46.9515 16.4468L43.2833 29.652H50.6196L46.9515 16.4468ZM128.383 8.37689H137.92L151.125 44.3245H142.68C142.032 44.3245 141.461 43.8995 141.274 43.2789L139.387 36.9883H127.649L125.762 43.2789C125.576 43.8995 125.005 44.3245 124.357 44.3245H115.178L128.383 8.37689ZM133.518 16.4468L129.85 29.652H137.186L133.518 16.4468ZM215.684 8.37689H206.147L192.942 44.3245H202.121C202.769 44.3245 203.34 43.8995 203.526 43.2789L205.413 36.9883H217.151L219.039 43.2789C219.225 43.8995 219.796 44.3245 220.444 44.3245H228.889L215.684 8.37689ZM207.614 29.652L211.282 16.4468L214.95 29.652H207.614ZM74.8283 8.37689H84.3655V24.5166L97.2706 8.74365C97.4606 8.51152 97.7447 8.37689 98.0446 8.37689H108.575L95.3698 25.2503L108.575 44.3245H98.083C97.7613 44.3245 97.4593 44.1698 97.2714 43.9088L84.3655 25.9839V44.3245H74.8283V8.37689Z" fill="white"/>
<path fill-rule="evenodd" clip-rule="evenodd" d="M9.53772 47.6626V31.1182H9.53713V39.5104C8.8035 39.7575 6.30918 39.9551 5.13538 39.9551C3.96158 39.9551 1.46725 39.7575 0 39.5104V47.6627C0 47.6627 5.13538 48.4038 9.53713 47.6627C9.53732 47.6626 9.53752 47.6626 9.53772 47.6626Z" fill="white"/>
<path fill-rule="evenodd" clip-rule="evenodd" d="M9.53662 47.6612V39.509C9.53674 39.509 9.53686 39.5089 9.53698 39.5089V7.64111H19.0741V36.5445C19.0741 38.2737 18.8573 41.3584 16.2863 43.9556C15.8157 44.431 13.2269 47.0399 9.53698 47.6611C9.53686 47.6612 9.53674 47.6612 9.53662 47.6612Z" fill="url(#paint0_linear_3046_2071)"/>
<path d="M253.047 2.27474C253.047 1.01844 254.066 0 255.322 0V0C256.578 0 257.597 1.01843 257.597 2.27473V62.8754C257.597 64.1317 256.578 65.1501 255.322 65.1501V65.1501C254.066 65.1501 253.047 64.1317 253.047 62.8754V2.27474Z" fill="#B80000"/>
<path fill-rule="evenodd" clip-rule="evenodd" d="M327.501 15.801C329.007 17.7467 329.886 19.8493 330.953 22.0461C331.455 21.7323 332.114 16.209 332.27 15.3303C332.741 12.6 334.435 5.25648 338.044 5.25648C339.957 5.25648 341.244 7.17082 341.871 8.77132C342.75 10.9681 343.283 13.1335 343.691 15.4558C343.911 16.7111 344.319 19.4728 344.632 20.6025C347.331 19.3472 352.508 16.4914 352.602 16.46C354.327 15.5186 357.967 16.7111 356.116 19.9749C354.673 22.5482 348.366 28.4168 348.366 29.0758C348.366 29.4838 353.857 32.5906 354.641 32.7475C354.767 32.5279 354.955 32.3082 355.018 32.0885C355.708 30.3311 355.99 28.6678 356.9 26.9732C360.101 20.8536 367.976 13.4787 375.349 13.6984C377.608 13.7611 379.773 14.3574 381.687 15.3616C381.31 14.075 381.31 12.6941 381.875 11.2505C383.852 6.13519 391.257 3.68736 395.931 5.66446C399.257 7.07667 400.889 10.2149 399.508 13.8239C397.814 18.2488 392.637 21.952 388.025 21.0105C391.1 25.4668 392.323 31.2726 390.472 36.3565C387.868 43.6373 377.922 45.6144 371.082 45.6144C369.074 45.6144 362.046 44.2963 361.858 44.3277C358.093 44.6729 355.99 45.0181 352.163 44.0139L345.291 41.3464C344.57 41.1581 343.691 42.6644 343.221 43.0724C340.052 45.9596 335.094 44.5787 331.894 42.633C328.254 44.9553 321.917 45.8654 318.277 42.9782C317.649 42.4761 316.206 40.3421 315.987 40.248C308.3 45.1122 296.785 46.5872 287.905 44.3277C286.525 44.2963 283.482 42.1623 282.917 40.907C281.379 37.4863 281.568 34.1911 282.101 30.4566C282.697 26.3769 283.482 22.2972 284.172 18.2488C284.705 15.1734 286.745 5.09957 290.635 5.09957C295.53 5.09957 295.812 14.9223 297.35 15.5186C298.699 15.1106 301.366 14.6398 302.746 14.6398C309.241 14.6398 313.539 18.2175 317.649 22.7052C317.775 22.8307 317.932 22.9562 318.089 23.0817C318.434 22.7679 320.818 17.3701 321.917 15.8951L321.76 15.4558C314.826 12.0037 319.626 0.611876 327.47 3.4363C329.76 4.28363 331.266 6.6687 331.266 9.05377C331.266 13.1649 327.533 15.2675 327.501 15.801ZM391.434 12.3872C392.053 11.9007 392.728 11.4143 393.234 10.7981C393.627 10.3117 393.908 9.69551 393.824 9.11177C393.627 7.87944 392.221 7.58758 390.956 7.87944C390.169 8.07402 389.382 8.46318 388.791 9.04691C388.538 9.27392 388.313 9.56579 388.201 9.85765C388.088 10.2468 388.369 10.5062 388.819 10.3765C389.157 10.2792 389.438 10.0522 389.691 9.82522C390 9.50093 390.281 9.1442 390.759 9.04691C391.069 8.98205 391.35 9.07934 391.35 9.40364C391.35 9.66308 391.125 9.92251 390.9 10.1171C390.703 10.2792 390.534 10.4414 390.338 10.5711C389.663 11.1224 389.016 11.6737 388.51 12.3547C388.285 12.679 388.088 13.0358 387.976 13.3925C387.835 13.8141 387.779 14.2357 387.863 14.6248C387.976 15.1761 388.426 15.5653 389.044 15.5977C390.197 15.6301 391.378 15.5328 392.587 15.3383C393.206 15.2085 393.852 14.8194 393.909 14.1708C393.965 13.4898 393.29 13.2628 392.643 13.3601C391.772 13.4898 390.9 13.5871 390.028 13.6844C390.366 13.1979 390.928 12.8088 391.434 12.3872ZM375.52 25.1724C373.463 25.1724 363.301 34.741 373.806 34.741C382.409 34.741 377.422 25.1724 375.52 25.1724ZM306.268 24.7375C303.952 24.7375 291.674 34.3061 304.269 34.3061C314.263 34.3061 308.584 24.7375 306.268 24.7375Z" fill="#E73F39"/>
<defs>
<linearGradient id="paint0_linear_3046_2071" x1="10.2703" y1="47.9906" x2="20.5407" y2="3.97282" gradientUnits="userSpaceOnUse">
<stop stop-color="#C01940"/>
<stop offset="1" stop-color="#E7304D"/>
</linearGradient>
</defs>
</svg>
