<svg width="300" height="148" viewBox="0 0 300 148" fill="none" xmlns="http://www.w3.org/2000/svg">
<path fill-rule="evenodd" clip-rule="evenodd" d="M106.837 29.8957C110.351 34.4365 112.401 39.3435 114.89 44.4702C116.062 43.7378 117.599 30.8478 117.965 28.7972C119.063 22.4254 123.016 5.28768 131.436 5.28768C135.901 5.28768 138.903 9.75521 140.367 13.4904C142.417 18.617 143.661 23.6705 144.613 29.0901C145.126 32.0196 146.077 38.4646 146.809 41.1012C153.105 38.1717 165.185 31.507 165.405 31.4337C169.431 29.2366 177.923 32.0197 173.604 39.6364C170.236 45.642 155.521 59.3375 155.521 60.8755C155.521 61.8276 168.333 69.0782 170.163 69.4444C170.456 68.9317 170.895 68.4191 171.042 67.9064C172.652 63.8051 173.311 59.9234 175.434 55.9686C182.902 41.6871 201.277 24.4761 218.481 24.9888C223.753 25.1353 228.804 26.5268 233.27 28.8704C232.391 25.8676 232.391 22.6451 233.709 19.2762C238.321 7.33835 255.599 1.62576 266.507 6.23978C274.267 9.5355 278.074 16.8593 274.853 25.2817C270.899 35.6083 258.82 44.2504 248.058 42.0533C255.232 52.4531 258.088 66.0022 253.768 77.8668C247.692 94.8581 224.485 99.4721 208.525 99.4721C203.84 99.4721 187.441 96.3961 187.001 96.4693C178.216 97.275 173.311 98.0806 164.38 95.7369L148.347 89.5117C146.663 89.0723 144.613 92.5877 143.515 93.5398C136.121 100.278 124.554 97.0552 117.087 92.5145C108.594 97.9341 93.806 100.058 85.3137 93.3201C83.8495 92.1483 80.4819 87.1681 79.9694 86.9484C62.0331 98.3003 35.1653 101.742 14.447 96.4693C11.2258 96.3961 4.12453 91.4159 2.80677 88.4864C-0.78049 80.5034 -0.341234 72.8134 0.903325 64.098C2.2943 54.577 4.12453 45.0561 5.73514 35.6083C6.9797 28.431 11.7383 4.92149 20.8163 4.92149C32.2369 4.92149 32.8958 27.8451 36.4831 29.2366C39.6311 28.2845 45.8539 27.1859 49.0751 27.1859C64.2294 27.1859 74.2591 35.5351 83.8495 46.0082C84.1423 46.3011 84.5084 46.5941 84.8744 46.887C85.6797 46.1546 91.2436 33.5577 93.806 30.1155L93.4399 29.0901C77.2606 21.0339 88.4617 -5.55159 106.764 1.03986C112.108 3.01729 115.622 8.5834 115.622 14.1495C115.622 23.7437 106.91 28.6507 106.837 29.8957ZM256.013 21.9288C257.456 20.7935 259.031 19.6583 260.212 18.2203C261.13 17.0851 261.787 15.6472 261.59 14.2849C261.13 11.409 257.85 10.7278 254.898 11.409C253.061 11.8631 251.224 12.7712 249.846 14.1335C249.255 14.6633 248.731 15.3444 248.468 16.0256C248.206 16.9337 248.862 17.5392 249.911 17.2365C250.699 17.0094 251.355 16.4797 251.945 15.9499C252.667 15.1931 253.323 14.3606 254.438 14.1335C255.16 13.9821 255.816 14.2092 255.816 14.966C255.816 15.5715 255.291 16.1769 254.766 16.631C254.307 17.0094 253.914 17.3878 253.454 17.6906C251.88 18.9772 250.371 20.2638 249.19 21.8531C248.665 22.6099 248.206 23.4424 247.943 24.2749C247.615 25.2588 247.484 26.2426 247.681 27.1508C247.943 28.4374 248.993 29.3456 250.436 29.4213C253.126 29.497 255.882 29.2699 258.703 28.8158C260.146 28.5131 261.655 27.6049 261.787 26.0913C261.918 24.502 260.343 23.9722 258.834 24.1992C256.8 24.502 254.766 24.729 252.733 24.956C253.52 23.8208 254.832 22.9126 256.013 21.9288ZM218.881 51.7661C214.08 51.7661 190.369 74.0966 214.88 74.0966C234.954 74.0966 223.317 51.7661 218.881 51.7661ZM57.2922 50.7511C51.8883 50.7511 23.2403 73.0815 52.6285 73.0815C75.9467 73.0815 62.6961 50.7511 57.2922 50.7511Z" fill="white"/>
<path d="M99.2166 129.44C98.4446 129.44 97.7304 129.314 97.0741 129.063C96.4275 128.803 95.8629 128.441 95.3804 127.978C94.9075 127.505 94.5359 126.955 94.2657 126.327C93.9955 125.7 93.8604 125.01 93.8604 124.257C93.8604 123.504 93.9955 122.814 94.2657 122.187C94.5359 121.56 94.9123 121.015 95.3949 120.551C95.8774 120.078 96.442 119.716 97.0886 119.466C97.7449 119.205 98.459 119.075 99.2311 119.075C100.013 119.075 100.732 119.21 101.388 119.48C102.054 119.741 102.619 120.131 103.082 120.653L102.141 121.565C101.755 121.159 101.321 120.86 100.838 120.667C100.355 120.464 99.8391 120.363 99.289 120.363C98.7196 120.363 98.1888 120.46 97.6966 120.653C97.2141 120.846 96.7942 121.116 96.4372 121.463C96.0801 121.811 95.8002 122.226 95.5975 122.708C95.4045 123.181 95.308 123.698 95.308 124.257C95.308 124.817 95.4045 125.338 95.5975 125.821C95.8002 126.294 96.0801 126.704 96.4372 127.051C96.7942 127.399 97.2141 127.669 97.6966 127.862C98.1888 128.055 98.7196 128.151 99.289 128.151C99.8391 128.151 100.355 128.055 100.838 127.862C101.321 127.659 101.755 127.35 102.141 126.935L103.082 127.847C102.619 128.369 102.054 128.764 101.388 129.034C100.732 129.305 100.008 129.44 99.2166 129.44Z" fill="white"/>
<path d="M109.775 129.44C109.003 129.44 108.284 129.31 107.618 129.049C106.962 128.788 106.393 128.426 105.91 127.963C105.428 127.49 105.051 126.94 104.781 126.313C104.511 125.686 104.376 125 104.376 124.257C104.376 123.514 104.511 122.829 104.781 122.202C105.051 121.574 105.428 121.029 105.91 120.566C106.393 120.093 106.962 119.726 107.618 119.466C108.275 119.205 108.994 119.075 109.775 119.075C110.547 119.075 111.257 119.205 111.903 119.466C112.56 119.716 113.129 120.078 113.612 120.551C114.104 121.015 114.48 121.56 114.741 122.187C115.011 122.814 115.146 123.504 115.146 124.257C115.146 125.01 115.011 125.7 114.741 126.327C114.48 126.955 114.104 127.505 113.612 127.978C113.129 128.441 112.56 128.803 111.903 129.063C111.257 129.314 110.547 129.44 109.775 129.44ZM109.775 128.151C110.335 128.151 110.852 128.055 111.324 127.862C111.807 127.669 112.222 127.399 112.569 127.051C112.926 126.694 113.202 126.279 113.395 125.806C113.597 125.333 113.699 124.817 113.699 124.257C113.699 123.698 113.597 123.181 113.395 122.708C113.202 122.235 112.926 121.825 112.569 121.478C112.222 121.121 111.807 120.846 111.324 120.653C110.852 120.46 110.335 120.363 109.775 120.363C109.206 120.363 108.68 120.46 108.197 120.653C107.725 120.846 107.31 121.121 106.953 121.478C106.595 121.825 106.316 122.235 106.113 122.708C105.92 123.181 105.823 123.698 105.823 124.257C105.823 124.817 105.92 125.333 106.113 125.806C106.316 126.279 106.595 126.694 106.953 127.051C107.31 127.399 107.725 127.669 108.197 127.862C108.68 128.055 109.206 128.151 109.775 128.151Z" fill="white"/>
<path d="M117.625 129.324V119.191H118.812L123.357 126.849H122.72L127.208 119.191H128.395L128.41 129.324H127.02L127.005 121.376H127.338L123.343 128.094H122.677L118.653 121.376H119.014V129.324H117.625Z" fill="white"/>
<path d="M131.717 129.324V119.191H135.669C136.557 119.191 137.314 119.33 137.942 119.61C138.569 119.89 139.052 120.296 139.389 120.826C139.727 121.357 139.896 121.989 139.896 122.723C139.896 123.456 139.727 124.088 139.389 124.619C139.052 125.14 138.569 125.546 137.942 125.835C137.314 126.115 136.557 126.255 135.669 126.255H132.513L133.164 125.575V129.324H131.717ZM133.164 125.719L132.513 124.996H135.625C136.552 124.996 137.252 124.798 137.725 124.402C138.207 124.006 138.448 123.447 138.448 122.723C138.448 121.999 138.207 121.439 137.725 121.044C137.252 120.648 136.552 120.45 135.625 120.45H132.513L133.164 119.726V125.719Z" fill="white"/>
<path d="M140.245 129.324L144.834 119.191H146.267L150.871 129.324H149.351L145.254 120.001H145.833L141.736 129.324H140.245ZM142.2 126.791L142.59 125.633H148.294L148.714 126.791H142.2Z" fill="white"/>
<path d="M152.649 129.324V119.191H153.836L160.538 127.514H159.916V119.191H161.363V129.324H160.176L153.474 121H154.096V129.324H152.649Z" fill="white"/>
<path d="M167.109 129.324V125.444L167.442 126.342L163.084 119.191H164.633L168.296 125.227H167.456L171.133 119.191H172.567L168.224 126.342L168.542 125.444V129.324H167.109Z" fill="white"/>
<path d="M2.8291 129.505L7.41813 119.371H8.8513L13.4548 129.505H11.9348L7.83795 120.182H8.41701L4.32017 129.505H2.8291ZM4.78342 126.971L5.17428 125.813H10.878L11.2978 126.971H4.78342Z" fill="white"/>
<path d="M66.6038 119.075H69.3534V127.112H72.7374V129.65H66.7495C66.669 129.65 66.6038 129.585 66.6038 129.504V119.075Z" fill="white"/>
<path fill-rule="evenodd" clip-rule="evenodd" d="M32.3401 119.287H35.0897L38.8968 129.65H36.4619C36.2751 129.65 36.1104 129.528 36.0567 129.349L35.5127 127.535H32.1286L31.5845 129.349C31.5308 129.528 31.3661 129.65 31.1793 129.65H28.533L32.3401 119.287ZM33.8206 121.613L32.7631 125.42H34.8781L33.8206 121.613Z" fill="white"/>
<path fill-rule="evenodd" clip-rule="evenodd" d="M57.2976 119.287H60.0472L63.8543 129.65H61.4194C61.2326 129.65 61.0679 129.528 61.0142 129.349L60.4702 127.535H57.0861L56.542 129.349C56.4883 129.528 56.3236 129.65 56.1368 129.65H53.4905L57.2976 119.287ZM58.7781 121.613L57.7206 125.42H59.8356L58.7781 121.613Z" fill="white"/>
<path fill-rule="evenodd" clip-rule="evenodd" d="M82.4668 119.287H79.7172L75.9101 129.65H78.5565C78.7433 129.65 78.908 129.528 78.9617 129.349L79.5057 127.535H82.8898L83.4339 129.349C83.4876 129.528 83.6523 129.65 83.8391 129.65H86.2739L82.4668 119.287ZM80.1403 125.42L81.1978 121.613L82.2553 125.42H80.1403Z" fill="white"/>
<path d="M41.8577 119.287H44.6073V123.94L48.3707 119.34C48.3984 119.306 48.4397 119.287 48.4834 119.287H51.587L47.7799 124.151L51.587 129.65H48.489C48.4422 129.65 48.3982 129.628 48.3708 129.59L44.6073 124.363V129.65H41.8577V119.287Z" fill="white"/>
<path d="M22.8883 130.613V125.843L22.8882 128.262C22.6767 128.333 21.9576 128.39 21.6192 128.39C21.2808 128.39 20.5617 128.333 20.1387 128.262V130.613C20.1387 130.613 21.6193 130.826 22.8883 130.613C22.8883 130.613 22.8883 130.613 22.8883 130.613Z" fill="white"/>
<path d="M23.0337 130.613V128.262C23.0338 128.262 23.0338 128.262 23.0339 128.262V119.075H25.7835V127.408C25.7835 127.906 25.721 128.795 24.9798 129.544C24.8441 129.681 24.0977 130.433 23.0339 130.613C23.0338 130.613 23.0338 130.613 23.0337 130.613Z" fill="white"/>
<path d="M24.3952 132.291C24.4167 132.28 24.4425 132.28 24.464 132.291L25.1758 132.672L25.8618 133.098C25.8825 133.111 25.8954 133.133 25.8962 133.158L25.922 133.965L25.8962 134.772C25.8954 134.796 25.8825 134.818 25.8618 134.831L25.1758 135.257L24.464 135.638C24.4425 135.65 24.4167 135.65 24.3952 135.638L23.6834 135.257L22.9974 134.831C22.9767 134.818 22.9638 134.796 22.963 134.772L22.9372 133.965L22.963 133.158C22.9638 133.133 22.9767 133.111 22.9974 133.098L23.6834 132.672L24.3952 132.291Z" fill="white"/>
</svg>
