<svg width="528" height="278" viewBox="0 0 528 278" fill="none" xmlns="http://www.w3.org/2000/svg">
<rect width="528" height="278" fill="#24C347"/>
<path d="M323.328 154.488L321.911 154.029L322.804 151.938H324.871L323.328 154.488Z" fill="white"/>
<path d="M217.975 142.445C215.682 140.229 212.649 138.956 209.647 138.952H209.624C204.936 138.952 202.453 141.124 200.459 142.862C198.795 144.317 197.697 145.282 195.287 145.282H195.274C194.687 145.281 194.103 145.196 193.54 145.03C191.632 144.39 190.187 142.809 189.718 140.848C189.698 140.768 189.679 140.687 189.662 140.605C189.644 140.522 189.631 140.416 189.618 140.32C189.605 140.225 189.592 140.133 189.581 140.04C189.564 139.862 189.553 139.682 189.553 139.499C189.553 138.744 189.7 137.997 189.987 137.299C190.054 137.14 190.123 136.986 190.203 136.834C190.26 136.725 190.318 136.617 190.381 136.519C190.465 136.373 190.559 136.234 190.656 136.097C192.113 134.062 194.704 133.188 197.092 133.925C198.622 134.241 200.141 133.34 200.602 131.844C201.063 130.347 200.315 128.745 198.873 128.141C197.765 127.782 196.608 127.596 195.443 127.589C194.349 127.585 193.258 127.708 192.193 127.954C189.516 128.645 187.161 130.461 185.577 132.8C185.555 132.83 185.533 132.859 185.514 132.889C185.308 133.198 185.115 133.513 184.938 133.838L184.912 133.893C184.738 134.212 184.582 134.544 184.439 134.872C184.439 134.885 184.428 134.898 184.422 134.914C183.818 136.298 183.499 137.79 183.484 139.301C183.485 139.764 183.509 140.225 183.557 140.685C183.568 140.809 183.592 140.931 183.609 141.054C183.646 141.341 183.683 141.626 183.737 141.904L183.75 141.952C184.632 146.32 187.692 149.669 191.828 150.877C192.976 151.238 194.171 151.421 195.374 151.42C199.155 151.42 202.581 149.094 204.455 147.452C206.12 145.994 207.22 145.03 209.637 145.03H209.65C211.099 145.03 212.605 145.681 213.782 146.822C214.966 147.923 215.648 149.464 215.667 151.083C215.667 156.542 207.53 164.784 195.298 164.784H195.259C181.544 164.762 170.248 153.536 170.077 139.755C169.991 132.976 172.617 126.445 177.369 121.62C182.12 116.795 188.602 114.079 195.365 114.078H195.404C202.111 114.071 208.543 116.751 213.268 121.522C214.467 122.602 216.299 122.554 217.44 121.413C218.581 120.272 218.632 118.436 217.557 117.232C211.696 111.311 203.716 107.987 195.395 108H195.348C186.964 108 178.931 111.367 173.041 117.347C167.151 123.327 163.896 131.422 164.003 139.825C164.219 156.907 178.224 170.824 195.231 170.848H195.28C210.395 170.848 221.702 160.422 221.717 151.081C221.706 147.809 220.354 144.684 217.977 142.44" fill="white"/>
<path d="M234.513 160.169C234.51 159.545 234.617 158.926 234.827 158.34C235.027 157.778 235.337 157.261 235.738 156.819C236.143 156.38 236.634 156.026 237.179 155.781C237.777 155.515 238.427 155.383 239.081 155.394C239.935 155.37 240.777 155.596 241.504 156.046C242.155 156.461 242.674 157.053 243.001 157.753L240.834 158.457C240.314 157.509 239.144 157.134 238.171 157.604C237.895 157.739 237.65 157.93 237.452 158.166C237.238 158.423 237.075 158.717 236.971 159.035C236.852 159.398 236.793 159.778 236.797 160.16C236.793 160.543 236.854 160.924 236.979 161.285C237.089 161.605 237.254 161.903 237.467 162.165C237.663 162.405 237.908 162.6 238.186 162.736C238.459 162.872 238.759 162.942 239.064 162.941C239.453 162.942 239.835 162.832 240.165 162.623C240.472 162.444 240.718 162.174 240.867 161.85L243.034 162.552C242.729 163.264 242.215 163.865 241.56 164.277C240.822 164.737 239.964 164.97 239.094 164.946C238.44 164.955 237.791 164.823 237.192 164.559C236.646 164.312 236.156 163.956 235.753 163.512C235.351 163.065 235.039 162.545 234.834 161.981C234.62 161.401 234.512 160.787 234.513 160.169Z" fill="white"/>
<path d="M248.395 164.952C247.74 164.962 247.091 164.83 246.492 164.565C245.948 164.32 245.461 163.963 245.062 163.518C244.667 163.074 244.361 162.558 244.161 161.998C243.95 161.417 243.843 160.804 243.846 160.186C243.843 159.563 243.949 158.943 244.161 158.357C244.361 157.797 244.667 157.281 245.062 156.837C245.461 156.391 245.948 156.034 246.492 155.79C247.091 155.524 247.74 155.392 248.395 155.403C249.048 155.391 249.695 155.523 250.291 155.79C250.832 156.036 251.317 156.392 251.713 156.837C252.108 157.281 252.414 157.797 252.614 158.357C252.826 158.943 252.932 159.563 252.928 160.186C252.931 160.804 252.825 161.417 252.614 161.998C252.414 162.556 252.111 163.072 251.721 163.518C251.326 163.965 250.841 164.321 250.298 164.565C249.698 164.83 249.05 164.962 248.395 164.952ZM246.128 160.173C246.124 160.553 246.182 160.931 246.302 161.292C246.409 161.608 246.572 161.902 246.783 162.161C246.979 162.401 247.224 162.596 247.502 162.732C248.067 163.004 248.725 163.004 249.29 162.732C249.568 162.596 249.814 162.401 250.009 162.161C250.222 161.9 250.384 161.601 250.488 161.281C250.608 160.918 250.667 160.538 250.662 160.156C250.666 159.779 250.607 159.405 250.488 159.048C250.382 158.732 250.22 158.437 250.009 158.179C249.813 157.939 249.568 157.745 249.29 157.608C249.011 157.473 248.705 157.404 248.395 157.406C248.084 157.405 247.778 157.48 247.502 157.623C247.225 157.765 246.981 157.963 246.783 158.203C246.571 158.465 246.408 158.763 246.302 159.083C246.185 159.438 246.126 159.81 246.128 160.184V160.173Z" fill="white"/>
<path d="M262.476 164.778H260.259V159.606C260.259 158.867 260.138 158.328 259.895 157.988C259.667 157.656 259.287 157.463 258.885 157.477C258.652 157.48 258.422 157.528 258.207 157.618C257.971 157.716 257.752 157.849 257.557 158.014C257.346 158.191 257.159 158.396 257.002 158.622C256.835 158.856 256.712 159.118 256.638 159.395V164.778H254.419V155.561H256.419V157.267C256.738 156.682 257.222 156.205 257.81 155.896C258.442 155.56 259.148 155.391 259.862 155.403C260.324 155.382 260.782 155.492 261.184 155.72C261.516 155.921 261.791 156.205 261.979 156.545C262.174 156.908 262.305 157.301 262.367 157.707C262.439 158.143 262.476 158.584 262.476 159.026V164.778Z" fill="white"/>
<path d="M265.124 164.778V157.684H263.824V155.557H265.124V152.57H267.406V155.561H269.408V157.684H267.406V164.774L265.124 164.778Z" fill="white"/>
<path d="M275.844 157.601C275.219 157.601 274.603 157.742 274.041 158.013C273.53 158.259 273.124 158.681 272.899 159.201V164.778H270.682V155.561H272.721V157.531C272.869 157.226 273.052 156.94 273.267 156.677C273.469 156.437 273.697 156.218 273.945 156.026C274.17 155.848 274.418 155.702 274.682 155.591C274.91 155.496 275.154 155.445 275.402 155.441H275.675C275.733 155.441 275.791 155.447 275.848 155.459L275.844 157.601Z" fill="white"/>
<path d="M280.659 164.953C280.089 164.959 279.526 164.832 279.014 164.583C278.514 164.338 278.071 163.991 277.714 163.562C277.34 163.112 277.052 162.596 276.862 162.042C276.655 161.439 276.552 160.805 276.557 160.167C276.552 159.531 276.652 158.898 276.854 158.295C277.035 157.744 277.313 157.229 277.673 156.774C278.009 156.355 278.429 156.011 278.906 155.764C279.381 155.517 279.909 155.39 280.444 155.395C281.056 155.385 281.658 155.553 282.178 155.877C282.683 156.198 283.095 156.648 283.37 157.18V155.66H285.586V164.755H283.374V163.258C283.115 163.754 282.737 164.177 282.273 164.49C281.793 164.801 281.231 164.962 280.659 164.953ZM283.374 159.218C283.194 158.711 282.882 158.261 282.47 157.915C282.102 157.592 281.629 157.414 281.14 157.413C280.818 157.41 280.501 157.492 280.221 157.65C279.938 157.809 279.69 158.025 279.493 158.284C279.285 158.554 279.126 158.857 279.021 159.181C278.91 159.518 278.854 159.871 278.856 160.226C278.854 160.588 278.913 160.948 279.029 161.29C279.137 161.608 279.302 161.902 279.517 162.159C279.724 162.404 279.981 162.602 280.271 162.739C280.567 162.883 280.893 162.957 281.222 162.956C281.686 162.967 282.139 162.818 282.505 162.533C282.878 162.231 283.175 161.846 283.372 161.408L283.374 159.218Z" fill="white"/>
<path d="M295.583 164.954C294.935 164.963 294.292 164.835 293.697 164.576C293.152 164.337 292.662 163.986 292.258 163.547C291.856 163.105 291.544 162.588 291.34 162.026C291.124 161.446 291.015 160.831 291.017 160.212C291.012 159.58 291.119 158.952 291.331 158.357C291.533 157.796 291.842 157.279 292.241 156.837C292.646 156.391 293.139 156.034 293.689 155.79C294.291 155.524 294.942 155.393 295.6 155.403C296.252 155.391 296.898 155.523 297.494 155.79C298.034 156.035 298.518 156.389 298.918 156.828C299.314 157.27 299.617 157.787 299.81 158.349C300.014 158.925 300.118 159.532 300.116 160.143C300.116 160.295 300.116 160.443 300.116 160.577C300.112 160.696 300.099 160.813 300.075 160.929H293.366C293.391 161.264 293.476 161.592 293.615 161.898C293.74 162.168 293.913 162.412 294.126 162.619C294.543 163.014 295.094 163.234 295.667 163.234C296.106 163.234 296.537 163.115 296.915 162.891C297.281 162.693 297.564 162.372 297.717 161.985L299.62 162.547C299.291 163.265 298.759 163.869 298.09 164.285C297.337 164.748 296.465 164.981 295.583 164.954ZM297.834 159.396C297.809 158.771 297.552 158.179 297.115 157.734C296.482 157.119 295.546 156.939 294.731 157.275C294.474 157.386 294.241 157.544 294.044 157.743C293.839 157.951 293.674 158.196 293.556 158.464C293.428 158.758 293.354 159.074 293.34 159.396H297.834Z" fill="white"/>
<path d="M301.507 151.938H303.724V164.777H301.507V151.938Z" fill="white"/>
<path d="M309.217 160.167C309.213 159.543 309.319 158.924 309.531 158.338C309.73 157.775 310.04 157.258 310.441 156.817C310.846 156.377 311.336 156.024 311.88 155.779C312.479 155.514 313.128 155.382 313.783 155.392C314.637 155.367 315.48 155.594 316.208 156.044C316.858 156.46 317.377 157.052 317.705 157.752L315.538 158.455C315.018 157.507 313.848 157.132 312.875 157.602C312.599 157.737 312.354 157.929 312.155 158.164C311.942 158.421 311.78 158.716 311.677 159.033C311.556 159.396 311.497 159.776 311.501 160.158C311.496 160.541 311.558 160.922 311.683 161.284C311.792 161.604 311.958 161.902 312.173 162.163C312.369 162.404 312.614 162.598 312.892 162.735C313.162 162.869 313.458 162.939 313.759 162.939C314.149 162.941 314.531 162.831 314.86 162.622C315.168 162.443 315.414 162.172 315.564 161.848L317.731 162.55C317.427 163.262 316.913 163.864 316.258 164.275C315.52 164.736 314.663 164.968 313.794 164.944C313.139 164.953 312.49 164.822 311.891 164.557C311.345 164.31 310.854 163.954 310.45 163.51C310.049 163.063 309.738 162.543 309.533 161.979C309.32 161.399 309.213 160.785 309.217 160.167Z" fill="white"/>
<path d="M322.667 164.953C322.098 164.959 321.535 164.832 321.023 164.583C320.523 164.338 320.08 163.991 319.723 163.562C319.349 163.112 319.06 162.596 318.871 162.042C318.664 161.439 318.56 160.805 318.565 160.167C318.561 159.531 318.661 158.898 318.862 158.295C319.044 157.744 319.321 157.229 319.681 156.774C320.018 156.356 320.438 156.012 320.914 155.764C321.39 155.517 321.918 155.39 322.453 155.395C323.065 155.385 323.667 155.553 324.186 155.877C324.692 156.198 325.103 156.648 325.378 157.18V155.66H327.595V164.755H325.378V163.258C325.119 163.754 324.741 164.177 324.277 164.49C323.798 164.801 323.238 164.962 322.667 164.953ZM325.378 159.218C325.198 158.711 324.886 158.261 324.475 157.915C324.106 157.592 323.633 157.414 323.144 157.413C322.823 157.41 322.506 157.492 322.225 157.65C321.942 157.809 321.694 158.025 321.497 158.284C321.29 158.554 321.13 158.857 321.025 159.181C320.915 159.518 320.86 159.871 320.86 160.226C320.858 160.588 320.917 160.948 321.034 161.29C321.141 161.608 321.307 161.903 321.523 162.159C321.729 162.405 321.986 162.603 322.275 162.739C322.572 162.883 322.897 162.957 323.227 162.956C323.69 162.967 324.143 162.818 324.509 162.533C324.883 162.231 325.18 161.846 325.376 161.408L325.378 159.218Z" fill="white"/>
<path d="M337.658 164.778H335.442V159.606C335.442 158.867 335.32 158.328 335.078 157.988C334.85 157.656 334.469 157.463 334.068 157.477C333.835 157.48 333.604 157.528 333.39 157.618C333.154 157.716 332.935 157.849 332.739 158.014C332.53 158.192 332.344 158.396 332.187 158.622C332.02 158.856 331.897 159.118 331.823 159.395V164.778H329.602V155.561H331.602V157.267C331.921 156.682 332.405 156.205 332.993 155.896C333.624 155.56 334.33 155.391 335.045 155.403C335.507 155.382 335.965 155.492 336.367 155.72C336.699 155.921 336.973 156.205 337.162 156.545C337.356 156.908 337.488 157.301 337.55 157.707C337.622 158.143 337.658 158.584 337.658 159.026V164.778Z" fill="white"/>
<path d="M339.047 160.169C339.045 159.545 339.151 158.926 339.362 158.34C339.562 157.778 339.871 157.261 340.272 156.819C340.678 156.38 341.168 156.026 341.713 155.781C342.312 155.515 342.961 155.383 343.615 155.394C344.469 155.37 345.311 155.596 346.038 156.046C346.689 156.461 347.208 157.053 347.535 157.753L345.369 158.457C344.846 157.516 343.683 157.145 342.714 157.61C342.438 157.745 342.193 157.937 341.995 158.173C341.781 158.429 341.617 158.724 341.513 159.042C341.395 159.405 341.336 159.785 341.34 160.167C341.335 160.55 341.397 160.93 341.522 161.292C341.632 161.612 341.797 161.91 342.01 162.172C342.201 162.411 342.441 162.607 342.714 162.745C342.987 162.881 343.287 162.951 343.592 162.949C343.981 162.951 344.363 162.841 344.692 162.632C345 162.453 345.245 162.183 345.395 161.859L347.561 162.56C347.257 163.272 346.743 163.874 346.088 164.285C345.349 164.746 344.492 164.979 343.622 164.954C342.967 164.964 342.318 164.832 341.719 164.568C341.174 164.321 340.684 163.964 340.28 163.521C339.88 163.073 339.568 162.554 339.362 161.989C339.149 161.406 339.043 160.79 339.047 160.169Z" fill="white"/>
<path d="M352.946 164.954C352.298 164.964 351.656 164.835 351.061 164.576C350.515 164.336 350.025 163.986 349.62 163.547C349.219 163.104 348.908 162.588 348.703 162.026C348.487 161.446 348.377 160.832 348.38 160.212C348.376 159.58 348.482 158.952 348.695 158.357C348.895 157.795 349.204 157.278 349.605 156.837C350.01 156.391 350.503 156.034 351.052 155.79C351.654 155.524 352.306 155.393 352.964 155.403C353.616 155.392 354.262 155.524 354.858 155.79C355.397 156.035 355.882 156.389 356.281 156.828C356.677 157.27 356.98 157.787 357.174 158.349C357.378 158.925 357.481 159.532 357.48 160.143C357.48 160.295 357.48 160.443 357.48 160.577C357.477 160.696 357.463 160.813 357.438 160.929H350.732C350.757 161.264 350.84 161.592 350.979 161.898C351.104 162.168 351.278 162.412 351.492 162.619C351.697 162.816 351.939 162.971 352.203 163.075C352.466 163.181 352.747 163.235 353.031 163.234C353.471 163.234 353.903 163.115 354.281 162.891C354.646 162.692 354.93 162.372 355.083 161.985L356.985 162.547C356.656 163.264 356.124 163.868 355.456 164.285C354.702 164.749 353.83 164.981 352.946 164.954ZM355.198 159.396C355.172 158.771 354.914 158.179 354.476 157.734C354.067 157.323 353.508 157.097 352.929 157.108C352.642 157.106 352.358 157.163 352.095 157.275C351.838 157.386 351.605 157.544 351.408 157.742C351.202 157.951 351.037 158.195 350.92 158.464C350.792 158.758 350.718 159.074 350.703 159.396H355.198Z" fill="white"/>
<path d="M364 157.6C363.375 157.601 362.758 157.742 362.195 158.013C361.684 158.258 361.279 158.68 361.053 159.201V164.777H358.836V155.56H360.871V157.531C361.156 156.935 361.576 156.415 362.097 156.01C362.321 155.832 362.568 155.686 362.832 155.576C363.06 155.48 363.304 155.429 363.551 155.426H363.824C363.883 155.426 363.942 155.432 364 155.443V157.6Z" fill="white"/>
<path d="M239.081 146.033C238.432 146.042 237.789 145.914 237.194 145.655C236.648 145.415 236.159 145.065 235.755 144.625C235.352 144.184 235.04 143.667 234.836 143.105C234.62 142.526 234.511 141.912 234.513 141.293C234.51 140.661 234.616 140.034 234.827 139.438C235.028 138.873 235.337 138.353 235.738 137.907C236.143 137.462 236.636 137.106 237.185 136.86C237.787 136.596 238.439 136.464 239.096 136.473C239.749 136.463 240.396 136.595 240.992 136.86C241.532 137.106 242.015 137.459 242.414 137.898C242.81 138.34 243.113 138.857 243.307 139.419C243.512 139.994 243.617 140.602 243.615 141.213C243.615 141.367 243.615 141.513 243.615 141.647C243.611 141.766 243.597 141.883 243.573 141.999H236.864C236.889 142.334 236.973 142.661 237.111 142.966C237.233 143.238 237.404 143.485 237.616 143.694C237.822 143.891 238.063 144.046 238.327 144.152C238.591 144.257 238.871 144.311 239.155 144.311C239.594 144.311 240.025 144.192 240.403 143.967C240.768 143.768 241.052 143.448 241.207 143.062L243.11 143.624C242.781 144.342 242.248 144.947 241.578 145.362C240.828 145.824 239.961 146.057 239.081 146.033ZM241.331 140.474C241.305 139.85 241.049 139.258 240.611 138.813C240.201 138.403 239.643 138.178 239.064 138.189C238.777 138.187 238.492 138.244 238.227 138.357C237.971 138.465 237.739 138.623 237.543 138.821C237.338 139.03 237.172 139.275 237.053 139.543C236.926 139.838 236.852 140.153 236.836 140.474H241.331Z" fill="white"/>
<path d="M248.247 146.032C247.52 146.032 246.798 145.907 246.113 145.663C245.451 145.438 244.843 145.078 244.325 144.607L245.153 143.13C245.627 143.498 246.147 143.803 246.7 144.036C247.174 144.236 247.683 144.341 248.198 144.344C248.564 144.364 248.927 144.272 249.24 144.079C249.488 143.91 249.632 143.624 249.619 143.324C249.632 143.014 249.455 142.728 249.173 142.602C248.703 142.386 248.216 142.21 247.716 142.075C247.155 141.912 246.674 141.753 246.278 141.601C245.934 141.477 245.61 141.302 245.318 141.082C245.089 140.906 244.908 140.676 244.789 140.413C244.672 140.126 244.616 139.817 244.624 139.507C244.617 139.071 244.704 138.639 244.88 138.241C245.045 137.871 245.291 137.544 245.599 137.283C245.918 137.012 246.286 136.805 246.683 136.674C247.117 136.529 247.573 136.456 248.031 136.457C248.653 136.452 249.271 136.554 249.86 136.757C250.443 136.966 250.976 137.295 251.424 137.724L250.529 139.149C250.143 138.828 249.711 138.568 249.249 138.375C248.857 138.216 248.44 138.134 248.018 138.132C247.686 138.12 247.358 138.206 247.075 138.38C246.815 138.555 246.669 138.857 246.694 139.17C246.688 139.311 246.719 139.45 246.785 139.574C246.856 139.692 246.956 139.789 247.075 139.857C247.236 139.951 247.407 140.028 247.584 140.087C247.801 140.163 248.068 140.243 248.386 140.326C248.982 140.489 249.493 140.654 249.918 140.817C250.291 140.953 250.642 141.143 250.96 141.379C251.213 141.572 251.418 141.822 251.556 142.109C251.689 142.424 251.754 142.763 251.745 143.104C251.782 143.925 251.433 144.716 250.802 145.242C250.18 145.769 249.328 146.032 248.247 146.032Z" fill="white"/>
<path d="M258.389 146.032C257.759 146.048 257.139 145.879 256.603 145.548C256.096 145.229 255.684 144.779 255.411 144.245V149.61H253.195V136.64H255.13V138.223C255.432 137.702 255.859 137.264 256.371 136.948C256.901 136.631 257.508 136.469 258.124 136.481C258.687 136.476 259.243 136.605 259.745 136.859C260.238 137.108 260.675 137.455 261.028 137.88C261.399 138.331 261.684 138.847 261.871 139.401C262.078 139.992 262.182 140.614 262.179 141.24C262.183 141.878 262.088 142.513 261.897 143.121C261.726 143.671 261.459 144.185 261.111 144.642C260.789 145.064 260.38 145.413 259.912 145.663C259.443 145.91 258.919 146.037 258.389 146.032ZM257.646 144.027C257.964 144.033 258.28 143.959 258.562 143.81C258.844 143.658 259.09 143.448 259.284 143.193C259.488 142.923 259.644 142.619 259.745 142.296C259.856 141.956 259.913 141.6 259.912 141.243C259.916 140.873 259.855 140.505 259.73 140.156C259.617 139.838 259.446 139.543 259.225 139.288C259.014 139.044 258.755 138.847 258.465 138.708C258.168 138.563 257.841 138.489 257.511 138.49C257.29 138.492 257.07 138.531 256.861 138.605C256.641 138.681 256.434 138.791 256.248 138.931C256.06 139.073 255.89 139.238 255.743 139.422C255.596 139.607 255.482 139.816 255.405 140.039V142.211C255.59 142.718 255.904 143.167 256.315 143.515C256.681 143.842 257.155 144.025 257.646 144.027Z" fill="white"/>
<path d="M267.258 146.035C266.688 146.04 266.125 145.914 265.611 145.666C265.11 145.422 264.667 145.074 264.311 144.645C263.936 144.194 263.647 143.679 263.457 143.124C263.25 142.522 263.147 141.889 263.152 141.252C263.147 140.614 263.248 139.981 263.451 139.377C263.63 138.825 263.907 138.31 264.268 137.856C264.605 137.438 265.025 137.093 265.501 136.844C265.976 136.598 266.504 136.472 267.039 136.475C267.652 136.466 268.254 136.634 268.773 136.959C269.279 137.279 269.691 137.729 269.965 138.263V136.742H272.181V145.835H269.971V144.341C269.712 144.836 269.334 145.26 268.87 145.572C268.391 145.884 267.829 146.045 267.258 146.035ZM269.971 140.307C269.792 139.8 269.481 139.35 269.07 139.003C268.7 138.681 268.227 138.503 267.737 138.502C267.415 138.5 267.098 138.582 266.818 138.741C266.536 138.901 266.289 139.116 266.09 139.373C265.884 139.643 265.725 139.946 265.62 140.27C265.509 140.608 265.452 140.961 265.453 141.317C265.451 141.679 265.51 142.039 265.629 142.381C265.735 142.699 265.901 142.994 266.116 143.25C266.323 143.494 266.579 143.692 266.868 143.83C267.165 143.974 267.49 144.048 267.819 144.047C268.283 144.058 268.735 143.909 269.102 143.626C269.475 143.323 269.772 142.937 269.969 142.498L269.971 140.307Z" fill="white"/>
<path d="M282.256 145.857H280.03V140.685C280.03 139.947 279.909 139.408 279.666 139.069C279.439 138.736 279.058 138.544 278.656 138.559C278.423 138.561 278.193 138.609 277.978 138.7C277.743 138.797 277.523 138.931 277.328 139.095C277.117 139.272 276.931 139.475 276.773 139.701C276.609 139.936 276.486 140.198 276.409 140.475V145.857H274.19V136.641H276.188V138.35C276.506 137.765 276.989 137.287 277.577 136.977C278.209 136.643 278.915 136.473 279.629 136.484C280.092 136.465 280.55 136.575 280.953 136.801C281.286 137.002 281.56 137.288 281.747 137.629C281.943 137.99 282.075 138.383 282.137 138.789C282.208 139.225 282.243 139.666 282.243 140.107L282.256 145.857ZM279.46 135.27C279.238 135.274 279.016 135.232 278.81 135.146C278.623 135.069 278.442 134.978 278.269 134.875C278.108 134.777 277.948 134.686 277.79 134.603C277.634 134.521 277.461 134.479 277.285 134.479C277.131 134.471 276.978 134.515 276.851 134.603C276.753 134.678 276.672 134.774 276.613 134.883C276.562 134.973 276.528 135.072 276.513 135.174C276.502 135.261 276.496 135.311 276.496 135.324H275.272C275.284 135.142 275.318 134.962 275.371 134.788C275.444 134.522 275.552 134.268 275.694 134.032C275.849 133.773 276.051 133.546 276.29 133.363C276.554 133.164 276.879 133.061 277.209 133.072C277.433 133.067 277.655 133.112 277.859 133.204C278.035 133.289 278.206 133.384 278.373 133.487C278.533 133.586 278.691 133.68 278.851 133.767C279.016 133.857 279.201 133.902 279.389 133.899C279.555 133.908 279.721 133.865 279.861 133.775C279.969 133.703 280.06 133.607 280.126 133.495C280.181 133.403 280.221 133.301 280.243 133.195C280.254 133.137 280.262 133.079 280.266 133.02H281.491C281.475 133.187 281.442 133.352 281.391 133.513C281.316 133.78 281.203 134.035 281.053 134.269C280.885 134.535 280.672 134.77 280.425 134.964C280.145 135.175 279.802 135.283 279.452 135.27H279.46Z" fill="white"/>
<path d="M288.187 146.034C287.532 146.045 286.883 145.913 286.284 145.647C285.739 145.403 285.252 145.046 284.854 144.6C284.459 144.156 284.153 143.64 283.952 143.08C283.533 141.903 283.533 140.616 283.952 139.439C284.153 138.879 284.459 138.363 284.854 137.919C285.253 137.474 285.74 137.117 286.284 136.872C286.883 136.607 287.532 136.475 288.187 136.485C288.839 136.474 289.486 136.606 290.083 136.872C290.624 137.118 291.108 137.475 291.504 137.919C291.899 138.363 292.205 138.879 292.406 139.439C292.828 140.616 292.828 141.903 292.406 143.08C292.206 143.638 291.903 144.154 291.513 144.6C291.118 145.047 290.633 145.404 290.089 145.647C289.491 145.913 288.841 146.045 288.187 146.034ZM285.92 141.268C285.915 141.648 285.974 142.025 286.096 142.385C286.202 142.701 286.364 142.995 286.574 143.254C286.771 143.493 287.016 143.688 287.294 143.825C287.859 144.094 288.516 144.094 289.082 143.825C289.359 143.688 289.605 143.493 289.801 143.254C290.013 142.992 290.175 142.694 290.28 142.374C290.4 142.011 290.458 141.631 290.453 141.249C290.458 140.872 290.399 140.498 290.28 140.141C290.176 139.82 290.014 139.522 289.801 139.261C289.605 139.021 289.36 138.825 289.082 138.688C288.803 138.552 288.496 138.483 288.187 138.486C287.876 138.485 287.57 138.56 287.294 138.703C287.016 138.844 286.771 139.041 286.574 139.283C286.362 139.544 286.199 139.842 286.096 140.162C285.976 140.519 285.917 140.892 285.92 141.268Z" fill="white"/>
<path d="M294.243 133.018H296.46V145.857H294.243V133.018Z" fill="white"/>
<path d="M302.103 146.035C301.533 146.04 300.969 145.914 300.456 145.666C299.955 145.421 299.512 145.073 299.156 144.645C298.783 144.193 298.494 143.678 298.304 143.124C298.097 142.522 297.994 141.889 297.999 141.252C297.994 140.615 298.094 139.981 298.296 139.377C298.477 138.826 298.754 138.311 299.115 137.856C299.452 137.438 299.872 137.093 300.348 136.844C300.823 136.598 301.351 136.472 301.886 136.475C302.499 136.466 303.101 136.634 303.62 136.959C304.126 137.279 304.538 137.729 304.812 138.263V136.742H307.028V145.835H304.816V144.341C304.557 144.836 304.179 145.26 303.715 145.572C303.236 145.884 302.674 146.045 302.103 146.035ZM304.816 140.307C304.636 139.8 304.325 139.35 303.915 139.003C303.545 138.681 303.072 138.503 302.582 138.502C302.26 138.5 301.943 138.582 301.663 138.741C301.38 138.9 301.133 139.115 300.935 139.373C300.728 139.642 300.569 139.946 300.465 140.27C300.353 140.608 300.297 140.961 300.298 141.317C300.296 141.679 300.355 142.039 300.473 142.381C300.58 142.699 300.745 142.994 300.961 143.25C301.168 143.494 301.424 143.692 301.713 143.83C302.009 143.974 302.335 144.048 302.664 144.047C303.127 144.058 303.58 143.909 303.947 143.626C304.32 143.323 304.617 142.937 304.814 142.498L304.816 140.307Z" fill="white"/>
<path d="M238.635 127.089C238.065 127.095 237.501 126.968 236.988 126.72C236.488 126.475 236.045 126.127 235.688 125.699C235.314 125.248 235.025 124.733 234.836 124.178C234.629 123.576 234.525 122.943 234.53 122.306C234.526 121.67 234.626 121.037 234.827 120.434C235.009 119.882 235.287 119.368 235.646 118.913C235.983 118.494 236.403 118.15 236.879 117.903C237.355 117.656 237.883 117.529 238.418 117.534C239.03 117.524 239.632 117.691 240.152 118.016C240.657 118.337 241.068 118.786 241.343 119.319V117.799H243.56V126.894H241.348V125.397C241.089 125.893 240.71 126.316 240.247 126.629C239.767 126.939 239.206 127.1 238.635 127.089ZM241.348 121.355C241.168 120.848 240.857 120.398 240.446 120.051C240.077 119.729 239.604 119.551 239.114 119.549C238.792 119.547 238.475 119.628 238.195 119.786C237.912 119.946 237.664 120.162 237.467 120.42C237.259 120.69 237.1 120.993 236.996 121.318C236.885 121.655 236.829 122.007 236.83 122.362C236.828 122.724 236.886 123.084 237.003 123.427C237.111 123.745 237.277 124.039 237.493 124.296C237.698 124.544 237.954 124.744 238.245 124.882C238.541 125.026 238.867 125.1 239.196 125.099C239.661 125.107 240.114 124.954 240.479 124.665C240.852 124.364 241.149 123.978 241.346 123.54L241.348 121.355Z" fill="white"/>
<path d="M248.843 127.089C248.116 127.089 247.394 126.964 246.709 126.72C246.048 126.493 245.44 126.133 244.921 125.664L245.749 124.187C246.224 124.553 246.744 124.858 247.296 125.093C247.771 125.291 248.279 125.395 248.794 125.399C249.16 125.419 249.523 125.327 249.836 125.136C250.084 124.967 250.228 124.681 250.215 124.38C250.228 124.071 250.051 123.785 249.769 123.659C249.299 123.443 248.812 123.266 248.312 123.131C247.751 122.966 247.27 122.807 246.874 122.655C246.529 122.532 246.206 122.357 245.914 122.136C245.685 121.961 245.504 121.732 245.385 121.469C245.268 121.182 245.211 120.874 245.218 120.564C245.211 120.128 245.299 119.696 245.476 119.297C245.642 118.928 245.888 118.6 246.195 118.337C246.515 118.068 246.883 117.862 247.279 117.731C247.713 117.585 248.169 117.511 248.627 117.514C249.249 117.509 249.867 117.61 250.456 117.811C251.039 118.021 251.572 118.351 252.02 118.78L251.125 120.205C250.738 119.886 250.307 119.624 249.845 119.43C249.453 119.271 249.034 119.188 248.612 119.184C248.28 119.173 247.951 119.258 247.667 119.43C247.406 119.606 247.261 119.909 247.288 120.223C247.282 120.363 247.314 120.502 247.379 120.627C247.45 120.743 247.549 120.839 247.667 120.907C247.832 121.004 248.007 121.084 248.189 121.146C248.406 121.222 248.672 121.3 248.991 121.383C249.587 121.548 250.098 121.711 250.523 121.876C250.896 122.012 251.247 122.201 251.565 122.438C251.819 122.63 252.023 122.881 252.161 123.168C252.294 123.482 252.358 123.82 252.35 124.161C252.386 124.982 252.037 125.773 251.407 126.298C250.779 126.827 249.924 127.09 248.843 127.089Z" fill="white"/>
<path d="M257.793 127.089C257.138 127.099 256.489 126.967 255.89 126.702C255.346 126.457 254.859 126.1 254.46 125.655C254.065 125.211 253.759 124.695 253.559 124.135C253.348 123.554 253.241 122.941 253.244 122.323C253.24 121.699 253.347 121.08 253.559 120.494C253.759 119.934 254.065 119.417 254.46 118.973C254.858 118.528 255.346 118.171 255.89 117.926C256.489 117.661 257.138 117.529 257.793 117.54C258.446 117.528 259.093 117.66 259.689 117.926C260.23 118.172 260.715 118.529 261.111 118.973C261.506 119.417 261.812 119.934 262.012 120.494C262.224 121.08 262.33 121.699 262.326 122.323C262.329 122.941 262.223 123.554 262.012 124.135C261.812 124.693 261.509 125.209 261.119 125.655C260.724 126.101 260.239 126.458 259.696 126.702C259.096 126.967 258.447 127.099 257.793 127.089ZM255.526 122.321C255.522 122.7 255.58 123.077 255.7 123.437C255.807 123.753 255.97 124.048 256.181 124.306C256.377 124.548 256.623 124.745 256.902 124.882C257.467 125.154 258.125 125.154 258.69 124.882C258.968 124.746 259.214 124.551 259.409 124.311C259.622 124.05 259.784 123.751 259.888 123.431C260.008 123.068 260.067 122.688 260.062 122.306C260.066 121.929 260.007 121.555 259.888 121.198C259.784 120.878 259.622 120.579 259.409 120.318C259.213 120.078 258.968 119.883 258.69 119.747C258.411 119.612 258.105 119.542 257.795 119.545C257.484 119.544 257.178 119.619 256.902 119.762C256.626 119.904 256.381 120.101 256.183 120.342C255.971 120.604 255.808 120.902 255.702 121.222C255.584 121.576 255.525 121.947 255.526 122.321Z" fill="white"/>
<path d="M263.269 122.304C263.266 121.68 263.373 121.061 263.585 120.475C263.99 119.342 264.838 118.423 265.934 117.931C266.533 117.666 267.182 117.534 267.837 117.545C268.691 117.52 269.534 117.747 270.262 118.196C270.911 118.612 271.43 119.204 271.757 119.904L269.59 120.608C269.069 119.659 267.9 119.284 266.927 119.754C266.65 119.889 266.405 120.081 266.207 120.317C265.994 120.573 265.831 120.868 265.726 121.185C265.607 121.548 265.549 121.929 265.553 122.311C265.548 122.693 265.61 123.074 265.735 123.436C265.844 123.756 266.009 124.053 266.222 124.316C266.419 124.556 266.665 124.751 266.944 124.887C267.213 125.021 267.51 125.091 267.811 125.091C268.2 125.093 268.582 124.983 268.912 124.774C269.219 124.594 269.465 124.324 269.616 124.001L271.783 124.702C271.478 125.414 270.964 126.016 270.309 126.427C269.571 126.888 268.714 127.121 267.845 127.096C267.191 127.106 266.542 126.974 265.943 126.709C265.396 126.462 264.906 126.106 264.502 125.662C264.102 125.215 263.79 124.695 263.585 124.131C263.37 123.546 263.263 122.927 263.269 122.304Z" fill="white"/>
<path d="M273.154 116.412V114.074H275.365V116.412H273.154ZM273.154 126.914V117.697H275.365V126.914H273.154Z" fill="white"/>
<path d="M280.94 127.089C280.371 127.095 279.807 126.968 279.294 126.72C278.794 126.475 278.351 126.127 277.993 125.699C277.62 125.248 277.331 124.733 277.142 124.178C276.933 123.576 276.83 122.943 276.836 122.306C276.83 121.67 276.931 121.037 277.133 120.433C277.315 119.882 277.592 119.368 277.952 118.913C278.289 118.494 278.709 118.15 279.185 117.903C279.66 117.656 280.189 117.529 280.724 117.534C281.336 117.524 281.938 117.692 282.457 118.016C282.963 118.336 283.374 118.786 283.647 119.319V117.799H285.864V126.894H283.654V125.397C283.396 125.893 283.018 126.317 282.555 126.629C282.074 126.939 281.512 127.099 280.94 127.089ZM283.654 121.354C283.475 120.847 283.164 120.396 282.752 120.051C282.383 119.729 281.911 119.551 281.422 119.549C281.1 119.547 280.783 119.628 280.503 119.786C280.219 119.946 279.972 120.161 279.775 120.42C279.567 120.69 279.407 120.994 279.302 121.318C279.191 121.655 279.136 122.007 279.138 122.362C279.136 122.724 279.194 123.084 279.311 123.427C279.418 123.744 279.583 124.039 279.798 124.296C280.006 124.541 280.263 124.739 280.553 124.876C280.849 125.02 281.174 125.094 281.504 125.093C281.968 125.101 282.421 124.947 282.785 124.658C283.158 124.357 283.455 123.972 283.651 123.533L283.654 121.354Z" fill="white"/>
<path d="M287.327 122.304C287.324 121.681 287.43 121.062 287.641 120.475C287.841 119.913 288.15 119.396 288.551 118.955C288.958 118.52 289.448 118.172 289.992 117.931C290.591 117.666 291.24 117.534 291.894 117.545C292.748 117.52 293.59 117.747 294.317 118.196C294.968 118.611 295.487 119.204 295.814 119.904L293.648 120.608C293.127 119.659 291.957 119.284 290.984 119.754C290.707 119.888 290.462 120.08 290.265 120.317C290.051 120.573 289.888 120.868 289.784 121.185C289.665 121.548 289.606 121.929 289.61 122.311C289.606 122.693 289.667 123.074 289.792 123.436C289.902 123.756 290.067 124.053 290.28 124.316C290.476 124.556 290.721 124.751 290.999 124.887C291.269 125.021 291.565 125.091 291.866 125.091C292.256 125.093 292.638 124.983 292.967 124.774C293.275 124.594 293.52 124.324 293.669 124.001L295.836 124.702C295.531 125.414 295.017 126.016 294.363 126.427C293.624 126.888 292.766 127.12 291.897 127.096C291.242 127.106 290.593 126.974 289.994 126.709C289.448 126.462 288.959 126.106 288.555 125.662C288.154 125.215 287.842 124.695 287.636 124.131C287.425 123.546 287.32 122.927 287.327 122.304Z" fill="white"/>
<path d="M296.874 116.412V114.074H299.091V116.412H296.874ZM296.874 126.914V117.697H299.091V126.914H296.874Z" fill="white"/>
<path d="M305.098 127.09C304.443 127.099 303.794 126.968 303.195 126.703C302.65 126.457 302.162 126.101 301.763 125.656C301.368 125.211 301.062 124.695 300.861 124.135C300.65 123.555 300.544 122.942 300.547 122.324C300.543 121.7 300.649 121.081 300.861 120.495C301.062 119.935 301.368 119.419 301.763 118.974C302.162 118.529 302.65 118.172 303.195 117.927C303.794 117.661 304.443 117.53 305.098 117.541C305.75 117.529 306.396 117.661 306.992 117.927C307.533 118.174 308.018 118.53 308.415 118.974C308.809 119.419 309.115 119.935 309.317 120.495C309.528 121.081 309.634 121.7 309.631 122.324C309.633 122.941 309.527 123.555 309.317 124.135C309.116 124.694 308.813 125.21 308.422 125.656C308.027 126.102 307.543 126.458 307 126.703C306.401 126.968 305.752 127.099 305.098 127.09ZM302.842 122.322C302.836 122.701 302.895 123.079 303.015 123.438C303.121 123.755 303.283 124.049 303.494 124.307C303.69 124.547 303.935 124.742 304.214 124.878C304.779 125.151 305.436 125.151 306.001 124.878C306.279 124.742 306.525 124.547 306.721 124.307C306.933 124.046 307.096 123.747 307.202 123.427C307.321 123.064 307.379 122.684 307.375 122.302C307.378 121.926 307.32 121.552 307.202 121.194C307.096 120.874 306.933 120.576 306.721 120.315C306.524 120.075 306.279 119.88 306.001 119.743C305.723 119.608 305.418 119.539 305.109 119.541C304.797 119.541 304.49 119.615 304.214 119.758C303.937 119.901 303.692 120.098 303.494 120.338C303.282 120.6 303.12 120.898 303.015 121.218C302.897 121.574 302.838 121.947 302.842 122.322ZM305.659 116.628L304.237 116.17L305.13 114.078H307.197L305.659 116.628Z" fill="white"/>
<path d="M319.176 126.913H316.96V121.741C316.96 121.002 316.838 120.463 316.596 120.122C316.368 119.79 315.987 119.598 315.586 119.612C315.353 119.615 315.122 119.663 314.907 119.753C314.672 119.851 314.453 119.984 314.257 120.148C314.047 120.326 313.861 120.531 313.703 120.757C313.538 120.991 313.414 121.253 313.339 121.53V126.913H311.12V117.696H313.122V119.401C313.439 118.817 313.923 118.339 314.511 118.031C315.142 117.695 315.848 117.526 316.563 117.537C317.025 117.517 317.484 117.627 317.887 117.855C318.219 118.055 318.493 118.34 318.68 118.68C318.876 119.041 319.008 119.434 319.07 119.84C319.142 120.277 319.177 120.718 319.176 121.161V126.913Z" fill="white"/>
</svg>
