<svg width="528" height="278" viewBox="0 0 528 278" fill="none" xmlns="http://www.w3.org/2000/svg">
<rect width="528" height="278" fill="#222222"/>
<path d="M253.279 144.283C253.279 142.279 252.477 141.077 250.172 141.077H248.168L248.068 141.177V147.49L248.168 147.59H250.172C252.477 147.49 253.279 146.287 253.279 144.283ZM251.976 144.283C251.976 145.786 251.475 146.387 250.172 146.387H249.371L249.271 146.287V142.179L249.371 142.079H250.172C251.575 142.079 251.976 142.78 251.976 144.283ZM259.691 147.389V146.488L259.591 146.387H256.485L256.385 146.287V144.784L256.485 144.684H259.391L259.491 144.584V143.682L259.391 143.582H256.485L256.385 143.482V142.179L256.485 142.079H259.591L259.691 141.979V141.077L259.591 140.977H255.283L255.182 141.077V147.389L255.283 147.49L259.691 147.389ZM270.012 145.786C270.012 144.985 269.611 144.383 268.91 144.183V144.083C269.511 143.882 269.812 143.381 269.812 142.68C269.812 141.478 268.91 140.977 268.008 140.977H265.002L264.902 141.077V147.389L265.002 147.49H268.108C269.01 147.49 270.012 146.989 270.012 145.786ZM268.509 142.88C268.509 143.281 268.309 143.582 267.808 143.582H266.305L266.204 143.482V142.179L266.305 142.079H267.808C268.309 142.079 268.509 142.379 268.509 142.88ZM268.709 145.586C268.709 146.187 268.409 146.387 267.808 146.387H266.305L266.204 146.287V144.784L266.305 144.684H267.808C268.409 144.684 268.709 144.985 268.709 145.586ZM276.826 147.389V146.488L274.721 141.077L274.621 140.977H273.419L273.319 141.077L271.214 146.488V147.389L271.315 147.49H272.116L272.216 147.389L272.717 146.187L272.918 146.087H275.222L275.423 146.187L275.924 147.389L276.024 147.49L276.826 147.389ZM274.822 144.884L273.118 144.985L273.018 144.884L273.82 142.68H273.92L274.822 144.884ZM283.84 142.981C283.84 141.678 282.938 141.077 281.635 141.077H278.629L278.529 141.177V147.49L278.629 147.59H279.731L279.832 147.49V145.085L279.932 144.985H280.834L281.034 145.085L282.938 147.49H283.038H283.639L283.739 147.389V146.488L282.537 144.884V144.784C283.238 144.584 283.84 143.983 283.84 142.981ZM282.537 142.981C282.537 143.582 282.136 143.782 281.635 143.782H279.832L279.731 143.682V142.179L279.832 142.079H281.635C282.136 142.079 282.537 142.279 282.537 142.981ZM288.449 146.488C287.146 146.488 286.545 145.586 286.545 144.283C286.545 142.981 287.146 142.079 288.449 142.079C289.15 142.079 289.651 142.379 289.852 142.88L289.952 142.981H291.054L291.154 142.88C290.954 141.678 289.952 140.977 288.449 140.977C286.445 140.977 285.343 142.379 285.343 144.283C285.343 146.187 286.445 147.59 288.449 147.59C289.952 147.59 290.954 146.888 291.154 145.586L291.054 145.486H289.952L289.852 145.586C289.651 146.187 289.25 146.488 288.449 146.488ZM297.567 147.389V146.488L297.467 146.387H294.361L294.261 146.287V144.784L294.361 144.684H297.267L297.367 144.584V143.682L297.267 143.582H294.361L294.261 143.482V142.179L294.361 142.079H297.467L297.567 141.979V141.077L297.467 140.977H293.058L292.958 141.077V147.389L293.058 147.49L297.567 147.389ZM303.98 147.389V146.488L303.88 146.387H300.974L300.874 146.287V141.077L300.774 140.977H299.671L299.571 141.077V147.389L299.671 147.49L303.98 147.389ZM309.992 144.283C309.992 145.586 309.391 146.488 308.088 146.488C306.886 146.488 306.285 145.586 306.285 144.283C306.285 142.981 306.886 142.079 308.088 142.079C309.291 142.079 309.992 142.981 309.992 144.283ZM311.295 144.283C311.295 142.379 310.092 140.977 308.088 140.977C306.184 140.977 304.982 142.379 304.982 144.283C304.982 146.187 306.184 147.59 308.088 147.59C310.092 147.59 311.295 146.187 311.295 144.283ZM313.098 141.077V147.389L313.198 147.49H314.301L314.401 147.389V143.081H314.501L317.006 147.389L317.206 147.49H318.509L318.609 147.389V141.077L318.509 140.977H317.407L317.307 141.077V145.385H317.206L314.701 141.077L314.501 140.977H313.198L313.098 141.077ZM325.924 147.389V146.488L323.82 141.077L323.719 140.977H322.517L322.417 141.077L320.313 146.488V147.389L320.413 147.49H321.214L321.315 147.389L321.816 146.187L322.016 146.087H324.321L324.521 146.187L325.022 147.389L325.122 147.49L325.924 147.389ZM323.92 144.884L322.216 144.985L322.116 144.884L322.918 142.68H323.018L323.92 144.884Z" fill="white"/>
<path d="M253.279 133.461C253.279 131.457 252.477 130.254 250.172 130.254H248.168L248.068 130.355V136.667L248.168 136.768H250.172C252.477 136.667 253.279 135.465 253.279 133.461ZM251.976 133.461C251.976 134.964 251.475 135.565 250.172 135.565H249.371L249.271 135.465V131.357L249.371 131.256H250.172C251.575 131.256 251.976 131.958 251.976 133.461ZM256.485 131.557V130.254L256.385 130.154H255.082L254.982 130.254V131.457L255.082 131.557H255.383L255.483 131.657V131.758L254.882 132.659V132.86H255.483L255.683 132.76L256.385 131.858L256.485 131.557ZM262.998 136.567V135.665L260.894 130.254L260.794 130.154H259.591L259.491 130.254L257.387 135.665V136.567L257.487 136.667H258.289L258.389 136.567L258.89 135.365L259.09 135.265H261.395L261.595 135.365L262.096 136.567L262.196 136.667L262.998 136.567ZM261.094 134.062L259.391 134.162L259.291 134.062L260.092 131.858H260.192L261.094 134.062ZM270.112 132.158C270.112 130.856 269.21 130.254 267.908 130.254H264.802L264.701 130.355V136.667L264.802 136.768H265.904L266.004 136.667V134.263L266.104 134.162H267.006L267.206 134.263L269.11 136.667L269.311 136.768H269.912L270.012 136.667V135.766L268.81 134.162V134.062C269.411 133.762 270.112 133.16 270.112 132.158ZM268.81 132.158C268.81 132.76 268.409 132.96 267.908 132.96H266.104L266.004 132.86V131.357L266.104 131.256H267.908C268.409 131.256 268.81 131.457 268.81 132.158ZM276.625 131.156V130.254L276.525 130.154H271.315L271.214 130.254V131.156L271.315 131.256H273.218L273.319 131.357V136.567L273.419 136.667H274.521L274.621 136.567V131.357L274.721 131.256L276.625 131.156ZM284.04 135.665C282.737 135.665 282.236 134.764 282.236 133.461C282.236 132.158 282.838 131.256 284.04 131.256C284.741 131.256 285.242 131.557 285.443 132.058L285.543 132.158H286.645L286.745 132.058C286.545 130.856 285.543 130.154 284.04 130.154C282.036 130.154 280.934 131.557 280.934 133.461C280.934 135.365 282.036 136.768 284.04 136.768C285.543 136.768 286.545 136.066 286.745 134.764L286.645 134.663H285.543L285.443 134.764C285.242 135.365 284.741 135.665 284.04 135.665ZM293.259 133.461C293.259 134.764 292.657 135.665 291.355 135.665C290.152 135.665 289.451 134.764 289.451 133.461C289.451 132.158 290.052 131.256 291.355 131.256C292.557 131.156 293.259 132.158 293.259 133.461ZM294.461 133.461C294.461 131.557 293.259 130.154 291.254 130.154C289.351 130.154 288.148 131.557 288.148 133.461C288.148 135.365 289.351 136.768 291.254 136.768C293.359 136.768 294.461 135.365 294.461 133.461ZM296.365 130.254V136.567L296.465 136.667H297.567L297.667 136.567V132.259H297.768L300.273 136.567L300.473 136.667H301.776L301.876 136.567V130.254L301.776 130.154H300.673L300.573 130.254V134.563H300.473L297.968 130.254L297.768 130.154H296.465L296.365 130.254ZM308.89 131.156V130.254L308.79 130.154H303.579L303.479 130.254V131.156L303.579 131.256H305.483L305.583 131.357V136.567L305.683 136.667H306.786L306.886 136.567V131.357L306.986 131.256L308.89 131.156ZM315.002 136.567V135.665L314.902 135.565H311.896L311.796 135.465V133.962L311.896 133.862H314.802L314.902 133.762V132.86L314.802 132.76H311.896L311.796 132.659V131.457L311.896 131.357H315.002L315.102 131.256V130.355L315.002 130.254H310.693L310.593 130.355V136.667L310.693 136.768L315.002 136.567ZM324.02 136.567V130.254L323.92 130.154H322.517L322.417 130.254L320.513 134.764H320.413L318.509 130.254L318.409 130.154H317.106L317.006 130.254V136.567L317.106 136.667H318.208L318.309 136.567V132.96H318.409L319.912 136.567L320.012 136.667H321.014L321.114 136.567L322.617 132.96H322.717V136.567L322.818 136.667H323.92L324.02 136.567ZM331.635 132.158C331.635 130.856 330.733 130.254 329.431 130.254H326.325L326.224 130.355V136.667L326.325 136.768H327.427L327.527 136.667V134.263L327.627 134.162H329.431C330.733 134.062 331.635 133.461 331.635 132.158ZM330.333 132.158C330.333 132.76 329.932 132.96 329.431 132.96H327.627L327.527 132.86V131.357L327.627 131.256H329.431C329.932 131.256 330.333 131.457 330.333 132.158ZM337.948 133.461C337.948 134.764 337.347 135.665 336.144 135.665C334.942 135.665 334.24 134.764 334.24 133.461C334.24 132.158 334.842 131.256 336.144 131.256C337.246 131.156 337.948 132.158 337.948 133.461ZM339.25 133.461C339.25 131.557 338.048 130.154 336.144 130.154C334.24 130.154 332.938 131.557 332.938 133.461C332.938 135.365 334.14 136.768 336.144 136.768C338.048 136.768 339.25 135.365 339.25 133.461ZM346.465 132.158C346.465 130.856 345.563 130.254 344.261 130.254H341.154L341.054 130.355V136.667L341.154 136.768H342.257L342.357 136.667V134.263L342.457 134.162H343.359L343.559 134.263L345.463 136.667L345.663 136.768H346.265L346.365 136.667V135.766L345.162 134.162V134.062C345.764 133.762 346.465 133.16 346.465 132.158ZM345.162 132.158C345.162 132.76 344.762 132.96 344.261 132.96H342.457L342.357 132.86V131.357L342.457 131.256H344.261C344.762 131.256 345.162 131.457 345.162 132.158ZM353.379 136.567V135.665L351.275 130.254L351.174 130.154H349.972L349.872 130.254L347.768 135.665V136.567L347.868 136.667H348.669L348.77 136.567L349.271 135.365L349.471 135.265H351.776L351.976 135.365L352.477 136.567L352.577 136.667L353.379 136.567ZM351.475 134.062L349.772 134.162L349.671 134.062L350.473 131.858H350.573L351.475 134.062ZM355.082 130.254V136.567L355.182 136.667H356.285L356.385 136.567V132.259H356.485L358.99 136.567L359.19 136.667H360.493L360.593 136.567V130.254L360.493 130.154H359.391L359.291 130.254V134.563H359.19L356.685 130.254L356.485 130.154L355.082 130.254ZM364 136.567V130.254L363.9 130.154H362.798L362.697 130.254V136.567L362.798 136.667L364 136.567Z" fill="white"/>
<path d="M254.982 125.747V119.435L254.882 119.335H253.479L253.379 119.435L251.475 123.944H251.375L249.571 119.435L249.471 119.335H248.068L247.968 119.435V125.747L248.068 125.848H249.17L249.271 125.747V122.14H249.371L250.974 125.747L251.074 125.848H252.076L252.176 125.747L253.679 122.14H253.78V125.747L253.88 125.848L254.982 125.747ZM262.397 119.435L261.194 119.335L261.094 119.435V123.343C261.094 124.244 260.693 124.846 259.792 124.846C258.89 124.846 258.489 124.244 258.489 123.343V119.435L258.389 119.335H257.287L257.186 119.435V123.343C257.186 125.046 258.088 125.948 259.792 125.948C261.495 125.948 262.397 125.046 262.397 123.343V119.435V119.435ZM269.611 123.944C269.611 122.641 268.609 122.14 267.307 121.94C266.004 121.739 265.603 121.539 265.603 121.038C265.603 120.637 265.904 120.437 266.705 120.437C267.707 120.437 268.008 120.737 268.008 121.238L268.108 121.339H269.21L269.311 121.238C269.311 120.136 268.609 119.335 266.806 119.335C265.002 119.335 264.301 120.136 264.301 121.138C264.301 122.441 265.303 122.942 266.605 123.042C267.908 123.242 268.309 123.443 268.309 124.044C268.309 124.645 267.808 124.846 267.006 124.846C265.904 124.846 265.503 124.445 265.503 123.844L265.403 123.743H264.301L264.2 123.844C264.2 125.046 265.002 125.948 266.906 125.948C268.91 125.848 269.611 124.946 269.611 123.944ZM275.924 125.747V124.846L275.824 124.745H272.717L272.617 124.645V123.142L272.717 123.042H275.623L275.723 122.942V122.04L275.623 121.94H272.717L272.617 121.84V120.437L272.717 120.337H275.824L275.924 120.236V119.335L275.824 119.234H271.515L271.415 119.335V125.747L271.515 125.848L275.924 125.747ZM283.238 119.435L282.036 119.335L281.936 119.435V123.343C281.936 124.244 281.535 124.846 280.633 124.846C279.731 124.846 279.331 124.244 279.331 123.343V119.435L279.23 119.335H278.128L278.028 119.435V123.343C278.028 125.046 278.93 125.948 280.633 125.948C282.337 125.948 283.238 125.046 283.238 123.343V119.435V119.435Z" fill="white"/>
<path d="M227.828 151.898H232.136L232.437 151.597L230.132 145.485H229.832L227.527 151.597L227.828 151.898ZM233.138 154.904H226.826L226.325 155.204L225.022 158.511L224.721 158.711H222.417L222.116 158.511V156.006L227.928 141.377L228.228 141.176H231.535L231.836 141.377L237.447 155.405V103.301L237.146 103H164.2L164 103.1V174.743L164.2 175.044H237.146L237.447 174.743V158.711H235.142L234.842 158.511L233.539 155.204L233.138 154.904ZM206.385 141.277L206.685 141.076H214.802C217.307 141.076 219.812 142.379 219.812 145.585C219.812 147.389 219.01 148.892 217.307 149.393V149.593C219.311 150.094 220.313 151.597 220.313 153.902C220.313 157.409 217.808 158.711 215.303 158.711H206.685L206.385 158.511V141.277ZM193.559 136.768L193.259 137.068H190.252L190.052 136.768V126.948H189.751L185.743 136.768L185.443 137.068H182.637L182.337 136.768L178.329 126.948H178.028V136.768L177.828 136.968H174.822L174.521 136.667V119.533L174.822 119.333H178.629L178.93 119.533L183.94 131.858H184.24L189.351 119.533L189.551 119.333H193.359L193.659 119.533L193.559 136.768ZM211.695 136.768L211.395 137.068H209.09L208.89 136.768L207.587 133.461L207.086 133.261H200.774L200.273 133.461L198.97 136.768L198.77 137.068H196.465L196.164 136.768V134.263L201.976 119.633L202.277 119.433H205.583L205.884 119.633L211.695 134.263V136.768V136.768ZM221.816 137.269C216.204 137.269 213.198 133.461 213.198 128.15C213.198 122.84 216.204 119.032 221.816 119.032C225.824 119.032 228.629 121.036 229.13 124.343L228.93 124.643H225.924L225.723 124.343C225.222 122.84 223.92 122.038 221.916 122.038C218.409 122.038 216.906 124.543 216.906 128.15C216.906 131.758 218.409 134.263 221.916 134.263C223.92 134.263 225.222 133.461 225.723 131.758L225.924 131.457H228.93L229.13 131.758C228.629 135.265 225.824 137.269 221.816 137.269ZM206.084 130.154L206.385 129.954L204.08 123.842H203.88L201.575 129.954L201.876 130.154H206.084ZM210.192 144.082L209.892 144.283V147.79L210.192 148.09H214.301C215.804 148.09 216.305 147.088 216.305 146.086C216.305 144.784 215.804 144.082 214.301 144.082H210.192ZM210.192 151.096L209.892 151.397V155.405L210.192 155.605H214.301C216.104 155.605 216.806 154.804 216.806 153.301C216.806 151.798 216.004 150.996 214.301 150.996H210.192V151.096Z" fill="white"/>
</svg>
