<svg width="528" height="278" fill="none" xmlns="http://www.w3.org/2000/svg"><path fill="#8C1713" d="M0 0h528v278H0z"/><path d="M188.166 149.629c4.658 1.096 9.315 2.246 13.918 3.342-.548-1.534-1.37-2.794-1.315-4 0-1.26.603-2.685 1.315-3.78 1.644-2.685 4.11-4.494 7.123-5.48 1.973-.657 3.945-.822 5.534.438 1.315-.438 2.411-.767 3.507-1.095.11.109.165.219.274.328-2.082 3.672-4.219 7.398-6.301 11.069l.383.383c1.206-.931 2.357-1.863 3.617-2.849.876.384 1.205.877.274 1.589-1.206.986-2.411 2.082-3.781 2.849-1.589.877-2.466.384-3.123-1.37-.329.165-.713.274-.987.548-4.109 3.507-8.931 3.507-13.862 2.85-2.959-.384-5.918-1.041-8.767-2.028-2.959-.986-5.809-.986-8.822-.712-3.124.274-6.302.055-9.48-.055-.712 0-1.479-.164-2.027-.603-.712-.547-1.699-1.424-1.644-2.082 0-.712 1.041-1.917 1.754-1.972 3.068-.329 6.191-.603 9.26-.329 3.068.274 6.082 1.205 9.15 1.753.713.11 1.644.055 2.302-.274 3.068-1.424 5.15-3.945 7.123-6.904-1.918 1.041-3.616 2.028-5.37 2.85-3.068 1.424-6.246 1.972-9.589 1.315-2.082-.439-3.89-1.37-5.315-3.014-.219-.219-.164-.657-.219-.986.329 0 .712-.055 1.041 0 .274.055.493.274.712.438 3.617 3.288 7.836 3.288 11.945 1.534 4.877-2.082 9.151-4.931 11.836-9.808 2.849-5.205 6.246-10.027 10.849-13.863 1.26-1.041 2.685-1.863 4.164-2.575.548-.274 1.699-.11 2.083.274.383.384.383 1.534.109 2.082-.712 1.425-1.534 2.959-2.63 4.11-3.178 3.452-6.575 6.685-9.863 10.027a8.764 8.764 0 00-1.37 1.808c-1.205 2.082-2.301 4.219-3.616 6.192-2.082 3.178-4.986 5.479-8.548 6.904-.548.219-1.041.493-1.589.712-.055.055-.055.219-.055.384zm17.589 1.37c.548-.219 1.48-.603 2.411-1.041 2.74-1.261 3.781-3.946 5.151-6.356.328-.548.602-1.59.383-1.809-.602-.493-1.534-.931-2.301-.931-3.397.164-7.726 4.493-8.055 7.835-.109 1.425.658 2.302 2.411 2.302zm8.767-32.877c-5.315 2.63-7.671 7.671-10.52 12.932 3.89-2.576 10.301-10.247 10.52-12.932zm-36.383 32.055c-3.616-1.096-7.178-2.521-11.014-2.137-.657.055-1.205.657-1.863.986.548.384 1.042.986 1.644 1.096 3.726.822 7.452.658 11.233.055zm156.108.822c1.315-.931 2.685-1.808 4.109-2.794.274.219.603.493 1.096.876 5.261-9.753 10.466-19.342 15.671-28.986l-.274-.274c-.876.603-1.698 1.206-2.685 1.863-.273-.328-.602-.657-1.041-1.096 1.315-.931 2.411-1.972 3.726-2.575.822-.383 1.918-.274 2.904-.383-.054.986.165 2.082-.219 2.849-1.479 3.013-3.123 5.863-4.712 8.822-3.616 6.63-7.233 13.26-10.794 19.835-.274.438-.439.932-.548 1.534 2.137-.767 4.109-1.644 5.096-3.835 1.808-4.055 4.931-6.466 9.095-7.562 1.644-.438 3.288-.329 4.493.712 1.261-.438 2.411-.767 3.562-1.15.11.109.164.219.274.274-2.137 3.726-4.219 7.452-6.356 11.178.164.109.274.274.438.383 1.151-.931 2.302-1.863 3.617-2.904.274.219.602.439 1.26.986-1.699 1.261-3.123 2.521-4.767 3.507-1.589.932-2.466.439-3.069-1.15-1.643.493-3.232 1.205-4.931 1.479-1.973.329-3.343-.712-4.055-2.575-1.315.822-2.466 1.753-3.835 2.301-.877.329-2.137.438-2.905.055-.493-.274-.493-1.589-.767-2.466-.164.11-.548.384-.931.658-.658.493-1.315.986-2.027 1.37-1.261.657-2.685 1.589-3.946.383-1.205-1.096-.274-2.466.329-3.616 4.877-9.096 9.808-18.192 14.685-27.233.219-.438.438-.931.438-1.644-.822.603-1.589 1.206-2.575 1.863a14.133 14.133 0 01-.986-.876c.164-.22.219-.384.328-.439 1.425-.986 2.85-1.972 4.384-2.849.438-.219 1.37-.219 1.644.11.383.383.548 1.205.383 1.753-.164.822-.657 1.589-1.096 2.356-4.931 9.041-9.863 18.137-14.794 27.178-.274.548-.548 1.151-.822 1.698.329.165.493.274.603.384zm14.685-2.356c-.11 1.589.876 2.52 2.465 2.082 1.041-.274 2.028-.822 2.959-1.315 2.411-1.315 3.233-3.89 4.548-6.027.986-1.589.329-2.63-1.644-2.63-3.397 0-8.164 4.493-8.328 7.89zm-86.575-24.659c-4.986-1.205-9.699-2.63-14.52-1.863-7.233 1.151-12.603 5.315-16 11.781-1.151 2.192-1.48 4.657.054 7.014.22.328-.054.986-.109 1.589-2.137-1.261-2.959-3.672-2.082-6.576 1.863-6.137 5.808-10.575 11.452-13.479 6.137-3.123 12.712-3.342 19.342-2.137 1.863.329 3.726.822 5.644 1.096.767.109 1.644-.055 2.356-.274 4.109-1.26 8.274-2.63 12.657-2.027.822.109 1.754.383 2.466.821.657.439 1.479 1.261 1.479 1.918 0 .603-.876 1.589-1.589 1.808-2.082.713-4.274 1.535-6.465 1.589a58.147 58.147 0 01-10.247-.602c-1.972-.274-3.397.164-4.822 1.315-3.397 2.685-5.753 6.246-7.671 10.082-1.479 2.959-2.739 6.082-4.602 8.876-4.822 7.233-11.507 11.288-20.439 10.576-2.137-.165-4.383-1.151-6.137-2.356-2.41-1.644-2.301-4.932.165-6.685-.055.876 0 1.534-.165 2.137-.547 1.863-.274 2.849 1.316 3.945 3.123 2.082 6.465 2.466 10.027 1.205 3.013-1.096 5.589-2.849 7.561-5.315 2.466-3.013 4.822-6.082 6.74-9.424 3.342-5.699 7.233-10.795 12.822-14.466.219-.055.383-.219.767-.548zm7.89-1.589c1.151.219 2.302.603 3.452.603 2.959.055 5.918-.055 8.877-.164.383 0 .767-.658 1.096-.987-.384-.274-.713-.712-1.096-.822-4.274-1.26-8.329-.328-12.329 1.37z" fill="#fff"/><path d="M280.111 140.096c1.479-.439 2.575-.713 3.671-1.041.11.164.219.274.384.438-3.562 5.644-7.069 11.397-10.795 16.986-1.589 2.356-3.945 4.055-7.068 3.671-.822-.109-1.973-.876-2.137-1.534-.219-.822.274-1.918.822-2.74.219-.328 1.424-.493 1.808-.219.712.493.438 1.206-.384 1.699-.219.109-.493.657-.438.767.219.274.603.548.877.493.876-.164 2.027-.274 2.575-.822 1.808-1.972 3.397-4.109 4.931-6.356-5.589 1.644-6.904 1.425-8.219-1.698-1.205.876-2.301 1.808-3.561 2.575-1.863 1.096-2.685.767-3.562-1.041-1.315.493-2.575 1.15-3.945 1.424-3.342.767-5.37-1.26-4.767-4.602.712-4.329 7.014-9.206 11.452-8.767.931.109 1.863.602 2.575.822 1.206-.384 2.356-.713 3.452-1.096.055.109.165.219.219.328-2.082 3.726-4.219 7.398-6.301 11.124.11.109.274.219.384.328 1.972-1.15 3.78-2.465 4.931-4.602 1.918-3.398 4.767-5.644 8.548-6.685 2.192-.603 2.904-.439 4.548.548zm-27.342 8.712c-.11 1.589.712 2.466 2.246 2.192.986-.165 1.918-.658 2.849-1.151 2.576-1.315 3.507-3.945 4.877-6.192.932-1.589.274-2.685-1.534-2.739-3.288-.055-8.219 4.602-8.438 7.89zm18.465 1.699c.439-.165 1.26-.384 2.028-.713 2.63-1.205 4.164-3.452 5.369-5.917.329-.603.658-1.863.494-1.973-.768-.493-1.754-.986-2.631-.877-3.232.439-6.849 4.11-7.561 7.233-.219 1.48.383 2.247 2.301 2.247zm41.807-1.591c1.48-2.466 2.959-4.987 4.548-7.671-.822-.11-1.534-.165-2.246-.22-.055-1.205.438-1.863 1.698-1.643 1.37.219 2.082-.439 2.685-1.589.658-1.37 1.534-2.631 2.082-4.22-.548.494-1.205.932-1.698 1.48-.713.822-1.26.657-2.028-.329 1.315-1.041 2.576-2.192 4-3.014.603-.383 1.644-.109 2.466-.164 0 .822.274 1.699 0 2.411-.493 1.26-1.315 2.411-1.973 3.562-.273.493-.547 1.041-.931 1.698.822.11 1.479.165 2.137.219.219 1.261-.219 1.863-1.479 1.644-1.425-.219-2.137.384-2.795 1.589-1.479 2.685-3.068 5.26-4.438 8.055 2.411-.767 4.602-1.808 5.863-4.11 1.917-3.561 4.767-6.082 8.712-7.178.055 0 .109-.054.164-.054 1.48-.274 3.014-.548 4 .986.713 1.096.055 2.904-1.479 4.109-2.137 1.754-4.767 2.357-7.452 2.795-1.534.274-2.247 1.041-1.973 2.301.274 1.425 1.48 1.315 2.466 1.206.877-.11 1.808-.439 2.63-.767.822-.329 1.534-.822 2.301-1.261.877.658 1.096 1.261-.054 1.754-1.973.767-3.891 1.753-5.918 2.137-2.356.438-3.507-.548-4.274-2.904-.877.657-1.753 1.369-2.685 1.917-.767.439-1.644.877-2.52 1.096-1.754.384-2.74-.657-2.192-2.465 0-.494.219-.932.383-1.37zm11.014-3.014c2.849-.548 5.315-.986 6.904-3.068.329-.384.274-1.096.438-1.644-.548-.11-1.15-.384-1.644-.219-2.41.657-4.054 2.356-5.698 4.931z" fill="#fff"/><path d="M313.096 148.863c-1.479 1.151-2.904 2.466-4.547 3.452-1.699 1.041-2.685.603-3.343-.986-1.753.493-3.397 1.205-5.151 1.424-1.972.274-3.287-.876-3.89-2.904-.877.658-1.644 1.261-2.466 1.754-.767.438-1.534.931-2.356 1.041-.767.055-1.863-.11-2.301-.658-.384-.438-.329-1.589-.055-2.246 1.151-2.302 2.466-4.493 3.671-6.74.274-.493.493-1.041.713-1.534-.11-.11-.22-.219-.384-.329-1.151.932-2.301 1.863-3.452 2.849-1.205-.657-1.315-.767-.329-1.589 1.261-1.096 2.63-2.137 4.11-2.904.603-.329 1.918-.219 2.356.219.438.439.438 1.699.164 2.357-1.15 2.41-2.52 4.712-3.78 7.068-.274.493-.494.931-.603 1.534 2.301-.876 4.329-2.082 5.479-4.329 1.863-3.561 4.822-5.917 8.712-6.904 2.192-.547 2.85-.383 4.548.603 1.315-.383 2.466-.767 3.562-1.096.055.11.164.219.219.329l-6.246 11.014.383.383c1.206-.931 2.356-1.808 3.617-2.794a7.89 7.89 0 001.369.986s-.054.055 0 0zm-11.78 2.192a46.336 46.336 0 002.411-1.041c2.794-1.315 3.78-4.11 5.205-6.521.274-.438.603-1.37.384-1.534-.548-.493-1.37-1.041-2.083-1.041-3.397-.055-8.273 4.712-8.383 8.055.055 1.315.658 2.027 2.466 2.082z" fill="#fff"/><path d="M282.905 150.945c.713-.439 1.37-.768 2.082-1.261.658-.438 1.315-.986 2.137-1.644.274.329.548.658.767.932-.054.219-.054.383-.164.438-1.534 1.041-2.959 2.247-4.603 3.069-.712.329-2.082.219-2.63-.274-.438-.384-.383-1.808-.055-2.521 2.302-4.548 4.713-8.986 7.124-13.424 2.685-4.986 5.369-9.973 8.109-14.959.219-.384.329-.767.329-1.37-.877.603-1.699 1.206-2.63 1.863-.274-.274-.548-.603-.822-.877.055-.164.055-.328.11-.383 1.205-.877 2.41-1.918 3.726-2.63.712-.384 1.698-.11 2.575-.165 0 .877.219 1.863-.11 2.576-1.753 3.452-3.616 6.849-5.479 10.246-3.397 6.301-6.849 12.548-10.247 18.849-.219.384-.383.877-.548 1.315.055 0 .165.11.329.22zm17.479-20.493c-.274-.329-.877-.822-.931-1.315-.055-1.206.822-1.918 1.972-1.918.439 0 1.26.767 1.315 1.26.11 1.151-.767 1.808-2.356 1.973z" fill="#fff"/></svg>