<svg width="200" height="200" viewBox="0 0 200 200" fill="none" xmlns="http://www.w3.org/2000/svg">
<rect width="200" height="200" fill="white"/>
<g clip-path="url(#clip0)">
<path d="M25.7235 111.399C30.2754 112.47 34.8273 113.595 39.3257 114.666C38.7902 113.166 37.9869 111.934 38.0405 110.756C38.0405 109.525 38.6295 108.132 39.3257 107.061C40.9323 104.437 43.3421 102.67 46.2875 101.706C48.2153 101.063 50.1432 100.903 51.6962 102.134C52.9814 101.706 54.0525 101.385 55.1235 101.063C55.2306 101.17 55.2842 101.278 55.3913 101.385C53.3563 104.973 51.2678 108.614 49.2328 112.202C49.3399 112.309 49.5006 112.47 49.6077 112.577C50.7858 111.667 51.9104 110.756 53.1421 109.792C53.9989 110.167 54.3202 110.649 53.4099 111.345C52.2317 112.309 51.0536 113.38 49.7148 114.13C48.1618 114.987 47.3049 114.505 46.6623 112.791C46.341 112.952 45.9661 113.059 45.6984 113.327C41.682 116.754 36.9694 116.754 32.1497 116.111C29.2579 115.737 26.3661 115.094 23.5814 114.13C20.6896 113.166 17.9049 113.166 14.9596 113.434C11.9071 113.702 8.80111 113.487 5.69509 113.38C4.99892 113.38 4.24919 113.22 3.71368 112.791C3.0175 112.256 2.05357 111.399 2.10712 110.756C2.10712 110.06 3.1246 108.882 3.82078 108.828C6.81969 108.507 9.87215 108.239 12.8711 108.507C15.87 108.775 18.8153 109.685 21.8142 110.221C22.5104 110.328 23.4208 110.274 24.0634 109.953C27.0623 108.561 29.0973 106.097 31.0252 103.205C29.1508 104.223 27.4907 105.187 25.7771 105.99C22.7782 107.382 19.6721 107.918 16.4055 107.275C14.3705 106.847 12.6033 105.937 11.2109 104.33C10.9967 104.116 11.0503 103.687 10.9967 103.366C11.3181 103.366 11.6929 103.313 12.0142 103.366C12.282 103.42 12.4962 103.634 12.7104 103.795C16.2448 107.008 20.3683 107.008 24.3847 105.294C29.1508 103.259 33.3279 100.474 35.9519 95.7082C38.7366 90.6207 42.0569 85.9082 46.5552 82.1595C47.7869 81.1421 49.1792 80.3388 50.6251 79.6426C51.1607 79.3748 52.2853 79.5355 52.6601 79.9104C53.035 80.2852 53.035 81.4098 52.7672 81.9453C52.071 83.3377 51.2678 84.8371 50.1967 85.9617C47.0907 89.3355 43.7705 92.4951 40.5574 95.7617C40.0219 96.2973 39.5935 96.8863 39.2186 97.5289C38.0405 99.5639 36.9694 101.652 35.6842 103.58C33.6492 106.686 30.8109 108.936 27.3301 110.328C26.7946 110.542 26.3126 110.81 25.7771 111.024C25.7235 111.078 25.7235 111.238 25.7235 111.399ZM42.9137 112.738C43.4492 112.523 44.3596 112.149 45.27 111.72C47.9475 110.489 48.965 107.864 50.3038 105.508C50.6252 104.973 50.8929 103.955 50.6787 103.741C50.0896 103.259 49.1793 102.831 48.4295 102.831C45.1093 102.991 40.8787 107.222 40.5574 110.489C40.4503 111.881 41.2 112.738 42.9137 112.738ZM51.482 80.6065C46.2874 83.177 43.9847 88.1038 41.2 93.2448C45.0022 90.7279 51.2678 83.2306 51.482 80.6065ZM15.9235 111.934C12.3891 110.863 8.90821 109.471 5.15958 109.846C4.51695 109.899 3.98144 110.489 3.33881 110.81C3.87433 111.185 4.3563 111.774 4.94537 111.881C8.5869 112.684 12.2284 112.523 15.9235 111.934Z" fill="black"/>
<path d="M168.493 112.738C169.778 111.827 171.117 110.97 172.509 110.007C172.777 110.221 173.098 110.488 173.58 110.863C178.721 101.331 183.809 91.9595 188.896 82.5344C188.789 82.4273 188.735 82.3737 188.628 82.2666C187.772 82.8557 186.968 83.4448 186.004 84.0874C185.737 83.7661 185.415 83.4448 184.987 83.0164C186.272 82.106 187.343 81.0885 188.628 80.4994C189.432 80.1246 190.503 80.2317 191.467 80.1246C191.413 81.0885 191.627 82.1595 191.252 82.9093C189.807 85.8546 188.2 88.6393 186.647 91.5311C183.113 98.0109 179.578 104.491 176.097 110.917C175.829 111.345 175.669 111.827 175.562 112.416C177.65 111.667 179.578 110.81 180.542 108.668C182.309 104.705 185.362 102.349 189.432 101.278C191.038 100.849 192.645 100.956 193.823 101.974C195.055 101.545 196.179 101.224 197.304 100.849C197.411 100.956 197.464 101.063 197.572 101.117C195.483 104.758 193.448 108.4 191.36 112.042C191.52 112.149 191.627 112.309 191.788 112.416C192.913 111.506 194.037 110.596 195.322 109.578C195.59 109.792 195.911 110.007 196.554 110.542C194.894 111.774 193.502 113.005 191.895 113.969C190.342 114.88 189.485 114.398 188.896 112.845C187.29 113.327 185.737 114.023 184.076 114.291C182.149 114.612 180.81 113.595 180.114 111.774C178.828 112.577 177.704 113.487 176.365 114.023C175.508 114.344 174.276 114.451 173.527 114.076C173.045 113.809 173.045 112.523 172.777 111.667C172.616 111.774 172.242 112.042 171.867 112.309C171.224 112.791 170.581 113.273 169.885 113.648C168.654 114.291 167.261 115.201 166.029 114.023C164.851 112.952 165.762 111.613 166.351 110.488C171.117 101.599 175.937 92.7093 180.703 83.8732C180.917 83.4448 181.131 82.9628 181.131 82.2666C180.328 82.8557 179.578 83.4448 178.614 84.0874C178.293 83.8196 177.972 83.5519 177.65 83.2306C177.811 83.0164 177.864 82.8557 177.972 82.8022C179.364 81.8382 180.756 80.8743 182.256 80.0175C182.684 79.8032 183.594 79.8032 183.862 80.1246C184.237 80.4994 184.398 81.3027 184.237 81.8382C184.076 82.6415 183.595 83.3912 183.166 84.141C178.346 92.977 173.527 101.867 168.707 110.703C168.439 111.238 168.172 111.827 167.904 112.363C168.225 112.523 168.386 112.631 168.493 112.738ZM182.845 110.435C182.738 111.988 183.702 112.898 185.255 112.47C186.272 112.202 187.236 111.667 188.146 111.185C190.503 109.899 191.306 107.382 192.591 105.294C193.555 103.741 192.913 102.723 190.985 102.723C187.664 102.723 183.005 107.115 182.845 110.435Z" fill="black"/>
<path d="M98.2328 86.3365C93.3596 85.1584 88.7541 83.7661 84.0416 84.5158C76.9727 85.6404 71.7246 89.7103 68.4044 96.0294C67.2798 98.1715 66.9585 100.581 68.458 102.884C68.6722 103.205 68.4044 103.848 68.3509 104.437C66.2623 103.205 65.4591 100.849 66.3159 98.0109C68.1367 92.0131 71.9924 87.6753 77.5082 84.8371C83.506 81.7846 89.9323 81.5704 96.4121 82.7486C98.2328 83.0699 100.054 83.5518 101.928 83.8196C102.678 83.9267 103.534 83.7661 104.231 83.5518C108.247 82.3202 112.317 80.9814 116.601 81.5704C117.404 81.6775 118.315 81.9453 119.011 82.3737C119.654 82.8021 120.457 83.6054 120.457 84.248C120.457 84.8371 119.6 85.801 118.904 86.0152C116.869 86.7114 114.727 87.5147 112.585 87.5682C109.265 87.6753 105.837 87.4611 102.571 86.9792C100.643 86.7114 99.2503 87.1398 97.858 88.2644C94.5377 90.8885 92.235 94.3693 90.3607 98.118C88.9148 101.01 87.6831 104.062 85.8623 106.793C81.1498 113.862 74.6164 117.825 65.8875 117.129C63.7989 116.968 61.6033 116.004 59.8897 114.826C57.5334 113.22 57.6405 110.006 60.0503 108.293C59.9968 109.15 60.0503 109.792 59.8897 110.381C59.3541 112.202 59.6219 113.166 61.1749 114.237C64.2274 116.272 67.494 116.647 70.9749 115.415C73.9202 114.344 76.4372 112.631 78.3651 110.221C80.7749 107.275 83.0776 104.276 84.9519 101.01C88.2186 95.4404 92.0208 90.46 97.4831 86.8721C97.6973 86.8185 97.858 86.6579 98.2328 86.3365ZM105.944 84.7835C107.069 84.9978 108.193 85.3726 109.318 85.3726C112.21 85.4262 115.102 85.3191 117.993 85.212C118.368 85.212 118.743 84.5693 119.065 84.248C118.69 83.9803 118.368 83.5518 117.993 83.4447C113.816 82.2131 109.854 83.1234 105.944 84.7835Z" fill="black"/>
<path d="M115.584 102.081C117.03 101.652 118.101 101.385 119.172 101.063C119.279 101.224 119.386 101.331 119.546 101.492C116.066 107.008 112.638 112.631 108.997 118.093C107.444 120.396 105.141 122.056 102.089 121.681C101.285 121.574 100.161 120.824 100 120.181C99.7858 119.378 100.268 118.307 100.803 117.504C101.018 117.182 102.196 117.022 102.571 117.29C103.267 117.772 102.999 118.468 102.196 118.95C101.981 119.057 101.714 119.592 101.767 119.699C101.981 119.967 102.356 120.235 102.624 120.181C103.481 120.021 104.606 119.914 105.141 119.378C106.908 117.45 108.461 115.362 109.961 113.166C104.498 114.773 103.213 114.558 101.928 111.506C100.75 112.363 99.6787 113.273 98.447 114.023C96.6263 115.094 95.823 114.773 94.9662 113.005C93.6809 113.487 92.4492 114.13 91.1104 114.398C87.8438 115.148 85.8623 113.166 86.4514 109.899C87.1476 105.669 93.3061 100.903 97.6438 101.331C98.5541 101.438 99.4645 101.92 100.161 102.134C101.339 101.76 102.463 101.438 103.534 101.063C103.588 101.17 103.695 101.278 103.749 101.385C101.714 105.026 99.6252 108.614 97.5902 112.256C97.6973 112.363 97.858 112.47 97.9651 112.577C99.8929 111.452 101.66 110.167 102.785 108.079C104.659 104.758 107.444 102.563 111.139 101.545C113.281 100.956 113.977 101.117 115.584 102.081ZM88.8612 110.596C88.7541 112.149 89.5574 113.005 91.0569 112.738C92.0208 112.577 92.9312 112.095 93.8416 111.613C96.3585 110.328 97.2689 107.757 98.6077 105.562C99.5181 104.009 98.8755 102.938 97.1082 102.884C93.8951 102.831 89.0755 107.382 88.8612 110.596ZM106.908 112.256C107.337 112.095 108.14 111.881 108.89 111.56C111.46 110.381 112.96 108.186 114.138 105.776C114.459 105.187 114.78 103.955 114.62 103.848C113.87 103.366 112.906 102.884 112.049 102.991C108.89 103.42 105.355 107.008 104.659 110.06C104.445 111.506 105.034 112.256 106.908 112.256Z" fill="black"/>
<path d="M147.768 110.703C149.214 108.293 150.66 105.83 152.213 103.205C151.41 103.098 150.714 103.045 150.017 102.991C149.964 101.813 150.446 101.171 151.678 101.385C153.016 101.599 153.712 100.956 154.302 99.8317C154.944 98.4929 155.801 97.2612 156.337 95.7082C155.801 96.1902 155.158 96.6186 154.676 97.1541C153.98 97.9574 153.445 97.7968 152.695 96.8328C153.98 95.8153 155.212 94.6907 156.604 93.8875C157.193 93.5126 158.211 93.7804 159.014 93.7268C159.014 94.5301 159.282 95.3869 159.014 96.0831C158.532 97.3148 157.729 98.4394 157.086 99.564C156.819 100.046 156.551 100.581 156.176 101.224C156.979 101.331 157.622 101.385 158.264 101.438C158.479 102.67 158.05 103.259 156.819 103.045C155.426 102.831 154.73 103.42 154.087 104.598C152.641 107.222 151.088 109.739 149.75 112.47C152.106 111.72 154.248 110.703 155.48 108.454C157.354 104.973 160.139 102.509 163.994 101.438C164.048 101.438 164.102 101.385 164.155 101.385C165.601 101.117 167.1 100.849 168.064 102.349C168.761 103.42 168.118 105.187 166.618 106.365C164.53 108.079 161.959 108.668 159.335 109.096C157.836 109.364 157.14 110.114 157.408 111.345C157.675 112.738 158.853 112.631 159.817 112.524C160.674 112.416 161.585 112.095 162.388 111.774C163.191 111.453 163.887 110.971 164.637 110.542C165.494 111.185 165.708 111.774 164.584 112.256C162.656 113.006 160.781 113.969 158.8 114.344C156.497 114.773 155.373 113.809 154.623 111.506C153.766 112.149 152.909 112.845 151.999 113.38C151.249 113.809 150.392 114.237 149.535 114.451C147.822 114.826 146.858 113.809 147.393 112.042C147.393 111.56 147.608 111.131 147.768 110.703ZM158.532 107.757C161.317 107.222 163.727 106.793 165.28 104.759C165.601 104.384 165.547 103.687 165.708 103.152C165.173 103.045 164.584 102.777 164.102 102.938C161.745 103.58 160.139 105.24 158.532 107.757Z" fill="black"/>
<path d="M147.822 110.649C146.376 111.774 144.984 113.059 143.377 114.023C141.717 115.04 140.753 114.612 140.11 113.059C138.397 113.541 136.79 114.237 135.077 114.451C133.149 114.719 131.863 113.595 131.274 111.613C130.418 112.256 129.668 112.845 128.865 113.327C128.115 113.755 127.365 114.237 126.562 114.344C125.812 114.398 124.741 114.237 124.313 113.702C123.938 113.273 123.991 112.149 124.259 111.506C125.384 109.257 126.669 107.115 127.847 104.919C128.115 104.437 128.329 103.902 128.543 103.42C128.436 103.313 128.329 103.205 128.168 103.098C127.044 104.009 125.919 104.919 124.795 105.883C123.616 105.24 123.509 105.133 124.473 104.33C125.705 103.259 127.044 102.242 128.49 101.492C129.079 101.171 130.364 101.278 130.792 101.706C131.221 102.134 131.221 103.366 130.953 104.009C129.828 106.365 128.49 108.614 127.258 110.917C126.99 111.399 126.776 111.827 126.669 112.416C128.918 111.56 130.9 110.381 132.024 108.186C133.845 104.705 136.737 102.402 140.539 101.438C142.681 100.903 143.324 101.063 144.984 102.027C146.269 101.652 147.393 101.278 148.465 100.956C148.518 101.063 148.625 101.171 148.679 101.278C146.644 104.866 144.609 108.454 142.574 112.042C142.681 112.149 142.842 112.309 142.949 112.416C144.127 111.506 145.251 110.649 146.483 109.685C146.912 110.06 147.34 110.381 147.822 110.649C147.822 110.649 147.768 110.703 147.822 110.649ZM136.308 112.791C136.844 112.577 137.754 112.202 138.665 111.774C141.396 110.489 142.36 107.757 143.752 105.401C144.02 104.973 144.341 104.062 144.127 103.902C143.591 103.42 142.788 102.884 142.092 102.884C138.772 102.831 134.006 107.49 133.898 110.756C133.952 112.042 134.541 112.738 136.308 112.791Z" fill="black"/>
<path d="M118.315 112.684C119.011 112.256 119.654 111.934 120.35 111.452C120.992 111.024 121.635 110.489 122.438 109.846C122.706 110.167 122.974 110.489 123.188 110.756C123.134 110.97 123.134 111.131 123.027 111.185C121.528 112.202 120.135 113.38 118.529 114.184C117.833 114.505 116.494 114.398 115.958 113.916C115.53 113.541 115.584 112.149 115.905 111.452C118.154 107.008 120.51 102.67 122.867 98.3322C125.491 93.459 128.115 88.5858 130.792 83.7126C131.007 83.3377 131.114 82.9628 131.114 82.3738C130.257 82.9628 129.454 83.5519 128.543 84.1945C128.275 83.9268 128.008 83.6055 127.74 83.3377C127.793 83.177 127.793 83.0164 127.847 82.9628C129.025 82.106 130.203 81.0885 131.488 80.3924C132.185 80.0175 133.149 80.2852 134.005 80.2317C134.005 81.0885 134.22 82.0525 133.898 82.7486C132.185 86.1224 130.364 89.4426 128.543 92.7628C125.223 98.9213 121.849 105.026 118.529 111.185C118.315 111.56 118.154 112.042 117.993 112.47C118.047 112.47 118.154 112.577 118.315 112.684Z" fill="black"/>
<path d="M135.398 92.6558C135.13 92.3345 134.541 91.8525 134.487 91.3705C134.434 90.1924 135.291 89.4962 136.415 89.4962C136.844 89.4962 137.647 90.2459 137.701 90.7279C137.808 91.8525 136.951 92.4951 135.398 92.6558Z" fill="black"/>
</g>
<defs>
<clipPath id="clip0">
<rect width="196" height="42.8415" fill="white" transform="translate(2 79)"/>
</clipPath>
</defs>
</svg>
