<svg width="200" height="200" viewBox="0 0 200 200" fill="none" xmlns="http://www.w3.org/2000/svg">
<rect width="200" height="200" fill="white"/>
<g clip-path="url(#clip0)">
<path d="M175.331 112.033H178.971V111.077H176.403V106.004H175.331V112.033ZM164.302 109.726L165.248 107.275L166.176 109.726H164.302ZM162.184 112.033H163.382L163.932 110.654H166.545L167.104 112.033H168.329L165.734 106.004H164.806L162.184 112.033ZM149.875 112.033H150.947V107.374H150.965L153.831 112.033H155.191V106.004H154.119V110.519H154.101L151.298 106.004H149.875V112.033ZM137.259 108.131C137.359 107.86 137.503 107.635 137.684 107.437C137.863 107.239 138.08 107.086 138.332 106.968C138.584 106.851 138.863 106.797 139.179 106.797C139.494 106.797 139.774 106.851 140.035 106.968C140.288 107.086 140.512 107.239 140.693 107.437C140.873 107.635 141.017 107.87 141.116 108.131C141.215 108.401 141.27 108.689 141.27 108.996C141.27 109.32 141.225 109.618 141.116 109.888C141.017 110.158 140.873 110.393 140.693 110.591C140.504 110.789 140.288 110.942 140.035 111.059C139.782 111.168 139.503 111.222 139.197 111.222C138.891 111.222 138.611 111.168 138.359 111.059C138.107 110.951 137.89 110.798 137.701 110.591C137.512 110.393 137.377 110.158 137.278 109.888C137.178 109.618 137.125 109.32 137.125 108.996C137.115 108.681 137.16 108.392 137.259 108.131ZM136.188 110.284C136.349 110.672 136.575 111.005 136.863 111.294C137.151 111.573 137.494 111.789 137.881 111.951C138.278 112.105 138.701 112.186 139.17 112.186C139.638 112.186 140.08 112.105 140.477 111.951C140.873 111.798 141.215 111.573 141.504 111.294C141.792 111.014 142.018 110.681 142.179 110.284C142.342 109.897 142.423 109.464 142.423 108.996C142.423 108.518 142.342 108.077 142.179 107.689C142.018 107.302 141.792 106.968 141.504 106.698C141.215 106.428 140.873 106.211 140.477 106.067C140.08 105.923 139.648 105.851 139.17 105.851C138.701 105.851 138.278 105.923 137.881 106.067C137.485 106.211 137.143 106.428 136.863 106.698C136.575 106.968 136.349 107.302 136.188 107.689C136.025 108.077 135.944 108.509 135.944 108.996C135.944 109.464 136.025 109.897 136.188 110.284ZM127.429 112.033H128.501V106.004H127.429V112.033ZM120.265 106.761C120.148 106.599 120.004 106.464 119.832 106.356C119.661 106.238 119.481 106.148 119.283 106.067C119.094 105.986 118.886 105.932 118.679 105.896C118.472 105.86 118.264 105.842 118.075 105.842C117.607 105.842 117.183 105.914 116.778 106.058C116.381 106.202 116.039 106.419 115.741 106.689C115.453 106.959 115.219 107.293 115.057 107.68C114.885 108.068 114.804 108.5 114.804 108.987C114.804 109.455 114.885 109.888 115.038 110.275C115.201 110.663 115.417 110.996 115.705 111.285C115.994 111.564 116.327 111.78 116.724 111.942C117.12 112.105 117.553 112.177 118.021 112.177C118.535 112.177 118.994 112.087 119.373 111.897C119.76 111.708 120.085 111.456 120.355 111.122L119.49 110.519C119.337 110.726 119.138 110.897 118.886 111.023C118.634 111.149 118.346 111.213 118.03 111.213C117.715 111.213 117.435 111.159 117.183 111.05C116.931 110.942 116.724 110.789 116.543 110.591C116.363 110.393 116.228 110.158 116.129 109.888C116.03 109.618 115.985 109.311 115.985 108.987C115.985 108.671 116.039 108.383 116.138 108.122C116.237 107.851 116.381 107.626 116.561 107.428C116.742 107.23 116.967 107.077 117.219 106.959C117.471 106.842 117.76 106.788 118.075 106.788C118.319 106.788 118.571 106.833 118.823 106.932C119.075 107.031 119.283 107.185 119.445 107.41L120.265 106.761ZM104.217 109.726L105.163 107.275L106.091 109.726H104.217ZM102.099 112.033H103.297L103.838 110.654H106.451L107.01 112.033H108.236L105.64 106.004H104.712L102.099 112.033ZM89.7898 112.033H90.8622V107.374H90.8802L93.7457 112.033H95.1063V106.004H94.034V110.519H94.016L91.2136 106.004H89.7898V112.033ZM72.1284 108.131C72.2275 107.86 72.3717 107.635 72.5519 107.437C72.7321 107.239 72.9484 107.086 73.2007 106.968C73.453 106.851 73.7323 106.797 74.0477 106.797C74.3631 106.797 74.6424 106.851 74.8948 106.968C75.1471 107.086 75.3723 107.239 75.5525 107.437C75.7328 107.635 75.8769 107.87 75.9761 108.131C76.0752 108.401 76.1292 108.689 76.1292 108.996C76.1292 109.32 76.0752 109.618 75.9761 109.888C75.8769 110.158 75.7328 110.393 75.5525 110.591C75.3634 110.789 75.1471 110.942 74.8948 111.059C74.6424 111.168 74.3541 111.222 74.0567 111.222C73.7504 111.222 73.471 111.168 73.2187 111.059C72.9664 110.951 72.7502 110.798 72.5609 110.591C72.3717 110.393 72.2365 110.158 72.1374 109.888C72.0383 109.618 71.9842 109.32 71.9842 108.996C71.9752 108.681 72.0202 108.392 72.1284 108.131ZM71.0471 110.284C71.2093 110.672 71.4345 111.005 71.7229 111.294C72.0112 111.573 72.3537 111.789 72.7412 111.951C73.1376 112.105 73.5701 112.186 74.0297 112.186C74.4983 112.186 74.9398 112.105 75.3362 111.951C75.7328 111.798 76.0752 111.573 76.3636 111.294C76.6519 111.014 76.8771 110.681 77.0393 110.284C77.2015 109.897 77.2826 109.464 77.2826 108.996C77.2826 108.518 77.2015 108.077 77.0393 107.689C76.8771 107.302 76.6519 106.968 76.3636 106.698C76.0752 106.428 75.7328 106.211 75.3362 106.067C74.9398 105.923 74.5073 105.851 74.0297 105.851C73.5611 105.851 73.1376 105.923 72.7412 106.067C72.3446 106.211 72.0022 106.428 71.7229 106.698C71.4345 106.968 71.2093 107.302 71.0471 107.689C70.8848 108.077 70.8037 108.509 70.8037 108.996C70.8037 109.464 70.8848 109.897 71.0471 110.284ZM59.495 112.033H63.6401V111.077H60.5673V109.374H63.3337V108.473H60.5673V106.941H63.4869V106.004H59.495V112.033ZM51.9799 106.491C51.7456 106.275 51.4753 106.112 51.1598 106.004C50.8445 105.896 50.5381 105.842 50.2227 105.842C49.9524 105.842 49.6821 105.878 49.4207 105.95C49.1595 106.022 48.9251 106.13 48.7179 106.275C48.5106 106.419 48.3394 106.599 48.2132 106.824C48.0871 107.05 48.0241 107.311 48.0241 107.617C48.0241 107.906 48.0691 108.14 48.1593 108.329C48.2493 108.518 48.3665 108.681 48.5106 108.807C48.6549 108.942 48.817 109.041 48.9972 109.122C49.1774 109.203 49.3577 109.266 49.5469 109.329C49.7362 109.392 49.9163 109.455 50.0875 109.51C50.2588 109.564 50.403 109.636 50.5291 109.708C50.6553 109.78 50.7544 109.879 50.8264 109.978C50.8986 110.086 50.9346 110.212 50.9346 110.375C50.9346 110.537 50.8986 110.672 50.8355 110.789C50.7724 110.897 50.6823 110.996 50.5831 111.068C50.4751 111.14 50.3579 111.195 50.2318 111.231C50.1056 111.258 49.9704 111.276 49.8533 111.276C49.619 111.276 49.3757 111.213 49.1234 111.095C48.8801 110.978 48.6818 110.816 48.5287 110.609L47.7627 111.321C47.997 111.609 48.3034 111.816 48.6819 111.961C49.0603 112.105 49.4388 112.177 49.8352 112.177C50.1326 112.177 50.4119 112.141 50.6823 112.06C50.9526 111.978 51.1779 111.861 51.3852 111.699C51.5834 111.537 51.7456 111.339 51.8627 111.095C51.9799 110.852 52.0429 110.573 52.0429 110.248C52.0429 109.951 51.9889 109.708 51.8807 109.51C51.7726 109.311 51.6284 109.149 51.4572 109.014C51.286 108.888 51.0968 108.78 50.8896 108.698C50.6823 108.617 50.4841 108.545 50.2858 108.482C50.1146 108.428 49.9614 108.383 49.8173 108.329C49.673 108.275 49.5559 108.221 49.4568 108.149C49.3577 108.077 49.2766 107.996 49.2225 107.906C49.1684 107.806 49.1324 107.689 49.1324 107.554C49.1324 107.41 49.1684 107.284 49.2315 107.176C49.2946 107.068 49.3847 106.986 49.4839 106.923C49.5829 106.86 49.7001 106.806 49.8262 106.779C49.9524 106.743 50.0785 106.734 50.2047 106.734C50.4119 106.734 50.6192 106.779 50.8264 106.878C51.0337 106.977 51.1959 107.104 51.304 107.248L51.9799 106.491ZM40.5269 105.995H39.4546V109.771C39.4546 109.951 39.4366 110.122 39.3825 110.293C39.3375 110.465 39.2654 110.618 39.1572 110.762C39.0491 110.897 38.9139 111.005 38.7427 111.095C38.5716 111.186 38.3553 111.222 38.103 111.222C37.8507 111.222 37.6344 111.177 37.4632 111.095C37.292 111.014 37.1478 110.897 37.0487 110.762C36.9406 110.627 36.8685 110.474 36.8235 110.293C36.7784 110.122 36.7513 109.942 36.7513 109.771V105.995H35.679V109.807C35.679 110.167 35.7422 110.501 35.8593 110.789C35.9854 111.086 36.1476 111.33 36.3729 111.537C36.5891 111.744 36.8505 111.897 37.1388 112.006C37.4362 112.114 37.7515 112.168 38.103 112.168C38.4454 112.168 38.7698 112.114 39.0672 112.006C39.3645 111.897 39.6168 111.735 39.8331 111.537C40.0494 111.33 40.2206 111.086 40.3467 110.789C40.4729 110.501 40.5359 110.167 40.5359 109.807V105.995H40.5269ZM21.4778 112.033H22.496V107.185H22.514L24.3162 112.033H25.0641L26.8933 107.185H26.9114V112.033H27.9747V106.004H26.2896L24.7397 110.284H24.7127L23.1448 106.004H21.4688V112.033H21.4778Z" fill="black"/>
<path d="M174.214 92.5688L175.565 89.0545L176.899 92.5688H174.214ZM171.186 95.8668H172.907L173.691 93.8844H177.439L178.242 95.8668H179.998L176.277 87.2163H174.944L171.186 95.8668ZM163.022 95.8668H169.627V94.4971H164.824L169.555 88.613V87.2163H163.094V88.5589H167.726L163.022 94.4701V95.8668ZM160.724 87.9281C160.391 87.6218 159.994 87.3875 159.544 87.2343C159.094 87.0811 158.643 87 158.21 87C157.823 87 157.435 87.0541 157.057 87.1532C156.679 87.2523 156.345 87.4145 156.047 87.6218C155.75 87.829 155.507 88.0903 155.327 88.4057C155.146 88.7211 155.047 89.0996 155.047 89.5411C155.047 89.9466 155.11 90.289 155.246 90.5593C155.372 90.8297 155.543 91.0639 155.75 91.2532C155.957 91.4424 156.192 91.5956 156.453 91.7037C156.714 91.8209 156.976 91.92 157.237 92.0011C157.507 92.0912 157.759 92.1723 158.003 92.2624C158.246 92.3435 158.462 92.4426 158.633 92.5508C158.814 92.6589 158.958 92.794 159.066 92.9382C159.174 93.0914 159.228 93.2806 159.228 93.5059C159.228 93.7402 159.183 93.9384 159.084 94.1006C158.994 94.2628 158.868 94.389 158.714 94.4971C158.562 94.6053 158.399 94.6773 158.21 94.7224C158.021 94.7675 157.84 94.7855 157.661 94.7855C157.318 94.7855 156.966 94.7044 156.616 94.5332C156.264 94.362 155.976 94.1277 155.768 93.8393L154.669 94.8666C155.012 95.2721 155.453 95.5784 155.984 95.7857C156.525 95.9929 157.075 96.1011 157.633 96.1011C158.057 96.1011 158.462 96.047 158.841 95.9299C159.22 95.8127 159.553 95.6415 159.841 95.4162C160.129 95.191 160.355 94.9026 160.526 94.5512C160.698 94.2088 160.778 93.8033 160.778 93.3347C160.778 92.9112 160.698 92.5598 160.544 92.2714C160.381 91.9831 160.184 91.7488 159.931 91.5595C159.679 91.3703 159.409 91.2171 159.111 91.109C158.814 90.9919 158.525 90.8927 158.246 90.8026C158.003 90.7305 157.777 90.6584 157.58 90.5864C157.372 90.5143 157.201 90.4242 157.057 90.3341C156.913 90.2349 156.805 90.1178 156.724 89.9826C156.642 89.8475 156.597 89.6763 156.597 89.478C156.597 89.2708 156.642 89.0815 156.742 88.9373C156.832 88.7842 156.958 88.667 157.102 88.5679C157.246 88.4778 157.408 88.4057 157.588 88.3607C157.769 88.3156 157.949 88.2976 158.129 88.2976C158.427 88.2976 158.733 88.3697 159.031 88.5138C159.328 88.658 159.553 88.8292 159.724 89.0455L160.724 87.9281ZM150.65 95.8668H152.191V87.2163H150.65V95.8668ZM138.188 95.8668H139.656V88.9193H139.684L142.27 95.8668H143.342L145.964 88.9193H145.991V95.8668H147.523V87.2163H145.108L142.882 93.3617H142.846L140.603 87.2163H138.197V95.8668H138.188ZM129.52 95.8668H135.466V94.4971H131.061V92.0551H135.025V90.7576H131.061V88.5589H135.25V87.2163H129.52V95.8668ZM118.769 95.8668H120.31V89.1897H120.337L124.437 95.8668H126.392V87.2163H124.851V93.6861H124.824L120.806 87.2163H118.769V95.8668ZM111.407 90.9468V88.5138H112.804C113.002 88.5138 113.2 88.5319 113.408 88.5589C113.615 88.5949 113.804 88.649 113.967 88.7391C114.129 88.8292 114.264 88.9464 114.372 89.0996C114.48 89.2527 114.534 89.442 114.534 89.6763C114.534 89.9376 114.48 90.1538 114.363 90.316C114.246 90.4872 114.101 90.6134 113.93 90.7035C113.759 90.7936 113.561 90.8567 113.335 90.8837C113.111 90.9108 112.894 90.9288 112.678 90.9288H111.407V90.9468ZM109.866 95.8668H111.407V92.1993H112.534L114.534 95.8668H116.39L114.083 92.0281C114.696 91.893 115.174 91.6226 115.534 91.2261C115.886 90.8297 116.066 90.316 116.066 89.6943C116.066 89.2347 115.976 88.8563 115.796 88.5319C115.615 88.2165 115.381 87.9552 115.083 87.7659C114.786 87.5677 114.444 87.4325 114.066 87.3424C113.678 87.2523 113.29 87.2163 112.876 87.2163H109.875V95.8668H109.866ZM99.747 90.271C99.8912 89.8925 100.089 89.5591 100.351 89.2708C100.612 88.9824 100.928 88.7571 101.288 88.5949C101.648 88.4327 102.054 88.3516 102.504 88.3516C102.955 88.3516 103.361 88.4327 103.73 88.5949C104.099 88.7571 104.406 88.9824 104.667 89.2708C104.928 89.5591 105.126 89.8925 105.271 90.271C105.415 90.6494 105.487 91.073 105.487 91.5145C105.487 91.9831 105.415 92.4066 105.271 92.794C105.126 93.1815 104.928 93.5149 104.658 93.8033C104.396 94.0916 104.081 94.3079 103.712 94.4701C103.343 94.6323 102.946 94.7044 102.504 94.7044C102.063 94.7044 101.666 94.6233 101.306 94.4701C100.946 94.3079 100.63 94.0916 100.369 93.8033C100.107 93.5149 99.8999 93.1815 99.7557 92.794C99.6122 92.4066 99.5397 91.9831 99.5397 91.5145C99.531 91.073 99.6028 90.6585 99.747 90.271ZM98.2062 93.3708C98.4404 93.9294 98.7648 94.407 99.1701 94.8125C99.5846 95.218 100.072 95.5334 100.639 95.7496C101.207 95.9749 101.82 96.083 102.487 96.083C103.162 96.083 103.784 95.9749 104.352 95.7496C104.919 95.5244 105.415 95.2089 105.829 94.8125C106.244 94.407 106.569 93.9294 106.803 93.3708C107.037 92.8121 107.154 92.1993 107.154 91.5235C107.154 90.8297 107.037 90.2079 106.803 89.6492C106.569 89.0905 106.244 88.622 105.829 88.2255C105.415 87.829 104.919 87.5316 104.352 87.3244C103.784 87.1081 103.162 87.009 102.487 87.009C101.82 87.009 101.198 87.1171 100.639 87.3244C100.072 87.5316 99.5846 87.838 99.1701 88.2255C98.7558 88.613 98.4404 89.0905 98.2062 89.6492C97.9719 90.2079 97.8547 90.8297 97.8547 91.5235C97.8547 92.1993 97.9719 92.8121 98.2062 93.3708ZM90.691 92.0551H92.1327C92.7635 92.0551 93.2231 92.1453 93.5384 92.3255C93.8448 92.5057 94.007 92.8211 94.007 93.2806C94.007 93.569 93.944 93.7943 93.8179 93.9655C93.6917 94.1367 93.5295 94.2719 93.3402 94.3529C93.151 94.4431 92.9347 94.4971 92.7094 94.5332C92.4842 94.5602 92.2679 94.5782 92.0787 94.5782H90.7V92.0551H90.691ZM90.691 88.4958H91.9255C92.5112 88.4958 92.9438 88.5769 93.2231 88.7391C93.5024 88.9013 93.6376 89.1807 93.6376 89.5681C93.6376 89.9466 93.5024 90.2349 93.2321 90.4332C92.9617 90.6404 92.5743 90.7395 92.0607 90.7395H90.691V88.4958ZM89.1501 95.8668H92.2679C92.6734 95.8668 93.0789 95.8218 93.4664 95.7407C93.8629 95.6505 94.2143 95.5154 94.5207 95.3171C94.827 95.1189 95.0704 94.8666 95.2596 94.5422C95.4488 94.2178 95.5389 93.8213 95.5389 93.3527C95.5389 92.767 95.3677 92.2985 95.0163 91.947C94.6648 91.5956 94.2143 91.3883 93.6736 91.3072V91.2802C94.1242 91.145 94.4847 90.9108 94.764 90.5954C95.0433 90.28 95.1785 89.8745 95.1785 89.3879C95.1785 89.0004 95.0974 88.667 94.9442 88.3877C94.791 88.1083 94.5837 87.8831 94.3404 87.7119C94.0971 87.5316 93.8088 87.4055 93.4934 87.3334C93.178 87.2613 92.8537 87.2163 92.5293 87.2163H89.1592V95.8668H89.1501ZM86.4829 91.5055H83.5544V92.749H86.4829V91.5055ZM73.2728 95.8668H74.8137V89.1897H74.8408L78.9407 95.8668H80.8961V87.2163H79.3552V93.6861H79.3282L75.3093 87.2163H73.2728V95.8668ZM64.5952 95.8668H70.5425V94.4971H66.1361V92.0551H70.11V90.7576H66.1361V88.5589H70.3262V87.2163H64.5952V95.8668ZM61.7748 87.9281C61.4414 87.6218 61.045 87.3875 60.5944 87.2343C60.1438 87.0811 59.6933 87 59.2518 87C58.8643 87 58.4768 87.0541 58.0984 87.1532C57.7199 87.2523 57.3775 87.4145 57.0891 87.6218C56.7917 87.829 56.5485 88.0903 56.3682 88.4057C56.1881 88.7211 56.0889 89.0996 56.0889 89.5411C56.0889 89.9466 56.152 90.289 56.2871 90.5593C56.4133 90.8297 56.5845 91.0639 56.7918 91.2532C56.999 91.4424 57.2333 91.5956 57.4946 91.7037C57.7559 91.8209 58.0173 91.92 58.2785 92.0011C58.5489 92.0912 58.8012 92.1723 59.0445 92.2624C59.2878 92.3435 59.5041 92.4426 59.6843 92.5508C59.8645 92.6589 60.0087 92.794 60.1078 92.9382C60.216 93.0914 60.27 93.2806 60.27 93.5059C60.27 93.7402 60.2249 93.9384 60.1258 94.1006C60.0357 94.2628 59.9096 94.389 59.7564 94.4971C59.6032 94.6053 59.441 94.6773 59.2518 94.7224C59.0625 94.7675 58.8823 94.7855 58.7021 94.7855C58.3596 94.7855 58.0083 94.7044 57.6568 94.5332C57.3054 94.362 57.0171 94.1277 56.8098 93.8393L55.7104 94.8666C56.0529 95.2721 56.4944 95.5784 57.026 95.7857C57.5667 95.9929 58.1163 96.1011 58.6751 96.1011C59.0986 96.1011 59.5041 96.047 59.8826 95.9299C60.27 95.8127 60.5944 95.6415 60.8828 95.4162C61.1711 95.191 61.3963 94.9026 61.5676 94.5512C61.7388 94.2088 61.8289 93.8033 61.8289 93.3347C61.8289 92.9112 61.7478 92.5598 61.5946 92.2714C61.4324 91.9831 61.2342 91.7488 60.9818 91.5595C60.7386 91.3703 60.4592 91.2171 60.1619 91.109C59.8645 90.9919 59.5761 90.8927 59.2968 90.8026C59.0535 90.7305 58.8282 90.6584 58.621 90.5864C58.4137 90.5143 58.2425 90.4242 58.0984 90.3341C57.9542 90.2349 57.8461 90.1178 57.765 89.9826C57.6839 89.8475 57.6388 89.6763 57.6388 89.478C57.6388 89.2708 57.6839 89.0815 57.774 88.9373C57.864 88.7842 57.9902 88.667 58.1344 88.5679C58.2785 88.4778 58.4408 88.4057 58.621 88.3607C58.8012 88.3156 58.9814 88.2976 59.1616 88.2976C59.459 88.2976 59.7654 88.3697 60.0627 88.5138C60.3601 88.658 60.5854 88.8292 60.7566 89.0455L61.7748 87.9281ZM53.5388 87.9281C53.2054 87.6218 52.8089 87.3875 52.3584 87.2343C51.9078 87.0811 51.4573 87 51.0247 87C50.6372 87 50.2498 87.0541 49.8714 87.1532C49.4929 87.2523 49.1505 87.4145 48.8621 87.6218C48.5647 87.829 48.3214 88.0903 48.1412 88.4057C47.961 88.7211 47.8619 89.0996 47.8619 89.5411C47.8619 89.9466 47.925 90.289 48.0601 90.5593C48.1863 90.8297 48.3575 91.0639 48.5647 91.2532C48.772 91.4424 49.0063 91.5956 49.2676 91.7037C49.5289 91.8209 49.7903 91.92 50.0515 92.0011C50.3219 92.0912 50.5742 92.1723 50.8175 92.2624C51.0608 92.3435 51.2771 92.4426 51.4573 92.5508C51.6375 92.6589 51.7817 92.794 51.8807 92.9382C51.9889 93.0914 52.043 93.2806 52.043 93.5059C52.043 93.7402 51.998 93.9384 51.8988 94.1006C51.8087 94.2628 51.6825 94.389 51.5294 94.4971C51.3762 94.6053 51.214 94.6773 51.0247 94.7224C50.8355 94.7675 50.6553 94.7855 50.4751 94.7855C50.1327 94.7855 49.7812 94.7044 49.4298 94.5332C49.0784 94.362 48.79 94.1277 48.5828 93.8393L47.4834 94.8666C47.8259 95.2721 48.2674 95.5784 48.7991 95.7857C49.3397 95.9929 49.8893 96.1011 50.4481 96.1011C50.8716 96.1011 51.2771 96.047 51.6555 95.9299C52.034 95.8127 52.3674 95.6415 52.6558 95.4162C52.9441 95.191 53.1693 94.9026 53.3405 94.5512C53.5118 94.2088 53.6019 93.8033 53.6019 93.3347C53.6019 92.9112 53.5208 92.5598 53.3676 92.2714C53.2144 91.9831 53.0071 91.7488 52.7548 91.5595C52.5025 91.3703 52.2322 91.2171 51.9348 91.109C51.6375 90.9919 51.3491 90.8927 51.0698 90.8026C50.8265 90.7305 50.6012 90.6584 50.394 90.5864C50.1867 90.5143 50.0155 90.4242 49.8714 90.3341C49.7271 90.2349 49.6191 90.1178 49.538 89.9826C49.4569 89.8475 49.4118 89.6763 49.4118 89.478C49.4118 89.2708 49.4569 89.0815 49.5559 88.9373C49.646 88.7842 49.7722 88.667 49.9164 88.5679C50.0606 88.4688 50.2227 88.4057 50.403 88.3607C50.5832 88.3156 50.7634 88.2976 50.9437 88.2976C51.241 88.2976 51.5474 88.3697 51.8447 88.5138C52.1421 88.658 52.3674 88.8292 52.5386 89.0455L53.5388 87.9281ZM41.4011 95.8668H42.9419V92.1182L46.1948 87.2253H44.4107L42.212 90.8657L40.0404 87.2253H38.1571L41.41 92.1182V95.8668H41.4011ZM29.0651 95.8668H30.6059V92.0281H34.6518V95.8668H36.1837V87.2163H34.6428V90.7125H30.5969V87.2163H29.0651V95.8668ZM22.6492 95.8668H24.1901V88.5589H26.8393V87.2163H20V88.5589H22.6492V95.8668Z" fill="black"/>
</g>
<defs>
<clipPath id="clip0">
<rect width="160" height="25.2217" fill="white" transform="translate(20 87)"/>
</clipPath>
</defs>
</svg>
