<svg width="200" height="200" viewBox="0 0 200 200" fill="none" xmlns="http://www.w3.org/2000/svg">
<rect width="200" height="200" fill="white"/>
<path d="M45.8028 74.2723C49.7841 74.4977 49.8592 81.2207 45.1643 80.8827C45.1643 83.7747 45.1643 86.8545 45.1643 89.7841C45.1643 89.7841 55.1925 89.7841 55.2301 89.7841V95.4179H45.1643V106.911C46.2535 106.873 47.0423 106.873 48.0939 106.873C47.0047 112.958 45.9531 119.38 44.7887 125.69C44.2629 128.094 44.338 130.798 42.1972 130.798C40.5446 130.798 40.6197 128.995 39.9061 125.615C39.0798 121.07 38.9296 120.357 38.9672 120.319C37.7653 113.634 37.8404 113.258 36.5634 106.911C37.3521 106.911 39.4554 106.911 39.4554 106.911C39.4554 106.911 39.4554 95.4179 39.4554 95.3803H29.4272V89.7465C32.7324 89.7465 36.1503 89.7465 39.4554 89.7465V80.9578C34.9859 81.108 34.7606 74.6855 38.8169 74.2723C39.6808 72.432 40.3193 68.0376 42.3474 68.0376C44.6385 68.0376 44.7887 72.3568 45.8028 74.2723Z" fill="black"/>
<path d="M26.986 86.7418C27.0235 87.9812 26.9484 94.2159 26.9484 97.9343C26.9484 97.9343 26.047 97.3333 25.8217 97.1831C24.9954 96.6197 24.3944 96.2817 23.493 95.6432C22.1785 94.7418 20.1879 93.953 20.1879 92.3756C20.1503 90.9859 21.2019 90.5727 24.6573 88.2441C26.047 87.3051 26.6479 86.9296 26.986 86.7418Z" fill="black"/>
<path d="M57.5963 86.7042C58.7606 87.4178 62.1409 89.5211 63.6432 90.723C66.1221 93.0516 62.1033 94.9671 60.601 96.0188C59.5493 96.7324 58.5352 97.4085 57.5587 97.9718V86.7042H57.5963Z" fill="black"/>
<path d="M151.681 111.681C152.019 111.981 152.394 112.244 152.808 112.432C152.432 113.108 151.756 113.634 151.155 114.16C148.751 116.225 145.408 117.991 141.315 118.329C134.291 118.892 127.681 115.662 127.005 108.864C126.554 104.432 128.732 100.977 131.174 99.0986C133.916 96.9578 137.747 95.5681 142.291 95.3052C145.484 95.1174 149.164 95.4554 151.305 96.5822C152.169 97.0704 153.183 98.0845 153.033 99.324C152.808 101.164 149.991 101.577 148.188 100.901C145.559 99.9249 144.507 96.8827 140.977 96.9578C138.761 96.9953 136.845 98.3474 135.831 99.6244C134.854 100.826 133.991 102.967 133.803 104.845C133.239 110.178 136.019 115.324 141.39 115.737C146.272 116.15 148.901 113.746 151.681 111.681Z" fill="black"/>
<path d="M178.573 111.681C178.911 111.981 179.286 112.244 179.7 112.432C179.324 113.108 178.648 113.634 178.047 114.16C175.606 116.263 172.263 117.991 168.207 118.329C159.831 119.005 152.995 114.385 153.897 106.423C154.235 103.38 156 100.751 157.991 99.1361C160.732 96.9577 164.751 95.5305 169.221 95.2676C172.451 95.0798 176.207 95.4554 178.235 96.5446C179.023 96.9953 180.225 97.9718 179.887 99.5117C179.549 101.052 176.92 101.502 175.192 100.864C172.188 99.7746 170.61 95.9812 166.253 97.2206C160.394 98.9108 158.704 108.901 163.512 113.746C164.901 114.648 166.291 115.549 168.282 115.7C172.977 116.15 176.094 113.634 178.573 111.681Z" fill="black"/>
<path d="M87.6057 106.761C85.9155 107.662 81.8968 109.014 80.5447 110.329C79.3052 111.53 79.155 114.235 80.5447 115.549C83.1738 117.39 85.9531 114.986 87.9062 114.047C87.8686 111.606 88.0188 108.939 87.831 106.61C87.7184 106.61 87.6808 106.723 87.6057 106.761ZM99.3615 114.46C99.5493 114.761 99.662 115.061 99.8874 115.286C98.0094 116.826 93.7277 119.643 90.047 118.629C88.8451 118.291 88.0188 117.164 87.9437 115.512C85.6902 116.789 83.662 118.93 79.4555 118.779C76.1878 118.667 73.0705 117.202 72.6949 114.009C72.3944 111.493 74.0846 109.765 75.662 109.014C79.0423 107.324 84.9766 107.099 87.9437 104.995C87.9813 102.178 88.0939 99.4366 85.9907 98.2347C84.1503 97.1831 79.5306 97.5587 79.493 99.9624C79.493 100.714 79.9062 101.014 80.1691 101.615C78.554 102.066 77.2019 102.592 75.5493 103.117C75.1362 103.268 74.2348 103.643 73.9719 103.568C73.2958 103.418 73.0329 102.103 73.1456 101.54C73.2958 100.714 74.047 99.9248 74.5728 99.4366C76.7512 97.4084 80.6573 95.9812 84.4883 95.6432C88.5071 95.3051 92.3005 96.5446 93.7277 98.7605C94.9296 100.638 94.4789 105.521 94.4789 108.676C94.4789 110.253 93.9907 115.174 95.3052 115.737C96.77 116.376 98.4226 114.836 99.3615 114.46Z" fill="black"/>
<path d="M109.878 97.3709C107.061 98.0845 105.822 100.864 105.333 104.019H117.915C117.69 99.6244 114.61 96.1314 109.878 97.3709ZM125.803 104.094V105.521H105.258C105.408 108.939 106.61 111.756 108.751 113.484C110.141 114.61 112.207 115.437 114.573 115.587C118.742 115.925 121.746 113.822 124.188 111.869C124.676 112.094 124.977 112.469 125.39 112.695C122.573 116.939 116.225 119.268 109.164 118.667C105.671 118.366 102.254 116.601 100.601 114.197C99.0235 111.906 98.3098 108.3 98.9483 105.183C99.399 103.005 100.751 100.939 102.141 99.5868C104.695 97.108 108.338 95.9436 112.807 95.7183C117.577 95.4929 121.484 97.2206 123.249 100.263C124.075 101.653 124.188 103.418 125.803 104.094Z" fill="black"/>
<path d="M128.845 121.559C128.883 121.822 128.808 122.498 128.77 122.685C128.394 125.052 128.432 124.639 128.094 126.742C128.094 126.817 127.906 127.831 127.643 128.958C127.944 129.108 128.282 128.507 128.507 128.394C128.582 128.357 128.582 128.545 128.657 128.582C128.394 128.845 127.869 129.371 127.418 129.559C127.268 129.596 127.042 129.596 126.967 129.371C126.629 129.07 127.117 126.854 127.38 125.427C127.606 124.263 127.794 123.249 127.944 122.235C127.756 122.197 127.343 122.535 127.343 122.535C127.268 122.46 127.193 122.46 127.117 122.347C127.568 122.009 128.47 121.596 128.845 121.559Z" fill="black"/>
<path d="M145.221 121.671H146.197C145.784 122.498 145.333 123.249 144.845 123.962H144.394C144.582 123.136 144.995 122.535 145.221 121.671Z" fill="black"/>
<path d="M108.526 123.061C108.601 123.061 108.676 123.061 108.751 123.061C108.714 123.624 108.413 124.075 108.338 124.563C108.526 124.563 108.601 124.526 109.127 124.563V125.089C108.864 125.089 108.338 125.089 108.188 125.089C108 126.028 107.737 127.568 107.624 128.357C107.587 128.582 107.549 128.77 107.624 128.883C108.075 128.92 108.451 128.207 108.563 128.169C108.639 128.169 108.676 128.244 108.789 128.282C108.338 128.845 107.474 129.709 106.873 129.446C106.836 129.408 106.685 129.146 106.723 128.958C106.798 128.131 107.249 126.291 107.324 125.089H106.873C106.873 125.014 106.873 124.789 106.911 124.789C107.099 124.789 107.211 124.714 107.399 124.526C107.512 124.413 107.775 124.188 107.962 124C108.188 123.737 108.338 123.437 108.526 123.061Z" fill="black"/>
<path d="M98.6102 125.127C98.3849 124.939 98.4225 124.939 98.0844 125.052C97.5962 125.465 97.183 126.404 97.1455 127.455C97.1079 127.944 97.2581 128.582 97.5211 128.958C97.8215 129.07 98.0844 128.995 98.2722 128.808C98.8356 128.244 99.0985 126.854 98.9107 125.84C98.8732 125.502 98.7605 125.315 98.6102 125.127ZM99.0609 124.526C99.2863 124.563 99.5492 124.826 99.6994 125.127C100.037 126.028 99.8872 127.493 99.2863 128.319C98.6854 128.958 97.8591 129.671 97.1079 129.484C96.1314 129.221 96.2065 127.493 96.3567 127.005C96.507 126.479 96.5445 126.366 96.7699 126.028C97.183 125.427 97.6337 124.939 98.0844 124.714C98.2722 124.639 98.6102 124.451 99.0609 124.526Z" fill="black"/>
<path d="M102.742 124.563C102.967 124.714 102.742 125.765 102.592 126.892C102.629 126.854 102.629 126.892 102.667 126.854C103.08 126.366 103.268 126.028 103.793 125.277C104.507 124.563 104.92 124.225 105.258 124.714C105.333 124.826 105.258 125.502 105.221 125.915C105.07 126.854 104.808 127.944 104.582 128.77C104.582 128.845 104.695 128.808 104.77 128.808C104.958 128.732 105.108 128.545 105.521 128.019C105.521 128.056 105.709 128.169 105.671 128.169C104.845 129.296 104.169 129.746 103.793 129.408C103.418 129.033 104.657 125.502 104.319 125.277C104.056 125.052 102.667 127.042 102.479 127.493C102.404 127.643 102.178 128.695 102.141 129.446C101.878 129.446 101.577 129.446 101.277 129.446C101.427 128.056 101.953 126.028 101.916 125.502C101.803 125.39 101.578 125.84 101.39 126.066C101.39 126.066 101.127 125.991 101.089 125.991C101.315 125.653 101.653 125.202 101.991 124.826C102.141 124.676 102.291 124.526 102.441 124.413C102.516 124.488 102.592 124.451 102.742 124.563Z" fill="black"/>
<path d="M111.23 124.488C111.418 124.563 111.493 124.563 111.493 124.826C111.53 125.315 111.155 126.441 111.042 127.268C110.967 127.869 111.042 127.718 111.042 127.869C111.455 126.93 111.906 124.563 112.807 124.451C113.033 124.451 113.07 124.488 113.108 124.563C113.296 124.826 113.07 125.277 112.958 125.465C112.732 125.465 112.469 125.315 112.282 125.465C111.831 125.803 111.305 128.094 110.779 129.408C110.479 129.408 110.253 129.446 109.991 129.408C109.953 128.845 110.554 126.103 110.592 125.803C110.629 125.502 110.629 125.315 110.554 125.352C110.404 125.127 110.216 125.653 110.028 125.728C109.991 125.765 109.878 125.653 109.84 125.577C110.028 125.465 110.516 124.563 111.23 124.488Z" fill="black"/>
<path d="M123.699 127.042C124.188 126.817 124.563 126.667 124.901 126.216C125.277 125.69 125.202 124.901 124.826 124.939C124.075 125.239 123.737 126.141 123.699 127.042ZM125.765 124.789C126.479 126.178 124.714 126.93 123.549 127.268C123.399 127.981 123.437 128.808 123.925 129.07C124.751 129.183 124.939 128.845 125.465 128.582C125.465 128.62 125.615 128.695 125.577 128.732C124.676 129.596 123.249 130.047 122.723 128.995C122.009 127.606 123.399 124.225 125.465 124.601C125.577 124.639 125.728 124.714 125.765 124.789Z" fill="black"/>
<path d="M155.624 125.615C155.324 125.765 155.099 125.69 154.986 125.502C154.873 125.315 154.723 125.089 154.385 125.127C154.16 125.352 154.009 125.765 153.934 125.991C153.521 127.455 153.296 128.92 153.897 129.07C154.498 129.258 154.836 128.582 155.136 128.394C155.211 128.357 155.286 128.432 155.399 128.432C154.535 129.671 153.033 130.009 152.657 128.883C152.169 127.38 153.822 124.038 155.324 124.638C155.587 124.751 155.85 125.277 155.624 125.615Z" fill="black"/>
<path d="M114.498 128.695C114.948 128.695 115.587 127.944 115.963 127.455C116 127.418 116.225 125.878 116.301 125.352C115.024 125.352 114.46 126.479 114.385 127.681C114.385 128.056 114.423 128.432 114.498 128.695ZM117.315 124.601C117.127 125.991 116.901 127.38 116.639 128.695C116.676 128.732 116.714 128.77 116.751 128.77C116.939 128.77 117.089 128.394 117.277 128.394C117.277 128.432 117.39 128.469 117.352 128.507C117.052 128.92 116.563 129.521 115.887 129.559C115.587 129.183 115.85 128.62 115.887 128.094C115.587 128.357 114.498 129.521 114.16 129.521C113.747 129.521 113.446 129.033 113.559 128.094C113.784 126.404 114.948 124.451 117.315 124.601Z" fill="black"/>
<path d="M95.5305 122.347C95.3803 123.061 95.3803 123.437 95.1925 124.263C95.1925 124.263 94.8169 124.3 94.8169 124.263C94.7794 123.812 94.8169 123.512 94.7043 123.211C94.5165 122.685 94.1409 122.498 93.5775 122.31C90.6479 121.859 88.8075 125.427 89.8592 127.906C90.723 130.009 93.6526 129.333 94.5165 127.343C94.5165 127.343 94.8545 127.305 94.8169 127.38C94.7418 128.056 94.4038 128.732 94.3287 129.408C93.5399 129.258 92.1878 129.746 90.8733 129.559C88.2442 129.221 87.7559 125.803 89.1831 123.812C90.5728 121.934 92.9766 121.559 95.5305 122.347Z" fill="black"/>
<path d="M148.977 124.638C149.202 124.789 148.977 125.84 148.826 126.967C148.864 126.93 148.864 126.967 148.901 126.93C149.315 126.441 149.502 126.103 150.028 125.352C150.742 124.638 151.155 124.3 151.493 124.789C151.568 124.901 151.493 125.577 151.455 125.991C151.305 126.93 151.042 128.019 150.817 128.845C150.817 128.92 150.93 128.883 151.005 128.883C151.193 128.807 151.343 128.62 151.756 128.094C151.756 128.131 151.944 128.244 151.906 128.244C151.08 129.371 150.404 129.822 150.028 129.484C149.653 129.108 150.892 125.577 150.554 125.352C150.291 125.127 148.901 127.117 148.714 127.568C148.639 127.718 148.413 128.77 148.376 129.521C148.113 129.521 147.812 129.521 147.512 129.521C147.662 128.131 148.188 126.103 148.15 125.577C148.038 125.465 147.812 125.915 147.624 126.141C147.624 126.141 147.362 126.066 147.324 126.066C147.549 125.728 147.887 125.277 148.225 124.901C148.376 124.751 148.526 124.601 148.676 124.488C148.789 124.563 148.826 124.563 148.977 124.638Z" fill="black"/>
<path d="M162.272 124.601C162.46 124.676 162.535 124.676 162.535 124.939C162.573 125.427 162.197 126.554 162.085 127.38C162.009 127.981 162.085 127.831 162.085 127.981C162.498 127.042 162.948 124.676 163.85 124.563C164.075 124.563 164.113 124.601 164.15 124.676C164.338 124.939 164.15 125.39 164 125.577C163.775 125.577 163.512 125.427 163.324 125.577C162.873 125.916 162.347 128.207 161.822 129.521C161.521 129.521 161.296 129.559 161.033 129.521C160.995 128.958 161.596 126.216 161.634 125.916C161.671 125.615 161.671 125.427 161.596 125.465C161.446 125.239 161.258 125.765 161.07 125.84C161.033 125.878 160.92 125.765 160.883 125.728C161.07 125.578 161.559 124.676 162.272 124.601Z" fill="black"/>
<path d="M141.427 122.385C141.277 123.099 141.277 123.474 141.089 124.3C141.089 124.3 140.714 124.338 140.714 124.3C140.676 123.85 140.714 123.549 140.601 123.249C140.413 122.723 140.038 122.535 139.474 122.347C136.545 121.897 134.704 125.465 135.756 127.944C136.62 130.047 139.549 129.371 140.413 127.38C140.413 127.38 140.751 127.343 140.714 127.418C140.638 128.094 140.3 128.77 140.225 129.446C139.437 129.296 138.084 129.784 136.77 129.596C134.141 129.258 133.653 125.84 135.08 123.85C136.469 121.972 138.873 121.596 141.427 122.385Z" fill="black"/>
<path d="M143.305 128.77C143.756 128.77 144.394 128.019 144.77 127.531C144.808 127.493 145.033 125.953 145.108 125.427C143.831 125.427 143.268 126.554 143.193 127.756C143.193 128.131 143.23 128.507 143.305 128.77ZM146.122 124.676C145.934 126.066 145.709 127.455 145.446 128.77C145.484 128.808 145.521 128.845 145.559 128.845C145.747 128.845 145.897 128.469 146.085 128.469C146.085 128.507 146.197 128.545 146.16 128.582C145.859 128.995 145.371 129.596 144.695 129.634C144.394 129.258 144.657 128.695 144.695 128.169C144.394 128.432 143.305 129.596 142.967 129.596C142.554 129.596 142.254 129.108 142.366 128.169C142.592 126.479 143.756 124.526 146.122 124.676Z" fill="black"/>
<path d="M157.878 127.005C158.366 126.779 158.742 126.629 159.08 126.178C159.455 125.653 159.38 124.864 159.005 124.901C158.253 125.239 157.915 126.141 157.878 127.005ZM159.944 124.789C160.657 126.178 158.892 126.93 157.728 127.268C157.577 127.981 157.615 128.808 158.103 129.07C158.93 129.183 159.117 128.845 159.643 128.582C159.643 128.62 159.793 128.695 159.718 128.732C158.817 129.596 157.39 130.047 156.864 128.995C156.15 127.606 157.54 124.225 159.606 124.601C159.756 124.639 159.906 124.714 159.944 124.789Z" fill="black"/>
</svg>
