<svg width="200" height="200" viewBox="0 0 200 200" fill="none" xmlns="http://www.w3.org/2000/svg">
<rect width="200" height="200" fill="white"/>
<g clip-path="url(#clip0)">
<path fill-rule="evenodd" clip-rule="evenodd" d="M111.077 108.328V113.163C110.642 113.423 110.116 113.624 109.5 113.764C108.883 113.904 108.254 113.975 107.611 113.975C106.72 113.975 105.915 113.834 105.194 113.553C104.474 113.273 103.86 112.888 103.353 112.399C102.845 111.91 102.456 111.328 102.187 110.652C101.918 109.976 101.783 109.238 101.783 108.437C101.783 107.532 101.943 106.708 102.265 105.965C102.586 105.221 103.018 104.582 103.562 104.046C104.106 103.511 104.738 103.095 105.459 102.798C106.179 102.502 106.938 102.354 107.736 102.354C108.005 102.354 108.287 102.372 108.583 102.408C108.878 102.445 109.171 102.499 109.461 102.572C109.751 102.645 110.031 102.731 110.3 102.83C110.569 102.928 110.813 103.045 111.031 103.18L110.098 104.74C109.953 104.647 109.779 104.566 109.577 104.499C109.375 104.431 109.165 104.371 108.948 104.319C108.73 104.267 108.515 104.228 108.303 104.202C108.09 104.176 107.891 104.163 107.705 104.163C107.176 104.163 106.671 104.27 106.189 104.483C105.707 104.696 105.28 104.985 104.907 105.349C104.534 105.713 104.236 106.147 104.013 106.651C103.79 107.155 103.679 107.694 103.679 108.266C103.679 108.785 103.777 109.279 103.974 109.747C104.171 110.215 104.446 110.629 104.798 110.987C105.15 111.346 105.57 111.632 106.057 111.845C106.544 112.059 107.078 112.165 107.658 112.165C107.865 112.165 108.124 112.147 108.435 112.111C108.746 112.074 109.041 112.009 109.321 111.916V109.981H107.207V108.328H111.077ZM117.481 113.975C116.869 113.975 116.297 113.873 115.763 113.67C115.23 113.468 114.766 113.184 114.372 112.82C113.978 112.456 113.668 112.017 113.44 111.502C113.212 110.987 113.098 110.418 113.098 109.794V102.479H114.994V109.747C114.994 110.08 115.059 110.392 115.188 110.683C115.318 110.974 115.494 111.229 115.717 111.448C115.939 111.666 116.201 111.84 116.502 111.97C116.802 112.1 117.128 112.165 117.481 112.165C117.833 112.165 118.162 112.1 118.468 111.97C118.773 111.84 119.04 111.666 119.268 111.448C119.496 111.229 119.675 110.974 119.804 110.683C119.934 110.392 119.999 110.08 119.999 109.747V102.479H121.895V109.794C121.895 110.418 121.781 110.987 121.553 111.502C121.325 112.017 121.011 112.456 120.613 112.82C120.214 113.184 119.745 113.468 119.206 113.67C118.667 113.873 118.092 113.975 117.481 113.975ZM124.397 113.85V102.479H131.92V104.21H126.293V107.267H131.298V109.045H126.293V112.072H132.137V113.85H124.397ZM134.018 113.85V102.479H137.22C137.841 102.479 138.409 102.562 138.921 102.728C139.434 102.895 139.87 103.134 140.227 103.446C140.585 103.758 140.862 104.142 141.059 104.6C141.255 105.057 141.354 105.572 141.354 106.144C141.354 106.456 141.323 106.768 141.261 107.08C141.198 107.392 141.1 107.694 140.965 107.985C140.831 108.276 140.654 108.544 140.437 108.788C140.219 109.032 139.96 109.243 139.66 109.42C139.888 109.784 140.11 110.14 140.328 110.488C140.546 110.837 140.766 111.188 140.989 111.541C141.211 111.895 141.442 112.259 141.68 112.633C141.919 113.007 142.178 113.413 142.457 113.85H140.173C139.706 113.122 139.266 112.433 138.852 111.783C138.437 111.133 138.038 110.517 137.655 109.935H135.914V113.85H134.018ZM135.914 108.141H137.437C137.831 108.141 138.157 108.073 138.416 107.938C138.675 107.803 138.883 107.639 139.038 107.447C139.193 107.254 139.302 107.046 139.364 106.823C139.427 106.599 139.458 106.394 139.458 106.207C139.458 106.03 139.429 105.83 139.372 105.606C139.315 105.382 139.212 105.172 139.061 104.974C138.911 104.777 138.706 104.61 138.447 104.475C138.188 104.34 137.857 104.272 137.453 104.272H135.914V108.141ZM153.912 102.479V114.38C153.84 114.286 153.679 114.115 153.43 113.865C153.182 113.616 152.876 113.317 152.513 112.968C152.151 112.62 151.749 112.235 151.309 111.814C150.868 111.393 150.42 110.967 149.964 110.535C149.508 110.104 149.063 109.68 148.628 109.264C148.193 108.848 147.796 108.466 147.439 108.117C147.081 107.769 146.781 107.473 146.537 107.228C146.294 106.984 146.136 106.815 146.063 106.721C146.053 106.7 146.011 106.646 145.939 106.558C145.866 106.469 145.804 106.389 145.752 106.316L145.799 106.815V113.85H143.903V101.964C143.975 102.057 144.136 102.226 144.385 102.471C144.633 102.715 144.939 103.009 145.302 103.352C145.664 103.695 146.066 104.07 146.506 104.475C146.947 104.881 147.395 105.294 147.851 105.715C148.307 106.136 148.752 106.552 149.187 106.963C149.622 107.374 150.021 107.748 150.384 108.086C150.747 108.424 151.05 108.713 151.293 108.952C151.537 109.191 151.695 109.357 151.767 109.451L152.063 109.888L152.016 109.357V102.479H153.912ZM156.523 102.479H158.435V113.85H156.523V102.479ZM169.579 113.007C169.455 113.091 169.281 113.189 169.058 113.304C168.836 113.418 168.571 113.525 168.266 113.624C167.96 113.722 167.615 113.806 167.232 113.873C166.849 113.941 166.439 113.975 166.004 113.975C165.113 113.975 164.315 113.821 163.611 113.514C162.906 113.208 162.31 112.794 161.823 112.274C161.336 111.754 160.963 111.146 160.704 110.449C160.445 109.753 160.316 109.019 160.316 108.25C160.316 107.397 160.471 106.61 160.782 105.887C161.093 105.164 161.515 104.54 162.049 104.015C162.582 103.49 163.204 103.082 163.914 102.791C164.623 102.499 165.382 102.354 166.191 102.354C166.502 102.354 166.815 102.377 167.131 102.424C167.447 102.471 167.745 102.531 168.025 102.603C168.304 102.676 168.551 102.759 168.763 102.853C168.975 102.947 169.128 103.045 169.221 103.149C169.128 103.295 169.056 103.414 169.004 103.508C168.952 103.602 168.898 103.698 168.841 103.797C168.784 103.895 168.722 104.007 168.654 104.132C168.587 104.257 168.491 104.428 168.367 104.647C168.242 104.564 168.092 104.491 167.916 104.428C167.74 104.366 167.556 104.317 167.364 104.28C167.172 104.244 166.978 104.215 166.781 104.194C166.584 104.174 166.408 104.163 166.253 104.163C165.673 104.163 165.136 104.272 164.644 104.491C164.152 104.709 163.727 104.998 163.37 105.356C163.012 105.715 162.733 106.134 162.53 106.612C162.328 107.09 162.227 107.584 162.227 108.094C162.227 108.593 162.323 109.079 162.515 109.552C162.707 110.026 162.976 110.444 163.323 110.808C163.67 111.172 164.082 111.466 164.559 111.689C165.035 111.913 165.564 112.025 166.144 112.025C166.476 112.025 166.797 111.991 167.108 111.923C167.419 111.856 167.693 111.78 167.931 111.697C168.17 111.614 168.364 111.531 168.514 111.448C168.665 111.364 168.745 111.307 168.755 111.276L169.579 113.007ZM177.956 113.85C177.925 113.777 177.871 113.647 177.793 113.46C177.715 113.273 177.62 113.044 177.506 112.773C177.392 112.503 177.267 112.204 177.133 111.877C176.998 111.549 176.858 111.208 176.713 110.855H172.812L171.568 113.85H169.688C169.729 113.756 169.828 113.525 169.983 113.156C170.138 112.786 170.333 112.329 170.566 111.783C170.799 111.237 171.058 110.629 171.343 109.958C171.628 109.287 171.921 108.603 172.221 107.907C172.522 107.21 172.814 106.526 173.099 105.856C173.384 105.185 173.643 104.577 173.876 104.031C174.11 103.485 174.304 103.027 174.459 102.658C174.615 102.289 174.713 102.057 174.755 101.964C174.796 102.057 174.897 102.289 175.058 102.658C175.218 103.027 175.415 103.485 175.648 104.031C175.881 104.577 176.14 105.185 176.425 105.856C176.71 106.526 177.003 107.21 177.304 107.907C177.604 108.603 177.897 109.287 178.182 109.958C178.467 110.629 178.726 111.237 178.959 111.783C179.192 112.329 179.386 112.786 179.542 113.156C179.697 113.525 179.796 113.756 179.837 113.85H177.956ZM173.465 109.248H176.045L174.926 106.534C174.915 106.524 174.889 106.454 174.848 106.324C174.806 106.194 174.775 106.077 174.755 105.973C174.734 106.077 174.703 106.194 174.661 106.324C174.62 106.454 174.599 106.524 174.599 106.534L173.465 109.248Z" fill="black"/>
<path fill-rule="evenodd" clip-rule="evenodd" d="M102.147 96.3016V88.077H104.385C104.814 88.077 105.208 88.1338 105.566 88.2472C105.924 88.3607 106.233 88.5289 106.493 88.752C106.753 88.9751 106.955 89.2474 107.098 89.5688C107.241 89.8902 107.312 90.2589 107.312 90.6749C107.312 90.9018 107.29 91.1268 107.245 91.3499C107.199 91.573 107.126 91.7885 107.024 91.9965C106.922 92.2045 106.793 92.3973 106.634 92.575C106.476 92.7528 106.284 92.9021 106.058 93.0231C106.359 93.4996 106.687 94.0271 107.041 94.6057C107.395 95.1842 107.753 95.7495 108.115 96.3016H106.634C106.484 96.0672 106.327 95.8214 106.165 95.5642C106.003 95.3071 105.841 95.0519 105.679 94.7985C105.517 94.5451 105.359 94.2956 105.204 94.0498C105.05 93.804 104.905 93.5752 104.769 93.3635H103.39V96.3016H102.147ZM103.39 92.195H104.509C104.811 92.195 105.063 92.144 105.267 92.0419C105.47 91.9398 105.63 91.8131 105.747 91.6618C105.864 91.5106 105.947 91.348 105.996 91.174C106.045 91.0001 106.069 90.8413 106.069 90.6976C106.069 90.5539 106.045 90.3969 105.996 90.2268C105.947 90.0566 105.862 89.8978 105.741 89.7503C105.621 89.6028 105.461 89.48 105.261 89.3816C105.061 89.2833 104.814 89.2342 104.52 89.2342H103.39V92.195ZM109.245 96.3016V88.077H114.626V89.2001H110.489V91.6051H114.174V92.7509H110.489V95.1558H114.784V96.3016H109.245ZM117.463 92.195H118.582C118.884 92.195 119.136 92.1421 119.339 92.0362C119.543 91.9303 119.703 91.8017 119.82 91.6505C119.937 91.4992 120.02 91.3366 120.069 91.1627C120.118 90.9887 120.142 90.8337 120.142 90.6976C120.142 90.5539 120.118 90.3969 120.069 90.2268C120.02 90.0566 119.935 89.8978 119.814 89.7503C119.694 89.6028 119.534 89.48 119.334 89.3816C119.134 89.2833 118.887 89.2342 118.593 89.2342H117.463V92.195ZM116.22 96.3016V88.077H118.458C118.887 88.077 119.281 88.1338 119.639 88.2472C119.997 88.3607 120.306 88.5289 120.566 88.752C120.826 88.9751 121.027 89.2474 121.171 89.5688C121.314 89.8902 121.385 90.2589 121.385 90.6749C121.385 91.0001 121.336 91.3234 121.238 91.6448C121.141 91.9662 120.982 92.2536 120.764 92.507C120.545 92.7603 120.259 92.9664 119.905 93.1252C119.55 93.284 119.121 93.3635 118.616 93.3635H117.463V96.3016H116.22ZM122.742 96.3016V88.077H128.122V89.2001H123.985V91.6051H127.67V92.7509H123.985V95.1558H128.281V96.3016H122.742ZM136.905 88.077V96.676C136.8 96.5398 136.596 96.3205 136.295 96.018L135.255 94.9743C134.863 94.5811 134.447 94.1689 134.006 93.7378C133.565 93.3067 133.149 92.8965 132.757 92.507C132.365 92.1175 132.022 91.7696 131.728 91.4633C131.434 91.157 131.238 90.9396 131.14 90.811L130.926 90.5161L130.96 90.8791V96.3016H129.716V87.6913C129.799 87.7972 129.937 87.9485 130.129 88.1451C130.321 88.3417 130.547 88.5705 130.807 88.8314C131.067 89.0924 131.353 89.3741 131.666 89.6766C131.979 89.9791 132.295 90.2854 132.616 90.5955C132.936 90.9055 133.252 91.2099 133.565 91.5087C133.878 91.8074 134.164 92.0853 134.424 92.3425C134.684 92.5996 134.908 92.8265 135.097 93.0231C135.285 93.2198 135.417 93.3672 135.492 93.4656L135.707 93.7832L135.673 93.3975V88.077H136.905ZM143.608 88.5308L143.167 89.5405C142.858 89.427 142.551 89.3363 142.246 89.2682C141.941 89.2001 141.649 89.1661 141.37 89.1661C140.895 89.1661 140.517 89.2644 140.234 89.461C139.952 89.6577 139.81 89.9072 139.81 90.2098C139.81 90.4669 139.912 90.673 140.115 90.828C140.319 90.9831 140.571 91.123 140.873 91.2478C141.174 91.3725 141.502 91.4973 141.856 91.6221C142.21 91.7469 142.538 91.9076 142.84 92.1042C143.141 92.3009 143.394 92.5486 143.597 92.8473C143.8 93.146 143.902 93.5298 143.902 93.9987C143.902 94.3618 143.836 94.6888 143.704 94.98C143.573 95.2712 143.377 95.5226 143.117 95.7344C142.857 95.9462 142.533 96.1088 142.144 96.2222C141.756 96.3356 141.302 96.3924 140.782 96.3924C140.451 96.3924 140.151 96.3697 139.884 96.3243C139.616 96.2789 139.375 96.2203 139.16 96.1485C138.946 96.0766 138.757 95.9991 138.595 95.9159C138.433 95.8327 138.296 95.7571 138.183 95.689L138.725 94.6113C139.027 94.7853 139.362 94.9252 139.731 95.0311C140.1 95.1369 140.436 95.1899 140.737 95.1899C140.888 95.1899 141.074 95.171 141.297 95.1332C141.519 95.0953 141.732 95.0292 141.935 94.9346C142.139 94.8401 142.314 94.7134 142.461 94.5546C142.608 94.3958 142.681 94.1954 142.681 93.9534C142.681 93.734 142.623 93.5469 142.506 93.3918C142.389 93.2368 142.235 93.1007 142.043 92.9834C141.851 92.8662 141.632 92.7603 141.387 92.6658C141.142 92.5713 140.892 92.4729 140.635 92.3708C140.379 92.2687 140.129 92.161 139.884 92.0475C139.639 91.9341 139.42 91.7961 139.228 91.6335C139.036 91.4709 138.882 91.2818 138.765 91.0663C138.648 90.8507 138.59 90.5917 138.59 90.2892C138.59 90.0093 138.646 89.7333 138.759 89.461C138.872 89.1888 139.042 88.9468 139.268 88.735C139.494 88.5233 139.775 88.3531 140.11 88.2245C140.445 88.096 140.835 88.0317 141.28 88.0317C141.551 88.0317 141.817 88.0544 142.077 88.0997C142.337 88.1451 142.572 88.1962 142.783 88.2529C142.994 88.3096 143.173 88.3644 143.32 88.4174C143.467 88.4703 143.563 88.5081 143.608 88.5308ZM150.379 96.3016C150.341 96.2184 150.289 96.0974 150.221 95.9386C150.153 95.7798 150.076 95.5964 149.989 95.3884C149.903 95.1804 149.808 94.9535 149.707 94.7077C149.605 94.462 149.501 94.2067 149.396 93.942H146.502L145.53 96.3016H144.309L147.96 87.6913C148.005 87.7972 148.086 87.9901 148.203 88.2699C148.32 88.5497 148.459 88.8844 148.621 89.2739C148.783 89.6634 148.964 90.0944 149.164 90.5671C149.364 91.0398 149.567 91.5181 149.774 92.0022C149.982 92.4862 150.185 92.9626 150.385 93.4315C150.585 93.9004 150.767 94.3315 150.933 94.7248C151.099 95.118 151.24 95.4527 151.357 95.7287C151.474 96.0048 151.555 96.1957 151.6 96.3016H150.379ZM146.932 92.8983H148.978C148.872 92.6488 148.772 92.4087 148.678 92.178C148.584 91.9473 148.497 91.7356 148.418 91.5427C148.339 91.3499 148.269 91.1816 148.209 91.0379C148.149 90.8942 148.103 90.7808 148.073 90.6976C148.066 90.6824 148.049 90.6295 148.022 90.5387C147.996 90.448 147.975 90.3648 147.96 90.2892C147.945 90.3648 147.923 90.448 147.892 90.5387C147.862 90.6295 147.843 90.6824 147.836 90.6976L146.932 92.8983ZM152.617 96.3016V88.077H154.855C155.285 88.077 155.679 88.1338 156.037 88.2472C156.395 88.3607 156.704 88.5289 156.963 88.752C157.223 88.9751 157.425 89.2474 157.568 89.5688C157.711 89.8902 157.783 90.2589 157.783 90.6749C157.783 90.9018 157.76 91.1268 157.715 91.3499C157.67 91.573 157.596 91.7885 157.495 91.9965C157.393 92.2045 157.263 92.3973 157.105 92.575C156.947 92.7528 156.754 92.9021 156.528 93.0231C156.83 93.4996 157.158 94.0271 157.512 94.6057C157.866 95.1842 158.224 95.7495 158.586 96.3016H157.105C156.954 96.0672 156.798 95.8214 156.636 95.5642C156.474 95.3071 156.312 95.0519 156.15 94.7985C155.988 94.5451 155.829 94.2956 155.675 94.0498C155.52 93.804 155.375 93.5752 155.24 93.3635H153.861V96.3016H152.617ZM153.861 92.195H154.98C155.281 92.195 155.534 92.144 155.737 92.0419C155.941 91.9398 156.101 91.8131 156.217 91.6618C156.334 91.5106 156.417 91.348 156.466 91.174C156.515 91.0001 156.54 90.8413 156.54 90.6976C156.54 90.5539 156.515 90.3969 156.466 90.2268C156.417 90.0566 156.332 89.8978 156.212 89.7503C156.091 89.6028 155.931 89.48 155.731 89.3816C155.532 89.2833 155.285 89.2342 154.991 89.2342H153.861V92.195Z" fill="black"/>
<path fill-rule="evenodd" clip-rule="evenodd" d="M64.7761 111.371C64.7761 109.902 64.0497 109.26 62.5322 108.775C61.8839 108.565 61.0929 108.381 61.0929 107.87C61.0929 107.451 61.3516 107.267 61.7412 107.267H61.9613C62.4021 107.267 62.727 107.503 62.9597 107.949C63.0118 108.054 63.1285 108.054 63.22 107.988L64.5679 107.084C64.698 107.005 64.646 106.874 64.5939 106.795C64.4304 106.509 64.2201 106.251 63.9716 106.034C63.4661 105.588 62.7783 105.34 61.936 105.34H61.7412C59.9643 105.34 58.8877 106.31 58.8877 107.936C58.8877 109.391 59.6661 109.968 61.0535 110.453C61.9226 110.755 62.5709 110.833 62.5709 111.423C62.5709 111.803 62.3114 112.026 61.9092 112.026H61.5077C61.0668 112.026 60.7419 111.79 60.5092 111.344C60.4572 111.24 60.3405 111.24 60.249 111.306L58.9011 112.21C58.771 112.289 58.823 112.407 58.8751 112.485C59.0178 112.735 59.1866 112.958 59.3933 113.154C59.9122 113.666 60.6386 113.954 61.5338 113.954H61.9352C63.7642 113.954 64.7753 112.984 64.7753 111.371H64.7761ZM81.9274 113.652V105.619C81.9274 105.514 81.8367 105.487 81.7847 105.487H79.8799C79.8144 105.487 79.7631 105.514 79.7631 105.619V113.652C79.7631 113.757 79.8152 113.784 79.8799 113.784H81.7854C81.8635 113.784 81.9282 113.757 81.9282 113.652H81.9274ZM78.8598 107.302V105.619C78.8598 105.514 78.7825 105.488 78.7305 105.488H73.3365C73.2718 105.488 73.2198 105.514 73.2198 105.619V113.652C73.2198 113.757 73.2718 113.784 73.3365 113.784H75.2547C75.3201 113.784 75.3855 113.757 75.3855 113.652V110.694C75.3855 110.602 75.4242 110.549 75.5409 110.549H78.1595C78.2249 110.549 78.2896 110.523 78.2896 110.431V108.735C78.2896 108.643 78.2249 108.616 78.1595 108.616H75.5409C75.4242 108.616 75.3848 108.564 75.3848 108.472V107.565C75.3848 107.473 75.4242 107.42 75.5409 107.42H78.7305C78.8078 107.42 78.8598 107.394 78.8598 107.301V107.302ZM89.9317 113.613L87.2188 105.586C87.1927 105.507 87.1541 105.495 87.102 105.495H85.6865C85.6084 105.495 85.5824 105.52 85.5571 105.586L82.8434 113.613C82.804 113.718 82.856 113.784 82.9727 113.784H84.9727C85.0374 113.784 85.0634 113.757 85.0894 113.692L85.4396 112.706C85.4656 112.64 85.4917 112.614 85.5957 112.614H87.1541C87.2582 112.614 87.2968 112.64 87.3229 112.706L87.6604 113.692C87.6857 113.757 87.6991 113.784 87.7771 113.784H89.8157C89.9585 113.784 89.9711 113.718 89.9325 113.613H89.9317ZM86.8812 110.946C86.8939 111.011 86.8552 111.064 86.7645 111.064H86.0114C85.9073 111.064 85.8686 111.012 85.8812 110.945L86.1147 109.921C86.2969 109.147 86.3876 108.305 86.3876 108.305H86.4262C86.4262 108.305 86.5177 109.147 86.6731 109.921L86.8812 110.946ZM48.6938 113.631V105.62C48.6938 105.516 48.6158 105.489 48.5645 105.489H46.7355C46.6575 105.489 46.6188 105.516 46.6188 105.62V107.744C46.6188 108.911 46.6835 109.934 46.6835 109.934H46.6448C46.6448 109.934 46.5407 109.645 46.3593 109.304L44.4404 105.607C44.401 105.528 44.3489 105.489 44.2716 105.489H42.6241C42.5594 105.489 42.5073 105.516 42.5073 105.62V113.631C42.5073 113.735 42.5594 113.762 42.6241 113.762H44.4917C44.5698 113.762 44.6218 113.736 44.6218 113.631V111.546C44.6218 110.471 44.5437 109.435 44.5437 109.435H44.5958C44.5958 109.435 44.6999 109.724 44.8679 110.025L46.8009 113.644C46.8389 113.709 46.8783 113.762 46.9429 113.762H48.5637C48.6418 113.762 48.6938 113.736 48.6938 113.631V113.631ZM41.2561 113.631V105.62C41.2561 105.516 41.1654 105.489 41.1133 105.489H39.207C39.1416 105.489 39.0903 105.516 39.0903 105.62V113.631C39.0903 113.735 39.1424 113.762 39.207 113.762H41.1133C41.1914 113.762 41.2561 113.736 41.2561 113.631V113.631ZM72.1886 111.489V107.805C72.1886 106.31 71.0607 105.34 69.4005 105.34H68.4935C66.8325 105.34 65.6787 106.323 65.6787 107.805V111.489C65.6787 112.97 66.8065 113.954 68.4927 113.954H69.3998C71.0607 113.954 72.1886 112.97 72.1886 111.489ZM70.0362 111.489C70.0362 111.803 69.8027 112.026 69.4005 112.026H68.4935C68.0392 112.026 67.8058 111.817 67.8058 111.489V107.805C67.8058 107.53 68.1165 107.255 68.4927 107.255H69.3998C69.7767 107.255 70.0362 107.49 70.0362 107.805V111.489ZM56.626 113.592L53.9153 105.581C53.8893 105.502 53.8506 105.489 53.7986 105.489H52.386C52.3079 105.489 52.2819 105.516 52.2559 105.581L49.5459 113.592C49.5065 113.696 49.5585 113.762 49.6752 113.762H51.6722C51.7377 113.762 51.7629 113.736 51.7897 113.67L52.1391 112.687C52.1652 112.622 52.1912 112.595 52.2953 112.595H53.8514C53.9555 112.595 53.9941 112.622 54.0201 112.687L54.3569 113.67C54.383 113.736 54.3963 113.762 54.4737 113.762H56.5101C56.6528 113.762 56.6654 113.697 56.6268 113.591L56.626 113.592ZM53.5778 110.93C53.5911 110.996 53.5525 111.048 53.4618 111.048H52.7094C52.6053 111.048 52.5666 110.996 52.58 110.93L52.8127 109.907C52.9949 109.134 53.0848 108.295 53.0848 108.295H53.1242C53.1242 108.295 53.2149 109.134 53.3703 109.908L53.5785 110.93H53.5778ZM37.8383 113.631V111.953C37.8383 111.861 37.7736 111.835 37.7089 111.835H34.5194C34.4019 111.835 34.3633 111.783 34.3633 111.691V110.681C34.3633 110.589 34.4019 110.537 34.5194 110.537H37.1387C37.2034 110.537 37.268 110.51 37.268 110.418V108.727C37.268 108.635 37.2034 108.609 37.1387 108.609H34.5186C34.4019 108.609 34.3625 108.557 34.3625 108.465V107.56C34.3625 107.469 34.4019 107.417 34.5186 107.417H37.7089C37.787 107.417 37.8383 107.39 37.8383 107.298V105.62C37.8383 105.516 37.761 105.489 37.7089 105.489H32.3142C32.2495 105.489 32.1975 105.516 32.1975 105.62V113.631C32.1975 113.735 32.2495 113.762 32.3142 113.762H37.7089C37.787 113.762 37.8383 113.736 37.8383 113.631V113.631ZM28.7277 108.216C28.7277 108.57 28.4808 108.741 28.0794 108.741H26.6653C26.5485 108.741 26.5091 108.689 26.5091 108.597V107.56C26.5091 107.469 26.5485 107.417 26.6653 107.417H28.0794C28.5069 107.417 28.7277 107.613 28.7277 107.967V108.216V108.216ZM31.1269 113.591L29.8555 110.301C29.8169 110.183 29.8035 110.091 29.921 110.013C30.4912 109.645 30.8674 109.017 30.8674 108.203V108.085C30.8674 106.472 29.7782 105.489 28.0794 105.489H24.4608C24.3954 105.489 24.3441 105.516 24.3441 105.62V113.631C24.3441 113.735 24.3962 113.762 24.4608 113.762H26.379C26.4437 113.762 26.5091 113.736 26.5091 113.631V110.681C26.5091 110.589 26.5478 110.537 26.6645 110.537H27.5589C27.611 110.537 27.6504 110.563 27.6764 110.628L28.8689 113.67C28.895 113.723 28.9344 113.762 28.9857 113.762H31.0094C31.1388 113.762 31.1648 113.683 31.1261 113.591H31.1269ZM67.0957 89.6117C67.0957 90.6712 66.3076 91.3738 65.1478 91.3738H64.5144C63.3374 91.3738 62.5493 90.6712 62.5493 89.6117V86.9768C62.5493 85.9174 63.3553 85.2141 64.5144 85.2141H65.1486C66.3084 85.2141 67.0957 85.9077 67.0957 86.9761V87.4817H65.5924V86.9761C65.5924 86.7516 65.411 86.5828 65.1486 86.5828H64.5144C64.2519 86.5828 64.0341 86.7798 64.0341 86.9768V89.6117C64.0341 89.8459 64.1976 89.9961 64.5144 89.9961H65.1486C65.4296 89.9961 65.5924 89.8363 65.5924 89.6117V89.1062H67.0957V89.6117V89.6117ZM29.7381 91.173V85.4386C29.7381 85.3635 29.7009 85.3442 29.6474 85.3442H28.3329C28.314 85.344 28.2954 85.3492 28.2793 85.3592C28.2633 85.3692 28.2504 85.3836 28.2422 85.4007L27.1998 88.2824C27.1561 88.4062 27.1167 88.5314 27.0816 88.6579H27.0452C27.0452 88.6579 27.0273 88.4891 26.9456 88.2824L25.8675 85.4014C25.8593 85.3842 25.8463 85.3698 25.8301 85.3598C25.8139 85.3497 25.7951 85.3446 25.7761 85.3449H24.4259C24.3709 85.3449 24.3441 85.3642 24.3441 85.4393V91.173C24.3441 91.2474 24.3709 91.2667 24.4259 91.2667H25.7039C25.7671 91.2667 25.7946 91.2481 25.7946 91.173V89.9433C25.7946 89.0519 25.7129 88.2356 25.7129 88.2356H25.7404C25.7404 88.2356 25.8222 88.6296 25.9664 89.0519L26.4474 90.469C26.4742 90.5441 26.556 90.5626 26.6102 90.5626H27.4898C27.5441 90.5626 27.6162 90.5441 27.6437 90.469L28.124 89.0801C28.2689 88.6579 28.3507 88.2356 28.3507 88.2356H28.3782C28.3782 88.2356 28.3143 89.0801 28.3143 89.9619V91.173C28.3143 91.2474 28.3329 91.2667 28.3961 91.2667H29.6474C29.7016 91.2667 29.7381 91.2481 29.7381 91.173V91.173ZM44.8218 91.1693V89.9679C44.8218 89.9024 44.7764 89.8838 44.7311 89.8838H42.6204C42.5386 89.8838 42.5118 89.8467 42.5118 89.7798V89.0578C42.5118 88.9924 42.5386 88.9545 42.6204 88.9545H44.3318C44.3779 88.9545 44.4233 88.9359 44.4233 88.8697V87.6594C44.4233 87.5939 44.3779 87.5753 44.3318 87.5753H42.6204C42.5386 87.5753 42.5118 87.5382 42.5118 87.4713V86.8244C42.5118 86.759 42.5386 86.7211 42.6204 86.7211H44.7318C44.7854 86.7211 44.8211 86.7025 44.8211 86.6371V85.4356C44.8211 85.3605 44.7675 85.3419 44.7318 85.3419H41.0799C41.0338 85.3419 40.9981 85.3605 40.9981 85.4356V91.1693C40.9981 91.2437 41.0338 91.263 41.0799 91.263H44.7311C44.7854 91.263 44.8218 91.2444 44.8218 91.1693ZM40.1855 89.5366C40.1855 88.4854 39.6784 88.0251 38.6175 87.6779C38.1639 87.5285 37.6115 87.3969 37.6115 87.0311C37.6115 86.73 37.7922 86.5999 38.065 86.5999H38.2189C38.5267 86.5999 38.7535 86.7679 38.9163 87.0869C38.9535 87.162 39.0345 87.162 39.0977 87.1151L40.0405 86.4683C40.1312 86.4111 40.0947 86.3174 40.0591 86.2609C39.9451 86.0565 39.7979 85.8725 39.6234 85.7166C39.2702 85.3977 38.7899 85.22 38.2004 85.22H38.0643C36.8227 85.22 36.0703 85.9137 36.0703 87.078C36.0703 88.1188 36.6138 88.5322 37.584 88.8794C38.1914 89.095 38.6442 89.1515 38.6442 89.5738C38.6442 89.8459 38.4636 90.005 38.1825 90.005H37.9015C37.5929 90.005 37.3662 89.837 37.2034 89.5173C37.1669 89.443 37.0851 89.443 37.0219 89.4898L36.0792 90.1366C35.9885 90.1931 36.0249 90.2779 36.0614 90.3344C36.161 90.5128 36.2792 90.6719 36.4234 90.8125C36.7863 91.179 37.2933 91.3849 37.9193 91.3849H38.2004C39.4791 91.3849 40.1855 90.6905 40.1855 89.5366V89.5366ZM50.0618 89.6207V86.985C50.0618 85.9144 49.273 85.2207 48.1124 85.2207H47.4783C46.3184 85.2207 45.511 85.9241 45.511 86.985V89.6214C45.511 90.6823 46.2991 91.3857 47.4783 91.3857H48.1124C49.273 91.3857 50.0618 90.6823 50.0618 89.6214V89.6207ZM48.557 89.6207C48.557 89.8459 48.3935 90.0058 48.1124 90.0058H47.4783C47.1608 90.0058 46.9972 89.8556 46.9972 89.6207V86.985C46.9972 86.7873 47.2151 86.591 47.4783 86.591H48.1124C48.3756 86.591 48.557 86.7597 48.557 86.985V89.6214V89.6207ZM35.3335 89.6244V85.4386C35.3335 85.3642 35.306 85.3449 35.2517 85.3449H33.9194C33.874 85.3449 33.8376 85.3642 33.8376 85.4393V89.6251C33.8376 89.8593 33.7016 90.0095 33.3841 90.0095H32.7499C32.4146 90.0095 32.2696 89.8593 32.2696 89.6244V85.4386C32.2696 85.3642 32.2243 85.3449 32.1878 85.3449H30.8734C30.8191 85.3449 30.7916 85.3642 30.7916 85.4393V89.6251C30.7916 90.6846 31.5715 91.3887 32.7499 91.3887H33.3841C34.5439 91.3887 35.3335 90.6846 35.3335 89.6244ZM56.6342 91.1745V85.4408C56.6342 85.3657 56.5792 85.3464 56.5435 85.3464H55.2647C55.2105 85.3464 55.1829 85.3657 55.1829 85.4408V86.9605C55.1829 87.7962 55.229 88.5277 55.229 88.5277H55.2015C55.2015 88.5277 55.1294 88.3218 55.0023 88.0772L53.6603 85.4311C53.6335 85.3746 53.5971 85.3464 53.5428 85.3464H52.3912C52.3466 85.3464 52.3094 85.3657 52.3094 85.4408V91.1745C52.3094 91.2489 52.3466 91.2682 52.3912 91.2682H53.6967C53.751 91.2682 53.7874 91.2496 53.7874 91.1745V89.6824C53.7874 88.9129 53.7332 88.1716 53.7332 88.1716H53.7696C53.7696 88.1716 53.8417 88.3776 53.9599 88.5939L55.3101 91.1842C55.3376 91.231 55.3651 91.2682 55.4104 91.2682H56.5435C56.5978 91.2682 56.6342 91.2496 56.6342 91.1745V91.1745ZM89.9124 91.1745V89.9731C89.9124 89.9076 89.867 89.8883 89.8217 89.8883H87.5913C87.5095 89.8883 87.4834 89.8511 87.4834 89.7857V85.4408C87.4834 85.3657 87.4284 85.3464 87.392 85.3464H86.0508C86.0054 85.3464 85.969 85.3657 85.969 85.4408V91.1745C85.969 91.2489 86.0054 91.2682 86.0508 91.2682H89.8217C89.876 91.2682 89.9124 91.2496 89.9124 91.1745V91.1745ZM79.9022 91.1745V85.4408C79.9022 85.3657 79.8479 85.3464 79.8115 85.3464H78.5334C78.4784 85.3464 78.4516 85.3657 78.4516 85.4408V86.9605C78.4516 87.7962 78.4963 88.5277 78.4963 88.5277H78.4695C78.4695 88.5277 78.3974 88.3218 78.2702 88.0772L76.9283 85.4311C76.9007 85.3746 76.8643 85.3464 76.81 85.3464H75.6591C75.6138 85.3464 75.5774 85.3657 75.5774 85.4408V91.1745C75.5774 91.2489 75.6138 91.2682 75.6591 91.2682H76.9639C77.019 91.2682 77.0546 91.2496 77.0546 91.1745V89.6824C77.0546 88.9129 77.0004 88.1716 77.0004 88.1716H77.0375C77.0375 88.1716 77.1097 88.3776 77.2271 88.5939L78.578 91.1842C78.6048 91.231 78.6323 91.2682 78.6777 91.2682H79.8107C79.865 91.2682 79.9014 91.2496 79.9014 91.1745H79.9022ZM69.3842 91.1745V85.4408C69.3842 85.3657 69.3202 85.3464 69.2845 85.3464H67.9515C67.9069 85.3464 67.8697 85.3657 67.8697 85.4408V91.1745C67.8697 91.2489 67.9069 91.2682 67.9515 91.2682H69.2845C69.3388 91.2682 69.3842 91.2496 69.3842 91.1745ZM85.2894 91.1463L83.395 85.4126C83.3765 85.3561 83.349 85.3464 83.3133 85.3464H82.3244C82.2709 85.3464 82.2523 85.3657 82.2345 85.4126L80.3401 91.1463C80.3126 91.2206 80.349 91.2682 80.43 91.2682H81.8263C81.8709 91.2682 81.8902 91.2496 81.9081 91.2028L82.1527 90.4987C82.1705 90.4519 82.1891 90.4333 82.2612 90.4333H83.349C83.4218 90.4333 83.4493 90.4519 83.4679 90.4987L83.7028 91.2028C83.7207 91.2496 83.7304 91.2682 83.7846 91.2682H85.2077C85.3073 91.2682 85.3162 91.2214 85.2894 91.1463V91.1463ZM83.1586 89.2415C83.1683 89.2883 83.1408 89.3255 83.0768 89.3255H82.5519C82.4791 89.3255 82.4523 89.2883 82.4612 89.2415L82.6241 88.5092C82.7505 87.9553 82.8144 87.3545 82.8144 87.3545H82.8419C82.8419 87.3545 82.9051 87.9553 83.0136 88.5092L83.1586 89.2415V89.2415ZM74.6755 89.6259V86.9887C74.6755 85.9189 73.8874 85.2245 72.7268 85.2245H72.0919C70.9321 85.2245 70.1247 85.9285 70.1247 86.9887V89.6259C70.1247 90.6861 70.9135 91.3901 72.0919 91.3901H72.7268C73.8867 91.3901 74.6755 90.6861 74.6755 89.6259V89.6259ZM73.1707 89.6259C73.1707 89.8511 73.0071 90.011 72.7268 90.011H72.0919C71.7752 90.011 71.6116 89.8608 71.6116 89.6259V86.9887C71.6116 86.7917 71.8287 86.5947 72.0919 86.5947H72.7268C72.99 86.5947 73.1707 86.7642 73.1707 86.9887V89.6259V89.6259ZM62.2059 91.1455L60.3107 85.4118C60.2929 85.3553 60.2661 85.3464 60.2289 85.3464H59.2409C59.1873 85.3464 59.1687 85.365 59.1509 85.4118L57.2558 91.1455C57.229 91.2206 57.2654 91.2682 57.3465 91.2682H58.7427C58.7881 91.2682 58.8059 91.2489 58.8245 91.202L59.0691 90.4987C59.087 90.4511 59.1048 90.4325 59.1777 90.4325H60.2654C60.3382 90.4325 60.365 90.4511 60.3836 90.4987L60.6193 91.202C60.6371 91.2489 60.646 91.2682 60.7011 91.2682H62.1241C62.2237 91.2682 62.2326 91.2206 62.2059 91.1455V91.1455ZM60.075 89.2407C60.084 89.2876 60.0572 89.3255 59.9933 89.3255H59.4676C59.3955 89.3255 59.368 89.2883 59.3769 89.2407L59.5405 88.5092C59.6669 87.9553 59.7308 87.3545 59.7308 87.3545H59.7576C59.7576 87.3545 59.8215 87.9553 59.9301 88.5092L60.075 89.2407V89.2407ZM28.8957 97.08C28.8957 98.1395 28.1076 98.8428 26.9478 98.8428H26.3143C25.1374 98.8428 24.3486 98.1395 24.3486 97.08V94.4444C24.3486 93.3849 25.1553 92.6823 26.3143 92.6823H26.9485C28.1076 92.6823 28.8957 93.3752 28.8957 94.4444V94.9499H27.3916V94.4444C27.3916 94.2198 27.211 94.0503 26.9485 94.0503H26.3143C26.0519 94.0503 25.8341 94.2473 25.8341 94.4444V97.08C25.8341 97.3142 25.9976 97.4644 26.3143 97.4644H26.9485C27.2288 97.4644 27.3916 97.3053 27.3916 97.08V96.5744H28.8957V97.08ZM44.3586 94.1447V92.9433C44.3586 92.8682 44.3043 92.8496 44.2768 92.8496H40.3163C40.2717 92.8496 40.2256 92.8682 40.2256 92.9433V94.1447C40.2256 94.2102 40.271 94.2295 40.3163 94.2295H41.4271C41.5267 94.2295 41.5445 94.2667 41.5445 94.3321V98.6785C41.5445 98.7528 41.581 98.7722 41.6263 98.7722H42.9586C43.0032 98.7722 43.0493 98.7528 43.0493 98.6785V94.3321C43.0493 94.2667 43.0672 94.2295 43.1579 94.2295H44.2776C44.3222 94.2295 44.3594 94.2102 44.3594 94.1447H44.3586ZM39.3163 98.6785V92.9433C39.3163 92.8682 39.2621 92.8496 39.2264 92.8496H37.9476C37.8933 92.8496 37.8658 92.8682 37.8658 92.9433V94.4637C37.8658 95.2994 37.9119 96.0309 37.9119 96.0309H37.8844C37.8844 96.0309 37.8123 95.825 37.6851 95.5811L36.3439 92.9343C36.3164 92.8771 36.28 92.8496 36.2257 92.8496H35.0748C35.0294 92.8496 34.993 92.8682 34.993 92.9433V98.6785C34.993 98.7528 35.0294 98.7722 35.0748 98.7722H36.3796C36.4339 98.7722 36.4703 98.7536 36.4703 98.6785V97.1856C36.4703 96.4161 36.416 95.6748 36.416 95.6748H36.4532C36.4532 95.6748 36.5253 95.8808 36.6428 96.0971L37.9937 98.6874C38.0204 98.7342 38.0479 98.7722 38.0933 98.7722H39.2264C39.2806 98.7722 39.3163 98.7536 39.3163 98.6785V98.6785ZM55.2387 97.0815V94.4436C55.2387 93.373 54.4506 92.6793 53.29 92.6793H52.6559C51.496 92.6793 50.6886 93.3827 50.6886 94.4436V97.0807C50.6886 98.1417 51.4767 98.8458 52.6559 98.8458H53.29C54.4499 98.8458 55.2387 98.1417 55.2387 97.0807V97.0815ZM53.7346 97.0815C53.7346 97.3068 53.5711 97.4659 53.29 97.4659H52.6559C52.3384 97.4659 52.1756 97.3157 52.1756 97.0807V94.4436C52.1756 94.2466 52.3927 94.0496 52.6559 94.0496H53.29C53.5532 94.0496 53.7346 94.2183 53.7346 94.4436V97.0807V97.0815ZM50.0024 98.6502L49.1139 96.2934C49.0871 96.2094 49.0782 96.144 49.1593 96.0874C49.5585 95.825 49.821 95.3737 49.821 94.7923V94.7075C49.821 93.5529 49.0596 92.8488 47.873 92.8488H45.3437C45.2984 92.8488 45.2619 92.8682 45.2619 92.9433V98.6785C45.2619 98.7528 45.2984 98.7722 45.3437 98.7722H46.685C46.7303 98.7722 46.7757 98.7536 46.7757 98.6785V96.5662C46.7757 96.5001 46.8024 96.4629 46.8842 96.4629H47.5095C47.5467 96.4629 47.5734 96.4815 47.5913 96.5283L48.4255 98.7067C48.4433 98.7439 48.4701 98.7722 48.5072 98.7722H49.9206C50.0113 98.7722 50.0299 98.7156 50.0024 98.6502V98.6502ZM48.3266 94.802C48.3266 95.0548 48.1541 95.1774 47.873 95.1774H46.8842C46.8024 95.1774 46.7757 95.1403 46.7757 95.0733V94.3321C46.7757 94.2667 46.8024 94.2295 46.8842 94.2295H47.873C48.1712 94.2295 48.3258 94.37 48.3258 94.6235V94.802H48.3266ZM33.854 98.6785V97.477C33.854 97.4108 33.8094 97.3923 33.7633 97.3923H31.5336C31.4518 97.3923 31.425 97.3551 31.425 97.2889V96.5662C31.425 96.5001 31.4525 96.4629 31.5336 96.4629H33.3648C33.4094 96.4629 33.4555 96.4443 33.4555 96.3781V95.1678C33.4555 95.1016 33.4101 95.083 33.3648 95.083H31.5336C31.4518 95.083 31.425 95.0458 31.425 94.9797V94.3328C31.425 94.2667 31.4525 94.2287 31.5336 94.2287H33.764C33.8183 94.2287 33.854 94.2102 33.854 94.1447V92.9433C33.854 92.8682 33.7997 92.8496 33.7633 92.8496H29.9931C29.9477 92.8496 29.9113 92.8682 29.9113 92.9433V98.6785C29.9113 98.7528 29.9477 98.7722 29.9931 98.7722H33.7633C33.8183 98.7722 33.854 98.7536 33.854 98.6785V98.6785ZM89.9117 98.6785V97.477C89.9117 97.4108 89.8663 97.3923 89.821 97.3923H87.5905C87.5087 97.3923 87.4827 97.3551 87.4827 97.2889V96.5662C87.4827 96.5008 87.5095 96.4629 87.5913 96.4629H89.4217C89.4671 96.4629 89.5124 96.4443 89.5124 96.3789V95.167C89.5124 95.1023 89.4678 95.083 89.4217 95.083H87.5913C87.5095 95.083 87.4827 95.0458 87.4827 94.9804V94.3321C87.4827 94.2667 87.5095 94.2295 87.5913 94.2295H89.821C89.8752 94.2295 89.9117 94.2102 89.9117 94.1447V92.9433C89.9117 92.8682 89.8566 92.8496 89.821 92.8496H86.05C86.0054 92.8496 85.9682 92.8682 85.9682 92.9433V98.6785C85.9682 98.7528 86.0054 98.7722 86.05 98.7722H89.821C89.8752 98.7722 89.9117 98.7528 89.9117 98.6785ZM84.8902 94.1447V92.9433C84.8902 92.8682 84.8352 92.8496 84.8084 92.8496H80.8464C80.8018 92.8496 80.7557 92.8682 80.7557 92.9433V94.1447C80.7557 94.2102 80.801 94.2295 80.8464 94.2295H81.9572C82.0568 94.2295 82.0746 94.2667 82.0746 94.3321V98.6785C82.0746 98.7528 82.1111 98.7722 82.1564 98.7722H83.4887C83.5333 98.7722 83.5794 98.7528 83.5794 98.6785V94.3321C83.5794 94.2667 83.5973 94.2295 83.688 94.2295H84.8077C84.8523 94.2295 84.8894 94.2102 84.8894 94.1447H84.8902ZM67.4236 98.6785V97.477C67.4236 97.4108 67.379 97.3923 67.3329 97.3923H65.1032C65.0214 97.3923 64.9947 97.3551 64.9947 97.2889V96.5662C64.9947 96.5008 65.0214 96.4629 65.1032 96.4629H66.9344C66.9797 96.4629 67.0251 96.4443 67.0251 96.3789V95.167C67.0251 95.1023 66.9797 95.083 66.9344 95.083H65.1032C65.0214 95.083 64.9947 95.0458 64.9947 94.9804V94.3321C64.9947 94.2667 65.0214 94.2295 65.1032 94.2295H67.3336C67.3879 94.2295 67.4236 94.2102 67.4236 94.1447V92.9433C67.4236 92.8682 67.3693 92.8496 67.3329 92.8496H63.5627C63.5174 92.8496 63.4809 92.8682 63.4809 92.9433V98.6785C63.4809 98.7528 63.5174 98.7722 63.5627 98.7722H67.3329C67.3879 98.7722 67.4236 98.7528 67.4236 98.6785ZM60.8274 97.0071C60.8274 97.2049 60.6282 97.3923 60.3739 97.3923H59.3858C59.3041 97.3923 59.2773 97.3551 59.2773 97.2889V94.3321C59.2773 94.2667 59.3048 94.2295 59.3858 94.2295H60.3747C60.6193 94.2295 60.8274 94.4354 60.8274 94.6235V97.0071ZM62.3233 96.9328V94.7083C62.3233 93.5537 61.5613 92.8496 60.3747 92.8496H57.8453C57.8 92.8496 57.7636 92.8682 57.7636 92.9433V98.6785C57.7636 98.7528 57.8 98.7722 57.8453 98.7722H60.3747C61.5613 98.7722 62.3226 98.0681 62.3226 96.932L62.3233 96.9328ZM80.3185 98.6502L79.4301 96.2934C79.4033 96.2094 79.3944 96.144 79.4754 96.0874C79.8747 95.825 80.1371 95.3737 80.1371 94.7923V94.7075C80.1371 93.5537 79.3758 92.8488 78.1885 92.8488H75.6599C75.6145 92.8488 75.5781 92.8682 75.5781 92.9433V98.6785C75.5781 98.7528 75.6145 98.7722 75.6599 98.7722H77.0011C77.0457 98.7722 77.0918 98.7536 77.0918 98.6785V96.5662C77.0918 96.5008 77.1186 96.4629 77.2004 96.4629H77.8256C77.8628 96.4629 77.8896 96.4822 77.9074 96.5291L78.7416 98.706C78.7595 98.7432 78.7862 98.7722 78.8234 98.7722H80.2367C80.3274 98.7722 80.3453 98.7156 80.3185 98.6502V98.6502ZM78.642 94.802C78.642 95.0548 78.4695 95.1774 78.1885 95.1774H77.2004C77.1186 95.1774 77.0918 95.1403 77.0918 95.0733V94.3321C77.0918 94.2667 77.1186 94.2295 77.2004 94.2295H78.1885C78.4873 94.2295 78.642 94.37 78.642 94.6235V94.802V94.802ZM74.7997 98.6502L72.9053 92.915C72.8874 92.8585 72.8607 92.8496 72.8235 92.8496H71.8362C71.7819 92.8496 71.7633 92.8682 71.7455 92.915L69.8503 98.6502C69.8228 98.7246 69.8592 98.7722 69.9403 98.7722H71.3365C71.3819 98.7722 71.4005 98.7536 71.4183 98.706L71.6637 98.0027C71.6808 97.9558 71.6994 97.9365 71.7715 97.9365H72.8592C72.932 97.9365 72.9596 97.9558 72.9774 98.0027L73.2131 98.706C73.2309 98.7536 73.2398 98.7722 73.2949 98.7722H74.7179C74.8175 98.7722 74.8264 98.7253 74.7997 98.6502V98.6502ZM72.6696 96.7447C72.6785 96.7915 72.6518 96.8294 72.5878 96.8294H72.0622C71.9901 96.8294 71.9625 96.7915 71.9722 96.7447L72.135 96.0124C72.2614 95.4585 72.3254 94.8577 72.3254 94.8577H72.3529C72.3529 94.8577 72.4161 95.4585 72.5246 96.0124L72.6696 96.7447Z" fill="black"/>
<path fill-rule="evenodd" clip-rule="evenodd" d="M21.9739 101.145H92.2812V82.9754H21.9747L21.9732 101.145H21.9739ZM92.2819 103.119H21.9747V116.152H92.2812L92.2819 103.119ZM20 118.127H94.2551V81H20V118.127Z" fill="black"/>
</g>
<defs>
<clipPath id="clip0">
<rect width="160" height="37.8947" fill="white" transform="translate(20 81)"/>
</clipPath>
</defs>
</svg>
