<svg width="200" height="200" viewBox="0 0 200 200" fill="none" xmlns="http://www.w3.org/2000/svg">
<rect width="200" height="200" fill="white"/>
<g clip-path="url(#clip0_604_71)">
<path d="M98.5269 125.687C98.9801 127.408 100.637 128.324 102.664 128.324C105.452 128.324 106.695 126.711 106.695 125.141C106.695 123.377 105.476 122.442 103.361 121.633C101.899 121.087 100.964 120.629 100.964 119.649C100.964 118.669 101.704 118.236 102.689 118.236C103.071 118.21 103.452 118.301 103.782 118.494C104.112 118.688 104.377 118.977 104.541 119.323L105.847 118.65C105.564 118.054 105.11 117.556 104.544 117.219C103.977 116.881 103.323 116.719 102.664 116.754C100.715 116.754 99.3505 117.953 99.3505 119.649C99.3505 121.345 100.593 122.159 102.338 122.856C104.083 123.553 105.082 123.943 105.082 125.141C105.082 125.775 104.692 126.818 102.645 126.818C101.012 126.818 100.14 125.994 99.8768 125.161L98.5269 125.687ZM107.416 122.7C107.416 126.111 109.682 128.343 112.952 128.343C113.793 128.377 114.629 128.219 115.399 127.881C116.169 127.543 116.853 127.035 117.397 126.394L116.33 125.351C115.922 125.848 115.405 126.244 114.819 126.508C114.233 126.773 113.595 126.899 112.952 126.876C110.637 126.876 109.117 125.327 109.029 122.909H117.938C117.938 122.583 117.938 122.212 117.938 122.212C117.938 119.181 115.93 116.744 112.879 116.744C109.746 116.744 107.392 119.054 107.392 122.593L107.416 122.7ZM109.136 121.501C109.244 119.717 110.901 118.255 112.904 118.255C113.776 118.246 114.616 118.582 115.242 119.19C115.867 119.798 116.227 120.629 116.242 121.501H109.136ZM120.165 129.893L119.337 131.18C120.844 132.29 122.669 132.885 124.541 132.876C125.87 132.911 127.172 132.505 128.245 131.721C129.883 130.434 129.99 128.626 129.99 126.253V117.081H128.377V118.713C127.831 117.778 126.637 116.764 124.478 116.764C122.99 116.807 121.578 117.429 120.541 118.497C119.504 119.565 118.924 120.994 118.924 122.483C118.924 123.971 119.504 125.401 120.541 126.469C121.578 127.537 122.99 128.159 124.478 128.202C126.637 128.202 127.831 127.179 128.377 126.253V127.164C128.377 128.363 128.245 129.737 127.246 130.575C126.455 131.144 125.495 131.427 124.522 131.379C122.943 131.391 121.407 130.867 120.165 129.893ZM120.535 122.485C120.535 120.049 122.212 118.255 124.478 118.255C125.572 118.292 126.609 118.753 127.369 119.54C128.13 120.327 128.555 121.379 128.555 122.473C128.555 123.568 128.13 124.619 127.369 125.406C126.609 126.193 125.572 126.654 124.478 126.691C122.212 126.691 120.535 124.903 120.535 122.485ZM131.842 124.094C131.842 126.56 133.343 128.236 135.785 128.236C137.705 128.236 138.791 127.408 139.293 126.647C139.348 127.049 139.518 127.426 139.781 127.734C139.957 127.908 140.169 128.041 140.402 128.125C140.635 128.209 140.884 128.242 141.131 128.221C141.481 128.25 141.833 128.189 142.154 128.046V126.828C141.967 126.852 141.778 126.867 141.589 126.872C140.98 126.872 140.76 126.457 140.76 125.497V117.066H139.147V123.626C139.147 125.478 137.904 126.716 136.165 126.716C134.425 126.716 133.44 125.565 133.44 123.733V117.081H131.827L131.842 124.094ZM143.392 128.061H145.005V121.667C144.982 121.265 145.041 120.863 145.18 120.486C145.319 120.109 145.534 119.764 145.812 119.474C146.09 119.183 146.425 118.953 146.796 118.798C147.167 118.643 147.566 118.566 147.968 118.572C148.334 118.564 148.699 118.602 149.055 118.684V116.939C148.832 116.91 148.607 116.895 148.382 116.896C147.682 116.862 146.988 117.037 146.387 117.397C145.785 117.758 145.305 118.289 145.005 118.923V117.071H143.392V128.061ZM149.294 122.568C149.287 123.726 149.624 124.86 150.263 125.827C150.901 126.793 151.812 127.548 152.88 127.996C153.948 128.443 155.125 128.564 156.262 128.342C157.398 128.12 158.444 127.566 159.265 126.75C160.086 125.933 160.647 124.891 160.875 123.756C161.104 122.621 160.99 121.443 160.548 120.372C160.106 119.302 159.357 118.386 158.394 117.742C157.432 117.098 156.3 116.754 155.142 116.754C154.373 116.74 153.609 116.88 152.895 117.167C152.181 117.453 151.532 117.88 150.987 118.423C150.441 118.965 150.01 119.612 149.719 120.324C149.429 121.036 149.284 121.799 149.294 122.568ZM150.907 122.568C150.924 121.736 151.187 120.926 151.662 120.242C152.137 119.558 152.804 119.03 153.578 118.723C154.352 118.416 155.2 118.345 156.015 118.518C156.829 118.691 157.575 119.101 158.158 119.696C158.741 120.291 159.135 121.044 159.291 121.862C159.447 122.681 159.359 123.527 159.036 124.294C158.714 125.062 158.171 125.718 157.478 126.179C156.784 126.64 155.97 126.886 155.137 126.886C154.571 126.897 154.009 126.791 153.485 126.577C152.962 126.362 152.487 126.043 152.091 125.639C151.695 125.235 151.386 124.754 151.182 124.226C150.979 123.698 150.885 123.134 150.907 122.568ZM161.628 125.687C162.087 127.408 163.744 128.324 165.771 128.324C168.559 128.324 169.801 126.711 169.801 125.141C169.801 123.377 168.578 122.442 166.468 121.633C165.03 121.087 164.07 120.629 164.07 119.649C164.07 118.669 164.801 118.255 165.776 118.255C166.158 118.229 166.539 118.318 166.87 118.512C167.2 118.706 167.465 118.995 167.628 119.342L168.934 118.669C168.657 118.073 168.209 117.572 167.646 117.231C167.084 116.89 166.433 116.724 165.776 116.754C163.826 116.754 162.462 117.953 162.462 119.649C162.462 121.345 163.705 122.159 165.449 122.856C167.194 123.553 168.193 123.943 168.193 125.141C168.193 125.775 167.798 126.818 165.756 126.818C164.119 126.818 163.246 125.994 162.988 125.161L161.628 125.687Z" fill="black"/>
<path d="M67.2392 76.0411C66.4498 76.0411 65.6781 75.807 65.0217 75.3684C64.3654 74.9299 63.8538 74.3065 63.5517 73.5772C63.2496 72.8478 63.1705 72.0453 63.3246 71.2711C63.4786 70.4968 63.8587 69.7856 64.4169 69.2274C64.9751 68.6692 65.6863 68.2891 66.4606 68.1351C67.2348 67.9811 68.0373 68.0601 68.7667 68.3622C69.496 68.6643 70.1194 69.1759 70.5579 69.8323C70.9965 70.4886 71.2306 71.2603 71.2306 72.0497C71.2312 72.5741 71.1284 73.0934 70.9281 73.5779C70.7277 74.0625 70.4337 74.5027 70.063 74.8735C69.6922 75.2443 69.252 75.5382 68.7674 75.7386C68.2829 75.939 67.7636 76.0418 67.2392 76.0411ZM103.542 76.0411C104.067 76.0437 104.587 75.9422 105.072 75.7425C105.558 75.5429 105.999 75.249 106.37 74.8778C106.741 74.5067 107.035 74.0656 107.234 73.5802C107.434 73.0948 107.536 72.5746 107.533 72.0497C107.539 71.2521 107.307 70.4707 106.868 69.8051C106.428 69.1394 105.8 68.6196 105.065 68.3117C104.329 68.0037 103.518 67.9216 102.735 68.0758C101.953 68.23 101.234 68.6136 100.67 69.1776C100.105 69.7417 99.722 70.4607 99.5678 71.2434C99.4135 72.026 99.4956 72.8368 99.8036 73.5727C100.111 74.3085 100.631 74.9362 101.297 75.3757C101.963 75.8153 102.744 76.0469 103.542 76.0411ZM50.996 99.6774C51.8244 98.8793 52.4769 97.9169 52.9116 96.8519C53.3464 95.7869 53.5537 94.6428 53.5204 93.493C53.5533 92.3439 53.3458 91.2007 52.911 90.1365C52.4763 89.0724 51.824 88.1108 50.996 87.3134C50.195 86.5088 49.2391 85.875 48.1862 85.4503C47.1332 85.0257 46.0051 84.8189 44.87 84.8426C43.7516 84.819 42.6404 85.0263 41.6057 85.4514C40.5709 85.8765 39.635 86.5104 38.8562 87.3134C38.072 88.1352 37.4592 89.1048 37.0534 90.1657C36.6476 91.2266 36.457 92.3577 36.4925 93.493C36.4566 94.6291 36.647 95.761 37.0528 96.8227C37.4586 97.8845 38.0716 98.8549 38.8562 99.6774C39.633 100.485 40.5681 101.123 41.6029 101.552C42.6377 101.982 43.7499 102.193 44.87 102.173C46.0055 102.196 47.1338 101.988 48.1867 101.563C49.2397 101.137 50.1954 100.502 50.996 99.6969V99.6774ZM59.7682 108.406C58.4554 108.456 57.1536 108.149 56.001 107.519C55.3941 107.098 54.8768 106.561 54.4794 105.938C54.082 105.316 53.8124 104.621 53.6861 103.893C51.7367 106.871 48.4618 108.328 43.9636 108.328C42.0733 108.367 40.1961 108.007 38.4545 107.271C36.7129 106.536 35.1459 105.441 33.856 104.059C31.1561 101.198 29.8062 97.7085 29.8062 93.493C29.8062 89.2774 31.1561 85.7978 33.856 82.9858C35.1465 81.603 36.7142 80.508 38.4567 79.7723C40.1993 79.0367 42.0774 78.6769 43.9684 78.7166C48.5203 78.7166 51.9512 80.7391 53.0185 83.4342V68.4872H59.7585L59.7682 108.406ZM70.7432 79.7791H63.9984V101.222C63.9984 105.998 66.4351 108.416 70.7432 108.416C70.8066 108.416 70.7432 79.7693 70.7432 79.7693V79.7791ZM106.914 79.7693H100.164V101.213C100.164 105.989 102.362 108.406 106.69 108.406H106.914V79.7693ZM126.135 78.7946C124.433 78.7704 122.76 79.2334 121.313 80.1288C119.866 81.0242 118.705 82.3148 117.967 83.8484V79.7791H111.281V108.381H117.967V91.8116C117.967 87.9129 120.609 85.2422 124.376 85.2422C128.143 85.2422 130.331 87.6789 130.331 91.5339V100.988C130.331 105.935 132.524 108.406 136.964 108.406V89.6576C136.964 83.1807 132.5 78.7897 126.116 78.7897L126.135 78.7946ZM161.014 99.7456C161.842 98.9469 162.495 97.9845 162.93 96.9197C163.366 95.855 163.575 94.7112 163.544 93.5612C163.576 92.4118 163.367 91.2685 162.932 90.2043C162.496 89.1402 161.843 88.1788 161.014 87.3817C160.214 86.5762 159.258 85.9415 158.205 85.516C157.152 85.0904 156.024 84.8829 154.888 84.9059C153.77 84.8822 152.659 85.0899 151.625 85.5159C150.591 85.942 149.656 86.5772 148.879 87.3817C148.094 88.2028 147.481 89.1723 147.075 90.2333C146.669 91.2944 146.479 92.4258 146.516 93.5612C146.484 94.6971 146.678 95.828 147.087 96.8881C147.496 97.9482 148.112 98.9163 148.899 99.7359C149.677 100.539 150.612 101.173 151.646 101.598C152.68 102.023 153.79 102.23 154.908 102.207C156.043 102.23 157.171 102.022 158.224 101.598C159.276 101.173 160.232 100.54 161.034 99.7359L161.014 99.7456ZM169.806 108.269C168.493 108.316 167.192 108.008 166.039 107.377C165.444 106.995 164.932 106.495 164.536 105.909C164.14 105.322 163.867 104.661 163.734 103.966C161.784 106.944 158.509 108.406 153.987 108.406C152.098 108.44 150.223 108.076 148.484 107.338C146.746 106.6 145.181 105.504 143.894 104.122C141.194 101.256 139.849 97.7865 139.849 93.5563C139.849 89.3262 141.194 85.8563 143.894 83.0492C145.185 81.6671 146.753 80.5725 148.495 79.837C150.238 79.1014 152.115 78.7412 154.006 78.78C158.558 78.78 161.984 80.8025 163.056 83.4975V79.3892H169.801L169.806 108.269ZM98.4148 75.9778C98.4148 75.9778 95.9439 75.9485 95.1203 75.9778C92.8736 76.0557 91.3093 77.9271 90.5539 79.6329C89.7985 81.3386 84.4962 98.693 84.4962 98.693L84.3889 98.8684C84.3889 98.8684 81.9522 93.4004 81.2212 91.7483C80.4902 90.0962 78.5554 89.2141 76.3039 89.1361C75.4803 89.1069 73.0094 89.1361 73.0094 89.1361L81.9522 108.386H87.6785L98.4148 75.9778Z" fill="black"/>
<path d="M169.804 97.0905L169.801 79.3892H163.056V83.4975C161.984 80.8025 158.558 78.78 154.006 78.78C152.115 78.7412 150.238 79.1014 148.495 79.837C146.753 80.5725 145.185 81.6671 143.894 83.0492C141.194 85.8563 139.849 89.3262 139.849 93.5563C139.849 94.7987 139.965 95.9754 140.197 97.0905H147.168C147.14 97.0234 147.113 96.956 147.087 96.8881C146.678 95.828 146.484 94.6971 146.516 93.5612C146.479 92.4258 146.669 91.2944 147.075 90.2333C147.481 89.1723 148.094 88.2028 148.879 87.3817C149.656 86.5772 150.591 85.942 151.625 85.5159C152.659 85.0899 153.77 84.8822 154.888 84.9059C156.024 84.8829 157.152 85.0904 158.205 85.516C159.258 85.9415 160.214 86.5762 161.014 87.3817C161.843 88.1788 162.496 89.1402 162.932 90.2043C163.367 91.2685 163.576 92.4118 163.544 93.5612C163.575 94.7112 163.366 95.855 162.93 96.9197C162.907 96.977 162.883 97.0339 162.858 97.0905H169.804Z" fill="black"/>
<path d="M136.964 97.0905V89.6576C136.964 83.1807 132.5 78.7897 126.116 78.7897L126.135 78.7946C124.433 78.7704 122.76 79.2334 121.313 80.1288C119.866 81.0242 118.705 82.3148 117.967 83.8484V79.7791H111.281V97.0905H117.967V91.8116C117.967 87.9129 120.609 85.2422 124.376 85.2422C128.143 85.2422 130.331 87.6789 130.331 91.5339V97.0905H136.964Z" fill="black"/>
<path d="M106.914 97.0905V79.7693H100.164V97.0905H106.914Z" fill="black"/>
<path d="M91.4206 97.0905L98.4148 75.9778C98.4148 75.9778 95.9439 75.9485 95.1203 75.9778C92.8736 76.0557 91.3093 77.9271 90.5539 79.6329C89.9396 81.0198 86.3189 92.7538 84.9873 97.0905H91.4206Z" fill="black"/>
<path d="M83.5969 97.0905C82.8182 95.3421 81.6815 92.7886 81.2212 91.7483C80.4902 90.0962 78.5554 89.2141 76.3039 89.1361C75.4803 89.1069 73.0094 89.1361 73.0094 89.1361L76.7047 97.0905H83.5969Z" fill="black"/>
<path d="M70.7698 97.0905C70.7638 89.0841 70.7432 79.7693 70.7432 79.7693V79.7791H63.9984V97.0905H70.7698Z" fill="black"/>
<path d="M59.7654 97.0905L59.7585 68.4872H53.0185V83.4342C51.9512 80.7391 48.5203 78.7166 43.9684 78.7166C42.0774 78.6769 40.1993 79.0367 38.4567 79.7723C36.7142 80.508 35.1465 81.603 33.856 82.9858C31.1561 85.7978 29.8062 89.2774 29.8062 93.493C29.8062 94.7565 29.9274 95.9548 30.17 97.0905H37.1604C37.1231 97.0019 37.0872 96.9127 37.0528 96.8227C36.647 95.761 36.4566 94.6291 36.4925 93.493C36.457 92.3577 36.6476 91.2266 37.0534 90.1657C37.4592 89.1048 38.072 88.1352 38.8562 87.3134C39.635 86.5104 40.5709 85.8765 41.6057 85.4514C42.6404 85.0263 43.7516 84.819 44.87 84.8426C46.0051 84.8189 47.1332 85.0257 48.1862 85.4503C49.2391 85.875 50.195 86.5088 50.996 87.3134C51.824 88.1108 52.4763 89.0724 52.911 90.1365C53.3458 91.2007 53.5533 92.3439 53.5204 93.493C53.5537 94.6428 53.3464 95.7869 52.9116 96.8519C52.8789 96.932 52.845 97.0116 52.8098 97.0905H59.7654Z" fill="black"/>
<path d="M65.0217 75.3684C65.6781 75.807 66.4498 76.0411 67.2392 76.0411C67.7636 76.0418 68.2829 75.939 68.7674 75.7386C69.252 75.5382 69.6922 75.2443 70.063 74.8735C70.4337 74.5027 70.7277 74.0625 70.9281 73.5779C71.1284 73.0934 71.2312 72.5741 71.2306 72.0497C71.2306 71.2603 70.9965 70.4886 70.5579 69.8323C70.1194 69.1759 69.496 68.6643 68.7667 68.3622C68.0373 68.0601 67.2348 67.9811 66.4606 68.1351C65.6863 68.2891 64.9751 68.6692 64.4169 69.2274C63.8587 69.7856 63.4786 70.4968 63.3246 71.2711C63.1705 72.0453 63.2496 72.8478 63.5517 73.5772C63.8538 74.3065 64.3654 74.9299 65.0217 75.3684Z" fill="black"/>
<path d="M105.072 75.7425C104.587 75.9422 104.067 76.0437 103.542 76.0411C102.744 76.0469 101.963 75.8153 101.297 75.3757C100.631 74.9362 100.111 74.3085 99.8036 73.5727C99.4956 72.8368 99.4135 72.026 99.5678 71.2434C99.722 70.4607 100.105 69.7417 100.67 69.1776C101.234 68.6136 101.953 68.23 102.735 68.0758C103.518 67.9216 104.329 68.0037 105.065 68.3117C105.8 68.6196 106.428 69.1394 106.868 69.8051C107.307 70.4707 107.539 71.2521 107.533 72.0497C107.536 72.5746 107.434 73.0948 107.234 73.5802C107.035 74.0656 106.741 74.5067 106.37 74.8778C105.999 75.249 105.558 75.5429 105.072 75.7425Z" fill="black"/>
</g>
<defs>
<clipPath id="clip0_604_71">
<rect width="140" height="64.8778" fill="white" transform="translate(29.8062 68)"/>
</clipPath>
</defs>
</svg>
