<svg width="200" height="200" viewBox="0 0 200 200" fill="none" xmlns="http://www.w3.org/2000/svg">
<rect width="200" height="200" fill="white"/>
<g clip-path="url(#clip0)">
<path fill-rule="evenodd" clip-rule="evenodd" d="M110.154 110.452V116.194C109.637 116.503 109.013 116.74 108.281 116.907C107.549 117.074 106.801 117.157 106.038 117.157C104.98 117.157 104.024 116.99 103.168 116.657C102.313 116.324 101.584 115.867 100.981 115.286C100.378 114.706 99.917 114.014 99.5971 113.212C99.2771 112.409 99.1172 111.532 99.1172 110.582C99.1172 109.507 99.3079 108.529 99.6893 107.646C100.071 106.763 100.584 106.003 101.23 105.367C101.876 104.731 102.627 104.237 103.482 103.885C104.337 103.534 105.239 103.358 106.186 103.358C106.506 103.358 106.841 103.379 107.192 103.422C107.543 103.466 107.89 103.53 108.235 103.617C108.579 103.703 108.912 103.805 109.231 103.922C109.551 104.04 109.84 104.179 110.099 104.339L108.991 106.192C108.819 106.08 108.613 105.985 108.373 105.904C108.133 105.824 107.884 105.753 107.626 105.691C107.367 105.63 107.112 105.583 106.86 105.553C106.608 105.522 106.371 105.506 106.149 105.506C105.522 105.506 104.922 105.633 104.35 105.886C103.777 106.139 103.27 106.482 102.827 106.914C102.384 107.346 102.03 107.862 101.766 108.461C101.501 109.06 101.369 109.699 101.369 110.378C101.369 110.995 101.486 111.582 101.72 112.137C101.953 112.693 102.279 113.184 102.698 113.61C103.116 114.036 103.614 114.376 104.193 114.629C104.771 114.882 105.405 115.009 106.094 115.009C106.34 115.009 106.647 114.987 107.017 114.944C107.386 114.9 107.736 114.823 108.069 114.712V112.415H105.559V110.452H110.154ZM117.758 117.157C117.032 117.157 116.353 117.037 115.719 116.796C115.085 116.555 114.535 116.219 114.067 115.786C113.599 115.354 113.23 114.833 112.96 114.221C112.689 113.61 112.554 112.934 112.554 112.193V103.506H114.805V112.137C114.805 112.533 114.882 112.903 115.036 113.249C115.19 113.595 115.399 113.897 115.664 114.156C115.928 114.416 116.239 114.623 116.596 114.777C116.952 114.931 117.34 115.009 117.758 115.009C118.177 115.009 118.567 114.931 118.93 114.777C119.293 114.623 119.61 114.416 119.881 114.156C120.152 113.897 120.364 113.595 120.518 113.249C120.671 112.903 120.748 112.533 120.748 112.137V103.506H123V112.193C123 112.934 122.865 113.61 122.594 114.221C122.323 114.833 121.951 115.354 121.477 115.786C121.004 116.219 120.447 116.555 119.807 116.796C119.167 117.037 118.484 117.157 117.758 117.157ZM125.972 117.009V103.506H134.905V105.562H128.223V109.192H134.166V111.304H128.223V114.897H135.163V117.009H125.972ZM137.396 117.009V103.506H141.198C141.937 103.506 142.61 103.605 143.219 103.802C143.828 104 144.345 104.284 144.77 104.654C145.194 105.025 145.523 105.482 145.757 106.025C145.991 106.568 146.108 107.179 146.108 107.859C146.108 108.229 146.071 108.6 145.997 108.97C145.923 109.34 145.806 109.699 145.646 110.044C145.486 110.39 145.277 110.708 145.019 110.998C144.76 111.288 144.453 111.539 144.096 111.748C144.367 112.181 144.631 112.604 144.89 113.017C145.148 113.431 145.41 113.848 145.674 114.268C145.939 114.687 146.212 115.12 146.495 115.564C146.778 116.009 147.086 116.49 147.418 117.009H144.705C144.151 116.145 143.628 115.326 143.136 114.555C142.644 113.783 142.17 113.051 141.715 112.36H139.648V117.009H137.396ZM139.648 110.23H141.457C141.924 110.23 142.312 110.149 142.619 109.989C142.927 109.828 143.173 109.634 143.358 109.405C143.542 109.177 143.672 108.93 143.745 108.664C143.819 108.399 143.856 108.155 143.856 107.933C143.856 107.723 143.822 107.485 143.755 107.22C143.687 106.954 143.564 106.704 143.385 106.469C143.207 106.235 142.964 106.037 142.656 105.877C142.349 105.716 141.955 105.636 141.475 105.636H139.648V110.23ZM161.021 103.506V117.639C160.935 117.528 160.744 117.324 160.449 117.028C160.153 116.731 159.79 116.376 159.36 115.962C158.929 115.549 158.452 115.092 157.929 114.592C157.406 114.092 156.874 113.585 156.333 113.073C155.791 112.56 155.262 112.057 154.746 111.563C154.229 111.069 153.758 110.615 153.334 110.202C152.909 109.788 152.552 109.436 152.263 109.146C151.974 108.856 151.786 108.655 151.7 108.544C151.688 108.519 151.639 108.454 151.553 108.349C151.466 108.245 151.393 108.149 151.331 108.062L151.386 108.655V117.009H149.135V102.894C149.221 103.006 149.412 103.206 149.707 103.496C150.002 103.787 150.365 104.136 150.796 104.543C151.226 104.951 151.703 105.395 152.226 105.877C152.749 106.358 153.281 106.849 153.823 107.349C154.364 107.849 154.893 108.343 155.41 108.831C155.927 109.319 156.4 109.763 156.831 110.165C157.262 110.566 157.622 110.909 157.911 111.193C158.2 111.477 158.388 111.674 158.474 111.786L158.824 112.304L158.769 111.674V103.506H161.021ZM164.122 103.506H166.392V117.009H164.122V103.506ZM179.625 116.009C179.477 116.108 179.271 116.225 179.007 116.361C178.742 116.497 178.428 116.623 178.065 116.74C177.703 116.858 177.293 116.957 176.838 117.037C176.383 117.117 175.897 117.157 175.38 117.157C174.322 117.157 173.374 116.975 172.538 116.611C171.701 116.246 170.994 115.756 170.415 115.138C169.837 114.521 169.394 113.798 169.086 112.971C168.779 112.144 168.625 111.273 168.625 110.359C168.625 109.347 168.809 108.411 169.179 107.553C169.548 106.695 170.049 105.954 170.683 105.33C171.317 104.707 172.055 104.222 172.898 103.876C173.74 103.53 174.642 103.358 175.602 103.358C175.971 103.358 176.343 103.385 176.718 103.441C177.093 103.496 177.447 103.567 177.779 103.654C178.112 103.74 178.404 103.839 178.656 103.95C178.908 104.061 179.09 104.179 179.201 104.302C179.09 104.475 179.004 104.617 178.942 104.728C178.881 104.839 178.816 104.954 178.748 105.071C178.681 105.188 178.607 105.321 178.527 105.469C178.447 105.617 178.333 105.821 178.185 106.08C178.038 105.982 177.859 105.895 177.65 105.821C177.441 105.747 177.223 105.688 176.995 105.645C176.767 105.602 176.537 105.568 176.303 105.543C176.069 105.519 175.86 105.506 175.675 105.506C174.986 105.506 174.35 105.636 173.765 105.895C173.181 106.155 172.676 106.497 172.252 106.923C171.827 107.349 171.495 107.846 171.255 108.414C171.015 108.982 170.895 109.569 170.895 110.174C170.895 110.767 171.009 111.344 171.237 111.906C171.464 112.468 171.784 112.965 172.196 113.397C172.608 113.829 173.098 114.178 173.664 114.444C174.23 114.709 174.857 114.842 175.546 114.842C175.94 114.842 176.321 114.802 176.69 114.721C177.06 114.641 177.386 114.552 177.669 114.453C177.952 114.354 178.182 114.255 178.361 114.156C178.539 114.058 178.635 113.99 178.647 113.953L179.625 116.009ZM189.573 117.009C189.536 116.923 189.472 116.768 189.379 116.546C189.287 116.324 189.173 116.052 189.038 115.731C188.903 115.41 188.755 115.055 188.595 114.666C188.435 114.277 188.269 113.872 188.097 113.453H183.464L181.988 117.009H179.754C179.803 116.898 179.92 116.623 180.105 116.185C180.29 115.746 180.52 115.203 180.797 114.555C181.074 113.906 181.382 113.184 181.72 112.388C182.058 111.591 182.406 110.779 182.763 109.952C183.12 109.124 183.467 108.312 183.806 107.516C184.144 106.719 184.451 105.997 184.728 105.349C185.005 104.7 185.236 104.157 185.42 103.719C185.605 103.28 185.722 103.006 185.771 102.894C185.82 103.006 185.94 103.28 186.131 103.719C186.322 104.157 186.556 104.7 186.832 105.349C187.109 105.997 187.417 106.719 187.755 107.516C188.094 108.312 188.441 109.124 188.798 109.952C189.155 110.779 189.502 111.591 189.841 112.388C190.179 113.184 190.487 113.906 190.764 114.555C191.041 115.203 191.271 115.746 191.456 116.185C191.64 116.623 191.757 116.898 191.806 117.009H189.573ZM184.239 111.545H187.303L185.974 108.322C185.962 108.309 185.931 108.226 185.882 108.072C185.833 107.917 185.796 107.778 185.771 107.655C185.747 107.778 185.71 107.917 185.66 108.072C185.611 108.226 185.587 108.309 185.587 108.322L184.239 111.545Z" fill="black"/>
<path fill-rule="evenodd" clip-rule="evenodd" d="M99.5492 96.1706V86.4039H102.207C102.717 86.4039 103.185 86.4713 103.61 86.606C104.035 86.7407 104.402 86.9406 104.71 87.2055C105.019 87.4704 105.258 87.7937 105.428 88.1754C105.599 88.5571 105.684 88.9949 105.684 89.4889C105.684 89.7583 105.657 90.0255 105.603 90.2904C105.549 90.5553 105.462 90.8113 105.341 91.0583C105.22 91.3052 105.066 91.5343 104.878 91.7453C104.69 91.9564 104.462 92.1337 104.194 92.2774C104.552 92.8432 104.941 93.4696 105.361 94.1567C105.782 94.8437 106.207 95.515 106.637 96.1706H104.878C104.699 95.8922 104.513 95.6003 104.321 95.295C104.129 94.9896 103.936 94.6865 103.744 94.3857C103.551 94.0848 103.364 93.7884 103.18 93.4966C102.997 93.2047 102.824 92.933 102.663 92.6816H101.026V96.1706H99.5492ZM101.026 91.294H102.355C102.713 91.294 103.012 91.2334 103.254 91.1122C103.496 90.9909 103.686 90.8405 103.824 90.6609C103.963 90.4812 104.062 90.2882 104.12 90.0816C104.178 89.875 104.207 89.6864 104.207 89.5158C104.207 89.3452 104.178 89.1588 104.12 88.9568C104.062 88.7547 103.961 88.5661 103.818 88.391C103.675 88.2158 103.484 88.0699 103.247 87.9531C103.01 87.8364 102.717 87.778 102.368 87.778H101.026V91.294ZM107.979 96.1706V86.4039H114.368V87.7376H109.455V90.5935H113.831V91.9541H109.455V94.81H114.556V96.1706H107.979ZM117.737 91.294H119.066C119.424 91.294 119.724 91.2312 119.966 91.1054C120.207 90.9797 120.397 90.827 120.536 90.6474C120.675 90.4678 120.773 90.2747 120.831 90.0681C120.89 89.8616 120.919 89.6775 120.919 89.5158C120.919 89.3452 120.89 89.1588 120.831 88.9568C120.773 88.7547 120.673 88.5661 120.529 88.391C120.386 88.2158 120.196 88.0699 119.959 87.9531C119.722 87.8364 119.429 87.778 119.08 87.778H117.737V91.294ZM116.261 96.1706V86.4039H118.919C119.429 86.4039 119.896 86.4713 120.321 86.606C120.746 86.7407 121.113 86.9406 121.422 87.2055C121.731 87.4704 121.97 87.7937 122.14 88.1754C122.31 88.5571 122.395 88.9949 122.395 89.4889C122.395 89.875 122.337 90.259 122.221 90.6407C122.104 91.0223 121.916 91.3636 121.657 91.6645C121.397 91.9653 121.057 92.2101 120.637 92.3987C120.216 92.5873 119.706 92.6816 119.107 92.6816H117.737V96.1706H116.261ZM124.006 96.1706V86.4039H130.395V87.7376H125.482V90.5935H129.858V91.9541H125.482V94.81H130.583V96.1706H124.006ZM140.825 86.4039V96.6152C140.7 96.4535 140.458 96.1931 140.1 95.8338L138.865 94.5945C138.4 94.1275 137.905 93.638 137.382 93.1261C136.858 92.6142 136.364 92.127 135.899 91.6645C135.433 91.202 135.026 90.7888 134.677 90.4251C134.328 90.0614 134.096 89.8032 133.979 89.6505L133.724 89.3003L133.764 89.7313V96.1706H132.288V85.9459C132.386 86.0717 132.55 86.2513 132.778 86.4848C133.006 86.7183 133.275 86.9899 133.583 87.2998C133.892 87.6096 134.232 87.9442 134.603 88.3034C134.975 88.6626 135.351 89.0264 135.731 89.3946C136.111 89.7628 136.487 90.1243 136.858 90.479C137.23 90.8338 137.57 91.1638 137.879 91.4691C138.187 91.7745 138.454 92.0439 138.677 92.2774C138.901 92.5109 139.058 92.686 139.147 92.8028L139.402 93.18L139.362 92.722V86.4039H140.825ZM148.785 86.9428L148.261 88.1417C147.894 88.007 147.53 87.8993 147.167 87.8184C146.805 87.7376 146.458 87.6972 146.127 87.6972C145.563 87.6972 145.114 87.8139 144.778 88.0474C144.442 88.2809 144.275 88.5773 144.275 88.9365C144.275 89.2419 144.395 89.4866 144.637 89.6707C144.879 89.8548 145.178 90.021 145.536 90.1692C145.894 90.3174 146.284 90.4655 146.704 90.6137C147.125 90.7619 147.514 90.9527 147.872 91.1862C148.23 91.4197 148.53 91.7139 148.771 92.0686C149.013 92.4234 149.134 92.8791 149.134 93.4359C149.134 93.867 149.056 94.2554 148.899 94.6012C148.742 94.947 148.51 95.2456 148.201 95.4971C147.892 95.7485 147.507 95.9416 147.047 96.0763C146.586 96.211 146.047 96.2784 145.429 96.2784C145.035 96.2784 144.68 96.2514 144.362 96.1976C144.044 96.1437 143.758 96.0741 143.503 95.9888C143.248 95.9034 143.024 95.8114 142.832 95.7126C142.639 95.6138 142.476 95.524 142.342 95.4432L142.986 94.1634C143.344 94.37 143.742 94.5361 144.181 94.6618C144.619 94.7876 145.017 94.8504 145.375 94.8504C145.554 94.8504 145.776 94.828 146.04 94.7831C146.304 94.7382 146.557 94.6596 146.798 94.5473C147.04 94.4351 147.248 94.2846 147.422 94.096C147.597 93.9074 147.684 93.6695 147.684 93.3821C147.684 93.1216 147.615 92.8993 147.476 92.7152C147.337 92.5311 147.154 92.3695 146.926 92.2303C146.698 92.0911 146.438 91.9653 146.147 91.8531C145.856 91.7408 145.559 91.6241 145.255 91.5028C144.95 91.3816 144.653 91.2536 144.362 91.1189C144.071 90.9842 143.812 90.8203 143.583 90.6272C143.355 90.4341 143.172 90.2096 143.033 89.9536C142.894 89.6977 142.825 89.3901 142.825 89.0308C142.825 88.6986 142.892 88.3708 143.026 88.0474C143.161 87.7241 143.362 87.4367 143.63 87.1853C143.899 86.9338 144.232 86.7317 144.63 86.5791C145.029 86.4264 145.492 86.3501 146.02 86.3501C146.342 86.3501 146.657 86.377 146.966 86.4309C147.275 86.4848 147.554 86.5454 147.805 86.6128C148.055 86.6801 148.268 86.7452 148.443 86.8081C148.617 86.871 148.731 86.9159 148.785 86.9428ZM156.825 96.1706C156.78 96.0718 156.718 95.9281 156.637 95.7395C156.557 95.5509 156.465 95.3332 156.362 95.0862C156.259 94.8392 156.147 94.5698 156.027 94.2779C155.906 93.986 155.783 93.6829 155.657 93.3686H152.221L151.067 96.1706H149.617L153.953 85.9459C154.006 86.0717 154.103 86.3007 154.241 86.633C154.38 86.9653 154.546 87.3626 154.738 87.8252C154.93 88.2877 155.145 88.7996 155.382 89.3609C155.619 89.9222 155.861 90.4902 156.107 91.065C156.353 91.6398 156.595 92.2056 156.832 92.7624C157.069 93.3192 157.286 93.8311 157.483 94.2981C157.68 94.7651 157.848 95.1625 157.986 95.4903C158.125 95.8181 158.221 96.0449 158.275 96.1706H156.825ZM152.731 92.1292H155.161C155.035 91.8329 154.917 91.5477 154.805 91.2738C154.693 90.9999 154.59 90.7484 154.496 90.5194C154.402 90.2904 154.32 90.0906 154.248 89.9199C154.176 89.7493 154.123 89.6146 154.087 89.5158C154.078 89.4978 154.058 89.435 154.026 89.3272C153.995 89.2194 153.971 89.1207 153.953 89.0308C153.935 89.1207 153.908 89.2194 153.872 89.3272C153.836 89.435 153.814 89.4978 153.805 89.5158L152.731 92.1292ZM159.483 96.1706V86.4039H162.141C162.651 86.4039 163.118 86.4713 163.543 86.606C163.968 86.7407 164.335 86.9406 164.644 87.2055C164.953 87.4704 165.192 87.7937 165.362 88.1754C165.532 88.5571 165.617 88.9949 165.617 89.4889C165.617 89.7583 165.59 90.0255 165.537 90.2904C165.483 90.5553 165.396 90.8113 165.275 91.0583C165.154 91.3052 165 91.5343 164.812 91.7453C164.624 91.9564 164.396 92.1337 164.127 92.2774C164.485 92.8432 164.875 93.4696 165.295 94.1567C165.716 94.8437 166.141 95.515 166.57 96.1706H164.812C164.633 95.8922 164.447 95.6003 164.255 95.295C164.062 94.9896 163.87 94.6865 163.678 94.3857C163.485 94.0848 163.297 93.7884 163.114 93.4966C162.93 93.2047 162.758 92.933 162.597 92.6816H160.959V96.1706H159.483ZM160.959 91.294H162.288C162.646 91.294 162.946 91.2334 163.188 91.1122C163.429 90.9909 163.619 90.8405 163.758 90.6609C163.897 90.4812 163.995 90.2882 164.053 90.0816C164.112 89.875 164.141 89.6864 164.141 89.5158C164.141 89.3452 164.112 89.1588 164.053 88.9568C163.995 88.7547 163.895 88.5661 163.751 88.391C163.608 88.2158 163.418 88.0699 163.181 87.9531C162.944 87.8364 162.651 87.778 162.302 87.778H160.959V91.294Z" fill="black"/>
<path fill-rule="evenodd" clip-rule="evenodd" d="M55.1716 114.066C55.1716 112.321 54.3091 111.558 52.5071 110.983C51.7372 110.734 50.7978 110.515 50.7978 109.908C50.7978 109.41 51.1051 109.192 51.5677 109.192H51.829C52.3526 109.192 52.7384 109.472 53.0148 110.002C53.0766 110.126 53.2152 110.126 53.3238 110.049L54.9244 108.974C55.0789 108.881 55.0171 108.725 54.9553 108.632C54.7612 108.291 54.5114 107.986 54.2164 107.728C53.616 107.199 52.7993 106.904 51.799 106.904H51.5677C49.4576 106.904 48.1792 108.056 48.1792 109.986C48.1792 111.715 49.1036 112.4 50.751 112.975C51.7831 113.334 52.553 113.427 52.553 114.128C52.553 114.579 52.2449 114.844 51.7672 114.844H51.2905C50.7669 114.844 50.3811 114.564 50.1048 114.034C50.043 113.91 49.9044 113.91 49.7958 113.988L48.1951 115.062C48.0406 115.155 48.1024 115.296 48.1642 115.388C48.3337 115.685 48.5341 115.95 48.7796 116.183C49.3958 116.79 50.2584 117.133 51.3214 117.133H51.7981C53.97 117.133 55.1708 115.981 55.1708 114.066H55.1716ZM75.5389 116.774V107.235C75.5389 107.11 75.4311 107.079 75.3693 107.079H73.1074C73.0297 107.079 72.9688 107.11 72.9688 107.235V116.774C72.9688 116.899 73.0306 116.931 73.1074 116.931H75.3702C75.4629 116.931 75.5397 116.899 75.5397 116.774H75.5389ZM71.8961 109.234V107.235C71.8961 107.11 71.8043 107.079 71.7425 107.079H65.3371C65.2603 107.079 65.1985 107.11 65.1985 107.235V116.774C65.1985 116.899 65.2603 116.931 65.3371 116.931H67.615C67.6927 116.931 67.7704 116.899 67.7704 116.774V113.261C67.7704 113.152 67.8163 113.089 67.9549 113.089H71.0644C71.1421 113.089 71.2189 113.058 71.2189 112.949V110.935C71.2189 110.826 71.1421 110.794 71.0644 110.794H67.9549C67.8163 110.794 67.7695 110.732 67.7695 110.622V109.545C67.7695 109.437 67.8163 109.374 67.9549 109.374H71.7425C71.8343 109.374 71.8961 109.343 71.8961 109.233V109.234ZM85.044 116.728L81.8223 107.196C81.7914 107.102 81.7455 107.087 81.6837 107.087H80.0027C79.91 107.087 79.8791 107.117 79.8491 107.196L76.6266 116.728C76.5798 116.852 76.6416 116.931 76.7802 116.931H79.1551C79.232 116.931 79.2629 116.899 79.2938 116.821L79.7096 115.651C79.7405 115.573 79.7714 115.542 79.895 115.542H81.7455C81.8691 115.542 81.915 115.573 81.9459 115.651L82.3468 116.821C82.3768 116.899 82.3927 116.931 82.4854 116.931H84.9062C85.0758 116.931 85.0908 116.852 85.0449 116.728H85.044ZM81.4215 113.561C81.4365 113.638 81.3906 113.701 81.2829 113.701H80.3885C80.2649 113.701 80.219 113.639 80.234 113.56L80.5113 112.344C80.7276 111.424 80.8353 110.425 80.8353 110.425H80.8812C80.8812 110.425 80.9898 111.424 81.1743 112.344L81.4215 113.561ZM36.074 116.75V107.237C36.074 107.112 35.9813 107.08 35.9204 107.08H33.7485C33.6558 107.08 33.6099 107.112 33.6099 107.237V109.758C33.6099 111.144 33.6867 112.359 33.6867 112.359H33.6408C33.6408 112.359 33.5172 112.016 33.3017 111.611L31.023 107.221C30.9762 107.127 30.9144 107.08 30.8226 107.08H28.8661C28.7893 107.08 28.7275 107.112 28.7275 107.237V116.75C28.7275 116.873 28.7893 116.905 28.8661 116.905H31.0839C31.1766 116.905 31.2384 116.874 31.2384 116.75V114.273C31.2384 112.997 31.1457 111.767 31.1457 111.767H31.2075C31.2075 111.767 31.3311 112.109 31.5307 112.468L33.8262 116.765C33.8712 116.842 33.918 116.905 33.9948 116.905H35.9195C36.0122 116.905 36.074 116.874 36.074 116.75V116.75ZM27.2416 116.75V107.237C27.2416 107.112 27.1339 107.08 27.0721 107.08H24.8084C24.7307 107.08 24.6698 107.112 24.6698 107.237V116.75C24.6698 116.873 24.7316 116.905 24.8084 116.905H27.0721C27.1648 116.905 27.2416 116.874 27.2416 116.75V116.75ZM63.974 114.205V109.831C63.974 108.056 62.6346 106.904 60.6632 106.904H59.5861C57.6137 106.904 56.2435 108.071 56.2435 109.831V114.205C56.2435 115.965 57.5828 117.133 59.5852 117.133H60.6623C62.6346 117.133 63.974 115.965 63.974 114.205ZM61.418 114.205C61.418 114.579 61.1408 114.844 60.6632 114.844H59.5861C59.0466 114.844 58.7694 114.595 58.7694 114.205V109.831C58.7694 109.504 59.1384 109.177 59.5852 109.177H60.6623C61.1099 109.177 61.418 109.457 61.418 109.831V114.205ZM45.4935 116.703L42.2745 107.19C42.2436 107.096 42.1977 107.08 42.1359 107.08H40.4584C40.3657 107.08 40.3348 107.112 40.3039 107.19L37.0858 116.703C37.039 116.827 37.1008 116.905 37.2394 116.905H39.6108C39.6885 116.905 39.7185 116.874 39.7503 116.796L40.1653 115.628C40.1962 115.551 40.2271 115.519 40.3507 115.519H42.1986C42.3222 115.519 42.3681 115.551 42.399 115.628L42.7989 116.796C42.8298 116.874 42.8457 116.905 42.9375 116.905H45.3557C45.5253 116.905 45.5403 116.827 45.4944 116.702L45.4935 116.703ZM41.8737 113.542C41.8895 113.62 41.8436 113.682 41.7359 113.682H40.8424C40.7188 113.682 40.6729 113.62 40.6888 113.542L40.9652 112.327C41.1815 111.409 41.2883 110.412 41.2883 110.412H41.3351C41.3351 110.412 41.4428 111.409 41.6273 112.328L41.8745 113.542H41.8737ZM23.183 116.75V114.756C23.183 114.648 23.1062 114.617 23.0294 114.617H19.2418C19.1023 114.617 19.0564 114.555 19.0564 114.445V113.246C19.0564 113.137 19.1023 113.075 19.2418 113.075H22.3522C22.429 113.075 22.5058 113.043 22.5058 112.934V110.926C22.5058 110.817 22.429 110.786 22.3522 110.786H19.2409C19.1023 110.786 19.0555 110.724 19.0555 110.615V109.54C19.0555 109.431 19.1023 109.37 19.2409 109.37H23.0294C23.1221 109.37 23.183 109.338 23.183 109.228V107.237C23.183 107.112 23.0912 107.08 23.0294 107.08H16.6232C16.5464 107.08 16.4846 107.112 16.4846 107.237V116.75C16.4846 116.873 16.5464 116.905 16.6232 116.905H23.0294C23.1221 116.905 23.183 116.874 23.183 116.75V116.75ZM12.3642 110.319C12.3642 110.74 12.0711 110.942 11.5943 110.942H9.91505C9.77644 110.942 9.72965 110.88 9.72965 110.771V109.54C9.72965 109.431 9.77644 109.37 9.91505 109.37H11.5943C12.102 109.37 12.3642 109.603 12.3642 110.023V110.319V110.319ZM15.2132 116.702L13.7035 112.794C13.6576 112.655 13.6417 112.545 13.7812 112.453C14.4584 112.016 14.9051 111.27 14.9051 110.304V110.163C14.9051 108.248 13.6117 107.08 11.5943 107.08H7.2973C7.21961 107.08 7.15869 107.112 7.15869 107.237V116.75C7.15869 116.873 7.22049 116.905 7.2973 116.905H9.57514C9.65195 116.905 9.72965 116.874 9.72965 116.75V113.246C9.72965 113.137 9.77556 113.075 9.91417 113.075H10.9763C11.0381 113.075 11.0849 113.106 11.1158 113.184L12.5319 116.796C12.5628 116.858 12.6096 116.905 12.6705 116.905H15.0737C15.2274 116.905 15.2583 116.811 15.2124 116.702H15.2132ZM57.9262 88.2264C57.9262 89.4845 56.9904 90.3188 55.6131 90.3188H54.8609C53.4633 90.3188 52.5274 89.4845 52.5274 88.2264V85.0975C52.5274 83.8394 53.4844 83.0042 54.8609 83.0042H55.614C56.9913 83.0042 57.9262 83.8279 57.9262 85.0966V85.6969H56.141V85.0966C56.141 84.83 55.9256 84.6295 55.614 84.6295H54.8609C54.5492 84.6295 54.2905 84.8635 54.2905 85.0975V88.2264C54.2905 88.5045 54.4848 88.6829 54.8609 88.6829H55.614C55.9477 88.6829 56.141 88.493 56.141 88.2264V87.626H57.9262V88.2264V88.2264ZM13.564 90.0805V83.2708C13.564 83.1816 13.5199 83.1587 13.4563 83.1587H11.8954C11.8729 83.1585 11.8508 83.1647 11.8317 83.1765C11.8127 83.1884 11.7974 83.2055 11.7876 83.2258L10.5498 86.6478C10.498 86.7948 10.4512 86.9435 10.4095 87.0937H10.3662C10.3662 87.0937 10.345 86.8932 10.2479 86.6478L8.96772 83.2266C8.95793 83.2062 8.9425 83.1891 8.92325 83.1772C8.904 83.1653 8.88175 83.1592 8.85912 83.1595H7.25581C7.19048 83.1595 7.15869 83.1825 7.15869 83.2717V90.0805C7.15869 90.1687 7.19048 90.1917 7.25581 90.1917H8.77348C8.84853 90.1917 8.8812 90.1696 8.8812 90.0805V88.6202C8.8812 87.5616 8.78408 86.5922 8.78408 86.5922H8.81675C8.81675 86.5922 8.91386 87.0601 9.08514 87.5616L9.65637 89.2444C9.68815 89.3335 9.78527 89.3556 9.84972 89.3556H10.8942C10.9586 89.3556 11.0443 89.3335 11.0769 89.2444L11.6473 87.5951C11.8194 87.0937 11.9165 86.5922 11.9165 86.5922H11.9492C11.9492 86.5922 11.8733 87.5951 11.8733 88.6422V90.0805C11.8733 90.1687 11.8954 90.1917 11.9704 90.1917H13.4563C13.5207 90.1917 13.564 90.1696 13.564 90.0805V90.0805ZM31.4759 90.076V88.6493C31.4759 88.5716 31.4221 88.5495 31.3682 88.5495H28.8617C28.7646 88.5495 28.7328 88.5054 28.7328 88.4259V87.5687C28.7328 87.491 28.7646 87.4459 28.8617 87.4459H30.8941C30.9489 87.4459 31.0027 87.4239 31.0027 87.3453V85.908C31.0027 85.8303 30.9489 85.8082 30.8941 85.8082H28.8617C28.7646 85.8082 28.7328 85.764 28.7328 85.6846V84.9165C28.7328 84.8388 28.7646 84.7938 28.8617 84.7938H31.3691C31.4327 84.7938 31.4751 84.7717 31.4751 84.694V83.2672C31.4751 83.1781 31.4115 83.156 31.3691 83.156H27.0324C26.9776 83.156 26.9353 83.1781 26.9353 83.2672V90.076C26.9353 90.1643 26.9776 90.1873 27.0324 90.1873H31.3682C31.4327 90.1873 31.4759 90.1652 31.4759 90.076ZM25.9703 88.1372C25.9703 86.8888 25.3682 86.3423 24.1083 85.93C23.5697 85.7526 22.9137 85.5963 22.9137 85.1619C22.9137 84.8043 23.1283 84.6498 23.4523 84.6498H23.6351C24.0006 84.6498 24.2698 84.8494 24.4632 85.2281C24.5073 85.3173 24.6036 85.3173 24.6786 85.2617L25.7981 84.4936C25.9058 84.4256 25.8626 84.3143 25.8202 84.2472C25.6849 84.0045 25.51 83.7861 25.3028 83.601C24.8834 83.2222 24.3131 83.0112 23.613 83.0112H23.4514C21.977 83.0112 21.0835 83.8349 21.0835 85.2175C21.0835 86.4536 21.7289 86.9445 22.8811 87.3568C23.6024 87.6128 24.1401 87.6799 24.1401 88.1814C24.1401 88.5045 23.9255 88.6934 23.5918 88.6934H23.2581C22.8917 88.6934 22.6224 88.4939 22.429 88.1143C22.3858 88.026 22.2887 88.026 22.2136 88.0816L21.0941 88.8497C20.9864 88.9168 21.0297 89.0175 21.0729 89.0846C21.1912 89.2965 21.3316 89.4854 21.5029 89.6523C21.9337 90.0875 22.5359 90.3321 23.2793 90.3321H23.613C25.1315 90.3321 25.9703 89.5075 25.9703 88.1372V88.1372ZM37.6985 88.237V85.1072C37.6985 83.8358 36.7618 83.0121 35.3836 83.0121H34.6305C33.2532 83.0121 32.2944 83.8473 32.2944 85.1072V88.2379C32.2944 89.4978 33.2302 90.333 34.6305 90.333H35.3836C36.7618 90.333 37.6985 89.4978 37.6985 88.2379V88.237ZM35.9115 88.237C35.9115 88.5045 35.7173 88.6943 35.3836 88.6943H34.6305C34.2535 88.6943 34.0593 88.516 34.0593 88.237V85.1072C34.0593 84.8723 34.3179 84.6392 34.6305 84.6392H35.3836C35.6961 84.6392 35.9115 84.8397 35.9115 85.1072V88.2379V88.237ZM20.2086 88.2414V83.2708C20.2086 83.1825 20.1759 83.1595 20.1115 83.1595H18.5293C18.4755 83.1595 18.4322 83.1825 18.4322 83.2717V88.2423C18.4322 88.5204 18.2707 88.6987 17.8937 88.6987H17.1406C16.7424 88.6987 16.5702 88.5204 16.5702 88.2414V83.2708C16.5702 83.1825 16.5164 83.1595 16.4731 83.1595H14.9122C14.8477 83.1595 14.8151 83.1825 14.8151 83.2717V88.2423C14.8151 89.5004 15.7412 90.3365 17.1406 90.3365H17.8937C19.271 90.3365 20.2086 89.5004 20.2086 88.2414ZM45.5032 90.0822V83.2734C45.5032 83.1843 45.4379 83.1613 45.3955 83.1613H43.8769C43.8125 83.1613 43.7798 83.1843 43.7798 83.2734V85.078C43.7798 86.0704 43.8345 86.9392 43.8345 86.9392H43.8019C43.8019 86.9392 43.7162 86.6946 43.5653 86.4041L41.9717 83.262C41.9399 83.1949 41.8966 83.1613 41.8322 83.1613H40.4646C40.4116 83.1613 40.3675 83.1843 40.3675 83.2734V90.0822C40.3675 90.1705 40.4116 90.1935 40.4646 90.1935H42.0149C42.0794 90.1935 42.1226 90.1714 42.1226 90.0822V88.3103C42.1226 87.3965 42.0582 86.5163 42.0582 86.5163H42.1014C42.1014 86.5163 42.1871 86.7608 42.3275 87.0177L43.9308 90.0937C43.9634 90.1493 43.9961 90.1935 44.05 90.1935H45.3955C45.4599 90.1935 45.5032 90.1714 45.5032 90.0822V90.0822ZM85.021 90.0822V88.6555C85.021 88.5778 84.9672 88.5548 84.9133 88.5548H82.2647C82.1675 88.5548 82.1366 88.5107 82.1366 88.433V83.2734C82.1366 83.1843 82.0713 83.1613 82.028 83.1613H80.4353C80.3815 83.1613 80.3382 83.1843 80.3382 83.2734V90.0822C80.3382 90.1705 80.3815 90.1935 80.4353 90.1935H84.9133C84.9778 90.1935 85.021 90.1714 85.021 90.0822V90.0822ZM73.1339 90.0822V83.2734C73.1339 83.1843 73.0694 83.1613 73.0262 83.1613H71.5085C71.4432 83.1613 71.4114 83.1843 71.4114 83.2734V85.078C71.4114 86.0704 71.4644 86.9392 71.4644 86.9392H71.4326C71.4326 86.9392 71.3469 86.6946 71.196 86.4041L69.6024 83.262C69.5697 83.1949 69.5264 83.1613 69.462 83.1613H68.0953C68.0414 83.1613 67.9982 83.1843 67.9982 83.2734V90.0822C67.9982 90.1705 68.0414 90.1935 68.0953 90.1935H69.6447C69.7101 90.1935 69.7524 90.1714 69.7524 90.0822V88.3103C69.7524 87.3965 69.688 86.5163 69.688 86.5163H69.7321C69.7321 86.5163 69.8178 86.7608 69.9573 87.0177L71.5615 90.0937C71.5933 90.1493 71.6259 90.1935 71.6798 90.1935H73.0253C73.0897 90.1935 73.133 90.1714 73.133 90.0822H73.1339ZM60.6437 90.0822V83.2734C60.6437 83.1843 60.5678 83.1613 60.5254 83.1613H58.9424C58.8895 83.1613 58.8453 83.1843 58.8453 83.2734V90.0822C58.8453 90.1705 58.8895 90.1935 58.9424 90.1935H60.5254C60.5899 90.1935 60.6437 90.1714 60.6437 90.0822ZM79.5313 90.0487L77.2817 83.2399C77.2596 83.1728 77.2269 83.1613 77.1846 83.1613H76.0103C75.9468 83.1613 75.9247 83.1843 75.9035 83.2399L73.6539 90.0487C73.6212 90.137 73.6645 90.1935 73.7607 90.1935H75.4188C75.4718 90.1935 75.4947 90.1714 75.5159 90.1158L75.8064 89.2797C75.8276 89.2241 75.8496 89.202 75.9353 89.202H77.2269C77.3135 89.202 77.3461 89.2241 77.3682 89.2797L77.6472 90.1158C77.6684 90.1714 77.6799 90.1935 77.7443 90.1935H79.4341C79.5524 90.1935 79.563 90.1378 79.5313 90.0487V90.0487ZM77.0009 87.7867C77.0124 87.8423 76.9797 87.8865 76.9038 87.8865H76.2805C76.194 87.8865 76.1622 87.8423 76.1728 87.7867L76.3661 86.9171C76.5162 86.2593 76.5921 85.546 76.5921 85.546H76.6248C76.6248 85.546 76.6999 86.2593 76.8288 86.9171L77.0009 87.7867V87.7867ZM66.9272 88.2432V85.1116C66.9272 83.8411 65.9914 83.0165 64.6132 83.0165H63.8592C62.4819 83.0165 61.5231 83.8526 61.5231 85.1116V88.2432C61.5231 89.5022 62.4598 90.3383 63.8592 90.3383H64.6132C65.9905 90.3383 66.9272 89.5022 66.9272 88.2432V88.2432ZM65.1403 88.2432C65.1403 88.5107 64.946 88.7005 64.6132 88.7005H63.8592C63.4831 88.7005 63.2889 88.5222 63.2889 88.2432V85.1116C63.2889 84.8776 63.5467 84.6437 63.8592 84.6437H64.6132C64.9257 84.6437 65.1403 84.845 65.1403 85.1116V88.2432V88.2432ZM52.1195 90.0478L49.869 83.239C49.8479 83.1719 49.8161 83.1613 49.7719 83.1613H48.5986C48.535 83.1613 48.5129 83.1834 48.4917 83.239L46.2413 90.0478C46.2095 90.137 46.2528 90.1935 46.349 90.1935H48.007C48.0609 90.1935 48.0821 90.1705 48.1042 90.1149L48.3946 89.2797C48.4158 89.2232 48.437 89.2011 48.5235 89.2011H49.8152C49.9017 89.2011 49.9335 89.2232 49.9556 89.2797L50.2354 90.1149C50.2566 90.1705 50.2672 90.1935 50.3326 90.1935H52.0224C52.1407 90.1935 52.1513 90.137 52.1195 90.0478V90.0478ZM49.5892 87.7858C49.5998 87.8415 49.568 87.8865 49.4921 87.8865H48.8679C48.7822 87.8865 48.7495 87.8423 48.7601 87.7858L48.9544 86.9171C49.1045 86.2593 49.1804 85.546 49.1804 85.546H49.2122C49.2122 85.546 49.2881 86.2593 49.417 86.9171L49.5892 87.7858V87.7858ZM12.5637 97.095C12.5637 98.3531 11.6278 99.1883 10.2505 99.1883H9.49833C8.10073 99.1883 7.16399 98.3531 7.16399 97.095V93.9651C7.16399 92.707 8.12192 91.8727 9.49833 91.8727H10.2514C11.6278 91.8727 12.5637 92.6956 12.5637 93.9651V94.5655H10.7776V93.9651C10.7776 93.6985 10.5631 93.4972 10.2514 93.4972H9.49833C9.18667 93.4972 8.92799 93.7312 8.92799 93.9651V97.095C8.92799 97.3731 9.12222 97.5514 9.49833 97.5514H10.2514C10.5843 97.5514 10.7776 97.3625 10.7776 97.095V96.4946H12.5637V97.095ZM30.9259 93.6093V92.1826C30.9259 92.0934 30.8615 92.0714 30.8288 92.0714H26.1257C26.0727 92.0714 26.018 92.0934 26.018 92.1826V93.6093C26.018 93.687 26.0718 93.71 26.1257 93.71H27.4447C27.563 93.71 27.5842 93.7541 27.5842 93.8318V98.9932C27.5842 99.0814 27.6275 99.1044 27.6813 99.1044H29.2634C29.3164 99.1044 29.3711 99.0814 29.3711 98.9932V93.8318C29.3711 93.7541 29.3923 93.71 29.5 93.71H30.8297C30.8826 93.71 30.9268 93.687 30.9268 93.6093H30.9259ZM24.9382 98.9932V92.1826C24.9382 92.0934 24.8737 92.0714 24.8314 92.0714H23.3128C23.2484 92.0714 23.2157 92.0934 23.2157 92.1826V93.9881C23.2157 94.9805 23.2704 95.8492 23.2704 95.8492H23.2378C23.2378 95.8492 23.1521 95.6047 23.0011 95.3151L21.4084 92.172C21.3758 92.104 21.3325 92.0714 21.268 92.0714H19.9013C19.8475 92.0714 19.8042 92.0934 19.8042 92.1826V98.9932C19.8042 99.0814 19.8475 99.1044 19.9013 99.1044H21.4508C21.5153 99.1044 21.5585 99.0823 21.5585 98.9932V97.2203C21.5585 96.3065 21.4941 95.4263 21.4941 95.4263H21.5382C21.5382 95.4263 21.6238 95.6709 21.7633 95.9278L23.3675 99.0038C23.3993 99.0594 23.432 99.1044 23.4858 99.1044H24.8314C24.8958 99.1044 24.9382 99.0823 24.9382 98.9932V98.9932ZM43.846 97.0967V93.9643C43.846 92.6929 42.9102 91.8692 41.532 91.8692H40.7789C39.4016 91.8692 38.4428 92.7044 38.4428 93.9643V97.0958C38.4428 98.3557 39.3786 99.1918 40.7789 99.1918H41.532C42.9093 99.1918 43.846 98.3557 43.846 97.0958V97.0967ZM42.0599 97.0967C42.0599 97.3642 41.8657 97.5532 41.532 97.5532H40.7789C40.4019 97.5532 40.2085 97.3748 40.2085 97.0958V93.9643C40.2085 93.7303 40.4663 93.4963 40.7789 93.4963H41.532C41.8445 93.4963 42.0599 93.6967 42.0599 93.9643V97.0958V97.0967ZM37.6279 98.9596L36.5728 96.1609C36.541 96.0611 36.5304 95.9834 36.6267 95.9163C37.1008 95.6047 37.4124 95.0687 37.4124 94.3783V94.2777C37.4124 92.9066 36.5084 92.0705 35.0993 92.0705H32.0957C32.0419 92.0705 31.9986 92.0934 31.9986 92.1826V98.9932C31.9986 99.0814 32.0419 99.1044 32.0957 99.1044H33.6884C33.7423 99.1044 33.7962 99.0823 33.7962 98.9932V96.4849C33.7962 96.4063 33.8279 96.3622 33.9251 96.3622H34.6676C34.7117 96.3622 34.7435 96.3842 34.7647 96.4399L35.7553 99.0267C35.7765 99.0709 35.8082 99.1044 35.8524 99.1044H37.5308C37.6385 99.1044 37.6605 99.0373 37.6279 98.9596V98.9596ZM35.6378 94.3898C35.6378 94.69 35.433 94.8357 35.0993 94.8357H33.9251C33.8279 94.8357 33.7962 94.7915 33.7962 94.7121V93.8318C33.7962 93.7541 33.8279 93.71 33.9251 93.71H35.0993C35.4533 93.71 35.637 93.8769 35.637 94.1779V94.3898H35.6378ZM18.4516 98.9932V97.5664C18.4516 97.4878 18.3987 97.4658 18.3439 97.4658H15.6962C15.5991 97.4658 15.5673 97.4216 15.5673 97.3431V96.4849C15.5673 96.4063 15.5999 96.3622 15.6962 96.3622H17.8707C17.9237 96.3622 17.9784 96.3401 17.9784 96.2615V94.8242C17.9784 94.7456 17.9246 94.7235 17.8707 94.7235H15.6962C15.5991 94.7235 15.5673 94.6794 15.5673 94.6008V93.8327C15.5673 93.7541 15.5999 93.7091 15.6962 93.7091H18.3448C18.4093 93.7091 18.4516 93.687 18.4516 93.6093V92.1826C18.4516 92.0934 18.3872 92.0714 18.3439 92.0714H13.8668C13.813 92.0714 13.7697 92.0934 13.7697 92.1826V98.9932C13.7697 99.0814 13.813 99.1044 13.8668 99.1044H18.3439C18.4093 99.1044 18.4516 99.0823 18.4516 98.9932V98.9932ZM85.0201 98.9932V97.5664C85.0201 97.4878 84.9663 97.4658 84.9124 97.4658H82.2638C82.1667 97.4658 82.1358 97.4216 82.1358 97.3431V96.4849C82.1358 96.4072 82.1675 96.3622 82.2647 96.3622H84.4383C84.4922 96.3622 84.546 96.3401 84.546 96.2624V94.8233C84.546 94.7465 84.4931 94.7235 84.4383 94.7235H82.2647C82.1675 94.7235 82.1358 94.6794 82.1358 94.6017V93.8318C82.1358 93.7541 82.1675 93.71 82.2647 93.71H84.9124C84.9769 93.71 85.0201 93.687 85.0201 93.6093V92.1826C85.0201 92.0934 84.9548 92.0714 84.9124 92.0714H80.4344C80.3815 92.0714 80.3373 92.0934 80.3373 92.1826V98.9932C80.3373 99.0814 80.3815 99.1044 80.4344 99.1044H84.9124C84.9769 99.1044 85.0201 99.0814 85.0201 98.9932ZM79.0571 93.6093V92.1826C79.0571 92.0934 78.9918 92.0714 78.96 92.0714H74.2551C74.2022 92.0714 74.1474 92.0934 74.1474 92.1826V93.6093C74.1474 93.687 74.2013 93.71 74.2551 93.71H75.5742C75.6925 93.71 75.7137 93.7541 75.7137 93.8318V98.9932C75.7137 99.0814 75.7569 99.1044 75.8108 99.1044H77.3929C77.4459 99.1044 77.5006 99.0814 77.5006 98.9932V93.8318C77.5006 93.7541 77.5218 93.71 77.6295 93.71H78.9591C79.0121 93.71 79.0563 93.687 79.0563 93.6093H79.0571ZM58.3156 98.9932V97.5664C58.3156 97.4878 58.2626 97.4658 58.2079 97.4658H55.5601C55.463 97.4658 55.4312 97.4216 55.4312 97.3431V96.4849C55.4312 96.4072 55.463 96.3622 55.5601 96.3622H57.7346C57.7885 96.3622 57.8424 96.3401 57.8424 96.2624V94.8233C57.8424 94.7465 57.7885 94.7235 57.7346 94.7235H55.5601C55.463 94.7235 55.4312 94.6794 55.4312 94.6017V93.8318C55.4312 93.7541 55.463 93.71 55.5601 93.71H58.2088C58.2732 93.71 58.3156 93.687 58.3156 93.6093V92.1826C58.3156 92.0934 58.2511 92.0714 58.2079 92.0714H53.7308C53.6769 92.0714 53.6337 92.0934 53.6337 92.1826V98.9932C53.6337 99.0814 53.6769 99.1044 53.7308 99.1044H58.2079C58.2732 99.1044 58.3156 99.0814 58.3156 98.9932ZM50.4826 97.0084C50.4826 97.2433 50.246 97.4658 49.9441 97.4658H48.7707C48.6736 97.4658 48.6418 97.4216 48.6418 97.3431V93.8318C48.6418 93.7541 48.6745 93.71 48.7707 93.71H49.945C50.2354 93.71 50.4826 93.9545 50.4826 94.1779V97.0084ZM52.259 96.9201V94.2786C52.259 92.9074 51.3541 92.0714 49.945 92.0714H46.9414C46.8875 92.0714 46.8443 92.0934 46.8443 92.1826V98.9932C46.8443 99.0814 46.8875 99.1044 46.9414 99.1044H49.945C51.3541 99.1044 52.2581 98.2683 52.2581 96.9193L52.259 96.9201ZM73.6283 98.9596L72.5733 96.1609C72.5415 96.0611 72.5309 95.9834 72.6271 95.9163C73.1012 95.6047 73.4129 95.0687 73.4129 94.3783V94.2777C73.4129 92.9074 72.5088 92.0705 71.0988 92.0705H68.0962C68.0423 92.0705 67.999 92.0934 67.999 92.1826V98.9932C67.999 99.0814 68.0423 99.1044 68.0962 99.1044H69.6889C69.7419 99.1044 69.7966 99.0823 69.7966 98.9932V96.4849C69.7966 96.4072 69.8284 96.3622 69.9255 96.3622H70.668C70.7121 96.3622 70.7439 96.3851 70.7651 96.4407L71.7557 99.0258C71.7769 99.07 71.8087 99.1044 71.8528 99.1044H73.5312C73.6389 99.1044 73.6601 99.0373 73.6283 98.9596V98.9596ZM71.6374 94.3898C71.6374 94.69 71.4326 94.8357 71.0988 94.8357H69.9255C69.8284 94.8357 69.7966 94.7915 69.7966 94.7121V93.8318C69.7966 93.7541 69.8284 93.71 69.9255 93.71H71.0988C71.4538 93.71 71.6374 93.8769 71.6374 94.1779V94.3898V94.3898ZM67.0747 98.9596L64.8251 92.149C64.8039 92.082 64.7721 92.0714 64.728 92.0714H63.5555C63.491 92.0714 63.469 92.0934 63.4478 92.149L61.1973 98.9596C61.1646 99.0479 61.2079 99.1044 61.3041 99.1044H62.9622C63.0161 99.1044 63.0381 99.0823 63.0593 99.0258L63.3507 98.1906C63.371 98.135 63.393 98.112 63.4787 98.112H64.7703C64.8569 98.112 64.8895 98.135 64.9107 98.1906L65.1906 99.0258C65.2118 99.0823 65.2224 99.1044 65.2877 99.1044H66.9775C67.0959 99.1044 67.1064 99.0488 67.0747 98.9596V98.9596ZM64.5452 96.6968C64.5558 96.7524 64.524 96.7974 64.4481 96.7974H63.8239C63.7382 96.7974 63.7056 96.7524 63.7171 96.6968L63.9104 95.8271C64.0605 95.1694 64.1364 94.456 64.1364 94.456H64.1691C64.1691 94.456 64.2441 95.1694 64.373 95.8271L64.5452 96.6968Z" fill="black"/>
<path fill-rule="evenodd" clip-rule="evenodd" d="M4.34405 101.922H87.8339V80.3458H4.34494L4.34317 101.922H4.34405ZM87.8348 104.267H4.34494V119.744H87.8339L87.8348 104.267ZM2 122.089H90.1779V78H2V122.089Z" fill="black"/>
</g>
<defs>
<clipPath id="clip0">
<rect width="196" height="44.1441" fill="white" transform="translate(2 78)"/>
</clipPath>
</defs>
</svg>
