<svg width="200" height="200" viewBox="0 0 200 200" fill="none" xmlns="http://www.w3.org/2000/svg">
<rect width="200" height="200" fill="white"/>
<g clip-path="url(#clip0)">
<path d="M35.4828 115.713C35.5253 116.342 35.4379 116.973 35.226 117.568C35.0141 118.162 34.6822 118.706 34.251 119.166C33.8197 119.627 33.2983 119.993 32.7193 120.244C32.1402 120.494 31.5159 120.622 30.8851 120.621C30.2947 120.636 29.7079 120.526 29.1631 120.298C28.6183 120.07 28.1279 119.73 27.7241 119.299V120.448H26.5747V107.035H27.7241V112.414C28.1332 111.953 28.6387 111.587 29.2048 111.342C29.7708 111.098 30.3837 110.981 31 111C31.6119 110.987 32.2198 111.102 32.7847 111.338C33.3497 111.573 33.8594 111.924 34.2812 112.367C34.703 112.811 35.0278 113.337 35.2346 113.913C35.4415 114.489 35.526 115.102 35.4828 115.713V115.713ZM34.3333 115.713C34.3682 115.239 34.3048 114.763 34.1471 114.315C33.9895 113.867 33.741 113.457 33.4173 113.109C33.0936 112.762 32.7015 112.485 32.2658 112.296C31.83 112.107 31.36 112.01 30.8851 112.012C30.2671 112.003 29.6563 112.145 29.1056 112.425C28.5548 112.706 28.0807 113.116 27.7241 113.621V117.977C28.0918 118.48 28.5752 118.886 29.1335 119.163C29.6917 119.439 30.3083 119.576 30.931 119.563C31.4155 119.566 31.895 119.466 32.3384 119.271C32.7818 119.076 33.1792 118.79 33.5045 118.431C33.8298 118.072 34.0759 117.648 34.2266 117.188C34.3773 116.728 34.4294 116.241 34.3793 115.759L34.3333 115.713Z" fill="black"/>
<path d="M45.5747 111.172L41.3563 121.379C40.6207 123.149 39.5402 124.08 37.977 124.08C37.4428 124.085 36.9138 123.975 36.4253 123.759V122.609C36.8885 122.845 37.3998 122.971 37.9195 122.977C38.4152 123.006 38.907 122.874 39.3214 122.601C39.7357 122.327 40.0504 121.927 40.2184 121.46L40.6207 120.448L36.6782 111.126H37.954L41.1724 119.08L44.3563 111.126L45.5747 111.172Z" fill="black"/>
<path d="M56.2644 120.805C54.703 120.826 53.1871 120.279 52 119.264V116.494C53.21 117.646 54.7918 118.326 56.4598 118.414C57.6092 118.414 58.6781 117.965 58.6781 116.862C58.6781 115.759 57.4138 115.437 56.1379 115.069C54.0575 114.483 51.7241 113.713 51.7241 110.977C51.7241 108.241 54.023 106.943 56.5172 106.943C57.7687 106.942 58.9952 107.292 60.0575 107.954V110.471C58.9984 109.767 57.7652 109.369 56.4942 109.322C55.2069 109.322 54.1954 109.874 54.1954 110.943C54.1954 112.011 55.4138 112.379 57.0575 112.839C58.931 113.345 61.1149 113.988 61.1149 116.667C61.1149 119.345 58.7586 120.805 56.2644 120.805Z" fill="black"/>
<path d="M63.0114 107.862C63 107.553 63.0809 107.248 63.2438 106.986C63.4067 106.724 63.6442 106.516 63.9259 106.389C64.2075 106.263 64.5205 106.223 64.8249 106.275C65.1293 106.328 65.4111 106.47 65.6343 106.683C65.8575 106.896 66.012 107.171 66.078 107.473C66.144 107.775 66.1184 108.089 66.0046 108.376C65.8908 108.664 65.694 108.91 65.4392 109.085C65.1845 109.259 64.8835 109.354 64.5747 109.356C64.3715 109.371 64.1676 109.343 63.9759 109.274C63.7843 109.205 63.6093 109.096 63.462 108.955C63.3148 108.815 63.1987 108.645 63.1211 108.456C63.0434 108.268 63.0061 108.066 63.0114 107.862ZM63.3563 120.448V110.828H65.6551V120.448H63.3563Z" fill="black"/>
<path d="M77.4482 114.598V120.448H75.1494V114.805C75.1529 114.525 75.0968 114.248 74.9847 113.992C74.8726 113.735 74.7071 113.506 74.4993 113.319C74.2915 113.132 74.0462 112.991 73.7797 112.907C73.5132 112.822 73.2317 112.795 72.954 112.828C72.5587 112.811 72.1652 112.89 71.807 113.059C71.4489 113.227 71.1365 113.479 70.8965 113.793V120.448H68.5977V110.828H70.816V111.713C71.1734 111.358 71.5991 111.079 72.0674 110.893C72.5356 110.708 73.0366 110.619 73.5402 110.632C74.0673 110.597 74.5958 110.677 75.0896 110.865C75.5834 111.052 76.0309 111.344 76.4017 111.721C76.7725 112.097 77.0579 112.549 77.2385 113.045C77.4191 113.542 77.4906 114.071 77.4482 114.598V114.598Z" fill="black"/>
<path d="M89.4943 113H87.2874C87.5212 113.197 87.7054 113.447 87.8252 113.728C87.945 114.01 87.997 114.315 87.977 114.621C87.977 116.92 85.8621 117.563 84.4368 117.851C83.0115 118.138 82.2989 118.08 82.2989 118.644C82.2989 119.207 83.115 119.287 83.7357 119.299H84.7127C86 119.299 88.7127 119.46 88.7127 121.851C88.7127 124.046 86.4138 124.966 83.7931 124.966C81.1725 124.966 79.3334 124.149 79.3334 122.379C79.3334 121.299 80.069 120.437 81.5403 120.149C81.192 120.075 80.8759 119.892 80.6367 119.628C80.3975 119.365 80.2471 119.032 80.2069 118.678C80.2069 117.988 80.6782 117.529 81.3564 117.345C80.8841 117.039 80.4999 116.615 80.2418 116.115C79.9838 115.615 79.8608 115.056 79.8851 114.494C79.8851 112.195 81.6782 110.793 84.2529 110.793H89.4598L89.4943 113ZM81.4483 122.08C81.4483 122.92 82.4828 123.23 83.8966 123.23C85.3104 123.23 86.4828 122.988 86.4828 122.08C86.4828 121.172 85.4828 121.172 83.977 121.172C82.4713 121.172 81.4713 121.184 81.4713 122.126L81.4483 122.08ZM85.8046 114.563C85.7677 114.093 85.5549 113.654 85.2087 113.334C84.8625 113.014 84.4083 112.836 83.9368 112.836C83.4653 112.836 83.0111 113.014 82.6649 113.334C82.3187 113.654 82.1059 114.093 82.069 114.563C82.1059 115.033 82.3187 115.472 82.6649 115.792C83.0111 116.112 83.4653 116.29 83.9368 116.29C84.4083 116.29 84.8625 116.112 85.2087 115.792C85.5549 115.472 85.7677 115.033 85.8046 114.563Z" fill="black"/>
<path d="M99.7931 110.828V120.448H97.6092V119.563C96.8529 120.268 95.8498 120.648 94.8161 120.621C94.2941 120.641 93.7737 120.552 93.2883 120.358C92.803 120.165 92.3637 119.872 91.9986 119.498C91.6336 119.125 91.351 118.678 91.1691 118.189C90.9872 117.699 90.91 117.177 90.9426 116.655V110.828H93.2414V116.471C93.2485 116.746 93.3111 117.016 93.4253 117.265C93.5394 117.515 93.7029 117.739 93.9059 117.923C94.1088 118.108 94.347 118.25 94.6062 118.34C94.8653 118.43 95.1401 118.467 95.4138 118.448C95.805 118.456 96.1932 118.378 96.5507 118.219C96.9083 118.06 97.2265 117.824 97.4828 117.529V110.828H99.7931Z" fill="black"/>
<path d="M102.632 120.448V107.035H104.931V120.448H102.632Z" fill="black"/>
<path d="M115.184 120.448H112.977V119.149C112.637 119.623 112.186 120.006 111.662 120.263C111.139 120.519 110.56 120.642 109.977 120.621C109.608 120.669 109.233 120.635 108.879 120.521C108.524 120.407 108.2 120.217 107.927 119.963C107.655 119.71 107.442 119.399 107.304 119.054C107.165 118.709 107.105 118.337 107.126 117.966C107.126 115.506 109.575 115.172 111.575 114.655C112.276 114.483 112.885 114.299 112.885 113.644C112.885 112.989 112.057 112.655 111.184 112.655C109.925 112.666 108.708 113.108 107.736 113.908V111.782C108.798 111.023 110.074 110.62 111.379 110.632C113.747 110.632 115.195 111.782 115.195 113.759L115.184 120.448ZM112.885 115.966C112.51 116.111 112.126 116.234 111.736 116.333C110.333 116.713 109.437 116.92 109.437 117.862C109.437 118.414 109.759 118.736 110.586 118.736C110.879 118.759 111.173 118.722 111.45 118.627C111.728 118.532 111.982 118.38 112.198 118.181C112.414 117.982 112.587 117.741 112.705 117.473C112.823 117.204 112.884 116.914 112.885 116.621V115.966Z" fill="black"/>
<path d="M123.851 110.862V113.069C123.475 112.971 123.089 112.921 122.701 112.919C122.24 112.897 121.781 112.99 121.365 113.191C120.949 113.392 120.591 113.694 120.322 114.069V120.425H118.023V110.828H120.138V111.977C120.43 111.56 120.824 111.224 121.283 111.003C121.742 110.781 122.25 110.681 122.759 110.713C123.127 110.726 123.492 110.776 123.851 110.862Z" fill="black"/>
<path d="M139.816 116.598C139.816 118.896 137.931 120.448 135.345 120.448H130.218V107.241H135.218C135.687 107.196 136.16 107.25 136.605 107.401C137.051 107.551 137.46 107.795 137.804 108.116C138.149 108.436 138.421 108.826 138.604 109.26C138.786 109.694 138.874 110.162 138.862 110.632C138.894 111.165 138.784 111.696 138.544 112.173C138.303 112.649 137.941 113.054 137.494 113.345C138.183 113.56 138.782 113.994 139.201 114.581C139.621 115.168 139.836 115.876 139.816 116.598V116.598ZM132.644 112.471H134.621C135.655 112.471 136.379 111.908 136.379 110.977C136.379 110.046 135.736 109.563 134.713 109.563H132.644V112.471ZM137.391 116.379C137.391 115.379 136.552 114.77 135.368 114.77H132.644V118.218H135.195C136.517 118.126 137.391 117.391 137.391 116.379Z" fill="black"/>
<path d="M149.483 120.448H147.264V119.149C146.925 119.623 146.473 120.006 145.949 120.263C145.426 120.519 144.847 120.642 144.264 120.621C143.895 120.669 143.52 120.635 143.166 120.521C142.812 120.407 142.487 120.217 142.215 119.963C141.942 119.71 141.729 119.399 141.591 119.054C141.453 118.709 141.392 118.337 141.414 117.965C141.414 115.506 143.874 115.172 145.874 114.655C146.563 114.483 147.172 114.299 147.172 113.644C147.172 112.988 146.345 112.655 145.471 112.655C144.212 112.662 142.993 113.104 142.023 113.908V111.782C143.085 111.021 144.361 110.619 145.667 110.632C147.965 110.632 149.471 111.782 149.471 113.759L149.483 120.448ZM147.184 115.965C146.809 116.111 146.425 116.234 146.034 116.333C144.632 116.713 143.736 116.92 143.736 117.862C143.736 118.414 144.057 118.736 144.885 118.736C145.177 118.759 145.472 118.722 145.749 118.627C146.027 118.532 146.281 118.38 146.497 118.181C146.713 117.982 146.886 117.741 147.004 117.473C147.122 117.204 147.183 116.914 147.184 116.621V115.965Z" fill="black"/>
<path d="M161.115 114.598V120.448H158.816V114.805C158.819 114.526 158.764 114.25 158.652 113.995C158.541 113.739 158.376 113.511 158.17 113.324C157.963 113.137 157.719 112.996 157.454 112.91C157.189 112.825 156.909 112.797 156.632 112.828C156.237 112.811 155.843 112.89 155.485 113.058C155.127 113.227 154.815 113.479 154.575 113.793V120.448H152.276V110.828H154.483V111.713C154.847 111.354 155.28 111.074 155.757 110.89C156.233 110.706 156.743 110.622 157.253 110.644C157.775 110.616 158.298 110.7 158.785 110.89C159.272 111.08 159.713 111.372 160.079 111.747C160.444 112.121 160.726 112.569 160.905 113.06C161.083 113.552 161.155 114.076 161.115 114.598V114.598Z" fill="black"/>
<path d="M168.483 115.563L173.08 120.448H170.057L166.184 116.264V120.448H163.885V107.035H166.184V114.851L169.92 110.828H172.92L168.483 115.563Z" fill="black"/>
<path d="M34.4598 101.092C31.5689 101.116 28.7673 100.091 26.5748 98.2069V93.046C28.8194 95.1941 31.7597 96.4664 34.8621 96.6322C37 96.6322 39 95.7816 39 93.7471C39 91.7127 36.7012 91.0805 34.2644 90.4138C30.4023 89.3219 26.046 87.8851 26.046 82.7931C26.046 77.7012 30.2989 75.2759 34.9656 75.2759C37.2842 75.2808 39.5546 75.9381 41.5173 77.1724V81.8966C39.5422 80.597 37.2479 79.8654 34.8851 79.7816C32.4943 79.7816 30.5977 80.8046 30.5977 82.8046C30.5977 85.023 32.8966 85.4713 35.9426 86.3219C39.3908 87.2644 43.4828 88.4598 43.4828 93.4483C43.4828 98.5977 39.023 101.092 34.4598 101.092Z" fill="black"/>
<path d="M63.0459 93.0805H50.7931C50.931 95.4368 53.3218 97.0115 56.2298 97.0115C58.5047 96.9235 60.7033 96.168 62.5517 94.8391V98.7012C60.5187 100.077 58.1091 100.787 55.6551 100.736C50.0804 100.736 46.4597 97.0115 46.4597 91.4023C46.4597 85.7931 50.0689 82.2069 55.1609 82.2069C60.0804 82.2069 63.0344 85.5747 63.0344 91.023L63.0459 93.0805ZM50.8275 89.8506H58.8735C58.9187 89.3484 58.8554 88.8424 58.6879 88.3668C58.5204 87.8913 58.2526 87.4573 57.9027 87.0943C57.5528 86.7313 57.1289 86.4477 56.6598 86.2629C56.1907 86.0781 55.6873 85.9963 55.1839 86.023C54.0988 85.9537 53.0306 86.3178 52.2138 87.0355C51.397 87.7531 50.8984 88.7656 50.8275 89.8506V89.8506Z" fill="black"/>
<path d="M67.0804 100.425V75.4598H71.4023V100.425H67.0804Z" fill="black"/>
<path d="M88.6436 79.4943C87.702 79.0043 86.6591 78.7406 85.5977 78.7241C83.7701 78.7241 82.4023 79.6322 82.4023 81.5977V82.5172H87.8046V86.5517H82.4023V100.425H78.0689V86.5517H74.3793V82.5172H78.0689V81.5287C78.0689 77.2989 81.2988 75 84.9885 75C86.2506 75.0051 87.4997 75.2549 88.6666 75.7356L88.6436 79.4943Z" fill="black"/>
<path d="M109.874 93.2529C109.874 97.4368 106.425 100.425 101.552 100.425H92.0115V75.8391H101.287C105.253 75.8391 108.069 78.2299 108.069 82.1265C108.13 83.1174 107.928 84.1068 107.484 84.9947C107.04 85.8827 106.369 86.6378 105.54 87.1839C106.829 87.5795 107.951 88.3881 108.734 89.4849C109.517 90.5818 109.918 91.9059 109.874 93.2529ZM96.5402 85.5633H100.218C102.149 85.5633 103.483 84.5173 103.483 82.7931C103.483 81.069 102.333 80.161 100.402 80.161H96.5402V85.5633ZM105.345 92.7357C105.345 90.8736 103.805 89.7472 101.586 89.7472H96.5402V96.1035H101.287C103.736 96.1035 105.345 94.7357 105.345 92.7357Z" fill="black"/>
<path d="M127.851 100.425H123.747V97.9885C123.114 98.8701 122.273 99.5813 121.298 100.059C120.323 100.536 119.245 100.765 118.161 100.724C114.655 100.724 112.862 98.6896 112.862 95.7701C112.862 91.1724 117.46 90.5747 121.149 89.6321C122.448 89.3103 123.575 88.9655 123.575 87.7356C123.575 86.2988 122.023 85.908 120.414 85.908C118.072 85.9144 115.803 86.7261 113.989 88.2069V84.3448C115.955 82.9149 118.327 82.1499 120.759 82.1609C125.149 82.1609 127.851 84.3448 127.851 87.9885V100.425ZM123.54 92.0689C122.851 92.3465 122.144 92.5807 121.425 92.7701C118.828 93.4712 117.115 93.8505 117.115 95.6092C117.115 96.6322 117.701 97.2299 119.253 97.2299C119.797 97.2742 120.345 97.2056 120.861 97.0285C121.378 96.8513 121.852 96.5693 122.255 96.2003C122.657 95.8312 122.979 95.383 123.2 94.8838C123.422 94.3845 123.537 93.8449 123.54 93.2988V92.0689Z" fill="black"/>
<path d="M149.483 89.5402V100.425H145.161V89.9425C145.161 87.6437 143.414 86.2644 141.092 86.2644C140.358 86.234 139.627 86.3799 138.962 86.6899C138.296 86.9998 137.714 87.4648 137.264 88.046V100.425H132.943V82.5172H137.057V84.1954C137.733 83.5237 138.54 82.9992 139.428 82.6549C140.317 82.3107 141.267 82.1543 142.218 82.1954C146.253 82.1609 149.483 84.6552 149.483 89.5402Z" fill="black"/>
<path d="M163.172 91.3219L171.701 100.425H166.092L158.885 92.6208V100.425H154.575V75.4598H158.885V89.9426L165.782 82.4713H171.402L163.172 91.3219Z" fill="black"/>
</g>
<defs>
<clipPath id="clip0">
<rect width="147.069" height="50" fill="white" transform="translate(26 75)"/>
</clipPath>
</defs>
</svg>
