<?xml version="1.0" encoding="UTF-8"?>
<svg width="200px" height="73px" viewBox="0 0 200 73" version="1.1" xmlns="http://www.w3.org/2000/svg" xmlns:xlink="http://www.w3.org/1999/xlink">
    <title>museo-de-arte-contemporaneo-de-barcelona-macba-vector-logo</title>
    <g id="Page-1" stroke="none" stroke-width="1" fill="none" fill-rule="evenodd">
        <g id="museo-de-arte-contemporaneo-de-barcelona-macba-vector-logo" fill-rule="nonzero">
            <path d="M89.2512479,41.4642263 C89.2512479,39.4342762 88.4193012,38.2362729 86.1231281,38.2362729 L84.093178,38.2362729 L83.9933444,38.3361065 L83.9933444,44.625624 L84.093178,44.7254576 L86.1231281,44.7254576 C88.4193012,44.6921797 89.2512479,43.4941764 89.2512479,41.4642263 M87.953411,41.4642263 C87.953411,42.9617304 87.4875208,43.59401 86.1896839,43.59401 L85.3577371,43.59401 L85.2579035,43.4941764 L85.2579035,39.4342762 L85.3577371,39.3344426 L86.1896839,39.3344426 C87.4875208,39.3344426 87.953411,40 87.953411,41.4642263 M95.640599,44.625624 L95.640599,43.6938436 L95.5407654,43.59401 L92.4792013,43.59401 L92.3793677,43.4941764 L92.3793677,42.0299501 L92.4792013,41.9301165 L95.3410982,41.9301165 L95.4409318,41.8302829 L95.4409318,40.8985025 L95.3410982,40.7986689 L92.4792013,40.7986689 L92.3793677,40.6988353 L92.3793677,39.4009983 L92.4792013,39.3011647 L95.5407654,39.3011647 L95.640599,39.2013311 L95.640599,38.2695507 L95.5407654,38.1697171 L91.2146423,38.1697171 L91.1148087,38.2695507 L91.1148087,44.5590682 L91.2146423,44.6589018 L95.5407654,44.6589018 L95.640599,44.625624 Z M105.890183,42.9617304 C105.890183,42.1297837 105.524126,41.5640599 104.792013,41.3976705 L104.792013,41.2645591 C105.424293,41.0648918 105.723794,40.5324459 105.723794,39.8668885 C105.723794,38.6688852 104.792013,38.202995 103.893511,38.202995 L100.93178,38.202995 L100.831947,38.3028286 L100.831947,44.5923461 L100.93178,44.6921797 L104.0599,44.6921797 C104.958403,44.6921797 105.890183,44.2262895 105.890183,42.9617304 M104.392679,40.0665557 C104.392679,40.4326123 104.193012,40.7986689 103.660566,40.7986689 L102.196339,40.7986689 L102.096506,40.6988353 L102.096506,39.4009983 L102.196339,39.3011647 L103.660566,39.3011647 C104.22629,39.3344426 104.392679,39.6006656 104.392679,40.0665557 M104.592346,42.7620632 C104.592346,43.327787 104.326123,43.59401 103.660566,43.59401 L102.196339,43.59401 L102.096506,43.4941764 L102.096506,42.0299501 L102.196339,41.9301165 L103.660566,41.9301165 C104.326123,41.9301165 104.592346,42.1963394 104.592346,42.7620632 M112.712146,44.625624 L112.712146,43.6938436 L110.582363,38.3361065 L110.482529,38.2362729 L109.284526,38.2362729 L109.184692,38.3361065 L107.054908,43.6938436 L107.054908,44.625624 L107.154742,44.7254576 L107.986689,44.7254576 L108.086522,44.625624 L108.552413,43.4276206 L108.75208,43.327787 L111.048253,43.327787 L111.24792,43.4276206 L111.71381,44.625624 L111.813644,44.7254576 L112.645591,44.7254576 L112.712146,44.625624 Z M110.78203,42.0965058 L110.682196,42.1963394 L109.118136,42.1963394 L109.018303,42.0965058 L109.85025,39.8668885 L109.950083,39.8668885 L110.78203,42.0965058 Z M119.733777,40.1663894 C119.733777,38.8685524 118.801997,38.2362729 117.50416,38.2362729 L114.475874,38.2362729 L114.37604,38.3361065 L114.37604,44.625624 L114.475874,44.7254576 L115.574043,44.7254576 L115.673877,44.625624 L115.673877,42.2296173 L115.77371,42.1297837 L116.705491,42.1297837 L116.905158,42.2296173 L118.768719,44.625624 L118.968386,44.7254576 L119.53411,44.7254576 L119.633943,44.625624 L119.633943,43.6938436 L118.43594,42.1297837 L118.43594,42.0299501 C119.101498,41.8302829 119.733777,41.1980033 119.733777,40.1663894 M118.43594,40.1663894 C118.43594,40.7986689 118.069884,40.9983361 117.50416,40.9983361 L115.740433,40.9983361 L115.640599,40.8985025 L115.640599,39.4342762 L115.740433,39.3344426 L117.50416,39.3344426 C118.069884,39.3344426 118.43594,39.5341098 118.43594,40.1663894 M124.359401,43.6938436 C123.061564,43.6938436 122.49584,42.7620632 122.49584,41.4642263 C122.49584,40.1663894 123.061564,39.234609 124.359401,39.234609 C125.091514,39.234609 125.557404,39.5008319 125.757072,40.0665557 L125.856905,40.1663894 L126.955075,40.1663894 L127.054908,40.0665557 C126.855241,38.8685524 125.856905,38.1364393 124.359401,38.1364393 C122.329451,38.1364393 121.231281,39.5341098 121.231281,41.4642263 C121.231281,43.3943428 122.329451,44.7920133 124.359401,44.7920133 C125.823627,44.7920133 126.855241,44.0599002 127.054908,42.7620632 L126.955075,42.6622296 L125.856905,42.6622296 L125.757072,42.7620632 C125.557404,43.3943428 125.091514,43.6938436 124.359401,43.6938436 M133.410982,44.625624 L133.410982,43.6938436 L133.311148,43.59401 L130.249584,43.59401 L130.14975,43.4941764 L130.14975,42.0299501 L130.249584,41.9301165 L133.111481,41.9301165 L133.211314,41.8302829 L133.211314,40.8985025 L133.111481,40.7986689 L130.249584,40.7986689 L130.14975,40.6988353 L130.14975,39.4009983 L130.249584,39.3011647 L133.311148,39.3011647 L133.410982,39.2013311 L133.410982,38.2695507 L133.311148,38.1697171 L128.951747,38.1697171 L128.851913,38.2695507 L128.851913,44.5590682 L128.951747,44.6589018 L133.311148,44.6589018 L133.410982,44.625624 Z M139.800333,44.625624 L139.800333,43.6938436 L139.700499,43.59401 L136.838602,43.59401 L136.738769,43.4941764 L136.738769,38.3361065 L136.638935,38.2362729 L135.540765,38.2362729 L135.440932,38.3361065 L135.440932,44.625624 L135.540765,44.7254576 L139.700499,44.7254576 L139.800333,44.625624 Z M145.823627,41.4642263 C145.823627,42.7620632 145.191348,43.6938436 143.960067,43.6938436 C142.762063,43.6938436 142.129784,42.7620632 142.129784,41.4642263 C142.129784,40.1663894 142.762063,39.234609 143.960067,39.234609 C145.15807,39.234609 145.823627,40.1663894 145.823627,41.4642263 M147.088186,41.4642263 C147.088186,39.5341098 145.890183,38.1364393 143.926789,38.1364393 C141.996672,38.1364393 140.798669,39.5341098 140.798669,41.4642263 C140.798669,43.3943428 141.996672,44.7920133 143.926789,44.7920133 C145.890183,44.7920133 147.088186,43.3943428 147.088186,41.4642263 M148.951747,38.3361065 L148.951747,44.625624 L149.051581,44.7254576 L150.14975,44.7254576 L150.249584,44.625624 L150.249584,40.3660566 L150.349418,40.3660566 L152.845258,44.625624 L153.044925,44.7254576 L154.342762,44.7254576 L154.442596,44.625624 L154.442596,38.3361065 L154.342762,38.2362729 L153.244592,38.2362729 L153.144759,38.3361065 L153.144759,42.5956739 L153.044925,42.5956739 L150.549085,38.3361065 L150.382696,38.2362729 L149.084859,38.2362729 L148.951747,38.3361065 Z M161.697171,44.625624 L161.697171,43.6938436 L159.567388,38.3361065 L159.467554,38.2362729 L158.269551,38.2362729 L158.169717,38.3361065 L156.039933,43.6938436 L156.039933,44.625624 L156.139767,44.7254576 L156.971714,44.7254576 L157.071547,44.625624 L157.537438,43.4276206 L157.737105,43.327787 L160.033278,43.327787 L160.199667,43.4276206 L160.665557,44.625624 L160.765391,44.7254576 L161.597338,44.7254576 L161.697171,44.625624 Z M159.767055,42.0965058 L159.667221,42.1963394 L158.103161,42.1963394 L158.003328,42.0965058 L158.835275,39.8668885 L158.935108,39.8668885 L159.767055,42.0965058 Z" id="Shape" fill="#020203"></path>
            <path d="M89.2512479,30.6489185 C89.2512479,28.6189684 88.4193012,27.4209651 86.1231281,27.4209651 L84.093178,27.4209651 L83.9933444,27.5207987 L83.9933444,33.8103161 L84.093178,33.9101498 L86.1231281,33.9101498 C88.4193012,33.8768719 89.2512479,32.6788686 89.2512479,30.6489185 M87.953411,30.6489185 C87.953411,32.1131448 87.4875208,32.7787022 86.1896839,32.7787022 L85.3577371,32.7787022 L85.2579035,32.6788686 L85.2579035,28.6189684 L85.3577371,28.5191348 L86.1896839,28.5191348 C87.4875208,28.5191348 87.953411,29.1514143 87.953411,30.6489185 M92.4792013,28.7853577 L92.4792013,27.4875208 L92.3793677,27.3876872 L91.0815308,27.3876872 L90.9816972,27.4875208 L90.9816972,28.6855241 L91.0815308,28.7853577 L91.3477537,28.7853577 L91.4475874,28.8851913 L91.4475874,28.985025 L90.8818636,29.9168053 L90.8818636,30.1164725 L91.4475874,30.1164725 L91.6472546,30.0166389 L92.3793677,29.0848586 L92.4792013,28.7853577 Z M98.968386,33.7770383 L98.968386,32.8452579 L96.8386023,27.4875208 L96.7387687,27.3876872 L95.5407654,27.3876872 L95.4409318,27.4875208 L93.3111481,32.8452579 L93.3111481,33.7770383 L93.4109817,33.8768719 L94.2429285,33.8768719 L94.3427621,33.7770383 L94.8086522,32.5790349 L95.0083195,32.4792013 L97.3044925,32.4792013 L97.5041597,32.5790349 L97.9700499,33.7770383 L98.0698835,33.8768719 L98.9018303,33.8768719 L98.968386,33.7770383 Z M97.0049917,31.281198 L96.9051581,31.3810316 L95.3410982,31.3810316 L95.2412646,31.281198 L96.0732113,29.0515807 L96.1730449,29.0515807 L97.0049917,31.281198 Z M105.990017,29.3510815 C105.990017,28.0532446 105.058236,27.4209651 103.760399,27.4209651 L100.698835,27.4209651 L100.599002,27.5207987 L100.599002,33.8103161 L100.698835,33.9101498 L101.797005,33.9101498 L101.896839,33.8103161 L101.896839,31.4143095 L101.996672,31.3144759 L102.928453,31.3144759 L103.12812,31.4143095 L104.991681,33.8103161 L105.191348,33.9101498 L105.757072,33.9101498 L105.856905,33.8103161 L105.856905,32.8785358 L104.658902,31.3144759 L104.658902,31.2146423 C105.324459,31.014975 105.990017,30.3494176 105.990017,29.3510815 M104.69218,29.3510815 C104.69218,29.9833611 104.326123,30.1830283 103.760399,30.1830283 L101.996672,30.1830283 L101.896839,30.0831947 L101.896839,28.6189684 L101.996672,28.5191348 L103.760399,28.5191348 C104.326123,28.5191348 104.69218,28.718802 104.69218,29.3510815 M112.545757,28.4193012 L112.545757,27.4875208 L112.445923,27.3876872 L107.254576,27.3876872 L107.154742,27.4875208 L107.154742,28.4193012 L107.254576,28.5191348 L109.118136,28.5191348 L109.21797,28.6189684 L109.21797,33.8103161 L109.317804,33.9101498 L110.415973,33.9101498 L110.515807,33.8103161 L110.515807,28.6189684 L110.615641,28.5191348 L112.479201,28.5191348 L112.545757,28.4193012 Z M119.933444,32.8452579 C118.635607,32.8452579 118.103161,31.9134775 118.103161,30.6156406 C118.103161,29.3178037 118.668885,28.3860233 119.933444,28.3860233 C120.665557,28.3860233 121.131448,28.6522463 121.331115,29.21797 L121.430948,29.3178037 L122.529118,29.3178037 L122.628952,29.21797 C122.462562,28.0199667 121.430948,27.2878536 119.966722,27.2878536 C117.936772,27.2878536 116.838602,28.6855241 116.838602,30.6156406 C116.838602,32.5457571 117.936772,33.9434276 119.966722,33.9434276 C121.430948,33.9434276 122.462562,33.2113145 122.628952,31.9134775 L122.529118,31.8136439 L121.430948,31.8136439 L121.331115,31.9134775 C121.131448,32.5790349 120.665557,32.8452579 119.933444,32.8452579 M129.084859,30.6489185 C129.084859,31.9467554 128.452579,32.8785358 127.221298,32.8785358 C126.023295,32.8785358 125.357737,31.9467554 125.357737,30.6489185 C125.357737,29.3510815 125.990017,28.4193012 127.221298,28.4193012 C128.419301,28.4193012 129.084859,29.3510815 129.084859,30.6489185 M130.382696,30.6489185 C130.382696,28.718802 129.184692,27.3211314 127.221298,27.3211314 C125.291181,27.3211314 124.093178,28.718802 124.093178,30.6489185 C124.093178,32.5790349 125.291181,33.9767055 127.221298,33.9767055 C129.184692,33.9767055 130.382696,32.5790349 130.382696,30.6489185 M132.212978,27.4875208 L132.212978,33.7770383 L132.312812,33.8768719 L133.44426,33.8768719 L133.544093,33.7770383 L133.544093,29.5174709 L133.643927,29.5174709 L136.139767,33.7770383 L136.339434,33.8768719 L137.637271,33.8768719 L137.737105,33.7770383 L137.737105,27.4875208 L137.637271,27.3876872 L136.539101,27.3876872 L136.439268,27.4875208 L136.439268,31.7470882 L136.339434,31.7470882 L133.843594,27.4875208 L133.643927,27.3876872 L132.34609,27.3876872 L132.212978,27.4875208 Z M144.69218,28.4193012 L144.69218,27.4875208 L144.592346,27.3876872 L139.434276,27.3876872 L139.334443,27.4875208 L139.334443,28.4193012 L139.434276,28.5191348 L141.297837,28.5191348 L141.397671,28.6189684 L141.397671,33.8103161 L141.497504,33.9101498 L142.595674,33.9101498 L142.695507,33.8103161 L142.695507,28.6189684 L142.795341,28.5191348 L144.658902,28.5191348 L144.69218,28.4193012 Z M150.881864,33.7770383 L150.881864,32.8452579 L150.78203,32.7454243 L147.753744,32.7454243 L147.65391,32.6455907 L147.65391,31.1813644 L147.753744,31.0815308 L150.615641,31.0815308 L150.715474,30.9816972 L150.715474,30.0499168 L150.615641,29.9500832 L147.753744,29.9500832 L147.65391,29.8502496 L147.65391,28.6189684 L147.753744,28.5191348 L150.815308,28.5191348 L150.915141,28.4193012 L150.915141,27.4875208 L150.815308,27.3876872 L146.489185,27.3876872 L146.389351,27.4875208 L146.389351,33.7770383 L146.489185,33.8768719 L150.815308,33.8768719 L150.881864,33.7770383 Z M159.866889,33.7770383 L159.866889,27.4875208 L159.767055,27.3876872 L158.369384,27.3876872 L158.269551,27.4875208 L156.40599,32.0133111 L156.306156,32.0133111 L154.442596,27.4875208 L154.342762,27.3876872 L152.945092,27.3876872 L152.845258,27.4875208 L152.845258,33.7770383 L152.945092,33.8768719 L154.043261,33.8768719 L154.143095,33.7770383 L154.143095,30.1830283 L154.242928,30.1830283 L155.707155,33.7770383 L155.806988,33.8768719 L156.838602,33.8768719 L156.938436,33.7770383 L158.43594,30.1830283 L158.535774,30.1830283 L158.535774,33.7770383 L158.635607,33.8768719 L159.733777,33.8768719 L159.866889,33.7770383 Z M167.420965,29.3510815 C167.420965,28.0532446 166.489185,27.4209651 165.191348,27.4209651 L162.129784,27.4209651 L162.02995,27.5207987 L162.02995,33.8103161 L162.129784,33.9101498 L163.227953,33.9101498 L163.327787,33.8103161 L163.327787,31.4143095 L163.427621,31.3144759 L165.191348,31.3144759 C166.522463,31.281198 167.420965,30.6489185 167.420965,29.3510815 M166.123128,29.3510815 C166.123128,29.9833611 165.757072,30.1830283 165.191348,30.1830283 L163.427621,30.1830283 L163.327787,30.0831947 L163.327787,28.6189684 L163.427621,28.5191348 L165.191348,28.5191348 C165.757072,28.5191348 166.123128,28.718802 166.123128,29.3510815 M173.710483,30.6489185 C173.710483,31.9467554 173.078203,32.8785358 171.8802,32.8785358 C170.682196,32.8785358 170.016639,31.9467554 170.016639,30.6489185 C170.016639,29.3510815 170.648918,28.4193012 171.8802,28.4193012 C173.078203,28.4193012 173.710483,29.3510815 173.710483,30.6489185 M175.008319,30.6489185 C175.008319,28.718802 173.810316,27.3211314 171.8802,27.3211314 C169.950083,27.3211314 168.718802,28.718802 168.718802,30.6489185 C168.718802,32.5790349 169.916805,33.9767055 171.8802,33.9767055 C173.810316,33.9767055 175.008319,32.5790349 175.008319,30.6489185 M182.229617,29.3510815 C182.229617,28.0532446 181.297837,27.4209651 180,27.4209651 L176.938436,27.4209651 L176.838602,27.5207987 L176.838602,33.8103161 L176.938436,33.9101498 L178.036606,33.9101498 L178.136439,33.8103161 L178.136439,31.4143095 L178.236273,31.3144759 L179.168053,31.3144759 L179.36772,31.4143095 L181.231281,33.8103161 L181.430948,33.9101498 L181.996672,33.9101498 L182.096506,33.8103161 L182.096506,32.8785358 L180.898502,31.3144759 L180.898502,31.2146423 C181.56406,31.014975 182.229617,30.3494176 182.229617,29.3510815 M180.93178,29.3510815 C180.93178,29.9833611 180.565724,30.1830283 180,30.1830283 L178.236273,30.1830283 L178.136439,30.0831947 L178.136439,28.6189684 L178.236273,28.5191348 L180,28.5191348 C180.565724,28.5191348 180.93178,28.718802 180.93178,29.3510815 M189.151414,33.7770383 L189.151414,32.8452579 L187.021631,27.4875208 L186.921797,27.3876872 L185.723794,27.3876872 L185.62396,27.4875208 L183.494176,32.8452579 L183.494176,33.7770383 L183.59401,33.8768719 L184.425957,33.8768719 L184.52579,33.7770383 L184.991681,32.5790349 L185.191348,32.4792013 L187.487521,32.4792013 L187.687188,32.5790349 L188.153078,33.7770383 L188.252912,33.8768719 L189.084859,33.8768719 L189.151414,33.7770383 Z M187.221298,31.281198 L187.121464,31.3810316 L185.557404,31.3810316 L185.457571,31.281198 L186.289517,29.0515807 L186.389351,29.0515807 L187.221298,31.281198 Z M190.815308,27.4875208 L190.815308,33.7770383 L190.915141,33.8768719 L192.013311,33.8768719 L192.113145,33.7770383 L192.113145,29.5174709 L192.212978,29.5174709 L194.708819,33.7770383 L194.908486,33.8768719 L196.206323,33.8768719 L196.306156,33.7770383 L196.306156,27.4875208 L196.206323,27.3876872 L195.108153,27.3876872 L195.008319,27.4875208 L195.008319,31.7470882 L194.908486,31.7470882 L192.412646,27.4875208 L192.212978,27.3876872 L190.915141,27.3876872 L190.815308,27.4875208 Z M199.767055,33.7770383 L199.767055,27.4875208 L199.667221,27.3876872 L198.569052,27.3876872 L198.469218,27.4875208 L198.469218,33.7770383 L198.569052,33.8768719 L199.667221,33.8768719 L199.767055,33.7770383 Z" id="Shape" fill="#020203"></path>
            <path d="M90.9151414,22.9617304 L90.9151414,16.672213 L90.8153078,16.5723794 L89.4176373,16.5723794 L89.3178037,16.672213 L87.4542429,21.1980033 L87.3544093,21.1980033 L85.4908486,16.672213 L85.391015,16.5723794 L83.9933444,16.5723794 L83.8935108,16.672213 L83.8935108,22.9617304 L83.9933444,23.0615641 L85.0915141,23.0615641 L85.1913478,22.9617304 L85.1913478,19.3677205 L85.2911814,19.3677205 L86.8552413,22.9617304 L86.9550749,23.0615641 L87.9866889,23.0615641 L88.0865225,22.9617304 L89.5507488,19.3677205 L89.6505824,19.3677205 L89.6505824,22.9617304 L89.750416,23.0615641 L90.8485857,23.0615641 L90.9151414,22.9617304 Z M98.3028286,16.672213 L98.202995,16.5723794 L97.1048253,16.5723794 L97.0049917,16.672213 L97.0049917,20.5657238 C97.0049917,21.4975042 96.6389351,22.0299501 95.7071547,22.0299501 C94.7753744,22.0299501 94.4093178,21.4642263 94.4093178,20.5657238 L94.4093178,16.672213 L94.3094842,16.5723794 L93.2113145,16.5723794 L93.1114809,16.672213 L93.1114809,20.5657238 C93.1114809,22.2296173 94.0432612,23.1613977 95.7071547,23.1613977 C97.3710483,23.1613977 98.3028286,22.2296173 98.3028286,20.5657238 L98.3028286,16.672213 Z M105.524126,21.1980033 C105.524126,19.9001664 104.492512,19.3677205 103.227953,19.1680532 C101.930116,18.968386 101.56406,18.8019967 101.56406,18.2362729 C101.56406,17.8702163 101.830283,17.6039933 102.66223,17.6039933 C103.693844,17.6039933 103.960067,17.8702163 103.960067,18.4359401 L104.0599,18.5357737 L105.15807,18.5357737 L105.257903,18.4359401 C105.257903,17.3377704 104.52579,16.5058236 102.762063,16.5058236 C100.998336,16.5058236 100.266223,17.3377704 100.266223,18.2695507 C100.266223,19.5673877 101.297837,20.0332779 102.595674,20.1996672 C103.893511,20.3993344 104.259567,20.5657238 104.259567,21.1980033 C104.259567,21.7637271 103.793677,22.0299501 102.96173,22.0299501 C101.863561,22.0299501 101.497504,21.6638935 101.497504,20.9983361 L101.397671,20.8985025 L100.299501,20.8985025 L100.199667,20.9983361 C100.199667,22.1963394 101.031614,23.1281198 102.861897,23.1281198 C104.792013,23.1281198 105.524126,22.1963394 105.524126,21.1980033 M111.8802,22.9617304 L111.8802,22.0299501 L111.780366,21.9301165 L108.718802,21.9301165 L108.618968,21.8302829 L108.618968,20.3660566 L108.718802,20.266223 L111.580699,20.266223 L111.680532,20.1663894 L111.680532,19.234609 L111.580699,19.1347754 L108.718802,19.1347754 L108.618968,19.0349418 L108.618968,17.7371048 L108.718802,17.6372712 L111.780366,17.6372712 L111.8802,17.5374376 L111.8802,16.6056572 L111.780366,16.5058236 L107.454243,16.5058236 L107.354409,16.6056572 L107.354409,22.9617304 L107.454243,23.0615641 L111.780366,23.0615641 L111.8802,22.9617304 Z M119.101498,16.672213 L119.001664,16.5723794 L117.903494,16.5723794 L117.803661,16.672213 L117.803661,20.5657238 C117.803661,21.4975042 117.437604,22.0299501 116.505824,22.0299501 C115.574043,22.0299501 115.207987,21.4642263 115.207987,20.5657238 L115.207987,16.672213 L115.108153,16.5723794 L114.009983,16.5723794 L113.91015,16.672213 L113.91015,20.5657238 C113.91015,22.2296173 114.84193,23.1613977 116.505824,23.1613977 C118.169717,23.1613977 119.101498,22.2296173 119.101498,20.5657238 L119.101498,16.672213 Z" id="Shape" fill="#020203"></path>
            <polygon id="Path" fill="#FFFFFF" points="0.366056572 0.199667221 0.0998336106 0.432612313 0.0998336106 71.9800333 0.366056572 72.2462562 73.1447587 72.2462562 73.4109817 71.9800333 73.4109817 0.432612313 73.1447587 0.199667221"></polygon>
            <path d="M63.8269551,49.0515807 L68.1198003,49.0515807 L68.3860233,48.7853577 L66.1231281,42.7287854 L65.8569052,42.7287854 L63.59401,48.7853577 L63.8269551,49.0515807 Z M69.1181364,52.0798669 L62.828619,52.0798669 L62.3294509,52.3460899 L61.0648918,55.6073211 L60.7986689,55.8402662 L58.5357737,55.8402662 L58.2695507,55.6073211 L58.2695507,53.078203 L64.0599002,38.469218 L64.3261231,38.2362729 L67.5873544,38.2362729 L67.8535774,38.469218 L73.4109817,52.4459235 L73.4109817,0.432612313 L73.1447587,0.166389351 L0.366056572,0.166389351 L0.0998336106,0.399334443 L0.0998336106,71.9467554 L0.332778702,72.2129784 L73.1114809,72.2129784 L73.3777038,71.9467554 L73.3777038,55.8402662 L71.1148087,55.8402662 L70.8485857,55.6073211 L69.5840266,52.3460899 L69.1181364,52.0798669 Z M42.4292845,38.469218 L42.6955075,38.2362729 L50.7487521,38.2362729 C53.2778702,38.2362729 55.7737105,39.5008319 55.7737105,42.7620632 C55.7737105,44.5257903 55.0083195,46.0232945 53.2445923,46.5557404 L53.2445923,46.7886855 C55.2745424,47.2878536 56.2728785,48.8186356 56.2728785,51.0815308 C56.2728785,54.608985 53.7437604,55.8735441 51.2479201,55.8735441 L42.6955075,55.8735441 L42.4292845,55.640599 L42.4292845,38.469218 Z M29.5840266,33.9434276 L29.3178037,34.2096506 L26.2895175,34.2096506 L26.0565724,33.9434276 L26.0565724,24.1264559 L25.7903494,24.1264559 L21.7637271,33.9434276 L21.4975042,34.2096506 L18.7354409,34.2096506 L18.469218,33.9434276 L14.4425957,24.1264559 L14.1763727,24.1264559 L14.1763727,33.9434276 L13.9434276,34.2096506 L10.9151414,34.2096506 L10.6489185,33.9434276 L10.6489185,16.8053245 L10.9151414,16.5723794 L14.6755408,16.5723794 L14.9417637,16.8053245 L19.9667221,29.1514143 L20.2329451,29.1514143 L25.2911814,16.8053245 L25.5241265,16.5723794 L29.2845258,16.5723794 L29.5507488,16.8053245 L29.5507488,33.9434276 L29.5840266,33.9434276 Z M47.7204659,33.9434276 L47.4542429,34.2096506 L45.1913478,34.2096506 L44.9251248,33.9434276 L43.6605657,30.6821963 L43.1613977,30.4492512 L36.8718802,30.4492512 L36.3727121,30.6821963 L35.1081531,33.9434276 L34.875208,34.2096506 L32.6123128,34.2096506 L32.3460899,33.9434276 L32.3460899,31.4143095 L38.1364393,16.8053245 L38.4026622,16.5723794 L41.6638935,16.5723794 L41.9301165,16.8053245 L47.7204659,31.4143095 L47.7204659,33.9434276 L47.7204659,33.9434276 Z M57.8036606,34.4425957 C52.2462562,34.4425957 49.2512479,30.6821963 49.2512479,25.391015 C49.2512479,20.0998336 52.2795341,16.3394343 57.8036606,16.3394343 C61.8302829,16.3394343 64.5923461,18.3361065 65.0915141,21.6306156 L64.8585691,21.8968386 L61.8302829,21.8968386 L61.5973378,21.6306156 C61.0981697,20.1331115 59.8336106,19.3677205 57.8036606,19.3677205 C54.2762063,19.3677205 52.7787022,21.8968386 52.7787022,25.4242928 C52.7787022,28.9517471 54.2762063,31.4808652 57.8036606,31.4808652 C59.8336106,31.4808652 61.0648918,30.7154742 61.5973378,28.9517471 L61.8302829,28.6855241 L64.8585691,28.6855241 L65.0915141,28.9517471 C64.5923461,32.4459235 61.8302829,34.4425957 57.8036606,34.4425957 M42.1630616,27.3876872 L42.4292845,27.1547421 L40.1663894,21.0981697 L39.9001664,21.0981697 L37.6372712,27.1547421 L37.9034942,27.3876872 L42.1630616,27.3876872 Z M46.1896839,41.2645591 L45.9234609,41.530782 L45.9234609,45.0582363 L46.1896839,45.3244592 L50.249584,45.3244592 C51.7470882,45.3244592 52.2462562,44.3261231 52.2462562,43.2945092 C52.2462562,42.0299501 51.7470882,41.2978369 50.249584,41.2978369 L46.1896839,41.2978369 L46.1896839,41.2645591 Z M46.1896839,48.2861897 L45.9234609,48.5524126 L45.9234609,52.5790349 L46.1896839,52.81198 L50.249584,52.81198 C52.0133111,52.81198 52.7787022,52.046589 52.7787022,50.5490849 C52.7787022,49.0515807 52.0133111,48.2861897 50.249584,48.2861897 L46.1896839,48.2861897 L46.1896839,48.2861897 Z" id="Shape" fill="#020203"></path>
        </g>
    </g>
</svg>