<svg width="200" height="200" viewBox="0 0 200 200" fill="none" xmlns="http://www.w3.org/2000/svg">
<rect width="200" height="200" fill="white"/>
<g clip-path="url(#clip0)">
<path d="M33.1846 129.833C32.8829 129.766 32.5477 129.699 32.246 129.598C31.0058 129.163 30.1343 128.023 30.0673 126.716C30.0673 126.548 30.0673 126.38 30.0673 126.213C30.0673 113.878 30.0673 101.509 30.0673 89.1737C30.0673 86.8944 30.8717 84.9503 32.4807 83.3078C36.0673 79.7212 39.6539 76.1011 43.274 72.548C44.8494 70.9726 46.76 70.2017 49.0058 70.2017C51.4192 70.2017 53.7991 70.2017 56.2125 70.2017C66.2684 70.2017 76.3242 70.2017 86.3466 70.2017C88.2907 70.2017 89.6985 71.6095 89.6985 73.5536C89.6985 85.9894 89.6985 98.4586 89.6985 110.894C89.6985 113.073 88.8941 114.984 87.3522 116.559C83.7991 120.112 80.246 123.665 76.693 127.252C75.1511 128.794 73.274 129.665 71.0952 129.732C71.0282 129.732 70.9611 129.766 70.8941 129.799C58.2907 129.833 45.7544 129.833 33.1846 129.833ZM52.7265 117.866C52.8941 117.732 52.9611 117.632 53.0282 117.565C56.8494 113.744 60.7041 109.889 64.5254 106.068C66.4695 104.123 68.4136 102.179 70.3578 100.235C70.5589 100.034 70.5924 99.9335 70.3578 99.7324C64.5589 93.9335 58.76 88.1346 52.9276 82.3693C52.8606 82.3022 52.7935 82.2352 52.693 82.1346C52.7265 94.0676 52.7265 105.933 52.7265 117.866Z" fill="black"/>
<path d="M170.682 115.419C168.335 115.419 165.989 115.419 163.643 115.419C163.508 115.419 163.374 115.419 163.24 115.419C163.24 115.285 163.24 115.151 163.24 115.05C163.24 109.922 163.24 104.793 163.24 99.6648C163.24 98.8268 163.14 98.0223 162.738 97.2849C162.034 95.9776 160.894 95.3743 159.453 95.3072C157.609 95.2402 156.134 96.0112 154.793 97.1843C154.324 97.5866 154.157 97.9888 154.157 98.5922C154.19 104.056 154.157 109.52 154.157 114.983C154.157 115.117 154.157 115.251 154.157 115.385C154.022 115.385 153.922 115.385 153.821 115.385C151.542 115.385 149.296 115.385 147.017 115.385C146.749 115.385 146.648 115.318 146.648 115.017C146.648 109.821 146.648 104.592 146.648 99.3966C146.648 98.4581 146.447 97.5866 145.911 96.8491C145.173 95.81 144.134 95.3408 142.86 95.2737C141.184 95.2067 139.743 95.8771 138.503 96.9162C138.067 97.2849 137.665 97.7206 137.296 98.1229C137.196 98.257 137.095 98.4581 137.095 98.6257C137.095 104.056 137.095 109.486 137.095 114.916C137.095 115.05 137.095 115.151 137.095 115.318C134.581 115.318 132.101 115.318 129.587 115.318C129.587 106.704 129.587 98.1229 129.587 89.5084C131.799 89.5084 133.978 89.5084 136.224 89.5084C136.224 90.4804 136.224 91.419 136.224 92.4246C136.626 92.0558 136.994 91.6871 137.363 91.3519C140.212 89.0391 143.43 88.2681 147.017 89.0056C149.196 89.4748 150.939 90.581 152.246 92.391C152.279 92.4246 152.279 92.4581 152.313 92.4916C152.313 92.4916 152.313 92.4916 152.346 92.5251C152.715 92.2234 153.084 91.8882 153.453 91.5531C155.062 90.2458 156.872 89.3072 158.916 88.9385C161.531 88.4693 164.045 88.7374 166.324 90.1452C168.201 91.3184 169.374 93.0279 169.978 95.1061C170.246 95.9441 170.346 96.8156 170.514 97.6871C170.514 97.7542 170.548 97.8212 170.581 97.9218C170.682 103.821 170.682 109.62 170.682 115.419Z" fill="black"/>
<path d="M125.129 97.1173C124.224 96.6815 123.386 96.2122 122.514 95.877C120.235 94.972 117.888 94.4692 115.441 94.6033C114.738 94.6368 114.067 94.7709 113.464 95.1061C112.358 95.743 112.19 96.9497 113.095 97.8547C113.698 98.458 114.503 98.7932 115.307 99.0614C116.715 99.5307 118.123 99.9329 119.531 100.369C121.173 100.871 122.782 101.475 124.19 102.514C126.101 103.888 127.073 105.765 127.106 108.112C127.106 109.587 126.838 110.961 126.034 112.235C125.162 113.575 123.955 114.413 122.514 115.017C121.039 115.654 119.464 115.989 117.855 116.089C116.481 116.156 115.106 116.223 113.765 116.156C110.849 116.022 108.034 115.385 105.419 114.011C105.151 113.877 105.05 113.709 105.05 113.408C105.05 111.598 105.05 109.788 105.05 107.944C105.05 107.844 105.05 107.743 105.05 107.609C105.151 107.642 105.218 107.676 105.252 107.709C107.129 108.883 109.207 109.553 111.352 109.989C112.961 110.29 114.57 110.425 116.212 110.29C116.916 110.223 117.654 110.156 118.324 109.855C119.564 109.318 119.799 108.078 118.793 107.173C118.257 106.67 117.62 106.369 116.916 106.134C115.341 105.598 113.732 105.128 112.157 104.592C110.581 104.056 109.006 103.452 107.665 102.447C105.553 100.905 104.682 98.8268 104.849 96.2793C104.95 94.5698 105.486 93.0614 106.693 91.8212C107.665 90.7821 108.872 90.1117 110.212 89.6759C112.056 89.039 113.967 88.8379 115.911 88.8714C119.028 88.905 122.011 89.6089 124.86 90.9161C125.129 91.0502 125.229 91.1843 125.229 91.486C125.196 93.296 125.229 95.1061 125.229 96.9161C125.129 96.9161 125.129 97.0167 125.129 97.1173Z" fill="black"/>
</g>
<defs>
<clipPath id="clip0">
<rect width="140.782" height="60" fill="white" transform="translate(30 70)"/>
</clipPath>
</defs>
</svg>
