<svg width="200" height="200" viewBox="0 0 200 200" fill="none" xmlns="http://www.w3.org/2000/svg">
<rect width="200" height="200" fill="white"/>
<g clip-path="url(#clip0)">
<path d="M20.213 103.261C20.2663 102.809 20.2929 102.356 20.3461 101.903C20.5857 99.7471 21.198 97.7504 22.5558 96.0466C24.0732 94.1298 26.0965 93.0117 28.4127 92.3993C29.8503 92.0266 31.3145 91.8669 32.8054 91.8669C39.5408 91.8669 46.2762 91.8669 53.0383 91.8669C53.1448 91.8669 53.2779 91.8669 53.411 91.8669C52.3727 97.0849 51.3345 102.276 50.2696 107.521C49.7904 106.829 49.3644 106.19 48.9651 105.551C46.7821 102.25 44.599 98.9218 42.3894 95.6206C42.0965 95.1681 41.6706 94.9551 41.1115 94.9551C39.035 94.9551 36.9318 94.9551 34.8553 94.9551C34.2696 94.9551 33.9501 95.2213 33.8436 95.807C32.6989 101.371 31.5807 106.962 30.436 112.526C30.3295 113.005 30.5691 113.298 31.0483 113.298C32.5924 113.298 34.1631 113.298 35.7072 113.298C36.1864 113.298 36.5591 113.005 36.639 112.499C37.1448 109.97 37.6506 107.468 38.1831 104.938C38.4493 103.634 38.7155 102.329 38.9817 101.025C39.0084 100.945 39.035 100.865 39.0616 100.732C39.3544 101.158 39.594 101.531 39.8603 101.93C42.203 105.471 44.5458 108.985 46.8886 112.526C47.2346 113.058 47.7138 113.298 48.3262 113.298C50.3494 113.298 52.3727 113.298 54.396 113.298C55.035 113.298 55.3811 113.005 55.5142 112.393C56.5791 107.121 57.6706 101.85 58.7621 96.579C58.8952 95.8869 59.0283 95.1681 59.1881 94.4759C59.2945 93.9701 59.2147 93.4642 58.9485 93.0383C57.644 90.9884 56.3395 88.9384 55.0084 86.9151C54.7155 86.4626 54.2629 86.2762 53.7039 86.2762C44.2529 86.2762 34.802 86.2762 25.3245 86.2762C25.0849 86.2762 24.8453 86.2762 24.6323 86.223C24.2862 86.1697 24.1797 85.9834 24.3395 85.6639C24.4726 85.3977 24.6589 85.1315 24.8453 84.8919C28.1465 80.9518 32.2197 78.183 37.2247 76.985C46.2496 74.802 54.1298 76.985 60.7055 83.5607C64.406 87.2612 66.5624 91.787 67.2014 96.9784C68.1331 104.433 66.0832 111.008 60.9984 116.572C57.3511 120.566 52.7987 122.988 47.4742 123.92C46.4626 124.106 45.4243 124.16 44.4127 124.266C44.3328 124.266 44.2796 124.293 44.1997 124.319C43.6406 124.319 43.0816 124.319 42.5491 124.319C42.4693 124.293 42.3894 124.266 42.3095 124.266C41.3511 124.16 40.3927 124.133 39.4609 123.973C32.2995 122.696 26.7887 118.968 22.9817 112.792C21.5441 110.476 20.639 107.947 20.3461 105.205C20.3195 104.885 20.2663 104.592 20.2396 104.273C20.213 103.9 20.213 103.581 20.213 103.261Z" fill="black"/>
<path d="M180 113.564C179.867 113.617 179.707 113.697 179.574 113.724C179.148 113.75 178.696 113.724 178.27 113.724C177.897 113.724 177.844 113.671 177.844 113.298C177.844 111.594 177.844 109.864 177.844 108.16C177.844 107.84 177.817 107.494 177.764 107.175C177.498 106.003 176.193 105.551 175.155 106.27C174.409 106.775 174.117 107.521 174.09 108.373C174.063 109.97 174.063 111.567 174.063 113.165C174.063 113.724 174.037 113.724 173.504 113.724C173.131 113.724 172.732 113.724 172.359 113.724C171.96 113.724 171.907 113.671 171.907 113.271C171.907 111.115 171.907 108.958 171.907 106.775C171.907 106.057 171.907 105.338 171.907 104.646C171.907 104.273 171.987 104.22 172.333 104.22C172.706 104.22 173.052 104.22 173.424 104.22C173.717 104.22 173.824 104.326 173.85 104.619C173.877 104.859 173.904 105.098 173.93 105.391C174.09 105.231 174.223 105.098 174.356 104.992C175.315 104.14 176.406 103.82 177.657 104.087C178.935 104.379 179.76 105.391 179.947 106.882C179.947 106.962 180 107.068 180 107.148C180 109.251 180 111.408 180 113.564Z" fill="black"/>
<path d="M157.371 104.992C157.371 103.927 157.371 102.888 157.371 101.877C157.371 101.504 157.371 101.158 157.371 100.785C157.371 100.546 157.451 100.413 157.717 100.386C158.223 100.333 158.702 100.279 159.208 100.253C159.314 100.253 159.421 100.386 159.501 100.492C159.554 100.546 159.501 100.652 159.501 100.732C159.501 104.885 159.501 109.065 159.501 113.218C159.501 113.697 159.474 113.724 158.995 113.724C158.702 113.724 158.409 113.724 158.09 113.724C157.77 113.75 157.611 113.617 157.584 113.298C157.557 113.058 157.504 112.845 157.478 112.552C157.025 113.138 156.493 113.511 155.827 113.75C154.176 114.336 152.366 113.671 151.488 112.02C150.449 110.076 150.423 108.053 151.381 106.057C152.499 103.794 155.268 103.261 157.211 104.885C157.265 104.912 157.291 104.912 157.371 104.992ZM157.398 108.878C157.398 108.24 157.371 107.601 157.078 107.015C156.706 106.243 156.067 105.79 155.215 105.79C154.389 105.79 153.777 106.243 153.431 106.988C152.819 108.319 152.845 109.677 153.484 110.982C153.83 111.7 154.416 112.153 155.215 112.126C156.04 112.126 156.626 111.674 156.998 110.955C157.344 110.289 157.398 109.597 157.398 108.878Z" fill="black"/>
<path d="M104.313 104.965C104.313 103.847 104.313 102.835 104.313 101.797C104.313 101.451 104.313 101.105 104.313 100.785C104.313 100.546 104.419 100.413 104.659 100.386C105.138 100.359 105.644 100.28 106.123 100.253C106.336 100.226 106.443 100.306 106.469 100.546C106.469 100.626 106.469 100.706 106.469 100.812C106.469 104.965 106.469 109.092 106.469 113.245C106.469 113.777 106.469 113.777 105.937 113.777C105.644 113.777 105.351 113.75 105.085 113.777C104.765 113.804 104.606 113.644 104.579 113.351C104.552 113.112 104.499 112.899 104.473 112.686C104.153 112.952 103.86 113.245 103.514 113.484C101.97 114.469 100 114.097 98.8552 112.659C98.1098 111.727 97.817 110.636 97.7371 109.491C97.6572 108.266 97.817 107.068 98.4293 105.977C99.6273 103.9 102.183 103.394 104.073 104.859C104.153 104.832 104.206 104.885 104.313 104.965ZM104.419 108.905C104.339 108 104.233 107.414 103.967 106.909C103.195 105.498 101.358 105.418 100.506 106.749C99.7338 107.973 99.787 110.103 100.612 111.275C101.278 112.206 102.476 112.446 103.328 111.701C103.647 111.408 103.94 111.008 104.1 110.582C104.26 110.05 104.313 109.464 104.419 108.905Z" fill="black"/>
<path d="M136.339 95.1947C135.94 95.5142 135.594 95.8869 135.168 96.1265C133.704 96.9518 131.814 96.446 130.775 94.9551C129.95 93.7571 129.711 92.426 129.79 91.015C129.844 89.9235 130.136 88.8852 130.802 87.9801C131.973 86.4626 134.103 86.0366 135.594 87.0483C135.887 87.2613 136.153 87.5009 136.446 87.7671C136.473 87.5541 136.499 87.3411 136.526 87.1015C136.552 86.8353 136.686 86.7022 136.978 86.7022C137.298 86.7022 137.644 86.7022 137.963 86.7022C138.23 86.7022 138.363 86.8087 138.363 87.0749C138.363 87.6073 138.363 88.1664 138.363 88.6989C138.363 91.0416 138.363 93.3844 138.363 95.7271C138.363 96.1797 138.336 96.233 137.884 96.233C137.564 96.233 137.218 96.233 136.899 96.233C136.606 96.2596 136.499 96.1265 136.446 95.8603C136.419 95.6473 136.393 95.4077 136.339 95.1947ZM136.26 91.6539C136.206 91.0416 136.18 90.5358 136.073 90.0566C135.887 89.0449 135.221 88.406 134.369 88.2995C133.518 88.2197 132.745 88.6722 132.346 89.604C131.814 90.9085 131.84 92.213 132.479 93.4909C132.719 93.9701 133.092 94.3428 133.624 94.5291C134.556 94.8486 135.488 94.396 135.86 93.3578C136.1 92.8253 136.153 92.1598 136.26 91.6539Z" fill="black"/>
<path d="M94.1165 87.8203C94.1698 87.5275 94.1964 87.2879 94.223 87.0483C94.2496 86.8353 94.3827 86.7022 94.6223 86.7288C94.9684 86.7288 95.3145 86.7288 95.6872 86.7288C95.9534 86.7288 96.0599 86.8619 96.0599 87.1015C96.0599 90.03 96.0599 92.9584 96.0599 95.8869C96.0599 96.1531 95.9534 96.2862 95.6872 96.2596C95.3145 96.2596 94.9152 96.2596 94.5425 96.2596C94.3029 96.2596 94.1964 96.1531 94.1698 95.9401C94.1431 95.6739 94.0899 95.4077 94.0366 95.1681C93.7704 95.4077 93.5574 95.6739 93.2646 95.8869C91.9335 96.8985 89.99 96.6589 88.8187 95.3811C88.0732 94.5558 87.7005 93.5707 87.5674 92.4792C87.4077 91.1215 87.5142 89.7904 88.1797 88.5391C89.005 86.995 90.7088 86.1964 92.3594 86.6223C93.025 86.7821 93.5841 87.208 94.1165 87.8203ZM93.9568 91.3877C93.8503 90.802 93.797 90.2163 93.6373 89.6573C93.3977 88.8852 92.8653 88.406 92.0666 88.3261C91.2413 88.2463 90.6024 88.619 90.2296 89.3378C89.4842 90.7754 89.5108 92.2396 90.2829 93.6506C90.6822 94.3694 91.3212 94.7421 92.1731 94.6356C92.9718 94.5291 93.451 93.9967 93.6639 93.2779C93.7704 92.6656 93.8503 92.0266 93.9568 91.3877Z" fill="black"/>
<path d="M136.393 112.659C135.993 112.978 135.647 113.351 135.221 113.591C133.837 114.389 131.947 113.91 130.909 112.526C130.057 111.381 129.79 110.05 129.844 108.666C129.87 107.654 130.083 106.696 130.616 105.844C131.574 104.273 133.464 103.554 135.035 104.22C135.567 104.433 136.02 104.859 136.526 105.178C136.552 105.045 136.606 104.832 136.606 104.592C136.632 104.326 136.765 104.22 137.032 104.22C137.378 104.22 137.724 104.22 138.043 104.22C138.283 104.22 138.416 104.299 138.416 104.566C138.416 107.494 138.416 110.449 138.416 113.378C138.416 113.644 138.283 113.75 138.043 113.724C137.671 113.724 137.271 113.724 136.899 113.724C136.632 113.724 136.526 113.591 136.499 113.378C136.446 113.111 136.419 112.872 136.393 112.659ZM136.26 108.905C136.233 108.506 136.206 108.106 136.153 107.734C136.126 107.494 136.047 107.228 135.94 106.988C135.647 106.296 135.141 105.87 134.369 105.79C133.624 105.737 133.065 106.057 132.639 106.642C132.186 107.281 132.027 108.053 132.027 108.825C132.027 109.704 132.16 110.582 132.692 111.301C133.624 112.579 135.248 112.366 135.887 110.928C136.206 110.29 136.26 109.597 136.26 108.905Z" fill="black"/>
<path d="M146.935 92.2662C147.095 94.0233 148.266 94.9018 150.05 94.609C150.609 94.5291 151.168 94.3161 151.727 94.1298C152.02 94.0233 152.18 94.0499 152.286 94.3427C152.393 94.6356 152.526 94.9284 152.659 95.2213C152.765 95.4343 152.712 95.594 152.499 95.7005C150.849 96.5258 149.118 96.792 147.361 96.1264C146.296 95.7271 145.551 94.9284 145.125 93.8902C144.486 92.2662 144.486 90.6422 145.178 89.0449C145.924 87.2612 147.494 86.356 149.438 86.4892C151.275 86.6223 152.606 87.7138 153.085 89.604C153.271 90.3228 153.298 91.0682 153.351 91.8136C153.378 92.1863 153.271 92.2662 152.899 92.2662C151.035 92.2662 149.171 92.2662 147.308 92.2662C147.201 92.2662 147.068 92.2662 146.935 92.2662ZM146.935 90.6689C148.346 90.6689 149.731 90.6689 151.142 90.6689C151.115 89.2046 150.343 88.3261 149.118 88.2729C147.947 88.2196 147.068 89.2046 146.935 90.6689Z" fill="black"/>
<path d="M110.702 109.73C110.835 111.221 111.687 112.073 113.045 112.126C113.764 112.153 114.483 112.02 115.175 111.727C115.308 111.674 115.441 111.621 115.574 111.541C115.761 111.461 115.92 111.514 116 111.7C116.16 112.047 116.293 112.393 116.426 112.765C116.533 113.032 116.32 113.138 116.133 113.218C114.935 113.83 113.657 114.043 112.326 113.91C111.048 113.777 110.01 113.191 109.265 112.1C108.759 111.381 108.519 110.556 108.439 109.677C108.333 108.426 108.466 107.201 109.078 106.083C109.93 104.539 111.501 103.74 113.364 103.953C115.148 104.166 116.213 105.205 116.772 106.855C117.038 107.654 117.092 108.453 117.092 109.278C117.092 109.571 116.959 109.704 116.666 109.677C114.802 109.677 112.912 109.677 111.048 109.677C110.968 109.73 110.835 109.73 110.702 109.73ZM110.729 108.133C112.14 108.133 113.524 108.133 114.935 108.133C114.909 106.722 114.137 105.817 112.992 105.764C111.581 105.684 110.862 106.829 110.729 108.133Z" fill="black"/>
<path d="M163.654 109.731C163.76 111.301 164.799 112.206 166.316 112.127C167.062 112.073 167.78 111.914 168.473 111.594C168.792 111.461 168.899 111.488 169.005 111.807C169.138 112.1 169.245 112.393 169.378 112.686C169.458 112.899 169.431 113.058 169.218 113.165C167.568 113.99 165.837 114.256 164.08 113.591C162.855 113.138 162.083 112.18 161.711 110.955C161.258 109.464 161.285 108 161.87 106.562C162.589 104.779 164.107 103.874 166.13 103.953C167.86 104.033 169.191 105.098 169.777 106.855C170.043 107.681 170.097 108.533 170.097 109.384C170.097 109.677 169.91 109.731 169.671 109.731C167.807 109.731 165.917 109.731 164.053 109.731C163.894 109.731 163.787 109.731 163.654 109.731ZM167.86 108.133C167.86 106.749 167.062 105.817 165.89 105.764C164.533 105.684 163.787 106.855 163.681 108.133C165.065 108.133 166.449 108.133 167.86 108.133Z" fill="black"/>
<path d="M89.8037 109.73C89.8569 111.221 90.9484 112.206 92.3594 112.126C93.1581 112.073 93.9035 111.913 94.5957 111.594C94.8619 111.461 95.0216 111.541 95.1281 111.807C95.2346 112.126 95.3677 112.419 95.5008 112.712C95.5807 112.899 95.5541 113.058 95.3411 113.165C93.6639 113.99 91.9335 114.283 90.1231 113.591C89.0582 113.165 88.3128 112.366 87.9135 111.328C87.2746 109.624 87.3012 107.92 88.0998 106.27C89.4842 103.394 93.3178 103.421 94.8619 105.151C95.6606 106.057 96.0333 107.121 96.1398 108.293C96.1664 108.639 96.1664 108.985 96.1664 109.305C96.1664 109.677 96.0865 109.757 95.7138 109.757C93.8503 109.757 91.9867 109.757 90.1231 109.757C90.0433 109.73 89.9368 109.73 89.8037 109.73ZM93.9834 108.133C93.9834 106.589 93.0782 105.817 92.0666 105.764C90.8419 105.71 89.9368 106.642 89.8303 108.133C91.2146 108.133 92.599 108.133 93.9834 108.133Z" fill="black"/>
<path d="M118.13 91.3344C118.103 92.8519 117.784 94.1298 116.799 95.1414C115.547 96.4459 113.977 96.7654 112.273 96.3128C110.596 95.8868 109.637 94.6888 109.211 93.0383C108.918 91.9468 108.945 90.8286 109.265 89.7371C109.877 87.5807 111.687 86.3294 113.923 86.4892C116.106 86.6489 117.677 88.1664 118.023 90.3494C118.077 90.7487 118.103 91.1215 118.13 91.3344ZM111.235 91.4942C111.235 92.213 111.368 92.9052 111.714 93.5441C112.113 94.2629 112.699 94.6622 113.551 94.6622C114.403 94.6622 114.988 94.2629 115.388 93.5441C115.734 92.9584 115.867 92.3195 115.867 91.6539C115.893 90.7754 115.76 89.9235 115.228 89.2047C114.349 87.98 112.619 88.0333 111.794 89.2845C111.394 89.9501 111.261 90.6955 111.235 91.4942Z" fill="black"/>
<path d="M79.6074 105.391C80.1398 104.805 80.6989 104.406 81.3645 104.166C83.441 103.421 85.3844 104.619 85.624 106.802C85.6773 107.148 85.6773 107.521 85.6773 107.893C85.6773 109.677 85.6773 111.461 85.6773 113.271C85.6773 113.697 85.624 113.75 85.1981 113.75C84.7721 113.75 84.3728 113.75 83.9468 113.75C83.5741 113.75 83.5209 113.697 83.5209 113.298C83.5209 111.541 83.5209 109.757 83.5209 108C83.5209 107.787 83.5209 107.547 83.4676 107.334C83.228 106.11 82.03 105.577 80.9385 106.216C80.06 106.749 79.7671 107.601 79.7405 108.559C79.7139 110.13 79.7405 111.7 79.7405 113.245C79.7405 113.724 79.6873 113.75 79.2347 113.75C78.862 113.75 78.4893 113.75 78.1166 113.75C77.6107 113.75 77.5841 113.724 77.5841 113.218C77.5841 111.221 77.5841 109.225 77.5841 107.201C77.5841 106.349 77.5841 105.524 77.5841 104.672C77.5841 104.246 77.6374 104.193 78.0633 104.193C78.3828 104.193 78.7289 104.22 79.0483 104.193C79.3944 104.166 79.5009 104.326 79.5275 104.646C79.5542 104.859 79.5808 105.072 79.6074 105.391Z" fill="black"/>
<path d="M142.835 105.258C143.368 104.912 143.847 104.512 144.379 104.246C146.509 103.288 148.692 104.592 148.852 106.908C148.932 107.973 148.905 109.065 148.905 110.13C148.905 111.168 148.905 112.206 148.905 113.271C148.905 113.644 148.852 113.724 148.453 113.724C148.027 113.724 147.627 113.724 147.201 113.724C146.775 113.724 146.749 113.67 146.749 113.271C146.749 111.594 146.749 109.917 146.749 108.213C146.749 107.947 146.749 107.654 146.696 107.388C146.589 106.749 146.323 106.216 145.657 106.03C144.965 105.817 144.3 105.95 143.767 106.456C143.155 107.042 142.968 107.76 142.968 108.559C142.968 110.103 142.968 111.621 142.968 113.165C142.968 113.67 142.942 113.697 142.409 113.697C142.037 113.697 141.664 113.697 141.291 113.697C140.839 113.697 140.785 113.644 140.785 113.218C140.785 111.115 140.785 109.012 140.785 106.882C140.785 106.136 140.785 105.391 140.785 104.646C140.785 104.246 140.839 104.166 141.238 104.166C141.611 104.166 141.983 104.166 142.356 104.166C142.569 104.166 142.702 104.246 142.702 104.486C142.782 104.779 142.809 105.045 142.835 105.258Z" fill="black"/>
<path d="M79.6074 87.8736C79.9002 87.634 80.1398 87.3944 80.4061 87.1814C81.2314 86.5691 82.1631 86.3561 83.1748 86.5425C84.5591 86.8087 85.4377 87.8203 85.5974 89.2846C85.6507 89.817 85.6507 90.3761 85.6773 90.9085C85.6773 92.5059 85.6773 94.1298 85.6773 95.7272C85.6773 96.1797 85.624 96.2064 85.1715 96.2064C84.7987 96.2064 84.3994 96.2064 84.0267 96.2064C83.5475 96.2064 83.5209 96.1797 83.5209 95.6739C83.5209 93.9435 83.5209 92.213 83.5209 90.4559C83.5209 90.243 83.5209 90.03 83.4676 89.817C83.3611 89.2047 83.0949 88.6989 82.456 88.5125C81.7638 88.2995 81.1515 88.4326 80.6191 88.8852C79.9801 89.4443 79.7671 90.1897 79.7671 91.015C79.7671 92.5591 79.7671 94.1298 79.7671 95.6739C79.7671 96.1531 79.7405 96.1797 79.2613 96.1797C78.8354 96.1797 78.436 96.1797 78.0101 96.1797C77.6906 96.1797 77.5841 96.0466 77.5841 95.7538C77.5841 94.8752 77.5841 93.9967 77.5841 93.0915C77.5841 91.1215 77.5841 89.1248 77.5841 87.1548C77.5841 86.7022 77.6374 86.6223 78.0899 86.6223C78.4094 86.6223 78.7555 86.6223 79.075 86.6223C79.3678 86.5957 79.5009 86.7554 79.5275 87.0217C79.5542 87.3677 79.5808 87.6074 79.6074 87.8736Z" fill="black"/>
<path d="M121.937 87.8203C122.363 87.5008 122.762 87.1547 123.215 86.9151C125.451 85.7437 127.847 87.0216 127.98 89.5507C128.087 91.6539 128.033 93.7837 128.033 95.9134C128.033 96.1797 127.9 96.2862 127.634 96.2862C127.181 96.2595 126.729 96.2595 126.303 96.2862C126.01 96.2862 125.877 96.1797 125.877 95.8868C125.877 94.1298 125.877 92.3461 125.877 90.589C125.877 90.4026 125.85 90.2163 125.824 90.0299C125.744 89.391 125.478 88.8585 124.812 88.6456C124.12 88.406 123.481 88.5391 122.949 89.0183C122.283 89.604 122.097 90.376 122.07 91.2013C122.07 92.7454 122.07 94.2629 122.07 95.807C122.07 96.2862 122.043 96.3394 121.538 96.3394C121.138 96.3394 120.739 96.3394 120.366 96.3394C119.967 96.3394 119.94 96.2862 119.94 95.8868C119.94 93.4908 119.94 91.0948 119.94 88.6988C119.94 88.193 119.94 87.6872 119.94 87.208C119.94 86.9151 120.047 86.782 120.34 86.8086C120.712 86.8086 121.112 86.8086 121.484 86.8086C121.724 86.8086 121.857 86.9151 121.884 87.1813C121.884 87.3411 121.91 87.5807 121.937 87.8203Z" fill="black"/>
<path d="M100.639 86.7287C101.225 86.7287 101.784 86.7287 102.343 86.7287C102.849 86.7287 102.875 86.7553 102.875 87.2878C102.875 87.554 102.875 87.7936 102.875 88.0598C102.902 88.3527 102.769 88.4858 102.449 88.4858C101.943 88.4858 101.438 88.4858 100.958 88.4858C100.852 88.4858 100.745 88.4858 100.612 88.4858C100.612 88.6189 100.586 88.7254 100.586 88.8319C100.586 90.4292 100.586 92.0266 100.586 93.6239C100.586 93.6771 100.586 93.7304 100.586 93.7836C100.639 94.5557 100.958 94.8219 101.73 94.7154C101.97 94.6888 102.21 94.6089 102.449 94.5557C102.689 94.5024 102.822 94.5823 102.849 94.8219C102.902 95.168 102.928 95.5141 103.008 95.8602C103.035 96.0465 102.955 96.153 102.795 96.2329C101.864 96.579 100.905 96.6855 99.9468 96.3926C99.0416 96.0998 98.5092 95.3277 98.4559 94.2362C98.4293 93.4375 98.4293 92.6655 98.4293 91.8668C98.4293 89.4708 98.4293 87.1014 98.4293 84.7054C98.4293 84.1464 98.4559 84.1464 98.9884 84.0931C99.3611 84.0665 99.7072 84.0133 100.08 83.9866C100.532 83.9334 100.586 84.0133 100.586 84.4392C100.586 85.1314 100.586 85.8236 100.586 86.5157C100.612 86.5424 100.612 86.5956 100.639 86.7287Z" fill="black"/>
<path d="M128.033 106.988C128.033 109.065 128.033 111.115 128.033 113.191C128.033 113.697 127.98 113.75 127.501 113.75C127.102 113.75 126.702 113.75 126.276 113.75C126.01 113.75 125.877 113.617 125.877 113.351C125.877 109.171 125.877 104.992 125.877 100.812C125.877 100.546 125.983 100.439 126.25 100.413C126.729 100.386 127.208 100.333 127.687 100.28C127.9 100.253 128.007 100.359 128.033 100.546C128.033 100.652 128.033 100.759 128.033 100.865C128.033 102.889 128.033 104.938 128.033 106.988Z" fill="black"/>
<path d="M142.809 89.5242C142.809 91.6007 142.809 93.6773 142.809 95.7538C142.809 96.2064 142.782 96.2596 142.33 96.2596C141.904 96.2596 141.451 96.2596 141.025 96.2596C140.785 96.2596 140.679 96.1531 140.652 95.9135C140.652 95.8337 140.652 95.7538 140.652 95.7006C140.652 91.6273 140.652 87.5808 140.652 83.5075C140.652 83.0017 140.706 82.9485 141.211 82.8952C141.584 82.8686 141.93 82.842 142.303 82.7887C142.755 82.7355 142.835 82.7887 142.835 83.2413C142.809 85.3445 142.809 87.4476 142.809 89.5242Z" fill="black"/>
<path d="M121.085 105.391C121.165 105.285 121.218 105.151 121.324 105.072C121.99 104.433 122.789 104.033 123.72 103.98C124.146 103.953 124.2 104.007 124.2 104.406C124.2 104.859 124.2 105.311 124.2 105.737C124.2 106.136 124.146 106.216 123.694 106.163C122.895 106.057 122.23 106.323 121.724 106.935C121.271 107.494 121.165 108.133 121.165 108.825C121.165 110.29 121.165 111.754 121.165 113.218C121.165 113.671 121.138 113.697 120.686 113.697C120.26 113.697 119.834 113.697 119.408 113.697C119.141 113.697 119.035 113.591 119.035 113.324C119.035 110.396 119.035 107.494 119.035 104.566C119.035 104.273 119.141 104.166 119.434 104.166C119.807 104.166 120.206 104.166 120.579 104.166C120.845 104.166 120.952 104.273 120.952 104.539C120.978 104.779 121.005 105.045 121.032 105.285C121.005 105.338 121.058 105.364 121.085 105.391Z" fill="black"/>
<path d="M107.161 91.5208C107.161 92.9584 107.161 94.396 107.161 95.8336C107.161 96.2329 107.135 96.2596 106.709 96.2596C106.283 96.2596 105.83 96.2596 105.404 96.2596C105.111 96.2596 105.005 96.1531 105.005 95.8602C105.005 93.0116 105.005 90.1364 105.005 87.2879C105.005 87.0483 105.111 86.9151 105.351 86.8885C105.83 86.8353 106.336 86.782 106.815 86.7554C107.135 86.7288 107.161 86.9151 107.161 87.1547C107.161 88.5923 107.161 90.0566 107.161 91.5208Z" fill="black"/>
<path d="M107.348 84.2263C107.348 84.9451 106.789 85.5042 106.07 85.5042C105.378 85.5042 104.819 84.9451 104.819 84.2529C104.819 83.5341 105.351 83.0017 106.043 82.975C106.789 82.975 107.348 83.5341 107.348 84.2263Z" fill="black"/>
</g>
<defs>
<clipPath id="clip0">
<rect width="160" height="48.4526" fill="white" transform="translate(20 76)"/>
</clipPath>
</defs>
</svg>
