<svg width="200" height="200" viewBox="0 0 200 200" fill="none" xmlns="http://www.w3.org/2000/svg">
<rect width="200" height="200" fill="white"/>
<g clip-path="url(#clip0)">
<path d="M126.781 103.469C123.562 103.469 120.344 103.5 117.125 103.469C116.375 103.469 115.719 103.625 115.094 104.063C112.406 105.938 109.719 107.781 107.031 109.625C106.281 110.125 105.5 110.688 104.594 110.25C103.719 109.813 103.875 108.844 103.844 108.031C103.688 105.125 103.906 102.219 103.656 99.3438C103.594 98.4688 103.313 97.8126 102.75 97.1563C95.375 88.4063 97.0625 74.6876 106.344 68.1251C108.969 66.2501 111.938 65.1563 115.219 65.1563C122.219 65.1251 129.25 65.0313 136.25 65.1563C144.562 65.3126 152.219 72.6563 153.094 80.9376C153.719 86.8126 152.812 92.2188 149 96.8751C145.625 101.031 141.156 103.281 135.781 103.438C132.812 103.531 129.812 103.469 126.781 103.469ZM137.406 79.4063C137.125 78.3751 136.469 77.7188 135.531 77.2813C134.781 76.9063 134.25 77.0313 133.594 77.6251C128.813 81.9063 122.812 81.8438 117.875 77.5313C117.031 76.8126 115.656 77.0313 114.813 78.1563C114.188 79.0001 113.719 79.7813 114.875 80.8126C119.031 84.4688 119.031 90.3438 114.875 94.0313C113.625 95.1251 114.25 95.9688 114.938 96.7813C115.875 97.9063 117.094 98.0313 117.969 97.2188C122.594 93.0001 128.969 93.0001 133.562 97.2188C134.437 98.0313 135.594 97.8751 136.594 96.8126C137.469 95.9063 137.469 95.1876 136.437 94.2501C131.844 90.0938 131.969 84.4063 136.687 80.4376C137 80.0938 137.437 79.9063 137.406 79.4063ZM125.875 78.1251C128.719 78.0938 131 76.0001 131.031 73.4063C131.031 70.7501 128.687 68.6563 125.719 68.6876C122.938 68.7188 120.5 70.9376 120.531 73.4063C120.531 76.0001 122.969 78.1563 125.875 78.1251Z" fill="black"/>
<path d="M51.4688 124.938C48.875 124.938 46.2813 125 43.6875 124.906C42.2813 124.875 42.4063 125.344 42.9688 126.281C45.0938 129.781 49.9375 131.031 53.4688 128.938C53.875 128.688 54.2188 128.406 54.625 128.156C55.8125 127.438 57.2813 127.656 57.9688 128.656C58.6875 129.688 58.4063 131.031 57.3125 131.969C53.5625 135.125 47.1563 135.406 42.875 132.656C37.9063 129.438 35.9688 123.781 38 118.438C39.9375 113.313 45.5625 110.063 51.125 110.875C57.1875 111.75 61 115.469 61.9375 121.375C62.3125 123.813 61.4063 124.906 58.9688 124.906C56.4375 124.938 53.9688 124.938 51.4688 124.938ZM56.75 120.344C55.6563 117.375 53.0313 115.406 50 115.313C46.875 115.219 44.375 116.5 42.75 119.281C42.4375 119.813 42.1563 120.344 43.2188 120.344C47.6875 120.344 52.1563 120.344 56.75 120.344Z" fill="black"/>
<path d="M83.8438 113.313C83.8438 111.344 83.8438 109.656 83.8438 107.969C83.8438 106.563 84.7188 105.906 86 105.75C87.25 105.594 88.5 106.531 88.5313 107.75C88.5313 113.344 89.125 119 88.3438 124.531C87.0313 133.656 75.7813 137.781 68.5313 132.094C64.4375 128.875 62.8125 123.875 64.3438 119.219C65.8438 114.531 70.25 111.219 75.2813 110.906C78.2813 110.688 81.0625 111.406 83.8438 113.313ZM76.1875 130C80.375 130 83.8438 126.625 83.8125 122.594C83.7813 118.719 80.2188 115.375 76.125 115.344C71.9688 115.344 68.5313 118.719 68.5625 122.781C68.5938 126.844 71.9688 130.031 76.1875 130Z" fill="black"/>
<path d="M149.875 110.813C156.781 110.781 162.25 115.938 162.344 122.594C162.438 129.063 156.906 134.594 150.219 134.625C143.125 134.656 137.531 129.531 137.5 122.969C137.469 116 142.719 110.844 149.875 110.813ZM149.844 129.938C154.031 129.938 157.438 126.719 157.438 122.719C157.438 118.75 154 115.375 149.906 115.344C145.875 115.313 142.281 118.75 142.25 122.625C142.25 126.594 145.719 129.938 149.844 129.938Z" fill="black"/>
<path d="M113.656 122.75C113.656 125.75 113.656 128.781 113.656 131.781C113.656 133.031 113.344 134.094 112.031 134.469C110.813 134.844 109.75 134.469 109.156 133.281C108.688 132.344 108.25 133 107.813 133.219C102.469 135.906 96.25 134.531 92.75 129.875C91.1875 127.813 90.5625 125.438 90.5313 122.875C90.5 119.875 90.5 116.844 90.5313 113.844C90.5313 111.875 91.4687 110.75 93.0312 110.781C94.5312 110.813 95.375 111.875 95.375 113.813C95.375 116.938 95.3437 120.031 95.375 123.156C95.4062 127.031 98.1875 129.906 101.969 129.938C105.875 130 108.813 127.219 108.906 123.313C108.969 120.094 108.938 116.875 108.938 113.656C108.938 111.844 109.813 110.781 111.25 110.75C112.813 110.719 113.688 111.75 113.688 113.656C113.688 116.719 113.656 119.719 113.656 122.75Z" fill="black"/>
<path d="M128.281 110.813C131.063 110.75 133.594 111.563 135.781 113.313C137.125 114.375 137.406 115.688 136.594 116.813C135.75 117.969 134.313 118.125 132.875 117.094C130.969 115.75 128.938 115.063 126.594 115.594C123.594 116.281 121.5 118 120.781 120.969C120.031 124.031 121 126.656 123.594 128.5C126.188 130.313 128.969 130.5 131.813 129C132.313 128.75 132.75 128.344 133.25 128.063C134.438 127.375 135.906 127.656 136.594 128.656C137.281 129.688 137.031 131.031 135.938 131.969C132.063 135.25 125.656 135.531 121.25 132.656C116.719 129.688 114.719 124.469 116.156 119.406C117.625 114.375 122.406 110.844 127.813 110.813C127.969 110.813 128.125 110.813 128.281 110.813Z" fill="black"/>
</g>
<defs>
<clipPath id="clip0">
<rect width="125.625" height="70" fill="white" transform="translate(37 65)"/>
</clipPath>
</defs>
</svg>
