<svg width="200" height="200" viewBox="0 0 200 200" fill="none" xmlns="http://www.w3.org/2000/svg">
<rect width="200" height="200" fill="white"/>
<g clip-path="url(#clip0)">
<path d="M170.592 76.0398C160.433 76.0398 152.068 84.2463 152.068 94.5642C152.068 104.723 160.274 113.089 170.592 113.089C180.75 113.089 189.116 104.882 189.116 94.5642C189.116 84.2463 180.75 76.0398 170.592 76.0398ZM184.933 84.2463C184.017 84.8439 182.981 85.4414 181.946 86.039C181.348 84.8439 180.591 83.6487 179.715 82.613C180.472 82.1748 181.228 81.5772 181.826 81.0991C183.141 81.8561 184.176 83.0512 184.933 84.2463ZM177.165 78.1512C178.679 78.7487 179.994 79.5056 181.348 80.5414C180.75 81.139 179.994 81.5772 179.237 82.0552C178.32 81.0195 177.285 80.1032 176.249 79.2268C176.567 78.7487 176.886 78.43 177.165 78.1512ZM178.679 82.3341C177.643 82.9317 176.567 83.2504 175.532 83.6886C175.094 82.6528 174.615 81.5772 174.018 80.7008C174.615 80.3821 175.213 80.1032 175.651 79.665C176.727 80.3821 177.763 81.2585 178.679 82.3341ZM176.408 77.8325C176.089 78.1512 175.811 78.43 175.651 78.7487C174.615 78.1512 173.699 77.5536 172.504 77.1154C173.898 77.0756 175.213 77.3943 176.408 77.8325ZM175.094 79.1869C174.655 79.5056 174.177 79.7845 173.739 79.9439C173.141 79.0276 172.544 78.3105 171.946 77.3943C172.982 77.8325 174.018 78.43 175.094 79.1869ZM170.871 77.5536C171.628 78.3105 172.225 79.1869 172.823 80.2626C172.225 80.4219 171.628 80.5813 170.871 80.5813V77.5536ZM170.871 81.2585C171.628 81.2585 172.504 81.0991 173.261 80.8203C173.859 81.7365 174.297 82.7723 174.775 83.8081C173.58 84.1268 172.225 84.2463 170.871 84.4056V81.2585ZM170.154 77.5536V80.5414C169.556 80.5414 168.959 80.3821 168.202 80.2227C168.959 79.3463 169.556 78.43 170.154 77.5536ZM167.604 79.9439C167.166 79.7845 166.568 79.5056 166.25 79.1869C167.285 78.5894 168.361 77.9918 169.397 77.5536C168.64 78.2707 168.042 79.0276 167.604 79.9439ZM168.64 76.9561C167.604 77.3943 166.528 77.9918 165.493 78.5894C165.174 78.2707 164.895 77.9918 164.736 77.6731C165.971 77.3943 167.285 77.0756 168.64 76.9561ZM181.348 108.627C178.958 107.272 178.798 105.32 178.958 104.723C179.117 103.966 179.555 104.285 179.874 104.285C181.507 104.285 183.18 103.846 185.252 101.576C187.642 99.1853 188.399 93.8073 184.654 90.3813C180.75 86.6365 176.567 87.2341 173.898 90.7C173.301 91.4569 171.946 91.8951 170.911 91.8951C169.118 91.8951 170.313 93.2496 170.313 93.5284C170.313 93.8471 169.994 93.9666 169.875 93.9666C169.277 93.8073 169.556 94.7235 169.556 94.8829C169.556 95.0422 169.237 95.3211 169.237 95.3211C168.48 95.3211 168.64 95.9187 168.799 96.2374C168.799 96.3967 168.799 96.6756 168.48 96.8349C168.162 96.9943 168.042 97.5918 168.042 98.03C168.042 98.7869 168.799 99.3845 169.994 100.261C171.189 101.177 171.349 102.054 171.349 102.651C171.349 103.249 171.508 104.285 171.667 104.882C171.986 105.639 171.986 107.113 170.313 107.113C168.202 107.272 164.616 108.746 164.337 108.906C163.142 109.344 161.628 109.503 160.433 109.224C159.836 108.786 159.238 108.308 158.641 107.711C158.322 106.954 158.8 106.077 159.238 105.48C159.995 106.237 160.872 106.077 161.469 106.077C162.067 106.077 164.776 105.639 165.214 105.48C165.652 105.32 165.811 105.32 165.971 105.48C167.007 105.918 168.52 105.918 169.118 103.966C169.715 101.854 168.361 102.452 168.082 102.611C167.923 102.771 167.644 102.611 167.763 102.452C168.082 102.014 167.604 102.014 167.445 102.014C166.847 102.014 166.09 102.611 165.931 102.771C165.612 102.93 165.493 102.93 165.333 102.93C164.576 102.492 162.346 103.089 161.589 101.894C161.589 101.576 160.991 96.6756 160.672 95.7593C160.672 95.6 160.513 95.3211 160.832 95.0024C161.429 94.0861 162.943 95.0024 163.82 95.0024C164.855 95.0024 165.015 94.5642 165.333 94.2455C165.652 93.9268 165.772 94.0861 165.931 93.9268C166.09 93.7674 165.931 93.6081 165.931 93.4886C165.931 93.3691 166.09 93.4886 166.25 93.3292C166.409 93.1699 166.25 92.891 166.25 92.7317C166.568 92.2935 167.166 92.5723 166.847 91.6959C166.688 91.0983 167.007 90.5008 167.285 90.1821C167.724 89.5845 169.676 86.8756 166.369 84.0471C163.222 81.3382 159.955 81.6569 157.844 83.8878C155.733 86.1187 156.808 89.4252 156.928 90.3016C157.087 91.2178 156.489 91.9349 155.733 92.2536C155.135 92.5723 153.781 93.4487 152.904 94.2056C153.063 87.0349 157.406 80.7406 163.979 78.2309C164.298 78.5496 164.576 78.9878 164.895 79.2666C164.138 79.8642 162.505 81.2187 162.505 81.2187C162.505 81.2187 162.664 81.2187 162.943 81.378C163.102 81.378 163.381 81.5374 163.381 81.5374C163.381 81.5374 164.736 80.3422 165.493 79.904C165.931 80.3422 166.528 80.6609 167.126 80.9398C166.807 81.5374 165.931 83.0512 165.931 83.0512C165.931 83.0512 166.09 83.2105 166.25 83.2105C166.409 83.3699 166.568 83.3699 166.568 83.3699C166.568 83.3699 167.485 81.7365 167.763 81.139C168.52 81.4577 169.277 81.5772 169.994 81.5772V84.565C169.556 84.565 168.48 84.565 168.042 84.4056H167.724L167.883 84.7243C168.042 84.8837 168.042 85.043 168.202 85.1626H169.994V90.7H170.751V89.3455C171.946 89.3455 172.863 89.1861 173.898 89.0268L174.934 88.1105H174.337C173.141 88.2699 172.106 88.4292 171.189 88.4292H170.751V85.0032C172.106 85.0032 173.58 84.8439 174.934 84.4056C175.253 85.3219 175.97 87.5528 175.97 87.5528L176.727 87.2341C176.727 87.2341 175.97 85.0032 175.691 84.087C176.886 83.7683 177.922 83.1707 178.998 82.7325C179.914 83.7683 180.631 84.9634 181.228 86.1585C180.631 86.4772 179.715 86.7561 179.715 86.7561C180.472 86.9154 181.069 87.0748 181.069 87.0748C181.069 87.0748 181.388 86.9154 181.507 86.9154C181.507 87.0748 181.667 87.3536 181.667 87.3536L182.702 87.7918L182.543 87.4731C182.543 87.4731 182.224 86.7162 182.105 86.5569C183.141 86.1187 184.216 85.5211 185.252 84.7642C187.204 87.5926 188.08 91.0585 188.08 94.4845C188.359 100.261 185.531 105.32 181.348 108.627Z" fill="black"/>
<path d="M150.434 80.9796L150.115 81.2983C149.08 82.2146 146.53 84.7243 146.968 87.5926V87.752L147.128 88.3495L147.446 88.0308C148.96 86.6764 150.155 84.2861 150.594 81.617L150.753 80.8601L150.434 80.9796Z" fill="black"/>
<path d="M145.335 85.7601L145.176 86.0788C145.016 86.5171 144.737 87.5927 144.578 88.7878C144.259 90.5805 144.419 93.2894 145.932 95.2016L146.251 95.7992L146.57 94.604C146.889 92.4927 146.411 88.1902 145.654 86.2382L145.335 85.6406V85.7601Z" fill="black"/>
<path d="M143.542 93.2098V93.5285C143.383 95.3212 143.542 99.9423 147.287 102.492L147.725 102.811V102.213C147.725 100.42 145.614 95.2016 144.14 93.409L143.702 92.8114L143.542 93.2098Z" fill="black"/>
<path d="M144.14 101.456V101.775C144.737 104.484 147.128 108.667 151.032 109.981L151.629 110.141L151.47 109.543C150.713 107.591 146.968 102.97 144.578 101.456L144.14 101.137V101.456Z" fill="black"/>
<path d="M152.067 85.0032L151.629 85.1626C148.801 86.9553 147.446 89.0666 147.446 91.7357V92.3333L147.885 92.0146C149.398 90.6601 151.47 87.3935 151.908 85.6008L152.067 84.8439V85.0032Z" fill="black"/>
<path d="M150.275 90.7L150.115 91.0187C149.358 91.7756 146.968 94.3252 147.128 97.4325C147.128 97.8707 147.287 98.4683 147.446 98.9463L147.606 99.3845L147.924 98.9463C149.119 97.313 150.633 93.13 150.474 91.178V90.5804L150.275 90.7Z" fill="black"/>
<path d="M150.434 96.2374L150.275 96.5561C149.08 98.3487 148.482 100.141 148.482 101.934C148.482 103.129 148.92 104.324 149.677 105.519L149.996 105.958L150.155 105.519C150.594 104.484 151.072 101.337 151.072 98.7869C151.072 97.8707 150.912 97.1536 150.753 96.6756L150.594 96.078L150.434 96.2374Z" fill="black"/>
<path d="M151.749 102.054L151.589 102.372C151.271 103.567 150.992 104.603 151.151 105.798C151.151 108.189 152.346 110.141 154.458 111.495L154.776 111.654L154.936 111.216V110.778C154.936 108.826 153.422 103.767 152.227 102.253L151.908 101.815L151.749 102.054Z" fill="black"/>
<path d="M147.725 109.822L147.885 110.141C149.398 112.69 152.068 116.116 157.007 115.24H157.446L157.127 114.921C156.211 113.567 150.235 110.141 148.163 109.822L147.566 109.663L147.725 109.822Z" fill="black"/>
<path d="M155.055 116.395L154.298 116.554L155.055 116.873C158.202 118.228 162.067 118.506 164.457 117.789C165.373 117.471 165.811 117.032 166.409 116.435C170.432 116.873 174.177 120.18 176.408 122.849L176.567 123.008H176.727C177.045 122.849 177.324 122.57 177.484 122.411L177.643 122.251L177.484 122.092C175.253 119.104 171.667 117.311 171.508 117.152C168.202 115.638 162.505 114.443 155.055 116.395Z" fill="black"/>
<path d="M155.215 108.029V108.348C155.653 111.336 156.848 115.24 161.947 114.762H162.266L162.106 114.443C161.788 113.088 157.167 109.224 155.533 108.149L155.095 107.83L155.215 108.029Z" fill="black"/>
<path d="M190.471 80.6609L190.63 81.4178C191.068 84.1267 192.263 86.517 193.777 87.8316L194.096 88.1503L194.255 87.5528V87.3934C194.693 84.565 192.144 82.0154 191.108 81.0991L190.789 80.7804L190.471 80.6609Z" fill="black"/>
<path d="M195.689 85.4414L195.371 86.039C194.614 87.991 194.335 92.3333 194.454 94.4048L194.773 95.5999L194.933 95.4406L195.092 95.1219C196.725 93.1699 196.725 90.6203 196.446 88.7081C196.287 87.3536 196.008 86.4772 195.849 85.9991L195.689 85.6804V85.4414Z" fill="black"/>
<path d="M197.641 92.9308L197.203 93.5283C195.689 95.4804 193.618 100.54 193.618 102.332V102.93L194.056 102.611C197.801 100.221 197.96 95.5999 197.801 93.6479V93.3292L197.641 92.9308Z" fill="black"/>
<path d="M197.044 101.137L196.446 101.456C194.056 102.97 190.311 107.591 189.554 109.543L189.395 110.141L189.993 109.981C193.897 108.786 196.407 104.444 196.885 101.775V101.456L197.044 101.137Z" fill="black"/>
<path d="M189.116 84.7244L189.276 85.4813C189.873 87.4333 191.666 90.7 193.299 92.0544L193.737 92.3731V91.7756C193.897 89.0666 192.542 86.9951 189.714 85.2024L189.395 85.0431L189.116 84.7244Z" fill="black"/>
<path d="M190.75 90.5406V91.1382C190.59 93.0902 192.263 97.4325 193.299 98.9065L193.618 99.3447L193.777 98.9065C193.937 98.3089 194.096 97.8707 194.096 97.3927C194.255 94.2455 191.865 91.6959 191.108 90.9789L190.949 90.8195L190.75 90.5406Z" fill="black"/>
<path d="M190.63 95.9187L190.471 96.5163C190.311 96.9545 190.152 97.7114 190.152 98.6276C190.152 101.177 190.471 104.324 191.068 105.36L191.228 105.798L191.546 105.36C192.303 104.324 192.742 103.129 192.742 101.775C192.742 100.141 192.144 98.1894 190.949 96.3967L190.79 96.078L190.63 95.9187Z" fill="black"/>
<path d="M189.276 101.735L188.957 102.173C187.762 103.687 186.248 108.746 186.248 110.698V111.136L186.407 111.575L186.726 111.415C188.837 110.061 189.873 108.109 190.033 105.719C190.033 104.683 189.873 103.488 189.594 102.293L189.435 101.974L189.276 101.735Z" fill="black"/>
<path d="M193.618 109.503L193.02 109.663C190.909 109.981 184.933 113.407 184.057 114.762L183.738 115.08H184.176C189.116 115.997 191.785 112.531 193.299 109.981L193.459 109.663L193.618 109.503Z" fill="black"/>
<path d="M169.835 117.152C169.676 117.152 166.09 119.104 163.859 122.092L163.7 122.251L163.859 122.411C164.019 122.57 164.457 122.849 164.616 123.008H164.776L164.935 122.849C167.166 120.14 170.911 116.714 174.934 116.435C175.532 117.032 176.129 117.471 176.886 117.789C179.117 118.546 183.18 118.228 186.288 116.873L187.045 116.554L186.288 116.395C178.679 114.443 172.982 115.638 169.835 117.152Z" fill="black"/>
<path d="M185.969 107.711L185.531 108.029C183.898 109.065 179.396 112.969 178.958 114.324L178.798 114.642H179.117C184.057 115.08 185.252 111.216 185.85 108.228V107.87L185.969 107.711Z" fill="black"/>
<path d="M59.8439 77.8325H66.1382V83.5293H59.8439V77.8325ZM60.4414 90.1024H65.6601V117.909H60.4414V90.1024Z" fill="black"/>
<path d="M20.8431 90.1024H26.0618V117.909H20.9626V113.846H20.8032C18.6919 117.272 15.1065 118.785 11.2423 118.785C5.42601 118.785 2.11951 114.284 2.11951 108.786V90.1024H7.33821V106.555C7.33821 111.336 8.37398 114.921 13.4732 114.921C15.5845 114.921 18.5724 113.885 19.6081 110.898C20.6439 108.348 20.6439 105.081 20.6439 104.324V90.1423H20.8431V90.1024Z" fill="black"/>
<path d="M36.539 94.126C38.491 90.7 42.2357 89.1862 45.0642 89.1862C47.0162 89.1862 55.5414 89.6244 55.5414 98.5878V117.71H50.3227V100.221C50.3227 95.6 48.3707 93.2097 43.9089 93.2097C43.9089 93.2097 41.0804 93.0504 38.8097 95.3211C38.0528 96.078 36.5788 97.2732 36.5788 102.811V117.909H31.3601V90.1024H36.5788L36.539 94.126Z" fill="black"/>
<path d="M87.6504 98.9065C87.3317 95.4805 85.6984 93.0902 81.9537 93.0902C77.0138 93.0902 75.0618 97.4325 75.0618 103.846C75.0618 110.26 77.0138 114.602 81.9537 114.602C85.3797 114.602 87.4911 112.372 87.7699 108.308H92.9886C92.5504 114.602 87.8895 118.307 81.7943 118.307C72.9903 118.307 69.4049 112.013 69.4049 103.966C69.4049 95.9187 73.4285 89.1862 82.2724 89.1862C88.0886 89.1862 92.4309 92.9309 92.7496 98.9065H87.6504Z" fill="black"/>
<path d="M100.797 104.882C100.359 109.663 102.43 114.762 107.689 114.762C111.712 114.762 113.824 113.128 114.421 109.065H119.919C119.002 115.359 114.222 118.467 107.649 118.467C98.8448 118.467 95.2594 112.172 95.2594 104.125C95.2594 96.078 99.283 89.3455 108.127 89.3455C116.333 89.5048 120.237 94.7235 120.237 102.332V104.882H100.797ZM114.859 101.297C115.019 96.6755 112.907 93.0902 107.848 93.0902C103.506 93.0902 100.956 96.8349 100.956 101.297H114.859Z" fill="black"/>
<path d="M126.213 117.59V93.6877H121.432V90.1024H126.213V84.1268C126.372 78.1512 130.993 76.5178 134.898 76.5178C136.093 76.5178 137.447 76.8365 138.642 77.1154V81.4577C137.726 81.4577 136.85 81.2983 135.933 81.2983C132.946 81.2983 131.312 82.0552 131.432 85.043V90.1422H137.846V93.7276H131.432V117.63L126.213 117.59Z" fill="black"/>
</g>
<defs>
<clipPath id="clip0">
<rect width="196" height="47.0081" fill="white" transform="translate(2 76)"/>
</clipPath>
</defs>
</svg>
