<svg width="200" height="200" viewBox="0 0 200 200" fill="none" xmlns="http://www.w3.org/2000/svg">
<rect width="200" height="200" fill="white"/>
<g clip-path="url(#clip0_604:56)">
<path d="M147.463 112.19L146.329 111.823L147.043 110.15H148.697L147.463 112.19Z" fill="black"/>
<path d="M63.18 102.556C61.3459 100.783 58.9189 99.7649 56.5179 99.7614H56.4988C52.7491 99.7614 50.7625 101.499 49.1676 102.889C47.8362 104.054 46.9573 104.825 45.0296 104.825H45.0192C44.5496 104.825 44.0826 104.757 43.6323 104.624C42.1056 104.112 40.9498 102.848 40.5743 101.278C40.5587 101.214 40.5431 101.15 40.5292 101.084C40.5153 101.018 40.5049 100.933 40.4945 100.856C40.4841 100.78 40.4737 100.707 40.4651 100.632C40.4512 100.49 40.4425 100.345 40.4425 100.199C40.4426 99.5955 40.5604 98.9975 40.7893 98.439C40.843 98.3121 40.8985 98.1887 40.9626 98.0671C41.0077 97.9802 41.0545 97.8933 41.1048 97.8151C41.1724 97.6987 41.2469 97.5875 41.3249 97.478C42.4903 95.8498 44.5632 95.1502 46.4736 95.7402C47.6978 95.9927 48.9131 95.272 49.2818 94.0748C49.6504 92.8777 49.0518 91.5957 47.8986 91.1126C47.0119 90.8253 46.0863 90.6764 45.1544 90.6712C44.2793 90.6682 43.4068 90.7662 42.554 90.9631C40.4131 91.5157 38.5287 92.9685 37.2614 94.8401C37.2441 94.8644 37.2268 94.887 37.2112 94.9113C37.0465 95.1581 36.8922 95.4101 36.75 95.6707L36.7292 95.7142C36.5905 95.9696 36.4657 96.2355 36.3513 96.4979C36.3513 96.5083 36.3426 96.5187 36.3374 96.5309C35.8543 97.6385 35.599 98.8324 35.5868 100.041C35.5879 100.411 35.6076 100.78 35.6458 101.148C35.6544 101.247 35.6735 101.345 35.6874 101.444C35.7168 101.673 35.7463 101.901 35.7896 102.123L35.8 102.161C36.5056 105.656 38.9534 108.336 42.2628 109.302C43.1806 109.59 44.137 109.737 45.0989 109.736C48.124 109.736 50.8647 107.875 52.3643 106.561C53.6957 105.395 54.5763 104.624 56.5092 104.624H56.5196C57.6794 104.624 58.8842 105.145 59.8256 106.057C60.7729 106.939 61.3181 108.171 61.3338 109.467C61.3338 113.834 54.8242 120.427 45.0382 120.427H45.007C34.0353 120.409 24.9982 111.429 24.8612 100.404C24.7926 94.981 26.8936 89.7559 30.6949 85.8961C34.4962 82.0363 39.6812 79.8633 45.092 79.8623H45.1232C50.4888 79.8566 55.6342 82.0007 59.4147 85.8176C60.3735 86.6818 61.8391 86.6435 62.7518 85.7305C63.6644 84.8175 63.7056 83.3484 62.8454 82.3855C58.1568 77.6491 51.7728 74.9897 45.1162 75H45.0781C38.3716 75 31.9446 77.6934 27.2327 82.4774C22.5209 87.2613 19.9167 93.7378 20.002 100.46C20.1754 114.126 31.3794 125.26 44.9845 125.279H45.0244C57.116 125.279 66.1618 116.937 66.1739 109.465C66.1651 106.847 65.0832 104.347 63.1818 102.552" fill="black"/>
<path d="M76.4104 116.734C76.4082 116.235 76.4933 115.74 76.6619 115.271C76.8218 114.821 77.0693 114.408 77.39 114.055C77.7146 113.703 78.1067 113.42 78.5428 113.224C79.0217 113.011 79.5411 112.906 80.0649 112.915C80.7478 112.895 81.4216 113.076 82.003 113.436C82.5237 113.768 82.9392 114.242 83.2009 114.802L81.4673 115.365C81.0509 114.606 80.1152 114.306 79.3368 114.682C79.1157 114.79 78.9196 114.943 78.7612 115.132C78.5901 115.337 78.4595 115.573 78.3764 115.827C78.2813 116.117 78.2345 116.422 78.2377 116.727C78.234 117.033 78.2832 117.338 78.3833 117.627C78.4709 117.883 78.603 118.121 78.7733 118.331C78.93 118.523 79.1263 118.679 79.3489 118.788C79.567 118.897 79.8074 118.953 80.051 118.952C80.3626 118.953 80.6682 118.865 80.9316 118.698C81.1778 118.554 81.3739 118.338 81.4933 118.079L83.2269 118.64C82.9831 119.21 82.5718 119.691 82.0481 120.02C81.4571 120.389 80.771 120.575 80.0753 120.555C79.5516 120.563 79.0324 120.458 78.5532 120.246C78.1166 120.048 77.7248 119.763 77.4021 119.409C77.081 119.051 76.8314 118.635 76.6671 118.183C76.4961 117.72 76.4093 117.229 76.4104 116.734Z" fill="black"/>
<path d="M87.516 120.562C86.9924 120.57 86.4732 120.465 85.994 120.253C85.5586 120.057 85.1689 119.771 84.8498 119.415C84.5338 119.06 84.2889 118.647 84.1287 118.199C83.9599 117.735 83.8747 117.244 83.8773 116.75C83.8741 116.251 83.9592 115.756 84.1287 115.287C84.2888 114.838 84.5336 114.425 84.8498 114.07C85.1685 113.714 85.5583 113.428 85.994 113.232C86.473 113.02 86.9923 112.915 87.516 112.923C88.0382 112.914 88.5559 113.019 89.0329 113.232C89.466 113.429 89.8533 113.715 90.1701 114.07C90.4863 114.425 90.7312 114.838 90.8913 115.287C91.0608 115.756 91.1459 116.251 91.1427 116.75C91.1452 117.244 91.0601 117.735 90.8913 118.199C90.7315 118.646 90.4892 119.058 90.1771 119.415C89.8609 119.772 89.4727 120.058 89.0381 120.253C88.5589 120.465 88.0397 120.57 87.516 120.562ZM85.7027 116.739C85.6991 117.043 85.746 117.346 85.8414 117.634C85.9274 117.887 86.0578 118.122 86.2263 118.329C86.3829 118.522 86.5793 118.678 86.8018 118.786C87.2538 119.004 87.78 119.004 88.232 118.786C88.4546 118.678 88.6509 118.522 88.8076 118.329C88.9776 118.121 89.1075 117.882 89.1907 117.626C89.2867 117.335 89.3335 117.031 89.3294 116.725C89.3326 116.424 89.2857 116.125 89.1907 115.839C89.1058 115.586 88.976 115.351 88.8076 115.144C88.6505 114.952 88.4542 114.796 88.232 114.687C88.0089 114.579 87.7639 114.524 87.516 114.525C87.2675 114.525 87.0225 114.585 86.8018 114.699C86.5804 114.813 86.3845 114.971 86.2263 115.163C86.0571 115.373 85.9268 115.611 85.8414 115.867C85.7477 116.151 85.7009 116.449 85.7027 116.748V116.739Z" fill="black"/>
<path d="M98.7806 120.422H97.0072V116.284C97.0072 115.693 96.9101 115.262 96.7159 114.989C96.5341 114.724 96.2293 114.57 95.9081 114.581C95.7216 114.583 95.5374 114.622 95.3655 114.694C95.1768 114.772 95.0013 114.878 94.8454 115.01C94.6766 115.152 94.5274 115.316 94.4016 115.497C94.2682 115.684 94.1696 115.893 94.1104 116.115V120.422H92.3352V113.048H93.9353V114.412C94.1904 113.945 94.5776 113.563 95.0482 113.316C95.5534 113.047 96.1182 112.912 96.6899 112.921C97.0592 112.905 97.4255 112.993 97.7474 113.175C98.0132 113.336 98.2325 113.563 98.3836 113.835C98.5389 114.125 98.6438 114.44 98.6939 114.765C98.7516 115.114 98.7806 115.467 98.7806 115.82V120.422Z" fill="black"/>
<path d="M100.899 120.422V114.746H99.8589V113.045H100.899V110.656H102.724V113.048H104.326V114.746H102.724V120.418L100.899 120.422Z" fill="black"/>
<path d="M109.475 114.68C108.975 114.681 108.483 114.793 108.032 115.01C107.624 115.207 107.299 115.544 107.119 115.961V120.422H105.345V113.048H106.977V114.625C107.095 114.381 107.242 114.151 107.414 113.942C107.575 113.749 107.757 113.574 107.956 113.42C108.136 113.278 108.334 113.161 108.546 113.073C108.728 112.996 108.923 112.956 109.121 112.953H109.34C109.386 112.953 109.433 112.958 109.478 112.967L109.475 114.68Z" fill="black"/>
<path d="M113.327 120.562C112.871 120.567 112.421 120.466 112.011 120.267C111.611 120.071 111.257 119.793 110.971 119.45C110.672 119.09 110.441 118.677 110.29 118.234C110.124 117.752 110.041 117.244 110.045 116.734C110.042 116.225 110.122 115.719 110.283 115.236C110.428 114.795 110.65 114.384 110.938 114.02C111.207 113.685 111.543 113.409 111.924 113.212C112.305 113.014 112.727 112.913 113.155 112.916C113.645 112.909 114.126 113.043 114.542 113.302C114.947 113.559 115.276 113.919 115.496 114.345V113.128H117.269V120.404H115.499V119.207C115.292 119.604 114.989 119.942 114.618 120.192C114.234 120.441 113.785 120.57 113.327 120.562ZM115.499 115.975C115.355 115.569 115.105 115.209 114.776 114.932C114.481 114.674 114.103 114.532 113.712 114.531C113.454 114.528 113.201 114.594 112.977 114.72C112.75 114.848 112.552 115.02 112.394 115.228C112.228 115.443 112.1 115.686 112.016 115.945C111.928 116.215 111.883 116.497 111.885 116.781C111.883 117.071 111.93 117.359 112.023 117.633C112.11 117.886 112.242 118.122 112.413 118.328C112.579 118.524 112.785 118.682 113.017 118.792C113.254 118.907 113.514 118.966 113.778 118.965C114.148 118.974 114.511 118.854 114.804 118.627C115.103 118.385 115.34 118.077 115.497 117.726L115.499 115.975Z" fill="black"/>
<path d="M125.266 120.562C124.748 120.57 124.234 120.467 123.758 120.26C123.321 120.068 122.929 119.788 122.607 119.436C122.285 119.083 122.035 118.67 121.872 118.22C121.699 117.756 121.612 117.264 121.613 116.769C121.61 116.263 121.695 115.761 121.865 115.285C122.026 114.836 122.273 114.422 122.593 114.068C122.917 113.712 123.311 113.426 123.751 113.231C124.232 113.019 124.754 112.913 125.28 112.921C125.801 112.912 126.319 113.018 126.795 113.231C127.227 113.427 127.614 113.71 127.934 114.061C128.251 114.415 128.494 114.828 128.648 115.278C128.811 115.739 128.894 116.224 128.893 116.713C128.893 116.835 128.893 116.953 128.893 117.061C128.89 117.155 128.879 117.25 128.86 117.342H123.493C123.513 117.61 123.581 117.873 123.692 118.117C123.792 118.333 123.931 118.529 124.101 118.694C124.434 119.01 124.875 119.186 125.334 119.186C125.685 119.186 126.03 119.091 126.332 118.912C126.624 118.753 126.852 118.497 126.974 118.187L128.496 118.637C128.233 119.211 127.807 119.694 127.272 120.027C126.67 120.398 125.972 120.584 125.266 120.562ZM127.067 116.115C127.047 115.616 126.842 115.142 126.492 114.786C125.986 114.294 125.236 114.15 124.585 114.419C124.379 114.508 124.193 114.635 124.035 114.793C123.871 114.96 123.739 115.156 123.645 115.37C123.542 115.606 123.483 115.858 123.472 116.115H127.067Z" fill="black"/>
<path d="M130.006 110.15H131.779V120.422H130.006V110.15Z" fill="black"/>
<path d="M136.174 116.734C136.17 116.235 136.256 115.74 136.425 115.271C136.584 114.821 136.832 114.407 137.153 114.055C137.477 113.702 137.868 113.42 138.304 113.224C138.783 113.011 139.303 112.906 139.826 112.915C140.51 112.895 141.184 113.076 141.766 113.436C142.287 113.768 142.702 114.242 142.964 114.802L141.23 115.365C140.814 114.606 139.878 114.306 139.1 114.682C138.879 114.79 138.683 114.944 138.524 115.132C138.354 115.337 138.224 115.573 138.141 115.827C138.045 116.117 137.997 116.421 138.001 116.727C137.997 117.033 138.046 117.338 138.146 117.627C138.234 117.884 138.367 118.122 138.538 118.331C138.695 118.523 138.891 118.679 139.114 118.788C139.329 118.896 139.567 118.951 139.807 118.952C140.119 118.953 140.425 118.865 140.688 118.698C140.935 118.555 141.131 118.339 141.251 118.079L142.985 118.64C142.742 119.21 142.33 119.692 141.806 120.02C141.216 120.389 140.53 120.575 139.835 120.556C139.311 120.563 138.792 120.458 138.313 120.246C137.876 120.049 137.483 119.764 137.16 119.409C136.84 119.051 136.591 118.635 136.427 118.183C136.256 117.72 136.17 117.229 136.174 116.734Z" fill="black"/>
<path d="M146.934 120.562C146.478 120.567 146.028 120.466 145.618 120.267C145.218 120.071 144.864 119.793 144.578 119.45C144.279 119.09 144.048 118.677 143.897 118.234C143.731 117.752 143.648 117.244 143.652 116.734C143.649 116.225 143.729 115.719 143.89 115.236C144.035 114.795 144.257 114.384 144.545 114.02C144.814 113.685 145.15 113.41 145.531 113.212C145.912 113.014 146.334 112.913 146.762 112.916C147.252 112.909 147.733 113.043 148.149 113.302C148.554 113.559 148.883 113.919 149.103 114.345V113.128H150.876V120.404H149.103V119.207C148.895 119.604 148.593 119.942 148.222 120.192C147.839 120.441 147.39 120.57 146.934 120.562ZM149.103 115.975C148.958 115.569 148.709 115.209 148.38 114.932C148.085 114.674 147.707 114.532 147.315 114.531C147.058 114.528 146.805 114.594 146.58 114.72C146.354 114.848 146.155 115.02 145.998 115.228C145.832 115.443 145.704 115.686 145.62 115.945C145.532 116.215 145.488 116.497 145.488 116.781C145.487 117.071 145.533 117.359 145.627 117.633C145.713 117.887 145.846 118.123 146.019 118.328C146.183 118.524 146.388 118.683 146.62 118.792C146.857 118.907 147.118 118.966 147.381 118.965C147.752 118.974 148.114 118.854 148.407 118.627C148.706 118.385 148.944 118.077 149.101 117.726L149.103 115.975Z" fill="black"/>
<path d="M158.927 120.422H157.153V116.284C157.153 115.693 157.056 115.262 156.862 114.989C156.68 114.724 156.376 114.57 156.054 114.581C155.868 114.583 155.684 114.622 155.512 114.694C155.323 114.772 155.148 114.879 154.992 115.01C154.824 115.152 154.675 115.316 154.55 115.497C154.416 115.684 154.318 115.893 154.258 116.115V120.422H152.481V113.048H154.082V114.412C154.337 113.945 154.724 113.563 155.194 113.316C155.7 113.047 156.264 112.912 156.836 112.921C157.205 112.905 157.572 112.993 157.894 113.175C158.159 113.336 158.379 113.563 158.53 113.835C158.685 114.125 158.79 114.44 158.84 114.765C158.898 115.114 158.927 115.467 158.927 115.82V120.422Z" fill="black"/>
<path d="M160.038 116.734C160.036 116.235 160.121 115.74 160.289 115.271C160.449 114.821 160.697 114.408 161.017 114.055C161.342 113.703 161.734 113.42 162.17 113.224C162.649 113.011 163.169 112.906 163.692 112.915C164.375 112.895 165.049 113.076 165.63 113.436C166.151 113.768 166.567 114.242 166.828 114.802L165.095 115.365C164.677 114.612 163.746 114.315 162.971 114.687C162.75 114.795 162.554 114.949 162.396 115.137C162.225 115.342 162.094 115.578 162.011 115.832C161.916 116.123 161.869 116.427 161.872 116.732C161.868 117.039 161.918 117.343 162.018 117.633C162.105 117.888 162.237 118.127 162.408 118.336C162.561 118.528 162.753 118.684 162.971 118.795C163.189 118.904 163.43 118.96 163.673 118.958C163.985 118.96 164.291 118.872 164.554 118.705C164.8 118.561 164.996 118.345 165.116 118.086L166.849 118.647C166.605 119.217 166.194 119.698 165.67 120.027C165.079 120.396 164.393 120.582 163.698 120.562C163.174 120.57 162.655 120.465 162.175 120.253C161.739 120.055 161.347 119.77 161.024 119.416C160.704 119.058 160.454 118.642 160.289 118.19C160.119 117.724 160.034 117.231 160.038 116.734Z" fill="black"/>
<path d="M171.157 120.562C170.639 120.57 170.125 120.467 169.649 120.26C169.212 120.068 168.82 119.787 168.496 119.436C168.175 119.082 167.926 118.669 167.763 118.22C167.589 117.756 167.502 117.264 167.505 116.769C167.501 116.263 167.586 115.761 167.756 115.285C167.916 114.835 168.163 114.422 168.484 114.068C168.808 113.712 169.202 113.426 169.642 113.231C170.124 113.019 170.645 112.913 171.171 112.921C171.693 112.912 172.21 113.018 172.686 113.231C173.118 113.427 173.506 113.71 173.825 114.061C174.142 114.415 174.384 114.829 174.539 115.278C174.702 115.739 174.785 116.224 174.784 116.713C174.784 116.835 174.784 116.953 174.784 117.061C174.782 117.155 174.771 117.25 174.751 117.342H169.385C169.405 117.61 169.472 117.873 169.583 118.117C169.684 118.333 169.823 118.529 169.994 118.694C170.158 118.852 170.351 118.976 170.563 119.059C170.773 119.144 170.998 119.187 171.225 119.186C171.577 119.186 171.922 119.091 172.225 118.911C172.517 118.753 172.744 118.496 172.866 118.187L174.389 118.637C174.125 119.21 173.699 119.694 173.165 120.027C172.562 120.398 171.864 120.584 171.157 120.562ZM172.958 116.115C172.937 115.616 172.732 115.142 172.381 114.786C172.054 114.457 171.607 114.277 171.143 114.286C170.914 114.284 170.687 114.33 170.476 114.419C170.271 114.508 170.084 114.635 169.926 114.793C169.762 114.96 169.63 115.155 169.536 115.37C169.433 115.606 169.375 115.858 169.363 116.115H172.958Z" fill="black"/>
<path d="M180 114.68C179.5 114.68 179.007 114.793 178.556 115.01C178.147 115.207 177.823 115.544 177.642 115.961V120.422H175.869V113.048H177.497V114.625C177.725 114.148 178.061 113.732 178.478 113.408C178.657 113.266 178.855 113.149 179.066 113.061C179.248 112.984 179.443 112.943 179.641 112.941H179.86C179.907 112.941 179.954 112.945 180 112.955V114.68Z" fill="black"/>
<path d="M80.0649 105.427C79.5459 105.434 79.0312 105.331 78.5549 105.124C78.1187 104.932 77.7268 104.652 77.4039 104.301C77.0819 103.947 76.8322 103.534 76.6688 103.084C76.4962 102.621 76.4087 102.13 76.4105 101.635C76.4078 101.129 76.4928 100.627 76.6619 100.151C76.8225 99.6987 77.0698 99.2825 77.39 98.9257C77.7146 98.5698 78.1088 98.2847 78.548 98.0881C79.0299 97.8769 79.5512 97.7714 80.077 97.7788C80.599 97.7705 81.1166 97.8761 81.5939 98.0881C82.0253 98.2847 82.4122 98.5673 82.7311 98.9187C83.0478 99.2724 83.2906 99.686 83.4453 100.135C83.6098 100.596 83.6931 101.081 83.6915 101.571C83.6915 101.694 83.6915 101.81 83.6915 101.918C83.6888 102.013 83.6778 102.107 83.6586 102.2H78.2914C78.3114 102.467 78.3783 102.729 78.4891 102.973C78.5859 103.191 78.723 103.388 78.893 103.555C79.0572 103.713 79.2503 103.837 79.4616 103.922C79.6724 104.006 79.8971 104.049 80.1238 104.049C80.4752 104.049 80.8202 103.954 81.1224 103.774C81.4143 103.615 81.6418 103.359 81.7655 103.049L83.2876 103.499C83.0246 104.074 82.5982 104.557 82.062 104.89C81.4625 105.26 80.7685 105.446 80.0649 105.427ZM81.8643 100.98C81.844 100.48 81.6388 100.006 81.2888 99.6503C80.9606 99.3229 80.514 99.1429 80.051 99.1516C79.8211 99.1494 79.5933 99.195 79.3819 99.2854C79.1769 99.3725 78.9908 99.4988 78.8341 99.6573C78.67 99.8245 78.5373 100.02 78.4423 100.234C78.3405 100.47 78.2818 100.723 78.2689 100.98H81.8643Z" fill="black"/>
<path d="M87.398 105.427C86.8162 105.426 86.2386 105.327 85.6904 105.131C85.161 104.951 84.6742 104.663 84.2603 104.287L84.9225 103.105C85.3019 103.399 85.718 103.643 86.1602 103.83C86.5395 103.99 86.9465 104.074 87.3581 104.076C87.6511 104.092 87.9419 104.018 88.192 103.864C88.3908 103.729 88.5056 103.5 88.4954 103.26C88.5054 103.012 88.3639 102.783 88.1382 102.683C87.7623 102.51 87.3726 102.368 86.9733 102.26C86.5243 102.13 86.1394 102.003 85.8222 101.882C85.5471 101.782 85.2882 101.642 85.0542 101.466C84.8714 101.325 84.7261 101.142 84.6312 100.931C84.5378 100.701 84.4929 100.454 84.4995 100.206C84.4938 99.8577 84.5636 99.5121 84.704 99.1932C84.8364 98.8979 85.0331 98.636 85.2796 98.4268C85.5346 98.2103 85.8289 98.0451 86.1464 97.9403C86.494 97.824 86.8582 97.7653 87.2246 97.7665C87.7224 97.7626 88.2172 97.8437 88.6878 98.0063C89.1544 98.1733 89.5808 98.4368 89.9394 98.7796L89.2235 99.9196C88.9145 99.6635 88.5692 99.455 88.1989 99.3009C87.886 99.1739 87.5518 99.1078 87.2142 99.1063C86.949 99.0969 86.6867 99.1658 86.4601 99.3044C86.2518 99.4444 86.1351 99.6863 86.155 99.937C86.1504 100.049 86.1755 100.161 86.2279 100.26C86.2849 100.354 86.3648 100.432 86.4601 100.486C86.5892 100.561 86.7258 100.623 86.8675 100.67C87.0409 100.731 87.2541 100.795 87.509 100.861C87.9857 100.992 88.3948 101.124 88.7346 101.254C89.0326 101.363 89.3135 101.515 89.5684 101.704C89.7708 101.859 89.9342 102.059 90.0452 102.288C90.1516 102.54 90.203 102.811 90.196 103.084C90.2254 103.741 89.9463 104.374 89.4419 104.794C88.9438 105.216 88.2625 105.427 87.398 105.427Z" fill="black"/>
<path d="M95.5111 105.427C95.0075 105.439 94.5113 105.304 94.0826 105.039C93.6769 104.784 93.3474 104.424 93.1292 103.996V108.289H91.3557V97.9125H92.9038V99.1793C93.1457 98.7622 93.487 98.4117 93.8971 98.1593C94.3206 97.9057 94.8064 97.7762 95.2996 97.7856C95.7497 97.7815 96.1943 97.8851 96.5963 98.088C96.9904 98.2871 97.3397 98.5651 97.6226 98.9048C97.919 99.2659 98.1475 99.6781 98.2969 100.121C98.4626 100.594 98.5459 101.092 98.5431 101.593C98.5461 102.103 98.47 102.611 98.3177 103.098C98.1805 103.537 97.9675 103.949 97.6884 104.314C97.4309 104.652 97.104 104.931 96.7298 105.131C96.3541 105.329 95.9354 105.43 95.5111 105.427ZM94.9165 103.823C95.1716 103.827 95.4238 103.768 95.6498 103.649C95.8749 103.527 96.0716 103.359 96.227 103.155C96.3904 102.939 96.5153 102.696 96.5963 102.438C96.6851 102.166 96.7302 101.881 96.7298 101.595C96.733 101.299 96.6837 101.005 96.5842 100.726C96.4938 100.471 96.3568 100.235 96.1802 100.031C96.0112 99.836 95.8041 99.6781 95.5718 99.5668C95.334 99.4514 95.0731 99.392 94.809 99.393C94.6317 99.3942 94.4559 99.4254 94.2889 99.4852C94.1128 99.5458 93.9472 99.6337 93.7983 99.7458C93.648 99.8594 93.5123 99.9914 93.3944 100.139C93.2771 100.287 93.1856 100.453 93.124 100.632V102.37C93.2719 102.775 93.5229 103.134 93.8521 103.413C94.1451 103.675 94.5236 103.821 94.9165 103.823Z" fill="black"/>
<path d="M102.607 105.426C102.151 105.431 101.7 105.33 101.289 105.131C100.888 104.936 100.534 104.657 100.249 104.314C99.9492 103.954 99.7177 103.542 99.5659 103.098C99.4001 102.616 99.3174 102.11 99.3214 101.6C99.3173 101.09 99.3981 100.583 99.5607 100.1C99.7044 99.6589 99.9257 99.2469 100.214 98.8838C100.484 98.5487 100.82 98.273 101.201 98.074C101.581 97.8772 102.003 97.7759 102.431 97.7786C102.921 97.7713 103.403 97.9058 103.818 98.1661C104.223 98.4221 104.552 98.7821 104.772 99.2088V97.9924H106.545V105.267H104.777V104.071C104.57 104.468 104.267 104.806 103.896 105.056C103.513 105.305 103.064 105.434 102.607 105.426ZM104.777 100.844C104.633 100.438 104.384 100.078 104.056 99.8014C103.76 99.5436 103.382 99.4012 102.99 99.3999C102.732 99.3983 102.479 99.4642 102.255 99.5911C102.029 99.7196 101.831 99.8914 101.672 100.097C101.507 100.313 101.38 100.556 101.296 100.814C101.207 101.085 101.162 101.367 101.162 101.652C101.161 101.942 101.208 102.23 101.303 102.504C101.388 102.758 101.52 102.994 101.693 103.199C101.859 103.394 102.064 103.552 102.295 103.663C102.532 103.778 102.792 103.837 103.056 103.836C103.426 103.845 103.788 103.726 104.082 103.499C104.38 103.257 104.618 102.948 104.775 102.597L104.777 100.844Z" fill="black"/>
<path d="M114.605 105.286H112.824V101.148C112.824 100.557 112.727 100.126 112.533 99.8553C112.352 99.5891 112.047 99.4349 111.725 99.4469C111.539 99.4486 111.354 99.4869 111.183 99.5599C110.994 99.6379 110.819 99.7446 110.663 99.8761C110.494 100.017 110.345 100.18 110.219 100.361C110.087 100.549 109.989 100.758 109.928 100.98V105.286H108.152V97.9125H109.751V99.2801C110.005 98.8119 110.391 98.4297 110.862 98.1818C111.367 97.9143 111.932 97.7786 112.504 97.7874C112.873 97.7721 113.24 97.8599 113.563 98.0411C113.829 98.2016 114.048 98.4301 114.197 98.7032C114.354 98.992 114.46 99.306 114.509 99.6311C114.566 99.9798 114.595 100.333 114.594 100.686L114.605 105.286ZM112.368 96.8159C112.19 96.819 112.013 96.7853 111.848 96.7169C111.699 96.6554 111.554 96.5827 111.415 96.4997C111.287 96.4215 111.158 96.3485 111.032 96.2825C110.907 96.2171 110.769 96.1831 110.628 96.1834C110.505 96.1771 110.383 96.2119 110.281 96.2825C110.202 96.3427 110.137 96.4191 110.09 96.5066C110.05 96.5787 110.023 96.6576 110.011 96.7395C110.002 96.809 109.997 96.849 109.997 96.8594H109.017C109.028 96.7137 109.054 96.5697 109.097 96.4302C109.155 96.2176 109.242 96.0141 109.355 95.8254C109.479 95.6184 109.641 95.4368 109.832 95.2902C110.044 95.131 110.303 95.0488 110.567 95.0573C110.746 95.0534 110.924 95.0896 111.087 95.1633C111.228 95.2316 111.365 95.307 111.498 95.3892C111.626 95.4692 111.753 95.5439 111.881 95.6134C112.013 95.6855 112.161 95.722 112.311 95.7194C112.444 95.7267 112.577 95.6921 112.689 95.6204C112.775 95.5625 112.848 95.4859 112.901 95.3962C112.945 95.322 112.977 95.241 112.994 95.1564C113.003 95.1098 113.009 95.0628 113.013 95.0156H113.993C113.98 95.1496 113.953 95.2818 113.913 95.4101C113.853 95.624 113.762 95.8278 113.643 96.0148C113.508 96.2277 113.338 96.4158 113.14 96.5709C112.916 96.7402 112.641 96.8268 112.361 96.8159H112.368Z" fill="black"/>
<path d="M119.349 105.427C118.825 105.435 118.306 105.33 117.827 105.117C117.391 104.921 117.002 104.636 116.683 104.28C116.367 103.924 116.122 103.511 115.962 103.063C115.627 102.121 115.627 101.092 115.962 100.151C116.122 99.7026 116.367 99.2896 116.683 98.9343C117.002 98.5783 117.392 98.2931 117.827 98.0967C118.306 97.885 118.826 97.7795 119.349 97.7873C119.871 97.7789 120.389 97.8845 120.866 98.0967C121.299 98.2941 121.686 98.5793 122.003 98.9343C122.319 99.2896 122.564 99.7026 122.724 100.151C123.062 101.092 123.062 102.122 122.724 103.063C122.565 103.51 122.322 103.923 122.01 104.28C121.695 104.637 121.306 104.923 120.871 105.117C120.392 105.33 119.873 105.435 119.349 105.427ZM117.536 101.614C117.532 101.917 117.579 102.219 117.676 102.507C117.761 102.76 117.891 102.996 118.059 103.202C118.217 103.394 118.413 103.55 118.635 103.659C119.087 103.875 119.613 103.875 120.065 103.659C120.287 103.55 120.484 103.394 120.641 103.202C120.81 102.993 120.94 102.754 121.024 102.498C121.12 102.208 121.167 101.904 121.163 101.598C121.166 101.297 121.119 100.998 121.024 100.712C120.941 100.456 120.811 100.217 120.641 100.008C120.484 99.8158 120.288 99.6593 120.065 99.5494C119.842 99.4413 119.597 99.386 119.349 99.3878C119.101 99.3875 118.856 99.4471 118.635 99.5616C118.413 99.6742 118.217 99.8322 118.059 100.026C117.889 100.234 117.759 100.473 117.676 100.729C117.581 101.014 117.533 101.313 117.536 101.614Z" fill="black"/>
<path d="M124.195 95.0139H125.968V105.286H124.195V95.0139Z" fill="black"/>
<path d="M130.482 105.426C130.026 105.431 129.576 105.33 129.165 105.131C128.764 104.936 128.41 104.657 128.125 104.314C127.826 103.953 127.595 103.541 127.444 103.098C127.278 102.616 127.195 102.11 127.199 101.6C127.195 101.09 127.276 100.584 127.437 100.1C127.582 99.6591 127.803 99.2473 128.092 98.8838C128.362 98.5487 128.697 98.273 129.078 98.074C129.459 97.8772 129.881 97.7759 130.309 97.7786C130.799 97.7713 131.281 97.9058 131.696 98.1661C132.101 98.4221 132.43 98.7821 132.649 99.2088V97.9924H134.423V105.267H132.653V104.071C132.446 104.468 132.143 104.806 131.772 105.056C131.389 105.305 130.94 105.434 130.482 105.426ZM132.653 100.844C132.509 100.439 132.26 100.079 131.932 99.8014C131.636 99.5436 131.258 99.4012 130.866 99.3999C130.608 99.3983 130.355 99.4642 130.131 99.5911C129.904 99.7186 129.706 99.8906 129.548 100.097C129.382 100.312 129.255 100.555 129.172 100.814C129.083 101.085 129.038 101.367 129.038 101.652C129.037 101.942 129.084 102.23 129.179 102.504C129.264 102.758 129.396 102.994 129.569 103.199C129.734 103.394 129.94 103.552 130.17 103.663C130.408 103.778 130.668 103.837 130.931 103.836C131.302 103.845 131.664 103.726 131.958 103.499C132.256 103.257 132.494 102.948 132.651 102.597L132.653 100.844Z" fill="black"/>
<path d="M79.7078 90.2717C79.2518 90.2762 78.8009 90.1751 78.3903 89.9763C77.9902 89.7804 77.6358 89.502 77.3502 89.1595C77.0512 88.7989 76.8203 88.3867 76.6689 87.9431C76.503 87.4614 76.4203 86.9548 76.4245 86.4451C76.4206 85.9361 76.5008 85.4299 76.662 84.9472C76.8075 84.5063 77.0293 84.0946 77.3173 83.7308C77.5867 83.3959 77.9226 83.1207 78.3037 82.9227C78.6838 82.7251 79.1063 82.6237 79.5345 82.6273C80.0242 82.6193 80.5058 82.7533 80.9213 83.0131C81.3258 83.2697 81.6548 83.6296 81.8748 84.0557V82.8393H83.6482V90.1153H81.8783V88.918C81.671 89.3147 81.3683 89.6533 80.9976 89.9033C80.6137 90.1518 80.1647 90.28 79.7078 90.2717ZM81.8783 85.684C81.7346 85.2784 81.4856 84.9185 81.1571 84.6414C80.8613 84.3836 80.4829 84.2412 80.091 84.2399C79.8337 84.2377 79.5802 84.303 79.3559 84.4293C79.1293 84.5569 78.9311 84.7296 78.7735 84.9368C78.6073 85.1522 78.48 85.3951 78.3973 85.6545C78.3081 85.924 78.263 86.2063 78.2637 86.4903C78.2623 86.7799 78.3092 87.0677 78.4025 87.3418C78.4886 87.596 78.6215 87.8318 78.7943 88.0369C78.9584 88.2353 79.1636 88.3954 79.3958 88.5061C79.633 88.6213 79.8933 88.6807 80.1568 88.6799C80.5287 88.686 80.8912 88.5633 81.1831 88.3324C81.4817 88.0912 81.7193 87.7828 81.8765 87.4322L81.8783 85.684Z" fill="black"/>
<path d="M87.8748 90.2715C87.293 90.2714 86.7154 90.1715 86.1672 89.9761C85.6384 89.7944 85.1519 89.5071 84.7371 89.1315L85.3993 87.9498C85.7796 88.243 86.1955 88.4865 86.637 88.6745C87.0166 88.8335 87.4235 88.9167 87.8349 88.9195C88.1277 88.9355 88.4184 88.8622 88.6688 88.7092C88.8676 88.574 88.9824 88.3452 88.9722 88.1045C88.9822 87.857 88.8407 87.6284 88.615 87.5276C88.2391 87.3546 87.8494 87.2133 87.4501 87.1053C87.0011 86.9732 86.6162 86.8464 86.299 86.7247C86.0236 86.6259 85.7647 86.4859 85.531 86.3094C85.3483 86.1692 85.203 85.986 85.108 85.7759C85.0141 85.5462 84.9687 85.2995 84.9746 85.0513C84.9692 84.7026 85.0396 84.3569 85.1809 84.0381C85.3137 83.7426 85.5102 83.4803 85.7564 83.2701C86.012 83.0547 86.3061 82.8901 86.6232 82.7852C86.9706 82.6681 87.3349 82.6094 87.7015 82.6114C88.199 82.6078 88.6937 82.6883 89.1646 82.8495C89.6313 83.0172 90.0577 83.2812 90.4162 83.6246L89.7003 84.7645C89.3906 84.5089 89.0455 84.2999 88.6757 84.1441C88.3622 84.017 88.0275 83.9504 87.6893 83.9478C87.4237 83.9387 87.1612 84.0069 86.9335 84.1441C86.7252 84.2849 86.6092 84.5275 86.6301 84.7784C86.6259 84.8907 86.651 85.0021 86.7029 85.1017C86.7599 85.1945 86.8391 85.2716 86.9335 85.3258C87.0658 85.4038 87.2058 85.4678 87.3513 85.517C87.5246 85.5778 87.7379 85.6404 87.9927 85.7064C88.4694 85.8385 88.8785 85.9688 89.2183 86.1009C89.5165 86.2097 89.7974 86.3613 90.0522 86.5509C90.2553 86.7046 90.4188 86.9048 90.5289 87.1348C90.6354 87.3856 90.6869 87.6565 90.6797 87.929C90.7091 88.5859 90.4301 89.2187 89.9256 89.6389C89.4229 90.0618 88.7393 90.2727 87.8748 90.2715Z" fill="black"/>
<path d="M95.0343 90.2716C94.5107 90.2794 93.9915 90.1739 93.5123 89.9623C93.0769 89.7659 92.6872 89.4806 92.3681 89.1247C92.0521 88.7694 91.8072 88.3564 91.647 87.9082C91.4782 87.4439 91.3931 86.9532 91.3956 86.4589C91.3924 85.9602 91.4775 85.4647 91.647 84.9958C91.8071 84.5476 92.0519 84.1345 92.3681 83.7793C92.6868 83.4229 93.0766 83.1375 93.5123 82.9417C93.9913 82.7294 94.5106 82.6238 95.0343 82.6324C95.5564 82.6231 96.0742 82.7287 96.5512 82.9417C96.9843 83.1386 97.3716 83.4238 97.6884 83.7793C98.0046 84.1345 98.2495 84.5476 98.4096 84.9958C98.5791 85.4647 98.6642 85.9602 98.661 86.4589C98.6635 86.9532 98.5784 87.4439 98.4096 87.9082C98.2498 88.355 98.0075 88.7677 97.6954 89.1247C97.3792 89.4816 96.991 89.7671 96.5564 89.9623C96.0772 90.1739 95.558 90.2794 95.0343 90.2716ZM93.221 86.4572C93.2173 86.7606 93.2641 87.0625 93.3597 87.3504C93.4455 87.6033 93.5759 87.8387 93.7446 88.0455C93.9013 88.2392 94.0983 88.3964 94.3219 88.506C94.7738 88.7238 95.3001 88.7238 95.752 88.506C95.9746 88.3972 96.171 88.2413 96.3276 88.049C96.4976 87.8402 96.6276 87.6016 96.7107 87.3452C96.8067 87.055 96.8536 86.7508 96.8494 86.445C96.8527 86.144 96.8058 85.8444 96.7107 85.5588C96.6272 85.3026 96.4973 85.064 96.3276 84.855C96.1705 84.6632 95.9742 84.5074 95.752 84.398C95.5289 84.2898 95.2839 84.2345 95.0361 84.2363C94.7875 84.236 94.5426 84.2956 94.3219 84.4101C94.1004 84.5238 93.9046 84.6817 93.7463 84.8741C93.5771 85.0838 93.4468 85.3222 93.3615 85.5779C93.2674 85.8614 93.22 86.1584 93.221 86.4572Z" fill="black"/>
<path d="M99.415 86.4432C99.4124 85.9443 99.4981 85.4489 99.6681 84.98C99.9916 84.0733 100.67 83.3383 101.547 82.9451C102.026 82.7324 102.546 82.6268 103.069 82.6357C103.753 82.616 104.427 82.7972 105.009 83.1571C105.529 83.4895 105.944 83.9632 106.205 84.5229L104.472 85.086C104.055 84.3271 103.12 84.0271 102.341 84.403C102.12 84.511 101.924 84.6644 101.766 84.8531C101.595 85.0587 101.465 85.2945 101.381 85.5482C101.286 85.8386 101.239 86.1427 101.242 86.4484C101.238 86.7546 101.288 87.0592 101.388 87.3485C101.475 87.6044 101.607 87.8426 101.778 88.0523C101.935 88.2447 102.132 88.4006 102.355 88.5094C102.571 88.6167 102.808 88.6726 103.049 88.6727C103.36 88.6742 103.666 88.5862 103.929 88.419C104.175 88.2749 104.372 88.0591 104.493 87.8004L106.226 88.3616C105.982 88.9311 105.571 89.4124 105.047 89.7414C104.457 90.1102 103.771 90.2963 103.076 90.2767C102.553 90.2845 102.033 90.179 101.554 89.9673C101.117 89.7697 100.725 89.4847 100.401 89.1297C100.081 88.772 99.8322 88.3562 99.6681 87.9046C99.4961 87.4369 99.4103 86.9417 99.415 86.4432Z" fill="black"/>
<path d="M107.323 81.7287V79.8589H109.092V81.7287H107.323ZM107.323 90.1308V82.7575H109.092V90.1308H107.323Z" fill="black"/>
<path d="M113.552 90.2714C113.096 90.2758 112.646 90.1747 112.235 89.976C111.835 89.7798 111.481 89.5015 111.195 89.1592C110.896 88.7987 110.665 88.3864 110.513 87.9428C110.347 87.4613 110.264 86.9546 110.269 86.4449C110.264 85.9358 110.345 85.4295 110.507 84.9469C110.652 84.506 110.874 84.0943 111.162 83.7305C111.431 83.3952 111.767 83.1199 112.148 82.9224C112.528 82.7246 112.951 82.6232 113.379 82.627C113.869 82.6195 114.35 82.7535 114.766 83.0128C115.17 83.269 115.499 83.629 115.718 84.0554V82.839H117.491V90.115H115.723V88.9177C115.517 89.3147 115.214 89.6535 114.844 89.903C114.459 90.1512 114.01 90.2795 113.552 90.2714ZM115.723 85.6837C115.58 85.2775 115.331 84.9173 115.002 84.6411C114.706 84.3837 114.329 84.2413 113.937 84.2396C113.68 84.2374 113.427 84.3027 113.202 84.4291C112.976 84.5566 112.777 84.7293 112.62 84.9365C112.454 85.1523 112.326 85.395 112.242 85.6542C112.153 85.9239 112.109 86.2061 112.11 86.49C112.109 86.7796 112.155 87.0675 112.249 87.3415C112.334 87.5957 112.467 87.8314 112.639 88.0366C112.804 88.2328 113.01 88.391 113.242 88.5006C113.479 88.6158 113.74 88.6752 114.003 88.6744C114.374 88.6808 114.737 88.558 115.028 88.3269C115.327 88.0859 115.564 87.7775 115.721 87.4267L115.723 85.6837Z" fill="black"/>
<path d="M118.661 86.4432C118.659 85.9445 118.744 85.4492 118.913 84.98C119.072 84.5302 119.32 84.1167 119.641 83.7635C119.966 83.4161 120.358 83.1378 120.793 82.9451C121.272 82.7324 121.792 82.6269 122.315 82.6357C122.998 82.616 123.672 82.7972 124.254 83.1571C124.774 83.4889 125.19 83.9628 125.452 84.5229L123.718 85.086C123.302 84.3271 122.366 84.0271 121.587 84.403C121.366 84.5104 121.17 84.6638 121.012 84.8531C120.841 85.0583 120.71 85.2942 120.627 85.5482C120.532 85.8387 120.485 86.1427 120.488 86.4484C120.485 86.7546 120.534 87.0592 120.634 87.3485C120.722 87.6044 120.854 87.8426 121.024 88.0523C121.181 88.2446 121.377 88.4005 121.6 88.5094C121.815 88.6167 122.052 88.6726 122.293 88.6727C122.605 88.6739 122.91 88.5859 123.174 88.419C123.42 88.2755 123.616 88.0595 123.735 87.8004L125.469 88.3617C125.225 88.9311 124.814 89.4124 124.29 89.7414C123.699 90.1101 123.013 90.2963 122.317 90.2767C121.794 90.2845 121.274 90.179 120.795 89.9674C120.359 89.7697 119.967 89.4847 119.644 89.1297C119.323 88.7721 119.074 88.3563 118.909 87.9046C118.74 87.4363 118.656 86.9413 118.661 86.4432Z" fill="black"/>
<path d="M126.299 81.7287V79.8589H128.073V81.7287H126.299ZM126.299 90.1308V82.7575H128.073V90.1308H126.299Z" fill="black"/>
<path d="M132.878 90.2715C132.354 90.2793 131.835 90.1738 131.356 89.9622C130.92 89.7658 130.53 89.4805 130.21 89.1246C129.895 88.7688 129.65 88.3559 129.489 87.9081C129.32 87.4438 129.235 86.9531 129.238 86.4588C129.234 85.96 129.32 85.4646 129.489 84.9956C129.65 84.5478 129.895 84.1349 130.21 83.7792C130.529 83.4228 130.92 83.1374 131.356 82.9416C131.835 82.729 132.354 82.6234 132.878 82.6323C133.4 82.6232 133.917 82.7288 134.393 82.9416C134.827 83.1389 135.214 83.4241 135.532 83.7792C135.847 84.1353 136.092 84.5481 136.253 84.9956C136.422 85.4649 136.507 85.9601 136.505 86.4588C136.506 86.953 136.421 87.4436 136.253 87.9081C136.093 88.355 135.85 88.7677 135.537 89.1246C135.222 89.4811 134.834 89.7665 134.4 89.9622C133.921 90.1738 133.402 90.2793 132.878 90.2715ZM131.073 86.4571C131.069 86.7606 131.116 87.0626 131.212 87.3503C131.297 87.6034 131.427 87.839 131.595 88.0454C131.752 88.2377 131.948 88.3936 132.171 88.5024C132.623 88.7203 133.149 88.7203 133.601 88.5024C133.824 88.3936 134.02 88.2377 134.177 88.0454C134.347 87.8363 134.477 87.5978 134.561 87.3416C134.657 87.0513 134.704 86.7471 134.7 86.4415C134.703 86.1404 134.656 85.841 134.561 85.5552C134.477 85.2992 134.346 85.0608 134.177 84.8514C134.019 84.6596 133.823 84.5038 133.601 84.3944C133.378 84.2863 133.134 84.231 132.887 84.2327C132.638 84.2326 132.392 84.2922 132.171 84.4065C131.949 84.5202 131.754 84.6781 131.595 84.8705C131.426 85.0798 131.296 85.3183 131.212 85.5743C131.117 85.8589 131.071 86.1572 131.073 86.4571ZM133.327 81.9024L132.19 81.5358L132.904 79.8623H134.558L133.327 81.9024Z" fill="black"/>
<path d="M144.141 90.1307H142.368V85.9931C142.368 85.4023 142.271 84.9707 142.077 84.6985C141.895 84.4328 141.59 84.2787 141.269 84.2901C141.082 84.2926 140.898 84.3309 140.726 84.403C140.538 84.4811 140.362 84.5878 140.206 84.7193C140.038 84.8616 139.889 85.0251 139.762 85.2059C139.63 85.3937 139.532 85.603 139.471 85.8245V90.1307H137.696V82.7574H139.298V84.1215C139.552 83.6538 139.938 83.2721 140.409 83.025C140.914 82.7567 141.479 82.621 142.051 82.6305C142.42 82.6145 142.787 82.7023 143.11 82.8842C143.376 83.0446 143.594 83.2724 143.744 83.5446C143.901 83.8337 144.006 84.1476 144.056 84.4726C144.113 84.8218 144.142 85.1752 144.141 85.5291V90.1307Z" fill="black"/>
</g>
<defs>
<clipPath id="clip0_604:56">
<rect width="160" height="50.2786" fill="white" transform="translate(20 75)"/>
</clipPath>
</defs>
</svg>
