<svg width="200" height="200" viewBox="0 0 200 200" fill="none" xmlns="http://www.w3.org/2000/svg">
<rect width="200" height="200" fill="white"/>
<path d="M9.12728 76.9879V88.7677H9.22627C10.8101 86.5899 12.7899 85.6 15.4626 85.6C20.4121 85.6 22.7879 88.9657 22.7879 93.9152V106.091H15.8586V95.895C15.8586 93.6182 15.5616 91.1435 12.6909 91.1435C9.9192 91.1435 9.02829 93.5192 9.02829 95.895V106.091H2.099V76.9879H9.12728Z" fill="black"/>
<path d="M39.9132 93.2222C39.6162 91.3414 37.8344 90.0545 35.9536 90.0545C33.9738 90.0545 32.2909 91.1434 31.796 93.2222H39.9132ZM46.4465 97.2808H31.796C31.796 100.151 33.2808 101.735 36.1516 101.735C37.6364 101.735 38.7253 101.24 39.5172 99.9535H46.2485C45.1596 104.606 40.7051 106.784 36.2505 106.784C29.7172 106.784 24.8667 103.022 24.8667 96.1919C24.8667 89.5596 29.3212 85.6 35.7556 85.6C42.5859 85.6 46.4465 89.8565 46.4465 96.5879V97.2808Z" fill="black"/>
<path d="M48.4263 106.091H55.3556V76.9879H48.4263V106.091" fill="black"/>
<path d="M68.6202 96.3899L73.2727 86.194H81.0929L70.8969 106.091H66.3434L56.0485 86.194H63.8687L68.6202 96.3899Z" fill="black"/>
<path d="M94.4566 93.2222C94.1596 91.3414 92.3778 90.0545 90.497 90.0545C88.5172 90.0545 86.8344 91.1434 86.3394 93.2222H94.4566ZM100.891 97.2808H86.2404C86.2404 100.151 87.7253 101.735 90.596 101.735C92.0809 101.735 93.1697 101.24 93.9617 99.9535H100.693C99.6041 104.606 95.1495 106.784 90.695 106.784C84.1617 106.784 79.3112 103.022 79.3112 96.1919C79.3112 89.5596 83.7657 85.6 90.2 85.6C97.0303 85.6 100.891 89.8565 100.891 96.5879V97.2808Z" fill="black"/>
<path d="M111.186 106.091H104.257V92.0343H101.98V86.1939H104.257V80.2545H111.186V86.1939H115.145V92.0343H111.186V106.091" fill="black"/>
<path d="M123.362 106.091H116.432V86.1939H123.362V106.091ZM123.857 79.9575C123.857 82.1353 122.075 83.9171 119.996 83.9171C117.818 83.9171 116.135 82.1353 116.135 79.9575C116.135 77.7797 117.917 75.9979 119.996 75.9979C122.075 75.9979 123.857 77.7797 123.857 79.9575Z" fill="black"/>
<path d="M132.568 96.1919C132.568 98.6666 134.251 100.646 137.022 100.646C139.893 100.646 141.477 98.6666 141.477 96.1919C141.477 93.7171 139.794 91.7373 137.022 91.7373C134.251 91.6384 132.568 93.7171 132.568 96.1919ZM148.307 106.091H141.378V103.913H141.279C140.091 105.893 137.616 106.784 135.339 106.784C129.499 106.784 125.44 101.834 125.44 96.1919C125.44 90.5495 129.499 85.6 135.24 85.6C137.517 85.6 139.893 86.4909 141.279 88.1737V86.1939H148.208V106.091" fill="black"/>
<path d="M165.036 99.2607L172.857 97.1819L174.539 93.2223L171.075 85.1051L170.283 87.0849L165.036 99.2607Z" fill="black"/>
<path d="M182.558 73.8202L179.291 66.396L171.372 68.1778L174.539 75.701L182.558 73.8202Z" fill="black"/>
<path d="M170.481 83.9172L170.58 83.6203L173.747 76.295L170.58 69.1677L158.206 98.4687L163.848 99.4586L170.481 83.9172Z" fill="black"/>
<path d="M173.747 76.295L173.55 75.899L170.679 69.0687L170.58 69.1677L173.747 76.295Z" fill="black"/>
<path d="M173.055 98.2708L166.62 99.8546L178.103 101.933L176.915 98.9637L173.055 98.2708Z" fill="black"/>
<path d="M163.947 100.548L161.77 100.152H161.869L157.711 99.3596L155.137 105.695L181.865 110.545L178.697 103.121L163.947 100.548Z" fill="black"/>
<path d="M161.968 100.053L157.711 99.3596L161.869 100.152L161.968 100.053Z" fill="black"/>
<path d="M161.869 100.151H161.77L163.947 100.547L163.848 100.448L161.869 100.151Z" fill="black"/>
<path d="M164.442 100.547L164.145 100.448L163.948 100.547L178.697 103.121V103.022L164.442 100.547Z" fill="black"/>
<path d="M163.948 100.547L164.145 100.448H163.849L163.948 100.547Z" fill="black"/>
<path d="M163.848 100.448L161.968 100.052L161.869 100.151L163.848 100.448Z" fill="black"/>
<path d="M164.146 100.448L164.442 100.547L164.146 100.448Z" fill="black"/>
<path d="M174.935 76.6909L176.915 81.2444L190.081 111.931L197.901 109.655L182.953 74.8101L178.994 75.701L174.935 76.6909Z" fill="black"/>
<path d="M178.994 75.701L182.953 74.8101L178.994 75.701Z" fill="black"/>
<path d="M171.669 83.8182L175.628 93.1232V93.2222L179.489 102.131L180.974 105.695L183.152 110.743L188.992 111.832L180.182 91.2424L174.242 77.6808L171.669 83.8182Z" fill="black"/>
<path d="M175.628 93.2223V93.1233L171.669 83.8182L171.57 83.9172L175.628 93.2223Z" fill="black"/>
<path d="M174.242 77.6808V77.5818L171.57 83.7192L171.669 83.8182L174.242 77.6808Z" fill="black"/>
<path d="M171.57 83.9172L171.669 83.8182L171.57 83.7192V83.8182V83.9172Z" fill="black"/>
<path d="M179.489 102.131L180.974 105.695L179.489 102.131Z" fill="black"/>
<path d="M188.992 111.832L180.182 91.2424L188.992 111.832Z" fill="black"/>
<path d="M50.4949 130.657H51.5305V121.946H50.4949V130.657Z" fill="black"/>
<path d="M53.5381 130.657H54.4641V127.843C54.4641 127.246 54.4641 126.795 54.7808 126.405C55.0854 126.027 55.5606 125.82 56.1088 125.82C57.0835 125.82 57.5587 126.356 57.5587 127.453V130.657H58.4846V126.953C58.4846 125.723 57.7049 125.016 56.4378 125.016C55.585 125.016 54.9271 125.345 54.4519 126.052V121.434H53.5381V130.657Z" fill="black"/>
<path d="M60.3321 130.657H61.258V128.001C61.258 126.576 61.7454 125.869 62.7322 125.869C62.9028 125.869 63.0977 125.906 63.3048 125.979L63.6216 125.138C63.4145 125.065 63.2074 125.028 62.9881 125.028C62.1596 125.028 61.6479 125.418 61.1606 126.344V125.211H60.3321V130.657Z" fill="black"/>
<path d="M69.4524 128.074V127.892C69.4524 126.088 68.429 125.004 66.833 125.004C65.2491 125.004 64.1161 126.198 64.1161 127.916C64.1161 129.695 65.2369 130.889 66.8939 130.889C68.0148 130.889 68.8676 130.389 69.4158 129.402L68.7092 128.927C68.2584 129.719 67.6736 130.109 66.9426 130.109C65.8948 130.109 65.1395 129.341 65.1395 128.16V128.074H69.4524ZM68.4534 127.319H65.1395C65.2369 126.393 65.907 125.82 66.7964 125.82C67.7833 125.82 68.3924 126.356 68.4534 127.319Z" fill="black"/>
<path d="M77.7078 125.82L76.4651 125.272C75.6731 124.931 75.2955 124.492 75.2955 123.871C75.2955 123.128 75.8437 122.604 76.6234 122.604C77.2448 122.604 77.7199 122.945 78.0976 123.603L78.9505 123.055C78.5241 122.19 77.7443 121.739 76.6965 121.739C75.2467 121.739 74.2477 122.665 74.2477 123.883C74.2477 124.943 74.8081 125.699 75.9655 126.186L77.0255 126.637C77.9271 127.026 78.3779 127.599 78.3779 128.379C78.3779 129.329 77.6834 129.999 76.6356 129.999C75.7584 129.999 75.1614 129.451 74.9056 128.391L73.9675 128.854C74.2964 130.145 75.2589 130.876 76.6356 130.876C78.3169 130.876 79.4256 129.804 79.4256 128.208C79.4256 127.112 78.853 126.308 77.7078 125.82Z" fill="black"/>
<path d="M84.8798 129.366C84.3072 129.78 83.7833 129.987 83.1985 129.987C82.0654 129.987 81.2491 129.11 81.2491 128.013C81.2491 126.722 82.0776 125.918 83.2716 125.918C83.8076 125.918 84.3193 126.088 84.7823 126.393V125.394C84.2828 125.15 83.698 125.016 83.0888 125.016C81.4562 125.016 80.2501 126.21 80.2501 127.989C80.2501 129.707 81.3588 130.889 83.0523 130.889C83.7589 130.889 84.3803 130.742 84.8798 130.45V129.366Z" fill="black"/>
<path d="M86.1739 130.657H87.0998V127.843C87.0998 127.246 87.0998 126.795 87.4166 126.405C87.7212 126.027 88.1963 125.82 88.7446 125.82C89.7192 125.82 90.1944 126.356 90.1944 127.453V130.657H91.1203V126.953C91.1203 125.723 90.3406 125.016 89.0735 125.016C88.2207 125.016 87.5628 125.345 87.0876 126.052V121.434H86.1739V130.657Z" fill="black"/>
<path d="M96.2939 125.016H96.1477L94.4907 128.927L93.0409 125.211H92.0053L94.4298 130.998L96.2208 126.819L98.0117 130.998L100.436 125.211H99.3885L97.9265 128.927L96.2939 125.016Z" fill="black"/>
<path d="M106.252 128.074V127.892C106.252 126.088 105.229 125.004 103.633 125.004C102.049 125.004 100.916 126.198 100.916 127.916C100.916 129.695 102.037 130.889 103.694 130.889C104.815 130.889 105.668 130.389 106.216 129.402L105.509 128.927C105.058 129.719 104.474 130.109 103.743 130.109C102.695 130.109 101.939 129.341 101.939 128.16V128.074H106.252ZM105.253 127.319H101.939C102.037 126.393 102.707 125.82 103.596 125.82C104.583 125.82 105.192 126.356 105.253 127.319Z" fill="black"/>
<path d="M107.698 130.657H108.624V125.211H107.698V130.657ZM107.479 122.592C107.479 122.982 107.783 123.274 108.161 123.274C108.539 123.274 108.843 122.982 108.843 122.604C108.843 122.226 108.539 121.909 108.161 121.909C107.783 121.909 107.479 122.214 107.479 122.592Z" fill="black"/>
<path d="M109.833 130.657H114.572V129.841H111.477L114.596 125.211H110.027V126.027H112.951L109.833 130.657Z" fill="black"/>
<path d="M120.708 128.074V127.892C120.708 126.088 119.685 125.004 118.089 125.004C116.505 125.004 115.372 126.198 115.372 127.916C115.372 129.695 116.493 130.889 118.15 130.889C119.271 130.889 120.123 130.389 120.672 129.402L119.965 128.927C119.514 129.719 118.929 130.109 118.198 130.109C117.151 130.109 116.395 129.341 116.395 128.16V128.074H120.708ZM119.709 127.319H116.395C116.493 126.393 117.163 125.82 118.052 125.82C119.039 125.82 119.648 126.356 119.709 127.319Z" fill="black"/>
<path d="M122.117 130.657H123.043V128.001C123.043 126.576 123.531 125.869 124.518 125.869C124.688 125.869 124.883 125.906 125.09 125.979L125.407 125.138C125.2 125.065 124.993 125.028 124.773 125.028C123.945 125.028 123.433 125.418 122.946 126.344V125.211H122.117V130.657Z" fill="black"/>
<path d="M132.553 130.998L136.22 121.946H135.099L132.553 128.61L129.994 121.946H128.873L132.553 130.998Z" fill="black"/>
<path d="M141.22 128.074V127.892C141.22 126.088 140.197 125.004 138.601 125.004C137.017 125.004 135.884 126.198 135.884 127.916C135.884 129.695 137.005 130.889 138.662 130.889C139.782 130.889 140.635 130.389 141.184 129.402L140.477 128.927C140.026 129.719 139.441 130.109 138.71 130.109C137.663 130.109 136.907 129.341 136.907 128.16V128.074H141.22ZM140.221 127.319H136.907C137.005 126.393 137.675 125.82 138.564 125.82C139.551 125.82 140.16 126.356 140.221 127.319Z" fill="black"/>
<path d="M142.629 130.657H143.555V128.001C143.555 126.576 144.043 125.869 145.029 125.869C145.2 125.869 145.395 125.906 145.602 125.979L145.919 125.138C145.712 125.065 145.505 125.028 145.285 125.028C144.457 125.028 143.945 125.418 143.458 126.344V125.211H142.629V130.657Z" fill="black"/>
<path d="M146.316 129.743C146.742 130.511 147.449 130.889 148.46 130.889C149.666 130.889 150.446 130.17 150.446 129.159C150.446 128.269 149.922 127.879 148.862 127.538C147.961 127.246 147.461 127.173 147.461 126.6C147.461 126.125 147.839 125.784 148.387 125.784C148.96 125.784 149.41 126.064 149.63 126.564L150.385 126.101C150.093 125.406 149.386 125.016 148.448 125.016C147.291 125.016 146.523 125.711 146.523 126.661C146.523 127.733 147.327 127.965 148.667 128.428C149.24 128.623 149.52 128.842 149.52 129.256C149.52 129.731 149.118 130.072 148.497 130.072C147.875 130.072 147.412 129.792 147.108 129.207L146.316 129.743Z" fill="black"/>
<path d="M151.899 130.657H152.825V125.211H151.899V130.657ZM151.679 122.592C151.679 122.982 151.984 123.274 152.362 123.274C152.739 123.274 153.044 122.982 153.044 122.604C153.044 122.226 152.739 121.909 152.362 121.909C151.984 121.909 151.679 122.214 151.679 122.592Z" fill="black"/>
<path d="M158.979 129.366C158.407 129.78 157.883 129.987 157.298 129.987C156.165 129.987 155.349 129.11 155.349 128.013C155.349 126.722 156.177 125.918 157.371 125.918C157.907 125.918 158.419 126.088 158.882 126.393V125.394C158.382 125.15 157.798 125.016 157.188 125.016C155.556 125.016 154.35 126.21 154.35 127.989C154.35 129.707 155.458 130.889 157.152 130.889C157.859 130.889 158.48 130.742 158.979 130.45V129.366Z" fill="black"/>
<path d="M160.274 130.657H161.199V127.843C161.199 127.246 161.199 126.795 161.516 126.405C161.821 126.027 162.296 125.82 162.844 125.82C163.819 125.82 164.294 126.356 164.294 127.453V130.657H165.22V126.953C165.22 125.723 164.44 125.016 163.173 125.016C162.32 125.016 161.662 125.345 161.187 126.052V121.434H160.274V130.657Z" fill="black"/>
<path d="M171.916 128.074V127.892C171.916 126.088 170.893 125.004 169.297 125.004C167.713 125.004 166.58 126.198 166.58 127.916C166.58 129.695 167.701 130.889 169.358 130.889C170.479 130.889 171.332 130.389 171.88 129.402L171.173 128.927C170.722 129.719 170.138 130.109 169.407 130.109C168.359 130.109 167.604 129.341 167.604 128.16V128.074H171.916ZM170.917 127.319H167.604C167.701 126.393 168.371 125.82 169.26 125.82C170.247 125.82 170.856 126.356 170.917 127.319Z" fill="black"/>
<path d="M173.326 130.657H174.252V128.001C174.252 126.576 174.739 125.869 175.726 125.869C175.896 125.869 176.091 125.906 176.298 125.979L176.615 125.138C176.408 125.065 176.201 125.028 175.982 125.028C175.153 125.028 174.642 125.418 174.154 126.344V125.211H173.326V130.657Z" fill="black"/>
<path d="M178.438 125.211H177.512V128.464C177.512 130.06 178.377 130.889 179.961 130.889C181.593 130.889 182.446 130.036 182.446 128.391V125.211H181.52V127.892C181.496 129.329 181.179 129.999 179.985 129.999C178.791 129.999 178.438 129.329 178.438 127.892V125.211Z" fill="black"/>
<path d="M184.248 130.657H185.174V127.843C185.174 127.246 185.174 126.795 185.49 126.405C185.795 126.027 186.27 125.82 186.818 125.82C187.793 125.82 188.268 126.356 188.268 127.453V130.657H189.194V126.953C189.194 125.723 188.414 125.016 187.147 125.016C186.294 125.016 185.637 125.345 185.174 126.052V125.211H184.248V130.657Z" fill="black"/>
<path d="M196.122 125.211H195.172V126.222C194.77 125.43 194.075 125.016 193.174 125.016C191.651 125.016 190.615 126.101 190.615 127.916C190.615 129.682 191.663 130.828 193.222 130.828C194.063 130.828 194.77 130.401 195.196 129.622V130.535C195.196 131.035 195.172 131.437 194.965 131.778C194.684 132.253 194.148 132.497 193.405 132.497C192.357 132.497 191.785 132.022 191.785 131.218V131.144H190.737C190.774 132.509 191.724 133.313 193.393 133.313C194.355 133.313 195.086 133.033 195.586 132.485C196.098 131.949 196.122 131.339 196.122 130.56V125.211ZM195.196 127.952C195.196 129.207 194.514 129.938 193.417 129.938C192.26 129.938 191.602 129.195 191.602 127.879C191.602 126.637 192.26 125.918 193.381 125.918C194.429 125.918 195.196 126.685 195.196 127.952Z" fill="black"/>
</svg>
