<?xml version="1.0" encoding="utf-8"?>
<!-- Generator: Adobe Illustrator 25.2.1, SVG Export Plug-In . SVG Version: 6.00 Build 0)  -->
<svg version="1.1" id="Capa_1" xmlns="http://www.w3.org/2000/svg" xmlns:xlink="http://www.w3.org/1999/xlink" x="0px" y="0px"
	 viewBox="0 0 200 108" style="enable-background:new 0 0 200 108;" xml:space="preserve">
<style type="text/css">
	.st0{fill:#18528B;}
	.st1{fill:#FFFFFF;}
	.st2{fill:#385E81;}
</style>
<g id="a41ZW9_1_">
	<g>
		<path class="st0" d="M74,53.9c0-17,0-34.1,0-51.1c0-0.5,0.1-0.6,0.6-0.6c17,0,34,0,51,0c0.5,0,0.6,0.1,0.6,0.6
			c0,34.1,0,68.2,0,102.3c0,0.5-0.1,0.6-0.6,0.6c-17,0-34,0-51,0c-0.5,0-0.6-0.1-0.6-0.6C74,88.1,74,71,74,53.9z M110.7,11L110.7,11
			c0,0.1,0.1,0.2,0.2,0.2c0.5,0.3,0.9,0.8,1.2,1.4c0.6,1.2,1,2.4,1.2,3.7c0.1,0.8,0.7,0.5,1.1,0.5c0.6,0,0.3-0.4,0.3-0.7
			c-0.1-2.7-0.3-5.5-0.5-8.2c0,0,0,0,0-0.1c0,0-0.1,0-0.1-0.1c0-0.2-0.2-0.2-0.3-0.2c-0.4,0.1-0.8,0.1-1.2,0.1c-9.8,0-19.5,0-29.3,0
			c-0.3,0-0.6-0.1-0.8,0.3c-0.1,0.3-0.2,0.7,0.1,1c0,0,0.1,0.1,0.1,0.1c0.1,0,0.2,0.1,0.3,0.1c1.4,0,2.7,0.3,4,0.6l0,0
			C87,9.9,87.1,10,87.4,10c0,0,0,0,0,0c0,0,0.1,0.1,0.1,0.1l0,0c-0.1,0.5,0.3,0.7,0.4,1.1c0.2,0.9,0.4,1.9,0.4,2.9
			c0,9.3,0,18.6,0,27.9c0,0.3-0.1,0.6,0.1,0.9c0,0.6,0,1.2-0.1,1.8c-0.3,1.7-1,2.4-2.7,2.8c-1,0.2-2,0.2-3,0.3
			c-0.4,1.1-0.3,1.3,0.9,1.3c0.1,0,0.3,0,0.4,0c5.3,0,10.6,0,15.8,0c4.6,0,9.3,0,13.9,0c0.3,0,0.6,0.1,0.8-0.2l0,0
			c0.6-0.2,0.4-0.8,0.5-1.2l0,0c0.2-0.1,0.3-0.3,0.3-0.4c0.1-0.7,0.4-1.3,0.6-2c0.2-0.5,0.5-1,0.4-1.7l0,0c0.1-0.1,0.1-0.2,0.1-0.4
			l0,0c0.1-0.1,0.1-0.2,0.1-0.4c0.4-1.3,0.8-2.5,1.2-3.8c0-0.1,0.3-0.3-0.1-0.4c-0.5-0.2-1,0.1-1.3,0.5c-1,1.7-2,3.3-3.3,4.7
			c-1.3,1.4-2.9,2.4-4.8,2.6c-0.6-0.1-1.3,0.1-1.9,0.1c-3.3,0-6.6,0.1-9.9-0.1c-0.8,0-1.5-0.4-1.8-1.2c-0.3-0.6-0.2-1.2-0.2-1.9
			c0-4.6,0-9.2,0-13.8c0-0.6,0.2-0.8,0.8-0.8c2.4,0,4.8,0,7.2,0c1.8,0,3.6,0,5.3,0.7l0,0c0.3,0.5,0.6,1,1.1,1.3l0,0
			c0,0.1,0,0.3,0,0.4c0.3,1,0.6,1.9,0.7,3c0,0.2,0,0.4,0.3,0.5l0,0c0.4,0.2,0.7,0.3,1.1-0.1c0,0,0-0.1,0-0.1
			c0.2-0.2,0.1-0.5,0.1-0.7c0-4.4,0-8.8,0-13.2c0-0.1,0-0.2-0.2-0.3c-0.9-0.3-1.1-0.2-1.2,0.7c-0.1,0.8-0.2,1.6-0.5,2.4
			c-0.4,1.1-1.1,2-2.3,2.3c-1,0.1-2,0.3-2.9,0.3c-2.9,0-5.8,0-8.8,0c-0.5,0-0.7-0.2-0.7-0.7c0-4.8,0-9.7,0-14.5
			c0-0.5,0.2-0.7,0.7-0.7c4.8,0.1,9.7-0.3,14.5,0.4l0,0c0.1,0.1,0.2,0.1,0.4,0.1l0,0c0.1,0.2,0.3,0.3,0.5,0.3l0,0
			C110.6,10.9,110.6,10.9,110.7,11z M125.2,54.5L125.2,54.5c-0.2-0.6-0.7-0.2-1-0.2c-16.4,0-32.7,0-49.1,0c-0.2,0-0.3,0-0.4,0.2
			c0,0,0,0.1,0,0.1c-0.4,0.4-0.1,0.8-0.2,1.3c0,16.1,0,32.2,0,48.3c0,1.1,0,1.1,1.1,1.1c15.8,0,31.6,0,47.4,0c0.6,0,1.1,0,1.7,0
			c0.2,0,0.5,0.1,0.6-0.3l0,0c0.2-0.2,0.1-0.5,0.1-0.7c0-16.3,0-32.6,0-48.9C125.4,55,125.5,54.7,125.2,54.5z"/>
		<path class="st1" d="M74.7,54.5c0,0,0-0.1,0-0.1c0.2,0,0.4,0,0.6,0c16.4,0,32.8,0,49.2,0c0.3,0,0.6-0.1,0.8,0.1c0,0,0,0,0,0
			c0,0.2,0,0.3,0,0.5c0,16.1,0,32.1,0,48.2c0,0.6,0,1.1,0,1.7c0,0,0,0,0,0c-0.2,0.1-0.5,0.1-0.7,0.1c-16.3,0-32.7,0-49,0
			c-0.1,0-0.2,0-0.4,0c-0.3,0-0.4-0.1-0.4-0.4c0-0.2,0-0.5,0-0.7c0-16.2,0-32.4,0-48.6C74.8,55,74.8,54.8,74.7,54.5z M118.9,73.6
			c0,0.1,0.1,0.1,0.1,0.2l0,0c0.1,0.1,0.1,0.2,0.2,0.2l0,0c0,0,0.1,0.1,0.1,0.1l0,0c0.1,0.1,0.1,0.2,0.2,0.3l0,0
			c0.2,0.3,0.4,0.5,0.6,0.8c0.4,0.5,0.9,0.7,1.7,0.3c-0.7,0-1-0.4-1.3-0.8c-0.2-0.3-0.4-0.5-0.6-0.8l0,0c0-0.1-0.1-0.3-0.3-0.4
			c0,0,0-0.1,0-0.1c0.8-0.3,1.1-0.7,1.1-1.3c-0.1-0.6-0.5-1.1-1.3-1.1c-0.8-0.1-1.5,0-2.3,0c0.4,0.1,0.5,0.3,0.5,0.7
			c0,1.2,0,2.4,0,3.6c-0.1,0-0.1,0.1-0.1,0.2c-0.1,0.2-0.4-0.2-0.5,0.2c0.6,0,1.3,0.1,1.9-0.2c-0.2,0-0.4,0-0.6-0.1
			c-0.2-0.5-0.1-1.1,0-1.6c0-0.6,0-1.3,0-1.9c0-0.6,0.2-0.8,0.8-0.6c0.3,0.1,0.5,0.3,0.6,0.5c0,0.2,0,0.5,0,0.7
			c-0.1,0.3-0.4,0.3-0.6,0.6c0,0,0,0-0.1,0c-0.2,0-0.4,0-0.4,0.2c0,0.1,0,0.1,0,0.2C118.8,73.6,118.8,73.6,118.9,73.6L118.9,73.6z
			 M109.3,96.6c0,0-0.1-0.1-0.1-0.1l0,0c-0.8-0.5-1.6-0.5-2.3,0l0,0c-0.1,0-0.2,0.1-0.3,0.2l0,0c-0.2,0.1-0.4,0.3-0.5,0.5l0,0
			c-0.1,0.1-0.1,0.1-0.1,0.3l0,0c-0.1,0.1-0.1,0.2-0.1,0.3l0,0c-0.2,0.3-0.2,0.7-0.1,1.1c0,1,0.8,2.1,1.5,2.2
			c0.9,0.1,1.8,0.1,2.4-0.6c0.6-0.8,0.8-1.6,0.5-2.5c0-0.2-0.1-0.4-0.3-0.6l0,0c0-0.1-0.1-0.2-0.2-0.3l0,0c0-0.1-0.1-0.1-0.2-0.1
			l0,0c0,0-0.1-0.1-0.1-0.1l0,0C109.4,96.6,109.3,96.6,109.3,96.6C109.3,96.6,109.3,96.6,109.3,96.6z M91.8,62.5
			C91.8,62.5,91.8,62.5,91.8,62.5c0,0-0.1-0.1-0.1-0.2c0,0,0,0,0,0c0-0.1-0.1-0.1-0.1-0.2l0,0c-0.3-0.9-0.2-1.7,0-2.6l0,0
			c0.4-0.6,0.9-1,1.7-0.9c0.8,0.1,1.1,0.7,1.5,1.2c0-0.5,0-1-0.1-1.5c-0.3,0.3-0.5,0.2-0.9,0.1c-0.9-0.3-1.8-0.2-2.5,0.5
			c-1.2,1.2-1,3,0.4,4c1.3,0.7,2.9,0.2,3-1.1c-0.7,1-1.5,1.3-2.5,0.8l0,0c-0.1-0.1-0.2-0.1-0.2-0.2l0,0
			C91.9,62.6,91.8,62.5,91.8,62.5z M119.7,97.1c0-0.1,0-0.2-0.1-0.2l0,0c-0.1-0.3-0.1-0.5-0.3-0.7c-0.2,0.2-0.3,0.4-0.3,0.6
			c0,0,0,0,0,0c-0.4,1-0.9,2-1.3,3c-0.2,0.5-0.4,0.9-0.8,1.2c0.5,0,0.9,0.1,1.5,0c-0.3-0.2-0.7-0.1-0.5-0.5c0.1-0.4,0.1-0.9,0.6-1
			c0.5-0.1,1.1-0.1,1.6,0.1l0,0c0.1,0.1,0.1,0.3,0.2,0.4c0.1,0.3,0.3,0.7-0.2,1c0.6,0,1.2,0.1,1.9-0.1c-0.6-0.2-0.8-0.5-0.9-0.9
			c-0.3-0.7-0.6-1.3-0.8-2c0-0.1-0.1-0.2-0.1-0.3l0,0c0-0.1,0-0.3-0.2-0.4l0,0C119.9,97.3,119.8,97.2,119.7,97.1L119.7,97.1z
			 M111.2,75L111.2,75c0,0.1,0.1,0.2,0.2,0.3c0,0,0.1,0.1,0.1,0.1c1.1,0.7,2.3,0.6,3.1-0.5c0.6-0.9,0.7-1.8,0.2-2.8
			c-0.3-0.9-1-1.2-1.9-1.3c-0.8-0.1-1.6,0.2-2,1l0,0c-0.1,0.1-0.2,0.2-0.2,0.3l0,0c-0.4,0.9-0.4,1.8,0.2,2.6l0,0
			C111.1,74.9,111.1,75,111.2,75z M81.5,73.6c0,0-0.1-0.1-0.1-0.1c-0.2-0.3-0.6-0.4-0.9-0.6c-0.5-0.3-1-0.4-1.2-0.9
			c0-0.4,0.2-0.8,0.7-0.8c0.9-0.1,1.3,0.5,1.5,1.2c0.1-0.5,0.1-1.1,0-1.6C81.2,71.2,81,71,80.8,71c-0.9-0.3-1.4-0.1-1.9,0.6
			c-0.3,0.5-0.2,1,0.2,1.4c0.3,0.3,0.7,0.5,1,0.7c0.4,0.2,0.9,0.5,1.1,0.9c0,0.5-0.2,0.8-0.7,0.9c-1,0.1-1.4-0.5-1.7-1.3
			c-0.1,0.5-0.1,1,0,1.6c0.3-0.3,0.6-0.2,0.9-0.1c0.7,0.2,1.3,0.2,1.8-0.4l0,0c0.3-0.4,0.5-0.8,0.2-1.3l0,0
			C81.7,73.8,81.6,73.7,81.5,73.6C81.5,73.6,81.5,73.6,81.5,73.6z M119.8,60.3c0-0.1,0-0.2-0.1-0.3c-0.3-0.3-0.2-0.8-0.5-1.2
			c-0.3-0.4-0.4-0.2-0.5,0.1c-0.5,1.1-1,2.2-1.4,3.3c-0.2,0.4-0.3,0.8-0.9,0.9c0.7,0.1,1.1,0.1,1.6,0c-0.5-0.1-0.5-0.3-0.4-0.7
			c0.2-0.5,0.4-0.8,1.1-0.7c0.2,0,0.5,0,0.7,0c0.6-0.1,0.5,0.5,0.7,0.8c0.2,0.3,0,0.5-0.3,0.7c0.6,0,1.1,0,1.7,0
			c-0.7-0.2-0.7-0.9-1-1.4l0,0c0-0.2-0.1-0.4-0.3-0.6l0,0C120.1,60.8,119.9,60.5,119.8,60.3L119.8,60.3z M112.6,87.2L112.6,87.2
			c-0.2-0.6-0.1-1.2-0.1-1.8c0.2-0.3,0.1-0.7,0.4-1c0.4-0.4,0.9-0.6,1.5-0.5c0.6,0.1,0.9,0.6,1.2,1.1c0-0.5,0-0.9,0-1.5
			c-0.2,0.5-0.5,0.4-0.8,0.3c-1.2-0.5-2.4,0-2.9,1.1l0,0c-0.1,0.1-0.1,0.1-0.1,0.3c-0.5,1.1-0.2,2,0.6,2.9c0.7,0.6,1.6,0.7,2.4,0.4
			c0.5-0.2,0.7-0.5,0.8-0.9c-1.1,0.9-1.7,0.9-2.8,0.1l0,0C112.8,87.5,112.7,87.3,112.6,87.2z M93.5,72.9c0.3-0.5,0.3-1-0.1-1.4
			c-1-0.9-2.1-0.4-3.2-0.5c0.5,0.1,0.6,0.4,0.6,0.9c0,1.1,0,2.2,0,3.2c0,0.1,0,0.1,0,0.2c-0.1,0.2-0.4,0.1-0.6,0.4
			c0.7,0,1.3,0,1.9,0c-0.5,0-0.6-0.4-0.7-0.8c0-0.5,0-0.9,0-1.4c0.5,0,1.1,0.2,1.6-0.1C93.3,73.3,93.4,73.2,93.5,72.9z M87.3,61
			L87.3,61c-0.4-0.4-1-0.6-1.5-0.9c-0.1-0.1-0.2-0.1-0.2-0.2c-0.2-0.3-0.5-0.5-0.3-0.9c0.2-0.3,0.4-0.5,0.7-0.5
			c0.6,0,0.9,0.3,1.2,0.8c0.1,0.2,0.1,0.4,0.2,0.7c0.1-0.7,0.1-1.2,0-1.8c-0.4,0.6-0.7,0.1-1.1,0.1c-0.6-0.1-1.2,0.1-1.5,0.6
			c-0.3,0.5-0.3,1,0.1,1.4l0,0c0.2,0.3,0.4,0.4,0.7,0.5l0,0c0.3,0.2,0.6,0.4,0.9,0.5c0.4,0.2,0.6,0.5,0.6,1l0,0
			c-0.7,0.8-1.5,0.7-2.3-0.4c-0.2,0.4-0.4,0.7,0.1,0.9c0.4,0.2,0.8,0.3,1.3,0.3c1.1,0,1.8-0.8,1.4-1.8l0,0
			C87.6,61.3,87.5,61.1,87.3,61z M109.2,84c0,0.1,0,0.2,0.1,0.2c0,1.3,0,2.5-0.1,3.8c-0.2,0.1-0.4,0.2-0.7,0.3c0.8,0,1.5,0,2.1,0
			c-0.2-0.1-0.5-0.2-0.6-0.4l0,0c0-1.3,0-2.7,0-4l0,0l0,0c0.1-0.1,0.4,0,0.5-0.2c-0.7,0-1.3,0-1.9,0c0,0,0,0.1,0,0.1
			C108.9,83.9,109.1,83.9,109.2,84L109.2,84z M98.5,58.8c0.2-0.1,0.4-0.2,0.7-0.3c-0.8-0.1-1.4-0.1-2,0c0.2,0.2,0.5,0.2,0.6,0.4
			c0,0.1,0,0.1,0,0.2c0,1-0.2,1.9,0.1,2.9c0,0.2-0.1,0.4,0.1,0.6c0.5,0.7,1.4,1,2.3,0.7c0.7-0.2,1.1-0.8,1.1-1.6c0-0.4,0-0.9,0-1.3
			c0-0.6-0.3-1.4,0.6-1.8c-0.6,0-1-0.1-1.6,0.1c0.6,0,0.6,0.4,0.6,0.8c0,0.7,0,1.4,0,2c0,0.6-0.1,1.2-0.7,1.4
			c-0.7,0.3-1.2,0.2-1.7-0.4c-0.1-0.2-0.2-0.4-0.2-0.6c0.2-0.1,0.1-0.3,0.1-0.4C98.5,60.6,98.5,59.7,98.5,58.8L98.5,58.8z
			 M87.7,100.5L87.7,100.5c-0.1,0.3-0.4,0.2-0.6,0.4c0.7,0,1.3,0,1.9,0c-0.5-0.1-0.6-0.4-0.6-0.8c0-1.1,0-2.2,0-3.3
			c0-0.1,0-0.2,0-0.3c0.4-0.1,0.8-0.2,1.2,0c0.2,0.1,0.3,0.3,0.4,0.5c0,0,0,0.1,0,0.1c0,0.1,0,0.3,0,0.4c0,0,0,0.1,0,0.1
			c0,0.1,0,0.3,0,0.4c0,0,0,0.1,0,0.1c0,0.1,0,0.2,0,0.3c0,0.5,0,1,0,1.5c0,0.4,0,0.8-0.6,1c0.5,0,1,0.1,1.6-0.1
			c-0.6,0-0.6-0.4-0.6-0.8c0-0.9,0-1.8,0-2.7c0.9,1.1,1.8,2.2,2.8,3.3c0,0.2,0.1,0.4,0.3,0.3c0.2,0,0.1-0.3,0.1-0.4
			c0-1.1,0-2.2,0-3.3c0-0.4-0.1-0.8,0.4-1.1c-0.4,0-0.7,0-1,0c0.3,0.2,0.2,0.5,0.2,0.8c0,0.8,0,1.6,0,2.3c-0.3,0.2-0.3-0.1-0.4-0.2
			c-0.8-1-1.6-2-2.5-3c-1.1,0-2.2,0-3.3,0c0.1,0.3,0.3,0.2,0.5,0.2c0,0.1,0.1,0.2,0.1,0.3C87.7,98,87.7,99.3,87.7,100.5z
			 M104.2,100.6L104.2,100.6c-0.4,0.2-0.7,0.3-1.1,0.1c-0.6-0.2-0.8-0.7-1.1-1.2c0,0.5,0,1,0,1.6c0.3-0.3,0.6-0.2,0.9-0.1
			c0.6,0.2,1.1,0.2,1.6-0.2c0.9-0.7,0.7-1.8-0.2-2.3c-0.4-0.2-0.8-0.5-1.3-0.7c-0.4-0.2-0.5-0.4-0.5-0.8c0.2-0.3,0.4-0.6,0.8-0.6
			c0.9,0,1.1,0.7,1.4,1.4c0.1-0.7,0.1-1.2,0-1.7c-0.2,0.4-0.5,0.2-0.8,0.1c-0.9-0.3-1.4-0.1-1.8,0.6c-0.3,0.8-0.1,1.3,0.7,1.8
			c0.6,0.3,1.2,0.6,1.6,1.2C104.5,100.1,104.4,100.3,104.2,100.6z M78.5,100.6c0,0.2-0.2,0.2-0.3,0.3c0.5,0,1.1,0,1.7,0
			c-0.6-0.2-0.6-0.2-0.7-0.6c0-0.3,0-0.7,0-1c0-0.2-0.2-0.4,0.1-0.5c0.3-0.1,0.5,0.1,0.7,0.3c0.3,0.4,0.6,0.8,0.9,1.2
			c0,0.1,0.1,0.2,0.2,0.3l0,0c0.1,0.4,0.4,0.4,0.7,0.4c1.3,0,2.6,0,3.9,0c0.7,0,1-0.4,0.9-1.4c-0.4,1.2-1.2,1.1-2,1.1
			c-0.4,0-0.5-0.2-0.5-0.6c0-0.5,0-0.9,0-1.4c0,0,0.1-0.1,0.1-0.1c0.6,0.2,1.4-0.3,1.8,0.7c0-0.5,0-1,0-1.6
			c-0.4,0.7-0.4,0.7-1.1,0.7c-0.2,0-0.4,0-0.6,0c-0.1,0-0.1,0-0.2-0.1c0-0.4,0-0.9,0-1.3c0-0.3,0.1-0.5,0.5-0.5
			c0.7,0.1,1.5-0.2,1.8,0.8c0-0.3,0-0.6,0-0.8c0-0.2-0.1-0.3-0.3-0.3c-1.1,0-2.2,0-3.3,0c0.7,0.2,0.6,0.7,0.6,1.1c0,0.7,0,1.4,0,2.1
			c0,1.5,0,1.5-1.4,1.2c-0.4-0.5-0.7-1-1.1-1.5c-0.2-0.3-0.3-0.4,0.1-0.6c0.9-0.5,0.9-1.6,0.1-2c-0.2-0.1-0.5-0.1-0.7-0.2
			c-0.8-0.3-1.5-0.1-2.3-0.1c0.4,0.1,0.7,0.3,0.6,0.8C78.6,98.2,78.6,99.4,78.5,100.6L78.5,100.6z M107,88.2c0.1,0,0.1,0,0.1-0.1
			c0.6-0.7,0.6-1.4-0.2-2c-0.5-0.4-1.1-0.7-1.7-0.9c-0.1-0.4-0.5-0.9,0.2-1.2c1.1-0.4,1.5,0.3,1.9,1.1c0-0.2,0-0.5,0-0.7
			c0-0.3,0-0.5,0-0.8c-0.4,0.2-0.4,0.2-1.1,0c-0.6-0.1-1.3,0.1-1.6,0.6c-0.3,0.5-0.3,0.9,0.1,1.4c0.4,0.6,1.2,0.8,1.7,1.2
			c0.6,0.5,0.7,0.9,0.1,1.4c-1.2,0.4-1.7-0.3-2.1-1.2c0,0.5,0,1,0,1.8c0.4-0.5,0.7-0.3,1-0.3C106,88.6,106.5,88.6,107,88.2L107,88.2
			z M99.8,87.7c-0.3-0.9-0.2-1.8-0.2-2.7c0-0.5-0.2-1.1,0.6-1.3c-0.6,0-1.2,0-1.8,0c0.5,0.1,0.6,0.5,0.6,1c0,0.7,0,1.4,0,2
			c0,0.5,0,1,0.4,1.3c0.7,0.7,1.5,0.6,2.3,0.4c0.8-0.2,0.9-0.9,1-1.6c0-0.6,0-1.2,0-1.8c0-0.5-0.1-1,0.6-1.2c-0.5,0-1,0-1.5,0
			c0.6,0.2,0.6,0.6,0.6,1c0,0.6,0,1.2,0,1.8c0,0.6-0.1,1.1-0.7,1.4c-0.6,0.3-1.2,0.3-1.7-0.2C99.9,87.8,99.9,87.7,99.8,87.7z
			 M96.9,84.1c0-0.1,0-0.2,0-0.2c0.2,0,0.4,0.1,0.5-0.2c-1.2-0.1-1.2-0.1-1.7,1c-0.4,0.9-0.8,1.7-1.2,2.6c-0.5-1-0.9-2-1.4-2.9
			c-0.4-0.8-0.8-0.9-1.7-0.6c0.6,0,0.6,0.4,0.6,0.8c0,0.9,0,1.8,0,2.6c0,0.5,0.1,1-0.6,1.1c0.6,0.1,1.1,0.1,1.6,0
			c-0.7-0.1-0.7-0.5-0.7-1c0-0.8,0-1.6,0-2.5c0-0.1,0.1-0.3,0.2-0.1c0.1,0.2,0.1,0.4,0.2,0.6c0.5,1,0.9,2,1.5,3.2
			c0.6-1.4,1.2-2.7,1.8-4c0,0.1,0,0.2,0.1,0.3c0,1,0,2,0,3.1c0,0.1-0.1,0.2-0.1,0.2c-0.1,0.1-0.4,0-0.5,0.2c0.7,0,1.3,0,1.9,0
			c-0.6,0-0.6-0.5-0.6-0.9c0-0.8,0-1.5,0-2.3c0-0.1,0-0.1,0-0.2C96.9,84.7,96.9,84.4,96.9,84.1z M84.3,83.7c-0.1,0-0.3-0.1-0.4,0.1
			c0.1,0.1,0.3,0.1,0.4,0.1c0.2,0.2,0.2,0.5,0.2,0.8c0,1,0,2.1,0,3.1c0,0.4-0.4,0.4-0.7,0.6c1,0.1,2,0,3,0.1c0.6,0,0.9-0.2,0.9-0.9
			c-0.8,0.7-1.6,0.6-2.5,0.5c0-0.2,0-0.3,0-0.5c0-0.1,0-0.3,0-0.4c0-1.1,0.1-1.1,1.2-1c0.4,0,0.4,0.4,0.7,0.7c0-0.6,0-1.1,0-1.7
			c-0.3,0.6-1.1,0.9-1.6,0.7c-0.1,0-0.2-0.1-0.2-0.2c0-0.5,0-0.9,0-1.4c0-0.1,0.1-0.2,0.2-0.2c0.4,0,0.8,0,1.2,0
			c0.5,0,0.6,0.4,0.8,0.8c0.1-1.1,0.1-1.1-0.8-1.1C85.9,83.6,85.2,83.7,84.3,83.7C84.4,83.6,84.4,83.7,84.3,83.7z M112,96.5
			c0.8,0.1,1.7-0.3,2.1,0.8c0-0.3,0-0.5,0-0.7c0-0.2-0.1-0.4-0.3-0.3c-1.1,0-2.1,0-3.3,0c0.7,0.3,0.7,0.3,0.7,1c0,0.9,0,1.9,0,2.8
			c0,0.4,0,0.8-0.6,0.9c0.6,0.1,1.3,0.1,1.9,0c-0.6-0.1-0.6-0.5-0.6-0.9c0-0.2,0-0.3,0-0.5c0-0.9,0.2-1,1-0.8
			c0.4,0.1,0.4,0.4,0.6,0.7c0-0.7,0.1-1.2-0.1-1.7c-0.1,0.5-0.4,0.6-0.9,0.6c-0.2,0-0.4,0-0.6,0C112,97.7,112,97.1,112,96.5z
			 M79.3,60.5c0-0.6,0-1.2,0-1.7c0.8,0,1.8-0.5,2.3,0.7c-0.1-0.4,0.3-1-0.3-1c-1.1-0.1-2.2,0-3.3,0c0.5,0.2,0.6,0.6,0.5,1
			c0,0.9,0,1.8,0,2.8c0,0.4,0,0.8-0.6,0.8c0.1,0.1,0.1,0.1,0.2,0.1c0.9,0,1.9,0,2.8,0c0.7,0,0.9-0.3,0.7-1.1c-0.4,0.7-1,0.8-1.6,0.9
			c-0.7,0.1-0.8,0-0.8-0.8c0-0.3,0-0.7,0-1c0-0.2,0-0.3,0.2-0.4c0.7-0.2,1.3,0,1.6,0.6c0.1-0.6,0.1-1.1-0.1-1.6
			c-0.1,0.6-0.5,0.7-1,0.6C79.8,60.5,79.5,60.5,79.3,60.5z M82.7,85.1c0-0.2-0.1-0.4-0.2-0.5c-0.2-0.5-0.6-0.7-1.1-0.8
			c-1-0.3-2.1-0.1-3.2-0.1c0.7,0,0.6,0.5,0.6,1c0,0.8,0,1.6,0,2.4c0,0.5,0.2,1.1-0.6,1.3c0.7,0.1,1.4,0.1,2,0.1c0.2,0,0.5,0,0.7-0.1
			C82.5,88.1,83.3,86.7,82.7,85.1z M96.7,75.3C96.7,75.3,96.7,75.3,96.7,75.3c0-0.3,0-0.6,0-0.9c0-1.1,0.1-1.2,1.2-1
			c0.4,0.1,0.4,0.4,0.7,0.7c0-0.4,0-0.6,0-0.9c0-0.2,0-0.5,0-0.7c-0.4,0.5-1.2,0.8-1.7,0.6c-0.1,0-0.1-0.1-0.1-0.2
			c0-0.5,0-0.9,0-1.4c0-0.2,0.2-0.2,0.4-0.2c0.7,0.1,1.5-0.3,1.9,0.9c0.1-1.2,0.1-1.2-0.8-1.2c-0.6,0-1.3,0-1.9,0
			c-0.3,0-0.5-0.1-0.9,0.2c0.6,0,0.7,0.4,0.7,0.8c0,0.9,0,1.8,0,2.6c0,0.5,0.1,1-0.6,1.2c1,0.1,2,0.1,3,0.1c0.7,0,1-0.5,0.8-1.2
			c-0.7,0.9-0.7,0.9-1.9,0.9C97.1,75.4,96.9,75.4,96.7,75.3z M120.6,86.5c-0.3-0.8-0.7-1.6-1-2.4c-0.1-0.2-0.1-0.3-0.3-0.3
			c-0.2,0-0.2,0.2-0.3,0.3c-0.5,1.1-0.9,2.1-1.4,3.1c-0.2,0.4-0.3,0.9-0.9,1.1c0.7,0.1,1.1,0.1,1.5,0c-0.2-0.2-0.5-0.1-0.5-0.5
			c0.1-0.6,0.5-1,1.1-1c0.2,0,0.4,0,0.6,0c0.6-0.1,0.7,0.4,0.9,0.8c0.3,0.5-0.1,0.6-0.4,0.8c0.8,0.1,1.4,0.1,1.9-0.1
			c-0.4-0.1-0.6-0.3-0.8-0.6C120.9,87.3,120.7,86.9,120.6,86.5z M121.5,92c0-0.5-0.4-0.3-0.6-0.3c-13.8,0-27.6,0-41.5,0
			c-0.1,0-0.3,0-0.4,0c-0.3,0-0.3,0.2-0.3,0.4c0,0.2,0,0.4,0.2,0.4c0.1,0,0.3,0,0.4,0c13.8,0,27.7,0,41.5,0c0.1,0,0.3,0,0.4,0
			c0.3-0.1,0.1-0.2,0.1-0.4C121.5,92.1,121.5,92.1,121.5,92z M78.9,80c0.1,0,0.1,0,0.2,0c0.1,0,0.2,0,0.4,0c13.8,0,27.7,0,41.5,0
			c0.3,0,0.6,0.1,0.6-0.4c0-0.5-0.3-0.4-0.6-0.4c-13.9,0-27.8,0-41.6,0C78.7,79.2,78.6,79.4,78.9,80z M100.2,66.7
			c-6.9,0-13.8,0-20.7,0c-0.1,0-0.3,0-0.4,0c-0.2,0-0.3,0.1-0.3,0.3c-0.1,0.6,0.4,0.5,0.7,0.5c13.8,0,27.6,0,41.5,0
			c0.1,0,0.2,0,0.2,0c0.4,0,0.6-0.4,0.4-0.7c-0.1-0.3-0.4-0.1-0.6-0.1C114,66.7,107.1,66.7,100.2,66.7z M108.1,59.5
			c-0.1-0.3,0.3-0.9-0.3-1c-1.1-0.1-2.1,0-3.2,0c0.6,0.2,0.5,0.6,0.5,1.1c0,0.9,0,1.8,0,2.7c0,0.3,0,0.7-0.3,1c0.9,0,1.7,0,2.5,0
			c0.8,0,1.1-0.3,1-1.2c-0.1,0-0.1,0.1-0.1,0.1c-0.5,0.7-1.5,1.1-2.2,0.7c-0.5-0.3-0.1-0.9-0.2-1.4c0-0.1,0-0.2,0-0.2
			c0-0.3,0.1-0.4,0.3-0.4c0.6,0,1.2-0.2,1.5,0.6c0-0.5,0.1-1,0-1.6c-0.3,0.6-1.3,0.9-1.7,0.6c-0.1,0-0.1-0.1-0.1-0.2
			c0-0.5,0-0.9,0-1.4c0-0.1,0.1-0.2,0.2-0.2C106.7,58.5,107.7,58.8,108.1,59.5z M83.7,70.9c0.5,0.2,0.5,0.6,0.5,1c0,0.7,0,1.5,0,2.2
			c0,1.1,0.7,1.6,1.9,1.6c1.1,0,1.8-0.6,1.8-1.6c0-0.7,0-1.4,0-2.2c0-0.5,0-0.8,0.5-1c-0.5,0-1,0-1.4,0c0.5,0.1,0.6,0.5,0.6,0.9
			c0,0.7,0,1.5,0,2.2c-0.1,0.9-0.6,1.4-1.5,1.3c-0.8,0-1.1-0.5-1.1-1.4c0-0.6,0-1.3,0-1.9c0-0.5-0.1-1,0.5-1.2
			C84.9,70.9,84.3,70.9,83.7,70.9z M99.3,100.9c-0.4-0.2-0.6-0.5-0.7-0.8c-0.5-1.2-1-2.3-1.4-3.5c-0.1-0.2-0.1-0.4-0.4-0.5
			c-0.5,1.2-1.1,2.4-1.6,3.7c-0.2,0.4-0.3,0.9-0.9,1.1c0.8,0.1,1,0.1,1.5,0c-0.2-0.2-0.5-0.1-0.5-0.5c0.1-0.6,0.5-1,1.1-1
			c0.2,0,0.4,0,0.6,0c0.6-0.1,0.6,0.4,0.8,0.7c0.2,0.3,0.1,0.6-0.3,0.8C98.2,101,98.7,101,99.3,100.9z M100.9,70.9
			c0.7,0.4,0.7,0.4,0.7,1.1c0,0.8,0,1.6,0,2.5c0,0.5,0,1-0.6,1.2c0.6,0,1.2,0,1.9,0c-0.6-0.2-0.6-0.6-0.6-1.1c0-0.2,0-0.4,0-0.6
			c0-0.2-0.1-0.4,0.1-0.5c0.3-0.1,0.4,0.1,0.6,0.3c0.3,0.5,0.7,0.9,1,1.4c0.4,0.5,0.9,0.6,1.6,0.3c-1.1-0.3-1.4-1.4-2.1-2.1
			c0.1-0.1,0.2-0.1,0.3-0.1c0.7-0.3,0.9-0.7,0.8-1.3c-0.1-0.6-0.5-0.9-1.1-1C102.7,70.9,101.8,70.9,100.9,70.9z M114.6,96.2
			c0.6,0.1,0.6,0.6,0.6,1c0,0.9,0,1.8,0,2.7c0,0.4,0,0.8-0.6,1c0.6,0,1.2,0,1.8,0c-0.5-0.1-0.6-0.5-0.6-0.9c0-0.9,0-1.8,0-2.7
			c0-0.5,0-0.9,0.6-1.1C115.9,96.2,115.3,96.2,114.6,96.2z M114.8,61.9c-0.3,1.1-1.2,1-2,1c-0.4,0-0.6-0.2-0.6-0.6
			c0-0.8,0-1.5,0-2.3c0-0.6-0.3-1.3,0.7-1.5c-0.6,0-1.3,0-1.9,0c0.5,0.2,0.5,0.6,0.5,1c0,0.9,0,1.8,0,2.7c0,0.4,0,0.8-0.6,0.9
			c1.2,0.1,2.3,0.1,3.4,0.1c0.1,0,0.3,0,0.3-0.2C114.6,62.7,114.8,62.3,114.8,61.9z M107,75.7c0.6,0,1.2,0,1.9,0
			c-0.6-0.1-0.6-0.5-0.6-1c0-0.9,0-1.7,0-2.6c0-0.5-0.1-1,0.7-1.1c-0.7-0.1-1.5-0.1-2,0c0.5,0.3,0.6,0.3,0.6,1c0,0.9,0,1.8,0,2.7
			C107.6,75.1,107.6,75.5,107,75.7z M116.4,94.7c-0.9-0.1-1,0-1.1,1.3C115.6,95.5,116,95.2,116.4,94.7z M100.6,83.5
			c0.4-0.5,0.7-0.9,1.1-1.3C100.8,82.1,100.8,82.2,100.6,83.5z"/>
		<path class="st1" d="M114.2,7.8c0.2,2.7,0.3,5.5,0.5,8.2c0,0.2,0.3,0.7-0.3,0.7c-0.4,0-0.9,0.3-1.1-0.5c-0.2-1.3-0.6-2.6-1.2-3.7
			c-0.3-0.5-0.6-1-1.2-1.4c-0.1-0.1-0.2-0.1-0.2-0.2c0,0,0,0,0,0c-0.1,0-0.1-0.1-0.2-0.1c0,0,0,0,0,0c-0.1-0.2-0.3-0.2-0.5-0.3
			c0,0,0,0,0,0c-0.1-0.2-0.3-0.1-0.4-0.1c0,0,0,0,0,0c-0.8-0.4-1.7-0.5-2.6-0.5c-4.1,0-8.2,0-12.3,0c-0.5,0-0.5,0.2-0.5,0.6
			c0,5,0,10,0,15c0,0.5,0.1,0.6,0.6,0.6c3,0,5.9,0,8.9,0c1.1,0,2.1,0,3.1-0.5c1.2-0.3,1.9-1.2,2.3-2.3c0.3-0.8,0.4-1.6,0.5-2.4
			c0.1-0.9,0.3-1.1,1.2-0.7c0,1.2,0,2.4,0,3.6c0,3.5,0,7,0,10.5c0,0,0,0,0,0.1c-0.4,0-0.7,0-1.1,0.1c0,0,0,0,0,0
			c-0.1-0.2-0.1-0.4-0.1-0.6c-0.2-1.1-0.3-2.2-0.8-3.2c0,0,0,0,0,0c-0.2-0.6-0.6-1-1.1-1.3c0,0,0,0,0,0c-0.9-0.7-1.9-0.8-3-0.9
			c-3.3-0.2-6.5,0-9.8-0.1c-0.5,0-0.6,0.2-0.6,0.7c0,4.8,0,9.5,0,14.3c0,2.5,0.7,3.2,3.2,3.2c2.9,0,5.9,0,8.8,0c0.7,0,1.4,0,2.1-0.2
			c1.9-0.2,3.5-1.2,4.8-2.6c1.3-1.4,2.3-3.1,3.3-4.7c0.3-0.4,0.8-0.7,1.3-0.5c0.3,0.1,0.1,0.3,0.1,0.4c-0.4,1.3-0.8,2.5-1.2,3.8
			c-0.1,0.1-0.1,0.3-0.1,0.4c0,0,0,0,0,0c-0.1,0.1-0.1,0.2-0.1,0.4c0,0,0,0,0,0c-0.5,1.3-1,2.7-1.4,4.1c0,0,0,0,0,0
			c-0.2,0.4-0.3,0.8-0.5,1.2c0,0,0,0,0,0c-0.2,0-0.4,0-0.6,0c-10.1,0-20.1,0-30.2,0c-1.1,0-1.1,0-1.1-1.1c1-0.1,2-0.1,3-0.3
			c1.6-0.3,2.4-1.1,2.7-2.8c0.1-0.6,0.2-1.2,0.1-1.8c0-0.2,0-0.5,0-0.7c0-8.1,0-16.3,0-24.4c0-1.5,0-3,0-4.5c0-1.1-0.1-2.2-0.9-3.1
			c0,0,0,0,0,0c0,0-0.1-0.1-0.1-0.1c0,0,0,0,0,0c-0.1-0.2-0.2-0.3-0.4-0.3c0,0,0,0,0,0c-0.1-0.2-0.4-0.3-0.6-0.3
			c-1.2-0.4-2.5-0.5-3.7-0.4c0,0-0.1-0.1-0.1-0.1c0.1-1.1,0.1-1.1,1.1-1.1c9.7,0,19.5,0,29.2,0c0.4,0,0.7,0,1.1,0
			C114.1,7.7,114.1,7.8,114.2,7.8C114.1,7.8,114.1,7.8,114.2,7.8L114.2,7.8z"/>
		<path class="st2" d="M74.7,54.5c0,0.3,0,0.6,0,0.8c0,16.2,0,32.4,0,48.6c0,0.2,0,0.5,0,0.7c0,0.3,0.1,0.4,0.4,0.4
			c0.1,0,0.2,0,0.4,0c16.3,0,32.7,0,49,0c0.2,0,0.5,0.1,0.7-0.1c-0.1,0.3-0.3,0.3-0.6,0.3c-0.6,0-1.1,0-1.7,0c-15.8,0-31.6,0-47.4,0
			c-1.1,0-1.1,0-1.1-1.1c0-16.1,0-32.2,0-48.3C74.6,55.3,74.4,54.9,74.7,54.5z"/>
		<path class="st2" d="M108.3,46.4c-0.7,0.2-1.4,0.2-2.1,0.2c-2.9,0-5.9,0-8.8,0c-2.5,0-3.2-0.7-3.2-3.2c0-4.8,0-9.5,0-14.3
			c0-0.5,0.1-0.7,0.6-0.7c3.3,0.1,6.5-0.1,9.8,0.1c1,0.1,2.1,0.2,3,0.9c-1.7-0.7-3.5-0.7-5.3-0.7c-2.4,0-4.8,0-7.2,0
			c-0.6,0-0.8,0.2-0.8,0.8c0,4.6,0,9.2,0,13.8c0,0.6-0.1,1.3,0.2,1.9c0.4,0.8,1,1.1,1.8,1.2c3.3,0.2,6.6,0.1,9.9,0.1
			C107.1,46.4,107.7,46.3,108.3,46.4z"/>
		<path class="st2" d="M82.6,47.7c0.1,1.1,0.1,1.1,1.1,1.1c10.1,0,20.1,0,30.2,0c0.2,0,0.4,0,0.6,0c-0.2,0.4-0.5,0.2-0.8,0.2
			c-4.6,0-9.3,0-13.9,0c-5.3,0-10.6,0-15.8,0c-0.1,0-0.3,0-0.4,0C82.3,49,82.2,48.8,82.6,47.7z"/>
		<path class="st2" d="M125.3,54.5c-0.2-0.2-0.5-0.1-0.8-0.1c-16.4,0-32.8,0-49.2,0c-0.2,0-0.4,0-0.6,0c0.1-0.2,0.3-0.2,0.4-0.2
			c16.4,0,32.7,0,49.1,0C124.6,54.3,125.1,53.9,125.3,54.5z"/>
		<path class="st2" d="M125.3,104.8c0-0.6,0-1.1,0-1.7c0-16.1,0-32.1,0-48.2c0-0.2,0-0.3,0-0.5c0.2,0.2,0.2,0.5,0.2,0.7
			c0,16.3,0,32.6,0,48.9C125.4,104.4,125.5,104.6,125.3,104.8z"/>
		<path class="st2" d="M106.8,25.7c-1,0.4-2.1,0.5-3.1,0.5c-3,0-5.9,0-8.9,0c-0.5,0-0.6-0.1-0.6-0.6c0-5,0-10,0-15
			c0-0.4,0-0.6,0.5-0.6c4.1,0,8.2,0,12.3,0c0.9,0,1.8,0,2.6,0.5c-4.8-0.7-9.7-0.2-14.5-0.4c-0.5,0-0.7,0.2-0.7,0.7
			c0,4.8,0,9.7,0,14.5c0,0.5,0.2,0.7,0.7,0.7c2.9,0,5.8,0,8.8,0C104.9,26.1,105.9,25.9,106.8,25.7z"/>
		<path class="st2" d="M87.5,10.1c0.8,0.9,0.8,2,0.9,3.1c0.1,1.5,0,3,0,4.5c0,8.1,0,16.3,0,24.4c0,0.2,0,0.5,0,0.7
			c-0.2-0.3-0.1-0.6-0.1-0.9c0-9.3,0-18.6,0-27.9c0-1-0.1-1.9-0.4-2.9C87.8,10.8,87.3,10.6,87.5,10.1z"/>
		<path class="st2" d="M114,7.7c-0.4,0-0.7,0-1.1,0c-9.7,0-19.5,0-29.2,0c-1.1,0-1.1,0-1.1,1.1c-0.4-0.3-0.2-0.6-0.1-1
			c0.1-0.3,0.5-0.3,0.8-0.3c9.8,0,19.5,0,29.3,0c0.4,0,0.8,0,1.2-0.1C113.9,7.5,114,7.5,114,7.7z"/>
		<path class="st2" d="M110.9,34.5c0-3.5,0-7,0-10.5c0-1.2,0-2.4,0-3.6c0.2,0,0.2,0.1,0.2,0.3c0,4.4,0,8.8,0,13.2
			C111,34,111,34.3,110.9,34.5z"/>
		<path class="st2" d="M82.6,8.9c1.3,0,2.5,0,3.7,0.4c0.2,0.1,0.4,0.1,0.6,0.3c-1.3-0.4-2.6-0.6-4-0.6C82.8,9,82.7,8.9,82.6,8.9z"/>
		<path class="st2" d="M114.9,47.6c0.4-1.4,0.9-2.7,1.4-4.1c0.1,0.6-0.2,1.1-0.4,1.7c-0.2,0.7-0.5,1.3-0.6,2
			C115.2,47.3,115.1,47.5,114.9,47.6z"/>
		<path class="st2" d="M108.8,30.8c0.6,1,0.7,2.1,0.8,3.2c0,0.2,0,0.4,0.1,0.6c-0.3-0.1-0.3-0.3-0.3-0.5c-0.1-1-0.3-2-0.7-3
			C108.8,31,108.8,30.9,108.8,30.8z"/>
		<path class="st2" d="M107.6,29.4c0.5,0.3,0.9,0.8,1.1,1.3C108.3,30.4,107.9,30,107.6,29.4z"/>
		<path class="st2" d="M114.4,48.8c0.2-0.4,0.2-0.8,0.5-1.2C114.8,48,115,48.6,114.4,48.8z"/>
		<path class="st2" d="M109.8,34.6c0.4,0,0.7,0,1.1-0.1C110.5,34.9,110.1,34.8,109.8,34.6z"/>
		<path class="st2" d="M110,10.6c0.2,0,0.4,0.1,0.5,0.3C110.3,10.9,110.1,10.9,110,10.6z"/>
		<path class="st2" d="M86.9,9.7c0.2,0,0.3,0.2,0.4,0.3C87.1,10,87,9.9,86.9,9.7z"/>
		<path class="st2" d="M116.3,43.5c0-0.1,0-0.3,0.1-0.4C116.4,43.3,116.4,43.4,116.3,43.5z"/>
		<path class="st2" d="M116.4,43.1c0-0.1,0-0.3,0.1-0.4C116.5,42.9,116.5,43,116.4,43.1z"/>
		<path class="st2" d="M109.6,10.5c0.1,0,0.3,0,0.4,0.1C109.9,10.7,109.7,10.6,109.6,10.5z"/>
		<path class="st2" d="M110.7,11c0.1,0.1,0.2,0.1,0.2,0.2C110.8,11.1,110.7,11.1,110.7,11z"/>
		<path class="st2" d="M87.4,10c0,0,0.1,0.1,0.1,0.1C87.4,10.1,87.4,10,87.4,10z"/>
		<path class="st2" d="M110.5,10.9c0.1,0,0.1,0.1,0.2,0.1C110.6,10.9,110.6,10.9,110.5,10.9z"/>
		<path class="st2" d="M114.2,7.8L114.2,7.8C114.1,7.8,114.1,7.8,114.2,7.8C114.2,7.8,114.2,7.8,114.2,7.8z"/>
		<path class="st0" d="M79.1,80c-0.1,0-0.1,0-0.2,0c-0.1-0.7,0.3-0.7,0.8-0.7c13.6,0,27.2,0,40.7,0c0.3,0,0.9-0.2,0.9,0.3
			c0,0.5-0.6,0.3-0.9,0.3c-13.4,0-26.8,0-40.2,0C79.9,79.9,79.5,79.8,79.1,80z"/>
		<path class="st0" d="M121.5,92c0,0.1,0,0.1,0,0.2c-0.3,0.3-0.6,0.2-1,0.2c-13.3,0-26.6,0-39.9,0c-0.3,0-0.7,0-1,0
			c-0.2,0-0.5,0.1-0.5-0.2c0-0.3,0.3-0.2,0.5-0.2c0.1,0,0.1,0,0.2,0c13.6,0,27.3,0,40.9,0C120.9,91.9,121.2,91.9,121.5,92z"/>
		<path class="st2" d="M100.2,66.7c6.9,0,13.8,0,20.7,0c0.2,0,0.5-0.1,0.6,0.1c0.2,0.3,0,0.6-0.4,0.7c-0.1,0-0.2,0-0.2,0
			c-13.8,0-27.6,0-41.5,0c-0.3,0-0.7,0.1-0.7-0.5c0-0.2,0.1-0.3,0.3-0.3c0.1,0,0.3,0,0.4,0C86.4,66.7,93.3,66.7,100.2,66.7z
			 M100.3,67.3c6.7,0,13.4,0,20.1,0c0.3,0,1,0.2,1-0.2c0-0.5-0.6-0.3-1-0.3c-13.5,0-27,0-40.5,0c-0.3,0-0.8-0.2-0.8,0.3
			c0,0.4,0.5,0.2,0.8,0.2C86.7,67.3,93.5,67.3,100.3,67.3z"/>
		<path class="st2" d="M121.5,92c-0.3-0.1-0.6-0.1-0.9-0.1c-13.6,0-27.3,0-40.9,0c-0.1,0-0.1,0-0.2,0c-0.2,0-0.5-0.1-0.5,0.2
			c0,0.3,0.3,0.2,0.5,0.2c0.3,0,0.7,0,1,0c13.3,0,26.6,0,39.9,0c0.3,0,0.7,0.1,1-0.2c0.1,0.1,0.2,0.3-0.1,0.4c-0.1,0-0.3,0-0.4,0
			c-13.8,0-27.7,0-41.5,0c-0.1,0-0.3,0-0.4,0c-0.3,0-0.2-0.2-0.2-0.4c0-0.2,0-0.4,0.3-0.4c0.1,0,0.3,0,0.4,0c13.8,0,27.6,0,41.5,0
			C121.1,91.8,121.5,91.5,121.5,92z"/>
		<path class="st2" d="M79.1,80c0.4-0.2,0.7-0.1,1.1-0.1c13.4,0,26.8,0,40.2,0c0.3,0,0.9,0.2,0.9-0.3c0-0.5-0.6-0.3-0.9-0.3
			c-13.6,0-27.2,0-40.7,0c-0.5,0-1,0-0.8,0.7c-0.3-0.6-0.2-0.8,0.4-0.8c13.9,0,27.8,0,41.6,0c0.3,0,0.6-0.1,0.6,0.4
			c0,0.5-0.3,0.4-0.6,0.4c-13.8,0-27.7,0-41.5,0C79.4,80,79.3,80,79.1,80z"/>
		<path class="st2" d="M108.1,59.5c-0.4-0.6-1.4-0.9-2.1-0.7c-0.1,0-0.2,0.1-0.2,0.2c0,0.5,0,0.9,0,1.4c0,0.1,0,0.2,0.1,0.2
			c0.4,0.3,1.4-0.1,1.7-0.6c0.1,0.6,0,1.1,0,1.6c-0.3-0.8-0.9-0.6-1.5-0.6c-0.3,0-0.4,0.1-0.3,0.4c0,0.1,0,0.2,0,0.2
			c0.1,0.5-0.3,1.1,0.2,1.4c0.7,0.4,1.7-0.1,2.2-0.7c0,0,0.1-0.1,0.1-0.1c0.1,0.9-0.2,1.2-1,1.2c-0.8,0-1.7,0-2.5,0
			c0.3-0.3,0.3-0.6,0.3-1c0-0.9,0-1.8,0-2.7c0-0.4,0.1-0.9-0.5-1.1c1.1,0,2.2-0.1,3.2,0C108.4,58.5,108,59.1,108.1,59.5z"/>
		<path class="st2" d="M83.7,70.9c0.6,0,1.2,0,1.8,0c-0.7,0.2-0.5,0.7-0.5,1.2c0,0.6,0,1.3,0,1.9c0,0.9,0.4,1.4,1.1,1.4
			c0.8,0,1.4-0.4,1.5-1.3c0-0.7,0-1.5,0-2.2c0-0.4-0.1-0.8-0.6-0.9c0.5,0,1,0,1.4,0c-0.5,0.2-0.5,0.6-0.5,1c0,0.7,0,1.4,0,2.2
			c0,1.1-0.7,1.6-1.8,1.6c-1.2,0-1.8-0.5-1.9-1.6c0-0.7,0-1.5,0-2.2C84.2,71.5,84.2,71.1,83.7,70.9z"/>
		<path class="st2" d="M99.3,100.9c-0.6,0.1-1.2,0.1-1.8,0c0.5-0.1,0.5-0.4,0.3-0.8c-0.2-0.3-0.2-0.8-0.8-0.7c-0.2,0-0.4,0-0.6,0
			c-0.7,0-1,0.3-1.1,1c-0.1,0.4,0.3,0.3,0.5,0.5c-0.4,0.1-0.7,0.1-1.5,0c0.5-0.2,0.7-0.7,0.9-1.1c0.5-1.2,1-2.4,1.6-3.7
			c0.3,0.1,0.3,0.3,0.4,0.5c0.5,1.1,1,2.3,1.4,3.5C98.7,100.4,98.9,100.7,99.3,100.9z M97.4,99.1c-0.3-0.6-0.5-1.1-0.7-1.8
			c-0.3,0.7-0.5,1.2-0.8,1.8C96.4,99.1,96.9,99.1,97.4,99.1z"/>
		<path class="st2" d="M100.9,70.9c1,0,1.8-0.1,2.6,0.1c0.6,0.1,1,0.4,1.1,1c0.1,0.6-0.1,1-0.8,1.3c-0.1,0-0.1,0.1-0.3,0.1
			c0.7,0.7,1,1.8,2.1,2.1c-0.7,0.3-1.2,0.2-1.6-0.3c-0.3-0.5-0.7-0.9-1-1.4c-0.1-0.2-0.3-0.4-0.6-0.3c-0.3,0.1-0.1,0.4-0.1,0.5
			c0,0.2,0,0.4,0,0.6c0,0.5,0,0.9,0.6,1.1c-0.6,0-1.2,0-1.9,0c0.6-0.2,0.6-0.7,0.6-1.2c0-0.8,0-1.6,0-2.5
			C101.6,71.3,101.6,71.3,100.9,70.9z M103.7,71.7c-0.1-0.1-0.1-0.1-0.2-0.2c-0.3-0.3-0.7-0.3-1.1-0.2c-0.4,0.1-0.1,0.5-0.2,0.8
			c0,0.3,0,0.5,0,0.8c0,0.4,0.2,0.4,0.5,0.4C103.6,73.1,103.8,72.7,103.7,71.7c0.5,0.4,0.1,0.9,0.1,1.3c0.9-0.4,0.7-1.2,0.3-1.5
			C103.8,71.2,103.7,71.4,103.7,71.7z M102,71.4c-0.1,0-0.2,0-0.2,0c0,1.2,0,2.5,0,3.7c0,0.1,0,0.2,0.2,0.2c0.2,0,0.2-0.1,0.2-0.3
			c0-0.3,0-0.6,0-0.9C102,73.3,102,72.4,102,71.4z"/>
		<path class="st0" d="M110.1,97.8c0.3,0.9,0.1,1.8-0.5,2.5c-0.7,0.8-1.5,0.8-2.4,0.6c-0.8-0.1-1.5-1.2-1.5-2.2
			c0.1-0.4,0.2-0.7,0.1-1.1c0,0,0,0,0,0c0-0.1,0.1-0.2,0.1-0.3c0,0,0,0,0,0c0.1-0.1,0.1-0.1,0.1-0.3c0,0,0,0,0,0
			c0.2-0.1,0.4-0.3,0.5-0.5c0,0,0,0,0,0c0.1,0,0.2-0.1,0.3-0.2c0,0,0,0,0,0c0.1,0.1,0.3,0.1,0.4,0.2c-0.5,0.4-0.6,1-0.7,1.6
			c-0.2,0.3-0.2,0.5,0,0.8c0,0.1,0,0.2,0.1,0.3c-0.1,0.1-0.1,0.3,0.1,0.4c0,0.1,0.1,0.1,0.1,0.2c0.3,0.6,0.7,0.9,1.3,0.9
			c0.7,0,1-0.4,1.2-1c0.3-1,0.3-2-0.2-2.9c0.1-0.1-0.2-0.4,0.1-0.4c0,0,0,0,0,0c0,0,0.1,0.1,0.1,0.1c0,0,0,0,0,0
			c0,0,0.1,0.1,0.1,0.1c0,0,0,0,0,0c0,0,0.1,0.1,0.1,0.1c0,0,0,0,0,0c0.1,0,0.1,0.1,0.2,0.1c0,0,0,0,0,0c0,0.1,0.1,0.2,0.2,0.3
			c0,0,0,0,0,0C109.9,97.5,109.9,97.7,110.1,97.8z"/>
		<path class="st2" d="M96.1,84.6c-0.6,1.3-1.1,2.5-1.8,4c-0.5-1.2-1-2.2-1.5-3.2c0.3,0,0.4,0.2,0.5,0.5c0,0.1,0.1,0.2,0.2,0.2
			c0.1,0,0.2-0.2,0.1-0.2c-0.4-0.6-0.5-1.2-0.9-1.8c-0.1-0.1-0.2-0.2-0.4-0.1c-0.2,0.1-0.2,0.3-0.1,0.4c0.1,0.2,0.1,0.4,0.2,0.6
			c0,0.8,0,1.6,0,2.5c0,0.5,0,0.9,0.7,1c-0.6,0.2-1.1,0.1-1.6,0c0.7-0.1,0.6-0.6,0.6-1.1c0-0.9,0-1.8,0-2.6c0-0.4,0-0.8-0.6-0.8
			c0.9-0.4,1.3-0.2,1.7,0.6c0.4,0.9,0.9,1.9,1.4,2.9c0.4-0.9,0.8-1.8,1.2-2.6c0.5-1,0.5-1,1.7-1c-0.1,0.3-0.3,0.2-0.5,0.2
			C96.3,83.7,96.2,83.7,96.1,84.6z"/>
		<path class="st0" d="M80.9,100.3c-0.3-0.4-0.6-0.8-0.9-1.2c-0.2-0.2-0.4-0.4-0.7-0.3c-0.3,0.1,0,0.3-0.1,0.5c0,0.3,0,0.7,0,1
			c-0.2,0.7-0.2,0.7-0.7,0.3c0,0,0,0,0,0c0.2-0.1,0.2-0.2,0.2-0.4c0-1,0-2.1,0-3.1c0-0.2-0.1-0.4,0.1-0.6c0.2-0.1,0.4,0,0.6,0.1
			c-0.1,0-0.2,0-0.2,0.1c0,0.6-0.2,1.2,0.1,1.7c1,0.2,1.5-0.3,1.5-1.2c0-0.6-0.5-0.6-0.8-0.8c0.1,0,0.2-0.1,0.4-0.1
			c0.2,0.1,0.5,0.1,0.7,0.2c0.8,0.4,0.8,1.5-0.1,2c-0.4,0.2-0.3,0.3-0.1,0.6c0.4,0.5,0.7,1,1.1,1.5c-0.3,0.5-0.5-0.1-0.8-0.1
			c0,0,0,0,0,0C81.1,100.4,81,100.3,80.9,100.3z"/>
		<path class="st2" d="M81.1,100.6c0.3,0,0.5,0.6,0.8,0.1c1.4,0.3,1.4,0.3,1.4-1.2c0-0.7,0-1.4,0-2.1c0-0.5,0.1-0.9-0.6-1.1
			c1.1,0,2.2,0,3.3,0c0.2,0,0.3,0.1,0.3,0.3c0,0.2,0,0.5,0,0.8c-0.3-1-1.1-0.8-1.8-0.8c-0.4,0-0.5,0.2-0.5,0.5c0,0.4,0,0.9,0,1.3
			c-0.4-0.5-0.1-1-0.2-1.5c0-0.2,0-0.4-0.2-0.4c-0.3,0-0.2,0.2-0.2,0.4c0,1.2,0.1,2.3,0,3.5c0,0.2,0,0.5,0.2,0.5
			c0.3,0,0.2-0.2,0.2-0.4c0.1-0.5-0.2-1.1,0.1-1.6c0,0.5,0,0.9,0,1.4c0,0.4,0.1,0.6,0.5,0.6c0.8,0,1.7,0.1,2-1.1
			c0.1,1-0.2,1.4-0.9,1.4c-1.3,0-2.6,0-3.9,0C81.4,101,81.2,100.9,81.1,100.6z"/>
		<path class="st2" d="M121,87.7c0.2,0.3,0.4,0.5,0.8,0.6c-0.5,0.2-1.2,0.2-1.9,0.1c0.3-0.2,0.7-0.3,0.4-0.8
			c-0.2-0.4-0.2-0.9-0.9-0.8c-0.2,0-0.4,0-0.6,0c-0.6,0-1,0.4-1.1,1c0,0.4,0.3,0.3,0.5,0.5c-0.4,0.2-0.8,0.2-1.5,0
			c0.5-0.2,0.7-0.7,0.9-1.1c0.5-1.1,0.9-2.1,1.4-3.1c0.1-0.1,0.1-0.3,0.3-0.3c0.2,0,0.3,0.2,0.3,0.3c0.3,0.8,0.7,1.6,1,2.4
			c0,0,0,0-0.1,0.1c-0.2-0.1-0.1-0.5-0.4-0.3c-0.2,0.2-0.1,0.4,0,0.5c0.1,0.2,0.2,0.3,0.4,0.4l0,0c0,0.2,0,0.3,0,0.5
			c0,0.2,0,0.4,0.2,0.4C121,88.1,121,87.9,121,87.7C121,87.7,121,87.7,121,87.7z M119.1,84.8c-0.2,0.2-0.3,0.5-0.4,0.7
			c-0.5,1.1-0.4,1.1,0.7,1c0.3,0,0.3-0.1,0.2-0.4C119.5,85.7,119.3,85.3,119.1,84.8z"/>
		<path class="st2" d="M96.7,75.3c0.2,0,0.4,0,0.6,0c1.2,0,1.2,0,1.9-0.9c0.2,0.7-0.1,1.2-0.8,1.2c-1,0-2,0-3-0.1
			c0.7-0.2,0.6-0.7,0.6-1.2c0-0.9,0-1.8,0-2.6c0-0.4,0-0.7-0.7-0.8c0.4-0.2,0.7-0.1,0.9-0.2c0.6,0,1.3,0,1.9,0c0.9,0,0.9,0,0.8,1.2
			c-0.3-1.2-1.2-0.9-1.9-0.9c-0.2,0-0.4,0-0.4,0.2c0,0.5,0,0.9,0,1.4c0,0.1,0,0.1,0.1,0.2c0.5,0.2,1.4-0.1,1.7-0.6
			c0,0.2,0,0.5,0,0.7c0,0.3,0,0.5,0,0.9c-0.3-0.3-0.3-0.6-0.7-0.7c-1.1-0.2-1.2-0.1-1.2,1C96.7,74.7,96.7,75,96.7,75.3
			c-0.2-0.2-0.2-0.5-0.2-0.8c0-1,0-2,0-3c0-0.2,0-0.4-0.3-0.4c-0.3,0-0.2,0.3-0.2,0.4c0,1.2,0,2.3,0,3.5c0,0.2,0,0.4,0.2,0.5
			C96.4,75.6,96.6,75.5,96.7,75.3z"/>
		<path class="st2" d="M82.7,85.1c0.6,1.6-0.2,3-1.9,3.3c-0.2,0-0.4,0.1-0.7,0.1c-0.7,0-1.3,0-2-0.1c0.8-0.2,0.6-0.8,0.6-1.3
			c0-0.8,0-1.6,0-2.4c0-0.4,0.1-0.9-0.6-1c1.1,0,2.2-0.2,3.2,0.1c0.5,0.1,0.9,0.4,1.1,0.8c0,0,0,0,0,0c-0.2-0.2-0.4-0.4-0.7-0.5
			c-0.3-0.2-0.4-0.1-0.4,0.2c-0.4-0.4-0.9-0.5-1.5-0.4c-0.3,0-0.4,0.1-0.4,0.4c0,1.1,0,2.2,0,3.3c0,0.3,0.1,0.4,0.4,0.4
			c0.8,0.1,1.5-0.2,2-0.9c0,0.1-0.1,0.3,0.1,0.4c0.1,0,0.2-0.1,0.3-0.2C82.8,86.7,82.8,85.9,82.7,85.1L82.7,85.1z M79.4,86
			C79.4,86,79.4,86,79.4,86c0-0.6,0-1.2,0-1.7c0-0.2,0.1-0.5-0.2-0.5c-0.3,0-0.2,0.3-0.2,0.5c0,1.2,0.2,2.4,0,3.6
			c0,0.2,0,0.3,0.3,0.3c0.2,0,0.2-0.2,0.2-0.3C79.4,87.3,79.4,86.7,79.4,86z"/>
		<path class="st2" d="M79.3,60.5c0.3,0,0.5,0,0.8,0c0.5,0,0.9,0,1-0.6c0.1,0.5,0.1,1,0.1,1.6c-0.4-0.6-1-0.8-1.6-0.6
			c-0.2,0.1-0.2,0.2-0.2,0.4c0,0.3,0,0.7,0,1c0,0.7,0.1,0.8,0.8,0.8c0.6-0.1,1.2-0.2,1.6-0.9c0.1,0.8,0,1.1-0.7,1.1
			c-0.9,0-1.9,0-2.8,0c0,0-0.1,0-0.2-0.1c0.6,0,0.6-0.4,0.6-0.8c0-0.9,0-1.8,0-2.8c0-0.4,0-0.8-0.5-1c1.1,0,2.2-0.1,3.3,0
			c0.6,0.1,0.2,0.6,0.3,1c-0.5-1.2-1.5-0.7-2.3-0.7l0,0c0-0.3-0.2-0.2-0.3-0.2c-0.2,0-0.3,0.2-0.3,0.4c0,1.2,0,2.3,0,3.5
			c0,0.2,0,0.4,0.2,0.4c0.3,0,0.2-0.3,0.2-0.4C79.1,61.9,79,61.2,79.3,60.5C79.2,60.6,79.3,60.5,79.3,60.5z"/>
		<path class="st0" d="M90,97c-0.1-0.2-0.2-0.3-0.4-0.5c0.2-0.1,0.5-0.2,0.7-0.2c0.8,1,1.6,2,2.5,3c0.1,0.1,0.1,0.4,0.4,0.2
			c0.2,0.4,0.4,0.9-0.1,1.2c-0.9-1.1-1.8-2.2-2.8-3.3c-0.4,0.2,0.1,0.8-0.3,1c0-0.1,0-0.2,0-0.3c0,0,0,0,0,0c0,0,0-0.1,0-0.1
			c0-0.1,0-0.3,0-0.4c0,0,0,0,0,0c0,0,0,0,0-0.1C90,97.3,90,97.2,90,97C90,97.1,90.1,97,90,97L90,97z"/>
		<path class="st2" d="M114.6,96.2c0.6,0,1.2,0,1.8,0c-0.6,0.2-0.6,0.6-0.6,1.1c0,0.9,0,1.8,0,2.7c0,0.4,0,0.8,0.6,0.9
			c-0.6,0-1.2,0-1.8,0c0.5-0.1,0.6-0.5,0.6-1c0-0.9,0-1.8,0-2.7C115.2,96.8,115.2,96.4,114.6,96.2z"/>
		<path class="st2" d="M114.8,61.9c0.1,0.5-0.1,0.8-0.2,1.2c0,0.1-0.2,0.2-0.3,0.2c-1.1,0-2.2,0-3.4-0.1c0.6-0.1,0.6-0.5,0.6-0.9
			c0-0.9,0-1.8,0-2.7c0-0.4,0-0.8-0.5-1c0.6,0,1.3,0,1.9,0c-0.9,0.2-0.7,0.9-0.7,1.5c0,0.8,0,1.5,0,2.3c0,0.4,0.1,0.6,0.6,0.6
			C113.6,62.9,114.4,63,114.8,61.9z M111.6,61C111.6,61,111.6,61,111.6,61c0,0.5,0,1,0,1.5c0,0.2-0.1,0.5,0.2,0.5
			c0.3,0,0.2-0.3,0.2-0.4c0-1.1,0.2-2.2,0-3.4c0-0.2,0.3-0.5-0.1-0.5c-0.4-0.1-0.4,0.3-0.4,0.6C111.6,59.8,111.6,60.4,111.6,61z"/>
		<path class="st2" d="M107,75.7c0.6-0.1,0.6-0.5,0.6-0.9c0-0.9,0-1.8,0-2.7c0-0.7,0-0.7-0.6-1c0.5-0.1,1.2-0.1,2,0
			c-0.8,0.1-0.7,0.6-0.7,1.1c0,0.9,0,1.7,0,2.6c0,0.4,0,0.8,0.6,1C108.3,75.7,107.6,75.7,107,75.7z"/>
		<path class="st2" d="M112,98.3c0.2,0,0.4,0,0.6,0c0.4,0,0.8-0.1,0.9-0.6c0.1,0.5,0.1,1,0.1,1.7c-0.2-0.4-0.2-0.7-0.6-0.7
			c-0.8-0.1-1,0-1,0.8c0,0.2,0,0.3,0,0.5c0,0.4,0,0.8,0.6,0.9c-0.6,0.1-1.3,0.1-1.9,0c0.6-0.1,0.6-0.4,0.6-0.9c0-0.9,0-1.9,0-2.8
			c0-0.7,0-0.7-0.7-1c1.2,0,2.3,0,3.3,0c0.3,0,0.3,0.1,0.3,0.3c0,0.2,0,0.4,0,0.7c-0.4-1.1-1.4-0.7-2.1-0.8
			c-0.3-0.1-0.6-0.2-0.6,0.3c0,1.2,0,2.4,0,3.6c0,0.3,0.2,0.5,0.5,0.5c0,0,0,0,0,0C111.9,100,111.7,99.1,112,98.3z"/>
		<path class="st2" d="M120.4,61.8c0.3,0.4,0.3,1.1,1,1.4c-0.6,0-1.1,0-1.7,0c0.3-0.1,0.5-0.4,0.3-0.7c-0.2-0.3-0.1-0.9-0.7-0.8
			c-0.2,0-0.5,0-0.7,0c-0.6-0.1-0.9,0.2-1.1,0.7c-0.1,0.4-0.1,0.6,0.4,0.7c-0.5,0.1-0.9,0.1-1.6,0c0.6-0.2,0.8-0.6,0.9-0.9
			c0.5-1.1,1-2.2,1.4-3.3c0,0.2,0,0.4,0,0.7c-0.1,0.2-0.2,0.4-0.2,0.6c-0.1,0.4-0.6,0.8-0.3,1.1c0.3,0.4,0.9,0.1,1.3,0.1
			c0.2,0.1,0.3,0.3,0.4,0.5C120.1,62.3,120.3,62.1,120.4,61.8z M120.6,62.7c0-0.1-0.1-0.2-0.2-0.3c-0.1,0-0.2,0.1-0.2,0.2
			c0,0.1,0,0.3,0.2,0.3C120.5,63,120.6,62.9,120.6,62.7z"/>
		<path class="st2" d="M119.7,71.8c-0.2-0.2-0.3-0.5-0.6-0.5c-0.6-0.1-0.8,0-0.8,0.6c0,0.6,0,1.3,0,1.9c-0.2,0-0.1-0.2-0.1-0.3
			c-0.1-0.8-0.1-1.6-0.1-2.5c-0.3,0.2-0.3,0.5-0.3,0.7c0,0.8,0,1.5,0,2.3c0,0.4,0.1,0.9-0.2,1.3c0-1.2,0-2.4,0-3.6
			c0-0.4-0.2-0.6-0.5-0.7c0.8,0,1.5,0,2.3,0c0.8,0.1,1.3,0.5,1.3,1.1c0.1,0.6-0.3,1-1.1,1.3c-0.1-0.1-0.2-0.2-0.3-0.3
			c0.1-0.3,0.5-0.3,0.6-0.6l0,0c0,0.1-0.1,0.3,0.1,0.4c0.1,0.1,0.2-0.1,0.3-0.2c0.4-0.7,0.2-1.1-0.6-1.5
			C119.7,71.4,119.7,71.6,119.7,71.8C119.8,71.8,119.7,71.8,119.7,71.8z"/>
		<path class="st0" d="M104.4,99.8c-0.4-0.6-1-0.8-1.6-1.2c-0.8-0.5-1.1-1-0.7-1.8c0.2,0,0.3,0.1,0.4,0.2c0,0.4,0.1,0.6,0.5,0.8
			c0.4,0.2,0.9,0.5,1.3,0.7c0.9,0.5,1,1.6,0.2,2.3c-0.1,0-0.2-0.1-0.3-0.2c0,0,0,0,0,0C104.6,100.4,104.7,100.2,104.4,99.8z"/>
		<path class="st0" d="M119.6,96.9C119.6,96.9,119.6,96.9,119.6,96.9c0,0.1,0.1,0.2,0.1,0.2c0,0,0,0,0,0c0,0.1,0,0.3,0.1,0.4
			c0,0,0,0,0,0c0,0.2,0,0.3,0.2,0.4c0,0,0,0,0,0c0,0.1,0,0.2,0.1,0.3c0.3,0.7,0.6,1.3,0.8,2c0.2,0.4,0.3,0.7,0.9,0.9
			c-0.7,0.1-1.2,0.1-1.9,0.1c0.5-0.3,0.3-0.7,0.2-1c0-0.2,0-0.3-0.2-0.4c0,0,0,0,0,0c0-0.2-0.1-0.3-0.2-0.4
			c-0.2-0.6-0.4-1.2-0.8-1.7c0-0.2,0-0.4,0-0.7c0,0,0,0,0,0C119.3,96.4,119.4,96.7,119.6,96.9z"/>
		<path class="st0" d="M81.2,74.6c-0.2-0.5-0.7-0.7-1.1-0.9c-0.4-0.2-0.7-0.4-1-0.7c-0.4-0.4-0.5-0.9-0.2-1.4
			c0.3,0.1,0.2,0.4,0.4,0.5c0.3,0.5,0.8,0.7,1.2,0.9c0.3,0.2,0.6,0.3,0.9,0.6c0,0,0.1,0.1,0.1,0.1c0,0,0,0,0,0
			c0,0.2,0.1,0.3,0.3,0.4c0,0,0,0,0,0c0.1,0.4-0.1,0.9-0.2,1.3c0,0,0,0,0,0C81.2,75.2,81.3,74.8,81.2,74.6z"/>
		<path class="st2" d="M98.6,62.5c0.5,0.5,1.1,0.6,1.7,0.4c0.6-0.3,0.8-0.8,0.7-1.4c0-0.7,0-1.4,0-2c0-0.4,0-0.8-0.6-0.8
			c0.5-0.2,1-0.1,1.6-0.1c-0.9,0.4-0.6,1.2-0.6,1.8c0,0.4,0,0.9,0,1.3c0,0.9-0.4,1.4-1.1,1.6c-1,0.3-1.9,0-2.3-0.7
			C98.2,62.5,98.5,63,98.6,62.5z"/>
		<path class="st0" d="M105.2,85.2c0.6,0.2,1.2,0.5,1.7,0.9c0.8,0.6,0.8,1.3,0.2,2c0,0-0.1,0.1-0.1,0.1c0,0,0,0,0,0
			c-0.1-0.1-0.4,0.3-0.5-0.1c0.6-0.5,0.5-0.9-0.1-1.4c-0.6-0.4-1.3-0.6-1.7-1.2c0-0.3-0.2-0.5,0-0.8C104.9,84.8,105,85.2,105.2,85.2
			z"/>
		<path class="st2" d="M84.4,83.7c0.8,0,1.5,0,2.3,0c0.9,0,0.9,0,0.8,1.1c-0.2-0.4-0.3-0.8-0.8-0.8c-0.4,0-0.8,0-1.2,0
			c-0.1,0-0.2,0.1-0.2,0.2c0,0.5,0,0.9,0,1.4c0,0.1,0.1,0.2,0.2,0.2c0.5,0.2,1.3-0.1,1.6-0.7c0,0.6,0,1.1,0,1.7
			c-0.2-0.3-0.2-0.6-0.7-0.7c-1.1-0.1-1.2-0.1-1.2,1c0,0.1,0,0.3,0,0.4c-0.2-0.2-0.2-0.4-0.1-0.6c0.2-0.8-0.1-1.6,0-2.4
			C85.1,84,85,83.7,84.4,83.7z"/>
		<path class="st2" d="M99.9,87.8c0.5,0.4,1.1,0.5,1.7,0.2c0.6-0.3,0.6-0.9,0.7-1.4c0-0.6,0-1.2,0-1.8c0-0.5,0-0.9-0.6-1
			c0.5,0,1,0,1.5,0c-0.7,0.2-0.6,0.7-0.6,1.2c0,0.6,0,1.2,0,1.8c0,0.7-0.2,1.4-1,1.6c-0.8,0.3-1.7,0.3-2.3-0.4c0,0,0,0,0.1-0.1
			C99.6,88.1,99.8,88,99.9,87.8z"/>
		<path class="st0" d="M91.6,63c-1.4-1-1.6-2.7-0.4-4c0.1,0,0.3,0,0.4,0l0,0c0,0.2-0.1,0.3-0.1,0.5c0,0,0,0,0,0
			c-0.4,0.7-0.4,2.1,0,2.6c0,0,0,0,0,0c0,0.1,0.1,0.1,0.1,0.2c0,0,0,0,0,0c0,0.1,0.1,0.2,0.2,0.2c0,0,0,0,0,0c0,0,0.1,0.1,0.1,0.1
			c0,0,0,0,0,0c0,0.1,0.1,0.2,0.2,0.2c0,0,0,0,0,0c0,0.1,0.2,0.2,0.2,0.4C92,63.1,91.8,63,91.6,63z"/>
		<path class="st0" d="M110.1,83.9L110.1,83.9C110.1,84,110,84,110.1,83.9c-0.4,0.5-0.2,1.1-0.2,1.7c0,0.8-0.2,1.6,0.1,2.4
			c0,0,0,0,0,0c-0.2,0.6-0.5,0.3-0.8,0.1c0-1.3,0-2.5,0.1-3.8c0.1-0.1,0.2-0.2-0.1-0.2c0,0,0,0,0,0C109.5,83.6,109.8,84,110.1,83.9z
			"/>
		<path class="st2" d="M119,96.7c0,0.2,0,0.4,0,0.7c-0.2,0.5-0.4,1.1-0.7,1.7c0.5,0,1,0,1.5,0c0.1,0.1,0.2,0.2,0.2,0.4
			c-0.5-0.2-1.1-0.1-1.6-0.1c-0.5,0-0.5,0.6-0.6,1c-0.1,0.3,0.3,0.3,0.5,0.5c-0.5,0.2-1,0-1.5,0c0.5-0.3,0.6-0.8,0.8-1.2
			C118.1,98.7,118.6,97.7,119,96.7z"/>
		<path class="st0" d="M84.4,83.7c0.5,0,0.7,0.3,0.7,0.9c-0.1,0.8,0.1,1.6,0,2.4c0,0.2,0,0.4,0.1,0.6c0,0.2,0,0.3,0,0.5
			c-0.1,0.2-0.2,0.4-0.5,0.3c-0.3-0.1-0.2-0.3-0.2-0.5c0-1,0-2.1,0-3.1c0-0.3,0-0.6-0.2-0.8C84.3,83.8,84.3,83.7,84.4,83.7
			C84.4,83.7,84.4,83.6,84.4,83.7z"/>
		<path class="st0" d="M88.4,96.5c0,0.1,0,0.2,0,0.3c-0.1,0.2-0.1,0.5-0.1,0.7c0,0.9,0,1.9,0,2.8c0,0.2,0,0.4-0.2,0.4
			c-0.2,0.1-0.3-0.1-0.4-0.3c0,0,0,0,0,0c0.2-1.2,0.2-2.5,0-3.7c0-0.1-0.1-0.2-0.1-0.3C87.8,96.3,88.1,96.3,88.4,96.5z"/>
		<path class="st0" d="M112,98.3c-0.3,0.8-0.1,1.6-0.1,2.5l0,0c-0.3,0-0.5-0.1-0.5-0.5c0-1.2,0-2.4,0-3.6c0-0.5,0.3-0.4,0.6-0.3
			C112,97.1,112,97.7,112,98.3z"/>
		<path class="st0" d="M112.4,88c-0.8-0.8-1-1.8-0.6-2.9c0-0.1,0.1-0.2,0.1-0.3c0,0,0,0,0,0c0.2-0.1,0.3-0.3,0.5-0.4
			c0.1-0.1,0.3-0.3,0.4,0c-0.3,0.3-0.2,0.7-0.4,1c-0.2,0.6-0.3,1.3,0.1,1.8c0,0,0,0,0,0c0,0.2,0.1,0.3,0.2,0.4c0,0,0,0,0,0
			C112.8,87.8,112.7,87.9,112.4,88z"/>
		<path class="st0" d="M96.1,84.6c0.1-0.9,0.2-0.9,0.8-0.7c0,0.1,0,0.2,0,0.2c-0.2,0.3-0.4,0.6,0,0.9c0,0.1,0,0.1,0,0.2
			c-0.2,0.1-0.2,0.3-0.2,0.5c0.1,0.6,0.1,1.3,0.1,1.9c0,0.6-0.1,0.7-0.7,0.5c0-0.1,0.1-0.2,0.1-0.2c0.2-1,0.2-2,0-3.1
			C96.2,84.8,96.1,84.7,96.1,84.6z"/>
		<path class="st2" d="M84.9,60.4c-0.5-0.4-0.4-1-0.1-1.4c0.4-0.5,0.9-0.7,1.5-0.6c0.3,0,0.7,0.5,1.1-0.1c0.1,0.6,0.1,1.2,0,1.8
			c-0.1-0.3-0.2-0.5-0.2-0.7c-0.2-0.5-0.6-0.8-1.2-0.8c-0.3,0-0.6,0.2-0.7,0.5c-0.2,0.4,0.1,0.6,0.3,0.9c-0.3,0.2-0.3,0-0.4-0.2
			c-0.1-0.2-0.1-0.4-0.3-0.5C84.7,59.7,84.9,60,84.9,60.4z"/>
		<path class="st2" d="M93,73.4c-0.5,0.3-1,0.2-1.6,0.1c-0.2-0.2-0.2-0.4-0.2-0.6c0-0.4,0-0.7,0-1.1c0-0.2,0.1-0.6-0.2-0.6
			c-0.3,0-0.2,0.4-0.2,0.6c0,0.7,0,1.3,0,2c0,0.4,0.1,0.9-0.1,1.3c0-1.1,0-2.2,0-3.2c0-0.4-0.1-0.7-0.6-0.9c1.1,0.1,2.3-0.4,3.2,0.5
			c0,0,0,0-0.1,0.1c-0.2-0.1-0.4-0.3-0.7-0.3c0,0,0,0,0,0l0,0c0,0.1,0.1,0.3,0.1,0.4c-0.1-0.1-0.2-0.1-0.2-0.2
			c-0.3-0.2-0.6-0.3-0.9-0.1c-0.3,0.1-0.1,0.4-0.1,0.7c0,0.2,0,0.5,0,0.7c-0.1,0.5,0.2,0.6,0.6,0.6c0.3,0,0.5-0.2,0.7-0.4
			C92.7,73.1,92.7,73.3,93,73.4C93,73.4,93,73.4,93,73.4z"/>
		<path class="st0" d="M111.6,75.4c0,0-0.1-0.1-0.1-0.1c0-0.1-0.1-0.2-0.3-0.3c0,0,0,0,0,0c0-0.1-0.1-0.2-0.2-0.2c0,0,0,0,0,0
			c-0.3-0.9-0.4-1.7-0.2-2.6c0,0,0,0,0,0c0.1-0.1,0.2-0.2,0.2-0.3c0,0,0,0,0,0c0.2,0,0.6-0.5,0.6,0.2c0,0,0,0,0,0
			c-0.1,0.1-0.1,0.2-0.1,0.3c-0.1,0.9-0.1,1.7,0.2,2.5C111.7,75,111.9,75.3,111.6,75.4z"/>
		<path class="st2" d="M105.2,85.2c-0.3,0-0.3-0.4-0.5-0.5c-0.2,0.3,0,0.5,0,0.8c-0.4-0.4-0.3-0.9-0.1-1.4c0.3-0.5,1-0.7,1.6-0.6
			c0.7,0.2,0.7,0.2,1.1,0c0,0.3,0,0.5,0,0.8c0,0.2,0,0.5,0,0.7c-0.4-0.8-0.8-1.6-1.9-1.1C104.8,84.3,105.1,84.8,105.2,85.2z"/>
		<path class="st0" d="M84,98.7c-0.3,0.5-0.1,1.1-0.1,1.6c0,0.2,0.1,0.5-0.2,0.4c-0.3,0-0.3-0.2-0.2-0.5c0.1-1.2,0.1-2.3,0-3.5
			c0-0.1-0.1-0.4,0.2-0.4c0.2,0,0.2,0.2,0.2,0.4c0.1,0.5-0.2,1.1,0.2,1.5c0.1,0,0.1,0,0.2,0.1c0,0.1-0.1,0.2-0.1,0.2
			C84.1,98.6,84,98.7,84,98.7z"/>
		<path class="st0" d="M98.6,62.5c-0.2,0.5-0.4,0-0.6,0.1c-0.2-0.2-0.1-0.4-0.1-0.6c0-1,0.1-1.9-0.1-2.9c0-0.1,0-0.1,0-0.2
			c0.2-0.5,0.5-0.2,0.8-0.1c0,0,0,0,0,0c-0.2,0.1-0.2,0.3-0.2,0.5c0,0.9-0.1,1.7,0.1,2.6C98.5,62.1,98.6,62.3,98.6,62.5z"/>
		<path class="st0" d="M90.7,75.1c0.2-0.4,0.1-0.9,0.1-1.3c0-0.7,0-1.3,0-2c0-0.2-0.1-0.6,0.2-0.6c0.3,0,0.2,0.4,0.2,0.6
			c0,0.4,0,0.7,0,1.1c0,0.2,0,0.5,0.2,0.6c0,0.5,0,0.9,0,1.4c-0.1,0-0.2,0.1-0.2,0.2c0,0.5-0.2,0.3-0.5,0.2
			C90.7,75.2,90.7,75.2,90.7,75.1z"/>
		<path class="st0" d="M118.6,59.6c0-0.2,0-0.4,0-0.7c0.1-0.3,0.2-0.6,0.5-0.1c0.3,0.4,0.2,0.8,0.5,1.2c0,0.1,0,0.2,0.1,0.3
			c0,0,0,0,0,0c0,0.4,0,0.7,0.4,0.9l0,0c0,0.2,0,0.5,0.3,0.6c0,0,0,0,0,0c-0.1,0.3-0.3,0.5-0.5,0.1c-0.1-0.2-0.3-0.3-0.4-0.5
			c-0.1-0.3-0.2-0.5-0.2-0.8c0-0.1-0.1-0.1-0.1-0.2l0,0c0-0.3,0-0.5-0.3-0.7l0,0c0,0-0.1-0.1-0.1-0.1
			C118.7,59.6,118.7,59.6,118.6,59.6z"/>
		<path class="st0" d="M84.9,60.4c-0.1-0.4-0.2-0.7,0-1.1c0.2,0.1,0.2,0.3,0.3,0.5c0.1,0.2,0.1,0.4,0.4,0.2c0.1,0.1,0.2,0.1,0.2,0.2
			c0.4,0.4,0.8,0.8,1.5,0.9c0,0,0,0,0,0c0,0.2,0.2,0.4,0.4,0.5c0,0,0,0,0,0c0,0.3-0.1,0.6-0.2,0.9c-0.1,0.2-0.2,0.3-0.4,0
			c0,0,0,0,0,0c0.3-0.3,0.2-0.5,0-0.8c-0.4-0.5-0.8-0.8-1.4-0.8c0,0,0,0,0,0C85.6,60.5,85.2,60.5,84.9,60.4L84.9,60.4z"/>
		<path class="st2" d="M99.4,88C99,87.6,99,87.1,99,86.7c0-0.7,0-1.4,0-2c0-0.4,0-0.8-0.6-1c0.6,0,1.2,0,1.8,0
			c-0.7,0.2-0.6,0.8-0.6,1.3c0,0.9-0.1,1.8,0.2,2.7c-0.4-0.2-0.3-0.5-0.3-0.9c0-0.8,0-1.7,0-2.5c0-0.1,0.1-0.4-0.2-0.4
			c-0.2,0-0.2,0.2-0.2,0.3C99.2,85.5,99,86.7,99.4,88C99.4,87.9,99.4,88,99.4,88z"/>
		<path class="st2" d="M79.3,72c-0.2-0.1-0.1-0.4-0.4-0.5c0.5-0.7,1-0.8,1.9-0.6c0.3,0.1,0.5,0.2,0.7-0.2c0.1,0.6,0.1,1.1,0,1.6
			c-0.3-0.7-0.6-1.4-1.5-1.2C79.5,71.2,79.3,71.5,79.3,72z"/>
		<path class="st2" d="M91.5,59.6c0-0.2,0.1-0.3,0.1-0.5c0,0,0,0,0,0l0,0c-0.1,0-0.3,0-0.4,0c0.7-0.7,1.5-0.9,2.5-0.5
			c0.3,0.1,0.6,0.2,0.9-0.1c0,0.5,0,1,0.1,1.5c-0.4-0.5-0.7-1.1-1.5-1.2C92.4,58.6,91.9,59,91.5,59.6z"/>
		<path class="st2" d="M112.9,84.4c-0.1-0.3-0.3-0.1-0.4,0c-0.2,0.1-0.3,0.4-0.5,0.4c0.5-1.1,1.7-1.6,2.9-1.1
			c0.3,0.1,0.5,0.2,0.8-0.3c0,0.6,0,1,0,1.5c-0.4-0.5-0.6-1-1.2-1.1C113.8,83.8,113.3,84,112.9,84.4z"/>
		<path class="st2" d="M102.5,97.1c-0.1-0.2-0.2-0.2-0.4-0.2c0.4-0.7,1-0.9,1.8-0.6c0.3,0.1,0.5,0.3,0.8-0.1c0.1,0.5,0.1,1.1,0,1.7
			c-0.3-0.7-0.5-1.4-1.4-1.4C102.9,96.5,102.7,96.7,102.5,97.1z"/>
		<path class="st2" d="M93.2,100.7c0.5-0.4,0.3-0.8,0.1-1.2c0-0.8,0-1.6,0-2.3c0-0.3,0.1-0.6-0.2-0.8c0.3,0,0.6,0,1,0
			c-0.4,0.3-0.4,0.7-0.4,1.1c0,1.1,0,2.2,0,3.3c0,0.1,0.1,0.4-0.1,0.4C93.3,101,93.2,100.9,93.2,100.7z"/>
		<path class="st0" d="M117.5,75.3c0.3-0.4,0.2-0.8,0.2-1.3c0-0.8,0-1.5,0-2.3c0-0.2-0.1-0.5,0.3-0.7c0,0.9,0,1.7,0.1,2.5
			c0,0.1,0,0.2,0.1,0.3c-0.1,0.5-0.2,1.1,0,1.6c-0.3,0.2-0.6,0.2-0.9,0C117.4,75.4,117.5,75.4,117.5,75.3z"/>
		<path class="st2" d="M81.2,74.6c0,0.3,0,0.6,0.3,0.7c-0.5,0.6-1.2,0.6-1.8,0.4c-0.3-0.1-0.6-0.2-0.9,0.1c-0.1-0.6-0.1-1.1,0-1.6
			c0.3,0.8,0.8,1.4,1.7,1.3C81,75.4,81.2,75.1,81.2,74.6z"/>
		<path class="st2" d="M111.6,72c0-0.7-0.4-0.2-0.6-0.2c0.5-0.8,1.2-1.1,2-1c0.9,0.1,1.6,0.4,1.9,1.3c0,0,0,0-0.1,0
			c-0.1-0.1-0.3-0.3-0.4-0.4c-0.3-0.3-0.3,0-0.3,0.2C113.3,70.8,112.4,70.8,111.6,72z"/>
		<path class="st0" d="M99.4,87.9c-0.5-1.2-0.3-2.4-0.3-3.7c0-0.1,0-0.3,0.2-0.3c0.3,0,0.2,0.2,0.2,0.4c0,0.8,0,1.7,0,2.5
			c0,0.3,0,0.7,0.3,0.9c0,0,0.1,0.1,0.1,0.1C99.8,88,99.6,88.1,99.4,87.9z"/>
		<path class="st2" d="M84.6,87.8c0.1,0.2-0.1,0.4,0.2,0.5c0.2,0.1,0.4-0.1,0.5-0.3c0.9,0.2,1.7,0.2,2.5-0.5c0,0.7-0.2,1-0.9,0.9
			c-1-0.1-2,0-3-0.1C84.2,88.2,84.5,88.1,84.6,87.8z"/>
		<path class="st2" d="M87.1,62.5c0.1,0.2,0.3,0.2,0.4,0c0.1-0.3,0.2-0.6,0.2-0.9c0.3,1-0.3,1.8-1.4,1.8c-0.5,0-0.9-0.1-1.3-0.3
			c-0.5-0.2-0.3-0.6-0.1-0.9C85.6,63.2,86.4,63.3,87.1,62.5z"/>
		<path class="st2" d="M90,98.4c0.4-0.2,0-0.8,0.3-1c0,0.9,0,1.8,0,2.7c0,0.4,0,0.8,0.6,0.8c-0.5,0.2-1,0.1-1.6,0.1
			c0.6-0.1,0.6-0.5,0.6-1C90,99.4,90,98.9,90,98.4z"/>
		<path class="st2" d="M106.5,88.1c0.1,0.4,0.3,0,0.5,0.1c-0.5,0.4-1.1,0.4-1.6,0.2c-0.3-0.1-0.7-0.3-1,0.3c0-0.7,0-1.3,0-1.8
			C104.8,87.7,105.4,88.5,106.5,88.1z"/>
		<path class="st2" d="M119.8,73.9c0.2,0.3,0.4,0.5,0.6,0.8c0.3,0.4,0.6,0.8,1.3,0.8c-0.8,0.4-1.3,0.3-1.7-0.3
			c-0.2-0.3-0.4-0.5-0.6-0.8C119.9,74.5,119.8,74.2,119.8,73.9z"/>
		<path class="st2" d="M79.4,96.6c-0.2-0.2-0.4-0.3-0.6-0.1c-0.2,0.1-0.1,0.4-0.1,0.6c0,1,0,2.1,0,3.1c0,0.2,0,0.3-0.2,0.4
			c0-1.2,0-2.3,0-3.5c0-0.5-0.2-0.6-0.6-0.8c0.8,0,1.6-0.2,2.3,0.1c-0.1,0-0.2,0.1-0.4,0.1C79.7,96.5,79.6,96.5,79.4,96.6z"/>
		<path class="st2" d="M112.4,88c0.2,0,0.4-0.1,0.4-0.4c1,0.8,1.7,0.8,2.8-0.1c0,0.4-0.3,0.7-0.8,0.9C114,88.7,113.2,88.6,112.4,88z
			"/>
		<path class="st2" d="M104.2,100.6c0,0.1,0.1,0.2,0.3,0.2c-0.5,0.4-1.1,0.3-1.6,0.2c-0.3-0.1-0.6-0.2-0.9,0.1c0-0.6,0-1.1,0-1.6
			c0.3,0.5,0.5,1,1.1,1.2C103.5,100.8,103.9,100.8,104.2,100.6z"/>
		<path class="st0" d="M92.5,84.9c-0.1-0.2-0.1-0.4-0.2-0.6c0-0.2-0.1-0.3,0.1-0.4c0.2-0.1,0.3,0,0.4,0.1c0.3,0.6,0.5,1.3,0.9,1.8
			c0.1,0.1,0,0.2-0.1,0.2c-0.1,0-0.2-0.1-0.2-0.2c0-0.3-0.2-0.4-0.5-0.5c-0.1-0.2-0.1-0.4-0.2-0.6C92.5,84.5,92.5,84.8,92.5,84.9z"
			/>
		<path class="st2" d="M111.6,75.4c0.3-0.1,0.1-0.3,0.1-0.5c0.7,0.8,1.3,0.9,2.2,0.3c0.3,0.2,0.5-0.2,0.7-0.3c0,0,0,0,0.1,0
			C113.9,75.9,112.7,76.1,111.6,75.4z"/>
		<path class="st2" d="M91.6,63c0.2,0,0.4,0.1,0.6,0.1c0.1-0.2-0.1-0.2-0.2-0.4c1,0.4,1.9,0.2,2.5-0.8C94.5,63.2,92.9,63.7,91.6,63z
			"/>
		<path class="st2" d="M84.1,98.6c0-0.1,0.1-0.2,0.1-0.2c0.2,0,0.4,0,0.6,0c0.7,0,0.7,0,1.1-0.7c0,0.6,0,1.1,0,1.6
			C85.6,98.3,84.7,98.8,84.1,98.6z"/>
		<path class="st2" d="M87.7,100.6c0.1,0.1,0.2,0.4,0.4,0.3c0.2-0.1,0.2-0.3,0.2-0.4c0-0.9,0-1.9,0-2.8c0-0.2,0-0.5,0.1-0.7
			c0,1.1,0,2.2,0,3.3c0,0.4,0,0.8,0.6,0.8c-0.6,0-1.2,0-1.9,0C87.3,100.7,87.5,100.8,87.7,100.6z"/>
		<path class="st2" d="M96,88.2c0.6,0.2,0.7,0.1,0.7-0.5c0-0.6,0-1.3-0.1-1.9c0-0.2-0.1-0.4,0.2-0.5c0,0.8,0,1.5,0,2.3
			c0,0.4,0,0.8,0.6,0.9c-0.6,0-1.3,0-1.9,0C95.7,88.1,95.9,88.2,96,88.2z"/>
		<path class="st2" d="M109.1,96.5c-0.4,0-0.1,0.3-0.1,0.4c-0.5-0.5-1.2-0.6-1.8-0.3c-0.1,0-0.3-0.1-0.4-0.2
			C107.6,96,108.3,96,109.1,96.5z"/>
		<path class="st2" d="M116.4,94.7c-0.4,0.5-0.7,0.8-1.1,1.3C115.4,94.8,115.5,94.6,116.4,94.7z"/>
		<path class="st2" d="M98.4,61.9c-0.2-0.8-0.1-1.7-0.1-2.6c0-0.2,0.1-0.4,0.2-0.5c0,0.9,0,1.7,0,2.6C98.5,61.6,98.6,61.8,98.4,61.9
			z"/>
		<path class="st2" d="M90.7,75.3c0.2,0.2,0.5,0.3,0.5-0.2c0-0.1,0-0.2,0.2-0.2c0.1,0.4,0.2,0.7,0.7,0.8c-0.6,0-1.2,0-1.9,0
			C90.3,75.4,90.6,75.5,90.7,75.3z"/>
		<path class="st0" d="M119.8,73.9c0.1,0.3,0.2,0.6-0.3,0.6c0,0,0,0,0,0c0-0.1-0.1-0.2-0.2-0.3c0,0,0,0,0,0c0,0-0.1-0.1-0.1-0.1
			c0,0,0,0,0,0c0-0.1-0.1-0.2-0.2-0.2c0,0,0,0,0,0c0-0.1-0.1-0.1-0.1-0.2c0,0,0,0,0,0c0,0-0.1-0.1-0.1-0.1c0-0.1,0-0.1,0-0.2
			c0.2,0,0.3-0.1,0.4-0.2c0,0,0,0,0.1,0c0.1,0,0.3,0.1,0.3,0.3c0,0,0,0.1,0,0.1C119.4,73.7,119.6,73.8,119.8,73.9L119.8,73.9z"/>
		<path class="st2" d="M100.6,83.5c0.2-1.3,0.2-1.4,1.1-1.3C101.4,82.6,101,83,100.6,83.5z"/>
		<path class="st2" d="M88.4,96.5c-0.3-0.2-0.6-0.2-0.9,0c-0.2,0-0.4,0-0.5-0.2c1.1,0,2.2,0,3.3,0c-0.2,0.1-0.5,0.2-0.7,0.2
			C89.2,96.3,88.8,96.4,88.4,96.5z"/>
		<path class="st2" d="M78.5,100.6c0.5,0.4,0.6,0.4,0.7-0.3c0.2,0.4,0.2,0.4,0.7,0.6c-0.7,0-1.2,0-1.7,0
			C78.3,100.8,78.5,100.8,78.5,100.6z"/>
		<path class="st2" d="M114.9,72.1c0.5,1,0.4,1.9-0.2,2.8c0,0,0,0-0.1,0C115,74,115.2,73.1,114.9,72.1
			C114.9,72.2,114.9,72.2,114.9,72.1z"/>
		<path class="st2" d="M85.7,60.9c0.6,0,1.1,0.3,1.4,0.8c0.2,0.2,0.3,0.5,0,0.8c0.1-0.5-0.2-0.8-0.6-1C86.2,61.3,86,61.1,85.7,60.9z
			"/>
		<path class="st2" d="M109.2,88.1c0.3,0.2,0.6,0.5,0.8-0.1c0.1,0.2,0.4,0.3,0.6,0.4c-0.6,0-1.3,0-2.1,0
			C108.9,88.2,109.1,88.1,109.2,88.1z"/>
		<path class="st2" d="M98.5,58.8c-0.3-0.1-0.6-0.4-0.8,0.1c-0.1-0.2-0.4-0.2-0.6-0.4c0.7-0.1,1.3-0.1,2,0
			C98.9,58.6,98.7,58.7,98.5,58.8z"/>
		<path class="st2" d="M110,87.9c-0.3-0.8-0.1-1.6-0.1-2.4c0-0.5-0.2-1.1,0.2-1.6C110,85.3,110,86.6,110,87.9z"/>
		<path class="st2" d="M110.1,83.9c-0.3,0-0.6-0.3-0.9,0.1c-0.2-0.1-0.4-0.2-0.6-0.2c0,0,0-0.1,0-0.1c0.6,0,1.2,0,1.9,0
			C110.5,83.9,110.2,83.8,110.1,83.9z"/>
		<path class="st2" d="M87.7,96.8c0.2,1.2,0.2,2.5,0,3.7C87.7,99.3,87.7,98,87.7,96.8z"/>
		<path class="st2" d="M110.9,72.2c-0.2,0.9-0.1,1.8,0.2,2.6C110.5,74,110.4,73.1,110.9,72.2z"/>
		<path class="st2" d="M117.4,75.5c0.3,0.1,0.6,0.1,0.9,0c0.2,0,0.4,0,0.6,0.1c-0.6,0.3-1.3,0.2-1.9,0.2
			C117,75.3,117.3,75.7,117.4,75.5z"/>
		<path class="st2" d="M96.2,84.9c0.2,1,0.2,2,0,3.1C96.2,86.9,96.2,85.9,96.2,84.9z"/>
		<path class="st2" d="M91.5,62.1c-0.4-0.5-0.5-1.8,0-2.6C91.3,60.4,91.2,61.3,91.5,62.1z"/>
		<path class="st2" d="M87.3,61c-0.6,0-1.1-0.5-1.5-0.9C86.3,60.4,86.9,60.6,87.3,61z"/>
		<path class="st2" d="M97.8,59.1c0.2,0.9,0.1,1.9,0.1,2.9C97.6,61,97.8,60,97.8,59.1z"/>
		<path class="st2" d="M79.3,58.8c0,0.6,0,1.2,0,1.7c0,0,0,0,0,0C78.9,60,79,59.4,79.3,58.8L79.3,58.8z"/>
		<path class="st2" d="M93.4,71.5c0.4,0.5,0.4,0.9,0.1,1.4c0,0,0,0-0.1,0C93.6,72.4,93.5,72,93.4,71.5
			C93.3,71.5,93.4,71.5,93.4,71.5z"/>
		<path class="st2" d="M112.6,87.2c-0.5-0.6-0.3-1.2-0.1-1.8C112.5,86,112.4,86.6,112.6,87.2z"/>
		<path class="st2" d="M120.6,86.5c0.2,0.4,0.3,0.8,0.5,1.1c0,0,0,0-0.1,0c-0.2-0.1-0.2-0.5-0.5-0.5c0,0,0,0,0,0
			C120.5,87,120.5,86.8,120.6,86.5C120.5,86.6,120.5,86.6,120.6,86.5z"/>
		<path class="st2" d="M119.6,96.9c-0.2-0.1-0.3-0.5-0.6-0.1c0-0.2,0.1-0.4,0.3-0.6C119.5,96.3,119.6,96.6,119.6,96.9z"/>
		<path class="st2" d="M81.5,75.3c0.1-0.4,0.3-0.8,0.2-1.3C82,74.5,81.9,74.9,81.5,75.3z"/>
		<path class="st2" d="M85,60.4c0.3,0.1,0.7,0.1,0.7,0.5C85.4,60.8,85.1,60.7,85,60.4z"/>
		<path class="st2" d="M96.9,85c-0.3-0.3-0.2-0.6,0-0.9C96.9,84.4,96.9,84.7,96.9,85z"/>
		<path class="st2" d="M120.1,61.2c-0.3-0.2-0.4-0.5-0.4-0.9C119.9,60.5,120.1,60.8,120.1,61.2z"/>
		<path class="st2" d="M105.8,97.7c0.1,0.4-0.1,0.7-0.1,1.1C105.6,98.4,105.6,98,105.8,97.7z"/>
		<path class="st2" d="M104.4,99.8c0.2,0.3,0.2,0.6-0.2,0.7C104.4,100.3,104.5,100.1,104.4,99.8z"/>
		<path class="st2" d="M93.5,72.9c-0.1,0.2-0.2,0.4-0.5,0.5c0,0,0,0,0-0.1C93.1,73.2,93.3,73,93.5,72.9
			C93.5,72.9,93.5,72.9,93.5,72.9z"/>
		<path class="st2" d="M84.3,83.7c0,0.1,0,0.1,0,0.2c-0.2,0-0.3,0-0.4-0.1C84,83.6,84.2,83.6,84.3,83.7z"/>
		<path class="st2" d="M106.5,96.7c-0.1,0.3-0.2,0.4-0.5,0.5C106.1,97,106.3,96.8,106.5,96.7z"/>
		<path class="st2" d="M120.4,61.8c-0.2-0.1-0.3-0.4-0.3-0.6C120.3,61.3,120.3,61.5,120.4,61.8z"/>
		<path class="st2" d="M87.7,61.5c-0.2-0.1-0.3-0.3-0.4-0.5C87.5,61.1,87.6,61.3,87.7,61.5z"/>
		<path class="st2" d="M110.1,97.8c-0.2-0.2-0.3-0.4-0.3-0.6C110,97.4,110.1,97.6,110.1,97.8z"/>
		<path class="st2" d="M119.7,72.5c0-0.2,0-0.5,0-0.7c0,0,0,0,0.1,0C119.9,72,119.9,72.3,119.7,72.5
			C119.8,72.5,119.7,72.5,119.7,72.5z"/>
		<path class="st2" d="M119.8,73.9c-0.1-0.1-0.3-0.1-0.3-0.4C119.6,73.6,119.7,73.7,119.8,73.9z"/>
		<path class="st2" d="M119.1,73.1c-0.1,0.1-0.2,0.2-0.4,0.2C118.8,73.1,119,73.2,119.1,73.1z"/>
		<path class="st2" d="M82.5,84.6c0.2,0.1,0.2,0.3,0.2,0.5c0,0,0,0,0,0C82.6,85,82.5,84.8,82.5,84.6C82.5,84.6,82.5,84.6,82.5,84.6z
			"/>
		<path class="st2" d="M112.8,87.6c-0.2-0.1-0.3-0.2-0.2-0.4C112.7,87.3,112.8,87.5,112.8,87.6z"/>
		<path class="st2" d="M81.7,74c-0.2-0.1-0.2-0.2-0.3-0.4C81.6,73.7,81.7,73.8,81.7,74z"/>
		<path class="st2" d="M120,99.5c0.2,0.1,0.2,0.2,0.2,0.4C120.2,99.8,120.1,99.6,120,99.5z"/>
		<path class="st2" d="M109.2,84c0.2,0,0.2,0.1,0.1,0.2C109.3,84.2,109.3,84.1,109.2,84z"/>
		<path class="st2" d="M119.8,60.3c-0.1-0.1-0.1-0.2-0.1-0.3C119.7,60.1,119.8,60.2,119.8,60.3z"/>
		<path class="st2" d="M106.8,96.5c-0.1,0.1-0.2,0.2-0.3,0.2C106.6,96.6,106.6,96.5,106.8,96.5z"/>
		<path class="st2" d="M111,71.8c0,0.1,0,0.2-0.2,0.3C110.9,72,111,71.9,111,71.8z"/>
		<path class="st2" d="M111.2,75c0.1,0,0.2,0.1,0.3,0.3C111.3,75.2,111.3,75.1,111.2,75z"/>
		<path class="st2" d="M119.2,74.1c0.1,0,0.2,0.1,0.2,0.3C119.3,74.3,119.3,74.2,119.2,74.1z"/>
		<path class="st2" d="M80.9,100.3c0.1,0.1,0.2,0.2,0.2,0.3C81,100.5,80.9,100.4,80.9,100.3z"/>
		<path class="st2" d="M120,97.8c-0.1-0.1-0.2-0.2-0.2-0.4C120,97.5,120,97.7,120,97.8z"/>
		<path class="st2" d="M109.9,97.2c-0.1-0.1-0.2-0.2-0.2-0.3C109.8,97,109.8,97.1,109.9,97.2z"/>
		<path class="st2" d="M119.9,97.5c-0.1-0.1-0.2-0.2-0.1-0.4C119.8,97.2,119.9,97.3,119.9,97.5z"/>
		<path class="st2" d="M120.2,98.1c-0.1-0.1-0.1-0.2-0.1-0.3C120.1,97.9,120.1,98,120.2,98.1z"/>
		<path class="st2" d="M92.1,62.8c-0.1,0-0.2-0.1-0.2-0.2C92,62.6,92,62.7,92.1,62.8z"/>
		<path class="st2" d="M111,74.8c0.1,0,0.2,0.1,0.2,0.2C111.1,75,111.1,74.9,111,74.8z"/>
		<path class="st2" d="M112,84.8c0,0.1-0.1,0.2-0.1,0.3C111.8,85,111.9,84.9,112,84.8z"/>
		<path class="st2" d="M119,73.8c0.1,0,0.2,0.1,0.2,0.2C119.1,73.9,119,73.8,119,73.8z"/>
		<path class="st2" d="M91.8,62.5c-0.1,0-0.2-0.1-0.2-0.2C91.7,62.3,91.7,62.4,91.8,62.5z"/>
		<path class="st2" d="M105.9,97.4c0,0.1-0.1,0.2-0.1,0.3C105.8,97.6,105.8,97.5,105.9,97.4z"/>
		<path class="st2" d="M106,97.2c0,0.1,0,0.2-0.1,0.3C105.9,97.3,105.9,97.3,106,97.2z"/>
		<path class="st2" d="M119.7,97.1c0-0.1-0.1-0.1-0.1-0.2C119.7,96.9,119.7,97,119.7,97.1z"/>
		<path class="st2" d="M90.1,97.5C90.1,97.5,90.1,97.5,90.1,97.5c0,0.1,0,0.1,0,0.1C90,97.5,90,97.5,90.1,97.5z"/>
		<path class="st2" d="M90,97L90,97C90.1,97,90,97.1,90,97C90,97,90,97,90,97z"/>
		<path class="st2" d="M109.7,96.9c-0.1,0-0.1-0.1-0.2-0.1C109.6,96.8,109.6,96.9,109.7,96.9z"/>
		<path class="st2" d="M109.5,96.8c0,0-0.1-0.1-0.1-0.1C109.4,96.7,109.5,96.8,109.5,96.8z"/>
		<path class="st2" d="M109.4,96.7c0,0-0.1-0.1-0.1-0.1C109.3,96.6,109.4,96.6,109.4,96.7z"/>
		<path class="st2" d="M109.3,96.6c0,0-0.1-0.1-0.1-0.1C109.2,96.5,109.2,96.6,109.3,96.6z"/>
		<path class="st2" d="M90,98C90.1,98,90.1,98,90,98c0,0.1,0,0.1,0,0.1C90,98,90,98,90,98z"/>
		<path class="st2" d="M118.8,73.5c0,0,0.1,0.1,0.1,0.1C118.8,73.6,118.8,73.6,118.8,73.5z"/>
		<path class="st2" d="M107,88.2c0,0,0.1-0.1,0.1-0.1C107.1,88.2,107.1,88.2,107,88.2z"/>
		<path class="st2" d="M91.6,62.3c0-0.1-0.1-0.1-0.1-0.2C91.5,62.2,91.6,62.2,91.6,62.3z"/>
		<path class="st2" d="M91.9,62.6c0,0-0.1-0.1-0.1-0.1C91.8,62.5,91.9,62.6,91.9,62.6z"/>
		<path class="st2" d="M81.5,73.6c0,0-0.1-0.1-0.1-0.1C81.4,73.5,81.4,73.6,81.5,73.6z"/>
		<path class="st2" d="M119.1,74c0,0,0.1,0.1,0.1,0.1C119.2,74.1,119.2,74.1,119.1,74z"/>
		<path class="st2" d="M118.9,73.6c0,0.1,0.1,0.1,0.1,0.2C118.9,73.7,118.9,73.7,118.9,73.6z"/>
		<path class="st0" d="M100.3,67.3c-6.8,0-13.6,0-20.4,0c-0.3,0-0.8,0.2-0.8-0.2c0-0.5,0.5-0.3,0.8-0.3c13.5,0,27,0,40.5,0
			c0.3,0,1-0.2,1,0.3c0,0.4-0.6,0.2-1,0.2C113.7,67.3,107,67.3,100.3,67.3z"/>
		<path class="st1" d="M97.4,99.1c-0.5,0-1,0-1.5,0c0.2-0.6,0.5-1.1,0.8-1.8C96.9,98,97.2,98.5,97.4,99.1z"/>
		<path class="st1" d="M103.7,71.7c0.2,1-0.1,1.4-1,1.5c-0.3,0-0.5,0-0.5-0.4c0-0.3,0-0.5,0-0.8c0-0.3-0.2-0.6,0.2-0.8
			c0.4-0.1,0.8-0.1,1.1,0.2C103.6,71.6,103.6,71.6,103.7,71.7L103.7,71.7z"/>
		<path class="st0" d="M102,71.4c0,0.9,0.1,1.9,0.1,2.8c0,0.3,0,0.6,0,0.9c0,0.1,0,0.3-0.2,0.3c-0.1,0-0.2-0.1-0.2-0.2
			c0-1.2,0-2.5,0-3.7C101.8,71.4,101.9,71.4,102,71.4z"/>
		<path class="st0" d="M103.7,71.7c0-0.3,0.1-0.4,0.4-0.2c0.4,0.3,0.6,1.1-0.3,1.5C103.8,72.6,104.2,72.1,103.7,71.7
			C103.7,71.7,103.7,71.7,103.7,71.7z"/>
		<path class="st1" d="M107.2,96.6c0.7-0.3,1.3-0.3,1.8,0.3c0.5,0.9,0.6,1.9,0.2,2.9c-0.2,0.6-0.6,1-1.2,1c-0.7,0-1.1-0.3-1.3-0.9
			c0-0.1-0.1-0.1-0.1-0.2c0-0.1,0-0.3-0.1-0.4c0-0.1,0-0.2-0.1-0.3c0-0.3,0-0.5,0-0.8C106.6,97.6,106.7,97,107.2,96.6z"/>
		<path class="st2" d="M106.4,98.2c0,0.3,0,0.5,0,0.8C106.2,98.8,106.2,98.5,106.4,98.2z"/>
		<path class="st2" d="M106.5,99.3c0,0.1,0,0.3,0.1,0.4C106.4,99.6,106.4,99.4,106.5,99.3z"/>
		<path class="st1" d="M79.4,96.6c0.2,0,0.3-0.1,0.5-0.1c0.3,0.2,0.8,0.3,0.8,0.8c0.1,0.9-0.5,1.3-1.5,1.2c0-0.6,0.1-1.2-0.1-1.7
			C79.2,96.6,79.3,96.6,79.4,96.6z"/>
		<path class="st2" d="M79.2,96.7c0.2,0.6,0.1,1.2,0.1,1.7C79,97.9,79.2,97.3,79.2,96.7z"/>
		<path class="st1" d="M119.1,84.8c0.2,0.5,0.4,0.9,0.6,1.4c0.1,0.3,0.1,0.3-0.2,0.4c-1.2,0.1-1.2,0.1-0.7-1
			C118.8,85.3,118.9,85,119.1,84.8z"/>
		<path class="st0" d="M120.5,86.6c0,0.2,0,0.4,0,0.6c-0.2,0-0.3-0.2-0.4-0.4c-0.1-0.2-0.3-0.4,0-0.5
			C120.4,86.1,120.3,86.5,120.5,86.6z"/>
		<path class="st0" d="M120.5,87.2c0.3,0,0.2,0.4,0.5,0.5c0,0.2,0,0.4-0.2,0.4c-0.3,0-0.2-0.3-0.2-0.4
			C120.5,87.5,120.5,87.4,120.5,87.2z"/>
		<path class="st0" d="M96.7,75.3c-0.1,0.2-0.3,0.3-0.5,0.2C96,75.5,96,75.2,96,75.1c0-1.2,0-2.3,0-3.5c0-0.2-0.1-0.4,0.2-0.4
			c0.2,0,0.3,0.2,0.3,0.4c0,1,0,2,0,3C96.5,74.8,96.5,75.1,96.7,75.3C96.7,75.3,96.7,75.3,96.7,75.3z"/>
		<path class="st1" d="M81.8,87.2c-0.5,0.7-1.1,1-2,0.9c-0.3,0-0.4-0.1-0.4-0.4c0-1.1,0-2.2,0-3.3c0-0.3,0.1-0.4,0.4-0.4
			c0.6-0.1,1,0,1.5,0.4c0,0,0,0,0,0C82.2,85.2,82.2,86.2,81.8,87.2L81.8,87.2z"/>
		<path class="st0" d="M79.4,86c0,0.6,0,1.2,0,1.9c0,0.1,0,0.3-0.2,0.3c-0.2,0-0.3-0.2-0.3-0.3c0.2-1.2,0-2.4,0-3.6
			c0-0.2-0.1-0.5,0.2-0.5c0.3,0,0.2,0.3,0.2,0.5C79.4,84.9,79.4,85.5,79.4,86C79.4,86,79.4,86,79.4,86z"/>
		<path class="st0" d="M82.4,84.7c0.1,0.2,0.2,0.3,0.3,0.5c0.1,0.8,0.1,1.6-0.4,2.2c-0.1,0.1-0.2,0.2-0.3,0.2
			c-0.2-0.1-0.1-0.2-0.1-0.4c0,0,0,0,0,0c0.4-0.5,0.5-1.6,0.2-2.3c-0.1-0.3-0.3-0.6-0.7-0.5c0,0,0,0,0,0c0-0.3,0.2-0.4,0.4-0.2
			C82,84.3,82.2,84.5,82.4,84.7z"/>
		<path class="st0" d="M79.3,58.8c-0.2,0.6-0.4,1.2,0,1.8c-0.2,0.6-0.2,1.3-0.1,1.9c0,0.2,0.1,0.4-0.2,0.4c-0.3,0-0.2-0.2-0.2-0.4
			c0-1.2,0-2.3,0-3.5c0-0.2,0-0.4,0.3-0.4C79.1,58.6,79.3,58.5,79.3,58.8z"/>
		<path class="st0" d="M111.6,61c0-0.6,0-1.2,0-1.8c0-0.3,0-0.6,0.4-0.6c0.4,0.1,0,0.4,0.1,0.5c0.2,1.1-0.1,2.2,0,3.4
			c0,0.2,0.1,0.5-0.2,0.4c-0.3,0-0.2-0.3-0.2-0.5C111.6,62,111.6,61.5,111.6,61C111.6,61,111.6,61,111.6,61z"/>
		<path class="st0" d="M111.9,100.8C111.9,100.8,111.8,100.8,111.9,100.8L111.9,100.8z"/>
		<path class="st1" d="M118.6,59.6c0,0,0.1,0,0.1,0c0,0,0.1,0.1,0.1,0.1c0,0,0,0,0,0c0,0.2,0.1,0.5,0.3,0.7c0,0,0,0,0,0
			c0,0.1,0.1,0.1,0.1,0.2c0.1,0.3,0.2,0.5,0.2,0.8c-0.5,0-1,0.3-1.3-0.1c-0.3-0.3,0.2-0.7,0.3-1.1C118.5,60,118.6,59.8,118.6,59.6z"
			/>
		<path class="st0" d="M120.6,62.7c0,0.1-0.1,0.2-0.2,0.2c-0.2,0-0.2-0.2-0.2-0.3c0-0.1,0.1-0.2,0.2-0.2
			C120.5,62.5,120.6,62.6,120.6,62.7z"/>
		<path class="st0" d="M119.8,72.5c0.1-0.3,0.1-0.5,0-0.8c-0.1-0.2-0.1-0.3-0.2-0.5c0.8,0.4,0.9,0.8,0.6,1.5
			c-0.1,0.1-0.1,0.2-0.3,0.2C119.7,72.8,119.8,72.7,119.8,72.5z"/>
		<path class="st1" d="M119.8,99.1c-0.5,0-0.9,0-1.5,0c0.2-0.6,0.5-1.2,0.7-1.7C119.4,97.9,119.7,98.5,119.8,99.1z"/>
		<path class="st1" d="M92.7,72.9c-0.2,0.2-0.4,0.4-0.7,0.4c-0.4,0-0.7-0.1-0.6-0.6c0-0.2,0-0.5,0-0.7c0-0.2-0.1-0.5,0.1-0.7
			c0.3-0.1,0.6-0.1,0.9,0.1c0.1,0.1,0.2,0.1,0.2,0.2c0,0,0,0,0,0c0.1,0.3,0.1,0.6,0.1,1C92.8,72.7,92.7,72.8,92.7,72.9z"/>
		<path class="st0" d="M92.7,72.9c0-0.1,0.1-0.2,0.1-0.3c0.2-0.4,0.2-0.7-0.1-1c0,0,0,0,0,0c0-0.1-0.1-0.3-0.1-0.4l0,0
			c0.3,0,0.5,0.1,0.7,0.3c0.2,0.4,0.3,0.9,0.1,1.3c-0.2,0.2-0.3,0.3-0.5,0.5C92.7,73.3,92.7,73.1,92.7,72.9z"/>
		<polygon class="st0" points="92.6,71.3 92.6,71.3 92.6,71.3 		"/>
		<path class="st1" d="M113.9,75.1c-0.9,0.6-1.5,0.5-2.2-0.3c-0.4-0.8-0.4-1.7-0.2-2.5c0.1-0.1,0.1-0.2,0.1-0.3c0,0,0,0,0,0
			c0.8-1.2,1.7-1.2,2.6-0.1c0,0,0,0,0,0c0.3,0.8,0.3,1.6,0.1,2.4C114.2,74.6,114,74.8,113.9,75.1z"/>
		<path class="st2" d="M111.6,72c0,0.1,0,0.2-0.1,0.3C111.5,72.2,111.5,72.1,111.6,72z"/>
		<path class="st2" d="M119.1,60.4c-0.2-0.2-0.2-0.4-0.3-0.7C119.1,59.8,119.1,60.1,119.1,60.4z"/>
		<path class="st2" d="M118.9,59.7c0,0-0.1-0.1-0.1-0.1C118.8,59.6,118.8,59.7,118.9,59.7z"/>
		<path class="st2" d="M119.2,60.6c0-0.1-0.1-0.1-0.1-0.2C119.2,60.5,119.2,60.5,119.2,60.6z"/>
		<polygon class="st0" points="91.6,59.1 91.6,59 91.6,59.1 		"/>
		<path class="st0" d="M113.9,75.1c0.1-0.3,0.3-0.5,0.4-0.8c0.4-0.6,0.3-1.8-0.1-2.4c0,0,0,0,0,0c0.1-0.1,0.1-0.4,0.3-0.2
			c0.1,0.1,0.3,0.3,0.4,0.4c0.3,0.9,0.1,1.8-0.2,2.7C114.4,74.9,114.3,75.3,113.9,75.1z"/>
		<path class="st2" d="M81.4,84.4c0.4,0,0.5,0.3,0.7,0.5c0.4,0.7,0.3,1.8-0.2,2.3C82.2,86.2,82.2,85.2,81.4,84.4z"/>
		<path class="st2" d="M92.7,71.7c0.4,0.3,0.3,0.6,0.1,1C92.8,72.3,92.8,72,92.7,71.7z"/>
		<path class="st2" d="M114.2,71.9c0.5,0.6,0.6,1.8,0.1,2.4C114.5,73.5,114.4,72.7,114.2,71.9z"/>
	</g>
</g>
</svg>
