<svg width="200" height="200" viewBox="0 0 200 200" fill="none" xmlns="http://www.w3.org/2000/svg">
<path d="M200 0H0V200H200V0Z" fill="white"/>
<path d="M31.0231 65.7239C33.3621 65.7239 35.5797 66.687 37.0122 68.249L35.4421 69.7949C34.4871 68.7427 32.7793 67.9496 31.0231 67.9496C27.6804 67.9496 25.0824 70.6123 25.0824 74.1492C25.0824 77.8479 27.7452 80.3487 31.2335 80.3487C33.4349 80.3487 35.0212 79.1347 35.9358 78.034L37.595 79.5313C36.1867 81.32 33.7587 82.5583 31.2335 82.5583C26.345 82.5583 22.7434 78.981 22.7434 74.1411C22.7434 69.4145 26.2965 65.7239 31.0231 65.7239V65.7239ZM51.9043 78.115H45.0086L43.3009 82.3236H40.8647L47.6471 65.9586H49.282L56.0643 82.3236H53.6282L51.9043 78.115V78.115ZM45.9394 75.8893H50.9897L48.4645 69.8111L45.9394 75.8893V75.8893ZM62.96 70.3048V82.3236H60.621V65.9505H62.2639L72.0813 77.9774V65.9505H74.4204V82.3236H72.7855L62.96 70.3048ZM90.0165 78.115H83.1209L81.4131 82.3236H78.9851L85.7674 65.9586H87.4023L94.1847 82.3236H91.7485L90.0165 78.115V78.115ZM84.0516 75.8893H89.102L86.5768 69.8111L84.0516 75.8893V75.8893ZM101.08 80.0979H108.324V82.3236H98.7413V65.9505H101.08V80.0979Z" fill="black"/>
<path d="M21.667 98.6885H178.341V101.027H21.667V98.6885ZM95.6739 130.261H94.039L89.2476 122.75V133.765H86.9086V117.401H88.5435L94.8564 127.38L101.169 117.401H102.804V133.765H100.473V122.75L95.6739 130.261ZM118.408 129.557H111.513L109.805 133.765H107.377L114.159 117.401H115.794L122.577 133.765H120.14L118.408 129.557V129.557ZM112.444 127.339H117.494L114.969 121.261L112.444 127.339V127.339ZM129.464 126.052V133.765H127.125V117.401H132.855C134.353 117.401 135.283 117.749 136.036 118.356C137.015 119.149 137.647 120.363 137.647 121.722C137.647 123.082 137.015 124.296 136.036 125.089C135.518 125.51 134.935 125.81 134.118 125.955L139.986 133.765H137.153L131.334 126.052H129.464V126.052ZM132.742 123.827C133.794 123.827 134.328 123.592 134.709 123.22C135.081 122.847 135.316 122.305 135.316 121.722C135.316 121.14 135.081 120.597 134.709 120.225C134.336 119.853 133.794 119.618 132.742 119.618H129.464V123.827H132.742V123.827ZM150.952 117.166C153.291 117.166 155.509 118.129 156.942 119.691L155.371 121.237C154.416 120.185 152.709 119.392 150.952 119.392C147.61 119.392 145.012 122.054 145.012 125.591C145.012 129.29 147.675 131.791 151.163 131.791C153.364 131.791 154.951 130.577 155.865 129.476L157.524 130.973C156.124 132.778 153.688 134.016 151.163 134.016C146.274 134.016 142.673 130.439 142.673 125.599C142.681 120.856 146.234 117.166 150.952 117.166V117.166ZM173.897 126.052H164.776V133.765H162.437V117.401H164.776V123.827H173.897V117.401H176.228V133.765H173.897V126.052Z" fill="black"/>
</svg>
