<svg width="200" height="200" viewBox="0 0 200 200" fill="none" xmlns="http://www.w3.org/2000/svg">
<rect width="200" height="200" fill="white"/>
<path fill-rule="evenodd" clip-rule="evenodd" d="M58.1716 114.066C58.1716 112.321 57.3091 111.558 55.5071 110.983C54.7372 110.734 53.7978 110.515 53.7978 109.908C53.7978 109.41 54.1051 109.192 54.5677 109.192H54.829C55.3526 109.192 55.7384 109.472 56.0148 110.002C56.0766 110.126 56.2152 110.126 56.3238 110.049L57.9244 108.974C58.0789 108.881 58.0171 108.725 57.9553 108.632C57.7612 108.291 57.5114 107.986 57.2164 107.728C56.616 107.199 55.7993 106.904 54.799 106.904H54.5677C52.4576 106.904 51.1792 108.056 51.1792 109.986C51.1792 111.715 52.1036 112.4 53.751 112.975C54.7831 113.334 55.553 113.427 55.553 114.128C55.553 114.579 55.2449 114.844 54.7672 114.844H54.2905C53.7669 114.844 53.3811 114.564 53.1048 114.034C53.043 113.91 52.9044 113.91 52.7958 113.988L51.1951 115.062C51.0406 115.155 51.1024 115.296 51.1642 115.388C51.3337 115.685 51.5341 115.95 51.7796 116.183C52.3958 116.79 53.2584 117.133 54.3214 117.133H54.7981C56.97 117.133 58.1708 115.981 58.1708 114.066H58.1716ZM78.5389 116.774V107.235C78.5389 107.11 78.4311 107.079 78.3693 107.079H76.1074C76.0297 107.079 75.9688 107.11 75.9688 107.235V116.774C75.9688 116.899 76.0306 116.931 76.1074 116.931H78.3702C78.4629 116.931 78.5397 116.899 78.5397 116.774H78.5389ZM74.8961 109.234V107.235C74.8961 107.11 74.8043 107.079 74.7425 107.079H68.3371C68.2603 107.079 68.1985 107.11 68.1985 107.235V116.774C68.1985 116.899 68.2603 116.931 68.3371 116.931H70.615C70.6927 116.931 70.7704 116.899 70.7704 116.774V113.261C70.7704 113.152 70.8163 113.089 70.9549 113.089H74.0644C74.1421 113.089 74.2189 113.058 74.2189 112.949V110.935C74.2189 110.826 74.1421 110.794 74.0644 110.794H70.9549C70.8163 110.794 70.7695 110.732 70.7695 110.622V109.545C70.7695 109.437 70.8163 109.374 70.9549 109.374H74.7425C74.8343 109.374 74.8961 109.343 74.8961 109.233V109.234ZM88.044 116.728L84.8223 107.196C84.7914 107.102 84.7455 107.087 84.6837 107.087H83.0027C82.91 107.087 82.8791 107.117 82.8491 107.196L79.6266 116.728C79.5798 116.852 79.6416 116.931 79.7802 116.931H82.1551C82.232 116.931 82.2629 116.899 82.2938 116.821L82.7096 115.651C82.7405 115.573 82.7714 115.542 82.895 115.542H84.7455C84.8691 115.542 84.915 115.573 84.9459 115.651L85.3468 116.821C85.3768 116.899 85.3927 116.931 85.4854 116.931H87.9062C88.0758 116.931 88.0908 116.852 88.0449 116.728H88.044ZM84.4215 113.561C84.4365 113.638 84.3906 113.701 84.2829 113.701H83.3885C83.2649 113.701 83.219 113.639 83.234 113.56L83.5113 112.344C83.7276 111.424 83.8353 110.425 83.8353 110.425H83.8812C83.8812 110.425 83.9898 111.424 84.1743 112.344L84.4215 113.561ZM39.074 116.75V107.237C39.074 107.112 38.9813 107.08 38.9204 107.08H36.7485C36.6558 107.08 36.6099 107.112 36.6099 107.237V109.758C36.6099 111.144 36.6867 112.359 36.6867 112.359H36.6408C36.6408 112.359 36.5172 112.016 36.3017 111.611L34.023 107.221C33.9762 107.127 33.9144 107.08 33.8226 107.08H31.8661C31.7893 107.08 31.7275 107.112 31.7275 107.237V116.75C31.7275 116.873 31.7893 116.905 31.8661 116.905H34.0839C34.1766 116.905 34.2384 116.874 34.2384 116.75V114.273C34.2384 112.997 34.1457 111.767 34.1457 111.767H34.2075C34.2075 111.767 34.3311 112.109 34.5307 112.468L36.8262 116.765C36.8712 116.842 36.918 116.905 36.9948 116.905H38.9195C39.0122 116.905 39.074 116.874 39.074 116.75V116.75ZM30.2416 116.75V107.237C30.2416 107.112 30.1339 107.08 30.0721 107.08H27.8084C27.7307 107.08 27.6698 107.112 27.6698 107.237V116.75C27.6698 116.873 27.7316 116.905 27.8084 116.905H30.0721C30.1648 116.905 30.2416 116.874 30.2416 116.75V116.75ZM66.974 114.205V109.831C66.974 108.056 65.6346 106.904 63.6632 106.904H62.5861C60.6137 106.904 59.2435 108.071 59.2435 109.831V114.205C59.2435 115.965 60.5828 117.133 62.5852 117.133H63.6623C65.6346 117.133 66.974 115.965 66.974 114.205ZM64.418 114.205C64.418 114.579 64.1408 114.844 63.6632 114.844H62.5861C62.0466 114.844 61.7694 114.595 61.7694 114.205V109.831C61.7694 109.504 62.1384 109.177 62.5852 109.177H63.6623C64.1099 109.177 64.418 109.457 64.418 109.831V114.205ZM48.4935 116.703L45.2745 107.19C45.2436 107.096 45.1977 107.08 45.1359 107.08H43.4584C43.3657 107.08 43.3348 107.112 43.3039 107.19L40.0858 116.703C40.039 116.827 40.1008 116.905 40.2394 116.905H42.6108C42.6885 116.905 42.7185 116.874 42.7503 116.796L43.1653 115.628C43.1962 115.551 43.2271 115.519 43.3507 115.519H45.1986C45.3222 115.519 45.3681 115.551 45.399 115.628L45.7989 116.796C45.8298 116.874 45.8457 116.905 45.9375 116.905H48.3557C48.5253 116.905 48.5403 116.827 48.4944 116.702L48.4935 116.703ZM44.8737 113.542C44.8895 113.62 44.8436 113.682 44.7359 113.682H43.8424C43.7188 113.682 43.6729 113.62 43.6888 113.542L43.9652 112.327C44.1815 111.409 44.2883 110.412 44.2883 110.412H44.3351C44.3351 110.412 44.4428 111.409 44.6273 112.328L44.8745 113.542H44.8737ZM26.183 116.75V114.756C26.183 114.648 26.1062 114.617 26.0294 114.617H22.2418C22.1023 114.617 22.0564 114.555 22.0564 114.445V113.246C22.0564 113.137 22.1023 113.075 22.2418 113.075H25.3522C25.429 113.075 25.5058 113.043 25.5058 112.934V110.926C25.5058 110.817 25.429 110.786 25.3522 110.786H22.2409C22.1023 110.786 22.0555 110.724 22.0555 110.615V109.54C22.0555 109.431 22.1023 109.37 22.2409 109.37H26.0294C26.1221 109.37 26.183 109.338 26.183 109.228V107.237C26.183 107.112 26.0912 107.08 26.0294 107.08H19.6232C19.5464 107.08 19.4846 107.112 19.4846 107.237V116.75C19.4846 116.873 19.5464 116.905 19.6232 116.905H26.0294C26.1221 116.905 26.183 116.874 26.183 116.75V116.75ZM15.3642 110.319C15.3642 110.74 15.0711 110.942 14.5943 110.942H12.9151C12.7764 110.942 12.7296 110.88 12.7296 110.771V109.54C12.7296 109.431 12.7764 109.37 12.9151 109.37H14.5943C15.102 109.37 15.3642 109.603 15.3642 110.023V110.319V110.319ZM18.2132 116.702L16.7035 112.794C16.6576 112.655 16.6417 112.545 16.7812 112.453C17.4584 112.016 17.9051 111.27 17.9051 110.304V110.163C17.9051 108.248 16.6117 107.08 14.5943 107.08H10.2973C10.2196 107.08 10.1587 107.112 10.1587 107.237V116.75C10.1587 116.873 10.2205 116.905 10.2973 116.905H12.5751C12.652 116.905 12.7296 116.874 12.7296 116.75V113.246C12.7296 113.137 12.7756 113.075 12.9142 113.075H13.9763C14.0381 113.075 14.0849 113.106 14.1158 113.184L15.5319 116.796C15.5628 116.858 15.6096 116.905 15.6705 116.905H18.0737C18.2274 116.905 18.2583 116.811 18.2124 116.702H18.2132ZM60.9262 88.2264C60.9262 89.4845 59.9904 90.3188 58.6131 90.3188H57.8609C56.4633 90.3188 55.5274 89.4845 55.5274 88.2264V85.0975C55.5274 83.8394 56.4844 83.0042 57.8609 83.0042H58.614C59.9913 83.0042 60.9262 83.8279 60.9262 85.0966V85.6969H59.141V85.0966C59.141 84.83 58.9256 84.6295 58.614 84.6295H57.8609C57.5492 84.6295 57.2905 84.8635 57.2905 85.0975V88.2264C57.2905 88.5045 57.4848 88.6829 57.8609 88.6829H58.614C58.9477 88.6829 59.141 88.493 59.141 88.2264V87.626H60.9262V88.2264V88.2264ZM16.564 90.0805V83.2708C16.564 83.1816 16.5199 83.1587 16.4563 83.1587H14.8954C14.8729 83.1585 14.8508 83.1647 14.8317 83.1765C14.8127 83.1884 14.7974 83.2055 14.7876 83.2258L13.5498 86.6478C13.498 86.7948 13.4512 86.9435 13.4095 87.0937H13.3662C13.3662 87.0937 13.345 86.8932 13.2479 86.6478L11.9677 83.2266C11.9579 83.2062 11.9425 83.1891 11.9232 83.1772C11.904 83.1653 11.8817 83.1592 11.8591 83.1595H10.2558C10.1905 83.1595 10.1587 83.1825 10.1587 83.2717V90.0805C10.1587 90.1687 10.1905 90.1917 10.2558 90.1917H11.7735C11.8485 90.1917 11.8812 90.1696 11.8812 90.0805V88.6202C11.8812 87.5616 11.7841 86.5922 11.7841 86.5922H11.8167C11.8167 86.5922 11.9139 87.0601 12.0851 87.5616L12.6564 89.2444C12.6882 89.3335 12.7853 89.3556 12.8497 89.3556H13.8942C13.9586 89.3556 14.0443 89.3335 14.0769 89.2444L14.6473 87.5951C14.8194 87.0937 14.9165 86.5922 14.9165 86.5922H14.9492C14.9492 86.5922 14.8733 87.5951 14.8733 88.6422V90.0805C14.8733 90.1687 14.8954 90.1917 14.9704 90.1917H16.4563C16.5207 90.1917 16.564 90.1696 16.564 90.0805V90.0805ZM34.4759 90.076V88.6493C34.4759 88.5716 34.4221 88.5495 34.3682 88.5495H31.8617C31.7646 88.5495 31.7328 88.5054 31.7328 88.4259V87.5687C31.7328 87.491 31.7646 87.4459 31.8617 87.4459H33.8941C33.9489 87.4459 34.0027 87.4239 34.0027 87.3453V85.908C34.0027 85.8303 33.9489 85.8082 33.8941 85.8082H31.8617C31.7646 85.8082 31.7328 85.764 31.7328 85.6846V84.9165C31.7328 84.8388 31.7646 84.7938 31.8617 84.7938H34.3691C34.4327 84.7938 34.4751 84.7717 34.4751 84.694V83.2672C34.4751 83.1781 34.4115 83.156 34.3691 83.156H30.0324C29.9776 83.156 29.9353 83.1781 29.9353 83.2672V90.076C29.9353 90.1643 29.9776 90.1873 30.0324 90.1873H34.3682C34.4327 90.1873 34.4759 90.1652 34.4759 90.076ZM28.9703 88.1372C28.9703 86.8888 28.3682 86.3423 27.1083 85.93C26.5697 85.7526 25.9137 85.5963 25.9137 85.1619C25.9137 84.8043 26.1283 84.6498 26.4523 84.6498H26.6351C27.0006 84.6498 27.2698 84.8494 27.4632 85.2281C27.5073 85.3173 27.6036 85.3173 27.6786 85.2617L28.7981 84.4936C28.9058 84.4256 28.8626 84.3143 28.8202 84.2472C28.6849 84.0045 28.51 83.7861 28.3028 83.601C27.8834 83.2222 27.3131 83.0112 26.613 83.0112H26.4514C24.977 83.0112 24.0835 83.8349 24.0835 85.2175C24.0835 86.4536 24.7289 86.9445 25.8811 87.3568C26.6024 87.6128 27.1401 87.6799 27.1401 88.1814C27.1401 88.5045 26.9255 88.6934 26.5918 88.6934H26.2581C25.8917 88.6934 25.6224 88.4939 25.429 88.1143C25.3858 88.026 25.2887 88.026 25.2136 88.0816L24.0941 88.8497C23.9864 88.9168 24.0297 89.0175 24.0729 89.0846C24.1912 89.2965 24.3316 89.4854 24.5029 89.6523C24.9337 90.0875 25.5359 90.3321 26.2793 90.3321H26.613C28.1315 90.3321 28.9703 89.5075 28.9703 88.1372V88.1372ZM40.6985 88.237V85.1072C40.6985 83.8358 39.7618 83.0121 38.3836 83.0121H37.6305C36.2532 83.0121 35.2944 83.8473 35.2944 85.1072V88.2379C35.2944 89.4978 36.2302 90.333 37.6305 90.333H38.3836C39.7618 90.333 40.6985 89.4978 40.6985 88.2379V88.237ZM38.9115 88.237C38.9115 88.5045 38.7173 88.6943 38.3836 88.6943H37.6305C37.2535 88.6943 37.0593 88.516 37.0593 88.237V85.1072C37.0593 84.8723 37.3179 84.6392 37.6305 84.6392H38.3836C38.6961 84.6392 38.9115 84.8397 38.9115 85.1072V88.2379V88.237ZM23.2086 88.2414V83.2708C23.2086 83.1825 23.1759 83.1595 23.1115 83.1595H21.5293C21.4755 83.1595 21.4322 83.1825 21.4322 83.2717V88.2423C21.4322 88.5204 21.2707 88.6987 20.8937 88.6987H20.1406C19.7424 88.6987 19.5702 88.5204 19.5702 88.2414V83.2708C19.5702 83.1825 19.5164 83.1595 19.4731 83.1595H17.9122C17.8477 83.1595 17.8151 83.1825 17.8151 83.2717V88.2423C17.8151 89.5004 18.7412 90.3365 20.1406 90.3365H20.8937C22.271 90.3365 23.2086 89.5004 23.2086 88.2414ZM48.5032 90.0822V83.2734C48.5032 83.1843 48.4379 83.1613 48.3955 83.1613H46.8769C46.8125 83.1613 46.7798 83.1843 46.7798 83.2734V85.078C46.7798 86.0704 46.8345 86.9392 46.8345 86.9392H46.8019C46.8019 86.9392 46.7162 86.6946 46.5653 86.4041L44.9717 83.262C44.9399 83.1949 44.8966 83.1613 44.8322 83.1613H43.4646C43.4116 83.1613 43.3675 83.1843 43.3675 83.2734V90.0822C43.3675 90.1705 43.4116 90.1935 43.4646 90.1935H45.0149C45.0794 90.1935 45.1226 90.1714 45.1226 90.0822V88.3103C45.1226 87.3965 45.0582 86.5163 45.0582 86.5163H45.1014C45.1014 86.5163 45.1871 86.7608 45.3275 87.0177L46.9308 90.0937C46.9634 90.1493 46.9961 90.1935 47.05 90.1935H48.3955C48.4599 90.1935 48.5032 90.1714 48.5032 90.0822V90.0822ZM88.021 90.0822V88.6555C88.021 88.5778 87.9672 88.5548 87.9133 88.5548H85.2647C85.1675 88.5548 85.1366 88.5107 85.1366 88.433V83.2734C85.1366 83.1843 85.0713 83.1613 85.028 83.1613H83.4353C83.3815 83.1613 83.3382 83.1843 83.3382 83.2734V90.0822C83.3382 90.1705 83.3815 90.1935 83.4353 90.1935H87.9133C87.9778 90.1935 88.021 90.1714 88.021 90.0822V90.0822ZM76.1339 90.0822V83.2734C76.1339 83.1843 76.0694 83.1613 76.0262 83.1613H74.5085C74.4432 83.1613 74.4114 83.1843 74.4114 83.2734V85.078C74.4114 86.0704 74.4644 86.9392 74.4644 86.9392H74.4326C74.4326 86.9392 74.3469 86.6946 74.196 86.4041L72.6024 83.262C72.5697 83.1949 72.5264 83.1613 72.462 83.1613H71.0953C71.0414 83.1613 70.9982 83.1843 70.9982 83.2734V90.0822C70.9982 90.1705 71.0414 90.1935 71.0953 90.1935H72.6447C72.7101 90.1935 72.7524 90.1714 72.7524 90.0822V88.3103C72.7524 87.3965 72.688 86.5163 72.688 86.5163H72.7321C72.7321 86.5163 72.8178 86.7608 72.9573 87.0177L74.5615 90.0937C74.5933 90.1493 74.6259 90.1935 74.6798 90.1935H76.0253C76.0897 90.1935 76.133 90.1714 76.133 90.0822H76.1339ZM63.6437 90.0822V83.2734C63.6437 83.1843 63.5678 83.1613 63.5254 83.1613H61.9424C61.8895 83.1613 61.8453 83.1843 61.8453 83.2734V90.0822C61.8453 90.1705 61.8895 90.1935 61.9424 90.1935H63.5254C63.5899 90.1935 63.6437 90.1714 63.6437 90.0822ZM82.5313 90.0487L80.2817 83.2399C80.2596 83.1728 80.2269 83.1613 80.1846 83.1613H79.0103C78.9468 83.1613 78.9247 83.1843 78.9035 83.2399L76.6539 90.0487C76.6212 90.137 76.6645 90.1935 76.7607 90.1935H78.4188C78.4718 90.1935 78.4947 90.1714 78.5159 90.1158L78.8064 89.2797C78.8276 89.2241 78.8496 89.202 78.9353 89.202H80.2269C80.3135 89.202 80.3461 89.2241 80.3682 89.2797L80.6472 90.1158C80.6684 90.1714 80.6799 90.1935 80.7443 90.1935H82.4341C82.5524 90.1935 82.563 90.1378 82.5313 90.0487V90.0487ZM80.0009 87.7867C80.0124 87.8423 79.9797 87.8865 79.9038 87.8865H79.2805C79.194 87.8865 79.1622 87.8423 79.1728 87.7867L79.3661 86.9171C79.5162 86.2593 79.5921 85.546 79.5921 85.546H79.6248C79.6248 85.546 79.6999 86.2593 79.8288 86.9171L80.0009 87.7867V87.7867ZM69.9272 88.2432V85.1116C69.9272 83.8411 68.9914 83.0165 67.6132 83.0165H66.8592C65.4819 83.0165 64.5231 83.8526 64.5231 85.1116V88.2432C64.5231 89.5022 65.4598 90.3383 66.8592 90.3383H67.6132C68.9905 90.3383 69.9272 89.5022 69.9272 88.2432V88.2432ZM68.1403 88.2432C68.1403 88.5107 67.946 88.7005 67.6132 88.7005H66.8592C66.4831 88.7005 66.2889 88.5222 66.2889 88.2432V85.1116C66.2889 84.8776 66.5467 84.6437 66.8592 84.6437H67.6132C67.9257 84.6437 68.1403 84.845 68.1403 85.1116V88.2432V88.2432ZM55.1195 90.0478L52.869 83.239C52.8479 83.1719 52.8161 83.1613 52.7719 83.1613H51.5986C51.535 83.1613 51.5129 83.1834 51.4917 83.239L49.2413 90.0478C49.2095 90.137 49.2528 90.1935 49.349 90.1935H51.007C51.0609 90.1935 51.0821 90.1705 51.1042 90.1149L51.3946 89.2797C51.4158 89.2232 51.437 89.2011 51.5235 89.2011H52.8152C52.9017 89.2011 52.9335 89.2232 52.9556 89.2797L53.2354 90.1149C53.2566 90.1705 53.2672 90.1935 53.3326 90.1935H55.0224C55.1407 90.1935 55.1513 90.137 55.1195 90.0478V90.0478ZM52.5892 87.7858C52.5998 87.8415 52.568 87.8865 52.4921 87.8865H51.8679C51.7822 87.8865 51.7495 87.8423 51.7601 87.7858L51.9544 86.9171C52.1045 86.2593 52.1804 85.546 52.1804 85.546H52.2122C52.2122 85.546 52.2881 86.2593 52.417 86.9171L52.5892 87.7858V87.7858ZM15.5637 97.095C15.5637 98.3531 14.6278 99.1883 13.2505 99.1883H12.4983C11.1007 99.1883 10.164 98.3531 10.164 97.095V93.9651C10.164 92.707 11.1219 91.8727 12.4983 91.8727H13.2514C14.6278 91.8727 15.5637 92.6956 15.5637 93.9651V94.5655H13.7776V93.9651C13.7776 93.6985 13.5631 93.4972 13.2514 93.4972H12.4983C12.1867 93.4972 11.928 93.7312 11.928 93.9651V97.095C11.928 97.3731 12.1222 97.5514 12.4983 97.5514H13.2514C13.5843 97.5514 13.7776 97.3625 13.7776 97.095V96.4946H15.5637V97.095ZM33.9259 93.6093V92.1826C33.9259 92.0934 33.8615 92.0714 33.8288 92.0714H29.1257C29.0727 92.0714 29.018 92.0934 29.018 92.1826V93.6093C29.018 93.687 29.0718 93.71 29.1257 93.71H30.4447C30.563 93.71 30.5842 93.7541 30.5842 93.8318V98.9932C30.5842 99.0814 30.6275 99.1044 30.6813 99.1044H32.2634C32.3164 99.1044 32.3711 99.0814 32.3711 98.9932V93.8318C32.3711 93.7541 32.3923 93.71 32.5 93.71H33.8297C33.8826 93.71 33.9268 93.687 33.9268 93.6093H33.9259ZM27.9382 98.9932V92.1826C27.9382 92.0934 27.8737 92.0714 27.8314 92.0714H26.3128C26.2484 92.0714 26.2157 92.0934 26.2157 92.1826V93.9881C26.2157 94.9805 26.2704 95.8492 26.2704 95.8492H26.2378C26.2378 95.8492 26.1521 95.6047 26.0011 95.3151L24.4084 92.172C24.3758 92.104 24.3325 92.0714 24.268 92.0714H22.9013C22.8475 92.0714 22.8042 92.0934 22.8042 92.1826V98.9932C22.8042 99.0814 22.8475 99.1044 22.9013 99.1044H24.4508C24.5153 99.1044 24.5585 99.0823 24.5585 98.9932V97.2203C24.5585 96.3065 24.4941 95.4263 24.4941 95.4263H24.5382C24.5382 95.4263 24.6238 95.6709 24.7633 95.9278L26.3675 99.0038C26.3993 99.0594 26.432 99.1044 26.4858 99.1044H27.8314C27.8958 99.1044 27.9382 99.0823 27.9382 98.9932V98.9932ZM46.846 97.0967V93.9643C46.846 92.6929 45.9102 91.8692 44.532 91.8692H43.7789C42.4016 91.8692 41.4428 92.7044 41.4428 93.9643V97.0958C41.4428 98.3557 42.3786 99.1918 43.7789 99.1918H44.532C45.9093 99.1918 46.846 98.3557 46.846 97.0958V97.0967ZM45.0599 97.0967C45.0599 97.3642 44.8657 97.5532 44.532 97.5532H43.7789C43.4019 97.5532 43.2085 97.3748 43.2085 97.0958V93.9643C43.2085 93.7303 43.4663 93.4963 43.7789 93.4963H44.532C44.8445 93.4963 45.0599 93.6967 45.0599 93.9643V97.0958V97.0967ZM40.6279 98.9596L39.5728 96.1609C39.541 96.0611 39.5304 95.9834 39.6267 95.9163C40.1008 95.6047 40.4124 95.0687 40.4124 94.3783V94.2777C40.4124 92.9066 39.5084 92.0705 38.0993 92.0705H35.0957C35.0419 92.0705 34.9986 92.0934 34.9986 92.1826V98.9932C34.9986 99.0814 35.0419 99.1044 35.0957 99.1044H36.6884C36.7423 99.1044 36.7962 99.0823 36.7962 98.9932V96.4849C36.7962 96.4063 36.8279 96.3622 36.9251 96.3622H37.6676C37.7117 96.3622 37.7435 96.3842 37.7647 96.4399L38.7553 99.0267C38.7765 99.0709 38.8082 99.1044 38.8524 99.1044H40.5308C40.6385 99.1044 40.6605 99.0373 40.6279 98.9596V98.9596ZM38.6378 94.3898C38.6378 94.69 38.433 94.8357 38.0993 94.8357H36.9251C36.8279 94.8357 36.7962 94.7915 36.7962 94.7121V93.8318C36.7962 93.7541 36.8279 93.71 36.9251 93.71H38.0993C38.4533 93.71 38.637 93.8769 38.637 94.1779V94.3898H38.6378ZM21.4516 98.9932V97.5664C21.4516 97.4878 21.3987 97.4658 21.3439 97.4658H18.6962C18.5991 97.4658 18.5673 97.4216 18.5673 97.3431V96.4849C18.5673 96.4063 18.5999 96.3622 18.6962 96.3622H20.8707C20.9237 96.3622 20.9784 96.3401 20.9784 96.2615V94.8242C20.9784 94.7456 20.9246 94.7235 20.8707 94.7235H18.6962C18.5991 94.7235 18.5673 94.6794 18.5673 94.6008V93.8327C18.5673 93.7541 18.5999 93.7091 18.6962 93.7091H21.3448C21.4093 93.7091 21.4516 93.687 21.4516 93.6093V92.1826C21.4516 92.0934 21.3872 92.0714 21.3439 92.0714H16.8668C16.813 92.0714 16.7697 92.0934 16.7697 92.1826V98.9932C16.7697 99.0814 16.813 99.1044 16.8668 99.1044H21.3439C21.4093 99.1044 21.4516 99.0823 21.4516 98.9932V98.9932ZM88.0201 98.9932V97.5664C88.0201 97.4878 87.9663 97.4658 87.9124 97.4658H85.2638C85.1667 97.4658 85.1358 97.4216 85.1358 97.3431V96.4849C85.1358 96.4072 85.1675 96.3622 85.2647 96.3622H87.4383C87.4922 96.3622 87.546 96.3401 87.546 96.2624V94.8233C87.546 94.7465 87.4931 94.7235 87.4383 94.7235H85.2647C85.1675 94.7235 85.1358 94.6794 85.1358 94.6017V93.8318C85.1358 93.7541 85.1675 93.71 85.2647 93.71H87.9124C87.9769 93.71 88.0201 93.687 88.0201 93.6093V92.1826C88.0201 92.0934 87.9548 92.0714 87.9124 92.0714H83.4344C83.3815 92.0714 83.3373 92.0934 83.3373 92.1826V98.9932C83.3373 99.0814 83.3815 99.1044 83.4344 99.1044H87.9124C87.9769 99.1044 88.0201 99.0814 88.0201 98.9932ZM82.0571 93.6093V92.1826C82.0571 92.0934 81.9918 92.0714 81.96 92.0714H77.2551C77.2022 92.0714 77.1474 92.0934 77.1474 92.1826V93.6093C77.1474 93.687 77.2013 93.71 77.2551 93.71H78.5742C78.6925 93.71 78.7137 93.7541 78.7137 93.8318V98.9932C78.7137 99.0814 78.7569 99.1044 78.8108 99.1044H80.3929C80.4459 99.1044 80.5006 99.0814 80.5006 98.9932V93.8318C80.5006 93.7541 80.5218 93.71 80.6295 93.71H81.9591C82.0121 93.71 82.0563 93.687 82.0563 93.6093H82.0571ZM61.3156 98.9932V97.5664C61.3156 97.4878 61.2626 97.4658 61.2079 97.4658H58.5601C58.463 97.4658 58.4312 97.4216 58.4312 97.3431V96.4849C58.4312 96.4072 58.463 96.3622 58.5601 96.3622H60.7346C60.7885 96.3622 60.8424 96.3401 60.8424 96.2624V94.8233C60.8424 94.7465 60.7885 94.7235 60.7346 94.7235H58.5601C58.463 94.7235 58.4312 94.6794 58.4312 94.6017V93.8318C58.4312 93.7541 58.463 93.71 58.5601 93.71H61.2088C61.2732 93.71 61.3156 93.687 61.3156 93.6093V92.1826C61.3156 92.0934 61.2511 92.0714 61.2079 92.0714H56.7308C56.6769 92.0714 56.6337 92.0934 56.6337 92.1826V98.9932C56.6337 99.0814 56.6769 99.1044 56.7308 99.1044H61.2079C61.2732 99.1044 61.3156 99.0814 61.3156 98.9932ZM53.4826 97.0084C53.4826 97.2433 53.246 97.4658 52.9441 97.4658H51.7707C51.6736 97.4658 51.6418 97.4216 51.6418 97.3431V93.8318C51.6418 93.7541 51.6745 93.71 51.7707 93.71H52.945C53.2354 93.71 53.4826 93.9545 53.4826 94.1779V97.0084ZM55.259 96.9201V94.2786C55.259 92.9074 54.3541 92.0714 52.945 92.0714H49.9414C49.8875 92.0714 49.8443 92.0934 49.8443 92.1826V98.9932C49.8443 99.0814 49.8875 99.1044 49.9414 99.1044H52.945C54.3541 99.1044 55.2581 98.2683 55.2581 96.9193L55.259 96.9201ZM76.6283 98.9596L75.5733 96.1609C75.5415 96.0611 75.5309 95.9834 75.6271 95.9163C76.1012 95.6047 76.4129 95.0687 76.4129 94.3783V94.2777C76.4129 92.9074 75.5088 92.0705 74.0988 92.0705H71.0962C71.0423 92.0705 70.999 92.0934 70.999 92.1826V98.9932C70.999 99.0814 71.0423 99.1044 71.0962 99.1044H72.6889C72.7419 99.1044 72.7966 99.0823 72.7966 98.9932V96.4849C72.7966 96.4072 72.8284 96.3622 72.9255 96.3622H73.668C73.7121 96.3622 73.7439 96.3851 73.7651 96.4407L74.7557 99.0258C74.7769 99.07 74.8087 99.1044 74.8528 99.1044H76.5312C76.6389 99.1044 76.6601 99.0373 76.6283 98.9596V98.9596ZM74.6374 94.3898C74.6374 94.69 74.4326 94.8357 74.0988 94.8357H72.9255C72.8284 94.8357 72.7966 94.7915 72.7966 94.7121V93.8318C72.7966 93.7541 72.8284 93.71 72.9255 93.71H74.0988C74.4538 93.71 74.6374 93.8769 74.6374 94.1779V94.3898V94.3898ZM70.0747 98.9596L67.8251 92.149C67.8039 92.082 67.7721 92.0714 67.728 92.0714H66.5555C66.491 92.0714 66.469 92.0934 66.4478 92.149L64.1973 98.9596C64.1646 99.0479 64.2079 99.1044 64.3041 99.1044H65.9622C66.0161 99.1044 66.0381 99.0823 66.0593 99.0258L66.3507 98.1906C66.371 98.135 66.393 98.112 66.4787 98.112H67.7703C67.8569 98.112 67.8895 98.135 67.9107 98.1906L68.1906 99.0258C68.2118 99.0823 68.2224 99.1044 68.2877 99.1044H69.9775C70.0959 99.1044 70.1064 99.0488 70.0747 98.9596V98.9596ZM67.5452 96.6968C67.5558 96.7524 67.524 96.7974 67.4481 96.7974H66.8239C66.7382 96.7974 66.7056 96.7524 66.7171 96.6968L66.9104 95.8271C67.0605 95.1694 67.1364 94.456 67.1364 94.456H67.1691C67.1691 94.456 67.2441 95.1694 67.373 95.8271L67.5452 96.6968Z" fill="black"/>
<path fill-rule="evenodd" clip-rule="evenodd" d="M7.34405 101.922H90.8339V80.3458H7.34494L7.34317 101.922H7.34405ZM90.8348 104.267H7.34494V119.744H90.8339L90.8348 104.267ZM5 122.089H93.1779V78H5V122.089Z" fill="black"/>
<path opacity="0.5" fill-rule="evenodd" clip-rule="evenodd" d="M103.525 88.0467V90.4009C103.313 90.5274 103.057 90.6249 102.757 90.6932C102.457 90.7616 102.15 90.7957 101.838 90.7957C101.404 90.7957 101.011 90.7274 100.661 90.5907C100.31 90.454 100.011 90.2667 99.7642 90.0288C99.5171 89.7908 99.3279 89.5073 99.1967 89.1782C99.0656 88.8492 99 88.4897 99 88.0999C99 87.6594 99.0782 87.2582 99.2346 86.8963C99.3909 86.5343 99.6016 86.2229 99.8664 85.9622C100.131 85.7015 100.439 85.499 100.79 85.3547C101.14 85.2104 101.51 85.1383 101.898 85.1383C102.029 85.1383 102.167 85.1471 102.31 85.1649C102.454 85.1826 102.597 85.2091 102.738 85.2446C102.879 85.28 103.015 85.3218 103.147 85.3699C103.278 85.418 103.396 85.4749 103.502 85.5408L103.048 86.3001C102.978 86.2546 102.893 86.2153 102.795 86.1824C102.696 86.1495 102.594 86.1204 102.488 86.0951C102.382 86.0698 102.278 86.0508 102.174 86.0382C102.071 86.0255 101.974 86.0192 101.883 86.0192C101.626 86.0192 101.38 86.0711 101.145 86.1748C100.911 86.2786 100.703 86.4191 100.521 86.5963C100.339 86.7735 100.194 86.9849 100.086 87.2304C99.9774 87.4759 99.9231 87.7379 99.9231 88.0164C99.9231 88.2695 99.9711 88.51 100.067 88.7378C100.163 88.9656 100.296 89.1668 100.468 89.3415C100.639 89.5162 100.844 89.6554 101.081 89.7592C101.318 89.863 101.578 89.9148 101.86 89.9148C101.961 89.9148 102.087 89.906 102.239 89.8883C102.39 89.8705 102.534 89.8389 102.67 89.7933V88.8517H101.641V88.0467H103.525ZM106.642 90.7957C106.345 90.7957 106.066 90.7464 105.806 90.6477C105.546 90.5489 105.321 90.411 105.129 90.2338C104.937 90.0566 104.786 89.8427 104.675 89.5921C104.564 89.3415 104.509 89.0643 104.509 88.7606V85.199H105.432V88.7378C105.432 88.8998 105.463 89.0517 105.526 89.1934C105.589 89.3352 105.675 89.4592 105.784 89.5655C105.892 89.6718 106.019 89.7566 106.166 89.8199C106.312 89.8832 106.471 89.9148 106.642 89.9148C106.814 89.9148 106.974 89.8832 107.123 89.8199C107.272 89.7566 107.402 89.6718 107.513 89.5655C107.624 89.4592 107.711 89.3352 107.774 89.1934C107.837 89.0517 107.868 88.8998 107.868 88.7378V85.199H108.791V88.7606C108.791 89.0643 108.736 89.3415 108.625 89.5921C108.514 89.8427 108.361 90.0566 108.167 90.2338C107.973 90.411 107.745 90.5489 107.482 90.6477C107.22 90.7464 106.94 90.7957 106.642 90.7957ZM110.01 90.735V85.199H113.672V86.0419H110.933V87.5304H113.369V88.3961H110.933V89.8693H113.778V90.735H110.01ZM114.693 90.735V85.199H116.252C116.555 85.199 116.831 85.2395 117.081 85.3205C117.33 85.4015 117.542 85.518 117.716 85.6698C117.89 85.8217 118.025 86.009 118.121 86.2318C118.217 86.4546 118.265 86.7051 118.265 86.9836C118.265 87.1355 118.25 87.2873 118.219 87.4392C118.189 87.5911 118.141 87.7379 118.076 87.8797C118.01 88.0214 117.924 88.1518 117.818 88.2708C117.712 88.3897 117.586 88.4922 117.44 88.5783C117.551 88.7555 117.659 88.9289 117.765 89.0985C117.871 89.2681 117.979 89.439 118.087 89.6111C118.195 89.7832 118.308 89.9604 118.424 90.1427C118.54 90.3249 118.666 90.5224 118.802 90.735H117.69C117.463 90.3806 117.248 90.0452 117.047 89.7288C116.845 89.4124 116.651 89.1124 116.464 88.8289H115.616V90.735H114.693ZM115.616 87.9556H116.358C116.55 87.9556 116.709 87.9227 116.835 87.8569C116.961 87.7911 117.062 87.7113 117.137 87.6177C117.213 87.524 117.266 87.4228 117.296 87.3139C117.327 87.2051 117.342 87.1051 117.342 87.014C117.342 86.9279 117.328 86.8304 117.3 86.7216C117.272 86.6128 117.222 86.5102 117.149 86.4141C117.076 86.3179 116.976 86.2369 116.85 86.171C116.724 86.1052 116.562 86.0723 116.366 86.0723H115.616V87.9556ZM124.379 85.199V90.9932C124.343 90.9476 124.265 90.8641 124.144 90.7426C124.023 90.6211 123.874 90.4755 123.698 90.3059C123.521 90.1363 123.326 89.949 123.111 89.744C122.897 89.5389 122.679 89.3314 122.457 89.1213C122.235 88.9112 122.018 88.7049 121.806 88.5024C121.594 88.2999 121.401 88.1138 121.227 87.9442C121.053 87.7746 120.907 87.6303 120.788 87.5114C120.67 87.3924 120.593 87.3101 120.558 87.2646C120.553 87.2544 120.532 87.2279 120.497 87.1848C120.462 87.1418 120.431 87.1026 120.406 87.0671L120.429 87.3101V90.735H119.506V84.9484C119.541 84.994 119.619 85.0763 119.74 85.1952C119.861 85.3142 120.01 85.4572 120.187 85.6243C120.363 85.7914 120.559 85.9736 120.773 86.171C120.988 86.3685 121.206 86.5697 121.428 86.7748C121.65 86.9798 121.867 87.1823 122.078 87.3823C122.29 87.5822 122.485 87.7645 122.661 87.929C122.838 88.0936 122.985 88.2341 123.104 88.3505C123.222 88.4669 123.299 88.5479 123.335 88.5935L123.478 88.8061L123.456 88.5479V85.199H124.379ZM125.65 85.199H126.581V90.735H125.65V85.199ZM132.006 90.3249C131.945 90.3654 131.861 90.4135 131.752 90.4692C131.644 90.5249 131.515 90.5768 131.367 90.6249C131.218 90.673 131.05 90.7135 130.863 90.7464C130.677 90.7793 130.477 90.7957 130.266 90.7957C129.832 90.7957 129.443 90.7211 129.1 90.5717C128.757 90.4224 128.467 90.2211 128.23 89.968C127.993 89.7149 127.811 89.4187 127.685 89.0795C127.559 88.7403 127.496 88.3834 127.496 88.0088C127.496 87.5936 127.572 87.2101 127.723 86.8583C127.875 86.5064 128.08 86.2027 128.34 85.947C128.6 85.6914 128.902 85.4927 129.248 85.3509C129.593 85.2091 129.963 85.1383 130.356 85.1383C130.508 85.1383 130.66 85.1497 130.814 85.1724C130.968 85.1952 131.113 85.2243 131.249 85.2598C131.386 85.2952 131.505 85.3357 131.609 85.3813C131.712 85.4268 131.787 85.4749 131.832 85.5256C131.787 85.5964 131.751 85.6547 131.726 85.7002C131.701 85.7458 131.674 85.7926 131.647 85.8407C131.619 85.8888 131.589 85.9432 131.556 86.004C131.523 86.0647 131.476 86.1483 131.416 86.2546C131.355 86.2141 131.282 86.1786 131.196 86.1483C131.111 86.1179 131.021 86.0938 130.928 86.0761C130.834 86.0584 130.74 86.0445 130.644 86.0344C130.548 86.0242 130.462 86.0192 130.387 86.0192C130.104 86.0192 129.843 86.0723 129.604 86.1786C129.364 86.285 129.157 86.4254 128.983 86.6001C128.809 86.7748 128.673 86.9785 128.574 87.2114C128.476 87.4443 128.427 87.6848 128.427 87.9328C128.427 88.1758 128.474 88.4125 128.567 88.6429C128.66 88.8732 128.791 89.077 128.96 89.2542C129.129 89.4314 129.33 89.5744 129.562 89.6832C129.794 89.7921 130.051 89.8465 130.334 89.8465C130.495 89.8465 130.652 89.83 130.803 89.7971C130.954 89.7642 131.088 89.7275 131.204 89.687C131.32 89.6465 131.415 89.606 131.488 89.5655C131.561 89.525 131.6 89.4972 131.605 89.482L132.006 90.3249ZM136.084 90.735C136.069 90.6995 136.043 90.6363 136.005 90.5451C135.967 90.454 135.92 90.3426 135.865 90.211C135.81 90.0794 135.749 89.9338 135.683 89.7744C135.618 89.6149 135.55 89.4491 135.479 89.277H133.58L132.975 90.735H132.059C132.079 90.6894 132.127 90.5768 132.203 90.3971C132.278 90.2173 132.373 89.9946 132.486 89.7288C132.6 89.463 132.726 89.1668 132.865 88.8403C133.004 88.5138 133.146 88.1809 133.292 87.8417C133.439 87.5025 133.581 87.1696 133.72 86.8431C133.859 86.5166 133.985 86.2204 134.098 85.9546C134.212 85.6888 134.306 85.4661 134.382 85.2864C134.458 85.1066 134.506 84.994 134.526 84.9484C134.546 84.994 134.595 85.1066 134.673 85.2864C134.751 85.4661 134.847 85.6888 134.961 85.9546C135.074 86.2204 135.2 86.5166 135.339 86.8431C135.478 87.1696 135.62 87.5025 135.767 87.8417C135.913 88.1809 136.055 88.5138 136.194 88.8403C136.333 89.1668 136.459 89.463 136.572 89.7288C136.686 89.9946 136.781 90.2173 136.856 90.3971C136.932 90.5768 136.98 90.6894 137 90.735H136.084ZM133.898 88.4948H135.154L134.609 87.1734C134.604 87.1684 134.591 87.1342 134.571 87.0709C134.551 87.0076 134.536 86.9507 134.526 86.9001C134.516 86.9507 134.5 87.0076 134.48 87.0709C134.46 87.1342 134.45 87.1684 134.45 87.1734L133.898 88.4948Z" fill="black"/>
<path opacity="0.5" fill-rule="evenodd" clip-rule="evenodd" d="M99.1771 82.1918V78.1878H100.267C100.476 78.1878 100.668 78.2154 100.842 78.2706C101.016 78.3258 101.166 78.4078 101.293 78.5164C101.42 78.625 101.518 78.7575 101.587 78.914C101.657 79.0705 101.692 79.25 101.692 79.4525C101.692 79.563 101.681 79.6725 101.659 79.7811C101.637 79.8897 101.601 79.9947 101.552 80.0959C101.502 80.1972 101.439 80.2911 101.362 80.3776C101.285 80.4641 101.191 80.5368 101.081 80.5957C101.228 80.8277 101.388 81.0845 101.56 81.3662C101.732 81.6478 101.907 81.9231 102.083 82.1918H101.362C101.288 82.0777 101.212 81.958 101.133 81.8329C101.055 81.7077 100.976 81.5834 100.897 81.4601C100.818 81.3367 100.741 81.2152 100.666 81.0956C100.59 80.9759 100.52 80.8645 100.454 80.7614H99.7825V82.1918H99.1771ZM99.7825 80.1926H100.327C100.474 80.1926 100.597 80.1677 100.696 80.118C100.795 80.0683 100.873 80.0066 100.93 79.933C100.987 79.8594 101.027 79.7802 101.051 79.6955C101.075 79.6108 101.087 79.5335 101.087 79.4636C101.087 79.3936 101.075 79.3172 101.051 79.2344C101.027 79.1515 100.986 79.0742 100.927 79.0024C100.868 78.9306 100.79 78.8708 100.693 78.8229C100.596 78.775 100.476 78.7511 100.333 78.7511H99.7825V80.1926ZM102.633 82.1918V78.1878H105.252V78.7345H103.238V79.9054H105.032V80.4632H103.238V81.634H105.33V82.1918H102.633ZM106.634 80.1926H107.179C107.325 80.1926 107.448 80.1668 107.547 80.1152C107.646 80.0637 107.724 80.0011 107.781 79.9275C107.838 79.8538 107.878 79.7747 107.902 79.69C107.926 79.6053 107.938 79.5298 107.938 79.4636C107.938 79.3936 107.926 79.3172 107.902 79.2344C107.878 79.1515 107.837 79.0742 107.778 79.0024C107.72 78.9306 107.642 78.8708 107.545 78.8229C107.447 78.775 107.327 78.7511 107.184 78.7511H106.634V80.1926ZM106.028 82.1918V78.1878H107.118C107.327 78.1878 107.519 78.2154 107.693 78.2706C107.867 78.3258 108.018 78.4078 108.144 78.5164C108.271 78.625 108.369 78.7575 108.439 78.914C108.508 79.0705 108.543 79.25 108.543 79.4525C108.543 79.6108 108.519 79.7682 108.472 79.9247C108.424 80.0812 108.347 80.2211 108.241 80.3444C108.134 80.4678 107.995 80.5681 107.822 80.6454C107.65 80.7228 107.441 80.7614 107.195 80.7614H106.634V82.1918H106.028ZM109.204 82.1918V78.1878H111.823V78.7345H109.809V79.9054H111.603V80.4632H109.809V81.634H111.9V82.1918H109.204ZM116.099 78.1878V82.3741C116.048 82.3078 115.949 82.201 115.802 82.0538L115.296 81.5457C115.105 81.3542 114.902 81.1535 114.687 80.9437C114.473 80.7338 114.27 80.5341 114.079 80.3444C113.889 80.1548 113.722 79.9855 113.579 79.8363C113.436 79.6872 113.34 79.5814 113.292 79.5188L113.188 79.3752L113.204 79.5519V82.1918H112.599V78C112.639 78.0515 112.706 78.1252 112.8 78.2209C112.893 78.3166 113.004 78.428 113.13 78.555C113.257 78.6821 113.396 78.8192 113.548 78.9665C113.701 79.1138 113.855 79.2629 114.011 79.4138C114.167 79.5648 114.321 79.713 114.473 79.8584C114.625 80.0039 114.765 80.1392 114.891 80.2644C115.018 80.3896 115.127 80.5 115.219 80.5957C115.31 80.6915 115.374 80.7633 115.411 80.8111L115.516 80.9658L115.499 80.778V78.1878H116.099ZM119.362 78.4087L119.148 78.9002C118.997 78.845 118.848 78.8008 118.699 78.7677C118.551 78.7345 118.408 78.718 118.273 78.718C118.042 78.718 117.857 78.7658 117.72 78.8616C117.582 78.9573 117.513 79.0788 117.513 79.2261C117.513 79.3513 117.563 79.4516 117.662 79.5271C117.761 79.6025 117.884 79.6707 118.031 79.7314C118.177 79.7922 118.337 79.8529 118.509 79.9137C118.682 79.9744 118.841 80.0527 118.988 80.1484C119.135 80.2441 119.258 80.3647 119.357 80.5101C119.456 80.6556 119.505 80.8424 119.505 81.0707C119.505 81.2474 119.473 81.4067 119.409 81.5484C119.345 81.6902 119.25 81.8126 119.123 81.9157C118.996 82.0188 118.839 82.0979 118.65 82.1532C118.461 82.2084 118.24 82.236 117.987 82.236C117.825 82.236 117.679 82.225 117.549 82.2029C117.419 82.1808 117.301 82.1523 117.197 82.1173C117.092 82.0823 117.001 82.0446 116.922 82.0041C116.843 81.9636 116.776 81.9267 116.721 81.8936L116.985 81.3689C117.132 81.4536 117.295 81.5217 117.475 81.5733C117.655 81.6248 117.818 81.6506 117.965 81.6506C118.038 81.6506 118.129 81.6414 118.237 81.623C118.345 81.6046 118.449 81.5724 118.548 81.5263C118.647 81.4803 118.732 81.4186 118.804 81.3413C118.875 81.264 118.911 81.1664 118.911 81.0486C118.911 80.9418 118.883 80.8507 118.826 80.7752C118.769 80.6997 118.694 80.6335 118.6 80.5764C118.507 80.5193 118.4 80.4678 118.281 80.4218C118.162 80.3757 118.04 80.3279 117.915 80.2782C117.79 80.2285 117.668 80.176 117.549 80.1208C117.43 80.0655 117.323 79.9983 117.23 79.9192C117.136 79.84 117.061 79.748 117.004 79.643C116.947 79.5381 116.919 79.412 116.919 79.2647C116.919 79.1285 116.946 78.9941 117.002 78.8616C117.057 78.729 117.139 78.6112 117.249 78.5081C117.359 78.405 117.496 78.3222 117.659 78.2596C117.822 78.197 118.012 78.1657 118.229 78.1657C118.361 78.1657 118.49 78.1767 118.617 78.1988C118.743 78.2209 118.858 78.2458 118.961 78.2734C119.063 78.301 119.15 78.3277 119.222 78.3535C119.294 78.3792 119.34 78.3976 119.362 78.4087ZM122.659 82.1918C122.64 82.1513 122.615 82.0924 122.582 82.0151C122.549 81.9378 122.511 81.8485 122.469 81.7472C122.427 81.646 122.381 81.5355 122.331 81.4159C122.282 81.2962 122.231 81.172 122.18 81.0431H120.771L120.298 82.1918H119.704L121.481 78C121.503 78.0515 121.542 78.1454 121.599 78.2817C121.656 78.4179 121.724 78.5808 121.803 78.7704C121.882 78.9601 121.97 79.1699 122.067 79.4C122.164 79.6302 122.263 79.863 122.364 80.0987C122.465 80.3343 122.564 80.5663 122.661 80.7946C122.759 81.0228 122.848 81.2327 122.928 81.4242C123.009 81.6156 123.078 81.7785 123.135 81.9129C123.192 82.0473 123.231 82.1403 123.253 82.1918H122.659ZM120.98 80.535H121.976C121.925 80.4135 121.876 80.2966 121.83 80.1843C121.785 80.072 121.742 79.9689 121.704 79.875C121.665 79.7811 121.631 79.6992 121.602 79.6292C121.573 79.5593 121.551 79.5041 121.536 79.4636C121.532 79.4562 121.524 79.4304 121.511 79.3862C121.498 79.3421 121.488 79.3015 121.481 79.2647C121.474 79.3015 121.463 79.3421 121.448 79.3862C121.433 79.4304 121.424 79.4562 121.42 79.4636L120.98 80.535ZM123.748 82.1918V78.1878H124.838C125.047 78.1878 125.239 78.2154 125.413 78.2706C125.587 78.3258 125.738 78.4078 125.864 78.5164C125.991 78.625 126.089 78.7575 126.159 78.914C126.228 79.0705 126.263 79.25 126.263 79.4525C126.263 79.563 126.252 79.6725 126.23 79.7811C126.208 79.8897 126.172 79.9947 126.123 80.0959C126.073 80.1972 126.01 80.2911 125.933 80.3776C125.856 80.4641 125.762 80.5368 125.652 80.5957C125.799 80.8277 125.959 81.0845 126.131 81.3662C126.304 81.6478 126.478 81.9231 126.654 82.1918H125.933C125.86 82.0777 125.783 81.958 125.705 81.8329C125.626 81.7077 125.547 81.5834 125.468 81.4601C125.389 81.3367 125.312 81.2152 125.237 81.0956C125.162 80.9759 125.091 80.8645 125.025 80.7614H124.354V82.1918H123.748ZM124.354 80.1926H124.898C125.045 80.1926 125.168 80.1677 125.267 80.118C125.366 80.0683 125.444 80.0066 125.501 79.933C125.558 79.8594 125.598 79.7802 125.622 79.6955C125.646 79.6108 125.658 79.5335 125.658 79.4636C125.658 79.3936 125.646 79.3172 125.622 79.2344C125.598 79.1515 125.557 79.0742 125.498 79.0024C125.44 78.9306 125.362 78.8708 125.264 78.8229C125.167 78.775 125.047 78.7511 124.904 78.7511H124.354V80.1926Z" fill="black"/>
<path d="M99 96.5H192" stroke="black" stroke-opacity="0.2" stroke-width="0.25"/>
<path d="M104.981 109.081C104.901 109.135 104.788 109.198 104.641 109.271C104.501 109.345 104.331 109.415 104.131 109.481C103.938 109.541 103.718 109.591 103.471 109.631C103.224 109.678 102.961 109.701 102.681 109.701C102.107 109.701 101.594 109.605 101.14 109.411C100.687 109.211 100.304 108.945 99.9902 108.611C99.6768 108.278 99.4368 107.888 99.2701 107.441C99.1034 106.994 99.02 106.524 99.02 106.031C99.02 105.484 99.12 104.981 99.3201 104.52C99.5201 104.054 99.7902 103.654 100.13 103.32C100.477 102.98 100.877 102.717 101.33 102.53C101.791 102.343 102.281 102.25 102.801 102.25C103.001 102.25 103.201 102.267 103.401 102.3C103.608 102.327 103.801 102.363 103.981 102.41C104.161 102.457 104.318 102.51 104.451 102.57C104.591 102.63 104.691 102.693 104.751 102.76C104.691 102.853 104.644 102.93 104.611 102.99C104.578 103.05 104.541 103.114 104.501 103.18C104.468 103.24 104.428 103.31 104.381 103.39C104.341 103.47 104.281 103.58 104.201 103.72C104.121 103.667 104.024 103.62 103.911 103.58C103.798 103.54 103.678 103.51 103.551 103.49C103.431 103.464 103.307 103.444 103.181 103.43C103.054 103.417 102.941 103.41 102.841 103.41C102.467 103.41 102.121 103.48 101.801 103.62C101.487 103.76 101.214 103.947 100.98 104.18C100.754 104.407 100.574 104.674 100.44 104.981C100.314 105.287 100.25 105.604 100.25 105.931C100.25 106.251 100.31 106.564 100.43 106.871C100.557 107.171 100.73 107.438 100.95 107.671C101.177 107.904 101.444 108.095 101.751 108.241C102.057 108.381 102.397 108.451 102.771 108.451C102.984 108.451 103.191 108.431 103.391 108.391C103.591 108.345 103.768 108.295 103.921 108.241C104.074 108.188 104.198 108.135 104.291 108.081C104.391 108.028 104.444 107.991 104.451 107.971L104.981 109.081Z" fill="black"/>
<path d="M105.212 105.991C105.212 105.484 105.309 105.004 105.502 104.55C105.702 104.097 105.969 103.7 106.303 103.36C106.643 103.02 107.036 102.75 107.483 102.55C107.936 102.35 108.42 102.25 108.933 102.25C109.44 102.25 109.92 102.35 110.373 102.55C110.827 102.75 111.224 103.02 111.564 103.36C111.904 103.7 112.17 104.097 112.364 104.55C112.564 105.004 112.664 105.484 112.664 105.991C112.664 106.504 112.564 106.988 112.364 107.441C112.17 107.888 111.904 108.281 111.564 108.621C111.224 108.955 110.827 109.218 110.373 109.411C109.92 109.605 109.44 109.701 108.933 109.701C108.42 109.701 107.936 109.605 107.483 109.411C107.036 109.218 106.643 108.955 106.303 108.621C105.969 108.281 105.702 107.888 105.502 107.441C105.309 106.988 105.212 106.504 105.212 105.991ZM106.443 105.991C106.443 106.344 106.506 106.678 106.633 106.991C106.766 107.298 106.946 107.568 107.173 107.801C107.406 108.028 107.673 108.208 107.973 108.341C108.28 108.475 108.61 108.541 108.963 108.541C109.303 108.541 109.623 108.475 109.923 108.341C110.23 108.208 110.493 108.028 110.713 107.801C110.94 107.568 111.117 107.298 111.244 106.991C111.377 106.678 111.444 106.344 111.444 105.991C111.444 105.637 111.377 105.307 111.244 105.001C111.11 104.687 110.93 104.414 110.703 104.18C110.477 103.947 110.21 103.764 109.903 103.63C109.603 103.497 109.28 103.43 108.933 103.43C108.586 103.43 108.26 103.497 107.953 103.63C107.653 103.764 107.389 103.947 107.163 104.18C106.943 104.414 106.766 104.687 106.633 105.001C106.506 105.307 106.443 105.637 106.443 105.991Z" fill="black"/>
<path d="M120.309 102.33V109.962C120.262 109.902 120.159 109.792 119.999 109.631C119.839 109.471 119.642 109.281 119.409 109.061C119.176 108.835 118.916 108.588 118.629 108.321C118.349 108.048 118.062 107.774 117.769 107.501C117.475 107.221 117.189 106.948 116.908 106.681C116.628 106.414 116.372 106.171 116.138 105.951C115.912 105.724 115.718 105.534 115.558 105.381C115.405 105.221 115.305 105.111 115.258 105.051C115.251 105.037 115.225 105.004 115.178 104.951C115.131 104.891 115.091 104.837 115.058 104.791L115.088 105.111V109.621H113.868V102C113.915 102.06 114.018 102.17 114.178 102.33C114.338 102.483 114.535 102.67 114.768 102.89C115.001 103.11 115.258 103.35 115.538 103.61C115.825 103.87 116.115 104.137 116.408 104.41C116.702 104.677 116.988 104.944 117.269 105.211C117.549 105.471 117.805 105.711 118.039 105.931C118.272 106.144 118.465 106.328 118.619 106.481C118.779 106.634 118.882 106.741 118.929 106.801L119.119 107.081L119.089 106.741V102.33H120.309Z" fill="black"/>
<path d="M126.356 102.33V103.5H124.555V109.621H123.325V103.5H121.565V102.33H126.356Z" fill="black"/>
<path d="M127.621 109.621V102.33H129.681C130.081 102.33 130.444 102.383 130.771 102.49C131.105 102.597 131.385 102.75 131.611 102.95C131.845 103.15 132.025 103.397 132.151 103.69C132.278 103.984 132.341 104.314 132.341 104.681C132.341 104.881 132.321 105.081 132.281 105.281C132.241 105.481 132.178 105.674 132.091 105.861C132.005 106.047 131.891 106.221 131.751 106.381C131.611 106.534 131.445 106.668 131.251 106.781C131.398 107.014 131.541 107.244 131.681 107.471C131.821 107.691 131.961 107.914 132.101 108.141C132.248 108.368 132.398 108.601 132.551 108.841C132.705 109.081 132.872 109.341 133.052 109.621H131.581C131.281 109.155 130.998 108.715 130.731 108.301C130.464 107.881 130.208 107.484 129.961 107.111H129.861H128.841V109.621H127.621ZM128.841 105.961H129.821C130.074 105.961 130.284 105.917 130.451 105.831C130.618 105.744 130.751 105.641 130.851 105.521C130.951 105.394 131.021 105.261 131.061 105.121C131.101 104.974 131.121 104.841 131.121 104.721C131.121 104.607 131.101 104.48 131.061 104.34C131.028 104.194 130.961 104.057 130.861 103.93C130.768 103.804 130.638 103.697 130.471 103.61C130.304 103.524 130.091 103.48 129.831 103.48H128.841V105.961Z" fill="black"/>
<path d="M138.46 109.621C138.44 109.575 138.403 109.491 138.35 109.371C138.303 109.251 138.243 109.105 138.17 108.931C138.097 108.758 138.017 108.568 137.93 108.361C137.843 108.148 137.753 107.928 137.66 107.701H135.149L134.349 109.621H133.139C133.166 109.561 133.229 109.415 133.329 109.181C133.429 108.941 133.552 108.648 133.699 108.301C133.852 107.948 134.019 107.558 134.199 107.131C134.386 106.698 134.576 106.257 134.769 105.811C134.963 105.364 135.149 104.927 135.329 104.5C135.516 104.067 135.683 103.677 135.83 103.33C135.983 102.977 136.11 102.683 136.21 102.45C136.31 102.21 136.373 102.06 136.4 102C136.426 102.06 136.49 102.21 136.59 102.45C136.696 102.683 136.823 102.977 136.97 103.33C137.123 103.677 137.29 104.067 137.47 104.5C137.657 104.927 137.847 105.364 138.04 105.811C138.233 106.257 138.42 106.698 138.6 107.131C138.787 107.558 138.953 107.948 139.1 108.301C139.254 108.648 139.38 108.941 139.48 109.181C139.58 109.415 139.644 109.561 139.67 109.621H138.46ZM135.569 106.671H137.23L136.51 104.931C136.503 104.924 136.486 104.881 136.46 104.801C136.433 104.714 136.413 104.637 136.4 104.57C136.386 104.637 136.366 104.714 136.34 104.801C136.313 104.881 136.3 104.924 136.3 104.931L135.569 106.671Z" fill="black"/>
<path d="M140.224 107.911V106.901H142.094V107.911H140.224Z" fill="black"/>
<path d="M147.974 109.621C147.954 109.575 147.917 109.491 147.864 109.371C147.817 109.251 147.757 109.105 147.684 108.931C147.61 108.758 147.53 108.568 147.443 108.361C147.357 108.148 147.267 107.928 147.173 107.701H144.663L143.863 109.621H142.653C142.679 109.561 142.743 109.415 142.843 109.181C142.943 108.941 143.066 108.648 143.213 108.301C143.366 107.948 143.533 107.558 143.713 107.131C143.899 106.698 144.09 106.257 144.283 105.811C144.476 105.364 144.663 104.927 144.843 104.5C145.03 104.067 145.196 103.677 145.343 103.33C145.496 102.977 145.623 102.683 145.723 102.45C145.823 102.21 145.887 102.06 145.913 102C145.94 102.06 146.003 102.21 146.103 102.45C146.21 102.683 146.337 102.977 146.483 103.33C146.637 103.677 146.803 104.067 146.983 104.5C147.17 104.927 147.36 105.364 147.554 105.811C147.747 106.257 147.934 106.698 148.114 107.131C148.3 107.558 148.467 107.948 148.614 108.301C148.767 108.648 148.894 108.941 148.994 109.181C149.094 109.415 149.157 109.561 149.184 109.621H147.974ZM145.083 106.671H146.743L146.023 104.931C146.017 104.924 146 104.881 145.973 104.801C145.947 104.714 145.927 104.637 145.913 104.57C145.9 104.637 145.88 104.714 145.853 104.801C145.827 104.881 145.813 104.924 145.813 104.931L145.083 106.671Z" fill="black"/>
<path d="M150.027 109.621V102.33H152.088C152.488 102.33 152.851 102.383 153.178 102.49C153.511 102.597 153.791 102.75 154.018 102.95C154.251 103.15 154.431 103.397 154.558 103.69C154.685 103.984 154.748 104.314 154.748 104.681C154.748 104.881 154.728 105.081 154.688 105.281C154.648 105.481 154.585 105.674 154.498 105.861C154.411 106.047 154.298 106.221 154.158 106.381C154.018 106.534 153.851 106.668 153.658 106.781C153.805 107.014 153.948 107.244 154.088 107.471C154.228 107.691 154.368 107.914 154.508 108.141C154.655 108.368 154.805 108.601 154.958 108.841C155.112 109.081 155.278 109.341 155.458 109.621H153.988C153.688 109.155 153.405 108.715 153.138 108.301C152.871 107.881 152.614 107.484 152.368 107.111H152.268H151.247V109.621H150.027ZM151.247 105.961H152.228C152.481 105.961 152.691 105.917 152.858 105.831C153.024 105.744 153.158 105.641 153.258 105.521C153.358 105.394 153.428 105.261 153.468 105.121C153.508 104.974 153.528 104.841 153.528 104.721C153.528 104.607 153.508 104.48 153.468 104.34C153.435 104.194 153.368 104.057 153.268 103.93C153.174 103.804 153.044 103.697 152.878 103.61C152.711 103.524 152.498 103.48 152.238 103.48H151.247V105.961Z" fill="black"/>
<path d="M161.76 109.081C161.68 109.135 161.566 109.198 161.42 109.271C161.28 109.345 161.11 109.415 160.91 109.481C160.716 109.541 160.496 109.591 160.249 109.631C160.003 109.678 159.739 109.701 159.459 109.701C158.886 109.701 158.372 109.605 157.919 109.411C157.466 109.211 157.082 108.945 156.769 108.611C156.455 108.278 156.215 107.888 156.049 107.441C155.882 106.994 155.799 106.524 155.799 106.031C155.799 105.484 155.899 104.981 156.099 104.52C156.299 104.054 156.569 103.654 156.909 103.32C157.255 102.98 157.656 102.717 158.109 102.53C158.569 102.343 159.059 102.25 159.579 102.25C159.779 102.25 159.979 102.267 160.179 102.3C160.386 102.327 160.579 102.363 160.759 102.41C160.94 102.457 161.096 102.51 161.23 102.57C161.37 102.63 161.47 102.693 161.53 102.76C161.47 102.853 161.423 102.93 161.39 102.99C161.356 103.05 161.32 103.114 161.28 103.18C161.246 103.24 161.206 103.31 161.16 103.39C161.12 103.47 161.06 103.58 160.98 103.72C160.9 103.667 160.803 103.62 160.689 103.58C160.576 103.54 160.456 103.51 160.329 103.49C160.209 103.464 160.086 103.444 159.959 103.43C159.833 103.417 159.719 103.41 159.619 103.41C159.246 103.41 158.899 103.48 158.579 103.62C158.266 103.76 157.992 103.947 157.759 104.18C157.532 104.407 157.352 104.674 157.219 104.981C157.092 105.287 157.029 105.604 157.029 105.931C157.029 106.251 157.089 106.564 157.209 106.871C157.335 107.171 157.509 107.438 157.729 107.671C157.956 107.904 158.222 108.095 158.529 108.241C158.836 108.381 159.176 108.451 159.549 108.451C159.763 108.451 159.969 108.431 160.169 108.391C160.369 108.345 160.546 108.295 160.699 108.241C160.853 108.188 160.976 108.135 161.07 108.081C161.17 108.028 161.223 107.991 161.23 107.971L161.76 109.081Z" fill="black"/>
<path d="M162.666 109.621V102.33H163.897V105.371H167.377V102.33H168.617C168.617 102.41 168.617 102.633 168.617 103C168.617 103.367 168.617 103.81 168.617 104.33C168.617 104.844 168.614 105.394 168.607 105.981C168.607 106.561 168.607 107.111 168.607 107.631C168.607 108.145 168.607 108.585 168.607 108.951C168.607 109.318 168.607 109.541 168.607 109.621H167.377V106.541H163.897V109.621H162.666Z" fill="black"/>
<path d="M170.295 102.33H171.525V109.621H170.295V102.33Z" fill="black"/>
<path d="M173.576 102.33L175.526 107.021C175.526 107.028 175.539 107.074 175.566 107.161C175.593 107.241 175.613 107.318 175.626 107.391C175.639 107.318 175.659 107.241 175.686 107.161C175.713 107.074 175.729 107.028 175.736 107.021L177.686 102.33H178.897C178.87 102.39 178.807 102.54 178.707 102.78C178.607 103.02 178.48 103.317 178.326 103.67C178.18 104.017 178.013 104.407 177.826 104.841C177.646 105.267 177.46 105.704 177.266 106.151C177.073 106.591 176.883 107.028 176.696 107.461C176.516 107.894 176.349 108.288 176.196 108.641C176.049 108.988 175.923 109.281 175.816 109.521C175.716 109.755 175.653 109.902 175.626 109.962C175.599 109.902 175.536 109.755 175.436 109.521C175.336 109.281 175.209 108.988 175.056 108.641C174.909 108.288 174.742 107.894 174.556 107.461C174.376 107.028 174.189 106.591 173.996 106.151C173.802 105.704 173.612 105.267 173.426 104.841C173.245 104.407 173.079 104.017 172.925 103.67C172.779 103.317 172.655 103.02 172.555 102.78C172.455 102.54 172.392 102.39 172.365 102.33H173.576Z" fill="black"/>
<path d="M178.957 105.991C178.957 105.484 179.054 105.004 179.247 104.55C179.447 104.097 179.714 103.7 180.047 103.36C180.387 103.02 180.781 102.75 181.228 102.55C181.681 102.35 182.164 102.25 182.678 102.25C183.185 102.25 183.665 102.35 184.118 102.55C184.571 102.75 184.968 103.02 185.308 103.36C185.648 103.7 185.915 104.097 186.108 104.55C186.308 105.004 186.409 105.484 186.409 105.991C186.409 106.504 186.308 106.988 186.108 107.441C185.915 107.888 185.648 108.281 185.308 108.621C184.968 108.955 184.571 109.218 184.118 109.411C183.665 109.605 183.185 109.701 182.678 109.701C182.164 109.701 181.681 109.605 181.228 109.411C180.781 109.218 180.387 108.955 180.047 108.621C179.714 108.281 179.447 107.888 179.247 107.441C179.054 106.988 178.957 106.504 178.957 105.991ZM180.187 105.991C180.187 106.344 180.251 106.678 180.377 106.991C180.511 107.298 180.691 107.568 180.917 107.801C181.151 108.028 181.418 108.208 181.718 108.341C182.024 108.475 182.354 108.541 182.708 108.541C183.048 108.541 183.368 108.475 183.668 108.341C183.975 108.208 184.238 108.028 184.458 107.801C184.685 107.568 184.862 107.298 184.988 106.991C185.122 106.678 185.188 106.344 185.188 105.991C185.188 105.637 185.122 105.307 184.988 105.001C184.855 104.687 184.675 104.414 184.448 104.18C184.221 103.947 183.955 103.764 183.648 103.63C183.348 103.497 183.025 103.43 182.678 103.43C182.331 103.43 182.004 103.497 181.698 103.63C181.398 103.764 181.134 103.947 180.907 104.18C180.687 104.414 180.511 104.687 180.377 105.001C180.251 105.307 180.187 105.637 180.187 105.991Z" fill="black"/>
<path d="M191.835 102.74L191.395 103.74C191.115 103.64 190.838 103.56 190.565 103.5C190.292 103.44 190.038 103.41 189.805 103.41C189.398 103.41 189.075 103.49 188.835 103.65C188.601 103.81 188.485 104.014 188.485 104.26C188.485 104.474 188.571 104.647 188.745 104.781C188.925 104.914 189.148 105.034 189.415 105.141C189.682 105.247 189.968 105.357 190.275 105.471C190.588 105.577 190.878 105.717 191.145 105.891C191.412 106.064 191.632 106.284 191.805 106.551C191.985 106.818 192.075 107.158 192.075 107.571C192.075 107.891 192.015 108.181 191.895 108.441C191.782 108.701 191.609 108.925 191.375 109.111C191.142 109.298 190.845 109.445 190.485 109.551C190.132 109.651 189.715 109.701 189.235 109.701C188.941 109.701 188.675 109.681 188.435 109.641C188.195 109.601 187.978 109.551 187.784 109.491C187.598 109.431 187.431 109.368 187.284 109.301C187.138 109.228 187.011 109.158 186.904 109.091L187.434 108.021C187.714 108.175 188.015 108.295 188.335 108.381C188.655 108.461 188.938 108.501 189.185 108.501C189.305 108.501 189.458 108.488 189.645 108.461C189.838 108.435 190.025 108.385 190.205 108.311C190.385 108.238 190.538 108.138 190.665 108.011C190.798 107.884 190.865 107.721 190.865 107.521C190.865 107.288 190.775 107.098 190.595 106.951C190.422 106.798 190.202 106.664 189.935 106.551C189.668 106.431 189.378 106.314 189.065 106.201C188.758 106.087 188.471 105.954 188.205 105.801C187.938 105.641 187.714 105.447 187.534 105.221C187.361 104.987 187.274 104.694 187.274 104.34C187.274 104.087 187.324 103.84 187.424 103.6C187.524 103.354 187.674 103.134 187.874 102.94C188.081 102.747 188.335 102.59 188.635 102.47C188.941 102.35 189.301 102.29 189.715 102.29C189.975 102.29 190.225 102.313 190.465 102.36C190.712 102.4 190.932 102.447 191.125 102.5C191.318 102.553 191.479 102.607 191.605 102.66C191.732 102.707 191.809 102.733 191.835 102.74Z" fill="black"/>
<path d="M99 117.671C99 117.164 99.0467 116.681 99.14 116.221C99.2334 115.761 99.3567 115.334 99.5101 114.94C99.6701 114.54 99.8502 114.18 100.05 113.86C100.25 113.54 100.457 113.27 100.67 113.05C100.824 113.09 100.977 113.13 101.13 113.17C101.29 113.203 101.447 113.24 101.601 113.28C101.407 113.5 101.214 113.763 101.02 114.07C100.834 114.377 100.667 114.717 100.52 115.09C100.374 115.457 100.254 115.861 100.16 116.301C100.074 116.734 100.03 117.191 100.03 117.671C100.03 118.151 100.074 118.608 100.16 119.041C100.254 119.475 100.374 119.878 100.52 120.251C100.667 120.625 100.834 120.962 101.02 121.262C101.214 121.568 101.407 121.832 101.601 122.052C101.447 122.098 101.29 122.138 101.13 122.172C100.977 122.212 100.824 122.252 100.67 122.292C100.457 122.065 100.25 121.792 100.05 121.472C99.8502 121.152 99.6701 120.795 99.5101 120.401C99.3567 120.008 99.2334 119.581 99.14 119.121C99.0467 118.661 99 118.178 99 117.671Z" fill="black"/>
<path d="M102.528 113.33H103.758V120.621H102.528V113.33Z" fill="black"/>
<path d="M105.439 113.01C105.472 113.057 105.545 113.163 105.659 113.33C105.772 113.49 105.912 113.69 106.079 113.93C106.252 114.164 106.442 114.424 106.649 114.71C106.862 114.997 107.075 115.29 107.289 115.59C107.509 115.884 107.722 116.174 107.929 116.461C108.136 116.741 108.322 116.997 108.489 117.231C108.656 117.464 108.796 117.661 108.909 117.821C109.029 117.974 109.103 118.071 109.129 118.111C109.143 118.091 109.203 118.008 109.309 117.861C109.416 117.708 109.549 117.518 109.709 117.291C109.876 117.064 110.063 116.807 110.269 116.521C110.476 116.227 110.69 115.931 110.91 115.631C111.13 115.33 111.343 115.034 111.55 114.74C111.763 114.447 111.956 114.18 112.13 113.94C112.31 113.7 112.46 113.497 112.58 113.33C112.7 113.163 112.777 113.057 112.81 113.01V120.621H111.5V116.901C111.5 116.847 111.506 116.791 111.52 116.731C111.533 116.671 111.54 116.634 111.54 116.621L109.129 120.091C109.096 120.051 109.013 119.941 108.879 119.761C108.752 119.581 108.599 119.368 108.419 119.121C108.239 118.874 108.049 118.611 107.849 118.331C107.649 118.044 107.459 117.781 107.279 117.541C107.105 117.294 106.955 117.087 106.829 116.921C106.709 116.747 106.642 116.647 106.629 116.621C106.629 116.634 106.635 116.671 106.649 116.731C106.662 116.791 106.669 116.847 106.669 116.901V120.621H105.439V113.01Z" fill="black"/>
<path d="M116.353 117.711C116.353 118.218 116.307 118.701 116.213 119.161C116.12 119.621 115.993 120.048 115.833 120.441C115.68 120.835 115.503 121.192 115.303 121.512C115.103 121.832 114.896 122.105 114.683 122.332L113.753 122.122C113.953 121.902 114.146 121.638 114.333 121.332C114.52 121.025 114.686 120.688 114.833 120.321C114.98 119.948 115.096 119.545 115.183 119.111C115.276 118.671 115.323 118.211 115.323 117.731C115.323 117.251 115.276 116.794 115.183 116.361C115.096 115.927 114.98 115.524 114.833 115.15C114.686 114.777 114.52 114.44 114.333 114.14C114.146 113.833 113.953 113.567 113.753 113.34C113.906 113.3 114.06 113.26 114.213 113.22C114.373 113.173 114.53 113.127 114.683 113.08C114.896 113.307 115.103 113.58 115.303 113.9C115.503 114.22 115.68 114.577 115.833 114.97C115.993 115.364 116.12 115.794 116.213 116.261C116.307 116.721 116.353 117.204 116.353 117.711Z" fill="black"/>
<path d="M118.761 116.961H119.741C119.994 116.961 120.204 116.917 120.371 116.831C120.538 116.744 120.671 116.637 120.771 116.511C120.871 116.377 120.941 116.241 120.981 116.101C121.021 115.954 121.041 115.824 121.041 115.711C121.041 115.604 121.021 115.48 120.981 115.34C120.948 115.194 120.881 115.057 120.781 114.93C120.688 114.804 120.558 114.697 120.391 114.61C120.224 114.524 120.011 114.48 119.751 114.48H118.761V116.961ZM117.54 120.621V113.33H119.601C120.001 113.33 120.364 113.383 120.691 113.49C121.024 113.597 121.305 113.75 121.531 113.95C121.765 114.15 121.945 114.397 122.071 114.69C122.198 114.984 122.261 115.314 122.261 115.681C122.261 115.974 122.218 116.267 122.131 116.561C122.045 116.847 121.901 117.107 121.701 117.341C121.508 117.568 121.255 117.754 120.941 117.901C120.628 118.041 120.241 118.111 119.781 118.111H118.761V120.621H117.54Z" fill="black"/>
<path d="M122.892 116.991C122.892 116.484 122.988 116.004 123.182 115.55C123.382 115.097 123.648 114.7 123.982 114.36C124.322 114.02 124.715 113.75 125.162 113.55C125.615 113.35 126.099 113.25 126.612 113.25C127.119 113.25 127.599 113.35 128.053 113.55C128.506 113.75 128.903 114.02 129.243 114.36C129.583 114.7 129.85 115.097 130.043 115.55C130.243 116.004 130.343 116.484 130.343 116.991C130.343 117.504 130.243 117.988 130.043 118.441C129.85 118.888 129.583 119.281 129.243 119.621C128.903 119.955 128.506 120.218 128.053 120.411C127.599 120.605 127.119 120.701 126.612 120.701C126.099 120.701 125.615 120.605 125.162 120.411C124.715 120.218 124.322 119.955 123.982 119.621C123.648 119.281 123.382 118.888 123.182 118.441C122.988 117.988 122.892 117.504 122.892 116.991ZM124.122 116.991C124.122 117.344 124.185 117.678 124.312 117.991C124.445 118.298 124.625 118.568 124.852 118.801C125.085 119.028 125.352 119.208 125.652 119.341C125.959 119.475 126.289 119.541 126.642 119.541C126.982 119.541 127.302 119.475 127.602 119.341C127.909 119.208 128.173 119.028 128.393 118.801C128.619 118.568 128.796 118.298 128.923 117.991C129.056 117.678 129.123 117.344 129.123 116.991C129.123 116.637 129.056 116.307 128.923 116.001C128.789 115.687 128.609 115.414 128.383 115.18C128.156 114.947 127.889 114.764 127.582 114.63C127.282 114.497 126.959 114.43 126.612 114.43C126.266 114.43 125.939 114.497 125.632 114.63C125.332 114.764 125.069 114.947 124.842 115.18C124.622 115.414 124.445 115.687 124.312 116.001C124.185 116.307 124.122 116.637 124.122 116.991Z" fill="black"/>
<path d="M135.77 113.74L135.33 114.74C135.05 114.64 134.773 114.56 134.5 114.5C134.226 114.44 133.973 114.41 133.739 114.41C133.333 114.41 133.009 114.49 132.769 114.65C132.536 114.81 132.419 115.014 132.419 115.26C132.419 115.474 132.506 115.647 132.679 115.781C132.859 115.914 133.083 116.034 133.349 116.141C133.616 116.247 133.903 116.357 134.209 116.471C134.523 116.577 134.813 116.717 135.08 116.891C135.346 117.064 135.566 117.284 135.74 117.551C135.92 117.818 136.01 118.158 136.01 118.571C136.01 118.891 135.95 119.181 135.83 119.441C135.716 119.701 135.543 119.925 135.31 120.111C135.076 120.298 134.78 120.445 134.419 120.551C134.066 120.651 133.649 120.701 133.169 120.701C132.876 120.701 132.609 120.681 132.369 120.641C132.129 120.601 131.912 120.551 131.719 120.491C131.532 120.431 131.366 120.368 131.219 120.301C131.072 120.228 130.945 120.158 130.839 120.091L131.369 119.021C131.649 119.175 131.949 119.295 132.269 119.381C132.589 119.461 132.873 119.501 133.119 119.501C133.239 119.501 133.393 119.488 133.579 119.461C133.773 119.435 133.959 119.385 134.139 119.311C134.319 119.238 134.473 119.138 134.6 119.011C134.733 118.884 134.8 118.721 134.8 118.521C134.8 118.288 134.71 118.098 134.53 117.951C134.356 117.798 134.136 117.664 133.869 117.551C133.603 117.431 133.313 117.314 132.999 117.201C132.692 117.087 132.406 116.954 132.139 116.801C131.872 116.641 131.649 116.447 131.469 116.221C131.296 115.987 131.209 115.694 131.209 115.34C131.209 115.087 131.259 114.84 131.359 114.6C131.459 114.354 131.609 114.134 131.809 113.94C132.016 113.747 132.269 113.59 132.569 113.47C132.876 113.35 133.236 113.29 133.649 113.29C133.909 113.29 134.159 113.313 134.399 113.36C134.646 113.4 134.866 113.447 135.06 113.5C135.253 113.553 135.413 113.607 135.54 113.66C135.666 113.707 135.743 113.733 135.77 113.74Z" fill="black"/>
<path d="M137.183 113.33H138.413V120.621H137.183V113.33Z" fill="black"/>
<path d="M141.314 114.44V116.421H142.234C142.574 116.421 142.824 116.321 142.984 116.121C143.151 115.921 143.234 115.681 143.234 115.4C143.234 115.074 143.134 114.834 142.934 114.68C142.734 114.52 142.464 114.44 142.124 114.44H141.314ZM141.314 117.461V119.511H142.274C142.454 119.511 142.624 119.491 142.784 119.451C142.944 119.405 143.084 119.341 143.204 119.261C143.324 119.175 143.418 119.068 143.484 118.941C143.551 118.808 143.584 118.654 143.584 118.481C143.584 118.288 143.544 118.128 143.464 118.001C143.384 117.868 143.278 117.761 143.144 117.681C143.011 117.601 142.857 117.544 142.684 117.511C142.517 117.478 142.344 117.461 142.164 117.461H141.314ZM140.094 120.621V113.33H142.084C142.444 113.33 142.771 113.367 143.064 113.44C143.358 113.507 143.608 113.617 143.814 113.77C144.021 113.917 144.178 114.114 144.284 114.36C144.398 114.6 144.454 114.89 144.454 115.23C144.454 115.417 144.434 115.601 144.394 115.781C144.361 115.954 144.301 116.117 144.214 116.271C144.134 116.417 144.028 116.547 143.894 116.661C143.761 116.774 143.594 116.861 143.394 116.921C143.561 116.954 143.728 117.011 143.894 117.091C144.068 117.171 144.221 117.281 144.354 117.421C144.488 117.554 144.594 117.724 144.675 117.931C144.761 118.131 144.805 118.368 144.805 118.641C144.805 118.994 144.735 119.298 144.594 119.551C144.461 119.798 144.281 120.001 144.054 120.161C143.834 120.321 143.578 120.438 143.284 120.511C142.991 120.585 142.687 120.621 142.374 120.621H140.094Z" fill="black"/>
<path d="M146.042 120.621V113.33H147.262V119.461H150.803V120.621H146.042Z" fill="black"/>
<path d="M151.795 120.621V113.33H156.636V114.44H153.015V116.401H156.236V117.541H153.015V119.481H156.776V120.621H151.795Z" fill="black"/>
<path d="M162.289 113.74L161.848 114.74C161.568 114.64 161.292 114.56 161.018 114.5C160.745 114.44 160.492 114.41 160.258 114.41C159.851 114.41 159.528 114.49 159.288 114.65C159.055 114.81 158.938 115.014 158.938 115.26C158.938 115.474 159.025 115.647 159.198 115.781C159.378 115.914 159.601 116.034 159.868 116.141C160.135 116.247 160.422 116.357 160.728 116.471C161.042 116.577 161.332 116.717 161.598 116.891C161.865 117.064 162.085 117.284 162.259 117.551C162.439 117.818 162.529 118.158 162.529 118.571C162.529 118.891 162.469 119.181 162.349 119.441C162.235 119.701 162.062 119.925 161.828 120.111C161.595 120.298 161.298 120.445 160.938 120.551C160.585 120.651 160.168 120.701 159.688 120.701C159.395 120.701 159.128 120.681 158.888 120.641C158.648 120.601 158.431 120.551 158.238 120.491C158.051 120.431 157.884 120.368 157.738 120.301C157.591 120.228 157.464 120.158 157.358 120.091L157.888 119.021C158.168 119.175 158.468 119.295 158.788 119.381C159.108 119.461 159.391 119.501 159.638 119.501C159.758 119.501 159.911 119.488 160.098 119.461C160.291 119.435 160.478 119.385 160.658 119.311C160.838 119.238 160.992 119.138 161.118 119.011C161.252 118.884 161.318 118.721 161.318 118.521C161.318 118.288 161.228 118.098 161.048 117.951C160.875 117.798 160.655 117.664 160.388 117.551C160.121 117.431 159.831 117.314 159.518 117.201C159.211 117.087 158.925 116.954 158.658 116.801C158.391 116.641 158.168 116.447 157.988 116.221C157.814 115.987 157.728 115.694 157.728 115.34C157.728 115.087 157.778 114.84 157.878 114.6C157.978 114.354 158.128 114.134 158.328 113.94C158.534 113.747 158.788 113.59 159.088 113.47C159.395 113.35 159.755 113.29 160.168 113.29C160.428 113.29 160.678 113.313 160.918 113.36C161.165 113.4 161.385 113.447 161.578 113.5C161.772 113.553 161.932 113.607 162.058 113.66C162.185 113.707 162.262 113.733 162.289 113.74Z" fill="black"/>
</svg>
