<svg width="200" height="200" viewBox="0 0 200 200" fill="none" xmlns="http://www.w3.org/2000/svg">
<rect width="200" height="200" fill="white"/>
<g clip-path="url(#clip0)">
<path fill-rule="evenodd" clip-rule="evenodd" d="M106.121 102.417V112.725C106.121 116.017 103.988 117.296 101.706 117.296C99.1966 117.296 97.3838 115.697 97.3838 113.038V102.417H93.026V112.938C93.026 118.64 96.6942 121.149 101.77 121.149C106.533 121.149 110.479 119.017 110.479 112.91V102.417H106.121ZM117.559 108.396H113.834V120.901H117.559V112.846C118.533 111.31 119.223 110.777 120.126 110.777C121.192 110.777 121.974 111.531 121.974 113.287V120.901H125.671V112.974C125.671 109.277 123.225 108.183 121.377 108.183C119.87 108.183 118.711 108.78 117.552 110.187L117.559 108.396ZM132.531 108.396H128.834V120.901H132.531V108.396ZM146.002 117.481C144.339 118.142 143.557 118.355 142.654 118.355C140.557 118.355 139.142 116.884 139.142 114.659C139.142 112.462 140.55 111.055 142.81 111.055C143.72 111.055 144.851 111.367 145.817 111.901V108.986C144.595 108.481 143.059 108.168 141.836 108.168C137.948 108.168 135.161 110.863 135.161 114.687C135.161 118.576 137.855 121.142 141.993 121.142C143.244 121.142 144.495 120.858 146.002 120.296V117.481ZM160.54 117.801C159.666 118.455 159.381 118.519 159.133 118.519C158.727 118.519 158.507 118.27 158.507 117.645V111.972C158.507 109.213 156.502 108.183 153.524 108.183C151.647 108.183 149.919 108.687 148.384 109.69V112.889C149.571 111.602 151.263 110.792 152.742 110.792C154.37 110.792 154.874 111.73 154.81 112.889C149.862 114.517 147.794 115.114 147.794 118.092C147.794 119.656 149.201 121.164 151.085 121.164C152.372 121.164 153.559 120.758 154.967 119.756C155.251 120.758 155.813 121.164 157.064 121.164C158.038 121.164 159.509 120.659 160.54 120.005V117.801ZM154.81 117.858C154.185 118.455 153.431 118.796 152.742 118.796C152.088 118.796 151.554 118.199 151.554 117.481C151.554 116.23 152.585 115.697 154.81 114.851V117.858ZM165.929 108.396H162.197V120.303C162.197 122.344 161.635 123.346 160.284 123.559L161.472 127.128C163.348 126.943 165.922 125.5 165.922 121.235V108.396H165.929ZM181.064 117.801C180.19 118.455 179.905 118.519 179.656 118.519C179.251 118.519 179.031 118.27 179.031 117.645V111.972C179.031 109.213 177.026 108.183 174.047 108.183C172.171 108.183 170.443 108.687 168.908 109.69V112.889C170.095 111.602 171.787 110.792 173.265 110.792C174.893 110.792 175.398 111.73 175.334 112.889C170.386 114.517 168.317 115.114 168.317 118.092C168.317 119.656 169.725 121.164 171.609 121.164C172.896 121.164 174.083 120.758 175.49 119.756C175.775 120.758 176.336 121.164 177.588 121.164C178.562 121.164 180.033 120.659 181.064 120.005V117.801ZM175.327 117.858C174.701 118.455 173.948 118.796 173.258 118.796C172.597 118.796 172.071 118.199 172.071 117.481C172.071 116.23 173.102 115.697 175.327 114.851V117.858V117.858Z" fill="black"/>
<path fill-rule="evenodd" clip-rule="evenodd" d="M19.27 127.697H180.659V129.986H19.27V127.697Z" fill="black"/>
<path fill-rule="evenodd" clip-rule="evenodd" d="M58.7464 122.685C38.3791 105.858 19.0212 90.0403 19.0212 90.0403C19.0212 90.0403 24.0331 82.4549 32.2084 77.1943L58.7464 122.685ZM56.898 116.514C45.9004 98.0948 33.4028 76.6895 33.4028 76.6895C33.4028 76.6895 40.6682 72.0545 47.6563 70.8602L56.898 116.514ZM57.2108 111.19C53.8269 94.3625 49.4691 70.6469 49.4691 70.6469C49.4691 70.6469 55.3625 69.5166 61.8743 70.3625L57.2108 111.19ZM59.3435 106.014C61.6966 87.3388 63.3885 70.5189 63.3885 70.5189C63.3885 70.5189 69.2819 71.0805 73.135 73.2488C73.1279 73.2488 68.2084 84.9004 59.3435 106.014ZM62.2866 103.043C70.4975 84.026 74.7274 73.7464 74.7274 73.7464C74.7274 73.7464 78.3601 74.7488 82.0568 77.8839L62.2866 103.043ZM65.8269 100.69C80.3648 82.3625 83.0307 78.5734 83.0307 78.5734C83.0307 78.5734 84.2819 78.7938 87.7938 82.6469L65.8269 100.69ZM68.898 100.036C86.443 85.9028 88.9525 84.026 88.9525 84.026C88.9525 84.026 91.1421 86.0948 92.2084 88.0355L68.898 100.036ZM75.2606 98.4644C87.289 92.2583 93.2108 89.5355 93.2108 89.5355C93.2108 89.5355 93.8648 90.1967 94.6184 91.981L75.2606 98.4644ZM78.9288 98.564C95.4999 93.4881 95.0307 93.4597 95.0307 93.4597C95.0307 93.4597 95.6919 94.6185 95.6919 95.4644L78.9288 98.564Z" fill="black"/>
<path fill-rule="evenodd" clip-rule="evenodd" d="M126.453 102.005C126.445 100.142 127.945 98.6278 129.808 98.6207C129.815 98.6207 129.829 98.6207 129.836 98.6207C131.706 98.6207 133.22 100.135 133.22 102.005C133.22 103.853 131.685 105.389 129.836 105.389C127.967 105.389 126.46 103.874 126.453 102.005Z" fill="black"/>
<path fill-rule="evenodd" clip-rule="evenodd" d="M160.263 102.133C160.263 100.192 161.827 98.6209 163.739 98.6209C165.673 98.6138 167.244 100.185 167.251 102.119C167.251 102.126 167.251 102.126 167.251 102.133C167.251 104.045 165.687 105.609 163.739 105.609C161.82 105.602 160.27 104.052 160.263 102.133Z" fill="black"/>
</g>
<defs>
<clipPath id="clip0">
<rect width="162.085" height="60" fill="white" transform="translate(19 70)"/>
</clipPath>
</defs>
</svg>
