<svg width="200" height="200" viewBox="0 0 200 200" fill="none" xmlns="http://www.w3.org/2000/svg">
<rect width="200" height="200" fill="white"/>
<path d="M40.9091 106.92C40.5394 106.797 40.1697 106.673 39.8 106.55C39.0605 106.262 39.0605 106.221 39.1838 105.441C39.4713 103.428 40.5394 101.785 41.8128 100.265C42.8808 99.0327 43.99 97.8003 45.058 96.568C45.3045 96.2804 45.5509 95.9518 45.7563 95.6232C46.2082 94.8837 46.4136 94.1854 46.085 93.3228C45.592 91.9261 45.6331 90.4062 45.7153 88.9684C45.7153 88.763 45.7563 88.5166 45.7563 88.229C45.5099 88.4344 45.4277 88.6398 45.3456 88.8452C44.6061 90.6116 43.9078 92.419 43.8256 94.3908C43.8256 94.473 43.8256 94.5962 43.7024 94.6373C43.5381 94.6784 43.497 94.5551 43.497 94.4319C43.4559 94.1854 43.3738 93.9389 43.2916 93.6103C43.0041 93.9389 42.7987 94.2265 42.5522 94.473C42.4701 94.5551 42.429 94.7194 42.3057 94.5962C41.9771 94.3908 41.7306 94.1443 41.6074 93.7335C41.5253 93.4049 41.6485 93.1174 41.936 92.912C42.2647 92.6655 42.5111 92.378 42.8808 92.1726C43.5381 91.8439 43.8256 91.3099 43.9489 90.5705C44.1954 89.1328 44.3597 87.6539 44.9348 86.2573C45.7974 84.0801 46.9476 82.0673 48.221 80.0955C48.9605 78.9864 49.2891 77.754 49.2069 76.4395C49.1659 75.9055 48.9605 75.7412 48.4264 75.9055C48.3032 75.9466 48.1389 76.0287 48.0157 76.0698C47.3173 76.3984 46.619 76.4395 45.9617 75.9876C45.3866 75.6179 44.8115 75.7001 44.2775 76.1109C43.9489 76.3984 43.6203 76.686 43.2916 76.9735C42.1825 77.9183 40.9502 78.1648 39.5535 77.5486C38.8141 77.22 38.0336 77.0968 37.212 77.3432C37.0888 77.3843 36.9245 77.4254 36.8012 77.5486C36.7191 77.6308 36.678 77.8362 36.5137 77.7129C36.3904 77.6308 36.4315 77.4665 36.4726 77.3432C36.5958 76.9324 36.8423 76.6038 37.0888 76.3163C37.9103 75.2893 38.9373 74.591 40.334 74.5499C41.1145 74.5088 41.7717 74.0569 42.3057 73.4818C42.7987 72.9478 43.2916 72.4138 44.031 72.2084C44.6883 72.0441 45.3045 72.003 45.9207 72.2906C46.9065 72.7424 47.8513 72.7424 48.7961 72.2495C48.8783 72.2084 48.9605 72.1673 49.0837 72.1263C50.0696 71.8387 50.3571 72.003 50.6858 73.03C50.809 73.3586 50.9322 73.6872 51.1787 73.9748C51.7127 74.7142 51.7127 75.4947 51.4663 76.3163C51.343 76.727 50.9733 76.9735 50.6858 77.22C50.5214 77.3432 50.3571 77.5075 50.3571 77.754C50.3982 79.1096 50.1517 80.4652 50.5625 81.7797C51.6306 85.5178 53.972 88.0236 57.8334 88.9274C58.4907 89.0917 59.1479 89.0095 59.8463 89.0506C59.9695 89.0506 60.1749 88.9684 60.216 89.1738C60.2571 89.3792 60.0517 89.4203 59.8873 89.4614C59.7641 89.5025 59.6409 89.5435 59.4766 89.5846C59.5998 89.8311 59.8873 89.9132 60.0517 90.0776C60.216 90.2008 60.4624 90.283 60.3803 90.5705C60.257 90.817 60.0517 90.9813 59.7641 91.0224C59.4766 91.0634 59.2301 90.9813 59.0247 90.7759C58.2031 89.9954 57.1762 89.6668 56.1081 89.5435C54.6704 89.3381 53.4791 88.6398 52.37 87.695C51.6716 87.0788 51.0965 86.4216 50.5625 85.5589C50.5214 85.7643 50.4804 85.8876 50.4393 86.0108C50.2339 89.3792 50.9322 92.5012 52.7397 95.4178C54.0953 97.5949 55.7384 99.5667 57.628 101.292C58.0388 101.662 58.4907 101.99 58.9015 102.401C59.0658 102.565 59.189 102.565 59.3122 102.36C59.682 101.826 60.2571 101.621 60.8321 101.415C61.2429 101.251 61.3251 101.456 61.3251 101.785C61.2429 102.524 60.8321 103.099 60.4214 103.675C59.682 104.66 58.7782 105.482 57.7923 106.262C57.5459 106.468 57.2994 106.591 56.9297 106.386C53.8899 104.989 51.3841 102.894 49.4123 100.224C49.3302 100.101 49.2069 99.9775 49.0837 99.8132C48.4675 100.758 47.5638 101.292 46.7422 101.908C45.6331 102.771 44.8526 103.88 44.1132 105.071C43.9489 105.318 43.99 105.441 44.2775 105.564C44.4829 105.646 44.6883 105.811 44.8937 105.934C45.0169 106.016 45.1812 106.016 45.1812 106.18C45.1812 106.345 44.9758 106.386 44.8526 106.427C44.4007 106.55 43.99 106.714 43.5381 106.838C43.4559 106.879 43.3738 106.838 43.3327 106.92C42.4701 106.92 41.6896 106.92 40.9091 106.92ZM60.7911 101.703C60.3803 101.867 60.0517 102.072 59.723 102.36C59.3944 102.648 59.3533 102.853 59.7641 103.099C59.8873 103.182 60.0106 103.51 60.1749 103.264C60.5035 102.853 60.75 102.442 60.9554 101.949C60.9554 101.867 60.9965 101.703 60.7911 101.703ZM43.5381 106.468C43.9489 106.345 44.3186 106.221 44.7294 106.098C43.8256 105.482 43.7435 105.482 43.5381 106.468Z" fill="black"/>
<path d="M77.5172 118.808C77.0242 118.808 76.4902 118.808 75.9973 118.849C75.6276 118.89 75.4633 118.766 75.4222 118.438C75.34 117.863 75.0114 117.657 74.4363 117.698C73.779 117.74 73.1629 117.698 72.5056 117.657C72.1359 117.616 71.9305 117.781 71.8894 118.109C71.8073 118.643 71.5197 118.931 70.9036 118.808C70.6571 118.766 70.4106 118.808 70.1641 118.808C69.6712 118.808 69.589 118.725 69.7944 118.274C70.1231 117.452 70.4928 116.63 70.8214 115.85C71.3554 114.659 71.8894 113.508 72.3824 112.317C72.5056 112.03 72.6699 111.906 72.9986 111.906C74.5185 111.824 74.5595 111.783 75.1346 113.139C75.8741 114.823 76.5724 116.548 77.3529 118.232C77.394 118.315 77.394 118.438 77.5172 118.479C77.5172 118.561 77.5172 118.684 77.5172 118.808ZM73.5737 115.973C73.6969 115.973 73.8201 116.014 73.9844 116.014C74.2309 116.014 74.3541 115.932 74.272 115.645C74.1488 115.193 73.9844 114.782 73.8612 114.33C73.8201 114.207 73.738 114.125 73.6147 114.125C73.4915 114.125 73.4093 114.248 73.3683 114.33C73.245 114.618 73.1629 114.864 73.0396 115.152C72.7521 115.932 72.7521 115.932 73.5737 115.973Z" fill="black"/>
<path d="M39.8892 123.039C40.2179 122.176 40.6697 121.519 41.3681 121.067C42.7647 120.163 44.8187 120.327 46.051 121.436C46.2564 121.642 46.2153 121.765 46.051 121.929C45.8046 122.176 45.5581 122.422 45.3116 122.669C45.1062 122.874 44.9419 122.792 44.7365 122.669C44.1203 122.258 43.4631 122.217 42.7237 122.463C41.6967 122.833 41.5324 124.271 41.8199 125.092C42.1486 126.037 43.0934 126.448 44.0382 126.119C44.2846 126.037 44.5722 125.955 44.7365 125.791C45.1062 125.462 45.3527 125.585 45.5992 125.955C45.6402 126.037 45.7224 126.078 45.7635 126.161C46.4207 126.941 46.3797 126.982 45.4759 127.475C44.1614 128.214 42.0253 128.091 40.8751 127.105C40.0536 126.407 39.6839 125.503 39.6839 124.435C39.6839 124.23 39.6839 124.024 39.6839 123.737C39.3552 124.271 39.0266 124.723 38.4515 124.928C38.164 125.01 38.3693 125.175 38.4515 125.257C38.9034 125.873 39.3552 126.448 39.8482 127.064C39.9303 127.187 40.0946 127.27 40.0536 127.434C39.9714 127.598 39.8071 127.516 39.6428 127.557C39.5195 127.557 39.3963 127.557 39.232 127.557C37.7532 127.557 37.7532 127.557 36.8905 126.284C36.7262 126.037 36.5619 125.791 36.3976 125.544C36.2333 125.257 35.9457 125.216 35.6582 125.298C35.4117 125.38 35.4938 125.627 35.4938 125.791C35.4938 126.243 35.5349 126.695 35.5349 127.105C35.5349 127.393 35.4528 127.557 35.1241 127.516C34.7134 127.475 34.3026 127.475 33.8918 127.516C33.5221 127.516 33.3988 127.352 33.4399 127.023C33.5632 125.421 33.3578 123.778 33.5221 122.176C33.5632 121.806 33.5221 121.436 33.481 121.067C33.481 120.738 33.5632 120.533 33.9739 120.533C35.1241 120.574 36.2333 120.533 37.3835 120.574C38.7801 120.574 39.6017 121.436 39.8892 123.039ZM35.6171 122.915C35.6582 123.778 35.6582 123.778 36.5208 123.737C36.6851 123.737 36.8494 123.737 37.0138 123.696C37.5889 123.655 37.7942 123.449 37.7942 122.956C37.7942 122.381 37.5889 122.135 37.0548 122.053C36.8494 122.012 36.644 122.012 36.4797 122.012C35.6171 122.094 35.6171 122.094 35.6171 122.915Z" fill="black"/>
<path d="M62.811 114.905C62.4003 115.398 61.9895 115.932 61.5787 116.425C61.1679 116.959 61.0447 116.959 60.5928 116.425C60.182 115.932 59.8534 115.357 59.3194 114.864C59.3194 115.562 59.3194 116.22 59.3194 116.836C59.3194 117.329 59.3194 117.863 59.3194 118.356C59.3194 118.684 59.2372 118.808 58.8675 118.808C57.4298 118.849 57.4298 118.849 57.4298 117.452C57.4298 115.727 57.4298 114.001 57.3887 112.276C57.3887 111.947 57.5119 111.783 57.8405 111.865C58.0459 111.906 58.2924 111.947 58.4567 111.865C59.0729 111.701 59.4837 111.947 59.8123 112.481C60.1409 112.933 60.4696 113.385 60.7982 113.837C61.0036 114.084 61.1268 114.084 61.3322 113.837C61.743 113.262 62.1949 112.728 62.6056 112.153C62.7289 111.989 62.8521 111.865 63.0986 111.906C63.5094 111.947 63.9612 111.947 64.372 111.906C64.6596 111.906 64.7828 111.989 64.7417 112.317C64.6185 114.166 64.8239 116.014 64.7006 117.863C64.6185 118.849 64.7006 118.849 63.7148 118.808C63.6326 118.808 63.5094 118.808 63.4272 118.808C62.9754 118.849 62.8521 118.643 62.8521 118.191C62.8932 117.082 62.8521 116.014 62.8521 114.905C62.8521 114.905 62.811 114.905 62.811 114.905Z" fill="black"/>
<path d="M43.381 115.398C43.381 116.343 43.381 117.288 43.381 118.232C43.381 118.807 43.3809 118.849 42.8058 118.849C42.4772 118.849 42.1075 118.849 41.7789 118.849C41.4092 118.89 41.327 118.684 41.327 118.397C41.3681 116.795 41.3681 115.193 41.4092 113.591C41.4092 113.18 41.3681 112.728 41.3681 112.317C41.3681 112.03 41.4913 111.906 41.7789 111.947C41.82 111.947 41.861 111.947 41.861 111.947C42.7237 111.783 43.3399 112.153 43.8328 112.892C44.449 113.796 45.1473 114.617 45.8867 115.603C45.8867 115.069 45.8867 114.659 45.8867 114.207C45.8867 113.632 45.8867 113.015 45.8457 112.44C45.8457 112.071 45.9689 111.906 46.3386 111.906C46.7494 111.947 47.1191 111.906 47.5299 111.947C47.8174 111.947 47.9407 112.071 47.8996 112.399C47.6942 114.207 47.9817 116.014 47.8585 117.822C47.7763 118.849 47.7763 118.849 46.7083 118.972C46.2975 119.013 46.0511 118.849 45.8046 118.52C45.0652 117.493 44.2847 116.466 43.5042 115.48C43.5042 115.357 43.422 115.357 43.381 115.398Z" fill="black"/>
<path d="M69.7123 123.983C69.7123 122.998 69.7123 121.971 69.7123 120.985C69.7123 120.615 69.8355 120.492 70.2052 120.492C71.3554 120.533 72.4645 120.492 73.6147 120.533C74.6417 120.574 75.4633 121.108 75.833 122.094C76.1205 122.874 76.0384 123.696 75.4222 124.353C75.299 124.476 75.1757 124.641 75.0114 124.682C74.5185 124.846 74.5185 125.093 74.8471 125.462C75.2579 125.955 75.6687 126.489 76.0795 127.023C76.1616 127.146 76.3259 127.229 76.2438 127.393C76.1616 127.557 75.9973 127.475 75.833 127.475C75.3811 127.475 74.9293 127.475 74.4363 127.516C74.1898 127.516 74.0255 127.434 73.8612 127.229C73.4504 126.654 73.0396 126.078 72.6289 125.503C72.4235 125.216 72.177 125.175 71.8894 125.257C71.6019 125.339 71.7251 125.627 71.7251 125.791C71.7251 126.243 71.7251 126.695 71.7662 127.105C71.7662 127.352 71.6841 127.516 71.3965 127.475C70.9857 127.475 70.616 127.434 70.2052 127.475C69.7944 127.475 69.6301 127.352 69.6301 126.9C69.7123 125.955 69.7123 124.969 69.7123 123.983ZM72.6289 123.737C72.7932 123.737 72.9575 123.737 73.1218 123.737C73.6969 123.696 73.9434 123.49 73.9434 122.998C73.9434 122.464 73.6969 122.135 73.1218 122.094C72.9164 122.094 72.711 122.053 72.5467 122.094C71.8894 122.135 71.6019 121.971 71.8073 122.874C71.8484 122.998 71.8484 123.121 71.8073 123.203C71.7251 123.614 71.9305 123.778 72.3002 123.737C72.3824 123.737 72.5056 123.737 72.6289 123.737Z" fill="black"/>
<path d="M49.173 115.111C49.2551 112.728 50.6518 111.496 52.9522 111.455C55.3348 111.413 56.5671 113.057 56.5671 115.069C56.5671 117.616 55.0472 118.849 53.0344 118.849C50.6929 118.89 49.173 117.534 49.173 115.111ZM51.0626 115.111C51.0626 116.261 51.8431 117.082 52.9111 117.082C53.8559 117.082 54.5953 116.261 54.5953 115.111C54.5953 114.001 53.897 113.139 52.9111 113.139C51.802 113.18 51.1037 113.919 51.0626 115.111Z" fill="black"/>
<path d="M33.1524 115.11C33.1935 112.728 34.6312 111.537 36.8905 111.455C39.0677 111.413 40.5465 112.892 40.5465 115.069C40.5465 117.575 39.0266 118.849 36.9727 118.849C34.6723 118.89 33.1113 117.534 33.1524 115.11ZM38.5748 115.152C38.5748 114.001 37.9175 113.18 36.9316 113.18C35.8225 113.18 35.042 113.919 35.042 115.11C35.042 116.22 35.8225 117.082 36.8905 117.123C37.8764 117.123 38.5748 116.302 38.5748 115.152Z" fill="black"/>
<path d="M20.0484 115.316C20.0484 114.33 20.0484 113.344 20.0484 112.358C20.0484 111.988 20.1716 111.865 20.5413 111.865C22.1023 111.947 23.6222 111.947 25.1832 111.865C25.5118 111.865 25.6761 111.988 25.635 112.317C25.635 112.44 25.594 112.564 25.594 112.728C25.5529 113.632 25.5529 113.632 24.6491 113.632C23.9097 113.632 23.1703 113.632 22.4309 113.591C22.0612 113.591 22.0201 113.796 22.0201 114.083C22.0201 114.371 22.0201 114.617 22.4309 114.617C23.2525 114.576 24.0741 114.576 24.8956 114.535C25.2653 114.535 25.4707 114.659 25.4296 115.028C25.4296 115.069 25.4296 115.11 25.4296 115.11C25.4707 116.178 25.4707 116.137 24.4438 116.137C23.7865 116.137 23.0882 116.178 22.4309 116.137C21.979 116.096 22.0612 116.466 22.0612 116.712C22.0201 117 22.0612 117.164 22.4309 117.164C23.3757 117.123 24.3205 117.164 25.2242 117.123C25.635 117.123 25.7993 117.247 25.7993 117.698C25.7583 119.013 25.8404 118.808 24.7313 118.808C23.3346 118.849 21.979 118.849 20.6235 118.89C20.0894 118.89 19.9662 118.766 20.0073 118.232C20.0894 117.247 20.0073 116.261 20.0484 115.316Z" fill="black"/>
<path d="M49.5016 122.833C49.5016 123.449 49.5016 124.066 49.5016 124.723C49.5427 125.544 49.8713 126.037 50.4875 126.12C51.3501 126.284 52.0485 125.791 52.0485 124.887C52.0896 123.696 52.1306 122.464 52.0485 121.231C52.0074 120.492 52.0896 120.451 52.829 120.533C53.0754 120.574 53.3219 120.533 53.5684 120.533C53.9381 120.492 54.1024 120.656 54.1024 120.985C54.1024 122.34 54.1435 123.696 54.0613 125.051C53.9381 126.9 52.7057 127.927 50.8572 127.886C49.5838 127.845 48.5157 127.516 47.9406 126.284C47.7352 125.873 47.612 125.421 47.5709 124.969C47.5709 123.614 47.5709 122.258 47.5709 120.903C47.5709 120.615 47.6531 120.492 47.9817 120.492C48.3514 120.492 48.7211 120.533 49.1319 120.492C49.4605 120.492 49.5838 120.615 49.5838 120.944C49.5016 121.601 49.5427 122.217 49.5016 122.833C49.5427 122.833 49.5427 122.833 49.5016 122.833Z" fill="black"/>
<path d="M65.5222 120.492C66.0973 120.368 66.5081 120.615 66.7956 121.313C67.535 123.203 68.3977 125.01 69.1782 126.859C69.4247 127.393 69.3425 127.516 68.7263 127.475C68.6442 127.475 68.562 127.434 68.4798 127.475C67.6994 127.639 67.1653 127.475 67.001 126.571C66.9599 126.366 66.7956 126.366 66.6313 126.325C65.8097 126.325 64.9471 126.325 64.1255 126.284C63.838 126.284 63.7969 126.489 63.7147 126.695C63.4683 127.434 63.5504 127.516 62.6467 127.434C62.4413 127.434 62.2359 127.434 62.0305 127.475C61.4965 127.516 61.4143 127.393 61.6197 126.9C61.9894 125.996 62.4002 125.134 62.7699 124.23C63.2218 123.244 63.7147 122.258 64.0844 121.231C64.2898 120.697 64.5774 120.451 65.1114 120.533C65.1936 120.492 65.2757 120.492 65.5222 120.492ZM65.3579 124.641C65.5222 124.641 65.6454 124.641 65.8097 124.641C66.0151 124.641 66.0973 124.517 66.0562 124.312C65.933 123.86 65.7687 123.408 65.6044 122.956C65.5633 122.833 65.5222 122.751 65.3579 122.751C65.2346 122.751 65.1525 122.874 65.1114 122.956C64.9882 123.244 64.906 123.49 64.7828 123.778C64.5363 124.558 64.4131 124.641 65.3579 124.641Z" fill="black"/>
<path d="M28.5926 115.234C28.5926 116.918 29.9893 117.657 31.5503 116.795C32.1665 116.425 32.1665 116.425 32.6183 117C33.3167 117.822 33.2756 117.863 32.3308 118.397C31.2627 119.013 28.9623 119.054 27.7711 117.986C26.6209 117 26.2101 115.11 26.9906 113.426C28.0175 111.249 31.0984 110.674 32.9059 112.358C33.1113 112.523 33.0702 112.687 32.9059 112.851C32.6594 113.098 32.4129 113.344 32.1665 113.632C31.9611 113.837 31.8378 113.714 31.6324 113.591C31.2217 113.303 30.7287 113.139 30.2358 113.221C29.0856 113.385 28.5926 114.042 28.5926 115.234Z" fill="black"/>
<path d="M26.9084 127.886C24.6902 127.927 23.2525 126.941 22.9649 125.052C22.513 122.258 24.4027 120.163 27.2371 120.492C27.9765 120.574 28.5516 120.944 29.1267 121.354C29.3732 121.56 29.3732 121.724 29.1678 121.93C29.1267 121.971 29.1267 121.971 29.0856 122.012C28.6337 122.587 28.223 122.957 27.4014 122.422C26.7852 122.012 25.7172 122.299 25.3064 122.833C24.7313 123.532 24.6902 124.353 25.0188 125.175C25.2653 125.873 25.8815 126.243 26.6209 126.243C27.1138 126.243 27.6068 126.037 27.9765 125.75C28.3051 125.503 28.5105 125.586 28.7159 125.873C28.8391 126.037 28.9624 126.161 29.0856 126.325C29.5375 126.859 29.5375 126.859 29.0034 127.27C28.3051 127.763 27.4835 127.886 26.9084 127.886Z" fill="black"/>
<path d="M55.3349 123.983C55.3349 122.998 55.3349 121.971 55.3349 120.985C55.3349 120.615 55.4581 120.492 55.8278 120.533C56.1565 120.574 56.4851 120.574 56.8137 120.533C57.1013 120.533 57.2245 120.656 57.2245 120.944C57.2245 122.422 57.2245 123.901 57.1834 125.38C57.1834 125.75 57.2656 125.914 57.6764 125.873C58.3747 125.832 59.073 125.914 59.7303 125.791C60.1 125.75 60.3054 125.832 60.2643 126.243C60.2232 126.489 60.2643 126.777 60.2643 127.023C60.3054 127.434 60.1 127.557 59.7303 127.516C58.4158 127.393 57.1013 127.516 55.7868 127.516C55.4581 127.516 55.2938 127.434 55.2938 127.064C55.3349 125.996 55.3349 124.969 55.3349 123.983Z" fill="black"/>
<path d="M30.2769 123.983C30.2769 122.956 30.2769 121.971 30.2769 120.944C30.2769 120.615 30.359 120.451 30.6876 120.492C31.0984 120.533 31.4681 120.533 31.8789 120.492C32.2486 120.451 32.3308 120.656 32.3308 120.944C32.3308 121.971 32.3719 123.039 32.3308 124.066C32.2897 125.093 32.3719 126.078 32.2897 127.105C32.2486 127.434 32.1665 127.516 31.8789 127.475C31.7557 127.475 31.6324 127.475 31.4681 127.475C30.3179 127.434 30.3179 127.434 30.2769 126.284C30.2769 125.544 30.2769 124.764 30.2769 123.983Z" fill="black"/>
<path d="M66.8368 115.234C66.8368 114.207 66.8368 113.221 66.8368 112.194C66.8368 111.947 66.8779 111.824 67.1654 111.824C67.5351 111.824 67.9048 111.824 68.3156 111.783C68.6442 111.742 68.7675 111.865 68.7675 112.235C68.7675 113.303 68.7675 114.33 68.7675 115.398C68.7675 116.384 68.7264 117.411 68.7675 118.397C68.7675 118.807 68.6032 118.972 68.2335 118.89C68.1102 118.89 67.987 118.849 67.9048 118.849C66.96 118.807 66.96 118.807 66.919 117.863C66.8368 116.959 66.8368 116.096 66.8368 115.234Z" fill="black"/>
<path d="M69.3014 109.483C69.0549 109.976 68.7263 110.345 68.3977 110.756C68.3155 110.879 68.1512 110.92 67.9869 110.879C67.6994 110.879 67.4118 110.838 67.0832 110.838C66.8367 110.838 66.7545 110.756 66.8778 110.51C67.0832 110.14 67.1653 109.688 67.4529 109.401C67.6172 109.359 69.0139 109.401 69.3014 109.483Z" fill="black"/>
<path d="M95.3261 125.288C94.3564 125.288 93.487 124.397 93.487 122.29C93.487 120.997 93.8994 119.259 95.3149 119.259C96.1174 119.259 96.8865 120.184 96.931 120.228C96.9756 120.273 97.0314 120.306 97.1094 120.306C97.2431 120.306 97.3434 120.206 97.3434 120.072V118.367C97.3434 118.278 97.2989 118.2 97.2208 118.155C96.5298 117.72 96.0505 117.464 95.0586 117.464C93.9106 117.464 91.7483 118.2 91.7483 122.279C91.7483 125.701 93.3421 127.072 95.0474 127.072C95.9725 127.072 96.6524 126.748 97.232 126.336C97.31 126.28 97.3434 126.202 97.3434 126.147C97.3434 126.08 97.3434 124.508 97.3434 124.508C97.3434 124.374 97.2431 124.274 97.1094 124.274C96.7862 124.274 96.3961 125.288 95.3261 125.288Z" fill="black"/>
<path d="M106.416 121.197C106.182 121.197 105.524 121.264 105.524 121.81C105.524 122.312 106.059 122.39 106.349 122.457C108.656 123.014 108.467 124.519 108.467 125.132C108.467 125.756 108.021 127.071 105.937 127.071C104.844 127.071 104.031 126.581 104.031 126.581C103.953 126.536 103.908 126.458 103.908 126.38V124.998C103.908 124.842 104.109 124.641 104.321 124.842C104.321 124.842 104.744 125.366 105.781 125.522C106.327 125.6 106.884 125.388 106.884 124.953C106.884 124.574 106.706 124.296 106.126 124.218C105.669 124.162 103.942 124.106 103.942 121.977C103.942 120.016 105.658 119.715 106.427 119.715C107.297 119.715 107.965 120.049 108.11 120.127C108.21 120.183 108.266 120.25 108.266 120.35V121.576C108.266 121.799 108.043 121.855 107.887 121.777C107.72 121.676 107.263 121.197 106.416 121.197Z" fill="black"/>
<path d="M109.113 121.108C109.113 121.242 109.214 121.342 109.347 121.342H109.76V124.976C109.76 126.881 110.952 127.071 111.565 127.071C111.944 127.071 112.234 127.004 112.613 126.926C112.713 126.904 112.78 126.803 112.78 126.703V125.667C112.78 125.533 112.646 125.399 112.479 125.444C112.368 125.466 112 125.577 111.643 125.433C111.354 125.321 111.32 124.931 111.32 124.753C111.32 124.574 111.32 121.331 111.32 121.331H112.546C112.669 121.331 112.769 121.231 112.78 121.108V120.049C112.78 119.915 112.669 119.815 112.546 119.815H111.331V117.664C111.331 117.53 111.22 117.43 111.097 117.43L109.972 117.564C109.86 117.575 109.771 117.675 109.76 117.787V119.804H109.347C109.214 119.815 109.113 119.915 109.113 120.038V121.108Z" fill="black"/>
<path d="M136.498 125.288C136.498 125.288 134.024 125.288 134.013 125.288C133.99 125.288 133.79 125.277 133.779 125.065C133.779 124.853 133.779 117.72 133.779 117.72C133.779 117.564 133.667 117.43 133.522 117.452L132.363 117.586C132.218 117.597 132.118 117.698 132.118 117.831C132.118 117.831 132.118 126.826 132.118 126.837C132.118 126.971 132.218 127.082 132.352 127.082H136.509C136.665 127.082 136.777 126.971 136.777 126.815V125.566C136.777 125.377 136.71 125.288 136.498 125.288Z" fill="black"/>
<path d="M151.556 117.753C151.556 117.631 151.467 117.53 151.333 117.53H149.795C149.684 117.53 149.594 117.608 149.572 117.697L148.29 122.067C148.268 122.122 148.235 122.167 148.168 122.167C148.101 122.167 148.067 122.122 148.045 122.067L146.763 117.697C146.73 117.597 146.641 117.53 146.54 117.53H145.002C144.869 117.53 144.768 117.631 144.768 117.753C144.768 117.753 144.768 126.815 144.768 126.826C144.768 126.96 144.88 127.082 145.014 127.082H146.072C146.251 127.082 146.351 126.982 146.351 126.815V120.863L147.499 124.742C147.532 124.831 147.577 124.875 147.688 124.875H148.614C148.725 124.875 148.803 124.842 148.825 124.742L149.973 120.863V126.848C149.973 126.971 150.063 127.071 150.196 127.071H151.311C151.445 127.071 151.545 126.971 151.545 126.826L151.556 117.753Z" fill="black"/>
<path d="M130.402 123.025C130.402 122.891 130.301 122.791 130.168 122.791H128.239C128.106 122.791 128.005 122.869 128.005 123.025V124.351C128.005 124.485 128.083 124.574 128.251 124.574H130.179C130.324 124.574 130.413 124.485 130.413 124.34C130.402 124.34 130.402 123.025 130.402 123.025Z" fill="black"/>
<path d="M117.695 127.071C117.84 127.071 117.93 126.971 117.93 126.848V117.675C117.93 117.541 117.829 117.419 117.695 117.441L116.603 117.564C116.447 117.586 116.369 117.675 116.369 117.798V126.826C116.369 126.971 116.469 127.071 116.603 127.071H117.695Z" fill="black"/>
<path d="M120.281 127.071C120.426 127.071 120.515 126.971 120.515 126.848V117.675C120.515 117.541 120.415 117.419 120.281 117.441L119.189 117.564C119.033 117.586 118.955 117.675 118.955 117.798V126.826C118.955 126.971 119.055 127.071 119.189 127.071H120.281Z" fill="black"/>
<path d="M115.121 119.024C115.243 119.024 115.344 118.924 115.355 118.801V117.675C115.355 117.541 115.255 117.43 115.121 117.441L114.028 117.564C113.895 117.575 113.794 117.675 113.794 117.798V118.779C113.794 118.912 113.895 119.024 114.028 119.024H115.121Z" fill="black"/>
<path d="M113.794 126.826C113.794 126.982 113.895 127.071 114.028 127.071H115.132C115.277 127.071 115.366 126.982 115.366 126.837L115.355 120.06C115.355 119.927 115.266 119.826 115.132 119.826H114.028C113.872 119.826 113.794 119.927 113.794 120.06V126.826Z" fill="black"/>
<path d="M101.289 122.379C101.478 122.356 101.501 122.189 101.501 122.122C101.501 121.465 100.821 121.32 100.219 121.32C99.5613 121.32 99.0597 121.732 98.8702 121.732C98.7365 121.732 98.6362 121.621 98.6362 121.498V120.372C98.6362 120.172 98.7142 120.116 98.8257 120.083C98.9706 120.038 99.7173 119.804 100.542 119.804C103.028 119.804 103.028 121.376 103.028 122.2C103.028 122.2 103.028 126.67 103.028 126.681C103.016 126.803 102.927 126.893 102.805 126.904L101.868 126.96C101.824 126.96 101.489 126.993 101.445 126.569C101.445 126.514 101.166 127.082 99.8622 127.082C99.3049 127.082 98.2126 126.581 98.2126 124.92C98.2238 122.579 100.074 122.501 101.289 122.379ZM101.501 123.906C101.501 123.772 101.378 123.66 101.244 123.683C101.233 123.683 100.732 123.738 100.275 123.894C100.119 123.95 99.996 124.062 99.9179 124.195C99.7619 124.463 99.773 124.864 99.8176 125.065C99.8622 125.265 100.074 125.611 100.609 125.566C100.765 125.555 101.501 125.355 101.501 124.987V123.906V123.906Z" fill="black"/>
<path d="M124.45 122.379C124.628 122.356 124.662 122.189 124.662 122.122C124.662 121.465 123.982 121.32 123.38 121.32C122.722 121.32 122.209 121.732 122.031 121.732C121.897 121.732 121.797 121.621 121.797 121.498V120.372C121.797 120.172 121.875 120.116 121.987 120.083C122.131 120.038 122.878 119.804 123.703 119.804C126.188 119.804 126.188 121.376 126.188 122.2C126.188 122.2 126.188 126.67 126.188 126.681C126.177 126.803 126.088 126.893 125.966 126.904L125.029 126.96C124.985 126.96 124.65 126.993 124.606 126.569C124.606 126.514 124.327 127.082 123.023 127.082C122.466 127.082 121.374 126.581 121.374 124.92C121.385 122.579 123.235 122.501 124.45 122.379ZM124.662 123.906C124.662 123.772 124.539 123.66 124.405 123.683C124.394 123.683 123.892 123.738 123.435 123.894C123.279 123.95 123.157 124.062 123.079 124.195C122.923 124.463 122.934 124.864 122.979 125.065C123.023 125.265 123.235 125.611 123.77 125.566C123.926 125.555 124.662 125.355 124.662 124.987V123.906Z" fill="black"/>
<path d="M140.533 122.379C140.711 122.356 140.745 122.189 140.745 122.122C140.745 121.465 140.065 121.32 139.474 121.32C138.817 121.32 138.304 121.732 138.126 121.732C137.992 121.732 137.892 121.621 137.892 121.498V120.372C137.892 120.172 137.97 120.116 138.081 120.083C138.226 120.038 138.973 119.804 139.797 119.804C142.283 119.804 142.283 121.376 142.283 122.2C142.283 122.2 142.283 126.67 142.283 126.681C142.272 126.803 142.183 126.893 142.06 126.904L141.124 126.96C141.079 126.96 140.745 126.993 140.7 126.569C140.7 126.514 140.422 127.082 139.118 127.082C138.56 127.082 137.468 126.581 137.468 124.92C137.468 122.579 139.318 122.501 140.533 122.379ZM140.745 123.906C140.745 123.772 140.622 123.66 140.489 123.683C140.477 123.683 139.976 123.738 139.508 123.894C139.352 123.95 139.229 124.062 139.151 124.195C138.995 124.463 139.006 124.864 139.051 125.065C139.095 125.265 139.307 125.611 139.842 125.566C139.998 125.555 140.723 125.355 140.723 124.987L140.745 123.906Z" fill="black"/>
<path d="M155.502 122.379C155.691 122.356 155.713 122.189 155.713 122.122C155.713 121.465 155.034 121.32 154.443 121.32C153.785 121.32 153.284 121.732 153.094 121.732C152.96 121.732 152.86 121.621 152.86 121.498V120.372C152.86 120.172 152.938 120.116 153.05 120.083C153.195 120.038 153.941 119.804 154.766 119.804C157.252 119.804 157.252 121.376 157.252 122.2C157.252 122.2 157.252 126.67 157.252 126.681C157.24 126.803 157.151 126.893 157.029 126.904L156.092 126.96C156.048 126.96 155.702 126.993 155.669 126.569C155.669 126.514 155.39 127.082 154.086 127.082C153.529 127.082 152.437 126.581 152.437 124.92C152.437 122.579 154.287 122.501 155.502 122.379ZM155.713 123.906C155.713 123.772 155.591 123.66 155.457 123.683C155.446 123.683 154.944 123.738 154.476 123.894C154.32 123.95 154.198 124.062 154.12 124.195C153.964 124.463 153.975 124.864 154.019 125.065C154.064 125.265 154.276 125.611 154.811 125.566C154.967 125.555 155.702 125.355 155.702 124.987V123.906H155.713Z" fill="black"/>
<path d="M178.25 122.379C178.428 122.356 178.462 122.189 178.462 122.122C178.462 121.465 177.782 121.32 177.191 121.32C176.534 121.32 176.032 121.732 175.843 121.732C175.709 121.732 175.609 121.621 175.609 121.498V120.372C175.609 120.172 175.687 120.116 175.798 120.083C175.943 120.038 176.69 119.804 177.515 119.804C180.011 119.804 180 121.376 180 122.2C180 122.2 180 126.67 180 126.681C179.989 126.803 179.9 126.893 179.777 126.904L178.841 126.96C178.796 126.96 178.462 126.993 178.417 126.569C178.417 126.514 178.139 127.082 176.835 127.082C176.277 127.082 175.185 126.581 175.185 124.92C175.185 122.579 177.046 122.501 178.25 122.379ZM178.473 123.906C178.473 123.772 178.35 123.66 178.217 123.683C178.206 123.683 177.704 123.738 177.236 123.894C177.08 123.95 176.957 124.062 176.879 124.195C176.723 124.463 176.734 124.864 176.779 125.065C176.823 125.265 177.035 125.611 177.57 125.566C177.726 125.555 178.451 125.355 178.451 124.987L178.473 123.906Z" fill="black"/>
<path d="M169.478 127.004C169.412 126.937 169.412 126.881 169.412 126.848C169.412 126.815 169.412 117.853 169.412 117.853C169.412 117.853 169.4 117.775 169.467 117.709C169.545 117.631 169.668 117.631 169.668 117.631C169.668 117.631 170.66 117.519 170.749 117.519C170.749 117.519 170.827 117.508 170.905 117.575C170.972 117.631 170.972 117.709 170.972 117.709V120.684C171.329 120.06 171.83 119.737 172.555 119.737C173.736 119.737 174.305 120.384 174.305 121.832C174.305 121.832 174.305 126.748 174.305 126.848C174.305 126.937 174.305 126.982 174.238 127.038C174.149 127.104 174.059 127.104 174.059 127.104H172.945C172.945 127.104 172.844 127.104 172.778 127.038C172.722 126.971 172.722 126.926 172.722 126.881C172.722 126.837 172.722 122.735 172.722 122.735C172.722 122 172.488 121.71 171.919 121.71C171.273 121.71 170.972 122.111 170.972 122.925C170.972 122.925 170.972 126.87 170.972 126.915C170.972 126.948 170.972 126.993 170.905 127.049C170.849 127.104 170.76 127.104 170.76 127.104C170.76 127.104 169.679 127.104 169.657 127.104C169.634 127.071 169.545 127.071 169.478 127.004Z" fill="black"/>
<path d="M158.31 127.004C158.244 126.937 158.244 126.859 158.244 126.859V120.06C158.244 120.06 158.232 119.982 158.299 119.915C158.377 119.837 158.5 119.837 158.5 119.837C158.5 119.837 159.492 119.726 159.581 119.726C159.581 119.726 159.659 119.715 159.737 119.782C159.804 119.837 159.804 119.915 159.804 119.915V120.673C160.161 120.049 160.662 119.726 161.387 119.726C162.568 119.726 163.137 120.372 163.137 121.821V126.87C163.137 126.893 163.137 126.971 163.07 127.015C162.981 127.082 162.891 127.082 162.891 127.082H161.777C161.777 127.082 161.676 127.082 161.61 127.015C161.554 126.948 161.554 126.893 161.554 126.859C161.554 126.826 161.554 122.713 161.554 122.713C161.554 121.977 161.32 121.688 160.751 121.688C160.105 121.688 159.804 122.089 159.804 122.903C159.804 122.903 159.804 126.77 159.804 126.837C159.804 126.915 159.804 126.96 159.737 127.015C159.681 127.071 159.592 127.071 159.592 127.071H158.467C158.467 127.071 158.377 127.071 158.31 127.004Z" fill="black"/>
<path d="M166.848 119.771C165.968 119.771 164.017 120.283 164.017 123.449C164.017 126.725 166.157 127.071 166.893 127.071C167.807 127.071 168.409 126.614 168.42 126.614C168.52 126.547 168.542 126.469 168.542 126.257V125.076C168.542 124.764 168.286 124.764 168.108 124.976C167.952 125.154 167.729 125.499 166.937 125.499C166.514 125.499 165.622 125.299 165.622 123.471C165.622 121.61 166.491 121.376 166.915 121.376C167.651 121.376 168.03 121.855 168.141 122.022C168.252 122.189 168.542 122.078 168.542 121.899C168.542 121.899 168.542 120.551 168.542 120.54C168.553 120.116 167.818 119.771 166.848 119.771Z" fill="black"/>
<path d="M144.924 86.2889H126.824C125.776 86.2889 124.929 87.1248 124.929 88.1279V105.928C124.929 108.212 126.166 110.04 128.485 111.211C130.346 112.136 132.898 112.626 135.874 112.626C138.85 112.626 141.402 112.136 143.264 111.211C145.593 110.052 146.819 108.224 146.819 105.928V88.1391C146.819 87.1248 145.972 86.2889 144.924 86.2889ZM133.913 101.793C133.913 102.06 133.701 102.283 133.444 102.294C133.433 102.294 133.411 102.294 133.411 102.294H131.427V100.477C131.427 99.9535 131.003 99.53 130.48 99.53C129.956 99.53 129.532 99.9535 129.532 100.477V100.5V102.283H127.559C127.548 102.283 127.526 102.283 127.515 102.283C127.259 102.261 127.058 102.038 127.058 101.781C127.058 101.748 127.058 101.692 127.058 101.692L127.515 96.6878V95.2277H128.953V96.6544H129.766V93.8011H131.204V96.6544H132.007V95.2277H133.444V96.6655L133.913 101.692C133.913 101.692 133.913 101.759 133.913 101.793ZM145.448 105.303C145.448 111.077 137 111.211 136.989 111.2C136.064 111.233 136.119 110.185 136.119 110.185V88.7186C136.119 88.1391 136.521 87.6709 137.033 87.6709H144.523C144.991 87.6709 145.393 88.0722 145.448 88.5849V89.4654V105.303Z" fill="black"/>
<path d="M142.684 76.4918C141.915 76.4918 141.224 76.7815 140.689 77.2385C140.109 76.6255 139.285 76.2577 138.371 76.2577C137.379 76.2577 136.465 76.7147 135.885 77.4168C135.283 76.7035 134.392 76.2577 133.389 76.2577C132.475 76.2577 131.65 76.6255 131.059 77.2385C130.535 76.7704 129.833 76.4918 129.075 76.4918C127.415 76.4918 126.077 77.8292 126.077 79.4899C126.077 80.1698 126.322 80.794 126.701 81.3067C126.891 81.563 127.136 81.7525 127.459 81.7637C127.905 81.7748 128.44 81.3067 128.172 80.7271C128.083 80.5488 127.671 80.1141 127.693 79.5011C127.715 78.7209 128.295 78.0856 129.075 78.0856C129.566 78.0856 130.034 78.3531 130.29 78.732C130.234 78.9772 130.19 79.2336 130.19 79.5011C130.19 80.1921 130.413 80.716 130.413 80.716C130.569 81.1172 130.847 81.407 131.293 81.3959C131.806 81.3959 132.207 81.0058 132.207 80.4819C132.207 80.337 132.118 80.0807 132.085 79.9915C132.018 79.8355 131.984 79.6571 131.984 79.4788C131.984 78.6986 132.62 78.0744 133.389 78.0744C134.158 78.0744 134.804 78.7097 134.804 79.4788C134.804 79.4788 134.804 80.5711 134.804 80.5822C134.804 81.1841 135.295 81.6634 135.885 81.6745C136.487 81.6745 136.966 81.1841 136.966 80.5934C136.966 80.5822 136.978 79.4899 136.978 79.4899C136.978 78.7097 137.602 78.0856 138.382 78.0856C139.162 78.0856 139.797 78.7097 139.797 79.4899C139.797 79.6683 139.764 79.8355 139.697 80.0027C139.664 80.0918 139.586 80.3593 139.574 80.4931C139.563 81.0058 139.965 81.3959 140.488 81.407C140.923 81.407 141.213 81.1172 141.369 80.7271C141.369 80.7271 141.592 80.2033 141.592 79.5122C141.592 79.2447 141.558 78.9884 141.492 78.7432C141.748 78.3642 142.216 78.0967 142.706 78.0967C143.487 78.0967 144.088 78.7432 144.1 79.5122C144.1 80.1253 143.698 80.5599 143.62 80.7383C143.342 81.3178 143.877 81.7748 144.323 81.7748C144.657 81.7637 144.902 81.5853 145.08 81.3178C145.471 80.8163 145.716 80.181 145.716 79.5011C145.693 77.8404 144.345 76.4918 142.684 76.4918Z" fill="black"/>
<path d="M138.872 83.9148C138.872 84.461 139.307 84.9068 139.864 84.9068C140.41 84.9068 140.856 84.461 140.856 83.9148C140.856 83.3687 140.41 82.9229 139.864 82.9229C139.318 82.9229 138.872 83.3687 138.872 83.9148Z" fill="black"/>
<path d="M130.914 83.9148C130.914 84.461 131.36 84.9068 131.906 84.9068C132.452 84.9068 132.898 84.461 132.898 83.9148C132.898 83.3687 132.452 82.9229 131.906 82.9229C131.36 82.9229 130.914 83.3687 130.914 83.9148Z" fill="black"/>
<path d="M142.84 83.9148C142.84 84.461 143.286 84.9068 143.832 84.9068C144.378 84.9068 144.824 84.461 144.824 83.9148C144.824 83.3687 144.378 82.9229 143.832 82.9229C143.286 82.9229 142.84 83.3687 142.84 83.9148Z" fill="black"/>
<path d="M134.882 83.9149C134.882 84.461 135.328 84.9068 135.874 84.9068C136.42 84.9068 136.866 84.461 136.866 83.9149C136.866 83.3687 136.42 82.9229 135.874 82.9229C135.328 82.9229 134.882 83.3687 134.882 83.9149Z" fill="black"/>
<path d="M126.924 83.9148C126.924 84.461 127.37 84.9068 127.916 84.9068C128.462 84.9068 128.908 84.461 128.908 83.9148C128.908 83.3687 128.462 82.9229 127.916 82.9229C127.359 82.9229 126.924 83.3687 126.924 83.9148Z" fill="black"/>
<path d="M137.223 73.3486H136.32V72.4458C136.32 72.2006 136.119 72 135.874 72C135.629 72 135.428 72.2006 135.428 72.4458V73.3486H134.537C134.291 73.3486 134.08 73.5493 134.08 73.7945C134.08 74.0397 134.291 74.2403 134.537 74.2403H135.428V75.1319C135.428 75.3772 135.629 75.5889 135.874 75.5889C136.119 75.5889 136.32 75.3772 136.32 75.1319V74.2403H137.223C137.468 74.2403 137.669 74.0397 137.669 73.7945C137.669 73.5493 137.468 73.3486 137.223 73.3486Z" fill="black"/>
</svg>
