<svg width="200" height="200" viewBox="0 0 200 200" fill="none" xmlns="http://www.w3.org/2000/svg">
<rect width="200" height="200" fill="white"/>
<path d="M150.769 114.06V114.199H168.92L169.031 114.116L169.003 114.088L168.92 114.06H150.769V114.06ZM193.075 97.2931L193.269 97.1548H163.442L163.331 97.2378L163.359 97.2655L163.442 97.2931H193.075V97.2931Z" fill="black"/>
<path d="M198 73L163.469 97.1548H163.442H150.769V106.037V114.199V126.899L168.92 114.199H198V97.1548H193.296L198 93.8622V73ZM166.292 106.535C166.153 107.254 166.319 109.523 167.177 109.689C167.481 109.744 167.73 109.689 167.979 109.55L168.726 109.135L168.865 112.151H164.078C164.244 110.906 164.327 109.882 164.41 108.969L164.576 106.535C163.608 106.396 162.556 106.037 161.671 105.345C160.896 104.708 160.453 103.934 160.398 102.993C160.287 101.333 162.473 99.2577 165.296 99.2577H166.126C166.43 99.2853 166.734 99.313 167.066 99.396C166.873 99.811 166.624 100.309 166.568 101.167C166.264 101.084 166.015 101.028 165.655 101.028C163.608 101.028 163.054 102.412 163.054 102.938C163.054 104.293 164.382 104.764 165.379 104.847C166.098 104.93 166.79 104.764 167.398 104.349C167.841 104.044 167.952 103.934 168.173 103.436C168.699 103.712 169.889 103.795 170.746 103.491C170.553 105.206 168.228 106.479 166.292 106.535Z" fill="black"/>
<path d="M4.04452 114.609C2.74556 114.609 2 113.879 2 112.71V97.1304H5.15902V112.003H13.3448V114.609" fill="black"/>
<path d="M23.4983 100.136L20.5084 108.783H26.3883L23.4983 100.136ZM28.2638 114.609L27.0417 111.165H19.832L18.6099 114.609H15.4355L21.2924 98.4754C21.6229 97.4608 22.3454 96.9458 23.5675 96.9458C24.7128 96.9458 25.466 97.4915 25.7965 98.4523L31.4843 114.609H28.2638Z" fill="black"/>
<path d="M33.0137 105.923C33.0137 99.9511 36.5647 97.0381 41.3762 97.0381C42.9673 97.0381 44.5737 97.384 46.3569 97.9066L47.7173 98.3063L47.2485 100.935L45.7727 100.52C44.1586 100.043 42.7905 99.7436 41.5914 99.7436C38.2326 99.7436 36.165 101.688 36.165 105.954C36.165 110.335 38.3479 112.357 41.6991 112.357C42.8059 112.357 43.7743 112.234 44.9042 112.034V108.083H41.0688V105.754H45.7958C47.0409 105.754 47.8403 106.531 47.8403 107.653V111.626C47.8403 113.095 47.4406 113.74 46.0955 114.117C44.5967 114.516 42.9442 114.778 41.4531 114.778C36.5647 114.778 33.0137 111.957 33.0137 105.923Z" fill="black"/>
<path d="M58.5779 114.916C53.9969 114.916 51.5066 112.449 51.5066 108.291V97.1304H54.6579V108.383C54.6579 110.904 55.9723 112.28 58.5779 112.28C61.2296 112.28 62.5286 110.904 62.5286 108.383V97.1304H65.6722V108.291C65.6722 112.434 63.1819 114.916 58.5779 114.916Z" fill="black"/>
<path d="M72.3669 114.609H69.5999V98.9829C69.5999 97.6455 70.4223 96.9614 71.7827 96.9614C72.9126 96.9614 73.5736 97.5379 74.0425 98.2834L81.229 110.335V97.1305H84.0191V112.757C84.0191 114.071 83.1813 114.755 81.8209 114.755C80.7141 114.755 80.0531 114.186 79.6073 113.433L72.3669 101.389" fill="black"/>
<path d="M101.774 100.136L98.7767 108.783H104.657L101.774 100.136ZM106.54 114.609L105.318 111.165H98.108L96.8782 114.609H93.7039L99.5607 98.4754C99.8835 97.4608 100.614 96.9458 101.844 96.9458C102.989 96.9458 103.742 97.4915 104.065 98.4523L109.76 114.609H106.54Z" fill="black"/>
<path d="M119.975 99.4823H115.602V105.616H120.774L121.574 104.517C122.089 103.833 122.565 103.018 122.565 102.142C122.565 100.566 121.835 99.4823 119.975 99.4823ZM123.096 114.609L120.16 107.945H115.602V114.609H112.481V99.0135C112.481 97.8836 113.234 97.1304 114.479 97.1304H120.375C123.618 97.1304 125.571 98.8444 125.571 102.065C125.571 103.433 124.986 104.601 124.187 105.585L122.996 107.076L126.431 114.609H123.096Z" fill="black"/>
<path d="M136.892 99.4285C133.672 99.4285 131.804 101.757 131.804 105.923C131.804 110.105 133.787 112.433 137.008 112.433C140.221 112.433 142.088 110.12 142.088 105.923C142.088 101.757 140.113 99.4285 136.892 99.4285ZM136.892 114.801C131.942 114.801 128.622 111.58 128.622 105.923C128.622 100.251 132.058 97.0073 137.008 97.0073C141.965 97.0073 145.263 100.228 145.263 105.923C145.263 111.657 141.881 114.801 136.892 114.801Z" fill="black"/>
</svg>
