<svg width="528" height="278" fill="none" xmlns="http://www.w3.org/2000/svg"><path fill="#3A913F" d="M0 0h528v278H0z"/><g clip-path="url(#clip0_2505_1922)"><path fill-rule="evenodd" clip-rule="evenodd" d="M351.248 172.199h12.462v-12.463h-12.462v12.463zm9.138-8.189c.251-.124.5-.247.873-.467.286.433.359 1.429.369 2.223.257-.505.561-2.392.428-2.735.394-.257.456-.381.534-.539l.048-.092-.287.023c-.295.022-.497.037-.691.099-.641-.393-1.97-.796-3.054-.88.335.138 1.706.882 1.879 1.12-.733.101-2.115.517-2.813.887.802-.18 1.927-.27 2.697-.307a8.917 8.917 0 01-.957 1.193c.431-.258.703-.392.974-.525zm-5.887 5.62c.35.331.667.521 1.115.687a4.554 4.554 0 01-1.229-.196c-.03.291-.013.514.067.792a3.338 3.338 0 01-.731-1.045 7.497 7.497 0 01-.958-.522c.231-.105.435-.181.716-.256-.089-.501-.062-.952.005-1.581.131.596.244 1.017.5 1.468.311-.061.574-.103.937-.155a3.335 3.335 0 00-.422.808zm2.266-5.593c-.14.175-.301.514-.347.666a5.733 5.733 0 012.066.75c-1.002-.182-1.533-.16-1.9-.126-.376.035-.446.085-.446.085-.266.587-.432 1.601-.432 1.601-.182-.432-.445-1.316-.445-1.316-.505.271-1.661 1.363-1.661 1.363.637-1.281 1.282-1.865 1.282-1.865-.218-.223-.803-.333-1.23-.358.221-.092.793-.196 1.227-.211a5.24 5.24 0 01.701.009c.388-.306.979-.568 1.185-.598zm.612 6.229c.223-.249.396-.468.595-.745l.005.074c.01.158.017.285.035.431.368-.174.64-.336.959-.561a9.286 9.286 0 01-.922.838c.033.152.056.236.089.354a2.641 2.641 0 01-.525.033c-.374.223-.893.389-1.287.487.233-.146.439-.304.674-.528a2.753 2.753 0 01-.687-.235 3.843 3.843 0 001.064-.148zm-71.09-4.864c0 .301-.023.603-.023.902 0 .221.012.39.023.553.046.007.285.007.439.007.482 0 1.15-.133 1.15-.755 0-.607-.685-.716-1.203-.716-.066 0-.32 0-.386.009zm.82-.637c.99 0 2.188.277 2.188 1.344 0 .935-.85 1.4-2.569 1.4-.104 0-.382 0-.462-.008.034.639.029 1.412.069 1.847h-1.5c.061-.629.076-1.665.076-2.405 0-.659-.015-1.744-.076-2.178h2.274zm-6.069 0c-.025.309-.036.622-.036.945v2.184c0 .594.189.943.777.943.507 0 1.006-.202 1.006-1.136v-2.225c0-.465-.01-.516-.039-.711h1.262c-.05.4-.05 1.147-.05 1.89v1.302c0 1.052-.738 1.51-2.199 1.51-1.324 0-2.135-.281-2.135-1.581v-1.674c0-.431-.019-1.122-.067-1.447h1.481zm11.139.468c-.66 0-1.073.647-1.073 1.831 0 1.18.413 1.814 1.073 1.814.656 0 1.06-.634 1.06-1.814 0-1.184-.404-1.831-1.06-1.831zm0 4.246c-1.424 0-2.49-.982-2.49-2.415 0-1.448 1.066-2.419 2.49-2.419 1.417 0 2.483.971 2.483 2.419 0 1.433-1.066 2.415-2.483 2.415zm-15.72-4.714c1.003 0 2.197.356 2.197 1.421 0 .568-.422.976-1.086 1.239.137.24 1.247 1.683 1.468 1.923h-1.635a27.969 27.969 0 00-1.388-2.314c.658.088 1.224-.225 1.224-.857 0-.608-.696-.784-1.032-.784-.158 0-.44 0-.548.009a46.635 46.635 0 00-.032 1.541c0 .395 0 1.713.078 2.405h-1.524c.074-.678.092-1.488.092-2.405 0-.773-.013-1.71-.079-2.178h2.265zm-3.186 2.357a87.943 87.943 0 00-.067 1.949c-.492.249-1.266.396-2.01.396-1.697 0-2.785-1.069-2.785-2.388 0-1.387 1.139-2.434 2.996-2.434.425 0 1.061.068 1.509.176l-.329.907c-.316-.201-.842-.357-1.197-.357-1.068 0-1.451.95-1.451 1.718 0 1.281.688 1.701 1.46 1.701a3.2 3.2 0 00.482-.035c0-.555-.008-1.259-.049-1.633h1.441zm71.879-2.476c.586 0 1.154.084 1.511.196v1.165c-.501-.288-.993-.538-1.643-.538-.515 0-.553.208-.553.362 0 .772 2.604.783 2.604 2.171 0 .898-.841 1.466-2.239 1.466a4.938 4.938 0 01-1.628-.275v-1.113c.958.453 1.467.6 1.909.6.356 0 .619-.163.619-.472 0-.876-2.595-.792-2.595-2.278 0-.814.815-1.284 2.015-1.284zm-4.507 3.004c-.179-.444-.425-.994-.544-1.379-.125.393-.4.993-.534 1.379.169.007.397.016.552.016.214 0 .32-.009.526-.016zm.126-2.885c.168.542 1.679 3.844 2.027 4.584h-1.502c-.058-.18-.179-.427-.398-1.005-.229-.009-.465-.009-.779-.009-.306 0-.529.009-.772.018-.137.377-.256.676-.366.996h-1.302c.25-.568 1.756-3.852 2.022-4.584h1.07zm-5.958.58c-.225 0-.443.014-.553.033-.026.595-.034.884-.034 1.566 0 .825 0 1.129.034 1.786h.662c.779 0 1.152-.233 1.152-.706 0-.528-.482-.776-1.12-.776h-.38l.261-.692h.279c.324 0 .754-.169.754-.583 0-.444-.397-.628-1.055-.628zm.693-.58c.845 0 1.772.309 1.772 1.089 0 .422-.366.81-.908.996.724.264 1.137.682 1.137 1.223 0 .956-1.156 1.276-2.24 1.276h-2.483c.059-.594.077-1.454.077-2.405 0-.627-.01-1.585-.071-2.179h2.716zm-3.705 0a48.563 48.563 0 00-.059 2.186c0 .407 0 1.768.059 2.398h-1.508c.077-.694.083-2.01.083-2.398 0-.433-.024-1.665-.056-2.186h1.481zm-4.679 0c.999 0 2.195.358 2.195 1.423 0 .568-.423.974-1.085 1.238.135.24 1.245 1.683 1.466 1.923h-1.635a29.565 29.565 0 00-1.382-2.314c.652.087 1.223-.225 1.223-.857 0-.607-.697-.782-1.036-.782-.153 0-.443 0-.545.007a43.958 43.958 0 00-.032 1.541c0 .395 0 1.711.073 2.405h-1.521c.074-.676.09-1.489.09-2.405 0-.772-.008-1.709-.073-2.179h2.262zm-4.958 2.885c-.181-.444-.428-.994-.544-1.379-.128.393-.397.993-.536 1.379.171.007.4.016.553.016.21 0 .323-.009.527-.016zm.124-2.885c.171.542 1.679 3.844 2.027 4.584h-1.498c-.06-.18-.179-.427-.4-1.005-.228-.009-.467-.009-.78-.009-.305 0-.526.009-.774.018-.134.377-.251.676-.362.996h-1.305c.254-.568 1.754-3.852 2.027-4.584h1.065zm-5.676.638c0 .302-.016.604-.016.903 0 .219.006.388.016.552.051.008.288.008.441.008.483 0 1.154-.133 1.154-.756 0-.606-.687-.714-1.206-.714-.065 0-.319 0-.389.007zm.821-.638c.995 0 2.19.278 2.19 1.345 0 .936-.849 1.4-2.57 1.4-.1 0-.38 0-.457-.006.032.637.025 1.409.067 1.845h-1.5c.06-.63.075-1.665.075-2.405 0-.659-.015-1.744-.075-2.179h2.27zm-7.739.638c0 .302-.015.604-.015.903 0 .219.008.388.015.552.052.008.289.008.442.008.483 0 1.152-.133 1.152-.756 0-.606-.688-.714-1.204-.714-.067 0-.322 0-.39.007zm.822-.638c.993 0 2.19.278 2.19 1.345 0 .936-.849 1.4-2.57 1.4-.104 0-.381 0-.457-.006.032.637.025 1.409.067 1.845h-1.502c.062-.63.077-1.665.077-2.405 0-.659-.015-1.744-.077-2.179h2.272zm-3.331 0a39.761 39.761 0 00-.068 2.179c0 .414.009 1.775.068 2.405h-1.076l-1.729-2.557c-.146-.206-.248-.405-.287-.629v1.452c0 .554.016 1.339.066 1.734h-1.231c.077-.694.084-2.01.084-2.405 0-.433-.023-1.658-.057-2.179h1.398l1.46 2.383c.074.116.103.175.136.278v-2.661h1.236zm-7.731.58c-.223 0-.442.014-.552.033-.024.595-.034.884-.034 1.566 0 .825 0 1.129.034 1.786h.663c.78 0 1.149-.233 1.149-.706 0-.528-.481-.776-1.116-.776h-.382l.265-.692h.276c.321 0 .755-.169.755-.583 0-.444-.399-.628-1.058-.628zm.694-.58c.848 0 1.774.309 1.774 1.089 0 .422-.365.81-.91.996.723.264 1.138.682 1.138 1.223 0 .956-1.154 1.276-2.239 1.276h-2.485c.062-.594.078-1.454.078-2.405 0-.627-.007-1.585-.069-2.179h2.713zm-19.58-14.666a3.008 3.008 0 01-3.003-3.012v-39.075a3.008 3.008 0 013.003-3.012 3.006 3.006 0 013.002 3.012v39.075a3.006 3.006 0 01-3.002 3.012zm83.433-19.141c-.017-6.701-5.456-12.163-12.139-12.163-3.645 0-6.91 1.627-9.138 4.186-2.226-2.559-5.492-4.186-9.137-4.186-6.688 0-12.131 5.462-12.139 12.171l-.001 16.12a3.007 3.007 0 003.003 3.012 3.007 3.007 0 003.002-3.012v-16.109c0-3.393 2.754-6.159 6.135-6.159 3.384 0 6.136 2.766 6.136 6.159l.001 16.109a3.006 3.006 0 003.001 3.012 3.007 3.007 0 003.003-3.012v-16.114c.001-3.391 2.753-6.154 6.134-6.154 3.382 0 6.135 2.77 6.135 6.163l.001 16.105a3.007 3.007 0 003.002 3.012 3.007 3.007 0 003.003-3.012l-.002-16.128zm-124.064 13.118c-3.382 0-5.828-2.761-5.828-6.154v-13.051h6.233a2.74 2.74 0 002.737-2.745 2.741 2.741 0 00-2.737-2.746h-6.233v-6.714a3.007 3.007 0 00-3.002-3.012 3.007 3.007 0 00-3.002 3.012v25.256c0 6.715 5.138 12.178 11.832 12.178a3.008 3.008 0 003.003-3.012 3.007 3.007 0 00-3.003-3.012zm53.693-12.33c.762-4.492 4.927-7.685 9.4-7.685 4.764 0 8.421 4.055 9.101 7.685h-18.501zm24.189 1.42c0-8.596-7.647-14.371-14.789-14.371-8.571 0-15.544 6.995-15.544 15.593 0 8.956 6.808 15.71 15.834 15.71 4.786 0 8.365-1.724 10.056-2.742.803-.472 1.47-1.434 1.47-2.517a2.71 2.71 0 00-2.742-2.691c-.473 0-1.06.18-1.527.414-1.851 1.031-4.346 2.154-7.257 2.154-4.649 0-8.731-2.817-9.686-7.479h20.418c2.007 0 3.767-1.902 3.767-4.071zm-117.533-1.42c.761-4.492 4.926-7.685 9.399-7.685 4.765 0 8.422 4.055 9.101 7.685h-18.5zm24.188 1.42c0-8.596-7.647-14.371-14.789-14.371-8.57 0-15.543 6.995-15.543 15.593 0 8.956 6.807 15.71 15.833 15.71 4.786 0 8.365-1.724 10.056-2.742.803-.472 1.47-1.434 1.47-2.517a2.71 2.71 0 00-2.741-2.691c-.474 0-1.062.18-1.528.414-1.851 1.031-4.347 2.154-7.257 2.154-4.649 0-8.731-2.817-9.685-7.479h20.418c2.006 0 3.766-1.902 3.766-4.071zm25.461-1.42c.762-4.492 4.927-7.685 9.4-7.685 4.764 0 8.421 4.055 9.101 7.685h-18.501zm24.189 1.42c0-8.596-7.647-14.371-14.789-14.371-8.571 0-15.544 6.995-15.544 15.593 0 8.956 6.807 15.71 15.834 15.71 4.786 0 8.364-1.724 10.055-2.742.804-.472 1.471-1.434 1.471-2.517a2.71 2.71 0 00-2.742-2.691c-.474 0-1.06.18-1.527.414-1.851 1.031-4.347 2.154-7.257 2.154-4.649 0-8.732-2.817-9.685-7.479h20.417c2.006 0 3.767-1.902 3.767-4.071z" fill="#fff"/><mask id="mask0_2505_1922" style="mask-type:alpha" maskUnits="userSpaceOnUse" x="164" y="118" width="28" height="33"><path d="M164 118.797h27.477V150.1H164v-31.303z" fill="#fff"/></mask><g mask="url(#mask0_2505_1922)"><path fill-rule="evenodd" clip-rule="evenodd" d="M179.577 150.1a15.495 15.495 0 01-11.02-4.577c-6.077-6.103-6.077-16.036 0-22.14a15.442 15.442 0 0111.019-4.586 15.45 15.45 0 0111.021 4.586 3.025 3.025 0 01-.001 4.265 2.991 2.991 0 01-4.245 0 9.496 9.496 0 00-6.775-2.818 9.49 9.49 0 00-6.773 2.818c-3.736 3.752-3.736 9.859 0 13.61 3.736 3.751 9.813 3.751 13.548 0a2.992 2.992 0 014.246 0 3.025 3.025 0 01-.001 4.265 15.494 15.494 0 01-11.019 4.577z" fill="#fff"/></g><path fill-rule="evenodd" clip-rule="evenodd" d="M189.288 160.242h-20.696a2.74 2.74 0 01-2.737-2.745 2.74 2.74 0 012.737-2.745h20.696a2.74 2.74 0 012.737 2.745 2.74 2.74 0 01-2.737 2.745z" fill="#fff"/></g><defs><clipPath id="clip0_2505_1922"><path fill="#fff" transform="translate(164 105)" d="M0 0h200v67.198H0z"/></clipPath></defs></svg>