<svg width="528" height="278" fill="none" xmlns="http://www.w3.org/2000/svg"><path fill="#B8E5DD" d="M0 0h528v278H0z"/><path d="M190.136 147.65l-1.386-.462c-.924-.36-.924-.411-.77-1.387.359-2.516 1.694-4.57 3.286-6.47 1.335-1.54 2.721-3.081 4.056-4.621.309-.359.617-.77.873-1.181.565-.924.822-1.797.411-2.876-.616-1.745-.565-3.645-.462-5.442 0-.257.051-.565.051-.925-.308.257-.41.514-.513.771-.924 2.207-1.797 4.467-1.9 6.932 0 .102 0 .256-.154.308-.205.051-.257-.103-.257-.257-.051-.308-.154-.616-.257-1.027-.359.411-.616.77-.924 1.078-.102.103-.154.308-.308.154-.411-.256-.719-.565-.873-1.078-.102-.411.052-.77.411-1.027.411-.308.719-.668 1.181-.924.822-.411 1.181-1.079 1.335-2.003.308-1.797.514-3.646 1.232-5.391 1.079-2.722 2.516-5.238 4.108-7.703a7.252 7.252 0 001.233-4.57c-.052-.667-.308-.873-.976-.667-.154.051-.359.154-.513.205-.873.411-1.746.462-2.568-.102-.719-.463-1.438-.36-2.105.154l-1.233 1.078c-1.386 1.181-2.926 1.489-4.672.719-.924-.411-1.9-.565-2.927-.257-.154.051-.359.103-.514.257-.102.102-.154.359-.359.205-.154-.103-.103-.308-.051-.462.154-.513.462-.924.77-1.284 1.027-1.283 2.311-2.156 4.056-2.208.976-.051 1.798-.616 2.465-1.335.616-.667 1.232-1.335 2.157-1.591.821-.206 1.592-.257 2.362.102 1.232.565 2.413.565 3.594-.051.103-.051.206-.103.36-.154 1.232-.36 1.591-.154 2.002 1.129.154.411.308.822.616 1.181.668.925.668 1.9.36 2.927-.154.514-.616.822-.976 1.13-.205.154-.411.359-.411.668.052 1.694-.256 3.388.257 5.032 1.335 4.672 4.262 7.805 9.089 8.934.821.206 1.643.103 2.516.154.154 0 .411-.102.462.154.051.257-.205.308-.411.36a6.947 6.947 0 01-.513.154c.154.308.513.411.719.616.205.154.513.257.41.616a.986.986 0 01-.77.565 1.035 1.035 0 01-.924-.308c-1.027-.976-2.311-1.387-3.646-1.541-1.797-.256-3.286-1.129-4.673-2.31a11.557 11.557 0 01-2.259-2.67c-.051.256-.103.41-.154.564-.257 4.211.616 8.114 2.876 11.759a34.932 34.932 0 006.11 7.343c.513.462 1.078.873 1.592 1.386.205.206.359.206.513-.051.462-.667 1.181-.924 1.9-1.181.514-.205.616.051.616.462-.102.924-.616 1.643-1.129 2.362-.925 1.233-2.054 2.26-3.287 3.235-.308.257-.616.411-1.078.154-3.8-1.746-6.932-4.364-9.397-7.702-.102-.154-.256-.308-.41-.514-.771 1.181-1.9 1.849-2.927 2.619-1.387 1.079-2.362 2.465-3.287 3.954-.205.308-.154.462.206.616.257.103.513.308.77.462.154.103.36.103.36.308 0 .206-.257.257-.411.309-.565.154-1.079.359-1.643.513-.103.051-.206 0-.257.103h-3.03zm24.853-6.521a4.457 4.457 0 00-1.335.821c-.411.36-.462.616.051.924.154.103.308.514.514.206a6.66 6.66 0 00.975-1.643c0-.103.052-.308-.205-.308zm-21.566 5.956c.513-.154.975-.308 1.489-.462-1.13-.77-1.233-.77-1.489.462zm42.474 15.428c-.617 0-1.284 0-1.9.051-.462.051-.668-.103-.719-.514-.103-.718-.514-.975-1.233-.924-.821.051-1.591 0-2.413-.051-.462-.052-.719.154-.77.565-.103.667-.462 1.027-1.232.873-.309-.052-.617 0-.925 0-.616 0-.719-.103-.462-.668.411-1.027.873-2.054 1.284-3.03.667-1.489 1.335-2.926 1.951-4.415.154-.36.36-.514.77-.514 1.9-.103 1.952-.154 2.67 1.54.925 2.106 1.798 4.262 2.773 6.368.052.102.052.256.206.308v.411zm-4.93-3.543c.154 0 .308.051.514.051.308 0 .462-.103.359-.462-.154-.565-.359-1.079-.513-1.643-.052-.154-.154-.257-.308-.257-.155 0-.257.154-.309.257-.154.359-.256.667-.41 1.027-.36.975-.36.975.667 1.027zm-42.105 8.831c.41-1.078.975-1.9 1.848-2.465 1.746-1.129 4.313-.924 5.854.463.257.256.205.41 0 .616l-.924.924c-.257.257-.463.154-.719 0-.77-.513-1.592-.565-2.516-.257-1.284.462-1.489 2.26-1.13 3.287.411 1.181 1.592 1.694 2.773 1.283.308-.102.667-.205.873-.411.462-.41.77-.256 1.078.206.051.103.154.154.205.257.822.975.771 1.027-.359 1.643-1.643.924-4.313.77-5.751-.462-1.027-.873-1.489-2.003-1.489-3.338v-.873c-.411.668-.822 1.232-1.541 1.489-.359.103-.102.308 0 .411a67.34 67.34 0 001.746 2.259c.103.154.308.257.257.462-.103.206-.308.103-.513.154h-.514c-1.848 0-1.848 0-2.927-1.591l-.616-.925c-.205-.359-.565-.41-.924-.308-.308.103-.206.411-.206.616 0 .565.052 1.13.052 1.644 0 .359-.103.564-.514.513a7.77 7.77 0 00-1.54 0c-.462 0-.616-.205-.565-.616.154-2.003-.103-4.057.103-6.059.051-.462 0-.924-.052-1.387 0-.41.103-.667.617-.667 1.437.051 2.824 0 4.261.051 1.746 0 2.773 1.079 3.133 3.081zm-5.341-.154c.052 1.078.052 1.078 1.13 1.027.205 0 .411 0 .616-.051.719-.052.976-.308.976-.925 0-.718-.257-1.027-.924-1.129-.257-.052-.514-.052-.719-.052-1.079.103-1.079.103-1.079 1.13zm33.993-10.015c-.514.616-1.027 1.284-1.541 1.9-.513.668-.667.668-1.232 0-.513-.616-.924-1.335-1.592-1.951v4.364c0 .411-.102.565-.565.565-1.797.052-1.797.052-1.797-1.694 0-2.157 0-4.313-.051-6.47 0-.411.154-.616.565-.514.256.052.565.103.77 0 .77-.205 1.284.103 1.694.771l1.233 1.694c.257.308.411.308.667 0 .514-.719 1.079-1.386 1.592-2.105.154-.206.308-.36.616-.308a8.302 8.302 0 001.592 0c.36 0 .514.102.462.513-.154 2.311.103 4.622-.051 6.932-.103 1.233 0 1.233-1.232 1.181h-.36c-.565.052-.719-.205-.719-.77.052-1.386 0-2.721 0-4.108h-.051zm-24.288.617v3.543c0 .719 0 .771-.719.771h-1.283c-.463.051-.565-.206-.565-.565.051-2.003.051-4.005.103-6.008 0-.513-.052-1.078-.052-1.592 0-.359.154-.513.514-.462h.102c1.079-.205 1.849.257 2.465 1.181.77 1.13 1.643 2.157 2.567 3.389v-1.746c0-.719 0-1.489-.051-2.208 0-.462.154-.667.616-.667.514.051.976 0 1.489.051.36 0 .514.154.463.565-.257 2.259.102 4.519-.052 6.778-.103 1.284-.103 1.284-1.438 1.438-.513.051-.821-.154-1.129-.565a105.09 105.09 0 00-2.876-3.8c0-.154-.102-.154-.154-.103zm32.914 10.733v-3.749c0-.462.154-.616.617-.616 1.437.052 2.824 0 4.261.052 1.284.051 2.311.718 2.773 1.951.36.975.257 2.002-.513 2.824-.154.154-.308.359-.514.411-.616.205-.616.513-.205.975a63.975 63.975 0 011.54 1.952c.103.154.308.256.206.462-.103.205-.308.102-.514.102-.565 0-1.129 0-1.746.052-.308 0-.513-.103-.718-.36l-1.541-2.156c-.257-.36-.565-.411-.924-.308-.36.102-.206.462-.206.667 0 .565 0 1.13.052 1.643 0 .308-.103.514-.462.462-.514 0-.976-.051-1.489 0-.514 0-.719-.154-.719-.718.102-1.182.102-2.414.102-3.646zm3.646-.308h.616c.719-.052 1.027-.308 1.027-.925 0-.667-.308-1.078-1.027-1.129-.256 0-.513-.052-.719 0-.821.051-1.181-.154-.924.975.051.154.051.308 0 .411-.103.514.154.719.616.668h.411zm-29.32-10.785c.103-2.978 1.849-4.518 4.724-4.57 2.979-.051 4.519 2.003 4.519 4.519 0 3.184-1.9 4.724-4.416 4.724-2.927.051-4.827-1.643-4.827-4.673zm2.362 0c0 1.438.976 2.465 2.311 2.465 1.181 0 2.105-1.027 2.105-2.465 0-1.386-.873-2.464-2.105-2.464-1.386.051-2.259.975-2.311 2.464zm-22.387 0c.051-2.978 1.848-4.467 4.672-4.57 2.722-.051 4.57 1.798 4.57 4.519 0 3.132-1.9 4.724-4.467 4.724-2.876.051-4.827-1.643-4.775-4.673zm6.777.052c0-1.438-.821-2.465-2.053-2.465-1.387 0-2.362.924-2.362 2.413 0 1.387.975 2.465 2.31 2.516 1.233 0 2.105-1.027 2.105-2.464zm-23.158.206v-3.697c0-.462.154-.616.617-.616a54.51 54.51 0 005.802 0c.411 0 .616.154.565.565 0 .154-.052.308-.052.513-.051 1.13-.051 1.13-1.181 1.13-.924 0-1.848 0-2.772-.051-.462 0-.514.256-.514.616 0 .359 0 .667.514.667 1.027-.051 2.054-.051 3.081-.102.462 0 .718.154.667.616v.102c.051 1.336.051 1.284-1.232 1.284-.822 0-1.695.052-2.516 0-.565-.051-.462.411-.462.719-.052.36 0 .565.462.565 1.181-.051 2.362 0 3.491-.051.514 0 .719.154.719.718-.051 1.644.052 1.387-1.335 1.387-1.746.051-3.44.051-5.135.103-.667 0-.821-.155-.77-.822.103-1.232 0-2.465.051-3.646zm36.817 9.397v2.362c.051 1.027.462 1.643 1.232 1.746 1.079.205 1.952-.411 1.952-1.541.051-1.489.102-3.029 0-4.57-.052-.924.051-.975.975-.872.308.051.616 0 .925 0 .462-.052.667.154.667.564 0 1.695.051 3.389-.051 5.084-.154 2.311-1.695 3.594-4.005 3.543-1.592-.051-2.927-.462-3.646-2.003a4.612 4.612 0 01-.462-1.643v-5.083c0-.36.102-.514.513-.514.462 0 .924.052 1.438 0 .411 0 .565.154.565.565-.103.822-.052 1.592-.103 2.362.051 0 .051 0 0 0zm20.026-2.928c.719-.154 1.232.154 1.592 1.027.924 2.362 2.002 4.621 2.978 6.932.308.668.205.822-.565.77-.103 0-.205-.051-.308 0-.976.206-1.643 0-1.849-1.129-.051-.257-.256-.257-.462-.308-1.027 0-2.105 0-3.132-.052-.359 0-.411.257-.513.514-.309.924-.206 1.027-1.336.924-.256 0-.513 0-.77.051-.667.052-.77-.102-.513-.719.462-1.129.975-2.207 1.438-3.337.564-1.232 1.181-2.465 1.643-3.749.256-.667.616-.975 1.283-.872.103-.052.206-.052.514-.052zm-.206 5.186h.565c.257 0 .36-.154.308-.41a21.99 21.99 0 00-.564-1.695c-.052-.154-.103-.257-.309-.257-.154 0-.256.154-.308.257-.154.36-.256.668-.41 1.027-.309.976-.463 1.078.718 1.078z" fill="#000"/><path d="M174.741 158.042c0 2.106 1.746 3.03 3.697 1.952.77-.462.77-.462 1.335.256.873 1.027.822 1.079-.359 1.746-1.336.77-4.211.822-5.7-.513-1.438-1.233-1.951-3.595-.976-5.7 1.284-2.721 5.135-3.44 7.394-1.335.257.205.206.411 0 .616-.308.308-.616.616-.924.976-.257.257-.411.103-.667-.051-.514-.36-1.13-.565-1.746-.463-1.438.206-2.054 1.027-2.054 2.516zm-2.105 15.819c-2.773.052-4.57-1.181-4.93-3.543-.565-3.491 1.797-6.11 5.34-5.699.925.102 1.643.564 2.362 1.078.308.257.308.462.052.719l-.103.103c-.565.718-1.078 1.181-2.105.513-.77-.513-2.106-.154-2.619.513-.719.873-.77 1.9-.359 2.927.308.873 1.078 1.335 2.002 1.335.616 0 1.232-.256 1.695-.616.41-.308.667-.205.924.154.154.206.308.36.462.565.565.668.565.668-.103 1.181-.873.616-1.9.77-2.618.77zm35.533-4.88v-3.749c0-.462.154-.616.616-.564a4.98 4.98 0 001.232 0c.36 0 .514.154.514.513 0 1.849 0 3.697-.052 5.546 0 .462.103.667.616.616.873-.051 1.746.051 2.568-.103.462-.051.719.052.667.565-.051.308 0 .668 0 .976.052.513-.205.667-.667.616-1.643-.154-3.286 0-4.93 0-.41 0-.616-.103-.616-.565.052-1.335.052-2.619.052-3.851zm-31.323.001v-3.8c0-.411.103-.616.514-.565.513.051.975.051 1.489 0 .462-.051.564.206.564.565 0 1.284.052 2.619 0 3.902-.051 1.284.052 2.516-.051 3.8-.051.411-.154.514-.513.462h-.514c-1.438-.051-1.438-.051-1.489-1.489v-2.875zm45.7-10.939v-3.799c0-.308.051-.463.411-.463.462 0 .924 0 1.438-.051.41-.051.564.103.564.565v3.954c0 1.232-.051 2.516 0 3.748 0 .514-.205.719-.667.616-.154 0-.308-.051-.411-.051-1.181-.051-1.181-.051-1.232-1.232-.103-1.13-.103-2.208-.103-3.287zm3.081-7.188c-.308.616-.719 1.079-1.13 1.592-.103.154-.308.205-.513.154-.36 0-.719-.051-1.13-.051-.308 0-.411-.103-.257-.411.257-.462.36-1.027.719-1.386.206-.052 1.951 0 2.311.102zm32.53 19.757c-1.212 0-2.298-1.114-2.298-3.747 0-1.616.515-3.79 2.284-3.79 1.004 0 1.965 1.156 2.021 1.212a.3.3 0 00.223.098.286.286 0 00.292-.293v-2.131a.3.3 0 00-.153-.265c-.864-.544-1.463-.864-2.703-.864-1.435 0-4.138.92-4.138 6.019 0 4.277 1.993 5.991 4.124 5.991 1.156 0 2.006-.404 2.731-.92a.312.312 0 00.139-.237v-2.048a.285.285 0 00-.292-.292c-.404 0-.892 1.267-2.23 1.267zm13.863-5.114c-.293 0-1.115.083-1.115.766 0 .627.669.724 1.031.808 2.884.696 2.647 2.577 2.647 3.344 0 .78-.557 2.424-3.162 2.424-1.365 0-2.383-.613-2.383-.613a.296.296 0 01-.153-.251v-1.728c0-.195.251-.445.516-.195 0 0 .529.655 1.825.85.683.098 1.379-.167 1.379-.71 0-.474-.223-.822-.947-.92-.571-.07-2.731-.139-2.731-2.8 0-2.452 2.146-2.828 3.107-2.828 1.087 0 1.923.417 2.104.515.125.07.195.153.195.279v1.532c0 .279-.279.349-.474.251-.209-.125-.78-.724-1.839-.724zm3.372-.113c0 .167.125.292.292.292h.516v4.542c0 2.383 1.49 2.619 2.257 2.619.473 0 .836-.083 1.309-.181.126-.028.209-.153.209-.278v-1.296a.298.298 0 00-.376-.279c-.139.028-.599.168-1.045-.014-.362-.139-.404-.627-.404-.849v-4.278h1.533a.3.3 0 00.292-.278v-1.324a.294.294 0 00-.292-.292h-1.519v-2.689a.294.294 0 00-.293-.293l-1.407.167c-.139.014-.25.14-.264.279v2.522h-.516c-.167.014-.292.139-.292.292v1.338zm34.231 5.225h-3.107c-.028 0-.279-.014-.293-.279v-9.181c0-.195-.139-.362-.32-.334l-1.449.167c-.181.014-.307.139-.307.306v11.257c0 .168.126.307.293.307h5.197a.321.321 0 00.334-.334v-1.561c0-.237-.084-.348-.348-.348zm18.822-9.419a.27.27 0 00-.279-.279h-1.922a.288.288 0 00-.279.209l-1.602 5.461c-.028.07-.07.126-.153.126-.084 0-.126-.056-.154-.126l-1.602-5.461a.297.297 0 00-.278-.209h-1.923a.283.283 0 00-.293.279v11.341c0 .167.14.32.307.32h1.323c.223 0 .349-.125.349-.334v-7.44l1.435 4.848c.042.112.097.167.237.167h1.156c.139 0 .237-.041.265-.167l1.435-4.848v7.481a.27.27 0 00.278.279h1.394c.167 0 .292-.125.292-.306l.014-11.341zm-26.443 6.59a.286.286 0 00-.293-.293h-2.41c-.167 0-.292.098-.292.293v1.658c0 .167.097.278.306.278h2.41c.181 0 .293-.111.293-.292-.014 0-.014-1.644-.014-1.644zm-15.883 5.057c.181 0 .293-.126.293-.279v-11.466c0-.167-.125-.321-.293-.293l-1.365.153c-.195.028-.293.14-.293.293v11.285c0 .181.126.307.293.307h1.365zm3.232 0c.182 0 .293-.126.293-.279v-11.466c0-.167-.125-.321-.293-.293l-1.365.153c-.195.028-.292.14-.292.293v11.285c0 .181.125.307.292.307h1.365zm-6.45-10.06a.3.3 0 00.292-.278v-1.408c0-.167-.125-.306-.292-.292l-1.365.153c-.168.014-.293.139-.293.293v1.226c0 .167.125.306.293.306h1.365zm-1.658 9.755c0 .195.125.306.293.306h1.379c.181 0 .292-.111.292-.292l-.014-8.471c0-.167-.111-.293-.278-.293h-1.379c-.195 0-.293.126-.293.293v8.457zm-15.632-5.559c.237-.028.265-.237.265-.32 0-.822-.85-1.003-1.602-1.003-.822 0-1.449.515-1.686.515a.294.294 0 01-.293-.292v-1.408c0-.25.098-.32.237-.362.181-.056 1.115-.348 2.146-.348 3.106 0 3.106 1.964 3.106 2.995v5.601a.3.3 0 01-.278.279l-1.17.069c-.056 0-.474.042-.53-.487 0-.07-.348.641-1.978.641-.697 0-2.062-.627-2.062-2.703.014-2.926 2.326-3.024 3.845-3.177zm.265 1.909a.283.283 0 00-.321-.279c-.014 0-.641.07-1.212.265a.855.855 0 00-.446.376c-.195.334-.181.836-.125 1.087.056.251.32.683.989.627.195-.014 1.115-.265 1.115-.725v-1.351zm28.686-1.909c.223-.028.265-.237.265-.32 0-.822-.85-1.003-1.602-1.003-.822 0-1.463.515-1.686.515a.294.294 0 01-.293-.292v-1.408c0-.25.098-.32.237-.362.181-.056 1.115-.348 2.146-.348 3.107 0 3.107 1.964 3.107 2.995v5.601a.3.3 0 01-.279.279l-1.17.069c-.056 0-.474.042-.53-.487 0-.07-.348.641-1.978.641-.697 0-2.062-.627-2.062-2.703.014-2.926 2.327-3.024 3.845-3.177zm.265 1.909a.283.283 0 00-.321-.279c-.013 0-.64.07-1.212.265a.85.85 0 00-.445.376c-.196.334-.182.836-.126 1.087.056.251.321.683.989.627.195-.014 1.115-.265 1.115-.725v-1.351zm19.839-1.909c.223-.028.265-.237.265-.32 0-.822-.85-1.003-1.588-1.003-.822 0-1.463.515-1.686.515a.294.294 0 01-.293-.292v-1.408c0-.25.098-.32.237-.362.181-.056 1.115-.348 2.146-.348 3.107 0 3.107 1.964 3.107 2.995v5.601a.3.3 0 01-.279.279l-1.17.069c-.056 0-.474.042-.53-.487 0-.07-.348.641-1.978.641-.697 0-2.062-.627-2.062-2.703 0-2.926 2.313-3.024 3.831-3.177zm.265 1.909c0-.167-.153-.307-.32-.279-.014 0-.641.07-1.226.265a.852.852 0 00-.446.376c-.195.334-.181.836-.126 1.087.056.251.321.683.99.627.195-.014 1.1-.265 1.1-.725l.028-1.351zm18.446-1.909c.237-.028.265-.237.265-.32 0-.822-.85-1.003-1.588-1.003-.822 0-1.449.515-1.686.515a.294.294 0 01-.293-.292v-1.408c0-.25.098-.32.237-.362.181-.056 1.115-.348 2.146-.348 3.106 0 3.106 1.964 3.106 2.995v5.601a.3.3 0 01-.278.279l-1.17.069c-.056 0-.488.042-.53-.487 0-.07-.348.641-1.978.641-.697 0-2.062-.627-2.062-2.703 0-2.926 2.313-3.024 3.831-3.177zm.265 1.909a.283.283 0 00-.321-.279c-.014 0-.64.07-1.226.265a.85.85 0 00-.445.376c-.196.334-.182.836-.126 1.087.056.251.321.683.989.627.195-.014 1.115-.265 1.115-.725v-1.351h.014zm28.171-1.909c.223-.028.264-.237.264-.32 0-.822-.85-1.003-1.588-1.003-.822 0-1.449.515-1.686.515a.294.294 0 01-.292-.292v-1.408c0-.25.097-.32.237-.362.181-.056 1.114-.348 2.145-.348 3.121 0 3.107 1.964 3.107 2.995v5.601a.3.3 0 01-.279.279l-1.17.069c-.056 0-.474.042-.529-.487 0-.07-.349.641-1.979.641-.696 0-2.062-.627-2.062-2.703 0-2.926 2.327-3.024 3.832-3.177zm.278 1.909c0-.167-.153-.307-.32-.279-.014 0-.641.07-1.226.265a.855.855 0 00-.446.376c-.195.334-.181.836-.125 1.087.055.251.32.683.989.627.195-.014 1.1-.265 1.1-.725l.028-1.351zm-11.243 3.873c-.084-.084-.084-.154-.084-.195v-11.244s-.013-.097.07-.181c.098-.097.251-.097.251-.097s1.24-.14 1.351-.14c0 0 .098-.014.195.07.084.07.084.167.084.167v3.72c.446-.78 1.073-1.184 1.978-1.184 1.477 0 2.188.808 2.188 2.619v6.27c0 .111 0 .167-.084.236a.405.405 0 01-.223.084h-1.393s-.125 0-.209-.084c-.07-.083-.07-.139-.07-.195v-5.182c0-.92-.292-1.282-1.003-1.282-.808 0-1.184.501-1.184 1.518v4.988c0 .042 0 .098-.084.167-.069.07-.181.07-.181.07h-1.379c-.028-.042-.139-.042-.223-.125zm-13.96-.003c-.084-.084-.084-.181-.084-.181v-8.499s-.013-.097.07-.181c.098-.098.251-.098.251-.098s1.24-.139 1.351-.139c0 0 .098-.014.195.07a.234.234 0 01.084.167v.947c.446-.78 1.073-1.184 1.978-1.184 1.477 0 2.188.808 2.188 2.619v6.312c0 .028 0 .125-.084.181a.409.409 0 01-.223.083h-1.393s-.125 0-.209-.083c-.07-.084-.07-.153-.07-.195v-5.183c0-.92-.292-1.282-1.003-1.282-.808 0-1.184.502-1.184 1.519v4.918c0 .097 0 .153-.084.223-.069.069-.181.069-.181.069h-1.407s-.111 0-.195-.083zm10.672-9.04c-1.101 0-3.539.641-3.539 4.598 0 4.096 2.675 4.527 3.595 4.527 1.142 0 1.895-.571 1.909-.571.125-.083.153-.181.153-.446v-1.476c0-.391-.321-.391-.544-.126-.195.223-.473.655-1.462.655-.53 0-1.644-.251-1.644-2.536 0-2.326 1.086-2.619 1.616-2.619.919 0 1.393.599 1.532.808.14.209.502.07.502-.153v-1.7c.014-.529-.906-.961-2.118-.961zm-27.404-41.852H297.53c-1.31 0-2.369 1.045-2.369 2.299v22.25c0 2.856 1.547 5.141 4.445 6.604 2.326 1.156 5.517 1.769 9.237 1.769 3.72 0 6.91-.613 9.237-1.769 2.911-1.449 4.444-3.734 4.444-6.604v-22.236c0-1.268-1.059-2.313-2.368-2.313zm-13.765 19.38a.627.627 0 01-.586.627h-2.521v-2.271a1.183 1.183 0 10-2.369 0v2.257h-2.521a.635.635 0 01-.572-.627v-.111l.572-6.256v-1.825h1.797v1.783h1.017v-3.566h1.797v3.566h1.003v-1.783h1.797v1.797l.586 6.284v.125zm14.419 4.389c0 7.216-10.56 7.384-10.574 7.37-1.157.041-1.087-1.268-1.087-1.268v-26.833c0-.725.502-1.31 1.143-1.31h9.362c.585 0 1.087.501 1.156 1.142v20.899zm-3.455-36.015c-.961 0-1.825.362-2.494.933a3.96 3.96 0 00-2.898-1.226 4.05 4.05 0 00-3.106 1.449 4.063 4.063 0 00-3.121-1.449c-1.143 0-2.174.46-2.912 1.226a3.72 3.72 0 00-2.48-.933 3.74 3.74 0 00-3.748 3.748c0 .849.307 1.63.78 2.271.237.32.544.557.948.571.557.014 1.226-.571.891-1.296-.111-.223-.626-.766-.599-1.532.028-.976.753-1.77 1.728-1.77.613 0 1.198.335 1.519.808-.07.307-.126.627-.126.962 0 .863.279 1.518.279 1.518.195.502.543.864 1.1.85.641 0 1.143-.488 1.143-1.142 0-.182-.112-.502-.153-.613a1.64 1.64 0 01-.126-.641c0-.976.794-1.756 1.756-1.756.961 0 1.769.794 1.769 1.756v1.379c0 .752.613 1.351 1.352 1.365.752 0 1.351-.613 1.351-1.351l.014-1.379c0-.976.78-1.756 1.755-1.756.976 0 1.77.78 1.77 1.756 0 .223-.042.431-.126.64a3.364 3.364 0 00-.153.613c-.014.641.488 1.129 1.143 1.143.543 0 .905-.362 1.1-.85 0 0 .279-.655.279-1.519 0-.334-.042-.654-.126-.961a1.88 1.88 0 011.519-.808c.975 0 1.728.808 1.742 1.769 0 .767-.502 1.31-.6 1.533-.348.724.321 1.296.878 1.296.418-.014.725-.237.948-.572a3.714 3.714 0 00.794-2.27c-.028-2.076-1.714-3.762-3.79-3.762zm-4.765 9.279c0 .683.544 1.24 1.24 1.24.683 0 1.24-.557 1.24-1.24 0-.682-.557-1.24-1.24-1.24-.682 0-1.24.558-1.24 1.24zm-9.947 0c0 .683.557 1.24 1.24 1.24.682 0 1.24-.557 1.24-1.24 0-.682-.558-1.24-1.24-1.24-.683 0-1.24.558-1.24 1.24zm14.907 0c0 .683.558 1.24 1.24 1.24.683 0 1.24-.557 1.24-1.24 0-.682-.557-1.24-1.24-1.24-.682 0-1.24.558-1.24 1.24zm-9.947.002c0 .683.557 1.24 1.24 1.24.682 0 1.24-.557 1.24-1.24 0-.682-.558-1.24-1.24-1.24-.683 0-1.24.558-1.24 1.24zm-9.948 0c0 .683.557 1.24 1.24 1.24.683 0 1.24-.557 1.24-1.24 0-.682-.557-1.24-1.24-1.24-.697 0-1.24.558-1.24 1.24zm12.873-13.21H309.4v-1.129a.56.56 0 00-.557-.557.56.56 0 00-.558.557v1.129h-1.114a.57.57 0 00-.571.557.57.57 0 00.571.557h1.114v1.115c0 .306.251.571.558.571a.571.571 0 00.557-.571V106.8h1.128c.307 0 .558-.25.558-.557a.56.56 0 00-.558-.557z" fill="#000"/></svg>