<svg width="528" height="278" fill="none" xmlns="http://www.w3.org/2000/svg"><path fill="#000" d="M0 0h528v278H0z"/><path d="M195.356 105c2.339 0 4.557.963 5.989 2.525l-1.57 1.546c-.955-1.052-2.663-1.845-4.419-1.845-3.342 0-5.941 2.662-5.941 6.199 0 3.699 2.663 6.2 6.152 6.2 2.201 0 3.787-1.214 4.702-2.315l1.659 1.497c-1.408 1.789-3.836 3.027-6.361 3.027-4.889 0-8.491-3.577-8.491-8.417 0-4.726 3.554-8.417 8.28-8.417zm20.881 12.391h-6.895l-1.708 4.209h-2.436l6.782-16.365h1.635l6.782 16.365h-2.436l-1.724-4.209zm-5.965-2.226h5.051l-2.525-6.078-2.526 6.078zm17.021-5.584V121.6h-2.339v-16.373h1.643l9.817 12.026v-12.026h2.339V121.6h-1.634l-9.826-12.019zm27.057 7.81h-6.896l-1.708 4.209h-2.428l6.783-16.365h1.634l6.783 16.365h-2.436l-1.732-4.209zm-5.965-2.226h5.05l-2.525-6.078-2.525 6.078zm17.028 4.209h7.244v2.226h-9.583v-16.373h2.339v14.147z" fill="#47C8FF"/><path d="M186 137.965h156.674v2.339H186v-2.339zm74.007 31.572h-1.635l-4.791-7.51v11.015h-2.339v-16.365h1.635l6.312 9.979 6.313-9.979h1.635v16.365h-2.331v-11.015l-4.799 7.51zm22.734-.704h-6.895l-1.708 4.209h-2.428l6.782-16.365h1.635l6.783 16.365h-2.437l-1.732-4.209zm-5.964-2.217h5.05l-2.525-6.079-2.525 6.079zm17.02-1.287v7.713h-2.339v-16.365h5.73c1.498 0 2.428.348 3.181.955a4.328 4.328 0 011.611 3.367 4.33 4.33 0 01-1.611 3.367c-.518.421-1.101.72-1.918.866l5.868 7.81h-2.833l-5.819-7.713h-1.87zm3.278-2.226c1.052 0 1.586-.235 1.967-.607a2.13 2.13 0 00.607-1.497 2.13 2.13 0 00-.607-1.497c-.373-.373-.915-.608-1.967-.608h-3.278v4.209h3.278zm18.21-6.661c2.339 0 4.557.963 5.99 2.525l-1.571 1.546c-.955-1.052-2.662-1.845-4.419-1.845-3.342 0-5.94 2.663-5.94 6.199 0 3.699 2.663 6.2 6.151 6.2 2.201 0 3.788-1.214 4.702-2.315l1.659 1.498c-1.4 1.804-3.836 3.043-6.361 3.043-4.889 0-8.49-3.578-8.49-8.417.008-4.743 3.561-8.434 8.279-8.434zm22.945 8.887h-9.121v7.713h-2.339v-16.365h2.339v6.426h9.121v-6.426h2.331v16.365h-2.331v-7.713z" fill="#fff"/></svg>