<svg width="528" height="278" viewBox="0 0 528 278" fill="none" xmlns="http://www.w3.org/2000/svg">
<rect width="528" height="278" fill="#F54943"/>
<g clip-path="url(#clip0_2501_1873)">
<path d="M168.434 181.815C168.005 181.72 167.528 181.625 167.099 181.482C165.335 180.862 164.095 179.241 164 177.381C164 177.143 164 176.905 164 176.666C164 159.122 164 141.529 164 123.985C164 120.743 165.144 117.977 167.433 115.641C172.534 110.54 177.635 105.391 182.784 100.337C185.025 98.0965 187.743 97 190.937 97C194.37 97 197.755 97 201.187 97C215.49 97 229.793 97 244.048 97C246.813 97 248.815 99.0024 248.815 101.768C248.815 119.455 248.815 137.191 248.815 154.878C248.815 157.977 247.671 160.695 245.478 162.936C240.424 167.989 235.371 173.043 230.317 178.144C228.124 180.337 225.454 181.577 222.355 181.672C222.26 181.672 222.165 181.72 222.069 181.768C204.143 181.815 186.312 181.815 168.434 181.815ZM196.229 164.795C196.467 164.604 196.563 164.461 196.658 164.366C202.093 158.931 207.576 153.448 213.011 148.013C215.776 145.248 218.541 142.483 221.306 139.718C221.592 139.432 221.64 139.288 221.306 139.002C213.058 130.755 204.811 122.507 196.515 114.306C196.42 114.211 196.324 114.116 196.181 113.973C196.229 130.945 196.229 147.822 196.229 164.795Z" fill="white"/>
<path d="M364 161.314C360.663 161.314 357.325 161.314 353.988 161.314C353.797 161.314 353.607 161.314 353.416 161.314C353.416 161.123 353.416 160.932 353.416 160.789C353.416 153.495 353.416 146.201 353.416 138.906C353.416 137.714 353.273 136.57 352.701 135.521C351.7 133.662 350.079 132.804 348.029 132.708C345.406 132.613 343.309 133.709 341.402 135.378C340.734 135.95 340.496 136.522 340.496 137.38C340.543 145.152 340.496 152.923 340.496 160.694C340.496 160.885 340.496 161.075 340.496 161.266C340.305 161.266 340.162 161.266 340.019 161.266C336.777 161.266 333.583 161.266 330.341 161.266C329.959 161.266 329.816 161.171 329.816 160.742C329.816 153.352 329.816 145.914 329.816 138.525C329.816 137.19 329.53 135.95 328.767 134.901C327.719 133.423 326.241 132.756 324.429 132.661C322.045 132.565 319.995 133.519 318.231 134.997C317.611 135.521 317.039 136.141 316.515 136.713C316.372 136.904 316.229 137.19 316.229 137.428C316.229 145.152 316.229 152.875 316.229 160.599C316.229 160.789 316.229 160.932 316.229 161.171C312.653 161.171 309.125 161.171 305.549 161.171C305.549 148.918 305.549 136.713 305.549 124.46C308.696 124.46 311.795 124.46 314.989 124.46C314.989 125.843 314.989 127.178 314.989 128.608C315.561 128.084 316.086 127.559 316.61 127.083C320.663 123.793 325.239 122.696 330.341 123.745C333.44 124.413 335.919 125.986 337.778 128.56C337.826 128.608 337.826 128.656 337.874 128.703C337.874 128.703 337.874 128.703 337.921 128.751C338.446 128.322 338.97 127.845 339.495 127.369C341.783 125.509 344.357 124.174 347.266 123.65C350.984 122.982 354.56 123.364 357.802 125.366C360.472 127.035 362.141 129.466 362.999 132.422C363.38 133.614 363.523 134.854 363.762 136.093C363.762 136.189 363.809 136.284 363.857 136.427C364 144.818 364 153.066 364 161.314Z" fill="white"/>
<path d="M299.209 135.284C297.921 134.664 296.729 133.997 295.49 133.52C292.248 132.233 288.911 131.518 285.43 131.708C284.429 131.756 283.476 131.947 282.617 132.424C281.044 133.329 280.806 135.046 282.093 136.333C282.951 137.191 284.095 137.668 285.24 138.049C287.242 138.717 289.244 139.289 291.247 139.909C293.583 140.624 295.871 141.482 297.874 142.96C300.591 144.915 301.974 147.584 302.021 150.922C302.021 153.019 301.64 154.974 300.496 156.786C299.256 158.693 297.54 159.885 295.49 160.743C293.392 161.649 291.151 162.126 288.863 162.269C286.908 162.364 284.953 162.459 283.046 162.364C278.899 162.173 274.894 161.267 271.175 159.313C270.794 159.122 270.651 158.884 270.651 158.455C270.651 155.88 270.651 153.306 270.651 150.683C270.651 150.54 270.651 150.397 270.651 150.207C270.794 150.254 270.889 150.302 270.937 150.35C273.607 152.018 276.563 152.972 279.614 153.592C281.902 154.021 284.191 154.211 286.527 154.021C287.528 153.925 288.577 153.83 289.53 153.401C291.294 152.638 291.628 150.874 290.198 149.587C289.435 148.872 288.529 148.443 287.528 148.109C285.287 147.346 282.999 146.679 280.758 145.916C278.517 145.153 276.276 144.295 274.369 142.865C271.366 140.671 270.126 137.716 270.365 134.092C270.508 131.661 271.27 129.515 272.987 127.751C274.369 126.273 276.086 125.32 277.993 124.7C280.615 123.794 283.332 123.508 286.098 123.556C290.532 123.603 294.775 124.605 298.827 126.464C299.209 126.655 299.352 126.845 299.352 127.275C299.304 129.849 299.352 132.424 299.352 134.998C299.209 134.998 299.209 135.141 299.209 135.284Z" fill="white"/>
</g>
<defs>
<clipPath id="clip0_2501_1873">
<rect width="200" height="84.8153" fill="white" transform="translate(164 97)"/>
</clipPath>
</defs>
</svg>
