<svg width="528" height="278" fill="none" xmlns="http://www.w3.org/2000/svg"><path fill="#F54943" d="M0 0h528v278H0z"/><g clip-path="url(#clip0_2501_1873)" fill="#fff"><path d="M168.434 181.815c-.429-.095-.906-.19-1.335-.333-1.764-.62-3.004-2.241-3.099-4.101v-53.396c0-3.242 1.144-6.008 3.433-8.344 5.101-5.101 10.202-10.25 15.351-15.304 2.241-2.24 4.959-3.337 8.153-3.337h53.111c2.765 0 4.767 2.002 4.767 4.768v53.11c0 3.099-1.144 5.817-3.337 8.058a4535.84 4535.84 0 00-15.161 15.208c-2.193 2.193-4.863 3.433-7.962 3.528-.095 0-.19.048-.286.096-17.926.047-35.757.047-53.635.047zm27.795-17.02c.238-.191.334-.334.429-.429l16.353-16.353 8.295-8.295c.286-.286.334-.43 0-.716-8.248-8.247-16.495-16.495-24.791-24.696l-.334-.333c.048 16.972.048 33.849.048 50.822zM364 161.314h-10.584v-22.408c0-1.192-.143-2.336-.715-3.385-1.001-1.859-2.622-2.717-4.672-2.813-2.623-.095-4.72 1.001-6.627 2.67-.668.572-.906 1.144-.906 2.002.047 7.772 0 15.543 0 23.314v.572h-10.155c-.382 0-.525-.095-.525-.524v-22.217c0-1.335-.286-2.575-1.049-3.624-1.048-1.478-2.526-2.145-4.338-2.24-2.384-.096-4.434.858-6.198 2.336-.62.524-1.192 1.144-1.716 1.716-.143.191-.286.477-.286.715v23.743h-10.68V124.46h9.44v4.148c.572-.524 1.097-1.049 1.621-1.525 4.053-3.29 8.629-4.387 13.731-3.338 3.099.668 5.578 2.241 7.437 4.815.048.048.048.096.096.143l.047.048c.525-.429 1.049-.906 1.574-1.382 2.288-1.86 4.862-3.195 7.771-3.719 3.718-.668 7.294-.286 10.536 1.716 2.67 1.669 4.339 4.1 5.197 7.056.381 1.192.524 2.432.763 3.671 0 .096.047.191.095.334.143 8.391.143 16.639.143 24.887zm-64.791-26.03c-1.288-.62-2.48-1.287-3.719-1.764-3.242-1.287-6.579-2.002-10.06-1.812-1.001.048-1.954.239-2.813.716-1.573.905-1.811 2.622-.524 3.909.858.858 2.002 1.335 3.147 1.716 2.002.668 4.004 1.24 6.007 1.86 2.336.715 4.624 1.573 6.627 3.051 2.717 1.955 4.1 4.624 4.147 7.962 0 2.097-.381 4.052-1.525 5.864-1.24 1.907-2.956 3.099-5.006 3.957-2.098.906-4.339 1.383-6.627 1.526-1.955.095-3.91.19-5.817.095-4.147-.191-8.152-1.097-11.871-3.051-.381-.191-.524-.429-.524-.858v-8.248c.143.047.238.095.286.143 2.67 1.668 5.626 2.622 8.677 3.242 2.288.429 4.577.619 6.913.429 1.001-.096 2.05-.191 3.003-.62 1.764-.763 2.098-2.527.668-3.814-.763-.715-1.669-1.144-2.67-1.478-2.241-.763-4.529-1.43-6.77-2.193-2.241-.763-4.482-1.621-6.389-3.051-3.003-2.194-4.243-5.149-4.004-8.773.143-2.431.905-4.577 2.622-6.341 1.382-1.478 3.099-2.431 5.006-3.051 2.622-.906 5.339-1.192 8.105-1.144 4.434.047 8.677 1.049 12.729 2.908.382.191.525.381.525.811-.048 2.574 0 5.149 0 7.723-.143 0-.143.143-.143.286z"/></g><defs><clipPath id="clip0_2501_1873"><path fill="#fff" transform="translate(164 97)" d="M0 0h200v84.815H0z"/></clipPath></defs></svg>