<svg width="200" height="200" fill="none" xmlns="http://www.w3.org/2000/svg"><path fill="#fff" d="M0 0h200v200H0z"/><g clip-path="url(#clip0)" fill="#000"><path d="M89.514 104.964c0-1.96-.784-3.136-3.038-3.136h-1.96l-.098.098v6.174l.098.098h1.96c2.254-.098 3.038-1.274 3.038-3.234zm-1.274 0c0 1.47-.49 2.058-1.764 2.058h-.784l-.098-.098v-4.018l.098-.098h.784c1.372 0 1.764.686 1.764 2.156zm7.546 3.038v-.882l-.098-.098H92.65l-.098-.098v-1.47l.098-.098h2.842l.098-.098v-.882l-.098-.098H92.65l-.098-.098v-1.274l.098-.098h3.038l.098-.098v-.882l-.098-.098h-4.214l-.098.098v6.174l.098.098 4.312-.098zm10.094-1.568c0-.784-.392-1.372-1.078-1.568v-.098c.588-.196.882-.686.882-1.372 0-1.176-.882-1.666-1.764-1.666h-2.94l-.098.098v6.174l.098.098h3.038c.882 0 1.862-.49 1.862-1.666zm-1.47-2.842c0 .392-.196.686-.686.686h-1.47l-.098-.098v-1.274l.098-.098h1.47c.49 0 .686.294.686.784zm.196 2.646c0 .588-.294.784-.882.784h-1.47l-.098-.098v-1.47l.098-.098h1.47c.588 0 .882.294.882.882zm7.938 1.764v-.882l-2.058-5.292-.098-.098h-1.176l-.098.098-2.058 5.292v.882l.098.098h.784l.098-.098.49-1.176.196-.098h2.254l.196.098.49 1.176.098.098.784-.098zm-1.96-2.45l-1.666.098-.098-.098.784-2.156h.098l.882 2.156zm8.82-1.862c0-1.274-.882-1.862-2.156-1.862h-2.94l-.098.098v6.174l.098.098h1.078l.098-.098v-2.352l.098-.098h.882l.196.098 1.862 2.352h.686l.098-.098v-.882l-1.176-1.568v-.098c.686-.196 1.274-.784 1.274-1.764zm-1.274 0c0 .588-.392.784-.882.784h-1.764l-.098-.098v-1.47l.098-.098h1.764c.49 0 .882.196.882.882zm5.782 3.43c-1.274 0-1.862-.882-1.862-2.156s.588-2.156 1.862-2.156c.686 0 1.176.294 1.372.784l.098.098h1.078l.098-.098c-.196-1.176-1.176-1.862-2.646-1.862-1.96 0-3.038 1.372-3.038 3.234 0 1.862 1.078 3.234 3.038 3.234 1.47 0 2.45-.686 2.646-1.96l-.098-.098h-1.078l-.098.098c-.196.588-.588.882-1.372.882zm8.918.882v-.882l-.098-.098h-3.038l-.098-.098v-1.47l.098-.098h2.842l.098-.098v-.882l-.098-.098h-2.842l-.098-.098v-1.274l.098-.098h3.038l.098-.098v-.882l-.098-.098h-4.312l-.098.098v6.174l.098.098 4.41-.098zm6.272 0v-.882l-.098-.098h-2.842l-.098-.098v-5.096l-.098-.098h-1.078l-.098.098v6.174l.098.098 4.214-.098zm5.88-3.038c0 1.274-.588 2.156-1.862 2.156-1.176 0-1.764-.882-1.764-2.156s.588-2.156 1.764-2.156c1.176 0 1.862.882 1.862 2.156zm1.274 0c0-1.862-1.176-3.234-3.136-3.234-1.862 0-3.038 1.372-3.038 3.234 0 1.862 1.176 3.234 3.038 3.234 1.96 0 3.136-1.372 3.136-3.234zm1.764-3.136v6.174l.098.098h1.078l.098-.098v-4.214h.098l2.45 4.214.196.098h1.274l.098-.098v-6.174l-.098-.098h-1.078l-.098.098v4.214h-.098l-2.45-4.214-.196-.098h-1.274l-.098.098zm12.544 6.174v-.882l-2.058-5.292-.098-.098h-1.176l-.098.098-2.058 5.292v.882l.098.098h.784l.098-.098.49-1.176.196-.098h2.254l.196.098.49 1.176.098.098.784-.098zm-1.96-2.45l-1.666.098-.098-.098.784-2.156h.098l.882 2.156zM89.514 94.38c0-1.96-.784-3.136-3.038-3.136h-1.96l-.098.098v6.174l.098.098h1.96c2.254-.098 3.038-1.274 3.038-3.234zm-1.274 0c0 1.47-.49 2.058-1.764 2.058h-.784l-.098-.098v-4.018l.098-.098h.784c1.372 0 1.764.686 1.764 2.156zm4.41-1.862v-1.274l-.098-.098h-1.274l-.098.098v1.176l.098.098h.294l.098.098v.098l-.588.882v.196h.588l.196-.098.686-.882.098-.294zm6.37 4.9v-.882l-2.058-5.292-.098-.098h-1.176l-.098.098-2.058 5.292v.882l.098.098h.784l.098-.098.49-1.176.196-.098h2.254l.196.098.49 1.176.098.098.784-.098zm-1.862-2.45l-1.666.098-.098-.098.784-2.156h.098l.882 2.156zm8.82-1.862c0-1.274-.882-1.862-2.156-1.862h-3.038l-.098.098v6.174l.098.098h1.078l.098-.098v-2.352l.098-.098h.882l.196.098 1.862 2.352.196.098h.588l.098-.098v-.882l-1.176-1.568v-.098c.588-.294 1.274-.882 1.274-1.862zm-1.274 0c0 .588-.392.784-.882.784h-1.764l-.098-.098v-1.47l.098-.098h1.764c.49 0 .882.196.882.882zm7.644-.98v-.882l-.098-.098h-5.096l-.098.098v.882l.098.098h1.862l.098.098v5.096l.098.098h1.078l.098-.098v-5.096l.098-.098 1.862-.098zm7.252 4.41c-1.274 0-1.764-.882-1.764-2.156s.588-2.156 1.764-2.156c.686 0 1.176.294 1.372.784l.098.098h1.078l.098-.098c-.196-1.176-1.176-1.862-2.646-1.862-1.96 0-3.038 1.372-3.038 3.234 0 1.862 1.078 3.234 3.038 3.234 1.47 0 2.45-.686 2.646-1.96l-.098-.098h-1.078l-.098.098c-.196.588-.686.882-1.372.882zm9.016-2.156c0 1.274-.588 2.156-1.862 2.156-1.176 0-1.862-.882-1.862-2.156s.588-2.156 1.862-2.156c1.176-.098 1.862.882 1.862 2.156zm1.176 0c0-1.862-1.176-3.234-3.136-3.234-1.862 0-3.038 1.372-3.038 3.234 0 1.862 1.176 3.234 3.038 3.234 2.058 0 3.136-1.372 3.136-3.234zm1.862-3.136v6.174l.098.098h1.078l.098-.098v-4.214h.098l2.45 4.214.196.098h1.274l.098-.098v-6.174l-.098-.098h-1.078l-.098.098v4.214h-.098l-2.45-4.214-.196-.098h-1.274l-.098.098zm12.25.882v-.882l-.098-.098h-5.096l-.098.098v.882l.098.098h1.862l.098.098v5.096l.098.098h1.078l.098-.098v-5.096l.098-.098 1.862-.098zm5.978 5.292v-.882l-.098-.098h-2.94l-.098-.098v-1.47l.098-.098h2.842l.098-.098v-.882l-.098-.098h-2.842l-.098-.098V92.42l.098-.098h3.038l.098-.098v-.882l-.098-.098h-4.214l-.098.098v6.174l.098.098 4.214-.196zm8.82 0v-6.174l-.098-.098h-1.372l-.098.098-1.862 4.41h-.098l-1.862-4.41-.098-.098h-1.274l-.098.098v6.174l.098.098h1.078l.098-.098V93.89h.098l1.47 3.528.098.098h.98l.098-.098 1.47-3.528h.098v3.528l.098.098h1.078l.098-.098zm7.448-4.312c0-1.274-.882-1.862-2.156-1.862h-3.038l-.098.098v6.174l.098.098h1.078l.098-.098v-2.352l.098-.098h1.764c1.274-.098 2.156-.686 2.156-1.96zm-1.274 0c0 .588-.392.784-.882.784h-1.764l-.098-.098v-1.47l.098-.098h1.764c.49 0 .882.196.882.882zm7.448 1.274c0 1.274-.588 2.156-1.764 2.156-1.176 0-1.862-.882-1.862-2.156s.588-2.156 1.862-2.156c1.078-.098 1.764.882 1.764 2.156zm1.274 0c0-1.862-1.176-3.234-3.038-3.234-1.862 0-3.136 1.372-3.136 3.234 0 1.862 1.176 3.234 3.136 3.234 1.862 0 3.038-1.372 3.038-3.234zm7.056-1.274c0-1.274-.882-1.862-2.156-1.862h-3.038l-.098.098v6.174l.098.098h1.078l.098-.098v-2.352l.098-.098h.882l.196.098 1.862 2.352.196.098h.588l.098-.098v-.882l-1.176-1.568v-.098c.588-.294 1.274-.882 1.274-1.862zm-1.274 0c0 .588-.392.784-.882.784h-1.764l-.098-.098v-1.47l.098-.098h1.764c.49 0 .882.196.882.882zm8.036 4.312v-.882l-2.058-5.292-.098-.098h-1.176l-.098.098-2.058 5.292v.882l.098.098h.784l.098-.098.49-1.176.196-.098h2.254l.196.098.49 1.176.098.098.784-.098zm-1.862-2.45l-1.666.098-.098-.098.784-2.156h.098l.882 2.156zm3.528-3.724v6.174l.098.098h1.078l.098-.098v-4.214h.098l2.45 4.214.196.098h1.274l.098-.098v-6.174l-.098-.098h-1.078l-.098.098v4.214h-.098l-2.45-4.214-.196-.098-1.372.098zm8.722 6.174v-6.174l-.098-.098h-1.078l-.098.098v6.174l.098.098 1.176-.098zM91.18 86.834V80.66l-.098-.098H89.71l-.098.098-1.862 4.41h-.098l-1.764-4.41-.098-.098h-1.372l-.098.098v6.174l.098.098h1.078l.098-.098v-3.528h.098l1.568 3.528.098.098h.98l.098-.098 1.47-3.528h.098v3.528l.098.098 1.078-.098zm7.252-6.174l-1.176-.098-.098.098v3.822c0 .882-.392 1.47-1.274 1.47s-1.274-.588-1.274-1.47V80.66l-.098-.098h-1.078l-.098.098v3.822c0 1.666.882 2.548 2.548 2.548s2.548-.882 2.548-2.548V80.66zm7.056 4.41c0-1.274-.98-1.764-2.254-1.96-1.274-.196-1.666-.392-1.666-.882 0-.392.294-.588 1.078-.588.98 0 1.274.294 1.274.784l.098.098h1.078l.098-.098c0-1.078-.686-1.862-2.45-1.862-1.764 0-2.45.784-2.45 1.764 0 1.274.98 1.764 2.254 1.862 1.274.196 1.666.392 1.666.98s-.49.784-1.274.784c-1.078 0-1.47-.392-1.47-.98l-.098-.098h-1.078l-.098.098c0 1.176.784 2.058 2.646 2.058 1.96-.098 2.646-.98 2.646-1.96zm6.174 1.764v-.882l-.098-.098h-3.038l-.098-.098v-1.47l.098-.098h2.842l.098-.098v-.882l-.098-.098h-2.842l-.098-.098V81.64l.098-.098h3.038l.098-.098v-.882l-.098-.098h-4.214l-.098.098v6.272l.098.098 4.312-.098zm7.154-6.174l-1.176-.098-.098.098v3.822c0 .882-.392 1.47-1.274 1.47s-1.274-.588-1.274-1.47V80.66l-.098-.098h-1.078l-.098.098v3.822c0 1.666.882 2.548 2.548 2.548s2.548-.882 2.548-2.548V80.66zm-54.194 31.752h4.214l.294-.294-2.254-5.978h-.294l-2.254 5.978.294.294zm5.194 2.94h-6.174l-.49.294-1.274 3.234-.294.196H59.33l-.294-.196v-2.45l5.684-14.308.294-.196h3.234l.294.196 5.488 13.72v-50.96l-.294-.294H2.392l-.196.098v70.07l.196.294h71.344l.294-.294v-15.68h-2.254l-.294-.196-1.274-3.234-.392-.294zM43.65 102.024l.294-.196h7.938c2.45 0 4.9 1.274 4.9 4.41 0 1.764-.784 3.234-2.45 3.724v.196c1.96.49 2.94 1.96 2.94 4.214 0 3.43-2.45 4.704-4.9 4.704h-8.428l-.294-.196v-16.856zm-12.544-4.41l-.294.294h-2.94l-.196-.294V88.01h-.294l-3.92 9.604-.294.294h-2.744l-.294-.294-3.92-9.604h-.294v9.604l-.196.196h-2.94l-.294-.294V80.758l.294-.196h3.724l.294.196 4.9 12.054h.294l4.998-12.054.196-.196h3.724l.294.196-.098 16.856zm17.738 0l-.294.294h-2.254l-.196-.294-1.274-3.234-.49-.196h-6.174l-.49.196-1.274 3.234-.196.294h-2.254l-.294-.294v-2.45l5.684-14.308.294-.196h3.234l.294.196 5.684 14.308v2.45zm9.898.49c-5.488 0-8.428-3.724-8.428-8.918 0-5.194 2.94-8.918 8.428-8.918 3.92 0 6.664 1.96 7.154 5.194l-.196.294h-2.94l-.196-.294c-.49-1.47-1.764-2.254-3.724-2.254-3.43 0-4.9 2.45-4.9 5.978 0 3.528 1.47 5.978 4.9 5.978 1.96 0 3.234-.784 3.724-2.45l.196-.294h2.94l.196.294c-.49 3.43-3.234 5.39-7.154 5.39zm-15.386-6.958l.294-.196-2.254-5.978H41.2l-2.254 5.978.294.196h4.116zm4.018 13.622l-.294.196v3.43l.294.294h4.018c1.47 0 1.96-.98 1.96-1.96 0-1.274-.49-1.96-1.96-1.96h-4.018zm0 6.86l-.294.294v3.92l.294.196h4.018c1.764 0 2.45-.784 2.45-2.254s-.784-2.254-2.45-2.254h-4.018v.098z"/></g><defs><clipPath id="clip0"><path fill="#fff" transform="translate(2 64)" d="M0 0h196v71.54H0z"/></clipPath></defs></svg>