<svg width="200" height="200" fill="none" xmlns="http://www.w3.org/2000/svg"><path fill="#fff" d="M0 0h200v200H0z"/><path d="M150.769 114.06v.139h18.151l.111-.083-.028-.028-.083-.028h-18.151zm42.306-16.767l.194-.138h-29.827l-.111.083.028.028.083.027h29.633z" fill="#000"/><path d="M198 73l-34.531 24.155h-12.7v29.744l18.151-12.7H198V97.155h-4.704L198 93.862V73zm-31.708 33.535c-.139.719.027 2.988.885 3.154.304.055.553 0 .802-.139l.747-.415.139 3.016h-4.787c.166-1.245.249-2.269.332-3.182l.166-2.434c-.968-.139-2.02-.498-2.905-1.19-.775-.637-1.218-1.411-1.273-2.352-.111-1.66 2.075-3.735 4.898-3.735h.83c.304.027.608.055.94.138-.193.415-.442.913-.498 1.771a3.155 3.155 0 00-.913-.139c-2.047 0-2.601 1.384-2.601 1.91 0 1.355 1.328 1.826 2.325 1.909a2.921 2.921 0 002.019-.498c.443-.305.554-.415.775-.913.526.276 1.716.359 2.573.055-.193 1.715-2.518 2.988-4.454 3.044zM4.045 114.609c-1.3 0-2.045-.73-2.045-1.899V97.13h3.159v14.873h8.186v2.606m10.153-14.473l-2.99 8.647h5.88l-2.89-8.647zm4.766 14.473l-1.222-3.444h-7.21l-1.222 3.444h-3.175l5.857-16.134c.33-1.014 1.053-1.53 2.275-1.53 1.146 0 1.899.547 2.23 1.507l5.687 16.157h-3.22zm4.75-8.686c0-5.972 3.55-8.885 8.362-8.885 1.591 0 3.198.346 4.98.869l1.361.4-.468 2.628-1.476-.415c-1.614-.477-2.983-.776-4.182-.776-3.358 0-5.426 1.944-5.426 6.21 0 4.381 2.183 6.403 5.534 6.403 1.107 0 2.075-.123 3.205-.323v-3.951H41.07v-2.329h4.727c1.245 0 2.044.777 2.044 1.899v3.973c0 1.469-.4 2.114-1.745 2.491-1.498.399-3.15.661-4.642.661-4.888 0-8.44-2.821-8.44-8.855zm25.564 8.993c-4.581 0-7.071-2.467-7.071-6.625v-11.16h3.15v11.252c0 2.521 1.315 3.897 3.92 3.897 2.653 0 3.952-1.376 3.952-3.897V97.13h3.143v11.161c0 4.143-2.49 6.625-7.094 6.625zm13.789-.307H69.6V98.983c0-1.338.822-2.022 2.183-2.022 1.13 0 1.79.577 2.26 1.322l7.186 12.052V97.131h2.79v15.626c0 1.314-.838 1.998-2.198 1.998-1.107 0-1.768-.569-2.214-1.322l-7.24-12.044m29.407-1.253l-2.997 8.647h5.88l-2.883-8.647zm4.766 14.473l-1.222-3.444h-7.21l-1.23 3.444h-3.174l5.857-16.134c.322-1.014 1.053-1.53 2.283-1.53 1.145 0 1.898.547 2.221 1.507l5.695 16.157h-3.22zm13.435-15.127h-4.373v6.134h5.172l.8-1.099c.515-.684.991-1.499.991-2.375 0-1.576-.73-2.66-2.59-2.66zm3.121 15.127l-2.936-6.664h-4.558v6.664h-3.121V99.013c0-1.13.753-1.883 1.998-1.883h5.896c3.243 0 5.196 1.714 5.196 4.935 0 1.368-.585 2.536-1.384 3.52l-1.191 1.491 3.435 7.533h-3.335zm13.796-15.181c-3.22 0-5.088 2.329-5.088 6.495 0 4.182 1.983 6.51 5.204 6.51 3.213 0 5.08-2.313 5.08-6.51 0-4.166-1.975-6.495-5.196-6.495zm0 15.373c-4.95 0-8.27-3.221-8.27-8.878 0-5.672 3.436-8.916 8.386-8.916 4.957 0 8.255 3.221 8.255 8.916 0 5.734-3.382 8.878-8.371 8.878z" fill="#000"/></svg>