<svg width="200" height="200" fill="none" xmlns="http://www.w3.org/2000/svg"><path fill="#fff" d="M0 0h200v200H0z"/><g clip-path="url(#clip0)" fill-rule="evenodd" clip-rule="evenodd" fill="#000"><path d="M185.068 101.714c.664-.931 2.327-2.234 4.361-2.234 1.107 0 2.068.372 2.696 1.005.666.671 1.071 1.602 1.071 3.391v9.573H198v-9.201c0-3.092-.665-4.917-1.848-6.333a8.046 8.046 0 00-6.207-2.906 7.892 7.892 0 00-4.877 1.677V87h-4.803v26.449h4.803v-11.735zm-10.714 5.253c-.776 1.192-2.328 2.384-4.286 2.384-2.918 0-4.952-2.086-4.952-4.917 0-2.757 2.07-4.954 4.842-4.954 1.736 0 3.177.893 4.136 2.16l3.4-3.017c-1.663-2.161-4.433-3.614-7.537-3.614-5.468 0-9.644 4.171-9.644 9.425 0 5.215 4.065 9.387 9.607 9.387 3.362 0 6.023-1.229 8.128-4.06l-3.694-2.794zM160.13 95.158c-.518-.074-.925-.15-1.625-.15-2.18 0-4.137.858-5.208 2.199v-1.825h-4.621v18.067h4.803v-11.362c.591-1.08 2.253-2.607 4.36-2.607.701 0 1.404.074 1.737.186l.554-4.508zm-15.518.224h-4.619v1.453c-1.404-1.155-3.213-1.826-5.245-1.826-4.878 0-8.793 4.098-8.793 9.425 0 2.459.886 4.693 2.29 6.332 1.588 1.863 4.101 3.055 6.762 3.055 1.809 0 3.509-.559 4.987-1.825v1.453h4.619l-.001-18.067zm-4.802 11.734c-.925 1.341-2.514 2.235-4.324 2.235-2.697 0-4.728-2.086-4.728-4.917 0-2.608 1.81-4.954 4.617-4.954a5.497 5.497 0 014.435 2.234v5.402zm-41.196 6.333v-11.735c.664-.857 2.142-2.234 4.176-2.234.923 0 1.958.298 2.697 1.117.554.633.886 1.453.886 3.092v9.76h4.803v-9.574c0-.745-.073-1.415-.147-2.012.628-.931 2.254-2.383 4.322-2.383.924 0 1.959.298 2.698 1.117.555.633.886 1.453.886 3.092v9.76h4.803v-9.574c0-2.682-.666-4.545-1.811-5.96-1.441-1.789-3.806-2.906-6.281-2.906-2.66 0-4.914 1.304-6.355 2.831a7.779 7.779 0 00-6.022-2.831c-1.737 0-3.436.559-4.84 1.826v-1.453H93.81v18.067h4.803zM89.684 87h-4.871v26.448h4.871V87zm-8.243 8.381h-4.684v1.453c-1.424-1.155-3.26-1.825-5.321-1.825-4.947 0-8.919 4.097-8.919 9.424 0 2.458.9 4.693 2.324 6.333 1.61 1.862 4.16 3.054 6.857 3.054 1.836 0 3.56-.559 5.058-1.826v1.453h4.684V95.381zm-4.871 11.734c-.938 1.341-2.55 2.235-4.385 2.235-2.735 0-4.797-2.086-4.797-4.917 0-2.607 1.837-4.954 4.685-4.954a5.601 5.601 0 014.497 2.235v5.401zm-29.416 6.333v-11.734c.674-.931 2.36-2.235 4.421-2.235 1.125 0 2.099.373 2.736 1.006.674.671 1.087 1.602 1.087 3.39v9.573h4.87v-9.2c0-3.092-.674-4.917-1.873-6.332-1.499-1.788-3.785-2.906-6.295-2.906-2.024 0-3.748.707-5.134 1.825v-1.453h-4.684v18.066h4.872zm-7.495-18.066h-4.685v1.452c-1.423-1.154-3.26-1.825-5.32-1.825-4.946 0-8.918 4.097-8.918 9.424 0 2.459.9 4.694 2.323 6.333 1.612 1.863 4.16 3.055 6.858 3.055 1.836 0 3.56-.56 5.059-1.826v1.453h4.684V95.382zm-4.87 11.734c-.937 1.341-2.55 2.235-4.385 2.235-2.736 0-4.797-2.086-4.797-4.917 0-2.607 1.837-4.954 4.684-4.954a5.603 5.603 0 014.497 2.234v5.402zm-18.55-.149c-.787 1.192-2.361 2.384-4.347 2.384-2.96 0-5.02-2.086-5.02-4.917 0-2.757 2.099-4.954 4.91-4.954 1.76 0 3.222.894 4.196 2.16l3.447-3.018c-1.687-2.16-4.497-3.613-7.645-3.613-5.545 0-9.78 4.172-9.78 9.425 0 5.215 4.122 9.387 9.743 9.387 3.41 0 6.108-1.229 8.244-4.06l-3.748-2.794z"/></g><defs><clipPath id="clip0"><path fill="#fff" transform="translate(2 87)" d="M0 0h196v26.821H0z"/></clipPath></defs></svg>