<svg width="200" height="200" fill="none" xmlns="http://www.w3.org/2000/svg"><path fill="#fff" d="M0 0h200v200H0z"/><path d="M124.614 114.289c.228.911 1.367 1.823 2.735 1.823 1.823 0 2.507-.912 2.507-1.823 0-.456-.228-.912-.684-1.368-.456-.228-1.139-.684-2.279-1.139-2.051-.912-2.963-1.596-2.963-3.419s1.368-2.963 3.419-2.963c1.595 0 2.735.684 3.19 2.051l-1.367.684c-.456-.684-1.139-1.14-1.823-1.14-1.14 0-1.823.456-1.823 1.368 0 .912.683 1.367 2.507 2.051 2.279.912 3.418 1.823 3.418 3.647 0 1.823-1.367 3.19-4.102 3.19-2.051 0-3.875-.911-4.33-2.735l1.595-.227zm7.749-2.508c0-1.823.456-3.19 1.595-4.33 1.14-1.139 2.507-1.595 4.102-1.595 1.596 0 2.735.456 3.647 1.595.912 1.14 1.367 2.507 1.367 4.103v.683h-9.116c0 2.507 1.595 4.103 4.102 4.103 1.596 0 2.507-.456 3.419-1.596l1.14 1.14c-1.14 1.367-2.735 2.051-4.559 2.051-1.595 0-2.962-.456-4.102-1.595-1.139-1.368-1.595-2.735-1.595-4.559zm9.116-1.139c0-.912-.228-1.595-.912-2.279-.683-.684-1.595-.912-2.507-.912-1.139 0-1.823.228-2.734.912-.684.684-1.14 1.367-1.14 2.279h7.293zm3.875 8.661c1.367.911 2.962 1.595 4.558 1.595 1.139 0 2.051-.228 2.735-.912.683-.683 1.139-1.823 1.139-3.418v-.912c-.684 1.14-2.051 2.051-4.102 2.051-1.596 0-2.963-.456-4.103-1.595-1.139-1.14-1.595-2.507-1.595-4.33 0-1.596.456-3.191 1.595-4.103 1.14-1.139 2.507-1.595 4.103-1.595 2.051 0 3.418.912 4.102 2.051v-1.595h1.595v9.344c0 1.367-.227 2.735-.455 3.419-.228.911-.684 1.595-1.368 2.279-.911.683-2.279 1.139-3.874 1.139-2.051 0-3.875-.684-5.242-1.823l.912-1.595zm7.293-4.559c.911-.911 1.139-1.823 1.139-3.19 0-1.14-.456-2.279-1.139-3.191-.684-.912-1.824-1.367-2.963-1.367-1.14 0-2.051.455-2.963 1.139-.684.912-1.14 1.823-1.14 3.191 0 1.139.456 2.279 1.14 3.191.684.911 1.823 1.139 2.963 1.139 1.367.228 2.279 0 2.963-.912zm4.558-8.66h1.595v6.837c0 1.823 1.139 3.191 2.735 3.191 1.823 0 2.963-1.368 3.191-3.191v-6.837h1.595v8.66c0 .912.228 1.368.912 1.368h.683v1.367c-.228 0-.683.228-1.139.228-.684 0-1.14-.228-1.368-.456-.228-.227-.456-.683-.456-1.139-.683 1.139-1.823 1.595-3.646 1.595-2.507 0-4.102-1.595-4.102-4.33v-7.293zm11.851 11.395v-11.395h1.595v1.823c.684-1.367 1.823-2.051 3.419-2.051h.683v1.823h-1.139c-1.823 0-2.963 1.368-2.963 3.191v6.609h-1.595zm5.925-5.697c0-1.596.684-3.191 1.824-4.331 1.139-1.139 2.507-1.823 4.33-1.823 1.595 0 3.191.684 4.33 1.823 1.14 1.14 1.823 2.507 1.823 4.331 0 1.595-.683 3.19-1.823 4.33-1.139 1.139-2.507 1.595-4.33 1.595-1.595 0-3.191-.684-4.33-1.823-1.368-.912-1.824-2.507-1.824-4.102zm1.596 0c0 1.367.456 2.279 1.139 3.19.912.912 1.824 1.368 3.191 1.368 1.367 0 2.279-.456 3.191-1.14.911-.911 1.139-1.823 1.139-3.191 0-1.367-.456-2.279-1.139-3.19-.912-.912-1.824-1.368-3.191-1.368-1.367 0-2.279.456-3.191 1.368-.683.683-1.139 1.595-1.139 2.963zm12.307 2.734c.228.912 1.367 1.824 2.735 1.824 1.823 0 2.507-.912 2.507-1.824 0-.455-.228-.911-.684-1.367-.456-.228-1.14-.684-2.279-1.14-2.051-.911-2.963-1.595-2.963-3.418 0-1.823 1.367-2.963 3.419-2.963 1.595 0 2.734.684 3.19 2.051l-1.367.684c-.456-.684-1.14-1.14-1.823-1.14-1.14 0-1.824.456-1.824 1.368 0 .911.684 1.367 2.507 2.051 2.279.912 3.419 1.823 3.419 3.647 0 1.823-1.368 3.19-4.102 3.19-2.052 0-3.875-.911-4.331-2.735l1.596-.228zM20.005 77.14H16.13v8.66c-.683-1.594-2.507-2.734-5.242-2.734-2.279 0-4.33.912-5.925 2.507-1.596 1.595-2.28 3.646-2.28 6.153 0 2.507.684 4.559 2.28 6.154 1.595 1.595 3.646 2.507 5.925 2.507 2.735 0 4.559-.912 5.698-2.507.228.912.684 1.595 1.367 2.051.684.456 1.368.456 2.28.456l-.228-23.247zm-5.242 18.233c-.912.912-2.28 1.367-3.647 1.367s-2.507-.455-3.418-1.367c-.912-.912-1.368-2.28-1.368-3.647s.456-2.734 1.368-3.646c.911-.912 2.05-1.367 3.418-1.367 1.368 0 2.735.455 3.647 1.367.911.912 1.367 2.279 1.367 3.646 0 1.368-.456 2.735-1.367 3.647zm9.572-13.903c1.367 0 2.279-.912 2.279-2.28 0-1.367-1.14-2.278-2.28-2.278-1.367 0-2.278.911-2.278 2.279-.228 1.367.911 2.279 2.279 2.279zm2.051 2.279h-3.874v12.535c0 2.735 1.367 4.102 3.874 4.102V83.749zm19.372-2.051c1.367 0 2.28-.912 2.28-2.28 0-1.367-1.14-2.278-2.28-2.278-1.367 0-2.279.911-2.279 2.279 0 1.14.912 2.05 2.28 2.279zm1.595 2.051H43.48v12.535c0 2.735 1.367 4.102 3.874 4.102h.228l-.228-16.637zm11.396-.456c-2.28 0-3.875 1.368-4.786 2.963v-2.279h-3.875v16.637h3.875v-9.572c0-2.279 1.595-3.874 3.646-3.874 2.28 0 3.419 1.367 3.419 3.646v5.47c0 2.963 1.367 4.33 3.874 4.33v-10.94c0-3.874-2.507-6.38-6.153-6.38zm25.297.457h-3.874v2.278c-.684-1.595-2.507-2.735-5.242-2.735-2.279 0-4.33.912-5.925 2.507-1.596 1.596-2.28 3.647-2.28 6.154s.684 4.558 2.28 6.153c1.595 1.596 3.646 2.507 5.925 2.507 2.735 0 4.558-.911 5.698-2.507.228.912.684 1.596 1.367 2.051.456.456 1.368.456 2.28.456l-.229-16.865zM79.033 95.6c-.912.912-2.28 1.368-3.647 1.368s-2.507-.456-3.419-1.368c-.911-.911-1.367-2.279-1.367-3.646 0-1.368.456-2.735 1.367-3.647.912-.911 2.052-1.367 3.42-1.367 1.367 0 2.506.456 3.646 1.367.911.912 1.367 2.28 1.367 3.647s-.456 2.507-1.367 3.646zM42.567 81.47h-1.823c-1.367 0-2.279 1.14-2.735 2.051-.456.912-3.646 11.168-3.646 11.168s-1.368-3.191-1.824-4.103c-.455-.911-1.595-1.595-2.962-1.595h-1.824l5.242 11.167h3.419l6.153-18.688zm134.466 2.051c-2.28 0-4.103 1.14-5.014 2.735v-2.507h-3.875v13.447c.228 2.05 1.596 3.19 3.875 3.19v-9.344c.227-2.507 1.823-3.874 4.558-3.874.683 0 1.139 0 1.595.227v-3.874h-1.139zm-32.363.228v-6.382h-3.875v6.382h-2.051v3.646h2.051v9.117c0 2.734 1.368 4.102 3.875 4.102h.228V87.395h3.646V83.75h-3.874zm-25.298 2.279c-.684-1.595-2.507-2.735-5.242-2.735-2.279 0-4.33.912-5.925 2.507-1.596 1.596-2.279 3.647-2.279 6.154s.683 4.558 2.279 6.153c1.595 1.596 3.646 2.507 5.925 2.507 2.735 0 4.558-.911 5.698-2.507.228.912.684 1.596 1.367 2.051.684.456 1.368.456 2.279.456V83.749h-4.102v2.28zm-1.139 9.572c-.912.912-2.28 1.368-3.647 1.368s-2.507-.456-3.419-1.368c-.911-.911-1.367-2.279-1.367-3.646 0-1.368.456-2.735 1.367-3.647.912-.911 2.052-1.367 3.419-1.367s2.735.456 3.647 1.367c.911.912 1.367 2.28 1.367 3.647.228 1.367-.456 2.735-1.367 3.646zm73.841-11.623v2.507c-.683-1.595-2.507-2.735-5.241-2.735-2.279 0-4.331.912-5.926 2.507-1.595 1.595-2.279 3.647-2.279 6.153 0 2.507.684 4.559 2.279 6.154 1.595 1.595 3.647 2.507 5.926 2.507 2.734 0 4.558-.912 5.697-2.507.228.912.684 1.595 1.368 2.051.683.456 1.367.456 2.279.456V84.205l-4.103-.228zm-1.139 11.851c-.912.912-2.279 1.367-3.647 1.367-1.367 0-2.507-.455-3.418-1.367-.912-.912-1.368-2.279-1.368-3.646 0-1.368.456-2.735 1.368-3.647.911-.912 2.051-1.367 3.418-1.367 1.368 0 2.735.455 3.647 1.367.912.912 1.367 2.28 1.367 3.647.228 1.367-.455 2.734-1.367 3.646zm-33.502-12.535c-2.507 0-4.559.912-6.382 2.507-1.595 1.596-2.507 3.875-2.507 6.154 0 2.507.912 4.558 2.507 6.153 1.823 1.596 3.875 2.507 6.382 2.507 2.507 0 4.558-.911 6.381-2.507 1.823-1.595 2.735-3.874 2.735-6.153 0-2.507-.912-4.558-2.507-6.154-1.823-1.595-3.875-2.507-6.609-2.507zm3.646 12.535c-.912.912-2.279 1.368-3.646 1.368-1.368 0-2.735-.456-3.647-1.596-.912-.911-1.367-2.279-1.367-3.646 0-1.368.455-2.735 1.367-3.647.912-.911 2.279-1.595 3.647-1.595 1.367 0 2.734.456 3.646 1.595.912.912 1.368 2.28 1.368 3.647.227 1.595-.228 2.735-1.368 3.874zm-27.121-5.242c-.684-.228-1.595-.456-2.051-.683-.456-.228-1.14-.456-1.368-.684-.455-.228-.683-.684-.683-1.14 0-.911.683-1.367 2.051-1.367 1.367 0 2.507.456 3.191 1.367l2.279-2.279c-1.14-1.595-2.963-2.507-5.242-2.507-1.596 0-2.963.456-4.102 1.368-1.14.911-1.596 2.05-1.596 3.646 0 2.28 1.368 3.647 4.102 4.558.456.228 1.596.456 2.052.684.455.228 1.139.456 1.595.684.456.228.912.684.912 1.367 0 .912-.912 1.824-2.963 1.824-1.14 0-2.051-.228-2.735-.684-1.595-.684-2.507-.456-3.419.228l-.683.683c1.139 1.824 3.418 3.191 6.609 3.191 4.558 0 6.837-2.279 6.837-5.242-.456-2.507-1.823-3.874-4.786-5.014zM87.01 95.6v10.484h.683-.684V95.6z" fill="#000"/><path d="M102.051 85.572c-1.595-1.595-3.646-2.507-5.925-2.507-2.735 0-4.787 1.14-5.242 2.735v-2.507h-3.875v22.791h.684c2.051-.228 3.19-1.368 3.419-3.647v-5.014c.683 1.596 2.507 2.735 5.242 2.735 2.278 0 4.33-.911 5.925-2.507 1.595-1.595 2.507-3.646 2.507-6.153-.456-2.28-1.14-4.33-2.735-5.926zm-2.963 9.8c-.911.912-2.05 1.368-3.418 1.368-1.368 0-2.507-.456-3.647-1.368-.911-.912-1.367-2.279-1.367-3.646 0-1.368.456-2.735 1.367-3.647.912-.911 2.28-1.367 3.647-1.367s2.507.456 3.418 1.367c.912.912 1.368 2.28 1.368 3.647s-.456 2.734-1.368 3.646z" fill="#000"/></svg>