<svg width="200" height="200" fill="none" xmlns="http://www.w3.org/2000/svg"><path fill="#fff" d="M0 0h200v200H0z"/><path d="M27.613 108.777l-1.358-.453c-.906-.352-.906-.403-.755-1.359.352-2.466 1.66-4.478 3.22-6.34 1.309-1.51 2.668-3.02 3.976-4.53.302-.352.604-.754.855-1.157.554-.905.806-1.76.403-2.818-.604-1.71-.553-3.572-.453-5.334 0-.251.05-.553.05-.905-.302.251-.402.503-.503.754-.906 2.164-1.761 4.378-1.862 6.794 0 .1 0 .251-.15.302-.202.05-.252-.101-.252-.252-.05-.302-.151-.604-.252-1.006-.352.402-.604.754-.906 1.056-.1.101-.15.302-.302.151-.402-.251-.704-.553-.855-1.056-.1-.403.05-.755.403-1.007.402-.302.704-.654 1.157-.906.805-.402 1.157-1.056 1.308-1.962.302-1.761.503-3.573 1.208-5.284 1.057-2.667 2.466-5.133 4.026-7.548a7.109 7.109 0 001.207-4.479c-.05-.654-.301-.855-.956-.654-.15.05-.352.151-.503.201-.855.403-1.71.453-2.516-.1-.704-.453-1.409-.352-2.063.15l-1.208 1.058c-1.358 1.157-2.868 1.459-4.58.704-.905-.403-1.86-.553-2.867-.252-.151.05-.353.101-.504.252-.1.1-.15.352-.352.201-.15-.1-.1-.302-.05-.453.15-.503.453-.905.755-1.258 1.006-1.258 2.264-2.113 3.975-2.163.956-.05 1.761-.604 2.416-1.309.603-.654 1.207-1.308 2.113-1.56.805-.201 1.56-.251 2.315.1 1.207.554 2.365.554 3.522-.05.1-.05.202-.1.352-.15 1.208-.353 1.56-.151 1.963 1.107.15.402.302.805.604 1.157.654.906.654 1.862.352 2.868-.15.504-.604.806-.956 1.107-.201.151-.403.353-.403.655.05 1.66-.251 3.32.252 4.931 1.308 4.58 4.177 7.649 8.907 8.756.805.201 1.61.1 2.466.151.15 0 .402-.1.453.15.05.252-.202.303-.403.353-.151.05-.302.1-.503.151.15.302.503.403.704.604.201.151.503.252.403.604a.968.968 0 01-.755.553c-.352.05-.654-.05-.906-.302-1.006-.956-2.264-1.358-3.573-1.51-1.76-.25-3.22-1.106-4.579-2.264a11.293 11.293 0 01-2.214-2.616c-.05.251-.1.402-.15.553-.253 4.127.603 7.951 2.817 11.524a34.262 34.262 0 005.988 7.196c.503.453 1.057.855 1.56 1.358.201.202.352.202.503-.05.453-.654 1.158-.906 1.862-1.157.504-.202.604.05.604.453-.1.905-.604 1.61-1.107 2.314-.906 1.208-2.013 2.214-3.22 3.171-.302.251-.604.402-1.057.151-3.724-1.711-6.794-4.278-9.209-7.549-.1-.151-.252-.302-.403-.503-.754 1.158-1.861 1.812-2.868 2.567-1.358 1.056-2.315 2.415-3.22 3.874-.202.302-.151.453.2.604.252.101.504.302.756.453.15.101.352.101.352.302 0 .201-.252.252-.403.302-.553.151-1.056.352-1.61.503-.1.05-.201 0-.252.101h-2.969zm24.356-6.391a4.372 4.372 0 00-1.308.805c-.403.352-.453.604.05.906.15.1.302.503.503.201a6.48 6.48 0 00.956-1.61c0-.101.05-.302-.201-.302zm-21.135 5.837c.503-.151.956-.302 1.46-.453-1.108-.755-1.208-.755-1.46.453zm41.625 15.116c-.604 0-1.258 0-1.862.051-.453.05-.654-.101-.705-.504-.1-.704-.503-.956-1.207-.905-.806.05-1.56 0-2.366-.051-.453-.05-.704.151-.754.554-.101.654-.453 1.006-1.208.855-.302-.05-.604 0-.906 0-.604 0-.704-.1-.453-.654.403-1.006.856-2.013 1.258-2.969.654-1.459 1.309-2.868 1.912-4.327.151-.353.353-.504.755-.504 1.862-.1 1.912-.151 2.617 1.51.906 2.063 1.761 4.177 2.717 6.24.05.1.05.251.202.302v.402zm-4.831-3.472c.15 0 .302.05.503.05.302 0 .453-.1.352-.452-.15-.554-.352-1.057-.503-1.611-.05-.151-.15-.251-.302-.251-.15 0-.251.151-.302.251-.15.353-.251.654-.402 1.007-.353.956-.353.956.654 1.006zm-41.264 8.655c.403-1.056.956-1.862 1.812-2.415 1.71-1.107 4.227-.906 5.737.453.251.251.2.402 0 .604l-.906.905c-.252.252-.453.151-.705 0-.755-.503-1.56-.553-2.465-.251-1.259.453-1.46 2.214-1.107 3.22.402 1.158 1.56 1.661 2.717 1.258.302-.1.654-.201.855-.402.453-.403.755-.252 1.057.201.05.101.151.151.201.252.805.956.755 1.006-.352 1.61-1.61.906-4.227.755-5.636-.453-1.006-.855-1.46-1.962-1.46-3.271v-.855c-.402.654-.804 1.207-1.509 1.459-.352.101-.1.302 0 .403a66.598 66.598 0 001.711 2.214c.1.151.302.251.252.453-.101.201-.302.1-.503.151h-.504c-1.811 0-1.811 0-2.868-1.56l-.604-.906c-.201-.352-.553-.403-.906-.302-.302.101-.201.402-.201.604 0 .553.05 1.107.05 1.61 0 .352-.1.554-.503.503a7.615 7.615 0 00-1.51 0c-.452 0-.603-.201-.553-.604.15-1.962-.1-3.975.1-5.938.05-.452 0-.905-.05-1.358 0-.403.1-.654.604-.654 1.41.05 2.768 0 4.177.05 1.71 0 2.717 1.057 3.07 3.019zm-5.233-.151c.05 1.057.05 1.057 1.107 1.007.201 0 .403 0 .604-.051.704-.05.956-.302.956-.905 0-.705-.252-1.007-.906-1.107-.251-.051-.503-.051-.704-.051-1.057.101-1.057.101-1.057 1.107zm33.313-9.812c-.504.604-1.007 1.258-1.51 1.862-.503.654-.654.654-1.208 0-.503-.604-.906-1.309-1.56-1.913v4.278c0 .402-.1.553-.553.553-1.761.051-1.761.051-1.761-1.66 0-2.114 0-4.227-.05-6.341 0-.402.15-.604.553-.503.251.05.553.101.755 0 .754-.201 1.258.101 1.66.755l1.208 1.66c.251.302.402.302.654 0 .503-.704 1.057-1.358 1.56-2.063.15-.201.302-.352.604-.302a7.971 7.971 0 001.56 0c.352 0 .503.101.453.503-.151 2.265.1 4.529-.05 6.794-.101 1.208 0 1.208-1.208 1.157h-.353c-.553.051-.704-.201-.704-.755.05-1.358 0-2.667 0-4.025h-.05zm-23.802.604v3.472c0 .704 0 .755-.705.755H28.68c-.453.05-.553-.202-.553-.554.05-1.963.05-3.925.1-5.888 0-.503-.05-1.056-.05-1.56 0-.352.15-.503.503-.452h.1c1.058-.202 1.812.251 2.416 1.157.755 1.107 1.61 2.113 2.516 3.321v-1.711c0-.704 0-1.459-.05-2.164 0-.452.15-.654.604-.654.503.051.956 0 1.46.051.351 0 .502.151.452.553-.252 2.214.1 4.428-.05 6.643-.101 1.258-.101 1.258-1.41 1.408-.502.051-.804-.15-1.106-.553a103.45 103.45 0 00-2.818-3.724c0-.151-.101-.151-.151-.1zm32.256 10.517v-3.674c0-.453.15-.604.603-.604 1.41.051 2.768 0 4.177.051 1.258.05 2.264.704 2.717 1.912.353.956.252 1.962-.503 2.768-.15.151-.302.352-.503.402-.604.201-.604.503-.201.956a63.843 63.843 0 011.51 1.912c.1.151.301.252.2.453-.1.202-.301.101-.503.101-.553 0-1.107 0-1.71.05-.303 0-.504-.1-.705-.352l-1.51-2.113c-.251-.353-.553-.403-.906-.302-.352.1-.2.453-.2.654 0 .553 0 1.107.05 1.61 0 .302-.101.503-.453.453-.504 0-.956-.05-1.46 0-.503 0-.704-.151-.704-.704.1-1.158.1-2.366.1-3.573zm3.572-.302h.604c.705-.051 1.007-.302 1.007-.906 0-.654-.302-1.057-1.007-1.107-.251 0-.503-.05-.704 0-.806.05-1.158-.151-.906.956.05.151.05.302 0 .403-.1.503.15.704.604.654h.402zM37.737 118.81c.1-2.918 1.811-4.428 4.63-4.478 2.918-.051 4.428 1.962 4.428 4.428 0 3.12-1.862 4.63-4.328 4.63-2.868.05-4.73-1.611-4.73-4.58zm2.315 0c0 1.409.956 2.416 2.264 2.416 1.158 0 2.063-1.007 2.063-2.416 0-1.358-.855-2.415-2.063-2.415-1.358.05-2.214.956-2.264 2.415zm-21.94 0c.05-2.918 1.811-4.378 4.579-4.478 2.667-.051 4.479 1.761 4.479 4.428 0 3.07-1.862 4.63-4.378 4.63-2.818.05-4.73-1.611-4.68-4.58zm6.642.051c0-1.409-.805-2.416-2.013-2.416-1.358 0-2.314.906-2.314 2.365 0 1.359.956 2.416 2.264 2.466 1.208 0 2.063-1.006 2.063-2.415zm-22.694.201v-3.623c0-.453.15-.604.603-.604 1.912.101 3.774.101 5.686 0 .403 0 .604.151.554.553 0 .151-.05.302-.05.504-.05 1.107-.05 1.107-1.158 1.107-.906 0-1.811 0-2.717-.051-.453 0-.503.252-.503.604s0 .654.503.654c1.006-.05 2.013-.05 3.02-.1.452 0 .704.151.653.604v.1c.05 1.309.05 1.258-1.207 1.258-.806 0-1.661.051-2.466 0-.554-.05-.453.403-.453.705-.05.352 0 .553.453.553 1.157-.05 2.315 0 3.422-.05.503 0 .704.151.704.705-.05 1.61.05 1.358-1.308 1.358-1.711.051-3.372.05-5.032.101-.654 0-.805-.151-.755-.805.1-1.208 0-2.416.05-3.573zm36.08 9.209v2.314c.05 1.007.452 1.611 1.207 1.711 1.057.202 1.912-.402 1.912-1.509.05-1.46.101-2.969 0-4.479-.05-.906.05-.956.956-.855.302.05.604 0 .906 0 .453-.051.654.151.654.553 0 1.661.05 3.321-.05 4.982-.15 2.265-1.66 3.523-3.925 3.472-1.56-.05-2.868-.453-3.573-1.962a4.541 4.541 0 01-.453-1.611v-4.981c0-.353.101-.504.504-.504.453 0 .905.051 1.409 0 .402 0 .553.151.553.554-.1.805-.05 1.56-.1 2.315.05 0 .05 0 0 0zm19.625-2.869c.704-.151 1.207.151 1.56 1.007.905 2.315 1.962 4.529 2.918 6.793.302.654.202.805-.553.755-.1 0-.201-.05-.302 0-.956.201-1.61 0-1.812-1.107-.05-.252-.251-.252-.453-.302-1.006 0-2.063 0-3.07-.05-.351 0-.402.251-.502.503-.302.906-.202 1.006-1.309.906-.251 0-.503 0-.755.05-.654.05-.754-.101-.503-.705.453-1.107.956-2.163 1.41-3.27.553-1.208 1.157-2.416 1.61-3.674.251-.654.603-.956 1.258-.855.1-.051.2-.051.503-.051zm-.202 5.083h.554c.252 0 .352-.151.302-.403a21.44 21.44 0 00-.554-1.66c-.05-.151-.1-.252-.302-.252-.15 0-.251.151-.302.252-.15.352-.251.654-.402 1.006-.302.956-.453 1.057.704 1.057z" fill="#000"/><path d="M12.526 118.961c0 2.064 1.71 2.969 3.623 1.913.755-.453.755-.453 1.308.251.856 1.007.806 1.057-.352 1.711-1.308.755-4.126.805-5.585-.503-1.41-1.208-1.913-3.523-.957-5.586 1.258-2.667 5.033-3.371 7.247-1.308.251.201.201.402 0 .604a16.81 16.81 0 00-.906.956c-.252.251-.403.1-.654-.05-.503-.353-1.107-.554-1.711-.453-1.41.201-2.013 1.006-2.013 2.465zm-2.063 15.499c-2.717.051-4.479-1.157-4.831-3.472-.554-3.422 1.761-5.988 5.233-5.586.906.101 1.61.554 2.315 1.057.302.252.302.453.05.705l-.1.1c-.554.705-1.057 1.158-2.063.504-.755-.504-2.063-.151-2.567.503-.704.855-.754 1.862-.352 2.868.302.856 1.057 1.308 1.963 1.308.603 0 1.207-.251 1.66-.603.403-.302.654-.202.906.151.15.201.302.352.453.553.553.654.553.654-.1 1.157-.856.604-1.863.755-2.567.755zm34.822-4.78v-3.674c0-.453.151-.604.604-.553.403.05.805.05 1.208 0 .352 0 .503.151.503.503 0 1.812 0 3.623-.05 5.435 0 .453.1.654.604.603.855-.05 1.71.051 2.516-.1.452-.05.704.05.654.553-.05.302 0 .655 0 .956.05.504-.202.655-.654.604-1.61-.151-3.221 0-4.831 0-.403 0-.604-.1-.604-.553.05-1.309.05-2.567.05-3.774zm-30.695 0v-3.724c0-.403.1-.604.502-.554.503.051.956.051 1.46 0 .453-.05.553.202.553.554 0 1.258.05 2.566 0 3.824s.05 2.466-.05 3.724c-.05.403-.151.503-.503.453h-.504c-1.409-.05-1.409-.05-1.459-1.459v-2.818zm44.785-10.719v-3.724c0-.301.05-.452.403-.452.453 0 .906 0 1.409-.051.402-.05.553.101.553.554v3.875c0 1.207-.05 2.465 0 3.673 0 .503-.201.704-.654.604-.15 0-.302-.05-.402-.05-1.158-.051-1.158-.051-1.208-1.208-.1-1.107-.1-2.164-.1-3.221zm3.019-7.045c-.302.604-.704 1.057-1.107 1.56-.1.151-.302.202-.503.151-.352 0-.704-.05-1.107-.05-.302 0-.403-.101-.252-.403.252-.453.353-1.006.705-1.358.201-.051 1.912 0 2.264.1zm31.88 19.362c-1.188 0-2.252-1.092-2.252-3.672 0-1.584.505-3.714 2.239-3.714.983 0 1.925 1.133 1.98 1.188a.299.299 0 00.218.095.28.28 0 00.287-.287v-2.089a.293.293 0 00-.15-.259c-.847-.532-1.434-.846-2.65-.846-1.406 0-4.054.901-4.054 5.898 0 4.191 1.952 5.871 4.041 5.871 1.133 0 1.966-.396 2.676-.901a.305.305 0 00.137-.232v-2.007a.28.28 0 00-.287-.287c-.396 0-.874 1.242-2.185 1.242zm13.586-5.011c-.287 0-1.093.082-1.093.751 0 .614.656.71 1.011.791 2.826.683 2.594 2.526 2.594 3.277 0 .765-.546 2.376-3.099 2.376a4.948 4.948 0 01-2.335-.601.286.286 0 01-.15-.246v-1.693c0-.191.245-.436.505-.191 0 0 .519.642 1.788.833.669.096 1.352-.164 1.352-.696 0-.464-.218-.806-.928-.901-.56-.069-2.676-.137-2.676-2.745 0-2.403 2.102-2.771 3.044-2.771 1.065 0 1.884.409 2.062.505.123.068.191.15.191.273v1.502c0 .273-.273.341-.464.246-.205-.123-.765-.71-1.802-.71zm3.304-.11a.28.28 0 00.287.287h.505v4.451c0 2.335 1.461 2.567 2.212 2.567.464 0 .819-.082 1.283-.178.123-.027.205-.15.205-.273v-1.269a.291.291 0 00-.369-.273c-.136.027-.587.163-1.024-.014-.355-.137-.396-.615-.396-.833v-4.192h1.502c.15 0 .273-.122.287-.273v-1.297a.288.288 0 00-.287-.286h-1.488v-2.636a.289.289 0 00-.287-.286l-1.379.164c-.136.013-.246.136-.259.273v2.471h-.505c-.164.014-.287.136-.287.287v1.31zm33.546 5.12h-3.044c-.028 0-.273-.013-.287-.273v-8.997c0-.191-.137-.355-.314-.328l-1.42.164c-.178.014-.301.136-.301.3v11.032c0 .164.123.301.287.301h5.093a.316.316 0 00.328-.328v-1.529c0-.232-.082-.342-.342-.342zm18.446-9.229a.265.265 0 00-.273-.273h-1.884a.281.281 0 00-.273.204l-1.57 5.353c-.028.068-.069.122-.15.122-.082 0-.123-.054-.151-.122l-1.57-5.353a.291.291 0 00-.273-.204h-1.884a.277.277 0 00-.287.273v11.114c0 .163.137.314.301.314h1.297c.218 0 .341-.123.341-.328v-7.291l1.406 4.751c.041.11.096.164.232.164h1.134c.136 0 .232-.041.259-.164l1.406-4.751v7.332c0 .15.11.273.273.273h1.366c.164 0 .287-.123.287-.3l.013-11.114zm-25.914 6.458a.28.28 0 00-.287-.287h-2.362c-.164 0-.286.096-.286.287v1.624c0 .164.095.273.3.273h2.362c.177 0 .287-.109.287-.286-.014 0-.014-1.611-.014-1.611zm-15.565 4.956c.178 0 .287-.123.287-.273v-11.237c0-.164-.123-.314-.287-.287l-1.338.151c-.191.027-.287.136-.287.286v11.06c0 .177.123.3.287.3h1.338zm3.167 0c.178 0 .287-.123.287-.273v-11.237c0-.164-.123-.314-.287-.287l-1.338.151c-.191.027-.286.136-.286.286v11.06c0 .177.123.3.286.3h1.338zm-6.321-9.858c.15 0 .273-.123.287-.273v-1.379c0-.164-.123-.3-.287-.287l-1.338.151c-.164.013-.287.136-.287.286v1.202c0 .164.123.3.287.3h1.338zm-1.625 9.558c0 .191.123.3.287.3h1.352c.177 0 .286-.109.286-.287l-.013-8.301c0-.164-.11-.287-.273-.287h-1.352c-.191 0-.287.123-.287.287v8.288zm-15.319-5.448c.232-.027.259-.232.259-.314 0-.806-.833-.983-1.57-.983-.805 0-1.42.505-1.652.505a.289.289 0 01-.287-.287v-1.379c0-.246.096-.314.233-.355.177-.054 1.092-.341 2.102-.341 3.045 0 3.045 1.925 3.045 2.935v5.489a.294.294 0 01-.273.273l-1.147.068c-.055 0-.464.041-.519-.477 0-.069-.341.628-1.939.628-.682 0-2.02-.615-2.02-2.649.013-2.867 2.28-2.963 3.768-3.113zm.259 1.87c0-.163-.15-.3-.314-.273-.013 0-.628.069-1.188.26a.835.835 0 00-.436.368c-.192.328-.178.82-.123 1.065.054.246.314.669.969.615.191-.014 1.092-.26 1.092-.71v-1.325zm28.113-1.87c.218-.027.259-.232.259-.314 0-.806-.832-.983-1.57-.983-.805 0-1.433.505-1.652.505a.289.289 0 01-.287-.287v-1.379c0-.246.096-.314.233-.355.177-.054 1.092-.341 2.102-.341 3.045 0 3.045 1.925 3.045 2.935v5.489a.294.294 0 01-.273.273l-1.147.068c-.055 0-.464.041-.519-.477 0-.069-.341.628-1.939.628-.682 0-2.02-.615-2.02-2.649.013-2.867 2.28-2.963 3.768-3.113zm.259 1.87c0-.163-.15-.3-.314-.273-.013 0-.628.069-1.187.26a.83.83 0 00-.437.368c-.192.328-.178.82-.123 1.065.054.246.314.669.969.615.191-.014 1.092-.26 1.092-.71v-1.325zm19.443-1.87c.218-.027.259-.232.259-.314 0-.806-.832-.983-1.556-.983-.806 0-1.434.505-1.652.505a.289.289 0 01-.287-.287v-1.379c0-.246.096-.314.232-.355.178-.054 1.093-.341 2.103-.341 3.045 0 3.045 1.925 3.045 2.935v5.489a.294.294 0 01-.273.273l-1.147.068c-.055 0-.465.041-.519-.477 0-.069-.342.628-1.939.628-.683 0-2.021-.615-2.021-2.649 0-2.867 2.267-2.963 3.755-3.113zm.259 1.87c0-.163-.15-.3-.314-.273-.013 0-.628.069-1.201.26a.838.838 0 00-.437.368c-.191.328-.177.82-.123 1.065.055.246.314.669.97.615.191-.014 1.078-.26 1.078-.71l.027-1.325zm18.078-1.87c.232-.027.259-.232.259-.314 0-.806-.833-.983-1.557-.983-.805 0-1.419.505-1.652.505a.289.289 0 01-.286-.287v-1.379c0-.246.095-.314.232-.355.177-.054 1.092-.341 2.102-.341 3.045 0 3.045 1.925 3.045 2.935v5.489a.293.293 0 01-.273.273l-1.147.068c-.054 0-.478.041-.519-.477 0-.069-.341.628-1.938.628-.683 0-2.021-.615-2.021-2.649 0-2.867 2.266-2.963 3.755-3.113zm.259 1.87c0-.163-.15-.3-.314-.273a6.45 6.45 0 00-1.202.26.832.832 0 00-.436.368c-.192.328-.178.82-.123 1.065.054.246.314.669.969.615.191-.014 1.092-.26 1.092-.71v-1.325h.014zm27.607-1.87c.219-.027.26-.232.26-.314 0-.806-.833-.983-1.557-.983-.805 0-1.42.505-1.652.505a.288.288 0 01-.286-.287v-1.379c0-.246.095-.314.232-.355.177-.054 1.092-.341 2.102-.341 3.059 0 3.045 1.925 3.045 2.935v5.489a.294.294 0 01-.273.273l-1.147.068c-.055 0-.464.041-.519-.477 0-.069-.341.628-1.939.628-.682 0-2.02-.615-2.02-2.649 0-2.867 2.28-2.963 3.754-3.113zm.273 1.87c0-.163-.15-.3-.314-.273-.013 0-.628.069-1.201.26a.838.838 0 00-.437.368c-.191.328-.177.82-.123 1.065.055.246.314.669.97.615.191-.014 1.078-.26 1.078-.71l.027-1.325zm-11.018 3.796c-.082-.082-.082-.15-.082-.191V122.17s-.013-.095.068-.177c.096-.096.246-.096.246-.096s1.215-.136 1.325-.136c0 0 .095-.014.191.068a.23.23 0 01.082.164v3.645c.437-.764 1.051-1.16 1.938-1.16 1.448 0 2.144.792 2.144 2.567v6.144c0 .109 0 .164-.082.232-.109.082-.218.082-.218.082h-1.366s-.123 0-.204-.082c-.069-.082-.069-.137-.069-.191v-5.079c0-.901-.286-1.256-.983-1.256-.792 0-1.16.491-1.16 1.488v4.888c0 .041 0 .095-.082.164-.069.068-.178.068-.178.068h-1.351c-.028-.041-.137-.041-.219-.123zm-13.681 0c-.082-.082-.082-.177-.082-.177v-8.329s-.013-.096.069-.178c.095-.095.245-.095.245-.095s1.216-.137 1.325-.137c0 0 .095-.013.191.069a.23.23 0 01.082.163v.929c.437-.765 1.051-1.161 1.939-1.161 1.447 0 2.143.792 2.143 2.567v6.185c0 .027 0 .123-.082.178-.109.082-.218.082-.218.082h-1.365s-.123 0-.205-.082c-.069-.082-.069-.151-.069-.191v-5.08c0-.901-.286-1.256-.983-1.256-.791 0-1.16.492-1.16 1.489v4.819c0 .096 0 .15-.082.219a.28.28 0 01-.178.068h-1.379s-.109 0-.191-.082zm10.459-8.861c-1.079 0-3.468.628-3.468 4.506 0 4.014 2.621 4.437 3.522 4.437 1.12 0 1.857-.56 1.871-.56.123-.082.15-.177.15-.437v-1.447c0-.382-.314-.382-.532-.123-.191.219-.464.642-1.434.642-.519 0-1.611-.246-1.611-2.485 0-2.28 1.065-2.567 1.584-2.567.901 0 1.365.587 1.502.792.136.205.491.068.491-.15v-1.666c.014-.519-.887-.942-2.075-.942zm-26.857-41.015h-22.173c-1.283 0-2.321 1.024-2.321 2.253v21.804c0 2.799 1.516 5.038 4.356 6.472 2.28 1.133 5.406 1.734 9.052 1.734 3.645 0 6.772-.601 9.052-1.734 2.854-1.42 4.356-3.659 4.356-6.472v-21.79c0-1.243-1.038-2.267-2.322-2.267zm-13.489 18.992c0 .328-.26.601-.574.614h-2.471v-2.225a1.16 1.16 0 10-2.321 0v2.212h-2.471a.623.623 0 01-.56-.615v-.109l.56-6.13v-1.789h1.761v1.748h.997v-3.496h1.761v3.496h.983v-1.748h1.761v1.761l.574 6.158v.123zm14.131 4.301c0 7.072-10.349 7.236-10.363 7.222-1.133.041-1.065-1.242-1.065-1.242V86.48c0-.71.492-1.283 1.12-1.283h9.175c.573 0 1.065.491 1.133 1.12v20.48zm-3.386-35.295c-.942 0-1.789.355-2.444.915a3.882 3.882 0 00-2.84-1.201c-1.215 0-2.335.56-3.045 1.42a3.977 3.977 0 00-3.058-1.42c-1.12 0-2.13.45-2.854 1.201a3.64 3.64 0 00-2.43-.915 3.666 3.666 0 00-3.673 3.673c0 .833.301 1.598.765 2.226.232.314.532.546.928.56.547.013 1.202-.56.874-1.27-.109-.219-.614-.751-.587-1.502.027-.956.737-1.734 1.693-1.734a1.84 1.84 0 011.488.792c-.068.3-.123.614-.123.942 0 .846.274 1.488.274 1.488.191.492.532.847 1.078.833a1.1 1.1 0 001.12-1.12c0-.177-.109-.491-.15-.6a1.609 1.609 0 01-.123-.629c0-.955.778-1.72 1.72-1.72s1.734.778 1.734 1.72v1.352c0 .737.601 1.325 1.324 1.338.738 0 1.325-.6 1.325-1.324l.013-1.352c0-.956.765-1.72 1.721-1.72.956 0 1.734.764 1.734 1.72 0 .219-.041.423-.123.628a3.16 3.16 0 00-.15.601c-.014.628.478 1.106 1.119 1.12.533 0 .888-.355 1.079-.833 0 0 .273-.642.273-1.489 0-.327-.041-.641-.123-.942a1.842 1.842 0 011.488-.791c.956 0 1.693.791 1.707 1.734 0 .75-.491 1.283-.587 1.501-.341.71.314 1.27.86 1.27.41-.014.71-.232.929-.56a3.644 3.644 0 00.778-2.225c-.028-2.035-1.68-3.687-3.714-3.687zm-4.669 9.094c0 .669.532 1.215 1.215 1.215.669 0 1.215-.546 1.215-1.215 0-.67-.546-1.216-1.215-1.216s-1.215.547-1.215 1.216zm-9.749 0c0 .669.546 1.215 1.215 1.215s1.215-.546 1.215-1.215c0-.67-.546-1.216-1.215-1.216s-1.215.547-1.215 1.216zm14.609 0c0 .669.546 1.215 1.215 1.215s1.216-.546 1.216-1.215c0-.67-.547-1.216-1.216-1.216-.669 0-1.215.547-1.215 1.216zm-9.748 0c0 .669.546 1.215 1.215 1.215s1.215-.546 1.215-1.215c0-.67-.546-1.215-1.215-1.215s-1.215.546-1.215 1.215zm-9.749 0c0 .669.546 1.215 1.215 1.215s1.215-.546 1.215-1.215c0-.67-.546-1.216-1.215-1.216a1.21 1.21 0 00-1.215 1.216zm12.616-12.944h-1.106v-1.106a.547.547 0 00-1.092 0v1.106h-1.093a.56.56 0 00-.559.546c0 .3.259.546.559.546h1.093v1.093c0 .3.245.56.546.56.3 0 .546-.26.546-.56v-1.093h1.106c.3 0 .546-.245.546-.546 0-.3-.246-.546-.546-.546z" fill="#000"/></svg>