<svg width="200" height="200" fill="none" xmlns="http://www.w3.org/2000/svg"><path fill="#fff" d="M0 0h200v200H0z"/><path d="M58.824 86.941c-.118-5.764-2.471-9.294-10.236-9.294 0 0-4.353-.118-4.353 0l-.117 12c-5.647.824-12 2.706-13.177 2.941l.118-22.117h15.647c9.882 0 16.353.706 20.823 5.294 2 2 3.883 4.94 4.236 10.235-4.47.235-8.47.353-12.941.941zm-.354 2.236C66.589 88.353 72.119 88 72.119 88c0 4.941-2 8.823-4.824 11.177-3.882 3.176-7.764 3.999-18 3.999H31.177v-8.235c1.411-.353 7.411-2.235 13.058-2.941 0 0-.117 4.235 0 4.235h4.236c3.882-.235 9.882-2 10-7.058zm100.707 3.293c-4-1.058-7.53-2.235-11.059-2.94l7.294-18.942h13.412l-9.647 21.883zm-28.471-5.882l-6.941-16.117h14.588l7.059 18.352c-5.294-1.058-9.883-1.646-14.706-2.235zm15.529 4.353s.589 1.412.706 1.177l.471-.941c3.647.823 6.941 2.117 11.059 3.176l-3.53 8.706h-16.706l-6.47-14.47c4.823.588 9.176 1.293 14.47 2.352zm-36.706-5.529c-4.588-.118-10.588-.236-15.529-.236.118 0 11.529-14.705 11.529-14.705h16l-12 14.94zm-14.706 1.647c.471 0 10.118 0 15.648.47l12.823 15.53h-16.823l-11.648-16zm-2.705 0v15.765H78.824V87.647c4.352-.235 8.588-.47 13.294-.588zm0-2c-4.824.118-9.06.118-13.412.47V70.235h13.412V85.06zm-53.765 28.117c.118-.235.235-.588.118-.588-.706-.588-2-.941-3.06-.941-2 0-3.764 1.294-3.764 3.647 0 3.882 5.765 3.177 5.765 6.353 0 1.294-1.177 2.118-2.588 2.118-.824 0-1.883-.353-2.706-.941-.118-.118-.353 0-.471.352l-.118.236c-.235.353-.235.588-.117.706.823.588 2.117 1.058 3.647 1.058 2.706 0 4.117-1.529 4.117-3.764 0-4.118-5.764-3.647-5.764-6.353 0-.941.706-1.883 2.235-1.883.941 0 1.647.236 2.235.589.118.117.353 0 .47-.353v-.236zm9.53 2.118c-.589 0-.589 0-.707.235l-.117.824c-.47-.706-1.412-1.177-2.47-1.177-2.354 0-4.118 2-4.118 5.177 0 2.588 1.176 4.823 3.882 4.823 1.176 0 2.235-.47 2.706-1.294l.117.824c0 .118.118.235.706.235H48c.588 0 .706-.117.706-.235-.118-.941-.118-2.118-.118-3.882v-5.295c0-.117 0-.235-.706-.235zm-.942 5.177c0 1.529-.117 2.117-.47 2.47-.471.471-1.177.706-1.765.706-1.883 0-2.47-1.765-2.47-3.412 0-2.117.94-3.529 2.588-3.529.823 0 1.647.588 2.117 1.176v2.589zm4.941-9.412c-.588 0-.823.117-.823.235.117.706.117 3.059.117 4.941v6.118c0 .941.118 1.529.353 1.882.353.471.824.589 1.294.589.236 0 .589-.118.824-.118.118 0 .118-.118.118-.588 0-.353 0-.471-.118-.471h-.118c-.588 0-.706-.235-.706-.941v-6c0-2.706 0-4.824-.117-5.412 0-.118-.118-.235-.824-.235 0 0 .118 0 0 0zm4.589 4.235c-.706 0-.706.118-.706.235v5.53c0 1.412.235 2.47.94 3.059.59.588 1.413.941 2.354.941 1.294 0 2.353-.471 2.941-1.177v.824c0 .118.118.235.706.235h.117c.706 0 .706-.117.706-.235v-9.177c0-.117-.117-.235-.706-.235h-.117c-.588 0-.706.118-.706.235V120c0 2-.235 2.588-.588 2.941-.47.471-1.294.706-2 .706s-1.294-.235-1.647-.588c-.353-.471-.47-1.177-.47-2.706v-4.824c0-.117-.119-.235-.707-.235h-.117zm16.47-4.235c-.588 0-.706.117-.706.235v4.353c-.47-.353-1.294-.588-2-.588-2.94 0-4.353 2.47-4.353 5.176 0 2.941 1.412 4.824 3.883 4.824 1.294 0 2.235-.588 2.706-1.177.235.706.706 1.059 1.294 1.059.353 0 .588 0 .823-.117.118 0 .118-.118.118-.589v-.117c0-.353-.118-.471-.118-.471-.47 0-.588-.118-.588-.941v-11.294c-.235-.236-.353-.353-1.059-.353zm-.706 9.412c0 1.529-.117 2.117-.47 2.588-.47.47-1.06.588-1.647.588-1.412 0-2.471-1.176-2.471-3.412 0-2.235 1.059-3.647 2.824-3.647.705 0 1.529.236 1.882.706v3.177h-.118zM82 115.529c0-.117-.235-.235-.941-.235s-.941 0-.824.235l3.53 9.412c-.706 2-1.412 2.706-2.588 2.706-.354 0-.706-.118-.942-.118-.235-.117-.235 0-.353.471l-.117.235c-.118.353-.118.471.117.589.353.235.941.352 1.412.352 1.059 0 1.882-.352 2.706-1.058.588-.589 1.059-1.53 1.53-2.942l3.411-9.529c.118-.235-.118-.235-.823-.235-.589 0-.706 0-.824.235l-1.647 4.706c-.353 1.059-.706 2.118-.941 2.941a27.966 27.966 0 00-.941-3.059L82 115.529zm14.47 5.647c0-1.058 0-2 .118-2.47.118-.824.236-1.059.47-1.294.471-.471 1.06-.706 1.765-.706 1.53 0 2.236 1.176 2.236 3.294 0 2.118-1.059 3.647-3.059 3.647-.47 0-1.059-.118-1.53-.353v-2.118zm-.94-10.117c-.707 0-.824.117-.824.235v12.941c0 .118 0 .118.117.236.824.353 1.883.588 3.295.588 3.058 0 4.588-2 4.588-5.177 0-1.058-.235-2-.588-2.706-.589-1.294-1.647-2-3.06-2-1.058 0-2.117.471-2.705 1.059v-4.941c.118-.118 0-.235-.824-.235zm10.117 4.235c-.706 0-.706.118-.706.235v9.177c0 .118 0 .235.706.235h.118c.706 0 .706-.117.706-.235v-9.177c0-.117 0-.235-.824-.235 0 0 .118 0 0 0zm-1.059-2.941c0 .588.471 1.176 1.177 1.176.588 0 1.176-.47 1.176-1.176s-.47-1.177-1.176-1.177c-.706.118-1.177.589-1.177 1.177zm12.118 8.353c.118 0 .118-.118.118-.706 0-1.059-.118-2.118-.589-2.941-.588-1.177-1.647-2-3.294-2-2.706 0-4.353 2.117-4.353 5.176 0 2.941 1.53 4.824 4.353 4.824 1.177 0 2.353-.235 3.294-.824.118-.117.118-.235 0-.706l-.117-.235c-.118-.47-.236-.47-.471-.353-.823.353-1.647.588-2.353.588-.941 0-1.647-.235-2.118-.705-.588-.471-.823-1.295-.941-2.236l6.471.118zm-6.353-1.294c.235-1.883 1.294-2.706 2.588-2.706 1.53 0 2.235 1.412 2.235 2.706h-4.823zm9.294-4.118c-.706 0-.706.118-.706.235v9.177c0 .118.118.235.706.235h.118c.706 0 .706-.117.706-.235v-3.53c0-1.058 0-2 .117-2.47.118-.824.236-1.059.471-1.294.47-.471 1.294-.706 1.882-.706.824 0 1.412.235 1.647.588.471.471.471 1.177.471 2.706v4.706c0 .118.117.235.706.235h.117c.706 0 .706-.117.706-.235v-5.53c0-1.411-.235-2.47-.941-3.058-.588-.589-1.412-.942-2.471-.942-1.058 0-2.235.471-2.941 1.177v-.824c.236-.117.236-.235-.588-.235zm17.294 5.412c.118 0 .118-.118.118-.706 0-1.059-.118-2.118-.588-2.941-.589-1.177-1.647-2-3.295-2-2.705 0-4.352 2.117-4.352 5.176 0 2.941 1.529 4.824 4.352 4.824 1.177 0 2.353-.235 3.295-.824.117-.117.117-.235 0-.706l-.118-.235c-.118-.47-.235-.47-.471-.353-.823.353-1.647.588-2.353.588-.941 0-1.647-.235-2.117-.705-.588-.471-.824-1.295-.941-2.236l6.47.118zm-6.235-1.294c.235-1.883 1.294-2.706 2.588-2.706 1.53 0 2.235 1.412 2.235 2.706h-4.823zm14.235-2.588c.235-.353.235-.589.118-.706-.706-.589-1.647-.942-2.824-.942-1.764 0-3.294 1.059-3.294 2.824 0 .706.235 1.294.706 1.765.471.47 1.177.706 2.118.941.941.235 2.117.47 2.117 1.529s-1.176 1.412-2 1.412c-.823 0-1.647-.353-2.353-.706-.235-.117-.353-.117-.588.353l-.117.235c-.236.353-.236.471-.118.706.706.471 1.765.941 2.941.941 2 0 3.647-1.058 3.647-2.941 0-1.882-1.529-2.47-3.059-2.823-.823-.236-1.882-.471-1.882-1.412s1.059-1.294 1.765-1.294c.823 0 1.411.353 2.117.823.118.118.236.118.589-.353l.117-.352zm3.647-4.236c-.706 0-.706.118-.706.236v2.47h-1.176c-.118 0-.118.118-.118.588V116c0 .471 0 .588.118.588h1.176v5.53c0 1.176.118 1.882.706 2.353.353.353.941.588 1.765.588.706 0 1.412-.118 1.882-.471.118-.117.118-.235.118-.588l-.118-.235c-.117-.353-.117-.353-.353-.353-.353.117-.823.235-1.176.235-.471 0-.706-.118-.941-.353-.236-.235-.236-.706-.236-1.412v-5.411h2.236c.117 0 .117-.118.117-.589 0-.47 0-.588-.117-.588h-2.236v-2.47c-.117-.118-.117-.236-.941-.236zm12.118 2.706c-.588 0-.588 0-.706.235l-.118.706c-.47-.706-1.294-1.176-2.47-1.176-2.353 0-4.118 2-4.118 5.176 0 2.589 1.177 4.824 3.882 4.824 1.177 0 2.236-.471 2.824-1.294l.118.823c0 .118.117.236.706.236h.117c.588 0 .706-.118.706-.236-.118-.941-.118-2.117-.118-3.882v-5.294s-.117-.118-.823-.118c0 0 .118 0 0 0zm-.824 5.177c0 1.529-.117 2.117-.47 2.47-.471.471-1.177.706-1.765.706-1.882 0-2.471-1.765-2.471-3.412 0-2.117.942-3.529 2.589-3.529.823 0 1.647.588 2.117 1.176v2.589zm5.059-5.177c-.706 0-.706.118-.706.235v9.177c0 .118.118.235.824.235h.117c.706 0 .706-.117.706-.235v-4.824c0-.588.118-1.176.471-1.529.471-.824 1.176-1.647 2.471-1.647.117 0 .235-.118.235-.706v-.235c0-.353 0-.471-.118-.471h-.353c-.941 0-1.882.706-2.588 2.235v-1.882c-.235-.235-.353-.353-1.059-.353 0 0 .118 0 0 0z" fill="#000"/></svg>