<svg width="200" height="200" fill="none" xmlns="http://www.w3.org/2000/svg"><path fill="#fff" d="M0 0h200v200H0z"/><path fill-rule="evenodd" clip-rule="evenodd" d="M58.172 114.066c0-1.745-.863-2.508-2.665-3.083-.77-.249-1.71-.468-1.71-1.075 0-.498.308-.716.77-.716h.262c.524 0 .91.28 1.186.81.062.124.2.124.309.047l1.6-1.075c.155-.093.093-.249.031-.342a3.502 3.502 0 00-.739-.904c-.6-.529-1.417-.824-2.417-.824h-.231c-2.11 0-3.389 1.152-3.389 3.082 0 1.729.925 2.414 2.572 2.989 1.032.359 1.802.452 1.802 1.153 0 .451-.308.716-.786.716h-.477c-.523 0-.909-.28-1.185-.81-.062-.124-.2-.124-.31-.046l-1.6 1.074c-.154.093-.093.234-.03.326.169.297.37.562.615.795.616.607 1.478.95 2.541.95h.477c2.172 0 3.373-1.152 3.373-3.067zm20.367 2.708v-9.539c0-.125-.108-.156-.17-.156h-2.262c-.077 0-.138.031-.138.156v9.539c0 .125.062.157.138.157h2.263c.093 0 .17-.032.17-.157h-.001zm-3.643-7.54v-1.999c0-.125-.092-.156-.153-.156h-6.406c-.077 0-.139.031-.139.156v9.539c0 .125.062.157.14.157h2.277c.078 0 .155-.032.155-.157v-3.513c0-.109.046-.172.185-.172h3.11c.077 0 .154-.031.154-.14v-2.014c0-.109-.077-.141-.155-.141h-3.11c-.138 0-.184-.062-.184-.172v-1.077c0-.108.046-.171.185-.171h3.788c.091 0 .153-.031.153-.141v.001zm13.148 7.494l-3.222-9.532c-.03-.094-.076-.109-.138-.109h-1.681c-.093 0-.124.03-.154.109l-3.222 9.532c-.047.124.015.203.153.203h2.375c.077 0 .108-.032.139-.11l.416-1.17c.03-.078.061-.109.185-.109h1.85c.124 0 .17.031.2.109l.402 1.17c.03.078.046.11.138.11h2.421c.17 0 .185-.079.139-.203h-.001zm-3.623-3.167c.015.077-.03.14-.138.14h-.895c-.123 0-.169-.062-.154-.141l.277-1.216c.217-.92.324-1.919.324-1.919h.046s.109.999.293 1.919l.247 1.217zm-45.347 3.189v-9.513c0-.125-.093-.157-.154-.157h-2.172c-.092 0-.138.032-.138.157v2.521c0 1.386.077 2.601.077 2.601h-.046s-.124-.343-.34-.748l-2.278-4.39c-.047-.094-.109-.141-.2-.141h-1.957c-.077 0-.139.032-.139.157v9.513c0 .123.062.155.14.155h2.217c.093 0 .154-.031.154-.155v-2.477a37.99 37.99 0 00-.092-2.506h.062s.123.342.323.701l2.295 4.297c.045.077.092.14.169.14h1.925c.092 0 .154-.031.154-.155zm-8.832 0v-9.513c0-.125-.108-.157-.17-.157h-2.264c-.077 0-.138.032-.138.157v9.513c0 .123.062.155.138.155h2.264c.093 0 .17-.031.17-.155zm36.732-2.545v-4.374c0-1.775-1.34-2.927-3.31-2.927h-1.078c-1.972 0-3.343 1.167-3.343 2.927v4.374c0 1.76 1.34 2.928 3.342 2.928h1.077c1.973 0 3.312-1.168 3.312-2.928zm-2.556 0c0 .374-.277.639-.755.639h-1.077c-.54 0-.817-.249-.817-.639v-4.374c0-.327.37-.654.816-.654h1.077c.448 0 .756.28.756.654v4.374zm-15.925 2.498l-3.218-9.513c-.031-.094-.077-.11-.14-.11h-1.677c-.092 0-.123.032-.154.11l-3.218 9.513c-.047.124.015.202.153.202h2.372c.078 0 .108-.031.14-.109l.414-1.168c.031-.077.062-.109.186-.109h1.848c.123 0 .17.032.2.109l.4 1.168c.03.078.047.109.139.109h2.418c.17 0 .184-.078.138-.203v.001zm-3.62-3.161c.017.078-.03.14-.137.14h-.894c-.123 0-.17-.062-.153-.14l.276-1.215c.216-.918.323-1.915.323-1.915h.047s.108.997.292 1.916l.247 1.214zm-18.69 3.208v-1.994c0-.108-.077-.139-.154-.139h-3.787c-.14 0-.186-.062-.186-.172v-1.199c0-.109.046-.171.186-.171h3.11c.077 0 .154-.032.154-.141v-2.008c0-.109-.077-.14-.154-.14h-3.111c-.139 0-.186-.062-.186-.171v-1.075c0-.109.047-.17.186-.17h3.788c.093 0 .154-.032.154-.142v-1.991c0-.125-.092-.157-.154-.157h-6.406c-.077 0-.138.032-.138.157v9.513c0 .123.061.155.138.155h6.406c.093 0 .154-.031.154-.155zm-10.819-6.431c0 .421-.293.623-.77.623h-1.679c-.139 0-.185-.062-.185-.171v-1.231c0-.109.046-.17.185-.17h1.68c.507 0 .77.233.77.653v.296zm2.85 6.383l-1.51-3.908c-.046-.139-.062-.249.077-.341.677-.437 1.124-1.183 1.124-2.149v-.141c0-1.915-1.293-3.083-3.31-3.083h-4.298c-.077 0-.138.032-.138.157v9.513c0 .123.061.155.138.155h2.278c.077 0 .155-.031.155-.155v-3.504c0-.109.046-.171.184-.171h1.062c.062 0 .109.031.14.109l1.416 3.612c.03.062.078.109.139.109h2.403c.153 0 .184-.094.138-.203h.001zm42.712-28.476c0 1.258-.936 2.093-2.313 2.093h-.752c-1.398 0-2.334-.835-2.334-2.093v-3.129c0-1.258.957-2.093 2.334-2.093h.753c1.377 0 2.312.824 2.312 2.093v.6h-1.785v-.6c0-.267-.215-.468-.527-.468h-.753c-.312 0-.57.234-.57.468v3.13c0 .277.194.456.57.456h.753c.334 0 .527-.19.527-.457v-.6h1.785v.6zm-44.362 1.855v-6.81c0-.09-.044-.112-.108-.112h-1.56a.12.12 0 00-.108.067l-1.238 3.422a6.877 6.877 0 00-.14.446h-.044s-.021-.2-.118-.446l-1.28-3.421a.118.118 0 00-.109-.068h-1.603c-.066 0-.097.023-.097.113v6.808c0 .089.031.112.097.112h1.518c.075 0 .107-.022.107-.111v-1.46c0-1.06-.097-2.029-.097-2.029h.033s.097.468.268.97l.571 1.682c.032.09.13.112.194.112h1.044c.065 0 .15-.022.183-.112l.57-1.649c.172-.501.27-1.003.27-1.003h.032s-.076 1.003-.076 2.05v1.439c0 .088.022.11.097.11h1.486c.065 0 .108-.021.108-.11zm17.912-.005v-1.427c0-.077-.054-.1-.108-.1h-2.506c-.097 0-.13-.044-.13-.123v-.857c0-.078.033-.123.13-.123h2.032c.055 0 .109-.022.109-.1v-1.438c0-.078-.054-.1-.109-.1h-2.032c-.097 0-.13-.044-.13-.123v-.769c0-.077.033-.122.13-.122h2.507c.064 0 .106-.022.106-.1v-1.427c0-.089-.064-.111-.106-.111h-4.337c-.054 0-.097.022-.097.111v6.809c0 .088.043.111.097.111h4.336c.065 0 .108-.022.108-.111zm-5.506-1.939c0-1.248-.602-1.795-1.862-2.207-.538-.177-1.194-.334-1.194-.768 0-.358.214-.512.538-.512h.183c.366 0 .635.2.828.578.044.09.14.09.216.034l1.12-.768c.107-.068.064-.18.021-.247a2.497 2.497 0 00-.517-.646c-.42-.379-.99-.59-1.69-.59h-.162c-1.474 0-2.367.824-2.367 2.207 0 1.236.645 1.727 1.797 2.139.721.256 1.26.323 1.26.824 0 .323-.215.512-.55.512h-.333c-.366 0-.636-.2-.829-.579-.043-.088-.14-.088-.215-.032l-1.12.768c-.108.067-.064.168-.021.235.118.212.259.4.43.567.43.436 1.033.68 1.776.68h.334c1.518 0 2.357-.825 2.357-2.195zm11.729.1v-3.13c0-1.271-.937-2.095-2.315-2.095h-.754c-1.377 0-2.336.835-2.336 2.095v3.13c0 1.26.936 2.096 2.337 2.096h.753c1.378 0 2.315-.835 2.315-2.095v-.001zm-1.788 0c0 .267-.194.457-.527.457h-.754c-.377 0-.57-.178-.57-.457v-3.13c0-.235.258-.468.57-.468h.754c.312 0 .527.2.527.468v3.13zm-15.702.004v-4.97c0-.088-.033-.112-.098-.112H21.53c-.053 0-.097.023-.097.113v4.97c0 .278-.161.457-.538.457h-.753c-.399 0-.57-.179-.57-.458v-4.97c0-.088-.055-.112-.098-.112h-1.56c-.065 0-.098.023-.098.113v4.97c0 1.258.926 2.094 2.326 2.094h.753c1.377 0 2.315-.836 2.315-2.095zm25.294 1.841v-6.809c0-.089-.065-.112-.108-.112h-1.518c-.065 0-.097.023-.097.112v1.805c0 .992.054 1.861.054 1.861h-.032s-.086-.244-.237-.535l-1.593-3.142c-.032-.067-.075-.1-.14-.1h-1.367c-.053 0-.098.022-.098.111v6.81c0 .088.045.11.098.11h1.55c.064 0 .108-.022.108-.11V88.31c0-.913-.065-1.794-.065-1.794h.043s.086.245.227.502l1.603 3.076c.032.055.065.1.119.1h1.346c.064 0 .107-.023.107-.112zm39.518 0v-1.426c0-.078-.054-.101-.108-.101h-2.648c-.097 0-.128-.044-.128-.122v-5.16c0-.089-.066-.112-.109-.112h-1.593c-.053 0-.097.023-.097.112v6.81c0 .088.044.11.097.11h4.478c.065 0 .108-.022.108-.11zm-11.887 0v-6.809c0-.089-.065-.112-.108-.112H74.51c-.066 0-.098.023-.098.112v1.805c0 .992.053 1.861.053 1.861h-.031s-.086-.244-.237-.535l-1.594-3.142c-.032-.067-.076-.1-.14-.1h-1.367c-.054 0-.097.022-.097.111v6.81c0 .088.043.11.097.11h1.55c.065 0 .107-.022.107-.11V88.31c0-.913-.064-1.794-.064-1.794h.044s.086.245.225.502l1.605 3.076c.031.055.064.1.118.1h1.345c.065 0 .108-.023.108-.112zm-12.49 0v-6.809c0-.089-.076-.112-.119-.112h-1.583c-.053 0-.097.023-.097.112v6.81c0 .088.044.11.097.11h1.583c.065 0 .119-.022.119-.11zm18.887-.033l-2.25-6.81c-.021-.066-.054-.078-.096-.078H79.01c-.063 0-.085.023-.107.079l-2.25 6.809c-.032.088.011.144.108.144h1.658c.053 0 .076-.022.097-.077l.29-.836c.022-.056.044-.078.13-.078h1.29c.088 0 .12.022.142.078l.28.836c.02.055.032.078.096.078h1.69c.118 0 .129-.056.097-.145zm-2.53-2.262c.011.055-.021.1-.097.1h-.623c-.087 0-.119-.045-.108-.1l.193-.87c.15-.658.226-1.371.226-1.371h.033s.075.713.204 1.371l.172.87zm-10.074.456v-3.131c0-1.27-.936-2.096-2.314-2.096h-.754c-1.377 0-2.336.837-2.336 2.096v3.131c0 1.26.937 2.095 2.336 2.095h.754c1.377 0 2.314-.836 2.314-2.095zm-1.787 0c0 .268-.194.458-.527.458h-.754c-.376 0-.57-.179-.57-.458v-3.131c0-.234.258-.468.57-.468h.754c.313 0 .527.201.527.468v3.131zm-13.02 1.805l-2.251-6.809c-.021-.067-.053-.078-.097-.078h-1.173c-.064 0-.086.022-.107.078l-2.25 6.809c-.032.089.01.145.107.145h1.658c.054 0 .075-.022.097-.078l.29-.835c.022-.057.043-.079.13-.079h1.291c.087 0 .119.022.14.079l.28.835c.022.056.032.079.098.079h1.69c.118 0 .128-.057.096-.146zm-2.53-2.262c.01.055-.022.1-.098.1h-.624c-.086 0-.119-.044-.108-.1l.194-.869c.15-.658.226-1.371.226-1.371h.032s.076.713.205 1.371l.172.869zm-37.026 9.309c0 1.258-.936 2.093-2.313 2.093h-.753c-1.397 0-2.334-.835-2.334-2.093v-3.13c0-1.258.958-2.092 2.334-2.092h.753c1.377 0 2.313.823 2.313 2.092v.6h-1.786v-.6c0-.267-.215-.468-.527-.468h-.753c-.311 0-.57.234-.57.468v3.13c0 .278.194.456.57.456h.753c.333 0 .527-.189.527-.456v-.6h1.786v.6zm18.362-3.486v-1.426c0-.09-.065-.112-.097-.112h-4.703c-.053 0-.108.022-.108.112v1.426c0 .078.054.101.108.101h1.319c.118 0 .14.044.14.122v5.161c0 .088.043.111.096.111h1.582c.053 0 .108-.023.108-.11v-5.162c0-.078.021-.122.129-.122h1.33c.053 0 .097-.023.097-.1h-.001zm-5.988 5.384v-6.81c0-.09-.064-.112-.107-.112h-1.518c-.065 0-.097.022-.097.112v1.805c0 .993.054 1.861.054 1.861h-.032s-.086-.244-.237-.534l-1.593-3.143c-.032-.068-.076-.1-.14-.1h-1.367c-.053 0-.097.021-.097.11v6.811c0 .088.044.111.097.111h1.55c.064 0 .107-.022.107-.11V97.22c0-.913-.064-1.794-.064-1.794h.044s.086.245.225.502l1.604 3.076c.032.055.065.1.119.1h1.345c.065 0 .107-.022.107-.11zm18.908-1.896v-3.133c0-1.271-.936-2.095-2.314-2.095h-.753c-1.377 0-2.336.835-2.336 2.095v3.132c0 1.26.936 2.096 2.336 2.096h.753c1.377 0 2.314-.836 2.314-2.096zm-1.786 0c0 .267-.194.456-.528.456h-.753c-.377 0-.57-.178-.57-.457v-3.132c0-.234.257-.468.57-.468h.753c.313 0 .528.2.528.468v3.132zm-4.432 1.863l-1.055-2.8c-.032-.099-.043-.177.054-.244.474-.311.785-.847.785-1.538v-.1c0-1.371-.904-2.208-2.313-2.208h-3.003c-.054 0-.097.023-.097.113v6.81c0 .088.043.111.097.111h1.592c.054 0 .108-.022.108-.11v-2.51c0-.078.032-.122.13-.122h.742c.044 0 .075.022.097.078l.99 2.587c.021.044.053.077.097.077h1.679c.108 0 .13-.067.097-.144zm-1.99-4.57c0 .3-.205.446-.539.446h-1.174c-.097 0-.129-.044-.129-.124v-.88c0-.078.032-.122.13-.122h1.173c.354 0 .538.167.538.468v.212zm-17.186 4.603v-1.427c0-.078-.053-.1-.108-.1h-2.648c-.097 0-.129-.044-.129-.123v-.858c0-.079.033-.123.13-.123h2.174c.053 0 .107-.022.107-.1v-1.438c0-.078-.053-.1-.107-.1h-2.175c-.097 0-.129-.045-.129-.123v-.768c0-.079.033-.124.13-.124h2.648c.064 0 .107-.022.107-.1v-1.426c0-.09-.065-.112-.108-.112h-4.477c-.054 0-.097.022-.097.112v6.81c0 .088.043.111.097.111h4.477c.065 0 .108-.022.108-.11zm66.568 0v-1.427c0-.078-.054-.1-.108-.1h-2.648c-.097 0-.128-.044-.128-.123v-.858c0-.078.032-.123.129-.123h2.173c.054 0 .108-.022.108-.1v-1.439c0-.076-.053-.1-.108-.1h-2.173c-.097 0-.13-.044-.13-.121v-.77c0-.078.032-.122.13-.122h2.647c.065 0 .108-.023.108-.1v-1.427c0-.09-.065-.112-.108-.112h-4.478c-.052 0-.097.022-.097.112v6.81c0 .088.044.111.097.111h4.478c.065 0 .108-.023.108-.11zm-5.963-5.384v-1.426c0-.09-.065-.112-.097-.112h-4.705c-.053 0-.108.022-.108.112v1.426c0 .078.054.101.108.101h1.32c.117 0 .139.044.139.122v5.161c0 .088.043.111.097.111h1.582c.053 0 .108-.023.108-.11v-5.162c0-.078.02-.122.128-.122h1.33c.053 0 .097-.023.097-.1h.001zm-20.741 5.384v-1.427c0-.078-.053-.1-.108-.1H58.56c-.097 0-.129-.044-.129-.123v-.858c0-.078.032-.123.13-.123h2.174c.053 0 .107-.022.107-.1v-1.439c0-.076-.053-.1-.107-.1H58.56c-.097 0-.129-.044-.129-.121v-.77c0-.078.032-.122.13-.122h2.648c.064 0 .107-.023.107-.1v-1.427c0-.09-.065-.112-.108-.112H56.73c-.054 0-.097.022-.097.112v6.81c0 .088.043.111.097.111h4.477c.065 0 .108-.023.108-.11zm-7.833-1.985c0 .235-.237.458-.539.458h-1.173c-.097 0-.13-.044-.13-.123v-3.511c0-.078.034-.122.13-.122h1.174c.29 0 .538.245.538.468v2.83zm1.776-.088v-2.64c0-1.372-.905-2.208-2.314-2.208h-3.004c-.053 0-.097.022-.097.112v6.81c0 .088.044.111.097.111h3.004c1.41 0 2.313-.836 2.313-2.185l.001.001zm21.37 2.04l-1.056-2.8c-.031-.099-.042-.177.054-.244.474-.311.786-.847.786-1.538v-.1c0-1.37-.904-2.208-2.314-2.208h-3.003c-.054 0-.097.023-.097.113v6.81c0 .088.043.111.097.111h1.593c.053 0 .108-.022.108-.11v-2.51c0-.077.031-.122.129-.122h.742c.044 0 .076.023.097.079l.99 2.585c.022.044.054.078.098.078h1.678c.108 0 .13-.067.097-.144zm-1.992-4.57c0 .3-.204.446-.538.446h-1.174c-.097 0-.128-.044-.128-.124v-.88c0-.078.031-.122.129-.122h1.173c.355 0 .538.167.538.468v.212zm-4.562 4.57l-2.25-6.811c-.021-.067-.053-.078-.097-.078h-1.172c-.065 0-.087.022-.108.078l-2.25 6.81c-.033.089.01.145.106.145h1.658c.054 0 .076-.022.097-.078l.292-.835c.02-.056.042-.079.128-.079h1.291c.087 0 .12.023.14.079l.28.835c.022.056.032.078.098.078h1.69c.118 0 .128-.055.097-.144zm-2.53-2.263c.01.055-.021.1-.097.1h-.624c-.086 0-.118-.045-.107-.1l.193-.87c.15-.658.226-1.371.226-1.371h.033s.075.713.204 1.371l.172.87z" fill="#000"/><path fill-rule="evenodd" clip-rule="evenodd" d="M7.344 101.922h83.49V80.346H7.344v21.576zm83.49 2.345H7.345v15.477h83.49v-15.477zM5 122.089h88.178V78H5v44.089z" fill="#000"/><path opacity=".5" fill-rule="evenodd" clip-rule="evenodd" d="M103.525 88.047V90.4a2.634 2.634 0 01-.768.292 4.09 4.09 0 01-.919.103 3.23 3.23 0 01-1.177-.205 2.671 2.671 0 01-.897-.562 2.399 2.399 0 01-.567-.85 2.887 2.887 0 01-.197-1.08c0-.44.078-.84.235-1.203a2.842 2.842 0 011.555-1.542 2.88 2.88 0 011.108-.216 3.504 3.504 0 01.84.106c.141.036.277.078.409.126.131.048.249.105.355.17l-.454.76a1.118 1.118 0 00-.253-.118 3.682 3.682 0 00-.307-.087 2.798 2.798 0 00-.605-.076c-.257 0-.503.052-.738.156a2.119 2.119 0 00-.624.421 1.996 1.996 0 00-.598 1.42c0 .253.048.494.144.722a1.906 1.906 0 001.014 1.021c.237.104.497.156.779.156.101 0 .227-.009.379-.027.151-.017.295-.05.431-.095v-.941h-1.029v-.805h1.884zm3.117 2.749c-.297 0-.576-.05-.836-.148a2.07 2.07 0 01-.677-.414 1.918 1.918 0 01-.454-.642 2.03 2.03 0 01-.166-.831v-3.562h.923v3.539c0 .162.031.314.094.455a1.198 1.198 0 00.64.627c.146.063.305.095.476.095.172 0 .332-.032.481-.095.149-.063.279-.148.39-.254.111-.107.198-.23.261-.373.063-.141.094-.293.094-.455v-3.539h.923v3.562c0 .303-.055.58-.166.831a1.9 1.9 0 01-.458.642 2.096 2.096 0 01-.685.414 2.363 2.363 0 01-.84.148zm3.368-.061v-5.536h3.662v.843h-2.739v1.488h2.436v.866h-2.436v1.473h2.845v.866h-3.768zm4.683 0v-5.536h1.559c.303 0 .579.04.829.121a1.8 1.8 0 01.635.35c.174.152.309.339.405.562.096.223.144.473.144.752 0 .151-.015.303-.046.455a1.97 1.97 0 01-.143.44 1.57 1.57 0 01-.636.699l.325.52.322.513.337.532.378.592h-1.112l-.643-1.006a72.273 72.273 0 00-.583-.9h-.848v1.906h-.923zm.923-2.78h.742c.192 0 .351-.032.477-.098a.934.934 0 00.302-.24.829.829 0 00.159-.303 1.1 1.1 0 00.046-.3 1.18 1.18 0 00-.042-.292.859.859 0 00-.45-.551 1.044 1.044 0 00-.484-.099h-.75v1.884zm8.763-2.756v5.794a3.664 3.664 0 00-.235-.25c-.121-.122-.27-.267-.446-.437l-.587-.562c-.214-.205-.432-.413-.654-.623a194.58 194.58 0 01-1.23-1.177c-.174-.17-.32-.314-.439-.433a3.363 3.363 0 01-.23-.246.778.778 0 00-.061-.08 2.212 2.212 0 01-.091-.118l.023.243v3.425h-.923v-5.787c.035.046.113.128.234.247a56.72 56.72 0 001.033.976l.655.604c.222.205.439.407.65.607l.583.547c.177.165.324.305.443.421.118.117.195.198.231.244l.143.212-.022-.258v-3.349h.923zm1.271 0h.931v5.536h-.931v-5.536zm6.356 5.126a2.67 2.67 0 01-.639.3 3.779 3.779 0 01-.504.121c-.186.033-.386.05-.597.05a2.9 2.9 0 01-1.166-.224 2.592 2.592 0 01-.87-.604 2.62 2.62 0 01-.545-.889 3.05 3.05 0 01-.189-1.07c0-.415.076-.799.227-1.15a2.79 2.79 0 011.525-1.507 2.888 2.888 0 011.108-.214c.152 0 .304.012.458.034.154.023.299.052.435.088.137.035.256.076.36.121a.651.651 0 01.223.145c-.045.07-.081.129-.106.174l-.079.14a20.234 20.234 0 01-.231.414.993.993 0 00-.22-.106 1.793 1.793 0 00-.268-.072 3.518 3.518 0 00-.541-.057c-.283 0-.544.053-.783.16a2.01 2.01 0 00-.621.421 1.922 1.922 0 00-.556 1.333c0 .243.047.48.14.71.093.23.224.434.393.611s.37.32.602.43c.232.108.489.163.772.163.161 0 .318-.017.469-.05.151-.033.285-.07.401-.11a1.87 1.87 0 00.284-.121c.073-.041.112-.069.117-.084l.401.843zm4.078.41l-.079-.19-.14-.334-.182-.437-.204-.497h-1.899l-.605 1.458h-.916l.144-.338c.075-.18.17-.402.283-.668l.379-.889c.139-.326.281-.66.427-.998a1913.563 1913.563 0 00.806-1.887l.284-.669.144-.338a123.29 123.29 0 01.435 1.007 1913.563 1913.563 0 00.806 1.887 272.426 272.426 0 01.805 1.887c.114.266.209.488.284.668l.144.338h-.916zm-2.186-2.24h1.256l-.545-1.322a1.611 1.611 0 01-.083-.273c-.01.05-.026.108-.046.17-.02.064-.03.098-.03.103l-.552 1.322zm-34.721-6.303v-4.004h1.09c.209 0 .401.027.575.083.174.055.324.137.451.245a1.1 1.1 0 01.294.398c.07.156.105.336.105.538 0 .111-.011.22-.033.33a1.26 1.26 0 01-.297.597 1.01 1.01 0 01-.281.217c.147.232.307.489.479.77.172.282.347.557.523.826h-.721c-.074-.114-.15-.234-.229-.36l-.236-.372a46.165 46.165 0 01-.231-.364l-.212-.335h-.671v1.43h-.606zm.605-2h.545c.147 0 .27-.024.369-.074a.67.67 0 00.355-.422.857.857 0 00.036-.232.828.828 0 00-.036-.23.646.646 0 00-.124-.232.696.696 0 00-.234-.18.809.809 0 00-.36-.07h-.55v1.44zm2.851 2v-4.004h2.619v.546h-2.014v1.171h1.794v.558h-1.794v1.171h2.092v.558h-2.697zm4.001-2h.545a.79.79 0 00.368-.077.696.696 0 00.234-.188.695.695 0 00.121-.237.842.842 0 00.036-.226.828.828 0 00-.036-.23.646.646 0 00-.124-.232.682.682 0 00-.233-.18.816.816 0 00-.361-.07h-.55v1.44zm-.606 2v-4.004h1.09c.209 0 .401.027.575.083.174.055.325.137.451.245.127.109.225.241.295.398.069.156.104.336.104.538 0 .159-.024.316-.071.473a1.157 1.157 0 01-.231.42 1.18 1.18 0 01-.419.3 1.523 1.523 0 01-.627.116h-.561v1.43h-.606zm3.176 0v-4.004h2.619v.546h-2.014v1.171h1.794v.558h-1.794v1.171h2.091v.558h-2.696zm6.895-4.004v4.186a3.947 3.947 0 00-.297-.32l-.506-.508a63.32 63.32 0 00-.609-.602c-.214-.21-.417-.41-.608-.6-.19-.19-.357-.358-.5-.508a4.653 4.653 0 01-.287-.317l-.104-.144.016.177v2.64h-.605V78c.04.052.107.125.201.22.093.097.204.208.33.335.127.127.266.264.418.411l.463.448.462.444a31.797 31.797 0 01.746.738c.091.096.155.167.192.215l.105.155-.017-.188v-2.59h.6zm3.263.22l-.214.492c-.151-.055-.3-.1-.449-.132a1.953 1.953 0 00-.426-.05c-.231 0-.416.048-.553.144-.138.095-.207.217-.207.364 0 .125.05.226.149.301.099.076.222.144.369.204.146.061.306.122.478.183.173.06.332.139.479.234.147.096.27.217.369.362.099.146.148.332.148.56 0 .177-.032.337-.096.478a.997.997 0 01-.286.368 1.334 1.334 0 01-.473.237c-.189.055-.41.083-.663.083a2.64 2.64 0 01-.438-.033 2.34 2.34 0 01-.352-.086 1.964 1.964 0 01-.275-.113 3.433 3.433 0 01-.201-.11l.264-.525a2.18 2.18 0 00.98.282c.073 0 .164-.01.272-.028a1.22 1.22 0 00.311-.097.815.815 0 00.256-.185.416.416 0 00.107-.292.44.44 0 00-.085-.274.795.795 0 00-.226-.199 1.965 1.965 0 00-.319-.154 44.418 44.418 0 01-.366-.144 7.129 7.129 0 01-.366-.157 1.402 1.402 0 01-.319-.202.952.952 0 01-.226-.276.782.782 0 01-.085-.378c0-.136.027-.27.083-.403.055-.133.137-.25.247-.354.11-.103.247-.186.41-.248.163-.063.353-.094.57-.094.132 0 .261.01.388.033a4.023 4.023 0 01.605.154c.072.026.118.045.14.056zm3.297 3.784c-.019-.04-.044-.1-.077-.177a138.326 138.326 0 00-.251-.6 28.15 28.15 0 01-.151-.372h-1.409l-.473 1.149h-.594L121.481 78l.118.282a345.806 345.806 0 01.468 1.118l.297.699a234.568 234.568 0 01.771 1.814l.118.279h-.594zm-1.679-1.657h.996l-.146-.35-.126-.31a309.353 309.353 0 01-.168-.411 1.279 1.279 0 01-.055-.199.908.908 0 01-.033.121.912.912 0 01-.028.078l-.44 1.071zm2.768 1.657v-4.004h1.09c.209 0 .401.027.575.083.174.055.325.137.451.245.127.109.225.241.295.398.069.156.104.336.104.538 0 .111-.011.22-.033.33a1.26 1.26 0 01-.297.597 1.01 1.01 0 01-.281.217c.147.232.307.489.479.77.173.282.347.557.523.826h-.721c-.073-.114-.15-.234-.228-.36l-.237-.372a46.165 46.165 0 01-.231-.364l-.212-.335h-.671v1.43h-.606zm.606-2h.544c.147 0 .27-.024.369-.074a.67.67 0 00.355-.422.857.857 0 00.036-.232.828.828 0 00-.036-.23.646.646 0 00-.124-.232.676.676 0 00-.234-.18.809.809 0 00-.36-.07h-.55v1.44z" fill="#000"/><path d="M99 96.5h93" stroke="#000" stroke-opacity=".2" stroke-width=".25"/><path d="M104.981 109.081a3.09 3.09 0 01-.34.19c-.14.074-.31.144-.51.21-.193.06-.413.11-.66.15-.247.047-.51.07-.79.07-.574 0-1.087-.096-1.541-.29a3.485 3.485 0 01-1.15-.8 3.44 3.44 0 01-.72-1.17 4.002 4.002 0 01-.25-1.41c0-.547.1-1.05.3-1.511.2-.466.47-.866.81-1.2a3.732 3.732 0 012.671-1.07c.2 0 .4.017.6.05.207.027.4.063.58.11.18.047.337.1.47.16.14.06.24.123.3.19-.06.093-.107.17-.14.23a5.26 5.26 0 01-.11.19c-.033.06-.073.13-.12.21-.04.08-.1.19-.18.33-.08-.053-.177-.1-.29-.14a2.017 2.017 0 00-.36-.09 3.66 3.66 0 00-.71-.08c-.374 0-.72.07-1.04.21a2.593 2.593 0 00-1.361 1.361c-.126.306-.19.623-.19.95 0 .32.06.633.18.94.127.3.3.567.52.8.227.233.494.424.801.57.306.14.646.21 1.02.21.213 0 .42-.02.62-.06.2-.046.377-.096.53-.15.153-.053.277-.106.37-.16.1-.053.153-.09.16-.11l.53 1.11zm.231-3.09c0-.507.097-.987.29-1.441.2-.453.467-.85.801-1.19.34-.34.733-.61 1.18-.81.453-.2.937-.3 1.45-.3.507 0 .987.1 1.44.3.454.2.851.47 1.191.81.34.34.606.737.8 1.19.2.454.3.934.3 1.441 0 .513-.1.997-.3 1.45a3.78 3.78 0 01-.8 1.18c-.34.334-.737.597-1.191.79-.453.194-.933.29-1.44.29-.513 0-.997-.096-1.45-.29a3.837 3.837 0 01-1.18-.79 3.998 3.998 0 01-.801-1.18 3.663 3.663 0 01-.29-1.45zm1.231 0c0 .353.063.687.19 1 .133.307.313.577.54.81.233.227.5.407.8.54.307.134.637.2.99.2.34 0 .66-.066.96-.2.307-.133.57-.313.79-.54a2.54 2.54 0 00.531-.81c.133-.313.2-.647.2-1 0-.354-.067-.684-.2-.99a2.67 2.67 0 00-.541-.821 2.488 2.488 0 00-1.77-.75 2.437 2.437 0 00-1.77.75c-.22.234-.397.507-.53.821-.127.306-.19.636-.19.99zm13.866-3.661v7.632c-.047-.06-.15-.17-.31-.331-.16-.16-.357-.35-.59-.57a51.804 51.804 0 00-.78-.74c-.28-.273-.567-.547-.86-.82l-.861-.82c-.28-.267-.536-.51-.77-.73-.226-.227-.42-.417-.58-.57a5.585 5.585 0 01-.3-.33.713.713 0 00-.08-.1 4.737 4.737 0 01-.12-.16l.03.32v4.51h-1.22V102c.047.06.15.17.31.33a131.795 131.795 0 001.36 1.28c.287.26.577.527.87.8.294.267.58.534.861.801.28.26.536.5.77.72.233.213.426.397.58.55.16.153.263.26.31.32l.19.28-.03-.34v-4.411h1.22zm6.047 0v1.17h-1.801v6.121h-1.23V103.5h-1.76v-1.17h4.791zm1.265 7.291v-7.291h2.06c.4 0 .763.053 1.09.16.334.107.614.26.84.46.234.2.414.447.54.74.127.294.19.624.19.991 0 .2-.02.4-.06.6-.04.2-.103.393-.19.58-.086.186-.2.36-.34.52-.14.153-.306.287-.5.4.147.233.29.463.43.69.14.22.28.443.42.67a1104.877 1104.877 0 00.951 1.48h-1.471l-.85-1.32c-.267-.42-.523-.817-.77-1.19h-1.12v2.51h-1.22zm1.22-3.66h.98c.253 0 .463-.044.63-.13.167-.087.3-.19.4-.31.1-.127.17-.26.21-.4.04-.147.06-.28.06-.4a1.4 1.4 0 00-.06-.381 1.024 1.024 0 00-.2-.41 1.112 1.112 0 00-.39-.32 1.393 1.393 0 00-.64-.13h-.99v2.481zm9.619 3.66l-.11-.25c-.047-.12-.107-.266-.18-.44a437.21 437.21 0 01-.24-.57l-.27-.66h-2.511l-.8 1.92h-1.21c.027-.06.09-.206.19-.44a162.451 162.451 0 01.87-2.05l.57-1.32c.194-.447.38-.884.56-1.311.187-.433.354-.823.501-1.17l.38-.88c.1-.24.163-.39.19-.45.026.06.09.21.19.45.106.233.233.527.38.88.153.347.32.737.5 1.17.187.427.377.864.57 1.311.193.446.38.887.56 1.32.187.427.353.817.5 1.17.154.347.28.64.38.88l.19.44h-1.21zm-2.891-2.95h1.661l-.72-1.74a.641.641 0 01-.05-.13 2.218 2.218 0 01-.06-.231 2.87 2.87 0 01-.06.231c-.027.08-.04.123-.04.13l-.731 1.74zm4.655 1.24v-1.01h1.87v1.01h-1.87zm7.75 1.71l-.11-.25c-.047-.12-.107-.266-.18-.44l-.241-.57a80.557 80.557 0 00-.27-.66h-2.51l-.8 1.92h-1.21l.19-.44a162.451 162.451 0 01.87-2.05l.57-1.32c.193-.447.38-.884.56-1.311.187-.433.353-.823.5-1.17l.38-.88c.1-.24.164-.39.19-.45.027.06.09.21.19.45.107.233.234.527.38.88.154.347.32.737.5 1.17l.571 1.311c.193.446.38.887.56 1.32.186.427.353.817.5 1.17.153.347.28.64.38.88.1.234.163.38.19.44h-1.21zm-2.891-2.95h1.66l-.72-1.74a.818.818 0 01-.05-.13 2.87 2.87 0 01-.06-.231 2.218 2.218 0 01-.06.231c-.026.08-.04.123-.04.13l-.73 1.74zm4.944 2.95v-7.291h2.061c.4 0 .763.053 1.09.16.333.107.613.26.84.46.233.2.413.447.54.74.127.294.19.624.19.991 0 .2-.02.4-.06.6-.04.2-.103.393-.19.58-.087.186-.2.36-.34.52-.14.153-.307.287-.5.4.147.233.29.463.43.69.14.22.28.443.42.67.147.227.297.46.45.7l.5.78h-1.47l-.85-1.32c-.267-.42-.524-.817-.77-1.19h-1.121v2.51h-1.22zm1.22-3.66h.981c.253 0 .463-.044.63-.13.166-.087.3-.19.4-.31.1-.127.17-.26.21-.4.04-.147.06-.28.06-.4a1.4 1.4 0 00-.06-.381 1.13 1.13 0 00-.59-.73 1.393 1.393 0 00-.64-.13h-.991v2.481zm10.513 3.12c-.08.054-.194.117-.34.19-.14.074-.31.144-.51.21-.194.06-.414.11-.661.15-.246.047-.51.07-.79.07-.573 0-1.087-.096-1.54-.29a3.478 3.478 0 01-1.15-.8 3.42 3.42 0 01-.72-1.17 3.995 3.995 0 01-.25-1.41c0-.547.1-1.05.3-1.511.2-.466.47-.866.81-1.2.346-.34.747-.603 1.2-.79a3.865 3.865 0 012.07-.23c.207.027.4.063.58.11.181.047.337.1.471.16.14.06.24.123.3.19-.06.093-.107.17-.14.23-.034.06-.07.124-.11.19l-.12.21c-.04.08-.1.19-.18.33-.08-.053-.177-.1-.291-.14a2.017 2.017 0 00-.36-.09 3.614 3.614 0 00-.71-.08c-.373 0-.72.07-1.04.21-.313.14-.587.327-.82.56a2.456 2.456 0 00-.73 1.751c0 .32.06.633.18.94.126.3.3.567.52.8.227.233.493.424.8.57.307.14.647.21 1.02.21.214 0 .42-.02.62-.06.2-.046.377-.096.53-.15.154-.053.277-.106.371-.16.1-.053.153-.09.16-.11l.53 1.11zm.906.54v-7.291h1.231v3.041h3.48v-3.041h1.24v2c0 .514-.003 1.064-.01 1.651v3.64h-1.23v-3.08h-3.48v3.08h-1.231zm7.629-7.291h1.23v7.291h-1.23v-7.291zm3.281 0l1.95 4.691c0 .007.013.053.04.14a1.6 1.6 0 01.06.23 1.6 1.6 0 01.06-.23.758.758 0 01.05-.14l1.95-4.691h1.211c-.027.06-.09.21-.19.45-.1.24-.227.537-.381.89-.146.347-.313.737-.5 1.171-.18.426-.366.863-.56 1.31-.193.44-.383.877-.57 1.31-.18.433-.347.827-.5 1.18-.147.347-.273.64-.38.88-.1.234-.163.381-.19.441-.027-.06-.09-.207-.19-.441-.1-.24-.227-.533-.38-.88-.147-.353-.314-.747-.5-1.18-.18-.433-.367-.87-.56-1.31l-.57-1.31a57.376 57.376 0 00-.501-1.171l-.37-.89c-.1-.24-.163-.39-.19-.45h1.211zm5.381 3.661c0-.507.097-.987.29-1.441.2-.453.467-.85.8-1.19.34-.34.734-.61 1.181-.81.453-.2.936-.3 1.45-.3.507 0 .987.1 1.44.3.453.2.85.47 1.19.81.34.34.607.737.8 1.19.2.454.301.934.301 1.441 0 .513-.101.997-.301 1.45-.193.447-.46.84-.8 1.18-.34.334-.737.597-1.19.79-.453.194-.933.29-1.44.29-.514 0-.997-.096-1.45-.29a3.842 3.842 0 01-1.181-.79c-.333-.34-.6-.733-.8-1.18a3.663 3.663 0 01-.29-1.45zm1.23 0c0 .353.064.687.19 1 .134.307.314.577.54.81.234.227.501.407.801.54.306.134.636.2.99.2.34 0 .66-.066.96-.2.307-.133.57-.313.79-.54.227-.233.404-.503.53-.81.134-.313.2-.647.2-1a2.44 2.44 0 00-.2-.99 2.65 2.65 0 00-.54-.821 2.5 2.5 0 00-.8-.55c-.3-.133-.623-.2-.97-.2a2.433 2.433 0 00-1.771.75c-.22.234-.396.507-.53.821-.126.306-.19.636-.19.99zm11.648-3.251l-.44 1c-.28-.1-.557-.18-.83-.24a3.56 3.56 0 00-.76-.09c-.407 0-.73.08-.97.24-.234.16-.35.364-.35.61 0 .214.086.387.26.521.18.133.403.253.67.36.267.106.553.216.86.33.313.106.603.246.87.42.267.173.487.393.66.66.18.267.27.607.27 1.02 0 .32-.06.61-.18.87-.113.26-.286.484-.52.67-.233.187-.53.334-.89.44-.353.1-.77.15-1.25.15a4.881 4.881 0 01-1.451-.21 4.669 4.669 0 01-.5-.19 4.6 4.6 0 01-.38-.21l.53-1.07c.28.154.581.274.901.36.32.08.603.12.85.12.12 0 .273-.013.46-.04.193-.026.38-.076.56-.15.18-.073.333-.173.46-.3.133-.127.2-.29.2-.49a.702.702 0 00-.27-.57 2.402 2.402 0 00-.66-.4 12.38 12.38 0 00-.87-.35 5.703 5.703 0 01-.86-.4 2.474 2.474 0 01-.671-.58c-.173-.234-.26-.527-.26-.881 0-.253.05-.5.15-.74.1-.246.25-.466.45-.66.207-.193.461-.35.761-.47a2.95 2.95 0 011.08-.18c.26 0 .51.023.75.07.247.04.467.087.66.14.193.053.354.107.48.16.127.047.204.073.23.08zM99 117.671c0-.507.047-.99.14-1.45a7.81 7.81 0 01.37-1.281c.16-.4.34-.76.54-1.08.2-.32.407-.59.62-.81l.46.12c.16.033.317.07.471.11a6.21 6.21 0 00-.581.79 6.72 6.72 0 00-.5 1.02 7.536 7.536 0 00-.36 1.211c-.086.433-.13.89-.13 1.37 0 .48.044.937.13 1.37.094.434.214.837.36 1.21.147.374.314.711.5 1.011.194.306.387.57.581.79a6.009 6.009 0 01-.471.12l-.46.12a5.3 5.3 0 01-.62-.82c-.2-.32-.38-.677-.54-1.071a7.77 7.77 0 01-.37-1.28 7.28 7.28 0 01-.14-1.45zm3.528-4.341h1.23v7.291h-1.23v-7.291zm2.911-.32l.22.32.42.6c.173.234.363.494.57.78.213.287.426.58.64.88.22.294.433.584.64.871a104.583 104.583 0 01.98 1.36c.12.153.194.25.22.29l.18-.25.4-.57c.167-.227.354-.484.56-.77.207-.294.421-.59.641-.89.22-.301.433-.597.64-.891l.58-.8c.18-.24.33-.443.45-.61l.23-.32v7.611h-1.31v-3.72c0-.054.006-.11.02-.17a.85.85 0 00.02-.11l-2.411 3.47a12.78 12.78 0 01-.25-.33 52.3 52.3 0 00-.46-.64c-.18-.247-.37-.51-.57-.79-.2-.287-.39-.55-.57-.79a22.216 22.216 0 00-.45-.62 5.35 5.35 0 01-.2-.3c0 .013.006.05.02.11.013.06.02.116.02.17v3.72h-1.23v-7.611zm10.914 4.701a7.228 7.228 0 01-.52 2.73 6.36 6.36 0 01-.53 1.071 5.3 5.3 0 01-.62.82l-.93-.21c.2-.22.393-.484.58-.79.187-.307.353-.644.5-1.011a7.1 7.1 0 00.35-1.21c.093-.44.14-.9.14-1.38 0-.48-.047-.937-.14-1.37a7.139 7.139 0 00-.35-1.211 6.211 6.211 0 00-.5-1.01 5.662 5.662 0 00-.58-.8l.46-.12c.16-.047.317-.093.47-.14.213.227.42.5.62.82.2.32.377.677.53 1.07.16.394.287.824.38 1.291.094.46.14.943.14 1.45zm2.408-.75h.98c.253 0 .463-.044.63-.13.167-.087.3-.194.4-.32.1-.134.17-.27.21-.41.04-.147.06-.277.06-.39 0-.107-.02-.231-.06-.371a1.024 1.024 0 00-.2-.41 1.112 1.112 0 00-.39-.32 1.393 1.393 0 00-.64-.13h-.99v2.481zm-1.221 3.66v-7.291h2.061c.4 0 .763.053 1.09.16.333.107.614.26.84.46.234.2.414.447.54.74.127.294.19.624.19.991 0 .293-.043.586-.13.88a2.14 2.14 0 01-.43.78 2.204 2.204 0 01-.76.56c-.313.14-.7.21-1.16.21h-1.02v2.51h-1.221zm5.352-3.63c0-.507.096-.987.29-1.441.2-.453.466-.85.8-1.19.34-.34.733-.61 1.18-.81.453-.2.937-.3 1.45-.3.507 0 .987.1 1.441.3.453.2.85.47 1.19.81.34.34.607.737.8 1.19.2.454.3.934.3 1.441 0 .513-.1.997-.3 1.45-.193.447-.46.84-.8 1.18-.34.334-.737.597-1.19.79-.454.194-.934.29-1.441.29-.513 0-.997-.096-1.45-.29a3.837 3.837 0 01-1.18-.79c-.334-.34-.6-.733-.8-1.18a3.646 3.646 0 01-.29-1.45zm1.23 0c0 .353.063.687.19 1 .133.307.313.577.54.81.233.227.5.407.8.54.307.134.637.2.99.2.34 0 .66-.066.96-.2.307-.133.571-.313.791-.54.226-.233.403-.503.53-.81.133-.313.2-.647.2-1 0-.354-.067-.684-.2-.99a2.686 2.686 0 00-.54-.821 2.504 2.504 0 00-.801-.55c-.3-.133-.623-.2-.97-.2a2.44 2.44 0 00-.98.2c-.3.134-.563.317-.79.55-.22.234-.397.507-.53.821-.127.306-.19.636-.19.99zm11.648-3.251l-.44 1c-.28-.1-.557-.18-.83-.24a3.57 3.57 0 00-.761-.09c-.406 0-.73.08-.97.24-.233.16-.35.364-.35.61 0 .214.087.387.26.521.18.133.404.253.67.36.267.106.554.216.86.33.314.106.604.246.871.42.266.173.486.393.66.66.18.267.27.607.27 1.02 0 .32-.06.61-.18.87-.114.26-.287.484-.52.67a2.57 2.57 0 01-.891.44c-.353.1-.77.15-1.25.15a4.89 4.89 0 01-1.45-.21 4.588 4.588 0 01-.5-.19 4.293 4.293 0 01-.38-.21l.53-1.07c.28.154.58.274.9.36.32.08.604.12.85.12.12 0 .274-.013.46-.04a2.25 2.25 0 00.56-.15c.18-.073.334-.173.461-.3.133-.127.2-.29.2-.49a.702.702 0 00-.27-.57 2.423 2.423 0 00-.661-.4 12 12 0 00-.87-.35 5.75 5.75 0 01-.86-.4 2.47 2.47 0 01-.67-.58c-.173-.234-.26-.527-.26-.881 0-.253.05-.5.15-.74.1-.246.25-.466.45-.66.207-.193.46-.35.76-.47.307-.12.667-.18 1.08-.18.26 0 .51.023.75.07.247.04.467.087.661.14.193.053.353.107.48.16.126.047.203.073.23.08zm1.413-.41h1.23v7.291h-1.23v-7.291zm4.131 1.11v1.981h.92c.34 0 .59-.1.75-.3.167-.2.25-.44.25-.721 0-.326-.1-.566-.3-.72-.2-.16-.47-.24-.81-.24h-.81zm0 3.021v2.05h.96c.18 0 .35-.02.51-.06.16-.046.3-.11.42-.19a.904.904 0 00.28-.32c.067-.133.1-.287.1-.46a.885.885 0 00-.44-.8 1.393 1.393 0 00-.46-.17 2.674 2.674 0 00-.52-.05h-.85zm-1.22 3.16v-7.291h1.99c.36 0 .687.037.98.11.294.067.544.177.75.33.207.147.364.344.47.59.114.24.17.53.17.87 0 .187-.02.371-.06.551a1.598 1.598 0 01-.18.49c-.08.146-.186.276-.32.39-.133.113-.3.2-.5.26.167.033.334.09.5.17.174.08.327.19.46.33.134.133.24.303.321.51.086.2.13.437.13.71 0 .353-.07.657-.211.91-.133.247-.313.45-.54.61a2.19 2.19 0 01-.77.35c-.293.074-.597.11-.91.11h-2.28zm5.948 0v-7.291h1.22v6.131h3.541v1.16h-4.761zm5.753 0v-7.291h4.841v1.11h-3.621v1.961h3.221v1.14h-3.221v1.94h3.761v1.14h-4.981zm10.494-6.881l-.441 1c-.28-.1-.556-.18-.83-.24a3.553 3.553 0 00-.76-.09c-.407 0-.73.08-.97.24-.233.16-.35.364-.35.61 0 .214.087.387.26.521.18.133.403.253.67.36.267.106.554.216.86.33.314.106.604.246.87.42.267.173.487.393.661.66.18.267.27.607.27 1.02 0 .32-.06.61-.18.87a1.74 1.74 0 01-.521.67c-.233.187-.53.334-.89.44-.353.1-.77.15-1.25.15a4.89 4.89 0 01-1.45-.21 4.51 4.51 0 01-.5-.19 4.293 4.293 0 01-.38-.21l.53-1.07c.28.154.58.274.9.36.32.08.603.12.85.12.12 0 .273-.013.46-.04.193-.026.38-.076.56-.15.18-.073.334-.173.46-.3.134-.127.2-.29.2-.49a.702.702 0 00-.27-.57 2.402 2.402 0 00-.66-.4 12.38 12.38 0 00-.87-.35 5.75 5.75 0 01-.86-.4 2.47 2.47 0 01-.67-.58c-.174-.234-.26-.527-.26-.881 0-.253.05-.5.15-.74.1-.246.25-.466.45-.66.206-.193.46-.35.76-.47.307-.12.667-.18 1.08-.18.26 0 .51.023.75.07.247.04.467.087.66.14.194.053.354.107.48.16a3.5 3.5 0 00.231.08z" fill="#000"/></svg>