<svg width="200" height="200" fill="none" xmlns="http://www.w3.org/2000/svg"><path fill="#fff" d="M0 0h200v200H0z"/><g clip-path="url(#clip0)" fill="#000"><path d="M48.536 75.964c3.785.215 3.857 6.607-.608 6.286v8.464H57.5v5.357h-9.572V107c1.036-.036 1.786-.036 2.786-.036-1.035 5.786-2.035 11.893-3.143 17.893-.5 2.286-.428 4.857-2.464 4.857-1.571 0-1.5-1.714-2.178-4.928-.786-4.322-.93-5-.893-5.036-1.143-6.357-1.072-6.714-2.286-12.75h2.75V96.036h-9.536v-5.357H42.5V82.32c-4.25.143-4.464-5.964-.607-6.357.821-1.75 1.428-5.928 3.357-5.928 2.178 0 2.321 4.107 3.286 5.928zM30.643 87.821c.035 1.179-.036 7.108-.036 10.643l-1.071-.714c-.786-.536-1.358-.857-2.215-1.464-1.25-.857-3.143-1.607-3.143-3.107-.035-1.322.965-1.715 4.25-3.929 1.322-.893 1.893-1.25 2.215-1.429zm29.107-.035c1.107.678 4.322 2.678 5.75 3.821 2.357 2.214-1.464 4.036-2.893 5.036-1 .678-1.964 1.321-2.893 1.857V87.786h.036zm89.464 23.75c.322.285.679.535 1.072.714-.357.643-1 1.143-1.572 1.643-2.285 1.964-5.464 3.643-9.357 3.964-6.678.536-12.964-2.536-13.607-9-.429-4.214 1.643-7.5 3.964-9.286 2.607-2.035 6.25-3.357 10.572-3.607 3.035-.178 6.535.143 8.571 1.215.822.464 1.786 1.428 1.643 2.607-.214 1.75-2.893 2.143-4.607 1.5-2.5-.929-3.5-3.822-6.857-3.75-2.107.035-3.929 1.321-4.893 2.535-.929 1.143-1.75 3.179-1.929 4.965-.535 5.071 2.107 9.964 7.215 10.357 4.642.393 7.142-1.893 9.785-3.857zm25.572 0c.321.285.678.535 1.071.714-.357.643-1 1.143-1.571 1.643-2.322 2-5.5 3.643-9.357 3.964-7.965.643-14.465-3.75-13.608-11.321.322-2.893 2-5.393 3.893-6.929 2.607-2.071 6.429-3.428 10.679-3.678 3.071-.179 6.643.178 8.571 1.214.75.428 1.893 1.357 1.572 2.821-.322 1.465-2.822 1.893-4.465 1.286-2.857-1.036-4.357-4.643-8.5-3.464-5.571 1.607-7.178 11.107-2.607 15.714 1.322.857 2.643 1.714 4.536 1.857 4.464.429 7.429-1.964 9.786-3.821zm-86.5-4.679c-1.608.857-5.429 2.143-6.715 3.393-1.178 1.143-1.321 3.714 0 4.964 2.5 1.75 5.143-.535 7-1.428-.035-2.322.108-4.857-.071-7.072-.107 0-.143.107-.214.143zm11.178 7.322c.179.285.286.571.5.785-1.785 1.465-5.857 4.143-9.357 3.179-1.143-.322-1.928-1.393-2-2.964-2.143 1.214-4.071 3.25-8.071 3.107-3.108-.107-6.072-1.5-6.429-4.536-.286-2.393 1.322-4.036 2.822-4.75 3.214-1.607 8.857-1.821 11.678-3.821.036-2.679.143-5.286-1.857-6.429-1.75-1-6.143-.643-6.179 1.643 0 .714.393 1 .643 1.571-1.535.429-2.821.929-4.393 1.429-.392.143-1.25.5-1.5.428-.642-.142-.892-1.392-.785-1.928.142-.786.857-1.536 1.357-2 2.071-1.929 5.785-3.286 9.428-3.607 3.822-.322 7.429.857 8.786 2.964 1.143 1.786.714 6.429.714 9.429 0 1.5-.464 6.178.786 6.714 1.393.607 2.964-.857 3.857-1.214zm10-16.25c-2.678.678-3.857 3.321-4.321 6.321h11.964c-.214-4.179-3.143-7.5-7.643-6.321zm15.143 6.392v1.358h-19.536c.143 3.25 1.286 5.928 3.322 7.571 1.321 1.071 3.286 1.857 5.536 2 3.964.321 6.821-1.679 9.142-3.536.465.215.75.572 1.143.786-2.678 4.036-8.714 6.25-15.428 5.679-3.322-.286-6.572-1.965-8.143-4.25-1.5-2.179-2.179-5.608-1.572-8.572.429-2.071 1.715-4.036 3.036-5.321 2.429-2.357 5.893-3.465 10.143-3.679 4.536-.214 8.25 1.429 9.929 4.322.785 1.321.892 3 2.428 3.642zm2.893 16.608c.036.25-.036.892-.071 1.071-.357 2.25-.322 1.857-.643 3.857 0 .072-.179 1.036-.429 2.107.286.143.607-.428.822-.535.071-.036.071.142.143.178-.25.25-.75.75-1.179.929-.143.035-.357.035-.429-.179-.321-.286.143-2.393.393-3.75.214-1.107.393-2.071.536-3.036-.179-.035-.572.286-.572.286-.071-.071-.142-.071-.214-.178.429-.322 1.286-.715 1.643-.75zm15.571.107H144c-.393.785-.821 1.5-1.286 2.178h-.428c.178-.785.571-1.357.785-2.178zm-34.892 1.321h.214c-.036.536-.322.964-.393 1.429.179 0 .25-.036.75 0v.5h-.893a74.088 74.088 0 00-.536 3.107c-.035.214-.071.393 0 .5.429.036.786-.643.893-.679.072 0 .107.072.215.107-.429.536-1.25 1.358-1.822 1.108-.036-.036-.178-.286-.143-.465.072-.785.5-2.535.572-3.678h-.429c0-.072 0-.286.036-.286.178 0 .286-.071.464-.25.107-.107.357-.321.536-.5.214-.25.357-.536.536-.893zm-9.429 1.964c-.214-.178-.179-.178-.5-.071-.464.393-.857 1.286-.893 2.286-.036.464.107 1.071.357 1.428a.642.642 0 00.715-.143c.535-.535.785-1.857.607-2.821a1.196 1.196 0 00-.286-.679zm.428-.571c.215.036.465.286.608.571.321.858.178 2.25-.393 3.036-.572.607-1.357 1.286-2.072 1.107-.928-.25-.857-1.893-.714-2.357.143-.5.179-.607.393-.928.393-.572.821-1.036 1.25-1.25.178-.072.5-.25.928-.179zm3.501.036c.214.143 0 1.143-.143 2.214.035-.036.035 0 .071-.036.393-.464.572-.785 1.072-1.5.678-.678 1.071-1 1.392-.535.072.107 0 .75-.035 1.142a27.851 27.851 0 01-.607 2.715c0 .071.107.035.178.035.179-.071.322-.25.714-.75 0 .036.179.143.143.143-.785 1.072-1.428 1.5-1.785 1.179-.358-.357.821-3.714.5-3.929-.25-.214-1.572 1.679-1.75 2.107-.072.143-.286 1.143-.322 1.858h-.821c.143-1.322.643-3.25.607-3.75-.107-.108-.322.321-.5.535 0 0-.25-.071-.286-.071.214-.322.536-.75.857-1.107.143-.143.286-.286.429-.393.071.071.143.036.286.143zm8.071-.072c.179.072.25.072.25.322.036.464-.321 1.535-.429 2.321-.071.572 0 .429 0 .572.393-.893.822-3.143 1.679-3.25.214 0 .25.035.286.107.178.25-.036.678-.143.857-.214 0-.464-.143-.643 0-.429.321-.929 2.5-1.429 3.75-.285 0-.5.036-.75 0-.035-.536.536-3.143.572-3.429.036-.285.036-.464-.036-.428-.143-.215-.321.285-.5.357-.036.036-.143-.072-.178-.143.178-.107.642-.964 1.321-1.036zm11.857 2.429c.464-.214.822-.357 1.143-.786.357-.5.286-1.25-.071-1.214-.715.286-1.036 1.143-1.072 2zm1.964-2.143c.679 1.321-1 2.036-2.107 2.357-.143.679-.107 1.464.357 1.714.786.108.965-.214 1.465-.464 0 .036.143.107.107.143-.857.821-2.214 1.25-2.714.25-.679-1.321.642-4.536 2.607-4.179.107.036.25.108.285.179zm28.393.786c-.285.143-.5.071-.607-.107-.107-.179-.25-.393-.571-.358-.215.215-.357.608-.429.822-.393 1.393-.607 2.786-.036 2.928.572.179.893-.464 1.179-.642.071-.036.143.035.25.035-.821 1.179-2.25 1.5-2.607.429-.464-1.429 1.107-4.607 2.536-4.036.25.107.5.607.285.929zm-39.107 2.928c.429 0 1.036-.714 1.393-1.178.036-.036.25-1.5.321-2-1.214 0-1.75 1.071-1.821 2.214 0 .357.036.714.107.964zm2.679-3.893a63.463 63.463 0 01-.643 3.893c.036.036.071.072.107.072.179 0 .321-.357.5-.357 0 .035.107.071.071.107-.285.393-.75.964-1.392 1-.286-.357-.036-.893 0-1.393-.286.25-1.322 1.357-1.643 1.357-.393 0-.679-.464-.572-1.357.215-1.607 1.322-3.464 3.572-3.322zm-20.714-2.142c-.143.678-.143 1.035-.322 1.821 0 0-.357.036-.357 0-.036-.429 0-.714-.107-1-.179-.5-.536-.679-1.072-.857-2.785-.429-4.535 2.964-3.535 5.321.821 2 3.607 1.357 4.428-.535 0 0 .322-.036.286.035-.072.643-.393 1.286-.464 1.929-.75-.143-2.036.321-3.286.143-2.5-.322-2.964-3.572-1.607-5.465 1.321-1.785 3.607-2.142 6.035-1.392zm50.821 2.178c.214.143 0 1.143-.143 2.214.036-.035.036 0 .071-.035.393-.465.572-.786 1.072-1.5.678-.679 1.071-1 1.393-.536.071.107 0 .75-.036 1.143a27.83 27.83 0 01-.607 2.714c0 .072.107.036.178.036.179-.072.322-.25.715-.75 0 .036.178.143.143.143-.786 1.071-1.429 1.5-1.786 1.178-.357-.357.821-3.714.5-3.928-.25-.215-1.572 1.678-1.75 2.107-.072.143-.286 1.143-.322 1.857h-.821c.143-1.321.643-3.25.607-3.75-.107-.107-.321.321-.5.536 0 0-.25-.072-.286-.072.215-.321.536-.75.858-1.107a4.14 4.14 0 01.428-.393c.107.072.143.072.286.143zm12.643-.036c.178.072.25.072.25.322.035.464-.322 1.536-.429 2.321-.071.572 0 .429 0 .572.393-.893.822-3.143 1.679-3.25.214 0 .25.035.285.107.179.25 0 .678-.142.857-.215 0-.465-.143-.643 0-.429.321-.929 2.5-1.429 3.75-.286 0-.5.036-.75 0-.036-.536.536-3.143.572-3.429.035-.285.035-.464-.036-.428-.143-.214-.322.286-.5.357-.036.036-.143-.071-.179-.107.179-.143.643-1 1.322-1.072zm-19.822-2.107c-.143.679-.143 1.036-.321 1.822 0 0-.357.035-.357 0-.036-.429 0-.715-.107-1-.179-.5-.536-.679-1.072-.857-2.786-.429-4.536 2.964-3.536 5.321.822 2 3.608 1.357 4.429-.536 0 0 .321-.035.286.036-.072.643-.393 1.286-.465 1.929-.75-.143-2.035.321-3.285.142-2.5-.321-2.965-3.571-1.607-5.464 1.321-1.786 3.607-2.143 6.035-1.393zm1.786 6.072c.429 0 1.036-.715 1.393-1.179.036-.036.25-1.5.321-2-1.214 0-1.75 1.072-1.821 2.214 0 .358.036.715.107.965zm2.679-3.893a63.59 63.59 0 01-.643 3.893c.035.035.071.071.107.071.178 0 .321-.357.5-.357 0 .036.107.071.071.107-.285.393-.75.964-1.393 1-.285-.357-.035-.893 0-1.393-.285.25-1.321 1.357-1.642 1.357-.393 0-.679-.464-.572-1.357.214-1.607 1.322-3.464 3.572-3.321zm11.178 2.214c.464-.214.822-.357 1.143-.786.357-.5.286-1.25-.071-1.214-.715.322-1.036 1.179-1.072 2zm1.964-2.107c.679 1.321-1 2.036-2.107 2.357-.143.679-.107 1.464.357 1.714.786.108.965-.214 1.465-.464 0 .036.143.107.071.143-.857.821-2.214 1.25-2.714.25-.679-1.321.643-4.536 2.607-4.179.143.036.286.108.321.179z"/></g><defs><clipPath id="clip0"><path fill="#fff" transform="translate(24 70)" d="M0 0h152.143v60H0z"/></clipPath></defs></svg>