<svg width="528" height="278" viewBox="0 0 528 278" fill="none" xmlns="http://www.w3.org/2000/svg">
<rect width="528" height="278" fill="#008168"/>
<path d="M298.348 142.996C294.249 142.996 290.149 143.035 286.05 142.996C285.095 142.996 284.259 143.195 283.463 143.752C280.04 146.14 276.617 148.488 273.194 150.836C272.239 151.473 271.244 152.19 270.09 151.632C268.975 151.075 269.174 149.841 269.134 148.807C268.935 145.105 269.214 141.404 268.896 137.742C268.816 136.627 268.458 135.792 267.741 134.956C258.348 123.812 260.498 106.339 272.318 97.9807C275.662 95.5926 279.443 94.1996 283.622 94.1996C292.537 94.1598 301.493 94.0404 310.408 94.1996C320.995 94.3986 330.746 103.752 331.861 114.299C332.657 121.782 331.502 128.667 326.647 134.598C322.348 139.891 316.657 142.757 309.811 142.956C306.03 143.075 302.209 142.996 298.348 142.996ZM311.881 112.349C311.522 111.035 310.687 110.2 309.493 109.642C308.537 109.165 307.861 109.324 307.025 110.08C300.935 115.533 293.294 115.453 287.005 109.961C285.93 109.045 284.179 109.324 283.104 110.757C282.308 111.831 281.711 112.826 283.184 114.14C288.478 118.797 288.478 126.279 283.184 130.976C281.592 132.369 282.388 133.443 283.264 134.478C284.458 135.911 286.01 136.07 287.124 135.035C293.015 129.662 301.134 129.662 306.985 135.035C308.099 136.07 309.572 135.871 310.846 134.518C311.96 133.364 311.96 132.448 310.647 131.254C304.796 125.961 304.955 118.717 310.965 113.662C311.363 113.224 311.92 112.986 311.881 112.349ZM297.194 110.717C300.816 110.677 303.721 108.011 303.761 104.707C303.761 101.324 300.776 98.6573 296.995 98.6971C293.453 98.7369 290.348 101.563 290.388 104.707C290.388 108.011 293.493 110.757 297.194 110.717Z" fill="white"/>
<path d="M202.428 170.338C199.124 170.338 195.821 170.418 192.517 170.298C190.726 170.259 190.886 170.856 191.602 172.05C194.308 176.507 200.478 178.099 204.975 175.433C205.493 175.114 205.93 174.756 206.448 174.438C207.96 173.522 209.831 173.801 210.706 175.074C211.622 176.388 211.264 178.099 209.871 179.293C205.095 183.313 196.935 183.671 191.483 180.169C185.154 176.069 182.687 168.865 185.274 162.06C187.741 155.532 194.905 151.393 201.99 152.428C209.711 153.542 214.567 158.278 215.761 165.801C216.239 168.905 215.085 170.298 211.98 170.298C208.756 170.338 205.612 170.338 202.428 170.338ZM209.154 164.487C207.761 160.706 204.418 158.199 200.557 158.079C196.577 157.96 193.393 159.592 191.323 163.134C190.925 163.811 190.567 164.487 191.92 164.487C197.612 164.487 203.303 164.487 209.154 164.487Z" fill="white"/>
<path d="M243.662 155.532C243.662 153.025 243.662 150.876 243.662 148.726C243.662 146.935 244.776 146.1 246.408 145.901C248 145.702 249.592 146.896 249.632 148.448C249.632 155.572 250.388 162.776 249.393 169.821C247.721 181.443 233.393 186.697 224.159 179.453C218.945 175.353 216.876 168.985 218.826 163.055C220.736 157.085 226.348 152.866 232.756 152.468C236.577 152.189 240.119 153.105 243.662 155.532ZM233.91 176.786C239.244 176.786 243.662 172.488 243.622 167.353C243.582 162.418 239.045 158.159 233.831 158.12C228.537 158.12 224.159 162.418 224.199 167.592C224.239 172.766 228.537 176.826 233.91 176.786Z" fill="white"/>
<path d="M327.761 152.35C336.557 152.31 343.522 158.877 343.642 167.355C343.761 175.594 336.716 182.638 328.199 182.678C319.164 182.718 312.04 176.191 312 167.832C311.96 158.957 318.647 152.39 327.761 152.35ZM327.721 176.708C333.055 176.708 337.393 172.609 337.393 167.514C337.393 162.459 333.015 158.161 327.801 158.121C322.667 158.081 318.09 162.459 318.05 167.395C318.05 172.449 322.468 176.708 327.721 176.708Z" fill="white"/>
<path d="M281.632 167.552C281.632 171.373 281.632 175.234 281.632 179.055C281.632 180.647 281.234 182 279.562 182.477C278.01 182.955 276.657 182.477 275.901 180.965C275.303 179.771 274.746 180.607 274.189 180.885C267.383 184.308 259.463 182.557 255.005 176.627C253.015 174 252.219 170.975 252.179 167.711C252.139 163.89 252.139 160.03 252.179 156.209C252.179 153.701 253.373 152.268 255.363 152.308C257.274 152.348 258.348 153.701 258.348 156.169C258.348 160.149 258.308 164.089 258.348 168.069C258.388 173.005 261.93 176.666 266.746 176.706C271.721 176.786 275.463 173.244 275.582 168.268C275.662 164.169 275.622 160.069 275.622 155.97C275.622 153.661 276.736 152.308 278.567 152.268C280.557 152.229 281.672 153.542 281.672 155.97C281.672 159.87 281.632 163.691 281.632 167.552Z" fill="white"/>
<path d="M300.259 152.348C303.801 152.268 307.025 153.303 309.811 155.532C311.522 156.885 311.881 158.557 310.846 159.99C309.771 161.462 307.94 161.661 306.109 160.348C303.682 158.637 301.095 157.761 298.109 158.438C294.289 159.313 291.622 161.502 290.706 165.283C289.751 169.184 290.985 172.527 294.289 174.875C297.592 177.184 301.134 177.423 304.756 175.512C305.393 175.194 305.95 174.676 306.587 174.318C308.099 173.443 309.97 173.801 310.846 175.074C311.721 176.388 311.403 178.099 310.01 179.293C305.075 183.472 296.915 183.831 291.303 180.169C285.532 176.388 282.985 169.741 284.816 163.293C286.687 156.885 292.776 152.388 299.662 152.348C299.861 152.348 300.06 152.348 300.259 152.348Z" fill="white"/>
</svg>
