<svg width="528" height="278" viewBox="0 0 528 278" fill="none" xmlns="http://www.w3.org/2000/svg">
<rect width="528" height="278" fill="#F8F8F8"/>
<path fill-rule="evenodd" clip-rule="evenodd" d="M173.97 136.537H176.204C178.972 136.537 180.372 135.537 180.372 133.569C180.372 132.602 180.039 131.869 179.405 131.368C178.772 130.868 177.905 130.635 176.804 130.635H173.97V136.537ZM190.242 147.34V151.609H182.573L176.871 140.572H174.003V147.34H177.171V151.609H164V147.34H167.468V130.635H164V126.367H179.205C182.073 126.367 184.14 127.1 185.374 128.534C186.641 129.968 187.274 131.602 187.274 133.436C187.274 136.303 185.807 138.404 182.906 139.705L187.008 147.307H190.242V147.34ZM207.848 130.602C205.914 130.602 204.28 131.335 202.913 132.769C201.579 134.236 200.912 136.337 200.912 139.138C200.912 141.605 201.579 143.606 202.913 145.073C204.247 146.574 205.881 147.307 207.848 147.307C209.782 147.307 211.416 146.574 212.783 145.14C214.15 143.673 214.817 141.572 214.817 138.838C214.817 136.403 214.183 134.403 212.883 132.869C211.583 131.368 209.915 130.602 207.848 130.602ZM207.848 126C212.183 126 215.617 127.267 218.118 129.768C220.619 132.269 221.853 135.336 221.853 138.971C221.853 142.606 220.619 145.673 218.118 148.174C215.617 150.675 212.183 151.909 207.848 151.909C203.346 151.909 199.879 150.608 197.478 148.041C195.077 145.44 193.843 142.439 193.843 138.938C193.843 135.336 195.077 132.269 197.545 129.768C200.045 127.267 203.48 126 207.848 126ZM237.558 147.34H239.125C241.026 147.34 242.56 147.107 243.66 146.607C244.794 146.107 245.694 145.24 246.361 144.006C247.028 142.739 247.361 141.105 247.361 139.104C247.361 137.17 247.028 135.537 246.327 134.203C245.661 132.869 244.727 131.935 243.56 131.435C242.393 130.935 240.926 130.668 239.125 130.668H237.558V147.34ZM227.188 151.609V147.34H231.022V130.635H227.188V126.367H239.125C241.626 126.367 243.66 126.534 245.194 126.834C246.728 127.134 248.195 127.834 249.595 128.868C250.996 129.935 252.129 131.335 252.963 133.102C253.797 134.87 254.23 136.837 254.23 139.004C254.23 140.772 253.93 142.439 253.33 144.039C252.73 145.607 251.996 146.907 251.129 147.874C250.262 148.841 249.195 149.608 247.995 150.208C246.761 150.775 245.661 151.142 244.627 151.308C243.627 151.475 242.026 151.542 239.892 151.542H227.188V151.609ZM259.132 151.609V147.34H262.966V130.635H259.132V126.367H273.37V130.635H269.502V147.34H273.37V151.609H259.132ZM280.372 151.609V147.34H283.973V130.635H280.372V126.367H294.21V130.635H290.542V147.34H297.978V139.538H302.88V151.575H280.372V151.609ZM309.549 151.609V147.34H313.15V130.635H309.549V126.367H323.386V130.635H319.719V147.34H327.154V139.538H332.056V151.575H309.549V151.609ZM352.63 139.338L350.529 131.735L348.261 139.338H352.63ZM364 147.34V151.609H351.596V147.34H354.83L353.63 143.006H347.094L345.761 147.34H349.128V151.609H337.958V147.34H341.059L345.961 130.635H342.593V126.367H359.065V130.635H355.664L360.966 147.34H364Z" fill="black"/>
</svg>
