<svg width="528" height="278" fill="none" xmlns="http://www.w3.org/2000/svg"><path fill="#F8F8F8" d="M0 0h528v278H0z"/><path fill-rule="evenodd" clip-rule="evenodd" d="M173.97 136.537h2.234c2.768 0 4.168-1 4.168-2.968 0-.967-.333-1.7-.967-2.201-.633-.5-1.5-.733-2.601-.733h-2.834v5.902zm16.272 10.803v4.269h-7.669l-5.702-11.037h-2.868v6.768h3.168v4.269H164v-4.269h3.468v-16.705H164v-4.268h15.205c2.868 0 4.935.733 6.169 2.167 1.267 1.434 1.9 3.068 1.9 4.902 0 2.867-1.467 4.968-4.368 6.269l4.102 7.602h3.234v.033zm17.606-16.738c-1.934 0-3.568.733-4.935 2.167-1.334 1.467-2.001 3.568-2.001 6.369 0 2.467.667 4.468 2.001 5.935 1.334 1.501 2.968 2.234 4.935 2.234 1.934 0 3.568-.733 4.935-2.167 1.367-1.467 2.034-3.568 2.034-6.302 0-2.435-.634-4.435-1.934-5.969-1.3-1.501-2.968-2.267-5.035-2.267zm0-4.602c4.335 0 7.769 1.267 10.27 3.768 2.501 2.501 3.735 5.568 3.735 9.203s-1.234 6.702-3.735 9.203c-2.501 2.501-5.935 3.735-10.27 3.735-4.502 0-7.969-1.301-10.37-3.868-2.401-2.601-3.635-5.602-3.635-9.103 0-3.602 1.234-6.669 3.702-9.17 2.5-2.501 5.935-3.768 10.303-3.768zm29.71 21.34h1.567c1.901 0 3.435-.233 4.535-.733 1.134-.5 2.034-1.367 2.701-2.601.667-1.267 1-2.901 1-4.902 0-1.934-.333-3.567-1.034-4.901-.666-1.334-1.6-2.268-2.767-2.768-1.167-.5-2.634-.767-4.435-.767h-1.567v16.672zm-10.37 4.269v-4.269h3.834v-16.705h-3.834v-4.268h11.937c2.501 0 4.535.167 6.069.467 1.534.3 3.001 1 4.401 2.034 1.401 1.067 2.534 2.467 3.368 4.234.834 1.768 1.267 3.735 1.267 5.902 0 1.768-.3 3.435-.9 5.035-.6 1.568-1.334 2.868-2.201 3.835-.867.967-1.934 1.734-3.134 2.334-1.234.567-2.334.934-3.368 1.1-1 .167-2.601.234-4.735.234h-12.704v.067zm31.944 0v-4.269h3.834v-16.705h-3.834v-4.268h14.238v4.268h-3.868v16.705h3.868v4.269h-14.238zm21.24 0v-4.269h3.601v-16.705h-3.601v-4.268h13.838v4.268h-3.668v16.705h7.436v-7.802h4.902v12.037h-22.508v.034zm29.177 0v-4.269h3.601v-16.705h-3.601v-4.268h13.837v4.268h-3.667v16.705h7.435v-7.802h4.902v12.037h-22.507v.034zm43.081-12.271l-2.101-7.603-2.268 7.603h4.369zM364 147.34v4.269h-12.404v-4.269h3.234l-1.2-4.334h-6.536l-1.333 4.334h3.367v4.269h-11.17v-4.269h3.101l4.902-16.705h-3.368v-4.268h16.472v4.268h-3.401l5.302 16.705H364z" fill="#000"/></svg>