<svg width="528" height="278" viewBox="0 0 528 278" fill="none" xmlns="http://www.w3.org/2000/svg">
<rect width="528" height="278" fill="black"/>
<path d="M144.541 138.976V140.571H140.679V146.112H139V134.358H145.716V135.953H140.679V138.976H144.541Z" fill="white"/>
<path d="M154.36 146.28C153.632 146.28 152.955 146.146 152.328 145.877C151.701 145.597 151.164 145.216 150.716 144.735C150.336 144.321 150.033 143.834 149.81 143.274C149.597 142.715 149.491 142.037 149.491 141.243V134.358H151.17V141.327C151.17 141.886 151.231 142.351 151.354 142.72C151.489 143.078 151.673 143.386 151.908 143.644C152.199 143.968 152.552 144.226 152.966 144.416C153.392 144.595 153.856 144.685 154.36 144.685C154.864 144.685 155.323 144.595 155.737 144.416C156.162 144.226 156.52 143.968 156.811 143.644C157.047 143.386 157.226 143.078 157.349 142.72C157.483 142.351 157.55 141.886 157.55 141.327V134.358H159.229V141.243C159.229 142.037 159.117 142.715 158.894 143.274C158.681 143.834 158.384 144.321 158.004 144.735C157.556 145.216 157.019 145.597 156.392 145.877C155.765 146.146 155.088 146.28 154.36 146.28Z" fill="white"/>
<path d="M165.866 137.481V146.112H164.187V134.358H165.362L172.414 142.989V134.358H174.093V146.112H172.918L165.866 137.481Z" fill="white"/>
<path d="M187.434 140.235C187.434 139.575 187.306 138.959 187.048 138.388C186.802 137.817 186.455 137.336 186.007 136.944C185.638 136.619 185.19 136.373 184.664 136.205C184.149 136.037 183.477 135.953 182.649 135.953H180.886V144.517H182.649C183.477 144.517 184.149 144.433 184.664 144.265C185.19 144.097 185.638 143.851 186.007 143.526C186.455 143.134 186.802 142.653 187.048 142.082C187.306 141.511 187.434 140.896 187.434 140.235ZM179.207 146.112V134.358H182.733C183.673 134.358 184.457 134.453 185.084 134.644C185.722 134.834 186.282 135.108 186.763 135.466C187.49 136.004 188.061 136.687 188.476 137.515C188.901 138.343 189.114 139.25 189.114 140.235C189.114 141.22 188.907 142.127 188.492 142.955C188.078 143.784 187.507 144.466 186.78 145.004C186.298 145.362 185.739 145.636 185.101 145.827C184.462 146.017 183.673 146.112 182.733 146.112H179.207Z" fill="white"/>
<path d="M199.807 143.09H194.854L193.628 146.112H191.882L196.751 134.358H197.926L202.796 146.112H201.049L199.807 143.09ZM195.525 141.494H199.152L197.339 137.129L195.525 141.494Z" fill="white"/>
<path d="M205.569 140.235C205.569 139.384 205.72 138.595 206.022 137.868C206.324 137.129 206.739 136.491 207.265 135.953C207.802 135.405 208.429 134.974 209.145 134.66C209.873 134.347 210.662 134.19 211.513 134.19C212.352 134.19 213.147 134.353 213.897 134.677C214.658 134.991 215.297 135.433 215.811 136.004L214.686 137.112C214.339 136.731 213.88 136.418 213.31 136.172C212.75 135.914 212.151 135.785 211.513 135.785C210.908 135.785 210.349 135.897 209.834 136.121C209.319 136.345 208.866 136.659 208.474 137.062C208.093 137.453 207.791 137.924 207.567 138.472C207.354 139.009 207.248 139.597 207.248 140.235C207.248 140.896 207.36 141.5 207.584 142.049C207.808 142.597 208.116 143.067 208.507 143.459C208.91 143.851 209.38 144.153 209.918 144.366C210.455 144.578 211.037 144.685 211.664 144.685C212.056 144.685 212.42 144.634 212.755 144.534C213.102 144.433 213.416 144.304 213.696 144.147C213.976 143.991 214.228 143.817 214.451 143.627C214.675 143.425 214.871 143.224 215.039 143.022L216.231 144.097C215.974 144.422 215.677 144.718 215.341 144.987C215.005 145.256 214.642 145.485 214.25 145.675C213.858 145.866 213.438 146.011 212.991 146.112C212.554 146.224 212.112 146.28 211.664 146.28C210.791 146.28 209.979 146.129 209.229 145.827C208.491 145.524 207.847 145.105 207.298 144.567C206.761 144.03 206.336 143.392 206.022 142.653C205.72 141.914 205.569 141.108 205.569 140.235Z" fill="white"/>
<path d="M220.184 134.358H221.863V146.112H220.184V134.358Z" fill="white"/>
<path d="M226.066 140.235C226.066 139.384 226.217 138.59 226.519 137.851C226.821 137.112 227.236 136.474 227.762 135.937C228.288 135.388 228.909 134.963 229.626 134.66C230.342 134.347 231.114 134.19 231.943 134.19C232.771 134.19 233.543 134.347 234.26 134.66C234.976 134.963 235.598 135.388 236.124 135.937C236.65 136.474 237.064 137.112 237.366 137.851C237.669 138.59 237.82 139.384 237.82 140.235C237.82 141.097 237.669 141.897 237.366 142.636C237.064 143.364 236.65 144.002 236.124 144.55C235.598 145.088 234.976 145.513 234.26 145.827C233.543 146.129 232.771 146.28 231.943 146.28C231.114 146.28 230.342 146.129 229.626 145.827C228.909 145.513 228.288 145.088 227.762 144.55C227.236 144.002 226.821 143.364 226.519 142.636C226.217 141.897 226.066 141.097 226.066 140.235ZM227.745 140.235C227.745 140.873 227.851 141.466 228.064 142.015C228.277 142.552 228.568 143.022 228.937 143.425C229.318 143.817 229.76 144.125 230.264 144.349C230.779 144.573 231.338 144.685 231.943 144.685C232.547 144.685 233.101 144.573 233.605 144.349C234.12 144.125 234.562 143.817 234.932 143.425C235.312 143.022 235.609 142.552 235.821 142.015C236.034 141.466 236.141 140.873 236.141 140.235C236.141 139.597 236.034 139.009 235.821 138.472C235.609 137.924 235.312 137.453 234.932 137.062C234.562 136.659 234.12 136.345 233.605 136.121C233.101 135.897 232.547 135.785 231.943 135.785C231.338 135.785 230.779 135.897 230.264 136.121C229.76 136.345 229.318 136.659 228.937 137.062C228.568 137.453 228.277 137.924 228.064 138.472C227.851 139.009 227.745 139.597 227.745 140.235ZM231.355 133.519L232.446 131H234.21L232.446 133.519H231.355Z" fill="white"/>
<path d="M243.689 137.481V146.112H242.01V134.358H243.185L250.237 142.989V134.358H251.916V146.112H250.741L243.689 137.481Z" fill="white"/>
<path d="M263.638 143.744C263.772 144.036 263.973 144.265 264.242 144.433C264.522 144.601 264.841 144.685 265.199 144.685C265.457 144.685 265.703 144.623 265.938 144.5C266.184 144.377 266.38 144.22 266.526 144.03C266.626 143.896 266.705 143.733 266.761 143.543C266.817 143.341 266.845 143.062 266.845 142.703V134.358H268.524V142.586C268.524 143.056 268.49 143.448 268.423 143.761C268.356 144.063 268.255 144.338 268.121 144.584C267.83 145.088 267.427 145.496 266.912 145.81C266.397 146.123 265.826 146.28 265.199 146.28C264.516 146.28 263.901 146.118 263.352 145.793C262.804 145.457 262.401 144.987 262.143 144.383L263.638 143.744Z" fill="white"/>
<path d="M278.178 146.28C277.45 146.28 276.773 146.146 276.146 145.877C275.519 145.597 274.982 145.216 274.534 144.735C274.154 144.321 273.851 143.834 273.628 143.274C273.415 142.715 273.309 142.037 273.309 141.243V134.358H274.988V141.327C274.988 141.886 275.049 142.351 275.172 142.72C275.307 143.078 275.491 143.386 275.726 143.644C276.018 143.968 276.37 144.226 276.784 144.416C277.21 144.595 277.674 144.685 278.178 144.685C278.682 144.685 279.141 144.595 279.555 144.416C279.98 144.226 280.338 143.968 280.629 143.644C280.865 143.386 281.044 143.078 281.167 142.72C281.301 142.351 281.368 141.886 281.368 141.327V134.358H283.047V141.243C283.047 142.037 282.935 142.715 282.712 143.274C282.499 143.834 282.202 144.321 281.822 144.735C281.374 145.216 280.837 145.597 280.21 145.877C279.583 146.146 278.906 146.28 278.178 146.28Z" fill="white"/>
<path d="M294.503 143.09H289.55L288.324 146.112H286.577L291.447 134.358H292.622L297.492 146.112H295.745L294.503 143.09ZM290.221 141.494H293.848L292.035 137.129L290.221 141.494Z" fill="white"/>
<path d="M302.867 137.481V146.112H301.188V134.358H302.364L309.416 142.989V134.358H311.095V146.112H309.92L302.867 137.481Z" fill="white"/>
<path d="M329.13 143.593H327.954L324.512 138.203V146.112H322.833V134.358H324.009L328.542 141.528L333.076 134.358H334.251V146.112H332.572V138.203L329.13 143.593Z" fill="white"/>
<path d="M345.876 143.09H340.923L339.697 146.112H337.951L342.82 134.358H343.996L348.865 146.112H347.119L345.876 143.09ZM341.595 141.494H345.222L343.408 137.129L341.595 141.494Z" fill="white"/>
<path d="M354.241 140.571V146.112H352.562V134.358H356.676C357.213 134.358 357.661 134.42 358.019 134.543C358.377 134.655 358.691 134.823 358.959 135.047C359.318 135.338 359.597 135.69 359.799 136.104C360.012 136.519 360.118 136.972 360.118 137.465C360.118 137.957 360.012 138.41 359.799 138.825C359.597 139.239 359.318 139.591 358.959 139.882C358.769 140.039 358.562 140.168 358.338 140.269C358.125 140.369 357.874 140.448 357.583 140.504L361.797 146.112H359.765L355.584 140.571H354.241ZM356.592 138.976C356.972 138.976 357.269 138.937 357.482 138.858C357.694 138.78 357.868 138.674 358.002 138.539C358.293 138.248 358.439 137.89 358.439 137.465C358.439 137.252 358.4 137.056 358.321 136.877C358.243 136.687 358.137 136.524 358.002 136.39C357.868 136.256 357.694 136.149 357.482 136.071C357.269 135.993 356.972 135.953 356.592 135.953H354.241V138.976H356.592Z" fill="white"/>
<path d="M364.478 140.235C364.478 139.384 364.629 138.595 364.931 137.868C365.233 137.129 365.648 136.491 366.174 135.953C366.711 135.405 367.338 134.974 368.054 134.66C368.782 134.347 369.571 134.19 370.422 134.19C371.261 134.19 372.056 134.353 372.806 134.677C373.567 134.991 374.205 135.433 374.72 136.004L373.595 137.112C373.248 136.731 372.789 136.418 372.218 136.172C371.659 135.914 371.06 135.785 370.422 135.785C369.817 135.785 369.258 135.897 368.743 136.121C368.228 136.345 367.774 136.659 367.383 137.062C367.002 137.453 366.7 137.924 366.476 138.472C366.263 139.009 366.157 139.597 366.157 140.235C366.157 140.896 366.269 141.5 366.493 142.049C366.717 142.597 367.024 143.067 367.416 143.459C367.819 143.851 368.289 144.153 368.827 144.366C369.364 144.578 369.946 144.685 370.573 144.685C370.965 144.685 371.329 144.634 371.664 144.534C372.011 144.433 372.325 144.304 372.605 144.147C372.885 143.991 373.136 143.817 373.36 143.627C373.584 143.425 373.78 143.224 373.948 143.022L375.14 144.097C374.883 144.422 374.586 144.718 374.25 144.987C373.914 145.256 373.551 145.485 373.159 145.675C372.767 145.866 372.347 146.011 371.899 146.112C371.463 146.224 371.021 146.28 370.573 146.28C369.7 146.28 368.888 146.129 368.138 145.827C367.399 145.524 366.756 145.105 366.207 144.567C365.67 144.03 365.245 143.392 364.931 142.653C364.629 141.914 364.478 141.108 364.478 140.235Z" fill="white"/>
<path d="M387.321 140.571H380.772V146.112H379.093V134.358H380.772V138.976H387.321V134.358H389V146.112H387.321V140.571Z" fill="white"/>
</svg>
