<svg width="672" height="1222" fill="none" xmlns="http://www.w3.org/2000/svg"><g clip-path="url(#clip0)"><path d="M-311 127v948h421.183c213.977 0 345.343-97.509 345.343-260.023 0-127.303-75.84-218.04-203.143-239.708C355.309 550.891 418.96 470.989 418.96 364c0-147.617-121.886-237-318.257-237H-311zm159.806 142.2H92.577c101.572 0 162.514 43.337 162.514 123.24 0 79.903-60.942 127.303-162.514 127.303h-243.771V269.2zm0 391.389H92.577c124.594 0 199.08 50.108 199.08 134.074 0 89.383-74.486 138.137-199.08 138.137h-243.771V660.589z" fill="#132631" fill-opacity=".05"/></g><defs><clipPath id="clip0"><path fill="#fff" d="M0 0h672v1222H0z"/></clipPath></defs></svg>