<svg width="824" height="1222" fill="none" xmlns="http://www.w3.org/2000/svg"><path d="M53 137v948h421.183c213.977 0 345.343-97.509 345.343-260.023 0-127.303-75.84-218.04-203.143-239.708C719.309 560.891 782.96 480.989 782.96 374c0-147.617-121.886-237-318.257-237H53zm159.806 142.2h243.771c101.572 0 162.514 43.337 162.514 123.24 0 79.903-60.942 127.303-162.514 127.303H212.806V279.2zm0 391.389h243.771c124.594 0 199.08 50.108 199.08 134.074 0 89.383-74.486 138.137-199.08 138.137H212.806V670.589z" fill="#132631" fill-opacity=".05"/></svg>