<svg width="824" height="1222" fill="none" xmlns="http://www.w3.org/2000/svg"><path d="M411.999 1085c-77.955 0-148.261-20.19-210.917-60.57-62.657-41.252-111.834-97.869-147.534-169.847C17.85 781.728 0 700.533 0 611c0-89.533 17.849-170.289 53.548-242.267 35.7-72.855 84.877-129.472 147.534-169.85C263.738 157.628 334.044 137 411.999 137c77.956 0 148.263 20.628 210.92 61.883 62.656 40.378 111.833 96.556 147.533 168.534C806.151 439.394 824 520.589 824 611s-17.849 171.606-53.548 243.583c-35.7 71.978-84.877 128.595-147.533 169.847-62.657 40.38-132.964 60.57-210.92 60.57zm0-150.1c51 0 96.899-13.606 137.698-40.817 40.8-28.089 72.857-66.711 96.171-115.866 23.314-50.034 34.97-105.773 34.97-167.217 0-61.444-11.656-116.744-34.97-165.9-23.314-50.033-55.371-88.656-96.171-115.867-40.799-28.089-86.698-42.133-137.698-42.133-50.999 0-96.897 14.044-137.696 42.133-40.8 27.211-72.857 65.834-96.171 115.867-23.314 49.156-34.97 104.456-34.97 165.9s11.656 117.183 34.97 167.217c23.314 49.155 55.371 87.777 96.171 115.866C315.102 921.294 361 934.9 411.999 934.9z" fill="#132631" fill-opacity=".05"/></svg>