<svg width="1440" viewBox="50 0 1490 597" xmlns="http://www.w3.org/2000/svg" xmlns:xlink="http://www.w3.org/1999/xlink"><g id="trayecto"><path d="M-62.881 410.729s75.932-21.356 144.745 3.56c68.814 24.914 136.441 142.372 223.051 151.864 86.61 9.491 148.321-27.818 148.305-85.424-.008-31.012-27.288-52.204-66.44-52.204-39.153 0-54.577 46.272-53.39 66.441 1.186 20.17 47.604 85.48 158.983 78.305 87.743-5.652 98.474-121.017 287.119-224.237 188.644-103.22 404.576-81.865 462.711-55.763 58.136 26.102 109.153 130.509 8.306 162.543C1149.66 487.847 1120 330.05 1200.678 254.119c80.678-75.933 134.068-150.509 421.695-166.61" id="trayecto-path" stroke="#DCDCDC" stroke-width="6" fill="none" stroke-dasharray="15 5"/></g><g id="cohete" transform="rotate(40 57.313 -51.975)"><path id="cohete-fill" d="M69.742 4.316c.305 1.425.458 3.332.458 5.722 0 3.51-.407 7.375-1.22 11.597-.865 4.679-2.048 8.837-3.548 12.473-1.5 3.637-3.14 6.345-4.921 8.125-1.272 1.272-3.764 2.925-7.477 4.96a170.7 170.7 0 00-2.822 1.449c-.865 3-2.645 6.637-5.34 10.91-3.052 4.984-5.748 8.34-8.088 10.07a2.863 2.863 0 01-1.678.534c-.254 0-.509-.025-.763-.076-.865-.255-1.45-.814-1.755-1.679a37.884 37.884 0 01-.686-1.602c-1.526-4.018-2.696-6.866-3.51-8.545L13.744 43.53c-1.627-.814-4.45-1.983-8.468-3.51a7.456 7.456 0 01-.877-.304 17.175 17.175 0 00-.801-.305c-.865-.306-1.424-.903-1.679-1.793-.254-.89-.102-1.691.458-2.404 1.78-2.34 5.137-5.06 10.07-8.163 4.222-2.644 7.858-4.425 10.91-5.34.509-.966.992-1.882 1.45-2.747 2.034-3.662 3.687-6.128 4.959-7.4 1.424-1.424 3.407-2.772 5.95-4.043 2.492-1.17 5.34-2.213 8.545-3.128 6.307-1.73 12.283-2.594 17.928-2.594 2.29 0 4.12.178 5.493.534l1.603.381z" fill="#fff" fill-opacity="1" fill-rule="evenodd" stroke="none" stroke-width=".95"/><path id="cohete-stroke" fill="#E73F39" d="M71.518 2.65c.321 1.5.482 3.507.482 6.023 0 3.694-.428 7.763-1.285 12.207-.91 4.925-2.155 9.302-3.734 13.13-1.58 3.828-3.306 6.679-5.18 8.553-1.338 1.338-3.962 3.078-7.87 5.22a179.7 179.7 0 00-2.971 1.525c-.91 3.16-2.784 6.987-5.622 11.484-3.212 5.247-6.05 8.78-8.512 10.6a3.014 3.014 0 01-1.767.563c-.268 0-.535-.027-.803-.08-.91-.268-1.526-.857-1.847-1.767a39.879 39.879 0 01-.723-1.687c-1.606-4.23-2.837-7.227-3.694-8.994l-15.419-15.5c-1.713-.856-4.685-2.087-8.914-3.693a7.848 7.848 0 01-.924-.322 18.08 18.08 0 00-.843-.32C.982 39.27.393 38.64.125 37.703c-.267-.937-.107-1.78.482-2.53 1.874-2.462 5.408-5.327 10.6-8.592 4.444-2.784 8.272-4.658 11.485-5.622.535-1.017 1.044-1.98 1.525-2.891 2.142-3.855 3.882-6.451 5.22-7.79 1.5-1.499 3.587-2.918 6.264-4.256 2.624-1.231 5.622-2.329 8.995-3.293C51.334.91 57.626 0 63.568 0c2.409 0 4.336.187 5.782.562l1.686.402.482 1.686zM18.435 30.115c.161-.375.348-.83.563-1.365a94.53 94.53 0 00-4.739 2.73c-2.302 1.446-4.336 2.891-6.103 4.337 2.838 1.07 5.033 1.98 6.585 2.73a701.52 701.52 0 013.694-8.432zM40.52 57.741a63.231 63.231 0 002.65-4.739c-.75.375-1.151.563-1.205.563a336.615 336.615 0 01-8.512 3.694c.75 1.66 1.66 3.854 2.73 6.585 1.446-1.767 2.891-3.801 4.337-6.103zM66.218 8.593c0-.964-.027-1.874-.08-2.73-.75-.054-1.58-.08-2.49-.08-5.514 0-11.296.856-17.346 2.569-3.052.803-5.729 1.767-8.03 2.89-2.142 1.018-3.722 2.035-4.739 3.053-.91.963-2.302 3.158-4.176 6.585-1.713 3.105-3.614 6.96-5.702 11.564a478.808 478.808 0 00-4.336 10.119L29.437 52.68a409.347 409.347 0 0010.12-4.336c4.603-2.088 8.458-3.989 11.563-5.702 3.48-1.874 5.675-3.266 6.585-4.176 1.392-1.392 2.73-3.72 4.016-6.987 1.392-3.426 2.516-7.308 3.373-11.644.75-4.07 1.124-7.817 1.124-11.243zM9.762 55.25c1.928 0 3.574.683 4.94 2.048 1.364 1.365 2.047 2.985 2.047 4.858a6.72 6.72 0 01-1.405 4.176 7.303 7.303 0 01-3.574 2.57l-9.958 2.972a.894.894 0 01-.402.08c-.374 0-.696-.134-.963-.402a1.314 1.314 0 01-.402-.963c0-.161.027-.295.08-.402L3.097 60.15a7.168 7.168 0 012.53-3.534c1.204-.91 2.583-1.365 4.135-1.365zm31.4-29.553c0-1.445.495-2.663 1.486-3.654.99-.99 2.208-1.485 3.654-1.485 1.445 0 2.663.495 3.654 1.485.99.99 1.485 2.209 1.485 3.654 0 1.446-.495 2.664-1.485 3.654-.99.99-2.209 1.486-3.654 1.486-1.446 0-2.664-.495-3.654-1.486-.99-.99-1.486-2.208-1.486-3.654z"/><animateMotion id="cohete-path-animation" dur="3.5s" rotate="auto" begin="0" calcMode="spline" keyTimes="0 ; 0.25 ; 0.5 ; 0.75 ; 1" keySplines="0.5 0 0.5 1 ; 0.5 0 0.5 1 ; 0.5 0 0.5 1 ; 0.5 0 0.5 1"><mpath xlink:href="#trayecto-path"/></animateMotion></g><g id="cohete2" transform="rotate(-2 13120.951 -16275.509)" opacity="0"><path id="cohete2-fill" d="M69.742 4.316c.305 1.425.458 3.332.458 5.722 0 3.51-.407 7.375-1.22 11.597-.865 4.679-2.048 8.837-3.548 12.473-1.5 3.637-3.14 6.345-4.921 8.125-1.272 1.272-3.764 2.925-7.477 4.96a170.7 170.7 0 00-2.822 1.449c-.865 3-2.645 6.637-5.34 10.91-3.052 4.984-5.748 8.34-8.088 10.07a2.863 2.863 0 01-1.678.534c-.254 0-.509-.025-.763-.076-.865-.255-1.45-.814-1.755-1.679a37.884 37.884 0 01-.686-1.602c-1.526-4.018-2.696-6.866-3.51-8.545L13.744 43.53c-1.627-.814-4.45-1.983-8.468-3.51a7.456 7.456 0 01-.877-.304 17.175 17.175 0 00-.801-.305c-.865-.306-1.424-.903-1.679-1.793-.254-.89-.102-1.691.458-2.404 1.78-2.34 5.137-5.06 10.07-8.163 4.222-2.644 7.858-4.425 10.91-5.34.509-.966.992-1.882 1.45-2.747 2.034-3.662 3.687-6.128 4.959-7.4 1.424-1.424 3.407-2.772 5.95-4.043 2.492-1.17 5.34-2.213 8.545-3.128 6.307-1.73 12.283-2.594 17.928-2.594 2.29 0 4.12.178 5.493.534l1.603.381z" fill="#fff" fill-opacity="1" fill-rule="evenodd" stroke="none" stroke-width=".95"/><path id="cohete2-stroke" fill="#E73F39" d="M71.518 2.65c.321 1.5.482 3.507.482 6.023 0 3.694-.428 7.763-1.285 12.207-.91 4.925-2.155 9.302-3.734 13.13-1.58 3.828-3.306 6.679-5.18 8.553-1.338 1.338-3.962 3.078-7.87 5.22a179.7 179.7 0 00-2.971 1.525c-.91 3.16-2.784 6.987-5.622 11.484-3.212 5.247-6.05 8.78-8.512 10.6a3.014 3.014 0 01-1.767.563c-.268 0-.535-.027-.803-.08-.91-.268-1.526-.857-1.847-1.767a39.879 39.879 0 01-.723-1.687c-1.606-4.23-2.837-7.227-3.694-8.994l-15.419-15.5c-1.713-.856-4.685-2.087-8.914-3.693a7.848 7.848 0 01-.924-.322 18.08 18.08 0 00-.843-.32C.982 39.27.393 38.64.125 37.703c-.267-.937-.107-1.78.482-2.53 1.874-2.462 5.408-5.327 10.6-8.592 4.444-2.784 8.272-4.658 11.485-5.622.535-1.017 1.044-1.98 1.525-2.891 2.142-3.855 3.882-6.451 5.22-7.79 1.5-1.499 3.587-2.918 6.264-4.256 2.624-1.231 5.622-2.329 8.995-3.293C51.334.91 57.626 0 63.568 0c2.409 0 4.336.187 5.782.562l1.686.402.482 1.686zM18.435 30.115c.161-.375.348-.83.563-1.365a94.53 94.53 0 00-4.739 2.73c-2.302 1.446-4.336 2.891-6.103 4.337 2.838 1.07 5.033 1.98 6.585 2.73a701.52 701.52 0 013.694-8.432zM40.52 57.741a63.231 63.231 0 002.65-4.739c-.75.375-1.151.563-1.205.563a336.615 336.615 0 01-8.512 3.694c.75 1.66 1.66 3.854 2.73 6.585 1.446-1.767 2.891-3.801 4.337-6.103zM66.218 8.593c0-.964-.027-1.874-.08-2.73-.75-.054-1.58-.08-2.49-.08-5.514 0-11.296.856-17.346 2.569-3.052.803-5.729 1.767-8.03 2.89-2.142 1.018-3.722 2.035-4.739 3.053-.91.963-2.302 3.158-4.176 6.585-1.713 3.105-3.614 6.96-5.702 11.564a478.808 478.808 0 00-4.336 10.119L29.437 52.68a409.347 409.347 0 0010.12-4.336c4.603-2.088 8.458-3.989 11.563-5.702 3.48-1.874 5.675-3.266 6.585-4.176 1.392-1.392 2.73-3.72 4.016-6.987 1.392-3.426 2.516-7.308 3.373-11.644.75-4.07 1.124-7.817 1.124-11.243zM9.762 55.25c1.928 0 3.574.683 4.94 2.048 1.364 1.365 2.047 2.985 2.047 4.858a6.72 6.72 0 01-1.405 4.176 7.303 7.303 0 01-3.574 2.57l-9.958 2.972a.894.894 0 01-.402.08c-.374 0-.696-.134-.963-.402a1.314 1.314 0 01-.402-.963c0-.161.027-.295.08-.402L3.097 60.15a7.168 7.168 0 012.53-3.534c1.204-.91 2.583-1.365 4.135-1.365zm31.4-29.553c0-1.445.495-2.663 1.486-3.654.99-.99 2.208-1.485 3.654-1.485 1.445 0 2.663.495 3.654 1.485.99.99 1.485 2.209 1.485 3.654 0 1.446-.495 2.664-1.485 3.654-.99.99-2.209 1.486-3.654 1.486-1.446 0-2.664-.495-3.654-1.486-.99-.99-1.486-2.208-1.486-3.654z"/><animate id="animation1" attributeName="opacity" fill="freeze" from="0" to="1" dur="1.5s" begin="4s"/></g></svg>