<svg width="800" height="1150" viewBox="0 0 800 1150" fill="none" xmlns="http://www.w3.org/2000/svg">
<path d="M420.1 18C216.697 18 78.865 118.282 78.865 278.733C78.865 611.67 584.696 495.343 584.696 703.93C584.696 776.133 519.125 817.583 409.395 817.583C309.032 817.583 188.596 769.447 92.247 681.199L24 817.583C120.349 905.831 259.519 966 406.719 966C612.798 966 759.997 863.044 759.997 695.907C761.336 358.959 255.505 468.601 255.505 264.025C255.505 201.182 315.723 166.417 408.057 166.417C478.98 166.417 580.682 191.822 682.383 253.329L747.954 114.271C660.972 56.7757 541.874 18 420.1 18Z" fill="#132631" fill-opacity="0.05"/>
</svg>
