<svg width="800" height="1150" fill="none" xmlns="http://www.w3.org/2000/svg"><path d="M420.1 18C216.697 18 78.865 118.282 78.865 278.733c0 332.937 505.831 216.61 505.831 425.197 0 72.203-65.571 113.653-175.301 113.653-100.363 0-220.799-48.136-317.148-136.384L24 817.583C120.349 905.831 259.519 966 406.719 966c206.079 0 353.278-102.956 353.278-270.093 1.339-336.948-504.492-227.306-504.492-431.882 0-62.843 60.218-97.608 152.552-97.608 70.923 0 172.625 25.405 274.326 86.912l65.571-139.058C660.972 56.776 541.874 18 420.1 18z" fill="#fff" fill-opacity=".1"/></svg>