<svg width="672" height="1156" fill="none" xmlns="http://www.w3.org/2000/svg"><g clip-path="url(#clip0)"><path d="M616.1 0C412.697 0 274.865 100.282 274.865 260.733c0 332.937 505.831 216.61 505.831 425.197 0 72.203-65.571 113.653-175.301 113.653-100.363 0-220.799-48.136-317.148-136.384L220 799.583C316.349 887.831 455.519 948 602.719 948c206.079 0 353.278-102.956 353.278-270.093 1.339-336.948-504.492-227.306-504.492-431.882 0-62.843 60.218-97.608 152.552-97.608 70.923 0 172.625 25.405 274.326 86.912l65.571-139.058C856.972 38.776 737.874 0 616.1 0z" fill="#132631" fill-opacity=".05"/></g><defs><clipPath id="clip0"><path fill="#fff" d="M0 0h672v1156H0z"/></clipPath></defs></svg>