<svg width="119" height="119" fill="none" xmlns="http://www.w3.org/2000/svg"><mask id="mask0" maskUnits="userSpaceOnUse" x="36" y="31" width="48" height="51"><path fill-rule="evenodd" clip-rule="evenodd" d="M76.034 48.63c3.28 3.346 4.045 4.066 6.31 7.995 2.266 3.93 1.162 11.402-.912 14.356-2.075 2.953-4.572 4.563-7.034 5.822-2.461 1.258-18.371 8.059-30.593 2.754-12.222-5.306-4.93-24.772-4.93-25.86 0-1.087 5.862-20.006 5.862-20.006s8.533-2.902 10.771-1.582c2.238 1.32 2.559 8.837 2.559 8.837s14.687 4.339 17.967 7.684z" fill="#fff"/></mask><g mask="url(#mask0)"><path fill-rule="evenodd" clip-rule="evenodd" d="M166.821 41.764c.763-.57 1.595-1.14 2.219-1.863.486-.57.833-1.292.729-1.977-.243-1.444-1.977-1.786-3.538-1.444-.971.228-1.942.684-2.671 1.368-.312.267-.589.609-.728.95-.139.457.208.761.763.61.416-.115.763-.381 1.075-.647.382-.38.729-.799 1.318-.913.382-.076.729.038.729.419 0 .304-.278.608-.555.836-.243.19-.451.38-.694.532-.832.647-1.63 1.293-2.254 2.092-.278.38-.521.798-.659 1.216-.174.494-.243.989-.139 1.445.139.646.694 1.102 1.457 1.14 1.422.038 2.878-.076 4.37-.304.763-.152 1.56-.608 1.63-1.368.069-.799-.763-1.065-1.561-.95-1.075.151-2.15.265-3.226.38.417-.571 1.11-1.027 1.735-1.522zm-18.896 14.619c-2.333 0-13.854 11.681-1.944 11.681 9.754 0 4.099-11.681 1.944-11.681zm-80.892-.835c-2.735 0-17.232 11.682-2.36 11.682 11.8 0 5.095-11.682 2.36-11.682zm25.136-9.985c1.753 2.285 2.775 4.755 4.017 7.335.584-.368 1.351-6.856 1.534-7.888.547-3.207 2.519-11.832 6.719-11.832 2.228 0 3.725 2.248 4.455 4.128 1.023 2.58 1.644 5.124 2.119 7.852.255 1.474.73 4.718 1.095 6.045 3.141-1.475 9.166-4.83 9.276-4.866 2.008-1.106 6.245.295 4.09 4.128-1.68 3.023-9.02 9.916-9.02 10.69 0 .48 6.391 4.128 7.304 4.313.146-.258.365-.516.438-.774.803-2.065 1.132-4.018 2.191-6.009 3.725-7.188 12.891-15.85 21.473-15.592 2.629.074 5.149.774 7.377 1.954-.438-1.511-.438-3.133.219-4.829 2.301-6.008 10.919-8.883 16.36-6.561 3.871 1.659 5.77 5.345 4.163 9.584-1.972 5.197-7.997 9.547-13.365 8.44 3.578 5.235 5.003 12.054 2.848 18.026-3.031 8.551-14.607 10.874-22.569 10.874-2.337 0-10.517-1.549-10.736-1.512-4.382.406-6.829.811-11.284-.368l-7.998-3.133c-.84-.222-1.862 1.548-2.41 2.027-3.689 3.391-9.459 1.77-13.184-.516-4.236 2.728-11.613 3.797-15.849.405-.73-.59-2.41-3.096-2.666-3.207-8.947 5.714-22.35 7.446-32.684 4.792-1.607-.037-5.15-2.543-5.806-4.017-1.79-4.018-1.57-7.889-.95-12.275.694-4.792 1.607-9.584 2.41-14.339.621-3.612 2.995-15.445 7.523-15.445 5.697 0 6.026 11.538 7.815 12.238 1.57-.479 4.675-1.032 6.282-1.032 7.559 0 12.562 4.202 17.346 9.473.146.148.329.295.511.443.402-.369 3.177-6.709 4.456-8.442l-.183-.516c-8.07-4.054-2.483-17.435 6.646-14.117 2.666.995 4.42 3.797 4.42 6.598 0 4.829-4.347 7.298-4.383 7.925z" fill="#132631"/></g><circle cx="59.6" cy="59.5" r="58.5" stroke="#4E5C65" stroke-dasharray="2 5"/></svg>