<svg width="116" height="116" fill="none" xmlns="http://www.w3.org/2000/svg"><path d="M11.303 29.773l-.66.92a.902.902 0 01-.217.226.413.413 0 01-.252.078.84.84 0 01-.338-.095 3.096 3.096 0 01-.47-.287 3.54 3.54 0 01-.424-.347.907.907 0 01-.2-.286.389.389 0 01-.017-.26c.026-.088.078-.174.147-.279l3.212-4.496c.442-.625.894-1.11 1.336-1.458.443-.347.903-.582 1.346-.694a2.786 2.786 0 011.336-.009 3.57 3.57 0 011.285.616c.486.347.816.764.972 1.241.156.478.191.99.096 1.528.599-.486 1.224-.772 1.875-.842.65-.07 1.319.139 1.996.625.495.356.868.747 1.12 1.172.251.425.39.885.416 1.38a3.806 3.806 0 01-.269 1.562 7.677 7.677 0 01-.937 1.71l-3.55 4.974a.904.904 0 01-.217.225.432.432 0 01-.252.079.842.842 0 01-.339-.096 3.114 3.114 0 01-.468-.286 3.557 3.557 0 01-.426-.347.862.862 0 01-.2-.287.39.39 0 01-.017-.26.972.972 0 01.148-.278l.66-.92-6.693-4.809zm4.73-1.727c.373-.52.555-.972.555-1.354 0-.382-.2-.703-.581-.98-.39-.279-.764-.357-1.111-.235-.347.121-.712.451-1.094.98l-.876 1.224 2.222 1.589.885-1.224zm4.609 2.639c.408-.573.616-1.068.608-1.485-.01-.416-.209-.763-.608-1.041-.434-.304-.842-.4-1.241-.27-.4.13-.799.478-1.207 1.051l-1.18 1.658 2.448 1.745 1.18-1.658zm3.22-15.043l-1.979 1.528a1.26 1.26 0 01-.269.156.443.443 0 01-.26 0c-.087-.026-.182-.095-.295-.19a2.697 2.697 0 01-.365-.417 2.737 2.737 0 01-.304-.46.86.86 0 01-.113-.339.43.43 0 01.061-.26 1.01 1.01 0 01.217-.217l6.067-4.661c.096-.07.183-.122.27-.156a.443.443 0 01.26 0 .892.892 0 01.295.19c.104.096.226.235.365.417.139.182.243.33.303.46.07.13.105.235.105.33a.359.359 0 01-.07.252 1.02 1.02 0 01-.217.217l-1.979 1.527 5.017 6.528 2.153-1.658c.095-.07.182-.122.269-.156a.443.443 0 01.26 0 .89.89 0 01.295.19c.104.096.226.235.365.417.139.182.243.33.304.46.069.13.104.234.104.33a.359.359 0 01-.07.252.854.854 0 01-.217.217l-6.397 4.921a1.26 1.26 0 01-.269.156.444.444 0 01-.26 0c-.087-.026-.182-.095-.295-.19a3.256 3.256 0 01-.365-.417 2.747 2.747 0 01-.304-.46.908.908 0 01-.113-.339.404.404 0 01.061-.252 1.03 1.03 0 01.217-.216l2.153-1.65-5-6.51zM37.95 7.483l-1.797.677 1.007 2.7c.087.226.052.417-.096.581-.147.165-.408.313-.78.46-.374.14-.643.183-.817.14-.173-.044-.304-.183-.39-.4l-1.571-4.184c-.087-.234-.096-.416-.035-.555.06-.14.208-.252.443-.339l8.948-3.35c.235-.087.417-.096.556-.035.139.06.252.208.33.443l1.57 4.184c.088.225.053.416-.095.581-.147.165-.408.321-.78.46-.374.139-.643.182-.817.139-.173-.043-.303-.182-.39-.4l-1.007-2.699-1.797.669 2.847 7.612 2.144-.799a.888.888 0 01.304-.07c.087 0 .173.027.252.079.078.06.156.147.225.27.07.12.148.285.226.502.078.209.13.391.156.53a.96.96 0 01.009.347.38.38 0 01-.14.217.873.873 0 01-.268.148l-6.77 2.534a.888.888 0 01-.304.07.453.453 0 01-.252-.078.816.816 0 01-.226-.27 3.14 3.14 0 01-.225-.503 3.313 3.313 0 01-.156-.53.995.995 0 01-.01-.355.361.361 0 01.14-.226 1.13 1.13 0 01.269-.148l2.144-.798-2.847-7.604zm15.129-5.997a.876.876 0 01.312.026c.087.026.156.07.217.147a.85.85 0 01.139.33 2.8 2.8 0 01.07.547c.017.226.008.408 0 .555a.827.827 0 01-.096.339.43.43 0 01-.2.173.99.99 0 01-.303.061l-1.242.078.938 6.146L54.18 5.27a.688.688 0 01.234-.373c.122-.104.365-.165.73-.191.364-.026.624 0 .78.06a.51.51 0 01.304.296l1.832 4.505.19-6.215-1.084.07a.877.877 0 01-.313-.027.409.409 0 01-.217-.147.85.85 0 01-.139-.322 2.73 2.73 0 01-.069-.546 3.902 3.902 0 010-.556.827.827 0 01.096-.338c.052-.087.112-.148.2-.174a.939.939 0 01.303-.06L60.986 1a.877.877 0 01.313.026.412.412 0 01.217.147.84.84 0 01.138.33c.035.139.061.321.07.547a5.85 5.85 0 010 .555.827.827 0 01-.096.339.392.392 0 01-.2.173.939.939 0 01-.303.061l-.59.035-.46 10a.926.926 0 01-.07.329.5.5 0 01-.2.226c-.095.06-.216.104-.373.138a3.345 3.345 0 01-.599.07c-.477.026-.824 0-1.032-.104a.875.875 0 01-.452-.495l-1.996-4.878-1.406 5.086a1.213 1.213 0 01-.148.321.686.686 0 01-.26.235 1.56 1.56 0 01-.417.147 4.814 4.814 0 01-.608.079 3.304 3.304 0 01-.59 0 1.067 1.067 0 01-.382-.096.444.444 0 01-.217-.2 1.267 1.267 0 01-.104-.32l-1.649-9.878-.53.034a.877.877 0 01-.312-.026.409.409 0 01-.217-.147.793.793 0 01-.139-.321 2.729 2.729 0 01-.07-.547 3.932 3.932 0 010-.556.712.712 0 01.096-.338.328.328 0 01.2-.174.99.99 0 01.304-.06l4.175-.252zM67.27 3.977l-.998-.243a.985.985 0 01-.286-.113.377.377 0 01-.165-.2.822.822 0 01-.035-.347c.009-.148.035-.321.096-.547.051-.217.104-.4.164-.53a.911.911 0 01.191-.294.375.375 0 01.243-.113.83.83 0 01.313.034l9.4 2.249c.243.06.4.147.478.277.078.13.086.313.034.556l-.746 3.107a.528.528 0 01-.417.426c-.225.052-.555.026-.998-.079a3.362 3.362 0 01-.538-.165 1.02 1.02 0 01-.313-.19.447.447 0 01-.13-.244.792.792 0 01.017-.312l.374-1.562-4.123-.99-.625 2.604 2.517.599c.113.026.217.07.286.122.079.052.13.13.157.225.034.096.043.217.034.365-.026.156-.052.338-.104.555-.052.217-.104.4-.165.53a.964.964 0 01-.19.304.478.478 0 01-.244.13.79.79 0 01-.312-.018l-2.517-.599-.712 2.978 4.227 1.006.495-2.083a.517.517 0 01.416-.425c.226-.052.565-.026 1.033.087.235.052.426.113.565.173.147.061.26.13.33.2a.44.44 0 01.138.243.79.79 0 01-.017.313l-.868 3.628c-.06.243-.148.399-.278.477-.13.078-.312.087-.555.035l-9.609-2.3a.983.983 0 01-.286-.113.377.377 0 01-.165-.2c-.035-.087-.044-.2-.035-.347.009-.139.043-.321.095-.547.053-.217.105-.4.165-.53a.913.913 0 01.191-.294.375.375 0 01.243-.113.839.839 0 01.313.034l.998.243 1.918-8.002zm15.546 4.939l-.885-.521a.949.949 0 01-.243-.191.357.357 0 01-.096-.243.761.761 0 01.07-.339 2.96 2.96 0 01.251-.495c.113-.19.217-.347.313-.46a.862.862 0 01.269-.225.393.393 0 01.26-.035c.087.017.182.06.287.122l8.324 4.904c.217.121.338.26.373.408.034.147-.009.32-.13.538l-1.623 2.76c-.122.208-.296.304-.53.286-.226-.017-.538-.138-.929-.364a3.335 3.335 0 01-.468-.321.973.973 0 01-.243-.278.5.5 0 01-.053-.27.786.786 0 01.113-.294l.816-1.389-3.654-2.153-1.363 2.31 2.23 1.31a.76.76 0 01.235.2.425.425 0 01.087.26 1.1 1.1 0 01-.078.364 3.85 3.85 0 01-.252.504 2.97 2.97 0 01-.312.46.833.833 0 01-.278.234.498.498 0 01-.269.052.737.737 0 01-.295-.113l-2.23-1.31-1.555 2.639L84.7 19.47l1.085-1.84c.122-.208.295-.304.53-.286.226.017.547.147.963.39.209.122.374.235.495.33.122.096.208.2.26.287.053.095.07.182.061.277a.786.786 0 01-.113.295l-1.892 3.212c-.13.217-.26.338-.408.373-.147.035-.32-.008-.538-.13l-8.506-5.008a.95.95 0 01-.243-.191.356.356 0 01-.096-.243.76.76 0 01.07-.339 2.95 2.95 0 01.251-.495 2.84 2.84 0 01.313-.45.862.862 0 01.269-.227.393.393 0 01.26-.034c.087.017.183.06.287.121l.885.521 4.184-7.117zM95.975 17.9l-.478-.522a1.01 1.01 0 01-.173-.251.436.436 0 01-.026-.26c.017-.096.078-.192.164-.305.087-.112.217-.251.382-.399.165-.156.313-.269.434-.347a.897.897 0 01.322-.139.381.381 0 01.26.044c.078.043.156.112.243.2l1.892 2.065c.087.095.156.2.191.304a.535.535 0 010 .33L96.8 26.779l3.976-3.646-.634-.686a1.013 1.013 0 01-.174-.251.436.436 0 01-.026-.26c.018-.096.078-.192.165-.305.087-.112.217-.242.382-.399.165-.156.313-.269.434-.347a.876.876 0 01.33-.139.38.38 0 01.26.044.937.937 0 01.243.2l2.691 2.924c.078.087.139.174.174.252a.387.387 0 01.017.26.992.992 0 01-.165.313 3.114 3.114 0 01-.382.4 3.043 3.043 0 01-.434.346.89.89 0 01-.321.14.381.381 0 01-.26-.044 1.157 1.157 0 01-.243-.2l-.408-.442-7.326 6.718a.578.578 0 01-.547.165c-.2-.044-.451-.226-.755-.556a2.714 2.714 0 01-.27-.347 1.005 1.005 0 01-.155-.59c.008-.096.034-.191.06-.295l2.596-8.854-4.462 4.088.764.834c.078.087.139.173.174.251a.383.383 0 01.017.26 1 1 0 01-.165.313 3.092 3.092 0 01-.382.4 2.99 2.99 0 01-.434.347.898.898 0 01-.321.139.381.381 0 01-.26-.044 1.174 1.174 0 01-.243-.2l-2.89-3.15a1.01 1.01 0 01-.174-.252.436.436 0 01-.026-.26c.017-.096.078-.191.164-.304a3.1 3.1 0 01.382-.4c.165-.156.313-.269.434-.347a.9.9 0 01.322-.139.382.382 0 01.26.044c.078.043.156.113.243.2l.477.52 6.068-5.58zm6.657 30.96c-.234.035-.417-.017-.547-.165-.13-.147-.225-.451-.304-.894-.069-.442-.069-.772 0-.972.07-.208.226-.33.46-.364l3.49-.573c.234-.035.416.008.547.139.121.13.217.373.269.711.043.243.043.443 0 .6a.7.7 0 01-.269.381c-.651.495-1.12 1.024-1.398 1.606-.278.573-.364 1.215-.252 1.927.105.625.304 1.076.617 1.345.303.27.677.373 1.119.304.295-.052.521-.165.686-.347.165-.182.287-.408.373-.686.087-.304.148-.642.174-1.024.026-.382.052-.781.069-1.198.018-.416.044-.842.087-1.267a5.68 5.68 0 01.261-1.224 3.8 3.8 0 01.338-.746c.139-.235.313-.443.521-.643.208-.2.46-.356.755-.486s.634-.234 1.024-.295a3.846 3.846 0 011.58.044c.495.121.937.33 1.337.633.399.304.72.695.998 1.155a4.85 4.85 0 01.555 1.614 4.273 4.273 0 01-.017 1.597 3.625 3.625 0 01-.573 1.354l.391-.06c.234-.035.416.017.547.164.13.148.225.452.303.894.078.443.07.773 0 .972-.069.209-.225.33-.46.365l-2.864.469c-.234.034-.417-.009-.547-.14-.121-.13-.217-.372-.269-.71-.035-.235-.043-.426-.009-.565a.74.74 0 01.2-.347c.451-.4.781-.886.981-1.441.208-.556.252-1.18.139-1.884-.087-.52-.287-.902-.591-1.145a1.289 1.289 0 00-1.058-.26.725.725 0 00-.478.277c-.113.148-.191.347-.243.59a4.91 4.91 0 00-.095 1.016c0 .39-.018.807-.026 1.24-.018.435-.053.878-.105 1.329a4.938 4.938 0 01-.329 1.285c-.105.26-.243.512-.408.746a3.288 3.288 0 01-.608.651 3.65 3.65 0 01-.851.495 4.943 4.943 0 01-1.128.312 4.28 4.28 0 01-1.597-.017 3.1 3.1 0 01-1.337-.616c-.39-.304-.729-.72-1.007-1.224-.277-.512-.477-1.129-.59-1.866-.191-1.163 0-2.205.573-3.134l-.434.078zm11.188 10.85c.018-.121.044-.217.078-.304a.39.39 0 01.183-.19.882.882 0 01.338-.079c.148-.008.33 0 .556.026.225.026.408.061.547.104.139.044.243.096.321.157.078.06.121.139.139.225.017.087.017.191.008.313l-.46 3.932a1.257 1.257 0 01-.078.304.392.392 0 01-.191.182.89.89 0 01-.347.078c-.148.009-.33 0-.547-.026a3.093 3.093 0 01-.547-.104.864.864 0 01-.312-.156.395.395 0 01-.13-.226 1.162 1.162 0 01-.009-.313l.096-.807-5.781-.677a3.251 3.251 0 00-1.103.035c-.312.07-.581.19-.798.356a1.708 1.708 0 00-.512.625c-.122.251-.2.538-.235.85-.034.313-.026.608.035.886.061.277.182.52.356.729.174.217.408.39.694.53.287.138.643.234 1.068.286l5.781.677.095-.808a1.36 1.36 0 01.078-.303.39.39 0 01.183-.191.878.878 0 01.338-.078c.148-.01.33 0 .556.026.225.026.408.06.546.104a.996.996 0 01.322.156c.078.06.121.139.139.226.017.087.017.19.008.312l-.46 3.932a1.257 1.257 0 01-.078.304.392.392 0 01-.191.182.895.895 0 01-.347.078c-.148.01-.33 0-.556-.026a2.813 2.813 0 01-.538-.104.862.862 0 01-.312-.156.394.394 0 01-.13-.226 1.162 1.162 0 01-.009-.312l.061-.495-5.989-.703c-.738-.087-1.381-.27-1.919-.555a3.98 3.98 0 01-1.328-1.12 4.175 4.175 0 01-.712-1.606 6.195 6.195 0 01-.069-2.022c.087-.738.26-1.39.53-1.953a4.228 4.228 0 011.058-1.406 3.725 3.725 0 011.545-.782c.591-.156 1.259-.19 1.997-.104l5.989.694.043-.477zm-4.018 18.966l.972-2.31a.866.866 0 01.156-.268.374.374 0 01.226-.13.974.974 0 01.347.017c.139.035.312.095.521.182.208.087.373.174.494.252a.875.875 0 01.261.234.383.383 0 01.069.252 1.193 1.193 0 01-.078.304l-2.968 7.048a.889.889 0 01-.157.269.394.394 0 01-.234.13.872.872 0 01-.356-.026 3.853 3.853 0 01-.521-.182 3.195 3.195 0 01-.494-.252.875.875 0 01-.261-.234.443.443 0 01-.069-.252 1.02 1.02 0 01.078-.295l.972-2.309-7.586-3.194-1.05 2.5a1.13 1.13 0 01-.157.269.396.396 0 01-.234.13.872.872 0 01-.356-.026 3.823 3.823 0 01-.52-.182 3.204 3.204 0 01-.495-.252.88.88 0 01-.26-.234.442.442 0 01-.07-.252 1.07 1.07 0 01.078-.295l3.133-7.439a.91.91 0 01.156-.27.402.402 0 01.226-.13.975.975 0 01.347.018c.139.026.313.096.521.182.208.087.373.174.495.252a.882.882 0 01.26.234.39.39 0 01.07.252 1.09 1.09 0 01-.078.295l-1.051 2.5 7.613 3.212zm-7.665 13.341l1.207-1.493-2.24-1.814c-.191-.148-.26-.33-.217-.547.044-.217.191-.478.443-.79.252-.313.46-.486.634-.538.173-.052.356 0 .538.147l3.48 2.804c.191.156.296.304.313.46.017.156-.052.321-.208.512l-5.998 7.439c-.156.19-.304.295-.46.312-.148.017-.321-.052-.512-.208l-3.481-2.804c-.19-.147-.26-.33-.217-.547.043-.217.191-.477.443-.79.251-.312.46-.486.633-.538.174-.052.356 0 .538.148l2.24 1.805 1.206-1.493-6.327-5.103-1.441 1.779a1.043 1.043 0 01-.226.217.447.447 0 01-.26.06.859.859 0 01-.33-.12 3.022 3.022 0 01-.451-.322 3.719 3.719 0 01-.408-.373.803.803 0 01-.183-.295.38.38 0 01.01-.26c.034-.088.086-.174.155-.27l4.54-5.624a1.01 1.01 0 01.226-.217.366.366 0 01.251-.061c.096.009.2.043.33.113s.278.173.452.32c.173.14.312.27.408.374a.763.763 0 01.182.304.442.442 0 010 .26 1.115 1.115 0 01-.156.27l-1.441 1.779 6.327 5.104zm-8.575 9.218l.841-.591a.958.958 0 01.278-.139.383.383 0 01.26.009c.087.035.183.104.287.2.104.104.217.243.347.425.13.182.226.339.287.469a.84.84 0 01.095.338.364.364 0 01-.078.252c-.052.069-.13.139-.226.208l-7.907 5.555c-.2.139-.373.2-.52.174-.148-.026-.296-.139-.435-.338l-1.84-2.622c-.139-.199-.156-.399-.043-.599.104-.199.347-.434.72-.694.182-.13.347-.226.478-.295a.8.8 0 01.355-.104.404.404 0 01.27.069.863.863 0 01.217.217l.928 1.319 3.463-2.439-1.544-2.196-2.118 1.485a.704.704 0 01-.287.13.473.473 0 01-.269-.026.887.887 0 01-.295-.217 3.545 3.545 0 01-.356-.434 3.07 3.07 0 01-.286-.478 1.088 1.088 0 01-.105-.347.406.406 0 01.07-.269.869.869 0 01.217-.217l2.118-1.484-1.762-2.509-3.55 2.5 1.232 1.754c.14.199.157.399.044.598-.113.2-.356.443-.755.721a4.2 4.2 0 01-.504.312c-.139.07-.269.105-.373.122a.426.426 0 01-.278-.061.848.848 0 01-.217-.217l-2.144-3.047c-.139-.2-.2-.373-.173-.52.026-.148.138-.295.338-.434l8.081-5.677a.925.925 0 01.278-.139.384.384 0 01.26.009c.087.035.183.104.287.2.104.104.217.243.347.425.13.182.225.338.286.469a.84.84 0 01.096.338.364.364 0 01-.078.252c-.061.07-.13.139-.226.208l-.842.59 4.73 6.745zm-28.297 12.134l1.129-.061a.893.893 0 01.312.026.41.41 0 01.217.148c.06.078.104.182.13.321.035.139.052.321.061.547a3.72 3.72 0 01-.009.555 1.053 1.053 0 01-.095.339.382.382 0 01-.2.173.963.963 0 01-.304.061l-5.511.278c-.764.035-1.424-.009-1.98-.148-.555-.138-1.015-.347-1.38-.624a2.778 2.778 0 01-.833-1.042 3.884 3.884 0 01-.32-1.389c-.036-.599.095-1.111.364-1.528.269-.416.65-.763 1.137-1.024-.755-.165-1.363-.486-1.823-.946-.46-.469-.712-1.12-.755-1.953-.035-.607.043-1.137.217-1.606a2.96 2.96 0 01.825-1.18c.373-.33.833-.582 1.388-.764.556-.182 1.19-.286 1.919-.33l6.11-.312a.87.87 0 01.313.026.408.408 0 01.217.147c.06.079.104.183.13.322.034.138.052.321.07.546.008.226.008.408-.01.556a.815.815 0 01-.104.338.389.389 0 01-.2.174.99.99 0 01-.303.061l-1.128.061.416 8.228zm-5.095-7.881c-.703.034-1.215.182-1.536.451-.321.26-.469.642-.443 1.128.026.53.217.912.564 1.138.347.225.868.329 1.571.295l2.031-.105-.156-3.003-2.03.096zm.799 5.251c-.643.035-1.111.165-1.407.408-.295.234-.433.59-.407 1.068.026.477.19.816.503 1.015.313.2.79.278 1.45.243l1.501-.078-.139-2.734-1.501.078zm-12.239-3.567l2.283 6.188.477.105c.113.026.217.06.287.112a.38.38 0 01.165.2c.034.087.052.2.043.347a3.3 3.3 0 01-.087.547 3.75 3.75 0 01-.156.53.909.909 0 01-.191.303.372.372 0 01-.234.113c-.087.009-.191 0-.313-.026l-4.07-.929a.79.79 0 01-.287-.112.447.447 0 01-.165-.209 1.02 1.02 0 01-.043-.347c.008-.148.034-.33.086-.547.052-.217.105-.399.157-.529a.903.903 0 01.182-.295.418.418 0 01.234-.113c.087-.009.191 0 .313.026l.694.156-1.232-3.455-2.63 2.578.546.122a.79.79 0 01.287.113.38.38 0 01.165.199.8.8 0 01.043.348 3.428 3.428 0 01-.087.546 3.7 3.7 0 01-.156.53.923.923 0 01-.19.304.37.37 0 01-.235.112c-.087.009-.191 0-.313-.026l-3.862-.876a.791.791 0 01-.287-.113.366.366 0 01-.165-.208 1 1 0 01-.043-.348c.009-.147.035-.329.087-.546.052-.217.104-.4.156-.53a.786.786 0 01.182-.295.425.425 0 01.235-.113c.087-.009.19 0 .312.026l.452.104 4.765-4.6.599-2.621-2.023-.46a.791.791 0 01-.286-.113.445.445 0 01-.165-.208 1 1 0 01-.043-.348 3.1 3.1 0 01.086-.546c.052-.217.105-.4.157-.53a.915.915 0 01.182-.295.425.425 0 01.234-.113c.087-.009.191 0 .313.026l6.631 1.51a.79.79 0 01.286.113.38.38 0 01.165.2c.035.087.053.2.044.347a3.3 3.3 0 01-.087.547 3.677 3.677 0 01-.156.529.902.902 0 01-.191.304.372.372 0 01-.234.113c-.087.009-.191 0-.313-.026l-2.022-.46-.582 2.639zm-26.04-6.545l.808.799c.086.086.147.164.19.243a.379.379 0 01.035.26.837.837 0 01-.147.312c-.078.122-.2.261-.356.417a2.38 2.38 0 01-.417.365.783.783 0 01-.32.156.437.437 0 01-.261-.026 1.43 1.43 0 01-.252-.182l-3.94-3.872c-.547-.538-.955-1.05-1.233-1.553-.278-.504-.434-.981-.478-1.441-.043-.46.027-.903.2-1.32a3.77 3.77 0 01.807-1.18c.417-.425.877-.686 1.372-.764a3.204 3.204 0 011.527.14c-.39-.67-.573-1.329-.538-1.989.035-.65.339-1.276.929-1.874.425-.434.868-.738 1.328-.92.46-.183.937-.244 1.432-.191.495.052.99.225 1.502.503.503.286 1.015.686 1.536 1.19l4.366 4.287c.087.087.148.165.191.243a.38.38 0 01.035.26.84.84 0 01-.148.313c-.078.113-.2.26-.364.416a2.755 2.755 0 01-.408.365.777.777 0 01-.321.156.435.435 0 01-.26-.026 1.39 1.39 0 01-.253-.182l-.807-.799-5.755 5.894zm-.972-4.939c-.46-.451-.876-.703-1.25-.764-.373-.052-.729.087-1.058.426-.339.338-.47.694-.409 1.059.07.364.33.772.8 1.232l1.075 1.05 1.919-1.953-1.077-1.05zm3.333-4.14c-.503-.495-.963-.773-1.371-.825-.408-.052-.79.087-1.128.434-.374.382-.521.773-.46 1.18.069.409.347.86.85 1.355l1.45 1.423 2.109-2.144-1.45-1.423zM11.26 86.982l1.24 2.17c.061.104.096.2.113.287a.393.393 0 01-.035.26.757.757 0 01-.225.26c-.113.096-.26.191-.46.304a4.17 4.17 0 01-.495.243.79.79 0 01-.347.061.383.383 0 01-.243-.095.948.948 0 01-.191-.243l-3.802-6.64a.929.929 0 01-.113-.287.399.399 0 01.044-.26.908.908 0 01.234-.27c.113-.095.26-.19.46-.303.2-.113.364-.191.495-.243a.774.774 0 01.338-.061.412.412 0 01.243.104c.07.06.13.139.191.243l1.241 2.17 7.153-4.08-1.346-2.352a.932.932 0 01-.113-.286.399.399 0 01.044-.26.907.907 0 01.234-.27c.113-.095.26-.19.46-.303.2-.113.365-.191.495-.243a.79.79 0 01.347-.061.412.412 0 01.243.104c.07.06.13.139.191.243l4.002 7.013c.06.105.095.2.112.287a.393.393 0 01-.034.26.757.757 0 01-.226.26c-.113.087-.26.192-.46.304a4.18 4.18 0 01-.495.243.792.792 0 01-.347.061.383.383 0 01-.243-.095.948.948 0 01-.191-.243l-1.345-2.353-7.17 4.071zM5.973 75.82l.27 1.102c.025.113.034.217.034.304a.463.463 0 01-.104.243c-.061.078-.157.13-.287.191-.13.06-.304.113-.53.165a3.511 3.511 0 01-.546.096.884.884 0 01-.356-.035.397.397 0 01-.208-.165 1.095 1.095 0 01-.113-.287l-1.024-4.157a1.375 1.375 0 01-.035-.313c0-.095.043-.173.113-.243a.869.869 0 01.295-.19c.13-.053.304-.114.53-.166a3.49 3.49 0 01.546-.095.81.81 0 01.347.035.434.434 0 01.209.164.859.859 0 01.113.287l.112.486 3.29-.816L4.515 69.9l.139.547c.026.113.043.217.034.313a.411.411 0 01-.104.234.86.86 0 01-.286.19c-.139.07-.313.122-.538.175-.217.052-.4.086-.547.095a.884.884 0 01-.356-.035.367.367 0 01-.208-.165 1.095 1.095 0 01-.113-.286l-.99-4.002a1.377 1.377 0 01-.034-.312c0-.096.043-.174.112-.243a.867.867 0 01.296-.191c.13-.052.303-.113.529-.165.226-.052.4-.087.547-.095.147-.01.26 0 .347.034a.377.377 0 01.2.165c.043.078.086.174.113.287l.112.442 4.392 2.734a2.28 2.28 0 01.052-1.136c.113-.365.304-.695.573-1.007.174-.2.365-.391.556-.573l.59-.512c.2-.165.39-.33.582-.487.19-.156.364-.312.52-.468.209-.2.365-.4.46-.6a.89.89 0 00.07-.633l-.026-.104a1.015 1.015 0 01-.035-.312.417.417 0 01.113-.243.867.867 0 01.295-.191c.13-.061.304-.113.53-.165a3.34 3.34 0 01.546-.096c.148-.008.26 0 .348.035a.434.434 0 01.208.165 1.1 1.1 0 01.113.286l.356 1.432c.052.226.069.443.034.651-.034.209-.095.4-.19.582a2.89 2.89 0 01-.365.53c-.148.164-.304.33-.478.477-.182.156-.364.321-.564.469-.19.156-.39.312-.581.468-.191.157-.374.313-.547.46a4.6 4.6 0 00-.469.452 2.64 2.64 0 00-.477.746c-.104.252-.13.504-.07.747a1.2 1.2 0 00.547.729l.642.4 1.814-.444-.295-1.18a1.015 1.015 0 01-.034-.313.395.395 0 01.113-.243.87.87 0 01.295-.19 3.4 3.4 0 01.53-.165c.225-.053.398-.087.546-.096a.81.81 0 01.347.035.434.434 0 01.209.165 1.1 1.1 0 01.112.286l1.198 4.852c.026.113.044.217.035.313a.411.411 0 01-.104.234.862.862 0 01-.287.191c-.13.06-.303.113-.53.165a3.22 3.22 0 01-.546.095.884.884 0 01-.356-.034.366.366 0 01-.208-.165 1.097 1.097 0 01-.113-.287l-.27-1.102-7.976 1.979zM1 56.603a6.085 6.085 0 01.529-2.37 5.146 5.146 0 011.363-1.797c.581-.494 1.276-.868 2.092-1.12.815-.251 1.718-.364 2.725-.33 1.007.036 1.91.2 2.708.513.799.304 1.467.72 2.014 1.258a5.186 5.186 0 011.232 1.884c.278.73.408 1.528.374 2.404-.026.877-.209 1.667-.539 2.37a5.253 5.253 0 01-1.362 1.797c-.582.494-1.276.868-2.092 1.12-.816.251-1.727.364-2.734.33-.998-.035-1.901-.2-2.7-.513-.78-.312-1.45-.729-1.996-1.258a5.007 5.007 0 01-1.233-1.884c-.286-.73-.408-1.536-.382-2.404zm2.404.078c-.035.998.295 1.753.99 2.283.694.52 1.7.807 3.02.85 1.32.044 2.343-.173 3.073-.65.729-.478 1.11-1.216 1.145-2.214.035-.998-.295-1.753-.998-2.283-.694-.52-1.701-.807-3.03-.85-1.318-.044-2.343.173-3.072.65-.712.478-1.093 1.216-1.128 2.214z" fill="#C4C9CC"/></svg>