<svg width="116" height="116" fill="none" xmlns="http://www.w3.org/2000/svg"><g clip-path="url(#clip0_2557_1845)" fill="#C4C9CC"><path d="M10.305 41.747l3.048 1.201.59-1.5c.418-1.059.595-1.85.533-2.376-.063-.525-.367-.895-.914-1.11-.553-.218-1.027-.166-1.423.155-.396.321-.797.998-1.204 2.03l-.63 1.6zm.899-5.534c.552-.622 1.129-1.01 1.729-1.166.594-.159 1.25-.096 1.97.187a3.458 3.458 0 011.486 1.093c.384.49.628 1.072.733 1.744.06.393.055.807-.016 1.241-.075.425-.255 1-.541 1.726l-.331.84-1.725 4.377c-.173.44-.385.722-.634.847-.247.119-.566.1-.96-.054-.353-.14-.584-.334-.693-.585-.115-.254-.105-.554.031-.9l.067-.17-7.456-2.938-.066.17c-.137.347-.334.573-.591.68-.258.106-.566.088-.926-.053-.387-.153-.628-.36-.726-.621-.103-.264-.07-.613.1-1.046l1.812-4.597c.554-1.406 1.247-2.365 2.08-2.876.835-.517 1.779-.569 2.832-.154.52.205.934.5 1.245.883.306.375.5.832.58 1.372zm-5.427 3.75l2.519.992.531-1.349c.323-.82.454-1.434.392-1.843-.06-.416-.32-.715-.779-.896-.433-.17-.81-.142-1.13.086-.318.221-.611.671-.88 1.351l-.653 1.66zM19.261 18.71l5.75 5.581 1.257-1.295c.34-.35.648-.534.926-.553.279-.03.564.098.857.382.298.29.442.579.43.867-.015.284-.19.598-.525.943l-4.444 4.578c-.34.35-.65.537-.934.561-.278.02-.569-.118-.872-.412-.298-.29-.439-.571-.422-.845.016-.273.196-.588.54-.942l1.257-1.295-5.75-5.582-1.257 1.295c-.34.35-.65.537-.934.561-.278.02-.566-.115-.864-.405-.304-.294-.447-.578-.43-.852.015-.274.195-.588.54-.942l4.444-4.579c.354-.365.665-.557.933-.576.268-.02.554.118.857.413.298.289.442.573.43.852-.01.278-.188.595-.532.95l-1.257 1.295zm16.042-2.44l-3.159-7.366-.167.072c-.356.153-.665.176-.929.071-.263-.105-.47-.336-.623-.691-.164-.382-.184-.7-.06-.956.122-.263.403-.488.844-.678l1.856-.795.582-.25c1.376-.59 2.408-.963 3.098-1.118.689-.155 1.316-.19 1.883-.106 1 .132 1.899.549 2.698 1.25.803.692 1.452 1.614 1.946 2.766.522 1.218.736 2.388.64 3.512a5.242 5.242 0 01-1.168 2.944c-.31.383-.715.74-1.213 1.07-.5.323-1.283.713-2.35 1.17l-1.095.47-1.856.796c-.454.195-.812.251-1.073.169-.265-.09-.482-.332-.65-.727-.15-.349-.171-.651-.063-.908.105-.263.335-.471.69-.624l.169-.072zm-.628-8.497l3.175 7.404.563-.241c1.244-.534 2.032-1.23 2.365-2.09.33-.866.223-1.93-.319-3.194-.533-1.244-1.234-2.043-2.102-2.395-.861-.355-1.897-.273-3.108.246a5.532 5.532 0 00-.361.167c-.08.033-.15.068-.213.103zm28.58 2.627l.183-.001c.386-.004.681.093.884.292.202.191.305.477.309.856.004.423-.1.728-.313.916-.206.189-.552.285-1.04.29l-3.233.032c-.494.005-.846-.08-1.055-.258-.21-.184-.316-.49-.32-.92-.005-.416.096-.714.302-.895.206-.181.556-.274 1.05-.28l.376-.003-.453-1.252-4.64.046-.45 1.261.376-.004c.487-.004.835.085 1.045.27.216.176.327.469.33.877.005.422-.1.728-.312.916-.206.189-.552.285-1.04.29l-2.77.027c-.495.005-.847-.084-1.056-.268-.21-.185-.317-.488-.32-.91-.005-.38.093-.667.291-.863.199-.202.492-.305.878-.31l.183-.001 2.8-8.042-.86.009c-.487.004-.839-.085-1.056-.27-.21-.183-.316-.483-.32-.898-.004-.423.096-.728.302-.917.213-.188.563-.284 1.05-.29l4.028-.04c.638-.006 1.089.334 1.353 1.019v.032l3.498 9.29zm-5.708-7.957l-1.512 4.549 3.115-.031-1.603-4.518zm25.112 2.978c.185-.172.357-.272.516-.3.158-.029.367.01.626.114.385.156.6.329.648.518.056.185.005.493-.154.923l-.736 1.927-.044.11c-.159.391-.35.634-.574.73-.215.09-.508.06-.88-.09-.47-.192-.72-.587-.748-1.185a10.108 10.108 0 01-.007-.212c-.039-.495-.192-.916-.46-1.265-.266-.355-.638-.63-1.116-.823-.597-.242-1.138-.3-1.623-.171-.475.124-.8.402-.975.833-.248.61.4 1.434 1.943 2.469l.62.414c1.162.795 1.912 1.594 2.251 2.396.34.802.309 1.698-.092 2.687-.495 1.22-1.292 1.995-2.391 2.322-1.096.32-2.417.168-3.964-.46a10.718 10.718 0 01-1.574-.777 8.08 8.08 0 01-1.224-.925c-.176.13-.349.202-.518.219-.172.023-.38-.015-.626-.115-.418-.17-.678-.368-.779-.594-.101-.227-.073-.544.084-.951l.91-2.356.044-.11c.177-.437.38-.71.61-.818.236-.106.556-.076.961.088.431.175.667.634.706 1.376.004.18.01.317.018.413.051.616.255 1.143.61 1.58.363.441.88.797 1.55 1.07.61.247 1.136.313 1.576.198.441-.115.754-.401.94-.86.288-.71-.26-1.558-1.646-2.544-.414-.292-.74-.528-.976-.709-1.15-.86-1.872-1.644-2.165-2.35-.29-.713-.257-1.51.101-2.393.46-1.135 1.26-1.889 2.4-2.261 1.15-.376 2.402-.29 3.756.259.451.183.874.408 1.267.676.4.27.779.586 1.135.947zm15.304 12.751c-.656-.65-1.435-.897-2.336-.74-.895.161-1.809.713-2.741 1.654-.932.942-1.475 1.866-1.627 2.773-.153.907.097 1.683.748 2.328.657.65 1.435.897 2.336.74.906-.16 1.827-.715 2.764-1.661.932-.942 1.472-1.864 1.62-2.766.152-.897-.102-1.673-.764-2.328zm1.754-1.77c1.251 1.239 1.838 2.707 1.761 4.404-.078 1.697-.804 3.24-2.18 4.629-1.386 1.4-2.921 2.146-4.607 2.24-1.686.095-3.16-.482-4.422-1.732-1.247-1.235-1.834-2.703-1.762-4.405.078-1.706.802-3.252 2.173-4.636 1.38-1.395 2.914-2.139 4.6-2.234 1.695-.094 3.174.484 4.436 1.733zm5.171 28.148l.07.17c.149.356.169.666.062.928-.102.26-.327.462-.678.609-.39.162-.712.18-.967.054-.251-.12-.471-.405-.658-.855l-1.245-2.984c-.191-.456-.243-.814-.158-1.075.092-.263.336-.477.733-.643.383-.16.698-.178.943-.055.245.122.463.412.653.868l.145.347.99-.89-1.786-4.284-1.338.058.145.347c.187.45.235.806.143 1.07-.083.266-.312.478-.689.636-.39.162-.712.18-.967.054-.252-.12-.471-.405-.659-.854l-1.067-2.558c-.19-.456-.239-.816-.147-1.08.092-.263.333-.476.723-.638.35-.147.653-.164.909-.054.262.108.467.34.616.698l.071.168 8.504-.428-.331-.793c-.187-.45-.237-.81-.147-1.08.091-.263.329-.474.712-.634.39-.163.711-.184.963-.064.255.126.476.414.663.864l1.551 3.718c.245.588.1 1.133-.435 1.636l-.03.012-7.294 6.733zm5.229-8.28l-4.784.308 1.2 2.875 3.584-3.182zm-3.318 39.7l-3.024-1.26-.62 1.487c-.439 1.05-.632 1.839-.58 2.365.052.526.349.902.891 1.128.549.23 1.024.187 1.427-.126.402-.314.817-.983 1.244-2.007l.662-1.586zm-1.009 5.516c-.565.61-1.149.987-1.752 1.131-.597.147-1.252.072-1.966-.226a3.466 3.466 0 01-1.464-1.123c-.374-.497-.607-1.083-.698-1.758a3.943 3.943 0 01.04-1.24c.083-.423.275-.995.576-1.715l.347-.833 1.812-4.342c.182-.437.398-.715.65-.835.249-.113.569-.088.959.074.35.146.577.346.681.599.111.255.094.555-.049.899l-.07.168 7.396 3.085.07-.168c.143-.344.345-.566.604-.668.26-.1.568-.077.925.072.383.16.621.371.713.635.098.266.058.614-.121 1.043l-1.902 4.56c-.582 1.396-1.294 2.34-2.137 2.834-.845.501-1.79.534-2.834.098-.516-.215-.925-.517-1.228-.907-.299-.381-.483-.842-.552-1.383zm5.5-3.642l-2.499-1.042-.558 1.338c-.339.813-.482 1.425-.428 1.835.051.417.305.721.761.911.43.18.807.159 1.132-.063.322-.215.624-.659.905-1.333l.687-1.646zM99.493 96.74l-3.654-1.31 1.326 3.615.03-.03c.23-.227.476-.33.74-.308.257.026.522.177.794.452.303.305.456.582.46.83.003.258-.145.536-.445.834l-1.74 1.723c-.342.337-.649.511-.922.519-.269.014-.554-.132-.856-.437-.272-.275-.408-.554-.406-.837-.004-.279.126-.549.391-.811l.122-.121-1.725-5.85-1.86-1.878-1 .99c-.346.343-.656.519-.93.527-.273.02-.553-.116-.84-.406-.292-.296-.43-.588-.414-.876.022-.284.203-.594.544-.932l3.954-3.915c.341-.337.651-.513.93-.527.278-.014.566.13.864.43.297.3.435.582.413.845-.016.268-.2.576-.551.924l-1 .99 1.64 1.657 6.166 1.891.13-.128c.264-.262.536-.39.814-.384.279.007.554.147.826.422.303.306.445.592.429.86-.012.274-.188.58-.529.917l-2 1.98c-.3.298-.579.443-.837.437-.264-.001-.544-.152-.841-.453-.267-.27-.413-.538-.437-.807-.024-.258.079-.5.308-.728l.106-.105zm-39.006 12.804l.033-3.277-1.612-.016c-1.138-.011-1.941.106-2.41.352-.467.246-.704.663-.71 1.25-.006.595.212 1.019.653 1.274.442.255 1.217.388 2.327.399l1.72.018zm-5.49 1.137c-.778-.294-1.347-.693-1.707-1.198-.36-.498-.537-1.133-.529-1.907.007-.652.17-1.244.49-1.778.32-.534.776-.97 1.367-1.308a3.95 3.95 0 011.164-.429c.424-.082 1.026-.119 1.806-.111l.903.009 4.705.047c.472.004.811.101 1.017.289.199.188.296.494.292.916-.004.38-.103.665-.299.857-.195.198-.479.296-.851.292l-.183-.002-.08 8.013.183.002c.373.004.654.107.846.309.191.203.285.497.281.884-.004.415-.11.715-.32.899-.21.192-.547.285-1.013.28l-4.941-.049c-1.511-.015-2.654-.32-3.429-.915-.782-.595-1.167-1.458-1.156-2.589.006-.559.133-1.052.38-1.479.24-.42.599-.764 1.074-1.032zm5.442 3.729l.027-2.707-1.45-.015c-.881-.009-1.502.089-1.862.293-.367.204-.553.553-.558 1.048-.005.465.157.807.484 1.025.32.218.845.331 1.576.338l1.783.018zm-24.669-5l3.159-7.365-1.659-.711c-.447-.192-.73-.415-.847-.668-.127-.249-.11-.561.05-.936.164-.382.383-.62.657-.712.27-.087.626-.035 1.067.154l5.865 2.515c.447.191.733.415.857.671.118.253.093.574-.073.962-.164.382-.377.614-.638.697-.261.082-.62.026-1.073-.168l-1.66-.712-3.157 7.365 1.658.712c.448.192.734.416.858.671.117.253.094.571-.07.952-.166.389-.38.624-.642.707-.261.083-.619.027-1.073-.168l-5.864-2.515c-.468-.2-.758-.422-.872-.666-.114-.244-.087-.559.08-.948.163-.382.377-.617.641-.706.264-.09.624-.037 1.078.158l1.658.711zM20.079 98.892l2.335-2.267-4.694-.07c.229.298.337.557.323.78-.018.228-.159.469-.42.723-.304.294-.592.434-.866.42-.278-.02-.587-.203-.926-.553l-1.833-1.888c-.339-.35-.512-.661-.518-.935-.01-.279.135-.565.438-.86.283-.274.569-.406.857-.397.279.01.555.155.83.438l.171.177 4.405.081c-.095-.716-.059-1.49.11-2.323.165-.828.542-1.977 1.131-3.447l-.097-.1-.15-.155c-.294-.303-.444-.596-.45-.88-.006-.284.13-.56.407-.83.303-.294.597-.429.88-.404.278.02.587.204.926.553l.92.948c.404.416.45 1.025.14 1.825a14.37 14.37 0 01-.142.348c-.39 1.037-.643 1.887-.76 2.548a8.507 8.507 0 00-.106 2.035l1.397.051 1.442-1.4-.12-.123c-.27-.277-.402-.558-.398-.841-.006-.284.128-.558.4-.822.303-.294.597-.43.88-.405.278.02.587.204.926.553l1.93 1.989c.344.355.525.669.54.942.012.28-.137.568-.445.867-.273.265-.548.392-.826.383-.284-.004-.56-.145-.83-.422l-.127-.132-5.75 5.582.127.131c.265.272.395.55.39.834-.009.278-.152.552-.43.822-.303.294-.591.434-.864.42-.279-.02-.587-.204-.927-.553l-1.93-1.989c-.334-.344-.51-.659-.525-.942-.016-.284.127-.573.43-.868.278-.269.561-.399.85-.39.283.005.56.145.829.423l.12.123zM6.599 79.35c.338.86.951 1.4 1.839 1.62.884.213 1.943.077 3.175-.408 1.233-.486 2.102-1.113 2.607-1.882.506-.769.59-1.58.254-2.432-.338-.86-.951-1.4-1.838-1.62-.894-.217-1.96-.082-3.2.407-1.233.486-2.098 1.111-2.597 1.877-.501.76-.581 1.573-.24 2.439zm-2.319.914c-.646-1.639-.59-3.219.164-4.74.756-1.522 2.043-2.64 3.862-3.358 1.832-.721 3.539-.786 5.12-.192 1.58.593 2.696 1.716 3.347 3.368.643 1.633.589 3.213-.164 4.74-.76 1.532-2.045 2.654-3.858 3.368-1.825.72-3.528.782-5.11.19-1.59-.598-2.71-1.723-3.36-3.376z"/></g><defs><clipPath id="clip0_2557_1845"><path fill="#fff" d="M0 0h116v116H0z"/></clipPath></defs></svg>