<svg width="168" height="169" fill="none" xmlns="http://www.w3.org/2000/svg"><path d="M5.515 57.624l-.342.904c-.068.171-.145.273-.248.316-.102.043-.248.026-.436-.043-.188-.068-.307-.153-.35-.256-.043-.102-.034-.23.026-.4l1.41-3.705a3.95 3.95 0 01.615-1.1 2.5 2.5 0 01.804-.658c.29-.145.615-.222.949-.222.333 0 .684.06 1.043.196.384.145.683.359.906.64a2.1 2.1 0 01.418.99c.368-.46.787-.759 1.266-.896.478-.136.991-.102 1.547.111.393.146.718.342.974.59.257.238.453.529.581.853.129.324.18.683.163 1.084-.017.4-.111.82-.282 1.28l-1.599 4.2c-.06.17-.145.272-.248.315-.102.043-.248.026-.435-.043-.189-.068-.308-.153-.351-.256-.043-.102-.034-.23.026-.401l.342-.905-6.779-2.594zm3.744-1.605c.222-.58.265-1.058.137-1.434-.128-.375-.41-.64-.846-.81-.453-.171-.847-.163-1.189.034-.341.196-.624.58-.846 1.169l-.581 1.528 2.744 1.04.581-1.527zm4.206 1.11c.23-.615.282-1.135.145-1.562-.137-.427-.444-.726-.923-.905-1.017-.384-1.761.043-2.231 1.28l-.761 1.998 3.034 1.152.736-1.963zm-2.966-10.985l-.958 1.793c-.085.162-.18.256-.282.281-.102.026-.248 0-.427-.094-.18-.093-.282-.196-.317-.298-.034-.103-.008-.24.077-.393l2.47-4.626c.086-.162.18-.256.283-.281.102-.035.248 0 .427.093.18.094.282.197.316.3.035.102.009.238-.076.392l-.958 1.792 6.402 3.405 1.026-1.928c.086-.163.18-.256.282-.282.103-.034.248 0 .428.094s.282.196.316.299c.034.102.009.239-.077.392l-2.616 4.908c-.085.162-.18.256-.282.281-.102.026-.248 0-.427-.093-.18-.094-.282-.197-.316-.3-.034-.102-.009-.238.077-.392l1.025-1.929-6.393-3.414zm4.068-6.998l-.512.725c-.103.145-.214.23-.317.248-.11.017-.248-.034-.41-.145-.162-.12-.256-.23-.274-.333-.017-.111.018-.24.129-.384l1.615-2.288c.103-.145.214-.23.316-.247.111-.017.248.034.41.145.163.12.257.23.274.333.017.11-.017.239-.128.384l-.419.597 2.727 1.92-.744-4.728-.307.444c-.103.145-.214.23-.317.248-.11.017-.248-.034-.41-.145-.162-.12-.256-.23-.273-.333-.018-.111.017-.24.128-.384l1.479-2.1c.102-.145.213-.23.316-.247.11-.017.248.034.41.145.162.12.256.23.274.333.017.11-.017.239-.129.384l-.256.367.692 4.583a2.41 2.41 0 01.693-.743c.273-.187.615-.29 1.017-.315a3.88 3.88 0 01.76.05c.266.043.522.095.77.154.256.06.496.128.735.188.24.06.453.103.65.128.196.026.367.017.521-.017a.577.577 0 00.36-.239l.127-.18c.103-.144.214-.23.317-.247.11-.017.247.034.41.145.162.12.256.23.273.333.018.111-.017.24-.128.384l-.376.53a1.204 1.204 0 01-.607.435c-.265.094-.624.11-1.077.042a7.456 7.456 0 01-.71-.145l-.709-.179c-.23-.06-.461-.11-.684-.153a2.776 2.776 0 00-.632-.06 1.31 1.31 0 00-.624.145 1.38 1.38 0 00-.496.452c-.128.18-.214.376-.273.58-.06.214-.069.436-.035.658l.052.324 1.991 1.408.744-1.05c.103-.145.214-.23.316-.247.111-.017.248.034.41.145.163.12.257.23.274.333.017.111-.017.239-.128.384l-1.94 2.74c-.103.145-.214.23-.317.247-.11.017-.248-.034-.41-.145-.162-.12-.256-.23-.274-.333-.017-.11.017-.239.129-.384l.513-.725-5.916-4.165zm8.001-4.866a6.13 6.13 0 01-1.274-1.57 4.767 4.767 0 01-.572-1.664 3.683 3.683 0 01.154-1.639c.17-.537.47-1.032.889-1.493a4.09 4.09 0 011.401-1.024 3.759 3.759 0 011.616-.308 4.51 4.51 0 011.71.41c.58.256 1.136.632 1.683 1.127a6.13 6.13 0 011.274 1.57c.308.555.496 1.101.564 1.665a3.798 3.798 0 01-.154 1.638c-.17.538-.47 1.033-.889 1.494a4.09 4.09 0 01-1.401 1.024 3.758 3.758 0 01-1.616.307 4.548 4.548 0 01-1.71-.41 6.279 6.279 0 01-1.675-1.126zm.846-.92c.42.383.847.673 1.283.878.436.205.854.325 1.256.35.402.026.795-.034 1.163-.179a2.74 2.74 0 001-.708c.299-.325.504-.675.615-1.059.111-.384.137-.768.077-1.178a3.643 3.643 0 00-.462-1.22 5.045 5.045 0 00-1-1.195 5.134 5.134 0 00-1.282-.879 3.493 3.493 0 00-1.265-.35 2.722 2.722 0 00-1.17.18 2.83 2.83 0 00-1.001.708 2.73 2.73 0 00-.616 1.058c-.12.384-.136.777-.068 1.178.069.4.222.81.47 1.22.248.41.573.811 1 1.195zM35.723 17.1l-.512.333c-.146.103-.283.137-.385.111-.111-.026-.214-.12-.325-.29-.111-.17-.154-.307-.137-.41.017-.11.103-.213.257-.307l1.478-.973c.18-.12.35-.136.496-.06l6.839 3.542-3.231-4.89-.778.512c-.146.102-.282.136-.385.11-.111-.025-.214-.119-.325-.29-.111-.17-.154-.307-.137-.409.017-.111.103-.213.257-.307l2.145-1.417c.154-.103.282-.137.385-.111.111.026.214.12.325.29.11.17.154.307.137.41-.017.11-.103.213-.257.307l-.376.248 4.428 6.7c.077.11.094.23.068.358-.034.128-.137.247-.307.358a.678.678 0 01-.385.12 1.14 1.14 0 01-.41-.111l-7.48-3.866 3.599 5.445.906-.598c.154-.102.282-.136.385-.11.102.025.213.119.324.29.111.17.154.307.137.41-.017.11-.103.213-.256.307l-2.343 1.544c-.153.103-.282.137-.384.111-.111-.025-.214-.12-.325-.29-.111-.17-.154-.307-.137-.41.017-.11.103-.213.257-.307l.444-.29-3.992-6.06zm8.232-5.214c-.162.076-.29.102-.393.06-.103-.043-.197-.146-.29-.325-.086-.18-.12-.324-.086-.427.034-.102.128-.196.29-.273l2.308-1.135c.163-.077.29-.103.402-.06.102.034.197.145.29.324.095.18.12.325.086.427-.034.103-.128.197-.29.273l-.795.393 2.239 4.532c.18.367.376.666.581.879.205.222.428.376.667.46.24.086.496.103.77.06.273-.042.572-.144.897-.307.325-.162.581-.332.786-.529a1.49 1.49 0 00.42-.648c.076-.24.093-.512.042-.811a3.505 3.505 0 00-.35-.999l-2.24-4.532-.795.393c-.163.077-.29.102-.393.06-.103-.043-.197-.146-.29-.325-.086-.179-.12-.324-.086-.427.034-.102.128-.196.29-.273l2.308-1.135c.163-.077.29-.102.402-.06.102.035.197.146.29.325.086.179.12.324.086.427-.034.102-.128.196-.29.273l-.445.213 2.308 4.677c.248.504.402.982.444 1.417.043.435 0 .836-.137 1.203a2.61 2.61 0 01-.675.999 4.71 4.71 0 01-1.154.794c-.461.23-.906.375-1.333.435a2.83 2.83 0 01-1.205-.077 2.597 2.597 0 01-1.043-.623c-.317-.299-.607-.708-.855-1.212l-2.308-4.668-.453.222zm10.215-4.72l-.761.264c-.171.06-.308.06-.402.017-.102-.05-.18-.17-.248-.358-.068-.188-.077-.333-.025-.435.042-.103.154-.18.325-.24l6.556-2.261c.17-.06.307-.06.401-.017.095.051.18.17.248.358l.659 1.904c.06.17.06.315.008.418-.06.102-.188.188-.402.264-.213.069-.367.086-.478.043-.111-.043-.197-.154-.257-.333l-.478-1.39-4.01 1.383.958 2.774 1.872-.65-.24-.682c-.06-.17-.06-.316-.008-.418.051-.103.188-.188.402-.265.214-.077.367-.085.479-.042.11.042.196.153.256.332l.82 2.382c.06.179.06.316.01.418-.06.102-.189.188-.403.264-.213.069-.367.086-.478.043-.111-.043-.197-.154-.257-.333l-.24-.682-1.871.648 1.06 3.056 4.163-1.434-.59-1.716c-.06-.17-.06-.316-.009-.418.052-.102.188-.188.402-.265.214-.068.368-.085.479-.042.11.042.188.153.256.333l.77 2.219c.068.188.076.333.025.435-.043.102-.154.18-.325.239l-6.701 2.313c-.171.06-.308.06-.402.017-.103-.051-.18-.17-.248-.358-.068-.188-.077-.333-.025-.436.042-.102.153-.179.324-.239l.761-.264-2.376-6.845zm8.556-2.826c-.18.035-.308.026-.402-.033-.094-.069-.154-.197-.196-.393-.043-.196-.034-.341.025-.435.06-.094.18-.162.35-.197l2.907-.606c.18-.034.308-.025.402.035.094.06.154.187.197.384.042.196.034.341-.026.435-.06.094-.18.162-.35.196l-1.095.23 3.813 6.35.957-7.348-.778.162c-.17.043-.308.026-.402-.034-.094-.06-.153-.188-.196-.384-.043-.196-.034-.341.025-.435.06-.094.18-.162.35-.197l2.59-.546c.18-.034.309-.025.403.034.094.06.154.188.196.384.043.197.034.342-.025.436-.06.094-.171.17-.35.205l-.6.128-1.145 8.398a.715.715 0 01-.222.452c-.12.103-.29.18-.513.23-.222.043-.41.043-.555-.008a.753.753 0 01-.376-.324L63.307 4.22l-.58.12zM76.13 9.334c.179-.018.307.017.392.085.086.077.129.213.146.41.017.196-.009.341-.077.426-.069.086-.197.137-.376.154l-2.642.213c-.18.017-.307-.017-.393-.085-.085-.068-.137-.205-.145-.41-.017-.196.008-.341.077-.426.068-.086.196-.137.376-.154l.444-.034 2.026-7.434-1.478.12c-.18.016-.308-.018-.394-.086-.085-.068-.136-.205-.145-.41-.017-.196.008-.341.077-.426.068-.086.197-.137.376-.154l2.898-.239c.213-.017.384.009.521.077s.24.196.325.367l3.428 7.553.478-.042c.18-.018.308.017.394.085.085.068.136.205.145.41.017.196-.009.34-.077.426-.068.086-.197.137-.376.154l-2.795.23c-.18.017-.308-.017-.393-.085-.086-.068-.137-.205-.146-.41-.017-.196.009-.341.077-.426.069-.086.197-.137.376-.154l1.069-.085-.804-1.827-3.83.316-.504 1.929.95-.068zm-.172-2.962l3.095-.256-1.821-4.148-.154.008-1.12 4.396zm8.788 3.278c-.01.187-.06.315-.146.392-.094.077-.248.11-.47.102-.222-.008-.376-.05-.462-.136-.085-.086-.12-.214-.11-.401l.102-2.373c.008-.188.06-.316.145-.393.094-.076.248-.11.47-.102.231.009.376.128.445.35.188.623.513 1.1.974 1.45.453.35 1.035.539 1.727.564.35.017.658-.008.923-.077a2 2 0 00.667-.298c.18-.128.316-.29.419-.487.094-.188.154-.401.162-.631.017-.35-.06-.632-.23-.845a1.882 1.882 0 00-.684-.53 4.81 4.81 0 00-.795-.281 59.355 59.355 0 00-.906-.23 37.533 37.533 0 01-.932-.248 4.528 4.528 0 01-.864-.333 3.077 3.077 0 01-.53-.333 1.805 1.805 0 01-.401-.444 1.995 1.995 0 01-.257-.58 2.581 2.581 0 01-.068-.751c.017-.41.111-.777.273-1.101.171-.324.394-.598.676-.81a2.734 2.734 0 011-.487 4.188 4.188 0 011.248-.128c.478.017.931.128 1.35.332.42.197.778.453 1.06.769l.017-.487c.009-.188.06-.316.146-.393.094-.076.248-.11.47-.102.222.009.376.051.461.137.086.085.12.213.112.4l-.077 1.819c-.009.187-.06.315-.146.392-.094.077-.248.111-.47.103-.205-.009-.333-.086-.402-.222a2.566 2.566 0 00-1.034-1.152 3.3 3.3 0 00-1.547-.436c-.59-.025-1.051.094-1.376.359-.325.264-.496.614-.513 1.058-.009.23.043.418.154.563.11.154.265.282.453.384.205.111.453.214.726.282.282.077.573.145.88.222.309.077.625.154.95.239.324.085.632.188.923.316.23.102.453.23.65.375.196.145.367.325.512.52.146.206.248.445.325.71.077.272.103.58.094.938-.017.41-.102.777-.265 1.11a2.409 2.409 0 01-.675.845c-.29.23-.65.4-1.077.52-.419.12-.906.162-1.453.145a3.906 3.906 0 01-1.462-.341 3.122 3.122 0 01-1.137-.896l-.025.631zm18.523 2.483c-.052.18-.137.29-.24.341-.102.052-.265.043-.478-.017-.214-.06-.351-.145-.411-.247-.059-.103-.068-.24-.008-.418l.684-2.28c.051-.178.136-.29.239-.34.103-.052.265-.043.479.016a.453.453 0 01.342.453c.034.649.222 1.195.581 1.647.359.452.872.777 1.539.973.333.102.641.154.914.145.274 0 .513-.043.718-.128a1.35 1.35 0 00.522-.367 1.64 1.64 0 00.316-.572c.102-.333.094-.623-.017-.87a1.904 1.904 0 00-.539-.683 4.99 4.99 0 00-.701-.47c-.265-.145-.538-.298-.82-.452a27.072 27.072 0 01-.838-.47 5.612 5.612 0 01-.752-.528 2.656 2.656 0 01-.428-.453 2.144 2.144 0 01-.282-.529 1.842 1.842 0 01-.102-.623c0-.222.043-.47.119-.743.12-.392.3-.725.539-.998a2.45 2.45 0 01.855-.623 2.8 2.8 0 011.085-.222c.394-.009.812.051 1.24.18.461.136.872.358 1.231.656.359.3.641.632.837 1.007l.137-.46c.051-.18.137-.29.239-.342.103-.051.265-.042.479.017.214.06.351.145.41.248.06.102.069.239.009.418l-.521 1.741c-.052.18-.137.29-.24.342-.102.05-.265.042-.478-.018-.197-.06-.308-.162-.334-.315a2.495 2.495 0 00-.718-1.366c-.367-.367-.838-.632-1.393-.802-.564-.17-1.043-.17-1.419 0-.385.17-.633.47-.761.896a.865.865 0 00.009.589c.068.17.179.333.342.486.171.163.384.316.641.453.256.145.521.29.803.435.282.145.564.299.855.46.291.163.564.342.812.539.205.162.376.332.539.529.162.187.282.4.367.631.086.23.137.487.145.768a2.92 2.92 0 01-.145.93c-.12.393-.291.726-.53 1.008-.239.281-.53.503-.863.657-.342.154-.735.23-1.171.239-.436.008-.923-.068-1.445-.222a3.845 3.845 0 01-1.325-.691 3.101 3.101 0 01-.88-1.152l-.188.597zm9.052-1.724a6.268 6.268 0 011.086-1.707c.427-.47.897-.82 1.401-1.067a3.862 3.862 0 011.607-.375c.565-.009 1.129.12 1.701.375a4.141 4.141 0 011.419 1.007c.376.418.641.896.804 1.434a4.36 4.36 0 01.145 1.75 6.174 6.174 0 01-.538 1.946 6.315 6.315 0 01-1.086 1.707c-.427.47-.897.82-1.402 1.058a3.723 3.723 0 01-1.607.367c-.564.009-1.128-.12-1.701-.375a4.14 4.14 0 01-1.419-1.008 3.72 3.72 0 01-.803-1.434 4.502 4.502 0 01-.154-1.75c.06-.63.256-1.254.547-1.928zm1.145.512a5.354 5.354 0 00-.436 1.494c-.059.478-.034.904.069 1.306.102.4.282.742.538 1.05.257.298.59.545.992.716.402.18.803.265 1.197.248a2.534 2.534 0 001.136-.299c.359-.188.701-.46 1.009-.828.316-.358.59-.802.821-1.323.23-.52.376-1.015.436-1.493a3.453 3.453 0 00-.069-1.306 2.612 2.612 0 00-.538-1.05 2.68 2.68 0 00-.992-.717 2.646 2.646 0 00-1.197-.247 2.63 2.63 0 00-1.145.307 3.63 3.63 0 00-1.017.828c-.316.358-.564.793-.804 1.314zm11.224 1.374l-1.103-.666c-.154-.093-.248-.196-.265-.298-.026-.111.017-.248.12-.418.102-.171.205-.274.316-.3.103-.025.239 0 .393.095l3.761 2.27c.154.094.248.196.265.299.026.11-.017.247-.119.418-.103.17-.206.273-.317.299-.111.025-.239 0-.393-.094l-1.641-.99-3.753 6.204 3.36 2.023 1.35-2.227c.094-.163.205-.248.317-.273.111-.026.265.025.461.136.188.111.299.23.333.341.035.111 0 .248-.094.41l-1.624 2.689c-.102.17-.213.273-.316.298-.102.026-.239 0-.393-.093l-6.069-3.662c-.154-.094-.248-.196-.265-.299-.026-.11.017-.247.12-.418.102-.17.213-.273.316-.299.102-.025.239 0 .393.094l1.103.666 3.744-6.205zm7.633 4.805c-.137-.11-.214-.222-.231-.333-.008-.11.043-.238.171-.4.128-.154.239-.248.351-.257.111-.017.239.034.376.145l2.017 1.588c.137.11.214.222.231.333.008.11-.043.239-.171.4-.128.154-.24.248-.351.257-.111.017-.239-.034-.376-.145l-.701-.546-3.137 3.968a3.648 3.648 0 00-.547.905 1.698 1.698 0 00-.128.802c.026.256.12.495.274.726.162.23.376.452.658.674.282.222.555.384.812.486.256.103.521.137.769.103a1.76 1.76 0 00.752-.307c.248-.171.496-.419.752-.743l3.138-3.969-.693-.546c-.145-.11-.222-.222-.231-.333-.008-.11.043-.247.171-.4.12-.154.24-.248.351-.257.111-.017.231.034.376.145l2.017 1.588c.137.11.214.222.231.332.009.111-.043.24-.171.402-.128.153-.239.247-.35.256-.112.017-.24-.034-.377-.145l-.384-.308-3.231 4.089c-.351.443-.718.776-1.094 1.007a2.63 2.63 0 01-1.154.392 2.697 2.697 0 01-1.197-.179 4.679 4.679 0 01-1.214-.7 4.481 4.481 0 01-.966-1.015 2.728 2.728 0 01-.444-1.118 2.612 2.612 0 01.119-1.212c.137-.419.377-.845.727-1.29l3.231-4.087-.376-.308zm7.881 17.01a5.654 5.654 0 01-1.692-.606c-.53-.29-1-.648-1.428-1.084-.436-.443-.752-.921-.94-1.45a3.66 3.66 0 01-.205-1.605c.051-.546.231-1.101.521-1.664.291-.555.701-1.093 1.222-1.614a6.507 6.507 0 011.633-1.194 4.539 4.539 0 011.693-.487 3.722 3.722 0 011.615.23c.522.197.992.504 1.411.93.359.368.615.743.76 1.136.146.393.197.785.163 1.186l.325-.324c.128-.128.256-.188.376-.188.119.009.256.086.41.248.154.162.239.299.239.41.009.119-.06.238-.188.367l-1.863 1.834c-.128.128-.257.188-.376.188-.12 0-.257-.085-.411-.247-.153-.162-.239-.299-.239-.41-.008-.12.06-.239.188-.375a1.93 1.93 0 00.436-.615c.111-.23.162-.47.162-.726s-.059-.52-.179-.793a2.856 2.856 0 00-.581-.82 2.673 2.673 0 00-1.017-.657 2.62 2.62 0 00-1.18-.136c-.41.042-.829.179-1.257.392-.427.214-.837.53-1.248.93-.41.402-.726.811-.957 1.23a3.474 3.474 0 00-.427 1.22c-.052.401-.017.785.102 1.152.128.367.334.709.641 1.016.368.375.778.683 1.214.913a4.2 4.2 0 001.376.444c.137.017.24.077.325.17.077.095.094.257.034.479-.051.204-.136.35-.248.435-.102.085-.247.11-.41.085zm9.249-.452l-1.239-1.605c-.112-.145-.154-.264-.137-.375.017-.111.102-.222.265-.35.162-.128.29-.18.401-.162.112.008.223.094.325.23l3.197 4.157c.111.145.154.264.137.375-.017.111-.103.222-.265.35-.162.128-.291.18-.402.162-.111-.017-.222-.094-.325-.23l-1.239-1.605-5.753 4.413 1.334 1.732c.111.145.154.265.136.376-.017.11-.102.222-.264.35-.163.12-.291.18-.402.162-.111-.017-.222-.094-.325-.23l-3.385-4.413c-.111-.145-.154-.264-.137-.375.017-.111.103-.222.265-.35.163-.128.291-.18.402-.163.111.009.222.094.325.23l1.333 1.733 5.753-4.412zm.897 7.28c.633-.367 1.257-.623 1.881-.75a4.743 4.743 0 011.761-.052c.555.102 1.06.307 1.521.631.462.325.847.76 1.163 1.298a4.08 4.08 0 01.564 1.647 3.818 3.818 0 01-.188 1.639 4.762 4.762 0 01-.898 1.51c-.418.478-.94.897-1.572 1.272-.633.367-1.265.623-1.881.751a4.516 4.516 0 01-1.752.043 3.816 3.816 0 01-1.522-.64c-.461-.325-.846-.76-1.162-1.298a4.049 4.049 0 01-.564-1.647c-.06-.563 0-1.1.188-1.63.179-.53.478-1.033.897-1.51.41-.462.932-.888 1.564-1.264zm.633 1.084c-.496.29-.898.606-1.222.956-.325.35-.556.717-.71 1.101a2.606 2.606 0 00-.171 1.16c.034.393.163.786.385 1.162.222.375.496.674.829.904a2.55 2.55 0 001.103.418c.401.06.837.035 1.308-.076a5.32 5.32 0 001.436-.598c.495-.29.897-.606 1.222-.956.325-.35.564-.717.709-1.1.154-.385.206-.769.18-1.17a2.744 2.744 0 00-.385-1.16 2.823 2.823 0 00-.829-.905 2.666 2.666 0 00-1.103-.419c-.401-.06-.846-.025-1.307.086a5.242 5.242 0 00-1.445.597zm8.018 6.973l-.239-.563c-.069-.162-.086-.299-.043-.401.043-.103.154-.188.342-.273.188-.077.325-.103.427-.06.103.042.188.145.257.307l.701 1.63c.085.197.076.367-.026.504l-4.701 6.094 5.393-2.305-.367-.853c-.069-.163-.086-.299-.043-.401.043-.103.154-.188.342-.273.188-.077.325-.103.427-.06.103.042.188.145.265.307l1.009 2.356c.068.162.085.298.043.4-.043.103-.154.188-.342.274-.188.077-.325.102-.428.06-.102-.043-.188-.145-.256-.308l-.18-.418-7.394 3.158a.458.458 0 01-.367 0c-.12-.051-.214-.17-.299-.367a.608.608 0 01-.043-.401c.026-.128.094-.256.188-.384l5.137-6.666-6.009 2.57.428.998c.068.162.085.298.042.4-.042.103-.154.189-.342.274-.188.077-.324.102-.427.06-.103-.043-.188-.145-.256-.308l-1.103-2.577c-.069-.162-.086-.299-.043-.401.043-.103.154-.188.342-.273.188-.077.325-.103.427-.06.103.043.188.145.257.307l.214.487 6.667-2.834zm3.923 9.9l-.222-.776c-.051-.17-.043-.307.009-.401.051-.094.179-.171.376-.222.196-.052.342-.06.436-.009.094.051.171.162.222.333l1.906 6.657c.051.17.043.307-.008.401-.052.094-.18.171-.376.222l-1.941.555c-.179.051-.316.043-.419-.017-.102-.06-.179-.196-.239-.41-.06-.213-.068-.375-.009-.478.052-.102.171-.187.342-.23l1.419-.401-1.162-4.071-2.83.81.547 1.904.693-.197c.179-.05.316-.042.419.018.102.06.179.196.239.41.06.212.068.375.017.477-.051.102-.171.188-.342.23l-2.427.692c-.18.051-.317.043-.419-.017-.103-.06-.18-.197-.24-.41-.059-.213-.068-.375-.008-.478.051-.102.171-.18.342-.23l.692-.197-.547-1.903-3.111.888 1.213 4.224 1.744-.495c.18-.05.317-.042.419.018.103.06.18.196.239.41.06.213.069.375.018.477-.052.103-.171.188-.342.23l-2.266.65c-.196.05-.341.059-.436.008-.094-.051-.17-.162-.222-.333l-1.949-6.81c-.051-.172-.042-.308.009-.402.051-.094.179-.17.376-.222.197-.051.342-.06.436-.008.094.05.171.162.222.332l.222.777 6.958-2.006zm-5.248 11.71c-.18.026-.316.009-.41-.068-.094-.077-.154-.222-.188-.444-.035-.222-.017-.375.051-.478.068-.094.188-.162.367-.188l2.351-.358c.18-.026.325-.008.41.068.094.077.154.222.189.444.034.222-.052.393-.257.504-.573.307-.983.717-1.239 1.229-.257.512-.325 1.118-.223 1.8.052.342.137.64.257.888.119.248.256.444.427.598a1.4 1.4 0 00.556.315c.205.06.427.069.658.034.342-.05.607-.179.786-.392.18-.205.308-.461.385-.777.06-.256.103-.537.128-.836l.052-.93c.017-.325.034-.64.059-.956.026-.316.077-.623.154-.905a2.66 2.66 0 01.223-.58 1.96 1.96 0 01.359-.487c.145-.145.316-.264.521-.358.205-.103.444-.171.718-.214.41-.06.786-.042 1.137.06.35.102.658.265.932.504.273.239.495.529.666.879.171.35.299.75.368 1.195a3.62 3.62 0 01-.06 1.39 3.36 3.36 0 01-.547 1.187l.479-.077c.179-.025.324-.008.41.069.085.076.154.221.188.443s.017.376-.043.478c-.068.094-.188.162-.376.188l-1.803.282c-.18.025-.325.008-.411-.069-.094-.076-.154-.222-.188-.443-.034-.197.017-.342.146-.436a2.66 2.66 0 00.931-1.229c.18-.486.214-1.024.128-1.596-.094-.58-.299-1.007-.615-1.28-.316-.264-.701-.367-1.137-.299a.89.89 0 00-.53.256 1.332 1.332 0 00-.29.521c-.069.222-.12.478-.137.768l-.052.905c-.017.316-.025.64-.051.973a6.889 6.889 0 01-.137.964 3.272 3.272 0 01-.247.709 2.1 2.1 0 01-.419.606 2.37 2.37 0 01-.633.46 3.09 3.09 0 01-.897.274c-.402.06-.787.042-1.146-.043a2.238 2.238 0 01-.966-.504c-.282-.239-.521-.563-.718-.947-.196-.393-.333-.853-.419-1.391a3.799 3.799 0 01.06-1.494 3.25 3.25 0 01.658-1.288l-.615.076zm5.283 39.354l.324-.904c.06-.171.146-.273.24-.325.102-.042.248-.034.436.035.188.068.307.153.359.247.051.103.042.231-.017.401l-1.351 3.73c-.162.444-.359.819-.598 1.118-.24.299-.505.521-.795.666-.291.153-.607.23-.949.239a2.868 2.868 0 01-1.043-.179 2.107 2.107 0 01-.923-.624 2.18 2.18 0 01-.436-.981c-.359.469-.778.768-1.248.922-.47.145-.992.119-1.547-.086a2.981 2.981 0 01-.983-.571 2.357 2.357 0 01-.599-.845 2.599 2.599 0 01-.179-1.076c.009-.401.103-.828.265-1.28l1.521-4.225c.06-.17.146-.273.24-.324.102-.043.248-.034.436.034s.307.154.359.248c.051.102.042.23-.017.401l-.325.904 6.83 2.475zm-7.941.632c-.223.623-.265 1.144-.12 1.562.145.418.462.717.94.888 1.026.367 1.761-.069 2.214-1.315l.727-2.014-3.052-1.101-.709 1.98zm4.222 1.033c-.213.589-.248 1.067-.111 1.434.137.375.419.64.863.793.454.163.847.145 1.189-.059.342-.197.615-.598.829-1.178l.555-1.545-2.761-.99-.564 1.545zm-1.077 9.909l.923-1.81c.077-.162.18-.256.283-.29.102-.034.247 0 .427.086.179.085.282.187.325.29.042.102.008.239-.069.392l-2.385 4.669c-.085.162-.179.256-.282.29-.102.034-.247 0-.427-.085-.179-.094-.282-.188-.325-.29-.034-.103-.017-.239.069-.393l.923-1.809-6.462-3.295-.992 1.946c-.085.162-.18.256-.282.29-.103.034-.248 0-.427-.085-.18-.094-.283-.188-.325-.29-.043-.103-.017-.239.068-.393l2.53-4.95c.086-.162.18-.256.282-.29.103-.034.248 0 .428.085.179.094.282.188.325.29.042.103.008.239-.069.393l-.991 1.946 6.453 3.303zm-3.94 7.067l.495-.734c.103-.146.206-.231.317-.248.111-.017.248.026.41.145.162.111.256.222.282.333.026.111-.017.239-.12.384l-1.581 2.322c-.103.145-.205.23-.316.247-.111.017-.248-.026-.411-.145-.162-.111-.256-.222-.282-.333-.025-.111.017-.239.12-.384l.41-.606-2.761-1.878.83 4.72.299-.444c.102-.145.205-.23.316-.247.111-.017.248.025.41.145.163.111.257.222.282.333.026.111-.017.239-.119.384l-1.445 2.125c-.102.145-.205.23-.316.248-.111.017-.248-.026-.41-.146-.171-.11-.257-.221-.283-.332-.025-.111.018-.239.12-.384l.257-.376-.77-4.575c-.179.308-.41.564-.675.76-.274.188-.607.299-1.009.333-.248.008-.495 0-.76-.034a7.965 7.965 0 01-.778-.145c-.257-.06-.505-.111-.744-.171a4.205 4.205 0 00-.658-.111 1.688 1.688 0 00-.522.026.57.57 0 00-.35.247l-.128.179c-.103.145-.205.231-.317.248-.111.017-.247-.026-.41-.145-.162-.12-.256-.222-.282-.333-.026-.111.017-.239.12-.384l.367-.538c.137-.196.334-.341.599-.444.265-.102.624-.119 1.077-.059.231.034.47.076.709.128.24.051.479.11.71.17.23.06.461.103.684.145.222.043.435.06.632.052.222 0 .427-.052.615-.154.189-.103.351-.256.488-.461.119-.179.205-.376.265-.589.06-.213.06-.435.017-.657l-.06-.324-2.017-1.375-.718 1.059c-.103.145-.206.23-.317.247-.111.017-.248-.025-.41-.145-.162-.111-.256-.222-.282-.333-.026-.111.017-.239.12-.384l1.889-2.774c.102-.145.205-.23.316-.247.111-.017.248.026.41.145.163.111.257.222.282.333.026.111-.017.239-.119.384l-.496.734 6.018 4.063zm-7.916 5.001c.556.487.983.999 1.308 1.545.325.546.522 1.101.599 1.656a3.8 3.8 0 01-.129 1.638 4.088 4.088 0 01-.863 1.511c-.41.469-.872.819-1.385 1.05a3.77 3.77 0 01-1.615.333 4.563 4.563 0 01-1.719-.384 6.257 6.257 0 01-1.701-1.093 6.562 6.562 0 01-1.307-1.545 4.751 4.751 0 01-.599-1.647 3.79 3.79 0 01.129-1.639 4.092 4.092 0 01.863-1.51c.41-.47.872-.82 1.385-1.05a3.726 3.726 0 011.607-.333 4.706 4.706 0 011.718.376c.598.247 1.162.614 1.709 1.092zm-.82.939a5.27 5.27 0 00-1.3-.862c-.436-.196-.854-.307-1.265-.324a2.671 2.671 0 00-1.162.204 2.74 2.74 0 00-.983.726 2.725 2.725 0 00-.599 1.067 2.489 2.489 0 00-.051 1.177c.069.402.231.803.487 1.212a5.1 5.1 0 001.018 1.178c.427.376.863.666 1.299.862.436.197.855.308 1.265.325.41.025.795-.043 1.163-.205.367-.154.692-.401.983-.726.29-.324.487-.683.598-1.067.111-.384.128-.776.051-1.177a3.601 3.601 0 00-.487-1.212c-.248-.41-.59-.794-1.017-1.178zm-12.01 16.455l.504-.341c.146-.103.274-.145.385-.12.103.026.222.12.333.282.111.162.163.299.146.409-.017.111-.103.214-.248.316l-1.462.999c-.179.119-.342.145-.496.068l-6.898-3.414 3.317 4.831.76-.521c.146-.102.274-.145.385-.119.111.025.222.119.334.281.111.163.162.299.145.41-.017.111-.103.213-.248.316l-2.12 1.451c-.145.102-.273.145-.385.119-.111-.025-.222-.119-.333-.281-.111-.163-.162-.299-.145-.41.017-.111.102-.213.248-.316l.376-.256-4.548-6.623a.415.415 0 01-.068-.358c.026-.128.128-.248.299-.359a.691.691 0 01.385-.128.99.99 0 01.41.111l7.548 3.73-3.693-5.386-.897.615c-.146.102-.274.145-.385.119-.111-.025-.222-.119-.333-.281-.112-.162-.163-.299-.146-.41.017-.111.103-.213.248-.316l2.317-1.587c.145-.103.273-.145.384-.12.111.026.222.12.334.282.111.162.162.299.145.41-.017.111-.103.213-.248.315l-.436.299 4.086 5.983zm-8.163 5.377c.162-.085.29-.102.393-.068.103.034.205.145.291.324.085.179.119.324.094.427-.035.102-.129.196-.291.281l-2.282 1.178c-.163.086-.291.103-.394.069-.102-.035-.205-.146-.29-.325-.094-.179-.12-.324-.094-.427.034-.102.128-.196.29-.281l.787-.41-2.317-4.489c-.188-.367-.384-.657-.598-.871-.214-.213-.436-.367-.675-.444a1.59 1.59 0 00-.778-.042 3.04 3.04 0 00-.889.324c-.316.171-.581.341-.778.538a1.627 1.627 0 00-.41.657 1.697 1.697 0 00-.034.811c.051.299.179.623.367.99l2.317 4.489.786-.41c.162-.085.291-.102.393-.068.103.034.205.145.291.325.094.179.119.324.094.426-.034.103-.128.197-.291.282l-2.282 1.178c-.162.085-.291.102-.393.068-.103-.034-.205-.145-.291-.324-.085-.18-.12-.325-.094-.427.034-.102.128-.196.291-.282l.436-.222-2.385-4.634c-.257-.504-.419-.973-.47-1.408a2.595 2.595 0 01.119-1.212c.129-.367.351-.709.659-1.016.307-.307.683-.58 1.145-.811a4.496 4.496 0 011.325-.461 2.715 2.715 0 011.205.06c.376.111.727.307 1.052.606.324.299.615.691.88 1.195l2.385 4.634.436-.23zm-10.112 4.882l.76-.282c.171-.059.3-.068.402-.017.103.051.18.171.248.359.068.187.077.333.034.435-.043.102-.154.179-.325.247l-6.513 2.373c-.171.06-.299.068-.402.017-.102-.051-.179-.162-.248-.358l-.692-1.886c-.06-.171-.069-.316-.017-.419.051-.102.188-.196.393-.273.205-.077.368-.094.479-.051.111.043.196.154.256.324l.504 1.383 3.984-1.451-1.009-2.757-1.863.683.248.674c.059.171.068.316.017.419-.052.102-.188.196-.394.273-.205.076-.367.094-.478.051-.111-.043-.197-.154-.257-.324l-.863-2.365c-.06-.17-.068-.315-.017-.418.051-.102.188-.196.393-.273.205-.077.368-.094.479-.051.111.043.196.153.256.324l.248.674 1.864-.682-1.112-3.039-4.137 1.511.624 1.707c.06.171.068.316.017.418-.051.103-.188.196-.393.273-.205.077-.368.094-.479.051-.111-.042-.196-.153-.256-.324l-.812-2.21c-.069-.188-.077-.333-.034-.436.042-.102.153-.179.324-.247l6.659-2.433c.171-.059.299-.068.402-.017.103.051.18.162.248.359.068.188.077.333.034.435-.043.102-.154.179-.316.248l-.761.273 2.505 6.802zm-8.514 2.987c.179-.043.308-.034.402.034.094.06.162.188.205.384.043.197.034.342-.017.436-.06.093-.171.162-.351.204l-2.889.658c-.179.042-.308.034-.402-.035-.094-.059-.162-.187-.205-.384-.043-.196-.034-.341.017-.435.06-.094.171-.162.351-.205l1.094-.247-3.924-6.29-.829 7.365.77-.179c.179-.043.307-.026.401.034.094.06.163.188.205.384.043.196.035.342-.017.435-.059.094-.171.163-.35.205l-2.582.589c-.18.043-.307.034-.401-.034-.094-.06-.163-.188-.206-.384-.042-.196-.034-.341.018-.435.06-.094.17-.162.35-.205l.598-.137 1-8.415c.026-.196.095-.35.214-.452.12-.111.282-.188.505-.239.222-.052.41-.052.555 0 .145.042.274.153.376.324l4.531 7.152.581-.128zm-13.498-4.754c-.179.017-.307-.008-.392-.077-.086-.068-.137-.204-.154-.409-.017-.197 0-.342.068-.427.069-.085.188-.137.368-.154l2.632-.264c.18-.017.308.008.394.077.085.068.136.204.154.409.017.197 0 .342-.069.427-.068.085-.188.137-.368.154l-.444.042-1.898 7.468 1.48-.145c.179-.017.307.009.392.077.086.068.137.205.154.41.017.196 0 .341-.068.426-.068.086-.197.137-.368.154l-2.897.29c-.214.017-.385 0-.522-.068a.696.696 0 01-.325-.367l-3.556-7.494-.478.052c-.18.017-.308-.009-.394-.077-.085-.069-.136-.205-.153-.41-.017-.196.008-.341.077-.427.068-.085.188-.136.367-.153l2.795-.273c.18-.017.308.008.394.076.085.069.136.205.153.41.017.196 0 .341-.068.427-.068.085-.188.136-.368.153l-1.068.103.83 1.809 3.829-.375.47-1.938-.966.094zm.223 2.953l-3.094.307 1.889 4.114.154-.017 1.051-4.404zm-8.856-3.123c0-.188.052-.316.137-.393.086-.077.248-.111.47-.111.223.008.376.051.462.128.085.077.128.213.12.401l-.06 2.373c0 .188-.052.316-.137.392-.086.077-.248.111-.47.111-.23-.008-.376-.119-.453-.341-.205-.615-.53-1.093-1-1.434-.462-.341-1.043-.521-1.744-.529a3.269 3.269 0 00-.915.094 1.741 1.741 0 00-.658.316 1.33 1.33 0 00-.41.495 1.566 1.566 0 00-.154.64c-.009.35.068.631.248.836.18.205.402.384.7.512.24.103.505.197.804.273.3.077.599.145.915.214.316.068.624.145.932.23.307.086.598.188.863.316.197.085.368.196.53.324.162.128.3.273.41.436.111.17.205.358.265.58.06.213.086.469.077.751-.008.41-.094.777-.256 1.11a2.395 2.395 0 01-.659.819 2.86 2.86 0 01-.991.503 4.155 4.155 0 01-1.248.154 3.36 3.36 0 01-1.36-.307 3.424 3.424 0 01-1.076-.751l-.009.486c-.008.188-.051.316-.145.393-.086.077-.248.111-.47.111-.222-.009-.376-.051-.462-.128-.085-.077-.128-.214-.12-.401l.043-1.818c0-.188.052-.316.137-.393.086-.077.248-.111.47-.111.205.009.334.077.41.214.248.495.599.87 1.052 1.135.453.264.974.392 1.556.409.59.017 1.051-.111 1.367-.375.325-.265.488-.623.496-1.067a.849.849 0 00-.162-.563 1.377 1.377 0 00-.462-.376 3.06 3.06 0 00-.735-.273 36.067 36.067 0 00-.889-.205c-.308-.068-.624-.145-.949-.222a5.34 5.34 0 01-.923-.307 3.499 3.499 0 01-.658-.367 2.286 2.286 0 01-.522-.512 2.478 2.478 0 01-.342-.708 3.092 3.092 0 01-.11-.931c.008-.409.093-.776.247-1.118a2.35 2.35 0 01.667-.862 2.87 2.87 0 011.068-.538 5.048 5.048 0 011.445-.17c.53.017 1.017.119 1.462.324a3.31 3.31 0 011.154.879l.042-.648zM66 157.149c.051-.18.128-.291.23-.342.103-.051.266-.051.48.009.213.06.35.136.41.239.06.102.068.239.017.418l-.641 2.287c-.051.18-.128.291-.231.35-.103.051-.265.051-.479-.008-.222-.06-.333-.214-.35-.444-.043-.649-.248-1.195-.607-1.639-.368-.444-.88-.759-1.556-.947a3.394 3.394 0 00-.914-.137 2.024 2.024 0 00-.718.137 1.429 1.429 0 00-.522.375c-.137.163-.24.359-.308.581-.094.333-.085.623.035.87.12.248.299.47.547.675.205.162.444.315.71.46.264.146.546.291.828.436.282.145.573.298.847.452.282.154.53.324.76.521.163.136.308.281.436.443.129.163.222.333.29.53.07.187.112.401.112.623a2.62 2.62 0 01-.103.742 2.564 2.564 0 01-.521 1.007 2.58 2.58 0 01-.846.64 2.748 2.748 0 01-1.086.239 4.039 4.039 0 01-1.248-.162 3.483 3.483 0 01-1.24-.631 3.448 3.448 0 01-.854-.99l-.128.461c-.052.179-.129.29-.231.349-.103.06-.265.052-.479-.008-.213-.06-.35-.137-.41-.239-.06-.102-.068-.239-.017-.418l.496-1.75c.05-.179.128-.29.23-.35.103-.051.265-.051.48.009.196.051.307.153.341.307.12.546.36.999.735 1.357.376.358.846.623 1.402.777.573.162 1.043.153 1.419-.026.376-.179.624-.478.744-.905.06-.222.06-.409-.017-.589a1.303 1.303 0 00-.35-.477 3.322 3.322 0 00-.642-.444c-.257-.137-.521-.282-.812-.418-.282-.146-.573-.291-.863-.453a6.698 6.698 0 01-.821-.52 3.477 3.477 0 01-.547-.513 2.059 2.059 0 01-.376-.631 2.199 2.199 0 01-.154-.768 3.157 3.157 0 01.128-.931 2.77 2.77 0 01.513-1.015c.23-.29.522-.512.855-.666a3.112 3.112 0 011.162-.265c.436-.017.923.052 1.445.197a3.83 3.83 0 011.342.674c.385.307.684.683.906 1.135l.171-.614zm-9.01 1.886a6.26 6.26 0 01-1.06 1.724 4.6 4.6 0 01-1.384 1.092 3.72 3.72 0 01-1.599.401c-.564.018-1.128-.102-1.71-.341a4.134 4.134 0 01-1.435-.981 3.688 3.688 0 01-.83-1.426 4.507 4.507 0 01-.179-1.749 6.175 6.175 0 01.504-1.955 6.145 6.145 0 011.06-1.724c.42-.469.88-.836 1.385-1.084a3.711 3.711 0 011.599-.392c.564-.018 1.128.102 1.71.341a4.134 4.134 0 011.435.981c.385.41.658.888.83 1.417.17.529.23 1.118.179 1.741-.051.623-.222 1.281-.505 1.955zm-1.154-.487a5.354 5.354 0 00.41-1.502 3.438 3.438 0 00-.093-1.306 2.593 2.593 0 00-.564-1.032 2.744 2.744 0 00-1-.7 2.752 2.752 0 00-1.206-.231 2.556 2.556 0 00-1.137.325 3.515 3.515 0 00-1 .845c-.308.367-.572.81-.795 1.34a5.354 5.354 0 00-.41 1.502c-.051.478-.017.913.086 1.306.11.392.29.742.555 1.041a2.75 2.75 0 001 .7c.402.17.804.247 1.206.23a2.6 2.6 0 001.136-.324 3.515 3.515 0 001-.845c.325-.376.59-.828.813-1.349zm-11.257-1.186l1.111.64c.154.094.248.188.274.299.025.102-.009.247-.111.418-.103.171-.206.273-.308.307-.103.034-.24 0-.393-.094l-3.804-2.202c-.154-.093-.248-.187-.274-.298-.025-.111.009-.248.111-.418.103-.171.206-.274.308-.308.103-.034.24 0 .393.086l1.659.964 3.641-6.265-3.393-1.963-1.308 2.262c-.094.162-.197.248-.316.273-.12.026-.274-.017-.462-.128s-.308-.222-.342-.333c-.034-.111-.009-.247.085-.409l1.582-2.723c.102-.171.205-.273.308-.307.102-.034.239 0 .393.094l6.129 3.55c.153.094.247.188.273.299.026.102-.008.247-.111.418-.103.171-.205.273-.308.307-.102.035-.24 0-.393-.093l-1.111-.641-3.633 6.265zm-7.693-4.651c.145.111.222.221.23.324.01.111-.042.247-.162.401-.12.162-.24.248-.35.265-.111.017-.231-.026-.376-.137l-2.043-1.553c-.146-.111-.223-.214-.231-.325-.009-.111.043-.247.162-.401.12-.162.24-.247.35-.264.112-.017.232.025.377.136l.71.538 3.06-4.02c.248-.324.427-.632.53-.913.102-.282.145-.546.11-.803a1.57 1.57 0 00-.29-.716 3.113 3.113 0 00-.675-.666 3.422 3.422 0 00-.82-.47 1.522 1.522 0 00-.77-.085c-.248.034-.496.145-.744.324-.248.18-.487.427-.743.76l-3.06 4.02.709.538c.145.111.222.213.23.324.018.111-.042.247-.162.401-.12.162-.24.248-.35.265-.111.017-.231-.034-.376-.137l-2.043-1.553c-.146-.111-.223-.214-.231-.325-.009-.11.043-.247.162-.401.12-.162.24-.247.35-.264.112-.017.24.025.377.136l.393.299 3.163-4.148c.342-.452.7-.794 1.068-1.024a2.693 2.693 0 011.146-.418c.393-.043.786.008 1.196.153.41.145.821.376 1.223.683.41.316.743.649.991.999s.402.725.462 1.109.034.794-.094 1.212c-.128.418-.36.854-.71 1.306l-3.162 4.148.393.282zm-8.18-16.874c.606.103 1.17.29 1.7.572s1.018.632 1.454 1.058c.444.436.769.913.966 1.434a3.67 3.67 0 01.23 1.605 4.485 4.485 0 01-.487 1.672 6.278 6.278 0 01-1.197 1.631c-.512.52-1.05.93-1.615 1.22-.564.29-1.12.461-1.676.512a3.881 3.881 0 01-1.624-.196 3.82 3.82 0 01-1.427-.905 3.272 3.272 0 01-.778-1.118 2.562 2.562 0 01-.18-1.178l-.324.325c-.128.128-.257.196-.368.187-.12-.008-.256-.085-.41-.239-.162-.153-.24-.29-.248-.409-.009-.12.051-.239.18-.376l1.829-1.869c.128-.136.256-.196.367-.188.12 0 .257.086.42.239.162.154.238.291.247.41.009.12-.051.239-.188.376-.18.187-.325.392-.427.623-.103.23-.154.478-.146.725.009.256.069.521.197.794s.325.537.598.802c.308.299.65.512 1.026.64s.77.171 1.18.12c.41-.052.82-.188 1.248-.419a5.32 5.32 0 001.23-.955c.402-.41.71-.82.932-1.247.223-.418.36-.827.41-1.229a2.384 2.384 0 00-.128-1.152 2.57 2.57 0 00-.658-.998 4.9 4.9 0 00-1.23-.888 4.259 4.259 0 00-1.386-.418.477.477 0 01-.324-.162c-.086-.094-.094-.256-.043-.478.051-.214.128-.359.24-.436a.533.533 0 01.41-.085zm-9.266.589l1.265 1.588c.11.136.162.264.145.375-.017.111-.103.222-.256.35-.154.128-.291.179-.402.171-.111-.009-.222-.086-.334-.231l-3.265-4.105c-.11-.145-.162-.265-.145-.376.017-.11.102-.221.256-.349.154-.128.29-.18.402-.171.111.008.222.085.333.23l1.265 1.588 5.676-4.507-1.359-1.707c-.11-.145-.162-.264-.145-.375.017-.111.102-.222.256-.35.154-.128.291-.179.402-.171.111.009.222.086.333.231l3.462 4.352c.111.146.163.265.146.376-.017.111-.103.222-.257.35-.154.128-.29.179-.401.171-.112-.009-.223-.086-.334-.231l-1.359-1.707-5.684 4.498zm-1.018-7.263a6.315 6.315 0 01-1.863.785 4.426 4.426 0 01-1.76.077 3.667 3.667 0 01-1.531-.606 4.16 4.16 0 01-1.188-1.272 4.042 4.042 0 01-.59-1.638 3.687 3.687 0 01.162-1.639c.18-.538.47-1.041.872-1.528.41-.486.924-.913 1.556-1.297a6.315 6.315 0 011.864-.785 4.702 4.702 0 011.752-.077 3.84 3.84 0 011.53.606c.462.316.863.742 1.188 1.271.325.53.521 1.076.59 1.639a3.676 3.676 0 01-.163 1.639 4.55 4.55 0 01-.871 1.528c-.402.486-.915.913-1.548 1.297zm-.65-1.067a5.255 5.255 0 001.206-.981c.316-.359.547-.726.692-1.11a2.606 2.606 0 00-.248-2.321 2.812 2.812 0 00-.846-.888 2.64 2.64 0 00-1.111-.401 3.46 3.46 0 00-1.3.102c-.46.12-.94.325-1.427.623a5.232 5.232 0 00-1.205.982 3.616 3.616 0 00-.692 1.109 2.508 2.508 0 00-.154 1.17c.043.392.17.776.402 1.152.23.375.512.674.846.887.333.214.7.35 1.111.402.41.051.846.017 1.308-.103a5.2 5.2 0 001.419-.623zm-8.128-6.828l.248.555c.077.162.094.299.051.401-.043.102-.154.196-.333.273-.18.086-.325.103-.428.068-.102-.034-.188-.136-.265-.298l-.726-1.622c-.086-.196-.086-.367.017-.503l4.598-6.171-5.35 2.398.376.845c.077.162.094.299.05.401-.042.103-.153.197-.332.273-.18.086-.325.103-.428.069-.102-.035-.188-.137-.265-.299l-1.051-2.339c-.077-.162-.094-.298-.051-.401.042-.102.153-.196.333-.273.18-.085.325-.102.427-.068.103.034.197.136.265.299l.188.409 7.334-3.286a.43.43 0 01.368-.008c.12.051.222.17.308.358.06.137.077.273.051.401a.977.977 0 01-.18.384l-5.017 6.76 5.958-2.671-.445-.99c-.077-.163-.085-.299-.051-.402.034-.102.154-.196.333-.273.18-.085.325-.102.428-.068.102.034.196.137.265.299l1.145 2.56c.077.162.094.299.051.401-.042.103-.153.197-.333.273-.18.086-.325.103-.427.069-.103-.034-.188-.137-.265-.299l-.214-.486-6.633 2.961zm-4.094-9.806l.239.768c.05.17.05.307 0 .401-.052.094-.18.171-.368.23-.188.06-.333.06-.436.017-.094-.051-.17-.162-.222-.332l-2.026-6.624c-.051-.17-.051-.307 0-.401.051-.094.18-.17.368-.23l1.923-.589c.18-.051.316-.051.419.009.102.059.188.196.248.409.068.214.068.376.025.478-.051.103-.162.188-.342.239l-1.41.427 1.24 4.054 2.812-.854-.582-1.886-.692.214c-.18.051-.316.051-.419-.009-.102-.06-.188-.196-.248-.41-.068-.213-.068-.375-.017-.478.051-.102.163-.187.342-.239l2.41-.734c.18-.051.317-.051.42.009.102.06.187.196.247.41.069.213.069.375.026.478-.043.102-.162.187-.342.239l-.692.213.58 1.895 3.095-.939-1.282-4.199-1.735.529c-.18.051-.316.051-.419-.009-.103-.059-.18-.196-.248-.409-.068-.214-.068-.376-.026-.478.052-.103.163-.188.342-.239l2.248-.683c.197-.06.342-.06.436-.017.103.051.171.162.223.333l2.068 6.768c.052.171.052.307 0 .401-.051.094-.18.171-.367.23-.188.06-.334.06-.436.018-.094-.052-.171-.163-.223-.333l-.239-.768-6.94 2.091zm5.034-11.838c.18-.034.325-.009.41.06.086.068.163.221.197.435.034.213.026.375-.043.478-.068.102-.188.162-.367.196l-2.342.401c-.18.034-.325.009-.41-.06-.086-.068-.155-.221-.197-.435-.043-.222.042-.392.247-.512.573-.316.975-.734 1.214-1.255.248-.52.308-1.118.188-1.809-.06-.341-.145-.64-.273-.88a1.766 1.766 0 00-.436-.588 1.523 1.523 0 00-.564-.307 1.54 1.54 0 00-.658-.026c-.342.06-.607.197-.778.401-.171.214-.3.47-.376.785a4.95 4.95 0 00-.112.837c-.017.299-.025.614-.034.93-.008.325-.025.64-.042.956a4.353 4.353 0 01-.146.905 2.59 2.59 0 01-.214.58 1.963 1.963 0 01-.35.487 2.083 2.083 0 01-.513.367 2.468 2.468 0 01-.718.222 2.66 2.66 0 01-1.137-.035 2.408 2.408 0 01-.94-.486 2.787 2.787 0 01-.684-.871c-.18-.35-.316-.75-.393-1.195a3.46 3.46 0 01.043-1.39 3.34 3.34 0 01.53-1.204l-.479.085c-.18.034-.316.009-.41-.06-.094-.068-.163-.221-.197-.435-.034-.222-.026-.375.043-.478.06-.102.188-.162.367-.196l1.795-.307c.18-.034.317-.009.41.06.095.068.163.221.197.435.035.196-.008.341-.136.444-.445.341-.744.75-.906 1.246A3.315 3.315 0 002.267 99c.103.58.316 1.007.641 1.271.325.265.701.359 1.145.282a.872.872 0 00.522-.265 1.38 1.38 0 00.282-.52c.068-.222.111-.487.128-.777.017-.29.026-.589.034-.913.009-.316.017-.64.035-.973a5.67 5.67 0 01.12-.965c.05-.247.127-.486.23-.716a2.66 2.66 0 01.402-.615c.17-.18.376-.341.624-.47.248-.127.547-.23.897-.281.402-.068.787-.06 1.146.026.359.085.684.247.974.486.29.24.53.546.735.939.205.392.35.853.445 1.383.085.52.077 1.015-.034 1.493a3.222 3.222 0 01-.642 1.306l.633-.068z" fill="#132631"/></svg>