<svg width="168" height="169" fill="none" xmlns="http://www.w3.org/2000/svg"><path d="M4.935 57.119l-.342.904c-.069.171-.146.274-.248.316-.103.043-.248.026-.436-.042-.188-.069-.308-.154-.35-.256-.043-.103-.035-.23.025-.401l1.41-3.705c.171-.444.376-.81.616-1.1.24-.29.513-.513.803-.658.29-.145.616-.222.95-.222.332 0 .683.06 1.042.197.385.145.684.358.906.64.222.281.36.614.419.99.367-.461.786-.76 1.265-.896.479-.137.992-.103 1.547.11.393.146.718.342.975.59.256.238.453.529.58.853.13.324.18.683.163 1.084-.017.401-.11.82-.282 1.28l-1.598 4.2c-.06.17-.146.272-.248.315-.103.043-.248.026-.436-.043-.188-.068-.308-.153-.35-.256-.043-.102-.035-.23.025-.4l.342-.906-6.778-2.594zm3.744-1.605c.222-.58.264-1.058.136-1.434-.128-.375-.41-.64-.846-.81-.453-.171-.846-.163-1.188.034-.342.196-.624.58-.846 1.169l-.582 1.528 2.744 1.041.582-1.528zm4.205 1.11c.23-.615.282-1.135.145-1.562-.136-.427-.444-.725-.923-.905-1.017-.384-1.76.043-2.23 1.28l-.762 1.998 3.035 1.152.735-1.963zM9.918 45.64l-.957 1.792c-.086.162-.18.256-.282.282-.103.025-.248 0-.428-.094s-.282-.197-.316-.3c-.034-.102-.009-.238.077-.392l2.47-4.626c.086-.162.18-.256.282-.281.103-.034.248 0 .428.094.18.093.282.196.316.298.034.103.009.24-.077.393l-.957 1.792 6.402 3.406 1.026-1.93c.085-.161.18-.255.282-.28.102-.035.248 0 .427.093.18.094.282.196.316.299.035.102.009.239-.076.392l-2.616 4.908c-.086.162-.18.256-.282.282-.103.025-.248 0-.428-.094s-.282-.197-.316-.3c-.034-.102-.008-.238.077-.392l1.026-1.929-6.394-3.413zm4.069-7l-.513.726c-.103.145-.214.23-.316.248-.111.017-.248-.034-.41-.145-.163-.12-.257-.23-.274-.333-.017-.111.017-.239.128-.384l1.616-2.288c.102-.145.213-.23.316-.247.111-.017.248.034.41.145.163.12.257.23.274.333.017.11-.017.239-.129.384l-.418.597 2.726 1.92-.743-4.727-.308.443c-.103.145-.214.23-.316.248-.111.017-.248-.034-.41-.145-.163-.12-.257-.23-.274-.333-.017-.111.017-.24.128-.384l1.479-2.1c.102-.145.214-.23.316-.247.111-.017.248.034.41.145.163.12.257.23.274.333.017.11-.017.239-.128.384l-.257.367.693 4.583c.188-.307.419-.555.692-.742.274-.188.616-.29 1.017-.316.248-.009.496.008.761.05.265.044.521.095.77.154.256.06.495.129.734.188.24.06.454.103.65.128.197.026.368.017.522-.017a.578.578 0 00.359-.239l.128-.179c.102-.145.214-.23.316-.247.111-.018.248.034.41.145.163.12.257.23.274.332.017.111-.017.24-.128.384l-.376.53a1.205 1.205 0 01-.607.435c-.265.094-.624.11-1.077.043a7.448 7.448 0 01-.71-.145c-.24-.06-.479-.12-.71-.18-.23-.06-.46-.11-.683-.153a2.776 2.776 0 00-.633-.06c-.222 0-.427.043-.624.145a1.381 1.381 0 00-.495.452c-.129.18-.214.376-.274.58-.06.214-.068.436-.034.658l.051.324 1.992 1.409.743-1.05c.103-.145.214-.23.317-.248.11-.017.248.034.41.145.162.12.256.23.273.333.018.111-.017.24-.128.384l-1.94 2.74c-.103.145-.214.23-.316.247-.111.017-.248-.034-.41-.145-.163-.12-.257-.23-.274-.332-.017-.111.017-.24.128-.385l.513-.725-5.915-4.165zm8.001-4.864a6.128 6.128 0 01-1.274-1.57 4.77 4.77 0 01-.573-1.665 3.682 3.682 0 01.154-1.638c.171-.538.47-1.033.89-1.494.418-.46.888-.802 1.4-1.024a3.759 3.759 0 011.616-.307 4.51 4.51 0 011.71.41c.581.255 1.137.63 1.684 1.126a6.13 6.13 0 011.274 1.57c.307.555.495 1.101.564 1.665a3.796 3.796 0 01-.154 1.638c-.171.538-.47 1.033-.89 1.494-.418.46-.888.802-1.4 1.024a3.759 3.759 0 01-1.617.307 4.549 4.549 0 01-1.71-.41 6.278 6.278 0 01-1.674-1.126zm.846-.922c.419.384.846.675 1.282.88.436.204.855.324 1.256.35.402.025.796-.035 1.163-.18a2.727 2.727 0 001-.708c.3-.325.505-.675.616-1.059.11-.384.136-.768.076-1.178a3.64 3.64 0 00-.461-1.22c-.24-.41-.573-.81-1-1.195a5.132 5.132 0 00-1.282-.879 3.493 3.493 0 00-1.265-.35 2.723 2.723 0 00-1.172.18c-.367.153-.7.383-1 .708a2.73 2.73 0 00-.615 1.058c-.12.384-.137.777-.068 1.178.068.401.222.81.47 1.22.248.41.572.811 1 1.195zm12.309-16.259l-.513.333c-.145.103-.282.137-.385.111-.11-.025-.213-.12-.325-.29-.11-.17-.153-.307-.136-.41.017-.11.102-.213.256-.307l1.479-.973c.18-.12.35-.136.496-.06l6.838 3.542-3.231-4.89-.778.512c-.145.102-.282.136-.385.11-.11-.025-.213-.118-.324-.29-.112-.17-.154-.306-.137-.409.017-.11.102-.213.256-.307L40.4 11.85c.154-.102.282-.136.384-.11.111.025.214.119.325.29.111.17.154.306.137.409-.017.11-.103.213-.256.307l-.377.248 4.428 6.7c.077.11.094.23.069.358-.035.128-.137.247-.308.358a.678.678 0 01-.385.12 1.139 1.139 0 01-.41-.111l-7.48-3.866 3.6 5.445.905-.598c.154-.102.282-.136.385-.11.102.025.214.12.325.29.11.17.154.307.137.41-.018.11-.103.213-.257.307L39.28 23.84c-.154.103-.282.137-.385.111-.11-.025-.213-.119-.325-.29-.11-.17-.153-.307-.136-.41.017-.11.102-.213.256-.307l.445-.29-3.992-6.06zm8.231-5.215c-.162.077-.29.103-.393.06-.102-.042-.196-.145-.29-.324-.086-.18-.12-.324-.086-.427.034-.102.128-.196.29-.273l2.309-1.135c.162-.077.29-.102.401-.06.103.034.197.145.291.325.094.179.12.324.085.426-.034.103-.128.197-.29.274l-.795.392 2.24 4.532c.179.367.376.666.58.88.206.221.428.375.667.46.24.085.496.102.77.06.273-.043.572-.145.897-.308.325-.162.582-.332.787-.529.205-.187.342-.41.418-.648.078-.24.095-.512.043-.811a3.506 3.506 0 00-.35-.999l-2.24-4.532-.795.393c-.162.077-.29.102-.393.06-.103-.043-.197-.145-.29-.325-.086-.179-.12-.324-.086-.426.034-.103.128-.197.29-.274l2.309-1.135c.162-.076.29-.102.401-.06.103.035.197.146.29.325.086.18.12.324.086.427-.034.102-.128.196-.29.273l-.445.213 2.308 4.677c.248.504.402.982.445 1.417.043.435 0 .837-.137 1.204s-.36.7-.675.998a4.735 4.735 0 01-1.154.794c-.462.23-.906.375-1.334.435a2.83 2.83 0 01-1.205-.077 2.598 2.598 0 01-1.043-.623c-.316-.299-.607-.708-.855-1.212l-2.308-4.668-.453.222zM53.59 6.66l-.762.265c-.17.06-.307.06-.401.018-.103-.052-.18-.171-.248-.359-.069-.188-.077-.333-.026-.435.043-.103.154-.18.325-.24l6.556-2.26c.171-.06.308-.06.402-.018.094.051.18.17.248.358l.658 1.904c.06.17.06.316.008.418-.06.102-.188.188-.401.265-.214.068-.368.085-.479.042-.111-.042-.197-.153-.256-.333l-.479-1.39-4.009 1.382.957 2.774 1.872-.649-.239-.683c-.06-.17-.06-.316-.009-.418.052-.102.188-.188.402-.265.214-.076.368-.085.479-.042.111.042.197.153.256.333l.82 2.38c.06.18.06.317.01.419-.06.102-.189.188-.402.265-.214.068-.368.085-.479.042-.111-.042-.197-.153-.256-.333l-.24-.682-1.872.648 1.06 3.056 4.163-1.434-.59-1.716c-.06-.17-.06-.315-.008-.418.051-.102.188-.188.401-.264.214-.069.368-.086.48-.043.11.043.187.154.256.333l.769 2.219c.068.188.077.333.026.435-.043.102-.154.18-.325.24l-6.702 2.312c-.17.06-.308.06-.402.017-.102-.051-.18-.17-.247-.358-.069-.188-.077-.333-.026-.436.043-.102.154-.179.325-.239l.76-.264L53.59 6.66zm8.555-2.824c-.179.034-.307.025-.401-.034-.094-.069-.154-.197-.197-.393-.042-.196-.034-.341.026-.435.06-.094.18-.162.35-.197l2.907-.605c.18-.035.307-.026.401.034.094.06.154.187.197.384.043.196.034.341-.026.435-.06.094-.18.162-.35.196l-1.094.23 3.812 6.35.957-7.348-.777.162c-.171.043-.308.026-.402-.034-.094-.06-.154-.188-.197-.384-.043-.196-.034-.341.026-.435.06-.094.18-.162.35-.196l2.59-.547c.18-.034.308-.025.402.034.094.06.154.188.197.385.042.196.034.34-.026.435-.06.094-.17.17-.35.205l-.599.128-1.145 8.398a.715.715 0 01-.223.452c-.12.103-.29.18-.512.23-.223.043-.41.043-.556-.008a.752.752 0 01-.376-.324l-4.402-7.238-.581.12zm13.404 4.993c.18-.017.307.017.393.085.085.077.128.213.145.41.017.196-.008.341-.077.426-.068.086-.196.137-.376.154l-2.641.213c-.18.017-.308-.017-.393-.085-.086-.068-.137-.205-.146-.41-.017-.196.009-.341.077-.426.069-.086.197-.137.376-.154l.445-.034 2.026-7.434-1.48.12c-.179.017-.307-.018-.392-.086-.086-.068-.137-.205-.146-.41-.017-.196.009-.34.077-.426.069-.086.197-.137.376-.154L76.711.38c.214-.017.385.009.522.077.136.068.239.196.324.367l3.428 7.553.479-.042c.18-.017.308.017.393.085.085.068.137.205.145.41.017.196-.008.341-.077.426-.068.086-.196.137-.376.154l-2.795.23c-.18.018-.308-.017-.393-.085-.086-.068-.137-.205-.145-.41-.017-.196.008-.34.077-.426.068-.086.196-.137.376-.154l1.068-.085-.803-1.827-3.83.316-.504 1.929.949-.068zm-.171-2.962l3.094-.256-1.82-4.148-.154.009-1.12 4.395zm8.787 3.277c-.009.188-.06.316-.145.393-.094.077-.248.111-.47.102-.223-.008-.377-.05-.462-.136-.086-.085-.12-.213-.111-.401l.102-2.373c.009-.188.06-.316.146-.392.094-.077.248-.111.47-.103.23.009.376.128.444.35.188.623.513 1.101.975 1.451.453.35 1.034.538 1.726.563.35.017.659-.008.924-.077a2 2 0 00.666-.298c.18-.128.317-.29.42-.487.093-.188.153-.4.162-.631.017-.35-.06-.632-.231-.845a1.883 1.883 0 00-.684-.53 4.817 4.817 0 00-.795-.281c-.29-.077-.598-.154-.906-.23a37.533 37.533 0 01-.932-.248 4.527 4.527 0 01-.863-.333 3.074 3.074 0 01-.53-.333 1.806 1.806 0 01-.402-.444 1.995 1.995 0 01-.256-.58 2.588 2.588 0 01-.069-.751c.017-.41.112-.777.274-1.101.17-.324.393-.597.675-.81a2.734 2.734 0 011-.487 4.188 4.188 0 011.248-.128c.479.017.932.128 1.35.333.42.196.779.452 1.06.768l.018-.487c.008-.188.06-.316.145-.392.094-.077.248-.111.47-.103.222.009.376.051.462.137.085.085.12.213.111.4l-.077 1.82c-.008.188-.06.316-.145.392-.094.077-.248.111-.47.103-.206-.009-.334-.086-.402-.222A2.567 2.567 0 0088.029 1.6a3.3 3.3 0 00-1.548-.436c-.59-.025-1.051.094-1.376.359-.325.264-.496.614-.513 1.058-.008.23.043.418.154.563.111.154.265.282.453.385.205.11.453.213.727.281.282.077.573.145.88.222.308.077.624.154.949.24.325.084.633.187.923.315.231.102.453.23.65.375.197.146.367.325.513.521.145.205.248.444.325.708.077.274.102.58.094.94a2.759 2.759 0 01-.265 1.109 2.407 2.407 0 01-.676.845c-.29.23-.65.4-1.077.52-.419.12-.906.163-1.453.145a3.907 3.907 0 01-1.462-.34 3.12 3.12 0 01-1.136-.897l-.026.631zm18.523 2.484c-.051.18-.137.29-.239.341-.103.052-.265.043-.479-.017-.214-.06-.35-.145-.41-.247-.06-.103-.069-.239-.009-.418l.684-2.28c.051-.178.137-.29.239-.34.103-.052.265-.043.479.017a.451.451 0 01.342.452c.034.649.222 1.195.581 1.647.359.453.872.777 1.539.973.333.103.641.154.915.145.273 0 .512-.042.718-.128.205-.085.384-.205.521-.367s.248-.35.316-.572c.103-.332.094-.623-.017-.87a1.901 1.901 0 00-.538-.683 4.99 4.99 0 00-.701-.47c-.265-.144-.539-.298-.821-.452a24.356 24.356 0 01-.838-.47 5.675 5.675 0 01-.752-.528 2.689 2.689 0 01-.427-.453 2.08 2.08 0 01-.282-.529 1.818 1.818 0 01-.103-.623c0-.222.043-.47.12-.742.12-.393.299-.726.538-.999.24-.273.53-.478.855-.623a2.804 2.804 0 011.086-.222 4.03 4.03 0 011.239.18c.462.136.872.358 1.231.656.359.3.641.632.838 1.008l.137-.461c.051-.18.136-.29.239-.342.102-.05.265-.042.479.017.213.06.35.146.41.248.06.102.068.239.008.418l-.521 1.741c-.051.18-.137.29-.239.342-.103.05-.265.042-.479-.017-.197-.06-.308-.163-.333-.316a2.501 2.501 0 00-.718-1.366c-.368-.367-.838-.631-1.394-.802-.564-.17-1.043-.17-1.419 0-.384.17-.632.47-.76.896a.866.866 0 00.008.589c.069.17.18.333.342.486.171.163.385.316.641.453.257.145.522.29.804.435.282.145.564.299.854.461a6 6 0 01.812.538c.206.162.377.333.539.529.162.188.282.401.368.631.085.23.136.487.145.768.008.282-.043.59-.145.93-.12.393-.291.726-.53 1.008a2.49 2.49 0 01-.864.657c-.342.154-.735.23-1.171.24-.436.008-.923-.07-1.444-.223a3.836 3.836 0 01-1.325-.691 3.103 3.103 0 01-.881-1.152l-.188.597zm9.052-1.724c.3-.674.659-1.237 1.086-1.707a4.66 4.66 0 011.402-1.067 3.858 3.858 0 011.607-.375c.564-.009 1.128.12 1.701.375a4.141 4.141 0 011.419 1.007c.376.419.641.897.803 1.434a4.36 4.36 0 01.146 1.75c-.06.632-.24 1.28-.539 1.946a6.268 6.268 0 01-1.086 1.707 4.5 4.5 0 01-1.401 1.058 3.726 3.726 0 01-1.607.367c-.565.009-1.129-.12-1.701-.375a4.14 4.14 0 01-1.419-1.008 3.734 3.734 0 01-.804-1.433 4.521 4.521 0 01-.154-1.75c.06-.632.257-1.255.547-1.929zm1.146.512a5.322 5.322 0 00-.436 1.494c-.06.478-.034.905.068 1.306.103.4.282.742.539 1.05.256.298.59.546.991.716.402.18.804.265 1.197.248a2.536 2.536 0 001.137-.299c.359-.188.701-.46 1.009-.828.316-.358.589-.802.82-1.323.231-.52.376-1.015.436-1.493.06-.478.034-.914-.068-1.306a2.614 2.614 0 00-.539-1.05 2.676 2.676 0 00-.991-.717 2.649 2.649 0 00-1.197-.247 2.646 2.646 0 00-1.146.307c-.359.188-.7.47-1.017.828-.316.358-.564.794-.803 1.314zm11.223 1.374l-1.103-.665c-.153-.094-.247-.197-.264-.3-.026-.11.017-.247.119-.417.103-.171.205-.274.316-.3.103-.025.24 0 .394.095l3.761 2.27c.154.094.248.196.265.299.025.11-.017.247-.12.418-.103.17-.205.273-.316.299-.111.025-.24 0-.393-.094l-1.642-.99-3.752 6.205 3.359 2.022 1.351-2.227c.094-.162.205-.248.316-.273.111-.026.265.025.462.136.188.111.299.23.333.342.034.11 0 .247-.094.41l-1.624 2.688c-.103.17-.214.273-.316.299-.103.025-.24 0-.394-.094l-6.069-3.662c-.154-.094-.248-.196-.265-.299-.025-.11.017-.247.12-.418.103-.17.214-.273.316-.299.103-.025.24 0 .394.094l1.102.666 3.744-6.205zm7.633 4.805c-.136-.11-.213-.221-.23-.332-.009-.111.042-.24.171-.402.128-.153.239-.247.35-.256.111-.017.239.034.376.146l2.017 1.587c.137.11.214.222.231.333.009.11-.043.239-.171.401-.128.154-.239.248-.35.256-.111.017-.24-.034-.376-.145l-.701-.546-3.137 3.968a3.617 3.617 0 00-.547.905 1.699 1.699 0 00-.129.802c.026.256.12.495.274.726.162.23.376.452.658.674.282.222.556.384.812.487.257.102.522.136.769.102a1.77 1.77 0 00.753-.307c.248-.171.495-.418.752-.743l3.137-3.969-.692-.546c-.146-.11-.223-.222-.231-.333-.009-.11.043-.247.171-.4.119-.154.239-.248.35-.257.111-.017.231.034.376.145l2.018 1.588c.136.11.213.222.23.333.009.11-.042.239-.171.4-.128.154-.239.248-.35.257-.111.017-.239-.034-.376-.145l-.385-.308-3.231 4.089c-.35.444-.718.776-1.094 1.007-.376.23-.761.358-1.154.392a2.701 2.701 0 01-1.197-.179 4.674 4.674 0 01-1.213-.7 4.438 4.438 0 01-.966-1.015 2.717 2.717 0 01-.445-1.118 2.6 2.6 0 01.12-1.212c.137-.419.376-.845.726-1.29l3.231-4.087-.376-.308zm7.882 17.01a5.65 5.65 0 01-1.693-.606c-.53-.29-1-.648-1.427-1.084-.436-.443-.753-.921-.941-1.45a3.675 3.675 0 01-.205-1.605c.051-.546.231-1.101.522-1.664.29-.555.701-1.093 1.222-1.613a6.471 6.471 0 011.633-1.195 4.537 4.537 0 011.692-.487 3.724 3.724 0 011.616.23 3.88 3.88 0 011.41.931c.359.367.615.742.761 1.135.145.393.196.785.162 1.187l.325-.325c.128-.128.256-.188.376-.188.12.009.257.086.41.248.154.162.24.299.24.41.008.12-.06.238-.188.367l-1.864 1.835c-.128.128-.256.187-.376.187s-.256-.085-.41-.247c-.154-.162-.239-.299-.239-.41-.009-.12.059-.239.188-.375a1.93 1.93 0 00.436-.615c.111-.23.162-.47.162-.725 0-.256-.06-.521-.18-.794-.119-.273-.316-.546-.581-.82a2.672 2.672 0 00-1.017-.657 2.616 2.616 0 00-1.18-.136c-.41.043-.829.179-1.256.392-.428.214-.838.53-1.248.93a5.38 5.38 0 00-.958 1.23c-.23.418-.376.828-.427 1.22-.051.401-.017.785.103 1.152.128.367.333.709.641 1.016.367.376.778.683 1.214.913.435.23.897.376 1.376.444a.507.507 0 01.325.17c.076.095.094.257.034.479-.052.205-.137.35-.248.435-.103.085-.248.111-.41.085zm9.248-.452l-1.239-1.604c-.111-.146-.154-.265-.137-.376.017-.111.103-.222.265-.35.163-.128.291-.18.402-.162.111.008.222.094.325.23l3.197 4.157c.111.145.154.264.136.375-.017.111-.102.222-.265.35-.162.128-.29.18-.401.162-.111-.017-.223-.093-.325-.23l-1.24-1.605-5.752 4.413 1.333 1.733c.111.145.154.264.137.375-.017.111-.103.222-.265.35-.162.12-.291.18-.402.162-.111-.017-.222-.094-.325-.23l-3.385-4.413c-.111-.145-.153-.264-.136-.375.017-.111.102-.222.265-.35.162-.128.29-.18.401-.163.112.01.223.094.325.231l1.334 1.733 5.752-4.413zm.898 7.28c.632-.367 1.256-.623 1.88-.75a4.743 4.743 0 011.761-.052 3.8 3.8 0 011.522.632c.461.324.846.76 1.162 1.297a4.05 4.05 0 01.564 1.647 3.803 3.803 0 01-.188 1.639 4.779 4.779 0 01-.897 1.51c-.419.478-.94.897-1.573 1.272-.632.367-1.265.623-1.88.751a4.529 4.529 0 01-1.753.043 3.812 3.812 0 01-1.521-.64c-.462-.324-.847-.76-1.163-1.297a4.078 4.078 0 01-.564-1.648c-.06-.563 0-1.1.188-1.63.18-.53.479-1.033.898-1.51.41-.462.931-.888 1.564-1.264zm.632 1.084c-.495.29-.897.606-1.222.956a3.53 3.53 0 00-.709 1.101 2.578 2.578 0 00-.171 1.16c.034.393.162.786.384 1.162.223.375.496.674.829.904a2.56 2.56 0 001.103.419c.402.06.838.034 1.308-.077.462-.111.94-.308 1.436-.598s.898-.606 1.222-.956c.325-.35.564-.717.71-1.1.154-.385.205-.769.179-1.17a2.743 2.743 0 00-.384-1.16 2.835 2.835 0 00-.829-.905 2.672 2.672 0 00-1.103-.419c-.402-.06-.846-.025-1.308.086-.47.11-.949.307-1.445.597zm8.018 6.973l-.239-.563c-.068-.162-.085-.299-.043-.401.043-.103.154-.188.342-.273.188-.077.325-.103.428-.06.102.043.188.145.256.307l.701 1.63c.085.197.077.367-.026.504l-4.701 6.094 5.394-2.305-.368-.853c-.068-.162-.085-.299-.043-.401.043-.103.154-.188.342-.273.188-.077.325-.103.428-.06.102.043.188.145.265.307l1.008 2.356c.069.162.086.298.043.4-.043.103-.154.189-.342.274-.188.077-.325.102-.427.06-.103-.043-.188-.145-.257-.308l-.179-.418-7.394 3.158a.46.46 0 01-.368 0c-.119-.051-.213-.17-.299-.367a.608.608 0 01-.043-.401c.026-.128.094-.256.188-.384l5.138-6.666-6.009 2.57.427.998c.068.162.085.299.043.4-.043.103-.154.189-.342.274-.188.077-.325.102-.428.06-.102-.043-.188-.145-.256-.307l-1.103-2.578c-.068-.162-.085-.299-.042-.401.042-.103.153-.188.341-.273.189-.077.325-.103.428-.06.102.043.188.145.256.307l.214.487 6.667-2.834zm3.924 9.9l-.222-.776c-.052-.17-.043-.307.008-.401.051-.094.18-.171.376-.222.197-.051.342-.06.436-.009.094.051.171.163.222.333l1.907 6.657c.051.171.042.308-.009.402-.051.093-.179.17-.376.221l-1.94.555c-.18.051-.317.043-.419-.017-.103-.06-.18-.196-.24-.41-.059-.213-.068-.375-.008-.477.051-.103.171-.188.342-.231l1.419-.401-1.163-4.071-2.829.81.547 1.904.692-.197c.18-.05.317-.042.419.018.103.06.18.196.239.41.06.213.069.375.018.477-.052.103-.171.188-.342.23l-2.428.692c-.179.051-.316.043-.419-.017-.102-.06-.179-.196-.239-.41-.06-.213-.069-.375-.009-.478.052-.102.171-.179.342-.23l.693-.196-.547-1.904-3.112.888 1.214 4.225 1.744-.495c.179-.052.316-.043.419.017.102.06.179.196.239.41.06.213.068.375.017.477-.051.103-.171.188-.342.23l-2.265.65c-.197.05-.342.06-.436.008-.094-.051-.171-.162-.222-.333l-1.949-6.81c-.052-.171-.043-.308.008-.402.052-.094.18-.17.376-.222.197-.051.342-.06.436-.008.094.05.171.162.223.333l.222.776 6.958-2.005zm-5.249 11.71c-.179.026-.316.009-.41-.068-.094-.077-.154-.222-.188-.444s-.017-.375.051-.478c.069-.094.188-.162.368-.187l2.351-.359c.179-.025.324-.008.41.068.094.077.154.222.188.444s-.051.393-.256.504c-.573.307-.983.717-1.24 1.229-.256.512-.325 1.118-.222 1.8.051.342.137.64.256.888.12.248.257.444.428.598a1.4 1.4 0 00.555.316c.205.06.428.068.658.034.342-.052.607-.18.787-.393.179-.205.308-.46.385-.777.059-.256.102-.537.128-.836l.051-.93c.017-.325.034-.64.06-.956a4.94 4.94 0 01.154-.905c.051-.205.128-.401.222-.58.094-.18.214-.342.359-.487.145-.145.316-.264.521-.358a2.46 2.46 0 01.718-.214c.411-.06.787-.042 1.137.06.351.102.658.265.932.504s.496.529.667.879c.171.35.299.75.367 1.195a3.58 3.58 0 01-.06 1.39 3.36 3.36 0 01-.547 1.187l.479-.077c.18-.025.325-.008.41.069.086.076.154.222.188.443.035.222.018.376-.042.478-.069.094-.188.162-.376.188l-1.804.282c-.18.025-.325.008-.41-.069-.094-.076-.154-.221-.188-.443-.035-.197.017-.342.145-.436a2.67 2.67 0 00.932-1.229c.179-.486.213-1.024.128-1.596-.094-.58-.299-1.007-.616-1.28-.316-.264-.7-.367-1.136-.299a.888.888 0 00-.53.257 1.32 1.32 0 00-.291.52c-.068.222-.12.478-.137.768l-.051.905c-.017.316-.026.64-.051.973a7.196 7.196 0 01-.137.964c-.06.248-.137.487-.248.709a2.081 2.081 0 01-.419.606 2.362 2.362 0 01-.632.46c-.248.129-.547.214-.898.274a3.01 3.01 0 01-1.145-.043 2.238 2.238 0 01-.966-.504 3.04 3.04 0 01-.718-.947c-.197-.392-.334-.853-.419-1.391a3.78 3.78 0 01.06-1.494 3.24 3.24 0 01.658-1.288l-.616.076zm5.283 39.355l.325-.905c.06-.171.145-.273.239-.324.103-.043.248-.035.436.034.188.068.308.153.359.247.051.103.043.231-.017.401l-1.351 3.73c-.162.444-.359.819-.598 1.118a2.392 2.392 0 01-.795.666 2.11 2.11 0 01-.949.239 2.863 2.863 0 01-1.042-.179 2.117 2.117 0 01-.924-.623 2.195 2.195 0 01-.436-.982c-.359.469-.777.768-1.248.922-.47.145-.991.119-1.547-.086a2.981 2.981 0 01-.983-.571 2.355 2.355 0 01-.598-.845c-.137-.325-.188-.683-.18-1.076.009-.401.103-.828.265-1.28l1.522-4.225c.06-.17.145-.273.239-.324.103-.043.248-.034.436.034s.308.154.359.248c.051.102.043.23-.017.401l-.325.904 6.83 2.476zm-7.941.631c-.222.623-.265 1.144-.12 1.562.146.418.462.717.941.888 1.025.367 1.761-.069 2.214-1.315l.726-2.014-3.051-1.101-.71 1.98zm4.223 1.033c-.214.589-.248 1.067-.111 1.434.136.375.418.64.863.793.453.163.846.146 1.188-.059.342-.197.616-.598.829-1.178l.556-1.545-2.761-.99-.564 1.545zm-1.077 9.909l.923-1.81c.077-.162.179-.256.282-.29.103-.034.248 0 .427.086.18.085.282.187.325.29.043.102.009.239-.068.392l-2.385 4.669c-.086.162-.18.256-.282.29-.103.034-.248 0-.428-.085-.179-.094-.282-.188-.324-.29-.035-.103-.017-.239.068-.393l.923-1.809-6.462-3.295-.992 1.946c-.085.162-.179.256-.282.29-.102.034-.248 0-.427-.085-.18-.094-.282-.188-.325-.29-.043-.103-.017-.239.068-.393l2.531-4.95c.085-.162.179-.256.282-.29.102-.034.248 0 .427.085.18.094.282.188.325.29.043.103.009.239-.068.393l-.992 1.946 6.454 3.303zm-3.941 7.067l.496-.734c.102-.145.205-.231.316-.248.111-.017.248.026.41.145.163.111.257.222.283.333.025.111-.018.239-.12.384l-1.581 2.322c-.103.145-.206.23-.317.247-.111.017-.248-.025-.41-.145-.162-.111-.257-.222-.282-.333-.026-.111.017-.239.12-.384l.41-.606-2.761-1.877.829 4.719.299-.444c.103-.145.205-.23.316-.247.112-.017.248.026.411.145.162.111.256.222.282.333.025.111-.017.239-.12.384l-1.444 2.125c-.103.145-.206.231-.317.248-.111.017-.248-.026-.41-.145-.171-.111-.256-.222-.282-.333-.026-.111.017-.239.12-.384l.256-.376-.769-4.575c-.18.308-.411.564-.676.76-.273.188-.606.299-1.008.333-.248.008-.496 0-.761-.034a8.021 8.021 0 01-.778-.145c-.256-.06-.504-.111-.744-.171a4.185 4.185 0 00-.658-.111 1.684 1.684 0 00-.521.026.575.575 0 00-.351.247l-.128.179c-.102.145-.205.231-.316.248-.111.017-.248-.026-.41-.145-.163-.12-.257-.222-.282-.333-.026-.111.017-.239.119-.384l.368-.538a1.25 1.25 0 01.598-.444c.265-.102.624-.119 1.077-.059.231.034.47.076.71.128.239.051.478.111.709.17.231.06.462.103.684.145.222.043.436.06.632.052.223 0 .428-.052.616-.154.188-.102.35-.256.487-.461.12-.179.205-.375.265-.589.06-.213.06-.435.017-.657l-.06-.324-2.017-1.374-.718 1.058c-.102.145-.205.23-.316.247-.111.017-.248-.025-.41-.145-.163-.111-.257-.222-.283-.333-.025-.11.018-.239.12-.384l1.889-2.773c.103-.146.205-.231.316-.248.112-.017.248.026.411.145.162.111.256.222.282.333.025.111-.017.239-.12.384l-.496.734 6.018 4.063zm-7.915 5.001c.555.487.983.999 1.308 1.545a4.43 4.43 0 01.598 1.656 3.8 3.8 0 01-.128 1.638 4.09 4.09 0 01-.864 1.511c-.41.469-.872.819-1.384 1.05a3.774 3.774 0 01-1.616.333 4.559 4.559 0 01-1.718-.384 6.242 6.242 0 01-1.701-1.093c-.547-.486-.983-.998-1.308-1.545a4.749 4.749 0 01-.598-1.647 3.805 3.805 0 01.128-1.639 4.092 4.092 0 01.863-1.51c.411-.47.872-.82 1.385-1.05a3.759 3.759 0 011.607-.333 4.702 4.702 0 011.718.376c.599.247 1.163.614 1.71 1.092zm-.821.939a5.247 5.247 0 00-1.299-.862c-.436-.196-.855-.307-1.265-.324a2.69 2.69 0 00-1.163.204 2.77 2.77 0 00-.983.726c-.29.324-.487.683-.598 1.067a2.492 2.492 0 00-.051 1.178c.068.401.23.802.487 1.212.248.409.59.802 1.017 1.177.427.376.863.666 1.299.862.436.197.855.308 1.265.325.411.025.795-.043 1.163-.205.368-.154.692-.401.983-.726.291-.324.487-.682.598-1.066.111-.385.129-.777.052-1.178a3.612 3.612 0 00-.488-1.212c-.248-.41-.589-.794-1.017-1.178zm-12.01 16.455l.505-.341c.145-.103.273-.145.384-.12.103.026.223.12.334.282.111.162.162.299.145.41-.017.111-.102.213-.248.315l-1.461.999c-.18.119-.342.145-.496.068l-6.898-3.414 3.316 4.831.761-.521c.145-.102.273-.145.385-.119.111.025.222.119.333.282.111.162.162.298.145.409-.017.111-.102.214-.248.316l-2.119 1.451c-.146.102-.274.145-.385.119-.111-.025-.222-.119-.334-.281-.111-.162-.162-.299-.145-.41.017-.111.103-.213.248-.316l.376-.256-4.547-6.623a.416.416 0 01-.069-.358c.026-.128.129-.248.299-.359a.696.696 0 01.385-.128.99.99 0 01.41.111l7.548 3.73-3.692-5.386-.898.615c-.145.102-.274.145-.385.119-.111-.025-.222-.119-.333-.281-.111-.162-.162-.299-.145-.41.017-.111.102-.213.248-.316l2.316-1.587c.145-.103.274-.145.385-.12.111.026.222.12.333.282.111.162.162.299.145.41-.017.111-.102.213-.248.315l-.435.299 4.085 5.983zm-8.163 5.377c.163-.085.291-.102.393-.068.103.034.205.145.291.324.085.179.12.324.094.427-.034.102-.128.196-.291.282l-2.282 1.177c-.162.086-.291.103-.393.069-.103-.034-.205-.145-.291-.325-.094-.179-.119-.324-.094-.426.034-.103.128-.197.291-.282l.786-.41-2.316-4.489c-.188-.367-.385-.657-.599-.871-.213-.213-.436-.367-.675-.443a1.577 1.577 0 00-.778-.043 3.09 3.09 0 00-.889.324c-.316.171-.581.342-.778.538a1.638 1.638 0 00-.41.657 1.71 1.71 0 00-.034.811c.051.299.179.623.368.99l2.316 4.489.786-.409c.163-.086.291-.103.394-.069.102.034.205.145.29.325.094.179.12.324.094.426-.034.103-.128.197-.29.282l-2.283 1.178c-.162.085-.29.102-.393.068-.102-.034-.205-.145-.29-.324-.086-.179-.12-.325-.095-.427.035-.102.129-.196.291-.282l.436-.221-2.385-4.635c-.256-.503-.419-.973-.47-1.408a2.597 2.597 0 01.12-1.212 2.69 2.69 0 01.658-1.016c.308-.307.684-.58 1.145-.811a4.463 4.463 0 011.325-.46 2.706 2.706 0 011.206.059 2.65 2.65 0 011.051.606c.325.299.615.692.88 1.195l2.385 4.635.436-.231zm-10.112 4.882l.761-.282c.171-.059.299-.068.402-.017.102.052.179.171.247.359.069.188.077.333.035.435-.043.102-.154.179-.325.248l-6.514 2.372c-.171.06-.299.069-.401.017-.103-.051-.18-.162-.248-.358l-.693-1.886c-.06-.171-.068-.316-.017-.419.051-.102.188-.196.393-.273.206-.076.368-.094.479-.051.111.043.197.154.257.324l.504 1.383 3.983-1.451-1.009-2.757-1.863.683.248.674c.06.171.068.316.017.419-.051.102-.188.196-.393.273-.205.077-.368.094-.479.051-.111-.043-.196-.154-.256-.324l-.864-2.365c-.059-.17-.068-.315-.017-.418.052-.102.188-.196.393-.273.206-.077.368-.094.479-.051.111.043.197.154.257.324l.247.675 1.864-.683-1.111-3.039-4.137 1.511.624 1.707c.059.171.068.316.017.418-.052.103-.188.196-.394.273-.205.077-.367.094-.478.052-.111-.043-.197-.154-.257-.325l-.812-2.21c-.068-.188-.077-.333-.034-.436.043-.102.154-.179.325-.247l6.659-2.433c.171-.059.299-.068.401-.017.103.052.18.163.248.359.069.188.077.333.035.435-.043.103-.154.179-.317.248l-.761.273 2.505 6.802zm-8.514 2.987c.18-.042.308-.034.402.034.094.06.163.188.205.384.043.197.034.342-.017.436-.06.094-.171.162-.35.205l-2.889.657c-.18.042-.308.034-.402-.034-.094-.06-.163-.188-.205-.384-.043-.197-.035-.342.017-.436.06-.094.171-.162.35-.205l1.094-.247-3.923-6.29-.83 7.365.77-.179c.179-.043.308-.026.402.034.094.06.162.188.205.384.043.197.034.342-.017.436-.06.093-.171.162-.351.204l-2.581.589c-.18.043-.308.034-.402-.034-.094-.06-.162-.188-.205-.384-.043-.196-.034-.341.017-.435.06-.094.171-.162.35-.205l.599-.137 1-8.415c.026-.196.094-.35.214-.452.12-.111.282-.188.504-.239.222-.051.41-.051.556 0 .145.042.273.153.376.324l4.53 7.152.581-.128zm-13.497-4.754c-.18.017-.308-.008-.393-.077-.085-.068-.137-.204-.154-.409-.017-.196 0-.342.069-.427.068-.085.188-.136.367-.154l2.633-.264c.18-.017.308.008.393.077.085.068.137.205.154.409.017.197 0 .342-.069.427-.068.085-.188.137-.367.154l-.444.042-1.898 7.468 1.479-.145c.18-.017.307.009.393.077.085.068.137.205.154.41.017.196 0 .341-.069.427-.068.085-.196.136-.367.153l-2.898.29c-.214.017-.385 0-.521-.068a.695.695 0 01-.325-.367l-3.556-7.494-.479.052c-.18.017-.308-.009-.393-.077-.085-.068-.137-.205-.154-.41-.017-.196.009-.341.077-.427.068-.085.188-.136.368-.153l2.795-.273c.18-.017.308.008.393.077.085.068.137.204.154.409.017.197 0 .342-.069.427-.068.085-.188.136-.367.154l-1.069.102.83 1.809 3.829-.375.47-1.938-.966.094zm.222 2.953l-3.094.308 1.89 4.113.153-.017 1.051-4.404zm-8.855-3.123c0-.188.051-.316.137-.393.085-.077.248-.111.47-.111.222.009.376.051.461.128.086.077.129.213.12.401l-.06 2.373c0 .188-.051.316-.137.393-.085.076-.248.11-.47.11-.23-.008-.376-.119-.453-.341-.205-.614-.53-1.092-1-1.434-.462-.341-1.043-.52-1.744-.529a3.307 3.307 0 00-.914.094 1.74 1.74 0 00-.658.316 1.32 1.32 0 00-.41.495 1.565 1.565 0 00-.155.64c-.008.35.069.631.248.836.18.205.402.384.701.512.24.103.505.197.804.273.299.077.598.146.914.214.317.068.624.145.932.23a5.2 5.2 0 01.863.316c.197.085.368.196.53.324.163.128.3.274.41.436.112.17.206.358.266.58.06.213.085.469.077.751a2.63 2.63 0 01-.257 1.11 2.385 2.385 0 01-.658.819 2.86 2.86 0 01-.992.504 4.155 4.155 0 01-1.248.153 3.36 3.36 0 01-1.359-.307 3.423 3.423 0 01-1.077-.751l-.008.486c-.009.188-.052.316-.146.393-.085.077-.248.111-.47.111-.222-.009-.376-.051-.461-.128-.086-.077-.129-.213-.12-.401l.043-1.818c0-.188.051-.316.136-.393.086-.077.248-.111.47-.111.206.009.334.077.41.214.249.495.6.87 1.052 1.135.453.264.975.392 1.556.409.59.018 1.051-.111 1.368-.375.325-.265.487-.623.496-1.067a.85.85 0 00-.163-.563 1.378 1.378 0 00-.462-.376 3.059 3.059 0 00-.735-.273 41.317 41.317 0 00-.889-.205c-.307-.068-.624-.145-.948-.222a5.257 5.257 0 01-.924-.307 3.505 3.505 0 01-.658-.367 2.288 2.288 0 01-.521-.512 2.483 2.483 0 01-.342-.708 3.093 3.093 0 01-.111-.931c.008-.409.094-.776.248-1.118.154-.341.376-.623.666-.862a2.854 2.854 0 011.069-.537 5.01 5.01 0 011.445-.171c.53.017 1.017.119 1.461.324.445.205.83.495 1.154.879l.043-.648zm-18.557-2.168c.05-.179.128-.29.23-.342.103-.051.265-.051.479.009.214.06.35.136.41.239.06.102.069.239.017.418l-.64 2.287c-.052.18-.129.291-.232.35-.102.052-.265.052-.478-.008-.222-.06-.334-.214-.35-.444-.043-.649-.249-1.195-.608-1.639-.367-.443-.88-.759-1.555-.947a3.393 3.393 0 00-.915-.137 2.047 2.047 0 00-.718.137 1.43 1.43 0 00-.521.375 1.65 1.65 0 00-.308.581c-.094.333-.086.623.034.87.12.248.3.47.547.675.205.162.445.315.71.461.265.145.547.29.829.435.282.145.572.299.846.452.282.154.53.325.76.521.163.136.309.281.437.444.128.162.222.332.29.529.069.188.111.401.111.623.009.23-.034.478-.102.742a2.565 2.565 0 01-.522 1.007 2.572 2.572 0 01-.846.641c-.325.145-.684.23-1.085.239a4.072 4.072 0 01-1.248-.163 3.482 3.482 0 01-1.24-.631 3.448 3.448 0 01-.855-.99l-.128.461c-.051.179-.128.29-.23.35-.103.059-.266.051-.48-.009-.213-.06-.35-.137-.41-.239-.06-.102-.068-.239-.017-.418l.496-1.75c.051-.179.128-.29.23-.35.103-.051.266-.051.48.009.196.051.307.153.341.307.12.546.36.999.736 1.357.376.359.846.623 1.401.777.573.162 1.043.153 1.42-.026.376-.179.623-.478.743-.905.06-.221.06-.409-.017-.588a1.3 1.3 0 00-.35-.478 3.322 3.322 0 00-.642-.444c-.256-.137-.521-.282-.812-.418-.282-.145-.572-.291-.863-.453a6.706 6.706 0 01-.82-.52 3.522 3.522 0 01-.548-.512 2.074 2.074 0 01-.376-.632 2.194 2.194 0 01-.154-.768 3.146 3.146 0 01.129-.93 2.78 2.78 0 01.512-1.016c.231-.29.522-.512.855-.666a3.111 3.111 0 011.163-.264c.436-.017.923.051 1.444.196.505.145.958.367 1.342.674.385.307.684.683.907 1.135l.17-.614zm-9.01 1.886a6.264 6.264 0 01-1.06 1.724c-.419.478-.88.836-1.385 1.092a3.707 3.707 0 01-1.598.402c-.564.017-1.129-.103-1.71-.342a4.135 4.135 0 01-1.436-.981 3.688 3.688 0 01-.829-1.426 4.505 4.505 0 01-.18-1.749c.052-.632.214-1.28.505-1.955a6.147 6.147 0 011.06-1.724c.419-.469.88-.836 1.384-1.084a3.71 3.71 0 011.599-.392c.564-.017 1.128.102 1.71.341a4.124 4.124 0 011.436.982c.384.409.658.887.829 1.416.17.53.23 1.118.18 1.741-.052.624-.223 1.281-.505 1.955zm-1.154-.487a5.351 5.351 0 00.41-1.502 3.433 3.433 0 00-.094-1.305 2.597 2.597 0 00-.564-1.033 2.742 2.742 0 00-1-.7 2.752 2.752 0 00-1.205-.231 2.582 2.582 0 00-1.137.325 3.515 3.515 0 00-1 .845 5.2 5.2 0 00-.795 1.34 5.348 5.348 0 00-.41 1.502c-.052.478-.018.913.085 1.306.111.392.29.742.556 1.041a2.74 2.74 0 001 .7 2.75 2.75 0 001.205.23 2.6 2.6 0 001.137-.324 3.515 3.515 0 001-.845c.325-.376.59-.828.812-1.349zm-11.258-1.186l1.112.64c.154.094.248.188.273.299.026.102-.008.247-.111.418-.102.171-.205.273-.308.307-.102.035-.239 0-.393-.093l-3.804-2.202c-.154-.094-.248-.188-.273-.299-.026-.111.008-.248.11-.418.104-.171.206-.273.309-.308.102-.034.239 0 .393.086l1.658.964 3.642-6.264-3.394-1.963-1.308 2.261c-.094.162-.196.248-.316.273-.12.026-.274-.017-.462-.128s-.307-.222-.342-.332c-.034-.111-.008-.248.086-.41l1.581-2.723c.103-.17.205-.273.308-.307.102-.034.24 0 .393.094l6.129 3.55c.154.094.248.188.273.299.026.102-.008.248-.11.418-.103.171-.206.273-.308.308-.103.034-.24 0-.394-.094l-1.11-.64-3.634 6.264zm-7.693-4.651c.146.111.223.222.231.324.009.111-.043.248-.162.401-.12.162-.24.248-.35.265-.112.017-.232-.026-.377-.137l-2.043-1.553c-.145-.111-.222-.214-.23-.324-.01-.111.042-.248.162-.402.12-.162.24-.247.35-.264.111-.017.231.025.376.136l.71.538 3.06-4.02a3.55 3.55 0 00.53-.913c.103-.282.145-.546.111-.802a1.575 1.575 0 00-.29-.717 3.114 3.114 0 00-.676-.666c-.29-.213-.564-.376-.82-.469a1.522 1.522 0 00-.77-.086c-.248.034-.495.145-.743.325-.248.179-.488.426-.744.759l-3.06 4.02.71.538c.145.111.221.213.23.324.017.111-.043.248-.162.401-.12.162-.24.248-.35.265-.112.017-.232-.034-.377-.137l-2.043-1.553c-.145-.111-.222-.213-.23-.324-.01-.111.042-.248.162-.402.12-.162.24-.247.35-.264.111-.017.24.025.376.136l.393.299 3.163-4.148c.342-.452.701-.794 1.069-1.024.367-.23.752-.376 1.145-.418.393-.043.787.008 1.197.153.41.146.82.376 1.222.683.41.316.744.649.992.999s.401.725.461 1.109.035.794-.094 1.212c-.128.418-.359.854-.71 1.306l-3.162 4.148.393.282zm-8.18-16.874c.607.103 1.171.29 1.701.572s1.017.632 1.453 1.058c.445.436.77.914.966 1.434.197.521.274 1.05.23 1.605a4.492 4.492 0 01-.486 1.673 6.29 6.29 0 01-1.197 1.63c-.513.52-1.052.93-1.616 1.22-.564.29-1.12.461-1.675.512a3.865 3.865 0 01-1.624-.196 3.81 3.81 0 01-1.428-.905c-.367-.358-.624-.734-.777-1.118a2.563 2.563 0 01-.18-1.178l-.325.325c-.128.128-.256.196-.367.188-.12-.009-.257-.086-.41-.239-.163-.154-.24-.291-.248-.41-.01-.12.05-.239.179-.376l1.83-1.869c.127-.136.256-.196.367-.188.12 0 .256.086.419.239.162.154.239.291.247.41.01.12-.05.239-.188.376a2.17 2.17 0 00-.427.623c-.102.23-.154.478-.145.725a2 2 0 00.196.794c.129.273.325.538.599.802.307.299.65.512 1.025.64.377.128.77.171 1.18.12.41-.051.82-.188 1.248-.418.419-.231.83-.547 1.23-.956.403-.41.71-.82.933-1.246.222-.419.359-.828.41-1.229a2.388 2.388 0 00-.128-1.153 2.577 2.577 0 00-.658-.998 4.904 4.904 0 00-1.231-.888 4.259 4.259 0 00-1.385-.418.476.476 0 01-.325-.162c-.085-.094-.094-.256-.043-.478.052-.214.129-.359.24-.435a.533.533 0 01.41-.086zm-9.265.589l1.264 1.588c.111.136.163.264.146.375-.018.111-.103.222-.257.35-.154.128-.29.179-.402.171-.11-.009-.222-.086-.333-.231l-3.265-4.105c-.112-.145-.163-.264-.146-.375.017-.111.103-.222.257-.35.154-.128.29-.18.402-.171.11.008.222.085.333.23l1.265 1.588 5.676-4.507-1.36-1.706c-.11-.146-.162-.265-.145-.376.017-.111.103-.222.257-.35.154-.128.29-.179.401-.171.112.009.223.086.334.231l3.462 4.353c.11.145.162.264.145.375-.017.111-.102.222-.256.35-.154.128-.291.179-.402.171-.111-.009-.222-.086-.334-.231l-1.359-1.707-5.684 4.498zm-1.018-7.263a6.313 6.313 0 01-1.864.785 4.425 4.425 0 01-1.76.077 3.667 3.667 0 01-1.53-.606 4.148 4.148 0 01-1.189-1.272 4.042 4.042 0 01-.59-1.638 3.687 3.687 0 01.163-1.639c.18-.538.47-1.041.872-1.528.41-.486.923-.913 1.555-1.297a6.314 6.314 0 011.864-.785 4.723 4.723 0 011.752-.077 3.84 3.84 0 011.53.606c.462.316.864.742 1.189 1.272.324.529.52 1.075.59 1.638a3.674 3.674 0 01-.163 1.639 4.55 4.55 0 01-.872 1.528c-.402.486-.915.913-1.547 1.297zm-.65-1.067a5.258 5.258 0 001.206-.981 3.63 3.63 0 00.692-1.11 2.606 2.606 0 00-.248-2.321 2.81 2.81 0 00-.846-.888 2.64 2.64 0 00-1.111-.401 3.46 3.46 0 00-1.3.102 5.31 5.31 0 00-1.427.623 5.232 5.232 0 00-1.205.982 3.612 3.612 0 00-.693 1.109 2.51 2.51 0 00-.154 1.17c.043.392.171.776.402 1.152.23.375.513.674.846.887.334.214.701.35 1.111.402.41.051.847.017 1.308-.103a5.2 5.2 0 001.42-.623zm-8.129-6.828l.248.555c.077.162.094.299.051.401-.042.103-.153.196-.333.273-.18.086-.325.103-.427.069-.103-.035-.188-.137-.265-.299l-.727-1.622c-.085-.196-.085-.367.017-.503l4.599-6.171-5.351 2.398.376.845c.077.162.094.299.051.401-.042.103-.153.197-.333.273-.18.086-.325.103-.427.069-.103-.034-.188-.137-.265-.299l-1.052-2.339c-.077-.162-.094-.298-.051-.401.043-.102.154-.196.333-.273.18-.085.325-.102.428-.068.102.034.196.136.265.299l.188.409 7.334-3.286a.43.43 0 01.367-.008c.12.051.223.171.308.358.06.137.077.273.051.401a.98.98 0 01-.18.385l-5.017 6.759 5.958-2.671-.444-.99c-.077-.162-.086-.299-.052-.401.035-.103.154-.197.334-.274.18-.085.325-.102.427-.068.103.034.197.137.265.299l1.145 2.56c.078.162.095.299.052.401-.043.103-.154.197-.334.274-.18.085-.324.102-.427.068-.102-.034-.188-.137-.265-.299l-.214-.486-6.633 2.961zm-4.094-9.806l.24.768c.05.171.05.307 0 .401-.052.094-.18.171-.368.23-.189.06-.334.06-.436.017-.094-.051-.171-.162-.223-.332l-2.026-6.623c-.05-.171-.05-.308 0-.402.052-.093.18-.17.368-.23l1.923-.589c.18-.051.317-.051.42.009.102.059.187.196.247.409.068.214.068.376.026.478-.052.103-.163.188-.342.239l-1.41.427 1.239 4.054 2.812-.853-.581-1.887-.693.214c-.18.051-.316.051-.418-.009-.103-.06-.188-.196-.248-.409-.069-.214-.069-.376-.017-.478.05-.103.162-.188.342-.239l2.41-.734c.18-.052.316-.052.419.008.102.06.188.196.248.41.068.213.068.375.025.478-.042.102-.162.188-.342.239l-.692.213.581 1.895 3.095-.939-1.282-4.199-1.736.529c-.18.051-.316.051-.419-.009-.102-.059-.18-.196-.247-.409-.069-.214-.069-.376-.026-.478.051-.103.162-.188.342-.239l2.248-.683c.197-.06.342-.06.436-.017.102.051.17.162.222.333l2.069 6.768c.051.171.051.307 0 .401-.052.094-.18.171-.368.231-.188.059-.333.059-.436.017-.094-.052-.17-.162-.222-.333l-.24-.768-6.94 2.091zm5.035-11.838c.179-.034.324-.009.41.06.085.068.162.221.196.435.035.213.026.375-.042.478-.069.102-.188.162-.368.196l-2.342.401c-.18.034-.325.009-.41-.059-.086-.069-.154-.222-.197-.436-.043-.222.043-.392.248-.512.573-.316.974-.734 1.214-1.255.248-.52.307-1.118.188-1.809-.06-.341-.146-.64-.274-.879a1.764 1.764 0 00-.436-.589 1.523 1.523 0 00-.564-.307 1.544 1.544 0 00-.658-.026c-.342.06-.607.197-.778.401-.17.214-.3.47-.376.786a4.95 4.95 0 00-.111.836c-.017.299-.026.615-.034.93-.009.325-.026.64-.043.956a4.35 4.35 0 01-.145.905 2.64 2.64 0 01-.214.58 1.95 1.95 0 01-.35.487 2.083 2.083 0 01-.513.367 2.468 2.468 0 01-.718.222c-.41.068-.787.059-1.137-.034a2.41 2.41 0 01-.94-.487 2.79 2.79 0 01-.684-.87A4.179 4.179 0 01.532 98.7a3.461 3.461 0 01.043-1.391c.103-.453.282-.854.53-1.204l-.479.085c-.18.034-.316.009-.41-.06-.094-.068-.162-.221-.196-.435-.035-.221-.026-.375.042-.478.06-.102.188-.162.368-.196l1.795-.307c.18-.034.316-.009.41.06.094.068.163.221.197.435.034.196-.009.341-.137.444-.444.341-.744.75-.906 1.246a3.315 3.315 0 00-.103 1.596c.103.58.317 1.007.641 1.272.325.264.701.358 1.146.281a.874.874 0 00.521-.264c.12-.137.223-.316.282-.521.069-.222.112-.486.129-.777.017-.29.025-.589.034-.913.008-.316.017-.64.034-.973.017-.333.051-.657.12-.964a3.51 3.51 0 01.23-.717 2.66 2.66 0 01.402-.615c.171-.179.376-.341.624-.47a2.84 2.84 0 01.898-.28 2.86 2.86 0 011.145.025c.36.085.684.247.975.486.29.24.53.546.735.94.205.392.35.853.444 1.382.086.52.077 1.015-.034 1.493a3.222 3.222 0 01-.641 1.306l.633-.068z" fill="#132631"/><ellipse cx="6.338" cy="77.067" rx="1.515" ry="1.517" transform="rotate(17.523 6.338 77.067)" fill="#132631"/><ellipse cx="161.336" cy="91.068" rx="1.515" ry="1.517" transform="rotate(17.523 161.336 91.068)" fill="#132631"/></svg>