<svg width="176" height="179" fill="none" xmlns="http://www.w3.org/2000/svg"><mask id="mask0" maskUnits="userSpaceOnUse" x="69" y="65" width="48" height="51"><path fill-rule="evenodd" clip-rule="evenodd" d="M109.034 82.63c3.28 3.346 4.045 4.066 6.311 7.995 2.265 3.93 1.161 11.402-.913 14.355-2.075 2.954-4.572 4.564-7.034 5.823-2.461 1.258-18.371 8.059-30.593 2.753-12.222-5.305-4.93-24.77-4.93-25.858 0-1.088 5.862-20.007 5.862-20.007s8.533-2.902 10.771-1.582c2.238 1.32 2.559 8.837 2.559 8.837s14.687 4.338 17.967 7.684z" fill="#fff"/></mask><g mask="url(#mask0)"><path fill-rule="evenodd" clip-rule="evenodd" d="M199.821 75.764c.763-.57 1.595-1.14 2.22-1.863.485-.57.832-1.292.728-1.977-.243-1.444-1.977-1.787-3.538-1.444-.971.228-1.942.684-2.67 1.368-.312.267-.59.609-.728.95-.139.457.208.761.763.61.416-.115.763-.381 1.075-.647.381-.38.728-.799 1.318-.913.381-.076.728.038.728.418 0 .305-.277.609-.555.837-.243.19-.451.38-.694.532-.832.647-1.63 1.293-2.254 2.091-.277.38-.52.799-.659 1.217-.173.494-.243.989-.139 1.445.139.646.694 1.102 1.457 1.14 1.422.038 2.879-.076 4.37-.304.763-.152 1.561-.608 1.63-1.368.069-.799-.763-1.065-1.561-.951-1.075.152-2.15.266-3.225.38.416-.57 1.11-1.026 1.734-1.52zm-18.896 14.619c-2.333 0-13.854 11.681-1.944 11.681 9.754 0 4.1-11.681 1.944-11.681zm-80.892-.835c-2.734 0-17.231 11.682-2.36 11.682 11.8 0 5.095-11.682 2.36-11.682zm25.136-9.985c1.753 2.285 2.776 4.755 4.017 7.335.585-.368 1.352-6.856 1.534-7.888.548-3.207 2.52-11.832 6.72-11.832 2.227 0 3.725 2.248 4.455 4.128 1.022 2.58 1.643 5.124 2.118 7.851.256 1.475.73 4.719 1.096 6.046 3.14-1.475 9.166-4.83 9.275-4.866 2.009-1.106 6.245.295 4.09 4.128-1.679 3.023-9.02 9.916-9.02 10.69 0 .48 6.391 4.128 7.304 4.313.146-.258.365-.517.438-.775.804-2.064 1.132-4.017 2.191-6.008 3.725-7.188 12.892-15.85 21.473-15.592 2.63.074 5.15.774 7.377 1.954-.438-1.511-.438-3.133.219-4.829 2.301-6.008 10.92-8.883 16.361-6.561 3.871 1.659 5.77 5.345 4.163 9.584-1.972 5.197-7.998 9.546-13.366 8.44 3.579 5.235 5.003 12.054 2.849 18.026-3.032 8.551-14.608 10.873-22.569 10.873-2.337 0-10.518-1.548-10.737-1.511-4.382.406-6.829.811-11.284-.368l-7.998-3.134c-.839-.221-1.862 1.549-2.41 2.028-3.688 3.391-9.458 1.769-13.183-.516-4.236 2.727-11.613 3.796-15.849.405-.731-.59-2.41-3.096-2.666-3.207-8.947 5.714-22.35 7.446-32.684 4.792-1.607-.037-5.15-2.543-5.807-4.018-1.79-4.017-1.57-7.888-.95-12.274.694-4.792 1.607-9.584 2.41-14.339.622-3.612 2.995-15.445 7.524-15.445 5.697 0 6.025 11.538 7.815 12.238 1.57-.48 4.674-1.032 6.281-1.032 7.559 0 12.562 4.202 17.346 9.473.146.148.329.295.512.443.401-.37 3.177-6.71 4.455-8.442l-.183-.516c-8.07-4.054-2.483-17.435 6.647-14.117 2.666.995 4.419 3.796 4.419 6.598 0 4.828-4.346 7.298-4.383 7.925z" fill="#132631"/></g><path d="M13.515 67.624l-.342.904c-.068.171-.145.274-.248.316-.102.043-.248.026-.436-.042-.188-.069-.307-.154-.35-.256-.043-.103-.034-.23.026-.402l1.41-3.704c.171-.444.376-.81.616-1.1a2.5 2.5 0 01.803-.658c.29-.145.616-.222.949-.222.333 0 .684.06 1.043.197.384.145.683.358.906.64.222.281.359.614.419.99.367-.461.786-.76 1.265-.897.478-.136.991-.102 1.547.111.393.146.718.342.974.59.257.238.453.529.582.853.128.324.18.683.162 1.084-.017.4-.111.82-.282 1.28l-1.599 4.2c-.06.17-.145.272-.248.315-.102.043-.247.026-.435-.043-.189-.068-.308-.153-.35-.256-.044-.102-.035-.23.025-.4l.342-.906-6.779-2.594zm3.744-1.605c.222-.58.265-1.058.137-1.434-.128-.375-.41-.64-.846-.81-.453-.171-.847-.163-1.188.034-.342.196-.624.58-.847 1.169l-.58 1.528 2.743 1.041.581-1.528zm4.206 1.11c.23-.615.282-1.135.145-1.562-.137-.427-.444-.726-.923-.905-1.017-.384-1.761.043-2.231 1.28l-.76 1.998 3.034 1.152.735-1.963zm-2.966-10.985l-.958 1.793c-.085.162-.18.256-.282.281-.102.026-.248 0-.427-.094-.18-.093-.282-.196-.316-.298-.035-.103-.009-.24.077-.393l2.47-4.626c.085-.162.18-.256.282-.281.103-.035.248 0 .427.093.18.094.283.197.317.3.034.102.008.238-.077.392l-.958 1.792 6.403 3.406 1.026-1.93c.085-.162.179-.255.282-.281.102-.034.247 0 .427.094s.282.196.316.299c.034.102.009.239-.077.392l-2.615 4.908c-.086.162-.18.256-.282.281-.103.026-.248 0-.428-.093-.18-.094-.282-.197-.316-.3-.034-.102-.009-.238.077-.392l1.026-1.929-6.394-3.414zm4.069-6.998l-.513.725c-.102.145-.214.23-.316.248-.111.017-.248-.034-.41-.145-.163-.12-.257-.23-.274-.333-.017-.111.017-.239.128-.384L22.8 46.97c.102-.145.213-.23.316-.248.111-.017.248.034.41.145.163.12.257.23.274.333.017.11-.017.239-.128.384l-.42.597 2.727 1.92-.743-4.727-.308.443c-.102.145-.214.23-.316.248-.111.017-.248-.034-.41-.145-.163-.12-.257-.23-.274-.333-.017-.111.017-.24.128-.384l1.479-2.1c.103-.145.214-.23.316-.247.111-.017.248.034.41.145.163.12.257.23.274.333.017.11-.017.239-.128.384l-.256.367.692 4.583a2.41 2.41 0 01.692-.742c.274-.188.616-.29 1.017-.316.248-.009.496.008.761.05.265.044.522.095.77.155.256.06.495.128.735.187.239.06.453.103.65.128.196.026.367.017.52-.017a.578.578 0 00.36-.239l.128-.179c.102-.145.214-.23.316-.248.111-.017.248.035.41.146.163.12.257.23.274.332.017.111-.017.24-.128.385l-.376.529a1.205 1.205 0 01-.607.435c-.265.094-.624.11-1.077.043a7.45 7.45 0 01-.71-.145c-.24-.06-.478-.12-.71-.18-.23-.06-.46-.11-.683-.153a2.777 2.777 0 00-.633-.06c-.222 0-.427.043-.624.145a1.381 1.381 0 00-.495.452c-.129.18-.214.376-.274.58-.06.214-.068.436-.034.658l.051.324 1.992 1.408.744-1.05c.102-.144.213-.23.316-.247.11-.017.248.034.41.145.162.12.257.23.274.333.017.111-.017.24-.129.384l-1.94 2.74c-.102.145-.214.23-.316.247-.111.017-.248-.034-.41-.145-.163-.12-.257-.23-.274-.333-.017-.11.017-.239.128-.384l.513-.725-5.915-4.165zm8.001-4.866a6.13 6.13 0 01-1.274-1.57 4.767 4.767 0 01-.573-1.664 3.682 3.682 0 01.154-1.639c.171-.537.47-1.032.89-1.493a4.075 4.075 0 011.401-1.024 3.757 3.757 0 011.616-.308 4.51 4.51 0 011.71.41c.58.256 1.136.632 1.683 1.127a6.13 6.13 0 011.274 1.57c.308.555.496 1.101.564 1.664a3.8 3.8 0 01-.154 1.64c-.17.537-.47 1.032-.889 1.493a4.1 4.1 0 01-1.402 1.024 3.759 3.759 0 01-1.615.307 4.548 4.548 0 01-1.71-.41 6.28 6.28 0 01-1.675-1.126zm.846-.92c.419.383.846.673 1.282.878.436.205.855.325 1.257.35.402.026.795-.034 1.162-.18a2.7 2.7 0 001-.708 2.616 2.616 0 00.693-2.236 3.641 3.641 0 00-.462-1.22 5.05 5.05 0 00-1-1.195 5.132 5.132 0 00-1.282-.88 3.534 3.534 0 00-1.265-.35 2.722 2.722 0 00-1.171.18 2.83 2.83 0 00-1 .709 2.73 2.73 0 00-.616 1.058c-.12.384-.137.777-.068 1.178.068.4.222.81.47 1.22.248.41.573.811 1 1.195zM43.724 27.1l-.513.333c-.145.103-.282.137-.384.111-.112-.026-.214-.12-.325-.29-.111-.17-.154-.307-.137-.41.017-.11.102-.213.256-.307l1.48-.973c.179-.12.35-.137.495-.06l6.838 3.542-3.23-4.89-.779.512c-.145.102-.282.136-.384.11-.111-.025-.214-.119-.325-.29-.111-.17-.154-.307-.137-.409.017-.111.103-.213.257-.307l2.145-1.417c.154-.102.282-.137.385-.111.11.026.213.12.325.29.11.17.153.307.136.41-.017.11-.102.213-.256.307l-.376.248 4.428 6.7c.077.11.094.23.068.358-.034.128-.137.247-.308.358a.678.678 0 01-.385.12 1.14 1.14 0 01-.41-.111l-7.48-3.866 3.6 5.445.906-.598c.153-.102.282-.136.384-.11.103.025.214.119.325.29.111.17.154.307.137.41-.017.11-.103.213-.257.307l-2.342 1.544c-.154.103-.282.137-.384.111-.111-.025-.214-.12-.325-.29-.111-.17-.154-.307-.137-.41.017-.11.103-.213.257-.307l.444-.29-3.992-6.06zm8.231-5.214c-.162.076-.29.102-.393.06-.102-.044-.197-.146-.29-.325-.086-.18-.12-.324-.086-.427.034-.102.128-.196.29-.273l2.309-1.135c.162-.077.29-.103.401-.06.103.034.197.145.29.325.095.179.12.324.086.426-.034.103-.128.197-.29.273l-.795.393 2.24 4.532c.179.367.375.666.58.879.206.222.428.376.667.46.24.086.496.103.77.06.273-.042.572-.144.897-.307.325-.162.581-.332.787-.529.205-.188.342-.41.418-.648a1.7 1.7 0 00.043-.811 3.509 3.509 0 00-.35-.999l-2.24-4.532-.795.393c-.162.077-.29.102-.393.06-.103-.043-.197-.146-.29-.325-.086-.179-.12-.324-.086-.427.034-.102.128-.196.29-.273l2.308-1.135c.163-.077.291-.102.402-.06.103.035.197.146.29.325.086.18.12.324.086.427-.034.102-.128.196-.29.273l-.445.213 2.308 4.677c.248.504.402.982.445 1.417.042.435 0 .836-.137 1.203-.137.367-.36.7-.675.999a4.75 4.75 0 01-1.154.794c-.462.23-.907.375-1.334.435a2.83 2.83 0 01-1.205-.077 2.598 2.598 0 01-1.043-.623c-.316-.299-.607-.708-.855-1.212l-2.308-4.668-.453.221zm10.215-4.72l-.76.264c-.171.06-.308.06-.402.017-.103-.05-.18-.17-.248-.358-.069-.188-.077-.333-.026-.435.043-.103.154-.18.325-.24l6.556-2.261c.171-.06.308-.06.402-.017.094.051.18.17.248.358l.658 1.904c.06.17.06.315.009.418-.06.102-.189.188-.402.264-.214.069-.368.086-.479.043-.111-.043-.197-.154-.256-.333l-.479-1.391-4.009 1.383.957 2.773 1.872-.648-.239-.683c-.06-.17-.06-.316-.009-.418.052-.103.189-.188.402-.265.214-.077.368-.085.479-.042.111.042.197.153.256.332l.821 2.382c.06.179.06.316.008.418-.06.102-.188.188-.401.264-.214.069-.368.086-.479.043-.111-.043-.197-.153-.256-.333l-.24-.683-1.872.65 1.06 3.055 4.163-1.434-.59-1.716c-.06-.17-.06-.316-.008-.418.051-.102.188-.188.401-.265.214-.068.368-.085.48-.042.11.043.187.153.256.333l.769 2.219c.068.188.077.333.026.435-.043.102-.154.18-.325.239l-6.702 2.313c-.17.06-.307.06-.402.017-.102-.051-.18-.17-.247-.358-.069-.188-.077-.333-.026-.436.043-.102.154-.179.325-.239l.76-.264-2.376-6.845zm8.557-2.826c-.18.035-.308.026-.402-.034-.094-.068-.154-.196-.197-.392-.043-.196-.034-.341.026-.435.06-.094.18-.163.35-.197l2.907-.606c.18-.034.307-.025.401.034.094.06.154.188.197.384.043.197.034.342-.026.436-.06.094-.18.162-.35.196l-1.094.23 3.812 6.35.957-7.348-.777.162c-.171.043-.308.026-.402-.034-.094-.06-.154-.188-.197-.384-.043-.196-.034-.341.026-.435.06-.094.18-.162.35-.197l2.59-.546c.18-.034.308-.025.402.034.094.06.154.188.197.384.043.197.034.342-.026.436-.06.094-.17.17-.35.204l-.599.128-1.145 8.399a.715.715 0 01-.222.452c-.12.102-.291.18-.513.23-.222.043-.41.043-.556-.008a.753.753 0 01-.376-.324l-4.402-7.238-.581.12zm13.403 4.994c.18-.017.308.017.393.085.085.077.128.213.145.41.017.196-.008.34-.077.426-.068.086-.196.137-.376.154l-2.641.213c-.18.017-.308-.017-.393-.085-.086-.068-.137-.205-.146-.41-.017-.196.009-.341.077-.426.069-.086.197-.137.376-.154l.445-.034 2.026-7.434-1.479.12c-.18.017-.308-.018-.393-.086-.086-.068-.137-.205-.145-.41-.018-.196.008-.341.076-.426.069-.086.197-.137.376-.154l2.898-.239c.214-.017.385.009.522.077.136.068.239.196.325.367l3.427 7.553.479-.043c.18-.017.308.018.393.086.085.068.137.205.145.41.017.196-.008.34-.076.426-.069.086-.197.137-.377.154l-2.795.23c-.18.017-.307-.017-.393-.085-.085-.068-.137-.205-.145-.41-.017-.196.008-.341.077-.426.068-.086.196-.137.376-.154l1.068-.085-.803-1.827-3.83.316-.504 1.929.949-.069zm-.171-2.962l3.094-.256-1.82-4.148-.154.008-1.12 4.396zm8.787 3.278c-.008.187-.06.315-.145.392-.094.077-.248.11-.47.102-.223-.008-.377-.05-.462-.136-.085-.085-.12-.213-.111-.401l.102-2.373c.009-.188.06-.316.146-.393.094-.076.248-.11.47-.102.23.008.376.128.444.35.189.623.513 1.1.975 1.45.453.35 1.034.538 1.727.564.35.017.658-.008.923-.077a2 2 0 00.666-.298c.18-.128.317-.29.42-.487.093-.188.153-.401.162-.631.017-.35-.06-.632-.231-.845a1.882 1.882 0 00-.684-.53 4.813 4.813 0 00-.795-.281c-.29-.077-.598-.154-.906-.23a37.278 37.278 0 01-.932-.248 4.53 4.53 0 01-.863-.333 3.085 3.085 0 01-.53-.333 1.804 1.804 0 01-.402-.444 1.996 1.996 0 01-.256-.58 2.581 2.581 0 01-.069-.751 2.7 2.7 0 01.274-1.101c.171-.324.393-.598.675-.811a2.733 2.733 0 011-.486 4.187 4.187 0 011.248-.129c.48.018.932.129 1.351.333.419.197.778.453 1.06.769l.017-.487c.008-.188.06-.316.145-.393.094-.076.248-.11.47-.102.223.009.376.051.462.137.086.085.12.213.111.4l-.077 1.819c-.008.187-.06.315-.145.392-.094.077-.248.111-.47.103-.205-.009-.334-.086-.402-.222a2.566 2.566 0 00-1.034-1.152 3.299 3.299 0 00-1.547-.436c-.59-.025-1.052.094-1.377.359-.325.264-.495.614-.513 1.058-.008.23.043.418.154.563.111.154.265.282.453.384.206.111.453.214.727.282.282.077.573.145.88.222.308.077.624.154.95.239.324.085.632.188.922.316.231.102.453.23.65.375s.368.325.513.52c.145.206.248.445.325.71.077.272.102.58.094.938a2.76 2.76 0 01-.265 1.11 2.406 2.406 0 01-.676.845c-.29.23-.65.4-1.077.52-.418.12-.906.162-1.453.145a3.905 3.905 0 01-1.461-.341 3.121 3.121 0 01-1.137-.896l-.026.631zm18.523 2.483c-.051.18-.136.29-.239.341-.102.052-.265.043-.479-.017-.213-.06-.35-.145-.41-.247-.06-.103-.068-.24-.008-.419l.683-2.278c.052-.18.137-.29.24-.342.102-.05.265-.042.478.017a.451.451 0 01.342.453c.035.648.223 1.195.582 1.647.359.452.872.777 1.538.973.334.102.641.154.915.145.273 0 .513-.043.718-.128.205-.085.385-.205.521-.367.137-.162.248-.35.317-.572.102-.333.094-.623-.017-.87a1.916 1.916 0 00-.539-.683 4.996 4.996 0 00-.701-.47c-.265-.145-.538-.298-.821-.452-.282-.154-.564-.307-.837-.47a5.539 5.539 0 01-.752-.528 2.656 2.656 0 01-.428-.453 2.111 2.111 0 01-.282-.529 1.842 1.842 0 01-.102-.623c0-.222.042-.47.119-.743.12-.392.299-.725.539-.998.239-.273.53-.478.854-.623a2.803 2.803 0 011.086-.222 4.04 4.04 0 011.24.18c.461.136.871.358 1.23.656.359.299.641.632.838 1.007l.137-.46c.051-.18.137-.29.239-.342.103-.051.265-.043.479.017.214.06.35.145.41.248.06.102.069.239.009.418l-.522 1.741c-.051.18-.136.29-.239.341-.103.052-.265.043-.479-.017-.196-.06-.307-.162-.333-.315a2.501 2.501 0 00-.718-1.366c-.368-.367-.838-.632-1.393-.802-.565-.171-1.043-.171-1.419 0-.385.17-.633.47-.761.896a.872.872 0 00.008.589c.069.17.18.333.342.486.171.162.385.316.641.453.257.145.522.29.804.435.282.145.564.299.855.46.29.163.564.342.812.538.205.163.376.333.538.53.163.187.282.4.368.631.085.23.137.487.145.768a2.94 2.94 0 01-.145.93c-.12.393-.291.726-.53 1.008-.239.281-.53.503-.863.657a2.99 2.99 0 01-1.172.239 4.85 4.85 0 01-1.444-.222 3.845 3.845 0 01-1.325-.691 3.1 3.1 0 01-.88-1.152l-.189.597zm9.052-1.724a6.268 6.268 0 011.086-1.707 4.66 4.66 0 011.402-1.067 3.857 3.857 0 011.607-.375c.564-.009 1.128.12 1.701.375a4.152 4.152 0 011.419 1.007c.376.419.641.896.803 1.434a4.34 4.34 0 01.145 1.75 6.148 6.148 0 01-.538 1.946 6.268 6.268 0 01-1.086 1.707 4.5 4.5 0 01-1.401 1.058 3.727 3.727 0 01-1.607.367c-.565.009-1.129-.12-1.702-.375a4.146 4.146 0 01-1.418-1.008 3.708 3.708 0 01-.804-1.433 4.522 4.522 0 01-.154-1.75c.06-.632.257-1.255.547-1.929zm1.146.512a5.323 5.323 0 00-.436 1.494c-.06.478-.034.904.068 1.306.103.4.282.742.539 1.05.256.298.589.546.991.716.402.18.804.265 1.197.248a2.535 2.535 0 001.137-.299c.359-.188.701-.46 1.008-.828.317-.358.59-.802.821-1.323.231-.52.376-1.015.436-1.493.06-.478.034-.914-.068-1.306a2.626 2.626 0 00-.539-1.05 2.671 2.671 0 00-.992-.717 2.644 2.644 0 00-1.196-.247 2.646 2.646 0 00-1.146.307 3.63 3.63 0 00-1.017.828c-.316.358-.564.794-.803 1.314zm11.223 1.374l-1.103-.666c-.154-.093-.248-.196-.265-.298-.025-.111.017-.248.12-.418.102-.171.205-.274.316-.3.103-.025.24 0 .393.095l3.761 2.27c.154.094.248.196.265.299.026.11-.017.247-.119.418-.103.17-.205.273-.317.299-.111.025-.239 0-.393-.094l-1.641-.99-3.752 6.205 3.359 2.022 1.35-2.227c.094-.162.206-.248.317-.273.111-.026.265.025.461.136.188.111.299.23.334.342.034.11 0 .247-.094.41l-1.624 2.688c-.103.17-.214.273-.317.298-.102.026-.239 0-.393-.094l-6.069-3.66c-.154-.095-.248-.197-.265-.3-.026-.11.017-.247.12-.418.102-.17.213-.273.316-.299.103-.025.239 0 .393.094l1.103.666 3.744-6.205zm7.633 4.805c-.136-.11-.213-.222-.23-.332-.009-.111.042-.24.17-.402.129-.153.24-.247.351-.256.111-.017.239.035.376.146l2.017 1.587c.137.11.214.222.231.333.009.11-.043.239-.171.401-.128.154-.239.247-.35.256-.111.017-.24-.034-.376-.145l-.701-.546-3.137 3.968a3.617 3.617 0 00-.547.905 1.699 1.699 0 00-.129.802c.026.256.12.495.274.726.162.23.376.452.658.674.282.222.556.384.812.487.257.102.522.136.769.102a1.77 1.77 0 00.753-.307c.248-.171.495-.419.752-.743l3.137-3.968-.692-.547c-.146-.11-.223-.222-.231-.333-.009-.11.042-.247.171-.4.119-.154.239-.248.35-.257.111-.017.231.034.376.145l2.018 1.588c.136.11.213.222.23.333.009.11-.042.239-.171.4-.128.154-.239.248-.35.257-.111.017-.239-.034-.376-.145l-.385-.308-3.231 4.089c-.35.444-.718.776-1.094 1.007-.376.23-.761.358-1.154.392a2.701 2.701 0 01-1.197-.179 4.695 4.695 0 01-1.214-.7 4.454 4.454 0 01-.965-1.015 2.717 2.717 0 01-.445-1.118 2.6 2.6 0 01.12-1.212c.137-.419.376-.845.726-1.29l3.231-4.087-.376-.308zm7.882 17.01a5.65 5.65 0 01-1.693-.606c-.53-.29-1-.648-1.427-1.084-.436-.443-.752-.921-.941-1.45a3.674 3.674 0 01-.205-1.605c.052-.546.231-1.101.522-1.664.29-.555.701-1.093 1.222-1.613a6.504 6.504 0 011.633-1.195 4.538 4.538 0 011.692-.487 3.724 3.724 0 011.616.23 3.89 3.89 0 011.41.93c.359.368.616.743.761 1.136.145.393.197.785.162 1.186l.325-.324c.128-.128.257-.188.376-.188.12.009.257.086.411.248.153.162.239.299.239.41.008.119-.06.239-.188.367l-1.864 1.834c-.128.129-.256.188-.376.188-.119 0-.256-.085-.41-.247-.154-.162-.239-.299-.239-.41-.009-.12.06-.239.188-.375.188-.18.333-.384.436-.615.111-.23.162-.47.162-.725 0-.257-.06-.521-.179-.794a2.86 2.86 0 00-.582-.82 2.673 2.673 0 00-1.017-.657 2.615 2.615 0 00-1.179-.136c-.411.042-.83.179-1.257.392-.427.214-.838.53-1.248.93a5.32 5.32 0 00-.957 1.23 3.497 3.497 0 00-.428 1.22c-.051.401-.017.785.103 1.152.128.367.333.709.641 1.016.367.375.778.683 1.214.913.436.23.897.376 1.376.444a.506.506 0 01.325.17c.077.095.094.257.034.479-.051.204-.137.35-.248.435-.103.085-.248.11-.41.085zm9.248-.452l-1.239-1.605c-.111-.145-.154-.264-.137-.375.017-.111.103-.222.265-.35.163-.128.291-.18.402-.162.111.008.222.094.325.23l3.197 4.157c.111.145.154.264.136.375-.017.111-.102.222-.265.35-.162.128-.29.18-.401.162-.111-.017-.223-.094-.325-.23l-1.24-1.605-5.752 4.413 1.333 1.732c.111.145.154.265.137.376-.017.11-.103.222-.265.35-.162.12-.291.18-.402.162-.111-.017-.222-.094-.325-.23l-3.385-4.413c-.111-.145-.153-.264-.136-.375.017-.111.102-.222.265-.35.162-.128.29-.18.401-.163.112.009.223.094.325.23l1.334 1.733 5.752-4.412zm.898 7.28c.632-.367 1.256-.623 1.88-.75a4.743 4.743 0 011.761-.052c.556.102 1.06.307 1.522.632.461.324.846.76 1.162 1.297a4.05 4.05 0 01.564 1.647 3.803 3.803 0 01-.188 1.639 4.778 4.778 0 01-.897 1.51c-.419.478-.94.897-1.573 1.272-.632.367-1.265.623-1.88.751a4.529 4.529 0 01-1.753.043 3.812 3.812 0 01-1.521-.64c-.462-.325-.847-.76-1.163-1.297a4.078 4.078 0 01-.564-1.648c-.06-.563 0-1.1.188-1.63.18-.53.479-1.033.898-1.51.41-.462.931-.888 1.564-1.264zm.632 1.084c-.495.29-.897.606-1.222.956a3.53 3.53 0 00-.709 1.101 2.578 2.578 0 00-.171 1.16c.034.393.162.786.384 1.162.223.375.496.674.829.904a2.56 2.56 0 001.103.419c.402.06.838.034 1.308-.077.462-.111.94-.308 1.436-.598s.898-.606 1.222-.956c.325-.35.564-.717.71-1.1.154-.385.205-.769.179-1.17a2.742 2.742 0 00-.384-1.16 2.827 2.827 0 00-.83-.905 2.664 2.664 0 00-1.102-.419c-.402-.06-.846-.025-1.308.086-.47.11-.949.307-1.445.597zm8.018 6.973l-.239-.563c-.068-.162-.085-.299-.043-.401.043-.103.154-.188.342-.273.188-.077.325-.103.428-.06.102.042.188.145.256.307l.701 1.63c.085.197.077.367-.026.504l-4.701 6.094 5.394-2.305-.368-.853c-.068-.162-.085-.299-.043-.401.043-.103.154-.188.342-.273.188-.077.325-.103.428-.06.102.042.188.145.265.307l1.008 2.356c.069.162.086.298.043.4-.043.103-.154.189-.342.274-.188.077-.325.102-.427.06-.103-.043-.188-.145-.257-.308l-.179-.418-7.394 3.158a.46.46 0 01-.368 0c-.119-.051-.213-.17-.299-.367a.608.608 0 01-.043-.401.995.995 0 01.189-.384l5.137-6.666-6.009 2.57.427.998c.068.162.085.298.043.4-.043.103-.154.189-.342.274-.188.077-.325.102-.428.06-.102-.043-.188-.145-.256-.307l-1.103-2.578c-.068-.162-.085-.299-.042-.401.042-.103.153-.188.342-.273.188-.077.324-.103.427-.06.102.043.188.145.256.307l.214.487 6.667-2.834zm3.924 9.9l-.223-.776c-.051-.17-.042-.307.009-.401.051-.094.179-.171.376-.222.197-.051.342-.06.436-.009.094.052.171.163.222.333l1.906 6.657c.052.171.043.308-.008.401-.052.094-.18.171-.376.222l-1.941.555c-.179.051-.316.043-.419-.017-.102-.06-.179-.196-.239-.41-.06-.213-.068-.375-.008-.478.051-.102.17-.187.341-.23l1.419-.401-1.162-4.071-2.829.81.547 1.904.692-.197c.179-.05.316-.042.419.018.102.06.179.196.239.41.06.213.069.375.017.477-.051.103-.171.188-.342.23l-2.427.692c-.18.051-.317.043-.419-.017-.103-.06-.18-.196-.239-.41-.06-.213-.069-.375-.009-.478.051-.102.171-.179.342-.23l.692-.197-.547-1.903-3.111.888 1.214 4.225 1.743-.495c.18-.052.317-.043.419.017.103.06.18.196.24.41.059.213.068.375.017.477-.052.103-.171.188-.342.23l-2.265.65c-.197.05-.342.06-.436.008-.094-.051-.171-.162-.223-.333l-1.949-6.81c-.051-.171-.042-.308.009-.402.051-.094.18-.17.376-.222.197-.051.342-.06.436-.008.094.05.171.162.222.333l.223.776 6.958-2.005zm-5.249 11.71c-.18.026-.316.009-.41-.068-.094-.077-.154-.222-.188-.444-.035-.222-.017-.375.051-.478.068-.093.188-.162.367-.187l2.351-.359c.18-.026.325-.008.41.068.094.077.154.222.189.444.034.222-.052.393-.257.504-.573.307-.983.717-1.239 1.229-.257.512-.325 1.118-.223 1.8.052.342.137.64.257.888.119.248.256.444.427.598.171.153.351.256.556.316.205.06.427.068.658.034.342-.052.607-.18.786-.393.18-.205.308-.46.385-.777.06-.256.103-.537.128-.836l.052-.93c.017-.325.034-.64.059-.956.026-.316.077-.623.154-.905a2.66 2.66 0 01.223-.58 1.96 1.96 0 01.359-.487c.145-.145.316-.264.521-.358.205-.103.444-.171.718-.214.41-.06.786-.042 1.137.06.35.103.658.265.932.504.273.239.495.529.666.879.171.35.299.75.368 1.195.068.478.051.938-.06 1.39a3.36 3.36 0 01-.547 1.187l.479-.077c.179-.025.324-.008.41.069.085.076.154.221.188.443s.017.376-.043.478c-.068.094-.188.163-.376.188l-1.803.282c-.18.025-.325.008-.411-.069-.094-.076-.154-.221-.188-.443-.034-.197.017-.342.146-.436.444-.332.752-.742.931-1.229.18-.486.214-1.024.128-1.596-.094-.58-.299-1.007-.615-1.28-.316-.264-.701-.367-1.137-.299a.89.89 0 00-.53.256 1.332 1.332 0 00-.29.521c-.069.222-.12.478-.137.768l-.052.905c-.017.316-.025.64-.051.973a6.886 6.886 0 01-.137.964 3.27 3.27 0 01-.247.709 2.1 2.1 0 01-.419.606 2.37 2.37 0 01-.633.46 3.09 3.09 0 01-.897.274c-.402.06-.787.042-1.146-.043a2.238 2.238 0 01-.966-.504c-.282-.239-.521-.563-.718-.947-.196-.392-.333-.853-.419-1.391a3.799 3.799 0 01.06-1.494 3.25 3.25 0 01.658-1.288l-.615.076zm5.283 39.355l.325-.905c.06-.171.145-.273.239-.324.103-.043.248-.035.436.034.188.068.308.153.359.247.051.103.043.231-.017.401l-1.351 3.73c-.162.444-.359.819-.598 1.118a2.392 2.392 0 01-.795.666c-.291.153-.607.23-.949.239a2.868 2.868 0 01-1.043-.179 2.12 2.12 0 01-.923-.623 2.195 2.195 0 01-.436-.982c-.359.469-.778.768-1.248.922-.47.145-.991.119-1.547-.086a2.981 2.981 0 01-.983-.571 2.355 2.355 0 01-.598-.845c-.137-.325-.188-.683-.18-1.076.009-.401.103-.828.265-1.28l1.522-4.225c.06-.17.145-.273.239-.324.103-.043.248-.034.436.034s.308.154.359.248c.051.102.043.23-.017.401l-.325.904 6.83 2.476zm-7.941.631c-.222.623-.265 1.144-.12 1.562.146.418.462.717.941.888 1.025.367 1.76-.069 2.213-1.315l.727-2.014-3.052-1.101-.709 1.98zm4.223 1.033c-.214.589-.248 1.067-.111 1.434.136.375.418.64.863.793.453.163.846.146 1.188-.059.342-.197.615-.598.829-1.178l.556-1.545-2.761-.99-.564 1.545zm-1.077 9.909l.923-1.81c.077-.162.18-.256.282-.29.103-.034.248 0 .428.086.179.085.282.187.325.29.042.102.008.239-.069.392l-2.385 4.669c-.085.162-.179.256-.282.29-.102.034-.248 0-.427-.085-.18-.094-.282-.188-.325-.29-.034-.103-.017-.239.068-.393l.924-1.809-6.463-3.295-.991 1.946c-.086.162-.18.256-.282.29-.103.034-.248 0-.428-.085-.179-.094-.282-.188-.325-.29-.042-.103-.017-.239.069-.393l2.53-4.95c.086-.162.18-.256.282-.29.103-.034.248 0 .428.085.179.094.282.188.324.29.043.103.009.239-.068.393l-.992 1.946 6.454 3.303zm-3.941 7.066l.496-.734c.103-.145.205-.23.316-.247.111-.017.248.026.411.145.162.111.256.222.282.333.025.111-.017.239-.12.384l-1.581 2.321c-.103.146-.206.231-.317.248-.111.017-.248-.026-.41-.145-.162-.111-.256-.222-.282-.333-.026-.111.017-.239.12-.384l.41-.606-2.761-1.878.829 4.72.299-.444c.103-.145.205-.23.317-.247.111-.017.247.025.41.145.162.111.256.222.282.333.026.111-.017.239-.12.384l-1.444 2.125c-.103.145-.205.23-.317.247-.111.018-.247-.025-.41-.145-.171-.111-.256-.222-.282-.332-.026-.111.017-.239.12-.385l.256-.375-.769-4.575c-.18.307-.41.564-.675.76-.274.188-.607.299-1.009.333-.248.008-.496 0-.761-.034a8.024 8.024 0 01-.778-.146c-.256-.059-.504-.11-.743-.17a4.216 4.216 0 00-.659-.111 1.717 1.717 0 00-.521.025.575.575 0 00-.35.248l-.129.179c-.102.145-.205.231-.316.248-.111.017-.248-.026-.41-.145-.163-.12-.257-.222-.282-.333-.026-.111.017-.239.119-.384l.368-.538a1.25 1.25 0 01.598-.444c.265-.102.624-.119 1.077-.06a12.262 12.262 0 011.419.299c.231.06.462.103.684.145.222.043.436.06.633.051.222 0 .427-.051.615-.153.188-.103.351-.256.487-.461.12-.179.205-.376.265-.589.06-.213.06-.435.017-.657l-.059-.325-2.018-1.374-.718 1.059c-.102.145-.205.23-.316.247-.111.017-.248-.025-.41-.145-.163-.111-.257-.222-.282-.333-.026-.111.017-.239.119-.384l1.889-2.774c.103-.145.205-.23.317-.247.111-.017.247.025.41.145.162.111.256.222.282.333.026.111-.017.239-.12.384l-.496.734 6.018 4.062zm-7.915 5.002c.555.487.983.999 1.307 1.545.325.546.522 1.101.599 1.656a3.785 3.785 0 01-.129 1.638 4.088 4.088 0 01-.863 1.511c-.41.469-.872.819-1.385 1.05a3.77 3.77 0 01-1.615.333 4.559 4.559 0 01-1.718-.384 6.227 6.227 0 01-1.701-1.093 6.591 6.591 0 01-1.308-1.545 4.772 4.772 0 01-.599-1.647 3.805 3.805 0 01.129-1.639 4.092 4.092 0 01.863-1.51c.41-.47.872-.82 1.385-1.05a3.73 3.73 0 011.607-.333 4.702 4.702 0 011.718.376c.598.247 1.162.614 1.71 1.092zm-.821.939a5.247 5.247 0 00-1.299-.862c-.436-.196-.855-.307-1.265-.324a2.675 2.675 0 00-1.163.204 2.749 2.749 0 00-.983.726 2.71 2.71 0 00-.598 1.067 2.489 2.489 0 00-.052 1.177c.069.402.231.803.488 1.212.247.41.589.803 1.017 1.178.427.376.863.666 1.299.862.436.197.855.308 1.265.325.41.025.795-.043 1.163-.205.367-.154.692-.401.983-.726.29-.324.487-.683.598-1.067.111-.384.128-.776.051-1.177a3.601 3.601 0 00-.487-1.212c-.248-.41-.59-.794-1.017-1.178zm-12.01 16.455l.505-.341c.145-.103.273-.145.384-.12.103.026.223.12.334.282.111.162.162.298.145.409-.017.111-.103.214-.248.316l-1.462.999c-.179.119-.342.145-.495.068l-6.899-3.414 3.317 4.831.761-.521c.145-.102.273-.145.384-.119.112.025.223.119.334.281.111.163.162.299.145.41-.017.111-.102.213-.248.316l-2.12 1.451c-.145.102-.273.145-.384.119-.111-.025-.222-.119-.334-.281-.111-.163-.162-.299-.145-.41.017-.111.103-.213.248-.316l.376-.256-4.547-6.623a.416.416 0 01-.069-.358c.026-.128.128-.248.299-.359a.696.696 0 01.385-.128.99.99 0 01.41.111l7.548 3.73-3.693-5.386-.897.615c-.145.102-.274.145-.385.119-.111-.025-.222-.119-.333-.281-.111-.162-.163-.299-.145-.41.017-.111.102-.213.247-.316l2.317-1.587c.145-.103.273-.145.385-.12.111.026.222.12.333.282.111.162.162.299.145.41-.017.111-.102.213-.248.315l-.436.299 4.086 5.983zm-8.162 5.377c.162-.085.29-.102.393-.068.102.034.205.145.29.324.086.179.12.324.095.427-.035.102-.129.196-.291.281l-2.282 1.178c-.163.086-.291.103-.394.068-.102-.034-.205-.145-.29-.324-.094-.179-.12-.324-.094-.427.034-.102.128-.196.29-.281l.787-.41-2.317-4.489c-.188-.367-.384-.657-.598-.871-.214-.213-.436-.367-.675-.444a1.578 1.578 0 00-.778-.042 3.04 3.04 0 00-.889.324c-.316.171-.581.341-.778.538a1.627 1.627 0 00-.41.657 1.71 1.71 0 00-.035.811c.052.298.18.623.368.99l2.317 4.489.786-.41c.162-.085.291-.102.393-.068.103.034.205.145.291.324.094.18.119.325.094.427-.034.103-.128.196-.291.282l-2.282 1.178c-.163.085-.291.102-.393.068-.103-.034-.206-.145-.291-.324-.085-.18-.12-.325-.094-.427.034-.103.128-.196.291-.282l.436-.222-2.385-4.634c-.257-.504-.419-.973-.47-1.408a2.582 2.582 0 01.119-1.212c.128-.367.351-.709.658-1.016.308-.307.684-.58 1.146-.811a4.486 4.486 0 011.325-.461 2.715 2.715 0 011.205.06c.376.111.727.307 1.051.606.325.299.616.691.881 1.195l2.385 4.634.436-.23zm-10.113 4.882l.761-.282c.171-.059.299-.068.402-.017.102.052.179.171.248.359.068.188.076.333.034.435-.043.102-.154.179-.325.248l-6.514 2.372c-.171.06-.299.069-.401.017-.103-.051-.18-.162-.248-.358l-.693-1.886c-.059-.171-.068-.316-.017-.419.052-.102.188-.196.393-.273.206-.076.368-.094.479-.051.111.043.197.154.257.324l.504 1.383 3.983-1.451-1.008-2.757-1.864.683.248.674c.06.171.068.316.017.419-.051.102-.188.196-.393.273-.205.077-.368.094-.479.051-.111-.043-.196-.154-.256-.324l-.864-2.365c-.059-.17-.068-.315-.017-.418.052-.102.188-.196.394-.273.205-.077.367-.094.478-.051.111.043.197.154.257.324l.248.675 1.863-.683-1.111-3.039-4.137 1.511.624 1.707c.059.171.068.316.017.418-.052.103-.188.196-.393.273-.206.077-.368.094-.479.052-.111-.043-.197-.154-.257-.325l-.812-2.21c-.068-.188-.077-.333-.034-.436.043-.102.154-.179.325-.247l6.659-2.433c.171-.059.299-.068.402-.017.102.052.179.163.247.359.069.188.077.333.035.435-.043.103-.154.179-.317.248l-.76.273 2.504 6.802zm-8.514 2.987c.18-.042.308-.034.402.034.094.06.162.188.205.384.043.197.034.342-.017.436-.06.094-.171.162-.35.204l-2.89.658c-.179.042-.307.034-.401-.034-.094-.06-.163-.188-.205-.385-.043-.196-.035-.341.017-.435.06-.094.171-.162.35-.205l1.094-.247-3.923-6.29-.829 7.365.769-.179c.179-.043.308-.026.402.034.094.06.162.188.205.384.043.197.034.342-.017.435-.06.094-.171.163-.351.205l-2.581.589c-.18.043-.308.034-.402-.034-.094-.06-.162-.188-.205-.384-.043-.196-.034-.341.017-.435.06-.094.171-.162.351-.205l.598-.137 1-8.415c.026-.196.094-.35.214-.452.119-.111.282-.188.504-.239.222-.052.41-.052.556 0 .145.042.273.153.376.324l4.53 7.152.581-.128zm-13.497-4.754c-.179.017-.307-.008-.393-.077-.085-.068-.137-.204-.154-.409-.017-.197 0-.342.069-.427.068-.085.188-.137.367-.154l2.633-.264c.18-.017.308.008.393.077.086.068.137.204.154.409.017.197 0 .342-.068.427-.069.085-.188.137-.368.154l-.444.042-1.898 7.468 1.479-.145c.179-.017.308.009.393.077.086.068.137.205.154.41.017.196 0 .341-.068.426-.069.086-.197.137-.368.154l-2.898.29c-.213.017-.384 0-.521-.068a.696.696 0 01-.325-.367l-3.556-7.494-.479.052c-.18.017-.307-.009-.393-.077-.085-.069-.137-.205-.154-.41-.017-.196.009-.341.077-.427.069-.085.188-.136.368-.153l2.795-.273c.18-.017.308.008.393.076.086.069.137.205.154.41.017.196 0 .341-.068.427-.069.085-.188.136-.368.153l-1.068.103.829 1.809 3.829-.375.47-1.938-.966.094zm.223 2.953l-3.095.308 1.889 4.113.154-.017 1.052-4.404zm-8.856-3.123c0-.188.051-.316.137-.393.085-.077.248-.111.47-.111.222.009.376.051.461.128.086.077.129.213.12.401l-.06 2.373c0 .188-.051.316-.137.392-.085.077-.248.111-.47.111-.23-.008-.376-.119-.453-.341-.205-.614-.53-1.092-1-1.434-.461-.341-1.043-.52-1.744-.529a3.269 3.269 0 00-.914.094 1.74 1.74 0 00-.658.316 1.32 1.32 0 00-.41.495 1.568 1.568 0 00-.155.64c-.008.35.069.631.248.836.18.205.402.384.701.512.24.103.505.197.804.273.299.077.598.146.914.214.317.068.624.145.932.23a5.2 5.2 0 01.863.316c.197.085.368.196.53.324a1.92 1.92 0 01.676 1.016c.06.213.085.469.077.751-.009.41-.094.777-.257 1.11a2.395 2.395 0 01-.658.819 2.86 2.86 0 01-.992.504 4.18 4.18 0 01-1.248.153 3.36 3.36 0 01-1.359-.307 3.423 3.423 0 01-1.077-.751l-.008.486c-.009.188-.052.316-.146.393-.085.077-.248.111-.47.111-.222-.009-.376-.051-.461-.128-.086-.077-.128-.214-.12-.401l.043-1.818c0-.188.051-.316.137-.393.085-.077.247-.111.47-.111.205.009.333.077.41.214.248.495.598.87 1.051 1.135.453.264.975.392 1.556.409.59.017 1.051-.111 1.368-.375.325-.265.487-.623.496-1.067a.849.849 0 00-.163-.563 1.378 1.378 0 00-.462-.376 3.057 3.057 0 00-.735-.273 36.078 36.078 0 00-.889-.205c-.307-.068-.624-.145-.948-.222a5.344 5.344 0 01-.924-.307 3.505 3.505 0 01-.658-.367 2.288 2.288 0 01-.521-.512 2.483 2.483 0 01-.342-.708 3.093 3.093 0 01-.111-.931c.008-.409.094-.776.248-1.118.154-.341.376-.623.666-.862a2.87 2.87 0 011.069-.538 5.048 5.048 0 011.445-.17c.53.017 1.017.119 1.461.324.445.205.83.495 1.154.879l.043-.648zM74 167.149c.052-.18.129-.291.231-.342.103-.051.265-.051.479.009.214.06.35.136.41.239.06.102.069.239.017.418l-.64 2.287c-.052.18-.129.29-.231.35-.103.051-.266.051-.48-.008-.221-.06-.333-.214-.35-.444-.042-.649-.248-1.195-.607-1.639-.367-.444-.88-.759-1.555-.947a3.394 3.394 0 00-.915-.137 2.024 2.024 0 00-.718.137 1.43 1.43 0 00-.521.375c-.137.163-.24.359-.308.581-.094.333-.086.623.034.87.12.248.3.47.547.675.205.162.445.315.71.46.265.145.547.291.829.436.282.145.572.298.846.452.282.154.53.324.76.521.163.136.309.281.437.443.128.163.222.333.29.53.069.187.111.401.111.623.009.23-.034.478-.102.742a2.565 2.565 0 01-.522 1.007c-.239.273-.52.487-.846.64a2.748 2.748 0 01-1.085.239 4.069 4.069 0 01-1.248-.162 3.483 3.483 0 01-1.24-.631 3.463 3.463 0 01-.855-.99l-.128.461c-.051.179-.128.29-.23.349-.103.06-.266.052-.48-.008-.213-.06-.35-.137-.41-.239-.06-.102-.068-.239-.017-.418l.496-1.75c.051-.179.128-.29.23-.35.104-.051.266-.051.48.009.196.051.307.153.341.307.12.546.36.999.736 1.357s.846.623 1.401.777c.573.162 1.043.153 1.42-.026.376-.179.623-.478.743-.905.06-.222.06-.409-.017-.589a1.315 1.315 0 00-.35-.478 3.364 3.364 0 00-.641-.443c-.257-.137-.522-.282-.813-.419-.282-.145-.572-.29-.863-.452a6.698 6.698 0 01-.82-.52 3.477 3.477 0 01-.548-.513 2.059 2.059 0 01-.376-.631 2.201 2.201 0 01-.154-.768 3.157 3.157 0 01.129-.931c.11-.392.282-.734.513-1.015.23-.29.521-.512.854-.666a3.112 3.112 0 011.163-.265c.436-.017.923.052 1.444.197.505.145.958.367 1.343.674.384.307.683.683.905 1.135l.172-.614zm-9.01 1.886a6.262 6.262 0 01-1.06 1.724 4.6 4.6 0 01-1.384 1.092 3.72 3.72 0 01-1.599.401c-.564.017-1.128-.102-1.71-.341a4.134 4.134 0 01-1.435-.981 3.688 3.688 0 01-.83-1.426 4.509 4.509 0 01-.179-1.749 6.173 6.173 0 01.505-1.955 6.13 6.13 0 011.06-1.724c.418-.469.88-.836 1.384-1.084a3.71 3.71 0 011.599-.392c.564-.018 1.128.102 1.71.341a4.134 4.134 0 011.435.981c.385.41.658.888.83 1.417.17.529.23 1.118.179 1.741-.051.623-.222 1.281-.504 1.955zm-1.153-.487a5.354 5.354 0 00.41-1.502 3.438 3.438 0 00-.094-1.306 2.595 2.595 0 00-.564-1.032 2.73 2.73 0 00-1-.7 2.752 2.752 0 00-1.206-.231 2.556 2.556 0 00-1.137.325 3.515 3.515 0 00-1 .845c-.307.367-.572.81-.795 1.34a5.354 5.354 0 00-.41 1.502c-.051.478-.017.913.086 1.306.11.392.29.742.555 1.041.265.298.599.529 1 .7.402.17.804.247 1.206.23a2.6 2.6 0 001.136-.324 3.53 3.53 0 001-.845c.325-.376.59-.828.813-1.349zm-11.257-1.186l1.11.64c.154.094.248.188.274.299.026.102-.009.247-.111.418-.103.171-.205.273-.308.307-.102.034-.24 0-.393-.094l-3.804-2.202c-.154-.093-.248-.187-.273-.298-.026-.111.008-.248.11-.418.103-.171.206-.274.308-.308.103-.034.24 0 .394.086l1.658.964 3.641-6.265-3.393-1.963-1.308 2.262c-.094.162-.197.248-.316.273-.12.026-.274-.017-.462-.128s-.308-.222-.342-.333c-.034-.111-.008-.247.086-.409l1.581-2.723c.103-.171.205-.273.308-.307.102-.034.24 0 .393.094l6.129 3.55c.154.094.248.188.273.299.026.102-.008.247-.11.418-.103.171-.206.273-.308.307-.103.035-.24 0-.394-.093l-1.11-.641-3.634 6.265zm-7.693-4.651c.145.111.222.222.23.324.009.111-.042.247-.162.401-.12.162-.24.248-.35.265-.112.017-.231-.026-.377-.137l-2.043-1.553c-.145-.111-.222-.214-.23-.325-.009-.11.042-.247.162-.401.12-.162.24-.247.35-.264.112-.017.231.025.377.136l.71.538 3.06-4.02a3.55 3.55 0 00.53-.913c.102-.282.145-.546.11-.802a1.575 1.575 0 00-.29-.717 3.116 3.116 0 00-.675-.666c-.291-.213-.565-.376-.821-.469a1.512 1.512 0 00-.77-.086c-.247.034-.495.145-.743.324-.248.18-.487.427-.744.76l-3.06 4.02.71.538c.145.111.222.213.23.324.017.111-.042.248-.162.401-.12.162-.24.248-.35.265-.112.017-.231-.034-.377-.137l-2.043-1.553c-.145-.111-.222-.214-.23-.324-.009-.111.042-.248.162-.402.12-.162.24-.247.35-.264.112-.017.24.025.377.136l.393.299 3.163-4.148c.341-.452.7-.794 1.068-1.024.368-.23.752-.376 1.145-.418.394-.043.787.008 1.197.153.41.145.82.376 1.223.683.41.316.743.649.991.999s.402.725.462 1.109.034.794-.094 1.212c-.129.418-.36.854-.71 1.306l-3.163 4.148.394.282zm-8.181-16.874c.607.102 1.171.29 1.701.572s1.017.631 1.453 1.058c.445.435.77.913.966 1.434.197.521.274 1.05.23 1.605a4.487 4.487 0 01-.486 1.672 6.273 6.273 0 01-1.197 1.631c-.513.52-1.051.93-1.616 1.22-.564.29-1.12.461-1.675.512a3.881 3.881 0 01-1.624-.196c-.521-.179-1-.487-1.428-.905-.367-.358-.624-.734-.777-1.118a2.563 2.563 0 01-.18-1.178l-.325.325c-.128.128-.256.196-.367.187-.12-.008-.257-.085-.41-.239-.163-.153-.24-.29-.248-.409-.01-.12.05-.239.179-.376l1.83-1.869c.127-.137.256-.196.367-.188.12 0 .256.086.419.239.162.154.239.29.248.41.008.119-.052.239-.188.375a2.19 2.19 0 00-.428.624 1.64 1.64 0 00-.145.725 2 2 0 00.196.794c.129.273.325.537.599.802.307.299.65.512 1.026.64s.769.171 1.18.12c.41-.052.82-.188 1.247-.419.419-.23.83-.546 1.231-.956.402-.409.71-.819.932-1.246.222-.418.359-.827.41-1.229a2.385 2.385 0 00-.128-1.152c-.129-.367-.35-.7-.658-.998a4.9 4.9 0 00-1.231-.888 4.234 4.234 0 00-1.385-.418.48.48 0 01-.325-.162c-.085-.094-.094-.256-.043-.478.052-.214.129-.359.24-.436a.533.533 0 01.41-.085zm-9.266.589l1.265 1.587c.112.137.163.265.146.376-.017.111-.103.222-.257.35-.154.128-.29.179-.402.171-.11-.009-.222-.086-.333-.231l-3.265-4.105c-.111-.145-.163-.265-.146-.376.018-.111.103-.222.257-.35.154-.128.29-.179.402-.17.11.008.222.085.333.23l1.265 1.588 5.676-4.507-1.36-1.707c-.11-.145-.162-.264-.145-.375.018-.111.103-.222.257-.35.154-.128.29-.179.402-.171.11.009.222.086.333.231l3.462 4.352c.111.145.162.265.145.376-.017.111-.102.222-.256.35-.154.128-.29.179-.402.171-.111-.009-.222-.086-.333-.231l-1.36-1.707-5.684 4.498zm-1.017-7.263a6.314 6.314 0 01-1.863.785 4.425 4.425 0 01-1.76.077 3.666 3.666 0 01-1.531-.606 4.16 4.16 0 01-1.188-1.272 4.042 4.042 0 01-.59-1.638 3.687 3.687 0 01.162-1.639c.18-.538.47-1.041.872-1.528.41-.486.924-.913 1.556-1.297a6.314 6.314 0 011.864-.785 4.702 4.702 0 011.752-.077 3.84 3.84 0 011.53.606c.461.316.863.742 1.188 1.271.325.53.521 1.076.59 1.639a3.676 3.676 0 01-.163 1.639 4.548 4.548 0 01-.871 1.528c-.402.486-.915.913-1.548 1.297zm-.65-1.067a5.258 5.258 0 001.206-.981 3.63 3.63 0 00.692-1.11 2.604 2.604 0 00-.247-2.322 2.818 2.818 0 00-.847-.887 2.62 2.62 0 00-1.111-.401 3.46 3.46 0 00-1.3.102c-.46.12-.94.324-1.427.623a5.232 5.232 0 00-1.205.982 3.612 3.612 0 00-.692 1.109 2.51 2.51 0 00-.154 1.17c.043.392.17.776.402 1.152.23.375.512.674.846.887.333.214.7.35 1.11.401.411.052.847.018 1.309-.102a5.198 5.198 0 001.419-.623zm-8.128-6.828l.247.555c.077.162.095.299.052.401-.043.102-.154.196-.334.273-.18.086-.324.103-.427.068-.103-.034-.188-.136-.265-.298l-.726-1.622c-.086-.196-.086-.367.017-.503l4.598-6.171-5.35 2.398.375.845c.077.162.095.299.052.401-.043.103-.154.197-.334.273-.18.086-.324.103-.427.069-.103-.035-.188-.137-.265-.299l-1.051-2.339c-.077-.162-.094-.298-.052-.401.043-.102.154-.196.334-.273.18-.085.325-.102.427-.068.103.034.197.136.265.299l.188.409 7.334-3.286a.43.43 0 01.368-.008c.12.051.222.17.308.358.06.137.076.273.05.401a.977.977 0 01-.179.384l-5.017 6.76 5.958-2.671-.445-.99c-.077-.163-.085-.299-.051-.402.034-.102.154-.196.333-.273.18-.085.325-.102.427-.068.103.034.197.137.265.299l1.146 2.56c.077.162.094.299.051.401-.043.103-.154.197-.333.273-.18.086-.325.103-.428.069-.102-.034-.188-.137-.265-.299l-.213-.486-6.633 2.961zm-4.095-9.806l.24.768c.05.171.05.307 0 .401-.052.094-.18.171-.368.23-.188.06-.334.06-.436.017-.094-.051-.171-.162-.223-.332l-2.025-6.623c-.052-.171-.052-.308 0-.402.051-.093.18-.17.367-.23l1.923-.589c.18-.051.317-.051.42.009.102.059.187.196.247.409.069.214.069.376.026.478-.051.103-.162.188-.342.239l-1.41.427 1.239 4.054 2.812-.853-.581-1.887-.692.214c-.18.051-.317.051-.42-.009-.102-.06-.187-.196-.247-.409-.069-.214-.069-.376-.017-.478.051-.103.162-.188.342-.239l2.41-.734c.18-.052.316-.052.42.008.102.06.187.196.247.41.068.213.068.375.026.478-.043.102-.163.188-.342.239l-.693.213.582 1.895 3.094-.939-1.282-4.199-1.736.529c-.179.051-.316.051-.418-.009-.103-.059-.18-.196-.248-.409-.069-.214-.069-.376-.026-.478.051-.103.163-.188.342-.239l2.248-.683c.197-.06.342-.06.436-.017.103.051.171.162.222.333l2.069 6.768c.051.171.051.307 0 .401-.051.094-.18.171-.368.231-.188.059-.333.059-.436.017-.094-.052-.17-.162-.222-.333l-.24-.768-6.94 2.091zm5.034-11.838c.18-.034.325-.009.41.059.086.069.163.222.197.436.035.213.026.375-.042.478-.069.102-.188.162-.368.196l-2.342.401c-.18.034-.325.009-.41-.06-.086-.068-.154-.222-.197-.435-.043-.222.043-.393.248-.512.573-.316.974-.734 1.214-1.255.248-.52.308-1.118.188-1.809-.06-.341-.145-.64-.274-.879a1.762 1.762 0 00-.436-.589 1.514 1.514 0 00-.564-.307 1.54 1.54 0 00-.658-.026c-.342.06-.607.196-.778.401a2 2 0 00-.376.785c-.06.256-.094.538-.111.837a30.02 30.02 0 00-.034.93c-.009.324-.026.64-.043.956a4.357 4.357 0 01-.145.905 2.64 2.64 0 01-.214.58 1.963 1.963 0 01-.35.487 2.082 2.082 0 01-.513.367 2.468 2.468 0 01-.718.222 2.66 2.66 0 01-1.137-.035 2.42 2.42 0 01-.94-.486 2.798 2.798 0 01-.684-.871 4.18 4.18 0 01-.394-1.195 3.46 3.46 0 01.043-1.391 3.34 3.34 0 01.53-1.203l-.479.085c-.179.034-.316.009-.41-.06-.094-.068-.162-.221-.196-.435-.035-.222-.026-.375.042-.478.06-.102.188-.162.368-.196l1.795-.307c.18-.034.316-.009.41.059.094.069.163.222.197.436.034.196-.009.341-.137.444-.444.341-.744.751-.906 1.246a3.315 3.315 0 00-.103 1.596c.103.58.317 1.007.642 1.271.324.265.7.359 1.145.282a.872.872 0 00.521-.265c.12-.136.223-.315.282-.52.069-.222.112-.487.129-.777.017-.29.025-.589.034-.913.008-.316.017-.64.034-.973.017-.333.051-.657.12-.965a3.5 3.5 0 01.23-.716 2.63 2.63 0 01.402-.615 2.35 2.35 0 01.624-.469 2.84 2.84 0 01.898-.282 2.85 2.85 0 011.145.026c.36.085.684.247.975.486.29.239.53.546.735.939.205.392.35.853.444 1.383.086.52.077 1.015-.034 1.493a3.227 3.227 0 01-.641 1.306l.632-.068z" fill="#132631"/><ellipse cx="14.918" cy="87.572" rx="1.515" ry="1.517" transform="rotate(17.523 14.918 87.572)" fill="#132631"/><ellipse cx="169.917" cy="101.573" rx="1.515" ry="1.517" transform="rotate(17.523 169.917 101.573)" fill="#132631"/><circle cx="92.6" cy="93.5" r="58" stroke="#132631" stroke-width="2"/></svg>