<svg width="307" height="41" fill="none" xmlns="http://www.w3.org/2000/svg"><path fill-rule="evenodd" clip-rule="evenodd" d="M35.609 9.964c1.17 1.514 1.854 3.15 2.684 4.858.39-.244.903-4.54 1.025-5.224.366-2.124 1.683-7.836 4.49-7.836 1.488 0 2.488 1.49 2.976 2.734.683 1.709 1.098 3.393 1.415 5.2.171.976.488 3.124.732 4.003 2.099-.976 6.125-3.198 6.198-3.222 1.342-.732 4.173.195 2.733 2.734-1.123 2.001-6.027 6.566-6.027 7.079 0 .317 4.27 2.734 4.88 2.856.098-.171.244-.342.293-.513.537-1.367.756-2.66 1.464-3.979 2.489-4.76 8.613-10.496 14.348-10.325 1.756.049 3.44.512 4.928 1.293-.292-1-.292-2.074.147-3.197C79.432 2.445 85.19.542 88.826 2.08c2.587 1.098 3.856 3.54 2.782 6.346-1.318 3.442-5.344 6.323-8.93 5.59 2.39 3.467 3.342 7.982 1.903 11.937-2.026 5.663-9.76 7.2-15.08 7.2-1.562 0-7.027-1.024-7.174-1-2.928.269-4.563.537-7.54-.244l-5.343-2.075c-.561-.146-1.245 1.025-1.61 1.343-2.465 2.245-6.32 1.171-8.81-.342-2.83 1.806-7.759 2.514-10.59.268-.487-.39-1.61-2.05-1.78-2.123-5.979 3.783-14.934 4.93-21.839 3.173-1.073-.024-3.44-1.684-3.88-2.66-1.195-2.661-1.049-5.224-.634-8.13.464-3.173 1.074-6.346 1.61-9.495C2.327 9.476 3.913 1.64 6.939 1.64c3.807 0 4.026 7.64 5.222 8.105 1.049-.318 3.123-.684 4.197-.684 5.05 0 8.393 2.783 11.59 6.273.098.098.22.196.341.293.269-.244 2.123-4.442 2.977-5.59l-.122-.341c-5.393-2.686-1.66-11.546 4.44-9.35 1.781.66 2.953 2.515 2.953 4.37 0 3.198-2.904 4.833-2.928 5.248zm49.72-2.655c.48-.379 1.006-.757 1.4-1.236.305-.379.524-.858.458-1.312-.153-.958-1.246-1.185-2.23-.958-.612.15-1.225.454-1.684.908a1.74 1.74 0 00-.459.63c-.087.303.131.505.481.404.263-.076.481-.252.678-.429.24-.252.46-.53.83-.605.242-.05.46.025.46.277 0 .202-.175.404-.35.555-.153.126-.284.252-.437.353-.525.43-1.028.858-1.421 1.388a3.11 3.11 0 00-.416.807c-.11.328-.153.656-.087.958.087.43.437.732.918.757a14.7 14.7 0 002.755-.202c.481-.1.984-.403 1.028-.908.044-.53-.481-.706-.984-.63-.678.1-1.356.176-2.034.252.263-.379.7-.681 1.094-1.01zm-12.376 9.945c-1.6 0-9.503 7.442-1.334 7.442 6.691 0 2.812-7.442 1.334-7.442zm-53.858-.339c-1.8 0-11.35 7.443-1.554 7.443 7.772 0 3.355-7.443 1.554-7.443zM120.79 5c-.814 0-1.474.66-1.474 1.474v8.842h-8.842a1.474 1.474 0 100 2.948h8.842v9.262a1.474 1.474 0 002.948 0v-9.262h9.262a1.474 1.474 0 100-2.948h-9.262V6.474c0-.814-.66-1.474-1.474-1.474z" fill="#E73F39"/><path fill-rule="evenodd" clip-rule="evenodd" d="M260 1h6.5v19h8v6H261a1 1 0 01-1-1V1zm-81 .5h6.5l9 24.5h-5.756a1 1 0 01-.958-.713L186.5 21h-8l-1.286 4.287a1 1 0 01-.958.713H170l9-24.5zm3.5 5.5l-2.5 9h5l-2.5-9zM238 1.5h6.5l9 24.5h-5.756a1 1 0 01-.958-.713L245.5 21h-8l-1.286 4.287a1 1 0 01-.958.713H229l9-24.5zm3.5 5.5l-2.5 9h5l-2.5-9zm56-5.5H291L282 26h6.256a1 1 0 00.958-.713L290.5 21h8l1.286 4.287a1 1 0 00.958.713h5.756l-9-24.5zM292 16l2.5-9 2.5 9h-5zM201.5 1.5h6.5v11l8.7-10.633a1 1 0 01.774-.367h7.026l-9 11.5 9 13h-6.988a1 1 0 01-.811-.416L208 13.5V26h-6.5V1.5z" fill="url(#paint0_linear_2288_2504)"/><path fill-rule="evenodd" clip-rule="evenodd" d="M157 28.275V22.72c-.5.169-2.2.303-3 .303-.8 0-2.5-.134-3.5-.303v5.556s3.5.506 6.5 0z" fill="url(#paint1_linear_2288_2504)"/><path fill-rule="evenodd" clip-rule="evenodd" d="M157 1v27.276c2.515-.424 4.279-2.202 4.6-2.526 1.752-1.77 1.9-3.872 1.9-5.051V1H157z" fill="url(#paint2_linear_2288_2504)"/><path d="M160.064 32.327a.5.5 0 01.472 0l1.528.818 1.472.914a.497.497 0 01.236.409l.056 1.732-.056 1.733a.497.497 0 01-.236.408l-1.472.914-1.528.819a.5.5 0 01-.472 0l-1.528-.819-1.473-.914a.5.5 0 01-.236-.408l-.055-1.733.055-1.732a.5.5 0 01.236-.409l1.473-.914 1.528-.818z" fill="#B8163D"/><defs><linearGradient id="paint0_linear_2288_2504" x1="171.5" y1="26" x2="301" y2="1" gradientUnits="userSpaceOnUse"><stop stop-color="#1D2749"/><stop offset="1" stop-color="#086DAA"/></linearGradient><linearGradient id="paint1_linear_2288_2504" x1="156.5" y1="23" x2="151.5" y2="27" gradientUnits="userSpaceOnUse"><stop stop-color="#1D2749"/><stop offset="1" stop-color="#096AA6"/></linearGradient><linearGradient id="paint2_linear_2288_2504" x1="157.5" y1="28.5" x2="164.5" y2="-1.5" gradientUnits="userSpaceOnUse"><stop stop-color="#C01940"/><stop offset="1" stop-color="#E7304D"/></linearGradient></defs></svg>