<svg width="1366" height="172" fill="none" xmlns="http://www.w3.org/2000/svg"><path d="M155.771 170.339V2.913h-39.704V106.24L38.812 2.913H1.261V170.34h39.943V67.253l77.016 103.086h37.551zM268.696 1.478c-51.663 0-90.41 36.116-90.41 84.91 0 49.031 38.747 85.865 90.41 85.865 51.902 0 90.649-37.073 90.649-85.866 0-48.553-38.747-84.909-90.649-84.909zm.478 35.638c25.832 0 46.401 21.287 46.401 49.51 0 28.224-20.569 49.989-46.401 49.989-25.592 0-47.357-21.765-47.357-49.989 0-28.223 21.526-49.51 47.357-49.51zM446.093 1c-40.183 0-66.732 19.613-66.732 50.467 0 59.317 88.497 41.617 88.497 71.276 0 9.567-8.371 14.59-21.765 14.59-17.461 0-43.292-10.046-60.513-25.114l-16.503 32.767c19.852 16.265 48.553 26.789 76.537 26.789 37.312 0 66.971-17.7 66.971-51.185 0-60.513-88.497-44.01-88.497-72.95 0-8.132 7.415-12.198 18.417-12.198 13.633 0 35.877 7.175 53.576 17.46l16.025-33.246C494.885 8.415 470.25 1 446.093 1zm168.993.478c-51.663 0-90.41 36.116-90.41 84.91 0 49.031 38.747 85.865 90.41 85.865 51.902 0 90.65-37.073 90.65-85.866 0-48.553-38.748-84.909-90.65-84.909zm.479 35.638c25.831 0 46.401 21.287 46.401 49.51 0 28.224-20.57 49.989-46.401 49.989-25.593 0-47.358-21.765-47.358-49.989 0-28.223 21.526-49.51 47.358-49.51zm234.934 0V2.674H707.47v34.442h49.988V170.34h42.574V37.116h50.467zm119.19 133.223H1018l-35.156-55.25c19.616-9.807 30.376-28.223 30.376-53.816 0-37.312-25.353-58.36-69.601-58.36h-74.864V170.34h42.574v-47.118h33.486l24.874 47.118zm-58.36-80.603V36.399h32.29c18.417 0 29.18 8.85 29.18 26.31 0 17.699-10.763 27.027-29.18 27.027h-32.29zM1121.24 1.478c-51.66 0-90.41 36.116-90.41 84.91 0 49.031 38.75 85.865 90.41 85.865 51.9 0 90.65-37.073 90.65-85.866 0-48.553-38.75-84.909-90.65-84.909zm.48 35.638c25.83 0 46.4 21.287 46.4 49.51 0 28.224-20.57 49.989-46.4 49.989-25.59 0-47.36-21.765-47.36-49.989 0-28.223 21.53-49.51 47.36-49.51zM1298.64 1c-40.18 0-66.73 19.613-66.73 50.467 0 59.317 88.49 41.617 88.49 71.276 0 9.567-8.37 14.59-21.76 14.59-17.46 0-43.29-10.046-60.51-25.114l-16.51 32.767c19.85 16.265 48.56 26.789 76.54 26.789 37.31 0 66.97-17.7 66.97-51.185 0-60.513-88.5-44.01-88.5-72.95 0-8.132 7.42-12.198 18.42-12.198 13.63 0 35.88 7.175 53.58 17.46l16.02-33.246C1347.43 8.415 1322.8 1 1298.64 1z" stroke="#DDE4E9"/></svg>