<svg width="197" height="32" fill="none" xmlns="http://www.w3.org/2000/svg"><path d="M6.825 26.362a.5.5 0 01.472 0l1.035.554.998.62a.5.5 0 01.236.408l.037 1.174-.037 1.173a.5.5 0 01-.236.41l-.998.618-1.035.555a.5.5 0 01-.472 0l-1.035-.555-.998-.619a.5.5 0 01-.236-.409l-.037-1.173.037-1.174a.5.5 0 01.236-.409l.998-.619 1.035-.554z" fill="#B8163D"/><path fill-rule="evenodd" clip-rule="evenodd" d="M78.904 3.753h4.684v13.691h5.764v4.324h-9.448a1 1 0 01-1-1V3.753zm-58.367.361h4.684l6.485 17.654h-4.148a.72.72 0 01-.69-.513l-.926-3.09h-5.765l-.927 3.09a.72.72 0 01-.69.514h-4.508l6.485-17.655zm2.522 3.963l-1.801 6.486h3.603l-1.802-6.486zm39.992-3.963h4.684l6.486 17.654h-4.148a.72.72 0 01-.69-.513l-.927-3.09H62.69l-.927 3.09a.72.72 0 01-.69.514h-4.508L63.05 4.114zm2.522 3.963l-1.801 6.486h3.603l-1.802-6.486zm40.354-3.963h-4.684l-6.486 17.654h4.508a.72.72 0 00.69-.513l.927-3.09h5.765l.927 3.09a.72.72 0 00.69.514h4.148l-6.485-17.655zm-3.964 10.449l1.802-6.486 1.801 6.486h-3.603zM36.75 4.114h4.684v7.926l6.185-7.56a1 1 0 01.774-.366h4.93l-6.484 8.287 6.485 9.367h-4.892a1 1 0 01-.812-.415l-6.186-8.592v9.008H36.75V4.113z" fill="url(#paint0_linear_3029_2209)"/><path fill-rule="evenodd" clip-rule="evenodd" d="M4.684 23.408v-8.126 4.122c-.36.121-1.585.218-2.162.218-.576 0-1.801-.097-2.522-.218v4.004s2.522.364 4.684 0z" fill="url(#paint1_linear_3029_2209)"/><path fill-rule="evenodd" clip-rule="evenodd" d="M4.684 23.407V3.753h4.684v14.195c0 .85-.107 2.364-1.37 3.64-.23.233-1.502 1.514-3.314 1.82z" fill="url(#paint2_linear_3029_2209)"/><path d="M124.275 1.117a1.117 1.117 0 112.235 0V30.88a1.118 1.118 0 01-2.235 0V1.117z" fill="#B80000"/><path fill-rule="evenodd" clip-rule="evenodd" d="M160.84 8.742c.74.956 1.172 1.989 1.695 3.068.247-.155.571-2.867.648-3.299.231-1.34 1.063-4.947 2.835-4.947.94 0 1.572.94 1.88 1.726.431 1.079.693 2.142.894 3.283.107.616.308 1.973.462 2.528 1.325-.617 3.867-2.02 3.914-2.035.847-.462 2.635.123 1.725 1.726-.708 1.264-3.806 4.146-3.806 4.47 0 .2 2.697 1.726 3.082 1.803.062-.108.154-.216.185-.324.339-.863.478-1.68.925-2.512 1.571-3.005 5.439-6.627 9.06-6.52a7.152 7.152 0 013.113.818 3.055 3.055 0 01.092-2.02c.971-2.512 4.608-3.714 6.904-2.743 1.633.694 2.434 2.235 1.756 4.008-.832 2.173-3.374 3.991-5.64 3.529 1.511 2.188 2.111 5.04 1.202 7.537-1.279 3.575-6.163 4.546-9.522 4.546-.987 0-4.438-.647-4.531-.632-1.849.17-2.881.34-4.761-.154l-3.375-1.31c-.354-.092-.785.648-1.017.848-1.556 1.418-3.991.74-5.562-.216-1.788 1.14-4.9 1.588-6.688.17-.308-.247-1.017-1.295-1.125-1.341-3.775 2.389-9.43 3.113-13.791 2.003-.678-.015-2.172-1.063-2.45-1.68-.755-1.68-.662-3.298-.4-5.132.292-2.003.678-4.007 1.017-5.995.262-1.51 1.263-6.458 3.174-6.458 2.404 0 2.542 4.824 3.297 5.117.663-.2 1.973-.432 2.651-.432 3.189 0 5.3 1.757 7.319 3.961.062.062.139.124.216.185.169-.154 1.34-2.805 1.88-3.53l-.077-.215c-3.406-1.695-1.048-7.29 2.804-5.903 1.125.416 1.865 1.587 1.865 2.759 0 2.019-1.834 3.051-1.85 3.313zm31.399-1.676c.304-.239.635-.478.884-.78.193-.24.331-.542.29-.829-.097-.605-.788-.748-1.409-.605a2.31 2.31 0 00-1.063.573 1.087 1.087 0 00-.29.399c-.055.19.083.318.304.254.165-.047.303-.159.428-.27.152-.16.29-.335.524-.383.152-.031.29.016.29.176 0 .127-.11.254-.221.35-.096.08-.179.16-.276.223-.331.27-.649.542-.897.876-.111.16-.207.334-.263.51a1.158 1.158 0 00-.055.605c.055.27.276.462.58.478a9.314 9.314 0 001.74-.128c.304-.063.621-.255.649-.573.028-.335-.304-.446-.621-.398-.428.063-.857.111-1.285.159.166-.239.442-.43.691-.637zm-7.816 6.279c-1.01 0-6.001 4.7-.842 4.7 4.225 0 1.776-4.7.842-4.7zm-34.011-.214c-1.137 0-7.167 4.7-.981 4.7 4.908 0 2.119-4.7.981-4.7z" fill="#E73F39"/><defs><linearGradient id="paint0_linear_3029_2209" x1="15.133" y1="21.768" x2="108.449" y2="3.755" gradientUnits="userSpaceOnUse"><stop stop-color="#1D2749"/><stop offset="1" stop-color="#086DAA"/></linearGradient><linearGradient id="paint1_linear_3029_2209" x1="4.324" y1="15.685" x2="-.763" y2="17.73" gradientUnits="userSpaceOnUse"><stop stop-color="#1D2749"/><stop offset="1" stop-color="#096AA6"/></linearGradient><linearGradient id="paint2_linear_3029_2209" x1="5.044" y1="23.569" x2="10.088" y2="1.951" gradientUnits="userSpaceOnUse"><stop stop-color="#C01940"/><stop offset="1" stop-color="#E7304D"/></linearGradient></defs></svg>