<svg width="400" height="95" fill="none" xmlns="http://www.w3.org/2000/svg"><path d="M14.142 68.546a.5.5 0 01.472 0l2.352 1.26 2.267 1.407a.5.5 0 01.236.409l.086 2.666-.085 2.667a.5.5 0 01-.236.41l-2.268 1.406-2.352 1.26a.5.5 0 01-.472 0l-2.352-1.26-2.267-1.407a.5.5 0 01-.236-.409l-.085-2.667.085-2.666a.5.5 0 01.236-.41l2.267-1.407 2.352-1.26z" fill="#B8163D"/><path fill-rule="evenodd" clip-rule="evenodd" d="M160.662 22.641h9.538v27.878h11.738v8.803h-20.276a1 1 0 01-1-1V22.641zm-118.846.736h9.537L64.56 59.324h-8.446a1.467 1.467 0 01-1.405-1.045l-1.887-6.29H41.083l-1.887 6.29a1.467 1.467 0 01-1.406 1.045h-9.179l13.205-35.947zm5.136 8.07l-3.669 13.205h7.337l-3.668-13.205zm81.431-8.07h9.537l13.205 35.947h-8.445a1.467 1.467 0 01-1.405-1.045l-1.888-6.29h-11.738l-1.887 6.29a1.467 1.467 0 01-1.405 1.045h-9.179l13.205-35.947zm5.135 8.07l-3.668 13.205h7.336l-3.668-13.205zm82.166-8.07h-9.537l-13.205 35.947h9.179c.648 0 1.219-.425 1.405-1.045l1.888-6.29h11.738l1.887 6.29c.186.62.757 1.045 1.405 1.045h8.446l-13.206-35.947zm-8.07 21.275l3.669-13.205 3.668 13.205h-7.337zM74.828 23.377h9.538v16.14L97.27 23.744a1 1 0 01.774-.367h10.53L95.37 40.25l13.205 19.075H98.083a1 1 0 01-.811-.416L84.366 40.984v18.34h-9.537V23.377zM9.538 62.663V46.117v8.392c-.735.247-3.229.445-4.403.445-1.173 0-3.668-.198-5.135-.445v8.153s5.135.74 9.537 0z" fill="#fff"/><path fill-rule="evenodd" clip-rule="evenodd" d="M9.537 62.661v-40.02h9.537v28.903c0 1.73-.217 4.814-2.788 7.412-.47.475-3.059 3.084-6.749 3.705z" fill="url(#paint0_linear_3046_2069)"/><path d="M253.047 17.275a2.275 2.275 0 014.55 0v60.6a2.275 2.275 0 01-4.55 0v-60.6z" fill="#B80000"/><path fill-rule="evenodd" clip-rule="evenodd" d="M327.501 30.801c1.506 1.946 2.385 4.048 3.452 6.245.502-.314 1.161-5.837 1.317-6.716.471-2.73 2.165-10.073 5.774-10.073 1.913 0 3.2 1.914 3.827 3.514.879 2.197 1.412 4.363 1.82 6.685.22 1.255.628 4.017.941 5.146 2.699-1.255 7.876-4.11 7.97-4.142 1.725-.941 5.365.251 3.514 3.515-1.443 2.573-7.75 8.442-7.75 9.1 0 .409 5.491 3.516 6.275 3.672.126-.22.314-.439.377-.658.69-1.758.972-3.421 1.882-5.116 3.201-6.12 11.076-13.494 18.449-13.275a14.53 14.53 0 016.338 1.664 6.213 6.213 0 01.188-4.111c1.977-5.116 9.382-7.564 14.056-5.587 3.326 1.413 4.958 4.55 3.577 8.16-1.694 4.425-6.871 8.128-11.483 7.186 3.075 4.457 4.298 10.263 2.447 15.346-2.604 7.281-12.55 9.258-19.39 9.258-2.008 0-9.036-1.318-9.224-1.286-3.765.345-5.868.69-9.695-.314l-6.872-2.668c-.721-.188-1.6 1.318-2.07 1.726-3.169 2.888-8.127 1.507-11.327-.439-3.64 2.322-9.977 3.232-13.617.345-.628-.502-2.071-2.636-2.29-2.73-7.687 4.864-19.202 6.34-28.082 4.08-1.38-.032-4.423-2.166-4.988-3.421-1.538-3.42-1.349-6.716-.816-10.45.596-4.08 1.381-8.16 2.071-12.208.533-3.076 2.573-13.15 6.463-13.15 4.895 0 5.177 9.823 6.715 10.42 1.349-.408 4.016-.88 5.396-.88 6.495 0 10.793 3.579 14.903 8.066.126.126.283.251.44.377.345-.314 2.729-5.712 3.828-7.187l-.157-.44c-6.934-3.451-2.134-14.843 5.71-12.019 2.29.848 3.796 3.233 3.796 5.618 0 4.11-3.733 6.213-3.765 6.747zm63.933-3.414c.619-.486 1.294-.973 1.8-1.589.393-.486.674-1.102.59-1.686-.197-1.233-1.603-1.524-2.868-1.233-.787.195-1.574.584-2.165 1.168-.253.227-.478.519-.59.81-.113.39.168.65.618.52.338-.098.619-.325.872-.552.309-.324.59-.68 1.068-.778.31-.065.591.032.591.357 0 .26-.225.518-.45.713-.197.162-.366.324-.562.454-.675.551-1.322 1.103-1.828 1.784a3.959 3.959 0 00-.534 1.037c-.141.422-.197.844-.113 1.233.113.551.563.94 1.181.973a18.962 18.962 0 003.543-.26c.619-.13 1.265-.519 1.322-1.167.056-.681-.619-.908-1.266-.81-.871.129-1.743.226-2.615.323.338-.486.9-.875 1.406-1.297zM375.52 40.172c-2.057 0-12.219 9.569-1.714 9.569 8.603 0 3.616-9.569 1.714-9.569zm-69.252-.434c-2.316 0-14.594 9.568-1.999 9.568 9.994 0 4.315-9.569 1.999-9.569z" fill="#E73F39"/><defs><linearGradient id="paint0_linear_3046_2069" x1="10.27" y1="62.991" x2="20.541" y2="18.973" gradientUnits="userSpaceOnUse"><stop stop-color="#C01940"/><stop offset="1" stop-color="#E7304D"/></linearGradient></defs></svg>