<svg width="300" height="148" fill="none" xmlns="http://www.w3.org/2000/svg"><path fill-rule="evenodd" clip-rule="evenodd" d="M106.837 29.896c3.514 4.54 5.564 9.447 8.053 14.574 1.172-.732 2.709-13.622 3.075-15.673 1.098-6.372 5.051-23.51 13.471-23.51 4.465 0 7.467 4.468 8.931 8.203 2.05 5.127 3.295 10.18 4.246 15.6.513 2.93 1.464 9.375 2.196 12.011 6.297-2.93 18.376-9.594 18.596-9.667 4.026-2.197 12.518.586 8.199 8.202-3.368 6.006-18.083 19.701-18.083 21.24 0 .952 12.812 8.202 14.642 8.568.293-.512.732-1.025.879-1.538 1.61-4.1 2.269-7.983 4.392-11.937 7.468-14.282 25.843-31.493 43.047-30.98a33.882 33.882 0 0114.789 3.881c-.879-3.002-.879-6.225.439-9.594 4.612-11.938 21.89-17.65 32.798-13.036 7.76 3.296 11.567 10.62 8.346 19.042-3.954 10.326-16.033 18.968-26.795 16.771 7.174 10.4 10.03 23.95 5.71 35.814-6.076 16.991-29.283 21.605-45.243 21.605-4.685 0-21.084-3.076-21.524-3.003-8.785.806-13.69 1.612-22.621-.732l-16.033-6.225c-1.684-.44-3.734 3.076-4.832 4.028-7.394 6.738-18.961 3.515-26.428-1.026-8.493 5.42-23.281 7.544-31.773.806-1.464-1.172-4.832-6.152-5.345-6.372C62.033 98.3 35.165 101.742 14.447 96.47c-3.221-.073-10.322-5.053-11.64-7.983C-.78 80.503-.341 72.813.903 64.098c1.391-9.521 3.222-19.042 4.832-28.49C6.98 28.431 11.738 4.921 20.816 4.921c11.42 0 12.08 22.924 15.667 24.316 3.148-.952 9.37-2.051 12.592-2.051 15.154 0 25.184 8.35 34.775 18.822.292.293.658.586 1.024.879.806-.732 6.37-13.33 8.932-16.771l-.366-1.026c-16.18-8.056-4.978-34.642 13.324-28.05 5.344 1.977 8.858 7.543 8.858 13.11 0 9.594-8.712 14.5-8.785 15.746zm149.176-7.967c1.443-1.135 3.018-2.27 4.199-3.709.918-1.135 1.575-2.573 1.378-3.935-.46-2.876-3.74-3.557-6.692-2.876-1.837.454-3.674 1.362-5.052 2.724-.591.53-1.115 1.211-1.378 1.893-.262.908.394 1.513 1.443 1.21.788-.227 1.444-.756 2.034-1.286.722-.757 1.378-1.59 2.493-1.816.722-.152 1.378.075 1.378.832 0 .606-.525 1.21-1.05 1.665-.459.378-.852.757-1.312 1.06-1.574 1.286-3.083 2.573-4.264 4.162-.525.757-.984 1.59-1.247 2.422-.328.984-.459 1.968-.262 2.876.262 1.286 1.312 2.195 2.755 2.27 2.69.076 5.446-.151 8.267-.605 1.443-.303 2.952-1.211 3.084-2.725.131-1.589-1.444-2.119-2.953-1.892-2.034.303-4.068.53-6.101.757.787-1.135 2.099-2.043 3.28-3.027zm-37.132 29.837c-4.801 0-28.512 22.33-4.001 22.33 20.074 0 8.437-22.33 4.001-22.33zM57.292 50.751c-5.404 0-34.052 22.33-4.663 22.33 23.318 0 10.067-22.33 4.663-22.33z" fill="#E73F39"/><path d="M99.217 129.44a5.95 5.95 0 01-2.143-.377 5.246 5.246 0 01-1.694-1.085 5.24 5.24 0 01-1.114-1.651 5.176 5.176 0 01-.406-2.07c0-.753.136-1.443.406-2.07a4.976 4.976 0 011.129-1.636 4.933 4.933 0 011.694-1.085 5.746 5.746 0 012.142-.391c.782 0 1.501.135 2.157.405a4.348 4.348 0 011.694 1.173l-.941.912a3.664 3.664 0 00-1.303-.898 3.955 3.955 0 00-1.549-.304c-.57 0-1.1.097-1.592.29a3.823 3.823 0 00-1.26.81 3.742 3.742 0 00-.84 1.245c-.192.473-.289.99-.289 1.549 0 .56.096 1.081.29 1.564a3.76 3.76 0 002.099 2.041 4.323 4.323 0 001.592.289c.55 0 1.066-.096 1.549-.289a3.764 3.764 0 001.303-.927l.941.912a4.478 4.478 0 01-1.694 1.187c-.656.271-1.38.406-2.171.406zm10.558 0a5.86 5.86 0 01-2.157-.391 5.235 5.235 0 01-1.708-1.086 5.136 5.136 0 01-1.129-1.65 5.146 5.146 0 01-.405-2.056c0-.743.135-1.428.405-2.055a4.96 4.96 0 011.129-1.636 5.095 5.095 0 011.708-1.1 5.791 5.791 0 012.157-.391c.772 0 1.482.13 2.128.391.657.25 1.226.612 1.709 1.085a4.712 4.712 0 011.129 1.636 5.18 5.18 0 01.405 2.07 5.18 5.18 0 01-.405 2.07 4.846 4.846 0 01-1.129 1.651 5.21 5.21 0 01-1.709 1.085 5.83 5.83 0 01-2.128.377zm0-1.289c.56 0 1.077-.096 1.549-.289a3.643 3.643 0 001.245-.811c.357-.357.633-.772.826-1.245.202-.473.304-.989.304-1.549 0-.559-.102-1.076-.304-1.549a3.584 3.584 0 00-.826-1.23 3.55 3.55 0 00-1.245-.825 4.057 4.057 0 00-1.549-.29c-.569 0-1.095.097-1.578.29a3.747 3.747 0 00-1.244.825 3.752 3.752 0 00-.84 1.23c-.193.473-.29.99-.29 1.549 0 .56.097 1.076.29 1.549.203.473.482.888.84 1.245.357.348.772.618 1.244.811a4.214 4.214 0 001.578.289zm7.85 1.173v-10.133h1.187l4.545 7.658h-.637l4.488-7.658h1.187l.015 10.133h-1.39l-.015-7.948h.333l-3.995 6.718h-.666l-4.024-6.718h.361v7.948h-1.389zm14.092 0v-10.133h3.952c.888 0 1.645.139 2.273.419.627.28 1.11.686 1.447 1.216.338.531.507 1.163.507 1.897 0 .733-.169 1.365-.507 1.896-.337.521-.82.927-1.447 1.216-.628.28-1.385.42-2.273.42h-3.156l.651-.68v3.749h-1.447zm1.447-3.605l-.651-.723h3.112c.927 0 1.627-.198 2.1-.594.482-.396.723-.955.723-1.679 0-.724-.241-1.284-.723-1.679-.473-.396-1.173-.594-2.1-.594h-3.112l.651-.724v5.993zm7.081 3.605l4.589-10.133h1.433l4.604 10.133h-1.52l-4.097-9.323h.579l-4.097 9.323h-1.491zm1.955-2.533l.39-1.158h5.704l.42 1.158H142.2zm10.449 2.533v-10.133h1.187l6.702 8.323h-.622v-8.323h1.447v10.133h-1.187L153.474 121h.622v8.324h-1.447zm14.46 0v-3.88l.333.898-4.358-7.151h1.549l3.663 6.036h-.84l3.677-6.036h1.434l-4.343 7.151.318-.898v3.88h-1.433zm-164.279.181l4.588-10.134h1.433l4.604 10.134h-1.52l-4.097-9.323h.579l-4.097 9.323H2.83zm1.953-2.534l.391-1.158h5.704l.42 1.158H4.783zm61.821-7.896h2.75v8.037h3.383v2.538H66.75a.146.146 0 01-.146-.146v-10.429z" fill="#000"/><path fill-rule="evenodd" clip-rule="evenodd" d="M32.34 119.287h2.75l3.807 10.363h-2.435a.423.423 0 01-.405-.301l-.544-1.814h-3.384l-.544 1.814a.423.423 0 01-.406.301h-2.646l3.807-10.363zm1.48 2.326l-1.057 3.807h2.115l-1.057-3.807zm23.478-2.326h2.75l3.806 10.363H61.42a.423.423 0 01-.405-.301l-.544-1.814h-3.384l-.544 1.814a.423.423 0 01-.405.301H53.49l3.808-10.363zm1.48 2.326l-1.057 3.807h2.115l-1.058-3.807zm23.689-2.326h-2.75L75.91 129.65h2.647a.423.423 0 00.405-.301l.544-1.814h3.384l.544 1.814a.423.423 0 00.405.301h2.435l-3.807-10.363zm-2.327 6.133l1.058-3.807 1.057 3.807H80.14z" fill="#000"/><path d="M41.858 119.287h2.75v4.653l3.763-4.6a.145.145 0 01.112-.053h3.104l-3.807 4.864 3.807 5.499h-3.098a.145.145 0 01-.118-.06l-3.764-5.227v5.287h-2.75v-10.363zm-18.97 11.326v-4.77 2.419c-.211.071-.93.128-1.269.128-.338 0-1.057-.057-1.48-.128v2.351s1.48.213 2.75 0zm.146 0v-11.538h2.75v8.333c0 .498-.063 1.387-.804 2.136-.136.137-.882.889-1.946 1.069zm1.361 1.678a.076.076 0 01.069 0l.712.381.686.426c.02.013.033.035.034.06l.026.807-.026.807a.073.073 0 01-.034.059l-.686.426-.712.381a.07.07 0 01-.069 0l-.712-.381-.686-.426a.073.073 0 01-.034-.059l-.026-.807.026-.807c0-.025.014-.047.034-.06l.686-.426.712-.381z" fill="#000"/></svg>