<svg width="528" height="278" viewBox="0 0 528 278" fill="none" xmlns="http://www.w3.org/2000/svg">
<rect width="528" height="278" fill="#B8E5DD"/>
<path d="M190.136 147.65C189.674 147.496 189.212 147.342 188.75 147.188C187.826 146.828 187.826 146.777 187.98 145.801C188.339 143.285 189.674 141.231 191.266 139.331C192.601 137.791 193.987 136.25 195.322 134.71C195.631 134.351 195.939 133.94 196.195 133.529C196.76 132.605 197.017 131.732 196.606 130.653C195.99 128.908 196.041 127.008 196.144 125.211C196.144 124.954 196.195 124.646 196.195 124.286C195.887 124.543 195.785 124.8 195.682 125.057C194.758 127.264 193.885 129.524 193.782 131.989C193.782 132.091 193.782 132.245 193.628 132.297C193.423 132.348 193.371 132.194 193.371 132.04C193.32 131.732 193.217 131.424 193.114 131.013C192.755 131.424 192.498 131.783 192.19 132.091C192.088 132.194 192.036 132.399 191.882 132.245C191.471 131.989 191.163 131.68 191.009 131.167C190.907 130.756 191.061 130.397 191.42 130.14C191.831 129.832 192.139 129.472 192.601 129.216C193.423 128.805 193.782 128.137 193.936 127.213C194.244 125.416 194.45 123.567 195.168 121.822C196.247 119.1 197.684 116.584 199.276 114.119C200.201 112.733 200.611 111.193 200.509 109.549C200.457 108.882 200.201 108.676 199.533 108.882C199.379 108.933 199.174 109.036 199.02 109.087C198.147 109.498 197.274 109.549 196.452 108.985C195.733 108.522 195.014 108.625 194.347 109.139C193.936 109.498 193.525 109.857 193.114 110.217C191.728 111.398 190.188 111.706 188.442 110.936C187.518 110.525 186.542 110.371 185.515 110.679C185.361 110.73 185.156 110.782 185.001 110.936C184.899 111.038 184.847 111.295 184.642 111.141C184.488 111.038 184.539 110.833 184.591 110.679C184.745 110.166 185.053 109.755 185.361 109.395C186.388 108.112 187.672 107.239 189.417 107.187C190.393 107.136 191.215 106.571 191.882 105.852C192.498 105.185 193.114 104.517 194.039 104.261C194.86 104.055 195.631 104.004 196.401 104.363C197.633 104.928 198.814 104.928 199.995 104.312C200.098 104.261 200.201 104.209 200.355 104.158C201.587 103.798 201.946 104.004 202.357 105.287C202.511 105.698 202.665 106.109 202.973 106.468C203.641 107.393 203.641 108.368 203.333 109.395C203.179 109.909 202.717 110.217 202.357 110.525C202.152 110.679 201.946 110.884 201.946 111.193C201.998 112.887 201.69 114.581 202.203 116.225C203.538 120.897 206.465 124.03 211.292 125.159C212.113 125.365 212.935 125.262 213.808 125.313C213.962 125.313 214.219 125.211 214.27 125.467C214.321 125.724 214.065 125.775 213.859 125.827C213.705 125.878 213.551 125.929 213.346 125.981C213.5 126.289 213.859 126.392 214.065 126.597C214.27 126.751 214.578 126.854 214.475 127.213C214.321 127.521 214.065 127.727 213.705 127.778C213.346 127.829 213.038 127.727 212.781 127.47C211.754 126.494 210.47 126.083 209.135 125.929C207.338 125.673 205.849 124.8 204.462 123.619C203.59 122.849 202.871 122.027 202.203 120.949C202.152 121.205 202.1 121.359 202.049 121.513C201.792 125.724 202.665 129.627 204.925 133.272C206.619 135.994 208.673 138.458 211.035 140.615C211.548 141.077 212.113 141.488 212.627 142.001C212.832 142.207 212.986 142.207 213.14 141.95C213.602 141.283 214.321 141.026 215.04 140.769C215.554 140.564 215.656 140.82 215.656 141.231C215.554 142.155 215.04 142.874 214.527 143.593C213.602 144.826 212.473 145.853 211.24 146.828C210.932 147.085 210.624 147.239 210.162 146.982C206.362 145.236 203.23 142.618 200.765 139.28C200.663 139.126 200.509 138.972 200.355 138.766C199.584 139.947 198.455 140.615 197.428 141.385C196.041 142.464 195.066 143.85 194.141 145.339C193.936 145.647 193.987 145.801 194.347 145.955C194.604 146.058 194.86 146.263 195.117 146.417C195.271 146.52 195.477 146.52 195.477 146.725C195.477 146.931 195.22 146.982 195.066 147.034C194.501 147.188 193.987 147.393 193.423 147.547C193.32 147.598 193.217 147.547 193.166 147.65C192.088 147.65 191.112 147.65 190.136 147.65ZM214.989 141.129C214.475 141.334 214.065 141.591 213.654 141.95C213.243 142.31 213.192 142.566 213.705 142.874C213.859 142.977 214.013 143.388 214.219 143.08C214.629 142.566 214.937 142.053 215.194 141.437C215.194 141.334 215.246 141.129 214.989 141.129ZM193.423 147.085C193.936 146.931 194.398 146.777 194.912 146.623C193.782 145.853 193.679 145.853 193.423 147.085Z" fill="black"/>
<path d="M235.897 162.513C235.28 162.513 234.613 162.513 233.997 162.564C233.535 162.615 233.329 162.461 233.278 162.05C233.175 161.332 232.764 161.075 232.045 161.126C231.224 161.177 230.454 161.126 229.632 161.075C229.17 161.023 228.913 161.229 228.862 161.64C228.759 162.307 228.4 162.667 227.63 162.513C227.321 162.461 227.013 162.513 226.705 162.513C226.089 162.513 225.986 162.41 226.243 161.845C226.654 160.818 227.116 159.791 227.527 158.815C228.194 157.326 228.862 155.889 229.478 154.4C229.632 154.04 229.838 153.886 230.248 153.886C232.148 153.783 232.2 153.732 232.918 155.426C233.843 157.532 234.716 159.688 235.691 161.794C235.743 161.896 235.743 162.05 235.897 162.102C235.897 162.204 235.897 162.358 235.897 162.513ZM230.967 158.97C231.121 158.97 231.275 159.021 231.481 159.021C231.789 159.021 231.943 158.918 231.84 158.559C231.686 157.994 231.481 157.48 231.327 156.916C231.275 156.762 231.173 156.659 231.019 156.659C230.864 156.659 230.762 156.813 230.71 156.916C230.556 157.275 230.454 157.583 230.3 157.943C229.94 158.918 229.94 158.918 230.967 158.97Z" fill="black"/>
<path d="M188.862 167.801C189.272 166.723 189.837 165.901 190.71 165.336C192.456 164.207 195.023 164.412 196.564 165.799C196.821 166.055 196.769 166.209 196.564 166.415C196.256 166.723 195.948 167.031 195.64 167.339C195.383 167.596 195.177 167.493 194.921 167.339C194.151 166.826 193.329 166.774 192.405 167.082C191.121 167.544 190.916 169.342 191.275 170.369C191.686 171.55 192.867 172.063 194.048 171.652C194.356 171.55 194.715 171.447 194.921 171.241C195.383 170.831 195.691 170.985 195.999 171.447C196.05 171.55 196.153 171.601 196.204 171.704C197.026 172.679 196.975 172.731 195.845 173.347C194.202 174.271 191.532 174.117 190.094 172.885C189.067 172.012 188.605 170.882 188.605 169.547C188.605 169.29 188.605 169.034 188.605 168.674C188.194 169.342 187.783 169.906 187.064 170.163C186.705 170.266 186.962 170.471 187.064 170.574C187.629 171.344 188.194 172.063 188.81 172.833C188.913 172.987 189.118 173.09 189.067 173.295C188.964 173.501 188.759 173.398 188.554 173.449C188.4 173.449 188.245 173.449 188.04 173.449C186.192 173.449 186.192 173.449 185.113 171.858C184.908 171.55 184.702 171.241 184.497 170.933C184.292 170.574 183.932 170.523 183.573 170.625C183.265 170.728 183.367 171.036 183.367 171.241C183.367 171.806 183.419 172.371 183.419 172.885C183.419 173.244 183.316 173.449 182.905 173.398C182.392 173.347 181.878 173.347 181.365 173.398C180.903 173.398 180.749 173.193 180.8 172.782C180.954 170.779 180.697 168.725 180.903 166.723C180.954 166.261 180.903 165.799 180.851 165.336C180.851 164.926 180.954 164.669 181.468 164.669C182.905 164.72 184.292 164.669 185.729 164.72C187.475 164.72 188.502 165.799 188.862 167.801ZM183.521 167.647C183.573 168.725 183.573 168.725 184.651 168.674C184.856 168.674 185.062 168.674 185.267 168.623C185.986 168.571 186.243 168.315 186.243 167.698C186.243 166.98 185.986 166.671 185.319 166.569C185.062 166.517 184.805 166.517 184.6 166.517C183.521 166.62 183.521 166.62 183.521 167.647Z" fill="black"/>
<path d="M217.514 157.632C217 158.248 216.487 158.916 215.973 159.532C215.46 160.2 215.306 160.2 214.741 159.532C214.228 158.916 213.817 158.197 213.149 157.581C213.149 158.454 213.149 159.275 213.149 160.046C213.149 160.662 213.149 161.329 213.149 161.945C213.149 162.356 213.047 162.51 212.584 162.51C210.787 162.562 210.787 162.562 210.787 160.816C210.787 158.659 210.787 156.503 210.736 154.346C210.736 153.935 210.89 153.73 211.301 153.832C211.557 153.884 211.866 153.935 212.071 153.832C212.841 153.627 213.355 153.935 213.765 154.603C214.176 155.167 214.587 155.732 214.998 156.297C215.255 156.605 215.409 156.605 215.665 156.297C216.179 155.578 216.744 154.911 217.257 154.192C217.411 153.986 217.565 153.832 217.873 153.884C218.387 153.935 218.952 153.935 219.465 153.884C219.825 153.884 219.979 153.986 219.927 154.397C219.773 156.708 220.03 159.019 219.876 161.329C219.773 162.562 219.876 162.562 218.644 162.51C218.541 162.51 218.387 162.51 218.284 162.51C217.719 162.562 217.565 162.305 217.565 161.74C217.617 160.354 217.565 159.019 217.565 157.632C217.565 157.632 217.514 157.632 217.514 157.632Z" fill="black"/>
<path d="M193.226 158.249C193.226 159.43 193.226 160.611 193.226 161.792C193.226 162.511 193.226 162.563 192.507 162.563C192.097 162.563 191.634 162.563 191.224 162.563C190.761 162.614 190.659 162.357 190.659 161.998C190.71 159.995 190.71 157.993 190.762 155.99C190.762 155.477 190.71 154.912 190.71 154.398C190.71 154.039 190.864 153.885 191.224 153.936C191.275 153.936 191.326 153.936 191.326 153.936C192.405 153.731 193.175 154.193 193.791 155.117C194.561 156.247 195.434 157.274 196.358 158.506C196.358 157.839 196.358 157.325 196.358 156.76C196.358 156.041 196.358 155.271 196.307 154.552C196.307 154.09 196.461 153.885 196.923 153.885C197.437 153.936 197.899 153.885 198.412 153.936C198.772 153.936 198.926 154.09 198.875 154.501C198.618 156.76 198.977 159.02 198.823 161.279C198.72 162.563 198.72 162.563 197.385 162.717C196.872 162.768 196.564 162.563 196.256 162.152C195.331 160.868 194.356 159.584 193.38 158.352C193.38 158.198 193.278 158.198 193.226 158.249Z" fill="black"/>
<path d="M226.14 168.982C226.14 167.749 226.14 166.466 226.14 165.233C226.14 164.771 226.294 164.617 226.757 164.617C228.194 164.669 229.581 164.617 231.018 164.669C232.302 164.72 233.329 165.387 233.791 166.62C234.151 167.595 234.048 168.622 233.278 169.444C233.124 169.598 232.97 169.803 232.764 169.855C232.148 170.06 232.148 170.368 232.559 170.83C233.072 171.446 233.586 172.114 234.099 172.782C234.202 172.936 234.407 173.038 234.305 173.244C234.202 173.449 233.997 173.346 233.791 173.346C233.226 173.346 232.662 173.346 232.045 173.398C231.737 173.398 231.532 173.295 231.327 173.038C230.813 172.319 230.3 171.601 229.786 170.882C229.529 170.522 229.221 170.471 228.862 170.574C228.502 170.676 228.656 171.036 228.656 171.241C228.656 171.806 228.656 172.371 228.708 172.884C228.708 173.192 228.605 173.398 228.246 173.346C227.732 173.346 227.27 173.295 226.757 173.346C226.243 173.346 226.038 173.192 226.038 172.628C226.14 171.446 226.14 170.214 226.14 168.982ZM229.786 168.674C229.991 168.674 230.197 168.674 230.402 168.674C231.121 168.622 231.429 168.366 231.429 167.749C231.429 167.082 231.121 166.671 230.402 166.62C230.146 166.62 229.889 166.568 229.683 166.62C228.862 166.671 228.502 166.466 228.759 167.595C228.81 167.749 228.81 167.903 228.759 168.006C228.656 168.52 228.913 168.725 229.375 168.674C229.478 168.674 229.632 168.674 229.786 168.674Z" fill="black"/>
<path d="M200.466 157.889C200.569 154.911 202.315 153.371 205.19 153.319C208.169 153.268 209.709 155.322 209.709 157.838C209.709 161.022 207.809 162.562 205.293 162.562C202.366 162.613 200.466 160.919 200.466 157.889ZM202.828 157.889C202.828 159.327 203.804 160.354 205.139 160.354C206.32 160.354 207.244 159.327 207.244 157.889C207.244 156.503 206.371 155.425 205.139 155.425C203.753 155.476 202.88 156.4 202.828 157.889Z" fill="black"/>
<path d="M180.441 157.889C180.492 154.911 182.289 153.422 185.113 153.319C187.835 153.268 189.683 155.117 189.683 157.838C189.683 160.97 187.783 162.562 185.216 162.562C182.34 162.613 180.389 160.919 180.441 157.889ZM187.218 157.941C187.218 156.503 186.397 155.476 185.165 155.476C183.778 155.476 182.803 156.4 182.803 157.889C182.803 159.276 183.778 160.354 185.113 160.405C186.346 160.405 187.218 159.378 187.218 157.941Z" fill="black"/>
<path d="M164.06 158.147C164.06 156.915 164.06 155.683 164.06 154.45C164.06 153.988 164.214 153.834 164.677 153.834C166.628 153.937 168.528 153.937 170.479 153.834C170.89 153.834 171.095 153.988 171.044 154.399C171.044 154.553 170.992 154.707 170.992 154.912C170.941 156.042 170.941 156.042 169.811 156.042C168.887 156.042 167.963 156.042 167.039 155.991C166.577 155.991 166.525 156.247 166.525 156.607C166.525 156.966 166.525 157.274 167.039 157.274C168.066 157.223 169.093 157.223 170.12 157.172C170.582 157.172 170.838 157.326 170.787 157.788C170.787 157.839 170.787 157.89 170.787 157.89C170.838 159.226 170.838 159.174 169.555 159.174C168.733 159.174 167.86 159.226 167.039 159.174C166.474 159.123 166.577 159.585 166.577 159.893C166.525 160.253 166.577 160.458 167.039 160.458C168.22 160.407 169.401 160.458 170.53 160.407C171.044 160.407 171.249 160.561 171.249 161.125C171.198 162.769 171.301 162.512 169.914 162.512C168.168 162.563 166.474 162.563 164.779 162.615C164.112 162.615 163.958 162.46 164.009 161.793C164.112 160.561 164.009 159.328 164.06 158.147Z" fill="black"/>
<path d="M200.877 167.544C200.877 168.314 200.877 169.084 200.877 169.906C200.928 170.933 201.339 171.549 202.109 171.652C203.188 171.857 204.061 171.241 204.061 170.111C204.112 168.622 204.163 167.082 204.061 165.541C204.009 164.617 204.112 164.566 205.036 164.669C205.344 164.72 205.652 164.669 205.961 164.669C206.423 164.617 206.628 164.823 206.628 165.233C206.628 166.928 206.679 168.622 206.577 170.317C206.423 172.628 204.882 173.911 202.572 173.86C200.98 173.809 199.645 173.398 198.926 171.857C198.669 171.344 198.515 170.779 198.464 170.214C198.464 168.52 198.464 166.825 198.464 165.131C198.464 164.771 198.566 164.617 198.977 164.617C199.439 164.617 199.901 164.669 200.415 164.617C200.826 164.617 200.98 164.771 200.98 165.182C200.877 166.004 200.928 166.774 200.877 167.544C200.928 167.544 200.928 167.544 200.877 167.544Z" fill="black"/>
<path d="M220.903 164.616C221.622 164.462 222.135 164.77 222.495 165.643C223.419 168.005 224.497 170.264 225.473 172.575C225.781 173.243 225.678 173.397 224.908 173.345C224.805 173.345 224.703 173.294 224.6 173.345C223.624 173.551 222.957 173.345 222.751 172.216C222.7 171.959 222.495 171.959 222.289 171.908C221.262 171.908 220.184 171.908 219.157 171.856C218.798 171.856 218.746 172.113 218.644 172.37C218.335 173.294 218.438 173.397 217.308 173.294C217.052 173.294 216.795 173.294 216.538 173.345C215.871 173.397 215.768 173.243 216.025 172.626C216.487 171.497 217 170.419 217.463 169.289C218.027 168.057 218.644 166.824 219.106 165.54C219.362 164.873 219.722 164.565 220.389 164.668C220.492 164.616 220.595 164.616 220.903 164.616ZM220.697 169.802C220.903 169.802 221.057 169.802 221.262 169.802C221.519 169.802 221.622 169.648 221.57 169.392C221.416 168.827 221.211 168.262 221.006 167.697C220.954 167.543 220.903 167.44 220.697 167.44C220.543 167.44 220.441 167.594 220.389 167.697C220.235 168.057 220.133 168.365 219.979 168.724C219.67 169.7 219.516 169.802 220.697 169.802Z" fill="black"/>
<path d="M174.741 158.042C174.741 160.148 176.487 161.072 178.438 159.994C179.208 159.532 179.208 159.532 179.773 160.25C180.646 161.277 180.595 161.329 179.414 161.996C178.078 162.766 175.203 162.818 173.714 161.483C172.276 160.25 171.763 157.888 172.738 155.783C174.022 153.062 177.873 152.343 180.132 154.448C180.389 154.653 180.338 154.859 180.132 155.064C179.824 155.372 179.516 155.68 179.208 156.04C178.951 156.297 178.797 156.143 178.541 155.989C178.027 155.629 177.411 155.424 176.795 155.526C175.357 155.732 174.741 156.553 174.741 158.042Z" fill="black"/>
<path d="M172.636 173.861C169.863 173.913 168.066 172.68 167.706 170.318C167.141 166.827 169.503 164.208 173.046 164.619C173.971 164.721 174.689 165.183 175.408 165.697C175.716 165.954 175.716 166.159 175.46 166.416C175.408 166.467 175.408 166.467 175.357 166.519C174.792 167.237 174.279 167.7 173.252 167.032C172.482 166.519 171.146 166.878 170.633 167.545C169.914 168.418 169.863 169.445 170.274 170.472C170.582 171.345 171.352 171.807 172.276 171.807C172.892 171.807 173.508 171.551 173.971 171.191C174.381 170.883 174.638 170.986 174.895 171.345C175.049 171.551 175.203 171.705 175.357 171.91C175.922 172.578 175.922 172.578 175.254 173.091C174.381 173.707 173.354 173.861 172.636 173.861Z" fill="black"/>
<path d="M208.169 168.981C208.169 167.749 208.169 166.465 208.169 165.232C208.169 164.77 208.323 164.616 208.785 164.668C209.196 164.719 209.606 164.719 210.017 164.668C210.377 164.668 210.531 164.822 210.531 165.181C210.531 167.03 210.531 168.878 210.479 170.727C210.479 171.189 210.582 171.394 211.095 171.343C211.968 171.292 212.841 171.394 213.663 171.24C214.125 171.189 214.382 171.292 214.33 171.805C214.279 172.113 214.33 172.473 214.33 172.781C214.382 173.294 214.125 173.448 213.663 173.397C212.02 173.243 210.377 173.397 208.733 173.397C208.323 173.397 208.117 173.294 208.117 172.832C208.169 171.497 208.169 170.213 208.169 168.981Z" fill="black"/>
<path d="M176.846 168.982C176.846 167.698 176.846 166.466 176.846 165.182C176.846 164.771 176.949 164.566 177.36 164.617C177.873 164.668 178.335 164.668 178.849 164.617C179.311 164.566 179.413 164.823 179.413 165.182C179.413 166.466 179.465 167.801 179.413 169.084C179.362 170.368 179.465 171.6 179.362 172.884C179.311 173.295 179.208 173.398 178.849 173.346C178.695 173.346 178.541 173.346 178.335 173.346C176.897 173.295 176.897 173.295 176.846 171.857C176.846 170.933 176.846 169.957 176.846 168.982Z" fill="black"/>
<path d="M222.546 158.043C222.546 156.76 222.546 155.527 222.546 154.244C222.546 153.936 222.597 153.781 222.957 153.781C223.419 153.781 223.881 153.781 224.395 153.73C224.805 153.679 224.959 153.833 224.959 154.295C224.959 155.63 224.959 156.914 224.959 158.249C224.959 159.481 224.908 160.765 224.959 161.997C224.959 162.511 224.754 162.716 224.292 162.613C224.138 162.613 223.984 162.562 223.881 162.562C222.7 162.511 222.7 162.511 222.649 161.33C222.546 160.2 222.546 159.122 222.546 158.043Z" fill="black"/>
<path d="M225.627 150.855C225.319 151.471 224.908 151.934 224.497 152.447C224.394 152.601 224.189 152.652 223.984 152.601C223.624 152.601 223.265 152.55 222.854 152.55C222.546 152.55 222.443 152.447 222.597 152.139C222.854 151.677 222.957 151.112 223.316 150.753C223.522 150.701 225.267 150.753 225.627 150.855Z" fill="black"/>
<path d="M258.157 170.612C256.945 170.612 255.859 169.498 255.859 166.865C255.859 165.249 256.374 163.075 258.143 163.075C259.147 163.075 260.108 164.231 260.164 164.287C260.219 164.343 260.289 164.385 260.387 164.385C260.554 164.385 260.679 164.259 260.679 164.092V161.961C260.679 161.849 260.623 161.752 260.526 161.696C259.662 161.152 259.063 160.832 257.823 160.832C256.388 160.832 253.685 161.752 253.685 166.851C253.685 171.128 255.678 172.842 257.809 172.842C258.965 172.842 259.815 172.438 260.54 171.922C260.637 171.852 260.679 171.755 260.679 171.685C260.679 171.602 260.679 169.637 260.679 169.637C260.679 169.47 260.554 169.345 260.387 169.345C259.983 169.345 259.495 170.612 258.157 170.612Z" fill="black"/>
<path d="M272.02 165.498C271.727 165.498 270.905 165.581 270.905 166.264C270.905 166.891 271.574 166.988 271.936 167.072C274.82 167.768 274.583 169.649 274.583 170.416C274.583 171.196 274.026 172.84 271.421 172.84C270.056 172.84 269.038 172.227 269.038 172.227C268.941 172.171 268.885 172.073 268.885 171.976V170.248C268.885 170.053 269.136 169.803 269.401 170.053C269.401 170.053 269.93 170.708 271.226 170.903C271.909 171.001 272.605 170.736 272.605 170.193C272.605 169.719 272.382 169.371 271.658 169.273C271.087 169.203 268.927 169.134 268.927 166.473C268.927 164.021 271.073 163.645 272.034 163.645C273.121 163.645 273.957 164.062 274.138 164.16C274.263 164.23 274.333 164.313 274.333 164.439V165.971C274.333 166.25 274.054 166.32 273.859 166.222C273.65 166.097 273.079 165.498 272.02 165.498Z" fill="black"/>
<path d="M275.392 165.385C275.392 165.552 275.517 165.677 275.684 165.677H276.2V170.219C276.2 172.602 277.69 172.838 278.457 172.838C278.93 172.838 279.293 172.755 279.766 172.657C279.892 172.629 279.975 172.504 279.975 172.379V171.083C279.975 170.916 279.808 170.749 279.599 170.804C279.46 170.832 279 170.972 278.554 170.79C278.192 170.651 278.15 170.163 278.15 169.941C278.15 169.718 278.15 165.663 278.15 165.663H279.683C279.836 165.663 279.961 165.538 279.975 165.385V164.061C279.975 163.894 279.836 163.769 279.683 163.769H278.164V161.08C278.164 160.912 278.025 160.787 277.871 160.787L276.464 160.954C276.325 160.968 276.214 161.094 276.2 161.233V163.755H275.684C275.517 163.769 275.392 163.894 275.392 164.047V165.385Z" fill="black"/>
<path d="M309.623 170.61C309.623 170.61 306.53 170.61 306.516 170.61C306.488 170.61 306.237 170.596 306.223 170.331C306.223 170.067 306.223 161.15 306.223 161.15C306.223 160.955 306.084 160.788 305.903 160.816L304.454 160.983C304.273 160.997 304.147 161.122 304.147 161.289C304.147 161.289 304.147 172.532 304.147 172.546C304.147 172.714 304.273 172.853 304.44 172.853H309.637C309.832 172.853 309.971 172.714 309.971 172.519V170.958C309.971 170.721 309.887 170.61 309.623 170.61Z" fill="black"/>
<path d="M328.445 161.191C328.445 161.037 328.334 160.912 328.166 160.912H326.244C326.104 160.912 325.993 161.01 325.965 161.121L324.363 166.582C324.335 166.652 324.293 166.708 324.21 166.708C324.126 166.708 324.084 166.652 324.056 166.582L322.454 161.121C322.412 160.996 322.301 160.912 322.176 160.912H320.253C320.086 160.912 319.96 161.037 319.96 161.191C319.96 161.191 319.96 172.518 319.96 172.532C319.96 172.699 320.1 172.852 320.267 172.852H321.59C321.813 172.852 321.939 172.727 321.939 172.518V165.078L323.374 169.926C323.416 170.038 323.471 170.093 323.611 170.093H324.767C324.906 170.093 325.004 170.052 325.032 169.926L326.467 165.078V172.559C326.467 172.713 326.578 172.838 326.745 172.838H328.139C328.306 172.838 328.431 172.713 328.431 172.532L328.445 161.191Z" fill="black"/>
<path d="M302.002 167.781C302.002 167.614 301.877 167.488 301.709 167.488H299.299C299.132 167.488 299.007 167.586 299.007 167.781V169.439C299.007 169.606 299.104 169.717 299.313 169.717H301.723C301.904 169.717 302.016 169.606 302.016 169.425C302.002 169.425 302.002 167.781 302.002 167.781Z" fill="black"/>
<path d="M286.119 172.838C286.3 172.838 286.412 172.712 286.412 172.559V161.093C286.412 160.926 286.287 160.772 286.119 160.8L284.754 160.953C284.559 160.981 284.461 161.093 284.461 161.246V172.531C284.461 172.712 284.587 172.838 284.754 172.838H286.119Z" fill="black"/>
<path d="M289.351 172.838C289.533 172.838 289.644 172.712 289.644 172.559V161.093C289.644 160.926 289.519 160.772 289.351 160.8L287.986 160.953C287.791 160.981 287.694 161.093 287.694 161.246V172.531C287.694 172.712 287.819 172.838 287.986 172.838H289.351Z" fill="black"/>
<path d="M282.901 162.778C283.054 162.778 283.18 162.653 283.193 162.5V161.092C283.193 160.925 283.068 160.786 282.901 160.8L281.536 160.953C281.368 160.967 281.243 161.092 281.243 161.246V162.472C281.243 162.639 281.368 162.778 281.536 162.778H282.901Z" fill="black"/>
<path d="M281.243 172.533C281.243 172.728 281.368 172.839 281.536 172.839H282.915C283.096 172.839 283.207 172.728 283.207 172.547L283.193 164.076C283.193 163.909 283.082 163.783 282.915 163.783H281.536C281.341 163.783 281.243 163.909 281.243 164.076V172.533Z" fill="black"/>
<path d="M265.611 166.974C265.848 166.946 265.876 166.737 265.876 166.654C265.876 165.832 265.026 165.651 264.274 165.651C263.452 165.651 262.825 166.166 262.588 166.166C262.421 166.166 262.295 166.027 262.295 165.874V164.466C262.295 164.216 262.393 164.146 262.532 164.104C262.713 164.048 263.647 163.756 264.678 163.756C267.784 163.756 267.784 165.72 267.784 166.751C267.784 166.751 267.784 172.338 267.784 172.352C267.771 172.505 267.659 172.617 267.506 172.631L266.336 172.7C266.28 172.7 265.862 172.742 265.806 172.213C265.806 172.143 265.458 172.854 263.828 172.854C263.131 172.854 261.766 172.227 261.766 170.151C261.78 167.225 264.092 167.127 265.611 166.974ZM265.876 168.883C265.876 168.716 265.723 168.576 265.555 168.604C265.541 168.604 264.914 168.674 264.343 168.869C264.148 168.939 263.995 169.078 263.897 169.245C263.702 169.579 263.716 170.081 263.772 170.332C263.828 170.583 264.092 171.015 264.761 170.959C264.956 170.945 265.876 170.694 265.876 170.234V168.883V168.883Z" fill="black"/>
<path d="M294.562 166.974C294.785 166.946 294.827 166.737 294.827 166.654C294.827 165.832 293.977 165.651 293.225 165.651C292.403 165.651 291.762 166.166 291.539 166.166C291.372 166.166 291.246 166.027 291.246 165.874V164.466C291.246 164.216 291.344 164.146 291.483 164.104C291.664 164.048 292.598 163.756 293.629 163.756C296.736 163.756 296.736 165.72 296.736 166.751C296.736 166.751 296.736 172.338 296.736 172.352C296.722 172.505 296.61 172.617 296.457 172.631L295.287 172.7C295.231 172.7 294.813 172.742 294.757 172.213C294.757 172.143 294.409 172.854 292.779 172.854C292.082 172.854 290.717 172.227 290.717 170.151C290.731 167.225 293.044 167.127 294.562 166.974ZM294.827 168.883C294.827 168.716 294.674 168.576 294.506 168.604C294.493 168.604 293.866 168.674 293.294 168.869C293.099 168.939 292.946 169.078 292.849 169.245C292.653 169.579 292.667 170.081 292.723 170.332C292.779 170.583 293.044 171.015 293.712 170.959C293.907 170.945 294.827 170.694 294.827 170.234V168.883Z" fill="black"/>
<path d="M314.666 166.974C314.889 166.946 314.931 166.737 314.931 166.654C314.931 165.832 314.081 165.651 313.343 165.651C312.521 165.651 311.88 166.166 311.657 166.166C311.49 166.166 311.364 166.027 311.364 165.874V164.466C311.364 164.216 311.462 164.146 311.601 164.104C311.782 164.048 312.716 163.756 313.747 163.756C316.854 163.756 316.854 165.72 316.854 166.751C316.854 166.751 316.854 172.338 316.854 172.352C316.84 172.505 316.728 172.617 316.575 172.631L315.405 172.7C315.349 172.7 314.931 172.742 314.875 172.213C314.875 172.143 314.527 172.854 312.897 172.854C312.2 172.854 310.835 172.227 310.835 170.151C310.835 167.225 313.148 167.127 314.666 166.974ZM314.931 168.883C314.931 168.716 314.778 168.576 314.611 168.604C314.597 168.604 313.97 168.674 313.385 168.869C313.19 168.939 313.036 169.078 312.939 169.245C312.744 169.579 312.758 170.081 312.813 170.332C312.869 170.583 313.134 171.015 313.803 170.959C313.998 170.945 314.903 170.694 314.903 170.234L314.931 168.883Z" fill="black"/>
<path d="M333.377 166.974C333.614 166.946 333.642 166.737 333.642 166.654C333.642 165.832 332.792 165.651 332.054 165.651C331.232 165.651 330.605 166.166 330.368 166.166C330.201 166.166 330.075 166.027 330.075 165.874V164.466C330.075 164.216 330.173 164.146 330.312 164.104C330.493 164.048 331.427 163.756 332.458 163.756C335.564 163.756 335.564 165.72 335.564 166.751C335.564 166.751 335.564 172.338 335.564 172.352C335.551 172.505 335.439 172.617 335.286 172.631L334.116 172.7C334.06 172.7 333.628 172.742 333.586 172.213C333.586 172.143 333.238 172.854 331.608 172.854C330.911 172.854 329.546 172.227 329.546 170.151C329.546 167.225 331.859 167.127 333.377 166.974ZM333.642 168.883C333.642 168.716 333.489 168.576 333.321 168.604C333.307 168.604 332.681 168.674 332.095 168.869C331.9 168.939 331.747 169.078 331.65 169.245C331.454 169.579 331.468 170.081 331.524 170.332C331.58 170.583 331.845 171.015 332.513 170.959C332.708 170.945 333.628 170.694 333.628 170.234V168.883H333.642Z" fill="black"/>
<path d="M361.813 166.974C362.036 166.946 362.077 166.737 362.077 166.654C362.077 165.832 361.227 165.651 360.489 165.651C359.667 165.651 359.04 166.166 358.803 166.166C358.636 166.166 358.511 166.027 358.511 165.874V164.466C358.511 164.216 358.608 164.146 358.748 164.104C358.929 164.048 359.862 163.756 360.893 163.756C364.014 163.756 364 165.72 364 166.751C364 166.751 364 172.338 364 172.352C363.986 172.505 363.875 172.617 363.721 172.631L362.551 172.7C362.495 172.7 362.077 172.742 362.022 172.213C362.022 172.143 361.673 172.854 360.043 172.854C359.347 172.854 357.981 172.227 357.981 170.151C357.981 167.225 360.308 167.127 361.813 166.974ZM362.091 168.883C362.091 168.716 361.938 168.576 361.771 168.604C361.757 168.604 361.13 168.674 360.545 168.869C360.35 168.939 360.197 169.078 360.099 169.245C359.904 169.579 359.918 170.081 359.974 170.332C360.029 170.583 360.294 171.015 360.963 170.959C361.158 170.945 362.063 170.694 362.063 170.234L362.091 168.883Z" fill="black"/>
<path d="M350.848 172.756C350.764 172.672 350.764 172.602 350.764 172.561C350.764 172.519 350.764 161.317 350.764 161.317C350.764 161.317 350.751 161.22 350.834 161.136C350.932 161.039 351.085 161.039 351.085 161.039C351.085 161.039 352.325 160.899 352.436 160.899C352.436 160.899 352.534 160.885 352.631 160.969C352.715 161.039 352.715 161.136 352.715 161.136V164.856C353.161 164.076 353.788 163.672 354.693 163.672C356.17 163.672 356.881 164.48 356.881 166.291C356.881 166.291 356.881 172.435 356.881 172.561C356.881 172.672 356.881 172.728 356.797 172.797C356.686 172.881 356.574 172.881 356.574 172.881H355.181C355.181 172.881 355.056 172.881 354.972 172.797C354.902 172.714 354.902 172.658 354.902 172.602C354.902 172.547 354.902 167.42 354.902 167.42C354.902 166.5 354.61 166.138 353.899 166.138C353.091 166.138 352.715 166.639 352.715 167.656C352.715 167.656 352.715 172.588 352.715 172.644C352.715 172.686 352.715 172.742 352.631 172.811C352.562 172.881 352.45 172.881 352.45 172.881C352.45 172.881 351.099 172.881 351.071 172.881C351.043 172.839 350.932 172.839 350.848 172.756Z" fill="black"/>
<path d="M336.888 172.753C336.804 172.669 336.804 172.572 336.804 172.572V164.073C336.804 164.073 336.791 163.976 336.874 163.892C336.972 163.794 337.125 163.794 337.125 163.794C337.125 163.794 338.365 163.655 338.476 163.655C338.476 163.655 338.574 163.641 338.671 163.725C338.755 163.794 338.755 163.892 338.755 163.892V164.839C339.201 164.059 339.828 163.655 340.733 163.655C342.21 163.655 342.921 164.463 342.921 166.274V172.586C342.921 172.614 342.921 172.711 342.837 172.767C342.726 172.85 342.614 172.85 342.614 172.85H341.221C341.221 172.85 341.096 172.85 341.012 172.767C340.942 172.683 340.942 172.614 340.942 172.572C340.942 172.53 340.942 167.389 340.942 167.389C340.942 166.469 340.65 166.107 339.939 166.107C339.131 166.107 338.755 166.609 338.755 167.626C338.755 167.626 338.755 172.46 338.755 172.544C338.755 172.641 338.755 172.697 338.671 172.767C338.602 172.836 338.49 172.836 338.49 172.836H337.083C337.083 172.836 336.972 172.836 336.888 172.753Z" fill="black"/>
<path d="M347.56 163.713C346.459 163.713 344.021 164.354 344.021 168.311C344.021 172.407 346.696 172.838 347.616 172.838C348.758 172.838 349.511 172.267 349.525 172.267C349.65 172.184 349.678 172.086 349.678 171.821V170.345C349.678 169.954 349.357 169.954 349.134 170.219C348.939 170.442 348.661 170.874 347.672 170.874C347.142 170.874 346.028 170.623 346.028 168.338C346.028 166.012 347.114 165.719 347.644 165.719C348.563 165.719 349.037 166.318 349.176 166.527C349.316 166.736 349.678 166.597 349.678 166.374C349.678 166.374 349.678 164.688 349.678 164.674C349.692 164.145 348.772 163.713 347.56 163.713Z" fill="black"/>
<path d="M320.156 121.861H297.53C296.22 121.861 295.161 122.906 295.161 124.16V146.41C295.161 149.266 296.708 151.551 299.606 153.014C301.932 154.17 305.123 154.783 308.843 154.783C312.563 154.783 315.753 154.17 318.08 153.014C320.991 151.565 322.524 149.28 322.524 146.41V124.174C322.524 122.906 321.465 121.861 320.156 121.861ZM306.391 141.241C306.391 141.575 306.126 141.854 305.805 141.868C305.792 141.868 305.764 141.868 305.764 141.868H303.284V139.597C303.284 138.942 302.754 138.413 302.099 138.413C301.445 138.413 300.915 138.942 300.915 139.597V139.625V141.854H298.449C298.435 141.854 298.407 141.854 298.394 141.854C298.073 141.826 297.822 141.547 297.822 141.227C297.822 141.185 297.822 141.116 297.822 141.116L298.394 134.86V133.035H300.191V134.818H301.208V131.252H303.005V134.818H304.008V133.035H305.805V134.832L306.391 141.116C306.391 141.116 306.391 141.199 306.391 141.241ZM320.81 145.63C320.81 152.846 310.25 153.014 310.236 153C309.079 153.041 309.149 151.732 309.149 151.732V124.899C309.149 124.174 309.651 123.589 310.292 123.589H319.654C320.239 123.589 320.741 124.09 320.81 124.731V125.832V145.63Z" fill="black"/>
<path d="M317.355 109.615C316.394 109.615 315.53 109.977 314.861 110.548C314.137 109.782 313.106 109.322 311.963 109.322C310.723 109.322 309.581 109.893 308.857 110.771C308.104 109.88 306.99 109.322 305.736 109.322C304.593 109.322 303.562 109.782 302.824 110.548C302.169 109.963 301.291 109.615 300.344 109.615C298.268 109.615 296.596 111.287 296.596 113.363C296.596 114.212 296.903 114.993 297.376 115.634C297.613 115.954 297.92 116.191 298.324 116.205C298.881 116.219 299.55 115.634 299.215 114.909C299.104 114.686 298.589 114.143 298.616 113.377C298.644 112.401 299.369 111.607 300.344 111.607C300.957 111.607 301.542 111.942 301.863 112.415C301.793 112.722 301.737 113.042 301.737 113.377C301.737 114.24 302.016 114.895 302.016 114.895C302.211 115.397 302.559 115.759 303.116 115.745C303.757 115.745 304.259 115.257 304.259 114.603C304.259 114.421 304.147 114.101 304.106 113.99C304.022 113.794 303.98 113.572 303.98 113.349C303.98 112.373 304.774 111.593 305.736 111.593C306.697 111.593 307.505 112.387 307.505 113.349C307.505 113.349 307.505 114.714 307.505 114.728C307.505 115.48 308.118 116.079 308.857 116.093C309.609 116.093 310.208 115.48 310.208 114.742C310.208 114.728 310.222 113.363 310.222 113.363C310.222 112.387 311.002 111.607 311.977 111.607C312.953 111.607 313.747 112.387 313.747 113.363C313.747 113.586 313.705 113.794 313.621 114.003C313.58 114.115 313.482 114.449 313.468 114.616C313.454 115.257 313.956 115.745 314.611 115.759C315.154 115.759 315.516 115.397 315.711 114.909C315.711 114.909 315.99 114.254 315.99 113.39C315.99 113.056 315.948 112.736 315.864 112.429C316.185 111.955 316.77 111.621 317.383 111.621C318.358 111.621 319.111 112.429 319.125 113.39C319.125 114.157 318.623 114.7 318.525 114.923C318.177 115.647 318.846 116.219 319.403 116.219C319.821 116.205 320.128 115.982 320.351 115.647C320.838 115.021 321.145 114.226 321.145 113.377C321.117 111.301 319.431 109.615 317.355 109.615Z" fill="black"/>
<path d="M312.59 118.894C312.59 119.577 313.134 120.134 313.83 120.134C314.513 120.134 315.07 119.577 315.07 118.894C315.07 118.212 314.513 117.654 313.83 117.654C313.148 117.654 312.59 118.212 312.59 118.894Z" fill="black"/>
<path d="M302.643 118.894C302.643 119.577 303.2 120.134 303.883 120.134C304.565 120.134 305.123 119.577 305.123 118.894C305.123 118.212 304.565 117.654 303.883 117.654C303.2 117.654 302.643 118.212 302.643 118.894Z" fill="black"/>
<path d="M317.55 118.894C317.55 119.577 318.108 120.134 318.79 120.134C319.473 120.134 320.03 119.577 320.03 118.894C320.03 118.212 319.473 117.654 318.79 117.654C318.108 117.654 317.55 118.212 317.55 118.894Z" fill="black"/>
<path d="M307.603 118.896C307.603 119.579 308.16 120.136 308.843 120.136C309.525 120.136 310.083 119.579 310.083 118.896C310.083 118.214 309.525 117.656 308.843 117.656C308.16 117.656 307.603 118.214 307.603 118.896Z" fill="black"/>
<path d="M297.655 118.896C297.655 119.579 298.212 120.136 298.895 120.136C299.578 120.136 300.135 119.579 300.135 118.896C300.135 118.214 299.578 117.656 298.895 117.656C298.198 117.656 297.655 118.214 297.655 118.896Z" fill="black"/>
<path d="M310.528 105.686H309.4V104.557C309.4 104.251 309.149 104 308.843 104C308.536 104 308.285 104.251 308.285 104.557V105.686H307.171C306.864 105.686 306.6 105.937 306.6 106.243C306.6 106.55 306.864 106.8 307.171 106.8H308.285V107.915C308.285 108.221 308.536 108.486 308.843 108.486C309.149 108.486 309.4 108.221 309.4 107.915V106.8H310.528C310.835 106.8 311.086 106.55 311.086 106.243C311.086 105.937 310.835 105.686 310.528 105.686Z" fill="black"/>
</svg>
