<svg width="270" height="49" viewBox="0 0 270 49" fill="none" xmlns="http://www.w3.org/2000/svg">
<g clip-path="url(#clip0)">
<path fill-rule="evenodd" clip-rule="evenodd" d="M180.32 36.5165V42.8514C179.749 43.192 179.061 43.4543 178.253 43.6382C177.445 43.8221 176.62 43.9141 175.779 43.9141C174.611 43.9141 173.556 43.7302 172.613 43.3623C171.669 42.9945 170.865 42.4904 170.2 41.8501C169.534 41.2098 169.025 40.4469 168.672 39.5614C168.32 38.6758 168.143 37.7086 168.143 36.6596C168.143 35.4743 168.353 34.3947 168.774 33.4206C169.195 32.4465 169.762 31.6087 170.475 30.9071C171.187 30.2054 172.015 29.6605 172.959 29.2722C173.902 28.884 174.896 28.6898 175.942 28.6898C176.295 28.6898 176.665 28.7137 177.051 28.7614C177.438 28.809 177.822 28.8806 178.202 28.9759C178.582 29.0713 178.949 29.1837 179.301 29.3131C179.654 29.4425 179.973 29.5958 180.258 29.7729L179.037 31.8164C178.847 31.6938 178.619 31.5882 178.355 31.4997C178.09 31.4111 177.815 31.3328 177.53 31.2647C177.245 31.1966 176.963 31.1455 176.685 31.1114C176.407 31.0774 176.145 31.0603 175.901 31.0603C175.209 31.0603 174.547 31.2 173.916 31.4792C173.284 31.7585 172.725 32.1366 172.236 32.6134C171.747 33.0902 171.357 33.659 171.065 34.3197C170.773 34.9805 170.627 35.6855 170.627 36.4348C170.627 37.116 170.756 37.7631 171.014 38.3761C171.272 38.9892 171.632 39.5307 172.093 40.0007C172.555 40.4707 173.105 40.8454 173.743 41.1247C174.381 41.404 175.08 41.5436 175.84 41.5436C176.111 41.5436 176.451 41.5198 176.858 41.4721C177.265 41.4244 177.652 41.3392 178.019 41.2166V38.6827H175.249V36.5165H180.32ZM188.709 43.9141C187.908 43.9141 187.158 43.7813 186.459 43.5156C185.76 43.2499 185.152 42.8787 184.636 42.4019C184.12 41.925 183.713 41.3495 183.415 40.6751C183.116 40.0007 182.967 39.2549 182.967 38.4374V28.8533H185.451V38.3761C185.451 38.8121 185.536 39.2208 185.705 39.6022C185.875 39.9837 186.106 40.3175 186.398 40.6036C186.689 40.8897 187.032 41.1179 187.426 41.2882C187.82 41.4584 188.247 41.5436 188.709 41.5436C189.17 41.5436 189.601 41.4584 190.002 41.2882C190.402 41.1179 190.752 40.8897 191.05 40.6036C191.349 40.3175 191.583 39.9837 191.753 39.6022C191.923 39.2208 192.007 38.8121 192.007 38.3761V28.8533H194.492V38.4374C194.492 39.2549 194.342 40.0007 194.044 40.6751C193.745 41.3495 193.334 41.925 192.812 42.4019C192.289 42.8787 191.675 43.2499 190.969 43.5156C190.263 43.7813 189.51 43.9141 188.709 43.9141ZM197.77 43.7506V28.8533H207.625V31.1216H200.254V35.1269H206.811V37.4565H200.254V41.421H207.91V43.7506H197.77ZM210.374 43.7506V28.8533H214.568C215.383 28.8533 216.126 28.9623 216.798 29.1803C217.47 29.3983 218.04 29.7116 218.509 30.1203C218.977 30.529 219.34 31.0331 219.598 31.6325C219.856 32.2319 219.985 32.9063 219.985 33.6556C219.985 34.0643 219.944 34.473 219.863 34.8817C219.781 35.2904 219.652 35.6855 219.476 36.067C219.299 36.4484 219.068 36.7992 218.783 37.1194C218.498 37.4395 218.159 37.7154 217.765 37.947C218.064 38.4238 218.356 38.8904 218.641 39.3468C218.926 39.8032 219.214 40.263 219.506 40.7262C219.798 41.1894 220.1 41.6662 220.412 42.1567C220.725 42.6471 221.064 43.1784 221.43 43.7506H218.437C217.826 42.7969 217.249 41.8944 216.706 41.0429C216.163 40.1915 215.641 39.3843 215.139 38.6214H212.858V43.7506H210.374ZM212.858 36.2713H214.854C215.369 36.2713 215.797 36.1828 216.136 36.0056C216.476 35.8285 216.747 35.614 216.951 35.3619C217.154 35.1099 217.297 34.8374 217.378 34.5445C217.46 34.2516 217.501 33.9826 217.501 33.7373C217.501 33.5057 217.463 33.2435 217.389 32.9506C217.314 32.6577 217.178 32.3818 216.981 32.123C216.785 31.8641 216.516 31.6461 216.177 31.469C215.838 31.2919 215.403 31.2034 214.874 31.2034H212.858V36.2713ZM236.437 28.8533V44.4454C236.342 44.3228 236.132 44.098 235.806 43.771C235.48 43.4441 235.08 43.0524 234.605 42.596C234.13 42.1396 233.604 41.6356 233.027 41.0838C232.45 40.532 231.863 39.9735 231.265 39.4081C230.668 38.8427 230.084 38.2876 229.514 37.7426C228.944 37.1977 228.425 36.697 227.956 36.2407C227.488 35.7843 227.094 35.396 226.775 35.0758C226.456 34.7557 226.249 34.5343 226.154 34.4117C226.141 34.3845 226.087 34.3129 225.992 34.1971C225.897 34.0813 225.815 33.9757 225.747 33.8804L225.808 34.5343V43.7506H223.324V28.179C223.419 28.3016 223.63 28.5229 223.955 28.8431C224.281 29.1633 224.682 29.5481 225.157 29.9977C225.632 30.4473 226.158 30.9377 226.735 31.469C227.312 32.0003 227.899 32.5419 228.496 33.0936C229.093 33.6454 229.677 34.1903 230.247 34.7284C230.817 35.2666 231.34 35.757 231.815 36.1998C232.29 36.6425 232.687 37.0206 233.006 37.3339C233.325 37.6473 233.532 37.8653 233.627 37.9879L234.014 38.5601L233.953 37.8653V28.8533H236.437ZM239.858 28.8533H242.363V43.7506H239.858V28.8533ZM256.962 42.6471C256.799 42.7561 256.572 42.8855 256.28 43.0354C255.988 43.1852 255.642 43.3249 255.242 43.4543C254.841 43.5837 254.39 43.6927 253.888 43.7813C253.385 43.8698 252.849 43.9141 252.279 43.9141C251.111 43.9141 250.066 43.7131 249.143 43.3112C248.22 42.9093 247.44 42.3678 246.802 41.6866C246.164 41.0055 245.675 40.2085 245.335 39.2957C244.996 38.3829 244.826 37.4225 244.826 36.4144C244.826 35.2972 245.03 34.2653 245.437 33.3184C245.845 32.3716 246.398 31.5542 247.097 30.8662C247.796 30.1782 248.61 29.6435 249.54 29.262C250.47 28.8806 251.464 28.6898 252.523 28.6898C252.93 28.6898 253.341 28.7205 253.755 28.7818C254.169 28.8431 254.559 28.9214 254.926 29.0168C255.293 29.1122 255.615 29.2212 255.893 29.3438C256.171 29.4664 256.372 29.5958 256.494 29.732C256.372 29.9228 256.277 30.0794 256.209 30.202C256.141 30.3247 256.07 30.4507 255.995 30.5801C255.92 30.7095 255.839 30.856 255.751 31.0195C255.662 31.1829 255.537 31.4077 255.374 31.6938C255.211 31.5848 255.014 31.4895 254.783 31.4077C254.553 31.326 254.312 31.2613 254.061 31.2136C253.809 31.1659 253.555 31.1284 253.297 31.1012C253.039 31.0739 252.808 31.0603 252.605 31.0603C251.845 31.0603 251.142 31.2034 250.497 31.4895C249.852 31.7756 249.296 32.1536 248.828 32.6236C248.359 33.0936 247.993 33.642 247.728 34.2687C247.463 34.8953 247.331 35.5424 247.331 36.21C247.331 36.8639 247.457 37.5008 247.708 38.1207C247.959 38.7406 248.312 39.2889 248.766 39.7657C249.221 40.2426 249.761 40.6274 250.385 40.9203C251.01 41.2132 251.702 41.3597 252.462 41.3597C252.897 41.3597 253.317 41.3154 253.725 41.2268C254.132 41.1383 254.492 41.0395 254.804 40.9305C255.116 40.8216 255.371 40.7126 255.567 40.6036C255.764 40.4946 255.869 40.4197 255.883 40.3788L256.962 42.6471ZM267.937 43.7506C267.897 43.6552 267.825 43.4849 267.724 43.2397C267.622 42.9945 267.496 42.6948 267.347 42.3406C267.197 41.9864 267.035 41.5947 266.858 41.1655C266.682 40.7364 266.498 40.2902 266.308 39.827H261.197L259.569 43.7506H257.105C257.159 43.628 257.288 43.3249 257.492 42.8412C257.695 42.3576 257.95 41.7582 258.255 41.0429C258.561 40.3277 258.9 39.5307 259.273 38.652C259.647 37.7733 260.03 36.8776 260.424 35.9648C260.817 35.052 261.201 34.1563 261.574 33.2775C261.947 32.3988 262.287 31.6019 262.592 30.8866C262.898 30.1714 263.152 29.572 263.356 29.0883C263.559 28.6047 263.688 28.3016 263.743 28.179C263.797 28.3016 263.929 28.6047 264.14 29.0883C264.35 29.572 264.608 30.1714 264.914 30.8866C265.219 31.6019 265.558 32.3988 265.932 33.2775C266.305 34.1563 266.688 35.052 267.082 35.9648C267.476 36.8776 267.859 37.7733 268.233 38.652C268.606 39.5307 268.945 40.3277 269.251 41.0429C269.556 41.7582 269.811 42.3576 270.014 42.8412C270.218 43.3249 270.347 43.628 270.401 43.7506H267.937ZM262.053 37.7222H265.433L263.967 34.1665C263.953 34.1529 263.919 34.0609 263.865 33.8906C263.811 33.7203 263.77 33.567 263.743 33.4308C263.716 33.567 263.675 33.7203 263.621 33.8906C263.566 34.0609 263.539 34.1529 263.539 34.1665L262.053 37.7222Z" fill="white"/>
<path fill-rule="evenodd" clip-rule="evenodd" d="M168.62 20.7609V9.98602H171.552C172.114 9.98602 172.63 10.0603 173.099 10.2089C173.568 10.3576 173.973 10.578 174.314 10.8703C174.654 11.1626 174.918 11.5193 175.106 11.9404C175.293 12.3615 175.387 12.8445 175.387 13.3894C175.387 13.6867 175.358 13.9814 175.298 14.2737C175.239 14.566 175.143 14.8484 175.01 15.1208C174.876 15.3933 174.706 15.646 174.499 15.8788C174.291 16.1116 174.04 16.3073 173.743 16.4658C174.138 17.09 174.568 17.7811 175.032 18.5391C175.496 19.297 175.965 20.0377 176.439 20.7609H174.499C174.301 20.4538 174.096 20.1318 173.884 19.7949C173.672 19.458 173.46 19.1237 173.247 18.7917C173.035 18.4598 172.828 18.1329 172.625 17.8108C172.423 17.4888 172.233 17.1891 172.055 16.9117H170.249V20.7609H168.62ZM170.249 15.3809H171.715C172.11 15.3809 172.44 15.314 172.707 15.1803C172.973 15.0465 173.183 14.8806 173.336 14.6824C173.489 14.4842 173.598 14.2712 173.662 14.0433C173.726 13.8155 173.758 13.6074 173.758 13.4191C173.758 13.2309 173.726 13.0253 173.662 12.8024C173.598 12.5794 173.487 12.3714 173.329 12.1782C173.171 11.985 172.961 11.824 172.699 11.6951C172.438 11.5663 172.114 11.5019 171.729 11.5019H170.249V15.3809ZM177.92 20.7609V9.98602H184.968V11.4574H179.548V14.6081H184.376V16.1092H179.548V19.2599H185.176V20.7609H177.92ZM188.685 15.3809H190.152C190.546 15.3809 190.877 15.3116 191.144 15.1728C191.41 15.0341 191.62 14.8657 191.773 14.6675C191.926 14.4694 192.035 14.2564 192.099 14.0285C192.163 13.8006 192.195 13.5975 192.195 13.4191C192.195 13.2309 192.163 13.0253 192.099 12.8024C192.035 12.5794 191.924 12.3714 191.766 12.1782C191.608 11.985 191.398 11.824 191.136 11.6951C190.875 11.5663 190.551 11.5019 190.166 11.5019H188.685V15.3809ZM187.057 20.7609V9.98602H189.989C190.551 9.98602 191.067 10.0603 191.536 10.2089C192.005 10.3576 192.41 10.578 192.75 10.8703C193.091 11.1626 193.355 11.5193 193.543 11.9404C193.73 12.3615 193.824 12.8445 193.824 13.3894C193.824 13.8155 193.76 14.239 193.632 14.6601C193.503 15.0812 193.296 15.4577 193.01 15.7896C192.723 16.1215 192.348 16.3915 191.884 16.5996C191.42 16.8077 190.857 16.9117 190.196 16.9117H188.685V20.7609H187.057ZM195.601 20.7609V9.98602H202.65V11.4574H197.23V14.6081H202.058V16.1092H197.23V19.2599H202.857V20.7609H195.601ZM214.156 9.98602V21.2514C214.018 21.073 213.752 20.7857 213.357 20.3894L211.994 19.0221C211.481 18.5069 210.936 17.9669 210.358 17.4021C209.781 16.8374 209.235 16.2999 208.722 15.7896C208.208 15.2794 207.759 14.8236 207.374 14.4223C206.989 14.021 206.732 13.7362 206.604 13.5678L206.323 13.1813L206.367 13.6569V20.7609H204.738V9.48071C204.847 9.61943 205.027 9.81758 205.279 10.0752C205.53 10.3328 205.827 10.6325 206.167 10.9743C206.508 11.3162 206.883 11.6852 207.293 12.0816C207.702 12.4779 208.117 12.8791 208.537 13.2854C208.956 13.6916 209.371 14.0904 209.781 14.4818C210.19 14.8731 210.565 15.2372 210.906 15.5741C211.247 15.911 211.54 16.2082 211.787 16.4658C212.034 16.7234 212.207 16.9167 212.305 17.0455L212.587 17.4616L212.542 16.9563V9.98602H214.156ZM222.938 10.5805L222.361 11.9032C221.956 11.7546 221.553 11.6357 221.154 11.5465C220.754 11.4574 220.371 11.4128 220.006 11.4128C219.384 11.4128 218.888 11.5416 218.518 11.7992C218.147 12.0568 217.962 12.3837 217.962 12.7801C217.962 13.1169 218.096 13.3869 218.362 13.59C218.629 13.7932 218.959 13.9765 219.354 14.1399C219.749 14.3034 220.179 14.4669 220.643 14.6304C221.107 14.7939 221.536 15.0044 221.931 15.262C222.326 15.5196 222.657 15.8441 222.923 16.2355C223.19 16.6268 223.323 17.1297 223.323 17.744C223.323 18.2196 223.237 18.6481 223.064 19.0295C222.891 19.411 222.635 19.7404 222.294 20.0178C221.953 20.2953 221.529 20.5083 221.02 20.6569C220.512 20.8055 219.917 20.8798 219.236 20.8798C218.801 20.8798 218.409 20.8501 218.059 20.7907C217.708 20.7312 217.392 20.6544 217.111 20.5603C216.829 20.4662 216.583 20.3646 216.37 20.2556C216.158 20.1467 215.978 20.0476 215.83 19.9584L216.541 18.5465C216.936 18.7744 217.375 18.9577 217.859 19.0964C218.342 19.2351 218.782 19.3045 219.177 19.3045C219.374 19.3045 219.618 19.2797 219.91 19.2302C220.201 19.1806 220.48 19.0939 220.746 18.9701C221.013 18.8462 221.242 18.6803 221.435 18.4722C221.628 18.2641 221.724 18.0016 221.724 17.6845C221.724 17.3972 221.647 17.152 221.494 16.9489C221.341 16.7457 221.139 16.5674 220.887 16.4138C220.635 16.2602 220.349 16.1215 220.028 15.9977C219.707 15.8738 219.379 15.745 219.043 15.6113C218.708 15.4775 218.379 15.3363 218.059 15.1877C217.738 15.0391 217.451 14.8583 217.2 14.6452C216.948 14.4322 216.746 14.1845 216.593 13.9021C216.44 13.6198 216.363 13.2804 216.363 12.8841C216.363 12.5175 216.437 12.1559 216.585 11.7992C216.733 11.4425 216.955 11.1254 217.252 10.848C217.548 10.5706 217.915 10.3477 218.355 10.1792C218.794 10.0108 219.305 9.92657 219.887 9.92657C220.243 9.92657 220.591 9.9563 220.931 10.0157C221.272 10.0752 221.581 10.1421 221.857 10.2164C222.133 10.2907 222.368 10.3625 222.56 10.4319C222.753 10.5012 222.879 10.5508 222.938 10.5805ZM231.809 20.7609C231.759 20.652 231.69 20.4934 231.601 20.2854C231.512 20.0773 231.411 19.837 231.298 19.5646C231.184 19.2921 231.061 18.9949 230.927 18.6728C230.794 18.3508 230.658 18.0164 230.52 17.6697H226.729L225.456 20.7609H223.856L228.639 9.48071C228.699 9.61943 228.805 9.87208 228.958 10.2387C229.111 10.6053 229.293 11.0437 229.506 11.554C229.718 12.0642 229.955 12.629 230.217 13.2482C230.478 13.8675 230.745 14.4941 231.016 15.1283C231.288 15.7624 231.554 16.3866 231.816 17.0009C232.078 17.6152 232.317 18.1799 232.534 18.6951C232.751 19.2104 232.936 19.6488 233.089 20.0104C233.242 20.3721 233.349 20.6222 233.408 20.7609H231.809ZM227.292 16.3024H229.972C229.834 15.9754 229.703 15.6608 229.58 15.3586C229.456 15.0564 229.343 14.779 229.239 14.5264C229.136 14.2737 229.044 14.0532 228.965 13.865C228.886 13.6767 228.827 13.5281 228.788 13.4191C228.778 13.3993 228.755 13.33 228.721 13.2111C228.686 13.0922 228.659 12.9832 228.639 12.8841C228.62 12.9832 228.59 13.0922 228.551 13.2111C228.511 13.33 228.486 13.3993 228.477 13.4191L227.292 16.3024ZM234.741 20.7609V9.98602H237.673C238.236 9.98602 238.751 10.0603 239.22 10.2089C239.689 10.3576 240.094 10.578 240.435 10.8703C240.775 11.1626 241.039 11.5193 241.227 11.9404C241.414 12.3615 241.508 12.8445 241.508 13.3894C241.508 13.6867 241.479 13.9814 241.419 14.2737C241.36 14.566 241.264 14.8484 241.131 15.1208C240.997 15.3933 240.827 15.646 240.62 15.8788C240.412 16.1116 240.161 16.3073 239.864 16.4658C240.259 17.09 240.689 17.7811 241.153 18.5391C241.617 19.297 242.086 20.0377 242.56 20.7609H240.62C240.422 20.4538 240.217 20.1318 240.005 19.7949C239.793 19.458 239.581 19.1237 239.368 18.7917C239.156 18.4598 238.949 18.1329 238.746 17.8108C238.544 17.4888 238.354 17.1891 238.176 16.9117H236.37V20.7609H234.741ZM236.37 15.3809H237.836C238.231 15.3809 238.561 15.314 238.828 15.1803C239.094 15.0465 239.304 14.8806 239.457 14.6824C239.61 14.4842 239.719 14.2712 239.783 14.0433C239.847 13.8155 239.879 13.6074 239.879 13.4191C239.879 13.2309 239.847 13.0253 239.783 12.8024C239.719 12.5794 239.608 12.3714 239.45 12.1782C239.292 11.985 239.082 11.824 238.82 11.6951C238.559 11.5663 238.235 11.5019 237.85 11.5019H236.37V15.3809Z" fill="white"/>
<path fill-rule="evenodd" clip-rule="evenodd" d="M119.661 40.5033C119.661 38.5787 118.709 37.7371 116.721 37.102C115.872 36.8274 114.835 36.5858 114.835 35.9166C114.835 35.3673 115.174 35.1267 115.685 35.1267H115.973C116.551 35.1267 116.976 35.4355 117.281 36.0199C117.349 36.1572 117.502 36.1572 117.622 36.0715L119.388 34.8861C119.558 34.7829 119.49 34.6114 119.422 34.5082C119.208 34.1329 118.932 33.7961 118.607 33.5118C117.944 32.9274 117.044 32.602 115.94 32.602H115.685C113.357 32.602 111.946 33.8731 111.946 36.0024C111.946 37.9095 112.966 38.6654 114.784 39.3004C115.922 39.6959 116.772 39.7981 116.772 40.5715C116.772 41.0692 116.432 41.3615 115.905 41.3615H115.379C114.801 41.3615 114.376 41.0527 114.071 40.4683C114.003 40.3319 113.85 40.3319 113.73 40.4176L111.964 41.602C111.794 41.7053 111.862 41.8602 111.93 41.9624C112.117 42.2897 112.338 42.5819 112.609 42.8391C113.289 43.5092 114.24 43.8871 115.413 43.8871H115.939C118.335 43.8871 119.66 42.616 119.66 40.5033H119.661ZM142.131 43.4917V32.9673C142.131 32.83 142.012 32.7949 141.944 32.7949H139.448C139.362 32.7949 139.295 32.83 139.295 32.9673V43.4917C139.295 43.629 139.363 43.6641 139.448 43.6641H141.945C142.047 43.6641 142.132 43.629 142.132 43.4917H142.131ZM138.112 35.1725V32.9673C138.112 32.83 138.01 32.7959 137.942 32.7959H130.876C130.791 32.7959 130.723 32.83 130.723 32.9673V43.4917C130.723 43.629 130.791 43.6641 130.876 43.6641H133.389C133.474 43.6641 133.56 43.629 133.56 43.4917V39.616C133.56 39.4952 133.611 39.4261 133.764 39.4261H137.194C137.28 39.4261 137.365 39.392 137.365 39.2712V37.0494C137.365 36.9287 137.28 36.8936 137.194 36.8936H133.764C133.611 36.8936 133.559 36.8254 133.559 36.7046V35.5163C133.559 35.3965 133.611 35.3274 133.764 35.3274H137.942C138.044 35.3274 138.112 35.2933 138.112 35.1715V35.1725ZM152.617 43.44L149.063 32.9244C149.029 32.8212 148.978 32.8046 148.91 32.8046H147.055C146.953 32.8046 146.919 32.8377 146.886 32.9244L143.331 43.44C143.279 43.5774 143.347 43.6641 143.5 43.6641H146.12C146.205 43.6641 146.239 43.629 146.273 43.5433L146.732 42.2527C146.766 42.166 146.8 42.1319 146.936 42.1319H148.978C149.114 42.1319 149.165 42.166 149.199 42.2527L149.641 43.5433C149.674 43.629 149.692 43.6641 149.794 43.6641H152.465C152.652 43.6641 152.669 43.5774 152.618 43.44H152.617ZM148.621 39.9462C148.637 40.0319 148.586 40.1011 148.468 40.1011H147.481C147.345 40.1011 147.294 40.0329 147.31 39.9452L147.616 38.604C147.855 37.5891 147.974 36.4865 147.974 36.4865H148.024C148.024 36.4865 148.144 37.5891 148.348 38.604L148.621 39.9462ZM98.5915 43.4644V32.9692C98.5915 32.8319 98.4893 32.7968 98.4221 32.7968H96.0259C95.9237 32.7968 95.873 32.8319 95.873 32.9692V35.7511C95.873 37.2803 95.9578 38.6205 95.9578 38.6205H95.9071C95.9071 38.6205 95.7708 38.2416 95.5331 37.7955L93.0191 32.9517C92.9675 32.8485 92.8993 32.7968 92.798 32.7968H90.6396C90.5548 32.7968 90.4867 32.8319 90.4867 32.9692V43.4644C90.4867 43.6007 90.5548 43.6358 90.6396 43.6358H93.0863C93.1886 43.6358 93.2568 43.6017 93.2568 43.4644V40.7322C93.2568 39.3238 93.1545 37.967 93.1545 37.967H93.2227C93.2227 37.967 93.3591 38.3449 93.5792 38.7404L96.1117 43.4809C96.1613 43.5667 96.213 43.6358 96.2977 43.6358H98.4211C98.5234 43.6358 98.5915 43.6017 98.5915 43.4644V43.4644ZM88.8474 43.4644V32.9692C88.8474 32.8319 88.7285 32.7968 88.6604 32.7968H86.1629C86.0772 32.7968 86.01 32.8319 86.01 32.9692V43.4644C86.01 43.6007 86.0782 43.6358 86.1629 43.6358H88.6604C88.7626 43.6358 88.8474 43.6017 88.8474 43.4644V43.4644ZM129.372 40.6572V35.8309C129.372 33.8731 127.894 32.602 125.719 32.602H124.531C122.355 32.602 120.843 33.8897 120.843 35.8309V40.6572C120.843 42.5985 122.321 43.8871 124.53 43.8871H125.718C127.894 43.8871 129.372 42.5985 129.372 40.6572ZM126.552 40.6572C126.552 41.0692 126.246 41.3615 125.719 41.3615H124.531C123.936 41.3615 123.63 41.0868 123.63 40.6572V35.8309C123.63 35.4705 124.037 35.1101 124.53 35.1101H125.718C126.212 35.1101 126.552 35.4189 126.552 35.8309V40.6572ZM108.983 43.4128L105.432 32.9176C105.398 32.8144 105.347 32.7968 105.279 32.7968H103.429C103.326 32.7968 103.292 32.8319 103.258 32.9176L99.7078 43.4128C99.6562 43.5491 99.7243 43.6358 99.8773 43.6358H102.493C102.579 43.6358 102.612 43.6017 102.647 43.515L103.105 42.2274C103.139 42.1417 103.173 42.1066 103.31 42.1066H105.348C105.485 42.1066 105.535 42.1417 105.569 42.2274L106.011 43.515C106.045 43.6017 106.062 43.6358 106.164 43.6358H108.831C109.019 43.6358 109.035 43.5501 108.984 43.4118L108.983 43.4128ZM104.99 39.9257C105.007 40.0115 104.957 40.0796 104.838 40.0796H103.852C103.716 40.0796 103.665 40.0115 103.683 39.9257L103.988 38.5855C104.226 37.5725 104.344 36.4728 104.344 36.4728H104.396C104.396 36.4728 104.515 37.5725 104.718 38.5865L104.991 39.9257H104.99ZM84.3698 43.4644V41.265C84.3698 41.1452 84.285 41.1111 84.2003 41.1111H80.0217C79.8678 41.1111 79.8172 41.0429 79.8172 40.9222V39.5994C79.8172 39.4787 79.8678 39.4105 80.0217 39.4105H83.4532C83.5379 39.4105 83.6227 39.3754 83.6227 39.2546V37.0397C83.6227 36.9189 83.5379 36.8848 83.4532 36.8848H80.0207C79.8678 36.8848 79.8162 36.8166 79.8162 36.6959V35.5105C79.8162 35.3907 79.8678 35.3225 80.0207 35.3225H84.2003C84.3026 35.3225 84.3698 35.2874 84.3698 35.1666V32.9692C84.3698 32.8319 84.2685 32.7968 84.2003 32.7968H77.1327C77.048 32.7968 76.9798 32.8319 76.9798 32.9692V43.4644C76.9798 43.6007 77.048 43.6358 77.1327 43.6358H84.2003C84.3026 43.6358 84.3698 43.6017 84.3698 43.4644V43.4644ZM72.434 36.3696C72.434 36.8342 72.1107 37.0572 71.5847 37.0572H69.7321C69.5792 37.0572 69.5275 36.989 69.5275 36.8683V35.5105C69.5275 35.3907 69.5792 35.3225 69.7321 35.3225H71.5847C72.1447 35.3225 72.434 35.5796 72.434 36.0433V36.3696V36.3696ZM75.5772 43.4118L73.9116 39.1007C73.861 38.9468 73.8434 38.8261 73.9973 38.7238C74.7444 38.2416 75.2373 37.4186 75.2373 36.353V36.1981C75.2373 34.0855 73.8103 32.7968 71.5847 32.7968H66.8441C66.7584 32.7968 66.6912 32.8319 66.6912 32.9692V43.4644C66.6912 43.6007 66.7593 43.6358 66.8441 43.6358H69.3571C69.4418 43.6358 69.5275 43.6017 69.5275 43.4644V39.5994C69.5275 39.4787 69.5782 39.4105 69.7311 39.4105H70.9029C70.971 39.4105 71.0227 39.4446 71.0568 39.5303L72.6191 43.515C72.6532 43.5842 72.7048 43.6358 72.772 43.6358H75.4233C75.5928 43.6358 75.6269 43.5326 75.5762 43.4118H75.5772ZM122.7 11.9965C122.7 13.3845 121.667 14.3049 120.148 14.3049H119.318C117.776 14.3049 116.744 13.3845 116.744 11.9965V8.54453C116.744 7.15654 117.799 6.23511 119.318 6.23511H120.149C121.668 6.23511 122.7 7.14387 122.7 8.54355V9.20589H120.73V8.54355C120.73 8.2494 120.493 8.02829 120.149 8.02829H119.318C118.974 8.02829 118.689 8.28641 118.689 8.54453V11.9965C118.689 12.3033 118.903 12.5001 119.318 12.5001H120.149C120.517 12.5001 120.73 12.2906 120.73 11.9965V11.3341H122.7V11.9965V11.9965ZM73.7577 14.0419V6.52926C73.7577 6.43089 73.709 6.40556 73.6389 6.40556H71.9168C71.892 6.40534 71.8677 6.41218 71.8466 6.42529C71.8256 6.4384 71.8087 6.45724 71.798 6.47959L70.4324 10.2549C70.3752 10.4171 70.3235 10.5811 70.2775 10.7468H70.2298C70.2298 10.7468 70.2064 10.5257 70.0993 10.2549L68.6869 6.48056C68.6761 6.45806 68.6591 6.43912 68.6379 6.426C68.6166 6.41288 68.5921 6.40613 68.5671 6.40654H66.7983C66.7262 6.40654 66.6912 6.43186 66.6912 6.53024V14.0419C66.6912 14.1393 66.7262 14.1647 66.7983 14.1647H68.4727C68.5555 14.1647 68.5915 14.1403 68.5915 14.0419V12.4309C68.5915 11.263 68.4843 10.1936 68.4843 10.1936H68.5204C68.5204 10.1936 68.6275 10.7098 68.8165 11.263L69.4467 13.1195C69.4818 13.2179 69.5889 13.2423 69.66 13.2423H70.8123C70.8834 13.2423 70.9779 13.2179 71.0139 13.1195L71.6431 11.3C71.8331 10.7468 71.9402 10.1936 71.9402 10.1936H71.9762C71.9762 10.1936 71.8925 11.3 71.8925 12.4552V14.0419C71.8925 14.1393 71.9168 14.1647 71.9996 14.1647H73.6389C73.71 14.1647 73.7577 14.1403 73.7577 14.0419V14.0419ZM93.5188 14.0371V12.463C93.5188 12.3773 93.4594 12.353 93.4 12.353H90.6347C90.5276 12.353 90.4925 12.3043 90.4925 12.2166V11.2708C90.4925 11.1851 90.5276 11.1354 90.6347 11.1354H92.8769C92.9373 11.1354 92.9967 11.1111 92.9967 11.0244V9.43868C92.9967 9.35297 92.9373 9.32862 92.8769 9.32862H90.6347C90.5276 9.32862 90.4925 9.27992 90.4925 9.19225V8.34485C90.4925 8.25914 90.5276 8.20946 90.6347 8.20946H93.4009C93.4711 8.20946 93.5178 8.18511 93.5178 8.0994V6.52537C93.5178 6.42699 93.4477 6.40264 93.4009 6.40264H88.6165C88.5561 6.40264 88.5094 6.42699 88.5094 6.52537V14.0371C88.5094 14.1345 88.5561 14.1598 88.6165 14.1598H93.4C93.4711 14.1598 93.5188 14.1354 93.5188 14.0371ZM87.4448 11.8981C87.4448 10.5208 86.7805 9.91791 85.3905 9.46303C84.7964 9.26725 84.0727 9.09485 84.0727 8.61563C84.0727 8.22115 84.3094 8.05069 84.6668 8.05069H84.8685C85.2717 8.05069 85.5688 8.27082 85.7821 8.68868C85.8308 8.78706 85.937 8.78706 86.0198 8.7257L87.2548 7.87829C87.3737 7.80329 87.3259 7.68056 87.2792 7.60654C87.1299 7.33876 86.937 7.09778 86.7084 6.89355C86.2457 6.47569 85.6165 6.2429 84.8441 6.2429H84.6659C83.0392 6.2429 82.0535 7.15167 82.0535 8.67699C82.0535 10.0406 82.7655 10.5822 84.0366 11.0371C84.8324 11.3195 85.4256 11.3936 85.4256 11.9468C85.4256 12.3033 85.1889 12.5117 84.8207 12.5117H84.4526C84.0483 12.5117 83.7513 12.2916 83.5379 11.8728C83.4902 11.7754 83.3831 11.7754 83.3003 11.8367L82.0652 12.6841C81.9464 12.7582 81.9941 12.8692 82.0418 12.9432C82.1724 13.177 82.3272 13.3854 82.5162 13.5695C82.9915 14.0497 83.6558 14.3195 84.4759 14.3195H84.8441C86.5194 14.3195 87.4448 13.4098 87.4448 11.8981V11.8981ZM100.384 12.0082V8.55524C100.384 7.15264 99.3503 6.24387 97.8298 6.24387H96.999C95.4795 6.24387 94.4217 7.1653 94.4217 8.55524V12.0091C94.4217 13.3991 95.4542 14.3205 96.999 14.3205H97.8298C99.3503 14.3205 100.384 13.3991 100.384 12.0091V12.0082ZM98.4123 12.0082C98.4123 12.3033 98.198 12.5127 97.8298 12.5127H96.999C96.5831 12.5127 96.3688 12.316 96.3688 12.0082V8.55524C96.3688 8.29615 96.6542 8.03901 96.999 8.03901H97.8298C98.1747 8.03901 98.4123 8.26011 98.4123 8.55524V12.0091V12.0082ZM81.0883 12.013V6.52926C81.0883 6.43186 81.0522 6.40654 80.9811 6.40654H79.2357C79.1762 6.40654 79.1285 6.43186 79.1285 6.53024V12.014C79.1285 12.3208 78.9503 12.5176 78.5344 12.5176H77.7035C77.2642 12.5176 77.0743 12.3208 77.0743 12.013V6.52926C77.0743 6.43186 77.0149 6.40654 76.9672 6.40654H75.2451C75.174 6.40654 75.1379 6.43186 75.1379 6.53024V12.014C75.1379 13.402 76.1597 14.3244 77.7035 14.3244H78.5344C80.0538 14.3244 81.0883 13.402 81.0883 12.013ZM108.994 14.0439V6.53219C108.994 6.43381 108.922 6.40848 108.875 6.40848H107.2C107.129 6.40848 107.093 6.43381 107.093 6.53219V8.5231C107.093 9.6179 107.153 10.5763 107.153 10.5763H107.117C107.117 10.5763 107.023 10.3065 106.856 9.98609L105.098 6.51952C105.063 6.4455 105.015 6.40848 104.944 6.40848H103.435C103.377 6.40848 103.328 6.43381 103.328 6.53219V14.0439C103.328 14.1413 103.377 14.1666 103.435 14.1666H105.146C105.217 14.1666 105.265 14.1423 105.265 14.0439V12.089C105.265 11.0809 105.194 10.1098 105.194 10.1098H105.241C105.241 10.1098 105.336 10.3796 105.491 10.663L107.259 14.0565C107.295 14.1179 107.331 14.1666 107.391 14.1666H108.875C108.946 14.1666 108.994 14.1423 108.994 14.0439V14.0439ZM152.592 14.0439V12.4699C152.592 12.3841 152.532 12.3588 152.473 12.3588H149.551C149.444 12.3588 149.409 12.3101 149.409 12.2244V6.53219C149.409 6.43381 149.337 6.40848 149.29 6.40848H147.533C147.473 6.40848 147.425 6.43381 147.425 6.53219V14.0439C147.425 14.1413 147.473 14.1666 147.533 14.1666H152.473C152.544 14.1666 152.592 14.1423 152.592 14.0439V14.0439ZM139.477 14.0439V6.53219C139.477 6.43381 139.406 6.40848 139.358 6.40848H137.684C137.612 6.40848 137.577 6.43381 137.577 6.53219V8.5231C137.577 9.6179 137.635 10.5763 137.635 10.5763H137.6C137.6 10.5763 137.506 10.3065 137.339 9.98609L135.581 6.51952C135.545 6.4455 135.497 6.40848 135.426 6.40848H133.919C133.859 6.40848 133.811 6.43381 133.811 6.53219V14.0439C133.811 14.1413 133.859 14.1666 133.919 14.1666H135.628C135.7 14.1666 135.747 14.1423 135.747 14.0439V12.089C135.747 11.0809 135.676 10.1098 135.676 10.1098H135.724C135.724 10.1098 135.819 10.3796 135.973 10.663L137.743 14.0565C137.778 14.1179 137.814 14.1666 137.873 14.1666H139.358C139.429 14.1666 139.476 14.1423 139.476 14.0439H139.477ZM125.698 14.0439V6.53219C125.698 6.43381 125.614 6.40848 125.567 6.40848H123.821C123.762 6.40848 123.714 6.43381 123.714 6.53219V14.0439C123.714 14.1413 123.762 14.1666 123.821 14.1666H125.567C125.638 14.1666 125.698 14.1423 125.698 14.0439ZM146.535 14.0069L144.053 6.49517C144.029 6.42115 143.993 6.40848 143.946 6.40848H142.651C142.581 6.40848 142.556 6.43381 142.533 6.49517L140.051 14.0069C140.015 14.1043 140.063 14.1666 140.169 14.1666H141.998C142.057 14.1666 142.082 14.1423 142.105 14.0809L142.426 13.1585C142.449 13.0971 142.473 13.0728 142.568 13.0728H143.993C144.088 13.0728 144.124 13.0971 144.149 13.1585L144.457 14.0809C144.48 14.1423 144.493 14.1666 144.564 14.1666H146.428C146.559 14.1666 146.57 14.1052 146.535 14.0069V14.0069ZM143.744 11.5114C143.756 11.5728 143.72 11.6215 143.636 11.6215H142.949C142.853 11.6215 142.818 11.5728 142.83 11.5114L143.043 10.552C143.209 9.82635 143.293 9.03933 143.293 9.03933H143.329C143.329 9.03933 143.411 9.82635 143.554 10.552L143.744 11.5114V11.5114ZM132.63 12.015V8.56011C132.63 7.15849 131.597 6.24874 130.077 6.24874H129.245C127.726 6.24874 126.668 7.17115 126.668 8.56011V12.015C126.668 13.4039 127.701 14.3264 129.245 14.3264H130.077C131.596 14.3264 132.63 13.4039 132.63 12.015V12.015ZM130.658 12.015C130.658 12.3101 130.444 12.5195 130.077 12.5195H129.245C128.83 12.5195 128.616 12.3228 128.616 12.015V8.56011C128.616 8.30199 128.9 8.04388 129.245 8.04388H130.077C130.422 8.04388 130.658 8.26595 130.658 8.56011V12.015V12.015ZM116.294 14.0059L113.811 6.4942C113.787 6.42017 113.752 6.40848 113.704 6.40848H112.409C112.339 6.40848 112.315 6.43283 112.291 6.4942L109.808 14.0059C109.773 14.1043 109.821 14.1666 109.927 14.1666H111.756C111.816 14.1666 111.839 14.1413 111.864 14.0799L112.184 13.1585C112.207 13.0962 112.231 13.0718 112.326 13.0718H113.751C113.847 13.0718 113.882 13.0962 113.906 13.1585L114.215 14.0799C114.238 14.1413 114.25 14.1666 114.322 14.1666H116.186C116.317 14.1666 116.329 14.1043 116.294 14.0059V14.0059ZM113.502 11.5104C113.514 11.5718 113.479 11.6215 113.395 11.6215H112.706C112.612 11.6215 112.576 11.5728 112.587 11.5104L112.802 10.552C112.967 9.82635 113.051 9.03933 113.051 9.03933H113.086C113.086 9.03933 113.17 9.82635 113.312 10.552L113.502 11.5104V11.5104ZM72.6542 21.7806C72.6542 23.1686 71.6217 24.09 70.1022 24.09H69.2723C67.7304 24.09 66.697 23.1686 66.697 21.7806V18.3277C66.697 16.9397 67.7538 16.0192 69.2723 16.0192H70.1032C71.6217 16.0192 72.6542 16.927 72.6542 18.3277V18.99H70.6837V18.3277C70.6837 18.0335 70.447 17.8114 70.1032 17.8114H69.2723C68.9285 17.8114 68.6431 18.0695 68.6431 18.3277V21.7806C68.6431 22.0874 68.8574 22.2842 69.2723 22.2842H70.1032C70.4704 22.2842 70.6837 22.0757 70.6837 21.7806V21.1182H72.6542V21.7806ZM92.912 17.9351V16.3611C92.912 16.2627 92.8409 16.2384 92.8048 16.2384H87.6162C87.5578 16.2384 87.4974 16.2627 87.4974 16.3611V17.9351C87.4974 18.0208 87.5568 18.0462 87.6162 18.0462H89.0714C89.2019 18.0462 89.2253 18.0949 89.2253 18.1806V23.8747C89.2253 23.9721 89.273 23.9975 89.3324 23.9975H91.0779C91.1363 23.9975 91.1967 23.9721 91.1967 23.8747V18.1806C91.1967 18.0949 91.2201 18.0462 91.3389 18.0462H92.8058C92.8643 18.0462 92.913 18.0208 92.913 17.9351H92.912ZM86.3061 23.8747V16.3611C86.3061 16.2627 86.235 16.2384 86.1883 16.2384H84.5129C84.4418 16.2384 84.4058 16.2627 84.4058 16.3611V18.353C84.4058 19.4478 84.4662 20.4062 84.4662 20.4062H84.4302C84.4302 20.4062 84.3357 20.1364 84.1691 19.8169L82.412 16.3494C82.3759 16.2744 82.3282 16.2384 82.2571 16.2384H80.7493C80.6899 16.2384 80.6422 16.2627 80.6422 16.3611V23.8747C80.6422 23.9721 80.6899 23.9975 80.7493 23.9975H82.4587C82.5298 23.9975 82.5776 23.9731 82.5776 23.8747V21.9189C82.5776 20.9108 82.5064 19.9397 82.5064 19.9397H82.5551C82.5551 19.9397 82.6496 20.2095 82.8035 20.4929L84.5733 23.8864C84.6084 23.9478 84.6444 23.9975 84.7039 23.9975H86.1883C86.2594 23.9975 86.3061 23.9731 86.3061 23.8747V23.8747ZM107.166 21.7825V18.3267C107.166 16.9241 106.133 16.0153 104.613 16.0153H103.782C102.263 16.0153 101.205 16.9367 101.205 18.3267V21.7816C101.205 23.1715 102.237 24.0939 103.782 24.0939H104.613C106.132 24.0939 107.166 23.1715 107.166 21.7816V21.7825ZM105.195 21.7825C105.195 22.0777 104.981 22.2861 104.613 22.2861H103.782C103.366 22.2861 103.153 22.0894 103.153 21.7816V18.3267C103.153 18.0686 103.437 17.8104 103.782 17.8104H104.613C104.958 17.8104 105.195 18.0316 105.195 18.3267V21.7816V21.7825ZM100.306 23.8377L99.1419 20.7501C99.1068 20.64 99.0951 20.5543 99.2013 20.4803C99.7243 20.1364 100.068 19.5452 100.068 18.7835V18.6725C100.068 17.1598 99.0708 16.2374 97.5162 16.2374H94.2026C94.1432 16.2374 94.0954 16.2627 94.0954 16.3611V23.8747C94.0954 23.9721 94.1432 23.9975 94.2026 23.9975H95.9597C96.0191 23.9975 96.0785 23.9731 96.0785 23.8747V21.1075C96.0785 21.0208 96.1136 20.9721 96.2208 20.9721H97.0399C97.0886 20.9721 97.1237 20.9965 97.1471 21.0579L98.2399 23.9118C98.2633 23.9605 98.2984 23.9975 98.3471 23.9975H100.199C100.318 23.9975 100.342 23.9234 100.306 23.8377V23.8377ZM98.1104 18.7962C98.1104 19.1273 97.8844 19.288 97.5162 19.288H96.2208C96.1136 19.288 96.0785 19.2393 96.0785 19.1517V18.1806C96.0785 18.0949 96.1136 18.0462 96.2208 18.0462H97.5162C97.9068 18.0462 98.1094 18.2303 98.1094 18.5624V18.7962H98.1104ZM79.1499 23.8747V22.3007C79.1499 22.214 79.0915 22.1897 79.0311 22.1897H76.11C76.0029 22.1897 75.9678 22.141 75.9678 22.0543V21.1075C75.9678 21.0208 76.0038 20.9721 76.11 20.9721H78.509C78.5675 20.9721 78.6279 20.9478 78.6279 20.8611V19.2754C78.6279 19.1887 78.5685 19.1643 78.509 19.1643H76.11C76.0029 19.1643 75.9678 19.1156 75.9678 19.029V18.1816C75.9678 18.0949 76.0038 18.0452 76.11 18.0452H79.0321C79.1032 18.0452 79.1499 18.0208 79.1499 17.9351V16.3611C79.1499 16.2627 79.0788 16.2384 79.0311 16.2384H74.0918C74.0324 16.2384 73.9847 16.2627 73.9847 16.3611V23.8747C73.9847 23.9721 74.0324 23.9975 74.0918 23.9975H79.0311C79.1032 23.9975 79.1499 23.9731 79.1499 23.8747V23.8747ZM152.591 23.8747V22.3007C152.591 22.214 152.531 22.1897 152.472 22.1897H149.55C149.443 22.1897 149.409 22.141 149.409 22.0543V21.1075C149.409 21.0218 149.444 20.9721 149.551 20.9721H151.949C152.008 20.9721 152.068 20.9478 152.068 20.8621V19.2744C152.068 19.1897 152.009 19.1643 151.949 19.1643H149.551C149.444 19.1643 149.409 19.1156 149.409 19.0299V18.1806C149.409 18.0949 149.444 18.0462 149.551 18.0462H152.472C152.543 18.0462 152.591 18.0208 152.591 17.9351V16.3611C152.591 16.2627 152.519 16.2384 152.472 16.2384H147.532C147.473 16.2384 147.424 16.2627 147.424 16.3611V23.8747C147.424 23.9721 147.473 23.9975 147.532 23.9975H152.472C152.543 23.9975 152.591 23.9721 152.591 23.8747ZM146.012 17.9351V16.3611C146.012 16.2627 145.94 16.2384 145.905 16.2384H140.714C140.656 16.2384 140.596 16.2627 140.596 16.3611V17.9351C140.596 18.0208 140.655 18.0462 140.714 18.0462H142.17C142.3 18.0462 142.323 18.0949 142.323 18.1806V23.8747C142.323 23.9721 142.371 23.9975 142.431 23.9975H144.176C144.234 23.9975 144.295 23.9721 144.295 23.8747V18.1806C144.295 18.0949 144.318 18.0462 144.437 18.0462H145.904C145.962 18.0462 146.011 18.0208 146.011 17.9351H146.012ZM123.129 23.8747V22.3007C123.129 22.214 123.071 22.1897 123.01 22.1897H120.089C119.982 22.1897 119.947 22.141 119.947 22.0543V21.1075C119.947 21.0218 119.982 20.9721 120.089 20.9721H122.488C122.548 20.9721 122.607 20.9478 122.607 20.8621V19.2744C122.607 19.1897 122.548 19.1643 122.488 19.1643H120.089C119.982 19.1643 119.947 19.1156 119.947 19.0299V18.1806C119.947 18.0949 119.982 18.0462 120.089 18.0462H123.011C123.082 18.0462 123.129 18.0208 123.129 17.9351V16.3611C123.129 16.2627 123.058 16.2384 123.01 16.2384H118.071C118.012 16.2384 117.964 16.2627 117.964 16.3611V23.8747C117.964 23.9721 118.012 23.9975 118.071 23.9975H123.01C123.082 23.9975 123.129 23.9721 123.129 23.8747ZM114.488 21.6851C114.488 21.9442 114.227 22.1897 113.894 22.1897H112.599C112.492 22.1897 112.457 22.141 112.457 22.0543V18.1806C112.457 18.0949 112.493 18.0462 112.599 18.0462H113.894C114.215 18.0462 114.488 18.316 114.488 18.5624V21.6851ZM116.447 21.5877V18.6734C116.447 17.1608 115.449 16.2384 113.894 16.2384H110.581C110.521 16.2384 110.474 16.2627 110.474 16.3611V23.8747C110.474 23.9721 110.521 23.9975 110.581 23.9975H113.894C115.449 23.9975 116.446 23.0751 116.446 21.5868L116.447 21.5877ZM140.023 23.8377L138.859 20.7501C138.824 20.64 138.812 20.5543 138.918 20.4803C139.441 20.1364 139.785 19.5452 139.785 18.7835V18.6725C139.785 17.1608 138.788 16.2374 137.232 16.2374H133.92C133.86 16.2374 133.812 16.2627 133.812 16.3611V23.8747C133.812 23.9721 133.86 23.9975 133.92 23.9975H135.677C135.735 23.9975 135.795 23.9731 135.795 23.8747V21.1075C135.795 21.0218 135.831 20.9721 135.938 20.9721H136.757C136.806 20.9721 136.841 20.9975 136.864 21.0588L137.957 23.9108C137.98 23.9595 138.015 23.9975 138.064 23.9975H139.916C140.034 23.9975 140.058 23.9234 140.023 23.8377V23.8377ZM137.826 18.7962C137.826 19.1273 137.6 19.288 137.232 19.288H135.938C135.831 19.288 135.795 19.2393 135.795 19.1517V18.1806C135.795 18.0949 135.831 18.0462 135.938 18.0462H137.232C137.624 18.0462 137.826 18.2303 137.826 18.5624V18.7962V18.7962ZM132.793 23.8377L130.311 16.3241C130.287 16.2501 130.252 16.2384 130.204 16.2384H128.91C128.839 16.2384 128.815 16.2627 128.791 16.3241L126.308 23.8377C126.272 23.9351 126.32 23.9975 126.426 23.9975H128.256C128.315 23.9975 128.339 23.9731 128.363 23.9108L128.684 22.9894C128.707 22.928 128.731 22.9027 128.825 22.9027H130.25C130.346 22.9027 130.382 22.928 130.405 22.9894L130.714 23.9108C130.737 23.9731 130.749 23.9975 130.821 23.9975H132.685C132.816 23.9975 132.828 23.9361 132.793 23.8377V23.8377ZM130.002 21.3413C130.014 21.4027 129.979 21.4523 129.895 21.4523H129.206C129.112 21.4523 129.076 21.4027 129.088 21.3413L129.302 20.3819C129.467 19.6562 129.551 18.8692 129.551 18.8692H129.587C129.587 18.8692 129.67 19.6562 129.812 20.3819L130.002 21.3413Z" fill="white"/>
<path fill-rule="evenodd" clip-rule="evenodd" d="M63.586 27.1056H155.695V3.30235H63.587L63.5851 27.1056H63.586ZM155.696 29.6926H63.587V46.7673H155.695L155.696 29.6926ZM61 49.3544H158.281V0.714355H61V49.3544Z" fill="white"/>
<rect width="48" height="48" transform="translate(1 0.684326)" fill="#ED6F6B"/>
<g clip-path="url(#clip1)">
<path fill-rule="evenodd" clip-rule="evenodd" d="M40.8701 34.8746C40.974 35.0409 41.0156 35.2228 40.9948 35.4203C40.974 35.6177 40.9013 35.7996 40.7766 35.9659C40.6726 36.1114 40.5271 36.2205 40.34 36.2933C40.153 36.366 39.9659 36.3712 39.7788 36.3089L34.759 35.1864L33.0442 39.9568C32.9818 40.1439 32.8727 40.2946 32.7168 40.4089C32.5609 40.5232 32.3894 40.5908 32.2023 40.6116H32.1088C31.9217 40.6116 31.7502 40.5648 31.5943 40.4713C31.4385 40.3777 31.3189 40.2478 31.2358 40.0815L26.0289 30.572C25.8626 30.5927 25.6911 30.6083 25.5145 30.6187C25.3378 30.6291 25.1663 30.6343 25 30.6343C24.8129 30.6343 24.6259 30.6291 24.4388 30.6187C24.2517 30.6083 24.0646 30.5927 23.8776 30.572L18.7642 40.0815C18.6811 40.2478 18.5615 40.3777 18.4057 40.4713C18.2498 40.5648 18.0783 40.6116 17.8912 40.6116H17.8288C17.621 40.5908 17.4391 40.5232 17.2832 40.4089C17.1273 40.2946 17.0182 40.1439 16.9558 39.9568L15.241 35.1864L10.2212 36.3089C10.0341 36.3712 9.84703 36.366 9.65995 36.2933C9.47288 36.2205 9.32738 36.101 9.22345 35.9347C9.09873 35.7892 9.02598 35.6177 9.0052 35.4203C8.98441 35.2228 9.02598 35.0409 9.12991 34.8746L14.9916 24.1803C14.6798 23.4943 14.4407 22.772 14.2744 22.0133C14.1082 21.2546 14.025 20.47 14.025 19.6593C14.025 18.1419 14.3108 16.7181 14.8824 15.3878C15.454 14.0575 16.2387 12.8935 17.2364 11.8958C18.2342 10.898 19.3982 10.1134 20.7285 9.54175C22.0588 8.97013 23.4826 8.68433 25 8.68433C26.5174 8.68433 27.9412 8.97013 29.2715 9.54175C30.6018 10.1134 31.7606 10.898 32.748 11.8958C33.7353 12.8935 34.52 14.0575 35.102 15.3878C35.684 16.7181 35.975 18.1419 35.975 19.6593C35.975 20.4492 35.8918 21.2131 35.7256 21.951C35.5593 22.6889 35.3306 23.4008 35.0396 24.0867L40.8701 34.8746ZM18.0783 37.1507L21.8197 30.1666C20.6765 29.8133 19.6216 29.2936 18.6551 28.6077C17.6885 27.9217 16.8623 27.1111 16.1764 26.1757L11.936 33.8769L15.6463 33.0351C15.8957 32.9727 16.1296 33.0039 16.3478 33.1286C16.5661 33.2533 16.7272 33.43 16.8311 33.6587L18.0783 37.1507ZM16.0205 19.6593C16.0205 20.8857 16.2543 22.0445 16.722 23.1358C17.1897 24.227 17.834 25.178 18.6551 25.9886C19.4761 26.7993 20.4271 27.4437 21.508 27.9217C22.5888 28.3998 23.7528 28.6389 25 28.6389C26.2264 28.6389 27.3852 28.3998 28.4765 27.9217C29.5677 27.4437 30.5187 26.7993 31.3293 25.9886C32.14 25.178 32.7791 24.227 33.2468 23.1358C33.7145 22.0445 33.9484 20.8857 33.9484 19.6593C33.9484 18.4329 33.7145 17.2741 33.2468 16.1829C32.7791 15.0916 32.14 14.1406 31.3293 13.33C30.5187 12.5193 29.5677 11.875 28.4765 11.3969C27.3852 10.9188 26.2264 10.6798 25 10.6798C23.7528 10.6798 22.5888 10.9188 21.508 11.3969C20.4271 11.875 19.4761 12.5193 18.6551 13.33C17.834 14.1406 17.1897 15.0916 16.722 16.1829C16.2543 17.2741 16.0205 18.4329 16.0205 19.6593ZM34.3537 33.0351L38.064 33.8769L33.8548 26.1134C33.1481 27.0695 32.3011 27.901 31.3137 28.6077C30.3264 29.3144 29.2507 29.8444 28.0867 30.1978L31.9217 37.1819L33.1689 33.6587C33.2728 33.43 33.4339 33.2533 33.6522 33.1286C33.8704 33.0039 34.1043 32.9727 34.3537 33.0351Z" fill="white"/>
</g>
</g>
<defs>
<clipPath id="clip0">
<rect width="270" height="48" fill="white" transform="translate(0 0.714355)"/>
</clipPath>
<clipPath id="clip1">
<rect width="32" height="32" fill="white" transform="translate(9 8.68433)"/>
</clipPath>
</defs>
</svg>
