<svg width="160" height="72" viewBox="0 0 160 72" fill="none" xmlns="http://www.w3.org/2000/svg">
<g clip-path="url(#clip0_1541_867)">
<path d="M11.0231 1.72391C13.3621 1.72391 15.5797 2.68703 17.0122 4.24906L15.4421 5.79491C14.4871 4.74277 12.7793 3.94961 11.0231 3.94961C7.68044 3.94961 5.08243 6.61235 5.08243 10.1492C5.08243 13.8479 7.74519 16.3488 11.2335 16.3488C13.4349 16.3488 15.0212 15.1348 15.9358 14.0341L17.595 15.5313C16.1867 17.32 13.7587 18.5583 11.2335 18.5583C6.34501 18.5583 2.74341 14.981 2.74341 10.1411C2.74341 5.41452 6.29645 1.72391 11.0231 1.72391V1.72391ZM31.9043 14.115H25.0086L23.3009 18.3236H20.8647L27.6471 1.95862H29.282L36.0643 18.3236H33.6282L31.9043 14.115V14.115ZM25.9394 11.8893H30.9897L28.4645 5.8111L25.9394 11.8893V11.8893ZM42.96 6.3048V18.3236H40.621V1.95052H42.2639L52.0813 13.9774V1.95052H54.4204V18.3236H52.7855L42.96 6.3048ZM70.0165 14.115H63.1209L61.4131 18.3236H58.9851L65.7674 1.95862H67.4023L74.1847 18.3236H71.7485L70.0165 14.115V14.115ZM64.0516 11.8893H69.102L66.5768 5.8111L64.0516 11.8893V11.8893ZM81.0803 16.0979H88.324V18.3236H78.7413V1.95052H81.0803V16.0979Z" fill="white"/>
<path d="M1.66693 34.6885H158.341V37.0275H1.66693V34.6885ZM75.6738 66.261H74.0389L69.2476 58.7503V69.7655H66.9086V53.4006H68.5434L74.8564 63.3798L81.1693 53.4006H82.8042V69.7655H80.4733V58.7503L75.6738 66.261ZM98.4084 65.5569H91.5128L89.805 69.7655H87.377L94.1593 53.4006H95.7942L102.577 69.7655H100.14L98.4084 65.5569V65.5569ZM92.4435 63.3393H97.4939L94.9687 57.2611L92.4435 63.3393V63.3393ZM109.464 62.0524V69.7655H107.125V53.4006H112.855C114.353 53.4006 115.283 53.7486 116.036 54.3556C117.015 55.1487 117.647 56.3628 117.647 57.7225C117.647 59.0822 117.015 60.2962 116.036 61.0893C115.518 61.5102 114.935 61.8096 114.118 61.9553L119.986 69.7655H117.153L111.334 62.0524H109.464V62.0524ZM112.742 59.8267C113.794 59.8267 114.328 59.592 114.709 59.2197C115.081 58.8474 115.316 58.3052 115.316 57.7225C115.316 57.1397 115.081 56.5975 114.709 56.2252C114.336 55.8529 113.794 55.6182 112.742 55.6182H109.464V59.8267H112.742V59.8267ZM130.952 53.1658C133.291 53.1658 135.509 54.129 136.942 55.691L135.371 57.2368C134.416 56.1847 132.709 55.3915 130.952 55.3915C127.61 55.3915 125.012 58.0543 125.012 61.5911C125.012 65.2898 127.674 67.7907 131.163 67.7907C133.364 67.7907 134.951 66.5767 135.865 65.476L137.524 66.9733C136.124 68.7781 133.688 70.0164 131.163 70.0164C126.274 70.0164 122.673 66.4391 122.673 61.5992C122.681 56.8565 126.234 53.1658 130.952 53.1658V53.1658ZM153.897 62.0524H144.776V69.7655H142.437V53.4006H144.776V59.8267H153.897V53.4006H156.228V69.7655H153.897V62.0524Z" fill="white"/>
</g>
<defs>
<clipPath id="clip0_1541_867">
<rect width="160" height="71.72" fill="white"/>
</clipPath>
</defs>
</svg>
