<svg width="200" height="62" viewBox="0 0 200 62" fill="none" xmlns="http://www.w3.org/2000/svg">
<g clip-path="url(#clip0)">
<path d="M0.266113 34.9144C0.332669 34.3487 0.365947 33.783 0.432503 33.2172C0.732003 30.5217 1.49739 28.0259 3.19457 25.8961C5.0914 23.5001 7.62052 22.1024 10.5157 21.3371C12.3127 20.8712 14.143 20.6715 16.0065 20.6715C24.4258 20.6715 32.8451 20.6715 41.2977 20.6715C41.4308 20.6715 41.5972 20.6715 41.7636 20.6715C40.4658 27.194 39.1679 33.6831 37.8368 40.2389C37.2378 39.3737 36.7054 38.575 36.2062 37.7763C33.4774 33.6499 30.7486 29.4901 27.9866 25.3637C27.6205 24.798 27.0881 24.5317 26.3892 24.5317C23.7936 24.5317 21.1646 24.5317 18.5689 24.5317C17.8368 24.5317 17.4375 24.8645 17.3044 25.5966C15.8734 32.5517 14.4758 39.54 13.0448 46.4951C12.9117 47.0941 13.2112 47.4602 13.8102 47.4602C15.7403 47.4602 17.7037 47.4602 19.6338 47.4602C20.2328 47.4602 20.6987 47.0941 20.7986 46.4618C21.4308 43.3004 22.0631 40.1723 22.7287 37.0109C23.0615 35.3803 23.3942 33.7497 23.727 32.1191C23.7603 32.0192 23.7936 31.9194 23.8268 31.753C24.1929 32.2855 24.4924 32.7514 24.8252 33.2505C27.7536 37.6765 30.6821 42.0692 33.6105 46.4951C34.0431 47.1607 34.6421 47.4602 35.4075 47.4602C37.9367 47.4602 40.4658 47.4602 42.9949 47.4602C43.7936 47.4602 44.2262 47.0941 44.3926 46.3287C45.7237 39.7397 47.0881 33.1507 48.4525 26.5617C48.6189 25.6964 48.7852 24.7979 48.9849 23.9327C49.118 23.3004 49.0182 22.6682 48.6854 22.1357C47.0548 19.5733 45.4242 17.0109 43.7603 14.4818C43.3942 13.9161 42.8285 13.6831 42.1297 13.6831C30.316 13.6831 18.5024 13.6831 6.65546 13.6831C6.35596 13.6831 6.05646 13.6831 5.79024 13.6166C5.35763 13.55 5.22452 13.3171 5.42418 12.9177C5.59057 12.585 5.82352 12.2522 6.05646 11.9527C10.1829 7.02756 15.2744 3.56667 21.5307 2.06916C32.8119 -0.659623 42.6621 2.06916 50.8817 10.2888C55.5074 14.9144 58.2029 20.5717 59.0016 27.0608C60.1663 36.3786 57.6039 44.5983 51.2478 51.5534C46.6887 56.545 40.9982 59.5733 34.3426 60.738C33.0781 60.971 31.7803 61.0375 30.5157 61.1707C30.4159 61.1707 30.3493 61.2039 30.2495 61.2372C29.5506 61.2372 28.8518 61.2372 28.1862 61.2372C28.0864 61.2039 27.9866 61.1707 27.8867 61.1707C26.6887 61.0375 25.4907 61.0043 24.326 60.8046C15.3743 59.2073 8.48575 54.5484 3.72701 46.8279C1.93001 43.9327 0.798559 40.7713 0.432503 37.3437C0.399225 36.9444 0.33267 36.5783 0.299392 36.179C0.266114 35.7131 0.266113 35.3138 0.266113 34.9144Z" fill="white"/>
<path d="M200 47.793C199.833 47.8595 199.634 47.9593 199.467 47.9926C198.935 48.0259 198.369 47.9926 197.837 47.9926C197.371 47.9926 197.304 47.9261 197.304 47.4602C197.304 45.3304 197.304 43.1673 197.304 41.0375C197.304 40.6382 197.271 40.2056 197.204 39.8063C196.872 38.342 195.241 37.7763 193.943 38.6748C193.011 39.3071 192.645 40.2389 192.612 41.3038C192.579 43.3004 192.579 45.2971 192.579 47.2938C192.579 47.9926 192.546 47.9926 191.88 47.9926C191.414 47.9926 190.915 47.9926 190.449 47.9926C189.95 47.9926 189.883 47.9261 189.883 47.4269C189.883 44.7314 189.883 42.0359 189.883 39.3071C189.883 38.4086 189.883 37.5101 189.883 36.6449C189.883 36.179 189.983 36.1124 190.416 36.1124C190.882 36.1124 191.314 36.1124 191.78 36.1124C192.146 36.1124 192.279 36.2455 192.313 36.6116C192.346 36.9111 192.379 37.2106 192.412 37.5766C192.612 37.377 192.778 37.2106 192.945 37.0775C194.143 36.0126 195.507 35.6132 197.071 35.946C198.669 36.3121 199.7 37.5766 199.933 39.4402C199.933 39.54 200 39.6732 200 39.773C200 42.4019 200 45.0974 200 47.793Z" fill="white"/>
<path d="M171.714 37.0775C171.714 35.7464 171.714 34.4486 171.714 33.184C171.714 32.7181 171.714 32.2855 171.714 31.8196C171.714 31.5201 171.814 31.3537 172.146 31.3204C172.779 31.2539 173.378 31.1873 174.01 31.1541C174.143 31.1541 174.276 31.3204 174.376 31.4536C174.442 31.5201 174.376 31.6532 174.376 31.7531C174.376 36.9444 174.376 42.169 174.376 47.3604C174.376 47.9594 174.343 47.9927 173.744 47.9927C173.378 47.9927 173.012 47.9927 172.612 47.9927C172.213 48.0259 172.013 47.8595 171.98 47.4602C171.947 47.1607 171.88 46.8945 171.847 46.5284C171.281 47.2605 170.616 47.7264 169.784 48.0259C167.72 48.758 165.457 47.9261 164.359 45.8629C163.061 43.4336 163.028 40.9045 164.226 38.4086C165.624 35.58 169.085 34.9145 171.514 36.9444C171.581 36.9777 171.614 36.9777 171.714 37.0775ZM171.747 41.9361C171.747 41.1374 171.714 40.3387 171.348 39.6066C170.882 38.6416 170.083 38.0758 169.018 38.0758C167.987 38.0758 167.221 38.6416 166.789 39.5734C166.023 41.2372 166.056 42.9344 166.855 44.565C167.288 45.4635 168.02 46.0293 169.018 45.996C170.05 45.996 170.782 45.4303 171.248 44.5318C171.68 43.6998 171.747 42.8346 171.747 41.9361Z" fill="white"/>
<path d="M105.391 37.0442C105.391 35.6466 105.391 34.382 105.391 33.0842C105.391 32.6516 105.391 32.219 105.391 31.8196C105.391 31.5201 105.524 31.3537 105.824 31.3205C106.423 31.2872 107.055 31.1873 107.654 31.1541C107.92 31.1208 108.053 31.2206 108.086 31.5201C108.086 31.62 108.086 31.7198 108.086 31.8529C108.086 37.0443 108.086 42.2023 108.086 47.3937C108.086 48.0592 108.086 48.0592 107.421 48.0592C107.055 48.0592 106.689 48.026 106.356 48.0592C105.957 48.0925 105.757 47.8928 105.724 47.5268C105.69 47.2273 105.624 46.9611 105.591 46.6948C105.191 47.0276 104.825 47.3937 104.393 47.6932C102.462 48.9245 99.9999 48.4586 98.569 46.6616C97.6372 45.4968 97.2711 44.1324 97.1713 42.7015C97.0715 41.1707 97.2711 39.6732 98.0365 38.3088C99.534 35.7131 102.729 35.0809 105.091 36.9111C105.191 36.8779 105.258 36.9444 105.391 37.0442ZM105.524 41.9694C105.424 40.8379 105.291 40.1058 104.958 39.4735C103.993 37.7098 101.697 37.61 100.632 39.2739C99.6671 40.8047 99.7337 43.4669 100.765 44.9311C101.597 46.0958 103.095 46.3953 104.16 45.4636C104.559 45.0975 104.925 44.5983 105.125 44.0659C105.324 43.4003 105.391 42.6682 105.524 41.9694Z" fill="white"/>
<path d="M145.424 24.8313C144.925 25.2306 144.492 25.6965 143.96 25.996C142.13 27.0276 139.767 26.3953 138.469 24.5318C137.438 23.0343 137.138 21.3704 137.238 19.6067C137.304 18.2423 137.67 16.9444 138.502 15.813C139.967 13.9161 142.629 13.3837 144.492 14.6483C144.859 14.9145 145.191 15.214 145.557 15.5468C145.591 15.2805 145.624 15.0143 145.657 14.7148C145.69 14.382 145.857 14.2156 146.223 14.2156C146.622 14.2156 147.055 14.2156 147.454 14.2156C147.787 14.2156 147.953 14.3488 147.953 14.6815C147.953 15.3471 147.953 16.0459 147.953 16.7115C147.953 19.6399 147.953 22.5684 147.953 25.4968C147.953 26.0626 147.92 26.1291 147.354 26.1291C146.955 26.1291 146.522 26.1291 146.123 26.1291C145.757 26.1624 145.624 25.996 145.557 25.6632C145.524 25.397 145.491 25.0975 145.424 24.8313ZM145.324 20.4053C145.258 19.6399 145.225 19.0077 145.091 18.4086C144.859 17.1441 144.027 16.3454 142.962 16.2123C141.897 16.1125 140.932 16.6782 140.433 17.8429C139.767 19.4735 139.8 21.1042 140.599 22.7015C140.898 23.3005 141.364 23.7664 142.03 23.9993C143.195 24.3987 144.359 23.833 144.825 22.5351C145.125 21.8696 145.191 21.0376 145.324 20.4053Z" fill="white"/>
<path d="M92.6456 15.6134C92.7122 15.2473 92.7455 14.9478 92.7787 14.6483C92.812 14.3821 92.9784 14.2157 93.2779 14.249C93.7105 14.249 94.1431 14.249 94.609 14.249C94.9418 14.249 95.0749 14.4154 95.0749 14.7149C95.0749 18.3754 95.0749 22.036 95.0749 25.6966C95.0749 26.0293 94.9418 26.1957 94.609 26.1624C94.1431 26.1624 93.644 26.1624 93.1781 26.1624C92.8786 26.1624 92.7455 26.0293 92.7122 25.7631C92.6789 25.4303 92.6124 25.0976 92.5458 24.7981C92.213 25.0976 91.9468 25.4303 91.5807 25.6966C89.9169 26.9611 87.4876 26.6616 86.0233 25.0643C85.0916 24.0327 84.6257 22.8014 84.4593 21.437C84.2596 19.7398 84.3927 18.0759 85.2247 16.5119C86.2563 14.5817 88.3861 13.5834 90.4493 14.1159C91.2812 14.3155 91.9801 14.848 92.6456 15.6134ZM92.446 20.0726C92.3129 19.3405 92.2463 18.6084 92.0466 17.9095C91.7471 16.9445 91.0816 16.3455 90.0832 16.2456C89.0516 16.1458 88.2529 16.6117 87.7871 17.5102C86.8553 19.3072 86.8886 21.1375 87.8536 22.9012C88.3528 23.7997 89.1515 24.2656 90.2164 24.1325C91.2147 23.9994 91.8137 23.3338 92.0799 22.4353C92.213 21.6699 92.3129 20.8713 92.446 20.0726Z" fill="white"/>
<path d="M145.491 46.6615C144.991 47.0608 144.559 47.5267 144.026 47.8262C142.296 48.8246 139.933 48.2256 138.635 46.4951C137.571 45.0642 137.238 43.4003 137.304 41.6698C137.338 40.4053 137.604 39.2073 138.269 38.1424C139.467 36.179 141.83 35.2805 143.793 36.1124C144.459 36.3786 145.025 36.9111 145.657 37.3104C145.69 37.144 145.757 36.8778 145.757 36.5783C145.79 36.2455 145.956 36.1124 146.289 36.1124C146.722 36.1124 147.154 36.1124 147.554 36.1124C147.853 36.1124 148.02 36.2123 148.02 36.545C148.02 40.2056 148.02 43.8994 148.02 47.56C148.02 47.8928 147.853 48.0259 147.554 47.9926C147.088 47.9926 146.589 47.9926 146.123 47.9926C145.79 47.9926 145.657 47.8262 145.624 47.56C145.557 47.2272 145.524 46.9277 145.491 46.6615ZM145.324 41.9693C145.291 41.4702 145.258 40.971 145.191 40.5051C145.158 40.2056 145.058 39.8728 144.925 39.5733C144.559 38.7081 143.927 38.1756 142.961 38.0758C142.03 38.0093 141.331 38.4086 140.798 39.1407C140.233 39.9394 140.033 40.9044 140.033 41.8695C140.033 42.9677 140.199 44.0658 140.865 44.9643C142.03 46.5617 144.06 46.2955 144.858 44.4985C145.258 43.6998 145.324 42.8346 145.324 41.9693Z" fill="white"/>
<path d="M158.669 21.1707C158.868 23.367 160.333 24.4652 162.562 24.0992C163.261 23.9993 163.96 23.7331 164.659 23.5002C165.025 23.367 165.225 23.4003 165.358 23.7664C165.491 24.1324 165.657 24.4985 165.824 24.8645C165.957 25.1308 165.89 25.3304 165.624 25.4635C163.561 26.4952 161.398 26.8279 159.201 25.996C157.87 25.4968 156.938 24.4985 156.406 23.2007C155.607 21.1707 155.607 19.1408 156.472 17.1441C157.404 14.9145 159.368 13.783 161.797 13.9494C164.093 14.1158 165.757 15.4802 166.356 17.8429C166.589 18.7414 166.622 19.6732 166.689 20.605C166.722 21.0709 166.589 21.1707 166.123 21.1707C163.794 21.1707 161.464 21.1707 159.135 21.1707C159.002 21.1707 158.835 21.1707 158.669 21.1707ZM158.669 19.174C160.433 19.174 162.163 19.174 163.927 19.174C163.893 17.3437 162.928 16.2456 161.398 16.179C159.933 16.1125 158.835 17.3437 158.669 19.174Z" fill="white"/>
<path d="M113.378 43.001C113.544 44.8646 114.609 45.9295 116.306 45.996C117.205 46.0293 118.103 45.8629 118.968 45.4969C119.135 45.4303 119.301 45.3638 119.468 45.2639C119.701 45.1641 119.9 45.2307 120 45.4636C120.2 45.8962 120.366 46.3288 120.532 46.7947C120.666 47.1275 120.399 47.2606 120.166 47.3604C118.669 48.1258 117.072 48.392 115.408 48.2257C113.81 48.0593 112.512 47.3272 111.581 45.9628C110.948 45.0643 110.649 44.0326 110.549 42.9345C110.416 41.3704 110.582 39.8396 111.348 38.442C112.413 36.5118 114.376 35.5135 116.706 35.7797C118.935 36.046 120.266 37.3438 120.965 39.407C121.298 40.4054 121.364 41.4037 121.364 42.4353C121.364 42.8014 121.198 42.9678 120.832 42.9345C118.503 42.9345 116.14 42.9345 113.81 42.9345C113.711 43.001 113.544 43.001 113.378 43.001ZM113.411 41.0044C115.175 41.0044 116.905 41.0044 118.669 41.0044C118.636 39.2406 117.671 38.1092 116.24 38.0426C114.476 37.9428 113.577 39.3737 113.411 41.0044Z" fill="white"/>
<path d="M179.567 43.0011C179.7 44.9645 180.998 46.0959 182.895 45.9961C183.827 45.9295 184.725 45.7299 185.59 45.3305C185.99 45.1641 186.123 45.1974 186.256 45.5967C186.422 45.9628 186.556 46.3288 186.722 46.6949C186.822 46.9611 186.788 47.1608 186.522 47.2939C184.459 48.3255 182.296 48.6583 180.1 47.8264C178.569 47.2606 177.604 46.0626 177.138 44.5318C176.572 42.6683 176.605 40.838 177.338 39.041C178.236 36.8114 180.133 35.6799 182.662 35.7798C184.825 35.8796 186.489 37.2107 187.221 39.407C187.554 40.4387 187.62 41.5036 187.62 42.5684C187.62 42.9345 187.387 43.0011 187.088 43.0011C184.759 43.0011 182.396 43.0011 180.066 43.0011C179.867 43.0011 179.734 43.0011 179.567 43.0011ZM184.825 41.0044C184.825 39.2739 183.827 38.1092 182.363 38.0427C180.665 37.9428 179.734 39.4071 179.6 41.0044C181.331 41.0044 183.061 41.0044 184.825 41.0044Z" fill="white"/>
<path d="M87.2544 43.0009C87.321 44.8644 88.6853 46.0957 90.4491 45.9959C91.4474 45.9293 92.3792 45.7297 93.2444 45.3303C93.5772 45.1639 93.7769 45.2638 93.91 45.5966C94.0431 45.9959 94.2095 46.3619 94.3759 46.728C94.4757 46.9609 94.4424 47.1606 94.1762 47.2937C92.0797 48.3253 89.9166 48.6914 87.6537 47.8262C86.3226 47.2937 85.3908 46.2954 84.8917 44.9976C84.093 42.8678 84.1263 40.738 85.1246 38.6748C86.8551 35.0807 91.6471 35.114 93.5772 37.2771C94.5755 38.4085 95.0414 39.7396 95.1745 41.2039C95.2078 41.6365 95.2078 42.0691 95.2078 42.4684C95.2078 42.9343 95.108 43.0342 94.6421 43.0342C92.3126 43.0342 89.9832 43.0342 87.6537 43.0342C87.5539 43.0009 87.4208 43.0009 87.2544 43.0009ZM92.479 41.0042C92.479 39.0741 91.3476 38.109 90.083 38.0425C88.5522 37.9759 87.4208 39.1406 87.2877 41.0042C89.0181 41.0042 90.7486 41.0042 92.479 41.0042Z" fill="white"/>
<path d="M122.662 20.0058C122.629 21.9026 122.229 23.4999 120.998 24.7645C119.434 26.3951 117.471 26.7945 115.341 26.2287C113.244 25.6963 112.046 24.1988 111.514 22.1356C111.148 20.7712 111.181 19.3735 111.581 18.0091C112.346 15.3136 114.609 13.7495 117.404 13.9492C120.133 14.1489 122.096 16.0457 122.529 18.7745C122.596 19.2737 122.629 19.7396 122.662 20.0058ZM114.043 20.2054C114.043 21.1039 114.21 21.9692 114.642 22.7678C115.141 23.6663 115.873 24.1655 116.938 24.1655C118.003 24.1655 118.735 23.6663 119.234 22.7678C119.667 22.0357 119.833 21.237 119.833 20.4051C119.867 19.3069 119.7 18.242 119.035 17.3435C117.937 15.8128 115.774 15.8793 114.742 17.4434C114.243 18.2753 114.076 19.2071 114.043 20.2054Z" fill="white"/>
<path d="M74.5091 37.5767C75.1747 36.8446 75.8735 36.3455 76.7054 36.046C79.3011 35.1142 81.7304 36.6117 82.0299 39.3405C82.0965 39.7731 82.0965 40.239 82.0965 40.7049C82.0965 42.9345 82.0965 45.1641 82.0965 47.427C82.0965 47.9594 82.0299 48.026 81.4975 48.026C80.965 48.026 80.4658 48.026 79.9334 48.026C79.4675 48.026 79.401 47.9594 79.401 47.4603C79.401 45.2639 79.401 43.0343 79.401 40.838C79.401 40.5718 79.401 40.2723 79.3344 40.006C79.0349 38.4753 77.5374 37.8097 76.173 38.6084C75.0748 39.2739 74.7088 40.3388 74.6755 41.5368C74.6422 43.5002 74.6755 45.4636 74.6755 47.3937C74.6755 47.9927 74.6089 48.026 74.0432 48.026C73.5773 48.026 73.1114 48.026 72.6455 48.026C72.0133 48.026 71.98 47.9927 71.98 47.3604C71.98 44.8646 71.98 42.3688 71.98 39.8396C71.98 38.7748 71.98 37.7431 71.98 36.6782C71.98 36.1458 72.0465 36.0792 72.579 36.0792C72.9783 36.0792 73.4109 36.1125 73.8103 36.0792C74.2429 36.046 74.376 36.2456 74.4093 36.645C74.4426 36.9112 74.4758 37.1774 74.5091 37.5767Z" fill="white"/>
<path d="M153.544 37.4102C154.21 36.9776 154.809 36.4784 155.474 36.1457C158.136 34.9477 160.865 36.5783 161.065 39.4734C161.165 40.8045 161.131 42.1689 161.131 43.5001C161.131 44.7979 161.131 46.0957 161.131 47.4268C161.131 47.8927 161.065 47.9926 160.566 47.9926C160.033 47.9926 159.534 47.9926 159.002 47.9926C158.469 47.9926 158.436 47.926 158.436 47.4268C158.436 45.3303 158.436 43.2338 158.436 41.104C158.436 40.7713 158.436 40.4052 158.369 40.0724C158.236 39.2738 157.903 38.6082 157.072 38.3753C156.206 38.109 155.374 38.2754 154.709 38.9077C153.943 39.6398 153.71 40.5383 153.71 41.5367C153.71 43.4668 153.71 45.3636 153.71 47.2937C153.71 47.926 153.677 47.9593 153.012 47.9593C152.546 47.9593 152.08 47.9593 151.614 47.9593C151.048 47.9593 150.982 47.8927 150.982 47.3603C150.982 44.7313 150.982 42.1024 150.982 39.4402C150.982 38.5084 150.982 37.5766 150.982 36.6448C150.982 36.1457 151.048 36.0458 151.547 36.0458C152.013 36.0458 152.479 36.0458 152.945 36.0458C153.211 36.0458 153.378 36.1457 153.378 36.4452C153.478 36.8112 153.511 37.144 153.544 37.4102Z" fill="white"/>
<path d="M74.5091 15.68C74.8752 15.3805 75.1747 15.081 75.5074 14.8148C76.5391 14.0494 77.7038 13.7832 78.9683 14.0161C80.6988 14.3489 81.797 15.6134 81.9966 17.4437C82.0632 18.1093 82.0632 18.8081 82.0965 19.4737C82.0965 21.4703 82.0965 23.5003 82.0965 25.497C82.0965 26.0627 82.0299 26.096 81.4642 26.096C80.9983 26.096 80.4991 26.096 80.0332 26.096C79.4342 26.096 79.401 26.0627 79.401 25.4304C79.401 23.2673 79.401 21.1043 79.401 18.9079C79.401 18.6417 79.401 18.3755 79.3344 18.1093C79.2013 17.3439 78.8685 16.7116 78.0698 16.4787C77.2046 16.2124 76.4392 16.3788 75.7737 16.9446C74.975 17.6434 74.7088 18.5752 74.7088 19.6068C74.7088 21.5369 74.7088 23.5003 74.7088 25.4304C74.7088 26.0294 74.6755 26.0627 74.0765 26.0627C73.544 26.0627 73.0449 26.0627 72.5124 26.0627C72.1131 26.0627 71.98 25.8963 71.98 25.5302C71.98 24.4321 71.98 23.3339 71.98 22.2025C71.98 19.7399 71.98 17.2441 71.98 14.7815C71.98 14.2158 72.0465 14.1159 72.6123 14.1159C73.0116 14.1159 73.4442 14.1159 73.8435 14.1159C74.2096 14.0827 74.376 14.2823 74.4093 14.6151C74.4426 15.0477 74.4758 15.3472 74.5091 15.68Z" fill="white"/>
<path d="M127.421 15.6133C127.953 15.2139 128.453 14.7813 129.018 14.4818C131.814 13.0176 134.809 14.6149 134.975 17.7763C135.108 20.4053 135.042 23.0675 135.042 25.7297C135.042 26.0625 134.875 26.1956 134.542 26.1956C133.977 26.1623 133.411 26.1623 132.878 26.1956C132.512 26.1956 132.346 26.0625 132.346 25.6965C132.346 23.5001 132.346 21.2705 132.346 19.0742C132.346 18.8412 132.313 18.6083 132.279 18.3753C132.18 17.5767 131.847 16.9111 131.015 16.6449C130.15 16.3454 129.351 16.5118 128.685 17.1108C127.854 17.8429 127.621 18.8079 127.587 19.8396C127.587 21.7697 127.587 23.6665 127.587 25.5966C127.587 26.1956 127.554 26.2622 126.922 26.2622C126.423 26.2622 125.923 26.2622 125.457 26.2622C124.958 26.2622 124.925 26.1956 124.925 25.6965C124.925 22.7014 124.925 19.7064 124.925 16.7114C124.925 16.0792 124.925 15.4469 124.925 14.8479C124.925 14.4818 125.058 14.3154 125.424 14.3487C125.89 14.3487 126.389 14.3487 126.855 14.3487C127.155 14.3487 127.321 14.4818 127.354 14.8146C127.354 15.0143 127.388 15.3138 127.421 15.6133Z" fill="white"/>
<path d="M100.799 14.2488C101.531 14.2488 102.23 14.2488 102.928 14.2488C103.561 14.2488 103.594 14.2821 103.594 14.9477C103.594 15.2804 103.594 15.5799 103.594 15.9127C103.627 16.2788 103.461 16.4452 103.062 16.4452C102.429 16.4452 101.797 16.4452 101.198 16.4452C101.065 16.4452 100.932 16.4452 100.765 16.4452C100.765 16.6116 100.732 16.7447 100.732 16.8778C100.732 18.8745 100.732 20.8711 100.732 22.8678C100.732 22.9344 100.732 23.0009 100.732 23.0675C100.799 24.0325 101.198 24.3653 102.163 24.2322C102.463 24.1989 102.762 24.0991 103.062 24.0325C103.361 23.966 103.527 24.0658 103.561 24.3653C103.627 24.7979 103.661 25.2305 103.76 25.6631C103.794 25.8961 103.694 26.0292 103.494 26.129C102.329 26.5616 101.131 26.6948 99.9335 26.3287C98.802 25.9626 98.1365 24.9976 98.0699 23.6332C98.0366 22.6349 98.0366 21.6698 98.0366 20.6715C98.0366 17.6764 98.0366 14.7147 98.0366 11.7197C98.0366 11.0209 98.0699 11.0209 98.7355 10.9543C99.2013 10.921 99.634 10.8545 100.1 10.8212C100.666 10.7547 100.732 10.8545 100.732 11.3869C100.732 12.2522 100.732 13.1174 100.732 13.9826C100.765 14.0159 100.765 14.0824 100.799 14.2488Z" fill="white"/>
<path d="M135.041 39.5734C135.041 42.1691 135.041 44.7315 135.041 47.3272C135.041 47.9595 134.975 48.026 134.376 48.026C133.877 48.026 133.378 48.026 132.845 48.026C132.512 48.026 132.346 47.8596 132.346 47.5269C132.346 42.3022 132.346 37.0776 132.346 31.853C132.346 31.5202 132.479 31.3871 132.812 31.3538C133.411 31.3205 134.01 31.254 134.609 31.1874C134.875 31.1542 135.008 31.2873 135.041 31.5202C135.041 31.6533 135.041 31.7864 135.041 31.9195C135.041 34.4487 135.041 37.0111 135.041 39.5734Z" fill="white"/>
<path d="M153.511 17.7431C153.511 20.3387 153.511 22.9344 153.511 25.5301C153.511 26.0958 153.477 26.1624 152.912 26.1624C152.379 26.1624 151.814 26.1624 151.281 26.1624C150.982 26.1624 150.848 26.0293 150.815 25.7298C150.815 25.6299 150.815 25.5301 150.815 25.4635C150.815 20.372 150.815 15.3138 150.815 10.2223C150.815 9.59 150.882 9.52344 151.514 9.45688C151.98 9.4236 152.413 9.39033 152.878 9.32377C153.444 9.25722 153.544 9.32378 153.544 9.8895C153.511 12.5185 153.511 15.1474 153.511 17.7431Z" fill="white"/>
<path d="M126.356 37.5766C126.456 37.4435 126.522 37.2771 126.655 37.1773C127.487 36.3786 128.486 35.8794 129.65 35.8129C130.183 35.7796 130.249 35.8461 130.249 36.3453C130.249 36.911 130.249 37.4768 130.249 38.0092C130.249 38.5084 130.183 38.6082 129.617 38.5416C128.619 38.4085 127.787 38.7413 127.155 39.5067C126.589 40.2055 126.456 41.0042 126.456 41.8694C126.456 43.6997 126.456 45.53 126.456 47.3603C126.456 47.926 126.422 47.9593 125.857 47.9593C125.324 47.9593 124.792 47.9593 124.259 47.9593C123.927 47.9593 123.793 47.8262 123.793 47.4934C123.793 43.8328 123.793 40.2055 123.793 36.545C123.793 36.1789 123.927 36.0458 124.293 36.0458C124.759 36.0458 125.258 36.0458 125.724 36.0458C126.056 36.0458 126.189 36.1789 126.189 36.5117C126.223 36.8112 126.256 37.144 126.289 37.4435C126.256 37.51 126.323 37.5433 126.356 37.5766Z" fill="white"/>
<path d="M108.952 20.239C108.952 22.036 108.952 23.833 108.952 25.63C108.952 26.1291 108.918 26.1624 108.386 26.1624C107.853 26.1624 107.288 26.1624 106.755 26.1624C106.389 26.1624 106.256 26.0293 106.256 25.6633C106.256 22.1025 106.256 18.5085 106.256 14.9478C106.256 14.6483 106.389 14.4819 106.689 14.4486C107.288 14.3821 107.92 14.3155 108.519 14.2822C108.918 14.2489 108.952 14.4819 108.952 14.7814C108.952 16.5784 108.952 18.4087 108.952 20.239Z" fill="white"/>
<path d="M109.185 11.1207C109.185 12.0192 108.486 12.718 107.587 12.718C106.722 12.718 106.023 12.0192 106.023 11.154C106.023 10.2555 106.689 9.58992 107.554 9.55664C108.486 9.55664 109.185 10.2555 109.185 11.1207Z" fill="white"/>
</g>
<defs>
<clipPath id="clip0">
<rect width="200" height="60.5657" fill="white" transform="translate(0 0.837891)"/>
</clipPath>
</defs>
</svg>
