<svg width="200" height="80" viewBox="0 0 200 80" fill="none" xmlns="http://www.w3.org/2000/svg">
<g clip-path="url(#clip0)">
<path d="M32.2534 8.41183C37.2299 8.69352 37.3238 17.0973 31.4553 16.6747C31.4553 20.2898 31.4553 24.1395 31.4553 27.8015C31.4553 27.8015 43.9905 27.8015 44.0375 27.8015V34.8438H31.4553V49.21C32.8168 49.163 33.8027 49.163 35.1173 49.163C33.7558 56.7686 32.4412 64.7968 30.9858 72.6841C30.3285 75.6888 30.4224 79.0691 27.7464 79.0691C25.6806 79.0691 25.7745 76.8156 24.8825 72.5902C23.8497 66.9095 23.6619 66.0175 23.7088 65.9705C22.2065 57.6137 22.3004 57.1442 20.7041 49.21C21.69 49.21 24.3191 49.21 24.3191 49.21C24.3191 49.21 24.3191 34.8438 24.3191 34.7968H11.7839V27.7546C15.9154 27.7546 20.1877 27.7546 24.3191 27.7546V16.7686C18.7323 16.9564 18.4506 8.92826 23.521 8.41183C24.6008 6.11136 25.399 0.618408 27.9342 0.618408C30.798 0.618408 30.9858 6.01747 32.2534 8.41183Z" fill="white"/>
<path d="M8.7325 23.9988C8.77945 25.5481 8.68555 33.3415 8.68555 37.9894C8.68555 37.9894 7.55879 37.2382 7.2771 37.0504C6.24424 36.3462 5.49307 35.9237 4.3663 35.1256C2.72311 33.9988 0.234848 33.0129 0.234848 31.041C0.1879 29.3039 1.50245 28.7875 5.8217 25.8767C7.55879 24.703 8.30996 24.2335 8.7325 23.9988Z" fill="white"/>
<path d="M46.9952 23.9519C48.4506 24.8439 52.6759 27.473 54.5539 28.9754C57.6525 31.8862 52.629 34.2805 50.7511 35.5951C49.4365 36.4871 48.1689 37.3322 46.9482 38.0364V23.9519H46.9952Z" fill="white"/>
<path d="M164.601 55.1724C165.024 55.548 165.493 55.8767 166.01 56.1114C165.54 56.9565 164.695 57.6138 163.944 58.271C160.939 60.8532 156.761 63.0598 151.643 63.4823C142.864 64.1865 134.601 60.149 133.756 51.6513C133.193 46.1114 135.916 41.7922 138.967 39.4448C142.395 36.7687 147.183 35.0316 152.864 34.703C156.855 34.4682 161.456 34.8908 164.132 36.2992C165.211 36.9095 166.479 38.1771 166.291 39.7264C166.01 42.0269 162.488 42.5433 160.235 41.6983C156.949 40.4776 155.634 36.6748 151.221 36.7687C148.451 36.8156 146.057 38.5058 144.789 40.102C143.568 41.6044 142.488 44.2804 142.254 46.6278C141.549 53.2945 145.024 59.7264 151.737 60.2429C157.841 60.7593 161.127 57.7546 164.601 55.1724Z" fill="white"/>
<path d="M198.216 55.1724C198.638 55.548 199.108 55.8766 199.624 56.1114C199.155 56.9565 198.31 57.6137 197.559 58.271C194.507 60.9001 190.329 63.0597 185.258 63.4823C174.789 64.3274 166.244 58.5527 167.371 48.5997C167.793 44.7968 170 41.5104 172.488 39.4917C175.915 36.7687 180.939 34.9846 186.526 34.656C190.563 34.4212 195.258 34.8907 197.793 36.2522C198.779 36.8156 200.282 38.0363 199.859 39.9611C199.437 41.886 196.15 42.4494 193.991 41.6513C190.235 40.2898 188.263 35.548 182.817 37.0973C175.493 39.21 173.38 51.6982 179.39 57.7546C181.127 58.8813 182.864 60.0081 185.352 60.1959C191.221 60.7593 195.117 57.6137 198.216 55.1724Z" fill="white"/>
<path d="M84.5072 49.0222C82.3945 50.149 77.371 51.8391 75.6809 53.4823C74.1316 54.9846 73.9438 58.3649 75.6809 60.0081C78.9673 62.3086 82.4414 59.3039 84.8828 58.1302C84.8358 55.0785 85.0236 51.7452 84.7889 48.8344C84.648 48.8344 84.6011 48.9753 84.5072 49.0222ZM99.202 58.6466C99.4367 59.0222 99.5776 59.3978 99.8593 59.6795C97.5119 61.6044 92.1597 65.1255 87.5588 63.8579C86.0565 63.4353 85.0236 62.0269 84.9297 59.9612C82.1128 61.5574 79.5776 64.2335 74.3194 64.0457C70.2349 63.9048 66.3382 62.0739 65.8687 58.0832C65.4931 54.9377 67.6058 52.7781 69.5776 51.8391C73.8029 49.7264 81.2208 49.4447 84.9297 46.8156C84.9766 43.2945 85.1175 39.8673 82.4884 38.3649C80.1879 37.0504 74.4133 37.5199 74.3663 40.5246C74.3663 41.4635 74.8828 41.8391 75.2114 42.5903C73.1926 43.1537 71.5025 43.8109 69.4367 44.4682C68.9203 44.656 67.7936 45.1255 67.4649 45.0316C66.6198 44.8438 66.2912 43.2006 66.4321 42.4964C66.6198 41.4635 67.5588 40.4776 68.2161 39.8673C70.9391 37.3321 75.8217 35.548 80.6105 35.1255C85.6339 34.703 90.3757 36.2523 92.1597 39.0222C93.6621 41.3696 93.0987 47.4729 93.0987 51.4166C93.0987 53.3884 92.4884 59.5386 94.1316 60.2429C95.9626 61.041 98.0283 59.1161 99.202 58.6466Z" fill="white"/>
<path d="M112.348 37.2851C108.826 38.1771 107.277 41.6513 106.667 45.5949H122.394C122.113 40.102 118.263 35.7358 112.348 37.2851ZM132.254 45.6888V47.4729H106.573C106.761 51.7452 108.263 55.2663 110.939 57.4259C112.676 58.8344 115.258 59.8673 118.216 60.0551C123.427 60.4776 127.183 57.8485 130.235 55.4072C130.845 55.6888 131.221 56.1583 131.737 56.44C128.216 61.7452 120.282 64.656 111.455 63.9048C107.089 63.5292 102.817 61.3227 100.751 58.318C98.7794 55.4541 97.8874 50.9471 98.6856 47.0503C99.2489 44.3273 100.939 41.7452 102.676 40.055C105.869 36.9564 110.423 35.501 116.009 35.2194C121.972 34.9377 126.855 37.0973 129.061 40.9001C130.094 42.6372 130.235 44.8438 132.254 45.6888Z" fill="white"/>
<path d="M136.056 67.5198C136.103 67.8484 136.009 68.6935 135.962 68.9282C135.493 71.886 135.54 71.3695 135.117 73.9987C135.117 74.0925 134.883 75.3602 134.554 76.7686C134.93 76.9564 135.352 76.2052 135.634 76.0644C135.728 76.0174 135.728 76.2522 135.822 76.2991C135.493 76.6278 134.836 77.285 134.272 77.5198C134.084 77.5667 133.803 77.5667 133.709 77.285C133.286 76.9095 133.897 74.1395 134.225 72.3555C134.507 70.9001 134.742 69.6324 134.93 68.3648C134.695 68.3179 134.178 68.7404 134.178 68.7404C134.084 68.6465 133.991 68.6465 133.897 68.5057C134.46 68.0832 135.587 67.5667 136.056 67.5198Z" fill="white"/>
<path d="M156.526 67.6606H157.746C157.23 68.6935 156.667 69.6325 156.056 70.5245H155.493C155.728 69.4916 156.244 68.7405 156.526 67.6606Z" fill="white"/>
<path d="M110.657 69.3979C110.751 69.3979 110.845 69.3979 110.939 69.3979C110.892 70.1022 110.516 70.6656 110.423 71.2759C110.657 71.2759 110.751 71.2289 111.408 71.2759V71.9332C111.08 71.9332 110.423 71.9332 110.235 71.9332C110 73.1069 109.671 75.0317 109.53 76.0177C109.484 76.2994 109.437 76.5341 109.53 76.6749C110.094 76.7219 110.563 75.8299 110.704 75.7829C110.798 75.7829 110.845 75.8768 110.986 75.9238C110.423 76.628 109.343 77.7078 108.592 77.3792C108.545 77.3322 108.357 77.0036 108.404 76.7688C108.498 75.736 109.061 73.4355 109.155 71.9332H108.592C108.592 71.8393 108.592 71.5576 108.638 71.5576C108.873 71.5576 109.014 71.4637 109.249 71.2289C109.39 71.0881 109.718 70.8064 109.953 70.5717C110.235 70.243 110.423 69.8674 110.657 69.3979Z" fill="white"/>
<path d="M98.2628 71.98C97.9811 71.7452 98.0281 71.7452 97.6055 71.8861C96.9952 72.4025 96.4788 73.5762 96.4318 74.8907C96.3849 75.5011 96.5727 76.2992 96.9013 76.7687C97.2769 76.9095 97.6055 76.8156 97.8403 76.5809C98.5445 75.8767 98.8731 74.1396 98.6384 72.872C98.5914 72.4494 98.4506 72.2147 98.2628 71.98ZM98.8262 71.2288C99.1079 71.2757 99.4365 71.6044 99.6243 71.98C100.047 73.1067 99.859 74.9377 99.1079 75.9706C98.3567 76.7687 97.3238 77.6607 96.3849 77.426C95.1642 77.0973 95.2581 74.9377 95.4459 74.3274C95.6337 73.6701 95.6807 73.5293 95.9623 73.1067C96.4788 72.3555 97.0421 71.7452 97.6055 71.4635C97.8403 71.3696 98.2628 71.1349 98.8262 71.2288Z" fill="white"/>
<path d="M103.427 71.2757C103.709 71.4635 103.427 72.778 103.24 74.1865C103.286 74.1395 103.286 74.1865 103.333 74.1395C103.85 73.5292 104.085 73.1067 104.742 72.1677C105.634 71.2757 106.15 70.8531 106.573 71.4635C106.667 71.6043 106.573 72.4494 106.526 72.9658C106.338 74.1395 106.009 75.501 105.728 76.5339C105.728 76.6278 105.869 76.5808 105.963 76.5808C106.197 76.487 106.385 76.2522 106.901 75.5949C106.901 75.6419 107.136 75.7827 107.089 75.7827C106.056 77.1912 105.211 77.7546 104.742 77.332C104.272 76.8625 105.822 72.4494 105.399 72.1677C105.07 71.886 103.333 74.3743 103.099 74.9377C103.005 75.1254 102.723 76.44 102.676 77.379C102.347 77.379 101.972 77.379 101.596 77.379C101.784 75.6419 102.441 73.1067 102.394 72.4494C102.254 72.3085 101.972 72.8719 101.737 73.1536C101.737 73.1536 101.409 73.0597 101.362 73.0597C101.643 72.6372 102.066 72.0738 102.488 71.6043C102.676 71.4165 102.864 71.2287 103.052 71.0879C103.146 71.1818 103.239 71.1348 103.427 71.2757Z" fill="white"/>
<path d="M114.038 71.1817C114.272 71.2756 114.366 71.2756 114.366 71.6042C114.413 72.2146 113.944 73.623 113.803 74.6559C113.709 75.4071 113.803 75.2193 113.803 75.4071C114.319 74.2334 114.883 71.2756 116.009 71.1348C116.291 71.1348 116.338 71.1817 116.385 71.2756C116.62 71.6043 116.338 72.1676 116.197 72.4024C115.916 72.4024 115.587 72.2146 115.352 72.4024C114.789 72.8249 114.132 75.6888 113.474 77.3319C113.099 77.3319 112.817 77.3789 112.488 77.3319C112.441 76.6277 113.193 73.2005 113.24 72.8249C113.286 72.4493 113.286 72.2146 113.193 72.2615C113.005 71.9798 112.77 72.6371 112.535 72.731C112.488 72.778 112.347 72.6371 112.301 72.5432C112.535 72.4024 113.146 71.2756 114.038 71.1817Z" fill="white"/>
<path d="M129.624 74.3744C130.235 74.0927 130.704 73.9049 131.127 73.3416C131.596 72.6843 131.502 71.6984 131.033 71.7453C130.094 72.1209 129.671 73.2477 129.624 74.3744ZM132.207 71.5575C133.099 73.2946 130.892 74.2336 129.437 74.6561C129.249 75.5481 129.296 76.581 129.906 76.9096C130.939 77.0505 131.174 76.6279 131.831 76.2993C131.831 76.3462 132.019 76.4402 131.972 76.4871C130.845 77.5669 129.061 78.1303 128.404 76.8157C127.512 75.0786 129.249 70.8533 131.831 71.3228C131.972 71.3697 132.16 71.4636 132.207 71.5575Z" fill="white"/>
<path d="M169.53 72.5903C169.155 72.7781 168.873 72.6842 168.732 72.4494C168.591 72.2147 168.404 71.933 167.981 71.98C167.699 72.2617 167.512 72.7781 167.418 73.0598C166.901 74.8908 166.62 76.7217 167.371 76.9095C168.122 77.1443 168.544 76.2992 168.92 76.0645C169.014 76.0175 169.108 76.1114 169.249 76.1114C168.169 77.6607 166.291 78.0833 165.821 76.6748C165.211 74.7969 167.277 70.6184 169.155 71.3696C169.483 71.5105 169.812 72.1677 169.53 72.5903Z" fill="white"/>
<path d="M118.122 76.4401C118.686 76.4401 119.484 75.5011 119.953 74.8908C120 74.8438 120.282 72.9189 120.376 72.2617C118.78 72.2617 118.075 73.6701 117.981 75.1725C117.981 75.6419 118.028 76.1114 118.122 76.4401ZM121.643 71.3227C121.409 73.0598 121.127 74.7969 120.798 76.4401C120.845 76.487 120.892 76.534 120.939 76.534C121.174 76.534 121.362 76.0645 121.596 76.0645C121.596 76.1114 121.737 76.1584 121.69 76.2053C121.315 76.7218 120.704 77.4729 119.859 77.5199C119.484 77.0504 119.812 76.3462 119.859 75.6889C119.484 76.0175 118.122 77.4729 117.7 77.4729C117.183 77.4729 116.808 76.8626 116.949 75.6889C117.23 73.5762 118.686 71.1349 121.643 71.3227Z" fill="white"/>
<path d="M94.4132 68.5059C94.2254 69.3979 94.2254 69.8673 93.9907 70.9002C93.9907 70.9002 93.5212 70.9472 93.5212 70.9002C93.4743 70.3368 93.5212 69.9613 93.3804 69.5857C93.1456 68.9284 92.6761 68.6936 91.9719 68.4589C88.3099 67.8955 86.0095 72.3556 87.324 75.4542C88.4038 78.0833 92.0658 77.2382 93.1456 74.75C93.1456 74.75 93.5682 74.703 93.5212 74.7969C93.4273 75.642 93.0048 76.4871 92.9109 77.3321C91.925 77.1444 90.2348 77.7547 88.5916 77.5199C85.3052 77.0974 84.6949 72.8251 86.479 70.3368C88.216 67.9894 91.2207 67.5199 94.4132 68.5059Z" fill="white"/>
<path d="M161.221 71.3697C161.502 71.5575 161.221 72.872 161.033 74.2805C161.08 74.2335 161.08 74.2805 161.127 74.2335C161.643 73.6232 161.878 73.2007 162.535 72.2617C163.427 71.3697 163.944 70.9472 164.366 71.5575C164.46 71.6983 164.366 72.5434 164.319 73.0598C164.132 74.2335 163.803 75.595 163.521 76.6279C163.521 76.7218 163.662 76.6749 163.756 76.6749C163.991 76.581 164.179 76.3462 164.695 75.6889C164.695 75.7359 164.93 75.8767 164.883 75.8767C163.85 77.2852 163.005 77.8486 162.535 77.426C162.066 76.9566 163.615 72.5434 163.193 72.2617C162.864 71.98 161.127 74.4683 160.892 75.0317C160.798 75.2195 160.517 76.534 160.47 77.473C160.141 77.473 159.765 77.473 159.39 77.473C159.578 75.7359 160.235 73.2007 160.188 72.5434C160.047 72.4025 159.765 72.9659 159.531 73.2476C159.531 73.2476 159.202 73.1537 159.155 73.1537C159.437 72.7312 159.859 72.1678 160.282 71.6983C160.47 71.5105 160.657 71.3227 160.845 71.1819C160.986 71.2758 161.033 71.2758 161.221 71.3697Z" fill="white"/>
<path d="M177.84 71.3228C178.075 71.4167 178.169 71.4167 178.169 71.7454C178.216 72.3557 177.746 73.7641 177.606 74.797C177.512 75.5482 177.606 75.3604 177.606 75.5482C178.122 74.3745 178.685 71.4167 179.812 71.2759C180.094 71.2759 180.141 71.3228 180.188 71.4167C180.423 71.7454 180.188 72.3087 180 72.5435C179.718 72.5435 179.39 72.3557 179.155 72.5435C178.592 72.966 177.934 75.8299 177.277 77.4731C176.901 77.4731 176.62 77.52 176.291 77.4731C176.244 76.7688 176.995 73.3416 177.042 72.966C177.089 72.5904 177.089 72.3557 176.995 72.4026C176.807 72.1209 176.573 72.7782 176.338 72.8721C176.291 72.9191 176.15 72.7782 176.103 72.7313C176.338 72.5435 176.948 71.4167 177.84 71.3228Z" fill="white"/>
<path d="M151.784 68.5527C151.596 69.4447 151.596 69.9142 151.362 70.9471C151.362 70.9471 150.892 70.994 150.892 70.9471C150.845 70.3837 150.892 70.0081 150.751 69.6326C150.516 68.9753 150.047 68.7405 149.343 68.5058C145.681 67.9424 143.38 72.4025 144.695 75.5011C145.775 78.1302 149.437 77.2851 150.516 74.7969C150.516 74.7969 150.939 74.7499 150.892 74.8438C150.798 75.6889 150.376 76.534 150.282 77.379C149.296 77.1912 147.606 77.8016 145.962 77.5668C142.676 77.1443 142.066 72.872 143.85 70.3837C145.587 68.0363 148.592 67.5668 151.784 68.5527Z" fill="white"/>
<path d="M154.132 76.534C154.695 76.534 155.493 75.5951 155.963 74.9848C156.009 74.9378 156.291 73.0129 156.385 72.3557C154.789 72.3557 154.085 73.7641 153.991 75.2665C153.991 75.7359 154.038 76.2054 154.132 76.534ZM157.653 71.4167C157.418 73.1538 157.136 74.8909 156.808 76.534C156.855 76.581 156.901 76.6279 156.948 76.6279C157.183 76.6279 157.371 76.1585 157.606 76.1585C157.606 76.2054 157.747 76.2524 157.7 76.2993C157.324 76.8157 156.714 77.5669 155.869 77.6139C155.493 77.1444 155.822 76.4402 155.869 75.7829C155.493 76.1115 154.132 77.5669 153.709 77.5669C153.193 77.5669 152.817 76.9566 152.958 75.7829C153.24 73.6702 154.695 71.2289 157.653 71.4167Z" fill="white"/>
<path d="M172.347 74.3275C172.958 74.0458 173.427 73.858 173.85 73.2946C174.319 72.6373 174.225 71.6514 173.756 71.6984C172.817 72.1209 172.394 73.2477 172.347 74.3275ZM174.93 71.5575C175.822 73.2946 173.615 74.2336 172.16 74.6561C171.972 75.5481 172.019 76.581 172.629 76.9096C173.662 77.0505 173.897 76.6279 174.554 76.2993C174.554 76.3462 174.742 76.4402 174.648 76.4871C173.521 77.5669 171.737 78.1303 171.08 76.8157C170.188 75.0786 171.925 70.8533 174.507 71.3228C174.695 71.3697 174.883 71.4636 174.93 71.5575Z" fill="white"/>
</g>
<defs>
<clipPath id="clip0">
<rect width="200" height="78.8732" fill="white" transform="translate(0 0.571533)"/>
</clipPath>
</defs>
</svg>
