<svg width="316" height="56" viewBox="0 0 316 56" fill="none" xmlns="http://www.w3.org/2000/svg">
<rect width="315.684" height="55.0526" fill="black"/>
<path fill-rule="evenodd" clip-rule="evenodd" d="M142.211 6H134.754V46.4811H142.211V6ZM129.593 18.8286H122.424V21.0518C120.244 19.2844 117.434 18.2582 114.279 18.2582C106.708 18.2582 100.628 24.5304 100.628 32.6828C100.628 36.4461 102.005 39.8668 104.185 42.3764C106.651 45.2267 110.552 47.0514 114.68 47.0514C117.491 47.0514 120.13 46.1953 122.423 44.2566V46.4804H129.592L129.593 18.8286ZM122.137 36.7885C120.703 38.8412 118.236 40.2099 115.427 40.2099C111.239 40.2099 108.084 37.0165 108.084 32.6834C108.084 28.6934 110.895 25.1008 115.254 25.1008C117.964 25.0933 120.517 26.3619 122.137 28.521V36.7885ZM77.1127 46.4811V28.521C78.1446 27.0968 80.7268 25.1008 83.8804 25.1008C85.6019 25.1008 87.0923 25.6707 88.0678 26.6409C89.0995 27.6666 89.7315 29.0921 89.7315 31.8284V46.4811H97.1865V32.3994C97.1865 27.6677 96.1536 24.8741 94.3192 22.7076C92.0251 19.9712 88.5257 18.2599 84.683 18.2599C81.5857 18.2599 78.9476 19.3429 76.8252 21.0536V18.8292H69.6566V46.4811H77.1127ZM65.6415 18.8292H58.4711V21.0524C56.2916 19.285 53.4813 18.2587 50.3276 18.2587C42.7569 18.2587 36.6783 24.5304 36.6783 32.6834C36.6783 36.4467 38.054 39.8675 40.2334 42.3771C42.6999 45.2274 46.6002 47.052 50.7298 47.052C53.5402 47.052 56.1783 46.1957 58.4729 44.2573V46.4811H65.6422L65.6415 18.8292ZM58.1861 36.7892C56.7527 38.8418 54.2845 40.2106 51.4754 40.2106C47.288 40.2106 44.1337 37.0172 44.1337 32.6841C44.1337 28.6941 46.9441 25.1015 51.3031 25.1015C54.0127 25.0939 56.5659 26.3626 58.1861 28.5216V36.7892ZM29.7947 36.5613C28.5899 38.3859 26.1806 40.2106 23.1416 40.2106C18.6104 40.2106 15.4586 37.0172 15.4586 32.6841C15.4586 28.4649 18.6699 25.1015 22.9718 25.1015C25.6675 25.1015 27.9039 26.4703 29.3943 28.4076L34.6705 23.7894C32.0894 20.4832 27.7875 18.2593 22.97 18.2593C14.4814 18.2593 8 24.6437 8 32.6841C8 40.6671 14.3091 47.0526 22.913 47.0526C28.1321 47.0526 32.2616 45.1707 35.5312 40.8376L29.7947 36.5613Z" fill="#29DBFF"/>
<path fill-rule="evenodd" clip-rule="evenodd" d="M287.89 28.5219C288.907 27.0958 291.453 25.1016 294.565 25.1016C296.259 25.1016 297.73 25.6715 298.692 26.64C299.71 27.6669 300.331 29.0918 300.331 31.8313V46.4828H307.684V32.4006C307.684 27.6681 306.666 24.8738 304.856 22.7072C302.594 19.97 299.145 18.2593 295.356 18.2593C292.653 18.2533 290.027 19.1562 287.89 20.8251V6H280.539V46.4828H287.89V28.5219ZM271.492 36.5619C270.304 38.3855 267.928 40.2103 264.931 40.2103C260.464 40.2103 257.352 37.0178 257.352 32.6845C257.352 28.4653 260.519 25.1016 264.762 25.1016C267.419 25.1016 269.625 26.4693 271.094 28.4079L276.298 23.7895C273.753 20.482 269.512 18.2581 264.76 18.2581C256.392 18.2581 250 24.6428 250 32.6845C250 40.6661 256.222 47.0526 264.705 47.0526C269.851 47.0526 273.923 45.1707 277.146 40.8385L271.492 36.5619ZM249.719 18.4872C248.927 18.3732 248.305 18.2581 247.233 18.2581C243.896 18.2581 240.901 19.5708 239.26 21.6229V18.8291H232.188V46.4828H239.54V29.0918C240.445 27.4389 242.988 25.1016 246.213 25.1016C247.286 25.1016 248.362 25.2156 248.872 25.3863L249.719 18.4872ZM225.967 18.8291H218.898V21.0531C216.749 19.285 213.98 18.2581 210.869 18.2581C203.404 18.2581 197.41 24.5307 197.41 32.6845C197.41 36.4479 198.767 39.8683 200.916 42.3769C203.347 45.2278 207.194 47.0526 211.266 47.0526C214.035 47.0526 216.637 46.1976 218.9 44.2588V46.4828H225.969L225.967 18.8291ZM218.617 36.7899C217.203 38.8426 214.769 40.2103 212 40.2103C207.871 40.2103 204.762 37.0178 204.762 32.6845C204.762 28.6933 207.533 25.1016 211.829 25.1016C214.503 25.0934 217.019 26.3623 218.617 28.5219V36.7899ZM155.562 46.4828V28.5219C156.579 27.2092 158.841 25.1016 161.954 25.1016C163.367 25.1016 164.951 25.5576 166.083 26.8113C166.93 27.7809 167.439 29.0351 167.439 31.5437V46.4828H174.79V31.8295C174.79 30.6886 174.678 29.6629 174.565 28.7499C175.526 27.3249 178.015 25.1016 181.18 25.1016C182.595 25.1016 184.179 25.5576 185.309 26.8113C186.159 27.7809 186.666 29.0351 186.666 31.5437V46.4828H194.017V31.8295C194.017 27.7243 192.999 24.8725 191.246 22.7059C189.04 19.9688 185.42 18.2581 181.632 18.2581C177.56 18.2581 174.11 20.2541 171.906 22.5919C169.755 19.9665 166.42 18.2581 162.687 18.2581C160.03 18.2581 157.429 19.1144 155.279 21.0531V18.8291H148.21V46.4828H155.562Z" fill="white"/>
</svg>
