<svg width="200" height="58" viewBox="0 0 200 58" fill="none" xmlns="http://www.w3.org/2000/svg">
<g clip-path="url(#clip0)">
<path fill-rule="evenodd" clip-rule="evenodd" d="M192.637 56.7143C191.575 56.7143 190.018 56.1429 189.097 55.7143V51.7143H189.806C190.089 53.4286 190.726 55.7143 192.778 55.7143C193.912 55.7143 194.69 54.9291 194.69 53.8571C194.69 51.072 189.097 51.7143 189.097 47.928C189.097 45.5714 191.293 44.3566 193.345 44.3566C194.478 44.3566 195.398 44.7143 196.389 45.2137L196.177 48.4994H195.469C195.186 47.1429 194.761 45.3566 193.062 45.3566C192.142 45.3566 191.362 46.1429 191.362 47.0709C191.362 49.8571 197.026 49.2857 197.026 53.1429C197.026 55.6434 194.832 56.7143 192.637 56.7143ZM182.017 56.7143C181.026 56.7143 179.398 56.1429 178.478 55.7143V51.7143H179.186C179.469 53.4286 180.177 55.7143 182.23 55.7143C183.293 55.7143 184.071 54.9291 184.071 53.8571C184.071 51.072 178.549 51.7143 178.549 47.928C178.549 45.5714 180.744 44.3566 182.797 44.3566C183.858 44.3566 184.849 44.7143 185.77 45.2137L185.629 48.4994H184.92C184.567 47.1429 184.142 45.3566 182.442 45.3566C181.522 45.3566 180.814 46.1429 180.814 47.0709C180.814 49.8571 186.478 49.2857 186.478 53.1429C186.478 55.6434 184.213 56.7143 182.017 56.7143ZM179.186 2.64229C178.549 2.64229 177.77 2.71429 177.062 2.928V25C177.062 28.7863 178.549 29.7143 182.301 29.7143C189.946 29.7143 194.054 23.9291 194.054 16.6434C194.054 7.64229 187.681 2.64343 179.186 2.64343V2.64229ZM175.363 55C175.293 55.5006 175.08 55.928 174.938 56.4286H165.097V55.6434C167.009 55.3577 167.291 55.2857 167.362 53.2857C167.434 52.5714 167.434 51.8571 167.434 51.2137V49.6423C167.434 49 167.434 48.3577 167.362 47.7143C167.291 45.8571 166.938 45.5714 165.097 45.4286V44.6434H175.08L175.008 48.1429H174.23C174.16 47.5006 174.088 46.7143 173.593 46.2857C172.885 45.6423 170.974 45.6423 170.054 45.6423H169.77L169.699 49.6423C170.194 49.6423 172.177 49.7143 172.531 49.4286C172.743 49.2857 172.955 48.2857 173.026 48.072H173.735V52.928H172.955C172.814 51.4994 172.814 51.072 171.328 51.072H169.699V53.1429C169.77 54.7863 169.699 55.4286 171.61 55.4286C173.806 55.4286 174.726 53.7143 175.293 51.8571L176 52C175.787 53 175.646 54.072 175.363 55V55ZM164.106 56.4994C163.115 56.4994 162.194 56.4994 161.274 56.2857C158.655 55.7143 157.168 52.3577 155.965 50.2137C157.31 49.8571 158.371 49.5714 158.371 47.8571C158.371 46.1429 156.814 45.5714 155.398 45.4286V51.2857C155.398 54.072 154.832 55.3566 158.017 55.6434V56.4286H150.867V55.6434C153.487 55.2857 153.133 54.2857 153.133 51.8571V50.2857C153.133 49.4286 153.062 48.6423 153.062 47.7863C153.062 45.7863 152.638 45.6423 150.797 45.3566V44.6434C152.496 44.6434 154.194 44.5714 155.894 44.5714C157.947 44.5714 161.062 45 161.062 47.7143C161.062 49.2149 160 50 158.797 50.5006C159.787 52.5714 161.912 55.3577 164.248 55.7851V56.4994H164.106V56.4994ZM143.787 51.7851V51C145.558 50.7143 146.478 50.5006 146.478 48.3577C146.478 46.2857 144.496 45.5714 142.726 45.5006V50.7143C142.726 51.5006 142.797 52.2857 142.797 53.0709C142.867 55.2857 143.15 55.5006 145.416 55.6423V56.4286H138.123V55.6434C138.619 55.5714 139.752 55.4286 140.106 55C140.531 54.4286 140.461 51.7851 140.461 51C140.461 49.8571 140.672 46.5714 139.894 45.928C139.47 45.6423 138.69 45.5006 138.123 45.4286V44.7143C139.823 44.6434 141.522 44.5714 143.15 44.5714C145.274 44.5714 149.097 45.2149 149.097 48C149.097 51.1429 146.265 51.6434 143.787 51.7851V51.7851ZM195.752 25.9291C192.567 29.2149 187.894 31.1429 183.293 31.1429L167.291 31.2137H166.938C166.584 31.2857 166.018 31.2137 165.664 31.2137C161.84 31.1429 160.354 30.928 157.027 28.856C151.363 25.2857 148.814 21.2857 144.779 15.9291C148.035 15.9291 152.709 12.8571 152.709 9.28571C152.709 4.42857 147.894 2.64229 143.859 2.64229H143.787C143.717 10.0709 143.576 17.4286 143.576 24.8571C143.576 29.4286 145.062 29.2857 149.381 29.8571V31.2137H138.337C138.407 23.4286 138.619 15.7143 138.619 8C138.619 6.85714 138.619 3.92914 137.627 3.07086C136.991 2.49943 135.575 2.57143 134.726 2.57143V1.28571C138.549 1.21371 142.302 1.07086 146.054 1.07086C150.797 1.07086 158.371 1.928 158.371 8.28571C158.371 12.5006 154.832 15.2857 151.08 16.3566C153.77 19.5714 162.265 29.8571 166.797 29.8571C171.115 29.8571 172.319 28 172.319 23.7851V8.64228C172.319 4.07086 171.539 3.07086 166.938 2.35657V1.21371C171.045 1.14286 175.15 1.07086 179.256 1.07086C189.522 1.07086 200 3.85714 200 16.1429C200 19.8571 198.373 23.2857 195.752 25.9291V25.9291ZM128.071 45.9291C127.291 46.5006 124.602 51 124.602 51.7851C124.602 54.4286 124.248 55.3566 127.151 55.6434V56.4286H119.787V55.6434C122.619 55.3577 122.265 54.5006 122.265 51.9291C121.699 50.8571 119.222 46.4286 118.159 45.8571C117.735 45.5714 117.097 45.4286 116.673 45.4286V44.6434H122.832V45.3566C122.407 45.5006 121.487 45.5714 121.487 46.1429C121.487 46.7851 123.47 49.5714 123.965 50.3566C124.319 49.6423 125.735 47 125.735 46.1429C125.735 45.5714 125.026 45.4286 124.602 45.3566V44.6434H129.629V45.3566C129.062 45.5006 128.496 45.5714 128.071 45.928V45.9291ZM115.115 48.6423H114.974C114.407 45.7851 113.84 46 111.151 45.928V51.7851C111.151 54.5006 110.797 55.2857 113.629 55.6434V56.4286H106.407V55.6434C108.319 55.3577 108.744 55.2857 108.815 53.2857C108.885 52.3577 108.885 51.4994 108.885 50.5714C108.885 49 108.885 47.5006 108.815 45.928C106.054 45.928 105.558 45.7143 105.062 48.7143L104.283 48.6423C104.425 47.2857 104.495 45.928 104.567 44.6423C105.769 44.7143 106.974 44.8571 108.247 44.8571C109.451 44.8571 110.584 44.7863 111.787 44.7863C113.063 44.7863 114.336 44.7863 115.541 44.6434C115.541 44.8571 115.47 45.0709 115.47 45.2857C115.47 46.4286 115.61 47.5714 115.681 48.6434H115.115V48.6423ZM123.47 6.928C121.416 3.71429 118.442 1.57143 114.549 1.57143C106.619 1.57143 104.071 8.85714 104.071 15.6423C104.071 18.928 104.637 22.6434 106.407 25.4286C108.461 28.5714 111.575 30.7143 115.398 30.7143C123.539 30.7143 125.735 23.4286 125.735 16.4994C125.735 13.2857 125.168 9.64228 123.47 6.928V6.928ZM114.832 32.2857C105.274 32.2857 98.1234 25.9291 98.1234 16.0709C98.1234 6.21486 105.415 0 114.903 0C124.673 0 131.681 6.28571 131.681 16.3566C131.681 26.0709 124.177 32.2857 114.832 32.2857V32.2857ZM95.5749 56.4286V55.6434C97.4869 55.3577 97.8411 55.2857 97.912 53.2857V50.6434C97.912 49.6423 98.1234 46.4994 97.416 45.928C97.0617 45.6423 96.0709 45.4286 95.576 45.3566V44.6434H102.584V45.3566C99.9646 45.7863 100.177 46.6434 100.177 49.1429V51.5006C100.177 52 100.248 52.4994 100.248 53.0709C100.319 55.1429 100.531 55.4286 102.584 55.6423V56.4286H95.5749V56.4286ZM89.0617 56.7143C88.0709 56.7143 86.4423 56.1429 85.5223 55.7143V51.7143H86.2309C86.5132 53.4286 87.2217 55.7143 89.2743 55.7143C90.3371 55.7143 91.1143 54.9291 91.1143 53.8571C91.1143 51.072 85.5931 51.7143 85.5931 47.928C85.5931 45.5714 87.7874 44.3566 89.84 44.3566C90.9029 44.3566 91.8937 44.7143 92.8149 45.2137L92.6731 48.4994H91.9646C91.6103 47.1429 91.1863 45.3566 89.4869 45.3566C88.5669 45.3566 87.8583 46.1429 87.8583 47.0709C87.8583 49.8571 93.5223 49.2857 93.5223 53.1429C93.5223 55.6434 91.256 56.7143 89.0617 56.7143V56.7143ZM83.8937 56.4994C82.9737 56.4994 82.0537 56.4994 81.1326 56.2857C78.5131 55.7143 76.9554 52.3577 75.752 50.2137C77.0971 49.8571 78.2297 49.5714 78.2297 47.8571C78.2297 46.1429 76.6023 45.5714 75.1863 45.4286V51.2857C75.1863 54.072 74.6194 55.3566 77.8057 55.6434V56.4286H70.6549V55.6434C73.3451 55.2857 72.92 54.2857 72.92 51.8571V47.7863C72.8491 45.7863 72.496 45.6423 70.584 45.3566V44.6434C72.2834 44.6434 73.9829 44.5714 75.6811 44.5714C77.7349 44.5714 80.8491 45 80.8491 47.7143C80.8491 49.2149 79.8583 50 78.584 50.5006C79.6469 52.5714 81.7703 55.3577 84.1063 55.7851V56.4994H83.8937V56.4994ZM67.6103 56.4286H57.7703V55.6434C59.752 55.3577 60.0354 55.2857 60.1063 53.2857V47.7143C60.0354 45.8571 59.6103 45.5714 57.7703 45.4286V44.6434H67.8229L67.6811 48.1429H66.9726C66.832 47.5006 66.832 46.7143 66.2651 46.2857C65.5577 45.6423 63.7166 45.6423 62.7257 45.6423H62.4434L62.3714 49.6423C62.8674 49.6423 64.8491 49.7143 65.2743 49.4286C65.4869 49.2857 65.6994 48.2857 65.7703 48.072H66.4789V48.2857C66.4789 49.7863 66.4069 51.3566 66.4069 52.928H65.6983C65.5577 51.4994 65.4869 51.072 64 51.072H62.3714L62.4434 53.1429C62.4434 54.7863 62.4434 55.4286 64.3543 55.4286C66.4777 55.4286 67.3989 53.7143 67.9657 51.8571L68.6731 52C68.4606 53.5714 68.1063 54.9291 67.6103 56.4286V56.4286ZM55.2926 46C54.3017 46.9291 50.6903 55.5006 49.9817 57.1429H49.6274L45.3097 47.2137C44.744 45.928 44.3189 45.5714 42.9029 45.3577V44.6434H49.4857V45.3566C49.0606 45.4286 47.7154 45.6423 47.7154 46.2857C47.7154 47.2149 50.0526 52.2857 50.5474 53.2137C50.9017 52.2857 53.1669 47.3566 53.1669 46.3566C53.1669 45.7143 51.6811 45.4994 51.1851 45.3577V44.6434H56.7771V45.3566C56.2823 45.5006 55.6457 45.6423 55.2914 46H55.2926ZM35.1863 56.4286V55.6434C37.0971 55.3577 37.3806 55.2857 37.4514 53.2857C37.5223 52.4286 37.5223 51.4994 37.5223 50.6434C37.5223 49.6423 37.664 46.4994 36.9566 45.928C36.6023 45.6423 35.6103 45.4286 35.1851 45.3566V44.6434H42.1943V45.3566C39.504 45.7863 39.7874 46.6434 39.7874 49.1429V51.5006C39.7874 52 39.7874 52.4994 39.8583 53.0709C39.9291 55.1429 40.1417 55.4286 42.1943 55.6423V56.4286H35.1863V56.4286ZM94.3006 7.78514C93.664 2.57143 88.92 2.78629 84.8846 2.78629H82.1943V14.3566H85.3097C87.1497 14.3566 88.9909 14.3566 90.7611 14.0709V21.4994H89.6983C89.416 15.8571 86.9383 16.7851 82.1943 16.7851V24.1429C82.1943 29.4286 82.832 29.1429 87.8583 30.072V31.2149H58.4069L50.4069 18.5714C49.1326 20.1429 44.9554 25.8571 44.9554 27.6434C44.9554 29.2149 47.1497 29.7143 48.2834 30.1429L48.2126 31.2137H35.0446V29.8571C40.4251 29.5714 41.9817 27.4286 44.8137 23.2137L49.2034 16.928L44.4606 9C42.336 5.49943 39.6457 2.50057 35.328 2.42857V1.07086H45.3097L52.6731 12.5714C53.7349 10.928 57.1326 6 57.1326 4.21486C57.1326 2.64229 55.08 2.57143 53.9474 2.35771V1.07086H66.6194V2.35771C61.5223 2.71429 59.6103 4.92914 56.9211 9C55.8583 10.7143 54.7966 12.3566 53.664 14.0709L59.8926 23.8571C61.8046 26.8571 64.1417 29.8571 68.0354 29.8571C72.496 29.8571 77.168 29.5714 77.168 24V7.71429C77.168 3.35657 76.248 2.78629 71.9291 2.14286V1H95.08L95.5749 7.78514H94.3006ZM31.7177 46C31.0091 46.7143 31.2217 55.5006 31.2217 56.4286H30.4423C27.9646 53.5714 25.2034 51 22.6549 48.2137V52.9291C22.7257 55.3566 23.4343 55.5006 25.6286 55.6434V56.4286H19.0446V55.6434C20.8137 55.4286 21.2389 55 21.3097 53.2857C21.3806 51.928 21.4514 50.5714 21.4514 49.2149V47.5714C21.4514 47.3566 21.3806 47.0709 21.3806 46.8571C20.5314 45.8571 20.0354 45.6423 18.7611 45.3566V44.6434H22.8674C23.7874 46.3577 28.3897 50.7851 30.0183 52.5714C30.0183 51.7851 30.0891 51.072 30.0891 50.2857C30.0891 49.5006 30.0183 48.7143 29.9463 47.928C29.8766 45.7143 29.0971 45.5006 27.0434 45.4286V44.6434C29.1434 44.7143 31.2452 44.7143 33.3451 44.6434V45.3566C32.8503 45.4286 32.1417 45.5714 31.7166 46H31.7177ZM25.344 6.928C23.2914 3.71429 20.3177 1.57143 16.4949 1.57143C8.49486 1.57143 5.94629 8.78514 5.94629 15.6423C5.94629 18.928 6.512 22.6434 8.35314 25.4286C10.4057 28.4994 13.5211 30.6434 17.2731 30.6434C25.4857 30.6434 27.6091 23.3577 27.6091 16.5006C27.6091 13.2857 27.0434 9.64343 25.344 6.928V6.928ZM10.1257 56.7863C7.08114 56.7863 5.02857 56.2149 4.60343 52.928C4.46171 51.4286 4.39086 49.8571 4.17829 48.3566C4.03657 47.2857 3.824 45.7143 2.47886 45.5714H1.62971V44.6434C3.25829 44.6434 4.95657 44.6434 6.58514 44.5714C6.656 47.3566 6.79771 50.2137 7.152 53C7.29371 54.7143 8.63771 55.5006 10.1966 55.5006C11.5417 55.5006 12.8149 55 13.1691 53.5714C13.5943 51.7851 13.8777 49.5006 13.8777 47.7143C13.8777 46.2149 13.0274 45.4286 11.6114 45.4286V44.6434H17.9131V45.4286C12.1783 45.4286 17.984 56.7863 10.1257 56.7863V56.7863ZM16.7771 32.2857C7.152 32.2857 0 25.9291 0 16C0 6.14286 7.29143 0 16.7783 0C26.5497 0 33.5577 6.21371 33.5577 16.2857C33.5577 26.0709 26.1234 32.2857 16.7794 32.2857H16.7771Z" fill="#002147"/>
</g>
<defs>
<clipPath id="clip0">
<rect width="200" height="57.1429" fill="white"/>
</clipPath>
</defs>
</svg>
