<svg width="160" height="75" viewBox="0 0 160 75" fill="none" xmlns="http://www.w3.org/2000/svg">
<g clip-path="url(#clip0_908_1211)">
<path d="M78.538 66.6805C79.056 68.6466 80.9496 69.6937 83.2666 69.6937C86.4525 69.6937 87.8728 67.8501 87.8728 66.0567C87.8728 64.0405 86.4803 62.9711 84.0631 62.0465C82.3922 61.4227 81.3228 60.8992 81.3228 59.7797C81.3228 58.6602 82.1694 58.1645 83.2945 58.1645C83.7311 58.1356 84.1663 58.2385 84.5437 58.46C84.9211 58.6815 85.2233 59.0112 85.411 59.4065L86.9036 58.6379C86.5802 57.9571 86.0619 57.3877 85.4144 57.0019C84.7668 56.6162 84.0193 56.4315 83.2666 56.4713C81.0388 56.4713 79.4793 57.8414 79.4793 59.7797C79.4793 61.7179 80.8995 62.6481 82.8935 63.4445C84.8874 64.241 86.0292 64.6866 86.0292 66.0567C86.0292 66.7808 85.5836 67.9727 83.2444 67.9727C81.3785 67.9727 80.3815 67.0314 80.0808 66.079L78.538 66.6805ZM88.6971 63.2663C88.6971 67.1651 91.287 69.716 95.0242 69.716C95.9844 69.7544 96.9408 69.5737 97.8209 69.1878C98.7009 68.8018 99.4816 68.2205 100.104 67.4881L98.884 66.2962C98.4179 66.8639 97.8272 67.3165 97.1578 67.6188C96.4884 67.9211 95.7583 68.0651 95.0242 68.0395C92.3786 68.0395 90.6409 66.2684 90.5406 63.5058H100.722C100.722 63.1326 100.722 62.7093 100.722 62.7093C100.722 59.245 98.4273 56.4602 94.9407 56.4602C91.3594 56.4602 88.6692 59.1002 88.6692 63.1438L88.6971 63.2663ZM90.6632 61.8962C90.7857 59.8577 92.6794 58.1868 94.9685 58.1868C95.9653 58.1763 96.9258 58.5604 97.6405 59.2553C98.3552 59.9502 98.7662 60.8995 98.7837 61.8962H90.6632ZM103.267 71.4871L102.32 72.9575C104.043 74.2265 106.129 74.9063 108.269 74.8958C109.787 74.9363 111.276 74.4721 112.502 73.5758C114.373 72.1054 114.496 70.039 114.496 67.3266V56.8445H112.652V58.7103C112.028 57.6409 110.664 56.4824 108.196 56.4824C106.496 56.5321 104.882 57.2425 103.697 58.4628C102.511 59.6831 101.849 61.3173 101.849 63.0185C101.849 64.7196 102.511 66.3538 103.697 67.5741C104.882 68.7944 106.496 69.5048 108.196 69.5545C110.664 69.5545 112.028 68.3848 112.652 67.3266V68.3681C112.652 69.7383 112.502 71.3089 111.36 72.2669C110.456 72.9164 109.358 73.2403 108.247 73.1859C106.442 73.1991 104.687 72.6003 103.267 71.4871ZM103.691 63.0212C103.691 60.2364 105.607 58.1868 108.196 58.1868C109.447 58.2293 110.631 58.7558 111.501 59.6551C112.37 60.5545 112.856 61.7565 112.856 63.0073C112.856 64.2582 112.37 65.4601 111.501 66.3595C110.631 67.2589 109.447 67.7854 108.196 67.8279C105.607 67.8279 103.691 65.7838 103.691 63.0212ZM116.612 64.8592C116.612 67.6775 118.328 69.5934 121.118 69.5934C123.313 69.5934 124.555 68.6466 125.128 67.7777C125.191 68.2366 125.384 68.6677 125.685 69.0198C125.887 69.2182 126.13 69.3707 126.396 69.4668C126.662 69.563 126.946 69.6004 127.228 69.5767C127.629 69.6088 128.031 69.5399 128.398 69.3762V67.9838C128.183 68.0116 127.968 68.0283 127.752 68.0339C127.055 68.0339 126.805 67.5605 126.805 66.4633V56.8278H124.961V64.3245C124.961 66.441 123.541 67.8557 121.553 67.8557C119.564 67.8557 118.439 66.5413 118.439 64.4471V56.8445H116.596L116.612 64.8592ZM129.812 69.3929H131.656V62.0855C131.629 61.6268 131.697 61.1674 131.856 60.7362C132.015 60.3049 132.26 59.911 132.578 59.5791C132.896 59.2472 133.279 58.9843 133.703 58.8071C134.127 58.6298 134.583 58.5419 135.042 58.5488C135.46 58.5402 135.877 58.5832 136.284 58.6769V56.6829C136.03 56.649 135.773 56.6322 135.516 56.6328C134.715 56.5945 133.922 56.7941 133.235 57.2064C132.548 57.6188 131.998 58.2255 131.656 58.9498V56.8333H129.812V69.3929ZM136.557 63.1159C136.55 64.4394 136.935 65.7355 137.665 66.8397C138.394 67.9439 139.435 68.8066 140.656 69.3185C141.877 69.8303 143.222 69.9683 144.521 69.7148C145.82 69.4613 147.014 68.8279 147.953 67.8947C148.892 66.9616 149.532 65.7708 149.793 64.4732C150.054 63.1757 149.924 61.8298 149.419 60.6063C148.915 59.3827 148.058 58.3366 146.958 57.6004C145.858 56.8643 144.564 56.4713 143.241 56.4713C142.362 56.4548 141.489 56.6151 140.673 56.9427C139.857 57.2703 139.115 57.7585 138.492 58.3783C137.869 58.9981 137.376 59.7368 137.044 60.5507C136.711 61.3645 136.546 62.2369 136.557 63.1159ZM138.401 63.1159C138.421 62.1643 138.721 61.2396 139.264 60.4579C139.807 59.6762 140.569 59.0721 141.454 58.7216C142.339 58.371 143.307 58.2894 144.238 58.4871C145.17 58.6848 146.022 59.153 146.688 59.8329C147.354 60.5129 147.804 61.3743 147.983 62.3093C148.161 63.2442 148.06 64.2111 147.691 65.0887C147.323 65.9662 146.703 66.7154 145.91 67.2423C145.118 67.7693 144.187 68.0504 143.235 68.0506C142.589 68.0625 141.946 67.9422 141.348 67.6971C140.749 67.452 140.207 67.0873 139.754 66.6253C139.302 66.1633 138.948 65.6137 138.716 65.0103C138.483 64.4068 138.376 63.7622 138.401 63.1159ZM150.654 66.6805C151.178 68.6466 153.071 69.6937 155.388 69.6937C158.574 69.6937 159.994 67.8501 159.994 66.0567C159.994 64.0405 158.596 62.9711 156.185 62.0465C154.542 61.4227 153.445 60.8992 153.445 59.7797C153.445 58.6602 154.28 58.1868 155.394 58.1868C155.831 58.1563 156.267 58.2586 156.644 58.4803C157.022 58.7019 157.324 59.0325 157.51 59.4288L159.003 58.6602C158.687 57.9784 158.174 57.4061 157.532 57.0163C156.889 56.6265 156.145 56.4368 155.394 56.4713C153.166 56.4713 151.607 57.8414 151.607 59.7797C151.607 61.7179 153.027 62.6481 155.021 63.4445C157.015 64.241 158.156 64.6866 158.156 66.0567C158.156 66.7808 157.705 67.9727 155.372 67.9727C153.5 67.9727 152.503 67.0314 152.208 66.079L150.654 66.6805Z" fill="white"/>
<path d="M42.7807 9.94204C41.8785 9.94204 40.9965 9.67451 40.2464 9.17328C39.4962 8.67205 38.9116 7.95963 38.5663 7.12611C38.2211 6.2926 38.1307 5.37542 38.3067 4.49056C38.4828 3.6057 38.9172 2.79291 39.5552 2.15497C40.1931 1.51702 41.0059 1.08257 41.8907 0.906564C42.7756 0.730555 43.6928 0.820889 44.5263 1.16614C45.3598 1.5114 46.0722 2.09606 46.5735 2.84621C47.0747 3.59635 47.3422 4.47829 47.3422 5.38048C47.343 5.97972 47.2255 6.57321 46.9965 7.12698C46.7675 7.68075 46.4315 8.1839 46.0078 8.60762C45.5841 9.03135 45.0809 9.36733 44.5272 9.59631C43.9734 9.82529 43.3799 9.94277 42.7807 9.94204ZM84.2692 9.94204C84.869 9.94499 85.4635 9.82902 86.0183 9.60082C86.573 9.37263 87.0771 9.03674 87.5012 8.61257C87.9254 8.1884 88.2613 7.68437 88.4895 7.1296C88.7177 6.57483 88.8337 5.98034 88.8307 5.38048C88.8373 4.46886 88.5726 3.57589 88.0703 2.81515C87.5679 2.05441 86.8506 1.46029 86.0097 1.10837C85.1687 0.756453 84.242 0.662643 83.3476 0.838874C82.4532 1.01511 81.6313 1.45341 80.9867 2.09804C80.3421 2.74266 79.9038 3.56447 79.7275 4.45891C79.5513 5.35335 79.6451 6.28 79.9971 7.12097C80.349 7.96195 80.9431 8.67923 81.7038 9.18159C82.4646 9.68394 83.3575 9.94865 84.2692 9.94204ZM24.2169 36.955C25.1637 36.0429 25.9094 34.943 26.4063 33.7258C26.9031 32.5087 27.1401 31.2011 27.102 29.887C27.1396 28.5738 26.9024 27.2673 26.4056 26.0511C25.9088 24.8349 25.1633 23.7359 24.2169 22.8247C23.3015 21.9052 22.2091 21.1808 21.0057 20.6955C19.8024 20.2101 18.5131 19.9738 17.2159 20.0009C15.9377 19.9739 14.6677 20.2108 13.4851 20.6967C12.3026 21.1825 11.2329 21.9069 10.3429 22.8247C9.4467 23.7639 8.74634 24.872 8.28258 26.0844C7.81881 27.2969 7.60092 28.5895 7.64159 29.887C7.60049 31.1854 7.81816 32.479 8.28192 33.6925C8.74569 34.9059 9.44628 36.0149 10.3429 36.955C11.2307 37.8775 12.2994 38.6069 13.482 39.0976C14.6646 39.5882 15.9357 39.8296 17.2159 39.8066C18.5135 39.833 19.803 39.5958 21.0064 39.1095C22.2098 38.6232 23.302 37.8978 24.2169 36.9772V36.955ZM34.2424 46.9302C32.742 46.9872 31.2543 46.6369 29.937 45.9166C29.2433 45.4357 28.6522 44.8217 28.198 44.1103C27.7439 43.3989 27.4357 42.6043 27.2914 41.7727C25.0635 45.1758 21.3207 46.8411 16.1799 46.8411C14.0196 46.8857 11.8743 46.4742 9.88383 45.6335C7.89339 44.7928 6.10261 43.5418 4.6284 41.9621C1.5428 38.6927 0 34.7048 0 29.887C0 25.0693 1.5428 21.0925 4.6284 17.8788C6.10324 16.2984 7.89492 15.047 9.88638 14.2063C11.8778 13.3655 14.0243 12.9544 16.1855 12.9998C21.3875 12.9998 25.3086 15.3112 26.5284 18.3912V1.30905H34.2312L34.2424 46.9302ZM46.7853 14.214H39.0768V38.7205C39.0768 44.1788 41.8617 46.9414 46.7853 46.9414C46.8577 46.9414 46.7853 14.2028 46.7853 14.2028V14.214ZM88.1234 14.2028H80.4094V38.7094C80.4094 44.1677 82.9213 46.9302 87.8672 46.9302H88.1234V14.2028ZM110.09 13.0889C108.145 13.0613 106.233 13.5903 104.579 14.6137C102.925 15.637 101.599 17.112 100.755 18.8647V14.214H93.1138V46.9024H100.755V27.9655C100.755 23.5098 103.774 20.4576 108.08 20.4576C112.385 20.4576 114.886 23.2424 114.886 27.648V38.4532C114.886 44.1064 117.392 46.9302 122.466 46.9302V25.5037C122.466 18.1016 117.364 13.0833 110.068 13.0833L110.09 13.0889ZM149.952 37.0329C150.898 36.1201 151.644 35.0202 152.142 33.8033C152.639 32.5864 152.878 31.2793 152.843 29.965C152.88 28.6514 152.641 27.3447 152.143 26.1286C151.646 24.9124 150.899 23.8136 149.952 22.9027C149.037 21.9821 147.945 21.2568 146.742 20.7704C145.538 20.2841 144.249 20.0469 142.951 20.0733C141.673 20.0462 140.404 20.2835 139.222 20.7704C138.04 21.2573 136.972 21.9833 136.084 22.9027C135.187 23.8411 134.486 24.9491 134.022 26.1617C133.558 27.3744 133.341 28.6674 133.383 29.965C133.346 31.2631 133.567 32.5556 134.035 33.7672C134.503 34.9787 135.207 36.0851 136.106 37.0218C136.995 37.9394 138.064 38.6638 139.245 39.1496C140.427 39.6355 141.696 39.8724 142.974 39.8456C144.271 39.8717 145.56 39.635 146.763 39.1497C147.966 38.6644 149.059 37.9406 149.975 37.0218L149.952 37.0329ZM160 46.7743C158.499 46.8276 157.012 46.4755 155.695 45.755C155.014 45.3178 154.43 44.7466 153.977 44.0764C153.524 43.4062 153.212 42.6508 153.06 41.8563C150.832 45.2593 147.09 46.9302 141.921 46.9302C139.762 46.9693 137.62 46.5536 135.632 45.7101C133.645 44.8666 131.858 43.6143 130.386 42.0345C127.3 38.7595 125.763 34.7939 125.763 29.9595C125.763 25.125 127.3 21.1594 130.386 17.9512C131.862 16.3717 133.653 15.1208 135.645 14.2801C137.636 13.4395 139.782 13.0279 141.943 13.0722C147.145 13.0722 151.061 15.3836 152.286 18.4636V13.7684H159.994L160 46.7743ZM78.4099 9.86964C78.4099 9.86964 75.586 9.83622 74.6448 9.86964C72.0771 9.95875 70.2893 12.0975 69.426 14.0469C68.5627 15.9963 62.5029 35.8299 62.5029 35.8299L62.3803 36.0304C62.3803 36.0304 59.5955 29.7812 58.7601 27.8931C57.9246 26.005 55.7134 24.9969 53.1403 24.9078C52.199 24.8743 49.3752 24.9078 49.3752 24.9078L59.5955 46.908H66.1399L78.4099 9.86964Z" fill="white"/>
<path d="M159.998 33.9985L159.994 13.7684H152.286V18.4636C151.061 15.3836 147.145 13.0722 141.943 13.0722C139.782 13.0279 137.636 13.4395 135.645 14.2801C133.653 15.1208 131.862 16.3717 130.386 17.9512C127.3 21.1594 125.763 25.125 125.763 29.9595C125.763 31.3792 125.896 32.7241 126.161 33.9985H134.128C134.096 33.9218 134.065 33.8447 134.035 33.7672C133.567 32.5556 133.346 31.2631 133.383 29.965C133.341 28.6674 133.558 27.3744 134.022 26.1617C134.486 24.9491 135.187 23.8411 136.084 22.9027C136.972 21.9833 138.04 21.2573 139.222 20.7704C140.404 20.2835 141.673 20.0462 142.951 20.0733C144.249 20.0469 145.538 20.2841 146.742 20.7704C147.945 21.2568 149.037 21.9821 149.952 22.9027C150.899 23.8136 151.646 24.9124 152.143 26.1286C152.641 27.3447 152.88 28.6514 152.843 29.965C152.878 31.2793 152.639 32.5864 152.142 33.8033C152.115 33.8687 152.088 33.9338 152.059 33.9985H159.998Z" fill="white"/>
<path d="M122.466 33.9985V25.5037C122.466 18.1016 117.364 13.0833 110.068 13.0833L110.09 13.0889C108.145 13.0613 106.233 13.5903 104.579 14.6137C102.925 15.637 101.599 17.112 100.755 18.8647V14.214H93.1138V33.9985H100.755V27.9655C100.755 23.5098 103.774 20.4576 108.08 20.4576C112.385 20.4576 114.886 23.2424 114.886 27.648V33.9985H122.466Z" fill="white"/>
<path d="M88.1234 33.9985V14.2028H80.4094V33.9985H88.1234Z" fill="white"/>
<path d="M70.4165 33.9985L78.4099 9.86964C78.4099 9.86964 75.586 9.83622 74.6448 9.86964C72.0771 9.95875 70.2893 12.0975 69.426 14.0469C68.724 15.632 64.586 29.0423 63.0642 33.9985H70.4165Z" fill="white"/>
<path d="M61.4752 33.9985C60.5852 32.0003 59.2861 29.0821 58.7601 27.8931C57.9246 26.005 55.7134 24.9969 53.1403 24.9078C52.199 24.8743 49.3752 24.9078 49.3752 24.9078L53.5983 33.9985H61.4752Z" fill="white"/>
<path d="M46.8156 33.9985C46.8088 24.8484 46.7853 14.2028 46.7853 14.2028V14.214H39.0768V33.9985H46.8156Z" fill="white"/>
<path d="M34.2392 33.9985L34.2312 1.30905H26.5284V18.3912C25.3086 15.3112 21.3875 12.9998 16.1855 12.9998C14.0243 12.9544 11.8778 13.3655 9.88638 14.2063C7.89492 15.047 6.10324 16.2984 4.6284 17.8788C1.5428 21.0925 0 25.0693 0 29.887C0 31.3311 0.138605 32.7006 0.415815 33.9985H8.40483C8.36218 33.8973 8.3212 33.7953 8.28192 33.6925C7.81816 32.479 7.60049 31.1854 7.64159 29.887C7.60092 28.5895 7.81881 27.2969 8.28258 26.0844C8.74634 24.872 9.4467 23.7639 10.3429 22.8247C11.2329 21.9069 12.3026 21.1825 13.4851 20.6967C14.6677 20.2108 15.9377 19.9739 17.2159 20.0009C18.5131 19.9738 19.8024 20.2101 21.0057 20.6955C22.2091 21.1808 23.3015 21.9052 24.2169 22.8247C25.1633 23.7359 25.9088 24.8349 26.4056 26.0511C26.9024 27.2673 27.1396 28.5738 27.102 29.887C27.1401 31.2011 26.9031 32.5087 26.4063 33.7258C26.3689 33.8174 26.3301 33.9083 26.2899 33.9985H34.2392Z" fill="white"/>
<path d="M40.2464 9.17328C40.9965 9.67451 41.8785 9.94204 42.7807 9.94204C43.3799 9.94277 43.9734 9.82529 44.5272 9.59631C45.0809 9.36733 45.5841 9.03135 46.0078 8.60762C46.4315 8.1839 46.7675 7.68075 46.9965 7.12698C47.2255 6.57321 47.343 5.97972 47.3422 5.38048C47.3422 4.47829 47.0747 3.59635 46.5735 2.84621C46.0722 2.09606 45.3598 1.5114 44.5263 1.16614C43.6928 0.820889 42.7756 0.730555 41.8907 0.906564C41.0059 1.08257 40.1931 1.51702 39.5552 2.15497C38.9172 2.79291 38.4828 3.6057 38.3067 4.49056C38.1307 5.37542 38.2211 6.2926 38.5663 7.12611C38.9116 7.95963 39.4962 8.67205 40.2464 9.17328Z" fill="white"/>
<path d="M86.0183 9.60082C85.4635 9.82902 84.869 9.94499 84.2692 9.94204C83.3575 9.94865 82.4646 9.68394 81.7038 9.18159C80.9431 8.67923 80.349 7.96195 79.9971 7.12097C79.6451 6.28 79.5513 5.35335 79.7275 4.45891C79.9038 3.56447 80.3421 2.74266 80.9867 2.09804C81.6313 1.45341 82.4532 1.01511 83.3476 0.838874C84.242 0.662643 85.1687 0.756453 86.0097 1.10837C86.8506 1.46029 87.5679 2.05441 88.0703 2.81515C88.5726 3.57589 88.8373 4.46886 88.8307 5.38048C88.8337 5.98034 88.7177 6.57483 88.4895 7.1296C88.2613 7.68437 87.9254 8.1884 87.5012 8.61257C87.0771 9.03674 86.573 9.37263 86.0183 9.60082Z" fill="white"/>
</g>
<defs>
<clipPath id="clip0_908_1211">
<rect width="160" height="74.146" fill="white" transform="translate(0 0.752197)"/>
</clipPath>
</defs>
</svg>
