<svg width="200" height="45" viewBox="0 0 200 45" fill="none" xmlns="http://www.w3.org/2000/svg">
<path d="M199.778 13.145H180.778C178.667 13.145 176.778 14.7006 176.556 16.8117C176.222 19.7006 174 21.3673 171.333 21.4784C168.444 21.4784 166.111 19.145 166.111 16.2562C166.111 13.3673 168.444 11.0339 171.333 11.0339C173.222 11.0339 174.889 12.0339 175.778 13.5895C175.889 13.7006 176 13.7006 176.111 13.5895C176.667 12.9228 177.333 12.3673 178.111 12.0339C178.222 12.0339 178.222 11.8117 178.222 11.7006C176.778 9.47838 174.222 8.03394 171.333 8.03394C166.778 8.03394 163.111 11.7006 163 16.3673C163 20.9228 166.667 24.7006 171.333 24.7006C175.556 24.5895 179.111 21.8117 179.556 17.3673C179.667 16.8117 180.111 16.3673 180.778 16.3673H197V18.5895C197 19.8117 196.667 21.5895 195.111 21.5895C193.556 21.5895 193.222 19.8117 193.222 18.5895V17.9228C193.222 17.8117 193.111 17.7006 193 17.7006H190.333C190.222 17.7006 190.111 17.8117 190.111 17.9228V18.4784C190.111 19.7006 189.778 21.4784 188.222 21.4784C186.667 21.4784 186.333 19.7006 186.333 18.4784V17.9228C186.333 17.8117 186.222 17.7006 186.111 17.7006H183.444C183.333 17.7006 183.222 17.8117 183.222 17.9228V18.4784C183.222 21.4784 184.889 24.4784 188.111 24.4784C189.444 24.4784 190.667 23.9228 191.444 22.9228C192.333 23.9228 193.444 24.4784 194.778 24.4784C198.111 24.4784 199.667 21.3673 199.667 18.4784V13.3673C200.111 13.2562 200 13.145 199.778 13.145Z" fill="white"/>
<path d="M56.5556 15.9229C51.4444 15.9229 48 19.5895 48 25.034C48 30.4784 51.6667 34.1451 56.8889 34.1451C59.4444 34.1451 61.7778 33.5895 63.8889 31.8117C64 31.7006 64 31.5895 63.8889 31.5895L62.2222 29.2562C62.1111 29.1451 62 29.1451 61.8889 29.2562C60.4444 30.3673 58.7778 30.9229 57.1111 30.9229C53.7778 30.9229 51.7778 28.4784 51.7778 25.3673C51.7778 22.3673 53.2222 19.4784 56.5556 19.4784C59 19.4784 60.5556 21.034 60.8889 23.7006H53.6667C53.5556 23.7006 53.4444 23.8117 53.4444 23.8117C53.3333 24.5895 53.3333 25.4784 53.4444 26.3673C53.4444 26.4784 53.5556 26.4784 53.6667 26.4784H64.4444C64.5556 26.4784 64.6667 26.3673 64.6667 26.2562V25.034C64.6667 19.5895 61.3333 15.9229 56.5556 15.9229ZM37.8889 15.9229C35.4444 15.9229 33.6667 16.9229 32.4444 18.4784V16.4784C32.4444 16.3673 32.3333 16.2562 32.2222 16.2562H28.8889C28.7778 16.2562 28.6667 16.3673 28.6667 16.4784V41.034C28.6667 41.1451 28.7778 41.2562 28.8889 41.2562H32.2222C32.3333 41.2562 32.4444 41.1451 32.4444 41.034V24.034C32.4444 21.3673 34.8889 19.4784 37.4444 19.4784C40.6667 19.4784 42.6667 22.034 42.6667 25.034C42.6667 28.034 40.6667 30.5895 37.4444 30.5895C36.3333 30.5895 35.2222 30.2562 34.4444 29.7006C34.3333 29.5895 34.1111 29.7006 34.1111 29.8117V32.9229C34.1111 33.034 34.2222 33.1451 34.3333 33.2562C35.3333 33.8117 36.4444 34.1451 37.8889 34.1451C42.6667 34.1451 46.5556 30.3673 46.5556 25.034C46.5556 19.7006 42.6667 15.9229 37.8889 15.9229ZM76 15.9229C74.2222 15.9229 72.1111 16.4784 70.7778 18.4784V16.4784C70.7778 16.3673 70.6667 16.2562 70.5556 16.2562H67.2222C67.1111 16.2562 67 16.3673 67 16.4784V33.3673C67 33.4784 67.1111 33.5895 67.2222 33.5895H70.5556C70.6667 33.5895 70.7778 33.4784 70.7778 33.3673V24.034C70.7778 21.034 72.7778 19.4784 75.2222 19.4784C77.7778 19.4784 79.2222 21.1451 79.2222 24.034V33.4784C79.2222 33.5895 79.3333 33.7006 79.4444 33.7006H82.7778C82.8889 33.7006 83 33.5895 83 33.4784V22.8117C83 18.7006 80.1111 15.9229 76 15.9229ZM14.3333 7.92285C14.2222 7.92285 14.1111 8.03396 14.1111 8.14507V11.7006C14.1111 11.8117 14.2222 11.9229 14.3333 11.9229C18.8889 12.3673 22.2222 16.034 22.2222 21.034C22.2222 26.4784 18.4444 30.2562 13.3333 30.2562C8.22222 30.2562 4.44444 26.4784 4.44444 21.034C4.44444 16.034 7.66667 12.3673 12.3333 11.9229C12.4444 11.9229 12.5556 11.8117 12.5556 11.7006V8.14507C12.3333 8.03396 12.2222 7.92285 12.1111 7.92285C4.88889 8.47841 0 13.8117 0 20.9229C0 28.4784 5.44444 34.034 13.2222 34.034C21 34.034 26.4444 28.4784 26.4444 20.9229C26.4444 13.8117 21.4444 8.47841 14.3333 7.92285ZM159.889 33.2562L152.889 24.4784L159.778 16.7006C159.889 16.5895 159.778 16.3673 159.667 16.3673H155.556C155.444 16.3673 155.333 16.3673 155.222 16.4784L149.667 22.9229H148.111V8.58952C148.111 8.47841 148 8.3673 147.889 8.3673H144.556C144.444 8.3673 144.333 8.47841 144.333 8.58952V33.3673C144.333 33.4784 144.444 33.5895 144.556 33.5895H147.889C148 33.5895 148.111 33.4784 148.111 33.3673V26.2562H149.667L155.333 33.3673C155.444 33.4784 155.556 33.4784 155.667 33.4784H159.778C160 33.5895 160 33.3673 159.889 33.2562ZM134.556 15.9229C132.778 15.9229 130.667 16.4784 129.333 18.4784V16.4784C129.333 16.3673 129.222 16.2562 129.111 16.2562H125.778C125.667 16.2562 125.556 16.3673 125.556 16.4784V33.3673C125.556 33.4784 125.667 33.5895 125.778 33.5895H129.111C129.222 33.5895 129.333 33.4784 129.333 33.3673V24.034C129.333 21.034 131.333 19.4784 133.778 19.4784C136.333 19.4784 137.778 21.1451 137.778 24.034V33.4784C137.778 33.5895 137.889 33.7006 138 33.7006H141.333C141.444 33.7006 141.556 33.5895 141.556 33.4784V22.8117C141.556 18.7006 138.667 15.9229 134.556 15.9229ZM122.556 16.3673H119.222C119.111 16.3673 119 16.4784 119 16.5895V18.4784C117.778 16.9229 116.111 15.9229 113.556 15.9229C108.778 15.9229 104.889 19.7006 104.889 25.034C104.889 30.3673 108.667 34.1451 113.556 34.1451C115 34.1451 116.111 33.8117 117.111 33.2562C117.222 33.1451 117.333 33.034 117.333 32.9229V29.8117C117.333 29.7006 117.111 29.5895 117 29.7006C116.222 30.2562 115.111 30.5895 114 30.5895C110.778 30.5895 108.778 28.034 108.778 25.034C108.778 22.034 110.778 19.4784 114 19.4784C116.556 19.4784 119 21.3673 119 24.034V33.3673C119 33.4784 119.111 33.5895 119.222 33.5895H122.556C122.667 33.5895 122.778 33.4784 122.778 33.3673V16.4784C122.778 16.3673 122.667 16.3673 122.556 16.3673ZM95 15.9229C93.5556 15.9229 92.4444 16.2562 91.4444 16.8117C91.3333 16.9229 91.2222 17.034 91.2222 17.1451V20.1451C91.2222 20.2562 91.4444 20.3673 91.5556 20.2562C92.3333 19.7006 93.4444 19.3673 94.5555 19.3673C97.7778 19.3673 99.7778 21.9229 99.7778 24.9229C99.7778 27.9229 97.7778 30.4784 94.5555 30.4784C92 30.4784 89.5555 28.5895 89.5555 25.9229V8.58952C89.5555 8.47841 89.4444 8.3673 89.3333 8.3673H86C85.8889 8.3673 85.7778 8.47841 85.7778 8.58952V33.3673C85.7778 33.4784 85.8889 33.5895 86 33.5895H89.3333C89.4444 33.5895 89.5555 33.4784 89.5555 33.3673V31.4784C90.7778 33.034 92.4444 34.034 95 34.034C99.7778 34.034 103.667 30.2562 103.667 24.9229C103.556 19.7006 99.7778 15.9229 95 15.9229Z" fill="white"/>
</svg>
