<svg width="81" height="161" viewBox="0 0 81 161" fill="none" xmlns="http://www.w3.org/2000/svg">
<g clip-path="url(#clip0)">
<path d="M0 80.343C0 54.1449 0 27.7927 0 1.59468C0 0.82415 0.154104 0.670044 0.924635 0.670044C27.1227 0.670044 53.3208 0.670044 79.5188 0.670044C80.2894 0.670044 80.4435 0.82415 80.4435 1.59468C80.4435 54.1449 80.4435 106.695 80.4435 159.245C80.4435 160.016 80.2894 160.17 79.5188 160.17C53.3208 160.17 27.1227 160.17 0.924635 160.17C0.154104 160.17 0 160.016 0 159.245C0 133.047 0 106.695 0 80.343ZM56.557 14.2314C56.557 14.3855 56.7111 14.5396 56.8652 14.5396C57.6358 15.0019 58.2522 15.7725 58.7145 16.6971C59.6391 18.5464 60.2556 20.3956 60.5638 22.399C60.7179 23.6319 61.6425 23.1696 62.2589 23.1696C63.1836 23.1696 62.7213 22.5531 62.7213 22.0908C62.5672 17.9299 62.2589 13.615 61.9507 9.4541C61.9507 9.4541 61.9507 9.4541 61.9507 9.3C61.9507 9.3 61.7966 9.3 61.7966 9.14589C61.7966 8.83768 61.4884 8.83768 61.3343 8.83768C60.7179 8.99178 60.1015 8.99178 59.485 8.99178C44.3826 8.99178 29.4343 8.99178 14.3319 8.99178C13.8696 8.99178 13.4072 8.83768 13.099 9.4541C12.9449 9.91642 12.7908 10.5328 13.2531 10.9952L13.4072 11.1493C13.5613 11.1493 13.7155 11.3034 13.8696 11.3034C16.0271 11.3034 18.0304 11.7657 20.0338 12.228C20.0338 12.5362 20.1879 12.6903 20.6502 12.6903L20.8043 12.8444C20.6502 13.615 21.2667 13.9232 21.4208 14.5396C21.729 15.9266 22.0372 17.4676 22.0372 19.0087C22.0372 33.3406 22.0372 47.6725 22.0372 62.0043C22.0372 62.4667 21.8831 62.929 22.1913 63.3913C22.1913 64.3159 22.1913 65.2406 22.0372 66.1652C21.5749 68.785 20.4961 69.8638 17.8763 70.4802C16.3353 70.7884 14.7942 70.7884 13.2531 70.9425C12.6367 72.6377 12.7908 72.9459 14.6401 72.9459C14.7942 72.9459 15.1024 72.9459 15.2565 72.9459C23.4242 72.9459 31.5918 72.9459 39.6053 72.9459C46.6942 72.9459 53.9372 72.9459 61.0261 72.9459C61.4884 72.9459 61.9507 73.1 62.2589 72.6377C63.1836 72.3295 62.8754 71.4048 63.0295 70.7884C63.3377 70.6343 63.4918 70.3261 63.4918 70.172C63.6459 69.0932 64.1082 68.1686 64.4164 67.0898C64.7246 66.3193 65.187 65.5488 65.0329 64.47C65.187 64.3159 65.187 64.1618 65.187 63.8536C65.3411 63.6995 65.3411 63.5454 65.3411 63.2372C65.9575 61.2338 66.5739 59.3845 67.1903 57.3812C67.1903 57.227 67.6527 56.9188 67.0362 56.7647C66.2657 56.4565 65.4952 56.9188 65.0329 57.5353C63.4918 60.1551 61.9507 62.6208 59.9474 64.7783C57.944 66.9357 55.4783 68.4768 52.5502 68.785C51.6256 68.6309 50.5469 68.9391 49.6222 68.9391C44.5367 68.9391 39.4512 69.0932 34.3657 68.785C33.1329 68.785 32.0541 68.1686 31.5918 66.9357C31.1295 66.0111 31.2836 65.0865 31.2836 64.0077C31.2836 56.9188 31.2836 49.8299 31.2836 42.7411C31.2836 41.8164 31.5918 41.5082 32.5164 41.5082C36.215 41.5082 39.9135 41.5082 43.6121 41.5082C46.386 41.5082 49.1599 41.5082 51.7797 42.587C52.242 43.3575 52.7043 44.128 53.4749 44.5903C53.4749 44.7444 53.4749 45.0527 53.4749 45.2068C53.9372 46.7478 54.3995 48.1348 54.5536 49.8299C54.5536 50.1382 54.5536 50.4464 55.0159 50.6005C55.6324 50.9087 56.0947 51.0628 56.7111 50.4464V50.2923C57.0193 49.9841 56.8652 49.5217 56.8652 49.2135C56.8652 42.4328 56.8652 35.6522 56.8652 28.8715C56.8652 28.7174 56.8652 28.5633 56.557 28.4092C55.17 27.9469 54.8618 28.101 54.7077 29.4879C54.5536 30.7208 54.3995 31.9536 53.9372 33.1865C53.3208 34.8816 52.242 36.2686 50.3928 36.7309C48.8517 36.885 47.3106 37.1932 45.9237 37.1932C41.4546 37.1932 36.9855 37.1932 32.3623 37.1932C31.5918 37.1932 31.2836 36.885 31.2836 36.1145C31.2836 28.7174 31.2836 21.1662 31.2836 13.7691C31.2836 12.9985 31.5918 12.6903 32.3623 12.6903C39.7594 12.8444 47.3106 12.228 54.7077 13.3068C54.8618 13.4609 55.0159 13.4609 55.3242 13.4609C55.4783 13.7691 55.7865 13.9232 56.0947 13.9232C56.4029 14.0773 56.4029 14.0773 56.557 14.2314ZM78.9024 81.2676C78.5942 80.343 77.8237 80.9594 77.3614 80.9594C52.0879 80.9594 26.9686 80.9594 1.69517 80.9594C1.38695 80.9594 1.23285 80.9594 1.07874 81.2676V81.4217C0.462314 82.0382 0.924638 82.6546 0.770531 83.4251C0.770531 108.236 0.770531 133.047 0.770531 157.858C0.770531 159.554 0.770529 159.554 2.4657 159.554C26.8145 159.554 51.1633 159.554 75.5121 159.554C76.4367 159.554 77.2072 159.554 78.1319 159.554C78.4401 159.554 78.9024 159.708 79.0565 159.091C79.3647 158.783 79.2106 158.321 79.2106 158.013C79.2106 132.893 79.2106 107.774 79.2106 82.6546C79.2106 82.0382 79.3647 81.5758 78.9024 81.2676Z" fill="white"/>
<path d="M1.07877 81.2677C1.07877 81.73 1.07877 82.1923 1.07877 82.5005C1.07877 107.466 1.07877 132.431 1.07877 157.396C1.07877 157.704 1.07877 158.167 1.07877 158.475C1.07877 158.937 1.23288 159.091 1.69519 159.091C1.8493 159.091 2.00341 159.091 2.31162 159.091C27.4309 159.091 52.7044 159.091 77.8237 159.091C78.1319 159.091 78.5942 159.246 78.9024 158.937C78.7483 159.4 78.4401 159.4 77.9778 159.4C77.0532 159.4 76.2826 159.4 75.358 159.4C51.0092 159.4 26.6604 159.4 2.31162 159.4C0.616453 159.4 0.616455 159.4 0.616455 157.704C0.616455 132.893 0.616455 108.082 0.616455 83.2711C0.924668 82.5005 0.616448 81.8841 1.07877 81.2677Z" fill="white"/>
<path d="M52.8584 68.785C51.7797 69.0932 50.7009 69.0932 49.6222 69.0932C45.1531 69.0932 40.5299 69.0932 36.0608 69.0932C32.2081 69.0932 31.1294 68.0145 31.1294 64.1618C31.1294 56.7647 31.1294 49.5217 31.1294 42.1246C31.1294 41.3541 31.2835 41.0459 32.054 41.0459C37.1396 41.2 42.0709 40.8918 47.1565 41.2C48.6975 41.3541 50.3927 41.5082 51.7796 42.587C49.1598 41.5082 46.3859 41.5082 43.612 41.5082C39.9135 41.5082 36.2149 41.5082 32.5164 41.5082C31.5917 41.5082 31.2835 41.8164 31.2835 42.7411C31.2835 49.83 31.2835 56.9188 31.2835 64.0077C31.2835 64.9324 31.1294 66.0111 31.5917 66.9358C32.2081 68.1686 33.1328 68.6309 34.3656 68.785C39.4511 69.0932 44.5366 68.9391 49.6222 68.9391C51.0091 68.785 51.9338 68.6309 52.8584 68.785Z" fill="white"/>
<path d="M13.2532 70.7883C13.4073 72.4835 13.4073 72.4835 14.9483 72.4835C30.5131 72.4835 45.9237 72.4835 61.4884 72.4835C61.7967 72.4835 62.1049 72.4835 62.4131 72.4835C62.1049 73.0999 61.6425 72.7917 61.1802 72.7917C54.0913 72.7917 46.8483 72.7917 39.7595 72.7917C31.5918 72.7917 23.4242 72.7917 15.4107 72.7917C15.2566 72.7917 14.9483 72.7917 14.7942 72.7917C12.7909 72.7917 12.6367 72.4835 13.2532 70.7883Z" fill="white"/>
<path d="M79.0564 81.2676C78.7482 80.9594 78.2859 81.1135 77.8235 81.1135C52.5501 81.1135 27.2767 81.1135 2.00326 81.1135C1.69505 81.1135 1.38683 81.1135 1.07861 81.1135C1.23272 80.8053 1.54093 80.8053 1.69504 80.8053C26.9685 80.8053 52.0878 80.8053 77.3612 80.8053C77.9776 80.9594 78.7482 80.343 79.0564 81.2676Z" fill="white"/>
<path d="M79.0566 158.783C79.0566 157.858 79.0566 157.088 79.0566 156.163C79.0566 131.352 79.0566 106.695 79.0566 81.8841C79.0566 81.5758 79.0566 81.4217 79.0566 81.1135C79.3648 81.4217 79.3648 81.8841 79.3648 82.1923C79.3648 107.312 79.3648 132.431 79.3648 157.55C79.2107 158.167 79.3648 158.475 79.0566 158.783Z" fill="white"/>
<path d="M50.5468 36.885C49.0057 37.5014 47.3106 37.6555 45.7695 37.6555C41.1463 37.6555 36.6772 37.6555 32.054 37.6555C31.2835 37.6555 31.1294 37.5014 31.1294 36.7309C31.1294 29.0256 31.1294 21.3203 31.1294 13.6149C31.1294 12.9985 31.1294 12.6903 31.8999 12.6903C38.2183 12.6903 44.5366 12.6903 50.855 12.6903C52.242 12.6903 53.6289 12.6903 54.8618 13.4608C47.4647 12.3821 39.9135 13.1526 32.5164 12.8444C31.7458 12.8444 31.4376 13.1526 31.4376 13.9232C31.4376 21.3203 31.4376 28.8715 31.4376 36.2686C31.4376 37.0391 31.7458 37.3473 32.5164 37.3473C36.9854 37.3473 41.4545 37.3473 46.0777 37.3473C47.6188 37.5014 49.1598 37.1932 50.5468 36.885Z" fill="white"/>
<path d="M20.8043 12.8445C22.0371 14.2314 22.0371 15.9266 22.1912 17.6218C22.3453 19.9334 22.1912 22.245 22.1912 24.5566C22.1912 37.0392 22.1912 49.6759 22.1912 62.1585C22.1912 62.4667 22.1912 62.929 22.1912 63.2372C21.883 62.7749 22.0371 62.3126 22.0371 61.8503C22.0371 47.5184 22.0371 33.1865 22.0371 18.8546C22.0371 17.3136 21.883 15.9266 21.4207 14.3855C21.2666 13.9232 20.496 13.615 20.8043 12.8445Z" fill="white"/>
<path d="M61.6424 9.14591C61.026 9.14591 60.5637 9.14591 59.9473 9.14591C44.999 9.14591 29.8965 9.14591 14.9482 9.14591C13.253 9.14591 13.253 9.14591 13.253 10.8411C12.6366 10.3788 12.9448 9.91644 13.0989 9.30002C13.253 8.8377 13.8695 8.8377 14.3318 8.8377C29.4342 8.8377 44.3825 8.8377 59.4849 8.8377C60.1014 8.8377 60.7178 8.8377 61.3342 8.68359C61.4883 8.8377 61.6424 8.8377 61.6424 9.14591Z" fill="white"/>
<path d="M56.8652 50.4464C56.8652 45.0527 56.8652 39.659 56.8652 34.2652C56.8652 32.416 56.8652 30.5667 56.8652 28.7174C57.1734 28.7174 57.1734 28.8715 57.1734 29.1797C57.1734 35.9604 57.1734 42.7411 57.1734 49.5218C57.0193 49.6759 57.0193 50.1382 56.8652 50.4464Z" fill="white"/>
<path d="M13.2532 10.9951C15.2566 10.9951 17.1058 10.9951 18.9551 11.6115C19.2633 11.7656 19.5715 11.7656 19.8797 12.0739C17.8764 11.4574 15.873 11.1492 13.7155 11.1492C13.5614 11.1492 13.4073 10.9951 13.2532 10.9951Z" fill="white"/>
<path d="M63.0295 70.6343C63.646 68.4768 64.4165 66.4734 65.187 64.3159C65.3411 65.2406 64.8788 66.0111 64.5706 66.9357C64.2624 68.0145 63.8001 68.9391 63.646 70.0179C63.4919 70.172 63.3378 70.4802 63.0295 70.6343Z" fill="white"/>
<path d="M53.629 44.7444C54.5536 46.2854 54.7077 47.9806 54.8618 49.6758C54.8618 49.984 54.8618 50.2922 55.0159 50.6004C54.5536 50.4463 54.5536 50.1381 54.5536 49.8299C54.3995 48.2888 54.0913 46.7478 53.4749 45.2067C53.629 45.0526 53.629 44.8985 53.629 44.7444Z" fill="white"/>
<path d="M51.7798 42.5869C52.5503 43.0492 53.1667 43.8198 53.4749 44.5903C52.8585 44.128 52.2421 43.5115 51.7798 42.5869Z" fill="white"/>
<path d="M62.259 72.4836C62.5672 71.8671 62.5672 71.2507 63.0296 70.6343C62.8755 71.2507 63.1837 72.1753 62.259 72.4836Z" fill="white"/>
<path d="M55.1702 50.6005C55.7866 50.6005 56.2489 50.6005 56.8653 50.4464C56.2489 51.0628 55.6325 50.9087 55.1702 50.6005Z" fill="white"/>
<path d="M55.4783 13.615C55.7865 13.615 56.0947 13.7691 56.2488 14.0773C55.9406 14.0773 55.6324 14.0773 55.4783 13.615Z" fill="white"/>
<path d="M19.8796 12.228C20.1879 12.228 20.342 12.5362 20.4961 12.6903C20.1879 12.6903 20.0337 12.5362 19.8796 12.228Z" fill="white"/>
<path d="M65.187 64.3159C65.187 64.1618 65.187 63.8536 65.3411 63.6995C65.3411 64.0077 65.3411 64.1618 65.187 64.3159Z" fill="white"/>
<path d="M65.3411 63.6996C65.3411 63.5455 65.3411 63.2372 65.4952 63.0831C65.4952 63.3913 65.4952 63.5455 65.3411 63.6996Z" fill="white"/>
<path d="M54.8618 13.4608C55.0159 13.4608 55.3241 13.4608 55.4782 13.6149C55.3241 13.769 55.0159 13.6149 54.8618 13.4608Z" fill="white"/>
<path d="M56.5569 14.2314C56.711 14.3856 56.8651 14.3856 56.8651 14.5397C56.711 14.3856 56.5569 14.3856 56.5569 14.2314Z" fill="white"/>
<path d="M20.6501 12.6903L20.7985 12.8386C20.6501 12.8386 20.6501 12.6903 20.6501 12.6903Z" fill="white"/>
<path d="M56.2488 14.0773C56.4029 14.0773 56.4029 14.2314 56.557 14.2314C56.4029 14.0773 56.4029 14.0773 56.2488 14.0773Z" fill="white"/>
<path d="M7.85932 120.565C7.70522 120.565 7.70522 120.565 7.55112 120.565C7.39701 119.486 8.01343 119.486 8.78396 119.486C29.7424 119.486 50.7009 119.486 71.5052 119.486C71.9675 119.486 72.8922 119.178 72.8922 119.948C72.8922 120.719 71.9675 120.411 71.5052 120.411C50.855 120.411 30.2047 120.411 9.55449 120.411C9.09217 120.411 8.47575 120.257 7.85932 120.565Z" fill="white"/>
<path d="M73.2004 139.057C73.2004 139.212 73.2004 139.212 73.2004 139.366C72.7381 139.828 72.2758 139.674 71.6594 139.674C51.1632 139.674 30.6671 139.674 10.171 139.674C9.70865 139.674 9.09223 139.674 8.62991 139.674C8.32169 139.674 7.85938 139.828 7.85938 139.366C7.85938 138.903 8.32169 139.057 8.62991 139.057C8.78401 139.057 8.78402 139.057 8.93813 139.057C29.8966 139.057 51.0091 139.057 71.9676 139.057C72.2758 138.903 72.7381 138.903 73.2004 139.057Z" fill="white"/>
<path d="M40.3758 100.069C51.0091 100.069 61.6424 100.069 72.2758 100.069C72.584 100.069 73.0463 99.9145 73.2004 100.223C73.5086 100.685 73.2004 101.147 72.584 101.301C72.4299 101.301 72.2758 101.301 72.2758 101.301C51.0091 101.301 29.7424 101.301 8.32167 101.301C7.85935 101.301 7.24292 101.456 7.24292 100.531C7.24292 100.223 7.39703 100.069 7.70524 100.069C7.85935 100.069 8.16756 100.069 8.32167 100.069C19.1091 100.069 29.7424 100.069 40.3758 100.069ZM40.5299 100.993C50.855 100.993 61.1801 100.993 71.5052 100.993C71.9676 100.993 73.0463 101.301 73.0463 100.685C73.0463 99.9144 72.1217 100.223 71.5052 100.223C50.7009 100.223 29.8966 100.223 9.0922 100.223C8.62988 100.223 7.85935 99.9144 7.85935 100.685C7.85935 101.301 8.62988 100.993 9.0922 100.993C19.5714 100.993 30.0507 100.993 40.5299 100.993Z" fill="white"/>
<path d="M73.2006 139.057C72.7383 138.903 72.276 138.903 71.8136 138.903C50.8552 138.903 29.7426 138.903 8.78416 138.903C8.63006 138.903 8.63006 138.903 8.47596 138.903C8.16774 138.903 7.70543 138.749 7.70543 139.212C7.70543 139.674 8.16774 139.52 8.47596 139.52C8.93828 139.52 9.5547 139.52 10.017 139.52C30.5132 139.52 51.0093 139.52 71.5054 139.52C71.9677 139.52 72.5842 139.674 73.2006 139.057C73.2006 139.366 73.3547 139.674 72.8924 139.828C72.7383 139.828 72.4301 139.828 72.276 139.828C51.0093 139.828 29.5885 139.828 8.32185 139.828C8.16775 139.828 7.85953 139.828 7.70543 139.828C7.24311 139.828 7.39722 139.52 7.39722 139.212C7.39722 138.903 7.39721 138.595 7.85953 138.595C8.01364 138.595 8.32185 138.595 8.47596 138.595C29.7426 138.595 51.0093 138.595 72.4301 138.595C72.5842 138.749 73.2006 138.287 73.2006 139.057Z" fill="white"/>
<path d="M7.85949 120.565C8.47591 120.257 8.93823 120.411 9.55465 120.411C30.2049 120.411 50.8552 120.411 71.5054 120.411C71.9677 120.411 72.8924 120.719 72.8924 119.948C72.8924 119.178 71.9677 119.486 71.5054 119.486C50.5469 119.486 29.5885 119.486 8.78412 119.486C8.01359 119.486 7.24307 119.486 7.55128 120.565C7.08896 119.64 7.24307 119.332 8.16771 119.332C29.5885 119.332 51.0093 119.332 72.2759 119.332C72.7383 119.332 73.2006 119.178 73.2006 119.948C73.2006 120.719 72.7383 120.565 72.2759 120.565C51.0093 120.565 29.5885 120.565 8.32181 120.565C8.32181 120.565 8.1677 120.565 7.85949 120.565Z" fill="white"/>
<path d="M52.5502 88.9729C51.9338 88.0483 50.3927 87.5859 49.314 87.8942C49.1599 87.8942 49.0058 88.0483 49.0058 88.2024C49.0058 88.9729 49.0058 89.5893 49.0058 90.3599C49.0058 90.514 49.0058 90.6681 49.1599 90.6681C49.7763 91.1304 51.3174 90.514 51.7797 89.7434C51.9338 90.6681 51.7797 91.4386 51.7797 92.2092C51.3174 90.9763 50.3927 91.2845 49.4681 91.2845C49.0058 91.2845 48.8517 91.4386 49.0058 91.9009C49.0058 92.055 49.0058 92.2092 49.0058 92.2092C49.1599 92.9797 48.5435 93.9043 49.314 94.3666C50.3927 94.9831 51.9338 94.2125 52.7043 93.2879L52.8584 93.1338C53.0125 94.5208 52.5502 94.9831 51.3174 94.9831C50.0845 94.9831 48.6976 94.9831 47.4647 94.9831C47.927 94.5208 47.927 94.0584 47.927 93.442C47.927 92.055 47.927 90.6681 47.927 89.2811C47.927 88.6647 48.0811 87.8942 47.1565 87.5859C48.8517 87.5859 50.5468 87.4318 52.0879 87.5859C53.0125 87.4318 52.3961 88.3565 52.5502 88.9729Z" fill="white"/>
<path d="M14.9482 106.541C15.8729 106.541 16.7975 106.541 17.7222 106.541C16.6434 106.849 16.9516 107.62 16.9516 108.39C16.9516 109.315 16.9516 110.394 16.9516 111.318C16.9516 112.705 17.5681 113.476 18.6468 113.476C19.8796 113.476 20.8043 112.859 20.9584 111.472C20.9584 110.394 20.9584 109.161 20.9584 108.082C20.9584 107.466 20.8043 106.849 20.0338 106.695C20.8043 106.695 21.5748 106.695 22.1912 106.695C21.4207 107.003 21.4207 107.62 21.4207 108.236C21.4207 109.315 21.4207 110.394 21.4207 111.627C21.4207 113.322 20.342 114.092 18.6468 114.092C16.7975 114.092 15.8729 113.322 15.7188 111.627C15.7188 110.548 15.7188 109.315 15.7188 108.236C15.7188 107.466 15.7188 106.849 14.9482 106.541Z" fill="white"/>
<path d="M38.989 152.773C38.0644 152.927 37.1397 152.927 36.2151 152.773C36.9856 152.619 36.9856 152.157 36.6774 151.54C36.3692 151.078 36.3692 150.307 35.4446 150.461C35.1363 150.461 34.8281 150.461 34.5199 150.461C33.4412 150.461 32.9789 150.924 32.8248 152.002C32.6706 152.619 33.2871 152.465 33.5953 152.773C32.9789 152.927 32.5165 152.927 31.2837 152.773C32.0542 152.465 32.3624 151.694 32.6706 151.078C33.4412 149.229 34.2117 147.379 35.1363 145.376C35.5987 145.53 35.5987 145.838 35.7528 146.146C36.5233 147.842 37.2938 149.691 37.9102 151.54C38.0644 152.002 38.3726 152.465 38.989 152.773ZM36.061 149.999C35.5987 149.074 35.2904 148.304 34.9822 147.225C34.5199 148.304 34.2117 149.074 33.7494 149.999C34.5199 149.999 35.2904 149.999 36.061 149.999Z" fill="white"/>
<path d="M41.4546 106.541C42.9957 106.541 44.2285 106.387 45.4613 106.695C46.386 106.849 47.0024 107.312 47.1565 108.236C47.3106 109.161 47.0024 109.777 45.9237 110.24C45.7696 110.24 45.7696 110.394 45.4613 110.394C46.5401 111.472 47.0024 113.168 48.6976 113.63C47.6188 114.092 46.8483 113.938 46.2319 113.168C45.7696 112.397 45.1531 111.781 44.6908 111.01C44.5367 110.702 44.2285 110.394 43.7662 110.548C43.3039 110.702 43.6121 111.164 43.6121 111.318C43.6121 111.627 43.6121 111.935 43.6121 112.243C43.6121 113.014 43.6121 113.63 44.5367 113.938C43.6121 113.938 42.6874 113.938 41.6087 113.938C42.5333 113.63 42.5333 112.859 42.5333 112.089C42.5333 110.856 42.5333 109.623 42.5333 108.236C42.5333 107.158 42.5333 107.158 41.4546 106.541ZM45.7696 107.774C45.6154 107.62 45.6155 107.62 45.4613 107.466C44.999 107.003 44.3826 107.003 43.7662 107.158C43.1498 107.312 43.6121 107.928 43.458 108.39C43.458 108.853 43.458 109.161 43.458 109.623C43.458 110.24 43.7662 110.24 44.2285 110.24C45.6154 109.931 45.9237 109.315 45.7696 107.774C46.5401 108.39 45.9237 109.161 45.9237 109.777C47.3106 109.161 47.0024 107.928 46.386 107.466C45.9237 107.003 45.7696 107.312 45.7696 107.774ZM43.1498 107.312C42.9956 107.312 42.8415 107.312 42.8415 107.312C42.8415 109.161 42.8415 111.164 42.8415 113.014C42.8415 113.168 42.8415 113.322 43.1498 113.322C43.458 113.322 43.458 113.168 43.458 112.859C43.458 112.397 43.458 111.935 43.458 111.472C43.1498 110.24 43.1498 108.853 43.1498 107.312Z" fill="white"/>
<path d="M55.6322 147.996C56.0946 149.383 55.7863 150.77 54.8617 151.848C53.783 153.081 52.5501 153.081 51.1632 152.773C49.9303 152.619 48.8516 150.924 48.8516 149.383C49.0057 148.766 49.1598 148.304 49.0057 147.687C49.0057 147.533 49.1598 147.379 49.1598 147.225C49.3139 147.071 49.3139 147.071 49.3139 146.763C49.6221 146.609 49.9303 146.301 50.0844 145.992C50.2385 145.992 50.3926 145.838 50.5467 145.684C50.7008 145.838 51.009 145.838 51.1632 145.992C50.3926 146.609 50.2385 147.533 50.0844 148.458C49.7762 148.92 49.7762 149.229 50.0844 149.691C50.0844 149.845 50.0844 149.999 50.2385 150.153C50.0844 150.307 50.0844 150.615 50.3926 150.77C50.3926 150.924 50.5467 150.924 50.5467 151.078C51.0091 152.002 51.6255 152.465 52.5501 152.465C53.6289 152.465 54.0912 151.848 54.3994 150.924C54.8617 149.383 54.8617 147.842 54.0912 146.455C54.2453 146.301 53.783 145.838 54.2453 145.838L54.3994 145.992L54.5535 146.146L54.7076 146.3C54.8617 146.3 54.8617 146.455 55.0158 146.455C55.0158 146.609 55.1699 146.763 55.324 146.917C55.324 147.533 55.324 147.842 55.6322 147.996Z" fill="white"/>
<path d="M34.0574 127.654C33.1328 129.657 32.3622 131.506 31.2835 133.818C30.513 131.969 29.7424 130.428 28.9719 128.886C29.4342 128.886 29.5883 129.195 29.7424 129.657C29.7424 129.811 29.8965 129.965 30.0506 129.965C30.2047 129.965 30.3588 129.657 30.2047 129.657C29.5883 128.732 29.4342 127.808 28.8178 126.883C28.6637 126.729 28.5096 126.575 28.2014 126.729C27.8931 126.883 27.8931 127.191 28.0472 127.345C28.2014 127.654 28.2014 127.962 28.3555 128.27C28.3555 129.503 28.3555 130.736 28.3555 132.123C28.3555 132.893 28.3555 133.51 29.4342 133.664C28.5096 133.972 27.739 133.818 26.9685 133.664C28.0472 133.51 27.8931 132.739 27.8931 131.969C27.8931 130.582 27.8931 129.195 27.8931 127.962C27.8931 127.345 27.8931 126.729 26.9685 126.729C28.3555 126.113 28.9719 126.421 29.5883 127.654C30.2047 129.041 30.9753 130.582 31.7458 132.123C32.3622 130.736 32.9787 129.349 33.5951 128.116C34.3656 126.575 34.3656 126.575 36.2149 126.575C36.0608 127.037 35.7526 126.883 35.4443 126.883C34.3656 126.267 34.2115 126.267 34.0574 127.654Z" fill="white"/>
<path d="M10.6334 151.848C10.171 151.232 9.70873 150.615 9.24641 149.999C8.9382 149.691 8.62999 149.383 8.16767 149.537C7.70535 149.691 8.16766 149.999 8.01355 150.307C8.01355 150.77 8.01355 151.386 8.01355 151.848C7.70534 152.927 7.70535 152.927 6.93481 152.311C7.24303 152.157 7.24302 152.002 7.24302 151.694C7.24302 150.153 7.24302 148.458 7.24302 146.917C7.24302 146.609 7.08893 146.301 7.39714 145.992C7.70535 145.838 8.01356 145.992 8.32177 146.146C8.16767 146.146 8.01355 146.146 8.01355 146.3C8.01355 147.225 7.70535 148.15 8.16767 148.92C9.70873 149.229 10.4793 148.458 10.4793 147.071C10.4793 146.146 9.70873 146.146 9.24641 145.838C9.40052 145.838 9.55462 145.684 9.86284 145.684C10.171 145.838 10.6334 145.838 10.9416 145.992C12.1744 146.609 12.1744 148.304 10.7875 149.074C10.171 149.383 10.3252 149.537 10.6334 149.999C11.2498 150.77 11.7121 151.54 12.3285 152.311C11.8662 153.081 11.558 152.157 11.0957 152.157C10.9416 152.002 10.7875 151.848 10.6334 151.848Z" fill="white"/>
<path d="M10.9417 152.311C11.404 152.311 11.7122 153.235 12.1745 152.465C14.332 152.927 14.332 152.927 14.332 150.615C14.332 149.537 14.332 148.458 14.332 147.379C14.332 146.609 14.4861 145.992 13.4073 145.684C15.1025 145.684 16.7977 145.684 18.4929 145.684C18.8011 145.684 18.9552 145.838 18.9552 146.146C18.9552 146.455 18.9552 146.917 18.9552 147.379C18.4929 145.838 17.26 146.146 16.1813 146.146C15.5648 146.146 15.4107 146.455 15.4107 146.917C15.4107 147.533 15.4107 148.304 15.4107 148.92C14.7943 148.15 15.2566 147.379 15.1025 146.609C15.1025 146.301 15.1025 145.992 14.7943 145.992C14.332 145.992 14.4861 146.301 14.4861 146.609C14.4861 148.458 14.6402 150.153 14.4861 152.002C14.4861 152.311 14.4861 152.773 14.7943 152.773C15.2566 152.773 15.1025 152.465 15.1025 152.156C15.2566 151.386 14.7943 150.461 15.2566 149.691C15.2566 150.461 15.2566 151.078 15.2566 151.848C15.2566 152.465 15.4107 152.773 16.0272 152.773C17.26 152.773 18.647 152.927 19.1093 151.078C19.2634 152.619 18.8011 153.235 17.7223 153.235C15.7189 153.235 13.7156 153.235 11.7122 153.235C11.404 152.927 11.0958 152.773 10.9417 152.311Z" fill="white"/>
<path d="M72.4301 132.431C72.7383 132.893 73.0465 133.201 73.6629 133.356C72.8924 133.664 71.8136 133.664 70.7349 133.51C71.1972 133.201 71.8136 133.047 71.3513 132.277C71.0431 131.66 71.0431 130.89 69.9644 131.044C69.6561 131.044 69.3479 131.044 69.0397 131.044C68.1151 131.044 67.4986 131.66 67.3445 132.585C67.3445 133.201 67.8069 133.047 68.1151 133.356C67.4986 133.664 66.8822 133.664 65.8035 133.356C66.574 133.047 66.8822 132.277 67.1904 131.66C67.961 129.965 68.5774 128.424 69.3479 126.883C69.502 126.729 69.502 126.421 69.8103 126.421C70.1185 126.421 70.2726 126.729 70.2726 126.883C70.7349 128.116 71.3513 129.349 71.8136 130.582C71.8136 130.582 71.8136 130.582 71.6595 130.736C71.3513 130.582 71.5054 129.965 71.0431 130.273C70.7349 130.582 70.889 130.89 71.0431 131.044C71.1972 131.352 71.3513 131.506 71.6595 131.66C71.6595 131.969 71.6595 132.123 71.6595 132.431C71.6595 132.739 71.6595 133.047 71.9677 133.047C72.4301 133.047 72.4301 132.739 72.4301 132.431ZM69.502 127.962C69.1938 128.27 69.0397 128.732 68.8856 129.041C68.1151 130.736 68.2692 130.736 69.9644 130.582C70.4267 130.582 70.4267 130.428 70.2726 129.965C70.1185 129.349 69.8102 128.732 69.502 127.962Z" fill="white"/>
<path d="M34.9822 113.322C35.2904 113.322 35.5986 113.322 35.9068 113.322C37.7561 113.322 37.7561 113.322 38.8349 111.935C39.1431 113.014 38.6808 113.784 37.602 113.784C36.0609 113.784 34.5199 113.784 32.9788 113.63C34.0576 113.322 33.9034 112.551 33.9034 111.781C33.9034 110.394 33.9034 109.007 33.9034 107.774C33.9034 107.158 33.9035 106.695 32.8247 106.541C33.4411 106.233 33.9034 106.387 34.2117 106.233C35.1363 106.233 36.215 106.233 37.1397 106.233C38.5266 106.233 38.5266 106.233 38.3725 108.082C37.9102 106.233 36.5233 106.695 35.4445 106.695C35.1363 106.695 34.8281 106.695 34.8281 107.003C34.8281 107.774 34.8281 108.39 34.8281 109.161C34.8281 109.315 34.8281 109.315 34.9822 109.469C35.7527 109.777 37.1397 109.315 37.602 108.545C37.602 108.853 37.602 109.315 37.602 109.623C37.602 110.086 37.602 110.394 37.602 111.01C37.1397 110.548 37.1397 110.086 36.5233 109.931C34.8281 109.623 34.674 109.777 34.674 111.473C34.9822 112.397 34.9822 112.859 34.9822 113.322C34.674 113.014 34.674 112.551 34.674 112.089C34.674 110.548 34.674 109.007 34.674 107.466C34.674 107.158 34.674 106.849 34.2117 106.849C33.7493 106.849 33.9034 107.312 33.9034 107.466C33.9034 109.315 33.9034 111.01 33.9034 112.859C33.9034 113.168 33.9034 113.476 34.2117 113.63C34.5199 113.784 34.8281 113.63 34.9822 113.322Z" fill="white"/>
<path d="M13.4072 128.424C14.3319 130.89 13.099 133.047 10.4792 133.51C10.171 133.51 9.8628 133.664 9.40049 133.664C8.32174 133.664 7.3971 133.664 6.31836 133.51C7.55121 133.201 7.24299 132.277 7.24299 131.506C7.24299 130.273 7.24299 129.041 7.24299 127.808C7.24299 127.191 7.3971 126.421 6.31836 126.267C8.01353 126.267 9.7087 125.958 11.2498 126.421C12.0203 126.575 12.6367 127.037 12.9449 127.654C12.6367 127.345 12.3285 127.037 11.8662 126.883C11.4039 126.575 11.2498 126.729 11.2498 127.191C10.6333 126.575 9.86281 126.421 8.93817 126.575C8.47585 126.575 8.32175 126.729 8.32175 127.191C8.32175 128.886 8.32175 130.582 8.32175 132.277C8.32175 132.739 8.47585 132.893 8.93817 132.893C10.171 133.047 11.2498 132.585 12.0203 131.506C12.0203 131.66 11.8662 131.969 12.1744 132.123C12.3285 132.123 12.4826 131.969 12.6367 131.814C13.5614 130.89 13.5614 129.657 13.4072 128.424ZM8.32175 129.811C8.32175 128.886 8.32175 127.962 8.32175 127.191C8.32175 126.883 8.47585 126.421 8.01353 126.421C7.55121 126.421 7.70532 126.883 7.70532 127.191C7.70532 129.041 8.01353 130.89 7.70532 132.739C7.70532 133.047 7.70532 133.201 8.16764 133.201C8.47585 133.201 8.47585 132.893 8.47585 132.739C8.32174 131.814 8.32175 130.89 8.32175 129.811Z" fill="white"/>
<path d="M8.16764 90.514C8.62996 90.514 8.93817 90.514 9.40049 90.514C10.171 90.514 10.7874 90.514 10.9416 89.5893C11.0957 90.3599 11.0957 91.1304 11.0957 92.055C10.4792 91.1304 9.55459 90.8222 8.62995 91.1304C8.32174 91.2845 8.32175 91.4386 8.32175 91.7468C8.32175 92.2091 8.32175 92.8256 8.32175 93.2879C8.32175 94.3666 8.47585 94.5207 9.55459 94.5207C10.4792 94.3666 11.4039 94.2125 12.0203 93.1338C12.1744 94.3666 12.0203 94.8289 10.9416 94.8289C9.55459 94.8289 8.01354 94.8289 6.62658 94.8289C6.62658 94.8289 6.47247 94.829 6.31836 94.6748C7.243 94.6748 7.243 94.0584 7.243 93.442C7.243 92.055 7.243 90.6681 7.243 89.127C7.243 88.5106 7.243 87.8942 6.47246 87.5859C8.16763 87.5859 9.86281 87.4318 11.558 87.5859C12.4826 87.7401 11.8662 88.5106 12.0203 89.127C11.2498 87.2777 9.7087 88.0483 8.47585 88.0483C8.47585 87.586 8.16763 87.7401 8.01353 87.7401C7.70531 87.7401 7.55122 88.0483 7.55122 88.3565C7.55122 90.2058 7.55122 91.9009 7.55122 93.7502C7.55122 94.0584 7.55121 94.3666 7.85942 94.3666C8.32174 94.3666 8.16764 93.9043 8.16764 93.7502C7.85943 92.6715 7.70532 91.5927 8.16764 90.514C8.16764 90.514 8.01354 90.6681 8.16764 90.514Z" fill="white"/>
<path d="M24.657 146.763C24.5028 146.455 24.3487 146.3 24.0405 145.992C24.3487 145.838 24.8111 145.684 25.1193 145.684C26.3521 147.225 27.585 148.766 28.9719 150.307C29.126 150.461 29.126 150.924 29.5884 150.615C29.8966 151.232 30.2048 152.002 29.4342 152.465C28.0473 150.77 26.6603 149.074 25.1193 147.379C24.5029 147.687 25.2734 148.612 24.657 148.92C24.657 148.766 24.657 148.612 24.657 148.458V148.304C24.657 148.15 24.657 147.842 24.657 147.687C24.657 147.687 24.657 147.687 24.657 147.533C24.657 147.225 24.657 147.071 24.657 146.763C24.8111 146.763 24.657 146.917 24.657 146.763Z" fill="white"/>
<path d="M62.5671 145.53C63.4918 145.53 64.4164 145.53 65.341 145.53C64.4164 145.838 64.4164 146.455 64.4164 147.225C64.4164 148.612 64.4164 149.999 64.4164 151.386C64.4164 152.003 64.4164 152.619 65.341 152.773C64.4164 152.773 63.4918 152.773 62.5671 152.773C63.3377 152.619 63.4918 152.003 63.4918 151.232C63.4918 149.845 63.4918 148.458 63.4918 147.071C63.4918 146.455 63.4918 145.838 62.5671 145.53Z" fill="white"/>
<path d="M62.8754 92.6715C63.0295 93.442 62.7213 93.9043 62.5672 94.5207C62.5672 94.6748 62.2589 94.8289 62.1048 94.8289C60.4097 94.8289 58.7145 94.829 56.8652 94.6748C57.7899 94.5207 57.7899 93.9043 57.7899 93.2879C57.7899 91.9009 57.7899 90.514 57.7899 89.127C57.7899 88.5106 57.7899 87.8942 57.0193 87.5859C57.944 87.5859 59.0227 87.5859 59.9474 87.5859C58.5604 87.8942 58.8686 88.9729 58.8686 89.8975C58.8686 91.1304 58.8686 92.2091 58.8686 93.442C58.8686 94.0584 59.0227 94.3666 59.7933 94.3666C61.0261 94.2125 62.2589 94.3666 62.8754 92.6715ZM57.944 91.2845C57.944 92.055 57.944 92.8256 57.944 93.5961C57.944 93.9043 57.7899 94.3666 58.2522 94.3666C58.7145 94.3666 58.5604 93.9043 58.5604 93.7502C58.5604 92.055 58.8686 90.3599 58.5604 88.5106C58.5604 88.2024 59.0227 87.74 58.4063 87.74C57.7899 87.5859 57.7899 88.2024 57.7899 88.6647C57.944 89.4352 57.944 90.3599 57.944 91.2845Z" fill="white"/>
<path d="M50.855 113.938C51.7796 113.784 51.7796 113.168 51.7796 112.551C51.7796 111.164 51.7796 109.777 51.7796 108.39C51.7796 107.312 51.7796 107.312 50.855 106.849C51.6255 106.695 52.7043 106.695 53.9371 106.849C52.7043 107.003 52.8584 107.774 52.8584 108.544C52.8584 109.931 52.8584 111.164 52.8584 112.551C52.8584 113.168 52.8584 113.784 53.783 114.092C52.8584 113.938 51.7796 113.938 50.855 113.938Z" fill="white"/>
<path d="M58.5603 148.766C58.8685 148.766 59.1767 148.766 59.485 148.766C60.1014 148.766 60.7178 148.612 60.8719 147.842C61.026 148.612 61.026 149.383 61.026 150.461C60.7178 149.845 60.7178 149.383 60.1014 149.383C58.8685 149.229 58.5603 149.383 58.5603 150.616C58.5603 150.924 58.5603 151.078 58.5603 151.386C58.5603 152.002 58.5603 152.619 59.485 152.773C58.5603 152.927 57.4816 152.927 56.5569 152.773C57.4816 152.619 57.4816 152.157 57.4816 151.386C57.4816 149.999 57.4816 148.458 57.4816 147.071C57.4816 145.992 57.4816 145.992 56.4028 145.53C58.2521 145.53 59.9473 145.53 61.4883 145.53C61.9507 145.53 61.9506 145.684 61.9506 145.992C61.9506 146.301 61.9506 146.609 61.9506 147.071C61.3342 145.376 59.7932 145.992 58.7144 145.838C58.2521 145.684 57.7898 145.53 57.7898 146.301C57.7898 148.15 57.7898 149.999 57.7898 151.848C57.7898 152.311 58.098 152.619 58.5603 152.619C58.4062 151.386 58.098 149.999 58.5603 148.766Z" fill="white"/>
<path d="M71.5054 92.5174C71.9677 93.1339 71.9677 94.2126 73.0464 94.6749C72.1218 94.6749 71.3513 94.6749 70.4266 94.6749C70.8889 94.5208 71.1972 94.0585 70.8889 93.5962C70.5807 93.1339 70.7348 92.2092 69.8102 92.3633C69.502 92.3633 69.0397 92.3633 68.7315 92.3633C67.8068 92.2092 67.3445 92.6716 67.0363 93.4421C66.8822 94.0585 66.8822 94.3667 67.6527 94.5208C66.8822 94.6749 66.2658 94.6749 65.187 94.5208C66.1117 94.2126 66.4199 93.5962 66.574 93.1339C67.3445 91.4387 68.115 89.7435 68.7315 88.0483C68.7315 88.3566 68.7315 88.6648 68.7315 89.1271C68.5773 89.4353 68.4232 89.7435 68.4232 90.0517C68.2691 90.6682 67.4986 91.2846 67.9609 91.7469C68.4232 92.3633 69.3479 91.901 69.9643 91.901C70.2725 92.0551 70.4266 92.3633 70.5807 92.6716C71.0431 93.288 71.3513 92.9798 71.5054 92.5174ZM71.8136 93.9044C71.8136 93.7503 71.6595 93.5962 71.5054 93.4421C71.3513 93.4421 71.1972 93.5962 71.1972 93.7503C71.1972 93.9044 71.1972 94.2126 71.5054 94.2126C71.6595 94.3667 71.8136 94.2126 71.8136 93.9044Z" fill="white"/>
<path d="M70.4267 107.928C70.1185 107.62 69.9644 107.158 69.502 107.158C68.5774 107.003 68.2692 107.158 68.2692 108.082C68.2692 109.007 68.2692 110.086 68.2692 111.01C67.961 111.01 68.1151 110.702 68.1151 110.548C67.961 109.315 67.961 108.082 67.961 106.695C67.4987 107.003 67.4987 107.466 67.4987 107.774C67.4987 109.007 67.4987 110.086 67.4987 111.318C67.4987 111.935 67.6528 112.705 67.1905 113.322C67.1905 111.472 67.1905 109.623 67.1905 107.774C67.1905 107.158 66.8822 106.849 66.4199 106.695C67.6528 106.695 68.7315 106.695 69.9644 106.695C71.1972 106.849 71.9677 107.466 71.9677 108.39C72.1218 109.315 71.5054 109.931 70.2726 110.394C70.1185 110.24 69.9644 110.086 69.8103 109.931C69.9644 109.469 70.5808 109.469 70.7349 109.007C70.7349 109.161 70.5808 109.469 70.889 109.623C71.0431 109.777 71.1972 109.469 71.3513 109.315C71.9677 108.236 71.6595 107.62 70.4267 107.003C70.4267 107.312 70.4267 107.62 70.4267 107.928C70.4267 107.928 70.5808 107.928 70.4267 107.928Z" fill="white"/>
<path d="M46.8483 151.078C46.2319 150.153 45.3072 149.845 44.3826 149.229C43.1497 148.458 42.6874 147.687 43.3038 146.455C43.612 146.455 43.7662 146.609 43.9203 146.763C43.9203 147.379 44.0744 147.687 44.6908 147.996C45.3072 148.304 46.0778 148.766 46.6942 149.074C48.0811 149.845 48.2352 151.54 47.0024 152.619C46.8483 152.619 46.6942 152.465 46.5401 152.311C47.1565 152.002 47.3106 151.694 46.8483 151.078Z" fill="white"/>
<path d="M70.2723 146.609C70.2723 146.763 70.4264 146.917 70.4264 146.917C70.4264 147.071 70.4265 147.379 70.5806 147.533C70.5806 147.842 70.5806 147.996 70.8888 148.15C70.8888 148.304 70.8888 148.458 71.0429 148.612C71.5052 149.691 71.9675 150.615 72.2757 151.694C72.5839 152.311 72.7381 152.773 73.6627 153.081C72.584 153.235 71.8134 153.235 70.7347 153.235C71.5052 152.773 71.197 152.157 71.0429 151.694C71.0429 151.386 71.0429 151.232 70.7347 151.078C70.7347 150.77 70.5806 150.615 70.4264 150.461C70.1182 149.537 69.81 148.612 69.1936 147.842C69.1936 147.533 69.1936 147.225 69.1936 146.763C69.81 145.838 69.9641 146.3 70.2723 146.609Z" fill="white"/>
<path d="M11.0957 112.243C10.7875 111.473 10.017 111.164 9.40056 110.856C8.78413 110.548 8.32181 110.24 7.85949 109.777C7.24307 109.161 7.08897 108.39 7.55129 107.62C8.0136 107.774 7.8595 108.236 8.16771 108.39C8.63003 109.161 9.40056 109.469 10.017 109.777C10.4793 110.086 10.9416 110.24 11.4039 110.702L11.558 110.856C11.558 111.164 11.7122 111.318 12.0204 111.473C12.1745 112.089 11.8663 112.859 11.7122 113.476C11.0957 113.168 11.2498 112.551 11.0957 112.243Z" fill="white"/>
<path d="M37.9102 93.5961C38.6808 94.3667 39.6054 94.5208 40.53 94.2126C41.4547 93.7503 41.7629 92.9797 41.6088 92.0551C41.6088 90.9763 41.6088 89.8976 41.6088 88.973C41.6088 88.3565 41.6088 87.7401 40.6842 87.7401C41.4547 87.4319 42.2252 87.586 43.1499 87.586C41.7629 88.2024 42.2252 89.4353 42.2252 90.3599C42.2252 90.9763 42.2252 91.7469 42.2252 92.3633C42.2252 93.7503 41.6088 94.5208 40.53 94.829C38.989 95.2913 37.602 94.829 36.9856 93.7503C37.2938 93.5961 37.7561 94.3667 37.9102 93.5961Z" fill="white"/>
<path d="M48.0811 128.578C49.0057 128.886 49.9304 129.349 50.7009 129.965C51.9337 130.89 51.9337 131.969 51.0091 133.047L50.855 133.201C50.7009 133.047 50.2386 133.664 50.0845 133.047C51.0091 132.277 50.855 131.66 49.9304 130.89C49.0057 130.273 47.927 129.965 47.3106 129.041C47.3106 128.578 47.0024 128.27 47.3106 127.808C47.6188 127.962 47.7729 128.578 48.0811 128.578Z" fill="white"/>
<path d="M16.0271 126.267C17.2599 126.267 18.3387 126.267 19.5715 126.267C20.9585 126.267 20.9585 126.267 20.8044 127.962C20.4962 127.345 20.3421 126.729 19.5715 126.729C18.9551 126.729 18.3387 126.729 17.7223 126.729C17.5682 126.729 17.4141 126.883 17.4141 127.037C17.4141 127.808 17.4141 128.424 17.4141 129.195C17.4141 129.349 17.5682 129.503 17.7223 129.503C18.4928 129.811 19.7256 129.349 20.188 128.424C20.188 129.349 20.188 130.119 20.188 131.044C19.8798 130.582 19.8798 130.119 19.1092 129.965C17.4141 129.811 17.2599 129.811 17.2599 131.506C17.2599 131.66 17.2599 131.969 17.2599 132.123C16.9517 131.814 16.9517 131.506 17.1058 131.198C17.4141 129.965 16.9517 128.732 17.1058 127.499C17.1058 126.729 16.9517 126.267 16.0271 126.267Z" fill="white"/>
<path d="M39.9136 132.585C40.6842 133.201 41.6088 133.356 42.5335 132.893C43.4581 132.431 43.4581 131.506 43.6122 130.736C43.6122 129.811 43.6122 128.886 43.6122 127.962C43.6122 127.191 43.6122 126.575 42.6876 126.421C43.4581 126.421 44.2286 126.421 44.9991 126.421C43.9204 126.729 44.0745 127.5 44.0745 128.27C44.0745 129.195 44.0745 130.119 44.0745 131.044C44.0745 132.123 43.7663 133.201 42.5335 133.51C41.3006 133.972 39.9137 133.972 38.989 132.893C38.989 132.893 38.989 132.893 39.1431 132.739C39.4513 133.047 39.7595 132.893 39.9136 132.585Z" fill="white"/>
<path d="M27.1227 94.3666C24.9652 92.8255 24.657 90.2058 26.5063 88.2024C26.6604 88.2024 26.9686 88.2024 27.1227 88.2024C27.1227 88.5106 26.9686 88.6647 26.9686 88.9729C26.3522 90.0517 26.3522 92.2091 26.9686 92.9797C26.9686 93.1338 27.1227 93.1338 27.1227 93.2879C27.1227 93.442 27.2768 93.5961 27.4309 93.5961L27.585 93.7502C27.585 93.9043 27.7391 94.0584 27.8932 94.0584C27.8932 94.2125 28.2014 94.3666 28.2014 94.6748C27.7391 94.5207 27.4309 94.3666 27.1227 94.3666Z" fill="white"/>
<path d="M55.6323 126.575C55.6323 126.729 55.4782 126.729 55.6323 126.575C55.0159 127.345 55.3241 128.27 55.3241 129.195C55.3241 130.428 55.0159 131.66 55.4782 132.893C55.17 133.818 54.7077 133.356 54.2454 133.047C54.2454 131.044 54.2454 129.195 54.3995 127.191C54.5536 127.037 54.7077 126.883 54.2454 126.883C54.7077 126.113 55.17 126.729 55.6323 126.575Z" fill="white"/>
<path d="M69.3478 146.3C69.3478 146.609 69.3478 146.917 69.3478 147.379C69.0396 148.15 68.7314 149.074 68.2691 149.999C69.0396 149.999 69.8102 149.999 70.5807 149.999C70.7348 150.153 70.8889 150.307 70.8889 150.615C70.1184 150.307 69.1937 150.461 68.4232 150.461C67.6527 150.461 67.6527 151.386 67.4986 152.002C67.3445 152.465 67.9609 152.465 68.2691 152.773C67.4986 153.081 66.728 152.773 65.9575 152.773C66.728 152.311 66.8821 151.54 67.1904 150.924C67.9609 149.383 68.7314 147.841 69.3478 146.3Z" fill="white"/>
<path d="M16.0272 126.267C16.7977 126.267 17.1059 126.729 17.1059 127.654C16.9518 128.887 17.26 130.119 17.1059 131.352C17.1059 131.66 17.1059 131.969 17.26 132.277C17.26 132.585 17.26 132.739 17.26 133.047C17.1059 133.356 16.9518 133.664 16.4895 133.51C16.0271 133.356 16.1813 133.047 16.1813 132.739C16.1813 131.198 16.1813 129.503 16.1813 127.962C16.1813 127.5 16.1813 127.037 15.873 126.729C15.873 126.421 15.873 126.267 16.0272 126.267C16.0272 126.113 16.0272 126.267 16.0272 126.267Z" fill="white"/>
<path d="M22.1914 145.992C22.1914 146.146 22.1914 146.3 22.1914 146.455C22.0372 146.763 22.0372 147.225 22.0372 147.533C22.0372 148.92 22.0372 150.461 22.0372 151.848C22.0372 152.157 22.0372 152.465 21.729 152.465C21.4208 152.619 21.2667 152.311 21.1126 152.002C21.4208 150.153 21.4208 148.15 21.1126 146.3C21.1126 146.146 20.9585 145.992 20.9585 145.838C21.2667 145.684 21.729 145.684 22.1914 145.992Z" fill="white"/>
<path d="M58.5604 148.766C58.0981 149.999 58.4063 151.232 58.4063 152.619C57.944 152.619 57.6357 152.465 57.6357 151.848C57.6357 149.999 57.6357 148.15 57.6357 146.301C57.6357 145.53 58.0981 145.684 58.5604 145.838C58.5604 146.917 58.5604 147.842 58.5604 148.766Z" fill="white"/>
<path d="M59.1769 132.893C57.9441 131.66 57.6359 130.119 58.2523 128.424C58.2523 128.27 58.4064 128.116 58.4064 127.962C58.7146 127.808 58.8687 127.499 59.1769 127.345C59.3311 127.191 59.6393 126.883 59.7934 127.345C59.3311 127.808 59.4852 128.424 59.1769 128.886C58.8687 129.811 58.7146 130.89 59.331 131.66C59.331 131.969 59.4852 132.123 59.6393 132.277C59.7934 132.585 59.6393 132.739 59.1769 132.893Z" fill="white"/>
<path d="M34.0576 127.654C34.2117 126.267 34.3658 126.267 35.2905 126.575C35.2905 126.729 35.2905 126.883 35.2905 126.883C34.9823 127.345 34.674 127.808 35.2905 128.27C35.2905 128.424 35.2905 128.424 35.2905 128.578C34.9823 128.732 34.9822 129.041 34.9822 129.349C35.1364 130.273 35.1364 131.352 35.1364 132.277C35.1364 133.201 34.9823 133.356 34.0576 133.047C34.0576 132.893 34.2117 132.739 34.2117 132.739C34.5199 131.198 34.5199 129.657 34.2117 127.962C34.2117 127.962 34.0576 127.808 34.0576 127.654Z" fill="white"/>
<path d="M16.7977 90.3599C16.0271 89.7435 16.1812 88.8188 16.6436 88.2024C17.26 87.4319 18.0305 87.1237 18.9552 87.2778C19.4175 87.2778 20.0339 88.0483 20.6503 87.1237C20.8044 88.0483 20.8044 88.9729 20.6503 89.8976C20.4962 89.4352 20.3421 89.127 20.3421 88.8188C20.0339 88.0483 19.4175 87.586 18.4928 87.586C18.0305 87.586 17.5682 87.8942 17.4141 88.3565C17.1059 88.9729 17.5682 89.2811 17.8764 89.7435C17.4141 90.0517 17.4141 89.7435 17.26 89.4352C17.1059 89.127 17.1059 88.8188 16.7977 88.6647C16.4895 89.2811 16.7977 89.7435 16.7977 90.3599Z" fill="white"/>
<path d="M29.2801 110.394C28.5096 110.856 27.7391 110.702 26.8144 110.548C26.5062 110.24 26.5062 109.931 26.5062 109.623C26.5062 109.007 26.5062 108.544 26.5062 107.928C26.5062 107.62 26.6603 107.003 26.198 107.003C25.7357 107.003 25.8898 107.62 25.8898 107.928C25.8898 109.007 25.8898 109.931 25.8898 111.01C25.8898 111.627 26.0439 112.397 25.7357 113.014C25.7357 111.318 25.7357 109.623 25.7357 108.082C25.7357 107.466 25.5816 107.003 24.811 106.695C26.5062 106.849 28.3555 106.079 29.7424 107.466C29.7424 107.466 29.7424 107.466 29.5883 107.62C29.2801 107.466 28.9719 107.158 28.5096 107.158C28.5096 107.312 28.6637 107.62 28.6637 107.774C28.5096 107.62 28.3555 107.62 28.3555 107.466C27.8932 107.158 27.4308 107.003 26.9685 107.312C26.5062 107.466 26.8144 107.928 26.8144 108.39C26.8144 108.699 26.8144 109.161 26.8144 109.469C26.6603 110.24 27.1226 110.394 27.7391 110.394C28.2014 110.394 28.5096 110.086 28.8178 109.777C28.8178 109.931 28.8178 110.24 29.2801 110.394Z" fill="white"/>
<path d="M57.944 113.476C57.7899 113.168 57.6358 113.014 57.3276 112.859C57.3276 112.705 57.1735 112.551 57.0193 112.551C56.557 111.164 56.4029 109.931 56.7111 108.544C56.8652 108.39 57.0193 108.236 57.0193 108.082C57.3276 108.082 57.944 107.312 57.944 108.39C57.7899 108.544 57.7899 108.699 57.7899 108.853C57.6358 110.24 57.6358 111.472 58.0981 112.705C58.0981 112.859 58.4063 113.322 57.944 113.476Z" fill="white"/>
<path d="M48.081 128.578C47.6187 128.578 47.6187 127.962 47.3105 127.808C47.0023 128.27 47.3105 128.578 47.3105 129.041C46.6941 128.424 46.8482 127.654 47.1564 126.883C47.6187 126.113 48.6975 125.804 49.6221 125.958C50.7009 126.267 50.7009 126.267 51.3173 125.958C51.3173 126.421 51.3173 126.729 51.3173 127.191C51.3173 127.5 51.3173 127.962 51.3173 128.27C50.7009 127.037 50.0844 125.804 48.3893 126.575C47.4646 127.191 47.9269 127.962 48.081 128.578Z" fill="white"/>
<path d="M15.4105 149.383C14.9482 150.153 15.2564 151.078 15.2564 151.848C15.2564 152.157 15.4105 152.619 14.9482 152.465C14.4859 152.465 14.4859 152.157 14.64 151.694C14.7941 149.845 14.7941 148.15 14.64 146.3C14.64 146.146 14.4859 145.684 14.9482 145.684C15.2564 145.684 15.2564 145.992 15.2564 146.3C15.4106 147.071 14.9482 147.996 15.5647 148.612C15.7188 148.612 15.7188 148.612 15.8729 148.766C15.8729 148.92 15.7188 149.074 15.7188 149.074C15.5647 149.229 15.4105 149.383 15.4105 149.383Z" fill="white"/>
<path d="M37.9101 93.5961C37.6019 94.3666 37.2937 93.5961 36.9855 93.7502C36.6772 93.442 36.8314 93.1338 36.8314 92.8256C36.8314 91.2845 36.9855 89.8975 36.6772 88.3565C36.6772 88.2024 36.6772 88.2024 36.6772 88.0483C36.9855 87.2777 37.4478 87.7401 37.9101 87.8942C37.6019 88.0483 37.6019 88.3565 37.6019 88.6647C37.6019 90.0517 37.4478 91.2845 37.756 92.6715C37.756 92.9797 37.9101 93.2879 37.9101 93.5961Z" fill="white"/>
<path d="M25.7358 113.014C26.0441 112.397 25.89 111.627 25.89 111.01C25.89 109.931 25.89 109.007 25.89 107.928C25.89 107.62 25.7358 107.003 26.1982 107.003C26.6605 107.003 26.5064 107.62 26.5064 107.928C26.5064 108.544 26.5064 109.007 26.5064 109.623C26.5064 109.931 26.5064 110.394 26.8146 110.548C26.8146 111.318 26.8146 111.935 26.8146 112.705C26.6605 112.705 26.5064 112.859 26.5064 113.014C26.5064 113.784 26.1982 113.476 25.7358 113.322C25.7358 113.168 25.7358 113.168 25.7358 113.014Z" fill="white"/>
<path d="M68.7314 89.127C68.7314 88.8188 68.7314 88.5106 68.7314 88.0483C68.8856 87.586 69.0397 87.1236 69.502 87.8942C69.9643 88.5106 69.8102 89.127 70.2725 89.7434C70.2725 89.8976 70.2725 90.0517 70.4266 90.2058C70.4266 90.8222 70.4266 91.2845 71.043 91.5927C71.043 91.9009 71.043 92.3633 71.5054 92.5174C71.3513 92.9797 71.043 93.2879 70.7348 92.6715C70.5807 92.3633 70.2725 92.2091 70.1184 91.9009C69.9643 91.4386 69.8102 91.1304 69.8102 90.6681C69.8102 90.514 69.6561 90.514 69.6561 90.3599C69.6561 89.8976 69.6561 89.5893 69.1938 89.2811L69.0397 89.127C68.8856 89.127 68.8856 89.127 68.7314 89.127Z" fill="white"/>
<path d="M16.7976 90.3598C16.6435 89.7434 16.4894 89.2811 16.7976 88.6647C17.1058 88.8188 17.1058 89.127 17.2599 89.4352C17.414 89.7434 17.414 90.0516 17.8763 89.7434C18.0304 89.8975 18.1845 89.8975 18.1845 90.0516C18.801 90.6681 19.4174 91.2845 20.4961 91.4386C20.4961 91.7468 20.8043 92.055 21.1125 92.2091C21.1125 92.6714 20.9584 93.1338 20.8043 93.5961C20.6502 93.9043 20.4961 94.0584 20.1879 93.5961C20.6502 93.1338 20.4961 92.8255 20.1879 92.3632C19.5715 91.5927 18.9551 91.1304 18.0304 91.1304C17.8763 90.514 17.2599 90.514 16.7976 90.3598Z" fill="white"/>
<path d="M39.1429 132.893C38.5264 132.277 38.5264 131.506 38.5264 130.89C38.5264 129.811 38.5264 128.732 38.5264 127.808C38.5264 127.191 38.5264 126.575 37.6018 126.267C38.5264 126.267 39.4511 126.267 40.3757 126.267C39.297 126.575 39.4511 127.499 39.4511 128.27C39.4511 129.657 39.297 131.044 39.7593 132.431C39.1429 132.123 39.297 131.66 39.297 131.044C39.297 129.811 39.297 128.424 39.297 127.191C39.297 127.037 39.4511 126.575 38.9888 126.575C38.6806 126.575 38.6805 126.883 38.6805 127.037C38.8347 129.041 38.5264 130.89 39.1429 132.893C39.1429 132.893 39.1429 132.739 39.1429 132.893Z" fill="white"/>
<path d="M8.1677 108.236C7.85948 108.082 8.01359 107.62 7.55127 107.466C8.3218 106.387 9.09233 106.233 10.4793 106.541C10.9416 106.695 11.2498 106.849 11.558 106.233C11.7121 107.158 11.7121 107.928 11.558 108.699C11.0957 107.62 10.6334 106.541 9.24644 106.849C8.4759 107.003 8.1677 107.466 8.1677 108.236Z" fill="white"/>
<path d="M26.9687 89.1271C26.9687 88.8189 27.1228 88.6648 27.1228 88.3566C26.9687 88.3566 26.6605 88.3566 26.5063 88.3566C27.5851 87.2778 28.8179 86.9696 30.359 87.586C30.8213 87.7401 31.2836 87.8942 31.746 87.4319C31.746 88.2024 31.746 88.973 31.9001 89.7435C31.2836 88.973 30.8213 88.0483 29.5885 87.8942C28.3556 87.586 27.5851 88.2024 26.9687 89.1271Z" fill="white"/>
<path d="M59.9473 127.345C59.7932 126.883 59.4849 127.191 59.3308 127.345C59.0226 127.5 58.8685 127.962 58.5603 127.962C59.3308 126.267 61.1801 125.496 63.0294 126.267C63.4917 126.421 63.7999 126.575 64.2622 125.804C64.2622 126.729 64.2622 127.345 64.2622 128.116C63.6458 127.345 63.3376 126.575 62.413 126.421C61.3342 126.421 60.5637 126.729 59.9473 127.345Z" fill="white"/>
<path d="M43.9204 146.917C43.7663 146.609 43.6122 146.609 43.304 146.609C43.9204 145.53 44.845 145.222 46.0779 145.684C46.5402 145.838 46.8484 146.146 47.3107 145.53C47.4648 146.301 47.4648 147.225 47.3107 148.15C46.8484 147.071 46.5402 145.992 45.1532 145.992C44.5368 145.992 44.2286 146.301 43.9204 146.917Z" fill="white"/>
<path d="M29.5884 152.465C30.359 151.848 30.0508 151.232 29.7425 150.615C29.7425 149.383 29.7425 148.15 29.7425 147.071C29.7425 146.609 29.8966 146.146 29.4343 145.838C29.8966 145.838 30.359 145.838 30.9754 145.838C30.359 146.3 30.359 146.917 30.359 147.533C30.359 149.228 30.359 150.924 30.359 152.619C30.359 152.773 30.5131 153.235 30.2049 153.235C29.7425 152.927 29.5884 152.773 29.5884 152.465Z" fill="white"/>
<path d="M67.0362 113.322C67.4986 112.705 67.3445 112.089 67.3445 111.318C67.3445 110.086 67.3445 109.007 67.3445 107.774C67.3445 107.466 67.1903 107.003 67.8068 106.695C67.8068 108.082 67.8068 109.315 67.9609 110.548C67.9609 110.702 67.9609 110.856 68.115 111.01C67.9609 111.781 67.8068 112.705 68.115 113.476C67.6527 113.784 67.1904 113.784 66.728 113.476C66.8821 113.476 67.0362 113.476 67.0362 113.322Z" fill="white"/>
<path d="M11.0956 112.243C11.0956 112.705 11.0956 113.168 11.5579 113.322C10.7874 114.246 9.70866 114.246 8.78402 113.938C8.3217 113.784 7.85939 113.63 7.39707 114.092C7.24297 113.168 7.24297 112.397 7.39707 111.627C7.85939 112.859 8.62992 113.784 10.0169 113.63C10.7874 113.476 11.0956 113.014 11.0956 112.243Z" fill="white"/>
<path d="M57.9439 108.236C57.9439 107.158 57.3275 107.928 57.0193 107.928C57.7898 106.695 58.8686 106.233 60.1014 106.387C61.4884 106.541 62.5671 107.003 63.0294 108.39C63.0294 108.39 63.0294 108.39 62.8753 108.39C62.7212 108.236 62.413 107.928 62.2589 107.774C61.7966 107.312 61.7966 107.774 61.7966 108.082C60.5637 106.387 59.1768 106.387 57.9439 108.236Z" fill="white"/>
<path d="M39.1431 132.739C38.3725 130.89 38.6808 129.041 38.6808 127.037C38.6808 126.883 38.6808 126.575 38.989 126.575C39.4513 126.575 39.2972 126.883 39.2972 127.191C39.2972 128.424 39.2972 129.811 39.2972 131.044C39.2972 131.506 39.2972 132.123 39.7595 132.431L39.9136 132.585C39.7595 132.893 39.4513 133.047 39.1431 132.739Z" fill="white"/>
<path d="M16.3353 132.585C16.4894 132.893 16.1812 133.201 16.6436 133.356C16.9518 133.51 17.26 133.201 17.4141 132.893C18.801 133.201 20.0339 133.201 21.2667 132.123C21.2667 133.201 20.9585 133.664 19.8798 133.51C18.3387 133.356 16.7977 133.51 15.2566 133.356C15.7189 133.201 16.1812 133.047 16.3353 132.585Z" fill="white"/>
<path d="M20.1878 93.5962C20.342 93.9044 20.6502 93.9044 20.8043 93.5962C20.9584 93.1339 21.1125 92.6716 21.1125 92.2092C21.5748 93.7503 20.6502 94.9832 18.955 94.9832C18.1845 94.9832 17.568 94.8291 16.9516 94.5208C16.1811 94.2126 16.4893 93.5962 16.7975 93.1339C17.8763 94.675 19.1091 94.8291 20.1878 93.5962Z" fill="white"/>
<path d="M24.6571 148.92C25.2735 148.612 24.6571 147.687 25.1194 147.379C25.1194 148.766 25.1194 150.153 25.1194 151.54C25.1194 152.157 25.1194 152.773 26.0441 152.773C25.2735 153.081 24.503 152.927 23.5784 152.927C24.503 152.773 24.503 152.157 24.503 151.386C24.6571 150.461 24.6571 149.691 24.6571 148.92Z" fill="white"/>
<path d="M50.0846 133.047C50.2387 133.664 50.5469 133.047 50.8552 133.201C50.0846 133.818 49.16 133.818 48.3895 133.51C47.9271 133.355 47.3107 133.047 46.8484 133.972C46.8484 132.893 46.8484 131.969 46.8484 131.198C47.4648 132.431 48.3895 133.664 50.0846 133.047Z" fill="white"/>
<path d="M70.5805 111.164C70.8888 111.627 71.197 111.935 71.5052 112.397C71.9675 113.013 72.4298 113.63 73.5086 113.63C72.2757 114.246 71.5052 114.092 70.8887 113.168C70.5805 112.705 70.2723 112.397 69.9641 111.935C70.7346 112.089 70.5805 111.627 70.5805 111.164Z" fill="white"/>
<path d="M8.32185 146.146C8.01364 145.838 7.70543 145.684 7.39721 145.992C7.089 146.146 7.2431 146.609 7.2431 146.917C7.2431 148.458 7.2431 150.153 7.2431 151.694C7.2431 152.002 7.2431 152.157 6.93489 152.311C6.93489 150.461 6.93489 148.766 6.93489 146.917C6.93489 146.146 6.62668 145.992 6.01025 145.684C7.2431 145.684 8.47595 145.376 9.55469 145.838C9.40059 145.838 9.24649 145.992 8.93828 145.992C8.78417 145.992 8.63006 145.992 8.32185 146.146Z" fill="white"/>
<path d="M59.1768 132.893C59.485 132.893 59.7932 132.739 59.7932 132.277C61.3343 133.51 62.413 133.51 64.1082 132.123C64.1082 132.739 63.6459 133.201 62.8753 133.51C61.6425 133.972 60.4096 133.818 59.1768 132.893Z" fill="white"/>
<path d="M46.54 152.311C46.54 152.465 46.6941 152.619 47.0023 152.619C46.2318 153.235 45.3071 153.081 44.5366 152.927C44.0743 152.773 43.612 152.619 43.1497 153.081C43.1497 152.157 43.1497 151.386 43.1497 150.615C43.612 151.386 43.9202 152.157 44.8448 152.465C45.4612 152.619 46.0777 152.619 46.54 152.311Z" fill="white"/>
<path d="M28.5096 128.116C28.3555 127.808 28.3555 127.499 28.2014 127.191C28.2014 126.883 28.0473 126.729 28.3555 126.575C28.6637 126.421 28.8178 126.575 28.9719 126.729C29.4342 127.654 29.7424 128.732 30.3589 129.503C30.513 129.657 30.3589 129.811 30.2047 129.811C30.0506 129.811 29.8965 129.657 29.8965 129.503C29.8965 129.041 29.5883 128.886 29.126 128.732C28.9719 128.424 28.9719 128.116 28.8178 127.808C28.5096 127.499 28.5096 127.962 28.5096 128.116Z" fill="white"/>
<path d="M57.9438 113.476C58.4062 113.322 58.098 113.014 58.098 112.705C59.1767 113.938 60.1013 114.092 61.4883 113.168C61.9506 113.476 62.2588 112.859 62.567 112.705C62.567 112.705 62.567 112.705 62.7211 112.705C61.4883 114.246 59.639 114.555 57.9438 113.476Z" fill="white"/>
<path d="M27.1228 94.3667C27.431 94.3667 27.7392 94.5208 28.0474 94.5208C28.2015 94.2126 27.8933 94.2126 27.7392 93.9043C29.2803 94.5208 30.6672 94.2126 31.5919 92.6715C31.5919 94.6749 29.1262 95.4454 27.1228 94.3667Z" fill="white"/>
<path d="M15.5647 149.228C15.5647 149.074 15.7188 148.92 15.7188 148.92C16.027 148.92 16.3352 148.92 16.6434 148.92C17.7222 148.92 17.7222 148.92 18.3386 147.842C18.3386 148.766 18.3386 149.537 18.3386 150.307C17.8763 148.766 16.4893 149.537 15.5647 149.228Z" fill="white"/>
<path d="M21.1126 152.311C21.2667 152.465 21.4208 152.927 21.7291 152.773C22.0373 152.619 22.0373 152.311 22.0373 152.157C22.0373 150.77 22.0373 149.229 22.0373 147.842C22.0373 147.533 22.0373 147.071 22.1914 146.763C22.1914 148.458 22.1914 150.153 22.1914 151.848C22.1914 152.465 22.1914 153.081 23.116 153.081C22.1914 153.081 21.2667 153.081 20.188 153.081C20.4962 152.465 20.8044 152.619 21.1126 152.311Z" fill="white"/>
<path d="M33.9033 133.201C34.828 133.51 34.9821 133.356 34.9821 132.431C34.9821 131.506 34.9821 130.428 34.828 129.503C34.828 129.195 34.6739 128.887 35.1362 128.732C35.1362 129.965 35.1362 131.044 35.1362 132.277C35.1362 132.893 35.1362 133.51 36.0608 133.664C35.1362 133.664 34.0574 133.664 33.1328 133.664C33.441 133.047 33.7492 133.201 33.9033 133.201Z" fill="white"/>
<path d="M54.0913 145.992C53.4749 145.992 53.9372 146.455 53.9372 146.609C53.1667 145.838 52.0879 145.684 51.1633 146.146C51.0092 146.146 50.701 145.992 50.5469 145.838C51.7797 145.222 52.8585 145.222 54.0913 145.992Z" fill="white"/>
<path d="M65.3412 143.218C64.7247 143.989 64.2624 144.451 63.646 145.222C63.8001 143.372 63.9542 143.064 65.3412 143.218Z" fill="white"/>
<path d="M37.6018 92.6715C37.2936 91.4386 37.4477 90.0517 37.4477 88.6647C37.4477 88.3565 37.6018 88.0483 37.7559 87.8942C37.7559 89.2811 37.7559 90.514 37.7559 91.9009C37.7559 92.2092 37.91 92.5174 37.6018 92.6715Z" fill="white"/>
<path d="M25.7356 113.322C26.0438 113.63 26.5062 113.784 26.5062 113.014C26.5062 112.859 26.5062 112.705 26.8144 112.705C26.9685 113.322 27.1226 113.784 27.8931 113.938C26.9685 113.938 26.0438 113.938 24.9651 113.938C25.1192 113.476 25.5815 113.63 25.7356 113.322Z" fill="white"/>
<path d="M70.5806 111.164C70.7347 111.627 70.8888 112.089 70.1183 112.089C70.1183 111.935 69.9642 111.781 69.8101 111.627L69.656 111.472C69.656 111.318 69.5019 111.164 69.3478 111.164C69.3478 111.01 69.1937 111.01 69.1937 110.856L69.0396 110.702C69.0396 110.548 69.0396 110.548 69.0396 110.394C69.3478 110.394 69.5019 110.24 69.656 110.085C69.656 110.085 69.656 110.085 69.8101 110.085C69.9642 110.085 70.2724 110.24 70.2724 110.548V110.702C69.9642 110.856 70.2724 111.01 70.5806 111.164Z" fill="white"/>
<path d="M40.9922 125.958C41.3004 123.955 41.3004 123.801 42.6874 123.955C42.225 124.572 41.6086 125.188 40.9922 125.958Z" fill="white"/>
<path d="M22.1912 145.992C21.7289 145.684 21.2665 145.684 20.8042 145.992C20.496 145.992 20.1878 145.992 20.0337 145.684C21.7289 145.684 23.424 145.684 25.1192 145.684C24.811 145.838 24.3487 145.992 24.0405 145.992C23.424 145.684 22.8076 145.838 22.1912 145.992Z" fill="white"/>
<path d="M6.93474 152.311C7.70527 152.927 7.85937 152.927 8.01347 151.848C8.32169 152.465 8.32169 152.465 9.09223 152.773C8.01348 152.773 7.24294 152.773 6.47241 152.773C6.62652 152.619 6.93474 152.619 6.93474 152.311Z" fill="white"/>
<path d="M63.0295 108.39C63.8 109.931 63.6459 111.318 62.7212 112.705C62.7212 112.705 62.7212 112.705 62.5671 112.705C63.1836 111.318 63.4918 109.931 63.0295 108.39C63.0295 108.544 63.0295 108.544 63.0295 108.39Z" fill="white"/>
<path d="M18.0305 91.1304C18.9552 91.1304 19.7257 91.5927 20.188 92.3632C20.4962 92.6715 20.6503 93.1338 20.188 93.5961C20.3421 92.8256 19.8798 92.3632 19.2634 92.055C18.8011 91.7468 18.4928 91.4386 18.0305 91.1304Z" fill="white"/>
<path d="M54.2455 133.047C54.7078 133.356 55.1701 133.818 55.4783 132.893C55.6324 133.202 56.0948 133.356 56.403 133.51C55.4783 133.51 54.3996 133.51 53.1667 133.51C53.7832 133.202 54.0914 133.047 54.2455 133.047Z" fill="white"/>
<path d="M37.7561 87.8942C37.2938 87.7401 36.8315 87.2778 36.5233 88.0483C36.3692 87.7401 35.9068 87.7401 35.5986 87.4319C36.6774 87.2778 37.602 87.2778 38.6808 87.4319C38.3725 87.586 38.0643 87.7401 37.7561 87.8942Z" fill="white"/>
<path d="M55.4781 132.739C55.0158 131.506 55.324 130.273 55.324 129.041C55.324 128.27 55.0158 127.345 55.6322 126.575C55.4781 128.732 55.4781 130.736 55.4781 132.739Z" fill="white"/>
<path d="M55.6324 126.575C55.1701 126.575 54.7078 126.113 54.2454 126.729C53.9372 126.575 53.629 126.421 53.3208 126.421V126.267C54.2454 126.267 55.1701 126.267 56.2488 126.267C56.2488 126.575 55.7865 126.421 55.6324 126.575Z" fill="white"/>
<path d="M21.1125 146.455C21.4208 148.304 21.4208 150.307 21.1125 152.156C21.1125 150.307 21.1125 148.304 21.1125 146.455Z" fill="white"/>
<path d="M56.8652 108.544C56.557 109.931 56.7111 111.318 57.1734 112.551C56.2488 111.318 56.0946 109.931 56.8652 108.544Z" fill="white"/>
<path d="M66.8821 113.63C67.3444 113.784 67.8067 113.784 68.269 113.63C68.5772 113.63 68.8854 113.63 69.1936 113.784C68.269 114.246 67.1903 114.092 66.2656 114.092C66.2656 113.322 66.7279 113.938 66.8821 113.63Z" fill="white"/>
<path d="M34.2117 128.116C34.5199 129.657 34.5199 131.198 34.2117 132.893C34.2117 131.198 34.2117 129.657 34.2117 128.116Z" fill="white"/>
<path d="M26.9685 92.9796C26.3521 92.2091 26.198 90.2057 26.9685 88.9729C26.6603 90.3598 26.5062 91.7468 26.9685 92.9796Z" fill="white"/>
<path d="M20.4962 91.2845C19.5715 91.2845 18.801 90.514 18.1846 89.8976C18.9551 90.3599 19.8797 90.6681 20.4962 91.2845Z" fill="white"/>
<path d="M36.6773 88.3566C36.9855 89.7435 36.8314 91.2846 36.8314 92.8257C36.3691 91.2846 36.6773 89.7435 36.6773 88.3566Z" fill="white"/>
<path d="M8.16756 87.8942C8.16756 88.8188 8.16756 89.7434 8.16756 90.514C7.55113 89.7434 7.70524 88.8188 8.16756 87.8942Z" fill="white"/>
<path d="M29.8966 107.466C30.513 108.236 30.513 108.853 30.0507 109.623C30.0507 109.623 30.0507 109.623 29.8966 109.623C30.2048 108.853 30.0507 108.236 29.8966 107.466C29.8966 107.466 29.7425 107.466 29.8966 107.466Z" fill="white"/>
<path d="M59.4851 131.66C58.7145 130.736 59.0227 129.811 59.331 128.886C59.331 129.811 59.1768 130.736 59.4851 131.66Z" fill="white"/>
<path d="M71.8135 130.582C72.1217 131.198 72.2758 131.815 72.584 132.277C72.584 132.277 72.584 132.277 72.4299 132.277C72.1217 132.123 72.1217 131.506 71.6594 131.506C71.6594 131.352 71.6594 131.044 71.8135 130.582C71.6594 130.736 71.6594 130.736 71.8135 130.582Z" fill="white"/>
<path d="M70.2725 146.609C69.9643 146.455 69.8102 145.838 69.3479 146.455C69.3479 146.146 69.502 145.838 69.8102 145.53C70.1184 145.684 70.2725 146.146 70.2725 146.609Z" fill="white"/>
<path d="M11.5579 113.322C11.712 112.705 12.0202 112.089 11.8661 111.318C12.3284 112.089 12.1743 112.705 11.5579 113.322Z" fill="white"/>
<path d="M16.9517 90.3599C17.414 90.514 18.0304 90.514 18.0304 91.1304C17.5681 90.9763 17.1058 90.8222 16.9517 90.3599Z" fill="white"/>
<path d="M35.2903 128.27C34.828 127.808 34.9821 127.345 35.2903 126.883C35.2903 127.345 35.2903 127.808 35.2903 128.27Z" fill="white"/>
<path d="M71.043 91.5928C70.5806 91.2846 70.4265 90.8222 70.4265 90.2058C70.7347 90.514 71.043 90.9764 71.043 91.5928Z" fill="white"/>
<path d="M49.0058 147.842C49.1599 148.458 48.8517 148.92 48.8517 149.537C48.6976 148.92 48.6976 148.304 49.0058 147.842Z" fill="white"/>
<path d="M46.8483 151.078C47.1565 151.54 47.1565 152.002 46.54 152.157C46.8483 151.848 47.0024 151.54 46.8483 151.078Z" fill="white"/>
<path d="M30.0508 109.623C29.8967 109.931 29.7426 110.24 29.2803 110.394C29.2803 110.394 29.2803 110.394 29.2803 110.24C29.4344 110.085 29.7426 109.777 30.0508 109.623Z" fill="white"/>
<path d="M15.873 126.267C15.873 126.421 15.873 126.421 15.873 126.575C15.5648 126.575 15.4107 126.575 15.2566 126.421C15.4107 126.113 15.7189 126.113 15.873 126.267Z" fill="white"/>
<path d="M50.0845 146.3C49.9304 146.763 49.7763 146.917 49.314 147.071C49.4681 146.763 49.7763 146.455 50.0845 146.3Z" fill="white"/>
<path d="M71.5053 92.5174C71.1971 92.3633 71.043 91.901 71.043 91.5928C71.3512 91.7469 71.3512 92.0551 71.5053 92.5174Z" fill="white"/>
<path d="M21.1125 92.0551C20.8043 91.901 20.6502 91.5927 20.4961 91.2845C20.8043 91.4386 20.9584 91.7469 21.1125 92.0551Z" fill="white"/>
<path d="M55.6325 147.996C55.3243 147.687 55.1702 147.379 55.1702 147.071C55.4784 147.379 55.6325 147.687 55.6325 147.996Z" fill="white"/>
<path d="M70.4265 109.007C70.4265 108.698 70.4265 108.236 70.4265 107.928C70.4265 107.928 70.4265 107.928 70.5806 107.928C70.7348 108.236 70.7348 108.698 70.4265 109.007C70.4265 109.007 70.5806 109.007 70.4265 109.007Z" fill="white"/>
<path d="M70.5807 111.164C70.4266 111.01 70.1184 111.01 70.1184 110.548C70.2725 110.702 70.4266 110.856 70.5807 111.164Z" fill="white"/>
<path d="M69.5019 109.931C69.3478 110.086 69.1937 110.24 68.8855 110.24C69.0396 109.931 69.3478 110.086 69.5019 109.931Z" fill="white"/>
<path d="M13.0991 127.654C13.4073 127.808 13.4073 128.116 13.4073 128.424C13.2532 128.27 13.0991 127.962 13.0991 127.654Z" fill="white"/>
<path d="M59.7932 132.277C59.485 132.123 59.3309 131.969 59.485 131.66C59.6391 131.815 59.7932 132.123 59.7932 132.277Z" fill="white"/>
<path d="M11.8661 111.318C11.5579 111.164 11.5579 111.01 11.4038 110.702C11.712 110.856 11.8661 111.01 11.8661 111.318Z" fill="white"/>
<path d="M70.8889 150.615C71.1971 150.77 71.1971 150.924 71.1971 151.232C71.1971 151.078 71.043 150.77 70.8889 150.615Z" fill="white"/>
<path d="M54.2454 126.729C54.5535 126.729 54.5536 126.883 54.3995 127.037C54.3995 127.037 54.3995 126.883 54.2454 126.729Z" fill="white"/>
<path d="M70.5807 90.2058C70.4265 90.0517 70.4265 89.8976 70.4265 89.7435C70.4265 89.8976 70.5807 90.0517 70.5807 90.2058Z" fill="white"/>
<path d="M50.5468 145.992C50.3927 146.146 50.2386 146.301 50.0845 146.301C50.2386 146.146 50.2386 145.992 50.5468 145.992Z" fill="white"/>
<path d="M57.0194 107.928C57.0194 108.082 57.0194 108.236 56.7112 108.39C56.8653 108.236 57.0194 108.082 57.0194 107.928Z" fill="white"/>
<path d="M57.3276 112.859C57.4817 112.859 57.6359 113.014 57.79 113.322C57.4817 113.168 57.4817 113.014 57.3276 112.859Z" fill="white"/>
<path d="M69.656 111.472C69.8101 111.472 69.9642 111.627 69.9642 111.935C69.8101 111.781 69.8101 111.627 69.656 111.472Z" fill="white"/>
<path d="M10.6333 151.848C10.7874 152.002 10.9415 152.156 10.9415 152.311C10.7874 152.156 10.6333 152.002 10.6333 151.848Z" fill="white"/>
<path d="M70.8888 147.996C70.7347 147.842 70.5806 147.687 70.5806 147.379C70.8888 147.533 70.8888 147.842 70.8888 147.996Z" fill="white"/>
<path d="M55.3241 147.071C55.17 146.917 55.0159 146.763 55.0159 146.609C55.17 146.763 55.17 146.917 55.3241 147.071Z" fill="white"/>
<path d="M70.7348 147.533C70.5807 147.379 70.4266 147.225 70.5807 146.917C70.5807 147.071 70.7348 147.225 70.7348 147.533Z" fill="white"/>
<path d="M71.1971 148.458C71.043 148.304 71.043 148.15 71.043 147.996C71.043 148.15 71.043 148.304 71.1971 148.458Z" fill="white"/>
<path d="M27.8932 94.0585C27.7391 94.0585 27.585 93.9044 27.585 93.7502C27.7391 93.7502 27.7391 93.9044 27.8932 94.0585Z" fill="white"/>
<path d="M57.0193 112.551C57.1734 112.551 57.3275 112.705 57.3275 112.86C57.1734 112.86 57.1734 112.705 57.0193 112.551Z" fill="white"/>
<path d="M58.5605 127.962C58.5605 128.116 58.4064 128.27 58.4064 128.424C58.2523 128.27 58.4064 128.116 58.5605 127.962Z" fill="white"/>
<path d="M69.3479 111.01C69.502 111.01 69.6561 111.164 69.6561 111.318C69.502 111.164 69.3479 111.01 69.3479 111.01Z" fill="white"/>
<path d="M27.431 93.5962C27.2769 93.5962 27.1228 93.4421 27.1228 93.288C27.2769 93.288 27.2769 93.4421 27.431 93.5962Z" fill="white"/>
<path d="M49.16 147.379C49.16 147.533 49.0059 147.687 49.0059 147.842C49.0059 147.687 49.0059 147.533 49.16 147.379Z" fill="white"/>
<path d="M49.314 147.071C49.314 147.225 49.314 147.379 49.1599 147.533C49.1599 147.225 49.1599 147.225 49.314 147.071Z" fill="white"/>
<path d="M70.4266 146.917C70.4266 146.763 70.2725 146.763 70.2725 146.609C70.4266 146.609 70.4266 146.763 70.4266 146.917Z" fill="white"/>
<path d="M24.8068 147.533C24.8068 147.682 24.8068 147.682 24.8068 147.533C24.6585 147.533 24.6585 147.533 24.8068 147.533Z" fill="white"/>
<path d="M24.657 146.763C24.8053 146.763 24.657 146.911 24.657 146.763V146.763Z" fill="white"/>
<path d="M55.016 146.609C54.8619 146.609 54.8619 146.455 54.7078 146.455C54.8619 146.455 54.8619 146.609 55.016 146.609Z" fill="white"/>
<path d="M54.7051 146.452C54.5568 146.304 54.7051 146.452 54.7051 146.452V146.452Z" fill="white"/>
<path d="M54.551 146.296C54.4027 146.148 54.551 146.148 54.551 146.296V146.296Z" fill="white"/>
<path d="M54.3952 146.144C54.2469 145.995 54.2469 146.144 54.3952 146.144V146.144Z" fill="white"/>
<path d="M24.657 148.304C24.8053 148.304 24.8053 148.304 24.657 148.304C24.657 148.452 24.657 148.452 24.657 148.304Z" fill="white"/>
<path d="M27.1226 93.288C27.1226 93.1338 26.9685 93.1338 26.9685 92.9797C26.9685 93.1338 27.1226 93.1338 27.1226 93.288Z" fill="white"/>
<path d="M11.5536 110.699C11.4053 110.551 11.4053 110.699 11.5536 110.699V110.699Z" fill="white"/>
<path d="M69.502 111.318C69.6502 111.467 69.6502 111.467 69.502 111.318V111.318Z" fill="white"/>
<path d="M69.1936 110.702C69.1936 110.856 69.3477 110.856 69.3477 111.01C69.1936 110.856 69.1936 110.856 69.1936 110.702Z" fill="white"/>
<path d="M40.5299 100.993C30.0507 100.993 19.5715 100.993 9.09223 100.993C8.62991 100.993 7.85938 101.301 7.85938 100.685C7.85938 99.9145 8.62991 100.223 9.09223 100.223C29.8966 100.223 50.7009 100.223 71.5053 100.223C71.9676 100.223 73.0463 99.9145 73.0463 100.685C73.0463 101.301 72.1217 100.993 71.5053 100.993C61.1801 100.993 50.855 100.993 40.5299 100.993Z" fill="white"/>
<path d="M43.1498 107.312C43.1498 108.699 43.3039 110.24 43.3039 111.627C43.3039 112.089 43.3039 112.551 43.3039 113.014C43.3039 113.168 43.3039 113.476 42.9957 113.476C42.8416 113.476 42.6875 113.322 42.6875 113.168C42.6875 111.318 42.6875 109.315 42.6875 107.466C42.8416 107.312 42.9957 107.312 43.1498 107.312Z" fill="white"/>
<path d="M45.7695 107.774C45.7695 107.312 45.9236 107.157 46.386 107.466C47.0024 107.928 47.3106 109.161 45.9236 109.777C45.9236 109.161 46.5401 108.39 45.7695 107.774Z" fill="white"/>
<path d="M49.9304 148.612C49.9304 149.074 49.9304 149.383 49.9304 149.845C49.6222 149.537 49.6222 149.074 49.9304 148.612Z" fill="white"/>
<path d="M50.0846 150.307C50.0846 150.461 50.0846 150.77 50.2387 150.924C49.9305 150.77 49.9305 150.461 50.0846 150.307Z" fill="white"/>
<path d="M8.01348 146.3C8.32169 147.225 8.16759 148.15 8.16759 148.92C7.70527 148.15 8.01348 147.225 8.01348 146.3Z" fill="white"/>
<path d="M71.6595 130.736C71.6595 131.044 71.6595 131.352 71.6595 131.66C71.3512 131.66 71.1971 131.352 71.043 131.044C70.8889 130.736 70.5807 130.428 71.043 130.273C71.5053 129.965 71.3512 130.582 71.6595 130.736Z" fill="white"/>
<path d="M71.6594 131.66C72.1217 131.66 71.9676 132.277 72.43 132.431C72.43 132.739 72.43 133.047 72.1217 133.047C71.6594 133.047 71.8135 132.585 71.8135 132.431C71.6594 132.123 71.6594 131.969 71.6594 131.66Z" fill="white"/>
<path d="M34.9821 113.322C34.828 113.63 34.5197 113.784 34.2115 113.63C33.9033 113.63 33.9033 113.168 33.9033 113.014C33.9033 111.164 33.9033 109.469 33.9033 107.62C33.9033 107.312 33.7492 107.003 34.2115 107.003C34.5197 107.003 34.6739 107.312 34.6739 107.62C34.6739 109.161 34.6739 110.702 34.6739 112.243C34.6739 112.551 34.6738 113.014 34.9821 113.322Z" fill="white"/>
<path d="M8.3218 129.811C8.3218 130.736 8.3218 131.66 8.3218 132.739C8.3218 132.893 8.32179 133.201 8.01358 133.201C7.70537 133.201 7.55127 132.893 7.55127 132.739C7.85948 130.89 7.55127 129.041 7.55127 127.191C7.55127 126.883 7.39716 126.421 7.85948 126.421C8.3218 126.421 8.1677 126.883 8.1677 127.191C8.3218 128.116 8.3218 129.041 8.3218 129.811Z" fill="white"/>
<path d="M12.9449 127.808C13.099 128.116 13.2531 128.27 13.4072 128.578C13.5613 129.811 13.5613 131.044 12.7908 131.969C12.6367 132.123 12.4826 132.277 12.3284 132.277C12.0202 132.123 12.1743 131.969 12.1743 131.66C12.7908 130.89 12.9449 129.195 12.4825 128.116C12.3284 127.654 12.0202 127.191 11.4038 127.345C11.4038 126.883 11.712 126.729 12.0202 127.037C12.3284 127.191 12.6367 127.499 12.9449 127.808Z" fill="white"/>
<path d="M8.16775 87.8942C7.85954 88.8188 7.55132 89.7434 8.16775 90.6681C7.85954 91.5927 7.85953 92.6715 8.01363 93.5961C8.01363 93.9043 8.16774 94.2125 7.70542 94.2125C7.24311 94.2125 7.39722 93.9043 7.39722 93.5961C7.39722 91.7468 7.39722 90.0516 7.39722 88.2024C7.39722 87.8942 7.39721 87.5859 7.85953 87.5859C7.85953 87.5859 8.16775 87.4318 8.16775 87.8942Z" fill="white"/>
<path d="M57.9438 91.2845C57.9438 90.3599 57.9438 89.4352 57.9438 88.5106C57.9438 88.0483 57.9438 87.5859 58.5603 87.5859C59.1767 87.74 58.5603 88.2024 58.7144 88.3565C59.0226 90.0516 58.5603 91.7468 58.7144 93.5961C58.7144 93.9043 58.8685 94.3666 58.4062 94.2125C57.9439 94.2125 58.098 93.7502 58.098 93.442C57.9438 92.8256 57.9438 92.055 57.9438 91.2845Z" fill="white"/>
<path d="M71.8135 93.9043C71.8135 94.0584 71.6594 94.2125 71.5052 94.2125C71.197 94.2125 71.197 93.9043 71.197 93.7502C71.197 93.5961 71.3511 93.442 71.5052 93.442C71.6594 93.5961 71.8135 93.7502 71.8135 93.9043Z" fill="white"/>
<path d="M70.5807 109.007C70.7348 108.544 70.7348 108.236 70.5807 107.774C70.4266 107.466 70.4266 107.312 70.2725 107.003C71.5053 107.62 71.6594 108.236 71.1971 109.315C71.043 109.469 71.043 109.623 70.7348 109.623C70.4266 109.469 70.5807 109.315 70.5807 109.007Z" fill="white"/>
<path d="M28.8179 109.623C28.8179 109.469 28.972 109.315 28.972 109.161C29.2803 108.544 29.2802 108.082 28.8179 107.62C28.8179 107.466 28.6638 107.158 28.6638 107.003C29.1261 107.003 29.4344 107.158 29.7426 107.466C30.0508 108.082 30.2049 108.853 29.8967 109.469C29.5885 109.777 29.4344 109.931 29.1261 110.24C28.8179 110.24 28.8179 109.931 28.8179 109.623Z" fill="white"/>
<path d="M57.9439 108.236C57.9439 108.39 57.9439 108.544 57.7898 108.699C57.7898 108.544 57.7898 108.39 57.9439 108.236Z" fill="white"/>
<path d="M69.5019 90.3599C69.1937 90.0517 69.1937 89.7434 69.0396 89.2811C69.5019 89.4352 69.5019 89.8976 69.5019 90.3599Z" fill="white"/>
<path d="M69.1894 89.2786C69.041 89.1302 69.041 89.2786 69.1894 89.2786V89.2786Z" fill="white"/>
<path d="M69.656 90.6681C69.656 90.514 69.502 90.514 69.502 90.3599C69.656 90.514 69.656 90.514 69.656 90.6681Z" fill="white"/>
<path d="M61.4883 113.014C61.6424 112.551 61.9506 112.243 62.1047 111.781C62.7212 110.856 62.567 109.007 61.9506 108.082C62.1047 107.928 62.1047 107.466 62.4129 107.774C62.567 107.928 62.8753 108.236 63.0294 108.39C63.4917 109.777 63.1835 111.164 62.7211 112.551C62.2588 112.705 62.1047 113.322 61.4883 113.014Z" fill="white"/>
<path d="M11.4038 127.345C12.0202 127.345 12.1743 127.808 12.4826 128.116C13.099 129.195 12.9449 130.89 12.1743 131.66C12.6367 130.119 12.6367 128.578 11.4038 127.345Z" fill="white"/>
<path d="M28.8179 107.774C29.4343 108.236 29.2802 108.699 28.972 109.315C28.972 108.699 28.972 108.236 28.8179 107.774Z" fill="white"/>
<path d="M61.9507 108.082C62.7212 109.007 62.8754 110.856 62.1048 111.781C62.413 110.548 62.2589 109.315 61.9507 108.082Z" fill="white"/>
</g>
<defs>
<clipPath id="clip0">
<rect width="80.4435" height="159.5" fill="white" transform="translate(0 0.670044)"/>
</clipPath>
</defs>
</svg>
