<svg width="200" height="32" viewBox="0 0 200 32" fill="none" xmlns="http://www.w3.org/2000/svg">
<g clip-path="url(#clip0)">
<path d="M194.164 31.452H198.714V30.2581H195.504V23.9166H194.164V31.452ZM180.377 28.5685L181.56 25.5048L182.72 28.5685H180.377ZM177.73 31.452H179.228L179.915 29.7286H183.181L183.88 31.452H185.412L182.167 23.9166H181.008L177.73 31.452ZM162.344 31.452H163.684V25.6286H163.706L167.289 31.452H168.989V23.9166H167.649V29.5598H167.627L164.123 23.9166H162.344V31.452ZM146.574 26.5749C146.698 26.2369 146.879 25.9553 147.104 25.7076C147.329 25.4598 147.6 25.2683 147.915 25.1218C148.23 24.9754 148.579 24.9079 148.973 24.9079C149.367 24.9079 149.717 24.9754 150.043 25.1218C150.36 25.2683 150.64 25.4598 150.866 25.7076C151.092 25.9553 151.272 26.2483 151.395 26.5749C151.519 26.9128 151.587 27.2732 151.587 27.6561C151.587 28.0616 151.531 28.4334 151.395 28.7713C151.272 29.1091 151.092 29.402 150.866 29.6498C150.63 29.8976 150.36 30.0891 150.043 30.2355C149.728 30.3707 149.379 30.4383 148.996 30.4383C148.614 30.4383 148.264 30.3707 147.949 30.2355C147.633 30.1004 147.363 29.9089 147.126 29.6498C146.89 29.402 146.721 29.1091 146.597 28.7713C146.473 28.4334 146.406 28.0616 146.406 27.6561C146.394 27.2619 146.45 26.9016 146.574 26.5749ZM145.234 29.2669C145.436 29.7512 145.718 30.168 146.079 30.5283C146.439 30.8776 146.867 31.148 147.352 31.3506C147.847 31.5421 148.376 31.6435 148.963 31.6435C149.548 31.6435 150.1 31.5421 150.596 31.3506C151.092 31.1592 151.519 30.8776 151.88 30.5283C152.24 30.1792 152.522 29.7624 152.724 29.2669C152.927 28.7825 153.029 28.2418 153.029 27.6561C153.029 27.0592 152.927 26.5073 152.724 26.0229C152.522 25.5386 152.24 25.1218 151.88 24.7839C151.519 24.446 151.092 24.1756 150.596 23.9954C150.1 23.8152 149.56 23.7251 148.963 23.7251C148.376 23.7251 147.847 23.8152 147.352 23.9954C146.856 24.1756 146.429 24.446 146.079 24.7839C145.718 25.1218 145.436 25.5386 145.234 26.0229C145.031 26.5073 144.93 27.048 144.93 27.6561C144.93 28.2418 145.031 28.7825 145.234 29.2669ZM134.286 31.452H135.627V23.9166H134.286V31.452ZM125.331 24.8627C125.185 24.66 125.005 24.4911 124.79 24.3559C124.576 24.2094 124.352 24.0968 124.103 23.9954C123.867 23.8941 123.608 23.8265 123.349 23.7815C123.09 23.7364 122.831 23.7139 122.594 23.7139C122.009 23.7139 121.479 23.804 120.972 23.9842C120.477 24.1644 120.048 24.4348 119.677 24.7727C119.316 25.1106 119.024 25.5274 118.821 26.0117C118.607 26.496 118.505 27.0366 118.505 27.6449C118.505 28.2306 118.607 28.7712 118.798 29.2555C119.001 29.74 119.271 30.1567 119.631 30.5171C119.992 30.8663 120.409 31.1366 120.904 31.3394C121.4 31.5421 121.941 31.6323 122.526 31.6323C123.168 31.6323 123.743 31.5196 124.216 31.283C124.7 31.0466 125.106 30.7311 125.444 30.3144L124.363 29.5598C124.171 29.8188 123.923 30.0328 123.608 30.1905C123.293 30.3481 122.932 30.4271 122.538 30.4271C122.144 30.4271 121.794 30.3595 121.479 30.2243C121.164 30.0891 120.904 29.8976 120.679 29.6498C120.454 29.402 120.285 29.1091 120.162 28.7713C120.037 28.4334 119.981 28.0504 119.981 27.6449C119.981 27.2506 120.048 26.8902 120.172 26.5636C120.297 26.2257 120.477 25.9441 120.701 25.6963C120.927 25.4484 121.209 25.257 121.524 25.1105C121.839 24.9641 122.2 24.8965 122.594 24.8965C122.898 24.8965 123.214 24.9529 123.529 25.0767C123.844 25.2007 124.103 25.3922 124.306 25.6738L125.331 24.8627ZM105.271 28.5685L106.453 25.5048L107.614 28.5685H105.271ZM102.624 31.452H104.121L104.797 29.7286H108.064L108.763 31.452H110.295L107.05 23.9166H105.89L102.624 31.452ZM87.2373 31.452H88.5777V25.6286H88.6003L92.1821 31.452H93.8829V23.9166H92.5425V29.5598H92.52L89.017 23.9166H87.2373V31.452ZM65.1605 26.5749C65.2844 26.2369 65.4646 25.9553 65.6899 25.7076C65.9151 25.4598 66.1855 25.2683 66.5008 25.1218C66.8162 24.9754 67.1654 24.9079 67.5597 24.9079C67.9538 24.9079 68.303 24.9754 68.6185 25.1218C68.9338 25.2683 69.2154 25.4598 69.4406 25.7076C69.666 25.9553 69.8462 26.2483 69.9701 26.5749C70.0939 26.9128 70.1615 27.2732 70.1615 27.6561C70.1615 28.0616 70.0939 28.4334 69.9701 28.7713C69.8462 29.1091 69.666 29.402 69.4406 29.6498C69.2042 29.8976 68.9338 30.0891 68.6185 30.2355C68.303 30.3707 67.9426 30.4383 67.5709 30.4383C67.1879 30.4383 66.8388 30.3707 66.5234 30.2355C66.208 30.1004 65.9377 29.9089 65.7011 29.6498C65.4646 29.402 65.2956 29.1091 65.1718 28.7713C65.0478 28.4334 64.9803 28.0616 64.9803 27.6561C64.969 27.2619 65.0253 26.9016 65.1605 26.5749ZM63.8088 29.2669C64.0116 29.7512 64.2932 30.168 64.6536 30.5283C65.014 30.8776 65.4421 31.148 65.9265 31.3506C66.422 31.5421 66.9626 31.6435 67.5371 31.6435C68.1228 31.6435 68.6747 31.5421 69.1703 31.3506C69.666 31.1592 70.0939 30.8776 70.4544 30.5283C70.8148 30.1792 71.0964 29.7624 71.2992 29.2669C71.5019 28.7825 71.6033 28.2418 71.6033 27.6561C71.6033 27.0592 71.5019 26.5073 71.2992 26.0229C71.0964 25.5386 70.8148 25.1218 70.4544 24.7839C70.0939 24.446 69.666 24.1756 69.1703 23.9954C68.6747 23.8152 68.1341 23.7251 67.5371 23.7251C66.9514 23.7251 66.422 23.8152 65.9265 23.9954C65.4308 24.1756 65.0028 24.446 64.6536 24.7839C64.2932 25.1218 64.0116 25.5386 63.8088 26.0229C63.6061 26.5073 63.5047 27.048 63.5047 27.6561C63.5047 28.2418 63.6061 28.7825 63.8088 29.2669ZM49.3687 31.452H54.5501V30.2581H50.7091V28.1292H54.1671V27.0028H50.7091V25.0881H54.3586V23.9166H49.3687V31.452ZM39.9748 24.5249C39.682 24.2546 39.3441 24.0518 38.9498 23.9166C38.5556 23.7815 38.1727 23.7139 37.7784 23.7139C37.4405 23.7139 37.1026 23.7589 36.7759 23.849C36.4493 23.9391 36.1564 24.0744 35.8974 24.2546C35.6383 24.4348 35.4243 24.66 35.2666 24.9416C35.1089 25.2232 35.0301 25.5498 35.0301 25.9328C35.0301 26.2933 35.0864 26.5861 35.1991 26.8226C35.3117 27.0592 35.4581 27.2619 35.6383 27.4197C35.8186 27.5885 36.0212 27.7125 36.2466 27.8139C36.4718 27.9152 36.6971 27.9941 36.9337 28.0729C37.1702 28.1518 37.3954 28.2306 37.6094 28.2982C37.8235 28.3658 38.0037 28.4559 38.1613 28.546C38.3191 28.6361 38.443 28.76 38.5331 28.8839C38.6232 29.0191 38.6682 29.1767 38.6682 29.3795C38.6682 29.5822 38.6232 29.7512 38.5444 29.8976C38.4655 30.0328 38.3529 30.1567 38.2289 30.2468C38.0938 30.3369 37.9473 30.4045 37.7897 30.4495C37.632 30.4833 37.463 30.5059 37.3166 30.5059C37.0237 30.5059 36.7197 30.427 36.4042 30.2806C36.1002 30.1342 35.8523 29.9314 35.6608 29.6724L34.7034 30.5621C34.9963 30.9226 35.3793 31.1817 35.8524 31.3619C36.3254 31.5421 36.7985 31.6323 37.294 31.6323C37.6658 31.6323 38.0149 31.5872 38.3529 31.4858C38.6908 31.3844 38.9724 31.238 39.2315 31.0352C39.4793 30.8325 39.682 30.5847 39.8284 30.2806C39.9748 29.9764 40.0536 29.6273 40.0536 29.2218C40.0536 28.8501 39.9861 28.546 39.8509 28.2982C39.7157 28.0504 39.5355 27.8477 39.3215 27.6787C39.1075 27.521 38.871 27.3858 38.612 27.2844C38.3529 27.183 38.1051 27.093 37.8573 27.0142C37.6432 26.9466 37.4518 26.8902 37.2716 26.8226C37.0913 26.755 36.9449 26.6875 36.821 26.5974C36.6971 26.5073 36.5957 26.4059 36.5281 26.2933C36.4605 26.1693 36.4155 26.0229 36.4155 25.854C36.4155 25.6738 36.4605 25.516 36.5394 25.3809C36.6183 25.2458 36.7309 25.1443 36.8548 25.0655C36.9787 24.9867 37.1251 24.9191 37.2828 24.8853C37.4405 24.8403 37.5982 24.8289 37.7559 24.8289C38.0149 24.8289 38.274 24.8853 38.5331 25.0091C38.7922 25.1331 38.9949 25.2908 39.13 25.471L39.9748 24.5249ZM25.6587 23.9053H24.3183V28.6248C24.3183 28.8501 24.2957 29.0641 24.2281 29.2781C24.1719 29.4922 24.0817 29.6836 23.9466 29.8638C23.8114 30.0328 23.6424 30.168 23.4284 30.2806C23.2144 30.3933 22.9441 30.4383 22.6287 30.4383C22.3134 30.4383 22.043 30.3819 21.829 30.2806C21.615 30.1792 21.4347 30.0328 21.3109 29.8638C21.1757 29.6948 21.0856 29.5034 21.0293 29.2781C20.973 29.0641 20.9392 28.8388 20.9392 28.6248V23.9053H19.5988V28.6699C19.5988 29.1205 19.6777 29.5372 19.8241 29.8976C19.9817 30.2693 20.1845 30.5735 20.4661 30.8325C20.7364 31.0916 21.0631 31.283 21.4235 31.4182C21.7952 31.5534 22.1894 31.621 22.6287 31.621C23.0567 31.621 23.4622 31.5534 23.8339 31.4182C24.2057 31.283 24.521 31.0804 24.7914 30.8325C25.0617 30.5735 25.2757 30.2693 25.4334 29.8976C25.5911 29.5372 25.6699 29.1205 25.6699 28.6699V23.9053H25.6587ZM1.8472 31.452H3.12V25.3922H3.14253L5.39527 31.452H6.33015L8.61669 25.3922H8.63921V31.452H9.96833V23.9166H7.86202L5.92467 29.2669H5.89086L3.93098 23.9166H1.83594V31.452H1.8472Z" fill="white"/>
<path d="M192.767 7.12233L194.456 2.7295L196.123 7.12233H192.767ZM188.982 11.2448H191.134L192.113 8.76685H196.799L197.802 11.2448H199.998L195.347 0.431712H193.68L188.982 11.2448ZM178.777 11.2448H187.033V9.53279H181.031L186.944 2.17757V0.431712H178.868V2.11H184.657L178.777 9.49898V11.2448ZM175.905 1.32153C175.489 0.938571 174.993 0.64571 174.43 0.454227C173.867 0.262744 173.303 0.161377 172.763 0.161377C172.279 0.161377 171.794 0.228957 171.321 0.352858C170.848 0.476758 170.432 0.67951 170.059 0.938575C169.688 1.19764 169.383 1.52428 169.159 1.91851C168.933 2.31274 168.809 2.78583 168.809 3.33775C168.809 3.84462 168.888 4.27263 169.057 4.61054C169.215 4.94845 169.429 5.24131 169.688 5.47785C169.947 5.71438 170.239 5.90587 170.566 6.04103C170.893 6.18746 171.22 6.31137 171.546 6.41274C171.884 6.52538 172.199 6.62674 172.503 6.73938C172.808 6.84075 173.078 6.96466 173.292 7.09982C173.517 7.23498 173.698 7.40394 173.833 7.58416C173.967 7.77563 174.035 8.01218 174.035 8.29377C174.035 8.58663 173.979 8.83443 173.855 9.03718C173.743 9.23993 173.585 9.39762 173.393 9.53279C173.202 9.66795 172.999 9.75806 172.763 9.81438C172.526 9.8707 172.3 9.89322 172.076 9.89322C171.647 9.89322 171.208 9.79184 170.769 9.57783C170.33 9.36382 169.969 9.07096 169.71 8.71052L168.336 9.99459C168.765 10.5015 169.316 10.8844 169.98 11.1434C170.656 11.4026 171.344 11.5377 172.041 11.5377C172.571 11.5377 173.078 11.4701 173.551 11.3237C174.025 11.1772 174.441 10.9632 174.801 10.6817C175.162 10.4001 175.443 10.0396 175.657 9.60036C175.872 9.17234 175.972 8.66548 175.972 8.07976C175.972 7.55036 175.872 7.11109 175.68 6.75065C175.477 6.39022 175.23 6.09735 174.914 5.86081C174.599 5.62427 174.261 5.43279 173.889 5.29762C173.517 5.15119 173.157 5.0273 172.808 4.91466C172.503 4.82455 172.222 4.73443 171.974 4.64432C171.715 4.55421 171.501 4.44158 171.321 4.32894C171.141 4.20504 171.006 4.05862 170.904 3.88966C170.803 3.72071 170.747 3.5067 170.747 3.25889C170.747 2.99983 170.803 2.76329 170.927 2.58306C171.039 2.39158 171.197 2.24517 171.377 2.12127C171.558 2.00863 171.761 1.91851 171.985 1.86219C172.211 1.80587 172.436 1.78336 172.661 1.78336C173.033 1.78336 173.416 1.87346 173.788 2.05367C174.16 2.23389 174.441 2.44791 174.655 2.71824L175.905 1.32153ZM163.312 11.2448H165.238V0.431712H163.312V11.2448ZM147.735 11.2448H149.57V2.56055H149.605L152.837 11.2448H154.177L157.455 2.56055H157.489V11.2448H159.404V0.431712H156.385L153.603 8.11355H153.558L150.754 0.431712H147.746V11.2448H147.735ZM136.9 11.2448H144.333V9.53279H138.826V6.48031H143.781V4.85834H138.826V2.11H144.063V0.431712H136.9V11.2448ZM123.461 11.2448H125.387V2.89845H125.422L130.547 11.2448H132.99V0.431712H131.064V8.51904H131.031L126.007 0.431712H123.461V11.2448ZM114.259 5.09489V2.05367H116.005C116.252 2.05367 116.5 2.0762 116.76 2.11C117.019 2.15505 117.255 2.22263 117.458 2.33526C117.661 2.4479 117.83 2.59434 117.965 2.78582C118.1 2.97731 118.167 3.21384 118.167 3.5067C118.167 3.83335 118.1 4.10366 117.954 4.30641C117.807 4.52042 117.627 4.67813 117.413 4.79076C117.199 4.9034 116.951 4.98224 116.669 5.01603C116.388 5.04982 116.117 5.07235 115.847 5.07235H114.259V5.09489ZM112.333 11.2448H114.259V6.66054H115.667L118.167 11.2448H120.488L117.604 6.44653C118.37 6.27757 118.967 5.93966 119.418 5.44406C119.857 4.94845 120.083 4.30642 120.083 3.52923C120.083 2.95479 119.969 2.48169 119.745 2.0762C119.519 1.68198 119.227 1.35534 118.854 1.1188C118.483 0.870997 118.055 0.70204 117.582 0.589404C117.098 0.476766 116.613 0.431712 116.095 0.431712H112.344V11.2448H112.333ZM99.6837 4.25011C99.864 3.77703 100.111 3.36027 100.438 2.99983C100.766 2.6394 101.16 2.3578 101.61 2.15506C102.06 1.95231 102.567 1.85093 103.13 1.85093C103.694 1.85093 104.201 1.95231 104.662 2.15506C105.124 2.3578 105.507 2.6394 105.833 2.99983C106.161 3.36027 106.408 3.77703 106.588 4.25011C106.768 4.72318 106.859 5.25257 106.859 5.80449C106.859 6.3902 106.768 6.91959 106.588 7.40393C106.408 7.88827 106.161 8.30504 105.823 8.66548C105.496 9.02592 105.101 9.29624 104.639 9.49898C104.178 9.70172 103.683 9.79185 103.13 9.79185C102.578 9.79185 102.083 9.69046 101.633 9.49898C101.182 9.29624 100.787 9.02592 100.461 8.66548C100.134 8.30504 99.8749 7.88827 99.6946 7.40393C99.5153 6.91959 99.4246 6.3902 99.4246 5.80449C99.4138 5.25257 99.5034 4.73444 99.6837 4.25011ZM97.7577 8.12483C98.0505 8.82317 98.4561 9.42014 98.9626 9.927C99.4808 10.4339 100.09 10.8281 100.799 11.0984C101.508 11.38 102.275 11.5152 103.108 11.5152C103.953 11.5152 104.73 11.38 105.439 11.0984C106.149 10.8168 106.768 10.4226 107.287 9.927C107.805 9.42014 108.211 8.82317 108.503 8.12483C108.796 7.42647 108.943 6.66054 108.943 5.81576C108.943 4.94845 108.796 4.17126 108.503 3.4729C108.211 2.77456 107.805 2.18885 107.287 1.69324C106.768 1.19764 106.149 0.825937 105.439 0.566871C104.73 0.296542 103.953 0.172634 103.108 0.172634C102.275 0.172634 101.498 0.307806 100.799 0.566871C100.09 0.825937 99.4808 1.2089 98.9626 1.69324C98.4447 2.17758 98.0505 2.77456 97.7577 3.4729C97.4648 4.17126 97.3184 4.94845 97.3184 5.81576C97.3184 6.66054 97.4648 7.42647 97.7577 8.12483ZM88.3637 6.48031H90.1659C90.9544 6.48031 91.5289 6.59295 91.9231 6.81824C92.306 7.04351 92.5088 7.43773 92.5088 8.01218C92.5088 8.37262 92.4299 8.65421 92.2723 8.86822C92.1146 9.08222 91.9118 9.25119 91.6753 9.35256C91.4387 9.4652 91.1684 9.53278 90.8868 9.57783C90.6052 9.61162 90.3349 9.63416 90.0983 9.63416H88.375V6.48031H88.3637ZM88.3637 2.03116H89.9069C90.639 2.03116 91.1797 2.13252 91.5289 2.33526C91.878 2.53801 92.047 2.8872 92.047 3.37154C92.047 3.84462 91.878 4.20504 91.5401 4.45285C91.2022 4.71191 90.7178 4.83581 90.0759 4.83581H88.3637V2.03116ZM86.4376 11.2448H90.3349C90.8418 11.2448 91.3487 11.1886 91.833 11.0872C92.3286 10.9745 92.7679 10.8056 93.1508 10.5577C93.5338 10.31 93.8379 9.99459 94.0745 9.58909C94.311 9.18359 94.4236 8.68801 94.4236 8.10229C94.4236 7.37016 94.2097 6.78444 93.7703 6.34516C93.331 5.90587 92.7679 5.6468 92.092 5.54543V5.51163C92.6553 5.34268 93.1058 5.04983 93.455 4.6556C93.8041 4.26137 93.9731 3.75449 93.9731 3.14625C93.9731 2.66191 93.8717 2.24515 93.6802 1.89598C93.4888 1.54681 93.2296 1.26521 92.9255 1.0512C92.6214 0.825928 92.261 0.668238 91.8668 0.578129C91.4725 0.488019 91.0671 0.431712 90.6616 0.431712H86.449V11.2448H86.4376ZM83.1036 5.79323H79.4429V7.34762H83.1036V5.79323ZM66.591 11.2448H68.5171V2.89845H68.5509L73.6759 11.2448H76.1201V0.431712H74.194V8.51904H74.1602L69.1366 0.431712H66.591V11.2448ZM55.744 11.2448H63.1781V9.53279H57.6701V6.48031H62.6374V4.85834H57.6701V2.11H62.9078V0.431712H55.744V11.2448ZM52.2185 1.32153C51.8018 0.938571 51.3062 0.64571 50.743 0.454227C50.1798 0.262744 49.6166 0.161377 49.0647 0.161377C48.5804 0.161377 48.0961 0.228957 47.623 0.352858C47.1498 0.476758 46.7219 0.67951 46.3614 0.938575C45.9897 1.19764 45.6856 1.52428 45.4603 1.91851C45.2351 2.31274 45.1111 2.78583 45.1111 3.33775C45.1111 3.84462 45.1899 4.27263 45.3589 4.61054C45.5166 4.94845 45.7306 5.24131 45.9898 5.47785C46.2488 5.71438 46.5416 5.90587 46.8683 6.04103C47.1949 6.18746 47.5216 6.31137 47.8482 6.41274C48.1861 6.52538 48.5015 6.62674 48.8056 6.73938C49.1098 6.84075 49.3801 6.96466 49.6053 7.09982C49.8306 7.23498 50.0108 7.40394 50.1348 7.58416C50.2699 7.77563 50.3374 8.01218 50.3374 8.29377C50.3374 8.58663 50.2812 8.83443 50.1572 9.03718C50.0446 9.23993 49.887 9.39762 49.6955 9.53279C49.5039 9.66795 49.3013 9.75806 49.0647 9.81438C48.8282 9.8707 48.6029 9.89322 48.3776 9.89322C47.9496 9.89322 47.5103 9.79184 47.071 9.57783C46.6317 9.36382 46.2713 9.07096 46.0122 8.71052L44.638 9.99459C45.0661 10.5015 45.618 10.8844 46.2826 11.1434C46.9584 11.4026 47.6454 11.5377 48.3438 11.5377C48.8732 11.5377 49.3801 11.4701 49.8532 11.3237C50.3375 11.1772 50.743 10.9632 51.1034 10.6817C51.4638 10.4001 51.7454 10.0396 51.9595 9.60036C52.1735 9.17234 52.2861 8.66548 52.2861 8.07976C52.2861 7.55036 52.1847 7.11109 51.9933 6.75065C51.7905 6.39022 51.5428 6.09735 51.2273 5.86081C50.9232 5.62427 50.574 5.43279 50.2024 5.29762C49.8306 5.15119 49.4701 5.0273 49.121 4.91466C48.8168 4.82455 48.5353 4.73443 48.2763 4.64432C48.0171 4.55421 47.8031 4.44158 47.623 4.32894C47.4428 4.20504 47.3076 4.05862 47.2062 3.88966C47.1048 3.72071 47.0485 3.5067 47.0485 3.25889C47.0485 2.99983 47.1048 2.76329 47.2174 2.58306C47.33 2.39158 47.4878 2.24517 47.668 2.12127C47.8482 2.00863 48.0509 1.91851 48.2763 1.86219C48.5015 1.80587 48.7268 1.78336 48.952 1.78336C49.3237 1.78336 49.7067 1.87346 50.0784 2.05367C50.4501 2.23389 50.7317 2.44791 50.9457 2.71824L52.2185 1.32153ZM41.9235 1.32153C41.5068 0.938571 41.0111 0.64571 40.448 0.454227C39.8847 0.262744 39.3216 0.161377 38.7809 0.161377C38.2965 0.161377 37.8122 0.228957 37.3392 0.352858C36.8661 0.476758 36.4381 0.67951 36.0776 0.938575C35.7059 1.19764 35.4018 1.52428 35.1766 1.91851C34.9512 2.31274 34.8274 2.78583 34.8274 3.33775C34.8274 3.84462 34.9062 4.27263 35.0752 4.61054C35.2329 4.94845 35.4469 5.24131 35.7059 5.47785C35.965 5.71438 36.2578 5.90587 36.5845 6.04103C36.9111 6.18746 37.2378 6.31137 37.5644 6.41274C37.9024 6.52538 38.2177 6.62674 38.5219 6.73938C38.826 6.84075 39.0964 6.96466 39.3216 7.09982C39.5469 7.23498 39.7271 7.40394 39.8509 7.58416C39.9861 7.77563 40.0537 8.01218 40.0537 8.29377C40.0537 8.58663 39.9974 8.83443 39.8735 9.03718C39.7609 9.23993 39.6031 9.39762 39.4117 9.53279C39.2202 9.66795 39.0174 9.75806 38.7809 9.81438C38.5444 9.8707 38.3191 9.89322 38.0939 9.89322C37.6658 9.89322 37.2265 9.79184 36.7873 9.57783C36.348 9.36382 35.9875 9.07096 35.7285 8.71052L34.3543 9.99459C34.7824 10.5015 35.3343 10.8844 35.9988 11.1434C36.6746 11.4026 37.3617 11.5377 38.0601 11.5377C38.5895 11.5377 39.0964 11.4701 39.5694 11.3237C40.0425 11.1772 40.4592 10.9632 40.8197 10.6817C41.1801 10.4001 41.4617 10.0396 41.6757 9.60036C41.8898 9.17234 42.0024 8.66548 42.0024 8.07976C42.0024 7.55036 41.901 7.11109 41.7095 6.75065C41.518 6.39022 41.2589 6.09735 40.9435 5.86081C40.6282 5.62427 40.2902 5.43279 39.9185 5.29762C39.5469 5.15119 39.1864 5.0273 38.8372 4.91466C38.5331 4.82455 38.2515 4.73443 37.9925 4.64432C37.7334 4.55421 37.5194 4.44158 37.3392 4.32894C37.1589 4.20504 37.0238 4.05862 36.9225 3.88966C36.8211 3.72071 36.7647 3.5067 36.7647 3.25889C36.7647 2.99983 36.8211 2.76329 36.9449 2.58306C37.0575 2.39158 37.2153 2.24517 37.3955 2.12127C37.5758 1.99737 37.7784 1.91851 38.0037 1.86219C38.229 1.80587 38.4543 1.78336 38.6796 1.78336C39.0512 1.78336 39.4342 1.87346 39.8059 2.05367C40.1776 2.23389 40.4592 2.44791 40.6732 2.71824L41.9235 1.32153ZM26.7513 11.2448H28.6773V6.55915L32.7435 0.442969H30.5134L27.765 4.9935L25.0504 0.442969H22.6964L26.7626 6.55915V11.2448H26.7513ZM11.3313 11.2448H13.2573V6.44653H18.3148V11.2448H20.2297V0.431712H18.3035V4.80202H13.2461V0.431712H11.3313V11.2448ZM3.31153 11.2448H5.23763V2.11H8.54914V0.431712H0V2.11H3.31153V11.2448Z" fill="white"/>
</g>
<defs>
<clipPath id="clip0">
<rect width="200" height="31.5271" fill="white" transform="translate(0 0.161377)"/>
</clipPath>
</defs>
</svg>
