<svg width="528" height="278" fill="none" xmlns="http://www.w3.org/2000/svg"><path fill="#1CABE2" d="M0 0h528v278H0z"/><path d="M336.156 115c-10.38 0-18.929 8.386-18.929 18.929 0 10.381 8.386 18.93 18.929 18.93 10.381 0 18.93-8.386 18.93-18.93 0-10.543-8.549-18.929-18.93-18.929zm14.656 8.386c-.937.611-1.995 1.221-3.054 1.832-.61-1.221-1.384-2.443-2.279-3.501.773-.448 1.547-1.059 2.157-1.547 1.344.773 2.402 1.995 3.176 3.216zm-7.939-6.228c1.547.61 2.891 1.384 4.275 2.442-.611.611-1.384 1.058-2.158 1.547-.936-1.058-1.995-1.995-3.053-2.89.326-.489.651-.814.936-1.099zm1.547 4.274c-1.058.611-2.157.936-3.216 1.384-.447-1.058-.936-2.158-1.547-3.053.611-.326 1.222-.611 1.669-1.059 1.1.733 2.158 1.629 3.094 2.728zm-2.32-4.6c-.326.326-.611.611-.774.936-1.058-.61-1.994-1.221-3.216-1.669 1.425-.041 2.769.285 3.99.733zm-1.343 1.384c-.448.326-.937.611-1.385.773-.61-.936-1.221-1.669-1.831-2.605 1.058.448 2.116 1.059 3.216 1.832zm-4.316-1.669c.774.773 1.385 1.669 1.995 2.768-.61.163-1.221.326-1.995.326v-3.094zm0 3.786c.774 0 1.669-.163 2.443-.448.611.936 1.058 1.995 1.547 3.053-1.221.326-2.605.448-3.99.611v-3.216zm-.732-3.786v3.053c-.611 0-1.222-.163-1.995-.326.773-.895 1.384-1.831 1.995-2.727zm-2.606 2.442c-.447-.162-1.058-.447-1.384-.773 1.059-.611 2.158-1.221 3.216-1.669-.773.733-1.384 1.506-1.832 2.442zm1.059-3.053c-1.059.448-2.158 1.059-3.216 1.669-.326-.325-.611-.61-.774-.936 1.262-.285 2.606-.611 3.99-.733zm12.986 32.364c-2.443-1.385-2.606-3.379-2.443-3.99.163-.773.611-.448.937-.448 1.669 0 3.378-.448 5.495-2.768 2.443-2.442 3.216-7.938-.61-11.439-3.99-3.827-8.264-3.216-10.992.326-.61.773-1.994 1.221-3.053 1.221-1.832 0-.61 1.384-.61 1.669 0 .326-.326.448-.448.448-.611-.163-.326.773-.326.936 0 .163-.326.448-.326.448-.773 0-.61.611-.447.936 0 .163 0 .448-.326.611-.326.163-.448.773-.448 1.221 0 .774.774 1.384 1.995 2.28 1.221.936 1.384 1.832 1.384 2.442 0 .611.163 1.669.326 2.28.325.773.325 2.28-1.384 2.28-2.158.162-5.822 1.669-6.107 1.831-1.221.448-2.768.611-3.989.326a15.395 15.395 0 01-1.832-1.547c-.326-.773.163-1.669.611-2.279.773.773 1.669.61 2.279.61.611 0 3.379-.448 3.827-.61.448-.163.61-.163.773 0 1.059.447 2.606.447 3.216-1.547.611-2.158-.773-1.547-1.058-1.384-.163.162-.448 0-.326-.163.326-.448-.163-.448-.326-.448-.61 0-1.384.611-1.546.773-.326.163-.448.163-.611.163-.774-.448-3.053.163-3.827-1.058 0-.326-.61-5.333-.936-6.269 0-.163-.163-.448.163-.774.611-.936 2.157 0 3.053 0 1.058 0 1.221-.448 1.547-.773.326-.326.448-.163.611-.326.162-.163 0-.326 0-.448s.162 0 .325-.163c.163-.162 0-.447 0-.61.326-.448.937-.163.611-1.059-.163-.61.163-1.221.448-1.547.447-.61 2.442-3.378-.937-6.269-3.216-2.768-6.554-2.442-8.711-.162-2.158 2.279-1.059 5.658-.937 6.554.163.936-.447 1.669-1.221 1.994-.61.326-1.994 1.222-2.89 1.995.163-7.327 4.6-13.759 11.317-16.324.326.326.61.773.936 1.058-.773.611-2.442 1.995-2.442 1.995s.162 0 .447.163c.163 0 .448.163.448.163s1.384-1.221 2.158-1.669c.448.448 1.058.773 1.669 1.058-.326.611-1.221 2.158-1.221 2.158s.162.163.325.163a.506.506 0 00.326.162s.936-1.669 1.221-2.279a5.837 5.837 0 002.28.447v3.054c-.448 0-1.547 0-1.995-.163h-.326l.163.325c.163.163.163.326.326.448h1.832v5.659h.773v-1.384c1.222 0 2.158-.163 3.216-.326l1.059-.936h-.611c-1.221.162-2.28.325-3.216.325h-.448v-3.501c1.384 0 2.891-.162 4.275-.61.325.936 1.058 3.216 1.058 3.216l.774-.326s-.774-2.28-1.059-3.216c1.221-.326 2.28-.936 3.379-1.384.936 1.058 1.669 2.28 2.28 3.501-.611.326-1.547.611-1.547.611.773.162 1.384.325 1.384.325s.325-.163.448-.163c0 .163.162.448.162.448l1.059.448-.163-.326s-.326-.773-.448-.936a16.128 16.128 0 003.216-1.832c1.995 2.89 2.89 6.432 2.89 9.933.285 5.903-2.605 11.073-6.879 14.452zm-31.59-28.252l-.326.326c-1.058.936-3.664 3.501-3.216 6.432v.162l.163.611.326-.326c1.546-1.384 2.768-3.826 3.216-6.554l.162-.773-.325.122zm-5.212 4.885l-.162.325c-.163.448-.448 1.547-.611 2.769-.326 1.831-.163 4.6 1.384 6.554l.326.61.325-1.221c.326-2.158-.162-6.554-.936-8.549l-.326-.61v.122zm-1.831 7.613v.325c-.163 1.832 0 6.554 3.826 9.16l.448.325v-.61c0-1.832-2.157-7.165-3.664-8.997l-.447-.61-.163.407zm.611 8.426v.326c.611 2.768 3.053 7.042 7.043 8.386l.61.163-.163-.611c-.773-1.995-4.6-6.717-7.042-8.264l-.448-.326v.326zm8.101-16.811l-.448.163c-2.891 1.832-4.275 3.989-4.275 6.717v.61l.448-.325c1.547-1.385 3.664-4.723 4.112-6.554l.163-.774v.163zm-1.832 5.819l-.163.325c-.774.774-3.216 3.379-3.053 6.554 0 .448.163 1.059.325 1.547l.163.448.326-.448c1.221-1.669 2.768-5.943 2.605-7.938v-.611l-.203.123zm.162 5.659l-.163.326c-1.221 1.832-1.832 3.664-1.832 5.496 0 1.221.448 2.442 1.222 3.663l.325.448.163-.448c.448-1.058.937-4.274.937-6.879 0-.937-.163-1.669-.326-2.158l-.163-.61-.163.162zm1.344 5.943l-.163.326c-.326 1.221-.611 2.279-.448 3.501 0 2.442 1.221 4.437 3.379 5.821l.325.163.163-.448v-.448c0-1.994-1.547-7.164-2.768-8.711l-.326-.448-.162.244zm-4.111 7.938l.163.326c1.547 2.605 4.274 6.106 9.322 5.211h.448l-.326-.326c-.936-1.384-7.043-4.885-9.159-5.211l-.611-.163.163.163zm7.49 6.719l-.774.163.774.325c3.216 1.385 7.164 1.67 9.607.937.936-.326 1.384-.774 1.995-1.384 4.111.447 7.938 3.826 10.218 6.554l.162.163h.163c.326-.163.611-.448.774-.611l.162-.163-.162-.163c-2.28-3.053-5.944-4.885-6.107-5.048-3.378-1.546-9.2-2.768-16.812-.773z" fill="#000"/><path d="M320.442 147.688v.326c.448 3.053 1.669 7.042 6.88 6.554h.326l-.163-.326c-.326-1.384-5.048-5.333-6.717-6.432l-.448-.326.122.204zm36.027-27.967l.163.773c.448 2.768 1.669 5.211 3.216 6.554l.326.326.163-.611v-.163c.447-2.89-2.158-5.495-3.216-6.432l-.326-.325-.326-.122zm5.333 4.888l-.325.611c-.774 1.995-1.059 6.432-.937 8.549l.326 1.221.163-.163.163-.325c1.669-1.995 1.669-4.601 1.384-6.555a13.182 13.182 0 00-.611-2.768l-.163-.325v-.245zm1.995 7.653l-.448.61c-1.547 1.995-3.663 7.165-3.663 8.997v.611l.447-.326c3.827-2.443 3.99-7.165 3.827-9.16v-.325l-.163-.407zm-.611 8.384l-.61.326c-2.443 1.547-6.27 6.269-7.043 8.264l-.163.611.611-.163c3.989-1.221 6.554-5.659 7.042-8.386v-.326l.163-.326zm-8.101-16.771l.163.773c.611 1.995 2.443 5.333 4.112 6.717l.448.326v-.611c.162-2.768-1.222-4.885-4.112-6.716l-.326-.163-.285-.326zm1.669 5.943v.611c-.162 1.995 1.547 6.432 2.606 7.938l.326.448.162-.448c.163-.61.326-1.058.326-1.547.163-3.216-2.28-5.821-3.053-6.554l-.163-.163-.204-.285zm-.121 5.496l-.163.611c-.163.448-.326 1.221-.326 2.158 0 2.605.326 5.821.936 6.879l.163.448.326-.448c.773-1.058 1.221-2.279 1.221-3.663 0-1.669-.611-3.664-1.832-5.496l-.163-.326-.162-.163zm-1.384 5.944l-.326.448c-1.221 1.547-2.768 6.716-2.768 8.711v.448l.163.448.325-.163c2.158-1.384 3.216-3.379 3.379-5.821 0-1.059-.163-2.28-.448-3.501l-.163-.326-.162-.244zm4.437 7.935l-.611.163c-2.158.326-8.264 3.827-9.159 5.211l-.326.326h.448c5.047.936 7.775-2.606 9.322-5.211l.163-.326.163-.163zm-24.304 7.819c-.162 0-3.826 1.995-6.106 5.048l-.163.163.163.163c.163.163.611.448.774.611h.162l.163-.163c2.28-2.768 6.107-6.269 10.218-6.554.611.61 1.221 1.058 1.995 1.384 2.279.773 6.432.448 9.607-.937l.773-.325-.773-.163c-7.775-1.995-13.597-.773-16.813.773zm16.488-9.649l-.448.326c-1.669 1.058-6.269 5.048-6.717 6.432l-.163.326h.326c5.048.447 6.269-3.501 6.879-6.555v-.366l.123-.163zm-128.883-30.531h6.432v5.821h-6.432v-5.821zm.61 12.538h5.333v28.415h-5.333V129.37zm-40.464.001h5.333v28.415h-5.211v-4.153h-.163c-2.157 3.501-5.821 5.048-9.77 5.048-5.943 0-9.322-4.6-9.322-10.218v-19.092h5.333v16.813c0 4.885 1.058 8.548 6.269 8.548 2.157 0 5.211-1.058 6.269-4.111 1.058-2.605 1.058-5.944 1.058-6.717v-14.492h.204v-.041zm16.039 4.112c1.995-3.501 5.822-5.047 8.712-5.047 1.995 0 10.706.447 10.706 9.607v19.54h-5.332v-17.871c0-4.722-1.995-7.165-6.554-7.165 0 0-2.891-.163-5.211 2.158-.774.773-2.28 1.994-2.28 7.653v15.428h-5.333v-28.414h5.333l-.041 4.111zm52.229 4.885c-.326-3.501-1.995-5.943-5.821-5.943-5.048 0-7.043 4.437-7.043 10.991 0 6.554 1.995 10.992 7.043 10.992 3.5 0 5.658-2.28 5.943-6.432h5.333c-.448 6.432-5.211 10.217-11.439 10.217-8.997 0-12.661-6.432-12.661-14.655 0-8.223 4.112-15.102 13.149-15.102 5.944 0 10.381 3.826 10.706 9.932h-5.21zm13.434 6.104c-.448 4.885 1.669 10.096 7.043 10.096 4.111 0 6.269-1.669 6.88-5.822h5.617c-.936 6.432-5.821 9.608-12.538 9.608-8.996 0-12.66-6.432-12.66-14.655 0-8.224 4.111-15.103 13.149-15.103 8.386.163 12.375 5.495 12.375 13.271v2.605h-19.866zm14.37-3.664c.163-4.722-1.994-8.386-7.164-8.386-4.438 0-7.043 3.827-7.043 8.386h14.207zm11.602 16.651v-24.425h-4.885v-3.664h4.885v-6.106c.163-6.107 4.885-7.776 8.874-7.776 1.222 0 2.606.326 3.827.611v4.437c-.936 0-1.832-.163-2.768-.163-3.053 0-4.722.774-4.6 3.827v5.211h6.554v3.663h-6.554v24.425l-5.333-.04z" fill="#000"/></svg>