<svg width="528" height="278" viewBox="0 0 528 278" fill="none" xmlns="http://www.w3.org/2000/svg">
<rect width="528" height="278" fill="#A90B52"/>
<g clip-path="url(#clip0_2481_1846)">
<path d="M298.343 150.667V150.8H315.807L315.913 150.72L315.887 150.693L315.807 150.667H298.343V150.667ZM339.048 134.534L339.235 134.4H310.536L310.429 134.48L310.456 134.507L310.536 134.534H339.048V134.534Z" fill="white"/>
<path d="M343.787 111.16L310.562 134.401H310.536H298.343V142.947V150.801V163.02L315.807 150.801H343.787V134.401H339.261L343.787 131.233V111.16ZM313.278 143.426C313.145 144.119 313.304 146.302 314.13 146.461C314.423 146.515 314.662 146.461 314.902 146.328L315.621 145.929L315.754 148.831H311.148C311.308 147.633 311.388 146.648 311.468 145.769L311.627 143.426C310.696 143.293 309.684 142.947 308.832 142.282C308.087 141.669 307.661 140.924 307.607 140.019C307.501 138.421 309.604 136.425 312.319 136.425H313.118C313.411 136.451 313.704 136.478 314.023 136.558C313.837 136.957 313.597 137.436 313.544 138.262C313.251 138.182 313.012 138.129 312.666 138.129C310.696 138.129 310.163 139.46 310.163 139.965C310.163 141.27 311.441 141.723 312.399 141.802C313.092 141.882 313.757 141.723 314.343 141.323C314.769 141.03 314.875 140.924 315.088 140.445C315.594 140.711 316.739 140.791 317.564 140.498C317.378 142.149 315.141 143.373 313.278 143.426Z" fill="white"/>
<path d="M194.596 148.059H187.062V134.401H184.053V148.777C184.053 149.39 184.266 149.922 184.666 150.322C185.065 150.694 185.597 150.881 186.236 150.881H194.596V148.059ZM212.166 150.907L206.443 135.599C206.123 134.747 205.458 134.295 204.552 134.295C203.647 134.295 202.955 134.774 202.662 135.599L196.832 150.907H200L201.304 147.526H207.667L208.972 150.907H212.166ZM206.682 144.704H202.289L204.526 138.688L206.682 144.704ZM227.634 146.408C227.634 145.796 227.527 145.21 227.288 144.678C227.048 144.172 226.729 143.693 226.303 143.24L225.531 142.441L226.116 141.643C226.383 141.217 226.596 140.791 226.782 140.338C226.968 139.832 227.048 139.3 227.048 138.714C227.048 137.303 226.596 136.212 225.69 135.466C224.839 134.774 223.72 134.401 222.336 134.401H217.358C216.719 134.401 216.186 134.588 215.814 134.96C215.521 135.227 215.201 135.706 215.201 136.478V148.804C215.201 149.416 215.441 149.949 215.84 150.348C216.24 150.721 216.772 150.907 217.411 150.907H222.469C224.013 150.907 225.291 150.508 226.196 149.709C227.155 148.884 227.634 147.792 227.634 146.408ZM224.12 138.741C224.12 139.034 224.067 139.3 223.96 139.566C223.854 139.859 223.694 140.152 223.561 140.365L222.948 141.243H218.156V137.144H222.336C222.815 137.144 223.428 137.223 223.72 137.543C223.987 137.862 224.12 138.235 224.12 138.741ZM218.156 148.112V143.985H223.028L223.933 144.944C224.173 145.183 224.359 145.45 224.492 145.716C224.599 145.955 224.652 146.195 224.652 146.488C224.652 147.02 224.492 147.393 224.173 147.659C223.827 147.952 223.268 148.112 222.522 148.112H218.156V148.112ZM245.923 142.681C245.923 141.376 245.737 140.205 245.391 139.167C245.045 138.129 244.512 137.25 243.847 136.531C243.181 135.812 242.356 135.253 241.424 134.881C240.492 134.508 239.454 134.322 238.363 134.322C237.245 134.322 236.206 134.508 235.275 134.881C234.316 135.253 233.491 135.812 232.799 136.531C232.106 137.25 231.574 138.155 231.201 139.193C230.829 140.205 230.669 141.403 230.669 142.681C230.669 143.985 230.855 145.157 231.201 146.168C231.574 147.207 232.08 148.112 232.745 148.804C233.411 149.523 234.236 150.082 235.168 150.455C236.1 150.827 237.111 151.014 238.256 151.014C239.374 151.014 240.386 150.827 241.318 150.481C242.276 150.109 243.101 149.576 243.794 148.831C244.486 148.112 245.018 147.207 245.364 146.195C245.764 145.21 245.923 144.012 245.923 142.681ZM234.982 146.887C234.582 146.408 234.263 145.849 234.05 145.157C233.81 144.438 233.704 143.613 233.704 142.681C233.704 140.844 234.13 139.433 234.928 138.501C235.727 137.569 236.819 137.117 238.283 137.117C239.002 137.117 239.667 137.223 240.226 137.463C240.785 137.703 241.265 138.022 241.664 138.501C242.063 138.98 242.356 139.54 242.569 140.232C242.809 140.924 242.915 141.776 242.915 142.708C242.915 144.571 242.516 145.982 241.69 146.941C240.892 147.846 239.8 148.298 238.363 148.298C237.644 148.298 236.978 148.165 236.393 147.926C235.834 147.686 235.381 147.34 234.982 146.887ZM262.057 150.907L258.622 143.693L259.554 142.521C259.874 142.069 260.193 141.563 260.433 141.03C260.699 140.445 260.832 139.832 260.832 139.167C260.832 137.649 260.379 136.451 259.501 135.626C258.649 134.827 257.451 134.428 255.987 134.428H251.168C250.502 134.428 249.997 134.614 249.597 134.987C249.331 135.253 248.985 135.706 248.985 136.505V150.934H251.967V144.811H255.88L258.755 150.934H262.057V150.907ZM251.967 142.042V137.17H255.96C256.359 137.17 256.679 137.223 256.918 137.33C257.158 137.41 257.318 137.543 257.451 137.676C257.584 137.836 257.69 138.022 257.77 138.262C257.85 138.528 257.877 138.847 257.877 139.193C257.877 139.54 257.797 139.832 257.664 140.152C257.478 140.525 257.265 140.844 257.025 141.19L256.386 142.069H251.967V142.042ZM279.627 150.907L273.903 135.599C273.611 134.747 272.918 134.295 272.013 134.295C271.082 134.295 270.416 134.774 270.123 135.599L264.293 150.907H267.461L268.765 147.526H275.155L276.459 150.907H279.627ZM274.143 144.704H269.724L271.96 138.688L274.143 144.704ZM284.898 148.059V134.401H281.864V148.777C281.864 149.39 282.077 149.922 282.476 150.322C282.875 150.694 283.408 150.881 284.073 150.881H292.433V148.059H284.898ZM264.453 165.683L263.547 165.896L262.882 166.002L262.349 166.055L261.923 166.082C261.471 166.082 261.098 166.029 260.779 165.896C260.486 165.789 260.246 165.629 260.033 165.416C259.847 165.203 259.714 164.964 259.661 164.671C259.581 164.378 259.554 164.059 259.554 163.739V157.829H258.276V163.872C258.276 164.351 258.356 164.777 258.463 165.177C258.596 165.603 258.782 165.949 259.075 166.242C259.368 166.535 259.714 166.774 260.14 166.96C260.592 167.12 261.125 167.227 261.737 167.227L262.855 167.147C263.308 167.12 263.92 166.987 264.692 166.801C265.358 166.641 265.677 166.215 265.677 165.576V157.829H264.426V165.683H264.453V165.683ZM273.318 165.816L272.253 166.029L271.587 166.082C271.028 166.082 270.656 165.949 270.443 165.629C270.23 165.337 270.123 164.857 270.123 164.218V158.974H273.291V157.829H270.123V155.406L268.872 155.673V157.829H267.381V158.974H268.872V164.325C268.872 166.295 269.777 167.28 271.561 167.28C271.96 167.28 272.626 167.2 273.531 167.014L273.318 165.816ZM292.433 165.683V160.864C292.433 160.305 292.353 159.826 292.166 159.426C291.98 159.027 291.74 158.708 291.421 158.468C291.128 158.202 290.755 158.015 290.356 157.909C289.957 157.802 289.504 157.749 289.052 157.749C289.052 157.749 287.241 157.696 285.085 158.255L285.351 159.4C285.351 159.4 287.348 158.841 289.025 158.921H289.052C289.717 158.921 290.223 159.08 290.622 159.373C291.048 159.666 291.235 160.198 291.235 160.891V161.955H288.413C287.933 161.955 287.454 162.009 287.002 162.089C286.549 162.195 286.176 162.355 285.83 162.568C285.484 162.781 285.218 163.074 285.032 163.42C284.819 163.766 284.739 164.218 284.739 164.751C284.739 165.549 285.005 166.188 285.537 166.641C286.07 167.094 286.815 167.333 287.8 167.333C288.173 167.333 288.599 167.28 289.052 167.2L290.383 166.907L291.075 166.721L291.261 166.694V167.227H292.486V165.683H292.433V165.683ZM291.208 165.576L290.17 165.816L288.918 166.055C288.519 166.109 288.2 166.135 287.933 166.135C287.294 166.135 286.815 166.002 286.469 165.762C286.123 165.523 285.963 165.15 285.963 164.644C285.963 164.059 286.176 163.633 286.602 163.393C287.028 163.153 287.614 162.994 288.386 162.994H291.235V165.576H291.208ZM250.183 155.406L248.958 155.673V167.173H250.183V162.381H251.86L255.082 167.147H256.572L252.952 161.769L256.599 157.829H254.948L251.887 161.157H250.21V155.406H250.183V155.406ZM283.008 167.147L280.399 162.461L282.955 157.829H281.411L279.414 161.769H278.829L276.832 157.829H275.288L277.844 162.461L275.235 167.147H276.725L278.829 162.967H279.414L281.517 167.147H283.008Z" fill="white"/>
</g>
<defs>
<clipPath id="clip0_2481_1846">
<rect width="160" height="56.4393" fill="white" transform="translate(184 111)"/>
</clipPath>
</defs>
</svg>
