<svg width="528" height="278" viewBox="0 0 528 278" fill="none" xmlns="http://www.w3.org/2000/svg">
<rect width="528" height="278" fill="#8C1713"/>
<path d="M188.166 149.629C192.824 150.725 197.481 151.875 202.084 152.971C201.536 151.437 200.714 150.177 200.769 148.971C200.769 147.711 201.372 146.286 202.084 145.191C203.728 142.506 206.194 140.697 209.207 139.711C211.18 139.054 213.152 138.889 214.741 140.149C216.056 139.711 217.152 139.382 218.248 139.054C218.358 139.163 218.413 139.273 218.522 139.382C216.44 143.054 214.303 146.78 212.221 150.451C212.33 150.56 212.495 150.725 212.604 150.834C213.81 149.903 214.961 148.971 216.221 147.985C217.097 148.369 217.426 148.862 216.495 149.574C215.289 150.56 214.084 151.656 212.714 152.423C211.125 153.3 210.248 152.807 209.591 151.053C209.262 151.218 208.878 151.327 208.604 151.601C204.495 155.108 199.673 155.108 194.742 154.451C191.783 154.067 188.824 153.41 185.975 152.423C183.016 151.437 180.166 151.437 177.153 151.711C174.029 151.985 170.851 151.766 167.673 151.656C166.961 151.656 166.194 151.492 165.646 151.053C164.934 150.506 163.947 149.629 164.002 148.971C164.002 148.259 165.043 147.054 165.756 146.999C168.824 146.67 171.947 146.396 175.016 146.67C178.084 146.944 181.098 147.875 184.166 148.423C184.879 148.533 185.81 148.478 186.468 148.149C189.536 146.725 191.618 144.204 193.591 141.245C191.673 142.286 189.975 143.273 188.221 144.095C185.153 145.519 181.975 146.067 178.632 145.41C176.55 144.971 174.742 144.04 173.317 142.396C173.098 142.177 173.153 141.739 173.098 141.41C173.427 141.41 173.81 141.355 174.139 141.41C174.413 141.465 174.632 141.684 174.851 141.848C178.468 145.136 182.687 145.136 186.796 143.382C191.673 141.3 195.947 138.451 198.632 133.574C201.481 128.369 204.878 123.547 209.481 119.711C210.741 118.67 212.166 117.848 213.645 117.136C214.193 116.862 215.344 117.026 215.728 117.41C216.111 117.794 216.111 118.944 215.837 119.492C215.125 120.917 214.303 122.451 213.207 123.602C210.029 127.054 206.632 130.287 203.344 133.629C202.796 134.177 202.358 134.78 201.974 135.437C200.769 137.519 199.673 139.656 198.358 141.629C196.276 144.807 193.372 147.108 189.81 148.533C189.262 148.752 188.769 149.026 188.221 149.245C188.166 149.3 188.166 149.464 188.166 149.629ZM205.755 150.999C206.303 150.78 207.235 150.396 208.166 149.958C210.906 148.697 211.947 146.012 213.317 143.602C213.645 143.054 213.919 142.012 213.7 141.793C213.098 141.3 212.166 140.862 211.399 140.862C208.002 141.026 203.673 145.355 203.344 148.697C203.235 150.122 204.002 150.999 205.755 150.999ZM214.522 118.122C209.207 120.752 206.851 125.793 204.002 131.054C207.892 128.478 214.303 120.807 214.522 118.122ZM178.139 150.177C174.523 149.081 170.961 147.656 167.125 148.04C166.468 148.095 165.92 148.697 165.262 149.026C165.81 149.41 166.304 150.012 166.906 150.122C170.632 150.944 174.358 150.78 178.139 150.177Z" fill="white"/>
<path d="M334.247 150.999C335.562 150.068 336.932 149.191 338.356 148.205C338.63 148.424 338.959 148.698 339.452 149.081C344.713 139.328 349.918 129.739 355.123 120.095C355.014 119.986 354.959 119.931 354.849 119.821C353.973 120.424 353.151 121.027 352.164 121.684C351.891 121.356 351.562 121.027 351.123 120.588C352.438 119.657 353.534 118.616 354.849 118.013C355.671 117.63 356.767 117.739 357.753 117.63C357.699 118.616 357.918 119.712 357.534 120.479C356.055 123.492 354.411 126.342 352.822 129.301C349.206 135.931 345.589 142.561 342.028 149.136C341.754 149.574 341.589 150.068 341.48 150.67C343.617 149.903 345.589 149.026 346.576 146.835C348.384 142.78 351.507 140.369 355.671 139.273C357.315 138.835 358.959 138.944 360.164 139.985C361.425 139.547 362.575 139.218 363.726 138.835C363.836 138.944 363.89 139.054 364 139.109C361.863 142.835 359.781 146.561 357.644 150.287C357.808 150.396 357.918 150.561 358.082 150.67C359.233 149.739 360.384 148.807 361.699 147.766C361.973 147.985 362.301 148.205 362.959 148.752C361.26 150.013 359.836 151.273 358.192 152.259C356.603 153.191 355.726 152.698 355.123 151.109C353.48 151.602 351.891 152.314 350.192 152.588C348.219 152.917 346.849 151.876 346.137 150.013C344.822 150.835 343.671 151.766 342.302 152.314C341.425 152.643 340.165 152.752 339.397 152.369C338.904 152.095 338.904 150.78 338.63 149.903C338.466 150.013 338.082 150.287 337.699 150.561C337.041 151.054 336.384 151.547 335.672 151.931C334.411 152.588 332.987 153.52 331.726 152.314C330.521 151.218 331.452 149.848 332.055 148.698C336.932 139.602 341.863 130.506 346.74 121.465C346.959 121.027 347.178 120.534 347.178 119.821C346.356 120.424 345.589 121.027 344.603 121.684C344.274 121.41 343.945 121.136 343.617 120.808C343.781 120.588 343.836 120.424 343.945 120.369C345.37 119.383 346.795 118.397 348.329 117.52C348.767 117.301 349.699 117.301 349.973 117.63C350.356 118.013 350.521 118.835 350.356 119.383C350.192 120.205 349.699 120.972 349.26 121.739C344.329 130.78 339.397 139.876 334.466 148.917C334.192 149.465 333.918 150.068 333.644 150.615C333.973 150.78 334.137 150.889 334.247 150.999ZM348.932 148.643C348.822 150.232 349.808 151.163 351.397 150.725C352.438 150.451 353.425 149.903 354.356 149.41C356.767 148.095 357.589 145.52 358.904 143.383C359.89 141.794 359.233 140.753 357.26 140.753C353.863 140.753 349.096 145.246 348.932 148.643Z" fill="white"/>
<path d="M262.357 123.984C257.371 122.779 252.658 121.354 247.837 122.121C240.604 123.272 235.234 127.436 231.837 133.902C230.686 136.094 230.357 138.559 231.891 140.916C232.111 141.244 231.837 141.902 231.782 142.505C229.645 141.244 228.823 138.833 229.7 135.929C231.563 129.792 235.508 125.354 241.152 122.45C247.289 119.327 253.864 119.108 260.494 120.313C262.357 120.642 264.22 121.135 266.138 121.409C266.905 121.518 267.782 121.354 268.494 121.135C272.603 119.875 276.768 118.505 281.151 119.108C281.973 119.217 282.905 119.491 283.617 119.929C284.274 120.368 285.096 121.19 285.096 121.847C285.096 122.45 284.22 123.436 283.507 123.655C281.425 124.368 279.233 125.19 277.042 125.244C273.644 125.354 270.138 125.135 266.795 124.642C264.823 124.368 263.398 124.806 261.973 125.957C258.576 128.642 256.22 132.203 254.302 136.039C252.823 138.998 251.563 142.121 249.7 144.915C244.878 152.148 238.193 156.203 229.261 155.491C227.124 155.326 224.878 154.34 223.124 153.135C220.714 151.491 220.823 148.203 223.289 146.45C223.234 147.326 223.289 147.984 223.124 148.587C222.577 150.45 222.85 151.436 224.44 152.532C227.563 154.614 230.905 154.998 234.467 153.737C237.48 152.641 240.056 150.888 242.028 148.422C244.494 145.409 246.85 142.34 248.768 138.998C252.11 133.299 256.001 128.203 261.59 124.532C261.809 124.477 261.973 124.313 262.357 123.984ZM270.247 122.395C271.398 122.614 272.549 122.998 273.699 122.998C276.658 123.053 279.617 122.943 282.576 122.834C282.959 122.834 283.343 122.176 283.672 121.847C283.288 121.573 282.959 121.135 282.576 121.025C278.302 119.765 274.247 120.697 270.247 122.395Z" fill="white"/>
<path d="M280.111 140.096C281.59 139.657 282.686 139.383 283.782 139.055C283.892 139.219 284.001 139.329 284.166 139.493C280.604 145.137 277.097 150.89 273.371 156.479C271.782 158.835 269.426 160.534 266.303 160.15C265.481 160.041 264.33 159.274 264.166 158.616C263.947 157.794 264.44 156.698 264.988 155.876C265.207 155.548 266.412 155.383 266.796 155.657C267.508 156.15 267.234 156.863 266.412 157.356C266.193 157.465 265.919 158.013 265.974 158.123C266.193 158.397 266.577 158.671 266.851 158.616C267.727 158.452 268.878 158.342 269.426 157.794C271.234 155.822 272.823 153.685 274.357 151.438C268.768 153.082 267.453 152.863 266.138 149.74C264.933 150.616 263.837 151.548 262.577 152.315C260.714 153.411 259.892 153.082 259.015 151.274C257.7 151.767 256.44 152.424 255.07 152.698C251.728 153.465 249.7 151.438 250.303 148.096C251.015 143.767 257.317 138.89 261.755 139.329C262.686 139.438 263.618 139.931 264.33 140.151C265.536 139.767 266.686 139.438 267.782 139.055C267.837 139.164 267.947 139.274 268.001 139.383C265.919 143.109 263.782 146.781 261.7 150.507C261.81 150.616 261.974 150.726 262.084 150.835C264.056 149.685 265.864 148.37 267.015 146.233C268.933 142.835 271.782 140.589 275.563 139.548C277.755 138.945 278.467 139.109 280.111 140.096ZM252.769 148.808C252.659 150.397 253.481 151.274 255.015 151C256.001 150.835 256.933 150.342 257.864 149.849C260.44 148.534 261.371 145.904 262.741 143.657C263.673 142.068 263.015 140.972 261.207 140.918C257.919 140.863 252.988 145.52 252.769 148.808ZM271.234 150.507C271.673 150.342 272.494 150.123 273.262 149.794C275.892 148.589 277.426 146.342 278.631 143.877C278.96 143.274 279.289 142.014 279.125 141.904C278.357 141.411 277.371 140.918 276.494 141.027C273.262 141.466 269.645 145.137 268.933 148.26C268.714 149.74 269.316 150.507 271.234 150.507Z" fill="white"/>
<path d="M313.041 148.916C314.521 146.45 316 143.929 317.589 141.245C316.767 141.135 316.055 141.08 315.343 141.025C315.288 139.82 315.781 139.162 317.041 139.382C318.411 139.601 319.123 138.943 319.726 137.793C320.384 136.423 321.26 135.162 321.808 133.573C321.26 134.067 320.603 134.505 320.11 135.053C319.397 135.875 318.85 135.71 318.082 134.724C319.397 133.683 320.658 132.532 322.082 131.71C322.685 131.327 323.726 131.601 324.548 131.546C324.548 132.368 324.822 133.245 324.548 133.957C324.055 135.217 323.233 136.368 322.575 137.519C322.302 138.012 322.028 138.56 321.644 139.217C322.466 139.327 323.123 139.382 323.781 139.436C324 140.697 323.562 141.299 322.302 141.08C320.877 140.861 320.165 141.464 319.507 142.669C318.028 145.354 316.439 147.929 315.069 150.724C317.48 149.957 319.671 148.916 320.932 146.614C322.849 143.053 325.699 140.532 329.644 139.436C329.699 139.436 329.753 139.382 329.808 139.382C331.288 139.108 332.822 138.834 333.808 140.368C334.521 141.464 333.863 143.272 332.329 144.477C330.192 146.231 327.562 146.834 324.877 147.272C323.343 147.546 322.63 148.313 322.904 149.573C323.178 150.998 324.384 150.888 325.37 150.779C326.247 150.669 327.178 150.34 328 150.012C328.822 149.683 329.534 149.19 330.301 148.751C331.178 149.409 331.397 150.012 330.247 150.505C328.274 151.272 326.356 152.258 324.329 152.642C321.973 153.08 320.822 152.094 320.055 149.738C319.178 150.395 318.302 151.107 317.37 151.655C316.603 152.094 315.726 152.532 314.85 152.751C313.096 153.135 312.11 152.094 312.658 150.286C312.658 149.792 312.877 149.354 313.041 148.916ZM324.055 145.902C326.904 145.354 329.37 144.916 330.959 142.834C331.288 142.45 331.233 141.738 331.397 141.19C330.849 141.08 330.247 140.806 329.753 140.971C327.343 141.628 325.699 143.327 324.055 145.902Z" fill="white"/>
<path d="M313.096 148.863C311.617 150.014 310.192 151.329 308.549 152.315C306.85 153.356 305.864 152.918 305.206 151.329C303.453 151.822 301.809 152.534 300.055 152.753C298.083 153.027 296.768 151.877 296.165 149.849C295.288 150.507 294.521 151.11 293.699 151.603C292.932 152.041 292.165 152.534 291.343 152.644C290.576 152.699 289.48 152.534 289.042 151.986C288.658 151.548 288.713 150.397 288.987 149.74C290.138 147.438 291.453 145.247 292.658 143C292.932 142.507 293.151 141.959 293.371 141.466C293.261 141.356 293.151 141.247 292.987 141.137C291.836 142.069 290.686 143 289.535 143.986C288.33 143.329 288.22 143.219 289.206 142.397C290.467 141.301 291.836 140.26 293.316 139.493C293.919 139.164 295.234 139.274 295.672 139.712C296.11 140.151 296.11 141.411 295.836 142.069C294.686 144.479 293.316 146.781 292.056 149.137C291.782 149.63 291.562 150.068 291.453 150.671C293.754 149.795 295.782 148.589 296.932 146.342C298.795 142.781 301.754 140.425 305.644 139.438C307.836 138.891 308.494 139.055 310.192 140.041C311.507 139.658 312.658 139.274 313.754 138.945C313.809 139.055 313.918 139.164 313.973 139.274C311.891 142.945 309.809 146.616 307.727 150.288C307.836 150.397 308.001 150.562 308.11 150.671C309.316 149.74 310.466 148.863 311.727 147.877C312.165 148.26 312.603 148.589 313.096 148.863C313.096 148.863 313.042 148.918 313.096 148.863ZM301.316 151.055C301.864 150.836 302.795 150.452 303.727 150.014C306.521 148.699 307.507 145.904 308.932 143.493C309.206 143.055 309.535 142.123 309.316 141.959C308.768 141.466 307.946 140.918 307.233 140.918C303.836 140.863 298.96 145.63 298.85 148.973C298.905 150.288 299.508 151 301.316 151.055Z" fill="white"/>
<path d="M282.905 150.945C283.618 150.506 284.275 150.177 284.987 149.684C285.645 149.246 286.302 148.698 287.124 148.04C287.398 148.369 287.672 148.698 287.891 148.972C287.837 149.191 287.837 149.355 287.727 149.41C286.193 150.451 284.768 151.657 283.124 152.479C282.412 152.808 281.042 152.698 280.494 152.205C280.056 151.821 280.111 150.397 280.439 149.684C282.741 145.136 285.152 140.698 287.563 136.26C290.248 131.274 292.932 126.287 295.672 121.301C295.891 120.917 296.001 120.534 296.001 119.931C295.124 120.534 294.302 121.137 293.371 121.794C293.097 121.52 292.823 121.191 292.549 120.917C292.604 120.753 292.604 120.589 292.659 120.534C293.864 119.657 295.069 118.616 296.385 117.904C297.097 117.52 298.083 117.794 298.96 117.739C298.96 118.616 299.179 119.602 298.85 120.315C297.097 123.767 295.234 127.164 293.371 130.561C289.974 136.862 286.522 143.109 283.124 149.41C282.905 149.794 282.741 150.287 282.576 150.725C282.631 150.725 282.741 150.835 282.905 150.945Z" fill="white"/>
<path d="M300.384 130.452C300.11 130.123 299.507 129.63 299.453 129.137C299.398 127.931 300.275 127.219 301.425 127.219C301.864 127.219 302.685 127.986 302.74 128.479C302.85 129.63 301.973 130.287 300.384 130.452Z" fill="white"/>
</svg>
