<svg width="200" height="200" fill="none" xmlns="http://www.w3.org/2000/svg"><path fill="#fff" d="M0 0h200v200H0z"/><g clip-path="url(#clip0)" fill="#000"><path d="M170.592 76.04c-10.159 0-18.524 8.206-18.524 18.524 0 10.159 8.206 18.525 18.524 18.525 10.158 0 18.524-8.207 18.524-18.525 0-10.318-8.366-18.524-18.524-18.524zm14.341 8.206c-.916.598-1.952 1.195-2.987 1.793-.598-1.195-1.355-2.39-2.231-3.426.757-.438 1.513-1.036 2.111-1.514 1.315.757 2.35 1.952 3.107 3.147zm-7.768-6.095c1.514.598 2.829 1.355 4.183 2.39-.598.598-1.354 1.036-2.111 1.514-.917-1.036-1.952-1.952-2.988-2.828.318-.478.637-.797.916-1.076zm1.514 4.183c-1.036.598-2.112.916-3.147 1.355-.438-1.036-.917-2.112-1.514-2.988.597-.319 1.195-.598 1.633-1.036a14.556 14.556 0 013.028 2.67zm-2.271-4.502c-.319.32-.597.598-.757.917-1.036-.598-1.952-1.195-3.147-1.634 1.394-.04 2.709.28 3.904.718zm-1.314 1.355c-.439.319-.917.597-1.355.757-.598-.916-1.195-1.633-1.793-2.55 1.036.438 2.072 1.036 3.148 1.793zm-4.223-1.633c.757.757 1.354 1.633 1.952 2.709-.598.159-1.195.318-1.952.318v-3.027zm0 3.704a7.22 7.22 0 002.39-.438c.598.917 1.036 1.952 1.514 2.988-1.195.319-2.55.438-3.904.598v-3.148zm-.717-3.704v2.987c-.598 0-1.195-.159-1.952-.318.757-.877 1.354-1.793 1.952-2.67zm-2.55 2.39c-.438-.16-1.036-.438-1.354-.757 1.035-.598 2.111-1.195 3.147-1.633-.757.717-1.355 1.474-1.793 2.39zm1.036-2.988c-1.036.438-2.112 1.036-3.147 1.633-.319-.318-.598-.597-.757-.916 1.235-.279 2.549-.597 3.904-.717zm12.708 31.671c-2.39-1.355-2.55-3.307-2.39-3.904.159-.757.597-.438.916-.438 1.633 0 3.306-.439 5.378-2.709 2.39-2.39 3.147-7.769-.598-11.195-3.904-3.745-8.087-3.147-10.756.319-.597.757-1.952 1.195-2.987 1.195-1.793 0-.598 1.355-.598 1.633 0 .32-.319.439-.438.439-.598-.16-.319.757-.319.916 0 .16-.319.438-.319.438-.757 0-.597.598-.438.916 0 .16 0 .439-.319.598-.318.16-.438.757-.438 1.195 0 .757.757 1.355 1.952 2.231 1.195.916 1.355 1.793 1.355 2.39 0 .598.159 1.634.318 2.231.319.757.319 2.231-1.354 2.231-2.111.159-5.697 1.633-5.976 1.793-1.195.438-2.709.597-3.904.318a15.098 15.098 0 01-1.792-1.513c-.319-.757.159-1.634.597-2.231.757.757 1.634.597 2.231.597.598 0 3.307-.438 3.745-.597.438-.16.597-.16.757 0 1.036.438 2.549.438 3.147-1.514.597-2.112-.757-1.514-1.036-1.355-.159.16-.438 0-.319-.159.319-.438-.159-.438-.318-.438-.598 0-1.355.597-1.514.757-.319.159-.438.159-.598.159-.757-.438-2.987.159-3.744-1.036 0-.318-.598-5.218-.917-6.135 0-.159-.159-.438.16-.757.597-.916 2.111 0 2.988 0 1.035 0 1.195-.438 1.513-.756.319-.32.439-.16.598-.32.159-.159 0-.318 0-.437 0-.12.159 0 .319-.16.159-.16 0-.438 0-.597.318-.439.916-.16.597-1.036-.159-.598.16-1.195.438-1.514.439-.597 2.391-3.306-.916-6.135-3.147-2.709-6.414-2.39-8.525-.16-2.111 2.232-1.036 5.538-.916 6.415.159.916-.439 1.633-1.195 1.952-.598.318-1.952 1.195-2.829 1.952.159-7.171 4.502-13.465 11.075-15.975.319.319.597.757.916 1.036-.757.597-2.39 1.952-2.39 1.952s.159 0 .438.159c.159 0 .438.16.438.16s1.355-1.196 2.112-1.634c.438.438 1.035.757 1.633 1.036-.319.597-1.195 2.111-1.195 2.111s.159.16.319.16c.159.159.318.159.318.159s.917-1.633 1.195-2.231a5.7 5.7 0 002.231.438v2.988c-.438 0-1.514 0-1.952-.16h-.318l.159.32c.159.159.159.318.319.438h1.792V90.7h.757v-1.355c1.195 0 2.112-.159 3.147-.318l1.036-.916h-.597c-1.196.159-2.231.318-3.148.318h-.438v-3.426c1.355 0 2.829-.16 4.183-.597a210.11 210.11 0 011.036 3.147l.757-.319s-.757-2.23-1.036-3.147c1.195-.319 2.231-.916 3.307-1.355.916 1.036 1.633 2.231 2.23 3.427-.597.318-1.513.597-1.513.597.757.16 1.354.319 1.354.319s.319-.16.438-.16c0 .16.16.439.16.439l1.035.438-.159-.319s-.319-.757-.438-.916a15.825 15.825 0 003.147-1.793c1.952 2.829 2.828 6.294 2.828 9.72.279 5.777-2.549 10.836-6.732 14.143zM150.434 80.98l-.319.318c-1.035.917-3.585 3.426-3.147 6.295v.159l.16.598.318-.32c1.514-1.354 2.709-3.744 3.148-6.413l.159-.757-.319.12zm-5.099 4.78l-.159.319c-.16.438-.439 1.514-.598 2.709-.319 1.793-.159 4.501 1.354 6.414l.319.597.319-1.195c.319-2.111-.159-6.414-.916-8.366l-.319-.597v.12zm-1.793 7.45v.319c-.159 1.792 0 6.413 3.745 8.963l.438.319v-.598c0-1.793-2.111-7.011-3.585-8.804l-.438-.598-.16.399zm.598 8.246v.319c.597 2.709 2.988 6.892 6.892 8.206l.597.16-.159-.598c-.757-1.952-4.502-6.573-6.892-8.087l-.438-.319v.319zm7.927-16.453l-.438.16c-2.828 1.792-4.183 3.904-4.183 6.573v.597l.439-.318c1.513-1.355 3.585-4.621 4.023-6.414l.159-.757v.16zm-1.792 5.697l-.16.319c-.757.757-3.147 3.306-2.987 6.413 0 .439.159 1.036.318 1.514l.16.439.318-.439c1.195-1.633 2.709-5.816 2.55-7.768v-.598l-.199.12zm.159 5.537l-.159.32c-1.195 1.792-1.793 3.584-1.793 5.377 0 1.195.438 2.39 1.195 3.585l.319.439.159-.439c.439-1.035.917-4.182.917-6.732 0-.916-.16-1.633-.319-2.111l-.159-.598-.16.16zm1.315 5.817l-.16.318c-.318 1.195-.597 2.231-.438 3.426 0 2.391 1.195 4.343 3.307 5.697l.318.159.16-.438v-.438c0-1.952-1.514-7.011-2.709-8.525l-.319-.438-.159.239zm-4.024 7.768l.16.319c1.513 2.549 4.183 5.975 9.122 5.099h.439l-.319-.319c-.916-1.354-6.892-4.78-8.964-5.099l-.597-.159.159.159zm7.33 6.573l-.757.159.757.319c3.147 1.355 7.012 1.633 9.402.916.916-.318 1.354-.757 1.952-1.354 4.023.438 7.768 3.745 9.999 6.414l.159.159h.16c.318-.159.597-.438.757-.597l.159-.16-.159-.159c-2.231-2.988-5.817-4.781-5.976-4.94-3.306-1.514-9.003-2.709-16.453-.757z"/><path d="M155.215 108.029v.319c.438 2.988 1.633 6.892 6.732 6.414h.319l-.16-.319c-.318-1.355-4.939-5.219-6.573-6.294l-.438-.319.12.199zm35.256-27.369l.159.758c.438 2.709 1.633 5.099 3.147 6.414l.319.318.159-.597v-.16c.438-2.828-2.111-5.378-3.147-6.294l-.319-.319-.318-.12zm5.218 4.781l-.318.598c-.757 1.952-1.036 6.294-.917 8.366l.319 1.195.16-.16.159-.318c1.633-1.952 1.633-4.502 1.354-6.414a12.91 12.91 0 00-.597-2.709l-.16-.319v-.239zm1.952 7.489l-.438.598c-1.514 1.952-3.585 7.012-3.585 8.804v.598l.438-.319c3.745-2.39 3.904-7.011 3.745-8.963v-.319l-.16-.398zm-.597 8.207l-.598.319c-2.39 1.514-6.135 6.135-6.892 8.087l-.159.598.598-.16c3.904-1.195 6.414-5.537 6.892-8.206v-.319l.159-.319zm-7.928-16.413l.16.757c.597 1.952 2.39 5.219 4.023 6.573l.438.32v-.598c.16-2.71-1.195-4.78-4.023-6.574l-.319-.159-.279-.319zm1.634 5.816v.598c-.16 1.952 1.513 6.294 2.549 7.768l.319.439.159-.439c.16-.597.319-1.035.319-1.513.159-3.147-2.231-5.697-2.988-6.414l-.159-.16-.199-.278zm-.12 5.379l-.159.597c-.16.438-.319 1.195-.319 2.112 0 2.549.319 5.696.916 6.732l.16.438.318-.438c.757-1.036 1.196-2.231 1.196-3.585 0-1.634-.598-3.586-1.793-5.378l-.159-.319-.16-.16zm-1.354 5.816l-.319.438c-1.195 1.514-2.709 6.573-2.709 8.525v.438l.159.439.319-.16c2.111-1.354 3.147-3.306 3.307-5.696 0-1.036-.16-2.231-.439-3.426l-.159-.319-.159-.239zm4.342 7.768l-.598.16c-2.111.318-8.087 3.744-8.963 5.099l-.319.318h.438c4.94.917 7.609-2.549 9.123-5.099l.16-.318.159-.16zm-23.783 7.649c-.159 0-3.745 1.952-5.976 4.94l-.159.159.159.16c.16.159.598.438.757.597h.16l.159-.159c2.231-2.709 5.976-6.135 9.999-6.414.598.597 1.195 1.036 1.952 1.354 2.231.757 6.294.439 9.402-.916l.757-.319-.757-.159c-7.609-1.952-13.306-.757-16.453.757zm16.134-9.441l-.438.318c-1.633 1.036-6.135 4.94-6.573 6.295l-.16.318h.319c4.94.438 6.135-3.426 6.733-6.414v-.358l.119-.159zM59.844 77.832h6.294v5.697h-6.294v-5.697zm.597 12.27h5.22v27.807h-5.22V90.102zm-39.598 0h5.219v27.807h-5.1v-4.063h-.159c-2.111 3.426-5.697 4.939-9.56 4.939-5.817 0-9.123-4.501-9.123-9.999V90.102h5.218v16.453c0 4.781 1.036 8.366 6.135 8.366 2.111 0 5.1-1.036 6.135-4.023 1.036-2.55 1.036-5.817 1.036-6.574V90.142h.2v-.04zm15.696 4.024c1.952-3.426 5.697-4.94 8.525-4.94 1.952 0 10.477.438 10.477 9.402v19.122h-5.218v-17.489c0-4.621-1.952-7.011-6.414-7.011 0 0-2.829-.16-5.1 2.111-.756.757-2.23 1.952-2.23 7.49v15.098H31.36V90.102h5.219l-.04 4.024zm51.111 4.78c-.318-3.425-1.952-5.816-5.696-5.816-4.94 0-6.892 4.343-6.892 10.756 0 6.414 1.952 10.756 6.892 10.756 3.426 0 5.537-2.23 5.816-6.294h5.219c-.439 6.294-5.1 9.999-11.195 9.999-8.804 0-12.39-6.294-12.39-14.341s4.025-14.78 12.868-14.78c5.817 0 10.159 3.745 10.478 9.72h-5.1zm13.147 5.976c-.438 4.781 1.633 9.88 6.892 9.88 4.023 0 6.135-1.634 6.732-5.697h5.498c-.917 6.294-5.697 9.402-12.27 9.402-8.804 0-12.39-6.295-12.39-14.342s4.024-14.78 12.868-14.78c8.206.16 12.11 5.379 12.11 12.987v2.55h-19.44zm14.062-3.585c.16-4.621-1.952-8.207-7.011-8.207-4.342 0-6.892 3.745-6.892 8.207h13.903zm11.354 16.293V93.688h-4.781v-3.586h4.781v-5.975c.159-5.976 4.78-7.61 8.685-7.61 1.195 0 2.549.32 3.744.598v4.343c-.916 0-1.792-.16-2.709-.16-2.987 0-4.621.757-4.501 3.745v5.1h6.414v3.585h-6.414v23.902l-5.219-.04z"/></g><defs><clipPath id="clip0"><path fill="#fff" transform="translate(2 76)" d="M0 0h196v47.008H0z"/></clipPath></defs></svg>