<svg width="200" height="200" fill="none" xmlns="http://www.w3.org/2000/svg"><path fill="#fff" d="M0 0h200v200H0z"/><g clip-path="url(#clip0)" fill="#000"><path d="M157.626 81.033c-8.293 0-15.122 6.699-15.122 15.121 0 8.293 6.699 15.122 15.122 15.122 8.293 0 15.122-6.699 15.122-15.121 0-8.423-6.829-15.122-15.122-15.122zm11.707 6.699c-.748.488-1.593.975-2.439 1.463a14.22 14.22 0 00-1.821-2.797c.618-.357 1.236-.845 1.724-1.235 1.073.618 1.918 1.593 2.536 2.569zm-6.341-4.976c1.236.488 2.309 1.106 3.414 1.951-.487.488-1.105.846-1.723 1.236-.748-.845-1.594-1.593-2.439-2.309.26-.39.52-.65.748-.878zm1.236 3.415c-.846.488-1.724.748-2.57 1.105-.357-.845-.747-1.723-1.235-2.438.488-.26.975-.488 1.333-.846a11.9 11.9 0 012.472 2.179zm-1.854-3.675c-.26.26-.488.488-.618.748-.845-.488-1.593-.976-2.569-1.333 1.138-.033 2.211.227 3.187.585zm-1.073 1.106c-.358.26-.748.487-1.106.618-.488-.748-.976-1.334-1.463-2.082.845.358 1.691.846 2.569 1.464zm-3.447-1.334c.617.618 1.105 1.334 1.593 2.212-.488.13-.976.26-1.593.26v-2.472zm0 3.025a5.9 5.9 0 001.951-.358c.488.748.845 1.593 1.236 2.44-.976.26-2.082.357-3.187.487v-2.57zm-.586-3.025v2.44c-.488 0-.975-.13-1.593-.26.618-.716 1.105-1.464 1.593-2.18zm-2.081 1.952c-.358-.13-.846-.358-1.106-.618.846-.488 1.724-.976 2.569-1.334-.618.586-1.105 1.204-1.463 1.952zm.845-2.44c-.845.358-1.723.846-2.569 1.334-.26-.26-.487-.488-.618-.748 1.009-.228 2.082-.488 3.187-.585zm10.374 25.854c-1.951-1.105-2.081-2.699-1.951-3.187.13-.618.488-.357.748-.357 1.334 0 2.699-.358 4.39-2.212 1.952-1.951 2.57-6.341-.487-9.138-3.187-3.057-6.602-2.57-8.781.26-.488.618-1.593.976-2.439.976-1.463 0-.488 1.105-.488 1.333 0 .26-.26.358-.357.358-.488-.13-.261.618-.261.748s-.26.357-.26.357c-.618 0-.488.488-.357.748 0 .13 0 .358-.261.488-.26.13-.357.618-.357.976 0 .618.618 1.105 1.593 1.821.976.748 1.106 1.463 1.106 1.951s.13 1.334.26 1.821c.26.618.26 1.821-1.106 1.821-1.723.131-4.65 1.334-4.878 1.464-.975.358-2.211.488-3.187.26a12.318 12.318 0 01-1.463-1.236c-.26-.618.13-1.333.488-1.821.618.618 1.333.488 1.821.488s2.699-.358 3.057-.488c.357-.13.488-.13.618 0 .845.358 2.081.358 2.569-1.236.488-1.723-.618-1.235-.846-1.105-.13.13-.358 0-.26-.13.26-.358-.13-.358-.26-.358-.488 0-1.106.488-1.236.618-.26.13-.358.13-.488.13-.618-.358-2.439.13-3.057-.846 0-.26-.487-4.26-.748-5.008 0-.13-.13-.358.13-.618.488-.748 1.724 0 2.44 0 .845 0 .975-.358 1.235-.618.26-.26.358-.13.488-.26s0-.26 0-.358c0-.097.13 0 .26-.13s0-.357 0-.487c.26-.358.748-.13.488-.846-.13-.488.13-.975.358-1.236.358-.487 1.951-2.699-.748-5.008-2.569-2.211-5.236-1.951-6.96-.13-1.723 1.821-.845 4.52-.747 5.236.13.748-.358 1.333-.976 1.593-.488.26-1.594.976-2.309 1.594.13-5.854 3.675-10.992 9.041-13.04.26.26.487.617.748.845-.618.487-1.952 1.593-1.952 1.593s.13 0 .358.13c.13 0 .358.13.358.13s1.105-.975 1.723-1.333c.358.358.846.618 1.334.846-.26.487-.976 1.723-.976 1.723s.13.13.26.13c.13.13.26.13.26.13s.748-1.333.976-1.82c.618.26 1.236.357 1.821.357v2.439c-.358 0-1.236 0-1.593-.13h-.26l.13.26c.13.13.13.26.26.358h1.463V93h.618v-1.106c.976 0 1.724-.13 2.569-.26l.846-.748h-.488c-.976.13-1.821.26-2.569.26h-.358V88.35c1.106 0 2.309-.13 3.415-.488.26.748.845 2.569.845 2.569l.618-.26s-.618-1.821-.845-2.57c.975-.26 1.821-.747 2.699-1.105.748.846 1.333 1.821 1.821 2.797-.488.26-1.236.488-1.236.488.618.13 1.106.26 1.106.26s.26-.13.358-.13c0 .13.13.357.13.357l.845.358-.13-.26s-.26-.618-.358-.748a12.894 12.894 0 002.569-1.463c1.594 2.308 2.309 5.138 2.309 7.934.228 4.716-2.081 8.846-5.496 11.545zm-25.235-22.569l-.26.26c-.846.748-2.927 2.797-2.57 5.138v.13l.131.488.26-.26c1.235-1.105 2.211-3.057 2.569-5.236l.13-.617-.26.097zm-4.163 3.903l-.13.26c-.13.357-.358 1.236-.488 2.211-.26 1.464-.13 3.675 1.106 5.236l.26.488.26-.976c.26-1.724-.13-5.236-.748-6.83l-.26-.487v.098zm-1.463 6.081v.26c-.13 1.463 0 5.236 3.057 7.317l.357.26v-.488c0-1.463-1.723-5.723-2.927-7.187l-.357-.487-.13.325zm.487 6.732v.26c.488 2.211 2.439 5.626 5.626 6.699l.488.13-.13-.488c-.618-1.593-3.675-5.366-5.626-6.601l-.358-.261v.261zm6.472-13.431l-.358.13c-2.309 1.463-3.414 3.187-3.414 5.366v.487l.357-.26c1.236-1.105 2.927-3.772 3.285-5.235l.13-.618v.13zM141.041 93l-.13.26c-.618.618-2.57 2.7-2.439 5.236 0 .358.13.846.26 1.236l.13.357.26-.357c.976-1.334 2.211-4.748 2.081-6.342v-.487l-.162.097zm.13 4.52l-.13.26c-.976 1.464-1.464 2.927-1.464 4.391 0 .975.358 1.951.976 2.927l.26.357.13-.357c.358-.846.748-3.415.748-5.496a5.49 5.49 0 00-.26-1.724l-.13-.488-.13.13zm1.073 4.748l-.13.261c-.26.975-.488 1.821-.358 2.796 0 1.951.976 3.545 2.699 4.651l.26.13.131-.358v-.358c0-1.593-1.236-5.723-2.212-6.959l-.26-.358-.13.195zm-3.285 6.342l.13.26c1.236 2.081 3.415 4.878 7.448 4.163h.357l-.26-.261c-.748-1.105-5.626-3.902-7.317-4.162l-.488-.13.13.13zm5.984 5.366l-.618.13.618.26c2.569 1.106 5.724 1.333 7.675.748.748-.26 1.106-.618 1.593-1.106 3.285.358 6.342 3.057 8.163 5.236l.13.13h.13c.26-.13.488-.358.618-.488l.13-.13-.13-.13c-1.821-2.439-4.748-3.902-4.878-4.032-2.699-1.236-7.35-2.212-13.431-.618z"/><path d="M145.073 107.146v.261c.358 2.439 1.333 5.626 5.496 5.235h.26l-.13-.26c-.26-1.106-4.032-4.26-5.366-5.138l-.357-.26.097.162zm28.781-22.341l.13.618c.357 2.211 1.333 4.162 2.569 5.236l.26.26.13-.488v-.13c.358-2.31-1.723-4.39-2.569-5.138l-.26-.26-.26-.098zm4.26 3.902l-.26.488c-.618 1.594-.846 5.138-.748 6.83l.26.975.13-.13.13-.26c1.333-1.594 1.333-3.675 1.106-5.236a10.526 10.526 0 00-.488-2.211l-.13-.26v-.196zm1.593 6.114l-.357.488c-1.236 1.594-2.927 5.724-2.927 7.187v.488l.357-.26c3.057-1.952 3.187-5.724 3.057-7.318v-.26l-.13-.325zm-.488 6.699l-.487.261c-1.952 1.235-5.008 5.008-5.626 6.601l-.13.488.487-.13c3.187-.976 5.236-4.52 5.626-6.699v-.26l.13-.261zm-6.471-13.398l.13.618c.488 1.593 1.951 4.26 3.285 5.366l.357.26v-.488c.13-2.211-.975-3.902-3.284-5.366l-.26-.13-.228-.26zm1.333 4.748v.488c-.13 1.593 1.236 5.138 2.082 6.341l.26.358.13-.358c.13-.487.26-.845.26-1.236.13-2.569-1.821-4.65-2.439-5.235l-.13-.13-.163-.228zm-.097 4.39l-.13.488c-.13.358-.26.976-.26 1.724 0 2.081.26 4.65.747 5.496l.131.357.26-.357c.618-.846.975-1.822.975-2.927 0-1.334-.487-2.927-1.463-4.39l-.13-.26-.13-.13zm-1.106 4.748l-.26.358c-.976 1.236-2.212 5.366-2.212 6.959v.358l.131.358.26-.13c1.723-1.106 2.569-2.7 2.699-4.651 0-.845-.13-1.821-.358-2.797l-.13-.26-.13-.195zm3.545 6.342l-.488.13c-1.724.26-6.602 3.057-7.317 4.162l-.26.261h.357c4.033.748 6.212-2.082 7.448-4.163l.13-.26.13-.13zm-19.415 6.244c-.13 0-3.057 1.593-4.878 4.032l-.13.13.13.13c.13.13.488.358.618.488h.13l.13-.13c1.821-2.211 4.878-5.008 8.163-5.236.488.488.975.846 1.593 1.106 1.821.618 5.138.358 7.675-.748l.618-.26-.618-.13c-6.211-1.594-10.862-.618-13.431.618zm13.171-7.708l-.358.26c-1.333.846-5.008 4.033-5.366 5.139l-.13.26h.26c4.033.357 5.008-2.797 5.496-5.236v-.293l.098-.13zM67.22 82.496h5.138v4.65h-5.139v-4.65zm.487 10.016h4.26v22.699h-4.26V92.512zm-32.325 0h4.26v22.699H35.48v-3.317h-.13c-1.724 2.797-4.65 4.033-7.805 4.033-4.748 0-7.448-3.675-7.448-8.163V92.512h4.26v13.431c0 3.903.846 6.829 5.009 6.829 1.723 0 4.162-.845 5.008-3.284.845-2.081.845-4.748.845-5.366V92.545h.163v-.033zm12.813 3.285c1.593-2.797 4.65-4.033 6.96-4.033 1.593 0 8.552.358 8.552 7.675v15.61h-4.26v-14.277c0-3.772-1.593-5.723-5.236-5.723 0 0-2.309-.13-4.162 1.723-.618.618-1.821 1.594-1.821 6.114v12.325h-4.26V92.512h4.26l-.033 3.285zM89.919 99.7c-.26-2.797-1.594-4.749-4.65-4.749-4.033 0-5.627 3.545-5.627 8.781 0 5.236 1.594 8.78 5.626 8.78 2.797 0 4.52-1.821 4.748-5.138h4.26c-.357 5.138-4.162 8.163-9.138 8.163-7.187 0-10.114-5.139-10.114-11.708s3.285-12.065 10.504-12.065c4.748 0 8.293 3.057 8.553 7.935H89.92zm10.731 4.877c-.357 3.903 1.334 8.065 5.626 8.065 3.285 0 5.008-1.333 5.496-4.65h4.488c-.748 5.138-4.65 7.675-10.016 7.675-7.187 0-10.114-5.138-10.114-11.708 0-6.569 3.285-12.065 10.504-12.065 6.699.13 9.886 4.39 9.886 10.602v2.081h-15.87zm11.48-2.926c.13-3.773-1.593-6.7-5.724-6.7-3.544 0-5.626 3.057-5.626 6.7h11.35zm9.268 13.3V95.439h-3.902v-2.927h3.902v-4.878c.13-4.878 3.903-6.211 7.09-6.211.975 0 2.081.26 3.057.488v3.544c-.748 0-1.464-.13-2.212-.13-2.439 0-3.772.618-3.674 3.057v4.163h5.235v2.927h-5.235v19.512l-4.261-.033z"/></g><defs><clipPath id="clip0"><path fill="#fff" transform="translate(20 81)" d="M0 0h160v38.374H0z"/></clipPath></defs></svg>