<svg width="200" height="200" fill="none" xmlns="http://www.w3.org/2000/svg"><path fill="#fff" d="M0 0h200v200H0z"/><path d="M178.637 101.755c-.909-.864-2.44-1.543-4.593-2.037L173 99.483c-.629-.135-1.054-.28-1.278-.438a.713.713 0 01-.337-.605c0-.36.202-.623.605-.79.405-.169.977-.253 1.717-.252.4.002.8.035 1.195.098a17.2 17.2 0 011.294.254c.427.1.82.213 1.179.336.281.089.552.207.808.354.3-.258.546-.572.723-.926.201-.414.299-.87.287-1.33.01-.506-.156-1-.472-1.395a3.424 3.424 0 00-1.278-.96 7.66 7.66 0 00-1.902-.556 14.133 14.133 0 00-2.339-.185 11.498 11.498 0 00-3.012.37 7.592 7.592 0 00-2.339 1.044 4.637 4.637 0 00-2.052 3.937c0 1.527.477 2.699 1.43 3.516.953.821 2.406 1.422 4.358 1.802l1.008.202c.629.112 1.078.258 1.347.437a.846.846 0 01.404.741c0 .337-.185.605-.556.807-.37.203-.903.302-1.598.302-1.099 0-2.07-.14-2.911-.42a13.358 13.358 0 01-2.238-.959 3.433 3.433 0 00-.807.925c-.225.371-.337.825-.337 1.364a2.418 2.418 0 00.488 1.515c.359.454.821.817 1.346 1.059.572.281 1.262.489 2.071.624.867.139 1.745.207 2.625.201 2.49 0 4.374-.482 5.652-1.448 1.281-.963 1.92-2.298 1.919-4.004 0-1.368-.454-2.484-1.363-3.348zm-17.488-6.261a8.147 8.147 0 00-2.775-1.749c-1.077-.416-2.277-.624-3.601-.623-1.324 0-2.524.202-3.601.605a7.922 7.922 0 00-2.777 1.735 7.7 7.7 0 00-1.8 2.742c-.427 1.077-.641 2.278-.64 3.601 0 1.346.213 2.557.64 3.634a7.698 7.698 0 001.8 2.743 7.94 7.94 0 002.777 1.735c1.076.403 2.276.605 3.601.605 1.323 0 2.523-.191 3.601-.573a7.647 7.647 0 002.775-1.683 7.54 7.54 0 001.802-2.742c.426-1.089.639-2.329.639-3.719 0-1.301-.213-2.49-.639-3.567a7.75 7.75 0 00-1.802-2.744zm-4.172 9.44c-.505.74-1.229 1.111-2.172 1.112-.941 0-1.677-.365-2.202-1.094-.529-.73-.793-1.779-.792-3.147 0-1.347.258-2.385.773-3.114.517-.727 1.246-1.092 2.189-1.093.942 0 1.671.364 2.187 1.093.515.73.773 1.769.774 3.114 0 1.346-.253 2.389-.757 3.129zm-13.748 5.319V99.255a8.02 8.02 0 00-.05-.863V90.43c0-.561-.067-1.016-.2-1.363a1.84 1.84 0 00-.607-.824 2.288 2.288 0 00-.992-.405 8 8 0 00-1.331-.1 9.48 9.48 0 00-1.514.118c-.363.05-.723.123-1.077.218v5.216a14.35 14.35 0 00-2.294-.193v.017h-.011a11.789 11.789 0 00-1.826.137 10.26 10.26 0 00-1.675.393 7.666 7.666 0 00-2.792 1.598 7.343 7.343 0 00-1.867 2.71c-.45 1.088-.674 2.373-.674 3.853 0 1.346.208 2.551.622 3.618a7.54 7.54 0 001.819 2.743c.795.763 1.771 1.346 2.927 1.751 1.156.403 2.463.605 3.921.605.539 0 1.077-.032 1.612-.093h.003c.163-.02.324-.039.481-.064h.006l.026-.006c.237-.038.471-.077.695-.128.274-.06.541-.127.794-.207.271-.085.526-.174.771-.266 0 0 1.673.654 3.233.495zm-5.736-4.847a2.51 2.51 0 01-.759.42 2.764 2.764 0 01-1.042.177c-1.095 0-1.935-.333-2.536-.978-.028-.03-.063-.05-.089-.082-.607-.707-.91-1.756-.909-3.148a6.318 6.318 0 01.226-1.762c.161-.564.407-1.034.749-1.4.482-.515 1.117-.84 1.907-.973.276-.042.556-.063.836-.062.628 0 1.166.135 1.616.403l.001 7.405zm-17.166 4.346s1.673.654 3.234.496V99.251c0-1.055-.19-1.97-.571-2.743a5.085 5.085 0 00-1.634-1.918c-.705-.505-1.558-.881-2.557-1.129-.303-.075-.636-.117-.959-.168a14.592 14.592 0 00-2.346-.202v.019l-.011-.002a11.087 11.087 0 00-3.449.522 7.705 7.705 0 00-2.794 1.599c-.074.068-.139.144-.21.214a7.407 7.407 0 00-1.655 2.496c-.451 1.088-.676 2.372-.674 3.852 0 1.347.207 2.553.622 3.618a7.615 7.615 0 001.817 2.744c.796.762 1.772 1.345 2.929 1.75.819.277 1.668.455 2.529.531.31.021.622.042.946.05.15.006.291.025.444.025.687.002 1.372-.048 2.052-.148a10.234 10.234 0 001.517-.341c.269-.085.524-.174.769-.266l.001-.002zm-2.453-4.36a2.457 2.457 0 01-.757.42c-.35.128-.721.192-1.094.186-1.095 0-1.935-.333-2.536-.978-.028-.03-.063-.05-.089-.082-.607-.707-.91-1.756-.909-3.147a6.362 6.362 0 01.225-1.763c.162-.563.408-1.035.75-1.4.652-.695 1.583-1.043 2.794-1.043.144 0 .287.008.43.024a2.89 2.89 0 011.186.38v7.403zm-16.803-19.338c-.942 0-1.699.292-2.27.877-.574.582-.86 1.3-.86 2.152 0 .853.287 1.571.86 2.155.571.583 1.328.874 2.27.874s1.699-.292 2.272-.874c.572-.584.857-1.303.857-2.155 0-.852-.286-1.569-.857-2.152-.573-.585-1.331-.877-2.272-.877zm2.02 8.01a2.284 2.284 0 00-.995-.404 7.936 7.936 0 00-1.328-.101c-.491 0-.98.04-1.464.12-.483.078-.847.14-1.094.185v13.696c0 .562.073 1.015.219 1.363.13.326.345.611.623.825a2.3 2.3 0 00.992.404c.44.07.885.104 1.33.1.49 0 .98-.039 1.464-.119.481-.077.847-.14 1.093-.185V96.252c0-.56-.073-1.015-.219-1.363a1.963 1.963 0 00-.621-.825zm-9.107-5.821a2.288 2.288 0 00-.992-.405 7.997 7.997 0 00-1.33-.1 8.86 8.86 0 00-1.464.118c-.483.078-.848.14-1.094.185v19.519c0 .562.072 1.015.219 1.363.129.326.344.611.621.825.295.211.635.349.994.404.44.07.883.103 1.328.1.491 0 .981-.039 1.465-.119.482-.077.846-.14 1.094-.185V90.43c0-.561-.074-1.016-.219-1.363a1.952 1.952 0 00-.622-.824zm-11.105-2.189c-.942 0-1.7.292-2.272.877-.573.582-.86 1.3-.858 2.152 0 .853.286 1.571.858 2.155.572.583 1.33.874 2.272.874.943 0 1.7-.292 2.272-.874.572-.584.858-1.303.857-2.155 0-.852-.286-1.569-.857-2.152-.573-.585-1.33-.877-2.272-.877zm2.019 8.01a2.272 2.272 0 00-.993-.404 7.967 7.967 0 00-1.329-.101c-.49 0-.98.04-1.463.12-.484.078-.848.14-1.094.185v13.696c0 .562.072 1.015.219 1.363.13.326.345.611.623.825.294.212.634.35.992.404a9.113 9.113 0 002.794-.018c.48-.078.846-.141 1.093-.186V96.252c0-.56-.073-1.015-.22-1.363a1.96 1.96 0 00-.622-.825zm-10.347.455a6.395 6.395 0 00-2.189-1.06 9.44 9.44 0 00-2.505-.337c-1.191 0-2.207.146-3.047.437a9.99 9.99 0 00-2.27 1.112 6.677 6.677 0 00-2.307-1.161 9.622 9.622 0 00-2.708-.388 12.394 12.394 0 00-3.551.505c-1.134.337-2.082.774-2.844 1.313a4.354 4.354 0 00-1.06 1.009c-.259.359-.388.841-.387 1.448v10.163c0 .562.072 1.015.22 1.363.128.326.343.612.62.825.295.211.636.349.994.404.44.07.885.104 1.33.1.5.001 1.001-.033 1.497-.1a7.793 7.793 0 001.06-.203V98.138c.24-.132.488-.25.74-.355.333-.13.687-.193 1.044-.185.583 0 1.082.151 1.497.455.416.302.624.79.623 1.463v8.044c0 .562.072 1.015.219 1.363.13.326.345.611.623.825.294.211.634.35.992.404.44.07.884.104 1.329.1.49 0 .98-.033 1.465-.1a9.437 9.437 0 001.093-.203V98.523a1 1 0 00-.034-.252 2.92 2.92 0 01.81-.453 2.673 2.673 0 011.008-.22c.65 0 1.165.151 1.547.455.381.302.572.79.572 1.463v8.044c0 .562.073 1.015.22 1.363.13.326.344.611.621.825.295.211.636.349.994.404.44.07.885.104 1.33.1.5.001 1.001-.033 1.497-.1a7.768 7.768 0 001.059-.203v-10.6c0-1.145-.19-2.115-.572-2.912a5.114 5.114 0 00-1.53-1.918zm-29.243 15.239s1.675.654 3.235.495V99.256c0-1.054-.19-1.968-.572-2.742a5.08 5.08 0 00-1.632-1.919c-.707-.505-1.56-.88-2.557-1.128-.304-.075-.636-.117-.96-.168-.776-.13-1.56-.198-2.346-.202v.018l-.01-.001c-1.17-.01-2.334.167-3.45.522a7.69 7.69 0 00-2.793 1.598c-.074.068-.14.145-.21.215a7.418 7.418 0 00-1.658 2.496c-.449 1.088-.673 2.372-.673 3.852 0 1.347.207 2.553.622 3.617a7.619 7.619 0 001.818 2.744c.796.762 1.772 1.346 2.928 1.75a10.9 10.9 0 002.53.532c.31.021.623.041.947.05.148.005.289.025.444.025.686.001 1.371-.048 2.05-.149a9.97 9.97 0 001.517-.341c.27-.085.526-.173.77-.266v-.001zm-2.452-4.36a2.492 2.492 0 01-.757.42c-.35.128-.721.191-1.094.186-1.094 0-1.934-.334-2.535-.978-.028-.031-.063-.051-.09-.082-.606-.707-.909-1.756-.908-3.147a6.372 6.372 0 01.224-1.763c.163-.564.409-1.035.751-1.4.65-.695 1.581-1.043 2.794-1.043.144 0 .287.008.43.024.418.04.822.169 1.185.38v7.403zM30.71 86.728c-.567-.358-1.58-.728-3.24-.728a11.095 11.095 0 00-2.912.37 6.63 6.63 0 00-2.372 1.16 5.628 5.628 0 00-1.599 2.02c-.392.82-.588 2.147-.588 3.29v20.537h1.873c.786-.002 2.243-.386 3.002-1.188.759-.801.845-1.715.846-2.544V99.463s1.468.007 2.024 0a2.188 2.188 0 001.456-.61c.328-.335.695-.853.742-1.56.046-.707-.017-1.009-.078-1.434a6.917 6.917 0 00-.243-.979h-4.204v-1.838c0-.807.27-1.373.808-1.7.538-.324 1.29-.486 2.255-.487.605 0 1.207.108 1.668.188a22.2 22.2 0 011.26.285c.153-.335.28-.682.375-1.038.126-.507.265-1.315.104-2.039-.16-.724-.614-1.166-1.179-1.523z" fill="#000"/></svg>