<svg width="200" height="200" fill="none" xmlns="http://www.w3.org/2000/svg"><path fill="#fff" d="M0 0h200v200H0z"/><g clip-path="url(#clip0)" fill="#000"><path d="M25.724 111.399c4.551 1.071 9.103 2.196 13.602 3.267-.536-1.5-1.34-2.732-1.285-3.91 0-1.231.589-2.624 1.285-3.695 1.606-2.624 4.016-4.391 6.962-5.355 1.927-.643 3.855-.803 5.408.428 1.285-.428 2.357-.749 3.428-1.071.107.107.16.215.267.322-2.035 3.588-4.123 7.229-6.158 10.817l.375.375c1.178-.91 2.302-1.821 3.534-2.785.857.375 1.178.857.268 1.553-1.178.964-2.356 2.035-3.695 2.785-1.553.857-2.41.375-3.053-1.339-.321.161-.696.268-.964.536-4.016 3.427-8.729 3.427-13.548 2.784-2.892-.374-5.784-1.017-8.569-1.981-2.891-.964-5.676-.964-8.621-.696-3.053.268-6.159.053-9.265-.054-.696 0-1.446-.16-1.981-.589-.696-.535-1.66-1.392-1.607-2.035 0-.696 1.018-1.874 1.714-1.928 2.999-.321 6.051-.589 9.05-.321 2.999.268 5.944 1.178 8.943 1.714.696.107 1.607.053 2.25-.268 2.998-1.392 5.033-3.856 6.961-6.748-1.874 1.018-3.534 1.982-5.248 2.785-2.999 1.392-6.105 1.928-9.372 1.285-2.035-.428-3.802-1.338-5.194-2.945-.214-.214-.16-.643-.214-.964.321 0 .696-.053 1.017 0 .268.054.482.268.696.429 3.535 3.213 7.658 3.213 11.675 1.499 4.766-2.035 8.943-4.82 11.567-9.586 2.785-5.087 6.105-9.8 10.603-13.549 1.232-1.017 2.624-1.82 4.07-2.516.536-.268 1.66-.108 2.035.267.375.375.375 1.5.107 2.035-.696 1.393-1.5 2.892-2.57 4.017-3.106 3.373-6.427 6.533-9.64 9.8a8.542 8.542 0 00-1.338 1.767c-1.178 2.035-2.25 4.123-3.535 6.051-2.035 3.106-4.873 5.356-8.354 6.748-.535.214-1.017.482-1.553.696-.053.054-.053.214-.053.375zm17.19 1.339a45.266 45.266 0 002.356-1.018c2.677-1.231 3.695-3.856 5.034-6.212.321-.535.589-1.553.375-1.767-.59-.482-1.5-.91-2.25-.91-3.32.16-7.55 4.391-7.872 7.658-.107 1.392.643 2.249 2.357 2.249zm8.568-32.132c-5.195 2.571-7.497 7.498-10.282 12.639 3.802-2.517 10.068-10.014 10.282-12.639zm-35.558 31.328c-3.535-1.071-7.016-2.463-10.764-2.088-.643.053-1.179.643-1.821.964.535.375 1.017.964 1.606 1.071 3.642.803 7.283.642 10.979.053zm152.569.804c1.285-.911 2.624-1.768 4.016-2.731.268.214.589.481 1.071.856 5.141-9.532 10.229-18.903 15.316-28.329l-.268-.267c-.856.589-1.66 1.178-2.624 1.82-.267-.32-.589-.642-1.017-1.07 1.285-.911 2.356-1.928 3.641-2.518.804-.374 1.875-.267 2.839-.374-.054.963.16 2.034-.215 2.784-1.445 2.946-3.052 5.73-4.605 8.622-3.534 6.48-7.069 12.96-10.55 19.386-.268.428-.428.91-.535 1.499 2.088-.749 4.016-1.606 4.98-3.748 1.767-3.963 4.82-6.319 8.89-7.39 1.606-.429 3.213-.322 4.391.696 1.232-.429 2.356-.75 3.481-1.125.107.107.16.214.268.268-2.089 3.641-4.124 7.283-6.212 10.925.16.107.267.267.428.374 1.125-.91 2.249-1.82 3.534-2.838.268.214.589.429 1.232.964-1.66 1.232-3.052 2.463-4.659 3.427-1.553.911-2.41.429-2.999-1.124-1.606.482-3.159 1.178-4.82 1.446-1.927.321-3.266-.696-3.962-2.517-1.286.803-2.41 1.713-3.749 2.249-.857.321-2.089.428-2.838.053-.482-.267-.482-1.553-.75-2.409-.161.107-.535.375-.91.642-.643.482-1.286.964-1.982 1.339-1.231.643-2.624 1.553-3.856.375-1.178-1.071-.267-2.41.322-3.535 4.766-8.889 9.586-17.779 14.352-26.615.214-.428.428-.91.428-1.606-.803.589-1.553 1.178-2.517 1.82a13.95 13.95 0 01-.964-.856c.161-.215.214-.375.322-.429 1.392-.964 2.784-1.928 4.284-2.785.428-.214 1.338-.214 1.606.108.375.374.536 1.178.375 1.713-.161.803-.642 1.553-1.071 2.303-4.82 8.836-9.639 17.726-14.459 26.562-.268.535-.535 1.124-.803 1.66.321.16.482.268.589.375zm14.352-2.303c-.107 1.553.857 2.463 2.41 2.035 1.017-.268 1.981-.803 2.891-1.285 2.357-1.286 3.16-3.803 4.445-5.891.964-1.553.322-2.571-1.606-2.571-3.321 0-7.98 4.392-8.14 7.712zM98.233 86.337c-4.873-1.179-9.479-2.57-14.191-1.821-7.07 1.124-12.317 5.194-15.638 11.513-1.124 2.142-1.445 4.552.054 6.855.214.321-.054.964-.107 1.553-2.089-1.232-2.892-3.588-2.035-6.426 1.82-5.998 5.676-10.336 11.192-13.174 5.998-3.052 12.424-3.267 18.904-2.088 1.82.32 3.642.803 5.516 1.07.75.108 1.606-.053 2.303-.267 4.016-1.232 8.086-2.57 12.37-1.982.803.108 1.714.375 2.41.804.643.428 1.446 1.231 1.446 1.874 0 .59-.857 1.553-1.553 1.767-2.035.696-4.177 1.5-6.319 1.553a56.851 56.851 0 01-10.014-.589c-1.928-.268-3.32.16-4.713 1.285-3.32 2.624-5.623 6.105-7.497 9.854-1.446 2.892-2.678 5.944-4.499 8.675-4.712 7.069-11.246 11.032-19.974 10.336-2.09-.161-4.285-1.125-5.998-2.303-2.357-1.606-2.25-4.82.16-6.533-.053.857 0 1.499-.16 2.088-.536 1.821-.268 2.785 1.285 3.856 3.052 2.035 6.319 2.41 9.8 1.178 2.945-1.071 5.462-2.784 7.39-5.194 2.41-2.946 4.713-5.945 6.587-9.211 3.267-5.57 7.069-10.55 12.531-14.138.214-.053.375-.214.75-.535zm7.711-1.553c1.125.214 2.249.589 3.374.589 2.892.053 5.784-.054 8.675-.161.375 0 .75-.643 1.072-.964-.375-.268-.697-.696-1.072-.803-4.177-1.232-8.139-.322-12.049 1.339z"/><path d="M115.584 102.081c1.446-.429 2.517-.696 3.588-1.018.107.161.214.268.374.429-3.48 5.516-6.908 11.139-10.549 16.601-1.553 2.303-3.856 3.963-6.908 3.588-.804-.107-1.928-.857-2.089-1.5-.214-.803.268-1.874.803-2.677.215-.322 1.393-.482 1.768-.214.696.482.428 1.178-.375 1.66-.215.107-.482.642-.429.749.214.268.589.536.857.482.857-.16 1.982-.267 2.517-.803 1.767-1.928 3.32-4.016 4.82-6.212-5.463 1.607-6.748 1.392-8.033-1.66-1.178.857-2.25 1.767-3.481 2.517-1.82 1.071-2.624.75-3.48-1.018-1.286.482-2.518 1.125-3.857 1.393-3.266.75-5.248-1.232-4.659-4.499.697-4.23 6.855-8.996 11.193-8.568.91.107 1.82.589 2.517.803 1.178-.374 2.302-.696 3.373-1.071.054.107.161.215.215.322-2.035 3.641-4.124 7.229-6.159 10.871.107.107.268.214.375.321 1.928-1.125 3.695-2.41 4.82-4.498 1.874-3.321 4.659-5.516 8.354-6.534 2.142-.589 2.838-.428 4.445.536zm-26.723 8.515c-.107 1.553.696 2.409 2.196 2.142.964-.161 1.874-.643 2.785-1.125 2.517-1.285 3.427-3.856 4.766-6.051.91-1.553.267-2.624-1.5-2.678-3.213-.053-8.032 4.498-8.247 7.712zm18.047 1.66c.429-.161 1.232-.375 1.982-.696 2.57-1.179 4.07-3.374 5.248-5.784.321-.589.642-1.821.482-1.928-.75-.482-1.714-.964-2.571-.857-3.159.429-6.694 4.017-7.39 7.069-.214 1.446.375 2.196 2.249 2.196zm40.86-1.553c1.446-2.41 2.892-4.873 4.445-7.498-.803-.107-1.499-.16-2.196-.214-.053-1.178.429-1.82 1.661-1.606 1.338.214 2.034-.429 2.624-1.553.642-1.34 1.499-2.57 2.035-4.124-.536.482-1.179.91-1.661 1.446-.696.803-1.231.643-1.981-.321 1.285-1.018 2.517-2.142 3.909-2.945.589-.375 1.607-.108 2.41-.161 0 .803.268 1.66 0 2.356-.482 1.232-1.285 2.356-1.928 3.481-.267.482-.535 1.017-.91 1.66.803.107 1.446.161 2.088.214.215 1.232-.214 1.821-1.445 1.607-1.393-.214-2.089.375-2.732 1.553-1.446 2.624-2.999 5.141-4.337 7.872 2.356-.75 4.498-1.767 5.73-4.016 1.874-3.481 4.659-5.945 8.514-7.016.054 0 .108-.053.161-.053 1.446-.268 2.945-.536 3.909.964.697 1.071.054 2.838-1.446 4.016-2.088 1.714-4.659 2.303-7.283 2.731-1.499.268-2.195 1.018-1.927 2.249.267 1.393 1.445 1.286 2.409 1.179.857-.108 1.768-.429 2.571-.75.803-.321 1.499-.803 2.249-1.232.857.643 1.071 1.232-.053 1.714-1.928.75-3.803 1.713-5.784 2.088-2.303.429-3.427-.535-4.177-2.838-.857.643-1.714 1.339-2.624 1.874-.75.429-1.607.857-2.464 1.071-1.713.375-2.677-.642-2.142-2.409 0-.482.215-.911.375-1.339zm10.764-2.946c2.785-.535 5.195-.964 6.748-2.998.321-.375.267-1.072.428-1.607-.535-.107-1.124-.375-1.606-.214-2.357.642-3.963 2.302-5.57 4.819z"/><path d="M147.822 110.649c-1.446 1.125-2.838 2.41-4.445 3.374-1.66 1.017-2.624.589-3.267-.964-1.713.482-3.32 1.178-5.033 1.392-1.928.268-3.214-.856-3.803-2.838-.856.643-1.606 1.232-2.409 1.714-.75.428-1.5.91-2.303 1.017-.75.054-1.821-.107-2.249-.642-.375-.429-.322-1.553-.054-2.196 1.125-2.249 2.41-4.391 3.588-6.587.268-.482.482-1.017.696-1.499-.107-.107-.214-.215-.375-.322-1.124.911-2.249 1.821-3.373 2.785-1.179-.643-1.286-.75-.322-1.553 1.232-1.071 2.571-2.088 4.017-2.838.589-.321 1.874-.214 2.302.214.429.428.429 1.66.161 2.303-1.125 2.356-2.463 4.605-3.695 6.908-.268.482-.482.91-.589 1.499 2.249-.856 4.231-2.035 5.355-4.23 1.821-3.481 4.713-5.784 8.515-6.748 2.142-.535 2.785-.375 4.445.589 1.285-.375 2.409-.749 3.481-1.071.053.107.16.215.214.322l-6.105 10.764.375.374c1.178-.91 2.302-1.767 3.534-2.731.429.375.857.696 1.339.964 0 0-.054.054 0 0zm-11.514 2.142a45.124 45.124 0 002.357-1.017c2.731-1.285 3.695-4.017 5.087-6.373.268-.428.589-1.339.375-1.499-.536-.482-1.339-1.018-2.035-1.018-3.32-.053-8.086 4.606-8.194 7.872.054 1.286.643 1.982 2.41 2.035z"/><path d="M118.315 112.684c.696-.428 1.339-.75 2.035-1.232.642-.428 1.285-.963 2.088-1.606.268.321.536.643.75.91-.054.214-.054.375-.161.429-1.499 1.017-2.892 2.195-4.498 2.999-.696.321-2.035.214-2.571-.268-.428-.375-.374-1.767-.053-2.464 2.249-4.444 4.605-8.782 6.962-13.12 2.624-4.873 5.248-9.746 7.925-14.62.215-.374.322-.75.322-1.338-.857.589-1.66 1.178-2.571 1.82-.268-.267-.535-.588-.803-.856.053-.161.053-.322.107-.375 1.178-.857 2.356-1.874 3.641-2.57.697-.376 1.661-.108 2.517-.161 0 .856.215 1.82-.107 2.517-1.713 3.373-3.534 6.694-5.355 10.014-3.32 6.158-6.694 12.263-10.014 18.422-.214.375-.375.857-.536 1.285.054 0 .161.107.322.214zm17.083-20.028c-.268-.322-.857-.803-.911-1.285-.053-1.179.804-1.875 1.928-1.875.429 0 1.232.75 1.286 1.232.107 1.125-.75 1.767-2.303 1.928z"/></g><defs><clipPath id="clip0"><path fill="#fff" transform="translate(2 79)" d="M0 0h196v42.842H0z"/></clipPath></defs></svg>