<svg width="200" height="200" fill="none" xmlns="http://www.w3.org/2000/svg"><path fill="#fff" d="M0 0h200v200H0z"/><g clip-path="url(#clip0)" fill="#000"><path d="M2.26 103.395c.066-.554.099-1.109.164-1.663.293-2.642 1.044-5.088 2.707-7.175 1.859-2.348 4.337-3.718 7.175-4.468 1.76-.456 3.554-.652 5.38-.652h25.242a5006.32 5006.32 0 01-3.848 19.176 61.64 61.64 0 01-1.598-2.413c-2.674-4.044-5.348-8.12-8.055-12.165-.359-.554-.88-.815-1.566-.815h-7.663c-.718 0-1.11.326-1.24 1.043-1.402 6.816-2.772 13.665-4.174 20.481-.13.587.163.946.75.946h5.707c.587 0 1.044-.359 1.142-.979a929.55 929.55 0 011.891-9.261l.979-4.794c.032-.098.065-.196.097-.359.36.522.653.978.979 1.467 2.87 4.338 5.74 8.643 8.61 12.98.423.652 1.01.946 1.76.946h7.436c.783 0 1.207-.359 1.37-1.109 1.304-6.457 2.641-12.914 3.978-19.372.164-.848.327-1.728.522-2.576.13-.62.033-1.24-.293-1.761-1.598-2.511-3.196-5.022-4.827-7.501-.359-.554-.913-.783-1.598-.783H8.522c-.293 0-.587 0-.847-.065-.424-.065-.555-.293-.36-.685a5.96 5.96 0 01.62-.945c4.044-4.827 9.034-8.219 15.165-9.686 11.056-2.675 20.709 0 28.764 8.055 4.533 4.533 7.175 10.077 7.958 16.436 1.141 9.132-1.37 17.187-7.6 24.003-4.467 4.892-10.044 7.86-16.566 9.001-1.24.228-2.511.294-3.75.424-.098 0-.164.033-.261.065h-2.022c-.098-.032-.196-.065-.294-.065-1.174-.13-2.348-.163-3.49-.359-8.772-1.565-15.523-6.131-20.186-13.697-1.762-2.837-2.87-5.935-3.23-9.294-.032-.392-.097-.75-.13-1.142a16.558 16.558 0 01-.032-1.239zM198 116.016c-.163.065-.359.163-.522.196-.522.032-1.076 0-1.598 0-.456 0-.522-.066-.522-.522v-6.294c0-.392-.032-.816-.097-1.207-.327-1.435-1.925-1.989-3.196-1.109-.914.62-1.272 1.533-1.305 2.576-.033 1.957-.033 3.914-.033 5.871 0 .685-.032.685-.684.685h-1.403c-.489 0-.554-.066-.554-.555v-10.566c0-.457.098-.522.522-.522h1.337c.358 0 .489.13.522.489.032.294.065.587.097.946a6.63 6.63 0 01.522-.489c1.174-1.044 2.511-1.435 4.044-1.109 1.565.359 2.576 1.598 2.805 3.424 0 .098.065.228.065.326v7.86zm-27.72-10.501v-5.153c0-.294.097-.457.424-.49.619-.064 1.206-.13 1.826-.162.13 0 .261.163.359.293.065.065 0 .196 0 .294v15.295c0 .587-.033.62-.62.62h-1.109c-.391.032-.587-.131-.62-.522-.032-.294-.097-.555-.13-.913a4.283 4.283 0 01-2.022 1.467c-2.022.718-4.24-.098-5.316-2.12-1.272-2.38-1.304-4.859-.13-7.305 1.369-2.772 4.761-3.424 7.142-1.435.065.033.098.033.196.131zm.032 4.761c0-.783-.032-1.565-.391-2.283-.457-.946-1.239-1.5-2.283-1.5-1.011 0-1.761.554-2.185 1.468-.75 1.63-.718 3.293.065 4.891.424.881 1.142 1.435 2.12 1.403 1.011 0 1.728-.555 2.185-1.435.424-.815.489-1.663.489-2.544zm-65.029-4.794v-5.12c0-.293.131-.456.424-.49.587-.032 1.207-.13 1.794-.162.261-.033.391.065.424.359v15.556c0 .652 0 .652-.652.652-.359 0-.718-.033-1.044 0-.391.032-.587-.163-.62-.522-.032-.293-.098-.554-.13-.815-.391.326-.75.685-1.174.978-1.892 1.207-4.305.75-5.707-1.011-.913-1.141-1.272-2.478-1.37-3.881-.098-1.5.098-2.967.848-4.305 1.467-2.543 4.598-3.163 6.914-1.369.098-.033.163.032.293.13zm.131 4.827c-.098-1.109-.229-1.826-.555-2.446-.946-1.729-3.196-1.826-4.239-.196-.946 1.5-.88 4.109.13 5.544.815 1.142 2.283 1.435 3.327.522.391-.359.75-.848.945-1.37.196-.652.261-1.369.392-2.054zm39.102-16.796c-.489.392-.913.848-1.435 1.142-1.794 1.01-4.109.391-5.381-1.435-1.011-1.468-1.305-3.098-1.207-4.827.065-1.337.424-2.609 1.239-3.718 1.435-1.858 4.044-2.38 5.871-1.14.358.26.684.553 1.043.88.033-.261.065-.522.098-.816.033-.326.196-.489.554-.489h1.207c.326 0 .489.13.489.457v10.599c0 .554-.032.62-.587.62h-1.206c-.359.032-.49-.131-.555-.457-.032-.261-.065-.555-.13-.816zm-.098-4.337c-.065-.75-.098-1.37-.228-1.957-.229-1.239-1.044-2.022-2.088-2.152-1.043-.098-1.989.457-2.478 1.598-.652 1.598-.62 3.196.163 4.761.293.587.75 1.044 1.402 1.272 1.142.392 2.283-.163 2.74-1.435.293-.652.358-1.467.489-2.087zM92.793 84.48a12.9 12.9 0 00.13-.946c.033-.26.196-.424.49-.391h1.304c.326 0 .456.163.456.456v10.762c0 .326-.13.49-.456.457h-1.403c-.293 0-.423-.13-.456-.391a8.152 8.152 0 00-.163-.946c-.326.293-.587.62-.946.88-1.63 1.24-4.011.946-5.446-.62-.913-1.01-1.37-2.217-1.533-3.554-.196-1.663-.065-3.294.75-4.827 1.011-1.891 3.098-2.87 5.12-2.348.816.196 1.5.718 2.153 1.468zm-.196 4.37c-.13-.718-.196-1.435-.391-2.12-.294-.946-.946-1.533-1.925-1.63-1.01-.098-1.793.358-2.25 1.239-.913 1.76-.88 3.554.066 5.283.489.88 1.271 1.337 2.315 1.207.978-.13 1.565-.783 1.826-1.664.13-.75.228-1.533.359-2.315zm51.984 26.057c-.489.391-.913.848-1.435 1.142-1.696.978-4.011.391-5.283-1.305-1.044-1.402-1.37-3.033-1.305-4.729.033-1.239.294-2.413.946-3.457 1.174-1.924 3.49-2.804 5.414-1.989.652.261 1.206.783 1.826 1.174.033-.163.098-.424.098-.717.032-.327.196-.457.522-.457h1.239c.293 0 .456.098.456.424v10.795c0 .326-.163.456-.456.424h-1.402c-.327 0-.457-.163-.49-.424-.065-.326-.097-.62-.13-.881zm-.163-4.598c-.033-.489-.065-.979-.131-1.435a3.194 3.194 0 00-.26-.913c-.359-.848-.979-1.37-1.925-1.468-.913-.065-1.598.326-2.119 1.044-.555.782-.75 1.728-.75 2.674 0 1.076.163 2.152.815 3.033 1.141 1.565 3.131 1.304 3.913-.457.392-.782.457-1.63.457-2.478zm13.077-20.383c.196 2.153 1.631 3.229 3.816 2.87.685-.098 1.37-.359 2.055-.587.358-.13.554-.098.685.26.13.36.293.718.456 1.077.131.26.065.457-.196.587-2.021 1.011-4.141 1.337-6.294.522-1.304-.49-2.217-1.468-2.739-2.74-.783-1.989-.783-3.978.065-5.935.913-2.185 2.837-3.294 5.218-3.13 2.25.162 3.881 1.5 4.468 3.815.228.88.261 1.793.326 2.707.033.456-.098.554-.554.554h-7.306zm0-1.957h5.153c-.032-1.793-.978-2.87-2.478-2.935-1.435-.065-2.511 1.142-2.675 2.935zM113.11 111.32c.163 1.826 1.207 2.87 2.87 2.935a6.104 6.104 0 002.609-.489c.163-.066.326-.131.489-.229.228-.097.424-.032.522.196.196.424.359.848.522 1.305.13.326-.131.456-.359.554-1.468.75-3.033 1.011-4.664.848-1.565-.163-2.837-.881-3.75-2.218-.62-.88-.913-1.891-1.011-2.967-.13-1.533.033-3.033.783-4.403 1.043-1.892 2.967-2.87 5.25-2.609 2.185.261 3.49 1.533 4.175 3.555.326.978.391 1.956.391 2.967 0 .359-.163.522-.522.49h-6.881c-.098.065-.261.065-.424.065zm.033-1.957h5.152c-.032-1.728-.978-2.837-2.38-2.902-1.729-.098-2.609 1.304-2.772 2.902zm64.833 1.957c.13 1.924 1.402 3.033 3.261 2.935.913-.065 1.794-.261 2.642-.652.391-.163.522-.131.652.261.163.358.294.717.457 1.076.097.261.065.456-.196.587-2.022 1.011-4.142 1.337-6.294.522-1.5-.555-2.446-1.729-2.903-3.229-.554-1.826-.522-3.62.196-5.381.88-2.185 2.739-3.294 5.218-3.196 2.12.098 3.75 1.402 4.468 3.555.326 1.011.391 2.054.391 3.098 0 .359-.228.424-.522.424h-7.37zm5.153-1.957c0-1.696-.979-2.837-2.414-2.902-1.663-.098-2.576 1.337-2.706 2.902h5.12zM87.51 111.32c.065 1.826 1.402 3.033 3.13 2.935.978-.065 1.892-.261 2.74-.652.326-.163.521-.066.652.26.13.392.293.751.456 1.109.098.229.066.424-.195.555-2.055 1.011-4.175 1.369-6.392.522-1.305-.522-2.218-1.501-2.707-2.773-.783-2.087-.75-4.174.228-6.196 1.696-3.522 6.392-3.489 8.284-1.37.978 1.109 1.435 2.414 1.565 3.849.033.424.033.848.033 1.239 0 .456-.098.554-.555.554h-6.848c-.098-.032-.228-.032-.392-.032zm5.12-1.957c0-1.892-1.11-2.837-2.349-2.903-1.5-.065-2.609 1.077-2.739 2.903h5.087zm29.579-20.578c-.033 1.859-.424 3.424-1.631 4.663-1.532 1.598-3.457 1.99-5.544 1.435-2.054-.522-3.228-1.99-3.75-4.011-.359-1.337-.326-2.707.065-4.044.75-2.642 2.968-4.175 5.707-3.979 2.674.196 4.599 2.055 5.022 4.729.066.49.098.946.131 1.207zm-8.447.195c0 .88.163 1.729.587 2.511.49.881 1.207 1.37 2.251 1.37 1.043 0 1.761-.489 2.25-1.37.424-.717.587-1.5.587-2.315.033-1.076-.131-2.12-.783-3-1.076-1.5-3.196-1.435-4.207.097-.489.816-.652 1.729-.685 2.707zm-38.743 17.024c.652-.718 1.337-1.207 2.152-1.5 2.544-.913 4.925.554 5.218 3.228.066.424.066.881.066 1.338v6.587c0 .522-.066.587-.587.587h-1.533c-.457 0-.522-.065-.522-.554v-6.49c0-.261 0-.554-.065-.815-.294-1.501-1.761-2.153-3.098-1.37-1.077.652-1.435 1.696-1.468 2.87-.033 1.924 0 3.848 0 5.74 0 .587-.065.619-.62.619h-1.37c-.619 0-.652-.032-.652-.652v-10.469c0-.521.066-.587.587-.587.392 0 .816.033 1.207 0 .424-.032.554.163.587.555.033.261.065.522.098.913zm77.454-.163c.652-.424 1.239-.913 1.892-1.239 2.609-1.174 5.283.424 5.479 3.261.097 1.304.065 2.641.065 3.946v3.848c0 .457-.065.555-.555.555h-1.532c-.522 0-.555-.066-.555-.555v-6.196c0-.326 0-.685-.065-1.011-.13-.783-.457-1.435-1.272-1.663-.848-.261-1.663-.098-2.315.521-.75.718-.979 1.598-.979 2.577v5.642c0 .619-.032.652-.685.652h-1.369c-.555 0-.62-.065-.62-.587v-10.501c0-.489.065-.587.554-.587h1.37c.261 0 .424.098.424.391.098.359.131.685.163.946zM75.019 84.545c.359-.293.652-.587.978-.848 1.011-.75 2.153-1.01 3.392-.782 1.696.326 2.772 1.565 2.968 3.359.065.652.065 1.337.098 1.989v5.903c0 .554-.066.587-.62.587h-1.402c-.587 0-.62-.033-.62-.653v-6.39c0-.261 0-.522-.065-.783-.13-.75-.457-1.37-1.24-1.598-.847-.261-1.597-.098-2.25.456-.782.685-1.043 1.598-1.043 2.61V94.1c0 .588-.033.62-.62.62h-1.533c-.391 0-.522-.163-.522-.522V83.665c0-.555.066-.653.62-.653h1.207c.358-.032.521.163.554.49.033.424.065.717.098 1.043zm51.854-.065c.521-.392 1.011-.816 1.565-1.109 2.739-1.435 5.674.13 5.838 3.229.13 2.576.065 5.185.065 7.794 0 .326-.163.456-.489.456a13.61 13.61 0 00-1.631 0c-.359 0-.522-.13-.522-.489v-6.49c0-.228-.032-.456-.065-.684-.098-.783-.424-1.435-1.239-1.696-.848-.294-1.631-.13-2.283.456-.815.718-1.044 1.664-1.076 2.675v5.641c0 .587-.033.653-.653.653h-1.435c-.489 0-.521-.066-.521-.555V83.73c0-.359.13-.522.489-.49h1.402c.294 0 .457.131.489.457 0 .196.033.49.066.783zm-26.09-1.337h2.087c.619 0 .652.032.652.684v.946c.033.359-.13.522-.522.522h-2.25c0 .163-.033.294-.033.424v6.066c.066.946.457 1.272 1.403 1.141.293-.032.587-.13.88-.195.294-.066.457.032.489.326.066.424.098.848.196 1.272.033.228-.065.358-.261.456-1.141.424-2.315.555-3.49.196-1.108-.359-1.76-1.304-1.826-2.642-.032-.978-.032-1.924-.032-2.902v-8.773c0-.685.032-.685.685-.75.456-.033.88-.098 1.337-.13.554-.066.619.032.619.554v2.544c.033.032.033.098.066.26zm33.558 24.818v7.598c0 .62-.066.685-.653.685h-1.5c-.326 0-.489-.163-.489-.489v-15.36c0-.326.131-.457.457-.49a30.801 30.801 0 001.761-.163c.261-.032.391.098.424.327v7.892zm18.1-21.394v7.631c0 .555-.033.62-.587.62h-1.598c-.294 0-.424-.13-.457-.424V79.197c0-.62.065-.685.685-.75a18.6 18.6 0 001.337-.13c.554-.066.652 0 .652.554-.032 2.576-.032 5.152-.032 7.696zm-26.612 19.437c.098-.131.163-.294.293-.391.816-.783 1.794-1.272 2.936-1.338.521-.032.587.033.587.522v1.631c0 .489-.066.587-.62.522-.978-.131-1.794.195-2.413.945-.555.685-.685 1.468-.685 2.316v5.381c0 .554-.033.587-.587.587h-1.566c-.326 0-.456-.13-.456-.457v-10.729c0-.359.13-.489.489-.489h1.402c.326 0 .457.13.457.456.032.294.065.62.098.913-.033.066.032.098.065.131zm-17.056-16.991v5.283c0 .49-.033.522-.555.522h-1.598c-.358 0-.489-.13-.489-.49v-10.5c0-.294.131-.457.424-.49.587-.065 1.207-.13 1.794-.163.391-.032.424.196.424.49v5.348zm.228-8.936c0 .88-.685 1.566-1.565 1.566a1.531 1.531 0 01-1.533-1.533c0-.88.652-1.533 1.5-1.566.913 0 1.598.685 1.598 1.533z"/></g><defs><clipPath id="clip0"><path fill="#fff" transform="translate(2 70)" d="M0 0h196v59.354H0z"/></clipPath></defs></svg>