<svg width="200" height="200" fill="none" xmlns="http://www.w3.org/2000/svg"><path fill="#fff" d="M0 0h200v200H0z"/><path d="M9.127 87.988v11.78h.1C10.81 97.59 12.79 96.6 15.462 96.6c4.95 0 7.325 3.366 7.325 8.315v12.176h-6.93v-10.196c0-2.277-.296-4.752-3.167-4.752-2.772 0-3.663 2.376-3.663 4.752v10.196H2.1V87.988h7.028zm30.786 16.234c-.297-1.881-2.079-3.167-3.96-3.167-1.98 0-3.662 1.088-4.157 3.167h8.117zm6.534 4.059H31.796c0 2.87 1.485 4.454 4.356 4.454 1.484 0 2.573-.495 3.365-1.781h6.731c-1.088 4.652-5.543 6.83-9.997 6.83-6.534 0-11.384-3.762-11.384-10.592 0-6.632 4.454-10.592 10.889-10.592 6.83 0 10.69 4.257 10.69 10.988v.693zm1.979 8.81h6.93V87.988h-6.93v29.103m20.194-9.701l4.653-10.196h7.82l-10.196 19.897h-4.554L56.048 97.194h7.82l4.752 10.196zm25.837-3.168c-.297-1.881-2.08-3.167-3.96-3.167-1.98 0-3.663 1.088-4.158 3.167h8.118zm6.434 4.059h-14.65c0 2.87 1.484 4.454 4.355 4.454 1.485 0 2.574-.495 3.366-1.781h6.731c-1.089 4.652-5.543 6.83-9.998 6.83-6.533 0-11.384-3.762-11.384-10.592 0-6.632 4.455-10.592 10.889-10.592 6.83 0 10.691 4.257 10.691 10.988v.693zm10.295 8.81h-6.929v-14.057h-2.277v-5.84h2.277v-5.94h6.929v5.94h3.959v5.84h-3.959v14.057m12.176 0h-6.93V97.194h6.93v19.897zm.495-26.133c0 2.177-1.782 3.96-3.861 3.96-2.178 0-3.861-1.783-3.861-3.96 0-2.178 1.782-3.96 3.861-3.96s3.861 1.782 3.861 3.96zm8.711 16.234c0 2.475 1.683 4.454 4.454 4.454 2.871 0 4.455-1.979 4.455-4.454 0-2.475-1.683-4.455-4.455-4.455-2.771-.099-4.454 1.98-4.454 4.455zm15.739 9.899h-6.929v-2.178h-.099c-1.188 1.98-3.663 2.871-5.94 2.871-5.84 0-9.899-4.95-9.899-10.592 0-5.643 4.059-10.592 9.8-10.592 2.277 0 4.653.89 6.039 2.574v-1.98h6.929v19.897m16.828-6.83l7.821-2.079 1.682-3.96-3.464-8.117-.792 1.98-5.247 12.176zm17.522-25.441l-3.267-7.424-7.919 1.782 3.167 7.523 8.019-1.88zm-12.077 10.097l.099-.297 3.167-7.325-3.167-7.127-12.374 29.301 5.642.99 6.633-15.542z" fill="#000"/><path d="M173.747 87.295l-.197-.396-2.871-6.83-.099.099 3.167 7.127zm-.692 21.976l-6.435 1.584 11.483 2.078-1.188-2.969-3.86-.693zm-9.108 2.277l-2.177-.396h.099l-4.158-.792-2.574 6.335 26.728 4.85-3.168-7.424-14.75-2.573z" fill="#000"/><path d="M161.968 111.053l-4.257-.693 4.158.792.099-.099zm-.099.099h-.099l2.177.396-.099-.099-1.979-.297zm2.573.395l-.297-.099-.197.099 14.749 2.574v-.099l-14.255-2.475z" fill="#000"/><path d="M163.948 111.547l.197-.099h-.296l.099.099zm-.1-.099l-1.88-.396-.099.099 1.979.297zm.298 0l.296.099-.296-.099zm10.789-23.758l1.98 4.554 13.166 30.687 7.82-2.276-14.948-34.845-3.959.891-4.059.99zm4.059-.989l3.959-.89-3.959.89zm-7.325 8.117l3.959 9.305v.099l3.861 8.909 1.485 3.564 2.178 5.048 5.84 1.089-8.81-20.59-5.94-13.561-2.573 6.137z" fill="#000"/><path d="M175.628 104.222v-.099l-3.959-9.305-.099.1 4.058 9.304z" fill="#000"/><path d="M174.242 88.68v-.098l-2.672 6.137.099.1 2.573-6.138z" fill="#000"/><path d="M171.57 94.917l.099-.099-.099-.099v.198zm7.919 18.214l1.485 3.564-1.485-3.564zm9.503 9.701l-8.81-20.59 8.81 20.59z" fill="#000"/></svg>