<svg width="200" height="200" fill="none" xmlns="http://www.w3.org/2000/svg"><path fill="#fff" d="M0 0h200v200H0z"/><g clip-path="url(#clip0)" fill-rule="evenodd" clip-rule="evenodd" fill="#000"><path d="M106.121 102.417v10.308c0 3.292-2.133 4.571-4.415 4.571-2.51 0-4.322-1.599-4.322-4.258v-10.621h-4.358v10.521c0 5.702 3.668 8.211 8.744 8.211 4.763 0 8.709-2.132 8.709-8.239v-10.493h-4.358zm11.438 5.979h-3.725v12.505h3.725v-8.055c.974-1.536 1.664-2.069 2.567-2.069 1.066 0 1.848.754 1.848 2.51v7.614h3.697v-7.927c0-3.697-2.446-4.791-4.294-4.791-1.507 0-2.666.597-3.825 2.004l.007-1.791zm14.972 0h-3.697v12.505h3.697v-12.505zm13.471 9.085c-1.663.661-2.445.874-3.348.874-2.097 0-3.512-1.471-3.512-3.696 0-2.197 1.408-3.604 3.668-3.604.91 0 2.041.312 3.007.846v-2.915c-1.222-.505-2.758-.818-3.981-.818-3.888 0-6.675 2.695-6.675 6.519 0 3.889 2.694 6.455 6.832 6.455 1.251 0 2.502-.284 4.009-.846v-2.815zm14.538.32c-.874.654-1.159.718-1.407.718-.406 0-.626-.249-.626-.874v-5.673c0-2.759-2.005-3.789-4.983-3.789-1.877 0-3.605.504-5.14 1.507v3.199c1.187-1.287 2.879-2.097 4.358-2.097 1.628 0 2.132.938 2.068 2.097-4.948 1.628-7.016 2.225-7.016 5.203 0 1.564 1.407 3.072 3.291 3.072 1.287 0 2.474-.406 3.882-1.408.284 1.002.846 1.408 2.097 1.408.974 0 2.445-.505 3.476-1.159v-2.204zm-5.73.057c-.625.597-1.379.938-2.068.938-.654 0-1.188-.597-1.188-1.315 0-1.251 1.031-1.784 3.256-2.63v3.007zm11.119-9.462h-3.732v11.907c0 2.041-.562 3.043-1.913 3.256l1.188 3.569c1.876-.185 4.45-1.628 4.45-5.893v-12.839h.007zm15.135 9.405c-.874.654-1.159.718-1.408.718-.405 0-.625-.249-.625-.874v-5.673c0-2.759-2.005-3.789-4.984-3.789-1.876 0-3.604.504-5.139 1.507v3.199c1.187-1.287 2.879-2.097 4.357-2.097 1.628 0 2.133.938 2.069 2.097-4.948 1.628-7.017 2.225-7.017 5.203 0 1.564 1.408 3.072 3.292 3.072 1.287 0 2.474-.406 3.881-1.408.285 1.002.846 1.408 2.098 1.408.974 0 2.445-.505 3.476-1.159v-2.204zm-5.737.057c-.626.597-1.379.938-2.069.938-.661 0-1.187-.597-1.187-1.315 0-1.251 1.031-1.784 3.256-2.63v3.007zM19.27 127.697h161.389v2.289H19.27v-2.289zm39.476-5.012A10802.933 10802.933 0 0019.021 90.04s5.012-7.585 13.187-12.846l26.538 45.491zm-1.848-6.171C45.9 98.094 33.403 76.689 33.403 76.689s7.265-4.634 14.253-5.829l9.242 45.654zm.313-5.324c-3.384-16.828-7.742-40.543-7.742-40.543s5.893-1.13 12.405-.285l-4.663 40.828zm2.133-5.176c2.353-18.675 4.044-35.495 4.044-35.495s5.894.561 9.747 2.73c-.007 0-4.927 11.651-13.792 32.765zm2.943-2.971c8.21-19.017 12.44-29.297 12.44-29.297s3.633 1.003 7.33 4.138l-19.77 25.159zm3.54-2.353C80.365 82.362 83.03 78.573 83.03 78.573s1.25.22 4.763 4.074L65.827 100.69zm3.071-.654c17.545-14.133 20.055-16.01 20.055-16.01s2.19 2.069 3.255 4.01l-23.31 12zm6.363-1.572c12.028-6.206 17.95-8.928 17.95-8.928s.654.66 1.407 2.445l-19.357 6.483zm3.668.1c16.57-5.076 16.102-5.104 16.102-5.104s.66 1.159.66 2.004l-16.762 3.1zm47.524 3.441a3.367 3.367 0 013.355-3.384h.028a3.383 3.383 0 013.384 3.384c0 1.848-1.535 3.384-3.384 3.384a3.388 3.388 0 01-3.383-3.384zm33.81.128c0-1.941 1.564-3.512 3.476-3.512a3.507 3.507 0 013.512 3.498v.014c0 1.912-1.564 3.476-3.512 3.476a3.486 3.486 0 01-3.476-3.476z"/></g><defs><clipPath id="clip0"><path fill="#fff" transform="translate(19 70)" d="M0 0h162.085v60H0z"/></clipPath></defs></svg>