<svg width="200" height="200" fill="none" xmlns="http://www.w3.org/2000/svg"><path fill="#fff" d="M0 0h200v200H0z"/><path fill-rule="evenodd" clip-rule="evenodd" d="M164.846 119.7c-.744 0-1.833-.4-2.478-.7v-2.8h.496c.198 1.2.644 2.8 2.081 2.8.793 0 1.338-.55 1.338-1.3 0-1.95-3.915-1.5-3.915-4.15 0-1.65 1.537-2.5 2.974-2.5.792 0 1.436.25 2.13.6l-.148 2.3h-.496c-.198-.95-.495-2.2-1.685-2.2-.644 0-1.189.55-1.189 1.2 0 1.95 3.964 1.55 3.964 4.25 0 1.75-1.536 2.5-3.072 2.5zm-7.434 0c-.694 0-1.834-.4-2.478-.7v-2.8h.496c.198 1.2.694 2.8 2.131 2.8.744 0 1.289-.55 1.289-1.3 0-1.95-3.866-1.5-3.866-4.15 0-1.65 1.537-2.5 2.974-2.5.743 0 1.436.25 2.081.6l-.099 2.3h-.496c-.247-.95-.545-2.2-1.734-2.2-.644 0-1.14.55-1.14 1.2 0 1.95 3.964 1.55 3.964 4.25 0 1.75-1.585 2.5-3.122 2.5zm-1.982-37.85c-.446 0-.991.05-1.487.2V97.5c0 2.65 1.041 3.3 3.667 3.3 5.352 0 8.228-4.05 8.228-9.15 0-6.3-4.461-9.8-10.408-9.8zm-2.676 36.65c-.049.35-.198.65-.297 1h-6.889v-.55c1.338-.2 1.536-.25 1.586-1.65.05-.5.05-1 .05-1.45v-1.1c0-.45 0-.9-.05-1.35-.05-1.3-.297-1.5-1.586-1.6v-.55h6.988l-.05 2.45h-.545c-.049-.45-.099-1-.446-1.3-.496-.45-1.833-.45-2.477-.45h-.199l-.049 2.8c.346 0 1.734.05 1.982-.15.148-.1.297-.8.346-.95h.496v3.4h-.545c-.099-1-.099-1.3-1.139-1.3h-1.14v1.45c.049 1.15 0 1.6 1.337 1.6 1.537 0 2.181-1.2 2.578-2.5l.495.1c-.149.7-.248 1.45-.446 2.1zm-7.88 1.05c-.693 0-1.338 0-1.982-.15-1.834-.4-2.874-2.75-3.717-4.25.942-.25 1.685-.45 1.685-1.65s-1.09-1.6-2.082-1.7v4.1c0 1.95-.396 2.85 1.834 3.05v.55h-5.005v-.55c1.834-.25 1.586-.95 1.586-2.65v-1.1c0-.6-.05-1.15-.05-1.75 0-1.4-.297-1.5-1.585-1.7v-.5c1.189 0 2.378-.05 3.568-.05 1.437 0 3.617.3 3.617 2.2 0 1.05-.743 1.6-1.585 1.95.693 1.45 2.18 3.4 3.816 3.7v.5h-.1zm-14.223-3.3v-.55c1.239-.2 1.883-.35 1.883-1.85 0-1.45-1.387-1.95-2.626-2v3.65c0 .55.05 1.1.05 1.65.049 1.55.247 1.7 1.833 1.8v.55h-5.105v-.55c.348-.05 1.14-.15 1.388-.45.298-.4.248-2.25.248-2.8 0-.8.148-3.1-.396-3.55-.297-.2-.843-.3-1.24-.35v-.5c1.19-.05 2.38-.1 3.519-.1 1.487 0 4.163.45 4.163 2.4 0 2.2-1.982 2.55-3.717 2.65zm36.375-18.1c-2.229 2.3-5.5 3.65-8.721 3.65l-11.201.05h-.247c-.248.05-.644 0-.892 0-2.677-.05-3.717-.2-6.046-1.651-3.965-2.499-5.749-5.299-8.573-9.049 2.279 0 5.55-2.15 5.55-4.65 0-3.4-3.37-4.65-6.194-4.65h-.051c-.049 5.2-.148 10.35-.148 15.55 0 3.2 1.04 3.1 4.063 3.5v.95h-7.73c.049-5.45.198-10.85.198-16.25 0-.8 0-2.85-.695-3.45-.445-.4-1.437-.35-2.031-.35v-.9c2.676-.05 5.303-.15 7.93-.15 3.32 0 8.622.6 8.622 5.05 0 2.95-2.478 4.9-5.104 5.65 1.883 2.25 7.83 9.45 11.002 9.45 3.023 0 3.865-1.3 3.865-4.25v-10.6c0-3.2-.545-3.9-3.766-4.4v-.8c2.874-.05 5.748-.1 8.622-.1C162.666 80.75 170 82.7 170 91.3c0 2.6-1.139 5-2.974 6.85zm-47.376 14c-.546.4-2.428 3.55-2.428 4.1 0 1.85-.248 2.5 1.784 2.7v.55h-5.155v-.55c1.983-.2 1.735-.8 1.735-2.6-.396-.75-2.131-3.85-2.875-4.25-.297-.2-.743-.3-1.04-.3v-.55h4.311v.5c-.297.1-.941.15-.941.55 0 .45 1.388 2.4 1.734 2.95.248-.5 1.239-2.35 1.239-2.95 0-.4-.496-.5-.792-.55v-.5h3.518v.5c-.397.1-.793.15-1.09.4zm-9.069 1.9h-.099c-.397-2-.794-1.85-2.676-1.9v4.1c0 1.9-.248 2.45 1.734 2.7v.55h-5.055v-.55c1.338-.2 1.636-.25 1.685-1.65.049-.65.049-1.25.049-1.9 0-1.1 0-2.15-.049-3.25-1.932 0-2.28-.15-2.627 1.95l-.545-.05c.1-.95.148-1.9.199-2.8.841.05 1.685.15 2.576.15.843 0 1.636-.05 2.478-.05.893 0 1.784 0 2.627-.1 0 .15-.049.3-.049.45 0 .8.098 1.6.148 2.35h-.396zm5.848-29.2c-1.438-2.25-3.519-3.75-6.245-3.75-5.55 0-7.334 5.1-7.334 9.85 0 2.3.396 4.9 1.635 6.85 1.437 2.2 3.617 3.7 6.293 3.7 5.7 0 7.236-5.1 7.236-9.95 0-2.25-.396-4.8-1.585-6.7zm-6.047 17.75c-6.69 0-11.696-4.45-11.696-11.35 0-6.9 5.104-11.25 11.746-11.25 6.839 0 11.745 4.4 11.745 11.45 0 6.8-5.253 11.15-11.795 11.15zm-13.48 16.9v-.55c1.339-.2 1.587-.25 1.636-1.65v-1.85c0-.7.148-2.9-.347-3.3-.248-.2-.941-.35-1.288-.4v-.5h4.906v.5c-1.834.3-1.685.9-1.685 2.65v1.65c0 .35.05.7.05 1.1.049 1.45.198 1.65 1.635 1.8v.55h-4.907zm-4.559.2c-.693 0-1.833-.4-2.477-.7v-2.8h.496c.197 1.2.693 2.8 2.13 2.8.744 0 1.288-.55 1.288-1.3 0-1.95-3.865-1.5-3.865-4.15 0-1.65 1.536-2.5 2.973-2.5.744 0 1.438.25 2.082.6l-.099 2.3h-.496c-.248-.95-.545-2.2-1.734-2.2-.644 0-1.14.55-1.14 1.2 0 1.95 3.965 1.55 3.965 4.25 0 1.75-1.587 2.5-3.123 2.5zm-3.617-.15c-.644 0-1.288 0-1.933-.15-1.834-.4-2.924-2.75-3.767-4.25.942-.25 1.735-.45 1.735-1.65s-1.14-1.6-2.13-1.7v4.1c0 1.95-.397 2.85 1.833 3.05v.55h-5.006v-.55c1.884-.25 1.586-.95 1.586-2.65v-2.85c-.05-1.4-.297-1.5-1.635-1.7v-.5c1.19 0 2.379-.05 3.568-.05 1.437 0 3.617.3 3.617 2.2 0 1.05-.693 1.6-1.585 1.95.744 1.45 2.23 3.4 3.865 3.7v.5h-.148zm-11.399-.05H70.44v-.55c1.387-.2 1.586-.25 1.635-1.65v-3.9c-.05-1.3-.347-1.5-1.635-1.6v-.55h7.037l-.1 2.45h-.495c-.099-.45-.099-1-.495-1.3-.496-.45-1.784-.45-2.478-.45h-.198l-.05 2.8c.347 0 1.734.05 2.032-.15.149-.1.298-.8.347-.95h.496v.15c0 1.05-.05 2.15-.05 3.25h-.496c-.099-1-.148-1.3-1.189-1.3h-1.14l.05 1.45c0 1.15 0 1.6 1.338 1.6 1.486 0 2.131-1.2 2.528-2.5l.495.1c-.149 1.1-.397 2.05-.744 3.1zm-8.622-7.3c-.694.65-3.222 6.65-3.718 7.8h-.248l-3.022-6.95c-.396-.9-.694-1.15-1.685-1.3v-.5h4.608v.5c-.298.05-1.24.2-1.24.65 0 .65 1.637 4.2 1.983 4.85.248-.65 1.834-4.1 1.834-4.8 0-.45-1.04-.6-1.387-.7v-.5h3.914v.5c-.346.1-.792.2-1.04.45zm-14.075 7.3v-.55c1.338-.2 1.536-.25 1.586-1.65.05-.6.05-1.25.05-1.85 0-.7.099-2.9-.396-3.3-.248-.2-.943-.35-1.24-.4v-.5h4.906v.5c-1.883.3-1.685.9-1.685 2.65v1.65c0 .35 0 .7.05 1.1.05 1.45.198 1.65 1.635 1.8v.55H54.63zm41.38-34.05c-.445-3.65-3.766-3.5-6.59-3.5h-1.884v8.1h2.18c1.289 0 2.578 0 3.817-.2v5.2h-.744c-.198-3.95-1.932-3.3-5.253-3.3v5.15c0 3.7.446 3.5 3.965 4.15v.8H70.885l-5.6-8.85c-.892 1.1-3.816 5.1-3.816 6.35 0 1.1 1.536 1.45 2.33 1.75l-.05.75H54.53v-.95c3.767-.2 4.856-1.7 6.839-4.65l3.072-4.4-3.32-5.55c-1.487-2.45-3.37-4.55-6.392-4.6v-.95h6.987l5.154 8.05c.743-1.15 3.122-4.6 3.122-5.85 0-1.1-1.437-1.15-2.23-1.3v-.9h8.87v.9c-3.567.25-4.906 1.8-6.788 4.65-.744 1.2-1.487 2.35-2.28 3.55l4.36 6.85c1.338 2.1 2.974 4.2 5.7 4.2 3.122 0 6.393-.2 6.393-4.1V85.4c0-3.05-.644-3.45-3.668-3.9v-.8h16.206l.346 4.75h-.892zM52.202 112.2c-.496.5-.347 6.65-.347 7.3h-.545c-1.735-2-3.668-3.8-5.452-5.75v3.3c.05 1.7.546 1.8 2.082 1.9v.55h-4.609v-.55c1.239-.15 1.536-.45 1.586-1.65.05-.95.099-1.9.099-2.85v-1.15c0-.15-.05-.35-.05-.5-.594-.7-.941-.85-1.833-1.05v-.5h2.874c.644 1.2 3.866 4.3 5.006 5.55 0-.55.05-1.05.05-1.6s-.05-1.1-.1-1.65c-.05-1.55-.595-1.7-2.033-1.75v-.55c1.47.05 2.942.05 4.412 0v.5c-.347.05-.843.15-1.14.45zm-4.461-27.35c-1.437-2.25-3.519-3.75-6.195-3.75-5.6 0-7.384 5.05-7.384 9.85 0 2.3.396 4.9 1.685 6.85 1.437 2.15 3.618 3.65 6.244 3.65 5.749 0 7.235-5.1 7.235-9.9 0-2.25-.396-4.8-1.585-6.7zm-10.653 34.9c-2.131 0-3.568-.4-3.866-2.7-.099-1.05-.148-2.15-.297-3.2-.1-.75-.248-1.85-1.19-1.95h-.594v-.65c1.14 0 2.329 0 3.469-.05.05 1.95.148 3.95.396 5.9.1 1.2 1.04 1.75 2.132 1.75.941 0 1.832-.35 2.08-1.35.298-1.25.496-2.85.496-4.1 0-1.05-.595-1.6-1.586-1.6v-.55h4.411v.55c-4.014 0 .05 7.95-5.451 7.95zm4.656-17.15C35.006 102.6 30 98.15 30 91.2 30 84.3 35.104 80 41.745 80c6.84 0 11.745 4.35 11.745 11.4 0 6.85-5.204 11.2-11.744 11.2h-.002z" fill="#000"/></svg>