<svg width="200" height="200" fill="none" xmlns="http://www.w3.org/2000/svg"><path d="M200 0H0v200h200V0z" fill="#fff"/><path d="M31.023 65.724c2.34 0 4.557.963 5.99 2.525l-1.57 1.546c-.956-1.052-2.664-1.845-4.42-1.845-3.343 0-5.94 2.662-5.94 6.2 0 3.698 2.662 6.199 6.15 6.199 2.202 0 3.788-1.214 4.703-2.315l1.659 1.497c-1.408 1.789-3.836 3.027-6.361 3.027-4.889 0-8.49-3.577-8.49-8.417 0-4.727 3.553-8.417 8.28-8.417zm20.881 12.391H45.01l-1.71 4.209h-2.436l6.782-16.365h1.635l6.782 16.365h-2.436l-1.724-4.209zm-5.965-2.226h5.05l-2.524-6.078-2.526 6.078zm17.021-5.584v12.019h-2.339V65.95h1.643l9.817 12.026V65.951h2.34v16.373h-1.636l-9.825-12.02zm27.056 7.81h-6.895l-1.708 4.209h-2.428l6.782-16.365h1.635l6.783 16.365h-2.436l-1.733-4.209zm-5.964-2.226h5.05l-2.525-6.078-2.525 6.078zm17.028 4.209h7.244v2.226h-9.583V65.95h2.339v14.147zM21.667 98.689h156.674v2.338H21.667v-2.338zm74.007 31.572h-1.635l-4.791-7.511v11.015h-2.34v-16.364h1.635l6.313 9.979 6.313-9.979h1.635v16.364h-2.331V122.75l-4.8 7.511zm22.734-.704h-6.895l-1.708 4.208h-2.428l6.782-16.364h1.635l6.783 16.364h-2.437l-1.732-4.208zm-5.964-2.218h5.05l-2.525-6.078-2.525 6.078zm17.02-1.287v7.713h-2.339v-16.364h5.73c1.498 0 2.428.348 3.181.955a4.327 4.327 0 011.611 3.366c0 1.36-.632 2.574-1.611 3.367-.518.421-1.101.721-1.918.866l5.868 7.81h-2.833l-5.819-7.713h-1.87zm3.278-2.225c1.052 0 1.586-.235 1.967-.607.372-.373.607-.915.607-1.498 0-.582-.235-1.125-.607-1.497-.373-.372-.915-.607-1.967-.607h-3.278v4.209h3.278zm18.21-6.661c2.339 0 4.557.963 5.99 2.525l-1.571 1.546c-.955-1.052-2.662-1.845-4.419-1.845-3.342 0-5.94 2.662-5.94 6.199 0 3.699 2.663 6.2 6.151 6.2 2.201 0 3.788-1.214 4.702-2.315l1.659 1.497c-1.4 1.805-3.836 3.043-6.361 3.043-4.889 0-8.49-3.577-8.49-8.417.008-4.743 3.561-8.433 8.279-8.433zm22.945 8.886h-9.121v7.713h-2.339v-16.364h2.339v6.426h9.121v-6.426h2.331v16.364h-2.331v-7.713z" fill="#000"/></svg>