<svg width="200" height="200" fill="none" xmlns="http://www.w3.org/2000/svg"><path fill="#fff" d="M0 0h200v200H0z"/><path d="M74 99.7V48.6c0-.5.1-.6.6-.6h51c.5 0 .6.1.6.6v102.3c0 .5-.1.6-.6.6h-51c-.5 0-.6-.1-.6-.6V99.7zm36.7-42.9c0 .1.1.2.2.2.5.3.9.8 1.2 1.4.6 1.2 1 2.4 1.2 3.7.1.8.7.5 1.1.5.6 0 .3-.4.3-.7-.1-2.7-.3-5.5-.5-8.2v-.1s-.1 0-.1-.1c0-.2-.2-.2-.3-.2-.4.1-.8.1-1.2.1H83.3c-.3 0-.6-.1-.8.3-.1.3-.2.7.1 1l.1.1c.1 0 .2.1.3.1 1.4 0 2.7.3 4 .6 0 .2.1.3.4.3l.1.1c-.1.5.3.7.4 1.1.2.9.4 1.9.4 2.9v27.9c0 .3-.1.6.1.9 0 .6 0 1.2-.1 1.8-.3 1.7-1 2.4-2.7 2.8-1 .2-2 .2-3 .3-.4 1.1-.3 1.3.9 1.3h30.1c.3 0 .6.1.8-.2.6-.2.4-.8.5-1.2.2-.1.3-.3.3-.4.1-.7.4-1.3.6-2 .2-.5.5-1 .4-1.7.1-.1.1-.2.1-.4.1-.1.1-.2.1-.4.4-1.3.8-2.5 1.2-3.8 0-.1.3-.3-.1-.4-.5-.2-1 .1-1.3.5-1 1.7-2 3.3-3.3 4.7-1.3 1.4-2.9 2.4-4.8 2.6-.6-.1-1.3.1-1.9.1-3.3 0-6.6.1-9.9-.1-.8 0-1.5-.4-1.8-1.2-.3-.6-.2-1.2-.2-1.9V75.3c0-.6.2-.8.8-.8h7.2c1.8 0 3.6 0 5.3.7.3.5.6 1 1.1 1.3v.4c.3 1 .6 1.9.7 3 0 .2 0 .4.3.5.4.2.7.3 1.1-.1v-.1c.2-.2.1-.5.1-.7V66.3c0-.1 0-.2-.2-.3-.9-.3-1.1-.2-1.2.7-.1.8-.2 1.6-.5 2.4-.4 1.1-1.1 2-2.3 2.3-1 .1-2 .3-2.9.3H95c-.5 0-.7-.2-.7-.7V56.5c0-.5.2-.7.7-.7 4.8.1 9.7-.3 14.5.4.1.1.2.1.4.1.1.2.3.3.5.3.2.1.2.1.3.2zm14.5 43.5c-.2-.6-.7-.2-1-.2H75.1c-.2 0-.3 0-.4.2v.1c-.4.4-.1.8-.2 1.3V150c0 1.1 0 1.1 1.1 1.1h49.1c.2 0 .5.1.6-.3.2-.2.1-.5.1-.7v-48.9c0-.4.1-.7-.2-.9z" fill="#000"/><path d="M74.7 100.3v50.1c0 .3.1.4.4.4h49.4c.2 0 .5.1.7-.1-.1.3-.3.3-.6.3H75.5c-1.1 0-1.1 0-1.1-1.1v-48.3c.2-.5 0-.9.3-1.3zm33.6-8.1c-.7.2-1.4.2-2.1.2h-8.8c-2.5 0-3.2-.7-3.2-3.2V74.9c0-.5.1-.7.6-.7 3.3.1 6.5-.1 9.8.1 1 .1 2.1.2 3 .9-1.7-.7-3.5-.7-5.3-.7h-7.2c-.6 0-.8.2-.8.8v13.8c0 .6-.1 1.3.2 1.9.4.8 1 1.1 1.8 1.2 3.3.2 6.6.1 9.9.1.9-.1 1.5-.2 2.1-.1zm-25.7 1.3c.1 1.1.1 1.1 1.1 1.1h30.8c-.2.4-.5.2-.8.2H83.6c-1.3 0-1.4-.2-1-1.3zm42.7 6.8c-.2-.2-.5-.1-.8-.1H74.7c.1-.2.3-.2.4-.2h49.1c.4.1.9-.3 1.1.3z" fill="#000"/><path d="M125.3 150.6v-50.4c.2.2.2.5.2.7v48.9c-.1.4 0 .6-.2.8zm-18.5-79.1c-1 .4-2.1.5-3.1.5h-8.9c-.5 0-.6-.1-.6-.6v-15c0-.4 0-.6.5-.6H107c.9 0 1.8 0 2.6.5-4.8-.7-9.7-.2-14.5-.4-.5 0-.7.2-.7.7v14.5c0 .5.2.7.7.7h8.8c1 .1 2-.1 2.9-.3zM87.5 55.9c.8.9.8 2 .9 3.1.1 1.5 0 3 0 4.5v25.1c-.2-.3-.1-.6-.1-.9V59.8c0-1-.1-1.9-.4-2.9-.1-.3-.6-.5-.4-1zm26.5-2.4H83.7c-1.1 0-1.1 0-1.1 1.1-.4-.3-.2-.6-.1-1 .1-.3.5-.3.8-.3h29.3c.4 0 .8 0 1.2-.1.1.1.2.1.2.3zm-3.1 26.8V66.2c.2 0 .2.1.2.3v13.2c-.1.1-.1.4-.2.6zM82.6 54.7c1.3 0 2.5 0 3.7.4.2.1.4.1.6.3-1.3-.4-2.6-.6-4-.6-.1 0-.2-.1-.3-.1zm32.3 38.7c.4-1.4.9-2.7 1.4-4.1.1.6-.2 1.1-.4 1.7-.2.7-.5 1.3-.6 2-.1.1-.2.3-.4.4zm-6.1-16.8c.6 1 .7 2.1.8 3.2 0 .2 0 .4.1.6-.3-.1-.3-.3-.3-.5-.1-1-.3-2-.7-3 .1-.1.1-.2.1-.3zm-1.2-1.4c.5.3.9.8 1.1 1.3-.4-.3-.8-.7-1.1-1.3zm6.8 19.4c.2-.4.2-.8.5-1.2-.1.4.1 1-.5 1.2zm-4.6-14.2c.4 0 .7 0 1.1-.1-.4.4-.8.3-1.1.1zm.2-24c.2 0 .4.1.5.3-.2 0-.4 0-.5-.3zm-23.1-.9c.2 0 .3.2.4.3-.2 0-.3-.1-.4-.3zm29.4 33.8c0-.1 0-.3.1-.4 0 .2 0 .3-.1.4zm.1-.4c0-.1 0-.3.1-.4 0 .2 0 .3-.1.4zm-6.8-32.6c.1 0 .3 0 .4.1-.1.1-.3 0-.4-.1zm1.1.5c.1.1.2.1.2.2-.1-.1-.2-.1-.2-.2zm-23.3-1l.1.1c-.1 0-.1-.1-.1-.1zm23.1.9c.1 0 .1.1.2.1-.1-.1-.1-.1-.2-.1zm-31.4 69.1h-.2c-.1-.7.3-.7.8-.7h40.7c.3 0 .9-.2.9.3s-.6.3-.9.3H80.2c-.3 0-.7-.1-1.1.1zm42.4 12v.2c-.3.3-.6.2-1 .2H79.6c-.2 0-.5.1-.5-.2 0-.3.3-.2.5-.2h41.1c.2-.1.5-.1.8 0zm-21.3-25.3h20.7c.2 0 .5-.1.6.1.2.3 0 .6-.4.7H79.4c-.3 0-.7.1-.7-.5 0-.2.1-.3.3-.3h21.2zm.1.6h20.1c.3 0 1 .2 1-.2 0-.5-.6-.3-1-.3H79.9c-.3 0-.8-.2-.8.3 0 .4.5.2.8.2h20.4z" fill="#000"/><path d="M121.5 137.8c-.3-.1-.6-.1-.9-.1H79.5c-.2 0-.5-.1-.5.2 0 .3.3.2.5.2h40.9c.3 0 .7.1 1.1-.3 0 .2.1.4-.2.5H79c-.3 0-.2-.2-.2-.4s0-.4.3-.4H121c.1.1.5-.2.5.3zm-42.4-12c.4-.2.7-.1 1.1-.1h40.2c.3 0 .9.2.9-.3s-.6-.3-.9-.3H79.7c-.5 0-1 0-.8.7-.3-.6-.2-.8.4-.8h41.6c.3 0 .6-.1.6.4s-.3.4-.6.4H79.1zm29-20.5c-.4-.6-1.4-.9-2.1-.7-.1 0-.2.1-.2.2v1.4c0 .1 0 .2.1.2.4.3 1.4-.1 1.7-.6.1.6 0 1.1 0 1.6-.3-.8-.9-.6-1.5-.6-.3 0-.4.1-.3.4v.2c.1.5-.3 1.1.2 1.4.7.4 1.7-.1 2.2-.7l.1-.1c.1.9-.2 1.2-1 1.2h-2.5c.3-.3.3-.6.3-1v-2.7c0-.4.1-.9-.5-1.1 1.1 0 2.2-.1 3.2 0 .6-.1.2.5.3.9zm-24.4 11.4h1.8c-.7.2-.5.7-.5 1.2v1.9c0 .9.4 1.4 1.1 1.4.8 0 1.4-.4 1.5-1.3v-2.2c0-.4-.1-.8-.6-.9h1.4c-.5.2-.5.6-.5 1v2.2c0 1.1-.7 1.6-1.8 1.6-1.2 0-1.8-.5-1.9-1.6v-2.2c0-.5 0-.9-.5-1.1zm15.6 30c-.6.1-1.2.1-1.8 0 .5-.1.5-.4.3-.8-.2-.3-.2-.8-.8-.7h-.6c-.7 0-1 .3-1.1 1-.1.4.3.3.5.5-.4.1-.7.1-1.5 0 .5-.2.7-.7.9-1.1.5-1.2 1-2.4 1.6-3.7.3.1.3.3.4.5.5 1.1 1 2.3 1.4 3.5.1.3.3.6.7.8zm-1.9-1.8c-.3-.6-.5-1.1-.7-1.8-.3.7-.5 1.2-.8 1.8h1.5zm3.5-28.2c1 0 1.8-.1 2.6.1.6.1 1 .4 1.1 1 .1.6-.1 1-.8 1.3-.1 0-.1.1-.3.1.7.7 1 1.8 2.1 2.1-.7.3-1.2.2-1.6-.3-.3-.5-.7-.9-1-1.4-.1-.2-.3-.4-.6-.3-.3.1-.1.4-.1.5v.6c0 .5 0 .9.6 1.1H101c.6-.2.6-.7.6-1.2v-2.5c0-.7 0-.7-.7-1.1zm2.8.8l-.2-.2c-.3-.3-.7-.3-1.1-.2-.4.1-.1.5-.2.8v.8c0 .4.2.4.5.4.9-.2 1.1-.6 1-1.6.5.4.1.9.1 1.3.9-.4.7-1.2.3-1.5-.3-.3-.4-.1-.4.2zm-1.7-.3h-.2v3.7c0 .1 0 .2.2.2s.2-.1.2-.3v-.9c-.2-.8-.2-1.7-.2-2.7zm8.1 26.4c.3.9.1 1.8-.5 2.5-.7.8-1.5.8-2.4.6-.8-.1-1.5-1.2-1.5-2.2.1-.4.2-.7.1-1.1 0-.1.1-.2.1-.3.1-.1.1-.1.1-.3.2-.1.4-.3.5-.5.1 0 .2-.1.3-.2.1.1.3.1.4.2-.5.4-.6 1-.7 1.6-.2.3-.2.5 0 .8 0 .1 0 .2.1.3-.1.1-.1.3.1.4 0 .1.1.1.1.2.3.6.7.9 1.3.9.7 0 1-.4 1.2-1 .3-1 .3-2-.2-2.9.1-.1-.2-.4.1-.4l.1.1.1.1.1.1c.1 0 .1.1.2.1 0 .1.1.2.2.3 0 .4 0 .6.2.7zm-14-13.2c-.6 1.3-1.1 2.5-1.8 4-.5-1.2-1-2.2-1.5-3.2.3 0 .4.2.5.5 0 .1.1.2.2.2s.2-.2.1-.2c-.4-.6-.5-1.2-.9-1.8-.1-.1-.2-.2-.4-.1s-.2.3-.1.4c.1.2.1.4.2.6v2.5c0 .5 0 .9.7 1-.6.2-1.1.1-1.6 0 .7-.1.6-.6.6-1.1v-2.6c0-.4 0-.8-.6-.8.9-.4 1.3-.2 1.7.6.4.9.9 1.9 1.4 2.9.4-.9.8-1.8 1.2-2.6.5-1 .5-1 1.7-1-.1.3-.3.2-.5.2-.7-.4-.8-.4-.9.5zm-15.2 15.7l-.9-1.2c-.2-.2-.4-.4-.7-.3-.3.1 0 .3-.1.5v1c-.2.7-.2.7-.7.3.2-.1.2-.2.2-.4v-3.1c0-.2-.1-.4.1-.6.2-.1.4 0 .6.1-.1 0-.2 0-.2.1 0 .6-.2 1.2.1 1.7 1 .2 1.5-.3 1.5-1.2 0-.6-.5-.6-.8-.8.1 0 .2-.1.4-.1.2.1.5.1.7.2.8.4.8 1.5-.1 2-.4.2-.3.3-.1.6.4.5.7 1 1.1 1.5-.3.5-.5-.1-.8-.1-.1-.1-.2-.2-.3-.2z" fill="#000"/><path d="M81.1 146.4c.3 0 .5.6.8.1 1.4.3 1.4.3 1.4-1.2v-2.1c0-.5.1-.9-.6-1.1H86c.2 0 .3.1.3.3v.8c-.3-1-1.1-.8-1.8-.8-.4 0-.5.2-.5.5v1.3c-.4-.5-.1-1-.2-1.5 0-.2 0-.4-.2-.4-.3 0-.2.2-.2.4 0 1.2.1 2.3 0 3.5 0 .2 0 .5.2.5.3 0 .2-.2.2-.4.1-.5-.2-1.1.1-1.6v1.4c0 .4.1.6.5.6.8 0 1.7.1 2-1.1.1 1-.2 1.4-.9 1.4h-3.9c-.2-.2-.4-.3-.5-.6zm39.9-12.9c.2.3.4.5.8.6-.5.2-1.2.2-1.9.1.3-.2.7-.3.4-.8-.2-.4-.2-.9-.9-.8h-.6c-.6 0-1 .4-1.1 1 0 .4.3.3.5.5-.4.2-.8.2-1.5 0 .5-.2.7-.7.9-1.1.5-1.1.9-2.1 1.4-3.1.1-.1.1-.3.3-.3.2 0 .3.2.3.3.3.8.7 1.6 1 2.4l-.1.1c-.2-.1-.1-.5-.4-.3-.2.2-.1.4 0 .5.1.2.2.3.4.4v.5c0 .2 0 .4.2.4.3 0 .3-.2.3-.4zm-1.9-2.9c-.2.2-.3.5-.4.7-.5 1.1-.4 1.1.7 1 .3 0 .3-.1.2-.4-.1-.4-.3-.8-.5-1.3zm-22.4-9.5h.6c1.2 0 1.2 0 1.9-.9.2.7-.1 1.2-.8 1.2-1 0-2 0-3-.1.7-.2.6-.7.6-1.2v-2.6c0-.4 0-.7-.7-.8.4-.2.7-.1.9-.2h1.9c.9 0 .9 0 .8 1.2-.3-1.2-1.2-.9-1.9-.9-.2 0-.4 0-.4.2v1.4c0 .1 0 .1.1.2.5.2 1.4-.1 1.7-.6v1.6c-.3-.3-.3-.6-.7-.7-1.1-.2-1.2-.1-1.2 1 .2.6.2.9.2 1.2-.2-.2-.2-.5-.2-.8v-3c0-.2 0-.4-.3-.4s-.2.3-.2.4v3.5c0 .2 0 .4.2.5.2.1.4 0 .5-.2zm-14 9.8c.6 1.6-.2 3-1.9 3.3-.2 0-.4.1-.7.1-.7 0-1.3 0-2-.1.8-.2.6-.8.6-1.3v-2.4c0-.4.1-.9-.6-1 1.1 0 2.2-.2 3.2.1.5.1.9.4 1.1.8-.2-.2-.4-.4-.7-.5-.3-.2-.4-.1-.4.2-.4-.4-.9-.5-1.5-.4-.3 0-.4.1-.4.4v3.3c0 .3.1.4.4.4.8.1 1.5-.2 2-.9 0 .1-.1.3.1.4.1 0 .2-.1.3-.2.6-.6.6-1.4.5-2.2zm-3.3.9v-1.7c0-.2.1-.5-.2-.5-.3 0-.2.3-.2.5 0 1.2.2 2.4 0 3.6 0 .2 0 .3.3.3.2 0 .2-.2.2-.3-.1-.6-.1-1.2-.1-1.9zm-.1-25.5h.8c.5 0 .9 0 1-.6.1.5.1 1 .1 1.6-.4-.6-1-.8-1.6-.6-.2.1-.2.2-.2.4v1c0 .7.1.8.8.8.6-.1 1.2-.2 1.6-.9.1.8 0 1.1-.7 1.1h-2.8s-.1 0-.2-.1c.6 0 .6-.4.6-.8v-2.8c0-.4 0-.8-.5-1 1.1 0 2.2-.1 3.3 0 .6.1.2.6.3 1-.5-1.2-1.5-.7-2.3-.7 0-.3-.2-.2-.3-.2-.2 0-.3.2-.3.4v3.5c0 .2 0 .4.2.4.3 0 .2-.3.2-.4-.2-.7-.3-1.4 0-2.1-.1.1 0 0 0 0zM90 142.8c-.1-.2-.2-.3-.4-.5.2-.1.5-.2.7-.2.8 1 1.6 2 2.5 3 .1.1.1.4.4.2.2.4.4.9-.1 1.2-.9-1.1-1.8-2.2-2.8-3.3-.4.2.1.8-.3 1v-1.4c0 .1.1 0 0 0zm24.6-.8h1.8c-.6.2-.6.6-.6 1.1v2.7c0 .4 0 .8.6.9h-1.8c.5-.1.6-.5.6-1V143c0-.4 0-.8-.6-1zm.2-34.3c.1.5-.1.8-.2 1.2 0 .1-.2.2-.3.2-1.1 0-2.2 0-3.4-.1.6-.1.6-.5.6-.9v-2.7c0-.4 0-.8-.5-1h1.9c-.9.2-.7.9-.7 1.5v2.3c0 .4.1.6.6.6.8-.1 1.6 0 2-1.1zm-3.2-.9v1.5c0 .2-.1.5.2.5.3 0 .2-.3.2-.4 0-1.1.2-2.2 0-3.4 0-.2.3-.5-.1-.5-.4-.1-.4.3-.4.6.1.5.1 1.1.1 1.7zm-4.6 14.7c.6-.1.6-.5.6-.9v-2.7c0-.7 0-.7-.6-1 .5-.1 1.2-.1 2 0-.8.1-.7.6-.7 1.1v2.6c0 .4 0 .8.6 1-.6-.1-1.3-.1-1.9-.1zm5 22.6h.6c.4 0 .8-.1.9-.6.1.5.1 1 .1 1.7-.2-.4-.2-.7-.6-.7-.8-.1-1 0-1 .8v.5c0 .4 0 .8.6.9-.6.1-1.3.1-1.9 0 .6-.1.6-.4.6-.9V143c0-.7 0-.7-.7-1h3.3c.3 0 .3.1.3.3v.7c-.4-1.1-1.4-.7-2.1-.8-.3-.1-.6-.2-.6.3v3.6c0 .3.2.5.5.5-.1-.8-.3-1.7 0-2.5zm8.4-36.5c.3.4.3 1.1 1 1.4h-1.7c.3-.1.5-.4.3-.7-.2-.3-.1-.9-.7-.8h-.7c-.6-.1-.9.2-1.1.7-.1.4-.1.6.4.7-.5.1-.9.1-1.6 0 .6-.2.8-.6.9-.9.5-1.1 1-2.2 1.4-3.3v.7c-.1.2-.2.4-.2.6-.1.4-.6.8-.3 1.1.3.4.9.1 1.3.1.2.1.3.3.4.5.3.4.5.2.6-.1zm.2.9c0-.1-.1-.2-.2-.3-.1 0-.2.1-.2.2s0 .3.2.3c.1.1.2 0 .2-.2zm-.9 9.1c-.2-.2-.3-.5-.6-.5-.6-.1-.8 0-.8.6v1.9c-.2 0-.1-.2-.1-.3-.1-.8-.1-1.6-.1-2.5-.3.2-.3.5-.3.7v2.3c0 .4.1.9-.2 1.3v-3.6c0-.4-.2-.6-.5-.7h2.3c.8.1 1.3.5 1.3 1.1.1.6-.3 1-1.1 1.3l-.3-.3c.1-.3.5-.3.6-.6 0 .1-.1.3.1.4.1.1.2-.1.3-.2.4-.7.2-1.1-.6-1.5v.6c.1 0 0 0 0 0zm-15.3 28c-.4-.6-1-.8-1.6-1.2-.8-.5-1.1-1-.7-1.8.2 0 .3.1.4.2 0 .4.1.6.5.8.4.2.9.5 1.3.7.9.5 1 1.6.2 2.3-.1 0-.2-.1-.3-.2.4-.2.5-.4.2-.8zm15.2-2.9c0 .1.1.2.1.2 0 .1 0 .3.1.4 0 .2 0 .3.2.4 0 .1 0 .2.1.3.3.7.6 1.3.8 2 .2.4.3.7.9.9-.7.1-1.2.1-1.9.1.5-.3.3-.7.2-1 0-.2 0-.3-.2-.4 0-.2-.1-.3-.2-.4-.2-.6-.4-1.2-.8-1.7v-.7c.4-.6.5-.3.7-.1zm-38.4-22.3c-.2-.5-.7-.7-1.1-.9-.4-.2-.7-.4-1-.7-.4-.4-.5-.9-.2-1.4.3.1.2.4.4.5.3.5.8.7 1.2.9.3.2.6.3.9.6l.1.1c0 .2.1.3.3.4.1.4-.1.9-.2 1.3-.4-.2-.3-.6-.4-.8zm17.4-12.1c.5.5 1.1.6 1.7.4.6-.3.8-.8.7-1.4v-2c0-.4 0-.8-.6-.8.5-.2 1-.1 1.6-.1-.9.4-.6 1.2-.6 1.8v1.3c0 .9-.4 1.4-1.1 1.6-1 .3-1.9 0-2.3-.7.2-.1.5.4.6-.1zm6.6 22.7c.6.2 1.2.5 1.7.9.8.6.8 1.3.2 2l-.1.1c-.1-.1-.4.3-.5-.1.6-.5.5-.9-.1-1.4-.6-.4-1.3-.6-1.7-1.2 0-.3-.2-.5 0-.8.2.1.3.5.5.5zm-20.8-1.5h2.3c.9 0 .9 0 .8 1.1-.2-.4-.3-.8-.8-.8h-1.2c-.1 0-.2.1-.2.2v1.4c0 .1.1.2.2.2.5.2 1.3-.1 1.6-.7v1.7c-.2-.3-.2-.6-.7-.7-1.1-.1-1.2-.1-1.2 1v.4c-.2-.2-.2-.4-.1-.6.2-.8-.1-1.6 0-2.4 0-.5-.1-.8-.7-.8zm15.5 4.1c.5.4 1.1.5 1.7.2.6-.3.6-.9.7-1.4v-1.8c0-.5 0-.9-.6-1h1.5c-.7.2-.6.7-.6 1.2v1.8c0 .7-.2 1.4-1 1.6-.8.3-1.7.3-2.3-.4l.1-.1c.2.2.4.1.5-.1zm-8.3-24.8c-1.4-1-1.6-2.7-.4-4h.4c0 .2-.1.3-.1.5-.4.7-.4 2.1 0 2.6 0 .1.1.1.1.2s.1.2.2.2l.1.1c0 .1.1.2.2.2 0 .1.2.2.2.4-.3-.1-.5-.2-.7-.2zm18.5 20.9c0 .1-.1.1 0 0-.4.5-.2 1.1-.2 1.7 0 .8-.2 1.6.1 2.4-.2.6-.5.3-.8.1 0-1.3 0-2.5.1-3.8.1-.1.2-.2-.1-.2.3-.5.6-.1.9-.2z" fill="#000"/><path d="M119 142.5v.7c-.2.5-.4 1.1-.7 1.7h1.5c.1.1.2.2.2.4-.5-.2-1.1-.1-1.6-.1s-.5.6-.6 1c-.1.3.3.3.5.5-.5.2-1 0-1.5 0 .5-.3.6-.8.8-1.2.5-1 1-2 1.4-3zm-34.6-13c.5 0 .7.3.7.9-.1.8.1 1.6 0 2.4 0 .2 0 .4.1.6v.5c-.1.2-.2.4-.5.3-.3-.1-.2-.3-.2-.5v-3.1c0-.3 0-.6-.2-.8 0-.2 0-.3.1-.3 0 0 0-.1 0 0zm4 12.8v.3c-.1.2-.1.5-.1.7v2.8c0 .2 0 .4-.2.4-.2.1-.3-.1-.4-.3.2-1.2.2-2.5 0-3.7 0-.1-.1-.2-.1-.3.2-.1.5-.1.8.1zm23.6 1.8c-.3.8-.1 1.6-.1 2.5-.3 0-.5-.1-.5-.5v-3.6c0-.5.3-.4.6-.3v1.9zm.4-10.3c-.8-.8-1-1.8-.6-2.9 0-.1.1-.2.1-.3.2-.1.3-.3.5-.4.1-.1.3-.3.4 0-.3.3-.2.7-.4 1-.2.6-.3 1.3.1 1.8 0 .2.1.3.2.4.1.2 0 .3-.3.4zm-16.3-3.4c.1-.9.2-.9.8-.7v.2c-.2.3-.4.6 0 .9v.2c-.2.1-.2.3-.2.5.1.6.1 1.3.1 1.9 0 .6-.1.7-.7.5 0-.1.1-.2.1-.2.2-1 .2-2 0-3.1 0 0-.1-.1-.1-.2zm-11.2-24.2c-.5-.4-.4-1-.1-1.4.4-.5.9-.7 1.5-.6.3 0 .7.5 1.1-.1.1.6.1 1.2 0 1.8-.1-.3-.2-.5-.2-.7-.2-.5-.6-.8-1.2-.8-.3 0-.6.2-.7.5-.2.4.1.6.3.9-.3.2-.3 0-.4-.2-.1-.2-.1-.4-.3-.5-.2.4 0 .7 0 1.1zm8.1 13c-.5.3-1 .2-1.6.1-.2-.2-.2-.4-.2-.6v-1.1c0-.2.1-.6-.2-.6-.3 0-.2.4-.2.6v2c0 .4.1.9-.1 1.3v-3.2c0-.4-.1-.7-.6-.9 1.1.1 2.3-.4 3.2.5l-.1.1c-.2-.1-.4-.3-.7-.3 0 .1.1.3.1.4-.1-.1-.2-.1-.2-.2-.3-.2-.6-.3-.9-.1-.3.1-.1.4-.1.7v.7c-.1.5.2.6.6.6.3 0 .5-.2.7-.4 0 .1 0 .3.3.4zm18.6 2c-.1-.2-.2-.3-.4-.4 0-.1-.1-.2-.2-.2-.3-.9-.4-1.7-.2-2.6.1-.1.2-.2.2-.3.2 0 .6-.5.6.2-.1.1-.1.2-.1.3-.1.9-.1 1.7.2 2.5 0 .1.2.4-.1.5zm-6.4 9.8c-.3 0-.3-.4-.5-.5-.2.3 0 .5 0 .8-.4-.4-.3-.9-.1-1.4.3-.5 1-.7 1.6-.6.7.2.7.2 1.1 0v1.5c-.4-.8-.8-1.6-1.9-1.1-.6.4-.3.9-.2 1.3zM84 144.5c-.3.5-.1 1.1-.1 1.6 0 .2.1.5-.2.4-.3 0-.3-.2-.2-.5.1-1.2.1-2.3 0-3.5 0-.1-.1-.4.2-.4.2 0 .2.2.2.4.1.5-.2 1.1.2 1.5.1 0 .1 0 .2.1 0 .1-.1.2-.1.2l-.2.2zm14.6-36.2c-.2.5-.4 0-.6.1-.2-.2-.1-.4-.1-.6 0-1 .1-1.9-.1-2.9v-.2c.2-.5.5-.2.8-.1-.2.1-.2.3-.2.5 0 .9-.1 1.7.1 2.6 0 .2.1.4.1.6z" fill="#000"/><path d="M90.7 120.9c.2-.4.1-.9.1-1.3v-2c0-.2-.1-.6.2-.6.3 0 .2.4.2.6v1.1c0 .2 0 .5.2.6v1.4c-.1 0-.2.1-.2.2 0 .5-.2.3-.5.2v-.2zm27.9-15.5v-.7c.1-.3.2-.6.5-.1.3.4.2.8.5 1.2 0 .1 0 .2.1.3 0 .4 0 .7.4.9 0 .2 0 .5.3.6-.1.3-.3.5-.5.1-.1-.2-.3-.3-.4-.5-.1-.3-.2-.5-.2-.8 0-.1-.1-.1-.1-.2 0-.3 0-.5-.3-.7l-.1-.1h-.2zm-33.7.8c-.1-.4-.2-.7 0-1.1.2.1.2.3.3.5.1.2.1.4.4.2.1.1.2.1.2.2.4.4.8.8 1.5.9 0 .2.2.4.4.5 0 .3-.1.6-.2.9-.1.2-.2.3-.4 0 .3-.3.2-.5 0-.8-.4-.5-.8-.8-1.4-.8-.1-.4-.5-.4-.8-.5zm14.5 27.6c-.4-.4-.4-.9-.4-1.3v-2c0-.4 0-.8-.6-1h1.8c-.7.2-.6.8-.6 1.3 0 .9-.1 1.8.2 2.7-.4-.2-.3-.5-.3-.9v-2.5c0-.1.1-.4-.2-.4-.2 0-.2.2-.2.3.1 1.3-.1 2.5.3 3.8 0-.1 0 0 0 0zm-20.1-16c-.2-.1-.1-.4-.4-.5.5-.7 1-.8 1.9-.6.3.1.5.2.7-.2.1.6.1 1.1 0 1.6-.3-.7-.6-1.4-1.5-1.2-.5.1-.7.4-.7.9zm12.2-12.4c0-.2.1-.3.1-.5h-.4c.7-.7 1.5-.9 2.5-.5.3.1.6.2.9-.1 0 .5 0 1 .1 1.5-.4-.5-.7-1.1-1.5-1.2-.8-.2-1.3.2-1.7.8zm21.4 24.8c-.1-.3-.3-.1-.4 0-.2.1-.3.4-.5.4.5-1.1 1.7-1.6 2.9-1.1.3.1.5.2.8-.3v1.5c-.4-.5-.6-1-1.2-1.1-.7 0-1.2.2-1.6.6zm-10.4 12.7c-.1-.2-.2-.2-.4-.2.4-.7 1-.9 1.8-.6.3.1.5.3.8-.1.1.5.1 1.1 0 1.7-.3-.7-.5-1.4-1.4-1.4-.4 0-.6.2-.8.6zm-9.3 3.6c.5-.4.3-.8.1-1.2V143c0-.3.1-.6-.2-.8h1c-.4.3-.4.7-.4 1.1v3.3c0 .1.1.4-.1.4-.3-.2-.4-.3-.4-.5zm24.3-25.4c.3-.4.2-.8.2-1.3v-2.3c0-.2-.1-.5.3-.7 0 .9 0 1.7.1 2.5 0 .1 0 .2.1.3-.1.5-.2 1.1 0 1.6-.3.2-.6.2-.9 0 .1 0 .2 0 .2-.1zm-36.3-.7c0 .3 0 .6.3.7-.5.6-1.2.6-1.8.4-.3-.1-.6-.2-.9.1-.1-.6-.1-1.1 0-1.6.3.8.8 1.4 1.7 1.3.5-.1.7-.4.7-.9zm30.4-2.6c0-.7-.4-.2-.6-.2.5-.8 1.2-1.1 2-1 .9.1 1.6.4 1.9 1.3h-.1l-.4-.4c-.3-.3-.3 0-.3.2-.8-1.1-1.7-1.1-2.5.1z" fill="#000"/><path d="M99.4 133.7c-.5-1.2-.3-2.4-.3-3.7 0-.1 0-.3.2-.3.3 0 .2.2.2.4v2.5c0 .3 0 .7.3.9l.1.1c-.1.2-.3.3-.5.1zm-14.8-.1c.1.2-.1.4.2.5.2.1.4-.1.5-.3.9.2 1.7.2 2.5-.5 0 .7-.2 1-.9.9-1-.1-2 0-3-.1.3-.1.6-.2.7-.5zm2.5-25.3c.1.2.3.2.4 0 .1-.3.2-.6.2-.9.3 1-.3 1.8-1.4 1.8-.5 0-.9-.1-1.3-.3-.5-.2-.3-.6-.1-.9.7 1 1.5 1.1 2.2.3zm2.9 35.9c.4-.2 0-.8.3-1v2.7c0 .4 0 .8.6.8-.5.2-1 .1-1.6.1.6-.1.6-.5.6-1 .1-.6.1-1.1.1-1.6zm16.5-10.3c.1.4.3 0 .5.1-.5.4-1.1.4-1.6.2-.3-.1-.7-.3-1 .3v-1.8c.4.8 1 1.6 2.1 1.2zm13.3-14.2c.2.3.4.5.6.8.3.4.6.8 1.3.8-.8.4-1.3.3-1.7-.3-.2-.3-.4-.5-.6-.8.5.1.4-.2.4-.5zm-40.4 22.7c-.2-.2-.4-.3-.6-.1-.2.1-.1.4-.1.6v3.1c0 .2 0 .3-.2.4v-3.5c0-.5-.2-.6-.6-.8.8 0 1.6-.2 2.3.1-.1 0-.2.1-.4.1-.1 0-.2 0-.4.1zm33-8.6c.2 0 .4-.1.4-.4 1 .8 1.7.8 2.8-.1 0 .4-.3.7-.8.9-.8.3-1.6.2-2.4-.4zm-8.2 12.6c0 .1.1.2.3.2-.5.4-1.1.3-1.6.2-.3-.1-.6-.2-.9.1v-1.6c.3.5.5 1 1.1 1.2.4.1.8.1 1.1-.1zm-11.7-15.7c-.1-.2-.1-.4-.2-.6 0-.2-.1-.3.1-.4.2-.1.3 0 .4.1.3.6.5 1.3.9 1.8.1.1 0 .2-.1.2s-.2-.1-.2-.2c0-.3-.2-.4-.5-.5-.1-.2-.1-.4-.2-.6-.2-.2-.2.1-.2.2zm19.1-9.5c.3-.1.1-.3.1-.5.7.8 1.3.9 2.2.3.3.2.5-.2.7-.3h.1c-.8 1-2 1.2-3.1.5zm-20-12.4c.2 0 .4.1.6.1.1-.2-.1-.2-.2-.4 1 .4 1.9.2 2.5-.8 0 1.3-1.6 1.8-2.9 1.1zm-7.5 35.6c0-.1.1-.2.1-.2h.6c.7 0 .7 0 1.1-.7v1.6c-.3-1-1.2-.5-1.8-.7zm3.6 2c.1.1.2.4.4.3.2-.1.2-.3.2-.4v-2.8c0-.2 0-.5.1-.7v3.3c0 .4 0 .8.6.8h-1.9c.2-.4.4-.3.6-.5zM96 134c.6.2.7.1.7-.5s0-1.3-.1-1.9c0-.2-.1-.4.2-.5v2.3c0 .4 0 .8.6.9h-1.9c.2-.4.4-.3.5-.3zm13.1 8.3c-.4 0-.1.3-.1.4-.5-.5-1.2-.6-1.8-.3-.1 0-.3-.1-.4-.2.8-.4 1.5-.4 2.3.1zm7.3-1.8c-.4.5-.7.8-1.1 1.3.1-1.2.2-1.4 1.1-1.3zm-18-32.8c-.2-.8-.1-1.7-.1-2.6 0-.2.1-.4.2-.5v2.6c0 .2.1.4-.1.5zm-7.7 13.4c.2.2.5.3.5-.2 0-.1 0-.2.2-.2.1.4.2.7.7.8h-1.9c.1-.3.4-.2.5-.4z" fill="#000"/><path d="M119.8 119.7c.1.3.2.6-.3.6 0-.1-.1-.2-.2-.3l-.1-.1c0-.1-.1-.2-.2-.2 0-.1-.1-.1-.1-.2l-.1-.1v-.2c.2 0 .3-.1.4-.2h.1c.1 0 .3.1.3.3v.1c-.2.1 0 .2.2.3zm-19.2 9.6c.2-1.3.2-1.4 1.1-1.3-.3.4-.7.8-1.1 1.3zm-12.2 13c-.3-.2-.6-.2-.9 0-.2 0-.4 0-.5-.2h3.3c-.2.1-.5.2-.7.2-.4-.2-.8-.1-1.2 0zm-9.9 4.1c.5.4.6.4.7-.3.2.4.2.4.7.6h-1.7c.1-.1.3-.1.3-.3zm36.4-28.5c.5 1 .4 1.9-.2 2.8h-.1c.4-.9.6-1.8.3-2.8 0 .1 0 .1 0 0zm-29.2-11.2c.6 0 1.1.3 1.4.8.2.2.3.5 0 .8.1-.5-.2-.8-.6-1-.3-.2-.5-.4-.8-.6zm23.5 27.2c.3.2.6.5.8-.1.1.2.4.3.6.4h-2.1c.4-.2.6-.3.7-.3zm-10.7-29.3c-.3-.1-.6-.4-.8.1-.1-.2-.4-.2-.6-.4.7-.1 1.3-.1 2 0l-.6.3zm11.5 29.1c-.3-.8-.1-1.6-.1-2.4 0-.5-.2-1.1.2-1.6-.1 1.4-.1 2.7-.1 4zm.1-4c-.3 0-.6-.3-.9.1-.2-.1-.4-.2-.6-.2v-.1h1.9c0 .2-.3.1-.4.2zm-22.4 12.9c.2 1.2.2 2.5 0 3.7v-3.7zm23.2-24.6c-.2.9-.1 1.8.2 2.6-.6-.8-.7-1.7-.2-2.6zm6.5 3.3c.3.1.6.1.9 0 .2 0 .4 0 .6.1-.6.3-1.3.2-1.9.2 0-.5.3-.1.4-.3zm-21.2 9.4c.2 1 .2 2 0 3.1v-3.1zm-4.7-22.8c-.4-.5-.5-1.8 0-2.6-.2.9-.3 1.8 0 2.6zm-4.2-1.1c-.6 0-1.1-.5-1.5-.9.5.3 1.1.5 1.5.9zm10.5-1.9c.2.9.1 1.9.1 2.9-.3-1-.1-2-.1-2.9zm-18.5-.3v1.7c-.4-.5-.3-1.1 0-1.7zm14.1 12.7c.4.5.4.9.1 1.4h-.1c.2-.5.1-.9 0-1.4-.1 0 0 0 0 0zm19.2 15.7c-.5-.6-.3-1.2-.1-1.8 0 .6-.1 1.2.1 1.8zm8-.7c.2.4.3.8.5 1.1h-.1c-.2-.1-.2-.5-.5-.5 0-.1 0-.3.1-.6-.1.1-.1.1 0 0zm-1 10.4c-.2-.1-.3-.5-.6-.1 0-.2.1-.4.3-.6.2.1.3.4.3.7zm-38.1-21.6c.1-.4.3-.8.2-1.3.3.5.2.9-.2 1.3zm3.5-14.9c.3.1.7.1.7.5-.3-.1-.6-.2-.7-.5zm11.9 24.6c-.3-.3-.2-.6 0-.9v.9zm23.2-23.8c-.3-.2-.4-.5-.4-.9.2.2.4.5.4.9zm-14.3 36.5c.1.4-.1.7-.1 1.1-.1-.4-.1-.8.1-1.1zm-1.4 2.1c.2.3.2.6-.2.7.2-.2.3-.4.2-.7zm-10.9-26.9c-.1.2-.2.4-.5.5v-.1c.1-.1.3-.3.5-.4zm-9.2 10.8v.2c-.2 0-.3 0-.4-.1.1-.2.3-.2.4-.1zm22.2 13c-.1.3-.2.4-.5.5.1-.2.3-.4.5-.5zm13.9-34.9c-.2-.1-.3-.4-.3-.6.2.1.2.3.3.6zm-32.7-.3c-.2-.1-.3-.3-.4-.5.2.1.3.3.4.5zm22.4 36.3c-.2-.2-.3-.4-.3-.6.2.2.3.4.3.6zm9.6-25.3v-.7h.1c.1.2.1.5-.1.7.1 0 0 0 0 0z" fill="#000"/><path d="M119.8 119.7c-.1-.1-.3-.1-.3-.4.1.1.2.2.3.4zm-.7-.8c-.1.1-.2.2-.4.2.1-.2.3-.1.4-.2zm-36.6 11.5c.2.1.2.3.2.5-.1-.1-.2-.3-.2-.5zm30.3 3c-.2-.1-.3-.2-.2-.4.1.1.2.3.2.4zm-31.1-13.6c-.2-.1-.2-.2-.3-.4.2.1.3.2.3.4zm38.3 25.5c.2.1.2.2.2.4 0-.1-.1-.3-.2-.4zm-10.8-15.5c.2 0 .2.1.1.2 0 0 0-.1-.1-.2zm10.6-23.7c-.1-.1-.1-.2-.1-.3 0 .1.1.2.1.3zm-13 36.2c-.1.1-.2.2-.3.2.1-.1.1-.2.3-.2zm4.2-24.7c0 .1 0 .2-.2.3.1-.1.2-.2.2-.3zm.2 3.2c.1 0 .2.1.3.3-.2-.1-.2-.2-.3-.3zm8-.9c.1 0 .2.1.2.3-.1-.1-.1-.2-.2-.3zm-38.3 26.2c.1.1.2.2.2.3-.1-.1-.2-.2-.2-.3zm39.1-2.5c-.1-.1-.2-.2-.2-.4.2.1.2.3.2.4zm-10.1-.6c-.1-.1-.2-.2-.2-.3.1.1.1.2.2.3z" fill="#000"/><path d="M119.9 143.3c-.1-.1-.2-.2-.1-.4 0 .1.1.2.1.4zm.3.6c-.1-.1-.1-.2-.1-.3 0 .1 0 .2.1.3zm-28.1-35.3c-.1 0-.2-.1-.2-.2.1 0 .1.1.2.2zm18.9 12c.1 0 .2.1.2.2-.1 0-.1-.1-.2-.2zm1 10c0 .1-.1.2-.1.3-.1-.1 0-.2.1-.3zm7-11c.1 0 .2.1.2.2l-.2-.2zm-27.2-11.3c-.1 0-.2-.1-.2-.2.1 0 .1.1.2.2zm14.1 34.9c0 .1-.1.2-.1.3 0-.1 0-.2.1-.3zm.1-.2c0 .1 0 .2-.1.3 0-.2 0-.2.1-.3zm13.7-.1c0-.1-.1-.1-.1-.2.1 0 .1.1.1.2zm-29.6.4c0 .1 0 .1 0 0-.1 0-.1 0 0 0zm-.1-.5c.1 0 0 .1 0 0zm19.7-.1c-.1 0-.1-.1-.2-.1.1 0 .1.1.2.1zm-.2-.1c-.1-.1 0 0 0 0zm-.1-.1c-.1-.1 0-.1 0 0zm-.1-.1c-.1-.1-.1 0 0 0zM90 143.8c.1 0 .1 0 0 0 0 .1 0 .1 0 0zm1.6-35.7c0-.1-.1-.1-.1-.2 0 .1.1.1.1.2zm-10.1 11.3c-.1-.1-.1 0 0 0zm37.6.4c.1.1.1.1 0 0zm-.2-.4c0 .1.1.1.1.2-.1-.1-.1-.1-.1-.2zm-18.6-6.3H79.9c-.3 0-.8.2-.8-.2 0-.5.5-.3.8-.3h40.5c.3 0 1-.2 1 .3 0 .4-.6.2-1 .2h-20.1zm1.7 4.1c0 .9.1 1.9.1 2.8v.9c0 .1 0 .3-.2.3-.1 0-.2-.1-.2-.2v-3.7c.1-.1.2-.1.3-.1zm1.7.3c0-.3.1-.4.4-.2.4.3.6 1.1-.3 1.5 0-.4.4-.9-.1-1.3zm2.7 26.5v.8c-.2-.2-.2-.5 0-.8zm.1 1.1c0 .1 0 .3.1.4-.2-.1-.2-.3-.1-.4zm-27.3-2.6c.2.6.1 1.2.1 1.7-.3-.5-.1-1.1-.1-1.7zm41.3-10.1v.6c-.2 0-.3-.2-.4-.4-.1-.2-.3-.4 0-.5.3-.2.2.2.4.3zm0 .6c.3 0 .2.4.5.5 0 .2 0 .4-.2.4-.3 0-.2-.3-.2-.4-.1-.2-.1-.3-.1-.5zm-23.8-11.9c-.1.2-.3.3-.5.2-.2 0-.2-.3-.2-.4v-3.5c0-.2-.1-.4.2-.4.2 0 .3.2.3.4v3c0 .2 0 .5.2.7zm-17.3 10.7v1.9c0 .1 0 .3-.2.3s-.3-.2-.3-.3c.2-1.2 0-2.4 0-3.6 0-.2-.1-.5.2-.5.3 0 .2.3.2.5.1.6.1 1.2.1 1.7zm3-1.3c.1.2.2.3.3.5.1.8.1 1.6-.4 2.2-.1.1-.2.2-.3.2-.2-.1-.1-.2-.1-.4.4-.5.5-1.6.2-2.3-.1-.3-.3-.6-.7-.5 0-.3.2-.4.4-.2.2.1.4.3.6.5zm-3.1-25.9c-.2.6-.4 1.2 0 1.8-.2.6-.2 1.3-.1 1.9 0 .2.1.4-.2.4-.3 0-.2-.2-.2-.4v-3.5c0-.2 0-.4.3-.4 0 0 .2-.1.2.2zm32.3 2.2V105c0-.3 0-.6.4-.6.4.1 0 .4.1.5.2 1.1-.1 2.2 0 3.4 0 .2.1.5-.2.4-.3 0-.2-.3-.2-.5-.1-.4-.1-.9-.1-1.4zm9 1.7c0 .1-.1.2-.2.2-.2 0-.2-.2-.2-.3 0-.1.1-.2.2-.2.1.1.2.2.2.3zm-.8 9.8c.1-.3.1-.5 0-.8-.1-.2-.1-.3-.2-.5.8.4.9.8.6 1.5-.1.1-.1.2-.3.2-.2-.1-.1-.2-.1-.4zm-27.1.4c0-.1.1-.2.1-.3.2-.4.2-.7-.1-1 0-.1-.1-.3-.1-.4.3 0 .5.1.7.3.2.4.3.9.1 1.3l-.5.5c-.2 0-.2-.2-.2-.4zm18.9-.9c0 .1 0 .2-.1.3 0-.1 0-.2.1-.3zm7.5-11.6c-.2-.2-.2-.4-.3-.7.3.1.3.4.3.7zm-.2-.7c-.1-.1-.1 0 0 0zm.3.9c0-.1-.1-.1-.1-.2.1.1.1.1.1.2zm-5.3 14.5c.1-.3.3-.5.4-.8.4-.6.3-1.8-.1-2.4.1-.1.1-.4.3-.2l.4.4c.3.9.1 1.8-.2 2.7-.3.1-.4.5-.8.3z" fill="#000"/><path d="M81.4 130.2c.4 0 .5.3.7.5.4.7.3 1.8-.2 2.3.3-1 .3-2-.5-2.8zm11.3-12.7c.4.3.3.6.1 1 0-.4 0-.7-.1-1zm21.5.2c.5.6.6 1.8.1 2.4.2-.8.1-1.6-.1-2.4z" fill="#000"/></svg>