<svg width="200" height="200" fill="none" xmlns="http://www.w3.org/2000/svg"><path fill="#fff" d="M0 0h200v200H0z"/><g clip-path="url(#clip0)" fill="#000"><path d="M20.213 103.261c.053-.452.08-.905.133-1.358.24-2.156.852-4.153 2.21-5.856 1.517-1.917 3.54-3.035 5.857-3.648 1.437-.372 2.901-.532 4.392-.532h20.606a4091.59 4091.59 0 01-3.141 15.654 49.782 49.782 0 01-1.305-1.97c-2.183-3.301-4.366-6.63-6.576-9.93-.293-.453-.718-.666-1.278-.666h-6.256c-.585 0-.905.266-1.011.852-1.145 5.564-2.263 11.155-3.408 16.719-.107.479.133.772.612.772h4.66c.478 0 .851-.293.931-.799a764.681 764.681 0 011.544-7.561l.799-3.913c.026-.08.053-.16.08-.293.292.426.532.799.798 1.198 2.343 3.541 4.686 7.055 7.029 10.596.346.532.825.772 1.437.772h6.07c.639 0 .985-.293 1.118-.905 1.065-5.272 2.157-10.543 3.248-15.814.133-.692.266-1.41.426-2.103a1.931 1.931 0 00-.24-1.438c-1.304-2.05-2.608-4.1-3.94-6.123-.293-.452-.745-.639-1.304-.639h-28.38c-.24 0-.479 0-.692-.053-.346-.053-.452-.24-.293-.56a4.81 4.81 0 01.506-.771c3.302-3.94 7.375-6.709 12.38-7.907 9.025-2.183 16.905 0 23.48 6.576 3.701 3.7 5.857 8.226 6.496 13.417.932 7.455-1.118 14.03-6.203 19.594-3.647 3.994-8.2 6.416-13.524 7.348-1.011.186-2.05.24-3.061.346-.08 0-.133.027-.213.053h-1.65c-.08-.026-.16-.053-.24-.053-.959-.106-1.917-.133-2.85-.293-7.16-1.277-12.671-5.005-16.478-11.181-1.438-2.316-2.343-4.845-2.636-7.587-.026-.32-.08-.613-.106-.932-.027-.373-.027-.692-.027-1.012zM180 113.564c-.133.053-.293.133-.426.16-.426.026-.878 0-1.304 0-.373 0-.426-.053-.426-.426v-5.138c0-.32-.027-.666-.08-.985-.266-1.172-1.571-1.624-2.609-.905-.746.505-1.038 1.251-1.065 2.103-.027 1.597-.027 3.194-.027 4.792 0 .559-.026.559-.559.559h-1.145c-.399 0-.452-.053-.452-.453v-8.625c0-.373.08-.426.426-.426h1.091c.293 0 .4.106.426.399.027.24.054.479.08.772.16-.16.293-.293.426-.399.959-.852 2.05-1.172 3.301-.905 1.278.292 2.103 1.304 2.29 2.795 0 .08.053.186.053.266v6.416zm-22.629-8.572v-4.207c0-.239.08-.372.346-.399.506-.053.985-.107 1.491-.133.106 0 .213.133.293.239.053.054 0 .16 0 .24v12.486c0 .479-.027.506-.506.506h-.905c-.32.026-.479-.107-.506-.426-.027-.24-.08-.453-.106-.746a3.492 3.492 0 01-1.651 1.198c-1.651.586-3.461-.079-4.339-1.73-1.039-1.944-1.065-3.967-.107-5.963 1.118-2.263 3.887-2.796 5.83-1.172.054.027.08.027.16.107zm.027 3.886c0-.638-.027-1.277-.32-1.863-.372-.772-1.011-1.225-1.863-1.225-.826 0-1.438.453-1.784 1.198-.612 1.331-.586 2.689.053 3.994.346.718.932 1.171 1.731 1.144.825 0 1.411-.452 1.783-1.171.346-.666.4-1.358.4-2.077zm-53.085-3.913v-4.18c0-.239.106-.372.346-.399.479-.027.985-.106 1.464-.133.213-.027.32.053.346.293v12.699c0 .532 0 .532-.532.532-.293 0-.586-.027-.852 0-.32.027-.479-.133-.506-.426-.027-.239-.08-.452-.106-.665-.32.266-.613.559-.959.798-1.544.985-3.514.613-4.659-.825-.745-.932-1.038-2.023-1.118-3.168-.08-1.225.08-2.423.692-3.514 1.198-2.077 3.754-2.583 5.644-1.118.08-.027.133.026.24.106zm.106 3.94c-.08-.905-.186-1.491-.452-1.996-.772-1.411-2.609-1.491-3.461-.16-.772 1.224-.719 3.354.106 4.526.666.931 1.864 1.171 2.716.426.319-.293.612-.693.772-1.119.16-.532.213-1.118.319-1.677zm31.92-13.71c-.399.32-.745.692-1.171.931-1.464.826-3.354.32-4.393-1.17-.825-1.199-1.064-2.53-.985-3.941.054-1.091.346-2.13 1.012-3.035 1.171-1.517 3.301-1.943 4.792-.932.293.213.559.453.852.72.027-.214.053-.427.08-.666.026-.267.16-.4.452-.4h.985c.267 0 .4.107.4.373v8.652c0 .453-.027.506-.479.506h-.985c-.293.027-.4-.107-.453-.373-.027-.213-.053-.452-.107-.665zm-.079-3.541c-.054-.612-.08-1.118-.187-1.597-.186-1.012-.852-1.651-1.704-1.758-.851-.08-1.624.373-2.023 1.305-.532 1.305-.506 2.609.133 3.887.24.48.613.852 1.145 1.038.932.32 1.864-.133 2.236-1.171.24-.533.293-1.198.4-1.704zM94.117 87.82c.053-.292.08-.532.106-.772.027-.213.16-.346.4-.32h1.064c.266 0 .373.134.373.374v8.785c0 .266-.107.4-.373.373h-1.144c-.24 0-.347-.107-.373-.32a6.659 6.659 0 00-.133-.772c-.267.24-.48.506-.772.719-1.332 1.011-3.275.772-4.446-.506-.746-.825-1.118-1.81-1.252-2.902-.16-1.358-.053-2.689.613-3.94.825-1.544 2.529-2.343 4.18-1.917.665.16 1.224.586 1.757 1.198zm-.16 3.568c-.107-.586-.16-1.172-.32-1.73-.24-.773-.772-1.252-1.57-1.332-.826-.08-1.465.293-1.837 1.012-.746 1.437-.72 2.902.053 4.313.4.718 1.038 1.091 1.89.985.799-.107 1.278-.64 1.49-1.358.107-.612.187-1.251.294-1.89zm42.436 21.271c-.4.319-.746.692-1.172.932-1.384.798-3.274.319-4.312-1.065-.852-1.145-1.119-2.476-1.065-3.86.026-1.012.239-1.97.772-2.822.958-1.571 2.848-2.29 4.419-1.624.532.213.985.639 1.491.958.026-.133.08-.346.08-.586.026-.266.159-.372.426-.372h1.011c.24 0 .373.079.373.346v8.812c0 .266-.133.372-.373.346h-1.144c-.267 0-.373-.133-.4-.346-.053-.267-.08-.506-.106-.719zm-.133-3.754c-.027-.399-.054-.799-.107-1.171a2.621 2.621 0 00-.213-.746c-.293-.692-.799-1.118-1.571-1.198-.745-.053-1.304.267-1.73.852-.453.639-.612 1.411-.612 2.183 0 .879.133 1.757.665 2.476.932 1.278 2.556 1.065 3.195-.373.319-.638.373-1.331.373-2.023zm10.675-16.639c.16 1.757 1.331 2.636 3.115 2.343.559-.08 1.118-.293 1.677-.48.293-.106.453-.08.559.214.107.293.24.585.373.878.106.213.053.373-.16.48-1.65.825-3.381 1.091-5.138.425-1.065-.399-1.81-1.198-2.236-2.236-.639-1.624-.639-3.248.053-4.845.746-1.784 2.316-2.689 4.26-2.556 1.837.133 3.168 1.225 3.647 3.115.186.719.213 1.464.266 2.21.027.372-.08.452-.452.452h-5.964zm0-1.597h4.207c-.027-1.464-.799-2.343-2.024-2.396-1.171-.053-2.05.932-2.183 2.396zm-36.233 19.061c.133 1.491.985 2.343 2.343 2.396a4.959 4.959 0 002.13-.399c.133-.053.266-.106.399-.186.187-.08.346-.027.426.159.16.347.293.693.426 1.065.107.267-.106.373-.293.453-1.198.612-2.476.825-3.807.692-1.278-.133-2.316-.719-3.061-1.81-.506-.719-.746-1.544-.826-2.423-.106-1.251.027-2.476.639-3.594.852-1.544 2.423-2.343 4.286-2.13 1.784.213 2.849 1.252 3.408 2.902.266.799.32 1.598.32 2.423 0 .293-.133.426-.426.399h-5.618c-.08.053-.213.053-.346.053zm.027-1.597h4.206c-.026-1.411-.798-2.316-1.943-2.369-1.411-.08-2.13 1.065-2.263 2.369zm52.925 1.598c.106 1.57 1.145 2.475 2.662 2.396a6.124 6.124 0 002.157-.533c.319-.133.426-.106.532.213.133.293.24.586.373.879.08.213.053.372-.16.479-1.65.825-3.381 1.091-5.138.426-1.225-.453-1.997-1.411-2.369-2.636-.453-1.491-.426-2.955.159-4.393.719-1.783 2.237-2.688 4.26-2.609 1.73.08 3.061 1.145 3.647 2.902.266.826.32 1.678.32 2.529 0 .293-.187.347-.426.347h-6.017zm4.206-1.598c0-1.384-.798-2.316-1.97-2.369-1.357-.08-2.103 1.091-2.209 2.369h4.179zm-78.056 1.597c.053 1.491 1.144 2.476 2.555 2.396.8-.053 1.544-.213 2.237-.532.266-.133.426-.053.532.213.107.319.24.612.373.905.08.187.053.346-.16.453-1.677.825-3.407 1.118-5.218.426-1.065-.426-1.81-1.225-2.21-2.263-.638-1.704-.612-3.408.187-5.058 1.384-2.876 5.218-2.849 6.762-1.119.799.906 1.171 1.97 1.278 3.142.026.346.026.692.026 1.012 0 .372-.08.452-.452.452h-5.59c-.08-.027-.187-.027-.32-.027zm4.18-1.597c0-1.544-.906-2.316-1.917-2.369-1.225-.054-2.13.878-2.237 2.369h4.153zm24.146-16.799c-.027 1.518-.346 2.796-1.331 3.807-1.252 1.305-2.822 1.624-4.526 1.172-1.677-.426-2.636-1.624-3.062-3.275a6.043 6.043 0 01.054-3.3c.612-2.157 2.422-3.409 4.658-3.249 2.183.16 3.754 1.677 4.1 3.86.054.4.08.772.107.985zm-6.895.16c0 .719.133 1.411.479 2.05.399.719.985 1.118 1.837 1.118s1.437-.4 1.837-1.118c.346-.586.479-1.224.479-1.89.026-.879-.107-1.73-.639-2.45-.879-1.224-2.609-1.17-3.434.08-.4.666-.533 1.411-.559 2.21zm-31.628 13.897c.533-.586 1.092-.985 1.758-1.225 2.076-.745 4.02.453 4.259 2.636.053.346.053.719.053 1.091v5.378c0 .426-.053.479-.479.479h-1.251c-.373 0-.426-.053-.426-.452V108c0-.213 0-.453-.053-.666-.24-1.224-1.438-1.757-2.53-1.118-.878.533-1.17 1.385-1.198 2.343-.026 1.571 0 3.141 0 4.686 0 .479-.053.505-.505.505h-1.118c-.506 0-.533-.026-.533-.532v-8.546c0-.426.053-.479.48-.479.319 0 .665.027.984 0 .346-.027.453.133.48.453.026.213.053.426.08.745zm63.228-.133c.533-.346 1.012-.746 1.544-1.012 2.13-.958 4.313.346 4.473 2.662.08 1.065.053 2.157.053 3.222v3.141c0 .373-.053.453-.452.453h-1.252c-.426 0-.452-.054-.452-.453v-5.058c0-.266 0-.559-.053-.825-.107-.639-.373-1.172-1.039-1.358-.692-.213-1.357-.08-1.89.426-.612.586-.799 1.304-.799 2.103v4.606c0 .505-.026.532-.559.532h-1.118c-.452 0-.506-.053-.506-.479v-8.572c0-.4.054-.48.453-.48h1.118c.213 0 .346.08.346.32.08.293.107.559.133.772zM79.607 87.874c.293-.24.533-.48.8-.693.824-.612 1.756-.825 2.768-.638 1.384.266 2.263 1.277 2.422 2.742.054.532.054 1.091.08 1.624v4.818c0 .453-.053.48-.506.48h-1.144c-.48 0-.506-.027-.506-.533v-5.218c0-.213 0-.426-.053-.639-.107-.612-.373-1.118-1.012-1.304-.692-.214-1.305-.08-1.837.372-.639.56-.852 1.305-.852 2.13v4.659c0 .48-.026.506-.506.506h-1.25c-.32 0-.427-.133-.427-.426v-8.6c0-.453.053-.533.506-.533h.985c.293-.026.426.133.453.4.026.346.053.585.08.852zm42.33-.054c.426-.32.825-.665 1.278-.905 2.236-1.171 4.632.107 4.765 2.636.107 2.103.053 4.233.053 6.362 0 .267-.133.373-.399.373a11.066 11.066 0 00-1.331 0c-.293 0-.426-.106-.426-.4V90.59c0-.186-.027-.373-.053-.56-.08-.638-.346-1.17-1.012-1.383-.692-.24-1.331-.107-1.863.372-.666.586-.852 1.358-.879 2.183v4.606c0 .48-.027.532-.532.532h-1.172c-.399 0-.426-.053-.426-.452v-8.679c0-.293.107-.426.4-.4h1.144c.24 0 .373.107.4.373 0 .16.026.4.053.64zm-21.298-1.091h1.704c.506 0 .532.026.532.559v.772c.027.293-.106.426-.426.426h-1.837c0 .133-.026.24-.026.346v4.952c.053.772.372 1.038 1.144.931.24-.026.48-.106.719-.16.24-.053.373.027.4.267.053.346.079.692.159 1.038.027.186-.053.293-.213.373-.931.346-1.89.453-2.848.16-.905-.293-1.438-1.065-1.491-2.157-.027-.799-.027-1.57-.027-2.37v-7.16c0-.56.027-.56.56-.613.372-.026.718-.08 1.091-.106.452-.054.506.026.506.452v2.077c.026.026.026.08.053.213zm27.394 20.259v6.203c0 .506-.053.559-.532.559h-1.225c-.266 0-.399-.133-.399-.399v-12.539c0-.266.106-.373.373-.399.479-.027.958-.08 1.437-.133.213-.027.32.079.346.266v6.442zm14.776-17.464v6.23c0 .452-.027.506-.479.506h-1.305c-.24 0-.346-.107-.373-.347V83.507c0-.505.054-.559.559-.612.373-.026.719-.053 1.092-.106.452-.053.532 0 .532.452-.026 2.103-.026 4.207-.026 6.283zm-21.724 15.867c.08-.106.133-.24.239-.319.666-.639 1.465-1.039 2.396-1.092.426-.027.48.027.48.426v1.331c0 .399-.054.479-.506.426-.799-.106-1.464.16-1.97.772-.453.559-.559 1.198-.559 1.89v4.393c0 .453-.027.479-.479.479h-1.278c-.267 0-.373-.106-.373-.373v-8.758c0-.293.106-.4.399-.4h1.145c.266 0 .373.107.373.373.026.24.053.506.08.746-.027.053.026.079.053.106zM107.161 91.52v4.314c0 .399-.026.426-.452.426h-1.305c-.293 0-.399-.107-.399-.4v-8.572c0-.24.106-.373.346-.4.479-.053.985-.106 1.464-.133.32-.026.346.16.346.4v4.366zm.187-7.294a1.26 1.26 0 01-1.278 1.278 1.25 1.25 0 01-1.251-1.251 1.25 1.25 0 011.224-1.278c.746 0 1.305.56 1.305 1.251z"/></g><defs><clipPath id="clip0"><path fill="#fff" transform="translate(20 76)" d="M0 0h160v48.453H0z"/></clipPath></defs></svg>