<svg width="200" height="200" fill="none" xmlns="http://www.w3.org/2000/svg"><path fill="#fff" d="M0 0h200v200H0z"/><path d="M91.44 104.44c0-1.6-.64-2.56-2.48-2.56h-1.6l-.08.08V107l.08.08h1.6c1.84-.08 2.48-1.04 2.48-2.64zm-1.04 0c0 1.2-.4 1.68-1.44 1.68h-.64l-.08-.08v-3.28l.08-.08h.64c1.12 0 1.44.56 1.44 1.76zm6.16 2.48v-.72l-.08-.08H94l-.08-.08v-1.2l.08-.08h2.32l.08-.08v-.72l-.08-.08H94l-.08-.08v-1.04l.08-.08h2.48l.08-.08v-.72l-.08-.08h-3.44l-.08.08v5.04l.08.08 3.52-.08zm8.24-1.28c0-.64-.32-1.12-.88-1.28v-.08c.48-.16.72-.56.72-1.12 0-.96-.72-1.36-1.44-1.36h-2.4l-.08.08v5.04l.08.08h2.48c.72 0 1.52-.4 1.52-1.36zm-1.2-2.32c0 .32-.16.56-.56.56h-1.2l-.08-.08v-1.04l.08-.08h1.2c.4 0 .56.24.56.64zm.16 2.16c0 .48-.24.64-.72.64h-1.2l-.08-.08v-1.2l.08-.08h1.2c.48 0 .72.24.72.72zm6.48 1.44v-.72l-1.68-4.32-.08-.08h-.96l-.08.08-1.68 4.32v.72l.08.08h.64l.08-.08.4-.96.16-.08h1.84l.16.08.4.96.08.08.64-.08zm-1.6-2l-1.36.08-.08-.08.64-1.76h.08l.72 1.76zm7.2-1.52c0-1.04-.72-1.52-1.76-1.52h-2.4l-.08.08V107l.08.08h.88l.08-.08v-1.92l.08-.08h.72l.16.08 1.52 1.92h.56l.08-.08v-.72l-.96-1.28v-.08c.56-.16 1.04-.64 1.04-1.44zm-1.04 0c0 .48-.32.64-.72.64h-1.44l-.08-.08v-1.2l.08-.08h1.44c.4 0 .72.16.72.72zm4.72 2.8c-1.04 0-1.52-.72-1.52-1.76s.48-1.76 1.52-1.76c.56 0 .96.24 1.12.64l.08.08h.88l.08-.08c-.16-.96-.96-1.52-2.16-1.52-1.6 0-2.48 1.12-2.48 2.64s.88 2.64 2.48 2.64c1.2 0 2-.56 2.16-1.6l-.08-.08h-.88l-.08.08c-.16.48-.48.72-1.12.72zm7.28.72v-.72l-.08-.08h-2.48l-.08-.08v-1.2l.08-.08h2.32l.08-.08v-.72l-.08-.08h-2.32l-.08-.08v-1.04l.08-.08h2.48l.08-.08v-.72l-.08-.08h-3.52l-.08.08v5.04l.08.08 3.6-.08zm5.12 0v-.72l-.08-.08h-2.32l-.08-.08v-4.16l-.08-.08h-.88l-.08.08v5.04l.08.08 3.44-.08zm4.8-2.48c0 1.04-.48 1.76-1.52 1.76-.96 0-1.44-.72-1.44-1.76s.48-1.76 1.44-1.76 1.52.72 1.52 1.76zm1.04 0c0-1.52-.96-2.64-2.56-2.64-1.52 0-2.48 1.12-2.48 2.64s.96 2.64 2.48 2.64c1.6 0 2.56-1.12 2.56-2.64zm1.44-2.56v5.04l.08.08h.88l.08-.08v-3.44h.08l2 3.44.16.08h1.04l.08-.08v-5.04l-.08-.08h-.88l-.08.08v3.44h-.08l-2-3.44-.16-.08h-1.04l-.08.08zm10.24 5.04v-.72l-1.68-4.32-.08-.08h-.96l-.08.08-1.68 4.32v.72l.08.08h.64l.08-.08.4-.96.16-.08h1.84l.16.08.4.96.08.08.64-.08zm-1.6-2l-1.36.08-.08-.08.64-1.76h.08l.72 1.76zm-56.4-9.12c0-1.6-.64-2.56-2.48-2.56h-1.6l-.08.08v5.04l.08.08h1.6c1.84-.08 2.48-1.04 2.48-2.64zm-1.04 0c0 1.2-.4 1.68-1.44 1.68h-.64l-.08-.08v-3.28l.08-.08h.64c1.12 0 1.44.56 1.44 1.76zm3.6-1.52v-1.04l-.08-.08h-1.04l-.08.08v.96l.08.08h.24l.08.08v.08l-.48.72v.16h.48l.16-.08.56-.72.08-.24zm5.2 4v-.72l-1.68-4.32-.08-.08h-.96l-.08.08-1.68 4.32v.72l.08.08h.64l.08-.08.4-.96.16-.08h1.84l.16.08.4.96.08.08.64-.08zm-1.52-2l-1.36.08-.08-.08.64-1.76h.08l.72 1.76zm7.2-1.52c0-1.04-.72-1.52-1.76-1.52h-2.48l-.08.08v5.04l.08.08h.88l.08-.08v-1.92l.08-.08h.72l.16.08 1.52 1.92.16.08h.48l.08-.08v-.72l-.96-1.28v-.08c.48-.24 1.04-.72 1.04-1.52zm-1.04 0c0 .48-.32.64-.72.64h-1.44l-.08-.08v-1.2l.08-.08h1.44c.4 0 .72.16.72.72zm6.24-.8v-.72l-.08-.08h-4.16l-.08.08v.72l.08.08h1.52l.08.08v4.16l.08.08h.88l.08-.08v-4.16l.08-.08 1.52-.08zm5.92 3.6c-1.04 0-1.44-.72-1.44-1.76s.48-1.76 1.44-1.76c.56 0 .96.24 1.12.64l.08.08h.88l.08-.08c-.16-.96-.96-1.52-2.16-1.52-1.6 0-2.48 1.12-2.48 2.64s.88 2.64 2.48 2.64c1.2 0 2-.56 2.16-1.6l-.08-.08h-.88l-.08.08c-.16.48-.56.72-1.12.72zm7.36-1.76c0 1.04-.48 1.76-1.52 1.76-.96 0-1.52-.72-1.52-1.76s.48-1.76 1.52-1.76c.96-.08 1.52.72 1.52 1.76zm.96 0c0-1.52-.96-2.64-2.56-2.64-1.52 0-2.48 1.12-2.48 2.64s.96 2.64 2.48 2.64c1.68 0 2.56-1.12 2.56-2.64zm1.52-2.56v5.04l.08.08h.88l.08-.08v-3.44h.08l2 3.44.16.08h1.04l.08-.08v-5.04l-.08-.08h-.88l-.08.08v3.44h-.08l-2-3.44-.16-.08h-1.04l-.08.08zm10 .72v-.72l-.08-.08h-4.16l-.08.08v.72l.08.08h1.52l.08.08v4.16l.08.08h.88l.08-.08v-4.16l.08-.08 1.52-.08zm4.88 4.32v-.72l-.08-.08h-2.4l-.08-.08v-1.2l.08-.08h2.32l.08-.08v-.72l-.08-.08h-2.32l-.08-.08v-.96l.08-.08h2.48l.08-.08v-.72l-.08-.08h-3.44l-.08.08v5.04l.08.08 3.44-.16zm7.2 0v-5.04l-.08-.08h-1.12l-.08.08-1.52 3.6h-.08l-1.52-3.6-.08-.08h-1.04l-.08.08v5.04l.08.08h.88l.08-.08V95.4h.08l1.2 2.88.08.08h.8l.08-.08 1.2-2.88h.08v2.88l.08.08h.88l.08-.08zm6.08-3.52c0-1.04-.72-1.52-1.76-1.52h-2.48l-.08.08v5.04l.08.08h.88l.08-.08v-1.92l.08-.08h1.44c1.04-.08 1.76-.56 1.76-1.6zm-1.04 0c0 .48-.32.64-.72.64h-1.44l-.08-.08v-1.2l.08-.08h1.44c.4 0 .72.16.72.72zm6.08 1.04c0 1.04-.48 1.76-1.44 1.76s-1.52-.72-1.52-1.76.48-1.76 1.52-1.76c.88-.08 1.44.72 1.44 1.76zm1.04 0c0-1.52-.96-2.64-2.48-2.64s-2.56 1.12-2.56 2.64.96 2.64 2.56 2.64c1.52 0 2.48-1.12 2.48-2.64zm5.76-1.04c0-1.04-.72-1.52-1.76-1.52h-2.48l-.08.08v5.04l.08.08h.88l.08-.08v-1.92l.08-.08h.72l.16.08 1.52 1.92.16.08h.48l.08-.08v-.72l-.96-1.28v-.08c.48-.24 1.04-.72 1.04-1.52zm-1.04 0c0 .48-.32.64-.72.64h-1.44l-.08-.08v-1.2l.08-.08h1.44c.4 0 .72.16.72.72zm6.56 3.52v-.72l-1.68-4.32-.08-.08h-.96l-.08.08-1.68 4.32v.72l.08.08h.64l.08-.08.4-.96.16-.08h1.84l.16.08.4.96.08.08.64-.08zm-1.52-2l-1.36.08-.08-.08.64-1.76h.08l.72 1.76zm2.88-3.04v5.04l.08.08h.88l.08-.08v-3.44h.08l2 3.44.16.08h1.04l.08-.08v-5.04l-.08-.08h-.88l-.08.08v3.44H176l-2-3.44-.16-.08-1.12.08zm7.12 5.04v-5.04l-.08-.08h-.88l-.08.08v5.04l.08.08.96-.08zM92.8 89.64V84.6l-.08-.08H91.6l-.08.08L90 88.2h-.08l-1.44-3.6-.08-.08h-1.12l-.08.08v5.04l.08.08h.88l.08-.08v-2.88h.08l1.28 2.88.08.08h.8l.08-.08 1.2-2.88h.08v2.88l.08.08.88-.08zm5.92-5.04l-.96-.08-.08.08v3.12c0 .72-.32 1.2-1.04 1.2s-1.04-.48-1.04-1.2V84.6l-.08-.08h-.88l-.08.08v3.12c0 1.36.72 2.08 2.08 2.08s2.08-.72 2.08-2.08V84.6zm5.76 3.6c0-1.04-.8-1.44-1.84-1.6-1.04-.16-1.36-.32-1.36-.72 0-.32.24-.48.88-.48.8 0 1.04.24 1.04.64l.08.08h.88l.08-.08c0-.88-.56-1.52-2-1.52s-2 .64-2 1.44c0 1.04.8 1.44 1.84 1.52 1.04.16 1.36.32 1.36.8 0 .48-.4.64-1.04.64-.88 0-1.2-.32-1.2-.8l-.08-.08h-.88l-.08.08c0 .96.64 1.68 2.16 1.68 1.6-.08 2.16-.8 2.16-1.6zm5.04 1.44v-.72l-.08-.08h-2.48l-.08-.08v-1.2l.08-.08h2.32l.08-.08v-.72l-.08-.08h-2.32l-.08-.08V85.4l.08-.08h2.48l.08-.08v-.72l-.08-.08H106l-.08.08v5.12l.08.08 3.52-.08zm5.84-5.04l-.96-.08-.08.08v3.12c0 .72-.32 1.2-1.04 1.2s-1.04-.48-1.04-1.2V84.6l-.08-.08h-.88l-.08.08v3.12c0 1.36.72 2.08 2.08 2.08s2.08-.72 2.08-2.08V84.6zm-44.24 25.92h3.44l.24-.24-1.84-4.88h-.24l-1.84 4.88.24.24zm4.24 2.4h-5.04l-.4.24-1.04 2.64-.24.16H66.8l-.24-.16v-2l4.64-11.68.24-.16h2.64l.24.16 4.48 11.2v-41.6l-.24-.24H20.32l-.16.08v57.2l.16.24h58.24l.24-.24v-12.8h-1.84l-.24-.16-1.04-2.64-.32-.24zM54 102.04l.24-.16h6.48c2 0 4 1.04 4 3.6 0 1.44-.64 2.64-2 3.04v.16c1.6.4 2.4 1.6 2.4 3.44 0 2.8-2 3.84-4 3.84h-6.88l-.24-.16v-13.76zm-10.24-3.6l-.24.24h-2.4l-.16-.24V90.6h-.24l-3.2 7.84-.24.24h-2.24l-.24-.24-3.2-7.84h-.24v7.84l-.16.16h-2.4l-.24-.24V84.68l.24-.16h3.04l.24.16 4 9.84h.24l4.08-9.84.16-.16h3.04l.24.16-.08 13.76zm14.48 0l-.24.24h-1.84l-.16-.24-1.04-2.64-.4-.16h-5.04l-.4.16-1.04 2.64-.16.24h-1.84l-.24-.24v-2l4.64-11.68.24-.16h2.64l.24.16 4.64 11.68v2zm8.08.4c-4.48 0-6.88-3.04-6.88-7.28s2.4-7.28 6.88-7.28c3.2 0 5.44 1.6 5.84 4.24l-.16.24h-2.4l-.16-.24c-.4-1.2-1.44-1.84-3.04-1.84-2.8 0-4 2-4 4.88s1.2 4.88 4 4.88c1.6 0 2.64-.64 3.04-2l.16-.24H72l.16.24c-.4 2.8-2.64 4.4-5.84 4.4zm-12.56-5.68L54 93l-1.84-4.88H52L50.16 93l.24.16h3.36zm3.28 11.12l-.24.16v2.8l.24.24h3.28c1.2 0 1.6-.8 1.6-1.6 0-1.04-.4-1.6-1.6-1.6h-3.28zm0 5.6l-.24.24v3.2l.24.16h3.28c1.44 0 2-.64 2-1.84 0-1.2-.64-1.84-2-1.84h-3.28v.08z" fill="#000"/></svg>