<svg width="200" height="200" fill="none" xmlns="http://www.w3.org/2000/svg"><path fill="#fff" d="M0 0h200v200H0z"/><g clip-path="url(#clip0)" fill="#000"><path d="M126.781 103.469c-3.219 0-6.437.031-9.656 0-.75 0-1.406.156-2.031.594-2.688 1.875-5.375 3.718-8.063 5.562-.75.5-1.531 1.063-2.437.625-.875-.437-.719-1.406-.75-2.219-.156-2.906.062-5.812-.188-8.687-.062-.875-.343-1.531-.906-2.188-7.375-8.75-5.688-22.468 3.594-29.03 2.625-1.876 5.594-2.97 8.875-2.97 7-.03 14.031-.125 21.031 0 8.312.157 15.969 7.5 16.844 15.782.625 5.875-.282 11.28-4.094 15.937-3.375 4.156-7.844 6.406-13.219 6.563-2.969.093-5.969.031-9 .031zm10.625-24.063c-.281-1.03-.937-1.687-1.875-2.125-.75-.375-1.281-.25-1.937.344-4.781 4.281-10.782 4.219-15.719-.094-.844-.718-2.219-.5-3.062.625-.625.844-1.094 1.625.062 2.657 4.156 3.656 4.156 9.53 0 13.218-1.25 1.094-.625 1.938.063 2.75.937 1.125 2.156 1.25 3.031.438 4.625-4.219 11-4.219 15.593 0 .875.812 2.032.656 3.032-.406.875-.907.875-1.625-.157-2.563-4.593-4.156-4.468-9.844.25-13.812.313-.344.75-.532.719-1.032zm-11.531-1.28c2.844-.032 5.125-2.126 5.156-4.72 0-2.656-2.344-4.75-5.312-4.718-2.781.03-5.219 2.25-5.188 4.718 0 2.594 2.438 4.75 5.344 4.72zm-74.406 46.812c-2.594 0-5.188.062-7.782-.032-1.406-.031-1.28.438-.718 1.375 2.125 3.5 6.968 4.75 10.5 2.657.406-.25.75-.532 1.156-.782 1.188-.718 2.656-.5 3.344.5.718 1.032.437 2.375-.657 3.313-3.75 3.156-10.156 3.437-14.437.687-4.969-3.218-6.906-8.875-4.875-14.218 1.938-5.125 7.563-8.375 13.125-7.563 6.063.875 9.875 4.594 10.813 10.5.374 2.438-.532 3.531-2.97 3.531-2.53.032-5 .032-7.5.032zm5.281-4.594c-1.094-2.969-3.719-4.938-6.75-5.031-3.125-.094-5.625 1.187-7.25 3.968-.313.532-.594 1.063.469 1.063H56.75zm27.094-7.031v-5.344c0-1.406.875-2.063 2.156-2.219 1.25-.156 2.5.781 2.531 2 0 5.594.594 11.25-.187 16.781-1.313 9.125-12.563 13.25-19.813 7.563-4.094-3.219-5.719-8.219-4.187-12.875 1.5-4.688 5.906-8 10.937-8.313 3-.218 5.781.5 8.563 2.407zM76.188 130c4.187 0 7.656-3.375 7.624-7.406-.03-3.875-3.593-7.219-7.687-7.25-4.156 0-7.594 3.375-7.563 7.437.032 4.063 3.407 7.25 7.626 7.219zm73.687-19.187c6.906-.032 12.375 5.125 12.469 11.781.094 6.469-5.438 12-12.125 12.031-7.094.031-12.688-5.094-12.719-11.656-.031-6.969 5.219-12.125 12.375-12.156zm-.031 19.125c4.187 0 7.594-3.219 7.594-7.219 0-3.969-3.438-7.344-7.532-7.375-4.031-.031-7.625 3.406-7.656 7.281 0 3.969 3.469 7.313 7.594 7.313zm-36.188-7.188v9.031c0 1.25-.312 2.313-1.625 2.688-1.218.375-2.281 0-2.875-1.188-.468-.937-.906-.281-1.343-.062-5.344 2.687-11.563 1.312-15.063-3.344-1.563-2.062-2.188-4.437-2.219-7a438.5 438.5 0 010-9.031c0-1.969.938-3.094 2.5-3.063 1.5.032 2.344 1.094 2.344 3.032 0 3.125-.031 6.218 0 9.343.031 3.875 2.813 6.75 6.594 6.782 3.906.062 6.844-2.719 6.937-6.625.063-3.219.032-6.438.032-9.657 0-1.812.875-2.875 2.312-2.906 1.563-.031 2.438 1 2.438 2.906 0 3.063-.032 6.063-.032 9.094zm14.625-11.937c2.782-.063 5.313.75 7.5 2.5 1.344 1.062 1.625 2.375.813 3.5-.844 1.156-2.281 1.312-3.719.281-1.906-1.344-3.937-2.031-6.281-1.5-3 .687-5.094 2.406-5.813 5.375-.75 3.062.219 5.687 2.813 7.531 2.594 1.813 5.375 2 8.219.5.5-.25.937-.656 1.437-.937 1.188-.688 2.656-.407 3.344.593.687 1.032.437 2.375-.656 3.313-3.875 3.281-10.282 3.562-14.688.687-4.531-2.968-6.531-8.187-5.094-13.25 1.469-5.031 6.25-8.562 11.657-8.593h.468z"/></g><defs><clipPath id="clip0"><path fill="#fff" transform="translate(37 65)" d="M0 0h125.625v70H0z"/></clipPath></defs></svg>