<svg width="200" height="200" fill="none" xmlns="http://www.w3.org/2000/svg"><path fill="#fff" d="M0 0h200v200H0z"/><path d="M134.348 103.995c-4.099 0-8.199.04-12.298 0-.955 0-1.791.199-2.587.756a1575.845 1575.845 0 01-10.269 7.085c-.955.637-1.95 1.353-3.104.796-1.115-.557-.916-1.791-.956-2.826-.199-3.702.08-7.403-.238-11.065-.08-1.114-.438-1.95-1.155-2.786-9.393-11.144-7.243-28.617 4.577-36.975 3.344-2.388 7.125-3.781 11.304-3.781 8.915-.04 17.871-.16 26.786 0 10.587.199 20.338 9.552 21.453 20.1.796 7.482-.359 14.368-5.214 20.298-4.299 5.294-9.99 8.159-16.836 8.358-3.781.12-7.602.04-11.463.04zm13.533-30.647c-.359-1.313-1.194-2.149-2.388-2.706-.956-.478-1.632-.319-2.468.438-6.09 5.452-13.731 5.373-20.02-.12-1.075-.915-2.826-.637-3.901.796-.796 1.075-1.393 2.07.08 3.383 5.294 4.657 5.294 12.14 0 16.836-1.592 1.393-.796 2.468.08 3.503 1.194 1.432 2.746 1.592 3.86.557 5.891-5.373 14.01-5.373 19.861 0 1.114 1.035 2.587.836 3.861-.518 1.114-1.154 1.114-2.07-.199-3.263-5.851-5.294-5.692-12.538.318-17.592.398-.438.955-.677.916-1.314zm-14.687-1.632c3.622-.04 6.527-2.706 6.567-6.01 0-3.383-2.985-6.05-6.766-6.01-3.542.04-6.647 2.866-6.607 6.01 0 3.304 3.105 6.05 6.806 6.01zm-94.766 59.622c-3.304 0-6.607.08-9.91-.039-1.792-.04-1.632.557-.916 1.751 2.706 4.458 8.876 6.05 13.373 3.383.518-.319.955-.677 1.473-.995 1.512-.916 3.383-.637 4.258.637.916 1.313.558 3.025-.835 4.219-4.776 4.019-12.936 4.378-18.388.875-6.329-4.099-8.796-11.303-6.21-18.109 2.468-6.528 9.633-10.667 16.717-9.632 7.721 1.114 12.577 5.851 13.771 13.373.478 3.105-.676 4.498-3.78 4.498-3.225.039-6.369.039-9.553.039zm6.726-5.85c-1.393-3.781-4.736-6.289-8.597-6.408-3.98-.12-7.164 1.512-9.234 5.054-.398.677-.756 1.354.598 1.354h17.233zm34.508-8.956v-6.806c0-1.791 1.114-2.626 2.746-2.826 1.592-.199 3.184.996 3.224 2.548 0 7.124.756 14.328-.239 21.373-1.672 11.622-16 16.876-25.234 9.632-5.214-4.1-7.283-10.468-5.333-16.398 1.91-5.97 7.522-10.189 13.93-10.587 3.821-.279 7.363.636 10.906 3.064zm-9.752 21.254c5.334 0 9.752-4.298 9.712-9.433-.04-4.935-4.577-9.194-9.791-9.234-5.294 0-9.672 4.299-9.632 9.473.04 5.174 4.338 9.234 9.712 9.194zm93.851-24.438c8.796-.04 15.761 6.528 15.881 15.005.119 8.239-6.926 15.284-15.443 15.324-9.035.039-16.159-6.488-16.199-14.846-.04-8.876 6.647-15.443 15.761-15.483zm-.04 24.358c5.334 0 9.672-4.099 9.672-9.194 0-5.054-4.378-9.353-9.592-9.393-5.134-.039-9.711 4.339-9.751 9.274 0 5.055 4.418 9.313 9.671 9.313zm-46.089-9.154v11.503c0 1.592-.398 2.945-2.07 3.423-1.552.477-2.905 0-3.661-1.513-.597-1.194-1.155-.358-1.712-.079-6.806 3.422-14.726 1.671-19.184-4.259-1.99-2.627-2.786-5.652-2.826-8.916-.04-3.82-.04-7.681 0-11.502 0-2.507 1.194-3.94 3.184-3.901 1.91.04 2.985 1.394 2.985 3.861 0 3.98-.04 7.921 0 11.901.04 4.935 3.582 8.597 8.398 8.636 4.975.08 8.717-3.462 8.836-8.437.08-4.1.04-8.199.04-12.299 0-2.308 1.114-3.661 2.945-3.701 1.99-.04 3.105 1.273 3.105 3.701 0 3.901-.04 7.722-.04 11.582zm18.627-15.204c3.542-.079 6.766.955 9.552 3.184 1.711 1.354 2.07 3.025 1.035 4.458-1.075 1.473-2.906 1.672-4.737.358-2.427-1.711-5.014-2.587-8-1.91-3.82.875-6.487 3.064-7.403 6.846-.955 3.9.279 7.243 3.583 9.592 3.303 2.308 6.845 2.547 10.467.636.637-.318 1.194-.835 1.831-1.194 1.513-.875 3.383-.517 4.259.757.875 1.313.557 3.025-.836 4.219-4.935 4.179-13.095 4.537-18.706.875-5.772-3.781-8.319-10.428-6.488-16.875 1.871-6.408 7.96-10.906 14.846-10.946h.597z" fill="#000"/></svg>