<svg width="200" height="200" fill="none" xmlns="http://www.w3.org/2000/svg"><path fill="#fff" d="M0 0h200v200H0z"/><g clip-path="url(#clip0)" fill-rule="evenodd" clip-rule="evenodd" fill="#000"><path d="M111.077 108.328v4.835c-.435.26-.961.461-1.577.601a8.506 8.506 0 01-1.889.211c-.891 0-1.696-.141-2.417-.422a5.474 5.474 0 01-1.841-1.154 4.916 4.916 0 01-1.166-1.747 5.937 5.937 0 01-.404-2.215c0-.905.16-1.729.482-2.472a5.992 5.992 0 011.297-1.919 5.93 5.93 0 014.174-1.692 7.331 7.331 0 011.725.218c.29.073.57.159.839.258.269.098.513.215.731.35l-.933 1.56a2.313 2.313 0 00-.521-.241 7.316 7.316 0 00-.629-.18 5.847 5.847 0 00-.645-.117 4.947 4.947 0 00-.598-.039 3.71 3.71 0 00-1.516.32 4.321 4.321 0 00-1.282.866 4.135 4.135 0 00-.894 1.302 3.948 3.948 0 00-.334 1.615c0 .519.098 1.013.295 1.481a3.925 3.925 0 002.083 2.098c.487.214 1.021.32 1.601.32.207 0 .466-.018.777-.054.311-.037.606-.102.886-.195v-1.935h-2.114v-1.653h3.87zm6.404 5.647a4.792 4.792 0 01-1.718-.305 4.242 4.242 0 01-1.391-.85 3.941 3.941 0 01-.932-1.318 4.172 4.172 0 01-.342-1.708v-7.315h1.896v7.268c0 .333.065.645.194.936a2.477 2.477 0 001.314 1.287c.3.13.626.195.979.195.352 0 .681-.065.987-.195.305-.13.572-.304.8-.522a2.4 2.4 0 00.536-.765c.13-.291.195-.603.195-.936v-7.268h1.896v7.315c0 .624-.114 1.193-.342 1.708a3.906 3.906 0 01-.94 1.318 4.306 4.306 0 01-1.407.85 4.854 4.854 0 01-1.725.305zm6.916-.125v-11.371h7.523v1.731h-5.627v3.057h5.005v1.778h-5.005v3.027h5.844v1.778h-7.74zm9.621 0v-11.371h3.202c.621 0 1.189.083 1.701.249.513.167.949.406 1.306.718.358.312.635.696.832 1.154.196.457.295.972.295 1.544 0 .312-.031.624-.093.936a4.046 4.046 0 01-.296.905 3.243 3.243 0 01-1.305 1.435l.668 1.068a244.403 244.403 0 001.352 2.145l.777 1.217h-2.284c-.467-.728-.907-1.417-1.321-2.067a159.74 159.74 0 00-1.197-1.848h-1.741v3.915h-1.896zm1.896-5.709h1.523c.394 0 .72-.068.979-.203s.467-.299.622-.491c.155-.193.264-.401.326-.624.063-.224.094-.429.094-.616 0-.177-.029-.377-.086-.601a1.743 1.743 0 00-.925-1.131c-.259-.135-.59-.203-.994-.203h-1.539v3.869zm17.998-5.662v11.901a6.876 6.876 0 00-.482-.515 60.939 60.939 0 00-.917-.897l-1.204-1.154c-.441-.421-.889-.847-1.345-1.279a314.216 314.216 0 01-2.525-2.418 79.564 79.564 0 01-.902-.889 6.951 6.951 0 01-.474-.507 1.418 1.418 0 00-.124-.163 4.546 4.546 0 01-.187-.242l.047.499v7.035h-1.896v-11.886c.072.093.233.262.482.507.248.244.554.538.917.881.362.343.764.718 1.204 1.123l1.345 1.24c.456.421.901.837 1.336 1.248.435.411.834.785 1.197 1.123.363.338.666.627.909.866.244.239.402.405.474.499l.296.437-.047-.531v-6.878h1.896zm2.611 0h1.912v11.371h-1.912v-11.371zm13.056 10.528a5.342 5.342 0 01-1.313.617 7.82 7.82 0 01-1.034.249 7.03 7.03 0 01-1.228.102c-.891 0-1.689-.154-2.393-.461a5.313 5.313 0 01-1.788-1.24 5.378 5.378 0 01-1.119-1.825 6.257 6.257 0 01-.388-2.199c0-.853.155-1.64.466-2.363a5.815 5.815 0 011.267-1.872 5.721 5.721 0 011.865-1.224 5.92 5.92 0 012.277-.437c.311 0 .624.023.94.07.316.047.614.107.894.179.279.073.526.156.738.25.212.094.365.192.458.296a7.066 7.066 0 00-.217.359c-.052.094-.106.19-.163.289-.057.098-.119.21-.187.335-.067.125-.163.296-.287.515a2.082 2.082 0 00-.451-.219 3.853 3.853 0 00-.552-.148 7.438 7.438 0 00-.583-.086 5.31 5.31 0 00-.528-.031c-.58 0-1.117.109-1.609.328a4.16 4.16 0 00-1.274.865 3.94 3.94 0 00-1.143 2.738c0 .499.096.985.288 1.458.192.474.461.892.808 1.256.347.364.759.658 1.236.881a3.678 3.678 0 001.585.336c.332 0 .653-.034.964-.102.311-.067.585-.143.823-.226.239-.083.433-.166.583-.249.151-.084.231-.141.241-.172l.824 1.731zm8.377.843l-.163-.39-.287-.687c-.114-.27-.239-.569-.373-.896l-.42-1.022h-3.901l-1.244 2.995h-1.88c.041-.094.14-.325.295-.694.155-.37.35-.827.583-1.373l.777-1.825c.285-.671.578-1.355.878-2.051.301-.697.593-1.381.878-2.051l.777-1.825c.234-.546.428-1.004.583-1.373.156-.369.254-.601.296-.694l.303.694c.16.369.357.827.59 1.373l.777 1.825c.285.67.578 1.354.879 2.051.3.696.593 1.38.878 2.051l.777 1.825c.233.546.427 1.003.583 1.373.155.369.254.6.295.694h-1.881zm-4.491-4.602h2.58l-1.119-2.714a1.02 1.02 0 01-.078-.21 3 3 0 01-.093-.351 3.236 3.236 0 01-.094.351c-.041.13-.062.2-.062.21l-1.134 2.714zm-71.318-12.946v-8.225h2.238c.429 0 .823.057 1.181.17.358.114.667.282.927.505.26.223.462.495.605.817.143.321.214.69.214 1.106 0 .227-.022.452-.067.675a2.7 2.7 0 01-.221.647 2.54 2.54 0 01-.39.578c-.158.178-.35.327-.576.448.301.477.629 1.004.983 1.583a64.32 64.32 0 001.074 1.696h-1.481c-.15-.235-.307-.48-.469-.738-.162-.257-.324-.512-.486-.765-.162-.254-.32-.503-.475-.75a72.013 72.013 0 00-.435-.686h-1.379v2.939h-1.243zm1.243-4.107h1.119c.302 0 .554-.051.758-.153a1.373 1.373 0 00.729-.868 1.77 1.77 0 00.073-.476c0-.144-.024-.301-.073-.471a1.326 1.326 0 00-.255-.477c-.12-.147-.28-.27-.48-.368a1.671 1.671 0 00-.741-.148h-1.13v2.961zm5.855 4.107v-8.225h5.381V89.2h-4.137v2.405h3.685v1.146h-3.685v2.405h4.295v1.146h-5.539zm8.218-4.107h1.119c.302 0 .554-.053.757-.159.204-.106.364-.234.481-.386.117-.15.2-.313.249-.487.049-.174.073-.33.073-.465 0-.144-.024-.301-.073-.471a1.326 1.326 0 00-.255-.477c-.12-.147-.28-.27-.48-.368a1.671 1.671 0 00-.741-.148h-1.13v2.961zm-1.243 4.107v-8.225h2.238c.429 0 .823.057 1.181.17.358.114.667.282.927.505.26.223.461.495.605.817.143.321.214.69.214 1.106 0 .325-.049.648-.147.97a2.351 2.351 0 01-.474.862 2.42 2.42 0 01-.859.618c-.355.159-.784.239-1.289.239h-1.153v2.938h-1.243zm6.522 0v-8.225h5.38V89.2h-4.137v2.405h3.685v1.146h-3.685v2.405h4.296v1.146h-5.539zm14.163-8.225v8.599a8.356 8.356 0 00-.61-.658l-1.04-1.044a136.47 136.47 0 00-1.249-1.236 197.19 197.19 0 01-1.249-1.231c-.392-.39-.735-.737-1.029-1.044a9.18 9.18 0 01-.588-.652l-.214-.295.034.363v5.423h-1.244v-8.61c.083.105.221.257.413.453a91.374 91.374 0 001.537 1.532l.95.918c.32.31.636.615.949.914a58.028 58.028 0 011.532 1.514c.188.197.32.344.395.443l.215.317-.034-.386v-5.32h1.232zm6.703.454l-.441 1.01a7.258 7.258 0 00-.921-.273 4.02 4.02 0 00-.876-.102c-.475 0-.853.098-1.136.295-.282.197-.424.446-.424.749a.74.74 0 00.305.618c.204.155.456.295.758.42.301.124.629.25.983.374.354.125.682.286.984.482.301.197.554.445.757.743.203.299.305.683.305 1.152 0 .363-.066.69-.198.981a2.05 2.05 0 01-.587.754 2.73 2.73 0 01-.973.488c-.388.114-.842.17-1.362.17a5.39 5.39 0 01-.898-.068 4.846 4.846 0 01-.724-.175 4.108 4.108 0 01-.565-.233 7.04 7.04 0 01-.412-.227l.542-1.078c.302.174.637.314 1.006.42.369.106.705.159 1.006.159.151 0 .337-.019.56-.057a2.5 2.5 0 00.638-.198c.204-.095.379-.222.526-.38a.85.85 0 00.22-.602.905.905 0 00-.175-.561 1.644 1.644 0 00-.463-.409 4.07 4.07 0 00-.656-.317 80.762 80.762 0 01-.752-.295c-.256-.102-.506-.21-.751-.323a2.882 2.882 0 01-.656-.415 1.969 1.969 0 01-.463-.567 1.608 1.608 0 01-.175-.777 2.14 2.14 0 01.678-1.554c.226-.212.507-.382.842-.51a3.257 3.257 0 011.17-.193c.271 0 .537.022.797.068a8.102 8.102 0 011.243.317 3.1 3.1 0 01.288.114zm6.771 7.77c-.038-.083-.09-.204-.158-.362a73.553 73.553 0 01-.232-.55l-.282-.681a52.08 52.08 0 01-.311-.766h-2.894l-.972 2.36h-1.221l3.651-8.61.243.578.418 1.004a408.795 408.795 0 001.153 2.728 362.477 362.477 0 011.159 2.723l.424 1.004.243.573h-1.221zm-3.447-3.403h2.046a59.89 59.89 0 01-.3-.72l-.26-.635a80.631 80.631 0 00-.209-.505 8.125 8.125 0 01-.136-.34 3.126 3.126 0 01-.113-.408 1.94 1.94 0 01-.068.249 2.89 2.89 0 01-.056.159l-.904 2.2zm5.685 3.404v-8.225h2.238c.43 0 .824.057 1.182.17.358.114.667.282.926.505.26.223.462.495.605.817.143.321.215.69.215 1.106 0 .227-.023.452-.068.675a2.697 2.697 0 01-.22.647c-.102.207-.232.4-.39.578a2.07 2.07 0 01-.577.448c.302.477.63 1.004.984 1.583a64.32 64.32 0 001.074 1.696h-1.481a86.13 86.13 0 01-.469-.738c-.162-.257-.324-.512-.486-.765a97.639 97.639 0 01-.475-.75l-.435-.686h-1.379v2.939h-1.244zm1.244-4.107h1.119c.301 0 .554-.051.757-.153a1.355 1.355 0 00.729-.868c.049-.174.074-.333.074-.476 0-.144-.025-.301-.074-.471a1.339 1.339 0 00-.254-.477 1.42 1.42 0 00-.481-.368c-.199-.099-.446-.148-.74-.148h-1.13v2.961zm-89.085 19.176c0-1.469-.726-2.111-2.244-2.596-.648-.21-1.44-.394-1.44-.905 0-.419.26-.603.65-.603h.22c.44 0 .765.236.998.682.052.105.169.105.26.039l1.348-.904c.13-.079.078-.21.026-.289a2.963 2.963 0 00-.622-.761c-.506-.446-1.194-.694-2.036-.694h-.195c-1.777 0-2.853.97-2.853 2.596 0 1.455.778 2.032 2.166 2.517.869.302 1.517.38 1.517.97 0 .38-.26.603-.662.603h-.401c-.441 0-.766-.236-.999-.682-.052-.104-.169-.104-.26-.038l-1.348.904c-.13.079-.078.197-.026.275.143.25.312.473.518.669.52.512 1.246.8 2.14.8h.402c1.83 0 2.84-.97 2.84-2.583h.001zm17.151 2.281v-8.033c0-.105-.09-.132-.142-.132H79.88c-.066 0-.117.027-.117.132v8.033c0 .105.052.132.117.132h1.905c.079 0 .143-.027.143-.132zm-3.067-6.35v-1.683c0-.105-.078-.131-.13-.131h-5.394c-.064 0-.116.026-.116.131v8.033c0 .105.052.132.117.132h1.918c.065 0 .13-.027.13-.132v-2.958c0-.092.04-.145.156-.145h2.618c.066 0 .13-.026.13-.118v-1.696c0-.092-.064-.119-.13-.119h-2.618c-.117 0-.156-.052-.156-.144v-.907c0-.092.04-.145.156-.145h3.19c.077 0 .129-.026.129-.119v.001zm11.072 6.311l-2.713-8.027c-.026-.079-.065-.091-.117-.091h-1.416c-.078 0-.104.025-.129.091l-2.714 8.027c-.039.105.013.171.13.171h2c.064 0 .09-.027.116-.092l.35-.986c.027-.066.053-.092.157-.092h1.558c.104 0 .143.026.169.092l.337.986c.026.065.04.092.117.092h2.039c.142 0 .155-.066.117-.171h-.001zm-3.05-2.667c.012.065-.027.118-.118.118h-.753c-.104 0-.142-.052-.13-.119l.234-1.024a15.32 15.32 0 00.273-1.616h.038s.092.842.247 1.616l.208 1.025zm-38.188 2.685v-8.011c0-.104-.078-.131-.13-.131h-1.828c-.078 0-.117.027-.117.131v2.124c0 1.167.065 2.19.065 2.19h-.04s-.103-.289-.285-.63l-1.919-3.697c-.039-.079-.091-.118-.168-.118h-1.648c-.065 0-.117.027-.117.131v8.011c0 .104.052.131.117.131h1.868c.078 0 .13-.026.13-.131v-2.085c0-1.075-.078-2.111-.078-2.111h.052s.104.289.272.59l1.933 3.619c.038.065.077.118.142.118h1.62c.079 0 .13-.026.13-.131zm-7.438 0v-8.011c0-.104-.09-.131-.143-.131h-1.906c-.065 0-.117.027-.117.131v8.011c0 .104.052.131.117.131h1.906c.078 0 .143-.026.143-.131zm30.933-2.142v-3.684c0-1.495-1.128-2.465-2.788-2.465h-.907c-1.662 0-2.815.983-2.815 2.465v3.684c0 1.481 1.127 2.465 2.814 2.465h.907c1.66 0 2.789-.984 2.789-2.465zm-2.153 0c0 .314-.233.537-.636.537h-.907c-.454 0-.687-.209-.687-.537v-3.684c0-.275.31-.55.687-.55h.907c.377 0 .636.235.636.55v3.684zm-13.41 2.103l-2.71-8.011c-.027-.079-.065-.092-.117-.092h-1.413c-.078 0-.104.027-.13.092l-2.71 8.011c-.04.104.013.17.13.17h1.996c.066 0 .09-.026.118-.092l.35-.983c.025-.065.051-.092.155-.092h1.556c.105 0 .143.027.17.092l.336.983c.026.066.04.092.117.092h2.036c.143 0 .155-.065.117-.171l-.001.001zm-3.048-2.662c.013.066-.026.118-.116.118h-.753c-.104 0-.142-.052-.129-.118l.233-1.023c.182-.773.272-1.612.272-1.612h.04s.09.839.245 1.613l.209 1.022h-.001zm-15.74 2.701v-1.678c0-.092-.064-.118-.13-.118H34.52c-.117 0-.156-.052-.156-.144v-1.01c0-.092.039-.144.156-.144h2.62c.064 0 .129-.027.129-.119v-1.691c0-.092-.065-.118-.13-.118h-2.62c-.116 0-.156-.052-.156-.144v-.905c0-.091.04-.143.157-.143h3.19c.078 0 .13-.027.13-.119v-1.678c0-.104-.078-.131-.13-.131h-5.395c-.065 0-.117.027-.117.131v8.011c0 .104.052.131.117.131h5.395c.078 0 .13-.026.13-.131zm-9.11-5.415c0 .354-.247.525-.649.525h-1.414c-.116 0-.156-.052-.156-.144v-1.037c0-.091.04-.143.156-.143h1.414c.428 0 .649.196.649.55v.249zm2.399 5.375l-1.271-3.29c-.04-.118-.053-.21.065-.288.57-.368.946-.996.946-1.81v-.118c0-1.613-1.089-2.596-2.788-2.596h-3.618c-.066 0-.117.027-.117.131v8.011c0 .104.052.131.117.131h1.918c.065 0 .13-.026.13-.131v-2.95c0-.092.039-.144.155-.144h.895c.052 0 .091.026.117.091l1.193 3.042c.026.053.065.092.117.092h2.023c.13 0 .156-.079.117-.171zm35.969-23.98c0 1.06-.788 1.763-1.948 1.763h-.634c-1.177 0-1.965-.703-1.965-1.762v-2.635c0-1.06.806-1.763 1.965-1.763h.635c1.16 0 1.947.694 1.947 1.762v.506h-1.504v-.506c0-.224-.181-.393-.443-.393h-.635c-.262 0-.48.197-.48.394v2.635c0 .234.164.384.48.384h.635c.28 0 .443-.16.443-.384v-.506h1.504v.506zm-37.358 1.562v-5.734c0-.075-.037-.095-.09-.095h-1.315a.1.1 0 00-.09.057L27.2 88.282a5.733 5.733 0 00-.118.376h-.037s-.018-.169-.1-.376l-1.078-2.88a.099.099 0 00-.09-.057h-1.351c-.055 0-.082.02-.082.094v5.734c0 .074.027.094.082.094h1.278c.063 0 .09-.019.09-.094v-1.23c0-.891-.081-1.707-.081-1.707h.027s.082.394.226.816l.481 1.417c.027.075.109.094.163.094h.88c.054 0 .126-.019.154-.094l.48-1.389c.145-.422.227-.844.227-.844h.027s-.064.844-.064 1.726v1.211c0 .074.019.094.082.094h1.251c.055 0 .091-.019.091-.094zm15.084-.004v-1.201c0-.066-.046-.084-.09-.084H42.62c-.081 0-.108-.037-.108-.104v-.722c0-.066.027-.104.108-.104h1.712c.046 0 .091-.018.091-.084v-1.21c0-.066-.045-.085-.091-.085H42.62c-.081 0-.108-.037-.108-.104v-.647c0-.065.027-.103.108-.103h2.112c.053 0 .09-.019.09-.084v-1.201c0-.076-.055-.094-.09-.094H41.08c-.046 0-.082.019-.082.094v5.733c0 .075.036.094.082.094h3.651c.054 0 .09-.019.09-.094zm-4.637-1.632c0-1.052-.507-1.512-1.568-1.86-.453-.149-1.005-.28-1.005-.646 0-.301.18-.431.453-.431h.154c.308 0 .535.168.697.487.038.075.119.075.182.028l.943-.647c.09-.057.054-.15.018-.207a2.104 2.104 0 00-.436-.544c-.353-.32-.833-.497-1.423-.497h-.136c-1.241 0-1.994.694-1.994 1.858 0 1.04.544 1.454 1.514 1.801.607.216 1.06.272 1.06.695 0 .272-.18.431-.462.431h-.28c-.31 0-.536-.168-.699-.488-.036-.074-.118-.074-.181-.027l-.943.647c-.09.056-.054.14-.018.197.1.179.218.338.362.478.363.367.87.573 1.496.573h.281c1.28 0 1.985-.695 1.985-1.848zm9.877.084v-2.636c0-1.07-.789-1.764-1.95-1.764h-.634c-1.16 0-1.967.703-1.967 1.764v2.636c0 1.061.788 1.765 1.967 1.765h.634c1.161 0 1.95-.704 1.95-1.765zm-1.505 0c0 .225-.163.385-.445.385h-.634c-.317 0-.48-.15-.48-.385v-2.636c0-.198.217-.394.48-.394h.634c.264 0 .445.169.445.394v2.636zm-13.224.003V85.44c0-.075-.027-.094-.081-.094h-1.333c-.045 0-.081.02-.081.094v4.186c0 .234-.136.385-.454.385h-.634c-.335 0-.48-.15-.48-.386V85.44c0-.075-.046-.094-.082-.094h-1.315c-.054 0-.081.02-.081.094v4.186c0 1.06.78 1.764 1.958 1.764h.634c1.16 0 1.95-.704 1.95-1.765zm21.301 1.55v-5.733c0-.075-.055-.095-.09-.095h-1.28c-.053 0-.081.02-.081.095v1.52c0 .835.046 1.567.046 1.567h-.027s-.073-.206-.2-.45L53.66 85.43c-.026-.056-.063-.085-.117-.085H52.39c-.044 0-.082.02-.082.095v5.733c0 .075.038.094.082.094h1.306c.054 0 .09-.018.09-.094v-1.492c0-.77-.054-1.51-.054-1.51h.037s.072.206.19.422l1.35 2.59c.028.047.055.084.1.084h1.134c.054 0 .09-.018.09-.094zm33.278 0v-1.2c0-.066-.045-.086-.09-.086h-2.23c-.082 0-.109-.037-.109-.102V85.44c0-.075-.055-.095-.091-.095h-1.341c-.046 0-.082.02-.082.095v5.733c0 .075.036.094.082.094h3.77c.055 0 .091-.018.091-.094zm-10.01 0v-5.733c0-.075-.054-.095-.09-.095h-1.279c-.055 0-.081.02-.081.095v1.52c0 .835.044 1.567.044 1.567h-.026s-.073-.206-.2-.45l-1.342-2.647c-.027-.056-.064-.085-.118-.085h-1.15c-.046 0-.083.02-.083.095v5.733c0 .075.037.094.082.094h1.305c.055 0 .09-.018.09-.094v-1.492c0-.77-.054-1.51-.054-1.51h.037s.073.206.19.422l1.351 2.59c.027.047.054.084.1.084h1.133c.054 0 .09-.018.09-.094h.001zm-10.518 0v-5.733c0-.075-.064-.095-.1-.095h-1.333c-.044 0-.081.02-.081.095v5.733c0 .075.037.094.081.094h1.334c.054 0 .1-.018.1-.094zm15.905-.028l-1.894-5.733c-.019-.057-.046-.067-.082-.067h-.989c-.053 0-.072.02-.09.067l-1.894 5.733c-.027.075.009.122.09.122h1.396c.045 0 .064-.018.082-.065l.245-.704c.017-.047.036-.066.108-.066h1.088c.073 0 .1.019.119.066l.235.704c.018.047.027.065.082.065h1.423c.1 0 .108-.047.081-.122zm-2.13-1.904c.01.046-.018.084-.082.084h-.525c-.073 0-.1-.038-.09-.084l.162-.733c.127-.554.19-1.154.19-1.154h.028s.063.6.172 1.154l.145.733zm-8.484.384v-2.637c0-1.07-.788-1.764-1.948-1.764h-.635c-1.16 0-1.967.704-1.967 1.764v2.637c0 1.06.788 1.764 1.967 1.764h.635c1.16 0 1.948-.704 1.948-1.764zm-1.504 0c0 .225-.164.385-.444.385h-.635c-.317 0-.48-.15-.48-.385v-2.637c0-.197.217-.394.48-.394h.635c.263 0 .444.17.444.394v2.637zm-10.965 1.52l-1.895-5.734c-.018-.057-.045-.066-.082-.066h-.988c-.054 0-.072.019-.09.066l-1.895 5.733c-.027.076.01.123.09.123h1.397c.045 0 .063-.02.081-.066l.245-.703c.018-.048.036-.066.109-.066h1.087c.073 0 .1.018.119.066l.235.703c.018.047.027.066.082.066h1.423c.1 0 .109-.047.082-.123zm-2.131-1.905c.009.047-.018.085-.082.085h-.525c-.073 0-.1-.038-.091-.085l.163-.732c.127-.554.19-1.154.19-1.154h.028s.063.6.172 1.154l.145.732zm-31.18 7.839c0 1.06-.787 1.763-1.947 1.763h-.634c-1.177 0-1.965-.704-1.965-1.763v-2.636c0-1.06.806-1.762 1.965-1.762h.634c1.16 0 1.948.693 1.948 1.762v.506h-1.504v-.506c0-.224-.181-.394-.444-.394h-.634c-.262 0-.48.197-.48.394v2.636c0 .234.164.384.48.384h.634c.28 0 .444-.159.444-.384v-.506h1.504v.506zm15.464-2.935v-1.202c0-.075-.055-.093-.082-.093h-3.96c-.045 0-.091.018-.091.093v1.202c0 .065.045.085.09.085h1.111c.1 0 .117.037.117.102v4.347c0 .074.037.093.082.093h1.333c.044 0 .09-.02.09-.094v-4.346c0-.065.018-.102.109-.102h1.12c.044 0 .081-.02.081-.085zm-5.043 4.534v-5.736c0-.075-.054-.093-.09-.093h-1.278c-.055 0-.082.018-.082.093v1.52c0 .836.046 1.568.046 1.568h-.028s-.072-.206-.199-.45l-1.341-2.647c-.028-.057-.064-.084-.118-.084h-1.151c-.046 0-.082.018-.082.093v5.736c0 .074.036.093.082.093h1.305c.054 0 .09-.018.09-.094v-1.492c0-.77-.054-1.511-.054-1.511h.037s.072.206.19.422l1.35 2.59c.027.047.055.085.1.085h1.133c.055 0 .09-.018.09-.094zm15.923-1.597v-2.638c0-1.071-.788-1.765-1.949-1.765h-.634c-1.16 0-1.967.704-1.967 1.765v2.637c0 1.06.788 1.765 1.967 1.765h.634c1.16 0 1.949-.704 1.949-1.765zm-1.504 0c0 .225-.164.384-.445.384h-.634c-.318 0-.48-.15-.48-.385v-2.637c0-.197.217-.394.48-.394h.634c.263 0 .445.168.445.394v2.637zm-3.733 1.568l-.888-2.357c-.027-.084-.036-.149.045-.206.4-.262.662-.713.662-1.295v-.085c0-1.154-.761-1.858-1.948-1.858h-2.53c-.045 0-.081.02-.081.094v5.736c0 .074.036.093.082.093h1.341c.045 0 .09-.018.09-.094v-2.112c0-.066.027-.103.11-.103h.625c.037 0 .063.019.081.065l.834 2.179c.018.037.045.065.082.065h1.414c.09 0 .109-.056.081-.122zm-1.675-3.848c0 .253-.173.375-.454.375h-.989c-.082 0-.108-.037-.108-.104v-.74c0-.066.026-.103.108-.103h.989c.298 0 .453.14.453.394v.178zm-14.473 3.876v-1.201c0-.066-.045-.085-.09-.085h-2.23c-.082 0-.109-.037-.109-.103v-.723c0-.066.027-.103.109-.103h1.83c.045 0 .092-.019.092-.085v-1.21c0-.066-.046-.085-.091-.085h-1.831c-.082 0-.109-.037-.109-.103v-.647c0-.066.027-.104.109-.104h2.23c.054 0 .09-.019.09-.084v-1.202c0-.075-.054-.093-.09-.093h-3.77c-.046 0-.083.018-.083.093v5.736c0 .074.037.093.082.093h3.77c.055 0 .091-.018.091-.094zm56.058 0v-1.201c0-.066-.046-.085-.091-.085h-2.23c-.082 0-.108-.037-.108-.103v-.723c0-.065.026-.103.108-.103h1.83c.046 0 .091-.019.091-.084v-1.212c0-.065-.044-.084-.09-.084h-1.83c-.082 0-.11-.037-.11-.103v-.648c0-.065.028-.102.11-.102h2.229c.054 0 .09-.02.09-.085v-1.202c0-.075-.054-.093-.09-.093H86.05c-.045 0-.082.018-.082.093v5.736c0 .074.037.093.082.093h3.771c.054 0 .09-.02.09-.094zm-5.022-4.533v-1.202c0-.075-.055-.093-.082-.093h-3.962c-.044 0-.09.018-.09.093v1.202c0 .065.045.085.09.085h1.111c.1 0 .118.037.118.102v4.347c0 .074.036.093.081.093h1.333c.044 0 .09-.02.09-.094v-4.346c0-.065.018-.102.109-.102h1.12c.044 0 .081-.02.081-.085h.001zm-17.466 4.534v-1.202c0-.066-.045-.085-.091-.085h-2.23c-.082 0-.108-.037-.108-.103v-.723c0-.065.026-.103.108-.103h1.831c.046 0 .091-.019.091-.084v-1.212c0-.065-.045-.084-.09-.084h-1.832c-.082 0-.108-.037-.108-.103v-.648c0-.065.026-.102.108-.102h2.23c.055 0 .09-.02.09-.085v-1.202c0-.075-.054-.093-.09-.093h-3.77c-.046 0-.082.018-.082.093v5.736c0 .074.036.093.082.093h3.77c.055 0 .09-.02.09-.094zm-6.597-1.672c0 .198-.199.385-.453.385h-.988c-.082 0-.109-.037-.109-.103v-2.957c0-.065.028-.102.109-.102h.989c.244 0 .452.205.452.394v2.383zm1.496-.074v-2.225c0-1.154-.762-1.858-1.948-1.858h-2.53c-.045 0-.081.018-.081.093v5.736c0 .074.036.093.081.093h2.53c1.186 0 1.948-.704 1.948-1.84zm17.995 1.717l-.888-2.357c-.027-.084-.036-.149.045-.206.4-.262.662-.713.662-1.295v-.085c0-1.153-.761-1.858-1.948-1.858h-2.53c-.044 0-.08.02-.08.094v5.736c0 .074.036.093.08.093h1.342c.045 0 .09-.018.09-.094v-2.112c0-.065.028-.103.11-.103h.625c.037 0 .064.02.081.066l.835 2.177c.017.037.044.066.081.066h1.414c.09 0 .108-.056.082-.122zm-1.676-3.848c0 .253-.172.375-.453.375H77.2c-.081 0-.108-.037-.108-.104v-.74c0-.066.027-.103.108-.103h.989c.298 0 .453.14.453.394v.178zM74.8 98.65l-1.895-5.735c-.018-.056-.044-.065-.082-.065h-.987c-.054 0-.073.018-.09.065L69.85 98.65c-.027.075.01.122.09.122h1.397c.045 0 .063-.018.081-.066l.246-.703c.017-.047.035-.067.108-.067h1.087c.073 0 .1.02.118.067l.236.703c.018.048.027.066.082.066h1.423c.1 0 .108-.047.082-.122zm-2.13-1.905c.008.046-.018.084-.082.084h-.526c-.072 0-.1-.037-.09-.084l.163-.733c.126-.553.19-1.154.19-1.154h.028s.063.6.172 1.154l.145.733z"/><path d="M21.974 101.145H92.28v-18.17H21.975l-.002 18.17zm70.308 1.974H21.975v13.033H92.28v-13.033zM20 118.127h74.255V81H20v37.127z"/></g><defs><clipPath id="clip0"><path fill="#fff" transform="translate(20 81)" d="M0 0h160v37.895H0z"/></clipPath></defs></svg>