<svg width="200" height="200" fill="none" xmlns="http://www.w3.org/2000/svg"><path fill="#fff" d="M0 0h200v200H0z"/><path fill-rule="evenodd" clip-rule="evenodd" d="M33.722 103.345c-2.826 1.706-6.052 1.973-7.199-.16 9.946.693 5.386-12.026-1.573-6.987-1.28-4.346 2.853-7.892 8.026-5.466l.08-4.853c-6.533-2.96-17.358 2.454-11.252 14.426-1.627 8.372 7.332 11.305 14.158 6.853 1.173 1.306 4.213 2.293 7.093.426l.053-3.706c-1.626 1.36-4.4 1.04-3.573.026 8.506-18.264-8.559-18.984-5.813-.559zm-6.159-3.067c-.533 0-.933-.427-.933-.96 0-.533.453-.933.96-.933.533 0 .933.427.933.96 0 .533-.427.933-.96.933z" fill="#000"/><path d="M36.869 97.798c-.187 1.387 0 2.56.4 2.614.427.053.906-1.014 1.093-2.4.187-1.387 0-2.56-.4-2.613-.4-.054-.88 1.013-1.093 2.4z" fill="#000"/><path fill-rule="evenodd" clip-rule="evenodd" d="M62.6 106.811c-20.478 12.719-25.385-23.598-2.613-20.078l-.107 4.346c-16.292-4.186-12.212 21.385.267 12.026-.854-4.32 4.666-5.813 4.8-2.773-.108 1.439-.028 3.839 1.732 3.946 1.707.133 2.853-1.84.96-2.107-7.306-2.453.96-13.412 5.28-4.4 1.866.028 3.493.614 4.56 2.187.133-.773 1.733-1.653 2.96-1.333l-.054 3.84c-1.227.053-2.213.613-2.187 1.973l-.053 3.866-3.386-.053.053-3.706c.027-1.04-.693-1.734-2.24-1.734-.053 3.12-4.853 7.226-9.972 4zm6.24-7.68a.729.729 0 01-.694-.72c0-.4.32-.72.72-.692.4.026.693.346.693.72 0 .4-.32.693-.72.693zm14.051-.319l.667-8.426 3.733-.027-.827 8.933 1.147.026c5.973-11.705 17.278-.426 4.773 4.773 1.626 2.267 4.106 1.333 6.106-.053l-.08 4.319c-2.507 2.427-8.853 2.214-10.692-3.439-.587-1.627-1.6-1.28-1.574-.747l-.08 4.666-3.733-.053.107-6.159-.88-.054.053-3.786 1.28.027zm8.986 1.706c-.32-.213-.187-.933.293-1.6.454-.666 1.12-1.013 1.44-.773.32.213.187.933-.293 1.6s-1.12 1.013-1.44.773zm14.799-3.466l-1.014-16.025 4-.027.933 14.132c1.92-.187 5.066.32 6.56 3.813 1.733-2.293 8.159-3.653 8.719 4.906l-.08 4.853-4.32-.08.08-4.933c0-2.693-3.093-2.746-3.173-.133l-.106 6.079-4.08-.053-.267-7.253c-.293-2.239-3.733-3.6-2.933-.426l.023.213c.251 2.271 1.845 16.686-4.769 17.198-6.32-.4-5.573-16.425.427-22.264zm-.16 15.865c-.4-.027-.667-1.973-.534-4.346.107-2.373.56-4.266.987-4.266.427.026.667 1.973.533 4.346-.133 2.373-.56 4.293-.986 4.266z" fill="#000"/><path d="M134.3 113.584c-.053.56.293 1.066.773 1.093.48.053.907-.373.96-.96.053-.56-.293-1.067-.773-1.12-.48-.027-.907.4-.96.987z" fill="#000"/><path fill-rule="evenodd" clip-rule="evenodd" d="M134.407 118.916c5.146.48 5.919-4.612 5.599-7.652l4.746-3.28c1.573 3.067 8.453 2.773 11.706.8 1.36 1.093 4.853.613 5.946-.293l9.732-5.786c2.933-1.76 3.68 1.066 2.747 2.053-1.44 1.44-4.186 2.24-4.826 2.373l-.08 4.319c10.985-.373 13.252-13.625 5.252-13.598-2.577-.21-6.168 1.976-9.383 3.933-2.105 1.281-4.049 2.465-5.442 2.813 4.133-9.6-12.372-10.293-8.586 1.6-1.706.746-3.199.133-3.813-.8 3.733-4.8 5.333-12.48-.72-13.572-3.679-.64-7.492 5.706-4.772 13.385-.827.347-2.48.853-2.48.853l.08-5.599-4.053-.053c-1.12 2.986-4.133 4.506-4.666 3.919-.614-2.133 2.239-4.4 7.705-4.666l.08-4.266c-7.092.24-11.732 3.893-12.505 8.079-.267 6.133 5.333 5.839 8.799 3.413l-.027 1.36c-6.666 2.453-6.612 10.106-1.039 10.665zm11.145-20.158c-.213 1.307-.053 2.427.347 2.48.4.08.88-.933 1.093-2.24.213-1.306.053-2.426-.347-2.48-.4-.08-.88.934-1.093 2.24zm10.826 5.36c-.56 0-.987-.693-.987-1.547.027-.853.48-1.519 1.04-1.519s.987.693.987 1.546c-.027.853-.48 1.52-1.04 1.52z" fill="#000"/><path d="M169.337 89.88l2.079 3.599-8.345 5.2-2.587-3.28 8.853-5.52z" fill="#000"/></svg>