<svg width="200" height="200" fill="none" xmlns="http://www.w3.org/2000/svg"><path fill="#fff" d="M0 0h200v200H0z"/><g clip-path="url(#clip0)"><path fill-rule="evenodd" clip-rule="evenodd" d="M171.032 128h10.186v-10.185h-10.186V128zm7.468-6.693c.205-.102.409-.202.714-.382.233.354.293 1.168.301 1.817.21-.413.459-1.955.35-2.236.322-.209.373-.311.437-.44l.039-.075-.234.019c-.242.018-.406.03-.566.081-.523-.322-1.61-.651-2.495-.72.273.113 1.394.721 1.535.916-.599.082-1.728.422-2.299.725.656-.147 1.575-.221 2.204-.251a7.316 7.316 0 01-.781.975c.352-.211.574-.321.795-.429zm-4.81 4.594c.286.27.545.425.911.561a3.708 3.708 0 01-1.005-.16c-.024.237-.01.42.055.647a2.73 2.73 0 01-.598-.854 6.183 6.183 0 01-.783-.427c.19-.086.356-.147.586-.209-.073-.41-.05-.778.004-1.292.107.487.2.831.408 1.2.255-.05.47-.085.766-.127a2.718 2.718 0 00-.344.661zm1.852-4.572c-.114.143-.246.42-.284.544.937.13 1.689.613 1.689.613-.819-.148-1.253-.13-1.553-.103-.307.029-.365.07-.365.07-.217.48-.352 1.308-.352 1.308-.149-.352-.364-1.075-.364-1.075-.413.221-1.358 1.114-1.358 1.114.521-1.047 1.048-1.524 1.048-1.524-.178-.183-.657-.273-1.005-.293.18-.075.648-.16 1.003-.172.354-.016.573.007.573.007.316-.25.8-.465.968-.489zm.5 5.092c.182-.204.323-.383.486-.61l.004.061c.008.129.014.233.029.352.3-.142.523-.275.784-.459a7.747 7.747 0 01-.754.686c.027.124.046.193.073.288a2.043 2.043 0 01-.429.027c-.306.183-.73.319-1.052.399.191-.12.359-.249.551-.431a2.311 2.311 0 01-.562-.193c.302-.001.553-.035.87-.12zm-58.099-3.975c0 .247-.019.493-.019.738 0 .181.01.318.019.452.037.006.233.006.358.006.394 0 .94-.109.94-.618 0-.495-.56-.584-.983-.584-.054 0-.261 0-.315.006zm.669-.52c.81 0 1.789.226 1.789 1.098 0 .765-.695 1.145-2.1 1.145-.085 0-.312 0-.377-.006.028.522.023 1.154.056 1.509h-1.226c.05-.514.062-1.361.062-1.966 0-.539-.012-1.425-.062-1.78h1.858zm-4.96 0c-.02.253-.029.509-.029.772v1.785c0 .486.155.771.635.771.415 0 .822-.165.822-.929v-1.818c0-.38-.008-.421-.031-.581h1.031c-.041.327-.041.938-.041 1.545v1.064c0 .86-.603 1.234-1.797 1.234-1.082 0-1.745-.23-1.745-1.292v-1.368c0-.352-.016-.917-.055-1.183h1.21zm9.104.383c-.539 0-.877.528-.877 1.496 0 .964.338 1.482.877 1.482.537 0 .866-.518.866-1.482 0-.968-.329-1.496-.866-1.496zm0 3.47c-1.163 0-2.035-.803-2.035-1.974 0-1.183.872-1.977 2.035-1.977 1.158 0 2.03.794 2.03 1.977 0 1.171-.872 1.974-2.03 1.974zm-12.847-3.853c.819 0 1.795.291 1.795 1.162 0 .464-.344.798-.888 1.012.113.196 1.02 1.376 1.2 1.572h-1.336a22.647 22.647 0 00-1.134-1.891c.538.071 1-.184 1-.701 0-.497-.568-.64-.843-.64-.13 0-.36 0-.448.006a38.039 38.039 0 00-.026 1.26c0 .323 0 1.4.064 1.966h-1.246c.061-.554.075-1.217.075-1.966 0-.631-.01-1.397-.065-1.78h1.852zm-2.604 1.926c-.02.367-.043 1.145-.055 1.593-.402.204-1.035.324-1.643.324-1.387 0-2.276-.873-2.276-1.951 0-1.134.931-1.99 2.449-1.99.347 0 .867.055 1.233.144l-.269.741a2.119 2.119 0 00-.978-.292c-.873 0-1.186.777-1.186 1.405 0 1.047.562 1.39 1.193 1.39.073 0 .315-.008.394-.029 0-.453-.006-1.029-.04-1.335h1.178zm58.744-2.023c.48 0 .944.068 1.236.16v.953c-.41-.236-.812-.44-1.344-.44-.42 0-.451.17-.451.296 0 .631 2.128.639 2.128 1.773 0 .735-.688 1.199-1.83 1.199-.513 0-.999-.103-1.33-.225v-.909c.782.369 1.198.49 1.56.49.29 0 .505-.133.505-.386 0-.716-2.12-.647-2.12-1.861 0-.666.666-1.05 1.646-1.05zm-3.683 2.455c-.146-.363-.347-.812-.444-1.127-.103.322-.327.812-.437 1.127.138.006.325.013.451.013.175 0 .262-.007.43-.013zm.103-2.358c.138.443 1.372 3.142 1.657 3.746h-1.228c-.047-.147-.146-.348-.325-.821-.187-.007-.38-.007-.637-.007-.25 0-.432.007-.631.014-.112.309-.209.553-.299.814h-1.064c.205-.464 1.435-3.147 1.653-3.746h.874zm-4.869.474c-.184 0-.362.012-.452.027-.021.486-.028.723-.028 1.28 0 .675 0 .923.028 1.46h.541c.637 0 .941-.19.941-.578 0-.431-.394-.633-.915-.633h-.311l.214-.566h.228c.265 0 .616-.138.616-.477 0-.363-.324-.513-.862-.513zm.566-.474c.691 0 1.448.253 1.448.89 0 .345-.299.663-.742.814.592.216.929.557.929 1 0 .781-.944 1.042-1.83 1.042h-2.029c.048-.485.062-1.188.062-1.965 0-.513-.008-1.295-.057-1.781h2.219zm-3.028 0a39.112 39.112 0 00-.048 1.787c0 .333 0 1.445.048 1.959h-1.232c.062-.567.067-1.642.067-1.959 0-.354-.019-1.361-.045-1.787h1.21zm-3.824 0c.817 0 1.794.293 1.794 1.163 0 .464-.346.797-.886 1.012.11.196 1.017 1.376 1.198 1.571h-1.336a24.535 24.535 0 00-1.13-1.89c.533.071.999-.185.999-.701 0-.496-.569-.639-.847-.639-.124 0-.361 0-.445.006a37.936 37.936 0 00-.026 1.259c0 .323 0 1.398.06 1.965h-1.244c.061-.552.074-1.216.074-1.965 0-.631-.006-1.397-.06-1.781h1.849zm-4.052 2.358c-.148-.363-.35-.812-.445-1.127-.104.322-.324.812-.437 1.127.139.006.326.013.452.013.171 0 .264-.007.43-.013zm.102-2.358c.14.443 1.372 3.142 1.656 3.746h-1.225c-.048-.147-.146-.348-.326-.821-.187-.007-.381-.007-.637-.007-.25 0-.43.007-.633.014-.11.309-.205.553-.296.814h-1.066c.207-.464 1.433-3.147 1.656-3.746h.871zm-4.64.522c0 .247-.012.494-.012.738 0 .178.005.317.012.451.042.006.236.006.361.006.395 0 .943-.109.943-.617 0-.496-.561-.584-.985-.584-.054 0-.261 0-.319.006zm.672-.522c.813 0 1.789.227 1.789 1.1 0 .764-.693 1.144-2.1 1.144-.082 0-.311 0-.373-.006.026.521.02 1.153.054 1.508h-1.225c.048-.514.061-1.361.061-1.965 0-.538-.013-1.425-.061-1.781h1.855zm-6.325.522c0 .247-.013.494-.013.738 0 .178.007.317.013.451.042.006.236.006.361.006.395 0 .941-.109.941-.617 0-.496-.562-.584-.984-.584-.055 0-.263 0-.318.006zm.671-.522c.812 0 1.79.227 1.79 1.1 0 .764-.693 1.144-2.1 1.144-.085 0-.311 0-.374-.006.027.521.021 1.153.055 1.508h-1.227c.05-.514.062-1.361.062-1.965 0-.538-.012-1.425-.062-1.781h1.856zm-2.722 0a32.798 32.798 0 00-.055 1.781c0 .339.007 1.451.055 1.965h-.879l-1.414-2.089a1.263 1.263 0 01-.233-.514v1.186c0 .454.012 1.094.053 1.417h-1.006c.063-.567.069-1.642.069-1.965 0-.354-.019-1.355-.047-1.781h1.143l1.193 1.948a.828.828 0 01.111.227v-2.175h1.01zm-6.318.474c-.182 0-.361.012-.451.027-.02.486-.028.723-.028 1.28 0 .675 0 .923.028 1.46h.541c.638 0 .94-.19.94-.578 0-.431-.393-.633-.913-.633h-.312l.217-.566h.226c.262 0 .616-.138.616-.477 0-.363-.326-.513-.864-.513zm.567-.474c.693 0 1.45.253 1.45.89 0 .345-.298.663-.744.814.591.216.93.557.93 1 0 .781-.943 1.042-1.83 1.042h-2.031c.051-.485.064-1.188.064-1.965 0-.513-.006-1.295-.056-1.781h2.217zm-16.003-11.987a2.457 2.457 0 01-2.454-2.461V75.543a2.457 2.457 0 012.454-2.462 2.458 2.458 0 012.454 2.462v31.935a2.457 2.457 0 01-2.454 2.461zm68.187-15.642c-.014-5.477-4.459-9.94-9.921-9.94-2.979 0-5.647 1.329-7.468 3.42-1.819-2.091-4.488-3.42-7.467-3.42-5.466 0-9.914 4.463-9.921 9.946l-.001 13.175a2.457 2.457 0 002.454 2.461 2.457 2.457 0 002.454-2.461V94.312c0-2.773 2.25-5.033 5.014-5.033 2.765 0 5.015 2.26 5.015 5.033v13.166a2.456 2.456 0 002.453 2.461 2.457 2.457 0 002.454-2.461v-13.17c.001-2.771 2.25-5.029 5.013-5.029 2.764 0 5.014 2.264 5.014 5.037l.001 13.162a2.457 2.457 0 002.454 2.461 2.456 2.456 0 002.453-2.461l-.001-13.181zM80.06 105.016c-2.764 0-4.763-2.256-4.763-5.03V89.322h5.094a2.24 2.24 0 002.236-2.244 2.24 2.24 0 00-2.236-2.243h-5.094v-5.488a2.457 2.457 0 00-2.454-2.461 2.457 2.457 0 00-2.454 2.46v20.642c0 5.488 4.2 9.952 9.67 9.952a2.457 2.457 0 002.455-2.461 2.458 2.458 0 00-2.454-2.462zm43.882-10.076c.622-3.67 4.026-6.28 7.682-6.28 3.893 0 6.882 3.314 7.438 6.28h-15.12zm19.768 1.161c0-7.025-6.249-11.745-12.086-11.745-7.005 0-12.704 5.717-12.704 12.744 0 7.319 5.564 12.839 12.941 12.839 3.911 0 6.836-1.409 8.218-2.241.657-.386 1.201-1.172 1.201-2.057a2.214 2.214 0 00-2.24-2.199c-.387 0-.867.146-1.248.338-1.513.843-3.552 1.76-5.931 1.76-3.799 0-7.136-2.302-7.916-6.112h16.687c1.64 0 3.078-1.554 3.078-3.327zM47.654 94.94c.623-3.67 4.027-6.28 7.682-6.28 3.894 0 6.883 3.314 7.438 6.28h-15.12zm19.769 1.161c0-7.025-6.25-11.745-12.087-11.745-7.004 0-12.703 5.717-12.703 12.744 0 7.319 5.563 12.839 12.94 12.839 3.912 0 6.836-1.409 8.219-2.241.656-.386 1.201-1.172 1.201-2.057a2.215 2.215 0 00-2.24-2.199c-.388 0-.868.146-1.249.338-1.512.843-3.552 1.76-5.93 1.76-3.8 0-7.136-2.302-7.916-6.112h16.687c1.64 0 3.078-1.554 3.078-3.327zm20.808-1.161c.623-3.67 4.026-6.28 7.682-6.28 3.894 0 6.883 3.314 7.438 6.28h-15.12zM108 96.102c0-7.025-6.25-11.745-12.087-11.745-7.004 0-12.703 5.717-12.703 12.744 0 7.319 5.563 12.839 12.94 12.839 3.911 0 6.836-1.409 8.218-2.241.657-.386 1.202-1.172 1.202-2.057a2.215 2.215 0 00-2.241-2.199c-.387 0-.866.146-1.248.338-1.512.843-3.552 1.76-5.93 1.76-3.8 0-7.137-2.302-7.916-6.112h16.686c1.64 0 3.079-1.554 3.079-3.327z" fill="#000"/><mask id="mask0" maskUnits="userSpaceOnUse" x="18" y="84" width="23" height="26"><path d="M18 84.356h22.456v25.583H18V84.356z" fill="#fff"/></mask><g mask="url(#mask0)"><path fill-rule="evenodd" clip-rule="evenodd" d="M30.73 109.939a12.664 12.664 0 01-9.006-3.741c-4.966-4.988-4.966-13.105 0-18.094a12.621 12.621 0 019.006-3.748c3.403 0 6.601 1.331 9.007 3.748a2.472 2.472 0 010 3.486 2.445 2.445 0 01-3.47 0 7.76 7.76 0 00-5.537-2.303 7.76 7.76 0 00-5.536 2.303c-3.053 3.066-3.053 8.057 0 11.123a7.814 7.814 0 0011.073 0 2.445 2.445 0 013.47 0 2.471 2.471 0 010 3.485 12.664 12.664 0 01-9.006 3.741z" fill="#000"/></g><path fill-rule="evenodd" clip-rule="evenodd" d="M38.668 118.228H21.753a2.24 2.24 0 01-2.236-2.243 2.24 2.24 0 012.236-2.244h16.915a2.24 2.24 0 012.236 2.244 2.24 2.24 0 01-2.236 2.243z" fill="#000"/></g><defs><clipPath id="clip0"><path fill="#fff" transform="translate(18 73)" d="M0 0h163.472v55H0z"/></clipPath></defs></svg>