<svg width="200" height="200" fill="none" xmlns="http://www.w3.org/2000/svg"><path fill="#fff" d="M0 0h200v200H0z"/><g clip-path="url(#clip0)" fill="#000"><path d="M175.331 112.033h3.64v-.956h-2.568v-5.073h-1.072v6.029zm-11.029-2.307l.946-2.451.928 2.451h-1.874zm-2.118 2.307h1.198l.55-1.379h2.613l.559 1.379h1.225l-2.595-6.029h-.928l-2.622 6.029zm-12.309 0h1.072v-4.659h.018l2.866 4.659h1.36v-6.029h-1.072v4.515h-.018l-2.803-4.515h-1.423v6.029zm-12.616-3.902c.1-.271.244-.496.425-.694a1.976 1.976 0 011.495-.64c.315 0 .595.054.856.171.253.118.477.271.658.469.18.198.324.433.423.694.099.27.154.558.154.865 0 .324-.045.622-.154.892-.099.27-.243.505-.423.703a2.127 2.127 0 01-.658.468 2.095 2.095 0 01-.838.163c-.306 0-.586-.054-.838-.163a1.876 1.876 0 01-.658-.468 1.985 1.985 0 01-.423-.703c-.1-.27-.153-.568-.153-.892-.01-.315.035-.604.134-.865zm-1.071 2.153c.161.388.387.721.675 1.01.288.279.631.495 1.018.657.397.154.82.235 1.289.235.468 0 .91-.081 1.307-.235a3.055 3.055 0 001.027-.657c.288-.28.514-.613.675-1.01a3.3 3.3 0 00.244-1.288c0-.478-.081-.919-.244-1.307a2.837 2.837 0 00-.675-.991 2.994 2.994 0 00-1.027-.631 3.793 3.793 0 00-1.307-.216c-.469 0-.892.072-1.289.216a2.873 2.873 0 00-1.018.631c-.288.27-.514.604-.675.991-.163.388-.244.82-.244 1.307 0 .468.081.901.244 1.288zm-8.759 1.749h1.072v-6.029h-1.072v6.029zm-7.164-5.272a1.536 1.536 0 00-.433-.405 2.84 2.84 0 00-.549-.289 2.734 2.734 0 00-.604-.171 3.808 3.808 0 00-1.901.162 3.117 3.117 0 00-1.037.631c-.288.27-.522.604-.684.991-.172.388-.253.82-.253 1.307 0 .468.081.901.234 1.288.163.388.379.721.667 1.01.289.279.622.495 1.019.657.396.163.829.235 1.297.235.514 0 .973-.09 1.352-.28.387-.189.712-.441.982-.775l-.865-.603a1.665 1.665 0 01-.604.504c-.252.126-.54.19-.856.19-.315 0-.595-.054-.847-.163a1.827 1.827 0 01-.64-.459 2.106 2.106 0 01-.414-.703 2.629 2.629 0 01-.144-.901c0-.316.054-.604.153-.865.099-.271.243-.496.423-.694.181-.198.406-.351.658-.469a2.02 2.02 0 01.856-.171c.244 0 .496.045.748.144.252.099.46.253.622.478l.82-.649zm-16.048 2.965l.946-2.451.928 2.451h-1.874zm-2.118 2.307h1.198l.541-1.379h2.613l.559 1.379h1.226l-2.596-6.029h-.928l-2.613 6.029zm-12.31 0h1.073v-4.659h.018l2.866 4.659h1.36v-6.029h-1.072v4.515h-.018l-2.802-4.515H89.79v6.029zm-17.66-3.902c.099-.271.243-.496.423-.694a1.979 1.979 0 011.496-.64c.315 0 .594.054.847.171.252.118.477.271.657.469.18.198.325.433.424.694.1.27.153.558.153.865 0 .324-.054.622-.153.892-.1.27-.243.505-.424.703a2.135 2.135 0 01-.657.468c-.253.109-.54.163-.838.163-.307 0-.586-.054-.838-.163a1.876 1.876 0 01-.658-.468 1.985 1.985 0 01-.424-.703 2.576 2.576 0 01-.153-.892 2.08 2.08 0 01.144-.865zm-1.082 2.153c.162.388.388.721.676 1.01.288.279.63.495 1.018.657a3.54 3.54 0 001.289.235 3.6 3.6 0 001.306-.235 3.045 3.045 0 001.028-.657c.288-.28.513-.613.675-1.01.162-.387.244-.82.244-1.288 0-.478-.082-.919-.244-1.307a2.85 2.85 0 00-.675-.991 2.985 2.985 0 00-1.028-.631 3.789 3.789 0 00-1.306-.216c-.469 0-.892.072-1.289.216a2.863 2.863 0 00-1.018.631 2.85 2.85 0 00-.676.991 3.35 3.35 0 00-.243 1.307c0 .468.08.901.243 1.288zm-11.552 1.749h4.145v-.956h-3.073v-1.703h2.767v-.901h-2.767v-1.532h2.92v-.937h-3.992v6.029zm-7.515-5.542a2.283 2.283 0 00-.82-.487 2.852 2.852 0 00-.937-.162c-.27 0-.54.036-.802.108-.261.072-.496.18-.703.325a1.64 1.64 0 00-.505.549 1.593 1.593 0 00-.189.793c0 .289.045.523.135.712.09.189.208.352.352.478.144.135.306.234.486.315.18.081.36.144.55.207.19.063.37.126.54.181.172.054.316.126.442.198a.962.962 0 01.297.27.684.684 0 01.109.397.852.852 0 01-.1.414.936.936 0 01-.252.279 1.249 1.249 0 01-.351.163 1.885 1.885 0 01-.379.045c-.234 0-.477-.063-.73-.181a1.575 1.575 0 01-.594-.486l-.766.712c.234.288.54.495.919.64.378.144.757.216 1.153.216.298 0 .577-.036.847-.117a2.1 2.1 0 00.703-.361c.198-.162.36-.36.478-.604.117-.243.18-.522.18-.847 0-.297-.054-.54-.162-.738a1.6 1.6 0 00-.424-.496 2.524 2.524 0 00-.567-.316 9.85 9.85 0 00-.604-.216c-.171-.054-.325-.099-.469-.153a1.493 1.493 0 01-.36-.18.853.853 0 01-.235-.243.73.73 0 01-.09-.352.73.73 0 01.1-.378.753.753 0 01.252-.253 1.06 1.06 0 01.342-.144 1.36 1.36 0 01.379-.045c.207 0 .414.045.621.144.208.099.37.226.478.37l.676-.757zm-11.453-.496h-1.072v3.776c0 .18-.018.351-.072.522a1.319 1.319 0 01-.226.469 1.276 1.276 0 01-.414.333c-.171.091-.388.127-.64.127s-.469-.045-.64-.127a1.095 1.095 0 01-.414-.333 1.189 1.189 0 01-.225-.469 2.08 2.08 0 01-.073-.522v-3.776H35.68v3.812c0 .36.063.694.18.982.126.297.289.541.514.748.216.207.477.36.766.469.297.108.612.162.964.162.342 0 .667-.054.964-.162.297-.109.55-.271.766-.469.216-.207.388-.451.514-.748a2.45 2.45 0 00.189-.982v-3.812h-.01zm-19.05 6.038h1.019v-4.848h.018l1.802 4.848h.748l1.83-4.848h.017v4.848h1.064v-6.029H26.29l-1.55 4.28h-.027l-1.568-4.28h-1.676v6.029h.009zm152.737-19.464l1.351-3.514 1.334 3.514h-2.685zm-3.028 3.298h1.721l.784-1.983h3.748l.803 1.983h1.756l-3.721-8.65h-1.333l-3.758 8.65zm-8.164 0h6.605v-1.37h-4.803l4.731-5.884v-1.397h-6.461v1.343h4.632l-4.704 5.911v1.397zm-2.298-7.939a3.3 3.3 0 00-1.18-.694A4.158 4.158 0 00158.21 87c-.387 0-.775.054-1.153.153-.378.1-.712.261-1.01.469a2.4 2.4 0 00-.72.784c-.181.315-.28.694-.28 1.135 0 .406.063.748.199 1.018.126.27.297.505.504.694.207.19.442.343.703.45.261.118.523.217.784.298.27.09.522.171.766.261.243.082.459.18.63.289a1.5 1.5 0 01.433.387.96.96 0 01.162.568c0 .234-.045.432-.144.595-.09.162-.216.288-.37.396a1.41 1.41 0 01-.504.225 2.339 2.339 0 01-1.594-.189 2.233 2.233 0 01-.848-.694l-1.099 1.028c.343.405.784.711 1.315.919a4.584 4.584 0 001.649.315 4.08 4.08 0 001.208-.171 3.083 3.083 0 001-.514 2.41 2.41 0 00.685-.865c.172-.342.252-.748.252-1.216 0-.424-.08-.775-.234-1.064a2.24 2.24 0 00-.613-.712 3.147 3.147 0 00-.82-.45 14.436 14.436 0 00-.865-.306 11.562 11.562 0 01-.666-.217 2.551 2.551 0 01-.523-.252 1.121 1.121 0 01-.333-.351.965.965 0 01-.127-.505c0-.207.045-.396.145-.54.09-.154.216-.271.36-.37.144-.09.306-.162.486-.207.181-.045.361-.063.541-.063.298 0 .604.072.902.216.297.144.522.315.693.532l1-1.118zm-10.074 7.939h1.541v-8.65h-1.541v8.65zm-12.462 0h1.468v-6.948h.028l2.586 6.948h1.072l2.622-6.948h.027v6.948h1.532v-8.65h-2.415l-2.226 6.145h-.036l-2.243-6.146h-2.406v8.65h-.009zm-8.668 0h5.946v-1.37h-4.405v-2.442h3.964v-1.297h-3.964v-2.2h4.189v-1.342h-5.73v8.65zm-10.751 0h1.541V89.19h.027l4.1 6.677h1.955v-8.65h-1.541v6.47h-.027l-4.018-6.47h-2.037v8.65zm-7.362-4.92v-2.433h1.397c.198 0 .396.018.604.045.207.036.396.09.559.18.162.09.297.207.405.36a.97.97 0 01.162.577c0 .262-.054.478-.171.64a1.185 1.185 0 01-.433.388 1.7 1.7 0 01-.595.18 5.462 5.462 0 01-.657.045h-1.271v.018zm-1.541 4.92h1.541v-3.668h1.127l2 3.668h1.856l-2.307-3.839c.613-.135 1.091-.405 1.451-.802.352-.396.532-.91.532-1.532 0-.46-.09-.838-.27-1.162a2.16 2.16 0 00-.713-.766 3.113 3.113 0 00-1.017-.424 5.186 5.186 0 00-1.19-.126h-3.001v8.65h-.009zM99.747 90.27a3.1 3.1 0 01.604-1c.261-.289.577-.514.937-.676a2.93 2.93 0 011.216-.243c.451 0 .857.08 1.226.243.369.162.676.387.937.676.261.288.459.621.604 1 .144.378.216.802.216 1.243 0 .47-.072.893-.216 1.28a2.98 2.98 0 01-.613 1.01 2.741 2.741 0 01-.946.666 2.946 2.946 0 01-1.208.234c-.441 0-.838-.08-1.198-.234a2.783 2.783 0 01-.937-.667 3.084 3.084 0 01-.613-1.009 3.646 3.646 0 01-.216-1.28 3.346 3.346 0 01.207-1.243zm-1.54 3.1c.233.558.558 1.036.963 1.442.415.405.902.72 1.469.937a4.954 4.954 0 001.848.333 5.02 5.02 0 001.865-.333 4.544 4.544 0 001.477-.938c.415-.405.74-.883.974-1.441a4.725 4.725 0 00.351-1.847c0-.694-.117-1.316-.351-1.875a4.16 4.16 0 00-.974-1.424 4.18 4.18 0 00-1.477-.9c-.568-.217-1.19-.316-1.865-.316a5.31 5.31 0 00-1.848.315 4.283 4.283 0 00-1.469.901c-.414.388-.73.866-.964 1.424-.234.559-.351 1.18-.351 1.874 0 .676.117 1.29.351 1.848zm-7.516-1.316h1.442c.63 0 1.09.09 1.405.27.307.18.469.496.469.956 0 .288-.063.513-.19.684a1.169 1.169 0 01-.477.388c-.189.09-.405.144-.63.18a5.462 5.462 0 01-.631.045H90.7v-2.523h-.009zm0-3.56h1.234c.586 0 1.019.082 1.298.244.28.162.415.442.415.83 0 .378-.136.666-.406.864-.27.207-.658.306-1.171.306h-1.37v-2.243zm-1.54 7.372h3.117a5.88 5.88 0 001.198-.126c.397-.09.748-.226 1.055-.424.306-.198.55-.45.739-.775.189-.324.279-.72.279-1.19 0-.585-.171-1.053-.523-1.405-.351-.351-.802-.559-1.342-.64v-.027c.45-.135.81-.37 1.09-.685.28-.315.415-.72.415-1.207a2.05 2.05 0 00-.235-1 1.991 1.991 0 00-.604-.676 2.261 2.261 0 00-.847-.379 4.34 4.34 0 00-.964-.117h-3.37v8.65h-.009zm-2.668-4.362h-2.929v1.244h2.929v-1.243zm-13.21 4.362h1.54V89.19h.028l4.1 6.677h1.955v-8.65h-1.54v6.47h-.028l-4.019-6.47h-2.036v8.65zm-8.678 0h5.948v-1.37h-4.407v-2.442h3.974v-1.297h-3.974v-2.2h4.19v-1.342h-5.73v8.65zm-2.82-7.939a3.3 3.3 0 00-1.18-.694A4.172 4.172 0 0059.251 87c-.388 0-.775.054-1.154.153-.378.1-.72.261-1.009.469-.297.207-.54.468-.72.784-.18.315-.28.694-.28 1.135 0 .406.063.748.198 1.018.126.27.297.505.505.694.207.19.441.343.703.45.26.118.522.217.784.298.27.09.522.171.765.261.244.082.46.18.64.289.18.108.325.243.424.387a.96.96 0 01.162.568c0 .234-.045.432-.144.595-.09.162-.216.288-.37.396a1.42 1.42 0 01-.504.225 2.339 2.339 0 01-1.595-.189 2.229 2.229 0 01-.847-.694l-1.1 1.028a3.22 3.22 0 001.316.919 4.58 4.58 0 001.65.315c.423 0 .828-.054 1.207-.171a3.005 3.005 0 001-.514c.288-.225.513-.513.685-.865.17-.342.26-.748.26-1.216 0-.424-.08-.775-.233-1.064a2.237 2.237 0 00-.613-.712 3.022 3.022 0 00-.82-.45 14.463 14.463 0 00-.865-.306 15.371 15.371 0 01-.676-.217 2.567 2.567 0 01-.523-.252 1.121 1.121 0 01-.333-.351.974.974 0 01-.126-.505c0-.207.045-.396.135-.54.09-.154.216-.271.36-.37.145-.09.307-.162.487-.207.18-.045.36-.063.54-.063.298 0 .604.072.902.216.297.144.522.315.694.532l1.018-1.118zm-8.236 0a3.302 3.302 0 00-1.18-.694A4.161 4.161 0 0051.024 87c-.388 0-.775.054-1.154.153-.378.1-.72.261-1.009.469a2.4 2.4 0 00-.72.784c-.181.315-.28.694-.28 1.135 0 .406.063.748.198 1.018.126.27.297.505.505.694.207.19.441.343.703.45.26.118.522.217.783.298.27.09.523.171.767.261.243.082.46.18.64.289.18.108.324.243.423.387a.96.96 0 01.162.568c0 .234-.045.432-.144.595-.09.162-.217.288-.37.396a1.42 1.42 0 01-.504.225 2.338 2.338 0 01-1.595-.189 2.228 2.228 0 01-.847-.694l-1.1 1.028a3.22 3.22 0 001.316.919 4.58 4.58 0 001.65.315c.423 0 .828-.054 1.207-.171a3.094 3.094 0 001-.514c.288-.225.513-.513.684-.865.172-.342.262-.748.262-1.216 0-.424-.081-.775-.234-1.064a2.131 2.131 0 00-.613-.712 3.162 3.162 0 00-.82-.45 14.436 14.436 0 00-.865-.306 15.371 15.371 0 01-.676-.217 2.567 2.567 0 01-.523-.252 1.12 1.12 0 01-.333-.351.974.974 0 01-.126-.505.95.95 0 01.144-.54c.09-.154.216-.271.36-.37.145-.1.307-.162.487-.207.18-.045.36-.063.54-.063.298 0 .604.072.902.216.297.144.522.315.694.532l1-1.118zM41.4 95.867h1.54v-3.749l3.254-4.893H44.41l-2.199 3.64-2.172-3.64h-1.883l3.253 4.893v3.749H41.4zm-12.336 0h1.54v-3.839h4.047v3.839h1.532v-8.65h-1.541v3.496h-4.046v-3.497h-1.532v8.65zm-6.416 0h1.541v-7.308h2.65v-1.343H20v1.343h2.65v7.308z"/></g><defs><clipPath id="clip0"><path fill="#fff" transform="translate(20 87)" d="M0 0h160v25.222H0z"/></clipPath></defs></svg>