<svg width="200" height="200" fill="none" xmlns="http://www.w3.org/2000/svg"><path fill="#fff" d="M0 0h200v200H0z"/><path d="M141.444 111.519v.113h14.817l.091-.068-.023-.023-.068-.022h-14.817zm34.536-13.688l.158-.113h-24.349l-.09.068.022.023.068.022h24.191z" fill="#000"/><path d="M180 78l-28.188 19.718h-10.368V122l14.817-10.367H180V97.718h-3.84L180 95.03V78zm-25.884 27.375c-.113.587.022 2.44.722 2.575a.93.93 0 00.655-.113l.61-.339.113 2.462h-3.907c.135-1.016.203-1.852.271-2.597l.135-1.988c-.79-.113-1.649-.406-2.371-.971-.633-.52-.994-1.152-1.039-1.92-.091-1.355 1.694-3.05 3.997-3.05h.678c.249.023.497.046.768.114-.158.339-.361.745-.407 1.445a2.598 2.598 0 00-.745-.113c-1.671 0-2.123 1.13-2.123 1.559 0 1.107 1.084 1.491 1.897 1.558a2.384 2.384 0 001.649-.406c.361-.249.452-.339.633-.746.429.226 1.4.294 2.1.046-.158 1.4-2.055 2.439-3.636 2.484zm-132.447 6.591c-1.06 0-1.669-.596-1.669-1.549V97.698h2.579v12.141h6.682v2.127m8.289-11.815l-2.441 7.059h4.8l-2.36-7.059zm3.89 11.815l-.998-2.811h-5.885l-.998 2.811h-2.591l4.78-13.17c.27-.828.86-1.248 1.858-1.248.935 0 1.55.445 1.82 1.23l4.643 13.188h-2.63zm3.877-7.09c0-4.875 2.899-7.253 6.827-7.253 1.299 0 2.61.282 4.066.71l1.11.325-.383 2.146-1.204-.339c-1.318-.389-2.435-.633-3.413-.633-2.742 0-4.43 1.587-4.43 5.069 0 3.577 1.782 5.227 4.517 5.227.904 0 1.695-.1 2.617-.264v-3.225h-3.131v-1.901h3.859c1.016 0 1.669.634 1.669 1.55v3.244c0 1.198-.327 1.725-1.425 2.033-1.223.326-2.572.539-3.79.539-3.99 0-6.889-2.302-6.889-7.228zm20.869 7.341c-3.74 0-5.772-2.014-5.772-5.408v-9.11h2.572v9.185c0 2.058 1.073 3.181 3.2 3.181 2.165 0 3.225-1.123 3.225-3.181v-9.186h2.566v9.111c0 3.382-2.033 5.408-5.79 5.408zm11.256-.251h-2.258V99.211c0-1.092.671-1.65 1.782-1.65.922 0 1.462.47 1.844 1.078l5.867 9.839v-10.78h2.277v12.756c0 1.073-.683 1.632-1.794 1.632-.904 0-1.443-.465-1.807-1.08l-5.91-9.832m24.006-1.023l-2.448 7.059h4.8l-2.352-7.059zm3.89 11.815l-.998-2.811h-5.885l-1.004 2.811H94.86l4.781-13.17c.264-.828.86-1.248 1.864-1.248.935 0 1.55.445 1.813 1.23l4.65 13.188h-2.629zm10.967-12.348h-3.57v5.007h4.223l.652-.897c.421-.558.81-1.224.81-1.939 0-1.286-.596-2.17-2.115-2.17zm2.548 12.348l-2.397-5.44h-3.721v5.44h-2.547v-12.73c0-.923.614-1.538 1.631-1.538h4.812c2.648 0 4.242 1.4 4.242 4.028 0 1.117-.477 2.071-1.129 2.874l-.973 1.217 2.805 6.149h-2.723zm11.262-12.392c-2.629 0-4.153 1.901-4.153 5.302 0 3.414 1.618 5.315 4.247 5.315 2.623 0 4.148-1.889 4.148-5.315 0-3.401-1.613-5.302-4.242-5.302zm0 12.549c-4.04 0-6.751-2.629-6.751-7.247 0-4.63 2.805-7.278 6.845-7.278 4.047 0 6.739 2.629 6.739 7.278 0 4.681-2.761 7.247-6.833 7.247z" fill="#000"/></svg>