<svg width="200" height="200" viewBox="0 0 200 200" fill="none" xmlns="http://www.w3.org/2000/svg">
<rect width="200" height="200" fill="white"/>
<g clip-path="url(#clip0)">
<g clip-path="url(#clip1)">
<path fill-rule="evenodd" clip-rule="evenodd" d="M64.7761 111.371C64.7761 109.902 64.0497 109.26 62.5322 108.775C61.8839 108.565 61.0929 108.381 61.0929 107.87C61.0929 107.451 61.3516 107.267 61.7412 107.267H61.9613C62.4021 107.267 62.727 107.503 62.9597 107.949C63.0118 108.054 63.1285 108.054 63.22 107.988L64.5679 107.084C64.698 107.005 64.646 106.874 64.5939 106.795C64.4304 106.509 64.2201 106.251 63.9716 106.034C63.4661 105.588 62.7783 105.34 61.936 105.34H61.7412C59.9643 105.34 58.8877 106.31 58.8877 107.936C58.8877 109.391 59.6661 109.968 61.0535 110.453C61.9226 110.755 62.5709 110.833 62.5709 111.423C62.5709 111.803 62.3114 112.026 61.9092 112.026H61.5077C61.0668 112.026 60.7419 111.79 60.5092 111.344C60.4572 111.24 60.3405 111.24 60.249 111.306L58.9011 112.21C58.771 112.289 58.823 112.407 58.8751 112.485C59.0178 112.735 59.1866 112.958 59.3933 113.154C59.9122 113.666 60.6386 113.954 61.5338 113.954H61.9352C63.7642 113.954 64.7753 112.984 64.7753 111.371H64.7761ZM81.9274 113.652V105.619C81.9274 105.514 81.8367 105.487 81.7847 105.487H79.8799C79.8144 105.487 79.7631 105.514 79.7631 105.619V113.652C79.7631 113.757 79.8152 113.784 79.8799 113.784H81.7854C81.8635 113.784 81.9282 113.757 81.9282 113.652H81.9274ZM78.8598 107.302V105.619C78.8598 105.514 78.7825 105.488 78.7305 105.488H73.3365C73.2718 105.488 73.2198 105.514 73.2198 105.619V113.652C73.2198 113.757 73.2718 113.784 73.3365 113.784H75.2547C75.3201 113.784 75.3855 113.757 75.3855 113.652V110.694C75.3855 110.602 75.4242 110.549 75.5409 110.549H78.1595C78.2249 110.549 78.2896 110.523 78.2896 110.431V108.735C78.2896 108.643 78.2249 108.616 78.1595 108.616H75.5409C75.4242 108.616 75.3848 108.564 75.3848 108.472V107.565C75.3848 107.473 75.4242 107.42 75.5409 107.42H78.7305C78.8078 107.42 78.8598 107.394 78.8598 107.301V107.302ZM89.9317 113.613L87.2188 105.586C87.1927 105.507 87.1541 105.495 87.102 105.495H85.6865C85.6084 105.495 85.5824 105.52 85.5571 105.586L82.8434 113.613C82.804 113.718 82.856 113.784 82.9727 113.784H84.9727C85.0374 113.784 85.0634 113.757 85.0894 113.692L85.4396 112.706C85.4656 112.64 85.4917 112.614 85.5957 112.614H87.1541C87.2582 112.614 87.2968 112.64 87.3229 112.706L87.6604 113.692C87.6857 113.757 87.6991 113.784 87.7771 113.784H89.8157C89.9585 113.784 89.9711 113.718 89.9325 113.613H89.9317ZM86.8812 110.946C86.8939 111.011 86.8552 111.064 86.7645 111.064H86.0114C85.9073 111.064 85.8686 111.012 85.8812 110.945L86.1147 109.921C86.2969 109.147 86.3876 108.305 86.3876 108.305H86.4262C86.4262 108.305 86.5177 109.147 86.6731 109.921L86.8812 110.946ZM48.6938 113.631V105.62C48.6938 105.516 48.6158 105.489 48.5645 105.489H46.7355C46.6575 105.489 46.6188 105.516 46.6188 105.62V107.744C46.6188 108.911 46.6835 109.934 46.6835 109.934H46.6448C46.6448 109.934 46.5407 109.645 46.3593 109.304L44.4404 105.607C44.401 105.528 44.3489 105.489 44.2716 105.489H42.6241C42.5594 105.489 42.5073 105.516 42.5073 105.62V113.631C42.5073 113.735 42.5594 113.762 42.6241 113.762H44.4917C44.5698 113.762 44.6218 113.736 44.6218 113.631V111.546C44.6218 110.471 44.5437 109.435 44.5437 109.435H44.5958C44.5958 109.435 44.6999 109.724 44.8679 110.025L46.8009 113.644C46.8389 113.709 46.8783 113.762 46.9429 113.762H48.5637C48.6418 113.762 48.6938 113.736 48.6938 113.631V113.631ZM41.2561 113.631V105.62C41.2561 105.516 41.1654 105.489 41.1133 105.489H39.207C39.1416 105.489 39.0903 105.516 39.0903 105.62V113.631C39.0903 113.735 39.1424 113.762 39.207 113.762H41.1133C41.1914 113.762 41.2561 113.736 41.2561 113.631V113.631ZM72.1886 111.489V107.805C72.1886 106.31 71.0607 105.34 69.4005 105.34H68.4935C66.8325 105.34 65.6787 106.323 65.6787 107.805V111.489C65.6787 112.97 66.8065 113.954 68.4927 113.954H69.3998C71.0607 113.954 72.1886 112.97 72.1886 111.489ZM70.0362 111.489C70.0362 111.803 69.8027 112.026 69.4005 112.026H68.4935C68.0392 112.026 67.8058 111.817 67.8058 111.489V107.805C67.8058 107.53 68.1165 107.255 68.4927 107.255H69.3998C69.7767 107.255 70.0362 107.49 70.0362 107.805V111.489ZM56.626 113.592L53.9153 105.581C53.8893 105.502 53.8506 105.489 53.7986 105.489H52.386C52.3079 105.489 52.2819 105.516 52.2559 105.581L49.5459 113.592C49.5065 113.696 49.5585 113.762 49.6752 113.762H51.6722C51.7377 113.762 51.7629 113.736 51.7897 113.67L52.1391 112.687C52.1652 112.622 52.1912 112.595 52.2953 112.595H53.8514C53.9555 112.595 53.9941 112.622 54.0201 112.687L54.3569 113.67C54.383 113.736 54.3963 113.762 54.4737 113.762H56.5101C56.6528 113.762 56.6654 113.697 56.6268 113.591L56.626 113.592ZM53.5778 110.93C53.5911 110.996 53.5525 111.048 53.4618 111.048H52.7094C52.6053 111.048 52.5666 110.996 52.58 110.93L52.8127 109.907C52.9949 109.134 53.0848 108.295 53.0848 108.295H53.1242C53.1242 108.295 53.2149 109.134 53.3703 109.908L53.5785 110.93H53.5778ZM37.8383 113.631V111.953C37.8383 111.861 37.7736 111.835 37.7089 111.835H34.5194C34.4019 111.835 34.3633 111.783 34.3633 111.691V110.681C34.3633 110.589 34.4019 110.537 34.5194 110.537H37.1387C37.2034 110.537 37.268 110.51 37.268 110.418V108.727C37.268 108.635 37.2034 108.609 37.1387 108.609H34.5186C34.4019 108.609 34.3625 108.557 34.3625 108.465V107.56C34.3625 107.469 34.4019 107.417 34.5186 107.417H37.7089C37.787 107.417 37.8383 107.39 37.8383 107.298V105.62C37.8383 105.516 37.761 105.489 37.7089 105.489H32.3142C32.2495 105.489 32.1975 105.516 32.1975 105.62V113.631C32.1975 113.735 32.2495 113.762 32.3142 113.762H37.7089C37.787 113.762 37.8383 113.736 37.8383 113.631V113.631ZM28.7277 108.216C28.7277 108.57 28.4808 108.741 28.0794 108.741H26.6653C26.5485 108.741 26.5091 108.689 26.5091 108.597V107.56C26.5091 107.469 26.5485 107.417 26.6653 107.417H28.0794C28.5069 107.417 28.7277 107.613 28.7277 107.967V108.216V108.216ZM31.1269 113.591L29.8555 110.301C29.8169 110.183 29.8035 110.091 29.921 110.013C30.4912 109.645 30.8674 109.017 30.8674 108.203V108.085C30.8674 106.472 29.7782 105.489 28.0794 105.489H24.4608C24.3954 105.489 24.3441 105.516 24.3441 105.62V113.631C24.3441 113.735 24.3962 113.762 24.4608 113.762H26.379C26.4437 113.762 26.5091 113.736 26.5091 113.631V110.681C26.5091 110.589 26.5478 110.537 26.6645 110.537H27.5589C27.611 110.537 27.6504 110.563 27.6764 110.628L28.8689 113.67C28.895 113.723 28.9344 113.762 28.9857 113.762H31.0094C31.1388 113.762 31.1648 113.683 31.1261 113.591H31.1269ZM67.0957 89.6117C67.0957 90.6712 66.3076 91.3738 65.1478 91.3738H64.5144C63.3374 91.3738 62.5493 90.6712 62.5493 89.6117V86.9768C62.5493 85.9174 63.3553 85.2141 64.5144 85.2141H65.1486C66.3084 85.2141 67.0957 85.9077 67.0957 86.9761V87.4817H65.5924V86.9761C65.5924 86.7516 65.411 86.5828 65.1486 86.5828H64.5144C64.2519 86.5828 64.0341 86.7798 64.0341 86.9768V89.6117C64.0341 89.8459 64.1976 89.9961 64.5144 89.9961H65.1486C65.4296 89.9961 65.5924 89.8363 65.5924 89.6117V89.1062H67.0957V89.6117V89.6117ZM29.7381 91.173V85.4386C29.7381 85.3635 29.7009 85.3442 29.6474 85.3442H28.3329C28.314 85.344 28.2954 85.3492 28.2793 85.3592C28.2633 85.3692 28.2504 85.3836 28.2422 85.4007L27.1998 88.2824C27.1561 88.4062 27.1167 88.5314 27.0816 88.6579H27.0452C27.0452 88.6579 27.0273 88.4891 26.9456 88.2824L25.8675 85.4014C25.8593 85.3842 25.8463 85.3698 25.8301 85.3598C25.8139 85.3497 25.7951 85.3446 25.7761 85.3449H24.4259C24.3709 85.3449 24.3441 85.3642 24.3441 85.4393V91.173C24.3441 91.2474 24.3709 91.2667 24.4259 91.2667H25.7039C25.7671 91.2667 25.7946 91.2481 25.7946 91.173V89.9433C25.7946 89.0519 25.7129 88.2356 25.7129 88.2356H25.7404C25.7404 88.2356 25.8222 88.6296 25.9664 89.0519L26.4474 90.469C26.4742 90.5441 26.556 90.5626 26.6102 90.5626H27.4898C27.5441 90.5626 27.6162 90.5441 27.6437 90.469L28.124 89.0801C28.2689 88.6579 28.3507 88.2356 28.3507 88.2356H28.3782C28.3782 88.2356 28.3143 89.0801 28.3143 89.9619V91.173C28.3143 91.2474 28.3329 91.2667 28.3961 91.2667H29.6474C29.7016 91.2667 29.7381 91.2481 29.7381 91.173V91.173ZM44.8218 91.1693V89.9679C44.8218 89.9024 44.7764 89.8838 44.7311 89.8838H42.6204C42.5386 89.8838 42.5118 89.8467 42.5118 89.7798V89.0578C42.5118 88.9924 42.5386 88.9545 42.6204 88.9545H44.3318C44.3779 88.9545 44.4233 88.9359 44.4233 88.8697V87.6594C44.4233 87.5939 44.3779 87.5753 44.3318 87.5753H42.6204C42.5386 87.5753 42.5118 87.5382 42.5118 87.4713V86.8244C42.5118 86.759 42.5386 86.7211 42.6204 86.7211H44.7318C44.7854 86.7211 44.8211 86.7025 44.8211 86.6371V85.4356C44.8211 85.3605 44.7675 85.3419 44.7318 85.3419H41.0799C41.0338 85.3419 40.9981 85.3605 40.9981 85.4356V91.1693C40.9981 91.2437 41.0338 91.263 41.0799 91.263H44.7311C44.7854 91.263 44.8218 91.2444 44.8218 91.1693ZM40.1855 89.5366C40.1855 88.4854 39.6784 88.0251 38.6175 87.6779C38.1639 87.5285 37.6115 87.3969 37.6115 87.0311C37.6115 86.73 37.7922 86.5999 38.065 86.5999H38.2189C38.5267 86.5999 38.7535 86.7679 38.9163 87.0869C38.9535 87.162 39.0345 87.162 39.0977 87.1151L40.0405 86.4683C40.1312 86.4111 40.0947 86.3174 40.0591 86.2609C39.9451 86.0565 39.7979 85.8725 39.6234 85.7166C39.2702 85.3977 38.7899 85.22 38.2004 85.22H38.0643C36.8227 85.22 36.0703 85.9137 36.0703 87.078C36.0703 88.1188 36.6138 88.5322 37.584 88.8794C38.1914 89.095 38.6442 89.1515 38.6442 89.5738C38.6442 89.8459 38.4636 90.005 38.1825 90.005H37.9015C37.5929 90.005 37.3662 89.837 37.2034 89.5173C37.1669 89.443 37.0851 89.443 37.0219 89.4898L36.0792 90.1366C35.9885 90.1931 36.0249 90.2779 36.0614 90.3344C36.161 90.5128 36.2792 90.6719 36.4234 90.8125C36.7863 91.179 37.2933 91.3849 37.9193 91.3849H38.2004C39.4791 91.3849 40.1855 90.6905 40.1855 89.5366V89.5366ZM50.0618 89.6207V86.985C50.0618 85.9144 49.273 85.2207 48.1124 85.2207H47.4783C46.3184 85.2207 45.511 85.9241 45.511 86.985V89.6214C45.511 90.6823 46.2991 91.3857 47.4783 91.3857H48.1124C49.273 91.3857 50.0618 90.6823 50.0618 89.6214V89.6207ZM48.557 89.6207C48.557 89.8459 48.3935 90.0058 48.1124 90.0058H47.4783C47.1608 90.0058 46.9972 89.8556 46.9972 89.6207V86.985C46.9972 86.7873 47.2151 86.591 47.4783 86.591H48.1124C48.3756 86.591 48.557 86.7597 48.557 86.985V89.6214V89.6207ZM35.3335 89.6244V85.4386C35.3335 85.3642 35.306 85.3449 35.2517 85.3449H33.9194C33.874 85.3449 33.8376 85.3642 33.8376 85.4393V89.6251C33.8376 89.8593 33.7016 90.0095 33.3841 90.0095H32.7499C32.4146 90.0095 32.2696 89.8593 32.2696 89.6244V85.4386C32.2696 85.3642 32.2243 85.3449 32.1878 85.3449H30.8734C30.8191 85.3449 30.7916 85.3642 30.7916 85.4393V89.6251C30.7916 90.6846 31.5715 91.3887 32.7499 91.3887H33.3841C34.5439 91.3887 35.3335 90.6846 35.3335 89.6244ZM56.6342 91.1745V85.4408C56.6342 85.3657 56.5792 85.3464 56.5435 85.3464H55.2647C55.2105 85.3464 55.1829 85.3657 55.1829 85.4408V86.9605C55.1829 87.7962 55.229 88.5277 55.229 88.5277H55.2015C55.2015 88.5277 55.1294 88.3218 55.0023 88.0772L53.6603 85.4311C53.6335 85.3746 53.5971 85.3464 53.5428 85.3464H52.3912C52.3466 85.3464 52.3094 85.3657 52.3094 85.4408V91.1745C52.3094 91.2489 52.3466 91.2682 52.3912 91.2682H53.6967C53.751 91.2682 53.7874 91.2496 53.7874 91.1745V89.6824C53.7874 88.9129 53.7332 88.1716 53.7332 88.1716H53.7696C53.7696 88.1716 53.8417 88.3776 53.9599 88.5939L55.3101 91.1842C55.3376 91.231 55.3651 91.2682 55.4104 91.2682H56.5435C56.5978 91.2682 56.6342 91.2496 56.6342 91.1745V91.1745ZM89.9124 91.1745V89.9731C89.9124 89.9076 89.867 89.8883 89.8217 89.8883H87.5913C87.5095 89.8883 87.4834 89.8511 87.4834 89.7857V85.4408C87.4834 85.3657 87.4284 85.3464 87.392 85.3464H86.0508C86.0054 85.3464 85.969 85.3657 85.969 85.4408V91.1745C85.969 91.2489 86.0054 91.2682 86.0508 91.2682H89.8217C89.876 91.2682 89.9124 91.2496 89.9124 91.1745V91.1745ZM79.9022 91.1745V85.4408C79.9022 85.3657 79.8479 85.3464 79.8115 85.3464H78.5334C78.4784 85.3464 78.4516 85.3657 78.4516 85.4408V86.9605C78.4516 87.7962 78.4963 88.5277 78.4963 88.5277H78.4695C78.4695 88.5277 78.3974 88.3218 78.2702 88.0772L76.9283 85.4311C76.9007 85.3746 76.8643 85.3464 76.81 85.3464H75.6591C75.6138 85.3464 75.5774 85.3657 75.5774 85.4408V91.1745C75.5774 91.2489 75.6138 91.2682 75.6591 91.2682H76.9639C77.019 91.2682 77.0546 91.2496 77.0546 91.1745V89.6824C77.0546 88.9129 77.0004 88.1716 77.0004 88.1716H77.0375C77.0375 88.1716 77.1097 88.3776 77.2271 88.5939L78.578 91.1842C78.6048 91.231 78.6323 91.2682 78.6777 91.2682H79.8107C79.865 91.2682 79.9014 91.2496 79.9014 91.1745H79.9022ZM69.3842 91.1745V85.4408C69.3842 85.3657 69.3202 85.3464 69.2845 85.3464H67.9515C67.9069 85.3464 67.8697 85.3657 67.8697 85.4408V91.1745C67.8697 91.2489 67.9069 91.2682 67.9515 91.2682H69.2845C69.3388 91.2682 69.3842 91.2496 69.3842 91.1745ZM85.2894 91.1463L83.395 85.4126C83.3765 85.3561 83.349 85.3464 83.3133 85.3464H82.3244C82.2709 85.3464 82.2523 85.3657 82.2345 85.4126L80.3401 91.1463C80.3126 91.2206 80.349 91.2682 80.43 91.2682H81.8263C81.8709 91.2682 81.8902 91.2496 81.9081 91.2028L82.1527 90.4987C82.1705 90.4519 82.1891 90.4333 82.2612 90.4333H83.349C83.4218 90.4333 83.4493 90.4519 83.4679 90.4987L83.7028 91.2028C83.7207 91.2496 83.7304 91.2682 83.7846 91.2682H85.2077C85.3073 91.2682 85.3162 91.2214 85.2894 91.1463V91.1463ZM83.1586 89.2415C83.1683 89.2883 83.1408 89.3255 83.0768 89.3255H82.5519C82.4791 89.3255 82.4523 89.2883 82.4612 89.2415L82.6241 88.5092C82.7505 87.9553 82.8144 87.3545 82.8144 87.3545H82.8419C82.8419 87.3545 82.9051 87.9553 83.0136 88.5092L83.1586 89.2415V89.2415ZM74.6755 89.6259V86.9887C74.6755 85.9189 73.8874 85.2245 72.7268 85.2245H72.0919C70.9321 85.2245 70.1247 85.9285 70.1247 86.9887V89.6259C70.1247 90.6861 70.9135 91.3901 72.0919 91.3901H72.7268C73.8867 91.3901 74.6755 90.6861 74.6755 89.6259V89.6259ZM73.1707 89.6259C73.1707 89.8511 73.0071 90.011 72.7268 90.011H72.0919C71.7752 90.011 71.6116 89.8608 71.6116 89.6259V86.9887C71.6116 86.7917 71.8287 86.5947 72.0919 86.5947H72.7268C72.99 86.5947 73.1707 86.7642 73.1707 86.9887V89.6259V89.6259ZM62.2059 91.1455L60.3107 85.4118C60.2929 85.3553 60.2661 85.3464 60.2289 85.3464H59.2409C59.1873 85.3464 59.1687 85.365 59.1509 85.4118L57.2558 91.1455C57.229 91.2206 57.2654 91.2682 57.3465 91.2682H58.7427C58.7881 91.2682 58.8059 91.2489 58.8245 91.202L59.0691 90.4987C59.087 90.4511 59.1048 90.4325 59.1777 90.4325H60.2654C60.3382 90.4325 60.365 90.4511 60.3836 90.4987L60.6193 91.202C60.6371 91.2489 60.646 91.2682 60.7011 91.2682H62.1241C62.2237 91.2682 62.2326 91.2206 62.2059 91.1455V91.1455ZM60.075 89.2407C60.084 89.2876 60.0572 89.3255 59.9933 89.3255H59.4676C59.3955 89.3255 59.368 89.2883 59.3769 89.2407L59.5405 88.5092C59.6669 87.9553 59.7308 87.3545 59.7308 87.3545H59.7576C59.7576 87.3545 59.8215 87.9553 59.9301 88.5092L60.075 89.2407V89.2407ZM28.8957 97.08C28.8957 98.1395 28.1076 98.8428 26.9478 98.8428H26.3143C25.1374 98.8428 24.3486 98.1395 24.3486 97.08V94.4444C24.3486 93.3849 25.1553 92.6823 26.3143 92.6823H26.9485C28.1076 92.6823 28.8957 93.3752 28.8957 94.4444V94.9499H27.3916V94.4444C27.3916 94.2198 27.211 94.0503 26.9485 94.0503H26.3143C26.0519 94.0503 25.8341 94.2473 25.8341 94.4444V97.08C25.8341 97.3142 25.9976 97.4644 26.3143 97.4644H26.9485C27.2288 97.4644 27.3916 97.3053 27.3916 97.08V96.5744H28.8957V97.08ZM44.3586 94.1447V92.9433C44.3586 92.8682 44.3043 92.8496 44.2768 92.8496H40.3163C40.2717 92.8496 40.2256 92.8682 40.2256 92.9433V94.1447C40.2256 94.2102 40.271 94.2295 40.3163 94.2295H41.4271C41.5267 94.2295 41.5445 94.2667 41.5445 94.3321V98.6785C41.5445 98.7528 41.581 98.7722 41.6263 98.7722H42.9586C43.0032 98.7722 43.0493 98.7528 43.0493 98.6785V94.3321C43.0493 94.2667 43.0672 94.2295 43.1579 94.2295H44.2776C44.3222 94.2295 44.3594 94.2102 44.3594 94.1447H44.3586ZM39.3163 98.6785V92.9433C39.3163 92.8682 39.2621 92.8496 39.2264 92.8496H37.9476C37.8933 92.8496 37.8658 92.8682 37.8658 92.9433V94.4637C37.8658 95.2994 37.9119 96.0309 37.9119 96.0309H37.8844C37.8844 96.0309 37.8123 95.825 37.6851 95.5811L36.3439 92.9343C36.3164 92.8771 36.28 92.8496 36.2257 92.8496H35.0748C35.0294 92.8496 34.993 92.8682 34.993 92.9433V98.6785C34.993 98.7528 35.0294 98.7722 35.0748 98.7722H36.3796C36.4339 98.7722 36.4703 98.7536 36.4703 98.6785V97.1856C36.4703 96.4161 36.416 95.6748 36.416 95.6748H36.4532C36.4532 95.6748 36.5253 95.8808 36.6428 96.0971L37.9937 98.6874C38.0204 98.7342 38.0479 98.7722 38.0933 98.7722H39.2264C39.2806 98.7722 39.3163 98.7536 39.3163 98.6785V98.6785ZM55.2387 97.0815V94.4436C55.2387 93.373 54.4506 92.6793 53.29 92.6793H52.6559C51.496 92.6793 50.6886 93.3827 50.6886 94.4436V97.0807C50.6886 98.1417 51.4767 98.8458 52.6559 98.8458H53.29C54.4499 98.8458 55.2387 98.1417 55.2387 97.0807V97.0815ZM53.7346 97.0815C53.7346 97.3068 53.5711 97.4659 53.29 97.4659H52.6559C52.3384 97.4659 52.1756 97.3157 52.1756 97.0807V94.4436C52.1756 94.2466 52.3927 94.0496 52.6559 94.0496H53.29C53.5532 94.0496 53.7346 94.2183 53.7346 94.4436V97.0807V97.0815ZM50.0024 98.6502L49.1139 96.2934C49.0871 96.2094 49.0782 96.144 49.1593 96.0874C49.5585 95.825 49.821 95.3737 49.821 94.7923V94.7075C49.821 93.5529 49.0596 92.8488 47.873 92.8488H45.3437C45.2984 92.8488 45.2619 92.8682 45.2619 92.9433V98.6785C45.2619 98.7528 45.2984 98.7722 45.3437 98.7722H46.685C46.7303 98.7722 46.7757 98.7536 46.7757 98.6785V96.5662C46.7757 96.5001 46.8024 96.4629 46.8842 96.4629H47.5095C47.5467 96.4629 47.5734 96.4815 47.5913 96.5283L48.4255 98.7067C48.4433 98.7439 48.4701 98.7722 48.5072 98.7722H49.9206C50.0113 98.7722 50.0299 98.7156 50.0024 98.6502V98.6502ZM48.3266 94.802C48.3266 95.0548 48.1541 95.1774 47.873 95.1774H46.8842C46.8024 95.1774 46.7757 95.1403 46.7757 95.0733V94.3321C46.7757 94.2667 46.8024 94.2295 46.8842 94.2295H47.873C48.1712 94.2295 48.3258 94.37 48.3258 94.6235V94.802H48.3266ZM33.854 98.6785V97.477C33.854 97.4108 33.8094 97.3923 33.7633 97.3923H31.5336C31.4518 97.3923 31.425 97.3551 31.425 97.2889V96.5662C31.425 96.5001 31.4525 96.4629 31.5336 96.4629H33.3648C33.4094 96.4629 33.4555 96.4443 33.4555 96.3781V95.1678C33.4555 95.1016 33.4101 95.083 33.3648 95.083H31.5336C31.4518 95.083 31.425 95.0458 31.425 94.9797V94.3328C31.425 94.2667 31.4525 94.2287 31.5336 94.2287H33.764C33.8183 94.2287 33.854 94.2102 33.854 94.1447V92.9433C33.854 92.8682 33.7997 92.8496 33.7633 92.8496H29.9931C29.9477 92.8496 29.9113 92.8682 29.9113 92.9433V98.6785C29.9113 98.7528 29.9477 98.7722 29.9931 98.7722H33.7633C33.8183 98.7722 33.854 98.7536 33.854 98.6785V98.6785ZM89.9117 98.6785V97.477C89.9117 97.4108 89.8663 97.3923 89.821 97.3923H87.5905C87.5087 97.3923 87.4827 97.3551 87.4827 97.2889V96.5662C87.4827 96.5008 87.5095 96.4629 87.5913 96.4629H89.4217C89.4671 96.4629 89.5124 96.4443 89.5124 96.3789V95.167C89.5124 95.1023 89.4678 95.083 89.4217 95.083H87.5913C87.5095 95.083 87.4827 95.0458 87.4827 94.9804V94.3321C87.4827 94.2667 87.5095 94.2295 87.5913 94.2295H89.821C89.8752 94.2295 89.9117 94.2102 89.9117 94.1447V92.9433C89.9117 92.8682 89.8566 92.8496 89.821 92.8496H86.05C86.0054 92.8496 85.9682 92.8682 85.9682 92.9433V98.6785C85.9682 98.7528 86.0054 98.7722 86.05 98.7722H89.821C89.8752 98.7722 89.9117 98.7528 89.9117 98.6785ZM84.8902 94.1447V92.9433C84.8902 92.8682 84.8352 92.8496 84.8084 92.8496H80.8464C80.8018 92.8496 80.7557 92.8682 80.7557 92.9433V94.1447C80.7557 94.2102 80.801 94.2295 80.8464 94.2295H81.9572C82.0568 94.2295 82.0746 94.2667 82.0746 94.3321V98.6785C82.0746 98.7528 82.1111 98.7722 82.1564 98.7722H83.4887C83.5333 98.7722 83.5794 98.7528 83.5794 98.6785V94.3321C83.5794 94.2667 83.5973 94.2295 83.688 94.2295H84.8077C84.8523 94.2295 84.8894 94.2102 84.8894 94.1447H84.8902ZM67.4236 98.6785V97.477C67.4236 97.4108 67.379 97.3923 67.3329 97.3923H65.1032C65.0214 97.3923 64.9947 97.3551 64.9947 97.2889V96.5662C64.9947 96.5008 65.0214 96.4629 65.1032 96.4629H66.9344C66.9797 96.4629 67.0251 96.4443 67.0251 96.3789V95.167C67.0251 95.1023 66.9797 95.083 66.9344 95.083H65.1032C65.0214 95.083 64.9947 95.0458 64.9947 94.9804V94.3321C64.9947 94.2667 65.0214 94.2295 65.1032 94.2295H67.3336C67.3879 94.2295 67.4236 94.2102 67.4236 94.1447V92.9433C67.4236 92.8682 67.3693 92.8496 67.3329 92.8496H63.5627C63.5174 92.8496 63.4809 92.8682 63.4809 92.9433V98.6785C63.4809 98.7528 63.5174 98.7722 63.5627 98.7722H67.3329C67.3879 98.7722 67.4236 98.7528 67.4236 98.6785ZM60.8274 97.0071C60.8274 97.2049 60.6282 97.3923 60.3739 97.3923H59.3858C59.3041 97.3923 59.2773 97.3551 59.2773 97.2889V94.3321C59.2773 94.2667 59.3048 94.2295 59.3858 94.2295H60.3747C60.6193 94.2295 60.8274 94.4354 60.8274 94.6235V97.0071ZM62.3233 96.9328V94.7083C62.3233 93.5537 61.5613 92.8496 60.3747 92.8496H57.8453C57.8 92.8496 57.7636 92.8682 57.7636 92.9433V98.6785C57.7636 98.7528 57.8 98.7722 57.8453 98.7722H60.3747C61.5613 98.7722 62.3226 98.0681 62.3226 96.932L62.3233 96.9328ZM80.3185 98.6502L79.4301 96.2934C79.4033 96.2094 79.3944 96.144 79.4754 96.0874C79.8747 95.825 80.1371 95.3737 80.1371 94.7923V94.7075C80.1371 93.5537 79.3758 92.8488 78.1885 92.8488H75.6599C75.6145 92.8488 75.5781 92.8682 75.5781 92.9433V98.6785C75.5781 98.7528 75.6145 98.7722 75.6599 98.7722H77.0011C77.0457 98.7722 77.0918 98.7536 77.0918 98.6785V96.5662C77.0918 96.5008 77.1186 96.4629 77.2004 96.4629H77.8256C77.8628 96.4629 77.8896 96.4822 77.9074 96.5291L78.7416 98.706C78.7595 98.7432 78.7862 98.7722 78.8234 98.7722H80.2367C80.3274 98.7722 80.3453 98.7156 80.3185 98.6502V98.6502ZM78.642 94.802C78.642 95.0548 78.4695 95.1774 78.1885 95.1774H77.2004C77.1186 95.1774 77.0918 95.1403 77.0918 95.0733V94.3321C77.0918 94.2667 77.1186 94.2295 77.2004 94.2295H78.1885C78.4873 94.2295 78.642 94.37 78.642 94.6235V94.802V94.802ZM74.7997 98.6502L72.9053 92.915C72.8874 92.8585 72.8607 92.8496 72.8235 92.8496H71.8362C71.7819 92.8496 71.7633 92.8682 71.7455 92.915L69.8503 98.6502C69.8228 98.7246 69.8592 98.7722 69.9403 98.7722H71.3365C71.3819 98.7722 71.4005 98.7536 71.4183 98.706L71.6637 98.0027C71.6808 97.9558 71.6994 97.9365 71.7715 97.9365H72.8592C72.932 97.9365 72.9596 97.9558 72.9774 98.0027L73.2131 98.706C73.2309 98.7536 73.2398 98.7722 73.2949 98.7722H74.7179C74.8175 98.7722 74.8264 98.7253 74.7997 98.6502V98.6502ZM72.6696 96.7447C72.6785 96.7915 72.6518 96.8294 72.5878 96.8294H72.0622C71.9901 96.8294 71.9625 96.7915 71.9722 96.7447L72.135 96.0124C72.2614 95.4585 72.3254 94.8577 72.3254 94.8577H72.3529C72.3529 94.8577 72.4161 95.4585 72.5246 96.0124L72.6696 96.7447Z" fill="black"/>
<path fill-rule="evenodd" clip-rule="evenodd" d="M21.9739 101.145H92.2812V82.9754H21.9747L21.9732 101.145H21.9739ZM92.2819 103.119H21.9747V116.152H92.2812L92.2819 103.119ZM20 118.127H94.2551V81H20V118.127Z" fill="black"/>
<path opacity="0.5" fill-rule="evenodd" clip-rule="evenodd" d="M102.968 89.4604V91.4428C102.79 91.5494 102.574 91.6315 102.322 91.689C102.069 91.7466 101.811 91.7754 101.547 91.7754C101.182 91.7754 100.852 91.7178 100.557 91.6027C100.261 91.4876 100.01 91.3299 99.8015 91.1295C99.5934 90.9291 99.4341 90.6904 99.3236 90.4133C99.2132 90.1361 99.158 89.8335 99.158 89.5052C99.158 89.1343 99.2238 88.7964 99.3555 88.4916C99.4872 88.1868 99.6645 87.9246 99.8875 87.705C100.111 87.4855 100.37 87.3149 100.665 87.1934C100.96 87.0719 101.271 87.0112 101.598 87.0112C101.709 87.0112 101.825 87.0187 101.946 87.0336C102.067 87.0485 102.187 87.0709 102.306 87.1007C102.425 87.1306 102.539 87.1657 102.65 87.2062C102.76 87.2467 102.86 87.2947 102.949 87.3501L102.567 87.9896C102.507 87.9512 102.436 87.9182 102.353 87.8905C102.271 87.8628 102.185 87.8383 102.095 87.8169C102.006 87.7956 101.918 87.7796 101.831 87.769C101.744 87.7583 101.662 87.753 101.586 87.753C101.369 87.753 101.162 87.7967 100.964 87.8841C100.767 87.9715 100.592 88.0898 100.439 88.239C100.286 88.3882 100.164 88.5662 100.072 88.773C99.981 88.9797 99.9353 89.2004 99.9353 89.4348C99.9353 89.648 99.9757 89.8505 100.056 90.0424C100.137 90.2342 100.25 90.4037 100.394 90.5508C100.539 90.6978 100.711 90.8151 100.91 90.9025C101.11 90.9899 101.329 91.0336 101.567 91.0336C101.652 91.0336 101.758 91.0261 101.885 91.0112C102.013 90.9963 102.134 90.9696 102.248 90.9312V90.1383H101.382V89.4604H102.968ZM105.594 91.7754C105.343 91.7754 105.108 91.7338 104.89 91.6507C104.671 91.5675 104.481 91.4514 104.319 91.3021C104.158 91.1529 104.03 90.9728 103.937 90.7618C103.843 90.5508 103.797 90.3173 103.797 90.0615V87.0623H104.574V90.0424C104.574 90.1788 104.601 90.3067 104.654 90.4261C104.707 90.5454 104.779 90.6499 104.87 90.7394C104.962 90.8289 105.069 90.9003 105.192 90.9536C105.315 91.0069 105.449 91.0336 105.594 91.0336C105.738 91.0336 105.873 91.0069 105.998 90.9536C106.124 90.9003 106.233 90.8289 106.326 90.7394C106.42 90.6499 106.493 90.5454 106.546 90.4261C106.599 90.3067 106.626 90.1788 106.626 90.0424V87.0623H107.403V90.0615C107.403 90.3173 107.357 90.5508 107.263 90.7618C107.17 90.9728 107.041 91.1529 106.878 91.3021C106.714 91.4514 106.522 91.5675 106.301 91.6507C106.08 91.7338 105.844 91.7754 105.594 91.7754ZM108.429 91.7242V87.0623H111.513V87.7722H109.207V89.0256H111.258V89.7546H109.207V90.9952H111.602V91.7242H108.429ZM112.373 91.7242V87.0623H113.686C113.941 87.0623 114.173 87.0965 114.384 87.1647C114.594 87.2329 114.772 87.3309 114.919 87.4588C115.066 87.5867 115.179 87.7445 115.26 87.9321C115.341 88.1196 115.381 88.3307 115.381 88.5651C115.381 88.693 115.368 88.8209 115.343 88.9488C115.317 89.0767 115.277 89.2004 115.222 89.3197C115.166 89.4391 115.094 89.5489 115.005 89.6491C114.916 89.7493 114.81 89.8356 114.686 89.9081C114.78 90.0573 114.871 90.2033 114.96 90.3461C115.05 90.4889 115.14 90.6328 115.231 90.7778C115.323 90.9227 115.417 91.0719 115.515 91.2254C115.612 91.3789 115.719 91.5452 115.833 91.7242H114.897C114.706 91.4258 114.525 91.1433 114.355 90.8769C114.185 90.6104 114.022 90.3578 113.864 90.1191H113.151V91.7242H112.373ZM113.151 89.3837H113.775C113.937 89.3837 114.07 89.356 114.177 89.3006C114.283 89.2451 114.368 89.178 114.432 89.0991C114.495 89.0202 114.54 88.935 114.565 88.8433C114.591 88.7517 114.604 88.6675 114.604 88.5907C114.604 88.5182 114.592 88.4362 114.569 88.3445C114.545 88.2529 114.503 88.1665 114.441 88.0855C114.38 88.0045 114.296 87.9363 114.189 87.8809C114.083 87.8255 113.947 87.7978 113.782 87.7978H113.151V89.3837ZM120.53 87.0623V91.9416C120.5 91.9033 120.434 91.8329 120.332 91.7306C120.23 91.6283 120.105 91.5057 119.956 91.3629C119.807 91.2201 119.643 91.0623 119.462 90.8897C119.282 90.717 119.098 90.5422 118.911 90.3653C118.724 90.1884 118.541 90.0146 118.363 89.8441C118.185 89.6736 118.022 89.5169 117.876 89.3741C117.729 89.2313 117.606 89.1098 117.506 89.0096C117.406 88.9094 117.341 88.8401 117.312 88.8018C117.307 88.7932 117.29 88.7708 117.261 88.7346C117.231 88.6984 117.205 88.6653 117.184 88.6355L117.203 88.8401V91.7242H116.426V86.8513C116.456 86.8897 116.522 86.959 116.624 87.0592C116.725 87.1593 116.851 87.2798 116.999 87.4205C117.148 87.5611 117.313 87.7146 117.493 87.8809C117.674 88.0472 117.858 88.2166 118.044 88.3893C118.231 88.5619 118.414 88.7325 118.592 88.9009C118.771 89.0693 118.934 89.2227 119.083 89.3613C119.232 89.4999 119.356 89.6182 119.456 89.7162C119.556 89.8143 119.62 89.8825 119.65 89.9209L119.771 90.0999L119.752 89.8825V87.0623H120.53ZM121.6 87.0623H122.384V91.7242H121.6V87.0623ZM126.952 91.3789C126.901 91.413 126.83 91.4535 126.739 91.5004C126.648 91.5473 126.539 91.591 126.414 91.6315C126.289 91.672 126.147 91.7061 125.99 91.7338C125.833 91.7615 125.665 91.7754 125.487 91.7754C125.122 91.7754 124.794 91.7125 124.506 91.5867C124.217 91.461 123.973 91.2915 123.773 91.0783C123.573 90.8652 123.42 90.6158 123.314 90.3301C123.208 90.0445 123.155 89.7439 123.155 89.4285C123.155 89.0789 123.218 88.7559 123.346 88.4596C123.473 88.1633 123.646 87.9075 123.865 87.6922C124.084 87.4769 124.339 87.3096 124.63 87.1902C124.921 87.0709 125.232 87.0112 125.563 87.0112C125.691 87.0112 125.819 87.0208 125.949 87.04C126.078 87.0592 126.201 87.0837 126.315 87.1135C126.43 87.1434 126.531 87.1775 126.618 87.2158C126.705 87.2542 126.768 87.2947 126.806 87.3373C126.768 87.397 126.738 87.446 126.717 87.4844C126.695 87.5228 126.673 87.5622 126.65 87.6027C126.626 87.6432 126.601 87.689 126.573 87.7402C126.546 87.7914 126.506 87.8617 126.455 87.9512C126.404 87.9171 126.343 87.8873 126.271 87.8617C126.198 87.8361 126.123 87.8159 126.044 87.801C125.966 87.786 125.886 87.7743 125.806 87.7658C125.725 87.7573 125.653 87.753 125.589 87.753C125.351 87.753 125.131 87.7978 124.929 87.8873C124.728 87.9768 124.553 88.0951 124.407 88.2422C124.26 88.3893 124.146 88.5609 124.063 88.757C123.98 88.9531 123.939 89.1556 123.939 89.3645C123.939 89.5691 123.978 89.7684 124.056 89.9624C124.135 90.1564 124.245 90.328 124.388 90.4772C124.53 90.6264 124.699 90.7469 124.894 90.8385C125.09 90.9302 125.306 90.976 125.544 90.976C125.68 90.976 125.812 90.9622 125.939 90.9344C126.067 90.9067 126.179 90.8758 126.277 90.8417C126.375 90.8076 126.454 90.7735 126.516 90.7394C126.578 90.7053 126.61 90.6818 126.615 90.6691L126.952 91.3789ZM130.387 91.7242C130.374 91.6944 130.352 91.6411 130.32 91.5643C130.288 91.4876 130.249 91.3938 130.202 91.283C130.155 91.1721 130.104 91.0496 130.049 90.9153C129.994 90.781 129.937 90.6413 129.877 90.4964H128.278L127.768 91.7242H126.997C127.014 91.6858 127.054 91.591 127.118 91.4396C127.182 91.2883 127.262 91.1007 127.357 90.8769C127.453 90.6531 127.559 90.4037 127.676 90.1287C127.792 89.8537 127.913 89.5734 128.036 89.2878C128.159 89.0021 128.279 88.7218 128.396 88.4468C128.513 88.1719 128.619 87.9225 128.714 87.6986C128.81 87.4748 128.89 87.2872 128.953 87.1359C129.017 86.9845 129.057 86.8897 129.074 86.8513C129.091 86.8897 129.133 86.9845 129.199 87.1359C129.264 87.2872 129.345 87.4748 129.441 87.6986C129.536 87.9225 129.642 88.1719 129.759 88.4468C129.876 88.7218 129.996 89.0021 130.119 89.2878C130.243 89.5734 130.363 89.8537 130.479 90.1287C130.596 90.4037 130.702 90.6531 130.798 90.8769C130.894 91.1007 130.973 91.2883 131.037 91.4396C131.101 91.591 131.141 91.6858 131.158 91.7242H130.387ZM128.545 89.8377H129.603L129.144 88.725C129.14 88.7208 129.13 88.692 129.113 88.6387C129.096 88.5854 129.083 88.5374 129.074 88.4948C129.066 88.5374 129.053 88.5854 129.036 88.6387C129.019 88.692 129.011 88.7208 129.011 88.725L128.545 89.8377Z" fill="black"/>
<path opacity="0.5" fill-rule="evenodd" clip-rule="evenodd" d="M99.307 84.53V81.1581H100.225C100.401 81.1581 100.562 81.1814 100.709 81.2279C100.856 81.2744 100.982 81.3434 101.089 81.4349C101.195 81.5263 101.278 81.6379 101.337 81.7697C101.395 81.9015 101.425 82.0526 101.425 82.2232C101.425 82.3162 101.416 82.4084 101.397 82.4999C101.378 82.5914 101.348 82.6797 101.307 82.765C101.265 82.8502 101.212 82.9293 101.147 83.0022C101.082 83.075 101.003 83.1363 100.91 83.1859C101.034 83.3812 101.168 83.5975 101.314 83.8347C101.459 84.0719 101.606 84.3036 101.754 84.53H101.147C101.085 84.4339 101.021 84.3331 100.954 84.2277C100.888 84.1222 100.822 84.0176 100.755 83.9137C100.689 83.8099 100.624 83.7075 100.561 83.6068C100.497 83.506 100.438 83.4122 100.382 83.3254H99.8168V84.53H99.307ZM99.8168 82.8464H100.276C100.399 82.8464 100.503 82.8254 100.586 82.7836C100.669 82.7417 100.735 82.6898 100.783 82.6278C100.831 82.5658 100.865 82.4991 100.885 82.4278C100.905 82.3565 100.915 82.2914 100.915 82.2325C100.915 82.1736 100.905 82.1092 100.885 82.0395C100.865 81.9697 100.83 81.9046 100.781 81.8441C100.731 81.7837 100.666 81.7333 100.584 81.693C100.502 81.6527 100.401 81.6325 100.28 81.6325H99.8168V82.8464ZM102.217 84.53V81.1581H104.423V81.6186H102.727V82.6045H104.238V83.0743H102.727V84.0602H104.488V84.53H102.217ZM105.586 82.8464H106.045C106.169 82.8464 106.272 82.8247 106.356 82.7813C106.439 82.7379 106.505 82.6851 106.553 82.6231C106.6 82.5611 106.634 82.4945 106.654 82.4231C106.675 82.3518 106.685 82.2883 106.685 82.2325C106.685 82.1736 106.675 82.1092 106.654 82.0395C106.634 81.9697 106.6 81.9046 106.55 81.8441C106.501 81.7837 106.435 81.7333 106.353 81.693C106.271 81.6527 106.17 81.6325 106.05 81.6325H105.586V82.8464ZM105.077 84.53V81.1581H105.994C106.17 81.1581 106.332 81.1814 106.478 81.2279C106.625 81.2744 106.752 81.3434 106.858 81.4349C106.965 81.5263 107.048 81.6379 107.106 81.7697C107.165 81.9015 107.194 82.0526 107.194 82.2232C107.194 82.3565 107.174 82.489 107.134 82.6208C107.094 82.7526 107.029 82.8704 106.939 82.9743C106.85 83.0781 106.732 83.1626 106.587 83.2277C106.442 83.2929 106.266 83.3254 106.059 83.3254H105.586V84.53H105.077ZM107.75 84.53V81.1581H109.956V81.6186H108.26V82.6045H109.771V83.0743H108.26V84.0602H110.021V84.53H107.75ZM113.557 81.1581V84.6834C113.514 84.6276 113.43 84.5377 113.307 84.4137L112.88 83.9858C112.72 83.8246 112.549 83.6556 112.368 83.4789C112.188 83.3022 112.017 83.1339 111.856 82.9743C111.696 82.8146 111.555 82.672 111.435 82.5464C111.314 82.4208 111.234 82.3317 111.194 82.279L111.106 82.1581L111.119 82.3069V84.53H110.61V81C110.644 81.0434 110.7 81.1054 110.779 81.186C110.858 81.2666 110.95 81.3604 111.057 81.4674C111.163 81.5744 111.281 81.6899 111.409 81.8139C111.537 81.9379 111.667 82.0635 111.798 82.1906C111.93 82.3177 112.059 82.4425 112.188 82.565C112.316 82.6875 112.433 82.8014 112.54 82.9068C112.646 83.0123 112.738 83.1053 112.816 83.1859C112.893 83.2665 112.947 83.327 112.978 83.3673L113.066 83.4975L113.052 83.3394V81.1581H113.557ZM116.305 81.3442L116.124 81.7581C115.998 81.7116 115.872 81.6744 115.747 81.6465C115.622 81.6186 115.502 81.6046 115.388 81.6046C115.193 81.6046 115.038 81.6449 114.922 81.7255C114.806 81.8061 114.748 81.9085 114.748 82.0325C114.748 82.1379 114.79 82.2224 114.873 82.286C114.957 82.3495 115.06 82.4069 115.184 82.458C115.307 82.5092 115.442 82.5603 115.587 82.6115C115.732 82.6627 115.866 82.7286 115.99 82.8092C116.114 82.8898 116.217 82.9913 116.3 83.1138C116.384 83.2363 116.426 83.3936 116.426 83.5859C116.426 83.7347 116.399 83.8688 116.344 83.9881C116.29 84.1075 116.21 84.2106 116.103 84.2974C115.997 84.3842 115.864 84.4509 115.705 84.4974C115.546 84.5439 115.36 84.5672 115.147 84.5672C115.011 84.5672 114.888 84.5579 114.778 84.5393C114.668 84.5207 114.57 84.4966 114.482 84.4672C114.393 84.4377 114.316 84.4059 114.25 84.3718C114.183 84.3377 114.127 84.3067 114.081 84.2788L114.303 83.837C114.427 83.9083 114.564 83.9657 114.716 84.0091C114.867 84.0525 115.004 84.0742 115.128 84.0742C115.19 84.0742 115.266 84.0664 115.357 84.0509C115.449 84.0354 115.536 84.0083 115.619 83.9695C115.703 83.9308 115.774 83.8789 115.835 83.8137C115.895 83.7486 115.925 83.6665 115.925 83.5672C115.925 83.4773 115.901 83.4006 115.853 83.337C115.805 83.2735 115.742 83.2177 115.663 83.1696C115.584 83.1215 115.495 83.0781 115.394 83.0394C115.294 83.0006 115.191 82.9603 115.086 82.9185C114.981 82.8766 114.879 82.8324 114.778 82.7859C114.678 82.7394 114.588 82.6828 114.509 82.6162C114.431 82.5495 114.367 82.472 114.319 82.3836C114.271 82.2953 114.248 82.1891 114.248 82.065C114.248 81.9503 114.271 81.8371 114.317 81.7255C114.363 81.6139 114.433 81.5147 114.526 81.4279C114.618 81.3411 114.733 81.2713 114.871 81.2186C115.008 81.1659 115.168 81.1395 115.35 81.1395C115.462 81.1395 115.571 81.1488 115.677 81.1674C115.784 81.186 115.88 81.207 115.967 81.2302C116.053 81.2535 116.127 81.2759 116.187 81.2977C116.247 81.3194 116.287 81.3349 116.305 81.3442ZM119.081 84.53C119.065 84.4959 119.044 84.4463 119.016 84.3811C118.988 84.316 118.957 84.2408 118.921 84.1556C118.886 84.0703 118.847 83.9773 118.805 83.8765C118.764 83.7758 118.721 83.6711 118.678 83.5626H117.491L117.093 84.53H116.592L118.089 81C118.108 81.0434 118.141 81.1225 118.189 81.2372C118.237 81.3519 118.294 81.4891 118.36 81.6488C118.427 81.8085 118.501 81.9852 118.583 82.179C118.665 82.3728 118.748 82.5689 118.833 82.7673C118.918 82.9657 119.001 83.1611 119.083 83.3533C119.165 83.5455 119.24 83.7223 119.308 83.8835C119.376 84.0447 119.434 84.1819 119.482 84.2951C119.53 84.4083 119.563 84.4866 119.581 84.53H119.081ZM117.668 83.1347H118.506C118.463 83.0324 118.422 82.934 118.384 82.8394C118.345 82.7448 118.309 82.658 118.277 82.579C118.244 82.4999 118.216 82.4309 118.191 82.372C118.166 82.3131 118.148 82.2666 118.136 82.2325C118.132 82.2263 118.126 82.2046 118.115 82.1674C118.104 82.1301 118.095 82.096 118.089 82.065C118.083 82.096 118.074 82.1301 118.061 82.1674C118.049 82.2046 118.041 82.2263 118.038 82.2325L117.668 83.1347ZM119.999 84.53V81.1581H120.916C121.092 81.1581 121.254 81.1814 121.4 81.2279C121.547 81.2744 121.674 81.3434 121.78 81.4349C121.887 81.5263 121.97 81.6379 122.028 81.7697C122.087 81.9015 122.116 82.0526 122.116 82.2232C122.116 82.3162 122.107 82.4084 122.089 82.4999C122.07 82.5914 122.04 82.6797 121.998 82.765C121.956 82.8502 121.903 82.9293 121.838 83.0022C121.773 83.075 121.695 83.1363 121.602 83.1859C121.725 83.3812 121.86 83.5975 122.005 83.8347C122.15 84.0719 122.297 84.3036 122.445 84.53H121.838C121.776 84.4339 121.712 84.3331 121.646 84.2277C121.58 84.1222 121.513 84.0176 121.447 83.9137C121.38 83.8099 121.315 83.7075 121.252 83.6068C121.189 83.506 121.129 83.4122 121.074 83.3254H120.508V84.53H119.999ZM120.508 82.8464H120.967C121.091 82.8464 121.194 82.8254 121.278 82.7836C121.361 82.7417 121.427 82.6898 121.474 82.6278C121.522 82.5658 121.556 82.4991 121.576 82.4278C121.597 82.3565 121.607 82.2914 121.607 82.2325C121.607 82.1736 121.597 82.1092 121.576 82.0395C121.556 81.9697 121.522 81.9046 121.472 81.8441C121.423 81.7837 121.357 81.7333 121.275 81.693C121.193 81.6527 121.092 81.6325 120.972 81.6325H120.508V82.8464Z" fill="black"/>
<path d="M99.158 96.5789H177.474" stroke="black" stroke-opacity="0.2" stroke-width="0.25"/>
</g>
<path d="M104.195 107.174C104.127 107.219 104.032 107.272 103.908 107.334C103.79 107.396 103.647 107.455 103.479 107.511C103.316 107.561 103.131 107.603 102.923 107.637C102.715 107.676 102.493 107.696 102.258 107.696C101.775 107.696 101.342 107.615 100.96 107.452C100.579 107.283 100.256 107.059 99.9918 106.778C99.7279 106.497 99.5257 106.169 99.3854 105.792C99.245 105.416 99.1748 105.02 99.1748 104.605C99.1748 104.144 99.259 103.72 99.4275 103.333C99.5959 102.94 99.8234 102.603 100.11 102.322C100.402 102.036 100.739 101.814 101.12 101.657C101.508 101.5 101.921 101.421 102.359 101.421C102.527 101.421 102.695 101.435 102.864 101.463C103.038 101.486 103.201 101.517 103.352 101.556C103.504 101.595 103.636 101.64 103.748 101.691C103.866 101.741 103.95 101.794 104.001 101.851C103.95 101.929 103.911 101.994 103.883 102.044C103.855 102.095 103.824 102.148 103.79 102.204C103.762 102.255 103.729 102.314 103.689 102.381C103.656 102.449 103.605 102.541 103.538 102.659C103.47 102.614 103.389 102.575 103.293 102.541C103.198 102.508 103.097 102.482 102.99 102.465C102.889 102.443 102.785 102.426 102.679 102.415C102.572 102.404 102.476 102.398 102.392 102.398C102.078 102.398 101.786 102.457 101.516 102.575C101.252 102.693 101.022 102.85 100.826 103.047C100.635 103.238 100.483 103.462 100.371 103.72C100.264 103.979 100.211 104.245 100.211 104.521C100.211 104.79 100.261 105.054 100.362 105.312C100.469 105.565 100.615 105.79 100.8 105.986C100.991 106.183 101.216 106.343 101.474 106.466C101.732 106.584 102.019 106.643 102.333 106.643C102.513 106.643 102.687 106.626 102.856 106.593C103.024 106.553 103.173 106.511 103.302 106.466C103.431 106.421 103.535 106.376 103.614 106.331C103.698 106.287 103.743 106.256 103.748 106.239L104.195 107.174Z" fill="black"/>
<path d="M104.389 104.571C104.389 104.144 104.471 103.74 104.634 103.358C104.802 102.976 105.027 102.642 105.308 102.356C105.594 102.07 105.925 101.842 106.301 101.674C106.683 101.505 107.09 101.421 107.523 101.421C107.949 101.421 108.354 101.505 108.736 101.674C109.117 101.842 109.451 102.07 109.738 102.356C110.024 102.642 110.249 102.976 110.412 103.358C110.58 103.74 110.664 104.144 110.664 104.571C110.664 105.004 110.58 105.411 110.412 105.792C110.249 106.169 110.024 106.5 109.738 106.786C109.451 107.067 109.117 107.289 108.736 107.452C108.354 107.615 107.949 107.696 107.523 107.696C107.09 107.696 106.683 107.615 106.301 107.452C105.925 107.289 105.594 107.067 105.308 106.786C105.027 106.5 104.802 106.169 104.634 105.792C104.471 105.411 104.389 105.004 104.389 104.571ZM105.425 104.571C105.425 104.869 105.479 105.15 105.585 105.413C105.698 105.672 105.849 105.899 106.04 106.096C106.237 106.287 106.461 106.438 106.714 106.55C106.972 106.663 107.25 106.719 107.548 106.719C107.834 106.719 108.104 106.663 108.357 106.55C108.615 106.438 108.837 106.287 109.022 106.096C109.213 105.899 109.362 105.672 109.468 105.413C109.581 105.15 109.637 104.869 109.637 104.571C109.637 104.274 109.581 103.996 109.468 103.737C109.356 103.473 109.204 103.243 109.013 103.047C108.823 102.85 108.598 102.696 108.34 102.583C108.087 102.471 107.815 102.415 107.523 102.415C107.231 102.415 106.956 102.471 106.697 102.583C106.445 102.696 106.223 102.85 106.032 103.047C105.847 103.243 105.698 103.473 105.585 103.737C105.479 103.996 105.425 104.274 105.425 104.571Z" fill="black"/>
<path d="M117.102 101.488V107.915C117.063 107.864 116.976 107.772 116.841 107.637C116.707 107.502 116.541 107.342 116.344 107.157C116.148 106.966 115.929 106.758 115.687 106.534C115.452 106.303 115.21 106.073 114.963 105.843C114.716 105.607 114.475 105.377 114.239 105.152C114.003 104.928 113.787 104.723 113.59 104.537C113.399 104.347 113.236 104.187 113.102 104.057C112.973 103.923 112.888 103.83 112.849 103.779C112.843 103.768 112.821 103.74 112.782 103.695C112.742 103.645 112.709 103.6 112.681 103.56L112.706 103.83V107.629H111.678V101.211C111.718 101.261 111.805 101.354 111.939 101.488C112.074 101.618 112.24 101.775 112.436 101.96C112.633 102.145 112.849 102.348 113.085 102.567C113.326 102.786 113.571 103.01 113.818 103.24C114.065 103.465 114.306 103.69 114.542 103.914C114.778 104.133 114.994 104.335 115.191 104.521C115.387 104.7 115.55 104.855 115.679 104.984C115.814 105.113 115.901 105.203 115.94 105.253L116.1 105.489L116.075 105.203V101.488H117.102Z" fill="black"/>
<path d="M122.194 101.488V102.474H120.678V107.629H119.642V102.474H118.16V101.488H122.194Z" fill="black"/>
<path d="M123.259 107.629V101.488H124.995C125.331 101.488 125.637 101.533 125.913 101.623C126.193 101.713 126.429 101.842 126.62 102.011C126.817 102.179 126.968 102.387 127.075 102.634C127.182 102.881 127.235 103.159 127.235 103.468C127.235 103.636 127.218 103.805 127.184 103.973C127.151 104.142 127.097 104.304 127.024 104.462C126.951 104.619 126.856 104.765 126.738 104.9C126.62 105.029 126.48 105.141 126.317 105.237C126.44 105.433 126.561 105.627 126.679 105.818C126.797 106.003 126.915 106.191 127.033 106.382C127.156 106.573 127.283 106.769 127.412 106.972C127.541 107.174 127.681 107.393 127.833 107.629H126.595C126.342 107.236 126.104 106.865 125.879 106.517C125.654 106.163 125.438 105.829 125.23 105.514H125.146H124.287V107.629H123.259ZM124.287 104.546H125.112C125.326 104.546 125.503 104.509 125.643 104.436C125.783 104.363 125.896 104.276 125.98 104.175C126.064 104.069 126.123 103.956 126.157 103.838C126.191 103.715 126.207 103.603 126.207 103.501C126.207 103.406 126.191 103.299 126.157 103.181C126.129 103.058 126.073 102.943 125.988 102.836C125.91 102.729 125.8 102.64 125.66 102.567C125.52 102.494 125.34 102.457 125.121 102.457H124.287V104.546Z" fill="black"/>
<path d="M132.387 107.629C132.371 107.589 132.34 107.519 132.295 107.418C132.256 107.317 132.205 107.193 132.143 107.047C132.081 106.901 132.014 106.741 131.941 106.567C131.868 106.388 131.792 106.202 131.714 106.011H129.6L128.926 107.629H127.907C127.929 107.578 127.982 107.455 128.067 107.258C128.151 107.056 128.255 106.809 128.378 106.517C128.507 106.219 128.648 105.891 128.799 105.531C128.957 105.166 129.117 104.796 129.279 104.42C129.442 104.043 129.6 103.676 129.751 103.316C129.908 102.951 130.049 102.623 130.172 102.331C130.301 102.033 130.408 101.786 130.492 101.59C130.577 101.387 130.63 101.261 130.652 101.211C130.675 101.261 130.728 101.387 130.812 101.59C130.902 101.786 131.009 102.033 131.132 102.331C131.262 102.623 131.402 102.951 131.554 103.316C131.711 103.676 131.871 104.043 132.034 104.42C132.197 104.796 132.354 105.166 132.505 105.531C132.663 105.891 132.803 106.219 132.927 106.517C133.056 106.809 133.162 107.056 133.247 107.258C133.331 107.455 133.384 107.578 133.407 107.629H132.387ZM129.953 105.144H131.351L130.745 103.678C130.739 103.673 130.725 103.636 130.703 103.569C130.68 103.496 130.664 103.431 130.652 103.375C130.641 103.431 130.624 103.496 130.602 103.569C130.579 103.636 130.568 103.673 130.568 103.678L129.953 105.144Z" fill="black"/>
<path d="M133.873 106.188V105.338H135.448V106.188H133.873Z" fill="black"/>
<path d="M140.399 107.629C140.382 107.589 140.351 107.519 140.306 107.418C140.267 107.317 140.216 107.193 140.155 107.047C140.093 106.901 140.025 106.741 139.952 106.567C139.879 106.388 139.804 106.202 139.725 106.011H137.611L136.937 107.629H135.918C135.94 107.578 135.994 107.455 136.078 107.258C136.162 107.056 136.266 106.809 136.39 106.517C136.519 106.219 136.659 105.891 136.811 105.531C136.968 105.166 137.128 104.796 137.291 104.42C137.454 104.043 137.611 103.676 137.763 103.316C137.92 102.951 138.06 102.623 138.184 102.331C138.313 102.033 138.42 101.786 138.504 101.59C138.588 101.387 138.641 101.261 138.664 101.211C138.686 101.261 138.74 101.387 138.824 101.59C138.914 101.786 139.02 102.033 139.144 102.331C139.273 102.623 139.413 102.951 139.565 103.316C139.722 103.676 139.882 104.043 140.045 104.42C140.208 104.796 140.365 105.166 140.517 105.531C140.674 105.891 140.814 106.219 140.938 106.517C141.067 106.809 141.174 107.056 141.258 107.258C141.342 107.455 141.396 107.578 141.418 107.629H140.399ZM137.965 105.144H139.363L138.756 103.678C138.751 103.673 138.737 103.636 138.714 103.569C138.692 103.496 138.675 103.431 138.664 103.375C138.653 103.431 138.636 103.496 138.613 103.569C138.591 103.636 138.58 103.673 138.58 103.678L137.965 105.144Z" fill="black"/>
<path d="M142.128 107.629V101.488H143.863C144.2 101.488 144.506 101.533 144.781 101.623C145.062 101.713 145.298 101.842 145.489 102.011C145.685 102.179 145.837 102.387 145.944 102.634C146.05 102.881 146.104 103.159 146.104 103.468C146.104 103.636 146.087 103.805 146.053 103.973C146.02 104.142 145.966 104.304 145.893 104.462C145.82 104.619 145.725 104.765 145.607 104.9C145.489 105.029 145.348 105.141 145.186 105.237C145.309 105.433 145.43 105.627 145.548 105.818C145.666 106.003 145.784 106.191 145.902 106.382C146.025 106.573 146.151 106.769 146.281 106.972C146.41 107.174 146.55 107.393 146.702 107.629H145.464C145.211 107.236 144.972 106.865 144.748 106.517C144.523 106.163 144.307 105.829 144.099 105.514H144.015H143.156V107.629H142.128ZM143.156 104.546H143.981C144.195 104.546 144.371 104.509 144.512 104.436C144.652 104.363 144.765 104.276 144.849 104.175C144.933 104.069 144.992 103.956 145.026 103.838C145.059 103.715 145.076 103.603 145.076 103.501C145.076 103.406 145.059 103.299 145.026 103.181C144.998 103.058 144.941 102.943 144.857 102.836C144.779 102.729 144.669 102.64 144.529 102.567C144.388 102.494 144.209 102.457 143.99 102.457H143.156V104.546Z" fill="black"/>
<path d="M152.008 107.174C151.941 107.219 151.845 107.272 151.722 107.334C151.604 107.396 151.461 107.455 151.292 107.511C151.129 107.561 150.944 107.603 150.736 107.637C150.529 107.676 150.307 107.696 150.071 107.696C149.588 107.696 149.156 107.615 148.774 107.452C148.392 107.283 148.069 107.059 147.805 106.778C147.541 106.497 147.339 106.169 147.199 105.792C147.058 105.416 146.988 105.02 146.988 104.605C146.988 104.144 147.073 103.72 147.241 103.333C147.409 102.94 147.637 102.603 147.923 102.322C148.215 102.036 148.552 101.814 148.934 101.657C149.321 101.5 149.734 101.421 150.172 101.421C150.341 101.421 150.509 101.435 150.677 101.463C150.852 101.486 151.014 101.517 151.166 101.556C151.318 101.595 151.45 101.64 151.562 101.691C151.68 101.741 151.764 101.794 151.814 101.851C151.764 101.929 151.725 101.994 151.697 102.044C151.669 102.095 151.638 102.148 151.604 102.204C151.576 102.255 151.542 102.314 151.503 102.381C151.469 102.449 151.419 102.541 151.351 102.659C151.284 102.614 151.202 102.575 151.107 102.541C151.012 102.508 150.91 102.482 150.804 102.465C150.703 102.443 150.599 102.426 150.492 102.415C150.385 102.404 150.29 102.398 150.206 102.398C149.891 102.398 149.599 102.457 149.33 102.575C149.066 102.693 148.836 102.85 148.639 103.047C148.448 103.238 148.297 103.462 148.184 103.72C148.078 103.979 148.024 104.245 148.024 104.521C148.024 104.79 148.075 105.054 148.176 105.312C148.283 105.565 148.429 105.79 148.614 105.986C148.805 106.183 149.029 106.343 149.288 106.466C149.546 106.584 149.832 106.643 150.147 106.643C150.326 106.643 150.501 106.626 150.669 106.593C150.837 106.553 150.986 106.511 151.115 106.466C151.245 106.421 151.348 106.376 151.427 106.331C151.511 106.287 151.556 106.256 151.562 106.239L152.008 107.174Z" fill="black"/>
<path d="M152.772 107.629V101.488H153.808V104.049H156.739V101.488H157.783C157.783 101.556 157.783 101.744 157.783 102.053C157.783 102.362 157.783 102.735 157.783 103.173C157.783 103.605 157.78 104.069 157.775 104.563C157.775 105.051 157.775 105.514 157.775 105.952C157.775 106.385 157.775 106.755 157.775 107.064C157.775 107.373 157.775 107.561 157.775 107.629H156.739V105.034H153.808V107.629H152.772Z" fill="black"/>
<path d="M159.196 101.488H160.232V107.629H159.196V101.488Z" fill="black"/>
<path d="M161.958 101.488L163.601 105.439C163.601 105.444 163.612 105.484 163.635 105.557C163.657 105.624 163.674 105.689 163.685 105.75C163.696 105.689 163.713 105.624 163.736 105.557C163.758 105.484 163.772 105.444 163.778 105.439L165.42 101.488H166.439C166.417 101.539 166.363 101.665 166.279 101.867C166.195 102.07 166.088 102.319 165.959 102.617C165.836 102.909 165.695 103.238 165.538 103.603C165.386 103.962 165.229 104.33 165.066 104.706C164.904 105.077 164.744 105.444 164.586 105.809C164.435 106.174 164.294 106.506 164.165 106.803C164.042 107.095 163.935 107.342 163.845 107.544C163.761 107.741 163.708 107.864 163.685 107.915C163.663 107.864 163.609 107.741 163.525 107.544C163.441 107.342 163.334 107.095 163.205 106.803C163.081 106.506 162.941 106.174 162.784 105.809C162.632 105.444 162.475 105.077 162.312 104.706C162.149 104.33 161.989 103.962 161.832 103.603C161.68 103.238 161.54 102.909 161.411 102.617C161.287 102.319 161.184 102.07 161.099 101.867C161.015 101.665 160.962 101.539 160.939 101.488H161.958Z" fill="black"/>
<path d="M166.49 104.571C166.49 104.144 166.572 103.74 166.734 103.358C166.903 102.976 167.128 102.642 167.408 102.356C167.695 102.07 168.026 101.842 168.402 101.674C168.784 101.505 169.191 101.421 169.623 101.421C170.05 101.421 170.454 101.505 170.836 101.674C171.218 101.842 171.552 102.07 171.839 102.356C172.125 102.642 172.35 102.976 172.512 103.358C172.681 103.74 172.765 104.144 172.765 104.571C172.765 105.004 172.681 105.411 172.512 105.792C172.35 106.169 172.125 106.5 171.839 106.786C171.552 107.067 171.218 107.289 170.836 107.452C170.454 107.615 170.05 107.696 169.623 107.696C169.191 107.696 168.784 107.615 168.402 107.452C168.026 107.289 167.695 107.067 167.408 106.786C167.128 106.5 166.903 106.169 166.734 105.792C166.572 105.411 166.49 105.004 166.49 104.571ZM167.526 104.571C167.526 104.869 167.58 105.15 167.686 105.413C167.799 105.672 167.95 105.899 168.141 106.096C168.338 106.287 168.562 106.438 168.815 106.55C169.073 106.663 169.351 106.719 169.649 106.719C169.935 106.719 170.205 106.663 170.457 106.55C170.716 106.438 170.937 106.287 171.123 106.096C171.314 105.899 171.462 105.672 171.569 105.413C171.681 105.15 171.738 104.869 171.738 104.571C171.738 104.274 171.681 103.996 171.569 103.737C171.457 103.473 171.305 103.243 171.114 103.047C170.923 102.85 170.699 102.696 170.44 102.583C170.188 102.471 169.915 102.415 169.623 102.415C169.331 102.415 169.056 102.471 168.798 102.583C168.545 102.696 168.324 102.85 168.133 103.047C167.947 103.243 167.799 103.473 167.686 103.737C167.58 103.996 167.526 104.274 167.526 104.571Z" fill="black"/>
<path d="M177.335 101.834L176.964 102.676C176.729 102.592 176.496 102.524 176.265 102.474C176.035 102.423 175.822 102.398 175.625 102.398C175.283 102.398 175.01 102.465 174.808 102.6C174.612 102.735 174.513 102.906 174.513 103.114C174.513 103.294 174.586 103.44 174.732 103.552C174.884 103.664 175.072 103.765 175.297 103.855C175.521 103.945 175.763 104.038 176.021 104.133C176.285 104.223 176.529 104.341 176.754 104.487C176.978 104.633 177.164 104.818 177.31 105.043C177.461 105.267 177.537 105.554 177.537 105.902C177.537 106.171 177.487 106.416 177.386 106.635C177.29 106.854 177.144 107.042 176.948 107.199C176.751 107.356 176.501 107.48 176.198 107.57C175.9 107.654 175.549 107.696 175.145 107.696C174.898 107.696 174.673 107.679 174.471 107.645C174.269 107.612 174.087 107.57 173.924 107.519C173.767 107.469 173.626 107.415 173.503 107.359C173.379 107.297 173.272 107.238 173.183 107.182L173.629 106.281C173.865 106.41 174.118 106.511 174.387 106.584C174.657 106.652 174.895 106.685 175.103 106.685C175.204 106.685 175.333 106.674 175.49 106.652C175.653 106.629 175.811 106.587 175.962 106.525C176.114 106.463 176.243 106.379 176.35 106.273C176.462 106.166 176.518 106.028 176.518 105.86C176.518 105.663 176.442 105.503 176.291 105.38C176.145 105.251 175.959 105.138 175.735 105.043C175.51 104.942 175.266 104.843 175.002 104.748C174.744 104.653 174.502 104.54 174.278 104.411C174.053 104.276 173.865 104.114 173.713 103.923C173.567 103.726 173.494 103.479 173.494 103.181C173.494 102.968 173.536 102.76 173.621 102.558C173.705 102.35 173.831 102.165 174 102.002C174.174 101.839 174.387 101.707 174.64 101.606C174.898 101.505 175.201 101.455 175.549 101.455C175.768 101.455 175.979 101.474 176.181 101.514C176.389 101.547 176.574 101.587 176.737 101.632C176.9 101.677 177.035 101.721 177.141 101.766C177.248 101.806 177.313 101.828 177.335 101.834Z" fill="black"/>
<path d="M99.158 114.407C99.158 113.98 99.1973 113.573 99.2759 113.186C99.3545 112.798 99.4584 112.439 99.5875 112.108C99.7223 111.771 99.8739 111.468 100.042 111.198C100.211 110.928 100.385 110.701 100.565 110.516C100.694 110.549 100.823 110.583 100.952 110.617C101.087 110.645 101.219 110.676 101.348 110.71C101.185 110.895 101.022 111.117 100.859 111.375C100.702 111.633 100.562 111.92 100.438 112.234C100.315 112.543 100.214 112.883 100.135 113.253C100.062 113.618 100.025 114.003 100.025 114.407C100.025 114.811 100.062 115.196 100.135 115.561C100.214 115.926 100.315 116.266 100.438 116.58C100.562 116.895 100.702 117.178 100.859 117.431C101.022 117.689 101.185 117.911 101.348 118.096C101.219 118.135 101.087 118.169 100.952 118.197C100.823 118.231 100.694 118.265 100.565 118.298C100.385 118.107 100.211 117.877 100.042 117.608C99.8739 117.338 99.7223 117.038 99.5875 116.706C99.4584 116.375 99.3545 116.016 99.2759 115.628C99.1973 115.241 99.158 114.834 99.158 114.407Z" fill="black"/>
<path d="M102.129 110.752H103.165V116.892H102.129V110.752Z" fill="black"/>
<path d="M104.58 110.482C104.608 110.521 104.67 110.611 104.765 110.752C104.861 110.886 104.979 111.055 105.119 111.257C105.265 111.454 105.425 111.672 105.599 111.914C105.779 112.155 105.958 112.402 106.138 112.655C106.323 112.902 106.503 113.146 106.677 113.388C106.851 113.624 107.008 113.84 107.149 114.036C107.289 114.233 107.407 114.399 107.503 114.533C107.604 114.663 107.665 114.744 107.688 114.778C107.699 114.761 107.75 114.691 107.839 114.567C107.929 114.438 108.042 114.278 108.176 114.087C108.317 113.896 108.474 113.68 108.648 113.438C108.822 113.191 109.002 112.942 109.187 112.689C109.372 112.436 109.552 112.186 109.726 111.939C109.906 111.692 110.069 111.468 110.215 111.265C110.366 111.063 110.493 110.892 110.594 110.752C110.695 110.611 110.759 110.521 110.787 110.482V116.892H109.684V113.759C109.684 113.714 109.69 113.666 109.701 113.615C109.712 113.565 109.718 113.534 109.718 113.523L107.688 116.445C107.66 116.412 107.59 116.319 107.477 116.167C107.371 116.016 107.241 115.836 107.09 115.628C106.938 115.421 106.778 115.199 106.61 114.963C106.441 114.722 106.281 114.5 106.13 114.298C105.984 114.09 105.857 113.916 105.751 113.775C105.65 113.629 105.593 113.545 105.582 113.523C105.582 113.534 105.588 113.565 105.599 113.615C105.61 113.666 105.616 113.714 105.616 113.759V116.892H104.58V110.482Z" fill="black"/>
<path d="M113.771 114.441C113.771 114.867 113.732 115.275 113.653 115.662C113.575 116.049 113.468 116.409 113.333 116.74C113.204 117.071 113.055 117.372 112.887 117.641C112.718 117.911 112.544 118.141 112.365 118.332L111.581 118.155C111.75 117.97 111.913 117.748 112.07 117.49C112.227 117.231 112.368 116.948 112.491 116.639C112.615 116.325 112.713 115.985 112.786 115.62C112.864 115.249 112.904 114.862 112.904 114.458C112.904 114.053 112.864 113.669 112.786 113.304C112.713 112.939 112.615 112.599 112.491 112.285C112.368 111.97 112.227 111.687 112.07 111.434C111.913 111.176 111.75 110.951 111.581 110.76C111.711 110.726 111.84 110.693 111.969 110.659C112.104 110.62 112.236 110.58 112.365 110.541C112.544 110.732 112.718 110.962 112.887 111.232C113.055 111.501 113.204 111.802 113.333 112.133C113.468 112.464 113.575 112.826 113.653 113.219C113.732 113.607 113.771 114.014 113.771 114.441Z" fill="black"/>
<path d="M115.799 113.809H116.624C116.837 113.809 117.014 113.773 117.155 113.7C117.295 113.627 117.407 113.537 117.491 113.43C117.576 113.318 117.635 113.203 117.668 113.085C117.702 112.961 117.719 112.852 117.719 112.756C117.719 112.666 117.702 112.562 117.668 112.445C117.64 112.321 117.584 112.206 117.5 112.099C117.421 111.993 117.312 111.903 117.171 111.83C117.031 111.757 116.851 111.72 116.632 111.72H115.799V113.809ZM114.771 116.892V110.752H116.506C116.843 110.752 117.149 110.797 117.424 110.886C117.705 110.976 117.941 111.105 118.132 111.274C118.328 111.442 118.48 111.65 118.586 111.897C118.693 112.144 118.746 112.422 118.746 112.731C118.746 112.978 118.71 113.225 118.637 113.472C118.564 113.714 118.443 113.933 118.275 114.129C118.112 114.32 117.899 114.477 117.635 114.601C117.371 114.719 117.045 114.778 116.658 114.778H115.799V116.892H114.771Z" fill="black"/>
<path d="M119.277 113.834C119.277 113.408 119.359 113.003 119.521 112.621C119.69 112.24 119.914 111.906 120.195 111.619C120.482 111.333 120.813 111.105 121.189 110.937C121.571 110.768 121.978 110.684 122.41 110.684C122.837 110.684 123.241 110.768 123.623 110.937C124.005 111.105 124.339 111.333 124.626 111.619C124.912 111.906 125.137 112.24 125.299 112.621C125.468 113.003 125.552 113.408 125.552 113.834C125.552 114.267 125.468 114.674 125.299 115.056C125.137 115.432 124.912 115.763 124.626 116.049C124.339 116.33 124.005 116.552 123.623 116.715C123.241 116.878 122.837 116.959 122.41 116.959C121.978 116.959 121.571 116.878 121.189 116.715C120.813 116.552 120.482 116.33 120.195 116.049C119.914 115.763 119.69 115.432 119.521 115.056C119.359 114.674 119.277 114.267 119.277 113.834ZM120.313 113.834C120.313 114.132 120.367 114.413 120.473 114.677C120.585 114.935 120.737 115.162 120.928 115.359C121.125 115.55 121.349 115.701 121.602 115.814C121.86 115.926 122.138 115.982 122.436 115.982C122.722 115.982 122.992 115.926 123.244 115.814C123.503 115.701 123.724 115.55 123.91 115.359C124.101 115.162 124.249 114.935 124.356 114.677C124.468 114.413 124.524 114.132 124.524 113.834C124.524 113.537 124.468 113.259 124.356 113C124.244 112.737 124.092 112.506 123.901 112.31C123.71 112.113 123.486 111.959 123.227 111.847C122.975 111.734 122.702 111.678 122.41 111.678C122.118 111.678 121.843 111.734 121.585 111.847C121.332 111.959 121.111 112.113 120.92 112.31C120.734 112.506 120.585 112.737 120.473 113C120.367 113.259 120.313 113.537 120.313 113.834Z" fill="black"/>
<path d="M130.122 111.097L129.751 111.939C129.516 111.855 129.282 111.788 129.052 111.737C128.822 111.687 128.609 111.661 128.412 111.661C128.07 111.661 127.797 111.729 127.595 111.863C127.399 111.998 127.3 112.169 127.3 112.377C127.3 112.557 127.373 112.703 127.519 112.815C127.671 112.927 127.859 113.029 128.084 113.118C128.308 113.208 128.55 113.301 128.808 113.396C129.072 113.486 129.316 113.604 129.541 113.75C129.765 113.896 129.951 114.081 130.097 114.306C130.248 114.531 130.324 114.817 130.324 115.165C130.324 115.435 130.274 115.679 130.172 115.898C130.077 116.117 129.931 116.305 129.735 116.462C129.538 116.619 129.288 116.743 128.985 116.833C128.687 116.917 128.336 116.959 127.932 116.959C127.685 116.959 127.46 116.942 127.258 116.909C127.056 116.875 126.874 116.833 126.711 116.782C126.554 116.732 126.413 116.678 126.29 116.622C126.166 116.56 126.059 116.501 125.97 116.445L126.416 115.544C126.652 115.673 126.904 115.774 127.174 115.847C127.444 115.915 127.682 115.948 127.89 115.948C127.991 115.948 128.12 115.937 128.277 115.915C128.44 115.892 128.597 115.85 128.749 115.788C128.901 115.727 129.03 115.642 129.137 115.536C129.249 115.429 129.305 115.291 129.305 115.123C129.305 114.926 129.229 114.766 129.078 114.643C128.932 114.514 128.746 114.401 128.522 114.306C128.297 114.205 128.053 114.107 127.789 114.011C127.531 113.916 127.289 113.803 127.065 113.674C126.84 113.54 126.652 113.377 126.5 113.186C126.354 112.989 126.281 112.742 126.281 112.445C126.281 112.231 126.323 112.023 126.408 111.821C126.492 111.614 126.618 111.428 126.787 111.265C126.961 111.103 127.174 110.971 127.427 110.87C127.685 110.768 127.988 110.718 128.336 110.718C128.555 110.718 128.766 110.738 128.968 110.777C129.176 110.811 129.361 110.85 129.524 110.895C129.687 110.94 129.822 110.985 129.928 111.03C130.035 111.069 130.099 111.091 130.122 111.097Z" fill="black"/>
<path d="M131.312 110.752H132.348V116.892H131.312V110.752Z" fill="black"/>
<path d="M134.791 111.687V113.354H135.566C135.852 113.354 136.063 113.27 136.197 113.102C136.338 112.933 136.408 112.731 136.408 112.495C136.408 112.22 136.324 112.018 136.155 111.889C135.987 111.754 135.759 111.687 135.473 111.687H134.791ZM134.791 114.23V115.957H135.599C135.751 115.957 135.894 115.94 136.029 115.906C136.164 115.867 136.282 115.814 136.383 115.746C136.484 115.673 136.562 115.583 136.618 115.477C136.675 115.364 136.703 115.235 136.703 115.089C136.703 114.926 136.669 114.792 136.602 114.685C136.534 114.573 136.444 114.483 136.332 114.415C136.22 114.348 136.091 114.3 135.945 114.272C135.804 114.244 135.658 114.23 135.507 114.23H134.791ZM133.763 116.892V110.752H135.439C135.742 110.752 136.018 110.782 136.265 110.844C136.512 110.9 136.722 110.993 136.896 111.122C137.07 111.246 137.202 111.411 137.292 111.619C137.388 111.821 137.435 112.066 137.435 112.352C137.435 112.509 137.419 112.664 137.385 112.815C137.357 112.961 137.306 113.099 137.233 113.228C137.166 113.351 137.076 113.461 136.964 113.556C136.851 113.652 136.711 113.725 136.543 113.775C136.683 113.803 136.823 113.851 136.964 113.919C137.11 113.986 137.239 114.079 137.351 114.196C137.463 114.309 137.553 114.452 137.621 114.626C137.694 114.795 137.73 114.994 137.73 115.224C137.73 115.522 137.671 115.777 137.553 115.991C137.441 116.198 137.289 116.37 137.099 116.504C136.913 116.639 136.697 116.737 136.45 116.799C136.203 116.861 135.947 116.892 135.683 116.892H133.763Z" fill="black"/>
<path d="M138.772 116.892V110.752H139.8V115.915H142.782V116.892H138.772Z" fill="black"/>
<path d="M143.617 116.892V110.752H147.694V111.687H144.645V113.337H147.357V114.298H144.645V115.932H147.811V116.892H143.617Z" fill="black"/>
<path d="M152.454 111.097L152.083 111.939C151.847 111.855 151.614 111.788 151.384 111.737C151.154 111.687 150.94 111.661 150.744 111.661C150.401 111.661 150.129 111.729 149.927 111.863C149.73 111.998 149.632 112.169 149.632 112.377C149.632 112.557 149.705 112.703 149.851 112.815C150.003 112.927 150.191 113.029 150.415 113.118C150.64 113.208 150.881 113.301 151.14 113.396C151.404 113.486 151.648 113.604 151.872 113.75C152.097 113.896 152.282 114.081 152.428 114.306C152.58 114.531 152.656 114.817 152.656 115.165C152.656 115.435 152.605 115.679 152.504 115.898C152.409 116.117 152.263 116.305 152.066 116.462C151.87 116.619 151.62 116.743 151.317 116.833C151.019 116.917 150.668 116.959 150.264 116.959C150.017 116.959 149.792 116.942 149.59 116.909C149.388 116.875 149.205 116.833 149.042 116.782C148.885 116.732 148.745 116.678 148.621 116.622C148.498 116.56 148.391 116.501 148.301 116.445L148.748 115.544C148.983 115.673 149.236 115.774 149.506 115.847C149.775 115.915 150.014 115.948 150.222 115.948C150.323 115.948 150.452 115.937 150.609 115.915C150.772 115.892 150.929 115.85 151.081 115.788C151.232 115.727 151.361 115.642 151.468 115.536C151.58 115.429 151.637 115.291 151.637 115.123C151.637 114.926 151.561 114.766 151.409 114.643C151.263 114.514 151.078 114.401 150.853 114.306C150.629 114.205 150.384 114.107 150.12 114.011C149.862 113.916 149.621 113.803 149.396 113.674C149.172 113.54 148.983 113.377 148.832 113.186C148.686 112.989 148.613 112.742 148.613 112.445C148.613 112.231 148.655 112.023 148.739 111.821C148.823 111.614 148.95 111.428 149.118 111.265C149.292 111.103 149.506 110.971 149.758 110.87C150.017 110.768 150.32 110.718 150.668 110.718C150.887 110.718 151.098 110.738 151.3 110.777C151.507 110.811 151.693 110.85 151.856 110.895C152.018 110.94 152.153 110.985 152.26 111.03C152.367 111.069 152.431 111.091 152.454 111.097Z" fill="black"/>
</g>
<defs>
<clipPath id="clip0">
<rect width="160" height="37.8947" fill="white" transform="translate(20 81)"/>
</clipPath>
<clipPath id="clip1">
<rect width="160" height="37.8947" fill="white" transform="translate(20 81)"/>
</clipPath>
</defs>
</svg>
