<svg width="200" height="200" fill="none" xmlns="http://www.w3.org/2000/svg"><path fill="#fff" d="M0 0h200v200H0z"/><g clip-path="url(#clip0)" fill="#000"><path d="M25.818 81.97v9.616h.081c1.293-1.778 2.91-2.586 5.09-2.586 4.041 0 5.98 2.748 5.98 6.788v9.939h-5.656v-8.323c0-1.858-.242-3.879-2.586-3.879-2.262 0-2.99 1.94-2.99 3.88v8.322h-5.656V81.97h5.737zM50.95 95.222c-.243-1.535-1.698-2.586-3.233-2.586-1.616 0-2.99.89-3.394 2.586h6.627zm5.333 3.313h-11.96c0 2.344 1.212 3.637 3.556 3.637 1.212 0 2.1-.404 2.747-1.455h5.495c-.889 3.798-4.525 5.576-8.161 5.576-5.334 0-9.293-3.071-9.293-8.647 0-5.414 3.636-8.646 8.889-8.646 5.575 0 8.727 3.475 8.727 8.97v.565zm1.616 7.192h5.657V81.97h-5.657v23.757m16.485-7.919l3.798-8.323h6.384l-8.324 16.242h-3.717l-8.404-16.242h6.384l3.879 8.323zm21.091-2.586c-.243-1.535-1.697-2.586-3.233-2.586-1.616 0-2.99.89-3.394 2.586h6.627zm5.252 3.313h-11.96c0 2.344 1.213 3.637 3.556 3.637 1.212 0 2.101-.404 2.748-1.455h5.495c-.89 3.798-4.526 5.576-8.162 5.576-5.333 0-9.293-3.071-9.293-8.647C83.111 92.233 86.747 89 92 89c5.576 0 8.727 3.475 8.727 8.97v.565zm8.404 7.192h-5.656V94.252h-1.859v-4.767h1.859v-4.849h5.656v4.849h3.233v4.767h-3.233v11.475m9.94 0h-5.657V89.485h5.657v16.242zm.404-21.333c0 1.778-1.455 3.232-3.152 3.232-1.778 0-3.151-1.454-3.151-3.232 0-1.778 1.454-3.232 3.151-3.232 1.697 0 3.152 1.454 3.152 3.232zm7.111 13.253c0 2.02 1.374 3.636 3.636 3.636 2.344 0 3.637-1.616 3.637-3.636s-1.374-3.637-3.637-3.637c-2.262-.08-3.636 1.616-3.636 3.636zm12.848 8.08h-5.656v-1.778h-.081c-.97 1.617-2.99 2.344-4.848 2.344-4.768 0-8.081-4.04-8.081-8.647 0-4.606 3.313-8.646 8-8.646 1.858 0 3.798.727 4.929 2.101v-1.616h5.657v16.242m13.737-5.576l6.384-1.697 1.374-3.232-2.829-6.626-.646 1.616-4.283 9.939zm14.303-20.767l-2.667-6.06-6.464 1.454 2.586 6.141 6.545-1.535zm-9.859 8.242l.081-.242 2.586-5.98-2.586-5.818-10.101 23.919 4.606.808 5.414-12.687z"/><path d="M160.202 81.404l-.162-.323-2.343-5.576-.081.08 2.586 5.819zm-.566 17.939l-5.252 1.293 9.374 1.697-.97-2.424-3.152-.566zm-7.434 1.859l-1.778-.323h.081l-3.394-.647-2.101 5.172 21.818 3.96-2.586-6.061-12.04-2.101z"/><path d="M150.586 100.798l-3.475-.566 3.394.647.081-.081z"/><path d="M150.505 100.879h-.081l1.778.323-.081-.081-1.616-.242zm2.101.323l-.242-.081-.162.081 12.04 2.101v-.081l-11.636-2.02z"/><path d="M152.202 101.202l.162-.081h-.243l.081.081z"/><path d="M152.121 101.121l-1.535-.323-.081.081 1.616.242zm.243 0l.242.081-.242-.081zm8.808-19.394l1.616 3.717 10.747 25.051 6.384-1.859-12.202-28.444-3.232.727-3.313.808z"/><path d="M164.485 80.92l3.232-.728-3.232.727zm-5.98 6.626l3.232 7.595v.081l3.152 7.273 1.212 2.909 1.778 4.121 4.767.889-7.191-16.808-4.849-11.07-2.101 5.01z"/><path d="M161.737 95.222v-.08l-3.232-7.597-.081.081 3.313 7.596zm-1.131-12.687v-.08l-2.182 5.01.081.08 2.101-5.01z"/><path d="M158.424 87.626l.081-.08-.081-.081v.161zm6.465 14.869l1.212 2.909-1.212-2.909zm7.758 7.919l-7.192-16.808 7.192 16.808z"/></g><path d="M59.588 125.781h.845v-7.111h-.845v7.111zm2.484 0h.756v-2.297c0-.488 0-.855.258-1.174.249-.308.637-.477 1.085-.477.795 0 1.183.437 1.183 1.333v2.615h.756v-3.023c0-1.005-.637-1.582-1.671-1.582-.696 0-1.233.269-1.621.846v-3.77h-.746v7.529zm5.546 0h.756v-2.168c0-1.164.398-1.74 1.203-1.74.14 0 .299.029.468.089l.258-.686a1.521 1.521 0 00-.517-.09c-.676 0-1.094.319-1.492 1.075v-.925h-.676v4.445zm7.445-2.108v-.149c0-1.472-.835-2.357-2.138-2.357-1.293 0-2.218.974-2.218 2.377 0 1.452.915 2.426 2.268 2.426.915 0 1.61-.408 2.058-1.213l-.576-.388c-.368.646-.846.965-1.443.965-.855 0-1.472-.627-1.472-1.592v-.069h3.521zm-.815-.617h-2.706c.08-.756.627-1.223 1.353-1.223.806 0 1.303.437 1.353 1.223zm7.554-1.223l-1.014-.448c-.647-.278-.955-.636-.955-1.143 0-.607.448-1.035 1.084-1.035.507 0 .895.279 1.204.816l.696-.448c-.348-.706-.985-1.074-1.84-1.074-1.184 0-2 .756-2 1.751 0 .865.458 1.481 1.403 1.879l.865.368c.736.318 1.104.786 1.104 1.422 0 .776-.567 1.323-1.422 1.323-.716 0-1.203-.447-1.412-1.313l-.766.378c.269 1.055 1.054 1.651 2.178 1.651 1.372 0 2.278-.875 2.278-2.178 0-.895-.468-1.551-1.403-1.949zm5.855 2.894c-.468.338-.895.507-1.373.507-.925 0-1.59-.716-1.59-1.611 0-1.054.675-1.711 1.65-1.711.438 0 .856.14 1.233.388v-.815a3.168 3.168 0 00-1.382-.309c-1.333 0-2.317.975-2.317 2.427 0 1.403.905 2.367 2.287 2.367.577 0 1.084-.119 1.492-.358v-.885zm1.056 1.054h.756v-2.297c0-.488 0-.855.259-1.174.249-.308.636-.477 1.084-.477.796 0 1.183.437 1.183 1.333v2.615h.756v-3.023c0-1.005-.636-1.582-1.67-1.582-.697 0-1.234.269-1.622.846v-3.77h-.746v7.529zm8.262-4.605h-.12l-1.352 3.193-1.184-3.033h-.845l1.979 4.724 1.462-3.412 1.462 3.412 1.979-4.724h-.855l-1.194 3.033-1.332-3.193zm8.129 2.497v-.149c0-1.472-.835-2.357-2.138-2.357-1.293 0-2.218.974-2.218 2.377 0 1.452.915 2.426 2.267 2.426.915 0 1.612-.408 2.059-1.213l-.577-.388c-.368.646-.845.965-1.442.965-.855 0-1.472-.627-1.472-1.592v-.069h3.521zm-.816-.617h-2.705c.08-.756.627-1.223 1.353-1.223.805 0 1.303.437 1.352 1.223zm1.996 2.725h.756v-4.445h-.756v4.445zm-.179-6.584a.55.55 0 00.557.557.547.547 0 00.557-.547.565.565 0 00-.557-.567.557.557 0 00-.557.557zm1.922 6.584h3.868v-.666h-2.526l2.546-3.779h-3.729v.666h2.387l-2.546 3.779zm8.878-2.108v-.149c0-1.472-.836-2.357-2.139-2.357-1.293 0-2.218.974-2.218 2.377 0 1.452.915 2.426 2.268 2.426.915 0 1.611-.408 2.059-1.213l-.577-.388c-.368.646-.845.965-1.442.965-.855 0-1.472-.627-1.472-1.592v-.069h3.521zm-.816-.617h-2.705c.079-.756.626-1.223 1.353-1.223.805 0 1.302.437 1.352 1.223zm1.966 2.725h.756v-2.168c0-1.164.398-1.74 1.203-1.74.14 0 .299.029.468.089l.258-.686a1.52 1.52 0 00-.517-.09c-.676 0-1.094.319-1.492 1.075v-.925h-.676v4.445zm8.519.279l2.993-7.39h-.915l-2.078 5.44-2.089-5.44h-.915l3.004 7.39zm7.075-2.387v-.149c0-1.472-.835-2.357-2.138-2.357-1.293 0-2.218.974-2.218 2.377 0 1.452.915 2.426 2.267 2.426.915 0 1.612-.408 2.059-1.213l-.577-.388c-.368.646-.845.965-1.442.965-.855 0-1.472-.627-1.472-1.592v-.069h3.521zm-.816-.617h-2.705c.08-.756.627-1.223 1.353-1.223.805 0 1.303.437 1.352 1.223zm1.966 2.725h.756v-2.168c0-1.164.398-1.74 1.204-1.74.139 0 .298.029.467.089l.259-.686a1.52 1.52 0 00-.517-.09c-.677 0-1.094.319-1.492 1.075v-.925h-.677v4.445zm3.01-.746c.348.627.925.935 1.75.935.985 0 1.621-.587 1.621-1.412 0-.726-.427-1.044-1.293-1.323-.735-.239-1.143-.298-1.143-.766 0-.387.308-.666.756-.666.467 0 .835.229 1.014.637l.617-.378c-.239-.567-.816-.886-1.582-.886-.945 0-1.571.567-1.571 1.343 0 .875.656 1.064 1.75 1.442.468.159.697.338.697.677 0 .387-.329.666-.836.666-.507 0-.885-.229-1.134-.706l-.646.437zm4.557.746h.756v-4.445h-.756v4.445zm-.179-6.584a.55.55 0 00.557.557.547.547 0 00.557-.547.565.565 0 00-.557-.567.557.557 0 00-.557.557zm5.959 5.53c-.467.338-.895.507-1.372.507-.925 0-1.591-.716-1.591-1.611 0-1.054.676-1.711 1.651-1.711.437 0 .855.14 1.233.388v-.815a3.169 3.169 0 00-1.383-.309c-1.332 0-2.317.975-2.317 2.427 0 1.403.905 2.367 2.288 2.367.576 0 1.084-.119 1.491-.358v-.885zm1.057 1.054h.756v-2.297c0-.488 0-.855.258-1.174.249-.308.637-.477 1.084-.477.796 0 1.184.437 1.184 1.333v2.615h.756v-3.023c0-1.005-.637-1.582-1.671-1.582-.696 0-1.233.269-1.621.846v-3.77h-.746v7.529zm9.504-2.108v-.149c0-1.472-.835-2.357-2.138-2.357-1.293 0-2.218.974-2.218 2.377 0 1.452.915 2.426 2.268 2.426.915 0 1.611-.408 2.058-1.213l-.576-.388c-.368.646-.846.965-1.443.965-.855 0-1.471-.627-1.471-1.592v-.069h3.52zm-.815-.617h-2.705c.079-.756.626-1.223 1.352-1.223.806 0 1.303.437 1.353 1.223zm1.966 2.725h.756v-2.168c0-1.164.397-1.74 1.203-1.74.139 0 .298.029.467.089l.259-.686a1.52 1.52 0 00-.517-.09c-.676 0-1.094.319-1.492 1.075v-.925h-.676v4.445zm4.173-4.445h-.756v2.655c0 1.303.706 1.979 1.999 1.979 1.333 0 2.029-.696 2.029-2.039v-2.595h-.756v2.188c-.02 1.173-.278 1.72-1.253 1.72-.975 0-1.263-.547-1.263-1.72v-2.188zm4.743 4.445h.755v-2.297c0-.488 0-.855.259-1.174.249-.308.637-.477 1.084-.477.796 0 1.184.437 1.184 1.333v2.615h.755v-3.023c0-1.005-.636-1.582-1.67-1.582-.697 0-1.234.269-1.612.846v-.686h-.755v4.445zm9.693-4.445h-.776v.825c-.328-.646-.895-.985-1.631-.985-1.243 0-2.088.886-2.088 2.368 0 1.442.855 2.377 2.128 2.377.686 0 1.263-.349 1.611-.985v.746c0 .408-.02.736-.189 1.014-.229.388-.666.587-1.273.587-.855 0-1.323-.388-1.323-1.044v-.06h-.855c.03 1.114.806 1.77 2.168 1.77.786 0 1.383-.228 1.79-.676.418-.437.438-.935.438-1.571v-4.366zm-.756 2.237c0 1.025-.557 1.621-1.452 1.621-.945 0-1.482-.606-1.482-1.68 0-1.015.537-1.602 1.452-1.602.856 0 1.482.627 1.482 1.661z" fill="#000"/><defs><clipPath id="clip0"><path fill="#fff" transform="translate(20 73)" d="M0 0h160v37.98H0z"/></clipPath></defs></svg>