<svg width="200" height="200" fill="none" xmlns="http://www.w3.org/2000/svg"><path fill="#fff" d="M0 0h200v200H0z"/><path d="M117.581 110.349c.163.651.977 1.302 1.954 1.302 1.302 0 1.791-.651 1.791-1.302 0-.326-.163-.651-.489-.977-.325-.163-.814-.488-1.628-.814-1.465-.651-2.116-1.139-2.116-2.442 0-1.302.977-2.116 2.442-2.116 1.139 0 1.953.488 2.279 1.465l-.977.489c-.325-.489-.814-.814-1.302-.814-.814 0-1.302.325-1.302.976 0 .652.488.977 1.79 1.466 1.628.651 2.442 1.302 2.442 2.604s-.977 2.279-2.93 2.279c-1.465 0-2.768-.651-3.093-1.953l1.139-.163zm5.535-1.791c0-1.302.326-2.279 1.14-3.093.814-.814 1.791-1.139 2.93-1.139 1.14 0 1.954.325 2.605 1.139.651.814.976 1.791.976 2.93v.489h-6.511c0 1.79 1.139 2.93 2.93 2.93 1.14 0 1.791-.326 2.442-1.14l.814.814c-.814.977-1.954 1.465-3.256 1.465-1.139 0-2.116-.325-2.93-1.139-.814-.977-1.14-1.954-1.14-3.256zm6.512-.814c0-.651-.163-1.139-.651-1.628-.489-.488-1.14-.651-1.791-.651-.814 0-1.302.163-1.953.651-.489.489-.814.977-.814 1.628h5.209zm2.767 6.186c.977.652 2.117 1.14 3.256 1.14.814 0 1.465-.163 1.954-.651.488-.489.814-1.303.814-2.442v-.651c-.489.814-1.466 1.465-2.931 1.465-1.139 0-2.116-.326-2.93-1.14-.814-.814-1.139-1.79-1.139-3.093 0-1.139.325-2.279 1.139-2.93.814-.814 1.791-1.139 2.93-1.139 1.465 0 2.442.651 2.931 1.465v-1.14h1.139v6.675c0 .976-.163 1.953-.325 2.441-.163.652-.489 1.14-.977 1.628-.651.489-1.628.814-2.768.814-1.465 0-2.767-.488-3.744-1.302l.651-1.14zm5.21-3.255c.651-.652.814-1.303.814-2.28 0-.813-.326-1.627-.814-2.279-.489-.651-1.303-.976-2.117-.976-.814 0-1.465.325-2.116.814-.488.651-.814 1.302-.814 2.279 0 .814.326 1.628.814 2.279.488.651 1.302.814 2.116.814.977.163 1.628 0 2.117-.651zm3.255-6.186H142v4.883c0 1.303.814 2.279 1.953 2.279 1.303 0 2.117-.976 2.28-2.279v-4.883h1.139v6.186c0 .651.163.976.651.976h.489v.977c-.163 0-.489.163-.814.163-.489 0-.814-.163-.977-.326a1.242 1.242 0 01-.326-.814c-.488.814-1.302 1.14-2.604 1.14-1.791 0-2.931-1.14-2.931-3.093v-5.209zm8.466 8.139v-8.14h1.139v1.303c.489-.977 1.303-1.465 2.442-1.465h.488v1.302h-.814c-1.302 0-2.116.977-2.116 2.279v4.721h-1.139zm4.232-4.07c0-1.139.488-2.279 1.302-3.093.814-.814 1.791-1.302 3.093-1.302 1.14 0 2.28.488 3.093 1.302.814.814 1.303 1.791 1.303 3.093 0 1.14-.489 2.279-1.303 3.093-.813.814-1.79 1.14-3.093 1.14-1.139 0-2.279-.489-3.093-1.303-.976-.651-1.302-1.79-1.302-2.93zm1.14 0c0 .977.325 1.628.814 2.279.651.651 1.302.977 2.279.977.976 0 1.628-.326 2.279-.814.651-.651.814-1.302.814-2.279 0-.977-.326-1.628-.814-2.279-.651-.651-1.303-.977-2.279-.977-.977 0-1.628.326-2.279.977-.489.488-.814 1.139-.814 2.116zm8.79 1.954c.163.651.977 1.302 1.954 1.302 1.302 0 1.791-.651 1.791-1.302 0-.326-.163-.651-.489-.977-.325-.163-.814-.488-1.628-.814-1.465-.651-2.116-1.14-2.116-2.442 0-1.302.977-2.116 2.442-2.116 1.139 0 1.953.488 2.279 1.465l-.977.488c-.325-.488-.814-.814-1.302-.814-.814 0-1.302.326-1.302.977s.488.977 1.79 1.465c1.628.651 2.442 1.303 2.442 2.605s-.977 2.279-2.93 2.279c-1.465 0-2.768-.651-3.093-1.954l1.139-.162zM42.86 83.815h-2.767V90c-.488-1.14-1.79-1.954-3.744-1.954-1.628 0-3.093.651-4.233 1.79-1.14 1.14-1.628 2.605-1.628 4.396 0 1.79.489 3.256 1.628 4.395 1.14 1.14 2.605 1.791 4.233 1.791 1.953 0 3.256-.65 4.07-1.79.162.65.488 1.14.976 1.465.489.325.977.325 1.628.325l-.163-16.604zm-3.744 13.023c-.65.651-1.628.977-2.604.977-.977 0-1.791-.326-2.442-.977-.651-.651-.977-1.628-.977-2.605 0-.977.326-1.953.977-2.605.651-.65 1.465-.976 2.442-.976.976 0 1.953.325 2.604.977.651.65.977 1.627.977 2.604 0 .977-.326 1.954-.977 2.605zm6.838-9.931c.976 0 1.627-.651 1.627-1.628 0-.977-.814-1.628-1.627-1.628-.977 0-1.628.651-1.628 1.628-.163.977.65 1.628 1.628 1.628zm1.465 1.628H44.65v8.954c0 1.953.977 2.93 2.768 2.93V88.535zm13.837-1.465c.977 0 1.628-.651 1.628-1.628 0-.977-.814-1.628-1.628-1.628-.977 0-1.628.651-1.628 1.628 0 .814.651 1.465 1.628 1.628zm1.139 1.465h-2.767v8.954c0 1.953.977 2.93 2.767 2.93h.163l-.163-11.884zm8.14-.325c-1.628 0-2.767.976-3.419 2.116v-1.628H64.35v11.884h2.767v-6.838c0-1.628 1.14-2.767 2.605-2.767 1.628 0 2.442.977 2.442 2.605v3.907c0 2.116.977 3.093 2.767 3.093v-7.814c0-2.768-1.79-4.558-4.395-4.558zm18.07.325h-2.768v1.628c-.488-1.14-1.79-1.953-3.744-1.953-1.628 0-3.093.65-4.233 1.79-1.14 1.14-1.627 2.605-1.627 4.395 0 1.791.488 3.256 1.627 4.396 1.14 1.14 2.605 1.791 4.233 1.791 1.953 0 3.256-.652 4.07-1.791.163.651.488 1.14.977 1.465.325.326.976.326 1.627.326l-.162-12.047zM85.023 97c-.65.651-1.628.977-2.604.977-.977 0-1.791-.326-2.442-.977-.651-.651-.977-1.628-.977-2.605 0-.976.326-1.953.977-2.604.65-.651 1.465-.977 2.442-.977.976 0 1.79.326 2.604.977.651.651.977 1.628.977 2.605 0 .976-.326 1.79-.977 2.604zM58.977 86.907h-1.302c-.977 0-1.628.814-1.954 1.465-.326.651-2.605 7.977-2.605 7.977s-.976-2.28-1.302-2.93c-.326-.651-1.14-1.14-2.116-1.14h-1.303l3.745 7.977h2.441l4.396-13.349zm96.046 1.465c-1.628 0-2.93.814-3.581 1.954v-1.791h-2.768v9.605c.163 1.465 1.14 2.279 2.768 2.279v-6.675c.163-1.79 1.302-2.767 3.256-2.767.488 0 .814 0 1.139.163v-2.768h-.814zm-23.116.163v-4.558h-2.767v4.558h-1.466v2.605h1.466v6.511c0 1.954.976 2.93 2.767 2.93h.163v-9.442h2.604v-2.604h-2.767zm-18.07 1.628c-.488-1.14-1.79-1.953-3.744-1.953-1.628 0-3.093.65-4.232 1.79-1.14 1.14-1.628 2.605-1.628 4.395 0 1.791.488 3.256 1.628 4.396 1.139 1.14 2.604 1.791 4.232 1.791 1.954 0 3.256-.652 4.07-1.791.163.651.488 1.14.977 1.465.488.326.976.326 1.628.326V88.535h-2.931v1.628zM113.023 97c-.651.651-1.628.977-2.604.977-.977 0-1.791-.326-2.442-.977-.651-.651-.977-1.628-.977-2.605 0-.976.326-1.953.977-2.604s1.465-.977 2.442-.977c.976 0 1.953.326 2.604.977.652.651.977 1.628.977 2.605.163.976-.325 1.953-.977 2.604zm52.744-8.302v1.79c-.488-1.139-1.79-1.953-3.744-1.953-1.628 0-3.093.651-4.232 1.79-1.14 1.14-1.628 2.605-1.628 4.396 0 1.79.488 3.256 1.628 4.395 1.139 1.14 2.604 1.791 4.232 1.791 1.954 0 3.256-.651 4.07-1.79.163.65.488 1.139.977 1.465.488.325.977.325 1.628.325V88.861l-2.931-.163zm-.813 8.465c-.652.651-1.628.977-2.605.977-.977 0-1.791-.326-2.442-.977-.651-.651-.977-1.628-.977-2.605 0-.977.326-1.953.977-2.604s1.465-.977 2.442-.977c.977 0 1.953.325 2.605.977.651.65.976 1.628.976 2.604.163.977-.325 1.954-.976 2.605zm-23.931-8.953c-1.79 0-3.256.65-4.558 1.79-1.139 1.14-1.791 2.768-1.791 4.395 0 1.791.652 3.256 1.791 4.396 1.302 1.14 2.768 1.791 4.558 1.791 1.791 0 3.256-.652 4.558-1.791 1.303-1.14 1.954-2.768 1.954-4.395 0-1.791-.651-3.256-1.791-4.396-1.302-1.14-2.767-1.79-4.721-1.79zm2.605 8.953c-.651.651-1.628.977-2.605.977-.976 0-1.953-.326-2.604-1.14-.652-.651-.977-1.628-.977-2.605 0-.976.325-1.953.977-2.604.651-.651 1.628-1.14 2.604-1.14.977 0 1.954.326 2.605 1.14.651.651.977 1.628.977 2.605.162 1.14-.163 1.953-.977 2.767zm-19.372-3.744c-.488-.163-1.14-.326-1.465-.489-.326-.162-.814-.325-.977-.488a.894.894 0 01-.488-.814c0-.651.488-.977 1.465-.977.977 0 1.79.326 2.279.977L126.698 90c-.814-1.14-2.117-1.79-3.744-1.79-1.14 0-2.117.325-2.931.976-.814.651-1.139 1.465-1.139 2.605 0 1.628.977 2.605 2.93 3.256.326.163 1.14.325 1.465.488.326.163.814.326 1.14.488.325.163.651.489.651.977 0 .651-.651 1.302-2.116 1.302-.814 0-1.466-.162-1.954-.488-1.139-.488-1.791-.325-2.442.163l-.488.488c.814 1.303 2.442 2.279 4.721 2.279 3.256 0 4.883-1.628 4.883-3.744-.325-1.79-1.302-2.767-3.418-3.581zM90.72 97v7.488h.49-.49V97z" fill="#000"/><path d="M101.465 89.837c-1.139-1.14-2.605-1.79-4.232-1.79-1.954 0-3.419.814-3.745 1.953v-1.79h-2.767v16.278h.488c1.465-.162 2.28-.976 2.442-2.604v-3.582c.489 1.14 1.79 1.954 3.744 1.954 1.628 0 3.093-.651 4.233-1.79 1.139-1.14 1.791-2.605 1.791-4.396-.326-1.628-.814-3.093-1.954-4.233zm-2.116 7c-.651.651-1.465.977-2.442.977-.977 0-1.79-.326-2.605-.977-.65-.651-.976-1.628-.976-2.604 0-.977.325-1.954.976-2.605s1.628-.977 2.605-.977c.977 0 1.79.326 2.442.977.651.651.977 1.628.977 2.605 0 .976-.326 1.953-.977 2.604z" fill="#000"/></svg>