<svg width="200" height="200" fill="none" xmlns="http://www.w3.org/2000/svg"><path fill="#fff" d="M0 0h200v200H0z"/><path d="M45.803 74.272c3.981.226 4.056 6.949-.639 6.61v8.902H55.23v5.634H45.164v11.493c1.09-.038 1.878-.038 2.93-.038-1.09 6.085-2.14 12.507-3.305 18.817-.526 2.404-.451 5.108-2.592 5.108-1.652 0-1.577-1.803-2.29-5.183-.827-4.545-.977-5.258-.94-5.296-1.202-6.685-1.127-7.061-2.404-13.408h2.892v-11.53H29.427v-5.635h10.028v-8.788c-4.47.15-4.694-6.272-.638-6.686.864-1.84 1.502-6.234 3.53-6.234 2.291 0 2.442 4.319 3.456 6.234zm-18.817 12.47c.037 1.24-.038 7.474-.038 11.192l-1.126-.75c-.827-.564-1.428-.902-2.329-1.54-1.314-.902-3.305-1.691-3.305-3.268-.038-1.39 1.014-1.803 4.47-4.132 1.389-.939 1.99-1.314 2.328-1.502zm30.61-.038c1.165.714 4.545 2.817 6.047 4.019 2.48 2.329-1.54 4.244-3.042 5.296-1.052.713-2.066 1.39-3.042 1.953V86.704h.037zm94.085 24.977c.338.3.713.563 1.127.751-.376.676-1.052 1.202-1.653 1.728-2.404 2.065-5.747 3.831-9.84 4.169-7.024.563-13.634-2.667-14.31-9.465-.451-4.432 1.727-7.887 4.169-9.765 2.742-2.141 6.573-3.53 11.117-3.794 3.193-.188 6.873.15 9.014 1.277.864.488 1.878 1.503 1.728 2.742-.225 1.84-3.042 2.253-4.845 1.577-2.629-.976-3.681-4.018-7.211-3.943-2.216.037-4.132 1.39-5.146 2.666-.977 1.202-1.84 3.343-2.028 5.221-.564 5.333 2.216 10.479 7.587 10.892 4.882.413 7.511-1.991 10.291-4.056zm26.892 0c.338.3.713.563 1.127.751-.376.676-1.052 1.202-1.653 1.728-2.441 2.103-5.784 3.831-9.84 4.169-8.376.676-15.212-3.944-14.31-11.906.338-3.043 2.103-5.672 4.094-7.287 2.741-2.178 6.76-3.605 11.23-3.868 3.23-.188 6.986.187 9.014 1.277.788.45 1.99 1.427 1.652 2.967-.338 1.54-2.967 1.99-4.695 1.352-3.004-1.09-4.582-4.883-8.939-3.643-5.859 1.69-7.549 11.68-2.741 16.525 1.389.902 2.779 1.803 4.77 1.954 4.695.45 7.812-2.066 10.291-4.019zm-90.967-4.92c-1.69.901-5.71 2.253-7.061 3.568-1.24 1.201-1.39 3.906 0 5.22 2.629 1.841 5.408-.563 7.361-1.502-.037-2.441.113-5.108-.075-7.437-.113 0-.15.113-.225.151zm11.756 7.699c.187.301.3.601.525.826-1.878 1.54-6.16 4.357-9.84 3.343-1.202-.338-2.028-1.465-2.103-3.117-2.254 1.277-4.282 3.418-8.489 3.267-3.267-.112-6.385-1.577-6.76-4.77-.3-2.516 1.39-4.244 2.967-4.995 3.38-1.69 9.315-1.915 12.282-4.019.037-2.817.15-5.558-1.953-6.76-1.84-1.052-6.46-.676-6.498 1.727 0 .752.413 1.052.676 1.653-1.615.451-2.967.977-4.62 1.502-.413.151-1.314.526-1.577.451-.676-.15-.94-1.465-.826-2.028.15-.826.901-1.615 1.427-2.103 2.178-2.029 6.084-3.456 9.915-3.794 4.02-.338 7.813.902 9.24 3.117 1.202 1.878.75 6.761.75 9.916 0 1.577-.487 6.498.827 7.061 1.465.639 3.118-.901 4.056-1.277zm10.516-17.09c-2.817.715-4.056 3.494-4.545 6.649h12.582c-.225-4.395-3.305-7.888-8.037-6.648zm15.925 6.724v1.427h-20.545c.15 3.418 1.352 6.235 3.493 7.963 1.39 1.126 3.456 1.953 5.822 2.103 4.169.338 7.173-1.765 9.615-3.718.488.225.789.6 1.202.826-2.817 4.244-9.165 6.573-16.226 5.972-3.493-.301-6.91-2.066-8.563-4.47-1.578-2.291-2.291-5.897-1.653-9.014.451-2.178 1.803-4.244 3.193-5.596 2.554-2.479 6.197-3.643 10.666-3.869 4.77-.225 8.677 1.503 10.442 4.545.826 1.39.939 3.155 2.554 3.831zm3.042 17.465c.038.263-.037.939-.075 1.126-.376 2.367-.338 1.954-.676 4.057 0 .075-.188 1.089-.451 2.216.301.15.639-.451.864-.564.075-.037.075.151.15.188-.263.263-.788.789-1.239.977-.15.037-.376.037-.451-.188-.338-.301.15-2.517.413-3.944.226-1.164.414-2.178.564-3.192-.188-.038-.601.3-.601.3-.075-.075-.15-.075-.226-.188.451-.338 1.353-.751 1.728-.788zm16.376.112h.976a19.269 19.269 0 01-1.352 2.291h-.451c.188-.826.601-1.427.827-2.291zm-36.695 1.39h.225c-.037.563-.338 1.014-.413 1.502.188 0 .263-.037.789 0v.526h-.939a75.657 75.657 0 00-.564 3.268c-.037.225-.075.413 0 .526.451.037.827-.676.939-.714.076 0 .113.075.226.113-.451.563-1.315 1.427-1.916 1.164-.037-.038-.188-.3-.15-.488.075-.827.526-2.667.601-3.869h-.451c0-.075 0-.3.038-.3.188 0 .3-.075.488-.263.113-.113.376-.338.563-.526.226-.263.376-.563.564-.939zm-9.916 2.066c-.225-.188-.188-.188-.526-.075-.488.413-.901 1.352-.939 2.403-.037.489.113 1.127.376 1.503.3.112.563.037.751-.15.564-.564.826-1.954.639-2.968a1.25 1.25 0 00-.3-.713zm.45-.601c.226.037.49.3.64.601.337.901.187 2.366-.414 3.192-.6.639-1.427 1.352-2.178 1.165-.977-.263-.901-1.991-.751-2.479.15-.526.188-.639.413-.977.413-.601.864-1.089 1.314-1.314.188-.075.526-.263.977-.188zm3.682.037c.225.151 0 1.202-.15 2.329.037-.038.037 0 .075-.038.413-.488.601-.826 1.126-1.577.714-.714 1.127-1.052 1.465-.563.075.112 0 .788-.037 1.201a29.154 29.154 0 01-.639 2.855c0 .075.113.038.188.038.188-.076.338-.263.751-.789 0 .037.188.15.15.15-.826 1.127-1.502 1.577-1.878 1.239-.375-.375.864-3.906.526-4.131-.263-.225-1.652 1.765-1.84 2.216-.075.15-.301 1.202-.338 1.953h-.864c.15-1.39.676-3.418.639-3.944-.113-.112-.338.338-.526.564 0 0-.263-.075-.301-.075.226-.338.564-.789.902-1.165.15-.15.3-.3.45-.413.075.075.151.038.301.15zm8.488-.075c.188.075.263.075.263.338.037.489-.338 1.615-.451 2.442-.075.601 0 .45 0 .601.413-.939.864-3.306 1.765-3.418.226 0 .263.037.301.112.188.263-.038.714-.15.902-.226 0-.489-.15-.676 0-.451.338-.977 2.629-1.503 3.943-.3 0-.526.038-.788 0-.038-.563.563-3.305.601-3.605.037-.301.037-.488-.038-.451-.15-.225-.338.301-.526.376-.037.037-.15-.075-.188-.151.188-.112.676-1.014 1.39-1.089zm12.469 2.554c.489-.225.864-.375 1.202-.826.376-.526.301-1.315-.075-1.277-.751.3-1.089 1.202-1.127 2.103zm2.066-2.253c.714 1.389-1.051 2.141-2.216 2.479-.15.713-.112 1.54.376 1.802.826.113 1.014-.225 1.54-.488 0 .038.15.113.112.15-.901.864-2.328 1.315-2.854.263-.714-1.389.676-4.77 2.742-4.394.112.038.263.113.3.188zm29.859.826c-.3.15-.525.075-.638-.113-.113-.187-.263-.413-.601-.375-.225.225-.376.638-.451.864-.413 1.464-.638 2.929-.037 3.079.601.188.939-.488 1.239-.676.075-.037.15.038.263.038-.864 1.239-2.366 1.577-2.742.451-.488-1.503 1.165-4.845 2.667-4.245.263.113.526.639.3.977zm-41.126 3.08c.45 0 1.089-.751 1.465-1.24.037-.037.262-1.577.338-2.103-1.277 0-1.841 1.127-1.916 2.329 0 .375.038.751.113 1.014zm2.817-4.094a67.346 67.346 0 01-.676 4.094c.037.037.075.075.112.075.188 0 .338-.376.526-.376 0 .038.113.075.075.113-.3.413-.789 1.014-1.465 1.052-.3-.376-.037-.939 0-1.465-.3.263-1.389 1.427-1.727 1.427-.413 0-.714-.488-.601-1.427.225-1.69 1.389-3.643 3.756-3.493zm-21.785-2.254c-.15.714-.15 1.09-.338 1.916 0 0-.375.037-.375 0-.038-.451 0-.751-.113-1.052-.188-.526-.563-.713-1.126-.901-2.93-.451-4.77 3.117-3.719 5.596.864 2.103 3.794 1.427 4.657-.563 0 0 .338-.038.3.037-.074.676-.412 1.352-.487 2.028-.79-.15-2.141.338-3.456.151-2.629-.338-3.117-3.756-1.69-5.747 1.39-1.878 3.794-2.253 6.347-1.465zm53.447 2.291c.225.151 0 1.202-.151 2.329.038-.037.038 0 .075-.037.414-.489.601-.827 1.127-1.578.714-.714 1.127-1.052 1.465-.563.075.112 0 .788-.038 1.202-.15.939-.413 2.028-.638 2.854 0 .075.113.038.188.038.188-.076.338-.263.751-.789 0 .037.188.15.15.15-.826 1.127-1.502 1.578-1.878 1.24-.375-.376.864-3.907.526-4.132-.263-.225-1.653 1.765-1.84 2.216-.075.15-.301 1.202-.338 1.953h-.864c.15-1.39.676-3.418.638-3.944-.112-.112-.338.338-.526.564 0 0-.262-.075-.3-.075.225-.338.563-.789.901-1.165.151-.15.301-.3.451-.413.113.075.15.075.301.15zm13.295-.037c.188.075.263.075.263.338.038.488-.338 1.615-.45 2.441-.076.601 0 .451 0 .601.413-.939.863-3.305 1.765-3.418.225 0 .263.038.3.113.188.263 0 .714-.15.901-.225 0-.488-.15-.676 0-.451.339-.977 2.63-1.502 3.944-.301 0-.526.038-.789 0-.038-.563.563-3.305.601-3.605.037-.301.037-.489-.038-.451-.15-.226-.338.3-.526.375-.037.038-.15-.075-.187-.112.187-.15.676-1.052 1.389-1.127zm-20.845-2.216c-.15.714-.15 1.089-.338 1.915 0 0-.375.038-.375 0-.038-.45 0-.751-.113-1.051-.188-.526-.563-.714-1.127-.902-2.929-.45-4.77 3.118-3.718 5.597.864 2.103 3.793 1.427 4.657-.564 0 0 .338-.037.301.038-.076.676-.414 1.352-.489 2.028-.788-.15-2.141.338-3.455.15-2.629-.338-3.117-3.756-1.69-5.746 1.389-1.878 3.793-2.254 6.347-1.465zm1.878 6.385c.451 0 1.089-.751 1.465-1.239.038-.038.263-1.578.338-2.104-1.277 0-1.84 1.127-1.915 2.329 0 .375.037.751.112 1.014zm2.817-4.094a66.576 66.576 0 01-.676 4.094c.038.038.075.075.113.075.188 0 .338-.376.526-.376 0 .038.112.076.075.113-.301.413-.789 1.014-1.465 1.052-.301-.376-.038-.939 0-1.465-.301.263-1.39 1.427-1.728 1.427-.413 0-.713-.488-.601-1.427.226-1.69 1.39-3.643 3.756-3.493zm11.756 2.329c.488-.226.864-.376 1.202-.827.375-.525.3-1.314-.075-1.277-.752.338-1.09 1.24-1.127 2.104zm2.066-2.216c.713 1.389-1.052 2.141-2.216 2.479-.151.713-.113 1.54.375 1.802.827.113 1.014-.225 1.54-.488 0 .038.15.113.075.15-.901.864-2.328 1.315-2.854.263-.714-1.389.676-4.77 2.742-4.394.15.038.3.113.338.188z" fill="#000"/></svg>