<svg width="200" height="200" fill="none" xmlns="http://www.w3.org/2000/svg"><path fill="#fff" d="M0 0h200v200H0z"/><g clip-path="url(#clip0_604:56)" fill="#000"><path d="M147.463 112.19l-1.134-.367.714-1.673h1.654l-1.234 2.04zm-84.283-9.634c-1.834-1.773-4.261-2.791-6.662-2.795h-.02c-3.749 0-5.735 1.738-7.33 3.128-1.332 1.165-2.21 1.936-4.138 1.936h-.01c-.47 0-.937-.068-1.388-.201a4.674 4.674 0 01-3.058-3.346l-.045-.194c-.014-.066-.024-.151-.035-.228l-.029-.224a4.644 4.644 0 01.498-2.565c.045-.087.091-.174.142-.252a4.645 4.645 0 015.369-2.075 2.426 2.426 0 002.808-1.665 2.435 2.435 0 00-1.383-2.962 9.067 9.067 0 00-2.745-.442 11.385 11.385 0 00-2.6.292c-2.14.553-4.025 2.006-5.293 3.877l-.05.071a9.974 9.974 0 00-.461.76l-.02.043c-.14.256-.264.522-.379.784 0 .01-.008.02-.014.033a9.008 9.008 0 00-.75 3.51c0 .37.02.739.059 1.107.008.099.027.197.041.296.03.229.06.457.103.679l.01.038c.706 3.495 3.153 6.175 6.463 7.141a9.44 9.44 0 002.836.434c3.025 0 5.766-1.861 7.265-3.175 1.332-1.166 2.212-1.937 4.145-1.937h.01c1.16 0 2.365.521 3.307 1.433a4.737 4.737 0 011.508 3.41c0 4.367-6.51 10.96-16.296 10.96h-.031c-10.972-.018-20.009-8.998-20.146-20.023a20.31 20.31 0 015.834-14.508 20.212 20.212 0 0114.397-6.034h.031a20.085 20.085 0 0114.292 5.956 2.423 2.423 0 003.337-.087 2.437 2.437 0 00.093-3.346A24.892 24.892 0 0045.116 75h-.038a25.048 25.048 0 00-17.845 7.477 25.172 25.172 0 00-7.231 17.983c.173 13.666 11.377 24.8 24.982 24.819h.04c12.092 0 21.138-8.342 21.15-15.814a9.552 9.552 0 00-2.992-6.913m13.228 14.182a4.268 4.268 0 01.252-1.463 3.6 3.6 0 01.728-1.216 3.547 3.547 0 011.153-.831 3.593 3.593 0 011.522-.309 3.487 3.487 0 011.938.521c.52.332.936.806 1.198 1.366l-1.734.563a1.624 1.624 0 00-2.13-.683 1.756 1.756 0 00-.576.45 2.107 2.107 0 00-.385.695c-.095.29-.142.595-.138.9-.004.306.045.611.145.9a2.3 2.3 0 00.39.704c.157.192.353.348.576.457a1.63 1.63 0 001.582-.09c.247-.144.443-.36.562-.619l1.734.561a3.042 3.042 0 01-1.179 1.38 3.533 3.533 0 01-1.973.535 3.624 3.624 0 01-1.522-.309 3.532 3.532 0 01-1.15-.837 3.76 3.76 0 01-.736-1.226 4.157 4.157 0 01-.257-1.449zm11.106 3.828a3.624 3.624 0 01-1.522-.309 3.427 3.427 0 01-1.144-.838 3.706 3.706 0 01-.721-1.216 4.176 4.176 0 01-.252-1.449 4.223 4.223 0 01.252-1.463 3.71 3.71 0 01.72-1.217 3.42 3.42 0 011.145-.838 3.623 3.623 0 011.522-.309 3.568 3.568 0 011.517.309c.433.197.82.483 1.137.838.316.355.561.768.721 1.217.17.469.255.964.252 1.463.002.494-.083.985-.252 1.449a3.78 3.78 0 01-.714 1.216 3.36 3.36 0 01-1.139.838c-.48.212-.998.317-1.522.309zm-1.813-3.823c-.004.304.043.607.138.895.086.253.217.488.385.695.157.193.353.349.576.457.452.218.978.218 1.43 0 .223-.108.419-.264.576-.457.17-.208.3-.447.383-.703.096-.291.142-.595.138-.901.004-.301-.043-.6-.138-.886a2.22 2.22 0 00-.383-.695 1.727 1.727 0 00-.576-.457 1.628 1.628 0 00-.716-.162c-.249 0-.494.06-.714.174a1.833 1.833 0 00-.576.464c-.169.21-.3.448-.385.704a2.76 2.76 0 00-.138.881v-.009zm13.077 3.683h-1.773v-4.138c0-.591-.097-1.022-.291-1.295a.94.94 0 00-.808-.408c-.186.002-.37.041-.543.113a1.966 1.966 0 00-.52.316 2.504 2.504 0 00-.443.487 1.912 1.912 0 00-.292.618v4.307h-1.775v-7.374h1.6v1.364a2.699 2.699 0 011.113-1.096 3.379 3.379 0 011.642-.395 1.97 1.97 0 011.057.254c.266.161.486.388.637.66.155.29.26.605.31.93.058.349.087.702.087 1.055v4.602zm2.119 0v-5.676h-1.04v-1.701h1.04v-2.389h1.825v2.392h1.602v1.698h-1.602v5.672l-1.825.004zm8.576-5.742a3.34 3.34 0 00-1.443.33 1.888 1.888 0 00-.913.951v4.461h-1.774v-7.374h1.632v1.577c.118-.244.265-.474.437-.683.161-.193.343-.368.542-.522a2.5 2.5 0 01.59-.347c.182-.077.377-.117.575-.12h.219a.71.71 0 01.138.014l-.003 1.713zm3.852 5.882a2.938 2.938 0 01-1.316-.295 3.17 3.17 0 01-1.04-.817 3.848 3.848 0 01-.681-1.216 4.502 4.502 0 01-.245-1.5 4.65 4.65 0 01.238-1.498c.145-.441.367-.852.655-1.216.269-.335.605-.611.986-.808a2.627 2.627 0 011.231-.296c.49-.007.971.127 1.387.386.405.257.734.617.954 1.043v-1.217h1.773v7.276h-1.77v-1.197c-.207.397-.51.735-.881.985a2.298 2.298 0 01-1.291.37zm2.172-4.587a2.423 2.423 0 00-.723-1.043 1.622 1.622 0 00-1.064-.401 1.464 1.464 0 00-.735.189c-.227.128-.425.3-.583.508a2.37 2.37 0 00-.378.717c-.088.27-.133.552-.131.836-.002.29.045.578.138.852.087.253.219.489.39.695a1.804 1.804 0 001.365.637c.37.009.733-.111 1.026-.338a2.44 2.44 0 00.693-.901l.002-1.751zm9.767 4.587a3.64 3.64 0 01-1.508-.302 3.427 3.427 0 01-1.151-.824 3.648 3.648 0 01-.735-1.216 4.13 4.13 0 01-.259-1.451 4.334 4.334 0 01.252-1.484c.161-.449.408-.863.728-1.217a3.467 3.467 0 011.158-.837 3.655 3.655 0 011.529-.31 3.561 3.561 0 011.515.31c.432.196.819.479 1.139.83.317.354.56.767.714 1.217.163.461.246.946.245 1.435v.348a1.658 1.658 0 01-.033.281h-5.367c.02.268.088.531.199.775.1.216.239.412.409.577a1.79 1.79 0 001.233.492c.351 0 .696-.095.998-.274.292-.159.52-.415.642-.725l1.522.45a3.215 3.215 0 01-1.224 1.39 3.61 3.61 0 01-2.006.535zm1.801-4.447a2.01 2.01 0 00-.575-1.329 1.768 1.768 0 00-1.907-.367 1.77 1.77 0 00-.55.374 1.933 1.933 0 00-.39.577 2.084 2.084 0 00-.173.745h3.595zm2.939-5.965h1.773v10.272h-1.773V110.15zm6.168 6.584a4.216 4.216 0 01.251-1.463 3.52 3.52 0 013.401-2.356 3.492 3.492 0 011.94.521c.521.332.936.806 1.198 1.366l-1.734.563a1.623 1.623 0 00-2.13-.683 1.779 1.779 0 00-.576.45c-.17.205-.3.441-.383.695a2.75 2.75 0 00-.14.9c-.004.306.045.611.145.9.088.257.221.495.392.704.157.192.353.348.576.457.215.108.453.163.693.164.312.001.618-.087.881-.254.247-.143.443-.359.563-.619l1.734.561a3.03 3.03 0 01-1.179 1.38 3.535 3.535 0 01-1.971.536 3.639 3.639 0 01-1.522-.31 3.51 3.51 0 01-1.153-.837 3.768 3.768 0 01-.733-1.226 4.087 4.087 0 01-.253-1.449zm10.76 3.828a2.938 2.938 0 01-1.316-.295 3.17 3.17 0 01-1.04-.817 3.848 3.848 0 01-.681-1.216 4.502 4.502 0 01-.245-1.5 4.65 4.65 0 01.238-1.498c.145-.441.367-.852.655-1.216.269-.335.605-.61.986-.808a2.627 2.627 0 011.231-.296c.49-.007.971.127 1.387.386.405.257.734.617.954 1.043v-1.217h1.773v7.276h-1.773v-1.197c-.208.397-.51.735-.881.985a2.29 2.29 0 01-1.288.37zm2.169-4.587a2.431 2.431 0 00-.723-1.043 1.623 1.623 0 00-1.065-.401 1.47 1.47 0 00-.735.189c-.226.128-.425.3-.582.508a2.37 2.37 0 00-.378.717 2.696 2.696 0 00.007 1.688c.086.254.219.49.392.695.164.196.369.355.601.464.237.115.498.174.761.173.371.009.733-.111 1.026-.338.299-.242.537-.55.694-.901l.002-1.751zm9.824 4.447h-1.774v-4.138c0-.591-.097-1.022-.291-1.295a.94.94 0 00-.808-.408c-.186.002-.37.041-.542.113a1.989 1.989 0 00-.52.316 2.494 2.494 0 00-.442.487 1.918 1.918 0 00-.292.618v4.307h-1.777v-7.374h1.601v1.364a2.7 2.7 0 011.112-1.096 3.381 3.381 0 011.642-.395c.369-.016.736.072 1.058.254.265.161.485.388.636.66.155.29.26.605.31.93.058.349.087.702.087 1.055v4.602zm1.111-3.688a4.287 4.287 0 01.251-1.463c.16-.45.408-.863.728-1.216a3.553 3.553 0 011.153-.831 3.595 3.595 0 011.522-.309 3.486 3.486 0 011.938.521c.521.332.937.806 1.198 1.366l-1.733.563a1.625 1.625 0 00-2.124-.678 1.764 1.764 0 00-.575.45 2.108 2.108 0 00-.385.695 2.811 2.811 0 00-.139.9c-.004.307.046.611.146.901.087.255.219.494.39.703.153.192.345.348.563.459.218.109.459.165.702.163.312.002.618-.086.881-.253.246-.144.442-.36.562-.619l1.733.561a3.042 3.042 0 01-1.179 1.38 3.532 3.532 0 01-1.972.535 3.63 3.63 0 01-1.523-.309 3.541 3.541 0 01-1.151-.837 3.791 3.791 0 01-.735-1.226 4.15 4.15 0 01-.251-1.456zm11.119 3.828a3.64 3.64 0 01-1.508-.302 3.469 3.469 0 01-1.153-.824 3.68 3.68 0 01-.733-1.216 4.063 4.063 0 01-.258-1.451 4.31 4.31 0 01.251-1.484c.16-.45.407-.863.728-1.217a3.467 3.467 0 011.158-.837 3.658 3.658 0 011.529-.31 3.488 3.488 0 012.654 1.14c.317.354.559.768.714 1.217.163.461.246.946.245 1.435v.348a1.477 1.477 0 01-.033.281h-5.366c.02.268.087.531.198.775.101.216.24.412.411.577.164.158.357.282.569.365.21.085.435.128.662.127.352 0 .697-.095 1-.275.292-.158.519-.415.641-.724l1.523.45a3.233 3.233 0 01-1.224 1.39 3.617 3.617 0 01-2.008.535zm1.801-4.447a2.013 2.013 0 00-.577-1.329 1.698 1.698 0 00-1.238-.5 1.68 1.68 0 00-1.217.507 1.92 1.92 0 00-.39.577 2.105 2.105 0 00-.173.745h3.595zM180 114.68c-.5 0-.993.113-1.444.33a1.89 1.89 0 00-.914.951v4.461h-1.773v-7.374h1.628v1.577c.228-.477.564-.893.981-1.217.179-.142.377-.259.588-.347.182-.077.377-.118.575-.12h.219c.047 0 .094.004.14.014v1.725zm-99.935-9.253a3.664 3.664 0 01-1.51-.303 3.455 3.455 0 01-1.151-.823 3.67 3.67 0 01-.735-1.217 4.106 4.106 0 01-.258-1.449 4.363 4.363 0 01.25-1.484c.162-.452.409-.868.729-1.225a3.506 3.506 0 011.158-.838 3.68 3.68 0 011.529-.31 3.596 3.596 0 011.517.31c.431.197.818.48 1.137.83.317.354.56.768.714 1.217.165.461.248.946.247 1.436v.347a1.62 1.62 0 01-.033.282H78.29c.02.267.087.529.198.773a1.774 1.774 0 001.635 1.076c.351 0 .696-.095.998-.275a1.43 1.43 0 00.644-.725l1.522.45a3.208 3.208 0 01-1.226 1.391c-.6.37-1.293.556-1.997.537zm1.8-4.447a2.017 2.017 0 00-.576-1.33 1.707 1.707 0 00-1.238-.498 1.711 1.711 0 00-1.217.506 1.957 1.957 0 00-.392.576c-.101.236-.16.489-.173.746h3.595zm5.533 4.447a5.097 5.097 0 01-1.708-.296 4.083 4.083 0 01-1.43-.844l.662-1.182c.38.294.796.538 1.238.725.38.16.787.244 1.198.246a1.44 1.44 0 00.834-.212.695.695 0 00.303-.604.604.604 0 00-.357-.577 7.424 7.424 0 00-1.165-.423c-.449-.13-.834-.257-1.15-.378a2.96 2.96 0 01-.769-.416 1.4 1.4 0 01-.423-.535 1.8 1.8 0 01-.132-.725 2.416 2.416 0 01.205-1.013 2.17 2.17 0 01.576-.766c.255-.217.549-.382.866-.487a3.363 3.363 0 011.079-.174c.497-.003.992.078 1.463.24.466.167.893.43 1.251.774l-.715 1.14a4.035 4.035 0 00-1.025-.62 2.65 2.65 0 00-.985-.194c-.265-.01-.527.06-.754.198a.696.696 0 00-.305.633.636.636 0 00.073.323.642.642 0 00.232.226c.13.075.266.137.408.184.173.061.386.125.641.191.477.131.886.263 1.226.393.298.109.579.261.833.45.203.155.366.355.477.584.107.252.158.523.151.796.03.657-.25 1.29-.754 1.71-.498.422-1.18.633-2.044.633zm8.113 0a2.6 2.6 0 01-1.428-.388 2.657 2.657 0 01-.954-1.043v4.293h-1.773V97.912h1.548v1.267c.242-.417.583-.767.993-1.02.424-.253.91-.383 1.403-.373.45-.005.894.1 1.296.302.394.2.744.477 1.027.817.296.36.524.773.674 1.216.166.473.249.971.246 1.472a4.946 4.946 0 01-.225 1.505c-.138.439-.35.851-.63 1.216a2.96 2.96 0 01-.958.817 2.574 2.574 0 01-1.219.296zm-.594-1.604a1.52 1.52 0 00.733-.174c.225-.122.422-.29.577-.494.163-.216.288-.459.37-.717a2.706 2.706 0 00-.013-1.712 2.17 2.17 0 00-.404-.695 1.88 1.88 0 00-.608-.464 1.732 1.732 0 00-.763-.174 1.574 1.574 0 00-.52.092c-.176.06-.342.149-.49.26a2.255 2.255 0 00-.405.394 1.665 1.665 0 00-.27.493v1.738c.148.405.399.764.728 1.043a1.61 1.61 0 001.064.41zm7.69 1.603a2.95 2.95 0 01-1.318-.295 3.136 3.136 0 01-1.04-.817c-.3-.36-.531-.772-.683-1.216a4.495 4.495 0 01-.245-1.498 4.586 4.586 0 01.24-1.5c.143-.441.365-.853.653-1.216.27-.335.606-.611.987-.81.38-.197.802-.298 1.23-.295a2.54 2.54 0 011.387.387c.405.256.734.616.954 1.043v-1.217h1.773v7.275h-1.768v-1.196c-.207.397-.51.735-.881.985a2.292 2.292 0 01-1.289.37zm2.17-4.582a2.423 2.423 0 00-.721-1.043 1.63 1.63 0 00-1.066-.401 1.471 1.471 0 00-.735.191c-.226.129-.424.3-.583.506a2.412 2.412 0 00-.376.717 2.682 2.682 0 00.007 1.69c.085.254.217.49.39.695.166.195.371.353.602.464.237.115.497.174.761.173.37.009.732-.11 1.026-.337.298-.242.536-.551.693-.902l.002-1.753zm9.828 4.442h-1.781v-4.138c0-.591-.097-1.022-.291-1.293a.934.934 0 00-.808-.408c-.186.002-.371.04-.542.113a1.976 1.976 0 00-.52.316 2.465 2.465 0 00-.444.485c-.132.188-.23.397-.291.619v4.306h-1.776v-7.374h1.599v1.368a2.69 2.69 0 011.111-1.098 3.397 3.397 0 011.642-.395c.369-.015.736.073 1.059.254.266.16.485.39.634.662.157.289.263.603.312.928.057.349.086.702.085 1.055l.011 4.6zm-2.237-8.47a1.299 1.299 0 01-.52-.1 3.305 3.305 0 01-.433-.216 6.714 6.714 0 00-.383-.218.866.866 0 00-.404-.099.56.56 0 00-.347.1.695.695 0 00-.191.224.685.685 0 00-.079.233 2.01 2.01 0 00-.014.12h-.98c.011-.146.037-.29.08-.43a2.43 2.43 0 01.258-.605c.124-.207.286-.388.477-.535.212-.159.471-.241.735-.233a1.2 1.2 0 01.52.106c.141.069.278.144.411.226.128.08.255.155.383.224.132.073.28.109.43.106a.638.638 0 00.59-.323.768.768 0 00.093-.24c.009-.046.015-.093.019-.14h.98c-.013.134-.04.266-.08.394a2.267 2.267 0 01-.773 1.16 1.21 1.21 0 01-.779.246h.007zm6.981 8.611a3.608 3.608 0 01-1.522-.31 3.416 3.416 0 01-1.144-.837 3.717 3.717 0 01-.721-1.217 4.344 4.344 0 010-2.912c.16-.448.405-.861.721-1.217a3.433 3.433 0 011.144-.837 3.634 3.634 0 011.522-.31 3.591 3.591 0 011.517.31c.433.197.82.482 1.137.837.316.356.561.769.721 1.217a4.308 4.308 0 010 2.912c-.159.447-.402.86-.714 1.217a3.328 3.328 0 01-1.139.837 3.608 3.608 0 01-1.522.31zm-1.813-3.813c-.004.303.043.605.14.893.085.253.215.489.383.695.158.192.354.348.576.457a1.659 1.659 0 002.006-.457c.169-.209.299-.448.383-.704.096-.29.143-.594.139-.9.003-.301-.044-.6-.139-.886a2.184 2.184 0 00-.383-.704 1.733 1.733 0 00-.576-.459 1.615 1.615 0 00-1.43.013c-.222.112-.418.27-.576.464-.17.208-.3.447-.383.703a2.714 2.714 0 00-.14.885zm6.659-6.6h1.773v10.272h-1.773V95.014zm6.287 10.412a2.946 2.946 0 01-1.317-.295 3.136 3.136 0 01-1.04-.817 3.858 3.858 0 01-.681-1.216 4.49 4.49 0 01-.245-1.498 4.634 4.634 0 01.238-1.5c.145-.44.366-.853.655-1.216.27-.335.605-.611.986-.81a2.645 2.645 0 011.231-.295 2.54 2.54 0 011.387.387c.405.256.734.616.953 1.043v-1.217h1.774v7.275h-1.77v-1.196c-.207.397-.51.735-.881.985a2.293 2.293 0 01-1.29.37zm2.171-4.582a2.435 2.435 0 00-.721-1.043 1.63 1.63 0 00-1.066-.401 1.471 1.471 0 00-.735.191c-.227.128-.425.3-.583.506a2.343 2.343 0 00-.376.717 2.682 2.682 0 00.007 1.69c.085.254.217.49.39.695.165.195.371.353.601.464.238.115.498.174.761.173.371.009.733-.11 1.027-.337.298-.242.536-.551.693-.902l.002-1.753zM79.708 90.272a2.956 2.956 0 01-1.318-.296 3.169 3.169 0 01-1.04-.817 3.858 3.858 0 01-.681-1.216 4.487 4.487 0 01-.245-1.498 4.617 4.617 0 01.238-1.498c.145-.44.367-.852.655-1.216a3.1 3.1 0 01.987-.808 2.62 2.62 0 011.23-.296c.49-.008.972.126 1.387.386.405.257.734.617.954 1.043v-1.217h1.773v7.276h-1.77v-1.197a2.69 2.69 0 01-.88.985 2.297 2.297 0 01-1.29.369zm2.17-4.588a2.422 2.422 0 00-.72-1.043 1.63 1.63 0 00-1.067-.401 1.473 1.473 0 00-.735.19c-.227.127-.425.3-.582.507a2.337 2.337 0 00-.377.718 2.64 2.64 0 00-.133.835c-.002.29.045.578.139.852.086.254.218.49.391.695a1.768 1.768 0 001.363.643c.372.006.734-.117 1.026-.348a2.44 2.44 0 00.693-.9l.002-1.748zm5.997 4.588c-.582 0-1.16-.1-1.708-.296a4.13 4.13 0 01-1.43-.844l.662-1.182c.38.293.796.537 1.238.724.38.16.787.243 1.198.245a1.44 1.44 0 00.834-.21.696.696 0 00.303-.605.605.605 0 00-.357-.576 7.421 7.421 0 00-1.165-.423 15.462 15.462 0 01-1.151-.38 2.898 2.898 0 01-.768-.416 1.399 1.399 0 01-.423-.533 1.802 1.802 0 01-.133-.725 2.408 2.408 0 01.206-1.013 2.19 2.19 0 01.575-.768c.256-.215.55-.38.867-.485a3.319 3.319 0 011.078-.174c.498-.003.993.077 1.464.239a3.54 3.54 0 011.251.775l-.716 1.14a4.127 4.127 0 00-1.024-.62 2.68 2.68 0 00-.987-.197 1.364 1.364 0 00-.755.196.696.696 0 00-.304.634.647.647 0 00.073.324.65.65 0 00.23.224c.133.078.273.142.418.191.174.06.387.123.642.19.476.132.886.262 1.225.394.298.109.58.26.834.45a1.6 1.6 0 01.477.584c.106.25.158.521.15.794.03.657-.249 1.29-.753 1.71-.503.423-1.187.634-2.051.633zm7.159 0a3.634 3.634 0 01-1.522-.31 3.432 3.432 0 01-1.144-.837 3.709 3.709 0 01-.721-1.217 4.18 4.18 0 01-.251-1.45 4.225 4.225 0 01.251-1.462c.16-.448.405-.861.721-1.217a3.41 3.41 0 011.144-.837 3.61 3.61 0 011.522-.31 3.57 3.57 0 011.517.31c.433.197.82.482 1.137.837.317.356.561.769.722 1.217.17.469.254.964.251 1.463a4.18 4.18 0 01-.251 1.45c-.16.446-.403.859-.715 1.216a3.362 3.362 0 01-1.139.837 3.639 3.639 0 01-1.522.31zm-1.813-3.815c-.004.304.043.606.139.893.085.253.216.489.385.696a1.647 1.647 0 002.583.004c.17-.21.3-.448.383-.705.096-.29.143-.594.138-.9.004-.301-.043-.6-.138-.886a2.196 2.196 0 00-.383-.704 1.734 1.734 0 00-.576-.457 1.614 1.614 0 00-1.43.012 1.824 1.824 0 00-.576.464c-.169.21-.3.448-.384.704-.095.283-.142.58-.141.88zm6.194-.014a4.228 4.228 0 01.253-1.463 3.528 3.528 0 013.401-2.344 3.496 3.496 0 011.94.521c.52.333.935.806 1.196 1.366l-1.733.563a1.625 1.625 0 00-2.131-.683 1.755 1.755 0 00-.575.45 2.136 2.136 0 00-.385.695c-.095.29-.142.595-.139.9-.004.307.046.611.146.9.087.256.219.495.39.704.157.193.354.349.577.457.216.108.453.164.694.164.311.001.617-.087.88-.254a1.41 1.41 0 00.564-.619l1.733.562a3.044 3.044 0 01-1.179 1.38 3.531 3.531 0 01-1.971.535 3.634 3.634 0 01-1.522-.31 3.53 3.53 0 01-1.153-.837 3.767 3.767 0 01-.733-1.225 4.122 4.122 0 01-.253-1.462zm7.908-4.714v-1.87h1.769v1.87h-1.769zm0 8.402v-7.374h1.769v7.374h-1.769zm6.229.14a2.958 2.958 0 01-1.317-.295 3.18 3.18 0 01-1.04-.817 3.87 3.87 0 01-.682-1.216 4.462 4.462 0 01-.244-1.498 4.567 4.567 0 01.238-1.498c.145-.441.367-.853.655-1.216.269-.336.605-.611.986-.809.38-.197.803-.299 1.231-.295.49-.007.971.127 1.387.386.404.256.733.616.952 1.042V82.84h1.773v7.276h-1.768v-1.197a2.676 2.676 0 01-.879.985 2.308 2.308 0 01-1.292.368zm2.171-4.587a2.403 2.403 0 00-.721-1.043 1.632 1.632 0 00-1.065-.401 1.474 1.474 0 00-.735.19 1.91 1.91 0 00-.582.506 2.381 2.381 0 00-.378.718c-.089.27-.133.552-.132.836-.001.29.045.578.139.852.085.254.218.49.39.695a1.79 1.79 0 001.364.637c.371.007.734-.116 1.025-.347a2.43 2.43 0 00.693-.9l.002-1.743zm2.938.759a4.267 4.267 0 01.252-1.463c.159-.45.407-.863.728-1.217a3.542 3.542 0 011.152-.818 3.603 3.603 0 011.522-.31 3.495 3.495 0 011.939.522c.52.332.936.806 1.198 1.366l-1.734.563a1.624 1.624 0 00-2.131-.683 1.74 1.74 0 00-.575.45 2.11 2.11 0 00-.385.695c-.095.29-.142.595-.139.9a2.67 2.67 0 00.146.9c.088.256.22.495.39.704.157.193.353.348.576.457.215.108.452.164.693.164.312 0 .617-.087.881-.254a1.39 1.39 0 00.561-.619l1.734.562a3.044 3.044 0 01-1.179 1.38 3.539 3.539 0 01-1.973.535 3.635 3.635 0 01-1.522-.31 3.524 3.524 0 01-1.151-.837 3.769 3.769 0 01-.735-1.225 4.182 4.182 0 01-.248-1.462zm7.638-4.714v-1.87h1.774v1.87h-1.774zm0 8.402v-7.374h1.774v7.374h-1.774zm6.579.141a3.632 3.632 0 01-1.522-.31 3.442 3.442 0 01-1.146-.837 3.75 3.75 0 01-.721-1.217 4.163 4.163 0 01-.251-1.45 4.218 4.218 0 01.251-1.462c.161-.448.406-.861.721-1.217a3.41 3.41 0 011.146-.837 3.6 3.6 0 011.522-.31 3.439 3.439 0 012.654 1.147c.315.356.56.77.721 1.217.169.469.254.964.252 1.463.001.494-.084.985-.252 1.45-.16.446-.403.859-.716 1.216a3.36 3.36 0 01-1.137.837 3.632 3.632 0 01-1.522.31zm-1.805-3.815a2.71 2.71 0 00.139.893c.085.253.215.489.383.695.157.193.353.349.576.457.452.218.978.218 1.43 0 .223-.108.419-.264.576-.457a2.2 2.2 0 00.384-.703c.096-.29.143-.595.139-.9a2.725 2.725 0 00-.139-.887 2.229 2.229 0 00-.384-.704 1.747 1.747 0 00-.576-.457 1.61 1.61 0 00-1.43.012 1.828 1.828 0 00-.576.465 2.218 2.218 0 00-.383.703 2.73 2.73 0 00-.139.883zm2.254-4.555l-1.137-.366.714-1.674h1.654l-1.231 2.04zm10.814 8.228h-1.773v-4.137c0-.59-.097-1.022-.291-1.294a.94.94 0 00-.808-.409c-.187.003-.371.04-.543.113a1.995 1.995 0 00-.52.316 2.582 2.582 0 00-.444.487c-.132.188-.23.397-.291.618v4.307h-1.775v-7.374h1.602v1.364c.254-.467.64-.849 1.111-1.096a3.38 3.38 0 011.642-.395c.369-.015.736.072 1.059.254.266.16.484.388.634.66.157.29.262.604.312.929.057.349.086.702.085 1.056v4.602z"/></g><defs><clipPath id="clip0_604:56"><path fill="#fff" transform="translate(20 75)" d="M0 0h160v50.279H0z"/></clipPath></defs></svg>