<svg width="200" height="200" fill="none" xmlns="http://www.w3.org/2000/svg"><path fill="#fff" d="M0 0h200v200H0z"/><g clip-path="url(#clip0)" fill="#000"><path d="M39.366 109.448c3.716.874 7.432 1.792 11.104 2.667-.437-1.224-1.093-2.23-1.05-3.192 0-1.005.482-2.142 1.05-3.016 1.311-2.142 3.279-3.585 5.683-4.372 1.574-.524 3.148-.655 4.415.35 1.05-.35 1.924-.612 2.798-.874.088.087.131.175.219.262-1.662 2.929-3.366 5.902-5.028 8.831l.306.306c.962-.743 1.88-1.487 2.886-2.273.7.306.961.699.218 1.267-.962.787-1.923 1.662-3.016 2.274-1.268.699-1.967.306-2.492-1.093-.262.131-.568.218-.787.437-3.278 2.798-7.125 2.798-11.06 2.273-2.36-.306-4.721-.831-6.995-1.617-2.36-.787-4.633-.787-7.038-.569-2.492.219-5.027.044-7.563-.043-.568 0-1.18-.132-1.617-.481-.568-.437-1.355-1.137-1.312-1.662 0-.568.831-1.53 1.4-1.573 2.447-.263 4.94-.481 7.387-.263 2.448.219 4.853.962 7.3 1.399.57.088 1.312.044 1.837-.218 2.448-1.137 4.11-3.148 5.683-5.508-1.53.83-2.885 1.617-4.284 2.273-2.448 1.136-4.984 1.574-7.65 1.049-1.662-.35-3.104-1.093-4.24-2.404-.176-.175-.132-.525-.176-.787.263 0 .569-.044.83 0 .22.043.394.218.57.349 2.884 2.623 6.25 2.623 9.53 1.224 3.89-1.661 7.3-3.934 9.442-7.825 2.273-4.153 4.983-8 8.656-11.06 1.005-.83 2.142-1.486 3.322-2.054.437-.219 1.355-.088 1.661.218.306.306.306 1.224.088 1.661-.569 1.137-1.224 2.361-2.099 3.279-2.535 2.754-5.246 5.333-7.869 8a6.972 6.972 0 00-1.093 1.443c-.961 1.66-1.835 3.366-2.885 4.94-1.66 2.535-3.978 4.371-6.82 5.508-.437.175-.83.393-1.267.568-.044.044-.044.175-.044.306zm14.033 1.093a36.67 36.67 0 001.923-.831c2.186-1.005 3.017-3.147 4.11-5.071.262-.437.48-1.267.306-1.442-.481-.394-1.224-.743-1.836-.743-2.71.131-6.164 3.584-6.427 6.251-.087 1.137.525 1.836 1.924 1.836zm6.994-26.23c-4.24 2.099-6.12 6.12-8.393 10.317 3.104-2.054 8.219-8.174 8.393-10.317zm-29.027 25.574c-2.885-.874-5.727-2.011-8.787-1.705-.524.044-.962.525-1.486.787.437.306.83.787 1.311.874 2.973.656 5.946.525 8.962.044zm124.547.656c1.049-.743 2.142-1.443 3.278-2.23.219.175.481.394.875.7 4.196-7.781 8.349-15.432 12.502-23.126l-.218-.218c-.7.48-1.355.961-2.142 1.486a13.84 13.84 0 00-.831-.874c1.049-.743 1.924-1.574 2.973-2.055.655-.306 1.53-.219 2.317-.306-.044.787.131 1.661-.175 2.273-1.18 2.405-2.492 4.678-3.76 7.038-2.885 5.29-5.77 10.58-8.612 15.826-.218.349-.349.743-.437 1.224 1.705-.612 3.279-1.312 4.066-3.06 1.442-3.235 3.934-5.159 7.256-6.033 1.312-.35 2.623-.262 3.585.568 1.006-.35 1.924-.612 2.842-.918.087.088.131.175.218.219-1.705 2.972-3.366 5.945-5.071 8.918.131.087.219.218.35.306.918-.743 1.836-1.487 2.885-2.317.219.175.481.349 1.006.787-1.355 1.005-2.492 2.011-3.804 2.797-1.267.744-1.967.35-2.448-.918-1.311.394-2.579.962-3.934 1.181-1.574.262-2.667-.569-3.235-2.055-1.049.656-1.967 1.399-3.06 1.836-.7.262-1.705.35-2.317.044-.394-.219-.394-1.268-.612-1.967-.131.087-.437.306-.743.524-.525.394-1.049.787-1.618 1.093-1.005.525-2.142 1.268-3.147.306-.962-.874-.219-1.967.262-2.885 3.891-7.257 7.825-14.514 11.716-21.727.175-.35.35-.743.35-1.311-.656.48-1.268.961-2.055 1.486-.262-.219-.525-.437-.787-.7.131-.174.175-.305.262-.35 1.137-.786 2.274-1.573 3.498-2.272.349-.175 1.092-.175 1.311.087.306.306.437.962.306 1.399-.131.656-.525 1.268-.874 1.88-3.935 7.213-7.869 14.47-11.804 21.683-.218.437-.437.918-.655 1.355.262.131.393.219.481.306zm11.715-1.88c-.087 1.268.7 2.011 1.968 1.661.83-.218 1.617-.655 2.36-1.049 1.924-1.049 2.58-3.104 3.629-4.809.787-1.267.262-2.098-1.312-2.098-2.71 0-6.513 3.585-6.645 6.295zM98.557 88.989c-3.978-.962-7.737-2.098-11.584-1.486-5.77.918-10.055 4.24-12.765 9.399-.918 1.748-1.18 3.715.043 5.595.175.263-.043.787-.087 1.268-1.705-1.005-2.36-2.929-1.661-5.246 1.486-4.896 4.634-8.437 9.136-10.754 4.897-2.492 10.142-2.667 15.432-1.705 1.486.262 2.973.656 4.503.874.612.088 1.311-.043 1.879-.218 3.279-1.006 6.602-2.099 10.099-1.618.656.088 1.399.306 1.967.656.525.35 1.18 1.005 1.18 1.53 0 .481-.699 1.268-1.267 1.443-1.662.568-3.41 1.224-5.159 1.267a46.42 46.42 0 01-8.175-.48c-1.573-.219-2.71.13-3.847 1.049-2.71 2.142-4.59 4.983-6.12 8.043-1.18 2.361-2.186 4.853-3.672 7.082-3.847 5.771-9.18 9.006-16.306 8.438-1.705-.132-3.497-.918-4.896-1.88-1.924-1.312-1.836-3.935.13-5.333-.043.699 0 1.224-.13 1.704-.437 1.487-.219 2.274 1.049 3.148 2.492 1.661 5.158 1.967 8 .962 2.404-.875 4.459-2.274 6.033-4.241 1.967-2.404 3.847-4.852 5.377-7.519 2.666-4.546 5.77-8.612 10.23-11.54.174-.045.305-.176.611-.438zm6.295-1.268c.918.175 1.836.481 2.755.481 2.36.044 4.721-.044 7.081-.131.306 0 .612-.525.875-.787-.306-.219-.569-.568-.875-.656-3.409-1.005-6.644-.262-9.836 1.093z"/><path d="M112.721 101.842c1.181-.35 2.055-.569 2.929-.831.088.131.175.219.306.35-2.841 4.502-5.639 9.093-8.612 13.552-1.268 1.879-3.147 3.235-5.639 2.929-.656-.088-1.574-.7-1.705-1.224-.175-.656.219-1.531.656-2.186.175-.263 1.136-.394 1.442-.175.569.393.35.962-.306 1.355-.175.088-.393.525-.349.612.174.219.48.437.699.394.7-.132 1.618-.219 2.055-.656 1.442-1.574 2.71-3.279 3.934-5.071-4.459 1.311-5.508 1.136-6.557-1.355-.962.699-1.836 1.442-2.842 2.054-1.486.875-2.142.612-2.841-.83-1.05.393-2.055.918-3.148 1.136-2.666.612-4.284-1.005-3.803-3.672.568-3.453 5.596-7.344 9.136-6.994.744.087 1.487.48 2.055.655.962-.306 1.88-.568 2.754-.874.044.087.131.175.175.262-1.661 2.973-3.366 5.902-5.027 8.875.087.087.218.174.306.262 1.574-.918 3.016-1.967 3.934-3.672 1.53-2.711 3.803-4.503 6.82-5.334 1.749-.48 2.317-.349 3.628.438zm-21.814 6.95c-.087 1.268.568 1.968 1.792 1.749.787-.131 1.53-.525 2.274-.918 2.054-1.049 2.797-3.148 3.89-4.94.744-1.268.219-2.142-1.224-2.186-2.623-.043-6.557 3.672-6.732 6.295zm14.732 1.356c.35-.132 1.006-.306 1.618-.569 2.098-.961 3.322-2.754 4.284-4.721.262-.481.525-1.486.393-1.574-.612-.393-1.398-.787-2.098-.699-2.579.349-5.464 3.278-6.033 5.77-.175 1.181.306 1.793 1.836 1.793zm33.356-1.268c1.18-1.967 2.36-3.978 3.628-6.12a29.787 29.787 0 00-1.792-.175c-.044-.962.349-1.487 1.355-1.312 1.093.175 1.661-.349 2.142-1.268.525-1.092 1.224-2.098 1.661-3.366-.437.394-.962.743-1.355 1.18-.568.656-1.006.525-1.618-.262 1.05-.83 2.055-1.748 3.192-2.404.481-.306 1.311-.087 1.967-.131 0 .656.218 1.355 0 1.923-.394 1.006-1.049 1.924-1.574 2.842-.218.393-.437.831-.743 1.355.656.088 1.18.131 1.705.175.175 1.005-.175 1.486-1.18 1.311-1.137-.174-1.705.306-2.23 1.268-1.18 2.142-2.448 4.197-3.541 6.426 1.924-.612 3.672-1.442 4.678-3.278 1.53-2.842 3.803-4.853 6.95-5.727.044 0 .088-.044.132-.044 1.18-.218 2.404-.437 3.191.787.568.874.044 2.317-1.18 3.279-1.705 1.399-3.804 1.88-5.946 2.229-1.224.219-1.792.831-1.574 1.836.219 1.137 1.181 1.05 1.968.962.699-.087 1.442-.35 2.098-.612.656-.262 1.224-.656 1.836-1.005.7.524.874 1.005-.044 1.399-1.573.612-3.103 1.398-4.721 1.704-1.88.35-2.798-.437-3.41-2.316-.699.524-1.399 1.092-2.142 1.53-.612.349-1.311.699-2.011.874-1.399.306-2.186-.525-1.748-1.967 0-.394.174-.743.306-1.093zm8.786-2.405c2.274-.437 4.241-.786 5.509-2.448.262-.306.218-.874.349-1.311-.437-.088-.918-.306-1.311-.175-1.924.525-3.235 1.88-4.547 3.934z"/><path d="M139.038 108.836c-1.18.918-2.317 1.967-3.628 2.754-1.355.831-2.142.481-2.667-.787-1.399.394-2.71.962-4.109 1.137-1.574.218-2.623-.7-3.104-2.317-.699.525-1.311 1.005-1.967 1.399-.612.35-1.224.743-1.88.83-.612.044-1.486-.087-1.836-.524-.306-.35-.262-1.268-.044-1.793.918-1.836 1.968-3.584 2.929-5.377.219-.393.394-.83.569-1.224-.088-.087-.175-.174-.306-.262-.918.743-1.837 1.486-2.755 2.273-.961-.524-1.049-.612-.262-1.267 1.006-.875 2.099-1.705 3.279-2.317.481-.263 1.53-.175 1.88.174.349.35.349 1.356.131 1.88-.918 1.924-2.011 3.76-3.017 5.64-.218.393-.393.743-.48 1.224 1.836-.7 3.453-1.662 4.371-3.454 1.486-2.841 3.847-4.721 6.951-5.508 1.749-.437 2.273-.306 3.628.481 1.05-.306 1.968-.612 2.842-.875.044.088.131.175.175.263l-4.984 8.787.306.306c.962-.744 1.88-1.443 2.885-2.23.35.306.7.568 1.093.787 0 0-.043.044 0 0zm-9.399 1.749a36.292 36.292 0 001.924-.831c2.229-1.049 3.016-3.279 4.153-5.202.218-.35.481-1.093.306-1.224-.437-.394-1.093-.831-1.661-.831-2.711-.043-6.601 3.76-6.689 6.426.044 1.05.525 1.618 1.967 1.662z"/><path d="M114.951 110.497c.568-.349 1.093-.612 1.661-1.005.525-.35 1.049-.787 1.705-1.312.219.263.437.525.612.744-.044.174-.044.306-.131.349-1.224.831-2.361 1.793-3.672 2.448-.569.263-1.661.175-2.099-.218-.349-.306-.306-1.443-.043-2.011 1.836-3.629 3.759-7.17 5.683-10.71 2.142-3.979 4.284-7.957 6.47-11.935.175-.306.262-.612.262-1.093-.699.481-1.355.962-2.098 1.486-.219-.218-.438-.48-.656-.699.044-.131.044-.262.087-.306.962-.7 1.924-1.53 2.973-2.098.568-.306 1.355-.088 2.055-.132 0 .7.174 1.487-.088 2.055-1.399 2.754-2.885 5.465-4.371 8.175-2.711 5.027-5.465 10.011-8.175 15.038-.175.306-.306.7-.437 1.049.043 0 .131.088.262.175zm13.945-16.349c-.218-.263-.699-.656-.743-1.05-.044-.961.656-1.53 1.574-1.53.35 0 1.005.612 1.049 1.006.087.918-.612 1.442-1.88 1.574z"/></g><defs><clipPath id="clip0"><path fill="#fff" transform="translate(20 83)" d="M0 0h160v34.973H0z"/></clipPath></defs></svg>