<svg width="200" height="200" fill="none" xmlns="http://www.w3.org/2000/svg"><path fill="#fff" d="M0 0h200v200H0z"/><g clip-path="url(#clip0)"><path fill-rule="evenodd" clip-rule="evenodd" d="M11.8 97.519h2.189c2.711 0 4.083-.98 4.083-2.908 0-.947-.327-1.666-.947-2.156-.621-.49-1.47-.718-2.548-.718H11.8v5.782zm15.941 10.584v4.181h-7.513l-5.586-10.813h-2.81v6.632h3.104v4.181H2.033v-4.181H5.43V91.737H2.033v-4.182h14.896c2.809 0 4.834.719 6.043 2.124 1.241 1.404 1.862 3.005 1.862 4.802 0 2.809-1.437 4.867-4.28 6.141l4.019 7.448h3.168v.033zM44.99 91.704c-1.894 0-3.495.719-4.834 2.123-1.307 1.438-1.96 3.496-1.96 6.24 0 2.417.653 4.377 1.96 5.814 1.306 1.47 2.907 2.189 4.834 2.189 1.895 0 3.496-.719 4.835-2.123 1.34-1.438 1.993-3.496 1.993-6.174 0-2.385-.621-4.345-1.895-5.848-1.274-1.47-2.907-2.221-4.933-2.221zm0-4.508c4.247 0 7.612 1.241 10.062 3.691 2.45 2.45 3.658 5.456 3.658 9.016 0 3.561-1.208 6.566-3.658 9.016s-5.815 3.659-10.062 3.659c-4.41 0-7.807-1.274-10.159-3.789-2.352-2.548-3.56-5.488-3.56-8.918 0-3.528 1.208-6.534 3.625-8.984 2.45-2.45 5.815-3.691 10.094-3.691zm29.106 20.907h1.536c1.862 0 3.364-.229 4.442-.719 1.111-.49 1.993-1.339 2.646-2.548.654-1.241.98-2.842.98-4.802 0-1.895-.326-3.495-1.012-4.802-.654-1.307-1.568-2.221-2.712-2.711-1.143-.49-2.58-.752-4.344-.752h-1.536v16.334zm-10.159 4.181v-4.181h3.757V91.737h-3.757v-4.182h11.695c2.45 0 4.442.164 5.945.458 1.503.294 2.94.98 4.312 1.992 1.372 1.046 2.483 2.418 3.3 4.149.816 1.731 1.24 3.659 1.24 5.782 0 1.731-.293 3.365-.881 4.933-.588 1.535-1.307 2.809-2.156 3.756-.85.948-1.895 1.699-3.071 2.287-1.209.555-2.287.915-3.3 1.078-.98.163-2.547.229-4.638.229H63.936v.065zm31.295 0v-4.181h3.756V91.737h-3.756v-4.182h13.948v4.182h-3.789v16.366h3.789v4.181H95.231zm20.808 0v-4.181h3.528V91.737h-3.528v-4.182h13.557v4.182h-3.593v16.366h7.284v-7.644h4.802v11.792h-22.05v.033zm28.584 0v-4.181h3.528V91.737h-3.528v-4.182h13.556v4.182h-3.593v16.366h7.285v-7.644h4.802v11.792h-22.05v.033zm42.205-12.021l-2.058-7.448-2.221 7.448h4.279zm11.139 7.84v4.181h-12.152v-4.181h3.169l-1.176-4.247h-6.403l-1.306 4.247h3.299v4.181h-10.943v-4.181h3.038l4.802-16.366h-3.3v-4.182h16.138v4.182h-3.332l5.194 16.366h2.972z" fill="#000"/></g><defs><clipPath id="clip0"><path fill="#fff" transform="translate(2 87)" d="M0 0h196v25.807H0z"/></clipPath></defs></svg>