<svg width="200" height="200" fill="none" xmlns="http://www.w3.org/2000/svg"><path fill="#fff" d="M0 0h200v200H0z"/><g clip-path="url(#clip0)" fill-rule="evenodd" clip-rule="evenodd" fill="#000"><path d="M106 102v10.175c0 3.25-2.105 4.513-4.358 4.513-2.477 0-4.267-1.579-4.267-4.204V102h-4.301v10.386c0 5.628 3.62 8.105 8.631 8.105 4.702 0 8.597-2.105 8.597-8.133V102H106zm11.291 5.902h-3.677v12.344h3.677v-7.951c.962-1.516 1.642-2.042 2.533-2.042 1.053 0 1.825.743 1.825 2.477v7.516h3.649v-7.825c0-3.649-2.414-4.73-4.238-4.73-1.488 0-2.632.59-3.776 1.979l.007-1.768zm14.779 0h-3.649v12.344h3.649v-12.344zm13.298 8.968c-1.642.653-2.414.863-3.305.863-2.07 0-3.467-1.452-3.467-3.649 0-2.168 1.39-3.558 3.621-3.558.899 0 2.015.309 2.969.835v-2.877c-1.207-.498-2.723-.807-3.93-.807-3.839 0-6.589 2.66-6.589 6.435 0 3.839 2.659 6.372 6.743 6.372 1.236 0 2.471-.281 3.958-.835v-2.779zm14.351.316c-.863.646-1.144.709-1.389.709-.4 0-.618-.246-.618-.863v-5.6c0-2.723-1.979-3.741-4.919-3.741-1.853 0-3.558.498-5.074 1.488v3.158c1.172-1.27 2.842-2.07 4.302-2.07 1.607 0 2.105.926 2.042 2.07-4.884 1.607-6.926 2.196-6.926 5.137 0 1.544 1.389 3.031 3.249 3.031 1.27 0 2.442-.4 3.831-1.389.281.989.836 1.389 2.071 1.389.961 0 2.414-.498 3.431-1.144v-2.175zm-5.656.056c-.617.59-1.361.926-2.042.926-.646 0-1.172-.589-1.172-1.298 0-1.235 1.018-1.761 3.214-2.596v2.968zm10.976-9.34h-3.685v11.754c0 2.014-.554 3.004-1.887 3.214l1.172 3.523c1.852-.182 4.392-1.607 4.392-5.818v-12.673h.008zm14.94 9.284c-.863.646-1.144.709-1.39.709-.4 0-.617-.246-.617-.863v-5.6c0-2.723-1.979-3.741-4.919-3.741-1.853 0-3.558.498-5.074 1.488v3.158c1.172-1.27 2.842-2.07 4.302-2.07 1.607 0 2.105.926 2.042 2.07-4.884 1.607-6.927 2.196-6.927 5.137 0 1.544 1.39 3.031 3.25 3.031 1.27 0 2.442-.4 3.831-1.389.281.989.835 1.389 2.07 1.389.962 0 2.414-.498 3.432-1.144v-2.175zm-5.663.056c-.618.59-1.362.926-2.042.926-.653 0-1.172-.589-1.172-1.298 0-1.235 1.017-1.761 3.214-2.596v2.968zm-154.049 9.712h159.312v2.26H20.267v-2.26zm38.968-4.946C39.13 105.397 20.021 89.783 20.021 89.783s4.948-7.488 13.018-12.68l26.196 44.905zm-1.824-6.092C46.555 97.734 34.218 76.604 34.218 76.604s7.172-4.575 14.07-5.754l9.123 45.066zm.308-5.256c-3.34-16.61-7.642-40.02-7.642-40.02s5.818-1.117 12.246-.281l-4.604 40.301zm2.106-5.109a1585.895 1585.895 0 003.993-35.038s5.817.554 9.62 2.695c-.006 0-4.862 11.501-13.613 32.343zm2.905-2.933c8.105-18.772 12.28-28.92 12.28-28.92s3.587.99 7.236 4.085L62.73 102.618zm3.495-2.323c14.35-18.09 16.982-21.831 16.982-21.831s1.235.217 4.702 4.02l-21.684 17.811zm3.031-.645c17.32-13.951 19.797-15.804 19.797-15.804s2.161 2.042 3.214 3.958L69.257 99.65zm6.281-1.551c11.874-6.127 17.72-8.814 17.72-8.814s.645.652 1.389 2.414l-19.109 6.4zm3.621.098c16.358-5.01 15.895-5.038 15.895-5.038s.653 1.143.653 1.978l-16.548 3.06zm46.912 3.396a3.325 3.325 0 013.312-3.34h.029a3.34 3.34 0 013.34 3.34c0 1.824-1.516 3.34-3.34 3.34a3.344 3.344 0 01-3.341-3.34zm33.376.126c0-1.915 1.543-3.466 3.431-3.466a3.462 3.462 0 013.467 3.452v.014c0 1.888-1.544 3.432-3.467 3.432a3.44 3.44 0 01-3.431-3.432z"/></g><defs><clipPath id="clip0"><path fill="#fff" transform="translate(20 70)" d="M0 0h160v59.228H0z"/></clipPath></defs></svg>