<svg width="200" height="200" fill="none" xmlns="http://www.w3.org/2000/svg"><path fill="#fff" d="M0 0h200v200H0z"/><g clip-path="url(#clip0)"><path fill-rule="evenodd" clip-rule="evenodd" d="M136.805 57.04H63.943v85.601h72.862V57.04zM83.108 98.475v1.024l-8.622-6.807v-.63l8.622-6.808v1.024l-7.723 6.099 7.723 6.098zm34.53 0v1.024l8.624-6.807v-.63l-8.624-6.808v1.024l7.725 6.099-7.725 6.098zM88.29 71.243v19.373h5.333V71.243H88.29zm18.066 4.837c1.285.352 2.523.853 3.69 1.493l2.531-4.398a39.264 39.264 0 00-1.626-.696 23.574 23.574 0 00-1.943-.681 19.762 19.762 0 00-2.155-.511 12.739 12.739 0 00-2.289-.207 10.646 10.646 0 00-3.027.425 8.184 8.184 0 00-2.54 1.23 5.833 5.833 0 00-2.411 4.885c-.012.642.095 1.28.316 1.883a4.05 4.05 0 00.98 1.465 6.64 6.64 0 001.685 1.146 16.51 16.51 0 002.442.94 38.4 38.4 0 001.821.519c.573.147 1.081.293 1.522.44.372.11.723.281 1.04.505a.851.851 0 01.376.696.7.7 0 01-.376.614c-.252.154-.7.231-1.341.231a9.57 9.57 0 01-2.486-.326 16.878 16.878 0 01-2.184-.733 18.14 18.14 0 01-2.203-1.065l-2.53 4.666a15.6 15.6 0 002.094.928 23.06 23.06 0 004.804 1.172c.799.108 1.603.164 2.409.164.988 0 1.972-.106 2.938-.314a8.333 8.333 0 002.62-1.025 5.478 5.478 0 001.869-1.905c.472-.788.707-1.765.707-2.93.025-.8-.13-1.597-.452-2.331a4.505 4.505 0 00-1.295-1.623 8.49 8.49 0 00-2.033-1.16c-.87-.354-1.76-.654-2.666-.902a67.709 67.709 0 00-1.672-.463 10.561 10.561 0 01-1.25-.395 2.627 2.627 0 01-.784-.45.819.819 0 01-.27-.629.752.752 0 01.467-.732 2.992 2.992 0 011.25-.219 7.165 7.165 0 011.972.293zM88.29 94.85v19.373h6.91a11.08 11.08 0 004.022-.696 8.91 8.91 0 003.085-1.965 8.64 8.64 0 001.983-3.056c.48-1.277.716-2.633.697-3.997a11.025 11.025 0 00-.63-3.752 8.488 8.488 0 00-1.896-3.11 8.523 8.523 0 00-3.027-2.034c-1.224-.508-2.637-.763-4.24-.763H88.29zm10.98 7.608a6.56 6.56 0 01.302 2.051 6.771 6.771 0 01-.294 2.018 4.711 4.711 0 01-.847 1.611 3.89 3.89 0 01-1.382 1.064 4.333 4.333 0 01-1.854.382h-1.572V99.489h1.572a4.447 4.447 0 011.833.36 3.886 3.886 0 011.38 1.026c.39.465.683 1.003.863 1.582zm7.822-7.608v19.373h5.334V94.849h-5.334zm-32.784 28.899v4.635l1.651-.002c.32.005.638-.052.936-.167a1.995 1.995 0 001.168-1.203c.111-.306.165-.63.161-.955 0-.305-.048-.608-.147-.897a2.091 2.091 0 00-.429-.732 2.026 2.026 0 00-.706-.496 2.483 2.483 0 00-.986-.183h-1.648zm3.066 1.638c.069.219.104.444.101.673.004.225-.026.45-.091.665a1.536 1.536 0 01-.294.532c-.13.152-.294.272-.477.353a1.573 1.573 0 01-.652.127h-.915v-3.342h.915c.22-.004.439.039.642.125a1.377 1.377 0 01.77.867zm1.805-1.638v4.635h.734v-4.635h-.734zm4.594 4.506c.233-.104.442-.256.613-.446l.003.579h.615v-2.344h-1.598v.54h.975v.497a1.985 1.985 0 01-.618.516 1.49 1.49 0 01-.677.162 1.345 1.345 0 01-.595-.133 1.496 1.496 0 01-.474-.363 1.661 1.661 0 01-.315-.535 2.026 2.026 0 01-.013-1.298c.064-.196.163-.379.294-.539.125-.154.281-.28.458-.371.184-.097.388-.147.595-.147.257-.002.51.063.734.189.229.132.411.33.525.567l.562-.402a1.8 1.8 0 00-.681-.733 2.306 2.306 0 00-2.002-.091c-.265.12-.503.292-.7.506a2.465 2.465 0 00-.461 2.539c.106.278.262.535.462.757.195.216.43.393.693.519.27.128.565.194.863.192a1.84 1.84 0 00.742-.161zm2.3-4.506v4.635h.735v-4.635h-.735zm3.747.648h1.546v-.646H87.53v.646h1.555v3.988h.734v-3.988zm3.739-.648h-.642l-1.845 4.635h.778l.485-1.261h1.792l.49 1.261h.773l-1.831-4.635zm-.322.843l.746 1.989h-1.517l.77-1.989zm2.858-.843v4.635h3.232v-.647H96.83v-3.988h-.735zm7.694.648h1.545v-.646h-3.835v.646h1.555v3.988h.735v-3.988zm3.742-.648h-.641l-1.851 4.635h.778l.485-1.261h1.798l.49 1.261h.773l-1.832-4.635zm-.32.843l.745 1.989h-1.517l.772-1.989zm2.853-.843v4.635h3.231v-.647h-2.497v-3.988h-.734zm7.122 4.635v-.647l-2.453.002v-1.417h2.074v-.606h-2.074v-1.319h2.394v-.648H114v4.635h3.186zm1.617 0v-3.265l2.628 3.265h.599v-4.629h-.734v3.336l-2.656-3.342h-.571v4.635h.734zm6.256-3.987h1.544v-.646h-3.834v.646h1.555v3.988h.735v-3.988z" fill="#000"/></g><defs><clipPath id="clip0"><path fill="#fff" transform="translate(64 57)" d="M0 0h72.853v85.71H0z"/></clipPath></defs></svg>