<svg width="200" height="200" fill="none" xmlns="http://www.w3.org/2000/svg"><path fill="#fff" d="M0 0h200v200H0z"/><g clip-path="url(#clip0)"><path d="M20 58.04v18.898h4.315v-5.234c2.492 0 4.752.05 7.011-.009 3.96-.104 6.784-2.887 6.87-6.697.082-3.702-2.782-6.793-6.67-6.93-3.774-.132-7.557-.027-11.526-.027zm115.168 14.565c.864-.619 1.582-1.042 2.191-1.587 1.642-1.474 1.969-3.406 1.442-5.411-.532-2.037-1.928-3.688-4.024-3.86-3.351-.278-6.739-.073-10.19-.073V77.01h3.406V62.733c4.133-.695 6.561.3 7.211 3.06.246 1.037.273 2.451-.25 3.27-.818 1.273-2.201 2.187-3.456 3.355 2.165 1.528 2.879 5.761 7.448 4.46-.723-.809-1.314-1.463-1.9-2.123-.596-.677-1.183-1.355-1.878-2.15zm-84.358-.582c3.51 5.188 4.26 5.67 7.38 4.715l-3.647-4.129c.714-.482 1.305-.8 1.805-1.227 1.782-1.51 2.5-3.452 1.864-5.702-.596-2.106-1.996-3.797-4.215-3.97-3.283-.254-6.607-.063-10.017-.063V77.01h3.424V62.73c4.129-.664 6.497.4 7.28 3.124.74 2.596-.573 4.692-3.874 6.17zm120.401-9.626c.004-.223.014-.441.018-.664h-16.432c-.009.205-.019.41-.023.618h6.47v14.655h3.542v-14.61h6.425zm-103.078-.728h-3.31V77.01h3.31V61.67zm77.752 15.337h3.383V61.715h-3.383v15.29zm34.115.04v-15.35h-3.228v15.35H180z" fill="#fff"/><path d="M135.168 72.605c.695.795 1.282 1.473 1.878 2.146.586.659 1.177 1.314 1.9 2.123-4.569 1.296-5.283-2.937-7.448-4.46 1.255-1.169 2.633-2.083 3.456-3.356.527-.819.496-2.233.25-3.27-.65-2.76-3.083-3.755-7.211-3.06v14.278h-3.406V61.669c3.451 0 6.839-.204 10.19.073 2.096.173 3.492 1.819 4.024 3.86.523 2.005.2 3.938-1.442 5.411-.609.55-1.327.973-2.191 1.591zm-84.358-.582c3.3-1.478 4.62-3.57 3.874-6.17-.782-2.724-3.151-3.788-7.28-3.124V77.01H43.98V61.647c3.41 0 6.734-.191 10.017.068 2.219.173 3.62 1.86 4.215 3.97.636 2.25-.082 4.191-1.864 5.701-.5.423-1.091.746-1.805 1.228 1.268 1.436 2.455 2.778 3.646 4.128-3.123.946-3.874.464-7.38-4.72zm120.401-9.626h-6.429v14.609h-3.542V62.35h-6.47c.009-.204.018-.409.022-.618h16.433c0 .223-.009.446-.014.664zM68.133 61.67v15.34h-3.31V61.67h3.31zm77.752 15.336V61.715h3.383v15.29h-3.383zm34.115.041h-3.228v-15.35H180v15.35z" fill="#000"/><path fill-rule="evenodd" clip-rule="evenodd" d="M23.642 58.02c-1.2.01-2.412.02-3.642.02 0 6.385 0 12.673-.005 18.898h4.316v-5.234c.8 0 1.578.005 2.338.01 1.608.011 3.142.021 4.673-.019 3.965-.104 6.788-2.887 6.87-6.697.082-3.702-2.778-6.793-6.666-6.93-2.604-.09-5.213-.07-7.884-.047zm1.683 12.612a62.41 62.41 0 00-1.014-.023V59.355c.44-.014.88-.04 1.319-.067a30.165 30.165 0 011.909-.075c.695.002 1.376.054 2.03.21 1.116.267 2.156.837 3.067 1.983l.013.016a5.449 5.449 0 011.196 3.329c.013 1.02-.26 2.055-.818 3.016-1.328 2.28-3.224 2.805-5.358 2.886-.71.028-1.448.006-2.2-.017l-.144-.004z" fill="#000"/><path d="M75.758 63.652v.745h1.96l-3.637 12.686h2.66s2.1-7.93 6.015-11.894c0 0 2.66-2.192 3.36.186.7 2.378-3.406 12.036-3.406 12.036h2.751s2.051-7.557 4.897-10.636c2.847-3.078 4.293-2.846 4.852-1.49.56 1.354-2.892 8.956-2.987 10.307-.096 1.355.372 2.892 2.287 2.892 1.914 0 4.524-3.36 4.524-3.36v-.605s-3.078 3.637-4.292 3.033c-1.215-.605 3.45-9.563 3.123-11.85-.327-2.287-1.914-3.032-4.151-2.66-2.8.469-5.41 4.852-5.41 4.852s1.068-4.952-1.774-5.129c-4.383-.282-7.043 4.993-7.043 4.993l1.26-4.62-4.989.514zm43.664 2.218c.545-2.696-.623-5.578-5.361-5.578-5.288 0-10.503 5.388-11.085 10.794-.723 6.738 2.537 8.984 7.102 8.984 5.506 0 8.116-5.36 8.116-5.36h-.723s-1.45 2.61-4.201 3.842c-2.756 1.232-5.311 1.423-6.52-.796-2.174-3.983-.364-7.825-.364-7.825s11.804 2.028 13.036-4.06zm-8.262-4.055c1.66-1.023 4.274-.723 4.929.65.932 1.969.364 4.783-3.115 6.375-1.714.786-6.015-.146-6.015-.146s1.737-5.356 4.201-6.88z" fill="#000"/></g><g clip-path="url(#clip1)" fill="#000"><path d="M80.174 132.247V97.862H70v42.245h18.097v-7.86h-7.923zm29-32.23v-2.09h-7.024v-.065H91.976v.059h-6.29v7.859h6.29v34.321h10.174V105.78h4.156c.175-1.319.463-2.416.888-3.182a11.586 11.586 0 011.98-2.581z"/><path d="M124.046 130.555l-3.724 1.788s-1.629-9.083-2.64-14.441c-1.011-5.359-2.016-12.425-2.016-12.425h3.65l.846-9.477-4.502.234s-3.65.98-6.486 3.783v5.768h-2.868c-.655 4.938.308 13.096 1.899 19.72 1.863 7.764 5.439 13.825 6.444 14.91 1.011 1.086 7.147 1.24 9.397.931 2.251-.308 5.125-2.25 5.125-2.25l-5.125-8.541z"/></g><defs><clipPath id="clip0"><path fill="#fff" transform="translate(20 58)" d="M0 0h160v22.075H0z"/></clipPath><clipPath id="clip1"><path fill="#fff" transform="translate(70 96)" d="M0 0h59.17v45.49H0z"/></clipPath></defs></svg>