<svg width="200" height="200" fill="none" xmlns="http://www.w3.org/2000/svg"><path fill="#fff" d="M0 0h200v200H0z"/><g clip-path="url(#clip0)" fill="#000"><path d="M192.28 115.665h4.46v-1.17h-3.146v-6.215h-1.314v7.385zm-13.51-2.826l1.158-3.003 1.138 3.003h-2.296zm-2.594 2.826h1.467l.674-1.689h3.201l.684 1.689h1.502l-3.18-7.385h-1.136l-3.212 7.385zm-15.079 0h1.313v-5.707h.022l3.511 5.707h1.666v-7.385h-1.313v5.53h-.022l-3.433-5.53h-1.744v7.385zm-15.454-4.78a2.56 2.56 0 01.519-.85 2.427 2.427 0 011.832-.784c.386 0 .729.067 1.049.21.309.144.585.331.806.574.221.243.398.53.518.85.122.331.188.684.188 1.06 0 .397-.055.761-.188 1.093-.12.331-.297.618-.518.861-.232.242-.497.43-.806.574a2.587 2.587 0 01-1.027.198 2.59 2.59 0 01-1.026-.198 2.31 2.31 0 01-.806-.574 2.438 2.438 0 01-.519-.861 3.169 3.169 0 01-.187-1.093c-.012-.387.043-.74.165-1.06zm-1.313 2.638c.198.475.474.883.827 1.236a3.96 3.96 0 001.248.806 4.303 4.303 0 001.578.287c.574 0 1.116-.099 1.601-.287a3.7 3.7 0 001.258-.806c.354-.342.63-.75.828-1.236a4.052 4.052 0 00.298-1.578c0-.585-.099-1.126-.298-1.601a3.475 3.475 0 00-.828-1.214 3.655 3.655 0 00-1.258-.773 4.652 4.652 0 00-1.601-.265c-.574 0-1.093.089-1.578.265a3.52 3.52 0 00-1.248.773c-.353.331-.629.74-.827 1.214a4.094 4.094 0 00-.298 1.601c0 .574.099 1.104.298 1.578zm-10.73 2.142h1.314v-7.385H133.6v7.385zm-8.776-6.458a1.846 1.846 0 00-.53-.496 3.5 3.5 0 00-.673-.354 3.333 3.333 0 00-.739-.209 4.677 4.677 0 00-2.329.198 3.815 3.815 0 00-1.27.773c-.353.331-.64.74-.839 1.214-.209.475-.309 1.005-.309 1.601 0 .574.1 1.103.287 1.578.199.475.464.883.817 1.236.353.343.762.608 1.247.806.486.199 1.016.287 1.59.287.629 0 1.192-.11 1.656-.342a3.497 3.497 0 001.204-.949l-1.061-.74c-.187.254-.43.464-.739.618a2.32 2.32 0 01-1.049.232c-.386 0-.729-.066-1.038-.198a2.246 2.246 0 01-.784-.563 2.584 2.584 0 01-.507-.861 3.233 3.233 0 01-.176-1.104c0-.387.065-.74.187-1.06a2.56 2.56 0 01.519-.85c.221-.243.497-.43.806-.574.309-.143.662-.21 1.048-.21.299 0 .608.056.917.177.309.121.562.309.761.585l1.004-.795zm-19.658 3.632l1.158-3.003 1.138 3.003h-2.296zm-2.595 2.826h1.468l.662-1.689h3.202l.684 1.689h1.502l-3.18-7.385h-1.137l-3.201 7.385zm-15.078 0h1.313v-5.707h.022l3.51 5.707h1.667v-7.385h-1.313v5.53h-.022l-3.433-5.53h-1.744v7.385zm-21.636-4.78c.122-.331.298-.607.52-.85.22-.243.485-.43.794-.574a2.43 2.43 0 011.038-.21c.386 0 .728.067 1.037.21.31.144.585.331.806.574.22.243.397.53.519.85.121.331.187.684.187 1.06 0 .397-.066.761-.187 1.093a2.604 2.604 0 01-.52.861c-.23.242-.496.43-.805.574a2.624 2.624 0 01-1.026.198c-.376 0-.718-.066-1.027-.198a2.316 2.316 0 01-.806-.574 2.432 2.432 0 01-.519-.861 3.16 3.16 0 01-.187-1.093 2.55 2.55 0 01.176-1.06zm-1.324 2.638c.198.475.474.883.828 1.236.353.343.772.608 1.247.806a4.352 4.352 0 001.578.287c.574 0 1.115-.099 1.601-.287a3.708 3.708 0 001.258-.806c.354-.342.63-.75.828-1.236a4.057 4.057 0 00.298-1.578c0-.585-.099-1.126-.298-1.601a3.496 3.496 0 00-.828-1.214 3.662 3.662 0 00-1.258-.773 4.651 4.651 0 00-1.6-.265 4.57 4.57 0 00-1.579.265 3.513 3.513 0 00-1.247.773c-.354.331-.63.74-.828 1.214a4.1 4.1 0 00-.298 1.601c0 .574.099 1.104.298 1.578zm-14.152 2.142h5.078v-1.17h-3.764v-2.087h3.389v-1.104h-3.389v-1.876h3.577v-1.148h-4.89v7.385zm-9.206-6.789a2.784 2.784 0 00-1.004-.596 3.502 3.502 0 00-1.148-.199 3.67 3.67 0 00-.983.133c-.32.088-.607.221-.86.397a2.007 2.007 0 00-.619.674 1.943 1.943 0 00-.231.971c0 .353.055.64.165.872.11.232.254.43.43.585.177.165.376.287.597.386.22.1.441.177.673.254.232.077.453.155.662.221.21.066.387.155.541.243.155.088.276.209.364.331a.839.839 0 01.133.486c0 .198-.044.364-.121.507a1.153 1.153 0 01-.31.343 1.528 1.528 0 01-.43.198c-.155.033-.32.055-.464.055-.287 0-.585-.077-.894-.22a1.943 1.943 0 01-.728-.596l-.939.872c.288.353.663.607 1.126.783.464.177.928.265 1.413.265.365 0 .707-.044 1.038-.143.331-.1.607-.243.861-.442.243-.198.441-.441.585-.739.143-.298.22-.641.22-1.038 0-.364-.066-.662-.198-.905a1.964 1.964 0 00-.519-.607 3.048 3.048 0 00-.695-.387 12.098 12.098 0 00-.74-.264c-.21-.067-.397-.122-.574-.188a1.833 1.833 0 01-.441-.221 1.046 1.046 0 01-.287-.298.887.887 0 01-.11-.43c0-.177.043-.332.12-.464a.922.922 0 01.31-.309c.121-.077.265-.144.42-.177a1.67 1.67 0 01.463-.055c.254 0 .508.055.762.177.253.121.452.276.584.452l.828-.927zm-14.03-.607h-1.313v4.625c0 .221-.022.431-.088.64-.055.21-.144.398-.276.574a1.567 1.567 0 01-.508.409c-.21.11-.475.154-.784.154a1.84 1.84 0 01-.784-.154c-.21-.1-.386-.243-.507-.409a1.457 1.457 0 01-.276-.574 2.548 2.548 0 01-.089-.64v-4.625h-1.313v4.669c0 .442.077.85.22 1.203.155.365.354.663.63.917.265.253.585.441.938.574.364.132.75.198 1.181.198.42 0 .817-.066 1.181-.198.365-.133.674-.332.939-.574.265-.254.474-.552.629-.917.154-.353.232-.761.232-1.203v-4.669h-.011zM3.81 115.665h1.248v-5.939h.022l2.207 5.939h.917l2.24-5.939h.022v5.939h1.303v-7.385H9.705l-1.899 5.243h-.033l-1.92-5.243H3.798v7.385h.011zm187.102-23.843l1.655-4.305 1.634 4.305h-3.289zm-3.709 4.04h2.108l.96-2.429h4.592l.983 2.429h2.152l-4.558-10.597h-1.634l-4.603 10.597zm-10.001 0h8.091v-1.678h-5.883l5.795-7.208v-1.711h-7.914v1.645h5.673l-5.762 7.24v1.712zm-2.815-9.725a4.038 4.038 0 00-1.446-.85 5.093 5.093 0 00-1.634-.287 5.55 5.55 0 00-1.412.188c-.464.121-.872.32-1.237.574a2.946 2.946 0 00-.883.96c-.221.386-.342.85-.342 1.39 0 .498.077.917.243 1.248.154.331.364.618.618.85.254.232.541.42.861.552.32.144.64.265.96.364.331.11.64.21.938.32.299.1.563.221.773.354.221.132.398.298.53.474.132.188.199.42.199.696 0 .287-.055.53-.177.728-.11.199-.264.354-.453.486-.187.132-.386.22-.618.276a2.864 2.864 0 01-.673.077c-.42 0-.85-.1-1.28-.309a2.728 2.728 0 01-1.038-.85l-1.347 1.258c.42.497.961.873 1.612 1.126a5.606 5.606 0 002.02.387c.519 0 1.015-.066 1.479-.21a3.774 3.774 0 001.225-.63 2.95 2.95 0 00.839-1.059c.21-.42.309-.916.309-1.49 0-.519-.099-.95-.287-1.303a2.744 2.744 0 00-.75-.872 3.865 3.865 0 00-1.005-.551 17.64 17.64 0 00-1.059-.376 13.958 13.958 0 01-.817-.265 3.126 3.126 0 01-.64-.309 1.378 1.378 0 01-.409-.43 1.196 1.196 0 01-.154-.618c0-.254.055-.486.177-.663a1.43 1.43 0 01.441-.452c.176-.11.375-.199.596-.254.221-.055.442-.078.662-.078.365 0 .739.089 1.104.265.364.177.641.387.85.652l1.225-1.369zm-12.341 9.725h1.888V85.265h-1.888v10.597zm-15.266 0h1.799v-8.51h.034l3.168 8.51h1.313l3.212-8.51h.033v8.51h1.877V85.265h-2.958l-2.727 7.528h-.045l-2.747-7.528h-2.948v10.597h-.011zm-10.618 0h7.284v-1.678h-5.397v-2.991h4.857v-1.59h-4.857V86.91h5.133v-1.645h-7.02v10.597zm-13.17 0h1.887v-8.18h.034l5.023 8.18h2.394V85.265h-1.887v7.925h-.033l-4.923-7.925h-2.495v10.597zm-9.018-6.027v-2.98h1.711c.242 0 .485.021.739.055.254.044.486.11.685.22.199.11.364.254.496.442.133.188.199.42.199.706 0 .32-.066.585-.209.784-.144.21-.321.364-.53.475-.21.11-.453.187-.729.22a6.747 6.747 0 01-.806.056h-1.556v.022zm-1.888 6.027h1.888v-4.493h1.38l2.45 4.493h2.274l-2.826-4.703c.751-.165 1.336-.496 1.777-.982.431-.486.652-1.115.652-1.877 0-.563-.111-1.026-.331-1.424a2.638 2.638 0 00-.873-.938 3.812 3.812 0 00-1.246-.519 6.347 6.347 0 00-1.458-.154h-3.676v10.597h-.011zM99.69 89.007c.177-.464.419-.872.74-1.225.32-.353.706-.63 1.148-.828a3.588 3.588 0 011.489-.298c.553 0 1.05.1 1.502.298.453.199.828.475 1.148.828.32.353.563.761.739 1.225.177.464.266.982.266 1.523a4.44 4.44 0 01-.266 1.568 3.6 3.6 0 01-.75 1.236c-.32.353-.707.618-1.159.817-.452.199-.938.287-1.48.287-.54 0-1.026-.1-1.467-.287a3.401 3.401 0 01-1.148-.817 3.777 3.777 0 01-.751-1.236 4.47 4.47 0 01-.265-1.568c-.01-.54.077-1.048.254-1.523zm-1.887 3.797c.287.685.684 1.27 1.18 1.766a5.184 5.184 0 001.8 1.148c.695.276 1.446.409 2.263.409.828 0 1.589-.133 2.285-.409a5.572 5.572 0 001.81-1.148 5.29 5.29 0 001.192-1.766c.287-.684.431-1.435.431-2.263 0-.85-.144-1.611-.431-2.296a5.09 5.09 0 00-1.192-1.744 5.128 5.128 0 00-1.81-1.104c-.696-.265-1.457-.386-2.285-.386-.817 0-1.578.133-2.263.386a5.248 5.248 0 00-1.8 1.104c-.507.475-.894 1.06-1.18 1.744-.287.685-.43 1.446-.43 2.296 0 .828.142 1.579.43 2.263zm-9.206-1.611h1.766c.772 0 1.335.11 1.722.33.375.222.574.608.574 1.17 0 .354-.078.63-.232.84-.155.21-.353.375-.585.474-.232.11-.497.177-.773.221a6.69 6.69 0 01-.773.055h-1.689v-3.09h-.01zm0-4.36h1.512c.717 0 1.247.099 1.59.297.341.2.507.541.507 1.016 0 .464-.166.817-.497 1.06-.33.254-.806.375-1.435.375h-1.677v-2.749zm-1.888 9.029h3.82c.496 0 .993-.055 1.467-.155.486-.11.916-.276 1.292-.519.375-.242.673-.552.905-.949.232-.397.342-.883.342-1.457 0-.717-.21-1.291-.64-1.722-.43-.43-.983-.684-1.645-.784v-.033a2.832 2.832 0 001.336-.839c.342-.386.508-.883.508-1.479 0-.474-.1-.883-.287-1.225a2.44 2.44 0 00-.74-.828 2.772 2.772 0 00-1.037-.464 5.32 5.32 0 00-1.182-.143H86.72v10.597h-.011zm-3.267-5.343h-3.588v1.523h3.588V90.52zm-16.183 5.343h1.888v-8.18h.033l5.022 8.18h2.396V85.265H74.71v7.925h-.033l-4.923-7.925h-2.495v10.597zm-10.63 0h7.286v-1.678h-5.398v-2.991h4.868v-1.59h-4.868V86.91h5.133v-1.645h-7.02v10.597zm-3.455-9.725a4.042 4.042 0 00-1.446-.85A5.11 5.11 0 0050.083 85c-.474 0-.949.066-1.413.188-.463.121-.883.32-1.236.574a2.94 2.94 0 00-.883.96c-.22.386-.342.85-.342 1.39 0 .498.077.917.243 1.248.154.331.364.618.618.85.254.232.54.42.86.552.321.144.641.265.961.364.331.11.64.21.939.32.298.1.563.221.783.354.221.132.398.298.52.474.132.188.198.42.198.696 0 .287-.055.53-.177.728-.11.199-.265.354-.452.486a1.77 1.77 0 01-.619.276 2.867 2.867 0 01-.673.077c-.42 0-.85-.1-1.28-.309a2.73 2.73 0 01-1.038-.85l-1.347 1.258c.42.497.96.873 1.612 1.126a5.607 5.607 0 002.02.387c.519 0 1.015-.066 1.48-.21a3.683 3.683 0 001.224-.63c.354-.275.63-.628.84-1.059.209-.42.32-.916.32-1.49 0-.519-.1-.95-.288-1.303a2.74 2.74 0 00-.75-.872 3.703 3.703 0 00-1.005-.551 17.704 17.704 0 00-1.06-.376 18.676 18.676 0 01-.827-.265 3.146 3.146 0 01-.64-.309 1.372 1.372 0 01-.409-.43 1.193 1.193 0 01-.154-.618c0-.254.055-.486.165-.663a1.44 1.44 0 01.442-.452c.176-.11.375-.199.596-.254.22-.055.441-.078.662-.078.364 0 .74.089 1.104.265.364.177.64.387.85.652l1.247-1.369zm-10.089 0a4.042 4.042 0 00-1.446-.85A5.097 5.097 0 0040.005 85c-.474 0-.949.066-1.413.188-.463.121-.883.32-1.236.574a2.94 2.94 0 00-.883.96c-.22.386-.342.85-.342 1.39 0 .498.077.917.243 1.248.154.331.364.618.618.85.254.232.54.42.86.552.32.144.641.265.961.364.331.11.64.21.938.32.299.1.563.221.784.354.221.132.398.298.519.474.132.188.199.42.199.696 0 .287-.056.53-.177.728-.11.199-.265.354-.453.486-.187.132-.386.22-.618.276a2.867 2.867 0 01-.673.077c-.42 0-.85-.1-1.28-.309a2.73 2.73 0 01-1.038-.85l-1.347 1.258c.42.497.96.873 1.612 1.126a5.606 5.606 0 002.02.387c.519 0 1.015-.066 1.479-.21a3.793 3.793 0 001.225-.63c.353-.275.63-.628.84-1.059.209-.42.32-.916.32-1.49 0-.519-.1-.95-.288-1.303a2.61 2.61 0 00-.75-.872 3.888 3.888 0 00-1.005-.551 17.655 17.655 0 00-1.06-.376 18.628 18.628 0 01-.827-.265 3.144 3.144 0 01-.64-.309 1.372 1.372 0 01-.409-.43 1.194 1.194 0 01-.155-.618c0-.254.056-.486.177-.663a1.44 1.44 0 01.442-.452 1.78 1.78 0 01.596-.254c.22-.055.441-.078.662-.078.364 0 .74.089 1.104.265.364.177.64.387.85.652l1.225-1.369zm-14.869 9.725h1.888V91.27l3.985-5.994h-2.186l-2.693 4.46-2.66-4.46h-2.308l3.985 5.994v4.592h-.01zm-15.111 0h1.887v-4.703h4.956v4.703h1.877V85.265h-1.887v4.283H14.98v-4.283h-1.876v10.597zm-7.86 0h1.888V86.91h3.245v-1.645H2v1.645h3.245v8.952z"/></g><defs><clipPath id="clip0"><path fill="#fff" transform="translate(2 85)" d="M0 0h196v30.897H0z"/></clipPath></defs></svg>