<svg version="1.1" id="Capa_1" xmlns="http://www.w3.org/2000/svg" x="0" y="0" viewBox="0 0 200 108" xml:space="preserve"><style>.st0{fill:#18528b}.st1{fill:#fff}.st2{fill:#385e81}</style><g id="a41ZW9_1_"><path class="st0" d="M74 53.9V2.8c0-.5.1-.6.6-.6h51c.5 0 .6.1.6.6v102.3c0 .5-.1.6-.6.6h-51c-.5 0-.6-.1-.6-.6V53.9zM110.7 11c0 .1.1.2.2.2.5.3.9.8 1.2 1.4.6 1.2 1 2.4 1.2 3.7.1.8.7.5 1.1.5.6 0 .3-.4.3-.7-.1-2.7-.3-5.5-.5-8.2v-.1s-.1 0-.1-.1c0-.2-.2-.2-.3-.2-.4.1-.8.1-1.2.1H83.3c-.3 0-.6-.1-.8.3-.1.3-.2.7.1 1l.1.1c.1 0 .2.1.3.1 1.4 0 2.7.3 4 .6 0 .2.1.3.4.3l.1.1c-.1.5.3.7.4 1.1.2.9.4 1.9.4 2.9V42c0 .3-.1.6.1.9 0 .6 0 1.2-.1 1.8-.3 1.7-1 2.4-2.7 2.8-1 .2-2 .2-3 .3-.4 1.1-.3 1.3.9 1.3h30.1c.3 0 .6.1.8-.2.6-.2.4-.8.5-1.2.2-.1.3-.3.3-.4.1-.7.4-1.3.6-2 .2-.5.5-1 .4-1.7.1-.1.1-.2.1-.4.1-.1.1-.2.1-.4.4-1.3.8-2.5 1.2-3.8 0-.1.3-.3-.1-.4-.5-.2-1 .1-1.3.5-1 1.7-2 3.3-3.3 4.7-1.3 1.4-2.9 2.4-4.8 2.6-.6-.1-1.3.1-1.9.1-3.3 0-6.6.1-9.9-.1-.8 0-1.5-.4-1.8-1.2-.3-.6-.2-1.2-.2-1.9V29.5c0-.6.2-.8.8-.8h7.2c1.8 0 3.6 0 5.3.7.3.5.6 1 1.1 1.3v.4c.3 1 .6 1.9.7 3 0 .2 0 .4.3.5.4.2.7.3 1.1-.1v-.1c.2-.2.1-.5.1-.7V20.5c0-.1 0-.2-.2-.3-.9-.3-1.1-.2-1.2.7-.1.8-.2 1.6-.5 2.4-.4 1.1-1.1 2-2.3 2.3-1 .1-2 .3-2.9.3H95c-.5 0-.7-.2-.7-.7V10.7c0-.5.2-.7.7-.7 4.8.1 9.7-.3 14.5.4.1.1.2.1.4.1.1.2.3.3.5.3.2.1.2.1.3.2zm14.5 43.5c-.2-.6-.7-.2-1-.2H75.1c-.2 0-.3 0-.4.2v.1c-.4.4-.1.8-.2 1.3v48.3c0 1.1 0 1.1 1.1 1.1h49.1c.2 0 .5.1.6-.3.2-.2.1-.5.1-.7V55.4c0-.4.1-.7-.2-.9z"/><path class="st1" d="M74.7 54.5v-.1h49.8c.3 0 .6-.1.8.1v50.4c-.2.1-.5.1-.7.1H75.2c-.3 0-.4-.1-.4-.4V55.3c0-.3 0-.5-.1-.8zm44.2 19.1c0 .1.1.1.1.2.1.1.1.2.2.2l.1.1c.1.1.1.2.2.3.2.3.4.5.6.8.4.5.9.7 1.7.3-.7 0-1-.4-1.3-.8-.2-.3-.4-.5-.6-.8 0-.1-.1-.3-.3-.4v-.1c.8-.3 1.1-.7 1.1-1.3-.1-.6-.5-1.1-1.3-1.1-.8-.1-1.5 0-2.3 0 .4.1.5.3.5.7v3.6c-.1 0-.1.1-.1.2-.1.2-.4-.2-.5.2.6 0 1.3.1 1.9-.2-.2 0-.4 0-.6-.1-.2-.5-.1-1.1 0-1.6v-1.9c0-.6.2-.8.8-.6.3.1.5.3.6.5v.7c-.1.3-.4.3-.6.6h-.1c-.2 0-.4 0-.4.2v.2c.2.1.2.1.3.1zm-9.6 23l-.1-.1c-.8-.5-1.6-.5-2.3 0-.1 0-.2.1-.3.2-.2.1-.4.3-.5.5-.1.1-.1.1-.1.3-.1.1-.1.2-.1.3-.2.3-.2.7-.1 1.1 0 1 .8 2.1 1.5 2.2.9.1 1.8.1 2.4-.6.6-.8.8-1.6.5-2.5 0-.2-.1-.4-.3-.6 0-.1-.1-.2-.2-.3 0-.1-.1-.1-.2-.1l-.1-.1c0-.3-.1-.3-.1-.3zM91.8 62.5s-.1-.1-.1-.2-.1-.1-.1-.2c-.3-.9-.2-1.7 0-2.6.4-.6.9-1 1.7-.9.8.1 1.1.7 1.5 1.2 0-.5 0-1-.1-1.5-.3.3-.5.2-.9.1-.9-.3-1.8-.2-2.5.5-1.2 1.2-1 3 .4 4 1.3.7 2.9.2 3-1.1-.7 1-1.5 1.3-2.5.8-.1-.1-.2-.1-.2-.2-.1.2-.2.1-.2.1zm27.9 34.6c0-.1 0-.2-.1-.2-.1-.3-.1-.5-.3-.7-.2.2-.3.4-.3.6-.4 1-.9 2-1.3 3-.2.5-.4.9-.8 1.2.5 0 .9.1 1.5 0-.3-.2-.7-.1-.5-.5.1-.4.1-.9.6-1 .5-.1 1.1-.1 1.6.1.1.1.1.3.2.4.1.3.3.7-.2 1 .6 0 1.2.1 1.9-.1-.6-.2-.8-.5-.9-.9-.3-.7-.6-1.3-.8-2 0-.1-.1-.2-.1-.3 0-.1 0-.3-.2-.4-.1 0-.2-.1-.3-.2zM111.2 75c0 .1.1.2.2.3l.1.1c1.1.7 2.3.6 3.1-.5.6-.9.7-1.8.2-2.8-.3-.9-1-1.2-1.9-1.3-.8-.1-1.6.2-2 1-.1.1-.2.2-.2.3-.4.9-.4 1.8.2 2.6.2.2.2.3.3.3zm-29.7-1.4l-.1-.1c-.2-.3-.6-.4-.9-.6-.5-.3-1-.4-1.2-.9 0-.4.2-.8.7-.8.9-.1 1.3.5 1.5 1.2.1-.5.1-1.1 0-1.6-.3.4-.5.2-.7.2-.9-.3-1.4-.1-1.9.6-.3.5-.2 1 .2 1.4.3.3.7.5 1 .7.4.2.9.5 1.1.9 0 .5-.2.8-.7.9-1 .1-1.4-.5-1.7-1.3-.1.5-.1 1 0 1.6.3-.3.6-.2.9-.1.7.2 1.3.2 1.8-.4.3-.4.5-.8.2-1.3 0-.2-.1-.3-.2-.4zm38.3-13.3c0-.1 0-.2-.1-.3-.3-.3-.2-.8-.5-1.2-.3-.4-.4-.2-.5.1-.5 1.1-1 2.2-1.4 3.3-.2.4-.3.8-.9.9.7.1 1.1.1 1.6 0-.5-.1-.5-.3-.4-.7.2-.5.4-.8 1.1-.7h.7c.6-.1.5.5.7.8.2.3 0 .5-.3.7h1.7c-.7-.2-.7-.9-1-1.4 0-.2-.1-.4-.3-.6-.1-.4-.3-.7-.4-.9zm-7.2 26.9c-.2-.6-.1-1.2-.1-1.8.2-.3.1-.7.4-1 .4-.4.9-.6 1.5-.5.6.1.9.6 1.2 1.1v-1.5c-.2.5-.5.4-.8.3-1.2-.5-2.4 0-2.9 1.1-.1.1-.1.1-.1.3-.5 1.1-.2 2 .6 2.9.7.6 1.6.7 2.4.4.5-.2.7-.5.8-.9-1.1.9-1.7.9-2.8.1 0-.2-.1-.4-.2-.5zM93.5 72.9c.3-.5.3-1-.1-1.4-1-.9-2.1-.4-3.2-.5.5.1.6.4.6.9v3.4c-.1.2-.4.1-.6.4h1.9c-.5 0-.6-.4-.7-.8v-1.4c.5 0 1.1.2 1.6-.1.3-.1.4-.2.5-.5zM87.3 61c-.4-.4-1-.6-1.5-.9-.1-.1-.2-.1-.2-.2-.2-.3-.5-.5-.3-.9.2-.3.4-.5.7-.5.6 0 .9.3 1.2.8.1.2.1.4.2.7.1-.7.1-1.2 0-1.8-.4.6-.7.1-1.1.1-.6-.1-1.2.1-1.5.6-.3.5-.3 1 .1 1.4.2.3.4.4.7.5.3.2.6.4.9.5.4.2.6.5.6 1-.7.8-1.5.7-2.3-.4-.2.4-.4.7.1.9.4.2.8.3 1.3.3 1.1 0 1.8-.8 1.4-1.8 0 0-.1-.2-.3-.3zm21.9 23c0 .1 0 .2.1.2 0 1.3 0 2.5-.1 3.8-.2.1-.4.2-.7.3h2.1c-.2-.1-.5-.2-.6-.4v-4c.1-.1.4 0 .5-.2h-1.9v.1c.3.1.5.1.6.2zM98.5 58.8c.2-.1.4-.2.7-.3-.8-.1-1.4-.1-2 0 .2.2.5.2.6.4v.2c0 1-.2 1.9.1 2.9 0 .2-.1.4.1.6.5.7 1.4 1 2.3.7.7-.2 1.1-.8 1.1-1.6v-1.3c0-.6-.3-1.4.6-1.8-.6 0-1-.1-1.6.1.6 0 .6.4.6.8v2c0 .6-.1 1.2-.7 1.4-.7.3-1.2.2-1.7-.4-.1-.2-.2-.4-.2-.6.2-.1.1-.3.1-.4v-2.7zm-10.8 41.7c-.1.3-.4.2-.6.4H89c-.5-.1-.6-.4-.6-.8v-3.6c.4-.1.8-.2 1.2 0 .2.1.3.3.4.5v2.9c0 .4 0 .8-.6 1 .5 0 1 .1 1.6-.1-.6 0-.6-.4-.6-.8v-2.7c.9 1.1 1.8 2.2 2.8 3.3 0 .2.1.4.3.3.2 0 .1-.3.1-.4v-3.3c0-.4-.1-.8.4-1.1h-1c.3.2.2.5.2.8v2.3c-.3.2-.3-.1-.4-.2-.8-1-1.6-2-2.5-3H87c.1.3.3.2.5.2 0 .1.1.2.1.3.1 1.5.1 2.8.1 4zm16.5.1c-.4.2-.7.3-1.1.1-.6-.2-.8-.7-1.1-1.2v1.6c.3-.3.6-.2.9-.1.6.2 1.1.2 1.6-.2.9-.7.7-1.8-.2-2.3-.4-.2-.8-.5-1.3-.7-.4-.2-.5-.4-.5-.8.2-.3.4-.6.8-.6.9 0 1.1.7 1.4 1.4.1-.7.1-1.2 0-1.7-.2.4-.5.2-.8.1-.9-.3-1.4-.1-1.8.6-.3.8-.1 1.3.7 1.8.6.3 1.2.6 1.6 1.2.1.3 0 .5-.2.8zm-25.7 0c0 .2-.2.2-.3.3h1.7c-.6-.2-.6-.2-.7-.6v-1c0-.2-.2-.4.1-.5.3-.1.5.1.7.3l.9 1.2c0 .1.1.2.2.3.1.4.4.4.7.4h3.9c.7 0 1-.4.9-1.4-.4 1.2-1.2 1.1-2 1.1-.4 0-.5-.2-.5-.6v-1.4l.1-.1c.6.2 1.4-.3 1.8.7v-1.6c-.4.7-.4.7-1.1.7h-.6c-.1 0-.1 0-.2-.1V97c0-.3.1-.5.5-.5.7.1 1.5-.2 1.8.8v-.8c0-.2-.1-.3-.3-.3h-3.3c.7.2.6.7.6 1.1v2.1c0 1.5 0 1.5-1.4 1.2-.4-.5-.7-1-1.1-1.5-.2-.3-.3-.4.1-.6.9-.5.9-1.6.1-2-.2-.1-.5-.1-.7-.2-.8-.3-1.5-.1-2.3-.1.4.1.7.3.6.8-.1 1.2-.1 2.4-.2 3.6zM107 88.2c.1 0 .1 0 .1-.1.6-.7.6-1.4-.2-2-.5-.4-1.1-.7-1.7-.9-.1-.4-.5-.9.2-1.2 1.1-.4 1.5.3 1.9 1.1v-1.5c-.4.2-.4.2-1.1 0-.6-.1-1.3.1-1.6.6-.3.5-.3.9.1 1.4.4.6 1.2.8 1.7 1.2.6.5.7.9.1 1.4-1.2.4-1.7-.3-2.1-1.2v1.8c.4-.5.7-.3 1-.3.6.1 1.1.1 1.6-.3zm-7.2-.5c-.3-.9-.2-1.8-.2-2.7 0-.5-.2-1.1.6-1.3h-1.8c.5.1.6.5.6 1v2c0 .5 0 1 .4 1.3.7.7 1.5.6 2.3.4.8-.2.9-.9 1-1.6V85c0-.5-.1-1 .6-1.2h-1.5c.6.2.6.6.6 1v1.8c0 .6-.1 1.1-.7 1.4-.6.3-1.2.3-1.7-.2-.1 0-.1-.1-.2-.1zm-2.9-3.6v-.2c.2 0 .4.1.5-.2-1.2-.1-1.2-.1-1.7 1-.4.9-.8 1.7-1.2 2.6-.5-1-.9-2-1.4-2.9-.4-.8-.8-.9-1.7-.6.6 0 .6.4.6.8v2.6c0 .5.1 1-.6 1.1.6.1 1.1.1 1.6 0-.7-.1-.7-.5-.7-1v-2.5c0-.1.1-.3.2-.1.1.2.1.4.2.6.5 1 .9 2 1.5 3.2.6-1.4 1.2-2.7 1.8-4 0 .1 0 .2.1.3v3.1c0 .1-.1.2-.1.2-.1.1-.4 0-.5.2h1.9c-.6 0-.6-.5-.6-.9v-2.5c.1-.2.1-.5.1-.8zm-12.6-.4c-.1 0-.3-.1-.4.1.1.1.3.1.4.1.2.2.2.5.2.8v3.1c0 .4-.4.4-.7.6 1 .1 2 0 3 .1.6 0 .9-.2.9-.9-.8.7-1.6.6-2.5.5v-.9c0-1.1.1-1.1 1.2-1 .4 0 .4.4.7.7v-1.7c-.3.6-1.1.9-1.6.7-.1 0-.2-.1-.2-.2v-1.4c0-.1.1-.2.2-.2h1.2c.5 0 .6.4.8.8.1-1.1.1-1.1-.8-1.1-.8-.2-1.5-.1-2.4-.1.1-.1.1 0 0 0zM112 96.5c.8.1 1.7-.3 2.1.8v-.7c0-.2-.1-.4-.3-.3h-3.3c.7.3.7.3.7 1v2.8c0 .4 0 .8-.6.9.6.1 1.3.1 1.9 0-.6-.1-.6-.5-.6-.9v-.5c0-.9.2-1 1-.8.4.1.4.4.6.7 0-.7.1-1.2-.1-1.7-.1.5-.4.6-.9.6h-.6c.1-.7.1-1.3.1-1.9zm-32.7-36v-1.7c.8 0 1.8-.5 2.3.7-.1-.4.3-1-.3-1-1.1-.1-2.2 0-3.3 0 .5.2.6.6.5 1v2.8c0 .4 0 .8-.6.8.1.1.1.1.2.1h2.8c.7 0 .9-.3.7-1.1-.4.7-1 .8-1.6.9-.7.1-.8 0-.8-.8v-1c0-.2 0-.3.2-.4.7-.2 1.3 0 1.6.6.1-.6.1-1.1-.1-1.6-.1.6-.5.7-1 .6-.1.1-.4.1-.6.1zm3.4 24.6c0-.2-.1-.4-.2-.5-.2-.5-.6-.7-1.1-.8-1-.3-2.1-.1-3.2-.1.7 0 .6.5.6 1v2.4c0 .5.2 1.1-.6 1.3.7.1 1.4.1 2 .1.2 0 .5 0 .7-.1 1.6-.3 2.4-1.7 1.8-3.3zm14-9.8v-.9c0-1.1.1-1.2 1.2-1 .4.1.4.4.7.7v-1.6c-.4.5-1.2.8-1.7.6-.1 0-.1-.1-.1-.2v-1.4c0-.2.2-.2.4-.2.7.1 1.5-.3 1.9.9.1-1.2.1-1.2-.8-1.2h-1.9c-.3 0-.5-.1-.9.2.6 0 .7.4.7.8v2.6c0 .5.1 1-.6 1.2 1 .1 2 .1 3 .1.7 0 1-.5.8-1.2-.7.9-.7.9-1.9.9-.4-.2-.6-.2-.8-.3zm23.9 11.2c-.3-.8-.7-1.6-1-2.4-.1-.2-.1-.3-.3-.3-.2 0-.2.2-.3.3-.5 1.1-.9 2.1-1.4 3.1-.2.4-.3.9-.9 1.1.7.1 1.1.1 1.5 0-.2-.2-.5-.1-.5-.5.1-.6.5-1 1.1-1h.6c.6-.1.7.4.9.8.3.5-.1.6-.4.8.8.1 1.4.1 1.9-.1-.4-.1-.6-.3-.8-.6-.1-.4-.3-.8-.4-1.2zm.9 5.5c0-.5-.4-.3-.6-.3H79c-.3 0-.3.2-.3.4s0 .4.2.4h42.3c.3-.1.1-.2.1-.4.2 0 .2 0 .2-.1zM78.9 80H121c.3 0 .6.1.6-.4s-.3-.4-.6-.4H79.4c-.7 0-.8.2-.5.8zm21.3-13.3H79.1c-.2 0-.3.1-.3.3-.1.6.4.5.7.5h41.7c.4 0 .6-.4.4-.7-.1-.3-.4-.1-.6-.1h-20.8zm7.9-7.2c-.1-.3.3-.9-.3-1-1.1-.1-2.1 0-3.2 0 .6.2.5.6.5 1.1v2.7c0 .3 0 .7-.3 1h2.5c.8 0 1.1-.3 1-1.2-.1 0-.1.1-.1.1-.5.7-1.5 1.1-2.2.7-.5-.3-.1-.9-.2-1.4v-.2c0-.3.1-.4.3-.4.6 0 1.2-.2 1.5.6 0-.5.1-1 0-1.6-.3.6-1.3.9-1.7.6-.1 0-.1-.1-.1-.2v-1.4c0-.1.1-.2.2-.2.7-.2 1.7.1 2.1.8zM83.7 70.9c.5.2.5.6.5 1v2.2c0 1.1.7 1.6 1.9 1.6 1.1 0 1.8-.6 1.8-1.6v-2.2c0-.5 0-.8.5-1H87c.5.1.6.5.6.9V74c-.1.9-.6 1.4-1.5 1.3-.8 0-1.1-.5-1.1-1.4V72c0-.5-.1-1 .5-1.2-.6.1-1.2.1-1.8.1zm15.6 30c-.4-.2-.6-.5-.7-.8-.5-1.2-1-2.3-1.4-3.5-.1-.2-.1-.4-.4-.5-.5 1.2-1.1 2.4-1.6 3.7-.2.4-.3.9-.9 1.1.8.1 1 .1 1.5 0-.2-.2-.5-.1-.5-.5.1-.6.5-1 1.1-1h.6c.6-.1.6.4.8.7.2.3.1.6-.3.8.7.1 1.2.1 1.8 0zm1.6-30c.7.4.7.4.7 1.1v2.5c0 .5 0 1-.6 1.2h1.9c-.6-.2-.6-.6-.6-1.1V74c0-.2-.1-.4.1-.5.3-.1.4.1.6.3.3.5.7.9 1 1.4.4.5.9.6 1.6.3-1.1-.3-1.4-1.4-2.1-2.1.1-.1.2-.1.3-.1.7-.3.9-.7.8-1.3-.1-.6-.5-.9-1.1-1-.8-.1-1.7-.1-2.6-.1zm13.7 25.3c.6.1.6.6.6 1v2.7c0 .4 0 .8-.6 1h1.8c-.5-.1-.6-.5-.6-.9v-2.7c0-.5 0-.9.6-1.1h-1.8zm.2-34.3c-.3 1.1-1.2 1-2 1-.4 0-.6-.2-.6-.6V60c0-.6-.3-1.3.7-1.5H111c.5.2.5.6.5 1v2.7c0 .4 0 .8-.6.9 1.2.1 2.3.1 3.4.1.1 0 .3 0 .3-.2 0-.3.2-.7.2-1.1zM107 75.7h1.9c-.6-.1-.6-.5-.6-1v-2.6c0-.5-.1-1 .7-1.1-.7-.1-1.5-.1-2 0 .5.3.6.3.6 1v2.7c0 .4 0 .8-.6 1zm9.4 19c-.9-.1-1 0-1.1 1.3.3-.5.7-.8 1.1-1.3zm-15.8-11.2c.4-.5.7-.9 1.1-1.3-.9-.1-.9 0-1.1 1.3zm13.6-75.7c.2 2.7.3 5.5.5 8.2 0 .2.3.7-.3.7-.4 0-.9.3-1.1-.5-.2-1.3-.6-2.6-1.2-3.7-.3-.5-.6-1-1.2-1.4-.1-.1-.2-.1-.2-.2-.1 0-.1-.1-.2-.1-.1-.2-.3-.2-.5-.3-.1-.2-.3-.1-.4-.1-.8-.4-1.7-.5-2.6-.5H94.7c-.5 0-.5.2-.5.6v15c0 .5.1.6.6.6h8.9c1.1 0 2.1 0 3.1-.5 1.2-.3 1.9-1.2 2.3-2.3.3-.8.4-1.6.5-2.4.1-.9.3-1.1 1.2-.7v14.2c-.4 0-.7 0-1.1.1-.1-.2-.1-.4-.1-.6-.2-1.1-.3-2.2-.8-3.2-.2-.6-.6-1-1.1-1.3-.9-.7-1.9-.8-3-.9-3.3-.2-6.5 0-9.8-.1-.5 0-.6.2-.6.7v14.3c0 2.5.7 3.2 3.2 3.2h8.8c.7 0 1.4 0 2.1-.2 1.9-.2 3.5-1.2 4.8-2.6 1.3-1.4 2.3-3.1 3.3-4.7.3-.4.8-.7 1.3-.5.3.1.1.3.1.4-.4 1.3-.8 2.5-1.2 3.8-.1.1-.1.3-.1.4-.1.1-.1.2-.1.4-.5 1.3-1 2.7-1.4 4.1-.2.4-.3.8-.5 1.2H83.8c-1.1 0-1.1 0-1.1-1.1 1-.1 2-.1 3-.3 1.6-.3 2.4-1.1 2.7-2.8.1-.6.2-1.2.1-1.8V13.3c0-1.1-.1-2.2-.9-3.1l-.1-.1c-.1-.2-.2-.3-.4-.3-.1-.2-.4-.3-.6-.3-1.2-.4-2.5-.5-3.7-.4l-.1-.1c.1-1.1.1-1.1 1.1-1.1h30.3c0-.2 0-.1.1-.1-.1 0-.1 0 0 0z"/><path class="st2" d="M74.7 54.5v50.1c0 .3.1.4.4.4h49.4c.2 0 .5.1.7-.1-.1.3-.3.3-.6.3H75.5c-1.1 0-1.1 0-1.1-1.1V55.8c.2-.5 0-.9.3-1.3zm33.6-8.1c-.7.2-1.4.2-2.1.2h-8.8c-2.5 0-3.2-.7-3.2-3.2V29.1c0-.5.1-.7.6-.7 3.3.1 6.5-.1 9.8.1 1 .1 2.1.2 3 .9-1.7-.7-3.5-.7-5.3-.7h-7.2c-.6 0-.8.2-.8.8v13.8c0 .6-.1 1.3.2 1.9.4.8 1 1.1 1.8 1.2 3.3.2 6.6.1 9.9.1.9-.1 1.5-.2 2.1-.1zm-25.7 1.3c.1 1.1.1 1.1 1.1 1.1h30.8c-.2.4-.5.2-.8.2H83.6c-1.3 0-1.4-.2-1-1.3zm42.7 6.8c-.2-.2-.5-.1-.8-.1H74.7c.1-.2.3-.2.4-.2h49.1c.4.1.9-.3 1.1.3z"/><path class="st2" d="M125.3 104.8V54.4c.2.2.2.5.2.7V104c-.1.4 0 .6-.2.8zm-18.5-79.1c-1 .4-2.1.5-3.1.5h-8.9c-.5 0-.6-.1-.6-.6v-15c0-.4 0-.6.5-.6H107c.9 0 1.8 0 2.6.5-4.8-.7-9.7-.2-14.5-.4-.5 0-.7.2-.7.7v14.5c0 .5.2.7.7.7h8.8c1 .1 2-.1 2.9-.3zM87.5 10.1c.8.9.8 2 .9 3.1.1 1.5 0 3 0 4.5v25.1c-.2-.3-.1-.6-.1-.9V14c0-1-.1-1.9-.4-2.9-.1-.3-.6-.5-.4-1zM114 7.7H83.7c-1.1 0-1.1 0-1.1 1.1-.4-.3-.2-.6-.1-1 .1-.3.5-.3.8-.3h29.3c.4 0 .8 0 1.2-.1.1.1.2.1.2.3zm-3.1 26.8V20.4c.2 0 .2.1.2.3v13.2c-.1.1-.1.4-.2.6zM82.6 8.9c1.3 0 2.5 0 3.7.4.2.1.4.1.6.3-1.3-.4-2.6-.6-4-.6-.1 0-.2-.1-.3-.1zm32.3 38.7c.4-1.4.9-2.7 1.4-4.1.1.6-.2 1.1-.4 1.7-.2.7-.5 1.3-.6 2-.1.1-.2.3-.4.4zm-6.1-16.8c.6 1 .7 2.1.8 3.2 0 .2 0 .4.1.6-.3-.1-.3-.3-.3-.5-.1-1-.3-2-.7-3 .1-.1.1-.2.1-.3zm-1.2-1.4c.5.3.9.8 1.1 1.3-.4-.3-.8-.7-1.1-1.3zm6.8 19.4c.2-.4.2-.8.5-1.2-.1.4.1 1-.5 1.2zm-4.6-14.2c.4 0 .7 0 1.1-.1-.4.4-.8.3-1.1.1zm.2-24c.2 0 .4.1.5.3-.2 0-.4 0-.5-.3zm-23.1-.9c.2 0 .3.2.4.3-.2 0-.3-.1-.4-.3zm29.4 33.8c0-.1 0-.3.1-.4 0 .2 0 .3-.1.4zm.1-.4c0-.1 0-.3.1-.4 0 .2 0 .3-.1.4zm-6.8-32.6c.1 0 .3 0 .4.1-.1.1-.3 0-.4-.1zm1.1.5c.1.1.2.1.2.2-.1-.1-.2-.1-.2-.2zm-23.3-1l.1.1c-.1 0-.1-.1-.1-.1zm23.1.9c.1 0 .1.1.2.1-.1-.1-.1-.1-.2-.1zm3.7-3.1c-.1 0-.1 0 0 0z"/><path class="st0" d="M79.1 80h-.2c-.1-.7.3-.7.8-.7h40.7c.3 0 .9-.2.9.3s-.6.3-.9.3H80.2c-.3 0-.7-.1-1.1.1zm42.4 12v.2c-.3.3-.6.2-1 .2H79.6c-.2 0-.5.1-.5-.2 0-.3.3-.2.5-.2h41.1c.2-.1.5-.1.8 0z"/><path class="st2" d="M100.2 66.7h20.7c.2 0 .5-.1.6.1.2.3 0 .6-.4.7H79.4c-.3 0-.7.1-.7-.5 0-.2.1-.3.3-.3h21.2zm.1.6h20.1c.3 0 1 .2 1-.2 0-.5-.6-.3-1-.3H79.9c-.3 0-.8-.2-.8.3 0 .4.5.2.8.2h20.4zM121.5 92c-.3-.1-.6-.1-.9-.1H79.5c-.2 0-.5-.1-.5.2 0 .3.3.2.5.2h40.9c.3 0 .7.1 1-.2.1.1.2.3-.1.4H79c-.3 0-.2-.2-.2-.4s0-.4.3-.4H121c.1.1.5-.2.5.3zM79.1 80c.4-.2.7-.1 1.1-.1h40.2c.3 0 .9.2.9-.3s-.6-.3-.9-.3H79.7c-.5 0-1 0-.8.7-.3-.6-.2-.8.4-.8h41.6c.3 0 .6-.1.6.4s-.3.4-.6.4H79.1zm29-20.5c-.4-.6-1.4-.9-2.1-.7-.1 0-.2.1-.2.2v1.4c0 .1 0 .2.1.2.4.3 1.4-.1 1.7-.6.1.6 0 1.1 0 1.6-.3-.8-.9-.6-1.5-.6-.3 0-.4.1-.3.4v.2c.1.5-.3 1.1.2 1.4.7.4 1.7-.1 2.2-.7l.1-.1c.1.9-.2 1.2-1 1.2h-2.5c.3-.3.3-.6.3-1v-2.7c0-.4.1-.9-.5-1.1 1.1 0 2.2-.1 3.2 0 .6-.1.2.5.3.9zM83.7 70.9h1.8c-.7.2-.5.7-.5 1.2V74c0 .9.4 1.4 1.1 1.4.8 0 1.4-.4 1.5-1.3v-2.2c0-.4-.1-.8-.6-.9h1.4c-.5.2-.5.6-.5 1v2.2c0 1.1-.7 1.6-1.8 1.6-1.2 0-1.8-.5-1.9-1.6V72c0-.5 0-.9-.5-1.1zm15.6 30c-.6.1-1.2.1-1.8 0 .5-.1.5-.4.3-.8-.2-.3-.2-.8-.8-.7h-.6c-.7 0-1 .3-1.1 1-.1.4.3.3.5.5-.4.1-.7.1-1.5 0 .5-.2.7-.7.9-1.1.5-1.2 1-2.4 1.6-3.7.3.1.3.3.4.5.5 1.1 1 2.3 1.4 3.5.1.3.3.6.7.8zm-1.9-1.8c-.3-.6-.5-1.1-.7-1.8-.3.7-.5 1.2-.8 1.8h1.5zm3.5-28.2c1 0 1.8-.1 2.6.1.6.1 1 .4 1.1 1 .1.6-.1 1-.8 1.3-.1 0-.1.1-.3.1.7.7 1 1.8 2.1 2.1-.7.3-1.2.2-1.6-.3-.3-.5-.7-.9-1-1.4-.1-.2-.3-.4-.6-.3-.3.1-.1.4-.1.5v.6c0 .5 0 .9.6 1.1H101c.6-.2.6-.7.6-1.2V72c0-.7 0-.7-.7-1.1zm2.8.8l-.2-.2c-.3-.3-.7-.3-1.1-.2-.4.1-.1.5-.2.8v.8c0 .4.2.4.5.4.9-.2 1.1-.6 1-1.6.5.4.1.9.1 1.3.9-.4.7-1.2.3-1.5-.3-.3-.4-.1-.4.2zm-1.7-.3h-.2v3.7c0 .1 0 .2.2.2s.2-.1.2-.3v-.9c-.2-.8-.2-1.7-.2-2.7z"/><path class="st0" d="M110.1 97.8c.3.9.1 1.8-.5 2.5-.7.8-1.5.8-2.4.6-.8-.1-1.5-1.2-1.5-2.2.1-.4.2-.7.1-1.1 0-.1.1-.2.1-.3.1-.1.1-.1.1-.3.2-.1.4-.3.5-.5.1 0 .2-.1.3-.2.1.1.3.1.4.2-.5.4-.6 1-.7 1.6-.2.3-.2.5 0 .8 0 .1 0 .2.1.3-.1.1-.1.3.1.4 0 .1.1.1.1.2.3.6.7.9 1.3.9.7 0 1-.4 1.2-1 .3-1 .3-2-.2-2.9.1-.1-.2-.4.1-.4l.1.1.1.1.1.1c.1 0 .1.1.2.1 0 .1.1.2.2.3 0 .4 0 .6.2.7z"/><path class="st2" d="M96.1 84.6c-.6 1.3-1.1 2.5-1.8 4-.5-1.2-1-2.2-1.5-3.2.3 0 .4.2.5.5 0 .1.1.2.2.2s.2-.2.1-.2c-.4-.6-.5-1.2-.9-1.8-.1-.1-.2-.2-.4-.1s-.2.3-.1.4c.1.2.1.4.2.6v2.5c0 .5 0 .9.7 1-.6.2-1.1.1-1.6 0 .7-.1.6-.6.6-1.1v-2.6c0-.4 0-.8-.6-.8.9-.4 1.3-.2 1.7.6.4.9.9 1.9 1.4 2.9.4-.9.8-1.8 1.2-2.6.5-1 .5-1 1.7-1-.1.3-.3.2-.5.2-.7-.4-.8-.4-.9.5z"/><path class="st0" d="M80.9 100.3l-.9-1.2c-.2-.2-.4-.4-.7-.3-.3.1 0 .3-.1.5v1c-.2.7-.2.7-.7.3.2-.1.2-.2.2-.4v-3.1c0-.2-.1-.4.1-.6.2-.1.4 0 .6.1-.1 0-.2 0-.2.1 0 .6-.2 1.2.1 1.7 1 .2 1.5-.3 1.5-1.2 0-.6-.5-.6-.8-.8.1 0 .2-.1.4-.1.2.1.5.1.7.2.8.4.8 1.5-.1 2-.4.2-.3.3-.1.6.4.5.7 1 1.1 1.5-.3.5-.5-.1-.8-.1-.1-.1-.2-.2-.3-.2z"/><path class="st2" d="M81.1 100.6c.3 0 .5.6.8.1 1.4.3 1.4.3 1.4-1.2v-2.1c0-.5.1-.9-.6-1.1H86c.2 0 .3.1.3.3v.8c-.3-1-1.1-.8-1.8-.8-.4 0-.5.2-.5.5v1.3c-.4-.5-.1-1-.2-1.5 0-.2 0-.4-.2-.4-.3 0-.2.2-.2.4 0 1.2.1 2.3 0 3.5 0 .2 0 .5.2.5.3 0 .2-.2.2-.4.1-.5-.2-1.1.1-1.6v1.4c0 .4.1.6.5.6.8 0 1.7.1 2-1.1.1 1-.2 1.4-.9 1.4h-3.9c-.2-.2-.4-.3-.5-.6zM121 87.7c.2.3.4.5.8.6-.5.2-1.2.2-1.9.1.3-.2.7-.3.4-.8-.2-.4-.2-.9-.9-.8h-.6c-.6 0-1 .4-1.1 1 0 .4.3.3.5.5-.4.2-.8.2-1.5 0 .5-.2.7-.7.9-1.1.5-1.1.9-2.1 1.4-3.1.1-.1.1-.3.3-.3.2 0 .3.2.3.3.3.8.7 1.6 1 2.4l-.1.1c-.2-.1-.1-.5-.4-.3-.2.2-.1.4 0 .5.1.2.2.3.4.4v.5c0 .2 0 .4.2.4.3 0 .3-.2.3-.4zm-1.9-2.9c-.2.2-.3.5-.4.7-.5 1.1-.4 1.1.7 1 .3 0 .3-.1.2-.4-.1-.4-.3-.8-.5-1.3zm-22.4-9.5h.6c1.2 0 1.2 0 1.9-.9.2.7-.1 1.2-.8 1.2-1 0-2 0-3-.1.7-.2.6-.7.6-1.2v-2.6c0-.4 0-.7-.7-.8.4-.2.7-.1.9-.2h1.9c.9 0 .9 0 .8 1.2-.3-1.2-1.2-.9-1.9-.9-.2 0-.4 0-.4.2v1.4c0 .1 0 .1.1.2.5.2 1.4-.1 1.7-.6v1.6c-.3-.3-.3-.6-.7-.7-1.1-.2-1.2-.1-1.2 1 .2.6.2.9.2 1.2-.2-.2-.2-.5-.2-.8v-3c0-.2 0-.4-.3-.4s-.2.3-.2.4V75c0 .2 0 .4.2.5.2.1.4 0 .5-.2zm-14 9.8c.6 1.6-.2 3-1.9 3.3-.2 0-.4.1-.7.1-.7 0-1.3 0-2-.1.8-.2.6-.8.6-1.3v-2.4c0-.4.1-.9-.6-1 1.1 0 2.2-.2 3.2.1.5.1.9.4 1.1.8-.2-.2-.4-.4-.7-.5-.3-.2-.4-.1-.4.2-.4-.4-.9-.5-1.5-.4-.3 0-.4.1-.4.4v3.3c0 .3.1.4.4.4.8.1 1.5-.2 2-.9 0 .1-.1.3.1.4.1 0 .2-.1.3-.2.6-.6.6-1.4.5-2.2zm-3.3.9v-1.7c0-.2.1-.5-.2-.5-.3 0-.2.3-.2.5 0 1.2.2 2.4 0 3.6 0 .2 0 .3.3.3.2 0 .2-.2.2-.3-.1-.6-.1-1.2-.1-1.9zm-.1-25.5h.8c.5 0 .9 0 1-.6.1.5.1 1 .1 1.6-.4-.6-1-.8-1.6-.6-.2.1-.2.2-.2.4v1c0 .7.1.8.8.8.6-.1 1.2-.2 1.6-.9.1.8 0 1.1-.7 1.1h-2.8s-.1 0-.2-.1c.6 0 .6-.4.6-.8v-2.8c0-.4 0-.8-.5-1 1.1 0 2.2-.1 3.3 0 .6.1.2.6.3 1-.5-1.2-1.5-.7-2.3-.7 0-.3-.2-.2-.3-.2-.2 0-.3.2-.3.4v3.5c0 .2 0 .4.2.4.3 0 .2-.3.2-.4-.2-.7-.3-1.4 0-2.1-.1.1 0 0 0 0z"/><path class="st0" d="M90 97c-.1-.2-.2-.3-.4-.5.2-.1.5-.2.7-.2.8 1 1.6 2 2.5 3 .1.1.1.4.4.2.2.4.4.9-.1 1.2-.9-1.1-1.8-2.2-2.8-3.3-.4.2.1.8-.3 1V97c0 .1.1 0 0 0z"/><path class="st2" d="M114.6 96.2h1.8c-.6.2-.6.6-.6 1.1v2.7c0 .4 0 .8.6.9h-1.8c.5-.1.6-.5.6-1v-2.7c0-.4 0-.8-.6-1zm.2-34.3c.1.5-.1.8-.2 1.2 0 .1-.2.2-.3.2-1.1 0-2.2 0-3.4-.1.6-.1.6-.5.6-.9v-2.7c0-.4 0-.8-.5-1h1.9c-.9.2-.7.9-.7 1.5v2.3c0 .4.1.6.6.6.8-.1 1.6 0 2-1.1zm-3.2-.9v1.5c0 .2-.1.5.2.5.3 0 .2-.3.2-.4 0-1.1.2-2.2 0-3.4 0-.2.3-.5-.1-.5-.4-.1-.4.3-.4.6.1.5.1 1.1.1 1.7zM107 75.7c.6-.1.6-.5.6-.9v-2.7c0-.7 0-.7-.6-1 .5-.1 1.2-.1 2 0-.8.1-.7.6-.7 1.1v2.6c0 .4 0 .8.6 1-.6-.1-1.3-.1-1.9-.1zm5 22.6h.6c.4 0 .8-.1.9-.6.1.5.1 1 .1 1.7-.2-.4-.2-.7-.6-.7-.8-.1-1 0-1 .8v.5c0 .4 0 .8.6.9-.6.1-1.3.1-1.9 0 .6-.1.6-.4.6-.9v-2.8c0-.7 0-.7-.7-1h3.3c.3 0 .3.1.3.3v.7c-.4-1.1-1.4-.7-2.1-.8-.3-.1-.6-.2-.6.3v3.6c0 .3.2.5.5.5-.1-.8-.3-1.7 0-2.5zm8.4-36.5c.3.4.3 1.1 1 1.4h-1.7c.3-.1.5-.4.3-.7-.2-.3-.1-.9-.7-.8h-.7c-.6-.1-.9.2-1.1.7-.1.4-.1.6.4.7-.5.1-.9.1-1.6 0 .6-.2.8-.6.9-.9.5-1.1 1-2.2 1.4-3.3v.7c-.1.2-.2.4-.2.6-.1.4-.6.8-.3 1.1.3.4.9.1 1.3.1.2.1.3.3.4.5.3.4.5.2.6-.1zm.2.9c0-.1-.1-.2-.2-.3-.1 0-.2.1-.2.2s0 .3.2.3c.1.1.2 0 .2-.2zm-.9 9.1c-.2-.2-.3-.5-.6-.5-.6-.1-.8 0-.8.6v1.9c-.2 0-.1-.2-.1-.3-.1-.8-.1-1.6-.1-2.5-.3.2-.3.5-.3.7V74c0 .4.1.9-.2 1.3v-3.6c0-.4-.2-.6-.5-.7h2.3c.8.1 1.3.5 1.3 1.1.1.6-.3 1-1.1 1.3l-.3-.3c.1-.3.5-.3.6-.6 0 .1-.1.3.1.4.1.1.2-.1.3-.2.4-.7.2-1.1-.6-1.5v.6c.1 0 0 0 0 0z"/><path class="st0" d="M104.4 99.8c-.4-.6-1-.8-1.6-1.2-.8-.5-1.1-1-.7-1.8.2 0 .3.1.4.2 0 .4.1.6.5.8.4.2.9.5 1.3.7.9.5 1 1.6.2 2.3-.1 0-.2-.1-.3-.2.4-.2.5-.4.2-.8zm15.2-2.9c0 .1.1.2.1.2 0 .1 0 .3.1.4 0 .2 0 .3.2.4 0 .1 0 .2.1.3.3.7.6 1.3.8 2 .2.4.3.7.9.9-.7.1-1.2.1-1.9.1.5-.3.3-.7.2-1 0-.2 0-.3-.2-.4 0-.2-.1-.3-.2-.4-.2-.6-.4-1.2-.8-1.7V97c.4-.6.5-.3.7-.1zM81.2 74.6c-.2-.5-.7-.7-1.1-.9-.4-.2-.7-.4-1-.7-.4-.4-.5-.9-.2-1.4.3.1.2.4.4.5.3.5.8.7 1.2.9.3.2.6.3.9.6l.1.1c0 .2.1.3.3.4.1.4-.1.9-.2 1.3-.4-.2-.3-.6-.4-.8z"/><path class="st2" d="M98.6 62.5c.5.5 1.1.6 1.7.4.6-.3.8-.8.7-1.4v-2c0-.4 0-.8-.6-.8.5-.2 1-.1 1.6-.1-.9.4-.6 1.2-.6 1.8v1.3c0 .9-.4 1.4-1.1 1.6-1 .3-1.9 0-2.3-.7.2-.1.5.4.6-.1z"/><path class="st0" d="M105.2 85.2c.6.2 1.2.5 1.7.9.8.6.8 1.3.2 2l-.1.1c-.1-.1-.4.3-.5-.1.6-.5.5-.9-.1-1.4-.6-.4-1.3-.6-1.7-1.2 0-.3-.2-.5 0-.8.2.1.3.5.5.5z"/><path class="st2" d="M84.4 83.7h2.3c.9 0 .9 0 .8 1.1-.2-.4-.3-.8-.8-.8h-1.2c-.1 0-.2.1-.2.2v1.4c0 .1.1.2.2.2.5.2 1.3-.1 1.6-.7v1.7c-.2-.3-.2-.6-.7-.7-1.1-.1-1.2-.1-1.2 1v.4c-.2-.2-.2-.4-.1-.6.2-.8-.1-1.6 0-2.4 0-.5-.1-.8-.7-.8zm15.5 4.1c.5.4 1.1.5 1.7.2.6-.3.6-.9.7-1.4v-1.8c0-.5 0-.9-.6-1h1.5c-.7.2-.6.7-.6 1.2v1.8c0 .7-.2 1.4-1 1.6-.8.3-1.7.3-2.3-.4l.1-.1c.2.2.4.1.5-.1z"/><path class="st0" d="M91.6 63c-1.4-1-1.6-2.7-.4-4h.4c0 .2-.1.3-.1.5-.4.7-.4 2.1 0 2.6 0 .1.1.1.1.2s.1.2.2.2l.1.1c0 .1.1.2.2.2 0 .1.2.2.2.4-.3-.1-.5-.2-.7-.2zm18.5 20.9c0 .1-.1.1 0 0-.4.5-.2 1.1-.2 1.7 0 .8-.2 1.6.1 2.4-.2.6-.5.3-.8.1 0-1.3 0-2.5.1-3.8.1-.1.2-.2-.1-.2.3-.5.6-.1.9-.2z"/><path class="st2" d="M119 96.7v.7c-.2.5-.4 1.1-.7 1.7h1.5c.1.1.2.2.2.4-.5-.2-1.1-.1-1.6-.1s-.5.6-.6 1c-.1.3.3.3.5.5-.5.2-1 0-1.5 0 .5-.3.6-.8.8-1.2.5-1 1-2 1.4-3z"/><path class="st0" d="M84.4 83.7c.5 0 .7.3.7.9-.1.8.1 1.6 0 2.4 0 .2 0 .4.1.6v.5c-.1.2-.2.4-.5.3-.3-.1-.2-.3-.2-.5v-3.1c0-.3 0-.6-.2-.8 0-.2 0-.3.1-.3 0 0 0-.1 0 0zm4 12.8v.3c-.1.2-.1.5-.1.7v2.8c0 .2 0 .4-.2.4-.2.1-.3-.1-.4-.3.2-1.2.2-2.5 0-3.7 0-.1-.1-.2-.1-.3.2-.1.5-.1.8.1zm23.6 1.8c-.3.8-.1 1.6-.1 2.5-.3 0-.5-.1-.5-.5v-3.6c0-.5.3-.4.6-.3v1.9zm.4-10.3c-.8-.8-1-1.8-.6-2.9 0-.1.1-.2.1-.3.2-.1.3-.3.5-.4.1-.1.3-.3.4 0-.3.3-.2.7-.4 1-.2.6-.3 1.3.1 1.8 0 .2.1.3.2.4.1.2 0 .3-.3.4zm-16.3-3.4c.1-.9.2-.9.8-.7v.2c-.2.3-.4.6 0 .9v.2c-.2.1-.2.3-.2.5.1.6.1 1.3.1 1.9 0 .6-.1.7-.7.5 0-.1.1-.2.1-.2.2-1 .2-2 0-3.1 0 0-.1-.1-.1-.2z"/><path class="st2" d="M84.9 60.4c-.5-.4-.4-1-.1-1.4.4-.5.9-.7 1.5-.6.3 0 .7.5 1.1-.1.1.6.1 1.2 0 1.8-.1-.3-.2-.5-.2-.7-.2-.5-.6-.8-1.2-.8-.3 0-.6.2-.7.5-.2.4.1.6.3.9-.3.2-.3 0-.4-.2-.1-.2-.1-.4-.3-.5-.2.4 0 .7 0 1.1zm8.1 13c-.5.3-1 .2-1.6.1-.2-.2-.2-.4-.2-.6v-1.1c0-.2.1-.6-.2-.6-.3 0-.2.4-.2.6v2c0 .4.1.9-.1 1.3v-3.2c0-.4-.1-.7-.6-.9 1.1.1 2.3-.4 3.2.5l-.1.1c-.2-.1-.4-.3-.7-.3 0 .1.1.3.1.4-.1-.1-.2-.1-.2-.2-.3-.2-.6-.3-.9-.1-.3.1-.1.4-.1.7v.7c-.1.5.2.6.6.6.3 0 .5-.2.7-.4 0 .1 0 .3.3.4z"/><path class="st0" d="M111.6 75.4l-.1-.1c0-.1-.1-.2-.3-.3 0-.1-.1-.2-.2-.2-.3-.9-.4-1.7-.2-2.6.1-.1.2-.2.2-.3.2 0 .6-.5.6.2-.1.1-.1.2-.1.3-.1.9-.1 1.7.2 2.5 0 .1.2.4-.1.5z"/><path class="st2" d="M105.2 85.2c-.3 0-.3-.4-.5-.5-.2.3 0 .5 0 .8-.4-.4-.3-.9-.1-1.4.3-.5 1-.7 1.6-.6.7.2.7.2 1.1 0V85c-.4-.8-.8-1.6-1.9-1.1-.6.4-.3.9-.2 1.3z"/><path class="st0" d="M84 98.7c-.3.5-.1 1.1-.1 1.6 0 .2.1.5-.2.4-.3 0-.3-.2-.2-.5.1-1.2.1-2.3 0-3.5 0-.1-.1-.4.2-.4.2 0 .2.2.2.4.1.5-.2 1.1.2 1.5.1 0 .1 0 .2.1 0 .1-.1.2-.1.2l-.2.2zm14.6-36.2c-.2.5-.4 0-.6.1-.2-.2-.1-.4-.1-.6 0-1 .1-1.9-.1-2.9v-.2c.2-.5.5-.2.8-.1-.2.1-.2.3-.2.5 0 .9-.1 1.7.1 2.6 0 .2.1.4.1.6zm-7.9 12.6c.2-.4.1-.9.1-1.3v-2c0-.2-.1-.6.2-.6.3 0 .2.4.2.6v1.1c0 .2 0 .5.2.6v1.4c-.1 0-.2.1-.2.2 0 .5-.2.3-.5.2v-.2zm27.9-15.5v-.7c.1-.3.2-.6.5-.1.3.4.2.8.5 1.2 0 .1 0 .2.1.3 0 .4 0 .7.4.9 0 .2 0 .5.3.6-.1.3-.3.5-.5.1-.1-.2-.3-.3-.4-.5-.1-.3-.2-.5-.2-.8 0-.1-.1-.1-.1-.2 0-.3 0-.5-.3-.7l-.1-.1h-.2zm-33.7.8c-.1-.4-.2-.7 0-1.1.2.1.2.3.3.5.1.2.1.4.4.2.1.1.2.1.2.2.4.4.8.8 1.5.9 0 .2.2.4.4.5 0 .3-.1.6-.2.9-.1.2-.2.3-.4 0 .3-.3.2-.5 0-.8-.4-.5-.8-.8-1.4-.8-.1-.4-.5-.4-.8-.5z"/><path class="st2" d="M99.4 88c-.4-.4-.4-.9-.4-1.3v-2c0-.4 0-.8-.6-1h1.8c-.7.2-.6.8-.6 1.3 0 .9-.1 1.8.2 2.7-.4-.2-.3-.5-.3-.9v-2.5c0-.1.1-.4-.2-.4-.2 0-.2.2-.2.3.1 1.3-.1 2.5.3 3.8 0-.1 0 0 0 0zM79.3 72c-.2-.1-.1-.4-.4-.5.5-.7 1-.8 1.9-.6.3.1.5.2.7-.2.1.6.1 1.1 0 1.6-.3-.7-.6-1.4-1.5-1.2-.5.1-.7.4-.7.9zm12.2-12.4c0-.2.1-.3.1-.5h-.4c.7-.7 1.5-.9 2.5-.5.3.1.6.2.9-.1 0 .5 0 1 .1 1.5-.4-.5-.7-1.1-1.5-1.2-.8-.2-1.3.2-1.7.8zm21.4 24.8c-.1-.3-.3-.1-.4 0-.2.1-.3.4-.5.4.5-1.1 1.7-1.6 2.9-1.1.3.1.5.2.8-.3v1.5c-.4-.5-.6-1-1.2-1.1-.7 0-1.2.2-1.6.6zm-10.4 12.7c-.1-.2-.2-.2-.4-.2.4-.7 1-.9 1.8-.6.3.1.5.3.8-.1.1.5.1 1.1 0 1.7-.3-.7-.5-1.4-1.4-1.4-.4 0-.6.2-.8.6zm-9.3 3.6c.5-.4.3-.8.1-1.2v-2.3c0-.3.1-.6-.2-.8h1c-.4.3-.4.7-.4 1.1v3.3c0 .1.1.4-.1.4-.3-.2-.4-.3-.4-.5z"/><path class="st0" d="M117.5 75.3c.3-.4.2-.8.2-1.3v-2.3c0-.2-.1-.5.3-.7 0 .9 0 1.7.1 2.5 0 .1 0 .2.1.3-.1.5-.2 1.1 0 1.6-.3.2-.6.2-.9 0 .1 0 .2 0 .2-.1z"/><path class="st2" d="M81.2 74.6c0 .3 0 .6.3.7-.5.6-1.2.6-1.8.4-.3-.1-.6-.2-.9.1-.1-.6-.1-1.1 0-1.6.3.8.8 1.4 1.7 1.3.5-.1.7-.4.7-.9zm30.4-2.6c0-.7-.4-.2-.6-.2.5-.8 1.2-1.1 2-1 .9.1 1.6.4 1.9 1.3h-.1l-.4-.4c-.3-.3-.3 0-.3.2-.8-1.1-1.7-1.1-2.5.1z"/><path class="st0" d="M99.4 87.9c-.5-1.2-.3-2.4-.3-3.7 0-.1 0-.3.2-.3.3 0 .2.2.2.4v2.5c0 .3 0 .7.3.9l.1.1c-.1.2-.3.3-.5.1z"/><path class="st2" d="M84.6 87.8c.1.2-.1.4.2.5.2.1.4-.1.5-.3.9.2 1.7.2 2.5-.5 0 .7-.2 1-.9.9-1-.1-2 0-3-.1.3-.1.6-.2.7-.5zm2.5-25.3c.1.2.3.2.4 0 .1-.3.2-.6.2-.9.3 1-.3 1.8-1.4 1.8-.5 0-.9-.1-1.3-.3-.5-.2-.3-.6-.1-.9.7 1 1.5 1.1 2.2.3zM90 98.4c.4-.2 0-.8.3-1v2.7c0 .4 0 .8.6.8-.5.2-1 .1-1.6.1.6-.1.6-.5.6-1 .1-.6.1-1.1.1-1.6zm16.5-10.3c.1.4.3 0 .5.1-.5.4-1.1.4-1.6.2-.3-.1-.7-.3-1 .3v-1.8c.4.8 1 1.6 2.1 1.2zm13.3-14.2c.2.3.4.5.6.8.3.4.6.8 1.3.8-.8.4-1.3.3-1.7-.3-.2-.3-.4-.5-.6-.8.5.1.4-.2.4-.5zM79.4 96.6c-.2-.2-.4-.3-.6-.1-.2.1-.1.4-.1.6v3.1c0 .2 0 .3-.2.4v-3.5c0-.5-.2-.6-.6-.8.8 0 1.6-.2 2.3.1-.1 0-.2.1-.4.1-.1 0-.2 0-.4.1zm33-8.6c.2 0 .4-.1.4-.4 1 .8 1.7.8 2.8-.1 0 .4-.3.7-.8.9-.8.3-1.6.2-2.4-.4zm-8.2 12.6c0 .1.1.2.3.2-.5.4-1.1.3-1.6.2-.3-.1-.6-.2-.9.1v-1.6c.3.5.5 1 1.1 1.2.4.1.8.1 1.1-.1z"/><path class="st0" d="M92.5 84.9c-.1-.2-.1-.4-.2-.6 0-.2-.1-.3.1-.4.2-.1.3 0 .4.1.3.6.5 1.3.9 1.8.1.1 0 .2-.1.2s-.2-.1-.2-.2c0-.3-.2-.4-.5-.5-.1-.2-.1-.4-.2-.6-.2-.2-.2.1-.2.2z"/><path class="st2" d="M111.6 75.4c.3-.1.1-.3.1-.5.7.8 1.3.9 2.2.3.3.2.5-.2.7-.3h.1c-.8 1-2 1.2-3.1.5zM91.6 63c.2 0 .4.1.6.1.1-.2-.1-.2-.2-.4 1 .4 1.9.2 2.5-.8 0 1.3-1.6 1.8-2.9 1.1zm-7.5 35.6c0-.1.1-.2.1-.2h.6c.7 0 .7 0 1.1-.7v1.6c-.3-1-1.2-.5-1.8-.7zm3.6 2c.1.1.2.4.4.3.2-.1.2-.3.2-.4v-2.8c0-.2 0-.5.1-.7v3.3c0 .4 0 .8.6.8h-1.9c.2-.4.4-.3.6-.5zM96 88.2c.6.2.7.1.7-.5s0-1.3-.1-1.9c0-.2-.1-.4.2-.5v2.3c0 .4 0 .8.6.9h-1.9c.2-.4.4-.3.5-.3zm13.1 8.3c-.4 0-.1.3-.1.4-.5-.5-1.2-.6-1.8-.3-.1 0-.3-.1-.4-.2.8-.4 1.5-.4 2.3.1zm7.3-1.8c-.4.5-.7.8-1.1 1.3.1-1.2.2-1.4 1.1-1.3zm-18-32.8c-.2-.8-.1-1.7-.1-2.6 0-.2.1-.4.2-.5v2.6c0 .2.1.4-.1.5zm-7.7 13.4c.2.2.5.3.5-.2 0-.1 0-.2.2-.2.1.4.2.7.7.8h-1.9c.1-.3.4-.2.5-.4z"/><path class="st0" d="M119.8 73.9c.1.3.2.6-.3.6 0-.1-.1-.2-.2-.3l-.1-.1c0-.1-.1-.2-.2-.2 0-.1-.1-.1-.1-.2l-.1-.1v-.2c.2 0 .3-.1.4-.2h.1c.1 0 .3.1.3.3v.1c-.2.1 0 .2.2.3z"/><path class="st2" d="M100.6 83.5c.2-1.3.2-1.4 1.1-1.3-.3.4-.7.8-1.1 1.3zm-12.2 13c-.3-.2-.6-.2-.9 0-.2 0-.4 0-.5-.2h3.3c-.2.1-.5.2-.7.2-.4-.2-.8-.1-1.2 0zm-9.9 4.1c.5.4.6.4.7-.3.2.4.2.4.7.6h-1.7c.1-.1.3-.1.3-.3zm36.4-28.5c.5 1 .4 1.9-.2 2.8h-.1c.4-.9.6-1.8.3-2.8 0 .1 0 .1 0 0zM85.7 60.9c.6 0 1.1.3 1.4.8.2.2.3.5 0 .8.1-.5-.2-.8-.6-1-.3-.2-.5-.4-.8-.6zm23.5 27.2c.3.2.6.5.8-.1.1.2.4.3.6.4h-2.1c.4-.2.6-.3.7-.3zM98.5 58.8c-.3-.1-.6-.4-.8.1-.1-.2-.4-.2-.6-.4.7-.1 1.3-.1 2 0l-.6.3zM110 87.9c-.3-.8-.1-1.6-.1-2.4 0-.5-.2-1.1.2-1.6-.1 1.4-.1 2.7-.1 4zm.1-4c-.3 0-.6-.3-.9.1-.2-.1-.4-.2-.6-.2v-.1h1.9c0 .2-.3.1-.4.2zM87.7 96.8c.2 1.2.2 2.5 0 3.7v-3.7zm23.2-24.6c-.2.9-.1 1.8.2 2.6-.6-.8-.7-1.7-.2-2.6zm6.5 3.3c.3.1.6.1.9 0 .2 0 .4 0 .6.1-.6.3-1.3.2-1.9.2 0-.5.3-.1.4-.3zm-21.2 9.4c.2 1 .2 2 0 3.1v-3.1zm-4.7-22.8c-.4-.5-.5-1.8 0-2.6-.2.9-.3 1.8 0 2.6zM87.3 61c-.6 0-1.1-.5-1.5-.9.5.3 1.1.5 1.5.9zm10.5-1.9c.2.9.1 1.9.1 2.9-.3-1-.1-2-.1-2.9zm-18.5-.3v1.7c-.4-.5-.3-1.1 0-1.7zm14.1 12.7c.4.5.4.9.1 1.4h-.1c.2-.5.1-.9 0-1.4-.1 0 0 0 0 0zm19.2 15.7c-.5-.6-.3-1.2-.1-1.8 0 .6-.1 1.2.1 1.8zm8-.7c.2.4.3.8.5 1.1h-.1c-.2-.1-.2-.5-.5-.5 0-.1 0-.3.1-.6-.1.1-.1.1 0 0zm-1 10.4c-.2-.1-.3-.5-.6-.1 0-.2.1-.4.3-.6.2.1.3.4.3.7zM81.5 75.3c.1-.4.3-.8.2-1.3.3.5.2.9-.2 1.3zM85 60.4c.3.1.7.1.7.5-.3-.1-.6-.2-.7-.5zM96.9 85c-.3-.3-.2-.6 0-.9v.9zm23.2-23.8c-.3-.2-.4-.5-.4-.9.2.2.4.5.4.9zm-14.3 36.5c.1.4-.1.7-.1 1.1-.1-.4-.1-.8.1-1.1zm-1.4 2.1c.2.3.2.6-.2.7.2-.2.3-.4.2-.7zM93.5 72.9c-.1.2-.2.4-.5.5v-.1c.1-.1.3-.3.5-.4zm-9.2 10.8v.2c-.2 0-.3 0-.4-.1.1-.2.3-.2.4-.1zm22.2 13c-.1.3-.2.4-.5.5.1-.2.3-.4.5-.5zm13.9-34.9c-.2-.1-.3-.4-.3-.6.2.1.2.3.3.6zm-32.7-.3c-.2-.1-.3-.3-.4-.5.2.1.3.3.4.5zm22.4 36.3c-.2-.2-.3-.4-.3-.6.2.2.3.4.3.6zm9.6-25.3v-.7h.1c.1.2.1.5-.1.7.1 0 0 0 0 0zm.1 1.4c-.1-.1-.3-.1-.3-.4.1.1.2.2.3.4zm-.7-.8c-.1.1-.2.2-.4.2.1-.2.3-.1.4-.2zM82.5 84.6c.2.1.2.3.2.5-.1-.1-.2-.3-.2-.5z"/><path class="st2" d="M112.8 87.6c-.2-.1-.3-.2-.2-.4.1.1.2.3.2.4zM81.7 74c-.2-.1-.2-.2-.3-.4.2.1.3.2.3.4zM120 99.5c.2.1.2.2.2.4 0-.1-.1-.3-.2-.4zM109.2 84c.2 0 .2.1.1.2 0 0 0-.1-.1-.2zm10.6-23.7c-.1-.1-.1-.2-.1-.3 0 .1.1.2.1.3zm-13 36.2c-.1.1-.2.2-.3.2.1-.1.1-.2.3-.2zm4.2-24.7c0 .1 0 .2-.2.3.1-.1.2-.2.2-.3zm.2 3.2c.1 0 .2.1.3.3-.2-.1-.2-.2-.3-.3zm8-.9c.1 0 .2.1.2.3-.1-.1-.1-.2-.2-.3zm-38.3 26.2c.1.1.2.2.2.3-.1-.1-.2-.2-.2-.3zm39.1-2.5c-.1-.1-.2-.2-.2-.4.2.1.2.3.2.4zm-10.1-.6c-.1-.1-.2-.2-.2-.3.1.1.1.2.2.3z"/><path class="st2" d="M119.9 97.5c-.1-.1-.2-.2-.1-.4 0 .1.1.2.1.4zm.3.6c-.1-.1-.1-.2-.1-.3 0 .1 0 .2.1.3zM92.1 62.8c-.1 0-.2-.1-.2-.2.1 0 .1.1.2.2zm18.9 12c.1 0 .2.1.2.2-.1 0-.1-.1-.2-.2zm1 10c0 .1-.1.2-.1.3-.1-.1 0-.2.1-.3zm7-11c.1 0 .2.1.2.2l-.2-.2zM91.8 62.5c-.1 0-.2-.1-.2-.2.1 0 .1.1.2.2zm14.1 34.9c0 .1-.1.2-.1.3 0-.1 0-.2.1-.3zm.1-.2c0 .1 0 .2-.1.3 0-.2 0-.2.1-.3zm13.7-.1c0-.1-.1-.1-.1-.2.1 0 .1.1.1.2zm-29.6.4v.1c-.1-.1-.1-.1 0-.1zM90 97c.1 0 0 .1 0 0zm19.7-.1c-.1 0-.1-.1-.2-.1.1 0 .1.1.2.1zm-.2-.1l-.1-.1.1.1zm-.1-.1l-.1-.1s.1 0 .1.1zm-.1-.1l-.1-.1s0 .1.1.1zM90 98c.1 0 .1 0 0 0zm28.8-24.5l.1.1c-.1 0-.1 0-.1-.1zM107 88.2l.1-.1c0 .1 0 .1-.1.1zM91.6 62.3c0-.1-.1-.1-.1-.2 0 .1.1.1.1.2zm.3.3l-.1-.1.1.1zm-10.4 11l-.1-.1s0 .1.1.1zm37.6.4l.1.1-.1-.1zm-.2-.4c0 .1.1.1.1.2-.1-.1-.1-.1-.1-.2z"/><path class="st0" d="M100.3 67.3H79.9c-.3 0-.8.2-.8-.2 0-.5.5-.3.8-.3h40.5c.3 0 1-.2 1 .3 0 .4-.6.2-1 .2h-20.1z"/><path class="st1" d="M97.4 99.1h-1.5c.2-.6.5-1.1.8-1.8.2.7.5 1.2.7 1.8zm6.3-27.4c.2 1-.1 1.4-1 1.5-.3 0-.5 0-.5-.4V72c0-.3-.2-.6.2-.8.4-.1.8-.1 1.1.2.1.2.1.2.2.3z"/><path class="st0" d="M102 71.4c0 .9.1 1.9.1 2.8v.9c0 .1 0 .3-.2.3-.1 0-.2-.1-.2-.2v-3.7c.1-.1.2-.1.3-.1zm1.7.3c0-.3.1-.4.4-.2.4.3.6 1.1-.3 1.5 0-.4.4-.9-.1-1.3z"/><path class="st1" d="M107.2 96.6c.7-.3 1.3-.3 1.8.3.5.9.6 1.9.2 2.9-.2.6-.6 1-1.2 1-.7 0-1.1-.3-1.3-.9 0-.1-.1-.1-.1-.2s0-.3-.1-.4c0-.1 0-.2-.1-.3v-.8c.2-.6.3-1.2.8-1.6z"/><path class="st2" d="M106.4 98.2v.8c-.2-.2-.2-.5 0-.8zm.1 1.1c0 .1 0 .3.1.4-.2-.1-.2-.3-.1-.4z"/><path class="st1" d="M79.4 96.6c.2 0 .3-.1.5-.1.3.2.8.3.8.8.1.9-.5 1.3-1.5 1.2 0-.6.1-1.2-.1-1.7.1-.2.2-.2.3-.2z"/><path class="st2" d="M79.2 96.7c.2.6.1 1.2.1 1.7-.3-.5-.1-1.1-.1-1.7z"/><path class="st1" d="M119.1 84.8c.2.5.4.9.6 1.4.1.3.1.3-.2.4-1.2.1-1.2.1-.7-1 0-.3.1-.6.3-.8z"/><path class="st0" d="M120.5 86.6v.6c-.2 0-.3-.2-.4-.4-.1-.2-.3-.4 0-.5.3-.2.2.2.4.3zm0 .6c.3 0 .2.4.5.5 0 .2 0 .4-.2.4-.3 0-.2-.3-.2-.4-.1-.2-.1-.3-.1-.5zM96.7 75.3c-.1.2-.3.3-.5.2-.2 0-.2-.3-.2-.4v-3.5c0-.2-.1-.4.2-.4.2 0 .3.2.3.4v3c0 .2 0 .5.2.7z"/><path class="st1" d="M81.8 87.2c-.5.7-1.1 1-2 .9-.3 0-.4-.1-.4-.4v-3.3c0-.3.1-.4.4-.4.6-.1 1 0 1.5.4.9.8.9 1.8.5 2.8z"/><path class="st0" d="M79.4 86v1.9c0 .1 0 .3-.2.3s-.3-.2-.3-.3c.2-1.2 0-2.4 0-3.6 0-.2-.1-.5.2-.5.3 0 .2.3.2.5.1.6.1 1.2.1 1.7zm3-1.3c.1.2.2.3.3.5.1.8.1 1.6-.4 2.2-.1.1-.2.2-.3.2-.2-.1-.1-.2-.1-.4.4-.5.5-1.6.2-2.3-.1-.3-.3-.6-.7-.5 0-.3.2-.4.4-.2.2.1.4.3.6.5zm-3.1-25.9c-.2.6-.4 1.2 0 1.8-.2.6-.2 1.3-.1 1.9 0 .2.1.4-.2.4-.3 0-.2-.2-.2-.4V59c0-.2 0-.4.3-.4 0 0 .2-.1.2.2zm32.3 2.2v-1.8c0-.3 0-.6.4-.6.4.1 0 .4.1.5.2 1.1-.1 2.2 0 3.4 0 .2.1.5-.2.4-.3 0-.2-.3-.2-.5-.1-.4-.1-.9-.1-1.4zm.3 39.8s-.1 0 0 0z"/><path class="st1" d="M118.6 59.6h.1l.1.1c0 .2.1.5.3.7 0 .1.1.1.1.2.1.3.2.5.2.8-.5 0-1 .3-1.3-.1-.3-.3.2-.7.3-1.1.1-.2.2-.4.2-.6z"/><path class="st0" d="M120.6 62.7c0 .1-.1.2-.2.2-.2 0-.2-.2-.2-.3 0-.1.1-.2.2-.2.1.1.2.2.2.3zm-.8 9.8c.1-.3.1-.5 0-.8-.1-.2-.1-.3-.2-.5.8.4.9.8.6 1.5-.1.1-.1.2-.3.2-.2-.1-.1-.2-.1-.4z"/><path class="st1" d="M119.8 99.1h-1.5c.2-.6.5-1.2.7-1.7.4.5.7 1.1.8 1.7zM92.7 72.9c-.2.2-.4.4-.7.4-.4 0-.7-.1-.6-.6V72c0-.2-.1-.5.1-.7.3-.1.6-.1.9.1.1.1.2.1.2.2.1.3.1.6.1 1 .1.1 0 .2 0 .3z"/><path class="st0" d="M92.7 72.9c0-.1.1-.2.1-.3.2-.4.2-.7-.1-1 0-.1-.1-.3-.1-.4.3 0 .5.1.7.3.2.4.3.9.1 1.3l-.5.5c-.2 0-.2-.2-.2-.4zm-.1-1.6z"/><path class="st1" d="M113.9 75.1c-.9.6-1.5.5-2.2-.3-.4-.8-.4-1.7-.2-2.5.1-.1.1-.2.1-.3.8-1.2 1.7-1.2 2.6-.1.3.8.3 1.6.1 2.4-.1.3-.3.5-.4.8z"/><path class="st2" d="M111.6 72c0 .1 0 .2-.1.3 0-.1 0-.2.1-.3zm7.5-11.6c-.2-.2-.2-.4-.3-.7.3.1.3.4.3.7zm-.2-.7l-.1-.1s0 .1.1.1zm.3.9c0-.1-.1-.1-.1-.2.1.1.1.1.1.2z"/><path class="st0" d="M91.6 59.1V59v.1zm22.3 16c.1-.3.3-.5.4-.8.4-.6.3-1.8-.1-2.4.1-.1.1-.4.3-.2l.4.4c.3.9.1 1.8-.2 2.7-.3.1-.4.5-.8.3z"/><path class="st2" d="M81.4 84.4c.4 0 .5.3.7.5.4.7.3 1.8-.2 2.3.3-1 .3-2-.5-2.8zm11.3-12.7c.4.3.3.6.1 1 0-.4 0-.7-.1-1zm21.5.2c.5.6.6 1.8.1 2.4.2-.8.1-1.6-.1-2.4z"/></g></svg>