<svg width="200" height="200" fill="none" xmlns="http://www.w3.org/2000/svg"><path fill="#fff" d="M0 0h200v200H0z"/><g clip-path="url(#clip0)" fill="#000"><path d="M30.317 117.292a4.998 4.998 0 01-1.34 3.758 5.015 5.015 0 01-3.662 1.582 4.559 4.559 0 01-3.44-1.438v1.25h-1.25v-14.593h1.25v5.852a4.577 4.577 0 013.565-1.538 4.79 4.79 0 014.877 5.127zm-1.251 0a3.75 3.75 0 00-3.751-4.026 4.132 4.132 0 00-3.44 1.75v4.74a4.208 4.208 0 003.49 1.725 3.752 3.752 0 003.751-4.139l-.05-.05zm12.23-4.939l-4.59 11.104c-.8 1.926-1.975 2.939-3.676 2.939a4.105 4.105 0 01-1.688-.35v-1.251c.504.257 1.06.394 1.626.4a2.496 2.496 0 002.5-1.65l.438-1.101-4.289-10.141h1.388l3.501 8.653 3.464-8.653 1.326.05zm11.629 10.479a6.988 6.988 0 01-4.639-1.676v-3.013a7.619 7.619 0 004.852 2.088c1.25 0 2.413-.488 2.413-1.688 0-1.201-1.375-1.551-2.763-1.951-2.263-.638-4.802-1.476-4.802-4.452s2.5-4.389 5.215-4.389a7.274 7.274 0 013.851 1.101v2.738a7.502 7.502 0 00-3.877-1.25c-1.4 0-2.5.6-2.5 1.763 0 1.163 1.325 1.563 3.113 2.063 2.039.55 4.414 1.251 4.414 4.164 0 2.914-2.563 4.502-5.277 4.502zm7.341-14.081a1.686 1.686 0 01.995-1.602 1.693 1.693 0 011.858.32 1.687 1.687 0 01-1.153 2.908 1.586 1.586 0 01-1.7-1.626zm.375 13.693v-10.466h2.5v10.466h-2.5zm15.331-6.365v6.365H73.47v-6.14a2.137 2.137 0 00-2.389-2.15 2.672 2.672 0 00-2.238 1.05v7.24h-2.5v-10.466h2.413v.963a4.04 4.04 0 012.963-1.176 4.004 4.004 0 014.252 4.314zm13.105-1.738h-2.4a2.131 2.131 0 01.75 1.763c0 2.501-2.302 3.202-3.852 3.514-1.55.313-2.326.25-2.326.863s.888.7 1.563.713h1.063c1.4 0 4.352.175 4.352 2.776 0 2.388-2.501 3.389-5.352 3.389-2.852 0-4.852-.888-4.852-2.814 0-1.175.8-2.113 2.4-2.426a1.848 1.848 0 01-1.45-1.6c0-.751.513-1.251 1.25-1.451a3.517 3.517 0 01-1.6-3.101c0-2.501 1.95-4.027 4.752-4.027h5.665l.037 2.401zm-8.753 9.879c0 .913 1.125 1.25 2.663 1.25 1.538 0 2.814-.262 2.814-1.25s-1.088-.988-2.726-.988c-1.639 0-2.726.013-2.726 1.038l-.025-.05zm4.739-8.178a2.036 2.036 0 00-2.032-1.879 2.035 2.035 0 00-2.032 1.879 2.038 2.038 0 004.064 0zm15.218-4.064v10.466h-2.376v-.963a4.285 4.285 0 01-3.038 1.151 4.055 4.055 0 01-3.066-1.221 4.068 4.068 0 01-1.148-3.093v-6.34h2.5v6.14a2.212 2.212 0 002.364 2.151 2.909 2.909 0 002.25-1.001v-7.29h2.514zm3.089 10.466v-14.593h2.501v14.593h-2.501zm13.655 0h-2.401v-1.413c-.369.516-.86.932-1.43 1.211-.57.28-1.199.414-1.833.39a2.75 2.75 0 01-3.102-2.889c0-2.676 2.664-3.038 4.84-3.601.763-.188 1.425-.388 1.425-1.101 0-.712-.9-1.075-1.85-1.075a5.99 5.99 0 00-3.752 1.363v-2.313a6.713 6.713 0 013.964-1.251c2.576 0 4.152 1.251 4.152 3.401l-.013 7.278zm-2.501-4.877c-.408.159-.826.293-1.25.401-1.526.412-2.501.637-2.501 1.663 0 .6.35.95 1.25.95a2.304 2.304 0 001.754-.603 2.305 2.305 0 00.747-1.698v-.713zm11.93-5.552v2.401a4.973 4.973 0 00-1.25-.162 2.993 2.993 0 00-2.589 1.25v6.915h-2.501v-10.441h2.301v1.25a3.244 3.244 0 012.851-1.375c.401.015.798.069 1.188.162zm17.369 6.24c0 2.501-2.05 4.189-4.864 4.189h-5.577v-14.368h5.439a3.61 3.61 0 013.683 2.197c.199.472.295.98.282 1.492a3.296 3.296 0 01-1.489 2.951 3.6 3.6 0 012.526 3.539zm-7.803-4.489h2.151c1.126 0 1.913-.613 1.913-1.626s-.7-1.538-1.813-1.538h-2.251v3.164zm5.165 4.252c0-1.088-.913-1.751-2.201-1.751h-2.964v3.751h2.776c1.439-.1 2.389-.9 2.389-2zm13.155 4.426h-2.413v-1.413a3.836 3.836 0 01-3.264 1.601 2.748 2.748 0 01-2.23-.715 2.752 2.752 0 01-.871-2.174c0-2.676 2.676-3.038 4.851-3.601.751-.188 1.414-.388 1.414-1.101 0-.712-.901-1.075-1.851-1.075a5.931 5.931 0 00-3.752 1.363v-2.313a6.683 6.683 0 013.964-1.251c2.501 0 4.139 1.251 4.139 3.401l.013 7.278zm-2.501-4.877c-.408.159-.826.293-1.25.401-1.526.412-2.501.637-2.501 1.663 0 .6.35.95 1.25.95a2.309 2.309 0 002.305-1.374c.129-.292.195-.608.196-.927v-.713zm15.156-1.488v6.365h-2.501v-6.14a2.136 2.136 0 00-2.376-2.15 2.674 2.674 0 00-2.238 1.05v7.24h-2.501v-10.466h2.401v.963a4.027 4.027 0 011.386-.895 4.035 4.035 0 011.627-.268 4.008 4.008 0 013.973 2.629c.194.535.272 1.105.229 1.672zm8.016 1.051l5.001 5.314h-3.288l-4.214-4.551v4.551h-2.501v-14.593h2.501v8.503l4.064-4.376h3.263l-4.826 5.152zM29.204 101.386a12.992 12.992 0 01-8.579-3.139v-5.614a14.13 14.13 0 009.016 3.901c2.326 0 4.502-.925 4.502-3.139 0-2.213-2.5-2.9-5.152-3.626-4.202-1.188-8.941-2.751-8.941-8.29 0-5.54 4.627-8.179 9.704-8.179 2.522.006 4.992.72 7.128 2.064v5.139a14.03 14.03 0 00-7.216-2.3c-2.6 0-4.664 1.112-4.664 3.288 0 2.413 2.501 2.901 5.815 3.826 3.751 1.026 8.203 2.326 8.203 7.753 0 5.603-4.852 8.316-9.816 8.316zm31.099-8.716h-13.33c.15 2.564 2.751 4.277 5.915 4.277a12.618 12.618 0 006.878-2.364v4.202a12.902 12.902 0 01-7.503 2.213c-6.065 0-10.004-4.051-10.004-10.154 0-6.102 3.926-10.003 9.466-10.003 5.352 0 8.566 3.663 8.566 9.59l.012 2.24zm-13.292-3.514h8.753a3.825 3.825 0 00-4.014-4.164 4.464 4.464 0 00-4.74 4.164zm17.681 11.505v-27.16h4.702v27.16h-4.702zm23.46-22.771a7.428 7.428 0 00-3.314-.838c-1.988 0-3.476.987-3.476 3.126v1h5.877v4.39h-5.877v15.093h-4.715V85.567h-4.014v-4.389h4.014v-1.075c0-4.602 3.514-7.103 7.528-7.103 1.373.005 2.732.277 4.002.8l-.025 4.09zm23.096 14.968c0 4.551-3.751 7.803-9.053 7.803h-10.38V73.913h10.092c4.314 0 7.378 2.6 7.378 6.84a6.14 6.14 0 01-2.751 5.502 6.68 6.68 0 014.714 6.603zm-14.505-8.366h4.001c2.101 0 3.551-1.138 3.551-3.014 0-1.875-1.25-2.863-3.351-2.863h-4.201v5.877zm9.578 7.803c0-2.026-1.675-3.251-4.089-3.251h-5.49v6.915h5.165c2.664 0 4.414-1.488 4.414-3.664zm24.485 8.366h-4.464V98.01a7.161 7.161 0 01-6.078 2.976c-3.814 0-5.765-2.213-5.765-5.39 0-5.002 5.002-5.652 9.016-6.677 1.413-.35 2.639-.726 2.639-2.064 0-1.563-1.688-1.988-3.439-1.988-2.548.007-5.016.89-6.99 2.501v-4.201a12.43 12.43 0 017.365-2.377c4.777 0 7.716 2.376 7.716 6.34v13.531zm-4.69-9.091c-.75.302-1.518.556-2.3.763-2.827.762-4.69 1.175-4.69 3.088 0 1.113.638 1.763 2.326 1.763a4.313 4.313 0 004.664-4.276V91.57zm28.224-2.751v11.842h-4.702V89.256c0-2.5-1.901-4.001-4.427-4.001a4.998 4.998 0 00-4.164 1.938v13.468h-4.702V81.178h4.477v1.826a7.5 7.5 0 015.615-2.176c4.389-.038 7.903 2.676 7.903 7.99zm14.893 1.938l9.279 9.904h-6.102l-7.841-8.491v8.491h-4.689v-27.16h4.689v15.755l7.503-8.128h6.115l-8.954 9.629z"/></g><defs><clipPath id="clip0"><path fill="#fff" transform="translate(20 73)" d="M0 0h160v54.396H0z"/></clipPath></defs></svg>