<svg width="200" height="73" xmlns="http://www.w3.org/2000/svg"><g id="Page-1" stroke="none" stroke-width="1" fill="none" fill-rule="evenodd"><g id="museo-de-arte-contemporaneo-de-barcelona-macba-vector-logo" fill-rule="nonzero"><path d="M89.251 41.464c0-2.03-.832-3.228-3.128-3.228h-2.03l-.1.1v6.29l.1.1h2.03c2.296-.034 3.128-1.232 3.128-3.262m-1.298 0c0 1.498-.465 2.13-1.763 2.13h-.832l-.1-.1v-4.06l.1-.1h.832c1.298 0 1.763.666 1.763 2.13m7.688 3.162v-.932l-.1-.1h-3.062l-.1-.1V42.03l.1-.1h2.862l.1-.1v-.93l-.1-.1H92.48l-.1-.1v-1.3l.1-.1h3.062l.1-.1v-.931l-.1-.1h-4.326l-.1.1v6.29l.1.099h4.326l.1-.033zm10.25-1.664c0-.832-.367-1.398-1.099-1.564v-.133c.632-.2.932-.733.932-1.398 0-1.198-.932-1.664-1.83-1.664h-2.962l-.1.1v6.29l.1.1h3.128c.898 0 1.83-.467 1.83-1.731m-1.497-2.895c0 .366-.2.732-.732.732h-1.465l-.1-.1V39.4l.1-.1h1.465c.565.033.732.3.732.766m.2 2.695c0 .566-.267.832-.932.832h-1.465l-.1-.1V42.03l.1-.1h1.465c.665 0 .931.266.931.832m8.12 1.864v-.932l-2.13-5.358-.1-.1h-1.197l-.1.1-2.13 5.358v.932l.1.1h.832l.1-.1.465-1.198.2-.1h2.296l.2.1.466 1.198.1.1h.832l.066-.1zm-1.93-2.53l-.1.1h-1.564l-.1-.1.832-2.23h.1l.832 2.23zm8.952-1.93c0-1.297-.932-1.93-2.23-1.93h-3.028l-.1.1v6.29l.1.1h1.098l.1-.1V42.23l.1-.1h.931l.2.1 1.864 2.396.2.1h.565l.1-.1v-.932l-1.198-1.564v-.1c.665-.2 1.298-.832 1.298-1.864m-1.298 0c0 .633-.366.832-.932.832h-1.764l-.1-.1v-1.464l.1-.1h1.764c.566 0 .932.2.932.832m5.923 3.528c-1.297 0-1.863-.932-1.863-2.23s.566-2.23 1.863-2.23c.733 0 1.198.267 1.398.833l.1.1h1.098l.1-.1c-.2-1.198-1.198-1.93-2.696-1.93-2.03 0-3.128 1.397-3.128 3.327s1.098 3.328 3.128 3.328c1.465 0 2.496-.732 2.696-2.03l-.1-.1h-1.098l-.1.1c-.2.632-.665.932-1.398.932m9.052.932v-.932l-.1-.1h-3.061l-.1-.1V42.03l.1-.1h2.861l.1-.1v-.93l-.1-.1h-2.861l-.1-.1v-1.3l.1-.1h3.061l.1-.1v-.931l-.1-.1h-4.36l-.1.1v6.29l.1.099h4.36l.1-.033zm6.39 0v-.932l-.1-.1h-2.862l-.1-.1v-5.158l-.1-.1h-1.098l-.1.1v6.29l.1.1h4.16l.1-.1zm6.023-3.162c0 1.298-.633 2.23-1.864 2.23-1.198 0-1.83-.932-1.83-2.23s.632-2.23 1.83-2.23 1.864.932 1.864 2.23m1.264 0c0-1.93-1.198-3.328-3.161-3.328-1.93 0-3.128 1.398-3.128 3.328s1.198 3.328 3.128 3.328c1.963 0 3.161-1.398 3.161-3.328m1.864-3.128v6.29l.1.1h1.098l.1-.1v-4.26h.1l2.495 4.26.2.1h1.298l.1-.1v-6.29l-.1-.1h-1.098l-.1.1v4.26h-.1l-2.496-4.26-.166-.1h-1.298l-.133.1zm12.745 6.29v-.932l-2.13-5.358-.1-.1h-1.197l-.1.1-2.13 5.358v.932l.1.1h.832l.1-.1.465-1.198.2-.1h2.296l.167.1.466 1.198.1.1h.831l.1-.1zm-1.93-2.53l-.1.1h-1.564l-.1-.1.832-2.23h.1l.832 2.23zM89.251 30.649c0-2.03-.832-3.228-3.128-3.228h-2.03l-.1.1v6.29l.1.1h2.03c2.296-.034 3.128-1.232 3.128-3.262m-1.298 0c0 1.464-.465 2.13-1.763 2.13h-.832l-.1-.1v-4.06l.1-.1h.832c1.298 0 1.763.632 1.763 2.13m4.526-1.864v-1.297l-.1-.1h-1.297l-.1.1v1.198l.1.1h.266l.1.1v.099l-.566.932v.2h.566l.2-.1.731-.932.1-.3zm6.49 4.992v-.932l-2.13-5.357-.1-.1H95.54l-.1.1-2.13 5.357v.932l.1.1h.832l.1-.1.466-1.198.2-.1h2.295l.2.1.466 1.198.1.1h.832l.066-.1zm-1.964-2.496l-.1.1h-1.564l-.1-.1.832-2.23h.1l.832 2.23zm8.985-1.93c0-1.298-.932-1.93-2.23-1.93h-3.06l-.1.1v6.29l.1.1h1.098l.1-.1v-2.397l.1-.1h.931l.2.1 1.864 2.396.2.1h.565l.1-.1v-.931l-1.198-1.565v-.1c.665-.199 1.331-.865 1.331-1.863m-1.298 0c0 .632-.366.832-.932.832h-1.763l-.1-.1V28.62l.1-.1h1.763c.566 0 .932.2.932.832m7.854-.932v-.931l-.1-.1h-5.191l-.1.1v.931l.1.1h1.863l.1.1v5.191l.1.1h1.098l.1-.1V28.62l.1-.1h1.863l.067-.1zm7.387 4.426c-1.297 0-1.83-.932-1.83-2.23 0-1.297.566-2.229 1.83-2.229.733 0 1.198.266 1.398.832l.1.1h1.098l.1-.1c-.166-1.198-1.198-1.93-2.662-1.93-2.03 0-3.128 1.398-3.128 3.328s1.098 3.327 3.128 3.327c1.464 0 2.496-.732 2.662-2.03l-.1-.1h-1.098l-.1.1c-.2.666-.665.932-1.398.932m9.152-2.196c0 1.298-.632 2.23-1.864 2.23-1.198 0-1.863-.932-1.863-2.23s.632-2.23 1.863-2.23c1.198 0 1.864.932 1.864 2.23m1.298 0c0-1.93-1.198-3.328-3.162-3.328-1.93 0-3.128 1.398-3.128 3.328s1.198 3.328 3.128 3.328c1.964 0 3.162-1.398 3.162-3.328m1.83-3.161v6.289l.1.1h1.131l.1-.1v-4.26h.1l2.496 4.26.2.1h1.297l.1-.1v-6.29l-.1-.1h-1.098l-.1.1v4.26h-.1l-2.495-4.26-.2-.1h-1.298l-.133.1zm12.48.931v-.931l-.1-.1h-5.159l-.1.1v.931l.1.1h1.864l.1.1v5.191l.1.1h1.098l.1-.1V28.62l.1-.1h1.863l.033-.1zm6.189 5.358v-.932l-.1-.1h-3.028l-.1-.1v-1.464l.1-.1h2.862l.1-.1v-.931l-.1-.1h-2.862l-.1-.1V28.62l.1-.1h3.061l.1-.1v-.931l-.1-.1h-4.326l-.1.1v6.289l.1.1h4.326l.067-.1zm8.985 0v-6.29l-.1-.1h-1.398l-.1.1-1.863 4.526h-.1l-1.863-4.525-.1-.1h-1.398l-.1.1v6.289l.1.1h1.098l.1-.1v-3.594h.1l1.464 3.594.1.1h1.032l.1-.1 1.497-3.594h.1v3.594l.1.1h1.098l.133-.1zm7.554-4.426c0-1.298-.932-1.93-2.23-1.93h-3.061l-.1.1v6.29l.1.1h1.098l.1-.1v-2.397l.1-.1h1.763c1.331-.033 2.23-.665 2.23-1.963m-1.298 0c0 .632-.366.832-.932.832h-1.763l-.1-.1V28.62l.1-.1h1.763c.566 0 .932.2.932.832m7.587 1.298c0 1.298-.632 2.23-1.83 2.23s-1.863-.932-1.863-2.23.632-2.23 1.863-2.23c1.198 0 1.83.932 1.83 2.23m1.298 0c0-1.93-1.198-3.328-3.128-3.328-1.93 0-3.161 1.398-3.161 3.328s1.198 3.328 3.161 3.328c1.93 0 3.128-1.398 3.128-3.328m7.222-1.298c0-1.298-.932-1.93-2.23-1.93h-3.062l-.1.1v6.29l.1.1h1.099l.1-.1v-2.397l.1-.1h.931l.2.1 1.863 2.396.2.1h.566l.1-.1v-.931l-1.198-1.565v-.1c.665-.199 1.33-.865 1.33-1.863m-1.297 0c0 .632-.366.832-.932.832h-1.764l-.1-.1V28.62l.1-.1H180c.566 0 .932.2.932.832m8.22 4.426v-.932l-2.13-5.357-.1-.1h-1.198l-.1.1-2.13 5.357v.932l.1.1h.832l.1-.1.466-1.198.2-.1h2.296l.2.1.465 1.198.1.1h.832l.066-.1zm-1.93-2.496l-.1.1h-1.565l-.1-.1.833-2.23h.1l.831 2.23zm3.593-3.793v6.289l.1.1h1.098l.1-.1v-4.26h.1l2.496 4.26.2.1h1.297l.1-.1v-6.29l-.1-.1h-1.098l-.1.1v4.26h-.1l-2.495-4.26-.2-.1h-1.298l-.1.1zm8.952 6.289v-6.29l-.1-.1h-1.098l-.1.1v6.29l.1.1h1.098l.1-.1zM90.915 22.962v-6.29l-.1-.1h-1.397l-.1.1-1.864 4.526h-.1l-1.863-4.526-.1-.1h-1.398l-.1.1v6.29l.1.1h1.099l.1-.1v-3.594h.1l1.563 3.594.1.1h1.032l.1-.1 1.464-3.594h.1v3.594l.1.1h1.098l.066-.1zm7.388-6.29l-.1-.1h-1.098l-.1.1v3.894c0 .932-.366 1.464-1.298 1.464s-1.298-.566-1.298-1.464v-3.894l-.1-.1h-1.098l-.1.1v3.894c0 1.664.932 2.595 2.596 2.595 1.664 0 2.596-.931 2.596-2.595v-3.894zm7.221 4.526c0-1.298-1.031-1.83-2.296-2.03-1.298-.2-1.664-.366-1.664-.932 0-.366.266-.632 1.098-.632 1.032 0 1.298.266 1.298.832l.1.1h1.098l.1-.1c0-1.098-.732-1.93-2.496-1.93s-2.496.832-2.496 1.764c0 1.297 1.032 1.763 2.33 1.93 1.298.2 1.664.366 1.664.998 0 .566-.466.832-1.298.832-1.098 0-1.464-.366-1.464-1.032l-.1-.1H100.3l-.1.1c0 1.198.832 2.13 2.662 2.13 1.93 0 2.662-.932 2.662-1.93m6.356 1.764v-.932l-.1-.1h-3.061l-.1-.1v-1.464l.1-.1h2.862l.1-.1v-.931l-.1-.1h-2.862l-.1-.1v-1.298l.1-.1h3.061l.1-.1v-.931l-.1-.1h-4.326l-.1.1v6.356l.1.1h4.326l.1-.1zm7.221-6.29l-.1-.1h-1.098l-.1.1v3.894c0 .932-.365 1.464-1.297 1.464-.932 0-1.298-.566-1.298-1.464v-3.894l-.1-.1h-1.098l-.1.1v3.894c0 1.664.932 2.595 2.596 2.595 1.664 0 2.595-.931 2.595-2.595v-3.894z" id="Shape" fill="#020203"/><path id="Path" fill="#FFF" d="M.366.2L.1.433V71.98l.266.266h72.779l.266-.266V.433L73.145.2z"/><path d="M63.827 49.052h4.293l.266-.267-2.263-6.056h-.266l-2.263 6.056.233.267zm5.291 3.028h-6.29l-.499.266-1.264 3.261-.266.233h-2.263l-.266-.233v-2.529l5.79-14.609.266-.233h3.261l.267.233 5.557 13.977V.433l-.266-.267H.366L.1.4v71.548l.233.266H73.11l.267-.266V55.84h-2.263l-.266-.233-1.265-3.26-.466-.267zM42.43 38.47l.267-.234h8.053c2.529 0 5.025 1.265 5.025 4.526 0 1.764-.766 3.261-2.53 3.794v.233c2.03.499 3.029 2.03 3.029 4.293 0 3.527-2.53 4.792-5.025 4.792h-8.552l-.267-.233V38.469zm-12.845-4.527l-.266.267H26.29l-.233-.267v-9.817h-.267l-4.026 9.817-.266.267h-2.763l-.266-.267-4.026-9.817h-.267v9.817l-.233.267h-3.028l-.266-.267V16.805l.266-.233h3.76l.267.233 5.025 12.346h.266l5.058-12.346.233-.233h3.76l.267.233v17.138h.033zm18.136 0l-.266.267h-2.263l-.266-.267-1.264-3.26-.5-.234h-6.29l-.498.233-1.265 3.261-.233.267h-2.263l-.266-.267v-2.529l5.79-14.609.267-.233h3.26l.267.233 5.79 14.61v2.528zm10.084.5c-5.558 0-8.553-3.76-8.553-9.052 0-5.291 3.029-9.052 8.553-9.052 4.026 0 6.788 1.997 7.288 5.292l-.233.266h-3.03l-.233-.266c-.499-1.498-1.763-2.263-3.793-2.263-3.528 0-5.025 2.529-5.025 6.056 0 3.528 1.497 6.057 5.025 6.057 2.03 0 3.26-.766 3.793-2.53l.233-.265h3.029l.233.266c-.5 3.494-3.262 5.49-7.288 5.49m-15.64-7.054l.265-.233-2.263-6.057H39.9l-2.263 6.057.266.233h4.26zm4.026 13.877l-.267.266v3.527l.267.266h4.06c1.497 0 1.996-.998 1.996-2.03 0-1.264-.499-1.996-1.996-1.996h-4.06v-.033zm0 7.021l-.267.266v4.027l.267.233h4.06c1.763 0 2.529-.765 2.529-2.263 0-1.497-.766-2.263-2.53-2.263h-4.06z" id="Shape" fill="#020203"/></g></g></svg>