<svg width="200" height="200" fill="none" xmlns="http://www.w3.org/2000/svg"><path fill="#fff" d="M0 0h200v200H0z"/><g clip-path="url(#clip0)" fill-rule="evenodd" clip-rule="evenodd" fill="#000"><path d="M169.443 101.012c.543-.761 1.9-1.825 3.56-1.825.904 0 1.688.305 2.201.821.543.548.874 1.308.874 2.769v7.814H180v-7.511c0-2.524-.543-4.014-1.508-5.17a6.57 6.57 0 00-5.067-2.372 6.444 6.444 0 00-3.982 1.369V89h-3.92v21.591h3.92v-9.579zm-8.746 4.288c-.633.972-1.9 1.945-3.499 1.945-2.382 0-4.042-1.702-4.042-4.013 0-2.251 1.689-4.044 3.952-4.044 1.417 0 2.594.729 3.377 1.763l2.776-2.463c-1.358-1.764-3.62-2.95-6.154-2.95-4.463 0-7.872 3.405-7.872 7.694 0 4.257 3.318 7.663 7.843 7.663 2.744 0 4.916-1.004 6.635-3.314l-3.016-2.281zm-11.612-9.64c-.422-.06-.754-.122-1.326-.122-1.779 0-3.377.7-4.252 1.794v-1.49h-3.771v14.749h3.92v-9.275c.483-.882 1.84-2.129 3.559-2.129.573 0 1.146.061 1.418.152l.452-3.68zm-12.667.182h-3.77v1.186c-1.147-.943-2.624-1.49-4.283-1.49-3.981 0-7.178 3.345-7.178 7.694 0 2.007.724 3.831 1.87 5.169 1.297 1.521 3.348 2.494 5.52 2.494 1.477 0 2.865-.456 4.071-1.49v1.186h3.771l-.001-14.749zm-3.92 9.579a4.277 4.277 0 01-3.53 1.824c-2.202 0-3.86-1.702-3.86-4.013 0-2.129 1.478-4.044 3.769-4.044a4.488 4.488 0 013.621 1.824v4.409zm-33.63 5.17v-9.579c.543-.7 1.749-1.825 3.409-1.825.754 0 1.599.244 2.202.912.452.518.724 1.186.724 2.524v7.968h3.92v-7.815c0-.609-.059-1.156-.12-1.643.513-.76 1.84-1.945 3.528-1.945.755 0 1.6.243 2.202.911.454.518.724 1.186.724 2.524v7.968h3.921v-7.815c0-2.19-.543-3.71-1.478-4.866-1.177-1.46-3.108-2.372-5.128-2.372-2.172 0-4.012 1.064-5.187 2.311a6.353 6.353 0 00-4.917-2.311c-1.417 0-2.804.456-3.95 1.49v-1.186h-3.77v14.749h3.92zM91.579 89h-3.977v21.59h3.977V89zm-6.73 6.842h-3.823v1.186c-1.162-.943-2.661-1.49-4.344-1.49-4.038 0-7.28 3.345-7.28 7.693 0 2.007.734 3.831 1.897 5.17 1.315 1.52 3.395 2.493 5.597 2.493 1.5 0 2.906-.457 4.13-1.49v1.186h3.823V95.842zm-3.976 9.579c-.765 1.094-2.08 1.824-3.579 1.824-2.233 0-3.916-1.703-3.916-4.014 0-2.128 1.5-4.044 3.824-4.044a4.574 4.574 0 013.671 1.824v4.41zM56.86 110.59v-9.579c.55-.759 1.928-1.824 3.61-1.824.918 0 1.713.304 2.233.822.55.547.887 1.307.887 2.766v7.815h3.976v-7.51c0-2.524-.55-4.014-1.53-5.17a6.702 6.702 0 00-5.138-2.371c-1.652 0-3.06.577-4.191 1.49v-1.187h-3.824v14.748h3.977zm-6.118-14.748h-3.824v1.186c-1.163-.943-2.661-1.49-4.343-1.49-4.038 0-7.28 3.345-7.28 7.693 0 2.007.734 3.832 1.896 5.17 1.316 1.52 3.396 2.493 5.598 2.493 1.5 0 2.906-.456 4.13-1.49v1.186h3.824V95.842zm-3.976 9.579c-.765 1.095-2.08 1.825-3.58 1.825-2.232 0-3.915-1.704-3.915-4.015 0-2.128 1.5-4.043 3.824-4.043a4.572 4.572 0 013.67 1.824v4.409zm-15.142-.122c-.643.974-1.928 1.947-3.548 1.947-2.417 0-4.098-1.704-4.098-4.015 0-2.25 1.713-4.043 4.007-4.043 1.438 0 2.63.73 3.425 1.763l2.814-2.463c-1.376-1.764-3.67-2.95-6.24-2.95-4.527 0-7.984 3.405-7.984 7.693 0 4.258 3.365 7.664 7.954 7.664 2.783 0 4.986-1.004 6.73-3.315l-3.06-2.281z"/></g><defs><clipPath id="clip0"><path fill="#fff" transform="translate(20 89)" d="M0 0h160v21.895H0z"/></clipPath></defs></svg>