<svg width="200" height="200" viewBox="0 0 200 200" fill="none" xmlns="http://www.w3.org/2000/svg">
<rect width="200" height="200" fill="white"/>
<path d="M91.44 104.44C91.44 102.84 90.8 101.88 88.96 101.88H87.36L87.28 101.96V107L87.36 107.08H88.96C90.8 107 91.44 106.04 91.44 104.44ZM90.4 104.44C90.4 105.64 90 106.12 88.96 106.12H88.32L88.24 106.04V102.76L88.32 102.68H88.96C90.08 102.68 90.4 103.24 90.4 104.44ZM96.56 106.92V106.2L96.48 106.12H94L93.92 106.04V104.84L94 104.76H96.32L96.4 104.68V103.96L96.32 103.88H94L93.92 103.8V102.76L94 102.68H96.48L96.56 102.6V101.88L96.48 101.8H93.04L92.96 101.88V106.92L93.04 107L96.56 106.92ZM104.8 105.64C104.8 105 104.48 104.52 103.92 104.36V104.28C104.4 104.12 104.64 103.72 104.64 103.16C104.64 102.2 103.92 101.8 103.2 101.8H100.8L100.72 101.88V106.92L100.8 107H103.28C104 107 104.8 106.6 104.8 105.64ZM103.6 103.32C103.6 103.64 103.44 103.88 103.04 103.88H101.84L101.76 103.8V102.76L101.84 102.68H103.04C103.44 102.68 103.6 102.92 103.6 103.32ZM103.76 105.48C103.76 105.96 103.52 106.12 103.04 106.12H101.84L101.76 106.04V104.84L101.84 104.76H103.04C103.52 104.76 103.76 105 103.76 105.48ZM110.24 106.92V106.2L108.56 101.88L108.48 101.8H107.52L107.44 101.88L105.76 106.2V106.92L105.84 107H106.48L106.56 106.92L106.96 105.96L107.12 105.88H108.96L109.12 105.96L109.52 106.92L109.6 107L110.24 106.92ZM108.64 104.92L107.28 105L107.2 104.92L107.84 103.16H107.92L108.64 104.92ZM115.84 103.4C115.84 102.36 115.12 101.88 114.08 101.88H111.68L111.6 101.96V107L111.68 107.08H112.56L112.64 107V105.08L112.72 105H113.44L113.6 105.08L115.12 107H115.2H115.68L115.76 106.92V106.2L114.8 104.92V104.84C115.36 104.68 115.84 104.2 115.84 103.4ZM114.8 103.4C114.8 103.88 114.48 104.04 114.08 104.04H112.64L112.56 103.96V102.76L112.64 102.68H114.08C114.48 102.68 114.8 102.84 114.8 103.4ZM119.52 106.2C118.48 106.2 118 105.48 118 104.44C118 103.4 118.48 102.68 119.52 102.68C120.08 102.68 120.48 102.92 120.64 103.32L120.72 103.4H121.6L121.68 103.32C121.52 102.36 120.72 101.8 119.52 101.8C117.92 101.8 117.04 102.92 117.04 104.44C117.04 105.96 117.92 107.08 119.52 107.08C120.72 107.08 121.52 106.52 121.68 105.48L121.6 105.4H120.72L120.64 105.48C120.48 105.96 120.16 106.2 119.52 106.2ZM126.8 106.92V106.2L126.72 106.12H124.24L124.16 106.04V104.84L124.24 104.76H126.56L126.64 104.68V103.96L126.56 103.88H124.24L124.16 103.8V102.76L124.24 102.68H126.72L126.8 102.6V101.88L126.72 101.8H123.2L123.12 101.88V106.92L123.2 107L126.8 106.92ZM131.92 106.92V106.2L131.84 106.12H129.52L129.44 106.04V101.88L129.36 101.8H128.48L128.4 101.88V106.92L128.48 107L131.92 106.92ZM136.72 104.44C136.72 105.48 136.24 106.2 135.2 106.2C134.24 106.2 133.76 105.48 133.76 104.44C133.76 103.4 134.24 102.68 135.2 102.68C136.16 102.68 136.72 103.4 136.72 104.44ZM137.76 104.44C137.76 102.92 136.8 101.8 135.2 101.8C133.68 101.8 132.72 102.92 132.72 104.44C132.72 105.96 133.68 107.08 135.2 107.08C136.8 107.08 137.76 105.96 137.76 104.44ZM139.2 101.88V106.92L139.28 107H140.16L140.24 106.92V103.48H140.32L142.32 106.92L142.48 107H143.52L143.6 106.92V101.88L143.52 101.8H142.64L142.56 101.88V105.32H142.48L140.48 101.88L140.32 101.8H139.28L139.2 101.88ZM149.44 106.92V106.2L147.76 101.88L147.68 101.8H146.72L146.64 101.88L144.96 106.2V106.92L145.04 107H145.68L145.76 106.92L146.16 105.96L146.32 105.88H148.16L148.32 105.96L148.72 106.92L148.8 107L149.44 106.92ZM147.84 104.92L146.48 105L146.4 104.92L147.04 103.16H147.12L147.84 104.92Z" fill="black"/>
<path d="M91.44 95.8C91.44 94.2 90.8 93.24 88.96 93.24H87.36L87.28 93.32V98.36L87.36 98.44H88.96C90.8 98.36 91.44 97.4 91.44 95.8ZM90.4 95.8C90.4 97 90 97.48 88.96 97.48H88.32L88.24 97.4V94.12L88.32 94.04H88.96C90.08 94.04 90.4 94.6 90.4 95.8ZM94 94.28V93.24L93.92 93.16H92.88L92.8 93.24V94.2L92.88 94.28H93.12L93.2 94.36V94.44L92.72 95.16V95.32H93.2L93.36 95.24L93.92 94.52L94 94.28ZM99.2 98.28V97.56L97.52 93.24L97.44 93.16H96.48L96.4 93.24L94.72 97.56V98.28L94.8 98.36H95.44L95.52 98.28L95.92 97.32L96.08 97.24H97.92L98.08 97.32L98.48 98.28L98.56 98.36L99.2 98.28ZM97.68 96.28L96.32 96.36L96.24 96.28L96.88 94.52H96.96L97.68 96.28ZM104.88 94.76C104.88 93.72 104.16 93.24 103.12 93.24H100.64L100.56 93.32V98.36L100.64 98.44H101.52L101.6 98.36V96.44L101.68 96.36H102.4L102.56 96.44L104.08 98.36L104.24 98.44H104.72L104.8 98.36V97.64L103.84 96.36V96.28C104.32 96.04 104.88 95.56 104.88 94.76ZM103.84 94.76C103.84 95.24 103.52 95.4 103.12 95.4H101.68L101.6 95.32V94.12L101.68 94.04H103.12C103.52 94.04 103.84 94.2 103.84 94.76ZM110.08 93.96V93.24L110 93.16H105.84L105.76 93.24V93.96L105.84 94.04H107.36L107.44 94.12V98.28L107.52 98.36H108.4L108.48 98.28V94.12L108.56 94.04L110.08 93.96ZM116 97.56C114.96 97.56 114.56 96.84 114.56 95.8C114.56 94.76 115.04 94.04 116 94.04C116.56 94.04 116.96 94.28 117.12 94.68L117.2 94.76H118.08L118.16 94.68C118 93.72 117.2 93.16 116 93.16C114.4 93.16 113.52 94.28 113.52 95.8C113.52 97.32 114.4 98.44 116 98.44C117.2 98.44 118 97.88 118.16 96.84L118.08 96.76H117.2L117.12 96.84C116.96 97.32 116.56 97.56 116 97.56ZM123.36 95.8C123.36 96.84 122.88 97.56 121.84 97.56C120.88 97.56 120.32 96.84 120.32 95.8C120.32 94.76 120.8 94.04 121.84 94.04C122.8 93.96 123.36 94.76 123.36 95.8ZM124.32 95.8C124.32 94.28 123.36 93.16 121.76 93.16C120.24 93.16 119.28 94.28 119.28 95.8C119.28 97.32 120.24 98.44 121.76 98.44C123.44 98.44 124.32 97.32 124.32 95.8ZM125.84 93.24V98.28L125.92 98.36H126.8L126.88 98.28V94.84H126.96L128.96 98.28L129.12 98.36H130.16L130.24 98.28V93.24L130.16 93.16H129.28L129.2 93.24V96.68H129.12L127.12 93.24L126.96 93.16H125.92L125.84 93.24ZM135.84 93.96V93.24L135.76 93.16H131.6L131.52 93.24V93.96L131.6 94.04H133.12L133.2 94.12V98.28L133.28 98.36H134.16L134.24 98.28V94.12L134.32 94.04L135.84 93.96ZM140.72 98.28V97.56L140.64 97.48H138.24L138.16 97.4V96.2L138.24 96.12H140.56L140.64 96.04V95.32L140.56 95.24H138.24L138.16 95.16V94.2L138.24 94.12H140.72L140.8 94.04V93.32L140.72 93.24H137.28L137.2 93.32V98.36L137.28 98.44L140.72 98.28ZM147.92 98.28V93.24L147.84 93.16H146.72L146.64 93.24L145.12 96.84H145.04L143.52 93.24L143.44 93.16H142.4L142.32 93.24V98.28L142.4 98.36H143.28L143.36 98.28V95.4H143.44L144.64 98.28L144.72 98.36H145.52L145.6 98.28L146.8 95.4H146.88V98.28L146.96 98.36H147.84L147.92 98.28ZM154 94.76C154 93.72 153.28 93.24 152.24 93.24H149.76L149.68 93.32V98.36L149.76 98.44H150.64L150.72 98.36V96.44L150.8 96.36H152.24C153.28 96.28 154 95.8 154 94.76ZM152.96 94.76C152.96 95.24 152.64 95.4 152.24 95.4H150.8L150.72 95.32V94.12L150.8 94.04H152.24C152.64 94.04 152.96 94.2 152.96 94.76ZM159.04 95.8C159.04 96.84 158.56 97.56 157.6 97.56C156.64 97.56 156.08 96.84 156.08 95.8C156.08 94.76 156.56 94.04 157.6 94.04C158.48 93.96 159.04 94.76 159.04 95.8ZM160.08 95.8C160.08 94.28 159.12 93.16 157.6 93.16C156.08 93.16 155.04 94.28 155.04 95.8C155.04 97.32 156 98.44 157.6 98.44C159.12 98.44 160.08 97.32 160.08 95.8ZM165.84 94.76C165.84 93.72 165.12 93.24 164.08 93.24H161.6L161.52 93.32V98.36L161.6 98.44H162.48L162.56 98.36V96.44L162.64 96.36H163.36L163.52 96.44L165.04 98.36L165.2 98.44H165.68L165.76 98.36V97.64L164.8 96.36V96.28C165.28 96.04 165.84 95.56 165.84 94.76ZM164.8 94.76C164.8 95.24 164.48 95.4 164.08 95.4H162.64L162.56 95.32V94.12L162.64 94.04H164.08C164.48 94.04 164.8 94.2 164.8 94.76ZM171.36 98.28V97.56L169.68 93.24L169.6 93.16H168.64L168.56 93.24L166.88 97.56V98.28L166.96 98.36H167.6L167.68 98.28L168.08 97.32L168.24 97.24H170.08L170.24 97.32L170.64 98.28L170.72 98.36L171.36 98.28ZM169.84 96.28L168.48 96.36L168.4 96.28L169.04 94.52H169.12L169.84 96.28ZM172.72 93.24V98.28L172.8 98.36H173.68L173.76 98.28V94.84H173.84L175.84 98.28L176 98.36H177.04L177.12 98.28V93.24L177.04 93.16H176.16L176.08 93.24V96.68H176L174 93.24L173.84 93.16L172.72 93.24ZM179.84 98.28V93.24L179.76 93.16H178.88L178.8 93.24V98.28L178.88 98.36L179.84 98.28Z" fill="black"/>
<path d="M92.8 89.6399V84.5999L92.72 84.5199H91.6L91.52 84.5999L90 88.1999H89.92L88.48 84.5999L88.4 84.5199H87.2799L87.2 84.5999V89.6399L87.2799 89.7199H88.1599L88.24 89.6399V86.7599H88.32L89.6 89.6399L89.68 89.7199H90.48L90.5599 89.6399L91.7599 86.7599H91.84V89.6399L91.92 89.7199L92.8 89.6399ZM98.72 84.5999L97.76 84.5199L97.68 84.5999V87.7199C97.68 88.4399 97.36 88.9199 96.64 88.9199C95.92 88.9199 95.6 88.4399 95.6 87.7199V84.5999L95.52 84.5199H94.64L94.56 84.5999V87.7199C94.56 89.0799 95.28 89.7999 96.64 89.7999C98 89.7999 98.72 89.0799 98.72 87.7199V84.5999V84.5999ZM104.48 88.1999C104.48 87.1599 103.68 86.7599 102.64 86.5999C101.6 86.4399 101.28 86.2799 101.28 85.8799C101.28 85.5599 101.52 85.3999 102.16 85.3999C102.96 85.3999 103.2 85.6399 103.2 86.0399L103.28 86.1199H104.16L104.24 86.0399C104.24 85.1599 103.68 84.5199 102.24 84.5199C100.8 84.5199 100.24 85.1599 100.24 85.9599C100.24 86.9999 101.04 87.3999 102.08 87.4799C103.12 87.6399 103.44 87.7999 103.44 88.2799C103.44 88.7599 103.04 88.9199 102.4 88.9199C101.52 88.9199 101.2 88.5999 101.2 88.1199L101.12 88.0399H100.24L100.16 88.1199C100.16 89.0799 100.8 89.7999 102.32 89.7999C103.92 89.7199 104.48 88.9999 104.48 88.1999ZM109.52 89.6399V88.9199L109.44 88.8399H106.96L106.88 88.7599V87.5599L106.96 87.4799H109.28L109.36 87.3999V86.6799L109.28 86.5999H106.96L106.88 86.5199V85.3999L106.96 85.3199H109.44L109.52 85.2399V84.5199L109.44 84.4399H106L105.92 84.5199V89.6399L106 89.7199L109.52 89.6399ZM115.36 84.5999L114.4 84.5199L114.32 84.5999V87.7199C114.32 88.4399 114 88.9199 113.28 88.9199C112.56 88.9199 112.24 88.4399 112.24 87.7199V84.5999L112.16 84.5199H111.28L111.2 84.5999V87.7199C111.2 89.0799 111.92 89.7999 113.28 89.7999C114.64 89.7999 115.36 89.0799 115.36 87.7199V84.5999V84.5999Z" fill="black"/>
<path d="M71.12 110.52H74.56L74.8 110.28L72.96 105.4H72.72L70.88 110.28L71.12 110.52ZM75.36 112.92H70.32L69.92 113.16L68.88 115.8L68.64 115.96H66.8L66.56 115.8V113.8L71.2 102.12L71.44 101.96H74.08L74.32 102.12L78.8 113.32V71.72L78.56 71.48H20.32L20.16 71.56V128.76L20.32 129H78.56L78.8 128.76V115.96H76.96L76.72 115.8L75.68 113.16L75.36 112.92ZM54 102.04L54.24 101.88H60.72C62.72 101.88 64.72 102.92 64.72 105.48C64.72 106.92 64.08 108.12 62.72 108.52V108.68C64.32 109.08 65.12 110.28 65.12 112.12C65.12 114.92 63.12 115.96 61.12 115.96H54.24L54 115.8V102.04ZM43.76 98.44L43.52 98.68H41.12L40.96 98.44V90.6H40.72L37.52 98.44L37.28 98.68H35.04L34.8 98.44L31.6 90.6H31.36V98.44L31.2 98.6H28.8L28.56 98.36V84.68L28.8 84.52H31.84L32.08 84.68L36.08 94.52H36.32L40.4 84.68L40.56 84.52H43.6L43.84 84.68L43.76 98.44ZM58.24 98.44L58 98.68H56.16L56 98.44L54.96 95.8L54.56 95.64H49.52L49.12 95.8L48.08 98.44L47.92 98.68H46.08L45.84 98.44V96.44L50.48 84.76L50.72 84.6H53.36L53.6 84.76L58.24 96.44V98.44V98.44ZM66.32 98.84C61.84 98.84 59.44 95.8 59.44 91.56C59.44 87.32 61.84 84.28 66.32 84.28C69.52 84.28 71.76 85.88 72.16 88.52L72 88.76H69.6L69.44 88.52C69.04 87.32 68 86.68 66.4 86.68C63.6 86.68 62.4 88.68 62.4 91.56C62.4 94.44 63.6 96.44 66.4 96.44C68 96.44 69.04 95.8 69.44 94.44L69.6 94.2H72L72.16 94.44C71.76 97.24 69.52 98.84 66.32 98.84ZM53.76 93.16L54 93L52.16 88.12H52L50.16 93L50.4 93.16H53.76ZM57.04 104.28L56.8 104.44V107.24L57.04 107.48H60.32C61.52 107.48 61.92 106.68 61.92 105.88C61.92 104.84 61.52 104.28 60.32 104.28H57.04ZM57.04 109.88L56.8 110.12V113.32L57.04 113.48H60.32C61.76 113.48 62.32 112.84 62.32 111.64C62.32 110.44 61.68 109.8 60.32 109.8H57.04V109.88Z" fill="black"/>
</svg>
