<svg width="200" height="200" viewBox="0 0 200 200" fill="none" xmlns="http://www.w3.org/2000/svg">
<rect width="200" height="200" fill="white"/>
<path d="M74 99.7C74 82.7 74 65.6 74 48.6C74 48.1 74.1 48 74.6 48C91.6 48 108.6 48 125.6 48C126.1 48 126.2 48.1 126.2 48.6C126.2 82.7 126.2 116.8 126.2 150.9C126.2 151.4 126.1 151.5 125.6 151.5C108.6 151.5 91.6 151.5 74.6 151.5C74.1 151.5 74 151.4 74 150.9C74 133.9 74 116.8 74 99.7ZM110.7 56.8C110.7 56.9 110.8 57 110.9 57C111.4 57.3 111.8 57.8 112.1 58.4C112.7 59.6 113.1 60.8 113.3 62.1C113.4 62.9 114 62.6 114.4 62.6C115 62.6 114.7 62.2 114.7 61.9C114.6 59.2 114.4 56.4 114.2 53.7C114.2 53.7 114.2 53.7 114.2 53.6C114.2 53.6 114.1 53.6 114.1 53.5C114.1 53.3 113.9 53.3 113.8 53.3C113.4 53.4 113 53.4 112.6 53.4C102.8 53.4 93.1 53.4 83.3 53.4C83 53.4 82.7 53.3 82.5 53.7C82.4 54 82.3 54.4 82.6 54.7L82.7 54.8C82.8 54.8 82.9 54.9 83 54.9C84.4 54.9 85.7 55.2 87 55.5C87 55.7 87.1 55.8 87.4 55.8L87.5 55.9C87.4 56.4 87.8 56.6 87.9 57C88.1 57.9 88.3 58.9 88.3 59.9C88.3 69.2 88.3 78.5 88.3 87.8C88.3 88.1 88.2 88.4 88.4 88.7C88.4 89.3 88.4 89.9 88.3 90.5C88 92.2 87.3 92.9 85.6 93.3C84.6 93.5 83.6 93.5 82.6 93.6C82.2 94.7 82.3 94.9 83.5 94.9C83.6 94.9 83.8 94.9 83.9 94.9C89.2 94.9 94.5 94.9 99.7 94.9C104.3 94.9 109 94.9 113.6 94.9C113.9 94.9 114.2 95 114.4 94.7C115 94.5 114.8 93.9 114.9 93.5C115.1 93.4 115.2 93.2 115.2 93.1C115.3 92.4 115.6 91.8 115.8 91.1C116 90.6 116.3 90.1 116.2 89.4C116.3 89.3 116.3 89.2 116.3 89C116.4 88.9 116.4 88.8 116.4 88.6C116.8 87.3 117.2 86.1 117.6 84.8C117.6 84.7 117.9 84.5 117.5 84.4C117 84.2 116.5 84.5 116.2 84.9C115.2 86.6 114.2 88.2 112.9 89.6C111.6 91 110 92 108.1 92.2C107.5 92.1 106.8 92.3 106.2 92.3C102.9 92.3 99.6 92.4 96.3 92.2C95.5 92.2 94.8 91.8 94.5 91C94.2 90.4 94.3 89.8 94.3 89.1C94.3 84.5 94.3 79.9 94.3 75.3C94.3 74.7 94.5 74.5 95.1 74.5C97.5 74.5 99.9 74.5 102.3 74.5C104.1 74.5 105.9 74.5 107.6 75.2C107.9 75.7 108.2 76.2 108.7 76.5C108.7 76.6 108.7 76.8 108.7 76.9C109 77.9 109.3 78.8 109.4 79.9C109.4 80.1 109.4 80.3 109.7 80.4C110.1 80.6 110.4 80.7 110.8 80.3V80.2C111 80 110.9 79.7 110.9 79.5C110.9 75.1 110.9 70.7 110.9 66.3C110.9 66.2 110.9 66.1 110.7 66C109.8 65.7 109.6 65.8 109.5 66.7C109.4 67.5 109.3 68.3 109 69.1C108.6 70.2 107.9 71.1 106.7 71.4C105.7 71.5 104.7 71.7 103.8 71.7C100.9 71.7 98 71.7 95 71.7C94.5 71.7 94.3 71.5 94.3 71C94.3 66.2 94.3 61.3 94.3 56.5C94.3 56 94.5 55.8 95 55.8C99.8 55.9 104.7 55.5 109.5 56.2C109.6 56.3 109.7 56.3 109.9 56.3C110 56.5 110.2 56.6 110.4 56.6C110.6 56.7 110.6 56.7 110.7 56.8ZM125.2 100.3C125 99.7 124.5 100.1 124.2 100.1C107.8 100.1 91.5 100.1 75.1 100.1C74.9 100.1 74.8 100.1 74.7 100.3V100.4C74.3 100.8 74.6 101.2 74.5 101.7C74.5 117.8 74.5 133.9 74.5 150C74.5 151.1 74.5 151.1 75.6 151.1C91.4 151.1 107.2 151.1 123 151.1C123.6 151.1 124.1 151.1 124.7 151.1C124.9 151.1 125.2 151.2 125.3 150.8C125.5 150.6 125.4 150.3 125.4 150.1C125.4 133.8 125.4 117.5 125.4 101.2C125.4 100.8 125.5 100.5 125.2 100.3Z" fill="black"/>
<path d="M74.7 100.3C74.7 100.6 74.7 100.9 74.7 101.1C74.7 117.3 74.7 133.5 74.7 149.7C74.7 149.9 74.7 150.2 74.7 150.4C74.7 150.7 74.8 150.8 75.1 150.8C75.2 150.8 75.3 150.8 75.5 150.8C91.8 150.8 108.2 150.8 124.5 150.8C124.7 150.8 125 150.9 125.2 150.7C125.1 151 124.9 151 124.6 151C124 151 123.5 151 122.9 151C107.1 151 91.3 151 75.5 151C74.4 151 74.4 151 74.4 149.9C74.4 133.8 74.4 117.7 74.4 101.6C74.6 101.1 74.4 100.7 74.7 100.3Z" fill="black"/>
<path d="M108.3 92.2C107.6 92.4 106.9 92.4 106.2 92.4C103.3 92.4 100.3 92.4 97.4 92.4C94.9 92.4 94.2 91.7 94.2 89.2C94.2 84.4 94.2 79.7 94.2 74.9C94.2 74.4 94.3 74.2 94.8 74.2C98.1 74.3 101.3 74.1 104.6 74.3C105.6 74.4 106.7 74.5 107.6 75.2C105.9 74.5 104.1 74.5 102.3 74.5C99.9 74.5 97.5 74.5 95.1 74.5C94.5 74.5 94.3 74.7 94.3 75.3C94.3 79.9 94.3 84.5 94.3 89.1C94.3 89.7 94.2 90.4 94.5 91C94.9 91.8 95.5 92.1 96.3 92.2C99.6 92.4 102.9 92.3 106.2 92.3C107.1 92.2 107.7 92.1 108.3 92.2Z" fill="black"/>
<path d="M82.6 93.5C82.7 94.6 82.7 94.6 83.7 94.6C93.8 94.6 103.8 94.6 113.9 94.6C114.1 94.6 114.3 94.6 114.5 94.6C114.3 95 114 94.8 113.7 94.8C109.1 94.8 104.4 94.8 99.8 94.8C94.5 94.8 89.2 94.8 84 94.8C83.9 94.8 83.7 94.8 83.6 94.8C82.3 94.8 82.2 94.6 82.6 93.5Z" fill="black"/>
<path d="M125.3 100.3C125.1 100.1 124.8 100.2 124.5 100.2C108.1 100.2 91.7 100.2 75.3 100.2C75.1 100.2 74.9 100.2 74.7 100.2C74.8 99.9999 75 99.9999 75.1 99.9999C91.5 99.9999 107.8 99.9999 124.2 99.9999C124.6 100.1 125.1 99.6999 125.3 100.3Z" fill="black"/>
<path d="M125.3 150.6C125.3 150 125.3 149.5 125.3 148.9C125.3 132.8 125.3 116.8 125.3 100.7C125.3 100.5 125.3 100.4 125.3 100.2C125.5 100.4 125.5 100.7 125.5 100.9C125.5 117.2 125.5 133.5 125.5 149.8C125.4 150.2 125.5 150.4 125.3 150.6Z" fill="black"/>
<path d="M106.8 71.5C105.8 71.9 104.7 72 103.7 72C100.7 72 97.8 72 94.8 72C94.3 72 94.2 71.9 94.2 71.4C94.2 66.4 94.2 61.4 94.2 56.4C94.2 56 94.2 55.8 94.7 55.8C98.8 55.8 102.9 55.8 107 55.8C107.9 55.8 108.8 55.8 109.6 56.3C104.8 55.6 99.9 56.1 95.1 55.9C94.6 55.9 94.4 56.1 94.4 56.6C94.4 61.4 94.4 66.3 94.4 71.1C94.4 71.6 94.6 71.8 95.1 71.8C98 71.8 100.9 71.8 103.9 71.8C104.9 71.9 105.9 71.7 106.8 71.5Z" fill="black"/>
<path d="M87.5 55.8999C88.3 56.7999 88.3 57.8999 88.4 58.9999C88.5 60.4999 88.4 61.9999 88.4 63.4999C88.4 71.5999 88.4 79.7999 88.4 87.8999C88.4 88.0999 88.4 88.3999 88.4 88.5999C88.2 88.2999 88.3 87.9999 88.3 87.6999C88.3 78.3999 88.3 69.0999 88.3 59.7999C88.3 58.7999 88.2 57.8999 87.9 56.8999C87.8 56.5999 87.3 56.3999 87.5 55.8999Z" fill="black"/>
<path d="M114 53.5C113.6 53.5 113.3 53.5 112.9 53.5C103.2 53.5 93.4 53.5 83.7 53.5C82.6 53.5 82.6 53.5 82.6 54.6C82.2 54.3 82.4 54 82.5 53.6C82.6 53.3 83 53.3 83.3 53.3C93.1 53.3 102.8 53.3 112.6 53.3C113 53.3 113.4 53.3 113.8 53.2C113.9 53.3 114 53.3 114 53.5Z" fill="black"/>
<path d="M110.9 80.3C110.9 76.8 110.9 73.3 110.9 69.8C110.9 68.6 110.9 67.4 110.9 66.2C111.1 66.2 111.1 66.3 111.1 66.5C111.1 70.9 111.1 75.3 111.1 79.7C111 79.8 111 80.1 110.9 80.3Z" fill="black"/>
<path d="M82.6 54.7C83.9 54.7 85.1 54.7 86.3 55.1C86.5 55.2 86.7 55.2 86.9 55.4C85.6 55 84.3 54.8 82.9 54.8C82.8 54.8 82.7 54.7 82.6 54.7Z" fill="black"/>
<path d="M114.9 93.4C115.3 92 115.8 90.7 116.3 89.3C116.4 89.9 116.1 90.4 115.9 91C115.7 91.7 115.4 92.3 115.3 93C115.2 93.1 115.1 93.3 114.9 93.4Z" fill="black"/>
<path d="M108.8 76.6001C109.4 77.6001 109.5 78.7001 109.6 79.8001C109.6 80.0001 109.6 80.2001 109.7 80.4001C109.4 80.3001 109.4 80.1001 109.4 79.9001C109.3 78.9001 109.1 77.9001 108.7 76.9001C108.8 76.8001 108.8 76.7001 108.8 76.6001Z" fill="black"/>
<path d="M107.6 75.2C108.1 75.5 108.5 76 108.7 76.5C108.3 76.2 107.9 75.8 107.6 75.2Z" fill="black"/>
<path d="M114.4 94.5999C114.6 94.1999 114.6 93.7999 114.9 93.3999C114.8 93.7999 115 94.3999 114.4 94.5999Z" fill="black"/>
<path d="M109.8 80.4C110.2 80.4 110.5 80.4 110.9 80.3C110.5 80.7 110.1 80.6 109.8 80.4Z" fill="black"/>
<path d="M110 56.3999C110.2 56.3999 110.4 56.4999 110.5 56.6999C110.3 56.6999 110.1 56.6999 110 56.3999Z" fill="black"/>
<path d="M86.9 55.5C87.1 55.5 87.2 55.7 87.3 55.8C87.1 55.8 87 55.7 86.9 55.5Z" fill="black"/>
<path d="M116.3 89.2999C116.3 89.1999 116.3 88.9999 116.4 88.8999C116.4 89.0999 116.4 89.1999 116.3 89.2999Z" fill="black"/>
<path d="M116.4 88.9C116.4 88.8 116.4 88.6 116.5 88.5C116.5 88.7 116.5 88.8 116.4 88.9Z" fill="black"/>
<path d="M109.6 56.3C109.7 56.3 109.9 56.3 110 56.4C109.9 56.5 109.7 56.4 109.6 56.3Z" fill="black"/>
<path d="M110.7 56.8C110.8 56.9 110.9 56.9 110.9 57C110.8 56.9 110.7 56.9 110.7 56.8Z" fill="black"/>
<path d="M87.4 55.8L87.5 55.9C87.4 55.9 87.4 55.8 87.4 55.8Z" fill="black"/>
<path d="M110.5 56.7C110.6 56.7 110.6 56.8 110.7 56.8C110.6 56.7 110.6 56.7 110.5 56.7Z" fill="black"/>
<path d="M79.0999 125.8C78.9999 125.8 78.9999 125.8 78.8999 125.8C78.7999 125.1 79.1999 125.1 79.6999 125.1C93.2999 125.1 106.9 125.1 120.4 125.1C120.7 125.1 121.3 124.9 121.3 125.4C121.3 125.9 120.7 125.7 120.4 125.7C107 125.7 93.5999 125.7 80.1999 125.7C79.8999 125.7 79.4999 125.6 79.0999 125.8Z" fill="black"/>
<path d="M121.5 137.8C121.5 137.9 121.5 137.9 121.5 138C121.2 138.3 120.9 138.2 120.5 138.2C107.2 138.2 93.9 138.2 80.6 138.2C80.3 138.2 79.9 138.2 79.6 138.2C79.4 138.2 79.1 138.3 79.1 138C79.1 137.7 79.4 137.8 79.6 137.8C79.7 137.8 79.7 137.8 79.8 137.8C93.4 137.8 107.1 137.8 120.7 137.8C120.9 137.7 121.2 137.7 121.5 137.8Z" fill="black"/>
<path d="M100.2 112.5C107.1 112.5 114 112.5 120.9 112.5C121.1 112.5 121.4 112.4 121.5 112.6C121.7 112.9 121.5 113.2 121.1 113.3C121 113.3 120.9 113.3 120.9 113.3C107.1 113.3 93.3 113.3 79.4 113.3C79.1 113.3 78.7 113.4 78.7 112.8C78.7 112.6 78.8 112.5 79 112.5C79.1 112.5 79.3 112.5 79.4 112.5C86.4 112.5 93.3 112.5 100.2 112.5ZM100.3 113.1C107 113.1 113.7 113.1 120.4 113.1C120.7 113.1 121.4 113.3 121.4 112.9C121.4 112.4 120.8 112.6 120.4 112.6C106.9 112.6 93.4 112.6 79.9 112.6C79.6 112.6 79.1 112.4 79.1 112.9C79.1 113.3 79.6 113.1 79.9 113.1C86.7 113.1 93.5 113.1 100.3 113.1Z" fill="black"/>
<path d="M121.5 137.8C121.2 137.7 120.9 137.7 120.6 137.7C107 137.7 93.3001 137.7 79.7001 137.7C79.6001 137.7 79.6001 137.7 79.5001 137.7C79.3001 137.7 79.0001 137.6 79.0001 137.9C79.0001 138.2 79.3001 138.1 79.5001 138.1C79.8001 138.1 80.2001 138.1 80.5001 138.1C93.8001 138.1 107.1 138.1 120.4 138.1C120.7 138.1 121.1 138.2 121.5 137.8C121.5 138 121.6 138.2 121.3 138.3C121.2 138.3 121 138.3 120.9 138.3C107.1 138.3 93.2001 138.3 79.4001 138.3C79.3001 138.3 79.1001 138.3 79.0001 138.3C78.7001 138.3 78.8001 138.1 78.8001 137.9C78.8001 137.7 78.8001 137.5 79.1001 137.5C79.2001 137.5 79.4001 137.5 79.5001 137.5C93.3001 137.5 107.1 137.5 121 137.5C121.1 137.6 121.5 137.3 121.5 137.8Z" fill="black"/>
<path d="M79.1 125.8C79.5 125.6 79.8 125.7 80.2 125.7C93.6 125.7 107 125.7 120.4 125.7C120.7 125.7 121.3 125.9 121.3 125.4C121.3 124.9 120.7 125.1 120.4 125.1C106.8 125.1 93.2 125.1 79.7 125.1C79.2 125.1 78.7 125.1 78.9 125.8C78.6 125.2 78.7 125 79.3 125C93.2 125 107.1 125 120.9 125C121.2 125 121.5 124.9 121.5 125.4C121.5 125.9 121.2 125.8 120.9 125.8C107.1 125.8 93.2 125.8 79.4 125.8C79.4 125.8 79.3 125.8 79.1 125.8Z" fill="black"/>
<path d="M108.1 105.3C107.7 104.7 106.7 104.4 106 104.6C105.9 104.6 105.8 104.7 105.8 104.8C105.8 105.3 105.8 105.7 105.8 106.2C105.8 106.3 105.8 106.4 105.9 106.4C106.3 106.7 107.3 106.3 107.6 105.8C107.7 106.4 107.6 106.9 107.6 107.4C107.3 106.6 106.7 106.8 106.1 106.8C105.8 106.8 105.7 106.9 105.8 107.2C105.8 107.3 105.8 107.4 105.8 107.4C105.9 107.9 105.5 108.5 106 108.8C106.7 109.2 107.7 108.7 108.2 108.1L108.3 108C108.4 108.9 108.1 109.2 107.3 109.2C106.5 109.2 105.6 109.2 104.8 109.2C105.1 108.9 105.1 108.6 105.1 108.2C105.1 107.3 105.1 106.4 105.1 105.5C105.1 105.1 105.2 104.6 104.6 104.4C105.7 104.4 106.8 104.3 107.8 104.4C108.4 104.3 108 104.9 108.1 105.3Z" fill="black"/>
<path d="M83.7 116.7C84.3 116.7 84.9 116.7 85.5 116.7C84.8 116.9 85 117.4 85 117.9C85 118.5 85 119.2 85 119.8C85 120.7 85.4 121.2 86.1 121.2C86.9 121.2 87.5 120.8 87.6 119.9C87.6 119.2 87.6 118.4 87.6 117.7C87.6 117.3 87.5 116.9 87 116.8C87.5 116.8 88 116.8 88.4 116.8C87.9 117 87.9 117.4 87.9 117.8C87.9 118.5 87.9 119.2 87.9 120C87.9 121.1 87.2 121.6 86.1 121.6C84.9 121.6 84.3 121.1 84.2 120C84.2 119.3 84.2 118.5 84.2 117.8C84.2 117.3 84.2 116.9 83.7 116.7Z" fill="black"/>
<path d="M99.3 146.7C98.7 146.8 98.1 146.8 97.5 146.7C98 146.6 98 146.3 97.8 145.9C97.6 145.6 97.6 145.1 97 145.2C96.8 145.2 96.6 145.2 96.4 145.2C95.7 145.2 95.4 145.5 95.3 146.2C95.2 146.6 95.6 146.5 95.8 146.7C95.4 146.8 95.1 146.8 94.3 146.7C94.8 146.5 95 146 95.2 145.6C95.7 144.4 96.2 143.2 96.8 141.9C97.1 142 97.1 142.2 97.2 142.4C97.7 143.5 98.2 144.7 98.6 145.9C98.7 146.2 98.9 146.5 99.3 146.7ZM97.4 144.9C97.1 144.3 96.9 143.8 96.7 143.1C96.4 143.8 96.2 144.3 95.9 144.9C96.4 144.9 96.9 144.9 97.4 144.9Z" fill="black"/>
<path d="M100.9 116.7C101.9 116.7 102.7 116.6 103.5 116.8C104.1 116.9 104.5 117.2 104.6 117.8C104.7 118.4 104.5 118.8 103.8 119.1C103.7 119.1 103.7 119.2 103.5 119.2C104.2 119.9 104.5 121 105.6 121.3C104.9 121.6 104.4 121.5 104 121C103.7 120.5 103.3 120.1 103 119.6C102.9 119.4 102.7 119.2 102.4 119.3C102.1 119.4 102.3 119.7 102.3 119.8C102.3 120 102.3 120.2 102.3 120.4C102.3 120.9 102.3 121.3 102.9 121.5C102.3 121.5 101.7 121.5 101 121.5C101.6 121.3 101.6 120.8 101.6 120.3C101.6 119.5 101.6 118.7 101.6 117.8C101.6 117.1 101.6 117.1 100.9 116.7ZM103.7 117.5C103.6 117.4 103.6 117.4 103.5 117.3C103.2 117 102.8 117 102.4 117.1C102 117.2 102.3 117.6 102.2 117.9C102.2 118.2 102.2 118.4 102.2 118.7C102.2 119.1 102.4 119.1 102.7 119.1C103.6 118.9 103.8 118.5 103.7 117.5C104.2 117.9 103.8 118.4 103.8 118.8C104.7 118.4 104.5 117.6 104.1 117.3C103.8 117 103.7 117.2 103.7 117.5ZM102 117.2C101.9 117.2 101.8 117.2 101.8 117.2C101.8 118.4 101.8 119.7 101.8 120.9C101.8 121 101.8 121.1 102 121.1C102.2 121.1 102.2 121 102.2 120.8C102.2 120.5 102.2 120.2 102.2 119.9C102 119.1 102 118.2 102 117.2Z" fill="black"/>
<path d="M110.1 143.6C110.4 144.5 110.2 145.4 109.6 146.1C108.9 146.9 108.1 146.9 107.2 146.7C106.4 146.6 105.7 145.5 105.7 144.5C105.8 144.1 105.9 143.8 105.8 143.4C105.8 143.3 105.9 143.2 105.9 143.1C106 143 106 143 106 142.8C106.2 142.7 106.4 142.5 106.5 142.3C106.6 142.3 106.7 142.2 106.8 142.1C106.9 142.2 107.1 142.2 107.2 142.3C106.7 142.7 106.6 143.3 106.5 143.9C106.3 144.2 106.3 144.4 106.5 144.7C106.5 144.8 106.5 144.9 106.6 145C106.5 145.1 106.5 145.3 106.7 145.4C106.7 145.5 106.8 145.5 106.8 145.6C107.1 146.2 107.5 146.5 108.1 146.5C108.8 146.5 109.1 146.1 109.3 145.5C109.6 144.5 109.6 143.5 109.1 142.6C109.2 142.5 108.9 142.2 109.2 142.2L109.3 142.3L109.4 142.4L109.5 142.5C109.6 142.5 109.6 142.6 109.7 142.6C109.7 142.7 109.8 142.8 109.9 142.9C109.9 143.3 109.9 143.5 110.1 143.6Z" fill="black"/>
<path d="M96.1 130.4C95.5 131.7 95 132.9 94.3 134.4C93.8 133.2 93.3 132.2 92.8 131.2C93.1 131.2 93.2 131.4 93.3 131.7C93.3 131.8 93.4 131.9 93.5 131.9C93.6 131.9 93.7 131.7 93.6 131.7C93.2 131.1 93.1 130.5 92.7 129.9C92.6 129.8 92.5 129.7 92.3 129.8C92.1 129.9 92.1 130.1 92.2 130.2C92.3 130.4 92.3 130.6 92.4 130.8C92.4 131.6 92.4 132.4 92.4 133.3C92.4 133.8 92.4 134.2 93.1 134.3C92.5 134.5 92 134.4 91.5 134.3C92.2 134.2 92.1 133.7 92.1 133.2C92.1 132.3 92.1 131.4 92.1 130.6C92.1 130.2 92.1 129.8 91.5 129.8C92.4 129.4 92.8 129.6 93.2 130.4C93.6 131.3 94.1 132.3 94.6 133.3C95 132.4 95.4 131.5 95.8 130.7C96.3 129.7 96.3 129.7 97.5 129.7C97.4 130 97.2 129.9 97 129.9C96.3 129.5 96.2 129.5 96.1 130.4Z" fill="black"/>
<path d="M80.9 146.1C80.6 145.7 80.3 145.3 80 144.9C79.8 144.7 79.6 144.5 79.3 144.6C79 144.7 79.3 144.9 79.2 145.1C79.2 145.4 79.2 145.8 79.2 146.1C79 146.8 79 146.8 78.5 146.4C78.7 146.3 78.7 146.2 78.7 146C78.7 145 78.7 143.9 78.7 142.9C78.7 142.7 78.6 142.5 78.8 142.3C79 142.2 79.2 142.3 79.4 142.4C79.3 142.4 79.2 142.4 79.2 142.5C79.2 143.1 79 143.7 79.3 144.2C80.3 144.4 80.8 143.9 80.8 143C80.8 142.4 80.3 142.4 80 142.2C80.1 142.2 80.2 142.1 80.4 142.1C80.6 142.2 80.9 142.2 81.1 142.3C81.9 142.7 81.9 143.8 81 144.3C80.6 144.5 80.7 144.6 80.9 144.9C81.3 145.4 81.6 145.9 82 146.4C81.7 146.9 81.5 146.3 81.2 146.3C81.1 146.2 81 146.1 80.9 146.1Z" fill="black"/>
<path d="M81.1 146.4C81.4 146.4 81.6 147 81.9 146.5C83.3 146.8 83.3 146.8 83.3 145.3C83.3 144.6 83.3 143.9 83.3 143.2C83.3 142.7 83.4 142.3 82.7 142.1C83.8 142.1 84.9 142.1 86 142.1C86.2 142.1 86.3 142.2 86.3 142.4C86.3 142.6 86.3 142.9 86.3 143.2C86 142.2 85.2 142.4 84.5 142.4C84.1 142.4 84 142.6 84 142.9C84 143.3 84 143.8 84 144.2C83.6 143.7 83.9 143.2 83.8 142.7C83.8 142.5 83.8 142.3 83.6 142.3C83.3 142.3 83.4 142.5 83.4 142.7C83.4 143.9 83.5 145 83.4 146.2C83.4 146.4 83.4 146.7 83.6 146.7C83.9 146.7 83.8 146.5 83.8 146.3C83.9 145.8 83.6 145.2 83.9 144.7C83.9 145.2 83.9 145.6 83.9 146.1C83.9 146.5 84 146.7 84.4 146.7C85.2 146.7 86.1 146.8 86.4 145.6C86.5 146.6 86.2 147 85.5 147C84.2 147 82.9 147 81.6 147C81.4 146.8 81.2 146.7 81.1 146.4Z" fill="black"/>
<path d="M121 133.5C121.2 133.8 121.4 134 121.8 134.1C121.3 134.3 120.6 134.3 119.9 134.2C120.2 134 120.6 133.9 120.3 133.4C120.1 133 120.1 132.5 119.4 132.6C119.2 132.6 119 132.6 118.8 132.6C118.2 132.6 117.8 133 117.7 133.6C117.7 134 118 133.9 118.2 134.1C117.8 134.3 117.4 134.3 116.7 134.1C117.2 133.9 117.4 133.4 117.6 133C118.1 131.9 118.5 130.9 119 129.9C119.1 129.8 119.1 129.6 119.3 129.6C119.5 129.6 119.6 129.8 119.6 129.9C119.9 130.7 120.3 131.5 120.6 132.3C120.6 132.3 120.6 132.3 120.5 132.4C120.3 132.3 120.4 131.9 120.1 132.1C119.9 132.3 120 132.5 120.1 132.6C120.2 132.8 120.3 132.9 120.5 133C120.5 133.2 120.5 133.3 120.5 133.5C120.5 133.7 120.5 133.9 120.7 133.9C121 133.9 121 133.7 121 133.5ZM119.1 130.6C118.9 130.8 118.8 131.1 118.7 131.3C118.2 132.4 118.3 132.4 119.4 132.3C119.7 132.3 119.7 132.2 119.6 131.9C119.5 131.5 119.3 131.1 119.1 130.6Z" fill="black"/>
<path d="M96.7 121.1C96.9 121.1 97.1 121.1 97.3 121.1C98.5 121.1 98.5 121.1 99.2 120.2C99.4 120.9 99.1 121.4 98.4 121.4C97.4 121.4 96.4 121.4 95.4 121.3C96.1 121.1 96 120.6 96 120.1C96 119.2 96 118.3 96 117.5C96 117.1 96 116.8 95.3 116.7C95.7 116.5 96 116.6 96.2 116.5C96.8 116.5 97.5 116.5 98.1 116.5C99 116.5 99 116.5 98.9 117.7C98.6 116.5 97.7 116.8 97 116.8C96.8 116.8 96.6 116.8 96.6 117C96.6 117.5 96.6 117.9 96.6 118.4C96.6 118.5 96.6 118.5 96.7 118.6C97.2 118.8 98.1 118.5 98.4 118C98.4 118.2 98.4 118.5 98.4 118.7C98.4 119 98.4 119.2 98.4 119.6C98.1 119.3 98.1 119 97.7 118.9C96.6 118.7 96.5 118.8 96.5 119.9C96.7 120.5 96.7 120.8 96.7 121.1C96.5 120.9 96.5 120.6 96.5 120.3C96.5 119.3 96.5 118.3 96.5 117.3C96.5 117.1 96.5 116.9 96.2 116.9C95.9 116.9 96 117.2 96 117.3C96 118.5 96 119.6 96 120.8C96 121 96 121.2 96.2 121.3C96.4 121.4 96.6 121.3 96.7 121.1Z" fill="black"/>
<path d="M82.7 130.9C83.3 132.5 82.5 133.9 80.8 134.2C80.6 134.2 80.4 134.3 80.1 134.3C79.4 134.3 78.8 134.3 78.1 134.2C78.9 134 78.7 133.4 78.7 132.9C78.7 132.1 78.7 131.3 78.7 130.5C78.7 130.1 78.8 129.6 78.1 129.5C79.2 129.5 80.3 129.3 81.3 129.6C81.8 129.7 82.2 130 82.4 130.4C82.2 130.2 82 130 81.7 129.9C81.4 129.7 81.3 129.8 81.3 130.1C80.9 129.7 80.4 129.6 79.8 129.7C79.5 129.7 79.4 129.8 79.4 130.1C79.4 131.2 79.4 132.3 79.4 133.4C79.4 133.7 79.5 133.8 79.8 133.8C80.6 133.9 81.3 133.6 81.8 132.9C81.8 133 81.7 133.2 81.9 133.3C82 133.3 82.1 133.2 82.2 133.1C82.8 132.5 82.8 131.7 82.7 130.9ZM79.4 131.8C79.4 131.2 79.4 130.6 79.4 130.1C79.4 129.9 79.5 129.6 79.2 129.6C78.9 129.6 79 129.9 79 130.1C79 131.3 79.2 132.5 79 133.7C79 133.9 79 134 79.3 134C79.5 134 79.5 133.8 79.5 133.7C79.4 133.1 79.4 132.5 79.4 131.8Z" fill="black"/>
<path d="M79.3 106.3C79.6 106.3 79.8 106.3 80.1 106.3C80.6 106.3 81 106.3 81.1 105.7C81.2 106.2 81.2 106.7 81.2 107.3C80.8 106.7 80.2 106.5 79.6 106.7C79.4 106.8 79.4 106.9 79.4 107.1C79.4 107.4 79.4 107.8 79.4 108.1C79.4 108.8 79.5 108.9 80.2 108.9C80.8 108.8 81.4 108.7 81.8 108C81.9 108.8 81.8 109.1 81.1 109.1C80.2 109.1 79.2 109.1 78.3 109.1C78.3 109.1 78.2 109.1 78.1 109C78.7 109 78.7 108.6 78.7 108.2C78.7 107.3 78.7 106.4 78.7 105.4C78.7 105 78.7 104.6 78.2 104.4C79.3 104.4 80.4 104.3 81.5 104.4C82.1 104.5 81.7 105 81.8 105.4C81.3 104.2 80.3 104.7 79.5 104.7C79.5 104.4 79.3 104.5 79.2 104.5C79 104.5 78.9 104.7 78.9 104.9C78.9 106.1 78.9 107.2 78.9 108.4C78.9 108.6 78.9 108.8 79.1 108.8C79.4 108.8 79.3 108.5 79.3 108.4C79.1 107.7 79 107 79.3 106.3C79.2 106.4 79.3 106.3 79.3 106.3Z" fill="black"/>
<path d="M90 142.8C89.9 142.6 89.8 142.5 89.6 142.3C89.8 142.2 90.1 142.1 90.3 142.1C91.1 143.1 91.9 144.1 92.8 145.1C92.9 145.2 92.9 145.5 93.2 145.3C93.4 145.7 93.6 146.2 93.1 146.5C92.2 145.4 91.3 144.3 90.3 143.2C89.9 143.4 90.4 144 90 144.2C90 144.1 90 144 90 143.9V143.8C90 143.7 90 143.5 90 143.4C90 143.4 90 143.4 90 143.3C90 143.1 90 143 90 142.8C90 142.9 90.1 142.8 90 142.8Z" fill="black"/>
<path d="M114.6 142C115.2 142 115.8 142 116.4 142C115.8 142.2 115.8 142.6 115.8 143.1C115.8 144 115.8 144.9 115.8 145.8C115.8 146.2 115.8 146.6 116.4 146.7C115.8 146.7 115.2 146.7 114.6 146.7C115.1 146.6 115.2 146.2 115.2 145.7C115.2 144.8 115.2 143.9 115.2 143C115.2 142.6 115.2 142.2 114.6 142Z" fill="black"/>
<path d="M114.8 107.7C114.9 108.2 114.7 108.5 114.6 108.9C114.6 109 114.4 109.1 114.3 109.1C113.2 109.1 112.1 109.1 110.9 109C111.5 108.9 111.5 108.5 111.5 108.1C111.5 107.2 111.5 106.3 111.5 105.4C111.5 105 111.5 104.6 111 104.4C111.6 104.4 112.3 104.4 112.9 104.4C112 104.6 112.2 105.3 112.2 105.9C112.2 106.7 112.2 107.4 112.2 108.2C112.2 108.6 112.3 108.8 112.8 108.8C113.6 108.7 114.4 108.8 114.8 107.7ZM111.6 106.8C111.6 107.3 111.6 107.8 111.6 108.3C111.6 108.5 111.5 108.8 111.8 108.8C112.1 108.8 112 108.5 112 108.4C112 107.3 112.2 106.2 112 105C112 104.8 112.3 104.5 111.9 104.5C111.5 104.4 111.5 104.8 111.5 105.1C111.6 105.6 111.6 106.2 111.6 106.8Z" fill="black"/>
<path d="M107 121.5C107.6 121.4 107.6 121 107.6 120.6C107.6 119.7 107.6 118.8 107.6 117.9C107.6 117.2 107.6 117.2 107 116.9C107.5 116.8 108.2 116.8 109 116.9C108.2 117 108.3 117.5 108.3 118C108.3 118.9 108.3 119.7 108.3 120.6C108.3 121 108.3 121.4 108.9 121.6C108.3 121.5 107.6 121.5 107 121.5Z" fill="black"/>
<path d="M112 144.1C112.2 144.1 112.4 144.1 112.6 144.1C113 144.1 113.4 144 113.5 143.5C113.6 144 113.6 144.5 113.6 145.2C113.4 144.8 113.4 144.5 113 144.5C112.2 144.4 112 144.5 112 145.3C112 145.5 112 145.6 112 145.8C112 146.2 112 146.6 112.6 146.7C112 146.8 111.3 146.8 110.7 146.7C111.3 146.6 111.3 146.3 111.3 145.8C111.3 144.9 111.3 143.9 111.3 143C111.3 142.3 111.3 142.3 110.6 142C111.8 142 112.9 142 113.9 142C114.2 142 114.2 142.1 114.2 142.3C114.2 142.5 114.2 142.7 114.2 143C113.8 141.9 112.8 142.3 112.1 142.2C111.8 142.1 111.5 142 111.5 142.5C111.5 143.7 111.5 144.9 111.5 146.1C111.5 146.4 111.7 146.6 112 146.6C111.9 145.8 111.7 144.9 112 144.1Z" fill="black"/>
<path d="M120.4 107.6C120.7 108 120.7 108.7 121.4 109C120.8 109 120.3 109 119.7 109C120 108.9 120.2 108.6 120 108.3C119.8 108 119.9 107.4 119.3 107.5C119.1 107.5 118.8 107.5 118.6 107.5C118 107.4 117.7 107.7 117.5 108.2C117.4 108.6 117.4 108.8 117.9 108.9C117.4 109 117 109 116.3 108.9C116.9 108.7 117.1 108.3 117.2 108C117.7 106.9 118.2 105.8 118.6 104.7C118.6 104.9 118.6 105.1 118.6 105.4C118.5 105.6 118.4 105.8 118.4 106C118.3 106.4 117.8 106.8 118.1 107.1C118.4 107.5 119 107.2 119.4 107.2C119.6 107.3 119.7 107.5 119.8 107.7C120.1 108.1 120.3 107.9 120.4 107.6ZM120.6 108.5C120.6 108.4 120.5 108.3 120.4 108.2C120.3 108.2 120.2 108.3 120.2 108.4C120.2 108.5 120.2 108.7 120.4 108.7C120.5 108.8 120.6 108.7 120.6 108.5Z" fill="black"/>
<path d="M119.7 117.6C119.5 117.4 119.4 117.1 119.1 117.1C118.5 117 118.3 117.1 118.3 117.7C118.3 118.3 118.3 119 118.3 119.6C118.1 119.6 118.2 119.4 118.2 119.3C118.1 118.5 118.1 117.7 118.1 116.8C117.8 117 117.8 117.3 117.8 117.5C117.8 118.3 117.8 119 117.8 119.8C117.8 120.2 117.9 120.7 117.6 121.1C117.6 119.9 117.6 118.7 117.6 117.5C117.6 117.1 117.4 116.9 117.1 116.8C117.9 116.8 118.6 116.8 119.4 116.8C120.2 116.9 120.7 117.3 120.7 117.9C120.8 118.5 120.4 118.9 119.6 119.2C119.5 119.1 119.4 119 119.3 118.9C119.4 118.6 119.8 118.6 119.9 118.3C119.9 118.4 119.8 118.6 120 118.7C120.1 118.8 120.2 118.6 120.3 118.5C120.7 117.8 120.5 117.4 119.7 117C119.7 117.2 119.7 117.4 119.7 117.6C119.8 117.6 119.7 117.6 119.7 117.6Z" fill="black"/>
<path d="M104.4 145.6C104 145 103.4 144.8 102.8 144.4C102 143.9 101.7 143.4 102.1 142.6C102.3 142.6 102.4 142.7 102.5 142.8C102.5 143.2 102.6 143.4 103 143.6C103.4 143.8 103.9 144.1 104.3 144.3C105.2 144.8 105.3 145.9 104.5 146.6C104.4 146.6 104.3 146.5 104.2 146.4C104.6 146.2 104.7 146 104.4 145.6Z" fill="black"/>
<path d="M119.6 142.7C119.6 142.8 119.7 142.9 119.7 142.9C119.7 143 119.7 143.2 119.8 143.3C119.8 143.5 119.8 143.6 120 143.7C120 143.8 120 143.9 120.1 144C120.4 144.7 120.7 145.3 120.9 146C121.1 146.4 121.2 146.7 121.8 146.9C121.1 147 120.6 147 119.9 147C120.4 146.7 120.2 146.3 120.1 146C120.1 145.8 120.1 145.7 119.9 145.6C119.9 145.4 119.8 145.3 119.7 145.2C119.5 144.6 119.3 144 118.9 143.5C118.9 143.3 118.9 143.1 118.9 142.8C119.3 142.2 119.4 142.5 119.6 142.7Z" fill="black"/>
<path d="M81.2 120.4C81 119.9 80.5 119.7 80.1 119.5C79.7 119.3 79.4 119.1 79.1 118.8C78.7 118.4 78.6 117.9 78.9 117.4C79.2 117.5 79.1 117.8 79.3 117.9C79.6 118.4 80.1 118.6 80.5 118.8C80.8 119 81.1 119.1 81.4 119.4L81.5 119.5C81.5 119.7 81.6 119.8 81.8 119.9C81.9 120.3 81.7 120.8 81.6 121.2C81.2 121 81.3 120.6 81.2 120.4Z" fill="black"/>
<path d="M98.6 108.3C99.1 108.8 99.7 108.9 100.3 108.7C100.9 108.4 101.1 107.9 101 107.3C101 106.6 101 105.9 101 105.3C101 104.9 101 104.5 100.4 104.5C100.9 104.3 101.4 104.4 102 104.4C101.1 104.8 101.4 105.6 101.4 106.2C101.4 106.6 101.4 107.1 101.4 107.5C101.4 108.4 101 108.9 100.3 109.1C99.3 109.4 98.4 109.1 98 108.4C98.2 108.3 98.5 108.8 98.6 108.3Z" fill="black"/>
<path d="M105.2 131C105.8 131.2 106.4 131.5 106.9 131.9C107.7 132.5 107.7 133.2 107.1 133.9L107 134C106.9 133.9 106.6 134.3 106.5 133.9C107.1 133.4 107 133 106.4 132.5C105.8 132.1 105.1 131.9 104.7 131.3C104.7 131 104.5 130.8 104.7 130.5C104.9 130.6 105 131 105.2 131Z" fill="black"/>
<path d="M84.4 129.5C85.2 129.5 85.9 129.5 86.7 129.5C87.6 129.5 87.6 129.5 87.5 130.6C87.3 130.2 87.2 129.8 86.7 129.8C86.3 129.8 85.9 129.8 85.5 129.8C85.4 129.8 85.3 129.9 85.3 130C85.3 130.5 85.3 130.9 85.3 131.4C85.3 131.5 85.4 131.6 85.5 131.6C86 131.8 86.8 131.5 87.1 130.9C87.1 131.5 87.1 132 87.1 132.6C86.9 132.3 86.9 132 86.4 131.9C85.3 131.8 85.2 131.8 85.2 132.9C85.2 133 85.2 133.2 85.2 133.3C85 133.1 85 132.9 85.1 132.7C85.3 131.9 85 131.1 85.1 130.3C85.1 129.8 85 129.5 84.4 129.5Z" fill="black"/>
<path d="M99.9 133.6C100.4 134 101 134.1 101.6 133.8C102.2 133.5 102.2 132.9 102.3 132.4C102.3 131.8 102.3 131.2 102.3 130.6C102.3 130.1 102.3 129.7 101.7 129.6C102.2 129.6 102.7 129.6 103.2 129.6C102.5 129.8 102.6 130.3 102.6 130.8C102.6 131.4 102.6 132 102.6 132.6C102.6 133.3 102.4 134 101.6 134.2C100.8 134.5 99.9 134.5 99.3 133.8C99.3 133.8 99.3 133.8 99.4 133.7C99.6 133.9 99.8 133.8 99.9 133.6Z" fill="black"/>
<path d="M91.6001 108.8C90.2001 107.8 90.0001 106.1 91.2001 104.8C91.3001 104.8 91.5001 104.8 91.6001 104.8C91.6001 105 91.5001 105.1 91.5001 105.3C91.1001 106 91.1001 107.4 91.5001 107.9C91.5001 108 91.6001 108 91.6001 108.1C91.6001 108.2 91.7001 108.3 91.8001 108.3L91.9001 108.4C91.9001 108.5 92.0001 108.6 92.1001 108.6C92.1001 108.7 92.3001 108.8 92.3001 109C92.0001 108.9 91.8001 108.8 91.6001 108.8Z" fill="black"/>
<path d="M110.1 129.7C110.1 129.8 110 129.8 110.1 129.7C109.7 130.2 109.9 130.8 109.9 131.4C109.9 132.2 109.7 133 110 133.8C109.8 134.4 109.5 134.1 109.2 133.9C109.2 132.6 109.2 131.4 109.3 130.1C109.4 130 109.5 129.9 109.2 129.9C109.5 129.4 109.8 129.8 110.1 129.7Z" fill="black"/>
<path d="M119 142.5C119 142.7 119 142.9 119 143.2C118.8 143.7 118.6 144.3 118.3 144.9C118.8 144.9 119.3 144.9 119.8 144.9C119.9 145 120 145.1 120 145.3C119.5 145.1 118.9 145.2 118.4 145.2C117.9 145.2 117.9 145.8 117.8 146.2C117.7 146.5 118.1 146.5 118.3 146.7C117.8 146.9 117.3 146.7 116.8 146.7C117.3 146.4 117.4 145.9 117.6 145.5C118.1 144.5 118.6 143.5 119 142.5Z" fill="black"/>
<path d="M84.4 129.5C84.9 129.5 85.1 129.8 85.1 130.4C85 131.2 85.2 132 85.1 132.8C85.1 133 85.1 133.2 85.2 133.4C85.2 133.6 85.2 133.7 85.2 133.9C85.1 134.1 85 134.3 84.7 134.2C84.4 134.1 84.5 133.9 84.5 133.7C84.5 132.7 84.5 131.6 84.5 130.6C84.5 130.3 84.5 130 84.3 129.8C84.3 129.6 84.3 129.5 84.4 129.5C84.4 129.5 84.4 129.4 84.4 129.5Z" fill="black"/>
<path d="M88.4 142.3C88.4 142.4 88.4 142.5 88.4 142.6C88.3 142.8 88.3 143.1 88.3 143.3C88.3 144.2 88.3 145.2 88.3 146.1C88.3 146.3 88.3 146.5 88.1 146.5C87.9 146.6 87.8 146.4 87.7 146.2C87.9 145 87.9 143.7 87.7 142.5C87.7 142.4 87.6 142.3 87.6 142.2C87.8 142.1 88.1 142.1 88.4 142.3Z" fill="black"/>
<path d="M112 144.1C111.7 144.9 111.9 145.7 111.9 146.6C111.6 146.6 111.4 146.5 111.4 146.1C111.4 144.9 111.4 143.7 111.4 142.5C111.4 142 111.7 142.1 112 142.2C112 142.9 112 143.5 112 144.1Z" fill="black"/>
<path d="M112.4 133.8C111.6 133 111.4 132 111.8 130.9C111.8 130.8 111.9 130.7 111.9 130.6C112.1 130.5 112.2 130.3 112.4 130.2C112.5 130.1 112.7 129.9 112.8 130.2C112.5 130.5 112.6 130.9 112.4 131.2C112.2 131.8 112.1 132.5 112.5 133C112.5 133.2 112.6 133.3 112.7 133.4C112.8 133.6 112.7 133.7 112.4 133.8Z" fill="black"/>
<path d="M96.1 130.4C96.2 129.5 96.3 129.5 96.9 129.7C96.9 129.8 96.9 129.9 96.9 129.9C96.7 130.2 96.5 130.5 96.9 130.8C96.9 130.9 96.9 130.9 96.9 131C96.7 131.1 96.7 131.3 96.7 131.5C96.8 132.1 96.8 132.8 96.8 133.4C96.8 134 96.7 134.1 96.1 133.9C96.1 133.8 96.2 133.7 96.2 133.7C96.4 132.7 96.4 131.7 96.2 130.6C96.2 130.6 96.1 130.5 96.1 130.4Z" fill="black"/>
<path d="M84.9 106.2C84.4 105.8 84.5 105.2 84.8 104.8C85.2 104.3 85.7 104.1 86.3 104.2C86.6 104.2 87 104.7 87.4 104.1C87.5 104.7 87.5 105.3 87.4 105.9C87.3 105.6 87.2 105.4 87.2 105.2C87 104.7 86.6 104.4 86 104.4C85.7 104.4 85.4 104.6 85.3 104.9C85.1 105.3 85.4 105.5 85.6 105.8C85.3 106 85.3 105.8 85.2 105.6C85.1 105.4 85.1 105.2 84.9 105.1C84.7 105.5 84.9 105.8 84.9 106.2Z" fill="black"/>
<path d="M93 119.2C92.5 119.5 92 119.4 91.4 119.3C91.2 119.1 91.2 118.9 91.2 118.7C91.2 118.3 91.2 118 91.2 117.6C91.2 117.4 91.3 117 91 117C90.7 117 90.8 117.4 90.8 117.6C90.8 118.3 90.8 118.9 90.8 119.6C90.8 120 90.9 120.5 90.7 120.9C90.7 119.8 90.7 118.7 90.7 117.7C90.7 117.3 90.6 117 90.1 116.8C91.2 116.9 92.4 116.4 93.3 117.3C93.3 117.3 93.3 117.3 93.2 117.4C93 117.3 92.8 117.1 92.5 117.1C92.5 117.2 92.6 117.4 92.6 117.5C92.5 117.4 92.4 117.4 92.4 117.3C92.1 117.1 91.8 117 91.5 117.2C91.2 117.3 91.4 117.6 91.4 117.9C91.4 118.1 91.4 118.4 91.4 118.6C91.3 119.1 91.6 119.2 92 119.2C92.3 119.2 92.5 119 92.7 118.8C92.7 118.9 92.7 119.1 93 119.2Z" fill="black"/>
<path d="M111.6 121.2C111.5 121 111.4 120.9 111.2 120.8C111.2 120.7 111.1 120.6 111 120.6C110.7 119.7 110.6 118.9 110.8 118C110.9 117.9 111 117.8 111 117.7C111.2 117.7 111.6 117.2 111.6 117.9C111.5 118 111.5 118.1 111.5 118.2C111.4 119.1 111.4 119.9 111.7 120.7C111.7 120.8 111.9 121.1 111.6 121.2Z" fill="black"/>
<path d="M105.2 131C104.9 131 104.9 130.6 104.7 130.5C104.5 130.8 104.7 131 104.7 131.3C104.3 130.9 104.4 130.4 104.6 129.9C104.9 129.4 105.6 129.2 106.2 129.3C106.9 129.5 106.9 129.5 107.3 129.3C107.3 129.6 107.3 129.8 107.3 130.1C107.3 130.3 107.3 130.6 107.3 130.8C106.9 130 106.5 129.2 105.4 129.7C104.8 130.1 105.1 130.6 105.2 131Z" fill="black"/>
<path d="M84 144.5C83.7 145 83.9 145.6 83.9 146.1C83.9 146.3 84 146.6 83.7 146.5C83.4 146.5 83.4 146.3 83.5 146C83.6 144.8 83.6 143.7 83.5 142.5C83.5 142.4 83.4 142.1 83.7 142.1C83.9 142.1 83.9 142.3 83.9 142.5C84 143 83.7 143.6 84.1 144C84.2 144 84.2 144 84.3 144.1C84.3 144.2 84.2 144.3 84.2 144.3C84.1 144.4 84 144.5 84 144.5Z" fill="black"/>
<path d="M98.6 108.3C98.4 108.8 98.2 108.3 98 108.4C97.8 108.2 97.9 108 97.9 107.8C97.9 106.8 98 105.9 97.8 104.9C97.8 104.8 97.8 104.8 97.8 104.7C98 104.2 98.3 104.5 98.6 104.6C98.4 104.7 98.4 104.9 98.4 105.1C98.4 106 98.3 106.8 98.5 107.7C98.5 107.9 98.6 108.1 98.6 108.3Z" fill="black"/>
<path d="M90.7 120.9C90.9 120.5 90.8 120 90.8 119.6C90.8 118.9 90.8 118.3 90.8 117.6C90.8 117.4 90.7 117 91 117C91.3 117 91.2 117.4 91.2 117.6C91.2 118 91.2 118.3 91.2 118.7C91.2 118.9 91.2 119.2 91.4 119.3C91.4 119.8 91.4 120.2 91.4 120.7C91.3 120.7 91.2 120.8 91.2 120.9C91.2 121.4 91 121.2 90.7 121.1C90.7 121 90.7 121 90.7 120.9Z" fill="black"/>
<path d="M118.6 105.4C118.6 105.2 118.6 105 118.6 104.7C118.7 104.4 118.8 104.1 119.1 104.6C119.4 105 119.3 105.4 119.6 105.8C119.6 105.9 119.6 106 119.7 106.1C119.7 106.5 119.7 106.8 120.1 107C120.1 107.2 120.1 107.5 120.4 107.6C120.3 107.9 120.1 108.1 119.9 107.7C119.8 107.5 119.6 107.4 119.5 107.2C119.4 106.9 119.3 106.7 119.3 106.4C119.3 106.3 119.2 106.3 119.2 106.2C119.2 105.9 119.2 105.7 118.9 105.5L118.8 105.4C118.7 105.4 118.7 105.4 118.6 105.4Z" fill="black"/>
<path d="M84.9 106.2C84.8 105.8 84.7 105.5 84.9 105.1C85.1 105.2 85.1 105.4 85.2 105.6C85.3 105.8 85.3 106 85.6 105.8C85.7 105.9 85.8 105.9 85.8 106C86.2 106.4 86.6 106.8 87.3 106.9C87.3 107.1 87.5 107.3 87.7 107.4C87.7 107.7 87.6 108 87.5 108.3C87.4 108.5 87.3 108.6 87.1 108.3C87.4 108 87.3 107.8 87.1 107.5C86.7 107 86.3 106.7 85.7 106.7C85.6 106.3 85.2 106.3 84.9 106.2Z" fill="black"/>
<path d="M99.4 133.8C99 133.4 99 132.9 99 132.5C99 131.8 99 131.1 99 130.5C99 130.1 99 129.7 98.4 129.5C99 129.5 99.6 129.5 100.2 129.5C99.5 129.7 99.6 130.3 99.6 130.8C99.6 131.7 99.5 132.6 99.8 133.5C99.4 133.3 99.5 133 99.5 132.6C99.5 131.8 99.5 130.9 99.5 130.1C99.5 130 99.6 129.7 99.3 129.7C99.1 129.7 99.1 129.9 99.1 130C99.2 131.3 99 132.5 99.4 133.8C99.4 133.7 99.4 133.8 99.4 133.8Z" fill="black"/>
<path d="M79.3 117.8C79.1 117.7 79.2 117.4 78.9 117.3C79.4 116.6 79.9 116.5 80.8 116.7C81.1 116.8 81.3 116.9 81.5 116.5C81.6 117.1 81.6 117.6 81.5 118.1C81.2 117.4 80.9 116.7 80 116.9C79.5 117 79.3 117.3 79.3 117.8Z" fill="black"/>
<path d="M91.5 105.4C91.5 105.2 91.6 105.1 91.6 104.9C91.5 104.9 91.3 104.9 91.2 104.9C91.9 104.2 92.7 104 93.7 104.4C94 104.5 94.3 104.6 94.6 104.3C94.6 104.8 94.6 105.3 94.7 105.8C94.3 105.3 94 104.7 93.2 104.6C92.4 104.4 91.9 104.8 91.5 105.4Z" fill="black"/>
<path d="M112.9 130.2C112.8 129.9 112.6 130.1 112.5 130.2C112.3 130.3 112.2 130.6 112 130.6C112.5 129.5 113.7 129 114.9 129.5C115.2 129.6 115.4 129.7 115.7 129.2C115.7 129.8 115.7 130.2 115.7 130.7C115.3 130.2 115.1 129.7 114.5 129.6C113.8 129.6 113.3 129.8 112.9 130.2Z" fill="black"/>
<path d="M102.5 142.9C102.4 142.7 102.3 142.7 102.1 142.7C102.5 142 103.1 141.8 103.9 142.1C104.2 142.2 104.4 142.4 104.7 142C104.8 142.5 104.8 143.1 104.7 143.7C104.4 143 104.2 142.3 103.3 142.3C102.9 142.3 102.7 142.5 102.5 142.9Z" fill="black"/>
<path d="M93.2 146.5C93.7 146.1 93.5 145.7 93.3 145.3C93.3 144.5 93.3 143.7 93.3 143C93.3 142.7 93.4 142.4 93.1 142.2C93.4 142.2 93.7 142.2 94.1 142.2C93.7 142.5 93.7 142.9 93.7 143.3C93.7 144.4 93.7 145.5 93.7 146.6C93.7 146.7 93.8 147 93.6 147C93.3 146.8 93.2 146.7 93.2 146.5Z" fill="black"/>
<path d="M117.5 121.1C117.8 120.7 117.7 120.3 117.7 119.8C117.7 119 117.7 118.3 117.7 117.5C117.7 117.3 117.6 117 118 116.8C118 117.7 118 118.5 118.1 119.3C118.1 119.4 118.1 119.5 118.2 119.6C118.1 120.1 118 120.7 118.2 121.2C117.9 121.4 117.6 121.4 117.3 121.2C117.4 121.2 117.5 121.2 117.5 121.1Z" fill="black"/>
<path d="M81.2 120.4C81.2 120.7 81.2 121 81.5 121.1C81 121.7 80.3 121.7 79.7 121.5C79.4 121.4 79.1 121.3 78.8 121.6C78.7 121 78.7 120.5 78.8 120C79.1 120.8 79.6 121.4 80.5 121.3C81 121.2 81.2 120.9 81.2 120.4Z" fill="black"/>
<path d="M111.6 117.8C111.6 117.1 111.2 117.6 111 117.6C111.5 116.8 112.2 116.5 113 116.6C113.9 116.7 114.6 117 114.9 117.9C114.9 117.9 114.9 117.9 114.8 117.9C114.7 117.8 114.5 117.6 114.4 117.5C114.1 117.2 114.1 117.5 114.1 117.7C113.3 116.6 112.4 116.6 111.6 117.8Z" fill="black"/>
<path d="M99.4001 133.7C98.9001 132.5 99.1001 131.3 99.1001 130C99.1001 129.9 99.1001 129.7 99.3001 129.7C99.6001 129.7 99.5001 129.9 99.5001 130.1C99.5001 130.9 99.5001 131.8 99.5001 132.6C99.5001 132.9 99.5001 133.3 99.8001 133.5L99.9001 133.6C99.8001 133.8 99.6001 133.9 99.4001 133.7Z" fill="black"/>
<path d="M84.6 133.6C84.7 133.8 84.5 134 84.8 134.1C85 134.2 85.2 134 85.3 133.8C86.2 134 87 134 87.8 133.3C87.8 134 87.6 134.3 86.9 134.2C85.9 134.1 84.9 134.2 83.9 134.1C84.2 134 84.5 133.9 84.6 133.6Z" fill="black"/>
<path d="M87.1 108.3C87.2 108.5 87.4 108.5 87.5 108.3C87.6 108 87.7 107.7 87.7 107.4C88 108.4 87.4 109.2 86.3 109.2C85.8 109.2 85.4 109.1 85 108.9C84.5 108.7 84.7 108.3 84.9 108C85.6 109 86.4 109.1 87.1 108.3Z" fill="black"/>
<path d="M90 144.2C90.4 144 90 143.4 90.3 143.2C90.3 144.1 90.3 145 90.3 145.9C90.3 146.3 90.3 146.7 90.9 146.7C90.4 146.9 89.9 146.8 89.3 146.8C89.9 146.7 89.9 146.3 89.9 145.8C90 145.2 90 144.7 90 144.2Z" fill="black"/>
<path d="M106.5 133.9C106.6 134.3 106.8 133.9 107 134C106.5 134.4 105.9 134.4 105.4 134.2C105.1 134.1 104.7 133.9 104.4 134.5C104.4 133.8 104.4 133.2 104.4 132.7C104.8 133.5 105.4 134.3 106.5 133.9Z" fill="black"/>
<path d="M119.8 119.7C120 120 120.2 120.2 120.4 120.5C120.7 120.9 121 121.3 121.7 121.3C120.9 121.7 120.4 121.6 120 121C119.8 120.7 119.6 120.5 119.4 120.2C119.9 120.3 119.8 120 119.8 119.7Z" fill="black"/>
<path d="M79.4 142.4C79.2 142.2 79 142.1 78.8 142.3C78.6 142.4 78.7 142.7 78.7 142.9C78.7 143.9 78.7 145 78.7 146C78.7 146.2 78.7 146.3 78.5 146.4C78.5 145.2 78.5 144.1 78.5 142.9C78.5 142.4 78.3 142.3 77.9 142.1C78.7 142.1 79.5 141.9 80.2 142.2C80.1 142.2 80 142.3 79.8 142.3C79.7 142.3 79.6 142.3 79.4 142.4Z" fill="black"/>
<path d="M112.4 133.8C112.6 133.8 112.8 133.7 112.8 133.4C113.8 134.2 114.5 134.2 115.6 133.3C115.6 133.7 115.3 134 114.8 134.2C114 134.5 113.2 134.4 112.4 133.8Z" fill="black"/>
<path d="M104.2 146.4C104.2 146.5 104.3 146.6 104.5 146.6C104 147 103.4 146.9 102.9 146.8C102.6 146.7 102.3 146.6 102 146.9C102 146.3 102 145.8 102 145.3C102.3 145.8 102.5 146.3 103.1 146.5C103.5 146.6 103.9 146.6 104.2 146.4Z" fill="black"/>
<path d="M92.5 130.7C92.4 130.5 92.4 130.3 92.3 130.1C92.3 129.9 92.2 129.8 92.4 129.7C92.6 129.6 92.7 129.7 92.8 129.8C93.1 130.4 93.3 131.1 93.7 131.6C93.8 131.7 93.7 131.8 93.6 131.8C93.5 131.8 93.4 131.7 93.4 131.6C93.4 131.3 93.2 131.2 92.9 131.1C92.8 130.9 92.8 130.7 92.7 130.5C92.5 130.3 92.5 130.6 92.5 130.7Z" fill="black"/>
<path d="M111.6 121.2C111.9 121.1 111.7 120.9 111.7 120.7C112.4 121.5 113 121.6 113.9 121C114.2 121.2 114.4 120.8 114.6 120.7C114.6 120.7 114.6 120.7 114.7 120.7C113.9 121.7 112.7 121.9 111.6 121.2Z" fill="black"/>
<path d="M91.6 108.8C91.8 108.8 92 108.9 92.2 108.9C92.3 108.7 92.1 108.7 92 108.5C93 108.9 93.9 108.7 94.5 107.7C94.5 109 92.9 109.5 91.6 108.8Z" fill="black"/>
<path d="M84.1 144.4C84.1 144.3 84.2 144.2 84.2 144.2C84.4 144.2 84.6 144.2 84.8 144.2C85.5 144.2 85.5 144.2 85.9 143.5C85.9 144.1 85.9 144.6 85.9 145.1C85.6 144.1 84.7 144.6 84.1 144.4Z" fill="black"/>
<path d="M87.7 146.4C87.8 146.5 87.9 146.8 88.1 146.7C88.3 146.6 88.3 146.4 88.3 146.3C88.3 145.4 88.3 144.4 88.3 143.5C88.3 143.3 88.3 143 88.4 142.8C88.4 143.9 88.4 145 88.4 146.1C88.4 146.5 88.4 146.9 89 146.9C88.4 146.9 87.8 146.9 87.1 146.9C87.3 146.5 87.5 146.6 87.7 146.4Z" fill="black"/>
<path d="M96 134C96.6 134.2 96.7 134.1 96.7 133.5C96.7 132.9 96.7 132.2 96.6 131.6C96.6 131.4 96.5 131.2 96.8 131.1C96.8 131.9 96.8 132.6 96.8 133.4C96.8 133.8 96.8 134.2 97.4 134.3C96.8 134.3 96.1 134.3 95.5 134.3C95.7 133.9 95.9 134 96 134Z" fill="black"/>
<path d="M109.1 142.3C108.7 142.3 109 142.6 109 142.7C108.5 142.2 107.8 142.1 107.2 142.4C107.1 142.4 106.9 142.3 106.8 142.2C107.6 141.8 108.3 141.8 109.1 142.3Z" fill="black"/>
<path d="M116.4 140.5C116 141 115.7 141.3 115.3 141.8C115.4 140.6 115.5 140.4 116.4 140.5Z" fill="black"/>
<path d="M98.4 107.7C98.2 106.9 98.3 106 98.3 105.1C98.3 104.9 98.4 104.7 98.5 104.6C98.5 105.5 98.5 106.3 98.5 107.2C98.5 107.4 98.6 107.6 98.4 107.7Z" fill="black"/>
<path d="M90.7 121.1C90.9 121.3 91.2 121.4 91.2 120.9C91.2 120.8 91.2 120.7 91.4 120.7C91.5 121.1 91.6 121.4 92.1 121.5C91.5 121.5 90.9 121.5 90.2 121.5C90.3 121.2 90.6 121.3 90.7 121.1Z" fill="black"/>
<path d="M119.8 119.7C119.9 120 120 120.3 119.5 120.3C119.5 120.2 119.4 120.1 119.3 120L119.2 119.9C119.2 119.8 119.1 119.7 119 119.7C119 119.6 118.9 119.6 118.9 119.5L118.8 119.4C118.8 119.3 118.8 119.3 118.8 119.2C119 119.2 119.1 119.1 119.2 119C119.2 119 119.2 119 119.3 119C119.4 119 119.6 119.1 119.6 119.3V119.4C119.4 119.5 119.6 119.6 119.8 119.7Z" fill="black"/>
<path d="M100.6 129.3C100.8 128 100.8 127.9 101.7 128C101.4 128.4 101 128.8 100.6 129.3Z" fill="black"/>
<path d="M88.4 142.3C88.1 142.1 87.8 142.1 87.5 142.3C87.3 142.3 87.1 142.3 87 142.1C88.1 142.1 89.2 142.1 90.3 142.1C90.1 142.2 89.8 142.3 89.6 142.3C89.2 142.1 88.8 142.2 88.4 142.3Z" fill="black"/>
<path d="M78.5 146.4C79 146.8 79.1 146.8 79.2 146.1C79.4 146.5 79.4 146.5 79.9 146.7C79.2 146.7 78.7 146.7 78.2 146.7C78.3 146.6 78.5 146.6 78.5 146.4Z" fill="black"/>
<path d="M114.9 117.9C115.4 118.9 115.3 119.8 114.7 120.7C114.7 120.7 114.7 120.7 114.6 120.7C115 119.8 115.2 118.9 114.9 117.9C114.9 118 114.9 118 114.9 117.9Z" fill="black"/>
<path d="M85.7 106.7C86.3 106.7 86.8 107 87.1 107.5C87.3 107.7 87.4 108 87.1 108.3C87.2 107.8 86.9 107.5 86.5 107.3C86.2 107.1 86 106.9 85.7 106.7Z" fill="black"/>
<path d="M109.2 133.9C109.5 134.1 109.8 134.4 110 133.8C110.1 134 110.4 134.1 110.6 134.2C110 134.2 109.3 134.2 108.5 134.2C108.9 134 109.1 133.9 109.2 133.9Z" fill="black"/>
<path d="M98.5 104.6C98.2 104.5 97.9 104.2 97.7 104.7C97.6 104.5 97.3 104.5 97.1 104.3C97.8 104.2 98.4 104.2 99.1 104.3C98.9 104.4 98.7 104.5 98.5 104.6Z" fill="black"/>
<path d="M110 133.7C109.7 132.9 109.9 132.1 109.9 131.3C109.9 130.8 109.7 130.2 110.1 129.7C110 131.1 110 132.4 110 133.7Z" fill="black"/>
<path d="M110.1 129.7C109.8 129.7 109.5 129.4 109.2 129.8C109 129.7 108.8 129.6 108.6 129.6V129.5C109.2 129.5 109.8 129.5 110.5 129.5C110.5 129.7 110.2 129.6 110.1 129.7Z" fill="black"/>
<path d="M87.7 142.6C87.9 143.8 87.9 145.1 87.7 146.3C87.7 145.1 87.7 143.8 87.7 142.6Z" fill="black"/>
<path d="M110.9 118C110.7 118.9 110.8 119.8 111.1 120.6C110.5 119.8 110.4 118.9 110.9 118Z" fill="black"/>
<path d="M117.4 121.3C117.7 121.4 118 121.4 118.3 121.3C118.5 121.3 118.7 121.3 118.9 121.4C118.3 121.7 117.6 121.6 117 121.6C117 121.1 117.3 121.5 117.4 121.3Z" fill="black"/>
<path d="M96.2 130.7C96.4 131.7 96.4 132.7 96.2 133.8C96.2 132.7 96.2 131.7 96.2 130.7Z" fill="black"/>
<path d="M91.5 107.9C91.1 107.4 91 106.1 91.5 105.3C91.3 106.2 91.2 107.1 91.5 107.9Z" fill="black"/>
<path d="M87.3 106.8C86.7 106.8 86.2 106.3 85.8 105.9C86.3 106.2 86.9 106.4 87.3 106.8Z" fill="black"/>
<path d="M97.8 104.9C98 105.8 97.9 106.8 97.9 107.8C97.6 106.8 97.8 105.8 97.8 104.9Z" fill="black"/>
<path d="M79.3 104.6C79.3 105.2 79.3 105.8 79.3 106.3C78.9 105.8 79 105.2 79.3 104.6Z" fill="black"/>
<path d="M93.4 117.3C93.8 117.8 93.8 118.2 93.5 118.7C93.5 118.7 93.5 118.7 93.4 118.7C93.6 118.2 93.5 117.8 93.4 117.3C93.3 117.3 93.4 117.3 93.4 117.3Z" fill="black"/>
<path d="M112.6 133C112.1 132.4 112.3 131.8 112.5 131.2C112.5 131.8 112.4 132.4 112.6 133Z" fill="black"/>
<path d="M120.6 132.3C120.8 132.7 120.9 133.1 121.1 133.4C121.1 133.4 121.1 133.4 121 133.4C120.8 133.3 120.8 132.9 120.5 132.9C120.5 132.8 120.5 132.6 120.6 132.3C120.5 132.4 120.5 132.4 120.6 132.3Z" fill="black"/>
<path d="M119.6 142.7C119.4 142.6 119.3 142.2 119 142.6C119 142.4 119.1 142.2 119.3 142C119.5 142.1 119.6 142.4 119.6 142.7Z" fill="black"/>
<path d="M81.5 121.1C81.6 120.7 81.8 120.3 81.7 119.8C82 120.3 81.9 120.7 81.5 121.1Z" fill="black"/>
<path d="M85 106.2C85.3 106.3 85.7 106.3 85.7 106.7C85.4 106.6 85.1 106.5 85 106.2Z" fill="black"/>
<path d="M96.9 130.8C96.6 130.5 96.7 130.2 96.9 129.9C96.9 130.2 96.9 130.5 96.9 130.8Z" fill="black"/>
<path d="M120.1 107C119.8 106.8 119.7 106.5 119.7 106.1C119.9 106.3 120.1 106.6 120.1 107Z" fill="black"/>
<path d="M105.8 143.5C105.9 143.9 105.7 144.2 105.7 144.6C105.6 144.2 105.6 143.8 105.8 143.5Z" fill="black"/>
<path d="M104.4 145.6C104.6 145.9 104.6 146.2 104.2 146.3C104.4 146.1 104.5 145.9 104.4 145.6Z" fill="black"/>
<path d="M93.5 118.7C93.4 118.9 93.3 119.1 93 119.2C93 119.2 93 119.2 93 119.1C93.1 119 93.3 118.8 93.5 118.7Z" fill="black"/>
<path d="M84.3 129.5C84.3 129.6 84.3 129.6 84.3 129.7C84.1 129.7 84 129.7 83.9 129.6C84 129.4 84.2 129.4 84.3 129.5Z" fill="black"/>
<path d="M106.5 142.5C106.4 142.8 106.3 142.9 106 143C106.1 142.8 106.3 142.6 106.5 142.5Z" fill="black"/>
<path d="M120.4 107.6C120.2 107.5 120.1 107.2 120.1 107C120.3 107.1 120.3 107.3 120.4 107.6Z" fill="black"/>
<path d="M87.7 107.3C87.5 107.2 87.4 107 87.3 106.8C87.5 106.9 87.6 107.1 87.7 107.3Z" fill="black"/>
<path d="M110.1 143.6C109.9 143.4 109.8 143.2 109.8 143C110 143.2 110.1 143.4 110.1 143.6Z" fill="black"/>
<path d="M119.7 118.3C119.7 118.1 119.7 117.8 119.7 117.6C119.7 117.6 119.7 117.6 119.8 117.6C119.9 117.8 119.9 118.1 119.7 118.3C119.8 118.3 119.7 118.3 119.7 118.3Z" fill="black"/>
<path d="M119.8 119.7C119.7 119.6 119.5 119.6 119.5 119.3C119.6 119.4 119.7 119.5 119.8 119.7Z" fill="black"/>
<path d="M119.1 118.9C119 119 118.9 119.1 118.7 119.1C118.8 118.9 119 119 119.1 118.9Z" fill="black"/>
<path d="M82.5 130.4C82.7 130.5 82.7 130.7 82.7 130.9C82.6 130.8 82.5 130.6 82.5 130.4Z" fill="black"/>
<path d="M112.8 133.4C112.6 133.3 112.5 133.2 112.6 133C112.7 133.1 112.8 133.3 112.8 133.4Z" fill="black"/>
<path d="M81.7 119.8C81.5 119.7 81.5 119.6 81.4 119.4C81.6 119.5 81.7 119.6 81.7 119.8Z" fill="black"/>
<path d="M120 145.3C120.2 145.4 120.2 145.5 120.2 145.7C120.2 145.6 120.1 145.4 120 145.3Z" fill="black"/>
<path d="M109.2 129.8C109.4 129.8 109.4 129.9 109.3 130C109.3 130 109.3 129.9 109.2 129.8Z" fill="black"/>
<path d="M119.8 106.1C119.7 106 119.7 105.9 119.7 105.8C119.7 105.9 119.8 106 119.8 106.1Z" fill="black"/>
<path d="M106.8 142.3C106.7 142.4 106.6 142.5 106.5 142.5C106.6 142.4 106.6 142.3 106.8 142.3Z" fill="black"/>
<path d="M111 117.6C111 117.7 111 117.8 110.8 117.9C110.9 117.8 111 117.7 111 117.6Z" fill="black"/>
<path d="M111.2 120.8C111.3 120.8 111.4 120.9 111.5 121.1C111.3 121 111.3 120.9 111.2 120.8Z" fill="black"/>
<path d="M119.2 119.9C119.3 119.9 119.4 120 119.4 120.2C119.3 120.1 119.3 120 119.2 119.9Z" fill="black"/>
<path d="M80.9 146.1C81 146.2 81.1 146.3 81.1 146.4C81 146.3 80.9 146.2 80.9 146.1Z" fill="black"/>
<path d="M120 143.6C119.9 143.5 119.8 143.4 119.8 143.2C120 143.3 120 143.5 120 143.6Z" fill="black"/>
<path d="M109.9 143C109.8 142.9 109.7 142.8 109.7 142.7C109.8 142.8 109.8 142.9 109.9 143Z" fill="black"/>
<path d="M119.9 143.3C119.8 143.2 119.7 143.1 119.8 142.9C119.8 143 119.9 143.1 119.9 143.3Z" fill="black"/>
<path d="M120.2 143.9C120.1 143.8 120.1 143.7 120.1 143.6C120.1 143.7 120.1 143.8 120.2 143.9Z" fill="black"/>
<path d="M92.1 108.6C92 108.6 91.9 108.5 91.9 108.4C92 108.4 92 108.5 92.1 108.6Z" fill="black"/>
<path d="M111 120.6C111.1 120.6 111.2 120.7 111.2 120.8C111.1 120.8 111.1 120.7 111 120.6Z" fill="black"/>
<path d="M112 130.6C112 130.7 111.9 130.8 111.9 130.9C111.8 130.8 111.9 130.7 112 130.6Z" fill="black"/>
<path d="M119 119.6C119.1 119.6 119.2 119.7 119.2 119.8C119.1 119.7 119 119.6 119 119.6Z" fill="black"/>
<path d="M91.8 108.3C91.7 108.3 91.6 108.2 91.6 108.1C91.7 108.1 91.7 108.2 91.8 108.3Z" fill="black"/>
<path d="M105.9 143.2C105.9 143.3 105.8 143.4 105.8 143.5C105.8 143.4 105.8 143.3 105.9 143.2Z" fill="black"/>
<path d="M106 143C106 143.1 106 143.2 105.9 143.3C105.9 143.1 105.9 143.1 106 143Z" fill="black"/>
<path d="M119.7 142.9C119.7 142.8 119.6 142.8 119.6 142.7C119.7 142.7 119.7 142.8 119.7 142.9Z" fill="black"/>
<path d="M90.1 143.3C90.1 143.4 90.1 143.4 90.1 143.3C90 143.3 90 143.3 90.1 143.3Z" fill="black"/>
<path d="M90 142.8C90.1 142.8 90 142.9 90 142.8V142.8Z" fill="black"/>
<path d="M109.7 142.7C109.6 142.7 109.6 142.6 109.5 142.6C109.6 142.6 109.6 142.7 109.7 142.7Z" fill="black"/>
<path d="M109.5 142.6C109.4 142.5 109.5 142.6 109.5 142.6V142.6Z" fill="black"/>
<path d="M109.4 142.5C109.3 142.4 109.4 142.4 109.4 142.5V142.5Z" fill="black"/>
<path d="M109.3 142.4C109.2 142.3 109.2 142.4 109.3 142.4V142.4Z" fill="black"/>
<path d="M90 143.8C90.1 143.8 90.1 143.8 90 143.8C90 143.9 90 143.9 90 143.8Z" fill="black"/>
<path d="M91.6 108.1C91.6 108 91.5 108 91.5 107.9C91.5 108 91.6 108 91.6 108.1Z" fill="black"/>
<path d="M81.5 119.4C81.4 119.3 81.4 119.4 81.5 119.4V119.4Z" fill="black"/>
<path d="M119.1 119.8C119.2 119.9 119.2 119.9 119.1 119.8V119.8Z" fill="black"/>
<path d="M118.9 119.4C118.9 119.5 119 119.5 119 119.6C118.9 119.5 118.9 119.5 118.9 119.4Z" fill="black"/>
<path d="M100.3 113.1C93.5 113.1 86.7 113.1 79.9 113.1C79.6 113.1 79.1 113.3 79.1 112.9C79.1 112.4 79.6 112.6 79.9 112.6C93.4 112.6 106.9 112.6 120.4 112.6C120.7 112.6 121.4 112.4 121.4 112.9C121.4 113.3 120.8 113.1 120.4 113.1C113.7 113.1 107 113.1 100.3 113.1Z" fill="black"/>
<path d="M102 117.2C102 118.1 102.1 119.1 102.1 120C102.1 120.3 102.1 120.6 102.1 120.9C102.1 121 102.1 121.2 101.9 121.2C101.8 121.2 101.7 121.1 101.7 121C101.7 119.8 101.7 118.5 101.7 117.3C101.8 117.2 101.9 117.2 102 117.2Z" fill="black"/>
<path d="M103.7 117.5C103.7 117.2 103.8 117.1 104.1 117.3C104.5 117.6 104.7 118.4 103.8 118.8C103.8 118.4 104.2 117.9 103.7 117.5Z" fill="black"/>
<path d="M106.4 144C106.4 144.3 106.4 144.5 106.4 144.8C106.2 144.6 106.2 144.3 106.4 144Z" fill="black"/>
<path d="M106.5 145.1C106.5 145.2 106.5 145.4 106.6 145.5C106.4 145.4 106.4 145.2 106.5 145.1Z" fill="black"/>
<path d="M79.1999 142.5C79.3999 143.1 79.3 143.7 79.3 144.2C79 143.7 79.1999 143.1 79.1999 142.5Z" fill="black"/>
<path d="M120.5 132.4C120.5 132.6 120.5 132.8 120.5 133C120.3 133 120.2 132.8 120.1 132.6C120 132.4 119.8 132.2 120.1 132.1C120.4 131.9 120.3 132.3 120.5 132.4Z" fill="black"/>
<path d="M120.5 133C120.8 133 120.7 133.4 121 133.5C121 133.7 121 133.9 120.8 133.9C120.5 133.9 120.6 133.6 120.6 133.5C120.5 133.3 120.5 133.2 120.5 133Z" fill="black"/>
<path d="M96.7 121.1C96.6 121.3 96.4 121.4 96.2 121.3C96 121.3 96 121 96 120.9C96 119.7 96 118.6 96 117.4C96 117.2 95.9 117 96.2 117C96.4 117 96.5 117.2 96.5 117.4C96.5 118.4 96.5 119.4 96.5 120.4C96.5 120.6 96.5 120.9 96.7 121.1Z" fill="black"/>
<path d="M79.4 131.8C79.4 132.4 79.4 133 79.4 133.7C79.4 133.8 79.4 134 79.2 134C79 134 78.9 133.8 78.9 133.7C79.1 132.5 78.9 131.3 78.9 130.1C78.9 129.9 78.8 129.6 79.1 129.6C79.4 129.6 79.3 129.9 79.3 130.1C79.4 130.7 79.4 131.3 79.4 131.8Z" fill="black"/>
<path d="M82.4 130.5C82.5 130.7 82.6 130.8 82.7 131C82.8 131.8 82.8 132.6 82.3 133.2C82.2 133.3 82.1 133.4 82 133.4C81.8 133.3 81.9 133.2 81.9 133C82.3 132.5 82.4 131.4 82.1 130.7C82 130.4 81.8 130.1 81.4 130.2C81.4 129.9 81.6 129.8 81.8 130C82 130.1 82.2 130.3 82.4 130.5Z" fill="black"/>
<path d="M79.3001 104.6C79.1001 105.2 78.9001 105.8 79.3001 106.4C79.1001 107 79.1001 107.7 79.2001 108.3C79.2001 108.5 79.3001 108.7 79.0001 108.7C78.7001 108.7 78.8001 108.5 78.8001 108.3C78.8001 107.1 78.8001 106 78.8001 104.8C78.8001 104.6 78.8001 104.4 79.1001 104.4C79.1001 104.4 79.3001 104.3 79.3001 104.6Z" fill="black"/>
<path d="M111.6 106.8C111.6 106.2 111.6 105.6 111.6 105C111.6 104.7 111.6 104.4 112 104.4C112.4 104.5 112 104.8 112.1 104.9C112.3 106 112 107.1 112.1 108.3C112.1 108.5 112.2 108.8 111.9 108.7C111.6 108.7 111.7 108.4 111.7 108.2C111.6 107.8 111.6 107.3 111.6 106.8Z" fill="black"/>
<path d="M120.6 108.5C120.6 108.6 120.5 108.7 120.4 108.7C120.2 108.7 120.2 108.5 120.2 108.4C120.2 108.3 120.3 108.2 120.4 108.2C120.5 108.3 120.6 108.4 120.6 108.5Z" fill="black"/>
<path d="M119.8 118.3C119.9 118 119.9 117.8 119.8 117.5C119.7 117.3 119.7 117.2 119.6 117C120.4 117.4 120.5 117.8 120.2 118.5C120.1 118.6 120.1 118.7 119.9 118.7C119.7 118.6 119.8 118.5 119.8 118.3Z" fill="black"/>
<path d="M92.7 118.7C92.7 118.6 92.8 118.5 92.8 118.4C93 118 93 117.7 92.7 117.4C92.7 117.3 92.6 117.1 92.6 117C92.9 117 93.1 117.1 93.3 117.3C93.5 117.7 93.6 118.2 93.4 118.6C93.2 118.8 93.1 118.9 92.9 119.1C92.7 119.1 92.7 118.9 92.7 118.7Z" fill="black"/>
<path d="M111.6 117.8C111.6 117.9 111.6 118 111.5 118.1C111.5 118 111.5 117.9 111.6 117.8Z" fill="black"/>
<path d="M119.1 106.2C118.9 106 118.9 105.8 118.8 105.5C119.1 105.6 119.1 105.9 119.1 106.2Z" fill="black"/>
<path d="M118.9 105.5C118.8 105.4 118.8 105.5 118.9 105.5V105.5Z" fill="black"/>
<path d="M119.2 106.4C119.2 106.3 119.1 106.3 119.1 106.2C119.2 106.3 119.2 106.3 119.2 106.4Z" fill="black"/>
<path d="M113.9 120.9C114 120.6 114.2 120.4 114.3 120.1C114.7 119.5 114.6 118.3 114.2 117.7C114.3 117.6 114.3 117.3 114.5 117.5C114.6 117.6 114.8 117.8 114.9 117.9C115.2 118.8 115 119.7 114.7 120.6C114.4 120.7 114.3 121.1 113.9 120.9Z" fill="black"/>
<path d="M81.4 130.2C81.8 130.2 81.9 130.5 82.1 130.7C82.5 131.4 82.4 132.5 81.9 133C82.2 132 82.2 131 81.4 130.2Z" fill="black"/>
<path d="M92.7 117.5C93.1 117.8 93 118.1 92.8 118.5C92.8 118.1 92.8 117.8 92.7 117.5Z" fill="black"/>
<path d="M114.2 117.7C114.7 118.3 114.8 119.5 114.3 120.1C114.5 119.3 114.4 118.5 114.2 117.7Z" fill="black"/>
</svg>
