<svg width="200" height="200" fill="none" xmlns="http://www.w3.org/2000/svg"><path fill="#fff" d="M0 0h200v200H0z"/><g clip-path="url(#clip0)" fill="#000"><path d="M134.343 111.667v.133h17.464l.106-.08-.026-.026-.08-.027h-17.464zm40.705-16.133l.187-.133h-28.699l-.107.08.027.026.08.027h28.512z"/><path d="M179.787 72.16L146.562 95.4h-12.219v28.619l17.464-12.22h27.98V95.401h-4.526l4.526-3.168V72.16zm-30.509 32.266c-.133.692.026 2.875.852 3.035a1.1 1.1 0 00.772-.133l.719-.399.133 2.901h-4.606c.16-1.198.24-2.183.32-3.061l.159-2.343c-.931-.133-1.943-.479-2.795-1.145-.745-.612-1.171-1.357-1.225-2.263-.106-1.597 1.997-3.594 4.712-3.594h.799c.293.027.586.054.905.133-.186.4-.426.879-.479 1.704a3.036 3.036 0 00-.878-.133c-1.97 0-2.503 1.331-2.503 1.837 0 1.305 1.278 1.757 2.236 1.837.693.08 1.358-.08 1.944-.479.426-.293.532-.399.745-.879.506.267 1.651.346 2.476.054-.186 1.65-2.423 2.875-4.286 2.928zm-118.682 4.632H23.06V95.401h-3.008v14.376c0 .612.213 1.145.613 1.544.399.373.931.559 1.57.559h8.36v-2.822zm17.57 2.849l-5.723-15.308c-.32-.852-.985-1.304-1.89-1.304-.906 0-1.598.479-1.89 1.304l-5.831 15.308H36l1.304-3.381h6.363l1.305 3.381h3.194zm-5.484-6.203H38.29l2.237-6.017 2.156 6.017zm20.952 1.704a4.19 4.19 0 00-.346-1.731 5.521 5.521 0 00-.985-1.437l-.772-.799.586-.799c.266-.426.479-.852.665-1.304a4.62 4.62 0 00.266-1.624c0-1.411-.452-2.503-1.358-3.248-.851-.692-1.97-1.065-3.354-1.065h-4.978c-.64 0-1.172.186-1.544.56-.293.265-.613.745-.613 1.517v12.326c0 .612.24 1.144.64 1.544.399.373.931.559 1.57.559h5.058c1.544 0 2.822-.399 3.727-1.198.959-.825 1.438-1.917 1.438-3.301zM60.12 99.74c0 .293-.053.56-.16.826a4.454 4.454 0 01-.4.798l-.612.879h-4.792v-4.1h4.18c.48 0 1.092.08 1.384.4.267.319.4.692.4 1.197zm-5.964 9.372v-4.127h4.872l.905.958c.24.24.426.506.56.773.106.239.16.479.16.772 0 .532-.16.905-.48 1.171-.346.293-.905.453-1.65.453h-4.367zm27.767-5.431c0-1.305-.186-2.476-.532-3.515a7.193 7.193 0 00-1.544-2.635 6.654 6.654 0 00-2.423-1.65c-.931-.374-1.97-.56-3.061-.56-1.118 0-2.157.186-3.088.56a6.857 6.857 0 00-2.476 1.65c-.693.719-1.225 1.624-1.598 2.662-.372 1.012-.532 2.21-.532 3.488 0 1.304.186 2.475.532 3.487.373 1.038.879 1.944 1.544 2.636a6.641 6.641 0 002.423 1.65c.932.373 1.944.559 3.088.559a8.7 8.7 0 003.062-.532c.958-.373 1.784-.905 2.476-1.651.692-.718 1.224-1.624 1.57-2.635.4-.985.56-2.183.56-3.514zm-10.941 4.206a4.894 4.894 0 01-.932-1.731c-.24-.718-.346-1.544-.346-2.475 0-1.837.426-3.248 1.224-4.18.8-.932 1.89-1.385 3.355-1.385.719 0 1.384.107 1.943.347.56.24 1.038.559 1.438 1.038.4.48.692 1.038.905 1.73.24.693.346 1.544.346 2.476 0 1.864-.4 3.275-1.225 4.233-.798.905-1.89 1.358-3.327 1.358a5.186 5.186 0 01-1.97-.373 3.891 3.891 0 01-1.411-1.038zm27.075 4.02l-3.435-7.215.932-1.171a9.19 9.19 0 00.879-1.491 4.427 4.427 0 00.399-1.864c0-1.517-.453-2.715-1.331-3.54-.852-.799-2.05-1.198-3.514-1.198h-4.819c-.666 0-1.171.186-1.57.559-.267.266-.613.719-.613 1.517v14.429h2.982v-6.123h3.913l2.875 6.123h3.302v-.026zm-10.09-8.865V98.17h3.993c.4 0 .719.053.958.16.24.08.4.213.533.346.133.16.24.346.32.585.08.267.106.586.106.932 0 .346-.08.639-.213.958-.186.373-.4.693-.64 1.039l-.638.878h-4.42v-.026zm27.66 8.865l-5.724-15.308c-.292-.852-.985-1.304-1.89-1.304-.931 0-1.597.479-1.89 1.304l-5.83 15.308h3.168l1.304-3.381h6.39l1.304 3.381h3.168zm-5.484-6.203h-4.419l2.236-6.017 2.183 6.017zm10.755 3.354V95.401h-3.034v14.376c0 .612.213 1.145.612 1.544.399.373.932.559 1.597.559h8.36v-2.822h-7.535zm-20.445 17.624l-.906.213-.665.107-.533.053-.426.027c-.452 0-.825-.054-1.144-.187a1.989 1.989 0 01-.746-.479 1.527 1.527 0 01-.373-.745 3.582 3.582 0 01-.106-.932v-5.91h-1.278v6.043c0 .479.08.905.187 1.304.133.426.319.772.612 1.065a3.4 3.4 0 001.065.719c.452.16.985.266 1.597.266l1.118-.08c.453-.026 1.065-.159 1.837-.346.666-.159.985-.585.985-1.224v-7.747h-1.251v7.853h.027zm8.865.133l-1.065.213-.666.054c-.559 0-.931-.134-1.144-.453-.213-.293-.32-.772-.32-1.411v-5.245h3.168v-1.144h-3.168v-2.423l-1.251.266v2.157h-1.491v1.144h1.491v5.352c0 1.97.905 2.955 2.689 2.955.399 0 1.065-.08 1.97-.267l-.213-1.198zm19.115-.133v-4.818c0-.559-.08-1.039-.267-1.438-.186-.399-.426-.719-.745-.958a2.55 2.55 0 00-1.065-.559 5.125 5.125 0 00-1.304-.16s-1.811-.053-3.967.506l.266 1.144s1.997-.559 3.674-.479h.027c.665 0 1.171.16 1.57.453.426.293.613.825.613 1.517v1.065h-2.822c-.48 0-.959.053-1.411.133a3.877 3.877 0 00-1.172.479 2.226 2.226 0 00-.798.852c-.213.346-.293.799-.293 1.331 0 .799.266 1.438.798 1.891.533.452 1.278.692 2.263.692.373 0 .799-.053 1.252-.133l1.331-.293.692-.186.186-.027v.532h1.225v-1.544h-.053zm-1.225-.106l-1.038.239-1.252.24c-.399.053-.718.08-.985.08-.639 0-1.118-.133-1.464-.373-.346-.239-.506-.612-.506-1.118 0-.586.213-1.012.639-1.251.426-.24 1.012-.4 1.784-.4h2.849v2.583h-.027zm-41.025-10.17l-1.225.266v11.501h1.225v-4.792h1.677l3.222 4.765h1.49l-3.62-5.377 3.647-3.94h-1.65l-3.062 3.327H86.21v-5.75h-.027zm32.825 11.74l-2.609-4.685 2.556-4.632h-1.544l-1.997 3.94h-.585l-1.997-3.94h-1.544l2.556 4.632-2.609 4.685h1.49l2.104-4.179h.585l2.103 4.179h1.491z"/></g><defs><clipPath id="clip0"><path fill="#fff" transform="translate(20 72)" d="M0 0h160v56.439H0z"/></clipPath></defs></svg>