<svg width="200" height="200" fill="none" xmlns="http://www.w3.org/2000/svg"><path fill="#fff" d="M0 0h200v200H0z"/><path fill-rule="evenodd" clip-rule="evenodd" d="M33.727 103.017h132.336V68.82H33.727v34.197zm132.336 3.727H33.727v24.529h132.336v-24.529zm-136.04-41.65H169.79v69.883H30.023V65.093z" fill="#000"/><path fill-rule="evenodd" clip-rule="evenodd" d="M114.303 122.258c0-2.772-1.351-3.983-4.216-4.892-1.212-.396-2.703-.745-2.703-1.7 0-.792.49-1.142 1.212-1.142h.419c.815 0 1.444.443 1.887 1.281l.489.07 2.539-1.7.047-.536c-.326-.536-.722-1.048-1.165-1.421-.955-.839-2.236-1.305-3.82-1.305h-.373c-3.354 0-5.358 1.817-5.358 4.892 0 2.749 1.468 3.821 4.077 4.729 1.63.559 2.865.722 2.865 1.817 0 .722-.489 1.141-1.235 1.141h-.768c-.816 0-1.445-.442-1.887-1.281l-.489-.07-2.539 1.701-.047.512c.256.466.582.886.978 1.258.979.955 2.353 1.514 4.03 1.514h.746c3.401 0 5.311-1.817 5.311-4.868zm32.286 4.309v-15.118l-.279-.256h-3.588l-.209.256v15.118l.209.257h3.588l.279-.257zm-5.777-11.95v-3.168l-.233-.256h-10.18l-.209.256v15.118l.209.257h3.611l.256-.257V121l.28-.28h4.938l.233-.209v-3.192l-.233-.233h-4.938l-.28-.279v-1.701l.28-.279h6.01l.256-.21zm15.095 6.849l-.21.21h-1.421l-.233-.21.443-1.934c.349-1.467.512-3.051.512-3.051h.07s.163 1.584.466 3.051l.373 1.934zm5.73 5.031l-5.101-15.118-.21-.163h-2.655l-.257.163-5.124 15.118.233.327h3.773l.21-.163.652-1.864.303-.163h2.935l.326.163.629 1.864.21.163h3.843l.233-.327zm-77.617.024v-15.072l-.233-.256H80.34l-.21.256v4.007c0 2.19.117 4.123.117 4.123h-.07s-.186-.536-.535-1.188l-3.611-6.965-.326-.233h-3.098l-.21.256v15.072l.21.233h3.517l.233-.233v-3.937c0-2.027-.14-3.983-.14-3.983h.094s.186.535.512 1.118l3.634 6.802.28.209h3.051l.233-.209zm-14 0v-15.072l-.28-.256h-3.587l-.21.256v15.072l.21.233h3.587l.28-.233zm54.183-4.03c0 .582-.443 1.001-1.188 1.001h-1.7c-.862 0-1.305-.396-1.305-1.001v-6.942c0-.512.582-1.048 1.305-1.048h1.7c.699 0 1.188.442 1.188 1.048v6.942zm4.053 0v-6.942c0-2.819-2.12-4.636-5.241-4.636h-1.7c-3.122 0-5.288 1.841-5.288 4.636v6.942c0 2.795 2.119 4.635 5.288 4.635h1.7c3.121 0 5.241-1.84 5.241-4.635zm-35.035-1.048l-.21.209h-1.42l-.233-.209.442-1.934c.35-1.444.513-3.028.513-3.028h.07s.163 1.584.466 3.028l.372 1.934zm5.73 5.008l-5.1-15.072-.21-.163h-2.656l-.233.163-5.101 15.072.233.326h3.75l.21-.163.652-1.864.303-.163h2.935l.326.163.629 1.864.21.163h3.82l.233-.326zm-35.36.07v-3.168l-.233-.21h-6.01l-.303-.279v-1.911l.303-.279h4.938l.256-.21v-3.191l-.256-.233h-4.938l-.303-.28v-1.7l.303-.28h6.01l.233-.209v-3.168l-.233-.257H53.2l-.21.257v15.071l.21.233h10.157l.233-.186zm-12.626-.07l-2.4-6.196.117-.536c1.072-.699 1.77-1.887 1.77-3.401v-.233c0-3.028-2.05-4.892-5.24-4.892h-6.803l-.21.256v15.072l.21.233h3.611l.233-.233v-5.568l.303-.279h1.677l.21.163 2.236 5.73.21.163h3.843l.233-.279zm-4.519-10.11c0 .676-.466.978-1.211.978h-2.68l-.302-.279v-1.957l.303-.279h2.655c.816 0 1.212.372 1.212 1.048v.489h.023zm68.556-31.937h-1.188c-2.12 0-3.471-1.234-3.471-3.075v-4.961c0-1.84 1.374-3.075 3.471-3.075h1.188c2.073 0 3.424 1.234 3.424 3.075v.722h-2.353v-.722c0-.583-.466-.979-1.071-.979h-1.188c-.583 0-1.142.443-1.142.979v4.938c0 .606.466.955 1.142.955h1.188c.629 0 1.071-.396 1.071-.955v-.699h2.353v.722c0 1.817-1.351 3.075-3.424 3.075zm-9.318-10.878l3.517 10.669h-2.539l-.419-1.305-.443-.28h-2.049l-.42.28-.442 1.305h-2.493l3.518-10.67h1.77zm-.233 7.081l-.14.163h-1.001l-.163-.163.302-1.374c.233-1.048.35-2.166.35-2.166h.046s.117 1.141.326 2.166l.28 1.374zm23.807 3.82h-1.188c-2.12 0-3.471-1.234-3.471-3.074V76.39c0-1.84 1.374-3.075 3.471-3.075h1.188c2.073 0 3.424 1.235 3.424 3.075v4.962c0 1.84-1.351 3.075-3.424 3.075zm.839-3.098c0 .42-.303.723-.839.723h-1.188c-.606 0-.908-.28-.908-.723v-4.961c0-.373.419-.746.908-.746h1.188c.489 0 .839.326.839.746v4.961zm19.031-7.803l3.518 10.669h-2.539l-.42-1.305-.442-.28h-2.05l-.42.28-.442 1.305h-2.493l3.518-10.67h1.77zm-.233 7.081l-.163.163h-.978l-.163-.163.303-1.374a21.96 21.96 0 00.349-2.166h.047s.116 1.141.326 2.166l.279 1.374zm-26.159-7.081v10.669h-2.376v-10.67h2.376zm38.645 8.549v2.12h-6.942v-10.67h2.376v8.224l.327.326h4.239zm-62.639-8.55v10.67h-2.026l-3.331-5.824v5.824h-2.307v-10.67h2.073l3.425 5.987v-5.986h2.166zm-40.113 0v7.828c0 1.84-1.351 3.075-3.424 3.075h-1.188c-2.12 0-3.448-1.235-3.448-3.075v-7.827h2.306v7.827c0 .605.42.955 1.142.955h1.188c.699 0 1.095-.373 1.095-.955v-7.827h2.33zm24.296 10.88h-1.188c-2.12 0-3.47-1.235-3.47-3.076v-4.961c0-1.84 1.374-3.075 3.47-3.075h1.188c2.074 0 3.425 1.234 3.425 3.075v4.961c0 1.84-1.351 3.075-3.425 3.075zm.839-3.076c0 .42-.303.723-.839.723h-1.188c-.605 0-.908-.28-.908-.723v-4.961c0-.373.419-.746.908-.746h1.188c.49 0 .839.326.839.746v4.961zm-17.96-4.891c-.326-.653-.816-1.025-1.514-1.025h-.28c-.606 0-1.095.326-1.095 1.048 0 .49.373.792.746.978l.652.257.652.21c1.934.628 2.795 1.443 2.795 3.26 0 2.027-1.21 3.238-3.494 3.238h-.535c-1.119 0-2.004-.372-2.656-1.001l-.652-.862-.024-.07 1.77-1.212c.35.63.84 1.025 1.515 1.025h.536c.629 0 1.095-.396 1.095-1.048 0-.512-.303-.815-.7-1.025l-.651-.256-.792-.256c-1.794-.63-2.703-1.351-2.703-3.168 0-2.05 1.305-3.262 3.518-3.262h.256c1.048 0 1.91.327 2.516.886l.769.978.046.07-1.77 1.235zM48.1 73.526v10.669h-2.213v-5.708l-1.724 4.357-.07.023H42.44l-.07-.023-1.7-4.38v5.708h-2.26v-10.67h2.423l2.493 6.243 2.376-6.243 2.399.024zm94.436 0v10.669h-2.027l-3.331-5.824v5.824h-2.306v-10.67h2.073l3.425 5.987v-5.986h2.166zm-65.807 8.549v2.12h-6.942v-10.67h6.942v2.12h-4.263l-.303.28v1.538l.326.256h3.518v2.12h-3.518l-.303.256v1.724l.327.233h4.216v.023zm52.645 5.567l3.518 10.67h-2.539l-.42-1.282-.442-.28h-2.05l-.419.28-.443 1.304h-2.492l3.517-10.669h1.77v-.023zm-.233 7.105l-.163.163H128l-.163-.163.303-1.374c.233-1.049.349-2.167.349-2.167h.047s.116 1.142.326 2.167l.279 1.374zm12.51-.792l1.63 4.356h-2.492l-1.561-4.077-.373-.279h-1.188l-.442.443v3.913h-2.376V87.642h4.682c2.12 0 3.424 1.235 3.424 3.261v.163c0 1.025-.466 1.794-1.141 2.237l-.163.652zm-1.445-2.865c0 .466-.326.699-.862.699h-1.863l-.21-.187v-1.397l.21-.187h1.863c.559 0 .862.257.862.746v.326zm-33.334 4.146c0 .373-.373.722-.862.722h-1.864l-.209-.186v-5.567l.209-.187h1.864c.466 0 .862.396.862.746v4.472zm-5.544-7.594h4.682c2.12 0 3.424 1.235 3.424 3.261v4.193c0 2.004-1.304 3.215-3.424 3.215h-4.682V87.642zm-45.471 8.55v2.12h-6.942v-10.67h6.942v2.12h-4.263l-.303.28v1.537l.326.256h3.495v2.12h-3.518l-.303.256v1.724l.326.233h4.24v.023zm28.745-2.237l1.63 4.356H83.74l-1.56-4.077-.373-.279h-1.305l-.326.303v4.053H77.8V87.642h4.683c2.12 0 3.424 1.235 3.424 3.261v.163c0 1.025-.466 1.794-1.142 2.237l-.163.652zm-1.28-2.865c0 .466-.327.699-.863.699h-2.143l-.21-.187v-1.397l.21-.187h2.143c.56 0 .862.257.862.746v.326zm9.364 7.36h-1.189c-2.12 0-3.47-1.234-3.47-3.074v-4.962c0-1.84 1.374-3.075 3.47-3.075h1.189c2.073 0 3.424 1.235 3.424 3.075v4.962c0 1.84-1.351 3.075-3.424 3.075zm.815-3.074c0 .42-.303.722-.839.722h-1.188c-.605 0-.908-.28-.908-.722v-4.962c0-.373.419-.745.908-.745h1.188c.49 0 .839.326.839.745v4.962zm-17.867-7.734v2.12H73.49l-.326.233v8.316h-2.353v-8.293l-.326-.256H68.32v-2.12h7.314zM43.092 98.451h-1.188c-2.12 0-3.471-1.235-3.471-3.075v-4.962c0-1.84 1.374-3.075 3.47-3.075h1.189c2.073 0 3.424 1.235 3.424 3.075v.722h-2.353v-.722c0-.582-.466-.978-1.071-.978h-1.188c-.583 0-1.142.442-1.142.978v4.962c0 .606.443.955 1.142.955h1.188c.629 0 1.071-.373 1.071-.955v-.722h2.353v.722c0 1.84-1.351 3.075-3.424 3.075zm23.061-10.809v10.67h-2.027l-3.33-5.825v5.824h-2.307V87.642h2.073l3.425 5.987v-5.987h2.166zm95.228 8.55v2.12h-6.942v-10.67h6.942v2.12h-4.263l-.303.28v1.537l.326.256h3.495v2.12h-3.518l-.303.256v1.724l.326.233h4.24v.023zm-42.326 0v2.12h-6.942v-10.67h6.942v2.12h-4.263l-.303.28v1.537l.326.256h3.471v2.12h-3.517l-.303.256v1.724l.326.233h4.263v.023zm32.868-8.55v2.12h-2.143l-.326.233v8.316h-2.353v-8.293l-.326-.256h-2.166v-2.12h7.314z" fill="#000"/></svg>