<svg width="200" height="200" fill="none" xmlns="http://www.w3.org/2000/svg"><path fill="#fff" d="M0 0h200v200H0z"/><path d="M52.941 85.361c-.134-6.588-2.823-10.621-11.697-10.621 0 0-4.975-.135-4.975 0l-.135 13.714c-6.453.941-13.714 3.092-15.058 3.361l.134-25.277h17.882c11.294 0 18.69.807 23.799 6.05 2.285 2.286 4.437 5.647 4.84 11.698-5.11.269-9.68.403-14.79 1.075zm-.403 2.555c9.277-.941 15.597-1.345 15.597-1.345 0 5.648-2.286 10.084-5.513 12.773-4.437 3.631-8.874 4.572-20.572 4.572H21.346v-9.412c1.613-.403 8.47-2.554 14.924-3.361 0 0-.134 4.84 0 4.84h4.84c4.437-.269 11.294-2.285 11.429-8.067zM167.63 91.68c-4.571-1.21-8.605-2.554-12.638-3.36l8.336-21.648h15.327L167.63 91.681zm-32.538-6.722l-7.932-18.42h16.672l8.067 20.975c-6.05-1.21-11.294-1.883-16.807-2.555zm17.748 4.975s.673 1.613.807 1.344l.538-1.075c4.168.94 7.933 2.42 12.638 3.63l-4.033 9.95h-19.093l-7.395-16.538c5.513.672 10.488 1.479 16.538 2.689zm-41.949-6.319c-5.244-.135-12.101-.27-17.748-.27.134 0 13.176-16.806 13.176-16.806h18.286l-13.714 17.076zm-16.807 1.882c.538 0 11.563 0 17.882.538l14.656 17.748h-19.227L94.084 85.496zm-3.092 0v18.017H75.798V86.168c4.975-.269 9.816-.538 15.194-.672zm0-2.286c-5.513.135-10.353.135-15.328.538v-17.48h15.328V83.21zm-61.446 32.135c.135-.269.27-.673.135-.673-.807-.672-2.286-1.075-3.496-1.075-2.286 0-4.303 1.479-4.303 4.168 0 4.437 6.589 3.63 6.589 7.26 0 1.479-1.345 2.42-2.958 2.42-.942 0-2.152-.403-3.093-1.075-.134-.135-.403 0-.538.403l-.134.269c-.269.403-.269.672-.135.807.942.672 2.42 1.21 4.169 1.21 3.092 0 4.705-1.748 4.705-4.303 0-4.706-6.588-4.168-6.588-7.26 0-1.076.807-2.151 2.555-2.151 1.075 0 1.882.268 2.554.672.135.134.404 0 .538-.404v-.268zm10.891 2.42c-.672 0-.672 0-.807.269l-.134.941c-.538-.807-1.614-1.345-2.824-1.345-2.689 0-4.706 2.286-4.706 5.916 0 2.958 1.345 5.513 4.437 5.513 1.345 0 2.555-.538 3.093-1.479l.134.941c0 .134.135.269.807.269h.135c.672 0 .806-.135.806-.269-.134-1.076-.134-2.42-.134-4.437v-6.05c0-.135 0-.269-.807-.269zm-1.076 5.916c0 1.748-.134 2.42-.537 2.823-.538.538-1.345.807-2.017.807-2.151 0-2.824-2.017-2.824-3.899 0-2.42 1.076-4.034 2.958-4.034.941 0 1.883.672 2.42 1.345v2.958zm5.647-10.757c-.672 0-.94.135-.94.269.134.807.134 3.496.134 5.647v6.992c0 1.076.134 1.748.403 2.151.403.538.941.672 1.48.672.268 0 .671-.134.94-.134.135 0 .135-.134.135-.672 0-.404 0-.538-.135-.538h-.134c-.672 0-.807-.269-.807-1.076v-6.857c0-3.092 0-5.512-.134-6.185 0-.134-.135-.269-.942-.269 0 0 .135 0 0 0zm5.244 4.841c-.807 0-.807.134-.807.269v6.319c0 1.613.27 2.823 1.076 3.496.672.672 1.614 1.075 2.69 1.075 1.478 0 2.688-.537 3.36-1.344v.941c0 .134.135.269.807.269h.135c.806 0 .806-.135.806-.269v-10.487c0-.135-.134-.269-.806-.269h-.135c-.672 0-.807.134-.807.269v5.109c0 2.286-.268 2.958-.672 3.361-.538.538-1.479.807-2.285.807-.807 0-1.48-.269-1.883-.672-.403-.538-.538-1.345-.538-3.093v-5.512c0-.135-.134-.269-.806-.269h-.135zm18.824-4.841c-.673 0-.807.135-.807.269v4.975c-.538-.403-1.48-.672-2.286-.672-3.361 0-4.975 2.823-4.975 5.916 0 3.361 1.614 5.512 4.437 5.512 1.48 0 2.555-.672 3.093-1.344.269.807.806 1.21 1.479 1.21.403 0 .672 0 .941-.135.134 0 .135-.134.135-.672v-.134c0-.404-.135-.538-.135-.538-.538 0-.672-.135-.672-1.076v-12.907c-.27-.269-.404-.404-1.21-.404zm-.807 10.757c0 1.748-.135 2.42-.538 2.958-.538.537-1.21.672-1.882.672-1.614 0-2.824-1.345-2.824-3.899 0-2.555 1.21-4.168 3.227-4.168.807 0 1.748.269 2.151.806v3.631h-.134zm11.16-5.647c0-.135-.27-.269-1.076-.269-.807 0-1.076 0-.941.269l4.033 10.756c-.806 2.286-1.613 3.092-2.958 3.092-.403 0-.806-.134-1.075-.134-.27-.135-.27 0-.404.538l-.134.269c-.134.403-.134.537.134.672.404.269 1.076.403 1.614.403 1.21 0 2.151-.403 3.092-1.21.673-.672 1.21-1.748 1.748-3.361l3.9-10.891c.134-.269-.135-.269-.942-.269-.672 0-.806 0-.941.269l-1.882 5.378c-.404 1.21-.807 2.42-1.076 3.362a31.933 31.933 0 00-1.076-3.496l-2.016-5.378zm16.537 6.453c0-1.21 0-2.285.135-2.823.134-.941.269-1.21.538-1.479.538-.538 1.21-.807 2.017-.807 1.747 0 2.554 1.345 2.554 3.765s-1.21 4.168-3.496 4.168c-.537 0-1.21-.135-1.748-.403v-2.421zm-1.075-11.563c-.807 0-.941.135-.941.269v14.79c0 .135 0 .135.134.269.941.403 2.151.672 3.765.672 3.496 0 5.243-2.285 5.243-5.916 0-1.21-.268-2.285-.672-3.092-.672-1.479-1.882-2.286-3.496-2.286-1.21 0-2.42.538-3.092 1.21v-5.647c.134-.134 0-.269-.941-.269zm11.563 4.841c-.807 0-.807.134-.807.269v10.487c0 .134 0 .269.807.269h.134c.807 0 .807-.135.807-.269v-10.487c0-.135 0-.269-.941-.269 0 0 .134 0 0 0zm-1.21-3.362c0 .673.538 1.345 1.344 1.345.673 0 1.345-.538 1.345-1.345 0-.806-.538-1.344-1.345-1.344-.806.134-1.344.672-1.344 1.344zm13.848 9.547c.135 0 .135-.135.135-.807 0-1.21-.135-2.42-.672-3.361-.673-1.345-1.883-2.286-3.765-2.286-3.093 0-4.975 2.42-4.975 5.916 0 3.361 1.748 5.512 4.975 5.512 1.344 0 2.689-.269 3.765-.941.134-.134.134-.269 0-.807l-.135-.268c-.134-.538-.269-.538-.538-.404-.941.404-1.882.672-2.689.672-1.075 0-1.882-.268-2.42-.806-.672-.538-.941-1.479-1.076-2.555l7.395.135zm-7.26-1.479c.269-2.152 1.479-3.093 2.958-3.093 1.748 0 2.555 1.614 2.555 3.093h-5.513zm10.622-4.706c-.807 0-.807.134-.807.269v10.487c0 .134.135.269.807.269h.134c.807 0 .807-.135.807-.269v-4.034c0-1.21 0-2.285.134-2.823.135-.941.269-1.21.538-1.479.538-.538 1.479-.807 2.151-.807.942 0 1.614.269 1.883.672.538.538.538 1.345.538 3.093v5.378c0 .134.134.269.806.269h.135c.807 0 .807-.135.807-.269v-6.319c0-1.614-.269-2.824-1.076-3.496-.672-.672-1.614-1.076-2.824-1.076-1.21 0-2.554.538-3.361 1.345v-.941c.269-.135.269-.269-.672-.269zm19.764 6.185c.135 0 .135-.135.135-.807 0-1.21-.135-2.42-.672-3.361-.673-1.345-1.883-2.286-3.765-2.286-3.092 0-4.975 2.42-4.975 5.916 0 3.361 1.748 5.512 4.975 5.512 1.345 0 2.689-.269 3.765-.941.134-.134.134-.269 0-.807l-.135-.268c-.134-.538-.269-.538-.538-.404-.941.404-1.882.672-2.689.672-1.075 0-1.882-.268-2.42-.806-.672-.538-.941-1.479-1.075-2.555l7.394.135zm-7.126-1.479c.269-2.152 1.479-3.093 2.958-3.093 1.748 0 2.555 1.614 2.555 3.093h-5.513zm16.269-2.958c.269-.404.269-.673.135-.807-.807-.672-1.883-1.076-3.227-1.076-2.017 0-3.765 1.21-3.765 3.227 0 .807.269 1.479.807 2.017.538.538 1.344.807 2.42 1.076 1.076.268 2.42.537 2.42 1.747 0 1.211-1.344 1.614-2.285 1.614-.942 0-1.883-.403-2.69-.807-.268-.134-.403-.134-.672.404l-.134.268c-.269.404-.269.538-.135.807.807.538 2.017 1.076 3.362 1.076 2.285 0 4.168-1.21 4.168-3.362 0-2.151-1.748-2.823-3.496-3.226-.941-.269-2.151-.538-2.151-1.614 0-1.075 1.21-1.479 2.016-1.479.942 0 1.614.404 2.421.941.134.135.269.135.672-.403l.134-.403zm4.168-4.841c-.806 0-.806.135-.806.269v2.824h-1.345c-.134 0-.134.134-.134.672v.134c0 .538 0 .673.134.673h1.345v6.319c0 1.345.134 2.151.806 2.689.404.403 1.076.672 2.017.672.807 0 1.614-.134 2.151-.537.135-.135.135-.269.135-.673l-.135-.269c-.134-.403-.134-.403-.403-.403-.403.134-.941.269-1.344.269-.538 0-.807-.135-1.076-.403-.269-.269-.269-.807-.269-1.614v-6.185h2.555c.134 0 .134-.134.134-.672s0-.672-.134-.672h-2.555v-2.824c-.134-.134-.134-.269-1.076-.269zm13.849 3.093c-.672 0-.672 0-.807.269l-.134.806c-.538-.806-1.479-1.344-2.824-1.344-2.689 0-4.705 2.286-4.705 5.916 0 2.958 1.344 5.512 4.437 5.512 1.344 0 2.554-.537 3.226-1.479l.135.942c0 .134.134.268.807.268h.134c.672 0 .807-.134.807-.268-.135-1.076-.135-2.421-.135-4.437v-6.051s-.134-.134-.941-.134c0 0 .135 0 0 0zm-.941 5.916c0 1.748-.134 2.42-.538 2.823-.538.538-1.344.807-2.017.807-2.151 0-2.823-2.017-2.823-3.899 0-2.42 1.075-4.034 2.958-4.034.941 0 1.882.672 2.42 1.345v2.958zm5.781-5.916c-.806 0-.806.134-.806.269v10.487c0 .134.134.269.941.269h.134c.807 0 .807-.135.807-.269v-5.513c0-.672.135-1.344.538-1.747.538-.942 1.344-1.883 2.823-1.883.135 0 .269-.134.269-.807v-.268c0-.404 0-.538-.134-.538h-.403c-1.076 0-2.152.806-2.958 2.554v-2.151c-.269-.269-.404-.403-1.211-.403 0 0 .135 0 0 0z" fill="#000"/></svg>