<svg width="200" height="200" fill="none" xmlns="http://www.w3.org/2000/svg"><path fill="#fff" d="M0 0h200v200H0z"/><g clip-path="url(#clip0)"><g clip-path="url(#clip1)"><path fill-rule="evenodd" clip-rule="evenodd" d="M64.776 111.371c0-1.469-.726-2.111-2.244-2.596-.648-.21-1.44-.394-1.44-.905 0-.419.26-.603.65-.603h.22c.44 0 .765.236.998.682.052.105.169.105.26.039l1.348-.904c.13-.079.078-.21.026-.289a2.963 2.963 0 00-.622-.761c-.506-.446-1.194-.694-2.036-.694h-.195c-1.777 0-2.853.97-2.853 2.596 0 1.455.778 2.032 2.166 2.517.869.302 1.517.38 1.517.97 0 .38-.26.603-.662.603h-.401c-.441 0-.766-.236-.999-.682-.052-.104-.169-.104-.26-.038l-1.348.904c-.13.079-.078.197-.026.275.143.25.312.473.518.669.52.512 1.246.8 2.14.8h.402c1.83 0 2.84-.97 2.84-2.583h.001zm17.151 2.281v-8.033c0-.105-.09-.132-.142-.132H79.88c-.066 0-.117.027-.117.132v8.033c0 .105.052.132.117.132h1.905c.079 0 .143-.027.143-.132zm-3.067-6.35v-1.683c0-.105-.078-.131-.13-.131h-5.394c-.064 0-.116.026-.116.131v8.033c0 .105.052.132.117.132h1.918c.065 0 .13-.027.13-.132v-2.958c0-.092.04-.145.156-.145h2.618c.066 0 .13-.026.13-.118v-1.696c0-.092-.064-.119-.13-.119h-2.618c-.117 0-.156-.052-.156-.144v-.907c0-.092.04-.145.156-.145h3.19c.077 0 .129-.026.129-.119v.001zm11.072 6.311l-2.713-8.027c-.026-.079-.065-.091-.117-.091h-1.416c-.078 0-.104.025-.129.091l-2.714 8.027c-.039.105.013.171.13.171h2c.064 0 .09-.027.116-.092l.35-.986c.027-.066.053-.092.157-.092h1.558c.104 0 .143.026.169.092l.337.986c.026.065.04.092.117.092h2.039c.142 0 .155-.066.117-.171h-.001zm-3.05-2.667c.012.065-.027.118-.118.118h-.753c-.104 0-.142-.052-.13-.119l.234-1.024a15.32 15.32 0 00.273-1.616h.038s.092.842.247 1.616l.208 1.025zm-38.188 2.685v-8.011c0-.104-.078-.131-.13-.131h-1.828c-.078 0-.117.027-.117.131v2.124c0 1.167.065 2.19.065 2.19h-.04s-.103-.289-.285-.63l-1.919-3.697c-.039-.079-.091-.118-.168-.118h-1.648c-.065 0-.117.027-.117.131v8.011c0 .104.052.131.117.131h1.868c.078 0 .13-.026.13-.131v-2.085c0-1.075-.078-2.111-.078-2.111h.052s.104.289.272.59l1.933 3.619c.038.065.077.118.142.118h1.62c.079 0 .13-.026.13-.131zm-7.438 0v-8.011c0-.104-.09-.131-.143-.131h-1.906c-.065 0-.117.027-.117.131v8.011c0 .104.052.131.117.131h1.906c.078 0 .143-.026.143-.131zm30.933-2.142v-3.684c0-1.495-1.128-2.465-2.788-2.465h-.907c-1.662 0-2.815.983-2.815 2.465v3.684c0 1.481 1.127 2.465 2.814 2.465h.907c1.66 0 2.789-.984 2.789-2.465zm-2.153 0c0 .314-.233.537-.636.537h-.907c-.454 0-.687-.209-.687-.537v-3.684c0-.275.31-.55.687-.55h.907c.377 0 .636.235.636.55v3.684zm-13.41 2.103l-2.71-8.011c-.027-.079-.065-.092-.117-.092h-1.413c-.078 0-.104.027-.13.092l-2.71 8.011c-.04.104.013.17.13.17h1.996c.066 0 .09-.026.118-.092l.35-.983c.025-.065.051-.092.155-.092h1.556c.105 0 .143.027.17.092l.336.983c.026.066.04.092.117.092h2.036c.143 0 .155-.065.117-.171l-.001.001zm-3.048-2.662c.013.066-.026.118-.116.118h-.753c-.104 0-.142-.052-.129-.118l.233-1.023c.182-.773.272-1.612.272-1.612h.04s.09.839.245 1.613l.209 1.022h-.001zm-15.74 2.701v-1.678c0-.092-.064-.118-.13-.118H34.52c-.117 0-.156-.052-.156-.144v-1.01c0-.092.039-.144.156-.144h2.62c.064 0 .129-.027.129-.119v-1.691c0-.092-.065-.118-.13-.118h-2.62c-.116 0-.156-.052-.156-.144v-.905c0-.091.04-.143.157-.143h3.19c.078 0 .13-.027.13-.119v-1.678c0-.104-.078-.131-.13-.131h-5.395c-.065 0-.117.027-.117.131v8.011c0 .104.052.131.117.131h5.395c.078 0 .13-.026.13-.131zm-9.11-5.415c0 .354-.247.525-.649.525h-1.414c-.116 0-.156-.052-.156-.144v-1.037c0-.091.04-.143.156-.143h1.414c.428 0 .649.196.649.55v.249zm2.399 5.375l-1.271-3.29c-.04-.118-.053-.21.065-.288.57-.368.946-.996.946-1.81v-.118c0-1.613-1.089-2.596-2.788-2.596h-3.618c-.066 0-.117.027-.117.131v8.011c0 .104.052.131.117.131h1.918c.065 0 .13-.026.13-.131v-2.95c0-.092.039-.144.155-.144h.895c.052 0 .091.026.117.091l1.193 3.042c.026.053.065.092.117.092h2.023c.13 0 .156-.079.117-.171zm35.969-23.98c0 1.06-.788 1.763-1.948 1.763h-.634c-1.177 0-1.965-.703-1.965-1.762v-2.635c0-1.06.806-1.763 1.965-1.763h.635c1.16 0 1.947.694 1.947 1.762v.506h-1.504v-.506c0-.224-.181-.393-.443-.393h-.635c-.262 0-.48.197-.48.394v2.635c0 .234.164.384.48.384h.635c.28 0 .443-.16.443-.384v-.506h1.504v.506zm-37.358 1.562v-5.734c0-.075-.037-.095-.09-.095h-1.315a.1.1 0 00-.09.057L27.2 88.282a5.733 5.733 0 00-.118.376h-.037s-.018-.169-.1-.376l-1.078-2.88a.099.099 0 00-.09-.057h-1.351c-.055 0-.082.02-.082.094v5.734c0 .074.027.094.082.094h1.278c.063 0 .09-.019.09-.094v-1.23c0-.891-.081-1.707-.081-1.707h.027s.082.394.226.816l.481 1.417c.027.075.109.094.163.094h.88c.054 0 .126-.019.154-.094l.48-1.389c.145-.422.227-.844.227-.844h.027s-.064.844-.064 1.726v1.211c0 .074.019.094.082.094h1.251c.055 0 .091-.019.091-.094zm15.084-.004v-1.201c0-.066-.046-.084-.09-.084H42.62c-.081 0-.108-.037-.108-.104v-.722c0-.066.027-.104.108-.104h1.712c.046 0 .091-.018.091-.084v-1.21c0-.066-.045-.085-.091-.085H42.62c-.081 0-.108-.037-.108-.104v-.647c0-.065.027-.103.108-.103h2.112c.053 0 .09-.019.09-.084v-1.201c0-.076-.055-.094-.09-.094H41.08c-.046 0-.082.019-.082.094v5.733c0 .075.036.094.082.094h3.651c.054 0 .09-.019.09-.094zm-4.637-1.632c0-1.052-.507-1.512-1.568-1.86-.453-.149-1.005-.28-1.005-.646 0-.301.18-.431.453-.431h.154c.308 0 .535.168.697.487.038.075.119.075.182.028l.943-.647c.09-.057.054-.15.018-.207a2.104 2.104 0 00-.436-.544c-.353-.32-.833-.497-1.423-.497h-.136c-1.241 0-1.994.694-1.994 1.858 0 1.04.544 1.454 1.514 1.801.607.216 1.06.272 1.06.695 0 .272-.18.431-.462.431h-.28c-.31 0-.536-.168-.699-.488-.036-.074-.118-.074-.181-.027l-.943.647c-.09.056-.054.14-.018.197.1.179.218.338.362.478.363.367.87.573 1.496.573h.281c1.28 0 1.985-.695 1.985-1.848zm9.877.084v-2.636c0-1.07-.789-1.764-1.95-1.764h-.634c-1.16 0-1.967.703-1.967 1.764v2.636c0 1.061.788 1.765 1.967 1.765h.634c1.161 0 1.95-.704 1.95-1.765zm-1.505 0c0 .225-.163.385-.445.385h-.634c-.317 0-.48-.15-.48-.385v-2.636c0-.198.217-.394.48-.394h.634c.264 0 .445.169.445.394v2.636zm-13.224.003V85.44c0-.075-.027-.094-.081-.094h-1.333c-.045 0-.081.02-.081.094v4.186c0 .234-.136.385-.454.385h-.634c-.335 0-.48-.15-.48-.386V85.44c0-.075-.046-.094-.082-.094h-1.315c-.054 0-.081.02-.081.094v4.186c0 1.06.78 1.764 1.958 1.764h.634c1.16 0 1.95-.704 1.95-1.765zm21.301 1.55v-5.733c0-.075-.055-.095-.09-.095h-1.28c-.053 0-.081.02-.081.095v1.52c0 .835.046 1.567.046 1.567h-.027s-.073-.206-.2-.45L53.66 85.43c-.026-.056-.063-.085-.117-.085H52.39c-.044 0-.082.02-.082.095v5.733c0 .075.038.094.082.094h1.306c.054 0 .09-.018.09-.094v-1.492c0-.77-.054-1.51-.054-1.51h.037s.072.206.19.422l1.35 2.59c.028.047.055.084.1.084h1.134c.054 0 .09-.018.09-.094zm33.278 0v-1.2c0-.066-.045-.086-.09-.086h-2.23c-.082 0-.109-.037-.109-.102V85.44c0-.075-.055-.095-.091-.095h-1.341c-.046 0-.082.02-.082.095v5.733c0 .075.036.094.082.094h3.77c.055 0 .091-.018.091-.094zm-10.01 0v-5.733c0-.075-.054-.095-.09-.095h-1.279c-.055 0-.081.02-.081.095v1.52c0 .835.044 1.567.044 1.567h-.026s-.073-.206-.2-.45l-1.342-2.647c-.027-.056-.064-.085-.118-.085h-1.15c-.046 0-.083.02-.083.095v5.733c0 .075.037.094.082.094h1.305c.055 0 .09-.018.09-.094v-1.492c0-.77-.054-1.51-.054-1.51h.037s.073.206.19.422l1.351 2.59c.027.047.054.084.1.084h1.133c.054 0 .09-.018.09-.094h.001zm-10.518 0v-5.733c0-.075-.064-.095-.1-.095h-1.333c-.044 0-.081.02-.081.095v5.733c0 .075.037.094.081.094h1.334c.054 0 .1-.018.1-.094zm15.905-.028l-1.894-5.733c-.019-.057-.046-.067-.082-.067h-.989c-.053 0-.072.02-.09.067l-1.894 5.733c-.027.075.009.122.09.122h1.396c.045 0 .064-.018.082-.065l.245-.704c.017-.047.036-.066.108-.066h1.088c.073 0 .1.019.119.066l.235.704c.018.047.027.065.082.065h1.423c.1 0 .108-.047.081-.122zm-2.13-1.904c.01.046-.018.084-.082.084h-.525c-.073 0-.1-.038-.09-.084l.162-.733c.127-.554.19-1.154.19-1.154h.028s.063.6.172 1.154l.145.733zm-8.484.384v-2.637c0-1.07-.788-1.764-1.948-1.764h-.635c-1.16 0-1.967.704-1.967 1.764v2.637c0 1.06.788 1.764 1.967 1.764h.635c1.16 0 1.948-.704 1.948-1.764zm-1.504 0c0 .225-.164.385-.444.385h-.635c-.317 0-.48-.15-.48-.385v-2.637c0-.197.217-.394.48-.394h.635c.263 0 .444.17.444.394v2.637zm-10.965 1.52l-1.895-5.734c-.018-.057-.045-.066-.082-.066h-.988c-.054 0-.072.019-.09.066l-1.895 5.733c-.027.076.01.123.09.123h1.397c.045 0 .063-.02.081-.066l.245-.703c.018-.048.036-.066.109-.066h1.087c.073 0 .1.018.119.066l.235.703c.018.047.027.066.082.066h1.423c.1 0 .109-.047.082-.123zm-2.131-1.905c.009.047-.018.085-.082.085h-.525c-.073 0-.1-.038-.091-.085l.163-.732c.127-.554.19-1.154.19-1.154h.028s.063.6.172 1.154l.145.732zm-31.18 7.839c0 1.06-.787 1.763-1.947 1.763h-.634c-1.177 0-1.965-.704-1.965-1.763v-2.636c0-1.06.806-1.762 1.965-1.762h.634c1.16 0 1.948.693 1.948 1.762v.506h-1.504v-.506c0-.224-.181-.394-.444-.394h-.634c-.262 0-.48.197-.48.394v2.636c0 .234.164.384.48.384h.634c.28 0 .444-.159.444-.384v-.506h1.504v.506zm15.464-2.935v-1.202c0-.075-.055-.093-.082-.093h-3.96c-.045 0-.091.018-.091.093v1.202c0 .065.045.085.09.085h1.111c.1 0 .117.037.117.102v4.347c0 .074.037.093.082.093h1.333c.044 0 .09-.02.09-.094v-4.346c0-.065.018-.102.109-.102h1.12c.044 0 .081-.02.081-.085zm-5.043 4.534v-5.736c0-.075-.054-.093-.09-.093h-1.278c-.055 0-.082.018-.082.093v1.52c0 .836.046 1.568.046 1.568h-.028s-.072-.206-.199-.45l-1.341-2.647c-.028-.057-.064-.084-.118-.084h-1.151c-.046 0-.082.018-.082.093v5.736c0 .074.036.093.082.093h1.305c.054 0 .09-.018.09-.094v-1.492c0-.77-.054-1.511-.054-1.511h.037s.072.206.19.422l1.35 2.59c.027.047.055.085.1.085h1.133c.055 0 .09-.018.09-.094zm15.923-1.597v-2.638c0-1.071-.788-1.765-1.949-1.765h-.634c-1.16 0-1.967.704-1.967 1.765v2.637c0 1.06.788 1.765 1.967 1.765h.634c1.16 0 1.949-.704 1.949-1.765zm-1.504 0c0 .225-.164.384-.445.384h-.634c-.318 0-.48-.15-.48-.385v-2.637c0-.197.217-.394.48-.394h.634c.263 0 .445.168.445.394v2.637zm-3.733 1.568l-.888-2.357c-.027-.084-.036-.149.045-.206.4-.262.662-.713.662-1.295v-.085c0-1.154-.761-1.858-1.948-1.858h-2.53c-.045 0-.081.02-.081.094v5.736c0 .074.036.093.082.093h1.341c.045 0 .09-.018.09-.094v-2.112c0-.066.027-.103.11-.103h.625c.037 0 .063.019.081.065l.834 2.179c.018.037.045.065.082.065h1.414c.09 0 .109-.056.081-.122zm-1.675-3.848c0 .253-.173.375-.454.375h-.989c-.082 0-.108-.037-.108-.104v-.74c0-.066.026-.103.108-.103h.989c.298 0 .453.14.453.394v.178zm-14.473 3.876v-1.201c0-.066-.045-.085-.09-.085h-2.23c-.082 0-.109-.037-.109-.103v-.723c0-.066.027-.103.109-.103h1.83c.045 0 .092-.019.092-.085v-1.21c0-.066-.046-.085-.091-.085h-1.831c-.082 0-.109-.037-.109-.103v-.647c0-.066.027-.104.109-.104h2.23c.054 0 .09-.019.09-.084v-1.202c0-.075-.054-.093-.09-.093h-3.77c-.046 0-.083.018-.083.093v5.736c0 .074.037.093.082.093h3.77c.055 0 .091-.018.091-.094zm56.058 0v-1.201c0-.066-.046-.085-.091-.085h-2.23c-.082 0-.108-.037-.108-.103v-.723c0-.065.026-.103.108-.103h1.83c.046 0 .091-.019.091-.084v-1.212c0-.065-.044-.084-.09-.084h-1.83c-.082 0-.11-.037-.11-.103v-.648c0-.065.028-.102.11-.102h2.229c.054 0 .09-.02.09-.085v-1.202c0-.075-.054-.093-.09-.093H86.05c-.045 0-.082.018-.082.093v5.736c0 .074.037.093.082.093h3.771c.054 0 .09-.02.09-.094zm-5.022-4.533v-1.202c0-.075-.055-.093-.082-.093h-3.962c-.044 0-.09.018-.09.093v1.202c0 .065.045.085.09.085h1.111c.1 0 .118.037.118.102v4.347c0 .074.036.093.081.093h1.333c.044 0 .09-.02.09-.094v-4.346c0-.065.018-.102.109-.102h1.12c.044 0 .081-.02.081-.085h.001zm-17.466 4.534v-1.202c0-.066-.045-.085-.091-.085h-2.23c-.082 0-.108-.037-.108-.103v-.723c0-.065.026-.103.108-.103h1.831c.046 0 .091-.019.091-.084v-1.212c0-.065-.045-.084-.09-.084h-1.832c-.082 0-.108-.037-.108-.103v-.648c0-.065.026-.102.108-.102h2.23c.055 0 .09-.02.09-.085v-1.202c0-.075-.054-.093-.09-.093h-3.77c-.046 0-.082.018-.082.093v5.736c0 .074.036.093.082.093h3.77c.055 0 .09-.02.09-.094zm-6.597-1.672c0 .198-.199.385-.453.385h-.988c-.082 0-.109-.037-.109-.103v-2.957c0-.065.028-.102.109-.102h.989c.244 0 .452.205.452.394v2.383zm1.496-.074v-2.225c0-1.154-.762-1.858-1.948-1.858h-2.53c-.045 0-.081.018-.081.093v5.736c0 .074.036.093.081.093h2.53c1.186 0 1.948-.704 1.948-1.84zm17.995 1.717l-.888-2.357c-.027-.084-.036-.149.045-.206.4-.262.662-.713.662-1.295v-.085c0-1.153-.761-1.858-1.948-1.858h-2.53c-.044 0-.08.02-.08.094v5.736c0 .074.036.093.08.093h1.342c.045 0 .09-.018.09-.094v-2.112c0-.065.028-.103.11-.103h.625c.037 0 .064.02.081.066l.835 2.177c.017.037.044.066.081.066h1.414c.09 0 .108-.056.082-.122zm-1.676-3.848c0 .253-.172.375-.453.375H77.2c-.081 0-.108-.037-.108-.104v-.74c0-.066.027-.103.108-.103h.989c.298 0 .453.14.453.394v.178zM74.8 98.65l-1.895-5.735c-.018-.056-.044-.065-.082-.065h-.987c-.054 0-.073.018-.09.065L69.85 98.65c-.027.075.01.122.09.122h1.397c.045 0 .063-.018.081-.066l.246-.703c.017-.047.035-.067.108-.067h1.087c.073 0 .1.02.118.067l.236.703c.018.048.027.066.082.066h1.423c.1 0 .108-.047.082-.122zm-2.13-1.905c.008.046-.018.084-.082.084h-.526c-.072 0-.1-.037-.09-.084l.163-.733c.126-.553.19-1.154.19-1.154h.028s.063.6.172 1.154l.145.733z" fill="#000"/><path fill-rule="evenodd" clip-rule="evenodd" d="M21.974 101.145H92.28v-18.17H21.975l-.002 18.17zm70.308 1.974H21.975v13.033H92.28v-13.033zM20 118.127h74.255V81H20v37.127z" fill="#000"/><path opacity=".5" fill-rule="evenodd" clip-rule="evenodd" d="M102.968 89.46v1.983a2.212 2.212 0 01-.646.246 3.478 3.478 0 01-.775.086c-.365 0-.695-.057-.99-.172a2.252 2.252 0 01-.755-.474 2.02 2.02 0 01-.478-.716 2.432 2.432 0 01-.166-.908c0-.37.066-.709.198-1.013a2.406 2.406 0 011.31-1.298c.294-.122.605-.183.932-.183a2.85 2.85 0 01.708.09c.119.03.233.065.344.105.11.04.21.089.299.144l-.382.64a.958.958 0 00-.214-.1 2.908 2.908 0 00-.522-.121 2.017 2.017 0 00-.245-.016 1.53 1.53 0 00-.622.131 1.78 1.78 0 00-.525.355 1.71 1.71 0 00-.367.534 1.625 1.625 0 00-.016 1.27 1.624 1.624 0 00.854.86c.2.087.419.13.657.13.085 0 .191-.007.318-.022.128-.015.249-.041.363-.08v-.793h-.866v-.678h1.586zm2.626 2.315c-.251 0-.486-.041-.704-.124a1.748 1.748 0 01-.571-.349 1.617 1.617 0 01-.382-.54 1.702 1.702 0 01-.14-.7v-3h.777v2.98c0 .137.027.265.08.384a1.01 1.01 0 00.538.528 1 1 0 00.402.08 1.067 1.067 0 00.732-.294.973.973 0 00.3-.698v-2.98h.777v3c0 .255-.046.489-.14.7a1.597 1.597 0 01-.385.54c-.164.15-.356.265-.577.349a1.993 1.993 0 01-.707.124zm2.835-.05v-4.663h3.084v.71h-2.306v1.254h2.051v.729h-2.051v1.24h2.395v.73h-3.173zm3.944 0v-4.663h1.313c.255 0 .487.035.698.103.21.068.388.166.535.294.147.128.26.285.341.473.081.188.121.399.121.633a2 2 0 01-.038.384 1.684 1.684 0 01-.121.37 1.3 1.3 0 01-.536.588l.274.44.271.43.284.448.318.5h-.936l-.542-.848a53.83 53.83 0 00-.491-.758h-.713v1.605h-.778zm.778-2.341h.624a.866.866 0 00.402-.083.8.8 0 00.255-.202.707.707 0 00.133-.256.93.93 0 00.039-.252c0-.073-.012-.155-.035-.246a.725.725 0 00-.38-.464.877.877 0 00-.407-.083h-.631v1.586zm7.379-2.322v4.88a3.008 3.008 0 00-.198-.211 23.423 23.423 0 00-.376-.368l-.494-.473c-.18-.173-.364-.348-.551-.525a121.805 121.805 0 01-1.035-.99l-.37-.365c-.1-.1-.165-.17-.194-.208a.873.873 0 00-.051-.067 1.645 1.645 0 01-.077-.1l.019.205v2.884h-.777v-4.873c.03.039.096.108.198.208.101.1.227.22.375.362.149.14.314.294.494.46a142.681 142.681 0 011.099 1.02c.179.168.342.322.491.46.149.139.273.257.373.355.1.098.164.166.194.205l.121.179-.019-.218v-2.82h.778zm1.07 0h.784v4.662h-.784v-4.662zm5.352 4.317a2.269 2.269 0 01-.538.252 3.14 3.14 0 01-.424.103 2.898 2.898 0 01-.503.041c-.365 0-.693-.063-.981-.188a2.185 2.185 0 01-.733-.509 2.197 2.197 0 01-.459-.748 2.57 2.57 0 01-.159-.901 2.417 2.417 0 01.71-1.737c.219-.215.474-.382.765-.502.291-.12.602-.179.933-.179.128 0 .256.01.386.029.129.02.252.044.366.073.115.03.216.064.303.103a.55.55 0 01.188.121c-.038.06-.068.109-.089.147l-.067.119c-.024.04-.049.086-.077.137a8.479 8.479 0 01-.118.211.83.83 0 00-.184-.09 1.55 1.55 0 00-.227-.06 2.871 2.871 0 00-.455-.048 1.61 1.61 0 00-.66.134c-.201.09-.376.208-.522.355a1.604 1.604 0 00-.468 1.123 1.617 1.617 0 00.449 1.113c.142.148.311.269.506.36.196.092.412.138.65.138.136 0 .268-.014.395-.042.128-.027.24-.058.338-.092.098-.034.177-.069.239-.103.062-.034.094-.057.099-.07l.337.71zm3.435.345l-.067-.16-.118-.281c-.047-.11-.098-.233-.153-.368l-.172-.419h-1.599l-.51 1.228h-.771l.121-.284.239-.563.319-.748c.116-.275.237-.556.36-.841a213.711 213.711 0 00.678-1.59 47.7 47.7 0 00.239-.562l.121-.285.125.285.242.563a736.945 736.945 0 00.678 1.589c.124.285.244.566.36.84l.319.749.239.563.121.284h-.771zm-1.842-1.886h1.058l-.459-1.113a1.5 1.5 0 01-.07-.23c-.008.042-.021.09-.038.144a.82.82 0 00-.025.086l-.466 1.113zM99.307 84.53v-3.372h.918c.176 0 .337.023.484.07.147.046.273.115.38.207a.948.948 0 01.248.335c.058.132.088.283.088.453 0 .093-.009.185-.028.277a1.057 1.057 0 01-.25.502.85.85 0 01-.237.184c.124.195.258.411.404.649.145.237.292.469.44.695h-.607l-.193-.302a49.962 49.962 0 01-.393-.62l-.179-.283h-.565v1.205h-.51zm.51-1.684h.459a.687.687 0 00.31-.062.567.567 0 00.299-.356.729.729 0 00.03-.195.704.704 0 00-.03-.194.55.55 0 00-.301-.346.685.685 0 00-.304-.06h-.463v1.213zm2.4 1.684v-3.372h2.206v.46h-1.696v.987h1.511v.47h-1.511v.985h1.761v.47h-2.271zm3.369-1.684h.459a.67.67 0 00.311-.065.59.59 0 00.197-.158.681.681 0 00.132-.39.671.671 0 00-.031-.194.535.535 0 00-.104-.195.576.576 0 00-.197-.151.683.683 0 00-.303-.06h-.464v1.213zm-.509 1.684v-3.372h.917c.176 0 .338.023.484.07.147.046.274.115.38.207a.92.92 0 01.248.335 1.1 1.1 0 01.088.453c0 .133-.02.266-.06.398a.96.96 0 01-.547.607 1.283 1.283 0 01-.528.097h-.473v1.205h-.509zm2.673 0v-3.372h2.206v.46h-1.696v.987h1.511v.47h-1.511v.985h1.761v.47h-2.271zm5.807-3.372v3.525a3.5 3.5 0 00-.25-.27l-.427-.427c-.16-.161-.331-.33-.512-.507l-.512-.505c-.16-.16-.301-.302-.421-.428a3.61 3.61 0 01-.241-.267l-.088-.12.013.148v2.223h-.509V81c.034.043.09.105.169.186a38.003 38.003 0 00.63.628l.389.377.39.374a21.282 21.282 0 01.628.62c.077.081.131.142.162.182l.088.13-.014-.158v-2.18h.505zm2.748.186l-.181.414a2.939 2.939 0 00-.377-.111 1.65 1.65 0 00-.359-.042c-.195 0-.35.04-.466.12-.116.081-.174.184-.174.308 0 .105.042.19.125.253.084.064.187.12.311.172.123.051.258.102.403.154.145.05.279.117.403.197s.227.182.31.305c.084.122.126.28.126.472a.95.95 0 01-.082.402.84.84 0 01-.241.31 1.114 1.114 0 01-.398.2c-.159.046-.345.07-.558.07-.136 0-.259-.01-.369-.029a1.97 1.97 0 01-.296-.072 1.61 1.61 0 01-.232-.095 2.626 2.626 0 01-.169-.093l.222-.442a1.833 1.833 0 00.825.237c.062 0 .138-.008.229-.023.092-.016.179-.043.262-.082a.683.683 0 00.216-.155.35.35 0 00.09-.247.371.371 0 00-.072-.23.672.672 0 00-.19-.167 1.65 1.65 0 00-.269-.13l-.308-.122a6.456 6.456 0 01-.308-.132 1.2 1.2 0 01-.269-.17.82.82 0 01-.19-.232.658.658 0 01-.071-.319c0-.115.023-.228.069-.34a.846.846 0 01.209-.297c.092-.087.207-.157.345-.21.137-.052.297-.079.479-.079.112 0 .221.01.327.028a3.356 3.356 0 01.51.13c.06.022.1.038.118.047zm2.776 3.186c-.016-.034-.037-.084-.065-.149l-.095-.225-.116-.28-.127-.313h-1.187l-.398.967h-.501l1.497-3.53.1.237.171.412.223.53.25.588.25.586a141.95 141.95 0 01.498 1.177h-.5zm-1.413-1.395h.838c-.043-.103-.084-.201-.122-.296l-.107-.26-.086-.207a2.452 2.452 0 01-.055-.14c-.004-.006-.01-.027-.021-.065a1.126 1.126 0 01-.026-.102.737.737 0 01-.028.102.758.758 0 01-.023.066l-.37.902zm2.331 1.395v-3.372h.917c.176 0 .338.023.484.07.147.046.274.115.38.207a.92.92 0 01.248.335 1.1 1.1 0 01.088.453c0 .093-.009.185-.027.277a1.106 1.106 0 01-.251.502.846.846 0 01-.236.184c.123.195.258.411.403.649.145.237.292.469.44.695h-.607a26.55 26.55 0 01-.192-.302l-.199-.314a25.715 25.715 0 01-.195-.307l-.178-.282h-.566v1.205h-.509zm.509-1.684h.459a.692.692 0 00.311-.062.554.554 0 00.298-.356.695.695 0 00.031-.195.671.671 0 00-.031-.194.535.535 0 00-.104-.195.576.576 0 00-.197-.151.683.683 0 00-.303-.06h-.464v1.213z" fill="#000"/><path d="M99.158 96.579h78.316" stroke="#000" stroke-opacity=".2" stroke-width=".25"/></g><path d="M104.195 107.174a2.85 2.85 0 01-.287.16 2.906 2.906 0 01-.429.177c-.163.05-.348.092-.556.126-.208.039-.43.059-.665.059a3.28 3.28 0 01-1.298-.244 2.953 2.953 0 01-.968-.674 2.9 2.9 0 01-.607-.986 3.367 3.367 0 01-.21-1.187c0-.461.084-.885.252-1.272.169-.393.396-.73.683-1.011a3.14 3.14 0 012.249-.901c.168 0 .336.014.505.042.174.023.337.054.488.093a2.4 2.4 0 01.396.135c.118.05.202.103.253.16-.051.078-.09.143-.118.193a4.265 4.265 0 01-.093.16c-.028.051-.061.11-.101.177-.033.068-.084.16-.151.278a1.118 1.118 0 00-.245-.118 1.767 1.767 0 00-.303-.076 2.84 2.84 0 00-.598-.067 2.163 2.163 0 00-1.566.649 2.075 2.075 0 00-.615 1.474c0 .269.05.533.151.791.107.253.253.478.438.674.191.197.416.357.674.48.258.118.545.177.859.177.18 0 .354-.017.523-.05.168-.04.317-.082.446-.127s.233-.09.312-.135c.084-.044.129-.075.134-.092l.447.935zm.194-2.603c0-.427.082-.831.245-1.213.168-.382.393-.716.674-1.002.286-.286.617-.514.993-.682a2.985 2.985 0 011.222-.253c.426 0 .831.084 1.213.253.381.168.715.396 1.002.682.286.286.511.62.674 1.002.168.382.252.786.252 1.213 0 .433-.084.84-.252 1.221a3.173 3.173 0 01-.674.994 3.238 3.238 0 01-1.002.666 3.06 3.06 0 01-1.213.244 3.08 3.08 0 01-1.222-.244 3.245 3.245 0 01-.993-.666 3.352 3.352 0 01-.674-.994 3.072 3.072 0 01-.245-1.221zm1.036 0c0 .298.054.579.16.842.113.259.264.486.455.683.197.191.421.342.674.454.258.113.536.169.834.169.286 0 .556-.056.809-.169a2.05 2.05 0 00.665-.454 2.13 2.13 0 00.446-.683 2.11 2.11 0 00.169-.842c0-.297-.056-.575-.169-.834a2.222 2.222 0 00-.455-.69 2.087 2.087 0 00-1.49-.632c-.292 0-.567.056-.826.168a2.131 2.131 0 00-.665.464 2.18 2.18 0 00-.607 1.524zm11.677-3.083v6.427a3.64 3.64 0 00-.261-.278c-.134-.135-.3-.295-.497-.48a35.386 35.386 0 00-.657-.623 37.064 37.064 0 00-.724-.691 920.432 920.432 0 00-1.373-1.306c-.191-.19-.354-.35-.488-.48a4.144 4.144 0 01-.421-.497l.025.27v3.799h-1.028v-6.418c.04.05.127.143.261.277.135.13.301.287.497.472.197.185.413.388.649.607.241.219.486.443.733.673.247.225.488.45.724.674.236.219.452.421.649.607.196.179.359.334.488.463.135.129.222.219.261.269l.16.236-.025-.286v-3.715h1.027zm5.092 0v.986h-1.516v5.155h-1.036v-5.155h-1.482v-.986h4.034zm1.065 6.141v-6.141h1.736c.336 0 .642.045.918.135.28.09.516.219.707.388.197.168.348.376.455.623.107.247.16.525.16.834 0 .168-.017.337-.051.505a2.137 2.137 0 01-.16.489 1.844 1.844 0 01-.286.438 1.808 1.808 0 01-.421.337l.362.581c.118.185.236.373.354.564.123.191.25.387.379.59l.421.657h-1.238l-.716-1.112a68.76 68.76 0 00-.649-1.003h-.943v2.115h-1.028zm1.028-3.083h.825c.214 0 .391-.037.531-.11.14-.073.253-.16.337-.261a.978.978 0 00.177-.337c.034-.123.05-.235.05-.337 0-.095-.016-.202-.05-.32a.855.855 0 00-.169-.345.925.925 0 00-.328-.269c-.14-.073-.32-.11-.539-.11h-.834v2.089zm8.1 3.083a7.631 7.631 0 00-.092-.211c-.039-.101-.09-.225-.152-.371l-.202-.48-.227-.556H129.6l-.674 1.618h-1.019l.16-.371.311-.741c.129-.298.27-.626.421-.986l.48-1.111c.163-.377.321-.744.472-1.104.157-.365.298-.693.421-.985l.32-.741.16-.379c.023.05.076.176.16.379.09.196.197.443.32.741.13.292.27.62.422.985l.48 1.104c.163.376.32.746.471 1.111.158.36.298.688.422.986.129.292.235.539.32.741l.16.371h-1.02zm-2.434-2.485h1.398l-.606-1.466a.517.517 0 01-.042-.109 2.114 2.114 0 01-.051-.194 2.078 2.078 0 01-.05.194 1.01 1.01 0 00-.034.109l-.615 1.466zm3.92 1.044v-.85h1.575v.85h-1.575zm6.526 1.441l-.093-.211c-.039-.101-.09-.225-.151-.371l-.203-.48-.227-.556h-2.114l-.674 1.618h-1.019l.16-.371.312-.741a426.307 426.307 0 01.901-2.097c.163-.377.32-.744.472-1.104l.421-.985.32-.741c.084-.203.137-.329.16-.379.022.05.076.176.16.379.09.196.196.443.32.741.129.292.269.62.421.985l.48 1.104c.163.376.32.746.472 1.111.157.36.297.688.421.986.129.292.236.539.32.741l.16.371h-1.019zm-2.434-2.485h1.398l-.607-1.466a.688.688 0 01-.042-.109 2.078 2.078 0 01-.05-.194 1.833 1.833 0 01-.051.194 1.138 1.138 0 00-.033.109l-.615 1.466zm4.163 2.485v-6.141h1.735c.337 0 .643.045.918.135.281.09.517.219.708.388.196.168.348.376.455.623.106.247.16.525.16.834 0 .168-.017.337-.051.505a2.137 2.137 0 01-.16.489 1.844 1.844 0 01-.286.438 1.83 1.83 0 01-.421.337l.362.581c.118.185.236.373.354.564a274.923 274.923 0 01.8 1.247h-1.238l-.716-1.112a68.76 68.76 0 00-.649-1.003h-.943v2.115h-1.028zm1.028-3.083h.825c.214 0 .39-.037.531-.11.14-.073.253-.16.337-.261a.978.978 0 00.177-.337 1.31 1.31 0 00.05-.337c0-.095-.017-.202-.05-.32a.869.869 0 00-.169-.345.925.925 0 00-.328-.269 1.166 1.166 0 00-.539-.11h-.834v2.089zm8.852 2.628a2.816 2.816 0 01-.286.16 2.877 2.877 0 01-.43.177c-.163.05-.348.092-.556.126a3.593 3.593 0 01-.665.059c-.483 0-.915-.081-1.297-.244a2.943 2.943 0 01-.969-.674 2.893 2.893 0 01-.606-.986 3.354 3.354 0 01-.211-1.187c0-.461.085-.885.253-1.272.168-.393.396-.73.682-1.011a3.134 3.134 0 011.011-.665 3.263 3.263 0 011.743-.194c.175.023.337.054.489.093a2.4 2.4 0 01.396.135c.118.05.202.103.252.16-.05.078-.089.143-.117.193a4.265 4.265 0 01-.093.16 8.48 8.48 0 01-.101.177 5.61 5.61 0 01-.152.278 1.109 1.109 0 00-.244-.118 1.79 1.79 0 00-.303-.076 2.82 2.82 0 00-.598-.067c-.315 0-.607.059-.876.177a2.285 2.285 0 00-.691.472 2.173 2.173 0 00-.455.673 2.093 2.093 0 00-.008 1.592c.107.253.253.478.438.674.191.197.415.357.674.48.258.118.544.177.859.177.179 0 .354-.017.522-.05.168-.04.317-.082.446-.127.13-.045.233-.09.312-.135.084-.044.129-.075.135-.092l.446.935zm.764.455v-6.141h1.036v2.561h2.931v-2.561h1.044v1.685c0 .432-.003.896-.008 1.39v3.066h-1.036v-2.595h-2.931v2.595h-1.036zm6.424-6.141h1.036v6.141h-1.036v-6.141zm2.762 0l1.643 3.951c0 .005.011.045.034.118.022.067.039.132.05.193a1.32 1.32 0 01.051-.193.562.562 0 01.042-.118l1.642-3.951h1.019c-.022.051-.076.177-.16.379-.084.203-.191.452-.32.75-.123.292-.264.621-.421.986-.152.359-.309.727-.472 1.103l-.48 1.103c-.151.365-.292.697-.421.994-.123.292-.23.539-.32.741l-.16.371-.16-.371a38.23 38.23 0 00-.32-.741 100.18 100.18 0 00-.421-.994 61.889 61.889 0 00-.472-1.103l-.48-1.103a50.853 50.853 0 00-.421-.986l-.312-.75a20.33 20.33 0 00-.16-.379h1.019zm4.532 3.083c0-.427.082-.831.244-1.213.169-.382.394-.716.674-1.002.287-.286.618-.514.994-.682a2.984 2.984 0 011.221-.253c.427 0 .831.084 1.213.253.382.168.716.396 1.003.682.286.286.511.62.673 1.002.169.382.253.786.253 1.213 0 .433-.084.84-.253 1.221a3.154 3.154 0 01-.673.994 3.231 3.231 0 01-1.003.666 3.057 3.057 0 01-1.213.244c-.432 0-.839-.081-1.221-.244a3.261 3.261 0 01-.994-.666 3.39 3.39 0 01-.674-.994 3.088 3.088 0 01-.244-1.221zm1.036 0c0 .298.054.579.16.842.113.259.264.486.455.683.197.191.421.342.674.454.258.113.536.169.834.169.286 0 .556-.056.808-.169.259-.112.48-.263.666-.454.191-.197.339-.424.446-.683.112-.263.169-.544.169-.842a2.08 2.08 0 00-.169-.834 2.222 2.222 0 00-.455-.69 2.091 2.091 0 00-1.491-.632 2.05 2.05 0 00-1.49.632 2.18 2.18 0 00-.607 1.524zm9.809-2.737l-.371.842a5.598 5.598 0 00-.699-.202 2.964 2.964 0 00-.64-.076c-.342 0-.615.067-.817.202-.196.135-.295.306-.295.514 0 .18.073.326.219.438.152.112.34.213.565.303.224.09.466.183.724.278.264.09.508.208.733.354.224.146.41.331.556.556.151.224.227.511.227.859 0 .269-.05.514-.151.733a1.474 1.474 0 01-.438.564 2.193 2.193 0 01-.75.371 3.906 3.906 0 01-1.053.126 4.081 4.081 0 01-1.221-.177 3.817 3.817 0 01-.421-.16 3.797 3.797 0 01-.32-.177l.446-.901c.236.129.489.23.758.303.27.068.508.101.716.101.101 0 .23-.011.387-.033a1.96 1.96 0 00.472-.127c.152-.062.281-.146.388-.252a.546.546 0 00.168-.413.59.59 0 00-.227-.48 2.034 2.034 0 00-.556-.337c-.225-.101-.469-.2-.733-.295a4.713 4.713 0 01-.724-.337 2.078 2.078 0 01-.565-.488c-.146-.197-.219-.444-.219-.742 0-.213.042-.421.127-.623.084-.208.21-.393.379-.556.174-.163.387-.295.64-.396.258-.101.561-.151.909-.151.219 0 .43.019.632.059.208.033.393.073.556.118.163.045.298.089.404.134.107.04.172.062.194.068zm-78.177 12.573c0-.427.04-.834.118-1.221a6.53 6.53 0 01.312-1.078 5.78 5.78 0 01.454-.91c.169-.27.343-.497.523-.682l.387.101c.135.028.267.059.396.093a5.245 5.245 0 00-.489.665 5.626 5.626 0 00-.421.859 6.33 6.33 0 00-.303 1.019c-.073.365-.11.75-.11 1.154 0 .404.037.789.11 1.154.079.365.18.705.303 1.019.124.315.264.598.421.851.163.258.326.48.489.665a4.587 4.587 0 01-.396.101l-.387.101a4.472 4.472 0 01-.523-.69c-.168-.27-.32-.57-.454-.902a6.53 6.53 0 01-.312-1.078 6.124 6.124 0 01-.118-1.221zm2.971-3.655h1.036v6.14h-1.036v-6.14zm2.451-.27c.028.039.09.129.185.27.096.134.214.303.354.505.146.197.306.415.48.657.18.241.359.488.539.741.185.247.365.491.539.733a68.427 68.427 0 01.826 1.145c.101.13.162.211.185.245l.151-.211.337-.48c.141-.191.298-.407.472-.649.174-.247.354-.496.539-.749.185-.253.365-.503.539-.75.18-.247.343-.471.489-.674.151-.202.278-.373.379-.513l.193-.27v6.41h-1.103v-3.133c0-.045.006-.093.017-.144a.701.701 0 00.017-.092l-2.03 2.922a8.636 8.636 0 01-.211-.278 44.048 44.048 0 00-.387-.539 56.012 56.012 0 01-.48-.665 27.203 27.203 0 00-.48-.665 19.917 19.917 0 00-.379-.523 4.629 4.629 0 01-.169-.252c0 .011.006.042.017.092a.687.687 0 01.017.144v3.133h-1.036v-6.41zm9.191 3.959a6.102 6.102 0 01-.438 2.299 5.402 5.402 0 01-.446.901c-.169.27-.343.5-.522.691l-.784-.177c.169-.185.332-.407.489-.665a5.714 5.714 0 00.716-1.87c.078-.371.118-.758.118-1.162 0-.405-.04-.789-.118-1.154a5.947 5.947 0 00-.295-1.019 5.19 5.19 0 00-.421-.851 4.712 4.712 0 00-.489-.674l.388-.101c.135-.039.267-.079.396-.118.179.191.353.421.522.691.168.269.317.57.446.901.135.331.242.693.32 1.086.079.388.118.795.118 1.222zm2.028-.632h.825c.213 0 .39-.036.531-.109.14-.073.252-.163.336-.27a1.03 1.03 0 00.177-.345 1.26 1.26 0 00.051-.329c0-.09-.017-.194-.051-.311a.94.94 0 00-.497-.615c-.14-.073-.32-.11-.539-.11h-.833v2.089zm-1.028 3.083v-6.14h1.735c.337 0 .643.045.918.134.281.09.517.219.708.388.196.168.348.376.454.623.107.247.16.525.16.834 0 .247-.036.494-.109.741a1.8 1.8 0 01-1.002 1.129c-.264.118-.59.177-.977.177h-.859v2.114h-1.028zm4.506-3.058c0-.426.082-.831.244-1.213a3.37 3.37 0 01.674-1.002c.287-.286.618-.514.994-.682a2.984 2.984 0 011.221-.253c.427 0 .831.084 1.213.253.382.168.716.396 1.003.682.286.287.511.621.673 1.002.169.382.253.787.253 1.213 0 .433-.084.84-.253 1.222a3.16 3.16 0 01-.673.993 3.231 3.231 0 01-1.003.666 3.057 3.057 0 01-1.213.244c-.432 0-.839-.081-1.221-.244a3.261 3.261 0 01-.994-.666 3.38 3.38 0 01-.674-.993 3.097 3.097 0 01-.244-1.222zm1.036 0c0 .298.054.579.16.843.112.258.264.485.455.682.197.191.421.342.674.455.258.112.536.168.834.168.286 0 .556-.056.808-.168a2.073 2.073 0 001.112-1.137c.112-.264.168-.545.168-.843 0-.297-.056-.575-.168-.834a2.233 2.233 0 00-.455-.69 2.073 2.073 0 00-.674-.463 1.976 1.976 0 00-.817-.169 2.033 2.033 0 00-1.49.632 2.18 2.18 0 00-.607 1.524zm9.809-2.737l-.371.842a5.826 5.826 0 00-.699-.202 3.028 3.028 0 00-.64-.076c-.342 0-.615.068-.817.202-.196.135-.295.306-.295.514 0 .18.073.326.219.438.152.112.34.214.565.303.224.09.466.183.724.278.264.09.508.208.733.354.224.146.41.331.556.556.151.225.227.511.227.859 0 .27-.05.514-.152.733a1.462 1.462 0 01-.437.564 2.193 2.193 0 01-.75.371 3.906 3.906 0 01-1.053.126 4.2 4.2 0 01-.674-.05 3.817 3.817 0 01-.968-.287 3.797 3.797 0 01-.32-.177l.446-.901c.236.129.488.23.758.303.27.068.508.101.716.101.101 0 .23-.011.387-.033.163-.023.32-.065.472-.127.152-.061.281-.146.388-.252a.546.546 0 00.168-.413.59.59 0 00-.227-.48 2.034 2.034 0 00-.556-.337 10.831 10.831 0 00-.733-.295 4.713 4.713 0 01-.724-.337 2.061 2.061 0 01-.565-.488c-.146-.197-.219-.444-.219-.741 0-.214.042-.422.127-.624.084-.207.21-.393.379-.556.174-.162.387-.294.64-.395.258-.102.561-.152.909-.152.219 0 .43.02.632.059.208.034.393.073.556.118.163.045.298.09.404.135.107.039.171.061.194.067zm1.19-.345h1.036v6.14h-1.036v-6.14zm3.479.935v1.667h.775c.286 0 .497-.084.631-.252a.916.916 0 00.211-.607c0-.275-.084-.477-.253-.606-.168-.135-.396-.202-.682-.202h-.682zm0 2.543v1.727h.808c.152 0 .295-.017.43-.051a1.25 1.25 0 00.354-.16.775.775 0 00.235-.269.849.849 0 00.085-.388.747.747 0 00-.371-.674 1.18 1.18 0 00-.387-.143 2.244 2.244 0 00-.438-.042h-.716zm-1.028 2.662v-6.14h1.676c.303 0 .579.03.826.092.247.056.457.149.631.278.174.124.306.289.396.497a1.7 1.7 0 01.143.733c0 .157-.016.312-.05.463a1.351 1.351 0 01-.152.413 1.151 1.151 0 01-.269.328 1.144 1.144 0 01-.421.219c.14.028.28.076.421.144a1.26 1.26 0 01.657.707c.073.169.109.368.109.598 0 .298-.059.553-.177.767a1.485 1.485 0 01-.454.513 1.863 1.863 0 01-.649.295 3.14 3.14 0 01-.767.093h-1.92zm5.009 0v-6.14h1.028v5.163h2.982v.977h-4.01zm4.845 0v-6.14h4.077v.935h-3.049v1.65h2.712v.961h-2.712v1.634h3.166v.96h-4.194zm8.837-5.795l-.371.842a5.88 5.88 0 00-.699-.202 3.036 3.036 0 00-.64-.076c-.343 0-.615.068-.817.202-.197.135-.295.306-.295.514 0 .18.073.326.219.438.152.112.34.214.564.303.225.09.466.183.725.278.264.09.508.208.732.354.225.146.41.331.556.556.152.225.228.511.228.859 0 .27-.051.514-.152.733a1.455 1.455 0 01-.438.564 2.178 2.178 0 01-.749.371 3.906 3.906 0 01-1.053.126 4.2 4.2 0 01-.674-.05 4.154 4.154 0 01-.548-.127 3.895 3.895 0 01-.421-.16 4.142 4.142 0 01-.32-.177l.447-.901c.235.129.488.23.758.303.269.068.508.101.716.101.101 0 .23-.011.387-.033.163-.023.32-.065.472-.127.151-.061.28-.146.387-.252a.547.547 0 00.169-.413.589.589 0 00-.228-.48 2.019 2.019 0 00-.556-.337 10.624 10.624 0 00-.733-.295 4.758 4.758 0 01-.724-.337 2.057 2.057 0 01-.564-.488c-.146-.197-.219-.444-.219-.741 0-.214.042-.422.126-.624a1.62 1.62 0 01.379-.556c.174-.162.388-.294.64-.395.259-.102.562-.152.91-.152.219 0 .43.02.632.059a5.4 5.4 0 01.556.118c.162.045.297.09.404.135.107.039.171.061.194.067z" fill="#000"/></g><defs><clipPath id="clip0"><path fill="#fff" transform="translate(20 81)" d="M0 0h160v37.895H0z"/></clipPath><clipPath id="clip1"><path fill="#fff" transform="translate(20 81)" d="M0 0h160v37.895H0z"/></clipPath></defs></svg>