<svg width="200" height="200" fill="none" xmlns="http://www.w3.org/2000/svg"><path fill="#fff" d="M0 0h200v200H0z"/><g clip-path="url(#clip0)" fill="#000"><path d="M13.99 99.743v1.148h-2.781v3.99H10v-8.463h4.836v1.148h-3.627v2.177h2.78zm7.07 5.259a3.665 3.665 0 01-1.464-.291 3.518 3.518 0 01-1.16-.822 3.406 3.406 0 01-.653-1.052c-.153-.402-.23-.89-.23-1.462v-4.957h1.21v5.017c0 .403.043.738.132 1.004.097.257.23.479.4.664.209.234.462.42.76.557.307.129.642.193 1.004.193.363 0 .693-.064.991-.193.307-.137.565-.323.774-.557.17-.185.298-.407.387-.664.097-.266.145-.601.145-1.004v-5.017h1.21v4.957c0 .572-.081 1.06-.243 1.462a3.232 3.232 0 01-.64 1.052c-.323.347-.71.621-1.161.822a3.665 3.665 0 01-1.463.291zm8.283-6.335v6.214h-1.209v-8.463h.847l5.077 6.214v-6.214h1.21v8.463h-.847l-5.078-6.214zm15.53 1.982c0-.475-.093-.918-.278-1.33a2.872 2.872 0 00-.75-1.04 2.677 2.677 0 00-.967-.531c-.37-.121-.854-.182-1.45-.182h-1.27v6.166h1.27c.596 0 1.08-.06 1.45-.181.379-.121.701-.298.967-.532.323-.282.572-.629.75-1.04.185-.411.278-.854.278-1.33zm-5.924 4.232v-8.463h2.539c.677 0 1.24.068 1.692.205.46.137.863.335 1.21.593.523.387.934.878 1.232 1.475.307.596.46 1.249.46 1.958 0 .71-.15 1.362-.447 1.959a4.068 4.068 0 01-1.234 1.475c-.346.258-.75.455-1.209.592-.459.137-1.027.206-1.704.206h-2.54zm14.832-2.176h-3.566l-.883 2.176h-1.257l3.506-8.463h.846l3.506 8.463h-1.257l-.895-2.176zm-3.083-1.149h2.611l-1.305-3.143-1.306 3.143zm7.232-.907a4.4 4.4 0 01.326-1.704 4.24 4.24 0 01.895-1.379 4.275 4.275 0 011.354-.93 4.264 4.264 0 011.704-.339c.605 0 1.177.117 1.717.35a3.747 3.747 0 011.378.956l-.81.798c-.25-.274-.58-.5-.991-.677a3.058 3.058 0 00-1.294-.279 2.999 2.999 0 00-2.188.92c-.274.281-.492.62-.653 1.015-.153.387-.23.81-.23 1.269 0 .476.081.911.242 1.306.162.395.383.733.665 1.015.29.283.629.5 1.016.653.387.153.806.23 1.257.23.282 0 .544-.036.786-.109a3.18 3.18 0 00.677-.278 3.42 3.42 0 00.544-.375 4.25 4.25 0 00.423-.435l.858.774a4.033 4.033 0 01-.64.641 4.189 4.189 0 01-1.693.81c-.314.08-.633.121-.955.121a4.64 4.64 0 01-1.753-.327 4.27 4.27 0 01-1.39-.907 4.292 4.292 0 01-.919-1.378 4.554 4.554 0 01-.326-1.741zm10.523-4.231h1.209v8.463h-1.21v-8.463zm4.234 4.231a4.5 4.5 0 01.327-1.716 4.24 4.24 0 01.895-1.379 3.983 3.983 0 011.341-.919 4.118 4.118 0 011.669-.338c.596 0 1.152.113 1.668.338.516.218.963.524 1.342.92.379.386.677.846.895 1.378a4.49 4.49 0 01.326 1.716c0 .621-.109 1.197-.326 1.729a4.417 4.417 0 01-.895 1.378 4.232 4.232 0 01-1.342.919 4.24 4.24 0 01-1.668.327 4.241 4.241 0 01-1.669-.327 4.233 4.233 0 01-1.341-.919 4.418 4.418 0 01-.895-1.378 4.522 4.522 0 01-.327-1.729zm1.21 0c0 .46.076.887.23 1.282.152.387.362.725.628 1.015.274.282.592.504.955.665a3 3 0 001.209.242 2.92 2.92 0 001.197-.242c.37-.161.689-.383.955-.665.274-.29.487-.628.64-1.015.154-.395.23-.822.23-1.282a3.42 3.42 0 00-.23-1.27 2.988 2.988 0 00-.64-1.015 2.786 2.786 0 00-.955-.677 2.913 2.913 0 00-1.197-.242 3 3 0 00-1.21.242 2.95 2.95 0 00-.954.677c-.266.282-.476.62-.629 1.016-.153.387-.23.81-.23 1.269zm2.599-4.836L77.28 94h1.27l-1.27 1.813h-.785zm8.88 2.854v6.214h-1.21v-8.463h.847l5.078 6.214v-6.214H91.3v8.463h-.846l-5.078-6.214zm14.363 4.509c.097.21.242.375.435.496.202.121.431.181.689.181.186 0 .363-.044.532-.133.178-.089.319-.201.423-.338.073-.097.129-.214.17-.351.04-.145.06-.347.06-.605v-6.008h1.209v5.924c0 .338-.024.62-.072.846a2.25 2.25 0 01-.218.592c-.21.363-.5.657-.87.883a2.325 2.325 0 01-1.234.339 2.56 2.56 0 01-1.33-.351 2.144 2.144 0 01-.87-1.016l1.076-.459zm10.469 1.826a3.667 3.667 0 01-1.463-.291 3.514 3.514 0 01-1.16-.822 3.403 3.403 0 01-.653-1.052c-.153-.402-.23-.89-.23-1.462v-4.957h1.209v5.017c0 .403.044.738.133 1.004.097.257.23.479.399.664.21.234.464.42.762.557.306.129.64.193 1.003.193.363 0 .693-.064.991-.193.307-.137.565-.323.774-.557.169-.185.298-.407.387-.664.097-.266.145-.601.145-1.004v-5.017h1.209v4.957c0 .572-.08 1.06-.242 1.462a3.229 3.229 0 01-.64 1.052c-.323.347-.71.621-1.161.822a3.664 3.664 0 01-1.463.291zm11.754-2.297h-3.566l-.883 2.176h-1.257l3.506-8.463h.846l3.506 8.463h-1.257l-.895-2.176zm-3.083-1.149h2.612l-1.306-3.143-1.306 3.143zm9.106-2.889v6.214h-1.209v-8.463h.846l5.078 6.214v-6.214h1.209v8.463h-.847l-5.077-6.214zm18.908 4.4h-.846l-2.478-3.88v5.694h-1.209v-8.463h.846l3.264 5.162 3.265-5.162h.846v8.463h-1.209v-5.695l-2.479 3.881zm12.058-.362h-3.566l-.883 2.176h-1.257l3.506-8.463h.846l3.506 8.463h-1.257l-.895-2.176zm-3.083-1.149h2.612l-1.306-3.143-1.306 3.143zm9.106-.665v3.99h-1.209v-8.463h2.962c.386 0 .709.044.967.133.258.08.483.201.677.363.258.21.459.463.604.761.153.298.23.625.23.98 0 .354-.077.68-.23.979a2.213 2.213 0 01-1.052 1.039 2.278 2.278 0 01-.544.17l3.035 4.038h-1.463l-3.01-3.99h-.967zm1.692-1.148c.274 0 .488-.029.641-.085.153-.056.278-.133.375-.23.209-.21.314-.467.314-.773 0-.154-.028-.295-.085-.424a1.062 1.062 0 00-.229-.35 1.022 1.022 0 00-.375-.23c-.153-.056-.367-.085-.641-.085h-1.692v2.177h1.692zm5.678.906a4.41 4.41 0 011.221-3.083 4.275 4.275 0 011.354-.93 4.264 4.264 0 011.705-.339c.604 0 1.176.117 1.716.35a3.752 3.752 0 011.379.956l-.81.798a2.84 2.84 0 00-.992-.677 3.057 3.057 0 00-1.293-.279 2.994 2.994 0 00-2.189.92c-.274.281-.491.62-.652 1.015-.153.387-.23.81-.23 1.269 0 .476.081.911.242 1.306.161.395.383.733.665 1.015.29.283.628.5 1.015.653.387.153.806.23 1.258.23.282 0 .544-.036.785-.109.25-.072.476-.165.677-.278.202-.113.383-.238.544-.375a4.19 4.19 0 00.424-.435l.858.774a4.006 4.006 0 01-.641.641 4.2 4.2 0 01-1.692.81c-.315.08-.633.121-.955.121a4.638 4.638 0 01-1.753-.327 4.272 4.272 0 01-1.391-.907 4.294 4.294 0 01-.919-1.378 4.565 4.565 0 01-.326-1.741zm16.447.242h-4.715v3.99h-1.209v-8.463h1.209v3.325h4.715v-3.325H190v8.463h-1.209v-3.99z"/></g><defs><clipPath id="clip0"><path fill="#fff" transform="translate(10 80)" d="M0 0h180v40H0z"/></clipPath></defs></svg>