<svg width="200" height="200" fill="none" xmlns="http://www.w3.org/2000/svg"><path fill="#fff" d="M0 0h200v200H0z"/><g clip-path="url(#clip0)" fill="#000"><path d="M35.483 115.713a4.603 4.603 0 01-2.764 4.531 4.607 4.607 0 01-1.834.377 4.185 4.185 0 01-3.16-1.322v1.149h-1.15v-13.413h1.15v5.379A4.208 4.208 0 0131 111a4.401 4.401 0 014.483 4.713zm-1.15 0a3.448 3.448 0 00-3.448-3.701 3.804 3.804 0 00-3.16 1.609v4.356a3.873 3.873 0 003.207 1.586 3.444 3.444 0 003.295-2.375c.15-.46.202-.947.152-1.429l-.046-.046zm11.242-4.541l-4.219 10.207c-.735 1.77-1.816 2.701-3.379 2.701a3.75 3.75 0 01-1.552-.321v-1.15c.464.236.975.362 1.495.368a2.304 2.304 0 002.298-1.517l.403-1.012-3.943-9.322h1.276l3.218 7.954 3.184-7.954 1.219.046zm10.689 9.633A6.428 6.428 0 0152 119.264v-2.77a7.001 7.001 0 004.46 1.92c1.15 0 2.218-.449 2.218-1.552s-1.264-1.425-2.54-1.793c-2.08-.586-4.414-1.356-4.414-4.092 0-2.736 2.299-4.034 4.793-4.034a6.683 6.683 0 013.54 1.011v2.517a6.898 6.898 0 00-3.563-1.149c-1.287 0-2.299.552-2.299 1.621 0 1.068 1.219 1.436 2.862 1.896 1.874.506 4.058 1.149 4.058 3.828 0 2.678-2.356 4.138-4.85 4.138zm6.747-12.943a1.55 1.55 0 112.994.514 1.55 1.55 0 01-1.43.98 1.452 1.452 0 01-1.454-.9 1.455 1.455 0 01-.11-.594zm.345 12.586v-9.62h2.3v9.62h-2.3zm14.092-5.85v5.85H75.15v-5.643a1.965 1.965 0 00-2.195-1.977 2.463 2.463 0 00-2.057.965v6.655h-2.3v-9.62h2.219v.885a3.73 3.73 0 012.724-1.081 3.672 3.672 0 012.862 1.089 3.678 3.678 0 011.046 2.877zM89.494 113h-2.207a1.955 1.955 0 01.69 1.621c0 2.299-2.115 2.942-3.54 3.23-1.425.287-2.138.229-2.138.793 0 .563.816.643 1.437.655h.977c1.287 0 4 .161 4 2.552 0 2.195-2.3 3.115-4.92 3.115s-4.46-.817-4.46-2.587c0-1.08.736-1.942 2.207-2.23a1.696 1.696 0 01-1.333-1.471c0-.69.471-1.149 1.15-1.333a3.232 3.232 0 01-1.472-2.851c0-2.299 1.793-3.701 4.368-3.701h5.207l.034 2.207zm-8.046 9.08c0 .84 1.035 1.15 2.449 1.15 1.413 0 2.586-.242 2.586-1.15 0-.908-1-.908-2.506-.908-1.506 0-2.506.012-2.506.954l-.023-.046zm4.357-7.517a1.873 1.873 0 00-3.736 0 1.873 1.873 0 003.736 0zm13.988-3.735v9.62H97.61v-.885a3.945 3.945 0 01-2.793 1.058A3.73 3.73 0 0192 119.498a3.734 3.734 0 01-1.056-2.843v-5.827h2.298v5.643a2.03 2.03 0 00.665 1.452 2.026 2.026 0 001.508.525 2.663 2.663 0 002.069-.919v-6.701h2.31zm2.839 9.62v-13.413h2.299v13.413h-2.299zm12.552 0h-2.207v-1.299a3.533 3.533 0 01-3 1.472 2.521 2.521 0 01-2.05-.658 2.52 2.52 0 01-.801-1.997c0-2.46 2.449-2.794 4.449-3.311.701-.172 1.31-.356 1.31-1.011 0-.655-.828-.989-1.701-.989a5.5 5.5 0 00-3.448 1.253v-2.126a6.17 6.17 0 013.643-1.15c2.368 0 3.816 1.15 3.816 3.127l-.011 6.689zm-2.299-4.482c-.375.145-.759.268-1.149.367-1.403.38-2.299.587-2.299 1.529 0 .552.322.874 1.149.874.293.023.587-.014.864-.109a2.132 2.132 0 001.435-2.006v-.655zm10.966-5.104v2.207a4.652 4.652 0 00-1.15-.15 2.766 2.766 0 00-2.379 1.15v6.356h-2.299v-9.597h2.115v1.149a2.973 2.973 0 012.621-1.264c.368.013.733.063 1.092.149zm15.965 5.736c0 2.298-1.885 3.85-4.471 3.85h-5.127v-13.207h5a3.328 3.328 0 013.386 2.019c.182.434.27.902.258 1.372a3.024 3.024 0 01-1.368 2.713 3.307 3.307 0 012.322 3.253zm-7.172-4.127h1.977c1.034 0 1.758-.563 1.758-1.494s-.643-1.414-1.666-1.414h-2.069v2.908zm4.747 3.908c0-1-.839-1.609-2.023-1.609h-2.724v3.448h2.551c1.322-.092 2.196-.827 2.196-1.839zm12.092 4.069h-2.219v-1.299a3.526 3.526 0 01-3 1.472 2.521 2.521 0 01-2.049-.658 2.531 2.531 0 01-.801-1.998c0-2.459 2.46-2.793 4.46-3.31.689-.172 1.298-.356 1.298-1.011 0-.656-.827-.989-1.701-.989a5.45 5.45 0 00-3.448 1.253v-2.126a6.15 6.15 0 013.644-1.15c2.298 0 3.804 1.15 3.804 3.127l.012 6.689zm-2.299-4.483a9.8 9.8 0 01-1.15.368c-1.402.38-2.298.587-2.298 1.529 0 .552.321.874 1.149.874.292.023.587-.014.864-.109a2.132 2.132 0 001.435-2.006v-.656zm13.931-1.367v5.85h-2.299v-5.643a1.96 1.96 0 00-.646-1.481 1.972 1.972 0 00-1.538-.496 2.453 2.453 0 00-2.057.965v6.655h-2.299v-9.62h2.207v.885a3.72 3.72 0 012.77-1.069 3.676 3.676 0 013.862 3.954zm7.368.965l4.597 4.885h-3.023l-3.873-4.184v4.184h-2.299v-13.413h2.299v7.816l3.736-4.023h3l-4.437 4.735zM34.46 101.092a11.946 11.946 0 01-7.885-2.885v-5.161a12.989 12.989 0 008.287 3.586c2.138 0 4.138-.85 4.138-2.885 0-2.034-2.299-2.666-4.736-3.333-3.862-1.092-8.218-2.529-8.218-7.62 0-5.093 4.253-7.518 8.92-7.518 2.318.005 4.589.662 6.551 1.896v4.725a12.897 12.897 0 00-6.632-2.115c-2.39 0-4.287 1.023-4.287 3.023 0 2.218 2.299 2.666 5.345 3.517 3.448.942 7.54 2.138 7.54 7.126 0 5.15-4.46 7.644-9.023 7.644zm28.586-8.012H50.793c.138 2.357 2.529 3.931 5.437 3.931a11.598 11.598 0 006.322-2.172v3.862a11.864 11.864 0 01-6.897 2.035c-5.575 0-9.195-3.725-9.195-9.334s3.609-9.195 8.7-9.195c4.92 0 7.874 3.368 7.874 8.816l.012 2.058zm-12.218-3.23h8.045a3.517 3.517 0 00-3.69-3.827 4.103 4.103 0 00-4.355 3.828zm16.252 10.575V75.46h4.322v24.965H67.08zm21.564-20.931a6.828 6.828 0 00-3.046-.77c-1.828 0-3.196.908-3.196 2.874v.92h5.403v4.034h-5.403v13.873H78.07V86.552h-3.69v-4.035h3.69v-.988c0-4.23 3.23-6.529 6.92-6.529a9.76 9.76 0 013.678.736l-.023 3.758zm21.23 13.759c0 4.184-3.449 7.172-8.322 7.172h-9.54V75.839h9.275c3.966 0 6.782 2.39 6.782 6.287a5.639 5.639 0 01-2.529 5.058 6.136 6.136 0 014.334 6.069zm-13.334-7.69h3.678c1.931 0 3.265-1.046 3.265-2.77s-1.15-2.632-3.081-2.632H96.54v5.402zm8.805 7.173c0-1.862-1.54-2.989-3.759-2.989H96.54v6.356h4.747c2.449 0 4.058-1.367 4.058-3.367zm22.506 7.689h-4.104v-2.436a6.577 6.577 0 01-5.586 2.735c-3.506 0-5.299-2.034-5.299-4.954 0-4.598 4.598-5.195 8.287-6.138 1.299-.322 2.426-.666 2.426-1.896 0-1.437-1.552-1.828-3.161-1.828a10.205 10.205 0 00-6.425 2.299v-3.862a11.422 11.422 0 016.77-2.184c4.39 0 7.092 2.184 7.092 5.828v12.436zm-4.311-8.356c-.689.278-1.396.512-2.115.701-2.597.701-4.31 1.08-4.31 2.84 0 1.022.586 1.62 2.138 1.62a3.965 3.965 0 004.287-3.931v-1.23zm25.943-2.529v10.885h-4.322V89.942c0-2.298-1.747-3.678-4.069-3.678a4.593 4.593 0 00-3.828 1.782v12.379h-4.321V82.517h4.114v1.678a6.906 6.906 0 015.161-2c4.035-.034 7.265 2.46 7.265 7.345zm13.689 1.782l8.529 9.103h-5.609l-7.207-7.804v7.804h-4.31V75.46h4.31v14.483l6.897-7.472h5.62l-8.23 8.85z"/></g><defs><clipPath id="clip0"><path fill="#fff" transform="translate(26 75)" d="M0 0h147.069v50H0z"/></clipPath></defs></svg>