<svg width="200" height="200" fill="none" xmlns="http://www.w3.org/2000/svg"><path fill="#fff" d="M0 0h200v200H0z"/><g clip-path="url(#clip0)" fill-rule="evenodd" clip-rule="evenodd" fill="#000"><path d="M110.154 110.452v5.742c-.517.309-1.141.546-1.873.713-.732.167-1.48.25-2.243.25-1.058 0-2.014-.167-2.87-.5-.855-.333-1.584-.79-2.187-1.371a5.844 5.844 0 01-1.384-2.074c-.32-.803-.48-1.68-.48-2.63 0-1.075.19-2.053.572-2.936a7.125 7.125 0 011.541-2.279 7.054 7.054 0 014.956-2.009 8.661 8.661 0 012.049.259c.344.086.677.188.996.305.32.118.609.257.868.417l-1.108 1.853a2.73 2.73 0 00-.618-.288 9.044 9.044 0 00-.747-.213 6.904 6.904 0 00-.766-.138 5.844 5.844 0 00-.711-.047c-.627 0-1.227.127-1.799.38a5.132 5.132 0 00-1.523 1.028 4.89 4.89 0 00-1.061 1.547 4.685 4.685 0 00-.397 1.917c0 .617.117 1.204.351 1.759.233.556.559 1.047.978 1.473a4.69 4.69 0 003.396 1.399c.246 0 .553-.022.923-.065a5.299 5.299 0 001.052-.232v-2.297h-2.51v-1.963h4.595zm7.604 6.705c-.726 0-1.405-.12-2.039-.361a5.037 5.037 0 01-1.652-1.01 4.66 4.66 0 01-1.107-1.565 4.947 4.947 0 01-.406-2.028v-8.687h2.251v8.631c0 .396.077.766.231 1.112.154.346.363.648.628.907.264.26.575.467.932.621.356.154.744.232 1.162.232.419 0 .809-.078 1.172-.232.363-.154.68-.361.951-.621.271-.259.483-.561.637-.907.153-.346.23-.716.23-1.112v-8.631H123v8.687c0 .741-.135 1.417-.406 2.028a4.617 4.617 0 01-1.117 1.565 5.11 5.11 0 01-1.67 1.01 5.766 5.766 0 01-2.049.361zm8.214-.148v-13.503h8.933v2.056h-6.682v3.63h5.943v2.112h-5.943v3.593h6.94v2.112h-9.191zm11.424 0v-13.503h3.802c.739 0 1.412.099 2.021.296a4.401 4.401 0 011.551.852c.424.371.753.828.987 1.371.234.543.351 1.154.351 1.834 0 .37-.037.741-.111 1.111-.074.37-.191.729-.351 1.074a3.804 3.804 0 01-1.55 1.704l.794 1.269c.258.414.52.831.784 1.251.265.419.538.852.821 1.296.283.445.591.926.923 1.445h-2.713c-.554-.864-1.077-1.683-1.569-2.454-.492-.772-.966-1.504-1.421-2.195h-2.067v4.649h-2.252zm2.252-6.779h1.809c.467 0 .855-.081 1.162-.241.308-.161.554-.355.739-.584a2.03 2.03 0 00.387-.741c.074-.265.111-.509.111-.731 0-.21-.034-.448-.101-.713a2.083 2.083 0 00-.37-.751 2.131 2.131 0 00-.729-.592c-.307-.161-.701-.241-1.181-.241h-1.827v4.594zm21.373-6.724v14.133a8.384 8.384 0 00-.572-.611 75.864 75.864 0 00-1.089-1.066l-1.431-1.37c-.523-.5-1.055-1.007-1.596-1.519a384.71 384.71 0 01-2.999-2.871c-.425-.414-.782-.766-1.071-1.056a8.193 8.193 0 01-.563-.602 1.619 1.619 0 00-.147-.195c-.087-.104-.16-.2-.222-.287l.055.593v8.354h-2.251v-14.115c.086.112.277.312.572.602.295.291.658.64 1.089 1.047.43.408.907.852 1.43 1.334l1.597 1.472c.541.5 1.07.994 1.587 1.482.517.488.99.932 1.421 1.334.431.401.791.744 1.08 1.028.289.284.477.481.563.593l.35.518-.055-.63v-8.168h2.252zm3.101 0h2.27v13.503h-2.27v-13.503zm15.503 12.503a6.326 6.326 0 01-1.56.731 9.023 9.023 0 01-1.227.297 8.42 8.42 0 01-1.458.12c-1.058 0-2.006-.182-2.842-.546a6.335 6.335 0 01-2.123-1.473 6.4 6.4 0 01-1.329-2.167 7.446 7.446 0 01-.461-2.612c0-1.012.184-1.948.554-2.806a6.913 6.913 0 011.504-2.223 6.823 6.823 0 012.215-1.454 7.046 7.046 0 012.704-.518c.369 0 .741.027 1.116.083a9.8 9.8 0 011.061.213c.333.086.625.185.877.296.252.111.434.229.545.352a8.46 8.46 0 00-.259.426c-.061.111-.126.226-.194.343-.067.117-.141.25-.221.398-.08.148-.194.352-.342.611a2.424 2.424 0 00-.535-.259 4.403 4.403 0 00-.655-.176 8.733 8.733 0 00-.692-.102 6.24 6.24 0 00-.628-.037c-.689 0-1.325.13-1.91.389a4.95 4.95 0 00-1.513 1.028 4.651 4.651 0 00-.997 1.491 4.48 4.48 0 00-.36 1.76c0 .593.114 1.17.342 1.732a4.68 4.68 0 00.959 1.491c.412.432.902.781 1.468 1.047a4.383 4.383 0 001.882.398c.394 0 .775-.04 1.144-.121.37-.08.696-.169.979-.268.283-.099.513-.198.692-.297.178-.098.274-.166.286-.203l.978 2.056zm9.948 1l-.194-.463-.341-.815c-.135-.321-.283-.676-.443-1.065l-.498-1.213h-4.633l-1.476 3.556h-2.234c.049-.111.166-.386.351-.824.185-.439.415-.982.692-1.63l.923-2.167c.338-.797.686-1.609 1.043-2.436.357-.828.704-1.64 1.043-2.436.338-.797.645-1.519.922-2.167.277-.649.508-1.192.692-1.63.185-.439.302-.713.351-.825l.36.825a813.539 813.539 0 011.624 3.797c.339.796.686 1.608 1.043 2.436.357.827.704 1.639 1.043 2.436l.923 2.167c.277.648.507 1.191.692 1.63.184.438.301.713.35.824h-2.233zm-5.334-5.464h3.064l-1.329-3.223a4.134 4.134 0 01-.203-.667 3.662 3.662 0 01-.111.417 2.456 2.456 0 00-.073.25l-1.348 3.223zM99.55 96.17v-9.766h2.657c.51 0 .978.067 1.403.202.425.135.792.335 1.1.6.309.264.548.588.718.97.171.381.256.819.256 1.313 0 .27-.027.536-.081.801a3.184 3.184 0 01-.262.768 3.04 3.04 0 01-.463.687 2.465 2.465 0 01-.684.532c.358.566.747 1.193 1.167 1.88a78.32 78.32 0 001.276 2.014h-1.759c-.179-.279-.365-.57-.557-.876-.192-.305-.385-.609-.577-.91-.193-.3-.38-.597-.564-.888a99.486 99.486 0 00-.517-.815h-1.637v3.489h-1.477zm1.476-4.876h1.329c.358 0 .657-.06.899-.182a1.615 1.615 0 00.866-1.03 2.11 2.11 0 00.087-.566c0-.17-.029-.357-.087-.56a1.58 1.58 0 00-.302-.565 1.684 1.684 0 00-.571-.438c-.237-.117-.53-.175-.879-.175h-1.342v3.516zm6.953 4.877v-9.767h6.389v1.334h-4.913v2.856h4.376v1.36h-4.376v2.856h5.101v1.36h-6.577zm9.758-4.877h1.329c.358 0 .658-.063.9-.189a1.7 1.7 0 00.57-.458c.139-.18.237-.372.295-.579.059-.206.088-.39.088-.552 0-.17-.029-.357-.088-.56a1.564 1.564 0 00-.302-.565 1.68 1.68 0 00-.57-.438c-.237-.117-.53-.175-.879-.175h-1.343v3.516zm-1.476 4.877v-9.767h2.658c.51 0 .977.067 1.402.202a3.12 3.12 0 011.101.6c.309.264.548.588.718.97.17.381.255.819.255 1.313 0 .386-.058.77-.174 1.152a2.82 2.82 0 01-.564 1.023c-.26.301-.6.546-1.02.735-.421.188-.931.283-1.53.283h-1.37v3.489h-1.476zm7.745 0v-9.767h6.389v1.334h-4.913v2.856h4.376v1.36h-4.376v2.856h5.101v1.36h-6.577zm16.819-9.767v10.211a9.937 9.937 0 00-.725-.781l-1.235-1.24c-.465-.466-.96-.956-1.483-1.468-.524-.512-1.018-.999-1.483-1.462a72.089 72.089 0 01-1.222-1.239 11.072 11.072 0 01-.698-.775l-.255-.35.04.431v6.44h-1.476V85.946c.098.126.262.305.49.539a82.384 82.384 0 001.825 1.819l1.128 1.09c.38.369.756.73 1.127 1.085.372.355.712.685 1.021.99.308.306.575.575.798.808.224.234.381.409.47.526l.255.377-.04-.458v-6.318h1.463zm7.96.539l-.524 1.199a8.605 8.605 0 00-1.094-.324 4.777 4.777 0 00-1.04-.12c-.564 0-1.013.116-1.349.35-.336.233-.503.53-.503.888 0 .306.12.55.362.735.242.184.541.35.899.498.358.148.748.297 1.168.445.421.148.81.339 1.168.572.358.234.658.528.899.883.242.354.363.81.363 1.367 0 .431-.078.82-.235 1.165a2.45 2.45 0 01-.698.896 3.255 3.255 0 01-1.154.58c-.461.134-1 .201-1.618.201-.394 0-.749-.027-1.067-.08a5.735 5.735 0 01-.859-.21 4.818 4.818 0 01-.671-.275 8.186 8.186 0 01-.49-.27l.644-1.28c.358.207.756.373 1.195.499.438.126.836.188 1.194.188.179 0 .401-.022.665-.067a2.94 2.94 0 00.758-.236c.242-.112.45-.262.624-.451a1.01 1.01 0 00.262-.714c0-.26-.069-.483-.208-.667a1.951 1.951 0 00-.55-.485 4.827 4.827 0 00-.779-.377 84.432 84.432 0 01-.892-.35c-.305-.121-.602-.25-.893-.384a3.444 3.444 0 01-.779-.492 2.339 2.339 0 01-.55-.673c-.139-.256-.208-.564-.208-.923 0-.332.067-.66.201-.984.135-.323.336-.61.604-.862a3.034 3.034 0 011-.606c.399-.153.862-.229 1.39-.229.322 0 .637.027.946.08.309.055.588.115.839.183.25.067.463.132.638.195.174.063.288.108.342.135zm8.04 9.228a24.84 24.84 0 01-.188-.431 114.29 114.29 0 01-.61-1.462 84.263 84.263 0 01-.37-.91h-3.436l-1.154 2.803h-1.45l4.336-10.225c.053.126.15.355.288.687l.497 1.192a280.264 280.264 0 001.369 3.24 941.296 941.296 0 011.376 3.233l.503 1.192.289.68h-1.45zm-4.094-4.042h2.43a66.232 66.232 0 01-.356-.855 611.2 611.2 0 00-.309-.755l-.248-.6a9.01 9.01 0 01-.161-.403 3.715 3.715 0 01-.134-.485c-.018.09-.045.188-.081.296-.036.108-.058.17-.067.189l-1.074 2.613zm6.752 4.042v-9.767h2.658c.51 0 .977.067 1.402.202a3.12 3.12 0 011.101.6c.309.264.548.588.718.97.17.381.255.819.255 1.313 0 .27-.027.536-.08.801a3.184 3.184 0 01-.262.768 3.04 3.04 0 01-.463.687 2.455 2.455 0 01-.685.532c.358.566.748 1.193 1.168 1.88.421.687.846 1.358 1.275 2.014h-1.758c-.179-.279-.365-.57-.557-.876l-.577-.91c-.193-.3-.381-.597-.564-.888-.184-.292-.356-.564-.517-.815h-1.638v3.489h-1.476zm1.476-4.877h1.329c.358 0 .658-.06.9-.182a1.625 1.625 0 00.865-1.031c.059-.206.088-.395.088-.565 0-.17-.029-.357-.088-.56a1.564 1.564 0 00-.302-.565 1.68 1.68 0 00-.57-.438c-.237-.117-.53-.175-.879-.175h-1.343v3.516zM55.172 114.066c0-1.745-.863-2.508-2.665-3.083-.77-.249-1.71-.468-1.71-1.075 0-.498.308-.716.77-.716h.262c.524 0 .91.28 1.186.81.062.124.2.124.309.047l1.6-1.075c.155-.093.093-.249.031-.342a3.502 3.502 0 00-.739-.904c-.6-.529-1.417-.824-2.417-.824h-.231c-2.11 0-3.389 1.152-3.389 3.082 0 1.729.925 2.414 2.572 2.989 1.032.359 1.802.452 1.802 1.153 0 .451-.308.716-.786.716h-.477c-.523 0-.909-.28-1.185-.81-.062-.124-.2-.124-.31-.046l-1.6 1.074c-.154.093-.093.234-.03.326.169.297.37.562.615.795.616.607 1.478.95 2.541.95h.477c2.172 0 3.373-1.152 3.373-3.067zm20.367 2.708v-9.539c0-.125-.108-.156-.17-.156h-2.262c-.077 0-.138.031-.138.156v9.539c0 .125.062.157.138.157h2.263c.093 0 .17-.032.17-.157h-.001zm-3.643-7.54v-1.999c0-.125-.092-.156-.153-.156h-6.406c-.077 0-.139.031-.139.156v9.539c0 .125.062.157.14.157h2.277c.078 0 .155-.032.155-.157v-3.513c0-.109.046-.172.185-.172h3.11c.077 0 .154-.031.154-.14v-2.014c0-.109-.077-.141-.155-.141h-3.11c-.138 0-.184-.062-.184-.172v-1.077c0-.108.046-.171.185-.171h3.788c.091 0 .153-.031.153-.141v.001zm13.148 7.494l-3.222-9.532c-.03-.094-.076-.109-.138-.109h-1.681c-.093 0-.124.03-.154.109l-3.222 9.532c-.047.124.015.203.153.203h2.375c.077 0 .108-.032.139-.11l.416-1.17c.03-.078.061-.109.185-.109h1.85c.124 0 .17.031.2.109l.402 1.17c.03.078.046.11.138.11h2.421c.17 0 .185-.079.139-.203h-.001zm-3.623-3.167c.015.077-.03.14-.138.14h-.895c-.123 0-.169-.062-.154-.141l.277-1.216c.217-.92.324-1.919.324-1.919h.046s.109.999.293 1.919l.247 1.217zm-45.347 3.189v-9.513c0-.125-.093-.157-.154-.157h-2.172c-.092 0-.138.032-.138.157v2.521c0 1.386.077 2.601.077 2.601h-.046s-.124-.343-.34-.748l-2.278-4.39c-.047-.094-.109-.141-.2-.141h-1.957c-.077 0-.139.032-.139.157v9.513c0 .123.062.155.14.155h2.217c.093 0 .154-.031.154-.155v-2.477a37.99 37.99 0 00-.092-2.506h.061s.124.342.324.701l2.295 4.297c.045.077.092.14.169.14h1.925c.092 0 .154-.031.154-.155zm-8.832 0v-9.513c0-.125-.108-.157-.17-.157h-2.264c-.077 0-.138.032-.138.157v9.513c0 .123.062.155.138.155h2.264c.093 0 .17-.031.17-.155zm36.732-2.545v-4.374c0-1.775-1.34-2.927-3.31-2.927h-1.078c-1.972 0-3.343 1.167-3.343 2.927v4.374c0 1.76 1.34 2.928 3.342 2.928h1.077c1.973 0 3.312-1.168 3.312-2.928zm-2.556 0c0 .374-.277.639-.755.639h-1.077c-.54 0-.817-.249-.817-.639v-4.374c0-.327.37-.654.816-.654h1.077c.448 0 .756.28.756.654v4.374zm-15.925 2.498l-3.218-9.513c-.031-.094-.077-.11-.14-.11h-1.677c-.092 0-.123.032-.154.11l-3.218 9.513c-.047.124.015.202.153.202h2.372c.078 0 .108-.031.14-.109l.414-1.168c.031-.077.062-.109.186-.109h1.848c.123 0 .17.032.2.109l.4 1.168c.03.078.047.109.139.109h2.418c.17 0 .184-.078.138-.203v.001zm-3.62-3.161c.017.078-.03.14-.137.14h-.894c-.123 0-.17-.062-.153-.14l.276-1.215c.216-.918.323-1.915.323-1.915h.047s.108.997.292 1.916l.247 1.214zm-18.69 3.208v-1.994c0-.108-.077-.139-.154-.139h-3.787c-.14 0-.186-.062-.186-.172v-1.199c0-.109.046-.171.186-.171h3.11c.077 0 .154-.032.154-.141v-2.008c0-.109-.077-.14-.154-.14h-3.111c-.139 0-.186-.062-.186-.171v-1.075c0-.109.047-.17.186-.17h3.788c.093 0 .154-.032.154-.142v-1.991c0-.125-.092-.157-.154-.157h-6.406c-.077 0-.138.032-.138.157v9.513c0 .123.061.155.138.155h6.406c.093 0 .154-.031.154-.155zm-10.819-6.431c0 .421-.293.623-.77.623H9.915c-.139 0-.185-.062-.185-.171v-1.231c0-.109.046-.17.185-.17h1.68c.507 0 .77.233.77.653v.296zm2.85 6.383l-1.51-3.908c-.046-.139-.062-.249.077-.341.677-.437 1.124-1.183 1.124-2.149v-.141c0-1.915-1.293-3.083-3.31-3.083H7.296c-.077 0-.138.032-.138.157v9.513c0 .123.061.155.138.155h2.278c.077 0 .155-.031.155-.155v-3.504c0-.109.046-.171.184-.171h1.062c.062 0 .109.031.14.109l1.416 3.612c.03.062.078.109.139.109h2.403c.153 0 .184-.094.138-.203h.001zm42.712-28.476c0 1.258-.936 2.093-2.313 2.093h-.752c-1.398 0-2.334-.835-2.334-2.093v-3.129c0-1.258.957-2.093 2.334-2.093h.753c1.377 0 2.312.824 2.312 2.093v.6h-1.785v-.6c0-.267-.215-.468-.527-.468h-.753c-.312 0-.57.234-.57.468v3.13c0 .277.194.456.57.456h.753c.334 0 .527-.19.527-.457v-.6h1.785v.6zm-44.362 1.855v-6.81c0-.09-.044-.112-.108-.112h-1.56a.12.12 0 00-.108.067l-1.238 3.422a6.877 6.877 0 00-.14.446h-.044s-.021-.2-.118-.446l-1.28-3.421a.118.118 0 00-.109-.068H7.256c-.066 0-.097.023-.097.113v6.808c0 .089.031.112.097.112h1.517c.076 0 .108-.022.108-.111v-1.46c0-1.06-.097-2.029-.097-2.029h.033s.097.468.268.97l.571 1.682c.032.09.13.112.194.112h1.044c.065 0 .15-.022.183-.112l.57-1.649c.172-.501.27-1.003.27-1.003h.032s-.076 1.003-.076 2.05v1.439c0 .088.022.11.097.11h1.486c.065 0 .108-.021.108-.11zm17.912-.005v-1.427c0-.077-.054-.1-.108-.1h-2.506c-.097 0-.13-.044-.13-.123v-.857c0-.078.033-.123.13-.123h2.032c.055 0 .109-.022.109-.1v-1.438c0-.078-.054-.1-.109-.1h-2.032c-.097 0-.13-.044-.13-.123v-.769c0-.077.033-.122.13-.122h2.507c.064 0 .106-.022.106-.1v-1.427c0-.089-.064-.111-.106-.111h-4.337c-.054 0-.097.022-.097.111v6.809c0 .088.043.111.097.111h4.336c.065 0 .108-.022.108-.111zm-5.506-1.939c0-1.248-.602-1.795-1.862-2.207-.538-.177-1.194-.334-1.194-.768 0-.358.214-.512.538-.512h.183c.366 0 .635.2.828.578.044.09.14.09.216.034l1.12-.768c.107-.068.064-.18.021-.247a2.497 2.497 0 00-.517-.646c-.42-.379-.99-.59-1.69-.59h-.162c-1.474 0-2.367.824-2.367 2.207 0 1.236.645 1.727 1.797 2.139.721.256 1.26.323 1.26.824 0 .323-.215.512-.55.512h-.333c-.366 0-.636-.2-.829-.579-.043-.088-.14-.088-.215-.032l-1.12.768c-.108.067-.064.168-.021.235.118.212.259.4.43.567.43.436 1.033.68 1.776.68h.334c1.518 0 2.357-.825 2.357-2.195zm11.729.1v-3.13c0-1.271-.937-2.095-2.315-2.095h-.754c-1.377 0-2.336.835-2.336 2.095v3.13c0 1.26.936 2.096 2.337 2.096h.753c1.378 0 2.315-.835 2.315-2.095v-.001zm-1.788 0c0 .267-.194.457-.527.457h-.754c-.377 0-.57-.178-.57-.457v-3.13c0-.235.258-.468.57-.468h.754c.312 0 .527.2.527.468v3.13zm-15.702.004v-4.97c0-.088-.033-.112-.098-.112H18.53c-.053 0-.097.023-.097.113v4.97c0 .278-.161.457-.538.457h-.753c-.399 0-.57-.179-.57-.458v-4.97c0-.088-.055-.112-.098-.112h-1.56c-.065 0-.098.023-.098.113v4.97c0 1.258.926 2.094 2.326 2.094h.753c1.377 0 2.315-.836 2.315-2.095zm25.294 1.841v-6.809c0-.089-.065-.112-.108-.112h-1.518c-.065 0-.097.023-.097.112v1.805c0 .992.054 1.861.054 1.861h-.032s-.086-.244-.237-.535l-1.593-3.142c-.032-.067-.075-.1-.14-.1h-1.367c-.053 0-.098.022-.098.111v6.81c0 .088.045.11.098.11h1.55c.064 0 .108-.022.108-.11V88.31c0-.913-.065-1.794-.065-1.794h.043s.086.245.227.502l1.603 3.076c.032.055.065.1.119.1h1.346c.064 0 .107-.023.107-.112zm39.518 0v-1.426c0-.078-.054-.101-.108-.101h-2.648c-.097 0-.128-.044-.128-.122v-5.16c0-.089-.066-.112-.109-.112h-1.593c-.053 0-.097.023-.097.112v6.81c0 .088.044.11.097.11h4.478c.065 0 .108-.022.108-.11zm-11.887 0v-6.809c0-.089-.065-.112-.108-.112H71.51c-.066 0-.098.023-.098.112v1.805c0 .992.053 1.861.053 1.861h-.031s-.086-.244-.237-.535l-1.594-3.142c-.032-.067-.076-.1-.14-.1h-1.367c-.054 0-.097.022-.097.111v6.81c0 .088.043.11.097.11h1.55c.065 0 .107-.022.107-.11V88.31c0-.913-.064-1.794-.064-1.794h.044s.086.245.225.502l1.605 3.076c.031.055.064.1.118.1h1.345c.065 0 .108-.023.108-.112zm-12.49 0v-6.809c0-.089-.076-.112-.119-.112h-1.583c-.053 0-.097.023-.097.112v6.81c0 .088.044.11.097.11h1.583c.065 0 .119-.022.119-.11zm18.887-.033l-2.25-6.81c-.021-.066-.054-.078-.096-.078H76.01c-.063 0-.085.023-.107.079l-2.25 6.809c-.032.088.011.144.108.144h1.658c.053 0 .076-.022.097-.077l.29-.836c.022-.056.044-.078.13-.078h1.29c.088 0 .12.022.142.078l.28.836c.02.055.032.078.096.078h1.69c.118 0 .129-.056.097-.145zm-2.53-2.262c.011.055-.021.1-.097.1h-.623c-.087 0-.119-.045-.108-.1l.193-.87c.15-.658.226-1.371.226-1.371h.033s.075.713.204 1.371l.172.87zm-10.074.456v-3.131c0-1.27-.936-2.096-2.314-2.096h-.754c-1.377 0-2.336.837-2.336 2.096v3.131c0 1.26.937 2.095 2.336 2.095h.754c1.377 0 2.314-.836 2.314-2.095zm-1.787 0c0 .268-.194.458-.527.458h-.754c-.376 0-.57-.179-.57-.458v-3.131c0-.234.258-.468.57-.468h.754c.313 0 .527.201.527.468v3.131zm-13.02 1.805l-2.251-6.809c-.021-.067-.053-.078-.097-.078h-1.173c-.064 0-.086.022-.107.078l-2.25 6.809c-.032.089.01.145.107.145h1.658c.054 0 .075-.022.097-.078l.29-.835c.022-.057.043-.079.13-.079h1.291c.087 0 .119.022.14.079l.28.835c.022.056.032.079.098.079h1.69c.118 0 .128-.057.096-.146zm-2.53-2.262c.01.055-.022.1-.098.1h-.624c-.086 0-.119-.044-.108-.1l.194-.869c.15-.658.226-1.371.226-1.371h.032s.076.713.205 1.371l.172.869zm-37.026 9.309c0 1.258-.936 2.093-2.313 2.093h-.753c-1.397 0-2.334-.835-2.334-2.093v-3.13c0-1.258.958-2.092 2.334-2.092h.753c1.377 0 2.313.823 2.313 2.092v.6h-1.786v-.6c0-.267-.215-.468-.527-.468h-.753c-.311 0-.57.234-.57.468v3.13c0 .278.194.456.57.456h.753c.333 0 .527-.189.527-.456v-.6h1.786v.6zm18.362-3.486v-1.426c0-.09-.064-.112-.097-.112h-4.703c-.053 0-.108.022-.108.112v1.426c0 .078.054.101.108.101h1.319c.118 0 .14.044.14.122v5.161c0 .088.043.111.096.111h1.582c.053 0 .108-.023.108-.11v-5.162c0-.078.021-.122.129-.122h1.33c.053 0 .097-.023.097-.1h-.001zm-5.988 5.384v-6.81c0-.09-.064-.112-.107-.112h-1.518c-.065 0-.097.022-.097.112v1.805c0 .993.054 1.861.054 1.861h-.032s-.086-.244-.237-.534l-1.593-3.143c-.032-.068-.076-.1-.14-.1h-1.367c-.053 0-.097.021-.097.11v6.811c0 .088.044.111.097.111h1.55c.064 0 .107-.022.107-.11V97.22c0-.913-.064-1.794-.064-1.794h.044s.086.245.225.502l1.604 3.076c.032.055.065.1.119.1h1.345c.065 0 .107-.022.107-.11zm18.908-1.896v-3.133c0-1.271-.936-2.095-2.314-2.095h-.753c-1.377 0-2.336.835-2.336 2.095v3.132c0 1.26.936 2.096 2.336 2.096h.753c1.377 0 2.314-.836 2.314-2.096zm-1.786 0c0 .267-.194.456-.528.456h-.753c-.377 0-.57-.178-.57-.457v-3.132c0-.234.257-.468.57-.468h.753c.313 0 .528.2.528.468v3.132zm-4.432 1.863l-1.055-2.8c-.032-.099-.043-.177.054-.244.474-.311.785-.847.785-1.538v-.1c0-1.371-.904-2.208-2.313-2.208h-3.003c-.054 0-.097.023-.097.113v6.81c0 .088.043.111.097.111h1.592c.054 0 .108-.022.108-.11v-2.51c0-.078.032-.122.13-.122h.742c.044 0 .075.022.097.078l.99 2.587c.021.044.053.077.097.077h1.679c.108 0 .13-.067.097-.144zm-1.99-4.57c0 .3-.205.446-.539.446h-1.174c-.097 0-.129-.044-.129-.124v-.88c0-.078.032-.122.13-.122h1.173c.354 0 .538.167.538.468v.212zm-17.186 4.603v-1.427c0-.078-.053-.1-.108-.1h-2.648c-.097 0-.129-.044-.129-.123v-.858c0-.079.033-.123.13-.123h2.174c.053 0 .107-.022.107-.1v-1.438c0-.078-.053-.1-.107-.1h-2.175c-.097 0-.129-.045-.129-.123v-.768c0-.079.033-.124.13-.124h2.648c.064 0 .107-.022.107-.1v-1.426c0-.09-.065-.112-.108-.112h-4.477c-.054 0-.097.022-.097.112v6.81c0 .088.043.111.097.111h4.477c.065 0 .108-.022.108-.11zm66.568 0v-1.427c0-.078-.054-.1-.108-.1h-2.648c-.097 0-.128-.044-.128-.123v-.858c0-.078.032-.123.129-.123h2.173c.054 0 .108-.022.108-.1v-1.439c0-.076-.053-.1-.108-.1h-2.173c-.097 0-.13-.044-.13-.121v-.77c0-.078.032-.122.13-.122h2.647c.065 0 .108-.023.108-.1v-1.427c0-.09-.065-.112-.108-.112h-4.478c-.052 0-.097.022-.097.112v6.81c0 .088.044.111.097.111h4.478c.065 0 .108-.023.108-.11zm-5.963-5.384v-1.426c0-.09-.065-.112-.097-.112h-4.705c-.053 0-.108.022-.108.112v1.426c0 .078.054.101.108.101h1.32c.117 0 .139.044.139.122v5.161c0 .088.043.111.097.111h1.582c.053 0 .108-.023.108-.11v-5.162c0-.078.02-.122.128-.122h1.33c.053 0 .097-.023.097-.1h.001zm-20.741 5.384v-1.427c0-.078-.053-.1-.108-.1H55.56c-.097 0-.129-.044-.129-.123v-.858c0-.078.032-.123.13-.123h2.174c.053 0 .107-.022.107-.1v-1.439c0-.076-.053-.1-.107-.1H55.56c-.097 0-.129-.044-.129-.121v-.77c0-.078.032-.122.13-.122h2.648c.064 0 .107-.023.107-.1v-1.427c0-.09-.065-.112-.108-.112H53.73c-.054 0-.097.022-.097.112v6.81c0 .088.043.111.097.111h4.477c.065 0 .108-.023.108-.11zm-7.833-1.985c0 .235-.237.458-.539.458h-1.173c-.097 0-.13-.044-.13-.123v-3.511c0-.078.034-.122.13-.122h1.174c.29 0 .538.245.538.468v2.83zm1.776-.088v-2.64c0-1.372-.905-2.208-2.314-2.208h-3.004c-.053 0-.097.022-.097.112v6.81c0 .088.044.111.097.111h3.004c1.41 0 2.313-.836 2.313-2.185l.001.001zm21.37 2.04l-1.056-2.8c-.031-.099-.042-.177.054-.244.474-.311.786-.847.786-1.538v-.1c0-1.37-.904-2.208-2.314-2.208h-3.003c-.054 0-.097.023-.097.113v6.81c0 .088.043.111.097.111h1.593c.053 0 .108-.022.108-.11v-2.51c0-.077.031-.122.129-.122h.742c.044 0 .076.023.097.079l.99 2.585c.022.044.054.078.098.078h1.678c.108 0 .13-.067.097-.144zm-1.992-4.57c0 .3-.204.446-.538.446h-1.174c-.097 0-.128-.044-.128-.124v-.88c0-.078.031-.122.129-.122h1.173c.355 0 .538.167.538.468v.212zm-4.562 4.57l-2.25-6.811c-.021-.067-.053-.078-.097-.078h-1.172c-.065 0-.087.022-.108.078l-2.25 6.81c-.033.089.01.145.106.145h1.658c.054 0 .076-.022.097-.078l.292-.835c.02-.056.042-.079.128-.079h1.291c.087 0 .12.023.14.079l.28.835c.022.056.032.078.098.078h1.69c.118 0 .128-.055.097-.144zm-2.53-2.263c.01.055-.021.1-.097.1h-.624c-.086 0-.118-.045-.107-.1l.193-.87c.15-.658.226-1.371.226-1.371h.033s.075.713.204 1.371l.172.87z"/><path d="M4.344 101.922h83.49V80.346H4.344v21.576zm83.49 2.345H4.345v15.477h83.49v-15.477zM2 122.089h88.178V78H2v44.089z"/></g><defs><clipPath id="clip0"><path fill="#fff" transform="translate(2 78)" d="M0 0h196v44.144H0z"/></clipPath></defs></svg>