<svg width="200" height="200" fill="none" xmlns="http://www.w3.org/2000/svg"><path fill="#fff" d="M0 0h200v200H0z"/><g clip-path="url(#clip0)" fill="#000"><path d="M142.07 113.592v.163h21.393l.131-.097-.033-.033-.098-.033H142.07zm49.864-19.763l.228-.163h-35.156l-.13.098.032.033.098.032h34.928z"/><path d="M197.739 65.196l-40.7 28.47H142.07v35.058l21.393-14.969h34.276V93.666h-5.544l5.544-3.88v-24.59zm-37.374 39.526c-.163.848.033 3.522 1.044 3.718.359.065.652 0 .946-.163l.88-.49.163 3.555h-5.642c.196-1.467.294-2.674.392-3.75l.195-2.87c-1.141-.163-2.38-.587-3.424-1.403-.913-.75-1.435-1.663-1.5-2.772-.131-1.956 2.446-4.402 5.772-4.402h.979c.358.032.717.065 1.108.163-.228.489-.521 1.076-.587 2.087-.358-.098-.652-.163-1.076-.163-2.413 0-3.065 1.63-3.065 2.25 0 1.598 1.565 2.153 2.739 2.25a3.443 3.443 0 002.381-.587c.522-.358.652-.489.913-1.076.62.326 2.022.424 3.033.065-.228 2.022-2.968 3.523-5.251 3.588zM14.98 110.396H5.75v-16.73H2.065v17.611c0 .75.261 1.402.75 1.891.49.457 1.142.685 1.924.685h10.24v-3.457zm21.524 3.49l-7.012-18.752c-.391-1.044-1.207-1.598-2.315-1.598-1.11 0-1.957.587-2.316 1.598l-7.142 18.752H21.6l1.598-4.142h7.794l1.598 4.142h3.914zm-6.718-7.599h-5.381l2.74-7.37 2.64 7.37zm25.666 2.087c0-.75-.13-1.467-.424-2.119a6.77 6.77 0 00-1.207-1.761l-.946-.979.718-.978a10.55 10.55 0 00.815-1.598c.228-.62.326-1.272.326-1.99 0-1.728-.554-3.065-1.663-3.978-1.044-.848-2.413-1.305-4.11-1.305h-6.098c-.782 0-1.435.228-1.891.685-.36.326-.75.913-.75 1.859v15.099c0 .751.293 1.403.782 1.892.49.457 1.142.685 1.924.685h6.197c1.891 0 3.457-.489 4.566-1.468 1.173-1.011 1.76-2.348 1.76-4.044zm-4.305-9.392c0 .359-.066.685-.196 1.011a5.46 5.46 0 01-.49.978l-.75 1.077h-5.87v-5.023h5.12c.588 0 1.338.098 1.697.49.326.39.489.847.489 1.467zm-7.305 11.48v-5.055h5.968l1.108 1.174c.294.293.522.619.685.945.13.294.196.587.196.946 0 .652-.196 1.109-.587 1.435-.424.359-1.109.555-2.022.555h-5.348zm34.014-6.653c0-1.598-.228-3.033-.652-4.305a8.809 8.809 0 00-1.892-3.229 8.15 8.15 0 00-2.967-2.022c-1.142-.456-2.414-.685-3.75-.685-1.37 0-2.642.229-3.784.685a8.4 8.4 0 00-3.033 2.022c-.848.88-1.5 1.99-1.956 3.261-.457 1.24-.653 2.707-.653 4.273 0 1.598.229 3.033.653 4.272.456 1.272 1.076 2.381 1.891 3.228a8.137 8.137 0 002.968 2.022c1.141.457 2.38.685 3.783.685 1.37 0 2.609-.228 3.75-.652 1.174-.457 2.185-1.109 3.033-2.022.848-.88 1.5-1.989 1.924-3.229.49-1.206.685-2.674.685-4.304zm-13.403 5.152a6 6 0 01-1.142-2.119c-.293-.881-.424-1.892-.424-3.033 0-2.251.522-3.98 1.5-5.12.979-1.142 2.316-1.696 4.11-1.696.88 0 1.695.13 2.38.424.685.293 1.272.684 1.761 1.272.49.587.848 1.271 1.11 2.119.293.848.423 1.892.423 3.033 0 2.283-.49 4.012-1.5 5.186-.979 1.108-2.316 1.663-4.077 1.663-.88 0-1.695-.163-2.413-.457a4.756 4.756 0 01-1.728-1.272zm33.166 4.925l-4.207-8.838 1.142-1.435c.391-.554.782-1.174 1.076-1.826a5.42 5.42 0 00.49-2.283c0-1.86-.555-3.327-1.632-4.338-1.043-.978-2.51-1.467-4.304-1.467H84.28c-.816 0-1.435.228-1.924.685-.326.326-.75.88-.75 1.859v17.675h3.652v-7.5h4.794l3.522 7.5h4.044v-.032zm-12.36-10.86v-5.968h4.892c.49 0 .88.065 1.174.196.294.097.49.26.652.423.163.196.294.424.392.718.097.326.13.718.13 1.141 0 .424-.098.783-.26 1.174-.23.457-.49.848-.784 1.272l-.782 1.077h-5.414v-.033zm33.884 10.86l-7.011-18.752c-.359-1.044-1.207-1.598-2.316-1.598-1.141 0-1.956.587-2.315 1.598l-7.142 18.752h3.881l1.598-4.142h7.827l1.598 4.142h3.88zm-6.718-7.599h-5.413l2.739-7.37 2.674 7.37zm13.176 4.109v-16.73h-3.718v17.611c0 .75.261 1.402.75 1.891.489.457 1.141.685 1.957.685h10.24v-3.457h-9.229zm-25.047 21.59l-1.109.261-.815.13-.652.065-.522.033c-.554 0-1.01-.065-1.402-.228a2.463 2.463 0 01-.913-.587 1.87 1.87 0 01-.457-.914 4.37 4.37 0 01-.13-1.141v-7.24h-1.566v7.403c0 .587.098 1.109.229 1.598.163.522.39.946.75 1.305.358.358.782.652 1.304.88a5.838 5.838 0 001.957.326l1.37-.098c.554-.032 1.304-.195 2.25-.424.815-.195 1.207-.717 1.207-1.5v-9.49h-1.533v9.621h.032zm10.86.163l-1.304.261-.816.065c-.684 0-1.141-.163-1.402-.555-.261-.358-.391-.945-.391-1.728v-6.425h3.881v-1.402h-3.881v-2.968l-1.533.326v2.642h-1.826v1.402h1.826v6.555c0 2.414 1.109 3.62 3.294 3.62.489 0 1.304-.097 2.413-.326l-.261-1.467zm23.416-.163v-5.903c0-.685-.098-1.272-.326-1.761-.228-.489-.522-.881-.913-1.174a3.138 3.138 0 00-1.305-.685 6.28 6.28 0 00-1.598-.196s-2.217-.065-4.859.62l.326 1.402s2.446-.685 4.501-.587h.032c.815 0 1.435.196 1.924.555.522.358.75 1.011.75 1.858v1.305h-3.457c-.587 0-1.174.065-1.728.163a4.727 4.727 0 00-1.435.587c-.424.261-.75.62-.978 1.044-.261.424-.359.978-.359 1.63 0 .979.326 1.761.978 2.316.653.554 1.566.848 2.772.848.457 0 .979-.066 1.533-.163l1.631-.359.848-.228.228-.033v.652h1.5v-1.891h-.065zm-1.5-.131l-1.272.294-1.533.293c-.489.065-.88.098-1.207.098-.782 0-1.369-.163-1.793-.456-.424-.294-.62-.751-.62-1.37 0-.718.261-1.239.783-1.533.522-.293 1.239-.489 2.185-.489h3.489v3.163h-.032zm-50.256-12.458l-1.5.326v14.089h1.5v-5.87h2.055l3.946 5.837H90.9l-4.435-6.587 4.468-4.827h-2.022l-3.75 4.077h-2.055v-7.045h-.033zm40.211 14.382l-3.196-5.739 3.131-5.675h-1.892l-2.446 4.827h-.717l-2.446-4.827h-1.891l3.13 5.675-3.196 5.739h1.827l2.576-5.12h.717l2.577 5.12h1.826z"/></g><defs><clipPath id="clip0"><path fill="#fff" transform="translate(2 65)" d="M0 0h196v69.138H0z"/></clipPath></defs></svg>