<svg width="200" height="200" fill="none" xmlns="http://www.w3.org/2000/svg"><path fill="#fff" d="M0 0h200v200H0z"/><path d="M40.91 106.92l-1.11-.37c-.74-.288-.74-.329-.616-1.109.287-2.013 1.355-3.656 2.629-5.176 1.068-1.232 2.177-2.465 3.245-3.697.246-.288.493-.616.698-.945.452-.74.658-1.438.329-2.3-.493-1.397-.452-2.917-.37-4.355 0-.205.041-.451.041-.739-.246.205-.328.41-.41.616-.74 1.767-1.438 3.574-1.52 5.546 0 .082 0 .205-.124.246-.164.041-.205-.082-.205-.205-.041-.247-.123-.493-.205-.822-.288.329-.493.617-.74.863-.082.082-.123.246-.246.123-.329-.205-.575-.452-.699-.862-.082-.33.041-.617.329-.822.329-.247.575-.534.945-.74.657-.328.945-.862 1.068-1.602.246-1.437.41-2.916.986-4.313.862-2.177 2.013-4.19 3.286-6.162a5.803 5.803 0 00.986-3.656c-.041-.533-.246-.698-.78-.533-.124.04-.288.123-.411.164-.699.328-1.397.37-2.054-.082-.575-.37-1.15-.288-1.684.123-.33.287-.658.575-.986.862-1.11.945-2.342 1.192-3.739.576-.739-.329-1.52-.452-2.341-.206-.123.041-.288.082-.41.206-.083.082-.124.287-.288.164-.124-.082-.083-.246-.041-.37.123-.41.37-.74.616-1.027.821-1.027 1.848-1.725 3.245-1.766.78-.041 1.438-.493 1.972-1.068.493-.534.986-1.068 1.725-1.274.657-.164 1.273-.205 1.89.083.986.451 1.93.451 2.875-.041.082-.042.165-.083.288-.124.986-.287 1.273-.123 1.602.904.123.329.246.657.493.945.534.74.534 1.52.287 2.341-.123.411-.493.657-.78.904-.165.123-.329.287-.329.534.041 1.356-.205 2.711.206 4.026 1.068 3.738 3.409 6.244 7.27 7.147.658.165 1.315.082 2.013.124.123 0 .329-.083.37.123.041.205-.164.246-.329.287a5.167 5.167 0 01-.41.124c.123.246.41.328.575.493.164.123.41.205.328.492a.79.79 0 01-.616.452.828.828 0 01-.74-.246c-.82-.78-1.848-1.11-2.916-1.233-1.438-.205-2.629-.903-3.738-1.848a9.216 9.216 0 01-1.807-2.136 3.332 3.332 0 01-.124.452c-.205 3.368.493 6.49 2.3 9.407a27.963 27.963 0 004.889 5.874c.41.37.863.698 1.273 1.109.165.164.288.164.411-.041.37-.534.945-.739 1.52-.945.41-.164.493.041.493.37-.082.739-.493 1.314-.904 1.89-.739.985-1.643 1.807-2.629 2.587-.246.206-.493.329-.862.124-3.04-1.397-5.546-3.492-7.518-6.162-.082-.123-.205-.246-.328-.41-.617.944-1.52 1.478-2.342 2.094-1.109.863-1.89 1.972-2.629 3.163-.164.247-.123.37.165.493.205.082.41.247.616.37.123.082.287.082.287.246 0 .165-.205.206-.328.247-.452.123-.863.287-1.315.411-.082.041-.164 0-.205.082h-2.424zm19.881-5.217c-.41.164-.74.369-1.068.657-.329.288-.37.493.041.739.123.083.247.411.41.165.33-.411.576-.822.781-1.315 0-.082.041-.246-.164-.246zm-17.253 4.765c.41-.123.78-.247 1.191-.37-.903-.616-.986-.616-1.19.37zm33.979 12.34c-.493 0-1.027 0-1.52.041-.37.041-.534-.083-.575-.411-.082-.575-.41-.781-.986-.74-.657.042-1.273 0-1.93-.041-.37-.041-.576.124-.617.452-.082.534-.37.822-.985.699-.247-.042-.493 0-.74 0-.493 0-.575-.083-.37-.534.33-.822.699-1.644 1.027-2.424.534-1.191 1.068-2.342 1.561-3.533.124-.287.288-.411.617-.411 1.52-.082 1.56-.123 2.136 1.233.74 1.684 1.437 3.409 2.218 5.093.041.083.041.206.164.247v.329zm-3.943-2.835c.123 0 .246.041.41.041.247 0 .37-.082.288-.369-.123-.452-.288-.863-.41-1.315-.042-.123-.124-.205-.247-.205s-.206.123-.247.205c-.123.288-.205.534-.328.822-.288.78-.288.78.534.821zm-33.684 7.066c.328-.863.78-1.52 1.478-1.972 1.397-.904 3.45-.74 4.683.369.205.206.164.329 0 .493l-.74.74c-.205.205-.37.123-.575 0-.616-.411-1.273-.452-2.012-.206-1.027.37-1.192 1.808-.904 2.629.329.945 1.273 1.356 2.218 1.027.247-.082.534-.164.699-.328.37-.329.616-.206.862.164.041.082.123.123.165.206.657.78.616.821-.288 1.314-1.315.739-3.45.616-4.6-.37-.822-.698-1.192-1.602-1.192-2.67v-.698c-.329.534-.657.986-1.232 1.191-.288.082-.083.247 0 .329a53.47 53.47 0 001.396 1.807c.082.123.247.206.206.37-.083.164-.247.082-.411.123h-.411c-1.479 0-1.479 0-2.341-1.273-.165-.247-.33-.493-.493-.74-.165-.287-.452-.328-.74-.246-.246.082-.164.329-.164.493 0 .452.04.904.04 1.314 0 .288-.081.452-.41.411a6.188 6.188 0 00-1.232 0c-.37 0-.493-.164-.452-.493.123-1.602-.082-3.245.082-4.847.041-.37 0-.74-.041-1.109 0-.329.082-.534.493-.534 1.15.041 2.26 0 3.41.041 1.396 0 2.218.862 2.505 2.465zm-4.273-.124c.041.863.041.863.904.822.164 0 .328 0 .493-.041.575-.041.78-.247.78-.74 0-.575-.205-.821-.74-.903-.205-.041-.41-.041-.574-.041-.863.082-.863.082-.863.903zm27.194-8.01c-.41.493-.822 1.027-1.232 1.52-.411.534-.534.534-.986 0-.411-.493-.74-1.068-1.274-1.561v3.492c0 .328-.082.452-.452.452-1.437.041-1.437.041-1.437-1.356 0-1.725 0-3.451-.041-5.176 0-.329.123-.493.451-.411.206.041.452.082.617 0 .616-.164 1.027.082 1.355.616l.986 1.356c.206.247.329.247.534 0 .411-.575.863-1.109 1.274-1.684.123-.164.246-.288.493-.247.41.041.862.041 1.273 0 .288 0 .41.083.37.411-.124 1.849.082 3.697-.041 5.546-.082.986 0 .986-.986.945h-.288c-.452.041-.575-.165-.575-.617.041-1.109 0-2.177 0-3.286h-.041zm-19.43.493v2.834c0 .575 0 .617-.575.617h-1.027c-.37.041-.452-.165-.452-.452.041-1.602.041-3.204.082-4.806 0-.411-.04-.863-.04-1.274 0-.287.122-.411.41-.37h.082c.863-.164 1.479.206 1.972.945.616.904 1.314 1.725 2.054 2.711v-1.396c0-.575 0-1.192-.041-1.767 0-.369.123-.534.493-.534.41.041.78 0 1.19.041.288 0 .412.124.37.452-.205 1.808.083 3.615-.04 5.423-.083 1.027-.083 1.027-1.15 1.15-.412.041-.658-.123-.904-.452a84.241 84.241 0 00-2.3-3.04c0-.123-.083-.123-.124-.082zm26.331 8.585v-2.998c0-.37.123-.493.493-.493 1.15.041 2.26 0 3.41.041 1.027.041 1.848.575 2.218 1.561.288.78.205 1.602-.41 2.259-.124.123-.247.288-.412.329-.492.164-.492.411-.164.78.41.493.822 1.027 1.233 1.561.082.123.246.206.164.37-.082.164-.247.082-.411.082-.452 0-.904 0-1.397.041-.246 0-.41-.082-.575-.287l-1.232-1.726c-.206-.287-.452-.328-.74-.246-.287.082-.164.37-.164.534 0 .452 0 .904.041 1.314 0 .247-.082.411-.37.37-.41 0-.78-.041-1.19 0-.412 0-.576-.123-.576-.575.082-.945.082-1.931.082-2.917zm2.917-.246h.493c.575-.041.821-.247.821-.739 0-.534-.246-.863-.821-.904-.206 0-.411-.041-.575 0-.658.041-.945-.123-.74.78.041.124.041.247 0 .329-.082.411.123.575.493.534h.329zm-23.456-8.626c.082-2.383 1.479-3.615 3.78-3.656 2.382-.042 3.614 1.602 3.614 3.614 0 2.547-1.52 3.78-3.533 3.78-2.341.041-3.861-1.315-3.861-3.738zm1.89 0c0 1.15.78 1.971 1.848 1.971.945 0 1.684-.821 1.684-1.971 0-1.11-.698-1.972-1.684-1.972-1.109.041-1.807.78-1.848 1.972zm-17.911-.001c.041-2.382 1.48-3.573 3.739-3.655 2.177-.042 3.656 1.437 3.656 3.614 0 2.506-1.52 3.78-3.574 3.78-2.3.041-3.862-1.315-3.82-3.739zm5.423.042c0-1.151-.658-1.972-1.643-1.972-1.11 0-1.89.739-1.89 1.93 0 1.11.78 1.972 1.849 2.013.985 0 1.684-.821 1.684-1.971zm-18.527.164v-2.958c0-.37.124-.493.493-.493 1.561.082 3.081.082 4.642 0 .329 0 .493.123.452.452 0 .123-.041.247-.041.411-.041.904-.041.904-.945.904-.74 0-1.479 0-2.218-.041-.37 0-.41.205-.41.492 0 .288 0 .534.41.534.822-.041 1.643-.041 2.465-.082.37 0 .575.124.534.493v.082c.04 1.068.04 1.027-.986 1.027-.657 0-1.356.041-2.013 0-.452-.041-.37.329-.37.575-.04.288 0 .452.37.452.945-.041 1.89 0 2.793-.041.411 0 .575.124.575.575-.04 1.315.041 1.11-1.068 1.11-1.396.041-2.752.041-4.108.082-.534 0-.657-.124-.616-.658.082-.985 0-1.971.041-2.916zm29.454 7.517v1.89c.04.821.37 1.314.985 1.397.863.164 1.561-.329 1.561-1.233.042-1.191.083-2.423 0-3.656-.04-.739.042-.78.781-.698.246.041.493 0 .74 0 .37-.041.533.123.533.452 0 1.355.042 2.711-.04 4.066-.124 1.849-1.356 2.876-3.205 2.835-1.273-.041-2.341-.37-2.916-1.602a3.706 3.706 0 01-.37-1.315v-4.066c0-.288.082-.411.41-.411.37 0 .74.041 1.15 0 .33 0 .453.123.453.452-.082.657-.041 1.273-.082 1.889.04 0 .04 0 0 0zm16.02-2.341c.575-.124.986.123 1.274.821.739 1.89 1.602 3.697 2.382 5.546.247.534.165.657-.452.616-.082 0-.164-.041-.246 0-.78.164-1.315 0-1.479-.904-.041-.205-.205-.205-.37-.246-.821 0-1.684 0-2.505-.041-.288 0-.33.205-.411.411-.247.739-.165.821-1.068.739-.206 0-.411 0-.616.041-.535.041-.617-.082-.411-.575.37-.904.78-1.766 1.15-2.67.452-.986.945-1.972 1.314-2.999.206-.534.493-.78 1.027-.698.083-.041.165-.041.411-.041zm-.164 4.149h.452c.205 0 .287-.124.246-.329a17.098 17.098 0 00-.452-1.356c-.04-.123-.082-.205-.246-.205-.123 0-.206.123-.247.205-.123.288-.205.534-.328.822-.247.78-.37.863.575.863z" fill="#000"/><path d="M28.593 115.234c0 1.684 1.396 2.423 2.957 1.561.616-.37.616-.37 1.068.205.699.822.658.863-.287 1.397-1.068.616-3.369.657-4.56-.411-1.15-.986-1.56-2.876-.78-4.56 1.026-2.177 4.107-2.752 5.915-1.068.205.165.164.329 0 .493-.247.247-.493.493-.74.781-.205.205-.328.082-.534-.041-.41-.288-.903-.452-1.396-.37-1.15.164-1.643.821-1.643 2.013zm-1.685 12.652c-2.218.041-3.655-.945-3.943-2.834-.452-2.794 1.438-4.889 4.272-4.56.74.082 1.315.452 1.89.862.246.206.246.37.04.576l-.081.082c-.452.575-.863.945-1.685.41-.616-.41-1.684-.123-2.095.411-.575.699-.616 1.52-.287 2.342.246.698.863 1.068 1.602 1.068.493 0 .986-.206 1.356-.493.328-.247.534-.164.739.123.123.164.246.288.37.452.452.534.452.534-.083.945-.698.493-1.52.616-2.095.616zm28.427-3.903v-2.998c0-.37.123-.493.493-.452.328.041.657.041.986 0 .287 0 .41.123.41.411 0 1.478 0 2.957-.04 4.436 0 .37.082.534.492.493.699-.041 1.397.041 2.054-.082.37-.041.575.041.534.452-.04.246 0 .534 0 .78.041.411-.164.534-.534.493-1.314-.123-2.629 0-3.943 0-.329 0-.493-.082-.493-.452.04-1.068.04-2.095.04-3.081zm-25.058 0v-3.039c0-.329.082-.493.41-.452.411.041.781.041 1.192 0 .37-.041.452.164.452.452 0 1.027.04 2.095 0 3.122-.041 1.027.04 2.012-.041 3.039-.041.329-.123.411-.411.37h-.41c-1.151-.041-1.151-.041-1.192-1.191v-2.301zm36.56-8.749v-3.04c0-.247.04-.37.328-.37.37 0 .74 0 1.15-.041.33-.041.453.082.453.452v3.163c0 .986-.042 2.013 0 2.999 0 .41-.165.575-.534.493-.124 0-.247-.041-.33-.041-.944-.042-.944-.042-.985-.986-.082-.904-.082-1.767-.082-2.629zm2.464-5.751c-.246.493-.575.862-.903 1.273-.082.123-.247.164-.411.123-.288 0-.575-.041-.904-.041-.246 0-.329-.082-.205-.328.205-.37.287-.822.575-1.109.164-.042 1.56 0 1.848.082zm26.025 15.805c-.97 0-1.839-.891-1.839-2.998 0-1.293.412-3.031 1.828-3.031.802 0 1.572.925 1.616.969a.24.24 0 00.178.078c.134 0 .234-.1.234-.234v-1.705a.24.24 0 00-.122-.212c-.691-.435-1.17-.691-2.162-.691-1.148 0-3.31.736-3.31 4.815 0 3.422 1.593 4.793 3.298 4.793.925 0 1.605-.324 2.185-.736a.249.249 0 00.111-.189v-1.639c0-.134-.1-.234-.234-.234-.323 0-.713 1.014-1.783 1.014zm11.09-4.091c-.234 0-.892.067-.892.613 0 .502.535.58.825.647 2.307.557 2.118 2.062 2.118 2.675 0 .624-.446 1.939-2.53 1.939a4.042 4.042 0 01-1.906-.49.236.236 0 01-.123-.201v-1.382c0-.156.201-.357.413-.156 0 0 .423.524 1.46.68.546.078 1.103-.134 1.103-.569 0-.379-.178-.657-.758-.735-.457-.056-2.184-.112-2.184-2.241 0-1.961 1.716-2.262 2.485-2.262.87 0 1.538.334 1.683.412.1.056.156.123.156.223v1.226c0 .223-.223.279-.379.201-.167-.101-.624-.58-1.471-.58zm2.697-.089c0 .134.101.234.234.234h.413v3.634c0 1.905 1.192 2.095 1.805 2.095.379 0 .669-.067 1.048-.145.1-.022.167-.123.167-.223v-1.036a.238.238 0 00-.301-.223c-.111.022-.479.133-.836-.011-.289-.112-.323-.502-.323-.68v-3.422h1.226a.24.24 0 00.234-.223v-1.059a.235.235 0 00-.234-.234h-1.215v-2.151a.235.235 0 00-.234-.234l-1.125.134a.248.248 0 00-.212.223v2.017h-.413c-.133.011-.234.111-.234.234v1.07zm27.385 4.18h-2.485c-.023 0-.223-.011-.234-.223v-7.345c0-.156-.112-.29-.257-.268l-1.159.134c-.145.011-.245.112-.245.245v9.006c0 .134.1.245.234.245h4.157a.258.258 0 00.268-.267v-1.249c0-.189-.067-.278-.279-.278zm15.058-7.535a.217.217 0 00-.223-.223h-1.538a.23.23 0 00-.223.167l-1.282 4.37c-.022.055-.055.1-.122.1s-.101-.045-.123-.1l-1.282-4.37a.237.237 0 00-.223-.167h-1.538a.227.227 0 00-.234.223v9.073c0 .134.112.256.246.256h1.058c.179 0 .279-.1.279-.267v-5.952l1.148 3.879c.033.089.078.133.189.133h.926c.111 0 .189-.033.211-.133l1.148-3.879v5.985c0 .123.09.223.223.223h1.115c.134 0 .234-.1.234-.245l.011-9.073zm-21.154 5.272a.229.229 0 00-.234-.234h-1.929c-.133 0-.234.078-.234.234v1.326c0 .134.078.223.246.223h1.928c.145 0 .234-.089.234-.234-.011 0-.011-1.315-.011-1.315zm-12.707 4.046c.145 0 .235-.1.235-.223v-9.173c0-.134-.101-.256-.235-.234l-1.092.123c-.156.022-.234.111-.234.234v9.028c0 .145.1.245.234.245h1.092zm2.586 0c.145 0 .234-.1.234-.223v-9.173c0-.134-.1-.256-.234-.234l-1.092.123c-.156.022-.234.111-.234.234v9.028c0 .145.1.245.234.245h1.092zm-5.16-8.047c.122 0 .223-.1.234-.223v-1.126c0-.134-.1-.245-.234-.234l-1.093.123c-.133.011-.234.111-.234.234v.981c0 .133.101.245.234.245h1.093zm-1.327 7.802c0 .156.101.245.234.245h1.104c.145 0 .234-.089.234-.234l-.011-6.777c0-.133-.089-.234-.223-.234h-1.104c-.156 0-.234.101-.234.234v6.766zm-12.505-4.447c.189-.023.212-.19.212-.257 0-.657-.68-.802-1.282-.802-.658 0-1.16.412-1.349.412a.235.235 0 01-.234-.234v-1.126c0-.2.078-.256.19-.289.145-.045.891-.279 1.716-.279 2.486 0 2.486 1.572 2.486 2.396v4.481a.241.241 0 01-.223.223l-.937.056c-.044 0-.379.033-.423-.391 0-.055-.279.513-1.583.513-.557 0-1.65-.501-1.65-2.162.012-2.341 1.862-2.419 3.077-2.541zm.212 1.527c0-.134-.123-.246-.257-.223-.011 0-.512.055-.969.211a.687.687 0 00-.357.301c-.156.268-.145.669-.1.87.044.2.256.546.791.501.156-.011.892-.211.892-.579v-1.081zm22.949-1.527c.178-.023.212-.19.212-.257 0-.657-.68-.802-1.282-.802-.658 0-1.171.412-1.349.412a.235.235 0 01-.234-.234v-1.126c0-.2.078-.256.19-.289.144-.045.891-.279 1.716-.279 2.485 0 2.485 1.572 2.485 2.396v4.481a.24.24 0 01-.222.223l-.937.056c-.044 0-.379.033-.423-.391 0-.055-.279.513-1.583.513-.557 0-1.649-.501-1.649-2.162.011-2.341 1.861-2.419 3.076-2.541zm.212 1.527c0-.134-.123-.246-.257-.223-.011 0-.513.055-.97.211a.684.684 0 00-.356.301c-.156.268-.145.669-.1.87.044.2.256.546.791.501.156-.011.892-.211.892-.579v-1.081zm15.871-1.527c.178-.023.212-.19.212-.257 0-.657-.68-.802-1.271-.802-.657 0-1.17.412-1.348.412a.235.235 0 01-.234-.234v-1.126c0-.2.078-.256.189-.289.145-.045.892-.279 1.716-.279 2.486 0 2.486 1.572 2.486 2.396v4.481a.24.24 0 01-.223.223l-.936.056c-.045 0-.379.033-.424-.391 0-.055-.278.513-1.582.513-.558 0-1.65-.501-1.65-2.162 0-2.341 1.85-2.419 3.065-2.541zm.212 1.527c0-.134-.123-.246-.256-.223-.012 0-.513.055-.981.211a.686.686 0 00-.357.301c-.156.268-.145.669-.1.87.044.2.256.546.791.501.156-.011.881-.211.881-.579l.022-1.081zm14.757-1.527c.189-.023.211-.19.211-.257 0-.657-.679-.802-1.27-.802-.658 0-1.159.412-1.349.412a.235.235 0 01-.234-.234v-1.126c0-.2.078-.256.19-.289.145-.045.891-.279 1.716-.279 2.486 0 2.486 1.572 2.486 2.396v4.481a.241.241 0 01-.223.223l-.937.056c-.044 0-.39.033-.423-.391 0-.055-.279.513-1.583.513-.557 0-1.649-.501-1.649-2.162 0-2.341 1.85-2.419 3.065-2.541zm.211 1.527c0-.134-.122-.246-.256-.223-.011 0-.513.055-.981.211a.684.684 0 00-.356.301c-.156.268-.145.669-.101.87.045.2.257.546.792.501.156-.011.891-.211.891-.579v-1.081h.011zm22.537-1.527c.178-.023.212-.19.212-.257 0-.657-.68-.802-1.271-.802-.657 0-1.159.412-1.348.412a.235.235 0 01-.234-.234v-1.126c0-.2.078-.256.189-.289.145-.045.892-.279 1.717-.279 2.496 0 2.485 1.572 2.485 2.396v4.481a.24.24 0 01-.223.223l-.936.056c-.045 0-.379.033-.424-.391 0-.055-.278.513-1.582.513-.558 0-1.65-.501-1.65-2.162 0-2.341 1.861-2.419 3.065-2.541zm.223 1.527c0-.134-.123-.246-.256-.223-.011 0-.513.055-.981.211a.686.686 0 00-.357.301c-.156.268-.145.669-.1.87.044.2.256.546.791.501.156-.011.881-.211.881-.579l.022-1.081zm-8.995 3.098c-.066-.067-.066-.123-.066-.156v-8.995s-.012-.078.055-.144c.078-.078.201-.078.201-.078s.992-.112 1.081-.112c0 0 .078-.011.156.056a.189.189 0 01.067.134v2.975c.357-.624.858-.947 1.583-.947 1.181 0 1.75.647 1.75 2.095v5.016c0 .089 0 .134-.067.19-.089.066-.179.066-.179.066h-1.114s-.101 0-.167-.066c-.056-.067-.056-.112-.056-.157v-4.146c0-.735-.234-1.025-.803-1.025-.646 0-.947.401-.947 1.215v3.99c0 .033 0 .078-.067.134-.056.055-.145.055-.145.055h-1.103c-.023-.033-.112-.033-.179-.1zm-11.168 0c-.066-.067-.066-.145-.066-.145v-6.799s-.012-.078.055-.145c.078-.078.201-.078.201-.078s.992-.111 1.081-.111c0 0 .078-.011.156.056.067.055.067.133.067.133v.758c.357-.624.858-.947 1.583-.947 1.181 0 1.75.646 1.75 2.095v5.049c0 .023 0 .101-.067.145-.089.067-.179.067-.179.067h-1.114s-.101 0-.167-.067c-.056-.067-.056-.122-.056-.156v-4.146c0-.736-.234-1.025-.803-1.025-.646 0-.947.401-.947 1.215v3.934c0 .078 0 .123-.067.178-.056.056-.145.056-.145.056h-1.125s-.09 0-.157-.067zm8.538-7.233c-.88 0-2.831.512-2.831 3.678 0 3.276 2.14 3.622 2.876 3.622.914 0 1.516-.457 1.527-.457.1-.067.122-.145.122-.357v-1.181c0-.312-.256-.312-.434-.1-.156.178-.379.523-1.171.523-.423 0-1.315-.2-1.315-2.028 0-1.861.869-2.095 1.293-2.095.736 0 1.115.479 1.226.646.111.167.401.056.401-.123v-1.359c.011-.424-.724-.769-1.694-.769zm-21.924-33.482h-18.1c-1.048 0-1.895.836-1.895 1.839v17.8c0 2.284 1.237 4.112 3.556 5.283 1.861.925 4.413 1.415 7.389 1.415s5.528-.49 7.39-1.415c2.329-1.159 3.555-2.987 3.555-5.283V88.139c0-1.014-.847-1.85-1.895-1.85zm-11.011 15.504a.5.5 0 01-.469.501h-2.017v-1.817a.947.947 0 10-1.895 0v1.806h-2.017a.507.507 0 01-.457-.502v-.089l.457-5.004v-1.46h1.438v1.426h.813v-2.853h1.438v2.853h.803v-1.426h1.437v1.438l.469 5.026v.101zm11.535 3.51c0 5.774-8.448 5.908-8.459 5.897-.925.033-.87-1.015-.87-1.015V88.719c0-.58.402-1.048.914-1.048h7.49c.468 0 .87.401.925.914v16.718zm-2.764-28.811c-.769 0-1.46.29-1.995.746a3.169 3.169 0 00-2.318-.98c-.992 0-1.906.457-2.486 1.159a3.247 3.247 0 00-2.496-1.16c-.914 0-1.739.368-2.33.981a2.974 2.974 0 00-1.984-.746 2.992 2.992 0 00-2.998 2.998c0 .68.245 1.304.624 1.817.19.256.435.445.758.457.446.01.981-.457.713-1.037-.089-.178-.501-.613-.479-1.226.022-.78.602-1.415 1.382-1.415.491 0 .959.267 1.215.646-.056.245-.1.502-.1.77 0 .69.223 1.214.223 1.214.156.401.434.691.88.68.513 0 .914-.39.914-.914 0-.145-.089-.401-.122-.49a1.312 1.312 0 01-.101-.513c0-.78.636-1.405 1.405-1.405s1.415.636 1.415 1.405v1.103a1.1 1.1 0 001.081 1.093c.602 0 1.081-.49 1.081-1.082l.012-1.103c0-.78.624-1.404 1.404-1.404.78 0 1.415.624 1.415 1.404 0 .178-.033.346-.1.513a2.713 2.713 0 00-.123.49c-.011.513.391.903.914.914.435 0 .725-.29.881-.68 0 0 .223-.524.223-1.215 0-.267-.034-.524-.1-.769a1.502 1.502 0 011.214-.646c.781 0 1.382.646 1.394 1.415 0 .613-.402 1.048-.48 1.226-.278.58.257 1.037.703 1.037.334-.011.579-.19.757-.457a2.965 2.965 0 00.636-1.817c-.023-1.66-1.371-3.01-3.032-3.01zm-3.812 7.423c0 .546.435.992.992.992a.994.994 0 00.992-.992.994.994 0 00-.992-.992.994.994 0 00-.992.992zm-7.958 0c0 .546.446.992.992.992a.994.994 0 00.992-.992.994.994 0 00-.992-.992.994.994 0 00-.992.992zm11.926 0c0 .546.446.992.992.992a.994.994 0 00.992-.992.994.994 0 00-.992-.992.994.994 0 00-.992.992zm-7.958 0c0 .546.446.992.992.992a.994.994 0 00.992-.992.994.994 0 00-.992-.992.994.994 0 00-.992.992zm-7.958 0c0 .546.446.992.992.992a.994.994 0 00.992-.992.994.994 0 00-.992-.992.987.987 0 00-.992.992zm10.299-10.566h-.903v-.903a.447.447 0 00-.446-.446c-.245 0-.446.2-.446.446v.903h-.891c-.246 0-.457.2-.457.445 0 .246.211.446.457.446h.891v.892c0 .245.201.457.446.457a.457.457 0 00.446-.457v-.892h.903c.245 0 .446-.2.446-.445a.447.447 0 00-.446-.446z" fill="#000"/></svg>