<svg width="200" height="200" fill="none" xmlns="http://www.w3.org/2000/svg"><path fill="#fff" d="M0 0h200v200H0z"/><g clip-path="url(#clip0_604_71)" fill="#000"><path d="M98.527 125.687c.453 1.721 2.11 2.637 4.137 2.637 2.788 0 4.031-1.613 4.031-3.183 0-1.764-1.219-2.699-3.334-3.508-1.462-.546-2.397-1.004-2.397-1.984s.74-1.413 1.725-1.413a1.91 1.91 0 011.852 1.087l1.306-.673a3.326 3.326 0 00-3.183-1.896c-1.949 0-3.314 1.199-3.314 2.895s1.243 2.51 2.988 3.207c1.745.697 2.744 1.087 2.744 2.285 0 .634-.39 1.677-2.437 1.677-1.633 0-2.505-.824-2.768-1.657l-1.35.526zm8.889-2.987c0 3.411 2.266 5.643 5.536 5.643a5.541 5.541 0 004.445-1.949l-1.067-1.043a4.172 4.172 0 01-3.378 1.525c-2.315 0-3.835-1.549-3.923-3.967h8.909v-.697c0-3.031-2.008-5.468-5.059-5.468-3.133 0-5.487 2.31-5.487 5.849l.024.107zm1.72-1.199c.108-1.784 1.765-3.246 3.768-3.246a3.306 3.306 0 013.338 3.246h-7.106zm11.029 8.392l-.828 1.287a8.705 8.705 0 005.204 1.696 6.009 6.009 0 003.704-1.155c1.638-1.287 1.745-3.095 1.745-5.468v-9.172h-1.613v1.632c-.546-.935-1.74-1.949-3.899-1.949a5.718 5.718 0 00-5.554 5.719 5.722 5.722 0 005.554 5.719c2.159 0 3.353-1.023 3.899-1.949v.911c0 1.199-.132 2.573-1.131 3.411a4.3 4.3 0 01-2.724.804 6.975 6.975 0 01-4.357-1.486zm.37-7.408c0-2.436 1.677-4.23 3.943-4.23a4.218 4.218 0 014.077 4.218 4.218 4.218 0 01-4.077 4.218c-2.266 0-3.943-1.788-3.943-4.206zm11.307 1.609c0 2.466 1.501 4.142 3.943 4.142 1.92 0 3.006-.828 3.508-1.589.055.402.225.779.488 1.087a1.705 1.705 0 001.35.487c.35.029.702-.032 1.023-.175v-1.218a5.61 5.61 0 01-.565.044c-.609 0-.829-.415-.829-1.375v-8.431h-1.613v6.56c0 1.852-1.243 3.09-2.982 3.09-1.74 0-2.725-1.151-2.725-2.983v-6.652h-1.613l.015 7.013zm11.55 3.967h1.613v-6.394a2.93 2.93 0 011.791-2.869c.371-.155.77-.232 1.172-.226.366-.008.731.03 1.087.112v-1.745a5.048 5.048 0 00-.673-.043 3.548 3.548 0 00-3.377 2.027v-1.852h-1.613v10.99zm5.902-5.493a5.846 5.846 0 009.971 4.182 5.85 5.85 0 00-.871-9.008 5.846 5.846 0 00-3.252-.988 5.743 5.743 0 00-5.848 5.814zm1.613 0a4.232 4.232 0 015.108-4.05 4.234 4.234 0 013.276 3.344 4.227 4.227 0 01-1.813 4.317 4.23 4.23 0 01-2.341.707 4.156 4.156 0 01-4.23-4.318zm10.721 3.119c.459 1.721 2.116 2.637 4.143 2.637 2.788 0 4.03-1.613 4.03-3.183 0-1.764-1.223-2.699-3.333-3.508-1.438-.546-2.398-1.004-2.398-1.984s.731-1.394 1.706-1.394a1.906 1.906 0 011.852 1.087l1.306-.673a3.314 3.314 0 00-3.158-1.915c-1.95 0-3.314 1.199-3.314 2.895s1.243 2.51 2.987 3.207c1.745.697 2.744 1.087 2.744 2.285 0 .634-.395 1.677-2.437 1.677-1.637 0-2.51-.824-2.768-1.657l-1.36.526zM67.24 76.041a3.991 3.991 0 110-7.983 3.991 3.991 0 010 7.983zm36.302 0a3.967 3.967 0 003.692-2.46c.2-.486.302-1.006.299-1.531a4.023 4.023 0 00-4.798-3.974 4.021 4.021 0 00.807 7.965zM50.996 99.677a8.256 8.256 0 002.524-6.184 8.25 8.25 0 00-2.524-6.18 8.397 8.397 0 00-6.126-2.47 8.138 8.138 0 00-6.014 2.47 8.563 8.563 0 00-2.364 6.18 8.568 8.568 0 002.364 6.184 8.135 8.135 0 006.014 2.496 8.407 8.407 0 006.126-2.476v-.02zm8.772 8.729a7.278 7.278 0 01-3.767-.887 5.57 5.57 0 01-2.315-3.626c-1.95 2.978-5.224 4.435-9.722 4.435a13.44 13.44 0 01-10.108-4.269c-2.7-2.861-4.05-6.35-4.05-10.566 0-4.216 1.35-7.695 4.05-10.507a13.447 13.447 0 0110.112-4.27c4.552 0 7.983 2.023 9.05 4.718V68.487h6.74l.01 39.919zm10.975-28.627h-6.745v21.443c0 4.776 2.437 7.194 6.745 7.194.064 0 0-28.647 0-28.647v.01zm36.171-.01h-6.75v21.444c0 4.776 2.198 7.193 6.526 7.193h.224V79.769zm19.221-.974a8.922 8.922 0 00-8.168 5.053V79.78h-6.686v28.602h6.686v-16.57c0-3.898 2.642-6.569 6.409-6.569s5.955 2.437 5.955 6.292v9.454c0 4.947 2.193 7.418 6.633 7.418V89.658c0-6.477-4.464-10.868-10.848-10.868l.019.005zm34.879 20.95a8.276 8.276 0 002.53-6.184 8.265 8.265 0 00-2.53-6.18 8.389 8.389 0 00-6.126-2.475 8.115 8.115 0 00-6.009 2.476 8.546 8.546 0 00-2.363 6.18 8.572 8.572 0 002.383 6.174 8.126 8.126 0 006.009 2.471 8.422 8.422 0 006.126-2.471l-.02.01zm8.792 8.524a7.301 7.301 0 01-3.767-.892 5.216 5.216 0 01-2.305-3.411c-1.95 2.978-5.225 4.44-9.747 4.44a13.466 13.466 0 01-10.093-4.284c-2.7-2.866-4.045-6.335-4.045-10.566 0-4.23 1.345-7.7 4.045-10.507a13.461 13.461 0 0110.112-4.269c4.552 0 7.978 2.022 9.05 4.718v-4.109h6.745l.005 28.88zM98.415 75.978s-2.471-.03-3.295 0c-2.246.078-3.81 1.95-4.566 3.655-.755 1.706-6.058 19.06-6.058 19.06l-.107.175s-2.437-5.468-3.168-7.12c-.73-1.652-2.666-2.534-4.917-2.612-.824-.03-3.295 0-3.295 0l8.943 19.25h5.727l10.736-32.408z"/><path d="M169.804 97.09l-.003-17.7h-6.745v4.108c-1.072-2.696-4.498-4.718-9.05-4.718a13.46 13.46 0 00-10.112 4.27c-2.7 2.806-4.045 6.276-4.045 10.506 0 1.243.116 2.42.348 3.535h6.971a8.572 8.572 0 01-.652-3.53 8.535 8.535 0 012.363-6.18 8.118 8.118 0 016.009-2.475 8.396 8.396 0 016.126 2.476 8.26 8.26 0 012.53 6.18 8.274 8.274 0 01-.686 3.529h6.946zm-32.84 0v-7.432c0-6.477-4.464-10.868-10.848-10.868l.019.005a8.922 8.922 0 00-8.168 5.053V79.78h-6.686v17.312h6.686v-5.28c0-3.898 2.642-6.569 6.409-6.569s5.955 2.437 5.955 6.292v5.556h6.633zm-30.05 0V79.77h-6.75v17.32h6.75zm-15.494 0l6.995-21.112s-2.471-.03-3.295 0c-2.246.078-3.81 1.95-4.566 3.655-.614 1.387-4.235 13.12-5.567 17.458h6.434zm-7.823 0c-.779-1.748-1.915-4.301-2.376-5.342-.73-1.652-2.666-2.534-4.917-2.612-.824-.03-3.295 0-3.295 0l3.696 7.955h6.892zm-12.827 0c-.006-8.006-.027-17.32-.027-17.32v.01h-6.745v17.31h6.772zm-11.005 0l-.007-28.603h-6.74v14.947c-1.067-2.695-4.498-4.717-9.05-4.717a13.447 13.447 0 00-10.112 4.269c-2.7 2.812-4.05 6.291-4.05 10.507 0 1.264.121 2.462.364 3.598h6.99a8.568 8.568 0 01-.668-3.598 8.564 8.564 0 012.364-6.18 8.138 8.138 0 016.014-2.47 8.399 8.399 0 016.126 2.47 8.252 8.252 0 012.524 6.18 8.254 8.254 0 01-.71 3.598h6.955zm5.257-21.722a3.991 3.991 0 104.435-6.637 3.991 3.991 0 00-4.435 6.637zm40.05.375c-.485.2-1.005.3-1.53.298a4.021 4.021 0 113.991-3.991 3.958 3.958 0 01-.299 1.53 3.961 3.961 0 01-2.162 2.163z"/></g><defs><clipPath id="clip0_604_71"><path fill="#fff" transform="translate(29.806 68)" d="M0 0h140v64.878H0z"/></clipPath></defs></svg>