<svg width="200" height="200" fill="none" xmlns="http://www.w3.org/2000/svg"><path fill="#fff" d="M0 0h200v200H0z"/><g clip-path="url(#clip0)" fill="#000"><path d="M33.185 129.833c-.302-.067-.637-.134-.939-.235-1.24-.435-2.112-1.575-2.179-2.882V89.173c0-2.279.805-4.223 2.414-5.865 3.586-3.587 7.173-7.207 10.793-10.76 1.575-1.575 3.486-2.346 5.732-2.346h37.341c1.944 0 3.352 1.407 3.352 3.352v37.34c0 2.179-.805 4.09-2.347 5.665a3156.314 3156.314 0 00-10.659 10.693c-1.542 1.542-3.419 2.413-5.598 2.48-.067 0-.134.034-.2.067-12.604.034-25.14.034-37.71.034zm19.541-11.967c.168-.134.235-.234.302-.301l11.497-11.497 5.833-5.833c.2-.201.234-.302 0-.503a4252.404 4252.404 0 00-17.43-17.363l-.235-.234c.034 11.933.034 23.798.034 35.731zm117.956-2.447h-7.442V99.665c0-.838-.1-1.643-.502-2.38-.704-1.307-1.844-1.91-3.285-1.978-1.844-.067-3.319.704-4.66 1.877-.469.403-.636.805-.636 1.408.033 5.464 0 10.928 0 16.391v.402h-7.14c-.268 0-.369-.067-.369-.368v-15.62c0-.939-.201-1.81-.737-2.548-.738-1.039-1.777-1.508-3.051-1.575-1.676-.067-3.117.603-4.357 1.642-.436.369-.838.805-1.207 1.207-.1.134-.201.335-.201.503v16.692h-7.508v-25.81h6.637v2.917c.402-.37.77-.738 1.139-1.073 2.849-2.313 6.067-3.084 9.654-2.346 2.179.469 3.922 1.575 5.229 3.385.033.034.033.067.067.1l.033.034c.369-.302.738-.637 1.107-.972 1.609-1.307 3.419-2.246 5.463-2.614 2.615-.47 5.129-.202 7.408 1.206 1.877 1.173 3.05 2.883 3.654 4.961.268.838.368 1.71.536 2.581 0 .067.034.134.067.235.101 5.899.101 11.698.101 17.497zm-45.553-18.302c-.905-.436-1.743-.905-2.615-1.24-2.279-.905-4.626-1.408-7.073-1.274-.703.034-1.374.168-1.977.503-1.106.637-1.274 1.844-.369 2.749.603.603 1.408.938 2.212 1.206 1.408.47 2.816.872 4.224 1.308 1.642.502 3.251 1.106 4.659 2.145 1.911 1.374 2.883 3.251 2.916 5.598 0 1.475-.268 2.849-1.072 4.123-.872 1.34-2.079 2.178-3.52 2.782-1.475.637-3.05.972-4.659 1.072-1.374.067-2.749.134-4.09.067-2.916-.134-5.731-.771-8.346-2.145-.268-.134-.369-.302-.369-.603v-5.799a.553.553 0 01.202.1c1.877 1.174 3.955 1.844 6.1 2.28 1.609.301 3.218.436 4.86.301.704-.067 1.442-.134 2.112-.435 1.24-.537 1.475-1.777.469-2.682-.536-.503-1.173-.804-1.877-1.039-1.575-.536-3.184-1.006-4.759-1.542-1.576-.536-3.151-1.14-4.492-2.145-2.112-1.542-2.983-3.62-2.816-6.168.101-1.71.637-3.218 1.844-4.458.972-1.039 2.179-1.71 3.519-2.145 1.844-.637 3.755-.838 5.699-.805 3.117.034 6.1.738 8.949 2.045.269.134.369.268.369.57-.033 1.81 0 3.62 0 5.43-.1 0-.1.1-.1.201z"/></g><defs><clipPath id="clip0"><path fill="#fff" transform="translate(30 70)" d="M0 0h140.782v60H0z"/></clipPath></defs></svg>