<svg width="200" height="200" fill="none" xmlns="http://www.w3.org/2000/svg"><path fill="#fff" d="M0 0h200v200H0z"/><g clip-path="url(#clip0)"><path fill-rule="evenodd" clip-rule="evenodd" d="M169.782 126.832h9.969v-9.969h-9.969v9.969zm7.309-6.551c.201-.099.4-.198.698-.374.229.346.288 1.143.296 1.778.205-.404.448-1.913.342-2.188.316-.205.365-.304.428-.43a.872.872 0 01.038-.074l-.23.018c-.236.018-.397.03-.553.08-.512-.315-1.576-.638-2.442-.705.267.111 1.364.706 1.503.896-.587.081-1.692.414-2.251.71.642-.144 1.542-.216 2.157-.246a7.194 7.194 0 01-.764.955c.344-.207.562-.314.778-.42zm-4.708 4.496c.28.264.533.417.892.549a3.593 3.593 0 01-.984-.156c-.024.232-.01.411.054.633a2.654 2.654 0 01-.585-.836 5.854 5.854 0 01-.766-.418c.185-.084.348-.144.572-.204-.071-.401-.049-.762.005-1.265.104.477.195.814.399 1.174.25-.048.46-.082.75-.123-.158.23-.254.414-.337.646zm1.812-4.474a2.063 2.063 0 00-.277.532c.917.127 1.653.6 1.653.6-.802-.145-1.226-.127-1.52-.101-.301.028-.357.069-.357.069-.213.469-.345 1.28-.345 1.28-.146-.345-.356-1.052-.356-1.052-.404.216-1.329 1.09-1.329 1.09.51-1.025 1.025-1.492 1.025-1.492-.174-.179-.642-.267-.983-.286.176-.074.634-.157.981-.169.347-.016.561.007.561.007.31-.245.783-.455.947-.478zm.49 4.983c.178-.2.316-.375.476-.597l.004.06c.008.126.014.228.028.344.294-.138.512-.268.767-.448a7.398 7.398 0 01-.737.67c.026.122.044.189.071.283a1.965 1.965 0 01-.42.026c-.3.179-.715.312-1.029.39.186-.117.35-.243.539-.422a2.2 2.2 0 01-.55-.189c.295-.001.541-.033.851-.117zm-56.865-3.89c0 .241-.018.483-.018.722a6 6 0 00.018.443c.037.005.228.005.351.005.386 0 .92-.106.92-.604 0-.485-.548-.572-.962-.572-.053 0-.256 0-.309.006zm.655-.509c.792 0 1.751.221 1.751 1.075 0 .748-.68 1.12-2.055 1.12-.083 0-.306 0-.369-.006.027.511.022 1.129.055 1.477h-1.2c.048-.503.061-1.332.061-1.924 0-.527-.013-1.395-.061-1.742h1.818zm-4.854 0c-.02.247-.029.498-.029.756v1.747c0 .475.152.754.622.754.405 0 .804-.162.804-.909v-1.779c0-.372-.008-.413-.031-.569h1.009c-.039.32-.039.918-.039 1.512v1.041c0 .842-.59 1.208-1.759 1.208-1.059 0-1.708-.225-1.708-1.265v-1.338c0-.345-.015-.898-.054-1.158h1.185zm8.91.374c-.527 0-.858.518-.858 1.465 0 .944.331 1.451.858 1.451.525 0 .848-.507.848-1.451 0-.947-.323-1.465-.848-1.465zm0 3.397c-1.139 0-1.992-.786-1.992-1.932 0-1.158.853-1.935 1.992-1.935 1.134 0 1.987.777 1.987 1.935 0 1.146-.853 1.932-1.987 1.932zm-12.575-3.771c.803 0 1.758.285 1.758 1.137 0 .454-.337.781-.869.991.11.192.998 1.346 1.174 1.538h-1.307a22.45 22.45 0 00-1.111-1.851c.527.07.979-.18.979-.686 0-.486-.556-.626-.825-.626-.127 0-.352 0-.438.006a36.4 36.4 0 00-.026 1.233c0 .316 0 1.37.063 1.924h-1.22c.06-.542.074-1.191.074-1.924 0-.618-.01-1.368-.063-1.742h1.811zm-2.548 1.885c-.02.359-.042 1.121-.053 1.559-.394.2-1.013.317-1.608.317-1.358 0-2.228-.855-2.228-1.91 0-1.109.911-1.947 2.397-1.947.339 0 .848.054 1.206.141l-.262.725a2.075 2.075 0 00-.958-.285c-.855 0-1.161.76-1.161 1.374 0 1.025.55 1.361 1.168 1.361.071 0 .308-.008.386-.029 0-.443-.007-1.006-.04-1.306h1.153zm57.497-1.98c.469 0 .923.067 1.209.156v.933c-.401-.231-.794-.431-1.315-.431-.412 0-.442.167-.442.29 0 .618 2.083.626 2.083 1.736 0 .719-.673 1.173-1.791 1.173-.503 0-.978-.101-1.302-.22v-.89c.766.362 1.173.479 1.527.479.284 0 .495-.13.495-.377 0-.701-2.075-.633-2.075-1.822 0-.651.651-1.027 1.611-1.027zm-3.605 2.403c-.143-.355-.34-.795-.435-1.103-.1.314-.32.794-.427 1.103.135.006.317.013.441.013.171 0 .256-.007.421-.013zm.1-2.308c.135.433 1.344 3.075 1.622 3.667h-1.201c-.047-.144-.144-.341-.319-.804-.183-.007-.372-.007-.623-.007-.245 0-.423.007-.618.014-.109.302-.204.541-.292.797h-1.042c.2-.455 1.405-3.081 1.618-3.667h.855zm-4.766.464a3.13 3.13 0 00-.441.026c-.021.476-.028.708-.028 1.253 0 .66 0 .903.028 1.429h.529c.623 0 .921-.186.921-.565 0-.422-.385-.621-.896-.621h-.304l.209-.553h.224c.259 0 .603-.136.603-.467 0-.355-.318-.502-.845-.502zm.555-.464c.676 0 1.417.247 1.417.871 0 .338-.293.648-.726.797.579.211.909.545.909.978 0 .765-.924 1.021-1.791 1.021h-1.986c.047-.476.061-1.163.061-1.924 0-.502-.008-1.268-.056-1.743h2.172zm-2.964 0a38.778 38.778 0 00-.047 1.749c0 .325 0 1.414.047 1.918h-1.206c.061-.555.066-1.608.066-1.918 0-.347-.019-1.333-.044-1.749h1.184zm-3.742 0c.799 0 1.756.287 1.756 1.138 0 .454-.339.78-.868.991.108.192.995 1.346 1.172 1.538h-1.307a23.32 23.32 0 00-1.106-1.851c.522.07.978-.18.978-.685 0-.486-.557-.626-.829-.626-.122 0-.354 0-.436.005-.018.449-.025.987-.025 1.233 0 .316 0 1.369.058 1.924h-1.217c.06-.541.073-1.191.073-1.924 0-.618-.007-1.367-.059-1.743h1.81zm-3.967 2.308c-.144-.355-.342-.795-.435-1.103-.102.314-.317.794-.428 1.103.137.006.319.013.442.013.168 0 .259-.007.421-.013zm.1-2.308c.137.433 1.343 3.075 1.621 3.667h-1.198c-.048-.144-.143-.341-.32-.804-.183-.007-.373-.007-.624-.007-.244 0-.421.007-.619.014-.107.302-.201.541-.29.797h-1.043c.203-.455 1.403-3.081 1.621-3.667h.852zm-4.541.51c0 .242-.012.484-.012.723 0 .174.005.31.012.442.041.005.231.005.354.005.386 0 .923-.106.923-.604 0-.485-.55-.571-.965-.571-.053 0-.255 0-.312.005zm.658-.51c.795 0 1.751.222 1.751 1.076 0 .748-.679 1.12-2.055 1.12-.081 0-.305 0-.366-.005.026.51.02 1.127.053 1.476h-1.199c.047-.504.06-1.332.06-1.924 0-.527-.013-1.395-.06-1.743h1.816zm-6.191.51c0 .242-.013.484-.013.723 0 .174.007.31.013.442.041.005.231.005.353.005.387 0 .921-.106.921-.604 0-.485-.55-.571-.963-.571-.053 0-.257 0-.311.005zm.657-.51c.794 0 1.752.222 1.752 1.076 0 .748-.679 1.12-2.056 1.12-.083 0-.304 0-.366-.005.026.51.021 1.127.054 1.476h-1.201c.049-.504.061-1.332.061-1.924 0-.527-.012-1.395-.061-1.743h1.817zm-2.664 0a32.394 32.394 0 00-.055 1.743c0 .331.007 1.42.055 1.924h-.861l-1.383-2.046a1.22 1.22 0 01-.229-.503v1.162c0 .443.012 1.071.052 1.387h-.985c.062-.555.068-1.608.068-1.924 0-.347-.018-1.327-.046-1.743h1.118l1.168 1.907a.77.77 0 01.109.222v-2.129h.989zm-6.184.464c-.179 0-.354.011-.442.026-.019.476-.027.708-.027 1.253 0 .66 0 .903.027 1.429h.53c.624 0 .919-.186.919-.565 0-.422-.384-.621-.892-.621h-.306l.212-.553h.221c.257 0 .604-.136.604-.467 0-.355-.32-.502-.846-.502zm.554-.464c.679 0 1.42.247 1.42.871 0 .338-.292.648-.728.797.578.211.91.545.91.978 0 .765-.923 1.021-1.791 1.021h-1.988c.05-.476.063-1.163.063-1.924 0-.502-.006-1.268-.055-1.743h2.169zm-15.663-11.732a2.406 2.406 0 01-2.402-2.409V75.489c0-1.33 1.076-2.41 2.402-2.41a2.405 2.405 0 012.402 2.41v31.257a2.406 2.406 0 01-2.402 2.409zm66.739-15.31c-.013-5.36-4.364-9.73-9.71-9.73-2.915 0-5.527 1.302-7.309 3.349-1.781-2.047-4.393-3.349-7.309-3.349-5.35 0-9.704 4.37-9.71 9.736l-.001 12.895a2.406 2.406 0 002.402 2.409 2.405 2.405 0 002.401-2.409V93.86c0-2.714 2.203-4.927 4.908-4.927 2.706 0 4.908 2.213 4.908 4.927l.001 12.886a2.404 2.404 0 002.4 2.409 2.406 2.406 0 002.402-2.409v-12.89c.001-2.713 2.202-4.923 4.907-4.923s4.908 2.216 4.908 4.93v12.883a2.406 2.406 0 002.402 2.409 2.406 2.406 0 002.402-2.409l-.002-12.901zm-99.239 10.491c-2.706 0-4.662-2.208-4.662-4.922v-10.44h4.986c1.209 0 2.189-.983 2.189-2.196s-.98-2.196-2.19-2.196H76.08v-5.37a2.405 2.405 0 00-2.402-2.41 2.405 2.405 0 00-2.401 2.41v20.202c0 5.371 4.11 9.741 9.465 9.741a2.406 2.406 0 002.401-2.409 2.406 2.406 0 00-2.401-2.41zm42.95-9.861c.609-3.594 3.94-6.148 7.518-6.148 3.811 0 6.737 3.244 7.28 6.148h-14.798zm19.348 1.136c0-6.877-6.117-11.496-11.83-11.496-6.855 0-12.433 5.595-12.433 12.473 0 7.164 5.445 12.567 12.665 12.567 3.829 0 6.691-1.379 8.044-2.194.643-.377 1.176-1.147 1.176-2.013a2.167 2.167 0 00-2.193-2.153c-.379 0-.848.144-1.222.331-1.48.825-3.476 1.723-5.805 1.723-3.718 0-6.984-2.253-7.747-5.983h16.332c1.605 0 3.013-1.52 3.013-3.255zm-94.015-1.136c.609-3.594 3.94-6.148 7.518-6.148 3.811 0 6.737 3.244 7.28 6.148H49.025zm19.348 1.136c0-6.877-6.117-11.496-11.83-11.496-6.855 0-12.433 5.595-12.433 12.473 0 7.164 5.445 12.567 12.665 12.567 3.829 0 6.691-1.379 8.044-2.194.642-.377 1.176-1.147 1.176-2.013a2.168 2.168 0 00-2.193-2.153c-.38 0-.849.144-1.222.331-1.48.825-3.477 1.723-5.805 1.723-3.719 0-6.984-2.253-7.747-5.983H65.36c1.606 0 3.013-1.52 3.013-3.255zm20.367-1.136c.609-3.594 3.94-6.148 7.518-6.148 3.811 0 6.737 3.244 7.28 6.148H88.739zm19.348 1.136c0-6.877-6.117-11.496-11.83-11.496-6.855 0-12.433 5.595-12.433 12.473 0 7.164 5.445 12.567 12.665 12.567 3.829 0 6.691-1.379 8.044-2.194.642-.377 1.176-1.147 1.176-2.013a2.167 2.167 0 00-2.193-2.153c-.379 0-.848.144-1.222.331-1.48.825-3.477 1.723-5.805 1.723-3.719 0-6.984-2.253-7.747-5.983h16.332c1.605 0 3.013-1.52 3.013-3.255z" fill="#000"/><mask id="mask0" maskUnits="userSpaceOnUse" x="20" y="84" width="22" height="26"><path d="M20 84.115h21.979v25.04H20v-25.04z" fill="#fff"/></mask><g mask="url(#mask0)"><path fill-rule="evenodd" clip-rule="evenodd" d="M32.46 109.155c-3.192 0-6.385-1.22-8.815-3.662-4.86-4.882-4.86-12.827 0-17.71a12.353 12.353 0 018.815-3.668c3.33 0 6.46 1.303 8.815 3.669a2.42 2.42 0 010 3.41 2.393 2.393 0 01-3.396 0 7.596 7.596 0 00-5.42-2.253c-2.046 0-3.97.8-5.417 2.254-2.989 3-2.989 7.886 0 10.887 2.988 3 7.85 3 10.837 0a2.394 2.394 0 013.396 0 2.42 2.42 0 010 3.411 12.396 12.396 0 01-8.815 3.662z" fill="#000"/></g><path fill-rule="evenodd" clip-rule="evenodd" d="M40.229 117.268H23.673a2.192 2.192 0 01-2.189-2.196c0-1.213.98-2.196 2.19-2.196h16.555c1.208 0 2.189.983 2.189 2.196s-.98 2.196-2.19 2.196z" fill="#000"/></g><defs><clipPath id="clip0"><path fill="#fff" transform="translate(20 73)" d="M0 0h160v53.832H0z"/></clipPath></defs></svg>