<svg width="200" height="200" fill="none" xmlns="http://www.w3.org/2000/svg"><path fill="#fff" d="M0 0h200v200H0z"/><g clip-path="url(#clip0)" fill="#000"><path d="M25.818 89.97v9.616h.081c1.293-1.778 2.91-2.586 5.09-2.586 4.041 0 5.98 2.748 5.98 6.788v9.939h-5.656v-8.323c0-1.859-.242-3.879-2.586-3.879-2.262 0-2.99 1.94-2.99 3.879v8.323h-5.656V89.97h5.737zm25.132 13.252c-.243-1.535-1.698-2.586-3.233-2.586-1.616 0-2.99.889-3.394 2.586h6.627zm5.333 3.313h-11.96c0 2.344 1.212 3.637 3.556 3.637 1.212 0 2.1-.404 2.747-1.455h5.495c-.889 3.798-4.525 5.576-8.161 5.576-5.334 0-9.293-3.071-9.293-8.647 0-5.414 3.636-8.646 8.889-8.646 5.575 0 8.727 3.475 8.727 8.97v.565zm1.616 7.192h5.657V89.97h-5.657v23.757m16.485-7.919l3.798-8.323h6.384l-8.324 16.242h-3.717l-8.404-16.242h6.384l3.879 8.323zm21.091-2.586c-.243-1.535-1.697-2.586-3.233-2.586-1.616 0-2.99.889-3.394 2.586h6.627zm5.252 3.313h-11.96c0 2.344 1.213 3.637 3.556 3.637 1.212 0 2.101-.404 2.748-1.455h5.495c-.89 3.798-4.526 5.576-8.162 5.576-5.333 0-9.293-3.071-9.293-8.647C83.111 100.232 86.747 97 92 97c5.576 0 8.727 3.475 8.727 8.97v.565zm8.404 7.192h-5.656v-11.474h-1.859v-4.768h1.859v-4.849h5.656v4.849h3.233v4.768h-3.233v11.474m9.94 0h-5.657V97.485h5.657v16.242zm.404-21.333c0 1.778-1.455 3.232-3.152 3.232-1.778 0-3.151-1.454-3.151-3.232 0-1.778 1.454-3.232 3.151-3.232 1.697 0 3.152 1.454 3.152 3.232zm7.111 13.252c0 2.021 1.374 3.637 3.636 3.637 2.344 0 3.637-1.616 3.637-3.637 0-2.02-1.374-3.636-3.637-3.636-2.262-.081-3.636 1.616-3.636 3.636zm12.848 8.081h-5.656v-1.778h-.081c-.97 1.617-2.99 2.344-4.848 2.344-4.768 0-8.081-4.04-8.081-8.647 0-4.606 3.313-8.646 8-8.646 1.858 0 3.798.727 4.929 2.101v-1.616h5.657v16.242m13.737-5.576l6.384-1.696 1.374-3.233-2.829-6.626-.646 1.616-4.283 9.939zm14.303-20.767l-2.667-6.06-6.464 1.454 2.586 6.141 6.545-1.535zm-9.859 8.242l.081-.242 2.586-5.98-2.586-5.818-10.101 23.919 4.606.808 5.414-12.687z"/><path d="M160.202 89.404l-.162-.323-2.343-5.576-.081.08 2.586 5.819zm-.566 17.94l-5.252 1.292 9.374 1.697-.97-2.424-3.152-.565zm-7.434 1.858l-1.778-.323h.081l-3.394-.647-2.101 5.172 21.818 3.96-2.586-6.061-12.04-2.101z"/><path d="M150.586 108.798l-3.475-.566 3.394.647.081-.081z"/><path d="M150.505 108.879h-.081l1.778.323-.081-.081-1.616-.242zm2.101.323l-.242-.081-.162.081 12.04 2.101v-.081l-11.636-2.02z"/><path d="M152.202 109.202l.162-.081h-.243l.081.081z"/><path d="M152.121 109.121l-1.535-.323-.081.081 1.616.242zm.243 0l.242.081-.242-.081zm8.808-19.394l1.616 3.717 10.747 25.051 6.384-1.859-12.202-28.444-3.232.727-3.313.808z"/><path d="M164.485 88.92l3.232-.728-3.232.727zm-5.98 6.626l3.232 7.595v.081l3.152 7.273 1.212 2.909 1.778 4.121 4.767.889-7.191-16.808-4.849-11.07-2.101 5.01z"/><path d="M161.737 103.222v-.081l-3.232-7.596-.081.081 3.313 7.596z"/><path d="M160.606 90.535v-.08l-2.182 5.01.081.08 2.101-5.01zm-2.182 5.091l.081-.08-.081-.081v.161zm6.465 14.869l1.212 2.909-1.212-2.909zm7.758 7.919l-7.192-16.808 7.192 16.808z"/></g><defs><clipPath id="clip0"><path fill="#fff" transform="translate(20 81)" d="M0 0h160v37.98H0z"/></clipPath></defs></svg>