<svg width="200" height="200" fill="none" xmlns="http://www.w3.org/2000/svg"><path fill="#fff" d="M0 0h200v200H0z"/><path fill-rule="evenodd" clip-rule="evenodd" d="M28 97.587h1.787c2.213 0 3.333-.8 3.333-2.374 0-.773-.267-1.36-.773-1.76-.507-.4-1.2-.586-2.08-.586H28v4.72zm13.013 8.64v3.413H34.88l-4.56-8.827h-2.293v5.414h2.533v3.413H20.027v-3.413H22.8v-13.36h-2.773v-3.414h12.16c2.293 0 3.946.587 4.933 1.734 1.013 1.146 1.52 2.453 1.52 3.92 0 2.293-1.173 3.973-3.493 5.013l3.28 6.08h2.586v.027zm14.08-13.387c-1.546 0-2.853.587-3.946 1.733-1.067 1.174-1.6 2.854-1.6 5.094 0 1.973.533 3.573 1.6 4.746 1.066 1.2 2.373 1.787 3.946 1.787 1.547 0 2.854-.587 3.947-1.733 1.093-1.174 1.627-2.854 1.627-5.04 0-1.947-.507-3.547-1.547-4.774-1.04-1.2-2.373-1.813-4.027-1.813zm0-3.68c3.467 0 6.214 1.013 8.214 3.013s2.986 4.454 2.986 7.36c0 2.907-.986 5.36-2.986 7.36s-4.747 2.987-8.214 2.987c-3.6 0-6.373-1.04-8.293-3.093-1.92-2.08-2.907-4.48-2.907-7.28 0-2.88.987-5.334 2.96-7.334 2-2 4.747-3.013 8.24-3.013zm23.76 17.067h1.254c1.52 0 2.746-.187 3.626-.587.907-.4 1.627-1.093 2.16-2.08.534-1.013.8-2.32.8-3.92 0-1.547-.266-2.853-.826-3.92-.534-1.067-1.28-1.813-2.214-2.213-.933-.4-2.106-.614-3.546-.614h-1.254v13.334zm-8.293 3.413v-3.413h3.067v-13.36H70.56v-3.414h9.547c2 0 3.626.134 4.853.374 1.227.24 2.4.8 3.52 1.626 1.12.854 2.027 1.974 2.693 3.387.667 1.413 1.014 2.987 1.014 4.72 0 1.413-.24 2.747-.72 4.027-.48 1.253-1.067 2.293-1.76 3.066-.694.774-1.547 1.387-2.507 1.867-.987.453-1.867.747-2.693.88-.8.133-2.08.187-3.787.187H70.56v.053zm25.547 0v-3.413h3.066v-13.36h-3.066v-3.414h11.386v3.414H104.4v13.36h3.093v3.413H96.107zm16.986 0v-3.413h2.88v-13.36h-2.88v-3.414h11.067v3.414h-2.933v13.36h5.946v-6.24h3.92v9.626h-18v.027zm23.334 0v-3.413h2.88v-13.36h-2.88v-3.414h11.066v3.414h-2.933v13.36h5.947v-6.24h3.92v9.626h-18v.027zm34.453-9.813l-1.68-6.08-1.813 6.08h3.493zm9.093 6.4v3.413h-9.92v-3.413h2.587l-.96-3.467h-5.227l-1.066 3.467h2.693v3.413h-8.933v-3.413h2.48l3.92-13.36h-2.694v-3.414h13.174v3.414h-2.72l4.24 13.36h2.426z" fill="#000"/></svg>