<svg width="200" height="200" fill="none" xmlns="http://www.w3.org/2000/svg"><path fill="#fff" d="M0 0h200v200H0z"/><path d="M23.62 134.001c-.344-.077-.725-.153-1.067-.267-1.41-.495-2.4-1.79-2.477-3.276V87.791c0-2.59.915-4.8 2.743-6.666 4.076-4.077 8.153-8.191 12.267-12.23 1.79-1.79 3.962-2.666 6.514-2.666h42.438c2.21 0 3.81 1.6 3.81 3.81v42.438c0 2.476-.914 4.647-2.667 6.438-4.038 4.038-8.076 8.076-12.114 12.152-1.752 1.753-3.886 2.743-6.362 2.819a.53.53 0 00-.229.077c-14.323.038-28.571.038-42.857.038zm22.209-13.6c.19-.153.267-.267.343-.343l13.066-13.067 6.629-6.628c.228-.229.267-.343 0-.572-6.59-6.59-13.181-13.18-19.81-19.733l-.266-.267c.038 13.562.038 27.048.038 40.61zm134.057-2.782h-8.457V99.714c0-.952-.115-1.866-.572-2.704-.8-1.486-2.095-2.172-3.733-2.248-2.095-.076-3.772.8-5.295 2.133-.534.457-.724.915-.724 1.6.038 6.21 0 12.419 0 18.629v.457h-8.115c-.304 0-.419-.076-.419-.419V99.409c0-1.066-.228-2.057-.838-2.895-.838-1.18-2.019-1.714-3.466-1.79-1.905-.076-3.543.685-4.953 1.867-.495.419-.952.914-1.371 1.37-.114.153-.229.382-.229.572v18.972h-8.533V88.171h7.543v3.315c.457-.42.876-.838 1.295-1.22 3.238-2.628 6.895-3.504 10.971-2.666 2.477.533 4.458 1.79 5.943 3.848.038.038.038.076.076.114l.039.038c.419-.343.838-.724 1.257-1.105 1.828-1.486 3.885-2.552 6.209-2.971 2.972-.534 5.829-.229 8.419 1.371 2.134 1.334 3.467 3.276 4.153 5.638.304.953.419 1.943.609 2.934 0 .076.038.152.076.266.115 6.705.115 13.296.115 19.886zm-51.772-20.8c-1.028-.495-1.981-1.029-2.971-1.41-2.591-1.028-5.257-1.6-8.038-1.447-.8.038-1.562.19-2.248.571-1.257.724-1.447 2.096-.419 3.124.686.686 1.6 1.067 2.514 1.372 1.6.533 3.2.99 4.8 1.485 1.867.572 3.696 1.257 5.296 2.438 2.171 1.562 3.276 3.696 3.314 6.362 0 1.676-.305 3.238-1.219 4.686-.991 1.524-2.362 2.476-4 3.162-1.676.724-3.467 1.105-5.295 1.219-1.562.076-3.124.152-4.648.076-3.314-.152-6.514-.876-9.486-2.438-.304-.152-.419-.343-.419-.686v-6.59a.617.617 0 01.229.114c2.133 1.333 4.495 2.095 6.933 2.591 1.829.342 3.657.495 5.524.342.8-.076 1.638-.152 2.4-.495 1.41-.609 1.676-2.019.533-3.047-.609-.572-1.333-.915-2.133-1.181-1.79-.61-3.619-1.143-5.409-1.753-1.791-.609-3.581-1.295-5.105-2.438-2.4-1.752-3.391-4.114-3.2-7.01.114-1.942.724-3.656 2.095-5.066 1.105-1.181 2.476-1.943 4-2.438 2.095-.724 4.267-.953 6.476-.914 3.543.038 6.934.838 10.172 2.323.304.153.419.305.419.648-.038 2.057 0 4.114 0 6.172-.115 0-.115.114-.115.228z" fill="#000"/></svg>