<svg width="200" height="200" fill="none" xmlns="http://www.w3.org/2000/svg"><path fill="#fff" d="M0 0h200v200H0z"/><g clip-path="url(#clip0)" fill-rule="evenodd" clip-rule="evenodd" fill="#000"><path d="M33.721 102.954h132.116v-34.14H33.721v34.14zm132.116 3.721H33.721v24.489h132.116v-24.489zM30.023 65.094h139.535v69.767H30.023V65.094z"/><path d="M114.163 122.163c0-2.768-1.349-3.977-4.21-4.884-1.209-.395-2.697-.744-2.697-1.698 0-.79.488-1.139 1.209-1.139h.419c.814 0 1.442.442 1.883 1.279l.489.07 2.535-1.698.046-.535c-.325-.535-.721-1.046-1.163-1.418-.953-.838-2.232-1.303-3.814-1.303h-.372c-3.348 0-5.348 1.814-5.348 4.884 0 2.744 1.465 3.814 4.069 4.721 1.628.558 2.861.721 2.861 1.814 0 .721-.489 1.139-1.233 1.139h-.767c-.814 0-1.442-.442-1.884-1.279l-.488-.069-2.535 1.697-.047.512c.256.465.582.884.977 1.256.977.953 2.349 1.511 4.023 1.511h.744c3.396 0 5.303-1.814 5.303-4.86zm32.232 4.302v-15.093l-.279-.256h-3.581l-.209.256v15.093l.209.256h3.581l.279-.256zm-5.767-11.93v-3.163l-.233-.256h-10.162l-.21.256v15.093l.21.256h3.604l.256-.256v-5.558l.279-.279h4.93l.233-.209v-3.186l-.233-.233h-4.93l-.279-.279v-1.698l.279-.279h6l.256-.209zm15.07 6.837l-.21.209h-1.418l-.233-.209.442-1.93a27.23 27.23 0 00.512-3.047h.069s.163 1.582.466 3.047l.372 1.93zm5.721 5.023l-5.093-15.093-.21-.162h-2.651l-.256.162-5.116 15.093.233.326h3.767l.209-.163.651-1.86.303-.163h2.93l.326.163.628 1.86.209.163h3.837l.233-.326zm-77.489.024v-15.047l-.232-.256h-3.442l-.21.256v4c0 2.186.117 4.116.117 4.116h-.07s-.186-.535-.535-1.186l-3.605-6.953-.325-.233h-3.093l-.21.256v15.047l.21.232h3.511l.233-.232v-3.931c0-2.023-.14-3.976-.14-3.976h.094s.186.535.511 1.116l3.628 6.791.28.209h3.046l.232-.209zm-13.977 0v-15.047l-.279-.256h-3.581l-.21.256v15.047l.21.232h3.581l.28-.232zm54.094-4.024c0 .582-.442 1-1.187 1h-1.697c-.861 0-1.303-.395-1.303-1v-6.93c0-.512.582-1.046 1.303-1.046h1.697c.698 0 1.187.441 1.187 1.046v6.93zm4.046 0v-6.93c0-2.814-2.116-4.628-5.233-4.628h-1.697c-3.116 0-5.279 1.837-5.279 4.628v6.93c0 2.791 2.116 4.628 5.279 4.628h1.697c3.117 0 5.233-1.837 5.233-4.628zm-34.977-1.046l-.209.209h-1.419l-.232-.209.442-1.93c.349-1.442.511-3.024.511-3.024h.07s.163 1.582.465 3.024l.372 1.93zm5.721 5l-5.093-15.047-.21-.162h-2.65l-.233.162-5.093 15.047.233.325h3.744l.21-.162.65-1.861.303-.163h2.93l.326.163.627 1.861.21.162h3.814l.232-.325zm-35.302.07v-3.163l-.233-.209h-6l-.302-.28v-1.907l.302-.279h4.93l.256-.209v-3.186l-.255-.233h-4.93l-.303-.279v-1.697l.302-.279h6l.233-.21v-3.162l-.233-.256h-10.14l-.209.256v15.046l.21.233h10.14l.232-.186zm-12.605-.07l-2.395-6.186.116-.535c1.07-.698 1.768-1.884 1.768-3.395V116c0-3.023-2.047-4.884-5.233-4.884h-6.79l-.21.256v15.047l.21.232H42l.233-.232v-5.559l.302-.279h1.674l.21.163 2.232 5.721.21.163h3.837l.232-.279zm-4.511-10.093c0 .674-.465.977-1.21.977h-2.674l-.302-.28V115l.302-.279h2.651c.814 0 1.21.372 1.21 1.046v.489h.023zm68.442-31.884h-1.187c-2.116 0-3.465-1.233-3.465-3.07V76.35c0-1.837 1.372-3.07 3.465-3.07h1.187c2.069 0 3.418 1.233 3.418 3.07v.72h-2.349v-.72c0-.582-.465-.977-1.069-.977h-1.187c-.581 0-1.139.442-1.139.977v4.93c0 .605.465.954 1.139.954h1.187c.627 0 1.069-.396 1.069-.954v-.698h2.349v.721c0 1.814-1.349 3.07-3.418 3.07zm-9.303-10.86l3.512 10.65h-2.535l-.419-1.302-.442-.279h-2.046l-.419.28-.442 1.302h-2.488l3.512-10.651h1.767zm-.232 7.07l-.14.162h-1l-.163-.163.303-1.372a22.04 22.04 0 00.348-2.163h.047s.116 1.14.326 2.163l.279 1.372zm23.767 3.813h-1.186c-2.116 0-3.465-1.232-3.465-3.07v-4.953c0-1.837 1.372-3.07 3.465-3.07h1.186c2.07 0 3.419 1.233 3.419 3.07v4.954c0 1.837-1.349 3.07-3.419 3.07zm.837-3.093c0 .419-.302.721-.837.721h-1.186c-.605 0-.907-.279-.907-.72v-4.954c0-.372.419-.744.907-.744h1.186c.488 0 .837.325.837.744v4.953zm19-7.79l3.512 10.65h-2.535l-.419-1.302-.441-.279H147l-.419.28-.441 1.302h-2.489l3.512-10.651h1.767zm-.232 7.07l-.163.162h-.977l-.163-.163.303-1.372a22.24 22.24 0 00.349-2.163h.046s.116 1.14.326 2.163l.279 1.372zm-26.117-7.07v10.65h-2.372v-10.65h2.372zm38.582 8.534v2.117h-6.93V73.512h2.372v8.209l.325.325h4.233zm-62.535-8.534v10.65h-2.023l-3.326-5.813v5.814h-2.302V73.512h2.07l3.418 5.976v-5.976h2.163zm-40.047 0v7.814c0 1.837-1.348 3.07-3.418 3.07h-1.186c-2.116 0-3.442-1.233-3.442-3.07v-7.814h2.302v7.814c0 .604.419.953 1.14.953h1.186c.698 0 1.093-.372 1.093-.953v-7.814h2.325zm24.256 10.86h-1.186c-2.116 0-3.465-1.233-3.465-3.07V76.35c0-1.837 1.372-3.07 3.465-3.07h1.186c2.07 0 3.419 1.233 3.419 3.07v4.953c0 1.837-1.349 3.07-3.419 3.07zm.837-3.07c0 .419-.302.721-.837.721h-1.186c-.604 0-.907-.279-.907-.72v-4.954c0-.372.419-.744.907-.744h1.186c.489 0 .837.325.837.744v4.953zm-17.93-4.883c-.325-.652-.814-1.024-1.511-1.024h-.28c-.604 0-1.093.326-1.093 1.047 0 .488.373.79.745.977l.65.255.652.21c1.93.628 2.79 1.442 2.79 3.255 0 2.024-1.209 3.233-3.488 3.233h-.535c-1.116 0-2-.372-2.65-1l-.652-.86-.023-.07 1.767-1.21c.35.629.837 1.024 1.512 1.024h.535c.628 0 1.093-.395 1.093-1.047 0-.511-.302-.814-.698-1.023l-.651-.256-.79-.256c-1.791-.628-2.698-1.348-2.698-3.162 0-2.047 1.302-3.256 3.511-3.256h.256c1.047 0 1.907.325 2.512.883l.767.977.047.07-1.768 1.233zM48.07 73.512v10.65h-2.21v-5.697l-1.72 4.349-.07.023h-1.651l-.07-.023-1.698-4.372v5.697h-2.256V73.49h2.419l2.488 6.232 2.373-6.233 2.395.024zm94.279 0v10.65h-2.023L137 78.35v5.814h-2.302V73.512h2.07l3.418 5.976v-5.976h2.163zm-65.698 8.534v2.117h-6.93V73.512h6.93v2.116h-4.256l-.302.279v1.535l.326.256h3.511v2.116h-3.51l-.303.256v1.72l.326.233h4.21v.023zm52.558 5.559l3.512 10.65h-2.535l-.418-1.278-.442-.28h-2.047l-.418.28-.442 1.302h-2.489l3.512-10.651h1.767v-.023zm-.232 7.093l-.163.162h-.977l-.162-.162.302-1.372c.232-1.047.349-2.163.349-2.163h.046s.116 1.14.326 2.163l.279 1.372zm12.488-.791l1.628 4.349h-2.488l-1.558-4.07-.372-.279h-1.187l-.441.442v3.907h-2.372V87.605h4.674c2.116 0 3.419 1.232 3.419 3.255v.163c0 1.023-.466 1.79-1.14 2.233l-.163.651zm-1.442-2.86c0 .465-.325.697-.86.697h-1.861l-.209-.186v-1.395l.209-.186h1.861c.558 0 .86.255.86.744v.325zm-33.279 4.139c0 .372-.372.721-.86.721h-1.861l-.209-.186v-5.558l.209-.186h1.861c.465 0 .86.395.86.744v4.465zm-5.535-7.581h4.675c2.116 0 3.418 1.232 3.418 3.255v4.186c0 2-1.302 3.21-3.418 3.21h-4.675V87.605zm-45.395 8.534v2.117h-6.93V87.605h6.93v2.116h-4.256l-.302.279v1.535l.325.256h3.489v2.116h-3.512l-.302.256v1.72l.325.233h4.233v.023zm28.698-2.232l1.628 4.349h-2.49l-1.558-4.07-.372-.279h-1.302l-.326.302v4.047H77.72V87.605h4.674c2.117 0 3.42 1.232 3.42 3.255v.163c0 1.023-.466 1.79-1.14 2.233l-.163.651zm-1.28-2.86c0 .465-.325.697-.86.697h-2.14l-.209-.186v-1.395l.21-.186h2.14c.557 0 .86.255.86.744v.325zm9.35 7.348h-1.186c-2.117 0-3.466-1.232-3.466-3.07v-4.953c0-1.837 1.372-3.07 3.465-3.07h1.187c2.07 0 3.418 1.233 3.418 3.07v4.954c0 1.837-1.349 3.07-3.418 3.07zm.814-3.07c0 .42-.303.721-.838.721h-1.186c-.605 0-.907-.279-.907-.72v-4.954c0-.372.419-.744.907-.744h1.186c.489 0 .837.326.837.744v4.954zm-17.838-7.72v2.116h-2.14l-.325.233v8.302h-2.349v-8.28l-.325-.255h-2.163v-2.116h7.302zM43.07 98.395h-1.186c-2.117 0-3.465-1.232-3.465-3.07v-4.953c0-1.837 1.372-3.07 3.465-3.07h1.186c2.07 0 3.419 1.233 3.419 3.07v.721h-2.35v-.72c0-.582-.465-.978-1.07-.978h-1.185c-.582 0-1.14.442-1.14.977v4.954c0 .604.442.953 1.14.953h1.186c.628 0 1.07-.372 1.07-.953v-.721h2.349v.72c0 1.838-1.35 3.07-3.42 3.07zm23.023-10.79v10.65H64.07l-3.326-5.813v5.814h-2.302V87.605h2.07l3.418 5.976v-5.976h2.163zm95.07 8.534v2.117h-6.93V87.605h6.93v2.116h-4.256l-.302.279v1.535l.325.256h3.489v2.116h-3.512l-.302.256v1.72l.325.233h4.233v.023zm-42.256 0v2.117h-6.93V87.605h6.93v2.116h-4.256l-.302.279v1.535l.326.256h3.465v2.116h-3.512l-.302.256v1.72l.325.233h4.256v.023zm32.814-8.534v2.116h-2.139l-.326.233v8.302h-2.349v-8.28l-.326-.255h-2.162v-2.116h7.302z"/></g><defs><clipPath id="clip0"><path fill="#fff" transform="translate(30 65)" d="M0 0h139.767v70H0z"/></clipPath></defs></svg>