<svg width="528" height="278" fill="none" xmlns="http://www.w3.org/2000/svg"><path fill="#EEE" d="M0 0h528v278H0z"/><g clip-path="url(#clip0_2473_2983)"><path fill="#fff" d="M214 80h100v117.484H214z"/><path fill-rule="evenodd" clip-rule="evenodd" d="M314 80H214v117.484h100V80zm-73.697 56.869v1.405l-11.833-9.342v-.865l11.833-9.344v1.406l-10.6 8.371 10.6 8.369zm47.391 0v1.405l11.836-9.342v-.865l-11.836-9.344v1.406l10.602 8.371-10.602 8.369zm-40.279-37.375v26.589h7.32v-26.59h-7.32zm24.795 6.639a23.38 23.38 0 015.064 2.049l3.474-6.036c-.661-.3-1.403-.623-2.232-.955a31.88 31.88 0 00-2.667-.935 27.052 27.052 0 00-2.957-.702 17.499 17.499 0 00-3.141-.284 14.615 14.615 0 00-4.155.584 11.207 11.207 0 00-3.487 1.689 7.99 7.99 0 00-3.308 6.704c-.016.88.131 1.756.433 2.584a5.55 5.55 0 001.345 2.01 9.067 9.067 0 002.314 1.573c1.081.519 2.201.949 3.35 1.291.881.271 1.714.511 2.5.712a31.29 31.29 0 012.089.603c.51.152.992.386 1.427.694a1.173 1.173 0 01.516.955.956.956 0 01-.516.842c-.345.211-.96.318-1.841.318a13.146 13.146 0 01-3.411-.448 23.23 23.23 0 01-2.997-1.006 24.759 24.759 0 01-3.024-1.462l-3.473 6.405c.925.494 1.887.919 2.874 1.273a31.636 31.636 0 006.594 1.608c1.097.149 2.2.225 3.306.225a19.238 19.238 0 004.032-.43 11.438 11.438 0 003.596-1.407 7.533 7.533 0 002.565-2.614c.649-1.082.971-2.424.971-4.022a7.392 7.392 0 00-.621-3.199 6.162 6.162 0 00-1.778-2.228 11.638 11.638 0 00-2.79-1.593 32.705 32.705 0 00-3.658-1.237 93.866 93.866 0 00-2.295-.635 14.526 14.526 0 01-1.715-.543 3.62 3.62 0 01-1.077-.617 1.108 1.108 0 01-.37-.863 1.036 1.036 0 01.641-1.005 4.109 4.109 0 011.715-.3 9.844 9.844 0 012.707.402zm-24.795 25.759v26.589h9.485a15.213 15.213 0 005.519-.955 12.228 12.228 0 004.234-2.697 11.875 11.875 0 002.721-4.194 15 15 0 00.958-5.486 15.174 15.174 0 00-.865-5.149 11.654 11.654 0 00-2.603-4.27 11.7 11.7 0 00-4.154-2.79c-1.68-.698-3.619-1.048-5.82-1.048h-9.475zm15.071 10.442c.286.911.425 1.86.413 2.815a9.308 9.308 0 01-.403 2.769 6.49 6.49 0 01-1.163 2.212 5.352 5.352 0 01-1.897 1.46 5.959 5.959 0 01-2.544.525h-2.157V138.26h2.157a6.109 6.109 0 012.516.495 5.335 5.335 0 011.894 1.407 6.273 6.273 0 011.184 2.172zm10.734-10.442v26.589h7.32v-26.589h-7.32zm-44.994 39.663v6.36l2.266-.002c.439.007.874-.071 1.284-.229a2.739 2.739 0 001.602-1.651c.154-.42.228-.864.222-1.311 0-.418-.066-.834-.201-1.23a2.885 2.885 0 00-.589-1.006 2.77 2.77 0 00-.97-.679 3.387 3.387 0 00-1.352-.252h-2.262zm4.207 2.248c.095.3.143.61.139.923.006.31-.036.618-.125.913a2.116 2.116 0 01-.403.73 1.835 1.835 0 01-.655.485c-.282.12-.589.181-.895.175h-1.256v-4.587h1.256c.302-.006.602.053.881.171a1.877 1.877 0 011.058 1.19zm2.478-2.248v6.36h1.007v-6.36h-1.007zm6.305 6.184c.32-.143.606-.351.841-.612l.004.795h.845v-3.218h-2.194v.742h1.339v.682a2.747 2.747 0 01-.849.708 2.058 2.058 0 01-.929.223 1.848 1.848 0 01-.817-.183 2.06 2.06 0 01-.651-.499 2.273 2.273 0 01-.431-.734 2.778 2.778 0 01-.018-1.781 2.27 2.27 0 01.403-.74c.172-.211.386-.384.629-.509.252-.133.532-.201.816-.201.353-.004.701.085 1.008.259.313.181.564.453.72.778l.772-.553a2.473 2.473 0 00-.935-1.005 3.174 3.174 0 00-2.748-.125c-.364.165-.69.401-.96.694a3.22 3.22 0 00-.633 1.022 3.388 3.388 0 000 2.463c.145.382.36.735.633 1.039.268.297.591.539.952.712a2.7 2.7 0 001.185.264 2.516 2.516 0 001.018-.221zm3.157-6.184v6.36h1.008v-6.36h-1.008zm5.143.889h2.12v-.887h-5.263v.887h2.135v5.473h1.008v-5.473zm5.13-.889h-.881l-2.532 6.36h1.069l.665-1.729h2.459l.673 1.729h1.061l-2.514-6.36zm-.441 1.156l1.024 2.731h-2.083l1.059-2.731zm3.922-1.156v6.36h4.435v-.886h-3.427v-5.474h-1.008zm10.56.889h2.12v-.887h-5.263v.887h2.135v5.473h1.008v-5.473zm5.136-.889h-.881l-2.54 6.36h1.069l.665-1.729h2.467l.674 1.729h1.06l-2.514-6.36zm-.439 1.156l1.022 2.731h-2.083l1.061-2.731zm3.915-1.156v6.36h4.434v-.886h-3.427v-5.474h-1.007zm9.775 6.36v-.886l-3.367.002v-1.945h2.846v-.832h-2.846v-1.81h3.286v-.889h-4.292v6.36h4.373zm2.219 0v-4.48l3.606 4.48h.823v-6.352h-1.008v4.579l-3.645-4.587h-.784v6.36h1.008zm8.586-5.471h2.118v-.887h-5.261v.887h2.135v5.473h1.008v-5.473z" fill="#000"/></g><defs><clipPath id="clip0_2473_2983"><path fill="#fff" transform="translate(214 80)" d="M0 0h100v117.484H0z"/></clipPath></defs></svg>