<svg width="528" height="278" fill="none" xmlns="http://www.w3.org/2000/svg"><path fill="#003883" d="M0 0h528v278H0z"/><path d="M176.836 160.378a6.26 6.26 0 01-1.675 4.698 6.253 6.253 0 01-4.579 1.979 5.7 5.7 0 01-4.299-1.798v1.563h-1.564v-18.246h1.564v7.317a5.72 5.72 0 014.456-1.923 5.986 5.986 0 016.097 6.41zm-1.563 0a4.687 4.687 0 00-4.691-5.034 5.168 5.168 0 00-4.299 2.189v5.926a5.264 5.264 0 004.362 2.157 4.687 4.687 0 004.69-5.175l-.062-.063zm15.29-6.175l-5.738 13.884c-1 2.408-2.47 3.674-4.596 3.674a5.1 5.1 0 01-2.111-.438v-1.563c.63.321 1.326.492 2.033.5a3.128 3.128 0 003.127-2.064l.547-1.376-5.363-12.679h1.736l4.377 10.819 4.331-10.819 1.657.062zm14.541 13.102a8.745 8.745 0 01-5.801-2.095v-3.768a9.526 9.526 0 006.067 2.611c1.563 0 3.017-.61 3.017-2.111 0-1.501-1.72-1.939-3.455-2.439-2.83-.797-6.004-1.845-6.004-5.566s3.127-5.488 6.52-5.488a9.095 9.095 0 014.815 1.376v3.424a9.374 9.374 0 00-4.846-1.563c-1.751 0-3.127.75-3.127 2.204 0 1.454 1.657 1.954 3.893 2.58 2.548.688 5.519 1.563 5.519 5.206 0 3.643-3.205 5.629-6.598 5.629zm9.177-17.606c-.015-.42.095-.835.316-1.192a2.114 2.114 0 013.252-.412 2.112 2.112 0 01-.265 3.267 2.112 2.112 0 01-1.176.369 1.998 1.998 0 01-.815-.112 1.997 1.997 0 01-1.163-1.112 1.996 1.996 0 01-.149-.808zm.469 17.12v-13.087h3.127v13.087h-3.127zm19.169-7.957v7.958h-3.127v-7.677a2.674 2.674 0 00-2.987-2.689 3.353 3.353 0 00-2.798 1.313v9.053h-3.127v-13.086h3.017v1.204a5.072 5.072 0 013.706-1.47 4.995 4.995 0 013.892 1.48 5.01 5.01 0 011.424 3.914zm16.385-2.175h-3.002a2.666 2.666 0 01.938 2.205c0 3.127-2.877 4.002-4.815 4.393-1.939.391-2.908.313-2.908 1.079s1.11.876 1.954.891h1.329c1.751 0 5.441.219 5.441 3.471 0 2.986-3.127 4.237-6.692 4.237-3.565 0-6.066-1.11-6.066-3.518 0-1.469 1.001-2.642 3.002-3.033a2.315 2.315 0 01-1.814-2.001c0-.938.641-1.563 1.564-1.814a4.387 4.387 0 01-2.002-3.877c0-3.127 2.439-5.034 5.942-5.034h7.082l.047 3.001zm-10.944 12.352c0 1.141 1.407 1.563 3.33 1.563s3.518-.328 3.518-1.563c0-1.235-1.36-1.235-3.409-1.235-2.048 0-3.408.015-3.408 1.297l-.031-.062zm5.925-10.225a2.545 2.545 0 00-2.54-2.349 2.547 2.547 0 00-2.541 2.349 2.55 2.55 0 004.271 1.672 2.55 2.55 0 00.81-1.672zm19.028-5.08v13.087h-2.971v-1.204a5.36 5.36 0 01-3.799 1.438 5.074 5.074 0 01-3.832-1.527 5.081 5.081 0 01-1.437-3.867v-7.927h3.127v7.677a2.766 2.766 0 002.955 2.689 3.608 3.608 0 001.546-.312c.487-.216.92-.536 1.268-.939v-9.115h3.143zm3.861 13.086v-18.246h3.127v18.246h-3.127zm17.074.001h-3.002v-1.767a4.81 4.81 0 01-4.081 2.002 3.437 3.437 0 01-3.636-2.131 3.426 3.426 0 01-.241-1.481c0-3.346 3.33-3.799 6.05-4.503.954-.234 1.783-.484 1.783-1.376 0-.891-1.126-1.344-2.314-1.344a7.487 7.487 0 00-4.691 1.704v-2.892a8.393 8.393 0 014.956-1.564c3.221 0 5.191 1.564 5.191 4.253l-.015 9.099zm-3.127-6.097c-.511.198-1.033.365-1.564.5-1.907.516-3.127.797-3.127 2.079 0 .751.438 1.189 1.564 1.189a2.895 2.895 0 003.127-2.877v-.891zm14.915-6.945v3.002a6.247 6.247 0 00-1.563-.203 3.758 3.758 0 00-3.237 1.563v8.646h-3.127v-13.055h2.877v1.564a4.052 4.052 0 013.565-1.72c.501.018.998.087 1.485.203zm21.717 7.803c0 3.127-2.564 5.238-6.082 5.238h-6.973v-17.965h6.801a4.52 4.52 0 014.956 4.613 4.11 4.11 0 01-1.86 3.689 4.509 4.509 0 013.158 4.425zm-9.756-5.613h2.689c1.407 0 2.392-.766 2.392-2.032 0-1.267-.876-1.923-2.267-1.923h-2.814v3.955zm6.457 5.316c0-1.36-1.141-2.189-2.752-2.189h-3.705v4.691h3.471c1.798-.125 2.986-1.126 2.986-2.502zm16.448 5.536h-3.018v-1.766a4.804 4.804 0 01-4.08 2.001 3.437 3.437 0 01-2.788-.894 3.448 3.448 0 01-1.09-2.718c0-3.346 3.346-3.799 6.067-4.503.938-.234 1.766-.484 1.766-1.375 0-.892-1.125-1.345-2.314-1.345a7.412 7.412 0 00-4.69 1.704v-2.892a8.36 8.36 0 014.956-1.564c3.127 0 5.175 1.564 5.175 4.253l.016 9.099zm-3.127-6.097c-.511.198-1.033.365-1.564.5-1.907.516-3.127.797-3.127 2.079 0 .751.438 1.189 1.564 1.189a2.893 2.893 0 003.127-2.877v-.891zm18.949-1.862v7.958h-3.127v-7.677a2.659 2.659 0 00-.223-1.101 2.668 2.668 0 00-2.747-1.588 3.356 3.356 0 00-2.799 1.314v9.052h-3.127v-13.086h3.002v1.204a5.066 5.066 0 013.768-1.454 4.993 4.993 0 013.844 1.5 5.003 5.003 0 011.409 3.878zm10.022 1.313L364 166.82h-4.112l-5.269-5.691v5.691h-3.127v-18.246h3.127v10.632l5.081-5.472h4.081l-6.035 6.441zm-182.301-19.682a16.243 16.243 0 01-10.726-3.925v-7.02a17.665 17.665 0 0011.273 4.878c2.908 0 5.628-1.157 5.628-3.924s-3.127-3.627-6.441-4.534c-5.253-1.485-11.179-3.44-11.179-10.366s5.785-10.225 12.133-10.225c3.153.007 6.242.901 8.911 2.58v6.426a17.538 17.538 0 00-9.021-2.877c-3.252 0-5.832 1.391-5.832 4.112 0 3.017 3.127 3.627 7.271 4.784 4.69 1.282 10.256 2.908 10.256 9.694 0 7.004-6.066 10.397-12.273 10.397zm38.883-10.9h-16.667c.188 3.205 3.44 5.347 7.396 5.347a15.767 15.767 0 008.599-2.955v5.254a16.145 16.145 0 01-9.381 2.767c-7.583 0-12.508-5.066-12.508-12.695 0-7.63 4.909-12.508 11.836-12.508 6.691 0 10.709 4.581 10.709 11.992l.016 2.798zm-16.62-4.393h10.945a4.787 4.787 0 00-5.019-5.207 5.584 5.584 0 00-5.926 5.207zm22.108 14.384v-33.959h5.879v33.959h-5.879zm29.331-28.471a9.29 9.29 0 00-4.143-1.047c-2.486 0-4.347 1.235-4.347 3.908v1.251h7.349v5.488h-7.349v18.871h-5.894v-18.871h-5.019v-5.488h5.019v-1.344c0-5.754 4.393-8.881 9.412-8.881 1.717.007 3.416.347 5.003 1.001l-.031 5.112zm28.877 18.714c0 5.691-4.69 9.756-11.319 9.756h-12.977v-33.442h12.617c5.394 0 9.225 3.252 9.225 8.552a7.676 7.676 0 01-3.44 6.879 8.351 8.351 0 015.894 8.255zm-18.136-10.459h5.003c2.627 0 4.441-1.423 4.441-3.768 0-2.346-1.564-3.581-4.191-3.581h-5.253v7.349zm11.976 9.756c0-2.533-2.095-4.065-5.112-4.065h-6.864v8.646h6.457c3.33 0 5.519-1.861 5.519-4.581zm30.613 10.46h-5.582v-3.315a8.937 8.937 0 01-7.598 3.722c-4.769 0-7.208-2.768-7.208-6.739 0-6.254 6.254-7.067 11.273-8.349 1.767-.438 3.299-.907 3.299-2.58 0-1.954-2.111-2.486-4.3-2.486a13.885 13.885 0 00-8.739 3.127v-5.253a15.539 15.539 0 019.208-2.971c5.973 0 9.647 2.971 9.647 7.927v16.917zm-5.863-11.366a24.23 24.23 0 01-2.877.953c-3.533.954-5.863 1.47-5.863 3.862 0 1.392.798 2.205 2.908 2.205a5.4 5.4 0 005.37-3.192 5.391 5.391 0 00.462-2.156v-1.672zm35.288-3.441v14.806h-5.879v-14.259c0-3.127-2.376-5.003-5.535-5.003a6.25 6.25 0 00-5.206 2.423v16.839h-5.879v-24.359h5.598v2.283a9.383 9.383 0 017.02-2.721c5.487-.047 9.881 3.346 9.881 9.991zm18.621 2.424l11.601 12.383h-7.63l-9.803-10.616v10.616h-5.863v-33.959h5.863v19.7l9.381-10.163h7.645l-11.194 12.039z" fill="#fff"/></svg>