<svg width="200" height="200" viewBox="0 0 200 200" fill="none" xmlns="http://www.w3.org/2000/svg">
<rect width="200" height="200" fill="white"/>
<path d="M9.12728 87.9879V99.7677H9.22627C10.8101 97.5899 12.7899 96.6 15.4626 96.6C20.4121 96.6 22.7879 99.9657 22.7879 104.915V117.091H15.8586V106.895C15.8586 104.618 15.5616 102.143 12.6909 102.143C9.9192 102.143 9.02829 104.519 9.02829 106.895V117.091H2.099V87.9879H9.12728Z" fill="black"/>
<path d="M39.9132 104.222C39.6162 102.341 37.8344 101.055 35.9536 101.055C33.9738 101.055 32.2909 102.143 31.796 104.222H39.9132ZM46.4465 108.281H31.796C31.796 111.151 33.2808 112.735 36.1516 112.735C37.6364 112.735 38.7253 112.24 39.5172 110.954H46.2485C45.1596 115.606 40.7051 117.784 36.2505 117.784C29.7172 117.784 24.8667 114.022 24.8667 107.192C24.8667 100.56 29.3212 96.6 35.7556 96.6C42.5859 96.6 46.4465 100.857 46.4465 107.588V108.281Z" fill="black"/>
<path d="M48.4263 117.091H55.3556V87.9879H48.4263V117.091" fill="black"/>
<path d="M68.6202 107.39L73.2727 97.194H81.0929L70.8969 117.091H66.3434L56.0485 97.194H63.8687L68.6202 107.39Z" fill="black"/>
<path d="M94.4566 104.222C94.1596 102.341 92.3778 101.055 90.497 101.055C88.5172 101.055 86.8344 102.143 86.3394 104.222H94.4566ZM100.891 108.281H86.2404C86.2404 111.151 87.7253 112.735 90.596 112.735C92.0809 112.735 93.1697 112.24 93.9617 110.954H100.693C99.6041 115.606 95.1495 117.784 90.695 117.784C84.1617 117.784 79.3112 114.022 79.3112 107.192C79.3112 100.56 83.7657 96.6 90.2 96.6C97.0303 96.6 100.891 100.857 100.891 107.588V108.281Z" fill="black"/>
<path d="M111.186 117.091H104.257V103.034H101.98V97.1939H104.257V91.2545H111.186V97.1939H115.145V103.034H111.186V117.091" fill="black"/>
<path d="M123.362 117.091H116.432V97.1939H123.362V117.091ZM123.857 90.9575C123.857 93.1353 122.075 94.9171 119.996 94.9171C117.818 94.9171 116.135 93.1353 116.135 90.9575C116.135 88.7797 117.917 86.9979 119.996 86.9979C122.075 86.9979 123.857 88.7797 123.857 90.9575Z" fill="black"/>
<path d="M132.568 107.192C132.568 109.667 134.251 111.646 137.022 111.646C139.893 111.646 141.477 109.667 141.477 107.192C141.477 104.717 139.794 102.737 137.022 102.737C134.251 102.638 132.568 104.717 132.568 107.192ZM148.307 117.091H141.378V114.913H141.279C140.091 116.893 137.616 117.784 135.339 117.784C129.499 117.784 125.44 112.834 125.44 107.192C125.44 101.549 129.499 96.6 135.24 96.6C137.517 96.6 139.893 97.4909 141.279 99.1737V97.1939H148.208V117.091" fill="black"/>
<path d="M165.036 110.261L172.857 108.182L174.539 104.222L171.075 96.1051L170.283 98.0849L165.036 110.261Z" fill="black"/>
<path d="M182.558 84.8202L179.291 77.396L171.372 79.1778L174.539 86.701L182.558 84.8202Z" fill="black"/>
<path d="M170.481 94.9172L170.58 94.6203L173.747 87.295L170.58 80.1677L158.206 109.469L163.848 110.459L170.481 94.9172Z" fill="black"/>
<path d="M173.747 87.295L173.55 86.899L170.679 80.0687L170.58 80.1677L173.747 87.295Z" fill="black"/>
<path d="M173.055 109.271L166.62 110.855L178.103 112.933L176.915 109.964L173.055 109.271Z" fill="black"/>
<path d="M163.947 111.548L161.77 111.152H161.869L157.711 110.36L155.137 116.695L181.865 121.545L178.697 114.121L163.947 111.548Z" fill="black"/>
<path d="M161.968 111.053L157.711 110.36L161.869 111.152L161.968 111.053Z" fill="black"/>
<path d="M161.869 111.152H161.77L163.947 111.548L163.848 111.449L161.869 111.152Z" fill="black"/>
<path d="M164.442 111.547L164.145 111.448L163.948 111.547L178.697 114.121V114.022L164.442 111.547Z" fill="black"/>
<path d="M163.948 111.547L164.145 111.448H163.849L163.948 111.547Z" fill="black"/>
<path d="M163.848 111.448L161.968 111.052L161.869 111.151L163.848 111.448Z" fill="black"/>
<path d="M164.146 111.448L164.442 111.547L164.146 111.448Z" fill="black"/>
<path d="M174.935 87.6909L176.915 92.2444L190.081 122.931L197.901 120.655L182.953 85.8101L178.994 86.701L174.935 87.6909Z" fill="black"/>
<path d="M178.994 86.701L182.953 85.8101L178.994 86.701Z" fill="black"/>
<path d="M171.669 94.8182L175.628 104.123V104.222L179.489 113.131L180.974 116.695L183.152 121.743L188.992 122.832L180.182 102.242L174.242 88.6808L171.669 94.8182Z" fill="black"/>
<path d="M175.628 104.222V104.123L171.669 94.8182L171.57 94.9172L175.628 104.222Z" fill="black"/>
<path d="M174.242 88.6808V88.5818L171.57 94.7192L171.669 94.8182L174.242 88.6808Z" fill="black"/>
<path d="M171.57 94.9172L171.669 94.8182L171.57 94.7192V94.8182V94.9172Z" fill="black"/>
<path d="M179.489 113.131L180.974 116.695L179.489 113.131Z" fill="black"/>
<path d="M188.992 122.832L180.182 102.242L188.992 122.832Z" fill="black"/>
</svg>
