<svg width="200" height="200" viewBox="0 0 200 200" fill="none" xmlns="http://www.w3.org/2000/svg">
<rect width="200" height="200" fill="white"/>
<g clip-path="url(#clip0)">
<path d="M2.26086 103.395C2.32609 102.841 2.3587 102.286 2.42393 101.732C2.71744 99.0901 3.46752 96.6442 5.13075 94.557C6.98965 92.2089 9.46818 90.8392 12.3055 90.0891C14.0665 89.6326 15.8602 89.4369 17.6865 89.4369C25.9374 89.4369 34.1883 89.4369 42.4718 89.4369C42.6023 89.4369 42.7654 89.4369 42.9284 89.4369C41.6565 95.8289 40.3847 102.188 39.0802 108.613C38.4931 107.765 37.9713 106.982 37.4822 106.2C34.808 102.156 32.1337 98.0792 29.4269 94.0352C29.0682 93.4808 28.5464 93.2199 27.8615 93.2199C25.3178 93.2199 22.7414 93.2199 20.1976 93.2199C19.4802 93.2199 19.0888 93.546 18.9584 94.2635C17.556 101.079 16.1863 107.928 14.784 114.744C14.6535 115.331 14.9471 115.69 15.5341 115.69C17.4256 115.69 19.3497 115.69 21.2412 115.69C21.8283 115.69 22.2848 115.331 22.3827 114.711C23.0023 111.613 23.6219 108.548 24.2742 105.45C24.6003 103.852 24.9264 102.254 25.2525 100.656C25.2852 100.558 25.3178 100.46 25.3504 100.297C25.7091 100.819 26.0026 101.275 26.3288 101.764C29.1986 106.102 32.0685 110.407 34.9384 114.744C35.3624 115.396 35.9494 115.69 36.6995 115.69C39.178 115.69 41.6565 115.69 44.1351 115.69C44.9178 115.69 45.3417 115.331 45.5048 114.581C46.8093 108.124 48.1464 101.667 49.4835 95.2093C49.6466 94.3613 49.8096 93.4808 50.0053 92.6329C50.1357 92.0133 50.0379 91.3936 49.7118 90.8718C48.1138 88.3607 46.5158 85.8495 44.8852 83.371C44.5264 82.8166 43.972 82.5883 43.2872 82.5883C31.7098 82.5883 20.1324 82.5883 8.52243 82.5883C8.22892 82.5883 7.93541 82.5883 7.67451 82.5231C7.25055 82.4579 7.1201 82.2296 7.31577 81.8382C7.47884 81.5121 7.70712 81.186 7.93541 80.8925C11.9793 76.0658 16.969 72.6742 23.1001 71.2066C34.1557 68.5324 43.8089 71.2066 51.8642 79.2618C56.3973 83.795 59.0389 89.339 59.8216 95.6985C60.963 104.83 58.4519 112.885 52.2229 119.701C47.755 124.593 42.1783 127.561 35.6559 128.702C34.4166 128.93 33.1447 128.996 31.9055 129.126C31.8076 129.126 31.7424 129.159 31.6446 129.191C30.9597 129.191 30.2748 129.191 29.6226 129.191C29.5248 129.159 29.4269 129.126 29.3291 129.126C28.155 128.996 26.981 128.963 25.8396 128.767C17.0669 127.202 10.3161 122.636 5.65255 115.07C3.89148 112.233 2.78266 109.135 2.42393 105.776C2.39131 105.384 2.32609 105.026 2.29348 104.634C2.26087 104.178 2.26086 103.786 2.26086 103.395Z" fill="black"/>
<path d="M198 116.016C197.837 116.081 197.641 116.179 197.478 116.212C196.956 116.244 196.402 116.212 195.88 116.212C195.424 116.212 195.358 116.146 195.358 115.69C195.358 113.603 195.358 111.483 195.358 109.396C195.358 109.004 195.326 108.58 195.261 108.189C194.934 106.754 193.336 106.2 192.065 107.08C191.151 107.7 190.793 108.613 190.76 109.656C190.727 111.613 190.727 113.57 190.727 115.527C190.727 116.212 190.695 116.212 190.043 116.212C189.586 116.212 189.097 116.212 188.64 116.212C188.151 116.212 188.086 116.146 188.086 115.657C188.086 113.016 188.086 110.374 188.086 107.7C188.086 106.819 188.086 105.939 188.086 105.091C188.086 104.634 188.184 104.569 188.608 104.569C189.064 104.569 189.488 104.569 189.945 104.569C190.303 104.569 190.434 104.699 190.467 105.058C190.499 105.352 190.532 105.645 190.564 106.004C190.76 105.808 190.923 105.645 191.086 105.515C192.26 104.471 193.597 104.08 195.13 104.406C196.695 104.765 197.706 106.004 197.935 107.83C197.935 107.928 198 108.058 198 108.156C198 110.733 198 113.374 198 116.016Z" fill="black"/>
<path d="M170.28 105.515C170.28 104.21 170.28 102.938 170.28 101.699C170.28 101.242 170.28 100.819 170.28 100.362C170.28 100.068 170.377 99.9054 170.704 99.8728C171.323 99.8076 171.91 99.7423 172.53 99.7097C172.66 99.7097 172.791 99.8728 172.889 100.003C172.954 100.068 172.889 100.199 172.889 100.297C172.889 105.384 172.889 110.504 172.889 115.592C172.889 116.179 172.856 116.212 172.269 116.212C171.91 116.212 171.551 116.212 171.16 116.212C170.769 116.244 170.573 116.081 170.54 115.69C170.508 115.396 170.443 115.135 170.41 114.777C169.856 115.494 169.203 115.951 168.388 116.244C166.366 116.962 164.148 116.146 163.072 114.124C161.8 111.744 161.768 109.265 162.942 106.819C164.311 104.047 167.703 103.395 170.084 105.384C170.149 105.417 170.182 105.417 170.28 105.515ZM170.312 110.276C170.312 109.493 170.28 108.711 169.921 107.993C169.464 107.047 168.682 106.493 167.638 106.493C166.627 106.493 165.877 107.047 165.453 107.961C164.703 109.591 164.735 111.254 165.518 112.852C165.942 113.733 166.66 114.287 167.638 114.255C168.649 114.255 169.366 113.7 169.823 112.82C170.247 112.005 170.312 111.157 170.312 110.276Z" fill="black"/>
<path d="M105.283 105.482C105.283 104.112 105.283 102.873 105.283 101.601C105.283 101.177 105.283 100.753 105.283 100.362C105.283 100.069 105.414 99.9055 105.707 99.8729C106.294 99.8402 106.914 99.7424 107.501 99.7098C107.762 99.6772 107.892 99.775 107.925 100.069C107.925 100.166 107.925 100.264 107.925 100.395C107.925 105.482 107.925 110.537 107.925 115.625C107.925 116.277 107.925 116.277 107.273 116.277C106.914 116.277 106.555 116.244 106.229 116.277C105.838 116.309 105.642 116.114 105.609 115.755C105.577 115.462 105.511 115.201 105.479 114.94C105.088 115.266 104.729 115.625 104.305 115.918C102.413 117.125 100 116.668 98.5977 114.907C97.6845 113.766 97.3258 112.429 97.228 111.026C97.1301 109.526 97.3258 108.059 98.0759 106.721C99.5434 104.178 102.674 103.558 104.99 105.352C105.088 105.319 105.153 105.384 105.283 105.482ZM105.414 110.309C105.316 109.2 105.185 108.483 104.859 107.863C103.913 106.134 101.663 106.037 100.62 107.667C99.6739 109.167 99.7391 111.776 100.75 113.211C101.565 114.353 103.033 114.646 104.077 113.733C104.468 113.374 104.827 112.885 105.022 112.363C105.218 111.711 105.283 110.994 105.414 110.309Z" fill="black"/>
<path d="M144.516 93.5135C144.027 93.9048 143.603 94.3614 143.081 94.6549C141.287 95.6659 138.972 95.0462 137.7 93.22C136.689 91.7524 136.395 90.1218 136.493 88.3933C136.558 87.0562 136.917 85.7843 137.732 84.6755C139.167 82.8166 141.776 82.2948 143.603 83.5341C143.961 83.795 144.287 84.0885 144.646 84.4146C144.679 84.1537 144.711 83.8928 144.744 83.5993C144.777 83.2732 144.94 83.1101 145.298 83.1101C145.69 83.1101 146.114 83.1101 146.505 83.1101C146.831 83.1101 146.994 83.2406 146.994 83.5667C146.994 84.219 146.994 84.9038 146.994 85.5561C146.994 88.426 146.994 91.2958 146.994 94.1657C146.994 94.7201 146.962 94.7853 146.407 94.7853C146.016 94.7853 145.592 94.7853 145.201 94.7853C144.842 94.818 144.711 94.6549 144.646 94.3288C144.614 94.0679 144.581 93.7744 144.516 93.5135ZM144.418 89.176C144.353 88.4259 144.32 87.8063 144.19 87.2193C143.961 85.98 143.146 85.1973 142.102 85.0669C141.059 84.969 140.113 85.5235 139.624 86.6649C138.972 88.2629 139.004 89.8609 139.787 91.4263C140.08 92.0133 140.537 92.4699 141.189 92.6982C142.331 93.0895 143.472 92.5351 143.929 91.2632C144.222 90.611 144.287 89.7957 144.418 89.176Z" fill="black"/>
<path d="M92.7926 84.4798C92.8579 84.1211 92.8905 83.8276 92.9231 83.534C92.9557 83.2731 93.1188 83.1101 93.4123 83.1427C93.8362 83.1427 94.2602 83.1427 94.7168 83.1427C95.0429 83.1427 95.1734 83.3058 95.1734 83.5993C95.1734 87.1866 95.1734 90.774 95.1734 94.3613C95.1734 94.6875 95.0429 94.8505 94.7168 94.8179C94.2602 94.8179 93.771 94.8179 93.3144 94.8179C93.0209 94.8179 92.8905 94.6874 92.8579 94.4266C92.8253 94.1004 92.76 93.7743 92.6948 93.4808C92.3687 93.7743 92.1078 94.1004 91.7491 94.3613C90.1184 95.6006 87.7377 95.3071 86.3028 93.7417C85.3896 92.7307 84.9331 91.5241 84.77 90.187C84.5743 88.5237 84.7048 86.8931 85.5201 85.3603C86.5311 83.4688 88.6183 82.4904 90.6402 83.0122C91.4555 83.2079 92.1404 83.7297 92.7926 84.4798ZM92.597 88.8498C92.4665 88.1324 92.4013 87.4149 92.2056 86.73C91.9121 85.7843 91.2599 85.1973 90.2815 85.0994C89.2705 85.0016 88.4878 85.4582 88.0312 86.3387C87.1181 88.0998 87.1507 89.8934 88.0965 91.6219C88.5857 92.5024 89.3684 92.959 90.412 92.8286C91.3903 92.6981 91.9773 92.0459 92.2382 91.1653C92.3687 90.4152 92.4665 89.6325 92.597 88.8498Z" fill="black"/>
<path d="M144.581 114.907C144.092 115.298 143.668 115.755 143.146 116.049C141.45 117.027 139.135 116.44 137.863 114.744C136.819 113.342 136.493 111.711 136.558 110.015C136.591 108.776 136.852 107.602 137.504 106.558C138.678 104.634 140.994 103.754 142.918 104.569C143.57 104.83 144.124 105.352 144.744 105.743C144.777 105.58 144.842 105.319 144.842 105.026C144.874 104.699 145.038 104.569 145.364 104.569C145.788 104.569 146.212 104.569 146.603 104.569C146.896 104.569 147.059 104.667 147.059 104.993C147.059 108.58 147.059 112.2 147.059 115.788C147.059 116.114 146.896 116.244 146.603 116.212C146.146 116.212 145.657 116.212 145.201 116.212C144.874 116.212 144.744 116.049 144.711 115.788C144.646 115.462 144.614 115.168 144.581 114.907ZM144.418 110.309C144.385 109.82 144.353 109.33 144.287 108.874C144.255 108.58 144.157 108.254 144.027 107.961C143.668 107.113 143.048 106.591 142.102 106.493C141.189 106.428 140.504 106.819 139.983 107.537C139.428 108.319 139.233 109.265 139.233 110.211C139.233 111.287 139.396 112.363 140.048 113.244C141.189 114.809 143.179 114.548 143.961 112.787C144.353 112.005 144.418 111.157 144.418 110.309Z" fill="black"/>
<path d="M157.495 89.926C157.691 92.0785 159.126 93.1547 161.311 92.7959C161.996 92.6981 162.681 92.4372 163.366 92.2089C163.724 92.0785 163.92 92.1111 164.051 92.4698C164.181 92.8285 164.344 93.1873 164.507 93.546C164.638 93.8069 164.572 94.0026 164.311 94.133C162.29 95.144 160.17 95.4701 158.017 94.6548C156.713 94.1656 155.8 93.1873 155.278 91.9154C154.495 89.926 154.495 87.9367 155.343 85.9799C156.256 83.7949 158.18 82.6861 160.561 82.8492C162.811 83.0122 164.442 84.3493 165.029 86.6648C165.257 87.5453 165.29 88.4585 165.355 89.3716C165.388 89.8282 165.257 89.926 164.801 89.926C162.518 89.926 160.235 89.926 157.952 89.926C157.822 89.926 157.659 89.926 157.495 89.926ZM157.495 87.9693C159.224 87.9693 160.92 87.9693 162.648 87.9693C162.616 86.1756 161.67 85.0994 160.17 85.0342C158.735 84.969 157.659 86.1756 157.495 87.9693Z" fill="black"/>
<path d="M113.11 111.32C113.273 113.146 114.317 114.19 115.98 114.255C116.861 114.287 117.741 114.124 118.589 113.766C118.752 113.7 118.915 113.635 119.078 113.537C119.306 113.44 119.502 113.505 119.6 113.733C119.796 114.157 119.959 114.581 120.122 115.038C120.252 115.364 119.991 115.494 119.763 115.592C118.295 116.342 116.73 116.603 115.099 116.44C113.534 116.277 112.262 115.559 111.349 114.222C110.729 113.342 110.436 112.331 110.338 111.255C110.208 109.722 110.371 108.222 111.121 106.852C112.164 104.96 114.088 103.982 116.371 104.243C118.556 104.504 119.861 105.776 120.546 107.798C120.872 108.776 120.937 109.754 120.937 110.765C120.937 111.124 120.774 111.287 120.415 111.255C118.132 111.255 115.817 111.255 113.534 111.255C113.436 111.32 113.273 111.32 113.11 111.32ZM113.143 109.363C114.871 109.363 116.567 109.363 118.295 109.363C118.263 107.635 117.317 106.526 115.915 106.461C114.186 106.363 113.306 107.765 113.143 109.363Z" fill="black"/>
<path d="M177.976 111.32C178.106 113.244 179.378 114.353 181.237 114.255C182.15 114.19 183.031 113.994 183.879 113.603C184.27 113.44 184.401 113.472 184.531 113.864C184.694 114.222 184.825 114.581 184.988 114.94C185.085 115.201 185.053 115.396 184.792 115.527C182.77 116.538 180.65 116.864 178.498 116.049C176.998 115.494 176.052 114.32 175.595 112.82C175.041 110.994 175.073 109.2 175.791 107.439C176.671 105.254 178.53 104.145 181.009 104.243C183.129 104.341 184.759 105.645 185.477 107.798C185.803 108.809 185.868 109.852 185.868 110.896C185.868 111.255 185.64 111.32 185.346 111.32C183.064 111.32 180.748 111.32 178.465 111.32C178.269 111.32 178.139 111.32 177.976 111.32ZM183.129 109.363C183.129 107.667 182.15 106.526 180.715 106.461C179.052 106.363 178.139 107.798 178.009 109.363C179.704 109.363 181.4 109.363 183.129 109.363Z" fill="black"/>
<path d="M87.5094 111.32C87.5746 113.146 88.9117 114.353 90.6402 114.255C91.6185 114.19 92.5317 113.994 93.3796 113.603C93.7057 113.44 93.9014 113.537 94.0319 113.863C94.1623 114.255 94.3254 114.614 94.4884 114.972C94.5863 115.201 94.5537 115.396 94.2928 115.527C92.2382 116.538 90.1184 116.896 87.9007 116.049C86.5963 115.527 85.6831 114.548 85.1939 113.276C84.4112 111.189 84.4438 109.102 85.4222 107.08C87.1181 103.558 91.8142 103.591 93.7057 105.71C94.6841 106.819 95.1407 108.124 95.2711 109.559C95.3037 109.983 95.3037 110.407 95.3037 110.798C95.3037 111.254 95.2059 111.352 94.7493 111.352C92.4665 111.352 90.1836 111.352 87.9007 111.352C87.8029 111.32 87.6725 111.32 87.5094 111.32ZM92.6295 109.363C92.6295 107.471 91.5207 106.526 90.2815 106.46C88.7813 106.395 87.6725 107.537 87.542 109.363C89.2378 109.363 90.9337 109.363 92.6295 109.363Z" fill="black"/>
<path d="M122.209 88.7846C122.176 90.6435 121.785 92.2089 120.578 93.4482C119.046 95.0462 117.121 95.4375 115.034 94.8831C112.98 94.3613 111.806 92.8938 111.284 90.8718C110.925 89.5347 110.958 88.165 111.349 86.8279C112.099 84.1863 114.317 82.6535 117.056 82.8492C119.73 83.0449 121.655 84.9038 122.078 87.578C122.144 88.0672 122.176 88.5237 122.209 88.7846ZM113.762 88.9803C113.762 89.8608 113.925 90.7088 114.349 91.4914C114.839 92.372 115.556 92.8612 116.6 92.8612C117.643 92.8612 118.361 92.372 118.85 91.4914C119.274 90.774 119.437 89.9913 119.437 89.176C119.47 88.0998 119.306 87.0562 118.654 86.1756C117.578 84.6755 115.458 84.7407 114.447 86.2735C113.958 87.0888 113.795 88.0019 113.762 88.9803Z" fill="black"/>
<path d="M75.0189 106.004C75.6712 105.286 76.3561 104.797 77.1714 104.504C79.7151 103.591 82.0958 105.058 82.3893 107.732C82.4546 108.156 82.4546 108.613 82.4546 109.07C82.4546 111.255 82.4546 113.44 82.4546 115.657C82.4546 116.179 82.3893 116.244 81.8675 116.244C81.3457 116.244 80.8566 116.244 80.3348 116.244C79.8782 116.244 79.813 116.179 79.813 115.69C79.813 113.537 79.813 111.352 79.813 109.2C79.813 108.939 79.813 108.646 79.7477 108.385C79.4542 106.884 77.9867 106.232 76.6496 107.015C75.5734 107.667 75.2146 108.711 75.182 109.885C75.1494 111.809 75.182 113.733 75.182 115.625C75.182 116.212 75.1168 116.244 74.5624 116.244C74.1058 116.244 73.6492 116.244 73.1927 116.244C72.573 116.244 72.5404 116.212 72.5404 115.592C72.5404 113.146 72.5404 110.7 72.5404 108.222C72.5404 107.178 72.5404 106.167 72.5404 105.123C72.5404 104.602 72.6056 104.536 73.1274 104.536C73.5188 104.536 73.9427 104.569 74.3341 104.536C74.758 104.504 74.8885 104.699 74.9211 105.091C74.9537 105.352 74.9863 105.613 75.0189 106.004Z" fill="black"/>
<path d="M152.473 105.841C153.125 105.417 153.712 104.928 154.365 104.602C156.974 103.428 159.648 105.026 159.844 107.863C159.941 109.167 159.909 110.504 159.909 111.809C159.909 113.081 159.909 114.353 159.909 115.657C159.909 116.114 159.844 116.212 159.354 116.212C158.833 116.212 158.343 116.212 157.822 116.212C157.3 116.212 157.267 116.146 157.267 115.657C157.267 113.603 157.267 111.548 157.267 109.461C157.267 109.135 157.267 108.776 157.202 108.45C157.072 107.667 156.745 107.015 155.93 106.787C155.082 106.526 154.267 106.689 153.615 107.308C152.865 108.026 152.636 108.906 152.636 109.885C152.636 111.776 152.636 113.635 152.636 115.527C152.636 116.146 152.604 116.179 151.951 116.179C151.495 116.179 151.038 116.179 150.582 116.179C150.027 116.179 149.962 116.114 149.962 115.592C149.962 113.016 149.962 110.439 149.962 107.83C149.962 106.917 149.962 106.004 149.962 105.091C149.962 104.602 150.027 104.504 150.516 104.504C150.973 104.504 151.43 104.504 151.886 104.504C152.147 104.504 152.31 104.602 152.31 104.895C152.408 105.254 152.441 105.58 152.473 105.841Z" fill="black"/>
<path d="M75.0189 84.5451C75.3777 84.2516 75.6712 83.9581 75.9973 83.6972C77.0083 82.9471 78.1497 82.6862 79.389 82.9145C81.0848 83.2406 82.161 84.4799 82.3567 86.2736C82.4219 86.9258 82.4219 87.6107 82.4546 88.2629C82.4546 90.2197 82.4546 92.209 82.4546 94.1657C82.4546 94.7202 82.3893 94.7528 81.8349 94.7528C81.3783 94.7528 80.8892 94.7528 80.4326 94.7528C79.8456 94.7528 79.813 94.7202 79.813 94.1005C79.813 91.9807 79.813 89.8609 79.813 87.7085C79.813 87.4476 79.813 87.1867 79.7477 86.9258C79.6173 86.1757 79.2912 85.5561 78.5085 85.3278C77.6605 85.0669 76.9105 85.23 76.2582 85.7844C75.4755 86.4692 75.2146 87.3824 75.2146 88.3934C75.2146 90.2849 75.2146 92.209 75.2146 94.1005C75.2146 94.6875 75.182 94.7201 74.595 94.7201C74.0732 94.7201 73.584 94.7201 73.0622 94.7201C72.6709 94.7201 72.5404 94.5571 72.5404 94.1984C72.5404 93.1222 72.5404 92.0459 72.5404 90.9371C72.5404 88.5238 72.5404 86.0779 72.5404 83.6646C72.5404 83.1102 72.6056 83.0123 73.16 83.0123C73.5514 83.0123 73.9753 83.0123 74.3667 83.0123C74.7254 82.9797 74.8885 83.1754 74.9211 83.5015C74.9537 83.9255 74.9863 84.219 75.0189 84.5451Z" fill="black"/>
<path d="M126.873 84.4798C127.394 84.0885 127.884 83.6645 128.438 83.371C131.177 81.9361 134.112 83.5015 134.276 86.5996C134.406 89.176 134.341 91.785 134.341 94.394C134.341 94.7201 134.178 94.8505 133.852 94.8505C133.297 94.8179 132.743 94.8179 132.221 94.8505C131.862 94.8505 131.699 94.7201 131.699 94.3614C131.699 92.2089 131.699 90.0239 131.699 87.8715C131.699 87.6432 131.667 87.4149 131.634 87.1866C131.536 86.404 131.21 85.7517 130.395 85.4908C129.547 85.1973 128.764 85.3604 128.112 85.9474C127.297 86.6648 127.068 87.6106 127.036 88.6216C127.036 90.5131 127.036 92.372 127.036 94.2635C127.036 94.8505 127.003 94.9158 126.383 94.9158C125.894 94.9158 125.405 94.9158 124.948 94.9158C124.459 94.9158 124.427 94.8505 124.427 94.3614C124.427 91.4262 124.427 88.4911 124.427 85.556C124.427 84.9364 124.427 84.3168 124.427 83.7297C124.427 83.371 124.557 83.2079 124.916 83.2406C125.372 83.2406 125.862 83.2406 126.318 83.2406C126.612 83.2406 126.775 83.371 126.807 83.6971C126.807 83.8928 126.84 84.1863 126.873 84.4798Z" fill="black"/>
<path d="M100.783 83.1427C101.5 83.1427 102.185 83.1427 102.87 83.1427C103.489 83.1427 103.522 83.1753 103.522 83.8275C103.522 84.1537 103.522 84.4472 103.522 84.7733C103.555 85.132 103.392 85.2951 103 85.2951C102.381 85.2951 101.761 85.2951 101.174 85.2951C101.044 85.2951 100.913 85.2951 100.75 85.2951C100.75 85.4581 100.717 85.5886 100.717 85.7191C100.717 87.6758 100.717 89.6325 100.717 91.5893C100.717 91.6545 100.717 91.7197 100.717 91.7849C100.783 92.7307 101.174 93.0568 102.12 92.9264C102.413 92.8938 102.707 92.7959 103 92.7307C103.294 92.6655 103.457 92.7633 103.489 93.0568C103.555 93.4808 103.587 93.9047 103.685 94.3287C103.718 94.557 103.62 94.6874 103.424 94.7853C102.283 95.2092 101.109 95.3397 99.9347 94.9809C98.8259 94.6222 98.1736 93.6765 98.1084 92.3393C98.0758 91.361 98.0758 90.4152 98.0758 89.4369C98.0758 86.5017 98.0758 83.5993 98.0758 80.6641C98.0758 79.9793 98.1084 79.9793 98.7607 79.9141C99.2172 79.8814 99.6412 79.8162 100.098 79.7836C100.652 79.7184 100.717 79.8162 100.717 80.338C100.717 81.1859 100.717 82.0339 100.717 82.8818C100.75 82.9144 100.75 82.9796 100.783 83.1427Z" fill="black"/>
<path d="M134.341 107.961C134.341 110.504 134.341 113.016 134.341 115.559C134.341 116.179 134.275 116.244 133.688 116.244C133.199 116.244 132.71 116.244 132.188 116.244C131.862 116.244 131.699 116.081 131.699 115.755C131.699 110.635 131.699 105.515 131.699 100.395C131.699 100.069 131.83 99.9381 132.156 99.9054C132.743 99.8728 133.33 99.8076 133.917 99.7424C134.178 99.7098 134.308 99.8402 134.341 100.069C134.341 100.199 134.341 100.329 134.341 100.46C134.341 102.938 134.341 105.45 134.341 107.961Z" fill="black"/>
<path d="M152.441 86.567C152.441 89.1108 152.441 91.6545 152.441 94.1983C152.441 94.7527 152.408 94.8179 151.854 94.8179C151.332 94.8179 150.777 94.8179 150.256 94.8179C149.962 94.8179 149.832 94.6875 149.799 94.394C149.799 94.2961 149.799 94.1983 149.799 94.1331C149.799 89.1434 149.799 84.1863 149.799 79.1966C149.799 78.577 149.864 78.5118 150.484 78.4465C150.94 78.4139 151.364 78.3813 151.821 78.3161C152.375 78.2509 152.473 78.3161 152.473 78.8705C152.441 81.4469 152.441 84.0232 152.441 86.567Z" fill="black"/>
<path d="M125.829 106.004C125.927 105.873 125.992 105.71 126.122 105.613C126.938 104.83 127.916 104.341 129.058 104.275C129.579 104.243 129.645 104.308 129.645 104.797C129.645 105.352 129.645 105.906 129.645 106.428C129.645 106.917 129.579 107.015 129.025 106.95C128.047 106.819 127.231 107.145 126.612 107.895C126.057 108.58 125.927 109.363 125.927 110.211C125.927 112.005 125.927 113.798 125.927 115.592C125.927 116.146 125.894 116.179 125.34 116.179C124.818 116.179 124.296 116.179 123.774 116.179C123.448 116.179 123.318 116.049 123.318 115.722C123.318 112.135 123.318 108.58 123.318 104.993C123.318 104.634 123.448 104.504 123.807 104.504C124.264 104.504 124.753 104.504 125.209 104.504C125.535 104.504 125.666 104.634 125.666 104.96C125.698 105.254 125.731 105.58 125.764 105.873C125.731 105.939 125.796 105.971 125.829 106.004Z" fill="black"/>
<path d="M108.773 89.0129C108.773 90.774 108.773 92.5351 108.773 94.2961C108.773 94.7853 108.74 94.8179 108.218 94.8179C107.697 94.8179 107.142 94.8179 106.62 94.8179C106.262 94.8179 106.131 94.6875 106.131 94.3288C106.131 90.8392 106.131 87.3171 106.131 83.8276C106.131 83.5341 106.262 83.371 106.555 83.3384C107.142 83.2732 107.762 83.208 108.349 83.1753C108.74 83.1427 108.773 83.371 108.773 83.6645C108.773 85.4256 108.773 87.2193 108.773 89.0129Z" fill="black"/>
<path d="M109.001 80.0771C109.001 80.9577 108.316 81.6425 107.436 81.6425C106.588 81.6425 105.903 80.9577 105.903 80.1098C105.903 79.2292 106.555 78.577 107.403 78.5444C108.316 78.5444 109.001 79.2292 109.001 80.0771Z" fill="black"/>
</g>
<defs>
<clipPath id="clip0">
<rect width="196" height="59.3544" fill="white" transform="translate(2 70)"/>
</clipPath>
</defs>
</svg>
