<svg width="200" height="200" viewBox="0 0 200 200" fill="none" xmlns="http://www.w3.org/2000/svg">
<rect width="200" height="200" fill="white"/>
<g clip-path="url(#clip0)">
<path d="M89.514 104.964C89.514 103.004 88.73 101.828 86.476 101.828H84.516L84.418 101.926V108.1L84.516 108.198H86.476C88.73 108.1 89.514 106.924 89.514 104.964ZM88.24 104.964C88.24 106.434 87.75 107.022 86.476 107.022H85.692L85.594 106.924V102.906L85.692 102.808H86.476C87.848 102.808 88.24 103.494 88.24 104.964ZM95.786 108.002V107.12L95.688 107.022H92.65L92.552 106.924V105.454L92.65 105.356H95.492L95.59 105.258V104.376L95.492 104.278H92.65L92.552 104.18V102.906L92.65 102.808H95.688L95.786 102.71V101.828L95.688 101.73H91.474L91.376 101.828V108.002L91.474 108.1L95.786 108.002ZM105.88 106.434C105.88 105.65 105.488 105.062 104.802 104.866V104.768C105.39 104.572 105.684 104.082 105.684 103.396C105.684 102.22 104.802 101.73 103.92 101.73H100.98L100.882 101.828V108.002L100.98 108.1H104.018C104.9 108.1 105.88 107.61 105.88 106.434ZM104.41 103.592C104.41 103.984 104.214 104.278 103.724 104.278H102.254L102.156 104.18V102.906L102.254 102.808H103.724C104.214 102.808 104.41 103.102 104.41 103.592ZM104.606 106.238C104.606 106.826 104.312 107.022 103.724 107.022H102.254L102.156 106.924V105.454L102.254 105.356H103.724C104.312 105.356 104.606 105.65 104.606 106.238ZM112.544 108.002V107.12L110.486 101.828L110.388 101.73H109.212L109.114 101.828L107.056 107.12V108.002L107.154 108.1H107.938L108.036 108.002L108.526 106.826L108.722 106.728H110.976L111.172 106.826L111.662 108.002L111.76 108.1L112.544 108.002ZM110.584 105.552L108.918 105.65L108.82 105.552L109.604 103.396H109.702L110.584 105.552ZM119.404 103.69C119.404 102.416 118.522 101.828 117.248 101.828H114.308L114.21 101.926V108.1L114.308 108.198H115.386L115.484 108.1V105.748L115.582 105.65H116.464L116.66 105.748L118.522 108.1H118.62H119.208L119.306 108.002V107.12L118.13 105.552V105.454C118.816 105.258 119.404 104.67 119.404 103.69ZM118.13 103.69C118.13 104.278 117.738 104.474 117.248 104.474H115.484L115.386 104.376V102.906L115.484 102.808H117.248C117.738 102.808 118.13 103.004 118.13 103.69ZM123.912 107.12C122.638 107.12 122.05 106.238 122.05 104.964C122.05 103.69 122.638 102.808 123.912 102.808C124.598 102.808 125.088 103.102 125.284 103.592L125.382 103.69H126.46L126.558 103.592C126.362 102.416 125.382 101.73 123.912 101.73C121.952 101.73 120.874 103.102 120.874 104.964C120.874 106.826 121.952 108.198 123.912 108.198C125.382 108.198 126.362 107.512 126.558 106.238L126.46 106.14H125.382L125.284 106.238C125.088 106.826 124.696 107.12 123.912 107.12ZM132.83 108.002V107.12L132.732 107.022H129.694L129.596 106.924V105.454L129.694 105.356H132.536L132.634 105.258V104.376L132.536 104.278H129.694L129.596 104.18V102.906L129.694 102.808H132.732L132.83 102.71V101.828L132.732 101.73H128.42L128.322 101.828V108.002L128.42 108.1L132.83 108.002ZM139.102 108.002V107.12L139.004 107.022H136.162L136.064 106.924V101.828L135.966 101.73H134.888L134.79 101.828V108.002L134.888 108.1L139.102 108.002ZM144.982 104.964C144.982 106.238 144.394 107.12 143.12 107.12C141.944 107.12 141.356 106.238 141.356 104.964C141.356 103.69 141.944 102.808 143.12 102.808C144.296 102.808 144.982 103.69 144.982 104.964ZM146.256 104.964C146.256 103.102 145.08 101.73 143.12 101.73C141.258 101.73 140.082 103.102 140.082 104.964C140.082 106.826 141.258 108.198 143.12 108.198C145.08 108.198 146.256 106.826 146.256 104.964ZM148.02 101.828V108.002L148.118 108.1H149.196L149.294 108.002V103.788H149.392L151.842 108.002L152.038 108.1H153.312L153.41 108.002V101.828L153.312 101.73H152.234L152.136 101.828V106.042H152.038L149.588 101.828L149.392 101.73H148.118L148.02 101.828ZM160.564 108.002V107.12L158.506 101.828L158.408 101.73H157.232L157.134 101.828L155.076 107.12V108.002L155.174 108.1H155.958L156.056 108.002L156.546 106.826L156.742 106.728H158.996L159.192 106.826L159.682 108.002L159.78 108.1L160.564 108.002ZM158.604 105.552L156.938 105.65L156.84 105.552L157.624 103.396H157.722L158.604 105.552Z" fill="black"/>
<path d="M89.514 94.38C89.514 92.42 88.73 91.244 86.476 91.244H84.516L84.418 91.342V97.516L84.516 97.614H86.476C88.73 97.516 89.514 96.34 89.514 94.38ZM88.24 94.38C88.24 95.85 87.75 96.438 86.476 96.438H85.692L85.594 96.34V92.322L85.692 92.224H86.476C87.848 92.224 88.24 92.91 88.24 94.38ZM92.65 92.518V91.244L92.552 91.146H91.278L91.18 91.244V92.42L91.278 92.518H91.572L91.67 92.616V92.714L91.082 93.596V93.792H91.67L91.866 93.694L92.552 92.812L92.65 92.518ZM99.02 97.418V96.536L96.962 91.244L96.864 91.146H95.688L95.59 91.244L93.532 96.536V97.418L93.63 97.516H94.414L94.512 97.418L95.002 96.242L95.198 96.144H97.452L97.648 96.242L98.138 97.418L98.236 97.516L99.02 97.418ZM97.158 94.968L95.492 95.066L95.394 94.968L96.178 92.812H96.276L97.158 94.968ZM105.978 93.106C105.978 91.832 105.096 91.244 103.822 91.244H100.784L100.686 91.342V97.516L100.784 97.614H101.862L101.96 97.516V95.164L102.058 95.066H102.94L103.136 95.164L104.998 97.516L105.194 97.614H105.782L105.88 97.516V96.634L104.704 95.066V94.968C105.292 94.674 105.978 94.086 105.978 93.106ZM104.704 93.106C104.704 93.694 104.312 93.89 103.822 93.89H102.058L101.96 93.792V92.322L102.058 92.224H103.822C104.312 92.224 104.704 92.42 104.704 93.106ZM112.348 92.126V91.244L112.25 91.146H107.154L107.056 91.244V92.126L107.154 92.224H109.016L109.114 92.322V97.418L109.212 97.516H110.29L110.388 97.418V92.322L110.486 92.224L112.348 92.126ZM119.6 96.536C118.326 96.536 117.836 95.654 117.836 94.38C117.836 93.106 118.424 92.224 119.6 92.224C120.286 92.224 120.776 92.518 120.972 93.008L121.07 93.106H122.148L122.246 93.008C122.05 91.832 121.07 91.146 119.6 91.146C117.64 91.146 116.562 92.518 116.562 94.38C116.562 96.242 117.64 97.614 119.6 97.614C121.07 97.614 122.05 96.928 122.246 95.654L122.148 95.556H121.07L120.972 95.654C120.776 96.242 120.286 96.536 119.6 96.536ZM128.616 94.38C128.616 95.654 128.028 96.536 126.754 96.536C125.578 96.536 124.892 95.654 124.892 94.38C124.892 93.106 125.48 92.224 126.754 92.224C127.93 92.126 128.616 93.106 128.616 94.38ZM129.792 94.38C129.792 92.518 128.616 91.146 126.656 91.146C124.794 91.146 123.618 92.518 123.618 94.38C123.618 96.242 124.794 97.614 126.656 97.614C128.714 97.614 129.792 96.242 129.792 94.38ZM131.654 91.244V97.418L131.752 97.516H132.83L132.928 97.418V93.204H133.026L135.476 97.418L135.672 97.516H136.946L137.044 97.418V91.244L136.946 91.146H135.868L135.77 91.244V95.458H135.672L133.222 91.244L133.026 91.146H131.752L131.654 91.244ZM143.904 92.126V91.244L143.806 91.146H138.71L138.612 91.244V92.126L138.71 92.224H140.572L140.67 92.322V97.418L140.768 97.516H141.846L141.944 97.418V92.322L142.042 92.224L143.904 92.126ZM149.882 97.418V96.536L149.784 96.438H146.844L146.746 96.34V94.87L146.844 94.772H149.686L149.784 94.674V93.792L149.686 93.694H146.844L146.746 93.596V92.42L146.844 92.322H149.882L149.98 92.224V91.342L149.882 91.244H145.668L145.57 91.342V97.516L145.668 97.614L149.882 97.418ZM158.702 97.418V91.244L158.604 91.146H157.232L157.134 91.244L155.272 95.654H155.174L153.312 91.244L153.214 91.146H151.94L151.842 91.244V97.418L151.94 97.516H153.018L153.116 97.418V93.89H153.214L154.684 97.418L154.782 97.516H155.762L155.86 97.418L157.33 93.89H157.428V97.418L157.526 97.516H158.604L158.702 97.418ZM166.15 93.106C166.15 91.832 165.268 91.244 163.994 91.244H160.956L160.858 91.342V97.516L160.956 97.614H162.034L162.132 97.516V95.164L162.23 95.066H163.994C165.268 94.968 166.15 94.38 166.15 93.106ZM164.876 93.106C164.876 93.694 164.484 93.89 163.994 93.89H162.23L162.132 93.792V92.322L162.23 92.224H163.994C164.484 92.224 164.876 92.42 164.876 93.106ZM172.324 94.38C172.324 95.654 171.736 96.536 170.56 96.536C169.384 96.536 168.698 95.654 168.698 94.38C168.698 93.106 169.286 92.224 170.56 92.224C171.638 92.126 172.324 93.106 172.324 94.38ZM173.598 94.38C173.598 92.518 172.422 91.146 170.56 91.146C168.698 91.146 167.424 92.518 167.424 94.38C167.424 96.242 168.6 97.614 170.56 97.614C172.422 97.614 173.598 96.242 173.598 94.38ZM180.654 93.106C180.654 91.832 179.772 91.244 178.498 91.244H175.46L175.362 91.342V97.516L175.46 97.614H176.538L176.636 97.516V95.164L176.734 95.066H177.616L177.812 95.164L179.674 97.516L179.87 97.614H180.458L180.556 97.516V96.634L179.38 95.066V94.968C179.968 94.674 180.654 94.086 180.654 93.106ZM179.38 93.106C179.38 93.694 178.988 93.89 178.498 93.89H176.734L176.636 93.792V92.322L176.734 92.224H178.498C178.988 92.224 179.38 92.42 179.38 93.106ZM187.416 97.418V96.536L185.358 91.244L185.26 91.146H184.084L183.986 91.244L181.928 96.536V97.418L182.026 97.516H182.81L182.908 97.418L183.398 96.242L183.594 96.144H185.848L186.044 96.242L186.534 97.418L186.632 97.516L187.416 97.418ZM185.554 94.968L183.888 95.066L183.79 94.968L184.574 92.812H184.672L185.554 94.968ZM189.082 91.244V97.418L189.18 97.516H190.258L190.356 97.418V93.204H190.454L192.904 97.418L193.1 97.516H194.374L194.472 97.418V91.244L194.374 91.146H193.296L193.198 91.244V95.458H193.1L190.65 91.244L190.454 91.146L189.082 91.244ZM197.804 97.418V91.244L197.706 91.146H196.628L196.53 91.244V97.418L196.628 97.516L197.804 97.418Z" fill="black"/>
<path d="M91.1799 86.834V80.66L91.0819 80.562H89.7099L89.6119 80.66L87.7499 85.07H87.6519L85.8879 80.66L85.7899 80.562H84.4179L84.3199 80.66V86.834L84.4179 86.932H85.4959L85.5939 86.834V83.306H85.6919L87.2599 86.834L87.3579 86.932H88.3379L88.4359 86.834L89.9059 83.306H90.004V86.834L90.1019 86.932L91.1799 86.834ZM98.4319 80.66L97.2559 80.562L97.1579 80.66V84.482C97.1579 85.364 96.766 85.952 95.884 85.952C95.002 85.952 94.6099 85.364 94.6099 84.482V80.66L94.5119 80.562H93.434L93.3359 80.66V84.482C93.3359 86.148 94.218 87.03 95.884 87.03C97.55 87.03 98.4319 86.148 98.4319 84.482V80.66V80.66ZM105.488 85.07C105.488 83.796 104.508 83.306 103.234 83.11C101.96 82.914 101.568 82.718 101.568 82.228C101.568 81.836 101.862 81.64 102.646 81.64C103.626 81.64 103.92 81.934 103.92 82.424L104.018 82.522H105.096L105.194 82.424C105.194 81.346 104.508 80.562 102.744 80.562C100.98 80.562 100.294 81.346 100.294 82.326C100.294 83.6 101.274 84.09 102.548 84.188C103.822 84.384 104.214 84.58 104.214 85.168C104.214 85.756 103.724 85.952 102.94 85.952C101.862 85.952 101.47 85.56 101.47 84.972L101.372 84.874H100.294L100.196 84.972C100.196 86.148 100.98 87.03 102.842 87.03C104.802 86.932 105.488 86.05 105.488 85.07ZM111.662 86.834V85.952L111.564 85.854H108.526L108.428 85.756V84.286L108.526 84.188H111.368L111.466 84.09V83.208L111.368 83.11H108.526L108.428 83.012V81.64L108.526 81.542H111.564L111.662 81.444V80.562L111.564 80.464H107.35L107.252 80.562V86.834L107.35 86.932L111.662 86.834ZM118.816 80.66L117.64 80.562L117.542 80.66V84.482C117.542 85.364 117.15 85.952 116.268 85.952C115.386 85.952 114.994 85.364 114.994 84.482V80.66L114.896 80.562H113.818L113.72 80.66V84.482C113.72 86.148 114.602 87.03 116.268 87.03C117.934 87.03 118.816 86.148 118.816 84.482V80.66V80.66Z" fill="black"/>
<path d="M64.622 112.412H68.836L69.13 112.118L66.876 106.14H66.582L64.328 112.118L64.622 112.412ZM69.816 115.352H63.642L63.152 115.646L61.878 118.88L61.584 119.076H59.33L59.036 118.88V116.43L64.72 102.122L65.014 101.926H68.248L68.542 102.122L74.03 115.842V64.882L73.736 64.588H2.39204L2.19604 64.686V134.756L2.39204 135.05H73.736L74.03 134.756V119.076H71.776L71.482 118.88L70.208 115.646L69.816 115.352ZM43.65 102.024L43.944 101.828H51.882C54.332 101.828 56.782 103.102 56.782 106.238C56.782 108.002 55.998 109.472 54.332 109.962V110.158C56.292 110.648 57.272 112.118 57.272 114.372C57.272 117.802 54.822 119.076 52.372 119.076H43.944L43.65 118.88V102.024ZM31.106 97.614L30.812 97.908H27.872L27.676 97.614V88.01H27.382L23.462 97.614L23.168 97.908H20.424L20.13 97.614L16.21 88.01H15.916V97.614L15.72 97.81H12.78L12.486 97.516V80.758L12.78 80.562H16.504L16.798 80.758L21.698 92.812H21.992L26.99 80.758L27.186 80.562H30.91L31.204 80.758L31.106 97.614ZM48.844 97.614L48.55 97.908H46.296L46.1 97.614L44.826 94.38L44.336 94.184H38.162L37.672 94.38L36.398 97.614L36.202 97.908H33.948L33.654 97.614V95.164L39.338 80.856L39.632 80.66H42.866L43.16 80.856L48.844 95.164V97.614V97.614ZM58.742 98.104C53.254 98.104 50.314 94.38 50.314 89.186C50.314 83.992 53.254 80.268 58.742 80.268C62.662 80.268 65.406 82.228 65.896 85.462L65.7 85.756H62.76L62.564 85.462C62.074 83.992 60.8 83.208 58.84 83.208C55.41 83.208 53.94 85.658 53.94 89.186C53.94 92.714 55.41 95.164 58.84 95.164C60.8 95.164 62.074 94.38 62.564 92.714L62.76 92.42H65.7L65.896 92.714C65.406 96.144 62.662 98.104 58.742 98.104ZM43.356 91.146L43.65 90.95L41.396 84.972H41.2L38.946 90.95L39.24 91.146H43.356ZM47.374 104.768L47.08 104.964V108.394L47.374 108.688H51.392C52.862 108.688 53.352 107.708 53.352 106.728C53.352 105.454 52.862 104.768 51.392 104.768H47.374ZM47.374 111.628L47.08 111.922V115.842L47.374 116.038H51.392C53.156 116.038 53.842 115.254 53.842 113.784C53.842 112.314 53.058 111.53 51.392 111.53H47.374V111.628Z" fill="black"/>
</g>
<defs>
<clipPath id="clip0">
<rect width="196" height="71.54" fill="white" transform="translate(2 64)"/>
</clipPath>
</defs>
</svg>
