<svg width="200" height="200" viewBox="0 0 200 200" fill="none" xmlns="http://www.w3.org/2000/svg">
<rect width="200" height="200" fill="white"/>
<g clip-path="url(#clip0)">
<path fill-rule="evenodd" clip-rule="evenodd" d="M33.7211 102.954H165.837V68.8147H33.7211V102.954ZM165.837 106.675H33.7211V131.164H165.837V106.675ZM30.0234 65.0938H169.558V134.861H30.0234V65.0938V65.0938Z" fill="black"/>
<path fill-rule="evenodd" clip-rule="evenodd" d="M114.163 122.163C114.163 119.395 112.814 118.186 109.953 117.279C108.744 116.884 107.256 116.535 107.256 115.581C107.256 114.791 107.744 114.442 108.465 114.442H108.884C109.698 114.442 110.326 114.884 110.767 115.721L111.256 115.791L113.791 114.093L113.837 113.558C113.512 113.023 113.116 112.512 112.674 112.14C111.721 111.302 110.442 110.837 108.86 110.837H108.488C105.14 110.837 103.14 112.651 103.14 115.721C103.14 118.465 104.605 119.535 107.209 120.442C108.837 121 110.07 121.163 110.07 122.256C110.07 122.977 109.581 123.395 108.837 123.395H108.07C107.256 123.395 106.628 122.953 106.186 122.116L105.698 122.047L103.163 123.744L103.116 124.256C103.372 124.721 103.698 125.14 104.093 125.512C105.07 126.465 106.442 127.023 108.116 127.023H108.86C112.256 127.023 114.163 125.209 114.163 122.163ZM146.395 126.465V111.372L146.116 111.116H142.535L142.326 111.372V126.465L142.535 126.721H146.116L146.395 126.465ZM140.628 114.535V111.372L140.395 111.116H130.233L130.023 111.372V126.465L130.233 126.721H133.837L134.093 126.465V120.907L134.372 120.628H139.302L139.535 120.419V117.233L139.302 117H134.372L134.093 116.721V115.023L134.372 114.744H140.372L140.628 114.535ZM155.698 121.372L155.488 121.581H154.07L153.837 121.372L154.279 119.442C154.628 117.977 154.791 116.395 154.791 116.395H154.86C154.86 116.395 155.023 117.977 155.326 119.442L155.698 121.372ZM161.419 126.395L156.326 111.302L156.116 111.14H153.465L153.209 111.302L148.093 126.395L148.326 126.721H152.093L152.302 126.558L152.953 124.698L153.256 124.535H156.186L156.512 124.698L157.14 126.558L157.349 126.721H161.186L161.419 126.395ZM83.9302 126.419V111.372L83.6977 111.116H80.2558L80.0465 111.372V115.372C80.0465 117.558 80.1628 119.488 80.1628 119.488H80.093C80.093 119.488 79.907 118.953 79.5581 118.302L75.9535 111.349L75.6279 111.116H72.5349L72.3256 111.372V126.419L72.5349 126.651H76.0465L76.2791 126.419V122.488C76.2791 120.465 76.1395 118.512 76.1395 118.512H76.2326C76.2326 118.512 76.4186 119.047 76.7442 119.628L80.3721 126.419L80.6512 126.628H83.6977L83.9302 126.419ZM69.9535 126.419V111.372L69.6744 111.116H66.093L65.8837 111.372V126.419L66.093 126.651H69.6744L69.9535 126.419ZM124.047 122.395C124.047 122.977 123.605 123.395 122.86 123.395H121.163C120.302 123.395 119.86 123 119.86 122.395V115.465C119.86 114.953 120.442 114.419 121.163 114.419H122.86C123.558 114.419 124.047 114.86 124.047 115.465V122.395ZM128.093 122.395V115.465C128.093 112.651 125.977 110.837 122.86 110.837H121.163C118.047 110.837 115.884 112.674 115.884 115.465V122.395C115.884 125.186 118 127.023 121.163 127.023H122.86C125.977 127.023 128.093 125.186 128.093 122.395ZM93.1163 121.349L92.907 121.558H91.4884L91.2558 121.349L91.6977 119.419C92.0465 117.977 92.2093 116.395 92.2093 116.395H92.2791C92.2791 116.395 92.4419 117.977 92.7442 119.419L93.1163 121.349ZM98.8372 126.349L93.7442 111.302L93.5349 111.14H90.8837L90.6512 111.302L85.5581 126.349L85.7907 126.674H89.5349L89.7442 126.512L90.3953 124.651L90.6977 124.488H93.6279L93.9535 124.651L94.5814 126.512L94.7907 126.674H98.6046L98.8372 126.349ZM63.5349 126.419V123.256L63.3023 123.047H57.3023L57 122.767V120.86L57.3023 120.581H62.2326L62.4884 120.372V117.186L62.2326 116.953H57.3023L57 116.674V114.977L57.3023 114.698H63.3023L63.5349 114.488V111.326L63.3023 111.07H53.1628L52.9535 111.326V126.372L53.1628 126.605H63.3023L63.5349 126.419ZM50.9302 126.349L48.5349 120.163L48.6512 119.628C49.7209 118.93 50.4186 117.744 50.4186 116.233V116C50.4186 112.977 48.3721 111.116 45.186 111.116H38.3953L38.186 111.372V126.419L38.3953 126.651H42L42.2325 126.419V120.86L42.5349 120.581H44.2093L44.4186 120.744L46.6512 126.465L46.8605 126.628H50.6977L50.9302 126.349ZM46.4186 116.256C46.4186 116.93 45.9535 117.233 45.2093 117.233H42.5349L42.2325 116.953V115L42.5349 114.721H45.186C46 114.721 46.3953 115.093 46.3953 115.767V116.256H46.4186Z" fill="black"/>
<path fill-rule="evenodd" clip-rule="evenodd" d="M114.861 84.3721H113.674C111.558 84.3721 110.209 83.1395 110.209 81.3023V76.3488C110.209 74.5116 111.581 73.2791 113.674 73.2791H114.861C116.93 73.2791 118.279 74.5116 118.279 76.3488V77.0698H115.93V76.3488C115.93 75.7674 115.465 75.3721 114.861 75.3721H113.674C113.093 75.3721 112.535 75.8139 112.535 76.3488V81.2791C112.535 81.8837 113 82.2325 113.674 82.2325H114.861C115.488 82.2325 115.93 81.8372 115.93 81.2791V80.5814H118.279V81.3023C118.279 83.1163 116.93 84.3721 114.861 84.3721ZM105.558 73.5116L109.07 84.1628H106.535L106.116 82.8605L105.674 82.5814H103.628L103.209 82.8605L102.767 84.1628H100.279L103.791 73.5116H105.558V73.5116ZM105.326 80.5814L105.186 80.7442H104.186L104.023 80.5814L104.326 79.2093C104.558 78.1628 104.674 77.0465 104.674 77.0465H104.721C104.721 77.0465 104.837 78.186 105.047 79.2093L105.326 80.5814ZM129.093 84.3953H127.907C125.791 84.3953 124.442 83.1628 124.442 81.3256V76.3721C124.442 74.5349 125.814 73.3023 127.907 73.3023H129.093C131.163 73.3023 132.512 74.5349 132.512 76.3721V81.3256C132.512 83.1628 131.163 84.3953 129.093 84.3953ZM129.93 81.3023C129.93 81.7209 129.628 82.0232 129.093 82.0232H127.907C127.302 82.0232 127 81.7442 127 81.3023V76.3488C127 75.9767 127.419 75.6046 127.907 75.6046H129.093C129.581 75.6046 129.93 75.9302 129.93 76.3488V81.3023V81.3023ZM148.93 73.5116L152.442 84.1628H149.907L149.488 82.8605L149.047 82.5814H147L146.581 82.8605L146.14 84.1628H143.651L147.163 73.5116H148.93V73.5116ZM148.698 80.5814L148.535 80.7442H147.558L147.395 80.5814L147.698 79.2093C147.93 78.1628 148.047 77.0465 148.047 77.0465H148.093C148.093 77.0465 148.209 78.186 148.419 79.2093L148.698 80.5814ZM122.581 73.5116V84.1628H120.209V73.5116H122.581V73.5116ZM161.163 82.0465V84.1628H154.233V73.5116H156.605V81.7209L156.93 82.0465H161.163V82.0465ZM98.628 73.5116V84.1628H96.6047L93.2791 78.3488V84.1628H90.9768V73.5116H93.0466L96.4652 79.4884V73.5116H98.628V73.5116ZM58.5814 73.5116V81.3256C58.5814 83.1628 57.2326 84.3953 55.1628 84.3953H53.9768C51.8605 84.3953 50.5349 83.1628 50.5349 81.3256V73.5116H52.8373V81.3256C52.8373 81.9302 53.2559 82.2791 53.9768 82.2791H55.1628C55.8605 82.2791 56.2559 81.907 56.2559 81.3256V73.5116H58.5814ZM82.8373 84.3721H81.6512C79.5349 84.3721 78.1861 83.1395 78.1861 81.3023V76.3488C78.1861 74.5116 79.5582 73.2791 81.6512 73.2791H82.8373C84.907 73.2791 86.2559 74.5116 86.2559 76.3488V81.3023C86.2559 83.1395 84.907 84.3721 82.8373 84.3721ZM83.6745 81.3023C83.6745 81.7209 83.3721 82.0232 82.8373 82.0232H81.6512C81.0466 82.0232 80.7442 81.7442 80.7442 81.3023V76.3488C80.7442 75.9767 81.1628 75.6046 81.6512 75.6046H82.8373C83.3256 75.6046 83.6745 75.9302 83.6745 76.3488V81.3023ZM65.7442 76.4186C65.4187 75.7674 64.9303 75.3953 64.2326 75.3953H63.9535C63.3489 75.3953 62.8605 75.7209 62.8605 76.4418C62.8605 76.9302 63.2326 77.2325 63.6047 77.4186L64.2559 77.6744L64.907 77.8837C66.8373 78.5116 67.6977 79.3256 67.6977 81.1395C67.6977 83.1628 66.4884 84.3721 64.2094 84.3721H63.6745C62.5582 84.3721 61.6745 84 61.0233 83.3721L60.3721 82.5116L60.3489 82.4418L62.1163 81.2325C62.4652 81.8605 62.9535 82.2558 63.628 82.2558H64.1628C64.7907 82.2558 65.2559 81.8605 65.2559 81.2093C65.2559 80.6977 64.9535 80.3953 64.5582 80.186L63.907 79.9302L63.1163 79.6744C61.3256 79.0465 60.4187 78.3256 60.4187 76.5116C60.4187 74.4651 61.721 73.2558 63.9303 73.2558H64.1861C65.2326 73.2558 66.0931 73.5814 66.6977 74.1395L67.4652 75.1163L67.5117 75.186L65.7442 76.4186ZM48.0698 73.5116V84.1628H45.8605V81.9535V78.4651L44.1396 82.8139L44.0698 82.8372H42.4186L42.3489 82.8139L40.6512 78.4418V81.8837V84.1395H38.3954V73.4884H40.814L43.3024 79.7209L45.6745 73.4884L48.0698 73.5116ZM142.349 73.5116V84.1628H140.326L137 78.3488V84.1628H134.698V73.5116H136.768L140.186 79.4884V73.5116H142.349V73.5116ZM76.6512 82.0465V84.1628H69.721V73.5116H76.6512V75.6279H72.3954L72.0931 75.907V77.4418L72.4187 77.6977H75.9303V79.8139H72.4187L72.1163 80.0698V81.7907L72.4419 82.0232H76.6512V82.0465Z" fill="black"/>
<path fill-rule="evenodd" clip-rule="evenodd" d="M129.209 87.6046L132.721 98.2558H130.186L129.768 96.9767L129.326 96.6977H127.279L126.861 96.9767L126.419 98.2791H123.93L127.442 87.6279H129.209V87.6046ZM128.977 94.6977L128.814 94.8604H127.837L127.675 94.6977L127.977 93.3256C128.209 92.279 128.326 91.1628 128.326 91.1628H128.372C128.372 91.1628 128.488 92.3023 128.698 93.3256L128.977 94.6977ZM141.465 93.907L143.093 98.2558H140.605L139.047 94.186L138.675 93.907H137.488L137.047 94.3488V98.2558H134.675V87.6046H139.349C141.465 87.6046 142.768 88.8372 142.768 90.8605V91.0232C142.768 92.0465 142.302 92.8139 141.628 93.2558L141.465 93.907ZM140.023 91.0465C140.023 91.5116 139.698 91.7442 139.163 91.7442H137.302L137.093 91.5581V90.1628L137.302 89.9767H139.163C139.721 89.9767 140.023 90.2325 140.023 90.7209V91.0465ZM106.744 95.186C106.744 95.5581 106.372 95.907 105.884 95.907H104.023L103.814 95.7209V90.1628L104.023 89.9767H105.884C106.349 89.9767 106.744 90.3721 106.744 90.7209V95.186ZM101.209 87.6046H105.884C108 87.6046 109.302 88.8372 109.302 90.8605V95.0465C109.302 97.0465 108 98.2558 105.884 98.2558H101.209V87.6046ZM55.8141 96.1395V98.2558H48.8838V87.6046H55.8141V89.7209H51.5582L51.2559 90V91.5349L51.5815 91.7907H55.0699V93.907H51.5582L51.2559 94.1628V95.8837L51.5815 96.1163H55.8141V96.1395ZM84.5117 93.907L86.1396 98.2558H83.6513L82.0931 94.186L81.721 93.907H80.4187L80.0931 94.2093V98.2558H77.721V87.6046H82.3955C84.5117 87.6046 85.8141 88.8372 85.8141 90.8605V91.0232C85.8141 92.0465 85.3489 92.8139 84.6745 93.2558L84.5117 93.907ZM83.2327 91.0465C83.2327 91.5116 82.9071 91.7442 82.3722 91.7442H80.2327L80.0234 91.5581V90.1628L80.2327 89.9767H82.3722C82.9303 89.9767 83.2327 90.2325 83.2327 90.7209V91.0465ZM92.5815 98.3953H91.3955C89.2792 98.3953 87.9303 97.1628 87.9303 95.3256V90.3721C87.9303 88.5349 89.3024 87.3023 91.3955 87.3023H92.5815C94.6513 87.3023 96.0001 88.5349 96.0001 90.3721V95.3256C96.0001 97.1628 94.6513 98.3953 92.5815 98.3953ZM93.3955 95.3256C93.3955 95.7442 93.0931 96.0465 92.5582 96.0465H91.3722C90.7675 96.0465 90.4652 95.7674 90.4652 95.3256V90.3721C90.4652 90 90.8838 89.6279 91.3722 89.6279H92.5582C93.0466 89.6279 93.3955 89.9535 93.3955 90.3721V95.3256ZM75.5582 87.6046V89.7209H73.4187L73.0931 89.9535V98.2558H70.7443V89.9767L70.4187 89.7209H68.2559V87.6046H75.5582V87.6046ZM43.0699 98.3953H41.8838C39.7675 98.3953 38.4187 97.1628 38.4187 95.3256V90.3721C38.4187 88.5349 39.7908 87.3023 41.8838 87.3023H43.0699C45.1396 87.3023 46.4885 88.5349 46.4885 90.3721V91.093H44.1396V90.3721C44.1396 89.7907 43.6745 89.3953 43.0699 89.3953H41.8838C41.3024 89.3953 40.7443 89.8372 40.7443 90.3721V95.3256C40.7443 95.9302 41.1861 96.2791 41.8838 96.2791H43.0699C43.6978 96.2791 44.1396 95.907 44.1396 95.3256V94.6046H46.4885V95.3256C46.4885 97.1628 45.1396 98.3953 43.0699 98.3953ZM66.0931 87.6046V98.2558H64.0699L60.7443 92.4418V98.2558H58.442V87.6046H60.5117L63.9303 93.5814V87.6046H66.0931ZM161.163 96.1395V98.2558H154.233V87.6046H161.163V89.7209H156.907L156.605 90V91.5349L156.93 91.7907H160.419V93.907H156.907L156.605 94.1628V95.8837L156.93 96.1163H161.163V96.1395ZM118.907 96.1395V98.2558H111.977V87.6046H118.907V89.7209H114.651L114.349 90V91.5349L114.675 91.7907H118.14V93.907H114.628L114.326 94.1628V95.8837L114.651 96.1163H118.907V96.1395ZM151.721 87.6046V89.7209H149.582L149.256 89.9535V98.2558H146.907V89.9767L146.581 89.7209H144.419V87.6046H151.721V87.6046Z" fill="black"/>
</g>
<defs>
<clipPath id="clip0">
<rect width="139.767" height="70" fill="white" transform="translate(30 65)"/>
</clipPath>
</defs>
</svg>
