<svg width="200" height="200" viewBox="0 0 200 200" fill="none" xmlns="http://www.w3.org/2000/svg">
<rect width="200" height="200" fill="white"/>
<path d="M124.614 114.289C124.842 115.2 125.981 116.112 127.349 116.112C129.172 116.112 129.856 115.2 129.856 114.289C129.856 113.833 129.628 113.377 129.172 112.921C128.716 112.693 128.033 112.237 126.893 111.782C124.842 110.87 123.93 110.186 123.93 108.363C123.93 106.54 125.298 105.4 127.349 105.4C128.944 105.4 130.084 106.084 130.539 107.451L129.172 108.135C128.716 107.451 128.033 106.995 127.349 106.995C126.209 106.995 125.526 107.451 125.526 108.363C125.526 109.275 126.209 109.73 128.033 110.414C130.312 111.326 131.451 112.237 131.451 114.061C131.451 115.884 130.084 117.251 127.349 117.251C125.298 117.251 123.474 116.34 123.019 114.516L124.614 114.289Z" fill="black"/>
<path d="M132.363 111.781C132.363 109.958 132.819 108.591 133.958 107.451C135.098 106.312 136.465 105.856 138.06 105.856C139.656 105.856 140.795 106.312 141.707 107.451C142.619 108.591 143.074 109.958 143.074 111.554C143.074 111.781 143.074 112.009 143.074 112.237H133.958C133.958 114.744 135.553 116.34 138.06 116.34C139.656 116.34 140.567 115.884 141.479 114.744L142.619 115.884C141.479 117.251 139.884 117.935 138.06 117.935C136.465 117.935 135.098 117.479 133.958 116.34C132.819 114.972 132.363 113.605 132.363 111.781ZM141.479 110.642C141.479 109.73 141.251 109.047 140.567 108.363C139.884 107.679 138.972 107.451 138.06 107.451C136.921 107.451 136.237 107.679 135.326 108.363C134.642 109.047 134.186 109.73 134.186 110.642H141.479Z" fill="black"/>
<path d="M145.354 119.303C146.721 120.214 148.316 120.898 149.912 120.898C151.051 120.898 151.963 120.67 152.647 119.986C153.33 119.303 153.786 118.163 153.786 116.568V115.656C153.102 116.796 151.735 117.707 149.684 117.707C148.088 117.707 146.721 117.251 145.581 116.112C144.442 114.972 143.986 113.605 143.986 111.782C143.986 110.186 144.442 108.591 145.581 107.679C146.721 106.54 148.088 106.084 149.684 106.084C151.735 106.084 153.102 106.996 153.786 108.135V106.54H155.381V115.884C155.381 117.251 155.154 118.619 154.926 119.303C154.698 120.214 154.242 120.898 153.558 121.582C152.647 122.265 151.279 122.721 149.684 122.721C147.633 122.721 145.809 122.037 144.442 120.898L145.354 119.303ZM152.647 114.744C153.558 113.833 153.786 112.921 153.786 111.554C153.786 110.414 153.33 109.275 152.647 108.363C151.963 107.451 150.823 106.996 149.684 106.996C148.544 106.996 147.633 107.451 146.721 108.135C146.037 109.047 145.581 109.958 145.581 111.326C145.581 112.465 146.037 113.605 146.721 114.517C147.405 115.428 148.544 115.656 149.684 115.656C151.051 115.884 151.963 115.656 152.647 114.744Z" fill="black"/>
<path d="M157.205 106.084H158.8V112.921C158.8 114.744 159.939 116.112 161.535 116.112C163.358 116.112 164.498 114.744 164.726 112.921V106.084H166.321V114.744C166.321 115.656 166.549 116.112 167.233 116.112C167.46 116.112 167.688 116.112 167.916 116.112V117.479C167.688 117.479 167.233 117.707 166.777 117.707C166.093 117.707 165.637 117.479 165.409 117.251C165.181 117.024 164.953 116.568 164.953 116.112C164.27 117.251 163.13 117.707 161.307 117.707C158.8 117.707 157.205 116.112 157.205 113.377V106.084Z" fill="black"/>
<path d="M169.056 117.479V106.084H170.651V107.907C171.335 106.54 172.474 105.856 174.07 105.856C174.298 105.856 174.526 105.856 174.753 105.856V107.679C174.526 107.679 174.07 107.679 173.614 107.679C171.791 107.679 170.651 109.047 170.651 110.87V117.479H169.056Z" fill="black"/>
<path d="M174.981 111.782C174.981 110.186 175.665 108.591 176.805 107.451C177.944 106.312 179.312 105.628 181.135 105.628C182.73 105.628 184.326 106.312 185.465 107.451C186.605 108.591 187.288 109.958 187.288 111.782C187.288 113.377 186.605 114.972 185.465 116.112C184.326 117.251 182.958 117.707 181.135 117.707C179.54 117.707 177.944 117.023 176.805 115.884C175.437 114.972 174.981 113.377 174.981 111.782ZM176.577 111.782C176.577 113.149 177.033 114.061 177.716 114.972C178.628 115.884 179.54 116.34 180.907 116.34C182.274 116.34 183.186 115.884 184.098 115.2C185.009 114.289 185.237 113.377 185.237 112.009C185.237 110.642 184.781 109.73 184.098 108.819C183.186 107.907 182.274 107.451 180.907 107.451C179.54 107.451 178.628 107.907 177.716 108.819C177.033 109.502 176.577 110.414 176.577 111.782Z" fill="black"/>
<path d="M188.884 114.516C189.112 115.428 190.251 116.34 191.619 116.34C193.442 116.34 194.126 115.428 194.126 114.516C194.126 114.061 193.898 113.605 193.442 113.149C192.986 112.921 192.302 112.465 191.163 112.009C189.112 111.098 188.2 110.414 188.2 108.591C188.2 106.768 189.567 105.628 191.619 105.628C193.214 105.628 194.353 106.312 194.809 107.679L193.442 108.363C192.986 107.679 192.302 107.223 191.619 107.223C190.479 107.223 189.795 107.679 189.795 108.591C189.795 109.502 190.479 109.958 192.302 110.642C194.581 111.554 195.721 112.465 195.721 114.289C195.721 116.112 194.353 117.479 191.619 117.479C189.567 117.479 187.744 116.568 187.288 114.744L188.884 114.516Z" fill="black"/>
<path d="M20.0046 77.1404H16.1302V85.8008C15.4465 84.2055 13.6232 83.066 10.8884 83.066C8.6093 83.066 6.55813 83.9776 4.96279 85.5729C3.36744 87.1683 2.68372 89.2194 2.68372 91.7264C2.68372 94.2334 3.36744 96.2846 4.96279 97.8799C6.55813 99.4753 8.6093 100.387 10.8884 100.387C13.6232 100.387 15.4465 99.4753 16.586 97.8799C16.8139 98.7915 17.2698 99.4753 17.9535 99.9311C18.6372 100.387 19.3209 100.387 20.2326 100.387L20.0046 77.1404ZM14.7628 95.3729C13.8512 96.2846 12.4837 96.7404 11.1163 96.7404C9.74883 96.7404 8.6093 96.2846 7.69767 95.3729C6.78604 94.4613 6.33023 93.0939 6.33023 91.7264C6.33023 90.359 6.78604 88.9915 7.69767 88.0799C8.6093 87.1683 9.74883 86.7125 11.1163 86.7125C12.4837 86.7125 13.8512 87.1683 14.7628 88.0799C15.6744 88.9915 16.1302 90.359 16.1302 91.7264C16.1302 93.0939 15.6744 94.4613 14.7628 95.3729Z" fill="black"/>
<path d="M24.3349 81.4699C25.7023 81.4699 26.6139 80.5583 26.6139 79.1908C26.6139 77.8234 25.4744 76.9117 24.3349 76.9117C22.9674 76.9117 22.0558 77.8234 22.0558 79.1908C21.8279 80.5583 22.9674 81.4699 24.3349 81.4699Z" fill="black"/>
<path d="M26.386 83.749H22.5116V96.2839C22.5116 99.0188 23.879 100.386 26.386 100.386V83.749Z" fill="black"/>
<path d="M45.7581 81.6978C47.1255 81.6978 48.0371 80.7862 48.0371 79.4187C48.0371 78.0513 46.8976 77.1396 45.7581 77.1396C44.3906 77.1396 43.479 78.0513 43.479 79.4187C43.479 80.5583 44.3906 81.4699 45.7581 81.6978Z" fill="black"/>
<path d="M47.3534 83.749H43.479V96.2839C43.479 99.0188 44.8464 100.386 47.3534 100.386C47.3534 100.386 47.3534 100.386 47.5813 100.386L47.3534 83.749Z" fill="black"/>
<path d="M58.7489 83.2933C56.4698 83.2933 54.8744 84.6608 53.9628 86.2561V83.9771H50.0884V100.614H53.9628V91.0422C53.9628 88.7631 55.5582 87.1678 57.6093 87.1678C59.8884 87.1678 61.0279 88.5352 61.0279 90.8143V96.284C61.0279 99.2468 62.3954 100.614 64.9023 100.614V89.6747C64.9023 85.8003 62.3954 83.2933 58.7489 83.2933Z" fill="black"/>
<path d="M84.0465 83.7491H80.1721V86.0282C79.4884 84.4329 77.6651 83.2933 74.9302 83.2933C72.6512 83.2933 70.6 84.205 69.0047 85.8003C67.4093 87.3957 66.7256 89.4468 66.7256 91.9538C66.7256 94.4608 67.4093 96.5119 69.0047 98.1073C70.6 99.7026 72.6512 100.614 74.9302 100.614C77.6651 100.614 79.4884 99.7026 80.6279 98.1073C80.8558 99.0189 81.3116 99.7026 81.9954 100.158C82.4512 100.614 83.3628 100.614 84.2744 100.614L84.0465 83.7491ZM79.0326 95.6003C78.1209 96.5119 76.7535 96.9678 75.3861 96.9678C74.0186 96.9678 72.8791 96.5119 71.9674 95.6003C71.0558 94.6887 70.6 93.3212 70.6 91.9538C70.6 90.5864 71.0558 89.2189 71.9674 88.3073C72.8791 87.3957 74.0186 86.9398 75.3861 86.9398C76.7535 86.9398 77.893 87.3957 79.0326 88.3073C79.9442 89.2189 80.4 90.5864 80.4 91.9538C80.4 93.3212 79.9442 94.4608 79.0326 95.6003Z" fill="black"/>
<path d="M42.5674 81.47C42.5674 81.47 41.1999 81.47 40.7441 81.47C39.3767 81.47 38.465 82.6095 38.0092 83.5211C37.5534 84.4328 34.3627 94.6886 34.3627 94.6886C34.3627 94.6886 32.9953 91.4979 32.5395 90.5862C32.0837 89.6746 30.9441 88.9909 29.5767 88.9909C29.1209 88.9909 27.7534 88.9909 27.7534 88.9909L32.9953 100.158H36.4139L42.5674 81.47Z" fill="black"/>
<path d="M177.033 83.5211C174.753 83.5211 172.93 84.6607 172.019 86.256V85.5723V83.749H168.144V97.1955C168.372 99.2467 169.74 100.386 172.019 100.386V91.4979C172.019 91.27 172.019 91.0421 172.019 91.0421C172.246 88.5351 173.842 87.1676 176.577 87.1676C177.26 87.1676 177.716 87.1676 178.172 87.3955V83.5211C177.944 83.5211 177.488 83.5211 177.033 83.5211Z" fill="black"/>
<path d="M144.67 83.7488V77.3674H140.795V83.7488H138.744V87.3953H140.795V96.5116C140.795 99.2465 142.163 100.614 144.67 100.614C144.67 100.614 144.67 100.614 144.898 100.614V95.1442C144.898 94.9163 144.898 94.9163 144.898 94.6884V87.3953H148.544V83.7488H144.67Z" fill="black"/>
<path d="M119.372 86.0282C118.688 84.4329 116.865 83.2933 114.13 83.2933C111.851 83.2933 109.8 84.205 108.205 85.8003C106.609 87.3957 105.926 89.4468 105.926 91.9538C105.926 94.4608 106.609 96.5119 108.205 98.1073C109.8 99.7026 111.851 100.614 114.13 100.614C116.865 100.614 118.688 99.7026 119.828 98.1073C120.056 99.0189 120.512 99.7026 121.195 100.158C121.879 100.614 122.563 100.614 123.474 100.614V83.7491H119.372V86.0282ZM118.233 95.6003C117.321 96.5119 115.953 96.9678 114.586 96.9678C113.219 96.9678 112.079 96.5119 111.167 95.6003C110.256 94.6887 109.8 93.3212 109.8 91.9538C109.8 90.5864 110.256 89.2189 111.167 88.3073C112.079 87.3957 113.219 86.9398 114.586 86.9398C115.953 86.9398 117.321 87.3957 118.233 88.3073C119.144 89.2189 119.6 90.5864 119.6 91.9538C119.828 93.3212 119.144 94.6887 118.233 95.6003Z" fill="black"/>
<path d="M192.074 83.9769V86.4839C191.391 84.8886 189.567 83.749 186.833 83.749C184.554 83.749 182.502 84.6607 180.907 86.256C179.312 87.8513 178.628 89.9025 178.628 92.4095C178.628 94.9165 179.312 96.9676 180.907 98.563C182.502 100.158 184.554 101.07 186.833 101.07C189.567 101.07 191.391 100.158 192.53 98.563C192.758 99.4746 193.214 100.158 193.898 100.614C194.581 101.07 195.265 101.07 196.177 101.07V84.2048L192.074 83.9769ZM190.935 95.8281C190.023 96.7397 188.656 97.1955 187.288 97.1955C185.921 97.1955 184.781 96.7397 183.87 95.8281C182.958 94.9165 182.502 93.549 182.502 92.1816C182.502 90.8141 182.958 89.4467 183.87 88.5351C184.781 87.6234 185.921 87.1676 187.288 87.1676C188.656 87.1676 190.023 87.6234 190.935 88.5351C191.847 89.4467 192.302 90.8141 192.302 92.1816C192.53 93.549 191.847 94.9165 190.935 95.8281Z" fill="black"/>
<path d="M157.433 83.2933C154.926 83.2933 152.874 84.205 151.051 85.8003C149.456 87.3957 148.544 89.6747 148.544 91.9538C148.544 94.4608 149.456 96.5119 151.051 98.1073C152.874 99.7026 154.926 100.614 157.433 100.614C159.94 100.614 161.991 99.7026 163.814 98.1073C165.637 96.5119 166.549 94.2329 166.549 91.9538C166.549 89.4468 165.637 87.3957 164.042 85.8003C162.219 84.205 160.167 83.2933 157.433 83.2933ZM161.079 95.8282C160.167 96.7398 158.8 97.1957 157.433 97.1957C156.065 97.1957 154.698 96.7398 153.786 95.6003C152.874 94.6887 152.419 93.3212 152.419 91.9538C152.419 90.5864 152.874 89.2189 153.786 88.3073C154.698 87.3957 156.065 86.7119 157.433 86.7119C158.8 86.7119 160.167 87.1678 161.079 88.3073C161.991 89.2189 162.447 90.5864 162.447 91.9538C162.674 93.5491 162.219 94.6887 161.079 95.8282Z" fill="black"/>
<path d="M133.958 90.5864C133.274 90.3584 132.363 90.1305 131.907 89.9026C131.451 89.6747 130.767 89.4468 130.539 89.2189C130.084 88.991 129.856 88.5352 129.856 88.0794C129.856 87.1678 130.539 86.7119 131.907 86.7119C133.274 86.7119 134.414 87.1678 135.098 88.0794L137.377 85.8003C136.237 84.205 134.414 83.2933 132.135 83.2933C130.539 83.2933 129.172 83.7491 128.033 84.6608C126.893 85.5724 126.437 86.7119 126.437 88.3073C126.437 90.5864 127.805 91.9538 130.539 92.8654C130.995 93.0933 132.135 93.3212 132.591 93.5491C133.046 93.7771 133.73 94.005 134.186 94.2329C134.642 94.4608 135.098 94.9166 135.098 95.6003C135.098 96.5119 134.186 97.4236 132.135 97.4236C130.995 97.4236 130.084 97.1957 129.4 96.7398C127.805 96.0561 126.893 96.284 125.981 96.9678C125.753 97.1957 125.298 97.6515 125.298 97.6515C126.437 99.4747 128.716 100.842 131.907 100.842C136.465 100.842 138.744 98.5631 138.744 95.6003C138.288 93.0933 136.921 91.7259 133.958 90.5864Z" fill="black"/>
<path d="M87.0093 95.6001V106.084C87.2372 106.084 87.4651 106.084 87.693 106.084H87.0093V95.6001Z" fill="black"/>
<path d="M102.051 85.5722C100.456 83.9768 98.4046 83.0652 96.1256 83.0652C93.3907 83.0652 91.3395 84.2047 90.8837 85.8001V83.2931H87.0093V95.6001V106.084H87.693C89.7442 105.856 90.8837 104.716 91.1116 102.437C91.1116 102.209 91.1116 97.4233 91.1116 97.4233C91.7953 99.0187 93.6186 100.158 96.3535 100.158C98.6325 100.158 100.684 99.2466 102.279 97.6512C103.874 96.0559 104.786 94.0047 104.786 91.4977C104.33 89.2187 103.646 87.1675 102.051 85.5722ZM99.0883 95.3722C98.1767 96.2838 97.0372 96.7396 95.6697 96.7396C94.3023 96.7396 93.1628 96.2838 92.0232 95.3722C91.1116 94.4605 90.6558 93.0931 90.6558 91.7256C90.6558 90.3582 91.1116 88.9908 92.0232 88.0791C92.9349 87.1675 94.3023 86.7117 95.6697 86.7117C97.0372 86.7117 98.1767 87.1675 99.0883 88.0791C100 88.9908 100.456 90.3582 100.456 91.7256C100.456 93.0931 100 94.4605 99.0883 95.3722Z" fill="black"/>
</svg>
