<svg width="200" height="200" viewBox="0 0 200 200" fill="none" xmlns="http://www.w3.org/2000/svg">
<rect width="200" height="200" fill="white"/>
<g clip-path="url(#clip0)">
<path d="M48.5357 75.9643C52.3214 76.1786 52.3928 82.5714 47.9285 82.25C47.9285 85 47.9285 87.9286 47.9285 90.7143C47.9285 90.7143 57.4642 90.7143 57.4999 90.7143V96.0714H47.9285V107C48.9642 106.964 49.7142 106.964 50.7142 106.964C49.6785 112.75 48.6785 118.857 47.5714 124.857C47.0714 127.143 47.1428 129.714 45.1071 129.714C43.5357 129.714 43.6071 128 42.9285 124.786C42.1428 120.464 41.9999 119.786 42.0357 119.75C40.8928 113.393 40.9642 113.036 39.7499 107C40.4999 107 42.4999 107 42.4999 107C42.4999 107 42.4999 96.0714 42.4999 96.0357H32.9642V90.6786C36.1071 90.6786 39.3571 90.6786 42.4999 90.6786V82.3214C38.2499 82.4643 38.0357 76.3571 41.8928 75.9643C42.7142 74.2143 43.3214 70.0357 45.2499 70.0357C47.4285 70.0357 47.5714 74.1428 48.5357 75.9643Z" fill="black"/>
<path d="M30.6428 87.8214C30.6785 89 30.6071 94.9286 30.6071 98.4643C30.6071 98.4643 29.75 97.8928 29.5357 97.75C28.75 97.2143 28.1785 96.8928 27.3214 96.2857C26.0714 95.4286 24.1785 94.6786 24.1785 93.1786C24.1428 91.8571 25.1428 91.4643 28.4285 89.25C29.75 88.3571 30.3214 88 30.6428 87.8214Z" fill="black"/>
<path d="M59.7501 87.7857C60.8572 88.4643 64.0715 90.4643 65.5001 91.6071C67.8572 93.8214 64.0358 95.6429 62.6072 96.6429C61.6072 97.3214 60.6429 97.9643 59.7144 98.5V87.7857H59.7501Z" fill="black"/>
<path d="M149.214 111.536C149.536 111.821 149.893 112.071 150.286 112.25C149.929 112.893 149.286 113.393 148.714 113.893C146.429 115.857 143.25 117.536 139.357 117.857C132.679 118.393 126.393 115.321 125.75 108.857C125.321 104.643 127.393 101.357 129.714 99.5714C132.321 97.5357 135.964 96.2143 140.286 95.9643C143.321 95.7857 146.821 96.1071 148.857 97.1786C149.679 97.6429 150.643 98.6071 150.5 99.7857C150.286 101.536 147.607 101.929 145.893 101.286C143.393 100.357 142.393 97.4643 139.036 97.5357C136.929 97.5714 135.107 98.8571 134.143 100.071C133.214 101.214 132.393 103.25 132.214 105.036C131.679 110.107 134.321 115 139.429 115.393C144.071 115.786 146.571 113.5 149.214 111.536Z" fill="black"/>
<path d="M174.786 111.536C175.107 111.821 175.464 112.071 175.857 112.25C175.5 112.893 174.857 113.393 174.286 113.893C171.964 115.893 168.786 117.536 164.929 117.857C156.964 118.5 150.464 114.107 151.321 106.536C151.643 103.643 153.321 101.143 155.214 99.6071C157.821 97.5357 161.643 96.1785 165.893 95.9285C168.964 95.75 172.536 96.1071 174.464 97.1428C175.214 97.5714 176.357 98.4999 176.036 99.9642C175.714 101.429 173.214 101.857 171.571 101.25C168.714 100.214 167.214 96.6071 163.071 97.7857C157.5 99.3928 155.893 108.893 160.464 113.5C161.786 114.357 163.107 115.214 165 115.357C169.464 115.786 172.429 113.393 174.786 111.536Z" fill="black"/>
<path d="M88.2857 106.857C86.6785 107.714 82.8571 109 81.5714 110.25C80.3928 111.393 80.25 113.964 81.5714 115.214C84.0714 116.964 86.7143 114.679 88.5714 113.786C88.5357 111.464 88.6785 108.929 88.5 106.714C88.3928 106.714 88.3571 106.821 88.2857 106.857ZM99.4642 114.179C99.6428 114.464 99.75 114.75 99.9643 114.964C98.1785 116.429 94.1071 119.107 90.6071 118.143C89.4643 117.821 88.6785 116.75 88.6071 115.179C86.4642 116.393 84.5357 118.429 80.5357 118.286C77.4285 118.179 74.4643 116.786 74.1071 113.75C73.8214 111.357 75.4285 109.714 76.9285 109C80.1428 107.393 85.7857 107.179 88.6071 105.179C88.6428 102.5 88.75 99.8929 86.75 98.75C85 97.75 80.6071 98.1071 80.5714 100.393C80.5714 101.107 80.9643 101.393 81.2143 101.964C79.6785 102.393 78.3928 102.893 76.8214 103.393C76.4285 103.536 75.5714 103.893 75.3214 103.821C74.6785 103.679 74.4285 102.429 74.5357 101.893C74.6785 101.107 75.3928 100.357 75.8928 99.8929C77.9643 97.9643 81.6785 96.6071 85.3214 96.2857C89.1428 95.9643 92.75 97.1429 94.1071 99.25C95.25 101.036 94.8214 105.679 94.8214 108.679C94.8214 110.179 94.3571 114.857 95.6071 115.393C97 116 98.5714 114.536 99.4642 114.179Z" fill="black"/>
<path d="M109.464 97.9286C106.786 98.6072 105.607 101.25 105.143 104.25H117.107C116.893 100.071 113.964 96.75 109.464 97.9286ZM124.607 104.321V105.679H105.071C105.214 108.929 106.357 111.607 108.393 113.25C109.714 114.321 111.679 115.107 113.929 115.25C117.893 115.571 120.75 113.571 123.071 111.714C123.536 111.929 123.821 112.286 124.214 112.5C121.536 116.536 115.5 118.75 108.786 118.179C105.464 117.893 102.214 116.214 100.643 113.929C99.1428 111.75 98.4643 108.321 99.0714 105.357C99.5 103.286 100.786 101.321 102.107 100.036C104.536 97.6786 108 96.5714 112.25 96.3572C116.786 96.1429 120.5 97.7857 122.179 100.679C122.964 102 123.071 103.679 124.607 104.321Z" fill="black"/>
<path d="M127.5 120.929C127.536 121.179 127.464 121.821 127.429 122C127.072 124.25 127.107 123.857 126.786 125.857C126.786 125.929 126.607 126.893 126.357 127.964C126.643 128.107 126.964 127.536 127.179 127.429C127.25 127.393 127.25 127.571 127.322 127.607C127.072 127.857 126.572 128.357 126.143 128.536C126 128.571 125.786 128.571 125.714 128.357C125.393 128.071 125.857 125.964 126.107 124.607C126.321 123.5 126.5 122.536 126.643 121.571C126.464 121.536 126.071 121.857 126.071 121.857C126 121.786 125.929 121.786 125.857 121.679C126.286 121.357 127.143 120.964 127.5 120.929Z" fill="black"/>
<path d="M143.071 121.036H144C143.607 121.821 143.179 122.536 142.714 123.214H142.286C142.464 122.429 142.857 121.857 143.071 121.036Z" fill="black"/>
<path d="M108.179 122.357C108.25 122.357 108.321 122.357 108.393 122.357C108.357 122.893 108.071 123.321 108 123.786C108.179 123.786 108.25 123.75 108.75 123.786V124.286C108.5 124.286 108 124.286 107.857 124.286C107.679 125.179 107.429 126.643 107.321 127.393C107.286 127.607 107.25 127.786 107.321 127.893C107.75 127.929 108.107 127.25 108.214 127.214C108.286 127.214 108.321 127.286 108.429 127.321C108 127.857 107.179 128.679 106.607 128.429C106.571 128.393 106.429 128.143 106.464 127.964C106.536 127.179 106.964 125.429 107.036 124.286H106.607C106.607 124.214 106.607 124 106.643 124C106.821 124 106.929 123.929 107.107 123.75C107.214 123.643 107.464 123.429 107.643 123.25C107.857 123 108 122.714 108.179 122.357Z" fill="black"/>
<path d="M98.75 124.321C98.5357 124.143 98.5714 124.143 98.25 124.25C97.7857 124.643 97.3928 125.536 97.3571 126.536C97.3214 127 97.4643 127.607 97.7143 127.964C98 128.071 98.25 128 98.4285 127.821C98.9643 127.286 99.2143 125.964 99.0357 125C99 124.679 98.8928 124.5 98.75 124.321ZM99.1785 123.75C99.3928 123.786 99.6428 124.036 99.7857 124.321C100.107 125.179 99.9643 126.571 99.3928 127.357C98.8214 127.964 98.0357 128.643 97.3214 128.464C96.3928 128.214 96.4643 126.571 96.6071 126.107C96.75 125.607 96.7857 125.5 97 125.179C97.3928 124.607 97.8214 124.143 98.25 123.929C98.4285 123.857 98.75 123.679 99.1785 123.75Z" fill="black"/>
<path d="M102.679 123.786C102.893 123.929 102.679 124.929 102.536 126C102.571 125.964 102.571 126 102.607 125.964C103 125.5 103.179 125.179 103.679 124.464C104.357 123.786 104.75 123.464 105.071 123.929C105.143 124.036 105.071 124.679 105.036 125.071C104.893 125.964 104.643 127 104.429 127.786C104.429 127.857 104.536 127.821 104.607 127.821C104.786 127.75 104.929 127.571 105.321 127.071C105.321 127.107 105.5 127.214 105.464 127.214C104.679 128.286 104.036 128.714 103.679 128.393C103.321 128.036 104.5 124.679 104.179 124.464C103.929 124.25 102.607 126.143 102.429 126.571C102.357 126.714 102.143 127.714 102.107 128.429C101.857 128.429 101.571 128.429 101.286 128.429C101.429 127.107 101.929 125.179 101.893 124.679C101.786 124.571 101.571 125 101.393 125.214C101.393 125.214 101.143 125.143 101.107 125.143C101.321 124.821 101.643 124.393 101.964 124.036C102.107 123.893 102.25 123.75 102.393 123.643C102.464 123.714 102.536 123.679 102.679 123.786Z" fill="black"/>
<path d="M110.75 123.714C110.929 123.786 111 123.786 111 124.036C111.036 124.5 110.679 125.571 110.571 126.357C110.5 126.929 110.571 126.786 110.571 126.929C110.964 126.036 111.393 123.786 112.25 123.679C112.464 123.679 112.5 123.714 112.536 123.786C112.714 124.036 112.5 124.464 112.393 124.643C112.179 124.643 111.929 124.5 111.75 124.643C111.321 124.964 110.821 127.143 110.321 128.393C110.036 128.393 109.821 128.429 109.571 128.393C109.536 127.857 110.107 125.25 110.143 124.964C110.179 124.679 110.179 124.5 110.107 124.536C109.964 124.321 109.786 124.821 109.607 124.893C109.571 124.929 109.464 124.821 109.429 124.75C109.607 124.643 110.071 123.786 110.75 123.714Z" fill="black"/>
<path d="M122.607 126.143C123.071 125.929 123.429 125.786 123.75 125.357C124.107 124.857 124.036 124.107 123.679 124.143C122.964 124.429 122.643 125.286 122.607 126.143ZM124.571 124C125.25 125.321 123.571 126.036 122.464 126.357C122.321 127.036 122.357 127.821 122.821 128.071C123.607 128.179 123.786 127.857 124.286 127.607C124.286 127.643 124.429 127.714 124.393 127.75C123.536 128.571 122.179 129 121.679 128C121 126.679 122.321 123.464 124.286 123.821C124.393 123.857 124.536 123.929 124.571 124Z" fill="black"/>
<path d="M152.964 124.786C152.679 124.929 152.464 124.857 152.357 124.679C152.25 124.5 152.107 124.286 151.786 124.321C151.571 124.536 151.429 124.929 151.357 125.143C150.964 126.536 150.75 127.929 151.321 128.071C151.893 128.25 152.214 127.607 152.5 127.429C152.571 127.393 152.643 127.464 152.75 127.464C151.929 128.643 150.5 128.964 150.143 127.893C149.679 126.464 151.25 123.286 152.679 123.857C152.929 123.964 153.179 124.464 152.964 124.786Z" fill="black"/>
<path d="M113.857 127.714C114.286 127.714 114.893 127 115.25 126.536C115.286 126.5 115.5 125.036 115.571 124.536C114.357 124.536 113.821 125.607 113.75 126.75C113.75 127.107 113.786 127.464 113.857 127.714ZM116.536 123.821C116.357 125.143 116.143 126.464 115.893 127.714C115.929 127.75 115.964 127.786 116 127.786C116.179 127.786 116.321 127.429 116.5 127.429C116.5 127.464 116.607 127.5 116.571 127.536C116.286 127.929 115.821 128.5 115.179 128.536C114.893 128.179 115.143 127.643 115.179 127.143C114.893 127.393 113.857 128.5 113.536 128.5C113.143 128.5 112.857 128.036 112.964 127.143C113.179 125.536 114.286 123.679 116.536 123.821Z" fill="black"/>
<path d="M95.8215 121.679C95.6786 122.357 95.6786 122.714 95.5 123.5C95.5 123.5 95.1429 123.536 95.1429 123.5C95.1072 123.071 95.1429 122.786 95.0358 122.5C94.8572 122 94.5 121.821 93.9643 121.643C91.1786 121.214 89.4286 124.607 90.4286 126.964C91.25 128.964 94.0358 128.321 94.8572 126.429C94.8572 126.429 95.1786 126.393 95.1429 126.464C95.0715 127.107 94.75 127.75 94.6786 128.393C93.9286 128.25 92.6429 128.714 91.3929 128.536C88.8929 128.214 88.4286 124.964 89.7858 123.071C91.1072 121.286 93.3929 120.929 95.8215 121.679Z" fill="black"/>
<path d="M146.643 123.857C146.857 124 146.643 125 146.5 126.071C146.536 126.036 146.536 126.071 146.571 126.036C146.964 125.571 147.143 125.25 147.643 124.536C148.321 123.857 148.714 123.536 149.036 124C149.107 124.107 149.036 124.75 149 125.143C148.857 126.036 148.607 127.071 148.393 127.857C148.393 127.929 148.5 127.893 148.571 127.893C148.75 127.821 148.893 127.643 149.286 127.143C149.286 127.179 149.464 127.286 149.429 127.286C148.643 128.357 148 128.786 147.643 128.464C147.286 128.107 148.464 124.75 148.143 124.536C147.893 124.321 146.571 126.214 146.393 126.643C146.321 126.786 146.107 127.786 146.071 128.5C145.821 128.5 145.536 128.5 145.25 128.5C145.393 127.179 145.893 125.25 145.857 124.75C145.75 124.643 145.536 125.071 145.357 125.286C145.357 125.286 145.107 125.214 145.071 125.214C145.286 124.893 145.607 124.464 145.929 124.107C146.071 123.964 146.214 123.821 146.357 123.714C146.464 123.786 146.5 123.786 146.643 123.857Z" fill="black"/>
<path d="M159.286 123.821C159.464 123.893 159.536 123.893 159.536 124.143C159.571 124.607 159.214 125.679 159.107 126.464C159.036 127.036 159.107 126.893 159.107 127.036C159.5 126.143 159.929 123.893 160.786 123.786C161 123.786 161.036 123.821 161.071 123.893C161.25 124.143 161.071 124.571 160.929 124.75C160.714 124.75 160.464 124.607 160.286 124.75C159.857 125.071 159.357 127.25 158.857 128.5C158.571 128.5 158.357 128.536 158.107 128.5C158.071 127.964 158.643 125.357 158.679 125.071C158.714 124.786 158.714 124.607 158.643 124.643C158.5 124.429 158.321 124.929 158.143 125C158.107 125.036 158 124.929 157.964 124.893C158.143 124.75 158.607 123.893 159.286 123.821Z" fill="black"/>
<path d="M139.464 121.714C139.321 122.393 139.321 122.75 139.143 123.536C139.143 123.536 138.786 123.571 138.786 123.536C138.75 123.107 138.786 122.821 138.679 122.536C138.5 122.036 138.143 121.857 137.607 121.679C134.821 121.25 133.071 124.643 134.071 127C134.893 129 137.679 128.357 138.5 126.464C138.5 126.464 138.821 126.429 138.786 126.5C138.714 127.143 138.393 127.786 138.321 128.429C137.571 128.286 136.286 128.75 135.036 128.571C132.536 128.25 132.071 125 133.429 123.107C134.75 121.321 137.036 120.964 139.464 121.714Z" fill="black"/>
<path d="M141.25 127.786C141.679 127.786 142.286 127.071 142.643 126.607C142.679 126.571 142.893 125.107 142.964 124.607C141.75 124.607 141.214 125.679 141.143 126.821C141.143 127.179 141.179 127.536 141.25 127.786ZM143.929 123.893C143.75 125.214 143.536 126.536 143.286 127.786C143.321 127.821 143.357 127.857 143.393 127.857C143.571 127.857 143.714 127.5 143.893 127.5C143.893 127.536 144 127.571 143.964 127.607C143.679 128 143.214 128.571 142.571 128.607C142.286 128.25 142.536 127.714 142.571 127.214C142.286 127.464 141.25 128.571 140.929 128.571C140.536 128.571 140.25 128.107 140.357 127.214C140.571 125.607 141.679 123.75 143.929 123.893Z" fill="black"/>
<path d="M155.107 126.107C155.571 125.893 155.929 125.75 156.25 125.321C156.607 124.821 156.536 124.071 156.179 124.107C155.464 124.429 155.143 125.286 155.107 126.107ZM157.071 124C157.75 125.321 156.071 126.036 154.964 126.357C154.821 127.036 154.857 127.821 155.321 128.071C156.107 128.179 156.286 127.857 156.786 127.607C156.786 127.643 156.929 127.714 156.857 127.75C156 128.571 154.643 129 154.143 128C153.464 126.679 154.786 123.464 156.75 123.821C156.893 123.857 157.036 123.929 157.071 124Z" fill="black"/>
</g>
<defs>
<clipPath id="clip0">
<rect width="152.143" height="60" fill="white" transform="translate(24 70)"/>
</clipPath>
</defs>
</svg>
