<svg width="200" height="200" viewBox="0 0 200 200" fill="none" xmlns="http://www.w3.org/2000/svg">
<rect width="200" height="200" fill="white"/>
<g clip-path="url(#clip0)">
<path fill-rule="evenodd" clip-rule="evenodd" d="M11.8 97.5187H13.9887C16.7 97.5187 18.072 96.5387 18.072 94.6114C18.072 93.664 17.7454 92.9454 17.1247 92.4554C16.504 91.9654 15.6547 91.7367 14.5767 91.7367H11.8V97.5187ZM27.7414 108.103V112.284H20.228L14.642 101.471H11.8327V108.103H14.936V112.284H2.03271V108.103H5.43005V91.7367H2.03271V87.5554H16.9287C19.738 87.5554 21.7634 88.274 22.972 89.6787C24.2134 91.0834 24.834 92.684 24.834 94.4807C24.834 97.29 23.3967 99.348 20.5547 100.622L24.5727 108.07H27.7414V108.103ZM44.9894 91.704C43.0947 91.704 41.494 92.4227 40.1547 93.8274C38.848 95.2647 38.1947 97.3227 38.1947 100.067C38.1947 102.484 38.848 104.444 40.1547 105.881C41.4614 107.351 43.062 108.07 44.9894 108.07C46.884 108.07 48.4847 107.351 49.824 105.947C51.1634 104.509 51.8167 102.451 51.8167 99.7727C51.8167 97.388 51.196 95.428 49.922 93.9254C48.648 92.4554 47.0147 91.704 44.9894 91.704ZM44.9894 87.196C49.236 87.196 52.6007 88.4374 55.0507 90.8874C57.5007 93.3374 58.7094 96.3427 58.7094 99.9034C58.7094 103.464 57.5007 106.469 55.0507 108.919C52.6007 111.369 49.236 112.578 44.9894 112.578C40.5794 112.578 37.182 111.304 34.83 108.789C32.478 106.241 31.2694 103.301 31.2694 99.8707C31.2694 96.3427 32.478 93.3374 34.8954 90.8874C37.3454 88.4374 40.71 87.196 44.9894 87.196ZM74.0954 108.103H75.6307C77.4927 108.103 78.9954 107.874 80.0734 107.384C81.184 106.894 82.066 106.045 82.7194 104.836C83.3727 103.595 83.6994 101.994 83.6994 100.034C83.6994 98.1394 83.3727 96.5387 82.6867 95.232C82.0334 93.9254 81.1187 93.0107 79.9754 92.5207C78.832 92.0307 77.3947 91.7694 75.6307 91.7694H74.0954V108.103ZM63.936 112.284V108.103H67.6927V91.7367H63.936V87.5554H75.6307C78.0807 87.5554 80.0734 87.7187 81.576 88.0127C83.0787 88.3067 84.516 88.9927 85.888 90.0054C87.26 91.0507 88.3707 92.4227 89.1874 94.154C90.004 95.8854 90.4287 97.8127 90.4287 99.936C90.4287 101.667 90.1347 103.301 89.5467 104.869C88.9587 106.404 88.24 107.678 87.3907 108.625C86.5414 109.573 85.496 110.324 84.32 110.912C83.1114 111.467 82.0334 111.827 81.0207 111.99C80.0407 112.153 78.4727 112.219 76.382 112.219H63.936V112.284ZM95.2307 112.284V108.103H98.9874V91.7367H95.2307V87.5554H109.179V91.7367H105.39V108.103H109.179V112.284H95.2307ZM116.039 112.284V108.103H119.567V91.7367H116.039V87.5554H129.596V91.7367H126.003V108.103H133.287V100.459H138.089V112.251H116.039V112.284ZM144.623 112.284V108.103H148.151V91.7367H144.623V87.5554H158.179V91.7367H154.586V108.103H161.871V100.459H166.673V112.251H144.623V112.284ZM186.828 100.263L184.77 92.8147L182.549 100.263H186.828ZM197.967 108.103V112.284H185.815V108.103H188.984L187.808 103.856H181.405L180.099 108.103H183.398V112.284H172.455V108.103H175.493L180.295 91.7367H176.995V87.5554H193.133V91.7367H189.801L194.995 108.103H197.967Z" fill="black"/>
</g>
<defs>
<clipPath id="clip0">
<rect width="196" height="25.8067" fill="white" transform="translate(2 87)"/>
</clipPath>
</defs>
</svg>
