<svg width="200" height="200" viewBox="0 0 200 200" fill="none" xmlns="http://www.w3.org/2000/svg">
<rect width="200" height="200" fill="white"/>
<path d="M27.6135 108.777C27.1607 108.626 26.7078 108.475 26.2549 108.324C25.3491 107.972 25.3491 107.921 25.5001 106.965C25.8523 104.499 27.1607 102.487 28.7206 100.625C30.029 99.115 31.3876 97.6054 32.696 96.0958C32.9979 95.7435 33.2998 95.3409 33.5514 94.9384C34.105 94.0326 34.3566 93.1771 33.954 92.1204C33.3502 90.4095 33.4005 88.5476 33.5011 86.7863C33.5011 86.5347 33.5514 86.2328 33.5514 85.8806C33.2495 86.1322 33.1489 86.3838 33.0482 86.6354C32.1425 88.7992 31.287 91.0133 31.1864 93.4287C31.1864 93.5294 31.1864 93.6803 31.0354 93.7307C30.8341 93.781 30.7838 93.63 30.7838 93.4791C30.7335 93.1771 30.6328 92.8752 30.5322 92.4726C30.1799 92.8752 29.9283 93.2274 29.6264 93.5294C29.5258 93.63 29.4754 93.8313 29.3245 93.6803C28.9219 93.4287 28.62 93.1268 28.469 92.6236C28.3684 92.221 28.5193 91.8688 28.8716 91.6172C29.2741 91.3152 29.5761 90.963 30.029 90.7114C30.8341 90.3088 31.1864 89.6546 31.3373 88.7489C31.6392 86.9876 31.8405 85.1761 32.545 83.4651C33.6018 80.7981 35.0108 78.3324 36.5707 75.917C37.4765 74.5583 37.8791 73.0487 37.7784 71.4384C37.7281 70.7842 37.4765 70.5829 36.8223 70.7842C36.6714 70.8345 36.4701 70.9352 36.3191 70.9855C35.4636 71.3881 34.6082 71.4384 33.8031 70.8848C33.0986 70.432 32.3941 70.5326 31.7399 71.0358C31.3373 71.3881 30.9347 71.7403 30.5322 72.0926C29.1735 73.2499 27.6639 73.5519 25.9529 72.7971C25.0472 72.3945 24.0911 72.2435 23.0846 72.5454C22.9337 72.5958 22.7324 72.6461 22.5814 72.7971C22.4808 72.8977 22.4305 73.1493 22.2292 72.9983C22.0782 72.8977 22.1285 72.6964 22.1789 72.5454C22.3298 72.0422 22.6318 71.6397 22.9337 71.2874C23.9401 70.0294 25.1981 69.1739 26.9091 69.1236C27.8652 69.0733 28.6703 68.5198 29.3245 67.8153C29.9283 67.1611 30.5322 66.5069 31.438 66.2553C32.2431 66.054 32.9979 66.0037 33.7527 66.3559C34.9604 66.9095 36.1178 66.9095 37.2752 66.3056C37.3759 66.2553 37.4765 66.205 37.6275 66.1547C38.8352 65.8024 39.1874 66.0037 39.59 67.2617C39.7409 67.6643 39.8919 68.0669 40.1938 68.4191C40.848 69.3249 40.848 70.281 40.5461 71.2874C40.3951 71.7906 39.9422 72.0926 39.59 72.3945C39.3887 72.5454 39.1874 72.7467 39.1874 73.0487C39.2377 74.7093 38.9358 76.3699 39.439 77.9801C40.7474 82.5594 43.6157 85.629 48.3459 86.736C49.151 86.9373 49.9561 86.8367 50.8116 86.887C50.9626 86.887 51.2142 86.7863 51.2645 87.0379C51.3148 87.2895 51.0632 87.3399 50.8619 87.3902C50.711 87.4405 50.56 87.4908 50.3587 87.5412C50.5097 87.8431 50.8619 87.9437 51.0632 88.145C51.2645 88.296 51.5664 88.3966 51.4658 88.7489C51.3148 89.0508 51.0632 89.2521 50.711 89.3024C50.3587 89.3527 50.0568 89.2521 49.8052 89.0005C48.7988 88.0444 47.5407 87.6418 46.2324 87.4908C44.4711 87.2392 43.0118 86.3838 41.6532 85.2264C40.7977 84.4716 40.0932 83.6664 39.439 82.6097C39.3887 82.8613 39.3384 83.0122 39.2881 83.1632C39.0365 87.2895 39.8919 91.114 42.106 94.6868C43.7666 97.3538 45.7795 99.7692 48.0943 101.883C48.5975 102.336 49.151 102.738 49.6542 103.241C49.8555 103.443 50.0065 103.443 50.1574 103.191C50.6103 102.537 51.3148 102.285 52.0193 102.034C52.5225 101.832 52.6232 102.084 52.6232 102.487C52.5225 103.392 52.0193 104.097 51.5161 104.801C50.6103 106.009 49.5033 107.015 48.2955 107.972C47.9936 108.223 47.6917 108.374 47.2388 108.123C43.515 106.412 40.4454 103.845 38.03 100.574C37.9294 100.423 37.7784 100.272 37.6275 100.071C36.8726 101.229 35.7656 101.883 34.7592 102.638C33.4005 103.694 32.4444 105.053 31.5386 106.512C31.3373 106.814 31.3876 106.965 31.7399 107.116C31.9915 107.217 32.2431 107.418 32.4947 107.569C32.6457 107.67 32.8469 107.67 32.8469 107.871C32.8469 108.072 32.5953 108.123 32.4444 108.173C31.8908 108.324 31.3876 108.525 30.8341 108.676C30.7335 108.726 30.6328 108.676 30.5825 108.777C29.5258 108.777 28.5696 108.777 27.6135 108.777ZM51.969 102.386C51.4658 102.587 51.0632 102.839 50.6606 103.191C50.2581 103.543 50.2078 103.795 50.711 104.097C50.8619 104.197 51.0129 104.6 51.2142 104.298C51.6167 103.795 51.9187 103.292 52.1703 102.688C52.1703 102.587 52.2206 102.386 51.969 102.386ZM30.8341 108.223C31.3373 108.072 31.7902 107.921 32.2934 107.77C31.1864 107.015 31.0857 107.015 30.8341 108.223Z" fill="black"/>
<path d="M72.4586 123.339C71.8547 123.339 71.2006 123.339 70.5967 123.39C70.1438 123.44 69.9425 123.289 69.8922 122.886C69.7916 122.182 69.389 121.93 68.6845 121.981C67.8794 122.031 67.1246 121.981 66.3194 121.93C65.8665 121.88 65.6149 122.081 65.5646 122.484C65.464 123.138 65.1117 123.49 64.3569 123.339C64.055 123.289 63.753 123.339 63.4511 123.339C62.8473 123.339 62.7466 123.239 62.9982 122.685C63.4008 121.679 63.8537 120.672 64.2563 119.716C64.9104 118.257 65.5646 116.848 66.1685 115.389C66.3194 115.036 66.5207 114.885 66.9233 114.885C68.7852 114.785 68.8355 114.734 69.54 116.395C70.4458 118.458 71.3012 120.572 72.2573 122.635C72.3076 122.735 72.3076 122.886 72.4586 122.937C72.4586 123.037 72.4586 123.188 72.4586 123.339ZM67.6278 119.867C67.7787 119.867 67.9297 119.917 68.131 119.917C68.4329 119.917 68.5839 119.817 68.4832 119.465C68.3323 118.911 68.131 118.408 67.98 117.854C67.9297 117.703 67.8291 117.603 67.6781 117.603C67.5271 117.603 67.4265 117.754 67.3762 117.854C67.2252 118.207 67.1246 118.508 66.9736 118.861C66.6213 119.817 66.6214 119.817 67.6278 119.867Z" fill="black"/>
<path d="M26.3644 128.522C26.767 127.466 27.3205 126.66 28.1759 126.107C29.8869 125 32.4029 125.201 33.9126 126.56C34.1642 126.811 34.1138 126.962 33.9126 127.164C33.6106 127.465 33.3087 127.767 33.0068 128.069C32.7552 128.321 32.5539 128.22 32.3023 128.069C31.5475 127.566 30.7423 127.516 29.8365 127.818C28.5785 128.271 28.3772 130.032 28.7295 131.038C29.132 132.196 30.2894 132.699 31.4468 132.296C31.7487 132.196 32.101 132.095 32.3023 131.894C32.7552 131.491 33.0571 131.642 33.359 132.095C33.4093 132.196 33.51 132.246 33.5603 132.347C34.3655 133.303 34.3151 133.353 33.2081 133.957C31.5978 134.863 28.9811 134.712 27.5721 133.504C26.5657 132.649 26.1128 131.542 26.1128 130.233C26.1128 129.982 26.1128 129.73 26.1128 129.378C25.7102 130.032 25.3076 130.585 24.6031 130.837C24.2509 130.938 24.5025 131.139 24.6031 131.24C25.1567 131.994 25.7102 132.699 26.3141 133.454C26.4147 133.605 26.616 133.705 26.5657 133.907C26.465 134.108 26.2637 134.007 26.0625 134.058C25.9115 134.058 25.7605 134.058 25.5592 134.058C23.7477 134.058 23.7477 134.058 22.6909 132.498C22.4897 132.196 22.2884 131.894 22.0871 131.592C21.8858 131.24 21.5336 131.189 21.1813 131.29C20.8794 131.391 20.98 131.692 20.98 131.894C20.98 132.447 21.0303 133.001 21.0303 133.504C21.0303 133.856 20.9297 134.058 20.5271 134.007C20.0239 133.957 19.5207 133.957 19.0175 134.007C18.5646 134.007 18.4136 133.806 18.464 133.403C18.6149 131.441 18.3633 129.428 18.5646 127.465C18.6149 127.013 18.5646 126.56 18.5143 126.107C18.5143 125.704 18.6149 125.453 19.1181 125.453C20.5271 125.503 21.8858 125.453 23.2948 125.503C25.0057 125.503 26.0121 126.56 26.3644 128.522ZM21.131 128.371C21.1813 129.428 21.1813 129.428 22.238 129.378C22.4393 129.378 22.6406 129.378 22.8419 129.327C23.5464 129.277 23.798 129.025 23.798 128.422C23.798 127.717 23.5464 127.415 22.8922 127.315C22.6406 127.264 22.389 127.264 22.1877 127.264C21.131 127.365 21.131 127.365 21.131 128.371Z" fill="black"/>
<path d="M54.4435 118.559C53.9403 119.163 53.4371 119.817 52.9339 120.421C52.4307 121.075 52.2797 121.075 51.7262 120.421C51.223 119.817 50.8204 119.112 50.1662 118.508C50.1662 119.364 50.1662 120.169 50.1662 120.924C50.1662 121.528 50.1662 122.182 50.1662 122.786C50.1662 123.188 50.0656 123.339 49.6127 123.339C47.8515 123.39 47.8515 123.39 47.8515 121.679C47.8515 119.565 47.8515 117.452 47.8011 115.338C47.8011 114.936 47.9521 114.734 48.3547 114.835C48.6063 114.885 48.9082 114.936 49.1095 114.835C49.8643 114.634 50.3675 114.936 50.7701 115.59C51.1727 116.143 51.5752 116.697 51.9778 117.25C52.2294 117.552 52.3804 117.552 52.632 117.25C53.1352 116.546 53.6887 115.892 54.1919 115.187C54.3429 114.986 54.4939 114.835 54.7958 114.885C55.299 114.936 55.8525 114.936 56.3557 114.885C56.708 114.885 56.859 114.986 56.8086 115.388C56.6577 117.653 56.9093 119.917 56.7583 122.182C56.6577 123.39 56.7583 123.39 55.5506 123.339C55.45 123.339 55.299 123.339 55.1984 123.339C54.6448 123.39 54.4939 123.138 54.4939 122.584C54.5442 121.226 54.4939 119.917 54.4939 118.559C54.4939 118.559 54.4435 118.559 54.4435 118.559Z" fill="black"/>
<path d="M30.6417 119.163C30.6417 120.32 30.6417 121.477 30.6417 122.635C30.6417 123.339 30.6417 123.39 29.9372 123.39C29.5346 123.39 29.0817 123.39 28.6791 123.39C28.2262 123.44 28.1256 123.188 28.1256 122.836C28.1759 120.873 28.1759 118.911 28.2263 116.948C28.2263 116.445 28.1759 115.892 28.1759 115.388C28.1759 115.036 28.3269 114.885 28.6791 114.936C28.7295 114.936 28.7798 114.936 28.7798 114.936C29.8365 114.734 30.5913 115.187 31.1952 116.093C31.95 117.2 32.8055 118.206 33.7113 119.414C33.7113 118.76 33.7113 118.257 33.7113 117.703C33.7113 116.999 33.7113 116.244 33.6609 115.539C33.6609 115.087 33.8119 114.885 34.2648 114.885C34.768 114.936 35.2209 114.885 35.7241 114.936C36.0764 114.936 36.2273 115.087 36.177 115.489C35.9254 117.703 36.2776 119.917 36.1267 122.132C36.026 123.39 36.026 123.39 34.7177 123.54C34.2145 123.591 33.9125 123.39 33.6106 122.987C32.7048 121.729 31.7487 120.471 30.7926 119.263C30.7926 119.112 30.692 119.112 30.6417 119.163Z" fill="black"/>
<path d="M62.8975 129.68C62.8975 128.472 62.8975 127.214 62.8975 126.006C62.8975 125.553 63.0485 125.402 63.5014 125.402C64.9104 125.453 66.269 125.402 67.678 125.453C68.9361 125.503 69.9425 126.157 70.3954 127.365C70.7476 128.321 70.647 129.327 69.8922 130.133C69.7412 130.284 69.5902 130.485 69.389 130.535C68.7851 130.736 68.7851 131.038 69.1877 131.491C69.6909 132.095 70.1941 132.749 70.6973 133.403C70.7979 133.554 70.9992 133.655 70.8986 133.856C70.7979 134.058 70.5967 133.957 70.3954 133.957C69.8418 133.957 69.2883 133.957 68.6845 134.007C68.3825 134.007 68.1812 133.907 67.98 133.655C67.4767 132.951 66.9735 132.246 66.4703 131.542C66.2187 131.189 65.9168 131.139 65.5645 131.24C65.2123 131.34 65.3633 131.693 65.3633 131.894C65.3633 132.447 65.3633 133.001 65.4136 133.504C65.4136 133.806 65.3129 134.007 64.9607 133.957C64.4575 133.957 64.0046 133.907 63.5014 133.957C62.9982 133.957 62.7969 133.806 62.7969 133.253C62.8975 132.095 62.8975 130.887 62.8975 129.68ZM66.4703 129.378C66.6716 129.378 66.8729 129.378 67.0742 129.378C67.7787 129.327 68.0806 129.076 68.0806 128.472C68.0806 127.818 67.7787 127.415 67.0742 127.365C66.8226 127.365 66.571 127.315 66.3697 127.365C65.5645 127.415 65.2123 127.214 65.4639 128.321C65.5142 128.472 65.5142 128.623 65.4639 128.724C65.3633 129.227 65.6149 129.428 66.0678 129.378C66.1684 129.378 66.3194 129.378 66.4703 129.378Z" fill="black"/>
<path d="M37.7369 118.81C37.8376 115.892 39.5485 114.382 42.3665 114.332C45.2851 114.281 46.7947 116.294 46.7947 118.76C46.7947 121.88 44.9329 123.39 42.4671 123.39C39.5988 123.44 37.7369 121.779 37.7369 118.81ZM40.0517 118.81C40.0517 120.219 41.0078 121.226 42.3162 121.226C43.4736 121.226 44.3793 120.219 44.3793 118.81C44.3793 117.452 43.5239 116.395 42.3162 116.395C40.9575 116.445 40.102 117.351 40.0517 118.81Z" fill="black"/>
<path d="M18.1117 118.81C18.162 115.892 19.9232 114.432 22.6909 114.332C25.3579 114.281 27.1695 116.093 27.1695 118.76C27.1695 121.83 25.3076 123.39 22.7916 123.39C19.9736 123.44 18.0614 121.779 18.1117 118.81ZM24.7541 118.861C24.7541 117.452 23.9489 116.445 22.7412 116.445C21.3826 116.445 20.4265 117.351 20.4265 118.81C20.4265 120.169 21.3826 121.226 22.6909 121.276C23.8986 121.276 24.7541 120.27 24.7541 118.861Z" fill="black"/>
<path d="M2.05924 119.062C2.05924 117.854 2.05924 116.646 2.05924 115.439C2.05924 114.986 2.2102 114.835 2.66309 114.835C4.57529 114.936 6.43718 114.936 8.34938 114.835C8.75195 114.835 8.95324 114.986 8.90291 115.388C8.90291 115.539 8.85259 115.69 8.85259 115.892C8.80227 116.999 8.80227 116.999 7.69521 116.999C6.78942 116.999 5.88365 116.999 4.97787 116.948C4.52498 116.948 4.47465 117.2 4.47465 117.552C4.47465 117.904 4.47465 118.206 4.97787 118.206C5.98429 118.156 6.99071 118.156 7.99714 118.106C8.45003 118.106 8.70163 118.257 8.65131 118.71C8.65131 118.76 8.65131 118.81 8.65131 118.81C8.70163 120.119 8.70163 120.068 7.4436 120.068C6.63846 120.068 5.783 120.119 4.97787 120.068C4.42433 120.018 4.52497 120.471 4.52497 120.773C4.47465 121.125 4.52498 121.326 4.97787 121.326C6.13525 121.276 7.29264 121.326 8.3997 121.276C8.90291 121.276 9.1042 121.427 9.1042 121.981C9.05388 123.591 9.15452 123.339 7.79585 123.339C6.08493 123.39 4.42433 123.389 2.76373 123.44C2.10956 123.44 1.95859 123.289 2.00892 122.635C2.10956 121.427 2.00891 120.219 2.05924 119.062Z" fill="black"/>
<path d="M38.1395 128.271C38.1395 129.026 38.1395 129.78 38.1395 130.585C38.1898 131.592 38.5924 132.196 39.3472 132.296C40.404 132.498 41.2594 131.894 41.2594 130.787C41.3097 129.327 41.3601 127.818 41.2594 126.308C41.2091 125.402 41.3097 125.352 42.2155 125.453C42.5175 125.503 42.8194 125.453 43.1213 125.453C43.5742 125.402 43.7755 125.604 43.7755 126.006C43.7755 127.667 43.8258 129.327 43.7252 130.988C43.5742 133.253 42.0646 134.511 39.8001 134.46C38.2402 134.41 36.9318 134.007 36.2273 132.498C35.9757 131.994 35.8247 131.441 35.7744 130.887C35.7744 129.227 35.7744 127.566 35.7744 125.906C35.7744 125.553 35.8751 125.402 36.2776 125.402C36.7305 125.402 37.1834 125.453 37.6866 125.402C38.0892 125.402 38.2401 125.553 38.2401 125.956C38.1395 126.761 38.1898 127.516 38.1395 128.271C38.1898 128.271 38.1898 128.271 38.1395 128.271Z" fill="black"/>
<path d="M57.7647 125.402C58.4692 125.251 58.9724 125.553 59.3247 126.409C60.2305 128.724 61.2872 130.938 62.2433 133.202C62.5452 133.856 62.4446 134.007 61.6898 133.957C61.5891 133.957 61.4885 133.907 61.3878 133.957C60.4317 134.158 59.7776 133.957 59.5763 132.85C59.526 132.598 59.3247 132.598 59.1234 132.548C58.117 132.548 57.0602 132.548 56.0538 132.498C55.7016 132.498 55.6512 132.749 55.5506 133.001C55.2487 133.907 55.3493 134.007 54.2422 133.907C53.9906 133.907 53.739 133.907 53.4874 133.957C52.8332 134.007 52.7326 133.856 52.9842 133.252C53.4371 132.145 53.9403 131.089 54.3932 129.982C54.9467 128.774 55.5506 127.566 56.0035 126.308C56.2551 125.654 56.6073 125.352 57.2615 125.453C57.3622 125.402 57.4628 125.402 57.7647 125.402ZM57.5634 130.485C57.7647 130.485 57.9157 130.485 58.117 130.485C58.3686 130.485 58.4692 130.334 58.4189 130.082C58.2679 129.529 58.0666 128.975 57.8654 128.422C57.815 128.271 57.7647 128.17 57.5634 128.17C57.4125 128.17 57.3118 128.321 57.2615 128.422C57.1105 128.774 57.0099 129.076 56.8589 129.428C56.557 130.384 56.4061 130.485 57.5634 130.485Z" fill="black"/>
<path d="M12.526 118.961C12.526 121.025 14.2369 121.93 16.1491 120.874C16.904 120.421 16.904 120.421 17.4575 121.125C18.3129 122.132 18.2626 122.182 17.1052 122.836C15.7969 123.591 12.9789 123.641 11.5196 122.333C10.1106 121.125 9.60739 118.81 10.5635 116.747C11.8215 114.08 15.5956 113.376 17.8097 115.439C18.0613 115.64 18.011 115.841 17.8097 116.043C17.5078 116.345 17.2059 116.647 16.904 116.999C16.6523 117.25 16.5014 117.099 16.2498 116.949C15.7466 116.596 15.1427 116.395 14.5389 116.496C13.1299 116.697 12.526 117.502 12.526 118.961Z" fill="black"/>
<path d="M10.4628 134.46C7.74551 134.511 5.98427 133.303 5.63202 130.988C5.07848 127.566 7.39326 125 10.8654 125.402C11.7712 125.503 12.4757 125.956 13.1802 126.459C13.4821 126.711 13.4821 126.912 13.2305 127.164C13.1802 127.214 13.1802 127.214 13.1299 127.264C12.5763 127.969 12.0731 128.422 11.0667 127.768C10.3119 127.264 9.00354 127.617 8.50033 128.271C7.79583 129.126 7.74551 130.133 8.14808 131.139C8.45 131.995 9.20482 132.447 10.1106 132.447C10.7145 132.447 11.3183 132.196 11.7712 131.844C12.1738 131.542 12.4254 131.642 12.677 131.995C12.8279 132.196 12.9789 132.347 13.1299 132.548C13.6834 133.202 13.6834 133.202 13.0292 133.705C12.1738 134.309 11.1673 134.46 10.4628 134.46Z" fill="black"/>
<path d="M45.2852 129.68C45.2852 128.472 45.2852 127.214 45.2852 126.006C45.2852 125.553 45.4361 125.402 45.889 125.453C46.2916 125.503 46.6942 125.503 47.0967 125.453C47.449 125.453 47.6 125.604 47.6 125.956C47.6 127.768 47.6 129.579 47.5496 131.391C47.5496 131.844 47.6503 132.045 48.1535 131.994C49.009 131.944 49.8644 132.045 50.6696 131.894C51.1224 131.844 51.374 131.944 51.3237 132.447C51.2734 132.749 51.3237 133.102 51.3237 133.403C51.374 133.907 51.1224 134.058 50.6696 134.007C49.0593 133.856 47.449 134.007 45.8387 134.007C45.4361 134.007 45.2349 133.907 45.2349 133.454C45.2852 132.145 45.2852 130.887 45.2852 129.68Z" fill="black"/>
<path d="M14.5891 129.68C14.5891 128.422 14.5891 127.214 14.5891 125.956C14.5891 125.553 14.6898 125.352 15.0923 125.402C15.5955 125.453 16.0484 125.453 16.5516 125.402C17.0045 125.352 17.1052 125.604 17.1052 125.956C17.1052 127.214 17.1555 128.522 17.1052 129.78C17.0548 131.038 17.1555 132.246 17.0548 133.504C17.0045 133.907 16.9039 134.007 16.5516 133.957C16.4007 133.957 16.2497 133.957 16.0484 133.957C14.6394 133.907 14.6394 133.907 14.5891 132.498C14.5891 131.592 14.5891 130.636 14.5891 129.68Z" fill="black"/>
<path d="M59.3751 118.961C59.3751 117.703 59.3751 116.496 59.3751 115.237C59.3751 114.936 59.4254 114.785 59.7777 114.785C60.2306 114.785 60.6835 114.785 61.1867 114.734C61.5893 114.684 61.7402 114.835 61.7402 115.288C61.7402 116.596 61.7402 117.854 61.7402 119.163C61.7402 120.37 61.6899 121.628 61.7402 122.836C61.7402 123.339 61.5389 123.54 61.086 123.44C60.9351 123.44 60.7841 123.39 60.6835 123.39C59.5261 123.339 59.5261 123.339 59.4758 122.182C59.3751 121.075 59.3751 120.018 59.3751 118.961Z" fill="black"/>
<path d="M62.3943 111.916C62.0923 112.52 61.6898 112.973 61.2872 113.476C61.1866 113.627 60.9853 113.678 60.784 113.627C60.4317 113.627 60.0795 113.577 59.6769 113.577C59.375 113.577 59.2744 113.476 59.4253 113.174C59.6769 112.721 59.7776 112.168 60.1298 111.816C60.3311 111.765 62.042 111.816 62.3943 111.916Z" fill="black"/>
<path d="M94.2744 131.278C93.0865 131.278 92.0215 130.186 92.0215 127.606C92.0215 126.022 92.5267 123.892 94.2607 123.892C95.2438 123.892 96.1859 125.025 96.2405 125.08C96.2951 125.134 96.3634 125.175 96.4589 125.175C96.6228 125.175 96.7457 125.052 96.7457 124.888V122.799C96.7457 122.69 96.691 122.595 96.5955 122.54C95.749 122.008 95.1619 121.694 93.9467 121.694C92.5404 121.694 89.8916 122.595 89.8916 127.592C89.8916 131.783 91.8441 133.463 93.933 133.463C95.0663 133.463 95.8991 133.067 96.6091 132.562C96.7047 132.493 96.7457 132.398 96.7457 132.33C96.7457 132.248 96.7457 130.323 96.7457 130.323C96.7457 130.159 96.6228 130.036 96.4589 130.036C96.063 130.036 95.5851 131.278 94.2744 131.278Z" fill="black"/>
<path d="M107.86 126.267C107.573 126.267 106.767 126.349 106.767 127.018C106.767 127.632 107.423 127.728 107.778 127.809C110.604 128.492 110.372 130.335 110.372 131.086C110.372 131.851 109.826 133.462 107.273 133.462C105.934 133.462 104.938 132.861 104.938 132.861C104.842 132.807 104.788 132.711 104.788 132.615V130.922C104.788 130.731 105.033 130.486 105.293 130.731C105.293 130.731 105.812 131.373 107.081 131.564C107.75 131.66 108.433 131.4 108.433 130.868C108.433 130.404 108.215 130.062 107.505 129.967C106.945 129.898 104.829 129.83 104.829 127.222C104.829 124.819 106.931 124.451 107.873 124.451C108.938 124.451 109.757 124.86 109.935 124.956C110.058 125.024 110.126 125.106 110.126 125.229V126.731C110.126 127.004 109.853 127.072 109.662 126.977C109.457 126.854 108.897 126.267 107.86 126.267Z" fill="black"/>
<path d="M111.164 126.157C111.164 126.321 111.287 126.444 111.451 126.444H111.956V130.895C111.956 133.23 113.417 133.462 114.168 133.462C114.632 133.462 114.987 133.38 115.451 133.284C115.574 133.257 115.656 133.134 115.656 133.011V131.742C115.656 131.578 115.492 131.414 115.287 131.469C115.151 131.496 114.7 131.632 114.263 131.455C113.908 131.318 113.867 130.84 113.867 130.622C113.867 130.404 113.867 126.43 113.867 126.43H115.369C115.519 126.43 115.642 126.308 115.656 126.157V124.86C115.656 124.696 115.519 124.574 115.369 124.574H113.881V121.938C113.881 121.775 113.744 121.652 113.594 121.652L112.215 121.816C112.079 121.829 111.969 121.952 111.956 122.089V124.56H111.451C111.287 124.574 111.164 124.696 111.164 124.847V126.157Z" fill="black"/>
<path d="M144.71 131.277C144.71 131.277 141.679 131.277 141.666 131.277C141.638 131.277 141.393 131.264 141.379 131.004C141.379 130.745 141.379 122.007 141.379 122.007C141.379 121.816 141.242 121.652 141.065 121.679L139.645 121.843C139.467 121.857 139.344 121.979 139.344 122.143C139.344 122.143 139.344 133.162 139.344 133.175C139.344 133.339 139.467 133.476 139.631 133.476H144.724C144.915 133.476 145.052 133.339 145.052 133.148V131.619C145.052 131.387 144.97 131.277 144.71 131.277Z" fill="black"/>
<path d="M163.156 122.048C163.156 121.897 163.047 121.775 162.883 121.775H160.999C160.862 121.775 160.753 121.87 160.726 121.979L159.156 127.332C159.128 127.4 159.087 127.454 159.006 127.454C158.924 127.454 158.883 127.4 158.855 127.332L157.285 121.979C157.244 121.857 157.135 121.775 157.012 121.775H155.128C154.964 121.775 154.841 121.897 154.841 122.048C154.841 122.048 154.841 133.148 154.841 133.162C154.841 133.325 154.978 133.476 155.142 133.476H156.439C156.657 133.476 156.78 133.353 156.78 133.148V125.857L158.186 130.608C158.227 130.718 158.282 130.772 158.418 130.772H159.552C159.688 130.772 159.784 130.731 159.811 130.608L161.217 125.857V133.189C161.217 133.339 161.327 133.462 161.49 133.462H162.856C163.02 133.462 163.143 133.339 163.143 133.162L163.156 122.048Z" fill="black"/>
<path d="M137.242 128.506C137.242 128.342 137.119 128.219 136.955 128.219H134.593C134.429 128.219 134.307 128.315 134.307 128.506V130.13C134.307 130.294 134.402 130.403 134.607 130.403H136.969C137.146 130.403 137.256 130.294 137.256 130.117C137.242 130.117 137.242 128.506 137.242 128.506Z" fill="black"/>
<path d="M121.677 133.462C121.855 133.462 121.964 133.339 121.964 133.189V121.952C121.964 121.788 121.841 121.638 121.677 121.665L120.339 121.816C120.148 121.843 120.052 121.952 120.052 122.102V133.162C120.052 133.339 120.175 133.462 120.339 133.462H121.677Z" fill="black"/>
<path d="M124.844 133.462C125.022 133.462 125.131 133.339 125.131 133.189V121.952C125.131 121.788 125.008 121.638 124.844 121.665L123.506 121.816C123.315 121.843 123.22 121.952 123.22 122.102V133.162C123.22 133.339 123.343 133.462 123.506 133.462H124.844Z" fill="black"/>
<path d="M118.523 123.604C118.673 123.604 118.796 123.481 118.81 123.331V121.952C118.81 121.788 118.687 121.652 118.523 121.665L117.185 121.816C117.021 121.829 116.898 121.952 116.898 122.102V123.304C116.898 123.468 117.021 123.604 117.185 123.604H118.523Z" fill="black"/>
<path d="M116.898 133.162C116.898 133.353 117.021 133.462 117.185 133.462H118.537C118.714 133.462 118.823 133.353 118.823 133.175L118.81 124.874C118.81 124.71 118.7 124.587 118.537 124.587H117.185C116.994 124.587 116.898 124.71 116.898 124.874V133.162Z" fill="black"/>
<path d="M101.579 127.714C101.811 127.687 101.838 127.482 101.838 127.4C101.838 126.594 101.005 126.417 100.268 126.417C99.4626 126.417 98.8482 126.922 98.6161 126.922C98.4523 126.922 98.3294 126.785 98.3294 126.635V125.256C98.3294 125.01 98.425 124.942 98.5615 124.901C98.739 124.847 99.6538 124.56 100.664 124.56C103.709 124.56 103.709 126.485 103.709 127.495C103.709 127.495 103.709 132.97 103.709 132.984C103.695 133.134 103.586 133.244 103.436 133.257L102.289 133.325C102.234 133.325 101.825 133.366 101.77 132.848C101.77 132.779 101.429 133.476 99.8313 133.476C99.1486 133.476 97.8105 132.861 97.8105 130.827C97.8242 127.96 100.091 127.864 101.579 127.714ZM101.838 129.584C101.838 129.421 101.688 129.284 101.524 129.311C101.511 129.311 100.896 129.38 100.336 129.571C100.145 129.639 99.9951 129.776 99.8995 129.939C99.7084 130.267 99.722 130.759 99.7767 131.004C99.8313 131.25 100.091 131.673 100.746 131.619C100.937 131.605 101.838 131.359 101.838 130.909V129.584V129.584Z" fill="black"/>
<path d="M129.951 127.714C130.169 127.687 130.21 127.482 130.21 127.4C130.21 126.594 129.378 126.417 128.64 126.417C127.835 126.417 127.207 126.922 126.988 126.922C126.824 126.922 126.701 126.785 126.701 126.635V125.256C126.701 125.01 126.797 124.942 126.934 124.901C127.111 124.847 128.026 124.56 129.036 124.56C132.081 124.56 132.081 126.485 132.081 127.495C132.081 127.495 132.081 132.97 132.081 132.984C132.067 133.134 131.958 133.244 131.808 133.257L130.661 133.325C130.606 133.325 130.197 133.366 130.142 132.848C130.142 132.779 129.801 133.476 128.203 133.476C127.521 133.476 126.183 132.861 126.183 130.827C126.196 127.96 128.463 127.864 129.951 127.714ZM130.21 129.584C130.21 129.421 130.06 129.284 129.896 129.311C129.883 129.311 129.268 129.38 128.709 129.571C128.517 129.639 128.367 129.776 128.272 129.939C128.08 130.267 128.094 130.759 128.149 131.004C128.203 131.25 128.463 131.673 129.118 131.619C129.309 131.605 130.21 131.359 130.21 130.909V129.584Z" fill="black"/>
<path d="M149.653 127.714C149.871 127.687 149.912 127.482 149.912 127.4C149.912 126.594 149.08 126.417 148.356 126.417C147.55 126.417 146.922 126.922 146.704 126.922C146.54 126.922 146.417 126.785 146.417 126.635V125.256C146.417 125.01 146.513 124.942 146.649 124.901C146.827 124.847 147.742 124.56 148.752 124.56C151.797 124.56 151.797 126.485 151.797 127.495C151.797 127.495 151.797 132.97 151.797 132.984C151.783 133.134 151.674 133.244 151.524 133.257L150.377 133.325C150.322 133.325 149.912 133.366 149.858 132.848C149.858 132.779 149.516 133.476 147.919 133.476C147.236 133.476 145.898 132.861 145.898 130.827C145.898 127.96 148.165 127.864 149.653 127.714ZM149.912 129.584C149.912 129.421 149.762 129.284 149.598 129.311C149.585 129.311 148.97 129.38 148.397 129.571C148.206 129.639 148.056 129.776 147.96 129.939C147.769 130.267 147.783 130.759 147.837 131.004C147.892 131.25 148.151 131.673 148.807 131.619C148.998 131.605 149.885 131.359 149.885 130.909L149.912 129.584Z" fill="black"/>
<path d="M167.99 127.714C168.222 127.687 168.249 127.482 168.249 127.4C168.249 126.594 167.416 126.417 166.692 126.417C165.887 126.417 165.273 126.922 165.04 126.922C164.877 126.922 164.754 126.785 164.754 126.635V125.256C164.754 125.01 164.849 124.942 164.986 124.901C165.163 124.847 166.078 124.56 167.088 124.56C170.133 124.56 170.133 126.485 170.133 127.495C170.133 127.495 170.133 132.97 170.133 132.984C170.12 133.134 170.01 133.244 169.86 133.257L168.713 133.325C168.659 133.325 168.235 133.366 168.194 132.848C168.194 132.779 167.853 133.476 166.256 133.476C165.573 133.476 164.235 132.861 164.235 130.827C164.235 127.96 166.501 127.864 167.99 127.714ZM168.249 129.584C168.249 129.421 168.099 129.284 167.935 129.311C167.921 129.311 167.307 129.38 166.733 129.571C166.542 129.639 166.392 129.776 166.297 129.939C166.105 130.267 166.119 130.759 166.174 131.004C166.228 131.25 166.488 131.673 167.143 131.619C167.334 131.605 168.235 131.359 168.235 130.909V129.584H168.249Z" fill="black"/>
<path d="M195.856 127.714C196.075 127.687 196.116 127.482 196.116 127.4C196.116 126.594 195.283 126.417 194.559 126.417C193.754 126.417 193.139 126.922 192.907 126.922C192.743 126.922 192.621 126.785 192.621 126.635V125.256C192.621 125.01 192.716 124.942 192.853 124.901C193.03 124.847 193.945 124.56 194.955 124.56C198.014 124.56 198 126.485 198 127.495C198 127.495 198 132.97 198 132.984C197.986 133.134 197.877 133.244 197.727 133.257L196.58 133.325C196.525 133.325 196.116 133.366 196.061 132.848C196.061 132.779 195.72 133.476 194.122 133.476C193.44 133.476 192.102 132.861 192.102 130.827C192.102 127.96 194.382 127.864 195.856 127.714ZM196.129 129.584C196.129 129.421 195.979 129.284 195.815 129.311C195.802 129.311 195.187 129.38 194.614 129.571C194.423 129.639 194.273 129.776 194.177 129.939C193.986 130.267 194 130.759 194.054 131.004C194.109 131.25 194.368 131.673 195.024 131.619C195.215 131.605 196.102 131.359 196.102 130.909L196.129 129.584Z" fill="black"/>
<path d="M185.111 133.38C185.029 133.298 185.029 133.23 185.029 133.189C185.029 133.148 185.029 122.17 185.029 122.17C185.029 122.17 185.016 122.075 185.097 121.993C185.193 121.897 185.343 121.897 185.343 121.897C185.343 121.897 186.558 121.761 186.668 121.761C186.668 121.761 186.763 121.747 186.859 121.829C186.941 121.897 186.941 121.993 186.941 121.993V125.638C187.378 124.874 187.992 124.478 188.879 124.478C190.327 124.478 191.023 125.27 191.023 127.045C191.023 127.045 191.023 133.066 191.023 133.189C191.023 133.298 191.023 133.353 190.941 133.421C190.832 133.503 190.723 133.503 190.723 133.503H189.357C189.357 133.503 189.234 133.503 189.153 133.421C189.084 133.339 189.084 133.284 189.084 133.23C189.084 133.175 189.084 128.151 189.084 128.151C189.084 127.25 188.798 126.895 188.101 126.895C187.309 126.895 186.941 127.386 186.941 128.383C186.941 128.383 186.941 133.216 186.941 133.271C186.941 133.312 186.941 133.366 186.859 133.435C186.79 133.503 186.681 133.503 186.681 133.503C186.681 133.503 185.357 133.503 185.33 133.503C185.302 133.462 185.193 133.462 185.111 133.38Z" fill="black"/>
<path d="M171.43 133.38C171.348 133.298 171.348 133.203 171.348 133.203V124.874C171.348 124.874 171.335 124.778 171.417 124.696C171.512 124.601 171.662 124.601 171.662 124.601C171.662 124.601 172.878 124.464 172.987 124.464C172.987 124.464 173.082 124.451 173.178 124.533C173.26 124.601 173.26 124.696 173.26 124.696V125.625C173.697 124.86 174.311 124.464 175.199 124.464C176.646 124.464 177.342 125.256 177.342 127.031V133.216C177.342 133.243 177.342 133.339 177.26 133.394C177.151 133.476 177.042 133.476 177.042 133.476H175.677C175.677 133.476 175.554 133.476 175.472 133.394C175.403 133.312 175.403 133.243 175.403 133.203C175.403 133.162 175.403 128.123 175.403 128.123C175.403 127.222 175.117 126.867 174.42 126.867C173.629 126.867 173.26 127.359 173.26 128.356C173.26 128.356 173.26 133.093 173.26 133.175C173.26 133.271 173.26 133.325 173.178 133.394C173.11 133.462 173 133.462 173 133.462H171.621C171.621 133.462 171.512 133.462 171.43 133.38Z" fill="black"/>
<path d="M181.889 124.519C180.81 124.519 178.421 125.147 178.421 129.025C178.421 133.039 181.042 133.462 181.943 133.462C183.063 133.462 183.8 132.902 183.814 132.902C183.937 132.82 183.964 132.725 183.964 132.465V131.018C183.964 130.636 183.65 130.636 183.432 130.895C183.241 131.114 182.968 131.537 181.998 131.537C181.479 131.537 180.387 131.291 180.387 129.052C180.387 126.772 181.452 126.485 181.971 126.485C182.872 126.485 183.336 127.072 183.473 127.277C183.609 127.482 183.964 127.345 183.964 127.127C183.964 127.127 183.964 125.475 183.964 125.461C183.978 124.942 183.077 124.519 181.889 124.519Z" fill="black"/>
<path d="M155.032 83.5038H132.859C131.576 83.5038 130.538 84.5279 130.538 85.7567V107.561C130.538 110.36 132.054 112.599 134.894 114.033C137.174 115.166 140.3 115.767 143.946 115.767C147.591 115.767 150.718 115.166 152.998 114.033C155.852 112.613 157.354 110.374 157.354 107.561V85.7703C157.354 84.5279 156.316 83.5038 155.032 83.5038ZM141.543 102.496C141.543 102.824 141.283 103.097 140.969 103.11C140.956 103.11 140.928 103.11 140.928 103.11H138.498V100.885C138.498 100.243 137.979 99.7242 137.338 99.7242C136.696 99.7242 136.177 100.243 136.177 100.885V100.912V103.097H133.76C133.747 103.097 133.719 103.097 133.706 103.097C133.392 103.069 133.146 102.796 133.146 102.482C133.146 102.441 133.146 102.373 133.146 102.373L133.706 96.2426V94.454H135.467V96.2016H136.464V92.7063H138.225V96.2016H139.208V94.454H140.969V96.2153L141.543 102.373C141.543 102.373 141.543 102.455 141.543 102.496ZM155.674 106.797C155.674 113.869 145.325 114.033 145.311 114.019C144.178 114.06 144.246 112.777 144.246 112.777V86.4803C144.246 85.7703 144.738 85.1969 145.366 85.1969H154.541C155.114 85.1969 155.606 85.6884 155.674 86.3165V87.3951V106.797Z" fill="black"/>
<path d="M152.288 71.5024C151.346 71.5024 150.499 71.8574 149.844 72.4171C149.134 71.6662 148.124 71.2156 147.004 71.2156C145.789 71.2156 144.669 71.7754 143.959 72.6356C143.222 71.7618 142.13 71.2156 140.901 71.2156C139.781 71.2156 138.771 71.6662 138.047 72.4171C137.406 71.8437 136.546 71.5024 135.617 71.5024C133.583 71.5024 131.944 73.1408 131.944 75.1752C131.944 76.008 132.245 76.7726 132.709 77.4007C132.941 77.7147 133.241 77.9468 133.637 77.9605C134.184 77.9741 134.839 77.4007 134.511 76.6907C134.402 76.4722 133.897 75.9397 133.924 75.1888C133.951 74.2331 134.661 73.4548 135.617 73.4548C136.218 73.4548 136.791 73.7825 137.105 74.2467C137.037 74.5471 136.982 74.8611 136.982 75.1888C136.982 76.0353 137.256 76.677 137.256 76.677C137.447 77.1686 137.788 77.5236 138.334 77.5099C138.962 77.5099 139.454 77.032 139.454 76.3903C139.454 76.2128 139.345 75.8988 139.304 75.7896C139.222 75.5984 139.181 75.38 139.181 75.1615C139.181 74.2058 139.959 73.4412 140.901 73.4412C141.843 73.4412 142.635 74.2194 142.635 75.1615C142.635 75.1615 142.635 76.4995 142.635 76.5132C142.635 77.2505 143.236 77.8376 143.959 77.8512C144.697 77.8512 145.284 77.2505 145.284 76.5268C145.284 76.5132 145.297 75.1752 145.297 75.1752C145.297 74.2194 146.062 73.4548 147.018 73.4548C147.974 73.4548 148.752 74.2194 148.752 75.1752C148.752 75.3936 148.711 75.5984 148.629 75.8032C148.588 75.9124 148.492 76.2401 148.479 76.404C148.465 77.032 148.957 77.5099 149.598 77.5236C150.131 77.5236 150.486 77.1686 150.677 76.6907C150.677 76.6907 150.95 76.049 150.95 75.2025C150.95 74.8748 150.909 74.5607 150.827 74.2604C151.141 73.7961 151.715 73.4685 152.315 73.4685C153.271 73.4685 154.008 74.2604 154.022 75.2025C154.022 75.9534 153.531 76.4859 153.435 76.7043C153.094 77.4143 153.749 77.9741 154.295 77.9741C154.705 77.9605 155.005 77.742 155.224 77.4143C155.701 76.7999 156.002 76.0217 156.002 75.1888C155.974 73.1544 154.322 71.5024 152.288 71.5024Z" fill="black"/>
<path d="M147.619 80.5957C147.619 81.2647 148.151 81.8108 148.834 81.8108C149.503 81.8108 150.049 81.2647 150.049 80.5957C150.049 79.9266 149.503 79.3805 148.834 79.3805C148.165 79.3805 147.619 79.9266 147.619 80.5957Z" fill="black"/>
<path d="M137.87 80.5957C137.87 81.2647 138.416 81.8108 139.085 81.8108C139.754 81.8108 140.3 81.2647 140.3 80.5957C140.3 79.9266 139.754 79.3805 139.085 79.3805C138.416 79.3805 137.87 79.9266 137.87 80.5957Z" fill="black"/>
<path d="M152.479 80.5957C152.479 81.2647 153.025 81.8108 153.694 81.8108C154.363 81.8108 154.91 81.2647 154.91 80.5957C154.91 79.9266 154.363 79.3805 153.694 79.3805C153.025 79.3805 152.479 79.9266 152.479 80.5957Z" fill="black"/>
<path d="M142.731 80.5957C142.731 81.2647 143.277 81.8109 143.946 81.8109C144.615 81.8109 145.161 81.2647 145.161 80.5957C145.161 79.9267 144.615 79.3806 143.946 79.3806C143.277 79.3806 142.731 79.9267 142.731 80.5957Z" fill="black"/>
<path d="M132.982 80.5957C132.982 81.2647 133.528 81.8108 134.197 81.8108C134.866 81.8108 135.412 81.2647 135.412 80.5957C135.412 79.9266 134.866 79.3805 134.197 79.3805C133.515 79.3805 132.982 79.9266 132.982 80.5957Z" fill="black"/>
<path d="M145.598 67.6521H144.492V66.5461C144.492 66.2458 144.246 66 143.946 66C143.645 66 143.4 66.2458 143.4 66.5461V67.6521H142.307C142.007 67.6521 141.748 67.8978 141.748 68.1982C141.748 68.4986 142.007 68.7444 142.307 68.7444H143.4V69.8366C143.4 70.137 143.645 70.3964 143.946 70.3964C144.246 70.3964 144.492 70.137 144.492 69.8366V68.7444H145.598C145.898 68.7444 146.144 68.4986 146.144 68.1982C146.144 67.8978 145.898 67.6521 145.598 67.6521Z" fill="black"/>
</svg>
