<svg width="200" height="200" viewBox="0 0 200 200" fill="none" xmlns="http://www.w3.org/2000/svg">
<rect width="200" height="200" fill="white"/>
<g clip-path="url(#clip0)">
<path d="M192.28 115.665H196.74V114.495H193.594V108.28H192.28V115.665ZM178.77 112.839L179.928 109.836L181.066 112.839H178.77ZM176.176 115.665H177.643L178.317 113.976H181.518L182.202 115.665H183.704L180.524 108.28H179.388L176.176 115.665ZM161.097 115.665H162.41V109.958H162.432L165.943 115.665H167.609V108.28H166.296V113.81H166.274L162.841 108.28H161.097V115.665ZM145.643 110.885C145.765 110.554 145.941 110.278 146.162 110.035C146.383 109.792 146.648 109.605 146.957 109.461C147.266 109.318 147.608 109.251 147.994 109.251C148.38 109.251 148.723 109.318 149.043 109.461C149.352 109.605 149.628 109.792 149.849 110.035C150.07 110.278 150.247 110.565 150.367 110.885C150.489 111.216 150.555 111.569 150.555 111.945C150.555 112.342 150.5 112.706 150.367 113.038C150.247 113.369 150.07 113.656 149.849 113.899C149.617 114.141 149.352 114.329 149.043 114.473C148.734 114.605 148.392 114.671 148.016 114.671C147.642 114.671 147.299 114.605 146.99 114.473C146.681 114.34 146.415 114.152 146.184 113.899C145.952 113.656 145.787 113.369 145.665 113.038C145.544 112.706 145.478 112.342 145.478 111.945C145.466 111.558 145.521 111.205 145.643 110.885ZM144.33 113.523C144.528 113.998 144.804 114.406 145.157 114.759C145.511 115.102 145.93 115.367 146.405 115.565C146.89 115.753 147.409 115.852 147.983 115.852C148.557 115.852 149.099 115.753 149.584 115.565C150.07 115.378 150.489 115.102 150.842 114.759C151.196 114.417 151.472 114.009 151.67 113.523C151.869 113.049 151.968 112.519 151.968 111.945C151.968 111.36 151.869 110.819 151.67 110.344C151.472 109.87 151.196 109.461 150.842 109.13C150.489 108.799 150.07 108.534 149.584 108.357C149.099 108.181 148.568 108.092 147.983 108.092C147.409 108.092 146.89 108.181 146.405 108.357C145.919 108.534 145.5 108.799 145.157 109.13C144.804 109.461 144.528 109.87 144.33 110.344C144.131 110.819 144.032 111.349 144.032 111.945C144.032 112.519 144.131 113.049 144.33 113.523ZM133.6 115.665H134.914V108.28H133.6V115.665ZM124.824 109.207C124.682 109.008 124.505 108.843 124.294 108.711C124.085 108.567 123.865 108.457 123.621 108.357C123.39 108.258 123.136 108.192 122.882 108.148C122.628 108.103 122.374 108.081 122.142 108.081C121.569 108.081 121.049 108.17 120.553 108.346C120.067 108.523 119.647 108.788 119.283 109.119C118.93 109.45 118.643 109.859 118.444 110.333C118.235 110.808 118.135 111.338 118.135 111.934C118.135 112.508 118.235 113.037 118.422 113.512C118.621 113.987 118.886 114.395 119.239 114.748C119.592 115.091 120.001 115.356 120.486 115.554C120.972 115.753 121.502 115.841 122.076 115.841C122.705 115.841 123.268 115.731 123.732 115.499C124.207 115.267 124.604 114.958 124.936 114.55L123.875 113.81C123.688 114.064 123.445 114.274 123.136 114.428C122.827 114.583 122.473 114.66 122.087 114.66C121.701 114.66 121.358 114.594 121.049 114.462C120.74 114.329 120.486 114.141 120.265 113.899C120.045 113.656 119.879 113.369 119.758 113.038C119.637 112.706 119.582 112.331 119.582 111.934C119.582 111.547 119.647 111.194 119.769 110.874C119.891 110.543 120.067 110.267 120.288 110.024C120.509 109.781 120.785 109.594 121.094 109.45C121.403 109.307 121.756 109.24 122.142 109.24C122.441 109.24 122.75 109.296 123.059 109.417C123.368 109.538 123.621 109.726 123.82 110.002L124.824 109.207ZM105.166 112.839L106.324 109.836L107.462 112.839H105.166ZM102.571 115.665H104.039L104.701 113.976H107.903L108.587 115.665H110.089L106.909 108.28H105.772L102.571 115.665ZM87.4927 115.665H88.8062V109.958H88.8283L92.3386 115.665H94.0054V108.28H92.6918V113.81H92.6697L89.2368 108.28H87.4927V115.665ZM65.8573 110.885C65.9788 110.554 66.1554 110.278 66.3762 110.035C66.5969 109.792 66.8619 109.605 67.1709 109.461C67.48 109.318 67.8222 109.251 68.2086 109.251C68.5949 109.251 68.9371 109.318 69.2462 109.461C69.5553 109.605 69.8312 109.792 70.0519 110.035C70.2728 110.278 70.4493 110.565 70.5708 110.885C70.6922 111.216 70.7584 111.569 70.7584 111.945C70.7584 112.342 70.6922 112.706 70.5708 113.038C70.4493 113.369 70.2728 113.656 70.0519 113.899C69.8202 114.141 69.5553 114.329 69.2462 114.473C68.9371 114.605 68.5839 114.671 68.2196 114.671C67.8443 114.671 67.5021 114.605 67.193 114.473C66.884 114.34 66.619 114.152 66.3872 113.899C66.1554 113.656 65.9898 113.369 65.8684 113.038C65.747 112.706 65.6808 112.342 65.6808 111.945C65.6697 111.558 65.7249 111.205 65.8573 110.885ZM64.5327 113.523C64.7314 113.998 65.0074 114.406 65.3607 114.759C65.7139 115.102 66.1334 115.367 66.608 115.565C67.0937 115.753 67.6235 115.852 68.1865 115.852C68.7605 115.852 69.3013 115.753 69.787 115.565C70.2728 115.378 70.6922 115.102 71.0455 114.759C71.3986 114.417 71.6746 114.009 71.8733 113.523C72.072 113.049 72.1713 112.519 72.1713 111.945C72.1713 111.36 72.072 110.819 71.8733 110.344C71.6746 109.87 71.3986 109.461 71.0455 109.13C70.6922 108.799 70.2728 108.534 69.787 108.357C69.3013 108.181 68.7716 108.092 68.1865 108.092C67.6125 108.092 67.0937 108.181 66.608 108.357C66.1223 108.534 65.7029 108.799 65.3607 109.13C65.0074 109.461 64.7314 109.87 64.5327 110.344C64.334 110.819 64.2347 111.349 64.2347 111.945C64.2347 112.519 64.334 113.049 64.5327 113.523ZM50.3814 115.665H55.4592V114.495H51.695V112.408H55.0839V111.304H51.695V109.428H55.2715V108.28H50.3814V115.665ZM41.1754 108.876C40.8885 108.611 40.5573 108.412 40.1709 108.28C39.7846 108.148 39.4093 108.081 39.0229 108.081C38.6918 108.081 38.3607 108.125 38.0405 108.214C37.7204 108.302 37.4334 108.435 37.1795 108.611C36.9256 108.788 36.7159 109.008 36.5613 109.285C36.4068 109.56 36.3296 109.881 36.3296 110.256C36.3296 110.609 36.3847 110.896 36.4952 111.128C36.6055 111.36 36.749 111.558 36.9256 111.713C37.1023 111.878 37.3009 112 37.5217 112.099C37.7424 112.199 37.9633 112.276 38.1951 112.353C38.4269 112.43 38.6476 112.508 38.8573 112.574C39.0671 112.64 39.2437 112.729 39.3982 112.817C39.5528 112.905 39.6742 113.026 39.7625 113.148C39.8508 113.28 39.895 113.435 39.895 113.634C39.895 113.832 39.8508 113.998 39.7736 114.141C39.6963 114.274 39.5859 114.395 39.4644 114.484C39.3321 114.572 39.1885 114.638 39.034 114.682C38.8794 114.715 38.7138 114.737 38.5704 114.737C38.2833 114.737 37.9854 114.66 37.6762 114.517C37.3782 114.373 37.1353 114.174 36.9477 113.921L36.0094 114.793C36.2965 115.146 36.6718 115.4 37.1354 115.576C37.599 115.753 38.0626 115.841 38.5483 115.841C38.9126 115.841 39.2547 115.797 39.5859 115.698C39.9171 115.598 40.193 115.455 40.447 115.256C40.6898 115.058 40.8885 114.815 41.032 114.517C41.1754 114.219 41.2527 113.876 41.2527 113.479C41.2527 113.115 41.1864 112.817 41.054 112.574C40.9215 112.331 40.7449 112.132 40.5352 111.967C40.3255 111.812 40.0937 111.68 39.8398 111.58C39.5859 111.481 39.3431 111.393 39.1003 111.316C38.8904 111.249 38.7028 111.194 38.5262 111.128C38.3496 111.062 38.2061 110.995 38.0847 110.907C37.9633 110.819 37.8639 110.719 37.7977 110.609C37.7314 110.488 37.6873 110.344 37.6873 110.179C37.6873 110.002 37.7314 109.847 37.8087 109.715C37.886 109.583 37.9964 109.483 38.1178 109.406C38.2392 109.329 38.3827 109.262 38.5373 109.229C38.6918 109.185 38.8463 109.174 39.0009 109.174C39.2547 109.174 39.5087 109.229 39.7625 109.351C40.0164 109.472 40.2151 109.627 40.3475 109.803L41.1754 108.876ZM27.1456 108.269H25.832V112.894C25.832 113.115 25.8099 113.325 25.7437 113.534C25.6885 113.744 25.6002 113.932 25.4677 114.108C25.3353 114.274 25.1697 114.406 24.96 114.517C24.7502 114.627 24.4853 114.671 24.1763 114.671C23.8672 114.671 23.6022 114.616 23.3925 114.517C23.1828 114.417 23.0061 114.274 22.8848 114.108C22.7523 113.943 22.664 113.755 22.6088 113.534C22.5536 113.325 22.5205 113.104 22.5205 112.894V108.269H21.2069V112.938C21.2069 113.38 21.2842 113.788 21.4277 114.141C21.5822 114.506 21.7809 114.804 22.0568 115.058C22.3218 115.311 22.6419 115.499 22.9951 115.632C23.3594 115.764 23.7457 115.83 24.1763 115.83C24.5957 115.83 24.9931 115.764 25.3574 115.632C25.7217 115.499 26.0307 115.3 26.2957 115.058C26.5606 114.804 26.7703 114.506 26.9248 114.141C27.0794 113.788 27.1566 113.38 27.1566 112.938V108.269H27.1456ZM3.81035 115.665H5.05769V109.726H5.07978L7.28746 115.665H8.20365L10.4445 109.726H10.4665V115.665H11.7691V108.28H9.70487L7.80627 113.523H7.77314L5.85246 108.28H3.79932V115.665H3.81035Z" fill="black"/>
<path d="M190.912 91.8217L192.567 87.5168L194.201 91.8217H190.912ZM187.203 95.8618H189.311L190.271 93.4334H194.863L195.846 95.8618H197.998L193.44 85.2649H191.806L187.203 95.8618ZM177.202 95.8618H185.293V94.184H179.41L185.205 86.9759V85.2649H177.291V86.9096H182.964L177.202 94.1509V95.8618ZM174.387 86.137C173.979 85.7617 173.493 85.4746 172.941 85.287C172.39 85.0993 171.837 85 171.307 85C170.833 85 170.358 85.0662 169.895 85.1877C169.431 85.3091 169.023 85.5078 168.658 85.7617C168.294 86.0155 167.996 86.3356 167.775 86.722C167.554 87.1083 167.433 87.572 167.433 88.1128C167.433 88.6096 167.51 89.029 167.676 89.3602C167.83 89.6913 168.04 89.9783 168.294 90.2101C168.548 90.4419 168.835 90.6296 169.155 90.7621C169.475 90.9056 169.795 91.027 170.115 91.1263C170.446 91.2367 170.755 91.3361 171.053 91.4464C171.352 91.5458 171.616 91.6672 171.826 91.7997C172.047 91.9321 172.224 92.0977 172.356 92.2743C172.488 92.462 172.555 92.6938 172.555 92.9697C172.555 93.2567 172.5 93.4996 172.378 93.6983C172.268 93.897 172.114 94.0515 171.925 94.184C171.738 94.3164 171.539 94.4047 171.307 94.4599C171.076 94.5151 170.854 94.5372 170.634 94.5372C170.214 94.5372 169.784 94.4379 169.354 94.2281C168.923 94.0184 168.57 93.7314 168.316 93.3782L166.969 94.6365C167.389 95.1333 167.93 95.5086 168.581 95.7624C169.243 96.0164 169.917 96.1488 170.601 96.1488C171.12 96.1488 171.616 96.0826 172.08 95.9391C172.544 95.7955 172.953 95.5858 173.305 95.3099C173.658 95.0339 173.934 94.6807 174.144 94.2502C174.354 93.8307 174.453 93.334 174.453 92.76C174.453 92.2412 174.354 91.8107 174.166 91.4575C173.967 91.1043 173.725 90.8173 173.416 90.5854C173.107 90.3536 172.776 90.166 172.411 90.0335C172.047 89.89 171.694 89.7686 171.352 89.6582C171.053 89.5699 170.777 89.4816 170.535 89.3933C170.281 89.305 170.071 89.1946 169.895 89.0842C169.718 88.9628 169.586 88.8193 169.486 88.6537C169.387 88.4881 169.332 88.2784 169.332 88.0356C169.332 87.7817 169.387 87.5499 169.509 87.3733C169.619 87.1856 169.773 87.0421 169.95 86.9207C170.126 86.8103 170.325 86.722 170.546 86.6668C170.767 86.6116 170.988 86.5895 171.208 86.5895C171.573 86.5895 171.947 86.6778 172.312 86.8544C172.676 87.0311 172.953 87.2408 173.162 87.5057L174.387 86.137ZM162.046 95.8618H163.934V85.2649H162.046V95.8618ZM146.78 95.8618H148.579V87.3512H148.613L151.781 95.8618H153.094L156.306 87.3512H156.339V95.8618H158.216V85.2649H155.258L152.531 92.7931H152.486L149.739 85.2649H146.791V95.8618H146.78ZM136.162 95.8618H143.446V94.184H138.049V91.1926H142.906V89.603H138.049V86.9096H143.182V85.2649H136.162V95.8618ZM122.992 95.8618H124.879V87.6823H124.913L129.936 95.8618H132.33V85.2649H130.443V93.1905H130.41L125.487 85.2649H122.992V95.8618ZM113.974 89.8348V86.8544H115.685C115.927 86.8544 116.17 86.8765 116.424 86.9096C116.678 86.9538 116.91 87.02 117.109 87.1304C117.308 87.2408 117.473 87.3843 117.605 87.572C117.738 87.7596 117.804 87.9914 117.804 88.2784C117.804 88.5985 117.738 88.8634 117.595 89.0621C117.451 89.2719 117.274 89.4264 117.065 89.5368C116.855 89.6472 116.612 89.7244 116.336 89.7576C116.06 89.7907 115.795 89.8128 115.53 89.8128H113.974V89.8348ZM112.086 95.8618H113.974V91.3692H115.354L117.804 95.8618H120.078L117.252 91.1594C118.003 90.9939 118.588 90.6627 119.029 90.177C119.46 89.6913 119.681 89.0621 119.681 88.3005C119.681 87.7375 119.57 87.2739 119.35 86.8765C119.129 86.4902 118.842 86.1701 118.477 85.9383C118.113 85.6954 117.694 85.5298 117.231 85.4195C116.756 85.3091 116.281 85.2649 115.773 85.2649H112.097V95.8618H112.086ZM99.6901 89.007C99.8668 88.5433 100.109 88.1349 100.43 87.7817C100.75 87.4285 101.136 87.1525 101.578 86.9538C102.019 86.7551 102.516 86.6558 103.067 86.6558C103.62 86.6558 104.117 86.7551 104.569 86.9538C105.022 87.1525 105.397 87.4285 105.717 87.7817C106.037 88.1349 106.28 88.5433 106.456 89.007C106.633 89.4706 106.722 89.9894 106.722 90.5303C106.722 91.1042 106.633 91.6231 106.456 92.0977C106.28 92.5724 106.037 92.9808 105.706 93.334C105.386 93.6873 104.999 93.9522 104.547 94.1509C104.095 94.3495 103.609 94.4379 103.067 94.4379C102.527 94.4379 102.041 94.3385 101.6 94.1509C101.159 93.9522 100.771 93.6873 100.452 93.334C100.131 92.9808 99.8774 92.5724 99.7007 92.0977C99.525 91.6231 99.4361 91.1042 99.4361 90.5303C99.4255 89.9894 99.5134 89.4816 99.6901 89.007ZM97.8026 92.8042C98.0895 93.4886 98.4869 94.0736 98.9833 94.5703C99.4912 95.0671 100.088 95.4534 100.783 95.7183C101.478 95.9942 102.229 96.1267 103.046 96.1267C103.874 96.1267 104.635 95.9942 105.331 95.7183C106.026 95.4424 106.633 95.056 107.141 94.5703C107.649 94.0736 108.047 93.4886 108.333 92.8042C108.62 92.1198 108.764 91.3692 108.764 90.5413C108.764 89.6913 108.62 88.9297 108.333 88.2453C108.047 87.5609 107.649 86.9869 107.141 86.5012C106.633 86.0155 106.026 85.6513 105.331 85.3974C104.635 85.1325 103.874 85.011 103.046 85.011C102.229 85.011 101.468 85.1435 100.783 85.3974C100.088 85.6513 99.4912 86.0266 98.9833 86.5012C98.4758 86.9759 98.0895 87.5609 97.8026 88.2453C97.5155 88.9297 97.3721 89.6913 97.3721 90.5413C97.3721 91.3692 97.5155 92.1198 97.8026 92.8042ZM88.5965 91.1926H90.3626C91.1353 91.1926 91.6983 91.3029 92.0846 91.5237C92.4599 91.7445 92.6586 92.1308 92.6586 92.6938C92.6586 93.047 92.5814 93.323 92.4269 93.5327C92.2723 93.7424 92.0736 93.908 91.8418 94.0074C91.6099 94.1177 91.345 94.184 91.0691 94.2281C90.7931 94.2612 90.5282 94.2833 90.2964 94.2833H88.6075V91.1926H88.5965ZM88.5965 86.8324H90.1088C90.8262 86.8324 91.3561 86.9317 91.6983 87.1304C92.0405 87.3291 92.2061 87.6713 92.2061 88.146C92.2061 88.6096 92.0405 88.9628 91.7093 89.2056C91.3781 89.4595 90.9035 89.5809 90.2744 89.5809H88.5965V86.8324ZM86.7089 95.8618H90.5282C91.0249 95.8618 91.5217 95.8066 91.9964 95.7073C92.482 95.5968 92.9125 95.4314 93.2878 95.1884C93.6631 94.9456 93.9612 94.6365 94.193 94.2392C94.4248 93.8418 94.5352 93.3561 94.5352 92.7821C94.5352 92.0646 94.3255 91.4906 93.8949 91.0601C93.4644 90.6296 92.9125 90.3757 92.2502 90.2764V90.2433C92.8022 90.0777 93.2437 89.7907 93.5859 89.4043C93.9281 89.018 94.0936 88.5213 94.0936 87.9252C94.0936 87.4505 93.9943 87.0421 93.8066 86.6999C93.619 86.3577 93.3651 86.0818 93.067 85.872C92.769 85.6513 92.4158 85.4967 92.0295 85.4084C91.6431 85.3201 91.2458 85.2649 90.8483 85.2649H86.72V95.8618H86.7089ZM83.4416 90.5192H79.8541V92.0425H83.4416V90.5192ZM67.2592 95.8618H69.1468V87.6823H69.1799L74.2023 95.8618H76.5977V85.2649H74.7101V93.1905H74.677L69.7539 85.2649H67.2592V95.8618ZM56.6292 95.8618H63.9146V94.184H58.5167V91.1926H63.3847V89.603H58.5167V86.9096H63.6496V85.2649H56.6292V95.8618ZM53.1742 86.137C52.7657 85.7617 52.2801 85.4746 51.7281 85.287C51.1762 85.0993 50.6243 85 50.0834 85C49.6088 85 49.1341 85.0662 48.6705 85.1877C48.2069 85.3091 47.7874 85.5078 47.4342 85.7617C47.0699 86.0155 46.7719 86.3356 46.5511 86.722C46.3304 87.1083 46.2089 87.572 46.2089 88.1128C46.2089 88.6096 46.2862 89.029 46.4517 89.3602C46.6063 89.6913 46.816 89.9783 47.07 90.2101C47.3238 90.4419 47.6107 90.6296 47.9309 90.7621C48.251 90.9056 48.5711 91.027 48.8912 91.1263C49.2224 91.2367 49.5315 91.3361 49.8295 91.4464C50.1276 91.5458 50.3925 91.6672 50.6132 91.7997C50.834 91.9321 51.0106 92.0977 51.1321 92.2743C51.2646 92.462 51.3307 92.6938 51.3307 92.9697C51.3307 93.2567 51.2756 93.4996 51.1541 93.6983C51.0437 93.897 50.8893 94.0515 50.7016 94.184C50.5139 94.3164 50.3153 94.4047 50.0834 94.4599C49.8516 94.5151 49.6308 94.5372 49.4101 94.5372C48.9906 94.5372 48.5601 94.4379 48.1296 94.2281C47.6991 94.0184 47.3459 93.7314 47.092 93.3782L45.7453 94.6365C46.1648 95.1333 46.7057 95.5086 47.3569 95.7624C48.0193 96.0164 48.6925 96.1488 49.377 96.1488C49.8957 96.1488 50.3925 96.0826 50.8561 95.9391C51.3308 95.7955 51.7281 95.5858 52.0814 95.3099C52.4346 95.0339 52.7105 94.6807 52.9203 94.2502C53.13 93.8307 53.2404 93.334 53.2404 92.76C53.2404 92.2412 53.141 91.8107 52.9534 91.4575C52.7547 91.1043 52.5119 90.8173 52.2027 90.5854C51.9048 90.3536 51.5625 90.166 51.1983 90.0335C50.834 89.89 50.4807 89.7686 50.1386 89.6582C49.8405 89.5699 49.5646 89.4816 49.3107 89.3933C49.0568 89.305 48.8471 89.1946 48.6705 89.0842C48.4939 88.9628 48.3614 88.8193 48.2621 88.6537C48.1627 88.4881 48.1075 88.2784 48.1075 88.0356C48.1075 87.7817 48.1627 87.5499 48.2731 87.3733C48.3835 87.1856 48.538 87.0421 48.7146 86.9207C48.8912 86.8103 49.0899 86.722 49.3107 86.6668C49.5315 86.6116 49.7523 86.5895 49.973 86.5895C50.3373 86.5895 50.7126 86.6778 51.0769 86.8544C51.4411 87.0311 51.7171 87.2408 51.9268 87.5057L53.1742 86.137ZM43.0851 86.137C42.6767 85.7617 42.1909 85.4746 41.639 85.287C41.087 85.0993 40.5351 85 40.0053 85C39.5306 85 39.056 85.0662 38.5924 85.1877C38.1288 85.3091 37.7094 85.5078 37.3561 85.7617C36.9918 86.0155 36.6937 86.3356 36.473 86.722C36.2522 87.1083 36.1308 87.572 36.1308 88.1128C36.1308 88.6096 36.2081 89.029 36.3737 89.3602C36.5282 89.6913 36.738 89.9783 36.9918 90.2101C37.2457 90.4419 37.5327 90.6296 37.8528 90.7621C38.1729 90.9056 38.4931 91.027 38.8131 91.1263C39.1443 91.2367 39.4534 91.3361 39.7514 91.4464C40.0495 91.5458 40.3144 91.6672 40.5351 91.7997C40.756 91.9321 40.9326 92.0977 41.0539 92.2743C41.1864 92.462 41.2526 92.6938 41.2526 92.9697C41.2526 93.2567 41.1975 93.4996 41.076 93.6983C40.9657 93.897 40.8111 94.0515 40.6235 94.184C40.4358 94.3164 40.2371 94.4047 40.0053 94.4599C39.7735 94.5151 39.5527 94.5372 39.332 94.5372C38.9125 94.5372 38.482 94.4379 38.0515 94.2281C37.621 94.0184 37.2677 93.7314 37.0139 93.3782L35.6672 94.6365C36.0867 95.1333 36.6276 95.5086 37.2788 95.7624C37.9411 96.0164 38.6144 96.1488 39.2989 96.1488C39.8177 96.1488 40.3144 96.0826 40.778 95.9391C41.2416 95.7955 41.65 95.5858 42.0033 95.3099C42.3565 95.0339 42.6324 94.6807 42.8422 94.2502C43.052 93.8307 43.1623 93.334 43.1623 92.76C43.1623 92.2412 43.063 91.8107 42.8753 91.4575C42.6877 91.1043 42.4337 90.8173 42.1247 90.5854C41.8156 90.3536 41.4844 90.166 41.1202 90.0335C40.756 89.89 40.4027 89.7686 40.0605 89.6582C39.7624 89.5699 39.4865 89.4816 39.2327 89.3933C38.9787 89.305 38.769 89.1946 38.5924 89.0842C38.4157 88.9628 38.2834 88.8193 38.184 88.6537C38.0847 88.4881 38.0294 88.2784 38.0294 88.0356C38.0294 87.7817 38.0847 87.5499 38.206 87.3733C38.3164 87.1856 38.471 87.0421 38.6476 86.9207C38.8243 86.7993 39.0229 86.722 39.2437 86.6668C39.4644 86.6116 39.6852 86.5895 39.906 86.5895C40.2702 86.5895 40.6455 86.6778 41.0098 86.8544C41.3741 87.0311 41.65 87.2408 41.8597 87.5057L43.0851 86.137ZM28.2163 95.8618H30.1038V91.2698L34.0887 85.276H31.9031L29.2097 89.7355L26.5494 85.276H24.2424L28.2273 91.2698V95.8618H28.2163ZM13.1047 95.8618H14.9922V91.1594H19.9485V95.8618H21.8251V85.2649H19.9375V89.5478H14.9812V85.2649H13.1047V95.8618ZM5.2453 95.8618H7.13287V86.9096H10.3782V85.2649H2V86.9096H5.2453V95.8618Z" fill="black"/>
</g>
<defs>
<clipPath id="clip0">
<rect width="196" height="30.8966" fill="white" transform="translate(2 85)"/>
</clipPath>
</defs>
</svg>
