<svg width="200" height="200" viewBox="0 0 200 200" fill="none" xmlns="http://www.w3.org/2000/svg">
<rect width="200" height="200" fill="white"/>
<g clip-path="url(#clip0)">
<path d="M142.07 113.592V113.755H163.463L163.594 113.658L163.561 113.625L163.463 113.592H142.07V113.592ZM191.934 93.8293L192.162 93.6663H157.006L156.876 93.7641L156.908 93.7967L157.006 93.8293H191.934V93.8293Z" fill="black"/>
<path d="M197.739 65.1957L157.039 93.6662H157.006H142.07V104.135V113.755V128.724L163.463 113.755H197.739V93.6662H192.195L197.739 89.7854V65.1957ZM160.365 104.722C160.202 105.57 160.398 108.244 161.409 108.44C161.768 108.505 162.061 108.44 162.355 108.277L163.235 107.787L163.398 111.342H157.756C157.952 109.875 158.05 108.668 158.148 107.592L158.343 104.722C157.202 104.559 155.963 104.135 154.919 103.319C154.006 102.569 153.484 101.656 153.419 100.547C153.288 98.5907 155.865 96.1448 159.191 96.1448H160.17C160.528 96.1774 160.887 96.21 161.278 96.3078C161.05 96.797 160.757 97.384 160.691 98.395C160.333 98.2972 160.039 98.2319 159.615 98.2319C157.202 98.2319 156.55 99.8626 156.55 100.482C156.55 102.08 158.115 102.635 159.289 102.732C160.137 102.83 160.952 102.635 161.67 102.145C162.192 101.787 162.322 101.656 162.583 101.069C163.203 101.395 164.605 101.493 165.616 101.134C165.388 103.156 162.648 104.657 160.365 104.722Z" fill="black"/>
<path d="M14.9797 110.396H5.75038V93.6662H2.06519V111.277C2.06519 112.027 2.32608 112.679 2.81527 113.168C3.30445 113.625 3.9567 113.853 4.73939 113.853H14.9797V110.396ZM36.5038 113.886L29.4921 95.1338C29.1008 94.0902 28.2855 93.5358 27.1767 93.5358C26.0678 93.5358 25.2199 94.1228 24.8612 95.1338L17.7191 113.886H21.6L23.198 109.744H30.9923L32.5903 113.886H36.5038ZM29.7857 106.287H24.4046L27.1441 98.9168L29.7857 106.287ZM55.4515 108.374C55.4515 107.624 55.3211 106.907 55.0276 106.255C54.7341 105.635 54.3427 105.048 53.8209 104.494L52.8752 103.515L53.5926 102.537C53.9188 102.015 54.1797 101.493 54.408 100.939C54.6362 100.319 54.7341 99.6669 54.7341 98.9494C54.7341 97.221 54.1797 95.8839 53.0708 94.9707C52.0273 94.1228 50.6575 93.6662 48.9617 93.6662H42.8632C42.0805 93.6662 41.4283 93.8945 40.9717 94.3511C40.6129 94.6772 40.2216 95.2642 40.2216 96.21V111.309C40.2216 112.06 40.5151 112.712 41.0043 113.201C41.4935 113.658 42.1457 113.886 42.9284 113.886H49.1248C51.0163 113.886 52.5817 113.397 53.6905 112.418C54.8645 111.407 55.4515 110.07 55.4515 108.374ZM51.1467 98.982C51.1467 99.3408 51.0815 99.6669 50.951 99.993C50.8206 100.352 50.6249 100.71 50.4619 100.971L49.7118 102.048H43.8416V97.0253H48.9617C49.5487 97.0253 50.2988 97.1231 50.6575 97.5145C50.9837 97.9058 51.1467 98.3624 51.1467 98.982ZM43.8416 110.462V105.407H49.8096L50.9184 106.581C51.2119 106.874 51.4402 107.2 51.6033 107.526C51.7337 107.82 51.799 108.113 51.799 108.472C51.799 109.124 51.6033 109.581 51.2119 109.907C50.788 110.266 50.1031 110.462 49.19 110.462H43.8416V110.462ZM77.8562 103.809C77.8562 102.211 77.6279 100.776 77.204 99.5038C76.78 98.2319 76.1278 97.1557 75.3124 96.2752C74.4971 95.3947 73.4862 94.7098 72.3447 94.2532C71.2033 93.7967 69.9314 93.5684 68.5943 93.5684C67.2246 93.5684 65.9527 93.7967 64.8113 94.2532C63.6372 94.7098 62.6263 95.3947 61.7783 96.2752C60.9304 97.1557 60.2782 98.2646 59.8216 99.5364C59.365 100.776 59.1694 102.243 59.1694 103.809C59.1694 105.407 59.3976 106.842 59.8216 108.081C60.2782 109.353 60.8978 110.462 61.7131 111.309C62.5284 112.19 63.5394 112.875 64.6808 113.331C65.8223 113.788 67.0615 114.016 68.4639 114.016C69.8336 114.016 71.0728 113.788 72.2143 113.364C73.3883 112.907 74.3993 112.255 75.2472 111.342C76.0951 110.462 76.7474 109.353 77.1713 108.113C77.6605 106.907 77.8562 105.439 77.8562 103.809ZM64.4525 108.961C63.9634 108.374 63.572 107.69 63.3111 106.842C63.0176 105.961 62.8872 104.95 62.8872 103.809C62.8872 101.558 63.409 99.8299 64.3873 98.6885C65.3657 97.5471 66.7028 96.9927 68.4965 96.9927C69.377 96.9927 70.1923 97.1231 70.8772 97.4166C71.562 97.7101 72.1491 98.1015 72.6382 98.6885C73.1274 99.2755 73.4862 99.9604 73.7471 100.808C74.0406 101.656 74.171 102.7 74.171 103.841C74.171 106.124 73.6818 107.853 72.6708 109.027C71.6925 110.135 70.3554 110.69 68.5943 110.69C67.7138 110.69 66.8985 110.527 66.181 110.233C65.4961 109.94 64.9417 109.516 64.4525 108.961ZM97.6193 113.886L93.4123 105.048L94.5537 103.613C94.9451 103.059 95.3364 102.439 95.6299 101.787C95.956 101.069 96.1191 100.319 96.1191 99.5038C96.1191 97.6449 95.5647 96.1774 94.4885 95.1664C93.4449 94.188 91.9773 93.6988 90.1837 93.6988H84.2808C83.4655 93.6988 82.8459 93.9271 82.3567 94.3837C82.0306 94.7098 81.6066 95.2642 81.6066 96.2426V113.918H85.2592V106.418H90.0532L93.5753 113.918H97.6193V113.886ZM85.2592 103.026V97.0579H90.151C90.6402 97.0579 91.0316 97.1231 91.3251 97.2536C91.6186 97.3514 91.8143 97.5145 91.9773 97.6775C92.1404 97.8732 92.2708 98.1015 92.3687 98.395C92.4665 98.7211 92.4991 99.1125 92.4991 99.5364C92.4991 99.9604 92.4013 100.319 92.2382 100.71C92.0099 101.167 91.749 101.558 91.4555 101.982L90.6728 103.059H85.2592V103.026ZM119.143 113.886L112.132 95.1338C111.773 94.0902 110.925 93.5358 109.816 93.5358C108.675 93.5358 107.86 94.1228 107.501 95.1338L100.359 113.886H104.24L105.838 109.744H113.665L115.263 113.886H119.143ZM112.425 106.287H107.012L109.751 98.9168L112.425 106.287ZM125.601 110.396V93.6662H121.883V111.277C121.883 112.027 122.144 112.679 122.633 113.168C123.122 113.625 123.774 113.853 124.59 113.853H134.83V110.396H125.601ZM100.554 131.986L99.4455 132.247L98.6302 132.377L97.978 132.442L97.4562 132.475C96.9018 132.475 96.4452 132.41 96.0539 132.247C95.6951 132.116 95.4016 131.92 95.1407 131.66C94.9124 131.399 94.7494 131.105 94.6842 130.746C94.5863 130.388 94.5537 129.996 94.5537 129.605V122.365H92.9883V129.768C92.9883 130.355 93.0862 130.877 93.2166 131.366C93.3797 131.888 93.6079 132.312 93.9667 132.671C94.3254 133.029 94.7494 133.323 95.2712 133.551C95.8256 133.747 96.4778 133.877 97.2279 133.877L98.5976 133.779C99.152 133.747 99.9021 133.584 100.848 133.355C101.663 133.16 102.055 132.638 102.055 131.855V122.365H100.522V131.986H100.554V131.986ZM111.414 132.149L110.11 132.41L109.294 132.475C108.61 132.475 108.153 132.312 107.892 131.92C107.631 131.562 107.501 130.975 107.501 130.192V123.767H111.382V122.365H107.501V119.397L105.968 119.723V122.365H104.142V123.767H105.968V130.322C105.968 132.736 107.077 133.942 109.262 133.942C109.751 133.942 110.566 133.845 111.675 133.616L111.414 132.149ZM134.83 131.986V126.083C134.83 125.398 134.732 124.811 134.504 124.322C134.276 123.833 133.982 123.441 133.591 123.148C133.232 122.822 132.775 122.593 132.286 122.463C131.797 122.332 131.243 122.267 130.688 122.267C130.688 122.267 128.471 122.202 125.829 122.887L126.155 124.289C126.155 124.289 128.601 123.604 130.656 123.702H130.688C131.503 123.702 132.123 123.898 132.612 124.257C133.134 124.615 133.362 125.268 133.362 126.115V127.42H129.905C129.318 127.42 128.731 127.485 128.177 127.583C127.623 127.713 127.166 127.909 126.742 128.17C126.318 128.431 125.992 128.79 125.764 129.214C125.503 129.638 125.405 130.192 125.405 130.844C125.405 131.823 125.731 132.605 126.383 133.16C127.036 133.714 127.949 134.008 129.155 134.008C129.612 134.008 130.134 133.942 130.688 133.845L132.319 133.486L133.167 133.258L133.395 133.225V133.877H134.895V131.986H134.83V131.986ZM133.33 131.855L132.058 132.149L130.525 132.442C130.036 132.507 129.645 132.54 129.318 132.54C128.536 132.54 127.949 132.377 127.525 132.084C127.101 131.79 126.905 131.333 126.905 130.714C126.905 129.996 127.166 129.475 127.688 129.181C128.21 128.888 128.927 128.692 129.873 128.692H133.362V131.855H133.33ZM83.0742 119.397L81.574 119.723V133.812H83.0742V127.942H85.1288L89.0748 133.779H90.9011L86.4659 127.192L90.9337 122.365H88.9118L85.1614 126.442H83.1068V119.397H83.0742V119.397ZM123.285 133.779L120.089 128.04L123.22 122.365H121.328L118.882 127.192H118.165L115.719 122.365H113.828L116.958 128.04L113.762 133.779H115.589L118.165 128.659H118.882L121.459 133.779H123.285Z" fill="black"/>
</g>
<defs>
<clipPath id="clip0">
<rect width="196" height="69.1381" fill="white" transform="translate(2 65)"/>
</clipPath>
</defs>
</svg>
