<svg width="200" height="200" viewBox="0 0 200 200" fill="none" xmlns="http://www.w3.org/2000/svg">
<rect width="200" height="200" fill="white"/>
<path d="M58.8235 86.9412C58.7059 81.1765 56.3529 77.647 48.5882 77.647C48.5882 77.647 44.2353 77.5294 44.2353 77.647L44.1176 89.647C38.4706 90.4706 32.1176 92.3529 30.9412 92.5882L31.0588 70.4706H46.7059C56.5882 70.4706 63.0588 71.1765 67.5294 75.7647C69.5294 77.7647 71.4117 80.7059 71.7647 86C67.2941 86.2353 63.2941 86.3529 58.8235 86.9412Z" fill="black"/>
<path d="M58.4706 89.1765C66.5883 88.3529 72.1177 88 72.1177 88C72.1177 92.9412 70.1177 96.8235 67.2942 99.1765C63.4118 102.353 59.5295 103.176 49.2942 103.176H31.1765V94.9412C32.5883 94.5882 38.5883 92.7059 44.2353 92C44.2353 92 44.1177 96.2353 44.2353 96.2353H48.4706C52.353 96 58.353 94.2353 58.4706 89.1765Z" fill="black"/>
<path d="M159.177 92.4706C155.177 91.4118 151.647 90.2353 148.118 89.5294L155.412 70.5883H168.824L159.177 92.4706Z" fill="black"/>
<path d="M130.706 86.5882L123.765 70.4706H138.353L145.412 88.8235C140.118 87.7647 135.529 87.1765 130.706 86.5882Z" fill="black"/>
<path d="M146.235 90.9412C146.235 90.9412 146.824 92.353 146.941 92.1177L147.412 91.1765C151.059 92 154.353 93.2941 158.471 94.353L154.941 103.059H138.235L131.765 88.5883C136.588 89.1765 140.941 89.8824 146.235 90.9412Z" fill="black"/>
<path d="M109.529 85.4118C104.941 85.2941 98.9412 85.1765 94 85.1765C94.1176 85.1765 105.529 70.4706 105.529 70.4706H121.529L109.529 85.4118Z" fill="black"/>
<path d="M94.8235 87.0588C95.2941 87.0588 104.941 87.0588 110.471 87.5294L123.294 103.059H106.471L94.8235 87.0588Z" fill="black"/>
<path d="M92.1176 87.0588V102.824H78.8235V87.6471C83.1764 87.4118 87.4117 87.1765 92.1176 87.0588Z" fill="black"/>
<path d="M92.1176 85.0588C87.2941 85.1765 83.0588 85.1765 78.7058 85.5294V70.2353H92.1176V85.0588Z" fill="black"/>
<path d="M38.3529 113.176C38.4706 112.941 38.5882 112.588 38.4706 112.588C37.7647 112 36.4706 111.647 35.4117 111.647C33.4117 111.647 31.647 112.941 31.647 115.294C31.647 119.176 37.4118 118.471 37.4118 121.647C37.4118 122.941 36.2353 123.765 34.8235 123.765C34 123.765 32.9412 123.412 32.1176 122.824C32 122.706 31.7647 122.824 31.647 123.176L31.5294 123.412C31.2941 123.765 31.2941 124 31.4117 124.118C32.2353 124.706 33.5294 125.176 35.0588 125.176C37.7647 125.176 39.1765 123.647 39.1765 121.412C39.1765 117.294 33.4118 117.765 33.4118 115.059C33.4118 114.118 34.1176 113.176 35.647 113.176C36.5882 113.176 37.2941 113.412 37.8823 113.765C38 113.882 38.2353 113.765 38.3529 113.412V113.176ZM47.8823 115.294C47.2941 115.294 47.2941 115.294 47.1765 115.529L47.0588 116.353C46.5882 115.647 45.647 115.176 44.5882 115.176C42.2353 115.176 40.4706 117.176 40.4706 120.353C40.4706 122.941 41.647 125.176 44.3529 125.176C45.5294 125.176 46.5882 124.706 47.0588 123.882L47.1765 124.706C47.1765 124.824 47.2941 124.941 47.8823 124.941H48C48.5882 124.941 48.7059 124.824 48.7059 124.706C48.5882 123.765 48.5882 122.588 48.5882 120.824V118.235C48.5882 117.059 48.5882 115.882 48.5882 115.529C48.5882 115.412 48.5882 115.294 47.8823 115.294ZM46.9412 120.471C46.9412 122 46.8235 122.588 46.4706 122.941C46 123.412 45.2941 123.647 44.7059 123.647C42.8235 123.647 42.2353 121.882 42.2353 120.235C42.2353 118.118 43.1765 116.706 44.8235 116.706C45.647 116.706 46.4706 117.294 46.9412 117.882C46.9412 117.882 46.9412 120.471 46.9412 120.471ZM51.8823 111.059C51.2941 111.059 51.0588 111.176 51.0588 111.294C51.1765 112 51.1765 114.353 51.1765 116.235V122.353C51.1765 123.294 51.2941 123.882 51.5294 124.235C51.8823 124.706 52.3529 124.824 52.8235 124.824C53.0588 124.824 53.4117 124.706 53.647 124.706C53.7647 124.706 53.7647 124.588 53.7647 124.118V124.118C53.7647 123.765 53.7647 123.647 53.647 123.647H53.5294C52.9412 123.647 52.8235 123.412 52.8235 122.706V116.706C52.8235 114 52.8235 111.882 52.7059 111.294C52.7059 111.176 52.5882 111.059 51.8823 111.059C51.8823 111.059 52 111.059 51.8823 111.059ZM56.4706 115.294C55.7647 115.294 55.7647 115.412 55.7647 115.529V121.059C55.7647 122.471 56 123.529 56.7059 124.118C57.2941 124.706 58.1176 125.059 59.0588 125.059C60.3529 125.059 61.4117 124.588 62 123.882V124.706C62 124.824 62.1176 124.941 62.7059 124.941H62.8235C63.5294 124.941 63.5294 124.824 63.5294 124.706C63.5294 124.235 63.5294 122.941 63.5294 121.765V115.529C63.5294 115.412 63.4117 115.294 62.8235 115.294H62.7059C62.1176 115.294 62 115.412 62 115.529V120C62 122 61.7647 122.588 61.4117 122.941C60.9412 123.412 60.1176 123.647 59.4118 123.647C58.7059 123.647 58.1176 123.412 57.7647 123.059C57.4118 122.588 57.2941 121.882 57.2941 120.353V115.529C57.2941 115.412 57.1765 115.294 56.5882 115.294H56.4706ZM72.9412 111.059C72.3529 111.059 72.2353 111.176 72.2353 111.294V115.647C71.7647 115.294 70.9412 115.059 70.2353 115.059C67.2941 115.059 65.8823 117.529 65.8823 120.235C65.8823 123.176 67.2941 125.059 69.7647 125.059C71.0588 125.059 72 124.471 72.4706 123.882C72.7059 124.588 73.1765 124.941 73.7647 124.941C74.1176 124.941 74.3529 124.941 74.5882 124.824C74.7059 124.824 74.7059 124.706 74.7059 124.235V124.118C74.7059 123.765 74.5882 123.647 74.5882 123.647C74.1176 123.647 74 123.529 74 122.706V111.412C73.7647 111.176 73.647 111.059 72.9412 111.059ZM72.2353 120.471C72.2353 122 72.1176 122.588 71.7647 123.059C71.2941 123.529 70.7059 123.647 70.1176 123.647C68.7059 123.647 67.647 122.471 67.647 120.235C67.647 118 68.7059 116.588 70.4706 116.588C71.1764 116.588 72 116.824 72.3529 117.294V120.471H72.2353ZM82 115.529C82 115.412 81.7647 115.294 81.0588 115.294C80.3529 115.294 80.1176 115.294 80.2353 115.529L83.7647 124.941C83.0588 126.941 82.3529 127.647 81.1765 127.647C80.8235 127.647 80.4706 127.529 80.2353 127.529C80 127.412 80 127.529 79.8823 128L79.7647 128.235C79.647 128.588 79.647 128.706 79.8823 128.824C80.2353 129.059 80.8235 129.176 81.2941 129.176C82.3529 129.176 83.1764 128.824 84 128.118C84.5882 127.529 85.0588 126.588 85.5294 125.176L88.9412 115.647C89.0588 115.412 88.8235 115.412 88.1176 115.412C87.5294 115.412 87.4117 115.412 87.2941 115.647L85.647 120.353C85.2941 121.412 84.9412 122.471 84.7059 123.294C84.4706 122.353 84.2353 121.529 83.7647 120.235L82 115.529ZM96.4706 121.176C96.4706 120.118 96.4706 119.176 96.5882 118.706C96.7059 117.882 96.8235 117.647 97.0588 117.412C97.5294 116.941 98.1176 116.706 98.8235 116.706C100.353 116.706 101.059 117.882 101.059 120C101.059 122.118 100 123.647 98 123.647C97.5294 123.647 96.9412 123.529 96.4706 123.294V121.176ZM95.5294 111.059C94.8235 111.059 94.7059 111.176 94.7059 111.294V124.235C94.7059 124.353 94.7059 124.353 94.8235 124.471C95.6471 124.824 96.7059 125.059 98.1176 125.059C101.176 125.059 102.706 123.059 102.706 119.882C102.706 118.824 102.471 117.882 102.118 117.176C101.529 115.882 100.471 115.176 99.0588 115.176C98 115.176 96.9412 115.647 96.3529 116.235V111.294C96.4706 111.176 96.3529 111.059 95.5294 111.059ZM105.647 115.294C104.941 115.294 104.941 115.412 104.941 115.529V124.706C104.941 124.824 104.941 124.941 105.647 124.941H105.765C106.471 124.941 106.471 124.824 106.471 124.706V115.529C106.471 115.412 106.471 115.294 105.647 115.294C105.647 115.294 105.765 115.294 105.647 115.294ZM104.588 112.353C104.588 112.941 105.059 113.529 105.765 113.529C106.353 113.529 106.941 113.059 106.941 112.353C106.941 111.647 106.471 111.176 105.765 111.176C105.059 111.294 104.588 111.765 104.588 112.353ZM116.706 120.706C116.824 120.706 116.824 120.588 116.824 120C116.824 118.941 116.706 117.882 116.235 117.059C115.647 115.882 114.588 115.059 112.941 115.059C110.235 115.059 108.588 117.176 108.588 120.235C108.588 123.176 110.118 125.059 112.941 125.059C114.118 125.059 115.294 124.824 116.235 124.235C116.353 124.118 116.353 124 116.235 123.529L116.118 123.294C116 122.824 115.882 122.824 115.647 122.941C114.824 123.294 114 123.529 113.294 123.529C112.353 123.529 111.647 123.294 111.176 122.824C110.588 122.353 110.353 121.529 110.235 120.588L116.706 120.706ZM110.353 119.412C110.588 117.529 111.647 116.706 112.941 116.706C114.471 116.706 115.176 118.118 115.176 119.412H110.353ZM119.647 115.294C118.941 115.294 118.941 115.412 118.941 115.529C118.941 116 118.941 117.294 118.941 118.471V124.706C118.941 124.824 119.059 124.941 119.647 124.941H119.765C120.471 124.941 120.471 124.824 120.471 124.706V121.176C120.471 120.118 120.471 119.176 120.588 118.706C120.706 117.882 120.824 117.647 121.059 117.412C121.529 116.941 122.353 116.706 122.941 116.706C123.765 116.706 124.353 116.941 124.588 117.294C125.059 117.765 125.059 118.471 125.059 120V124.706C125.059 124.824 125.176 124.941 125.765 124.941H125.882C126.588 124.941 126.588 124.824 126.588 124.706V119.176C126.588 117.765 126.353 116.706 125.647 116.118C125.059 115.529 124.235 115.176 123.176 115.176C122.118 115.176 120.941 115.647 120.235 116.353V115.529C120.471 115.412 120.471 115.294 119.647 115.294ZM136.941 120.706C137.059 120.706 137.059 120.588 137.059 120C137.059 118.941 136.941 117.882 136.471 117.059C135.882 115.882 134.824 115.059 133.176 115.059C130.471 115.059 128.824 117.176 128.824 120.235C128.824 123.176 130.353 125.059 133.176 125.059C134.353 125.059 135.529 124.824 136.471 124.235C136.588 124.118 136.588 124 136.471 123.529L136.353 123.294C136.235 122.824 136.118 122.824 135.882 122.941C135.059 123.294 134.235 123.529 133.529 123.529C132.588 123.529 131.882 123.294 131.412 122.824C130.824 122.353 130.588 121.529 130.471 120.588L136.941 120.706ZM130.706 119.412C130.941 117.529 132 116.706 133.294 116.706C134.824 116.706 135.529 118.118 135.529 119.412H130.706ZM144.941 116.824C145.176 116.471 145.176 116.235 145.059 116.118C144.353 115.529 143.412 115.176 142.235 115.176C140.471 115.176 138.941 116.235 138.941 118C138.941 118.706 139.176 119.294 139.647 119.765C140.118 120.235 140.824 120.471 141.765 120.706C142.706 120.941 143.882 121.176 143.882 122.235C143.882 123.294 142.706 123.647 141.882 123.647C141.059 123.647 140.235 123.294 139.529 122.941C139.294 122.824 139.176 122.824 138.941 123.294L138.824 123.529C138.588 123.882 138.588 124 138.706 124.235C139.412 124.706 140.471 125.176 141.647 125.176C143.647 125.176 145.294 124.118 145.294 122.235C145.294 120.353 143.765 119.765 142.235 119.412C141.412 119.176 140.353 118.941 140.353 118C140.353 117.059 141.412 116.706 142.118 116.706C142.941 116.706 143.529 117.059 144.235 117.529C144.353 117.647 144.471 117.647 144.824 117.176L144.941 116.824ZM148.588 112.588C147.882 112.588 147.882 112.706 147.882 112.824V115.294H146.706C146.588 115.294 146.588 115.412 146.588 115.882V116C146.588 116.471 146.588 116.588 146.706 116.588H147.882V122.118C147.882 123.294 148 124 148.588 124.471C148.941 124.824 149.529 125.059 150.353 125.059C151.059 125.059 151.765 124.941 152.235 124.588C152.353 124.471 152.353 124.353 152.353 124L152.235 123.765C152.118 123.412 152.118 123.412 151.882 123.412C151.529 123.529 151.059 123.647 150.706 123.647C150.235 123.647 150 123.529 149.765 123.294C149.529 123.059 149.529 122.588 149.529 121.882V116.471H151.765C151.882 116.471 151.882 116.353 151.882 115.882C151.882 115.412 151.882 115.294 151.765 115.294H149.529V112.824C149.412 112.706 149.412 112.588 148.588 112.588ZM160.706 115.294C160.118 115.294 160.118 115.294 160 115.529L159.882 116.235C159.412 115.529 158.588 115.059 157.412 115.059C155.059 115.059 153.294 117.059 153.294 120.235C153.294 122.824 154.471 125.059 157.176 125.059C158.353 125.059 159.412 124.588 160 123.765L160.118 124.588C160.118 124.706 160.235 124.824 160.824 124.824H160.941C161.529 124.824 161.647 124.706 161.647 124.588C161.529 123.647 161.529 122.471 161.529 120.706V118.118C161.529 116.941 161.529 115.765 161.529 115.412C161.529 115.412 161.412 115.294 160.706 115.294C160.706 115.294 160.824 115.294 160.706 115.294ZM159.882 120.471C159.882 122 159.765 122.588 159.412 122.941C158.941 123.412 158.235 123.647 157.647 123.647C155.765 123.647 155.176 121.882 155.176 120.235C155.176 118.118 156.118 116.706 157.765 116.706C158.588 116.706 159.412 117.294 159.882 117.882V120.471ZM164.941 115.294C164.235 115.294 164.235 115.412 164.235 115.529C164.235 116 164.235 117.294 164.235 118.471V124.706C164.235 124.824 164.353 124.941 165.059 124.941H165.176C165.882 124.941 165.882 124.824 165.882 124.706V122.588C165.882 121.529 165.882 120.471 165.882 119.882C165.882 119.294 166 118.706 166.353 118.353C166.824 117.529 167.529 116.706 168.824 116.706C168.941 116.706 169.059 116.588 169.059 116V115.765C169.059 115.412 169.059 115.294 168.941 115.294C168.824 115.294 168.706 115.294 168.588 115.294C167.647 115.294 166.706 116 166 117.529V115.647C165.765 115.412 165.647 115.294 164.941 115.294C164.941 115.294 165.059 115.294 164.941 115.294Z" fill="black"/>
</svg>
