<svg width="200" height="200" viewBox="0 0 200 200" fill="none" xmlns="http://www.w3.org/2000/svg">
<rect width="200" height="200" fill="white"/>
<g clip-path="url(#clip0)">
<path fill-rule="evenodd" clip-rule="evenodd" d="M185.068 101.714C185.732 100.783 187.395 99.4797 189.429 99.4797C190.536 99.4797 191.497 99.852 192.125 100.485C192.791 101.156 193.196 102.087 193.196 103.876V113.449H198V104.248C198 101.156 197.335 99.3309 196.152 97.9153C194.674 96.1271 192.421 95.0094 189.945 95.0094C188.179 95.0055 186.464 95.5954 185.068 96.6857V87H180.265V113.449H185.068V101.714ZM174.354 106.967C173.578 108.159 172.026 109.351 170.068 109.351C167.15 109.351 165.116 107.265 165.116 104.434C165.116 101.677 167.186 99.4797 169.958 99.4797C171.694 99.4797 173.135 100.373 174.094 101.64L177.494 98.6225C175.831 96.4616 173.061 95.0086 169.957 95.0086C164.489 95.0086 160.313 99.18 160.313 104.434C160.313 109.649 164.378 113.821 169.92 113.821C173.282 113.821 175.943 112.592 178.048 109.761L174.354 106.967ZM160.13 95.1583C159.612 95.0839 159.205 95.0086 158.505 95.0086C156.325 95.0086 154.368 95.8663 153.297 97.207V95.3817H148.676V113.449H153.479V102.087C154.07 101.007 155.732 99.4797 157.839 99.4797C158.54 99.4797 159.243 99.5542 159.576 99.6657L160.13 95.1583ZM144.612 95.3817H139.993V96.8347C138.589 95.6795 136.78 95.0086 134.748 95.0086C129.87 95.0086 125.955 99.1067 125.955 104.434C125.955 106.893 126.841 109.127 128.245 110.766C129.833 112.629 132.346 113.821 135.007 113.821C136.816 113.821 138.516 113.262 139.994 111.996V113.449H144.613L144.612 95.3817ZM139.81 107.116C138.885 108.457 137.296 109.351 135.486 109.351C132.789 109.351 130.758 107.265 130.758 104.434C130.758 101.826 132.568 99.4797 135.375 99.4797C137.121 99.4744 138.766 100.303 139.81 101.714V107.116ZM98.6136 113.449V101.714C99.2782 100.857 100.756 99.4797 102.79 99.4797C103.713 99.4797 104.748 99.7777 105.487 100.597C106.041 101.23 106.373 102.05 106.373 103.689V113.449H111.176V103.875C111.176 103.13 111.103 102.46 111.029 101.863C111.657 100.932 113.283 99.4797 115.351 99.4797C116.275 99.4797 117.31 99.7777 118.049 100.597C118.604 101.23 118.935 102.05 118.935 103.689V113.449H123.738V103.875C123.738 101.193 123.072 99.3301 121.927 97.9145C120.486 96.1263 118.121 95.0086 115.646 95.0086C112.986 95.0086 110.732 96.3127 109.291 97.84C107.886 96.1247 105.708 95.0086 103.269 95.0086C101.532 95.0086 99.8331 95.568 98.4288 96.8347V95.3817H93.8105V113.449H98.6136Z" fill="black"/>
<path fill-rule="evenodd" clip-rule="evenodd" d="M89.6842 87H84.8129V113.448H89.6842V87ZM81.4407 95.3813H76.7568V96.8338C75.3329 95.6792 73.4968 95.0087 71.4356 95.0087C66.4894 95.0087 62.5172 99.1065 62.5172 104.433C62.5172 106.891 63.4168 109.126 64.8407 110.766C66.4517 112.628 69.0003 113.82 71.6976 113.82C73.5344 113.82 75.258 113.261 76.7564 111.994V113.447H81.4404L81.4407 95.3813ZM76.5698 107.115C75.6325 108.456 74.0207 109.35 72.1854 109.35C69.4497 109.35 67.3882 107.264 67.3882 104.433C67.3882 101.826 69.225 99.4792 72.0729 99.4792C73.8432 99.4743 75.5113 100.303 76.5698 101.714V107.115ZM47.1537 113.448V101.714C47.8278 100.783 49.5148 99.4792 51.5752 99.4792C52.6999 99.4792 53.6736 99.8515 54.311 100.485C54.985 101.156 55.3979 102.087 55.3979 103.875V113.448H60.2685V104.248C60.2685 101.156 59.5937 99.3311 58.3952 97.9157C56.8964 96.1279 54.6101 95.0098 52.0996 95.0098C50.076 95.0098 48.3525 95.7174 46.9658 96.835V95.3817H42.2823V113.448H47.1537ZM39.6591 95.3817H34.9744V96.8342C33.5505 95.6796 31.7144 95.009 29.6541 95.009C24.7078 95.009 20.7365 99.1065 20.7365 104.433C20.7365 106.892 21.6353 109.127 23.0592 110.766C24.6706 112.629 27.2188 113.821 29.9168 113.821C31.7529 113.821 33.4765 113.261 34.9757 111.995V113.448H39.6595L39.6591 95.3817ZM34.7882 107.116C33.8518 108.457 32.2392 109.351 30.4039 109.351C27.6682 109.351 25.6074 107.265 25.6074 104.434C25.6074 101.827 27.4435 99.4796 30.2914 99.4796C32.0617 99.4747 33.7297 100.304 34.7882 101.714V107.116ZM16.2392 106.967C15.4521 108.159 13.878 109.351 11.8925 109.351C8.93215 109.351 6.87293 107.265 6.87293 104.434C6.87293 101.677 8.97098 99.4796 11.7816 99.4796C13.5427 99.4796 15.0039 100.374 15.9776 101.64L19.4247 98.6224C17.7384 96.4623 14.9279 95.0094 11.7804 95.0094C6.23451 95.0094 2 99.1806 2 104.434C2 109.649 6.12195 113.821 11.7431 113.821C15.1529 113.821 17.8509 112.592 19.987 109.761L16.2392 106.967Z" fill="black"/>
</g>
<defs>
<clipPath id="clip0">
<rect width="196" height="26.8211" fill="white" transform="translate(2 87)"/>
</clipPath>
</defs>
</svg>
