<svg width="200" height="200" viewBox="0 0 200 200" fill="none" xmlns="http://www.w3.org/2000/svg">
<rect width="200" height="200" fill="white"/>
<g clip-path="url(#clip0)">
<path fill-rule="evenodd" clip-rule="evenodd" d="M171.032 128H181.218V117.815H171.032V128ZM178.5 121.307C178.705 121.205 178.909 121.105 179.214 120.925C179.447 121.279 179.507 122.093 179.515 122.742C179.725 122.329 179.974 120.787 179.865 120.506C180.187 120.297 180.238 120.195 180.302 120.066C180.314 120.042 180.326 120.018 180.341 119.991C180.255 119.998 180.178 120.004 180.107 120.01L180.107 120.01L180.107 120.01L180.107 120.01C179.865 120.028 179.701 120.04 179.541 120.091C179.018 119.769 177.931 119.44 177.046 119.371C177.319 119.484 178.44 120.092 178.581 120.287C177.982 120.369 176.853 120.709 176.282 121.012C176.938 120.865 177.857 120.791 178.486 120.761C178.239 121.119 178.101 121.305 177.705 121.736C178.057 121.525 178.279 121.415 178.5 121.307ZM173.69 125.901C173.976 126.171 174.235 126.326 174.601 126.462C174.221 126.451 173.934 126.401 173.596 126.302C173.572 126.539 173.586 126.722 173.651 126.949C173.383 126.682 173.217 126.447 173.053 126.095C172.755 125.961 172.537 125.834 172.27 125.668C172.46 125.582 172.626 125.521 172.856 125.459C172.783 125.049 172.806 124.681 172.86 124.167C172.967 124.654 173.06 124.998 173.268 125.367C173.523 125.317 173.738 125.282 174.034 125.24C173.873 125.475 173.775 125.664 173.69 125.901ZM175.542 121.329C175.428 121.472 175.296 121.749 175.258 121.873C176.195 122.003 176.947 122.486 176.947 122.486C176.128 122.338 175.694 122.356 175.394 122.383C175.087 122.412 175.029 122.453 175.029 122.453C174.812 122.933 174.677 123.761 174.677 123.761C174.528 123.409 174.313 122.686 174.313 122.686C173.9 122.907 172.955 123.8 172.955 123.8C173.476 122.753 174.003 122.276 174.003 122.276C173.825 122.093 173.346 122.003 172.998 121.983C173.178 121.908 173.646 121.823 174.001 121.811C174.355 121.795 174.574 121.818 174.574 121.818C174.89 121.568 175.374 121.353 175.542 121.329ZM176.042 126.421C176.224 126.217 176.365 126.038 176.528 125.811C176.53 125.832 176.531 125.852 176.532 125.872C176.54 126.001 176.546 126.105 176.561 126.224C176.861 126.082 177.084 125.949 177.345 125.765C177.1 126.012 176.886 126.219 176.591 126.451C176.618 126.575 176.637 126.644 176.664 126.739C176.55 126.76 176.398 126.772 176.235 126.766C175.929 126.949 175.505 127.085 175.183 127.165C175.374 127.045 175.542 126.916 175.734 126.734C175.542 126.694 175.358 126.633 175.172 126.541C175.474 126.54 175.725 126.506 176.042 126.421Z" fill="black"/>
<path fill-rule="evenodd" clip-rule="evenodd" d="M117.943 122.446C117.943 122.693 117.924 122.939 117.924 123.184C117.924 123.365 117.934 123.502 117.943 123.636C117.98 123.642 118.176 123.642 118.301 123.642C118.695 123.642 119.241 123.533 119.241 123.024C119.241 122.529 118.681 122.44 118.258 122.44C118.204 122.44 117.997 122.44 117.943 122.446ZM118.612 121.926C119.422 121.926 120.401 122.152 120.401 123.024C120.401 123.789 119.706 124.169 118.301 124.169C118.216 124.169 117.989 124.169 117.924 124.163C117.952 124.685 117.947 125.317 117.98 125.672H116.754C116.804 125.158 116.816 124.311 116.816 123.706C116.816 123.167 116.804 122.281 116.754 121.926H118.612ZM113.652 121.926C113.632 122.179 113.623 122.435 113.623 122.698V124.483C113.623 124.969 113.778 125.254 114.258 125.254C114.673 125.254 115.08 125.089 115.08 124.325V122.507C115.08 122.127 115.072 122.086 115.049 121.926H116.08C116.039 122.253 116.039 122.864 116.039 123.471V124.535C116.039 125.395 115.436 125.769 114.242 125.769C113.16 125.769 112.497 125.539 112.497 124.477V123.109C112.497 122.757 112.481 122.192 112.442 121.926H113.652ZM122.756 122.309C122.217 122.309 121.879 122.837 121.879 123.805C121.879 124.769 122.217 125.287 122.756 125.287C123.293 125.287 123.622 124.769 123.622 123.805C123.622 122.837 123.293 122.309 122.756 122.309ZM122.756 125.779C121.593 125.779 120.721 124.976 120.721 123.805C120.721 122.622 121.593 121.828 122.756 121.828C123.914 121.828 124.786 122.622 124.786 123.805C124.786 124.976 123.914 125.779 122.756 125.779ZM109.909 121.926C110.728 121.926 111.704 122.217 111.704 123.088C111.704 123.552 111.36 123.886 110.816 124.1C110.929 124.296 111.836 125.476 112.016 125.672H110.68C110.445 125.224 109.992 124.443 109.546 123.781C110.084 123.852 110.546 123.597 110.546 123.08C110.546 122.583 109.978 122.44 109.703 122.44C109.573 122.44 109.343 122.44 109.255 122.446C109.237 122.905 109.229 123.455 109.229 123.706C109.229 124.029 109.229 125.106 109.293 125.672H108.047C108.108 125.118 108.122 124.455 108.122 123.706C108.122 123.075 108.112 122.309 108.057 121.926H109.909ZM107.305 123.852C107.285 124.219 107.262 124.997 107.25 125.445C106.848 125.649 106.215 125.769 105.607 125.769C104.22 125.769 103.331 124.896 103.331 123.818C103.331 122.684 104.262 121.828 105.78 121.828C106.127 121.828 106.647 121.883 107.013 121.972L106.744 122.713C106.486 122.549 106.056 122.421 105.766 122.421C104.893 122.421 104.58 123.198 104.58 123.826C104.58 124.873 105.142 125.216 105.773 125.216C105.846 125.216 106.088 125.208 106.167 125.187C106.167 124.734 106.161 124.158 106.127 123.852H107.305ZM166.049 121.829C166.529 121.829 166.993 121.897 167.285 121.989V122.942C166.875 122.706 166.473 122.502 165.941 122.502C165.521 122.502 165.49 122.672 165.49 122.798C165.49 123.429 167.618 123.437 167.618 124.571C167.618 125.306 166.93 125.77 165.788 125.77C165.275 125.77 164.789 125.667 164.458 125.545V124.636C165.24 125.005 165.656 125.126 166.018 125.126C166.308 125.126 166.523 124.993 166.523 124.74C166.523 124.024 164.403 124.093 164.403 122.879C164.403 122.213 165.069 121.829 166.049 121.829ZM162.366 124.284C162.22 123.921 162.019 123.472 161.922 123.157C161.819 123.479 161.595 123.969 161.485 124.284C161.623 124.29 161.81 124.297 161.936 124.297C162.111 124.297 162.198 124.29 162.366 124.284ZM162.469 121.926C162.607 122.369 163.841 125.068 164.126 125.672H162.898C162.851 125.525 162.752 125.324 162.573 124.851C162.386 124.844 162.193 124.844 161.936 124.844C161.686 124.844 161.504 124.851 161.305 124.858C161.193 125.167 161.096 125.411 161.006 125.672H159.942C160.147 125.208 161.377 122.525 161.595 121.926H162.469ZM157.6 122.4C157.416 122.4 157.238 122.412 157.148 122.427C157.127 122.913 157.12 123.15 157.12 123.707C157.12 124.382 157.12 124.63 157.148 125.167H157.689C158.326 125.167 158.63 124.977 158.63 124.589C158.63 124.158 158.236 123.956 157.715 123.956H157.404L157.618 123.39H157.846C158.111 123.39 158.462 123.252 158.462 122.913C158.462 122.55 158.138 122.4 157.6 122.4ZM158.166 121.926C158.857 121.926 159.614 122.179 159.614 122.816C159.614 123.161 159.315 123.479 158.872 123.63C159.464 123.846 159.801 124.187 159.801 124.63C159.801 125.411 158.857 125.672 157.971 125.672H155.942C155.99 125.187 156.004 124.484 156.004 123.707C156.004 123.194 155.996 122.412 155.947 121.926H158.166ZM155.138 121.926C155.109 122.352 155.09 123.353 155.09 123.713C155.09 124.046 155.09 125.158 155.138 125.672H153.906C153.968 125.105 153.973 124.03 153.973 123.713C153.973 123.359 153.954 122.352 153.928 121.926H155.138ZM151.314 121.926C152.131 121.926 153.108 122.219 153.108 123.089C153.108 123.553 152.762 123.886 152.222 124.101C152.332 124.297 153.239 125.477 153.42 125.672H152.084C151.846 125.224 151.396 124.444 150.954 123.782C151.487 123.853 151.953 123.597 151.953 123.081C151.953 122.585 151.384 122.442 151.106 122.442C150.982 122.442 150.745 122.442 150.661 122.448C150.643 122.906 150.635 123.456 150.635 123.707C150.635 124.03 150.635 125.105 150.695 125.672H149.451C149.512 125.12 149.525 124.456 149.525 123.707C149.525 123.076 149.519 122.31 149.465 121.926H151.314ZM147.262 124.284C147.114 123.921 146.912 123.472 146.817 123.157C146.713 123.479 146.493 123.969 146.38 124.284C146.519 124.29 146.706 124.297 146.832 124.297C147.003 124.297 147.096 124.29 147.262 124.284ZM147.364 121.926C147.504 122.369 148.736 125.068 149.02 125.672H147.795C147.747 125.525 147.649 125.324 147.469 124.851C147.282 124.844 147.088 124.844 146.832 124.844C146.582 124.844 146.402 124.851 146.199 124.858C146.089 125.167 145.994 125.411 145.903 125.672H144.837C145.044 125.208 146.27 122.525 146.493 121.926H147.364ZM142.724 122.448C142.724 122.695 142.712 122.942 142.712 123.186C142.712 123.364 142.717 123.503 142.724 123.637C142.766 123.643 142.96 123.643 143.085 123.643C143.48 123.643 144.028 123.534 144.028 123.026C144.028 122.53 143.467 122.442 143.043 122.442C142.989 122.442 142.782 122.442 142.724 122.448ZM143.396 121.926C144.209 121.926 145.185 122.153 145.185 123.026C145.185 123.79 144.492 124.17 143.085 124.17C143.003 124.17 142.774 124.17 142.712 124.164C142.738 124.685 142.732 125.317 142.766 125.672H141.541C141.589 125.158 141.602 124.311 141.602 123.707C141.602 123.169 141.589 122.282 141.541 121.926H143.396ZM137.071 122.448C137.071 122.695 137.058 122.942 137.058 123.186C137.058 123.364 137.065 123.503 137.071 123.637C137.113 123.643 137.307 123.643 137.432 123.643C137.827 123.643 138.373 123.534 138.373 123.026C138.373 122.53 137.811 122.442 137.389 122.442C137.334 122.442 137.126 122.442 137.071 122.448ZM137.742 121.926C138.554 121.926 139.532 122.153 139.532 123.026C139.532 123.79 138.839 124.17 137.432 124.17C137.347 124.17 137.121 124.17 137.058 124.164C137.085 124.685 137.079 125.317 137.113 125.672H135.886C135.936 125.158 135.948 124.311 135.948 123.707C135.948 123.169 135.936 122.282 135.886 121.926H137.742ZM135.02 121.926C134.986 122.352 134.965 123.337 134.965 123.707C134.965 124.046 134.972 125.158 135.02 125.672H134.141L132.727 123.583C132.609 123.414 132.525 123.252 132.494 123.069V124.255C132.494 124.709 132.506 125.349 132.547 125.672H131.541C131.604 125.105 131.61 124.03 131.61 123.707C131.61 123.353 131.591 122.352 131.563 121.926H132.706L133.899 123.874C133.96 123.969 133.983 124.017 134.01 124.101V121.926H135.02ZM128.702 122.4C128.52 122.4 128.341 122.412 128.251 122.427C128.231 122.913 128.223 123.15 128.223 123.707C128.223 124.382 128.223 124.63 128.251 125.167H128.792C129.43 125.167 129.732 124.977 129.732 124.589C129.732 124.158 129.339 123.956 128.819 123.956H128.507L128.724 123.39H128.95C129.212 123.39 129.566 123.252 129.566 122.913C129.566 122.55 129.24 122.4 128.702 122.4ZM129.269 121.926C129.962 121.926 130.719 122.179 130.719 122.816C130.719 123.161 130.421 123.479 129.975 123.63C130.566 123.846 130.905 124.187 130.905 124.63C130.905 125.411 129.962 125.672 129.075 125.672H127.044C127.095 125.187 127.108 124.484 127.108 123.707C127.108 123.194 127.102 122.412 127.052 121.926H129.269Z" fill="black"/>
<path fill-rule="evenodd" clip-rule="evenodd" d="M113.266 109.939C111.91 109.939 110.812 108.838 110.812 107.478V75.5431C110.812 74.1833 111.91 73.0815 113.266 73.0815C114.621 73.0815 115.72 74.1833 115.72 75.5431V107.478C115.72 108.838 114.621 109.939 113.266 109.939Z" fill="black"/>
<path fill-rule="evenodd" clip-rule="evenodd" d="M181.453 94.297C181.439 88.82 176.994 84.3562 171.532 84.3562C168.553 84.3562 165.885 85.6858 164.064 87.7772C162.245 85.6858 159.576 84.3562 156.597 84.3562C151.131 84.3562 146.683 88.82 146.676 94.3032L146.675 107.478C146.675 108.838 147.773 109.939 149.129 109.939C150.484 109.939 151.583 108.838 151.583 107.478V94.3124C151.583 91.5393 153.833 89.279 156.597 89.279C159.362 89.279 161.612 91.5393 161.612 94.3124L161.612 107.478C161.612 108.838 162.71 109.939 164.065 109.939C165.42 109.939 166.519 108.838 166.519 107.478V94.308C166.52 91.5367 168.769 89.279 171.532 89.279C174.296 89.279 176.546 91.5426 176.546 94.3158L176.547 107.478C176.547 108.838 177.646 109.939 179.001 109.939C180.357 109.939 181.454 108.838 181.454 107.478L181.453 94.297Z" fill="black"/>
<path fill-rule="evenodd" clip-rule="evenodd" d="M80.0598 105.016C77.2955 105.016 75.2968 102.76 75.2968 99.9869V89.3209H80.3909C81.6262 89.3209 82.6274 88.3165 82.6274 87.0772C82.6274 85.8376 81.6262 84.8336 80.3909 84.8336H75.2968V79.3459C75.2968 77.9864 74.1986 76.8846 72.8431 76.8846C71.488 76.8846 70.3894 77.9864 70.3894 79.3459V99.9869C70.3894 105.475 74.5889 109.939 80.0598 109.939C81.4153 109.939 82.5138 108.837 82.5138 107.478C82.5138 106.118 81.4153 105.016 80.0598 105.016Z" fill="black"/>
<path fill-rule="evenodd" clip-rule="evenodd" d="M123.942 94.9407C124.564 91.2694 127.968 88.6596 131.624 88.6596C135.517 88.6596 138.506 91.974 139.062 94.9407H123.942ZM143.71 96.1011C143.71 89.0755 137.461 84.3558 131.624 84.3558C124.619 84.3558 118.92 90.0729 118.92 97.1C118.92 104.419 124.484 109.939 131.861 109.939C135.772 109.939 138.697 108.53 140.079 107.698C140.736 107.312 141.28 106.526 141.28 105.641C141.28 104.516 140.374 103.442 139.04 103.442C138.653 103.442 138.173 103.588 137.792 103.78C136.279 104.623 134.24 105.54 131.861 105.54C128.062 105.54 124.725 103.238 123.945 99.4277H140.632C142.272 99.4277 143.71 97.8736 143.71 96.1011Z" fill="black"/>
<path fill-rule="evenodd" clip-rule="evenodd" d="M47.6544 94.9407C48.2766 91.2694 51.6808 88.6596 55.3364 88.6596C59.2301 88.6596 62.2189 91.974 62.7739 94.9407H47.6544ZM67.423 96.1011C67.423 89.0755 61.1733 84.3558 55.336 84.3558C48.3318 84.3558 42.6331 90.0729 42.6331 97.1C42.6331 104.419 48.1962 109.939 55.5734 109.939C59.4848 109.939 62.4093 108.53 63.7916 107.698C64.4481 107.312 64.9931 106.526 64.9931 105.641C64.9931 104.516 64.0864 103.442 62.7526 103.442C62.3652 103.442 61.8852 103.588 61.5041 103.78C59.9916 104.623 57.9518 105.54 55.5731 105.54C51.7738 105.54 48.4376 103.238 47.6577 99.4277H64.3448C65.9848 99.4277 67.423 97.8736 67.423 96.1011Z" fill="black"/>
<path fill-rule="evenodd" clip-rule="evenodd" d="M88.2311 94.9407C88.8537 91.2694 92.2575 88.6596 95.913 88.6596C99.8068 88.6596 102.796 91.974 103.351 94.9407H88.2311ZM108 96.1011C108 89.0755 101.75 84.3558 95.913 84.3558C88.9088 84.3558 83.2097 90.0729 83.2097 97.1C83.2097 104.419 88.7732 109.939 96.1501 109.939C100.061 109.939 102.986 108.53 104.368 107.698C105.025 107.312 105.57 106.526 105.57 105.641C105.57 104.516 104.663 103.442 103.329 103.442C102.942 103.442 102.463 103.588 102.081 103.78C100.569 104.623 98.5288 105.54 96.1501 105.54C92.3505 105.54 89.0143 103.238 88.2347 99.4277H104.921C106.561 99.4277 108 97.8736 108 96.1011Z" fill="black"/>
<mask id="mask0" mask-type="alpha" maskUnits="userSpaceOnUse" x="18" y="84" width="23" height="26">
<path d="M18 84.356H40.4558V109.939H18V84.356Z" fill="white"/>
</mask>
<g mask="url(#mask0)">
<path fill-rule="evenodd" clip-rule="evenodd" d="M30.7307 109.939C27.4691 109.939 24.2072 108.693 21.7244 106.198C16.7579 101.21 16.7579 93.0928 21.7244 88.1044C24.1293 85.6874 27.328 84.356 30.7303 84.356C34.1326 84.356 37.3313 85.6874 39.7369 88.1044C40.6951 89.0671 40.6951 90.6279 39.7365 91.5896C38.7783 92.5523 37.2247 92.5523 36.2669 91.5896C34.788 90.104 32.8216 89.2865 30.7303 89.2865C28.6394 89.2865 26.6726 90.104 25.1944 91.5896C22.1412 94.6558 22.1412 99.6469 25.1944 102.713C28.2479 105.779 33.2145 105.779 36.2669 102.713C37.2255 101.75 38.7783 101.75 39.7369 102.713C40.6951 103.676 40.6951 105.237 39.7365 106.198C37.2534 108.693 33.9919 109.939 30.7307 109.939Z" fill="black"/>
</g>
<path fill-rule="evenodd" clip-rule="evenodd" d="M38.6676 118.228H21.753C20.5177 118.228 19.5165 117.224 19.5165 115.985C19.5165 114.745 20.5177 113.741 21.753 113.741H38.6676C39.9025 113.741 40.904 114.745 40.904 115.985C40.904 117.224 39.9025 118.228 38.6676 118.228Z" fill="black"/>
</g>
<defs>
<clipPath id="clip0">
<rect width="163.472" height="55" fill="white" transform="translate(18 73)"/>
</clipPath>
</defs>
</svg>
