<svg width="528" height="278" fill="none" xmlns="http://www.w3.org/2000/svg"><path fill="#278600" d="M0 0h528v278H0z"/><path fill-rule="evenodd" clip-rule="evenodd" d="M271.502 141.949v12.723c0 4.062-2.632 5.642-5.449 5.642-3.097 0-5.335-1.974-5.335-5.256v-13.109h-5.378v12.986c0 7.037 4.527 10.134 10.792 10.134 5.879 0 10.748-2.632 10.748-10.169v-12.951h-5.378zm14.118 7.379h-4.598v15.434h4.598v-9.941c1.202-1.895 2.053-2.553 3.167-2.553 1.316 0 2.281.93 2.281 3.097v9.397h4.563v-9.783c0-4.563-3.018-5.914-5.3-5.914-1.86 0-3.29.737-4.72 2.474l.009-2.211zm18.478 0h-4.562v15.434h4.562v-15.434zm16.627 11.214c-2.053.816-3.018 1.079-4.132 1.079-2.589 0-4.335-1.816-4.335-4.563 0-2.711 1.738-4.448 4.528-4.448 1.123 0 2.518.386 3.711 1.044v-3.597c-1.509-.623-3.404-1.009-4.913-1.009-4.8 0-8.239 3.325-8.239 8.046 0 4.799 3.325 7.967 8.432 7.967 1.544 0 3.088-.351 4.948-1.045v-3.474zm17.944.395c-1.08.807-1.43.886-1.738.886-.5 0-.772-.307-.772-1.079v-7.002c0-3.405-2.474-4.677-6.15-4.677-2.317 0-4.449.623-6.344 1.86v3.949c1.465-1.588 3.553-2.589 5.378-2.589 2.01 0 2.633 1.158 2.554 2.589-6.107 2.009-8.661 2.746-8.661 6.422 0 1.931 1.738 3.791 4.063 3.791 1.588 0 3.053-.5 4.791-1.737.351 1.237 1.044 1.737 2.588 1.737 1.202 0 3.018-.623 4.291-1.43v-2.72zm-7.072.07c-.772.737-1.703 1.158-2.554 1.158-.807 0-1.465-.737-1.465-1.623 0-1.544 1.272-2.202 4.019-3.247v3.712zm13.723-11.679h-4.607v14.697c0 2.518-.693 3.756-2.36 4.019l1.465 4.404c2.317-.228 5.493-2.009 5.493-7.273v-15.847h.009zM364 160.937c-1.079.807-1.43.886-1.737.886-.5 0-.772-.307-.772-1.079v-7.002c0-3.405-2.475-4.677-6.151-4.677-2.317 0-4.449.623-6.344 1.86v3.949c1.465-1.588 3.554-2.589 5.379-2.589 2.009 0 2.632 1.158 2.553 2.589-6.107 2.009-8.66 2.746-8.66 6.422 0 1.931 1.737 3.791 4.062 3.791 1.588 0 3.054-.5 4.791-1.737.351 1.237 1.044 1.737 2.588 1.737 1.202 0 3.019-.623 4.291-1.43v-2.72zm-7.081.07c-.772.737-1.702 1.158-2.553 1.158-.816 0-1.465-.737-1.465-1.623 0-1.544 1.272-2.202 4.018-3.247v3.712zm-192.612 12.145H363.5v2.826H164.307v-2.826zm48.724-6.186C187.892 146.198 164 126.675 164 126.675s6.186-9.362 16.276-15.855l32.755 56.146zm-2.282-7.616c-13.574-22.734-28.999-49.153-28.999-49.153s8.968-5.721 17.593-7.195l11.406 56.348zm.386-6.572c-4.176-20.768-9.555-50.039-9.555-50.039s7.274-1.395 15.311-.351l-5.756 50.39zm2.633-6.387c2.904-23.05 4.992-43.81 4.992-43.81s7.274.693 12.03 3.369c-.009 0-6.081 14.381-17.022 40.441zm3.632-3.668c10.134-23.471 15.355-36.159 15.355-36.159s4.484 1.238 9.046 5.107L217.4 142.723zm4.37-2.904c17.943-22.62 21.233-27.297 21.233-27.297s1.545.272 5.879 5.028l-27.112 22.269zm3.79-.807c21.655-17.444 24.752-19.76 24.752-19.76s2.703 2.553 4.019 4.949l-28.771 14.811zm7.853-1.94c14.846-7.66 22.155-11.02 22.155-11.02s.807.816 1.737 3.018l-23.892 8.002zm4.528.123c20.452-6.265 19.873-6.3 19.873-6.3s.816 1.431.816 2.475l-20.689 3.825zm58.655 4.247a4.156 4.156 0 014.142-4.176h.035a4.175 4.175 0 014.176 4.176c0 2.281-1.895 4.177-4.176 4.177a4.181 4.181 0 01-4.177-4.177zm41.731.158c0-2.395 1.93-4.334 4.29-4.334 2.387-.009 4.326 1.93 4.335 4.317v.017c0 2.36-1.931 4.291-4.335 4.291a4.302 4.302 0 01-4.29-4.291z" fill="#fff"/></svg>