<svg width="528" height="278" viewBox="0 0 528 278" fill="none" xmlns="http://www.w3.org/2000/svg">
<rect width="528" height="278" fill="#F7DF9E"/>
<path fill-rule="evenodd" clip-rule="evenodd" d="M277.963 150.194V156.244C277.418 156.57 276.76 156.82 275.989 156.996C275.217 157.171 274.43 157.259 273.626 157.259C272.511 157.259 271.503 157.084 270.602 156.732C269.701 156.381 268.932 155.899 268.297 155.288C267.662 154.676 267.176 153.948 266.838 153.102C266.501 152.256 266.333 151.332 266.333 150.33C266.333 149.198 266.534 148.167 266.936 147.237C267.338 146.306 267.879 145.506 268.56 144.836C269.24 144.166 270.031 143.646 270.932 143.275C271.833 142.904 272.783 142.718 273.781 142.718C274.118 142.718 274.472 142.741 274.841 142.787C275.211 142.832 275.577 142.901 275.94 142.992C276.303 143.083 276.653 143.19 276.99 143.314C277.327 143.437 277.632 143.584 277.904 143.753L276.737 145.705C276.556 145.588 276.339 145.487 276.086 145.402C275.833 145.318 275.571 145.243 275.298 145.178C275.026 145.113 274.757 145.064 274.491 145.031C274.225 144.999 273.976 144.982 273.742 144.982C273.081 144.982 272.449 145.116 271.846 145.383C271.243 145.649 270.709 146.01 270.242 146.466C269.775 146.921 269.402 147.464 269.124 148.096C268.845 148.727 268.705 149.4 268.705 150.116C268.705 150.766 268.829 151.384 269.075 151.97C269.321 152.555 269.665 153.073 270.106 153.522C270.547 153.97 271.072 154.328 271.681 154.595C272.29 154.862 272.958 154.995 273.684 154.995C273.943 154.995 274.268 154.972 274.657 154.927C275.045 154.881 275.415 154.8 275.765 154.683V152.263H273.12V150.194H277.963ZM285.975 157.259C285.21 157.259 284.494 157.132 283.826 156.879C283.158 156.625 282.578 156.27 282.086 155.815C281.593 155.359 281.204 154.81 280.919 154.166C280.633 153.522 280.491 152.809 280.491 152.028V142.875H282.864V151.97C282.864 152.386 282.945 152.777 283.107 153.141C283.269 153.505 283.489 153.824 283.768 154.097C284.047 154.371 284.374 154.588 284.75 154.751C285.126 154.914 285.534 154.995 285.975 154.995C286.416 154.995 286.828 154.914 287.21 154.751C287.593 154.588 287.926 154.371 288.212 154.097C288.497 153.824 288.721 153.505 288.883 153.141C289.045 152.777 289.126 152.386 289.126 151.97V142.875H291.498V152.028C291.498 152.809 291.356 153.522 291.071 154.166C290.785 154.81 290.393 155.359 289.894 155.815C289.395 156.27 288.808 156.625 288.134 156.879C287.46 157.132 286.74 157.259 285.975 157.259ZM294.629 157.103V142.875H304.042V145.041H297.002V148.867H303.264V151.092H297.002V154.878H304.315V157.103H294.629ZM306.668 157.103V142.875H310.674C311.452 142.875 312.162 142.979 312.804 143.187C313.445 143.395 313.99 143.694 314.437 144.085C314.884 144.475 315.231 144.956 315.478 145.529C315.724 146.102 315.847 146.746 315.847 147.461C315.847 147.852 315.808 148.242 315.73 148.632C315.653 149.023 315.529 149.4 315.361 149.764C315.192 150.129 314.972 150.464 314.7 150.77C314.427 151.075 314.103 151.339 313.727 151.56C314.013 152.015 314.291 152.461 314.564 152.897C314.836 153.333 315.111 153.772 315.39 154.214C315.669 154.657 315.957 155.112 316.255 155.581C316.554 156.049 316.878 156.557 317.228 157.103H314.369C313.786 156.192 313.235 155.33 312.716 154.517C312.197 153.704 311.698 152.933 311.219 152.204H309.04V157.103H306.668ZM309.04 149.96H310.946C311.439 149.96 311.847 149.875 312.171 149.706C312.496 149.537 312.755 149.332 312.949 149.091C313.144 148.85 313.28 148.59 313.358 148.31C313.436 148.031 313.474 147.774 313.474 147.539C313.474 147.318 313.439 147.068 313.367 146.788C313.296 146.508 313.167 146.245 312.979 145.997C312.791 145.75 312.534 145.542 312.21 145.373C311.886 145.204 311.471 145.119 310.966 145.119H309.04V149.96ZM331.561 142.875V157.767C331.47 157.65 331.269 157.435 330.958 157.123C330.647 156.81 330.264 156.436 329.811 156C329.357 155.564 328.854 155.083 328.303 154.556C327.752 154.029 327.192 153.495 326.621 152.955C326.051 152.415 325.493 151.885 324.949 151.365C324.404 150.844 323.908 150.366 323.461 149.93C323.014 149.494 322.638 149.124 322.333 148.818C322.028 148.512 321.831 148.301 321.74 148.183C321.727 148.157 321.675 148.089 321.584 147.978C321.493 147.868 321.416 147.767 321.351 147.676L321.409 148.301V157.103H319.037V142.23C319.127 142.348 319.328 142.559 319.639 142.865C319.951 143.171 320.333 143.538 320.787 143.968C321.241 144.397 321.743 144.865 322.294 145.373C322.845 145.88 323.406 146.398 323.976 146.924C324.547 147.451 325.104 147.972 325.649 148.486C326.193 149 326.693 149.468 327.146 149.891C327.6 150.314 327.979 150.675 328.284 150.974C328.589 151.274 328.786 151.482 328.877 151.599L329.247 152.146L329.188 151.482V142.875H331.561ZM334.828 142.875H337.22V157.103H334.828V142.875ZM351.164 156.049C351.009 156.153 350.792 156.277 350.513 156.42C350.234 156.563 349.904 156.696 349.521 156.82C349.139 156.944 348.708 157.048 348.228 157.132C347.748 157.217 347.236 157.259 346.691 157.259C345.576 157.259 344.578 157.067 343.696 156.683C342.815 156.3 342.069 155.782 341.46 155.132C340.851 154.481 340.384 153.72 340.06 152.848C339.736 151.976 339.573 151.059 339.573 150.096C339.573 149.029 339.768 148.044 340.157 147.139C340.546 146.235 341.074 145.454 341.742 144.797C342.41 144.14 343.188 143.629 344.076 143.265C344.964 142.901 345.913 142.718 346.925 142.718C347.314 142.718 347.706 142.748 348.101 142.806C348.497 142.865 348.87 142.94 349.22 143.031C349.57 143.122 349.878 143.226 350.143 143.343C350.409 143.46 350.6 143.584 350.717 143.714C350.6 143.896 350.51 144.046 350.445 144.163C350.38 144.28 350.312 144.4 350.241 144.524C350.169 144.647 350.092 144.787 350.007 144.943C349.923 145.1 349.803 145.314 349.647 145.588C349.492 145.483 349.304 145.392 349.084 145.314C348.863 145.236 348.633 145.174 348.393 145.129C348.153 145.083 347.91 145.048 347.664 145.022C347.417 144.995 347.197 144.982 347.003 144.982C346.277 144.982 345.606 145.119 344.99 145.392C344.374 145.666 343.842 146.027 343.395 146.476C342.948 146.924 342.598 147.448 342.345 148.047C342.092 148.645 341.966 149.263 341.966 149.901C341.966 150.526 342.086 151.134 342.325 151.726C342.565 152.318 342.902 152.842 343.337 153.297C343.771 153.752 344.286 154.12 344.883 154.4C345.479 154.68 346.14 154.819 346.866 154.819C347.281 154.819 347.683 154.777 348.072 154.693C348.461 154.608 348.805 154.514 349.103 154.41C349.401 154.305 349.644 154.201 349.832 154.097C350.02 153.993 350.121 153.922 350.134 153.883L351.164 156.049ZM361.647 157.103C361.608 157.012 361.54 156.849 361.443 156.615C361.345 156.381 361.225 156.095 361.083 155.756C360.94 155.418 360.785 155.044 360.616 154.634C360.448 154.224 360.273 153.798 360.091 153.356H355.21L353.654 157.103H351.301C351.352 156.986 351.476 156.696 351.67 156.234C351.865 155.773 352.108 155.2 352.399 154.517C352.691 153.834 353.015 153.073 353.372 152.233C353.728 151.394 354.095 150.539 354.471 149.667C354.847 148.795 355.213 147.939 355.569 147.1C355.926 146.261 356.25 145.5 356.542 144.817C356.833 144.133 357.077 143.561 357.271 143.099C357.466 142.637 357.589 142.348 357.641 142.23C357.692 142.348 357.819 142.637 358.02 143.099C358.221 143.561 358.467 144.133 358.759 144.817C359.051 145.5 359.375 146.261 359.731 147.1C360.088 147.939 360.454 148.795 360.83 149.667C361.206 150.539 361.572 151.394 361.929 152.233C362.285 153.073 362.609 153.834 362.901 154.517C363.193 155.2 363.436 155.773 363.631 156.234C363.825 156.696 363.948 156.986 364 157.103H361.647ZM356.026 151.345H359.255L357.854 147.949C357.842 147.936 357.809 147.848 357.757 147.686C357.705 147.523 357.666 147.377 357.641 147.247C357.615 147.377 357.576 147.523 357.524 147.686C357.472 147.848 357.446 147.936 357.446 147.949L356.026 151.345Z" fill="#242424"/>
<path fill-rule="evenodd" clip-rule="evenodd" d="M266.788 135.147V124.856H269.589C270.126 124.856 270.619 124.927 271.067 125.069C271.515 125.211 271.901 125.421 272.226 125.7C272.552 125.979 272.804 126.32 272.983 126.722C273.162 127.124 273.252 127.586 273.252 128.106C273.252 128.39 273.224 128.672 273.167 128.951C273.11 129.23 273.018 129.5 272.891 129.76C272.764 130.02 272.601 130.261 272.403 130.484C272.205 130.706 271.965 130.893 271.682 131.045C272.059 131.641 272.469 132.301 272.912 133.025C273.356 133.749 273.803 134.456 274.256 135.147H272.403C272.215 134.854 272.019 134.546 271.816 134.224C271.614 133.902 271.411 133.583 271.208 133.266C271.005 132.949 270.807 132.637 270.614 132.329C270.421 132.022 270.239 131.735 270.069 131.47H268.344V135.147H266.788ZM268.344 130.008H269.744C270.121 130.008 270.437 129.944 270.692 129.817C270.946 129.689 271.147 129.53 271.293 129.341C271.439 129.152 271.543 128.948 271.604 128.731C271.665 128.513 271.696 128.314 271.696 128.135C271.696 127.955 271.665 127.758 271.604 127.546C271.543 127.333 271.437 127.134 271.286 126.949C271.135 126.765 270.935 126.611 270.685 126.488C270.435 126.365 270.126 126.304 269.758 126.304H268.344V130.008ZM275.67 135.147V124.856H282.403V126.261H277.226V129.27H281.837V130.704H277.226V133.713H282.601V135.147H275.67ZM285.953 130.008H287.353C287.73 130.008 288.046 129.942 288.301 129.81C288.556 129.677 288.756 129.516 288.902 129.327C289.048 129.138 289.152 128.934 289.213 128.717C289.275 128.499 289.305 128.305 289.305 128.135C289.305 127.955 289.275 127.758 289.213 127.546C289.152 127.333 289.046 127.134 288.895 126.949C288.744 126.765 288.544 126.611 288.294 126.488C288.044 126.365 287.735 126.304 287.367 126.304H285.953V130.008ZM284.397 135.147V124.856H287.198C287.735 124.856 288.228 124.927 288.676 125.069C289.124 125.211 289.51 125.421 289.836 125.7C290.161 125.979 290.413 126.32 290.592 126.722C290.771 127.124 290.861 127.586 290.861 128.106C290.861 128.513 290.8 128.918 290.677 129.32C290.555 129.722 290.357 130.082 290.083 130.399C289.81 130.716 289.451 130.974 289.008 131.172C288.565 131.371 288.028 131.47 287.396 131.47H285.953V135.147H284.397ZM292.558 135.147V124.856H299.291V126.261H294.114V129.27H298.725V130.704H294.114V133.713H299.489V135.147H292.558ZM310.281 124.856V135.615C310.149 135.445 309.894 135.171 309.517 134.792L308.216 133.486C307.725 132.994 307.204 132.478 306.653 131.939C306.101 131.399 305.58 130.886 305.09 130.399C304.599 129.911 304.17 129.476 303.803 129.093C303.435 128.71 303.19 128.437 303.067 128.277L302.798 127.908L302.841 128.362V135.147H301.285V124.373C301.389 124.506 301.561 124.695 301.801 124.941C302.042 125.187 302.325 125.473 302.65 125.8C302.975 126.126 303.334 126.479 303.725 126.857C304.116 127.236 304.512 127.619 304.913 128.007C305.314 128.395 305.71 128.776 306.101 129.15C306.492 129.523 306.851 129.871 307.176 130.193C307.501 130.515 307.782 130.799 308.018 131.045C308.253 131.291 308.418 131.475 308.513 131.598L308.781 131.996L308.739 131.513V124.856H310.281ZM318.668 125.423L318.116 126.687C317.73 126.545 317.345 126.431 316.964 126.346C316.582 126.261 316.216 126.218 315.867 126.218C315.273 126.218 314.8 126.341 314.446 126.587C314.092 126.833 313.916 127.146 313.916 127.524C313.916 127.846 314.043 128.104 314.297 128.298C314.552 128.492 314.868 128.667 315.245 128.823C315.622 128.979 316.032 129.135 316.476 129.292C316.919 129.448 317.329 129.649 317.706 129.895C318.083 130.141 318.399 130.451 318.654 130.825C318.908 131.198 319.036 131.679 319.036 132.265C319.036 132.72 318.953 133.129 318.788 133.493C318.623 133.858 318.378 134.172 318.053 134.437C317.727 134.702 317.322 134.906 316.836 135.047C316.351 135.189 315.783 135.26 315.132 135.26C314.717 135.26 314.342 135.232 314.008 135.175C313.673 135.118 313.371 135.045 313.102 134.955C312.834 134.865 312.598 134.768 312.395 134.664C312.192 134.56 312.02 134.466 311.879 134.38L312.558 133.032C312.935 133.249 313.355 133.425 313.817 133.557C314.279 133.69 314.698 133.756 315.075 133.756C315.264 133.756 315.497 133.732 315.776 133.685C316.054 133.637 316.32 133.555 316.575 133.436C316.829 133.318 317.048 133.16 317.232 132.961C317.416 132.762 317.508 132.511 317.508 132.209C317.508 131.934 317.435 131.7 317.289 131.506C317.143 131.312 316.949 131.142 316.709 130.995C316.469 130.848 316.195 130.716 315.889 130.597C315.582 130.479 315.269 130.356 314.948 130.228C314.627 130.101 314.314 129.966 314.008 129.824C313.701 129.682 313.428 129.509 313.187 129.306C312.947 129.102 312.753 128.866 312.607 128.596C312.461 128.326 312.388 128.002 312.388 127.624C312.388 127.274 312.459 126.928 312.6 126.587C312.742 126.247 312.954 125.944 313.237 125.679C313.52 125.414 313.871 125.201 314.29 125.04C314.71 124.879 315.198 124.799 315.754 124.799C316.094 124.799 316.426 124.827 316.751 124.884C317.077 124.941 317.371 125.005 317.635 125.076C317.899 125.147 318.123 125.215 318.307 125.282C318.491 125.348 318.611 125.395 318.668 125.423ZM327.14 135.147C327.093 135.043 327.027 134.891 326.942 134.693C326.857 134.494 326.761 134.264 326.652 134.004C326.544 133.744 326.426 133.46 326.299 133.152C326.171 132.845 326.042 132.526 325.91 132.194H322.289L321.072 135.147H319.545L324.113 124.373C324.17 124.506 324.271 124.747 324.417 125.097C324.564 125.447 324.738 125.866 324.941 126.353C325.143 126.841 325.37 127.38 325.62 127.971C325.87 128.563 326.124 129.161 326.383 129.767C326.643 130.373 326.897 130.969 327.147 131.556C327.397 132.142 327.626 132.682 327.833 133.174C328.041 133.666 328.217 134.085 328.364 134.43C328.51 134.775 328.611 135.014 328.668 135.147H327.14ZM322.826 130.888H325.386C325.254 130.576 325.129 130.276 325.011 129.987C324.894 129.698 324.785 129.433 324.686 129.192C324.587 128.951 324.5 128.74 324.425 128.56C324.349 128.381 324.292 128.239 324.255 128.135C324.245 128.116 324.224 128.049 324.191 127.936C324.158 127.822 324.132 127.718 324.113 127.624C324.094 127.718 324.066 127.822 324.028 127.936C323.991 128.049 323.967 128.116 323.958 128.135L322.826 130.888ZM329.941 135.147V124.856H332.741C333.279 124.856 333.771 124.927 334.219 125.069C334.667 125.211 335.054 125.421 335.379 125.7C335.704 125.979 335.956 126.32 336.136 126.722C336.315 127.124 336.404 127.586 336.404 128.106C336.404 128.39 336.376 128.672 336.32 128.951C336.263 129.23 336.171 129.5 336.044 129.76C335.916 130.02 335.754 130.261 335.556 130.484C335.358 130.706 335.117 130.893 334.834 131.045C335.212 131.641 335.622 132.301 336.065 133.025C336.508 133.749 336.956 134.456 337.409 135.147H335.556C335.367 134.854 335.172 134.546 334.969 134.224C334.766 133.902 334.563 133.583 334.361 133.266C334.158 132.949 333.96 132.637 333.767 132.329C333.573 132.022 333.392 131.735 333.222 131.47H331.496V135.147H329.941ZM331.496 130.008H332.897C333.274 130.008 333.59 129.944 333.844 129.817C334.099 129.689 334.299 129.53 334.445 129.341C334.592 129.152 334.695 128.948 334.757 128.731C334.818 128.513 334.849 128.314 334.849 128.135C334.849 127.955 334.818 127.758 334.757 127.546C334.695 127.333 334.589 127.134 334.438 126.949C334.288 126.765 334.087 126.611 333.837 126.488C333.587 126.365 333.279 126.304 332.911 126.304H331.496V130.008Z" fill="#242424"/>
<path fill-rule="evenodd" clip-rule="evenodd" d="M220.027 154.003C220.027 152.165 219.118 151.361 217.22 150.755C216.408 150.492 215.419 150.262 215.419 149.622C215.419 149.098 215.742 148.868 216.23 148.868H216.505C217.057 148.868 217.463 149.163 217.755 149.721C217.82 149.852 217.966 149.852 218.08 149.77L219.767 148.638C219.93 148.54 219.864 148.376 219.799 148.277C219.595 147.919 219.332 147.597 219.021 147.326C218.388 146.767 217.528 146.457 216.473 146.457H216.23C214.006 146.457 212.659 147.671 212.659 149.704C212.659 151.526 213.633 152.248 215.369 152.854C216.457 153.232 217.268 153.33 217.268 154.068C217.268 154.544 216.943 154.823 216.44 154.823H215.938C215.386 154.823 214.979 154.528 214.688 153.97C214.623 153.839 214.477 153.839 214.363 153.921L212.676 155.053C212.513 155.151 212.578 155.299 212.643 155.397C212.822 155.709 213.033 155.988 213.292 156.234C213.941 156.874 214.85 157.235 215.97 157.235H216.473C218.761 157.235 220.026 156.021 220.026 154.003H220.027ZM241.488 156.857V146.805C241.488 146.674 241.375 146.641 241.31 146.641H238.926C238.844 146.641 238.78 146.674 238.78 146.805V156.857C238.78 156.989 238.845 157.022 238.926 157.022H241.311C241.408 157.022 241.489 156.989 241.489 156.857H241.488ZM237.65 148.912V146.805C237.65 146.674 237.553 146.642 237.488 146.642H230.739C230.658 146.642 230.593 146.674 230.593 146.805V156.857C230.593 156.989 230.658 157.022 230.739 157.022H233.139C233.221 157.022 233.303 156.989 233.303 156.857V153.156C233.303 153.04 233.351 152.974 233.497 152.974H236.774C236.855 152.974 236.936 152.942 236.936 152.826V150.704C236.936 150.589 236.855 150.556 236.774 150.556H233.497C233.351 150.556 233.302 150.49 233.302 150.375V149.24C233.302 149.126 233.351 149.06 233.497 149.06H237.488C237.585 149.06 237.65 149.027 237.65 148.911V148.912ZM251.504 156.808L248.109 146.765C248.077 146.666 248.028 146.65 247.963 146.65H246.192C246.094 146.65 246.062 146.682 246.03 146.765L242.634 156.808C242.585 156.939 242.65 157.022 242.796 157.022H245.299C245.38 157.022 245.412 156.989 245.445 156.907L245.883 155.674C245.916 155.591 245.948 155.559 246.078 155.559H248.028C248.159 155.559 248.207 155.591 248.239 155.674L248.662 156.907C248.693 156.989 248.71 157.022 248.808 157.022H251.359C251.537 157.022 251.553 156.939 251.505 156.808H251.504ZM247.687 153.471C247.703 153.553 247.654 153.619 247.541 153.619H246.598C246.468 153.619 246.42 153.554 246.436 153.47L246.728 152.189C246.956 151.22 247.069 150.167 247.069 150.167H247.118C247.118 150.167 247.232 151.22 247.426 152.189L247.687 153.471ZM199.904 156.831V146.807C199.904 146.676 199.806 146.643 199.742 146.643H197.454C197.356 146.643 197.307 146.676 197.307 146.807V149.464C197.307 150.925 197.388 152.205 197.388 152.205H197.34C197.34 152.205 197.21 151.843 196.983 151.417L194.582 146.791C194.532 146.692 194.467 146.643 194.371 146.643H192.309C192.228 146.643 192.163 146.676 192.163 146.807V156.831C192.163 156.962 192.228 156.995 192.309 156.995H194.646C194.744 156.995 194.809 156.962 194.809 156.831V154.222C194.809 152.877 194.711 151.581 194.711 151.581H194.776C194.776 151.581 194.906 151.942 195.117 152.319L197.535 156.847C197.583 156.929 197.632 156.995 197.713 156.995H199.741C199.839 156.995 199.904 156.962 199.904 156.831V156.831ZM190.597 156.831V146.807C190.597 146.676 190.484 146.643 190.419 146.643H188.033C187.951 146.643 187.887 146.676 187.887 146.807V156.831C187.887 156.962 187.952 156.995 188.033 156.995H190.419C190.516 156.995 190.597 156.962 190.597 156.831V156.831ZM229.302 154.15V149.541C229.302 147.671 227.891 146.457 225.814 146.457H224.679C222.6 146.457 221.157 147.686 221.157 149.541V154.15C221.157 156.004 222.568 157.235 224.678 157.235H225.813C227.891 157.235 229.302 156.004 229.302 154.15ZM226.609 154.15C226.609 154.544 226.317 154.823 225.814 154.823H224.679C224.11 154.823 223.818 154.56 223.818 154.15V149.541C223.818 149.196 224.207 148.852 224.678 148.852H225.813C226.284 148.852 226.609 149.147 226.609 149.541V154.15ZM209.829 156.782L206.437 146.758C206.405 146.659 206.356 146.643 206.291 146.643H204.524C204.426 146.643 204.394 146.676 204.361 146.758L200.97 156.782C200.921 156.912 200.986 156.995 201.132 156.995H203.631C203.713 156.995 203.744 156.962 203.778 156.88L204.215 155.65C204.248 155.568 204.28 155.534 204.41 155.534H206.357C206.488 155.534 206.536 155.568 206.569 155.65L206.99 156.88C207.023 156.962 207.039 156.995 207.136 156.995H209.684C209.863 156.995 209.879 156.913 209.83 156.781L209.829 156.782ZM206.015 153.452C206.032 153.533 205.983 153.599 205.87 153.599H204.928C204.798 153.599 204.75 153.533 204.767 153.452L205.058 152.171C205.286 151.204 205.398 150.154 205.398 150.154H205.448C205.448 150.154 205.561 151.204 205.756 152.172L206.016 153.452H206.015ZM186.321 156.831V154.731C186.321 154.616 186.24 154.584 186.159 154.584H182.168C182.021 154.584 181.972 154.519 181.972 154.403V153.14C181.972 153.025 182.021 152.959 182.168 152.959H185.445C185.526 152.959 185.607 152.926 185.607 152.811V150.695C185.607 150.58 185.526 150.547 185.445 150.547H182.167C182.021 150.547 181.972 150.482 181.972 150.367V149.234C181.972 149.12 182.021 149.055 182.167 149.055H186.159C186.256 149.055 186.321 149.021 186.321 148.906V146.807C186.321 146.676 186.224 146.643 186.159 146.643H179.409C179.328 146.643 179.262 146.676 179.262 146.807V156.831C179.262 156.962 179.328 156.995 179.409 156.995H186.159C186.256 156.995 186.321 156.962 186.321 156.831V156.831ZM174.921 150.055C174.921 150.499 174.612 150.712 174.11 150.712H172.34C172.194 150.712 172.145 150.647 172.145 150.531V149.234C172.145 149.12 172.194 149.055 172.34 149.055H174.11C174.644 149.055 174.921 149.301 174.921 149.743V150.055V150.055ZM177.923 156.781L176.332 152.664C176.284 152.517 176.267 152.401 176.414 152.304C177.127 151.843 177.598 151.057 177.598 150.039V149.891C177.598 147.873 176.235 146.643 174.11 146.643H169.582C169.5 146.643 169.436 146.676 169.436 146.807V156.831C169.436 156.962 169.501 156.995 169.582 156.995H171.982C172.063 156.995 172.145 156.962 172.145 156.831V153.14C172.145 153.025 172.193 152.959 172.339 152.959H173.458C173.523 152.959 173.573 152.992 173.605 153.074L175.098 156.88C175.13 156.946 175.179 156.995 175.244 156.995H177.776C177.938 156.995 177.97 156.896 177.922 156.781H177.923ZM222.93 126.776C222.93 128.102 221.944 128.981 220.492 128.981H219.7C218.227 128.981 217.241 128.102 217.241 126.776V123.479C217.241 122.153 218.249 121.273 219.7 121.273H220.493C221.945 121.273 222.93 122.141 222.93 123.478V124.111H221.049V123.478C221.049 123.197 220.822 122.986 220.493 122.986H219.7C219.371 122.986 219.099 123.233 219.099 123.479V126.776C219.099 127.069 219.303 127.257 219.7 127.257H220.493C220.845 127.257 221.049 127.057 221.049 126.776V126.144H222.93V126.776V126.776ZM176.185 128.73V121.554C176.185 121.46 176.139 121.436 176.072 121.436H174.427C174.403 121.436 174.38 121.443 174.36 121.455C174.34 121.468 174.324 121.486 174.313 121.507L173.009 125.113C172.954 125.268 172.905 125.424 172.861 125.583H172.816C172.816 125.583 172.793 125.371 172.691 125.113L171.342 121.508C171.332 121.486 171.315 121.468 171.295 121.456C171.275 121.443 171.251 121.437 171.227 121.437H169.538C169.469 121.437 169.436 121.461 169.436 121.555V128.73C169.436 128.823 169.469 128.847 169.538 128.847H171.137C171.216 128.847 171.251 128.824 171.251 128.73V127.191C171.251 126.076 171.148 125.054 171.148 125.054H171.183C171.183 125.054 171.285 125.547 171.466 126.076L172.068 127.849C172.101 127.943 172.203 127.966 172.271 127.966H173.372C173.44 127.966 173.53 127.943 173.564 127.849L174.165 126.111C174.347 125.583 174.449 125.054 174.449 125.054H174.484C174.484 125.054 174.404 126.111 174.404 127.214V128.73C174.404 128.823 174.427 128.847 174.506 128.847H176.072C176.139 128.847 176.185 128.824 176.185 128.73V128.73ZM195.059 128.725V127.222C195.059 127.14 195.002 127.117 194.945 127.117H192.304C192.202 127.117 192.169 127.07 192.169 126.986V126.083C192.169 126.001 192.202 125.954 192.304 125.954H194.446C194.504 125.954 194.56 125.931 194.56 125.848V124.333C194.56 124.251 194.504 124.228 194.446 124.228H192.304C192.202 124.228 192.169 124.182 192.169 124.098V123.288C192.169 123.207 192.202 123.159 192.304 123.159H194.946C195.013 123.159 195.058 123.136 195.058 123.054V121.551C195.058 121.457 194.991 121.433 194.946 121.433H190.377C190.319 121.433 190.274 121.457 190.274 121.551V128.725C190.274 128.818 190.319 128.842 190.377 128.842H194.945C195.013 128.842 195.059 128.819 195.059 128.725ZM189.258 126.682C189.258 125.367 188.623 124.791 187.296 124.356C186.728 124.169 186.037 124.005 186.037 123.547C186.037 123.17 186.263 123.008 186.604 123.008H186.797C187.182 123.008 187.466 123.218 187.67 123.617C187.716 123.711 187.818 123.711 187.897 123.652L189.076 122.843C189.19 122.771 189.144 122.654 189.099 122.583C188.957 122.328 188.773 122.097 188.554 121.902C188.112 121.503 187.511 121.281 186.774 121.281H186.603C185.05 121.281 184.108 122.149 184.108 123.606C184.108 124.908 184.788 125.425 186.002 125.86C186.763 126.13 187.329 126.2 187.329 126.729C187.329 127.069 187.103 127.268 186.751 127.268H186.4C186.014 127.268 185.73 127.058 185.526 126.658C185.481 126.565 185.378 126.565 185.299 126.624L184.12 127.433C184.006 127.504 184.052 127.61 184.097 127.68C184.222 127.904 184.37 128.103 184.55 128.279C185.004 128.737 185.639 128.995 186.422 128.995H186.774C188.374 128.995 189.258 128.126 189.258 126.682V126.682ZM201.616 126.787V123.489C201.616 122.15 200.629 121.282 199.176 121.282H198.383C196.932 121.282 195.921 122.162 195.921 123.489V126.788C195.921 128.116 196.907 128.996 198.383 128.996H199.176C200.629 128.996 201.616 128.116 201.616 126.788V126.787ZM199.733 126.787C199.733 127.069 199.528 127.269 199.176 127.269H198.383C197.986 127.269 197.781 127.081 197.781 126.787V123.489C197.781 123.242 198.054 122.996 198.383 122.996H199.176C199.506 122.996 199.733 123.208 199.733 123.489V126.788V126.787ZM183.186 126.792V121.554C183.186 121.461 183.152 121.437 183.084 121.437H181.417C181.36 121.437 181.315 121.461 181.315 121.555V126.793C181.315 127.086 181.144 127.274 180.747 127.274H179.954C179.534 127.274 179.353 127.086 179.353 126.792V121.554C179.353 121.461 179.296 121.437 179.25 121.437H177.606C177.538 121.437 177.503 121.461 177.503 121.555V126.793C177.503 128.119 178.479 129 179.954 129H180.747C182.198 129 183.186 128.119 183.186 126.792ZM209.84 128.732V121.557C209.84 121.463 209.771 121.439 209.726 121.439H208.126C208.058 121.439 208.024 121.463 208.024 121.557V123.459C208.024 124.504 208.081 125.42 208.081 125.42H208.047C208.047 125.42 207.957 125.162 207.798 124.856L206.118 121.545C206.085 121.474 206.039 121.439 205.971 121.439H204.53C204.475 121.439 204.428 121.463 204.428 121.557V128.732C204.428 128.825 204.475 128.849 204.53 128.849H206.164C206.232 128.849 206.277 128.826 206.277 128.732V126.865C206.277 125.902 206.21 124.974 206.21 124.974H206.255C206.255 124.974 206.345 125.232 206.493 125.503L208.183 128.744C208.217 128.802 208.252 128.849 208.308 128.849H209.726C209.794 128.849 209.84 128.826 209.84 128.732V128.732ZM251.48 128.732V127.228C251.48 127.146 251.423 127.122 251.366 127.122H248.575C248.473 127.122 248.44 127.076 248.44 126.994V121.557C248.44 121.463 248.372 121.439 248.326 121.439H246.648C246.591 121.439 246.545 121.463 246.545 121.557V128.732C246.545 128.825 246.591 128.849 246.648 128.849H251.366C251.434 128.849 251.48 128.826 251.48 128.732V128.732ZM238.954 128.732V121.557C238.954 121.463 238.886 121.439 238.841 121.439H237.241C237.173 121.439 237.139 121.463 237.139 121.557V123.459C237.139 124.504 237.195 125.42 237.195 125.42H237.161C237.161 125.42 237.071 125.162 236.912 124.856L235.233 121.545C235.199 121.474 235.153 121.439 235.085 121.439H233.645C233.588 121.439 233.543 121.463 233.543 121.557V128.732C233.543 128.825 233.588 128.849 233.645 128.849H235.278C235.346 128.849 235.391 128.826 235.391 128.732V126.865C235.391 125.902 235.323 124.974 235.323 124.974H235.37C235.37 124.974 235.46 125.232 235.607 125.503L237.297 128.744C237.331 128.802 237.365 128.849 237.422 128.849H238.84C238.908 128.849 238.953 128.826 238.953 128.732H238.954ZM225.793 128.732V121.557C225.793 121.463 225.713 121.439 225.669 121.439H224.001C223.945 121.439 223.898 121.463 223.898 121.557V128.732C223.898 128.825 223.945 128.849 224.001 128.849H225.669C225.736 128.849 225.793 128.826 225.793 128.732ZM245.695 128.696L243.325 121.522C243.301 121.451 243.267 121.439 243.222 121.439H241.985C241.918 121.439 241.895 121.463 241.873 121.522L239.502 128.696C239.468 128.789 239.513 128.849 239.615 128.849H241.362C241.418 128.849 241.442 128.826 241.464 128.767L241.77 127.886C241.792 127.827 241.816 127.804 241.906 127.804H243.267C243.358 127.804 243.393 127.827 243.416 127.886L243.71 128.767C243.732 128.826 243.744 128.849 243.812 128.849H245.593C245.717 128.849 245.729 128.79 245.695 128.696V128.696ZM243.029 126.313C243.041 126.371 243.007 126.418 242.927 126.418H242.27C242.179 126.418 242.145 126.371 242.156 126.313L242.36 125.397C242.518 124.703 242.598 123.952 242.598 123.952H242.633C242.633 123.952 242.712 124.703 242.847 125.397L243.029 126.313V126.313ZM232.414 126.794V123.494C232.414 122.155 231.428 121.286 229.976 121.286H229.181C227.73 121.286 226.72 122.167 226.72 123.494V126.794C226.72 128.12 227.707 129.001 229.181 129.001H229.976C231.427 129.001 232.414 128.12 232.414 126.794V126.794ZM230.531 126.794C230.531 127.076 230.327 127.276 229.976 127.276H229.181C228.785 127.276 228.58 127.088 228.58 126.794V123.494C228.58 123.248 228.852 123.001 229.181 123.001H229.976C230.305 123.001 230.531 123.213 230.531 123.494V126.794V126.794ZM216.811 128.695L214.44 121.521C214.418 121.45 214.384 121.439 214.338 121.439H213.101C213.034 121.439 213.011 121.462 212.989 121.521L210.617 128.695C210.584 128.789 210.629 128.849 210.731 128.849H212.478C212.535 128.849 212.557 128.825 212.58 128.766L212.886 127.886C212.909 127.826 212.931 127.803 213.022 127.803H214.383C214.474 127.803 214.508 127.826 214.531 127.886L214.826 128.766C214.848 128.825 214.859 128.849 214.928 128.849H216.709C216.834 128.849 216.845 128.789 216.811 128.695V128.695ZM214.145 126.312C214.156 126.371 214.123 126.418 214.043 126.418H213.385C213.295 126.418 213.26 126.371 213.271 126.312L213.476 125.397C213.634 124.703 213.714 123.952 213.714 123.952H213.748C213.748 123.952 213.828 124.703 213.964 125.397L214.145 126.312V126.312ZM175.131 136.121C175.131 137.447 174.145 138.327 172.694 138.327H171.901C170.428 138.327 169.441 137.447 169.441 136.121V132.823C169.441 131.497 170.451 130.618 171.901 130.618H172.695C174.145 130.618 175.131 131.485 175.131 132.823V133.456H173.249V132.823C173.249 132.542 173.023 132.33 172.695 132.33H171.901C171.573 132.33 171.3 132.577 171.3 132.823V136.121C171.3 136.414 171.505 136.602 171.901 136.602H172.695C173.045 136.602 173.249 136.403 173.249 136.121V135.488H175.131V136.121ZM194.479 132.448V130.945C194.479 130.851 194.411 130.828 194.377 130.828H189.421C189.366 130.828 189.308 130.851 189.308 130.945V132.448C189.308 132.53 189.365 132.554 189.421 132.554H190.811C190.936 132.554 190.958 132.601 190.958 132.683V138.121C190.958 138.214 191.004 138.238 191.061 138.238H192.728C192.783 138.238 192.841 138.214 192.841 138.121V132.683C192.841 132.601 192.863 132.554 192.977 132.554H194.378C194.434 132.554 194.48 132.53 194.48 132.448H194.479ZM188.17 138.121V130.945C188.17 130.851 188.102 130.828 188.058 130.828H186.457C186.389 130.828 186.355 130.851 186.355 130.945V132.847C186.355 133.893 186.413 134.808 186.413 134.808H186.378C186.378 134.808 186.288 134.551 186.129 134.246L184.451 130.934C184.416 130.862 184.371 130.828 184.303 130.828H182.863C182.806 130.828 182.76 130.851 182.76 130.945V138.121C182.76 138.214 182.806 138.238 182.863 138.238H184.495C184.563 138.238 184.609 138.215 184.609 138.121V136.253C184.609 135.29 184.541 134.363 184.541 134.363H184.588C184.588 134.363 184.678 134.62 184.825 134.891L186.515 138.132C186.549 138.191 186.583 138.238 186.64 138.238H188.058C188.125 138.238 188.17 138.215 188.17 138.121V138.121ZM208.093 136.123V132.822C208.093 131.483 207.107 130.615 205.655 130.615H204.862C203.41 130.615 202.4 131.495 202.4 132.822V136.122C202.4 137.449 203.386 138.33 204.862 138.33H205.655C207.106 138.33 208.093 137.449 208.093 136.122V136.123ZM206.211 136.123C206.211 136.405 206.007 136.604 205.655 136.604H204.862C204.464 136.604 204.261 136.416 204.261 136.122V132.822C204.261 132.576 204.532 132.329 204.862 132.329H205.655C205.984 132.329 206.211 132.54 206.211 132.822V136.122V136.123ZM201.541 138.086L200.43 135.137C200.396 135.032 200.385 134.95 200.486 134.879C200.986 134.551 201.314 133.986 201.314 133.258V133.152C201.314 131.708 200.362 130.827 198.877 130.827H195.712C195.655 130.827 195.61 130.851 195.61 130.945V138.121C195.61 138.214 195.655 138.238 195.712 138.238H197.39C197.447 138.238 197.504 138.215 197.504 138.121V135.478C197.504 135.395 197.537 135.349 197.64 135.349H198.422C198.468 135.349 198.502 135.372 198.524 135.431L199.568 138.156C199.59 138.203 199.624 138.238 199.67 138.238H201.439C201.552 138.238 201.576 138.168 201.541 138.086V138.086ZM199.444 133.271C199.444 133.587 199.229 133.74 198.877 133.74H197.64C197.537 133.74 197.504 133.694 197.504 133.61V132.683C197.504 132.601 197.537 132.554 197.64 132.554H198.877C199.25 132.554 199.443 132.73 199.443 133.047V133.271H199.444ZM181.335 138.121V136.618C181.335 136.535 181.279 136.512 181.222 136.512H178.432C178.329 136.512 178.296 136.465 178.296 136.382V135.478C178.296 135.395 178.33 135.349 178.432 135.349H180.723C180.779 135.349 180.837 135.326 180.837 135.243V133.728C180.837 133.645 180.78 133.622 180.723 133.622H178.432C178.329 133.622 178.296 133.576 178.296 133.493V132.684C178.296 132.601 178.33 132.553 178.432 132.553H181.223C181.291 132.553 181.335 132.53 181.335 132.448V130.945C181.335 130.851 181.267 130.828 181.222 130.828H176.504C176.447 130.828 176.402 130.851 176.402 130.945V138.121C176.402 138.214 176.447 138.238 176.504 138.238H181.222C181.291 138.238 181.335 138.215 181.335 138.121V138.121ZM251.479 138.121V136.618C251.479 136.535 251.422 136.512 251.365 136.512H248.574C248.472 136.512 248.439 136.465 248.439 136.382V135.478C248.439 135.396 248.473 135.349 248.575 135.349H250.866C250.922 135.349 250.979 135.326 250.979 135.244V133.727C250.979 133.646 250.923 133.622 250.866 133.622H248.575C248.473 133.622 248.439 133.576 248.439 133.494V132.683C248.439 132.601 248.473 132.554 248.575 132.554H251.365C251.433 132.554 251.479 132.53 251.479 132.448V130.945C251.479 130.851 251.41 130.828 251.365 130.828H246.647C246.591 130.828 246.544 130.851 246.544 130.945V138.121C246.544 138.214 246.591 138.238 246.647 138.238H251.365C251.433 138.238 251.479 138.214 251.479 138.121ZM245.196 132.448V130.945C245.196 130.851 245.127 130.828 245.093 130.828H240.136C240.08 130.828 240.022 130.851 240.022 130.945V132.448C240.022 132.53 240.079 132.554 240.136 132.554H241.526C241.65 132.554 241.672 132.601 241.672 132.683V138.121C241.672 138.214 241.718 138.238 241.775 138.238H243.442C243.498 138.238 243.555 138.214 243.555 138.121V132.683C243.555 132.601 243.578 132.554 243.691 132.554H245.092C245.148 132.554 245.195 132.53 245.195 132.448H245.196ZM223.34 138.121V136.618C223.34 136.535 223.284 136.512 223.227 136.512H220.437C220.334 136.512 220.301 136.465 220.301 136.382V135.478C220.301 135.396 220.334 135.349 220.437 135.349H222.728C222.785 135.349 222.841 135.326 222.841 135.244V133.727C222.841 133.646 222.785 133.622 222.728 133.622H220.437C220.334 133.622 220.301 133.576 220.301 133.494V132.683C220.301 132.601 220.334 132.554 220.437 132.554H223.227C223.295 132.554 223.34 132.53 223.34 132.448V130.945C223.34 130.851 223.272 130.828 223.227 130.828H218.509C218.452 130.828 218.407 130.851 218.407 130.945V138.121C218.407 138.214 218.452 138.238 218.509 138.238H223.227C223.295 138.238 223.34 138.214 223.34 138.121ZM215.086 136.03C215.086 136.277 214.837 136.512 214.519 136.512H213.283C213.18 136.512 213.147 136.465 213.147 136.382V132.683C213.147 132.601 213.181 132.554 213.283 132.554H214.52C214.826 132.554 215.086 132.812 215.086 133.047V136.03ZM216.958 135.937V133.153C216.958 131.709 216.005 130.828 214.52 130.828H211.355C211.298 130.828 211.253 130.851 211.253 130.945V138.121C211.253 138.214 211.298 138.238 211.355 138.238H214.52C216.005 138.238 216.957 137.357 216.957 135.936L216.958 135.937ZM239.475 138.086L238.363 135.137C238.33 135.032 238.319 134.95 238.42 134.879C238.92 134.551 239.248 133.986 239.248 133.258V133.152C239.248 131.709 238.296 130.827 236.81 130.827H233.646C233.589 130.827 233.544 130.851 233.544 130.945V138.121C233.544 138.214 233.589 138.238 233.646 138.238H235.324C235.38 138.238 235.438 138.215 235.438 138.121V135.478C235.438 135.396 235.471 135.349 235.573 135.349H236.356C236.402 135.349 236.436 135.373 236.458 135.432L237.502 138.156C237.524 138.202 237.558 138.238 237.604 138.238H239.373C239.486 138.238 239.509 138.168 239.475 138.086V138.086ZM237.377 133.271C237.377 133.587 237.161 133.74 236.81 133.74H235.573C235.471 133.74 235.438 133.694 235.438 133.61V132.683C235.438 132.601 235.471 132.554 235.573 132.554H236.81C237.184 132.554 237.377 132.73 237.377 133.047V133.271V133.271ZM232.57 138.086L230.199 130.909C230.177 130.839 230.143 130.828 230.097 130.828H228.861C228.793 130.828 228.77 130.851 228.748 130.909L226.377 138.086C226.342 138.179 226.388 138.238 226.489 138.238H228.236C228.293 138.238 228.316 138.215 228.339 138.156L228.646 137.276C228.667 137.217 228.69 137.193 228.78 137.193H230.141C230.233 137.193 230.267 137.217 230.289 137.276L230.584 138.156C230.607 138.215 230.618 138.238 230.687 138.238H232.467C232.592 138.238 232.603 138.18 232.57 138.086V138.086ZM229.904 135.701C229.915 135.76 229.882 135.807 229.802 135.807H229.144C229.054 135.807 229.019 135.76 229.032 135.701L229.235 134.785C229.393 134.092 229.473 133.34 229.473 133.34H229.508C229.508 133.34 229.587 134.092 229.723 134.785L229.904 135.701Z" fill="#242424"/>
<path fill-rule="evenodd" clip-rule="evenodd" d="M166.47 141.206H254.444V118.472H166.471L166.469 141.206H166.47ZM254.445 143.677H166.471V159.985H254.444L254.445 143.677ZM164 162.456H256.914V116H164V162.456Z" fill="#242424"/>
</svg>
