<svg width="528" height="278" viewBox="0 0 528 278" fill="none" xmlns="http://www.w3.org/2000/svg">
<rect width="528" height="278" fill="#F9C1C1"/>
<path d="M342.637 140.755C341.728 139.891 340.197 139.212 338.044 138.718L337 138.483C336.371 138.348 335.946 138.204 335.722 138.045C335.619 137.981 335.534 137.892 335.475 137.786C335.416 137.68 335.385 137.561 335.385 137.44C335.385 137.081 335.587 136.818 335.99 136.65C336.395 136.481 336.967 136.397 337.707 136.398C338.107 136.401 338.507 136.434 338.902 136.497C339.339 136.565 339.77 136.649 340.196 136.75C340.623 136.851 341.016 136.963 341.375 137.086C341.656 137.175 341.927 137.294 342.183 137.44C342.483 137.182 342.729 136.868 342.906 136.515C343.107 136.101 343.205 135.644 343.193 135.185C343.203 134.679 343.036 134.185 342.721 133.789C342.377 133.373 341.939 133.044 341.443 132.829C340.835 132.562 340.196 132.375 339.541 132.274C338.768 132.147 337.985 132.085 337.202 132.088C336.186 132.078 335.173 132.203 334.19 132.459C333.357 132.671 332.566 133.024 331.851 133.502C331.207 133.935 330.682 134.522 330.324 135.21C329.965 135.898 329.785 136.664 329.799 137.44C329.799 138.966 330.276 140.138 331.229 140.955C332.182 141.776 333.635 142.377 335.587 142.757L336.595 142.959C337.224 143.072 337.673 143.217 337.942 143.396C338.068 143.473 338.172 143.582 338.243 143.713C338.314 143.843 338.349 143.989 338.345 144.138C338.345 144.474 338.161 144.743 337.79 144.944C337.42 145.148 336.887 145.246 336.192 145.246C335.093 145.246 334.122 145.106 333.281 144.826C332.507 144.575 331.758 144.254 331.043 143.868C330.72 144.125 330.447 144.438 330.236 144.793C330.011 145.163 329.899 145.617 329.899 146.156C329.886 146.702 330.058 147.236 330.387 147.671C330.746 148.125 331.208 148.488 331.733 148.731C332.305 149.012 332.995 149.219 333.803 149.354C334.671 149.493 335.549 149.561 336.429 149.556C338.919 149.556 340.803 149.073 342.081 148.107C343.361 147.144 344.001 145.809 344 144.103C344 142.735 343.546 141.619 342.637 140.755Z" fill="#242424"/>
<path d="M325.149 134.493C324.352 133.728 323.408 133.133 322.374 132.744C321.297 132.328 320.097 132.12 318.773 132.121C317.449 132.122 316.249 132.323 315.172 132.726C314.136 133.105 313.19 133.696 312.395 134.461C311.605 135.236 310.991 136.171 310.595 137.204C310.168 138.28 309.954 139.481 309.954 140.804C309.954 142.15 310.168 143.361 310.595 144.438C310.991 145.471 311.605 146.407 312.395 147.181C313.19 147.946 314.136 148.537 315.172 148.916C316.248 149.319 317.448 149.521 318.773 149.521C320.096 149.521 321.296 149.33 322.374 148.948C323.409 148.592 324.355 148.019 325.149 147.266C325.943 146.494 326.559 145.558 326.951 144.523C327.377 143.434 327.59 142.194 327.59 140.804C327.59 139.503 327.377 138.314 326.951 137.237C326.553 136.204 325.939 135.269 325.149 134.493V134.493ZM320.977 143.933C320.472 144.674 319.748 145.044 318.805 145.045C317.864 145.045 317.128 144.681 316.603 143.951C316.074 143.221 315.81 142.172 315.811 140.804C315.811 139.457 316.069 138.42 316.584 137.691C317.101 136.963 317.83 136.598 318.773 136.597C319.715 136.597 320.444 136.961 320.96 137.691C321.475 138.421 321.733 139.459 321.734 140.804C321.734 142.15 321.481 143.193 320.977 143.933Z" fill="#242424"/>
<path d="M307.229 149.252V138.254C307.228 137.966 307.211 137.678 307.179 137.391V129.429C307.179 128.868 307.112 128.413 306.979 128.067C306.859 127.74 306.648 127.453 306.372 127.242C306.078 127.03 305.738 126.891 305.38 126.837C304.94 126.766 304.494 126.733 304.049 126.737C303.542 126.736 303.036 126.775 302.535 126.855C302.172 126.906 301.812 126.979 301.458 127.073V132.29C300.7 132.164 299.932 132.099 299.164 132.096V132.113H299.153C298.542 132.111 297.931 132.157 297.327 132.251C296.759 132.334 296.199 132.465 295.652 132.643C294.619 132.972 293.667 133.517 292.86 134.241C292.041 134.992 291.402 135.918 290.993 136.95C290.543 138.04 290.319 139.324 290.319 140.804C290.319 142.15 290.527 143.356 290.941 144.422C291.338 145.459 291.959 146.396 292.76 147.166C293.555 147.928 294.531 148.511 295.687 148.916C296.843 149.319 298.15 149.521 299.608 149.521C300.147 149.521 300.685 149.49 301.22 149.428H301.223C301.386 149.408 301.547 149.389 301.704 149.364H301.71L301.736 149.358C301.973 149.32 302.207 149.282 302.431 149.23C302.705 149.17 302.972 149.103 303.225 149.023C303.496 148.938 303.751 148.849 303.996 148.757C303.996 148.757 305.669 149.411 307.229 149.252ZM301.493 144.405C301.266 144.588 301.01 144.731 300.734 144.825C300.575 144.885 300.411 144.93 300.243 144.959C300.061 144.988 299.877 145.002 299.692 145.002C298.597 145.002 297.757 144.669 297.156 144.024C297.128 143.994 297.093 143.974 297.067 143.942C296.46 143.235 296.157 142.186 296.158 140.794C296.15 140.199 296.226 139.606 296.384 139.032C296.545 138.468 296.791 137.998 297.133 137.632C297.615 137.117 298.25 136.793 299.04 136.659C299.316 136.617 299.596 136.596 299.876 136.597C300.504 136.597 301.042 136.732 301.492 137L301.493 144.405Z" fill="#242424"/>
<path d="M284.327 148.753C284.327 148.753 286 149.407 287.561 149.248V138.251C287.561 137.196 287.371 136.282 286.99 135.509C286.615 134.742 286.053 134.082 285.356 133.59C284.651 133.085 283.798 132.709 282.799 132.462C282.496 132.386 282.163 132.345 281.84 132.294C281.065 132.163 280.281 132.096 279.494 132.092V132.11L279.483 132.109C278.313 132.099 277.149 132.275 276.034 132.63C275.001 132.96 274.048 133.505 273.24 134.229C273.166 134.297 273.101 134.374 273.03 134.443C272.314 135.154 271.751 136.003 271.375 136.939C270.924 138.027 270.699 139.311 270.701 140.792C270.701 142.139 270.908 143.344 271.323 144.409C271.619 145.181 272.04 145.9 272.567 146.537C272.746 146.753 272.938 146.958 273.14 147.153C273.936 147.915 274.912 148.499 276.069 148.903C276.888 149.18 277.737 149.358 278.598 149.435C278.908 149.456 279.22 149.476 279.544 149.485C279.694 149.49 279.835 149.51 279.988 149.51C280.675 149.511 281.36 149.462 282.04 149.361C282.553 149.286 283.061 149.172 283.557 149.02C283.826 148.935 284.081 148.846 284.326 148.754L284.327 148.753ZM281.874 144.392C281.648 144.576 281.392 144.718 281.117 144.812C280.767 144.941 280.396 145.004 280.023 144.999C278.928 144.999 278.088 144.665 277.487 144.021C277.459 143.99 277.424 143.971 277.398 143.939C276.791 143.232 276.488 142.183 276.489 140.791C276.481 140.196 276.557 139.603 276.714 139.029C276.876 138.465 277.122 137.993 277.464 137.629C278.116 136.933 279.047 136.585 280.258 136.585C280.402 136.586 280.545 136.594 280.688 136.609C281.106 136.648 281.511 136.778 281.874 136.989L281.874 144.392Z" fill="#242424"/>
<path d="M265.071 125.055C264.129 125.055 263.372 125.347 262.8 125.931C262.227 126.514 261.941 127.232 261.942 128.084C261.942 128.936 262.228 129.655 262.8 130.239C263.372 130.822 264.129 131.113 265.071 131.112C266.013 131.112 266.77 130.821 267.343 130.239C267.915 129.654 268.2 128.936 268.2 128.084C268.2 127.232 267.914 126.515 267.343 125.931C266.77 125.347 266.012 125.054 265.071 125.055Z" fill="#242424"/>
<path d="M267.091 133.064C266.796 132.852 266.455 132.714 266.096 132.66C265.657 132.589 265.212 132.555 264.768 132.559C264.277 132.559 263.788 132.599 263.304 132.679C262.821 132.757 262.456 132.819 262.21 132.864V146.56C262.21 147.122 262.282 147.575 262.429 147.923C262.558 148.249 262.774 148.534 263.052 148.748C263.346 148.959 263.686 149.098 264.044 149.152C264.484 149.222 264.929 149.256 265.374 149.252C265.864 149.252 266.354 149.213 266.838 149.134C267.319 149.056 267.685 148.993 267.931 148.948V135.252C267.931 134.692 267.858 134.237 267.712 133.889C267.582 133.563 267.368 133.278 267.091 133.064V133.064Z" fill="#242424"/>
<path d="M257.983 127.242C257.689 127.03 257.349 126.891 256.991 126.837C256.552 126.766 256.107 126.733 255.661 126.737C255.171 126.736 254.681 126.776 254.198 126.855C253.715 126.933 253.35 126.995 253.104 127.04V146.559C253.104 147.121 253.176 147.574 253.322 147.922C253.452 148.248 253.666 148.533 253.944 148.747C254.239 148.958 254.579 149.097 254.938 149.151C255.377 149.221 255.821 149.255 256.266 149.251C256.757 149.251 257.247 149.212 257.731 149.133C258.213 149.055 258.577 148.992 258.825 148.948V129.429C258.825 128.868 258.751 128.413 258.606 128.067C258.477 127.741 258.261 127.456 257.983 127.242V127.242Z" fill="#242424"/>
<path d="M246.879 125.055C245.937 125.055 245.18 125.347 244.607 125.931C244.034 126.514 243.748 127.232 243.749 128.084C243.749 128.936 244.035 129.655 244.607 130.239C245.179 130.822 245.936 131.113 246.879 131.112C247.822 131.112 248.579 130.821 249.151 130.239C249.723 129.654 250.009 128.936 250.008 128.084C250.008 127.232 249.723 126.515 249.151 125.931C248.578 125.347 247.821 125.054 246.879 125.055Z" fill="#242424"/>
<path d="M248.898 133.064C248.604 132.852 248.263 132.714 247.905 132.66C247.466 132.589 247.021 132.556 246.576 132.559C246.086 132.559 245.596 132.599 245.113 132.679C244.628 132.757 244.265 132.819 244.019 132.864V146.56C244.019 147.122 244.091 147.575 244.238 147.923C244.367 148.249 244.583 148.534 244.861 148.748C245.155 148.96 245.495 149.098 245.853 149.152C246.292 149.222 246.737 149.256 247.181 149.252C247.672 149.252 248.162 149.213 248.646 149.134C249.128 149.056 249.492 148.993 249.74 148.948V135.252C249.74 134.692 249.667 134.237 249.52 133.889C249.39 133.563 249.176 133.278 248.898 133.064Z" fill="#242424"/>
<path d="M238.551 133.518C237.896 133.028 237.153 132.668 236.362 132.458C235.546 132.234 234.703 132.121 233.857 132.121C232.665 132.121 231.65 132.267 230.81 132.558C230.009 132.831 229.246 133.205 228.539 133.67C227.853 133.137 227.07 132.743 226.233 132.509C225.354 132.252 224.441 132.121 223.525 132.121C222.323 132.117 221.127 132.287 219.974 132.626C218.84 132.963 217.892 133.401 217.13 133.94C216.722 134.214 216.364 134.555 216.07 134.948C215.811 135.307 215.682 135.79 215.683 136.397V146.559C215.683 147.121 215.755 147.575 215.903 147.923C216.031 148.249 216.246 148.534 216.523 148.748C216.818 148.958 217.159 149.097 217.517 149.151C217.957 149.222 218.402 149.255 218.847 149.251C219.348 149.252 219.848 149.219 220.344 149.151C220.702 149.108 221.056 149.04 221.404 148.948V137.137C221.644 137.006 221.892 136.887 222.144 136.782C222.476 136.652 222.831 136.589 223.188 136.597C223.771 136.597 224.27 136.749 224.685 137.052C225.101 137.354 225.309 137.842 225.308 138.516V146.559C225.308 147.121 225.38 147.575 225.527 147.923C225.656 148.249 225.872 148.534 226.15 148.748C226.444 148.959 226.784 149.097 227.142 149.151C227.581 149.222 228.026 149.255 228.471 149.251C228.961 149.252 229.45 149.218 229.936 149.151C230.304 149.105 230.669 149.037 231.029 148.948V137.522C231.028 137.437 231.017 137.353 230.994 137.271C231.239 137.077 231.512 136.924 231.804 136.817C232.123 136.679 232.465 136.604 232.813 136.597C233.462 136.597 233.978 136.749 234.36 137.052C234.741 137.354 234.932 137.842 234.932 138.516V146.559C234.932 147.121 235.005 147.575 235.152 147.923C235.281 148.248 235.496 148.533 235.773 148.748C236.068 148.959 236.408 149.097 236.767 149.151C237.207 149.222 237.652 149.255 238.097 149.251C238.598 149.252 239.098 149.219 239.594 149.151C239.951 149.108 240.305 149.041 240.653 148.948V138.348C240.653 137.204 240.462 136.234 240.081 135.437C239.734 134.683 239.209 134.024 238.551 133.518V133.518Z" fill="#242424"/>
<path d="M209.308 148.758C209.308 148.758 210.983 149.412 212.543 149.254V138.257C212.543 137.202 212.352 136.288 211.971 135.515C211.597 134.748 211.035 134.088 210.339 133.596C209.632 133.091 208.78 132.715 207.782 132.467C207.478 132.392 207.146 132.351 206.821 132.299C206.046 132.169 205.262 132.102 204.476 132.098V132.116L204.466 132.114C203.296 132.105 202.132 132.281 201.016 132.636C199.983 132.966 199.031 133.511 198.223 134.235C198.149 134.303 198.083 134.379 198.012 134.449C197.296 135.16 196.732 136.009 196.355 136.945C195.906 138.033 195.682 139.317 195.682 140.798C195.682 142.144 195.889 143.35 196.304 144.415C196.601 145.187 197.021 145.906 197.549 146.542C197.728 146.759 197.919 146.964 198.122 147.159C198.918 147.921 199.894 148.504 201.05 148.909C201.869 149.186 202.719 149.364 203.581 149.44C203.891 149.461 204.202 149.482 204.526 149.49C204.675 149.496 204.816 149.515 204.97 149.515C205.657 149.517 206.342 149.467 207.021 149.367C207.535 149.292 208.042 149.178 208.538 149.026C208.808 148.941 209.064 148.852 209.307 148.76L209.308 148.758ZM206.856 144.398C206.631 144.582 206.375 144.724 206.099 144.818C205.749 144.947 205.378 145.01 205.004 145.005C203.911 145.005 203.07 144.671 202.47 144.027C202.442 143.996 202.407 143.975 202.38 143.945C201.774 143.238 201.471 142.189 201.472 140.797C201.464 140.202 201.539 139.609 201.696 139.035C201.859 138.471 202.105 137.999 202.447 137.635C203.097 136.939 204.028 136.591 205.241 136.591C205.385 136.591 205.528 136.6 205.671 136.615C206.089 136.655 206.493 136.784 206.856 136.995L206.856 144.398Z" fill="#242424"/>
<path d="M194.709 125.727C194.144 125.37 193.131 125 191.471 125C190.488 124.994 189.509 125.118 188.559 125.37C187.699 125.594 186.892 125.989 186.187 126.531C185.506 127.071 184.958 127.762 184.588 128.549C184.196 129.37 184 130.697 184 131.841V152.377C184 152.377 185.088 152.378 185.873 152.377C186.659 152.375 188.116 151.991 188.875 151.189C189.634 150.388 189.72 149.474 189.721 148.645C189.722 147.816 189.721 138.463 189.721 138.463C189.721 138.463 191.189 138.47 191.745 138.463C192.289 138.448 192.809 138.231 193.201 137.854C193.529 137.518 193.896 137 193.943 136.293C193.989 135.586 193.926 135.284 193.866 134.859C193.808 134.527 193.727 134.2 193.621 133.88H189.418V132.042C189.418 131.235 189.687 130.669 190.226 130.342C190.764 130.018 191.516 129.856 192.481 129.855C193.086 129.855 193.688 129.963 194.149 130.043C194.608 130.122 195.408 130.328 195.408 130.328C195.562 129.993 195.688 129.646 195.784 129.29C195.91 128.783 196.049 127.975 195.888 127.251C195.727 126.527 195.274 126.085 194.709 125.727Z" fill="#242424"/>
</svg>
