<svg width="528" height="278" fill="none" xmlns="http://www.w3.org/2000/svg"><path fill="#A90B52" d="M0 0h528v278H0z"/><g clip-path="url(#clip0_2481_1846)" fill="#fff"><path d="M298.343 150.667v.133h17.464l.106-.08-.026-.027-.08-.026h-17.464zm40.705-16.133l.187-.134h-28.699l-.107.08.027.027.08.027h28.512z"/><path d="M343.787 111.16l-33.225 23.241h-12.219v28.619l17.464-12.219h27.98v-16.4h-4.526l4.526-3.168V111.16zm-30.509 32.266c-.133.693.026 2.876.852 3.035.293.054.532 0 .772-.133l.719-.399.133 2.902h-4.606c.16-1.198.24-2.183.32-3.062l.159-2.343c-.931-.133-1.943-.479-2.795-1.144-.745-.613-1.171-1.358-1.225-2.263-.106-1.598 1.997-3.594 4.712-3.594h.799c.293.026.586.053.905.133-.186.399-.426.878-.479 1.704a3.033 3.033 0 00-.878-.133c-1.97 0-2.503 1.331-2.503 1.836 0 1.305 1.278 1.758 2.236 1.837a2.81 2.81 0 001.944-.479c.426-.293.532-.399.745-.878.506.266 1.651.346 2.476.053-.186 1.651-2.423 2.875-4.286 2.928zm-118.682 4.633h-7.534v-13.658h-3.009v14.376c0 .613.213 1.145.613 1.545.399.372.931.559 1.57.559h8.36v-2.822zm17.57 2.848l-5.723-15.308c-.32-.852-.985-1.304-1.891-1.304-.905 0-1.597.479-1.89 1.304l-5.83 15.308H200l1.304-3.381h6.363l1.305 3.381h3.194zm-5.484-6.203h-4.393l2.237-6.016 2.156 6.016zm20.952 1.704c0-.612-.107-1.198-.346-1.73a5.552 5.552 0 00-.985-1.438l-.772-.799.585-.798c.267-.426.48-.852.666-1.305a4.629 4.629 0 00.266-1.624c0-1.411-.452-2.502-1.358-3.248-.851-.692-1.97-1.065-3.354-1.065h-4.978c-.639 0-1.172.187-1.544.559-.293.267-.613.746-.613 1.518v12.326c0 .612.24 1.145.639 1.544.4.373.932.559 1.571.559h5.058c1.544 0 2.822-.399 3.727-1.198.959-.825 1.438-1.917 1.438-3.301zm-3.514-7.667c0 .293-.053.559-.16.825a4.439 4.439 0 01-.399.799l-.613.878h-4.792v-4.099h4.18c.479 0 1.092.079 1.384.399.267.319.4.692.4 1.198zm-5.964 9.371v-4.127h4.872l.905.959c.24.239.426.506.559.772.107.239.16.479.16.772 0 .532-.16.905-.479 1.171-.346.293-.905.453-1.651.453h-4.366zm27.767-5.431c0-1.305-.186-2.476-.532-3.514a7.203 7.203 0 00-1.544-2.636 6.643 6.643 0 00-2.423-1.65c-.932-.373-1.97-.559-3.061-.559-1.118 0-2.157.186-3.088.559a6.837 6.837 0 00-2.476 1.65c-.693.719-1.225 1.624-1.598 2.662-.372 1.012-.532 2.21-.532 3.488 0 1.304.186 2.476.532 3.487.373 1.039.879 1.944 1.544 2.636a6.658 6.658 0 002.423 1.651c.932.372 1.943.559 3.088.559a8.7 8.7 0 003.062-.533c.958-.372 1.783-.905 2.476-1.65.692-.719 1.224-1.624 1.57-2.636.4-.985.559-2.183.559-3.514zm-10.941 4.206a4.888 4.888 0 01-.932-1.73c-.24-.719-.346-1.544-.346-2.476 0-1.837.426-3.248 1.224-4.18.799-.932 1.891-1.384 3.355-1.384.719 0 1.384.106 1.943.346.559.24 1.039.559 1.438 1.038s.692 1.039.905 1.731c.24.692.346 1.544.346 2.476 0 1.863-.399 3.274-1.225 4.233-.798.905-1.89 1.357-3.327 1.357a5.202 5.202 0 01-1.97-.372 3.892 3.892 0 01-1.411-1.039zm27.075 4.02l-3.435-7.214.932-1.172c.32-.452.639-.958.879-1.491a4.422 4.422 0 00.399-1.863c0-1.518-.453-2.716-1.331-3.541-.852-.799-2.05-1.198-3.514-1.198h-4.819c-.666 0-1.171.186-1.571.559-.266.266-.612.719-.612 1.518v14.429h2.982v-6.123h3.913l2.875 6.123h3.302v-.027zm-10.09-8.865v-4.872h3.993c.399 0 .719.053.958.16.24.08.4.213.533.346.133.16.239.346.319.586.08.266.107.585.107.931 0 .347-.08.639-.213.959a8.246 8.246 0 01-.639 1.038l-.639.879h-4.419v-.027zm27.66 8.865l-5.724-15.308c-.292-.852-.985-1.304-1.89-1.304-.931 0-1.597.479-1.89 1.304l-5.83 15.308h3.168l1.304-3.381h6.39l1.304 3.381h3.168zm-5.484-6.203h-4.419l2.236-6.016 2.183 6.016zm10.755 3.355v-13.658h-3.034v14.376c0 .613.213 1.145.612 1.545.399.372.932.559 1.597.559h8.36v-2.822h-7.535zm-20.445 17.624l-.906.213-.665.106-.533.053-.426.027c-.452 0-.825-.053-1.144-.186a2.005 2.005 0 01-.746-.48 1.523 1.523 0 01-.372-.745 3.568 3.568 0 01-.107-.932v-5.91h-1.278v6.043c0 .479.08.905.187 1.305.133.426.319.772.612 1.065a3.4 3.4 0 001.065.718c.452.16.985.267 1.597.267l1.118-.08c.453-.027 1.065-.16 1.837-.346.666-.16.985-.586.985-1.225v-7.747h-1.251v7.854h.027zm8.865.133l-1.065.213-.666.053c-.559 0-.931-.133-1.144-.453-.213-.292-.32-.772-.32-1.411v-5.244h3.168v-1.145h-3.168v-2.423l-1.251.267v2.156h-1.491v1.145h1.491v5.351c0 1.97.905 2.955 2.689 2.955.399 0 1.065-.08 1.97-.266l-.213-1.198zm19.115-.133v-4.819c0-.559-.08-1.038-.267-1.438-.186-.399-.426-.718-.745-.958a2.561 2.561 0 00-1.065-.559 5.125 5.125 0 00-1.304-.16s-1.811-.053-3.967.506l.266 1.145s1.997-.559 3.674-.479h.027c.665 0 1.171.159 1.57.452.426.293.613.825.613 1.518v1.064h-2.822c-.48 0-.959.054-1.411.134a3.851 3.851 0 00-1.172.479 2.226 2.226 0 00-.798.852c-.213.346-.293.798-.293 1.331 0 .798.266 1.437.798 1.89.533.453 1.278.692 2.263.692.373 0 .799-.053 1.252-.133l1.331-.293.692-.186.186-.027v.533h1.225v-1.544h-.053zm-1.225-.107l-1.038.24-1.252.239c-.399.054-.718.08-.985.08-.639 0-1.118-.133-1.464-.373-.346-.239-.506-.612-.506-1.118 0-.585.213-1.011.639-1.251.426-.24 1.012-.399 1.784-.399h2.849v2.582h-.027zm-41.025-10.17l-1.225.267v11.5h1.225v-4.792h1.677l3.222 4.766h1.49l-3.62-5.378 3.647-3.94h-1.651l-3.061 3.328h-1.677v-5.751h-.027zm32.825 11.741l-2.609-4.686 2.556-4.632h-1.544l-1.997 3.94h-.585l-1.997-3.94h-1.544l2.556 4.632-2.609 4.686h1.49l2.104-4.18h.585l2.103 4.18h1.491z"/></g><defs><clipPath id="clip0_2481_1846"><path fill="#fff" transform="translate(184 111)" d="M0 0h160v56.439H0z"/></clipPath></defs></svg>