<svg width="528" height="278" viewBox="0 0 528 278" fill="none" xmlns="http://www.w3.org/2000/svg">
<rect width="528" height="278" fill="#CC0066"/>
<path d="M315.806 153.899V154.04H334.327L334.44 153.956L334.412 153.927L334.327 153.899H315.806V153.899ZM358.975 136.79L359.172 136.648H328.737L328.624 136.733L328.652 136.761L328.737 136.79H358.975V136.79Z" fill="white"/>
<path d="M364 112L328.765 136.648H328.737H315.806V145.711V154.04V166.999L334.327 154.04H364V136.648H359.2L364 133.288V112ZM331.645 146.219C331.503 146.953 331.673 149.268 332.548 149.438C332.859 149.494 333.113 149.438 333.367 149.296L334.129 148.873L334.27 151.95H329.386C329.555 150.68 329.64 149.635 329.725 148.703L329.894 146.219C328.906 146.078 327.833 145.711 326.93 145.005C326.139 144.356 325.687 143.565 325.631 142.605C325.518 140.911 327.748 138.794 330.628 138.794H331.475C331.786 138.822 332.096 138.85 332.435 138.935C332.238 139.358 331.983 139.866 331.927 140.742C331.616 140.657 331.362 140.6 330.995 140.6C328.906 140.6 328.341 142.012 328.341 142.549C328.341 143.932 329.697 144.412 330.713 144.497C331.447 144.581 332.153 144.412 332.774 143.988C333.226 143.678 333.339 143.565 333.564 143.057C334.101 143.339 335.315 143.424 336.19 143.113C335.993 144.864 333.621 146.162 331.645 146.219Z" fill="white"/>
<path d="M166.086 154.458C164.761 154.458 164 153.713 164 152.521V136.623H167.223V151.799H175.576V154.458" fill="white"/>
<path d="M185.937 139.688L182.886 148.512H188.886L185.937 139.688ZM190.8 154.457L189.552 150.943H182.196L180.949 154.457H177.709L183.686 137.994C184.023 136.959 184.76 136.434 186.007 136.434C187.176 136.434 187.945 136.99 188.282 137.971L194.086 154.457H190.8Z" fill="white"/>
<path d="M195.647 145.594C195.647 139.5 199.27 136.527 204.18 136.527C205.804 136.527 207.443 136.88 209.262 137.414L210.651 137.821L210.172 140.504L208.666 140.08C207.019 139.594 205.623 139.288 204.4 139.288C200.972 139.288 198.863 141.272 198.863 145.625C198.863 150.096 201.09 152.159 204.51 152.159C205.639 152.159 206.627 152.033 207.78 151.829V147.798H203.866V145.421H208.69C209.961 145.421 210.776 146.213 210.776 147.359V151.413C210.776 152.911 210.368 153.57 208.996 153.955C207.466 154.362 205.78 154.629 204.259 154.629C199.27 154.629 195.647 151.751 195.647 145.594Z" fill="white"/>
<path d="M221.732 154.772C217.058 154.772 214.517 152.254 214.517 148.011V136.623H217.732V148.105C217.732 150.678 219.073 152.082 221.732 152.082C224.438 152.082 225.764 150.678 225.764 148.105V136.623H228.971V148.011C228.971 152.239 226.43 154.772 221.732 154.772Z" fill="white"/>
<path d="M235.803 154.457H232.979V138.512C232.979 137.147 233.819 136.449 235.207 136.449C236.36 136.449 237.034 137.037 237.513 137.798L244.846 150.096V136.622H247.693V152.567C247.693 153.908 246.838 154.606 245.45 154.606C244.321 154.606 243.646 154.025 243.191 153.257L235.803 140.967" fill="white"/>
<path d="M265.811 139.688L262.752 148.512H268.752L265.811 139.688ZM270.674 154.457L269.427 150.943H262.07L260.815 154.457H257.576L263.552 137.994C263.881 136.959 264.627 136.434 265.881 136.434C267.05 136.434 267.819 136.99 268.148 137.971L273.96 154.457H270.674Z" fill="white"/>
<path d="M284.383 139.023H279.92V145.282H285.198L286.014 144.16C286.54 143.462 287.026 142.631 287.026 141.737C287.026 140.129 286.281 139.023 284.383 139.023ZM287.567 154.458L284.571 147.658H279.92V154.458H276.736V138.545C276.736 137.392 277.504 136.623 278.775 136.623H284.791C288.1 136.623 290.093 138.372 290.093 141.658C290.093 143.054 289.496 144.246 288.681 145.25L287.465 146.772L290.971 154.458H287.567Z" fill="white"/>
<path d="M301.645 138.969C298.359 138.969 296.453 141.345 296.453 145.596C296.453 149.863 298.477 152.239 301.763 152.239C305.041 152.239 306.947 149.878 306.947 145.596C306.947 141.345 304.931 138.969 301.645 138.969ZM301.645 154.655C296.594 154.655 293.206 151.368 293.206 145.596C293.206 139.808 296.712 136.498 301.763 136.498C306.822 136.498 310.186 139.784 310.186 145.596C310.186 151.447 306.735 154.655 301.645 154.655Z" fill="white"/>
</svg>
