<svg width="528" height="278" viewBox="0 0 528 278" fill="none" xmlns="http://www.w3.org/2000/svg">
<rect width="528" height="278" fill="#F7DF9E"/>
<path fill-rule="evenodd" clip-rule="evenodd" d="M219.97 152.964C219.97 151.128 219.062 150.325 217.165 149.719C216.355 149.457 215.366 149.226 215.366 148.588C215.366 148.064 215.69 147.834 216.177 147.834H216.452C217.003 147.834 217.409 148.129 217.7 148.686C217.765 148.817 217.911 148.817 218.025 148.735L219.71 147.604C219.873 147.506 219.807 147.342 219.742 147.244C219.538 146.886 219.275 146.564 218.965 146.293C218.333 145.735 217.473 145.425 216.42 145.425H216.177C213.955 145.425 212.61 146.638 212.61 148.669C212.61 150.489 213.583 151.21 215.317 151.816C216.403 152.194 217.214 152.291 217.214 153.029C217.214 153.504 216.889 153.783 216.387 153.783H215.885C215.334 153.783 214.927 153.488 214.637 152.931C214.572 152.8 214.426 152.8 214.311 152.882L212.626 154.012C212.464 154.111 212.529 154.259 212.594 154.356C212.772 154.668 212.983 154.947 213.242 155.193C213.89 155.832 214.798 156.193 215.917 156.193H216.419C218.705 156.193 219.969 154.98 219.969 152.964H219.97ZM241.409 155.815V145.774C241.409 145.643 241.296 145.609 241.231 145.609H238.85C238.768 145.609 238.704 145.643 238.704 145.774V155.815C238.704 155.946 238.769 155.98 238.85 155.98H241.232C241.329 155.98 241.41 155.946 241.41 155.815H241.409ZM237.575 147.878V145.774C237.575 145.643 237.478 145.61 237.413 145.61H230.671C230.59 145.61 230.525 145.643 230.525 145.774V155.815C230.525 155.946 230.59 155.98 230.671 155.98H233.068C233.15 155.98 233.232 155.946 233.232 155.815V152.117C233.232 152.002 233.28 151.936 233.426 151.936H236.699C236.781 151.936 236.862 151.904 236.862 151.788V149.669C236.862 149.553 236.781 149.52 236.699 149.52H233.426C233.28 149.52 233.231 149.455 233.231 149.34V148.206C233.231 148.091 233.28 148.025 233.426 148.025H237.413C237.51 148.025 237.575 147.993 237.575 147.877V147.878ZM251.415 155.766L248.024 145.733C247.991 145.634 247.943 145.618 247.878 145.618H246.108C246.011 145.618 245.978 145.65 245.946 145.733L242.554 155.766C242.505 155.897 242.57 155.98 242.716 155.98H245.216C245.297 155.98 245.329 155.946 245.362 155.864L245.8 154.633C245.832 154.55 245.865 154.518 245.995 154.518H247.943C248.073 154.518 248.121 154.55 248.154 154.633L248.576 155.864C248.607 155.946 248.624 155.98 248.721 155.98H251.27C251.448 155.98 251.464 155.897 251.416 155.766H251.415ZM247.602 152.432C247.617 152.514 247.569 152.58 247.456 152.58H246.514C246.384 152.58 246.336 152.515 246.352 152.431L246.643 151.152C246.871 150.183 246.984 149.131 246.984 149.131H247.033C247.033 149.131 247.147 150.183 247.341 151.152L247.602 152.432ZM199.867 155.789V145.775C199.867 145.644 199.77 145.611 199.706 145.611H197.419C197.322 145.611 197.274 145.644 197.274 145.775V148.43C197.274 149.889 197.354 151.168 197.354 151.168H197.306C197.306 151.168 197.176 150.806 196.949 150.38L194.551 145.759C194.501 145.66 194.436 145.611 194.34 145.611H192.28C192.199 145.611 192.134 145.644 192.134 145.775V155.789C192.134 155.919 192.199 155.953 192.28 155.953H194.615C194.712 155.953 194.777 155.92 194.777 155.789V153.182C194.777 151.839 194.68 150.544 194.68 150.544H194.745C194.745 150.544 194.875 150.905 195.085 151.282L197.501 155.805C197.549 155.887 197.598 155.953 197.679 155.953H199.705C199.802 155.953 199.867 155.92 199.867 155.789V155.789ZM190.57 155.789V145.775C190.57 145.644 190.457 145.611 190.392 145.611H188.009C187.927 145.611 187.863 145.644 187.863 145.775V155.789C187.863 155.919 187.928 155.953 188.009 155.953H190.392C190.489 155.953 190.57 155.92 190.57 155.789V155.789ZM229.236 153.111V148.506C229.236 146.638 227.826 145.425 225.751 145.425H224.617C222.541 145.425 221.098 146.654 221.098 148.506V153.111C221.098 154.963 222.508 156.193 224.616 156.193H225.75C227.826 156.193 229.236 154.963 229.236 153.111ZM226.545 153.111C226.545 153.504 226.253 153.783 225.751 153.783H224.617C224.049 153.783 223.757 153.521 223.757 153.111V148.506C223.757 148.162 224.146 147.818 224.616 147.818H225.75C226.221 147.818 226.545 148.113 226.545 148.506V153.111ZM209.783 155.74L206.394 145.726C206.362 145.628 206.313 145.611 206.248 145.611H204.483C204.385 145.611 204.352 145.644 204.32 145.726L200.932 155.74C200.883 155.87 200.948 155.953 201.094 155.953H203.59C203.672 155.953 203.704 155.92 203.737 155.838L204.174 154.609C204.206 154.527 204.239 154.494 204.369 154.494H206.314C206.444 154.494 206.493 154.527 206.525 154.609L206.946 155.838C206.979 155.92 206.995 155.953 207.092 155.953H209.638C209.816 155.953 209.832 155.871 209.784 155.739L209.783 155.74ZM205.972 152.413C205.989 152.495 205.941 152.56 205.827 152.56H204.887C204.757 152.56 204.708 152.495 204.725 152.413L205.016 151.134C205.244 150.168 205.356 149.118 205.356 149.118H205.405C205.405 149.118 205.519 150.168 205.713 151.135L205.973 152.413H205.972ZM186.298 155.789V153.691C186.298 153.576 186.217 153.544 186.136 153.544H182.149C182.002 153.544 181.954 153.479 181.954 153.364V152.102C181.954 151.986 182.002 151.921 182.149 151.921H185.423C185.504 151.921 185.585 151.888 185.585 151.773V149.659C185.585 149.544 185.504 149.511 185.423 149.511H182.148C182.002 149.511 181.953 149.446 181.953 149.331V148.2C181.953 148.086 182.002 148.021 182.148 148.021H186.136C186.234 148.021 186.298 147.987 186.298 147.872V145.775C186.298 145.644 186.201 145.611 186.136 145.611H179.393C179.312 145.611 179.247 145.644 179.247 145.775V155.789C179.247 155.919 179.312 155.953 179.393 155.953H186.136C186.234 155.953 186.298 155.92 186.298 155.789V155.789ZM174.91 149.02C174.91 149.463 174.601 149.676 174.099 149.676H172.332C172.186 149.676 172.136 149.611 172.136 149.496V148.2C172.136 148.086 172.186 148.021 172.332 148.021H174.099C174.634 148.021 174.91 148.266 174.91 148.708V149.02V149.02ZM177.909 155.739L176.319 151.626C176.271 151.479 176.254 151.364 176.401 151.266C177.114 150.806 177.584 150.021 177.584 149.004V148.856C177.584 146.84 176.223 145.611 174.099 145.611H169.576C169.494 145.611 169.43 145.644 169.43 145.775V155.789C169.43 155.919 169.495 155.953 169.576 155.953H171.974C172.055 155.953 172.136 155.92 172.136 155.789V152.102C172.136 151.986 172.185 151.921 172.331 151.921H173.449C173.514 151.921 173.563 151.954 173.596 152.036L175.086 155.838C175.119 155.904 175.168 155.953 175.232 155.953H177.762C177.924 155.953 177.956 155.854 177.908 155.739H177.909ZM222.87 125.765C222.87 127.089 221.885 127.967 220.435 127.967H219.643C218.172 127.967 217.187 127.089 217.187 125.765V122.471C217.187 121.147 218.194 120.268 219.643 120.268H220.436C221.886 120.268 222.87 121.135 222.87 122.47V123.102H220.991V122.47C220.991 122.189 220.764 121.979 220.436 121.979H219.643C219.315 121.979 219.043 122.225 219.043 122.471V125.765C219.043 126.057 219.247 126.245 219.643 126.245H220.436C220.787 126.245 220.991 126.045 220.991 125.765V125.133H222.87V125.765V125.765ZM176.173 127.716V120.548C176.173 120.454 176.126 120.43 176.059 120.43H174.416C174.393 120.43 174.369 120.437 174.349 120.449C174.329 120.462 174.313 120.48 174.303 120.501L173 124.103C172.945 124.258 172.896 124.414 172.852 124.572H172.807C172.807 124.572 172.784 124.361 172.682 124.103L171.334 120.502C171.324 120.48 171.308 120.462 171.288 120.45C171.267 120.437 171.244 120.431 171.22 120.431H169.532C169.464 120.431 169.43 120.455 169.43 120.549V127.716C169.43 127.809 169.464 127.833 169.532 127.833H171.13C171.209 127.833 171.243 127.81 171.243 127.716V126.179C171.243 125.065 171.141 124.044 171.141 124.044H171.176C171.176 124.044 171.278 124.537 171.458 125.065L172.059 126.836C172.093 126.93 172.195 126.953 172.263 126.953H173.362C173.43 126.953 173.52 126.93 173.555 126.836L174.155 125.1C174.336 124.572 174.438 124.044 174.438 124.044H174.473C174.473 124.044 174.393 125.1 174.393 126.202V127.716C174.393 127.809 174.416 127.833 174.495 127.833H176.059C176.127 127.833 176.173 127.81 176.173 127.716V127.716ZM195.027 127.712V126.21C195.027 126.128 194.971 126.105 194.914 126.105H192.275C192.173 126.105 192.14 126.058 192.14 125.975V125.072C192.14 124.991 192.173 124.943 192.275 124.943H194.415C194.472 124.943 194.529 124.92 194.529 124.837V123.324C194.529 123.242 194.472 123.219 194.415 123.219H192.275C192.173 123.219 192.14 123.173 192.14 123.089V122.281C192.14 122.199 192.173 122.151 192.275 122.151H194.915C194.982 122.151 195.026 122.128 195.026 122.046V120.545C195.026 120.451 194.959 120.427 194.915 120.427H190.35C190.292 120.427 190.248 120.451 190.248 120.545V127.712C190.248 127.805 190.292 127.829 190.35 127.829H194.914C194.982 127.829 195.027 127.806 195.027 127.712ZM189.232 125.671C189.232 124.357 188.598 123.781 187.272 123.347C186.705 123.161 186.014 122.996 186.014 122.539C186.014 122.163 186.24 122 186.581 122H186.774C187.158 122 187.442 122.21 187.645 122.609C187.692 122.702 187.793 122.702 187.872 122.644L189.051 121.835C189.164 121.764 189.118 121.647 189.074 121.576C188.931 121.321 188.747 121.091 188.529 120.896C188.088 120.497 187.487 120.275 186.75 120.275H186.58C185.028 120.275 184.088 121.142 184.088 122.597C184.088 123.899 184.767 124.415 185.98 124.849C186.739 125.119 187.305 125.189 187.305 125.717C187.305 126.057 187.079 126.256 186.728 126.256H186.377C185.991 126.256 185.708 126.046 185.504 125.647C185.459 125.554 185.356 125.554 185.277 125.612L184.099 126.421C183.986 126.491 184.031 126.597 184.077 126.668C184.201 126.891 184.349 127.09 184.529 127.266C184.983 127.724 185.617 127.981 186.399 127.981H186.75C188.349 127.981 189.232 127.113 189.232 125.671V125.671ZM201.577 125.776V122.481C201.577 121.143 200.591 120.276 199.141 120.276H198.348C196.898 120.276 195.889 121.155 195.889 122.481V125.777C195.889 127.103 196.874 127.982 198.348 127.982H199.141C200.591 127.982 201.577 127.103 201.577 125.777V125.776ZM199.696 125.776C199.696 126.057 199.492 126.257 199.141 126.257H198.348C197.951 126.257 197.747 126.07 197.747 125.776V122.481C197.747 122.234 198.019 121.989 198.348 121.989H199.141C199.47 121.989 199.696 122.2 199.696 122.481V125.777V125.776ZM183.167 125.78V120.548C183.167 120.455 183.133 120.431 183.065 120.431H181.399C181.343 120.431 181.297 120.455 181.297 120.549V125.781C181.297 126.074 181.127 126.262 180.73 126.262H179.937C179.518 126.262 179.337 126.074 179.337 125.78V120.548C179.337 120.455 179.28 120.431 179.235 120.431H177.592C177.524 120.431 177.49 120.455 177.49 120.549V125.781C177.49 127.106 178.464 127.986 179.937 127.986H180.73C182.18 127.986 183.167 127.106 183.167 125.78ZM209.793 127.718V120.551C209.793 120.457 209.724 120.433 209.679 120.433H208.081C208.013 120.433 207.979 120.457 207.979 120.551V122.451C207.979 123.495 208.036 124.41 208.036 124.41H208.002C208.002 124.41 207.912 124.152 207.753 123.847L206.075 120.539C206.042 120.468 205.996 120.433 205.929 120.433H204.489C204.433 120.433 204.387 120.457 204.387 120.551V127.718C204.387 127.811 204.433 127.835 204.489 127.835H206.121C206.189 127.835 206.234 127.812 206.234 127.718V125.853C206.234 124.891 206.166 123.965 206.166 123.965H206.212C206.212 123.965 206.302 124.222 206.45 124.492L208.138 127.73C208.172 127.789 208.206 127.835 208.263 127.835H209.679C209.747 127.835 209.793 127.812 209.793 127.718V127.718ZM251.391 127.718V126.216C251.391 126.135 251.334 126.11 251.277 126.11H248.489C248.387 126.11 248.354 126.064 248.354 125.982V120.551C248.354 120.457 248.286 120.433 248.24 120.433H246.563C246.507 120.433 246.461 120.457 246.461 120.551V127.718C246.461 127.811 246.507 127.835 246.563 127.835H251.277C251.345 127.835 251.391 127.812 251.391 127.718V127.718ZM238.878 127.718V120.551C238.878 120.457 238.81 120.433 238.764 120.433H237.167C237.098 120.433 237.065 120.457 237.065 120.551V122.451C237.065 123.495 237.12 124.41 237.12 124.41H237.087C237.087 124.41 236.997 124.152 236.838 123.847L235.16 120.539C235.126 120.468 235.08 120.433 235.013 120.433H233.574C233.517 120.433 233.472 120.457 233.472 120.551V127.718C233.472 127.811 233.517 127.835 233.574 127.835H235.205C235.274 127.835 235.318 127.812 235.318 127.718V125.853C235.318 124.891 235.251 123.965 235.251 123.965H235.297C235.297 123.965 235.387 124.222 235.534 124.492L237.223 127.73C237.256 127.789 237.29 127.835 237.347 127.835H238.763C238.831 127.835 238.877 127.812 238.877 127.718H238.878ZM225.73 127.718V120.551C225.73 120.457 225.65 120.433 225.606 120.433H223.939C223.884 120.433 223.837 120.457 223.837 120.551V127.718C223.837 127.811 223.884 127.835 223.939 127.835H225.606C225.674 127.835 225.73 127.812 225.73 127.718ZM245.612 127.683L243.244 120.516C243.221 120.445 243.186 120.433 243.142 120.433H241.906C241.839 120.433 241.815 120.457 241.793 120.516L239.425 127.683C239.391 127.776 239.436 127.835 239.538 127.835H241.283C241.339 127.835 241.363 127.812 241.385 127.753L241.691 126.873C241.713 126.815 241.736 126.792 241.827 126.792H243.186C243.277 126.792 243.312 126.815 243.335 126.873L243.629 127.753C243.651 127.812 243.663 127.835 243.731 127.835H245.51C245.634 127.835 245.645 127.777 245.612 127.683V127.683ZM242.948 125.302C242.96 125.36 242.926 125.407 242.846 125.407H242.19C242.099 125.407 242.065 125.36 242.077 125.302L242.28 124.386C242.438 123.694 242.518 122.943 242.518 122.943H242.552C242.552 122.943 242.631 123.694 242.767 124.386L242.948 125.302V125.302ZM232.344 125.782V122.486C232.344 121.149 231.359 120.281 229.909 120.281H229.115C227.665 120.281 226.656 121.161 226.656 122.486V125.782C226.656 127.108 227.642 127.988 229.115 127.988H229.909C231.358 127.988 232.344 127.108 232.344 125.782V125.782ZM230.463 125.782C230.463 126.064 230.259 126.264 229.909 126.264H229.115C228.719 126.264 228.515 126.076 228.515 125.782V122.486C228.515 122.24 228.786 121.993 229.115 121.993H229.909C230.238 121.993 230.463 122.205 230.463 122.486V125.782V125.782ZM216.757 127.682L214.388 120.515C214.366 120.444 214.333 120.433 214.286 120.433H213.051C212.984 120.433 212.961 120.456 212.939 120.515L210.57 127.682C210.536 127.776 210.582 127.835 210.683 127.835H212.428C212.485 127.835 212.507 127.811 212.531 127.753L212.836 126.873C212.859 126.814 212.881 126.791 212.972 126.791H214.332C214.423 126.791 214.456 126.814 214.48 126.873L214.774 127.753C214.796 127.811 214.808 127.835 214.876 127.835H216.655C216.78 127.835 216.791 127.776 216.757 127.682V127.682ZM214.094 125.301C214.105 125.359 214.072 125.407 213.992 125.407H213.335C213.244 125.407 213.21 125.36 213.221 125.301L213.426 124.386C213.584 123.694 213.664 122.943 213.664 122.943H213.697C213.697 122.943 213.777 123.694 213.913 124.386L214.094 125.301V125.301ZM175.12 135.1C175.12 136.424 174.135 137.303 172.685 137.303H171.893C170.422 137.303 169.436 136.424 169.436 135.1V131.805C169.436 130.481 170.444 129.603 171.893 129.603H172.686C174.135 129.603 175.12 130.469 175.12 131.805V132.437H173.24V131.805C173.24 131.525 173.014 131.313 172.686 131.313H171.893C171.565 131.313 171.293 131.559 171.293 131.805V135.1C171.293 135.393 171.497 135.58 171.893 135.58H172.686C173.036 135.58 173.24 135.382 173.24 135.1V134.468H175.12V135.1ZM194.448 131.431V129.929C194.448 129.835 194.38 129.812 194.346 129.812H189.395C189.34 129.812 189.282 129.835 189.282 129.929V131.431C189.282 131.513 189.339 131.537 189.395 131.537H190.784C190.908 131.537 190.931 131.583 190.931 131.665V137.098C190.931 137.191 190.976 137.215 191.033 137.215H192.698C192.754 137.215 192.812 137.191 192.812 137.098V131.665C192.812 131.583 192.834 131.537 192.947 131.537H194.347C194.403 131.537 194.449 131.513 194.449 131.431H194.448ZM188.145 137.098V129.929C188.145 129.835 188.078 129.812 188.033 129.812H186.435C186.367 129.812 186.332 129.835 186.332 129.929V131.83C186.332 132.874 186.39 133.789 186.39 133.789H186.356C186.356 133.789 186.265 133.531 186.106 133.226L184.43 129.918C184.396 129.846 184.35 129.812 184.282 129.812H182.844C182.787 129.812 182.741 129.835 182.741 129.929V137.098C182.741 137.191 182.787 137.215 182.844 137.215H184.475C184.542 137.215 184.588 137.192 184.588 137.098V135.232C184.588 134.27 184.52 133.344 184.52 133.344H184.567C184.567 133.344 184.657 133.601 184.804 133.871L186.492 137.109C186.526 137.168 186.56 137.215 186.617 137.215H188.033C188.101 137.215 188.145 137.192 188.145 137.098V137.098ZM208.048 135.102V131.805C208.048 130.466 207.063 129.599 205.613 129.599H204.82C203.37 129.599 202.361 130.478 202.361 131.805V135.101C202.361 136.427 203.346 137.307 204.82 137.307H205.613C207.062 137.307 208.048 136.427 208.048 135.101V135.102ZM206.168 135.102C206.168 135.383 205.964 135.582 205.613 135.582H204.82C204.423 135.582 204.22 135.395 204.22 135.101V131.805C204.22 131.558 204.491 131.312 204.82 131.312H205.613C205.942 131.312 206.168 131.523 206.168 131.805V135.101V135.102ZM201.503 137.063L200.392 134.117C200.359 134.012 200.348 133.93 200.449 133.859C200.948 133.531 201.276 132.967 201.276 132.24V132.134C201.276 130.691 200.325 129.811 198.841 129.811H195.68C195.623 129.811 195.577 129.835 195.577 129.929V137.098C195.577 137.191 195.623 137.215 195.68 137.215H197.356C197.413 137.215 197.47 137.192 197.47 137.098V134.458C197.47 134.375 197.503 134.329 197.605 134.329H198.387C198.433 134.329 198.467 134.352 198.489 134.41L199.532 137.133C199.554 137.18 199.588 137.215 199.634 137.215H201.401C201.514 137.215 201.537 137.145 201.503 137.063V137.063ZM199.408 132.252C199.408 132.568 199.193 132.722 198.841 132.722H197.605C197.503 132.722 197.47 132.675 197.47 132.592V131.665C197.47 131.583 197.503 131.537 197.605 131.537H198.841C199.214 131.537 199.407 131.713 199.407 132.029V132.252H199.408ZM181.318 137.098V135.596C181.318 135.514 181.262 135.49 181.204 135.49H178.417C178.315 135.49 178.281 135.444 178.281 135.361V134.458C178.281 134.375 178.316 134.329 178.417 134.329H180.706C180.762 134.329 180.819 134.305 180.819 134.223V132.71C180.819 132.627 180.763 132.604 180.706 132.604H178.417C178.315 132.604 178.281 132.557 178.281 132.475V131.666C178.281 131.583 178.316 131.536 178.417 131.536H181.205C181.273 131.536 181.318 131.513 181.318 131.431V129.929C181.318 129.835 181.25 129.812 181.204 129.812H176.491C176.435 129.812 176.389 129.835 176.389 129.929V137.098C176.389 137.191 176.435 137.215 176.491 137.215H181.204C181.273 137.215 181.318 137.192 181.318 137.098V137.098ZM251.39 137.098V135.596C251.39 135.514 251.333 135.49 251.276 135.49H248.488C248.386 135.49 248.353 135.444 248.353 135.361V134.458C248.353 134.376 248.387 134.329 248.489 134.329H250.777C250.834 134.329 250.891 134.305 250.891 134.224V132.709C250.891 132.628 250.835 132.604 250.777 132.604H248.489C248.387 132.604 248.353 132.557 248.353 132.476V131.665C248.353 131.583 248.387 131.537 248.489 131.537H251.276C251.344 131.537 251.39 131.513 251.39 131.431V129.929C251.39 129.835 251.321 129.812 251.276 129.812H246.563C246.507 129.812 246.46 129.835 246.46 129.929V137.098C246.46 137.191 246.507 137.215 246.563 137.215H251.276C251.344 137.215 251.39 137.191 251.39 137.098ZM245.113 131.431V129.929C245.113 129.835 245.044 129.812 245.011 129.812H240.058C240.002 129.812 239.945 129.835 239.945 129.929V131.431C239.945 131.513 240.001 131.537 240.058 131.537H241.446C241.571 131.537 241.593 131.583 241.593 131.665V137.098C241.593 137.191 241.639 137.215 241.696 137.215H243.361C243.417 137.215 243.474 137.191 243.474 137.098V131.665C243.474 131.583 243.497 131.537 243.61 131.537H245.01C245.065 131.537 245.112 131.513 245.112 131.431H245.113ZM223.28 137.098V135.596C223.28 135.514 223.224 135.49 223.166 135.49H220.379C220.277 135.49 220.243 135.444 220.243 135.361V134.458C220.243 134.376 220.277 134.329 220.379 134.329H222.668C222.725 134.329 222.781 134.305 222.781 134.224V132.709C222.781 132.628 222.725 132.604 222.668 132.604H220.379C220.277 132.604 220.243 132.557 220.243 132.476V131.665C220.243 131.583 220.277 131.537 220.379 131.537H223.167C223.235 131.537 223.28 131.513 223.28 131.431V129.929C223.28 129.835 223.212 129.812 223.166 129.812H218.453C218.397 129.812 218.351 129.835 218.351 129.929V137.098C218.351 137.191 218.397 137.215 218.453 137.215H223.166C223.235 137.215 223.28 137.191 223.28 137.098ZM215.034 135.009C215.034 135.256 214.785 135.49 214.467 135.49H213.232C213.13 135.49 213.097 135.444 213.097 135.361V131.665C213.097 131.583 213.131 131.537 213.232 131.537H214.468C214.774 131.537 215.034 131.794 215.034 132.029V135.009ZM216.904 134.916V132.135C216.904 130.692 215.952 129.812 214.468 129.812H211.307C211.25 129.812 211.205 129.835 211.205 129.929V137.098C211.205 137.191 211.25 137.215 211.307 137.215H214.468C215.952 137.215 216.903 136.335 216.903 134.915L216.904 134.916ZM239.398 137.063L238.288 134.117C238.254 134.012 238.243 133.93 238.344 133.859C238.843 133.531 239.171 132.967 239.171 132.24V132.134C239.171 130.692 238.22 129.811 236.736 129.811H233.575C233.518 129.811 233.473 129.835 233.473 129.929V137.098C233.473 137.191 233.518 137.215 233.575 137.215H235.251C235.307 137.215 235.365 137.192 235.365 137.098V134.458C235.365 134.376 235.398 134.329 235.501 134.329H236.282C236.329 134.329 236.362 134.353 236.384 134.411L237.427 137.132C237.449 137.179 237.483 137.215 237.529 137.215H239.296C239.409 137.215 239.432 137.145 239.398 137.063V137.063ZM237.303 132.252C237.303 132.568 237.087 132.722 236.736 132.722H235.501C235.398 132.722 235.365 132.675 235.365 132.592V131.665C235.365 131.583 235.398 131.537 235.501 131.537H236.736C237.109 131.537 237.303 131.713 237.303 132.029V132.252V132.252ZM232.5 137.063L230.132 129.894C230.109 129.823 230.076 129.812 230.029 129.812H228.795C228.727 129.812 228.704 129.835 228.682 129.894L226.313 137.063C226.279 137.156 226.324 137.215 226.425 137.215H228.171C228.227 137.215 228.251 137.192 228.273 137.132L228.58 136.253C228.601 136.195 228.624 136.171 228.714 136.171H230.074C230.165 136.171 230.199 136.195 230.222 136.253L230.516 137.132C230.539 137.192 230.55 137.215 230.619 137.215H232.397C232.522 137.215 232.533 137.157 232.5 137.063V137.063ZM229.837 134.681C229.848 134.739 229.815 134.787 229.735 134.787H229.078C228.988 134.787 228.953 134.739 228.965 134.681L229.169 133.765C229.327 133.073 229.407 132.322 229.407 132.322H229.441C229.441 132.322 229.52 133.073 229.656 133.765L229.837 134.681Z" fill="black"/>
<path fill-rule="evenodd" clip-rule="evenodd" d="M166.467 140.181H254.351V117.469H166.468L166.466 140.181H166.467ZM254.352 142.649H166.468V158.941H254.351L254.352 142.649ZM164 161.409H256.819V115H164V161.409Z" fill="black"/>
<path opacity="0.5" fill-rule="evenodd" clip-rule="evenodd" d="M267.71 125.576V128.054C267.487 128.187 267.218 128.29 266.902 128.362C266.586 128.434 266.263 128.47 265.934 128.47C265.478 128.47 265.065 128.398 264.696 128.254C264.327 128.11 264.012 127.913 263.752 127.662C263.492 127.412 263.293 127.113 263.154 126.767C263.016 126.42 262.947 126.042 262.947 125.632C262.947 125.168 263.03 124.746 263.194 124.365C263.359 123.984 263.581 123.656 263.859 123.382C264.138 123.107 264.462 122.894 264.831 122.742C265.2 122.59 265.589 122.514 265.998 122.514C266.136 122.514 266.281 122.524 266.432 122.542C266.583 122.561 266.733 122.589 266.882 122.626C267.031 122.664 267.174 122.707 267.312 122.758C267.45 122.809 267.575 122.869 267.687 122.938L267.209 123.737C267.134 123.689 267.045 123.648 266.942 123.613C266.838 123.579 266.731 123.548 266.619 123.521C266.508 123.495 266.398 123.475 266.289 123.462C266.18 123.448 266.078 123.442 265.982 123.442C265.711 123.442 265.452 123.496 265.205 123.605C264.959 123.715 264.739 123.863 264.548 124.049C264.357 124.236 264.205 124.458 264.09 124.717C263.976 124.975 263.919 125.251 263.919 125.544C263.919 125.81 263.97 126.063 264.07 126.303C264.171 126.543 264.312 126.755 264.493 126.939C264.673 127.123 264.888 127.269 265.138 127.378C265.387 127.488 265.661 127.542 265.958 127.542C266.064 127.542 266.197 127.533 266.356 127.514C266.516 127.496 266.667 127.462 266.81 127.414V126.423H265.727V125.576H267.71ZM270.992 128.47C270.679 128.47 270.385 128.418 270.112 128.314C269.838 128.21 269.601 128.065 269.399 127.878C269.197 127.691 269.038 127.466 268.921 127.203C268.804 126.939 268.746 126.647 268.746 126.327V122.578H269.718V126.303C269.718 126.474 269.751 126.634 269.817 126.783C269.884 126.932 269.974 127.063 270.088 127.175C270.202 127.286 270.336 127.376 270.49 127.442C270.644 127.509 270.811 127.542 270.992 127.542C271.173 127.542 271.341 127.509 271.498 127.442C271.654 127.376 271.791 127.286 271.908 127.175C272.025 127.063 272.116 126.932 272.183 126.783C272.249 126.634 272.282 126.474 272.282 126.303V122.578H273.254V126.327C273.254 126.647 273.196 126.939 273.079 127.203C272.962 127.466 272.801 127.691 272.597 127.878C272.392 128.065 272.152 128.21 271.876 128.314C271.6 128.418 271.305 128.47 270.992 128.47ZM274.536 128.406V122.578H278.391V123.466H275.508V125.032H278.073V125.944H275.508V127.494H278.503V128.406H274.536ZM279.467 128.406V122.578H281.107C281.426 122.578 281.717 122.621 281.98 122.706C282.242 122.791 282.465 122.914 282.649 123.074C282.832 123.234 282.974 123.431 283.075 123.665C283.176 123.9 283.226 124.164 283.226 124.457C283.226 124.617 283.21 124.776 283.178 124.936C283.146 125.096 283.096 125.251 283.027 125.4C282.958 125.549 282.868 125.686 282.756 125.812C282.645 125.937 282.512 126.045 282.358 126.135C282.475 126.322 282.589 126.504 282.7 126.683C282.812 126.861 282.925 127.041 283.039 127.223C283.153 127.404 283.271 127.59 283.393 127.782C283.516 127.974 283.648 128.182 283.792 128.406H282.621C282.382 128.033 282.156 127.679 281.944 127.346C281.731 127.013 281.527 126.698 281.33 126.399H280.438V128.406H279.467ZM280.438 125.48H281.219C281.421 125.48 281.588 125.445 281.721 125.376C281.854 125.307 281.96 125.223 282.039 125.124C282.119 125.026 282.175 124.919 282.207 124.804C282.238 124.69 282.254 124.585 282.254 124.489C282.254 124.398 282.24 124.296 282.211 124.181C282.181 124.066 282.128 123.958 282.051 123.857C281.974 123.756 281.869 123.671 281.737 123.601C281.604 123.532 281.434 123.498 281.227 123.498H280.438V125.48ZM289.662 122.578V128.677C289.625 128.629 289.542 128.541 289.415 128.414C289.287 128.286 289.131 128.132 288.945 127.954C288.759 127.775 288.553 127.578 288.328 127.362C288.102 127.147 287.872 126.928 287.639 126.707C287.405 126.486 287.177 126.269 286.954 126.055C286.731 125.842 286.528 125.646 286.344 125.468C286.161 125.289 286.007 125.138 285.882 125.012C285.758 124.887 285.677 124.8 285.64 124.752C285.634 124.742 285.613 124.714 285.576 124.669C285.539 124.623 285.507 124.582 285.48 124.545L285.504 124.8V128.406H284.532V122.314C284.57 122.362 284.652 122.449 284.779 122.574C284.907 122.699 285.063 122.85 285.249 123.026C285.435 123.202 285.641 123.394 285.867 123.601C286.092 123.809 286.322 124.021 286.555 124.237C286.789 124.453 287.017 124.666 287.24 124.876C287.463 125.087 287.668 125.279 287.854 125.452C288.04 125.625 288.195 125.773 288.32 125.896C288.445 126.018 288.525 126.103 288.563 126.151L288.714 126.375L288.69 126.103V122.578H289.662ZM291 122.578H291.98V128.406H291V122.578ZM297.691 127.974C297.627 128.017 297.538 128.067 297.424 128.126C297.31 128.184 297.174 128.239 297.017 128.29C296.861 128.34 296.684 128.383 296.488 128.418C296.291 128.452 296.082 128.47 295.859 128.47C295.402 128.47 294.993 128.391 294.632 128.234C294.271 128.076 293.966 127.865 293.716 127.598C293.466 127.332 293.275 127.02 293.143 126.663C293.01 126.306 292.943 125.93 292.943 125.536C292.943 125.099 293.023 124.695 293.182 124.325C293.342 123.954 293.558 123.635 293.831 123.366C294.105 123.096 294.424 122.887 294.787 122.738C295.151 122.589 295.54 122.514 295.954 122.514C296.113 122.514 296.274 122.526 296.436 122.55C296.598 122.574 296.751 122.605 296.894 122.642C297.037 122.679 297.163 122.722 297.272 122.77C297.381 122.818 297.46 122.869 297.507 122.922C297.46 122.997 297.422 123.058 297.396 123.106C297.369 123.154 297.341 123.203 297.312 123.254C297.283 123.304 297.251 123.362 297.217 123.426C297.182 123.49 297.133 123.577 297.069 123.689C297.006 123.647 296.929 123.609 296.838 123.577C296.748 123.545 296.654 123.52 296.555 123.502C296.457 123.483 296.358 123.468 296.257 123.458C296.156 123.447 296.066 123.442 295.986 123.442C295.689 123.442 295.414 123.498 295.162 123.609C294.909 123.721 294.692 123.869 294.508 124.053C294.325 124.237 294.182 124.451 294.078 124.697C293.975 124.942 293.923 125.195 293.923 125.456C293.923 125.712 293.972 125.961 294.07 126.203C294.169 126.446 294.307 126.66 294.485 126.847C294.662 127.033 294.874 127.184 295.118 127.298C295.362 127.413 295.633 127.47 295.93 127.47C296.1 127.47 296.265 127.453 296.424 127.418C296.583 127.384 296.724 127.345 296.846 127.302C296.968 127.26 297.068 127.217 297.145 127.175C297.222 127.132 297.263 127.103 297.268 127.087L297.691 127.974ZM301.984 128.406C301.968 128.368 301.94 128.302 301.9 128.206C301.86 128.11 301.811 127.993 301.753 127.854C301.694 127.715 301.63 127.562 301.561 127.394C301.492 127.227 301.421 127.052 301.346 126.871H299.347L298.71 128.406H297.746C297.767 128.358 297.818 128.239 297.898 128.05C297.977 127.861 298.077 127.626 298.196 127.346C298.316 127.067 298.448 126.755 298.595 126.411C298.741 126.067 298.891 125.717 299.045 125.36C299.199 125.003 299.349 124.653 299.495 124.309C299.641 123.965 299.773 123.653 299.893 123.374C300.012 123.094 300.112 122.859 300.191 122.67C300.271 122.481 300.322 122.362 300.343 122.314C300.364 122.362 300.416 122.481 300.498 122.67C300.58 122.859 300.681 123.094 300.801 123.374C300.92 123.653 301.053 123.965 301.199 124.309C301.345 124.653 301.495 125.003 301.649 125.36C301.803 125.717 301.953 126.067 302.099 126.411C302.245 126.755 302.378 127.067 302.497 127.346C302.617 127.626 302.716 127.861 302.796 128.05C302.876 128.239 302.926 128.358 302.947 128.406H301.984ZM299.682 126.047H301.004L300.43 124.657C300.425 124.651 300.412 124.615 300.391 124.549C300.369 124.482 300.353 124.422 300.343 124.369C300.332 124.422 300.316 124.482 300.295 124.549C300.274 124.615 300.263 124.651 300.263 124.657L299.682 126.047Z" fill="black"/>
<path opacity="0.5" fill-rule="evenodd" clip-rule="evenodd" d="M263.134 119.412V115.198H264.281C264.501 115.198 264.703 115.227 264.886 115.285C265.07 115.343 265.228 115.429 265.361 115.544C265.494 115.658 265.598 115.797 265.671 115.962C265.744 116.127 265.781 116.316 265.781 116.529C265.781 116.645 265.769 116.761 265.746 116.875C265.723 116.989 265.686 117.1 265.633 117.206C265.581 117.313 265.515 117.412 265.434 117.503C265.352 117.594 265.254 117.67 265.138 117.732C265.293 117.977 265.461 118.247 265.642 118.543C265.824 118.84 266.007 119.13 266.192 119.412H265.434C265.356 119.292 265.276 119.166 265.193 119.035C265.11 118.903 265.027 118.772 264.944 118.642C264.861 118.512 264.78 118.384 264.701 118.258C264.622 118.133 264.547 118.015 264.478 117.907H263.771V119.412H263.134ZM263.771 117.308H264.344C264.499 117.308 264.628 117.282 264.733 117.229C264.837 117.177 264.919 117.112 264.979 117.035C265.039 116.957 265.081 116.874 265.106 116.785C265.131 116.696 265.144 116.614 265.144 116.541C265.144 116.467 265.131 116.387 265.106 116.299C265.081 116.212 265.038 116.131 264.976 116.055C264.914 115.98 264.832 115.917 264.73 115.866C264.627 115.816 264.501 115.791 264.35 115.791H263.771V117.308ZM266.772 119.412V115.198H269.529V115.773H267.409V117.006H269.297V117.593H267.409V118.825H269.61V119.412H266.772ZM270.983 117.308H271.556C271.711 117.308 271.84 117.281 271.945 117.227C272.049 117.172 272.131 117.106 272.191 117.029C272.251 116.951 272.293 116.868 272.318 116.779C272.343 116.69 272.356 116.61 272.356 116.541C272.356 116.467 272.343 116.387 272.318 116.299C272.293 116.212 272.25 116.131 272.188 116.055C272.126 115.98 272.044 115.917 271.942 115.866C271.839 115.816 271.713 115.791 271.562 115.791H270.983V117.308ZM270.346 119.412V115.198H271.493C271.713 115.198 271.915 115.227 272.098 115.285C272.281 115.343 272.44 115.429 272.573 115.544C272.706 115.658 272.81 115.797 272.883 115.962C272.956 116.127 272.993 116.316 272.993 116.529C272.993 116.696 272.968 116.861 272.918 117.026C272.867 117.191 272.786 117.338 272.674 117.468C272.562 117.598 272.416 117.703 272.234 117.785C272.053 117.866 271.833 117.907 271.574 117.907H270.983V119.412H270.346ZM273.688 119.412V115.198H276.445V115.773H274.325V117.006H276.214V117.593H274.325V118.825H276.527V119.412H273.688ZM280.946 115.198V119.604C280.892 119.535 280.788 119.422 280.634 119.267L280.101 118.732C279.9 118.531 279.686 118.32 279.461 118.099C279.235 117.878 279.021 117.667 278.82 117.468C278.62 117.268 278.444 117.09 278.293 116.933C278.143 116.776 278.042 116.665 277.992 116.599L277.882 116.448L277.899 116.634V119.412H277.262V115C277.305 115.054 277.375 115.132 277.474 115.233C277.572 115.333 277.688 115.451 277.821 115.584C277.954 115.718 278.101 115.862 278.261 116.017C278.422 116.172 278.584 116.329 278.748 116.488C278.912 116.647 279.074 116.803 279.235 116.956C279.395 117.109 279.542 117.252 279.675 117.384C279.808 117.515 279.923 117.632 280.02 117.732C280.116 117.833 280.184 117.909 280.222 117.959L280.332 118.122L280.315 117.924V115.198H280.946ZM284.381 115.43L284.155 115.948C283.997 115.889 283.84 115.843 283.683 115.808C283.527 115.773 283.377 115.756 283.234 115.756C282.991 115.756 282.797 115.806 282.652 115.907C282.507 116.008 282.435 116.136 282.435 116.291C282.435 116.422 282.487 116.528 282.591 116.607C282.696 116.687 282.825 116.759 282.98 116.823C283.134 116.886 283.302 116.95 283.484 117.014C283.665 117.078 283.833 117.161 283.988 117.261C284.142 117.362 284.271 117.489 284.376 117.642C284.48 117.795 284.532 117.992 284.532 118.232C284.532 118.418 284.498 118.586 284.431 118.735C284.363 118.884 284.263 119.013 284.129 119.122C283.996 119.23 283.83 119.314 283.631 119.372C283.432 119.43 283.2 119.459 282.933 119.459C282.763 119.459 282.61 119.447 282.473 119.424C282.336 119.401 282.212 119.371 282.102 119.334C281.992 119.297 281.895 119.257 281.812 119.215C281.729 119.172 281.659 119.133 281.601 119.099L281.879 118.546C282.033 118.635 282.205 118.707 282.395 118.761C282.584 118.816 282.756 118.843 282.91 118.843C282.987 118.843 283.083 118.833 283.197 118.814C283.311 118.794 283.42 118.76 283.524 118.712C283.628 118.663 283.718 118.599 283.793 118.517C283.869 118.436 283.906 118.333 283.906 118.209C283.906 118.097 283.876 118.001 283.817 117.921C283.757 117.842 283.678 117.772 283.579 117.712C283.481 117.652 283.369 117.598 283.243 117.549C283.118 117.501 282.989 117.45 282.858 117.398C282.727 117.346 282.598 117.291 282.473 117.232C282.347 117.174 282.235 117.104 282.137 117.02C282.038 116.937 281.959 116.84 281.899 116.73C281.839 116.619 281.809 116.486 281.809 116.331C281.809 116.188 281.838 116.046 281.896 115.907C281.954 115.767 282.041 115.643 282.157 115.535C282.273 115.426 282.417 115.339 282.589 115.273C282.76 115.207 282.96 115.174 283.188 115.174C283.327 115.174 283.463 115.186 283.597 115.209C283.73 115.233 283.85 115.259 283.959 115.288C284.067 115.317 284.158 115.345 284.234 115.372C284.309 115.399 284.358 115.419 284.381 115.43ZM287.851 119.412C287.832 119.37 287.805 119.308 287.77 119.226C287.735 119.145 287.696 119.051 287.651 118.944C287.607 118.838 287.559 118.722 287.507 118.596C287.454 118.47 287.401 118.339 287.347 118.203H285.864L285.366 119.412H284.741L286.612 115C286.635 115.054 286.676 115.153 286.736 115.296C286.796 115.44 286.867 115.611 286.95 115.811C287.034 116.011 287.126 116.231 287.229 116.474C287.331 116.716 287.435 116.961 287.541 117.209C287.648 117.457 287.752 117.701 287.854 117.942C287.956 118.182 288.05 118.403 288.135 118.604C288.22 118.806 288.292 118.977 288.352 119.119C288.412 119.26 288.454 119.358 288.477 119.412H287.851ZM286.084 117.668H287.133C287.079 117.541 287.028 117.417 286.979 117.299C286.931 117.181 286.887 117.073 286.846 116.974C286.806 116.875 286.77 116.789 286.739 116.715C286.708 116.641 286.685 116.583 286.67 116.541C286.666 116.533 286.657 116.506 286.643 116.459C286.63 116.413 286.619 116.37 286.612 116.331C286.604 116.37 286.592 116.413 286.577 116.459C286.561 116.506 286.552 116.533 286.548 116.541L286.084 117.668ZM288.998 119.412V115.198H290.145C290.365 115.198 290.567 115.227 290.75 115.285C290.934 115.343 291.092 115.429 291.225 115.544C291.359 115.658 291.462 115.797 291.535 115.962C291.609 116.127 291.645 116.316 291.645 116.529C291.645 116.645 291.634 116.761 291.611 116.875C291.588 116.989 291.55 117.1 291.498 117.206C291.446 117.313 291.379 117.412 291.298 117.503C291.217 117.594 291.118 117.67 291.002 117.732C291.157 117.977 291.325 118.247 291.506 118.543C291.688 118.84 291.871 119.13 292.057 119.412H291.298C291.221 119.292 291.141 119.166 291.057 119.035C290.974 118.903 290.891 118.772 290.808 118.642C290.725 118.512 290.644 118.384 290.565 118.258C290.486 118.133 290.412 118.015 290.342 117.907H289.635V119.412H288.998ZM289.635 117.308H290.209C290.363 117.308 290.493 117.282 290.597 117.229C290.701 117.177 290.783 117.112 290.843 117.035C290.903 116.957 290.945 116.874 290.971 116.785C290.996 116.696 291.008 116.614 291.008 116.541C291.008 116.467 290.996 116.387 290.971 116.299C290.945 116.212 290.902 116.131 290.84 116.055C290.778 115.98 290.696 115.917 290.594 115.866C290.492 115.816 290.365 115.791 290.215 115.791H289.635V117.308Z" fill="black"/>
<path d="M262.947 134.475H360.842" stroke="black" stroke-opacity="0.2" stroke-width="0.25"/>
<path d="M269.243 147.718C269.159 147.774 269.04 147.841 268.885 147.918C268.738 147.995 268.559 148.069 268.348 148.139C268.145 148.202 267.913 148.255 267.654 148.297C267.394 148.346 267.117 148.37 266.822 148.37C266.218 148.37 265.678 148.269 265.2 148.065C264.723 147.855 264.32 147.574 263.99 147.223C263.66 146.872 263.407 146.461 263.232 145.991C263.056 145.521 262.968 145.026 262.968 144.507C262.968 143.931 263.074 143.401 263.284 142.917C263.495 142.425 263.779 142.004 264.137 141.653C264.502 141.295 264.923 141.018 265.4 140.822C265.885 140.625 266.401 140.527 266.948 140.527C267.159 140.527 267.369 140.544 267.58 140.58C267.797 140.608 268.001 140.646 268.19 140.695C268.38 140.744 268.545 140.801 268.685 140.864C268.833 140.927 268.938 140.994 269.001 141.064C268.938 141.162 268.889 141.243 268.854 141.306C268.819 141.369 268.78 141.436 268.738 141.506C268.703 141.569 268.661 141.643 268.612 141.727C268.57 141.811 268.506 141.927 268.422 142.075C268.338 142.018 268.236 141.969 268.117 141.927C267.997 141.885 267.871 141.853 267.738 141.832C267.611 141.804 267.482 141.783 267.348 141.769C267.215 141.755 267.096 141.748 266.99 141.748C266.597 141.748 266.232 141.822 265.895 141.969C265.565 142.117 265.278 142.313 265.032 142.559C264.793 142.797 264.604 143.078 264.463 143.401C264.33 143.724 264.263 144.057 264.263 144.401C264.263 144.738 264.327 145.068 264.453 145.391C264.586 145.707 264.769 145.988 265 146.233C265.239 146.479 265.52 146.679 265.843 146.833C266.166 146.981 266.524 147.054 266.917 147.054C267.141 147.054 267.359 147.033 267.569 146.991C267.78 146.942 267.966 146.89 268.127 146.833C268.289 146.777 268.419 146.721 268.517 146.665C268.622 146.609 268.678 146.57 268.685 146.549L269.243 147.718Z" fill="black"/>
<path d="M269.487 144.464C269.487 143.931 269.588 143.426 269.792 142.948C270.003 142.471 270.283 142.053 270.634 141.696C270.992 141.338 271.406 141.053 271.877 140.843C272.354 140.632 272.863 140.527 273.403 140.527C273.937 140.527 274.442 140.632 274.919 140.843C275.397 141.053 275.814 141.338 276.172 141.696C276.53 142.053 276.811 142.471 277.014 142.948C277.225 143.426 277.33 143.931 277.33 144.464C277.33 145.005 277.225 145.514 277.014 145.991C276.811 146.461 276.53 146.875 276.172 147.233C275.814 147.584 275.397 147.862 274.919 148.065C274.442 148.269 273.937 148.37 273.403 148.37C272.863 148.37 272.354 148.269 271.877 148.065C271.406 147.862 270.992 147.584 270.634 147.233C270.283 146.875 270.003 146.461 269.792 145.991C269.588 145.514 269.487 145.005 269.487 144.464ZM270.782 144.464C270.782 144.836 270.848 145.187 270.982 145.517C271.122 145.84 271.312 146.124 271.55 146.37C271.796 146.609 272.077 146.798 272.393 146.939C272.715 147.079 273.063 147.149 273.435 147.149C273.793 147.149 274.13 147.079 274.446 146.939C274.768 146.798 275.046 146.609 275.277 146.37C275.516 146.124 275.702 145.84 275.835 145.517C275.976 145.187 276.046 144.836 276.046 144.464C276.046 144.092 275.976 143.745 275.835 143.422C275.695 143.092 275.505 142.805 275.267 142.559C275.028 142.313 274.747 142.12 274.425 141.98C274.109 141.839 273.768 141.769 273.403 141.769C273.038 141.769 272.694 141.839 272.371 141.98C272.056 142.12 271.778 142.313 271.54 142.559C271.308 142.805 271.122 143.092 270.982 143.422C270.848 143.745 270.782 144.092 270.782 144.464Z" fill="black"/>
<path d="M285.378 140.611V148.644C285.329 148.581 285.22 148.465 285.052 148.297C284.883 148.128 284.676 147.928 284.43 147.697C284.185 147.458 283.911 147.198 283.609 146.918C283.314 146.63 283.013 146.342 282.704 146.054C282.395 145.759 282.093 145.472 281.798 145.191C281.504 144.91 281.233 144.654 280.988 144.422C280.749 144.184 280.546 143.984 280.377 143.822C280.216 143.654 280.11 143.538 280.061 143.475C280.054 143.461 280.026 143.426 279.977 143.37C279.928 143.306 279.886 143.25 279.851 143.201L279.882 143.538V148.286H278.598V140.264C278.647 140.327 278.756 140.443 278.924 140.611C279.093 140.773 279.3 140.969 279.545 141.201C279.791 141.432 280.061 141.685 280.356 141.959C280.658 142.232 280.963 142.513 281.272 142.801C281.581 143.082 281.883 143.363 282.177 143.643C282.472 143.917 282.742 144.17 282.988 144.401C283.234 144.626 283.437 144.819 283.599 144.98C283.767 145.142 283.876 145.254 283.925 145.317L284.125 145.612L284.094 145.254V140.611H285.378Z" fill="black"/>
<path d="M291.743 140.611V141.843H289.848V148.286H288.553V141.843H286.7V140.611H291.743Z" fill="black"/>
<path d="M293.074 148.286V140.611H295.243C295.664 140.611 296.047 140.667 296.391 140.78C296.742 140.892 297.036 141.053 297.275 141.264C297.521 141.474 297.71 141.734 297.844 142.043C297.977 142.352 298.044 142.699 298.044 143.085C298.044 143.296 298.023 143.506 297.98 143.717C297.938 143.928 297.872 144.131 297.78 144.328C297.689 144.524 297.57 144.707 297.422 144.875C297.275 145.037 297.1 145.177 296.896 145.296C297.05 145.542 297.201 145.784 297.349 146.023C297.496 146.254 297.644 146.489 297.791 146.728C297.945 146.967 298.103 147.212 298.265 147.465C298.426 147.718 298.602 147.991 298.791 148.286H297.243C296.928 147.795 296.629 147.332 296.349 146.897C296.068 146.454 295.798 146.037 295.538 145.644H295.433H294.359V148.286H293.074ZM294.359 144.433H295.39C295.657 144.433 295.878 144.387 296.054 144.296C296.229 144.205 296.37 144.096 296.475 143.97C296.58 143.836 296.654 143.696 296.696 143.549C296.738 143.394 296.759 143.254 296.759 143.127C296.759 143.008 296.738 142.875 296.696 142.727C296.661 142.573 296.591 142.429 296.485 142.296C296.387 142.162 296.25 142.05 296.075 141.959C295.899 141.867 295.675 141.822 295.401 141.822H294.359V144.433Z" fill="black"/>
<path d="M304.484 148.286C304.463 148.237 304.425 148.149 304.368 148.023C304.319 147.897 304.256 147.742 304.179 147.56C304.102 147.377 304.017 147.177 303.926 146.96C303.835 146.735 303.74 146.503 303.642 146.265H300.999L300.157 148.286H298.883C298.911 148.223 298.978 148.069 299.083 147.823C299.188 147.57 299.318 147.262 299.473 146.897C299.634 146.525 299.81 146.114 299.999 145.665C300.196 145.208 300.396 144.745 300.599 144.275C300.803 143.805 300.999 143.345 301.189 142.896C301.385 142.44 301.561 142.029 301.715 141.664C301.877 141.292 302.01 140.983 302.115 140.737C302.221 140.485 302.287 140.327 302.315 140.264C302.343 140.327 302.41 140.485 302.515 140.737C302.628 140.983 302.761 141.292 302.916 141.664C303.077 142.029 303.252 142.44 303.442 142.896C303.638 143.345 303.839 143.805 304.042 144.275C304.246 144.745 304.442 145.208 304.632 145.665C304.828 146.114 305.004 146.525 305.158 146.897C305.32 147.262 305.453 147.57 305.558 147.823C305.663 148.069 305.73 148.223 305.758 148.286H304.484ZM301.442 145.18H303.189L302.431 143.348C302.424 143.341 302.407 143.296 302.379 143.212C302.351 143.12 302.329 143.04 302.315 142.969C302.301 143.04 302.28 143.12 302.252 143.212C302.224 143.296 302.21 143.341 302.21 143.348L301.442 145.18Z" fill="black"/>
<path d="M306.341 146.486V145.423H308.309V146.486H306.341Z" fill="black"/>
<path d="M314.499 148.286C314.477 148.237 314.439 148.149 314.383 148.023C314.334 147.897 314.27 147.742 314.193 147.56C314.116 147.377 314.032 147.177 313.941 146.96C313.849 146.735 313.755 146.503 313.656 146.265H311.014L310.171 148.286H308.897C308.926 148.223 308.992 148.069 309.097 147.823C309.203 147.57 309.333 147.262 309.487 146.897C309.648 146.525 309.824 146.114 310.013 145.665C310.21 145.208 310.41 144.745 310.614 144.275C310.817 143.805 311.014 143.345 311.203 142.896C311.4 142.44 311.575 142.029 311.73 141.664C311.891 141.292 312.024 140.983 312.13 140.737C312.235 140.485 312.302 140.327 312.33 140.264C312.358 140.327 312.424 140.485 312.53 140.737C312.642 140.983 312.775 141.292 312.93 141.664C313.091 142.029 313.267 142.44 313.456 142.896C313.653 143.345 313.853 143.805 314.056 144.275C314.26 144.745 314.456 145.208 314.646 145.665C314.842 146.114 315.018 146.525 315.172 146.897C315.334 147.262 315.467 147.57 315.572 147.823C315.678 148.069 315.744 148.223 315.772 148.286H314.499ZM311.456 145.18H313.204L312.445 143.348C312.438 143.341 312.421 143.296 312.393 143.212C312.365 143.12 312.344 143.04 312.33 142.969C312.316 143.04 312.295 143.12 312.267 143.212C312.238 143.296 312.224 143.341 312.224 143.348L311.456 145.18Z" fill="black"/>
<path d="M316.66 148.286V140.611H318.829C319.25 140.611 319.633 140.667 319.977 140.78C320.328 140.892 320.622 141.053 320.861 141.264C321.107 141.474 321.296 141.734 321.43 142.043C321.563 142.352 321.63 142.699 321.63 143.085C321.63 143.296 321.609 143.506 321.566 143.717C321.524 143.928 321.458 144.131 321.366 144.328C321.275 144.524 321.156 144.707 321.008 144.875C320.861 145.037 320.686 145.177 320.482 145.296C320.636 145.542 320.787 145.784 320.935 146.023C321.082 146.254 321.23 146.489 321.377 146.728C321.531 146.967 321.689 147.212 321.851 147.465C322.012 147.718 322.188 147.991 322.377 148.286H320.829C320.514 147.795 320.215 147.332 319.935 146.897C319.654 146.454 319.384 146.037 319.124 145.644H319.019H317.945V148.286H316.66ZM317.945 144.433H318.976C319.243 144.433 319.464 144.387 319.64 144.296C319.815 144.205 319.956 144.096 320.061 143.97C320.166 143.836 320.24 143.696 320.282 143.549C320.324 143.394 320.345 143.254 320.345 143.127C320.345 143.008 320.324 142.875 320.282 142.727C320.247 142.573 320.177 142.429 320.071 142.296C319.973 142.162 319.836 142.05 319.661 141.959C319.485 141.867 319.261 141.822 318.987 141.822H317.945V144.433Z" fill="black"/>
<path d="M329.01 147.718C328.926 147.774 328.807 147.841 328.652 147.918C328.505 147.995 328.326 148.069 328.115 148.139C327.912 148.202 327.68 148.255 327.42 148.297C327.161 148.346 326.883 148.37 326.589 148.37C325.985 148.37 325.445 148.269 324.967 148.065C324.49 147.855 324.086 147.574 323.757 147.223C323.427 146.872 323.174 146.461 322.999 145.991C322.823 145.521 322.735 145.026 322.735 144.507C322.735 143.931 322.841 143.401 323.051 142.917C323.262 142.425 323.546 142.004 323.904 141.653C324.269 141.295 324.69 141.018 325.167 140.822C325.652 140.625 326.168 140.527 326.715 140.527C326.926 140.527 327.136 140.544 327.347 140.58C327.564 140.608 327.768 140.646 327.957 140.695C328.147 140.744 328.312 140.801 328.452 140.864C328.6 140.927 328.705 140.994 328.768 141.064C328.705 141.162 328.656 141.243 328.621 141.306C328.586 141.369 328.547 141.436 328.505 141.506C328.47 141.569 328.428 141.643 328.378 141.727C328.336 141.811 328.273 141.927 328.189 142.075C328.105 142.018 328.003 141.969 327.884 141.927C327.764 141.885 327.638 141.853 327.505 141.832C327.378 141.804 327.248 141.783 327.115 141.769C326.982 141.755 326.862 141.748 326.757 141.748C326.364 141.748 325.999 141.822 325.662 141.969C325.332 142.117 325.045 142.313 324.799 142.559C324.56 142.797 324.371 143.078 324.23 143.401C324.097 143.724 324.03 144.057 324.03 144.401C324.03 144.738 324.093 145.068 324.22 145.391C324.353 145.707 324.536 145.988 324.767 146.233C325.006 146.479 325.287 146.679 325.61 146.833C325.932 146.981 326.29 147.054 326.683 147.054C326.908 147.054 327.126 147.033 327.336 146.991C327.547 146.942 327.733 146.89 327.894 146.833C328.056 146.777 328.185 146.721 328.284 146.665C328.389 146.609 328.445 146.57 328.452 146.549L329.01 147.718Z" fill="black"/>
<path d="M329.965 148.286V140.611H331.26V143.812H334.923V140.611H336.229C336.229 140.695 336.229 140.93 336.229 141.317C336.229 141.703 336.229 142.169 336.229 142.717C336.229 143.257 336.225 143.836 336.218 144.454C336.218 145.065 336.218 145.644 336.218 146.191C336.218 146.732 336.218 147.195 336.218 147.581C336.218 147.967 336.218 148.202 336.218 148.286H334.923V145.044H331.26V148.286H329.965Z" fill="black"/>
<path d="M337.995 140.611H339.289V148.286H337.995V140.611Z" fill="black"/>
<path d="M341.448 140.611L343.501 145.549C343.501 145.556 343.515 145.605 343.543 145.696C343.571 145.781 343.592 145.861 343.606 145.938C343.62 145.861 343.641 145.781 343.669 145.696C343.698 145.605 343.715 145.556 343.722 145.549L345.775 140.611H347.049C347.021 140.674 346.954 140.832 346.849 141.085C346.744 141.338 346.61 141.65 346.449 142.022C346.295 142.387 346.119 142.797 345.923 143.254C345.733 143.703 345.536 144.163 345.333 144.633C345.129 145.096 344.929 145.556 344.733 146.012C344.543 146.468 344.368 146.882 344.206 147.254C344.052 147.619 343.919 147.928 343.806 148.181C343.701 148.427 343.634 148.581 343.606 148.644C343.578 148.581 343.512 148.427 343.406 148.181C343.301 147.928 343.168 147.619 343.006 147.254C342.852 146.882 342.676 146.468 342.48 146.012C342.29 145.556 342.094 145.096 341.89 144.633C341.687 144.163 341.487 143.703 341.29 143.254C341.101 142.797 340.925 142.387 340.764 142.022C340.609 141.65 340.479 141.338 340.374 141.085C340.269 140.832 340.202 140.674 340.174 140.611H341.448Z" fill="black"/>
<path d="M347.113 144.464C347.113 143.931 347.214 143.426 347.418 142.948C347.629 142.471 347.909 142.053 348.26 141.696C348.618 141.338 349.032 141.053 349.503 140.843C349.98 140.632 350.489 140.527 351.029 140.527C351.563 140.527 352.068 140.632 352.545 140.843C353.023 141.053 353.44 141.338 353.798 141.696C354.156 142.053 354.437 142.471 354.64 142.948C354.851 143.426 354.956 143.931 354.956 144.464C354.956 145.005 354.851 145.514 354.64 145.991C354.437 146.461 354.156 146.875 353.798 147.233C353.44 147.584 353.023 147.862 352.545 148.065C352.068 148.269 351.563 148.37 351.029 148.37C350.489 148.37 349.98 148.269 349.503 148.065C349.032 147.862 348.618 147.584 348.26 147.233C347.909 146.875 347.629 146.461 347.418 145.991C347.214 145.514 347.113 145.005 347.113 144.464ZM348.408 144.464C348.408 144.836 348.474 145.187 348.608 145.517C348.748 145.84 348.938 146.124 349.176 146.37C349.422 146.609 349.703 146.798 350.019 146.939C350.341 147.079 350.689 147.149 351.061 147.149C351.419 147.149 351.756 147.079 352.072 146.939C352.394 146.798 352.672 146.609 352.903 146.37C353.142 146.124 353.328 145.84 353.461 145.517C353.602 145.187 353.672 144.836 353.672 144.464C353.672 144.092 353.602 143.745 353.461 143.422C353.321 143.092 353.131 142.805 352.893 142.559C352.654 142.313 352.373 142.12 352.05 141.98C351.735 141.839 351.394 141.769 351.029 141.769C350.664 141.769 350.32 141.839 349.997 141.98C349.682 142.12 349.404 142.313 349.166 142.559C348.934 142.805 348.748 143.092 348.608 143.422C348.474 143.745 348.408 144.092 348.408 144.464Z" fill="black"/>
<path d="M360.669 141.043L360.205 142.096C359.911 141.99 359.619 141.906 359.332 141.843C359.044 141.78 358.777 141.748 358.531 141.748C358.103 141.748 357.763 141.832 357.51 142.001C357.265 142.169 357.142 142.383 357.142 142.643C357.142 142.868 357.233 143.05 357.415 143.191C357.605 143.331 357.84 143.457 358.121 143.57C358.402 143.682 358.703 143.798 359.026 143.917C359.356 144.029 359.661 144.177 359.942 144.359C360.223 144.542 360.455 144.773 360.637 145.054C360.827 145.335 360.921 145.693 360.921 146.128C360.921 146.465 360.858 146.77 360.732 147.044C360.613 147.318 360.43 147.553 360.184 147.749C359.939 147.946 359.626 148.1 359.247 148.213C358.875 148.318 358.437 148.37 357.931 148.37C357.622 148.37 357.342 148.349 357.089 148.307C356.836 148.265 356.608 148.213 356.405 148.149C356.208 148.086 356.033 148.02 355.878 147.949C355.724 147.872 355.591 147.798 355.478 147.728L356.036 146.602C356.331 146.763 356.647 146.89 356.984 146.981C357.321 147.065 357.619 147.107 357.879 147.107C358.005 147.107 358.166 147.093 358.363 147.065C358.567 147.037 358.763 146.984 358.953 146.907C359.142 146.83 359.304 146.725 359.437 146.591C359.577 146.458 359.647 146.286 359.647 146.075C359.647 145.83 359.553 145.63 359.363 145.475C359.181 145.314 358.949 145.173 358.668 145.054C358.388 144.928 358.082 144.805 357.752 144.686C357.429 144.566 357.128 144.426 356.847 144.264C356.566 144.096 356.331 143.892 356.142 143.654C355.959 143.408 355.868 143.099 355.868 142.727C355.868 142.461 355.92 142.201 356.026 141.948C356.131 141.689 356.289 141.457 356.499 141.253C356.717 141.05 356.984 140.885 357.3 140.759C357.622 140.632 358.002 140.569 358.437 140.569C358.71 140.569 358.974 140.594 359.226 140.643C359.486 140.685 359.718 140.734 359.921 140.79C360.125 140.846 360.293 140.902 360.427 140.959C360.56 141.008 360.641 141.036 360.669 141.043Z" fill="black"/>
<path d="M262.947 156.759C262.947 156.226 262.997 155.717 263.095 155.233C263.193 154.748 263.323 154.299 263.484 153.885C263.653 153.464 263.842 153.085 264.053 152.748C264.263 152.411 264.481 152.127 264.706 151.895C264.867 151.937 265.028 151.979 265.19 152.022C265.358 152.057 265.523 152.095 265.685 152.137C265.481 152.369 265.278 152.646 265.074 152.969C264.878 153.292 264.702 153.65 264.548 154.043C264.393 154.429 264.267 154.854 264.169 155.317C264.077 155.773 264.032 156.254 264.032 156.759C264.032 157.265 264.077 157.746 264.169 158.202C264.267 158.658 264.393 159.083 264.548 159.476C264.702 159.869 264.878 160.223 265.074 160.539C265.278 160.862 265.481 161.139 265.685 161.371C265.523 161.42 265.358 161.462 265.19 161.497C265.028 161.539 264.867 161.581 264.706 161.623C264.481 161.385 264.263 161.097 264.053 160.76C263.842 160.423 263.653 160.048 263.484 159.634C263.323 159.219 263.193 158.77 263.095 158.286C262.997 157.802 262.947 157.293 262.947 156.759Z" fill="black"/>
<path d="M266.661 152.19H267.956V159.865H266.661V152.19Z" fill="black"/>
<path d="M269.725 151.853C269.76 151.902 269.837 152.015 269.956 152.19C270.076 152.359 270.223 152.569 270.399 152.822C270.581 153.067 270.781 153.341 270.999 153.643C271.223 153.945 271.448 154.254 271.672 154.569C271.904 154.878 272.129 155.184 272.346 155.485C272.564 155.78 272.76 156.05 272.936 156.296C273.111 156.542 273.259 156.749 273.378 156.917C273.504 157.079 273.582 157.18 273.61 157.223C273.624 157.202 273.687 157.114 273.799 156.959C273.912 156.798 274.052 156.598 274.22 156.359C274.396 156.121 274.592 155.85 274.81 155.549C275.028 155.24 275.252 154.927 275.484 154.612C275.715 154.296 275.94 153.983 276.158 153.675C276.382 153.366 276.586 153.085 276.768 152.832C276.958 152.58 277.116 152.366 277.242 152.19C277.368 152.015 277.449 151.902 277.484 151.853V159.865H276.105V155.949C276.105 155.893 276.112 155.833 276.126 155.77C276.14 155.707 276.147 155.668 276.147 155.654L273.61 159.307C273.575 159.265 273.487 159.149 273.347 158.96C273.213 158.77 273.052 158.546 272.862 158.286C272.673 158.026 272.473 157.749 272.262 157.454C272.052 157.152 271.851 156.875 271.662 156.622C271.479 156.363 271.322 156.145 271.188 155.97C271.062 155.787 270.992 155.682 270.978 155.654C270.978 155.668 270.985 155.707 270.999 155.77C271.013 155.833 271.02 155.893 271.02 155.949V159.865H269.725V151.853Z" fill="black"/>
<path d="M281.214 156.801C281.214 157.335 281.165 157.844 281.067 158.328C280.968 158.812 280.835 159.262 280.667 159.676C280.505 160.09 280.319 160.465 280.109 160.802C279.898 161.139 279.68 161.427 279.456 161.666L278.477 161.444C278.687 161.213 278.891 160.936 279.087 160.613C279.284 160.29 279.459 159.935 279.614 159.549C279.768 159.156 279.891 158.732 279.982 158.275C280.081 157.812 280.13 157.328 280.13 156.823C280.13 156.317 280.081 155.836 279.982 155.38C279.891 154.924 279.768 154.499 279.614 154.106C279.459 153.713 279.284 153.359 279.087 153.043C278.891 152.72 278.687 152.439 278.477 152.201C278.638 152.158 278.8 152.116 278.961 152.074C279.129 152.025 279.294 151.976 279.456 151.927C279.68 152.165 279.898 152.453 280.109 152.79C280.319 153.127 280.505 153.503 280.667 153.917C280.835 154.331 280.968 154.784 281.067 155.275C281.165 155.759 281.214 156.268 281.214 156.801Z" fill="black"/>
<path d="M283.748 156.012H284.78C285.047 156.012 285.268 155.966 285.443 155.875C285.619 155.784 285.759 155.671 285.864 155.538C285.97 155.398 286.043 155.254 286.085 155.106C286.128 154.952 286.149 154.815 286.149 154.696C286.149 154.583 286.128 154.454 286.085 154.306C286.05 154.152 285.98 154.008 285.875 153.875C285.777 153.741 285.64 153.629 285.464 153.538C285.289 153.446 285.064 153.401 284.79 153.401H283.748V156.012ZM282.464 159.865V152.19H284.632C285.054 152.19 285.436 152.246 285.78 152.359C286.131 152.471 286.426 152.632 286.664 152.843C286.91 153.053 287.1 153.313 287.233 153.622C287.366 153.931 287.433 154.278 287.433 154.664C287.433 154.973 287.387 155.282 287.296 155.591C287.205 155.893 287.054 156.166 286.843 156.412C286.64 156.651 286.373 156.847 286.043 157.002C285.713 157.149 285.306 157.223 284.822 157.223H283.748V159.865H282.464Z" fill="black"/>
<path d="M288.096 156.043C288.096 155.51 288.198 155.005 288.402 154.527C288.612 154.05 288.893 153.632 289.244 153.274C289.602 152.917 290.016 152.632 290.486 152.422C290.964 152.211 291.472 152.106 292.013 152.106C292.546 152.106 293.052 152.211 293.529 152.422C294.006 152.632 294.424 152.917 294.782 153.274C295.14 153.632 295.421 154.05 295.624 154.527C295.835 155.005 295.94 155.51 295.94 156.043C295.94 156.584 295.835 157.093 295.624 157.57C295.421 158.04 295.14 158.454 294.782 158.812C294.424 159.163 294.006 159.441 293.529 159.644C293.052 159.848 292.546 159.949 292.013 159.949C291.472 159.949 290.964 159.848 290.486 159.644C290.016 159.441 289.602 159.163 289.244 158.812C288.893 158.454 288.612 158.04 288.402 157.57C288.198 157.093 288.096 156.584 288.096 156.043ZM289.391 156.043C289.391 156.415 289.458 156.766 289.591 157.096C289.732 157.419 289.921 157.703 290.16 157.949C290.406 158.188 290.686 158.377 291.002 158.518C291.325 158.658 291.673 158.728 292.045 158.728C292.402 158.728 292.739 158.658 293.055 158.518C293.378 158.377 293.655 158.188 293.887 157.949C294.126 157.703 294.312 157.419 294.445 157.096C294.585 156.766 294.656 156.415 294.656 156.043C294.656 155.671 294.585 155.324 294.445 155.001C294.305 154.671 294.115 154.383 293.876 154.138C293.638 153.892 293.357 153.699 293.034 153.559C292.718 153.418 292.378 153.348 292.013 153.348C291.648 153.348 291.304 153.418 290.981 153.559C290.665 153.699 290.388 153.892 290.149 154.138C289.918 154.383 289.732 154.671 289.591 155.001C289.458 155.324 289.391 155.671 289.391 156.043Z" fill="black"/>
<path d="M301.652 152.622L301.189 153.675C300.894 153.569 300.603 153.485 300.315 153.422C300.027 153.359 299.761 153.327 299.515 153.327C299.087 153.327 298.747 153.411 298.494 153.58C298.248 153.748 298.125 153.962 298.125 154.222C298.125 154.447 298.217 154.629 298.399 154.77C298.589 154.91 298.824 155.036 299.105 155.149C299.385 155.261 299.687 155.377 300.01 155.496C300.34 155.608 300.645 155.756 300.926 155.938C301.207 156.121 301.438 156.352 301.621 156.633C301.81 156.914 301.905 157.272 301.905 157.707C301.905 158.044 301.842 158.349 301.716 158.623C301.596 158.897 301.414 159.132 301.168 159.328C300.922 159.525 300.61 159.679 300.231 159.792C299.859 159.897 299.42 159.949 298.915 159.949C298.606 159.949 298.325 159.928 298.073 159.886C297.82 159.844 297.592 159.792 297.388 159.728C297.192 159.665 297.016 159.599 296.862 159.528C296.708 159.451 296.574 159.377 296.462 159.307L297.02 158.181C297.315 158.342 297.631 158.468 297.967 158.56C298.304 158.644 298.603 158.686 298.862 158.686C298.989 158.686 299.15 158.672 299.347 158.644C299.55 158.616 299.747 158.563 299.936 158.486C300.126 158.409 300.287 158.304 300.421 158.17C300.561 158.037 300.631 157.865 300.631 157.654C300.631 157.409 300.536 157.209 300.347 157.054C300.164 156.893 299.933 156.752 299.652 156.633C299.371 156.507 299.066 156.384 298.736 156.265C298.413 156.145 298.111 156.005 297.831 155.843C297.55 155.675 297.315 155.471 297.125 155.233C296.943 154.987 296.851 154.678 296.851 154.306C296.851 154.04 296.904 153.78 297.009 153.527C297.115 153.267 297.273 153.036 297.483 152.832C297.701 152.629 297.967 152.464 298.283 152.337C298.606 152.211 298.985 152.148 299.42 152.148C299.694 152.148 299.957 152.173 300.21 152.222C300.47 152.264 300.701 152.313 300.905 152.369C301.108 152.425 301.277 152.481 301.41 152.537C301.544 152.587 301.624 152.615 301.652 152.622Z" fill="black"/>
<path d="M303.14 152.19H304.435V159.865H303.14V152.19Z" fill="black"/>
<path d="M307.488 153.359V155.443H308.457C308.815 155.443 309.078 155.338 309.247 155.127C309.422 154.917 309.51 154.664 309.51 154.369C309.51 154.025 309.404 153.773 309.194 153.611C308.983 153.443 308.699 153.359 308.341 153.359H307.488ZM307.488 156.538V158.697H308.499C308.689 158.697 308.867 158.676 309.036 158.633C309.204 158.584 309.352 158.518 309.478 158.433C309.604 158.342 309.703 158.23 309.773 158.096C309.843 157.956 309.878 157.795 309.878 157.612C309.878 157.409 309.836 157.24 309.752 157.107C309.668 156.966 309.555 156.854 309.415 156.77C309.275 156.686 309.113 156.626 308.931 156.591C308.755 156.556 308.573 156.538 308.383 156.538H307.488ZM306.204 159.865V152.19H308.299C308.678 152.19 309.022 152.229 309.331 152.306C309.64 152.376 309.903 152.492 310.12 152.653C310.338 152.808 310.503 153.015 310.615 153.274C310.735 153.527 310.794 153.832 310.794 154.19C310.794 154.387 310.773 154.58 310.731 154.77C310.696 154.952 310.633 155.124 310.542 155.285C310.457 155.44 310.345 155.577 310.205 155.696C310.064 155.815 309.889 155.907 309.678 155.97C309.854 156.005 310.029 156.064 310.205 156.149C310.387 156.233 310.549 156.349 310.689 156.496C310.829 156.637 310.942 156.816 311.026 157.033C311.117 157.244 311.163 157.493 311.163 157.781C311.163 158.153 311.089 158.472 310.942 158.739C310.801 158.998 310.612 159.212 310.373 159.381C310.141 159.549 309.871 159.672 309.562 159.749C309.254 159.827 308.934 159.865 308.604 159.865H306.204Z" fill="black"/>
<path d="M312.465 159.865V152.19H313.75V158.644H317.477V159.865H312.465Z" fill="black"/>
<path d="M318.521 159.865V152.19H323.617V153.359H319.806V155.422H323.196V156.622H319.806V158.665H323.764V159.865H318.521Z" fill="black"/>
<path d="M329.567 152.622L329.104 153.675C328.809 153.569 328.518 153.485 328.23 153.422C327.942 153.359 327.675 153.327 327.43 153.327C327.001 153.327 326.661 153.411 326.408 153.58C326.163 153.748 326.04 153.962 326.04 154.222C326.04 154.447 326.131 154.629 326.314 154.77C326.503 154.91 326.738 155.036 327.019 155.149C327.3 155.261 327.602 155.377 327.924 155.496C328.254 155.608 328.56 155.756 328.84 155.938C329.121 156.121 329.353 156.352 329.535 156.633C329.725 156.914 329.82 157.272 329.82 157.707C329.82 158.044 329.756 158.349 329.63 158.623C329.511 158.897 329.328 159.132 329.083 159.328C328.837 159.525 328.525 159.679 328.146 159.792C327.774 159.897 327.335 159.949 326.83 159.949C326.521 159.949 326.24 159.928 325.987 159.886C325.735 159.844 325.506 159.792 325.303 159.728C325.106 159.665 324.931 159.599 324.776 159.528C324.622 159.451 324.489 159.377 324.376 159.307L324.934 158.181C325.229 158.342 325.545 158.468 325.882 158.56C326.219 158.644 326.517 158.686 326.777 158.686C326.903 158.686 327.065 158.672 327.261 158.644C327.465 158.616 327.661 158.563 327.851 158.486C328.04 158.409 328.202 158.304 328.335 158.17C328.475 158.037 328.546 157.865 328.546 157.654C328.546 157.409 328.451 157.209 328.261 157.054C328.079 156.893 327.847 156.752 327.566 156.633C327.286 156.507 326.98 156.384 326.651 156.265C326.328 156.145 326.026 156.005 325.745 155.843C325.464 155.675 325.229 155.471 325.04 155.233C324.857 154.987 324.766 154.678 324.766 154.306C324.766 154.04 324.819 153.78 324.924 153.527C325.029 153.267 325.187 153.036 325.398 152.832C325.615 152.629 325.882 152.464 326.198 152.337C326.521 152.211 326.9 152.148 327.335 152.148C327.609 152.148 327.872 152.173 328.125 152.222C328.384 152.264 328.616 152.313 328.819 152.369C329.023 152.425 329.191 152.481 329.325 152.537C329.458 152.587 329.539 152.615 329.567 152.622Z" fill="black"/>
</svg>
