<svg width="528" height="278" fill="none" xmlns="http://www.w3.org/2000/svg"><path fill="#C06" d="M0 0h528v278H0z"/><path d="M315.806 153.899v.141h18.521l.113-.084-.028-.029-.085-.028h-18.521zm43.169-17.109l.197-.142h-30.435l-.113.085.028.028.085.029h30.238z" fill="#fff"/><path d="M364 112l-35.235 24.648h-12.959v30.351l18.521-12.959H364v-17.392h-4.8l4.8-3.36V112zm-32.355 34.219c-.142.734.028 3.049.903 3.219.311.056.565 0 .819-.142l.762-.423.141 3.077h-4.884c.169-1.27.254-2.315.339-3.247l.169-2.484c-.988-.141-2.061-.508-2.964-1.214-.791-.649-1.243-1.44-1.299-2.4-.113-1.694 2.117-3.811 4.997-3.811h.847c.311.028.621.056.96.141-.197.423-.452.931-.508 1.807a3.218 3.218 0 00-.932-.142c-2.089 0-2.654 1.412-2.654 1.949 0 1.383 1.356 1.863 2.372 1.948a2.985 2.985 0 002.061-.509c.452-.31.565-.423.79-.931.537.282 1.751.367 2.626.056-.197 1.751-2.569 3.049-4.545 3.106zm-165.559 8.239c-1.325 0-2.086-.745-2.086-1.937v-15.898h3.223v15.176h8.353v2.659m10.361-14.77l-3.051 8.824h6l-2.949-8.824zm4.863 14.769l-1.248-3.514h-7.356l-1.247 3.514h-3.24l5.977-16.463c.337-1.035 1.074-1.56 2.321-1.56 1.169 0 1.938.556 2.275 1.537l5.804 16.486H190.8zm4.847-8.863c0-6.094 3.623-9.067 8.533-9.067 1.624 0 3.263.353 5.082.887l1.389.407-.479 2.683-1.506-.424c-1.647-.486-3.043-.792-4.266-.792-3.428 0-5.537 1.984-5.537 6.337 0 4.471 2.227 6.534 5.647 6.534 1.129 0 2.117-.126 3.27-.33v-4.031h-3.914v-2.377h4.824c1.271 0 2.086.792 2.086 1.938v4.054c0 1.498-.408 2.157-1.78 2.542-1.53.407-3.216.674-4.737.674-4.989 0-8.612-2.878-8.612-9.035zm26.085 9.178c-4.674 0-7.215-2.518-7.215-6.761v-11.388h3.215v11.482c0 2.573 1.341 3.977 4 3.977 2.706 0 4.032-1.404 4.032-3.977v-11.482h3.207v11.388c0 4.228-2.541 6.761-7.239 6.761zm14.071-.315h-2.824v-15.945c0-1.365.84-2.063 2.228-2.063 1.153 0 1.827.588 2.306 1.349l7.333 12.298v-13.474h2.847v15.945c0 1.341-.855 2.039-2.243 2.039-1.129 0-1.804-.581-2.259-1.349l-7.388-12.29m30.008-1.279l-3.059 8.824h6l-2.941-8.824zm4.863 14.769l-1.247-3.514h-7.357l-1.255 3.514h-3.239l5.976-16.463c.329-1.035 1.075-1.56 2.329-1.56 1.169 0 1.938.556 2.267 1.537l5.812 16.486h-3.286zm13.709-15.434h-4.463v6.259h5.278l.816-1.122c.526-.698 1.012-1.529 1.012-2.423 0-1.608-.745-2.714-2.643-2.714zm3.184 15.435l-2.996-6.8h-4.651v6.8h-3.184v-15.913c0-1.153.768-1.922 2.039-1.922h6.016c3.309 0 5.302 1.749 5.302 5.035 0 1.396-.597 2.588-1.412 3.592l-1.216 1.522 3.506 7.686h-3.404zm14.078-15.489c-3.286 0-5.192 2.376-5.192 6.627 0 4.267 2.024 6.643 5.31 6.643 3.278 0 5.184-2.361 5.184-6.643 0-4.251-2.016-6.627-5.302-6.627zm0 15.686c-5.051 0-8.439-3.287-8.439-9.059 0-5.788 3.506-9.098 8.557-9.098 5.059 0 8.423 3.286 8.423 9.098 0 5.851-3.451 9.059-8.541 9.059z" fill="#fff"/></svg>