<svg width="528" height="278" fill="none" xmlns="http://www.w3.org/2000/svg"><path fill="#EEE5D5" d="M0 0h528v278H0z"/><path fill-rule="evenodd" clip-rule="evenodd" d="M169.3 143.267h189.367V94.333H169.3v48.934zm189.367 5.333H169.3v35.1h189.367v-35.1zM164 89h200v100H164V89z" fill="#000"/><path fill-rule="evenodd" clip-rule="evenodd" d="M284.6 170.8c0-3.967-1.934-5.7-6.034-7-1.733-.567-3.866-1.067-3.866-2.434 0-1.133.7-1.633 1.733-1.633h.6c1.167 0 2.067.633 2.7 1.833l.7.1 3.633-2.433.067-.767c-.467-.766-1.033-1.5-1.667-2.033-1.366-1.2-3.2-1.867-5.466-1.867h-.534c-4.8 0-7.666 2.6-7.666 7 0 3.934 2.1 5.467 5.833 6.767 2.333.8 4.1 1.033 4.1 2.6 0 1.033-.7 1.633-1.767 1.633h-1.1c-1.166 0-2.066-.633-2.7-1.833l-.7-.1-3.633 2.433-.067.734a7.324 7.324 0 001.4 1.8c1.4 1.366 3.367 2.166 5.767 2.166H277c4.866 0 7.6-2.6 7.6-6.966zm46.2 6.166v-21.633l-.4-.367h-5.134l-.3.367v21.633l.3.367h5.134l.4-.367zm-8.267-17.1v-4.533l-.333-.367h-14.567l-.3.367v21.633l.3.367h5.167l.366-.367V169l.4-.4h7.067l.333-.3v-4.567l-.333-.333h-7.067l-.4-.4v-2.434l.4-.4h8.6l.367-.3zm21.6 9.8l-.3.3H341.8l-.334-.3.634-2.766c.5-2.1.733-4.367.733-4.367h.1s.233 2.267.667 4.367l.533 2.766zm8.2 7.2l-7.3-21.633-.3-.233h-3.8l-.367.233-7.333 21.633.333.467h5.4l.3-.233.934-2.667.433-.233h4.2l.467.233.9 2.667.3.233h5.5l.333-.467zm-111.067.034v-21.567l-.333-.367H236l-.3.367v5.733c0 3.134.166 5.9.166 5.9h-.1s-.266-.766-.766-1.7l-5.167-9.966-.467-.334h-4.433l-.3.367V176.9l.3.333h5.033l.334-.333v-5.634c0-2.9-.2-5.7-.2-5.7h.133s.267.767.733 1.6l5.2 9.734.4.3h4.367l.333-.3zm-20.033 0v-21.567l-.4-.367H215.7l-.3.367V176.9l.3.333h5.133l.4-.333zm77.533-5.767c0 .833-.633 1.433-1.7 1.433h-2.433c-1.233 0-1.867-.566-1.867-1.433V161.2c0-.734.834-1.5 1.867-1.5h2.433c1 0 1.7.633 1.7 1.5v9.933zm5.8 0V161.2c0-4.034-3.033-6.634-7.5-6.634h-2.433c-4.467 0-7.567 2.634-7.567 6.634v9.933c0 4 3.034 6.633 7.567 6.633h2.433c4.467 0 7.5-2.633 7.5-6.633zm-50.133-1.5l-.3.3H252.1l-.334-.3.634-2.767c.5-2.066.733-4.333.733-4.333h.1s.233 2.267.667 4.333l.533 2.767zm8.2 7.167l-7.3-21.567-.3-.233h-3.8l-.333.233-7.3 21.567.333.466h5.367l.3-.233.933-2.667.433-.233h4.2l.467.233.9 2.667.3.233h5.467l.333-.466zm-50.6.1v-4.534l-.333-.3h-8.6l-.434-.4v-2.733l.434-.4h7.066l.367-.3v-4.567l-.367-.333H203.1l-.434-.4V160.5l.434-.4h8.6l.333-.3v-4.534l-.333-.366h-14.534l-.3.366v21.567l.3.333H211.7l.333-.266zm-18.067-.1l-3.433-8.867.167-.767c1.533-1 2.533-2.7 2.533-4.866v-.334c0-4.333-2.933-7-7.5-7H176l-.3.367V176.9l.3.333h5.166l.334-.333v-7.967l.433-.4h2.4l.3.233 3.2 8.2.3.234h5.5l.333-.4zm-6.466-14.467c0 .967-.667 1.4-1.734 1.4h-3.833l-.433-.4v-2.8l.433-.4h3.8c1.167 0 1.733.533 1.733 1.5v.7h.034zm98.101-45.7h-1.7c-3.034 0-4.967-1.767-4.967-4.4v-7.1c0-2.634 1.967-4.4 4.967-4.4h1.7c2.966 0 4.9 1.766 4.9 4.4v1.033h-3.367v-1.033c0-.834-.667-1.4-1.533-1.4h-1.7c-.834 0-1.634.633-1.634 1.4v7.066c0 .867.667 1.367 1.634 1.367h1.7c.9 0 1.533-.567 1.533-1.367v-1h3.367v1.034c0 2.6-1.934 4.4-4.9 4.4zm-13.334-15.567l5.034 15.267h-3.634l-.6-1.867-.633-.4h-2.933l-.6.4-.634 1.867h-3.566l5.033-15.267h2.533zm-.333 10.133l-.2.234h-1.433l-.234-.234.434-1.966c.333-1.5.5-3.1.5-3.1h.066s.167 1.633.467 3.1l.4 1.966zm34.067 5.467h-1.7c-3.034 0-4.967-1.767-4.967-4.4v-7.1c0-2.633 1.967-4.4 4.967-4.4h1.7c2.966 0 4.9 1.767 4.9 4.4v7.1c0 2.633-1.934 4.4-4.9 4.4zm1.2-4.433c0 .6-.434 1.033-1.2 1.033h-1.7c-.867 0-1.3-.4-1.3-1.033v-7.1c0-.534.6-1.067 1.3-1.067h1.7c.7 0 1.2.467 1.2 1.067v7.1zm27.233-11.167l5.033 15.267h-3.633l-.6-1.867-.633-.4h-2.934l-.6.4-.633 1.867h-3.567l5.034-15.267h2.533zm-.333 10.133l-.234.234h-1.4l-.233-.234.433-1.966c.334-1.5.5-3.1.5-3.1h.067s.167 1.633.467 3.1l.4 1.966zm-37.434-10.133v15.267h-3.4v-15.267h3.4zm55.3 12.233v3.034h-9.933v-15.267h3.4v11.767l.467.466h6.066zm-89.633-12.233v15.267h-2.9l-4.767-8.334v8.334h-3.3v-15.267h2.967l4.9 8.567v-8.567h3.1zm-57.4 0v11.2c0 2.633-1.934 4.4-4.9 4.4h-1.7c-3.034 0-4.934-1.767-4.934-4.4v-11.2h3.3v11.2c0 .867.6 1.367 1.634 1.367h1.7c1 0 1.566-.534 1.566-1.367v-11.2h3.334zm34.767 15.567h-1.7c-3.034 0-4.967-1.767-4.967-4.4v-7.1c0-2.634 1.967-4.4 4.967-4.4h1.7c2.966 0 4.899 1.766 4.899 4.4v7.1c0 2.633-1.933 4.4-4.899 4.4zm1.2-4.4c0 .6-.434 1.033-1.2 1.033h-1.7c-.867 0-1.3-.4-1.3-1.033v-7.1c0-.534.6-1.067 1.3-1.067h1.7c.7 0 1.2.467 1.2 1.067v7.1zm-25.701-7c-.466-.934-1.166-1.467-2.166-1.467h-.4c-.867 0-1.567.467-1.567 1.5 0 .7.533 1.133 1.067 1.4l.933.367.933.3c2.767.9 4 2.066 4 4.666 0 2.9-1.733 4.634-5 4.634h-.766c-1.6 0-2.867-.534-3.8-1.434l-.934-1.233-.033-.1 2.533-1.733c.5.9 1.2 1.466 2.167 1.466h.767c.9 0 1.566-.566 1.566-1.5 0-.733-.433-1.166-1-1.466l-.933-.367-1.133-.367c-2.567-.9-3.867-1.933-3.867-4.533 0-2.933 1.867-4.667 5.033-4.667h.367c1.5 0 2.733.467 3.6 1.267l1.1 1.4.067.1-2.534 1.767zm-25.333-4.167v15.267H186.7v-8.167l-2.466 6.233-.1.034h-2.367l-.1-.034-2.433-6.266v8.166H176v-15.266h3.467l3.567 8.933 3.4-8.933 3.433.033zm135.134 0v15.267h-2.9l-4.767-8.334v8.334h-3.3v-15.267h2.967l4.9 8.567v-8.567h3.1zm-94.167 12.233v3.034h-9.933v-15.267h9.933v3.033h-6.1l-.434.4v2.2l.467.367h5.033v3.033h-5.033l-.433.367v2.467l.466.333h6.034v.033zm75.333 7.968l5.033 15.267h-3.633l-.6-1.833-.634-.4H303.4l-.6.4-.633 1.866H298.6l5.033-15.266h2.534v-.034zm-.334 10.167l-.233.233h-1.4l-.233-.233.433-1.967c.333-1.5.5-3.1.5-3.1h.067s.166 1.634.466 3.1l.4 1.967zm17.9-1.133l2.334 6.233H322.5l-2.233-5.833-.534-.4h-1.7l-.633.633v5.6H314v-15.267h6.7c3.033 0 4.9 1.767 4.9 4.667v.233c0 1.467-.667 2.567-1.633 3.2l-.234.934zm-2.066-4.1c0 .666-.467 1-1.234 1h-2.666l-.3-.267v-2l.3-.267h2.666c.8 0 1.234.367 1.234 1.067v.467zm-47.7 5.933c0 .533-.534 1.033-1.234 1.033h-2.666l-.3-.266v-7.967l.3-.267h2.666c.667 0 1.234.567 1.234 1.067v6.4zm-7.934-10.867h6.7c3.034 0 4.9 1.767 4.9 4.667v6c0 2.867-1.866 4.6-4.9 4.6h-6.7v-15.267zm-65.066 12.234v3.033h-9.934v-15.267h9.934v3.034h-6.1l-.434.4v2.2l.467.366h5v3.034h-5.033l-.434.366v2.467l.467.333h6.067v.034zm41.133-3.2l2.333 6.233h-3.566l-2.234-5.833-.533-.4h-1.867l-.466.433v5.8h-3.4v-15.267h6.7c3.033 0 4.9 1.767 4.9 4.667v.233c0 1.467-.667 2.567-1.634 3.2l-.233.934zm-1.833-4.1c0 .666-.467 1-1.234 1h-3.066l-.3-.267v-2l.3-.267h3.066c.8 0 1.234.367 1.234 1.067v.467zm13.4 10.533h-1.7c-3.034 0-4.967-1.767-4.967-4.4v-7.1c0-2.633 1.967-4.4 4.967-4.4h1.7c2.966 0 4.9 1.767 4.9 4.4v7.1c0 2.633-1.934 4.4-4.9 4.4zm1.166-4.4c0 .6-.433 1.033-1.2 1.033h-1.7c-.866 0-1.3-.4-1.3-1.033v-7.1c0-.533.6-1.067 1.3-1.067h1.7c.7 0 1.2.467 1.2 1.067v7.1zm-25.566-11.067v3.034H226.2l-.467.333v11.9h-3.366v-11.867l-.467-.366h-3.1v-3.034h10.467zM182.7 136.734H181c-3.033 0-4.967-1.767-4.967-4.4v-7.1c0-2.633 1.967-4.4 4.967-4.4h1.7c2.967 0 4.9 1.767 4.9 4.4v1.033h-3.367v-1.033c0-.833-.666-1.4-1.533-1.4H181c-.833 0-1.633.633-1.633 1.4v7.1c0 .867.633 1.367 1.633 1.367h1.7c.9 0 1.533-.534 1.533-1.367v-1.033h3.367v1.033c0 2.633-1.933 4.4-4.9 4.4zm33-15.467v15.267h-2.9l-4.767-8.333v8.333h-3.3v-15.267h2.967l4.9 8.567v-8.567h3.1zm136.267 12.234v3.033h-9.934v-15.267h9.934v3.034h-6.1l-.434.4v2.2l.467.366h5v3.034h-5.033l-.434.366v2.467l.467.333h6.067v.034zm-60.567 0v3.033h-9.933v-15.267h9.933v3.034h-6.1l-.433.4v2.2l.466.366h4.967v3.034h-5.033l-.434.366v2.467l.467.333h6.1v.034zm47.033-12.234v3.034h-3.066l-.467.333v11.9h-3.367v-11.867l-.466-.366h-3.1v-3.034h10.466z" fill="#000"/></svg>