<svg width="528" height="278" viewBox="0 0 528 278" fill="none" xmlns="http://www.w3.org/2000/svg">
<rect width="528" height="278" fill="#98A92A"/>
<path d="M205.177 120.201C205.009 111.966 201.647 106.924 190.555 106.924C190.555 106.924 184.336 106.756 184.336 106.924L184.168 124.067C176.101 125.243 167.025 127.932 165.345 128.269L165.513 96.6719H187.866C201.983 96.6719 211.227 97.6803 217.614 104.235C220.471 107.092 223.16 111.294 223.664 118.857C217.277 119.193 211.563 119.361 205.177 120.201Z" fill="white"/>
<path d="M204.672 123.396C216.269 122.219 224.168 121.715 224.168 121.715C224.168 128.774 221.311 134.32 217.277 137.681C211.731 142.219 206.185 143.396 191.563 143.396H165.681V131.631C167.697 131.127 176.269 128.438 184.336 127.429C184.336 127.429 184.168 133.48 184.336 133.48H190.387C195.933 133.143 204.504 130.622 204.672 123.396Z" fill="white"/>
<path d="M348.538 128.1C342.823 126.588 337.781 124.907 332.739 123.899L343.159 96.8398H362.319L348.538 128.1Z" fill="white"/>
<path d="M307.866 119.697L297.95 96.6719H318.79L328.874 122.89C321.311 121.378 314.756 120.537 307.866 119.697Z" fill="white"/>
<path d="M330.05 125.916C330.05 125.916 330.891 127.933 331.059 127.597L331.731 126.252C336.941 127.429 341.647 129.277 347.529 130.79L342.487 143.227H318.622L309.378 122.555C316.269 123.395 322.487 124.403 330.05 125.916Z" fill="white"/>
<path d="M277.614 118.016C271.059 117.848 262.488 117.68 255.429 117.68C255.597 117.68 271.899 96.6719 271.899 96.6719H294.756L277.614 118.016Z" fill="white"/>
<path d="M256.605 120.369C257.277 120.369 271.059 120.369 278.958 121.041L297.277 143.226H273.244L256.605 120.369Z" fill="white"/>
<path d="M252.74 120.369V142.89H233.748V121.209C239.967 120.873 246.017 120.537 252.74 120.369Z" fill="white"/>
<path d="M252.739 117.512C245.849 117.68 239.798 117.68 233.58 118.185V96.3359H252.739V117.512Z" fill="white"/>
<path d="M175.933 157.681C176.101 157.345 176.269 156.841 176.101 156.841C175.092 156.001 173.244 155.497 171.731 155.497C168.874 155.497 166.353 157.345 166.353 160.707C166.353 166.253 174.588 165.244 174.588 169.782C174.588 171.631 172.907 172.808 170.891 172.808C169.714 172.808 168.202 172.303 167.025 171.463C166.857 171.295 166.521 171.463 166.353 171.967L166.185 172.303C165.849 172.808 165.849 173.144 166.017 173.312C167.193 174.152 169.042 174.824 171.227 174.824C175.092 174.824 177.109 172.639 177.109 169.446C177.109 163.564 168.874 164.236 168.874 160.371C168.874 159.026 169.882 157.681 172.067 157.681C173.412 157.681 174.42 158.018 175.26 158.522C175.428 158.69 175.765 158.522 175.933 158.018V157.681ZM189.546 160.707C188.706 160.707 188.706 160.707 188.538 161.043L188.37 162.219C187.697 161.211 186.353 160.539 184.84 160.539C181.479 160.539 178.958 163.396 178.958 167.934C178.958 171.631 180.638 174.824 184.504 174.824C186.185 174.824 187.697 174.152 188.37 172.976L188.538 174.152C188.538 174.32 188.706 174.488 189.546 174.488H189.714C190.554 174.488 190.723 174.32 190.723 174.152C190.554 172.808 190.554 171.127 190.554 168.606V164.908C190.554 163.228 190.554 161.547 190.554 161.043C190.554 160.875 190.554 160.707 189.546 160.707ZM188.202 168.102C188.202 170.287 188.033 171.127 187.529 171.631C186.857 172.303 185.849 172.639 185.008 172.639C182.319 172.639 181.479 170.118 181.479 167.765C181.479 164.74 182.823 162.723 185.176 162.723C186.353 162.723 187.529 163.564 188.202 164.404C188.202 164.404 188.202 168.102 188.202 168.102ZM195.26 154.656C194.42 154.656 194.084 154.824 194.084 154.992C194.252 156.001 194.252 159.362 194.252 162.051V170.791C194.252 172.135 194.42 172.976 194.756 173.48C195.26 174.152 195.933 174.32 196.605 174.32C196.941 174.32 197.445 174.152 197.781 174.152C197.949 174.152 197.949 173.984 197.949 173.312V173.312C197.949 172.808 197.949 172.639 197.781 172.639H197.613C196.773 172.639 196.605 172.303 196.605 171.295V162.723C196.605 158.858 196.605 155.833 196.437 154.992C196.437 154.824 196.269 154.656 195.26 154.656C195.26 154.656 195.428 154.656 195.26 154.656ZM201.815 160.707C200.807 160.707 200.807 160.875 200.807 161.043V168.942C200.807 170.959 201.143 172.471 202.151 173.312C202.991 174.152 204.168 174.656 205.512 174.656C207.361 174.656 208.874 173.984 209.714 172.976V174.152C209.714 174.32 209.882 174.488 210.723 174.488H210.891C211.899 174.488 211.899 174.32 211.899 174.152C211.899 173.48 211.899 171.631 211.899 169.95V161.043C211.899 160.875 211.731 160.707 210.891 160.707H210.723C209.882 160.707 209.714 160.875 209.714 161.043V167.429C209.714 170.286 209.378 171.127 208.874 171.631C208.202 172.303 207.025 172.639 206.017 172.639C205.008 172.639 204.168 172.303 203.664 171.799C203.16 171.127 202.991 170.118 202.991 167.934V161.043C202.991 160.875 202.823 160.707 201.983 160.707H201.815ZM225.344 154.656C224.504 154.656 224.336 154.824 224.336 154.992V161.211C223.664 160.707 222.487 160.371 221.479 160.371C217.277 160.371 215.26 163.9 215.26 167.765C215.26 171.967 217.277 174.656 220.807 174.656C222.655 174.656 224 173.816 224.672 172.976C225.008 173.984 225.681 174.488 226.521 174.488C227.025 174.488 227.361 174.488 227.697 174.32C227.865 174.32 227.865 174.152 227.865 173.48V173.312C227.865 172.808 227.697 172.639 227.697 172.639C227.025 172.639 226.857 172.471 226.857 171.295V155.16C226.521 154.824 226.353 154.656 225.344 154.656ZM224.336 168.102C224.336 170.287 224.168 171.127 223.664 171.799C222.991 172.471 222.151 172.639 221.311 172.639C219.294 172.639 217.781 170.959 217.781 167.765C217.781 164.572 219.294 162.555 221.815 162.555C222.823 162.555 224 162.892 224.504 163.564V168.102H224.336ZM238.286 161.043C238.286 160.875 237.949 160.707 236.941 160.707C235.933 160.707 235.596 160.707 235.765 161.043L240.807 174.488C239.798 177.345 238.79 178.354 237.109 178.354C236.605 178.354 236.101 178.186 235.765 178.186C235.428 178.018 235.428 178.186 235.26 178.858L235.092 179.194C234.924 179.698 234.924 179.866 235.26 180.034C235.765 180.371 236.605 180.539 237.277 180.539C238.79 180.539 239.966 180.034 241.143 179.026C241.983 178.186 242.655 176.841 243.328 174.824L248.202 161.211C248.37 160.875 248.033 160.875 247.025 160.875C246.185 160.875 246.017 160.875 245.849 161.211L243.496 167.934C242.991 169.446 242.487 170.959 242.151 172.135C241.815 170.791 241.479 169.614 240.807 167.765L238.286 161.043ZM258.958 169.11C258.958 167.597 258.958 166.253 259.126 165.581C259.294 164.404 259.462 164.068 259.798 163.732C260.47 163.06 261.311 162.723 262.319 162.723C264.504 162.723 265.512 164.404 265.512 167.429C265.512 170.455 264 172.639 261.143 172.639C260.47 172.639 259.63 172.471 258.958 172.135V169.11ZM257.613 154.656C256.605 154.656 256.437 154.824 256.437 154.992V173.48C256.437 173.648 256.437 173.648 256.605 173.816C257.781 174.32 259.294 174.656 261.311 174.656C265.681 174.656 267.865 171.799 267.865 167.261C267.865 165.749 267.529 164.404 267.025 163.396C266.185 161.547 264.672 160.539 262.655 160.539C261.143 160.539 259.63 161.211 258.79 162.051V154.992C258.958 154.824 258.79 154.656 257.613 154.656ZM272.067 160.707C271.059 160.707 271.059 160.875 271.059 161.043V174.152C271.059 174.32 271.059 174.488 272.067 174.488H272.235C273.244 174.488 273.244 174.32 273.244 174.152V161.043C273.244 160.875 273.244 160.707 272.067 160.707C272.067 160.707 272.235 160.707 272.067 160.707ZM270.554 156.505C270.554 157.345 271.227 158.186 272.235 158.186C273.075 158.186 273.916 157.513 273.916 156.505C273.916 155.497 273.244 154.824 272.235 154.824C271.227 154.992 270.554 155.665 270.554 156.505ZM287.865 168.438C288.033 168.438 288.033 168.27 288.033 167.429C288.033 165.917 287.865 164.404 287.193 163.228C286.353 161.547 284.84 160.371 282.487 160.371C278.622 160.371 276.269 163.396 276.269 167.765C276.269 171.967 278.454 174.656 282.487 174.656C284.168 174.656 285.849 174.32 287.193 173.48C287.361 173.312 287.361 173.144 287.193 172.471L287.025 172.135C286.857 171.463 286.689 171.463 286.353 171.631C285.176 172.135 284 172.471 282.991 172.471C281.647 172.471 280.639 172.135 279.966 171.463C279.126 170.791 278.79 169.614 278.622 168.27L287.865 168.438ZM278.79 166.589C279.126 163.9 280.639 162.723 282.487 162.723C284.672 162.723 285.681 164.74 285.681 166.589H278.79ZM292.067 160.707C291.059 160.707 291.059 160.875 291.059 161.043C291.059 161.715 291.059 163.564 291.059 165.244V174.152C291.059 174.32 291.227 174.488 292.067 174.488H292.235C293.244 174.488 293.244 174.32 293.244 174.152V169.11C293.244 167.597 293.244 166.253 293.412 165.581C293.58 164.404 293.748 164.068 294.084 163.732C294.756 163.06 295.933 162.723 296.773 162.723C297.949 162.723 298.79 163.06 299.126 163.564C299.798 164.236 299.798 165.244 299.798 167.429V174.152C299.798 174.32 299.966 174.488 300.807 174.488H300.975C301.983 174.488 301.983 174.32 301.983 174.152V166.253C301.983 164.236 301.647 162.723 300.639 161.883C299.798 161.043 298.622 160.539 297.109 160.539C295.596 160.539 293.916 161.211 292.907 162.219V161.043C293.244 160.875 293.244 160.707 292.067 160.707ZM316.773 168.438C316.941 168.438 316.941 168.27 316.941 167.429C316.941 165.917 316.773 164.404 316.101 163.228C315.26 161.547 313.748 160.371 311.395 160.371C307.529 160.371 305.176 163.396 305.176 167.765C305.176 171.967 307.361 174.656 311.395 174.656C313.075 174.656 314.756 174.32 316.101 173.48C316.269 173.312 316.269 173.144 316.101 172.471L315.933 172.135C315.765 171.463 315.596 171.463 315.26 171.631C314.084 172.135 312.907 172.471 311.899 172.471C310.554 172.471 309.546 172.135 308.874 171.463C308.033 170.791 307.697 169.614 307.529 168.27L316.773 168.438ZM307.865 166.589C308.202 163.9 309.714 162.723 311.563 162.723C313.748 162.723 314.756 164.74 314.756 166.589H307.865ZM328.202 162.892C328.538 162.387 328.538 162.051 328.37 161.883C327.361 161.043 326.017 160.539 324.336 160.539C321.815 160.539 319.63 162.051 319.63 164.572C319.63 165.581 319.966 166.421 320.639 167.093C321.311 167.765 322.319 168.102 323.664 168.438C325.008 168.774 326.689 169.11 326.689 170.623C326.689 172.135 325.008 172.639 323.832 172.639C322.655 172.639 321.479 172.135 320.47 171.631C320.134 171.463 319.966 171.463 319.63 172.135L319.462 172.471C319.126 172.976 319.126 173.144 319.294 173.48C320.302 174.152 321.815 174.824 323.496 174.824C326.353 174.824 328.706 173.312 328.706 170.623C328.706 167.934 326.521 167.093 324.336 166.589C323.16 166.253 321.647 165.917 321.647 164.572C321.647 163.228 323.16 162.723 324.168 162.723C325.344 162.723 326.185 163.228 327.193 163.9C327.361 164.068 327.529 164.068 328.033 163.396L328.202 162.892ZM333.412 156.841C332.403 156.841 332.403 157.009 332.403 157.177V160.707H330.723C330.554 160.707 330.554 160.875 330.554 161.547V161.715C330.554 162.387 330.554 162.555 330.723 162.555H332.403V170.455C332.403 172.135 332.571 173.144 333.412 173.816C333.916 174.32 334.756 174.656 335.933 174.656C336.941 174.656 337.949 174.488 338.622 173.984C338.79 173.816 338.79 173.648 338.79 173.144L338.622 172.808C338.454 172.303 338.454 172.303 338.118 172.303C337.613 172.471 336.941 172.639 336.437 172.639C335.765 172.639 335.428 172.471 335.092 172.135C334.756 171.799 334.756 171.127 334.756 170.118V162.387H337.949C338.117 162.387 338.118 162.219 338.118 161.547C338.118 160.875 338.117 160.707 337.949 160.707H334.756V157.177C334.588 157.009 334.588 156.841 333.412 156.841ZM350.723 160.707C349.882 160.707 349.882 160.707 349.714 161.043L349.546 162.051C348.874 161.043 347.697 160.371 346.017 160.371C342.655 160.371 340.134 163.228 340.134 167.765C340.134 171.463 341.815 174.656 345.681 174.656C347.361 174.656 348.874 173.984 349.714 172.808L349.882 173.984C349.882 174.152 350.05 174.32 350.891 174.32H351.059C351.899 174.32 352.067 174.152 352.067 173.984C351.899 172.639 351.899 170.959 351.899 168.438V164.74C351.899 163.06 351.899 161.379 351.899 160.875C351.899 160.875 351.731 160.707 350.723 160.707C350.723 160.707 350.891 160.707 350.723 160.707ZM349.546 168.102C349.546 170.287 349.378 171.127 348.874 171.631C348.202 172.303 347.193 172.639 346.353 172.639C343.664 172.639 342.823 170.118 342.823 167.765C342.823 164.74 344.168 162.723 346.521 162.723C347.697 162.723 348.874 163.564 349.546 164.404V168.102ZM356.773 160.707C355.765 160.707 355.765 160.875 355.765 161.043C355.765 161.715 355.765 163.564 355.765 165.244V174.152C355.765 174.32 355.933 174.488 356.941 174.488H357.109C358.117 174.488 358.118 174.32 358.118 174.152V171.127C358.118 169.614 358.118 168.102 358.118 167.261C358.118 166.421 358.286 165.581 358.79 165.076C359.462 163.9 360.47 162.723 362.319 162.723C362.487 162.723 362.655 162.555 362.655 161.715V161.379C362.655 160.875 362.655 160.707 362.487 160.707C362.319 160.707 362.151 160.707 361.983 160.707C360.639 160.707 359.294 161.715 358.286 163.9V161.211C357.949 160.875 357.781 160.707 356.773 160.707C356.773 160.707 356.941 160.707 356.773 160.707Z" fill="white"/>
</svg>
