<svg width="528" height="278" fill="none" xmlns="http://www.w3.org/2000/svg"><path fill="#222" d="M0 0h528v278H0z"/><path d="M253.279 144.283c0-2.004-.802-3.206-3.107-3.206h-2.004l-.1.1v6.313l.1.1h2.004c2.305-.1 3.107-1.303 3.107-3.307zm-1.303 0c0 1.503-.501 2.104-1.804 2.104h-.801l-.1-.1v-4.108l.1-.1h.801c1.403 0 1.804.701 1.804 2.204zm7.715 3.106v-.901l-.1-.101h-3.106l-.1-.1v-1.503l.1-.1h2.906l.1-.1v-.902l-.1-.1h-2.906l-.1-.1v-1.303l.1-.1h3.106l.1-.1v-.902l-.1-.1h-4.308l-.101.1v6.312l.101.101 4.408-.101zm10.321-1.603c0-.801-.401-1.403-1.102-1.603v-.1c.601-.201.902-.702.902-1.403 0-1.202-.902-1.703-1.804-1.703h-3.006l-.1.1v6.312l.1.101h3.106c.902 0 1.904-.501 1.904-1.704zm-1.503-2.906c0 .401-.2.702-.701.702h-1.503l-.101-.1v-1.303l.101-.1h1.503c.501 0 .701.3.701.801zm.2 2.706c0 .601-.3.801-.901.801h-1.503l-.101-.1v-1.503l.101-.1h1.503c.601 0 .901.301.901.902zm8.117 1.803v-.901l-2.105-5.411-.1-.1h-1.202l-.1.1-2.105 5.411v.901l.101.101h.801l.1-.101.501-1.202.201-.1h2.304l.201.1.501 1.202.1.101.802-.101zm-2.004-2.505l-1.704.101-.1-.101.802-2.204h.1l.902 2.204zm9.018-1.903c0-1.303-.902-1.904-2.205-1.904h-3.006l-.1.1v6.313l.1.1h1.102l.101-.1v-2.405l.1-.1h.902l.2.1 1.904 2.405h.701l.1-.101v-.901l-1.202-1.604v-.1c.701-.2 1.303-.801 1.303-1.803zm-1.303 0c0 .601-.401.801-.902.801h-1.803l-.101-.1v-1.503l.101-.1h1.803c.501 0 .902.2.902.902zm5.912 3.507c-1.303 0-1.904-.902-1.904-2.205 0-1.302.601-2.204 1.904-2.204.701 0 1.202.3 1.403.801l.1.101h1.102l.1-.101c-.2-1.202-1.202-1.903-2.705-1.903-2.004 0-3.106 1.402-3.106 3.306 0 1.904 1.102 3.307 3.106 3.307 1.503 0 2.505-.702 2.705-2.004l-.1-.1h-1.102l-.1.1c-.201.601-.602.902-1.403.902zm9.118.901v-.901l-.1-.101h-3.106l-.1-.1v-1.503l.1-.1h2.906l.1-.1v-.902l-.1-.1h-2.906l-.1-.1v-1.303l.1-.1h3.106l.1-.1v-.902l-.1-.1h-4.409l-.1.1v6.312l.1.101 4.509-.101zm6.413 0v-.901l-.1-.101h-2.906l-.1-.1v-5.21l-.1-.1h-1.103l-.1.1v6.312l.1.101 4.309-.101zm6.012-3.106c0 1.303-.601 2.205-1.904 2.205-1.202 0-1.803-.902-1.803-2.205 0-1.302.601-2.204 1.803-2.204 1.203 0 1.904.902 1.904 2.204zm1.303 0c0-1.904-1.203-3.306-3.207-3.306-1.904 0-3.106 1.402-3.106 3.306 0 1.904 1.202 3.307 3.106 3.307 2.004 0 3.207-1.403 3.207-3.307zm1.803-3.206v6.312l.1.101h1.103l.1-.101v-4.308h.1l2.505 4.308.2.101h1.303l.1-.101v-6.312l-.1-.1h-1.102l-.1.1v4.308h-.101l-2.505-4.308-.2-.1h-1.303l-.1.1zm12.826 6.312v-.901l-2.104-5.411-.101-.1h-1.202l-.1.1-2.104 5.411v.901l.1.101h.801l.101-.101.501-1.202.2-.1h2.305l.2.1.501 1.202.1.101.802-.101zm-2.004-2.505l-1.704.101-.1-.101.802-2.204h.1l.902 2.204zm-70.641-11.423c0-2.004-.802-3.207-3.107-3.207h-2.004l-.1.101v6.312l.1.101h2.004c2.305-.101 3.107-1.303 3.107-3.307zm-1.303 0c0 1.503-.501 2.104-1.804 2.104h-.801l-.1-.1v-4.108l.1-.101h.801c1.403 0 1.804.702 1.804 2.205zm4.509-1.904v-1.303l-.1-.1h-1.303l-.1.1v1.203l.1.1h.301l.1.1v.101l-.601.901v.201h.601l.2-.1.702-.902.1-.301zm6.513 5.01v-.902l-2.104-5.411-.1-.1h-1.203l-.1.1-2.104 5.411v.902l.1.1h.802l.1-.1.501-1.202.2-.1h2.305l.2.1.501 1.202.1.1.802-.1zm-1.904-2.505l-1.703.1-.1-.1.801-2.204h.1l.902 2.204zm9.018-1.904c0-1.302-.902-1.904-2.204-1.904h-3.106l-.101.101v6.312l.101.101h1.102l.1-.101v-2.404l.1-.101h.902l.2.101 1.904 2.404.201.101h.601l.1-.101v-.901l-1.202-1.604v-.1c.601-.3 1.302-.902 1.302-1.904zm-1.302 0c0 .602-.401.802-.902.802h-1.804l-.1-.1v-1.503l.1-.101h1.804c.501 0 .902.201.902.902zm7.815-1.002v-.902l-.1-.1h-5.21l-.101.1v.902l.101.1h1.903l.101.101v5.21l.1.1h1.102l.1-.1v-5.21l.1-.101 1.904-.1zm7.415 4.509c-1.303 0-1.804-.901-1.804-2.204 0-1.303.602-2.205 1.804-2.205.701 0 1.202.301 1.403.802l.1.1h1.102l.1-.1c-.2-1.202-1.202-1.904-2.705-1.904-2.004 0-3.106 1.403-3.106 3.307s1.102 3.307 3.106 3.307c1.503 0 2.505-.702 2.705-2.004l-.1-.101h-1.102l-.1.101c-.201.601-.702.901-1.403.901zm9.219-2.204c0 1.303-.602 2.204-1.904 2.204-1.203 0-1.904-.901-1.904-2.204 0-1.303.601-2.205 1.904-2.205 1.202-.1 1.904.902 1.904 2.205zm1.202 0c0-1.904-1.202-3.307-3.207-3.307-1.903 0-3.106 1.403-3.106 3.307s1.203 3.307 3.106 3.307c2.105 0 3.207-1.403 3.207-3.307zm1.904-3.207v6.313l.1.1h1.102l.1-.1v-4.308h.101l2.505 4.308.2.1h1.303l.1-.1v-6.313l-.1-.1h-1.103l-.1.1v4.309h-.1l-2.505-4.309-.2-.1h-1.303l-.1.1zm12.525.902v-.902l-.1-.1h-5.211l-.1.1v.902l.1.1h1.904l.1.101v5.21l.1.1h1.103l.1-.1v-5.21l.1-.101 1.904-.1zm6.112 5.411v-.902l-.1-.1h-3.006l-.1-.1v-1.503l.1-.1h2.906l.1-.1v-.902l-.1-.1h-2.906l-.1-.101v-1.202l.1-.1h3.106l.1-.101v-.901l-.1-.101h-4.309l-.1.101v6.312l.1.101 4.309-.201zm9.018 0v-6.313l-.1-.1h-1.403l-.1.1-1.904 4.51h-.1l-1.904-4.51-.1-.1h-1.303l-.1.1v6.313l.1.1h1.102l.101-.1v-3.607h.1l1.503 3.607.1.1h1.002l.1-.1 1.503-3.607h.1v3.607l.101.1h1.102l.1-.1zm7.615-4.409c0-1.302-.902-1.904-2.204-1.904h-3.106l-.101.101v6.312l.101.101h1.102l.1-.101v-2.404l.1-.101h1.804c1.302-.1 2.204-.701 2.204-2.004zm-1.302 0c0 .602-.401.802-.902.802h-1.804l-.1-.1v-1.503l.1-.101h1.804c.501 0 .902.201.902.902zm7.615 1.303c0 1.303-.601 2.204-1.804 2.204-1.202 0-1.904-.901-1.904-2.204 0-1.303.602-2.205 1.904-2.205 1.102-.1 1.804.902 1.804 2.205zm1.302 0c0-1.904-1.202-3.307-3.106-3.307s-3.206 1.403-3.206 3.307 1.202 3.307 3.206 3.307c1.904 0 3.106-1.403 3.106-3.307zm7.215-1.303c0-1.302-.902-1.904-2.204-1.904h-3.107l-.1.101v6.312l.1.101h1.103l.1-.101v-2.404l.1-.101h.902l.2.101 1.904 2.404.2.101h.602l.1-.101v-.901l-1.203-1.604v-.1c.602-.3 1.303-.902 1.303-1.904zm-1.303 0c0 .602-.4.802-.901.802h-1.804l-.1-.1v-1.503l.1-.101h1.804c.501 0 .901.201.901.902zm8.217 4.409v-.902l-2.104-5.411-.101-.1h-1.202l-.1.1-2.104 5.411v.902l.1.1h.801l.101-.1.501-1.202.2-.1h2.305l.2.1.501 1.202.1.1.802-.1zm-1.904-2.505l-1.703.1-.101-.1.802-2.204h.1l.902 2.204zm3.607-3.808v6.313l.1.1h1.103l.1-.1v-4.308h.1l2.505 4.308.2.1h1.303l.1-.1v-6.313l-.1-.1h-1.102l-.1.1v4.309h-.101l-2.505-4.309-.2-.1-1.403.1zm8.918 6.313v-6.313l-.1-.1h-1.102l-.101.1v6.313l.101.1 1.202-.1zm-109.018-10.82v-6.312l-.1-.1h-1.403l-.1.1-1.904 4.509h-.1l-1.804-4.509-.1-.1h-1.403l-.1.1v6.312l.1.101h1.102l.101-.101v-3.607h.1l1.603 3.607.1.101h1.002l.1-.101 1.503-3.607h.101v3.607l.1.101 1.102-.101zm7.415-6.312l-1.203-.1-.1.1v3.908c0 .901-.401 1.503-1.302 1.503-.902 0-1.303-.602-1.303-1.503v-3.908l-.1-.1h-1.102l-.101.1v3.908c0 1.703.902 2.605 2.606 2.605 1.703 0 2.605-.902 2.605-2.605v-3.908zm7.214 4.509c0-1.303-1.002-1.804-2.304-2.004-1.303-.201-1.704-.401-1.704-.902 0-.401.301-.601 1.102-.601 1.002 0 1.303.3 1.303.801l.1.101h1.102l.101-.101c0-1.102-.702-1.903-2.505-1.903-1.804 0-2.505.801-2.505 1.803 0 1.303 1.002 1.804 2.304 1.904 1.303.2 1.704.401 1.704 1.002s-.501.802-1.303.802c-1.102 0-1.503-.401-1.503-1.002l-.1-.101h-1.102l-.101.101c0 1.202.802 2.104 2.706 2.104 2.004-.1 2.705-1.002 2.705-2.004zm6.313 1.803v-.901l-.1-.101h-3.107l-.1-.1v-1.503l.1-.1h2.906l.1-.1v-.902l-.1-.1h-2.906l-.1-.1v-1.403l.1-.1h3.107l.1-.101v-.901l-.1-.101h-4.309l-.1.101v6.412l.1.101 4.409-.101zm7.314-6.312l-1.202-.1-.1.1v3.908c0 .901-.401 1.503-1.303 1.503-.902 0-1.302-.602-1.302-1.503v-3.908l-.101-.1h-1.102l-.1.1v3.908c0 1.703.902 2.605 2.605 2.605 1.704 0 2.605-.902 2.605-2.605v-3.908zm-55.41 32.463h4.308l.301-.301-2.305-6.112h-.3l-2.305 6.112.301.301zm5.31 3.006h-6.312l-.501.3-1.303 3.307-.301.2h-2.304l-.301-.2v-2.505l5.812-14.629.3-.201h3.307l.301.201 5.611 14.028v-52.104l-.301-.301H164.2l-.2.1v71.643l.2.301h72.946l.301-.301v-16.032h-2.305l-.3-.2-1.303-3.307-.401-.3zm-26.753-13.627l.3-.201h8.117c2.505 0 5.01 1.303 5.01 4.509 0 1.804-.802 3.307-2.505 3.808v.2c2.004.501 3.006 2.004 3.006 4.309 0 3.507-2.505 4.809-5.01 4.809h-8.618l-.3-.2v-17.234zm-12.826-4.509l-.3.3h-3.007l-.2-.3v-9.82h-.301l-4.008 9.82-.3.3h-2.806l-.3-.3-4.008-9.82h-.301v9.82l-.2.2h-3.006l-.301-.301v-17.134l.301-.2h3.807l.301.2 5.01 12.325h.3l5.111-12.325.2-.2h3.808l.3.2-.1 17.235zm18.136 0l-.3.3h-2.305l-.2-.3-1.303-3.307-.501-.2h-6.312l-.501.2-1.303 3.307-.2.3h-2.305l-.301-.3v-2.505l5.812-14.63.301-.2h3.306l.301.2 5.811 14.63v2.505zm10.121.501c-5.612 0-8.618-3.808-8.618-9.119 0-5.31 3.006-9.118 8.618-9.118 4.008 0 6.813 2.004 7.314 5.311l-.2.3h-3.006l-.201-.3c-.501-1.503-1.803-2.305-3.807-2.305-3.507 0-5.01 2.505-5.01 6.112 0 3.608 1.503 6.113 5.01 6.113 2.004 0 3.306-.802 3.807-2.505l.201-.301h3.006l.2.301c-.501 3.507-3.306 5.511-7.314 5.511zm-15.732-7.115l.301-.2-2.305-6.112h-.2l-2.305 6.112.301.2h4.208zm4.108 13.928l-.3.201v3.507l.3.3h4.109c1.503 0 2.004-1.002 2.004-2.004 0-1.302-.501-2.004-2.004-2.004h-4.109zm0 7.014l-.3.301v4.008l.3.2h4.109c1.803 0 2.505-.801 2.505-2.304 0-1.503-.802-2.305-2.505-2.305h-4.109v.1z" fill="#fff"/></svg>