<svg width="48" height="48" viewBox="0 0 48 48" fill="none" xmlns="http://www.w3.org/2000/svg">
<path fill-rule="evenodd" clip-rule="evenodd" d="M24 10.9091C16.7701 10.9091 10.9091 16.7701 10.9091 24C10.9091 31.2299 16.7701 37.0909 24 37.0909C31.2299 37.0909 37.0909 31.2299 37.0909 24C37.0909 16.7701 31.2299 10.9091 24 10.9091ZM8 24C8 15.1634 15.1634 8 24 8C32.8366 8 40 15.1634 40 24C40 32.8366 32.8366 40 24 40C15.1634 40 8 32.8366 8 24Z" fill="#E73F39"/>
<path fill-rule="evenodd" clip-rule="evenodd" d="M19.3409 26.0303C18.8577 25.3929 17.9497 25.265 17.3091 25.7455C16.6664 26.2274 16.5362 27.1392 17.0182 27.7818L18.1818 26.9091C17.0182 27.7818 17.0178 27.7813 17.0182 27.7818L17.0197 27.7838L17.0213 27.786L17.0253 27.7913L17.0358 27.805L17.0668 27.8446C17.0919 27.8763 17.1258 27.9183 17.1685 27.9692C17.2538 28.0708 17.3745 28.2085 17.5294 28.37C17.8379 28.6919 18.2886 29.1159 18.8718 29.54C20.0324 30.3841 21.781 31.2727 24 31.2727C26.219 31.2727 27.9676 30.3841 29.1282 29.54C29.7114 29.1159 30.1621 28.6919 30.4706 28.37C30.6255 28.2085 30.7462 28.0708 30.8315 27.9692C30.8742 27.9183 30.9081 27.8763 30.9332 27.8446L30.9642 27.805L30.9747 27.7913L30.9787 27.786L30.9804 27.7838C30.9807 27.7833 30.9818 27.7818 29.8182 26.9091L30.9818 27.7818C31.4638 27.1392 31.3336 26.2274 30.6909 25.7455C30.0503 25.265 29.1423 25.3929 28.6591 26.0303L28.6524 26.0389C28.6437 26.0499 28.6272 26.0703 28.6032 26.099C28.555 26.1565 28.4768 26.2461 28.3703 26.3572C28.156 26.5808 27.8341 26.8841 27.4172 27.1873C26.5778 27.7977 25.4174 28.3636 24 28.3636C22.5826 28.3636 21.4222 27.7977 20.5828 27.1873C20.1659 26.8841 19.844 26.5808 19.6297 26.3572C19.5232 26.2461 19.445 26.1565 19.3968 26.099C19.3728 26.0703 19.3563 26.0499 19.3476 26.0389L19.3409 26.0303Z" fill="#E73F39"/>
<path fill-rule="evenodd" clip-rule="evenodd" d="M18.1818 19.6364C18.1818 18.833 18.833 18.1818 19.6364 18.1818H19.6509C20.4542 18.1818 21.1055 18.833 21.1055 19.6364C21.1055 20.4397 20.4542 21.0909 19.6509 21.0909H19.6364C18.833 21.0909 18.1818 20.4397 18.1818 19.6364Z" fill="#E73F39"/>
<path fill-rule="evenodd" clip-rule="evenodd" d="M26.9091 19.6364C26.9091 18.833 27.5603 18.1818 28.3636 18.1818H28.3782C29.1815 18.1818 29.8327 18.833 29.8327 19.6364C29.8327 20.4397 29.1815 21.0909 28.3782 21.0909H28.3636C27.5603 21.0909 26.9091 20.4397 26.9091 19.6364Z" fill="#E73F39"/>
</svg>
