<?xml version="1.0" encoding="UTF-8" standalone="no"?>
<svg/>
  <path
     id="path863"
     d="M 4.5699139,0 C 7.0757826,0 7.2217344,4.8782082 8.0012331,5.1792538 8.694141,4.9724501 10.051093,4.735348 10.771594,4.735348 c 3.322037,0 5.528559,1.7756234 7.632879,4.0058979 l 0.0099,0.00908 c 0.304654,0.4110124 0.560456,0.7842384 0.767403,1.1196781 0.552828,0.896074 1.247333,3.157363 0.473947,4.942646 -0.443514,1.023807 -1.373753,1.988182 -2.20675,2.714451 l 0.108815,-0.06557 c -3.93144,2.41823 -9.8301428,3.146094 -14.38569,2.022414 -0.7054336,-0.01039 -2.26334186,-1.072597 -2.55252242,-1.69248 -0.79166136,-1.69653 -0.69472324,-3.33722 -0.4209729,-5.19176 C 0.49724194,10.576585 0.90623371,8.5453637 1.2663933,6.5305244 1.5405067,4.9972876 2.5806855,0 4.5699139,0 Z m 8.5748101,9.4385859 c -1.403339,0 -8.8076285,6.0463911 -1.212575,6.0463911 6.053783,0 2.608553,-6.0463911 1.212575,-6.0463911 z" />
</svg>
