<svg xmlns="http://www.w3.org/2000/svg" width="20" height="20" viewBox="0 0 20 20">
  <defs>
    <filter id="blog-a">
      <feColorMatrix in="SourceGraphic" values="0 0 0 0 1.000000 0 0 0 0 1.000000 0 0 0 0 1.000000 0 0 0 1.000000 0"/>
    </filter>
  </defs>
  <g fill="none" fill-rule="evenodd" filter="url(#blog-a)" transform="translate(-6 -6)">
    <path fill="#DE4743" fill-rule="nonzero" d="M4.56991391,0 C7.07578256,0 7.22173436,4.87820817 8.00123307,5.17925383 C8.69414095,4.97245008 10.0510932,4.73534798 10.7715939,4.73534798 C14.0936308,4.73534798 16.3001531,6.51097138 18.4044728,8.74124593 L18.414392,8.75032725 C18.7190465,9.16133968 18.9748476,9.53456574 19.1817953,9.87000539 C19.7346234,10.7660793 20.4291276,13.0273675 19.6557422,14.8126508 C19.2122285,15.8364582 18.2819886,16.8008331 17.4489915,17.5271023 L17.5578073,17.4615297 C13.6263672,19.8797596 7.72766424,20.6076243 3.17211695,19.4839436 C2.46668337,19.4735506 0.908775137,18.4113473 0.619594577,17.7914645 C-0.172066777,16.0949338 -0.0751286632,14.4542437 0.198621683,12.5997037 C0.497241941,10.5765852 0.906233705,8.54536368 1.26639335,6.53052435 C1.54050673,4.99728765 2.58068548,0 4.56991391,0 Z M13.1447242,9.43858593 C11.7413846,9.43858593 4.33709549,15.4849766 11.9321486,15.4849766 C17.9859318,15.4849766 14.5407017,9.43858593 13.1447242,9.43858593 Z" transform="translate(6 6)"/>
  </g>
</svg>
