<svg xmlns="http://www.w3.org/2000/svg" width="48" height="48" viewBox="0 0 48 48">
  <g fill="#E73F39" fill-rule="evenodd">
    <path d="M44.001,4.5 L37.5,4.5 L37.5,1.5 C37.5,0.6705 36.8295,0 36,0 C35.1705,0 34.5,0.6705 34.5,1.5 L34.5,4.5 L25.5,4.5 L25.5,1.5 C25.5,0.6705 24.828,0 24,0 C23.172,0 22.5,0.6705 22.5,1.5 L22.5,4.5 L13.5,4.5 L13.5,1.5 C13.5,0.6705 12.828,0 12,0 C11.172,0 10.5,0.6705 10.5,1.5 L10.5,4.5 L4.0005,4.5 C1.791,4.5 0,6.2895 0,8.499 L0,43.9995 C0,46.209 1.791,48 4.0005,48 L44.001,48 C46.2105,48 48,46.209 48,43.9995 L48,8.499 C48,6.2895 46.2105,4.5 44.001,4.5 Z M45,43.9995 C45,44.5515 44.5515,45 44.001,45 L4.0005,45 C3.4485,45 3,44.5515 3,43.9995 L3,8.499 C3,7.9485 3.4485,7.5 4.0005,7.5 L10.5,7.5 L10.5,10.5 C10.5,11.3295 11.172,12 12,12 C12.828,12 13.5,11.3295 13.5,10.5 L13.5,7.5 L22.5,7.5 L22.5,10.5 C22.5,11.3295 23.172,12 24,12 C24.828,12 25.5,11.3295 25.5,10.5 L25.5,7.5 L34.5,7.5 L34.5,10.5 C34.5,11.3295 35.1705,12 36,12 C36.8295,12 37.5,11.3295 37.5,10.5 L37.5,7.5 L44.001,7.5 C44.5515,7.5 45,7.9485 45,8.499 L45,43.9995 Z"/>
    <rect width="6" height="4.5" x="10.5" y="18"/>
    <rect width="6" height="4.5" x="10.5" y="25.5"/>
    <rect width="6" height="4.5" x="10.5" y="33"/>
    <rect width="6" height="4.5" x="21" y="33"/>
    <rect width="6" height="4.5" x="21" y="25.5"/>
    <rect width="6" height="4.5" x="21" y="18"/>
    <rect width="6" height="4.5" x="31.5" y="33"/>
    <rect width="6" height="4.5" x="31.5" y="25.5"/>
    <rect width="6" height="4.5" x="31.5" y="18"/>
  </g>
</svg>
