<svg width="24" height="24" viewBox="0 0 24 24" fill="" xmlns="http://www.w3.org/2000/svg">
<path fill-rule="evenodd" clip-rule="evenodd" d="M16.4 1.7C16.4 1.3134 16.0866 1 15.7 1C15.3134 1 15 1.3134 15 1.7V3H8.4V1.7C8.4 1.3134 8.0866 1 7.7 1C7.3134 1 7 1.3134 7 1.7V3H4.7C3.20883 3 2 4.20883 2 5.7V9.7V19.7C2 21.1912 3.20883 22.4 4.7 22.4H18.7C20.1912 22.4 21.4 21.1912 21.4 19.7V9.7V5.7C21.4 4.20883 20.1912 3 18.7 3H16.4V1.7ZM20 9V5.7C20 4.98203 19.418 4.4 18.7 4.4H16.4V5.7C16.4 6.0866 16.0866 6.4 15.7 6.4C15.3134 6.4 15 6.0866 15 5.7V4.4H8.4V5.7C8.4 6.0866 8.0866 6.4 7.7 6.4C7.3134 6.4 7 6.0866 7 5.7V4.4H4.7C3.98203 4.4 3.4 4.98203 3.4 5.7V9H20ZM3.4 10.4H20V19.7C20 20.418 19.418 21 18.7 21H4.7C3.98203 21 3.4 20.418 3.4 19.7V10.4Z" fill=""/>
</svg>
