<svg width="48" height="48" viewBox="0 0 48 48" fill="none" xmlns="http://www.w3.org/2000/svg">
<circle cx="29" cy="25" r="8" fill="#F8CAA0"/>
<path fill-rule="evenodd" clip-rule="evenodd" d="M23.6667 10.6667C19.2484 10.6667 15.6667 14.2484 15.6667 18.6667C15.6667 23.0849 19.2484 26.6667 23.6667 26.6667C28.0849 26.6667 31.6667 23.0849 31.6667 18.6667C31.6667 14.2484 28.0849 10.6667 23.6667 10.6667ZM13 18.6667C13 12.7756 17.7756 8 23.6667 8C29.5577 8 34.3333 12.7756 34.3333 18.6667C34.3333 24.5577 29.5577 29.3333 23.6667 29.3333C17.7756 29.3333 13 24.5577 13 18.6667Z" fill="#20314B"/>
<path fill-rule="evenodd" clip-rule="evenodd" d="M28.5446 25.1849C29.2746 25.0881 29.9449 25.6013 30.0418 26.3313L31.6551 38.4913C31.7224 38.9988 31.4932 39.5001 31.0653 39.7811C30.6374 40.0622 30.0863 40.0734 29.6473 39.81L23.6667 36.2216L17.686 39.81C17.247 40.0734 16.6959 40.0622 16.2679 39.7811C15.84 39.5 15.6109 38.9986 15.6783 38.4911L17.2916 26.3444C17.3886 25.6145 18.0589 25.1013 18.7889 25.1983C19.5189 25.2952 20.032 25.9656 19.9351 26.6956L18.6859 36.1002L22.9807 33.5233C23.4029 33.27 23.9304 33.27 24.3527 33.5233L28.6478 36.1005L27.3983 26.682C27.3014 25.952 27.8147 25.2818 28.5446 25.1849Z" fill="#20314B"/>
</svg>
