<svg xmlns="http://www.w3.org/2000/svg" xmlns:xlink="http://www.w3.org/1999/xlink" width="72" height="72" viewBox="0 0 72 72">
  <defs>
    <path id="cohete-a" d="M95.5181596,26.650122 C95.8393882,28.1491883 96,30.1568364 96,32.6731264 C96,36.3672542 95.5717017,40.4360877 94.7150924,44.8797487 C93.8049449,49.8052525 92.5602031,54.1819253 90.9808296,58.0098984 C89.4014561,61.8378714 87.6748788,64.6887317 85.8010458,66.5625647 C84.4625937,67.9010168 81.8392669,69.6409784 77.9309867,71.7825018 C77.0743773,72.2108065 76.0839376,72.7194107 74.9596379,73.3083296 C74.0494904,76.4670766 72.1756855,80.2949923 69.338167,84.7921914 C66.125882,90.0389237 63.288406,93.5723843 60.8256541,95.3926792 C60.2902733,95.7674458 59.7013632,95.9548263 59.0589062,95.9548263 C58.7912157,95.9548263 58.5235293,95.9280576 58.2558389,95.8745196 C57.3456915,95.6068291 56.7300127,95.017919 56.4087842,94.1077716 C56.1410938,93.5188527 55.900176,92.9567112 55.6860237,92.4213303 C54.0798811,88.1918216 52.8485236,85.1937339 51.9919143,83.4269771 L36.5730229,67.927779 C34.8598042,67.0711696 31.8884851,65.8398122 27.6589764,64.2336696 C27.444824,64.1801315 27.1369847,64.073057 26.735449,63.9124427 C26.3339134,63.7518284 26.0528427,63.6447539 25.8922284,63.5912158 C24.982081,63.2699873 24.3931709,62.6409242 24.1254804,61.7040077 C23.85779,60.7670913 24.0184019,59.9238791 24.6073208,59.1743459 C26.4811538,56.711594 30.0146144,53.8473494 35.2078086,50.5815262 C39.6514696,47.7975458 43.4793853,45.923741 46.6916704,44.9600554 C47.2270512,43.9428318 47.7356554,42.9791607 48.2174982,42.0690133 C50.3590216,38.2142712 52.0989832,35.617713 53.4374353,34.2792609 C54.9365017,32.7801945 57.0244557,31.3614566 59.70136,30.0230044 C62.3247261,28.7916285 65.3228139,27.6941142 68.6957132,26.7304287 C75.3344358,24.9101338 81.6250664,24 87.5677938,24 C89.9770076,24 91.9043498,24.1873805 93.349878,24.5621471 L95.0363193,24.9636807 L95.5181596,26.650122 Z M42.4354139,54.1150222 C42.5960282,53.7402556 42.7834087,53.2851887 42.997561,52.7498078 C41.4984946,53.5528791 39.9191448,54.4630129 38.2594642,55.4802365 C35.9573265,56.9257648 33.9229098,58.3712714 32.156153,59.8167997 C34.9936715,60.8875614 37.1887001,61.7976952 38.7413045,62.5472284 C40.0797567,59.4420194 41.3111141,56.6313121 42.4354139,54.1150222 Z M64.5197635,81.7405358 C65.5369871,80.0808552 66.4203523,78.5015054 67.1698855,77.002439 C66.4203523,77.3772056 66.0188227,77.5645861 65.9652846,77.5645861 C63.2348422,78.795962 60.3973663,80.0273195 57.4527716,81.2586955 C58.2023048,82.9183761 59.1124386,85.1134047 60.1832003,87.843847 C61.6287286,86.0770902 63.0742352,84.0426735 64.5197635,81.7405358 Z M90.2179157,32.5928197 C90.2179157,31.6291341 90.1911471,30.7190003 90.137609,29.862391 C89.3880758,29.8088529 88.558248,29.7820843 87.6481005,29.7820843 C82.1336778,29.7820843 76.3516513,30.6386808 70.3018478,32.3518995 C67.2501769,33.1549708 64.5733128,34.1186418 62.2711752,35.2429416 C60.1296518,36.2601652 58.550302,37.2773736 57.5330784,38.2945972 C56.6229309,39.2582827 55.2309616,41.4533113 53.3571286,44.8797487 C51.6439099,47.9849576 49.7433364,51.8396419 47.6553511,56.4439172 C46.2098228,59.7097404 44.7643162,63.0825891 43.3187879,66.5625647 L53.4374353,76.6812121 C57.1851013,75.1286076 60.55795,73.683101 63.5560828,72.3446489 C68.1603581,70.2566636 72.0150424,68.3560901 75.1202513,66.6428714 C78.6002268,64.7690384 80.7952554,63.3770691 81.7054028,62.4669216 C83.097393,61.0749314 84.4358251,58.7460597 85.7207391,55.4802365 C87.1127293,52.0537991 88.2370122,48.1723461 89.0936216,43.8357613 C89.8431548,39.7668668 90.2179157,36.0192571 90.2179157,32.5928197 Z M33.7622875,79.2510273 C35.6896586,79.2510273 37.33593,79.9336277 38.7011512,81.2988488 C40.0663723,82.66407 40.7489727,84.2835728 40.7489727,86.1574057 C40.7489727,87.7100102 40.2805215,89.1019795 39.343605,90.3333555 C38.4066885,91.5647314 37.215484,92.4213279 35.7699557,92.9031707 L25.8119217,95.8745196 C25.7048455,95.9280576 25.5710023,95.9548263 25.4103881,95.9548263 C25.0356215,95.9548263 24.7143978,95.8209831 24.4467073,95.5532927 C24.1790169,95.2856022 24.0451737,94.9643785 24.0451737,94.5896119 C24.0451737,94.4289977 24.0719424,94.2951545 24.1254804,94.1880783 L27.0968293,84.1497376 C27.5786721,82.7042093 28.4218843,81.5263891 29.6264912,80.6162417 C30.8310981,79.7060942 32.2096831,79.2510273 33.7622875,79.2510273 Z M65.1622173,49.6981522 C65.1622173,48.252624 65.6574372,47.0346508 66.6478917,46.0441962 C67.6383463,45.0537417 68.8563195,44.5585218 70.3018478,44.5585218 C71.747376,44.5585218 72.9653492,45.0537417 73.9558038,46.0441962 C74.9462583,47.0346508 75.4414782,48.252624 75.4414782,49.6981522 C75.4414782,51.1436805 74.9462583,52.3616537 73.9558038,53.3521083 C72.9653492,54.3425628 71.747376,54.8377827 70.3018478,54.8377827 C68.8563195,54.8377827 67.6383463,54.3425628 66.6478917,53.3521083 C65.6574372,52.3616537 65.1622173,51.1436805 65.1622173,49.6981522 Z"/>
  </defs>
  <use fill="#FFF" fill-rule="evenodd" transform="translate(-24 -24)" xlink:href="#cohete-a"/>
</svg>
