<svg width="24" height="24" viewBox="0 0 24 24" fill="none" xmlns="http://www.w3.org/2000/svg">
<path fill-rule="evenodd" clip-rule="evenodd" d="M20.8095 8.57143C20.8095 5.22619 18.5476 4.52381 16.6429 4.52381C14.869 4.52381 12.869 6.44048 12.25 7.17857C11.9643 7.52381 11.369 7.52381 11.0833 7.17857C10.4643 6.44048 8.46429 4.52381 6.69048 4.52381C4.78571 4.52381 2.52381 5.22619 2.52381 8.57143C2.52381 10.75 4.72619 12.7738 4.75 12.7976L11.6667 19.4643L18.5714 12.8095C18.6071 12.7738 20.8095 10.75 20.8095 8.57143ZM22.3333 8.57143C22.3333 11.4286 19.7143 13.8214 19.6071 13.9286L12.1905 21.0714C12.0476 21.2143 11.8571 21.2857 11.6667 21.2857C11.4762 21.2857 11.2857 21.2143 11.1429 21.0714L3.71429 13.9048C3.61905 13.8214 1 11.4286 1 8.57143C1 5.08333 3.13095 3 6.69048 3C8.77381 3 10.7262 4.64286 11.6667 5.57143C12.6071 4.64286 14.5595 3 16.6429 3C20.2024 3 22.3333 5.08333 22.3333 8.57143Z" fill="#132631"/>
</svg>
