<svg xmlns="http://www.w3.org/2000/svg" xmlns:xlink="http://www.w3.org/1999/xlink" width="48" height="48" viewBox="0 0 48 48">
  <defs>
    <path id="dialogflow-a" d="M2.88461538,39.5769231 L2.76923077,39.4615385 L2.76923077,39.2307692 C0.923067692,36.5384481 0,33.5769392 0,30.3461538 C0,25.4230523 1.88459654,21.34617 5.65384615,18.1153846 C5.34615231,19.8077008 5.19230769,21.1153846 5.19230769,22.0384615 C5.19230769,27.3461804 7.15382654,31.9038271 11.0769231,35.7115385 C15.0000196,39.5192498 19.7307415,41.4230769 25.2692308,41.4230769 C27.0384704,41.4230769 28.7307612,41.19231 30.3461538,40.7307692 C26.8845981,44.8077127 22.4615654,46.8461538 17.0769231,46.8461538 C14.9999896,46.8461538 12.7692427,46.38462 10.3846154,45.4615385 L10.2692308,45.4615385 C9.96153692,45.3076915 9.65384769,45.2307692 9.34615385,45.2307692 C9.11538346,45.2307692 8.76923308,45.3076915 8.30769231,45.4615385 L1.84615385,48 L3.23076923,40.7307692 C3.23076923,40.3461519 3.11538577,39.9615404 2.88461538,39.5769231 Z M27.9230769,0 C33.4615662,0 38.1922881,1.90382712 42.1153846,5.71153846 C46.0384812,9.51924981 48,14.0768965 48,19.3846154 C48,23.0000181 46.9230877,26.4615219 44.7692308,29.7692308 L44.6538462,29.8846154 C44.5769227,29.9615388 44.5384615,30.0384612 44.5384615,30.1153846 C44.3076912,30.5769254 44.1923077,31.0384592 44.1923077,31.5 L46.1538462,40.0384615 L38.1923077,37.0384615 C37.7307669,36.8846146 37.3461554,36.8076923 37.0384615,36.8076923 C36.8076912,36.8076923 36.4615385,36.8846146 36,37.0384615 L35.7692308,37.1538462 C35.1538431,37.3846165 34.2307754,37.6538446 33,37.9615385 C31.3846073,38.4230792 29.6923165,38.6538462 27.9230769,38.6538462 C22.3845877,38.6538462 17.6730963,36.7692496 13.7884615,33 C9.90382673,29.2307504 7.96153846,24.6923342 7.96153846,19.3846154 C7.96153846,18 8.07692192,16.6538527 8.30769231,15.3461538 C9.23077385,10.9615165 11.5384431,7.30770692 15.2307692,4.38461538 C18.9230954,1.46152385 23.1538223,0 27.9230769,0 Z"/>
  </defs>
  <use fill="#E73F39" fill-rule="evenodd" xlink:href="#dialogflow-a"/>
</svg>
