<?xml version="1.0" encoding="UTF-8"?>
<svg enable-background="new 0 0 32 32" version="1.1" viewBox="0 0 32 32" xml:space="preserve" xmlns="http://www.w3.org/2000/svg"><g fill="#000"><path d="m31 22c-0.552 0-1 0.448-1 1v7h-28v-7c0-0.552-0.448-1-1-1s-1 0.448-1 1v8c0 0.552 0.448 1 1 1h30c0.552 0 1-0.448 1-1v-8c0-0.552-0.448-1-1-1z"/><path d="m15.27 23.707c0.389 0.385 1.04 0.389 1.429 0l6.999-6.9c0.395-0.391 0.394-1.024 0-1.414-0.394-0.391-1.034-0.391-1.428 0l-5.275 5.2v-19.593c0-0.552-0.452-1-1.01-1s-1.01 0.448-1.01 1v19.593l-5.275-5.2c-0.395-0.391-1.034-0.391-1.428 0-0.395 0.391-0.395 1.024 0 1.414l6.998 6.9z"/></g></svg>
