<svg width="37" height="48" viewBox="0 0 37 48" fill="none" xmlns="http://www.w3.org/2000/svg">
<path fill-rule="evenodd" clip-rule="evenodd" d="M21.9023 12.1353H28.6917L26.3233 8.95489L24.0677 6.24812L22.6692 4.71429L21.2256 3.13534L18.0902 0L14.9549 3.13534L13.5113 4.71429L12.1128 6.24812L9.85714 8.95489L7.48872 12.1353H14.2782L18.0902 6.91806L21.9023 12.1353ZM7.28571 24.3158C9.29138 24.3158 10.9173 22.6899 10.9173 20.6842C10.9173 18.6785 9.29138 17.0526 7.28571 17.0526C5.28005 17.0526 3.65414 18.6785 3.65414 20.6842C3.65414 22.6899 5.28005 24.3158 7.28571 24.3158ZM18.0677 24.3158C20.0733 24.3158 21.6992 22.6899 21.6992 20.6842C21.6992 18.6785 20.0733 17.0526 18.0677 17.0526C16.062 17.0526 14.4361 18.6785 14.4361 20.6842C14.4361 22.6899 16.062 24.3158 18.0677 24.3158ZM32.4812 20.6842C32.4812 22.6899 30.8553 24.3158 28.8496 24.3158C26.844 24.3158 25.218 22.6899 25.218 20.6842C25.218 18.6785 26.844 17.0526 28.8496 17.0526C30.8553 17.0526 32.4812 18.6785 32.4812 20.6842ZM0 29.7744C0 29.5327 0.00465942 29.2921 0.0138925 29.0526H5.51536C5.50765 29.2396 5.50376 29.4276 5.50376 29.6166C5.50376 36.8046 11.1389 42.6316 18.0902 42.6316C25.0415 42.6316 30.6767 36.8046 30.6767 29.6166C30.6767 29.4276 30.6728 29.2396 30.6651 29.0526H36.0763C36.0856 29.2921 36.0902 29.5327 36.0902 29.7744C36.0902 39.8401 28.0112 48 18.0451 48C8.07907 48 0 39.8401 0 29.7744Z" fill="#E73F39"/>
</svg>
