<svg xmlns="http://www.w3.org/2000/svg" xmlns:xlink="http://www.w3.org/1999/xlink" width="48" height="48" viewBox="0 0 48 48">
  <defs>
    <path id="drupal-a" d="M34.5544839,8.92596584 C32.0963233,7.39794887 29.7720308,6.79847554 27.453605,5.27045856 C26.0157224,4.29978111 24.0215669,1.98775542 22.3484816,0 C22.0263447,3.19096879 21.0508672,4.48858321 19.9356548,5.41392682 C17.5734953,7.26034734 16.0870787,7.81448683 14.0433227,8.92596584 C12.3265036,9.80544228 3,15.3521706 3,27.2851032 C3,39.2159024 13.0705119,48 24.2509028,48 C35.4355604,48 45.1338015,39.9081768 45.1338015,27.6541739 C45.1338015,15.3985711 36.0387671,9.85024278 34.5544839,8.92596584 M34.743286,43.3354148 C34.5096834,43.5647507 32.3757931,45.0453005 29.8712319,45.2783698 C27.3650707,45.508239 23.9762331,45.6469072 21.9362104,43.7972866 C21.6124735,43.472483 21.7020745,43.0138113 21.9362104,42.8298092 C22.1676796,42.6410071 22.3527484,42.5018056 22.6327515,42.5018056 C22.9127546,42.5018056 22.8620874,42.5018056 23.0044889,42.5956733 C23.9319659,43.3364815 25.323448,43.9348882 28.2909477,43.9348882 C31.2621807,43.9348882 33.3523372,43.1071456 34.2787475,42.4095379 C34.6963522,42.087401 34.8819542,42.3647374 34.9299548,42.5508728 C34.9742219,42.7332748 35.0675563,43.0122112 34.743286,43.3354148 M26.7010633,39.4425716 C27.211469,38.9785664 28.0488117,38.2388249 28.8386871,37.9161546 C29.6274959,37.5918844 30.0408338,37.6377515 30.7853754,37.6377515 C31.5272503,37.6377515 32.3187258,37.6846854 32.8739319,38.0574895 C33.4291381,38.4270936 33.7555417,39.2575029 33.9374104,39.7161746 C34.1251458,40.1817798 33.9374104,40.4575162 33.5699397,40.6447183 C33.2472694,40.8276536 33.1992689,40.7359193 32.8739319,40.136446 C32.551795,39.535906 32.2717919,38.9321659 30.6467072,38.9321659 C29.0237558,38.9321659 28.5122835,39.4889721 27.724008,40.136446 C26.9351993,40.7823198 26.6562628,41.0143224 26.3767931,40.6447183 C26.0994567,40.2761808 26.1917244,39.90391 26.7010633,39.4425716 M43.4495161,30.6275403 C43.4495161,32.0611562 42.987111,34.6489183 41.8702986,36.2670696 C40.7604196,37.8878876 40.0649452,38.4900277 38.7609307,38.39616 C37.0889121,38.2548251 33.7502083,33.0766342 31.6157846,32.9827665 C28.9288214,32.8915655 23.0796898,38.5828287 18.4839054,38.5828287 C15.6988078,38.5828287 14.8667985,38.1668241 13.9393215,37.5636174 C12.5451727,36.5918732 11.8486317,35.1129235 11.8944988,33.0771675 C11.9440994,29.4680608 15.3270703,26.0968233 19.5985844,26.0520228 C25.0242447,26.0034889 28.7880199,31.411549 31.5224502,31.3678152 C33.844076,31.3240814 38.3006589,26.7885643 40.4809498,26.7885643 C42.7999089,26.7885643 43.4495161,29.1891243 43.4495161,30.6275403"/>
  </defs>
  <use fill="#E73F39" fill-rule="evenodd" xlink:href="#drupal-a"/>
</svg>
