<?xml version="1.0" encoding="UTF-8"?>
<svg version="1.1" viewBox="0 0 92 69" xmlns="http://www.w3.org/2000/svg" xmlns:xlink="http://www.w3.org/1999/xlink">
<defs>
<path id="a" d="m24.188 64.824c0.70136 0 1.2774 0.53946 1.3426 1.2307l0.0061394 0.13129v1.452c0 0.752-0.6037 1.362-1.3487 1.362-0.70118 0-1.2772-0.54035-1.3425-1.2309l-0.0061727-0.13114v-1.452c0-0.753 0.6037-1.362 1.3487-1.362zm4.8557-3.269c0.745 0 1.3487 0.61 1.3487 1.362 0 0.70776-0.53477 1.2897-1.2188 1.3558l-0.12991 0.0062369h-1.4388c-0.7449 0-1.3487-0.61-1.3487-1.362 0-0.70776 0.53485-1.2897 1.2188-1.3558l0.12989-0.0062369h1.4388zm-8.0928-0.181c0.7452 0 1.3489 0.609 1.3488 1.361 0 0.70871-0.53485 1.2899-1.2189 1.3558l-0.12991 0.0062272h-1.4387c-0.745 0-1.3488-0.609-1.3488-1.362 0-0.70776 0.53485-1.2889 1.2189-1.3548l0.12991-0.0062269h1.4387zm3.417-4.721c0.70127 0 1.2772 0.54035 1.3425 1.2309l0.0061717 0.13114v1.452c0 0.752-0.6038 1.362-1.3487 1.362-0.70118 0-1.2773-0.54035-1.3426-1.2309l-0.0061737-0.13114v-1.452c0-0.753 0.6038-1.362 1.3488-1.362zm38.305-55.473c1.7065 0 3.1606 1.0165 3.7602 2.6081l0.070465 0.20191 4.7672 14.815c0.16486 0.51231 0.61065 0.86954 1.133 0.92147l0.13207 0.0065344h15.428c1.7776 0 3.281 1.103 3.8305 2.81 0.52733 1.6387 0.019238 3.3493-1.2949 4.4161l-0.16844 0.12994-12.481 9.156c-0.43163 0.31662-0.63048 0.85562-0.51804 1.3732l0.03464 0.12881 4.7675 14.814c0.5491 1.707-0.0252 3.492-1.4634 4.547-1.3781 1.011-3.1423 1.0532-4.5529 0.12638l-0.18193-0.12638-12.481-9.156c-0.42836-0.31442-0.99209-0.34062-1.4435-0.078604l-0.12013 0.078604-12.481 9.156c-0.7189 0.528-1.5432 0.792-2.3674 0.792s-1.6484-0.264-2.3674-0.792c-1.3807-1.0128-1.9655-2.6984-1.5239-4.3418l0.060561-0.20516 0.1444-0.448h-42.008c-0.7449 0-1.3487-0.61-1.3487-1.362 0-0.70776 0.53485-1.2897 1.2188-1.3558l0.12989-0.0062369h42.885l2.0452-6.355h-27.744c-0.7449 0-1.3487-0.61-1.3487-1.362 0-0.70776 0.53485-1.2897 1.2188-1.3558l0.12989-0.0062369h28.621l0.8249-2.563c0.16505-0.51231 0.012099-1.0655-0.38027-1.4182l-0.10303-0.083842-3.1221-2.29h-43.026c-0.7449 0-1.3487-0.61-1.3487-1.362 0-0.70776 0.53485-1.2897 1.2188-1.3558l0.12989-0.0062369h39.313l-5.6462-4.142c-0.70987-0.51975-1.2069-1.2193-1.4642-1.9986l-0.064209-0.21442h-32.138c-0.7449 0-1.3487-0.61-1.3487-1.362 0-0.70776 0.53485-1.2897 1.2188-1.3558l0.12989-0.0062369h32.353c0.61265-1.4176 1.9229-2.3365 3.469-2.4137l0.21224-0.0052816h7.5144c0.7449 0 1.3487 0.609 1.3487 1.362 0 0.70776-0.53485 1.2889-1.2188 1.3548l-0.12989 0.0062269h-7.5144c-0.8964 0-1.1951 0.71-1.265 0.928-0.065976 0.20518-0.22213 0.88338 0.36433 1.406l0.11887 0.096013 12.481 9.156c1.3571 0.99571 1.9538 2.7151 1.5251 4.3362l-0.061742 0.21082-4.7675 14.814c-0.2773 0.862 0.3001 1.367 0.4834 1.502 0.17242 0.12706 0.76277 0.4862 1.4364 0.084481l0.1272-0.084481 12.481-9.156c1.3543-0.99383 3.1543-1.037 4.5474-0.12963l0.18738 0.12963 12.481 9.156c0.7251 0.532 1.38 0.135 1.5637 0 0.17203-0.12656 0.68982-0.5792 0.52555-1.3447l-0.042253-0.15727-4.7674-14.814c-0.51817-1.611 1.677e-4 -3.356 1.2905-4.4131l0.17267-0.13391 12.481-9.156c0.7253-0.532 0.553-1.284 0.4831-1.502-0.065531-0.20344-0.33207-0.84105-1.1038-0.91996l-0.16118-0.0080378h-15.428c-1.6805 0-3.1666-1.0405-3.7611-2.611l-0.069617-0.19903-4.7673-14.814c-0.2771-0.861-1.0384-0.928-1.2652-0.928-0.21262 0-0.89503 0.058887-1.2078 0.77569l-0.057382 0.15231-4.7673 14.814c-0.51917 1.6138-1.9588 2.7188-3.6217 2.8046l-0.20897 0.0053823h-2.5182c-0.745 0-1.3487-0.609-1.3487-1.361 0-0.70871 0.53477-1.2899 1.2188-1.3558l0.12991-0.0062272h2.5182c0.53372 0 1.0079-0.31782 1.2182-0.80324l0.04695-0.12476 0.9678-3.008h-53.694c-0.7449 0-1.3487-0.609-1.3487-1.361 0-0.70871 0.53485-1.2899 1.2188-1.3558l0.12989-0.0062272h54.571l2.9229-9.083c0.5495-1.708 2.0531-2.811 3.8308-2.811zm-49.534 39.131c0.745 0 1.3488 0.609 1.3488 1.361 0 0.70871-0.53485 1.2899-1.2189 1.3558l-0.12991 0.0062272h-11.79c-0.7449 0-1.3487-0.609-1.3487-1.362 0-0.70776 0.53485-1.2889 1.2188-1.3548l0.12989-0.0062269h11.79zm57.227-3.139c0.4755 0.579 0.3957 1.437-0.1777 1.917-2.4581 2.058-4.9865 3.086-7.5147 3.086s-5.0568-1.028-7.5147-3.086c-0.5736-0.48-0.6532-1.338-0.1777-1.917 0.4756-0.579 1.3259-0.66 1.8993-0.18 3.9528 3.308 7.634 3.308 11.586 0 0.5734-0.48 1.4237-0.399 1.8993 0.18zm-14.436-11.751c0.84695 0 1.5418 0.65698 1.6127 1.4931l0.0059698 0.14093v3.632c0 0.903-0.7245 1.634-1.6187 1.634-0.84704 0-1.5419-0.65608-1.6127-1.4929l-0.0059399-0.14107v-3.632c0-0.902 0.7247-1.634 1.6186-1.634zm13.308 0c0.84704 0 1.5419 0.65698 1.6127 1.4931l0.0059399 0.14093v3.632c0 0.903-0.7245 1.634-1.6186 1.634-0.84704 0-1.5419-0.65608-1.6127-1.4929l-0.0059399-0.14107v-3.632c0-0.902 0.7246-1.634 1.6186-1.634zm9.4415-17.25c0.70127 0 1.2772 0.54035 1.3425 1.2309l0.0061717 0.13114v1.453c0 0.752-0.6037 1.361-1.3487 1.361-0.70118 0-1.2773-0.53946-1.3426-1.2299l-0.0061737-0.13113v-1.453c0-0.752 0.6038-1.362 1.3488-1.362zm4.8557-3.268c0.745 0 1.3487 0.609 1.3487 1.362 0 0.70776-0.53477 1.2889-1.2188 1.3548l-0.12991 0.006227h-1.4388c-0.745 0-1.3487-0.609-1.3487-1.361 0-0.70871 0.53477-1.2899 1.2188-1.3558l0.12991-0.0062272h1.4388zm-8.0928-0.182c0.7452 0 1.3487 0.61 1.3487 1.362 0 0.70776-0.53477 1.2897-1.2188 1.3558l-0.12991 0.0062369h-1.4388c-0.7449 0-1.3487-0.61-1.3487-1.362 0-0.70776 0.53485-1.2897 1.2188-1.3558l0.12989-0.0062369h1.4388zm3.4169-4.721c0.70118 0 1.2773 0.54035 1.3426 1.2309l0.0061737 0.13114v1.452c0 0.753-0.6038 1.362-1.3488 1.362-0.70108 0-1.2772-0.53946-1.3425-1.2307l-0.0061736-0.13129v-1.452c0-0.752 0.6038-1.362 1.3487-1.362z"/>
</defs>
<g fill="none" fill-rule="evenodd">
<g transform="translate(-720 -1424)">
<g transform="translate(720 1424)">
<mask fill="white">
<use xlink:href="#a"/>
</mask>
<use fill="#E73F39" xlink:href="#a"/>
</g>
</g>
</g>
</svg>
