<?xml version="1.0" encoding="UTF-8"?>
<svg version="1.1" viewBox="0 0 70 70" xmlns="http://www.w3.org/2000/svg" xmlns:xlink="http://www.w3.org/1999/xlink">
<defs>
<path id="a" d="m44.585-2.916e-4c0.379-0.0077084 0.742 0.14929 1.0032 0.42329s0.3965 0.644 0.3742 1.022c-0.0102 0.176-0.2809 4.224-3.0516 7.202 5.2972 1.356 8.4627 5.647 8.4627 11.821 0 5.36-2.2905 11.288-5.8076 14.755l-0.26607 0.25532h15.678c1.8138 0 3.3977 1.1856 3.9186 2.9066l0.053466 0.1934 0.0064 0.027 2.0052 8.766c1.6492 0.47089 2.8761 1.9525 2.9648 3.7288l0.0051333 0.20622v2.729c0 1.7988-1.1659 3.3287-2.7815 3.8762l-0.18837 0.058774-2.0052 8.766c-0.0022 9e-3 -0.0043 0.018-7e-3 0.027-0.44097 1.7608-1.9753 3.0092-3.7714 3.0962l-0.2006 0.0048458h-51.955c-1.8143 0-3.3977-1.1856-3.9185-2.9075l-0.053454-0.1935-0.0064-0.027-2.0057-8.766c-1.6487-0.47089-2.8757-1.9516-2.9644-3.7287l-0.0051337-0.20632v-2.729c0-1.7988 1.166-3.3287 2.7812-3.8762l0.18832-0.058774 2.0057-8.766c0.0021-9e-3 0.0043-0.018 0.0064-0.027 0.44097-1.7598 1.9758-3.0082 3.7715-3.0952l0.20055-0.0048458h15.678c-3.6672-3.425-6.0738-9.516-6.0738-15.01 0-7.848 5.0242-12.281 12.281-12.281 0.8811 0 1.7489 0.112 2.5953 0.333-0.4653-2.285-2.114-4.192-4.3915-4.951-0.7148-0.238-1.1012-1.011-0.863-1.725 0.2383-0.716 1.0111-1.102 1.7259-0.864 2.2904 0.763 4.1309 2.349 5.238 4.363 0.4323-0.775 0.9791-1.543 1.6704-2.233 3.0217-3.024 7.514-3.107 7.7037-3.1103zm19.54 58.129h-58.252l1.8267 7.983c0.14551 0.559 0.62324 0.96193 1.1896 1.0166l0.13217 0.0063564h51.956c0.57915 0 1.0874-0.36301 1.2825-0.89686l0.039358-0.12614 1.8261-7.983zm-39.206-8.187h-20.757c-0.70833 0-1.292 0.54212-1.3582 1.2328l-0.006256 0.13116v2.729c0 0.70871 0.54203 1.2925 1.2332 1.3587l0.13126 0.0062571h61.676c0.70833 0 1.292-0.54212 1.3582-1.2337l0.006256-0.13132v-2.729c0-0.752-0.6108-1.363-1.3624-1.364h-20.759l-0.5991 1.796c-0.17169 0.51415-0.62908 0.87408-1.1604 0.92641l-0.13426 0.0065858h-16.374c-0.54222 0-1.0281-0.32038-1.2459-0.80776l-0.048753-0.12524-0.5991-1.796zm36.058-11.735h-51.956c-0.57859 0-1.0873 0.36214-1.2824 0.89587l-0.039365 0.12613-1.8267 7.983h20.029c0.54222 0 1.028 0.32038 1.2455 0.80776l0.048644 0.12524 0.5991 1.797h14.408l0.5991-1.797c0.17123-0.51415 0.62859-0.87408 1.1599-0.92641l0.13426-0.0065858h20.029l-1.8267-7.983c-0.1567-0.602-0.6982-1.022-1.3219-1.022zm-34.165 3.138c0.7531 0 1.3645 0.611 1.3645 1.365 0 0.753-0.6114 1.364-1.3645 1.364-0.7537 0-1.3646-0.611-1.3646-1.364 0-0.754 0.6109-1.365 1.3646-1.365zm16.374 0c0.7537 0 1.3645 0.611 1.3645 1.365 0 0.70871-0.54105 1.2916-1.2331 1.3578l-0.13143 0.0062471h-10.916c-0.7537 0-1.3646-0.611-1.3646-1.364 0-0.70965 0.54114-1.2926 1.2332-1.3588l0.13143-0.0062473h10.916zm-12.28-30.429c-2.8719 0-9.5516 0.931-9.5516 9.552 0 6.6566 4.2788 14.768 9.3251 15.005l0.22646 0.0053241h8.1872c5.1441 0 9.5516-8.254 9.5516-15.01 0-8.435-6.4548-9.487-9.2334-9.548-1.3544-0.026-2.5366 0.204-3.7956 0.841-0.0032 2e-3 -0.0059 3e-3 -0.0091 4e-3 -0.4211 0.209-0.9344 0.186-1.3363-0.058-1.0735-0.523-2.2045-0.791-3.3644-0.791zm8.1866 2.729c2.6209 0 4.5211 0.787 5.6479 2.34 1.0532 1.451 1.1747 3.254 1.1747 4.483 0 0.754-0.6108 1.364-1.3645 1.364-0.7531 0-1.3645-0.61-1.3645-1.364 0-2.593-0.6695-4.094-4.0936-4.094-0.7531 0-1.3645-0.611-1.3645-1.364s0.6114-1.365 1.3645-1.365zm3.8415-10.689c-1.2254 0.266-2.8815 0.841-4.1234 2.083-1.0122 1.012-1.6188 2.303-1.9786 3.403 0.59232-0.1336 1.1935-0.21664 1.8024-0.24451l0.45812-0.010488 0.0107 1e-3c0.6274-0.351 1.1764-0.759 1.6364-1.219 1.2499-1.25 1.8799-2.834 2.1944-4.013z"/>
</defs>
<g fill="none" fill-rule="evenodd">
<g transform="translate(-734 -1905)">
<g transform="translate(734 1905)">
<mask fill="white">
<use xlink:href="#a"/>
</mask>
<use fill="#E73F39" xlink:href="#a"/>
</g>
</g>
</g>
</svg>
