<?xml version="1.0" encoding="UTF-8"?>
<svg version="1.1" viewBox="0 0 74 74" xmlns="http://www.w3.org/2000/svg" xmlns:xlink="http://www.w3.org/1999/xlink">
<defs>
<path id="a" d="m32.226 62.065c1.9104 0 3.4767 1.5041 3.5757 3.3902l0.0049738 0.18984v7.161c0 0.61875-0.46898 1.1268-1.0714 1.1878l-0.12217 0.0061582h-14.323c-0.61875 0-1.1263-0.46934-1.1873-1.0718l-0.0061526-0.12217v-7.161c0-1.9103 1.5045-3.476 3.3907-3.575l0.18985-0.004972h9.5484zm38.194 0c1.9104 0 3.4766 1.5041 3.5756 3.3902l0.0049735 0.18984v7.161c0 0.61875-0.4689 1.1268-1.0713 1.1878l-0.12217 0.0061582h-14.323c-0.61884 0-1.1264-0.46934-1.1874-1.0718l-0.0061526-0.12217v-7.161c0-1.9103 1.5045-3.476 3.3908-3.575l0.18986-0.004972h9.5484zm-19.097 0c1.9104 0 3.4766 1.5041 3.5756 3.3902l0.0049735 0.18984v7.161c0 0.61875-0.4689 1.1268-1.0713 1.1878l-0.12217 0.0061582h-14.323c-0.61875 0-1.1264-0.46934-1.1874-1.0718l-0.0061537-0.12217v-7.161c0-1.9103 1.5046-3.476 3.3908-3.575l0.18985-0.004972h9.5484zm-38.194 0c1.9105 0 3.4767 1.5041 3.5757 3.3902l0.0049735 0.18984v7.161c0 0.61875-0.4689 1.1268-1.0714 1.1878l-0.12219 0.0061582h-14.323c-0.61875 0-1.1263-0.46934-1.1873-1.0718l-0.0061526-0.12217v-7.161c0-1.9103 1.5045-3.476 3.3907-3.575l0.18985-0.004972h9.5484zm0 2.387h-9.5484c-0.61762 0-1.1262 0.46934-1.1873 1.071l-0.0061658 0.122v5.968h1.1935v-4.774h2.3871v4.774h4.7742v-4.774h2.3871v4.774h1.1936v-5.968c0-0.659-0.5347-1.193-1.1936-1.193zm19.097 0h-9.5484c-0.61762 0-1.1262 0.46934-1.1873 1.071l-0.0061658 0.122v5.968h1.1935v-4.774h2.3871v4.774h4.7742v-4.774h2.3871v4.774h1.1936v-5.968c0-0.659-0.5348-1.193-1.1936-1.193zm38.194 0h-9.5484c-0.61772 0-1.1263 0.46934-1.1874 1.071l-0.0061658 0.122v5.968h1.1936v-4.774h2.3871v4.774h4.7742v-4.774h2.3871v4.774h1.1935v-5.968c0-0.659-0.5347-1.193-1.1935-1.193zm-19.097 0h-9.5484c-0.61762 0-1.1263 0.46934-1.1874 1.071l-0.0061669 0.122v5.968h1.1936v-4.774h2.3871v4.774h4.7742v-4.774h2.3871v4.774h1.1935v-5.968c0-0.659-0.5347-1.193-1.1935-1.193zm-42.968-14.323c2.5618 0 4.6581 2.0268 4.7695 4.5616l0.0046596 0.21238v2.387c0 2.633-2.1412 4.775-4.7742 4.775-2.5617 0-4.6581-2.0278-4.7695-4.5626l-0.0046598-0.21238v-2.387c0-2.633 2.1413-4.774 4.7742-4.774zm19.097 0c2.5618 0 4.6581 2.0268 4.7695 4.5616l0.0046596 0.21238v2.387c0 2.633-2.1412 4.775-4.7742 4.775-2.5618 0-4.6581-2.0278-4.7695-4.5626l-0.0046596-0.21238v-2.387c0-2.633 2.1412-4.774 4.7742-4.774zm38.194 0c2.5617 0 4.6581 2.0268 4.7695 4.5616l0.0046598 0.21238v2.387c0 2.633-2.1413 4.775-4.7742 4.775-2.5618 0-4.6581-2.0278-4.7695-4.5626l-0.0046596-0.21238v-2.387c0-2.633 2.1412-4.774 4.7742-4.774zm-19.097 0c2.5618 0 4.6581 2.0268 4.7695 4.5616l0.0046596 0.21238v2.387c0 2.633-2.1412 4.775-4.7742 4.775-2.5618 0-4.6581-2.0278-4.7695-4.5626l-0.0046596-0.21238v-2.387c0-2.633 2.1412-4.774 4.7742-4.774zm-38.194 2.387c-1.2616 0-2.2974 0.98361-2.3816 2.2238l-0.0055169 0.16316v2.387c0 1.317 1.0707 2.387 2.3871 2.387 1.2616 0 2.2975-0.98269 2.3816-2.2237l0.0055164-0.16328v-2.387c0-1.316-1.0706-2.387-2.3871-2.387zm19.097 0c-1.2616 0-2.2975 0.98361-2.3816 2.2238l-0.0055164 0.16316v2.387c0 1.317 1.0706 2.387 2.3871 2.387 1.2616 0 2.2975-0.98269 2.3816-2.2237l0.0055164-0.16328v-2.387c0-1.316-1.0706-2.387-2.3871-2.387zm38.194 0c-1.2616 0-2.2975 0.98361-2.3816 2.2238l-0.0055164 0.16316v2.387c0 1.317 1.0706 2.387 2.3871 2.387 1.2616 0 2.2974-0.98269 2.3816-2.2237l0.0055169-0.16328v-2.387c0-1.316-1.0707-2.387-2.3871-2.387zm-19.097 0c-1.2616 0-2.2975 0.98361-2.3816 2.2238l-0.0055164 0.16316v2.387c0 1.317 1.0706 2.387 2.3871 2.387 1.2616 0 2.2975-0.98269 2.3816-2.2237l0.0055164-0.16328v-2.387c0-1.316-1.0706-2.387-2.3871-2.387zm-9.5484-16.71c1.4864 0 2.7523 0.91676 3.292 2.2094l0.069044 0.17855h15.736c0.61875 0 1.1263 0.46846 1.1873 1.0708l0.0061526 0.12216v3.581h8.3549c0.61875 0 1.1263 0.46846 1.1873 1.0708l0.0061526 0.12216v3.581h-2.3871v-2.387h-16.71v2.387h-2.3871v-3.581c0-0.61875 0.46898-1.1259 1.0714-1.1869l0.12217-0.006147h8.3548v-2.387h-14.542c-0.4941 1.385-1.807 2.387-3.361 2.387-1.4864 0-2.7523-0.91676-3.292-2.2086l-0.069044-0.17843h-14.542v2.387h8.3548c0.61875 0 1.1264 0.46846 1.1874 1.0708l0.0061537 0.12216v3.581h-2.3871v-2.387h-16.71v2.387h-2.3871v-3.581c0-0.61875 0.4689-1.1259 1.0713-1.1869l0.12217-0.006147h8.3549v-3.581c0-0.61875 0.4689-1.1259 1.0713-1.1869l0.12217-0.006147h15.736c0.4941-1.386 1.807-2.388 3.361-2.388zm0 2.388c-0.6588 0-1.1935 0.534-1.1935 1.193s0.5347 1.194 1.1935 1.194 1.1935-0.535 1.1935-1.194-0.5347-1.193-1.1935-1.193zm1.1935-38.194v2.387h1.1936c0.61875 0 1.1263 0.47021 1.1873 1.072l0.0061526 0.12201v3.58h2.812c1.8441-1.489 4.1858-2.387 6.7364-2.387 5.9236 0 10.742 4.82 10.742 10.742 0 1.6089-0.36307 3.1318-1 4.5025l-0.16489 0.33948 0.9381 5.632c0.1504 0.908 0.2268 1.832 0.2268 2.746 0 3.939-3.1319 7.07-6.9811 7.07-2.667 0-5.0982-1.5228-6.2669-3.904l-0.11262-0.24096-3.1558-7.101c-0.222-0.142-0.4392-0.29022-0.65024-0.44674l-0.31176-0.24126h-12.784c-0.20447 0.16467-0.41587 0.32044-0.63275 0.46941l-0.32925 0.21859-3.1557 7.101c-1.1207 2.519-3.6236 4.145-6.3807 4.145-3.8492 0-6.9811-3.131-6.9811-6.981 0-0.83583 0.053056-1.6168 0.15847-2.3794l0.069528-0.45562 0.9381-5.633c-0.74-1.456-1.1661-3.098-1.1661-4.841 0-5.922 4.8184-10.742 10.742-10.742 2.4291 0 4.6688 0.81451 6.4696 2.1783l0.2668 0.20866h2.812v-3.58c0-0.61781 0.4689-1.1266 1.0713-1.1878l0.12217-0.0061692h1.1936v-2.387h2.387zm19.547 23.087c-1.9467 1.957-4.6393 3.171-7.6113 3.171-0.733 0-1.4453-0.081944-2.1369-0.22558l-0.41248-0.093421 2.1114 4.752c0.7376 1.658 2.3847 2.728 4.1989 2.728 2.5327 0 4.594-2.061 4.594-4.594 0-0.6984-0.042048-1.3456-0.12486-1.9749l-0.069736-0.46912-0.549-3.294zm-41.481 1e-3 -0.549 3.294c-0.1289 0.778-0.1946 1.571-0.1946 2.354 0 2.622 2.0613 4.683 4.594 4.683 1.7375 0 3.3237-0.98269 4.101-2.5238l0.096745-0.20415 2.1114-4.752c-0.8188 0.201-1.6686 0.319-2.5482 0.319-2.972 0-5.6646-1.214-7.6113-3.17zm33.869-15.927c-4.6059 0-8.3548 3.748-8.3548 8.355s3.7489 8.355 8.3548 8.355 8.3549-3.748 8.3549-8.355-3.749-8.355-8.3549-8.355zm-26.258 0c-4.6059 0-8.3549 3.748-8.3549 8.355s3.749 8.355 8.3549 8.355 8.3548-3.748 8.3548-8.355-3.7489-8.355-8.3548-8.355zm27.452 11.936v2.387h-2.3871v-2.387h2.3871zm-26.258-9.549v4.775h4.7742v2.387h-4.7742v4.774h-2.3871v-4.774h-4.7742v-2.387h4.7742v-4.775h2.3871zm16.139 0h-8.4074c1.1458 1.708 1.8166 3.761 1.8166 5.968 0 2.0772-0.5942 4.0179-1.6194 5.663l-0.19723 0.30495h8.4074c-1.1458-1.708-1.8166-3.761-1.8166-5.968s0.6708-4.26 1.8166-5.968zm5.3447 4.775v2.387h-2.3871v-2.387h2.3871zm9.5484 0v2.387h-2.3871v-2.387h2.3871zm-4.7742-4.775v2.387h-2.3871v-2.387h2.3871zm-13.129-4.774h-2.387v2.387h2.387v-2.387z"/>
</defs>
<g fill="none" fill-rule="evenodd">
<g transform="translate(-734 -1667)">
<g transform="translate(734 1667)">
<mask fill="white">
<use xlink:href="#a"/>
</mask>
<use fill="#E73F39" xlink:href="#a"/>
</g>
</g>
</g>
</svg>
