<svg width="48" height="48" viewBox="0 0 48 48" fill="none" xmlns="http://www.w3.org/2000/svg">
<path fill-rule="evenodd" clip-rule="evenodd" d="M12.3636 11.9091C11.5603 11.9091 10.9091 12.5603 10.9091 13.3636V27.9091C10.9091 28.7124 11.5603 29.3636 12.3636 29.3636H35.6364C36.4397 29.3636 37.0909 28.7124 37.0909 27.9091V13.3636C37.0909 12.5603 36.4397 11.9091 35.6364 11.9091H12.3636ZM8 13.3636C8 10.9537 9.95367 9 12.3636 9H35.6364C38.0463 9 40 10.9537 40 13.3636V27.9091C40 30.3191 38.0463 32.2727 35.6364 32.2727H12.3636C9.95367 32.2727 8 30.3191 8 27.9091V13.3636Z" fill="#20314B"/>
<path fill-rule="evenodd" clip-rule="evenodd" d="M16.7273 36.6364C16.7273 35.833 17.3785 35.1818 18.1818 35.1818H29.8182C30.6215 35.1818 31.2727 35.833 31.2727 36.6364C31.2727 37.4397 30.6215 38.0909 29.8182 38.0909H18.1818C17.3785 38.0909 16.7273 37.4397 16.7273 36.6364Z" fill="#20314B"/>
<path fill-rule="evenodd" clip-rule="evenodd" d="M24 29.3636C24.8033 29.3636 25.4545 30.0149 25.4545 30.8182V36.6364C25.4545 37.4397 24.8033 38.0909 24 38.0909C23.1967 38.0909 22.5455 37.4397 22.5455 36.6364V30.8182C22.5455 30.0149 23.1967 29.3636 24 29.3636Z" fill="#20314B"/>
</svg>
