<?xml version="1.0" encoding="UTF-8"?>
<svg width="48px" height="30px" viewBox="0 0 48 30" version="1.1" xmlns="http://www.w3.org/2000/svg" xmlns:xlink="http://www.w3.org/1999/xlink">
    <title>icono/drupal</title>
    <defs>
        <path d="M4.5,22 L1.5,22 C1.09374797,22 0.742188984,22.148436 0.4453125,22.4453125 C0.148436016,22.742189 0,23.093748 0,23.5 L0,26.5 C0,26.906252 0.148436016,27.257811 0.4453125,27.5546875 C0.742188984,27.851564 1.09374797,28 1.5,28 L4.5,28 C4.90625203,28 5.25781102,27.851564 5.5546875,27.5546875 C5.85156398,27.257811 6,26.906252 6,26.5 L6,23.5 C6,23.093748 5.85156398,22.742189 5.5546875,22.4453125 C5.25781102,22.148436 4.90625203,22 4.5,22 Z M46.5,23.5 L15,23.5 C14.593748,23.5 14.242189,23.648436 13.9453125,23.9453125 C13.648436,24.242189 13.5,24.593748 13.5,25 C13.5,25.406252 13.648436,25.757811 13.9453125,26.0546875 C14.242189,26.351564 14.593748,26.5 15,26.5 L46.5,26.5 C46.906252,26.5 47.257811,26.351564 47.5546875,26.0546875 C47.851564,25.757811 48,25.406252 48,25 C48,24.593748 47.851564,24.242189 47.5546875,23.9453125 C47.257811,23.648436 46.906252,23.5 46.5,23.5 Z M4.5,34 L1.5,34 C1.09374797,34 0.742188984,34.148436 0.4453125,34.4453125 C0.148436016,34.742189 0,35.093748 0,35.5 L0,38.5 C0,38.906252 0.148436016,39.257811 0.4453125,39.5546875 C0.742188984,39.851564 1.09374797,40 1.5,40 L4.5,40 C4.90625203,40 5.25781102,39.851564 5.5546875,39.5546875 C5.85156398,39.257811 6,38.906252 6,38.5 L6,35.5 C6,35.093748 5.85156398,34.742189 5.5546875,34.4453125 C5.25781102,34.148436 4.90625203,34 4.5,34 Z M46.5,35.5 L15,35.5 C14.593748,35.5 14.242189,35.648436 13.9453125,35.9453125 C13.648436,36.242189 13.5,36.593748 13.5,37 C13.5,37.406252 13.648436,37.757811 13.9453125,38.0546875 C14.242189,38.351564 14.593748,38.5 15,38.5 L46.5,38.5 C46.906252,38.5 47.257811,38.351564 47.5546875,38.0546875 C47.851564,37.757811 48,37.406252 48,37 C48,36.593748 47.851564,36.242189 47.5546875,35.9453125 C47.257811,35.648436 46.906252,35.5 46.5,35.5 Z M4.5,10 L1.5,10 C1.09374797,10 0.742188984,10.148436 0.4453125,10.4453125 C0.148436016,10.742189 0,11.093748 0,11.5 L0,14.5 C0,14.906252 0.148436016,15.257811 0.4453125,15.5546875 C0.742188984,15.851564 1.09374797,16 1.5,16 L4.5,16 C4.90625203,16 5.25781102,15.851564 5.5546875,15.5546875 C5.85156398,15.257811 6,14.906252 6,14.5 L6,11.5 C6,11.093748 5.85156398,10.742189 5.5546875,10.4453125 C5.25781102,10.148436 4.90625203,10 4.5,10 Z M15,14.5 L46.5,14.5 C46.906252,14.5 47.257811,14.351564 47.5546875,14.0546875 C47.851564,13.757811 48,13.406252 48,13 C48,12.593748 47.851564,12.242189 47.5546875,11.9453125 C47.257811,11.648436 46.906252,11.5 46.5,11.5 L15,11.5 C14.593748,11.5 14.242189,11.648436 13.9453125,11.9453125 C13.648436,12.242189 13.5,12.593748 13.5,13 C13.5,13.406252 13.648436,13.757811 13.9453125,14.0546875 C14.242189,14.351564 14.593748,14.5 15,14.5 Z" id="path-1"></path>
    </defs>
    <g id="CLIENTES" stroke="none" stroke-width="1" fill="none" fill-rule="evenodd">
        <g id="ficha---rodilla" transform="translate(-188.000000, -4695.000000)">
            <g id="HERRAMIENTAS" transform="translate(187.000000, 4310.000000)">
                <g id="Group-17" transform="translate(0.000000, 152.000000)">
                    <g id="Group-22" transform="translate(1.000000, 223.000000)">
                        <g id="icono/listado">
                            <polygon id="Bounding-Box" points="0 0 48 0 48 48 0 48"></polygon>
                            <mask id="mask-2" fill="white">
                                <use xlink:href="#path-1"></use>
                            </mask>
                            <use id="List---simple-line-icons" fill="#000000" fill-rule="evenodd" xlink:href="#path-1"></use>
                            <g id="Mixin/Fill/negro" mask="url(#mask-2)" fill="#E73F39" fill-rule="evenodd">
                                <rect id="Rectangle" x="0" y="0" width="48" height="48"></rect>
                            </g>
                        </g>
                    </g>
                </g>
            </g>
        </g>
    </g>
</svg>