<svg xmlns="http://www.w3.org/2000/svg" width="48" height="30" viewBox="0 0 48 30">
  <path fill="#E73F39" fill-rule="evenodd" d="M4.5,12 L1.5,12 C1.09374797,12 0.742188984,12.148436 0.4453125,12.4453125 C0.148436016,12.742189 0,13.093748 0,13.5 L0,16.5 C0,16.906252 0.148436016,17.257811 0.4453125,17.5546875 C0.742188984,17.851564 1.09374797,18 1.5,18 L4.5,18 C4.90625203,18 5.25781102,17.851564 5.5546875,17.5546875 C5.85156398,17.257811 6,16.906252 6,16.5 L6,13.5 C6,13.093748 5.85156398,12.742189 5.5546875,12.4453125 C5.25781102,12.148436 4.90625203,12 4.5,12 Z M46.5,13.5 L15,13.5 C14.593748,13.5 14.242189,13.648436 13.9453125,13.9453125 C13.648436,14.242189 13.5,14.593748 13.5,15 C13.5,15.406252 13.648436,15.757811 13.9453125,16.0546875 C14.242189,16.351564 14.593748,16.5 15,16.5 L46.5,16.5 C46.906252,16.5 47.257811,16.351564 47.5546875,16.0546875 C47.851564,15.757811 48,15.406252 48,15 C48,14.593748 47.851564,14.242189 47.5546875,13.9453125 C47.257811,13.648436 46.906252,13.5 46.5,13.5 Z M4.5,24 L1.5,24 C1.09374797,24 0.742188984,24.148436 0.4453125,24.4453125 C0.148436016,24.742189 0,25.093748 0,25.5 L0,28.5 C0,28.906252 0.148436016,29.257811 0.4453125,29.5546875 C0.742188984,29.851564 1.09374797,30 1.5,30 L4.5,30 C4.90625203,30 5.25781102,29.851564 5.5546875,29.5546875 C5.85156398,29.257811 6,28.906252 6,28.5 L6,25.5 C6,25.093748 5.85156398,24.742189 5.5546875,24.4453125 C5.25781102,24.148436 4.90625203,24 4.5,24 Z M46.5,25.5 L15,25.5 C14.593748,25.5 14.242189,25.648436 13.9453125,25.9453125 C13.648436,26.242189 13.5,26.593748 13.5,27 C13.5,27.406252 13.648436,27.757811 13.9453125,28.0546875 C14.242189,28.351564 14.593748,28.5 15,28.5 L46.5,28.5 C46.906252,28.5 47.257811,28.351564 47.5546875,28.0546875 C47.851564,27.757811 48,27.406252 48,27 C48,26.593748 47.851564,26.242189 47.5546875,25.9453125 C47.257811,25.648436 46.906252,25.5 46.5,25.5 Z M4.5,0 L1.5,0 C1.09374797,0 0.742188984,0.148436 0.4453125,0.4453125 C0.148436016,0.742189 0,1.093748 0,1.5 L0,4.5 C0,4.906252 0.148436016,5.257811 0.4453125,5.5546875 C0.742188984,5.851564 1.09374797,6 1.5,6 L4.5,6 C4.90625203,6 5.25781102,5.851564 5.5546875,5.5546875 C5.85156398,5.257811 6,4.906252 6,4.5 L6,1.5 C6,1.093748 5.85156398,0.742189 5.5546875,0.4453125 C5.25781102,0.148436 4.90625203,0 4.5,0 Z M15,4.5 L46.5,4.5 C46.906252,4.5 47.257811,4.351564 47.5546875,4.0546875 C47.851564,3.757811 48,3.406252 48,3 C48,2.593748 47.851564,2.242189 47.5546875,1.9453125 C47.257811,1.648436 46.906252,1.5 46.5,1.5 L15,1.5 C14.593748,1.5 14.242189,1.648436 13.9453125,1.9453125 C13.648436,2.242189 13.5,2.593748 13.5,3 C13.5,3.406252 13.648436,3.757811 13.9453125,4.0546875 C14.242189,4.351564 14.593748,4.5 15,4.5 Z"/>
</svg>
