<?xml version="1.0" encoding="utf-8"?>
<!-- Generator: Adobe Illustrator 25.1.0, SVG Export Plug-In . SVG Version: 6.00 Build 0)  -->
<svg version="1.1" id="Capa_1" xmlns="http://www.w3.org/2000/svg" xmlns:xlink="http://www.w3.org/1999/xlink" x="0px" y="0px"
	 viewBox="0 0 24 24" style="enable-background:new 0 0 24 24;" xml:space="preserve">
<style type="text/css">
	.st0{fill:#E73F39;}
</style>
<g>
	<g>
		<path class="st0" d="M23.3,9.4h-2c-0.2-0.8-0.5-1.5-0.9-2.2l1.4-1.4c0.3-0.3,0.3-0.7,0-1l-2.7-2.7c-0.3-0.3-0.7-0.3-1,0l-1.4,1.4
			c-0.7-0.4-1.4-0.7-2.2-0.9v-2c0-0.4-0.3-0.7-0.7-0.7h-3.8C9.7,0,9.4,0.3,9.4,0.7v2C8.7,2.9,7.9,3.2,7.2,3.6L5.8,2.2
			c-0.3-0.3-0.7-0.3-1,0L2.2,4.8c-0.3,0.3-0.3,0.7,0,1l1.4,1.4C3.2,7.9,2.9,8.7,2.7,9.4h-2C0.3,9.4,0,9.7,0,10.1v3.8
			c0,0.4,0.3,0.7,0.7,0.7h2c0.2,0.8,0.5,1.5,0.9,2.2l-1.4,1.4c-0.3,0.3-0.3,0.7,0,1l2.7,2.7c0.3,0.3,0.7,0.3,1,0l1.4-1.4
			c0.7,0.4,1.4,0.7,2.2,0.9v2c0,0.4,0.3,0.7,0.7,0.7h3.8c0.4,0,0.7-0.3,0.7-0.7v-2c0.8-0.2,1.5-0.5,2.2-0.9l1.4,1.4
			c0.3,0.3,0.7,0.3,1,0l2.7-2.7c0.3-0.3,0.3-0.7,0-1l-1.4-1.4c0.4-0.7,0.7-1.4,0.9-2.2h2c0.4,0,0.7-0.3,0.7-0.7v-3.8
			C24,9.7,23.7,9.4,23.3,9.4z M12,17.4c-3,0-5.4-2.4-5.4-5.4S9,6.6,12,6.6S17.4,9,17.4,12S15,17.4,12,17.4z"/>
	</g>
</g>
</svg>
