<svg width="24" height="24" viewBox="0 0 24 24" fill="none" xmlns="http://www.w3.org/2000/svg">
<path fill-rule="evenodd" clip-rule="evenodd" d="M10.9695 2.96954C12.0384 1.90058 13.4883 1.30005 15 1.30005H18C18.3866 1.30005 18.7 1.61345 18.7 2.00005V6.00005C18.7 6.38665 18.3866 6.70005 18 6.70005H15C14.9204 6.70005 14.8441 6.73166 14.7879 6.78792C14.7316 6.84418 14.7 6.92048 14.7 7.00005V9.30005H18C18.2155 9.30005 18.4191 9.39936 18.5517 9.56926C18.6844 9.73916 18.7314 9.9607 18.6791 10.1698L17.6791 14.1698C17.6012 14.4814 17.3212 14.7 17 14.7H14.7V22C14.7 22.3866 14.3866 22.7001 14 22.7001H9.99999C9.61339 22.7001 9.29999 22.3866 9.29999 22V14.7H6.99999C6.61339 14.7 6.29999 14.3866 6.29999 14V10C6.29999 9.61345 6.61339 9.30005 6.99999 9.30005H9.29999V7.00005C9.29999 5.48831 9.90052 4.0385 10.9695 2.96954ZM15 2.70005C13.8596 2.70005 12.7658 3.15308 11.9594 3.95949C11.153 4.7659 10.7 5.85962 10.7 7.00005V10C10.7 10.3866 10.3866 10.7 9.99999 10.7H7.69999V13.3H9.99999C10.3866 13.3 10.7 13.6134 10.7 14V21.3H13.3V14C13.3 13.6134 13.6134 13.3 14 13.3H16.4534L17.1034 10.7H14C13.6134 10.7 13.3 10.3866 13.3 10V7.00005C13.3 6.54918 13.4791 6.11678 13.7979 5.79797C14.1167 5.47916 14.5491 5.30005 15 5.30005H17.3V2.70005H15Z" fill="#132631"/>
</svg>
