<svg width="48" height="48" viewBox="0 0 48 48" fill="none" xmlns="http://www.w3.org/2000/svg">
<path fill-rule="evenodd" clip-rule="evenodd" d="M15.8 11.2C15.3757 11.2 14.9687 11.3686 14.6686 11.6686C14.3686 11.9687 14.2 12.3757 14.2 12.8V35.2909L22.87 29.098C23.4263 28.7007 24.1737 28.7007 24.73 29.098L33.4 35.2909V12.8C33.4 12.3757 33.2314 11.9687 32.9314 11.6686C32.6313 11.3686 32.2243 11.2 31.8 11.2H15.8ZM12.4059 9.40589C13.3061 8.50571 14.527 8 15.8 8H31.8C33.073 8 34.2939 8.50571 35.1941 9.40589C36.0943 10.3061 36.6 11.527 36.6 12.8V38.4C36.6 38.9993 36.265 39.5484 35.7321 39.8227C35.1992 40.0969 34.5577 40.0503 34.07 39.702L23.8 32.3662L13.53 39.702C13.0423 40.0503 12.4008 40.0969 11.8679 39.8227C11.335 39.5484 11 38.9993 11 38.4V12.8C11 11.527 11.5057 10.3061 12.4059 9.40589Z" fill="#20314B"/>
</svg>
