<svg width="48" height="43" viewBox="0 0 48 43" fill="none" xmlns="http://www.w3.org/2000/svg">
<path d="M24 1C12.402 1 3 10.402 3 22C3 33.598 12.4021 43 24 43C35.598 43 45 33.598 45 22C45 10.402 35.598 1 24 1ZM7.51237 22.2189L23.7811 38.4876C14.8477 38.3712 7.62877 31.1523 7.51237 22.2189ZM27.6908 38.0754L7.92461 18.3092C9.6007 10.9788 16.1615 5.50961 24 5.50961C29.4793 5.50961 34.3335 8.18267 37.3322 12.2951L35.049 14.3097C32.6165 10.8214 28.5751 8.53846 24 8.53846C18.1749 8.53846 13.2145 12.2385 11.3395 17.4164L28.5837 34.6606C32.7714 33.1441 35.9922 29.609 37.0708 25.2308H29.9231V22H37.4615V22H40.4904V22C40.4904 29.8385 35.0212 36.3993 27.6908 38.0754Z" fill="#E73F39"/>
</svg>
