<svg xmlns="http://www.w3.org/2000/svg" xmlns:xlink="http://www.w3.org/1999/xlink" width="48" height="48" viewBox="0 0 48 48">
  <defs>
    <path id="gigapixel-a" d="M0,0 L10.6666667,0 L10.6666667,10.6666667 L0,10.6666667 L0,0 Z M10.6666667,18.6666667 L10.6666667,29.3333333 L0,29.3333333 L0,18.6666667 L10.6666667,18.6666667 Z M29.3333333,18.6666667 L29.3333333,29.3333333 L18.6666667,29.3333333 L18.6666667,18.6666667 L29.3333333,18.6666667 Z M48,18.6666667 L48,29.3333333 L37.3333333,29.3333333 L37.3333333,18.6666667 L48,18.6666667 Z M29.3333333,0 L29.3333333,10.6666667 L18.6666667,10.6666667 L18.6666667,0 L29.3333333,0 Z M48,0 L48,10.6666667 L37.3333333,10.6666667 L37.3333333,0 L48,0 Z M10.6666667,37.3333333 L10.6666667,48 L0,48 L0,37.3333333 L10.6666667,37.3333333 Z M29.3333333,37.3333333 L29.3333333,48 L18.6666667,48 L18.6666667,37.3333333 L29.3333333,37.3333333 Z M48,37.3333333 L48,48 L37.3333333,48 L37.3333333,37.3333333 L48,37.3333333 Z"/>
  </defs>
  <use fill="#E73F39" fill-rule="evenodd" xlink:href="#gigapixel-a"/>
</svg>
