<svg xmlns="http://www.w3.org/2000/svg" width="48" height="48" viewBox="0 0 48 48">
  <defs>
    <filter id="graphql-a">
      <feColorMatrix in="SourceGraphic" values="0 0 0 0 0.905882 0 0 0 0 0.247059 0 0 0 0 0.223529 0 0 0 1.000000 0"/>
    </filter>
  </defs>
  <g fill="none" fill-rule="evenodd" filter="url(#graphql-a)">
    <path fill="#000" fill-rule="nonzero" d="M23.7290909,5.00181818 L32.7018182,10.1836364 C34.1854545,8.62181818 36.6527273,8.56 38.2145455,10.0436364 C38.4836364,10.2981818 38.7127273,10.5909091 38.9,10.9109091 C39.9709091,12.78 39.3218182,15.1636364 37.4527273,16.2345455 C37.1363636,16.4163636 36.7963636,16.5527273 36.4381818,16.64 L36.4381818,27.0018182 C38.5218182,27.4981818 39.8090909,29.5890909 39.3109091,31.6727273 C39.2236364,32.0436364 39.08,32.4 38.8890909,32.7290909 C37.8127273,34.5890909 35.4327273,35.2272727 33.5672727,34.1509091 C33.2109091,33.9454545 32.8854545,33.68 32.6109091,33.3709091 L23.6927273,38.52 C24.3690909,40.5636364 23.26,42.7654545 21.2181818,43.44 C20.8236364,43.5690909 20.4145455,43.6363651 20,43.6363651 C17.8527273,43.6381818 16.1109091,41.9 16.1090909,39.7527273 C16.1090909,39.38 16.1618182,39.0072727 16.2690909,38.6454545 L7.29454545,33.4690909 C5.81090909,35.0218182 3.34727273,35.0818182 1.79272727,33.5963636 C0.24,32.1127273 0.181818182,29.6490909 1.66545455,28.0945455 C2.18,27.5545455 2.84,27.1745455 3.56363636,26.9981818 L3.56545455,16.6363636 C1.47454545,16.1345455 0.187272727,14.0309091 0.690909091,11.9381818 C0.776363636,11.5781818 0.914545455,11.2309091 1.09818182,10.9090909 C2.17454545,9.04727273 4.55636364,8.41090909 6.42,9.48727273 C6.74181818,9.67090909 7.03636364,9.90181818 7.29272727,10.1727273 L16.2709091,4.99090909 C15.66,2.93090909 16.8363636,0.769090909 18.8909091,0.16 C19.2490909,0.0527272727 19.6254545,-1.42658808e-06 20,-1.42658808e-06 C22.1472727,-0.00181818182 23.8890909,1.73454545 23.8909091,3.88 C23.8927273,4.26 23.8363636,4.64 23.7290909,5.00181818 Z M22.7927273,6.59636364 C22.7581818,6.63454545 22.7254545,6.66727273 22.6872727,6.70181818 L34.4345455,27.0472727 C34.4818182,27.0309091 34.5363636,27.0181818 34.5836364,27.0054545 L34.5836364,16.6290909 C32.5018182,16.1145455 31.2345455,14.0072727 31.7509091,11.9236364 C31.7618182,11.88 31.7727273,11.8345455 31.7854545,11.7927273 L22.7927273,6.59636364 Z M17.3109091,6.70363636 L17.2018182,6.59454545 L8.20909091,11.78 C8.80363636,13.8436364 7.61454545,15.9945455 5.55272727,16.5890909 C5.50545455,16.6036364 5.46,16.6145455 5.41454545,16.6272727 L5.41454545,27.0054545 L5.56727273,27.0472727 L17.3145455,6.70181818 L17.3109091,6.70363636 Z M21.0854545,7.62545455 C20.3763636,7.82909091 19.6254545,7.82909091 18.9181818,7.62545455 L7.17272727,27.9690909 C7.70727273,28.4836364 8.08545455,29.1418182 8.26363636,29.8618182 L31.7381818,29.8618182 C31.9145455,29.1381818 32.2963636,28.4781818 32.8345455,27.9636364 L21.0854545,7.62545455 Z M22.8781818,37.1290909 L31.8109091,31.9690909 C31.7836364,31.8836364 31.7618182,31.7981818 31.7418182,31.7109091 L8.25818182,31.7109091 L8.22,31.8618182 L17.2,37.0472727 C17.9054545,36.3127273 18.8981818,35.86 20,35.86 C21.14,35.86 22.1636364,36.3490909 22.8781818,37.1290909 Z" transform="translate(4 2)"/>
  </g>
</svg>
