<svg xmlns="http://www.w3.org/2000/svg" width="44" height="48" viewBox="0 0 44 48">
  <path fill="#E73F39" d="M25.4620541,5.50200278 L35.3320534,11.2020024 C36.9640533,9.48400252 39.6780531,9.41600252 41.396053,11.0480024 C41.692053,11.3280024 41.944053,11.6500024 42.150053,12.0020024 C43.3280529,14.0580022 42.6140529,16.680002 40.5580531,17.858002 C40.2100531,18.058002 39.8360531,18.2080019 39.4420532,18.3040019 L39.4420532,29.7020012 C41.734053,30.2480012 43.1500529,32.548001 42.6020529,34.8400009 C42.506053,35.2480008 42.348053,35.6400008 42.138053,36.0020008 C40.9540531,38.0480006 38.3360532,38.7500006 36.2840534,37.5660007 C35.8920534,37.3400007 35.5340534,37.0480007 35.2320534,36.7080007 L25.4220541,42.3720004 C26.166054,44.6200002 24.9460541,47.0420001 22.7000542,47.784 C22.2660543,47.926 21.8160543,48.0000016 21.3600543,48.0000016 C18.9980545,48.002 17.0820546,46.0900001 17.0800546,43.7280003 C17.0800546,43.3180003 17.1380546,42.9080003 17.2560546,42.5100004 L7.38405525,36.8160007 C5.75205535,38.5240006 3.04205553,38.5900006 1.33205564,36.9560007 C-0.375944246,35.3240008 -0.439944242,32.614001 1.19205565,30.9040011 C1.75805561,30.3100012 2.48405557,29.8920012 3.28005551,29.6980012 L3.28205551,18.3000019 C0.982055665,17.748002 -0.433944243,15.4340021 0.120055721,13.1320023 C0.214055715,12.7360023 0.366055705,12.3540023 0.568055692,12.0000016 C1.75205561,9.95200249 4.37205544,9.25200253 6.42205531,10.4360025 C6.77605529,10.6380024 7.10005526,10.8920024 7.38205525,11.1900024 L17.2580546,5.49000278 C16.5860546,3.22400293 17.8800546,0.846003081 20.1400544,0.176003125 C20.5340544,0.0580031322 20.9480544,1.56678633e-06 21.3600543,1.56678633e-06 C23.7220542,-0.00199686384 25.6380541,1.90800301 25.6400541,4.26800286 C25.6420541,4.68600283 25.5800541,5.1040028 25.4620541,5.50200278 Z M24.4320541,7.25600266 C24.3940541,7.29800266 24.3580541,7.33400266 24.3160541,7.37200265 L37.2380533,29.7520012 C37.2900533,29.7340012 37.3500533,29.7200012 37.4020533,29.7060012 L37.4020533,18.2920019 C35.1120534,17.726002 33.7180535,15.4080021 34.2860535,13.1160023 C34.2980535,13.0680023 34.3100535,13.0180023 34.3240535,12.9720023 L24.4320541,7.25600266 Z M18.4020545,7.37400265 L18.2820545,7.25400266 L8.39005518,12.9580023 C9.04405514,15.2280021 7.73605522,17.594002 5.46805537,18.2480019 C5.41605538,18.2640019 5.36605538,18.2760019 5.31605538,18.2900019 L5.31605538,29.7060012 L5.48405537,29.7520012 L18.4060545,7.37200265 L18.4020545,7.37400265 Z M22.5540543,8.38800259 C21.7740543,8.61200257 20.9480544,8.61200257 20.1700544,8.38800259 L7.25005526,30.7660011 C7.83805522,31.3320011 8.25405519,32.056001 8.45005518,32.848001 L34.2720535,32.848001 C34.4660535,32.052001 34.8860534,31.3260011 35.4780534,30.7600011 L22.5540543,8.38800259 Z M24.5260541,40.8420005 L34.3520535,35.1660008 C34.3220535,35.0720008 34.2980535,34.9780009 34.2760535,34.8820009 L8.44405518,34.8820009 L8.40205518,35.0480008 L18.2800545,40.7520005 C19.0560545,39.9440005 20.1480544,39.4460006 21.3600543,39.4460006 C22.6140543,39.4460006 23.7400542,39.9840005 24.5260541,40.8420005 Z" transform="translate(.635)"/>
</svg>
