<?xml version="1.0" encoding="UTF-8"?>
<svg width="72px" height="62px" viewBox="0 0 72 62" version="1.1" xmlns="http://www.w3.org/2000/svg" xmlns:xlink="http://www.w3.org/1999/xlink">
  <g stroke="none" stroke-width="1" fill="none" fill-rule="evenodd">
    <g transform="translate(-52.000000, -75.000000)" fill="#FFFFFF">
      <path d="M104.79,75 C97.76,75 91.17,80.56 88,83.7 C84.83,80.56 78.24,75 71.21,75 C59.19,75 52,82.05 52,93.86 C52,103.53 60.84,111.62 61.16,111.91 L86.23,136.16 C86.71,136.64 87.35,136.89 88,136.89 C88.65,136.89 89.29,136.65 89.77,136.16 L114.8,111.98 C115.16,111.62 124,103.52 124,93.85 C124,82.05 116.81,75 104.79,75 Z M111.55,107.95 L88.19,130.5 L64.79,107.91 C64.71,107.83 57.26,100.97 57.26,93.59 C57.26,82.25 64.91,79.87 71.36,79.87 C77.36,79.87 84.13,86.36 86.22,88.87 C87.19,90.04 89.2,90.04 90.17,88.87 C92.26,86.37 99.03,79.87 105.03,79.87 C111.48,79.87 119.13,82.25 119.13,93.59 C119.12,100.97 111.67,107.83 111.55,107.95 Z"></path>
    </g>
  </g>
</svg>
