<svg width="48" height="48" viewBox="0 0 48 48" fill="none" xmlns="http://www.w3.org/2000/svg">
<path d="M25.4545 15.2727C25.4545 14.4694 24.8033 13.8182 24 13.8182C23.1967 13.8182 22.5455 14.4694 22.5455 15.2727V24C22.5455 24.5509 22.8567 25.0546 23.3495 25.301L29.1677 28.2101C29.8862 28.5693 30.7599 28.2781 31.1192 27.5596C31.4784 26.8411 31.1872 25.9674 30.4687 25.6081L25.4545 23.101V15.2727Z" fill="#E73F39"/>
<path fill-rule="evenodd" clip-rule="evenodd" d="M24 8C15.1634 8 8 15.1634 8 24C8 32.8366 15.1634 40 24 40C32.8366 40 40 32.8366 40 24C40 15.1634 32.8366 8 24 8ZM10.9091 24C10.9091 16.7701 16.7701 10.9091 24 10.9091C31.2299 10.9091 37.0909 16.7701 37.0909 24C37.0909 31.2299 31.2299 37.0909 24 37.0909C16.7701 37.0909 10.9091 31.2299 10.9091 24Z" fill="#E73F39"/>
</svg>
