<svg xmlns="http://www.w3.org/2000/svg" xmlns:xlink="http://www.w3.org/1999/xlink" width="48" height="48" viewBox="0 0 48 48">
  <defs>
    <path id="html-a" d="M42.7512661,23.7184447 L35.5518271,16.5184447 C34.9333375,15.9807383 34.6683343,15.1417492 34.8657322,14.3462964 C35.0631301,13.5508435 35.6896276,12.9331218 36.4877383,12.7470108 C37.2858489,12.5608999 38.1209296,12.837797 38.6497675,13.4638992 L47.3763603,22.191172 C48.2078799,23.0395578 48.2078799,24.3973316 47.3763603,25.2457174 L38.6497675,33.9729902 C37.7894924,34.7209015 36.4984916,34.6804102 35.6867689,33.880058 C34.8750463,33.0797057 34.8162511,31.7893085 35.5518271,30.9184447 L42.7512661,23.7184447 L42.7512661,23.7184447 Z M5.24873389,23.7184447 L12.4481729,30.9184447 C13.1837489,31.7893085 13.1249537,33.0797057 12.3132311,33.880058 C11.5015084,34.6804102 10.2105076,34.7209015 9.35023247,33.9729902 L0.623639747,25.2457174 C-0.207879916,24.3973316 -0.207879916,23.0395578 0.623639747,22.191172 L9.35023247,13.4638992 C10.2105076,12.7159879 11.5015084,12.7564792 12.3132311,13.5568314 C13.1249537,14.3571837 13.1837489,15.6475809 12.4481729,16.5184447 L5.24873389,23.7184447 Z M21.7419941,41.6966265 C21.4166469,42.8226678 20.2598101,43.4904319 19.1221007,43.2089149 C17.9843913,42.9273978 17.272376,41.7972013 17.5095967,40.6493538 L26.2361894,5.74026288 C26.39803,4.95715896 26.975267,4.3253408 27.7405603,4.09364469 C28.5058536,3.86194858 29.3365694,4.06750251 29.9055371,4.62935079 C30.4745049,5.19119907 30.6905507,6.01930869 30.4685869,6.78753561 L21.7419941,41.6966265 L21.7419941,41.6966265 Z"/>
  </defs>
  <g fill="none" fill-rule="evenodd">
    <polygon points="0 0 48 0 48 48 0 48"/>
    <use fill="#E73F39" fill-rule="nonzero" xlink:href="#html-a"/>
  </g>
</svg>
