<?xml version="1.0" encoding="UTF-8"?>
<svg version="1.1" viewBox="0 0 28 30" xmlns="http://www.w3.org/2000/svg">
<g fill="none" fill-rule="evenodd">
<g fill="#fff" fill-rule="nonzero">
<path d="m14 6c-4.3401 0.1832-7.8168 3.6599-8 8 0.016319 2.121 0.8344 4.1573 2.29 5.7 1.0128 0.80725 1.6345 2.0071 1.71 3.3 0 0.55228 0.44772 1 1 1h6c0.55228 0 1-0.44772 1-1 0.06346-1.286 0.67961-2.4819 1.69-3.28 1.5163-1.5129 2.3505-3.5784 2.31-5.72 0.0016777-2.192-0.87752-4.2927-2.44-5.83-1.4843-1.4443-3.4897-2.227-5.56-2.17zm4.34 12.28c-1.1329 0.96374-1.9225 2.2691-2.25 3.72h-4.18c-0.32455-1.4374-1.0944-2.7357-2.2-3.71-1.0832-1.1679-1.6928-2.6972-1.71-4.29 0.14673-3.251 2.749-5.8533 6-6 1.5374-0.053317 3.0297 0.52481 4.13 1.6 1.1903 1.1551 1.8645 2.7414 1.87 4.4 0.03573 1.596-0.57353 3.139-1.69 4.28h0.03z"/>
<path id="Path" d="m17 25h-6c-0.55228 0-1 0.44772-1 1s0.44772 1 1 1h6c0.55228 0 1-0.44772 1-1s-0.44772-1-1-1z"/>
<path id="Path" d="m16 28h-4c-0.55228 0-1 0.44772-1 1s0.44772 1 1 1h4c0.55228 0 1-0.44772 1-1s-0.44772-1-1-1z"/>
<path id="Path" d="m14 4c0.55228 0 1-0.44772 1-1v-2c0-0.55228-0.44772-1-1-1s-1 0.44772-1 1v2c0 0.55228 0.44772 1 1 1z"/>
<path id="Path" d="m3 13h-2c-0.55228 0-1 0.44772-1 1s0.44772 1 1 1h2c0.55228 0 1-0.44772 1-1s-0.44772-1-1-1z"/>
<path id="Path" d="m27 13h-2c-0.55228 0-1 0.44772-1 1s0.44772 1 1 1h2c0.55228 0 1-0.44772 1-1s-0.44772-1-1-1z"/>
<path id="a" d="m23.9 4.1c-0.39004-0.38772-1.02-0.38772-1.41 0l-1.42 1.41c-0.18931 0.18777-0.2958 0.44336-0.2958 0.71s0.10649 0.52223 0.2958 0.71c0.18872 0.18719 0.4442 0.29154 0.71 0.29002 0.2658 0.00152 0.52128-0.10283 0.71-0.29002l1.41-1.42c0.38772-0.39004 0.38772-1.02 0-1.41z"/>
<path d="m6.93 6.93c0.18931-0.18777 0.2958-0.44336 0.2958-0.71s-0.10649-0.52223-0.2958-0.71l-1.42-1.41c-0.39676-0.33978-0.98819-0.31693-1.3576 0.052437s-0.39221 0.9608-0.052437 1.3576l1.41 1.42c0.18872 0.18719 0.4442 0.29154 0.71 0.29002 0.2658 0.00152 0.52128-0.10283 0.71-0.29002z"/>
</g>
</g>
</svg>
