<svg width="24" height="24" viewBox="0 0 24 24" fill="" xmlns="http://www.w3.org/2000/svg">
<path fill-rule="evenodd" clip-rule="evenodd" d="M4.7 3.4C4.35522 3.4 4.02456 3.53696 3.78076 3.78076C3.53696 4.02456 3.4 4.35522 3.4 4.7V19.0101L6.20503 16.205C6.3363 16.0737 6.51435 16 6.7 16H18.7C19.0448 16 19.3754 15.863 19.6192 15.6192C19.863 15.3754 20 15.0448 20 14.7V4.7C20 4.35522 19.863 4.02456 19.6192 3.78076C19.3754 3.53696 19.0448 3.4 18.7 3.4H4.7ZM2.79081 2.79081C3.29716 2.28446 3.98392 2 4.7 2H18.7C19.4161 2 20.1028 2.28446 20.6092 2.79081C21.1155 3.29716 21.4 3.98392 21.4 4.7V14.7C21.4 15.4161 21.1155 16.1028 20.6092 16.6092C20.1028 17.1155 19.4161 17.4 18.7 17.4H6.98995L3.19497 21.195C2.99478 21.3952 2.69369 21.4551 2.43212 21.3467C2.17055 21.2384 2 20.9831 2 20.7V4.7C2 3.98392 2.28446 3.29716 2.79081 2.79081Z" fill=""/>
</svg>
