<svg width="48" height="48" viewBox="0 0 48 48" fill="none" xmlns="http://www.w3.org/2000/svg">
<circle cx="13" cy="32" r="8" fill="#BBCAE2"/>
<path fill-rule="evenodd" clip-rule="evenodd" d="M24 40C32.8366 40 40 32.8366 40 24C40 15.1634 32.8366 8 24 8C15.1634 8 8 15.1634 8 24C8 32.8366 15.1634 40 24 40ZM20.6919 11.3307C15.5183 12.6778 11.5898 17.1102 10.989 22.5455H16.8001C17.1262 18.5263 18.4714 14.6682 20.6919 11.3307ZM27.3081 11.3307C29.5286 14.6682 30.8738 18.5263 31.1999 22.5455H37.011C36.4102 17.1102 32.4817 12.6778 27.3081 11.3307ZM28.2799 22.5455C27.9145 18.599 26.4286 14.8392 24 11.7102C21.5714 14.8392 20.0855 18.599 19.7201 22.5455H28.2799ZM19.7201 25.4545H28.2799C27.9145 29.401 26.4286 33.1608 24 36.2897C21.5714 33.1608 20.0855 29.401 19.7201 25.4545ZM16.8001 25.4545H10.989C11.5898 30.8898 15.5183 35.3222 20.6919 36.6693C18.4714 33.3318 17.1262 29.4737 16.8001 25.4545ZM27.3081 36.6693C29.5286 33.3318 30.8738 29.4737 31.1999 25.4545H37.011C36.4102 30.8898 32.4817 35.3222 27.3081 36.6693Z" fill="#20314B"/>
</svg>
