<svg width="24" height="24" viewBox="0 0 24 24" fill="none" xmlns="http://www.w3.org/2000/svg">
<path fill-rule="evenodd" clip-rule="evenodd" d="M7.26732 2.83701C4.8925 2.83701 2.96732 4.76219 2.96732 7.13701V17.137C2.96732 19.5118 4.8925 21.437 7.26732 21.437H17.2673C19.6421 21.437 21.5673 19.5118 21.5673 17.137V7.13701C21.5673 4.76219 19.6421 2.83701 17.2673 2.83701H7.26732ZM1.56732 7.13701C1.56732 3.98899 4.1193 1.43701 7.26732 1.43701H17.2673C20.4153 1.43701 22.9673 3.98899 22.9673 7.13701V17.137C22.9673 20.285 20.4153 22.837 17.2673 22.837H7.26732C4.1193 22.837 1.56732 20.285 1.56732 17.137V7.13701ZM12.7946 8.82944C12.108 8.72762 11.4068 8.8449 10.7907 9.16459C10.1746 9.48427 9.67498 9.99009 9.36291 10.6101C9.05084 11.2301 8.94222 11.9327 9.0525 12.618C9.16277 13.3033 9.48632 13.9364 9.97713 14.4272C10.4679 14.918 11.101 15.2416 11.7863 15.3518C12.4716 15.4621 13.1742 15.3535 13.7942 15.0414C14.4142 14.7294 14.9201 14.2297 15.2397 13.6136C15.5594 12.9975 15.6767 12.2963 15.5749 11.6097C15.471 10.9093 15.1447 10.2609 14.644 9.76029C14.1434 9.25964 13.495 8.93329 12.7946 8.82944ZM10.1459 7.92191C11.0234 7.4666 12.0221 7.29957 13 7.44458C13.9975 7.59249 14.9209 8.0573 15.634 8.77034C16.347 9.48338 16.8118 10.4068 16.9597 11.4043C17.1048 12.3822 16.9377 13.3809 16.4824 14.2584C16.0271 15.1359 15.3067 15.8475 14.4237 16.2919C13.5406 16.7364 12.5399 16.8911 11.5639 16.7341C10.5879 16.577 9.68622 16.1162 8.98718 15.4171C8.28815 14.7181 7.82733 13.8165 7.67028 12.8404C7.51322 11.8644 7.66792 10.8637 8.11238 9.98067C8.55684 9.09763 9.26842 8.37723 10.1459 7.92191ZM17.7673 5.93701C17.3807 5.93701 17.0673 6.25041 17.0673 6.63701C17.0673 7.02361 17.3807 7.33701 17.7673 7.33701H17.7773C18.1639 7.33701 18.4773 7.02361 18.4773 6.63701C18.4773 6.25041 18.1639 5.93701 17.7773 5.93701H17.7673Z" fill="#132631"/>
</svg>
