<svg width="25" height="25" viewBox="0 0 25 25" fill="none" xmlns="http://www.w3.org/2000/svg">
<path fill-rule="evenodd" clip-rule="evenodd" d="M2.9 5.4002C2.9 4.68223 3.48203 4.1002 4.2 4.1002C4.91797 4.1002 5.5 4.68223 5.5 5.4002C5.5 6.11817 4.91797 6.7002 4.2 6.7002C3.48203 6.7002 2.9 6.11817 2.9 5.4002ZM4.2 2.7002C2.70883 2.7002 1.5 3.90903 1.5 5.4002C1.5 6.89136 2.70883 8.10019 4.2 8.10019C5.69117 8.10019 6.9 6.89136 6.9 5.4002C6.9 3.90903 5.69117 2.7002 4.2 2.7002ZM16.2 10.1002C14.7944 10.1002 13.4463 10.6586 12.4523 11.6525C11.4584 12.6465 10.9 13.9945 10.9 15.4002V21.7002H13.5V15.4002C13.5 14.6841 13.7845 13.9974 14.2908 13.491C14.7972 12.9847 15.4839 12.7002 16.2 12.7002C16.9161 12.7002 17.6028 12.9847 18.1092 13.491C18.6155 13.9974 18.9 14.6841 18.9 15.4002V21.7002H21.5V15.4002C21.5 13.9945 20.9416 12.6465 19.9477 11.6525C18.9537 10.6586 17.6056 10.1002 16.2 10.1002ZM16.2 8.7002C14.423 8.7002 12.7189 9.40609 11.4624 10.6626C10.2059 11.9191 9.5 13.6232 9.5 15.4002V22.4002C9.5 22.7868 9.8134 23.1002 10.2 23.1002H14.2C14.5866 23.1002 14.9 22.7868 14.9 22.4002V15.4002C14.9 15.0554 15.037 14.7248 15.2808 14.481C15.5246 14.2372 15.8552 14.1002 16.2 14.1002C16.5448 14.1002 16.8754 14.2372 17.1192 14.481C17.363 14.7248 17.5 15.0554 17.5 15.4002V22.4002C17.5 22.7868 17.8134 23.1002 18.2 23.1002H22.2C22.5866 23.1002 22.9 22.7868 22.9 22.4002V15.4002C22.9 13.6232 22.1941 11.9191 20.9376 10.6626C19.6811 9.40609 17.9769 8.7002 16.2 8.7002ZM1.5 10.4002C1.5 10.0136 1.8134 9.7002 2.2 9.7002H6.2C6.5866 9.7002 6.9 10.0136 6.9 10.4002V22.4002C6.9 22.7868 6.5866 23.1002 6.2 23.1002H2.2C1.8134 23.1002 1.5 22.7868 1.5 22.4002V10.4002ZM2.9 11.1002V21.7002H5.5V11.1002H2.9Z" fill="#132631"/>
</svg>
