<svg xmlns="http://www.w3.org/2000/svg" xmlns:xlink="http://www.w3.org/1999/xlink" width="20" height="20" viewBox="0 0 20 20">
  <defs>
    <path id="link-a" d="M5.78125,14.296875 C5.65104102,14.1796869 5.5859375,14.0364592 5.5859375,13.8671875 C5.5859375,13.6979158 5.65104102,13.5481777 5.78125,13.4179688 L13.3398438,5.80078125 C13.4700527,5.67057227 13.6197908,5.60546875 13.7890625,5.60546875 C13.9583342,5.60546875 14.1080723,5.67057227 14.2382812,5.80078125 C14.3554693,5.91796934 14.4140625,6.06119707 14.4140625,6.23046875 C14.4140625,6.39974043 14.3554693,6.54947852 14.2382812,6.6796875 L6.66015625,14.296875 C6.59505176,14.3619795 6.52343789,14.4108071 6.4453125,14.4433594 C6.36718711,14.4759116 6.28906289,14.4921875 6.2109375,14.4921875 C6.13281211,14.4921875 6.05468789,14.4759116 5.9765625,14.4433594 C5.89843711,14.4108071 5.83333359,14.3619795 5.78125,14.296875 Z M9.296875,12.96875 L10.2929687,11.9921875 C10.6054703,12.7343787 10.6966152,13.499345 10.5664062,14.2871094 C10.4361973,15.0748737 10.0651072,15.7682262 9.453125,16.3671875 L6.93359375,18.8085938 C6.5429668,19.2122416 6.09700771,19.5117178 5.59570312,19.7070312 C5.09439854,19.9023447 4.58333594,20 4.0625,20 C3.54166406,20 3.03060146,19.9023447 2.52929687,19.7070312 C2.02799229,19.5117178 1.5820332,19.2122416 1.19140625,18.8085938 C0.787758398,18.4179668 0.488282227,17.9720077 0.29296875,17.4707031 C0.0976552734,16.9693985 0,16.4583359 0,15.9375 C0,15.4166641 0.0976552734,14.9088566 0.29296875,14.4140625 C0.488282227,13.9192684 0.787758398,13.4700541 1.19140625,13.0664062 L3.65234375,10.5273438 C4.0429707,10.1367168 4.48892979,9.8404958 4.99023437,9.63867188 C5.49153896,9.43684795 6.00260156,9.3359375 6.5234375,9.3359375 C6.82291816,9.3359375 7.11588398,9.36848926 7.40234375,9.43359375 C7.68880352,9.49869824 7.96874863,9.59635352 8.2421875,9.7265625 L7.265625,10.703125 C7.14843691,10.6640623 7.02799541,10.6347657 6.90429687,10.6152344 C6.78059834,10.595703 6.65364648,10.5859375 6.5234375,10.5859375 C6.14583145,10.5859375 5.78450693,10.6575514 5.43945312,10.8007812 C5.09439932,10.9440111 4.79166797,11.145832 4.53125,11.40625 L2.0703125,13.9648438 C1.52343477,14.4987006 1.25,15.1562461 1.25,15.9375 C1.25,16.7187539 1.52343477,17.3828098 2.0703125,17.9296875 C2.34375137,18.1901055 2.64973789,18.3919264 2.98828125,18.5351562 C3.32682461,18.6783861 3.68489395,18.75 4.0625,18.75 C4.44010605,18.75 4.79817539,18.6783861 5.13671875,18.5351562 C5.47526211,18.3919264 5.78124863,18.1901055 6.0546875,17.9296875 L8.57421875,15.4882812 C8.92578301,15.136717 9.16015566,14.7428407 9.27734375,14.3066406 C9.39453184,13.8704405 9.40104219,13.4244814 9.296875,12.96875 Z M18.8085938,1.19140625 C19.2122416,1.5820332 19.5117178,2.02799229 19.7070312,2.52929688 C19.9023447,3.03060146 20,3.54166406 20,4.0625 C20,4.58333594 19.9023447,5.09114336 19.7070312,5.5859375 C19.5117178,6.08073164 19.2122416,6.5299459 18.8085938,6.93359375 L16.2890625,9.453125 C15.8984355,9.84375195 15.4524765,10.1399729 14.9511719,10.3417969 C14.4498673,10.5436208 13.9388047,10.6445312 13.4179688,10.6445312 C13.1575508,10.6445312 12.8971367,10.6250002 12.6367188,10.5859375 C12.3763008,10.5468748 12.1223971,10.4752609 11.875,10.3710938 L12.8710937,9.375 C12.96224,9.3880209 13.053385,9.39453125 13.1445312,9.39453125 L13.4179688,9.39453125 C13.7955748,9.39453125 14.1568993,9.32291738 14.5019531,9.1796875 C14.8470069,9.03645762 15.1497383,8.83463672 15.4101562,8.57421875 L17.9296875,6.03515625 C18.4765652,5.50129941 18.75,4.84375391 18.75,4.0625 C18.75,3.28124609 18.4765652,2.61719023 17.9296875,2.0703125 C17.6562486,1.80989453 17.3502621,1.60807363 17.0117188,1.46484375 C16.6731754,1.32161387 16.3151061,1.25 15.9375,1.25 C15.5598939,1.25 15.2018246,1.32161387 14.8632812,1.46484375 C14.5247379,1.60807363 14.2187514,1.80989453 13.9453125,2.0703125 L11.4257812,4.51171875 C11.0481752,4.8893248 10.804037,5.32877354 10.6933594,5.83007812 C10.5826817,6.33138271 10.5989576,6.82291426 10.7421875,7.3046875 L9.765625,8.28125 C9.40103984,7.52603789 9.28385352,6.7187543 9.4140625,5.859375 C9.54427148,5 9.92187187,4.25781562 10.546875,3.6328125 L13.0664062,1.19140625 C13.4570332,0.787758398 13.9029923,0.488282227 14.4042969,0.29296875 C14.9056015,0.0976552734 15.4166641,0 15.9375,0 C16.4583359,0 16.9693985,0.0976552734 17.4707031,0.29296875 C17.9720077,0.488282227 18.4179668,0.787758398 18.8085938,1.19140625 Z"/>
  </defs>
  <use fill="#FFF" fill-rule="evenodd" xlink:href="#link-a"/>
</svg>
