<svg width="48" height="48" viewBox="0 0 48 48" fill="none" xmlns="http://www.w3.org/2000/svg">
<path d="M25.3392 0C28.2857 0 30.9211 0.48437 33.2455 1.45313C35.5699 2.42188 37.526 3.74218 39.1138 5.41406C40.7016 7.08595 41.9129 9.03124 42.7477 11.25C43.5825 13.4688 43.9999 15.8125 43.9999 18.2813C43.9999 20.7813 43.4843 23.3359 42.4531 25.9453C41.4218 28.5547 40.1205 31.1172 38.549 33.6328C36.9776 36.1485 35.2752 38.5312 33.4419 40.7813C31.6086 43.0313 29.8898 45.0312 28.2856 46.7813C28.2856 46.8125 28.0401 47.0234 27.549 47.4141C27.058 47.8047 26.4851 48 25.8303 48H25.683C24.9955 48 24.4144 47.8047 23.9397 47.4141C23.465 47.0234 23.2276 46.8125 23.2276 46.7813C21.5252 44.9062 19.6837 42.8594 17.7031 40.6406C15.7224 38.4219 13.8891 36.086 12.2031 33.6328C10.517 31.1797 9.10931 28.6563 7.97984 26.0625C6.85037 23.4687 6.28564 20.875 6.28564 18.2813C6.28564 15.8125 6.79308 13.4688 7.80797 11.25C8.82285 9.03124 10.1978 7.08595 11.933 5.41406C13.6681 3.74218 15.6897 2.42188 17.9977 1.45313C20.3057 0.48437 22.7529 0 25.3392 0ZM25.9285 44.7656C28.4166 42.0469 30.5937 39.4531 32.4598 36.9844C34.3258 34.5156 35.8809 32.1797 37.1249 29.9766C38.369 27.7734 39.302 25.6953 39.924 23.7422C40.5461 21.7891 40.8571 19.9688 40.8571 18.2813C40.8571 16.375 40.5543 14.5078 39.9486 12.6797C39.3429 10.8516 38.4017 9.21876 37.1249 7.78125C35.8481 6.34374 34.2358 5.1875 32.2879 4.3125C30.34 3.4375 28.0238 3 25.3392 3C23.1785 3 21.1324 3.40625 19.2008 4.21875C17.2693 5.03125 15.5833 6.13281 14.1428 7.52344C12.7023 8.91407 11.5565 10.5391 10.7053 12.3984C9.85409 14.2578 9.4285 16.2187 9.4285 18.2813C9.4285 20.5 9.91957 22.75 10.9017 25.0313C11.8839 27.3125 13.1279 29.5547 14.6339 31.7578C16.1398 33.9609 17.7931 36.0859 19.5937 38.1328C21.3943 40.1797 23.0966 42.0937 24.7008 43.875L25.5356 44.7656L25.7321 44.9531C25.7648 44.9219 25.8057 44.8906 25.8548 44.8594C25.9039 44.8281 25.9285 44.7969 25.9285 44.7656ZM25.1919 9.04688C27.811 9.04688 30.0371 9.92968 31.8705 11.6953C33.7038 13.4609 34.6205 15.5781 34.6205 18.0469C34.6205 20.5469 33.7038 22.6719 31.8705 24.4219C30.0371 26.1719 27.811 27.0469 25.1919 27.0469C22.6056 27.0469 20.3876 26.1719 18.5379 24.4219C16.6882 22.6719 15.7633 20.5469 15.7633 18.0469C15.7633 15.5781 16.6882 13.4609 18.5379 11.6953C20.3876 9.92968 22.6056 9.04688 25.1919 9.04688ZM25.1919 24.0469C26.927 24.0469 28.4002 23.4531 29.6115 22.2656C30.8229 21.0781 31.4285 19.6563 31.4285 18C31.4285 16.3437 30.8147 14.9297 29.587 13.7578C28.3593 12.5859 26.8779 12 25.1428 12C23.4077 12 21.9263 12.5859 20.6986 13.7578C19.4709 14.9297 18.8571 16.3437 18.8571 18C18.8571 19.6563 19.4791 21.0781 20.7231 22.2656C21.9672 23.4531 23.4568 24.0469 25.1919 24.0469Z" fill="#E73F39"/>
</svg>
