<svg xmlns="http://www.w3.org/2000/svg" xmlns:xlink="http://www.w3.org/1999/xlink" width="36" height="36" viewBox="0 0 36 36">
  <defs>
    <path id="location-a" d="M19.0044643,0 C21.2142968,0 23.1908395,0.363277617 24.9341518,1.08984375 C26.6774641,1.81640988 28.1445253,2.80663436 29.3353795,4.06054688 C30.5262336,5.31445939 31.4347067,6.77342918 32.0608259,8.4375 C32.6869451,10.1015708 33,11.8593657 33,13.7109375 C33,15.5859469 32.6132851,17.5019433 31.8398437,19.4589844 C31.0664024,21.4160254 30.0904077,23.3378812 28.9118304,25.2246094 C27.733253,27.1113376 26.4564801,28.8984291 25.0814732,30.5859375 C23.7064663,32.2734459 22.4174167,33.7734309 21.2142857,35.0859375 C21.2142857,35.1093751 21.0301358,35.2675767 20.6618304,35.5605469 C20.2935249,35.8535171 19.8638417,36 19.3727679,36 L19.2622768,36 C18.7466492,36 18.3108277,35.8535171 17.9547991,35.5605469 C17.5987705,35.2675767 17.4207589,35.1093751 17.4207589,35.0859375 C16.1439668,33.6796805 14.7628422,32.1445396 13.2773438,30.4804688 C11.7918453,28.8163979 10.416859,27.0644623 9.15234375,25.2246094 C7.8878285,23.3847564 6.83203549,21.4921972 5.98493304,19.546875 C5.13783059,17.6015528 4.71428571,15.6562597 4.71428571,13.7109375 C4.71428571,11.8593657 5.09486227,10.1015708 5.85602679,8.4375 C6.61719131,6.77342918 7.64843099,5.31445939 8.94977679,4.06054688 C10.2511226,2.80663436 11.7672905,1.81640988 13.4983259,1.08984375 C15.2293613,0.363277617 17.0647224,0 19.0044643,0 Z M19.4464286,33.5742188 C21.3125093,31.5351461 22.9453055,29.589853 24.3448661,27.7382812 C25.7444266,25.8867095 26.9107096,24.1347739 27.84375,22.4824219 C28.7767904,20.8300699 29.4765602,19.2714917 29.9430804,17.8066406 C30.4096005,16.3417896 30.6428571,14.9765688 30.6428571,13.7109375 C30.6428571,12.2812429 30.4157389,10.8808662 29.9614955,9.50976562 C29.5072522,8.13866502 28.8013441,6.91406789 27.84375,5.8359375 C26.8861559,4.75780711 25.6769046,3.89062828 24.2159598,3.234375 C22.755015,2.57812172 21.0178672,2.25 19.0044643,2.25 C17.3839205,2.25 15.8493376,2.55468445 14.4006696,3.1640625 C12.9520017,3.77344055 11.6875054,4.59960416 10.6071429,5.64257812 C9.52678031,6.68555209 8.66741391,7.9042899 8.02901786,9.29882812 C7.39062181,10.6933663 7.07142857,12.1640548 7.07142857,13.7109375 C7.07142857,15.3750083 7.43972846,17.0624914 8.17633929,18.7734375 C8.91295011,20.4843836 9.8459765,22.1660074 10.9754464,23.8183594 C12.1049164,25.4707114 13.3448593,27.0644454 14.6953125,28.5996094 C16.0457657,30.1347733 17.3225386,31.5703058 18.5256696,32.90625 L19.1517857,33.5742188 L19.2991071,33.7148438 C19.3236608,33.6914061 19.3543525,33.6679689 19.391183,33.6445312 C19.4280136,33.6210936 19.4464286,33.5976564 19.4464286,33.5742188 Z M18.8939732,6.78515625 C20.8582687,6.78515625 22.5278949,7.447259 23.9029018,8.77148438 C25.2779087,10.0957097 25.9654018,11.6835845 25.9654018,13.5351562 C25.9654018,15.4101656 25.2779087,17.0038997 23.9029018,18.3164062 C22.5278949,19.6289128 20.8582687,20.2851562 18.8939732,20.2851562 C16.9542314,20.2851562 15.2907435,19.6289128 13.9034598,18.3164062 C12.5161761,17.0038997 11.8225446,15.4101656 11.8225446,13.5351562 C11.8225446,11.6835845 12.5161761,10.0957097 13.9034598,8.77148438 C15.2907435,7.447259 16.9542314,6.78515625 18.8939732,6.78515625 Z M18.8939732,18.0351562 C20.195319,18.0351562 21.3002187,17.5898482 22.2087054,16.6992188 C23.117192,15.8085893 23.5714286,14.7421937 23.5714286,13.5 C23.5714286,12.2578063 23.1110537,11.19727 22.1902902,10.3183594 C21.2695266,9.43944873 20.1584886,9 18.8571429,9 C17.5557971,9 16.4447591,9.43944873 15.5239955,10.3183594 C14.603232,11.19727 14.1428571,12.2578063 14.1428571,13.5 C14.1428571,14.7421937 14.6093703,15.8085893 15.5424107,16.6992188 C16.4754511,17.5898482 17.5926274,18.0351562 18.8939732,18.0351562 Z"/>
  </defs>
  <use fill="#E73F39" fill-rule="evenodd" xlink:href="#location-a"/>
</svg>
