<svg height="95" viewBox="0 0 262 95" width="262" xmlns="http://www.w3.org/2000/svg"><path d="m243.302603 21.0151063c1.422458-1.0562953 2.974231-2.1125906 4.138061-3.4505647.905201-1.0562953 1.551773-2.3942694 1.357801-3.6618238-.4526-2.6759481-3.68546-3.3097253-6.595035-2.6759481-1.810402.4225181-3.620804 1.2675543-4.978605 2.5351087-.581915.4929378-1.099173 1.126715-1.357802 1.7604922-.258628.8450363.387944 1.4083938 1.422459 1.126715.775887-.211259 1.422459-.7041968 2.004374-1.1971347.711229-.7041968 1.357801-1.4788134 2.456974-1.6900725.711229-.1408393 1.357801.0704197 1.357801.7746166 0 .5633575-.517258 1.126715-1.034515 1.5492331-.452601.3520985-.840544.7041969-1.293145.9858757-1.551773 1.1971347-3.038888 2.3942694-4.202718 3.8730828-.517258.7041969-.969858 1.4788135-1.228487 2.25343-.323286.915456-.452601 1.8309119-.258629 2.6759482.258629 1.1971347 1.293144 2.042171 2.715603 2.1125906 2.650945.0704197 5.366548-.1408393 8.146808-.5633575 1.422459-.2816787 2.909575-1.126715 3.038889-2.5351087.129315-1.4788135-1.422458-1.9717513-2.909574-1.7604922-2.004374.2816787-4.008747.4929378-6.013121.7041968.775887-1.0562953 2.069031-1.9013315 3.232861-2.8167875zm-35.262836 27.9848937c-4.515764 0-26.820901 22-3.763136 22 18.884104 0 7.936797-22 3.763136-22zm-154.2495277-1c-5.1207427 0-32.2676935 22-4.4192711 22 22.0963553 0 9.5400137-22 4.4192711-22zm47.6276937-19.4483245c3.335799 4.3366275 5.281681 9.022983 7.644539 13.9191753 1.111933-.699456 2.571345-13.0098825 2.918824-14.9683594 1.042437-6.0852676 4.79521-22.45253914 12.787228-22.45253914 4.239244 0 7.088572 4.26668189 8.478488 7.83390774 1.945882 4.8961923 3.127311 9.7224391 4.030757 14.8984138.48647 2.7978242 1.389916 8.9530374 2.084874 11.4710792 5.976639-2.7978242 17.443447-9.1628742 17.651934-9.2328198 3.822269-2.0983682 11.883783.5595648 7.78353 7.8339077-3.196807 5.7355396-17.165464 18.8153677-17.165464 20.2842254 0 .9092928 12.161766 7.8339077 13.899161 8.1836357.277984-.4896192.694958-.9792384.83395-1.4688577 1.528908-3.9169538 2.15437-7.6240709 4.169748-11.4011335 7.088572-13.639393 24.532019-30.0766101 40.863534-29.5869909 5.003698.1398913 9.798908 1.4688577 14.038152 3.7071171-.83395-2.8677698-.83395-5.9453764.416975-9.1628742 4.378236-11.40113361 20.779246-16.85689078 31.134121-12.45031768 7.366555 3.14755222 10.980337 10.14211268 7.922521 18.18585728-3.752773 9.8623302-15.219581 18.1159116-25.435464 16.0175435 6.810589 9.9322758 9.520925 22.8722127 5.420672 34.2034007-5.768151 16.2273803-27.798321 20.6339534-42.948407 20.6339534-4.447731 0-20.014792-2.9377154-20.431766-2.8677698-8.339497.7694017-12.995716 1.5388033-21.474204-.699456l-15.219581-5.9453764c-1.598404-.4196737-3.544286 2.9377154-4.586724 3.8470082-7.019076 6.4349957-17.999413 3.357389-25.087985-.9792385-8.061513 5.1759748-22.099666 7.2043973-30.1611793.7694017-1.3899161-1.1191297-4.5867232-5.8754308-5.0731938-6.0852676-17.0264722 10.8415687-42.5314325 14.1290121-62.1987453 9.0929286-3.0578154-.0699456-9.79890845-4.8262467-11.04983294-7.6240709-3.40529443-7.6240709-2.98831961-14.9683594-1.80689092-23.2918864 1.32042029-9.0929286 3.05781541-18.1858572 4.58672311-27.2088403 1.18142868-6.8546692 5.69865595-29.30720836 14.31613575-29.30720836 10.8413456 0 11.4668078 21.89297426 14.8721023 23.22194076 2.9883196-.9092928 8.895463-1.9584769 11.9532784-1.9584769 14.3856316 0 23.9065568 7.9737989 33.0105073 17.9760204.2779832.2797824.6254622.5595649.9729412.8393473.7644539-.6994561 6.0461351-12.7301001 8.4784882-16.0175435l-.347479-.9792385c-15.3585729-7.6940165-4.7257147-33.08427105 12.648236-26.78916662 5.073194 1.88853133 8.408993 7.20439729 8.408993 12.52026322 0 9.1628743-8.270001 13.8492298-8.339497 15.0383051z" fill="#e73f39" fill-rule="evenodd"/></svg>