<?xml version="1.0" encoding="utf-8"?>
<!-- Generator: Adobe Illustrator 25.0.0, SVG Export Plug-In . SVG Version: 6.00 Build 0)  -->
<svg version="1.1" id="Capa_1" xmlns="http://www.w3.org/2000/svg" xmlns:xlink="http://www.w3.org/1999/xlink" x="0px" y="0px"
	 viewBox="0 0 48 48" style="enable-background:new 0 0 48 48;" xml:space="preserve">
<style type="text/css">
	.st0{fill:#E73F39;}
</style>
<g id="silm9k_1_">
	<g>
		<path class="st0" d="M21.7,0.8c0.5,0,1.1,0,1.6,0c1,0.6,2.1,1.1,2.8,1.9c1,1.2,1.9,1.3,3.4,0.7c2.2-1,4.5-1.5,7-1
			C39,3,40.3,4.8,39.8,7.3c-0.4,2.3-1.8,4-3.1,5.5c0.6,1.6,1.3,3,1.7,4.5c0.3,1,0.2,2,0.2,3.1c0,1,0.3,1.5,1.3,1.7
			c0.8,0.2,1.6,0.6,2.3,1c1.5,0.9,2,2.6,1.4,4.3c-0.2,0.5-0.2,1-0.1,1.5c0.1,0.7,0.4,1.3,1.1,1.7c0.4,0.2,0.7,1,0.8,1.5
			c0.1,0.8,0.1,1.7-0.1,2.4c-1.4,6.2-5.3,9.9-11.2,11.8c-1.3,0.4-2.6,0.6-3.9,0.8c-1.2,0-2.5,0-3.7,0c-0.3-0.1-0.6-0.1-0.9-0.2
			c-6-0.8-10.7-3.7-13.5-9.1c-0.4-0.7-0.8-1-1.6-1.2C6.5,35.8,3.9,32,4.9,28c0.2-0.8,0-1.2-0.6-1.6c-1.1-0.8-2-1.8-2-3.2
			c0-1.1,0.1-2.2,0.4-3.2c1-3.6,3.1-6.6,5.5-9.4C11.9,6.2,15.9,2.3,21.7,0.8z M41.5,33.4c-0.6,0.5-1.2,1.1-1.9,1.5
			c-2.7,1.7-5.7,2.4-8.9,2.2c-1.3-0.1-2.6-0.7-3.8-1.3c-1.2-0.6-1.4-2.1-0.9-3.4c0.5-1.2,1.3-1.6,2.8-1.4c3.4,0.4,6.6-0.1,9.7-1.5
			c1.2-0.6,2.3-1.4,3.3-2.4c0.9-1,0.7-2.2-0.5-2.8c-0.8-0.5-1.8-0.8-2.7-1.1c-1-0.3-1.4-0.8-1.4-1.8c0-1.3-0.1-2.7-0.3-4
			c-0.1-1-0.4-1.9-1.4-2.3c-1-0.4-1.8,0.1-2.5,0.7c-1,0.9-2.2,1.2-3.5,1.2c-0.8,0-1.6-0.1-2.4-0.2c-2.6-0.2-4.7,1.6-5,4.2
			c-0.2,2.1,0.5,3.7,1.9,5.2c1.2,1.3,1.2,1.3,0.2,2.7c-3.2,4.5-1.7,10.4,3.3,12.7c5.3,2.4,12.8,0,15.5-5.2c0.6-1.1,0.8-2.4,1.1-3.7
			c0.1-0.3-0.2-1-0.5-1.1c-0.8-0.2-0.8-0.8-1-1.3c-0.1-0.4-0.3-0.8-0.5-1.3c-4.2,2.9-8.7,3.8-13.6,3.2c-0.7-0.1-1.3,0-1.6,1.1
			c2.4,0.3,4.8,0.5,7,0.7c-2.2,0.9-4.6,0.6-7-0.1c0.2,1,0.7,1.5,1.9,1.8c2,0.6,4,0.6,6,0.1C37,35.1,39.2,34.3,41.5,33.4z M25.8,4.9
			c-1.7-2.5-2.9-2.9-5.8-1.8c-0.4,0.2-0.8,0.3-1.2,0.5c-4.1,2.1-7.4,5.2-10.2,8.9c-2,2.5-3.7,5.3-4.5,8.4c-0.6,2.3-0.1,3.6,1.6,4.5
			c1.1-0.7,2-1.4,3.1-1.9c0.6-0.3,1-0.6,1.2-1.2c2-5,4.9-9.3,9.2-12.6C21.3,8.1,23.6,6.5,25.8,4.9z M15.1,30.5c0.1,0,0.1,0,0.2,0
			c-0.2-1-0.3-2-0.6-2.9c-0.6-1.8-2.2-2.8-3.9-2.8c-1.8,0-3.4,1.2-4,3c-1,2.8,0.4,5.8,3.3,6.9c2.6,1,4.9-0.4,5.1-3.3
			C15.1,31.1,15.1,30.8,15.1,30.5z M24.3,9.1c-2.2,1.1-5.1,3.5-5.6,4.8c4.2-2.8,8.7-3.6,13.7-2.8c0-0.1,0-0.2,0-0.4
			c-1.3-0.4-2.7-0.7-4-1.1c0.2-0.2,0.4-0.5,0.6-0.8c-0.1-0.1-0.1-0.2-0.2-0.3c-1.6,0.6-3.2,1.1-4.9,1.7C24,10,24.2,9.6,24.3,9.1z"/>
		<path class="st0" d="M36,22.4c-1,0.4-1.4,0-1.6-0.7c-0.1-0.6-0.2-1.1-0.2-1.7c0-0.3,0.3-0.5,0.4-0.8c0.3,0.2,0.8,0.3,0.8,0.5
			C35.7,20.6,35.8,21.6,36,22.4z"/>
		<path class="st0" d="M25.2,23.8c1.2-2.1,3.9-2.1,5.2,0.1C28.6,23,27,22.9,25.2,23.8z"/>
		<path class="st0" d="M27.1,25c0.8-1.2,2-1.3,2.8-0.3C29,24.8,28.1,24.9,27.1,25z"/>
		<path class="st0" d="M35.5,23.4c0.3,0.5,0.6,0.8,0.6,1c0,0.3-0.3,0.6-0.5,0.8c-0.2-0.2-0.5-0.4-0.6-0.7C35,24.3,35.3,24,35.5,23.4
			z"/>
		<path class="st0" d="M33.4,26.3c-0.4-0.4-0.7-0.7-0.9-1c0,0,0.4-0.5,0.5-0.5c0.3,0.1,0.6,0.4,0.9,0.7C34,25.6,33.7,25.9,33.4,26.3
			z"/>
		<path class="st0" d="M13.5,32.2c-0.4,0.1-0.8,0.4-1.1,0.3c-0.4-0.2-0.9-0.6-1-1c-0.1-0.5,0-1.1,0.2-1.6c0.2-0.9,0.1-1.5-0.8-1.8
			C10,27.8,9.5,28.3,9.1,29c-0.1,0.3-0.3,0.6-0.5,0.9c-0.4-1-0.2-2,0.6-2.7c0.7-0.6,1.6-0.8,2.5-0.3c0.9,0.5,1.3,1.3,1.2,2.3
			c0,0.3-0.2,0.7-0.3,1c-0.5,1.3-0.4,1.5,0.9,1.7C13.5,32,13.5,32.1,13.5,32.2z"/>
	</g>
</g>
</svg>
