<svg width="24px" height="24px" version="1.1" viewBox="0 0 24 24" xmlns="http://www.w3.org/2000/svg" xmlns:xlink="http://www.w3.org/1999/xlink">
<defs>
<path id="a" d="m0 18v-4h4v4h-4zm14 0v-4h4v4h-4zm-7-7v-4h4v4h-4zm7-7v-4h4v4h-4zm-14 0v-4h4v4h-4z"/>
</defs>
<g fill="none" fill-rule="evenodd">
<g transform="translate(3 3)">
<g fill="#D8D8D8" fill-rule="nonzero">
<path d="m0 18v-4h4v4h-4zm14 0v-4h4v4h-4zm-7-7v-4h4v4h-4zm7-7v-4h4v4h-4zm-14 0v-4h4v4h-4z"/>
</g>
<mask id="b" fill="white">
<use xlink:href="#a"/>
</mask>
<polygon points="-3 21 -3 -3 21 -3 21 21" fill="#000" fill-rule="nonzero" mask="url(#b)"/>
</g>
</g>
</svg>
