<svg width="48" height="48" viewBox="0 0 48 48" fill="none" xmlns="http://www.w3.org/2000/svg">
<circle cx="24" cy="31" r="8" fill="#B4D5F3"/>
<path fill-rule="evenodd" clip-rule="evenodd" d="M24.0553 21.6711C20.8241 21.6711 17.6952 22.8035 15.2125 24.8715C14.6261 25.3598 13.7549 25.2804 13.2665 24.6941C12.7782 24.1078 12.8576 23.2365 13.4439 22.7482C16.4232 20.2666 20.1779 18.9077 24.0553 18.9077C27.9327 18.9077 31.6874 20.2666 34.6667 22.7482C35.253 23.2365 35.3324 24.1078 34.8441 24.6941C34.3557 25.2804 33.4845 25.3598 32.8981 24.8715C30.4154 22.8035 27.2864 21.6711 24.0553 21.6711Z" fill="#20314B"/>
<path fill-rule="evenodd" clip-rule="evenodd" d="M24 14.7634C18.9538 14.7634 14.0809 16.6045 10.2954 19.9413C9.72291 20.4459 8.8498 20.3909 8.34521 19.8184C7.84062 19.246 7.89562 18.3729 8.46806 17.8683C12.7583 14.0866 18.2809 12 24 12C29.7191 12 35.2417 14.0866 39.5319 17.8683C40.1044 18.3729 40.1594 19.246 39.6548 19.8184C39.1502 20.3909 38.2771 20.4459 37.7046 19.9413C33.9191 16.6045 29.0462 14.7634 24 14.7634Z" fill="#20314B"/>
<path fill-rule="evenodd" clip-rule="evenodd" d="M24.007 28.5784C22.5731 28.5784 21.1747 29.0245 20.0058 29.855C19.3837 30.2969 18.5212 30.1509 18.0792 29.5288C17.6373 28.9068 17.7833 28.0442 18.4054 27.6022C20.0418 26.4396 21.9995 25.815 24.007 25.815C26.0144 25.815 27.9721 26.4396 29.6086 27.6022C30.2307 28.0442 30.3767 28.9068 29.9347 29.5288C29.4928 30.1509 28.6302 30.2969 28.0081 29.855C26.8392 29.0245 25.4409 28.5784 24.007 28.5784Z" fill="#20314B"/>
<path fill-rule="evenodd" clip-rule="evenodd" d="M22.6183 34.1034C22.6183 33.3403 23.2369 32.7217 24 32.7217H24.0138C24.7769 32.7217 25.3955 33.3403 25.3955 34.1034C25.3955 34.8665 24.7769 35.4851 24.0138 35.4851H24C23.2369 35.4851 22.6183 34.8665 22.6183 34.1034Z" fill="#20314B"/>
</svg>
