<svg xmlns="http://www.w3.org/2000/svg" width="23" height="24" viewBox="0 0 23 24">
  <g fill="none" fill-rule="evenodd">
    <polygon fill="#E73F39" points="11.165 0 .033 3.986 1.737 18.755 11.165 24 20.594 18.755 22.297 3.986"/>
    <path fill="#FFF" fill-rule="nonzero" d="M5.576,16.176 C6.51466667,16.176 7.26133333,16.0373333 7.816,15.76 C8.37066667,15.4826667 8.79466667,15.0933333 9.088,14.592 C9.38133333,14.0906667 9.57333333,13.4853333 9.664,12.776 C9.75466667,12.0666667 9.8,11.28 9.8,10.416 L9.8,10.416 L9.8,4.64 L7.592,4.64 L7.592,10.416 C7.592,11.056 7.57066667,11.6133333 7.528,12.088 C7.48533333,12.5626667 7.39466667,12.96 7.256,13.28 C7.11733333,13.6 6.91466667,13.8373333 6.648,13.992 C6.38133333,14.1466667 6.024,14.224 5.576,14.224 C5.11733333,14.224 4.712,14.16 4.36,14.032 C4.008,13.904 3.75733333,13.7866667 3.608,13.68 L3.608,13.68 L3.112,15.472 C3.79466667,15.9413333 4.616,16.176 5.576,16.176 Z M15.356,16.16 C16.4013333,16.16 17.228,15.9226667 17.836,15.448 C18.444,14.9733333 18.748,14.3253333 18.748,13.504 C18.748,13.152 18.6866667,12.8506667 18.564,12.6 C18.4413333,12.3493333 18.2493333,12.128 17.988,11.936 C17.7266667,11.744 17.3906667,11.5733333 16.98,11.424 C16.5693333,11.2746667 16.076,11.1253333 15.5,10.976 C15.1906667,10.9013333 14.932,10.8293333 14.724,10.76 C14.516,10.6906667 14.348,10.6186667 14.22,10.544 C14.092,10.4693333 13.9986667,10.384 13.94,10.288 C13.8813333,10.192 13.852,10.0693333 13.852,9.92 C13.852,9.58933333 13.9746667,9.34933333 14.22,9.2 C14.4653333,9.05066667 14.7693333,8.976 15.132,8.976 C15.5266667,8.976 15.924,9.05066667 16.324,9.2 C16.724,9.34933333 17.1373333,9.584 17.564,9.904 L17.564,9.904 L18.428,8.608 C17.9693333,8.20266667 17.4653333,7.90933333 16.916,7.728 C16.3666667,7.54666667 15.7773333,7.456 15.148,7.456 C14.6786667,7.456 14.244,7.52 13.844,7.648 C13.444,7.776 13.0946667,7.96 12.796,8.2 C12.4973333,8.44 12.2653333,8.73066667 12.1,9.072 C11.9346667,9.41333333 11.852,9.79733333 11.852,10.224 C11.852,10.544 11.9053333,10.8186667 12.012,11.048 C12.1186667,11.2773333 12.2893333,11.48 12.524,11.656 C12.7586667,11.832 13.068,11.9893333 13.452,12.128 C13.836,12.2666667 14.3,12.4106667 14.844,12.56 C15.4946667,12.7413333 15.964,12.9013333 16.252,13.04 C16.54,13.1786667 16.684,13.3973333 16.684,13.696 C16.684,13.9946667 16.5613333,14.224 16.316,14.384 C16.0706667,14.544 15.7346667,14.624 15.308,14.624 C14.828,14.624 14.3453333,14.5306667 13.86,14.344 C13.3746667,14.1573333 12.876,13.8826667 12.364,13.52 L12.364,13.52 L11.564,14.864 C12.044,15.28 12.62,15.6 13.292,15.824 C13.964,16.048 14.652,16.16 15.356,16.16 Z"/>
  </g>
</svg>
