<?xml version="1.0" encoding="utf-8"?>
<!-- Generator: Adobe Illustrator 25.0.0, SVG Export Plug-In . SVG Version: 6.00 Build 0)  -->
<svg version="1.1" id="Capa_1" xmlns="http://www.w3.org/2000/svg" xmlns:xlink="http://www.w3.org/1999/xlink" x="0px" y="0px"
	 viewBox="0 0 48 48" style="enable-background:new 0 0 48 48;" xml:space="preserve">
<style type="text/css">
	.st0{fill:#E73F39;}
</style>
<g id="QSG4sn.tif">
	<g>
		<path class="st0" d="M39.8,23.6c0.8-0.3,1.7-0.6,2.7-0.9c0.3,3.6-0.5,7-2.2,10c-5.7,10.3-19.4,12.2-27.9,4
			c-0.6-0.6-1.1-1.2-1.6-1.8c-0.3-0.4-0.6-0.5-1-0.3c-0.1,0-0.2,0.1-0.3,0.1c-2.2,0.8-2.2,0.8-3.3-1.4c-0.6-1.2-1.1-2.5-1.6-3.9
			c1.9-0.7,3.7-1.4,5.6-2.1c-0.2-0.9-0.3-1.8-0.5-2.9c-0.8,0.3-1.6,0.5-2.4,0.8c-0.2-1.9-0.1-3.8,0.4-5.6c1.9-6.9,6.3-11.4,13.3-13
			C28,5.1,34,7.3,38.7,12.9c0.5,0.6,0.8,0.7,1.5,0.4c0.5-0.2,1.1-0.4,1.7-0.6c0.3,0.4,0.5,0.9,0.8,1.3c0.2,0.4,0.4,0.8,0.7,1.3
			c-1.8,0.7-3.6,1.3-5.3,2C38.6,19.4,39.2,21.4,39.8,23.6z M37.4,17.4c-0.2-0.3-0.2-0.5-0.3-0.6c-1.2-1.9-1.2-1.9-3.3-1.2
			c-0.5,0.2-0.8,0.2-1.2-0.2c-6.6-6-17-2.6-18.9,6c-0.1,0.5-0.1,0.9-0.2,1.5c0.9-0.3,1.7-0.6,2.6-0.9c0,0.9-0.1,1.6,0,2.4
			c0.1,0.6-0.1,0.9-0.7,1.1c-1.6,0.5-3.1,1.1-4.9,1.8c0.6,1.3,1,2.6,1.7,3.8c1.2,2.1,1.3,2.1,3.5,1.2c0.7-0.3,1.1-0.1,1.6,0.3
			c4.5,3.9,10.9,3.8,15.3-0.2c2.2-2,3.4-4.5,3.6-7.6c-1,0.4-1.9,0.7-2.5,0.9c-0.5-2.2-1-4.3-1.5-6.5C33.8,18.8,35.6,18.1,37.4,17.4z
			"/>
	</g>
</g>
</svg>
