<svg xmlns="http://www.w3.org/2000/svg" xmlns:xlink="http://www.w3.org/1999/xlink" width="72" height="72" viewBox="0 0 72 72">
  <defs>
    <path id="pencil-a" d="M67.7151732,3.57894737 C69.1186035,4.88889544 70.1711605,6.25730281 70.8728756,7.68421053 C71.5745908,9.11111825 71.9488332,10.5497004 71.9956142,12 C72.0423952,13.5438674 71.7149331,15.0526242 71.0132179,16.5263158 C70.3115028,18 69.282336,19.4385895 67.9256867,20.8421053 C67.2707526,21.5438632 64.6510554,24.16372 60.0665164,28.7017544 C55.4819775,33.2397888 50.5349599,38.1403246 45.2253153,43.4035088 C39.9156707,48.666693 35.0388236,53.497054 30.5946277,57.8947368 C26.1504318,62.2924196 23.7178558,64.7017523 23.2968267,65.122807 C23.1564836,65.2631586 23.0044476,65.3801165 22.8407141,65.4736842 C22.6769806,65.5672519 22.5015544,65.6374267 22.3144304,65.6842105 C21.6594962,65.871346 20.2794772,66.3040902 18.1743317,66.9824561 C16.0691863,67.6608221 13.9055971,68.3508737 11.6834991,69.0526316 C9.46140114,69.7543895 7.46154297,70.3976579 5.6838646,70.9824561 C3.90618624,71.5672544 2.99397023,71.8596491 2.94718922,71.8596491 C2.8536272,71.906433 2.74837151,71.9415204 2.63141899,71.9649123 C2.51446646,71.9883042 2.38582062,72 2.24547759,72 C1.96479153,72 1.68410968,71.9415211 1.40342362,71.8245614 C1.12273757,71.7076018 0.888836026,71.5321649 0.701711987,71.2982456 C0.37424492,71.0175425 0.163733534,70.6666688 0.0701715145,70.245614 C-0.0233905048,69.8245593 -0.0233905048,69.4035109 0.0701715145,68.9824561 C0.116952524,68.9356723 0.397634372,68.0584881 0.912225478,66.3508772 C1.42681658,64.6432663 2.02326551,62.6666779 2.70159015,60.4210526 C3.37991479,58.1754274 4.0348391,55.9883147 4.66638273,53.8596491 C5.29792636,51.7309835 5.73064421,50.1988351 5.96454926,49.2631579 C6.05811128,49.0760225 6.15167189,48.9005856 6.24523391,48.7368421 C6.33879593,48.5730986 6.4557467,48.4210533 6.59608973,48.2807018 L28.3491505,26.5263158 C33.8225286,21.0526042 38.8864969,15.9766316 43.5412074,11.2982456 C48.1959178,6.61985965 50.6869692,4.14035228 51.0144363,3.85964912 C51.4822464,3.39181053 52.488023,2.63158421 54.0317963,1.57894737 C55.5755697,0.526310526 57.4701721,0 59.7156606,0 C61.1658719,0 62.5575861,0.304090526 63.8908448,0.912280702 C65.2241036,1.52047088 66.498867,2.40935088 67.7151732,3.57894737 Z M50.3127247,11.0175439 C48.1140172,13.1696014 45.3071987,15.9531993 41.892185,19.3684211 C38.4771713,22.7836428 34.9569532,26.3157712 31.3314249,29.9649123 C27.7058967,33.6140533 24.2324588,37.0993986 20.9110071,40.4210526 L12.9816656,48.3508772 C13.9172858,48.7251481 14.9581477,49.2631544 16.1042824,49.9649123 C17.2504171,50.6666702 18.4082298,51.6023333 19.577755,52.7719298 C20.5133752,53.7543909 21.2969454,54.748533 21.928489,55.754386 C22.5600326,56.7602389 23.0629209,57.6842063 23.437169,58.5263158 C25.4019714,56.5613937 28.0333637,53.9532326 31.3314249,50.7017544 C34.6294861,47.4502761 38.0795338,44.0351056 41.6816715,40.4561404 C45.2838093,36.8771751 48.7806373,33.4035256 52.1722605,30.0350877 C55.5638837,26.6666498 58.3590071,23.9064435 60.5577146,21.754386 C60.5109335,21.3801151 60.2419468,20.5029309 59.7507462,19.122807 C59.2595456,17.7426832 58.3122443,16.3508842 56.908814,14.9473684 C55.5053838,13.5906365 54.1955351,12.6315818 52.9792289,12.0701754 C51.7629226,11.5087691 50.8740968,11.1578954 50.3127247,11.0175439 Z M9.89413442,52.1403509 C9.37954332,53.8713537 8.66614362,56.1637284 7.75391393,59.0175439 C6.84168424,61.8713593 6.05811408,64.3508667 5.40317995,66.4561404 C7.6018874,65.7543825 10.1514142,64.9122856 13.0518368,63.9298246 C15.9522594,62.9473635 18.174324,62.198833 19.7180973,61.6842105 C19.4841923,60.9824526 19.1099498,60.1169642 18.5953587,59.0877193 C18.0807676,58.0584744 17.3322827,57.0526365 16.3498815,56.0701754 C15.0400132,54.7602274 13.800335,53.8128684 12.6308098,53.2280702 C11.4612846,52.6432719 10.5490686,52.2807025 9.89413442,52.1403509 Z M64.627642,17.6140351 C65.5632622,16.6783579 66.2649669,15.7426947 66.732777,14.8070175 C67.2005871,13.8713404 67.4344886,12.9824604 67.4344886,12.1403509 C67.4344886,11.2982414 67.188892,10.432753 66.6976914,9.54385965 C66.2064908,8.65496632 65.4930911,7.76608632 64.5574709,6.87719298 C63.8089747,6.12865123 63.0254046,5.56725333 62.2067369,5.19298246 C61.3880692,4.81871158 60.5577188,4.63157895 59.7156606,4.63157895 C58.2654493,4.63157895 57.0140761,5.00584421 55.9615033,5.75438596 C54.9089306,6.50292772 54.3358718,6.94736772 54.2423098,7.0877193 L53.891454,7.43859649 C54.7802932,7.81286737 55.7626797,8.33917789 56.8386429,9.01754386 C57.9146061,9.69590982 59.0139433,10.5964856 60.1366876,11.7192982 C61.2126508,12.795327 62.0780865,13.8947312 62.7330206,15.0175439 C63.3879548,16.1403565 63.879148,17.169586 64.2066151,18.1052632 C64.3001771,18.0116954 64.3820426,17.9181291 64.4522141,17.8245614 C64.5223857,17.7309937 64.580861,17.6608189 64.627642,17.6140351 Z"/>
  </defs>
  <use fill="#E73F39" fill-rule="evenodd" xlink:href="#pencil-a"/>
</svg>
