<svg width="48" height="48" viewBox="0 0 48 48" fill="none" xmlns="http://www.w3.org/2000/svg">
<g clip-path="url(#clip0)">
<path d="M45.1434 2.38596C46.0791 3.25926 46.7808 4.17154 47.2486 5.12281C47.7164 6.07408 47.9659 7.03313 47.9971 8C48.0283 9.02925 47.81 10.0351 47.3421 11.0175C46.8743 12 46.1882 12.9591 45.2838 13.8947C44.8472 14.3626 43.1007 16.1091 40.0443 19.1345C36.988 22.1599 33.69 25.4269 30.1502 28.9357C26.6104 32.4445 23.3592 35.6647 20.3964 38.5965C17.4336 41.5283 15.8119 43.1345 15.5312 43.4152C15.4377 43.5088 15.3363 43.5867 15.2271 43.6491C15.118 43.7115 15.001 43.7583 14.8763 43.7895C14.4397 43.9142 13.5197 44.2027 12.1162 44.655C10.7128 45.1072 9.2704 45.5673 7.789 46.0351C6.3076 46.5029 4.97436 46.9318 3.78924 47.3216C2.60412 47.7115 1.99598 47.9064 1.96479 47.9064C1.90242 47.9376 1.83225 47.961 1.75428 47.9766C1.67631 47.9922 1.59055 48 1.49699 48C1.30986 48 1.12274 47.961 0.935616 47.883C0.748492 47.8051 0.592557 47.6881 0.467808 47.5322C0.249497 47.345 0.109156 47.1111 0.046781 46.8304C-0.0155937 46.5497 -0.0155937 46.269 0.046781 45.9883C0.0779684 45.9571 0.26509 45.3723 0.60815 44.2339C0.951211 43.0955 1.34884 41.7778 1.80106 40.2807C2.25328 38.7836 2.68989 37.3255 3.11092 35.9064C3.53195 34.4873 3.82043 33.4659 3.97637 32.8421C4.03874 32.7173 4.10111 32.6004 4.16349 32.4912C4.22586 32.3821 4.30383 32.2807 4.39739 32.1871L18.8994 17.6842C22.5484 14.0351 25.9243 10.6511 29.0275 7.53216C32.1306 4.41324 33.7913 2.76023 34.0096 2.5731C34.3215 2.26121 34.992 1.75439 36.0212 1.05263C37.0504 0.350874 38.3134 0 39.8104 0C40.7772 0 41.7051 0.202727 42.5939 0.608187C43.4827 1.01365 44.3326 1.60623 45.1434 2.38596ZM33.5418 7.34503C32.076 8.77973 30.2048 10.6355 27.9281 12.9123C25.6514 15.1891 23.3046 17.5438 20.8876 19.9766C18.4706 22.4094 16.155 24.7329 13.9407 26.9474L8.65444 32.2339C9.27819 32.4834 9.9721 32.8421 10.7362 33.3099C11.5003 33.7778 12.2722 34.4016 13.0518 35.1813C13.6756 35.8363 14.198 36.499 14.619 37.1696C15.04 37.8402 15.3753 38.4561 15.6248 39.0175C16.9346 37.7076 18.6889 35.9688 20.8876 33.8012C23.0863 31.6335 25.3864 29.3567 27.7878 26.9708C30.1892 24.5848 32.5204 22.269 34.7815 20.0234C37.0426 17.7778 38.906 15.9376 40.3718 14.5029C40.3406 14.2534 40.1613 13.6686 39.8338 12.7485C39.5064 11.8285 38.8748 10.9006 37.9392 9.96491C37.0036 9.06042 36.1304 8.42105 35.3195 8.04678C34.5086 7.67251 33.9161 7.4386 33.5418 7.34503ZM6.59609 34.7602C6.25303 35.9142 5.77743 37.4425 5.16928 39.345C4.56112 41.2476 4.03874 42.9006 3.60212 44.3041C5.06793 43.8363 6.76761 43.2749 8.70122 42.6199C10.6348 41.9649 12.1162 41.4659 13.1454 41.1228C12.9895 40.655 12.74 40.078 12.3969 39.3918C12.0538 38.7057 11.5549 38.0351 10.8999 37.3801C10.0267 36.5068 9.20022 35.8752 8.42054 35.4854C7.64086 35.0955 7.03271 34.8538 6.59609 34.7602ZM43.0851 11.7427C43.7088 11.1189 44.1766 10.4951 44.4885 9.87135C44.8004 9.24756 44.9563 8.65497 44.9563 8.09357C44.9563 7.53216 44.7926 6.95517 44.4651 6.36257C44.1377 5.76998 43.6621 5.17739 43.0383 4.5848C42.5393 4.08577 42.0169 3.7115 41.4712 3.46199C40.9254 3.21247 40.3718 3.08772 39.8104 3.08772C38.8436 3.08772 38.0094 3.33723 37.3077 3.83626C36.606 4.33529 36.2239 4.63158 36.1615 4.72515L35.9276 4.95906C36.5202 5.20858 37.1751 5.55945 37.8924 6.0117C38.6097 6.46394 39.3426 7.06432 40.0911 7.81287C40.8084 8.53022 41.3854 9.26315 41.822 10.0117C42.2586 10.7602 42.5861 11.4464 42.8044 12.0702C42.8668 12.0078 42.9214 11.9454 42.9681 11.883C43.0149 11.8207 43.0539 11.7739 43.0851 11.7427Z" fill="#E73F39"/>
</g>
<defs>
<clipPath id="clip0">
<rect width="48" height="48" fill="white"/>
</clipPath>
</defs>
</svg>
