<?xml version="1.0" encoding="UTF-8"?>
<svg version="1.1" viewBox="0 0 93 56" xmlns="http://www.w3.org/2000/svg" xmlns:xlink="http://www.w3.org/1999/xlink">
<defs>
<path id="a" d="m26.942 0.558c5.098 0 8.7159 0.499 12.169 4.99h46.046c4.1113 0 7.4003 3.326 7.4003 7.484s-3.289 7.484-7.4003 7.484h-16.938c0.8222 1.164 1.3156 2.661 1.3156 4.158 0 3.656-2.6279 6.814-6.0783 7.483 0.1806 0.266 0.3442 0.544 0.4869 0.833 0.8223 1.663 0.9867 3.825 0.329 5.654l-0.1644 0.167c-0.9868 2.993-3.7825 4.989-6.7426 4.989 0.4934 1.497 0.4934 3.326 0 4.823-1.3158 3.825-5.2625 5.821-9.0449 4.823-1.9734 0.333-8.8803 1.996-14.965 1.996-11.512 0-13.814-0.167-20.228-4.99h-6.0848c-3.6179 0-6.578-2.827-6.578-6.486v-30.103c0-3.659 2.9601-6.652 6.578-6.652h5.9204c1.6446-1.83 6.907-6.653 13.814-6.653h0.1644zm-0.1648 3.327h-0.1644c-6.7424 0.166-11.676 5.987-11.676 5.987-0.3288 0.499-0.8222 0.665-1.3156 0.665h-6.578c-1.8089 0-3.2891 1.497-3.2891 3.326v30.103c0 1.663 1.4802 3.16 3.2891 3.16h6.5782c0.329 0 0.6578 0.166 0.9868 0.333 5.7486 4.3599 7.1556 4.6437 17.771 4.6565l0.97564 5.221e-4c2.8819 0 6.0163-0.415 8.6287-0.882l-11.26-3.941c-3.7825-1.331-5.9202-5.655-4.6047-9.48 0.8884-2.583 3.1265-4.406 5.6506-4.909-0.7261-1.643-0.8571-3.561-0.2236-5.403l0.1644-0.332c0.2457-0.58 0.5324-1.16 0.9005-1.699-4.4248-3.879-8.4206-8.175-9.452-10.609-0.329-0.831 0-1.829 0.8222-2.162 0.8224-0.332 1.8089 0 2.1379 0.832 0.833 2.059 5.0009 6.385 9.4825 10.188 0.1903 0.062 0.3754 0.158 0.549 0.289 3.7825 3.161 7.236 5.489 9.2093 6.32 0.179 0.076 0.3675 0.133 0.5628 0.174 1.3044 0.2 2.6928-0.166 3.3841-1.005 0.9867-1.331 0.4934-3.493-1.1512-6.154-1.6303-2.398-5.9315-8.172-9.8951-13.429l-1.2877-1.539-0.1644-0.166c-2.6311-3.992-4.9335-4.324-10.032-4.324zm6.4138 32.098c-0.6578 0-1.3156 0.166-1.809 0.499-0.9867 0.499-1.8089 1.33-2.1379 2.328-0.6578 2.162 0.329 4.491 2.6313 5.322l16.453 5.76c0.1617 0.021 0.3236 0.061 0.4853 0.061 2.3023 0.832 4.6046-0.332 5.2624-2.494 0.329-0.998 0.329-2.162-0.1644-3.16-0.1013-0.205-0.2171-0.402-0.3446-0.59-0.4504-0.582-1.0697-1.057-1.8448-1.359l-4.3895-1.544-12.826-4.49c-0.3288-0.167-0.8222-0.333-1.3157-0.333zm1.8093-8.482c-0.1646 0.166-0.329 0.499-0.329 0.665l-0.1644 0.333c-0.6578 2.162 0.3288 4.324 2.4667 5.156l11.343 3.99 3.5704 1.25c0.268-0.045 0.5626-0.023 0.8736 0.082l3.2891 1.164c1.2481 0.388 2.4943 0.206 3.4807-0.44 0.613-0.491 1.0427-1.143 1.2884-1.888l0.1644-0.333c0.3289-0.998 0.3289-2.162-0.1644-2.994-0.4934-0.998-1.3156-1.663-2.3024-1.995l-5.2626-1.996c-0.854 1.063-2.0233 1.939-3.3186 2.524-0.9811 0.523-2.1197 0.802-3.2594 0.802-0.0924 0-0.1822-3e-3 -0.2721-6e-3 -0.8724 0-1.7298-0.155-2.5234-0.493-0.113-0.044-0.2292-0.093-0.347-0.144-0.0455-0.02-0.0913-0.04-0.1376-0.061-2.1474-0.959-5.0485-2.939-7.9925-5.303-0.1341-0.104-0.2676-0.207-0.4032-0.313zm27.463-7.318-12.34 0.287c0.255 0.386 0.4795 0.738 0.6644 1.044 1.4003 2.124 2.0102 3.922 2.1771 5.399 0.0961 0.021 0.1929 0.05 0.2898 0.089l3.6886 1.306c0.237-0.093 0.4943-0.142 0.7515-0.142l3.7824 0.499h0.6578c2.3024 0 4.1113-1.995 4.1113-4.324 0-1.164-0.4934-2.162-1.1512-2.993-0.6579-0.666-1.6445-1.165-2.6313-1.165zm22.695-11.309h-43.522c2.1194 2.785 4.3962 5.811 6.2179 8.339 0.0969-0.014 0.1971-0.023 0.302-0.023h37.002c2.3023 0 4.1114-1.83 4.1114-4.158 0-2.329-1.8089-4.158-4.1112-4.158z"/>
</defs>
<g fill-rule="evenodd">
<mask fill="white">
<use xlink:href="#a"/>
</mask>
<use fill="#FFFFFF" xlink:href="#a"/>
</g>
</svg>
