<svg width="48" height="48" viewBox="0 0 48 48" fill="none" xmlns="http://www.w3.org/2000/svg">
<path fill-rule="evenodd" clip-rule="evenodd" d="M48 19.5V3.65625C48 2.65625 47.6406 1.79688 46.9219 1.07813C46.2031 0.359371 45.3438 0 44.3438 0H28.1719C27.6406 0 27.0391 0.0390621 26.3672 0.117188C25.6953 0.195313 25.1094 0.484373 24.6094 0.984375L0.890625 24.7031C0.609374 25.0156 0.390626 25.3516 0.234375 25.7109C0.0781242 26.0703 0 26.4531 0 26.8594C0 27.2656 0.0781242 27.6484 0.234375 28.0078C0.390626 28.3672 0.609374 28.6875 0.890625 28.9688L19.0313 47.1094C19.3125 47.3906 19.6328 47.6094 19.9922 47.7656C20.3516 47.9219 20.7344 48 21.1406 48C21.5469 48 21.9297 47.9219 22.2891 47.7656C22.6484 47.6094 22.9844 47.3906 23.2969 47.1094L47.0156 23.3906C47.5156 22.8906 47.8047 22.2969 47.8828 21.6094C47.9609 20.9219 48 20.2188 48 19.5ZM44.8594 21.2813L21.1406 45L3 26.8594L26.7188 3.14063C26.8125 3.07812 27.0312 3.03906 27.375 3.02344L28.0166 3.00146L44.3438 3C44.5313 3 44.6875 3.0625 44.8125 3.1875C44.9375 3.3125 45 3.46875 45 3.65625V19.5469L44.9766 20.5313C44.9609 20.9063 44.9219 21.1563 44.8594 21.2813ZM36 6C34.3437 6 32.9297 6.58593 31.7578 7.75781C30.5859 8.92969 30 10.3437 30 12C30 13.6563 30.5859 15.0703 31.7578 16.2422C32.9297 17.4141 34.3437 18 36 18C37.6563 18 39.0703 17.4141 40.2422 16.2422C41.4141 15.0703 42 13.6563 42 12C42 10.3437 41.4141 8.92969 40.2422 7.75781C39.0703 6.58593 37.6563 6 36 6ZM36 15C35.1875 15 34.4844 14.7109 33.8906 14.1328C33.2969 13.5547 33 12.8438 33 12C33 11.1562 33.2969 10.4453 33.8906 9.86719C34.4844 9.28906 35.1875 9 36 9C36.8438 9 37.5547 9.28906 38.1328 9.86719C38.7109 10.4453 39 11.1562 39 12C39 12.8438 38.7109 13.5547 38.1328 14.1328C37.5547 14.7109 36.8438 15 36 15Z" fill="#E73F39"/>
</svg>
