<svg xmlns="http://www.w3.org/2000/svg" width="72" height="72" viewBox="0 0 72 72">
  <path fill="#E73F39" fill-rule="evenodd" d="M72,29.25 L72,5.484375 C72,3.9843675 71.4609429,2.69531789 70.3828125,1.6171875 C69.3046821,0.539057109 68.0156325,0 66.515625,0 L42.2578125,0 C41.4609335,0 40.5585988,0.0585931641 39.5507812,0.17578125 C38.5429637,0.292969336 37.6640663,0.72655875 36.9140625,1.4765625 L1.3359375,37.0546875 C0.914060391,37.5234398 0.585938672,38.0273411 0.3515625,38.5664062 C0.117186328,39.1054714 0,39.6796845 0,40.2890625 C0,40.8984405 0.117186328,41.4726536 0.3515625,42.0117188 C0.585938672,42.5507839 0.914060391,43.0312479 1.3359375,43.453125 L28.546875,70.6640625 C28.9687521,71.0859396 29.4492161,71.4140613 29.9882812,71.6484375 C30.5273464,71.8828137 31.1015595,72 31.7109375,72 C32.3203155,72 32.8945286,71.8828137 33.4335938,71.6484375 C33.9726589,71.4140613 34.4765602,71.0859396 34.9453125,70.6640625 L70.5234375,35.0859375 C71.2734413,34.3359337 71.7070307,33.4453177 71.8242188,32.4140625 C71.9414068,31.3828073 72,30.3281304 72,29.25 Z M67.2890625,31.921875 L31.7109375,67.5 L4.5,40.2890625 L40.078125,4.7109375 C40.2187507,4.61718703 40.5468724,4.55859387 41.0625,4.53515625 L42.0249021,4.50219725 L42.0249021,4.50219725 L66.515625,4.5 C66.7968764,4.5 67.0312491,4.59374906 67.21875,4.78125 C67.4062509,4.96875094 67.5,5.20312359 67.5,5.484375 L67.5,29.3203125 L67.4648438,30.796875 L67.4648438,30.796875 C67.4414061,31.3593778 67.382813,31.7343741 67.2890625,31.921875 Z M54,9 C51.5156126,9 49.39454,9.87889746 47.6367188,11.6367188 C45.8788975,13.39454 45,15.5156126 45,18 C45,20.4843874 45.8788975,22.60546 47.6367188,24.3632812 C49.39454,26.1211025 51.5156126,27 54,27 C56.4843874,27 58.60546,26.1211025 60.3632812,24.3632812 C62.1211025,22.60546 63,20.4843874 63,18 C63,15.5156126 62.1211025,13.39454 60.3632812,11.6367188 C58.60546,9.87889746 56.4843874,9 54,9 Z M54,22.5 C52.7812439,22.5 51.726567,22.0664106 50.8359375,21.1992188 C49.945308,20.3320269 49.5,19.2656313 49.5,18 C49.5,16.7343687 49.945308,15.6679731 50.8359375,14.8007812 C51.726567,13.9335894 52.7812439,13.5 54,13.5 C55.2656313,13.5 56.3320269,13.9335894 57.1992188,14.8007812 C58.0664106,15.6679731 58.5,16.7343687 58.5,18 C58.5,19.2656313 58.0664106,20.3320269 57.1992188,21.1992188 C56.3320269,22.0664106 55.2656313,22.5 54,22.5 Z"/>
</svg>
