<svg width="24" height="23" viewBox="0 0 24 23" fill="" xmlns="http://www.w3.org/2000/svg">
<path fill-rule="evenodd" clip-rule="evenodd" d="M24 6.77344V11.2734H22.5V21.0469C22.5 21.4531 22.3555 21.8047 22.0664 22.1016C21.7773 22.3984 21.4219 22.5469 21 22.5469H3.02344C2.60156 22.5469 2.2461 22.3984 1.95703 22.1016C1.66797 21.8047 1.52344 21.4531 1.52344 21.0469V11.2734H0V6.79688C0 6.375 0.14453 6.01953 0.433594 5.73047C0.722658 5.4414 1.07812 5.29688 1.5 5.29688H4.10156C3.75781 4.96875 3.48828 4.58985 3.29297 4.16016C3.09766 3.73047 3 3.25 3 2.71875C3 2.0625 3.21094 1.44532 3.63281 0.867188C4.05469 0.28906 4.78906 0 5.83594 0C6.52344 0 7.18359 0.164061 7.81641 0.492188C8.44922 0.820314 9.03515 1.21875 9.57422 1.6875C10.1133 2.15625 10.5937 2.65234 11.0156 3.17578C11.4375 3.69922 11.7812 4.17187 12.0469 4.59375C12.3125 4.17187 12.6523 3.69922 13.0664 3.17578C13.4805 2.65234 13.9531 2.15625 14.4844 1.6875C15.0156 1.21875 15.5937 0.820314 16.2188 0.492188C16.8438 0.164061 17.5 0 18.1875 0C19.2344 0 19.9687 0.28906 20.3906 0.867188C20.8125 1.44532 21.0234 2.0625 21.0234 2.71875C21.0234 3.25 20.9258 3.73047 20.7305 4.16016C20.5352 4.58985 20.2734 4.96094 19.9453 5.27344H22.5C22.9219 5.27344 23.2773 5.42187 23.5664 5.71875C23.8555 6.01563 24 6.36719 24 6.77344ZM18.1875 1.5C17.25 1.5 16.3477 1.93359 15.4805 2.80078C14.6133 3.66797 13.9141 4.49218 13.3828 5.27344H15.9141C16.7891 5.27344 17.6094 5.05469 18.375 4.61719C19.1406 4.17969 19.5234 3.54688 19.5234 2.71875C19.5234 2.3125 19.418 2.00781 19.207 1.80469C18.9961 1.60156 18.6563 1.5 18.1875 1.5ZM5.83594 1.5C5.36719 1.5 5.02734 1.59766 4.81641 1.79297C4.60547 1.98828 4.5 2.28906 4.5 2.69531C4.5 3.52344 4.89453 4.16015 5.68359 4.60547C6.47266 5.05078 7.30468 5.27344 8.17969 5.27344H10.7109C10.1797 4.49218 9.46875 3.66797 8.57812 2.80078C7.6875 1.93359 6.77344 1.5 5.83594 1.5ZM22.5 9.77344V6.77344H12.75V9.77344H22.5ZM1.5 6.77344V9.77344H11.25V6.77344H1.5ZM3.02344 11.2734V21.0469H11.25V11.2734H3.02344ZM21 21.0469V11.2734H12.75V21.0469H21Z" fill=""/>
</svg>
