<svg width="48" height="48" viewBox="0 0 48 48" fill="none" xmlns="http://www.w3.org/2000/svg">
<path fill-rule="evenodd" clip-rule="evenodd" d="M24 0C20.6875 0 17.5703 0.624994 14.6484 1.875C11.7265 3.12501 9.1797 4.83593 7.00781 7.00781C4.83593 9.1797 3.12501 11.7265 1.875 14.6484C0.624994 17.5703 0 20.6875 0 24C0 27.3125 0.624994 30.4297 1.875 33.3516C3.12501 36.2735 4.83593 38.8203 7.00781 40.9922C9.1797 43.1641 11.7265 44.875 14.6484 46.125C17.5703 47.375 20.6875 48 24 48C27.3125 48 30.4297 47.375 33.3516 46.125C36.2735 44.875 38.8203 43.1641 40.9922 40.9922C43.1641 38.8203 44.875 36.2735 46.125 33.3516C47.375 30.4297 48 27.3125 48 24C48 20.6875 47.375 17.5703 46.125 14.6484C44.875 11.7265 43.1641 9.1797 40.9922 7.00781C38.8203 4.83593 36.2735 3.12501 33.3516 1.875C30.4297 0.624994 27.3125 0 24 0ZM24 45.0469C21.0937 45.0469 18.3672 44.4922 15.8203 43.3828C13.2734 42.2734 11.0547 40.7656 9.16406 38.8594C7.27343 36.9531 5.77344 34.7266 4.66406 32.1797C3.55468 29.6328 3 26.9063 3 24C3 21.0937 3.55468 18.3672 4.66406 15.8203C5.77344 13.2734 7.27343 11.0547 9.16406 9.16406C11.0547 7.27343 13.2734 5.77344 15.8203 4.66406C18.3672 3.55468 21.0937 3 24 3C26.9063 3 29.6328 3.55468 32.1797 4.66406C34.7266 5.77344 36.9453 7.27343 38.8359 9.16406C40.7266 11.0547 42.2266 13.2734 43.3359 15.8203C44.4453 18.3672 45 21.0937 45 24C45 26.9063 44.4453 29.6328 43.3359 32.1797C42.2266 34.7266 40.7266 36.9531 38.8359 38.8594C36.9453 40.7656 34.7266 42.2734 32.1797 43.3828C29.6328 44.4922 26.9063 45.0469 24 45.0469ZM25.5 23.3906L32.5781 30.4688C32.8594 30.75 33 31.1016 33 31.5234C33 31.9453 32.8594 32.2969 32.5781 32.5781C32.2969 32.8906 31.9453 33.0469 31.5234 33.0469C31.1016 33.0469 30.75 32.8906 30.4688 32.5781L23.0156 25.1719C23.0156 25.1406 23.0078 25.1172 22.9922 25.1016L22.9688 25.0781C22.8125 24.9531 22.6953 24.7969 22.6172 24.6094C22.5391 24.4219 22.5 24.2188 22.5 24V9C22.5 8.59375 22.6484 8.24219 22.9453 7.94531C23.2422 7.64844 23.5937 7.5 24 7.5C24.4063 7.5 24.7578 7.64844 25.0547 7.94531C25.3516 8.24219 25.5 8.59375 25.5 9V23.3906Z" fill="#E73F39"/>
</svg>
