<svg width="24" height="24" viewBox="0 0 24 24" fill="" xmlns="http://www.w3.org/2000/svg">
<path fill-rule="evenodd" clip-rule="evenodd" d="M2.4 11.7C2.4 6.56375 6.56375 2.4 11.7 2.4C16.8362 2.4 21 6.56375 21 11.7C21 16.8362 16.8362 21 11.7 21C6.56375 21 2.4 16.8362 2.4 11.7ZM11.7 1C5.79055 1 1 5.79055 1 11.7C1 17.6094 5.79055 22.4 11.7 22.4C17.6094 22.4 22.4 17.6094 22.4 11.7C22.4 5.79055 17.6094 1 11.7 1ZM12.4 5.7C12.4 5.3134 12.0866 5 11.7 5C11.3134 5 11 5.3134 11 5.7V11.7C11 11.9651 11.1498 12.2075 11.387 12.3261L15.387 14.3261C15.7327 14.499 16.1532 14.3588 16.3261 14.013C16.499 13.6673 16.3588 13.2468 16.013 13.0739L12.4 11.2674V5.7Z" fill=""/>
</svg>
