<svg xmlns="http://www.w3.org/2000/svg" width="36" height="36" viewBox="0 0 36 36">
  <path fill="#E73F39" fill-rule="evenodd" d="M18,0 C15.5156126,0 13.1777453,0.468745313 10.9863281,1.40625 C8.79491092,2.34375469 6.88477377,3.62694498 5.25585938,5.25585938 C3.62694498,6.88477377 2.34375469,8.79491092 1.40625,10.9863281 C0.468745312,13.1777453 0,15.5156126 0,18 C0,20.4843874 0.468745312,22.8222547 1.40625,25.0136719 C2.34375469,27.2050891 3.62694498,29.1152262 5.25585938,30.7441406 C6.88477377,32.373055 8.79491092,33.6562453 10.9863281,34.59375 C13.1777453,35.5312547 15.5156126,36 18,36 C20.4843874,36 22.8222547,35.5312547 25.0136719,34.59375 C27.2050891,33.6562453 29.1152262,32.373055 30.7441406,30.7441406 C32.373055,29.1152262 33.6562453,27.2050891 34.59375,25.0136719 C35.5312547,22.8222547 36,20.4843874 36,18 C36,15.5156126 35.5312547,13.1777453 34.59375,10.9863281 C33.6562453,8.79491092 32.373055,6.88477377 30.7441406,5.25585938 C29.1152262,3.62694498 27.2050891,2.34375469 25.0136719,1.40625 C22.8222547,0.468745313 20.4843874,0 18,0 Z M18,33.7851562 C15.8203016,33.7851562 13.7754002,33.3691448 11.8652344,32.5371094 C9.95506857,31.705074 8.29102271,30.5742259 6.87304688,29.1445312 C5.45507104,27.7148366 4.33008229,26.0449314 3.49804688,24.1347656 C2.66601146,22.2245998 2.25,20.1796984 2.25,18 C2.25,15.8203016 2.66601146,13.7754002 3.49804688,11.8652344 C4.33008229,9.95506857 5.45507104,8.29102271 6.87304688,6.87304688 C8.29102271,5.45507104 9.95506857,4.33008229 11.8652344,3.49804688 C13.7754002,2.66601146 15.8203016,2.25 18,2.25 C20.1796984,2.25 22.2245998,2.66601146 24.1347656,3.49804688 C26.0449314,4.33008229 27.7089773,5.45507104 29.1269531,6.87304688 C30.544929,8.29102271 31.6699177,9.95506857 32.5019531,11.8652344 C33.3339885,13.7754002 33.75,15.8203016 33.75,18 C33.75,20.1796984 33.3339885,22.2245998 32.5019531,24.1347656 C31.6699177,26.0449314 30.544929,27.7148366 29.1269531,29.1445312 C27.7089773,30.5742259 26.0449314,31.705074 24.1347656,32.5371094 C22.2245998,33.3691448 20.1796984,33.7851562 18,33.7851562 Z M19.125,17.5429688 L24.4335938,22.8515625 C24.6445323,23.0625011 24.75,23.3261703 24.75,23.6425781 C24.75,23.958986 24.6445323,24.2226552 24.4335938,24.4335938 C24.2226552,24.6679699 23.958986,24.7851562 23.6425781,24.7851562 C23.3261703,24.7851562 23.0625011,24.6679699 22.8515625,24.4335938 L17.2617188,18.8789062 C17.2617188,18.8554686 17.2558594,18.8378907 17.2441406,18.8261719 L17.2265625,18.8085938 C17.1093744,18.7148433 17.0214847,18.597657 16.9628906,18.4570312 C16.9042966,18.3164055 16.875,18.1640633 16.875,18 L16.875,6.75 C16.875,6.44531098 16.986327,6.18164174 17.2089844,5.95898438 C17.4316417,5.73632701 17.695311,5.625 18,5.625 C18.304689,5.625 18.5683583,5.73632701 18.7910156,5.95898438 C19.013673,6.18164174 19.125,6.44531098 19.125,6.75 L19.125,17.5429688 Z"/>
</svg>
