<svg width="48" height="43" viewBox="0 0 48 43" fill="none" xmlns="http://www.w3.org/2000/svg">
<path d="M23.8491 1.10936C21.277 0.39372 17.8796 0 14.282 0C10.6845 0 7.28625 0.39372 4.71416 1.10936C1.58618 1.9799 0 3.2369 0 4.84647V37.0622C0 37.0759 0.00161361 37.0888 0.00161361 37.1017C0.00161361 37.1154 0 37.1283 0 37.1412C0 38.7508 1.58618 40.0086 4.71416 40.8783C7.28544 41.594 10.6837 41.9877 14.2812 41.9877C17.8788 41.9877 21.277 41.594 23.8483 40.8783C26.9763 40.0078 28.5625 38.7508 28.5625 37.1412C28.5625 37.1275 28.5609 37.1146 28.5609 37.1017C28.5617 37.088 28.5625 37.0751 28.5625 37.0622V4.84647C28.5633 3.2369 26.9771 1.9799 23.8491 1.10936ZM26.1429 26.347C26.0396 26.5672 25.2384 27.2724 22.7696 27.8961C20.4549 28.481 17.4407 28.8029 14.282 28.8029C11.1234 28.8029 8.10919 28.481 5.79447 27.8961C3.32565 27.2724 2.52449 26.5672 2.42122 26.347V18.5129C3.06021 18.8227 3.82506 19.1011 4.71496 19.3488C7.28625 20.0644 10.6845 20.4581 14.282 20.4581C17.8796 20.4581 21.2778 20.0644 23.8491 19.3488C24.739 19.1011 25.5039 18.8219 26.1429 18.5129V26.347ZM26.1429 15.5826C26.0396 15.8029 25.2384 16.508 22.7696 17.1317C20.4549 17.7166 17.4407 18.0385 14.282 18.0385C11.1234 18.0385 8.10919 17.7166 5.79447 17.1317C3.32565 16.508 2.52449 15.8029 2.42122 15.5826V7.74855C3.06021 8.05836 3.82506 8.33671 4.71496 8.58439C7.28625 9.30003 10.6845 9.69375 14.282 9.69375C17.8796 9.69375 21.2778 9.30003 23.8491 8.58439C24.739 8.33671 25.5039 8.05755 26.1429 7.74855V15.5826ZM5.79366 3.32726C8.10838 2.74233 11.1226 2.42041 14.282 2.42041C17.4407 2.42041 20.4549 2.74233 22.7696 3.32726C25.1376 3.9251 25.9718 4.59878 26.1267 4.84728C25.971 5.09577 25.1376 5.76865 22.7696 6.3673C20.4549 6.95223 17.4407 7.27415 14.282 7.27415C11.1234 7.27415 8.10919 6.95223 5.79447 6.3673C3.42569 5.76784 2.59226 5.09497 2.43655 4.84647C2.59226 4.59878 3.42569 3.9251 5.79366 3.32726ZM22.7696 38.6612C20.4549 39.2462 17.4407 39.5681 14.282 39.5681C11.1234 39.5681 8.10919 39.2462 5.79447 38.6612C3.32242 38.0368 2.52207 37.3308 2.42041 37.1114C2.42041 37.1057 2.41961 37.1001 2.4188 37.0944C2.4188 37.0839 2.42041 37.0726 2.42041 37.0622V29.2781C3.0594 29.5879 3.82425 29.8663 4.71416 30.114C7.28625 30.8296 10.6837 31.2233 14.282 31.2233C17.8804 31.2233 21.2778 30.8296 23.8491 30.114C24.739 29.8663 25.5039 29.5871 26.1429 29.2781V37.0622C26.1429 37.0735 26.1445 37.0839 26.1445 37.0944C26.1445 37.1001 26.1437 37.1057 26.1429 37.1114C26.0412 37.3308 25.2409 38.0368 22.7696 38.6612Z" fill="#E73F39"/>
<rect x="24" y="18" width="24" height="25" rx="4" fill="#E73F39"/>
<path d="M34.0426 23H42L36.8511 28.825H40.8298L31.9362 39.0769L34.7447 31.621H31L34.0426 23Z" fill="white"/>
</svg>
