<?xml version="1.0" encoding="utf-8"?>
<!-- Generator: Adobe Illustrator 25.0.0, SVG Export Plug-In . SVG Version: 6.00 Build 0)  -->
<svg version="1.1" id="Capa_1" xmlns="http://www.w3.org/2000/svg" xmlns:xlink="http://www.w3.org/1999/xlink" x="0px" y="0px"
	 viewBox="0 0 48 48" style="enable-background:new 0 0 48 48;" xml:space="preserve">
<style type="text/css">
	.st0{fill:#E73F39;}
</style>
<g id="e05VH7.tif">
	<g>
		<g>
			<path class="st0" d="M46.7,17c0,0.2,0,0.4,0,0.6c-0.1,0.1-0.2,0.3-0.3,0.4c-1.7,2.1-3.5,4.2-5.2,6.3c-5.3,6.5-10.7,13-16,19.5
				c-0.3,0.3-0.6,0.6-0.9,0.9c-0.1,0-0.2,0-0.4,0c-0.3-0.3-0.7-0.6-0.9-0.9c-5.1-6.2-10.1-12.3-15.2-18.5c-2-2.5-4-4.9-6.1-7.4
				c-0.3-0.4-0.4-0.8-0.1-1.3c0.1-0.1,0.2-0.2,0.2-0.3C4.5,12.5,7.2,8.6,10,4.6c0.2-0.2,0.5-0.5,0.7-0.5C11.6,4,12.4,4,13.3,4
				c2.3-0.2,4.6-0.3,6.9-0.5c1.4-0.1,2.9-0.3,4.4-0.2c4.1,0.2,8.1,0.6,12.2,0.8c0.7,0,1.1,0.3,1.5,0.9C41.1,9,43.9,13,46.7,17z
				 M24,41.8c4.2-7.9,8.4-15.7,12.6-23.5c-8.4,0-16.8,0-25.2,0C15.6,26.1,19.8,33.9,24,41.8z M12.2,16.4c7.9,0,15.7,0,23.6,0
				c-4-3.7-7.9-7.3-11.8-11C20.1,9.1,16.2,12.7,12.2,16.4z M21.4,5.3c-0.3,0-0.6,0-0.8,0c-2.8,0.2-5.6,0.4-8.4,0.6
				c-0.4,0-0.5,0.2-0.6,0.6c-0.1,2.2-0.3,4.3-0.5,6.5c0,0.6-0.1,1.3-0.1,1.9c0,0,0.1,0,0.1,0C14.5,11.7,17.9,8.5,21.4,5.3z
				 M26.7,5.3c0,0,0,0.1,0,0.1c3.4,3.2,6.8,6.4,10.4,9.7c0-0.4,0-0.7,0-0.9c-0.2-2.5-0.4-5.1-0.6-7.6c0-0.4-0.2-0.6-0.6-0.6
				c-1.9-0.1-3.9-0.3-5.8-0.4C28.9,5.4,27.8,5.3,26.7,5.3z M4.3,18.3c4.8,5.8,9.4,11.5,14.1,17.2c0-0.2-0.1-0.3-0.1-0.5
				c-1-1.8-2-3.7-3-5.5c-1.9-3.6-3.9-7.2-5.8-10.8c-0.1-0.1-0.2-0.3-0.4-0.3C7.5,18.3,5.9,18.3,4.3,18.3z M29.6,35.4
				C29.6,35.4,29.6,35.4,29.6,35.4c4.8-5.6,9.4-11.3,14.2-17.1c-0.2,0-0.4,0-0.5,0c-1.3,0-2.7,0-4,0c-0.3,0-0.5,0.1-0.7,0.4
				c-2.9,5.5-5.8,10.9-8.8,16.4C29.7,35.1,29.6,35.3,29.6,35.4z M39,16.4c1.7,0,3.2,0,4.9,0c-1.8-2.6-3.6-5.2-5.4-7.8
				c0,0-0.1,0-0.1,0C38.6,11.2,38.8,13.8,39,16.4z M9.6,8.6c0,0-0.1,0-0.1,0c-1.8,2.6-3.6,5.2-5.4,7.8c1.7,0,3.3,0,4.9,0
				C9.2,13.8,9.4,11.2,9.6,8.6z"/>
			<path class="st0" d="M24.4,45.3h-0.7l-0.1-0.1c-0.1-0.1-0.2-0.2-0.3-0.3c-0.2-0.2-0.5-0.4-0.7-0.7C18.7,39.6,15,35,11.2,30.5
				l-10-12.2c-0.5-0.6-0.5-1.2-0.1-1.9c0-0.1,0.1-0.1,0.1-0.2l0.1-0.1l1.7-2.5c2.1-3.1,4.3-6.2,6.4-9.3c0.2-0.3,0.6-0.6,1.1-0.7
				c0.6-0.1,1.3-0.1,1.9-0.2c0.3,0,0.5,0,0.8,0l2.3-0.2c1.5-0.1,3.1-0.2,4.6-0.3c0.4,0,0.7-0.1,1.1-0.1c1.1-0.1,2.2-0.2,3.3-0.1
				c2.3,0.1,4.6,0.3,6.9,0.5c1.8,0.1,3.5,0.3,5.3,0.4c0.8,0.1,1.4,0.4,1.9,1.1c2.1,3,4.2,6.1,6.3,9.1l2.1,3.1v0.9L47,18.1
				c-0.1,0.1-0.1,0.2-0.2,0.3l-1.9,2.3c-1.1,1.3-2.2,2.7-3.3,4l-5.3,6.5c-3.6,4.3-7.1,8.7-10.7,13c-0.2,0.3-0.4,0.5-0.7,0.7
				c-0.1,0.1-0.2,0.2-0.3,0.3L24.4,45.3z M23.9,3.7c-0.8,0-1.7,0.1-2.5,0.1c-0.4,0-0.7,0.1-1.1,0.1c-1.5,0.1-3.1,0.2-4.6,0.3
				l-2.3,0.2c-0.3,0-0.5,0-0.8,0.1c-0.6,0-1.2,0.1-1.8,0.1c-0.1,0-0.3,0.1-0.4,0.3C8.2,8,6.1,11.1,3.9,14.2l-1.7,2.5
				c0,0.1-0.1,0.1-0.1,0.2L2,17c-0.2,0.3-0.2,0.4,0,0.7l10,12.2c3.8,4.6,7.5,9.1,11.3,13.7c0.2,0.2,0.4,0.4,0.6,0.6
				c0.1,0,0.1,0.1,0.2,0.1c0.1,0,0.1-0.1,0.2-0.1c0.2-0.2,0.4-0.3,0.6-0.5c3.6-4.3,7.1-8.7,10.7-13l5.3-6.5c1.1-1.3,2.2-2.7,3.3-4
				l1.9-2.3c0.1-0.1,0.1-0.1,0.2-0.2v-0.3l-2-2.8c-2.1-3-4.2-6.1-6.3-9.1c-0.3-0.5-0.6-0.6-1.1-0.7c-1.8-0.1-3.5-0.2-5.3-0.4
				c-2.3-0.2-4.6-0.3-6.9-0.5C24.3,3.8,24.1,3.7,23.9,3.7z M24,42.9L10.6,17.8h26.9L24,42.9z M12.2,18.8L24,40.8l11.8-21.9H12.2z
				 M18.8,36.7l-15.6-19l2.1,0c1.3,0,2.5,0,3.8,0c0.5,0,0.8,0.5,0.8,0.6c1.5,2.8,3.1,5.7,4.6,8.5l4.2,7.8c0.1,0.1,0.2,0.4,0.2,0.8
				L18.8,36.7z M5.3,18.8l10.6,12.9l-2.3-4.3c-1.5-2.8-3-5.7-4.6-8.5c0,0,0-0.1-0.1-0.1C7.8,18.8,6.6,18.8,5.3,18.8L5.3,18.8z
				 M29.8,36.1l-0.8-0.5l0.2-0.5c0-0.1,0.1-0.2,0.1-0.3l2.2-4.1c2.2-4.1,4.4-8.2,6.6-12.3c0.2-0.5,0.6-0.7,1.1-0.7
				c0.9,0,1.9,0,2.8,0l1.2,0c0.1,0,0.2,0,0.3,0l1.2,0.1L29.8,36.1z M39.1,18.8c-0.1,0-0.1,0-0.2,0.1c-2.2,4.1-4.4,8.2-6.6,12.3
				l-0.3,0.5l10.6-12.9l-0.7,0C41.1,18.8,40.1,18.8,39.1,18.8C39.2,18.8,39.1,18.8,39.1,18.8z M9.4,16.9H3.1l6.2-8.9L10,8.3l0.1,0.4
				L9.4,16.9z M5,15.9h3.5L9,10.2L5,15.9z M37,16.9H11L24,4.7L37,16.9z M13.5,15.9h21L24,6.1L13.5,15.9z M44.9,16.9h-6.3l-0.7-8.6
				L38.6,8l0.3,0.3L44.9,16.9z M39.5,15.9H43L39,10.2L39.5,15.9z M37.6,16.2L26.1,5.5l0.3-0.6l0.4-0.1l5,0.3
				c1.4,0.1,2.7,0.2,4.1,0.3c0.7,0,1,0.4,1.1,1.1c0.1,1.8,0.3,3.6,0.4,5.4l0.2,2.2c0,0.2,0,0.3,0,0.5L37.6,16.2z M27.9,5.8l8.5,8
				L36.3,12c-0.1-1.8-0.3-3.6-0.4-5.4c0-0.1,0-0.1,0-0.1c0,0-0.1,0-0.1,0c-1.4-0.1-2.7-0.2-4.1-0.3L27.9,5.8z M26.7,5.3L26.7,5.3
				L26.7,5.3z M11.2,15.5l-0.6-0.2l-0.1-0.4l0-0.6c0-0.4,0.1-0.9,0.1-1.3l0.2-2c0.1-1.5,0.2-3,0.3-4.5c0-0.4,0.2-1,1-1
				C14,5.3,15.9,5.1,17.8,5l2.7-0.2c0.2,0,0.3,0,0.6,0l1.6,0L11.2,15.5z M12.1,6.4c0,0,0,0.1,0,0.1C12,8,11.9,9.5,11.8,11l-0.2,2
				c0,0.3,0,0.5-0.1,0.8l8.5-8L17.9,6C16,6.1,14.1,6.3,12.1,6.4C12.1,6.4,12.1,6.4,12.1,6.4z"/>
		</g>
	</g>
</g>
</svg>
