<svg width="24" height="24" viewBox="0 0 24 24" fill="none" xmlns="http://www.w3.org/2000/svg">
<path fill-rule="evenodd" clip-rule="evenodd" d="M18.3047 14.2266C18.4922 14.3203 18.625 14.4609 18.7031 14.6484C18.7812 14.8359 18.7734 15.0234 18.6797 15.2109C18.6641 15.2578 18.5313 15.5078 18.2812 15.9609C18.0312 16.4141 17.6367 16.9023 17.0977 17.4258C16.5586 17.9492 15.8672 18.4297 15.0234 18.8672C14.1797 19.3047 13.1563 19.5234 11.9531 19.5234C11.9375 19.5234 11.9219 19.5273 11.9062 19.5352C11.8906 19.543 11.875 19.5469 11.8594 19.5469C10.7187 19.5469 9.73829 19.3281 8.91797 18.8906C8.09765 18.4531 7.42188 17.9727 6.89062 17.4492C6.35937 16.9258 5.96484 16.4336 5.70703 15.9727C5.44922 15.5117 5.3125 15.2656 5.29688 15.2344C5.20312 15.0312 5.19141 14.8359 5.26172 14.6484C5.33203 14.4609 5.46875 14.3203 5.67188 14.2266C5.85938 14.1484 6.04687 14.1445 6.23438 14.2148C6.42188 14.2852 6.5625 14.4141 6.65625 14.6016C6.67188 14.6328 6.78516 14.832 6.99609 15.1992C7.20703 15.5664 7.52344 15.957 7.94531 16.3711C8.36719 16.7852 8.90234 17.168 9.55078 17.5195C10.1992 17.8711 10.9766 18.0469 11.8828 18.0469L11.9062 18.0352C11.9219 18.0273 11.9375 18.0234 11.9531 18.0234C12.9063 18.0234 13.7227 17.8438 14.4023 17.4844C15.082 17.125 15.6367 16.7344 16.0664 16.3125C16.4961 15.8906 16.8125 15.5039 17.0156 15.1523C17.2188 14.8008 17.3203 14.6172 17.3203 14.6016C17.3984 14.4141 17.5352 14.2852 17.7305 14.2148C17.9258 14.1445 18.1172 14.1484 18.3047 14.2266ZM12 0C13.6563 0 15.2148 0.312497 16.6758 0.9375C18.1367 1.5625 19.4102 2.41796 20.4961 3.50391C21.582 4.58985 22.4375 5.86327 23.0625 7.32422C23.6875 8.78516 24 10.3437 24 12C24 13.6563 23.6875 15.2148 23.0625 16.6758C22.4375 18.1367 21.582 19.4102 20.4961 20.4961C19.4102 21.582 18.1367 22.4375 16.6758 23.0625C15.2148 23.6875 13.6563 24 12 24C10.3437 24 8.78516 23.6875 7.32422 23.0625C5.86327 22.4375 4.58985 21.582 3.50391 20.4961C2.41796 19.4102 1.5625 18.1367 0.9375 16.6758C0.312497 15.2148 0 13.6563 0 12C0 10.3437 0.312497 8.78516 0.9375 7.32422C1.5625 5.86327 2.41796 4.58985 3.50391 3.50391C4.58985 2.41796 5.86327 1.5625 7.32422 0.9375C8.78516 0.312497 10.3437 0 12 0ZM12 22.5C13.4531 22.5 14.8164 22.2227 16.0898 21.668C17.3633 21.1133 18.4727 20.3633 19.418 19.418C20.3633 18.4727 21.1133 17.3633 21.668 16.0898C22.2227 14.8164 22.5 13.4531 22.5 12C22.5 10.5469 22.2227 9.1836 21.668 7.91016C21.1133 6.63671 20.3633 5.52735 19.418 4.58203C18.4727 3.63671 17.3633 2.88672 16.0898 2.33203C14.8164 1.77734 13.4531 1.5 12 1.5C10.5469 1.5 9.1836 1.77734 7.91016 2.33203C6.63671 2.88672 5.52735 3.63671 4.58203 4.58203C3.63671 5.52735 2.88672 6.63671 2.33203 7.91016C1.77734 9.1836 1.5 10.5469 1.5 12C1.5 13.4531 1.77734 14.8164 2.33203 16.0898C2.88672 17.3633 3.63671 18.4727 4.58203 19.418C5.52735 20.3633 6.63671 21.1133 7.91016 21.668C9.1836 22.2227 10.5469 22.5 12 22.5ZM8.25 11.25C7.82812 11.25 7.47266 11.1016 7.18359 10.8047C6.89453 10.5078 6.75 10.1563 6.75 9.75C6.75 9.34375 6.89453 8.99219 7.18359 8.69531C7.47266 8.39844 7.82812 8.25 8.25 8.25C8.65625 8.25 9.0039 8.39844 9.29297 8.69531C9.58203 8.99219 9.72656 9.34375 9.72656 9.75C9.72656 10.1563 9.58203 10.5078 9.29297 10.8047C9.0039 11.1016 8.65625 11.25 8.25 11.25ZM15.75 11.25C15.3281 11.25 14.9727 11.1016 14.6836 10.8047C14.3945 10.5078 14.25 10.1563 14.25 9.75C14.25 9.34375 14.3945 8.99219 14.6836 8.69531C14.9727 8.39844 15.3281 8.25 15.75 8.25C16.1563 8.25 16.5039 8.39844 16.793 8.69531C17.082 8.99219 17.2266 9.34375 17.2266 9.75C17.2266 10.1563 17.082 10.5078 16.793 10.8047C16.5039 11.1016 16.1563 11.25 15.75 11.25Z" fill="white"/>
</svg>
