<svg width="48" height="48" viewBox="0 0 48 48" fill="none" xmlns="http://www.w3.org/2000/svg">
<path fill-rule="evenodd" clip-rule="evenodd" d="M36.6094 28.4532C36.9844 28.6406 37.25 28.9218 37.4062 29.2968C37.5624 29.6718 37.5468 30.0468 37.3594 30.4218C37.3282 30.5156 37.0626 31.0156 36.5624 31.9218C36.0624 32.8282 35.2734 33.8046 34.1954 34.8516C33.1172 35.8984 31.7344 36.8594 30.0468 37.7344C28.3594 38.6094 26.3126 39.0468 23.9062 39.0468C23.875 39.0468 23.8438 39.0546 23.8124 39.0704C23.7812 39.086 23.75 39.0938 23.7188 39.0938C21.4374 39.0938 19.4766 38.6562 17.8359 37.7812C16.1953 36.9062 14.8438 35.9454 13.7812 34.8984C12.7187 33.8516 11.9297 32.8672 11.4141 31.9454C10.8984 31.0234 10.625 30.5312 10.5938 30.4688C10.4062 30.0624 10.3828 29.6718 10.5234 29.2968C10.6641 28.9218 10.9375 28.6406 11.3438 28.4532C11.7188 28.2968 12.0937 28.289 12.4688 28.4296C12.8438 28.5704 13.125 28.8282 13.3125 29.2032C13.3438 29.2656 13.5703 29.664 13.9922 30.3984C14.4141 31.1328 15.0469 31.914 15.8906 32.7422C16.7344 33.5704 17.8047 34.336 19.1016 35.039C20.3984 35.7422 21.9532 36.0938 23.7656 36.0938L23.8124 36.0704C23.8438 36.0546 23.875 36.0468 23.9062 36.0468C25.8126 36.0468 27.4454 35.6876 28.8046 34.9688C30.164 34.25 31.2734 33.4688 32.1328 32.625C32.9922 31.7812 33.625 31.0078 34.0312 30.3046C34.4376 29.6016 34.6406 29.2344 34.6406 29.2032C34.7968 28.8282 35.0704 28.5704 35.461 28.4296C35.8516 28.289 36.2344 28.2968 36.6094 28.4532ZM24 0C27.3126 0 30.4296 0.624994 33.3516 1.875C36.2734 3.125 38.8204 4.83592 40.9922 7.00782C43.164 9.1797 44.875 11.7265 46.125 14.6484C47.375 17.5703 48 20.6874 48 24C48 27.3126 47.375 30.4296 46.125 33.3516C44.875 36.2734 43.164 38.8204 40.9922 40.9922C38.8204 43.164 36.2734 44.875 33.3516 46.125C30.4296 47.375 27.3126 48 24 48C20.6874 48 17.5703 47.375 14.6484 46.125C11.7265 44.875 9.1797 43.164 7.00782 40.9922C4.83592 38.8204 3.125 36.2734 1.875 33.3516C0.624994 30.4296 0 27.3126 0 24C0 20.6874 0.624994 17.5703 1.875 14.6484C3.125 11.7265 4.83592 9.1797 7.00782 7.00782C9.1797 4.83592 11.7265 3.125 14.6484 1.875C17.5703 0.624994 20.6874 0 24 0ZM24 45C26.9062 45 29.6328 44.4454 32.1796 43.336C34.7266 42.2266 36.9454 40.7266 38.836 38.836C40.7266 36.9454 42.2266 34.7266 43.336 32.1796C44.4454 29.6328 45 26.9062 45 24C45 21.0938 44.4454 18.3672 43.336 15.8203C42.2266 13.2734 40.7266 11.0547 38.836 9.16406C36.9454 7.27342 34.7266 5.77344 32.1796 4.66406C29.6328 3.55468 26.9062 3 24 3C21.0938 3 18.3672 3.55468 15.8203 4.66406C13.2734 5.77344 11.0547 7.27342 9.16406 9.16406C7.27342 11.0547 5.77344 13.2734 4.66406 15.8203C3.55468 18.3672 3 21.0938 3 24C3 26.9062 3.55468 29.6328 4.66406 32.1796C5.77344 34.7266 7.27342 36.9454 9.16406 38.836C11.0547 40.7266 13.2734 42.2266 15.8203 43.336C18.3672 44.4454 21.0938 45 24 45ZM16.5 22.5C15.6562 22.5 14.9453 22.2032 14.3672 21.6094C13.7891 21.0156 13.5 20.3126 13.5 19.5C13.5 18.6875 13.7891 17.9844 14.3672 17.3906C14.9453 16.7969 15.6562 16.5 16.5 16.5C17.3125 16.5 18.0078 16.7969 18.5859 17.3906C19.1641 17.9844 19.4531 18.6875 19.4531 19.5C19.4531 20.3126 19.1641 21.0156 18.5859 21.6094C18.0078 22.2032 17.3125 22.5 16.5 22.5ZM31.5 22.5C30.6562 22.5 29.9454 22.2032 29.3672 21.6094C28.789 21.0156 28.5 20.3126 28.5 19.5C28.5 18.6875 28.789 17.9844 29.3672 17.3906C29.9454 16.7969 30.6562 16.5 31.5 16.5C32.3126 16.5 33.0078 16.7969 33.586 17.3906C34.164 17.9844 34.4532 18.6875 34.4532 19.5C34.4532 20.3126 34.164 21.0156 33.586 21.6094C33.0078 22.2032 32.3126 22.5 31.5 22.5Z" fill="#E73F39"/>
</svg>
