<svg xmlns="http://www.w3.org/2000/svg" xmlns:xlink="http://www.w3.org/1999/xlink" width="46" height="46" viewBox="0 0 46 46">
  <defs>
    <path id="solr-a" d="M7.1875,17.4296875 C8.44531879,17.7591162 9.47851158,18.4329376 10.2871094,19.4511719 C11.0957072,20.4694061 11.5,21.652337 11.5,23 C11.5,24.347663 11.0957072,25.5305939 10.2871094,26.5488281 C9.47851158,27.5670624 8.44531879,28.2408838 7.1875,28.5703125 L7.1875,44.5625 C7.1875,44.9518249 7.04524882,45.2887356 6.76074219,45.5732422 C6.47623556,45.8577488 6.13932486,46 5.75,46 C5.36067514,46 5.02376444,45.8577488 4.73925781,45.5732422 C4.45475118,45.2887356 4.3125,44.9518249 4.3125,44.5625 L4.3125,28.5703125 C3.08462928,28.2408838 2.05892339,27.5670624 1.23535156,26.5488281 C0.411779736,25.5305939 0,24.347663 0,23 C0,21.652337 0.411779736,20.4694061 1.23535156,19.4511719 C2.05892339,18.4329376 3.08462928,17.7591162 4.3125,17.4296875 L4.3125,1.4375 C4.3125,1.04817514 4.45475118,0.711264443 4.73925781,0.426757812 C5.02376444,0.142251182 5.36067514,0 5.75,0 C6.13932486,0 6.47623556,0.142251182 6.76074219,0.426757812 C7.04524882,0.711264443 7.1875,1.04817514 7.1875,1.4375 L7.1875,17.4296875 Z M5.75,25.875 C6.55859779,25.875 7.23990608,25.5904976 7.79394531,25.0214844 C8.34798454,24.4524711 8.625,23.7786497 8.625,23 C8.625,22.2213503 8.34798454,21.5475289 7.79394531,20.9785156 C7.23990608,20.4095024 6.55859779,20.125 5.75,20.125 C4.94140221,20.125 4.26009392,20.4095024 3.70605469,20.9785156 C3.15201546,21.5475289 2.875,22.2213503 2.875,23 C2.875,23.7786497 3.15201546,24.4524711 3.70605469,25.0214844 C4.26009392,25.5904976 4.94140221,25.875 5.75,25.875 Z M24.4375,26.0546875 C25.6953188,26.3841162 26.7285116,27.0579376 27.5371094,28.0761719 C28.3457072,29.0944061 28.75,30.277337 28.75,31.625 C28.75,32.972663 28.3457072,34.1555939 27.5371094,35.1738281 C26.7285116,36.1920624 25.6953188,36.8658838 24.4375,37.1953125 L24.4375,44.5625 C24.4375,44.9518249 24.2952488,45.2887356 24.0107422,45.5732422 C23.7262356,45.8577488 23.3893249,46 23,46 C22.6106751,46 22.2737644,45.8577488 21.9892578,45.5732422 C21.7047512,45.2887356 21.5625,44.9518249 21.5625,44.5625 L21.5625,37.1953125 C20.3346293,36.8658838 19.3089234,36.1920624 18.4853516,35.1738281 C17.6617797,34.1555939 17.25,32.972663 17.25,31.625 C17.25,30.277337 17.6617797,29.0944061 18.4853516,28.0761719 C19.3089234,27.0579376 20.3346293,26.3841162 21.5625,26.0546875 L21.5625,1.4375 C21.5625,1.04817514 21.7047512,0.711264443 21.9892578,0.426757812 C22.2737644,0.142251182 22.6106751,0 23,0 C23.3893249,0 23.7262356,0.142251182 24.0107422,0.426757812 C24.2952488,0.711264443 24.4375,1.04817514 24.4375,1.4375 L24.4375,26.0546875 Z M23,34.5 C23.8085978,34.5 24.4899061,34.2154976 25.0439453,33.6464844 C25.5979845,33.0774711 25.875,32.4036497 25.875,31.625 C25.875,30.8463503 25.5979845,30.1725289 25.0439453,29.6035156 C24.4899061,29.0345024 23.8085978,28.75 23,28.75 C22.1914022,28.75 21.5100939,29.0345024 20.9560547,29.6035156 C20.4020155,30.1725289 20.125,30.8463503 20.125,31.625 C20.125,32.4036497 20.4020155,33.0774711 20.9560547,33.6464844 C21.5100939,34.2154976 22.1914022,34.5 23,34.5 Z M41.6875,8.8046875 C42.9453188,9.13411623 43.9785116,9.80793762 44.7871094,10.8261719 C45.5957072,11.8444061 46,13.027337 46,14.375 C46,15.722663 45.5957072,16.9055939 44.7871094,17.9238281 C43.9785116,18.9420624 42.9453188,19.6158838 41.6875,19.9453125 L41.6875,44.5625 C41.6875,44.9518249 41.5452488,45.2887356 41.2607422,45.5732422 C40.9762356,45.8577488 40.6393249,46 40.25,46 C39.8606751,46 39.5237644,45.8577488 39.2392578,45.5732422 C38.9547512,45.2887356 38.8125,44.9518249 38.8125,44.5625 L38.8125,19.9453125 C37.5846293,19.6158838 36.5589234,18.9420624 35.7353516,17.9238281 C34.9117797,16.9055939 34.5,15.722663 34.5,14.375 C34.5,13.027337 34.9117797,11.8444061 35.7353516,10.8261719 C36.5589234,9.80793762 37.5846293,9.13411623 38.8125,8.8046875 L38.8125,1.4375 C38.8125,1.04817514 38.9547512,0.711264443 39.2392578,0.426757812 C39.5237644,0.142251182 39.8606751,0 40.25,0 C40.6393249,0 40.9762356,0.142251182 41.2607422,0.426757812 C41.5452488,0.711264443 41.6875,1.04817514 41.6875,1.4375 L41.6875,8.8046875 Z M40.25,17.25 C41.0585978,17.25 41.7399061,16.9654976 42.2939453,16.3964844 C42.8479845,15.8274711 43.125,15.1536497 43.125,14.375 C43.125,13.5963503 42.8479845,12.9225289 42.2939453,12.3535156 C41.7399061,11.7845024 41.0585978,11.5 40.25,11.5 C39.4414022,11.5 38.7600939,11.7845024 38.2060547,12.3535156 C37.6520155,12.9225289 37.375,13.5963503 37.375,14.375 C37.375,15.1536497 37.6520155,15.8274711 38.2060547,16.3964844 C38.7600939,16.9654976 39.4414022,17.25 40.25,17.25 Z"/>
  </defs>
  <use fill-rule="evenodd" transform="rotate(-90 23 23)" xlink:href="#solr-a"/>
</svg>
