<svg xmlns="http://www.w3.org/2000/svg" width="48" height="43" viewBox="0 0 48 43">
  <path fill="#E73F39" d="M35.8849023,0.536061568 C38.434103,2.00249141 39.2781528,6.50408999 38.0845471,12.2675003 C38.0131835,12.6135055 37.9334702,12.9655445 37.8456288,13.3230761 C38.3723674,13.4767706 38.8849265,13.6391688 39.3804618,13.8106619 C41.8614565,14.6632374 43.9502664,15.7715855 45.4337478,16.9992942 C47.0451155,18.3463635 47.8976909,19.8213191 47.8976909,21.2621717 C47.8976909,24.2035571 44.4277087,27.1790456 38.8348135,29.0291344 C38.5449544,29.1253376 38.2479549,29.2183825 37.9442005,29.3082155 C38.0519393,29.7432211 38.1471467,30.170649 38.2294849,30.5893475 C38.749556,33.2323316 38.8348135,35.687749 38.468206,37.6827756 C38.0760213,39.8056886 37.1893428,41.3147472 35.9104796,42.0564879 C35.271048,42.4316211 34.5122558,42.6191877 33.668206,42.6191877 C31.3492007,42.6191877 28.4078153,41.2209639 25.3385435,38.5779799 C24.9071284,38.2066624 24.4747677,37.8125156 24.0427196,37.3971208 C23.70914,37.71762 23.3765061,38.0238275 23.0451155,38.3136815 C21.0159858,40.0870385 18.9271758,41.3829532 17.0174067,42.0564879 C16.0198934,42.4145696 15.0820604,42.5936104 14.2465364,42.5936104 C13.3769094,42.5936104 12.6095915,42.4060438 11.9616341,42.0309106 C9.51474245,40.6156353 8.66216696,36.5403244 9.6937833,31.1264701 C9.79955471,30.5698347 9.92447173,30.0010158 10.0677961,29.4218924 C9.61900738,29.2925015 9.18420628,29.1559384 8.76447602,29.0120829 C6.21527531,28.1424559 4.04973357,26.9829532 2.50657194,25.6614612 C0.869626998,24.2632374 -3.07522896e-11,22.7371273 -3.07522896e-11,21.2621717 C-3.07522896e-11,18.4316211 3.10337478,15.6607507 8.31261101,13.8532907 C8.88243832,13.6549908 9.47542128,13.4684211 10.0890756,13.2939888 C9.95616976,12.7554191 9.83803782,12.2250035 9.73641208,11.7048005 C9.23339254,9.13002249 9.13960924,6.76838839 9.46358792,4.86714505 C9.82166963,2.79538661 10.6657194,1.32043102 11.9190053,0.595741852 C14.4596803,-0.879213743 18.782238,0.638370627 23.1815275,4.55169212 C23.4467571,4.78721021 23.7130955,5.03313794 23.9801708,5.28899888 C24.378969,4.90571187 24.778057,4.53991146 25.1765542,4.19361041 C27.1545293,2.47140793 29.1580817,1.2095962 30.9655417,0.544587323 C32.9349911,-0.180101842 34.6401421,-0.180101842 35.8849023,0.536061568 Z M35.9732867,29.8249569 L35.89564,29.8424495 C33.9403455,30.2900652 31.7782825,30.621581 29.4889473,30.8259365 C28.1635588,32.745235 26.8148857,34.4570723 25.4700327,35.9262847 C25.8751951,36.3160562 26.2778601,36.6833395 26.677087,37.0262925 C30.5222025,40.3342854 33.5744227,41.0504488 34.8959147,40.2831308 C36.2685613,39.4902356 37.2746004,36.241923 36.2344583,30.990058 C36.1587163,30.6096653 36.0715936,30.2211315 35.9732867,29.8249569 Z M12.0448176,29.9223097 L12.0329225,29.9729739 C11.9036317,30.4977195 11.79146,31.0108609 11.6973357,31.5101291 C10.7509769,36.4976957 11.6632327,39.4987614 12.9761989,40.2575536 C13.3001776,40.4451202 13.7264654,40.5474292 14.2465364,40.5474292 C15.9431616,40.5474292 18.6117229,39.4731841 21.6980462,36.7790456 C22.0006098,36.5148473 22.3046003,36.2355786 22.6096527,35.9417318 C21.2054863,34.4359767 19.8190388,32.7227241 18.4947337,30.8564339 C16.1594593,30.6679322 13.995063,30.3548872 12.0448176,29.9223097 Z M26.8561312,31.0025757 L26.5299916,31.0158293 C25.6831051,31.0496374 24.8243749,31.0667898 23.9573712,31.0667898 C23.0040962,31.0667898 22.0699072,31.0489905 21.157049,31.0136639 C22.1018171,32.2571689 23.0708001,33.4176457 24.0414191,34.4659216 C24.9778106,33.434983 25.9198432,32.2759926 26.8561312,31.0025757 Z M23.9573712,13.5889923 C22.4923425,13.5889923 21.0315235,13.6455223 19.601268,13.7545892 C18.7934801,14.9363007 18.0137846,16.176276 17.2731794,17.459685 L17.27,17.457 L16.9461931,18.0256838 C16.3364656,19.1114512 15.764477,20.2124153 15.2364428,21.3133824 C15.8556448,22.6007519 16.5399086,23.8939995 17.2817052,25.1754932 C18.0202758,26.452035 18.806386,27.6962743 19.6230883,28.8868635 C21.0112149,28.9753584 22.4590904,29.0206086 23.9573712,29.0206086 C25.4560471,29.0206086 26.9267179,28.9685062 28.3497631,28.8666413 C29.1234104,27.7053493 29.8894155,26.4693586 30.6415631,25.1669674 C31.3906081,23.8690937 32.0797822,22.5692677 32.7018934,21.2858285 C32.0798211,20.0321817 31.3892084,18.7481406 30.6330373,17.4426335 C29.8894375,16.1582338 29.1152458,14.9235459 28.3223115,13.7537297 C26.8974409,13.6446695 25.4363763,13.5889923 23.9573712,13.5889923 Z M14.1509336,23.723745 L14.0998405,23.8445756 C13.5150738,25.2424513 13.0101608,26.6211998 12.5981397,27.9489498 C13.9614184,28.2458574 15.4369963,28.4833396 17.0090331,28.6584172 C16.6139643,28.0432107 16.2261418,27.415694 15.8472867,26.777054 L15.5083481,26.1985838 C15.0327581,25.3776249 14.5797274,24.5512611 14.1509336,23.723745 Z M33.8041296,23.6420776 L33.7023489,23.8363467 C33.2947234,24.6169403 32.8650799,25.3998911 32.4149201,26.1815323 C31.930518,27.020979 31.4398965,27.8342153 30.9445255,28.6193408 C32.5263305,28.4294829 34.0259887,28.173977 35.4132599,27.8565329 C34.9853413,26.5153786 34.4469896,25.1054608 33.8041296,23.6420776 Z M10.6384286,15.2637568 L10.4322531,15.3228857 C9.9349764,15.4672438 9.45506217,15.6197615 8.9946714,15.7801113 C4.20319716,17.4511593 2.05470693,19.7360616 2.05470693,21.2621717 C2.05470693,22.8479621 4.3651865,25.3460083 9.4294849,27.0767365 C9.81122055,27.2071921 10.2068027,27.3313537 10.615622,27.4491384 C11.2193488,25.4725529 12.0149475,23.4067202 12.9751191,21.318984 C12.0261299,19.2598303 11.2389091,17.2196209 10.6384286,15.2637568 Z M37.2982221,15.2890496 L37.2800639,15.3474777 C36.6934997,17.2323111 35.9128205,19.2302302 34.9659599,21.2730247 C35.9740857,23.3952023 36.7877322,25.4308451 37.3888191,27.3395907 C37.6642903,27.257407 37.9329918,27.1727256 38.1953819,27.0852623 C43.4557726,25.3374825 45.8600355,22.8394363 45.8600355,21.2621717 C45.8600355,20.452225 45.2461812,19.4973404 44.1293073,18.5680331 C42.8419183,17.493788 40.9662522,16.5133262 38.7239787,15.7374825 C38.2640009,15.5799426 37.7882721,15.430389 37.2982221,15.2890496 Z M23.9573712,16.9822427 C26.3211107,16.9822427 28.2373002,18.8984322 28.2373002,21.2621717 C28.2373002,23.6259112 26.3211107,25.5421006 23.9573712,25.5421006 C21.5936317,25.5421006 19.6774423,23.6259112 19.6774423,21.2621717 C19.6774423,18.8984322 21.5936317,16.9822427 23.9573712,16.9822427 Z M30.9414886,14.0167966 L31.0655147,14.2102625 C31.5188582,14.9262242 31.9637109,15.6607507 32.3978686,16.4110172 C32.8859531,17.2544493 33.3480261,18.0900332 33.7831057,18.9155141 C34.38981,17.4927177 34.9049905,16.1060135 35.3179837,14.7815849 C33.9381354,14.4655645 32.4699669,14.2096094 30.9414886,14.0167966 Z M16.9753717,14.018129 L16.4960512,14.0801875 C15.1505146,14.2612039 13.8531583,14.4899994 12.6289052,14.7627979 C13.0452015,16.1083143 13.5556747,17.4988636 14.1504098,18.909891 C14.5799709,18.080991 15.0328714,17.2521354 15.5083481,16.4280687 C15.9825464,15.6070687 16.4724907,14.8025199 16.9753717,14.018129 Z M31.6646536,2.47140793 C30.087389,3.05115926 28.3055062,4.18508466 26.5150977,5.7452978 C26.1490442,6.06377406 25.782106,6.399943 25.4151774,6.75267121 C26.7766604,8.22070366 28.1393741,9.92272102 29.455586,11.7959938 C31.7141342,12.0078397 33.8757411,12.3491556 35.8687473,12.8105767 C35.9458637,12.4915429 36.0170154,12.1764767 36.0809947,11.8667898 C37.1978686,6.43588395 36.2344583,3.11083954 34.8618117,2.31794434 C34.1626998,1.91723386 33.0287744,1.96838839 31.6646536,2.47140793 Z M12.9506217,2.36909887 C12.2515098,2.76980935 11.7314387,3.78437418 11.4841918,5.216701 C11.2028419,6.87069745 11.2880995,8.98508466 11.7484902,11.3126157 C11.8428084,11.7950137 11.9522977,12.2871483 12.0764233,12.7876498 C14.0656989,12.3356677 16.2217069,11.9998867 18.4749949,11.7916954 C19.7837258,9.94493674 21.1554014,8.24513352 22.5469879,6.74994304 C22.3056723,6.52036347 22.0652445,6.29874326 21.8259325,6.086328 C17.6824156,2.40320189 14.3232682,1.57620366 12.9506217,2.36909887 Z M23.982911,8.21574278 L23.8124077,8.39831083 C22.9108788,9.38289164 22.0173641,10.4584094 21.1453369,11.6077855 C22.0698031,11.5645575 23.0059615,11.5428111 23.9488455,11.5428111 C24.9049683,11.5428111 25.8546419,11.565264 26.7931085,11.6095302 C25.8649469,10.3727594 24.9224146,9.23429694 23.982911,8.21574278 Z" transform="translate(.043 .018)"/>
</svg>
