<svg xmlns="http://www.w3.org/2000/svg" width="48" height="48" viewBox="0 0 48 48">
  <defs>
    <filter id="spa-react-a">
      <feColorMatrix in="SourceGraphic" values="0 0 0 0 0.905882 0 0 0 0 0.247059 0 0 0 0 0.223529 0 0 0 1.000000 0"/>
    </filter>
    <filter id="spa-react-b">
      <feColorMatrix in="SourceGraphic" values="0 0 0 0 0.905882 0 0 0 0 0.247059 0 0 0 0 0.223529 0 0 0 1.000000 0"/>
    </filter>
  </defs>
  <g fill="none" fill-rule="evenodd">
    <g filter="url(#spa-react-a)" transform="translate(0 3)">
      <circle cx="24" cy="21.28" r="4.28" fill-rule="nonzero"/>
      <path fill-rule="nonzero" d="M24,31.0849023 C17.9893428,31.0849023 12.7374778,30.3772647 8.8071048,29.0301954 C6.25790409,28.1605684 4.09236234,27.0010657 2.54920071,25.6795737 C0.912255773,24.2813499 0.0426287744,22.7552398 0.0426287744,21.2802842 C0.0426287744,18.4497336 3.14600355,15.6788632 8.35523979,13.8714032 C12.6181172,12.3879218 18.1769094,11.5609236 23.9914742,11.5609236 C29.70373,11.5609236 35.1857904,12.3623446 39.4230906,13.8287744 C41.9040853,14.6813499 43.9928952,15.789698 45.4763766,17.0174067 C47.0877442,18.364476 47.9403197,19.8394316 47.9403197,21.2802842 C47.9403197,24.2216696 44.4703375,27.1971581 38.8774423,29.0472469 C34.921492,30.3602131 29.635524,31.0849023 24,31.0849023 Z M24,13.6071048 C18.4838366,13.6071048 13.0273535,14.4085258 9.03730018,15.7982238 C4.24582593,17.4692718 2.0973357,19.7541741 2.0973357,21.2802842 C2.0973357,22.8660746 4.40781528,25.3641208 9.47211368,27.094849 C13.1893428,28.3651865 18.2195382,29.0387211 24,29.0387211 C29.4223801,29.0387211 34.4781528,28.3566607 38.2380107,27.1033748 C43.4984014,25.355595 45.9026643,22.8575488 45.9026643,21.2802842 C45.9026643,20.4703375 45.2888099,19.5154529 44.1719361,18.5861456 C42.8845471,17.5119005 41.008881,16.5314387 38.7666075,15.755595 C34.7339254,14.3744227 29.4905861,13.6071048 24,13.6071048 Z"/>
      <path fill-rule="nonzero" d="M14.2891652,42.6117229 C13.4195382,42.6117229 12.6522202,42.4241563 12.0042629,42.0490231 C9.55737123,40.6337478 8.70479574,36.5584369 9.73641208,31.1445826 C10.5804618,26.7026643 12.6436945,21.4849023 15.5509769,16.4461812 C18.4071048,11.5012433 21.8344583,7.15310835 25.2191829,4.21172291 C27.1971581,2.48952043 29.2007105,1.2277087 31.0081705,0.562699822 C32.9776199,-0.161989343 34.6827709,-0.161989343 35.9275311,0.554174067 C38.4767318,2.02060391 39.3207815,6.52220249 38.1271758,12.2856128 C37.2831261,16.3779751 35.271048,21.3143872 32.4575488,26.1996448 C29.4564831,31.4003552 26.2166963,35.5950266 23.0877442,38.331794 C21.0586146,40.105151 18.9698046,41.4010657 17.0600355,42.0746004 C16.0625222,42.4326821 15.1246892,42.6117229 14.2891652,42.6117229 Z M16.4291297,16.9577265 L17.3158082,17.4692718 C14.5619893,22.2436945 12.5243339,27.3676732 11.7399645,31.5282416 C10.7936057,36.5158082 11.7058615,39.5168739 13.0188277,40.2756661 C13.3428064,40.4632327 13.7690941,40.5655417 14.2891652,40.5655417 C15.9857904,40.5655417 18.6543517,39.4912966 21.740675,36.7971581 C24.6991119,34.2138544 27.7939609,30.189698 30.6841918,25.1850799 C33.3953819,20.487389 35.3222025,15.7641208 36.1236234,11.8849023 C37.2404973,6.45399645 36.277087,3.12895204 34.9044405,2.33605684 C34.2053286,1.93534636 33.0714032,1.98650089 31.7072824,2.48952043 C30.1300178,3.06927176 28.348135,4.20319716 26.5577265,5.7634103 C23.3435169,8.5598579 20.0611012,12.7204263 17.3158082,17.4777975 L16.4291297,16.9577265 Z"/>
      <path fill-rule="nonzero" d="M33.7108348,42.6373002 C31.3918295,42.6373002 28.450444,41.2390764 25.3811723,38.5960924 C21.9538188,35.6461812 18.4667851,31.2554174 15.5509769,26.2166963 L15.5509769,26.2166963 C12.6863233,21.2717584 10.6401421,16.1307282 9.77904085,11.722913 C9.27602131,9.14813499 9.18223801,6.78650089 9.5062167,4.88525755 C9.8642984,2.81349911 10.7083481,1.33854352 11.9616341,0.613854352 C14.5023091,-0.861101243 18.8248668,0.656483126 23.2241563,4.56980462 C26.3445826,7.34067496 29.6184725,11.5523979 32.4404973,16.4291297 C35.4500888,21.6298401 37.4706927,26.5321492 38.2721137,30.60746 C38.7921847,33.250444 38.8774423,35.7058615 38.5108348,37.7008881 C38.1186501,39.8238011 37.2319716,41.3328597 35.9531083,42.0746004 C35.3136767,42.4497336 34.5548845,42.6373002 33.7108348,42.6373002 Z M17.3243339,25.1936057 C20.0866785,29.9680284 23.514032,34.2905861 26.7197158,37.044405 C30.5648313,40.3523979 33.6170515,41.0685613 34.9385435,40.3012433 C36.3111901,39.5083481 37.3172291,36.2600355 36.277087,31.0081705 C35.5097691,27.1545293 33.5744227,22.4653641 30.6756661,17.460746 C27.9559503,12.7630551 24.8269982,8.730373 21.8685613,6.1044405 C17.7250444,2.42131439 14.365897,1.59431616 12.9932504,2.38721137 C12.2941385,2.78792185 11.7740675,3.80248668 11.5268206,5.2348135 C11.2454707,6.88880995 11.3307282,9.00319716 11.791119,11.3307282 C12.6095915,15.5168739 14.5705151,20.4362345 17.3243339,25.1936057 L17.3243339,25.1936057 Z"/>
    </g>
    <g filter="url(#spa-react-b)">
      <g transform="translate(.043 3.018)">
        <circle cx="23.957" cy="21.262" r="4.28" fill="#00D8FF" fill-rule="nonzero"/>
        <path fill-rule="nonzero" d="M23.9573712,31.0667898 C17.946714,31.0667898 12.694849,30.3591522 8.76447602,29.0120829 C6.21527531,28.1424559 4.04973357,26.9829532 2.50657194,25.6614612 C0.869626998,24.2632374 2.13162821e-14,22.7371273 2.13162821e-14,21.2621717 C2.13162821e-14,18.4316211 3.10337478,15.6607507 8.31261101,13.8532907 C12.5754885,12.3698093 18.1342806,11.5428111 23.9488455,11.5428111 C29.6611012,11.5428111 35.1431616,12.3442321 39.3804618,13.8106619 C41.8614565,14.6632374 43.9502664,15.7715855 45.4337478,16.9992942 C47.0451155,18.3463635 47.8976909,19.8213191 47.8976909,21.2621717 C47.8976909,24.2035571 44.4277087,27.1790456 38.8348135,29.0291344 C34.8788632,30.3421006 29.5928952,31.0667898 23.9573712,31.0667898 Z M23.9573712,13.5889923 C18.4412078,13.5889923 12.9847247,14.3904133 8.9946714,15.7801113 C4.20319716,17.4511593 2.05470693,19.7360616 2.05470693,21.2621717 C2.05470693,22.8479621 4.3651865,25.3460083 9.4294849,27.0767365 C13.146714,28.347074 18.1769094,29.0206086 23.9573712,29.0206086 C29.3797513,29.0206086 34.435524,28.3385482 38.1953819,27.0852623 C43.4557726,25.3374825 45.8600355,22.8394363 45.8600355,21.2621717 C45.8600355,20.452225 45.2461812,19.4973404 44.1293073,18.5680331 C42.8419183,17.493788 40.9662522,16.5133262 38.7239787,15.7374825 C34.6912966,14.3563102 29.4479574,13.5889923 23.9573712,13.5889923 Z"/>
        <path fill-rule="nonzero" d="M14.2465364,42.5936104 C13.3769094,42.5936104 12.6095915,42.4060438 11.9616341,42.0309106 C9.51474245,40.6156353 8.66216696,36.5403244 9.6937833,31.1264701 C10.537833,26.6845518 12.6010657,21.4667898 15.5083481,16.4280687 C18.364476,11.4831308 21.7918295,7.13499585 25.1765542,4.19361041 C27.1545293,2.47140793 29.1580817,1.2095962 30.9655417,0.544587323 C32.9349911,-0.180101842 34.6401421,-0.180101842 35.8849023,0.536061568 C38.434103,2.00249141 39.2781528,6.50408999 38.0845471,12.2675003 C37.2404973,16.3598626 35.2284192,21.2962747 32.4149201,26.1815323 C29.4138544,31.3822427 26.1740675,35.5769141 23.0451155,38.3136815 C21.0159858,40.0870385 18.9271758,41.3829532 17.0174067,42.0564879 C16.0198934,42.4145696 15.0820604,42.5936104 14.2465364,42.5936104 Z M16.3865009,16.939614 L17.2731794,17.4511593 C14.5193606,22.225582 12.4817052,27.3495607 11.6973357,31.5101291 C10.7509769,36.4976957 11.6632327,39.4987614 12.9761989,40.2575536 C13.3001776,40.4451202 13.7264654,40.5474292 14.2465364,40.5474292 C15.9431616,40.5474292 18.6117229,39.4731841 21.6980462,36.7790456 C24.6564831,34.1957419 27.7513321,30.1715855 30.6415631,25.1669674 C33.3527531,20.4692765 35.2795737,15.7460083 36.0809947,11.8667898 C37.1978686,6.43588395 36.2344583,3.11083954 34.8618117,2.31794434 C34.1626998,1.91723386 33.0287744,1.96838839 31.6646536,2.47140793 C30.087389,3.05115926 28.3055062,4.18508466 26.5150977,5.7452978 C23.3008881,8.5417454 20.0184725,12.7023138 17.2731794,17.459685 L16.3865009,16.939614 Z"/>
        <path fill-rule="nonzero" d="M33.668206,42.6191877 C31.3492007,42.6191877 28.4078153,41.2209639 25.3385435,38.5779799 C21.9111901,35.6280687 18.4241563,31.2373049 15.5083481,26.1985838 L15.5083481,26.1985838 C12.6436945,21.2536459 10.5975133,16.1126157 9.73641208,11.7048005 C9.23339254,9.13002249 9.13960924,6.76838839 9.46358792,4.86714505 C9.82166963,2.79538661 10.6657194,1.32043102 11.9190053,0.595741852 C14.4596803,-0.879213743 18.782238,0.638370627 23.1815275,4.55169212 C26.3019538,7.32256246 29.5758437,11.5342854 32.3978686,16.4110172 C35.40746,21.6117276 37.4280639,26.5140367 38.2294849,30.5893475 C38.749556,33.2323316 38.8348135,35.687749 38.468206,37.6827756 C38.0760213,39.8056886 37.1893428,41.3147472 35.9104796,42.0564879 C35.271048,42.4316211 34.5122558,42.6191877 33.668206,42.6191877 Z M17.2817052,25.1754932 C20.0440497,29.9499159 23.4714032,34.2724736 26.677087,37.0262925 C30.5222025,40.3342854 33.5744227,41.0504488 34.8959147,40.2831308 C36.2685613,39.4902356 37.2746004,36.241923 36.2344583,30.990058 C35.4671403,27.1364168 33.531794,22.4472516 30.6330373,17.4426335 C27.9133215,12.7449426 24.7843694,8.7122605 21.8259325,6.086328 C17.6824156,2.40320189 14.3232682,1.57620366 12.9506217,2.36909887 C12.2515098,2.76980935 11.7314387,3.78437418 11.4841918,5.216701 C11.2028419,6.87069745 11.2880995,8.98508466 11.7484902,11.3126157 C12.5669627,15.4987614 14.5278863,20.418122 17.2817052,25.1754932 L17.2817052,25.1754932 Z"/>
      </g>
    </g>
  </g>
</svg>
