<?xml version="1.0" encoding="utf-8"?>
<!-- Generator: Adobe Illustrator 25.0.0, SVG Export Plug-In . SVG Version: 6.00 Build 0)  -->
<svg version="1.1" id="Capa_1" xmlns="http://www.w3.org/2000/svg" xmlns:xlink="http://www.w3.org/1999/xlink" x="0px" y="0px"
	 viewBox="0 0 48 48" style="enable-background:new 0 0 48 48;" xml:space="preserve">
<style type="text/css">
	.st0{fill:#E73F39;}
</style>
<g id="IbbFq8.tif">
	<g>
		<path class="st0" d="M4.7,24.4c0-0.3,0-0.5,0-0.8c0.2-0.6,0.4-1.3,0.7-1.9c2.5-4.4,5-8.8,7.5-13.1c0.7-1.3,1.9-2,3.4-2
			c5.1,0,10.2,0,15.3,0c1.5,0,2.7,0.7,3.4,2c2.6,4.4,5.1,8.8,7.6,13.2c0.8,1.5,0.8,3,0,4.4c-2.5,4.3-4.9,8.7-7.4,13
			c-0.8,1.4-2.1,2.2-3.8,2.2c-5,0-9.9,0-14.9,0c-1.7,0-3-0.7-3.8-2.2C10.1,34.2,6.9,29.6,4.7,24.4z M24,34.2c0.7-0.1,1.4-0.1,2-0.2
			c6.6-1.3,10.4-8.2,8-14.5c-0.7-1.9-1.9-3.5-3.5-4.7c-0.8-0.7-1.7-0.6-2.2,0.1c-0.6,0.7-0.4,1.5,0.3,2.2c0.2,0.1,0.3,0.3,0.5,0.4
			c2,1.9,2.8,4.2,2.5,6.9c-0.5,4.2-4.6,7.4-8.9,6.7c-5.2-0.8-8.2-6.8-5.6-11.4c0.6-1,1.4-1.8,2.2-2.6c0.5-0.5,0.6-1.1,0.4-1.7
			c-0.2-0.6-0.6-1-1.2-1c-0.5,0-1.1,0.3-1.5,0.6c-2.9,2.6-4.3,5.8-3.8,9.7C14,30.1,18.5,34.2,24,34.2z M22.3,18.6c0,1.6,0,3.1,0,4.7
			c0,1,0.7,1.8,1.7,1.8c0.9,0,1.6-0.8,1.6-1.8c0-3.1,0-6.2,0-9.3c0-1.1-0.6-1.7-1.7-1.7c-1,0-1.6,0.7-1.6,1.7
			C22.3,15.5,22.3,17,22.3,18.6z"/>
	</g>
</g>
</svg>
