<?xml version="1.0" encoding="UTF-8"?>
<svg version="1.1" width="72" viewBox="0 0 72 72" xmlns="http://www.w3.org/2000/svg">
  <g fill="none" fill-rule="evenodd">
    <g transform="translate(-3 -3)" fill="#ffffff">
      <g transform="translate(3 3)">
        <path d="M36,4.28547522 L27.780318,21.3571224 L26.3049905,24.3780312 L4.38583852,27.609701 L20.263173,43.4870355 L19.7713971,46.6484516 L16.5397273,65.6169485 L36,55.219402 L55.4602727,65.6169485 L52.2286029,46.6484516 L51.736827,43.4870355 L67.6141615,27.609701 L45.6247558,24.3780312 L36,4.28547522 Z M36,0 C37.0303926,0 37.9670992,0.257594295 38.8101477,0.772790614 C39.6531962,1.28798693 40.2854731,1.99051683 40.7069974,2.88040138 L48.8564257,19.8115412 L67.6141615,22.5514352 C68.5508821,22.6919433 69.3939179,23.0666259 70.1432944,23.6754943 C70.8926709,24.2843626 71.4312771,25.0571455 71.7591293,25.9938661 C72.0401455,26.8837507 72.075272,27.7853307 71.8645099,28.6986333 C71.6537477,29.6119358 71.1971033,30.4198452 70.4945629,31.1223856 L56.7950929,44.8218556 L59.956509,63.8606062 C60.1438531,64.7973268 60.0384737,65.7106156 59.6403674,66.6005002 C59.2422612,67.4903847 58.6451108,68.2163323 57.8488983,68.7783646 C57.380538,69.1062168 56.888767,69.3403935 56.3735707,69.4809016 C55.8583744,69.6214096 55.3431858,69.6916626 54.8279895,69.6916626 C54.4064652,69.6916626 53.9849473,69.6448273 53.563423,69.5511552 C53.1418988,69.4574832 52.7203808,69.2935595 52.2988566,69.0593794 L36,60.2776679 L19.6308897,69.0593794 C19.2562015,69.2935595 18.8581012,69.4574832 18.436577,69.5511552 C18.0150527,69.6448273 17.5935348,69.6916626 17.1720105,69.6916626 C16.6099782,69.6916626 16.0830807,69.6214096 15.5913024,69.4809016 C15.0995241,69.3403935 14.619462,69.1062168 14.1511017,68.7783646 C13.3548892,68.2163323 12.7577388,67.4903847 12.3596326,66.6005002 C11.9615263,65.7106156 11.8561469,64.7973268 12.043491,63.8606062 L15.2049071,44.8218556 L1.50543715,31.1223856 C0.802896711,30.4198452 0.346252279,29.6119358 0.135490148,28.6986333 C-0.075271982,27.7853307 -0.0401454872,26.8837507 0.240870687,25.9938661 C0.568722889,25.1039816 1.10732914,24.3429075 1.85670561,23.7106211 C2.60608207,23.0783347 3.44911795,22.6919433 4.38583852,22.5514352 L23.1435743,19.8115412 L31.2930026,2.88040138 C31.7145269,1.99051683 32.3468038,1.28798693 33.1898523,0.772790614 C34.0329008,0.257594295 34.9696074,0 36,0 Z" fill-rule="nonzero"/>
      </g>
    </g>
  </g>
</svg>
