<svg width="48" height="48" viewBox="0 0 48 48" fill="none" xmlns="http://www.w3.org/2000/svg">
<path d="M27.509 40C25.3845 40 23.4961 39.5279 21.8437 38.5837C20.2208 37.6395 18.8783 36.2674 17.816 34.4675C16.7538 32.6676 16.0456 30.4841 15.6916 27.917L16.2669 28.7137H12.3721C11.9885 28.7137 11.6639 28.5809 11.3983 28.3154C11.1328 28.0498 11 27.7252 11 27.3416C11 26.958 11.1328 26.6482 11.3983 26.4122C11.6639 26.1466 11.9885 26.0138 12.3721 26.0138H16.0899L15.5588 26.722C15.4703 25.8663 15.426 24.9368 15.426 23.9336C15.4555 22.9304 15.4998 22.0452 15.5588 21.278L16.1342 21.9419H12.3721C11.9885 21.9419 11.6639 21.8091 11.3983 21.5436C11.1328 21.278 11 20.9682 11 20.6141C11 20.201 11.1328 19.8764 11.3983 19.6404C11.6639 19.3748 11.9885 19.242 12.3721 19.242H16.4882L15.6916 20.083C16.0456 17.4864 16.7538 15.3029 17.816 13.5325C18.8783 11.7326 20.2208 10.3605 21.8437 9.41632C23.4961 8.47211 25.3845 8 27.509 8C29.0728 8 30.5482 8.25081 31.935 8.75242C33.3218 9.25404 34.5463 10.0802 35.6086 11.231C35.9036 11.526 36.0807 11.8359 36.1397 12.1604C36.2282 12.485 36.2135 12.7948 36.0954 13.0899C36.0069 13.3555 35.8446 13.5768 35.6086 13.7538C35.3725 13.9308 35.0922 14.0046 34.7676 13.9751C34.4431 13.9456 34.1037 13.7833 33.7497 13.4882C32.9235 12.6621 31.994 12.0867 30.9613 11.7621C29.958 11.408 28.8958 11.231 27.7745 11.231C26.3287 11.231 25.0304 11.5556 23.8797 12.2047C22.7289 12.8243 21.7699 13.7833 21.0028 15.0816C20.2651 16.3799 19.734 18.0028 19.4094 19.9502L18.6127 19.242H25.8714C26.255 19.242 26.5648 19.3748 26.8008 19.6404C27.0664 19.9059 27.1992 20.2305 27.1992 20.6141C27.1992 20.9682 27.0664 21.278 26.8008 21.5436C26.5648 21.8091 26.255 21.9419 25.8714 21.9419H18.4799L19.2766 21.278C19.1881 22.0157 19.1438 22.8861 19.1438 23.8894C19.1438 24.8926 19.1881 25.822 19.2766 26.6777L18.4799 26.0138H25.8714C26.255 26.0138 26.5648 26.1466 26.8008 26.4122C27.0664 26.6777 27.1992 26.9876 27.1992 27.3416C27.1992 27.7252 27.0664 28.0498 26.8008 28.3154C26.5648 28.5809 26.255 28.7137 25.8714 28.7137H18.9225L19.4094 28.0055C19.734 29.953 20.2651 31.5906 21.0028 32.9184C21.7699 34.2167 22.7289 35.1904 23.8797 35.8396C25.0304 36.4592 26.3287 36.769 27.7745 36.769C28.9253 36.769 29.9876 36.6067 30.9613 36.2822C31.935 35.9576 32.8792 35.3675 33.7939 34.5118C34.148 34.2462 34.4726 34.0987 34.7676 34.0692C35.0922 34.0397 35.3725 34.1134 35.6086 34.2905C35.8446 34.4675 36.0069 34.6888 36.0954 34.9544C36.2135 35.2199 36.243 35.515 36.184 35.8396C36.1249 36.1641 35.9479 36.4592 35.6528 36.7248C34.6201 37.846 33.3956 38.6722 31.9793 39.2033C30.5629 39.7344 29.0728 40 27.509 40Z" fill="#E73F39"/>
</svg>
