<svg width="48" height="49" viewBox="0 0 48 49" fill="none" xmlns="http://www.w3.org/2000/svg">
<g clip-path="url(#clip0)">
<path d="M23.9668 48.0886C37.2033 48.0886 47.9335 37.3583 47.9335 24.1218C47.9335 10.8853 37.2033 0.155029 23.9668 0.155029C10.7303 0.155029 0 10.8853 0 24.1218C0 37.3583 10.7303 48.0886 23.9668 48.0886Z" fill="#E73F39"/>
<path d="M34.4448 9.02322C32.0101 9.10815 29.8848 10.4499 28.303 12.3064C26.5514 14.3416 25.3861 16.7557 24.5465 19.2199C23.0444 17.9889 21.8858 16.3953 19.4762 15.7004C17.6138 15.1657 15.6576 15.3865 13.8587 16.7269C13.0065 17.3634 12.4194 18.3256 12.1403 19.2302C11.4173 21.5808 12.9002 23.6728 13.5737 24.4238L15.0461 26.0019C15.3497 26.3113 16.0807 27.1185 15.7233 28.2757C15.3371 29.534 13.8203 30.3485 12.2644 29.8685C11.5695 29.6566 10.5711 29.1389 10.7948 28.4101C10.8871 28.1117 11.1005 27.8887 11.215 27.631C11.3199 27.4094 11.3701 27.2433 11.4018 27.1458C11.6861 26.2176 11.2977 25.0102 10.3037 24.7037C9.37624 24.4194 8.42732 24.6446 8.05956 25.8387C7.64233 27.1953 8.29144 29.6573 11.7689 30.7296C15.8429 31.9813 19.2893 29.7629 19.7782 26.8696C20.0861 25.0574 19.2679 23.7112 17.7689 21.9795L16.5474 20.6289C15.8075 19.8897 15.5535 18.6299 16.3193 17.6617C16.9654 16.845 17.8855 16.4965 19.3927 16.9063C21.5926 17.5037 22.5733 19.0301 24.2097 20.2611C23.534 22.4773 23.0924 24.7015 22.6929 26.6961L22.4492 28.1833C21.2795 34.3185 20.3867 37.6873 18.0665 39.6214C17.599 39.9537 16.9307 40.4514 15.9234 40.4861C15.3954 40.5024 15.2249 40.139 15.2175 39.981C15.2049 39.6103 15.5173 39.4405 15.7248 39.2736C16.0349 39.1045 16.5039 38.8238 16.4721 37.9251C16.4381 36.8632 15.5586 35.9424 14.287 35.9845C13.3344 36.0169 11.8826 36.9134 11.9372 38.5543C11.9941 40.2491 13.5737 41.5192 15.9552 41.4387C17.2283 41.3952 20.0714 40.8768 22.8731 37.5463C26.1341 33.7285 27.0461 29.3516 27.7322 26.1481L28.498 21.919C28.9233 21.9699 29.3782 22.0039 29.873 22.0157C33.9345 22.1014 35.966 19.9975 35.9963 18.4674C36.0162 17.5414 35.3885 16.6301 34.5098 16.6508C33.8806 16.6685 33.0905 17.0872 32.9007 17.9571C32.7153 18.8108 34.193 19.581 33.038 20.3291C32.2176 20.86 30.7466 21.2344 28.6752 20.9302L29.0518 18.8485C29.8205 14.9006 30.7687 10.0445 34.3658 9.92636C34.6279 9.91307 35.5872 9.93818 35.6093 10.5725C35.616 10.7845 35.5636 10.8384 35.3154 11.3235C35.0629 11.7016 34.9676 12.0236 34.9794 12.3936C35.0141 13.4016 35.7807 14.064 36.8891 14.0241C38.3734 13.9761 38.8002 12.5309 38.7759 11.7888C38.7161 10.0453 36.878 8.94347 34.4448 9.02322V9.02322Z" fill="white"/>
</g>
<defs>
<clipPath id="clip0">
<rect width="48" height="48.7385" fill="white"/>
</clipPath>
</defs>
</svg>
