<?xml version="1.0" encoding="UTF-8"?>
<svg version="1.1" viewBox="0 0 32 32" xmlns="http://www.w3.org/2000/svg">
<g fill="none" fill-rule="evenodd">
<g transform="translate(16 17.5) rotate(15) translate(-15 -17.5)" fill="#fff" fill-rule="nonzero">
<path d="m15 0c-8.2823 0-15 6.7177-15 15l0.0052331 0.39827c0.094065 3.5765 1.4527 6.9336 3.7903 9.5604l0.24547 0.26834-0.050838 9.64 7.9048-5.229 0.48002 0.099628c0.89831 0.17301 1.7615 0.26236 2.625 0.26236 8.2823 0 15-6.7177 15-15 0-8.2823-6.7177-15-15-15h1.49e-5zm0 2c7.1777 0 13 5.8223 13 13s-5.8223 13-13 13c-0.97771 0-1.9711-0.13713-3.0577-0.40494l-0.42551-0.10488-5.5078 3.6428 0.03616-6.713-0.29015-0.29422c-2.392-2.4256-3.755-5.6668-3.755-9.1258 0-7.1777 5.8223-13 13-13z"/>
</g>
</g>
</svg>
