<svg width="48" height="48" viewBox="0 0 48 48" fill="none" xmlns="http://www.w3.org/2000/svg">
<path d="M39.6556 3.00587H36.6497V13.1037C36.6497 15.546 35.9687 17.7143 34.6067 19.6086C33.2446 21.5029 31.1233 23.1702 28.2427 24.6106C31.2172 26.1135 33.3699 27.8356 34.7006 29.7769C36.0313 31.7182 36.6967 34.0509 36.6967 36.775C36.6967 38.5597 36.6888 40.1722 36.6732 41.6125C36.6575 43.0528 36.6497 44.18 36.6497 44.9941H39.6556C40.0626 44.9941 40.4149 45.1429 40.7123 45.4403C41.0098 45.7378 41.1585 46.09 41.1585 46.4971C41.1585 46.9354 41.0098 47.2955 40.7123 47.5773C40.4149 47.8591 40.0626 48 39.6556 48H9.50294C9.09589 48 8.74364 47.8591 8.44618 47.5773C8.14873 47.2955 8 46.9354 8 46.4971C8 46.09 8.14873 45.7378 8.44618 45.4403C8.74364 45.1429 9.09589 44.9941 9.50294 44.9941H12.6027C12.6027 44.18 12.5949 43.0528 12.5793 41.6125C12.5636 40.1722 12.5558 38.5597 12.5558 36.775C12.5558 34.0509 13.2133 31.7182 14.5284 29.7769C15.8435 27.8356 17.9726 26.1135 20.9159 24.6106C18.0978 23.1702 16.0078 21.5029 14.6458 19.6086C13.2838 17.7143 12.6027 15.546 12.6027 13.1037V3.00587H9.50294C9.09589 3.00587 8.74364 2.85714 8.44618 2.55969C8.14873 2.26223 8 1.90998 8 1.50294C8 1.06458 8.14873 0.704502 8.44618 0.422701C8.74364 0.140899 9.09589 0 9.50294 0H39.6556C40.0626 0 40.4149 0.140899 40.7123 0.422701C41.0098 0.704502 41.1585 1.06458 41.1585 1.50294C41.1585 1.90998 41.0098 2.26223 40.7123 2.55969C40.4149 2.85714 40.0626 3.00587 39.6556 3.00587ZM15.5616 36.775C15.5616 38.591 15.5695 40.2113 15.5851 41.636C15.6008 43.0607 15.6086 44.18 15.6086 44.9941H33.6438C33.6438 44.18 33.6517 43.0528 33.6673 41.6125C33.683 40.1722 33.6908 38.5597 33.6908 36.775C33.6908 34.7084 33.1116 32.8298 31.953 31.1389C30.7945 29.4481 28.3366 27.82 24.5793 26.2544C20.8219 27.82 18.3797 29.4481 17.2524 31.1389C16.1252 32.8298 15.5616 34.7084 15.5616 36.775ZM33.6438 3.00587H15.6086V13.1037C15.6086 14.544 16.1096 16.1409 17.1115 17.8943C18.1135 19.6478 20.6027 21.3542 24.5793 23.0137C28.5871 21.3542 31.0998 19.6478 32.1174 17.8943C33.135 16.1409 33.6438 14.544 33.6438 13.1037V3.00587Z" fill="#E73F39"/>
</svg>
