<svg xmlns="http://www.w3.org/2000/svg" xmlns:xlink="http://www.w3.org/1999/xlink" width="36" height="36" viewBox="0 0 36 36">
  <defs>
    <path id="tiempo-a" d="M29.741683,2.25440313 L27.4872798,2.25440313 L27.4872798,9.82778865 C27.4872798,11.6595004 26.9765217,13.2857072 25.9549902,14.7064579 C24.9334587,16.1272087 23.3424766,17.3776854 21.1819961,18.4579256 C23.412927,19.5851328 25.0273923,20.876705 26.0254403,22.332681 C27.0234884,23.788657 27.5225049,25.5381503 27.5225049,27.5812133 C27.5225049,28.9197719 27.5166341,30.1291531 27.5048924,31.2093933 C27.4931506,32.2896336 27.4872798,33.1350263 27.4872798,33.7455969 L29.741683,33.7455969 C30.0469683,33.7455969 30.3111535,33.8571417 30.5342466,34.0802348 C30.7573397,34.3033279 30.8688845,34.5675132 30.8688845,34.8727984 C30.8688845,35.2015672 30.7573397,35.4716232 30.5342466,35.6829746 C30.3111535,35.8943259 30.0469683,36 29.741683,36 L7.12720157,36 C6.82191628,36 6.55773106,35.8943259 6.33463796,35.6829746 C6.11154487,35.4716232 6,35.2015672 6,34.8727984 C6,34.5675132 6.11154487,34.3033279 6.33463796,34.0802348 C6.55773106,33.8571417 6.82191628,33.7455969 7.12720157,33.7455969 L9.45205479,33.7455969 C9.45205479,33.1350263 9.44618401,32.2896336 9.43444227,31.2093933 C9.42270053,30.1291531 9.41682975,28.9197719 9.41682975,27.5812133 C9.41682975,25.5381503 9.9099755,23.788657 10.8962818,22.332681 C11.8825881,20.876705 13.479441,19.5851328 15.6868885,18.4579256 C13.573375,17.3776854 12.0058759,16.1272087 10.9843444,14.7064579 C9.9628129,13.2857072 9.45205479,11.6595004 9.45205479,9.82778865 L9.45205479,2.25440313 L7.12720157,2.25440313 C6.82191628,2.25440313 6.55773106,2.14285826 6.33463796,1.91976517 C6.11154487,1.69667207 6,1.43248685 6,1.12720157 C6,0.798432798 6.11154487,0.528376791 6.33463796,0.31702544 C6.55773106,0.10567409 6.82191628,0 7.12720157,0 L29.741683,0 C30.0469683,0 30.3111535,0.10567409 30.5342466,0.31702544 C30.7573397,0.528376791 30.8688845,0.798432798 30.8688845,1.12720157 C30.8688845,1.43248685 30.7573397,1.69667207 30.5342466,1.91976517 C30.3111535,2.14285826 30.0469683,2.25440313 29.741683,2.25440313 Z M11.6712329,27.5812133 C11.6712329,28.9432553 11.6771037,30.1585074 11.6888454,31.2270059 C11.7005871,32.2955044 11.7064579,33.1350263 11.7064579,33.7455969 L25.2328767,33.7455969 C25.2328767,33.1350263 25.2387475,32.2896336 25.2504892,31.2093933 C25.262231,30.1291531 25.2681018,28.9197719 25.2681018,27.5812133 C25.2681018,26.0313034 24.8336638,24.6223155 23.964775,23.3542074 C23.0958861,22.0860993 21.2524603,20.8649765 18.4344423,19.6908023 C15.6164243,20.8649765 13.78474,22.0860993 12.9393346,23.3542074 C12.0939292,24.6223155 11.6712329,26.0313034 11.6712329,27.5812133 Z M25.2328767,2.25440313 L11.7064579,2.25440313 L11.7064579,9.82778865 C11.7064579,10.9080289 12.082188,12.1056686 12.8336595,13.4207436 C13.585131,14.7358187 15.4520399,16.0156494 18.4344423,17.260274 C21.4403281,16.0156494 23.3248494,14.7358187 24.0880626,13.4207436 C24.8512758,12.1056686 25.2328767,10.9080289 25.2328767,9.82778865 L25.2328767,2.25440313 Z"/>
  </defs>
  <use fill="#E73F39" fill-rule="evenodd" xlink:href="#tiempo-a"/>
</svg>
