<svg xmlns="http://www.w3.org/2000/svg" width="74" height="69" viewBox="0 0 74 69">
  <g fill="#FFF" fill-rule="evenodd" transform="translate(0 .165)">
    <path d="M40.7,37.4590718 C40.7,43.6160084 35.7304375,48.6070521 29.6,48.6070521 C23.4695625,48.6070521 18.5,43.6160084 18.5,37.4590718 C18.5,31.3021352 23.4695625,26.3110915 29.6,26.3110915 C35.7278937,26.31713 40.6939875,31.3046899 40.7,37.4590718 L40.7,37.4590718 Z M3.7,33.7430784 L9.5608,33.7430784 L9.9197,32.3495808 C10.392375,30.5048223 11.1210437,28.7360095 12.0842,27.0951661 L12.8131,25.8540243 L8.6691,21.6939697 L13.90275,16.4376969 L18.0449,20.5996096 L19.2807,19.8675589 C20.9144812,18.9002393 22.6756812,18.1684209 24.5125,17.6937027 L25.9,17.3332514 L25.9,11.4471178 L33.3,11.4471178 L33.3,17.3332514 L34.6875,17.6937027 C35.472825,17.9031919 36.2449687,18.1593632 37,18.4610554 L37,24.4530948 L41.78595,24.4530948 C42.30395,25.7297708 42.994925,26.9281787 43.83945,28.0148745 L42.55,30.2686245 C38.5366563,22.891913 29.3287437,20.1794701 21.98355,24.210394 C14.6388187,28.2413178 11.93805,37.489032 15.9513937,44.8657434 C19.9649687,52.2422227 29.1728812,54.9546656 36.5178437,50.923974 C42.6653937,47.5500842 45.7095688,40.3842554 43.88015,33.5925806 L51.06,37.7582093 L53.4539,33.5925806 C54.1314625,33.6912867 54.8152687,33.7416849 55.5,33.7430784 L55.5,41.1750652 L49.6392,41.1750652 L49.2803,42.5685628 C48.807625,44.413089 48.0789563,46.1821341 47.1158,47.8229775 L46.3869,49.0641193 L50.5309,53.2241739 L45.29725,58.4804466 L41.1551,54.318534 L39.9193,55.0505847 C38.2855187,56.017672 36.5243188,56.7497227 34.6875,57.2244409 L33.3,57.5848922 L33.3,63.4710258 L25.9,63.4710258 L25.9,57.5848922 L24.5125,57.2244409 C22.6756812,56.7497227 20.9144812,56.017672 19.2807,55.0505847 L18.0449,54.318534 L13.90275,58.4804466 L8.6691,53.2241739 L12.8131,49.0641193 L12.0842,47.8229775 C11.1210437,46.1821341 10.392375,44.413089 9.9197,42.5685628 L9.5608,41.1750652 L3.7,41.1750652 L3.7,33.7430784 Z M44.474,17.0211079 L44.8662,15.6926403 C45.3677813,14.0253205 46.2495375,12.4985117 47.4414,11.2334481 L48.3886,10.2282719 L46.4979,6.93961773 L49.7021,5.08162102 L51.59095,8.36841721 L52.9322,8.04884177 C54.6187062,7.63079251 56.3812937,7.63079251 58.0678,8.04884177 L59.40905,8.36841721 L61.2979,5.08162102 L64.5021,6.93961773 L62.6114,10.2282719 L63.5586,11.2334481 C64.7504625,12.4985117 65.6322187,14.0253205 66.1338,15.6926403 L66.526,17.0211079 L70.3,17.0211079 L70.3,20.7371013 L66.526,20.7371013 L66.1338,22.065569 C65.6322187,23.7326566 64.7504625,25.2596976 63.5586,26.5247611 L62.6114,27.5299373 L64.5021,30.8185915 L61.2979,32.6765882 L59.40905,29.3897921 L58.0678,29.7093675 C56.3812937,30.1274167 54.6187062,30.1274167 52.9322,29.7093675 L51.59095,29.3897921 L49.7021,32.6765882 L46.4979,30.8185915 L48.3886,27.5299373 L47.4414,26.5247611 C46.2495375,25.2596976 45.3677813,23.7326566 44.8662,22.065569 L44.474,20.7371013 L40.7,20.7371013 L40.7,17.0211079 L44.474,17.0211079 Z M8.20105,48.4398324 L3.4373,53.2241739 L13.90275,63.7348613 L18.6665,58.9505198 C19.8035563,59.5334663 20.9852437,60.0244419 22.2,60.418105 L22.2,67.1870192 L37,67.1870192 L37,60.418105 C38.2149875,60.0244419 39.3964438,59.5334663 40.5335,58.9505198 L45.29725,63.7348613 L55.7627,53.2241739 L50.99895,48.4398324 C51.5796188,47.2978611 52.06825,46.111298 52.46045,44.8910587 L59.2,44.8910587 L59.2,36.4631856 L59.94,37.7637833 L69.56,32.1897931 L67.155,28.0204485 C68.0020687,26.9323591 68.6948937,25.731861 69.21405,24.4530948 L74,24.4530948 L74,13.3051145 L69.21405,13.3051145 C68.69605,12.0284385 68.005075,10.8300306 67.16055,9.74333478 L69.56555,5.57399015 L59.94555,-5.75539616e-13 L57.55165,4.16562864 C56.1923625,3.96682299 54.8113375,3.96682299 53.45205,4.16562864 L51.06,-5.75539616e-13 L41.44,5.57399015 L43.845,9.74333478 C42.9983937,10.8295661 42.3055687,12.0282062 41.78595,13.3051145 L37,13.3051145 L37,7.73112433 L22.2,7.73112433 L22.2,14.4998064 C20.9852437,14.8937017 19.8035563,15.3846773 18.6665,15.9676238 L13.90275,11.1832822 L3.4373,21.6939697 L8.20105,26.4783112 C7.6206125,27.6202824 7.13175,28.8068456 6.73955,30.0270849 L0,30.0270849 L0,44.8910587 L6.73955,44.8910587 C7.13175,46.111298 7.6206125,47.2978611 8.20105,48.4398324 L8.20105,48.4398324 Z"/>
    <path d="M55.5,15.5846151 C57.5711719,15.5846151 59.25,17.2634432 59.25,19.3346151 C59.25,21.4055526 57.5711719,23.0846151 55.5,23.0846151 C53.4288281,23.0846151 51.75,21.4055526 51.75,19.3346151 C51.75,17.2634432 53.4288281,15.5846151 55.5,15.5846151 M55.5,26.8346151 C59.6421094,26.8346151 63,23.4767244 63,19.3346151 C63,15.1925057 59.6421094,11.8346151 55.5,11.8346151 C51.3578906,11.8346151 48,15.1925057 48,19.3346151 C48,23.4767244 51.3578906,26.8346151 55.5,26.8346151"/>
  </g>
</svg>
