<svg width="25" height="25" viewBox="0 0 25 25" fill="" xmlns="http://www.w3.org/2000/svg">
<g clip-path="url(#clip0)">
<path fill-rule="evenodd" clip-rule="evenodd" d="M15.1325 3.34077C16.1239 2.96238 17.2075 2.89759 18.2369 3.15516C19.1131 3.37439 19.914 3.81814 20.5623 4.43908C21.4631 4.12638 22.3162 3.68868 23.0965 3.13829C23.3349 2.9701 23.6527 2.96745 23.8939 3.13165C24.1351 3.29584 24.2492 3.59243 24.1801 3.87593C23.8389 5.27716 23.144 6.56522 22.1645 7.61824C22.1875 7.81389 22.1993 8.01079 22.2 8.20799L22.2 8.2103C22.2 14.2053 19.3192 18.5753 15.2039 20.7657C11.1056 22.9471 5.85361 22.9297 1.16005 20.3222C0.876681 20.1648 0.738469 19.8334 0.826003 19.5213C0.913537 19.2092 1.20392 18.998 1.52782 19.0109C3.45178 19.0874 5.35422 18.6546 7.04645 17.7665C5.32755 16.8054 4.13246 15.6323 3.3305 14.3661C2.36077 12.8349 1.99244 11.2098 1.92572 9.74209C1.85914 8.2774 2.09191 6.95503 2.33792 6.00378C2.46135 5.52653 2.58926 5.13828 2.6874 4.86683C2.73651 4.73099 2.77829 4.62407 2.80849 4.54952C2.82359 4.51224 2.83582 4.48302 2.84463 4.4623L2.85523 4.43763L2.85849 4.43016L2.85959 4.42767L2.86001 4.42673C2.86018 4.42635 2.86033 4.426 3.5 4.7103L2.86033 4.426C2.96275 4.19556 3.1812 4.03802 3.4322 4.01359C3.68319 3.98917 3.92792 4.10163 4.07285 4.308C5.01682 5.65217 6.27857 6.74202 7.74572 7.48048C9.00942 8.11654 10.3917 8.47491 11.8 8.53487V8.24482C11.7868 7.18546 12.0987 6.14747 12.6938 5.27086C13.2898 4.3929 14.1411 3.71916 15.1325 3.34077ZM3.74851 6.14835C3.73012 6.21466 3.71168 6.28335 3.69333 6.35432C3.47059 7.21557 3.26585 8.3932 3.32428 9.67851C3.38256 10.9608 3.70173 12.3357 4.51325 13.617C5.32195 14.8939 6.64623 16.1204 8.7843 17.0706C9.01656 17.1739 9.17462 17.3949 9.19722 17.648C9.21983 17.9012 9.10344 18.1467 8.89314 18.2895C7.50053 19.2348 5.93802 19.8795 4.30469 20.1952C7.89241 21.4163 11.5807 21.1082 14.5461 19.5299C18.1805 17.5954 20.7996 13.7159 20.8 8.2115C20.7992 7.97665 20.7765 7.74239 20.7324 7.51173C20.6886 7.28222 20.7621 7.04596 20.9285 6.8819C21.4009 6.41599 21.8026 5.88781 22.1238 5.31443C21.6189 5.55007 21.097 5.74942 20.5618 5.91057C20.2982 5.98996 20.0125 5.90742 19.8318 5.69967C19.3237 5.11538 18.6483 4.70125 17.8971 4.51329C17.1459 4.32533 16.3551 4.37261 15.6317 4.64874C14.9082 4.92486 14.2871 5.4165 13.8521 6.05718C13.4172 6.69785 13.1896 7.45664 13.1999 8.23092L13.2001 8.2403H13.2V9.2403C13.2 9.61983 12.8975 9.93023 12.5181 9.94006C10.6454 9.98863 8.78967 9.57328 7.11629 8.73101C5.83793 8.08757 4.69629 7.21023 3.74851 6.14835Z" fill=""/>
</g>
<defs>
<clipPath id="clip0">
<rect width="24" height="24" fill="" transform="translate(0.5 0.700195)"/>
</clipPath>
</defs>
</svg>
