<svg width="24" height="24" viewBox="0 0 24 24" fill="none" xmlns="http://www.w3.org/2000/svg">
<path fill-rule="evenodd" clip-rule="evenodd" d="M24 0H0V24H24V0ZM19.5438 17.5227C19.8261 17.7345 19.9672 18.0403 19.9672 18.4402C19.9672 18.8072 19.8261 19.0943 19.5438 19.3013C19.2614 19.5036 18.8685 19.6048 18.3651 19.6048C17.01 19.6048 16.3324 19.0378 16.3324 17.9038H14.208C14.208 18.5673 14.3774 19.1507 14.7162 19.6542C15.0596 20.1577 15.556 20.5553 16.2054 20.847C16.8547 21.134 17.5746 21.2775 18.3651 21.2775C19.5038 21.2775 20.4095 21.0258 21.0824 20.5223C21.7552 20.0141 22.0917 19.3154 22.0917 18.4261C22.0917 17.6262 21.8164 16.9581 21.2659 16.4217C20.7154 15.8853 19.8378 15.4359 18.6333 15.0736C17.9793 14.876 17.4829 14.6643 17.1441 14.4384C16.81 14.2126 16.643 13.9326 16.643 13.5985C16.643 13.2409 16.7865 12.9539 17.0735 12.7375C17.3605 12.5163 17.7628 12.4057 18.2804 12.4057C18.8168 12.4057 19.2332 12.5375 19.5296 12.801C19.8261 13.0598 19.9743 13.4244 19.9743 13.895H22.0917C22.0917 13.2786 21.9317 12.7281 21.6117 12.2434C21.2965 11.7588 20.8518 11.3847 20.2778 11.1212C19.7037 10.853 19.0497 10.7189 18.3157 10.7189C17.5864 10.7189 16.9276 10.8413 16.3395 11.0859C15.756 11.3306 15.3067 11.6717 14.9914 12.1093C14.6809 12.5422 14.5256 13.0363 14.5256 13.5915C14.5256 14.6596 15.109 15.5089 16.276 16.1394C16.7041 16.3699 17.2852 16.6052 18.0193 16.8452C18.7533 17.0804 19.2614 17.3063 19.5438 17.5227ZM10.8233 12.5751H13.9711V10.8601H5.60048V12.5751H8.70595V21.1364H10.8233V12.5751Z" fill="#E73F39"/>
</svg>
