<svg width="48" height="48" viewBox="0 0 48 48" fill="none" xmlns="http://www.w3.org/2000/svg">
<path d="M21.4551 34.2212L24.7204 22.2079M21.145 34.4227C22.8893 33.4259 25.1621 32.8736 27.5195 32.8736C29.8769 32.8736 32.1497 33.4259 33.8941 34.4227C35.6384 35.4194 36.7291 36.7891 36.9531 38.2642H18.0859M21.145 34.4227C19.4006 35.4194 18.3099 36.7891 18.0859 38.2642M21.145 34.4227C21.2101 34.3854 21.276 34.3488 21.3426 34.3128C20.7187 34.2523 20.0793 34.2212 19.4336 34.2212C17.0762 34.2212 14.8034 34.6355 13.059 35.383C11.3147 36.1306 10.224 37.1579 10 38.2642H18.0859M38.8011 27.0358C39.3345 23.3699 38.4824 19.6368 36.4111 16.5654C34.3398 13.4941 31.1981 11.305 27.5995 10.4256C24.0009 9.5463 20.2037 10.0398 16.9494 11.8099C13.6951 13.5799 11.2174 16.4994 10 19.9982L10.8347 20.2022C11.1761 19.8545 11.557 19.5506 11.9702 19.2997C13.1751 18.568 14.5678 18.3397 15.8764 18.6595C17.185 18.9793 18.3155 19.8241 19.0472 21.029C19.2981 21.4421 19.4959 21.8875 19.6385 22.3534L19.9987 22.4414C20.34 22.0938 20.721 21.7898 21.1341 21.5389C22.339 20.8072 23.7318 20.579 25.0404 20.8987C26.349 21.2185 27.4795 22.0633 28.2111 23.2682C28.4621 23.6814 28.6599 24.1267 28.8024 24.5926L29.1627 24.6807C29.504 24.333 29.8849 24.0291 30.2981 23.7782C31.503 23.0465 32.8957 22.8182 34.2043 23.138C35.5129 23.4578 36.6434 24.3026 37.3751 25.5075C37.626 25.9206 37.8239 26.366 37.9664 26.8319L38.8011 27.0358Z" stroke="#20314B" stroke-width="2.7" stroke-linecap="round" stroke-linejoin="round"/>
</svg>
