<svg width="48" height="48" viewBox="0 0 48 48" fill="none" xmlns="http://www.w3.org/2000/svg">
<circle cx="12" cy="20" r="8" fill="#FFDF24"/>
<circle cx="33" cy="32" r="8" fill="#B6EAF5"/>
<path d="M19.4551 35.3144L22.7204 23.3011M19.145 35.5158C20.8893 34.5191 23.1621 33.9668 25.5195 33.9668C27.8769 33.9668 30.1497 34.5191 31.8941 35.5158C33.6384 36.5126 34.7291 37.8823 34.9531 39.3574H16.0859M19.145 35.5158C17.4006 36.5126 16.3099 37.8823 16.0859 39.3574M19.145 35.5158C19.2101 35.4786 19.276 35.442 19.3426 35.406C18.7187 35.3455 18.0793 35.3144 17.4336 35.3144C15.0762 35.3144 12.8034 35.7286 11.059 36.4762C9.31467 37.2238 8.22401 38.251 8 39.3574H16.0859M36.8011 28.129C37.3345 24.4631 36.4824 20.73 34.4111 17.6586C32.3398 14.5873 29.1981 12.3982 25.5995 11.5188C22.0008 10.6395 18.2036 11.133 14.9493 12.9031C11.6951 14.6731 9.21734 17.5926 8.00002 21.0914L8.83471 21.2953C9.17605 20.9477 9.55697 20.6438 9.97016 20.3928C11.175 19.6612 12.5678 19.4329 13.8764 19.7527C15.185 20.0724 16.3155 20.9172 17.0472 22.1221C17.2981 22.5353 17.4959 22.9807 17.6384 23.4466L17.9987 23.5346C18.34 23.1869 18.7209 22.883 19.1341 22.6321C20.339 21.9004 21.7317 21.6722 23.0403 21.9919C24.3489 22.3117 25.4794 23.1565 26.2111 24.3614C26.462 24.7746 26.6599 25.2199 26.8024 25.6858L27.1626 25.7738C27.504 25.4262 27.8849 25.1223 28.2981 24.8713C29.503 24.1397 30.8957 23.9114 32.2043 24.2312C33.5129 24.5509 34.6434 25.3957 35.3751 26.6006C35.626 27.0138 35.8238 27.4592 35.9664 27.9251L36.8011 28.129Z" stroke="#20314B" stroke-width="2.9" stroke-linecap="round" stroke-linejoin="round"/>
</svg>
