<svg width="48" height="48" viewBox="0 0 48 48" fill="none" xmlns="http://www.w3.org/2000/svg">
<path fill-rule="evenodd" clip-rule="evenodd" d="M24 18.6667C21.0545 18.6667 18.6667 21.0545 18.6667 24C18.6667 26.9455 21.0545 29.3333 24 29.3333C26.9455 29.3333 29.3333 26.9455 29.3333 24C29.3333 21.0545 26.9455 18.6667 24 18.6667ZM16 24C16 19.5817 19.5817 16 24 16C28.4183 16 32 19.5817 32 24C32 28.4183 28.4183 32 24 32C19.5817 32 16 28.4183 16 24Z" fill="#E73F39"/>
<path fill-rule="evenodd" clip-rule="evenodd" d="M24 8C24.7364 8 25.3333 8.59695 25.3333 9.33333V12C25.3333 12.7364 24.7364 13.3333 24 13.3333C23.2636 13.3333 22.6667 12.7364 22.6667 12V9.33333C22.6667 8.59695 23.2636 8 24 8Z" fill="#E73F39"/>
<path fill-rule="evenodd" clip-rule="evenodd" d="M24 34.6667C24.7364 34.6667 25.3333 35.2636 25.3333 36V38.6667C25.3333 39.403 24.7364 40 24 40C23.2636 40 22.6667 39.403 22.6667 38.6667V36C22.6667 35.2636 23.2636 34.6667 24 34.6667Z" fill="#E73F39"/>
<path fill-rule="evenodd" clip-rule="evenodd" d="M12.6838 12.6839C13.2045 12.1632 14.0487 12.1632 14.5694 12.6839L16.4628 14.5772C16.9835 15.0979 16.9835 15.9421 16.4628 16.4628C15.9421 16.9835 15.0979 16.9835 14.5772 16.4628L12.6838 14.5695C12.1631 14.0488 12.1631 13.2046 12.6838 12.6839Z" fill="#E73F39"/>
<path fill-rule="evenodd" clip-rule="evenodd" d="M31.5372 31.5372C32.0579 31.0165 32.9021 31.0165 33.4228 31.5372L35.3161 33.4305C35.8368 33.9512 35.8368 34.7954 35.3161 35.3161C34.7954 35.8368 33.9512 35.8368 33.4305 35.3161L31.5372 33.4228C31.0165 32.9021 31.0165 32.0579 31.5372 31.5372Z" fill="#E73F39"/>
<path fill-rule="evenodd" clip-rule="evenodd" d="M8 24C8 23.2636 8.59695 22.6667 9.33333 22.6667H12C12.7364 22.6667 13.3333 23.2636 13.3333 24C13.3333 24.7364 12.7364 25.3333 12 25.3333H9.33333C8.59695 25.3333 8 24.7364 8 24Z" fill="#E73F39"/>
<path fill-rule="evenodd" clip-rule="evenodd" d="M34.6667 24C34.6667 23.2636 35.2636 22.6667 36 22.6667H38.6667C39.403 22.6667 40 23.2636 40 24C40 24.7364 39.403 25.3333 38.6667 25.3333H36C35.2636 25.3333 34.6667 24.7364 34.6667 24Z" fill="#E73F39"/>
<path fill-rule="evenodd" clip-rule="evenodd" d="M16.4628 31.5372C16.9835 32.0579 16.9835 32.9021 16.4628 33.4228L14.5694 35.3161C14.0487 35.8368 13.2045 35.8368 12.6838 35.3161C12.1631 34.7954 12.1631 33.9512 12.6838 33.4305L14.5772 31.5372C15.0979 31.0165 15.9421 31.0165 16.4628 31.5372Z" fill="#E73F39"/>
<path fill-rule="evenodd" clip-rule="evenodd" d="M35.3161 12.6839C35.8368 13.2046 35.8368 14.0488 35.3161 14.5695L33.4228 16.4628C32.9021 16.9835 32.0579 16.9835 31.5372 16.4628C31.0165 15.9421 31.0165 15.0979 31.5372 14.5772L33.4305 12.6839C33.9512 12.1632 34.7954 12.1632 35.3161 12.6839Z" fill="#E73F39"/>
<path d="M24.2 21.2667C24.2 20.9353 23.9314 20.6667 23.6 20.6667C23.2686 20.6667 23 20.9353 23 21.2667V24.8666C23 25.0938 23.1284 25.3016 23.3317 25.4032L25.7316 26.6032C26.028 26.7514 26.3884 26.6313 26.5366 26.3349C26.6848 26.0385 26.5646 25.6781 26.2683 25.5299L24.2 24.4958V21.2667Z" fill="#E73F39"/>
</svg>
