<svg width="24" height="24" viewBox="0 0 24 24" fill="none" xmlns="http://www.w3.org/2000/svg">
<g clip-path="url(#clip0)">
<path fill-rule="evenodd" clip-rule="evenodd" d="M11.6244 5.40011L11.7005 5.4L11.7768 5.4001L11.9966 5.40081C12.1869 5.40163 12.4611 5.40326 12.7956 5.40653C13.4649 5.41307 14.3743 5.42614 15.3366 5.45224C16.2999 5.47838 17.3109 5.51745 18.1847 5.57564C19.0666 5.63437 19.7558 5.70966 20.1221 5.79702C20.4695 5.8976 20.7848 6.08706 21.0368 6.34679C21.2866 6.6043 21.4654 6.92196 21.5561 7.26881C21.8627 8.97711 22.0115 10.71 22.0006 12.4456L22.0006 12.4525C22.0067 14.162 21.858 15.8686 21.5561 17.5512C21.4654 17.8981 21.2866 18.2157 21.0368 18.4732C20.7831 18.7348 20.4651 18.9251 20.1148 19.0251C19.756 19.1201 19.0684 19.203 18.1803 19.2678C17.3077 19.3314 16.2976 19.3742 15.3348 19.4028C14.373 19.4314 13.464 19.4457 12.795 19.4529C12.4606 19.4564 12.1865 19.4582 11.9963 19.4591C11.9011 19.4596 11.827 19.4598 11.7767 19.4599L11.7005 19.46L11.6244 19.4599C11.5742 19.4598 11.5 19.4596 11.4049 19.4591C11.2146 19.4582 10.9405 19.4564 10.6062 19.4529C9.93718 19.4457 9.0281 19.4314 8.06636 19.4028C7.1035 19.3742 6.09347 19.3314 5.22087 19.2678C4.33032 19.2028 3.64139 19.1197 3.28339 19.0243C2.93909 18.9297 2.62491 18.7481 2.37112 18.4969C2.12453 18.2529 1.94302 17.9512 1.84291 17.6193C1.53776 15.9149 1.38973 14.186 1.4006 12.4544L1.40056 12.4465C1.39205 10.724 1.54083 9.00426 1.84504 7.30879C1.93574 6.96195 2.11459 6.6443 2.36437 6.38679C2.61806 6.12525 2.93599 5.93496 3.28629 5.83494C3.64511 5.73988 4.33273 5.65699 5.22087 5.59221C6.09347 5.52856 7.1035 5.4858 8.06636 5.45719C9.0281 5.42861 9.93718 5.4143 10.6062 5.40715C10.9405 5.40357 11.2146 5.40178 11.4049 5.40089C11.5 5.40044 11.5742 5.40022 11.6244 5.40011ZM11.6991 20.86L11.7004 20.86L11.702 20.86L11.7798 20.8599C11.8312 20.8598 11.9065 20.8595 12.0028 20.8591C12.1955 20.8582 12.4724 20.8564 12.8099 20.8528C13.4847 20.8456 14.4031 20.8311 15.3764 20.8022C16.3485 20.7733 17.381 20.7298 18.2821 20.6641C19.1637 20.5998 19.9789 20.5106 20.4814 20.3762L20.4911 20.3736C21.0804 20.2068 21.6153 19.8876 22.0417 19.448C22.4681 19.0084 22.7709 18.4641 22.9196 17.87C22.9234 17.8548 22.9267 17.8396 22.9295 17.8242C23.2492 16.0511 23.4068 14.2526 23.4006 12.4509C23.4118 10.6219 23.2541 8.79575 22.9295 6.99574L22.2406 7.12L22.9196 6.95004C22.7709 6.35594 22.4681 5.81161 22.0417 5.37203C21.6153 4.93244 21.0804 4.61316 20.4911 4.44644C20.483 4.44414 20.4748 4.44198 20.4666 4.43998C19.9696 4.31862 19.1595 4.23746 18.2777 4.17873C17.3778 4.1188 16.3463 4.07912 15.3746 4.05276C14.4018 4.02636 13.4838 4.01318 12.8093 4.0066C12.4719 4.0033 12.1951 4.00165 12.0026 4.00083C11.9063 4.00041 11.831 4.00021 11.7797 4.0001L11.7004 4L11.6213 4.00011C11.57 4.00023 11.4947 4.00045 11.3983 4.00091C11.2056 4.00181 10.9287 4.00362 10.5912 4.00723C9.91646 4.01445 8.99804 4.02889 8.02478 4.05781C7.05264 4.0867 6.02017 4.13019 5.11902 4.19592C4.23745 4.26022 3.42225 4.34929 2.9197 4.4837L2.91001 4.48644C2.32072 4.65316 1.78587 4.97244 1.35946 5.41203C0.933063 5.85161 0.630219 6.39594 0.481519 6.99004C0.477732 7.00517 0.474452 7.02042 0.471684 7.03577C0.149532 8.82217 -0.00816805 10.6343 0.000561047 12.4495C-0.0106804 14.2784 0.147032 16.1044 0.471689 17.9043C0.47579 17.927 0.481013 17.9495 0.487341 17.9717C0.651275 18.5474 0.960904 19.071 1.38631 19.492C1.81172 19.913 2.33853 20.2172 2.91583 20.3752L2.91972 20.3762C3.42227 20.5106 4.23745 20.5998 5.11902 20.6641C6.02017 20.7298 7.05264 20.7733 8.02478 20.8022C8.99804 20.8311 9.91646 20.8456 10.5912 20.8528C10.9287 20.8564 11.2056 20.8582 11.3983 20.8591C11.4947 20.8595 11.57 20.8598 11.6213 20.8599L11.6991 20.86ZM9.79662 8.5715C9.57993 8.44827 9.31407 8.44957 9.0986 8.57491C8.88313 8.70024 8.75057 8.93071 8.75057 9.17998V15.72C8.75057 15.9693 8.88313 16.1997 9.0986 16.3251C9.31407 16.4504 9.57993 16.4517 9.79662 16.3285L15.5466 13.0585C15.7654 12.934 15.9006 12.7017 15.9006 12.45C15.9006 12.1983 15.7654 11.9659 15.5466 11.8415L9.79662 8.5715ZM13.7846 12.45L10.1506 14.5166V10.3833L13.7846 12.45Z" fill="#132631"/>
</g>
<defs>
<clipPath id="clip0">
<rect width="24" height="24" fill="white"/>
</clipPath>
</defs>
</svg>
