<svg width="528" height="278" viewBox="0 0 528 278" fill="none" xmlns="http://www.w3.org/2000/svg">
<rect width="528" height="278" fill="white"/>
<g clip-path="url(#clip0_2490_2095)">
<path d="M262.801 173.77C263.427 176.148 265.718 177.415 268.52 177.415C272.374 177.415 274.092 175.185 274.092 173.016C274.092 170.577 272.407 169.283 269.484 168.165C267.463 167.411 266.169 166.777 266.169 165.423C266.169 164.069 267.193 163.47 268.554 163.47C269.082 163.435 269.608 163.559 270.065 163.827C270.521 164.095 270.887 164.494 271.114 164.972L272.919 164.042C272.528 163.219 271.901 162.53 271.118 162.063C270.335 161.597 269.431 161.374 268.52 161.422C265.826 161.422 263.939 163.079 263.939 165.423C263.939 167.768 265.657 168.893 268.069 169.856C270.481 170.819 271.862 171.358 271.862 173.016C271.862 173.891 271.323 175.333 268.493 175.333C266.237 175.333 265.031 174.195 264.667 173.043L262.801 173.77ZM275.089 169.64C275.089 174.356 278.221 177.442 282.742 177.442C283.903 177.488 285.06 177.27 286.124 176.803C287.189 176.336 288.133 175.633 288.885 174.747L287.41 173.305C286.846 173.992 286.132 174.539 285.322 174.905C284.512 175.271 283.629 175.445 282.742 175.414C279.542 175.414 277.44 173.272 277.318 169.93H289.633C289.633 169.479 289.633 168.967 289.633 168.967C289.633 164.777 286.858 161.408 282.64 161.408C278.309 161.408 275.055 164.601 275.055 169.492L275.089 169.64ZM277.467 167.983C277.615 165.518 279.905 163.497 282.674 163.497C283.88 163.484 285.042 163.949 285.906 164.789C286.77 165.63 287.268 166.778 287.289 167.983H277.467ZM292.712 179.584L291.567 181.362C293.65 182.897 296.173 183.719 298.761 183.707C300.598 183.756 302.398 183.194 303.881 182.11C306.145 180.332 306.293 177.832 306.293 174.552V161.873H304.063V164.13C303.309 162.836 301.658 161.435 298.674 161.435C296.617 161.495 294.665 162.354 293.231 163.83C291.798 165.306 290.996 167.283 290.996 169.341C290.996 171.398 291.798 173.375 293.231 174.851C294.665 176.327 296.617 177.186 298.674 177.246C301.658 177.246 303.309 175.832 304.063 174.552V175.811C304.063 177.469 303.881 179.368 302.5 180.527C301.407 181.313 300.079 181.704 298.735 181.639C296.552 181.655 294.429 180.93 292.712 179.584ZM293.224 169.344C293.224 165.976 295.541 163.497 298.674 163.497C300.186 163.548 301.619 164.185 302.67 165.273C303.722 166.36 304.31 167.814 304.31 169.327C304.31 170.84 303.722 172.294 302.67 173.382C301.619 174.47 300.186 175.106 298.674 175.158C295.541 175.158 293.224 172.685 293.224 169.344ZM308.853 171.567C308.853 174.976 310.928 177.293 314.303 177.293C316.957 177.293 318.46 176.148 319.154 175.097C319.23 175.652 319.463 176.174 319.827 176.6C320.071 176.84 320.365 177.024 320.687 177.14C321.009 177.257 321.352 177.302 321.693 177.273C322.178 177.312 322.664 177.229 323.108 177.031V175.346C322.849 175.38 322.588 175.4 322.327 175.407C321.484 175.407 321.181 174.835 321.181 173.507V161.853H318.951V170.92C318.951 173.48 317.234 175.192 314.829 175.192C312.424 175.192 311.063 173.602 311.063 171.069V161.873H308.833L308.853 171.567ZM324.819 177.051H327.049V168.212C327.016 167.657 327.099 167.102 327.291 166.58C327.483 166.059 327.78 165.582 328.165 165.181C328.549 164.779 329.012 164.461 329.525 164.247C330.038 164.032 330.589 163.926 331.145 163.934C331.65 163.924 332.155 163.976 332.647 164.089V161.678C332.339 161.637 332.028 161.616 331.718 161.617C330.75 161.571 329.789 161.812 328.959 162.311C328.128 162.81 327.463 163.543 327.049 164.42V161.86H324.819V177.051ZM332.977 169.459C332.968 171.059 333.434 172.627 334.317 173.963C335.199 175.298 336.459 176.342 337.935 176.961C339.411 177.58 341.038 177.747 342.609 177.44C344.181 177.134 345.625 176.367 346.761 175.239C347.896 174.11 348.671 172.67 348.986 171.1C349.302 169.531 349.145 167.903 348.534 166.423C347.924 164.943 346.888 163.678 345.558 162.787C344.227 161.897 342.662 161.422 341.061 161.422C339.998 161.402 338.942 161.596 337.955 161.992C336.969 162.388 336.071 162.979 335.317 163.728C334.563 164.478 333.968 165.371 333.566 166.356C333.164 167.34 332.964 168.395 332.977 169.459ZM335.207 169.459C335.231 168.308 335.594 167.189 336.251 166.244C336.908 165.298 337.829 164.568 338.9 164.143C339.97 163.719 341.142 163.621 342.268 163.86C343.394 164.099 344.425 164.665 345.23 165.488C346.036 166.31 346.581 167.352 346.797 168.483C347.013 169.614 346.89 170.783 346.444 171.845C345.998 172.906 345.249 173.812 344.29 174.45C343.332 175.087 342.206 175.427 341.055 175.427C340.272 175.442 339.496 175.296 338.772 175C338.048 174.703 337.392 174.262 336.844 173.703C336.297 173.144 335.869 172.48 335.588 171.75C335.306 171.02 335.177 170.24 335.207 169.459ZM350.028 173.77C350.661 176.148 352.952 177.415 355.754 177.415C359.608 177.415 361.325 175.185 361.325 173.016C361.325 170.577 359.635 169.283 356.718 168.165C354.73 167.411 353.403 166.777 353.403 165.423C353.403 164.069 354.414 163.497 355.761 163.497C356.289 163.46 356.817 163.584 357.273 163.852C357.73 164.12 358.095 164.52 358.321 164.999L360.126 164.069C359.744 163.245 359.124 162.552 358.347 162.081C357.569 161.609 356.669 161.38 355.761 161.422C353.066 161.422 351.18 163.079 351.18 165.423C351.18 167.768 352.898 168.893 355.31 169.856C357.721 170.819 359.102 171.358 359.102 173.016C359.102 173.891 358.557 175.333 355.734 175.333C353.47 175.333 352.265 174.195 351.907 173.043L350.028 173.77Z" fill="#F7BE00"/>
<path d="M219.551 105.143C218.46 105.143 217.393 104.819 216.486 104.213C215.578 103.607 214.871 102.745 214.454 101.737C214.036 100.729 213.927 99.6193 214.14 98.549C214.352 97.4788 214.878 96.4957 215.65 95.724C216.421 94.9524 217.404 94.4269 218.475 94.2141C219.545 94.0012 220.654 94.1104 221.662 94.528C222.671 94.9456 223.532 95.6528 224.139 96.5601C224.745 97.4675 225.068 98.5342 225.068 99.6254C225.069 100.35 224.927 101.068 224.65 101.738C224.373 102.408 223.967 103.016 223.454 103.529C222.942 104.041 222.333 104.448 221.663 104.725C220.994 105.002 220.276 105.144 219.551 105.143ZM269.733 105.143C270.458 105.146 271.177 105.006 271.848 104.73C272.519 104.454 273.129 104.048 273.642 103.535C274.155 103.022 274.562 102.412 274.838 101.741C275.114 101.07 275.254 100.351 275.25 99.6254C275.258 98.5228 274.938 97.4427 274.33 96.5226C273.723 95.6024 272.855 94.8838 271.838 94.4581C270.821 94.0325 269.7 93.919 268.618 94.1322C267.536 94.3453 266.542 94.8755 265.763 95.6552C264.983 96.4349 264.453 97.4289 264.24 98.5108C264.026 99.5926 264.14 100.713 264.566 101.731C264.991 102.748 265.71 103.615 266.63 104.223C267.55 104.831 268.63 105.151 269.733 105.143ZM197.097 137.816C198.243 136.713 199.145 135.382 199.746 133.91C200.346 132.438 200.633 130.856 200.587 129.267C200.633 127.679 200.346 126.098 199.745 124.627C199.144 123.156 198.242 121.827 197.097 120.725C195.99 119.613 194.669 118.737 193.213 118.149C191.758 117.562 190.198 117.277 188.629 117.309C187.083 117.277 185.547 117.563 184.117 118.151C182.687 118.739 181.393 119.615 180.316 120.725C179.232 121.861 178.385 123.201 177.824 124.668C177.263 126.134 177 127.698 177.049 129.267C176.999 130.837 177.263 132.402 177.823 133.87C178.384 135.338 179.232 136.679 180.316 137.816C181.39 138.932 182.683 139.814 184.113 140.408C185.544 141.001 187.081 141.293 188.629 141.265C190.199 141.297 191.759 141.01 193.214 140.422C194.67 139.834 195.991 138.956 197.097 137.843V137.816ZM209.224 149.881C207.409 149.95 205.609 149.527 204.016 148.655C203.177 148.074 202.462 147.331 201.913 146.471C201.363 145.61 200.991 144.649 200.816 143.643C198.121 147.759 193.594 149.774 187.376 149.774C184.763 149.828 182.169 149.33 179.761 148.313C177.353 147.296 175.187 145.783 173.404 143.872C169.672 139.918 167.806 135.094 167.806 129.267C167.806 123.44 169.672 118.63 173.404 114.743C175.188 112.831 177.355 111.317 179.764 110.301C182.173 109.284 184.769 108.786 187.383 108.841C193.675 108.841 198.418 111.637 199.893 115.362V94.7009H209.21L209.224 149.881ZM224.395 110.31H215.071V139.951C215.071 146.553 218.439 149.895 224.395 149.895C224.482 149.895 224.395 110.296 224.395 110.296V110.31ZM274.395 110.296H265.064V139.938C265.064 146.54 268.103 149.881 274.085 149.881H274.395V110.296ZM300.964 108.949C298.612 108.916 296.299 109.556 294.299 110.793C292.298 112.031 290.693 113.815 289.674 115.935V110.31H280.431V149.848H289.674V126.943C289.674 121.553 293.325 117.862 298.532 117.862C303.74 117.862 306.765 121.23 306.765 126.559V139.628C306.765 146.466 309.796 149.881 315.933 149.881V123.965C315.933 115.012 309.762 108.942 300.937 108.942L300.964 108.949ZM349.179 137.91C350.323 136.806 351.225 135.476 351.827 134.004C352.429 132.532 352.718 130.951 352.675 129.361C352.72 127.773 352.431 126.192 351.829 124.721C351.227 123.25 350.325 121.921 349.179 120.819C348.072 119.706 346.751 118.828 345.296 118.24C343.84 117.652 342.281 117.365 340.711 117.397C339.165 117.364 337.63 117.651 336.2 118.24C334.771 118.829 333.479 119.707 332.405 120.819C331.319 121.954 330.472 123.294 329.911 124.761C329.349 126.228 329.087 127.792 329.137 129.361C329.093 130.931 329.361 132.495 329.926 133.96C330.492 135.426 331.344 136.764 332.432 137.897C333.507 139.007 334.799 139.883 336.229 140.47C337.658 141.058 339.193 141.345 340.738 141.312C342.307 141.344 343.866 141.058 345.321 140.471C346.777 139.884 348.098 139.008 349.206 137.897L349.179 137.91ZM361.332 149.693C359.517 149.757 357.718 149.331 356.125 148.46C355.302 147.931 354.595 147.24 354.047 146.43C353.499 145.619 353.122 144.705 352.938 143.744C350.243 147.86 345.716 149.881 339.465 149.881C336.854 149.929 334.262 149.426 331.859 148.406C329.455 147.385 327.293 145.871 325.513 143.96C321.781 139.999 319.921 135.202 319.921 129.355C319.921 123.507 321.781 118.711 325.513 114.83C327.298 112.92 329.465 111.407 331.873 110.39C334.282 109.373 336.878 108.875 339.492 108.929C345.784 108.929 350.52 111.725 352.002 115.45V109.771H361.325L361.332 149.693ZM262.646 105.055C262.646 105.055 259.23 105.015 258.092 105.055C254.986 105.163 252.824 107.75 251.779 110.108C250.735 112.466 243.406 136.455 243.406 136.455L243.258 136.698C243.258 136.698 239.889 129.139 238.879 126.855C237.868 124.572 235.194 123.352 232.081 123.244C230.943 123.204 227.527 123.244 227.527 123.244L239.889 149.854H247.805L262.646 105.055Z" fill="#F7BE00"/>
<path fill-rule="evenodd" clip-rule="evenodd" d="M361.33 134.24L361.325 109.771H352.002V115.45C350.52 111.725 345.784 108.929 339.492 108.929C336.878 108.875 334.282 109.373 331.873 110.39C329.465 111.407 327.298 112.92 325.513 114.83C321.781 118.711 319.921 123.507 319.921 129.355C319.921 131.072 320.082 132.699 320.403 134.24H330.039C330 134.147 329.963 134.054 329.926 133.96C329.361 132.495 329.093 130.931 329.137 129.361C329.087 127.792 329.349 126.228 329.911 124.761C330.472 123.294 331.319 121.954 332.405 120.819C333.479 119.707 334.771 118.829 336.2 118.24C337.63 117.651 339.165 117.364 340.711 117.397C342.281 117.365 343.84 117.652 345.296 118.24C346.751 118.828 348.072 119.706 349.179 120.819C350.325 121.921 351.227 123.25 351.829 124.721C352.431 126.192 352.72 127.773 352.675 129.361C352.718 130.951 352.429 132.532 351.827 134.004C351.795 134.083 351.762 134.162 351.728 134.24H361.33ZM315.933 134.24V123.965C315.933 115.012 309.762 108.942 300.937 108.942L300.964 108.949C298.612 108.916 296.299 109.556 294.299 110.793C292.298 112.031 290.693 113.815 289.674 115.935V110.31H280.431V134.24H289.674V126.943C289.674 121.553 293.325 117.862 298.532 117.862C303.74 117.862 306.765 121.23 306.765 126.559V134.24H315.933ZM274.395 134.24V110.296H265.064V134.24H274.395ZM252.978 134.24L262.646 105.055C262.646 105.055 259.23 105.015 258.092 105.055C254.986 105.163 252.824 107.75 251.779 110.108C250.93 112.025 245.925 128.245 244.085 134.24H252.978ZM242.163 134.24C241.086 131.823 239.515 128.293 238.879 126.855C237.868 124.572 235.194 123.352 232.081 123.244C230.943 123.204 227.527 123.244 227.527 123.244L232.635 134.24H242.163ZM224.431 134.24C224.423 123.173 224.395 110.296 224.395 110.296V110.31H215.071V134.24H224.431ZM209.22 134.24L209.21 94.7009H199.893V115.362C198.418 111.637 193.675 108.841 187.383 108.841C184.769 108.786 182.173 109.284 179.764 110.301C177.355 111.317 175.188 112.831 173.404 114.743C169.672 118.63 167.806 123.44 167.806 129.267C167.806 131.014 167.974 132.67 168.309 134.24H177.972C177.921 134.118 177.871 133.994 177.823 133.87C177.263 132.402 176.999 130.837 177.049 129.267C177 127.698 177.263 126.134 177.824 124.668C178.385 123.201 179.232 121.861 180.316 120.725C181.393 119.615 182.687 118.739 184.117 118.151C185.547 117.563 187.083 117.277 188.629 117.309C190.198 117.277 191.758 117.562 193.213 118.149C194.669 118.737 195.99 119.613 197.097 120.725C198.242 121.827 199.144 123.156 199.745 124.627C200.346 126.098 200.633 127.679 200.587 129.267C200.633 130.856 200.346 132.438 199.746 133.91C199.7 134.021 199.653 134.131 199.605 134.24H209.22ZM216.486 104.213C217.393 104.819 218.46 105.143 219.551 105.143C220.276 105.144 220.994 105.002 221.663 104.725C222.333 104.448 222.942 104.041 223.454 103.529C223.967 103.016 224.373 102.408 224.65 101.738C224.927 101.068 225.069 100.35 225.068 99.6254C225.068 98.5342 224.745 97.4675 224.139 96.5601C223.532 95.6528 222.671 94.9456 221.662 94.528C220.654 94.1104 219.545 94.0012 218.475 94.2141C217.404 94.4269 216.421 94.9524 215.65 95.724C214.878 96.4957 214.352 97.4788 214.14 98.549C213.927 99.6193 214.036 100.729 214.454 101.737C214.871 102.745 215.578 103.607 216.486 104.213ZM271.848 104.73C271.177 105.006 270.458 105.146 269.733 105.143C268.63 105.151 267.55 104.831 266.63 104.223C265.71 103.615 264.991 102.748 264.566 101.731C264.14 100.713 264.026 99.5926 264.24 98.5108C264.453 97.4289 264.983 96.4349 265.763 95.6552C266.542 94.8755 267.536 94.3453 268.618 94.1322C269.7 93.919 270.821 94.0325 271.838 94.4581C272.855 94.8838 273.723 95.6024 274.33 96.5226C274.938 97.4427 275.258 98.5228 275.25 99.6254C275.254 100.351 275.114 101.07 274.838 101.741C274.562 102.412 274.155 103.022 273.642 103.535C273.129 104.048 272.519 104.454 271.848 104.73Z" fill="#004A98"/>
</g>
<defs>
<clipPath id="clip0_2490_2095">
<rect width="200" height="89.6793" fill="white" transform="translate(164 94)"/>
</clipPath>
</defs>
</svg>
