<svg width="528" height="278" viewBox="0 0 528 278" fill="none" xmlns="http://www.w3.org/2000/svg">
<rect width="528" height="278" fill="#004380"/>
<path d="M224 138.923C224 112.643 224 86.2077 224 59.9275C224 59.1546 224.155 59 224.928 59C251.208 59 277.488 59 303.768 59C304.541 59 304.696 59.1546 304.696 59.9275C304.696 112.643 304.696 165.357 304.696 218.072C304.696 218.845 304.541 219 303.768 219C277.488 219 251.208 219 224.928 219C224.155 219 224 218.845 224 218.072C224 191.792 224 165.357 224 138.923ZM280.734 72.6039C280.734 72.7585 280.889 72.913 281.043 72.913C281.816 73.3768 282.435 74.1498 282.899 75.0773C283.826 76.9324 284.444 78.7874 284.754 80.7971C284.908 82.0338 285.836 81.57 286.454 81.57C287.382 81.57 286.918 80.9517 286.918 80.4879C286.763 76.314 286.454 71.9855 286.145 67.8116C286.145 67.8116 286.145 67.8116 286.145 67.657C286.145 67.657 285.99 67.657 285.99 67.5024C285.99 67.1932 285.681 67.1932 285.527 67.1932C284.908 67.3478 284.29 67.3478 283.671 67.3478C268.522 67.3478 253.527 67.3478 238.377 67.3478C237.913 67.3478 237.449 67.1932 237.14 67.8116C236.986 68.2754 236.831 68.8937 237.295 69.3575L237.449 69.5121C237.604 69.5121 237.758 69.6667 237.913 69.6667C240.077 69.6667 242.087 70.1304 244.097 70.5942C244.097 70.9034 244.251 71.058 244.715 71.058L244.87 71.2126C244.715 71.9855 245.333 72.2947 245.488 72.913C245.797 74.3043 246.106 75.8502 246.106 77.3961C246.106 91.7729 246.106 106.15 246.106 120.527C246.106 120.99 245.952 121.454 246.261 121.918C246.261 122.845 246.261 123.773 246.106 124.7C245.643 127.329 244.56 128.411 241.932 129.029C240.386 129.338 238.841 129.338 237.295 129.493C236.676 131.193 236.831 131.502 238.686 131.502C238.841 131.502 239.15 131.502 239.304 131.502C247.498 131.502 255.691 131.502 263.729 131.502C270.841 131.502 278.106 131.502 285.217 131.502C285.681 131.502 286.145 131.657 286.454 131.193C287.382 130.884 287.072 129.957 287.227 129.338C287.536 129.184 287.691 128.874 287.691 128.72C287.845 127.638 288.309 126.71 288.618 125.628C288.928 124.855 289.391 124.082 289.237 123C289.391 122.845 289.391 122.691 289.391 122.382C289.546 122.227 289.546 122.072 289.546 121.763C290.164 119.754 290.783 117.899 291.401 115.889C291.401 115.734 291.865 115.425 291.246 115.271C290.473 114.961 289.7 115.425 289.237 116.043C287.691 118.671 286.145 121.145 284.135 123.309C282.126 125.473 279.652 127.019 276.715 127.329C275.787 127.174 274.705 127.483 273.778 127.483C268.676 127.483 263.575 127.638 258.473 127.329C257.237 127.329 256.155 126.71 255.691 125.473C255.227 124.546 255.382 123.618 255.382 122.536C255.382 115.425 255.382 108.314 255.382 101.203C255.382 100.275 255.691 99.9662 256.618 99.9662C260.329 99.9662 264.039 99.9662 267.749 99.9662C270.531 99.9662 273.314 99.9662 275.942 101.048C276.406 101.821 276.87 102.594 277.643 103.058C277.643 103.213 277.643 103.522 277.643 103.676C278.106 105.222 278.57 106.614 278.725 108.314C278.725 108.623 278.725 108.932 279.188 109.087C279.807 109.396 280.271 109.551 280.889 108.932V108.778C281.198 108.469 281.043 108.005 281.043 107.696C281.043 100.894 281.043 94.0918 281.043 87.2899C281.043 87.1353 281.043 86.9807 280.734 86.8261C279.343 86.3623 279.034 86.5169 278.879 87.9082C278.725 89.1449 278.57 90.3816 278.106 91.6184C277.488 93.3188 276.406 94.7101 274.551 95.1739C273.005 95.3285 271.459 95.6377 270.068 95.6377C265.585 95.6377 261.101 95.6377 256.464 95.6377C255.691 95.6377 255.382 95.3285 255.382 94.5556C255.382 87.1353 255.382 79.5604 255.382 72.1401C255.382 71.3671 255.691 71.058 256.464 71.058C263.884 71.2126 271.459 70.5942 278.879 71.6763C279.034 71.8309 279.188 71.8309 279.498 71.8309C279.652 72.1401 279.961 72.2947 280.271 72.2947C280.58 72.4493 280.58 72.4493 280.734 72.6039ZM303.15 139.85C302.841 138.923 302.068 139.541 301.604 139.541C276.251 139.541 251.053 139.541 225.7 139.541C225.391 139.541 225.237 139.541 225.082 139.85V140.005C224.464 140.623 224.928 141.242 224.773 142.014C224.773 166.903 224.773 191.792 224.773 216.681C224.773 218.382 224.773 218.382 226.473 218.382C250.899 218.382 275.324 218.382 299.749 218.382C300.676 218.382 301.449 218.382 302.377 218.382C302.686 218.382 303.15 218.536 303.304 217.918C303.614 217.609 303.459 217.145 303.459 216.836C303.459 191.638 303.459 166.44 303.459 141.242C303.459 140.623 303.614 140.159 303.15 139.85Z" fill="white"/>
<path d="M225.082 139.852C225.082 140.315 225.082 140.779 225.082 141.088C225.082 166.132 225.082 191.175 225.082 216.219C225.082 216.528 225.082 216.992 225.082 217.301C225.082 217.765 225.237 217.919 225.7 217.919C225.855 217.919 226.01 217.919 226.319 217.919C251.517 217.919 276.87 217.919 302.068 217.919C302.377 217.919 302.841 218.074 303.15 217.765C302.995 218.228 302.686 218.228 302.222 218.228C301.295 218.228 300.522 218.228 299.594 218.228C275.169 218.228 250.744 218.228 226.319 218.228C224.618 218.228 224.618 218.228 224.618 216.528C224.618 191.639 224.618 166.75 224.618 141.861C224.928 141.088 224.618 140.47 225.082 139.852Z" fill="white"/>
<path d="M277.024 127.328C275.942 127.637 274.86 127.637 273.778 127.637C269.295 127.637 264.657 127.637 260.174 127.637C256.309 127.637 255.227 126.555 255.227 122.69C255.227 115.27 255.227 108.004 255.227 100.584C255.227 99.8111 255.382 99.502 256.155 99.502C261.256 99.6565 266.203 99.3474 271.304 99.6565C272.85 99.8111 274.551 99.9657 275.942 101.048C273.314 99.9657 270.531 99.9657 267.749 99.9657C264.039 99.9657 260.329 99.9657 256.618 99.9657C255.691 99.9657 255.382 100.275 255.382 101.202C255.382 108.314 255.382 115.425 255.382 122.536C255.382 123.463 255.227 124.545 255.691 125.473C256.309 126.71 257.237 127.173 258.473 127.328C263.575 127.637 268.676 127.483 273.778 127.483C275.169 127.328 276.097 127.173 277.024 127.328Z" fill="white"/>
<path d="M237.295 129.338C237.449 131.038 237.449 131.038 238.995 131.038C254.609 131.038 270.068 131.038 285.681 131.038C285.99 131.038 286.3 131.038 286.609 131.038C286.3 131.657 285.836 131.348 285.372 131.348C278.261 131.348 270.995 131.348 263.884 131.348C255.691 131.348 247.498 131.348 239.459 131.348C239.304 131.348 238.995 131.348 238.841 131.348C236.831 131.348 236.676 131.038 237.295 129.338Z" fill="white"/>
<path d="M303.304 139.851C302.995 139.541 302.531 139.696 302.068 139.696C276.715 139.696 251.362 139.696 226.01 139.696C225.7 139.696 225.391 139.696 225.082 139.696C225.237 139.387 225.546 139.387 225.7 139.387C251.053 139.387 276.251 139.387 301.604 139.387C302.222 139.541 302.995 138.923 303.304 139.851Z" fill="white"/>
<path d="M303.304 217.608C303.304 216.681 303.304 215.908 303.304 214.98C303.304 190.091 303.304 165.357 303.304 140.468C303.304 140.159 303.304 140.004 303.304 139.695C303.614 140.004 303.614 140.468 303.614 140.777C303.614 165.976 303.614 191.174 303.614 216.372C303.459 216.99 303.614 217.299 303.304 217.608Z" fill="white"/>
<path d="M274.705 95.3291C273.159 95.9475 271.459 96.1021 269.913 96.1021C265.275 96.1021 260.792 96.1021 256.155 96.1021C255.382 96.1021 255.227 95.9475 255.227 95.1745C255.227 87.4451 255.227 79.7156 255.227 71.9861C255.227 71.3678 255.227 71.0586 256 71.0586C262.338 71.0586 268.676 71.0586 275.014 71.0586C276.406 71.0586 277.797 71.0586 279.034 71.8315C271.614 70.7494 264.039 71.5224 256.618 71.2132C255.845 71.2132 255.536 71.5224 255.536 72.2953C255.536 79.7156 255.536 87.2905 255.536 94.7108C255.536 95.4837 255.845 95.7929 256.618 95.7929C261.101 95.7929 265.585 95.7929 270.222 95.7929C271.768 95.9475 273.314 95.6383 274.705 95.3291Z" fill="white"/>
<path d="M244.87 71.2129C246.106 72.6042 246.106 74.3047 246.261 76.0052C246.415 78.324 246.261 80.6428 246.261 82.9617C246.261 95.4834 246.261 108.16 246.261 120.681C246.261 120.991 246.261 121.454 246.261 121.764C245.952 121.3 246.106 120.836 246.106 120.372C246.106 105.996 246.106 91.6187 246.106 77.2419C246.106 75.696 245.952 74.3047 245.488 72.7588C245.333 72.295 244.56 71.9858 244.87 71.2129Z" fill="white"/>
<path d="M285.836 67.5009C285.217 67.5009 284.754 67.5009 284.135 67.5009C269.14 67.5009 253.99 67.5009 238.995 67.5009C237.295 67.5009 237.295 67.5009 237.295 69.2014C236.676 68.7376 236.986 68.2738 237.14 67.6555C237.295 67.1917 237.913 67.1917 238.377 67.1917C253.527 67.1917 268.522 67.1917 283.671 67.1917C284.29 67.1917 284.908 67.1917 285.527 67.0371C285.681 67.1917 285.836 67.1917 285.836 67.5009Z" fill="white"/>
<path d="M281.043 108.932C281.043 103.521 281.043 98.1106 281.043 92.7C281.043 90.8449 281.043 88.9898 281.043 87.1348C281.353 87.1348 281.353 87.2894 281.353 87.5985C281.353 94.4005 281.353 101.202 281.353 108.004C281.198 108.159 281.198 108.623 281.043 108.932Z" fill="white"/>
<path d="M237.295 69.3555C239.304 69.3555 241.159 69.3555 243.014 69.9738C243.324 70.1284 243.633 70.1284 243.942 70.4376C241.932 69.8192 239.923 69.5101 237.758 69.5101C237.604 69.5101 237.449 69.3555 237.295 69.3555Z" fill="white"/>
<path d="M287.227 129.184C287.845 127.02 288.618 125.01 289.391 122.846C289.546 123.773 289.082 124.546 288.773 125.474C288.464 126.556 288 127.483 287.845 128.566C287.691 128.72 287.536 129.029 287.227 129.184Z" fill="white"/>
<path d="M277.797 103.213C278.725 104.759 278.879 106.459 279.034 108.16C279.034 108.469 279.034 108.778 279.188 109.087C278.725 108.933 278.725 108.624 278.725 108.314C278.57 106.768 278.261 105.223 277.643 103.677C277.797 103.522 277.797 103.367 277.797 103.213Z" fill="white"/>
<path d="M275.942 101.047C276.715 101.511 277.333 102.284 277.643 103.057C277.024 102.593 276.406 101.974 275.942 101.047Z" fill="white"/>
<path d="M286.454 131.039C286.763 130.42 286.763 129.802 287.227 129.184C287.072 129.802 287.382 130.729 286.454 131.039Z" fill="white"/>
<path d="M279.343 109.088C279.961 109.088 280.425 109.088 281.043 108.934C280.425 109.552 279.807 109.397 279.343 109.088Z" fill="white"/>
<path d="M279.652 71.9863C279.961 71.9863 280.271 72.1409 280.425 72.4501C280.116 72.4501 279.807 72.4501 279.652 71.9863Z" fill="white"/>
<path d="M243.942 70.5938C244.251 70.5938 244.406 70.9029 244.56 71.0575C244.251 71.0575 244.097 70.9029 243.942 70.5938Z" fill="white"/>
<path d="M289.391 122.847C289.391 122.692 289.391 122.383 289.546 122.229C289.546 122.538 289.546 122.692 289.391 122.847Z" fill="white"/>
<path d="M289.546 122.228C289.546 122.073 289.546 121.764 289.7 121.609C289.7 121.919 289.7 122.073 289.546 122.228Z" fill="white"/>
<path d="M279.034 71.832C279.188 71.832 279.498 71.832 279.652 71.9866C279.498 72.1412 279.188 71.9866 279.034 71.832Z" fill="white"/>
<path d="M280.734 72.6055C280.889 72.7601 281.043 72.7601 281.043 72.9146C280.889 72.7601 280.734 72.7601 280.734 72.6055Z" fill="white"/>
<path d="M244.715 71.0586L244.87 71.2132C244.715 71.2132 244.715 71.0586 244.715 71.0586Z" fill="white"/>
<path d="M280.425 72.4473C280.58 72.4473 280.58 72.6019 280.734 72.6019C280.58 72.4473 280.58 72.4473 280.425 72.4473Z" fill="white"/>
<path d="M231.884 179.27C231.729 179.27 231.729 179.27 231.575 179.27C231.42 178.188 232.039 178.188 232.812 178.188C253.836 178.188 274.86 178.188 295.729 178.188C296.193 178.188 297.121 177.879 297.121 178.652C297.121 179.425 296.193 179.116 295.729 179.116C275.014 179.116 254.3 179.116 233.585 179.116C233.121 179.116 232.502 178.961 231.884 179.27Z" fill="white"/>
<path d="M297.43 197.821C297.43 197.976 297.43 197.976 297.43 198.13C296.966 198.594 296.502 198.439 295.884 198.439C275.324 198.439 254.763 198.439 234.203 198.439C233.739 198.439 233.121 198.439 232.657 198.439C232.348 198.439 231.884 198.594 231.884 198.13C231.884 197.666 232.348 197.821 232.657 197.821C232.812 197.821 232.812 197.821 232.966 197.821C253.99 197.821 275.169 197.821 296.193 197.821C296.502 197.666 296.966 197.666 297.43 197.821Z" fill="white"/>
<path d="M264.502 158.709C275.169 158.709 285.836 158.709 296.502 158.709C296.812 158.709 297.275 158.554 297.43 158.863C297.739 159.327 297.43 159.791 296.812 159.945C296.657 159.945 296.502 159.945 296.502 159.945C275.169 159.945 253.836 159.945 232.348 159.945C231.884 159.945 231.266 160.1 231.266 159.172C231.266 158.863 231.42 158.709 231.729 158.709C231.884 158.709 232.193 158.709 232.348 158.709C243.169 158.709 253.836 158.709 264.502 158.709ZM264.657 159.636C275.014 159.636 285.372 159.636 295.729 159.636C296.193 159.636 297.275 159.945 297.275 159.327C297.275 158.554 296.348 158.863 295.729 158.863C274.86 158.863 253.99 158.863 233.121 158.863C232.657 158.863 231.884 158.554 231.884 159.327C231.884 159.945 232.657 159.636 233.121 159.636C243.633 159.636 254.145 159.636 264.657 159.636Z" fill="white"/>
<path d="M297.43 197.821C296.966 197.667 296.502 197.667 296.039 197.667C275.014 197.667 253.836 197.667 232.812 197.667C232.657 197.667 232.657 197.667 232.502 197.667C232.193 197.667 231.729 197.512 231.729 197.976C231.729 198.44 232.193 198.285 232.502 198.285C232.966 198.285 233.585 198.285 234.048 198.285C254.609 198.285 275.169 198.285 295.729 198.285C296.193 198.285 296.812 198.44 297.43 197.821C297.43 198.13 297.585 198.44 297.121 198.594C296.966 198.594 296.657 198.594 296.502 198.594C275.169 198.594 253.681 198.594 232.348 198.594C232.193 198.594 231.884 198.594 231.729 198.594C231.266 198.594 231.42 198.285 231.42 197.976C231.42 197.667 231.42 197.357 231.884 197.357C232.039 197.357 232.348 197.357 232.502 197.357C253.836 197.357 275.169 197.357 296.657 197.357C296.812 197.512 297.43 197.048 297.43 197.821Z" fill="white"/>
<path d="M231.884 179.271C232.502 178.962 232.966 179.116 233.585 179.116C254.3 179.116 275.014 179.116 295.729 179.116C296.193 179.116 297.121 179.425 297.121 178.652C297.121 177.88 296.193 178.189 295.729 178.189C274.705 178.189 253.681 178.189 232.812 178.189C232.039 178.189 231.266 178.189 231.575 179.271C231.111 178.343 231.266 178.034 232.193 178.034C253.681 178.034 275.169 178.034 296.502 178.034C296.966 178.034 297.43 177.88 297.43 178.652C297.43 179.425 296.966 179.271 296.502 179.271C275.169 179.271 253.681 179.271 232.348 179.271C232.348 179.271 232.193 179.271 231.884 179.271Z" fill="white"/>
<path d="M276.715 147.579C276.097 146.652 274.551 146.188 273.469 146.497C273.314 146.497 273.159 146.652 273.159 146.806C273.159 147.579 273.159 148.198 273.159 148.97C273.159 149.125 273.159 149.28 273.314 149.28C273.932 149.743 275.478 149.125 275.942 148.352C276.097 149.28 275.942 150.053 275.942 150.826C275.478 149.589 274.551 149.898 273.623 149.898C273.159 149.898 273.005 150.053 273.159 150.516C273.159 150.671 273.159 150.826 273.159 150.826C273.314 151.598 272.696 152.526 273.469 152.99C274.551 153.608 276.097 152.835 276.87 151.908L277.024 151.753C277.179 153.144 276.715 153.608 275.478 153.608C274.242 153.608 272.85 153.608 271.614 153.608C272.077 153.144 272.077 152.681 272.077 152.062C272.077 150.671 272.077 149.28 272.077 147.888C272.077 147.27 272.232 146.497 271.304 146.188C273.005 146.188 274.705 146.033 276.251 146.188C277.179 146.033 276.56 146.961 276.715 147.579Z" fill="white"/>
<path d="M238.995 165.201C239.923 165.201 240.85 165.201 241.778 165.201C240.696 165.51 241.005 166.283 241.005 167.056C241.005 167.984 241.005 169.066 241.005 169.993C241.005 171.385 241.623 172.158 242.705 172.158C243.942 172.158 244.87 171.539 245.024 170.148C245.024 169.066 245.024 167.829 245.024 166.747C245.024 166.129 244.87 165.51 244.097 165.356C244.87 165.356 245.643 165.356 246.261 165.356C245.488 165.665 245.488 166.283 245.488 166.902C245.488 167.984 245.488 169.066 245.488 170.303C245.488 172.003 244.406 172.776 242.705 172.776C240.85 172.776 239.923 172.003 239.768 170.303C239.768 169.22 239.768 167.984 239.768 166.902C239.768 166.129 239.768 165.51 238.995 165.201Z" fill="white"/>
<path d="M263.111 211.58C262.184 211.735 261.256 211.735 260.329 211.58C261.101 211.426 261.101 210.962 260.792 210.344C260.483 209.88 260.483 209.107 259.556 209.262C259.246 209.262 258.937 209.262 258.628 209.262C257.546 209.262 257.082 209.725 256.928 210.808C256.773 211.426 257.391 211.271 257.7 211.58C257.082 211.735 256.618 211.735 255.382 211.58C256.155 211.271 256.464 210.498 256.773 209.88C257.546 208.025 258.319 206.17 259.246 204.16C259.71 204.315 259.71 204.624 259.865 204.933C260.638 206.634 261.411 208.489 262.029 210.344C262.184 210.807 262.493 211.271 263.111 211.58ZM260.174 208.798C259.71 207.87 259.401 207.097 259.092 206.015C258.628 207.097 258.319 207.87 257.855 208.798C258.628 208.798 259.401 208.798 260.174 208.798Z" fill="white"/>
<path d="M265.585 165.205C267.13 165.205 268.367 165.05 269.604 165.359C270.531 165.514 271.15 165.978 271.304 166.905C271.459 167.833 271.15 168.451 270.068 168.915C269.913 168.915 269.913 169.069 269.604 169.069C270.686 170.152 271.15 171.852 272.85 172.316C271.768 172.78 270.995 172.625 270.377 171.852C269.913 171.079 269.295 170.461 268.831 169.688C268.676 169.379 268.367 169.069 267.903 169.224C267.44 169.379 267.749 169.842 267.749 169.997C267.749 170.306 267.749 170.615 267.749 170.924C267.749 171.697 267.749 172.316 268.676 172.625C267.749 172.625 266.821 172.625 265.739 172.625C266.667 172.316 266.667 171.543 266.667 170.77C266.667 169.533 266.667 168.296 266.667 166.905C266.667 165.823 266.667 165.823 265.585 165.205ZM269.913 166.441C269.758 166.287 269.758 166.287 269.604 166.132C269.14 165.668 268.522 165.668 267.903 165.823C267.285 165.978 267.749 166.596 267.594 167.06C267.594 167.524 267.594 167.833 267.594 168.296C267.594 168.915 267.903 168.915 268.367 168.915C269.758 168.606 270.068 167.987 269.913 166.441C270.686 167.06 270.068 167.833 270.068 168.451C271.459 167.833 271.15 166.596 270.531 166.132C270.068 165.668 269.913 165.978 269.913 166.441ZM267.285 165.978C267.13 165.978 266.976 165.978 266.976 165.978C266.976 167.833 266.976 169.842 266.976 171.697C266.976 171.852 266.976 172.007 267.285 172.007C267.594 172.007 267.594 171.852 267.594 171.543C267.594 171.079 267.594 170.615 267.594 170.152C267.285 168.915 267.285 167.524 267.285 165.978Z" fill="white"/>
<path d="M279.807 206.788C280.271 208.179 279.961 209.57 279.034 210.652C277.952 211.889 276.715 211.889 275.324 211.58C274.087 211.425 273.005 209.725 273.005 208.179C273.159 207.561 273.314 207.097 273.159 206.478C273.159 206.324 273.314 206.169 273.314 206.015C273.469 205.86 273.469 205.86 273.469 205.551C273.778 205.396 274.087 205.087 274.242 204.778C274.396 204.778 274.551 204.623 274.705 204.469C274.86 204.623 275.169 204.623 275.324 204.778C274.551 205.396 274.396 206.324 274.242 207.251C273.932 207.715 273.932 208.024 274.242 208.488C274.242 208.643 274.242 208.797 274.396 208.952C274.242 209.106 274.242 209.416 274.551 209.57C274.551 209.725 274.705 209.725 274.705 209.879C275.169 210.807 275.787 211.271 276.715 211.271C277.797 211.271 278.261 210.652 278.57 209.725C279.034 208.179 279.034 206.633 278.261 205.242C278.415 205.087 277.952 204.623 278.415 204.623L278.57 204.778L278.725 204.933L278.879 205.087C279.034 205.087 279.034 205.242 279.188 205.242C279.188 205.396 279.343 205.551 279.498 205.705C279.498 206.324 279.498 206.633 279.807 206.788Z" fill="white"/>
<path d="M258.164 186.381C257.237 188.391 256.464 190.246 255.382 192.565C254.609 190.71 253.836 189.164 253.063 187.618C253.527 187.618 253.681 187.927 253.836 188.391C253.836 188.546 253.99 188.7 254.145 188.7C254.3 188.7 254.454 188.391 254.3 188.391C253.681 187.463 253.527 186.536 252.908 185.608C252.754 185.454 252.599 185.299 252.29 185.454C251.981 185.608 251.981 185.917 252.135 186.072C252.29 186.381 252.29 186.69 252.444 187C252.444 188.236 252.444 189.473 252.444 190.864C252.444 191.637 252.444 192.256 253.527 192.41C252.599 192.719 251.826 192.565 251.053 192.41C252.135 192.256 251.981 191.483 251.981 190.71C251.981 189.318 251.981 187.927 251.981 186.69C251.981 186.072 251.981 185.454 251.053 185.454C252.444 184.835 253.063 185.145 253.681 186.381C254.3 187.773 255.072 189.318 255.845 190.864C256.464 189.473 257.082 188.082 257.7 186.845C258.473 185.299 258.473 185.299 260.329 185.299C260.174 185.763 259.865 185.608 259.556 185.608C258.473 184.99 258.319 184.99 258.164 186.381Z" fill="white"/>
<path d="M234.667 210.652C234.203 210.034 233.739 209.416 233.275 208.797C232.966 208.488 232.657 208.179 232.193 208.333C231.729 208.488 232.193 208.797 232.039 209.106C232.039 209.57 232.039 210.189 232.039 210.652C231.729 211.734 231.729 211.734 230.957 211.116C231.266 210.961 231.266 210.807 231.266 210.498C231.266 208.952 231.266 207.251 231.266 205.705C231.266 205.396 231.111 205.087 231.42 204.778C231.729 204.623 232.039 204.778 232.348 204.933C232.193 204.933 232.039 204.933 232.039 205.087C232.039 206.015 231.729 206.942 232.193 207.715C233.739 208.024 234.512 207.251 234.512 205.86C234.512 204.933 233.739 204.933 233.275 204.623C233.43 204.623 233.585 204.469 233.894 204.469C234.203 204.623 234.667 204.623 234.976 204.778C236.213 205.396 236.213 207.097 234.821 207.87C234.203 208.179 234.357 208.333 234.667 208.797C235.285 209.57 235.749 210.343 236.367 211.116C235.903 211.889 235.594 210.961 235.13 210.961C234.976 210.807 234.821 210.652 234.667 210.652Z" fill="white"/>
<path d="M234.976 211.116C235.44 211.116 235.749 212.044 236.213 211.271C238.377 211.734 238.377 211.734 238.377 209.416C238.377 208.333 238.377 207.251 238.377 206.169C238.377 205.396 238.531 204.778 237.449 204.469C239.15 204.469 240.85 204.469 242.551 204.469C242.86 204.469 243.014 204.623 243.014 204.933C243.014 205.242 243.014 205.705 243.014 206.169C242.551 204.623 241.314 204.933 240.232 204.933C239.614 204.933 239.459 205.242 239.459 205.705C239.459 206.324 239.459 207.097 239.459 207.715C238.841 206.942 239.304 206.169 239.15 205.396C239.15 205.087 239.15 204.778 238.841 204.778C238.377 204.778 238.531 205.087 238.531 205.396C238.531 207.251 238.686 208.952 238.531 210.807C238.531 211.116 238.531 211.58 238.841 211.58C239.304 211.58 239.15 211.271 239.15 210.961C239.304 210.189 238.841 209.261 239.304 208.488C239.304 209.261 239.304 209.879 239.304 210.652C239.304 211.271 239.459 211.58 240.077 211.58C241.314 211.58 242.705 211.734 243.169 209.879C243.324 211.425 242.86 212.044 241.778 212.044C239.768 212.044 237.758 212.044 235.749 212.044C235.44 211.734 235.13 211.58 234.976 211.116Z" fill="white"/>
<path d="M296.657 191.174C296.966 191.637 297.275 191.946 297.894 192.101C297.121 192.41 296.039 192.41 294.957 192.256C295.42 191.946 296.039 191.792 295.575 191.019C295.266 190.401 295.266 189.628 294.184 189.782C293.874 189.782 293.565 189.782 293.256 189.782C292.329 189.782 291.71 190.401 291.556 191.328C291.556 191.946 292.019 191.792 292.328 192.101C291.71 192.41 291.092 192.41 290.01 192.101C290.783 191.792 291.092 191.019 291.401 190.401C292.174 188.7 292.792 187.154 293.565 185.608C293.72 185.454 293.72 185.145 294.029 185.145C294.338 185.145 294.493 185.454 294.493 185.608C294.957 186.845 295.575 188.082 296.039 189.318C296.039 189.318 296.039 189.318 295.884 189.473C295.575 189.318 295.729 188.7 295.266 189.009C294.957 189.318 295.111 189.628 295.266 189.782C295.42 190.091 295.575 190.246 295.884 190.401C295.884 190.71 295.884 190.864 295.884 191.174C295.884 191.483 295.884 191.792 296.193 191.792C296.657 191.792 296.657 191.483 296.657 191.174ZM293.72 186.69C293.411 187 293.256 187.463 293.101 187.773C292.328 189.473 292.483 189.473 294.184 189.318C294.647 189.318 294.647 189.164 294.493 188.7C294.338 188.082 294.029 187.463 293.72 186.69Z" fill="white"/>
<path d="M259.092 172.006C259.401 172.006 259.71 172.006 260.019 172.006C261.874 172.006 261.874 172.006 262.957 170.614C263.266 171.696 262.802 172.469 261.72 172.469C260.174 172.469 258.628 172.469 257.082 172.315C258.164 172.006 258.01 171.233 258.01 170.46C258.01 169.068 258.01 167.677 258.01 166.44C258.01 165.822 258.01 165.358 256.928 165.204C257.546 164.895 258.01 165.049 258.319 164.895C259.246 164.895 260.328 164.895 261.256 164.895C262.647 164.895 262.647 164.895 262.493 166.75C262.029 164.895 260.638 165.358 259.556 165.358C259.246 165.358 258.937 165.358 258.937 165.667C258.937 166.44 258.937 167.059 258.937 167.832C258.937 167.986 258.937 167.986 259.092 168.141C259.865 168.45 261.256 167.986 261.72 167.213C261.72 167.523 261.72 167.986 261.72 168.296C261.72 168.759 261.72 169.068 261.72 169.687C261.256 169.223 261.256 168.759 260.638 168.605C258.937 168.295 258.783 168.45 258.783 170.151C259.092 171.078 259.092 171.542 259.092 172.006C258.783 171.696 258.783 171.233 258.783 170.769C258.783 169.223 258.783 167.677 258.783 166.131C258.783 165.822 258.783 165.513 258.319 165.513C257.855 165.513 258.01 165.977 258.01 166.131C258.01 167.986 258.01 169.687 258.01 171.542C258.01 171.851 258.01 172.16 258.319 172.315C258.628 172.469 258.937 172.315 259.092 172.006Z" fill="white"/>
<path d="M237.449 187.156C238.377 189.629 237.14 191.794 234.512 192.257C234.203 192.257 233.894 192.412 233.43 192.412C232.348 192.412 231.42 192.412 230.338 192.257C231.575 191.948 231.266 191.021 231.266 190.248C231.266 189.011 231.266 187.774 231.266 186.537C231.266 185.919 231.42 185.146 230.338 184.992C232.039 184.992 233.739 184.682 235.285 185.146C236.058 185.301 236.676 185.765 236.986 186.383C236.676 186.074 236.367 185.765 235.903 185.61C235.44 185.301 235.285 185.455 235.285 185.919C234.667 185.301 233.894 185.146 232.966 185.301C232.502 185.301 232.348 185.455 232.348 185.919C232.348 187.62 232.348 189.32 232.348 191.021C232.348 191.484 232.502 191.639 232.966 191.639C234.203 191.794 235.285 191.33 236.058 190.248C236.058 190.402 235.903 190.711 236.213 190.866C236.367 190.866 236.522 190.711 236.676 190.557C237.604 189.629 237.604 188.393 237.449 187.156ZM232.348 188.547C232.348 187.62 232.348 186.692 232.348 185.919C232.348 185.61 232.502 185.146 232.039 185.146C231.575 185.146 231.729 185.61 231.729 185.919C231.729 187.774 232.039 189.629 231.729 191.484C231.729 191.794 231.729 191.948 232.193 191.948C232.502 191.948 232.502 191.639 232.502 191.484C232.348 190.557 232.348 189.629 232.348 188.547Z" fill="white"/>
<path d="M232.193 149.125C232.657 149.125 232.966 149.125 233.43 149.125C234.203 149.125 234.821 149.125 234.976 148.198C235.13 148.97 235.13 149.743 235.13 150.671C234.512 149.743 233.585 149.434 232.657 149.743C232.348 149.898 232.348 150.053 232.348 150.362C232.348 150.826 232.348 151.444 232.348 151.908C232.348 152.99 232.502 153.144 233.585 153.144C234.512 152.99 235.44 152.835 236.058 151.753C236.213 152.99 236.058 153.454 234.976 153.454C233.585 153.454 232.039 153.454 230.647 153.454C230.647 153.454 230.493 153.454 230.338 153.299C231.266 153.299 231.266 152.681 231.266 152.062C231.266 150.671 231.266 149.28 231.266 147.734C231.266 147.115 231.266 146.497 230.493 146.188C232.193 146.188 233.894 146.033 235.594 146.188C236.522 146.342 235.903 147.115 236.058 147.734C235.285 145.879 233.739 146.652 232.502 146.652C232.502 146.188 232.193 146.342 232.039 146.342C231.729 146.342 231.575 146.652 231.575 146.961C231.575 148.816 231.575 150.516 231.575 152.371C231.575 152.681 231.575 152.99 231.884 152.99C232.348 152.99 232.193 152.526 232.193 152.371C231.884 151.289 231.729 150.207 232.193 149.125C232.193 149.125 232.039 149.28 232.193 149.125Z" fill="white"/>
<path d="M248.734 205.551C248.58 205.242 248.425 205.087 248.116 204.778C248.425 204.623 248.889 204.469 249.198 204.469C250.435 206.015 251.671 207.561 253.063 209.106C253.217 209.261 253.217 209.725 253.681 209.416C253.99 210.034 254.3 210.807 253.527 211.271C252.135 209.57 250.744 207.87 249.198 206.169C248.58 206.478 249.353 207.406 248.734 207.715C248.734 207.561 248.734 207.406 248.734 207.251V207.097C248.734 206.942 248.734 206.633 248.734 206.478C248.734 206.478 248.734 206.478 248.734 206.324C248.734 206.015 248.734 205.86 248.734 205.551C248.889 205.551 248.734 205.705 248.734 205.551Z" fill="white"/>
<path d="M286.763 204.314C287.691 204.314 288.618 204.314 289.546 204.314C288.618 204.624 288.618 205.242 288.618 206.015C288.618 207.406 288.618 208.798 288.618 210.189C288.618 210.807 288.618 211.426 289.546 211.58C288.618 211.58 287.691 211.58 286.763 211.58C287.536 211.426 287.691 210.807 287.691 210.034C287.691 208.643 287.691 207.252 287.691 205.86C287.691 205.242 287.691 204.624 286.763 204.314Z" fill="white"/>
<path d="M287.072 151.291C287.227 152.064 286.918 152.528 286.763 153.146C286.763 153.301 286.454 153.455 286.3 153.455C284.599 153.455 282.899 153.455 281.043 153.301C281.971 153.146 281.971 152.528 281.971 151.909C281.971 150.518 281.971 149.127 281.971 147.735C281.971 147.117 281.971 146.499 281.198 146.189C282.126 146.189 283.208 146.189 284.135 146.189C282.744 146.499 283.053 147.581 283.053 148.508C283.053 149.745 283.053 150.827 283.053 152.064C283.053 152.682 283.208 152.991 283.981 152.991C285.217 152.837 286.454 152.991 287.072 151.291ZM282.126 149.9C282.126 150.673 282.126 151.445 282.126 152.218C282.126 152.528 281.971 152.991 282.435 152.991C282.899 152.991 282.744 152.528 282.744 152.373C282.744 150.673 283.053 148.972 282.744 147.117C282.744 146.808 283.208 146.344 282.589 146.344C281.971 146.189 281.971 146.808 281.971 147.272C282.126 148.045 282.126 148.972 282.126 149.9Z" fill="white"/>
<path d="M275.014 172.622C275.942 172.467 275.942 171.849 275.942 171.23C275.942 169.839 275.942 168.448 275.942 167.056C275.942 165.974 275.942 165.974 275.014 165.51C275.787 165.356 276.87 165.356 278.106 165.51C276.87 165.665 277.024 166.438 277.024 167.211C277.024 168.602 277.024 169.839 277.024 171.23C277.024 171.849 277.024 172.467 277.952 172.776C277.024 172.622 275.942 172.622 275.014 172.622Z" fill="white"/>
<path d="M282.744 207.561C283.053 207.561 283.362 207.561 283.671 207.561C284.29 207.561 284.908 207.406 285.063 206.633C285.217 207.406 285.217 208.179 285.217 209.261C284.908 208.643 284.908 208.179 284.29 208.179C283.053 208.025 282.744 208.179 282.744 209.416C282.744 209.725 282.744 209.88 282.744 210.189C282.744 210.807 282.744 211.426 283.671 211.58C282.744 211.735 281.662 211.735 280.734 211.58C281.662 211.426 281.662 210.962 281.662 210.189C281.662 208.798 281.662 207.252 281.662 205.86C281.662 204.778 281.662 204.778 280.58 204.314C282.435 204.314 284.135 204.314 285.681 204.314C286.145 204.314 286.145 204.469 286.145 204.778C286.145 205.087 286.145 205.397 286.145 205.86C285.527 204.16 283.981 204.778 282.899 204.624C282.435 204.469 281.971 204.314 281.971 205.087C281.971 206.942 281.971 208.798 281.971 210.653C281.971 211.116 282.28 211.426 282.744 211.426C282.589 210.189 282.28 208.798 282.744 207.561Z" fill="white"/>
<path d="M295.729 151.133C296.193 151.752 296.193 152.834 297.275 153.298C296.348 153.298 295.575 153.298 294.647 153.298C295.111 153.143 295.42 152.679 295.111 152.216C294.802 151.752 294.957 150.824 294.029 150.979C293.72 150.979 293.256 150.979 292.947 150.979C292.019 150.824 291.556 151.288 291.246 152.061C291.092 152.679 291.092 152.989 291.865 153.143C291.092 153.298 290.473 153.298 289.391 153.143C290.319 152.834 290.628 152.216 290.783 151.752C291.556 150.051 292.329 148.351 292.947 146.65C292.947 146.96 292.947 147.269 292.947 147.733C292.792 148.042 292.638 148.351 292.638 148.66C292.483 149.278 291.71 149.897 292.174 150.361C292.638 150.979 293.565 150.515 294.184 150.515C294.493 150.67 294.647 150.979 294.802 151.288C295.266 151.906 295.575 151.597 295.729 151.133ZM296.039 152.525C296.039 152.37 295.884 152.216 295.729 152.061C295.575 152.061 295.42 152.216 295.42 152.37C295.42 152.525 295.42 152.834 295.729 152.834C295.884 152.989 296.039 152.834 296.039 152.525Z" fill="white"/>
<path d="M294.647 166.596C294.338 166.287 294.184 165.823 293.72 165.823C292.792 165.669 292.483 165.823 292.483 166.751C292.483 167.678 292.483 168.76 292.483 169.688C292.174 169.688 292.329 169.379 292.329 169.224C292.174 167.987 292.174 166.751 292.174 165.359C291.71 165.669 291.71 166.132 291.71 166.441C291.71 167.678 291.71 168.76 291.71 169.997C291.71 170.615 291.865 171.388 291.401 172.007C291.401 170.152 291.401 168.297 291.401 166.441C291.401 165.823 291.092 165.514 290.628 165.359C291.865 165.359 292.947 165.359 294.184 165.359C295.42 165.514 296.193 166.132 296.193 167.06C296.348 167.987 295.729 168.606 294.493 169.07C294.338 168.915 294.184 168.76 294.029 168.606C294.184 168.142 294.802 168.142 294.957 167.678C294.957 167.833 294.802 168.142 295.111 168.297C295.266 168.451 295.42 168.142 295.575 167.987C296.193 166.905 295.884 166.287 294.647 165.669C294.647 165.978 294.647 166.287 294.647 166.596C294.647 166.596 294.802 166.596 294.647 166.596Z" fill="white"/>
<path d="M270.995 209.878C270.377 208.95 269.449 208.641 268.522 208.023C267.285 207.25 266.821 206.477 267.44 205.24C267.749 205.24 267.903 205.395 268.058 205.549C268.058 206.168 268.213 206.477 268.831 206.786C269.449 207.095 270.222 207.559 270.841 207.868C272.232 208.641 272.386 210.342 271.15 211.424C270.995 211.424 270.841 211.269 270.686 211.115C271.304 210.805 271.459 210.496 270.995 209.878Z" fill="white"/>
<path d="M294.493 205.395C294.493 205.55 294.647 205.705 294.647 205.705C294.647 205.859 294.647 206.168 294.802 206.323C294.802 206.632 294.802 206.787 295.111 206.941C295.111 207.096 295.111 207.25 295.266 207.405C295.729 208.487 296.193 209.415 296.502 210.497C296.812 211.115 296.966 211.579 297.894 211.888C296.812 212.043 296.039 212.043 294.957 212.043C295.729 211.579 295.42 210.961 295.266 210.497C295.266 210.188 295.266 210.033 294.957 209.878C294.957 209.569 294.802 209.415 294.647 209.26C294.338 208.333 294.029 207.405 293.411 206.632C293.411 206.323 293.411 206.014 293.411 205.55C294.029 204.622 294.184 205.086 294.493 205.395Z" fill="white"/>
<path d="M235.13 170.923C234.821 170.15 234.048 169.841 233.43 169.532C232.812 169.222 232.348 168.913 231.884 168.449C231.266 167.831 231.111 167.058 231.575 166.285C232.039 166.44 231.884 166.904 232.193 167.058C232.657 167.831 233.43 168.14 234.048 168.449C234.512 168.759 234.976 168.913 235.44 169.377L235.594 169.532C235.594 169.841 235.749 169.995 236.058 170.15C236.213 170.768 235.903 171.541 235.749 172.16C235.13 171.85 235.285 171.232 235.13 170.923Z" fill="white"/>
<path d="M262.029 152.218C262.802 152.991 263.729 153.146 264.657 152.836C265.585 152.373 265.894 151.6 265.739 150.672C265.739 149.59 265.739 148.508 265.739 147.58C265.739 146.962 265.739 146.344 264.812 146.344C265.585 146.034 266.357 146.189 267.285 146.189C265.894 146.807 266.357 148.044 266.357 148.972C266.357 149.59 266.357 150.363 266.357 150.981C266.357 152.373 265.739 153.146 264.657 153.455C263.111 153.919 261.72 153.455 261.101 152.373C261.411 152.218 261.874 152.991 262.029 152.218Z" fill="white"/>
<path d="M272.232 187.31C273.159 187.619 274.087 188.083 274.86 188.701C276.097 189.629 276.097 190.711 275.169 191.793L275.014 191.948C274.86 191.793 274.396 192.412 274.242 191.793C275.169 191.02 275.014 190.402 274.087 189.629C273.159 189.011 272.077 188.701 271.459 187.774C271.459 187.31 271.15 187.001 271.459 186.537C271.768 186.692 271.923 187.31 272.232 187.31Z" fill="white"/>
<path d="M240.077 184.99C241.314 184.99 242.396 184.99 243.633 184.99C245.024 184.99 245.024 184.99 244.87 186.691C244.56 186.072 244.406 185.454 243.633 185.454C243.014 185.454 242.396 185.454 241.778 185.454C241.623 185.454 241.469 185.609 241.469 185.763C241.469 186.536 241.469 187.154 241.469 187.927C241.469 188.082 241.623 188.237 241.778 188.237C242.551 188.546 243.787 188.082 244.251 187.154C244.251 188.082 244.251 188.855 244.251 189.783C243.942 189.319 243.942 188.855 243.169 188.7C241.469 188.546 241.314 188.546 241.314 190.246C241.314 190.401 241.314 190.71 241.314 190.865C241.005 190.555 241.005 190.246 241.159 189.937C241.469 188.7 241.005 187.464 241.159 186.227C241.159 185.454 241.005 184.99 240.077 184.99Z" fill="white"/>
<path d="M264.039 191.328C264.812 191.946 265.739 192.101 266.667 191.637C267.594 191.174 267.594 190.246 267.749 189.473C267.749 188.545 267.749 187.618 267.749 186.69C267.749 185.917 267.749 185.299 266.821 185.145C267.594 185.145 268.367 185.145 269.14 185.145C268.058 185.454 268.213 186.227 268.213 187C268.213 187.927 268.213 188.855 268.213 189.782C268.213 190.864 267.903 191.946 266.667 192.256C265.43 192.719 264.039 192.719 263.111 191.637C263.111 191.637 263.111 191.637 263.266 191.483C263.575 191.792 263.884 191.637 264.039 191.328Z" fill="white"/>
<path d="M251.208 152.992C249.043 151.446 248.734 148.818 250.589 146.809C250.744 146.809 251.053 146.809 251.208 146.809C251.208 147.118 251.053 147.272 251.053 147.582C250.435 148.664 250.435 150.828 251.053 151.601C251.053 151.755 251.208 151.755 251.208 151.91C251.208 152.065 251.362 152.219 251.517 152.219L251.671 152.374C251.671 152.528 251.826 152.683 251.981 152.683C251.981 152.838 252.29 152.992 252.29 153.301C251.826 153.147 251.517 152.992 251.208 152.992Z" fill="white"/>
<path d="M279.807 185.3C279.807 185.455 279.652 185.455 279.807 185.3C279.188 186.073 279.498 187.001 279.498 187.928C279.498 189.165 279.188 190.401 279.652 191.638C279.343 192.566 278.879 192.102 278.415 191.793C278.415 189.783 278.415 187.928 278.57 185.918C278.725 185.764 278.879 185.609 278.415 185.609C278.879 184.836 279.343 185.455 279.807 185.3Z" fill="white"/>
<path d="M293.565 205.088C293.565 205.397 293.565 205.706 293.565 206.17C293.256 206.943 292.947 207.871 292.483 208.798C293.256 208.798 294.029 208.798 294.802 208.798C294.957 208.953 295.111 209.107 295.111 209.416C294.338 209.107 293.411 209.262 292.638 209.262C291.865 209.262 291.865 210.189 291.71 210.808C291.556 211.271 292.174 211.271 292.483 211.581C291.71 211.89 290.937 211.581 290.164 211.581C290.937 211.117 291.092 210.344 291.401 209.726C292.174 208.18 292.947 206.634 293.565 205.088Z" fill="white"/>
<path d="M240.077 184.989C240.85 184.989 241.159 185.452 241.159 186.38C241.005 187.617 241.314 188.853 241.159 190.09C241.159 190.399 241.159 190.708 241.314 191.018C241.314 191.327 241.314 191.481 241.314 191.791C241.159 192.1 241.005 192.409 240.541 192.254C240.077 192.1 240.232 191.791 240.232 191.481C240.232 189.935 240.232 188.235 240.232 186.689C240.232 186.225 240.232 185.762 239.923 185.452C239.923 185.143 239.923 184.989 240.077 184.989C240.077 184.834 240.077 184.989 240.077 184.989Z" fill="white"/>
<path d="M246.261 204.778C246.261 204.932 246.261 205.087 246.261 205.241C246.106 205.551 246.106 206.014 246.106 206.324C246.106 207.715 246.106 209.261 246.106 210.652C246.106 210.961 246.106 211.27 245.797 211.27C245.488 211.425 245.333 211.116 245.179 210.807C245.488 208.952 245.488 206.942 245.179 205.087C245.179 204.932 245.024 204.778 245.024 204.623C245.333 204.468 245.797 204.468 246.261 204.778Z" fill="white"/>
<path d="M282.744 207.561C282.28 208.798 282.589 210.035 282.589 211.426C282.126 211.426 281.816 211.272 281.816 210.653C281.816 208.798 281.816 206.943 281.816 205.088C281.816 204.315 282.28 204.47 282.744 204.624C282.744 205.706 282.744 206.634 282.744 207.561Z" fill="white"/>
<path d="M283.362 191.636C282.126 190.4 281.816 188.854 282.435 187.153C282.435 186.999 282.589 186.844 282.589 186.689C282.899 186.535 283.053 186.226 283.362 186.071C283.517 185.917 283.826 185.607 283.981 186.071C283.517 186.535 283.672 187.153 283.362 187.617C283.053 188.545 282.899 189.627 283.517 190.4C283.517 190.709 283.671 190.863 283.826 191.018C283.981 191.327 283.826 191.482 283.362 191.636Z" fill="white"/>
<path d="M258.164 186.381C258.319 184.99 258.473 184.99 259.401 185.299C259.401 185.454 259.401 185.608 259.401 185.608C259.092 186.072 258.783 186.536 259.401 187C259.401 187.154 259.401 187.154 259.401 187.309C259.092 187.463 259.092 187.773 259.092 188.082C259.246 189.009 259.246 190.091 259.246 191.019C259.246 191.947 259.092 192.101 258.164 191.792C258.164 191.637 258.319 191.483 258.319 191.483C258.628 189.937 258.628 188.391 258.319 186.69C258.319 186.69 258.164 186.536 258.164 186.381Z" fill="white"/>
<path d="M240.85 148.971C240.077 148.353 240.232 147.425 240.696 146.807C241.314 146.034 242.087 145.725 243.014 145.879C243.478 145.879 244.097 146.652 244.715 145.725C244.87 146.652 244.87 147.58 244.715 148.507C244.56 148.043 244.406 147.734 244.406 147.425C244.097 146.652 243.478 146.188 242.551 146.188C242.087 146.188 241.623 146.498 241.469 146.961C241.159 147.58 241.623 147.889 241.932 148.353C241.469 148.662 241.469 148.353 241.314 148.043C241.159 147.734 241.159 147.425 240.85 147.271C240.541 147.889 240.85 148.353 240.85 148.971Z" fill="white"/>
<path d="M253.372 169.067C252.599 169.531 251.826 169.376 250.899 169.221C250.589 168.912 250.589 168.603 250.589 168.294C250.589 167.675 250.589 167.212 250.589 166.593C250.589 166.284 250.744 165.666 250.28 165.666C249.816 165.666 249.971 166.284 249.971 166.593C249.971 167.675 249.971 168.603 249.971 169.685C249.971 170.303 250.126 171.076 249.816 171.695C249.816 169.994 249.816 168.294 249.816 166.748C249.816 166.13 249.662 165.666 248.889 165.357C250.589 165.511 252.444 164.738 253.836 166.13C253.836 166.13 253.836 166.13 253.681 166.284C253.372 166.13 253.063 165.82 252.599 165.82C252.599 165.975 252.754 166.284 252.754 166.439C252.599 166.284 252.444 166.284 252.444 166.13C251.981 165.82 251.517 165.666 251.053 165.975C250.589 166.13 250.899 166.593 250.899 167.057C250.899 167.366 250.899 167.83 250.899 168.139C250.744 168.912 251.208 169.067 251.826 169.067C252.29 169.067 252.599 168.758 252.908 168.448C252.908 168.603 252.908 168.912 253.372 169.067Z" fill="white"/>
<path d="M282.126 172.161C281.971 171.851 281.816 171.697 281.507 171.542C281.507 171.388 281.353 171.233 281.198 171.233C280.734 169.842 280.58 168.605 280.889 167.214C281.043 167.059 281.198 166.904 281.198 166.75C281.507 166.75 282.126 165.977 282.126 167.059C281.971 167.214 281.971 167.368 281.971 167.523C281.816 168.914 281.816 170.151 282.28 171.388C282.28 171.542 282.589 172.006 282.126 172.161Z" fill="white"/>
<path d="M272.232 187.309C271.768 187.309 271.768 186.691 271.459 186.536C271.15 187 271.459 187.309 271.459 187.773C270.841 187.155 270.995 186.382 271.304 185.609C271.768 184.836 272.85 184.527 273.778 184.681C274.86 184.99 274.86 184.99 275.478 184.681C275.478 185.145 275.478 185.454 275.478 185.918C275.478 186.227 275.478 186.691 275.478 187C274.86 185.763 274.242 184.527 272.541 185.3C271.614 185.918 272.077 186.691 272.232 187.309Z" fill="white"/>
<path d="M239.459 208.179C238.995 208.952 239.304 209.879 239.304 210.652C239.304 210.962 239.459 211.425 238.995 211.271C238.531 211.271 238.531 210.961 238.686 210.498C238.841 208.643 238.841 206.942 238.686 205.087C238.686 204.933 238.531 204.469 238.995 204.469C239.304 204.469 239.304 204.778 239.304 205.087C239.459 205.86 238.995 206.788 239.614 207.406C239.768 207.406 239.768 207.406 239.923 207.561C239.923 207.715 239.768 207.87 239.768 207.87C239.614 208.024 239.459 208.179 239.459 208.179Z" fill="white"/>
<path d="M262.029 152.218C261.72 152.991 261.411 152.218 261.101 152.373C260.792 152.063 260.947 151.754 260.947 151.445C260.947 149.899 261.101 148.508 260.792 146.962C260.792 146.807 260.792 146.807 260.792 146.653C261.101 145.88 261.565 146.344 262.029 146.498C261.72 146.653 261.72 146.962 261.72 147.271C261.72 148.662 261.565 149.899 261.874 151.29C261.874 151.6 262.029 151.909 262.029 152.218Z" fill="white"/>
<path d="M249.816 171.695C250.126 171.077 249.971 170.304 249.971 169.685C249.971 168.603 249.971 167.676 249.971 166.594C249.971 166.284 249.816 165.666 250.28 165.666C250.744 165.666 250.589 166.284 250.589 166.594C250.589 167.212 250.589 167.676 250.589 168.294C250.589 168.603 250.589 169.067 250.899 169.222C250.899 169.995 250.899 170.613 250.899 171.386C250.744 171.386 250.589 171.54 250.589 171.695C250.589 172.468 250.28 172.159 249.816 172.004C249.816 171.85 249.816 171.85 249.816 171.695Z" fill="white"/>
<path d="M292.947 147.734C292.947 147.425 292.947 147.116 292.947 146.652C293.101 146.188 293.256 145.724 293.72 146.497C294.184 147.116 294.029 147.734 294.493 148.352C294.493 148.507 294.493 148.662 294.647 148.816C294.647 149.435 294.647 149.898 295.266 150.208C295.266 150.517 295.266 150.98 295.729 151.135C295.575 151.599 295.266 151.908 294.957 151.29C294.802 150.98 294.493 150.826 294.338 150.517C294.184 150.053 294.029 149.744 294.029 149.28C294.029 149.125 293.874 149.125 293.874 148.971C293.874 148.507 293.874 148.198 293.411 147.889L293.256 147.734C293.101 147.734 293.101 147.734 292.947 147.734Z" fill="white"/>
<path d="M240.85 148.97C240.696 148.352 240.541 147.888 240.85 147.27C241.159 147.424 241.159 147.733 241.314 148.042C241.469 148.352 241.469 148.661 241.932 148.352C242.087 148.506 242.242 148.506 242.242 148.661C242.86 149.279 243.478 149.898 244.56 150.052C244.56 150.361 244.87 150.67 245.179 150.825C245.179 151.289 245.024 151.753 244.87 152.216C244.715 152.526 244.56 152.68 244.251 152.216C244.715 151.753 244.56 151.443 244.251 150.98C243.633 150.207 243.014 149.743 242.087 149.743C241.932 149.125 241.314 149.125 240.85 148.97Z" fill="white"/>
<path d="M263.266 191.638C262.647 191.019 262.647 190.246 262.647 189.628C262.647 188.546 262.647 187.464 262.647 186.536C262.647 185.918 262.647 185.299 261.72 184.99C262.647 184.99 263.575 184.99 264.502 184.99C263.42 185.299 263.575 186.227 263.575 187C263.575 188.391 263.42 189.783 263.884 191.174C263.266 190.865 263.42 190.401 263.42 189.783C263.42 188.546 263.42 187.154 263.42 185.918C263.42 185.763 263.575 185.299 263.111 185.299C262.802 185.299 262.802 185.609 262.802 185.763C262.957 187.773 262.647 189.628 263.266 191.638C263.266 191.638 263.266 191.483 263.266 191.638Z" fill="white"/>
<path d="M232.193 166.904C231.884 166.75 232.039 166.286 231.575 166.131C232.348 165.049 233.121 164.895 234.512 165.204C234.976 165.358 235.285 165.513 235.594 164.895C235.749 165.822 235.749 166.595 235.594 167.368C235.13 166.286 234.667 165.204 233.275 165.513C232.502 165.667 232.193 166.131 232.193 166.904Z" fill="white"/>
<path d="M251.053 147.732C251.053 147.423 251.208 147.268 251.208 146.959C251.053 146.959 250.744 146.959 250.589 146.959C251.671 145.877 252.908 145.568 254.454 146.186C254.918 146.341 255.382 146.495 255.845 146.032C255.845 146.805 255.845 147.578 256 148.351C255.382 147.578 254.918 146.65 253.681 146.495C252.444 146.186 251.672 146.805 251.053 147.732Z" fill="white"/>
<path d="M284.135 186.071C283.981 185.608 283.671 185.917 283.517 186.071C283.208 186.226 283.053 186.69 282.744 186.69C283.517 184.989 285.372 184.216 287.227 184.989C287.691 185.144 288 185.298 288.464 184.525C288.464 185.453 288.464 186.071 288.464 186.844C287.845 186.071 287.536 185.298 286.609 185.144C285.527 185.144 284.754 185.453 284.135 186.071Z" fill="white"/>
<path d="M268.058 205.705C267.903 205.396 267.749 205.396 267.44 205.396C268.058 204.314 268.986 204.005 270.222 204.468C270.686 204.623 270.995 204.932 271.459 204.314C271.614 205.087 271.614 206.014 271.459 206.942C270.995 205.86 270.686 204.778 269.295 204.778C268.676 204.778 268.367 205.087 268.058 205.705Z" fill="white"/>
<path d="M253.681 211.268C254.454 210.65 254.145 210.032 253.836 209.413C253.836 208.177 253.836 206.94 253.836 205.858C253.836 205.394 253.99 204.93 253.527 204.621C253.99 204.621 254.454 204.621 255.072 204.621C254.454 205.085 254.454 205.703 254.454 206.322C254.454 208.022 254.454 209.723 254.454 211.423C254.454 211.578 254.609 212.041 254.3 212.041C253.836 211.732 253.681 211.578 253.681 211.268Z" fill="white"/>
<path d="M291.246 172.007C291.71 171.388 291.556 170.77 291.556 169.997C291.556 168.76 291.556 167.678 291.556 166.441C291.556 166.132 291.401 165.669 292.019 165.359C292.019 166.751 292.019 167.987 292.174 169.224C292.174 169.379 292.174 169.533 292.328 169.688C292.174 170.461 292.019 171.388 292.328 172.161C291.865 172.47 291.401 172.47 290.937 172.161C291.092 172.161 291.246 172.161 291.246 172.007Z" fill="white"/>
<path d="M235.13 170.923C235.13 171.387 235.13 171.851 235.594 172.005C234.821 172.933 233.739 172.933 232.812 172.624C232.348 172.469 231.884 172.314 231.42 172.778C231.266 171.851 231.266 171.078 231.42 170.305C231.884 171.541 232.657 172.469 234.048 172.314C234.821 172.16 235.13 171.696 235.13 170.923Z" fill="white"/>
<path d="M282.126 166.905C282.126 165.823 281.507 166.596 281.198 166.596C281.971 165.359 283.053 164.896 284.29 165.05C285.681 165.205 286.763 165.669 287.227 167.06C287.227 167.06 287.227 167.06 287.072 167.06C286.918 166.905 286.609 166.596 286.454 166.441C285.99 165.978 285.99 166.441 285.99 166.751C284.754 165.05 283.362 165.05 282.126 166.905Z" fill="white"/>
<path d="M263.266 191.482C262.493 189.627 262.802 187.772 262.802 185.763C262.802 185.608 262.802 185.299 263.111 185.299C263.575 185.299 263.42 185.608 263.42 185.917C263.42 187.154 263.42 188.545 263.42 189.782C263.42 190.246 263.42 190.864 263.884 191.173L264.039 191.328C263.884 191.637 263.575 191.792 263.266 191.482Z" fill="white"/>
<path d="M240.386 191.329C240.541 191.638 240.232 191.947 240.696 192.102C241.005 192.257 241.314 191.947 241.469 191.638C242.86 191.947 244.097 191.947 245.333 190.865C245.333 191.947 245.024 192.411 243.942 192.257C242.396 192.102 240.85 192.257 239.304 192.102C239.768 191.947 240.232 191.793 240.386 191.329Z" fill="white"/>
<path d="M244.251 152.217C244.406 152.527 244.715 152.527 244.87 152.217C245.024 151.754 245.179 151.29 245.179 150.826C245.643 152.372 244.715 153.609 243.015 153.609C242.242 153.609 241.623 153.454 241.005 153.145C240.232 152.836 240.541 152.217 240.85 151.754C241.932 153.3 243.169 153.454 244.251 152.217Z" fill="white"/>
<path d="M248.734 207.714C249.353 207.405 248.734 206.477 249.198 206.168C249.198 207.559 249.198 208.951 249.198 210.342C249.198 210.96 249.198 211.579 250.126 211.579C249.353 211.888 248.58 211.733 247.652 211.733C248.58 211.579 248.58 210.96 248.58 210.187C248.734 209.26 248.734 208.487 248.734 207.714Z" fill="white"/>
<path d="M274.242 191.791C274.396 192.409 274.705 191.791 275.014 191.945C274.242 192.564 273.314 192.564 272.541 192.254C272.077 192.1 271.459 191.791 270.995 192.718C270.995 191.636 270.995 190.708 270.995 189.936C271.614 191.172 272.541 192.409 274.242 191.791Z" fill="white"/>
<path d="M294.802 169.84C295.111 170.304 295.42 170.613 295.729 171.077C296.193 171.695 296.657 172.313 297.739 172.313C296.502 172.932 295.729 172.777 295.111 171.849C294.802 171.386 294.493 171.077 294.184 170.613C294.957 170.767 294.802 170.304 294.802 169.84Z" fill="white"/>
<path d="M232.348 204.934C232.039 204.625 231.729 204.47 231.42 204.779C231.111 204.934 231.266 205.398 231.266 205.707C231.266 207.253 231.266 208.953 231.266 210.499C231.266 210.808 231.266 210.963 230.957 211.117C230.957 209.262 230.957 207.562 230.957 205.707C230.957 204.934 230.647 204.779 230.029 204.47C231.266 204.47 232.502 204.161 233.585 204.625C233.43 204.625 233.275 204.779 232.966 204.779C232.812 204.779 232.657 204.779 232.348 204.934Z" fill="white"/>
<path d="M283.362 191.638C283.671 191.638 283.981 191.484 283.981 191.02C285.527 192.257 286.609 192.257 288.309 190.865C288.309 191.484 287.845 191.947 287.072 192.257C285.836 192.72 284.599 192.566 283.362 191.638Z" fill="white"/>
<path d="M270.686 211.116C270.686 211.271 270.841 211.426 271.15 211.426C270.377 212.044 269.449 211.889 268.676 211.735C268.213 211.58 267.749 211.426 267.285 211.889C267.285 210.962 267.285 210.189 267.285 209.416C267.749 210.189 268.058 210.962 268.985 211.271C269.604 211.426 270.222 211.426 270.686 211.116Z" fill="white"/>
<path d="M252.599 186.844C252.444 186.535 252.444 186.226 252.29 185.917C252.29 185.608 252.135 185.453 252.444 185.298C252.754 185.144 252.908 185.298 253.063 185.453C253.527 186.381 253.836 187.463 254.454 188.236C254.609 188.39 254.454 188.545 254.3 188.545C254.145 188.545 253.99 188.39 253.99 188.236C253.99 187.772 253.681 187.617 253.217 187.463C253.063 187.153 253.063 186.844 252.908 186.535C252.599 186.226 252.599 186.69 252.599 186.844Z" fill="white"/>
<path d="M282.126 172.158C282.589 172.003 282.28 171.694 282.28 171.385C283.362 172.621 284.29 172.776 285.681 171.849C286.145 172.158 286.454 171.539 286.763 171.385C286.763 171.385 286.763 171.385 286.918 171.385C285.681 172.931 283.826 173.24 282.126 172.158Z" fill="white"/>
<path d="M251.208 152.99C251.517 152.99 251.826 153.144 252.135 153.144C252.29 152.835 251.981 152.835 251.826 152.526C253.372 153.144 254.763 152.835 255.691 151.289C255.691 153.299 253.217 154.072 251.208 152.99Z" fill="white"/>
<path d="M239.614 208.024C239.614 207.87 239.768 207.715 239.768 207.715C240.077 207.715 240.386 207.715 240.696 207.715C241.778 207.715 241.778 207.715 242.396 206.633C242.396 207.56 242.396 208.333 242.396 209.106C241.932 207.56 240.541 208.333 239.614 208.024Z" fill="white"/>
<path d="M245.179 211.118C245.333 211.273 245.488 211.736 245.797 211.582C246.106 211.427 246.106 211.118 246.106 210.963C246.106 209.572 246.106 208.026 246.106 206.635C246.106 206.326 246.106 205.862 246.261 205.553C246.261 207.253 246.261 208.954 246.261 210.654C246.261 211.273 246.261 211.891 247.188 211.891C246.261 211.891 245.333 211.891 244.251 211.891C244.56 211.273 244.87 211.427 245.179 211.118Z" fill="white"/>
<path d="M258.01 191.946C258.937 192.255 259.092 192.101 259.092 191.173C259.092 190.245 259.092 189.163 258.937 188.236C258.937 187.927 258.783 187.617 259.246 187.463C259.246 188.7 259.246 189.782 259.246 191.018C259.246 191.637 259.246 192.255 260.174 192.41C259.246 192.41 258.164 192.41 257.237 192.41C257.546 191.791 257.855 191.946 258.01 191.946Z" fill="white"/>
<path d="M278.261 204.778C277.643 204.778 278.106 205.242 278.106 205.397C277.333 204.624 276.251 204.469 275.324 204.933C275.169 204.933 274.86 204.778 274.705 204.624C275.942 204.005 277.024 204.005 278.261 204.778Z" fill="white"/>
<path d="M289.546 201.998C288.928 202.771 288.464 203.234 287.845 204.007C288 202.152 288.155 201.843 289.546 201.998Z" fill="white"/>
<path d="M261.72 151.288C261.411 150.052 261.565 148.66 261.565 147.269C261.565 146.96 261.72 146.651 261.874 146.496C261.874 147.887 261.874 149.124 261.874 150.515C261.874 150.825 262.029 151.134 261.72 151.288Z" fill="white"/>
<path d="M249.816 172.003C250.126 172.312 250.589 172.467 250.589 171.694C250.589 171.539 250.589 171.385 250.899 171.385C251.053 172.003 251.208 172.467 251.981 172.621C251.053 172.621 250.126 172.621 249.043 172.621C249.198 172.158 249.662 172.312 249.816 172.003Z" fill="white"/>
<path d="M294.802 169.84C294.957 170.304 295.111 170.767 294.338 170.767C294.338 170.613 294.184 170.458 294.029 170.304L293.874 170.149C293.874 169.995 293.72 169.84 293.565 169.84C293.565 169.685 293.411 169.685 293.411 169.531L293.256 169.376C293.256 169.222 293.256 169.222 293.256 169.067C293.565 169.067 293.72 168.912 293.874 168.758C293.874 168.758 293.874 168.758 294.029 168.758C294.184 168.758 294.493 168.912 294.493 169.222V169.376C294.184 169.531 294.493 169.685 294.802 169.84Z" fill="white"/>
<path d="M265.121 184.681C265.43 182.671 265.43 182.517 266.821 182.671C266.357 183.29 265.739 183.908 265.121 184.681Z" fill="white"/>
<path d="M246.261 204.778C245.797 204.469 245.333 204.469 244.87 204.778C244.56 204.778 244.251 204.778 244.097 204.469C245.797 204.469 247.498 204.469 249.198 204.469C248.889 204.623 248.425 204.778 248.116 204.778C247.498 204.469 246.879 204.623 246.261 204.778Z" fill="white"/>
<path d="M230.957 211.116C231.729 211.734 231.884 211.734 232.039 210.652C232.348 211.271 232.348 211.271 233.121 211.58C232.039 211.58 231.266 211.58 230.493 211.58C230.647 211.425 230.957 211.425 230.957 211.116Z" fill="white"/>
<path d="M287.227 167.059C288 168.604 287.845 169.996 286.918 171.387C286.918 171.387 286.918 171.387 286.763 171.387C287.382 169.996 287.691 168.604 287.227 167.059C287.227 167.213 287.227 167.213 287.227 167.059Z" fill="white"/>
<path d="M242.087 149.742C243.014 149.742 243.787 150.206 244.251 150.979C244.56 151.288 244.715 151.752 244.251 152.216C244.406 151.443 243.942 150.979 243.324 150.67C242.86 150.361 242.551 150.051 242.087 149.742Z" fill="white"/>
<path d="M278.415 191.793C278.879 192.102 279.343 192.566 279.652 191.639C279.807 191.948 280.271 192.102 280.58 192.257C279.652 192.257 278.57 192.257 277.333 192.257C277.952 191.948 278.261 191.793 278.415 191.793Z" fill="white"/>
<path d="M261.874 146.498C261.411 146.343 260.947 145.879 260.638 146.652C260.483 146.343 260.019 146.343 259.71 146.034C260.792 145.879 261.72 145.879 262.802 146.034C262.493 146.189 262.184 146.343 261.874 146.498Z" fill="white"/>
<path d="M279.652 191.482C279.188 190.246 279.498 189.009 279.498 187.772C279.498 186.999 279.188 186.072 279.807 185.299C279.652 187.463 279.652 189.473 279.652 191.482Z" fill="white"/>
<path d="M279.807 185.299C279.343 185.299 278.879 184.836 278.415 185.454C278.106 185.299 277.797 185.145 277.488 185.145V184.99C278.415 184.99 279.343 184.99 280.425 184.99C280.425 185.299 279.961 185.145 279.807 185.299Z" fill="white"/>
<path d="M245.179 205.24C245.488 207.095 245.488 209.105 245.179 210.96C245.179 209.105 245.179 207.095 245.179 205.24Z" fill="white"/>
<path d="M281.043 167.213C280.734 168.604 280.889 169.996 281.353 171.232C280.425 169.996 280.271 168.604 281.043 167.213Z" fill="white"/>
<path d="M291.092 172.314C291.556 172.469 292.019 172.469 292.483 172.314C292.792 172.314 293.101 172.314 293.411 172.469C292.483 172.933 291.401 172.778 290.473 172.778C290.473 172.005 290.937 172.624 291.092 172.314Z" fill="white"/>
<path d="M258.319 186.844C258.628 188.39 258.628 189.936 258.319 191.636C258.319 189.936 258.319 188.39 258.319 186.844Z" fill="white"/>
<path d="M251.053 151.599C250.435 150.826 250.28 148.817 251.053 147.58C250.744 148.971 250.589 150.363 251.053 151.599Z" fill="white"/>
<path d="M244.56 149.899C243.633 149.899 242.86 149.126 242.242 148.508C243.014 148.972 243.942 149.281 244.56 149.899Z" fill="white"/>
<path d="M260.792 146.963C261.101 148.354 260.947 149.9 260.947 151.446C260.483 149.9 260.792 148.354 260.792 146.963Z" fill="white"/>
<path d="M232.193 146.496C232.193 147.424 232.193 148.351 232.193 149.124C231.575 148.351 231.729 147.424 232.193 146.496Z" fill="white"/>
<path d="M253.99 166.131C254.609 166.904 254.609 167.522 254.145 168.295C254.145 168.295 254.145 168.295 253.99 168.295C254.3 167.522 254.145 166.904 253.99 166.131C253.99 166.131 253.836 166.131 253.99 166.131Z" fill="white"/>
<path d="M283.672 190.4C282.899 189.472 283.208 188.545 283.517 187.617C283.517 188.545 283.362 189.472 283.672 190.4Z" fill="white"/>
<path d="M296.039 189.32C296.348 189.939 296.502 190.557 296.812 191.021C296.812 191.021 296.812 191.021 296.657 191.021C296.348 190.866 296.348 190.248 295.884 190.248C295.884 190.093 295.884 189.784 296.039 189.32C295.884 189.475 295.884 189.475 296.039 189.32Z" fill="white"/>
<path d="M294.493 205.397C294.184 205.242 294.029 204.624 293.565 205.242C293.565 204.933 293.72 204.624 294.029 204.314C294.338 204.469 294.493 204.933 294.493 205.397Z" fill="white"/>
<path d="M235.594 172.006C235.749 171.387 236.058 170.769 235.903 169.996C236.367 170.769 236.213 171.387 235.594 172.006Z" fill="white"/>
<path d="M241.005 148.971C241.469 149.125 242.087 149.125 242.087 149.744C241.623 149.589 241.159 149.434 241.005 148.971Z" fill="white"/>
<path d="M259.401 187.001C258.937 186.537 259.092 186.073 259.401 185.609C259.401 186.073 259.401 186.537 259.401 187.001Z" fill="white"/>
<path d="M295.266 150.208C294.802 149.899 294.647 149.435 294.647 148.816C294.957 149.126 295.266 149.589 295.266 150.208Z" fill="white"/>
<path d="M273.159 206.633C273.314 207.251 273.005 207.715 273.005 208.333C272.85 207.715 272.85 207.097 273.159 206.633Z" fill="white"/>
<path d="M270.995 209.879C271.304 210.343 271.304 210.806 270.686 210.961C270.995 210.652 271.15 210.343 270.995 209.879Z" fill="white"/>
<path d="M254.145 168.293C253.99 168.602 253.836 168.911 253.372 169.066C253.372 169.066 253.372 169.066 253.372 168.911C253.527 168.757 253.836 168.448 254.145 168.293Z" fill="white"/>
<path d="M239.923 184.988C239.923 185.143 239.923 185.143 239.923 185.297C239.614 185.297 239.459 185.297 239.304 185.143C239.459 184.834 239.768 184.834 239.923 184.988Z" fill="white"/>
<path d="M274.242 205.088C274.087 205.552 273.932 205.706 273.469 205.861C273.623 205.552 273.932 205.242 274.242 205.088Z" fill="white"/>
<path d="M295.729 151.135C295.42 150.98 295.266 150.516 295.266 150.207C295.575 150.362 295.575 150.671 295.729 151.135Z" fill="white"/>
<path d="M245.179 150.673C244.87 150.519 244.715 150.21 244.56 149.9C244.87 150.055 245.024 150.364 245.179 150.673Z" fill="white"/>
<path d="M279.807 206.787C279.498 206.478 279.343 206.169 279.343 205.859C279.652 206.169 279.807 206.478 279.807 206.787Z" fill="white"/>
<path d="M294.647 167.676C294.647 167.367 294.647 166.903 294.647 166.594C294.647 166.594 294.647 166.594 294.802 166.594C294.957 166.903 294.957 167.367 294.647 167.676C294.647 167.676 294.802 167.676 294.647 167.676Z" fill="white"/>
<path d="M294.802 169.841C294.647 169.686 294.338 169.686 294.338 169.223C294.493 169.377 294.647 169.532 294.802 169.841Z" fill="white"/>
<path d="M293.72 168.604C293.565 168.758 293.411 168.913 293.101 168.913C293.256 168.604 293.565 168.758 293.72 168.604Z" fill="white"/>
<path d="M237.14 186.383C237.449 186.537 237.449 186.847 237.449 187.156C237.295 187.001 237.14 186.692 237.14 186.383Z" fill="white"/>
<path d="M283.981 191.019C283.671 190.864 283.517 190.71 283.671 190.4C283.826 190.555 283.981 190.864 283.981 191.019Z" fill="white"/>
<path d="M235.903 169.995C235.594 169.841 235.594 169.686 235.44 169.377C235.749 169.532 235.903 169.686 235.903 169.995Z" fill="white"/>
<path d="M295.111 209.416C295.42 209.571 295.42 209.725 295.42 210.034C295.42 209.88 295.266 209.571 295.111 209.416Z" fill="white"/>
<path d="M278.415 185.455C278.725 185.455 278.725 185.61 278.57 185.764C278.57 185.764 278.57 185.61 278.415 185.455Z" fill="white"/>
<path d="M294.802 148.817C294.647 148.663 294.647 148.508 294.647 148.354C294.647 148.508 294.802 148.663 294.802 148.817Z" fill="white"/>
<path d="M274.705 204.779C274.551 204.934 274.396 205.088 274.242 205.088C274.396 204.934 274.396 204.779 274.705 204.779Z" fill="white"/>
<path d="M281.198 166.594C281.198 166.748 281.198 166.903 280.889 167.058C281.043 166.903 281.198 166.748 281.198 166.594Z" fill="white"/>
<path d="M281.507 171.543C281.662 171.543 281.816 171.698 281.971 172.007C281.662 171.852 281.662 171.698 281.507 171.543Z" fill="white"/>
<path d="M293.874 170.15C294.029 170.15 294.184 170.305 294.184 170.614C294.029 170.46 294.029 170.305 293.874 170.15Z" fill="white"/>
<path d="M234.667 210.652C234.821 210.807 234.976 210.962 234.976 211.116C234.821 210.962 234.667 210.807 234.667 210.652Z" fill="white"/>
<path d="M295.111 206.786C294.957 206.632 294.802 206.477 294.802 206.168C295.111 206.323 295.111 206.632 295.111 206.786Z" fill="white"/>
<path d="M279.498 205.858C279.343 205.704 279.188 205.549 279.188 205.395C279.343 205.549 279.343 205.704 279.498 205.858Z" fill="white"/>
<path d="M294.957 206.323C294.802 206.169 294.647 206.014 294.802 205.705C294.802 205.86 294.957 206.014 294.957 206.323Z" fill="white"/>
<path d="M295.42 207.251C295.266 207.096 295.266 206.942 295.266 206.787C295.266 206.942 295.266 207.096 295.42 207.251Z" fill="white"/>
<path d="M251.981 152.682C251.826 152.682 251.672 152.528 251.672 152.373C251.826 152.373 251.826 152.528 251.981 152.682Z" fill="white"/>
<path d="M281.198 171.23C281.353 171.23 281.507 171.385 281.507 171.54C281.353 171.54 281.353 171.385 281.198 171.23Z" fill="white"/>
<path d="M282.744 186.689C282.744 186.844 282.589 186.999 282.589 187.153C282.435 186.999 282.589 186.844 282.744 186.689Z" fill="white"/>
<path d="M293.565 169.686C293.72 169.686 293.874 169.84 293.874 169.995C293.72 169.84 293.565 169.686 293.565 169.686Z" fill="white"/>
<path d="M251.517 152.217C251.362 152.217 251.208 152.063 251.208 151.908C251.362 151.908 251.362 152.063 251.517 152.217Z" fill="white"/>
<path d="M273.314 206.168C273.314 206.323 273.159 206.477 273.159 206.632C273.159 206.477 273.159 206.323 273.314 206.168Z" fill="white"/>
<path d="M273.469 205.859C273.469 206.014 273.469 206.169 273.314 206.323C273.314 206.014 273.314 206.014 273.469 205.859Z" fill="white"/>
<path d="M294.647 205.704C294.647 205.549 294.493 205.549 294.493 205.395C294.647 205.395 294.647 205.549 294.647 205.704Z" fill="white"/>
<path d="M248.889 206.324C248.889 206.479 248.889 206.479 248.889 206.324C248.734 206.324 248.734 206.324 248.889 206.324Z" fill="white"/>
<path d="M248.734 205.553C248.889 205.553 248.734 205.707 248.734 205.553V205.553Z" fill="white"/>
<path d="M279.188 205.395C279.034 205.395 279.034 205.24 278.879 205.24C279.034 205.24 279.034 205.395 279.188 205.395Z" fill="white"/>
<path d="M278.879 205.241C278.725 205.086 278.879 205.241 278.879 205.241V205.241Z" fill="white"/>
<path d="M278.725 205.089C278.57 204.934 278.725 204.934 278.725 205.089V205.089Z" fill="white"/>
<path d="M278.57 204.932C278.415 204.777 278.415 204.932 278.57 204.932V204.932Z" fill="white"/>
<path d="M248.734 207.098C248.889 207.098 248.889 207.098 248.734 207.098C248.734 207.252 248.734 207.252 248.734 207.098Z" fill="white"/>
<path d="M251.208 151.909C251.208 151.754 251.053 151.754 251.053 151.6C251.053 151.754 251.208 151.754 251.208 151.909Z" fill="white"/>
<path d="M235.594 169.377C235.44 169.223 235.44 169.377 235.594 169.377V169.377Z" fill="white"/>
<path d="M293.72 169.996C293.874 170.151 293.874 170.151 293.72 169.996V169.996Z" fill="white"/>
<path d="M293.411 169.377C293.411 169.532 293.565 169.532 293.565 169.686C293.411 169.532 293.411 169.532 293.411 169.377Z" fill="white"/>
<path d="M264.657 159.639C254.145 159.639 243.633 159.639 233.121 159.639C232.657 159.639 231.884 159.948 231.884 159.33C231.884 158.557 232.657 158.866 233.121 158.866C253.99 158.866 274.86 158.866 295.729 158.866C296.193 158.866 297.275 158.557 297.275 159.33C297.275 159.948 296.348 159.639 295.729 159.639C285.372 159.639 275.014 159.639 264.657 159.639Z" fill="white"/>
<path d="M267.285 165.975C267.285 167.366 267.44 168.912 267.44 170.303C267.44 170.767 267.44 171.231 267.44 171.694C267.44 171.849 267.44 172.158 267.13 172.158C266.976 172.158 266.821 172.004 266.821 171.849C266.821 169.994 266.821 167.984 266.821 166.129C266.976 165.975 267.13 165.975 267.285 165.975Z" fill="white"/>
<path d="M269.913 166.439C269.913 165.975 270.068 165.82 270.531 166.13C271.15 166.593 271.459 167.83 270.068 168.448C270.068 167.83 270.686 167.057 269.913 166.439Z" fill="white"/>
<path d="M274.087 207.406C274.087 207.87 274.087 208.179 274.087 208.643C273.778 208.334 273.778 207.87 274.087 207.406Z" fill="white"/>
<path d="M274.242 209.105C274.242 209.26 274.242 209.569 274.396 209.724C274.087 209.569 274.087 209.26 274.242 209.105Z" fill="white"/>
<path d="M232.039 205.088C232.348 206.015 232.193 206.943 232.193 207.716C231.729 206.943 232.039 206.015 232.039 205.088Z" fill="white"/>
<path d="M295.884 189.473C295.884 189.782 295.884 190.091 295.884 190.401C295.575 190.401 295.42 190.091 295.266 189.782C295.111 189.473 294.802 189.164 295.266 189.009C295.729 188.7 295.575 189.318 295.884 189.473Z" fill="white"/>
<path d="M295.884 190.4C296.348 190.4 296.193 191.019 296.657 191.173C296.657 191.483 296.657 191.792 296.348 191.792C295.884 191.792 296.039 191.328 296.039 191.173C295.884 190.864 295.884 190.71 295.884 190.4Z" fill="white"/>
<path d="M259.092 172.004C258.937 172.313 258.628 172.468 258.319 172.313C258.01 172.313 258.01 171.85 258.01 171.695C258.01 169.84 258.01 168.139 258.01 166.284C258.01 165.975 257.855 165.666 258.319 165.666C258.628 165.666 258.783 165.975 258.783 166.284C258.783 167.83 258.783 169.376 258.783 170.922C258.783 171.231 258.783 171.695 259.092 172.004Z" fill="white"/>
<path d="M232.348 188.545C232.348 189.473 232.348 190.401 232.348 191.483C232.348 191.637 232.348 191.946 232.039 191.946C231.729 191.946 231.575 191.637 231.575 191.483C231.884 189.628 231.575 187.773 231.575 185.917C231.575 185.608 231.42 185.145 231.884 185.145C232.348 185.145 232.193 185.608 232.193 185.917C232.348 186.845 232.348 187.773 232.348 188.545Z" fill="white"/>
<path d="M236.986 186.537C237.14 186.846 237.295 187.001 237.449 187.31C237.604 188.547 237.604 189.784 236.831 190.711C236.676 190.866 236.522 191.02 236.367 191.02C236.058 190.866 236.213 190.711 236.213 190.402C236.831 189.629 236.986 187.929 236.522 186.846C236.367 186.383 236.058 185.919 235.44 186.074C235.44 185.61 235.749 185.455 236.058 185.764C236.367 185.919 236.676 186.228 236.986 186.537Z" fill="white"/>
<path d="M232.193 146.498C231.884 147.426 231.575 148.353 232.193 149.281C231.884 150.208 231.884 151.29 232.039 152.218C232.039 152.527 232.193 152.836 231.729 152.836C231.266 152.836 231.42 152.527 231.42 152.218C231.42 150.363 231.42 148.662 231.42 146.807C231.42 146.498 231.42 146.189 231.884 146.189C231.884 146.189 232.193 146.034 232.193 146.498Z" fill="white"/>
<path d="M282.126 149.9C282.126 148.972 282.126 148.045 282.126 147.117C282.126 146.653 282.126 146.189 282.744 146.189C283.362 146.344 282.744 146.808 282.899 146.962C283.208 148.663 282.744 150.363 282.899 152.218C282.899 152.528 283.053 152.991 282.589 152.837C282.126 152.837 282.28 152.373 282.28 152.064C282.126 151.445 282.126 150.673 282.126 149.9Z" fill="white"/>
<path d="M296.039 152.526C296.039 152.681 295.884 152.835 295.729 152.835C295.42 152.835 295.42 152.526 295.42 152.372C295.42 152.217 295.575 152.062 295.729 152.062C295.884 152.217 296.039 152.372 296.039 152.526Z" fill="white"/>
<path d="M294.802 167.676C294.957 167.212 294.957 166.903 294.802 166.439C294.647 166.13 294.647 165.975 294.493 165.666C295.729 166.284 295.884 166.903 295.42 167.985C295.266 168.139 295.266 168.294 294.957 168.294C294.647 168.139 294.802 167.985 294.802 167.676Z" fill="white"/>
<path d="M252.908 168.294C252.908 168.139 253.063 167.985 253.063 167.83C253.372 167.212 253.372 166.748 252.908 166.284C252.908 166.13 252.754 165.821 252.754 165.666C253.217 165.666 253.527 165.821 253.836 166.13C254.145 166.748 254.3 167.521 253.99 168.139C253.681 168.449 253.527 168.603 253.217 168.912C252.908 168.912 252.908 168.603 252.908 168.294Z" fill="white"/>
<path d="M282.126 166.904C282.126 167.059 282.126 167.213 281.971 167.368C281.971 167.213 281.971 167.059 282.126 166.904Z" fill="white"/>
<path d="M293.72 148.971C293.411 148.662 293.411 148.352 293.256 147.889C293.72 148.043 293.72 148.507 293.72 148.971Z" fill="white"/>
<path d="M293.411 147.889C293.256 147.734 293.256 147.889 293.411 147.889V147.889Z" fill="white"/>
<path d="M293.874 149.28C293.874 149.125 293.72 149.125 293.72 148.971C293.874 149.125 293.874 149.125 293.874 149.28Z" fill="white"/>
<path d="M285.681 171.698C285.836 171.234 286.145 170.925 286.3 170.461C286.918 169.534 286.763 167.679 286.145 166.751C286.3 166.596 286.3 166.133 286.609 166.442C286.763 166.596 287.072 166.906 287.227 167.06C287.691 168.452 287.382 169.843 286.918 171.234C286.454 171.389 286.3 172.007 285.681 171.698Z" fill="white"/>
<path d="M235.44 186.07C236.058 186.07 236.213 186.534 236.522 186.843C237.14 187.925 236.986 189.626 236.213 190.399C236.676 188.853 236.676 187.307 235.44 186.07Z" fill="white"/>
<path d="M252.908 166.439C253.527 166.903 253.372 167.367 253.063 167.985C253.063 167.367 253.063 166.903 252.908 166.439Z" fill="white"/>
<path d="M286.145 166.748C286.918 167.676 287.072 169.531 286.3 170.458C286.609 169.221 286.454 167.985 286.145 166.748Z" fill="white"/>
</svg>
