<?xml version="1.0" encoding="utf-8"?><svg xmlns="http://www.w3.org/2000/svg" xmlns:xlink="http://www.w3.org/1999/xlink"><symbol viewBox="0 0 48 30" id="ERP" xmlns="http://www.w3.org/2000/svg"><path fill="#E73F39" fill-rule="evenodd" d="M4.5 12h-3c-.406 0-.758.148-1.055.445A1.442 1.442 0 000 13.5v3c0 .406.148.758.445 1.055.297.297.649.445 1.055.445h3c.406 0 .758-.148 1.055-.445.297-.297.445-.649.445-1.055v-3c0-.406-.148-.758-.445-1.055A1.442 1.442 0 004.5 12zm42 1.5H15c-.406 0-.758.148-1.055.445A1.442 1.442 0 0013.5 15c0 .406.148.758.445 1.055.297.297.649.445 1.055.445h31.5c.406 0 .758-.148 1.055-.445.297-.297.445-.649.445-1.055 0-.406-.148-.758-.445-1.055A1.442 1.442 0 0046.5 13.5zM4.5 24h-3c-.406 0-.758.148-1.055.445A1.442 1.442 0 000 25.5v3c0 .406.148.758.445 1.055.297.297.649.445 1.055.445h3c.406 0 .758-.148 1.055-.445.297-.297.445-.649.445-1.055v-3c0-.406-.148-.758-.445-1.055A1.442 1.442 0 004.5 24zm42 1.5H15c-.406 0-.758.148-1.055.445A1.442 1.442 0 0013.5 27c0 .406.148.758.445 1.055.297.297.649.445 1.055.445h31.5c.406 0 .758-.148 1.055-.445.297-.297.445-.649.445-1.055 0-.406-.148-.758-.445-1.055A1.442 1.442 0 0046.5 25.5zM4.5 0h-3C1.094 0 .742.148.445.445A1.442 1.442 0 000 1.5v3c0 .406.148.758.445 1.055C.742 5.852 1.094 6 1.5 6h3c.406 0 .758-.148 1.055-.445C5.852 5.258 6 4.906 6 4.5v-3c0-.406-.148-.758-.445-1.055A1.442 1.442 0 004.5 0zM15 4.5h31.5c.406 0 .758-.148 1.055-.445C47.852 3.758 48 3.406 48 3c0-.406-.148-.758-.445-1.055A1.442 1.442 0 0046.5 1.5H15c-.406 0-.758.148-1.055.445A1.442 1.442 0 0013.5 3c0 .406.148.758.445 1.055.297.297.649.445 1.055.445z"/></symbol><symbol viewBox="0 0 44 48" id="GraphQL" xmlns="http://www.w3.org/2000/svg"><path fill="#E73F39" d="M26.097 5.502l9.87 5.7a4.288 4.288 0 016.818.8 4.292 4.292 0 01-2.708 6.302v11.398a4.263 4.263 0 012.696 6.3 4.286 4.286 0 01-6.906.706l-9.81 5.664A4.282 4.282 0 0121.995 48a4.275 4.275 0 01-4.104-5.49L8.02 36.816a4.28 4.28 0 11-4.104-7.118L3.917 18.3a4.282 4.282 0 01-3.162-5.168c.094-.396.246-.778.448-1.132a4.285 4.285 0 016.814-.81l9.876-5.7A4.275 4.275 0 0121.995 0a4.273 4.273 0 014.102 5.502zm-1.03 1.754a1.587 1.587 0 01-.116.116l12.922 22.38c.052-.018.112-.032.164-.046V18.292a4.27 4.27 0 01-3.116-5.176c.012-.048.024-.098.038-.144l-9.892-5.716zm-6.03.118l-.12-.12-9.892 5.704a4.272 4.272 0 01-2.922 5.29c-.052.016-.102.028-.152.042v11.416l.168.046 12.922-22.38-.004.002zm4.152 1.014a4.313 4.313 0 01-2.384 0L7.885 30.766a4.339 4.339 0 011.2 2.082h25.822a4.302 4.302 0 011.206-2.088L23.19 8.388zm1.972 32.454l9.826-5.676a3.496 3.496 0 01-.076-.284H9.08l-.042.166 9.878 5.704a4.251 4.251 0 013.08-1.306 4.28 4.28 0 013.166 1.396z"/></symbol><symbol viewBox="0 0 72 72" id="Precio" xmlns="http://www.w3.org/2000/svg"><path fill="#E73F39" fill-rule="evenodd" d="M72 29.25V5.484c0-1.5-.54-2.789-1.617-3.867C69.305.54 68.016 0 66.516 0H42.258c-.797 0-1.7.059-2.707.176-1.008.117-1.887.55-2.637 1.3L1.336 37.056c-.422.468-.75.972-.984 1.511A4.273 4.273 0 000 40.29c0 .61.117 1.184.352 1.723.234.539.562 1.02.984 1.441l27.21 27.211c.423.422.903.75 1.442.984.54.235 1.114.352 1.723.352.61 0 1.184-.117 1.723-.352a5.584 5.584 0 001.511-.984l35.578-35.578c.75-.75 1.184-1.64 1.301-2.672.117-1.031.176-2.086.176-3.164zm-4.71 2.672L31.71 67.5 4.5 40.29 40.078 4.71c.14-.093.469-.151.984-.175l.963-.033 24.49-.002c.282 0 .516.094.704.281a.954.954 0 01.281.703V29.32l-.035 1.477c-.024.562-.082.937-.176 1.125zM54 9c-2.484 0-4.605.879-6.363 2.637S45 15.516 45 18c0 2.484.879 4.605 2.637 6.363S51.516 27 54 27c2.484 0 4.605-.879 6.363-2.637S63 20.484 63 18c0-2.484-.879-4.605-2.637-6.363S56.484 9 54 9zm0 13.5c-1.219 0-2.273-.434-3.164-1.3-.89-.868-1.336-1.934-1.336-3.2 0-1.266.445-2.332 1.336-3.2.89-.866 1.945-1.3 3.164-1.3 1.266 0 2.332.434 3.2 1.3.866.868 1.3 1.934 1.3 3.2 0 1.266-.434 2.332-1.3 3.2-.868.866-1.934 1.3-3.2 1.3z"/></symbol><symbol viewBox="0 0 23 24" id="angular" xmlns="http://www.w3.org/2000/svg"><path fill="#E73F39" fill-rule="evenodd" d="M9.124 12.648h4.082l-2.04-4.907-2.042 4.907zM11.165 0L.033 3.986l1.704 14.77L11.165 24l9.429-5.245 1.703-14.77L11.165 0zm6.975 18.31h-2.603l-1.404-3.503H8.208l-1.404 3.504H4.196l6.97-15.66 6.974 15.66z"/></symbol><symbol viewBox="0 0 20 20" id="arrow" xmlns="http://www.w3.org/2000/svg"><g fill="none" fill-rule="evenodd"><path d="M0 0h20v20H0z"/><path fill="#000" d="M20 6.023l-7.973 7.954L10 16l-2.027-2.023L0 6.023 2.027 4 10 11.954 17.973 4z"/></g></symbol><symbol viewBox="0 0 32 12" id="arrow-left" xmlns="http://www.w3.org/2000/svg"><path d="M3.438 7l3.79 3.784L6.009 12 0 6l6.009-6 1.219 1.216L3.438 5H31.5v2z" fill="#000" fill-rule="nonzero"/></symbol><symbol viewBox="0 0 0 0" id="b-blog"/><symbol viewBox="0 0 20 20" id="blog" xmlns="http://www.w3.org/2000/svg"><path d="M4.57 0C7.076 0 7.222 4.878 8 5.18c.693-.208 2.05-.445 2.77-.445 3.323 0 5.53 1.776 7.633 4.006l.01.01c.305.41.56.784.768 1.119.553.896 1.247 3.157.474 4.943-.444 1.023-1.374 1.988-2.207 2.714l.109-.065c-3.932 2.418-9.83 3.146-14.386 2.022C2.467 19.474.91 18.41.62 17.79c-.792-1.696-.695-3.337-.421-5.191.298-2.023.707-4.055 1.067-6.07C1.541 4.998 2.581 0 4.57 0zm8.575 9.439c-1.404 0-8.808 6.046-1.213 6.046 6.054 0 2.609-6.046 1.213-6.046z"/></symbol><symbol viewBox="0 0 48 48" id="calendar" xmlns="http://www.w3.org/2000/svg"><g fill="#E73F39" fill-rule="evenodd"><path d="M44.001 4.5H37.5v-3C37.5.67 36.83 0 36 0s-1.5.67-1.5 1.5v3h-9v-3a1.5 1.5 0 10-3 0v3h-9v-3a1.5 1.5 0 10-3 0v3H4a4 4 0 00-4 3.999v35.5A4 4 0 004 48h40.001A4 4 0 0048 44V8.498c0-2.21-1.79-3.999-3.999-3.999zM45 44a1 1 0 01-.999 1h-40C3.448 45 3 44.551 3 44V8.498A1 1 0 014 7.5h6.5v3a1.5 1.5 0 103 0v-3h9v3a1.5 1.5 0 103 0v-3h9v3c0 .83.67 1.5 1.5 1.5s1.5-.67 1.5-1.5v-3h6.501a1 1 0 01.999.999v35.5z"/><path d="M10.5 18h6v4.5h-6zM10.5 25.5h6V30h-6zM10.5 33h6v4.5h-6zM21 33h6v4.5h-6zM21 25.5h6V30h-6zM21 18h6v4.5h-6zM31.5 33h6v4.5h-6zM31.5 25.5h6V30h-6zM31.5 18h6v4.5h-6z"/></g></symbol><symbol viewBox="0 0 72 72" id="cohete" xmlns="http://www.w3.org/2000/svg"><defs><path id="aja" d="M95.518 26.65c.321 1.5.482 3.507.482 6.023 0 3.694-.428 7.763-1.285 12.207-.91 4.925-2.155 9.302-3.734 13.13-1.58 3.828-3.306 6.679-5.18 8.553-1.338 1.338-3.962 3.078-7.87 5.22a179.7 179.7 0 00-2.971 1.525c-.91 3.16-2.784 6.987-5.622 11.484-3.212 5.247-6.05 8.78-8.512 10.6a3.014 3.014 0 01-1.767.563c-.268 0-.535-.027-.803-.08-.91-.268-1.526-.857-1.847-1.767a39.879 39.879 0 01-.723-1.687c-1.606-4.23-2.837-7.227-3.694-8.994l-15.419-15.5c-1.713-.856-4.685-2.087-8.914-3.693a7.848 7.848 0 01-.924-.322 18.08 18.08 0 00-.843-.32c-.91-.322-1.499-.951-1.767-1.888-.267-.937-.107-1.78.482-2.53 1.874-2.462 5.408-5.327 10.6-8.592 4.444-2.784 8.272-4.658 11.485-5.622.535-1.017 1.044-1.98 1.525-2.891 2.142-3.855 3.882-6.451 5.22-7.79 1.5-1.499 3.587-2.918 6.264-4.256 2.624-1.231 5.622-2.329 8.995-3.293C75.334 24.91 81.626 24 87.568 24c2.409 0 4.336.187 5.782.562l1.686.402.482 1.686zM42.435 54.115c.161-.375.348-.83.563-1.365a94.53 94.53 0 00-4.739 2.73c-2.302 1.446-4.336 2.891-6.103 4.337 2.838 1.07 5.033 1.98 6.585 2.73a701.52 701.52 0 013.694-8.432zM64.52 81.741a63.231 63.231 0 002.65-4.739c-.75.375-1.151.563-1.205.563a336.615 336.615 0 01-8.512 3.694c.75 1.66 1.66 3.854 2.73 6.585 1.446-1.767 2.891-3.801 4.337-6.103zm25.698-49.148c0-.964-.027-1.874-.08-2.73-.75-.054-1.58-.08-2.49-.08-5.514 0-11.296.856-17.346 2.569-3.052.803-5.729 1.767-8.03 2.89-2.142 1.018-3.722 2.035-4.739 3.053-.91.963-2.302 3.158-4.176 6.585-1.713 3.105-3.614 6.96-5.702 11.564a478.808 478.808 0 00-4.336 10.119L53.437 76.68a409.347 409.347 0 0010.12-4.336c4.603-2.088 8.458-3.989 11.563-5.702 3.48-1.874 5.675-3.266 6.585-4.176 1.392-1.392 2.73-3.72 4.016-6.987 1.392-3.426 2.516-7.308 3.373-11.644.75-4.07 1.124-7.817 1.124-11.243zM33.762 79.25c1.928 0 3.574.683 4.94 2.048 1.364 1.365 2.047 2.985 2.047 4.858a6.72 6.72 0 01-1.405 4.176c-.937 1.232-2.129 2.088-3.574 2.57l-9.958 2.972a.894.894 0 01-.402.08c-.374 0-.696-.134-.963-.402a1.314 1.314 0 01-.402-.963c0-.161.027-.295.08-.402l2.972-10.038a7.168 7.168 0 012.53-3.534c1.204-.91 2.583-1.365 4.135-1.365zm31.4-29.553c0-1.445.495-2.663 1.486-3.654.99-.99 2.208-1.485 3.654-1.485 1.445 0 2.663.495 3.654 1.485.99.99 1.485 2.209 1.485 3.654 0 1.446-.495 2.664-1.485 3.654-.99.99-2.209 1.486-3.654 1.486-1.446 0-2.664-.495-3.654-1.486-.99-.99-1.486-2.208-1.486-3.654z"/></defs><use fill="#FFF" fill-rule="evenodd" transform="translate(-24 -24)" xlink:href="#aja"/></symbol><symbol viewBox="0 0 48 48" id="dialogflow" xmlns="http://www.w3.org/2000/svg"><defs><path id="aka" d="M2.885 39.577l-.116-.115v-.231C.923 36.538 0 33.577 0 30.346c0-4.923 1.885-9 5.654-12.23-.308 1.692-.462 3-.462 3.922 0 5.308 1.962 9.866 5.885 13.674 3.923 3.807 8.654 5.711 14.192 5.711 1.77 0 3.462-.23 5.077-.692-3.461 4.077-7.884 6.115-13.27 6.115-2.076 0-4.307-.461-6.691-1.384h-.116a2.048 2.048 0 00-.923-.231c-.23 0-.577.077-1.038.23L1.846 48l1.385-7.27c0-.384-.116-.768-.346-1.153zM27.923 0c5.539 0 10.27 1.904 14.192 5.712C46.038 9.519 48 14.077 48 19.385c0 3.615-1.077 7.077-3.23 10.384l-.116.116c-.077.077-.116.153-.116.23-.23.462-.346.923-.346 1.385l1.962 8.538-7.962-3c-.461-.153-.846-.23-1.154-.23-.23 0-.576.077-1.038.23l-.23.116c-.616.23-1.54.5-2.77.808a18.391 18.391 0 01-5.077.692c-5.538 0-10.25-1.885-14.135-5.654-3.884-3.77-5.826-8.308-5.826-13.615 0-1.385.115-2.731.346-4.039.923-4.384 3.23-8.038 6.923-10.961C18.923 1.462 23.154 0 27.923 0z"/></defs><use fill="#E73F39" fill-rule="evenodd" xlink:href="#aka"/></symbol><symbol viewBox="0 0 32 32" id="download" xmlns="http://www.w3.org/2000/svg"><path d="M31 22a1 1 0 00-1 1v7H2v-7a1 1 0 00-2 0v8a1 1 0 001 1h30a1 1 0 001-1v-8a1 1 0 00-1-1z"/><path d="M15.27 23.707c.389.385 1.04.389 1.429 0l6.999-6.9a.993.993 0 000-1.414 1.016 1.016 0 00-1.428 0l-5.275 5.2V1c0-.552-.452-1-1.01-1s-1.01.448-1.01 1v19.593l-5.275-5.2a1.016 1.016 0 00-1.428 0 .992.992 0 000 1.414l6.998 6.9z"/></symbol><symbol viewBox="0 0 48 48" id="drupal" xmlns="http://www.w3.org/2000/svg"><defs><path id="ama" d="M34.554 8.926c-2.458-1.528-4.782-2.128-7.1-3.656-1.438-.97-3.432-3.282-5.106-5.27-.322 3.191-1.297 4.489-2.412 5.414-2.363 1.846-3.849 2.4-5.893 3.512C12.327 9.806 3 15.352 3 27.286 3 39.215 13.07 48 24.25 48c11.186 0 20.884-8.092 20.884-20.346 0-12.255-9.095-17.804-10.58-18.728m.19 34.41c-.234.229-2.368 1.71-4.873 1.942-2.506.23-5.895.369-7.935-1.48-.324-.326-.234-.784 0-.968.232-.189.417-.328.697-.328.28 0 .23 0 .371.094.928.74 2.32 1.339 5.287 1.339 2.971 0 5.061-.828 5.988-1.525.417-.323.603-.045.651.14.044.183.138.462-.187.785m-8.042-3.892c.51-.464 1.348-1.204 2.138-1.527.788-.324 1.202-.278 1.946-.278.742 0 1.534.047 2.089.42.555.37.882 1.2 1.063 1.658.188.466 0 .742-.367.929-.323.183-.37.09-.696-.509-.322-.6-.602-1.204-2.227-1.204-1.623 0-2.135.557-2.923 1.204-.789.646-1.068.878-1.347.509-.278-.369-.185-.741.324-1.202m16.749-8.815c0 1.433-.463 4.02-1.58 5.64-1.11 1.62-1.805 2.222-3.11 2.128-1.671-.141-5.01-5.32-7.144-5.413-2.687-.091-8.536 5.6-13.132 5.6-2.785 0-3.617-.416-4.545-1.02-1.394-.971-2.09-2.45-2.045-4.486.05-3.609 3.433-6.98 7.705-7.025 5.425-.049 9.189 5.36 11.923 5.316 2.322-.044 6.779-4.58 8.959-4.58 2.319 0 2.969 2.401 2.969 3.84"/></defs><use fill="#E73F39" fill-rule="evenodd" xlink:href="#ama"/></symbol><symbol viewBox="0 0 74 74" id="encounter-game" xmlns="http://www.w3.org/2000/svg"><defs><path id="ana" d="M32.226 62.065a3.585 3.585 0 013.576 3.39l.005.19v7.161c0 .619-.47 1.127-1.072 1.188l-.122.006H20.29c-.619 0-1.126-.47-1.187-1.072l-.006-.122v-7.161a3.585 3.585 0 013.39-3.575l.19-.005h9.549zm38.194 0a3.585 3.585 0 013.576 3.39l.005.19v7.161c0 .619-.47 1.127-1.072 1.188l-.122.006H58.484c-.619 0-1.126-.47-1.187-1.072l-.006-.122v-7.161a3.585 3.585 0 013.39-3.575l.19-.005h9.549zm-19.097 0a3.585 3.585 0 013.576 3.39l.005.19v7.161c0 .619-.47 1.127-1.072 1.188L53.71 74H39.387c-.619 0-1.126-.47-1.187-1.072l-.006-.122v-7.161a3.585 3.585 0 013.39-3.575l.19-.005h9.549zm-38.194 0a3.585 3.585 0 013.576 3.39l.005.19v7.161c0 .619-.47 1.127-1.072 1.188l-.122.006H1.193c-.619 0-1.126-.47-1.187-1.072L0 72.806v-7.161a3.585 3.585 0 013.39-3.575l.19-.005h9.549zm0 2.387H3.581c-.618 0-1.127.47-1.188 1.071l-.006.122v5.968h1.194v-4.774h2.387v4.774h4.774v-4.774h2.387v4.774h1.194v-5.968c0-.659-.535-1.193-1.194-1.193zm19.097 0h-9.548c-.618 0-1.127.47-1.188 1.071l-.006.122v5.968h1.194v-4.774h2.387v4.774h4.774v-4.774h2.387v4.774h1.194v-5.968c0-.659-.535-1.193-1.194-1.193zm38.194 0h-9.548c-.618 0-1.127.47-1.188 1.071l-.006.122v5.968h1.194v-4.774h2.387v4.774h4.774v-4.774h2.387v4.774h1.194v-5.968c0-.659-.535-1.193-1.194-1.193zm-19.097 0h-9.548c-.618 0-1.127.47-1.188 1.071l-.006.122v5.968h1.194v-4.774h2.387v4.774h4.774v-4.774h2.387v4.774h1.194v-5.968c0-.659-.535-1.193-1.194-1.193zM8.355 50.129a4.78 4.78 0 014.77 4.562l.004.212v2.387a4.78 4.78 0 01-4.774 4.775 4.78 4.78 0 01-4.77-4.563l-.004-.212v-2.387a4.779 4.779 0 014.774-4.774zm19.097 0a4.78 4.78 0 014.77 4.562l.004.212v2.387a4.78 4.78 0 01-4.774 4.775 4.78 4.78 0 01-4.77-4.563l-.004-.212v-2.387a4.779 4.779 0 014.774-4.774zm38.194 0a4.78 4.78 0 014.77 4.562l.004.212v2.387a4.78 4.78 0 01-4.774 4.775 4.78 4.78 0 01-4.77-4.563l-.004-.212v-2.387a4.779 4.779 0 014.774-4.774zm-19.097 0a4.78 4.78 0 014.77 4.562l.004.212v2.387a4.78 4.78 0 01-4.774 4.775 4.78 4.78 0 01-4.77-4.563l-.004-.212v-2.387a4.779 4.779 0 014.774-4.774zM8.355 52.516a2.39 2.39 0 00-2.382 2.224l-.005.163v2.387a2.39 2.39 0 002.387 2.387 2.39 2.39 0 002.382-2.224l.005-.163v-2.387a2.39 2.39 0 00-2.387-2.387zm19.097 0a2.39 2.39 0 00-2.382 2.224l-.005.163v2.387a2.39 2.39 0 002.387 2.387 2.39 2.39 0 002.382-2.224l.005-.163v-2.387a2.39 2.39 0 00-2.387-2.387zm38.194 0a2.39 2.39 0 00-2.382 2.224l-.005.163v2.387a2.39 2.39 0 002.387 2.387 2.39 2.39 0 002.382-2.224l.005-.163v-2.387a2.39 2.39 0 00-2.387-2.387zm-19.097 0a2.39 2.39 0 00-2.382 2.224l-.005.163v2.387a2.39 2.39 0 002.387 2.387 2.39 2.39 0 002.382-2.224l.005-.163v-2.387a2.39 2.39 0 00-2.387-2.387zm-9.548-16.71c1.486 0 2.752.917 3.292 2.21l.069.178h15.736c.618 0 1.126.468 1.187 1.07l.006.123v3.58h8.355c.619 0 1.126.47 1.187 1.072l.006.122v3.58h-2.387v-2.386h-16.71v2.387h-2.387V44.16c0-.619.47-1.126 1.072-1.187l.122-.006h8.355V40.58H40.362c-.494 1.385-1.807 2.387-3.361 2.387a3.573 3.573 0 01-3.292-2.209l-.07-.178H19.099v2.387h8.354c.62 0 1.127.468 1.188 1.07l.006.123v3.58h-2.387v-2.386H9.549v2.387H7.162V44.16c0-.619.469-1.126 1.071-1.187l.122-.006h8.355v-3.581c0-.619.469-1.126 1.071-1.187l.123-.006H33.64c.494-1.386 1.807-2.388 3.36-2.388zm0 2.388a1.193 1.193 0 100 2.387 1.193 1.193 0 000-2.387zM38.194 0v2.387h1.194c.618 0 1.126.47 1.187 1.072l.006.122v3.58h2.812a10.69 10.69 0 016.737-2.387c5.923 0 10.742 4.82 10.742 10.742 0 1.609-.364 3.132-1 4.503l-.165.339.938 5.632c.15.908.227 1.832.227 2.746 0 3.939-3.132 7.07-6.982 7.07a6.987 6.987 0 01-6.266-3.904l-.113-.241-3.156-7.101c-.222-.142-.44-.29-.65-.447l-.312-.241H30.61c-.204.165-.416.32-.633.47l-.329.218-3.156 7.101a6.988 6.988 0 01-6.38 4.145 6.989 6.989 0 01-6.981-6.981c0-.836.053-1.617.158-2.38l.07-.455.938-5.633a10.652 10.652 0 01-1.166-4.841c0-5.922 4.818-10.742 10.742-10.742 2.429 0 4.668.815 6.47 2.178l.266.209h2.812v-3.58c0-.618.469-1.127 1.071-1.188l.123-.006h1.193V0h2.387zm19.547 23.087a10.707 10.707 0 01-7.611 3.171c-.733 0-1.445-.082-2.137-.226l-.413-.093 2.112 4.752a4.598 4.598 0 004.199 2.728 4.6 4.6 0 004.594-4.594c0-.698-.042-1.346-.125-1.975l-.07-.469-.549-3.294zm-41.48.001l-.55 3.294a14.455 14.455 0 00-.194 2.354c0 2.622 2.06 4.683 4.594 4.683a4.597 4.597 0 004.1-2.524l.097-.204 2.112-4.752c-.82.201-1.669.319-2.549.319a10.71 10.71 0 01-7.61-3.17zM50.128 7.161c-4.606 0-8.355 3.748-8.355 8.355s3.75 8.355 8.355 8.355 8.355-3.748 8.355-8.355-3.749-8.355-8.355-8.355zm-26.258 0c-4.606 0-8.355 3.748-8.355 8.355s3.75 8.355 8.355 8.355 8.355-3.748 8.355-8.355-3.749-8.355-8.355-8.355zm27.452 11.936v2.387h-2.387v-2.387h2.387zM25.065 9.548v4.775h4.774v2.387h-4.774v4.774h-2.387V16.71h-4.774v-2.387h4.774V9.548h2.387zm16.14 0h-8.408a10.68 10.68 0 011.816 5.968c0 2.077-.594 4.018-1.62 5.663l-.196.305h8.407c-1.146-1.708-1.817-3.761-1.817-5.968s.671-4.26 1.817-5.968zm5.344 4.775v2.387h-2.387v-2.387h2.387zm9.548 0v2.387H53.71v-2.387h2.387zm-4.774-4.775v2.387h-2.387V9.548h2.387zM38.194 4.774h-2.387v2.387h2.387V4.774z"/></defs><use fill="#E73F39" xlink:href="#ana" fill-rule="evenodd"/></symbol><symbol viewBox="0 0 70 70" id="encounter-meal" xmlns="http://www.w3.org/2000/svg"><defs><path id="aoa" d="M44.585 0a1.365 1.365 0 011.377 1.445c-.01.176-.28 4.224-3.051 7.202 5.297 1.356 8.463 5.647 8.463 11.821 0 5.36-2.291 11.288-5.808 14.755l-.266.255h15.678a4.09 4.09 0 013.918 2.907l.054.193.006.027 2.005 8.766a4.1 4.1 0 012.965 3.73l.005.205v2.73a4.098 4.098 0 01-2.781 3.876l-.188.058-2.006 8.766-.007.027a4.09 4.09 0 01-3.771 3.097l-.2.004H9.021a4.089 4.089 0 01-3.918-2.907l-.054-.194-.006-.027-2.006-8.766a4.1 4.1 0 01-2.964-3.728l-.005-.207v-2.729A4.098 4.098 0 012.85 47.43l.188-.059 2.006-8.766.006-.027a4.09 4.09 0 013.772-3.095l.2-.005H24.7c-3.667-3.425-6.073-9.516-6.073-15.01 0-7.848 5.024-12.28 12.28-12.28.882 0 1.75.111 2.596.332a6.608 6.608 0 00-4.392-4.95 1.364 1.364 0 11.863-2.59 9.335 9.335 0 015.238 4.363c.433-.775.98-1.543 1.67-2.233C39.905.086 44.398.003 44.587 0zm19.54 58.129H5.873L7.7 66.112c.145.559.623.962 1.19 1.016l.131.007h51.956c.58 0 1.088-.363 1.283-.897l.04-.126 1.825-7.983zm-39.206-8.187H4.162c-.708 0-1.292.542-1.358 1.233l-.006.13v2.73c0 .708.542 1.292 1.233 1.358l.131.007h61.676c.708 0 1.292-.542 1.358-1.234l.006-.131v-2.73c0-.751-.61-1.362-1.362-1.363H45.081l-.599 1.796c-.172.514-.63.874-1.16.926l-.135.007H26.813c-.542 0-1.028-.32-1.246-.808l-.048-.125-.6-1.796zm36.058-11.735H9.021c-.579 0-1.087.362-1.282.896l-.04.126-1.826 7.983h20.029c.542 0 1.028.32 1.245.807l.049.126.599 1.797h14.408l.599-1.797a1.364 1.364 0 011.16-.927l.134-.006h20.029l-1.827-7.983a1.364 1.364 0 00-1.322-1.022zm-34.165 3.138a1.365 1.365 0 11-.001 2.73 1.365 1.365 0 01.001-2.73zm16.374 0a1.365 1.365 0 01.131 2.723l-.131.006H32.27a1.364 1.364 0 01-.131-2.723l.131-.006h10.916zm-12.28-30.43c-2.872 0-9.552.932-9.552 9.553 0 6.656 4.28 14.768 9.325 15.005l.227.005h8.187c5.144 0 9.552-8.254 9.552-15.01 0-8.435-6.455-9.487-9.234-9.548-1.354-.026-2.536.204-3.795.841a1.4 1.4 0 01-1.345-.054 7.627 7.627 0 00-3.365-.791zm8.187 2.73c2.62 0 4.52.787 5.647 2.34 1.054 1.45 1.175 3.254 1.175 4.483a1.364 1.364 0 11-2.729 0c0-2.593-.67-4.094-4.093-4.094a1.365 1.365 0 010-2.73zm3.841-10.69c-1.225.267-2.881.842-4.123 2.084-1.013 1.012-1.62 2.303-1.979 3.403a10.327 10.327 0 011.802-.245l.459-.01h.01A7.436 7.436 0 0040.74 6.97c1.25-1.25 1.88-2.834 2.194-4.013z"/></defs><use fill="#E73F39" xlink:href="#aoa" fill-rule="evenodd"/></symbol><symbol viewBox="0 0 92 69" id="encounter-star" xmlns="http://www.w3.org/2000/svg"><defs><path id="apa" d="M24.188 64.824c.701 0 1.277.54 1.343 1.23l.006.132v1.452c0 .752-.604 1.362-1.349 1.362-.701 0-1.277-.54-1.342-1.23l-.007-.132v-1.452c0-.753.604-1.362 1.35-1.362zm4.856-3.269c.745 0 1.348.61 1.348 1.362 0 .708-.534 1.29-1.218 1.356l-.13.006h-1.44c-.744 0-1.348-.61-1.348-1.362 0-.708.535-1.29 1.219-1.356l.13-.006h1.439zm-8.093-.181c.745 0 1.349.609 1.349 1.361 0 .709-.535 1.29-1.22 1.356l-.13.006h-1.438a1.355 1.355 0 01-1.349-1.362c0-.708.535-1.289 1.22-1.355l.13-.006h1.438zm3.417-4.721c.701 0 1.277.54 1.342 1.23l.007.132v1.452c0 .752-.604 1.362-1.35 1.362-.7 0-1.276-.54-1.342-1.23l-.006-.132v-1.452c0-.753.604-1.362 1.349-1.362zM62.673 1.18c1.706 0 3.16 1.017 3.76 2.608l.07.202 4.768 14.815c.165.512.61.87 1.133.921l.132.007h15.428c1.777 0 3.28 1.103 3.83 2.81.528 1.639.02 3.35-1.295 4.416l-.168.13-12.481 9.156c-.432.317-.63.856-.518 1.373l.035.13 4.767 14.813c.55 1.707-.025 3.492-1.463 4.547-1.378 1.011-3.143 1.053-4.553.126l-.182-.126-12.481-9.156a1.316 1.316 0 00-1.444-.079l-.12.08-12.48 9.155c-.72.528-1.544.792-2.368.792s-1.649-.264-2.368-.792a4.022 4.022 0 01-1.523-4.342l.06-.205.144-.448H1.348c-.744 0-1.348-.61-1.348-1.362 0-.708.535-1.29 1.219-1.356l.13-.006h42.884l2.046-6.355H18.535c-.745 0-1.349-.61-1.349-1.362 0-.708.535-1.29 1.219-1.356l.13-.006h28.62l.826-2.563a1.348 1.348 0 00-.38-1.418l-.104-.084-3.122-2.29H1.35c-.745 0-1.349-.61-1.349-1.362 0-.708.535-1.29 1.22-1.356l.13-.006h39.312l-5.646-4.142a4.042 4.042 0 01-1.464-1.999l-.064-.214H1.35c-.745 0-1.35-.61-1.35-1.362 0-.708.536-1.29 1.22-1.356l.13-.006h32.353a3.951 3.951 0 013.469-2.414l.212-.005h7.514c.745 0 1.349.609 1.349 1.362 0 .708-.535 1.289-1.219 1.355l-.13.006h-7.514c-.897 0-1.195.71-1.265.928-.066.205-.222.883.364 1.406l.119.096 12.481 9.156a4.077 4.077 0 011.525 4.336l-.062.211-4.767 14.814c-.277.862.3 1.367.483 1.502.173.127.763.486 1.437.084l.127-.084 12.48-9.156a3.984 3.984 0 014.548-.13l.188.13 12.48 9.156c.726.532 1.38.135 1.564 0 .172-.127.69-.58.526-1.345l-.042-.157-4.768-14.814a4.08 4.08 0 011.29-4.413l.173-.134 12.481-9.156c.726-.532.553-1.284.484-1.502-.066-.203-.333-.841-1.104-.92l-.161-.008H72.537a4.018 4.018 0 01-3.762-2.611l-.07-.199L63.94 4.832c-.278-.861-1.039-.928-1.266-.928-.212 0-.895.059-1.207.776l-.058.152-4.767 14.814a4.023 4.023 0 01-3.622 2.805l-.209.005h-2.518a1.355 1.355 0 01-1.349-1.361c0-.709.535-1.29 1.22-1.356l.129-.006h2.518c.534 0 1.008-.318 1.218-.803l.047-.125.968-3.008H1.35A1.355 1.355 0 010 14.436c0-.709.535-1.29 1.22-1.356l.13-.006h54.57l2.923-9.083c.55-1.708 2.053-2.811 3.83-2.811zM13.139 40.311c.745 0 1.349.609 1.349 1.361 0 .709-.535 1.29-1.22 1.356l-.13.006H1.349A1.355 1.355 0 010 41.672c0-.708.535-1.289 1.219-1.355l.13-.006h11.79zm57.227-3.139a1.37 1.37 0 01-.178 1.917c-2.458 2.058-4.986 3.086-7.515 3.086s-5.056-1.028-7.514-3.086a1.37 1.37 0 01-.178-1.917 1.34 1.34 0 011.9-.18c3.952 3.308 7.633 3.308 11.585 0a1.34 1.34 0 011.9.18zM55.93 25.421c.847 0 1.542.657 1.613 1.493l.006.141v3.632c0 .903-.725 1.634-1.62 1.634a1.624 1.624 0 01-1.612-1.493l-.006-.14v-3.633c0-.902.725-1.634 1.619-1.634zm13.308 0c.847 0 1.542.657 1.613 1.493l.006.141v3.632c0 .903-.725 1.634-1.62 1.634a1.624 1.624 0 01-1.612-1.493l-.006-.14v-3.633c0-.902.725-1.634 1.619-1.634zm9.441-17.25c.702 0 1.278.54 1.343 1.23l.006.132v1.453c0 .752-.604 1.361-1.349 1.361-.7 0-1.277-.54-1.342-1.23l-.006-.131V9.533c0-.752.603-1.362 1.348-1.362zm4.856-3.268c.745 0 1.349.609 1.349 1.362 0 .708-.535 1.289-1.219 1.355l-.13.006h-1.439a1.355 1.355 0 01-1.348-1.361c0-.709.534-1.29 1.218-1.356l.13-.006h1.44zm-8.093-.182c.746 0 1.349.61 1.349 1.362 0 .708-.535 1.29-1.219 1.356l-.13.006h-1.439c-.744 0-1.348-.61-1.348-1.362 0-.708.535-1.29 1.219-1.356l.13-.006h1.438zM78.86 0c.701 0 1.278.54 1.343 1.23l.006.132v1.452c0 .753-.604 1.362-1.349 1.362-.7 0-1.277-.54-1.342-1.23l-.006-.132V1.362C77.51.61 78.114 0 78.859 0z"/></defs><use fill="#E73F39" xlink:href="#apa" fill-rule="evenodd"/></symbol><symbol id="express" viewBox="0 0 24 24" xml:space="preserve" xmlns="http://www.w3.org/2000/svg"><style>.aqst0{fill:#e73f39}</style><path class="aqst0" d="M23.3 9.4h-2c-.2-.8-.5-1.5-.9-2.2l1.4-1.4c.3-.3.3-.7 0-1l-2.7-2.7c-.3-.3-.7-.3-1 0l-1.4 1.4c-.7-.4-1.4-.7-2.2-.9v-2c0-.4-.3-.7-.7-.7H10c-.3.1-.6.4-.6.8v2c-.7.2-1.5.5-2.2.9L5.8 2.2c-.3-.3-.7-.3-1 0L2.2 4.8c-.3.3-.3.7 0 1l1.4 1.4c-.4.7-.7 1.5-.9 2.2h-2c-.4 0-.7.3-.7.7v3.8c0 .4.3.7.7.7h2c.2.8.5 1.5.9 2.2l-1.4 1.4c-.3.3-.3.7 0 1l2.7 2.7c.3.3.7.3 1 0l1.4-1.4c.7.4 1.4.7 2.2.9v2c0 .4.3.7.7.7H14c.4 0 .7-.3.7-.7v-2c.8-.2 1.5-.5 2.2-.9l1.4 1.4c.3.3.7.3 1 0l2.7-2.7c.3-.3.3-.7 0-1l-1.4-1.4c.4-.7.7-1.4.9-2.2h2c.4 0 .7-.3.7-.7v-3.8c-.2-.4-.5-.7-.9-.7zm-11.3 8c-3 0-5.4-2.4-5.4-5.4S9 6.6 12 6.6 17.4 9 17.4 12 15 17.4 12 17.4z"/></symbol><symbol viewBox="0 0 43 12" id="flecha-right" xmlns="http://www.w3.org/2000/svg"><path fill-rule="evenodd" d="M36.99 0L43 6l-6.01 6-1.218-1.216L39.561 7H0V5h39.562l-3.79-3.784L36.991 0zm3.072 5.5v1l.501-.5-.501-.5z"/></symbol><symbol viewBox="0 0 48 48" id="gigapixel" xmlns="http://www.w3.org/2000/svg"><defs><path id="asa" d="M0 0h10.667v10.667H0V0zm10.667 18.667v10.666H0V18.667h10.667zm18.666 0v10.666H18.667V18.667h10.666zm18.667 0v10.666H37.333V18.667H48zM29.333 0v10.667H18.667V0h10.666zM48 0v10.667H37.333V0H48zM10.667 37.333V48H0V37.333h10.667zm18.666 0V48H18.667V37.333h10.666zm18.667 0V48H37.333V37.333H48z"/></defs><use fill="#E73F39" fill-rule="evenodd" xlink:href="#asa"/></symbol><symbol viewBox="0 0 72 62" id="heart" xmlns="http://www.w3.org/2000/svg"><path d="M52.79 0C45.76 0 39.17 5.56 36 8.7 32.83 5.56 26.24 0 19.21 0 7.19 0 0 7.05 0 18.86c0 9.67 8.84 17.76 9.16 18.05l25.07 24.25c.48.48 1.12.73 1.77.73.65 0 1.29-.24 1.77-.73L62.8 36.98c.36-.36 9.2-8.46 9.2-18.13C72 7.05 64.81 0 52.79 0zm6.76 32.95L36.19 55.5l-23.4-22.59c-.08-.08-7.53-6.94-7.53-14.32 0-11.34 7.65-13.72 14.1-13.72 6 0 12.77 6.49 14.86 9 .97 1.17 2.98 1.17 3.95 0 2.09-2.5 8.86-9 14.86-9 6.45 0 14.1 2.38 14.1 13.72-.01 7.38-7.46 14.24-7.58 14.36z" fill="#FFF" fill-rule="evenodd"/></symbol><symbol viewBox="0 0 48 48" id="html" xmlns="http://www.w3.org/2000/svg"><defs><path id="aua" d="M42.751 23.718l-7.2-7.2a2.182 2.182 0 113.099-3.054l8.726 8.727a2.182 2.182 0 010 3.055l-8.726 8.727a2.182 2.182 0 01-3.098-3.055l7.2-7.2zm-37.502 0l7.2 7.2a2.182 2.182 0 01-3.099 3.055L.624 25.246a2.182 2.182 0 010-3.055l8.726-8.727a2.182 2.182 0 013.098 3.054l-7.2 7.2zm16.493 17.979a2.182 2.182 0 01-4.232-1.048L26.236 5.74a2.182 2.182 0 114.233 1.048l-8.727 34.909z"/></defs><g fill="none" fill-rule="evenodd"><path d="M0 0h48v48H0z"/><use fill="#E73F39" fill-rule="nonzero" xlink:href="#aua"/></g></symbol><symbol viewBox="0 0 28 30" id="idea" xmlns="http://www.w3.org/2000/svg"><g fill="#fff" fill-rule="nonzero"><path d="M14 6a8.36 8.36 0 00-8 8 8.4 8.4 0 002.29 5.7A4.56 4.56 0 0110 23a1 1 0 001 1h6a1 1 0 001-1 4.46 4.46 0 011.69-3.28A7.87 7.87 0 0022 14a8.17 8.17 0 00-2.44-5.83A7.67 7.67 0 0014 6zm4.34 12.28A6.87 6.87 0 0016.09 22h-4.18a7 7 0 00-2.2-3.71A6.41 6.41 0 018 14a6.29 6.29 0 016-6 5.63 5.63 0 014.13 1.6A6.16 6.16 0 0120 14a5.93 5.93 0 01-1.69 4.28h.03zM17 25h-6a1 1 0 000 2h6a1 1 0 000-2zM16 28h-4a1 1 0 000 2h4a1 1 0 000-2zM14 4a1 1 0 001-1V1a1 1 0 00-2 0v2a1 1 0 001 1zM3 13H1a1 1 0 000 2h2a1 1 0 000-2zM27 13h-2a1 1 0 000 2h2a1 1 0 000-2zM23.9 4.1a1 1 0 00-1.41 0l-1.42 1.41a1 1 0 00.71 1.71 1 1 0 00.71-.29l1.41-1.42a1 1 0 000-1.41zM6.93 6.93a1 1 0 000-1.42L5.51 4.1A1 1 0 004.1 5.51l1.41 1.42a1 1 0 00.71.29 1 1 0 00.71-.29z"/></g></symbol><symbol viewBox="0 0 20 20" id="link" xmlns="http://www.w3.org/2000/svg"><defs><path id="awa" d="M5.781 14.297a.556.556 0 01-.195-.43c0-.17.065-.319.195-.449l7.559-7.617c.13-.13.28-.196.45-.196.168 0 .318.066.448.196.117.117.176.26.176.43 0 .169-.059.318-.176.449L6.66 14.297a.665.665 0 01-.215.146.605.605 0 01-.234.05.605.605 0 01-.234-.05.485.485 0 01-.196-.146zm3.516-1.328l.996-.977c.312.742.404 1.507.273 2.295-.13.788-.5 1.481-1.113 2.08l-2.52 2.442c-.39.403-.836.703-1.337.898A4.19 4.19 0 014.062 20a4.19 4.19 0 01-1.533-.293 3.733 3.733 0 01-1.338-.898 3.733 3.733 0 01-.898-1.338A4.19 4.19 0 010 15.937c0-.52.098-1.028.293-1.523.195-.495.495-.944.898-1.348l2.461-2.539a4.072 4.072 0 012.871-1.191 3.953 3.953 0 011.72.39l-.977.977a2.25 2.25 0 00-.743-.117 2.8 2.8 0 00-1.084.215 2.776 2.776 0 00-.908.605l-2.46 2.559c-.548.534-.821 1.191-.821 1.973 0 .78.273 1.445.82 1.992.274.26.58.462.918.605.339.143.697.215 1.075.215.377 0 .735-.072 1.074-.215a3.04 3.04 0 00.918-.605l2.52-2.442a2.62 2.62 0 00.702-1.181c.118-.437.124-.883.02-1.338zM18.809 1.19c.403.391.703.837.898 1.338A4.19 4.19 0 0120 4.063c0 .52-.098 1.028-.293 1.523a3.946 3.946 0 01-.898 1.348l-2.52 2.52a4.072 4.072 0 01-2.871 1.191c-.26 0-.52-.02-.781-.06-.26-.038-.515-.11-.762-.214l.996-.996c.091.013.182.02.274.02h.273a2.8 2.8 0 001.084-.215c.345-.144.648-.345.908-.606l2.52-2.539c.547-.534.82-1.191.82-1.973 0-.78-.273-1.445-.82-1.992a3.04 3.04 0 00-.918-.605 2.729 2.729 0 00-1.075-.215c-.377 0-.735.072-1.074.215a3.04 3.04 0 00-.918.605l-2.52 2.442a2.639 2.639 0 00-.732 1.318 2.9 2.9 0 00.05 1.475l-.977.976a4.05 4.05 0 01-.352-2.422c.13-.859.508-1.601 1.133-2.226l2.52-2.442c.39-.403.836-.703 1.337-.898A4.19 4.19 0 0115.938 0c.52 0 1.031.098 1.533.293.501.195.947.495 1.338.898z"/></defs><use fill="#FFF" fill-rule="evenodd" xlink:href="#awa"/></symbol><symbol viewBox="0 0 36 36" id="location" xmlns="http://www.w3.org/2000/svg"><defs><path id="axa" d="M19.004 0c2.21 0 4.187.363 5.93 1.09 1.743.726 3.21 1.717 4.401 2.97a12.859 12.859 0 012.726 4.378A14.85 14.85 0 0133 13.71c0 1.875-.387 3.79-1.16 5.748a35.528 35.528 0 01-2.928 5.766 52.553 52.553 0 01-3.83 5.36 102.648 102.648 0 01-3.868 4.5c0 .024-.184.183-.552.476a2.01 2.01 0 01-1.29.439h-.11c-.515 0-.951-.146-1.307-.44-.356-.292-.534-.45-.534-.474a739.207 739.207 0 01-4.144-4.606 52.75 52.75 0 01-4.125-5.255 33.95 33.95 0 01-3.167-5.678c-.847-1.945-1.27-3.89-1.27-5.836 0-1.852.38-3.61 1.141-5.274A14.254 14.254 0 018.95 4.061a14.668 14.668 0 014.548-2.971A14.082 14.082 0 0119.004 0zm.442 33.574c1.867-2.039 3.5-3.984 4.899-5.836 1.4-1.851 2.566-3.603 3.499-5.256.933-1.652 1.633-3.21 2.1-4.675.466-1.465.699-2.83.699-4.096 0-1.43-.227-2.83-.682-4.201a10.401 10.401 0 00-2.117-3.674c-.958-1.078-2.167-1.945-3.628-2.602-1.461-.656-3.198-.984-5.212-.984-1.62 0-3.155.305-4.603.914a12.23 12.23 0 00-3.794 2.479A11.939 11.939 0 008.03 9.299a10.478 10.478 0 00-.958 4.412c0 1.664.369 3.351 1.105 5.062a29.89 29.89 0 002.8 5.045 49.695 49.695 0 003.72 4.782c1.35 1.535 2.627 2.97 3.83 4.306l.626.668.147.14a.6.6 0 01.092-.07c.037-.023.055-.046.055-.07zm-.552-26.789c1.964 0 3.634.662 5.009 1.986 1.375 1.325 2.062 2.913 2.062 4.764 0 1.875-.687 3.469-2.062 4.781-1.375 1.313-3.045 1.97-5.009 1.97-1.94 0-3.603-.657-4.99-1.97-1.388-1.312-2.081-2.906-2.081-4.78 0-1.852.693-3.44 2.08-4.765 1.388-1.324 3.051-1.986 4.991-1.986zm0 11.25c1.301 0 2.406-.445 3.315-1.336.908-.89 1.362-1.957 1.362-3.199 0-1.242-.46-2.303-1.38-3.182C21.27 9.44 20.157 9 18.856 9c-1.301 0-2.412.44-3.333 1.318-.92.88-1.381 1.94-1.381 3.182s.466 2.309 1.4 3.2c.932.89 2.05 1.335 3.351 1.335z"/></defs><use fill="#E73F39" fill-rule="evenodd" xlink:href="#axa"/></symbol><symbol viewBox="0 0 262 95" id="logo-biko" xmlns="http://www.w3.org/2000/svg"><path d="M243.303 21.015c1.422-1.056 2.974-2.112 4.138-3.45.905-1.057 1.551-2.395 1.357-3.662-.452-2.676-3.685-3.31-6.595-2.676-1.81.422-3.62 1.267-4.978 2.535-.582.493-1.1 1.127-1.358 1.76-.259.845.388 1.409 1.422 1.127.776-.211 1.423-.704 2.005-1.197.711-.704 1.358-1.479 2.457-1.69.711-.141 1.358.07 1.358.774 0 .564-.518 1.127-1.035 1.55-.452.352-.84.704-1.293.986-1.552 1.197-3.039 2.394-4.203 3.873-.517.704-.97 1.479-1.228 2.253-.324.916-.453 1.831-.259 2.676.259 1.197 1.293 2.042 2.716 2.113 2.65.07 5.366-.141 8.147-.564 1.422-.281 2.91-1.126 3.038-2.535.13-1.479-1.422-1.972-2.91-1.76-2.004.281-4.008.493-6.012.704.776-1.056 2.069-1.901 3.233-2.817zM208.04 49c-4.516 0-26.821 22-3.763 22 18.884 0 7.936-22 3.763-22zM53.79 48c-5.12 0-32.267 22-4.419 22 22.096 0 9.54-22 4.42-22zm47.628-19.448c3.336 4.336 5.282 9.023 7.644 13.919 1.112-.7 2.572-13.01 2.92-14.969 1.042-6.085 4.795-22.452 12.787-22.452 4.239 0 7.088 4.267 8.478 7.834 1.946 4.896 3.127 9.722 4.03 14.898.487 2.798 1.39 8.953 2.086 11.471 5.976-2.797 17.443-9.163 17.652-9.232 3.822-2.099 11.883.56 7.783 7.833-3.197 5.736-17.165 18.816-17.165 20.285 0 .909 12.161 7.834 13.899 8.183.278-.49.695-.979.834-1.469 1.529-3.917 2.154-7.624 4.17-11.4 7.088-13.64 24.532-30.077 40.863-29.588a32.01 32.01 0 0114.038 3.707c-.834-2.867-.834-5.945.417-9.162 4.378-11.402 20.78-16.857 31.134-12.45 7.367 3.147 10.98 10.141 7.923 18.185-3.753 9.862-15.22 18.116-25.436 16.018 6.81 9.932 9.521 22.872 5.421 34.203C235.128 90.593 213.098 95 197.948 95c-4.448 0-20.015-2.938-20.432-2.868-8.34.77-12.996 1.539-21.474-.7l-15.22-5.945c-1.598-.42-3.544 2.938-4.587 3.847-7.019 6.435-18 3.358-25.088-.979-8.061 5.176-22.1 7.205-30.16.77-1.39-1.12-4.588-5.876-5.074-6.086-17.026 10.842-42.531 14.13-62.199 9.093-3.058-.07-9.799-4.826-11.05-7.624C-.74 76.884-.324 69.54.858 61.216c1.32-9.093 3.057-18.186 4.586-27.209C6.626 27.153 11.143 4.7 19.76 4.7c10.842 0 11.467 21.893 14.872 23.222 2.989-.91 8.896-1.958 11.954-1.958 14.385 0 23.906 7.973 33.01 17.976.278.28.626.56.973.84.765-.7 6.046-12.731 8.479-16.018l-.348-.98C73.342 20.088 83.974-5.302 101.348.993c5.074 1.889 8.41 7.205 8.41 12.52 0 9.163-8.27 13.85-8.34 15.039z" fill="#e73f39" fill-rule="evenodd"/></symbol><symbol viewBox="0 0 41 48" id="magento" xmlns="http://www.w3.org/2000/svg"><defs><path id="aza" d="M22.828 12.923v28.542l-2.56 1.715-2.56-1.725v-28.51l-6.631 4.478v24.408L20.269 48l9.27-6.213v-24.38l-6.711-4.484zM20.295 0L0 12.297v23.367l5.271 3.105V15.4l15.028-9.137 15.042 9.125.062.035-.007 23.312 5.22-3.07V12.297L20.294 0z"/></defs><use fill="#E73F39" fill-rule="evenodd" xlink:href="#aza"/></symbol><symbol id="mailchimp" viewBox="0 0 48 48" xml:space="preserve" xmlns="http://www.w3.org/2000/svg"><style>.bast0{fill:#e73f39}</style><g id="basilm9k_1_"><path class="bast0" d="M21.7.8h1.6c1 .6 2.1 1.1 2.8 1.9 1 1.2 1.9 1.3 3.4.7 2.2-1 4.5-1.5 7-1 2.5.6 3.8 2.4 3.3 4.9-.4 2.3-1.8 4-3.1 5.5.6 1.6 1.3 3 1.7 4.5.3 1 .2 2 .2 3.1 0 1 .3 1.5 1.3 1.7.8.2 1.6.6 2.3 1 1.5.9 2 2.6 1.4 4.3-.2.5-.2 1-.1 1.5.1.7.4 1.3 1.1 1.7.4.2.7 1 .8 1.5.1.8.1 1.7-.1 2.4-1.4 6.2-5.3 9.9-11.2 11.8-1.3.4-2.6.6-3.9.8h-3.7c-.3-.1-.6-.1-.9-.2-6-.8-10.7-3.7-13.5-9.1-.4-.7-.8-1-1.6-1.2-4-.8-6.6-4.6-5.6-8.6.2-.8 0-1.2-.6-1.6-1.1-.8-2-1.8-2-3.2 0-1.1.1-2.2.4-3.2 1-3.6 3.1-6.6 5.5-9.4 3.7-4.4 7.7-8.3 13.5-9.8zm19.8 32.6c-.6.5-1.2 1.1-1.9 1.5-2.7 1.7-5.7 2.4-8.9 2.2-1.3-.1-2.6-.7-3.8-1.3-1.2-.6-1.4-2.1-.9-3.4.5-1.2 1.3-1.6 2.8-1.4 3.4.4 6.6-.1 9.7-1.5 1.2-.6 2.3-1.4 3.3-2.4.9-1 .7-2.2-.5-2.8-.8-.5-1.8-.8-2.7-1.1-1-.3-1.4-.8-1.4-1.8 0-1.3-.1-2.7-.3-4-.1-1-.4-1.9-1.4-2.3-1-.4-1.8.1-2.5.7-1 .9-2.2 1.2-3.5 1.2-.8 0-1.6-.1-2.4-.2-2.6-.2-4.7 1.6-5 4.2-.2 2.1.5 3.7 1.9 5.2 1.2 1.3 1.2 1.3.2 2.7-3.2 4.5-1.7 10.4 3.3 12.7 5.3 2.4 12.8 0 15.5-5.2.6-1.1.8-2.4 1.1-3.7.1-.3-.2-1-.5-1.1-.8-.2-.8-.8-1-1.3-.1-.4-.3-.8-.5-1.3-4.2 2.9-8.7 3.8-13.6 3.2-.7-.1-1.3 0-1.6 1.1 2.4.3 4.8.5 7 .7-2.2.9-4.6.6-7-.1.2 1 .7 1.5 1.9 1.8 2 .6 4 .6 6 .1 2.2-.7 4.4-1.5 6.7-2.4zM25.8 4.9C24.1 2.4 22.9 2 20 3.1c-.4.2-.8.3-1.2.5-4.1 2.1-7.4 5.2-10.2 8.9-2 2.5-3.7 5.3-4.5 8.4-.6 2.3-.1 3.6 1.6 4.5 1.1-.7 2-1.4 3.1-1.9.6-.3 1-.6 1.2-1.2 2-5 4.9-9.3 9.2-12.6 2.1-1.6 4.4-3.2 6.6-4.8zM15.1 30.5h.2c-.2-1-.3-2-.6-2.9-.6-1.8-2.2-2.8-3.9-2.8-1.8 0-3.4 1.2-4 3-1 2.8.4 5.8 3.3 6.9 2.6 1 4.9-.4 5.1-3.3-.1-.3-.1-.6-.1-.9zm9.2-21.4c-2.2 1.1-5.1 3.5-5.6 4.8 4.2-2.8 8.7-3.6 13.7-2.8v-.4c-1.3-.4-2.7-.7-4-1.1.2-.2.4-.5.6-.8-.1-.1-.1-.2-.2-.3-1.6.6-3.2 1.1-4.9 1.7.1-.2.3-.6.4-1.1z"/><path class="bast0" d="M36 22.4c-1 .4-1.4 0-1.6-.7-.1-.6-.2-1.1-.2-1.7 0-.3.3-.5.4-.8.3.2.8.3.8.5.3.9.4 1.9.6 2.7zM25.2 23.8c1.2-2.1 3.9-2.1 5.2.1-1.8-.9-3.4-1-5.2-.1z"/><path class="bast0" d="M27.1 25c.8-1.2 2-1.3 2.8-.3-.9.1-1.8.2-2.8.3zM35.5 23.4c.3.5.6.8.6 1 0 .3-.3.6-.5.8-.2-.2-.5-.4-.6-.7 0-.2.3-.5.5-1.1zM33.4 26.3c-.4-.4-.7-.7-.9-1 0 0 .4-.5.5-.5.3.1.6.4.9.7.1.1-.2.4-.5.8zM13.5 32.2c-.4.1-.8.4-1.1.3-.4-.2-.9-.6-1-1-.1-.5 0-1.1.2-1.6.2-.9.1-1.5-.8-1.8-.8-.3-1.3.2-1.7.9-.1.3-.3.6-.5.9-.4-1-.2-2 .6-2.7.7-.6 1.6-.8 2.5-.3.9.5 1.3 1.3 1.2 2.3 0 .3-.2.7-.3 1-.5 1.3-.4 1.5.9 1.7v.3z"/></g></symbol><symbol viewBox="0 0 24 24" id="menu" xmlns="http://www.w3.org/2000/svg"><defs><clipPath id="bbb"><use xlink:href="#bba"/></clipPath><path id="bba" d="M339 38v-4h4v4zm7 0v-4h4v4zm7 0v-4h4v4zm-14-7v-4h4v4zm7-7v-4h4v4zm0 7v-4h4v4zm7-7v-4h4v4zm0 7v-4h4v4zm-14-7v-4h4v4z"/></defs><g transform="translate(-336 -17)"><use fill="#d8d8d8" xlink:href="#bba"/><g clip-path="url(#bbb)"><path d="M336 41V17h24v24z"/></g></g></symbol><symbol viewBox="0 0 24 24" id="menu-close" xmlns="http://www.w3.org/2000/svg"><defs><path id="bca" d="M0 18v-4h4v4H0zm14 0v-4h4v4h-4zm-7-7V7h4v4H7zm7-7V0h4v4h-4zM0 4V0h4v4H0z"/></defs><g transform="translate(3 3)" fill="none" fill-rule="evenodd"><path d="M0 18v-4h4v4H0zm14 0v-4h4v4h-4zm-7-7V7h4v4H7zm7-7V0h4v4h-4zM0 4V0h4v4H0z" fill="#D8D8D8" fill-rule="nonzero"/><mask id="bcb" fill="#fff"><use xlink:href="#bca"/></mask><path fill="#000" fill-rule="nonzero" mask="url(#bcb)" d="M-3 21V-3h24v24z"/></g></symbol><symbol viewBox="0 0 23 24" id="node-js" xmlns="http://www.w3.org/2000/svg"><g fill="none" fill-rule="evenodd"><path fill="#E73F39" d="M11.165 0L.033 3.986l1.704 14.769L11.165 24l9.429-5.245 1.703-14.769z"/><path fill="#FFF" fill-rule="nonzero" d="M5.576 16.176c.939 0 1.685-.139 2.24-.416a2.972 2.972 0 001.272-1.168c.293-.501.485-1.107.576-1.816.09-.71.136-1.496.136-2.36V4.64H7.592v5.776c0 .64-.021 1.197-.064 1.672-.043.475-.133.872-.272 1.192-.139.32-.341.557-.608.712-.267.155-.624.232-1.072.232-.459 0-.864-.064-1.216-.192s-.603-.245-.752-.352l-.496 1.792c.683.47 1.504.704 2.464.704zm9.78-.016c1.045 0 1.872-.237 2.48-.712.608-.475.912-1.123.912-1.944 0-.352-.061-.653-.184-.904a1.823 1.823 0 00-.576-.664 4.03 4.03 0 00-1.008-.512 16.55 16.55 0 00-1.48-.448 9.736 9.736 0 01-.776-.216 2.733 2.733 0 01-.504-.216.775.775 0 01-.28-.256.696.696 0 01-.088-.368c0-.33.123-.57.368-.72.245-.15.55-.224.912-.224.395 0 .792.075 1.192.224.4.15.813.384 1.24.704l.864-1.296a4.309 4.309 0 00-1.512-.88 5.606 5.606 0 00-1.768-.272c-.47 0-.904.064-1.304.192s-.75.312-1.048.552c-.299.24-.53.53-.696.872a2.609 2.609 0 00-.248 1.152c0 .32.053.595.16.824.107.23.277.432.512.608s.544.333.928.472a18.9 18.9 0 001.392.432c.65.181 1.12.341 1.408.48.288.139.432.357.432.656a.773.773 0 01-.368.688c-.245.16-.581.24-1.008.24a4.01 4.01 0 01-1.448-.28 6.893 6.893 0 01-1.496-.824l-.8 1.344c.48.416 1.056.736 1.728.96.672.224 1.36.336 2.064.336z"/></g></symbol><symbol id="openshift" viewBox="0 0 48 48" xml:space="preserve" xmlns="http://www.w3.org/2000/svg"><style>.best0{fill:#e73f39}</style><path class="best0" d="M39.8 23.6c.8-.3 1.7-.6 2.7-.9.3 3.6-.5 7-2.2 10-5.7 10.3-19.4 12.2-27.9 4-.6-.6-1.1-1.2-1.6-1.8-.3-.4-.6-.5-1-.3-.1 0-.2.1-.3.1-2.2.8-2.2.8-3.3-1.4-.6-1.2-1.1-2.5-1.6-3.9 1.9-.7 3.7-1.4 5.6-2.1-.2-.9-.3-1.8-.5-2.9-.8.3-1.6.5-2.4.8-.2-1.9-.1-3.8.4-5.6C9.6 12.7 14 8.2 21 6.6c7-1.5 13 .7 17.7 6.3.5.6.8.7 1.5.4.5-.2 1.1-.4 1.7-.6.3.4.5.9.8 1.3.2.4.4.8.7 1.3-1.8.7-3.6 1.3-5.3 2 .5 2.1 1.1 4.1 1.7 6.3zm-2.4-6.2c-.2-.3-.2-.5-.3-.6-1.2-1.9-1.2-1.9-3.3-1.2-.5.2-.8.2-1.2-.2-6.6-6-17-2.6-18.9 6-.1.5-.1.9-.2 1.5.9-.3 1.7-.6 2.6-.9 0 .9-.1 1.6 0 2.4.1.6-.1.9-.7 1.1-1.6.5-3.1 1.1-4.9 1.8.6 1.3 1 2.6 1.7 3.8 1.2 2.1 1.3 2.1 3.5 1.2.7-.3 1.1-.1 1.6.3 4.5 3.9 10.9 3.8 15.3-.2 2.2-2 3.4-4.5 3.6-7.6-1 .4-1.9.7-2.5.9-.5-2.2-1-4.3-1.5-6.5 1.6-.4 3.4-1.1 5.2-1.8z" id="beQSG4sn.tif"/></symbol><symbol viewBox="0 0 72 72" id="pencil" xmlns="http://www.w3.org/2000/svg"><defs><path id="bfa" d="M67.715 3.579c1.404 1.31 2.456 2.678 3.158 4.105.702 1.427 1.076 2.866 1.123 4.316.046 1.544-.281 3.053-.983 4.526-.701 1.474-1.73 2.913-3.087 4.316-.655.702-3.275 3.322-7.86 7.86a29820.12 29820.12 0 00-14.84 14.702c-5.31 5.263-10.187 10.093-14.631 14.49a5070.023 5070.023 0 00-7.298 7.229 2.064 2.064 0 01-.982.561c-.656.187-2.036.62-4.14 1.298-2.106.679-4.27 1.369-6.492 2.07a533.518 533.518 0 00-6 1.93c-1.777.585-2.689.878-2.736.878a1.252 1.252 0 01-.316.105 1.971 1.971 0 01-.386.035c-.28 0-.56-.058-.842-.175a1.741 1.741 0 01-.701-.527 1.893 1.893 0 01-.632-1.052 2.877 2.877 0 010-1.264c.047-.046.328-.924.842-2.631l1.79-5.93c.678-2.246 1.333-4.433 1.964-6.561.632-2.129 1.065-3.661 1.299-4.597.093-.187.187-.362.28-.526a2.16 2.16 0 01.351-.456L28.35 26.526a8623.628 8623.628 0 0015.192-15.228c4.655-4.678 7.146-7.158 7.473-7.438.468-.468 1.474-1.228 3.018-2.281C55.576.526 57.47 0 59.716 0a9.95 9.95 0 014.175.912c1.333.608 2.608 1.497 3.824 2.667zm-17.402 7.439a1145.716 1145.716 0 00-8.42 8.35A4656.154 4656.154 0 0031.33 29.965c-3.625 3.65-7.099 7.134-10.42 10.456l-7.93 7.93c.936.374 1.977.912 3.123 1.614 1.146.702 2.304 1.637 3.474 2.807.935.982 1.719 1.977 2.35 2.982.632 1.006 1.135 1.93 1.51 2.772 1.964-1.965 4.595-4.573 7.893-7.824a3754.23 3754.23 0 0010.35-10.246l10.491-10.42a1675.91 1675.91 0 018.386-8.282c-.047-.374-.316-1.251-.807-2.631-.491-1.38-1.439-2.772-2.842-4.176-1.404-1.356-2.713-2.315-3.93-2.877-1.216-.561-2.105-.912-2.666-1.052zM9.894 52.14a369.866 369.866 0 01-2.14 6.878c-.912 2.853-1.696 5.333-2.35 7.438a463.222 463.222 0 007.648-2.526c2.9-.983 5.122-1.731 6.666-2.246-.234-.702-.608-1.567-1.123-2.596-.514-1.03-1.263-2.035-2.245-3.018-1.31-1.31-2.55-2.257-3.72-2.842-1.169-.585-2.08-.947-2.736-1.088zm54.734-34.526c.935-.936 1.637-1.871 2.105-2.807.468-.936.701-1.825.701-2.667 0-.842-.245-1.707-.736-2.596-.492-.889-1.205-1.778-2.14-2.667-.749-.748-1.533-1.31-2.351-1.684a5.938 5.938 0 00-2.491-.561c-1.45 0-2.702.374-3.754 1.122-1.053.749-1.626 1.193-1.72 1.334l-.35.35c.888.375 1.87.901 2.947 1.58 1.076.678 2.175 1.578 3.298 2.701 1.076 1.076 1.941 2.176 2.596 3.299.655 1.122 1.146 2.152 1.474 3.087.093-.093.175-.187.245-.28.07-.094.129-.164.176-.211z"/></defs><use fill="#E73F39" fill-rule="evenodd" xlink:href="#bfa"/></symbol><symbol viewBox="0 0 93 56" id="pointer" xmlns="http://www.w3.org/2000/svg"><defs><path id="bga" d="M26.942.558c5.098 0 8.716.499 12.169 4.99h46.046c4.111 0 7.4 3.326 7.4 7.484s-3.289 7.484-7.4 7.484H68.219a7.334 7.334 0 011.316 4.158c0 3.656-2.628 6.814-6.079 7.483.18.266.345.544.487.833.823 1.663.987 3.825.33 5.654l-.165.167c-.987 2.993-3.783 4.989-6.743 4.989.494 1.497.494 3.326 0 4.823-1.316 3.825-5.262 5.821-9.045 4.823-1.973.333-8.88 1.996-14.965 1.996-11.512 0-13.814-.167-20.228-4.99H7.043c-3.618 0-6.578-2.827-6.578-6.486V13.863c0-3.659 2.96-6.652 6.578-6.652h5.92C14.608 5.381 19.87.558 26.777.558h.164zm-.165 3.327h-.164c-6.743.166-11.676 5.987-11.676 5.987-.329.499-.822.665-1.316.665H7.043c-1.809 0-3.289 1.497-3.289 3.326v30.103c0 1.663 1.48 3.16 3.29 3.16h6.577c.33 0 .658.166.987.333 5.749 4.36 7.156 4.644 17.771 4.657h.976c2.882 0 6.016-.415 8.629-.882l-11.26-3.941c-3.783-1.331-5.92-5.655-4.605-9.48.888-2.583 3.126-4.406 5.65-4.909a7.386 7.386 0 01-.223-5.403l.164-.332c.246-.58.533-1.16.9-1.699-4.424-3.879-8.42-8.175-9.451-10.609-.33-.831 0-1.829.822-2.162.822-.332 1.809 0 2.138.832.833 2.059 5 6.385 9.482 10.188.19.062.376.158.55.289 3.782 3.161 7.235 5.489 9.209 6.32.179.076.367.133.562.174 1.305.2 2.693-.166 3.385-1.005.986-1.331.493-3.493-1.152-6.154-1.63-2.398-5.931-8.172-9.895-13.429l-1.287-1.539-.165-.166c-2.631-3.992-4.933-4.324-10.032-4.324zm6.414 32.098c-.658 0-1.316.166-1.809.499-.987.499-1.809 1.33-2.138 2.328-.658 2.162.33 4.491 2.631 5.322l16.453 5.76c.162.021.324.061.486.061 2.302.832 4.604-.332 5.262-2.494.33-.998.33-2.162-.164-3.16a4.994 4.994 0 00-.345-.59 4.261 4.261 0 00-1.845-1.359l-4.39-1.544-12.825-4.49c-.329-.167-.822-.333-1.316-.333zm1.81-8.482c-.165.166-.33.499-.33.665l-.164.333c-.658 2.162.329 4.324 2.467 5.156l11.343 3.99 3.57 1.25a1.79 1.79 0 01.874.082l3.289 1.164c1.248.388 2.494.206 3.48-.44a3.984 3.984 0 001.289-1.888l.164-.333c.33-.998.33-2.162-.164-2.994-.494-.998-1.316-1.663-2.303-1.995l-5.262-1.996c-.854 1.063-2.023 1.939-3.319 2.524a6.984 6.984 0 01-3.26.802c-.092 0-.181-.003-.271-.006-.873 0-1.73-.155-2.524-.493a10.17 10.17 0 01-.347-.144l-.137-.061c-2.148-.959-5.049-2.939-7.993-5.303L35 27.501zm27.462-7.318l-12.34.287c.255.386.48.738.665 1.044 1.4 2.124 2.01 3.922 2.177 5.399.096.021.193.05.29.089l3.688 1.306c.237-.093.495-.142.752-.142l3.782.499h.658c2.302 0 4.111-1.995 4.111-4.324 0-1.164-.493-2.162-1.151-2.993-.658-.666-1.644-1.165-2.631-1.165zM85.158 8.874H41.636c2.12 2.785 4.396 5.811 6.218 8.339.097-.014.197-.023.302-.023h37.002c2.302 0 4.112-1.83 4.112-4.158 0-2.329-1.81-4.158-4.112-4.158z"/></defs><use fill="#FFF" xlink:href="#bga" fill-rule="evenodd"/></symbol><symbol fill="none" viewBox="0 0 24 23" id="regalo" xmlns="http://www.w3.org/2000/svg"><path fill-rule="evenodd" clip-rule="evenodd" d="M24 6.773v4.5h-1.5v9.774c0 .406-.145.758-.434 1.055a1.43 1.43 0 01-1.066.445H3.023a1.43 1.43 0 01-1.066-.445 1.461 1.461 0 01-.434-1.055v-9.774H0V6.797c0-.422.145-.777.434-1.067A1.45 1.45 0 011.5 5.297h2.602a3.64 3.64 0 01-.809-1.137A3.444 3.444 0 013 2.72c0-.656.21-1.274.633-1.852C4.055.29 4.789 0 5.836 0c.687 0 1.348.164 1.98.492a8.944 8.944 0 011.758 1.196c.54.468 1.02.964 1.442 1.488.421.523.765.996 1.03 1.418.267-.422.606-.895 1.02-1.418.414-.524.887-1.02 1.418-1.489A8.78 8.78 0 0116.22.492 4.178 4.178 0 0118.187 0c1.047 0 1.782.29 2.204.867.422.578.632 1.196.632 1.852a3.444 3.444 0 01-1.078 2.554H22.5c.422 0 .777.149 1.066.446.29.297.434.648.434 1.054zM18.187 1.5c-.937 0-1.84.434-2.707 1.3-.867.868-1.566 1.692-2.097 2.473h2.531a4.88 4.88 0 002.461-.656c.766-.437 1.148-1.07 1.148-1.898 0-.406-.105-.711-.316-.914-.21-.203-.55-.305-1.02-.305zm-12.351 0c-.469 0-.809.098-1.02.293-.21.195-.316.496-.316.902 0 .828.395 1.465 1.184 1.91.789.446 1.62.668 2.496.668h2.53c-.53-.78-1.241-1.605-2.132-2.472C7.688 1.934 6.773 1.5 5.836 1.5zM22.5 9.773v-3h-9.75v3h9.75zm-21-3v3h9.75v-3H1.5zm1.523 4.5v9.774h8.227v-9.774H3.023zM21 21.047v-9.774h-8.25v9.774H21z" fill="#000"/></symbol><symbol viewBox="0 0 36 36" id="reloj" xmlns="http://www.w3.org/2000/svg"><path fill="#E73F39" fill-rule="evenodd" d="M18 0c-2.484 0-4.822.469-7.014 1.406-2.191.938-4.101 2.22-5.73 3.85-1.63 1.629-2.912 3.539-3.85 5.73C.47 13.178 0 15.516 0 18s.469 4.822 1.406 7.014c.938 2.191 2.22 4.101 3.85 5.73 1.629 1.63 3.539 2.912 5.73 3.85C13.178 35.53 15.516 36 18 36s4.822-.469 7.014-1.406c2.191-.938 4.101-2.22 5.73-3.85 1.63-1.629 2.912-3.539 3.85-5.73C35.53 22.822 36 20.484 36 18s-.469-4.822-1.406-7.014c-.938-2.191-2.22-4.101-3.85-5.73-1.629-1.63-3.539-2.912-5.73-3.85C22.822.47 20.484 0 18 0zm0 33.785c-2.18 0-4.225-.416-6.135-1.248a15.895 15.895 0 01-4.992-3.392 16.263 16.263 0 01-3.375-5.01C2.666 22.225 2.25 20.18 2.25 18c0-2.18.416-4.225 1.248-6.135.832-1.91 1.957-3.574 3.375-4.992 1.418-1.418 3.082-2.543 4.992-3.375C13.775 2.666 15.82 2.25 18 2.25c2.18 0 4.225.416 6.135 1.248 1.91.832 3.574 1.957 4.992 3.375 1.418 1.418 2.543 3.082 3.375 4.992.832 1.91 1.248 3.955 1.248 6.135 0 2.18-.416 4.225-1.248 6.135a16.263 16.263 0 01-3.375 5.01 15.895 15.895 0 01-4.992 3.392c-1.91.832-3.955 1.248-6.135 1.248zm1.125-16.242l5.309 5.309c.21.21.316.474.316.79 0 .317-.105.58-.316.792a1.02 1.02 0 01-.791.351 1.02 1.02 0 01-.791-.351l-5.59-5.555c0-.024-.006-.041-.018-.053l-.017-.017a.872.872 0 01-.264-.352 1.176 1.176 0 01-.088-.457V6.75c0-.305.111-.568.334-.791.223-.223.486-.334.791-.334.305 0 .568.111.791.334.223.223.334.486.334.791v10.793z"/></symbol><symbol id="sketch" viewBox="0 0 48 48" xml:space="preserve" xmlns="http://www.w3.org/2000/svg"><style>.bjst0{fill:#e73f39}</style><g id="bje05VH7.tif"><path class="bjst0" d="M46.7 17v.6c-.1.1-.2.3-.3.4-1.7 2.1-3.5 4.2-5.2 6.3-5.3 6.5-10.7 13-16 19.5l-.9.9h-.4c-.3-.3-.7-.6-.9-.9-5.1-6.2-10.1-12.3-15.2-18.5-2-2.5-4-4.9-6.1-7.4-.3-.4-.4-.8-.1-1.3.1-.1.2-.2.2-.3C4.5 12.5 7.2 8.6 10 4.6c.2-.2.5-.5.7-.5.9-.1 1.7-.1 2.6-.1 2.3-.2 4.6-.3 6.9-.5 1.4-.1 2.9-.3 4.4-.2 4.1.2 8.1.6 12.2.8.7 0 1.1.3 1.5.9l8.4 12zM24 41.8c4.2-7.9 8.4-15.7 12.6-23.5H11.4c4.2 7.8 8.4 15.6 12.6 23.5zM12.2 16.4h23.6c-4-3.7-7.9-7.3-11.8-11-3.9 3.7-7.8 7.3-11.8 11zm9.2-11.1h-.8l-8.4.6c-.4 0-.5.2-.6.6-.1 2.2-.3 4.3-.5 6.5 0 .6-.1 1.3-.1 1.9h.1c3.4-3.2 6.8-6.4 10.3-9.6zm5.3 0v.1c3.4 3.2 6.8 6.4 10.4 9.7v-.9c-.2-2.5-.4-5.1-.6-7.6 0-.4-.2-.6-.6-.6-1.9-.1-3.9-.3-5.8-.4-1.2-.2-2.3-.3-3.4-.3zm-22.4 13c4.8 5.8 9.4 11.5 14.1 17.2 0-.2-.1-.3-.1-.5-1-1.8-2-3.7-3-5.5-1.9-3.6-3.9-7.2-5.8-10.8-.1-.1-.2-.3-.4-.3-1.6-.1-3.2-.1-4.8-.1zm25.3 17.1c4.8-5.6 9.4-11.3 14.2-17.1h-4.5c-.3 0-.5.1-.7.4-2.9 5.5-5.8 10.9-8.8 16.4-.1 0-.2.2-.2.3zm9.4-19h4.9l-5.4-7.8h-.1l.6 7.8zM9.6 8.6h-.1l-5.4 7.8H9l.6-7.8z"/><path class="bjst0" d="M24.4 45.3h-.7l-.1-.1-.3-.3c-.2-.2-.5-.4-.7-.7-3.9-4.6-7.6-9.2-11.4-13.7l-10-12.2c-.5-.6-.5-1.2-.1-1.9 0-.1.1-.1.1-.2l.1-.1L3 13.6c2.1-3.1 4.3-6.2 6.4-9.3.2-.3.6-.6 1.1-.7.6-.1 1.3-.1 1.9-.2h.8l2.3-.2c1.5-.1 3.1-.2 4.6-.3.4 0 .7-.1 1.1-.1 1.1-.1 2.2-.2 3.3-.1 2.3.1 4.6.3 6.9.5 1.8.1 3.5.3 5.3.4.8.1 1.4.4 1.9 1.1 2.1 3 4.2 6.1 6.3 9.1l2.1 3.1v1.2c-.1.1-.1.2-.2.3l-1.9 2.3c-1.1 1.3-2.2 2.7-3.3 4l-5.3 6.5c-3.6 4.3-7.1 8.7-10.7 13-.2.3-.4.5-.7.7l-.3.3-.2.1zm-.5-41.6c-.8 0-1.7.1-2.5.1-.4 0-.7.1-1.1.1-1.5.1-3.1.2-4.6.3l-2.3.2c-.3 0-.5 0-.8.1-.6 0-1.2.1-1.8.1-.1 0-.3.1-.4.3-2.2 3.1-4.3 6.2-6.5 9.3l-1.7 2.5c0 .1-.1.1-.1.2L2 17c-.2.3-.2.4 0 .7l10 12.2c3.8 4.6 7.5 9.1 11.3 13.7l.6.6c.1 0 .1.1.2.1s.1-.1.2-.1c.2-.2.4-.3.6-.5 3.6-4.3 7.1-8.7 10.7-13l5.3-6.5c1.1-1.3 2.2-2.7 3.3-4l1.9-2.3.2-.2v-.3l-2-2.8c-2.1-3-4.2-6.1-6.3-9.1-.3-.5-.6-.6-1.1-.7-1.8-.1-3.5-.2-5.3-.4-2.3-.2-4.6-.3-6.9-.5-.4-.1-.6-.2-.8-.2zm.1 39.2L10.6 17.8h26.9L24 42.9zM12.2 18.8l11.8 22 11.8-21.9H12.2zm6.6 17.9l-15.6-19h5.9c.5 0 .8.5.8.6 1.5 2.8 3.1 5.7 4.6 8.5l4.2 7.8c.1.1.2.4.2.8l-.1 1.3zM5.3 18.8l10.6 12.9-2.3-4.3c-1.5-2.8-3-5.7-4.6-8.5 0 0 0-.1-.1-.1H5.3zm24.5 17.3l-.8-.5.2-.5c0-.1.1-.2.1-.3l2.2-4.1 6.6-12.3c.2-.5.6-.7 1.1-.7h4.3l1.2.1-14.9 18.3zm9.3-17.3c-.1 0-.1 0-.2.1l-6.6 12.3-.3.5 10.6-12.9h-3.5c.1 0 0 0 0 0zM9.4 16.9H3.1L9.3 8l.7.3.1.4-.7 8.2zm-4.4-1h3.5l.5-5.7-4 5.7zm32 1H11L24 4.7l13 12.2zm-23.5-1h21L24 6.1l-10.5 9.8zm31.4 1h-6.3l-.7-8.6.7-.3.3.3 6 8.6zm-5.4-1H43l-4-5.7.5 5.7zm-1.9.3L26.1 5.5l.3-.6.4-.1 5 .3c1.4.1 2.7.2 4.1.3.7 0 1 .4 1.1 1.1.1 1.8.3 3.6.4 5.4l.2 2.2v2.1zM27.9 5.8l8.5 8-.1-1.8c-.1-1.8-.3-3.6-.4-5.4v-.1h-.1c-1.4-.1-2.7-.2-4.1-.3l-3.8-.4zm-1.2-.5zM11.2 15.5l-.6-.2-.1-.4v-.6c0-.4.1-.9.1-1.3l.2-2 .3-4.5c0-.4.2-1 1-1 1.9-.2 3.8-.4 5.7-.5l2.7-.2h2.2L11.2 15.5zm.9-9.1v.1l-.3 4.5-.2 2c0 .3 0 .5-.1.8l8.5-8-2.1.2c-1.9.1-3.8.3-5.8.4z"/></g></symbol><symbol viewBox="0 0 46 46" id="solr" xmlns="http://www.w3.org/2000/svg"><defs><path id="bka" d="M7.188 17.43a5.705 5.705 0 013.1 2.021C11.095 20.47 11.5 21.652 11.5 23c0 1.348-.404 2.53-1.213 3.549a5.705 5.705 0 01-3.1 2.021v15.992c0 .39-.142.727-.426 1.011A1.381 1.381 0 015.75 46c-.39 0-.726-.142-1.01-.427a1.381 1.381 0 01-.428-1.01V28.57c-1.227-.33-2.253-1.003-3.077-2.021C.412 25.53 0 24.348 0 23c0-1.348.412-2.53 1.235-3.549.824-1.018 1.85-1.692 3.078-2.021V1.438c0-.39.142-.727.426-1.011A1.381 1.381 0 015.75 0c.39 0 .726.142 1.01.427.285.284.428.621.428 1.01V17.43zM5.75 25.875c.809 0 1.49-.285 2.044-.854s.831-1.242.831-2.021c0-.779-.277-1.452-.831-2.021-.554-.57-1.235-.854-2.044-.854-.809 0-1.49.285-2.044.854S2.875 22.22 2.875 23c0 .779.277 1.452.831 2.021.554.57 1.235.854 2.044.854zm18.688.18a5.705 5.705 0 013.1 2.021c.808 1.018 1.212 2.201 1.212 3.549 0 1.348-.404 2.53-1.213 3.549a5.705 5.705 0 01-3.1 2.021v7.367c0 .39-.142.727-.426 1.011A1.381 1.381 0 0123 46c-.39 0-.726-.142-1.01-.427a1.381 1.381 0 01-.427-1.01v-7.368c-1.228-.33-2.254-1.003-3.078-2.021-.823-1.018-1.235-2.201-1.235-3.549 0-1.348.412-2.53 1.235-3.549.824-1.018 1.85-1.692 3.078-2.021V1.438c0-.39.142-.727.426-1.011A1.381 1.381 0 0123 0c.39 0 .726.142 1.01.427.285.284.427.621.427 1.01v24.618zM23 34.5c.809 0 1.49-.285 2.044-.854s.831-1.242.831-2.021c0-.779-.277-1.452-.831-2.021-.554-.57-1.235-.854-2.044-.854-.809 0-1.49.285-2.044.854s-.831 1.242-.831 2.021c0 .779.277 1.452.831 2.021.554.57 1.235.854 2.044.854zM41.688 8.805a5.705 5.705 0 013.1 2.021C45.595 11.844 46 13.027 46 14.375c0 1.348-.404 2.53-1.213 3.549a5.705 5.705 0 01-3.1 2.021v24.617c0 .39-.142.727-.426 1.011A1.381 1.381 0 0140.25 46c-.39 0-.726-.142-1.01-.427a1.381 1.381 0 01-.428-1.01V19.945c-1.227-.33-2.253-1.003-3.077-2.021-.823-1.018-1.235-2.201-1.235-3.549 0-1.348.412-2.53 1.235-3.549.824-1.018 1.85-1.692 3.078-2.021V1.438c0-.39.142-.727.426-1.011A1.381 1.381 0 0140.25 0c.39 0 .726.142 1.01.427.285.284.428.621.428 1.01v7.368zM40.25 17.25c.809 0 1.49-.285 2.044-.854s.831-1.242.831-2.021c0-.779-.277-1.452-.831-2.021-.554-.57-1.235-.854-2.044-.854-.809 0-1.49.285-2.044.854s-.831 1.242-.831 2.021c0 .779.277 1.452.831 2.021.554.57 1.235.854 2.044.854z"/></defs><use fill-rule="evenodd" transform="rotate(-90 23 23)" xlink:href="#bka"/></symbol><symbol viewBox="0 0 48 43" id="spa-react" xmlns="http://www.w3.org/2000/svg"><path fill="#E73F39" d="M35.928.554c2.55 1.466 3.393 5.968 2.2 11.732-.072.346-.152.698-.24 1.055.527.154 1.04.316 1.535.488 2.481.852 4.57 1.96 6.054 3.188 1.611 1.347 2.464 2.822 2.464 4.263 0 2.942-3.47 5.917-9.063 7.767-.29.096-.587.19-.89.28.107.434.202.862.284 1.28.52 2.643.606 5.099.24 7.094-.393 2.123-1.28 3.632-2.559 4.373-.639.376-1.398.563-2.242.563-2.319 0-5.26-1.398-8.33-4.041a31.865 31.865 0 01-1.295-1.18c-.334.32-.666.626-.998.916-2.029 1.773-4.118 3.069-6.028 3.742-.997.359-1.935.538-2.77.538-.87 0-1.637-.188-2.285-.563-2.447-1.415-3.3-5.49-2.268-10.905.106-.556.23-1.125.374-1.704-.449-.13-.884-.266-1.304-.41-2.549-.87-4.714-2.029-6.257-3.35C.913 24.28.043 22.754.043 21.28c0-2.83 3.103-5.601 8.313-7.409.57-.198 1.162-.385 1.776-.559a33.26 33.26 0 01-.353-1.59c-.503-2.574-.596-4.936-.272-6.837.358-2.072 1.202-3.547 2.455-4.271 2.54-1.475 6.863.042 11.263 3.956.265.235.531.481.798.737.399-.383.798-.75 1.197-1.095 1.978-1.723 3.981-2.984 5.789-3.65 1.969-.724 3.674-.724 4.919-.008zm.088 29.289l-.077.017c-1.956.448-4.118.78-6.407.984-1.325 1.92-2.674 3.631-4.019 5.1.405.39.808.757 1.207 1.1 3.845 3.308 6.897 4.024 8.219 3.257 1.373-.793 2.379-4.041 1.338-9.293-.075-.38-.162-.769-.26-1.165zm-23.928.097l-.012.051c-.13.525-.242 1.038-.336 1.537-.946 4.988-.034 7.989 1.28 8.748.323.187.75.29 1.27.29 1.696 0 4.365-1.075 7.451-3.769.303-.264.607-.543.912-.837a49.4 49.4 0 01-4.115-5.086c-2.336-.188-4.5-.501-6.45-.934zm14.811 1.08l-.326.014c-.847.034-1.706.05-2.573.05a72.46 72.46 0 01-2.8-.052 46.524 46.524 0 002.884 3.452A43.376 43.376 0 0026.9 31.02zM24 13.608c-1.465 0-2.925.057-4.356.166a57.521 57.521 0 00-2.328 3.705l-.003-.003-.324.569a57.597 57.597 0 00-1.71 3.287 57.324 57.324 0 002.046 3.862 57.36 57.36 0 002.341 3.712c1.388.088 2.836.134 4.334.134 1.499 0 2.97-.052 4.393-.154a68.186 68.186 0 002.292-3.7 61.104 61.104 0 002.06-3.881 67.912 67.912 0 00-2.069-3.843 61.546 61.546 0 00-2.31-3.69A57.3 57.3 0 0024 13.608zm-9.806 10.135l-.051.12a46.098 46.098 0 00-1.502 4.105c1.363.297 2.839.534 4.411.71a62.428 62.428 0 01-1.162-1.882l-.339-.578a60.116 60.116 0 01-1.357-2.475zm19.653-.082l-.102.194c-.407.78-.837 1.564-1.287 2.346-.484.839-.975 1.652-1.47 2.437a43.216 43.216 0 004.468-.762 43.138 43.138 0 00-1.609-4.215zm-23.166-8.378l-.206.059c-.497.144-.977.297-1.437.457-4.792 1.671-6.94 3.956-6.94 5.482 0 1.586 2.31 4.084 7.374 5.815.382.13.778.254 1.187.372a49.152 49.152 0 012.36-6.13 48.787 48.787 0 01-2.338-6.055zm26.66.025l-.018.058c-.587 1.885-1.367 3.883-2.314 5.926 1.008 2.122 1.822 4.158 2.423 6.067.275-.083.544-.167.806-.255 5.26-1.748 7.665-4.246 7.665-5.823 0-.81-.614-1.765-1.73-2.694-1.288-1.074-3.164-2.055-5.406-2.83-.46-.158-.936-.308-1.426-.449zM24.001 17a4.28 4.28 0 110 8.56A4.28 4.28 0 0124 17zm6.983-2.965l.125.193c.453.716.898 1.45 1.332 2.201.488.843.95 1.679 1.385 2.505a43.981 43.981 0 001.535-4.134 44.78 44.78 0 00-4.377-.765zm-13.966.001l-.479.062c-1.345.181-2.643.41-3.867.683a44.88 44.88 0 001.521 4.147 60.952 60.952 0 012.825-4.892zM31.708 2.49c-1.578.58-3.36 1.714-5.15 3.274-.366.319-.733.655-1.1 1.008 1.362 1.468 2.724 3.17 4.04 5.043 2.26.212 4.42.553 6.414 1.015.077-.32.148-.635.212-.944 1.117-5.431.153-8.756-1.22-9.55-.698-.4-1.832-.349-3.196.154zm-18.714-.102c-.7.4-1.22 1.415-1.467 2.848-.281 1.654-.196 3.768.264 6.096.095.482.204.974.328 1.475a49.675 49.675 0 016.399-.996 49.084 49.084 0 014.072-5.042c-.241-.23-.482-.451-.721-.664-4.144-3.683-7.503-4.51-8.875-3.717zm11.032 5.847l-.17.182a45.35 45.35 0 00-2.668 3.21 60.069 60.069 0 015.648.002 43.75 43.75 0 00-2.81-3.394z"/></symbol><symbol id="springboot" viewBox="0 0 48 48" xml:space="preserve" xmlns="http://www.w3.org/2000/svg"><style>.bmst0{fill:#e73f39}</style><path class="bmst0" d="M4.7 24.4v-.8c.2-.6.4-1.3.7-1.9 2.5-4.4 5-8.8 7.5-13.1.7-1.3 1.9-2 3.4-2h15.3c1.5 0 2.7.7 3.4 2 2.6 4.4 5.1 8.8 7.6 13.2.8 1.5.8 3 0 4.4-2.5 4.3-4.9 8.7-7.4 13-.8 1.4-2.1 2.2-3.8 2.2H16.5c-1.7 0-3-.7-3.8-2.2-2.6-5-5.8-9.6-8-14.8zM24 34.2c.7-.1 1.4-.1 2-.2 6.6-1.3 10.4-8.2 8-14.5-.7-1.9-1.9-3.5-3.5-4.7-.8-.7-1.7-.6-2.2.1-.6.7-.4 1.5.3 2.2.2.1.3.3.5.4 2 1.9 2.8 4.2 2.5 6.9-.5 4.2-4.6 7.4-8.9 6.7-5.2-.8-8.2-6.8-5.6-11.4.6-1 1.4-1.8 2.2-2.6.5-.5.6-1.1.4-1.7-.2-.6-.6-1-1.2-1-.5 0-1.1.3-1.5.6-2.9 2.6-4.3 5.8-3.8 9.7.8 5.4 5.3 9.5 10.8 9.5zm-1.7-15.6v4.7c0 1 .7 1.8 1.7 1.8.9 0 1.6-.8 1.6-1.8V14c0-1.1-.6-1.7-1.7-1.7-1 0-1.6.7-1.6 1.7v4.6z" id="bmIbbFq8.tif"/></symbol><symbol viewBox="0 0 72 72" id="star" xmlns="http://www.w3.org/2000/svg"><path d="M36 4.285l-8.22 17.072-1.475 3.021-21.92 3.232 15.878 15.877-.492 3.161-3.231 18.969L36 55.219l19.46 10.398-3.231-18.969-.492-3.161L67.614 27.61l-21.99-3.232L36 4.285zM36 0c1.03 0 1.967.258 2.81.773a4.858 4.858 0 011.897 2.107l8.15 16.932 18.757 2.74a5.16 5.16 0 012.53 1.123 5.091 5.091 0 011.615 2.319c.281.89.316 1.791.106 2.705-.211.913-.668 1.72-1.37 2.423l-13.7 13.7 3.162 19.039a4.43 4.43 0 01-.317 2.74 5.237 5.237 0 01-1.791 2.177c-.468.328-.96.562-1.475.703a5.813 5.813 0 01-2.81.07 4.707 4.707 0 01-1.265-.492L36 60.278l-16.37 8.781a3.791 3.791 0 01-1.193.492c-.422.094-.843.14-1.265.14a5.73 5.73 0 01-1.58-.21 4.82 4.82 0 01-1.44-.703 5.237 5.237 0 01-1.792-2.177 4.43 4.43 0 01-.317-2.74l3.162-19.04-13.7-13.699C.803 30.42.346 29.612.135 28.7a5.053 5.053 0 01.106-2.705 5.383 5.383 0 011.616-2.283 5.011 5.011 0 012.529-1.16l18.758-2.74 8.149-16.93A4.858 4.858 0 0133.19.772 5.283 5.283 0 0136 0z" fill-rule="nonzero" fill="#fff"/></symbol><symbol viewBox="0 0 32 32" id="talk" xmlns="http://www.w3.org/2000/svg"><path d="M20.53.596c-8-2.143-16.228 2.607-18.372 10.607l-.098.386a14.932 14.932 0 001.187 10.216l.168.322L.87 31.426l8.99-3.005.437.22c.823.4 1.634.71 2.468.933 8 2.144 16.227-2.606 18.37-10.607 2.145-8-2.606-16.227-10.606-18.37zm-.518 1.932c6.933 1.858 11.05 8.989 9.192 15.922s-8.988 11.05-15.922 9.192c-.944-.253-1.868-.642-2.848-1.182l-.384-.212-6.263 2.093 1.772-6.474-.204-.36A12.948 12.948 0 014.09 11.72C5.948 4.787 13.079.67 20.012 2.528z" fill="#fff" fill-rule="nonzero"/></symbol><symbol viewBox="0 0 36 36" id="tiempo" xmlns="http://www.w3.org/2000/svg"><defs><path id="bpa" d="M29.742 2.254h-2.255v7.574c0 1.832-.51 3.458-1.532 4.878-1.022 1.421-2.613 2.672-4.773 3.752 2.23 1.127 3.845 2.419 4.843 3.875.998 1.456 1.498 3.205 1.498 5.248 0 1.339-.006 2.548-.018 3.628-.012 1.08-.018 1.926-.018 2.537h2.255c.305 0 .57.111.792.334.223.223.335.488.335.793 0 .329-.112.599-.335.81a1.114 1.114 0 01-.792.317H7.127c-.305 0-.57-.106-.792-.317a1.067 1.067 0 01-.335-.81c0-.305.112-.57.335-.793.223-.223.487-.334.792-.334h2.325c0-.611-.006-1.456-.018-2.537-.011-1.08-.017-2.29-.017-3.628 0-2.043.493-3.792 1.48-5.248.986-1.456 2.582-2.748 4.79-3.875-2.114-1.08-3.681-2.33-4.703-3.752-1.021-1.42-1.532-3.046-1.532-4.878V2.254H7.127c-.305 0-.57-.111-.792-.334A1.083 1.083 0 016 1.127c0-.329.112-.599.335-.81C6.558.106 6.822 0 7.127 0h22.615c.305 0 .57.106.792.317.223.211.335.481.335.81 0 .305-.112.57-.335.793a1.083 1.083 0 01-.792.334zm-18.07 25.327c0 1.362.005 2.578.017 3.646.012 1.069.017 1.908.017 2.519h13.527c0-.611.006-1.456.017-2.537.012-1.08.018-2.29.018-3.628 0-1.55-.434-2.959-1.303-4.227-.87-1.268-2.713-2.489-5.53-3.663-2.819 1.174-4.65 2.395-5.496 3.663-.845 1.268-1.268 2.677-1.268 4.227zm13.56-25.327H11.707v7.574c0 1.08.376 2.278 1.128 3.593.751 1.315 2.618 2.595 5.6 3.84 3.006-1.245 4.89-2.525 5.654-3.84.763-1.315 1.145-2.513 1.145-3.593V2.254z"/></defs><use fill="#E73F39" fill-rule="evenodd" xlink:href="#bpa"/></symbol><symbol viewBox="0 0 74 69" id="tuercas" xmlns="http://www.w3.org/2000/svg"><g fill="#FFF" fill-rule="evenodd"><path d="M40.7 37.624c0 6.157-4.97 11.148-11.1 11.148s-11.1-4.991-11.1-11.148 4.97-11.148 11.1-11.148c6.128.006 11.094 4.994 11.1 11.148zm-37-3.716h5.86l.36-1.393a20.365 20.365 0 012.164-5.255l.73-1.241-4.145-4.16 5.234-5.256 4.142 4.162 1.236-.732a20.18 20.18 0 015.232-2.174l1.387-.36v-5.887h7.4v5.886l1.388.36c.785.21 1.557.466 2.312.768v5.992h4.786a14.986 14.986 0 002.053 3.562l-1.289 2.254c-4.013-7.377-13.221-10.09-20.566-6.059-7.345 4.031-10.046 13.279-6.033 20.656 4.014 7.376 13.222 10.089 20.567 6.058 6.147-3.374 9.192-10.54 7.362-17.331l7.18 4.165 2.394-4.165c.677.098 1.361.149 2.046.15v7.432h-5.86l-.36 1.394a20.369 20.369 0 01-2.164 5.254l-.73 1.241 4.145 4.16-5.234 5.256-4.142-4.161-1.236.732a20.189 20.189 0 01-5.231 2.173l-1.388.36v5.887h-7.4V57.75l-1.387-.36a20.189 20.189 0 01-5.232-2.174l-1.236-.732-4.142 4.161-5.234-5.256 4.144-4.16-.729-1.241a20.369 20.369 0 01-2.164-5.254l-.36-1.394H3.7v-7.432zm40.774-16.722l.392-1.328a11.213 11.213 0 012.575-4.46l.948-1.005-1.891-3.288 3.204-1.858 1.889 3.286 1.341-.32a10.672 10.672 0 015.136 0l1.341.32 1.889-3.286 3.204 1.858-1.89 3.288.947 1.005a11.213 11.213 0 012.575 4.46l.392 1.328H70.3v3.716h-3.774l-.392 1.329a11.215 11.215 0 01-2.575 4.459l-.948 1.005 1.891 3.289-3.204 1.858-1.889-3.287-1.341.32c-1.687.417-3.45.417-5.136 0l-1.341-.32-1.889 3.287-3.204-1.858 1.89-3.29-.947-1.004a11.215 11.215 0 01-2.575-4.46l-.392-1.328H40.7v-3.716h3.774zM8.201 48.605l-4.764 4.784L13.903 63.9l4.763-4.783a23.888 23.888 0 003.534 1.467v6.769H37v-6.769a23.877 23.877 0 003.533-1.467l4.764 4.784 10.466-10.51-4.764-4.785a24.098 24.098 0 001.461-3.549h6.74v-8.428l.74 1.3 9.62-5.573-2.405-4.17a14.98 14.98 0 002.059-3.567H74V13.47h-4.786a14.986 14.986 0 00-2.053-3.562l2.405-4.169-9.62-5.574-2.394 4.166a14.164 14.164 0 00-4.1 0L51.06.165l-9.62 5.574 2.405 4.17a14.976 14.976 0 00-2.059 3.561H37V7.896H22.2v6.769a23.914 23.914 0 00-3.534 1.468l-4.763-4.785L3.437 21.86l4.764 4.784a24.123 24.123 0 00-1.461 3.55H0v14.863h6.74c.392 1.22.88 2.407 1.461 3.549z"/><path d="M55.5 15.75a3.75 3.75 0 110 7.5 3.75 3.75 0 010-7.5m0 11.25a7.5 7.5 0 100-15 7.5 7.5 0 000 15"/></g></symbol><symbol fill="none" viewBox="0 0 24 24" id="typescript" xmlns="http://www.w3.org/2000/svg"><path fill-rule="evenodd" clip-rule="evenodd" d="M24 0H0v24h24V0zm-4.456 17.523c.282.212.423.517.423.917 0 .367-.14.654-.423.861-.283.203-.675.304-1.179.304-1.355 0-2.033-.567-2.033-1.701h-2.124c0 .663.17 1.247.508 1.75.344.504.84.901 1.49 1.193.649.287 1.369.43 2.16.43 1.138 0 2.044-.251 2.716-.755.673-.508 1.01-1.207 1.01-2.096 0-.8-.276-1.468-.826-2.004-.55-.537-1.428-.986-2.633-1.348-.654-.198-1.15-.41-1.489-.636-.334-.225-.501-.505-.501-.84 0-.357.143-.644.43-.86.287-.222.69-.332 1.207-.332.537 0 .953.131 1.25.395.296.259.444.623.444 1.094h2.118a2.93 2.93 0 00-.48-1.652c-.315-.484-.76-.858-1.334-1.122-.574-.268-1.228-.402-1.962-.402-.73 0-1.388.122-1.976.367-.584.245-1.033.586-1.349 1.023a2.48 2.48 0 00-.465 1.482c0 1.069.583 1.918 1.75 2.548.428.23 1.01.466 1.743.706.734.235 1.242.461 1.525.678zm-8.72-4.948h3.147V10.86h-8.37v1.715h3.105v8.561h2.117v-8.56z" fill="#E73F39"/></symbol><symbol viewBox="0 0 72 72" id="webby" xmlns="http://www.w3.org/2000/svg"><path d="M71.708 58.928c.234.374.327.784.28 1.228-.046.444-.21.853-.49 1.228a2.11 2.11 0 01-.983.736c-.42.164-.842.176-1.263.035L57.958 59.63l-3.859 10.733c-.14.421-.385.76-.736 1.017a2.37 2.37 0 01-1.158.456h-.21c-.421 0-.807-.105-1.158-.315a2.09 2.09 0 01-.806-.877L38.315 49.247a19.722 19.722 0 01-2.315.14 22.76 22.76 0 01-2.525-.14L21.969 70.644a2.09 2.09 0 01-.806.877c-.351.21-.737.315-1.158.315h-.14a2.446 2.446 0 01-1.228-.456 2.023 2.023 0 01-.736-1.017L14.042 59.63 2.748 62.155c-.421.14-.842.129-1.263-.035a1.966 1.966 0 01-.982-.807 2.068 2.068 0 01-.491-1.157 1.882 1.882 0 01.28-1.228l13.189-24.062a24.337 24.337 0 01-1.614-4.876 24.67 24.67 0 01-.56-5.296c0-3.414.642-6.618 1.928-9.611 1.287-2.993 3.052-5.612 5.297-7.857 2.245-2.245 4.864-4.01 7.857-5.297C29.382.643 32.586 0 36 0c3.414 0 6.618.643 9.61 1.93 2.994 1.285 5.601 3.05 7.823 5.296 2.221 2.245 3.987 4.864 5.296 7.857 1.31 2.993 1.965 6.197 1.965 9.61 0 1.778-.187 3.497-.561 5.157a28.088 28.088 0 01-1.544 4.805l13.119 24.273zM20.426 64.05l8.418-15.714a24.956 24.956 0 01-7.12-3.507 24.302 24.302 0 01-5.577-5.472L6.606 56.683l8.348-1.894a2.062 2.062 0 011.579.21c.49.281.853.679 1.087 1.193l2.806 7.857zm-4.63-39.355c0 2.76.526 5.366 1.578 7.822 1.053 2.455 2.503 4.595 4.35 6.419a21.33 21.33 0 006.419 4.35c2.432 1.075 5.05 1.613 7.857 1.613 2.76 0 5.367-.538 7.822-1.614 2.455-1.075 4.595-2.525 6.419-4.35 1.824-1.823 3.262-3.963 4.314-6.418 1.053-2.456 1.579-5.063 1.579-7.822 0-2.76-.526-5.367-1.579-7.822-1.052-2.456-2.49-4.595-4.314-6.42-1.824-1.823-3.964-3.273-6.419-4.349C41.367 5.028 38.759 4.49 36 4.49c-2.806 0-5.425.538-7.857 1.613a21.33 21.33 0 00-6.42 4.35c-1.846 1.824-3.296 3.963-4.349 6.419-1.052 2.455-1.578 5.062-1.578 7.822zm41.25 30.095l8.348 1.894-9.47-17.468a25.543 25.543 0 01-5.718 5.613 24.736 24.736 0 01-7.26 3.577l8.628 15.715 2.806-7.928A2.563 2.563 0 0155.467 55a2.062 2.062 0 011.579-.21z" fill-rule="nonzero" fill="#fff"/></symbol></svg>