<?xml version="1.0" encoding="utf-8"?><svg xmlns="http://www.w3.org/2000/svg" xmlns:xlink="http://www.w3.org/1999/xlink"><symbol fill="none" viewBox="0 0 24 24" id="Calendario" xmlns="http://www.w3.org/2000/svg"><path fill-rule="evenodd" clip-rule="evenodd" d="M16.4 1.7a.7.7 0 10-1.4 0V3H8.4V1.7a.7.7 0 10-1.4 0V3H4.7A2.7 2.7 0 002 5.7v14a2.7 2.7 0 002.7 2.7h14a2.7 2.7 0 002.7-2.7v-14A2.7 2.7 0 0018.7 3h-2.3V1.7zM20 9V5.7a1.3 1.3 0 00-1.3-1.3h-2.3v1.3a.7.7 0 11-1.4 0V4.4H8.4v1.3a.7.7 0 11-1.4 0V4.4H4.7a1.3 1.3 0 00-1.3 1.3V9H20zM3.4 10.4H20v9.3a1.3 1.3 0 01-1.3 1.3h-14a1.3 1.3 0 01-1.3-1.3v-9.3z" fill="#132631"/></symbol><symbol fill="none" viewBox="0 0 24 24" id="Corazon-slim" xmlns="http://www.w3.org/2000/svg"><path fill-rule="evenodd" clip-rule="evenodd" d="M20.81 8.571c0-3.345-2.262-4.047-4.167-4.047-1.774 0-3.774 1.916-4.393 2.655-.286.345-.881.345-1.167 0-.619-.739-2.619-2.655-4.393-2.655-1.904 0-4.166.702-4.166 4.047 0 2.179 2.202 4.203 2.226 4.227l6.917 6.666 6.904-6.654c.036-.036 2.238-2.06 2.238-4.239zm1.523 0c0 2.858-2.619 5.25-2.726 5.358l-7.416 7.142a.739.739 0 01-.524.215.738.738 0 01-.524-.215l-7.429-7.166C3.62 13.82 1 11.429 1 8.57 1 5.083 3.131 3 6.69 3c2.084 0 4.036 1.643 4.977 2.571C12.607 4.643 14.56 3 16.643 3c3.56 0 5.69 2.083 5.69 5.571z" fill="#132631"/></symbol><symbol id="D3" viewBox="0 0 48 48" xml:space="preserve" xmlns="http://www.w3.org/2000/svg"><style>.acst0{fill:#e73f39}</style><g id="ac_x38_8wGzC.tif"><path class="acst0" d="M18.3 1.5h17.1c.2 0 .3.1.5.1 3.1.4 5.9 1.7 8 4 4.8 5 5.2 12.3 1.1 17.9-.3.3-.3.6 0 .9 2.1 2.7 3 5.8 2.8 9.2-.4 6.9-6.3 12.7-13.2 12.8-5.2.1-10.4 0-15.6 0-.1 0-.3 0-.5-.1 3.8-2.5 6.8-5.6 9-9.4.1-.2.5-.3.7-.3H34c2.3 0 4-1.7 4-3.9s-1.7-3.8-4-3.8h-3.6c.6-3.4.6-6.6 0-9.9h3.7c1.2 0 2.3-.4 3-1.4 1-1.2 1.2-2.6.6-4-.7-1.5-1.9-2.2-3.4-2.3h-5.8c-.6 0-.9-.1-1.2-.7-1.1-2-2.5-3.9-4.2-5.4-1.7-1.2-3.3-2.4-4.8-3.7z"/><path class="acst0" d="M.2 46.5v-9.9c1.8 0 3.6.1 5.4-.1 6-.7 10.8-5.8 11-11.7.2-6.5-3.9-12-10.1-13.1-2.1-.4-4.3-.2-6.4-.3V1.5h5.6c.2 0 .3.1.5.1 5.4.5 10.1 2.7 13.8 6.6 6.4 6.7 8.2 14.7 5.2 23.4-2.8 8-8.7 12.7-16.9 14.5-2.7.5-5.4.4-8.1.4z"/></g></symbol><symbol viewBox="0 0 48 30" id="ERP" xmlns="http://www.w3.org/2000/svg"><path fill="#E73F39" fill-rule="evenodd" d="M4.5 12h-3c-.406 0-.758.148-1.055.445A1.442 1.442 0 000 13.5v3c0 .406.148.758.445 1.055.297.297.649.445 1.055.445h3c.406 0 .758-.148 1.055-.445.297-.297.445-.649.445-1.055v-3c0-.406-.148-.758-.445-1.055A1.442 1.442 0 004.5 12zm42 1.5H15c-.406 0-.758.148-1.055.445A1.442 1.442 0 0013.5 15c0 .406.148.758.445 1.055.297.297.649.445 1.055.445h31.5c.406 0 .758-.148 1.055-.445.297-.297.445-.649.445-1.055 0-.406-.148-.758-.445-1.055A1.442 1.442 0 0046.5 13.5zM4.5 24h-3c-.406 0-.758.148-1.055.445A1.442 1.442 0 000 25.5v3c0 .406.148.758.445 1.055.297.297.649.445 1.055.445h3c.406 0 .758-.148 1.055-.445.297-.297.445-.649.445-1.055v-3c0-.406-.148-.758-.445-1.055A1.442 1.442 0 004.5 24zm42 1.5H15c-.406 0-.758.148-1.055.445A1.442 1.442 0 0013.5 27c0 .406.148.758.445 1.055.297.297.649.445 1.055.445h31.5c.406 0 .758-.148 1.055-.445.297-.297.445-.649.445-1.055 0-.406-.148-.758-.445-1.055A1.442 1.442 0 0046.5 25.5zM4.5 0h-3C1.094 0 .742.148.445.445A1.442 1.442 0 000 1.5v3c0 .406.148.758.445 1.055C.742 5.852 1.094 6 1.5 6h3c.406 0 .758-.148 1.055-.445C5.852 5.258 6 4.906 6 4.5v-3c0-.406-.148-.758-.445-1.055A1.442 1.442 0 004.5 0zM15 4.5h31.5c.406 0 .758-.148 1.055-.445C47.852 3.758 48 3.406 48 3c0-.406-.148-.758-.445-1.055A1.442 1.442 0 0046.5 1.5H15c-.406 0-.758.148-1.055.445A1.442 1.442 0 0013.5 3c0 .406.148.758.445 1.055.297.297.649.445 1.055.445z"/></symbol><symbol viewBox="0 0 44 48" id="GraphQL" xmlns="http://www.w3.org/2000/svg"><path fill="#E73F39" d="M26.097 5.502l9.87 5.7a4.288 4.288 0 016.818.8 4.292 4.292 0 01-2.708 6.302v11.398a4.263 4.263 0 012.696 6.3 4.286 4.286 0 01-6.906.706l-9.81 5.664A4.282 4.282 0 0121.995 48a4.275 4.275 0 01-4.104-5.49L8.02 36.816a4.28 4.28 0 11-4.104-7.118L3.917 18.3a4.282 4.282 0 01-3.162-5.168c.094-.396.246-.778.448-1.132a4.285 4.285 0 016.814-.81l9.876-5.7A4.275 4.275 0 0121.995 0a4.273 4.273 0 014.102 5.502zm-1.03 1.754a1.587 1.587 0 01-.116.116l12.922 22.38c.052-.018.112-.032.164-.046V18.292a4.27 4.27 0 01-3.116-5.176c.012-.048.024-.098.038-.144l-9.892-5.716zm-6.03.118l-.12-.12-9.892 5.704a4.272 4.272 0 01-2.922 5.29c-.052.016-.102.028-.152.042v11.416l.168.046 12.922-22.38-.004.002zm4.152 1.014a4.313 4.313 0 01-2.384 0L7.885 30.766a4.339 4.339 0 011.2 2.082h25.822a4.302 4.302 0 011.206-2.088L23.19 8.388zm1.972 32.454l9.826-5.676a3.496 3.496 0 01-.076-.284H9.08l-.042.166 9.878 5.704a4.251 4.251 0 013.08-1.306 4.28 4.28 0 013.166 1.396z"/></symbol><symbol fill="none" viewBox="0 0 24 24" id="Mas" xmlns="http://www.w3.org/2000/svg"><path fill-rule="evenodd" clip-rule="evenodd" d="M12.4 2.7a.7.7 0 10-1.4 0V11H2.7a.7.7 0 100 1.4H11v8.3a.7.7 0 101.4 0v-8.3h8.3a.7.7 0 100-1.4h-8.3V2.7z" fill="#22223C"/></symbol><symbol fill="none" viewBox="0 0 24 24" id="Menos" xmlns="http://www.w3.org/2000/svg"><path fill-rule="evenodd" clip-rule="evenodd" d="M2 11.7a.7.7 0 01.7-.7h18a.7.7 0 110 1.4h-18a.7.7 0 01-.7-.7z" fill="#22223C"/></symbol><symbol fill="none" viewBox="0 0 48 48" id="Precio" xmlns="http://www.w3.org/2000/svg"><path fill-rule="evenodd" clip-rule="evenodd" d="M48 19.5V3.656c0-1-.36-1.86-1.078-2.578C46.203.36 45.344 0 44.344 0H28.172c-.531 0-1.133.04-1.805.117a2.903 2.903 0 00-1.758.867L.891 24.704c-.282.312-.5.648-.657 1.007A2.85 2.85 0 000 26.859c0 .407.078.79.234 1.149.157.36.375.68.657.96L19.03 47.11c.282.282.602.5.961.657.36.156.742.234 1.149.234.406 0 .789-.078 1.148-.234.36-.157.695-.375 1.008-.657l23.719-23.718c.5-.5.789-1.094.867-1.782.078-.687.117-1.39.117-2.109zm-3.14 1.781L21.14 45 3 26.86 26.719 3.14c.093-.062.312-.1.656-.117l.642-.022L44.344 3c.187 0 .343.063.468.188a.636.636 0 01.188.468v15.89l-.023.985c-.016.375-.055.625-.118.75zM36 6c-1.656 0-3.07.586-4.242 1.758C30.586 8.93 30 10.344 30 12c0 1.656.586 3.07 1.758 4.242C32.93 17.414 34.344 18 36 18c1.656 0 3.07-.586 4.242-1.758C41.414 15.07 42 13.656 42 12c0-1.656-.586-3.07-1.758-4.242C39.07 6.586 37.656 6 36 6zm0 9c-.813 0-1.516-.29-2.11-.867-.593-.578-.89-1.29-.89-2.133 0-.844.297-1.555.89-2.133C34.485 9.29 35.188 9 36 9c.844 0 1.555.29 2.133.867.578.578.867 1.29.867 2.133 0 .844-.29 1.555-.867 2.133-.578.578-1.29.867-2.133.867z" fill="#E73F39"/></symbol><symbol fill="none" viewBox="0 0 24 24" id="Youtube-slim" xmlns="http://www.w3.org/2000/svg"><g clip-path="url(#aiclip0)"><path fill-rule="evenodd" clip-rule="evenodd" d="M11.624 5.4h.373a147.366 147.366 0 013.34.052c.963.026 1.974.065 2.848.124.882.058 1.57.134 1.937.221a2.08 2.08 0 011.434 1.472c.307 1.708.456 3.441.445 5.177v.007a28.3 28.3 0 01-.445 5.098 2.08 2.08 0 01-1.441 1.474c-.359.095-1.047.178-1.935.243-.872.063-1.882.106-2.845.135a136.67 136.67 0 01-3.558.057h-.373a140.854 140.854 0 01-3.338-.057 68.908 68.908 0 01-2.845-.135c-.89-.065-1.58-.148-1.938-.244a2.08 2.08 0 01-1.44-1.405 28.3 28.3 0 01-.442-5.165v-.008a28.3 28.3 0 01.444-5.137 2.08 2.08 0 011.441-1.474c.36-.095 1.047-.178 1.935-.243a68.837 68.837 0 012.845-.135 136.339 136.339 0 013.558-.057zm.075 15.46h.081a116.6 116.6 0 001.03-.007c.675-.007 1.593-.022 2.566-.05a70.276 70.276 0 002.906-.139c.882-.064 1.697-.153 2.2-.288l.01-.002a3.48 3.48 0 002.438-2.55c.32-1.773.477-3.571.47-5.373a29.713 29.713 0 00-.47-5.455l-.69.124.68-.17a3.48 3.48 0 00-2.453-2.51c-.497-.121-1.307-.203-2.19-.261-.9-.06-1.93-.1-2.902-.126A150.7 150.7 0 0011.78 4h-.159a90.88 90.88 0 00-1.03.007c-.675.007-1.593.022-2.566.05a70.21 70.21 0 00-2.906.139c-.882.064-1.697.153-2.2.288l-.009.002a3.48 3.48 0 00-2.438 2.55A29.7 29.7 0 000 12.45a29.7 29.7 0 00.47 5.454.7.7 0 00.016.068 3.48 3.48 0 002.429 2.403l.004.001c.502.135 1.317.224 2.199.288.901.066 1.934.11 2.906.138a137.855 137.855 0 003.596.058h.078zM9.797 8.572a.7.7 0 00-1.046.608v6.54a.7.7 0 001.046.608l5.75-3.27a.7.7 0 000-1.216l-5.75-3.27zm3.988 3.878l-3.634 2.067v-4.134l3.634 2.067z" fill="#132631"/></g><defs><clipPath id="aiclip0"><path fill="#fff" d="M0 0h24v24H0z"/></clipPath></defs></symbol><symbol viewBox="0 0 23 24" id="angular" xmlns="http://www.w3.org/2000/svg"><path fill="#E73F39" fill-rule="evenodd" d="M9.124 12.648h4.082l-2.04-4.907-2.042 4.907zM11.165 0L.033 3.986l1.704 14.77L11.165 24l9.429-5.245 1.703-14.77L11.165 0zm6.975 18.31h-2.603l-1.404-3.503H8.208l-1.404 3.504H4.196l6.97-15.66 6.974 15.66z"/></symbol><symbol fill="none" viewBox="0 0 24 24" id="arrow" xmlns="http://www.w3.org/2000/svg"><path fill-rule="evenodd" clip-rule="evenodd" d="M5.205 8.205a.7.7 0 01.99 0L11.7 13.71l5.505-5.505a.7.7 0 01.99.99l-6 6a.7.7 0 01-.99 0l-6-6a.7.7 0 010-.99z" fill="#22223C"/></symbol><symbol viewBox="0 0 32 12" id="arrow-left" xmlns="http://www.w3.org/2000/svg"><path d="M3.438 7l3.79 3.784L6.009 12 0 6l6.009-6 1.219 1.216L3.438 5H31.5v2z" fill="#000" fill-rule="nonzero"/></symbol><symbol fill="none" viewBox="0 0 13 43" id="arrow-slim" xmlns="http://www.w3.org/2000/svg"><path fill-rule="evenodd" clip-rule="evenodd" d="M7.5 3.433l3.784 3.784L12.5 6l-6-6-6 6 1.216 1.216L5.5 3.433v39.5h2v-39.5z" fill="#132631"/></symbol><symbol viewBox="0 0 20 20" id="blog" xmlns="http://www.w3.org/2000/svg"><path d="M4.57 0C7.076 0 7.222 4.878 8 5.18c.693-.208 2.05-.445 2.77-.445 3.323 0 5.53 1.776 7.633 4.006l.01.01c.305.41.56.784.768 1.119.553.896 1.247 3.157.474 4.943-.444 1.023-1.374 1.988-2.207 2.714l.109-.065c-3.932 2.418-9.83 3.146-14.386 2.022C2.467 19.474.91 18.41.62 17.79c-.792-1.696-.695-3.337-.421-5.191.298-2.023.707-4.055 1.067-6.07C1.541 4.998 2.581 0 4.57 0zm8.575 9.439c-1.404 0-8.808 6.046-1.213 6.046 6.054 0 2.609-6.046 1.213-6.046z"/></symbol><symbol viewBox="0 0 48 48" id="calendar" xmlns="http://www.w3.org/2000/svg"><g fill="#E73F39" fill-rule="evenodd"><path d="M44.001 4.5H37.5v-3C37.5.67 36.83 0 36 0s-1.5.67-1.5 1.5v3h-9v-3a1.5 1.5 0 10-3 0v3h-9v-3a1.5 1.5 0 10-3 0v3H4a4 4 0 00-4 3.999v35.5A4 4 0 004 48h40.001A4 4 0 0048 44V8.498c0-2.21-1.79-3.999-3.999-3.999zM45 44a1 1 0 01-.999 1h-40C3.448 45 3 44.551 3 44V8.498A1 1 0 014 7.5h6.5v3a1.5 1.5 0 103 0v-3h9v3a1.5 1.5 0 103 0v-3h9v3c0 .83.67 1.5 1.5 1.5s1.5-.67 1.5-1.5v-3h6.501a1 1 0 01.999.999v35.5z"/><path d="M10.5 18h6v4.5h-6zM10.5 25.5h6V30h-6zM10.5 33h6v4.5h-6zM21 33h6v4.5h-6zM21 25.5h6V30h-6zM21 18h6v4.5h-6zM31.5 33h6v4.5h-6zM31.5 25.5h6V30h-6zM31.5 18h6v4.5h-6z"/></g></symbol><symbol viewBox="0 0 24 24" id="calendar-slim" xmlns="http://www.w3.org/2000/svg"><path fill-rule="evenodd" clip-rule="evenodd" d="M16.4 1.7a.7.7 0 10-1.4 0V3H8.4V1.7a.7.7 0 10-1.4 0V3H4.7A2.7 2.7 0 002 5.7v14a2.7 2.7 0 002.7 2.7h14a2.7 2.7 0 002.7-2.7v-14A2.7 2.7 0 0018.7 3h-2.3V1.7zM20 9V5.7a1.3 1.3 0 00-1.3-1.3h-2.3v1.3a.7.7 0 11-1.4 0V4.4H8.4v1.3a.7.7 0 11-1.4 0V4.4H4.7a1.3 1.3 0 00-1.3 1.3V9H20zM3.4 10.4H20v9.3a1.3 1.3 0 01-1.3 1.3h-14a1.3 1.3 0 01-1.3-1.3v-9.3z"/></symbol><symbol viewBox="0 0 72 72" id="cohete" xmlns="http://www.w3.org/2000/svg"><defs><path id="aqa" d="M95.518 26.65c.321 1.5.482 3.507.482 6.023 0 3.694-.428 7.763-1.285 12.207-.91 4.925-2.155 9.302-3.734 13.13-1.58 3.828-3.306 6.679-5.18 8.553-1.338 1.338-3.962 3.078-7.87 5.22a179.7 179.7 0 00-2.971 1.525c-.91 3.16-2.784 6.987-5.622 11.484-3.212 5.247-6.05 8.78-8.512 10.6a3.014 3.014 0 01-1.767.563c-.268 0-.535-.027-.803-.08-.91-.268-1.526-.857-1.847-1.767a39.879 39.879 0 01-.723-1.687c-1.606-4.23-2.837-7.227-3.694-8.994l-15.419-15.5c-1.713-.856-4.685-2.087-8.914-3.693a7.848 7.848 0 01-.924-.322 18.08 18.08 0 00-.843-.32c-.91-.322-1.499-.951-1.767-1.888-.267-.937-.107-1.78.482-2.53 1.874-2.462 5.408-5.327 10.6-8.592 4.444-2.784 8.272-4.658 11.485-5.622.535-1.017 1.044-1.98 1.525-2.891 2.142-3.855 3.882-6.451 5.22-7.79 1.5-1.499 3.587-2.918 6.264-4.256 2.624-1.231 5.622-2.329 8.995-3.293C75.334 24.91 81.626 24 87.568 24c2.409 0 4.336.187 5.782.562l1.686.402.482 1.686zM42.435 54.115c.161-.375.348-.83.563-1.365a94.53 94.53 0 00-4.739 2.73c-2.302 1.446-4.336 2.891-6.103 4.337 2.838 1.07 5.033 1.98 6.585 2.73a701.52 701.52 0 013.694-8.432zM64.52 81.741a63.231 63.231 0 002.65-4.739c-.75.375-1.151.563-1.205.563a336.615 336.615 0 01-8.512 3.694c.75 1.66 1.66 3.854 2.73 6.585 1.446-1.767 2.891-3.801 4.337-6.103zm25.698-49.148c0-.964-.027-1.874-.08-2.73-.75-.054-1.58-.08-2.49-.08-5.514 0-11.296.856-17.346 2.569-3.052.803-5.729 1.767-8.03 2.89-2.142 1.018-3.722 2.035-4.739 3.053-.91.963-2.302 3.158-4.176 6.585-1.713 3.105-3.614 6.96-5.702 11.564a478.808 478.808 0 00-4.336 10.119L53.437 76.68a409.347 409.347 0 0010.12-4.336c4.603-2.088 8.458-3.989 11.563-5.702 3.48-1.874 5.675-3.266 6.585-4.176 1.392-1.392 2.73-3.72 4.016-6.987 1.392-3.426 2.516-7.308 3.373-11.644.75-4.07 1.124-7.817 1.124-11.243zM33.762 79.25c1.928 0 3.574.683 4.94 2.048 1.364 1.365 2.047 2.985 2.047 4.858a6.72 6.72 0 01-1.405 4.176c-.937 1.232-2.129 2.088-3.574 2.57l-9.958 2.972a.894.894 0 01-.402.08c-.374 0-.696-.134-.963-.402a1.314 1.314 0 01-.402-.963c0-.161.027-.295.08-.402l2.972-10.038a7.168 7.168 0 012.53-3.534c1.204-.91 2.583-1.365 4.135-1.365zm31.4-29.553c0-1.445.495-2.663 1.486-3.654.99-.99 2.208-1.485 3.654-1.485 1.445 0 2.663.495 3.654 1.485.99.99 1.485 2.209 1.485 3.654 0 1.446-.495 2.664-1.485 3.654-.99.99-2.209 1.486-3.654 1.486-1.446 0-2.664-.495-3.654-1.486-.99-.99-1.486-2.208-1.486-3.654z"/></defs><use fill="#FFF" fill-rule="evenodd" transform="translate(-24 -24)" xlink:href="#aqa"/></symbol><symbol viewBox="0 0 48 48" id="dialogflow" xmlns="http://www.w3.org/2000/svg"><defs><path id="ara" d="M2.885 39.577l-.116-.115v-.231C.923 36.538 0 33.577 0 30.346c0-4.923 1.885-9 5.654-12.23-.308 1.692-.462 3-.462 3.922 0 5.308 1.962 9.866 5.885 13.674 3.923 3.807 8.654 5.711 14.192 5.711 1.77 0 3.462-.23 5.077-.692-3.461 4.077-7.884 6.115-13.27 6.115-2.076 0-4.307-.461-6.691-1.384h-.116a2.048 2.048 0 00-.923-.231c-.23 0-.577.077-1.038.23L1.846 48l1.385-7.27c0-.384-.116-.768-.346-1.153zM27.923 0c5.539 0 10.27 1.904 14.192 5.712C46.038 9.519 48 14.077 48 19.385c0 3.615-1.077 7.077-3.23 10.384l-.116.116c-.077.077-.116.153-.116.23-.23.462-.346.923-.346 1.385l1.962 8.538-7.962-3c-.461-.153-.846-.23-1.154-.23-.23 0-.576.077-1.038.23l-.23.116c-.616.23-1.54.5-2.77.808a18.391 18.391 0 01-5.077.692c-5.538 0-10.25-1.885-14.135-5.654-3.884-3.77-5.826-8.308-5.826-13.615 0-1.385.115-2.731.346-4.039.923-4.384 3.23-8.038 6.923-10.961C18.923 1.462 23.154 0 27.923 0z"/></defs><use fill="#E73F39" fill-rule="evenodd" xlink:href="#ara"/></symbol><symbol viewBox="0 0 32 32" id="download" xmlns="http://www.w3.org/2000/svg"><path d="M31 22a1 1 0 00-1 1v7H2v-7a1 1 0 00-2 0v8a1 1 0 001 1h30a1 1 0 001-1v-8a1 1 0 00-1-1z"/><path d="M15.27 23.707c.389.385 1.04.389 1.429 0l6.999-6.9a.993.993 0 000-1.414 1.016 1.016 0 00-1.428 0l-5.275 5.2V1c0-.552-.452-1-1.01-1s-1.01.448-1.01 1v19.593l-5.275-5.2a1.016 1.016 0 00-1.428 0 .992.992 0 000 1.414l6.998 6.9z"/></symbol><symbol viewBox="0 0 48 48" id="drupal" xmlns="http://www.w3.org/2000/svg"><defs><path id="ata" d="M34.554 8.926c-2.458-1.528-4.782-2.128-7.1-3.656-1.438-.97-3.432-3.282-5.106-5.27-.322 3.191-1.297 4.489-2.412 5.414-2.363 1.846-3.849 2.4-5.893 3.512C12.327 9.806 3 15.352 3 27.286 3 39.215 13.07 48 24.25 48c11.186 0 20.884-8.092 20.884-20.346 0-12.255-9.095-17.804-10.58-18.728m.19 34.41c-.234.229-2.368 1.71-4.873 1.942-2.506.23-5.895.369-7.935-1.48-.324-.326-.234-.784 0-.968.232-.189.417-.328.697-.328.28 0 .23 0 .371.094.928.74 2.32 1.339 5.287 1.339 2.971 0 5.061-.828 5.988-1.525.417-.323.603-.045.651.14.044.183.138.462-.187.785m-8.042-3.892c.51-.464 1.348-1.204 2.138-1.527.788-.324 1.202-.278 1.946-.278.742 0 1.534.047 2.089.42.555.37.882 1.2 1.063 1.658.188.466 0 .742-.367.929-.323.183-.37.09-.696-.509-.322-.6-.602-1.204-2.227-1.204-1.623 0-2.135.557-2.923 1.204-.789.646-1.068.878-1.347.509-.278-.369-.185-.741.324-1.202m16.749-8.815c0 1.433-.463 4.02-1.58 5.64-1.11 1.62-1.805 2.222-3.11 2.128-1.671-.141-5.01-5.32-7.144-5.413-2.687-.091-8.536 5.6-13.132 5.6-2.785 0-3.617-.416-4.545-1.02-1.394-.971-2.09-2.45-2.045-4.486.05-3.609 3.433-6.98 7.705-7.025 5.425-.049 9.189 5.36 11.923 5.316 2.322-.044 6.779-4.58 8.959-4.58 2.319 0 2.969 2.401 2.969 3.84"/></defs><use fill="#E73F39" fill-rule="evenodd" xlink:href="#ata"/></symbol><symbol viewBox="0 0 74 74" id="encounter-game" xmlns="http://www.w3.org/2000/svg"><defs><path id="aua" d="M32.226 62.065a3.585 3.585 0 013.576 3.39l.005.19v7.161c0 .619-.47 1.127-1.072 1.188l-.122.006H20.29c-.619 0-1.126-.47-1.187-1.072l-.006-.122v-7.161a3.585 3.585 0 013.39-3.575l.19-.005h9.549zm38.194 0a3.585 3.585 0 013.576 3.39l.005.19v7.161c0 .619-.47 1.127-1.072 1.188l-.122.006H58.484c-.619 0-1.126-.47-1.187-1.072l-.006-.122v-7.161a3.585 3.585 0 013.39-3.575l.19-.005h9.549zm-19.097 0a3.585 3.585 0 013.576 3.39l.005.19v7.161c0 .619-.47 1.127-1.072 1.188L53.71 74H39.387c-.619 0-1.126-.47-1.187-1.072l-.006-.122v-7.161a3.585 3.585 0 013.39-3.575l.19-.005h9.549zm-38.194 0a3.585 3.585 0 013.576 3.39l.005.19v7.161c0 .619-.47 1.127-1.072 1.188l-.122.006H1.193c-.619 0-1.126-.47-1.187-1.072L0 72.806v-7.161a3.585 3.585 0 013.39-3.575l.19-.005h9.549zm0 2.387H3.581c-.618 0-1.127.47-1.188 1.071l-.006.122v5.968h1.194v-4.774h2.387v4.774h4.774v-4.774h2.387v4.774h1.194v-5.968c0-.659-.535-1.193-1.194-1.193zm19.097 0h-9.548c-.618 0-1.127.47-1.188 1.071l-.006.122v5.968h1.194v-4.774h2.387v4.774h4.774v-4.774h2.387v4.774h1.194v-5.968c0-.659-.535-1.193-1.194-1.193zm38.194 0h-9.548c-.618 0-1.127.47-1.188 1.071l-.006.122v5.968h1.194v-4.774h2.387v4.774h4.774v-4.774h2.387v4.774h1.194v-5.968c0-.659-.535-1.193-1.194-1.193zm-19.097 0h-9.548c-.618 0-1.127.47-1.188 1.071l-.006.122v5.968h1.194v-4.774h2.387v4.774h4.774v-4.774h2.387v4.774h1.194v-5.968c0-.659-.535-1.193-1.194-1.193zM8.355 50.129a4.78 4.78 0 014.77 4.562l.004.212v2.387a4.78 4.78 0 01-4.774 4.775 4.78 4.78 0 01-4.77-4.563l-.004-.212v-2.387a4.779 4.779 0 014.774-4.774zm19.097 0a4.78 4.78 0 014.77 4.562l.004.212v2.387a4.78 4.78 0 01-4.774 4.775 4.78 4.78 0 01-4.77-4.563l-.004-.212v-2.387a4.779 4.779 0 014.774-4.774zm38.194 0a4.78 4.78 0 014.77 4.562l.004.212v2.387a4.78 4.78 0 01-4.774 4.775 4.78 4.78 0 01-4.77-4.563l-.004-.212v-2.387a4.779 4.779 0 014.774-4.774zm-19.097 0a4.78 4.78 0 014.77 4.562l.004.212v2.387a4.78 4.78 0 01-4.774 4.775 4.78 4.78 0 01-4.77-4.563l-.004-.212v-2.387a4.779 4.779 0 014.774-4.774zM8.355 52.516a2.39 2.39 0 00-2.382 2.224l-.005.163v2.387a2.39 2.39 0 002.387 2.387 2.39 2.39 0 002.382-2.224l.005-.163v-2.387a2.39 2.39 0 00-2.387-2.387zm19.097 0a2.39 2.39 0 00-2.382 2.224l-.005.163v2.387a2.39 2.39 0 002.387 2.387 2.39 2.39 0 002.382-2.224l.005-.163v-2.387a2.39 2.39 0 00-2.387-2.387zm38.194 0a2.39 2.39 0 00-2.382 2.224l-.005.163v2.387a2.39 2.39 0 002.387 2.387 2.39 2.39 0 002.382-2.224l.005-.163v-2.387a2.39 2.39 0 00-2.387-2.387zm-19.097 0a2.39 2.39 0 00-2.382 2.224l-.005.163v2.387a2.39 2.39 0 002.387 2.387 2.39 2.39 0 002.382-2.224l.005-.163v-2.387a2.39 2.39 0 00-2.387-2.387zm-9.548-16.71c1.486 0 2.752.917 3.292 2.21l.069.178h15.736c.618 0 1.126.468 1.187 1.07l.006.123v3.58h8.355c.619 0 1.126.47 1.187 1.072l.006.122v3.58h-2.387v-2.386h-16.71v2.387h-2.387V44.16c0-.619.47-1.126 1.072-1.187l.122-.006h8.355V40.58H40.362c-.494 1.385-1.807 2.387-3.361 2.387a3.573 3.573 0 01-3.292-2.209l-.07-.178H19.099v2.387h8.354c.62 0 1.127.468 1.188 1.07l.006.123v3.58h-2.387v-2.386H9.549v2.387H7.162V44.16c0-.619.469-1.126 1.071-1.187l.122-.006h8.355v-3.581c0-.619.469-1.126 1.071-1.187l.123-.006H33.64c.494-1.386 1.807-2.388 3.36-2.388zm0 2.388a1.193 1.193 0 100 2.387 1.193 1.193 0 000-2.387zM38.194 0v2.387h1.194c.618 0 1.126.47 1.187 1.072l.006.122v3.58h2.812a10.69 10.69 0 016.737-2.387c5.923 0 10.742 4.82 10.742 10.742 0 1.609-.364 3.132-1 4.503l-.165.339.938 5.632c.15.908.227 1.832.227 2.746 0 3.939-3.132 7.07-6.982 7.07a6.987 6.987 0 01-6.266-3.904l-.113-.241-3.156-7.101c-.222-.142-.44-.29-.65-.447l-.312-.241H30.61c-.204.165-.416.32-.633.47l-.329.218-3.156 7.101a6.988 6.988 0 01-6.38 4.145 6.989 6.989 0 01-6.981-6.981c0-.836.053-1.617.158-2.38l.07-.455.938-5.633a10.652 10.652 0 01-1.166-4.841c0-5.922 4.818-10.742 10.742-10.742 2.429 0 4.668.815 6.47 2.178l.266.209h2.812v-3.58c0-.618.469-1.127 1.071-1.188l.123-.006h1.193V0h2.387zm19.547 23.087a10.707 10.707 0 01-7.611 3.171c-.733 0-1.445-.082-2.137-.226l-.413-.093 2.112 4.752a4.598 4.598 0 004.199 2.728 4.6 4.6 0 004.594-4.594c0-.698-.042-1.346-.125-1.975l-.07-.469-.549-3.294zm-41.48.001l-.55 3.294a14.455 14.455 0 00-.194 2.354c0 2.622 2.06 4.683 4.594 4.683a4.597 4.597 0 004.1-2.524l.097-.204 2.112-4.752c-.82.201-1.669.319-2.549.319a10.71 10.71 0 01-7.61-3.17zM50.128 7.161c-4.606 0-8.355 3.748-8.355 8.355s3.75 8.355 8.355 8.355 8.355-3.748 8.355-8.355-3.749-8.355-8.355-8.355zm-26.258 0c-4.606 0-8.355 3.748-8.355 8.355s3.75 8.355 8.355 8.355 8.355-3.748 8.355-8.355-3.749-8.355-8.355-8.355zm27.452 11.936v2.387h-2.387v-2.387h2.387zM25.065 9.548v4.775h4.774v2.387h-4.774v4.774h-2.387V16.71h-4.774v-2.387h4.774V9.548h2.387zm16.14 0h-8.408a10.68 10.68 0 011.816 5.968c0 2.077-.594 4.018-1.62 5.663l-.196.305h8.407c-1.146-1.708-1.817-3.761-1.817-5.968s.671-4.26 1.817-5.968zm5.344 4.775v2.387h-2.387v-2.387h2.387zm9.548 0v2.387H53.71v-2.387h2.387zm-4.774-4.775v2.387h-2.387V9.548h2.387zM38.194 4.774h-2.387v2.387h2.387V4.774z"/></defs><use fill="#E73F39" xlink:href="#aua" fill-rule="evenodd"/></symbol><symbol viewBox="0 0 70 70" id="encounter-meal" xmlns="http://www.w3.org/2000/svg"><defs><path id="ava" d="M44.585 0a1.365 1.365 0 011.377 1.445c-.01.176-.28 4.224-3.051 7.202 5.297 1.356 8.463 5.647 8.463 11.821 0 5.36-2.291 11.288-5.808 14.755l-.266.255h15.678a4.09 4.09 0 013.918 2.907l.054.193.006.027 2.005 8.766a4.1 4.1 0 012.965 3.73l.005.205v2.73a4.098 4.098 0 01-2.781 3.876l-.188.058-2.006 8.766-.007.027a4.09 4.09 0 01-3.771 3.097l-.2.004H9.021a4.089 4.089 0 01-3.918-2.907l-.054-.194-.006-.027-2.006-8.766a4.1 4.1 0 01-2.964-3.728l-.005-.207v-2.729A4.098 4.098 0 012.85 47.43l.188-.059 2.006-8.766.006-.027a4.09 4.09 0 013.772-3.095l.2-.005H24.7c-3.667-3.425-6.073-9.516-6.073-15.01 0-7.848 5.024-12.28 12.28-12.28.882 0 1.75.111 2.596.332a6.608 6.608 0 00-4.392-4.95 1.364 1.364 0 11.863-2.59 9.335 9.335 0 015.238 4.363c.433-.775.98-1.543 1.67-2.233C39.905.086 44.398.003 44.587 0zm19.54 58.129H5.873L7.7 66.112c.145.559.623.962 1.19 1.016l.131.007h51.956c.58 0 1.088-.363 1.283-.897l.04-.126 1.825-7.983zm-39.206-8.187H4.162c-.708 0-1.292.542-1.358 1.233l-.006.13v2.73c0 .708.542 1.292 1.233 1.358l.131.007h61.676c.708 0 1.292-.542 1.358-1.234l.006-.131v-2.73c0-.751-.61-1.362-1.362-1.363H45.081l-.599 1.796c-.172.514-.63.874-1.16.926l-.135.007H26.813c-.542 0-1.028-.32-1.246-.808l-.048-.125-.6-1.796zm36.058-11.735H9.021c-.579 0-1.087.362-1.282.896l-.04.126-1.826 7.983h20.029c.542 0 1.028.32 1.245.807l.049.126.599 1.797h14.408l.599-1.797a1.364 1.364 0 011.16-.927l.134-.006h20.029l-1.827-7.983a1.364 1.364 0 00-1.322-1.022zm-34.165 3.138a1.365 1.365 0 11-.001 2.73 1.365 1.365 0 01.001-2.73zm16.374 0a1.365 1.365 0 01.131 2.723l-.131.006H32.27a1.364 1.364 0 01-.131-2.723l.131-.006h10.916zm-12.28-30.43c-2.872 0-9.552.932-9.552 9.553 0 6.656 4.28 14.768 9.325 15.005l.227.005h8.187c5.144 0 9.552-8.254 9.552-15.01 0-8.435-6.455-9.487-9.234-9.548-1.354-.026-2.536.204-3.795.841a1.4 1.4 0 01-1.345-.054 7.627 7.627 0 00-3.365-.791zm8.187 2.73c2.62 0 4.52.787 5.647 2.34 1.054 1.45 1.175 3.254 1.175 4.483a1.364 1.364 0 11-2.729 0c0-2.593-.67-4.094-4.093-4.094a1.365 1.365 0 010-2.73zm3.841-10.69c-1.225.267-2.881.842-4.123 2.084-1.013 1.012-1.62 2.303-1.979 3.403a10.327 10.327 0 011.802-.245l.459-.01h.01A7.436 7.436 0 0040.74 6.97c1.25-1.25 1.88-2.834 2.194-4.013z"/></defs><use fill="#E73F39" xlink:href="#ava" fill-rule="evenodd"/></symbol><symbol viewBox="0 0 92 69" id="encounter-star" xmlns="http://www.w3.org/2000/svg"><defs><path id="awa" d="M24.188 64.824c.701 0 1.277.54 1.343 1.23l.006.132v1.452c0 .752-.604 1.362-1.349 1.362-.701 0-1.277-.54-1.342-1.23l-.007-.132v-1.452c0-.753.604-1.362 1.35-1.362zm4.856-3.269c.745 0 1.348.61 1.348 1.362 0 .708-.534 1.29-1.218 1.356l-.13.006h-1.44c-.744 0-1.348-.61-1.348-1.362 0-.708.535-1.29 1.219-1.356l.13-.006h1.439zm-8.093-.181c.745 0 1.349.609 1.349 1.361 0 .709-.535 1.29-1.22 1.356l-.13.006h-1.438a1.355 1.355 0 01-1.349-1.362c0-.708.535-1.289 1.22-1.355l.13-.006h1.438zm3.417-4.721c.701 0 1.277.54 1.342 1.23l.007.132v1.452c0 .752-.604 1.362-1.35 1.362-.7 0-1.276-.54-1.342-1.23l-.006-.132v-1.452c0-.753.604-1.362 1.349-1.362zM62.673 1.18c1.706 0 3.16 1.017 3.76 2.608l.07.202 4.768 14.815c.165.512.61.87 1.133.921l.132.007h15.428c1.777 0 3.28 1.103 3.83 2.81.528 1.639.02 3.35-1.295 4.416l-.168.13-12.481 9.156c-.432.317-.63.856-.518 1.373l.035.13 4.767 14.813c.55 1.707-.025 3.492-1.463 4.547-1.378 1.011-3.143 1.053-4.553.126l-.182-.126-12.481-9.156a1.316 1.316 0 00-1.444-.079l-.12.08-12.48 9.155c-.72.528-1.544.792-2.368.792s-1.649-.264-2.368-.792a4.022 4.022 0 01-1.523-4.342l.06-.205.144-.448H1.348c-.744 0-1.348-.61-1.348-1.362 0-.708.535-1.29 1.219-1.356l.13-.006h42.884l2.046-6.355H18.535c-.745 0-1.349-.61-1.349-1.362 0-.708.535-1.29 1.219-1.356l.13-.006h28.62l.826-2.563a1.348 1.348 0 00-.38-1.418l-.104-.084-3.122-2.29H1.35c-.745 0-1.349-.61-1.349-1.362 0-.708.535-1.29 1.22-1.356l.13-.006h39.312l-5.646-4.142a4.042 4.042 0 01-1.464-1.999l-.064-.214H1.35c-.745 0-1.35-.61-1.35-1.362 0-.708.536-1.29 1.22-1.356l.13-.006h32.353a3.951 3.951 0 013.469-2.414l.212-.005h7.514c.745 0 1.349.609 1.349 1.362 0 .708-.535 1.289-1.219 1.355l-.13.006h-7.514c-.897 0-1.195.71-1.265.928-.066.205-.222.883.364 1.406l.119.096 12.481 9.156a4.077 4.077 0 011.525 4.336l-.062.211-4.767 14.814c-.277.862.3 1.367.483 1.502.173.127.763.486 1.437.084l.127-.084 12.48-9.156a3.984 3.984 0 014.548-.13l.188.13 12.48 9.156c.726.532 1.38.135 1.564 0 .172-.127.69-.58.526-1.345l-.042-.157-4.768-14.814a4.08 4.08 0 011.29-4.413l.173-.134 12.481-9.156c.726-.532.553-1.284.484-1.502-.066-.203-.333-.841-1.104-.92l-.161-.008H72.537a4.018 4.018 0 01-3.762-2.611l-.07-.199L63.94 4.832c-.278-.861-1.039-.928-1.266-.928-.212 0-.895.059-1.207.776l-.058.152-4.767 14.814a4.023 4.023 0 01-3.622 2.805l-.209.005h-2.518a1.355 1.355 0 01-1.349-1.361c0-.709.535-1.29 1.22-1.356l.129-.006h2.518c.534 0 1.008-.318 1.218-.803l.047-.125.968-3.008H1.35A1.355 1.355 0 010 14.436c0-.709.535-1.29 1.22-1.356l.13-.006h54.57l2.923-9.083c.55-1.708 2.053-2.811 3.83-2.811zM13.139 40.311c.745 0 1.349.609 1.349 1.361 0 .709-.535 1.29-1.22 1.356l-.13.006H1.349A1.355 1.355 0 010 41.672c0-.708.535-1.289 1.219-1.355l.13-.006h11.79zm57.227-3.139a1.37 1.37 0 01-.178 1.917c-2.458 2.058-4.986 3.086-7.515 3.086s-5.056-1.028-7.514-3.086a1.37 1.37 0 01-.178-1.917 1.34 1.34 0 011.9-.18c3.952 3.308 7.633 3.308 11.585 0a1.34 1.34 0 011.9.18zM55.93 25.421c.847 0 1.542.657 1.613 1.493l.006.141v3.632c0 .903-.725 1.634-1.62 1.634a1.624 1.624 0 01-1.612-1.493l-.006-.14v-3.633c0-.902.725-1.634 1.619-1.634zm13.308 0c.847 0 1.542.657 1.613 1.493l.006.141v3.632c0 .903-.725 1.634-1.62 1.634a1.624 1.624 0 01-1.612-1.493l-.006-.14v-3.633c0-.902.725-1.634 1.619-1.634zm9.441-17.25c.702 0 1.278.54 1.343 1.23l.006.132v1.453c0 .752-.604 1.361-1.349 1.361-.7 0-1.277-.54-1.342-1.23l-.006-.131V9.533c0-.752.603-1.362 1.348-1.362zm4.856-3.268c.745 0 1.349.609 1.349 1.362 0 .708-.535 1.289-1.219 1.355l-.13.006h-1.439a1.355 1.355 0 01-1.348-1.361c0-.709.534-1.29 1.218-1.356l.13-.006h1.44zm-8.093-.182c.746 0 1.349.61 1.349 1.362 0 .708-.535 1.29-1.219 1.356l-.13.006h-1.439c-.744 0-1.348-.61-1.348-1.362 0-.708.535-1.29 1.219-1.356l.13-.006h1.438zM78.86 0c.701 0 1.278.54 1.343 1.23l.006.132v1.452c0 .753-.604 1.362-1.349 1.362-.7 0-1.277-.54-1.342-1.23l-.006-.132V1.362C77.51.61 78.114 0 78.859 0z"/></defs><use fill="#E73F39" xlink:href="#awa" fill-rule="evenodd"/></symbol><symbol id="express" viewBox="0 0 24 24" xml:space="preserve" xmlns="http://www.w3.org/2000/svg"><style>.axst0{fill:#e73f39}</style><path class="axst0" d="M23.3 9.4h-2c-.2-.8-.5-1.5-.9-2.2l1.4-1.4c.3-.3.3-.7 0-1l-2.7-2.7c-.3-.3-.7-.3-1 0l-1.4 1.4c-.7-.4-1.4-.7-2.2-.9v-2c0-.4-.3-.7-.7-.7H10c-.3.1-.6.4-.6.8v2c-.7.2-1.5.5-2.2.9L5.8 2.2c-.3-.3-.7-.3-1 0L2.2 4.8c-.3.3-.3.7 0 1l1.4 1.4c-.4.7-.7 1.5-.9 2.2h-2c-.4 0-.7.3-.7.7v3.8c0 .4.3.7.7.7h2c.2.8.5 1.5.9 2.2l-1.4 1.4c-.3.3-.3.7 0 1l2.7 2.7c.3.3.7.3 1 0l1.4-1.4c.7.4 1.4.7 2.2.9v2c0 .4.3.7.7.7H14c.4 0 .7-.3.7-.7v-2c.8-.2 1.5-.5 2.2-.9l1.4 1.4c.3.3.7.3 1 0l2.7-2.7c.3-.3.3-.7 0-1l-1.4-1.4c.4-.7.7-1.4.9-2.2h2c.4 0 .7-.3.7-.7v-3.8c-.2-.4-.5-.7-.9-.7zm-11.3 8c-3 0-5.4-2.4-5.4-5.4S9 6.6 12 6.6 17.4 9 17.4 12 15 17.4 12 17.4z"/></symbol><symbol fill="none" viewBox="0 0 24 24" id="facebook-slim" xmlns="http://www.w3.org/2000/svg"><path fill-rule="evenodd" clip-rule="evenodd" d="M10.97 2.97A5.7 5.7 0 0115 1.3h3a.7.7 0 01.7.7v4a.7.7 0 01-.7.7h-3a.3.3 0 00-.3.3v2.3H18a.7.7 0 01.68.87l-1 4a.7.7 0 01-.68.53h-2.3V22a.7.7 0 01-.7.7h-4a.7.7 0 01-.7-.7v-7.3H7a.7.7 0 01-.7-.7v-4a.7.7 0 01.7-.7h2.3V7a5.7 5.7 0 011.67-4.03zM15 2.7A4.3 4.3 0 0010.7 7v3a.7.7 0 01-.7.7H7.7v2.6H10a.7.7 0 01.7.7v7.3h2.6V14a.7.7 0 01.7-.7h2.453l.65-2.6H14a.7.7 0 01-.7-.7V7A1.7 1.7 0 0115 5.3h2.3V2.7H15z" fill="#132631"/></symbol><symbol viewBox="0 0 43 12" id="flecha-right" xmlns="http://www.w3.org/2000/svg"><path fill-rule="evenodd" d="M36.99 0L43 6l-6.01 6-1.218-1.216L39.561 7H0V5h39.562l-3.79-3.784L36.991 0zm3.072 5.5v1l.501-.5-.501-.5z"/></symbol><symbol fill="none" viewBox="0 0 43 12" id="flecha-volver" xmlns="http://www.w3.org/2000/svg"><g clip-path="url(#baclip0)"><path fill-rule="evenodd" clip-rule="evenodd" d="M6.01 12L0 6l6.01-6 1.218 1.216L3.439 5H43v2H3.438l3.79 3.784L6.009 12zM2.937 6.5v-1l-.501.5.501.5z" fill="#000"/></g><defs><clipPath id="baclip0"><path fill="#fff" transform="rotate(-180 21.5 6)" d="M0 0h43v12H0z"/></clipPath></defs></symbol><symbol viewBox="0 0 48 48" id="gigapixel" xmlns="http://www.w3.org/2000/svg"><defs><path id="bba" d="M0 0h10.667v10.667H0V0zm10.667 18.667v10.666H0V18.667h10.667zm18.666 0v10.666H18.667V18.667h10.666zm18.667 0v10.666H37.333V18.667H48zM29.333 0v10.667H18.667V0h10.666zM48 0v10.667H37.333V0H48zM10.667 37.333V48H0V37.333h10.667zm18.666 0V48H18.667V37.333h10.666zm18.667 0V48H37.333V37.333H48z"/></defs><use fill="#E73F39" fill-rule="evenodd" xlink:href="#bba"/></symbol><symbol viewBox="0 0 72 62" id="heart" xmlns="http://www.w3.org/2000/svg"><path d="M52.79 0C45.76 0 39.17 5.56 36 8.7 32.83 5.56 26.24 0 19.21 0 7.19 0 0 7.05 0 18.86c0 9.67 8.84 17.76 9.16 18.05l25.07 24.25c.48.48 1.12.73 1.77.73.65 0 1.29-.24 1.77-.73L62.8 36.98c.36-.36 9.2-8.46 9.2-18.13C72 7.05 64.81 0 52.79 0zm6.76 32.95L36.19 55.5l-23.4-22.59c-.08-.08-7.53-6.94-7.53-14.32 0-11.34 7.65-13.72 14.1-13.72 6 0 12.77 6.49 14.86 9 .97 1.17 2.98 1.17 3.95 0 2.09-2.5 8.86-9 14.86-9 6.45 0 14.1 2.38 14.1 13.72-.01 7.38-7.46 14.24-7.58 14.36z" fill="#FFF" fill-rule="evenodd"/></symbol><symbol viewBox="0 0 48 48" id="html" xmlns="http://www.w3.org/2000/svg"><defs><path id="bda" d="M42.751 23.718l-7.2-7.2a2.182 2.182 0 113.099-3.054l8.726 8.727a2.182 2.182 0 010 3.055l-8.726 8.727a2.182 2.182 0 01-3.098-3.055l7.2-7.2zm-37.502 0l7.2 7.2a2.182 2.182 0 01-3.099 3.055L.624 25.246a2.182 2.182 0 010-3.055l8.726-8.727a2.182 2.182 0 013.098 3.054l-7.2 7.2zm16.493 17.979a2.182 2.182 0 01-4.232-1.048L26.236 5.74a2.182 2.182 0 114.233 1.048l-8.727 34.909z"/></defs><g fill="none" fill-rule="evenodd"><path d="M0 0h48v48H0z"/><use fill="#E73F39" fill-rule="nonzero" xlink:href="#bda"/></g></symbol><symbol viewBox="0 0 28 30" id="idea" xmlns="http://www.w3.org/2000/svg"><g fill="#fff" fill-rule="nonzero"><path d="M14 6a8.36 8.36 0 00-8 8 8.4 8.4 0 002.29 5.7A4.56 4.56 0 0110 23a1 1 0 001 1h6a1 1 0 001-1 4.46 4.46 0 011.69-3.28A7.87 7.87 0 0022 14a8.17 8.17 0 00-2.44-5.83A7.67 7.67 0 0014 6zm4.34 12.28A6.87 6.87 0 0016.09 22h-4.18a7 7 0 00-2.2-3.71A6.41 6.41 0 018 14a6.29 6.29 0 016-6 5.63 5.63 0 014.13 1.6A6.16 6.16 0 0120 14a5.93 5.93 0 01-1.69 4.28h.03zM17 25h-6a1 1 0 000 2h6a1 1 0 000-2zM16 28h-4a1 1 0 000 2h4a1 1 0 000-2zM14 4a1 1 0 001-1V1a1 1 0 00-2 0v2a1 1 0 001 1zM3 13H1a1 1 0 000 2h2a1 1 0 000-2zM27 13h-2a1 1 0 000 2h2a1 1 0 000-2zM23.9 4.1a1 1 0 00-1.41 0l-1.42 1.41a1 1 0 00.71 1.71 1 1 0 00.71-.29l1.41-1.42a1 1 0 000-1.41zM6.93 6.93a1 1 0 000-1.42L5.51 4.1A1 1 0 004.1 5.51l1.41 1.42a1 1 0 00.71.29 1 1 0 00.71-.29z"/></g></symbol><symbol viewBox="0 0 24 24" id="idoma-slim" xmlns="http://www.w3.org/2000/svg"><path fill-rule="evenodd" clip-rule="evenodd" d="M4.7 3.4a1.3 1.3 0 00-1.3 1.3v14.31l2.805-2.805A.7.7 0 016.7 16h12a1.3 1.3 0 001.3-1.3v-10a1.3 1.3 0 00-1.3-1.3h-14zm-1.91-.61A2.7 2.7 0 014.7 2h14a2.7 2.7 0 012.7 2.7v10a2.7 2.7 0 01-2.7 2.7H6.99l-3.795 3.795A.7.7 0 012 20.7v-16a2.7 2.7 0 01.79-1.91z"/></symbol><symbol fill="none" viewBox="0 0 24 24" id="instagram-slim" xmlns="http://www.w3.org/2000/svg"><path fill-rule="evenodd" clip-rule="evenodd" d="M7.267 2.837a4.3 4.3 0 00-4.3 4.3v10a4.3 4.3 0 004.3 4.3h10a4.3 4.3 0 004.3-4.3v-10a4.3 4.3 0 00-4.3-4.3h-10zm-5.7 4.3a5.7 5.7 0 015.7-5.7h10a5.7 5.7 0 015.7 5.7v10a5.7 5.7 0 01-5.7 5.7h-10a5.7 5.7 0 01-5.7-5.7v-10zm11.228 1.692a3.3 3.3 0 10-.969 6.529 3.3 3.3 0 00.969-6.529zm-2.65-.907a4.7 4.7 0 114.33 8.344 4.7 4.7 0 01-4.33-8.344zm7.622-1.985a.7.7 0 100 1.4h.01a.7.7 0 100-1.4h-.01z" fill="#132631"/></symbol><symbol viewBox="0 0 20 20" id="link" xmlns="http://www.w3.org/2000/svg"><defs><path id="bha" d="M5.781 14.297a.556.556 0 01-.195-.43c0-.17.065-.319.195-.449l7.559-7.617c.13-.13.28-.196.45-.196.168 0 .318.066.448.196.117.117.176.26.176.43 0 .169-.059.318-.176.449L6.66 14.297a.665.665 0 01-.215.146.605.605 0 01-.234.05.605.605 0 01-.234-.05.485.485 0 01-.196-.146zm3.516-1.328l.996-.977c.312.742.404 1.507.273 2.295-.13.788-.5 1.481-1.113 2.08l-2.52 2.442c-.39.403-.836.703-1.337.898A4.19 4.19 0 014.062 20a4.19 4.19 0 01-1.533-.293 3.733 3.733 0 01-1.338-.898 3.733 3.733 0 01-.898-1.338A4.19 4.19 0 010 15.937c0-.52.098-1.028.293-1.523.195-.495.495-.944.898-1.348l2.461-2.539a4.072 4.072 0 012.871-1.191 3.953 3.953 0 011.72.39l-.977.977a2.25 2.25 0 00-.743-.117 2.8 2.8 0 00-1.084.215 2.776 2.776 0 00-.908.605l-2.46 2.559c-.548.534-.821 1.191-.821 1.973 0 .78.273 1.445.82 1.992.274.26.58.462.918.605.339.143.697.215 1.075.215.377 0 .735-.072 1.074-.215a3.04 3.04 0 00.918-.605l2.52-2.442a2.62 2.62 0 00.702-1.181c.118-.437.124-.883.02-1.338zM18.809 1.19c.403.391.703.837.898 1.338A4.19 4.19 0 0120 4.063c0 .52-.098 1.028-.293 1.523a3.946 3.946 0 01-.898 1.348l-2.52 2.52a4.072 4.072 0 01-2.871 1.191c-.26 0-.52-.02-.781-.06-.26-.038-.515-.11-.762-.214l.996-.996c.091.013.182.02.274.02h.273a2.8 2.8 0 001.084-.215c.345-.144.648-.345.908-.606l2.52-2.539c.547-.534.82-1.191.82-1.973 0-.78-.273-1.445-.82-1.992a3.04 3.04 0 00-.918-.605 2.729 2.729 0 00-1.075-.215c-.377 0-.735.072-1.074.215a3.04 3.04 0 00-.918.605l-2.52 2.442a2.639 2.639 0 00-.732 1.318 2.9 2.9 0 00.05 1.475l-.977.976a4.05 4.05 0 01-.352-2.422c.13-.859.508-1.601 1.133-2.226l2.52-2.442c.39-.403.836-.703 1.337-.898A4.19 4.19 0 0115.938 0c.52 0 1.031.098 1.533.293.501.195.947.495 1.338.898z"/></defs><use fill="#FFF" fill-rule="evenodd" xlink:href="#bha"/></symbol><symbol viewBox="0 0 25 25" id="linkedin-slim" xmlns="http://www.w3.org/2000/svg"><path fill-rule="evenodd" clip-rule="evenodd" d="M2.9 5.4a1.3 1.3 0 112.6 0 1.3 1.3 0 01-2.6 0zm1.3-2.7a2.7 2.7 0 100 5.4 2.7 2.7 0 000-5.4zm12 7.4a5.3 5.3 0 00-5.3 5.3v6.3h2.6v-6.3a2.7 2.7 0 015.4 0v6.3h2.6v-6.3a5.3 5.3 0 00-5.3-5.3zm0-1.4a6.7 6.7 0 00-6.7 6.7v7a.7.7 0 00.7.7h4a.7.7 0 00.7-.7v-7a1.3 1.3 0 012.6 0v7a.7.7 0 00.7.7h4a.7.7 0 00.7-.7v-7a6.7 6.7 0 00-6.7-6.7zM1.5 10.4a.7.7 0 01.7-.7h4a.7.7 0 01.7.7v12a.7.7 0 01-.7.7h-4a.7.7 0 01-.7-.7v-12zm1.4.7v10.6h2.6V11.1H2.9z"/></symbol><symbol fill="none" viewBox="0 0 48 48" id="location" xmlns="http://www.w3.org/2000/svg"><path d="M25.34 0c2.946 0 5.581.484 7.905 1.453 2.325.969 4.281 2.29 5.869 3.961 1.588 1.672 2.799 3.617 3.634 5.836.835 2.219 1.252 4.563 1.252 7.031 0 2.5-.516 5.055-1.547 7.664a47.368 47.368 0 01-3.904 7.688 70.075 70.075 0 01-5.107 7.148 136.877 136.877 0 01-5.156 6c0 .032-.246.242-.737.633A2.68 2.68 0 0125.83 48h-.147c-.688 0-1.269-.195-1.743-.586-.475-.39-.712-.602-.712-.633a984.914 984.914 0 01-5.525-6.14 70.311 70.311 0 01-5.5-7.008 45.257 45.257 0 01-4.223-7.57c-1.13-2.594-1.694-5.188-1.694-7.782 0-2.468.507-4.812 1.522-7.031a19.005 19.005 0 014.125-5.836c1.735-1.672 3.757-2.992 6.065-3.96C20.306.483 22.753 0 25.339 0zm.588 44.766c2.489-2.72 4.666-5.313 6.532-7.782 1.866-2.468 3.42-4.804 4.665-7.007 1.244-2.204 2.177-4.282 2.799-6.235.622-1.953.933-3.773.933-5.46a17.7 17.7 0 00-.908-5.602 13.87 13.87 0 00-2.824-4.899c-1.277-1.437-2.89-2.593-4.837-3.468C30.34 3.438 28.024 3 25.339 3c-2.16 0-4.207.406-6.138 1.219-1.932.812-3.618 1.914-5.058 3.304a15.919 15.919 0 00-3.438 4.875 13.97 13.97 0 00-1.277 5.883c0 2.219.492 4.469 1.474 6.75.982 2.282 2.226 4.524 3.732 6.727a66.258 66.258 0 004.96 6.375c1.8 2.047 3.503 3.96 5.107 5.742l.835.89.196.188a.797.797 0 01.123-.094c.049-.03.073-.062.073-.093zm-.736-35.72c2.619 0 4.845.884 6.678 2.65 1.834 1.765 2.75 3.882 2.75 6.35 0 2.5-.916 4.626-2.75 6.376-1.833 1.75-4.059 2.625-6.678 2.625-2.586 0-4.804-.875-6.654-2.625-1.85-1.75-2.775-3.875-2.775-6.375 0-2.469.925-4.586 2.775-6.352 1.85-1.765 4.068-2.648 6.654-2.648zm0 15c1.735 0 3.208-.593 4.42-1.78 1.21-1.188 1.817-2.61 1.817-4.266 0-1.656-.614-3.07-1.842-4.242C28.359 12.586 26.877 12 25.143 12c-1.735 0-3.217.586-4.444 1.758-1.228 1.172-1.842 2.586-1.842 4.242 0 1.656.622 3.078 1.866 4.266 1.244 1.187 2.734 1.78 4.469 1.78z" fill="#E73F39"/></symbol><symbol viewBox="0 0 262 95" id="logo-biko" xmlns="http://www.w3.org/2000/svg"><path d="M243.303 21.015c1.422-1.056 2.974-2.112 4.138-3.45.905-1.057 1.551-2.395 1.357-3.662-.452-2.676-3.685-3.31-6.595-2.676-1.81.422-3.62 1.267-4.978 2.535-.582.493-1.1 1.127-1.358 1.76-.259.845.388 1.409 1.422 1.127.776-.211 1.423-.704 2.005-1.197.711-.704 1.358-1.479 2.457-1.69.711-.141 1.358.07 1.358.774 0 .564-.518 1.127-1.035 1.55-.452.352-.84.704-1.293.986-1.552 1.197-3.039 2.394-4.203 3.873-.517.704-.97 1.479-1.228 2.253-.324.916-.453 1.831-.259 2.676.259 1.197 1.293 2.042 2.716 2.113 2.65.07 5.366-.141 8.147-.564 1.422-.281 2.91-1.126 3.038-2.535.13-1.479-1.422-1.972-2.91-1.76-2.004.281-4.008.493-6.012.704.776-1.056 2.069-1.901 3.233-2.817zM208.04 49c-4.516 0-26.821 22-3.763 22 18.884 0 7.936-22 3.763-22zM53.79 48c-5.12 0-32.267 22-4.419 22 22.096 0 9.54-22 4.42-22zm47.628-19.448c3.336 4.336 5.282 9.023 7.644 13.919 1.112-.7 2.572-13.01 2.92-14.969 1.042-6.085 4.795-22.452 12.787-22.452 4.239 0 7.088 4.267 8.478 7.834 1.946 4.896 3.127 9.722 4.03 14.898.487 2.798 1.39 8.953 2.086 11.471 5.976-2.797 17.443-9.163 17.652-9.232 3.822-2.099 11.883.56 7.783 7.833-3.197 5.736-17.165 18.816-17.165 20.285 0 .909 12.161 7.834 13.899 8.183.278-.49.695-.979.834-1.469 1.529-3.917 2.154-7.624 4.17-11.4 7.088-13.64 24.532-30.077 40.863-29.588a32.01 32.01 0 0114.038 3.707c-.834-2.867-.834-5.945.417-9.162 4.378-11.402 20.78-16.857 31.134-12.45 7.367 3.147 10.98 10.141 7.923 18.185-3.753 9.862-15.22 18.116-25.436 16.018 6.81 9.932 9.521 22.872 5.421 34.203C235.128 90.593 213.098 95 197.948 95c-4.448 0-20.015-2.938-20.432-2.868-8.34.77-12.996 1.539-21.474-.7l-15.22-5.945c-1.598-.42-3.544 2.938-4.587 3.847-7.019 6.435-18 3.358-25.088-.979-8.061 5.176-22.1 7.205-30.16.77-1.39-1.12-4.588-5.876-5.074-6.086-17.026 10.842-42.531 14.13-62.199 9.093-3.058-.07-9.799-4.826-11.05-7.624C-.74 76.884-.324 69.54.858 61.216c1.32-9.093 3.057-18.186 4.586-27.209C6.626 27.153 11.143 4.7 19.76 4.7c10.842 0 11.467 21.893 14.872 23.222 2.989-.91 8.896-1.958 11.954-1.958 14.385 0 23.906 7.973 33.01 17.976.278.28.626.56.973.84.765-.7 6.046-12.731 8.479-16.018l-.348-.98C73.342 20.088 83.974-5.302 101.348.993c5.074 1.889 8.41 7.205 8.41 12.52 0 9.163-8.27 13.85-8.34 15.039z" fill="#e73f39" fill-rule="evenodd"/></symbol><symbol viewBox="0 0 41 48" id="magento" xmlns="http://www.w3.org/2000/svg"><defs><path id="bla" d="M22.828 12.923v28.542l-2.56 1.715-2.56-1.725v-28.51l-6.631 4.478v24.408L20.269 48l9.27-6.213v-24.38l-6.711-4.484zM20.295 0L0 12.297v23.367l5.271 3.105V15.4l15.028-9.137 15.042 9.125.062.035-.007 23.312 5.22-3.07V12.297L20.294 0z"/></defs><use fill="#E73F39" fill-rule="evenodd" xlink:href="#bla"/></symbol><symbol id="mailchimp" viewBox="0 0 48 48" xml:space="preserve" xmlns="http://www.w3.org/2000/svg"><style>.bmst0{fill:#e73f39}</style><g id="bmsilm9k_1_"><path class="bmst0" d="M21.7.8h1.6c1 .6 2.1 1.1 2.8 1.9 1 1.2 1.9 1.3 3.4.7 2.2-1 4.5-1.5 7-1 2.5.6 3.8 2.4 3.3 4.9-.4 2.3-1.8 4-3.1 5.5.6 1.6 1.3 3 1.7 4.5.3 1 .2 2 .2 3.1 0 1 .3 1.5 1.3 1.7.8.2 1.6.6 2.3 1 1.5.9 2 2.6 1.4 4.3-.2.5-.2 1-.1 1.5.1.7.4 1.3 1.1 1.7.4.2.7 1 .8 1.5.1.8.1 1.7-.1 2.4-1.4 6.2-5.3 9.9-11.2 11.8-1.3.4-2.6.6-3.9.8h-3.7c-.3-.1-.6-.1-.9-.2-6-.8-10.7-3.7-13.5-9.1-.4-.7-.8-1-1.6-1.2-4-.8-6.6-4.6-5.6-8.6.2-.8 0-1.2-.6-1.6-1.1-.8-2-1.8-2-3.2 0-1.1.1-2.2.4-3.2 1-3.6 3.1-6.6 5.5-9.4 3.7-4.4 7.7-8.3 13.5-9.8zm19.8 32.6c-.6.5-1.2 1.1-1.9 1.5-2.7 1.7-5.7 2.4-8.9 2.2-1.3-.1-2.6-.7-3.8-1.3-1.2-.6-1.4-2.1-.9-3.4.5-1.2 1.3-1.6 2.8-1.4 3.4.4 6.6-.1 9.7-1.5 1.2-.6 2.3-1.4 3.3-2.4.9-1 .7-2.2-.5-2.8-.8-.5-1.8-.8-2.7-1.1-1-.3-1.4-.8-1.4-1.8 0-1.3-.1-2.7-.3-4-.1-1-.4-1.9-1.4-2.3-1-.4-1.8.1-2.5.7-1 .9-2.2 1.2-3.5 1.2-.8 0-1.6-.1-2.4-.2-2.6-.2-4.7 1.6-5 4.2-.2 2.1.5 3.7 1.9 5.2 1.2 1.3 1.2 1.3.2 2.7-3.2 4.5-1.7 10.4 3.3 12.7 5.3 2.4 12.8 0 15.5-5.2.6-1.1.8-2.4 1.1-3.7.1-.3-.2-1-.5-1.1-.8-.2-.8-.8-1-1.3-.1-.4-.3-.8-.5-1.3-4.2 2.9-8.7 3.8-13.6 3.2-.7-.1-1.3 0-1.6 1.1 2.4.3 4.8.5 7 .7-2.2.9-4.6.6-7-.1.2 1 .7 1.5 1.9 1.8 2 .6 4 .6 6 .1 2.2-.7 4.4-1.5 6.7-2.4zM25.8 4.9C24.1 2.4 22.9 2 20 3.1c-.4.2-.8.3-1.2.5-4.1 2.1-7.4 5.2-10.2 8.9-2 2.5-3.7 5.3-4.5 8.4-.6 2.3-.1 3.6 1.6 4.5 1.1-.7 2-1.4 3.1-1.9.6-.3 1-.6 1.2-1.2 2-5 4.9-9.3 9.2-12.6 2.1-1.6 4.4-3.2 6.6-4.8zM15.1 30.5h.2c-.2-1-.3-2-.6-2.9-.6-1.8-2.2-2.8-3.9-2.8-1.8 0-3.4 1.2-4 3-1 2.8.4 5.8 3.3 6.9 2.6 1 4.9-.4 5.1-3.3-.1-.3-.1-.6-.1-.9zm9.2-21.4c-2.2 1.1-5.1 3.5-5.6 4.8 4.2-2.8 8.7-3.6 13.7-2.8v-.4c-1.3-.4-2.7-.7-4-1.1.2-.2.4-.5.6-.8-.1-.1-.1-.2-.2-.3-1.6.6-3.2 1.1-4.9 1.7.1-.2.3-.6.4-1.1z"/><path class="bmst0" d="M36 22.4c-1 .4-1.4 0-1.6-.7-.1-.6-.2-1.1-.2-1.7 0-.3.3-.5.4-.8.3.2.8.3.8.5.3.9.4 1.9.6 2.7zM25.2 23.8c1.2-2.1 3.9-2.1 5.2.1-1.8-.9-3.4-1-5.2-.1z"/><path class="bmst0" d="M27.1 25c.8-1.2 2-1.3 2.8-.3-.9.1-1.8.2-2.8.3zM35.5 23.4c.3.5.6.8.6 1 0 .3-.3.6-.5.8-.2-.2-.5-.4-.6-.7 0-.2.3-.5.5-1.1zM33.4 26.3c-.4-.4-.7-.7-.9-1 0 0 .4-.5.5-.5.3.1.6.4.9.7.1.1-.2.4-.5.8zM13.5 32.2c-.4.1-.8.4-1.1.3-.4-.2-.9-.6-1-1-.1-.5 0-1.1.2-1.6.2-.9.1-1.5-.8-1.8-.8-.3-1.3.2-1.7.9-.1.3-.3.6-.5.9-.4-1-.2-2 .6-2.7.7-.6 1.6-.8 2.5-.3.9.5 1.3 1.3 1.2 2.3 0 .3-.2.7-.3 1-.5 1.3-.4 1.5.9 1.7v.3z"/></g></symbol><symbol viewBox="0 0 24 24" id="menu" xmlns="http://www.w3.org/2000/svg"><defs><clipPath id="bnb"><use xlink:href="#bna"/></clipPath><path id="bna" d="M339 38v-4h4v4zm7 0v-4h4v4zm7 0v-4h4v4zm-14-7v-4h4v4zm7-7v-4h4v4zm0 7v-4h4v4zm7-7v-4h4v4zm0 7v-4h4v4zm-14-7v-4h4v4z"/></defs><g transform="translate(-336 -17)"><use fill="#d8d8d8" xlink:href="#bna"/><g clip-path="url(#bnb)"><path d="M336 41V17h24v24z"/></g></g></symbol><symbol viewBox="0 0 24 24" id="menu-close" xmlns="http://www.w3.org/2000/svg"><defs><path id="boa" d="M0 18v-4h4v4H0zm14 0v-4h4v4h-4zm-7-7V7h4v4H7zm7-7V0h4v4h-4zM0 4V0h4v4H0z"/></defs><g transform="translate(3 3)" fill="none" fill-rule="evenodd"><path d="M0 18v-4h4v4H0zm14 0v-4h4v4h-4zm-7-7V7h4v4H7zm7-7V0h4v4h-4zM0 4V0h4v4H0z" fill="#D8D8D8" fill-rule="nonzero"/><mask id="bob" fill="#fff"><use xlink:href="#boa"/></mask><path fill="#000" fill-rule="nonzero" mask="url(#bob)" d="M-3 21V-3h24v24z"/></g></symbol><symbol viewBox="0 0 23 24" id="node-js" xmlns="http://www.w3.org/2000/svg"><g fill="none" fill-rule="evenodd"><path fill="#E73F39" d="M11.165 0L.033 3.986l1.704 14.769L11.165 24l9.429-5.245 1.703-14.769z"/><path fill="#FFF" fill-rule="nonzero" d="M5.576 16.176c.939 0 1.685-.139 2.24-.416a2.972 2.972 0 001.272-1.168c.293-.501.485-1.107.576-1.816.09-.71.136-1.496.136-2.36V4.64H7.592v5.776c0 .64-.021 1.197-.064 1.672-.043.475-.133.872-.272 1.192-.139.32-.341.557-.608.712-.267.155-.624.232-1.072.232-.459 0-.864-.064-1.216-.192s-.603-.245-.752-.352l-.496 1.792c.683.47 1.504.704 2.464.704zm9.78-.016c1.045 0 1.872-.237 2.48-.712.608-.475.912-1.123.912-1.944 0-.352-.061-.653-.184-.904a1.823 1.823 0 00-.576-.664 4.03 4.03 0 00-1.008-.512 16.55 16.55 0 00-1.48-.448 9.736 9.736 0 01-.776-.216 2.733 2.733 0 01-.504-.216.775.775 0 01-.28-.256.696.696 0 01-.088-.368c0-.33.123-.57.368-.72.245-.15.55-.224.912-.224.395 0 .792.075 1.192.224.4.15.813.384 1.24.704l.864-1.296a4.309 4.309 0 00-1.512-.88 5.606 5.606 0 00-1.768-.272c-.47 0-.904.064-1.304.192s-.75.312-1.048.552c-.299.24-.53.53-.696.872a2.609 2.609 0 00-.248 1.152c0 .32.053.595.16.824.107.23.277.432.512.608s.544.333.928.472a18.9 18.9 0 001.392.432c.65.181 1.12.341 1.408.48.288.139.432.357.432.656a.773.773 0 01-.368.688c-.245.16-.581.24-1.008.24a4.01 4.01 0 01-1.448-.28 6.893 6.893 0 01-1.496-.824l-.8 1.344c.48.416 1.056.736 1.728.96.672.224 1.36.336 2.064.336z"/></g></symbol><symbol id="openshift" viewBox="0 0 48 48" xml:space="preserve" xmlns="http://www.w3.org/2000/svg"><style>.bqst0{fill:#e73f39}</style><path class="bqst0" d="M39.8 23.6c.8-.3 1.7-.6 2.7-.9.3 3.6-.5 7-2.2 10-5.7 10.3-19.4 12.2-27.9 4-.6-.6-1.1-1.2-1.6-1.8-.3-.4-.6-.5-1-.3-.1 0-.2.1-.3.1-2.2.8-2.2.8-3.3-1.4-.6-1.2-1.1-2.5-1.6-3.9 1.9-.7 3.7-1.4 5.6-2.1-.2-.9-.3-1.8-.5-2.9-.8.3-1.6.5-2.4.8-.2-1.9-.1-3.8.4-5.6C9.6 12.7 14 8.2 21 6.6c7-1.5 13 .7 17.7 6.3.5.6.8.7 1.5.4.5-.2 1.1-.4 1.7-.6.3.4.5.9.8 1.3.2.4.4.8.7 1.3-1.8.7-3.6 1.3-5.3 2 .5 2.1 1.1 4.1 1.7 6.3zm-2.4-6.2c-.2-.3-.2-.5-.3-.6-1.2-1.9-1.2-1.9-3.3-1.2-.5.2-.8.2-1.2-.2-6.6-6-17-2.6-18.9 6-.1.5-.1.9-.2 1.5.9-.3 1.7-.6 2.6-.9 0 .9-.1 1.6 0 2.4.1.6-.1.9-.7 1.1-1.6.5-3.1 1.1-4.9 1.8.6 1.3 1 2.6 1.7 3.8 1.2 2.1 1.3 2.1 3.5 1.2.7-.3 1.1-.1 1.6.3 4.5 3.9 10.9 3.8 15.3-.2 2.2-2 3.4-4.5 3.6-7.6-1 .4-1.9.7-2.5.9-.5-2.2-1-4.3-1.5-6.5 1.6-.4 3.4-1.1 5.2-1.8z" id="bqQSG4sn.tif"/></symbol><symbol fill="none" viewBox="0 0 48 48" id="pencil" xmlns="http://www.w3.org/2000/svg"><g clip-path="url(#brclip0)"><path d="M45.143 2.386c.936.873 1.638 1.786 2.106 2.737.467.951.717 1.91.748 2.877.031 1.03-.187 2.035-.655 3.018-.468.982-1.154 1.941-2.058 2.877-.437.468-2.183 2.214-5.24 5.24-3.056 3.025-6.354 6.292-9.894 9.8-3.54 3.51-6.79 6.73-9.754 9.662a3400.631 3400.631 0 00-4.865 4.818 1.375 1.375 0 01-.655.374c-.436.125-1.356.414-2.76.866a777.89 777.89 0 01-4.327 1.38c-1.481.468-2.815.897-4 1.287-1.185.39-1.793.584-1.824.584a.835.835 0 01-.21.07 1.45 1.45 0 01-.819-.094 1.16 1.16 0 01-.468-.35 1.262 1.262 0 01-.421-.702 1.918 1.918 0 010-.842c.031-.03.218-.616.561-1.754.343-1.139.74-2.456 1.193-3.953.452-1.497.889-2.956 1.31-4.375.42-1.419.71-2.44.865-3.064a7.17 7.17 0 01.187-.35c.063-.11.14-.211.234-.305L18.9 17.684A5723.63 5723.63 0 0029.027 7.532c3.104-3.119 4.764-4.772 4.983-4.959.312-.312.982-.819 2.011-1.52C37.051.35 38.313 0 39.811 0c.966 0 1.894.203 2.783.608.889.406 1.739.998 2.55 1.778zM33.542 7.345a764.625 764.625 0 00-5.614 5.567 3084.235 3084.235 0 00-7.04 7.065 3067.331 3067.331 0 01-6.947 6.97l-5.287 5.287c.624.25 1.318.608 2.082 1.076.764.468 1.536 1.092 2.316 1.871a12.665 12.665 0 011.567 1.989c.421.67.756 1.286 1.006 1.847 1.31-1.31 3.064-3.048 5.263-5.216a2517.91 2517.91 0 006.9-6.83l6.994-6.948c2.26-2.245 4.124-4.085 5.59-5.52-.031-.25-.21-.834-.538-1.755-.328-.92-.96-1.847-1.895-2.783-.935-.905-1.809-1.544-2.62-1.918-.81-.374-1.403-.608-1.777-.702zM6.596 34.76a246.49 246.49 0 01-1.427 4.585 680.449 680.449 0 00-1.567 4.96c1.466-.469 3.166-1.03 5.1-1.685 1.933-.655 3.414-1.154 4.443-1.497-.155-.468-.405-1.045-.748-1.731-.343-.686-.842-1.357-1.497-2.012-.873-.873-1.7-1.505-2.48-1.895-.78-.39-1.387-.631-1.824-.725zm36.49-23.017c.623-.624 1.09-1.248 1.403-1.872.311-.623.467-1.216.467-1.777 0-.562-.163-1.139-.49-1.731-.328-.593-.804-1.186-1.428-1.778-.499-.5-1.021-.873-1.567-1.123a3.959 3.959 0 00-1.66-.374c-.967 0-1.802.25-2.503.748-.702.5-1.084.796-1.147.89l-.233.233c.592.25 1.247.6 1.964 1.053.718.452 1.45 1.052 2.2 1.8.716.718 1.293 1.451 1.73 2.2.437.748.764 1.434.982 2.058.063-.062.117-.125.164-.187s.086-.11.117-.14z" fill="#E73F39"/></g><defs><clipPath id="brclip0"><path fill="#fff" d="M0 0h48v48H0z"/></clipPath></defs></symbol><symbol viewBox="0 0 93 56" id="pointer" xmlns="http://www.w3.org/2000/svg"><defs><path id="bsa" d="M26.942.558c5.098 0 8.716.499 12.169 4.99h46.046c4.111 0 7.4 3.326 7.4 7.484s-3.289 7.484-7.4 7.484H68.219a7.334 7.334 0 011.316 4.158c0 3.656-2.628 6.814-6.079 7.483.18.266.345.544.487.833.823 1.663.987 3.825.33 5.654l-.165.167c-.987 2.993-3.783 4.989-6.743 4.989.494 1.497.494 3.326 0 4.823-1.316 3.825-5.262 5.821-9.045 4.823-1.973.333-8.88 1.996-14.965 1.996-11.512 0-13.814-.167-20.228-4.99H7.043c-3.618 0-6.578-2.827-6.578-6.486V13.863c0-3.659 2.96-6.652 6.578-6.652h5.92C14.608 5.381 19.87.558 26.777.558h.164zm-.165 3.327h-.164c-6.743.166-11.676 5.987-11.676 5.987-.329.499-.822.665-1.316.665H7.043c-1.809 0-3.289 1.497-3.289 3.326v30.103c0 1.663 1.48 3.16 3.29 3.16h6.577c.33 0 .658.166.987.333 5.749 4.36 7.156 4.644 17.771 4.657h.976c2.882 0 6.016-.415 8.629-.882l-11.26-3.941c-3.783-1.331-5.92-5.655-4.605-9.48.888-2.583 3.126-4.406 5.65-4.909a7.386 7.386 0 01-.223-5.403l.164-.332c.246-.58.533-1.16.9-1.699-4.424-3.879-8.42-8.175-9.451-10.609-.33-.831 0-1.829.822-2.162.822-.332 1.809 0 2.138.832.833 2.059 5 6.385 9.482 10.188.19.062.376.158.55.289 3.782 3.161 7.235 5.489 9.209 6.32.179.076.367.133.562.174 1.305.2 2.693-.166 3.385-1.005.986-1.331.493-3.493-1.152-6.154-1.63-2.398-5.931-8.172-9.895-13.429l-1.287-1.539-.165-.166c-2.631-3.992-4.933-4.324-10.032-4.324zm6.414 32.098c-.658 0-1.316.166-1.809.499-.987.499-1.809 1.33-2.138 2.328-.658 2.162.33 4.491 2.631 5.322l16.453 5.76c.162.021.324.061.486.061 2.302.832 4.604-.332 5.262-2.494.33-.998.33-2.162-.164-3.16a4.994 4.994 0 00-.345-.59 4.261 4.261 0 00-1.845-1.359l-4.39-1.544-12.825-4.49c-.329-.167-.822-.333-1.316-.333zm1.81-8.482c-.165.166-.33.499-.33.665l-.164.333c-.658 2.162.329 4.324 2.467 5.156l11.343 3.99 3.57 1.25a1.79 1.79 0 01.874.082l3.289 1.164c1.248.388 2.494.206 3.48-.44a3.984 3.984 0 001.289-1.888l.164-.333c.33-.998.33-2.162-.164-2.994-.494-.998-1.316-1.663-2.303-1.995l-5.262-1.996c-.854 1.063-2.023 1.939-3.319 2.524a6.984 6.984 0 01-3.26.802c-.092 0-.181-.003-.271-.006-.873 0-1.73-.155-2.524-.493a10.17 10.17 0 01-.347-.144l-.137-.061c-2.148-.959-5.049-2.939-7.993-5.303L35 27.501zm27.462-7.318l-12.34.287c.255.386.48.738.665 1.044 1.4 2.124 2.01 3.922 2.177 5.399.096.021.193.05.29.089l3.688 1.306c.237-.093.495-.142.752-.142l3.782.499h.658c2.302 0 4.111-1.995 4.111-4.324 0-1.164-.493-2.162-1.151-2.993-.658-.666-1.644-1.165-2.631-1.165zM85.158 8.874H41.636c2.12 2.785 4.396 5.811 6.218 8.339.097-.014.197-.023.302-.023h37.002c2.302 0 4.112-1.83 4.112-4.158 0-2.329-1.81-4.158-4.112-4.158z"/></defs><use fill="#FFF" xlink:href="#bsa" fill-rule="evenodd"/></symbol><symbol fill="none" viewBox="0 0 24 23" id="regalo" xmlns="http://www.w3.org/2000/svg"><path fill-rule="evenodd" clip-rule="evenodd" d="M24 6.773v4.5h-1.5v9.774c0 .406-.145.758-.434 1.055a1.43 1.43 0 01-1.066.445H3.023a1.43 1.43 0 01-1.066-.445 1.461 1.461 0 01-.434-1.055v-9.774H0V6.797c0-.422.145-.777.434-1.067A1.45 1.45 0 011.5 5.297h2.602a3.64 3.64 0 01-.809-1.137A3.444 3.444 0 013 2.72c0-.656.21-1.274.633-1.852C4.055.29 4.789 0 5.836 0c.687 0 1.348.164 1.98.492a8.944 8.944 0 011.758 1.196c.54.468 1.02.964 1.442 1.488.421.523.765.996 1.03 1.418.267-.422.606-.895 1.02-1.418.414-.524.887-1.02 1.418-1.489A8.78 8.78 0 0116.22.492 4.178 4.178 0 0118.187 0c1.047 0 1.782.29 2.204.867.422.578.632 1.196.632 1.852a3.444 3.444 0 01-1.078 2.554H22.5c.422 0 .777.149 1.066.446.29.297.434.648.434 1.054zM18.187 1.5c-.937 0-1.84.434-2.707 1.3-.867.868-1.566 1.692-2.097 2.473h2.531a4.88 4.88 0 002.461-.656c.766-.437 1.148-1.07 1.148-1.898 0-.406-.105-.711-.316-.914-.21-.203-.55-.305-1.02-.305zm-12.351 0c-.469 0-.809.098-1.02.293-.21.195-.316.496-.316.902 0 .828.395 1.465 1.184 1.91.789.446 1.62.668 2.496.668h2.53c-.53-.78-1.241-1.605-2.132-2.472C7.688 1.934 6.773 1.5 5.836 1.5zM22.5 9.773v-3h-9.75v3h9.75zm-21-3v3h9.75v-3H1.5zm1.523 4.5v9.774h8.227v-9.774H3.023zM21 21.047v-9.774h-8.25v9.774H21z" fill="#000"/></symbol><symbol viewBox="0 0 24 23" id="regalo-slim" xmlns="http://www.w3.org/2000/svg"><path fill-rule="evenodd" clip-rule="evenodd" d="M24 6.773v4.5h-1.5v9.774c0 .406-.145.758-.434 1.055a1.43 1.43 0 01-1.066.445H3.023a1.43 1.43 0 01-1.066-.445 1.461 1.461 0 01-.434-1.055v-9.774H0V6.797c0-.422.145-.777.434-1.067A1.45 1.45 0 011.5 5.297h2.602a3.64 3.64 0 01-.809-1.137A3.444 3.444 0 013 2.72c0-.656.21-1.274.633-1.852C4.055.29 4.789 0 5.836 0c.687 0 1.348.164 1.98.492a8.944 8.944 0 011.758 1.196c.54.468 1.02.964 1.442 1.488.421.523.765.996 1.03 1.418.267-.422.606-.895 1.02-1.418.414-.524.887-1.02 1.418-1.489A8.78 8.78 0 0116.22.492 4.178 4.178 0 0118.187 0c1.047 0 1.782.29 2.204.867.422.578.632 1.196.632 1.852a3.444 3.444 0 01-1.078 2.554H22.5c.422 0 .777.149 1.066.446.29.297.434.648.434 1.054zM18.187 1.5c-.937 0-1.84.434-2.707 1.3-.867.868-1.566 1.692-2.097 2.473h2.531a4.88 4.88 0 002.461-.656c.766-.437 1.148-1.07 1.148-1.898 0-.406-.105-.711-.316-.914-.21-.203-.55-.305-1.02-.305zm-12.351 0c-.469 0-.809.098-1.02.293-.21.195-.316.496-.316.902 0 .828.395 1.465 1.184 1.91.789.446 1.62.668 2.496.668h2.53c-.53-.78-1.241-1.605-2.132-2.472C7.688 1.934 6.773 1.5 5.836 1.5zM22.5 9.773v-3h-9.75v3h9.75zm-21-3v3h9.75v-3H1.5zm1.523 4.5v9.774h8.227v-9.774H3.023zM21 21.047v-9.774h-8.25v9.774H21z"/></symbol><symbol fill="none" viewBox="0 0 48 48" id="reloj" xmlns="http://www.w3.org/2000/svg"><path fill-rule="evenodd" clip-rule="evenodd" d="M24 0c-3.313 0-6.43.625-9.352 1.875-2.921 1.25-5.468 2.96-7.64 5.133-2.172 2.172-3.883 4.718-5.133 7.64C.625 17.57 0 20.688 0 24c0 3.313.625 6.43 1.875 9.352 1.25 2.922 2.96 5.468 5.133 7.64 2.172 2.172 4.718 3.883 7.64 5.133C17.57 47.375 20.688 48 24 48c3.313 0 6.43-.625 9.352-1.875 2.922-1.25 5.468-2.96 7.64-5.133 2.172-2.172 3.883-4.718 5.133-7.64C47.375 30.43 48 27.312 48 24c0-3.313-.625-6.43-1.875-9.352-1.25-2.921-2.96-5.468-5.133-7.64-2.172-2.172-4.718-3.883-7.64-5.133C30.43.625 27.312 0 24 0zm0 45.047c-2.906 0-5.633-.555-8.18-1.664-2.547-1.11-4.765-2.617-6.656-4.524-1.89-1.906-3.39-4.132-4.5-6.68C3.554 29.634 3 26.907 3 24c0-2.906.555-5.633 1.664-8.18 1.11-2.547 2.61-4.765 4.5-6.656 1.89-1.89 4.11-3.39 6.656-4.5C18.367 3.554 21.094 3 24 3c2.906 0 5.633.555 8.18 1.664 2.547 1.11 4.765 2.61 6.656 4.5 1.89 1.89 3.39 4.11 4.5 6.656C44.446 18.367 45 21.094 45 24c0 2.906-.555 5.633-1.664 8.18-1.11 2.547-2.61 4.773-4.5 6.68-1.89 1.906-4.11 3.413-6.656 4.523-2.547 1.11-5.274 1.664-8.18 1.664zm1.5-21.656l7.078 7.078c.281.281.422.633.422 1.054 0 .422-.14.774-.422 1.055a1.36 1.36 0 01-1.055.469 1.36 1.36 0 01-1.054-.469l-7.453-7.406c0-.031-.008-.055-.024-.07l-.023-.024a1.162 1.162 0 01-.352-.469A1.569 1.569 0 0122.5 24V9c0-.406.148-.758.445-1.055A1.442 1.442 0 0124 7.5c.406 0 .758.148 1.055.445.297.297.445.649.445 1.055v14.39z" fill="#E73F39"/></symbol><symbol viewBox="0 0 24 24" id="reloj-slim" xmlns="http://www.w3.org/2000/svg"><path fill-rule="evenodd" clip-rule="evenodd" d="M2.4 11.7a9.3 9.3 0 1118.6 0 9.3 9.3 0 01-18.6 0zM11.7 1C5.79 1 1 5.79 1 11.7c0 5.91 4.79 10.7 10.7 10.7 5.91 0 10.7-4.79 10.7-10.7C22.4 5.79 17.61 1 11.7 1zm.7 4.7a.7.7 0 10-1.4 0v6a.7.7 0 00.387.626l4 2a.7.7 0 10.626-1.252L12.4 11.267V5.7z"/></symbol><symbol id="sketch" viewBox="0 0 48 48" xml:space="preserve" xmlns="http://www.w3.org/2000/svg"><style>.bxst0{fill:#e73f39}</style><g id="bxe05VH7.tif"><path class="bxst0" d="M46.7 17v.6c-.1.1-.2.3-.3.4-1.7 2.1-3.5 4.2-5.2 6.3-5.3 6.5-10.7 13-16 19.5l-.9.9h-.4c-.3-.3-.7-.6-.9-.9-5.1-6.2-10.1-12.3-15.2-18.5-2-2.5-4-4.9-6.1-7.4-.3-.4-.4-.8-.1-1.3.1-.1.2-.2.2-.3C4.5 12.5 7.2 8.6 10 4.6c.2-.2.5-.5.7-.5.9-.1 1.7-.1 2.6-.1 2.3-.2 4.6-.3 6.9-.5 1.4-.1 2.9-.3 4.4-.2 4.1.2 8.1.6 12.2.8.7 0 1.1.3 1.5.9l8.4 12zM24 41.8c4.2-7.9 8.4-15.7 12.6-23.5H11.4c4.2 7.8 8.4 15.6 12.6 23.5zM12.2 16.4h23.6c-4-3.7-7.9-7.3-11.8-11-3.9 3.7-7.8 7.3-11.8 11zm9.2-11.1h-.8l-8.4.6c-.4 0-.5.2-.6.6-.1 2.2-.3 4.3-.5 6.5 0 .6-.1 1.3-.1 1.9h.1c3.4-3.2 6.8-6.4 10.3-9.6zm5.3 0v.1c3.4 3.2 6.8 6.4 10.4 9.7v-.9c-.2-2.5-.4-5.1-.6-7.6 0-.4-.2-.6-.6-.6-1.9-.1-3.9-.3-5.8-.4-1.2-.2-2.3-.3-3.4-.3zm-22.4 13c4.8 5.8 9.4 11.5 14.1 17.2 0-.2-.1-.3-.1-.5-1-1.8-2-3.7-3-5.5-1.9-3.6-3.9-7.2-5.8-10.8-.1-.1-.2-.3-.4-.3-1.6-.1-3.2-.1-4.8-.1zm25.3 17.1c4.8-5.6 9.4-11.3 14.2-17.1h-4.5c-.3 0-.5.1-.7.4-2.9 5.5-5.8 10.9-8.8 16.4-.1 0-.2.2-.2.3zm9.4-19h4.9l-5.4-7.8h-.1l.6 7.8zM9.6 8.6h-.1l-5.4 7.8H9l.6-7.8z"/><path class="bxst0" d="M24.4 45.3h-.7l-.1-.1-.3-.3c-.2-.2-.5-.4-.7-.7-3.9-4.6-7.6-9.2-11.4-13.7l-10-12.2c-.5-.6-.5-1.2-.1-1.9 0-.1.1-.1.1-.2l.1-.1L3 13.6c2.1-3.1 4.3-6.2 6.4-9.3.2-.3.6-.6 1.1-.7.6-.1 1.3-.1 1.9-.2h.8l2.3-.2c1.5-.1 3.1-.2 4.6-.3.4 0 .7-.1 1.1-.1 1.1-.1 2.2-.2 3.3-.1 2.3.1 4.6.3 6.9.5 1.8.1 3.5.3 5.3.4.8.1 1.4.4 1.9 1.1 2.1 3 4.2 6.1 6.3 9.1l2.1 3.1v1.2c-.1.1-.1.2-.2.3l-1.9 2.3c-1.1 1.3-2.2 2.7-3.3 4l-5.3 6.5c-3.6 4.3-7.1 8.7-10.7 13-.2.3-.4.5-.7.7l-.3.3-.2.1zm-.5-41.6c-.8 0-1.7.1-2.5.1-.4 0-.7.1-1.1.1-1.5.1-3.1.2-4.6.3l-2.3.2c-.3 0-.5 0-.8.1-.6 0-1.2.1-1.8.1-.1 0-.3.1-.4.3-2.2 3.1-4.3 6.2-6.5 9.3l-1.7 2.5c0 .1-.1.1-.1.2L2 17c-.2.3-.2.4 0 .7l10 12.2c3.8 4.6 7.5 9.1 11.3 13.7l.6.6c.1 0 .1.1.2.1s.1-.1.2-.1c.2-.2.4-.3.6-.5 3.6-4.3 7.1-8.7 10.7-13l5.3-6.5c1.1-1.3 2.2-2.7 3.3-4l1.9-2.3.2-.2v-.3l-2-2.8c-2.1-3-4.2-6.1-6.3-9.1-.3-.5-.6-.6-1.1-.7-1.8-.1-3.5-.2-5.3-.4-2.3-.2-4.6-.3-6.9-.5-.4-.1-.6-.2-.8-.2zm.1 39.2L10.6 17.8h26.9L24 42.9zM12.2 18.8l11.8 22 11.8-21.9H12.2zm6.6 17.9l-15.6-19h5.9c.5 0 .8.5.8.6 1.5 2.8 3.1 5.7 4.6 8.5l4.2 7.8c.1.1.2.4.2.8l-.1 1.3zM5.3 18.8l10.6 12.9-2.3-4.3c-1.5-2.8-3-5.7-4.6-8.5 0 0 0-.1-.1-.1H5.3zm24.5 17.3l-.8-.5.2-.5c0-.1.1-.2.1-.3l2.2-4.1 6.6-12.3c.2-.5.6-.7 1.1-.7h4.3l1.2.1-14.9 18.3zm9.3-17.3c-.1 0-.1 0-.2.1l-6.6 12.3-.3.5 10.6-12.9h-3.5c.1 0 0 0 0 0zM9.4 16.9H3.1L9.3 8l.7.3.1.4-.7 8.2zm-4.4-1h3.5l.5-5.7-4 5.7zm32 1H11L24 4.7l13 12.2zm-23.5-1h21L24 6.1l-10.5 9.8zm31.4 1h-6.3l-.7-8.6.7-.3.3.3 6 8.6zm-5.4-1H43l-4-5.7.5 5.7zm-1.9.3L26.1 5.5l.3-.6.4-.1 5 .3c1.4.1 2.7.2 4.1.3.7 0 1 .4 1.1 1.1.1 1.8.3 3.6.4 5.4l.2 2.2v2.1zM27.9 5.8l8.5 8-.1-1.8c-.1-1.8-.3-3.6-.4-5.4v-.1h-.1c-1.4-.1-2.7-.2-4.1-.3l-3.8-.4zm-1.2-.5zM11.2 15.5l-.6-.2-.1-.4v-.6c0-.4.1-.9.1-1.3l.2-2 .3-4.5c0-.4.2-1 1-1 1.9-.2 3.8-.4 5.7-.5l2.7-.2h2.2L11.2 15.5zm.9-9.1v.1l-.3 4.5-.2 2c0 .3 0 .5-.1.8l8.5-8-2.1.2c-1.9.1-3.8.3-5.8.4z"/></g></symbol><symbol fill="none" viewBox="0 0 24 24" id="smile" xmlns="http://www.w3.org/2000/svg"><path fill-rule="evenodd" clip-rule="evenodd" d="M18.305 14.227c.187.093.32.234.398.421a.648.648 0 01-.023.563c-.016.047-.149.297-.399.75s-.644.941-1.183 1.465c-.54.523-1.23 1.004-2.075 1.441-.843.438-1.867.656-3.07.656a.103.103 0 00-.047.012.104.104 0 01-.047.012c-1.14 0-2.12-.219-2.941-.656-.82-.438-1.496-.918-2.027-1.442-.532-.523-.926-1.015-1.184-1.476a64.232 64.232 0 01-.41-.739.735.735 0 01-.035-.586.748.748 0 01.41-.421.739.739 0 01.562-.012c.188.07.329.2.422.387l.34.597c.211.367.527.758.95 1.172.421.414.956.797 1.605 1.149.648.351 1.426.527 2.332.527l.023-.012a.103.103 0 01.047-.012c.953 0 1.77-.18 2.45-.539.679-.359 1.234-.75 1.663-1.172.43-.421.747-.808.95-1.16.203-.351.304-.535.304-.55a.67.67 0 01.41-.387.768.768 0 01.575.012zM12 0c1.656 0 3.215.312 4.676.938 1.46.625 2.734 1.48 3.82 2.566a12.042 12.042 0 012.567 3.82C23.688 8.785 24 10.344 24 12c0 1.656-.313 3.215-.938 4.676a12.042 12.042 0 01-2.566 3.82 12.042 12.042 0 01-3.82 2.567c-1.461.625-3.02.937-4.676.937-1.656 0-3.215-.313-4.676-.938a12.042 12.042 0 01-3.82-2.566 12.042 12.042 0 01-2.567-3.82A11.762 11.762 0 010 12c0-1.656.312-3.215.938-4.676a12.042 12.042 0 012.566-3.82A12.042 12.042 0 017.324.937C8.785.313 10.344 0 12 0zm0 22.5c1.453 0 2.816-.277 4.09-.832a10.697 10.697 0 003.328-2.25 10.697 10.697 0 002.25-3.328c.555-1.274.832-2.637.832-4.09 0-1.453-.277-2.816-.832-4.09a10.697 10.697 0 00-2.25-3.328 10.696 10.696 0 00-3.328-2.25A10.129 10.129 0 0012 1.5a10.13 10.13 0 00-4.09.832 10.697 10.697 0 00-3.328 2.25 10.697 10.697 0 00-2.25 3.328A10.13 10.13 0 001.5 12c0 1.453.277 2.816.832 4.09a10.696 10.696 0 002.25 3.328 10.697 10.697 0 003.328 2.25c1.274.555 2.637.832 4.09.832zM8.25 11.25a1.43 1.43 0 01-1.066-.445A1.46 1.46 0 016.75 9.75c0-.406.145-.758.434-1.055A1.43 1.43 0 018.25 8.25c.406 0 .754.148 1.043.445.289.297.434.649.434 1.055 0 .406-.145.758-.434 1.055-.29.297-.637.445-1.043.445zm7.5 0a1.43 1.43 0 01-1.066-.445 1.46 1.46 0 01-.434-1.055c0-.406.145-.758.434-1.055a1.43 1.43 0 011.066-.445c.406 0 .754.148 1.043.445.289.297.434.649.434 1.055 0 .406-.145.758-.434 1.055-.29.297-.637.445-1.043.445z" fill="#fff"/></symbol><symbol viewBox="0 0 46 46" id="solr" xmlns="http://www.w3.org/2000/svg"><defs><path id="bza" d="M7.188 17.43a5.705 5.705 0 013.1 2.021C11.095 20.47 11.5 21.652 11.5 23c0 1.348-.404 2.53-1.213 3.549a5.705 5.705 0 01-3.1 2.021v15.992c0 .39-.142.727-.426 1.011A1.381 1.381 0 015.75 46c-.39 0-.726-.142-1.01-.427a1.381 1.381 0 01-.428-1.01V28.57c-1.227-.33-2.253-1.003-3.077-2.021C.412 25.53 0 24.348 0 23c0-1.348.412-2.53 1.235-3.549.824-1.018 1.85-1.692 3.078-2.021V1.438c0-.39.142-.727.426-1.011A1.381 1.381 0 015.75 0c.39 0 .726.142 1.01.427.285.284.428.621.428 1.01V17.43zM5.75 25.875c.809 0 1.49-.285 2.044-.854s.831-1.242.831-2.021c0-.779-.277-1.452-.831-2.021-.554-.57-1.235-.854-2.044-.854-.809 0-1.49.285-2.044.854S2.875 22.22 2.875 23c0 .779.277 1.452.831 2.021.554.57 1.235.854 2.044.854zm18.688.18a5.705 5.705 0 013.1 2.021c.808 1.018 1.212 2.201 1.212 3.549 0 1.348-.404 2.53-1.213 3.549a5.705 5.705 0 01-3.1 2.021v7.367c0 .39-.142.727-.426 1.011A1.381 1.381 0 0123 46c-.39 0-.726-.142-1.01-.427a1.381 1.381 0 01-.427-1.01v-7.368c-1.228-.33-2.254-1.003-3.078-2.021-.823-1.018-1.235-2.201-1.235-3.549 0-1.348.412-2.53 1.235-3.549.824-1.018 1.85-1.692 3.078-2.021V1.438c0-.39.142-.727.426-1.011A1.381 1.381 0 0123 0c.39 0 .726.142 1.01.427.285.284.427.621.427 1.01v24.618zM23 34.5c.809 0 1.49-.285 2.044-.854s.831-1.242.831-2.021c0-.779-.277-1.452-.831-2.021-.554-.57-1.235-.854-2.044-.854-.809 0-1.49.285-2.044.854s-.831 1.242-.831 2.021c0 .779.277 1.452.831 2.021.554.57 1.235.854 2.044.854zM41.688 8.805a5.705 5.705 0 013.1 2.021C45.595 11.844 46 13.027 46 14.375c0 1.348-.404 2.53-1.213 3.549a5.705 5.705 0 01-3.1 2.021v24.617c0 .39-.142.727-.426 1.011A1.381 1.381 0 0140.25 46c-.39 0-.726-.142-1.01-.427a1.381 1.381 0 01-.428-1.01V19.945c-1.227-.33-2.253-1.003-3.077-2.021-.823-1.018-1.235-2.201-1.235-3.549 0-1.348.412-2.53 1.235-3.549.824-1.018 1.85-1.692 3.078-2.021V1.438c0-.39.142-.727.426-1.011A1.381 1.381 0 0140.25 0c.39 0 .726.142 1.01.427.285.284.428.621.428 1.01v7.368zM40.25 17.25c.809 0 1.49-.285 2.044-.854s.831-1.242.831-2.021c0-.779-.277-1.452-.831-2.021-.554-.57-1.235-.854-2.044-.854-.809 0-1.49.285-2.044.854s-.831 1.242-.831 2.021c0 .779.277 1.452.831 2.021.554.57 1.235.854 2.044.854z"/></defs><use fill-rule="evenodd" transform="rotate(-90 23 23)" xlink:href="#bza"/></symbol><symbol viewBox="0 0 48 43" id="spa-react" xmlns="http://www.w3.org/2000/svg"><path fill="#E73F39" d="M35.928.554c2.55 1.466 3.393 5.968 2.2 11.732-.072.346-.152.698-.24 1.055.527.154 1.04.316 1.535.488 2.481.852 4.57 1.96 6.054 3.188 1.611 1.347 2.464 2.822 2.464 4.263 0 2.942-3.47 5.917-9.063 7.767-.29.096-.587.19-.89.28.107.434.202.862.284 1.28.52 2.643.606 5.099.24 7.094-.393 2.123-1.28 3.632-2.559 4.373-.639.376-1.398.563-2.242.563-2.319 0-5.26-1.398-8.33-4.041a31.865 31.865 0 01-1.295-1.18c-.334.32-.666.626-.998.916-2.029 1.773-4.118 3.069-6.028 3.742-.997.359-1.935.538-2.77.538-.87 0-1.637-.188-2.285-.563-2.447-1.415-3.3-5.49-2.268-10.905.106-.556.23-1.125.374-1.704-.449-.13-.884-.266-1.304-.41-2.549-.87-4.714-2.029-6.257-3.35C.913 24.28.043 22.754.043 21.28c0-2.83 3.103-5.601 8.313-7.409.57-.198 1.162-.385 1.776-.559a33.26 33.26 0 01-.353-1.59c-.503-2.574-.596-4.936-.272-6.837.358-2.072 1.202-3.547 2.455-4.271 2.54-1.475 6.863.042 11.263 3.956.265.235.531.481.798.737.399-.383.798-.75 1.197-1.095 1.978-1.723 3.981-2.984 5.789-3.65 1.969-.724 3.674-.724 4.919-.008zm.088 29.289l-.077.017c-1.956.448-4.118.78-6.407.984-1.325 1.92-2.674 3.631-4.019 5.1.405.39.808.757 1.207 1.1 3.845 3.308 6.897 4.024 8.219 3.257 1.373-.793 2.379-4.041 1.338-9.293-.075-.38-.162-.769-.26-1.165zm-23.928.097l-.012.051c-.13.525-.242 1.038-.336 1.537-.946 4.988-.034 7.989 1.28 8.748.323.187.75.29 1.27.29 1.696 0 4.365-1.075 7.451-3.769.303-.264.607-.543.912-.837a49.4 49.4 0 01-4.115-5.086c-2.336-.188-4.5-.501-6.45-.934zm14.811 1.08l-.326.014c-.847.034-1.706.05-2.573.05a72.46 72.46 0 01-2.8-.052 46.524 46.524 0 002.884 3.452A43.376 43.376 0 0026.9 31.02zM24 13.608c-1.465 0-2.925.057-4.356.166a57.521 57.521 0 00-2.328 3.705l-.003-.003-.324.569a57.597 57.597 0 00-1.71 3.287 57.324 57.324 0 002.046 3.862 57.36 57.36 0 002.341 3.712c1.388.088 2.836.134 4.334.134 1.499 0 2.97-.052 4.393-.154a68.186 68.186 0 002.292-3.7 61.104 61.104 0 002.06-3.881 67.912 67.912 0 00-2.069-3.843 61.546 61.546 0 00-2.31-3.69A57.3 57.3 0 0024 13.608zm-9.806 10.135l-.051.12a46.098 46.098 0 00-1.502 4.105c1.363.297 2.839.534 4.411.71a62.428 62.428 0 01-1.162-1.882l-.339-.578a60.116 60.116 0 01-1.357-2.475zm19.653-.082l-.102.194c-.407.78-.837 1.564-1.287 2.346-.484.839-.975 1.652-1.47 2.437a43.216 43.216 0 004.468-.762 43.138 43.138 0 00-1.609-4.215zm-23.166-8.378l-.206.059c-.497.144-.977.297-1.437.457-4.792 1.671-6.94 3.956-6.94 5.482 0 1.586 2.31 4.084 7.374 5.815.382.13.778.254 1.187.372a49.152 49.152 0 012.36-6.13 48.787 48.787 0 01-2.338-6.055zm26.66.025l-.018.058c-.587 1.885-1.367 3.883-2.314 5.926 1.008 2.122 1.822 4.158 2.423 6.067.275-.083.544-.167.806-.255 5.26-1.748 7.665-4.246 7.665-5.823 0-.81-.614-1.765-1.73-2.694-1.288-1.074-3.164-2.055-5.406-2.83-.46-.158-.936-.308-1.426-.449zM24.001 17a4.28 4.28 0 110 8.56A4.28 4.28 0 0124 17zm6.983-2.965l.125.193c.453.716.898 1.45 1.332 2.201.488.843.95 1.679 1.385 2.505a43.981 43.981 0 001.535-4.134 44.78 44.78 0 00-4.377-.765zm-13.966.001l-.479.062c-1.345.181-2.643.41-3.867.683a44.88 44.88 0 001.521 4.147 60.952 60.952 0 012.825-4.892zM31.708 2.49c-1.578.58-3.36 1.714-5.15 3.274-.366.319-.733.655-1.1 1.008 1.362 1.468 2.724 3.17 4.04 5.043 2.26.212 4.42.553 6.414 1.015.077-.32.148-.635.212-.944 1.117-5.431.153-8.756-1.22-9.55-.698-.4-1.832-.349-3.196.154zm-18.714-.102c-.7.4-1.22 1.415-1.467 2.848-.281 1.654-.196 3.768.264 6.096.095.482.204.974.328 1.475a49.675 49.675 0 016.399-.996 49.084 49.084 0 014.072-5.042c-.241-.23-.482-.451-.721-.664-4.144-3.683-7.503-4.51-8.875-3.717zm11.032 5.847l-.17.182a45.35 45.35 0 00-2.668 3.21 60.069 60.069 0 015.648.002 43.75 43.75 0 00-2.81-3.394z"/></symbol><symbol id="springboot" viewBox="0 0 48 48" xml:space="preserve" xmlns="http://www.w3.org/2000/svg"><style>.cbst0{fill:#e73f39}</style><path class="cbst0" d="M4.7 24.4v-.8c.2-.6.4-1.3.7-1.9 2.5-4.4 5-8.8 7.5-13.1.7-1.3 1.9-2 3.4-2h15.3c1.5 0 2.7.7 3.4 2 2.6 4.4 5.1 8.8 7.6 13.2.8 1.5.8 3 0 4.4-2.5 4.3-4.9 8.7-7.4 13-.8 1.4-2.1 2.2-3.8 2.2H16.5c-1.7 0-3-.7-3.8-2.2-2.6-5-5.8-9.6-8-14.8zM24 34.2c.7-.1 1.4-.1 2-.2 6.6-1.3 10.4-8.2 8-14.5-.7-1.9-1.9-3.5-3.5-4.7-.8-.7-1.7-.6-2.2.1-.6.7-.4 1.5.3 2.2.2.1.3.3.5.4 2 1.9 2.8 4.2 2.5 6.9-.5 4.2-4.6 7.4-8.9 6.7-5.2-.8-8.2-6.8-5.6-11.4.6-1 1.4-1.8 2.2-2.6.5-.5.6-1.1.4-1.7-.2-.6-.6-1-1.2-1-.5 0-1.1.3-1.5.6-2.9 2.6-4.3 5.8-3.8 9.7.8 5.4 5.3 9.5 10.8 9.5zm-1.7-15.6v4.7c0 1 .7 1.8 1.7 1.8.9 0 1.6-.8 1.6-1.8V14c0-1.1-.6-1.7-1.7-1.7-1 0-1.6.7-1.6 1.7v4.6z" id="cbIbbFq8.tif"/></symbol><symbol viewBox="0 0 72 72" id="star" xmlns="http://www.w3.org/2000/svg"><path d="M36 4.285l-8.22 17.072-1.475 3.021-21.92 3.232 15.878 15.877-.492 3.161-3.231 18.969L36 55.219l19.46 10.398-3.231-18.969-.492-3.161L67.614 27.61l-21.99-3.232L36 4.285zM36 0c1.03 0 1.967.258 2.81.773a4.858 4.858 0 011.897 2.107l8.15 16.932 18.757 2.74a5.16 5.16 0 012.53 1.123 5.091 5.091 0 011.615 2.319c.281.89.316 1.791.106 2.705-.211.913-.668 1.72-1.37 2.423l-13.7 13.7 3.162 19.039a4.43 4.43 0 01-.317 2.74 5.237 5.237 0 01-1.791 2.177c-.468.328-.96.562-1.475.703a5.813 5.813 0 01-2.81.07 4.707 4.707 0 01-1.265-.492L36 60.278l-16.37 8.781a3.791 3.791 0 01-1.193.492c-.422.094-.843.14-1.265.14a5.73 5.73 0 01-1.58-.21 4.82 4.82 0 01-1.44-.703 5.237 5.237 0 01-1.792-2.177 4.43 4.43 0 01-.317-2.74l3.162-19.04-13.7-13.699C.803 30.42.346 29.612.135 28.7a5.053 5.053 0 01.106-2.705 5.383 5.383 0 011.616-2.283 5.011 5.011 0 012.529-1.16l18.758-2.74 8.149-16.93A4.858 4.858 0 0133.19.772 5.283 5.283 0 0136 0z" fill-rule="nonzero" fill="#fff"/></symbol><symbol viewBox="0 0 32 32" id="talk" xmlns="http://www.w3.org/2000/svg"><path d="M20.53.596c-8-2.143-16.228 2.607-18.372 10.607l-.098.386a14.932 14.932 0 001.187 10.216l.168.322L.87 31.426l8.99-3.005.437.22c.823.4 1.634.71 2.468.933 8 2.144 16.227-2.606 18.37-10.607 2.145-8-2.606-16.227-10.606-18.37zm-.518 1.932c6.933 1.858 11.05 8.989 9.192 15.922s-8.988 11.05-15.922 9.192c-.944-.253-1.868-.642-2.848-1.182l-.384-.212-6.263 2.093 1.772-6.474-.204-.36A12.948 12.948 0 014.09 11.72C5.948 4.787 13.079.67 20.012 2.528z" fill="#fff" fill-rule="nonzero"/></symbol><symbol fill="none" viewBox="0 0 48 48" id="tiempo" xmlns="http://www.w3.org/2000/svg"><path d="M39.656 3.006H36.65v10.098c0 2.442-.681 4.61-2.043 6.505-1.362 1.894-3.484 3.561-6.364 5.002 2.974 1.502 5.127 3.225 6.458 5.166 1.33 1.941 1.996 4.274 1.996 6.998 0 1.785-.008 3.397-.024 4.837s-.023 2.568-.023 3.382h3.006c.407 0 .759.149 1.056.446.298.298.446.65.446 1.057 0 .438-.148.798-.446 1.08-.297.282-.65.423-1.056.423H9.503c-.407 0-.76-.14-1.057-.423-.297-.282-.446-.642-.446-1.08 0-.407.149-.76.446-1.057.298-.297.65-.446 1.057-.446h3.1c0-.814-.008-1.941-.024-3.382-.015-1.44-.023-3.052-.023-4.837 0-2.724.657-5.057 1.972-6.998 1.316-1.941 3.445-3.664 6.388-5.166-2.818-1.44-4.908-3.108-6.27-5.002-1.362-1.895-2.043-4.063-2.043-6.505V3.006h-3.1c-.407 0-.76-.149-1.057-.446A1.444 1.444 0 018 1.503c0-.438.149-.798.446-1.08C8.744.14 9.096 0 9.503 0h30.153c.407 0 .759.14 1.056.423.298.282.446.642.446 1.08 0 .407-.148.76-.446 1.057-.297.297-.65.446-1.056.446zM15.562 36.775c0 1.816.008 3.436.023 4.861.016 1.425.024 2.544.024 3.358h18.035c0-.814.008-1.941.023-3.382.016-1.44.024-3.052.024-4.837 0-2.067-.58-3.945-1.738-5.636-1.159-1.69-3.616-3.319-7.374-4.885-3.757 1.566-6.2 3.194-7.327 4.885-1.127 1.69-1.69 3.57-1.69 5.636zm18.082-33.77H15.609v10.099c0 1.44.5 3.037 1.502 4.79 1.002 1.754 3.492 3.46 7.468 5.12 4.008-1.66 6.52-3.366 7.538-5.12 1.018-1.753 1.527-3.35 1.527-4.79V3.006z" fill="#E73F39"/></symbol><symbol viewBox="0 0 74 69" id="tuercas" xmlns="http://www.w3.org/2000/svg"><g fill="#FFF" fill-rule="evenodd"><path d="M40.7 37.624c0 6.157-4.97 11.148-11.1 11.148s-11.1-4.991-11.1-11.148 4.97-11.148 11.1-11.148c6.128.006 11.094 4.994 11.1 11.148zm-37-3.716h5.86l.36-1.393a20.365 20.365 0 012.164-5.255l.73-1.241-4.145-4.16 5.234-5.256 4.142 4.162 1.236-.732a20.18 20.18 0 015.232-2.174l1.387-.36v-5.887h7.4v5.886l1.388.36c.785.21 1.557.466 2.312.768v5.992h4.786a14.986 14.986 0 002.053 3.562l-1.289 2.254c-4.013-7.377-13.221-10.09-20.566-6.059-7.345 4.031-10.046 13.279-6.033 20.656 4.014 7.376 13.222 10.089 20.567 6.058 6.147-3.374 9.192-10.54 7.362-17.331l7.18 4.165 2.394-4.165c.677.098 1.361.149 2.046.15v7.432h-5.86l-.36 1.394a20.369 20.369 0 01-2.164 5.254l-.73 1.241 4.145 4.16-5.234 5.256-4.142-4.161-1.236.732a20.189 20.189 0 01-5.231 2.173l-1.388.36v5.887h-7.4V57.75l-1.387-.36a20.189 20.189 0 01-5.232-2.174l-1.236-.732-4.142 4.161-5.234-5.256 4.144-4.16-.729-1.241a20.369 20.369 0 01-2.164-5.254l-.36-1.394H3.7v-7.432zm40.774-16.722l.392-1.328a11.213 11.213 0 012.575-4.46l.948-1.005-1.891-3.288 3.204-1.858 1.889 3.286 1.341-.32a10.672 10.672 0 015.136 0l1.341.32 1.889-3.286 3.204 1.858-1.89 3.288.947 1.005a11.213 11.213 0 012.575 4.46l.392 1.328H70.3v3.716h-3.774l-.392 1.329a11.215 11.215 0 01-2.575 4.459l-.948 1.005 1.891 3.289-3.204 1.858-1.889-3.287-1.341.32c-1.687.417-3.45.417-5.136 0l-1.341-.32-1.889 3.287-3.204-1.858 1.89-3.29-.947-1.004a11.215 11.215 0 01-2.575-4.46l-.392-1.328H40.7v-3.716h3.774zM8.201 48.605l-4.764 4.784L13.903 63.9l4.763-4.783a23.888 23.888 0 003.534 1.467v6.769H37v-6.769a23.877 23.877 0 003.533-1.467l4.764 4.784 10.466-10.51-4.764-4.785a24.098 24.098 0 001.461-3.549h6.74v-8.428l.74 1.3 9.62-5.573-2.405-4.17a14.98 14.98 0 002.059-3.567H74V13.47h-4.786a14.986 14.986 0 00-2.053-3.562l2.405-4.169-9.62-5.574-2.394 4.166a14.164 14.164 0 00-4.1 0L51.06.165l-9.62 5.574 2.405 4.17a14.976 14.976 0 00-2.059 3.561H37V7.896H22.2v6.769a23.914 23.914 0 00-3.534 1.468l-4.763-4.785L3.437 21.86l4.764 4.784a24.123 24.123 0 00-1.461 3.55H0v14.863h6.74c.392 1.22.88 2.407 1.461 3.549z"/><path d="M55.5 15.75a3.75 3.75 0 110 7.5 3.75 3.75 0 010-7.5m0 11.25a7.5 7.5 0 100-15 7.5 7.5 0 000 15"/></g></symbol><symbol viewBox="0 0 25 25" id="twitter-slim" xmlns="http://www.w3.org/2000/svg"><g clip-path="url(#cgclip0)"><path fill-rule="evenodd" clip-rule="evenodd" d="M15.133 3.34a5.18 5.18 0 015.43 1.1 10.2 10.2 0 002.534-1.302.7.7 0 011.083.738 8.42 8.42 0 01-2.015 3.742c.023.196.034.393.035.59v.002c0 5.995-2.88 10.365-6.996 12.556-4.098 2.181-9.35 2.164-14.044-.444a.7.7 0 01.368-1.311 10.94 10.94 0 005.518-1.244c-1.718-.962-2.914-2.135-3.716-3.4-.97-1.532-1.338-3.157-1.404-4.625-.067-1.465.166-2.787.412-3.738a12.786 12.786 0 01.47-1.454l.037-.088.01-.024.003-.008.002-.002v-.001l.64.283-.64-.284a.7.7 0 011.213-.118A9.96 9.96 0 0011.8 8.535v-.29a5.18 5.18 0 013.332-4.904zM3.748 6.149l-.056.206c-.222.862-.427 2.04-.369 3.325.059 1.282.378 2.657 1.19 3.938.808 1.277 2.132 2.503 4.27 3.454a.7.7 0 01.11 1.218 12.339 12.339 0 01-4.59 1.906c3.588 1.221 7.277.913 10.242-.665C18.18 17.595 20.8 13.716 20.8 8.21c0-.234-.024-.469-.068-.7a.7.7 0 01.197-.63 7.021 7.021 0 001.195-1.567c-.505.236-1.027.435-1.562.597a.7.7 0 01-.73-.211A3.78 3.78 0 0013.2 8.23v1.01a.7.7 0 01-.682.7 11.36 11.36 0 01-8.77-3.792z"/></g><defs><clipPath id="cgclip0"><path transform="translate(.5 .7)" d="M0 0h24v24H0z"/></clipPath></defs></symbol><symbol fill="none" viewBox="0 0 24 24" id="typescript" xmlns="http://www.w3.org/2000/svg"><path fill-rule="evenodd" clip-rule="evenodd" d="M24 0H0v24h24V0zm-4.456 17.523c.282.212.423.517.423.917 0 .367-.14.654-.423.861-.283.203-.675.304-1.179.304-1.355 0-2.033-.567-2.033-1.701h-2.124c0 .663.17 1.247.508 1.75.344.504.84.901 1.49 1.193.649.287 1.369.43 2.16.43 1.138 0 2.044-.251 2.716-.755.673-.508 1.01-1.207 1.01-2.096 0-.8-.276-1.468-.826-2.004-.55-.537-1.428-.986-2.633-1.348-.654-.198-1.15-.41-1.489-.636-.334-.225-.501-.505-.501-.84 0-.357.143-.644.43-.86.287-.222.69-.332 1.207-.332.537 0 .953.131 1.25.395.296.259.444.623.444 1.094h2.118a2.93 2.93 0 00-.48-1.652c-.315-.484-.76-.858-1.334-1.122-.574-.268-1.228-.402-1.962-.402-.73 0-1.388.122-1.976.367-.584.245-1.033.586-1.349 1.023a2.48 2.48 0 00-.465 1.482c0 1.069.583 1.918 1.75 2.548.428.23 1.01.466 1.743.706.734.235 1.242.461 1.525.678zm-8.72-4.948h3.147V10.86h-8.37v1.715h3.105v8.561h2.117v-8.56z" fill="#E73F39"/></symbol><symbol viewBox="0 0 72 72" id="webby" xmlns="http://www.w3.org/2000/svg"><path d="M71.708 58.928c.234.374.327.784.28 1.228-.046.444-.21.853-.49 1.228a2.11 2.11 0 01-.983.736c-.42.164-.842.176-1.263.035L57.958 59.63l-3.859 10.733c-.14.421-.385.76-.736 1.017a2.37 2.37 0 01-1.158.456h-.21c-.421 0-.807-.105-1.158-.315a2.09 2.09 0 01-.806-.877L38.315 49.247a19.722 19.722 0 01-2.315.14 22.76 22.76 0 01-2.525-.14L21.969 70.644a2.09 2.09 0 01-.806.877c-.351.21-.737.315-1.158.315h-.14a2.446 2.446 0 01-1.228-.456 2.023 2.023 0 01-.736-1.017L14.042 59.63 2.748 62.155c-.421.14-.842.129-1.263-.035a1.966 1.966 0 01-.982-.807 2.068 2.068 0 01-.491-1.157 1.882 1.882 0 01.28-1.228l13.189-24.062a24.337 24.337 0 01-1.614-4.876 24.67 24.67 0 01-.56-5.296c0-3.414.642-6.618 1.928-9.611 1.287-2.993 3.052-5.612 5.297-7.857 2.245-2.245 4.864-4.01 7.857-5.297C29.382.643 32.586 0 36 0c3.414 0 6.618.643 9.61 1.93 2.994 1.285 5.601 3.05 7.823 5.296 2.221 2.245 3.987 4.864 5.296 7.857 1.31 2.993 1.965 6.197 1.965 9.61 0 1.778-.187 3.497-.561 5.157a28.088 28.088 0 01-1.544 4.805l13.119 24.273zM20.426 64.05l8.418-15.714a24.956 24.956 0 01-7.12-3.507 24.302 24.302 0 01-5.577-5.472L6.606 56.683l8.348-1.894a2.062 2.062 0 011.579.21c.49.281.853.679 1.087 1.193l2.806 7.857zm-4.63-39.355c0 2.76.526 5.366 1.578 7.822 1.053 2.455 2.503 4.595 4.35 6.419a21.33 21.33 0 006.419 4.35c2.432 1.075 5.05 1.613 7.857 1.613 2.76 0 5.367-.538 7.822-1.614 2.455-1.075 4.595-2.525 6.419-4.35 1.824-1.823 3.262-3.963 4.314-6.418 1.053-2.456 1.579-5.063 1.579-7.822 0-2.76-.526-5.367-1.579-7.822-1.052-2.456-2.49-4.595-4.314-6.42-1.824-1.823-3.964-3.273-6.419-4.349C41.367 5.028 38.759 4.49 36 4.49c-2.806 0-5.425.538-7.857 1.613a21.33 21.33 0 00-6.42 4.35c-1.846 1.824-3.296 3.963-4.349 6.419-1.052 2.455-1.578 5.062-1.578 7.822zm41.25 30.095l8.348 1.894-9.47-17.468a25.543 25.543 0 01-5.718 5.613 24.736 24.736 0 01-7.26 3.577l8.628 15.715 2.806-7.928A2.563 2.563 0 0155.467 55a2.062 2.062 0 011.579-.21z" fill-rule="nonzero" fill="#fff"/></symbol></svg>