<svg width="528" height="278" fill="none" xmlns="http://www.w3.org/2000/svg"><path fill="#F7DF9E" d="M0 0h528v278H0z"/><path fill-rule="evenodd" clip-rule="evenodd" d="M277.963 150.194v6.05c-.545.326-1.203.576-1.974.752-.772.175-1.559.263-2.363.263-1.115 0-2.123-.175-3.024-.527-.901-.351-1.67-.833-2.305-1.444a6.179 6.179 0 01-1.459-2.186c-.337-.846-.505-1.77-.505-2.772 0-1.132.201-2.163.603-3.093a7.492 7.492 0 011.624-2.401 7.309 7.309 0 012.372-1.561 7.411 7.411 0 012.849-.557c.337 0 .691.023 1.06.069.37.045.736.114 1.099.205.363.091.713.198 1.05.322.337.123.642.27.914.439l-1.167 1.952a2.896 2.896 0 00-.651-.303 9.424 9.424 0 00-.788-.224 7.381 7.381 0 00-.807-.147 6.291 6.291 0 00-.749-.049c-.661 0-1.293.134-1.896.401a5.39 5.39 0 00-1.604 1.083c-.467.455-.84.998-1.118 1.63a4.938 4.938 0 00-.419 2.02c0 .65.124 1.268.37 1.854.246.585.59 1.103 1.031 1.552.441.448.966.806 1.575 1.073.609.267 1.277.4 2.003.4.259 0 .584-.023.973-.068a5.549 5.549 0 001.108-.244v-2.42h-2.645v-2.069h4.843zm8.012 7.065a6.016 6.016 0 01-2.149-.38 5.314 5.314 0 01-1.74-1.064 4.938 4.938 0 01-1.167-1.649c-.286-.644-.428-1.357-.428-2.138v-9.153h2.373v9.095c0 .416.081.807.243 1.171.162.364.382.683.661.956.279.274.606.491.982.654.376.163.784.244 1.225.244.441 0 .853-.081 1.235-.244.383-.163.716-.38 1.002-.654.285-.273.509-.592.671-.956a2.85 2.85 0 00.243-1.171v-9.095h2.372v9.153c0 .781-.142 1.494-.427 2.138a4.894 4.894 0 01-1.177 1.649 5.418 5.418 0 01-1.76 1.064 6.094 6.094 0 01-2.159.38zm8.654-.156v-14.228h9.413v2.166h-7.04v3.826h6.262v2.225h-6.262v3.786h7.313v2.225h-9.686zm12.039 0v-14.228h4.006c.778 0 1.488.104 2.13.312.641.208 1.186.507 1.633.898.447.39.794.871 1.041 1.444.246.573.369 1.217.369 1.932 0 .391-.039.781-.117 1.171a4.998 4.998 0 01-.369 1.132c-.169.365-.389.7-.661 1.006a4.047 4.047 0 01-.973.79l.837 1.337a293.77 293.77 0 001.691 2.684l.973 1.522h-2.859l-1.653-2.586a209.678 209.678 0 00-1.497-2.313h-2.179v4.899h-2.372zm2.372-7.143h1.906c.493 0 .901-.085 1.225-.254.325-.169.584-.374.778-.615a2.15 2.15 0 00.409-.781c.078-.279.116-.536.116-.771 0-.221-.035-.471-.107-.751-.071-.28-.2-.543-.388-.791a2.259 2.259 0 00-.769-.624c-.324-.169-.739-.254-1.244-.254h-1.926v4.841zm22.521-7.085v14.892a8.917 8.917 0 00-.603-.644 74.42 74.42 0 00-1.147-1.123l-1.508-1.444a411.038 411.038 0 00-1.682-1.601c-.57-.54-1.128-1.07-1.672-1.59-.545-.521-1.041-.999-1.488-1.435-.447-.436-.823-.806-1.128-1.112a8.427 8.427 0 01-.593-.635 1.856 1.856 0 00-.156-.205 5.383 5.383 0 01-.233-.302l.058.625v8.802h-2.372V142.23c.09.118.291.329.602.635.312.306.694.673 1.148 1.103.454.429.956.897 1.507 1.405l1.682 1.551c.571.527 1.128 1.048 1.673 1.562.544.514 1.044.982 1.497 1.405.454.423.833.784 1.138 1.083.305.3.502.508.593.625l.37.547-.059-.664v-8.607h2.373zm3.267 0h2.392v14.228h-2.392v-14.228zm16.336 13.174a6.698 6.698 0 01-1.643.771 9.52 9.52 0 01-1.293.312c-.48.085-.992.127-1.537.127-1.115 0-2.113-.192-2.995-.576a6.66 6.66 0 01-2.236-1.551 6.74 6.74 0 01-1.4-2.284 7.836 7.836 0 01-.487-2.752c0-1.067.195-2.052.584-2.957a7.283 7.283 0 011.585-2.342 7.174 7.174 0 012.334-1.532 7.436 7.436 0 012.849-.547c.389 0 .781.03 1.176.088.396.059.769.134 1.119.225s.658.195.923.312c.266.117.457.241.574.371a8.392 8.392 0 00-.272.449l-.204.361c-.072.123-.149.263-.234.419-.084.157-.204.371-.36.645a2.48 2.48 0 00-.563-.274 4.643 4.643 0 00-.691-.185 8.763 8.763 0 00-.729-.107 6.136 6.136 0 00-.661-.04c-.726 0-1.397.137-2.013.41a5.215 5.215 0 00-1.595 1.084 4.9 4.9 0 00-1.05 1.571 4.713 4.713 0 00-.379 1.854c0 .625.12 1.233.359 1.825.24.592.577 1.116 1.012 1.571.434.455.949.823 1.546 1.103.596.28 1.257.419 1.983.419.415 0 .817-.042 1.206-.126a8.962 8.962 0 001.031-.283c.298-.105.541-.209.729-.313.188-.104.289-.175.302-.214l1.03 2.166zm10.483 1.054a54.105 54.105 0 01-.204-.488l-.36-.859c-.143-.338-.298-.712-.467-1.122l-.525-1.278h-4.881l-1.556 3.747h-2.353a715.783 715.783 0 011.098-2.586l.973-2.284c.356-.839.723-1.694 1.099-2.566.376-.872.742-1.728 1.098-2.567l.973-2.283c.291-.684.535-1.256.729-1.718.195-.462.318-.751.37-.869l.379.869c.201.462.447 1.034.739 1.718.292.683.616 1.444.972 2.283.357.839.723 1.695 1.099 2.567.376.872.742 1.727 1.099 2.566.356.84.68 1.601.972 2.284a477.69 477.69 0 011.099 2.586h-2.353zm-5.621-5.758h3.229l-1.401-3.396a1.555 1.555 0 01-.097-.263 3.876 3.876 0 01-.116-.439c-.026.13-.065.276-.117.439a2.73 2.73 0 00-.078.263l-1.42 3.396zm-89.238-16.198v-10.291h2.801c.537 0 1.03.071 1.478.213.448.142.834.352 1.159.631.326.279.578.62.757 1.022.179.402.269.864.269 1.384 0 .284-.028.566-.085.845a3.378 3.378 0 01-.276.809c-.127.26-.29.501-.488.724a2.608 2.608 0 01-.721.561c.377.596.787 1.256 1.23 1.98.444.724.891 1.431 1.344 2.122h-1.853c-.188-.293-.384-.601-.587-.923-.202-.322-.405-.641-.608-.958-.203-.317-.401-.629-.594-.937-.193-.307-.375-.594-.545-.859h-1.725v3.677h-1.556zm1.556-5.139h1.4c.377 0 .693-.064.948-.191.254-.128.455-.287.601-.476.146-.189.25-.393.311-.61.061-.218.092-.417.092-.596 0-.18-.031-.377-.092-.589a1.664 1.664 0 00-.318-.597 1.778 1.778 0 00-.601-.461c-.25-.123-.559-.184-.927-.184h-1.414v3.704zm7.326 5.139v-10.291h6.733v1.405h-5.177v3.009h4.611v1.434h-4.611v3.009h5.375v1.434h-6.931zm10.283-5.139h1.4c.377 0 .693-.066.948-.198.255-.133.455-.294.601-.483.146-.189.25-.393.311-.61.062-.218.092-.412.092-.582 0-.18-.03-.377-.092-.589a1.664 1.664 0 00-.318-.597 1.778 1.778 0 00-.601-.461c-.25-.123-.559-.184-.927-.184h-1.414v3.704zm-1.556 5.139v-10.291h2.801c.537 0 1.03.071 1.478.213.448.142.834.352 1.16.631.325.279.577.62.756 1.022.179.402.269.864.269 1.384 0 .407-.061.812-.184 1.214-.122.402-.32.762-.594 1.079a3.016 3.016 0 01-1.075.773c-.443.199-.98.298-1.612.298h-1.443v3.677h-1.556zm8.161 0v-10.291h6.733v1.405h-5.177v3.009h4.611v1.434h-4.611v3.009h5.375v1.434h-6.931zm17.723-10.291v10.759c-.132-.17-.387-.444-.764-.823l-1.301-1.306a183.005 183.005 0 00-1.563-1.547c-.552-.54-1.073-1.053-1.563-1.54-.491-.488-.92-.923-1.287-1.306a11.74 11.74 0 01-.736-.816l-.269-.369.043.454v6.785h-1.556v-10.774c.104.133.276.322.516.568.241.246.524.532.849.859.325.326.684.679 1.075 1.057l1.188 1.15c.401.388.797.769 1.188 1.143.391.373.75.721 1.075 1.043.325.322.606.606.842.852.235.246.4.43.495.553l.268.398-.042-.483v-6.657h1.542zm8.387.567l-.552 1.264a9.046 9.046 0 00-1.152-.341 5.055 5.055 0 00-1.097-.128c-.594 0-1.067.123-1.421.369-.354.246-.53.559-.53.937 0 .322.127.58.381.774.255.194.571.369.948.525.377.156.787.312 1.231.469.443.156.853.357 1.23.603s.693.556.948.93c.254.373.382.854.382 1.44 0 .455-.083.864-.248 1.228-.165.365-.41.679-.735.944a3.41 3.41 0 01-1.217.61c-.485.142-1.053.213-1.704.213-.415 0-.79-.028-1.124-.085a6.078 6.078 0 01-.906-.22 5.162 5.162 0 01-.707-.291 8.136 8.136 0 01-.516-.284l.679-1.348c.377.217.797.393 1.259.525.462.133.881.199 1.258.199.189 0 .422-.024.701-.071.278-.048.544-.13.799-.249.254-.118.473-.276.657-.475.184-.199.276-.45.276-.752 0-.275-.073-.509-.219-.703a2.06 2.06 0 00-.58-.511 5.13 5.13 0 00-.82-.398c-.307-.118-.62-.241-.941-.369a17.712 17.712 0 01-.94-.404 3.634 3.634 0 01-.821-.518 2.467 2.467 0 01-.58-.71c-.146-.27-.219-.594-.219-.972 0-.35.071-.696.212-1.037.142-.34.354-.643.637-.908a3.197 3.197 0 011.053-.639c.42-.161.908-.241 1.464-.241.34 0 .672.028.997.085.326.057.62.121.884.192.264.071.488.139.672.206.184.066.304.113.361.141zm8.472 9.724a29.08 29.08 0 01-.198-.454c-.085-.199-.181-.429-.29-.689l-.353-.852a62.507 62.507 0 01-.389-.958h-3.621l-1.217 2.953h-1.527l4.568-10.774c.057.133.158.374.304.724l.524 1.256a451.785 451.785 0 001.442 3.414 727.224 727.224 0 011.45 3.407c.208.492.384.911.531 1.256l.304.717h-1.528zm-4.314-4.259h2.56a77.64 77.64 0 01-.375-.901c-.117-.289-.226-.554-.325-.795a140.79 140.79 0 00-.261-.632 8.2 8.2 0 01-.17-.425 3.939 3.939 0 01-.142-.511 2.66 2.66 0 01-.085.312c-.037.113-.061.18-.07.199l-1.132 2.753zm7.115 4.259v-10.291h2.8c.538 0 1.03.071 1.478.213.448.142.835.352 1.16.631.325.279.577.62.757 1.022.179.402.268.864.268 1.384 0 .284-.028.566-.084.845a3.242 3.242 0 01-.764 1.533 2.613 2.613 0 01-.722.561c.378.596.788 1.256 1.231 1.98.443.724.891 1.431 1.344 2.122h-1.853c-.189-.293-.384-.601-.587-.923-.203-.322-.406-.641-.608-.958-.203-.317-.401-.629-.594-.937-.194-.307-.375-.594-.545-.859h-1.726v3.677h-1.555zm1.555-5.139h1.401c.377 0 .693-.064.947-.191a1.714 1.714 0 00.913-1.086c.061-.218.092-.417.092-.596 0-.18-.031-.377-.092-.589a1.682 1.682 0 00-.319-.597 1.768 1.768 0 00-.601-.461c-.25-.123-.558-.184-.926-.184h-1.415v3.704zm-111.469 23.995c0-1.838-.909-2.642-2.807-3.248-.812-.263-1.801-.493-1.801-1.133 0-.524.323-.754.811-.754h.275c.552 0 .958.295 1.25.853.065.131.211.131.325.049l1.687-1.132c.163-.098.097-.262.032-.361a3.675 3.675 0 00-.778-.951c-.633-.559-1.493-.869-2.548-.869h-.243c-2.224 0-3.571 1.214-3.571 3.247 0 1.822.974 2.544 2.71 3.15 1.088.378 1.899.476 1.899 1.214 0 .476-.325.755-.828.755h-.502c-.552 0-.959-.295-1.25-.853-.065-.131-.211-.131-.325-.049l-1.687 1.132c-.163.098-.098.246-.033.344.179.312.39.591.649.837.649.64 1.558 1.001 2.678 1.001h.503c2.288 0 3.553-1.214 3.553-3.232h.001zm21.461 2.854v-10.052c0-.131-.113-.164-.178-.164h-2.384c-.082 0-.146.033-.146.164v10.052c0 .132.065.165.146.165h2.385c.097 0 .178-.033.178-.165h-.001zm-3.838-7.945v-2.107c0-.131-.097-.163-.162-.163h-6.749c-.081 0-.146.032-.146.163v10.052c0 .132.065.165.146.165h2.4c.082 0 .164-.033.164-.165v-3.701c0-.116.048-.182.194-.182h3.277c.081 0 .162-.032.162-.148v-2.122c0-.115-.081-.148-.162-.148h-3.277c-.146 0-.195-.066-.195-.181v-1.135c0-.114.049-.18.195-.18h3.991c.097 0 .162-.033.162-.149v.001zm13.854 7.896l-3.395-10.043c-.032-.099-.081-.115-.146-.115h-1.771c-.098 0-.13.032-.162.115l-3.396 10.043c-.049.131.016.214.162.214h2.503c.081 0 .113-.033.146-.115l.438-1.233c.033-.083.065-.115.195-.115h1.95c.131 0 .179.032.211.115l.423 1.233c.031.082.048.115.146.115h2.551c.178 0 .194-.083.146-.214h-.001zm-3.817-3.337c.016.082-.033.148-.146.148h-.943c-.13 0-.178-.065-.162-.149l.292-1.281c.228-.969.341-2.022.341-2.022h.049s.114 1.053.308 2.022l.261 1.282zm-47.783 3.36v-10.024c0-.131-.098-.164-.162-.164h-2.288c-.098 0-.147.033-.147.164v2.657c0 1.461.081 2.741.081 2.741h-.048s-.13-.362-.357-.788l-2.401-4.626c-.05-.099-.115-.148-.211-.148h-2.062c-.081 0-.146.033-.146.164v10.024c0 .131.065.164.146.164h2.337c.098 0 .163-.033.163-.164v-2.609c0-1.345-.098-2.641-.098-2.641h.065s.13.361.341.738l2.418 4.528c.048.082.097.148.178.148h2.028c.098 0 .163-.033.163-.164zm-9.307 0v-10.024c0-.131-.113-.164-.178-.164h-2.386c-.082 0-.146.033-.146.164v10.024c0 .131.065.164.146.164h2.386c.097 0 .178-.033.178-.164zm38.705-2.681v-4.609c0-1.87-1.411-3.084-3.488-3.084h-1.135c-2.079 0-3.522 1.229-3.522 3.084v4.609c0 1.854 1.411 3.085 3.521 3.085h1.135c2.078 0 3.489-1.231 3.489-3.085zm-2.693 0c0 .394-.292.673-.795.673h-1.135c-.569 0-.861-.263-.861-.673v-4.609c0-.345.389-.689.86-.689h1.135c.471 0 .796.295.796.689v4.609zm-16.78 2.632l-3.392-10.024c-.032-.099-.081-.115-.146-.115h-1.767c-.098 0-.13.033-.163.115l-3.391 10.024c-.049.13.016.213.162.213h2.499c.082 0 .113-.033.147-.115l.437-1.23c.033-.082.065-.116.195-.116h1.947c.131 0 .179.034.212.116l.421 1.23c.033.082.049.115.146.115h2.548c.179 0 .195-.082.146-.214l-.001.001zm-3.814-3.33c.017.081-.032.147-.145.147h-.942c-.13 0-.178-.066-.161-.147l.291-1.281c.228-.967.34-2.017.34-2.017h.05s.113 1.05.308 2.018l.26 1.28h-.001zm-19.694 3.379v-2.1c0-.115-.081-.147-.162-.147h-3.991c-.147 0-.196-.065-.196-.181v-1.263c0-.115.049-.181.196-.181h3.277c.081 0 .162-.033.162-.148v-2.116c0-.115-.081-.148-.162-.148h-3.278c-.146 0-.195-.065-.195-.18v-1.133c0-.114.049-.179.195-.179h3.992c.097 0 .162-.034.162-.149v-2.099c0-.131-.097-.164-.162-.164h-6.75c-.081 0-.147.033-.147.164v10.024c0 .131.066.164.147.164h6.75c.097 0 .162-.033.162-.164zm-11.4-6.776c0 .444-.309.657-.811.657h-1.77c-.146 0-.195-.065-.195-.181v-1.297c0-.114.049-.179.195-.179h1.77c.534 0 .811.246.811.688v.312zm3.002 6.726l-1.591-4.117c-.048-.147-.065-.263.082-.36.713-.461 1.184-1.247 1.184-2.265v-.148c0-2.018-1.363-3.248-3.488-3.248h-4.528c-.082 0-.146.033-.146.164v10.024c0 .131.065.164.146.164h2.4c.081 0 .163-.033.163-.164v-3.691c0-.115.048-.181.194-.181h1.119c.065 0 .115.033.147.115l1.493 3.806c.032.066.081.115.146.115h2.532c.162 0 .194-.099.146-.214h.001zm45.007-30.005c0 1.326-.986 2.205-2.438 2.205h-.792c-1.473 0-2.459-.879-2.459-2.205v-3.297c0-1.326 1.008-2.206 2.459-2.206h.793c1.452 0 2.437.868 2.437 2.205v.633h-1.881v-.633c0-.281-.227-.492-.556-.492h-.793c-.329 0-.601.247-.601.493v3.297c0 .293.204.481.601.481h.793c.352 0 .556-.2.556-.481v-.632h1.881v.632zm-46.745 1.954v-7.176c0-.094-.046-.118-.113-.118h-1.645a.13.13 0 00-.067.019.138.138 0 00-.047.052l-1.304 3.606a6.924 6.924 0 00-.148.47h-.045s-.023-.212-.125-.47l-1.349-3.605a.119.119 0 00-.047-.052.125.125 0 00-.068-.019h-1.689c-.069 0-.102.024-.102.118v7.175c0 .093.033.117.102.117h1.599c.079 0 .114-.023.114-.117v-1.539c0-1.115-.103-2.137-.103-2.137h.035s.102.493.283 1.022l.602 1.773c.033.094.135.117.203.117h1.101c.068 0 .158-.023.192-.117l.601-1.738c.182-.528.284-1.057.284-1.057h.035s-.08 1.057-.08 2.16v1.516c0 .093.023.117.102.117h1.566c.067 0 .113-.023.113-.117zm18.874-.005v-1.503c0-.082-.057-.105-.114-.105h-2.641c-.102 0-.135-.047-.135-.131v-.903c0-.082.033-.129.135-.129h2.142c.058 0 .114-.023.114-.106v-1.515c0-.082-.056-.105-.114-.105h-2.142c-.102 0-.135-.046-.135-.13v-.81c0-.081.033-.129.135-.129h2.642c.067 0 .112-.023.112-.105v-1.503c0-.094-.067-.118-.112-.118h-4.569c-.058 0-.103.024-.103.118v7.174c0 .093.045.117.103.117h4.568c.068 0 .114-.023.114-.117zm-5.801-2.043c0-1.315-.635-1.891-1.962-2.326-.568-.187-1.259-.351-1.259-.809 0-.377.226-.539.567-.539h.193c.385 0 .669.21.873.609.046.094.148.094.227.035l1.179-.809c.114-.072.068-.189.023-.26a2.616 2.616 0 00-.545-.681c-.442-.399-1.043-.621-1.78-.621h-.171c-1.553 0-2.495.868-2.495 2.325 0 1.302.68 1.819 1.894 2.254.761.27 1.327.34 1.327.869 0 .34-.226.539-.578.539h-.351c-.386 0-.67-.21-.874-.61-.045-.093-.148-.093-.227-.034l-1.179.809c-.114.071-.068.177-.023.247.125.224.273.423.453.599.454.458 1.089.716 1.872.716h.352c1.6 0 2.484-.869 2.484-2.313zm12.358.105v-3.298c0-1.339-.987-2.207-2.44-2.207h-.793c-1.451 0-2.462.88-2.462 2.207v3.299c0 1.328.986 2.208 2.462 2.208h.793c1.453 0 2.44-.88 2.44-2.208v-.001zm-1.883 0c0 .282-.205.482-.557.482h-.793c-.397 0-.602-.188-.602-.482v-3.298c0-.247.273-.493.602-.493h.793c.33 0 .557.212.557.493v3.299-.001zm-16.547.005v-5.238c0-.093-.034-.117-.102-.117h-1.667c-.057 0-.102.024-.102.118v5.238c0 .293-.171.481-.568.481h-.793c-.42 0-.601-.188-.601-.482v-5.238c0-.093-.057-.117-.103-.117h-1.644c-.068 0-.103.024-.103.118v5.238c0 1.326.976 2.207 2.451 2.207h.793c1.451 0 2.439-.881 2.439-2.208zm26.654 1.94v-7.175c0-.094-.069-.118-.114-.118h-1.6c-.068 0-.102.024-.102.118v1.902c0 1.045.057 1.961.057 1.961h-.034s-.09-.258-.249-.564l-1.68-3.311c-.033-.071-.079-.106-.147-.106h-1.441c-.055 0-.102.024-.102.118v7.175c0 .093.047.117.102.117h1.634c.068 0 .113-.023.113-.117v-1.867c0-.963-.067-1.891-.067-1.891h.045s.09.258.238.529l1.69 3.241c.034.058.069.105.125.105h1.418c.068 0 .114-.023.114-.117zm41.64 0v-1.504c0-.082-.057-.106-.114-.106h-2.791c-.102 0-.135-.046-.135-.128v-5.437c0-.094-.068-.118-.114-.118h-1.678c-.057 0-.103.024-.103.118v7.175c0 .093.046.117.103.117h4.718c.068 0 .114-.023.114-.117zm-12.526 0v-7.175c0-.094-.068-.118-.113-.118h-1.6c-.068 0-.102.024-.102.118v1.902c0 1.045.056 1.961.056 1.961h-.034s-.09-.258-.249-.564l-1.679-3.311c-.034-.071-.08-.106-.148-.106h-1.44c-.057 0-.102.024-.102.118v7.175c0 .093.045.117.102.117h1.633c.068 0 .113-.023.113-.117v-1.867c0-.963-.068-1.891-.068-1.891h.047s.09.258.237.529l1.69 3.241c.034.058.068.105.125.105h1.418c.068 0 .113-.023.113-.117h.001zm-13.161 0v-7.175c0-.094-.08-.118-.124-.118h-1.668c-.056 0-.103.024-.103.118v7.175c0 .093.047.117.103.117h1.668c.067 0 .124-.023.124-.117zm19.902-.036l-2.37-7.174c-.024-.071-.058-.083-.103-.083h-1.237c-.067 0-.09.024-.112.083l-2.371 7.174c-.034.093.011.153.113.153h1.747c.056 0 .08-.023.102-.082l.306-.881c.022-.059.046-.082.136-.082h1.361c.091 0 .126.023.149.082l.294.881c.022.059.034.082.102.082h1.781c.124 0 .136-.059.102-.153zm-2.666-2.383c.012.058-.022.105-.102.105h-.657c-.091 0-.125-.047-.114-.105l.204-.916c.158-.694.238-1.445.238-1.445h.035s.079.751.214 1.445l.182.916zm-10.615.481v-3.3c0-1.339-.986-2.208-2.438-2.208h-.795c-1.451 0-2.461.881-2.461 2.208v3.3c0 1.326.987 2.207 2.461 2.207h.795c1.451 0 2.438-.881 2.438-2.207zm-1.883 0c0 .282-.204.482-.555.482h-.795c-.396 0-.601-.188-.601-.482v-3.3c0-.246.272-.493.601-.493h.795c.329 0 .555.212.555.493v3.3zm-13.72 1.901l-2.371-7.174c-.022-.071-.056-.082-.102-.082h-1.237c-.067 0-.09.023-.112.082l-2.372 7.174c-.033.094.012.154.114.154h1.747c.057 0 .079-.024.102-.083l.306-.88c.023-.06.045-.083.136-.083h1.361c.091 0 .125.023.148.083l.295.88c.022.059.033.083.102.083h1.781c.125 0 .136-.06.102-.154zm-2.666-2.383c.011.059-.022.106-.102.106h-.658c-.09 0-.125-.047-.114-.106l.205-.915c.158-.694.238-1.445.238-1.445h.034s.08.751.216 1.445l.181.915zm-39.014 9.809c0 1.326-.986 2.206-2.437 2.206h-.793c-1.473 0-2.46-.88-2.46-2.206v-3.298c0-1.326 1.01-2.205 2.46-2.205h.794c1.45 0 2.436.867 2.436 2.205v.633h-1.882v-.633c0-.281-.226-.493-.554-.493h-.794c-.328 0-.601.247-.601.493v3.298c0 .293.205.481.601.481h.794c.35 0 .554-.199.554-.481v-.633h1.882v.633zm19.348-3.673v-1.503c0-.094-.068-.117-.102-.117h-4.956c-.055 0-.113.023-.113.117v1.503c0 .082.057.106.113.106h1.39c.125 0 .147.047.147.129v5.438c0 .093.046.117.103.117h1.667c.055 0 .113-.024.113-.117v-5.438c0-.082.022-.129.136-.129h1.401c.056 0 .102-.024.102-.106h-.001zm-6.309 5.673v-7.176c0-.094-.068-.117-.112-.117h-1.601c-.068 0-.102.023-.102.117v1.902c0 1.046.058 1.961.058 1.961h-.035s-.09-.257-.249-.562l-1.678-3.312c-.035-.072-.08-.106-.148-.106h-1.44c-.057 0-.103.023-.103.117v7.176c0 .093.046.117.103.117h1.632c.068 0 .114-.023.114-.117v-1.868c0-.963-.068-1.89-.068-1.89h.047s.09.257.237.528l1.69 3.241c.034.059.068.106.125.106h1.418c.067 0 .112-.023.112-.117zm19.923-1.998v-3.301c0-1.339-.986-2.207-2.438-2.207h-.793c-1.452 0-2.462.88-2.462 2.207v3.3c0 1.327.986 2.208 2.462 2.208h.793c1.451 0 2.438-.881 2.438-2.208v.001zm-1.882 0c0 .282-.204.481-.556.481h-.793c-.398 0-.601-.188-.601-.482v-3.3c0-.246.271-.493.601-.493h.793c.329 0 .556.211.556.493v3.301zm-4.67 1.963l-1.111-2.949c-.034-.105-.045-.187.056-.258.5-.328.828-.893.828-1.621v-.106c0-1.444-.952-2.325-2.437-2.325h-3.165c-.057 0-.102.024-.102.118v7.176c0 .093.045.117.102.117h1.678c.057 0 .114-.023.114-.117v-2.643c0-.083.033-.129.136-.129h.782c.046 0 .08.023.102.082l1.044 2.725c.022.047.056.082.102.082h1.769c.113 0 .137-.07.102-.152zm-2.097-4.815c0 .316-.215.469-.567.469h-1.237c-.103 0-.136-.046-.136-.13v-.927c0-.082.033-.129.136-.129h1.237c.373 0 .566.176.566.493v.224h.001zm-18.109 4.85v-1.503c0-.083-.056-.106-.113-.106h-2.79c-.103 0-.136-.047-.136-.13v-.904c0-.083.034-.129.136-.129h2.291c.056 0 .114-.023.114-.106v-1.515c0-.083-.057-.106-.114-.106h-2.291c-.103 0-.136-.046-.136-.129v-.809c0-.083.034-.131.136-.131h2.791c.068 0 .112-.023.112-.105v-1.503c0-.094-.068-.117-.113-.117h-4.718c-.057 0-.102.023-.102.117v7.176c0 .093.045.117.102.117h4.718c.069 0 .113-.023.113-.117zm70.144 0v-1.503c0-.083-.057-.106-.114-.106h-2.791c-.102 0-.135-.047-.135-.13v-.904c0-.082.034-.129.136-.129h2.291c.056 0 .113-.023.113-.105v-1.517c0-.081-.056-.105-.113-.105h-2.291c-.102 0-.136-.046-.136-.128v-.811c0-.082.034-.129.136-.129h2.79c.068 0 .114-.024.114-.106v-1.503c0-.094-.069-.117-.114-.117h-4.718c-.056 0-.103.023-.103.117v7.176c0 .093.047.117.103.117h4.718c.068 0 .114-.024.114-.117zm-6.283-5.673v-1.503c0-.094-.069-.117-.103-.117h-4.957c-.056 0-.114.023-.114.117v1.503c0 .082.057.106.114.106h1.39c.124 0 .146.047.146.129v5.438c0 .093.046.117.103.117h1.667c.056 0 .113-.024.113-.117v-5.438c0-.082.023-.129.136-.129h1.401c.056 0 .103-.024.103-.106h.001zm-21.856 5.673v-1.503c0-.083-.056-.106-.113-.106h-2.79c-.103 0-.136-.047-.136-.13v-.904c0-.082.033-.129.136-.129h2.291c.057 0 .113-.023.113-.105v-1.517c0-.081-.056-.105-.113-.105h-2.291c-.103 0-.136-.046-.136-.128v-.811c0-.082.033-.129.136-.129h2.79c.068 0 .113-.024.113-.106v-1.503c0-.094-.068-.117-.113-.117h-4.718c-.057 0-.102.023-.102.117v7.176c0 .093.045.117.102.117h4.718c.068 0 .113-.024.113-.117zm-8.254-2.091c0 .247-.249.482-.567.482h-1.236c-.103 0-.136-.047-.136-.13v-3.699c0-.082.034-.129.136-.129h1.237c.306 0 .566.258.566.493v2.983zm1.872-.093v-2.784c0-1.444-.953-2.325-2.438-2.325h-3.165c-.057 0-.102.023-.102.117v7.176c0 .093.045.117.102.117h3.165c1.485 0 2.437-.881 2.437-2.302l.001.001zm22.517 2.149l-1.112-2.949c-.033-.105-.044-.187.057-.258.5-.328.828-.893.828-1.621v-.106c0-1.443-.952-2.325-2.438-2.325h-3.164c-.057 0-.102.024-.102.118v7.176c0 .093.045.117.102.117h1.678c.056 0 .114-.023.114-.117v-2.643c0-.082.033-.129.135-.129h.783c.046 0 .08.024.102.083l1.044 2.724c.022.046.056.082.102.082h1.769c.113 0 .136-.07.102-.152zm-2.098-4.815c0 .316-.216.469-.567.469h-1.237c-.102 0-.135-.046-.135-.13v-.927c0-.082.033-.129.135-.129h1.237c.374 0 .567.176.567.493v.224zm-4.807 4.815l-2.371-7.177c-.022-.07-.056-.081-.102-.081h-1.236c-.068 0-.091.023-.113.081l-2.371 7.177c-.035.093.011.152.112.152h1.747c.057 0 .08-.023.103-.082l.307-.88c.021-.059.044-.083.134-.083h1.361c.092 0 .126.024.148.083l.295.88c.023.059.034.082.103.082h1.78c.125 0 .136-.058.103-.152zm-2.666-2.385c.011.059-.022.106-.102.106h-.658c-.09 0-.125-.047-.112-.106l.203-.916c.158-.693.238-1.445.238-1.445h.035s.079.752.215 1.445l.181.916z" fill="#242424"/><path fill-rule="evenodd" clip-rule="evenodd" d="M166.47 141.206h87.974v-22.734h-87.973l-.002 22.734h.001zm87.975 2.471h-87.974v16.308h87.973l.001-16.308zM164 162.456h92.914V116H164v46.456z" fill="#242424"/></svg>