<svg width="200" height="87" fill="none" xmlns="http://www.w3.org/2000/svg"><g clip-path="url(#clip0)" fill="#fff"><g clip-path="url(#clip1)"><path d="M7.273 11.373v12.02h.1c1.617-2.221 3.637-3.232 6.364-3.232 5.05 0 7.475 3.435 7.475 8.485v12.425h-7.07V30.667c0-2.324-.304-4.849-3.233-4.849-2.828 0-3.737 2.424-3.737 4.848v10.405H.102V11.374h7.17zM38.687 27.94c-.303-1.92-2.121-3.233-4.04-3.233-2.02 0-3.738 1.11-4.243 3.232h8.283zm6.666 4.14H30.404c0 2.93 1.515 4.546 4.444 4.546 1.516 0 2.627-.505 3.435-1.818h6.868c-1.11 4.747-5.656 6.97-10.202 6.97-6.666 0-11.616-3.839-11.616-10.808 0-6.768 4.546-10.809 11.111-10.809 6.97 0 10.91 4.344 10.91 11.212v.708zm2.021 8.99h7.07V11.374h-7.07v29.698m20.606-9.901l4.747-10.404h7.98L70.303 41.07h-4.646L55.152 20.767h7.98l4.848 10.404zm26.364-3.231c-.304-1.92-2.122-3.233-4.04-3.233-2.021 0-3.738 1.11-4.243 3.232h8.282zm6.565 4.14h-14.95c0 2.93 1.516 4.546 4.445 4.546 1.515 0 2.626-.505 3.434-1.818h6.869c-1.111 4.747-5.656 6.97-10.202 6.97-6.667 0-11.616-3.839-11.616-10.808 0-6.768 4.545-10.809 11.111-10.809 6.97 0 10.909 4.344 10.909 11.212v.708zm10.505 8.99h-7.07V26.727h-2.324v-5.96h2.324v-6.06h7.07v6.06h4.041v5.96h-4.041V41.07m12.424 0h-7.07V20.767h7.07V41.07zm.505-26.666c0 2.222-1.818 4.04-3.939 4.04-2.222 0-3.939-1.818-3.939-4.04 0-2.223 1.818-4.04 3.939-4.04s3.939 1.817 3.939 4.04zm8.889 16.566c0 2.525 1.717 4.545 4.546 4.545 2.929 0 4.545-2.02 4.545-4.546 0-2.525-1.717-4.545-4.545-4.545-2.829-.101-4.546 2.02-4.546 4.546zm16.061 10.1h-7.071v-2.222h-.101c-1.212 2.02-3.737 2.93-6.061 2.93-5.959 0-10.101-5.051-10.101-10.808 0-5.758 4.142-10.809 10-10.809 2.324 0 4.748.91 6.162 2.627v-2.02h7.071V41.07m17.172-6.97l7.979-2.12 1.718-4.04-3.536-8.284-.808 2.02-5.353 12.425zm17.878-25.959L180.909.565l-8.081 1.819 3.233 7.676 8.181-1.919zm-12.323 10.303l.101-.303 3.233-7.474-3.233-7.273-12.626 29.899 5.758 1.01 6.767-15.859z"/><path d="M175.253 10.666l-.202-.404-2.93-6.97-.101.102 3.233 7.272zm-.708 22.424l-6.565 1.617 11.717 2.121-1.212-3.03-3.94-.707zm-9.292 2.324l-2.223-.404h.101l-4.242-.808-2.626 6.464 27.272 4.95-3.232-7.576-15.05-2.626z"/><path d="M163.232 34.909l-4.343-.707 4.242.808.101-.101zm-.101.101h-.101l2.223.404-.102-.101-2.02-.303z"/><path d="M165.757 35.414l-.303-.101-.202.101 15.051 2.626v-.1l-14.546-2.526z"/><path d="M165.252 35.414l.202-.101h-.303l.101.101zm-.1-.101l-1.92-.404-.101.1 2.021.304zm.303 0l.303.101-.303-.101zm11.01-24.243l2.02 4.647 13.434 31.313 7.98-2.323L184.646 9.15l-4.04.91-4.141 1.01z"/><path d="M180.606 10.06l4.04-.909-4.04.91zm-7.475 8.283l4.041 9.495v.101l3.939 9.091 1.515 3.636 2.223 5.152 5.959 1.111-8.99-21.01-6.06-13.838-2.627 6.262z"/><path d="M177.172 27.94v-.102l-4.041-9.495-.101.101 4.142 9.495zm-1.414-15.86v-.1l-2.728 6.262.101.101 2.627-6.262z"/><path d="M173.03 18.444l.101-.1-.101-.102v.202zm8.081 18.586l1.515 3.636-1.515-3.636zm9.697 9.9l-8.99-21.011 8.99 21.01z"/></g><path d="M49.484 66.138h1.057V57.25h-1.057v8.89zm3.106 0h.944v-2.872c0-.609 0-1.069.324-1.466.31-.386.795-.597 1.355-.597.994 0 1.48.547 1.48 1.666v3.27h.944v-3.78c0-1.256-.796-1.977-2.089-1.977-.87 0-1.541.336-2.026 1.057v-4.712h-.932v9.411zm6.932 0h.945v-2.71c0-1.454.497-2.175 1.504-2.175.174 0 .373.037.585.111l.323-.857a1.91 1.91 0 00-.647-.112c-.845 0-1.367.398-1.864 1.342v-1.156h-.846v5.557zm9.307-2.635v-.187c0-1.84-1.045-2.946-2.673-2.946-1.617 0-2.773 1.218-2.773 2.971 0 1.815 1.144 3.033 2.835 3.033 1.144 0 2.014-.51 2.573-1.516l-.72-.485c-.46.808-1.058 1.206-1.803 1.206-1.07 0-1.84-.783-1.84-1.99v-.086h4.4zm-1.02-.771h-3.381c.1-.945.783-1.53 1.69-1.53 1.007 0 1.629.548 1.691 1.53zm9.443-1.529l-1.268-.56c-.808-.348-1.193-.795-1.193-1.43 0-.758.56-1.292 1.355-1.292.634 0 1.119.348 1.504 1.02l.87-.56c-.435-.883-1.23-1.343-2.3-1.343-1.479 0-2.498.945-2.498 2.188 0 1.082.572 1.852 1.753 2.35l1.081.46c.92.398 1.38.982 1.38 1.777 0 .97-.709 1.654-1.778 1.654-.895 0-1.504-.56-1.765-1.641l-.957.472c.335 1.318 1.318 2.064 2.722 2.064 1.716 0 2.847-1.094 2.847-2.722 0-1.12-.584-1.94-1.753-2.437zm7.318 3.617c-.583.423-1.118.635-1.715.635-1.156 0-1.989-.895-1.989-2.014 0-1.318.845-2.139 2.064-2.139.547 0 1.069.174 1.541.485v-1.02a3.961 3.961 0 00-1.728-.385c-1.666 0-2.896 1.219-2.896 3.034 0 1.753 1.13 2.959 2.859 2.959.721 0 1.355-.15 1.865-.448V64.82zm1.321 1.318h.945v-2.872c0-.609 0-1.069.323-1.466.311-.386.796-.597 1.355-.597.995 0 1.48.547 1.48 1.666v3.27h.945v-3.78c0-1.256-.796-1.977-2.089-1.977-.87 0-1.541.336-2.026 1.057v-4.712h-.933v9.411zm10.327-5.756h-.15l-1.69 3.991-1.48-3.792h-1.056l2.474 5.905 1.827-4.264 1.828 4.264 2.474-5.905h-1.07l-1.491 3.792-1.666-3.99zm10.162 3.121v-.187c0-1.84-1.045-2.946-2.673-2.946-1.617 0-2.773 1.218-2.773 2.971 0 1.815 1.144 3.033 2.835 3.033 1.144 0 2.014-.51 2.573-1.516l-.721-.485c-.46.808-1.057 1.206-1.802 1.206-1.07 0-1.84-.783-1.84-1.99v-.086h4.401zm-1.02-.771h-3.381c.099-.945.783-1.53 1.69-1.53 1.007 0 1.629.548 1.691 1.53zm2.495 3.406h.945v-5.557h-.945v5.557zm-.224-8.23c0 .398.311.697.696.697a.684.684 0 00.696-.684.705.705 0 00-.696-.709.695.695 0 00-.696.696zm2.402 8.23h4.836v-.833h-3.158l3.183-4.724h-4.662v.833h2.983l-3.182 4.724zm11.097-2.635v-.187c0-1.84-1.044-2.946-2.672-2.946-1.617 0-2.773 1.218-2.773 2.971 0 1.815 1.144 3.033 2.835 3.033 1.143 0 2.014-.51 2.573-1.516l-.721-.485c-.46.808-1.057 1.206-1.803 1.206-1.069 0-1.84-.783-1.84-1.99v-.086h4.401zm-1.019-.771h-3.382c.1-.945.784-1.53 1.691-1.53 1.007 0 1.629.548 1.691 1.53zm2.457 3.406h.945v-2.71c0-1.454.498-2.175 1.505-2.175a1.8 1.8 0 01.584.111l.323-.857a1.91 1.91 0 00-.646-.112c-.846 0-1.368.398-1.865 1.342v-1.156h-.846v5.557zm10.649.348l3.742-9.237h-1.144l-2.598 6.8-2.611-6.8h-1.144l3.755 9.237zm8.844-2.983v-.187c0-1.84-1.044-2.946-2.673-2.946-1.616 0-2.772 1.218-2.772 2.971 0 1.815 1.143 3.033 2.834 3.033 1.144 0 2.014-.51 2.574-1.516l-.722-.485c-.459.808-1.056 1.206-1.802 1.206-1.069 0-1.84-.783-1.84-1.99v-.086h4.401zm-1.02-.771h-3.381c.099-.945.783-1.53 1.691-1.53 1.007 0 1.628.548 1.69 1.53zm2.458 3.406h.945v-2.71c0-1.454.497-2.175 1.504-2.175.174 0 .373.037.584.111l.324-.857a1.916 1.916 0 00-.647-.112c-.845 0-1.367.398-1.865 1.342v-1.156h-.845v5.557zm3.762-.932c.435.783 1.156 1.168 2.188 1.168 1.23 0 2.026-.733 2.026-1.765 0-.907-.534-1.305-1.616-1.653-.92-.299-1.43-.373-1.43-.958 0-.484.386-.832.945-.832.584 0 1.044.286 1.268.795l.771-.472c-.298-.709-1.019-1.107-1.977-1.107-1.181 0-1.964.709-1.964 1.679 0 1.094.82 1.33 2.188 1.802.584.2.87.423.87.846 0 .484-.41.833-1.044.833-.634 0-1.106-.286-1.417-.883l-.808.547zm5.696.932h.945v-5.557h-.945v5.557zm-.223-8.23c0 .398.31.697.696.697a.685.685 0 00.696-.684.706.706 0 00-.696-.709.694.694 0 00-.696.696zm7.449 6.912c-.585.423-1.119.635-1.716.635-1.156 0-1.989-.895-1.989-2.014 0-1.318.845-2.139 2.064-2.139.547 0 1.069.174 1.541.485v-1.02a3.961 3.961 0 00-1.728-.385c-1.666 0-2.897 1.219-2.897 3.034 0 1.753 1.132 2.959 2.86 2.959.721 0 1.355-.15 1.865-.448V64.82zm1.32 1.318h.945v-2.872c0-.609 0-1.069.323-1.466.311-.386.796-.597 1.355-.597.995 0 1.48.547 1.48 1.666v3.27h.945v-3.78c0-1.256-.796-1.977-2.089-1.977-.87 0-1.542.336-2.026 1.057v-4.712h-.933v9.411zm11.881-2.635v-.187c0-1.84-1.045-2.946-2.673-2.946-1.616 0-2.773 1.218-2.773 2.971 0 1.815 1.144 3.033 2.835 3.033 1.144 0 2.014-.51 2.573-1.516l-.721-.485c-.46.808-1.056 1.206-1.802 1.206-1.069 0-1.84-.783-1.84-1.99v-.086h4.401zm-1.02-.771h-3.381c.099-.945.783-1.53 1.691-1.53 1.007 0 1.628.548 1.69 1.53zm2.458 3.406h.945v-2.71c0-1.454.497-2.175 1.504-2.175.174 0 .373.037.584.111l.323-.857a1.906 1.906 0 00-.646-.112c-.845 0-1.368.398-1.865 1.342v-1.156h-.845v5.557zm5.216-5.557h-.945v3.32c0 1.628.883 2.473 2.499 2.473 1.666 0 2.536-.87 2.536-2.548v-3.245h-.945v2.735c-.025 1.467-.348 2.151-1.566 2.151s-1.579-.684-1.579-2.15V60.58zm5.929 5.557h.944v-2.872c0-.609 0-1.069.324-1.466.31-.386.795-.597 1.355-.597.994 0 1.479.547 1.479 1.666v3.27h.945v-3.78c0-1.256-.796-1.977-2.089-1.977-.87 0-1.541.336-2.014 1.057v-.858h-.944v5.557zm12.116-5.557h-.969v1.032c-.411-.808-1.119-1.23-2.039-1.23-1.554 0-2.611 1.106-2.611 2.958 0 1.803 1.069 2.971 2.66 2.971.858 0 1.579-.435 2.014-1.23v.932c0 .51-.024.92-.236 1.268-.286.485-.833.734-1.591.734-1.069 0-1.654-.485-1.654-1.306v-.074h-1.069c.038 1.392 1.007 2.213 2.711 2.213.982 0 1.728-.286 2.237-.846.522-.547.547-1.168.547-1.964V60.58zm-.945 2.797c0 1.28-.696 2.027-1.815 2.027-1.181 0-1.852-.758-1.852-2.101 0-1.268.671-2.002 1.815-2.002 1.069 0 1.852.784 1.852 2.076z"/></g><defs><clipPath id="clip0"><path fill="#fff" transform="translate(0 .161)" d="M0 0h200v85.859H0z"/></clipPath><clipPath id="clip1"><path fill="#fff" transform="translate(0 .161)" d="M0 0h200v47.475H0z"/></clipPath></defs></svg>