<svg width="231" height="56" fill="none" xmlns="http://www.w3.org/2000/svg"><g clip-path="url(#clip0)"><g clip-path="url(#clip1)"><g clip-path="url(#clip2)"><path fill-rule="evenodd" clip-rule="evenodd" d="M62.008 44.462c0-2.016-.99-2.898-3.058-3.563-.883-.288-1.96-.54-1.96-1.242 0-.575.352-.827.883-.827h.3c.6 0 1.043.324 1.36.936.07.144.23.144.354.054l1.837-1.242c.177-.108.106-.288.035-.396a4.048 4.048 0 00-.848-1.043c-.688-.613-1.625-.953-2.773-.953h-.265c-2.422 0-3.888 1.331-3.888 3.561 0 1.998 1.06 2.79 2.95 3.455 1.185.414 2.068.521 2.068 1.331 0 .521-.354.828-.902.828h-.547c-.6 0-1.043-.324-1.36-.936-.071-.143-.23-.143-.355-.053l-1.836 1.24c-.178.109-.106.27-.036.378.195.343.425.649.706.918.707.702 1.697 1.098 2.917 1.098h.547c2.492 0 3.87-1.331 3.87-3.544zm23.368 3.13V36.568c0-.143-.123-.18-.194-.18h-2.596c-.089 0-.159.037-.159.18v11.024c0 .144.071.18.16.18h2.596c.106 0 .194-.036.194-.18zm-4.18-8.714v-2.31c0-.143-.105-.18-.176-.18h-7.349c-.088 0-.159.037-.159.18v11.024c0 .144.07.18.16.18h2.613c.089 0 .178-.036.178-.18v-4.06c0-.126.053-.199.212-.199h3.567c.09 0 .178-.035.178-.162v-2.327c0-.127-.088-.163-.178-.163h-3.567c-.16 0-.213-.072-.213-.198v-1.245c0-.125.054-.198.213-.198h4.345c.106 0 .177-.035.177-.163v.001zm15.086 8.66l-3.696-11.015c-.036-.108-.088-.125-.16-.125h-1.928c-.107 0-.142.035-.176.125l-3.698 11.015c-.053.144.017.234.177.234h2.724c.088 0 .124-.036.16-.126l.477-1.352c.035-.09.07-.126.212-.126h2.124c.141 0 .194.035.23.126l.46 1.352c.034.09.052.126.158.126h2.778c.195 0 .212-.09.16-.234h-.002zm-4.156-3.66c.017.09-.036.162-.16.162h-1.025c-.142 0-.195-.071-.178-.163l.318-1.405c.249-1.063.372-2.218.372-2.218h.053s.124 1.155.336 2.218l.284 1.406zm-52.03 3.685V36.57c0-.144-.107-.18-.177-.18h-2.492c-.106 0-.159.036-.159.18v2.914c0 1.602.088 3.006.088 3.006h-.052s-.142-.397-.39-.864L34.3 36.552c-.054-.108-.124-.162-.23-.162h-2.245c-.088 0-.159.036-.159.18v10.993c0 .143.071.18.16.18h2.544c.106 0 .177-.036.177-.18v-2.861c0-1.476-.106-2.897-.106-2.897h.07s.143.396.372.81l2.633 4.966c.052.09.106.162.194.162h2.208c.107 0 .178-.036.178-.18zm-10.134 0V36.57c0-.144-.124-.18-.195-.18H27.17c-.09 0-.16.036-.16.18v10.993c0 .143.071.18.16.18h2.597c.106 0 .195-.036.195-.18zm42.145-2.94v-5.055c0-2.05-1.537-3.382-3.799-3.382h-1.236c-2.263 0-3.835 1.349-3.835 3.382v5.055c0 2.033 1.537 3.383 3.834 3.383h1.236c2.263 0 3.8-1.35 3.8-3.383zm-2.933 0c0 .431-.318.738-.866.738h-1.236c-.618 0-.937-.288-.937-.738v-5.055c0-.378.424-.755.936-.755h1.236c.514 0 .867.323.867.755v5.055zm-18.27 2.886L47.21 36.516c-.036-.108-.088-.126-.16-.126h-1.924c-.106 0-.142.036-.177.126L41.256 47.51c-.053.143.018.234.177.234h2.72c.09 0 .124-.036.16-.127l.477-1.349c.035-.09.07-.126.212-.126h2.12c.142 0 .195.037.23.127l.46 1.348c.035.091.053.127.159.127h2.774c.195 0 .212-.09.16-.235l-.002.001zm-4.154-3.652c.018.09-.035.161-.158.161h-1.025c-.142 0-.195-.072-.177-.161l.317-1.404c.249-1.061.371-2.213.371-2.213h.054s.123 1.152.335 2.214l.284 1.403h-.001zm-21.445 3.706V45.26c0-.126-.088-.162-.177-.162h-4.345c-.16 0-.213-.071-.213-.198v-1.385c0-.127.053-.198.213-.198h3.569c.088 0 .176-.037.176-.163v-2.32c0-.127-.088-.162-.176-.162h-3.57c-.16 0-.213-.072-.213-.198v-1.242c0-.125.054-.197.213-.197h4.346c.107 0 .177-.036.177-.163V36.57c0-.144-.106-.18-.177-.18h-7.35c-.088 0-.159.036-.159.18v10.993c0 .143.071.18.16.18h7.35c.106 0 .176-.036.176-.18zm-12.413-7.431c0 .487-.337.72-.884.72h-1.926c-.16 0-.213-.071-.213-.198v-1.422c0-.125.053-.197.213-.197h1.926c.583 0 .884.27.884.755v.342zm3.268 7.376l-1.732-4.515c-.052-.162-.07-.288.09-.395.776-.505 1.289-1.367 1.289-2.483v-.163c0-2.212-1.484-3.562-3.799-3.562h-4.93c-.09 0-.16.036-.16.18v10.993c0 .143.072.18.16.18h2.613c.089 0 .178-.036.178-.18v-4.048c0-.127.052-.198.212-.198h1.218c.071 0 .125.036.16.126l1.625 4.173c.036.073.09.127.16.127H16c.177 0 .212-.108.16-.235zm49.008-32.905c0 1.454-1.074 2.418-2.654 2.418h-.863c-1.604 0-2.677-.964-2.677-2.418v-3.616c0-1.454 1.098-2.419 2.677-2.419h.864c1.58 0 2.653.952 2.653 2.418v.694H63.12v-.694c0-.308-.247-.54-.605-.54h-.864c-.358 0-.655.27-.655.541v3.616c0 .321.223.527.655.527h.864c.383 0 .605-.219.605-.527v-.694h2.048v.694zm-50.9 2.142V8.876c0-.103-.05-.13-.123-.13h-1.791a.135.135 0 00-.124.078l-1.42 3.955c-.06.17-.113.341-.161.515h-.05s-.024-.232-.136-.515L8.995 8.825a.136.136 0 00-.125-.077H7.03c-.075 0-.111.026-.111.13v7.867c0 .102.036.129.111.129h1.742c.086 0 .123-.025.123-.129v-1.687c0-1.223-.111-2.344-.111-2.344h.037s.112.541.308 1.12l.656 1.945c.036.103.148.129.222.129h1.198c.074 0 .172-.026.21-.129l.654-1.905c.197-.58.309-1.16.309-1.16h.037s-.087 1.16-.087 2.37v1.661c0 .102.026.129.112.129h1.705c.074 0 .123-.025.123-.129zm20.552-.005v-1.648c0-.09-.062-.116-.124-.116H31.82c-.111 0-.148-.05-.148-.143v-.99c0-.09.037-.142.148-.142h2.332c.063 0 .125-.025.125-.116v-1.661c0-.09-.062-.115-.125-.115H31.82c-.111 0-.148-.051-.148-.143v-.888c0-.09.037-.142.148-.142h2.877c.073 0 .122-.025.122-.115V8.872c0-.103-.073-.128-.122-.128h-4.976c-.062 0-.111.025-.111.128v7.868c0 .102.049.129.111.129h4.975c.074 0 .124-.026.124-.129zm-6.317-2.24c0-1.443-.691-2.074-2.137-2.55-.618-.206-1.37-.386-1.37-.888 0-.413.246-.592.618-.592h.21c.419 0 .728.23.95.668.05.103.16.103.247.04l1.284-.889c.124-.078.074-.207.026-.284a2.882 2.882 0 00-.594-.747c-.481-.438-1.136-.681-1.939-.681h-.185c-1.692 0-2.717.951-2.717 2.55 0 1.427.74 1.995 2.062 2.471.828.296 1.445.373 1.445.953 0 .373-.246.592-.63.592h-.382c-.42 0-.73-.23-.951-.67-.05-.102-.161-.102-.248-.037l-1.284.887c-.124.078-.074.194-.024.272.135.244.296.463.493.656.494.503 1.185.785 2.038.785h.383c1.742 0 2.705-.953 2.705-2.536zm13.456.115v-3.617c0-1.469-1.074-2.42-2.656-2.42h-.864c-1.58 0-2.68.965-2.68 2.42v3.618c0 1.456 1.074 2.421 2.68 2.421h.864c1.582 0 2.656-.965 2.656-2.42v-.002zm-2.05 0c0 .31-.223.529-.606.529h-.864c-.432 0-.655-.206-.655-.529v-3.617c0-.27.297-.54.655-.54h.864c.359 0 .606.231.606.54v3.618zm-18.017.005V8.876c0-.102-.037-.128-.111-.128h-1.816c-.061 0-.111.026-.111.13v5.743c0 .322-.185.528-.618.528h-.864c-.457 0-.655-.206-.655-.529V8.876c0-.102-.061-.128-.111-.128h-1.791c-.074 0-.111.026-.111.13v5.743c0 1.454 1.062 2.42 2.668 2.42h.864c1.58 0 2.656-.966 2.656-2.42zm29.022 2.127V8.88c0-.104-.075-.13-.123-.13h-1.743c-.074 0-.111.026-.111.13v2.085c0 1.147.063 2.15.063 2.15h-.038s-.098-.282-.271-.618l-1.829-3.63c-.036-.078-.086-.117-.16-.117h-1.569c-.06 0-.111.026-.111.13v7.867c0 .102.05.129.111.129h1.779c.074 0 .123-.026.123-.129V14.7c0-1.056-.073-2.073-.073-2.073h.05s.097.282.258.58l1.84 3.554c.038.064.075.115.137.115h1.544c.074 0 .123-.026.123-.129zm45.342 0V15.1c0-.09-.062-.117-.124-.117h-3.039c-.111 0-.147-.05-.147-.14V8.88c0-.104-.075-.13-.124-.13h-1.828c-.061 0-.111.026-.111.13v7.867c0 .102.05.129.111.129h5.138c.074 0 .124-.026.124-.129zm-13.64 0V8.88c0-.104-.073-.13-.123-.13h-1.741c-.075 0-.111.026-.111.13v2.085c0 1.147.06 2.15.06 2.15h-.036s-.099-.282-.272-.618l-1.828-3.63c-.038-.078-.087-.117-.161-.117h-1.568c-.062 0-.112.026-.112.13v7.867c0 .102.05.129.112.129h1.778c.074 0 .123-.026.123-.129V14.7c0-1.056-.074-2.073-.074-2.073h.05s.099.282.26.58l1.84 3.554c.036.064.074.115.135.115h1.544c.074 0 .124-.026.124-.129zm-14.33 0V8.88c0-.104-.087-.13-.136-.13h-1.816c-.06 0-.112.026-.112.13v7.867c0 .102.051.129.112.129h1.816c.074 0 .136-.026.136-.129zm21.67-.038l-2.58-7.868c-.026-.078-.063-.091-.112-.091h-1.347c-.073 0-.098.026-.122.09l-2.582 7.869c-.037.102.013.167.123.167h1.902c.061 0 .088-.026.112-.09l.333-.966c.024-.064.05-.09.148-.09h1.482c.1 0 .137.026.162.09l.32.966c.025.064.038.09.112.09h1.939c.135 0 .147-.064.11-.167zm-2.902-2.614c.013.064-.025.115-.112.115h-.715c-.1 0-.136-.05-.124-.115l.222-1.005c.173-.76.26-1.584.26-1.584h.037s.086.824.234 1.584l.198 1.005zm-11.558.527v-3.618c0-1.468-1.074-2.421-2.656-2.421h-.865c-1.58 0-2.68.966-2.68 2.42v3.62c0 1.454 1.075 2.42 2.68 2.42h.865c1.58 0 2.656-.966 2.656-2.42zm-2.05 0c0 .31-.224.529-.606.529h-.865c-.431 0-.654-.206-.654-.529v-3.618c0-.27.296-.541.654-.541h.865c.359 0 .605.232.605.54v3.62zm-14.94 2.086L55.923 8.84c-.024-.078-.06-.09-.111-.09h-1.346c-.073 0-.099.025-.123.09l-2.582 7.868c-.036.103.013.168.124.168h1.902c.062 0 .086-.027.111-.09l.334-.966c.024-.065.048-.09.148-.09h1.482c.099 0 .135.025.16.09l.322.965c.024.064.036.091.111.091h1.94c.135 0 .147-.065.11-.168zm-2.904-2.614c.013.064-.024.116-.111.116h-.716c-.099 0-.136-.05-.124-.116l.223-1.004c.172-.76.26-1.584.26-1.584h.036s.087.824.235 1.584l.197 1.004zM13.121 24.85c0 1.454-1.074 2.419-2.655 2.419h-.863c-1.603 0-2.678-.965-2.678-2.419v-3.617c0-1.453 1.1-2.418 2.678-2.418h.864c1.58 0 2.653.951 2.653 2.418v.694h-2.049v-.694c0-.308-.246-.54-.604-.54h-.864c-.357 0-.654.27-.654.54v3.617c0 .321.223.527.654.527h.864c.382 0 .604-.218.604-.527v-.694h2.05v.694zm21.068-4.028v-1.648c0-.104-.074-.129-.112-.129h-5.396c-.06 0-.123.026-.123.129v1.648c0 .09.061.116.123.116h1.514c.135 0 .16.052.16.141v5.965c0 .102.05.128.11.128h1.816c.061 0 .124-.026.124-.128V21.08c0-.09.024-.14.148-.14h1.525c.061 0 .112-.027.112-.117h-.001zm-6.87 6.221v-7.87c0-.102-.074-.128-.123-.128h-1.742c-.074 0-.112.026-.112.129v2.086c0 1.147.063 2.15.063 2.15h-.037s-.099-.282-.272-.617l-1.827-3.632c-.038-.078-.087-.116-.161-.116h-1.569c-.061 0-.111.026-.111.129v7.87c0 .102.05.128.111.128h1.778c.074 0 .124-.025.124-.128v-2.05c0-1.055-.074-2.072-.074-2.072h.05s.099.283.259.58l1.84 3.554c.037.064.074.116.136.116h1.544c.074 0 .123-.025.123-.128zm21.694-2.19v-3.62c0-1.47-1.074-2.422-2.655-2.422h-.864c-1.58 0-2.68.965-2.68 2.421v3.62c0 1.455 1.073 2.421 2.68 2.421h.864c1.58 0 2.655-.966 2.655-2.422v.001zm-2.05 0c0 .308-.222.527-.605.527h-.864c-.433 0-.655-.207-.655-.529v-3.619c0-.27.296-.54.655-.54h.864c.358 0 .606.231.606.54v3.62zm-5.085 2.152l-1.21-3.234c-.037-.116-.049-.205.062-.283.544-.36.901-.98.901-1.777v-.116c0-1.585-1.037-2.551-2.654-2.551h-3.446c-.062 0-.111.026-.111.13v7.87c0 .102.05.128.11.128h1.828c.062 0 .124-.025.124-.128v-2.899c0-.09.036-.142.148-.142h.852c.05 0 .087.026.111.09l1.137 2.99c.024.05.06.09.111.09h1.926c.123 0 .149-.078.111-.168zm-2.283-5.28c0 .346-.235.514-.618.514H37.63c-.112 0-.148-.05-.148-.142V21.08c0-.09.036-.14.148-.14h1.347c.406 0 .617.192.617.54v.245h.001zm-19.719 5.319v-1.65c0-.09-.06-.115-.123-.115h-3.038c-.112 0-.148-.051-.148-.142v-.992c0-.09.037-.142.148-.142h2.495c.06 0 .123-.025.123-.116v-1.66c0-.092-.062-.117-.123-.117h-2.495c-.112 0-.148-.051-.148-.142v-.888c0-.09.037-.142.148-.142h3.039c.073 0 .122-.026.122-.116v-1.648c0-.104-.074-.129-.123-.129h-5.137c-.062 0-.112.026-.112.129v7.87c0 .102.05.128.112.128h5.137c.075 0 .123-.025.123-.128zm76.379 0v-1.65c0-.09-.062-.115-.124-.115h-3.039c-.111 0-.147-.051-.147-.142v-.992c0-.09.037-.142.148-.142h2.494c.062 0 .124-.025.124-.115v-1.663c0-.089-.061-.115-.124-.115h-2.494c-.111 0-.148-.051-.148-.141v-.89c0-.09.037-.14.148-.14h3.038c.074 0 .124-.027.124-.117v-1.648c0-.104-.075-.129-.124-.129h-5.138c-.06 0-.111.026-.111.129v7.87c0 .102.05.128.111.128h5.138c.074 0 .124-.026.124-.128zm-6.842-6.222v-1.648c0-.104-.075-.129-.111-.129h-5.399c-.06 0-.123.026-.123.129v1.648c0 .09.061.116.123.116h1.514c.135 0 .16.052.16.141v5.965c0 .102.05.128.111.128h1.816c.06 0 .123-.026.123-.128V21.08c0-.09.024-.14.148-.14H89.3c.061 0 .112-.027.112-.117h.001zm-23.798 6.221v-1.648c0-.09-.061-.116-.124-.116h-3.038c-.111 0-.148-.051-.148-.142v-.992c0-.09.037-.142.148-.142h2.495c.062 0 .124-.025.124-.115v-1.663c0-.089-.062-.115-.124-.115h-2.495c-.111 0-.148-.051-.148-.141v-.89c0-.09.037-.14.148-.14h3.04c.073 0 .122-.027.122-.117v-1.648c0-.104-.074-.129-.124-.129h-5.137c-.062 0-.111.026-.111.129v7.87c0 .102.05.128.111.128h5.137c.075 0 .124-.026.124-.128zm-8.987-2.293c0 .271-.272.529-.618.529h-1.347c-.111 0-.148-.051-.148-.142V21.08c0-.09.038-.14.148-.14h1.348c.333 0 .616.282.616.54v3.271zm2.038-.102v-3.052c0-1.585-1.039-2.551-2.655-2.551h-3.447c-.061 0-.111.026-.111.129v7.87c0 .102.05.128.111.128h3.447c1.616 0 2.654-.966 2.654-2.525v.001zm24.518 2.357l-1.21-3.234c-.037-.116-.05-.205.061-.283.544-.36.902-.98.902-1.777v-.116c0-1.584-1.037-2.551-2.655-2.551h-3.445c-.062 0-.112.026-.112.13v7.87c0 .102.05.128.112.128h1.827c.06 0 .124-.025.124-.128v-2.899c0-.09.036-.142.148-.142h.851c.051 0 .088.027.112.091l1.136 2.987c.025.051.061.091.112.091h1.926c.123 0 .148-.077.111-.167zm-2.284-5.28c0 .346-.235.514-.618.514h-1.346c-.112 0-.148-.05-.148-.142V21.08c0-.09.036-.14.148-.14h1.346c.407 0 .618.192.618.54v.245zm-5.235 5.28l-2.582-7.87c-.024-.078-.06-.09-.11-.09h-1.346c-.074 0-.1.026-.124.09l-2.582 7.87c-.037.102.012.167.123.167h1.902c.062 0 .087-.025.112-.09l.334-.966c.023-.064.049-.09.147-.09h1.482c.099 0 .136.026.16.09l.322.965c.024.066.036.091.111.091h1.94c.135 0 .147-.064.11-.167zm-2.903-2.615c.013.064-.024.116-.111.116h-.716c-.099 0-.136-.052-.123-.116l.222-1.005c.172-.76.26-1.584.26-1.584h.037s.086.824.234 1.584l.197 1.005z" fill="#fff"/><path fill-rule="evenodd" clip-rule="evenodd" d="M3.69 30.428h95.793V5.497H3.691l-.003 24.932h.001zm95.794 2.71H3.691v17.885h95.792l.001-17.885zM1 53.732h101.173V2.786H1v50.946z" fill="#fff"/><path opacity=".5" fill-rule="evenodd" clip-rule="evenodd" d="M114.044 14.395v2.72a3.007 3.007 0 01-.881.338 4.706 4.706 0 01-1.055.119c-.498 0-.948-.08-1.35-.237a3.075 3.075 0 01-1.029-.65 2.785 2.785 0 01-.651-.982 3.366 3.366 0 01-.225-1.246c0-.51.089-.973.269-1.391a3.38 3.38 0 01.725-1.08 3.288 3.288 0 012.331-.952 3.864 3.864 0 01.963.123c.162.041.319.09.469.145.151.056.287.121.408.197l-.521.878a1.286 1.286 0 00-.291-.136 4.064 4.064 0 00-.351-.101 3.25 3.25 0 00-.695-.088c-.295 0-.577.06-.846.18s-.508.282-.716.487a2.323 2.323 0 00-.5.733 2.243 2.243 0 00-.186.908c0 .293.055.57.165.834a2.207 2.207 0 001.163 1.18c.272.12.57.18.894.18a3.9 3.9 0 00.434-.03c.174-.021.339-.058.495-.11v-1.089h-1.181v-.93h2.162zm3.577 3.177a2.66 2.66 0 01-.959-.171 2.372 2.372 0 01-.777-.479 2.216 2.216 0 01-.521-.741 2.367 2.367 0 01-.191-.96v-4.117h1.059v4.09c0 .187.036.362.109.526.072.164.17.307.295.43.124.123.27.221.438.294.168.073.35.11.547.11.197 0 .381-.037.551-.11.171-.073.32-.17.448-.294.127-.123.227-.266.299-.43.072-.164.109-.339.109-.526v-4.09h1.059v4.116c0 .351-.064.671-.191.961-.128.29-.303.537-.525.741a2.414 2.414 0 01-.786.479 2.695 2.695 0 01-.964.17zm3.864-.07v-6.397h4.202v.974h-3.143v1.72h2.795v1h-2.795V16.5h3.264v1h-4.323zm5.374 0v-6.397h1.788c.347 0 .664.046.951.14.286.094.529.228.729.404.2.175.354.392.464.649.11.257.165.547.165.869 0 .175-.017.35-.052.526a2.199 2.199 0 01-.165.51 1.817 1.817 0 01-.729.806l.373.602.369.592.387.614.434.685h-1.276c-.261-.41-.507-.797-.738-1.163a93.901 93.901 0 00-.669-1.04h-.972v2.203h-1.059zm1.059-3.212h.851c.22 0 .402-.038.547-.114a1.09 1.09 0 00.347-.277.97.97 0 00.182-.35c.035-.126.052-.242.052-.347 0-.1-.016-.212-.048-.338a.973.973 0 00-.516-.636 1.192 1.192 0 00-.556-.114h-.859v2.176zm10.053-3.185V17.8a3.65 3.65 0 00-.269-.29c-.139-.14-.31-.308-.512-.504l-.673-.65a176.86 176.86 0 00-.751-.72c-.255-.242-.503-.48-.747-.714-.243-.234-.464-.45-.664-.645a57.937 57.937 0 01-.503-.5 3.79 3.79 0 01-.265-.286.897.897 0 00-.069-.092 2.345 2.345 0 01-.105-.136l.026.281v3.958h-1.059v-6.687c.041.053.13.148.269.285a61 61 0 001.185 1.128l.751.697c.255.237.504.471.747.702.243.231.466.442.669.632.202.19.371.353.507.487.136.135.225.228.265.281l.165.246-.026-.299v-3.87h1.059zm1.459 0h1.068v6.397h-1.068v-6.397zm7.293 5.923a2.986 2.986 0 01-.734.347 4.306 4.306 0 01-.577.14 3.935 3.935 0 01-.686.057c-.498 0-.944-.087-1.337-.259a2.974 2.974 0 01-.999-.698 3.035 3.035 0 01-.625-1.026 3.56 3.56 0 01-.217-1.238c0-.48.087-.923.261-1.33a3.204 3.204 0 011.749-1.742 3.457 3.457 0 011.797-.205c.177.026.343.06.499.1.157.042.294.088.413.141a.757.757 0 01.256.167 3.9 3.9 0 00-.122.202l-.091.162a20.341 20.341 0 01-.265.479 1.12 1.12 0 00-.251-.124 2.1 2.1 0 00-.309-.083 3.937 3.937 0 00-.325-.048 2.831 2.831 0 00-.295-.018 2.18 2.18 0 00-.899.184 2.328 2.328 0 00-.712.487 2.206 2.206 0 00-.638 1.54c0 .281.054.555.161.821a2.221 2.221 0 001.141 1.202c.267.126.562.189.886.189.185 0 .364-.02.538-.057.174-.038.327-.08.46-.127a2.15 2.15 0 00.326-.14c.084-.047.129-.08.134-.097l.461.974zm4.679.474l-.091-.22-.161-.386-.208-.504-.235-.575h-2.179l-.694 1.685h-1.051l.165-.39.326-.773.434-1.027.49-1.154c.168-.392.332-.776.491-1.154l.434-1.026.326-.773c.086-.207.141-.337.165-.39l.169.39c.09.208.2.466.33.773l.434 1.026c.159.378.323.762.49 1.154.168.392.332.777.491 1.154l.434 1.027.326.772c.086.208.141.338.165.39h-1.051zm-2.509-2.589h1.441l-.625-1.527a1.756 1.756 0 01-.095-.316 1.779 1.779 0 01-.053.198 1.154 1.154 0 00-.034.118l-.634 1.527zM109.056 7.63V3.003h1.25c.24 0 .46.032.66.095.2.064.372.159.518.284.145.126.257.279.337.46.08.18.12.388.12.622 0 .128-.012.254-.037.38a1.54 1.54 0 01-.124.364 1.42 1.42 0 01-.217.325 1.17 1.17 0 01-.322.252c.168.268.351.565.549.89.198.326.398.644.6.955h-.827c-.085-.132-.172-.27-.262-.415-.091-.145-.181-.289-.272-.431l-.265-.421a39.895 39.895 0 00-.243-.386h-.771V7.63h-.694zm.694-2.31h.626a.934.934 0 00.423-.087.768.768 0 00.407-.488c.027-.098.041-.187.041-.268a.979.979 0 00-.041-.265.766.766 0 00-.411-.475.922.922 0 00-.413-.083h-.632v1.665zm3.271 2.31V3.003h3.006v.631h-2.311v1.353h2.058v.645h-2.058v1.353h2.399v.645h-3.094zm4.59-2.31h.626a.9.9 0 00.423-.09.8.8 0 00.268-.217.82.82 0 00.139-.274 1 1 0 00.041-.262.979.979 0 00-.041-.265.766.766 0 00-.411-.475.922.922 0 00-.413-.083h-.632v1.665zm-.694 2.31V3.003h1.25c.24 0 .46.032.66.095.2.064.372.159.518.284.145.126.257.279.337.46.08.18.12.388.12.622 0 .183-.027.365-.082.546a1.32 1.32 0 01-.265.485 1.35 1.35 0 01-.48.348 1.75 1.75 0 01-.72.134h-.644V7.63h-.694zm3.643 0V3.003h3.006v.631h-2.311v1.353h2.058v.645h-2.058v1.353h2.399v.645h-3.094zm7.912-4.627V7.84a4.817 4.817 0 00-.341-.37l-.581-.587a81.14 81.14 0 00-.698-.696 120.26 120.26 0 01-.698-.692c-.219-.22-.41-.415-.574-.587a5.337 5.337 0 01-.329-.367l-.12-.166.019.204v3.05h-.694V2.787c.046.06.123.144.23.255.108.11.234.24.379.386.145.147.305.305.48.475l.53.517c.179.175.356.346.531.514.174.168.334.325.48.47.145.144.27.272.375.382a3.2 3.2 0 01.221.25l.12.178-.019-.217V3.003h.689zm3.744.255l-.246.568a4.078 4.078 0 00-.515-.153 2.239 2.239 0 00-.489-.058c-.266 0-.477.056-.635.166a.496.496 0 00-.237.421c0 .145.057.261.171.348.113.087.254.166.423.236.168.07.351.14.549.211.198.07.381.16.549.271.169.11.31.25.423.418.114.168.171.384.171.648 0 .204-.037.388-.111.552a1.153 1.153 0 01-.328.424 1.52 1.52 0 01-.543.275c-.217.064-.47.096-.761.096a2.95 2.95 0 01-.502-.039 2.698 2.698 0 01-.404-.099 2.225 2.225 0 01-.315-.13 3.786 3.786 0 01-.231-.128l.303-.606c.168.097.356.176.562.236.206.06.394.09.562.09.084 0 .188-.012.313-.033.124-.021.243-.058.356-.111a.925.925 0 00.294-.214.481.481 0 00.123-.339.514.514 0 00-.098-.315.906.906 0 00-.259-.23 2.246 2.246 0 00-.366-.179 38.676 38.676 0 01-.42-.166 8.477 8.477 0 01-.42-.182 1.62 1.62 0 01-.366-.233 1.105 1.105 0 01-.259-.319.914.914 0 01-.098-.437 1.216 1.216 0 01.379-.874c.126-.12.283-.215.471-.287a1.79 1.79 0 01.653-.109c.152 0 .3.013.445.038a4.537 4.537 0 01.695.18 1.8 1.8 0 01.161.063zm3.782 4.372a11.453 11.453 0 01-.089-.205c-.037-.089-.081-.192-.129-.31l-.158-.382a23.674 23.674 0 01-.173-.43h-1.617l-.543 1.327h-.682l2.04-4.844.135.325.234.565.303.727.341.808.341.804.306.727.237.565.136.323h-.682zm-1.926-1.915h1.143c-.059-.14-.115-.276-.167-.405l-.146-.358-.116-.284a4.28 4.28 0 01-.076-.191 1.812 1.812 0 01-.063-.23 1.28 1.28 0 01-.07.23l-.505 1.238zm3.176 1.915V3.003h1.25c.24 0 .46.032.66.095.2.064.373.159.518.284.145.126.258.279.338.46.08.18.12.388.12.622 0 .128-.013.254-.038.38a1.459 1.459 0 01-.341.69c-.089.1-.196.183-.322.251.168.268.351.565.549.89.198.326.398.644.6.955h-.827c-.084-.132-.172-.27-.262-.415-.091-.145-.181-.289-.272-.431l-.265-.421a39.895 39.895 0 00-.243-.386h-.77V7.63h-.695zm.695-2.31h.625a.934.934 0 00.423-.087.768.768 0 00.407-.488c.027-.098.041-.187.041-.268a.979.979 0 00-.041-.265.75.75 0 00-.41-.475.93.93 0 00-.414-.083h-.631v1.665z" fill="#fff"/><path d="M108.853 24.163h106.705" stroke="#000" stroke-opacity=".2" stroke-width=".25"/></g><path d="M118.647 36.841c-.102.068-.247.15-.435.243a4.44 4.44 0 01-.652.269 6.44 6.44 0 01-.844.192c-.315.06-.652.09-1.01.09-.733 0-1.39-.124-1.969-.372a4.462 4.462 0 01-1.471-1.023 4.403 4.403 0 01-.921-1.496 5.12 5.12 0 01-.319-1.804c0-.7.127-1.343.383-1.931a4.732 4.732 0 011.036-1.535 4.753 4.753 0 011.535-1.01 4.946 4.946 0 012.647-.295c.264.034.511.081.741.141.231.06.431.128.601.205.179.076.307.157.384.243-.077.12-.136.217-.179.294-.043.077-.09.158-.141.243a9.752 9.752 0 01-.153.268 9.389 9.389 0 01-.23.423 1.686 1.686 0 00-.371-.18 2.612 2.612 0 00-.461-.115 4.18 4.18 0 00-.473-.076 4.184 4.184 0 00-.434-.026c-.478 0-.921.09-1.33.269a3.461 3.461 0 00-1.049.716c-.29.29-.52.63-.691 1.023a3.154 3.154 0 00-.243 1.215c0 .41.077.81.231 1.203.162.383.383.724.665 1.023.289.298.63.541 1.023.729.392.179.827.268 1.304.268.273 0 .537-.025.793-.076.256-.06.482-.124.678-.192a2.91 2.91 0 00.473-.205c.128-.068.196-.115.204-.14l.678 1.42zm.296-3.952c0-.648.123-1.262.371-1.842a5.054 5.054 0 011.023-1.522 4.99 4.99 0 011.509-1.036 4.536 4.536 0 011.854-.384c.648 0 1.262.128 1.841.384.58.256 1.087.601 1.522 1.036.435.435.776.942 1.023 1.522a4.51 4.51 0 01.384 1.842 4.54 4.54 0 01-.384 1.855 4.815 4.815 0 01-1.023 1.509 4.892 4.892 0 01-1.522 1.01 4.64 4.64 0 01-1.841.371 4.672 4.672 0 01-1.854-.37 4.915 4.915 0 01-1.509-1.011 5.101 5.101 0 01-1.023-1.51 4.666 4.666 0 01-.371-1.854zm1.573 0c0 .452.081.878.243 1.279.17.392.4.738.69 1.036.299.29.64.52 1.023.69.392.171.814.257 1.266.257a2.99 2.99 0 001.228-.256c.392-.17.729-.401 1.01-.691.29-.298.516-.644.678-1.036.17-.4.256-.827.256-1.279a3.15 3.15 0 00-.256-1.266 3.428 3.428 0 00-.691-1.05 3.179 3.179 0 00-1.023-.703 3.015 3.015 0 00-1.24-.255 3.103 3.103 0 00-2.264.959 3.52 3.52 0 00-.677 1.049 3.285 3.285 0 00-.243 1.266zm17.728-4.681v9.759a5.527 5.527 0 00-.396-.422 38.277 38.277 0 00-.754-.73c-.299-.29-.631-.605-.998-.946-.358-.35-.725-.7-1.1-1.049l-1.099-1.048c-.358-.342-.687-.653-.985-.934a53.6 53.6 0 00-.742-.73 6.59 6.59 0 01-.383-.421 1.048 1.048 0 00-.103-.128 6.411 6.411 0 01-.153-.205l.038.41v5.768h-1.56v-9.746c.06.076.192.217.397.422a123.281 123.281 0 001.739 1.637c.366.332.737.674 1.112 1.023.375.341.742.682 1.1 1.023.358.333.686.64.985.921.298.273.545.508.741.704.205.196.337.332.397.409l.243.358-.039-.435v-5.64h1.56zm7.731 0v1.496h-2.302v7.828H142.1v-7.828h-2.25v-1.496h6.125zm1.617 9.324v-9.324h2.635c.511 0 .976.068 1.393.204a2.97 2.97 0 011.075.589c.298.255.528.571.69.946.162.375.243.797.243 1.266 0 .256-.025.512-.077.768a3.27 3.27 0 01-.243.742c-.11.239-.255.46-.434.665a2.708 2.708 0 01-.64.511c.188.299.371.593.55.883.179.281.358.567.537.857.188.29.38.588.576.895l.639.998h-1.88c-.383-.597-.746-1.16-1.087-1.688a102.14 102.14 0 00-.984-1.523h-1.433v3.21h-1.56zm1.56-4.681h1.254c.324 0 .592-.056.805-.167.213-.11.384-.243.512-.396.128-.162.217-.333.268-.512.051-.187.077-.358.077-.511 0-.145-.026-.307-.077-.486a1.31 1.31 0 00-.255-.525 1.424 1.424 0 00-.499-.41c-.213-.11-.486-.165-.819-.165h-1.266v3.172zm12.299 4.681c-.026-.06-.072-.166-.141-.32a18.508 18.508 0 00-.23-.563l-.307-.729-.345-.844h-3.21l-1.023 2.456h-1.547l.243-.563c.128-.307.285-.682.473-1.126.196-.451.409-.95.639-1.496l.729-1.688c.248-.572.486-1.13.716-1.676.239-.554.452-1.053.64-1.496l.486-1.126c.128-.307.209-.499.243-.575.034.076.115.268.243.575.136.299.298.674.486 1.126.196.443.409.942.639 1.496.239.546.482 1.104.729 1.676.247.571.486 1.134.716 1.688.239.546.452 1.045.639 1.496.197.444.359.82.486 1.126l.243.563h-1.547zm-3.696-3.773h2.123l-.921-2.226a1.035 1.035 0 01-.064-.166 3.045 3.045 0 01-.076-.294 3.079 3.079 0 01-.077.294 1.654 1.654 0 00-.051.166l-.934 2.226zm5.951 1.586v-1.292h2.391v1.292h-2.391zm9.908 2.187c-.025-.06-.072-.166-.14-.32-.06-.153-.137-.341-.23-.563l-.307-.729c-.111-.273-.226-.554-.346-.844h-3.209l-1.023 2.456h-1.548l.243-.563.473-1.126c.197-.451.41-.95.64-1.496.239-.554.481-1.117.729-1.688.247-.572.486-1.13.716-1.676.239-.554.452-1.053.639-1.496l.486-1.126c.128-.307.209-.499.243-.575.034.076.115.268.243.575.137.299.298.674.486 1.126.196.443.409.942.639 1.496.239.546.482 1.104.729 1.676.248.571.486 1.134.716 1.688.239.546.452 1.045.64 1.496.196.444.358.82.486 1.126l.243.563h-1.548zm-3.695-3.773h2.123l-.921-2.226a.853.853 0 01-.064-.166 3.079 3.079 0 01-.077-.294 2.806 2.806 0 01-.077.294 1.654 1.654 0 00-.051.166l-.933 2.226zm6.321 3.773v-9.324h2.634c.512 0 .976.068 1.394.204.426.137.785.333 1.074.589.299.255.529.571.691.946.162.375.243.797.243 1.266 0 .256-.026.512-.077.768a3.27 3.27 0 01-.243.742c-.111.239-.256.46-.435.665a2.723 2.723 0 01-.639.511c.188.299.371.593.55.883.179.281.358.567.537.857.188.29.379.588.575.895l.64.998h-1.88l-1.087-1.688a96.091 96.091 0 00-.985-1.523H177.8v3.21h-1.56zm1.56-4.681h1.253c.324 0 .593-.056.806-.167a1.62 1.62 0 00.511-.396c.128-.162.218-.333.269-.512.051-.187.077-.358.077-.511 0-.145-.026-.307-.077-.486a1.312 1.312 0 00-.256-.525 1.411 1.411 0 00-.498-.41c-.214-.11-.486-.165-.819-.165H177.8v3.172zm13.44 3.99c-.102.068-.247.15-.434.243a4.457 4.457 0 01-.653.269 6.44 6.44 0 01-.844.192c-.315.06-.652.09-1.01.09-.733 0-1.389-.124-1.969-.372a4.462 4.462 0 01-1.471-1.023 4.416 4.416 0 01-.92-1.496 5.098 5.098 0 01-.32-1.804c0-.7.128-1.343.384-1.931a4.73 4.73 0 011.035-1.535 4.763 4.763 0 011.535-1.01 4.951 4.951 0 012.647-.295 6 6 0 01.742.141c.23.06.43.128.601.205.179.076.307.157.383.243-.076.12-.136.217-.179.294a7.472 7.472 0 01-.14.243c-.043.077-.094.166-.154.268a9.389 9.389 0 01-.23.423 1.665 1.665 0 00-.371-.18 2.601 2.601 0 00-.46-.115 4.218 4.218 0 00-.473-.076 4.187 4.187 0 00-.435-.026c-.478 0-.921.09-1.33.269a3.48 3.48 0 00-1.049.716c-.29.29-.52.63-.69 1.023a3.154 3.154 0 00-.243 1.215c0 .41.077.81.23 1.203.162.383.384.724.665 1.023.29.298.631.541 1.023.729.392.179.827.268 1.304.268.273 0 .537-.025.793-.076.256-.06.482-.124.678-.192.196-.068.354-.137.473-.205.128-.068.196-.115.205-.14l.677 1.42zm1.16.691v-9.324h1.573v3.888h4.45v-3.888h1.585v2.557c0 .657-.004 1.36-.012 2.111v4.656h-1.573v-3.94h-4.45v3.94H192.4zm9.753-9.324h1.573v9.324h-1.573v-9.324zm4.194 0l2.494 5.998c0 .009.017.069.051.18.034.102.06.2.077.294.017-.094.043-.192.077-.295a.92.92 0 01.064-.179l2.493-5.998h1.548a24.84 24.84 0 00-.243.575c-.128.307-.29.687-.486 1.139-.188.443-.401.942-.64 1.496-.23.546-.469 1.104-.716 1.676-.247.562-.49 1.12-.729 1.675-.23.554-.443 1.058-.639 1.51-.188.443-.35.818-.486 1.125l-.243.563a71.573 71.573 0 01-.243-.563c-.128-.307-.29-.682-.486-1.126a151.86 151.86 0 00-.639-1.509 97.313 97.313 0 00-.716-1.675l-.729-1.676a77.06 77.06 0 00-.64-1.496 448.961 448.961 0 00-.716-1.714h1.547zm6.881 4.681c0-.648.123-1.262.371-1.842a5.054 5.054 0 011.023-1.522c.435-.435.938-.78 1.509-1.036a4.54 4.54 0 011.854-.384c.648 0 1.262.128 1.841.384.58.256 1.087.601 1.522 1.036.435.435.776.942 1.023 1.522a4.51 4.51 0 01.384 1.842 4.54 4.54 0 01-.384 1.855 4.815 4.815 0 01-1.023 1.509 4.892 4.892 0 01-1.522 1.01 4.64 4.64 0 01-1.841.371 4.675 4.675 0 01-1.854-.37 4.94 4.94 0 01-1.509-1.011 5.101 5.101 0 01-1.023-1.51 4.666 4.666 0 01-.371-1.854zm1.573 0c0 .452.081.878.243 1.279.17.392.4.738.69 1.036.299.29.64.52 1.023.69.392.171.814.257 1.266.257a2.99 2.99 0 001.228-.256c.392-.17.729-.401 1.01-.691.29-.298.516-.644.678-1.036.17-.4.256-.827.256-1.279a3.15 3.15 0 00-.256-1.266 3.428 3.428 0 00-.691-1.05 3.157 3.157 0 00-1.023-.703 3.015 3.015 0 00-1.24-.255 3.107 3.107 0 00-2.263.959 3.504 3.504 0 00-.678 1.049 3.285 3.285 0 00-.243 1.266zm14.892-4.157l-.563 1.28a8.667 8.667 0 00-1.061-.308 4.541 4.541 0 00-.972-.115c-.52 0-.933.102-1.24.307-.299.205-.448.465-.448.78a.8.8 0 00.333.665c.23.17.515.324.856.46.341.137.708.278 1.1.423.401.136.772.315 1.113.537.341.222.622.503.844.844.23.341.345.776.345 1.305 0 .41-.077.78-.23 1.113a2.232 2.232 0 01-.665.857c-.299.238-.678.426-1.138.562-.452.128-.985.192-1.599.192a6.245 6.245 0 01-1.854-.268 5.885 5.885 0 01-.639-.243 5.808 5.808 0 01-.486-.269l.677-1.369c.359.197.742.35 1.151.46.41.103.772.154 1.087.154.154 0 .35-.017.589-.05a3.01 3.01 0 00.716-.193 1.76 1.76 0 00.588-.383.828.828 0 00.256-.627.895.895 0 00-.346-.73 3.073 3.073 0 00-.844-.51 15.802 15.802 0 00-1.112-.448 7.242 7.242 0 01-1.1-.512 3.164 3.164 0 01-.857-.742c-.221-.298-.332-.674-.332-1.125 0-.324.064-.64.192-.947a2.44 2.44 0 01.575-.844c.264-.247.588-.448.972-.601.392-.154.853-.23 1.381-.23.333 0 .652.03.959.09.316.05.597.11.844.178.247.068.452.137.614.205.162.06.26.094.294.102zM111 47.825c0-.648.06-1.266.179-1.854a9.925 9.925 0 01.473-1.637 8.71 8.71 0 01.691-1.382c.255-.409.52-.754.793-1.036l.588.154c.204.042.405.09.601.14a7.977 7.977 0 00-.742 1.01 8.367 8.367 0 00-.639 1.306 9.457 9.457 0 00-.461 1.547 8.986 8.986 0 00-.166 1.752 9 9 0 00.166 1.753c.12.554.273 1.07.461 1.547.187.478.4.908.639 1.292.247.392.495.73.742 1.01-.196.06-.397.111-.601.154l-.588.153a6.673 6.673 0 01-.793-1.048 8.932 8.932 0 01-.691-1.369 9.926 9.926 0 01-.473-1.637 9.339 9.339 0 01-.179-1.855zm4.51-5.551h1.573V51.6h-1.573v-9.325zm3.722-.409c.042.06.136.196.281.41.145.204.324.46.537.767.222.298.465.63.729.997.273.367.546.742.819 1.126.281.375.554.746.818 1.113.264.358.503.686.716.985l.537.754c.154.196.247.32.282.371.017-.026.093-.132.23-.32.136-.196.307-.439.511-.729.213-.29.452-.618.716-.984.265-.376.537-.755.819-1.139.281-.384.554-.763.818-1.138l.742-1.023a49.45 49.45 0 00.869-1.19v9.733h-1.675V46.84c0-.068.009-.14.026-.217a.972.972 0 00.025-.14l-3.081 4.438c-.043-.051-.15-.192-.32-.422-.162-.23-.358-.504-.588-.819a94.701 94.701 0 01-.729-1.01 37.479 37.479 0 00-.729-1.01 27.44 27.44 0 00-.576-.794 6.438 6.438 0 01-.255-.384c0 .017.008.064.025.141.017.077.026.15.026.218v4.758h-1.573v-9.734zm13.955 6.012a9.337 9.337 0 01-.665 3.491 8.16 8.16 0 01-.678 1.369c-.256.41-.52.759-.793 1.049l-1.189-.269c.256-.281.503-.618.742-1.01a8.69 8.69 0 00.639-1.292c.188-.478.337-.994.448-1.548a8.513 8.513 0 00.179-1.765 8.33 8.33 0 00-.179-1.752 9.093 9.093 0 00-.448-1.548 7.939 7.939 0 00-.639-1.292 7.208 7.208 0 00-.742-1.023l.588-.153c.205-.06.405-.12.601-.18.273.29.537.64.793 1.05.256.409.482.865.678 1.368.204.503.366 1.053.486 1.65.119.588.179 1.206.179 1.855zm3.078-.96h1.253c.324 0 .592-.055.806-.166a1.53 1.53 0 00.511-.41c.128-.17.217-.345.269-.524.051-.187.076-.354.076-.498 0-.137-.025-.295-.076-.474a1.312 1.312 0 00-.256-.524 1.416 1.416 0 00-.499-.41c-.213-.11-.486-.166-.818-.166h-1.266v3.172zm-1.56 4.681v-9.324h2.634c.511 0 .976.069 1.394.205.426.136.784.333 1.074.588.298.256.529.572.69.947.162.375.243.797.243 1.266 0 .375-.055.75-.166 1.126a2.734 2.734 0 01-.55.997c-.247.29-.571.529-.972.717-.4.179-.895.268-1.483.268h-1.304v3.21h-1.56zm6.841-4.642c0-.648.124-1.262.371-1.842a5.091 5.091 0 011.023-1.522c.435-.435.938-.78 1.509-1.036a4.543 4.543 0 011.854-.384c.648 0 1.262.128 1.842.384a4.96 4.96 0 011.521 1.036c.435.435.776.942 1.023 1.522a4.51 4.51 0 01.384 1.842 4.54 4.54 0 01-.384 1.854 4.817 4.817 0 01-1.023 1.51 4.89 4.89 0 01-1.521 1.01c-.58.247-1.194.37-1.842.37a4.677 4.677 0 01-1.854-.37 4.94 4.94 0 01-1.509-1.01 5.141 5.141 0 01-1.023-1.51 4.683 4.683 0 01-.371-1.854zm1.573 0c0 .451.081.878.243 1.279.171.392.401.737.691 1.036.298.29.639.52 1.023.69.392.17.814.256 1.266.256.434 0 .844-.085 1.227-.256.392-.17.729-.4 1.01-.69.29-.299.516-.644.678-1.036a3.23 3.23 0 00.256-1.28c0-.451-.085-.873-.256-1.266-.17-.4-.4-.75-.69-1.048a3.178 3.178 0 00-2.264-.96 3.108 3.108 0 00-2.263.96 3.52 3.52 0 00-.678 1.048 3.284 3.284 0 00-.243 1.267zm14.892-4.157l-.562 1.279a8.699 8.699 0 00-1.062-.307 4.547 4.547 0 00-.972-.115c-.52 0-.933.102-1.24.307-.298.204-.448.464-.448.78a.8.8 0 00.333.665c.23.17.516.324.857.46.341.137.707.278 1.1.422.4.137.771.316 1.112.538.341.221.622.503.844.844.23.34.345.776.345 1.305 0 .409-.076.78-.23 1.112a2.222 2.222 0 01-.665.857c-.298.239-.678.427-1.138.563-.452.128-.985.192-1.598.192a6.24 6.24 0 01-1.855-.269 6.027 6.027 0 01-.639-.243 5.78 5.78 0 01-.486-.268l.678-1.369c.358.196.741.35 1.151.46a4.51 4.51 0 001.087.154c.153 0 .349-.017.588-.051a2.95 2.95 0 00.716-.192 1.76 1.76 0 00.588-.384.825.825 0 00.256-.627.897.897 0 00-.345-.728 3.088 3.088 0 00-.844-.512 15.833 15.833 0 00-1.113-.448 7.233 7.233 0 01-1.1-.511 3.143 3.143 0 01-.856-.742c-.222-.299-.333-.674-.333-1.126 0-.324.064-.64.192-.946.128-.316.32-.597.575-.844a3.09 3.09 0 01.972-.602c.392-.153.853-.23 1.381-.23.333 0 .653.03.959.09.316.05.597.11.844.179.248.068.452.136.614.204.162.06.26.094.294.103zm1.807-.525h1.573V51.6h-1.573v-9.325zm5.282 1.42v2.533h1.176c.435 0 .755-.128.959-.384.213-.256.32-.563.32-.921 0-.418-.128-.725-.384-.92-.255-.206-.601-.308-1.035-.308H165.1zm0 3.863v2.622h1.227c.231 0 .448-.026.653-.077.204-.06.383-.14.537-.243.153-.11.272-.247.358-.41.085-.17.128-.366.128-.588a1.133 1.133 0 00-.563-1.023 1.798 1.798 0 00-.588-.217 3.386 3.386 0 00-.665-.064H165.1zm-1.56 4.041v-9.324h2.544c.461 0 .879.047 1.254.141.375.085.694.226.959.422.264.188.464.44.601.755.145.307.217.678.217 1.113 0 .238-.025.473-.077.703a2.04 2.04 0 01-.23.627 1.74 1.74 0 01-.409.498 1.75 1.75 0 01-.639.333c.213.043.426.115.639.218.222.102.418.242.588.422.171.17.307.388.409.652.111.256.167.558.167.908 0 .452-.09.84-.269 1.164-.17.315-.401.576-.69.78-.282.205-.61.354-.985.448-.375.094-.763.14-1.164.14h-2.915zm7.605.001v-9.325h1.56v7.84h4.527V51.6h-6.087zm7.355 0v-9.325h6.19v1.42h-4.63v2.507h4.118v1.458h-4.118v2.481h4.809v1.46H178.5zm13.417-8.8l-.563 1.279a8.736 8.736 0 00-1.061-.307 4.562 4.562 0 00-.972-.115c-.52 0-.934.102-1.241.307-.298.204-.447.464-.447.78 0 .273.111.494.332.665.23.17.516.324.857.46.341.137.708.278 1.1.422.4.137.771.316 1.112.538.341.221.623.503.844.844.23.34.346.776.346 1.305 0 .409-.077.78-.231 1.112a2.222 2.222 0 01-.665.857c-.298.239-.677.427-1.138.563-.452.128-.984.192-1.598.192a6.257 6.257 0 01-1.854-.269 5.966 5.966 0 01-.64-.243 6.115 6.115 0 01-.486-.268l.678-1.369c.358.196.742.35 1.151.46a4.51 4.51 0 001.087.154c.153 0 .349-.017.588-.051a2.95 2.95 0 00.716-.192 1.76 1.76 0 00.588-.384.825.825 0 00.256-.627.897.897 0 00-.345-.728 3.088 3.088 0 00-.844-.512 15.833 15.833 0 00-1.113-.448 7.221 7.221 0 01-1.099-.511 3.147 3.147 0 01-.857-.742c-.222-.299-.333-.674-.333-1.126 0-.324.064-.64.192-.946a2.44 2.44 0 01.576-.844c.264-.248.588-.448.971-.602.393-.153.853-.23 1.382-.23.332 0 .652.03.959.09.315.05.596.11.844.179.247.068.451.136.613.204.162.06.26.094.295.103z" fill="#fff"/></g></g><defs><clipPath id="clip0"><path fill="#fff" transform="translate(.5 .786)" d="M0 0h230v55H0z"/></clipPath><clipPath id="clip1"><path fill="#fff" transform="translate(1 2.786)" d="M0 0h230v52H0z"/></clipPath><clipPath id="clip2"><path fill="#fff" transform="translate(1 2.786)" d="M0 0h218v52H0z"/></clipPath></defs></svg>