<svg width="231" height="56" viewBox="0 0 231 56" fill="none" xmlns="http://www.w3.org/2000/svg">
<g clip-path="url(#clip0)">
<g clip-path="url(#clip1)">
<g clip-path="url(#clip2)">
<path fill-rule="evenodd" clip-rule="evenodd" d="M62.0075 44.4617C62.0075 42.4458 61.0178 41.5643 58.9503 40.8991C58.0669 40.6114 56.9891 40.3584 56.9891 39.6575C56.9891 39.0821 57.3416 38.8301 57.8725 38.8301H58.1723C58.773 38.8301 59.2157 39.1535 59.5327 39.7657C59.6037 39.9095 59.7627 39.9095 59.8873 39.8197L61.7238 38.5781C61.9011 38.47 61.8302 38.2904 61.7593 38.1823C61.5365 37.7891 61.2499 37.4364 60.9114 37.1386C60.2226 36.5265 59.2856 36.1857 58.1379 36.1857H57.8725C55.4514 36.1857 53.9846 37.5171 53.9846 39.7473C53.9846 41.7449 55.0452 42.5366 56.9354 43.2018C58.1196 43.616 59.0029 43.7231 59.0029 44.5332C59.0029 45.0545 58.6494 45.3606 58.1014 45.3606H57.5544C56.9537 45.3606 56.511 45.0371 56.1939 44.425C56.123 44.2822 55.964 44.2822 55.8394 44.372L54.0028 45.6126C53.8255 45.7207 53.8965 45.8829 53.9674 45.99C54.1619 46.3328 54.3918 46.6389 54.6734 46.9082C55.3805 47.6101 56.3702 48.006 57.5898 48.006H58.1368C60.6288 48.006 62.0065 46.6746 62.0065 44.4617H62.0075ZM85.3762 47.5918V36.5683C85.3762 36.4245 85.2526 36.3877 85.1817 36.3877H82.5864C82.4973 36.3877 82.4274 36.4245 82.4274 36.5683V47.5918C82.4274 47.7356 82.4983 47.7724 82.5864 47.7724H85.1827C85.2891 47.7724 85.3772 47.7356 85.3772 47.5918H85.3762ZM81.1966 38.8781V36.5683C81.1966 36.4245 81.0912 36.3887 81.0203 36.3887H73.6711C73.5829 36.3887 73.512 36.4245 73.512 36.5683V47.5918C73.512 47.7356 73.5829 47.7724 73.6711 47.7724H76.2846C76.3737 47.7724 76.4629 47.7356 76.4629 47.5918V43.5323C76.4629 43.4058 76.5156 43.3334 76.6746 43.3334H80.2424C80.3315 43.3334 80.4196 43.2977 80.4196 43.1712V40.844C80.4196 40.7175 80.3315 40.6808 80.2424 40.6808H76.6746C76.5156 40.6808 76.4619 40.6094 76.4619 40.4829V39.2382C76.4619 39.1127 76.5156 39.0403 76.6746 39.0403H81.0203C81.1257 39.0403 81.1966 39.0046 81.1966 38.8771V38.8781ZM96.2821 47.5377L92.5857 36.5234C92.5502 36.4153 92.4975 36.3979 92.4266 36.3979H90.4979C90.3915 36.3979 90.3561 36.4326 90.3216 36.5234L86.6242 47.5377C86.5705 47.6816 86.6414 47.7724 86.8005 47.7724H89.5254C89.6135 47.7724 89.649 47.7356 89.6845 47.6459L90.1616 46.2941C90.197 46.2033 90.2325 46.1676 90.3743 46.1676H92.4975C92.6393 46.1676 92.692 46.2033 92.7275 46.2941L93.1874 47.6459C93.2218 47.7356 93.2401 47.7724 93.3464 47.7724H96.124C96.3185 47.7724 96.3358 47.6816 96.2831 47.5377H96.2821ZM92.1258 43.8782C92.143 43.968 92.0903 44.0404 91.9667 44.0404H90.9406C90.7987 44.0404 90.7461 43.969 90.7633 43.8772L91.0814 42.4723C91.3296 41.4092 91.4531 40.2544 91.4531 40.2544H91.5058C91.5058 40.2544 91.6304 41.4092 91.8421 42.4723L92.1258 43.8782ZM40.0955 47.5632V36.5703C40.0955 36.4265 39.9891 36.3898 39.9192 36.3898H37.4272C37.3209 36.3898 37.2682 36.4265 37.2682 36.5703V39.4841C37.2682 41.0858 37.3563 42.4897 37.3563 42.4897H37.3036C37.3036 42.4897 37.1618 42.0928 36.9147 41.6255L34.3001 36.552C34.2464 36.4438 34.1755 36.3898 34.0702 36.3898H31.8254C31.7373 36.3898 31.6663 36.4265 31.6663 36.5703V47.5632C31.6663 47.706 31.7373 47.7428 31.8254 47.7428H34.37C34.4764 47.7428 34.5473 47.7071 34.5473 47.5632V44.7015C34.5473 43.2263 34.4409 41.8051 34.4409 41.8051H34.5118C34.5118 41.8051 34.6537 42.2009 34.8826 42.6151L37.5164 47.5806C37.568 47.6703 37.6217 47.7428 37.7099 47.7428H39.9182C40.0245 47.7428 40.0955 47.7071 40.0955 47.5632V47.5632ZM29.9615 47.5632V36.5703C29.9615 36.4265 29.8379 36.3898 29.767 36.3898H27.1697C27.0805 36.3898 27.0106 36.4265 27.0106 36.5703V47.5632C27.0106 47.706 27.0815 47.7428 27.1697 47.7428H29.767C29.8733 47.7428 29.9615 47.7071 29.9615 47.5632V47.5632ZM72.107 44.6229V39.5678C72.107 37.5171 70.5703 36.1857 68.3083 36.1857H67.0724C64.8094 36.1857 63.2373 37.5345 63.2373 39.5678V44.6229C63.2373 46.6562 64.774 48.006 67.0714 48.006H68.3073C70.5703 48.006 72.107 46.6562 72.107 44.6229ZM69.1744 44.6229C69.1744 45.0545 68.8563 45.3606 68.3083 45.3606H67.0724C66.4535 45.3606 66.1354 45.0729 66.1354 44.6229V39.5678C66.1354 39.1903 66.5589 38.8128 67.0714 38.8128H68.3073C68.8209 38.8128 69.1744 39.1362 69.1744 39.5678V44.6229ZM50.9031 47.5091L47.2097 36.5163C47.1742 36.4081 47.1216 36.3898 47.0507 36.3898H45.126C45.0196 36.3898 44.9842 36.4265 44.9487 36.5163L41.2563 47.5091C41.2027 47.652 41.2736 47.7428 41.4326 47.7428H44.1535C44.2426 47.7428 44.2771 47.7071 44.3136 47.6163L44.7897 46.2675C44.8251 46.1778 44.8606 46.141 45.0024 46.141H47.1226C47.2644 46.141 47.3171 46.1778 47.3525 46.2675L47.8114 47.6163C47.8469 47.7071 47.8651 47.7428 47.9705 47.7428H50.745C50.9395 47.7428 50.9568 47.653 50.9041 47.5081L50.9031 47.5091ZM46.7498 43.8568C46.768 43.9465 46.7154 44.018 46.5918 44.018H45.5666C45.4248 44.018 45.3721 43.9465 45.3904 43.8568L45.7074 42.4529C45.9556 41.3919 46.0782 40.2401 46.0782 40.2401H46.1319C46.1319 40.2401 46.2555 41.3919 46.4672 42.454L46.7508 43.8568H46.7498ZM25.3048 47.5632V45.2596C25.3048 45.1341 25.2166 45.0984 25.1285 45.0984H20.7828C20.6227 45.0984 20.57 45.0269 20.57 44.9004V43.515C20.57 43.3885 20.6227 43.3171 20.7828 43.3171H24.3515C24.4397 43.3171 24.5278 43.2803 24.5278 43.1538V40.8338C24.5278 40.7073 24.4397 40.6716 24.3515 40.6716H20.7817C20.6227 40.6716 20.569 40.6002 20.569 40.4737V39.2321C20.569 39.1066 20.6227 39.0352 20.7817 39.0352H25.1285C25.2349 39.0352 25.3048 38.9985 25.3048 38.872V36.5703C25.3048 36.4265 25.1994 36.3898 25.1285 36.3898H17.7782C17.6901 36.3898 17.6192 36.4265 17.6192 36.5703V47.5632C17.6192 47.706 17.6901 47.7428 17.7782 47.7428H25.1285C25.2349 47.7428 25.3048 47.7071 25.3048 47.5632V47.5632ZM12.8915 40.1319C12.8915 40.6186 12.5552 40.8522 12.0082 40.8522H10.0815C9.92247 40.8522 9.86878 40.7808 9.86878 40.6543V39.2321C9.86878 39.1066 9.92247 39.0352 10.0815 39.0352H12.0082C12.5907 39.0352 12.8915 39.3045 12.8915 39.7902V40.1319V40.1319ZM16.1605 47.5081L14.4283 42.9926C14.3756 42.8314 14.3573 42.7049 14.5174 42.5978C15.2944 42.0928 15.8069 41.2307 15.8069 40.1146V39.9524C15.8069 37.7395 14.3229 36.3898 12.0082 36.3898H7.07799C6.98884 36.3898 6.91895 36.4265 6.91895 36.5703V47.5632C6.91895 47.706 6.98985 47.7428 7.07799 47.7428H9.6915C9.77964 47.7428 9.86878 47.7071 9.86878 47.5632V43.515C9.86878 43.3885 9.92145 43.3171 10.0805 43.3171H11.2991C11.37 43.3171 11.4237 43.3528 11.4592 43.4425L13.084 47.6163C13.1195 47.6887 13.1732 47.7428 13.2431 47.7428H16.0004C16.1767 47.7428 16.2121 47.6346 16.1595 47.5081H16.1605ZM65.168 14.603C65.168 16.0568 64.0942 17.0209 62.514 17.0209H61.6509C60.0473 17.0209 58.9736 16.0568 58.9736 14.603V10.9873C58.9736 9.53349 60.0717 8.56836 61.6509 8.56836H62.515C64.0953 8.56836 65.168 9.52022 65.168 10.9863V11.68H63.1198V10.9863C63.1198 10.6782 62.8726 10.4466 62.515 10.4466H61.6509C61.2933 10.4466 60.9965 10.7169 60.9965 10.9873V14.603C60.9965 14.9243 61.2194 15.1304 61.6509 15.1304H62.515C62.8979 15.1304 63.1198 14.9111 63.1198 14.603V13.9092H65.168V14.603V14.603ZM14.2682 16.7454V8.87647C14.2682 8.77342 14.2176 8.7469 14.1446 8.7469H12.3536C12.3279 8.74667 12.3025 8.75383 12.2807 8.76757C12.2588 8.7813 12.2412 8.80102 12.2301 8.82443L10.8098 12.7788C10.7503 12.9486 10.6966 13.1205 10.6488 13.294H10.5991C10.5991 13.294 10.5748 13.0624 10.4634 12.7788L8.99457 8.82545C8.98333 8.80188 8.96563 8.78205 8.94354 8.76831C8.92146 8.75457 8.89592 8.74749 8.86997 8.74792H7.03037C6.95541 8.74792 6.91895 8.77444 6.91895 8.87749V16.7454C6.91895 16.8474 6.95541 16.874 7.03037 16.874H8.77171C8.85781 16.874 8.89529 16.8485 8.89529 16.7454V15.058C8.89529 13.8347 8.78386 12.7145 8.78386 12.7145H8.82134C8.82134 12.7145 8.93277 13.2553 9.12929 13.8347L9.7847 15.7793C9.82117 15.8823 9.9326 15.9078 10.0065 15.9078H11.2049C11.2789 15.9078 11.3771 15.8823 11.4146 15.7793L12.069 13.8735C12.2665 13.294 12.378 12.7145 12.378 12.7145H12.4154C12.4154 12.7145 12.3283 13.8735 12.3283 15.0835V16.7454C12.3283 16.8474 12.3536 16.874 12.4398 16.874H14.1446C14.2186 16.874 14.2682 16.8485 14.2682 16.7454V16.7454ZM34.8198 16.7403V15.0916C34.8198 15.0019 34.758 14.9764 34.6962 14.9764H31.8203C31.7089 14.9764 31.6724 14.9254 31.6724 14.8335V13.8429C31.6724 13.7531 31.7089 13.7011 31.8203 13.7011H34.1522C34.215 13.7011 34.2768 13.6756 34.2768 13.5848V11.9239C34.2768 11.8341 34.215 11.8086 34.1522 11.8086H31.8203C31.7089 11.8086 31.6724 11.7576 31.6724 11.6657V10.7782C31.6724 10.6884 31.7089 10.6363 31.8203 10.6363H34.6972C34.7702 10.6363 34.8188 10.6108 34.8188 10.5211V8.87238C34.8188 8.76934 34.7458 8.74384 34.6972 8.74384H29.7214C29.6586 8.74384 29.61 8.76934 29.61 8.87238V16.7403C29.61 16.8423 29.6586 16.8689 29.7214 16.8689H34.6962C34.7702 16.8689 34.8198 16.8434 34.8198 16.7403ZM28.5028 14.4999C28.5028 13.0573 27.8119 12.4258 26.3664 11.9494C25.7484 11.7443 24.9958 11.5637 24.9958 11.0618C24.9958 10.6486 25.2419 10.47 25.6137 10.47H25.8234C26.2428 10.47 26.5517 10.7006 26.7736 11.1383C26.8242 11.2413 26.9347 11.2413 27.0208 11.1771L28.3052 10.2895C28.4288 10.2109 28.3792 10.0824 28.3306 10.0048C28.1753 9.72435 27.9747 9.47195 27.7369 9.25803C27.2558 8.82035 26.6014 8.57652 25.7981 8.57652H25.6127C23.921 8.57652 22.8959 9.52839 22.8959 11.1261C22.8959 12.5544 23.6364 13.1216 24.9583 13.598C25.7859 13.8939 26.4028 13.9714 26.4028 14.5509C26.4028 14.9243 26.1567 15.1427 25.7738 15.1427H25.3909C24.9705 15.1427 24.6615 14.9121 24.4397 14.4734C24.39 14.3714 24.2786 14.3714 24.1925 14.4356L22.908 15.3232C22.7844 15.4008 22.8341 15.5171 22.8837 15.5946C23.0194 15.8395 23.1805 16.0578 23.377 16.2506C23.8714 16.7536 24.5622 17.0362 25.4152 17.0362H25.7981C27.5404 17.0362 28.5028 16.0833 28.5028 14.4999V14.4999ZM41.9594 14.6152V10.9985C41.9594 9.52941 40.8846 8.57754 39.3033 8.57754H38.4392C36.8589 8.57754 35.7588 9.54267 35.7588 10.9985V14.6162C35.7588 16.0721 36.8326 17.0372 38.4392 17.0372H39.3033C40.8846 17.0372 41.9594 16.0721 41.9594 14.6162V14.6152ZM39.9091 14.6152C39.9091 14.9243 39.6862 15.1437 39.3033 15.1437H38.4392C38.0067 15.1437 37.7838 14.9376 37.7838 14.6152V10.9985C37.7838 10.7271 38.0806 10.4578 38.4392 10.4578H39.3033C39.6619 10.4578 39.9091 10.6894 39.9091 10.9985V14.6162V14.6152ZM21.892 14.6203V8.87647C21.892 8.77444 21.8545 8.74792 21.7806 8.74792H19.9653C19.9035 8.74792 19.8538 8.77444 19.8538 8.87749V14.6213C19.8538 14.9427 19.6685 15.1488 19.2359 15.1488H18.3718C17.915 15.1488 17.7174 14.9427 17.7174 14.6203V8.87647C17.7174 8.77444 17.6556 8.74792 17.606 8.74792H15.815C15.7411 8.74792 15.7036 8.77444 15.7036 8.87749V14.6213C15.7036 16.0751 16.7662 17.0413 18.3718 17.0413H19.2359C20.8162 17.0413 21.892 16.0751 21.892 14.6203ZM50.9142 16.7475V8.87953C50.9142 8.77648 50.8392 8.74996 50.7906 8.74996H49.0483C48.9743 8.74996 48.9368 8.77648 48.9368 8.87953V10.9649C48.9368 12.1116 48.9997 13.1155 48.9997 13.1155H48.9622C48.9622 13.1155 48.8639 12.8329 48.6907 12.4972L46.8622 8.86626C46.8258 8.78873 46.7761 8.74996 46.7022 8.74996H45.1331C45.0723 8.74996 45.0216 8.77648 45.0216 8.87953V16.7475C45.0216 16.8495 45.0723 16.876 45.1331 16.876H46.9119C46.9858 16.876 47.0355 16.8505 47.0355 16.7475V14.6999C47.0355 13.644 46.9615 12.6268 46.9615 12.6268H47.0112C47.0112 12.6268 47.1094 12.9094 47.2705 13.2063L49.1101 16.7607C49.1476 16.825 49.185 16.876 49.2468 16.876H50.7906C50.8646 16.876 50.9142 16.8505 50.9142 16.7475V16.7475ZM96.2557 16.7475V15.0988C96.2557 15.009 96.1939 14.9825 96.1322 14.9825H93.0932C92.9817 14.9825 92.9463 14.9315 92.9463 14.8417V8.87953C92.9463 8.77648 92.8713 8.74996 92.8217 8.74996H90.9942C90.9325 8.74996 90.8828 8.77648 90.8828 8.87953V16.7475C90.8828 16.8495 90.9325 16.876 90.9942 16.876H96.1322C96.2061 16.876 96.2557 16.8505 96.2557 16.7475V16.7475ZM82.6168 16.7475V8.87953C82.6168 8.77648 82.5429 8.74996 82.4932 8.74996H80.7519C80.6769 8.74996 80.6405 8.77648 80.6405 8.87953V10.9649C80.6405 12.1116 80.7012 13.1155 80.7012 13.1155H80.6648C80.6648 13.1155 80.5665 12.8329 80.3933 12.4972L78.5648 8.86626C78.5274 8.78873 78.4777 8.74996 78.4038 8.74996H76.8357C76.7739 8.74996 76.7242 8.77648 76.7242 8.87953V16.7475C76.7242 16.8495 76.7739 16.876 76.8357 16.876H78.6135C78.6884 16.876 78.737 16.8505 78.737 16.7475V14.6999C78.737 13.644 78.6631 12.6268 78.6631 12.6268H78.7138C78.7138 12.6268 78.812 12.9094 78.9721 13.2063L80.8127 16.7607C80.8491 16.825 80.8866 16.876 80.9484 16.876H82.4922C82.5662 16.876 82.6158 16.8505 82.6158 16.7475H82.6168ZM68.286 16.7475V8.87953C68.286 8.77648 68.1989 8.74996 68.1503 8.74996H66.334C66.2732 8.74996 66.2225 8.77648 66.2225 8.87953V16.7475C66.2225 16.8495 66.2732 16.876 66.334 16.876H68.1503C68.2242 16.876 68.286 16.8505 68.286 16.7475ZM89.9569 16.7087L87.3758 8.84076C87.3505 8.76322 87.313 8.74996 87.2644 8.74996H85.9171C85.8442 8.74996 85.8189 8.77648 85.7946 8.84076L83.2135 16.7087C83.176 16.8107 83.2256 16.876 83.336 16.876H85.2384C85.2992 16.876 85.3255 16.8505 85.3499 16.7862L85.6831 15.8201C85.7074 15.7558 85.7328 15.7303 85.831 15.7303H87.313C87.4123 15.7303 87.4498 15.7558 87.4751 15.8201L87.7952 16.7862C87.8195 16.8505 87.8327 16.876 87.9067 16.876H89.8455C89.9813 16.876 89.9934 16.8117 89.9569 16.7087V16.7087ZM87.0537 14.0949C87.0669 14.1592 87.0294 14.2102 86.9423 14.2102H86.2271C86.1278 14.2102 86.0914 14.1592 86.1035 14.0949L86.3254 13.09C86.4976 12.3299 86.5847 11.5056 86.5847 11.5056H86.6222C86.6222 11.5056 86.7083 12.3299 86.8562 13.09L87.0537 14.0949V14.0949ZM75.4955 14.6223V11.0036C75.4955 9.53553 74.4217 8.58264 72.8404 8.58264H71.9753C70.3951 8.58264 69.2949 9.54879 69.2949 11.0036V14.6223C69.2949 16.0772 70.3697 17.0433 71.9753 17.0433H72.8404C74.4207 17.0433 75.4955 16.0772 75.4955 14.6223V14.6223ZM73.4452 14.6223C73.4452 14.9315 73.2223 15.1508 72.8404 15.1508H71.9753C71.5438 15.1508 71.3209 14.9447 71.3209 14.6223V11.0036C71.3209 10.7333 71.6167 10.4629 71.9753 10.4629H72.8404C73.199 10.4629 73.4452 10.6955 73.4452 11.0036V14.6223V14.6223ZM58.5056 16.7077L55.9235 8.83974C55.8991 8.7622 55.8627 8.74996 55.812 8.74996H54.4658C54.3928 8.74996 54.3675 8.77546 54.3432 8.83974L51.7611 16.7077C51.7246 16.8107 51.7742 16.876 51.8847 16.876H53.7871C53.8488 16.876 53.8732 16.8495 53.8985 16.7852L54.2318 15.8201C54.2561 15.7548 54.2804 15.7293 54.3797 15.7293H55.8617C55.9609 15.7293 55.9974 15.7548 56.0227 15.8201L56.3438 16.7852C56.3682 16.8495 56.3803 16.876 56.4553 16.876H58.3941C58.5299 16.876 58.542 16.8107 58.5056 16.7077V16.7077ZM55.6023 14.0939C55.6145 14.1581 55.578 14.2102 55.4909 14.2102H54.7747C54.6765 14.2102 54.639 14.1592 54.6511 14.0939L54.874 13.09C55.0462 12.3299 55.1333 11.5056 55.1333 11.5056H55.1698C55.1698 11.5056 55.2569 12.3299 55.4048 13.09L55.6023 14.0939V14.0939ZM13.1205 24.8511C13.1205 26.3049 12.0467 27.27 10.4664 27.27H9.60337C7.99981 27.27 6.92502 26.3049 6.92502 24.8511V21.2344C6.92502 19.7806 8.02412 18.8165 9.60337 18.8165H10.4675C12.0467 18.8165 13.1205 19.7673 13.1205 21.2344V21.9281H11.0712V21.2344C11.0712 20.9263 10.825 20.6937 10.4675 20.6937H9.60337C9.24579 20.6937 8.94898 20.964 8.94898 21.2344V24.8511C8.94898 25.1724 9.17184 25.3785 9.60337 25.3785H10.4675C10.8494 25.3785 11.0712 25.1602 11.0712 24.8511V24.1573H13.1205V24.8511ZM34.1887 20.8232V19.1746C34.1887 19.0715 34.1147 19.046 34.0773 19.046H28.6811C28.6203 19.046 28.5575 19.0715 28.5575 19.1746V20.8232C28.5575 20.913 28.6193 20.9395 28.6811 20.9395H30.1945C30.3302 20.9395 30.3545 20.9906 30.3545 21.0803V27.0445C30.3545 27.1466 30.4042 27.1731 30.4659 27.1731H32.2812C32.342 27.1731 32.4048 27.1466 32.4048 27.0445V21.0803C32.4048 20.9906 32.4291 20.9395 32.5527 20.9395H34.0783C34.1391 20.9395 34.1897 20.913 34.1897 20.8232H34.1887ZM27.3186 27.0445V19.1746C27.3186 19.0715 27.2446 19.046 27.196 19.046H25.4537C25.3797 19.046 25.3422 19.0715 25.3422 19.1746V21.2609C25.3422 22.4076 25.405 23.4115 25.405 23.4115H25.3676C25.3676 23.4115 25.2693 23.1289 25.0961 22.7943L23.2686 19.1623C23.2312 19.0838 23.1815 19.046 23.1076 19.046H21.5395C21.4777 19.046 21.428 19.0715 21.428 19.1746V27.0445C21.428 27.1466 21.4777 27.1731 21.5395 27.1731H23.3173C23.3912 27.1731 23.4408 27.1476 23.4408 27.0445V24.9959C23.4408 23.94 23.3669 22.9229 23.3669 22.9229H23.4175C23.4175 22.9229 23.5158 23.2055 23.6759 23.5023L25.5165 27.0568C25.5529 27.1211 25.5904 27.1731 25.6522 27.1731H27.196C27.27 27.1731 27.3186 27.1476 27.3186 27.0445V27.0445ZM49.0128 24.8531V21.2334C49.0128 19.7643 47.9391 18.8124 46.3578 18.8124H45.4937C43.9134 18.8124 42.8133 19.7775 42.8133 21.2334V24.8521C42.8133 26.3079 43.8871 27.2741 45.4937 27.2741H46.3578C47.938 27.2741 49.0128 26.3079 49.0128 24.8521V24.8531ZM46.9635 24.8531C46.9635 25.1622 46.7407 25.3806 46.3578 25.3806H45.4937C45.0611 25.3806 44.8393 25.1745 44.8393 24.8521V21.2334C44.8393 20.963 45.1351 20.6927 45.4937 20.6927H46.3578C46.7164 20.6927 46.9635 20.9242 46.9635 21.2334V24.8521V24.8531ZM41.8783 27.0058L40.6678 23.7717C40.6313 23.6564 40.6192 23.5666 40.7296 23.4891C41.2736 23.1289 41.6311 22.5097 41.6311 21.7119V21.5956C41.6311 20.0111 40.5938 19.045 38.9771 19.045H35.5309C35.4691 19.045 35.4195 19.0715 35.4195 19.1746V27.0445C35.4195 27.1466 35.4691 27.1731 35.5309 27.1731H37.3583C37.4201 27.1731 37.4819 27.1476 37.4819 27.0445V24.1461C37.4819 24.0553 37.5184 24.0043 37.6298 24.0043H38.4818C38.5324 24.0043 38.5689 24.0298 38.5932 24.0941L39.7298 27.0833C39.7541 27.1343 39.7905 27.1731 39.8412 27.1731H41.7669C41.8905 27.1731 41.9158 27.0956 41.8783 27.0058V27.0058ZM39.595 21.7251C39.595 22.072 39.36 22.2403 38.9771 22.2403H37.6298C37.5184 22.2403 37.4819 22.1893 37.4819 22.0975V21.0803C37.4819 20.9906 37.5184 20.9395 37.6298 20.9395H38.9771C39.3833 20.9395 39.594 21.1324 39.594 21.4803V21.7251H39.595ZM19.8761 27.0445V25.3959C19.8761 25.3051 19.8153 25.2796 19.7525 25.2796H16.7146C16.6032 25.2796 16.5667 25.2286 16.5667 25.1378V24.1461C16.5667 24.0553 16.6042 24.0043 16.7146 24.0043H19.2096C19.2704 24.0043 19.3332 23.9788 19.3332 23.888V22.2271C19.3332 22.1363 19.2714 22.1108 19.2096 22.1108H16.7146C16.6032 22.1108 16.5667 22.0598 16.5667 21.969V21.0814C16.5667 20.9906 16.6042 20.9385 16.7146 20.9385H19.7536C19.8275 20.9385 19.8761 20.913 19.8761 20.8232V19.1746C19.8761 19.0715 19.8022 19.046 19.7525 19.046H14.6157C14.5539 19.046 14.5042 19.0715 14.5042 19.1746V27.0445C14.5042 27.1466 14.5539 27.1731 14.6157 27.1731H19.7525C19.8275 27.1731 19.8761 27.1476 19.8761 27.0445V27.0445ZM96.2547 27.0445V25.3959C96.2547 25.3051 96.1929 25.2796 96.1311 25.2796H93.0922C92.9807 25.2796 92.9453 25.2286 92.9453 25.1378V24.1461C92.9453 24.0563 92.9817 24.0043 93.0932 24.0043H95.5872C95.649 24.0043 95.7107 23.9788 95.7107 23.889V22.226C95.7107 22.1373 95.65 22.1108 95.5872 22.1108H93.0932C92.9817 22.1108 92.9453 22.0598 92.9453 21.97V21.0803C92.9453 20.9906 92.9817 20.9395 93.0932 20.9395H96.1311C96.2051 20.9395 96.2547 20.913 96.2547 20.8232V19.1746C96.2547 19.0715 96.1798 19.046 96.1311 19.046H90.9932C90.9325 19.046 90.8818 19.0715 90.8818 19.1746V27.0445C90.8818 27.1466 90.9325 27.1731 90.9932 27.1731H96.1311C96.2051 27.1731 96.2547 27.1466 96.2547 27.0445ZM89.413 20.8232V19.1746C89.413 19.0715 89.338 19.046 89.3015 19.046H83.9033C83.8425 19.046 83.7797 19.0715 83.7797 19.1746V20.8232C83.7797 20.913 83.8415 20.9395 83.9033 20.9395H85.4167C85.5525 20.9395 85.5768 20.9906 85.5768 21.0803V27.0445C85.5768 27.1466 85.6264 27.1731 85.6882 27.1731H87.5035C87.5643 27.1731 87.6271 27.1466 87.6271 27.0445V21.0803C87.6271 20.9906 87.6514 20.9395 87.775 20.9395H89.3005C89.3613 20.9395 89.412 20.913 89.412 20.8232H89.413ZM65.6147 27.0445V25.3959C65.6147 25.3051 65.554 25.2796 65.4912 25.2796H62.4532C62.3418 25.2796 62.3053 25.2286 62.3053 25.1378V24.1461C62.3053 24.0563 62.3418 24.0043 62.4532 24.0043H64.9482C65.01 24.0043 65.0718 23.9788 65.0718 23.889V22.226C65.0718 22.1373 65.01 22.1108 64.9482 22.1108H62.4532C62.3418 22.1108 62.3053 22.0598 62.3053 21.97V21.0803C62.3053 20.9906 62.3418 20.9395 62.4532 20.9395H65.4922C65.5661 20.9395 65.6147 20.913 65.6147 20.8232V19.1746C65.6147 19.0715 65.5408 19.046 65.4912 19.046H60.3543C60.2925 19.046 60.2429 19.0715 60.2429 19.1746V27.0445C60.2429 27.1466 60.2925 27.1731 60.3543 27.1731H65.4912C65.5661 27.1731 65.6147 27.1466 65.6147 27.0445ZM56.6275 24.7511C56.6275 25.0225 56.356 25.2796 56.0096 25.2796H54.6633C54.5519 25.2796 54.5154 25.2286 54.5154 25.1378V21.0803C54.5154 20.9906 54.5529 20.9395 54.6633 20.9395H56.0106C56.3438 20.9395 56.6275 21.2221 56.6275 21.4803V24.7511ZM58.6656 24.6491V21.5966C58.6656 20.0122 57.6273 19.046 56.0106 19.046H52.5644C52.5026 19.046 52.4529 19.0715 52.4529 19.1746V27.0445C52.4529 27.1466 52.5026 27.1731 52.5644 27.1731H56.0106C57.6273 27.1731 58.6646 26.2069 58.6646 24.648L58.6656 24.6491ZM83.1841 27.0058L81.9736 23.7717C81.9371 23.6564 81.9249 23.5666 82.0354 23.4891C82.5793 23.1289 82.9369 22.5097 82.9369 21.7119V21.5956C82.9369 20.0122 81.8996 19.045 80.2819 19.045H76.8367C76.7749 19.045 76.7252 19.0715 76.7252 19.1746V27.0445C76.7252 27.1466 76.7749 27.1731 76.8367 27.1731H78.6641C78.7249 27.1731 78.7877 27.1476 78.7877 27.0445V24.1461C78.7877 24.0563 78.8242 24.0043 78.9356 24.0043H79.7875C79.8382 24.0043 79.8746 24.0308 79.899 24.0951L81.0355 27.0823C81.0598 27.1333 81.0963 27.1731 81.147 27.1731H83.0726C83.1962 27.1731 83.2205 27.0956 83.1841 27.0058V27.0058ZM80.8998 21.7251C80.8998 22.072 80.6648 22.2403 80.2819 22.2403H78.9356C78.8242 22.2403 78.7877 22.1893 78.7877 22.0975V21.0803C78.7877 20.9906 78.8242 20.9395 78.9356 20.9395H80.2819C80.6891 20.9395 80.8998 21.1324 80.8998 21.4803V21.7251V21.7251ZM75.6646 27.0058L73.0835 19.1358C73.0592 19.0583 73.0228 19.046 72.9721 19.046H71.6269C71.5529 19.046 71.5276 19.0715 71.5033 19.1358L68.9212 27.0058C68.8837 27.1078 68.9333 27.1731 69.0437 27.1731H70.9461C71.0079 27.1731 71.0332 27.1476 71.0576 27.0823L71.3918 26.1172C71.4151 26.0529 71.4405 26.0264 71.5387 26.0264H73.0207C73.12 26.0264 73.1575 26.0529 73.1818 26.1172L73.5029 27.0823C73.5272 27.1476 73.5394 27.1731 73.6143 27.1731H75.5532C75.689 27.1731 75.7011 27.1088 75.6646 27.0058V27.0058ZM72.7624 24.391C72.7746 24.4552 72.7381 24.5073 72.651 24.5073H71.9348C71.8365 24.5073 71.7991 24.4552 71.8122 24.391L72.0341 23.386C72.2063 22.626 72.2934 21.8016 72.2934 21.8016H72.3309C72.3309 21.8016 72.417 22.626 72.5649 23.386L72.7624 24.391Z" fill="white"/>
<path fill-rule="evenodd" clip-rule="evenodd" d="M3.68949 30.4285H99.4831V5.49637H3.69051L3.68848 30.4285H3.68949ZM99.4841 33.1382H3.69051V51.0227H99.4831L99.4841 33.1382ZM1 53.7324H102.173V2.78564H1V53.7324Z" fill="white"/>
<path opacity="0.5" fill-rule="evenodd" clip-rule="evenodd" d="M114.044 14.3952V17.1155C113.801 17.2618 113.507 17.3744 113.163 17.4534C112.819 17.5323 112.467 17.5718 112.108 17.5718C111.61 17.5718 111.16 17.4929 110.758 17.3349C110.356 17.177 110.013 16.9605 109.729 16.6855C109.446 16.4106 109.229 16.083 109.078 15.7027C108.928 15.3225 108.853 14.9071 108.853 14.4566C108.853 13.9477 108.942 13.4841 109.122 13.0658C109.301 12.6475 109.543 12.2877 109.847 11.9864C110.15 11.6851 110.504 11.4511 110.906 11.2844C111.308 11.1177 111.732 11.0343 112.178 11.0343C112.328 11.0343 112.486 11.0446 112.651 11.065C112.816 11.0855 112.979 11.1162 113.141 11.1572C113.303 11.1981 113.46 11.2464 113.61 11.302C113.761 11.3575 113.897 11.4234 114.018 11.4994L113.497 12.3769C113.416 12.3243 113.319 12.2789 113.206 12.2409C113.094 12.2029 112.976 12.1692 112.855 12.14C112.733 12.1107 112.613 12.0888 112.495 12.0742C112.376 12.0596 112.264 12.0522 112.16 12.0522C111.865 12.0522 111.583 12.1122 111.314 12.2321C111.045 12.3521 110.806 12.5144 110.598 12.7192C110.389 12.9239 110.223 13.1682 110.098 13.4519C109.974 13.7356 109.912 14.0384 109.912 14.3601C109.912 14.6526 109.967 14.9305 110.077 15.1938C110.187 15.457 110.34 15.6896 110.537 15.8914C110.734 16.0932 110.968 16.2541 111.24 16.374C111.512 16.494 111.81 16.5539 112.134 16.5539C112.25 16.5539 112.395 16.5437 112.568 16.5232C112.742 16.5027 112.907 16.4662 113.063 16.4135V15.3254H111.882V14.3952H114.044ZM117.621 17.5718C117.28 17.5718 116.96 17.5148 116.662 17.4007C116.364 17.2866 116.105 17.1272 115.885 16.9225C115.665 16.7177 115.491 16.4706 115.364 16.181C115.237 15.8914 115.173 15.5711 115.173 15.2201V11.1045H116.232V15.1938C116.232 15.381 116.268 15.5565 116.341 15.7203C116.413 15.8841 116.511 16.0274 116.636 16.1503C116.76 16.2731 116.906 16.3711 117.074 16.4442C117.242 16.5174 117.424 16.5539 117.621 16.5539C117.818 16.5539 118.002 16.5174 118.172 16.4442C118.343 16.3711 118.492 16.2731 118.62 16.1503C118.747 16.0274 118.847 15.8841 118.919 15.7203C118.991 15.5565 119.028 15.381 119.028 15.1938V11.1045H120.087V15.2201C120.087 15.5711 120.023 15.8914 119.896 16.181C119.768 16.4706 119.593 16.7177 119.371 16.9225C119.148 17.1272 118.886 17.2866 118.585 17.4007C118.284 17.5148 117.963 17.5718 117.621 17.5718ZM121.485 17.5016V11.1045H125.687V12.0786H122.544V13.7985H125.339V14.7989H122.544V16.5013H125.808V17.5016H121.485ZM126.859 17.5016V11.1045H128.647C128.994 11.1045 129.311 11.1513 129.598 11.2449C129.884 11.3385 130.127 11.4731 130.327 11.6486C130.527 11.8241 130.681 12.0405 130.791 12.2979C130.901 12.5554 130.956 12.8449 130.956 13.1667C130.956 13.3422 130.939 13.5177 130.904 13.6932C130.87 13.8687 130.815 14.0384 130.739 14.2022C130.664 14.366 130.566 14.5166 130.444 14.6541C130.323 14.7916 130.178 14.91 130.01 15.0095C130.137 15.2142 130.262 15.4146 130.383 15.6106C130.505 15.8066 130.628 16.004 130.752 16.2029C130.877 16.4018 131.006 16.6066 131.139 16.8172C131.272 17.0278 131.417 17.2559 131.573 17.5016H130.297C130.036 17.0921 129.79 16.7046 129.559 16.3389C129.327 15.9733 129.104 15.6267 128.89 15.2991H127.918V17.5016H126.859ZM127.918 14.2899H128.769C128.989 14.2899 129.171 14.2519 129.316 14.1758C129.46 14.0998 129.576 14.0076 129.663 13.8994C129.75 13.7912 129.81 13.6742 129.845 13.5484C129.88 13.4226 129.897 13.3071 129.897 13.2018C129.897 13.1023 129.881 12.9897 129.849 12.8639C129.818 12.7382 129.76 12.6197 129.676 12.5086C129.592 12.3974 129.478 12.3038 129.333 12.2277C129.188 12.1517 129.003 12.1137 128.777 12.1137H127.918V14.2899ZM137.971 11.1045V17.8C137.931 17.7473 137.841 17.6508 137.702 17.5104C137.563 17.37 137.392 17.2018 137.19 17.0058C136.987 16.8099 136.763 16.5934 136.517 16.3565C136.271 16.1195 136.021 15.8797 135.766 15.6369C135.511 15.3941 135.263 15.1557 135.019 14.9217C134.776 14.6877 134.555 14.4727 134.355 14.2768C134.156 14.0808 133.988 13.914 133.852 13.7766C133.716 13.6391 133.627 13.544 133.587 13.4914C133.581 13.4797 133.558 13.449 133.518 13.3992C133.477 13.3495 133.442 13.3042 133.413 13.2632L133.439 13.544V17.5016H132.38V10.8149C132.421 10.8676 132.51 10.9627 132.649 11.1001C132.788 11.2376 132.959 11.4029 133.162 11.5959C133.364 11.789 133.588 11.9996 133.834 12.2277C134.08 12.4559 134.331 12.6884 134.585 12.9254C134.84 13.1623 135.089 13.3963 135.332 13.6274C135.575 13.8585 135.798 14.0691 136.001 14.2592C136.203 14.4493 136.372 14.6117 136.508 14.7462C136.644 14.8808 136.733 14.9744 136.773 15.027L136.938 15.2727L136.912 14.9744V11.1045H137.971ZM139.43 11.1045H140.498V17.5016H139.43V11.1045ZM146.723 17.0278C146.653 17.0746 146.556 17.1302 146.432 17.1945C146.307 17.2589 146.16 17.3188 145.989 17.3744C145.818 17.43 145.626 17.4768 145.412 17.5148C145.197 17.5528 144.969 17.5718 144.726 17.5718C144.228 17.5718 143.782 17.4855 143.389 17.313C142.995 17.1404 142.662 16.9078 142.39 16.6153C142.118 16.3228 141.91 15.9806 141.765 15.5886C141.621 15.1967 141.548 14.7843 141.548 14.3513C141.548 13.8716 141.635 13.4285 141.809 13.0219C141.982 12.6153 142.218 12.2643 142.516 11.9689C142.814 11.6734 143.162 11.4438 143.558 11.28C143.954 11.1162 144.378 11.0343 144.83 11.0343C145.004 11.0343 145.179 11.0475 145.355 11.0738C145.532 11.1001 145.698 11.1338 145.854 11.1747C146.011 11.2157 146.148 11.2625 146.267 11.3151C146.385 11.3678 146.471 11.4234 146.523 11.4819C146.471 11.5638 146.43 11.631 146.401 11.6837C146.372 11.7363 146.342 11.7904 146.31 11.846C146.278 11.9016 146.244 11.9645 146.206 12.0347C146.168 12.1049 146.115 12.2014 146.045 12.3243C145.976 12.2775 145.892 12.2365 145.794 12.2014C145.695 12.1663 145.592 12.1385 145.485 12.1181C145.378 12.0976 145.27 12.0815 145.16 12.0698C145.05 12.0581 144.951 12.0522 144.865 12.0522C144.541 12.0522 144.241 12.1137 143.966 12.2365C143.691 12.3594 143.454 12.5217 143.254 12.7235C143.054 12.9254 142.898 13.1608 142.785 13.4299C142.672 13.6991 142.616 13.9769 142.616 14.2636C142.616 14.5444 142.67 14.8179 142.777 15.0841C142.884 15.3503 143.034 15.5857 143.228 15.7905C143.422 15.9952 143.652 16.1605 143.918 16.2863C144.185 16.412 144.48 16.4749 144.804 16.4749C144.989 16.4749 145.168 16.4559 145.342 16.4179C145.516 16.3799 145.669 16.3375 145.802 16.2907C145.935 16.2439 146.044 16.1971 146.128 16.1503C146.212 16.1035 146.257 16.0713 146.262 16.0537L146.723 17.0278ZM151.402 17.5016C151.385 17.4607 151.354 17.3876 151.311 17.2823C151.267 17.177 151.214 17.0483 151.15 16.8961C151.087 16.744 151.017 16.5759 150.942 16.3916C150.867 16.2073 150.789 16.0157 150.707 15.8168H148.528L147.834 17.5016H146.783C146.806 17.449 146.861 17.3188 146.948 17.1111C147.035 16.9035 147.144 16.6461 147.274 16.3389C147.404 16.0318 147.549 15.6896 147.708 15.3122C147.867 14.9349 148.031 14.5502 148.198 14.1583C148.366 13.7663 148.53 13.3817 148.689 13.0044C148.848 12.627 148.993 12.2848 149.123 11.9777C149.253 11.6705 149.362 11.4131 149.449 11.2054C149.535 10.9978 149.59 10.8676 149.614 10.8149C149.637 10.8676 149.693 10.9978 149.783 11.2054C149.873 11.4131 149.983 11.6705 150.113 11.9777C150.243 12.2848 150.388 12.627 150.547 13.0044C150.706 13.3817 150.87 13.7663 151.037 14.1583C151.205 14.5502 151.369 14.9349 151.528 15.3122C151.687 15.6896 151.832 16.0318 151.962 16.3389C152.092 16.6461 152.201 16.9035 152.288 17.1111C152.374 17.3188 152.429 17.449 152.453 17.5016H151.402ZM148.893 14.913H150.334L149.709 13.3861C149.703 13.3802 149.689 13.3407 149.666 13.2676C149.643 13.1945 149.625 13.1287 149.614 13.0702C149.602 13.1287 149.585 13.1945 149.561 13.2676C149.538 13.3407 149.527 13.3802 149.527 13.3861L148.893 14.913Z" fill="white"/>
<path opacity="0.5" fill-rule="evenodd" clip-rule="evenodd" d="M109.056 7.62955V3.00263H110.306C110.546 3.00263 110.766 3.03454 110.966 3.09836C111.166 3.16218 111.338 3.25684 111.484 3.38236C111.629 3.50787 111.741 3.66103 111.821 3.84186C111.901 4.02268 111.941 4.23009 111.941 4.4641C111.941 4.59174 111.929 4.71831 111.904 4.84382C111.878 4.96934 111.837 5.09059 111.78 5.2076C111.724 5.3246 111.651 5.43309 111.563 5.53307C111.474 5.63306 111.367 5.71709 111.241 5.78516C111.409 6.0532 111.592 6.34996 111.79 6.67544C111.988 7.00093 112.188 7.31896 112.39 7.62955H111.563C111.478 7.49765 111.391 7.35938 111.301 7.21472C111.21 7.07006 111.12 6.92647 111.029 6.78394C110.939 6.64141 110.85 6.501 110.764 6.36273C110.678 6.22445 110.597 6.09575 110.521 5.97662H109.75V7.62955H109.056ZM109.75 5.31928H110.376C110.544 5.31928 110.685 5.29056 110.799 5.23312C110.912 5.17569 111.002 5.10442 111.067 5.01933C111.132 4.93423 111.178 4.84276 111.206 4.7449C111.233 4.64705 111.247 4.5577 111.247 4.47686C111.247 4.39602 111.233 4.30774 111.206 4.21201C111.178 4.11628 111.131 4.02693 111.064 3.94397C110.996 3.861 110.907 3.79187 110.795 3.73656C110.684 3.68124 110.546 3.65359 110.382 3.65359H109.75V5.31928ZM113.021 7.62955V3.00263H116.027V3.63444H113.716V4.98742H115.774V5.63199H113.716V6.98497H116.115V7.62955H113.021ZM117.611 5.31928H118.237C118.405 5.31928 118.546 5.2895 118.66 5.22993C118.773 5.17037 118.863 5.09804 118.928 5.01295C118.993 4.92785 119.039 4.83638 119.067 4.73852C119.094 4.64066 119.108 4.55345 119.108 4.47686C119.108 4.39602 119.094 4.30774 119.067 4.21201C119.039 4.11628 118.992 4.02693 118.925 3.94397C118.857 3.861 118.768 3.79187 118.656 3.73656C118.545 3.68124 118.407 3.65359 118.243 3.65359H117.611V5.31928ZM116.917 7.62955V3.00263H118.167C118.407 3.00263 118.627 3.03454 118.827 3.09836C119.027 3.16218 119.199 3.25684 119.345 3.38236C119.49 3.50787 119.602 3.66103 119.682 3.84186C119.762 4.02268 119.802 4.23009 119.802 4.4641C119.802 4.64705 119.775 4.82893 119.72 5.00975C119.666 5.19058 119.577 5.35225 119.455 5.49478C119.333 5.63731 119.173 5.75325 118.975 5.8426C118.777 5.93195 118.537 5.97662 118.255 5.97662H117.611V7.62955H116.917ZM120.56 7.62955V3.00263H123.566V3.63444H121.255V4.98742H123.313V5.63199H121.255V6.98497H123.654V7.62955H120.56ZM128.472 3.00263V7.84015C128.413 7.76357 128.299 7.64018 128.131 7.47L127.55 6.88286C127.331 6.66162 127.098 6.42974 126.852 6.18722C126.606 5.94471 126.373 5.7139 126.154 5.49478C125.935 5.27567 125.744 5.07996 125.58 4.90764C125.416 4.73533 125.306 4.61301 125.251 4.54068L125.131 4.37475L125.15 4.57897V7.62955H124.456V2.78564C124.502 2.84521 124.579 2.9303 124.686 3.04092C124.794 3.15154 124.92 3.28024 125.065 3.42703C125.21 3.57382 125.37 3.7323 125.545 3.90249C125.72 4.07267 125.896 4.24498 126.075 4.41942C126.254 4.59386 126.431 4.76511 126.606 4.93317C126.78 5.10123 126.94 5.25759 127.086 5.40224C127.231 5.5469 127.356 5.67454 127.461 5.78516C127.567 5.89578 127.64 5.97875 127.682 6.03406L127.802 6.21275L127.783 5.99577V3.00263H128.472ZM132.216 3.25791L131.97 3.8259C131.797 3.76208 131.625 3.71103 131.455 3.67274C131.284 3.63444 131.121 3.6153 130.966 3.6153C130.7 3.6153 130.489 3.67061 130.331 3.78123C130.173 3.89185 130.094 4.03225 130.094 4.20244C130.094 4.3471 130.151 4.46303 130.265 4.55025C130.378 4.63747 130.519 4.71618 130.688 4.78639C130.856 4.85659 131.039 4.92679 131.237 4.99699C131.435 5.06719 131.618 5.1576 131.786 5.26822C131.955 5.37884 132.096 5.51818 132.209 5.68624C132.323 5.8543 132.38 6.07022 132.38 6.33401C132.38 6.53823 132.343 6.72224 132.269 6.88605C132.196 7.04985 132.086 7.19132 131.941 7.31045C131.796 7.42958 131.615 7.52105 131.398 7.58487C131.181 7.64869 130.928 7.6806 130.637 7.6806C130.452 7.6806 130.285 7.66784 130.135 7.64231C129.986 7.61678 129.851 7.58381 129.731 7.54339C129.611 7.50297 129.506 7.45936 129.416 7.41256C129.325 7.36576 129.248 7.32321 129.185 7.28492L129.488 6.67864C129.656 6.77649 129.844 6.8552 130.05 6.91477C130.256 6.97433 130.444 7.00411 130.612 7.00411C130.696 7.00411 130.8 6.99348 130.925 6.9722C131.049 6.95093 131.168 6.9137 131.281 6.86052C131.395 6.80734 131.493 6.73607 131.575 6.64673C131.657 6.55738 131.698 6.44463 131.698 6.30848C131.698 6.1851 131.665 6.0798 131.6 5.99257C131.535 5.90535 131.449 5.82877 131.341 5.76282C131.234 5.69688 131.112 5.63731 130.975 5.58413C130.838 5.53095 130.698 5.47564 130.555 5.4182C130.412 5.36076 130.272 5.30013 130.135 5.23631C129.999 5.17249 129.876 5.09485 129.769 5.00337C129.662 4.9119 129.575 4.80553 129.51 4.68428C129.445 4.56302 129.412 4.4173 129.412 4.24711C129.412 4.08969 129.444 3.9344 129.507 3.78123C129.57 3.62806 129.665 3.49191 129.791 3.37278C129.917 3.25365 130.074 3.15793 130.262 3.0856C130.449 3.01327 130.667 2.9771 130.915 2.9771C131.067 2.9771 131.215 2.98987 131.36 3.01539C131.505 3.04092 131.637 3.06964 131.755 3.10155C131.873 3.13346 131.973 3.16431 132.055 3.19409C132.137 3.22387 132.191 3.24514 132.216 3.25791ZM135.998 7.62955C135.977 7.58274 135.947 7.51467 135.909 7.42532C135.872 7.33598 135.828 7.2328 135.78 7.1158C135.732 6.9988 135.679 6.87116 135.622 6.73288C135.565 6.5946 135.507 6.45101 135.449 6.3021H133.832L133.289 7.62955H132.607L134.647 2.78564C134.672 2.84521 134.717 2.9537 134.782 3.11112C134.848 3.26855 134.926 3.45681 135.016 3.67593C135.107 3.89504 135.208 4.13755 135.319 4.40347C135.431 4.66939 135.544 4.93849 135.66 5.21079C135.776 5.48308 135.889 5.75112 136.001 6.01491C136.113 6.2787 136.215 6.52121 136.307 6.74245C136.4 6.9637 136.479 7.15196 136.544 7.30726C136.609 7.46255 136.655 7.56998 136.68 7.62955H135.998ZM134.072 5.71496H135.215C135.156 5.57456 135.1 5.43947 135.048 5.30971C134.995 5.17994 134.947 5.06081 134.902 4.95232C134.858 4.84382 134.819 4.74916 134.786 4.66832C134.752 4.58748 134.727 4.52366 134.71 4.47686C134.706 4.46835 134.696 4.43857 134.681 4.38751C134.667 4.33646 134.655 4.28966 134.647 4.24711C134.638 4.28966 134.626 4.33646 134.609 4.38751C134.592 4.43857 134.581 4.46835 134.577 4.47686L134.072 5.71496ZM137.248 7.62955V3.00263H138.498C138.738 3.00263 138.958 3.03454 139.158 3.09836C139.358 3.16218 139.531 3.25684 139.676 3.38236C139.821 3.50787 139.934 3.66103 140.014 3.84186C140.094 4.02268 140.134 4.23009 140.134 4.4641C140.134 4.59174 140.121 4.71831 140.096 4.84382C140.07 4.96934 140.029 5.09059 139.973 5.2076C139.916 5.3246 139.843 5.43309 139.755 5.53307C139.666 5.63306 139.559 5.71709 139.433 5.78516C139.601 6.0532 139.784 6.34996 139.982 6.67544C140.18 7.00093 140.38 7.31896 140.582 7.62955H139.755C139.671 7.49765 139.583 7.35938 139.493 7.21472C139.402 7.07006 139.312 6.92647 139.221 6.78394C139.131 6.64141 139.042 6.501 138.956 6.36273C138.87 6.22445 138.789 6.09575 138.713 5.97662H137.943V7.62955H137.248ZM137.943 5.31928H138.568C138.736 5.31928 138.877 5.29056 138.991 5.23312C139.104 5.17569 139.194 5.10442 139.259 5.01933C139.324 4.93423 139.371 4.84276 139.398 4.7449C139.425 4.64705 139.439 4.5577 139.439 4.47686C139.439 4.39602 139.425 4.30774 139.398 4.21201C139.371 4.11628 139.323 4.02693 139.256 3.94397C139.189 3.861 139.099 3.79187 138.988 3.73656C138.876 3.68124 138.738 3.65359 138.574 3.65359H137.943V5.31928Z" fill="white"/>
<path d="M108.853 24.1633H215.558" stroke="black" stroke-opacity="0.2" stroke-width="0.25"/>
</g>
<path d="M118.647 36.8412C118.545 36.9094 118.4 36.9904 118.212 37.0842C118.033 37.178 117.816 37.2675 117.56 37.3528C117.313 37.4295 117.032 37.4935 116.716 37.5447C116.401 37.6043 116.064 37.6342 115.706 37.6342C114.973 37.6342 114.316 37.5105 113.737 37.2633C113.157 37.0075 112.667 36.6664 112.266 36.24C111.865 35.8137 111.558 35.3149 111.345 34.7436C111.132 34.1723 111.026 33.5711 111.026 32.9401C111.026 32.2409 111.153 31.5972 111.409 31.0088C111.665 30.4119 112.01 29.9003 112.445 29.474C112.888 29.0391 113.4 28.7023 113.98 28.4635C114.568 28.2248 115.194 28.1054 115.859 28.1054C116.115 28.1054 116.371 28.1267 116.627 28.1694C116.891 28.2035 117.138 28.2504 117.368 28.31C117.599 28.3697 117.799 28.438 117.969 28.5147C118.148 28.5914 118.276 28.6724 118.353 28.7577C118.276 28.8771 118.217 28.9751 118.174 29.0519C118.131 29.1286 118.084 29.2096 118.033 29.2949C117.991 29.3716 117.94 29.4612 117.88 29.5635C117.829 29.6658 117.752 29.8065 117.65 29.9856C117.547 29.9174 117.424 29.8577 117.279 29.8065C117.134 29.7554 116.98 29.717 116.818 29.6914C116.665 29.6573 116.507 29.6317 116.345 29.6147C116.183 29.5976 116.038 29.5891 115.911 29.5891C115.433 29.5891 114.99 29.6786 114.581 29.8577C114.18 30.0367 113.83 30.2755 113.532 30.5739C113.242 30.8638 113.012 31.2049 112.841 31.5972C112.679 31.9894 112.598 32.3944 112.598 32.8122C112.598 33.2215 112.675 33.6223 112.829 34.0145C112.991 34.3982 113.212 34.7393 113.494 35.0378C113.783 35.3362 114.124 35.5792 114.517 35.7668C114.909 35.9459 115.344 36.0354 115.821 36.0354C116.094 36.0354 116.358 36.0098 116.614 35.9587C116.87 35.899 117.096 35.835 117.292 35.7668C117.488 35.6986 117.645 35.6304 117.765 35.5622C117.893 35.4939 117.961 35.447 117.969 35.4215L118.647 36.8412Z" fill="white"/>
<path d="M118.943 32.889C118.943 32.2409 119.066 31.627 119.314 31.0472C119.569 30.4673 119.91 29.96 120.337 29.5251C120.771 29.0903 121.274 28.7449 121.846 28.4891C122.425 28.2333 123.043 28.1054 123.7 28.1054C124.348 28.1054 124.962 28.2333 125.541 28.4891C126.121 28.7449 126.628 29.0903 127.063 29.5251C127.498 29.96 127.839 30.4673 128.086 31.0472C128.342 31.627 128.47 32.2409 128.47 32.889C128.47 33.5456 128.342 34.1637 128.086 34.7436C127.839 35.3149 127.498 35.818 127.063 36.2528C126.628 36.6792 126.121 37.016 125.541 37.2633C124.962 37.5105 124.348 37.6342 123.7 37.6342C123.043 37.6342 122.425 37.5105 121.846 37.2633C121.274 37.016 120.771 36.6792 120.337 36.2528C119.91 35.818 119.569 35.3149 119.314 34.7436C119.066 34.1637 118.943 33.5456 118.943 32.889ZM120.516 32.889C120.516 33.3409 120.597 33.7672 120.759 34.168C120.929 34.5602 121.159 34.9056 121.449 35.204C121.748 35.4939 122.089 35.7242 122.472 35.8947C122.864 36.0652 123.286 36.1505 123.738 36.1505C124.173 36.1505 124.582 36.0652 124.966 35.8947C125.358 35.7242 125.695 35.4939 125.976 35.204C126.266 34.9056 126.492 34.5602 126.654 34.168C126.824 33.7672 126.91 33.3409 126.91 32.889C126.91 32.4371 126.824 32.015 126.654 31.6227C126.483 31.222 126.253 30.8724 125.963 30.5739C125.673 30.2755 125.332 30.041 124.94 29.8705C124.557 29.6999 124.143 29.6147 123.7 29.6147C123.256 29.6147 122.839 29.6999 122.447 29.8705C122.063 30.041 121.726 30.2755 121.436 30.5739C121.155 30.8724 120.929 31.222 120.759 31.6227C120.597 32.015 120.516 32.4371 120.516 32.889Z" fill="white"/>
<path d="M138.244 28.2077V37.9667C138.185 37.89 138.053 37.7493 137.848 37.5447C137.643 37.34 137.392 37.097 137.094 36.8156C136.795 36.5257 136.463 36.2102 136.096 35.8691C135.738 35.5195 135.371 35.1699 134.996 34.8203C134.621 34.4622 134.255 34.1126 133.897 33.7715C133.539 33.4304 133.21 33.1192 132.912 32.8378C132.622 32.5479 132.375 32.3049 132.17 32.1088C131.974 31.9041 131.846 31.7634 131.787 31.6867C131.778 31.6696 131.744 31.627 131.684 31.5588C131.625 31.482 131.573 31.4138 131.531 31.3541L131.569 31.7634V37.5319H130.009V27.7856C130.069 27.8624 130.201 28.0031 130.406 28.2077C130.61 28.4038 130.862 28.6426 131.16 28.924C131.458 29.2054 131.787 29.5123 132.145 29.8449C132.511 30.1774 132.882 30.5185 133.257 30.8681C133.632 31.2092 133.999 31.5503 134.357 31.8913C134.715 32.2239 135.043 32.5309 135.342 32.8122C135.64 33.0851 135.887 33.3196 136.083 33.5157C136.288 33.7118 136.42 33.8483 136.48 33.925L136.723 34.2831L136.684 33.8483V28.2077H138.244Z" fill="white"/>
<path d="M145.975 28.2077V29.7042H143.673V37.5319H142.1V29.7042H139.85V28.2077H145.975Z" fill="white"/>
<path d="M147.592 37.5319V28.2077H150.227C150.738 28.2077 151.203 28.2759 151.62 28.4124C152.047 28.5488 152.405 28.7449 152.695 29.0007C152.993 29.2565 153.223 29.572 153.385 29.9472C153.547 30.3224 153.628 30.7445 153.628 31.2134C153.628 31.4693 153.603 31.7251 153.551 31.9809C153.5 32.2367 153.419 32.484 153.308 32.7227C153.198 32.9615 153.053 33.1832 152.874 33.3878C152.695 33.5839 152.482 33.7545 152.234 33.8994C152.422 34.1979 152.605 34.492 152.784 34.7819C152.963 35.0633 153.142 35.349 153.321 35.6389C153.509 35.9288 153.701 36.2273 153.897 36.5342C154.093 36.8412 154.306 37.1737 154.536 37.5319H152.656C152.273 36.935 151.91 36.3722 151.569 35.8435C151.228 35.3064 150.9 34.799 150.585 34.3215H150.457H149.152V37.5319H147.592ZM149.152 32.8506H150.406C150.73 32.8506 150.998 32.7952 151.211 32.6843C151.424 32.5735 151.595 32.4413 151.723 32.2878C151.851 32.1258 151.94 31.9553 151.991 31.7762C152.042 31.5886 152.068 31.4181 152.068 31.2646C152.068 31.1197 152.042 30.9576 151.991 30.7786C151.949 30.591 151.863 30.4162 151.736 30.2542C151.616 30.0922 151.45 29.9557 151.237 29.8449C151.024 29.734 150.751 29.6786 150.418 29.6786H149.152V32.8506Z" fill="white"/>
<path d="M161.451 37.5319C161.425 37.4722 161.379 37.3656 161.31 37.2121C161.251 37.0586 161.174 36.871 161.08 36.6493C160.986 36.4276 160.884 36.1846 160.773 35.9203C160.662 35.6474 160.547 35.366 160.428 35.0761H157.218L156.195 37.5319H154.648C154.682 37.4551 154.763 37.2675 154.891 36.9691C155.019 36.6621 155.176 36.2869 155.364 35.8435C155.56 35.3916 155.773 34.8928 156.003 34.3471C156.242 33.7928 156.485 33.2301 156.732 32.6588C156.98 32.0875 157.218 31.5289 157.448 30.9832C157.687 30.429 157.9 29.9302 158.088 29.4868C158.284 29.0348 158.446 28.6596 158.574 28.3612C158.702 28.0542 158.783 27.8624 158.817 27.7856C158.851 27.8624 158.932 28.0542 159.06 28.3612C159.196 28.6596 159.358 29.0348 159.546 29.4868C159.742 29.9302 159.955 30.429 160.185 30.9832C160.424 31.5289 160.667 32.0875 160.914 32.6588C161.161 33.2301 161.4 33.7928 161.63 34.3471C161.869 34.8928 162.082 35.3916 162.269 35.8435C162.466 36.2869 162.628 36.6621 162.755 36.9691C162.883 37.2675 162.964 37.4551 162.998 37.5319H161.451ZM157.755 33.7587H159.878L158.957 31.5332C158.949 31.5247 158.928 31.4693 158.893 31.3669C158.859 31.2561 158.834 31.158 158.817 31.0728C158.8 31.158 158.774 31.2561 158.74 31.3669C158.706 31.4693 158.689 31.5247 158.689 31.5332L157.755 33.7587Z" fill="white"/>
<path d="M163.706 35.3447V34.0529H166.097V35.3447H163.706Z" fill="white"/>
<path d="M173.614 37.5319C173.589 37.4722 173.542 37.3656 173.474 37.2121C173.414 37.0586 173.337 36.871 173.244 36.6493C173.15 36.4276 173.048 36.1846 172.937 35.9203C172.826 35.6474 172.711 35.366 172.591 35.0761H169.382L168.359 37.5319H166.811C166.845 37.4551 166.926 37.2675 167.054 36.9691C167.182 36.6621 167.34 36.2869 167.527 35.8435C167.724 35.3916 167.937 34.8928 168.167 34.3471C168.406 33.7928 168.648 33.2301 168.896 32.6588C169.143 32.0875 169.382 31.5289 169.612 30.9832C169.851 30.429 170.064 29.9302 170.251 29.4868C170.447 29.0348 170.609 28.6596 170.737 28.3612C170.865 28.0542 170.946 27.8624 170.98 27.7856C171.014 27.8624 171.095 28.0542 171.223 28.3612C171.36 28.6596 171.521 29.0348 171.709 29.4868C171.905 29.9302 172.118 30.429 172.348 30.9832C172.587 31.5289 172.83 32.0875 173.077 32.6588C173.325 33.2301 173.563 33.7928 173.793 34.3471C174.032 34.8928 174.245 35.3916 174.433 35.8435C174.629 36.2869 174.791 36.6621 174.919 36.9691C175.047 37.2675 175.128 37.4551 175.162 37.5319H173.614ZM169.919 33.7587H172.042L171.121 31.5332C171.112 31.5247 171.091 31.4693 171.057 31.3669C171.023 31.2561 170.997 31.158 170.98 31.0728C170.963 31.158 170.938 31.2561 170.903 31.3669C170.869 31.4693 170.852 31.5247 170.852 31.5332L169.919 33.7587Z" fill="white"/>
<path d="M176.24 37.5319V28.2077H178.874C179.386 28.2077 179.85 28.2759 180.268 28.4124C180.694 28.5488 181.053 28.7449 181.342 29.0007C181.641 29.2565 181.871 29.572 182.033 29.9472C182.195 30.3224 182.276 30.7445 182.276 31.2134C182.276 31.4693 182.25 31.7251 182.199 31.9809C182.148 32.2367 182.067 32.484 181.956 32.7227C181.845 32.9615 181.7 33.1832 181.521 33.3878C181.342 33.5839 181.129 33.7545 180.882 33.8994C181.07 34.1979 181.253 34.492 181.432 34.7819C181.611 35.0633 181.79 35.349 181.969 35.6389C182.157 35.9288 182.348 36.2273 182.544 36.5342C182.741 36.8412 182.954 37.1737 183.184 37.5319H181.304C180.92 36.935 180.558 36.3722 180.217 35.8435C179.876 35.3064 179.548 34.799 179.232 34.3215H179.105H177.8V37.5319H176.24ZM177.8 32.8506H179.053C179.377 32.8506 179.646 32.7952 179.859 32.6843C180.072 32.5735 180.243 32.4413 180.37 32.2878C180.498 32.1258 180.588 31.9553 180.639 31.7762C180.69 31.5886 180.716 31.4181 180.716 31.2646C180.716 31.1197 180.69 30.9576 180.639 30.7786C180.596 30.591 180.511 30.4162 180.383 30.2542C180.264 30.0922 180.098 29.9557 179.885 29.8449C179.671 29.734 179.399 29.6786 179.066 29.6786H177.8V32.8506Z" fill="white"/>
<path d="M191.24 36.8412C191.138 36.9094 190.993 36.9904 190.806 37.0842C190.627 37.178 190.409 37.2675 190.153 37.3528C189.906 37.4295 189.625 37.4935 189.309 37.5447C188.994 37.6043 188.657 37.6342 188.299 37.6342C187.566 37.6342 186.91 37.5105 186.33 37.2633C185.75 37.0075 185.26 36.6664 184.859 36.24C184.459 35.8137 184.152 35.3149 183.939 34.7436C183.725 34.1723 183.619 33.5711 183.619 32.9401C183.619 32.2409 183.747 31.5972 184.003 31.0088C184.258 30.4119 184.604 29.9003 185.038 29.474C185.482 29.0391 185.993 28.7023 186.573 28.4635C187.161 28.2248 187.788 28.1054 188.453 28.1054C188.708 28.1054 188.964 28.1267 189.22 28.1694C189.484 28.2035 189.731 28.2504 189.962 28.31C190.192 28.3697 190.392 28.438 190.563 28.5147C190.742 28.5914 190.87 28.6724 190.946 28.7577C190.87 28.8771 190.81 28.9751 190.767 29.0519C190.725 29.1286 190.678 29.2096 190.627 29.2949C190.584 29.3716 190.533 29.4612 190.473 29.5635C190.422 29.6658 190.345 29.8065 190.243 29.9856C190.141 29.9174 190.017 29.8577 189.872 29.8065C189.727 29.7554 189.574 29.717 189.412 29.6914C189.258 29.6573 189.101 29.6317 188.939 29.6147C188.777 29.5976 188.632 29.5891 188.504 29.5891C188.026 29.5891 187.583 29.6786 187.174 29.8577C186.773 30.0367 186.424 30.2755 186.125 30.5739C185.835 30.8638 185.605 31.2049 185.435 31.5972C185.273 31.9894 185.192 32.3944 185.192 32.8122C185.192 33.2215 185.269 33.6223 185.422 34.0145C185.584 34.3982 185.806 34.7393 186.087 35.0378C186.377 35.3362 186.718 35.5792 187.11 35.7668C187.502 35.9459 187.937 36.0354 188.414 36.0354C188.687 36.0354 188.951 36.0098 189.207 35.9587C189.463 35.899 189.689 35.835 189.885 35.7668C190.081 35.6986 190.239 35.6304 190.358 35.5622C190.486 35.4939 190.554 35.447 190.563 35.4215L191.24 36.8412Z" fill="white"/>
<path d="M192.4 37.5319V28.2077H193.973V32.096H198.423V28.2077H200.008C200.008 28.31 200.008 28.5957 200.008 29.0647C200.008 29.5337 200.008 30.1007 200.008 30.7658C200.008 31.4224 200.004 32.1258 199.996 32.8762C199.996 33.618 199.996 34.3215 199.996 34.9866C199.996 35.6432 199.996 36.2059 199.996 36.6749C199.996 37.1439 199.996 37.4295 199.996 37.5319H198.423V33.5924H193.973V37.5319H192.4Z" fill="white"/>
<path d="M202.153 28.2077H203.726V37.5319H202.153V28.2077Z" fill="white"/>
<path d="M206.347 28.2077L208.841 34.2064C208.841 34.2149 208.858 34.2746 208.892 34.3854C208.926 34.4878 208.952 34.5858 208.969 34.6796C208.986 34.5858 209.012 34.4878 209.046 34.3854C209.08 34.2746 209.101 34.2149 209.11 34.2064L211.603 28.2077H213.151C213.116 28.2845 213.035 28.4763 212.908 28.7833C212.78 29.0903 212.618 29.4697 212.422 29.9216C212.234 30.365 212.021 30.8638 211.782 31.4181C211.552 31.9638 211.313 32.5223 211.066 33.0936C210.819 33.6564 210.576 34.2149 210.337 34.7692C210.107 35.3234 209.894 35.8265 209.698 36.2784C209.51 36.7218 209.348 37.097 209.212 37.404C209.084 37.7024 209.003 37.89 208.969 37.9667C208.935 37.89 208.854 37.7024 208.726 37.404C208.598 37.097 208.436 36.7218 208.24 36.2784C208.052 35.8265 207.839 35.3234 207.601 34.7692C207.37 34.2149 207.132 33.6564 206.885 33.0936C206.637 32.5223 206.394 31.9638 206.156 31.4181C205.925 30.8638 205.712 30.365 205.516 29.9216C205.329 29.4697 205.171 29.0903 205.043 28.7833C204.915 28.4763 204.834 28.2845 204.8 28.2077H206.347Z" fill="white"/>
<path d="M213.228 32.889C213.228 32.2409 213.351 31.627 213.599 31.0472C213.854 30.4673 214.195 29.96 214.622 29.5251C215.057 29.0903 215.56 28.7449 216.131 28.4891C216.71 28.2333 217.329 28.1054 217.985 28.1054C218.633 28.1054 219.247 28.2333 219.826 28.4891C220.406 28.7449 220.913 29.0903 221.348 29.5251C221.783 29.96 222.124 30.4673 222.371 31.0472C222.627 31.627 222.755 32.2409 222.755 32.889C222.755 33.5456 222.627 34.1637 222.371 34.7436C222.124 35.3149 221.783 35.818 221.348 36.2528C220.913 36.6792 220.406 37.016 219.826 37.2633C219.247 37.5105 218.633 37.6342 217.985 37.6342C217.329 37.6342 216.71 37.5105 216.131 37.2633C215.56 37.016 215.057 36.6792 214.622 36.2528C214.195 35.818 213.854 35.3149 213.599 34.7436C213.351 34.1637 213.228 33.5456 213.228 32.889ZM214.801 32.889C214.801 33.3409 214.882 33.7672 215.044 34.168C215.214 34.5602 215.444 34.9056 215.734 35.204C216.033 35.4939 216.374 35.7242 216.757 35.8947C217.149 36.0652 217.571 36.1505 218.023 36.1505C218.458 36.1505 218.867 36.0652 219.251 35.8947C219.643 35.7242 219.98 35.4939 220.261 35.204C220.551 34.9056 220.777 34.5602 220.939 34.168C221.109 33.7672 221.195 33.3409 221.195 32.889C221.195 32.4371 221.109 32.015 220.939 31.6227C220.768 31.222 220.538 30.8724 220.248 30.5739C219.959 30.2755 219.618 30.041 219.225 29.8705C218.842 29.6999 218.428 29.6147 217.985 29.6147C217.542 29.6147 217.124 29.6999 216.732 29.8705C216.348 30.041 216.011 30.2755 215.722 30.5739C215.44 30.8724 215.214 31.222 215.044 31.6227C214.882 32.015 214.801 32.4371 214.801 32.889Z" fill="white"/>
<path d="M229.693 28.7321L229.13 30.0112C228.772 29.8833 228.419 29.7809 228.069 29.7042C227.72 29.6274 227.396 29.5891 227.097 29.5891C226.577 29.5891 226.164 29.6914 225.857 29.896C225.558 30.1007 225.409 30.3608 225.409 30.6763C225.409 30.9491 225.52 31.1708 225.742 31.3414C225.972 31.5119 226.257 31.6654 226.598 31.8018C226.939 31.9382 227.306 32.0789 227.698 32.2239C228.099 32.3603 228.47 32.5394 228.811 32.7611C229.152 32.9828 229.433 33.2642 229.655 33.6052C229.885 33.9463 230 34.3812 230 34.9099C230 35.3191 229.923 35.6901 229.77 36.0226C229.625 36.3552 229.403 36.6408 229.105 36.8796C228.806 37.1183 228.427 37.3059 227.967 37.4423C227.515 37.5702 226.982 37.6342 226.368 37.6342C225.993 37.6342 225.652 37.6086 225.345 37.5574C225.038 37.5063 224.761 37.4423 224.514 37.3656C224.275 37.2889 224.062 37.2078 223.875 37.1226C223.687 37.0288 223.525 36.9392 223.389 36.854L224.066 35.4854C224.425 35.6815 224.808 35.835 225.217 35.9459C225.627 36.0482 225.989 36.0994 226.304 36.0994C226.458 36.0994 226.654 36.0823 226.893 36.0482C227.14 36.0141 227.378 35.9501 227.609 35.8563C227.839 35.7625 228.035 35.6346 228.197 35.4726C228.367 35.3106 228.453 35.1017 228.453 34.8459C228.453 34.5475 228.338 34.3044 228.107 34.1169C227.886 33.9207 227.604 33.7502 227.263 33.6052C226.922 33.4518 226.552 33.3025 226.151 33.1576C225.759 33.0126 225.392 32.8421 225.051 32.646C224.71 32.4413 224.425 32.194 224.194 31.9041C223.973 31.6057 223.862 31.2305 223.862 30.7786C223.862 30.4546 223.926 30.1391 224.054 29.8321C224.182 29.5166 224.373 29.2352 224.629 28.9879C224.893 28.7407 225.217 28.5403 225.601 28.3868C225.993 28.2333 226.454 28.1566 226.982 28.1566C227.315 28.1566 227.634 28.1864 227.941 28.2461C228.257 28.2973 228.538 28.3569 228.785 28.4252C229.032 28.4934 229.237 28.5616 229.399 28.6298C229.561 28.6895 229.659 28.7236 229.693 28.7321Z" fill="white"/>
<path d="M111 47.8254C111 47.1773 111.06 46.5591 111.179 45.9708C111.298 45.3824 111.456 44.8367 111.652 44.3336C111.857 43.822 112.087 43.3615 112.343 42.9522C112.598 42.543 112.863 42.1976 113.136 41.9162C113.332 41.9674 113.528 42.0186 113.724 42.0697C113.928 42.1123 114.129 42.1592 114.325 42.2104C114.078 42.4918 113.83 42.8286 113.583 43.2208C113.344 43.6131 113.131 44.048 112.944 44.5255C112.756 44.9944 112.603 45.5103 112.483 46.0731C112.373 46.6273 112.317 47.2114 112.317 47.8254C112.317 48.4393 112.373 49.0234 112.483 49.5776C112.603 50.1319 112.756 50.6478 112.944 51.1253C113.131 51.6028 113.344 52.0334 113.583 52.4171C113.83 52.8093 114.078 53.1461 114.325 53.4275C114.129 53.4872 113.928 53.5384 113.724 53.581C113.528 53.6322 113.332 53.6833 113.136 53.7345C112.863 53.4446 112.598 53.095 112.343 52.6857C112.087 52.2764 111.857 51.8202 111.652 51.3171C111.456 50.814 111.298 50.2683 111.179 49.68C111.06 49.0916 111 48.4734 111 47.8254Z" fill="white"/>
<path d="M115.51 42.2744H117.083V51.5985H115.51V42.2744Z" fill="white"/>
<path d="M119.232 41.8651C119.274 41.9248 119.368 42.0612 119.513 42.2744C119.658 42.479 119.837 42.7348 120.05 43.0418C120.272 43.3402 120.515 43.6728 120.779 44.0394C121.052 44.4061 121.325 44.7813 121.598 45.165C121.879 45.5402 122.152 45.9111 122.416 46.2777C122.68 46.6359 122.919 46.9641 123.132 47.2626C123.345 47.561 123.524 47.8126 123.669 48.0172C123.823 48.2133 123.916 48.337 123.951 48.3881C123.968 48.3625 124.044 48.256 124.181 48.0684C124.317 47.8723 124.488 47.6292 124.692 47.3393C124.905 47.0494 125.144 46.7211 125.408 46.3545C125.673 45.9793 125.945 45.5998 126.227 45.2161C126.508 44.8324 126.781 44.453 127.045 44.0778C127.318 43.7026 127.565 43.3615 127.787 43.0546C128.017 42.7476 128.209 42.4875 128.362 42.2744C128.516 42.0612 128.614 41.9248 128.656 41.8651V51.5985H126.981V46.8405C126.981 46.7723 126.99 46.6998 127.007 46.6231C127.024 46.5463 127.032 46.4994 127.032 46.4824L123.951 50.9206C123.908 50.8695 123.801 50.7288 123.631 50.4985C123.469 50.2683 123.273 49.9954 123.043 49.68C122.812 49.3645 122.569 49.0276 122.314 48.6695C122.058 48.3029 121.815 47.9661 121.585 47.6591C121.363 47.3436 121.171 47.0793 121.009 46.8661C120.856 46.6444 120.771 46.5165 120.754 46.4824C120.754 46.4994 120.762 46.5463 120.779 46.6231C120.796 46.6998 120.805 46.7723 120.805 46.8405V51.5985H119.232V41.8651Z" fill="white"/>
<path d="M133.187 47.8765C133.187 48.5246 133.127 49.1428 133.008 49.7311C132.888 50.3195 132.726 50.8652 132.522 51.3683C132.326 51.8714 132.1 52.3275 131.844 52.7368C131.588 53.1461 131.324 53.4957 131.051 53.7856L129.862 53.517C130.118 53.2357 130.365 52.8988 130.604 52.5066C130.842 52.1144 131.056 51.6838 131.243 51.2148C131.431 50.7373 131.58 50.2214 131.691 49.6672C131.81 49.1044 131.87 48.516 131.87 47.9021C131.87 47.2882 131.81 46.7041 131.691 46.1498C131.58 45.5956 131.431 45.0797 131.243 44.6022C131.056 44.1247 130.842 43.6941 130.604 43.3104C130.365 42.9181 130.118 42.5771 129.862 42.2872C130.058 42.236 130.254 42.1848 130.45 42.1337C130.655 42.074 130.855 42.0143 131.051 41.9546C131.324 42.2445 131.588 42.5941 131.844 43.0034C132.1 43.4127 132.326 43.8689 132.522 44.372C132.726 44.8751 132.888 45.425 133.008 46.0219C133.127 46.6103 133.187 47.2285 133.187 47.8765Z" fill="white"/>
<path d="M136.265 46.9172H137.518C137.842 46.9172 138.11 46.8618 138.324 46.751C138.537 46.6401 138.707 46.5037 138.835 46.3417C138.963 46.1711 139.052 45.9963 139.104 45.8173C139.155 45.6297 139.18 45.4634 139.18 45.3185C139.18 45.182 139.155 45.0243 139.104 44.8452C139.061 44.6576 138.976 44.4828 138.848 44.3208C138.729 44.1588 138.562 44.0224 138.349 43.9115C138.136 43.8007 137.863 43.7452 137.531 43.7452H136.265V46.9172ZM134.705 51.5985V42.2744H137.339C137.85 42.2744 138.315 42.3426 138.733 42.479C139.159 42.6154 139.517 42.8116 139.807 43.0674C140.105 43.3232 140.336 43.6387 140.497 44.0138C140.659 44.389 140.74 44.8111 140.74 45.2801C140.74 45.6553 140.685 46.0304 140.574 46.4056C140.463 46.7723 140.28 47.1048 140.024 47.4033C139.777 47.6932 139.453 47.9319 139.052 48.1195C138.652 48.2986 138.157 48.3881 137.569 48.3881H136.265V51.5985H134.705Z" fill="white"/>
<path d="M141.546 46.9556C141.546 46.3076 141.67 45.6936 141.917 45.1138C142.173 44.534 142.514 44.0266 142.94 43.5918C143.375 43.1569 143.878 42.8116 144.449 42.5557C145.029 42.2999 145.647 42.172 146.303 42.172C146.951 42.172 147.565 42.2999 148.145 42.5557C148.724 42.8116 149.232 43.1569 149.666 43.5918C150.101 44.0266 150.442 44.534 150.689 45.1138C150.945 45.6936 151.073 46.3076 151.073 46.9556C151.073 47.6122 150.945 48.2304 150.689 48.8102C150.442 49.3815 150.101 49.8846 149.666 50.3195C149.232 50.7458 148.724 51.0826 148.145 51.3299C147.565 51.5772 146.951 51.7008 146.303 51.7008C145.647 51.7008 145.029 51.5772 144.449 51.3299C143.878 51.0826 143.375 50.7458 142.94 50.3195C142.514 49.8846 142.173 49.3815 141.917 48.8102C141.67 48.2304 141.546 47.6122 141.546 46.9556ZM143.119 46.9556C143.119 47.4075 143.2 47.8339 143.362 48.2346C143.533 48.6269 143.763 48.9722 144.053 49.2707C144.351 49.5606 144.692 49.7908 145.076 49.9613C145.468 50.1319 145.89 50.2171 146.342 50.2171C146.776 50.2171 147.186 50.1319 147.569 49.9613C147.961 49.7908 148.298 49.5606 148.579 49.2707C148.869 48.9722 149.095 48.6269 149.257 48.2346C149.428 47.8339 149.513 47.4075 149.513 46.9556C149.513 46.5037 149.428 46.0816 149.257 45.6894C149.087 45.2886 148.857 44.939 148.567 44.6406C148.277 44.3421 147.936 44.1076 147.544 43.9371C147.16 43.7666 146.747 43.6813 146.303 43.6813C145.86 43.6813 145.442 43.7666 145.05 43.9371C144.666 44.1076 144.33 44.3421 144.04 44.6406C143.758 44.939 143.533 45.2886 143.362 45.6894C143.2 46.0816 143.119 46.5037 143.119 46.9556Z" fill="white"/>
<path d="M158.011 42.7988L157.449 44.0778C157.091 43.9499 156.737 43.8476 156.387 43.7708C156.038 43.6941 155.714 43.6557 155.415 43.6557C154.895 43.6557 154.482 43.758 154.175 43.9627C153.877 44.1673 153.727 44.4274 153.727 44.7429C153.727 45.0158 153.838 45.2375 154.06 45.408C154.29 45.5785 154.576 45.732 154.917 45.8684C155.258 46.0049 155.624 46.1456 156.017 46.2905C156.417 46.4269 156.788 46.606 157.129 46.8277C157.47 47.0494 157.751 47.3308 157.973 47.6719C158.203 48.0129 158.318 48.4478 158.318 48.9765C158.318 49.3858 158.242 49.7567 158.088 50.0892C157.943 50.4218 157.722 50.7074 157.423 50.9462C157.125 51.1849 156.745 51.3725 156.285 51.509C155.833 51.6369 155.3 51.7008 154.687 51.7008C154.311 51.7008 153.97 51.6752 153.664 51.6241C153.357 51.5729 153.08 51.509 152.832 51.4322C152.594 51.3555 152.381 51.2745 152.193 51.1892C152.005 51.0954 151.843 51.0059 151.707 50.9206L152.385 49.552C152.743 49.7482 153.126 49.9017 153.536 50.0125C153.945 50.1148 154.307 50.166 154.623 50.166C154.776 50.166 154.972 50.1489 155.211 50.1148C155.458 50.0807 155.697 50.0168 155.927 49.923C156.157 49.8292 156.353 49.7013 156.515 49.5393C156.686 49.3772 156.771 49.1683 156.771 48.9125C156.771 48.6141 156.656 48.3711 156.426 48.1835C156.204 47.9874 155.923 47.8168 155.582 47.6719C155.241 47.5184 154.87 47.3692 154.469 47.2242C154.077 47.0793 153.71 46.9087 153.369 46.7126C153.028 46.508 152.743 46.2607 152.513 45.9708C152.291 45.6723 152.18 45.2971 152.18 44.8452C152.18 44.5212 152.244 44.2057 152.372 43.8987C152.5 43.5832 152.692 43.3018 152.947 43.0546C153.212 42.8073 153.536 42.6069 153.919 42.4534C154.311 42.2999 154.772 42.2232 155.3 42.2232C155.633 42.2232 155.953 42.253 156.259 42.3127C156.575 42.3639 156.856 42.4236 157.103 42.4918C157.351 42.56 157.555 42.6282 157.717 42.6964C157.879 42.7561 157.977 42.7902 158.011 42.7988Z" fill="white"/>
<path d="M159.818 42.2744H161.391V51.5985H159.818V42.2744Z" fill="white"/>
<path d="M165.1 43.6941V46.2266H166.276C166.711 46.2266 167.031 46.0987 167.235 45.8429C167.448 45.5871 167.555 45.2801 167.555 44.922C167.555 44.5041 167.427 44.1972 167.171 44.0011C166.916 43.7964 166.57 43.6941 166.136 43.6941H165.1ZM165.1 47.5568V50.1788H166.327C166.558 50.1788 166.775 50.1532 166.98 50.102C167.184 50.0423 167.363 49.9613 167.517 49.859C167.67 49.7482 167.789 49.6117 167.875 49.4497C167.96 49.2792 168.003 49.0831 168.003 48.8614C168.003 48.6141 167.951 48.4094 167.849 48.2474C167.747 48.0769 167.61 47.9405 167.44 47.8381C167.269 47.7358 167.073 47.6633 166.852 47.6207C166.639 47.5781 166.417 47.5568 166.187 47.5568H165.1ZM163.54 51.5985V42.2744H166.084C166.545 42.2744 166.963 42.3213 167.338 42.4151C167.713 42.5003 168.032 42.641 168.297 42.8371C168.561 43.0247 168.761 43.2763 168.898 43.5918C169.043 43.8987 169.115 44.2696 169.115 44.7045C169.115 44.9433 169.09 45.1778 169.038 45.408C168.996 45.6297 168.919 45.8386 168.808 46.0347C168.706 46.2223 168.57 46.3886 168.399 46.5335C168.229 46.6785 168.015 46.7893 167.76 46.8661C167.973 46.9087 168.186 46.9812 168.399 47.0835C168.621 47.1858 168.817 47.3265 168.987 47.5056C169.158 47.6761 169.294 47.8936 169.396 48.1579C169.507 48.4137 169.563 48.7164 169.563 49.066C169.563 49.5179 169.473 49.9059 169.294 50.2299C169.124 50.5454 168.893 50.8055 168.604 51.0101C168.322 51.2148 167.994 51.364 167.619 51.4578C167.244 51.5516 166.856 51.5985 166.455 51.5985H163.54Z" fill="white"/>
<path d="M171.145 51.5985V42.2744H172.705V50.1148H177.232V51.5985H171.145Z" fill="white"/>
<path d="M178.5 51.5985V42.2744H184.69V43.6941H180.06V46.201H184.178V47.6591H180.06V50.1404H184.869V51.5985H178.5Z" fill="white"/>
<path d="M191.917 42.7988L191.354 44.0778C190.996 43.9499 190.642 43.8476 190.293 43.7708C189.943 43.6941 189.619 43.6557 189.321 43.6557C188.801 43.6557 188.387 43.758 188.08 43.9627C187.782 44.1673 187.633 44.4274 187.633 44.7429C187.633 45.0158 187.744 45.2375 187.965 45.408C188.195 45.5785 188.481 45.732 188.822 45.8684C189.163 46.0049 189.53 46.1456 189.922 46.2905C190.322 46.4269 190.693 46.606 191.034 46.8277C191.375 47.0494 191.657 47.3308 191.878 47.6719C192.108 48.0129 192.224 48.4478 192.224 48.9765C192.224 49.3858 192.147 49.7567 191.993 50.0892C191.848 50.4218 191.627 50.7074 191.328 50.9462C191.03 51.1849 190.651 51.3725 190.19 51.509C189.738 51.6369 189.206 51.7008 188.592 51.7008C188.217 51.7008 187.876 51.6752 187.569 51.6241C187.262 51.5729 186.985 51.509 186.738 51.4322C186.499 51.3555 186.286 51.2745 186.098 51.1892C185.911 51.0954 185.749 51.0059 185.612 50.9206L186.29 49.552C186.648 49.7482 187.032 49.9017 187.441 50.0125C187.85 50.1148 188.212 50.166 188.528 50.166C188.681 50.166 188.877 50.1489 189.116 50.1148C189.363 50.0807 189.602 50.0168 189.832 49.923C190.062 49.8292 190.258 49.7013 190.42 49.5393C190.591 49.3772 190.676 49.1683 190.676 48.9125C190.676 48.6141 190.561 48.3711 190.331 48.1835C190.109 47.9874 189.828 47.8168 189.487 47.6719C189.146 47.5184 188.775 47.3692 188.374 47.2242C187.982 47.0793 187.616 46.9087 187.275 46.7126C186.934 46.508 186.648 46.2607 186.418 45.9708C186.196 45.6723 186.085 45.2971 186.085 44.8452C186.085 44.5212 186.149 44.2057 186.277 43.8987C186.405 43.5832 186.597 43.3018 186.853 43.0546C187.117 42.8073 187.441 42.6069 187.824 42.4534C188.217 42.2999 188.677 42.2232 189.206 42.2232C189.538 42.2232 189.858 42.253 190.165 42.3127C190.48 42.3639 190.761 42.4236 191.009 42.4918C191.256 42.56 191.46 42.6282 191.622 42.6964C191.784 42.7561 191.882 42.7902 191.917 42.7988Z" fill="white"/>
</g>
</g>
<defs>
<clipPath id="clip0">
<rect width="230" height="55" fill="white" transform="translate(0.5 0.785645)"/>
</clipPath>
<clipPath id="clip1">
<rect width="230" height="52" fill="white" transform="translate(1 2.78564)"/>
</clipPath>
<clipPath id="clip2">
<rect width="218" height="52" fill="white" transform="translate(1 2.78564)"/>
</clipPath>
</defs>
</svg>
