<svg width="200" height="71" fill="none" xmlns="http://www.w3.org/2000/svg"><g clip-path="url(#clip0)" fill="#fff"><path d="M142.928 49.596v.166h21.831l.133-.1-.033-.033-.1-.033h-21.831zm50.882-20.167l.233-.166H158.17l-.133.1.033.033.1.033h35.64z"/><path d="M199.734.211l-41.531 29.052h-15.275v35.774l21.831-15.275h34.975V29.263h-5.657l5.657-3.96V.21zm-38.137 40.333c-.166.865.034 3.594 1.065 3.794.366.066.666 0 .965-.166l.899-.5.166 3.628h-5.757c.2-1.498.3-2.73.399-3.827l.2-2.929c-1.165-.166-2.429-.599-3.494-1.43-.932-.766-1.464-1.698-1.531-2.83-.133-1.996 2.496-4.492 5.89-4.492h.999c.366.033.732.067 1.131.166-.233.5-.532 1.099-.599 2.13-.366-.1-.665-.166-1.098-.166-2.463 0-3.128 1.664-3.128 2.296 0 1.63 1.597 2.196 2.795 2.296.865.1 1.697-.1 2.429-.599.533-.366.666-.499.932-1.098.633.333 2.063.433 3.095.067-.233 2.063-3.028 3.594-5.358 3.66zm-148.352 5.79H3.827V29.263H.067v17.97c0 .765.266 1.431.765 1.93.5.466 1.165.699 1.963.699h10.45v-3.528zm21.963 3.561L28.053 30.76c-.399-1.064-1.23-1.63-2.362-1.63-1.132 0-1.997.599-2.363 1.63L16.04 49.895H20l1.63-4.226h7.954l1.63 4.226h3.994zm-6.855-7.754h-5.491l2.795-7.52 2.696 7.52zm26.19 2.13c0-.765-.134-1.497-.433-2.163a6.922 6.922 0 00-1.231-1.797l-.965-.998.732-.998c.332-.533.599-1.065.832-1.631.233-.632.332-1.298.332-2.03 0-1.764-.565-3.128-1.697-4.06-1.065-.865-2.462-1.331-4.193-1.331h-6.223c-.798 0-1.464.233-1.93.699-.366.333-.765.932-.765 1.897v15.407c0 .766.3 1.431.798 1.93.5.466 1.165.7 1.964.7h6.323c1.93 0 3.527-.5 4.658-1.498 1.199-1.032 1.797-2.396 1.797-4.127zm-4.393-9.584c0 .366-.067.7-.2 1.032a5.577 5.577 0 01-.499.998l-.765 1.098h-5.99v-5.124h5.224c.6 0 1.365.1 1.73.499.334.4.5.865.5 1.497zm-7.454 11.714v-5.158h6.09l1.13 1.198c.3.3.533.632.7.965.133.3.2.6.2.965 0 .666-.2 1.132-.6 1.464-.432.366-1.131.566-2.063.566h-5.457zm34.708-6.789c0-1.63-.233-3.094-.665-4.392a8.99 8.99 0 00-1.93-3.295 8.317 8.317 0 00-3.028-2.063c-1.165-.466-2.463-.699-3.828-.699-1.397 0-2.695.233-3.86.699a8.571 8.571 0 00-3.095 2.063c-.865.899-1.53 2.03-1.996 3.328-.466 1.265-.666 2.762-.666 4.36 0 1.63.233 3.094.666 4.359.466 1.298 1.098 2.43 1.93 3.294a8.315 8.315 0 003.028 2.064c1.165.465 2.43.698 3.86.698 1.398 0 2.663-.233 3.827-.665 1.198-.466 2.23-1.132 3.095-2.063.865-.899 1.531-2.03 1.964-3.295.499-1.231.698-2.729.698-4.393zM63.727 44.87a6.126 6.126 0 01-1.164-2.163c-.3-.898-.433-1.93-.433-3.095 0-2.296.532-4.06 1.53-5.224.999-1.165 2.363-1.73 4.194-1.73.898 0 1.73.132 2.429.432.699.3 1.298.699 1.797 1.298.5.599.865 1.298 1.131 2.163.3.865.433 1.93.433 3.095 0 2.33-.5 4.093-1.53 5.29-1 1.132-2.364 1.698-4.16 1.698-.899 0-1.73-.166-2.463-.466a4.867 4.867 0 01-1.764-1.298zm33.844 5.025l-4.293-9.018 1.165-1.464c.399-.566.798-1.198 1.098-1.864a5.523 5.523 0 00.499-2.33c0-1.896-.566-3.394-1.664-4.425-1.065-.999-2.562-1.498-4.392-1.498H83.96c-.832 0-1.464.233-1.963.7-.333.332-.766.898-.766 1.896v18.037h3.728v-7.654h4.891l3.594 7.654h4.127v-.034zM84.959 38.814v-6.09h4.991c.5 0 .899.066 1.198.2.3.1.5.266.666.432.166.2.3.433.4.732.099.333.132.732.132 1.165 0 .433-.1.799-.266 1.198-.233.466-.5.865-.799 1.298l-.798 1.098h-5.525v-.033zm34.575 11.081l-7.155-19.135c-.366-1.064-1.231-1.63-2.362-1.63-1.165 0-1.997.599-2.363 1.63l-7.288 19.135h3.96l1.631-4.226h7.987l1.63 4.226h3.96zm-6.855-7.754h-5.524l2.795-7.52 2.729 7.52zm13.444 4.194V29.262h-3.793v17.97c0 .765.266 1.431.765 1.93.499.466 1.165.699 1.997.699h10.449v-3.528h-9.418zm-25.557 22.03l-1.132.266-.832.133-.665.066-.533.034c-.565 0-1.031-.067-1.43-.233a2.495 2.495 0 01-.932-.6 1.906 1.906 0 01-.466-.931 4.469 4.469 0 01-.133-1.165v-7.388h-1.598v7.555c0 .599.1 1.131.233 1.63.167.533.4.965.766 1.331a4.26 4.26 0 001.33.899c.566.2 1.232.333 1.997.333l1.398-.1c.566-.033 1.331-.2 2.296-.433.832-.2 1.232-.732 1.232-1.53v-9.684h-1.564v9.817h.033zm11.081.166l-1.331.266-.832.067c-.699 0-1.164-.167-1.431-.566-.266-.366-.399-.965-.399-1.764v-6.556h3.96v-1.43h-3.96v-3.029l-1.564.333v2.696h-1.864v1.43h1.864v6.69c0 2.462 1.131 3.693 3.361 3.693.499 0 1.331-.1 2.463-.333l-.267-1.497zm23.894-.166V62.34c0-.699-.1-1.298-.333-1.797-.233-.499-.532-.898-.932-1.198a3.2 3.2 0 00-1.331-.699 6.433 6.433 0 00-1.63-.2s-2.263-.066-4.959.633l.333 1.43s2.496-.698 4.592-.598h.034c.832 0 1.464.2 1.963.566.532.366.765 1.031.765 1.896v1.332h-3.527c-.599 0-1.198.066-1.764.166a4.833 4.833 0 00-1.464.599 2.782 2.782 0 00-.998 1.065c-.267.433-.366.998-.366 1.664 0 .998.332 1.797.998 2.362.665.566 1.597.866 2.829.866.465 0 .998-.067 1.564-.167l1.663-.366.866-.233.233-.033v.666h1.53v-1.93h-.066zm-1.531-.134l-1.298.3-1.564.3a9.62 9.62 0 01-1.231.1c-.799 0-1.398-.167-1.83-.467-.433-.3-.633-.765-.633-1.397 0-.732.267-1.265.799-1.564.532-.3 1.265-.5 2.23-.5h3.56v3.228h-.033zM82.729 55.52l-1.53.333v14.376h1.53v-5.99h2.096l4.027 5.957h1.864l-4.526-6.722 4.559-4.925h-2.063l-3.827 4.16h-2.097V55.52h-.033zm41.031 14.676l-3.261-5.857 3.195-5.79h-1.93l-2.496 4.925h-.732l-2.496-4.925h-1.93l3.195 5.79-3.262 5.857h1.864l2.629-5.225h.732l2.629 5.225h1.863z"/></g><defs><clipPath id="clip0"><path fill="#fff" transform="translate(0 .012)" d="M0 0h200v70.549H0z"/></clipPath></defs></svg>