<svg width="180" height="52" fill="none" xmlns="http://www.w3.org/2000/svg"><g clip-path="url(#clip0)"><path fill-rule="evenodd" clip-rule="evenodd" d="M173.373 51.043c-.956 0-2.357-.514-3.186-.9v-3.6h.638c.255 1.543.828 3.6 2.675 3.6 1.021 0 1.721-.707 1.721-1.672 0-2.506-5.034-1.928-5.034-5.336 0-2.12 1.976-3.214 3.824-3.214 1.019 0 1.847.322 2.739.771l-.191 2.958h-.637c-.254-1.221-.637-2.83-2.166-2.83-.828 0-1.53.709-1.53 1.544 0 2.507 5.098 1.993 5.098 5.465 0 2.25-1.975 3.214-3.951 3.214zm-9.558 0c-.891 0-2.357-.514-3.185-.9v-3.6h.638c.254 1.543.891 3.6 2.739 3.6.956 0 1.657-.707 1.657-1.672 0-2.506-4.97-1.928-4.97-5.336 0-2.12 1.976-3.214 3.823-3.214.955 0 1.847.322 2.676.771l-.127 2.958h-.638c-.318-1.221-.7-2.83-2.23-2.83-.828 0-1.466.709-1.466 1.544 0 2.507 5.098 1.993 5.098 5.465 0 2.25-2.039 3.214-4.015 3.214zm-2.547-48.665c-.574 0-1.275.065-1.912.257V22.5c0 3.408 1.338 4.243 4.715 4.243 6.881 0 10.577-5.207 10.577-11.764 0-8.1-5.735-12.6-13.38-12.6zM157.827 49.5c-.064.45-.255.835-.383 1.286h-8.857v-.707c1.721-.257 1.975-.322 2.039-2.122.065-.643.065-1.286.065-1.865v-1.414c0-.578 0-1.156-.065-1.735-.064-1.672-.382-1.929-2.039-2.057v-.707h8.985l-.065 3.15h-.7c-.063-.578-.128-1.286-.573-1.672-.638-.579-2.358-.579-3.186-.579h-.255l-.064 3.6c.446 0 2.23.065 2.549-.192.191-.129.382-1.029.446-1.221h.637v4.37h-.701c-.128-1.285-.128-1.67-1.465-1.67h-1.466v1.864c.064 1.479 0 2.057 1.72 2.057 1.976 0 2.804-1.543 3.314-3.215l.637.129c-.191.9-.319 1.865-.573 2.7zm-10.131 1.35c-.892 0-1.721 0-2.549-.193-2.358-.514-3.696-3.535-4.779-5.465 1.211-.32 2.166-.578 2.166-2.12 0-1.543-1.402-2.058-2.676-2.186v5.271c0 2.508-.509 3.664 2.357 3.922v.707h-6.434v-.707c2.357-.322 2.038-1.222 2.038-3.408v-1.414c0-.771-.063-1.479-.063-2.25 0-1.8-.382-1.929-2.039-2.186v-.642c1.529 0 3.058-.065 4.587-.065 1.849 0 4.652.386 4.652 2.829 0 1.35-.956 2.057-2.039 2.508.892 1.863 2.804 4.37 4.906 4.756v.642h-.127zm-18.287-4.243V45.9c1.593-.257 2.421-.45 2.421-2.378 0-1.865-1.784-2.508-3.377-2.572v4.693c0 .707.064 1.414.064 2.12.064 1.994.318 2.188 2.357 2.315v.708h-6.563v-.707c.446-.065 1.466-.193 1.785-.579.382-.514.319-2.893.319-3.6 0-1.029.19-3.986-.511-4.565-.381-.257-1.083-.385-1.593-.45v-.642c1.53-.064 3.059-.129 4.524-.129 1.912 0 5.352.58 5.352 3.086 0 2.829-2.548 3.28-4.778 3.407zm46.768-23.27c-2.867 2.956-7.073 4.692-11.214 4.692l-14.401.063h-.318c-.318.065-.828 0-1.146 0-3.442-.063-4.779-.257-7.773-2.122-5.098-3.213-7.393-6.813-11.024-11.634 2.931 0 7.137-2.765 7.137-5.979 0-4.371-4.334-5.979-7.965-5.979h-.064c-.064 6.686-.191 13.308-.191 19.993 0 4.115 1.338 3.986 5.225 4.5v1.221h-9.94c.063-7.006.254-13.95.254-20.892 0-1.029 0-3.664-.892-4.436-.573-.515-1.848-.45-2.612-.45V1.157c3.441-.065 6.819-.193 10.195-.193 4.269 0 11.086.771 11.086 6.493 0 3.794-3.185 6.3-6.562 7.264 2.421 2.893 10.067 12.15 14.145 12.15 3.887 0 4.97-1.671 4.97-5.464V7.778c0-4.114-.702-5.014-4.843-5.657V1.092c3.696-.063 7.391-.128 11.086-.128C170.57.964 180 3.47 180 14.529c0 3.342-1.465 6.428-3.823 8.807zm-60.913 18c-.702.513-3.122 4.563-3.122 5.27 0 2.379-.319 3.214 2.294 3.472v.707h-6.627v-.707c2.548-.257 2.23-1.029 2.23-3.343-.51-.965-2.739-4.95-3.696-5.465-.382-.257-.956-.385-1.337-.385v-.707h5.543v.642c-.383.13-1.211.193-1.211.708 0 .578 1.785 3.085 2.23 3.792.319-.643 1.593-3.021 1.593-3.792 0-.515-.637-.643-1.019-.708v-.642h4.524v.642c-.51.13-1.02.193-1.402.514v.001zm-11.66 2.441h-.128c-.51-2.571-1.02-2.378-3.44-2.443v5.272c0 2.444-.32 3.15 2.23 3.472v.707h-6.5v-.707c1.721-.257 2.104-.322 2.167-2.122.063-.835.063-1.608.063-2.443 0-1.414 0-2.764-.063-4.179-2.485 0-2.931-.192-3.378 2.508l-.7-.065c.128-1.22.19-2.443.255-3.6 1.082.065 2.166.193 3.312.193 1.084 0 2.104-.063 3.187-.063 1.148 0 2.293 0 3.378-.129 0 .192-.064.385-.064.578 0 1.029.126 2.057.19 3.022h-.509zm7.519-37.543c-1.849-2.892-4.525-4.82-8.029-4.82-7.136 0-9.43 6.556-9.43 12.663 0 2.957.509 6.301 2.102 8.808 1.849 2.828 4.651 4.757 8.092 4.757 7.327 0 9.303-6.557 9.303-12.793 0-2.893-.51-6.172-2.038-8.615zm-7.774 22.822c-8.602 0-15.038-5.72-15.038-14.593C88.311 5.594 94.873 0 103.413 0c8.793 0 15.1 5.657 15.1 14.72 0 8.744-6.754 14.337-15.164 14.337zM86.017 50.786v-.707c1.721-.257 2.04-.322 2.104-2.122V45.58c0-.9.19-3.73-.447-4.244-.319-.257-1.21-.45-1.656-.514v-.642h6.308v.642c-2.358.387-2.167 1.158-2.167 3.408v2.121c0 .45.064.9.064 1.414.064 1.865.255 2.122 2.103 2.314v.708h-6.309zm-5.861.257c-.892 0-2.358-.514-3.186-.9v-3.6h.638c.254 1.543.891 3.6 2.739 3.6.956 0 1.656-.707 1.656-1.672 0-2.506-4.97-1.928-4.97-5.336 0-2.12 1.976-3.214 3.823-3.214.957 0 1.848.322 2.677.771l-.127 2.958h-.638c-.319-1.221-.7-2.83-2.23-2.83-.828 0-1.465.709-1.465 1.544 0 2.507 5.097 1.993 5.097 5.465 0 2.25-2.04 3.214-4.014 3.214zm-4.652-.194c-.828 0-1.656 0-2.485-.192-2.357-.514-3.76-3.535-4.842-5.465 1.21-.32 2.23-.578 2.23-2.12 0-1.543-1.465-2.058-2.74-2.186v5.271c0 2.508-.51 3.664 2.358 3.922v.707H63.59v-.707c2.422-.322 2.039-1.222 2.039-3.408v-3.663c-.064-1.8-.382-1.93-2.102-2.187v-.642c1.53 0 3.059-.065 4.587-.065 1.848 0 4.651.386 4.651 2.829 0 1.35-.891 2.057-2.038 2.508.956 1.863 2.867 4.37 4.97 4.756v.642h-.192zm-14.655-.063h-8.856v-.707c1.784-.257 2.039-.322 2.103-2.122v-5.014c-.064-1.672-.447-1.929-2.103-2.057v-.707h9.048l-.128 3.15h-.638c-.126-.578-.126-1.286-.636-1.672-.637-.579-2.294-.579-3.186-.579H56.2l-.065 3.6c.447 0 2.23.065 2.613-.192.191-.129.383-1.029.446-1.221h.638v.192c0 1.35-.065 2.764-.065 4.178h-.637c-.127-1.285-.19-1.67-1.529-1.67h-1.466l.065 1.864c0 1.479 0 2.057 1.72 2.057 1.91 0 2.74-1.543 3.25-3.215l.637.129c-.191 1.414-.51 2.636-.957 3.986zM49.763 41.4c-.892.836-4.142 8.55-4.78 10.029h-.318l-3.886-8.937c-.51-1.157-.892-1.478-2.166-1.67v-.643h5.924v.642c-.383.065-1.593.257-1.593.836 0 .836 2.103 5.4 2.549 6.235.319-.835 2.357-5.271 2.357-6.171 0-.578-1.337-.771-1.783-.9v-.642h5.032v.642c-.445.13-1.018.257-1.337.579h.001zm-18.095 9.386v-.707c1.72-.257 1.974-.322 2.038-2.122.064-.771.064-1.608.064-2.378 0-.9.128-3.73-.51-4.244-.318-.257-1.21-.45-1.593-.514v-.642h6.308v.642c-2.421.387-2.166 1.158-2.166 3.408v2.121c0 .45 0 .9.064 1.414.063 1.865.255 2.122 2.102 2.314v.708h-6.307zM84.87 7.006c-.573-4.692-4.843-4.498-8.475-4.498h-2.421V12.92h2.804c1.656 0 3.313 0 4.906-.257v6.685h-.957c-.254-5.078-2.483-4.242-6.753-4.242v6.622c0 4.757.574 4.5 5.098 5.336v1.028H52.566l-7.2-11.379c-1.147 1.415-4.906 6.557-4.906 8.165 0 1.414 1.975 1.864 2.995 2.25l-.064.963h-11.85v-1.22c4.842-.258 6.242-2.186 8.791-5.98l3.951-5.657L40.014 8.1c-1.912-3.15-4.333-5.85-8.219-5.914V.964h8.984l6.627 10.35c.955-1.479 4.013-5.914 4.013-7.52 0-1.416-1.847-1.48-2.866-1.672V.964h11.405v1.158c-4.588.32-6.309 2.314-8.729 5.978a185.686 185.686 0 01-2.931 4.564l5.605 8.807c1.721 2.7 3.825 5.4 7.329 5.4 4.014 0 8.22-.257 8.22-5.271V6.943c0-3.922-.829-4.435-4.716-5.014V.9h20.836l.445 6.107h-1.146zM28.546 41.4c-.638.643-.447 8.55-.447 9.386h-.7c-2.23-2.572-4.716-4.886-7.01-7.394v4.244c.064 2.185.702 2.314 2.677 2.443v.707H17.14v-.707c1.592-.193 1.975-.579 2.039-2.122.064-1.222.127-2.443.127-3.664v-1.479c0-.193-.064-.45-.064-.643-.764-.9-1.21-1.093-2.357-1.35v-.642h3.696c.828 1.543 4.97 5.528 6.436 7.135 0-.707.063-1.35.063-2.057 0-.706-.063-1.414-.128-2.122-.063-1.992-.765-2.184-2.613-2.25v-.706c1.89.064 3.782.064 5.672 0v.642c-.446.065-1.084.193-1.466.579zM22.81 6.235c-1.848-2.892-4.524-4.82-7.965-4.82-7.2 0-9.493 6.492-9.493 12.663 0 2.957.509 6.301 2.166 8.808 1.847 2.764 4.651 4.693 8.028 4.693 7.391 0 9.302-6.557 9.302-12.729 0-2.893-.509-6.17-2.038-8.615zM9.113 51.108c-2.74 0-4.587-.515-4.97-3.473-.127-1.35-.191-2.764-.383-4.114-.127-.964-.318-2.378-1.529-2.507h-.764v-.835c1.465 0 2.994 0 4.46-.065.063 2.507.19 5.078.51 7.586.127 1.543 1.337 2.25 2.74 2.25 1.21 0 2.356-.45 2.675-1.736.383-1.607.638-3.663.638-5.271 0-1.35-.765-2.057-2.04-2.057v-.707h5.672v.707c-5.162 0 .064 10.222-7.009 10.222zm5.986-22.05C6.437 29.057 0 23.335 0 14.4 0 5.529 6.562 0 15.1 0c8.795 0 15.102 5.592 15.102 14.657 0 8.807-6.69 14.4-15.1 14.4h-.003z" fill="#fff"/></g><defs><clipPath id="clip0"><path fill="#fff" d="M0 0h180v51.429H0z"/></clipPath></defs></svg>