<svg width="200" height="62" fill="none" xmlns="http://www.w3.org/2000/svg"><g clip-path="url(#clip0)" fill="#fff"><path d="M.266 34.914c.067-.565.1-1.131.167-1.697.299-2.695 1.064-5.191 2.762-7.32 1.896-2.397 4.426-3.795 7.32-4.56 1.798-.466 3.628-.665 5.491-.665h25.758a5087.457 5087.457 0 01-3.927 19.567 62.494 62.494 0 01-1.63-2.463c-2.73-4.126-5.458-8.286-8.22-12.412-.366-.566-.899-.832-1.598-.832h-7.82c-.732 0-1.131.332-1.265 1.065-1.43 6.955-2.828 13.943-4.26 20.898-.132.6.167.965.766.965h5.824c.599 0 1.065-.366 1.165-.998.632-3.162 1.264-6.29 1.93-9.451l.998-4.892c.033-.1.067-.2.1-.366.366.532.665.998.998 1.498 2.929 4.425 5.857 8.818 8.786 13.244.432.666 1.031.965 1.797.965h7.587c.799 0 1.231-.366 1.398-1.131a4161.341 4161.341 0 014.06-19.767c.166-.866.332-1.764.532-2.63a2.413 2.413 0 00-.3-1.796 577.313 577.313 0 00-4.925-7.654c-.366-.566-.931-.799-1.63-.799H6.655c-.299 0-.599 0-.865-.066-.432-.067-.565-.3-.366-.7.167-.332.4-.665.632-.964 4.127-4.925 9.218-8.386 15.475-9.884 11.28-2.729 21.131 0 29.35 8.22 4.626 4.625 7.322 10.283 8.12 16.772 1.165 9.318-1.397 17.537-7.753 24.492-4.56 4.992-10.25 8.02-16.905 9.185-1.265.233-2.563.3-3.827.433-.1 0-.167.033-.266.066h-2.064a.97.97 0 00-.3-.066c-1.197-.133-2.395-.167-3.56-.366-8.952-1.598-15.84-6.257-20.599-13.977C1.93 43.933.799 40.77.433 37.344c-.034-.4-.1-.766-.134-1.165a16.904 16.904 0 01-.033-1.265zM200 47.793c-.167.066-.366.166-.533.2-.532.033-1.098 0-1.63 0-.466 0-.533-.067-.533-.533v-6.422c0-.4-.033-.832-.1-1.232-.332-1.464-1.963-2.03-3.261-1.131-.932.632-1.298 1.564-1.331 2.629-.033 1.996-.033 3.993-.033 5.99 0 .699-.033.699-.699.699h-1.431c-.499 0-.566-.067-.566-.566V36.645c0-.466.1-.533.533-.533h1.364c.366 0 .499.133.533.5.033.3.066.599.099.965.2-.2.366-.366.533-.5 1.198-1.064 2.562-1.464 4.126-1.131 1.598.366 2.629 1.63 2.862 3.494 0 .1.067.233.067.333v8.02zm-28.286-10.715V31.82c0-.3.1-.466.432-.5.633-.066 1.232-.133 1.864-.166.133 0 .266.166.366.3.066.066 0 .2 0 .3V47.36c0 .6-.033.633-.632.633h-1.132c-.399.033-.599-.134-.632-.533-.033-.3-.1-.566-.133-.932a4.372 4.372 0 01-2.063 1.498c-2.064.732-4.327-.1-5.425-2.163-1.298-2.43-1.331-4.959-.133-7.454 1.398-2.829 4.859-3.495 7.288-1.465.067.034.1.034.2.133zm.033 4.858c0-.799-.033-1.597-.399-2.33-.466-.964-1.265-1.53-2.33-1.53-1.031 0-1.797.566-2.229 1.497-.766 1.664-.733 3.361.066 4.992.433.899 1.165 1.464 2.163 1.431 1.032 0 1.764-.566 2.23-1.464.432-.832.499-1.697.499-2.596zm-66.356-4.892V31.82c0-.3.133-.466.433-.5.599-.033 1.231-.133 1.83-.166.266-.033.399.067.432.366v15.873c0 .666 0 .666-.665.666-.366 0-.732-.033-1.065 0-.399.034-.599-.166-.632-.532-.034-.3-.1-.566-.133-.832-.4.333-.766.699-1.198.998-1.931 1.232-4.393.766-5.824-1.031-.932-1.165-1.298-2.53-1.398-3.96-.1-1.531.1-3.029.865-4.393 1.498-2.596 4.693-3.228 7.055-1.398.1-.033.167.033.3.133zm.133 4.925c-.1-1.131-.233-1.863-.566-2.495-.965-1.764-3.261-1.864-4.326-.2-.965 1.53-.898 4.193.133 5.657.832 1.165 2.33 1.464 3.395.533.399-.367.765-.866.965-1.398.199-.666.266-1.398.399-2.097zm39.9-17.138c-.499.4-.932.866-1.464 1.165-1.83 1.032-4.193.4-5.491-1.464-1.031-1.498-1.331-3.162-1.231-4.925.066-1.365.432-2.663 1.264-3.794 1.465-1.897 4.127-2.43 5.99-1.165.367.267.699.566 1.065.899.034-.267.067-.533.1-.832.033-.333.2-.5.566-.5h1.231c.333 0 .499.134.499.466v10.816c0 .566-.033.632-.599.632h-1.231c-.366.033-.499-.133-.566-.466-.033-.266-.066-.566-.133-.832zm-.1-4.426c-.066-.765-.099-1.397-.233-1.996-.232-1.265-1.064-2.064-2.129-2.197-1.065-.1-2.03.466-2.529 1.63-.666 1.632-.633 3.262.166 4.86.299.598.765 1.064 1.431 1.297 1.165.4 2.329-.166 2.795-1.464.3-.665.366-1.497.499-2.13zm-52.678-4.792c.066-.366.1-.665.133-.965.033-.266.2-.432.499-.399h1.331c.333 0 .466.166.466.466v10.982c0 .332-.133.499-.466.465h-1.43c-.3 0-.433-.133-.467-.399a8.311 8.311 0 00-.166-.965c-.333.3-.6.632-.965.899-1.664 1.264-4.093.965-5.558-.633-.931-1.031-1.397-2.263-1.564-3.627-.2-1.697-.066-3.361.766-4.925 1.031-1.93 3.161-2.929 5.224-2.396.832.2 1.531.732 2.197 1.497zm-.2 4.46c-.133-.733-.2-1.465-.4-2.163-.299-.965-.964-1.564-1.963-1.664-1.031-.1-1.83.366-2.296 1.264-.932 1.797-.898 3.627.067 5.391.499.899 1.297 1.365 2.362 1.232.999-.134 1.598-.8 1.864-1.698.133-.765.233-1.564.366-2.362zm53.045 26.588c-.5.4-.932.866-1.465 1.165-1.73.999-4.093.4-5.391-1.33-1.064-1.432-1.397-3.096-1.331-4.826.034-1.265.3-2.463.965-3.528 1.198-1.963 3.561-2.861 5.524-2.03.666.267 1.232.8 1.864 1.198.033-.166.1-.432.1-.732.033-.333.199-.466.532-.466h1.265c.299 0 .466.1.466.433V47.56c0 .333-.167.466-.466.433h-1.431c-.333 0-.466-.167-.499-.433-.067-.333-.1-.632-.133-.899zm-.167-4.692a19.552 19.552 0 00-.133-1.464 3.272 3.272 0 00-.266-.932c-.366-.865-.998-1.397-1.964-1.497-.931-.067-1.63.333-2.163 1.065-.565.798-.765 1.763-.765 2.729 0 1.098.166 2.196.832 3.094 1.165 1.598 3.195 1.331 3.993-.465.4-.8.466-1.664.466-2.53zm13.345-20.799c.199 2.197 1.664 3.295 3.893 2.93.699-.1 1.398-.367 2.097-.6.366-.133.566-.1.699.266s.299.733.466 1.099c.133.266.066.465-.2.599-2.063 1.031-4.226 1.364-6.423.532-1.331-.5-2.263-1.497-2.795-2.795-.799-2.03-.799-4.06.066-6.057.932-2.23 2.896-3.361 5.325-3.195 2.296.167 3.96 1.531 4.559 3.894.233.898.266 1.83.333 2.762.033.466-.1.566-.566.566h-7.454zm0-1.996h5.258c-.034-1.83-.999-2.928-2.529-2.995-1.465-.066-2.563 1.165-2.729 2.995zm-45.291 23.827c.166 1.864 1.231 2.928 2.928 2.995a6.206 6.206 0 002.662-.5c.167-.066.333-.132.5-.232.233-.1.432-.033.532.2.2.432.366.865.532 1.33.134.334-.133.467-.366.566-1.497.766-3.094 1.032-4.758.866-1.598-.167-2.896-.899-3.827-2.263-.633-.899-.932-1.93-1.032-3.029-.133-1.564.033-3.094.799-4.492 1.065-1.93 3.028-2.928 5.358-2.662 2.229.266 3.56 1.564 4.259 3.627.333.998.399 1.997.399 3.028 0 .366-.166.533-.532.5h-7.022c-.099.066-.266.066-.432.066zm.033-1.997h5.258c-.033-1.763-.998-2.895-2.429-2.961-1.764-.1-2.663 1.33-2.829 2.961zm66.156 1.997c.133 1.964 1.431 3.095 3.328 2.995.932-.067 1.83-.266 2.695-.666.4-.166.533-.133.666.267.166.366.3.732.466 1.098.1.266.066.466-.2.599-2.063 1.032-4.226 1.364-6.422.532-1.531-.565-2.496-1.763-2.962-3.294-.566-1.864-.533-3.694.2-5.491.898-2.23 2.795-3.361 5.324-3.261 2.163.1 3.827 1.43 4.559 3.627.333 1.032.399 2.097.399 3.161 0 .367-.233.433-.532.433h-7.521zm5.258-1.997c0-1.73-.998-2.895-2.462-2.961-1.698-.1-2.629 1.364-2.763 2.961h5.225zM87.254 43c.067 1.864 1.431 3.096 3.195 2.996.998-.067 1.93-.266 2.795-.666.333-.166.533-.066.666.267.133.399.3.765.466 1.131.1.233.066.433-.2.566-2.096 1.031-4.26 1.397-6.522.532-1.331-.532-2.263-1.53-2.762-2.828-.799-2.13-.766-4.26.233-6.323 1.73-3.594 6.522-3.561 8.452-1.398.999 1.131 1.464 2.463 1.597 3.927.034.432.034.865.034 1.264 0 .466-.1.566-.566.566h-6.988c-.1-.033-.233-.033-.4-.033zm5.225-1.996c0-1.93-1.131-2.895-2.396-2.962-1.53-.066-2.662 1.099-2.795 2.962h5.191zm30.183-20.998c-.033 1.897-.433 3.494-1.664 4.759-1.564 1.63-3.527 2.03-5.657 1.464-2.097-.533-3.295-2.03-3.827-4.093-.366-1.365-.333-2.762.067-4.127.765-2.695 3.028-4.26 5.823-4.06 2.729.2 4.692 2.097 5.125 4.825.067.5.1.966.133 1.232zm-8.619.2c0 .898.167 1.763.599 2.562.499.898 1.231 1.398 2.296 1.398 1.065 0 1.797-.5 2.296-1.398.433-.732.599-1.531.599-2.363.034-1.098-.133-2.163-.798-3.062-1.098-1.53-3.261-1.464-4.293.1-.499.832-.666 1.764-.699 2.762zM74.51 37.577c.665-.732 1.364-1.231 2.195-1.531 2.596-.932 5.025.566 5.325 3.294.067.433.067.899.067 1.365v6.722c0 .532-.067.599-.6.599h-1.564c-.466 0-.532-.067-.532-.566v-6.622c0-.266 0-.566-.067-.832-.3-1.53-1.797-2.196-3.161-1.398-1.098.666-1.464 1.73-1.498 2.929-.033 1.963 0 3.927 0 5.857 0 .599-.066.632-.632.632h-1.398c-.632 0-.665-.033-.665-.666V36.678c0-.532.066-.599.599-.599.4 0 .832.033 1.231 0 .433-.033.566.167.6.566.033.266.066.532.1.932zm79.034-.167c.666-.432 1.265-.932 1.93-1.264 2.662-1.198 5.391.432 5.591 3.327.1 1.331.066 2.696.066 4.027v3.927c0 .466-.066.566-.565.566h-1.564c-.533 0-.566-.067-.566-.566v-6.323c0-.333 0-.699-.067-1.032-.133-.798-.466-1.464-1.297-1.697-.866-.266-1.698-.1-2.363.533-.766.732-.999 1.63-.999 2.629v5.757c0 .632-.033.665-.698.665h-1.398c-.566 0-.632-.066-.632-.599V36.645c0-.5.066-.6.565-.6h1.398c.266 0 .433.1.433.4.1.366.133.699.166.965zM74.51 15.68c.365-.3.665-.599.997-.865 1.032-.766 2.197-1.032 3.461-.799 1.73.333 2.829 1.597 3.029 3.428.066.665.066 1.364.1 2.03v6.023c0 .566-.067.599-.633.599h-1.43c-.6 0-.633-.033-.633-.666v-6.522c0-.266 0-.533-.067-.799-.133-.765-.466-1.397-1.264-1.63-.865-.267-1.63-.1-2.296.466-.799.698-1.065 1.63-1.065 2.662v5.823c0 .6-.034.633-.633.633h-1.564c-.399 0-.532-.167-.532-.533V14.782c0-.566.066-.666.632-.666h1.232c.366-.033.532.166.565.5.034.432.067.731.1 1.064zm52.911-.067c.532-.4 1.032-.832 1.597-1.131 2.796-1.464 5.791.133 5.957 3.294.133 2.63.067 5.291.067 7.954 0 .332-.167.466-.5.466a13.868 13.868 0 00-1.664 0c-.366 0-.532-.134-.532-.5v-6.622c0-.233-.033-.466-.067-.699-.099-.798-.432-1.464-1.264-1.73-.865-.3-1.664-.133-2.33.466-.831.732-1.064 1.697-1.098 2.729v5.757c0 .599-.033.665-.665.665h-1.465c-.499 0-.532-.066-.532-.566V14.848c0-.366.133-.533.499-.5h1.431c.3 0 .466.134.499.467 0 .2.034.499.067.798zm-26.622-1.364h2.129c.633 0 .666.033.666.699v.965c.033.366-.133.532-.532.532h-2.297c0 .167-.033.3-.033.433v6.19c.067.964.466 1.297 1.431 1.164.3-.033.599-.133.899-.2.299-.066.465.034.499.333.066.433.1.866.199 1.298.034.233-.066.366-.266.466-1.165.433-2.363.566-3.56.2-1.132-.366-1.797-1.331-1.864-2.696-.033-.998-.033-1.963-.033-2.961V11.72c0-.7.033-.7.698-.766.466-.033.899-.1 1.365-.133.566-.066.632.034.632.566v2.596c.033.033.033.1.067.266zm34.242 25.324v7.754c0 .633-.066.699-.665.699h-1.531c-.333 0-.499-.166-.499-.5V31.854c0-.333.133-.466.466-.5a32.071 32.071 0 001.797-.166c.266-.033.399.1.432.333v8.052zm18.47-21.83v7.787c0 .566-.034.632-.599.632h-1.631c-.299 0-.433-.133-.466-.432V10.223c0-.633.067-.7.699-.766.466-.033.899-.067 1.364-.133.566-.067.666 0 .666.566-.033 2.628-.033 5.257-.033 7.853zm-27.155 19.834c.1-.133.166-.3.299-.4.832-.798 1.831-1.298 2.995-1.364.533-.033.599.033.599.532v1.664c0 .5-.066.6-.632.533-.998-.134-1.83.2-2.462.965-.566.699-.699 1.497-.699 2.362v5.491c0 .566-.034.6-.599.6h-1.598c-.332 0-.466-.134-.466-.467V36.545c0-.366.134-.5.5-.5h1.431c.332 0 .465.134.465.467.034.3.067.632.1.931-.033.067.034.1.067.134zm-17.404-17.338v5.391c0 .5-.034.532-.566.532h-1.631c-.366 0-.499-.133-.499-.499V14.948c0-.3.133-.466.433-.5a34.048 34.048 0 011.83-.166c.399-.033.433.2.433.5v5.457zm.233-9.119c0 .9-.699 1.598-1.598 1.598a1.562 1.562 0 01-1.564-1.564c0-.899.666-1.564 1.531-1.597.932 0 1.631.698 1.631 1.564z"/></g><defs><clipPath id="clip0"><path fill="#fff" transform="translate(0 .838)" d="M0 0h200v60.566H0z"/></clipPath></defs></svg>