<svg width="81" height="161" fill="none" xmlns="http://www.w3.org/2000/svg"><g clip-path="url(#clip0)" fill="#fff"><path d="M0 80.343V1.595C0 .825.154.67.925.67h78.594c.77 0 .924.154.924.925v157.65c0 .771-.154.925-.924.925H.925c-.77 0-.925-.154-.925-.925V80.343zm56.557-66.112c0 .155.154.309.308.309.77.462 1.387 1.233 1.85 2.157.924 1.85 1.54 3.699 1.849 5.702.154 1.233 1.078.77 1.695.77.925 0 .462-.616.462-1.078-.154-4.161-.462-8.476-.77-12.637V9.3s-.154 0-.154-.154c0-.308-.309-.308-.463-.308-.616.154-1.233.154-1.849.154H14.332c-.462 0-.925-.154-1.233.462-.154.462-.308 1.079.154 1.541l.154.154c.154 0 .309.154.463.154 2.157 0 4.16.463 6.164.925 0 .308.154.462.616.462l.154.154c-.154.771.463 1.08.617 1.696.308 1.387.616 2.928.616 4.469v42.995c0 .463-.154.925.154 1.387 0 .925 0 1.85-.154 2.774-.462 2.62-1.54 3.699-4.16 4.315-1.542.308-3.083.308-4.624.462-.616 1.696-.462 2.004 1.387 2.004h46.386c.462 0 .925.154 1.233-.308.925-.309.616-1.233.77-1.85.309-.154.463-.462.463-.616.154-1.079.616-2.003.924-3.082.309-.77.771-1.541.617-2.62.154-.154.154-.308.154-.616.154-.154.154-.309.154-.617.617-2.003 1.233-3.852 1.85-5.856 0-.154.462-.462-.155-.616-.77-.309-1.54.154-2.003.77-1.541 2.62-3.082 5.086-5.086 7.243-2.003 2.158-4.469 3.699-7.397 4.007-.924-.154-2.003.154-2.928.154-5.085 0-10.17.154-15.256-.154-1.233 0-2.312-.616-2.774-1.85-.462-.924-.308-1.849-.308-2.927V42.74c0-.925.308-1.233 1.232-1.233h11.096c2.774 0 5.548 0 8.168 1.079.462.77.924 1.541 1.695 2.003v.617c.462 1.54.925 2.928 1.079 4.623 0 .308 0 .616.462.77.616.309 1.079.463 1.695-.154v-.154c.308-.308.154-.77.154-1.078V28.872c0-.155 0-.309-.308-.463-1.387-.462-1.695-.308-1.85 1.079-.153 1.233-.307 2.466-.77 3.699-.616 1.695-1.695 3.082-3.544 3.544-1.541.154-3.082.462-4.47.462h-13.56c-.771 0-1.08-.308-1.08-1.078V13.768c0-.77.309-1.079 1.08-1.079 7.396.154 14.948-.462 22.345.617.154.154.308.154.616.154a.847.847 0 00.77.462c.309.154.309.154.463.308zm22.345 67.037c-.308-.925-1.078-.309-1.54-.309H1.694c-.308 0-.462 0-.616.309v.154c-.617.616-.154 1.233-.308 2.003v74.433c0 1.696 0 1.696 1.695 1.696h75.667c.308 0 .77.154.924-.463.309-.308.155-.77.155-1.078V82.655c0-.617.154-1.08-.309-1.387z"/><path d="M1.079 81.268v77.207c0 .462.154.616.616.616h76.129c.308 0 .77.155 1.078-.154-.154.463-.462.463-.924.463H2.312c-1.696 0-1.696 0-1.696-1.696V83.271c.309-.77 0-1.387.463-2.003zm51.779-12.483c-1.078.308-2.157.308-3.236.308H36.061c-3.853 0-4.932-1.079-4.932-4.931V42.125c0-.77.154-1.08.925-1.08 5.086.155 10.017-.153 15.102.155 1.541.154 3.237.308 4.624 1.387-2.62-1.079-5.394-1.079-8.168-1.079H32.516c-.924 0-1.232.308-1.232 1.233v21.267c0 .924-.155 2.003.308 2.928.616 1.233 1.54 1.695 2.774 1.849 5.085.308 10.17.154 15.256.154 1.387-.154 2.312-.308 3.236-.154zm-39.605 2.003c.154 1.696.154 1.696 1.695 1.696h47.465c-.308.616-.77.308-1.233.308H14.794c-2.003 0-2.157-.308-1.54-2.004zm65.803 10.48c-.308-.309-.77-.154-1.233-.154H1.08c.154-.309.462-.309.616-.309h75.666c.617.154 1.387-.462 1.695.463zm.001 77.515V81.114c.308.308.308.77.308 1.078v75.358c-.154.617 0 .925-.308 1.233zM50.547 36.885c-1.541.616-3.236.77-4.777.77H32.053c-.77 0-.925-.154-.925-.924V13.615c0-.617 0-.925.77-.925h18.956c1.387 0 2.774 0 4.007.77-7.397-1.078-14.949-.307-22.346-.616-.77 0-1.078.309-1.078 1.08v22.345c0 .77.308 1.078 1.078 1.078h13.562c1.54.154 3.082-.154 4.469-.462zm-29.743-24.04c1.233 1.386 1.233 3.082 1.387 4.777.154 2.311 0 4.623 0 6.935v38.68c-.308-.462-.154-.924-.154-1.387V18.855c0-1.541-.154-2.928-.616-4.47-.154-.462-.925-.77-.617-1.54zm40.838-3.699H14.948c-1.695 0-1.695 0-1.695 1.695-.616-.462-.308-.925-.154-1.541.154-.462.77-.462 1.233-.462h45.153c.616 0 1.233 0 1.85-.154.153.154.307.154.307.462zm-4.777 41.3V28.717c.308 0 .308.155.308.463v20.342c-.154.154-.154.616-.308.924zM13.253 10.995c2.004 0 3.853 0 5.702.617.308.154.617.154.925.462a20.591 20.591 0 00-6.164-.925c-.155 0-.309-.154-.463-.154zM63.03 70.634c.616-2.157 1.386-4.16 2.157-6.318.154.925-.308 1.695-.616 2.62-.309 1.078-.77 2.003-.925 3.082-.154.154-.308.462-.617.616zm-9.401-25.89c.925 1.541 1.079 3.237 1.233 4.932 0 .308 0 .616.154.924-.462-.154-.462-.462-.462-.77-.154-1.541-.463-3.082-1.08-4.623.155-.154.155-.309.155-.463zm-1.849-2.157a4.261 4.261 0 011.695 2.003 5.565 5.565 0 01-1.695-2.003z"/><path d="M62.259 72.484c.308-.617.308-1.233.77-1.85-.154.617.155 1.541-.77 1.85zM55.17 50.6c.617 0 1.079 0 1.695-.154-.616.617-1.233.463-1.695.154zm.308-36.985c.308 0 .617.154.77.462-.307 0-.616 0-.77-.462zM19.88 12.228c.308 0 .462.308.616.462-.308 0-.462-.154-.616-.462zm45.307 52.088c0-.154 0-.462.154-.617 0 .309 0 .463-.154.617zm.154-.616c0-.155 0-.463.154-.617 0 .308 0 .462-.154.617zM54.862 13.46c.154 0 .462 0 .616.155-.154.154-.462 0-.616-.154zm1.695.771c.154.155.308.155.308.309-.154-.154-.308-.154-.308-.309zM20.65 12.69l.149.149c-.149 0-.149-.149-.149-.149zm35.599 1.387c.154 0 .154.154.308.154-.154-.154-.154-.154-.308-.154zM7.86 120.565h-.31c-.154-1.079.462-1.079 1.233-1.079h62.721c.463 0 1.387-.308 1.387.462 0 .771-.924.463-1.387.463H9.555c-.463 0-1.08-.154-1.696.154zm65.34 18.492v.309c-.462.462-.924.308-1.54.308H8.63c-.308 0-.77.154-.77-.308 0-.463.462-.309.77-.309h63.338c.308-.154.77-.154 1.232 0zm-32.824-38.988h31.9c.308 0 .77-.154.924.154.309.462 0 .924-.616 1.078H8.322c-.463 0-1.08.155-1.08-.77 0-.308.155-.462.463-.462h32.671zm.154.924h30.975c.463 0 1.541.308 1.541-.308 0-.77-.924-.462-1.54-.462H9.091c-.462 0-1.233-.309-1.233.462 0 .616.77.308 1.233.308H40.53z"/><path d="M73.2 139.057c-.462-.154-.924-.154-1.386-.154H8.476c-.308 0-.77-.154-.77.309 0 .462.462.308.77.308h63.029c.463 0 1.08.154 1.696-.463 0 .309.154.617-.309.771H7.705c-.462 0-.308-.308-.308-.616 0-.309 0-.617.463-.617h64.57c.154.154.77-.308.77.462zM7.86 120.565c.616-.308 1.078-.154 1.695-.154h61.95c.463 0 1.387.308 1.387-.463 0-.77-.924-.462-1.387-.462H8.785c-.771 0-1.542 0-1.234 1.079-.462-.925-.308-1.233.617-1.233h64.108c.462 0 .925-.154.925.616 0 .771-.463.617-.925.617H7.859zm44.69-31.592c-.616-.925-2.157-1.387-3.236-1.079a.331.331 0 00-.308.308v2.158c0 .154 0 .308.154.308.616.462 2.157-.154 2.62-.925.154.925 0 1.696 0 2.466-.463-1.233-1.387-.925-2.312-.925-.462 0-.616.155-.462.617v.308c.154.77-.462 1.695.308 2.158 1.079.616 2.62-.154 3.39-1.08l.154-.153c.155 1.387-.308 1.85-1.54 1.85h-3.853c.462-.463.462-.926.462-1.542v-4.16c0-.617.154-1.388-.77-1.696 1.695 0 3.39-.154 4.93 0 .925-.154.31.77.463 1.387zm-37.602 17.568h2.774c-1.079.308-.77 1.079-.77 1.849v2.928c0 1.387.616 2.158 1.695 2.158 1.233 0 2.157-.617 2.311-2.004v-3.39c0-.616-.154-1.233-.924-1.387h2.157c-.77.308-.77.925-.77 1.541v3.391c0 1.695-1.079 2.465-2.774 2.465-1.85 0-2.774-.77-2.928-2.465v-3.391c0-.77 0-1.387-.77-1.695zm24.041 46.232a8.385 8.385 0 01-2.774 0c.77-.154.77-.616.462-1.233-.308-.462-.308-1.233-1.232-1.079h-.925c-1.079 0-1.541.463-1.695 1.541-.154.617.462.463.77.771-.616.154-1.078.154-2.311 0 .77-.308 1.078-1.079 1.387-1.695.77-1.849 1.54-3.699 2.465-5.702.463.154.463.462.617.77.77 1.696 1.54 3.545 2.157 5.394.154.462.463.925 1.079 1.233zm-2.928-2.774a14.837 14.837 0 01-1.079-2.774c-.462 1.079-.77 1.849-1.233 2.774h2.312zm5.394-43.458c1.54 0 2.773-.154 4.006.154.925.154 1.541.617 1.696 1.541.154.925-.155 1.541-1.233 2.004-.154 0-.154.154-.463.154 1.08 1.078 1.541 2.774 3.237 3.236-1.08.462-1.85.308-2.466-.462-.462-.771-1.079-1.387-1.541-2.158-.154-.308-.463-.616-.925-.462-.462.154-.154.616-.154.77v.925c0 .771 0 1.387.925 1.695h-2.928c.924-.308.924-1.079.924-1.849v-3.853c0-1.078 0-1.078-1.078-1.695zm4.315 1.233l-.309-.308c-.462-.463-1.078-.463-1.695-.308-.616.154-.154.77-.308 1.232v1.233c0 .617.308.617.77.617 1.387-.309 1.696-.925 1.542-2.466.77.616.154 1.387.154 2.003 1.387-.616 1.078-1.849.462-2.311-.462-.463-.616-.154-.616.308zm-2.62-.462h-.308v5.702c0 .154 0 .308.308.308s.308-.154.308-.463v-1.387c-.308-1.232-.308-2.619-.308-4.16zm12.482 40.684c.463 1.387.154 2.774-.77 3.852-1.079 1.233-2.312 1.233-3.699.925-1.233-.154-2.311-1.849-2.311-3.39.154-.617.308-1.079.154-1.696 0-.154.154-.308.154-.462.154-.154.154-.154.154-.462.308-.154.616-.462.77-.771.154 0 .309-.154.463-.308.154.154.462.154.616.308-.77.617-.924 1.541-1.079 2.466-.308.462-.308.771 0 1.233 0 .154 0 .308.154.462-.154.154-.154.462.155.617 0 .154.154.154.154.308.462.924 1.079 1.387 2.003 1.387 1.079 0 1.541-.617 1.85-1.541.462-1.541.462-3.082-.309-4.469.154-.154-.308-.617.154-.617l.154.154.154.154.155.154c.154 0 .154.155.308.155 0 .154.154.308.308.462 0 .616 0 .925.308 1.079zm-21.575-20.342c-.924 2.003-1.695 3.852-2.774 6.164-.77-1.849-1.54-3.39-2.311-4.932.462 0 .616.309.77.771 0 .154.154.308.309.308.154 0 .308-.308.154-.308-.617-.925-.77-1.849-1.387-2.774-.154-.154-.308-.308-.617-.154-.308.154-.308.462-.154.616.154.309.154.617.308.925v3.853c0 .77 0 1.387 1.08 1.541-.925.308-1.696.154-2.466 0 1.078-.154.924-.925.924-1.695v-4.007c0-.617 0-1.233-.925-1.233 1.387-.616 2.004-.308 2.62.925.617 1.387 1.387 2.928 2.158 4.469.616-1.387 1.233-2.774 1.85-4.007.77-1.541.77-1.541 2.619-1.541-.154.462-.462.308-.77.308-1.08-.616-1.233-.616-1.388.771zm-23.424 24.194l-1.387-1.849c-.308-.308-.616-.616-1.078-.462-.463.154 0 .462-.154.77v1.541c-.309 1.079-.309 1.079-1.08.463.309-.154.309-.309.309-.617v-4.777c0-.308-.154-.616.154-.925.308-.154.617 0 .925.154-.154 0-.308 0-.308.154 0 .925-.309 1.85.154 2.62 1.54.309 2.311-.462 2.311-1.849 0-.925-.77-.925-1.233-1.233.155 0 .309-.154.617-.154.308.154.77.154 1.079.308 1.232.617 1.232 2.312-.155 3.082-.616.309-.462.463-.154.925.617.771 1.08 1.541 1.696 2.312-.463.77-.771-.154-1.233-.154-.154-.155-.309-.309-.463-.309z"/><path d="M10.942 152.311c.462 0 .77.924 1.232.154 2.158.462 2.158.462 2.158-1.85v-3.236c0-.77.154-1.387-.925-1.695h5.086c.308 0 .462.154.462.462v1.233c-.462-1.541-1.695-1.233-2.774-1.233-.616 0-.77.309-.77.771v2.003c-.617-.77-.154-1.541-.309-2.311 0-.308 0-.617-.308-.617-.462 0-.308.309-.308.617 0 1.849.154 3.544 0 5.393 0 .309 0 .771.308.771.463 0 .308-.308.308-.617.155-.77-.308-1.695.155-2.465v2.157c0 .617.154.925.77.925 1.233 0 2.62.154 3.082-1.695.154 1.541-.308 2.157-1.387 2.157h-6.01c-.308-.308-.616-.462-.77-.924zm61.488-19.88c.308.462.616.77 1.233.925-.77.308-1.85.308-2.928.154.462-.309 1.079-.463.616-1.233-.308-.617-.308-1.387-1.387-1.233h-.924c-.925 0-1.541.616-1.696 1.541 0 .616.463.462.771.771-.616.308-1.233.308-2.311 0 .77-.309 1.078-1.079 1.386-1.696.771-1.695 1.387-3.236 2.158-4.777.154-.154.154-.462.462-.462.308 0 .463.308.463.462.462 1.233 1.078 2.466 1.54 3.699l-.154.154c-.308-.154-.154-.771-.616-.463-.308.309-.154.617 0 .771.154.308.308.462.616.616v.771c0 .308 0 .616.309.616.462 0 .462-.308.462-.616zm-2.928-4.469c-.308.308-.462.77-.616 1.079-.77 1.695-.617 1.695 1.078 1.541.463 0 .463-.154.309-.617-.154-.616-.463-1.233-.771-2.003zm-34.52-14.64h.925c1.85 0 1.85 0 2.928-1.387.308 1.079-.154 1.849-1.233 1.849-1.541 0-3.082 0-4.623-.154 1.079-.308.924-1.079.924-1.849v-4.007c0-.616 0-1.079-1.078-1.233.616-.308 1.078-.154 1.387-.308h2.928c1.387 0 1.387 0 1.233 1.849-.463-1.849-1.85-1.387-2.928-1.387-.309 0-.617 0-.617.308v2.158c0 .154 0 .154.154.308.77.308 2.158-.154 2.62-.924v2.465c-.462-.462-.462-.924-1.079-1.079-1.695-.308-1.849-.154-1.849 1.542.308.924.308 1.386.308 1.849-.308-.308-.308-.771-.308-1.233v-4.623c0-.308 0-.617-.462-.617-.463 0-.309.463-.309.617v5.393c0 .309 0 .617.309.771.308.154.616 0 .77-.308zm-21.575 15.102c.925 2.466-.308 4.623-2.928 5.086-.308 0-.616.154-1.079.154-1.078 0-2.003 0-3.082-.154 1.233-.309.925-1.233.925-2.004v-3.698c0-.617.154-1.387-.925-1.541 1.696 0 3.39-.309 4.932.154.77.154 1.387.616 1.695 1.233-.308-.309-.617-.617-1.079-.771-.462-.308-.616-.154-.616.308-.617-.616-1.387-.77-2.312-.616-.462 0-.616.154-.616.616v5.086c0 .462.154.616.616.616 1.233.154 2.312-.308 3.082-1.387 0 .154-.154.463.154.617.155 0 .309-.154.463-.309.924-.924.924-2.157.77-3.39zm-5.085 1.387v-2.62c0-.308.154-.77-.308-.77-.463 0-.309.462-.309.77 0 1.85.309 3.699 0 5.548 0 .308 0 .462.463.462.308 0 .308-.308.308-.462-.154-.925-.154-1.849-.154-2.928zm-.154-39.297H9.4c.771 0 1.387 0 1.542-.925.154.77.154 1.541.154 2.466-.617-.925-1.541-1.233-2.466-.925-.308.154-.308.309-.308.617v1.54c0 1.08.154 1.234 1.233 1.234.924-.154 1.849-.308 2.465-1.387.154 1.233 0 1.695-1.078 1.695H6.627s-.155 0-.309-.154c.925 0 .925-.617.925-1.233v-4.315c0-.616 0-1.233-.77-1.541 1.695 0 3.39-.154 5.085 0 .925.154.308.925.462 1.541-.77-1.85-2.311-1.079-3.544-1.079 0-.462-.308-.308-.462-.308-.309 0-.463.308-.463.617v5.393c0 .308 0 .617.308.617.463 0 .309-.463.309-.617-.309-1.079-.463-2.157 0-3.236 0 0-.154.154 0 0zm16.489 56.249c-.154-.308-.308-.463-.616-.771.308-.154.77-.308 1.078-.308 1.233 1.541 2.466 3.082 3.853 4.623.154.154.154.617.616.308.309.617.617 1.387-.154 1.85-1.387-1.695-2.774-3.391-4.315-5.086-.616.308.154 1.233-.462 1.541v-2.157c.154 0 0 .154 0 0zm37.91-1.233h2.774c-.925.308-.925.925-.925 1.695v4.161c0 .617 0 1.233.925 1.387h-2.774c.77-.154.925-.77.925-1.541v-4.161c0-.616 0-1.233-.925-1.541zm.308-52.859c.154.771-.154 1.233-.308 1.85 0 .154-.308.308-.462.308-1.695 0-3.39 0-5.24-.154.925-.154.925-.77.925-1.387v-4.161c0-.616 0-1.233-.77-1.541h2.927c-1.387.308-1.078 1.387-1.078 2.311v3.545c0 .616.154.925.924.925 1.233-.154 2.466 0 3.082-1.696zm-4.931-1.387v2.312c0 .308-.154.77.308.77.462 0 .308-.462.308-.616 0-1.695.309-3.39 0-5.24 0-.308.463-.77-.154-.77-.616-.154-.616.462-.616.925.154.77.154 1.695.154 2.62zm-7.089 22.654c.925-.154.925-.77.925-1.387v-4.161c0-1.078 0-1.078-.925-1.541.77-.154 1.85-.154 3.082 0-1.233.154-1.079.925-1.079 1.695v4.007c0 .617 0 1.233.925 1.541-.925-.154-2.003-.154-2.928-.154zm7.705 34.828h.925c.616 0 1.233-.154 1.387-.924.154.77.154 1.541.154 2.619-.308-.616-.308-1.078-.925-1.078-1.233-.154-1.54 0-1.54 1.233v.77c0 .616 0 1.233.924 1.387a9.337 9.337 0 01-2.928 0c.925-.154.925-.616.925-1.387v-4.315c0-1.079 0-1.079-1.08-1.541h5.086c.463 0 .463.154.463.462v1.079c-.617-1.695-2.158-1.079-3.237-1.233-.462-.154-.924-.308-.924.463v5.547c0 .463.308.771.77.771-.154-1.233-.462-2.62 0-3.853zm12.945-56.249c.463.617.463 1.696 1.541 2.158h-2.62c.463-.154.771-.617.463-1.079-.308-.462-.154-1.387-1.079-1.233h-1.079c-.924-.154-1.386.309-1.695 1.08-.154.615-.154.924.617 1.078-.77.154-1.387.154-2.466 0 .925-.308 1.233-.925 1.387-1.387.77-1.695 1.541-3.39 2.157-5.086v1.08c-.154.307-.308.615-.308.924-.154.616-.924 1.233-.462 1.695.462.616 1.387.154 2.003.154.308.154.463.462.617.77.462.617.77.309.924-.154zm.309 1.387c0-.154-.154-.308-.309-.462a.331.331 0 00-.308.308c0 .154 0 .463.308.463.154.154.309 0 .309-.309zm-1.387 14.024c-.309-.308-.463-.77-.925-.77-.925-.155-1.233 0-1.233.924v2.928c-.308 0-.154-.308-.154-.462-.154-1.233-.154-2.466-.154-3.853-.462.308-.462.771-.462 1.079v3.544c0 .617.154 1.387-.308 2.004v-5.548c0-.616-.309-.925-.771-1.079h3.544c1.233.154 2.004.771 2.004 1.695.154.925-.463 1.541-1.695 2.004l-.463-.463c.154-.462.77-.462.925-.924 0 .154-.154.462.154.616.154.154.308-.154.462-.308.617-1.079.308-1.695-.924-2.312v.925s.154 0 0 0zm-23.579 43.15c-.616-.925-1.54-1.233-2.465-1.849-1.233-.771-1.696-1.542-1.08-2.774.309 0 .463.154.617.308 0 .616.154.924.77 1.233.617.308 1.388.77 2.004 1.078 1.387.771 1.541 2.466.308 3.545-.154 0-.308-.154-.462-.308.617-.309.77-.617.308-1.233zm23.424-4.469c0 .154.154.308.154.308 0 .154 0 .462.155.616 0 .309 0 .463.308.617 0 .154 0 .308.154.462.462 1.079.924 2.003 1.233 3.082.308.617.462 1.079 1.387 1.387-1.079.154-1.85.154-2.928.154.77-.462.462-1.078.308-1.541 0-.308 0-.462-.308-.616 0-.308-.154-.463-.309-.617-.308-.924-.616-1.849-1.232-2.619v-1.079c.616-.925.77-.463 1.078-.154zm-59.176-34.366c-.309-.77-1.079-1.079-1.695-1.387-.617-.308-1.08-.616-1.542-1.079-.616-.616-.77-1.387-.308-2.157.463.154.308.616.617.77.462.771 1.233 1.079 1.849 1.387.462.309.925.463 1.387.925l.154.154c0 .308.154.462.462.617.155.616-.154 1.386-.308 2.003-.616-.308-.462-.925-.616-1.233zM37.91 93.596c.77.77 1.695.925 2.62.617.925-.463 1.233-1.233 1.079-2.158v-3.082c0-.617 0-1.233-.925-1.233.77-.308 1.541-.154 2.466-.154-1.387.616-.925 1.85-.925 2.774v2.003c0 1.387-.616 2.158-1.695 2.466-1.541.462-2.928 0-3.544-1.079.308-.154.77.617.924-.154zm10.171 34.982c.925.308 1.85.771 2.62 1.387 1.233.925 1.233 2.004.308 3.082l-.154.154c-.154-.154-.616.463-.77-.154.924-.77.77-1.387-.155-2.157-.924-.617-2.003-.925-2.62-1.849 0-.463-.308-.771 0-1.233.309.154.463.77.771.77zm-32.054-2.311h3.544c1.387 0 1.387 0 1.233 1.695-.308-.617-.462-1.233-1.232-1.233h-1.85a.331.331 0 00-.308.308v2.158c0 .154.154.308.308.308.77.308 2.004-.154 2.466-1.079v2.62c-.308-.462-.308-.925-1.079-1.079-1.695-.154-1.85-.154-1.85 1.541v.617c-.307-.309-.307-.617-.153-.925.308-1.233-.154-2.466 0-3.699 0-.77-.154-1.232-1.079-1.232zm23.887 6.318c.77.616 1.695.771 2.62.308.924-.462.924-1.387 1.078-2.157v-2.774c0-.771 0-1.387-.924-1.541h2.311c-1.079.308-.925 1.079-.925 1.849v2.774c0 1.079-.308 2.157-1.54 2.466-1.233.462-2.62.462-3.545-.617l.154-.154c.308.308.617.154.77-.154zM27.123 94.367c-2.158-1.541-2.466-4.161-.617-6.165h.617c0 .309-.154.463-.154.77-.617 1.08-.617 3.237 0 4.008 0 .154.154.154.154.308s.154.308.308.308l.154.154c0 .154.154.308.308.308 0 .154.308.309.308.617-.462-.154-.77-.308-1.078-.308zm28.509 32.208c0 .154-.154.154 0 0-.616.77-.308 1.695-.308 2.62 0 1.233-.308 2.465.154 3.698-.308.925-.77.463-1.233.154 0-2.003 0-3.852.155-5.856.154-.154.308-.308-.155-.308.463-.77.925-.154 1.387-.308z"/><path d="M69.348 146.3v1.079c-.308.771-.617 1.695-1.079 2.62h2.312c.154.154.308.308.308.616-.77-.308-1.695-.154-2.466-.154-.77 0-.77.925-.924 1.541-.154.463.462.463.77.771-.77.308-1.541 0-2.312 0 .771-.462.925-1.233 1.233-1.849.77-1.541 1.541-3.083 2.158-4.624zm-53.321-20.033c.77 0 1.079.462 1.079 1.387-.154 1.233.154 2.465 0 3.698 0 .308 0 .617.154.925v.77c-.154.309-.308.617-.77.463-.463-.154-.309-.463-.309-.771v-4.777c0-.462 0-.925-.308-1.233 0-.308 0-.462.154-.462 0-.154 0 0 0 0zm6.164 19.725v.463c-.154.308-.154.77-.154 1.078v4.315c0 .309 0 .617-.308.617-.308.154-.462-.154-.616-.463a17.698 17.698 0 000-5.702c0-.154-.154-.308-.154-.462.308-.154.77-.154 1.232.154zm36.369 2.774c-.462 1.233-.154 2.466-.154 3.853-.462 0-.77-.154-.77-.771v-5.547c0-.771.462-.617.924-.463v2.928zm.617-15.873c-1.233-1.233-1.541-2.774-.925-4.469 0-.154.154-.308.154-.462.309-.154.463-.463.77-.617.155-.154.463-.462.617 0-.462.463-.308 1.079-.616 1.541-.308.925-.462 2.004.154 2.774 0 .309.154.463.308.617.154.308 0 .462-.462.616zm-25.119-5.239c.154-1.387.308-1.387 1.233-1.079v.308c-.309.462-.617.925 0 1.387v.308c-.309.154-.309.463-.309.771.154.924.154 2.003.154 2.928 0 .924-.154 1.079-1.078.77 0-.154.154-.308.154-.308.308-1.541.308-3.082 0-4.777 0 0-.154-.154-.154-.308zM16.798 90.36c-.77-.617-.617-1.541-.154-2.158.616-.77 1.387-1.078 2.311-.924.463 0 1.079.77 1.695-.154a8.38 8.38 0 010 2.774c-.154-.463-.308-.771-.308-1.08-.308-.77-.924-1.232-1.85-1.232-.462 0-.924.308-1.078.77-.308.617.154.925.462 1.388-.462.308-.462 0-.616-.309-.154-.308-.154-.616-.462-.77-.308.616 0 1.078 0 1.695zm12.482 20.034c-.77.462-1.54.308-2.466.154-.308-.308-.308-.617-.308-.925v-1.695c0-.308.154-.925-.308-.925-.462 0-.308.617-.308.925v3.082c0 .617.154 1.387-.154 2.004v-4.932c0-.616-.154-1.079-.925-1.387 1.695.154 3.544-.616 4.931.771l-.154.154c-.308-.154-.616-.462-1.078-.462 0 .154.154.462.154.616-.154-.154-.309-.154-.309-.308-.462-.308-.924-.463-1.387-.154-.462.154-.154.616-.154 1.078v1.079c-.154.771.309.925.925.925.462 0 .77-.308 1.079-.617 0 .154 0 .463.462.617zm28.664 3.082a1.208 1.208 0 00-.616-.617.331.331 0 00-.309-.308c-.462-1.387-.616-2.62-.308-4.007.154-.154.308-.308.308-.462.309 0 .925-.77.925.308-.154.154-.154.309-.154.463-.154 1.387-.154 2.619.308 3.852 0 .154.308.617-.154.771zm-9.863 15.102c-.462 0-.462-.616-.77-.77-.309.462 0 .77 0 1.233-.617-.617-.463-1.387-.155-2.158.463-.77 1.541-1.079 2.466-.925 1.079.309 1.079.309 1.695 0v2.312c-.616-1.233-1.233-2.466-2.928-1.695-.924.616-.462 1.387-.308 2.003zM15.41 149.383c-.462.77-.154 1.695-.154 2.465 0 .309.155.771-.308.617-.462 0-.462-.308-.308-.771a31.526 31.526 0 000-5.394c0-.154-.154-.616.308-.616.308 0 .308.308.308.616.155.771-.308 1.696.309 2.312.154 0 .154 0 .308.154 0 .154-.154.308-.154.308l-.308.309zm22.5-55.787c-.308.77-.616 0-.924.154-.309-.308-.155-.616-.155-.924 0-1.541.154-2.928-.154-4.47v-.308c.309-.77.77-.308 1.233-.154-.308.154-.308.462-.308.77 0 1.388-.154 2.62.154 4.007 0 .309.154.617.154.925z"/><path d="M25.736 113.014c.308-.617.154-1.387.154-2.004v-3.082c0-.308-.154-.925.308-.925.462 0 .308.617.308.925v1.695c0 .308 0 .771.309.925v2.157a.331.331 0 00-.309.309c0 .77-.308.462-.77.308v-.308zm42.995-23.887v-1.079c.155-.462.309-.924.771-.154.462.617.308 1.233.77 1.85 0 .154 0 .308.155.462 0 .616 0 1.078.616 1.387 0 .308 0 .77.462.924-.154.463-.462.77-.77.154-.154-.308-.463-.462-.617-.77-.154-.462-.308-.77-.308-1.233 0-.154-.154-.154-.154-.308 0-.462 0-.77-.462-1.079l-.154-.154h-.309zM16.798 90.36c-.154-.617-.309-1.079 0-1.695.308.154.308.462.462.77.154.308.154.617.616.308.154.154.308.154.308.309.617.616 1.233 1.232 2.312 1.387 0 .308.308.616.617.77 0 .462-.155.925-.309 1.387-.154.308-.308.462-.616 0 .462-.462.308-.77 0-1.233-.616-.77-1.233-1.233-2.158-1.233-.154-.616-.77-.616-1.232-.77zm22.345 42.533c-.617-.616-.617-1.387-.617-2.003v-3.082c0-.617 0-1.233-.924-1.541h2.774c-1.079.308-.925 1.232-.925 2.003 0 1.387-.154 2.774.308 4.161-.616-.308-.462-.771-.462-1.387v-3.853c0-.154.154-.616-.308-.616-.308 0-.308.308-.308.462.154 2.004-.155 3.853.462 5.856 0 0 0-.154 0 0zM8.168 108.236c-.309-.154-.154-.616-.617-.77.77-1.079 1.541-1.233 2.928-.925.463.154.77.308 1.079-.308.154.925.154 1.695 0 2.466-.462-1.079-.925-2.158-2.312-1.85-.77.154-1.078.617-1.078 1.387zm18.801-19.109c0-.308.154-.462.154-.77h-.617c1.08-1.08 2.312-1.387 3.853-.771.462.154.925.308 1.387-.154 0 .77 0 1.541.154 2.311-.616-.77-1.079-1.695-2.311-1.849-1.233-.308-2.004.308-2.62 1.233zm32.978 38.218c-.154-.462-.462-.154-.616 0-.308.155-.463.617-.77.617.77-1.695 2.62-2.466 4.468-1.695.463.154.77.308 1.233-.463v2.312c-.616-.771-.924-1.541-1.849-1.695-1.079 0-1.85.308-2.466.924zM43.92 146.917c-.154-.308-.308-.308-.616-.308.616-1.079 1.541-1.387 2.774-.925.462.154.77.462 1.233-.154.154.771.154 1.695 0 2.62-.463-1.079-.77-2.158-2.158-2.158-.616 0-.924.309-1.233.925zm-14.332 5.548c.771-.617.463-1.233.154-1.85v-3.544c0-.462.155-.925-.308-1.233h1.541c-.616.462-.616 1.079-.616 1.695v5.086c0 .154.154.616-.154.616-.462-.308-.617-.462-.617-.77zm37.448-39.143c.463-.617.308-1.233.308-2.004v-3.544c0-.308-.154-.771.463-1.079 0 1.387 0 2.62.154 3.853 0 .154 0 .308.154.462-.154.771-.308 1.695 0 2.466-.462.308-.925.308-1.387 0 .154 0 .308 0 .308-.154zm-55.94-1.079c0 .462 0 .925.462 1.079-.77.924-1.85.924-2.774.616-.462-.154-.925-.308-1.387.154-.154-.924-.154-1.695 0-2.465.462 1.232 1.233 2.157 2.62 2.003.77-.154 1.079-.616 1.079-1.387zm46.848-4.007c0-1.078-.617-.308-.925-.308.77-1.233 1.85-1.695 3.082-1.541 1.387.154 2.466.616 2.928 2.003h-.154l-.616-.616c-.462-.462-.462 0-.462.308-1.233-1.695-2.62-1.695-3.853.154z"/><path d="M39.143 132.739c-.77-1.849-.462-3.698-.462-5.702 0-.154 0-.462.308-.462.462 0 .308.308.308.616v3.853c0 .462 0 1.079.463 1.387l.154.154c-.154.308-.463.462-.77.154zm-22.808-.154c.154.308-.154.616.309.771.308.154.616-.155.77-.463 1.387.308 2.62.308 3.853-.77 0 1.078-.308 1.541-1.387 1.387-1.541-.154-3.082 0-4.623-.154.462-.155.924-.309 1.078-.771zm3.853-38.989c.154.308.462.308.616 0 .154-.462.309-.924.309-1.387.462 1.541-.463 2.774-2.158 2.774-.77 0-1.387-.154-2.003-.462-.77-.308-.463-.925-.155-1.387 1.08 1.541 2.312 1.695 3.39.462zm4.469 55.324c.616-.308 0-1.233.462-1.541v4.161c0 .617 0 1.233.925 1.233-.77.308-1.541.154-2.466.154.925-.154.925-.77.925-1.541.154-.925.154-1.695.154-2.466zm25.428-15.873c.154.617.462 0 .77.154-.77.617-1.695.617-2.465.309-.463-.155-1.08-.463-1.542.462v-2.774c.617 1.233 1.541 2.466 3.237 1.849zm20.495-21.883c.309.463.617.771.925 1.233.463.616.925 1.233 2.004 1.233-1.233.616-2.004.462-2.62-.462-.308-.463-.617-.771-.925-1.233.77.154.617-.308.617-.771zM8.322 146.146c-.308-.308-.617-.462-.925-.154-.308.154-.154.617-.154.925v4.777c0 .308 0 .463-.308.617v-5.394c0-.771-.308-.925-.925-1.233 1.233 0 2.466-.308 3.545.154-.154 0-.309.154-.617.154-.154 0-.308 0-.616.154zm50.855-13.253c.308 0 .616-.154.616-.616 1.541 1.233 2.62 1.233 4.315-.154 0 .616-.462 1.078-1.233 1.387-1.233.462-2.465.308-3.698-.617zM46.54 152.311c0 .154.154.308.462.308-.77.616-1.695.462-2.465.308-.463-.154-.925-.308-1.387.154v-2.466c.462.771.77 1.542 1.695 1.85.616.154 1.233.154 1.695-.154zm-18.03-24.195c-.155-.308-.155-.617-.309-.925 0-.308-.154-.462.154-.616.309-.154.463 0 .617.154.462.925.77 2.003 1.387 2.774.154.154 0 .308-.154.308a.331.331 0 01-.308-.308c0-.462-.309-.617-.771-.771-.154-.308-.154-.616-.308-.924-.308-.309-.308.154-.308.308zm29.434-14.64c.462-.154.154-.462.154-.771 1.079 1.233 2.003 1.387 3.39.463.463.308.77-.309 1.079-.463h.154c-1.233 1.541-3.082 1.85-4.777.771zM27.123 94.367c.308 0 .616.154.924.154.154-.308-.154-.308-.308-.617 1.541.617 2.928.309 3.853-1.233 0 2.004-2.466 2.774-4.47 1.696zm-11.558 54.861c0-.154.154-.308.154-.308h.924c1.08 0 1.08 0 1.696-1.078v2.465c-.463-1.541-1.85-.77-2.774-1.079zm5.548 3.083c.154.154.308.616.616.462.308-.154.308-.462.308-.616v-4.315c0-.309 0-.771.154-1.079v5.085c0 .617 0 1.233.925 1.233h-2.928c.308-.616.616-.462.925-.77zm12.79-19.11c.925.309 1.08.155 1.08-.77s0-2.003-.155-2.928c0-.308-.154-.616.308-.771v3.545c0 .616 0 1.233.925 1.387h-2.928c.308-.617.616-.463.77-.463zm20.188 12.791c-.616 0-.154.463-.154.617-.77-.771-1.85-.925-2.774-.463-.154 0-.462-.154-.616-.308 1.233-.616 2.312-.616 3.544.154zm11.25-2.774c-.616.771-1.079 1.233-1.695 2.004.154-1.85.308-2.158 1.695-2.004zM37.602 92.671c-.308-1.232-.154-2.62-.154-4.006 0-.309.154-.617.308-.77V91.9c0 .308.154.616-.154.77zm-11.866 20.651c.308.308.77.462.77-.308 0-.155 0-.309.308-.309.154.617.309 1.079 1.08 1.233h-2.929c.154-.462.616-.308.77-.616z"/><path d="M70.58 111.164c.155.463.309.925-.462.925 0-.154-.154-.308-.308-.462l-.154-.155a.331.331 0 00-.308-.308c0-.154-.154-.154-.154-.308l-.154-.154v-.308c.308 0 .462-.154.616-.309h.154c.154 0 .462.155.462.463v.154c-.308.154 0 .308.309.462zm-29.588 14.794c.308-2.003.308-2.157 1.695-2.003-.462.617-1.078 1.233-1.695 2.003zm-18.801 20.034c-.462-.308-.924-.308-1.387 0-.308 0-.616 0-.77-.308h5.085c-.308.154-.77.308-1.078.308-.617-.308-1.233-.154-1.85 0zm-15.256 6.319c.77.616.924.616 1.078-.463.309.617.309.617 1.08.925h-2.62c.154-.154.462-.154.462-.462zM63.03 108.39c.77 1.541.616 2.928-.309 4.315h-.154c.617-1.387.925-2.774.462-4.315 0 .154 0 .154 0 0zm-45-17.26c.925 0 1.696.463 2.158 1.233.308.308.462.77 0 1.233.154-.77-.308-1.233-.925-1.541-.462-.308-.77-.616-1.233-.925zm36.215 41.917c.463.309.925.771 1.233-.154.154.309.617.463.925.617h-3.236c.616-.308.924-.463 1.078-.463zM37.756 87.894c-.462-.154-.925-.616-1.233.154-.154-.308-.616-.308-.924-.616a10.332 10.332 0 013.082 0l-.925.462zm17.722 44.845c-.462-1.233-.154-2.466-.154-3.698 0-.771-.308-1.696.308-2.466-.154 2.157-.154 4.161-.154 6.164zm.154-6.164c-.462 0-.924-.462-1.387.154-.308-.154-.616-.308-.924-.308v-.154h2.928c0 .308-.463.154-.617.308zm-34.519 19.88a17.686 17.686 0 010 5.701v-5.701zm35.752-37.911c-.308 1.387-.154 2.774.308 4.007-.924-1.233-1.078-2.62-.308-4.007zm10.017 5.086a2.14 2.14 0 001.387 0c.308 0 .616 0 .925.154-.925.462-2.004.308-2.928.308 0-.77.462-.154.616-.462zm-32.67 14.486c.308 1.541.308 3.082 0 4.777v-4.777zM26.968 92.98c-.616-.77-.77-2.774 0-4.007-.308 1.387-.462 2.774 0 4.007zm-6.472-1.696c-.924 0-1.695-.77-2.311-1.386.77.462 1.695.77 2.311 1.386zm16.181-2.927c.309 1.386.154 2.928.154 4.469-.462-1.541-.154-3.082-.154-4.47zm-28.509-.463v2.62c-.617-.77-.463-1.695 0-2.62zm21.729 19.572c.616.77.616 1.387.154 2.157h-.154c.308-.77.154-1.387 0-2.157 0 0-.154 0 0 0zm29.588 24.194c-.77-.924-.462-1.849-.154-2.774 0 .925-.154 1.85.154 2.774zm12.329-1.078c.308.616.462 1.233.77 1.695h-.154c-.308-.154-.308-.771-.77-.771 0-.154 0-.462.154-.924-.155.154-.155.154 0 0zm-1.542 16.027c-.308-.154-.462-.771-.924-.154 0-.309.154-.617.462-.925.308.154.462.616.462 1.079zm-58.714-33.287c.154-.617.462-1.233.308-2.004.462.771.308 1.387-.308 2.004zm5.394-22.962c.462.154 1.078.154 1.078.77-.462-.154-.924-.308-1.078-.77zm18.338 37.91c-.462-.462-.308-.925 0-1.387v1.387zm35.753-36.677c-.462-.308-.617-.77-.617-1.387.309.308.617.77.617 1.387zm-22.037 56.249c.154.616-.154 1.078-.154 1.695-.154-.617-.154-1.233.154-1.695zm-2.158 3.236c.309.462.309.924-.308 1.079.308-.309.462-.617.308-1.079zM30.05 109.623c-.153.308-.307.617-.77.771v-.154c.154-.155.463-.463.77-.617zm-14.177 16.644v.308c-.308 0-.462 0-.616-.154.154-.308.462-.308.616-.154zM50.084 146.3c-.154.463-.308.617-.77.771.154-.308.462-.616.77-.771z"/><path d="M71.505 92.517c-.308-.154-.462-.616-.462-.924.308.154.308.462.462.924zm-50.392-.462c-.309-.154-.463-.462-.617-.77.308.154.462.462.617.77zm34.52 55.941c-.309-.309-.463-.617-.463-.925.308.308.462.616.462.925zm14.794-38.989v-1.079h.154c.154.308.154.77-.154 1.079 0 0 .154 0 0 0zm.153 2.157c-.153-.154-.462-.154-.462-.616.154.154.309.308.463.616zm-1.078-1.233c-.154.155-.308.309-.617.309.155-.309.463-.154.617-.309zM13.1 127.654c.307.154.307.462.307.77a1.176 1.176 0 01-.308-.77zm46.693 4.623c-.308-.154-.462-.308-.308-.617.154.155.308.463.308.617zm-47.927-20.959c-.308-.154-.308-.308-.462-.616.308.154.462.308.462.616zm59.023 39.297c.308.155.308.309.308.617 0-.154-.154-.462-.308-.617zm-16.644-23.886c.309 0 .309.154.155.308 0 0 0-.154-.155-.308zM70.58 90.206c-.153-.154-.153-.308-.153-.463 0 .155.154.309.154.463zm-20.033 55.786c-.154.154-.308.309-.462.309.154-.155.154-.309.462-.309zm6.473-38.064c0 .154 0 .308-.309.462.154-.154.308-.308.308-.462zm.308 4.931c.154 0 .308.155.462.463-.308-.154-.308-.308-.462-.463zm12.328-1.387c.154 0 .308.155.308.463-.154-.154-.154-.308-.308-.463zm-59.023 40.376c.154.154.309.308.309.463-.155-.155-.309-.309-.309-.463zm60.256-3.852c-.154-.154-.308-.309-.308-.617.308.154.308.463.308.617zm-15.565-.925c-.154-.154-.308-.308-.308-.462.154.154.154.308.308.462z"/><path d="M70.735 147.533c-.154-.154-.308-.308-.154-.616 0 .154.154.308.154.616zm.462.925c-.154-.154-.154-.308-.154-.462 0 .154 0 .308.154.462zm-43.304-54.4a.331.331 0 01-.308-.308c.154 0 .154.154.308.308zm29.127 18.493c.153 0 .307.154.307.309-.154 0-.154-.155-.308-.309zm1.54 15.411c0 .154-.154.308-.154.462-.154-.154 0-.308.154-.462zm10.788-16.952c.154 0 .308.154.308.308l-.308-.308zM27.431 93.596a.331.331 0 01-.308-.308c.154 0 .154.154.308.308zm21.729 53.783c0 .154-.154.308-.154.463 0-.155 0-.309.154-.463zm.154-.308c0 .154 0 .308-.154.462 0-.308 0-.308.154-.462zm21.113-.154c0-.154-.155-.154-.155-.308.155 0 .155.154.155.308zm-45.62.616c0 .149 0 .149 0 0-.148 0-.148 0 0 0zm-.15-.77c.148 0 0 .148 0 0zm30.359-.154c-.154 0-.154-.154-.308-.154.154 0 .154.154.308.154zm-.311-.157c-.148-.148 0 0 0 0zm-.154-.156c-.148-.148 0-.148 0 0zm-.156-.152c-.148-.149-.148 0 0 0zm-29.738 2.16c.148 0 .148 0 0 0 0 .148 0 .148 0 0zm2.466-55.016c0-.154-.155-.154-.155-.308 0 .154.155.154.155.308zm-15.569 17.411c-.149-.148-.149 0 0 0zm57.948.619c.148.149.148.149 0 0zm-.308-.616c0 .154.154.154.154.308-.154-.154-.154-.154-.154-.308zm-28.664-9.709H9.092c-.462 0-1.233.308-1.233-.308 0-.77.77-.462 1.233-.462h62.413c.463 0 1.541-.308 1.541.462 0 .616-.924.308-1.54.308H40.53zm2.62 6.319c0 1.387.154 2.928.154 4.315v1.387c0 .154 0 .462-.308.462a.331.331 0 01-.309-.308v-5.702c.155-.154.309-.154.463-.154zm2.62.462c0-.462.154-.617.616-.308.616.462.925 1.695-.462 2.311 0-.616.616-1.387-.154-2.003zm4.16 40.838v1.233c-.308-.308-.308-.771 0-1.233zm.155 1.695c0 .154 0 .463.154.617-.308-.154-.308-.463-.154-.617zM8.013 146.3c.309.925.155 1.85.155 2.62-.463-.77-.155-1.695-.155-2.62zm63.647-15.564v.924c-.309 0-.463-.308-.617-.616-.154-.308-.462-.616 0-.771.462-.308.308.309.616.463zm0 .924c.462 0 .308.617.77.771 0 .308 0 .616-.308.616-.463 0-.308-.462-.308-.616-.155-.308-.155-.462-.155-.771zm-36.678-18.338c-.154.308-.462.462-.77.308-.309 0-.309-.462-.309-.616v-5.394c0-.308-.154-.617.309-.617.308 0 .462.309.462.617v4.623c0 .308 0 .771.308 1.079zm-26.66 16.489v2.928c0 .154 0 .462-.308.462-.309 0-.463-.308-.463-.462.308-1.849 0-3.698 0-5.548 0-.308-.154-.77.308-.77.463 0 .309.462.309.77.154.925.154 1.85.154 2.62zm4.623-2.003c.154.308.308.462.462.77.154 1.233.154 2.466-.616 3.391-.154.154-.308.308-.463.308-.308-.154-.154-.308-.154-.617.617-.77.77-2.465.309-3.544-.155-.462-.463-.925-1.08-.771 0-.462.309-.616.617-.308.308.154.617.462.925.771zM8.168 87.894c-.308.925-.617 1.85 0 2.774-.308.925-.308 2.003-.154 2.928 0 .308.154.617-.309.617-.462 0-.308-.309-.308-.617v-5.394c0-.308 0-.616.463-.616 0 0 .308-.154.308.308zm49.776 3.39v-2.773c0-.463 0-.925.616-.925.617.154 0 .616.154.77.309 1.696-.154 3.39 0 5.24 0 .308.154.77-.308.617-.462 0-.308-.463-.308-.771-.154-.616-.154-1.387-.154-2.157zm13.87 2.62a.331.331 0 01-.309.309c-.308 0-.308-.309-.308-.463 0-.154.154-.308.308-.308.154.154.309.308.309.462zm-1.234 15.103c.155-.463.155-.771 0-1.233-.153-.308-.153-.462-.308-.771 1.233.617 1.387 1.233.925 2.312-.154.154-.154.308-.462.308-.308-.154-.154-.308-.154-.616zm-41.762.616c0-.154.154-.308.154-.462.308-.617.308-1.079-.154-1.541 0-.154-.154-.462-.154-.617.462 0 .77.155 1.079.463.308.616.462 1.387.154 2.003-.308.308-.463.462-.77.771-.31 0-.31-.309-.31-.617zm29.126-1.387c0 .154 0 .308-.154.463 0-.155 0-.309.154-.463zM69.502 90.36c-.308-.308-.308-.617-.462-1.079.462.154.462.617.462 1.079zm-.312-1.081c-.149-.149-.149 0 0 0zm.466 1.389c0-.154-.154-.154-.154-.308.154.154.154.154.154.308zm-8.168 22.346c.154-.463.463-.771.617-1.233.616-.925.462-2.774-.154-3.699.154-.154.154-.616.462-.308l.616.616c.463 1.387.154 2.774-.308 4.161-.462.154-.616.771-1.233.463z"/><path d="M11.404 127.345c.616 0 .77.463 1.079.771.616 1.079.462 2.774-.309 3.544.463-1.541.463-3.082-.77-4.315zm17.414-19.571c.616.462.462.925.154 1.541 0-.616 0-1.079-.154-1.541zm33.132.308c.771.925.925 2.774.155 3.699.308-1.233.154-2.466-.154-3.699z"/></g><defs><clipPath id="clip0"><path fill="#fff" transform="translate(0 .67)" d="M0 0h80.444v159.5H0z"/></clipPath></defs></svg>