<svg width="160" height="72" fill="none" xmlns="http://www.w3.org/2000/svg"><g clip-path="url(#clip0_1541_867)" fill="#fff"><path d="M11.023 1.724c2.34 0 4.557.963 5.99 2.525l-1.57 1.546c-.956-1.052-2.664-1.845-4.42-1.845-3.343 0-5.94 2.662-5.94 6.2 0 3.698 2.662 6.199 6.15 6.199 2.202 0 3.788-1.214 4.703-2.315l1.659 1.497c-1.408 1.789-3.836 3.027-6.361 3.027-4.889 0-8.49-3.577-8.49-8.417 0-4.726 3.552-8.417 8.28-8.417zm20.881 12.391H25.01l-1.71 4.209h-2.436l6.782-16.365h1.635l6.782 16.365h-2.436l-1.724-4.209zm-5.965-2.226h5.05l-2.524-6.078-2.526 6.078zM42.96 6.305v12.019h-2.339V1.95h1.643l9.817 12.026V1.951h2.34v16.373h-1.636L42.96 6.304zm27.056 7.81h-6.895l-1.708 4.209h-2.428l6.782-16.365h1.635l6.783 16.365h-2.436l-1.733-4.209zm-5.964-2.226h5.05l-2.525-6.078-2.525 6.078zm17.028 4.209h7.244v2.226h-9.583V1.95h2.34v14.147zM1.667 34.688H158.34v2.34H1.667v-2.34zm74.007 31.573h-1.635l-4.791-7.51v11.015h-2.34V53.4h1.635l6.313 9.979 6.313-9.98h1.635v16.366h-2.33V58.75l-4.8 7.511zm22.734-.704h-6.895l-1.708 4.209h-2.428L94.159 53.4h1.635l6.783 16.364h-2.437l-1.732-4.208zm-5.965-2.218h5.05l-2.524-6.078-2.525 6.078zm17.021-1.287v7.714h-2.339V53.4h5.73c1.498 0 2.428.348 3.181.955a4.328 4.328 0 011.611 3.366c0 1.36-.632 2.574-1.611 3.367-.518.421-1.101.72-1.918.866l5.868 7.81h-2.833l-5.819-7.713h-1.87zm3.278-2.225c1.052 0 1.586-.235 1.967-.607.372-.373.607-.915.607-1.498 0-.582-.235-1.125-.607-1.497-.373-.372-.915-.607-1.967-.607h-3.278v4.209h3.278zm18.21-6.661c2.339 0 4.557.963 5.99 2.525l-1.571 1.546c-.955-1.052-2.662-1.846-4.419-1.846-3.342 0-5.94 2.663-5.94 6.2 0 3.699 2.662 6.2 6.151 6.2 2.201 0 3.788-1.214 4.702-2.315l1.659 1.497c-1.4 1.805-3.836 3.043-6.361 3.043-4.889 0-8.49-3.577-8.49-8.417.008-4.742 3.561-8.433 8.279-8.433zm22.945 8.886h-9.121v7.714h-2.339V53.4h2.339v6.426h9.121V53.4h2.331v16.364h-2.331v-7.713z"/></g><defs><clipPath id="clip0_1541_867"><path fill="#fff" d="M0 0h160v71.72H0z"/></clipPath></defs></svg>