<svg width="160" height="75" fill="none" xmlns="http://www.w3.org/2000/svg"><g clip-path="url(#clip0_908_1211)" fill="#fff"><path d="M78.538 66.68c.518 1.967 2.412 3.014 4.729 3.014 3.186 0 4.606-1.844 4.606-3.637 0-2.017-1.393-3.086-3.81-4.01-1.67-.624-2.74-1.148-2.74-2.267 0-1.12.846-1.616 1.972-1.616a2.183 2.183 0 012.116 1.242l1.493-.768a3.805 3.805 0 00-3.637-2.167c-2.228 0-3.788 1.37-3.788 3.309 0 1.938 1.42 2.868 3.415 3.664 1.993.797 3.135 1.243 3.135 2.613 0 .724-.445 1.916-2.785 1.916-1.865 0-2.862-.942-3.163-1.894l-1.543.602zm10.16-3.414c0 3.9 2.589 6.45 6.326 6.45a6.334 6.334 0 005.08-2.228l-1.22-1.192a4.778 4.778 0 01-3.86 1.743c-2.645 0-4.383-1.77-4.483-4.533h10.181v-.797c0-3.464-2.295-6.249-5.781-6.249-3.582 0-6.272 2.64-6.272 6.684l.028.122zm1.965-1.37c.123-2.038 2.016-3.71 4.306-3.71a3.776 3.776 0 013.815 3.71h-8.12zm12.604 9.591l-.947 1.47a9.949 9.949 0 005.949 1.939 6.863 6.863 0 004.233-1.32c1.871-1.47 1.994-3.537 1.994-6.25v-10.48h-1.844v1.865c-.624-1.07-1.988-2.228-4.456-2.228a6.538 6.538 0 000 13.073c2.468 0 3.832-1.17 4.456-2.228v1.041c0 1.37-.15 2.94-1.292 3.899a4.924 4.924 0 01-3.113.919 7.976 7.976 0 01-4.98-1.699zm.424-8.466c0-2.785 1.916-4.834 4.505-4.834a4.825 4.825 0 014.66 4.82 4.825 4.825 0 01-4.66 4.82c-2.589 0-4.505-2.043-4.505-4.806zm12.921 1.838c0 2.819 1.716 4.734 4.506 4.734 2.195 0 3.437-.946 4.01-1.815.063.459.256.89.557 1.242a1.971 1.971 0 001.543.557 2.4 2.4 0 001.17-.2v-1.393c-.215.028-.43.044-.646.05-.697 0-.947-.474-.947-1.57v-9.636h-1.844v7.496c0 2.117-1.42 3.532-3.408 3.532-1.989 0-3.114-1.315-3.114-3.409v-7.603h-1.843l.016 8.015zm13.2 4.534h1.844v-7.307a3.334 3.334 0 01.922-2.507 3.344 3.344 0 012.464-1.03 5.07 5.07 0 011.242.128v-1.994a5.71 5.71 0 00-.768-.05 4.054 4.054 0 00-3.86 2.317v-2.117h-1.844v12.56zm6.745-6.277a6.688 6.688 0 004.099 6.203 6.685 6.685 0 009.137-4.846 6.682 6.682 0 00-6.552-8.002 6.561 6.561 0 00-6.684 6.645zm1.844 0a4.837 4.837 0 015.837-4.629 4.833 4.833 0 011.672 8.755 4.831 4.831 0 01-2.675.809 4.748 4.748 0 01-4.834-4.935zm12.253 3.564c.524 1.967 2.417 3.014 4.734 3.014 3.186 0 4.606-1.844 4.606-3.637 0-2.017-1.398-3.086-3.809-4.01-1.643-.624-2.74-1.148-2.74-2.267 0-1.12.835-1.593 1.949-1.593a2.168 2.168 0 012.116 1.242l1.493-.769a3.788 3.788 0 00-3.609-2.189c-2.228 0-3.787 1.37-3.787 3.309 0 1.938 1.42 2.868 3.414 3.664 1.994.797 3.135 1.243 3.135 2.613 0 .724-.451 1.916-2.784 1.916-1.872 0-2.869-.942-3.164-1.894l-1.554.602zM42.78 9.942a4.562 4.562 0 110-9.123 4.562 4.562 0 010 9.123zm41.49 0a4.54 4.54 0 004.56-4.562 4.595 4.595 0 10-4.56 4.562zM24.216 36.955a9.436 9.436 0 002.885-7.068 9.43 9.43 0 00-2.885-7.062 9.595 9.595 0 00-7-2.825 9.3 9.3 0 00-6.873 2.824 9.787 9.787 0 00-2.701 7.062 9.792 9.792 0 002.7 7.068 9.307 9.307 0 006.874 2.852 9.596 9.596 0 007-2.83v-.022zm10.025 9.975a8.316 8.316 0 01-4.305-1.013 6.367 6.367 0 01-2.646-4.144c-2.227 3.403-5.97 5.068-11.111 5.068a15.366 15.366 0 01-11.552-4.879C1.543 38.692 0 34.705 0 29.887s1.543-8.794 4.628-12.008a15.366 15.366 0 0111.558-4.88c5.201 0 9.123 2.312 10.342 5.392V1.31h7.703l.011 45.621zm12.543-32.716h-7.708v24.507c0 5.458 2.785 8.22 7.708 8.22.073 0 0-32.738 0-32.738v.011zm41.338-.011H80.41v24.506c0 5.459 2.512 8.221 7.458 8.221h.256V14.203zm21.967-1.114a10.198 10.198 0 00-9.335 5.776v-4.651h-7.641v32.688h7.641V27.965c0-4.455 3.019-7.507 7.325-7.507 4.305 0 6.806 2.784 6.806 7.19v10.805c0 5.653 2.506 8.477 7.58 8.477V25.504c0-7.402-5.102-12.42-12.398-12.42l.022.005zm39.862 23.944a9.475 9.475 0 002.891-7.068 9.424 9.424 0 00-.7-3.836 9.424 9.424 0 00-2.191-3.226 9.599 9.599 0 00-7.001-2.83 9.272 9.272 0 00-6.867 2.83 9.77 9.77 0 00-2.701 7.062 9.778 9.778 0 002.723 7.057 9.294 9.294 0 006.868 2.824 9.611 9.611 0 007.001-2.824l-.023.01zM160 46.774a8.352 8.352 0 01-4.305-1.019 5.96 5.96 0 01-2.635-3.899c-2.228 3.403-5.97 5.074-11.139 5.074a15.385 15.385 0 01-11.535-4.895c-3.086-3.275-4.623-7.241-4.623-12.075 0-4.835 1.537-8.8 4.623-12.009a15.384 15.384 0 0111.557-4.879c5.202 0 9.118 2.312 10.343 5.392v-4.696h7.708L160 46.774zM78.41 9.87s-2.824-.034-3.765 0c-2.568.089-4.356 2.228-5.219 4.177-.863 1.95-6.923 21.783-6.923 21.783l-.123.2s-2.785-6.249-3.62-8.137c-.835-1.888-3.047-2.896-5.62-2.985-.941-.034-3.765 0-3.765 0l10.22 22h6.545L78.41 9.87z"/><path d="M159.998 33.998l-.004-20.23h-7.708v4.696c-1.225-3.08-5.141-5.392-10.343-5.392a15.382 15.382 0 00-11.557 4.88c-3.086 3.207-4.623 7.173-4.623 12.007 0 1.42.133 2.765.398 4.04h7.967a9.778 9.778 0 01-.745-4.034 9.76 9.76 0 012.701-7.062 9.273 9.273 0 016.867-2.83 9.6 9.6 0 017.001 2.83 9.424 9.424 0 012.191 3.226 9.424 9.424 0 01.7 3.836 9.484 9.484 0 01-.784 4.034h7.939zm-37.532 0v-8.494c0-7.402-5.102-12.42-12.398-12.42l.022.005a10.198 10.198 0 00-9.335 5.776v-4.651h-7.641v19.785h7.641v-6.034c0-4.455 3.019-7.507 7.325-7.507 4.305 0 6.806 2.784 6.806 7.19v6.35h7.58zm-34.343 0V14.203H80.41v19.796h7.714zm-17.707 0L78.41 9.87s-2.824-.034-3.765 0c-2.568.089-4.356 2.228-5.219 4.177-.702 1.585-4.84 14.995-6.362 19.951h7.352zm-8.941 0a3817.71 3817.71 0 01-2.715-6.105c-.835-1.888-3.047-2.896-5.62-2.985-.941-.034-3.765 0-3.765 0l4.223 9.09h7.877zm-14.659 0c-.007-9.15-.03-19.795-.03-19.795v.011h-7.71v19.785h7.74zm-12.576 0L34.23 1.31h-7.703v17.082C25.308 15.311 21.388 13 16.186 13a15.365 15.365 0 00-11.558 4.879C1.543 21.092 0 25.069 0 29.887c0 1.444.139 2.814.416 4.111h7.989a9.792 9.792 0 01-.763-4.111 9.786 9.786 0 012.7-7.062A9.3 9.3 0 0117.217 20a9.595 9.595 0 017 2.824 9.428 9.428 0 012.886 7.062 9.435 9.435 0 01-.812 4.111h7.95zm6.006-24.825a4.562 4.562 0 105.069-7.585 4.562 4.562 0 00-5.069 7.585zm45.772.427a4.54 4.54 0 01-1.749.342 4.595 4.595 0 114.562-4.562 4.538 4.538 0 01-2.813 4.22z"/></g><defs><clipPath id="clip0_908_1211"><path fill="#fff" transform="translate(0 .752)" d="M0 0h160v74.146H0z"/></clipPath></defs></svg>