<svg width="200" height="69" fill="none" xmlns="http://www.w3.org/2000/svg"><g clip-path="url(#clip0)" fill="#fff"><path d="M12.896 55.532a6.252 6.252 0 01-6.253 6.674 5.688 5.688 0 01-4.298-1.798v1.563H.78V43.73h1.564v7.315a5.72 5.72 0 014.454-1.922 5.986 5.986 0 016.097 6.409zm-1.564 0a4.688 4.688 0 00-4.689-5.034 5.174 5.174 0 00-4.298 2.189v5.924a5.267 5.267 0 004.36 2.157 4.69 4.69 0 004.69-5.174l-.063-.063zm15.288-6.175l-5.737 13.88c-1 2.408-2.47 3.674-4.595 3.674a5.11 5.11 0 01-2.11-.438V64.91c.63.32 1.325.492 2.031.5a3.126 3.126 0 003.127-2.063l.547-1.376-5.362-12.676h1.735l4.377 10.816 4.33-10.816 1.657.062zm14.537 13.099a8.738 8.738 0 01-5.8-2.095v-3.767a9.519 9.519 0 006.065 2.61c1.564 0 3.017-.609 3.017-2.11 0-1.5-1.72-1.938-3.454-2.438-2.83-.797-6.003-1.844-6.003-5.564 0-3.72 3.127-5.487 6.519-5.487a9.1 9.1 0 014.814 1.376v3.423a9.38 9.38 0 00-4.846-1.563c-1.75 0-3.126.75-3.126 2.204 0 1.453 1.657 1.953 3.892 2.579 2.548.688 5.518 1.563 5.518 5.205 0 3.642-3.204 5.627-6.596 5.627zm9.175-17.601a2.109 2.109 0 013.567-1.603 2.11 2.11 0 01-1.44 3.635 1.987 1.987 0 01-2.127-2.032zm.47 17.116V48.888h3.125v13.083h-3.126zm19.163-7.956v7.956h-3.126v-7.674a2.673 2.673 0 00-2.986-2.69 3.345 3.345 0 00-2.798 1.314v9.05H57.93V48.888h3.017v1.204a5.065 5.065 0 013.704-1.47 5.003 5.003 0 015.315 5.393zm16.381-2.172h-3.001a2.657 2.657 0 01.938 2.203c0 3.127-2.876 4.002-4.814 4.393-1.939.39-2.908.312-2.908 1.078s1.11.876 1.954.891h1.329c1.75 0 5.44.22 5.44 3.47 0 2.986-3.127 4.237-6.69 4.237-3.565 0-6.066-1.11-6.066-3.517 0-1.47 1-2.642 3.001-3.033a2.313 2.313 0 01-1.813-2c0-.939.641-1.564 1.563-1.814a4.392 4.392 0 01-2-3.877c0-3.126 2.438-5.033 5.94-5.033h7.08l.047 3.002zM75.404 64.19c0 1.141 1.407 1.563 3.33 1.563 1.922 0 3.517-.328 3.517-1.563 0-1.235-1.36-1.235-3.408-1.235-2.047 0-3.407.016-3.407 1.298l-.032-.063zm5.925-10.223a2.548 2.548 0 00-5.08 0 2.548 2.548 0 005.08 0zm19.023-5.079v13.083h-2.97v-1.203a5.361 5.361 0 01-3.799 1.438 5.081 5.081 0 01-5.267-5.393v-7.925h3.126v7.675a2.767 2.767 0 002.954 2.689 3.626 3.626 0 002.814-1.25v-9.114h3.142zm3.861 13.083V43.73h3.126v18.242h-3.126zm17.069 0h-3.001v-1.766a4.8 4.8 0 01-4.08 2 3.44 3.44 0 01-3.877-3.61c0-3.345 3.33-3.798 6.05-4.502.953-.234 1.782-.484 1.782-1.375s-1.126-1.345-2.314-1.345a7.485 7.485 0 00-4.689 1.704v-2.892a8.395 8.395 0 014.955-1.563c3.22 0 5.189 1.563 5.189 4.252l-.015 9.097zm-3.126-6.096c-.511.198-1.033.365-1.563.5-1.907.516-3.127.798-3.127 2.08 0 .75.438 1.187 1.563 1.187a2.889 2.889 0 002.882-1.717c.16-.365.244-.76.245-1.159v-.89zm14.912-6.94v3.001a6.26 6.26 0 00-1.564-.203 3.753 3.753 0 00-3.235 1.563v8.644h-3.126V48.888h2.876v1.563a4.045 4.045 0 013.564-1.72c.5.02.998.087 1.485.204zm21.711 7.8c0 3.126-2.563 5.236-6.08 5.236h-6.972v-17.96h6.8a4.518 4.518 0 014.955 4.611 4.109 4.109 0 01-1.86 3.69 4.502 4.502 0 013.157 4.423zm-9.754-5.612h2.689c1.407 0 2.392-.766 2.392-2.032s-.876-1.922-2.267-1.922h-2.814v3.954zm6.456 5.315c0-1.36-1.141-2.189-2.751-2.189h-3.705v4.69h3.471c1.797-.125 2.985-1.126 2.985-2.501zm16.444 5.533h-3.017v-1.766a4.8 4.8 0 01-4.08 2 3.437 3.437 0 01-3.876-3.61c0-3.345 3.345-3.798 6.065-4.502.938-.234 1.766-.484 1.766-1.375s-1.125-1.344-2.313-1.344a7.41 7.41 0 00-4.69 1.703v-2.891a8.365 8.365 0 014.955-1.563c3.127 0 5.174 1.563 5.174 4.251l.016 9.097zm-3.126-6.096c-.511.199-1.033.366-1.563.5-1.907.516-3.127.798-3.127 2.08 0 .75.438 1.187 1.563 1.187a2.896 2.896 0 002.882-1.717c.16-.365.244-.76.245-1.159v-.89zm18.945-1.86v7.956h-3.127v-7.674a2.674 2.674 0 00-1.851-2.576 2.675 2.675 0 00-1.118-.113 3.345 3.345 0 00-2.798 1.313v9.05h-3.127V48.889h3.002v1.204a5.057 5.057 0 013.767-1.454 5.004 5.004 0 015.252 5.377zm10.019 1.313l6.253 6.643h-4.111l-5.268-5.69v5.69h-3.126V43.73h3.126v10.63l5.08-5.472h4.08l-6.034 6.44zM11.505 35.649A16.24 16.24 0 01.781 31.725v-7.018a17.664 17.664 0 0011.27 4.877c2.907 0 5.627-1.157 5.627-3.924 0-2.766-3.126-3.626-6.44-4.533C5.987 19.642.062 17.69.062 10.764.063 3.839 5.846.541 12.193.541c3.153.007 6.24.9 8.91 2.58v6.424a17.538 17.538 0 00-9.02-2.876c-3.25 0-5.83 1.39-5.83 4.11 0 3.017 3.127 3.627 7.269 4.784 4.69 1.281 10.254 2.907 10.254 9.691 0 7.003-6.065 10.395-12.27 10.395zm38.874-10.895H33.716c.188 3.204 3.439 5.346 7.394 5.346a15.772 15.772 0 008.597-2.955v5.252a16.131 16.131 0 01-9.379 2.767c-7.581 0-12.505-5.064-12.505-12.692S32.731 9.967 39.656 9.967c6.69 0 10.707 4.58 10.707 11.989l.016 2.798zM33.763 20.36h10.942a4.782 4.782 0 00-5.018-5.205 5.58 5.58 0 00-5.924 5.205zm22.102 14.382V.792h5.878v33.95h-5.878zM85.19 6.278a9.285 9.285 0 00-4.143-1.048c-2.485 0-4.345 1.235-4.345 3.908v1.25h7.346v5.487h-7.346v18.867h-5.893V15.875H65.79V10.39h5.018V9.044c0-5.752 4.392-8.878 9.41-8.878a13.27 13.27 0 015.002 1l-.032 5.112zm28.87 18.71c0 5.69-4.689 9.754-11.317 9.754H89.769V1.307h12.615c5.393 0 9.222 3.251 9.222 8.55a7.666 7.666 0 01-3.439 6.878 8.349 8.349 0 015.893 8.253zM95.928 14.531h5.002c2.626 0 4.439-1.422 4.439-3.767 0-2.345-1.563-3.58-4.189-3.58h-5.252v7.347zm11.974 9.754c0-2.532-2.095-4.064-5.112-4.064h-6.862v8.644h6.456c3.329 0 5.518-1.86 5.518-4.58zm30.605 10.457h-5.58v-3.314a8.94 8.94 0 01-7.597 3.72c-4.767 0-7.206-2.766-7.206-6.737 0-6.252 6.253-7.065 11.27-8.347 1.767-.437 3.298-.906 3.298-2.579 0-1.954-2.11-2.485-4.298-2.485a13.882 13.882 0 00-8.738 3.126v-5.252a15.538 15.538 0 019.207-2.97c5.971 0 9.644 2.97 9.644 7.925v16.913zm-5.861-11.364c-.938.378-1.899.696-2.877.954-3.532.953-5.861 1.47-5.861 3.86 0 1.392.797 2.205 2.907 2.205a5.39 5.39 0 005.831-5.346v-1.673zm35.279-3.438v14.802h-5.877V20.487c0-3.127-2.376-5.002-5.534-5.002a6.253 6.253 0 00-5.205 2.422v16.835h-5.877V10.39h5.596v2.282a9.372 9.372 0 017.018-2.72c5.487-.047 9.879 3.345 9.879 9.988zm18.617 2.422l11.598 12.38h-7.628l-9.801-10.613v10.613h-5.861V.792h5.861v19.694l9.379-10.16h7.644l-11.192 12.036z"/></g><defs><clipPath id="clip0"><path fill="#fff" transform="translate(0 .166)" d="M0 0h200v67.995H0z"/></clipPath></defs></svg>