<svg width="190" height="82" fill="none" xmlns="http://www.w3.org/2000/svg"><path d="M39.118 22.992c-.16-7.824-3.353-12.614-13.891-12.614 0 0-5.908-.16-5.908 0l-.16 16.286c-7.663 1.117-16.285 3.672-17.882 3.991L1.437.64h21.235c13.412 0 22.194.958 28.26 7.185 2.715 2.714 5.27 6.705 5.749 13.89-6.067.32-11.496.48-17.563 1.278zm-.479 3.033c11.017-1.117 18.52-1.596 18.52-1.596 0 6.705-2.714 11.974-6.545 15.168-5.27 4.31-10.538 5.428-24.43 5.428H1.598V33.85c1.916-.48 10.059-3.034 17.722-3.992 0 0-.16 5.748 0 5.748h5.748c5.27-.32 13.412-2.714 13.572-9.58zm136.672 4.471c-5.429-1.437-10.219-3.034-15.009-3.992l9.9-25.706h18.201l-13.092 29.698zm-38.639-7.983L127.252.639h19.799l9.579 24.907c-7.185-1.437-13.411-2.235-19.958-3.033zm21.076 5.907s.798 1.916.958 1.597l.639-1.278c4.949 1.118 9.42 2.874 15.008 4.311l-4.79 11.816h-22.672l-8.782-19.64c6.547.8 12.454 1.757 19.639 3.194zm-49.815-7.504c-6.227-.16-14.37-.32-21.076-.32.16 0 15.647-19.957 15.647-19.957h21.715l-16.286 20.277zm-19.958 2.235c.639 0 13.731 0 21.235.639l17.403 21.076h-22.831L87.975 23.15zm-3.673 0v21.395H66.26V23.95c5.908-.32 11.656-.639 18.042-.799zm0-2.714c-6.546.16-12.294.16-18.201.639V.319h18.201v20.118zm-72.966 38.16c.16-.32.32-.799.16-.799-.958-.798-2.715-1.277-4.152-1.277-2.714 0-5.109 1.756-5.109 4.95 0 5.269 7.824 4.31 7.824 8.621 0 1.757-1.597 2.874-3.513 2.874-1.117 0-2.554-.479-3.672-1.277-.16-.16-.48 0-.639.479l-.16.32c-.319.478-.319.798-.16.957 1.119.799 2.875 1.437 4.95 1.437 3.673 0 5.589-2.075 5.589-5.109 0-5.588-7.824-4.95-7.824-8.622 0-1.277.958-2.554 3.034-2.554 1.277 0 2.235.319 3.033.798.16.16.48 0 .64-.48v-.318zM24.27 61.47c-.798 0-.798 0-.958.319l-.16 1.117c-.638-.957-1.916-1.596-3.353-1.596-3.193 0-5.588 2.714-5.588 7.025 0 3.513 1.597 6.546 5.269 6.546 1.597 0 3.034-.638 3.672-1.756l.16 1.118c0 .16.16.319.958.319h.16c.798 0 .958-.16.958-.32-.16-1.277-.16-2.873-.16-5.268v-7.185c0-.16 0-.32-.958-.32zm-1.277 7.025c0 2.075-.16 2.874-.64 3.353-.638.638-1.596.958-2.394.958-2.555 0-3.353-2.395-3.353-4.63 0-2.875 1.277-4.79 3.513-4.79 1.117 0 2.235.798 2.873 1.596v3.513zm6.705-12.773c-.798 0-1.117.16-1.117.319.16.958.16 4.151.16 6.706v8.302c0 1.278.16 2.076.478 2.555.48.639 1.118.798 1.757.798.32 0 .798-.16 1.117-.16.16 0 .16-.159.16-.798 0-.479 0-.638-.16-.638h-.16c-.798 0-.957-.32-.957-1.278v-8.142c0-3.673 0-6.547-.16-7.345 0-.16-.16-.32-1.118-.32 0 0 .16 0 0 0zm6.227 5.748c-.958 0-.958.16-.958.319v7.504c0 1.916.32 3.353 1.278 4.151.798.799 1.916 1.278 3.193 1.278 1.756 0 3.193-.639 3.992-1.597v1.118c0 .16.16.319.957.319h.16c.958 0 .958-.16.958-.32V61.79c0-.16-.16-.32-.958-.32h-.16c-.798 0-.958.16-.958.32v6.067c0 2.714-.319 3.513-.798 3.992-.639.638-1.756.958-2.714.958s-1.756-.32-2.235-.799c-.48-.638-.639-1.596-.639-3.672V61.79c0-.16-.16-.32-.958-.32h-.16zm22.353-5.748c-.798 0-.958.16-.958.319v5.908c-.638-.48-1.756-.799-2.714-.799-3.992 0-5.908 3.353-5.908 7.025 0 3.992 1.916 6.547 5.27 6.547 1.756 0 3.033-.799 3.672-1.597.319.958.958 1.437 1.756 1.437.479 0 .798 0 1.117-.16.16 0 .16-.16.16-.798v-.16c0-.479-.16-.638-.16-.638-.638 0-.798-.16-.798-1.278V56.202c-.32-.32-.479-.48-1.437-.48zm-.958 12.773c0 2.075-.16 2.874-.638 3.512-.639.639-1.437.799-2.236.799-1.916 0-3.353-1.597-3.353-4.63 0-3.034 1.437-4.95 3.832-4.95.958 0 2.076.32 2.555.958v4.31h-.16zm13.252-6.706c0-.16-.319-.32-1.277-.32s-1.277 0-1.118.32l4.79 12.773c-.958 2.714-1.916 3.672-3.512 3.672-.48 0-.958-.16-1.278-.16-.319-.16-.319 0-.479.64l-.16.319c-.159.479-.159.638.16.798.48.32 1.278.479 1.916.479 1.437 0 2.555-.48 3.673-1.437.798-.798 1.437-2.076 2.075-3.992l4.63-12.932c.16-.32-.16-.32-1.117-.32-.798 0-.958 0-1.118.32l-2.235 6.386c-.479 1.437-.958 2.874-1.277 3.992a37.931 37.931 0 00-1.278-4.152l-2.395-6.386zm19.639 7.664c0-1.437 0-2.714.16-3.353.16-1.118.319-1.437.638-1.757.639-.638 1.437-.957 2.395-.957 2.076 0 3.034 1.596 3.034 4.47 0 2.874-1.437 4.95-4.151 4.95a4.91 4.91 0 01-2.076-.48v-2.873zm-1.277-13.731c-.958 0-1.118.16-1.118.319v17.563c0 .16 0 .16.16.32 1.117.478 2.554.798 4.47.798 4.152 0 6.227-2.715 6.227-7.026 0-1.437-.32-2.714-.798-3.672-.798-1.756-2.235-2.714-4.151-2.714-1.437 0-2.874.639-3.673 1.437v-6.706c.16-.16 0-.32-1.117-.32zm13.731 5.748c-.958 0-.958.16-.958.319v12.454c0 .16 0 .319.958.319h.159c.958 0 .958-.16.958-.32V61.79c0-.16 0-.32-1.117-.32 0 0 .159 0 0 0zm-1.437-3.992c0 .798.638 1.597 1.596 1.597.799 0 1.597-.64 1.597-1.597 0-.958-.639-1.597-1.597-1.597-.958.16-1.596.799-1.596 1.597zm16.445 11.336c.16 0 .16-.16.16-.958 0-1.437-.16-2.874-.798-3.992-.799-1.596-2.236-2.714-4.471-2.714-3.672 0-5.908 2.874-5.908 7.025 0 3.992 2.076 6.547 5.908 6.547 1.597 0 3.193-.32 4.471-1.118.159-.16.159-.32 0-.958l-.16-.32c-.16-.638-.319-.638-.639-.478-1.117.479-2.235.798-3.193.798-1.277 0-2.235-.32-2.874-.958-.798-.639-1.118-1.756-1.277-3.034l8.781.16zm-8.622-1.756c.32-2.555 1.757-3.672 3.513-3.672 2.076 0 3.034 1.915 3.034 3.672h-6.547zm12.614-5.588c-.958 0-.958.16-.958.319v12.455c0 .16.159.319.958.319h.159c.958 0 .958-.16.958-.32v-4.79c0-1.436 0-2.713.16-3.352.16-1.118.319-1.437.639-1.757.638-.638 1.756-.957 2.554-.957 1.118 0 1.916.319 2.236.798.638.638.638 1.596.638 3.672v6.387c0 .16.16.319.958.319h.16c.958 0 .958-.16.958-.32V66.74c0-1.916-.319-3.353-1.277-4.152-.799-.798-1.916-1.277-3.353-1.277-1.437 0-3.034.639-3.992 1.596V61.79c.319-.16.319-.32-.798-.32zm23.47 7.344c.16 0 .16-.16.16-.958 0-1.437-.16-2.874-.798-3.992-.799-1.596-2.236-2.714-4.471-2.714-3.672 0-5.907 2.874-5.907 7.025 0 3.992 2.075 6.547 5.907 6.547 1.597 0 3.193-.32 4.471-1.118.159-.16.159-.32 0-.958l-.16-.32c-.16-.638-.319-.638-.639-.478-1.117.479-2.235.798-3.193.798-1.277 0-2.235-.32-2.874-.958-.798-.639-1.117-1.756-1.277-3.034l8.781.16zm-8.462-1.756c.32-2.555 1.757-3.672 3.513-3.672 2.075 0 3.033 1.915 3.033 3.672h-6.546zm19.32-3.513c.319-.479.319-.798.159-.958-.958-.798-2.235-1.277-3.832-1.277-2.395 0-4.47 1.437-4.47 3.832 0 .958.319 1.756.958 2.395.638.638 1.596.958 2.874 1.277 1.277.32 2.874.639 2.874 2.076s-1.597 1.916-2.715 1.916c-1.117 0-2.235-.48-3.193-.958-.319-.16-.479-.16-.798.479l-.16.319c-.319.479-.319.639-.16.958.958.639 2.395 1.277 3.992 1.277 2.714 0 4.95-1.437 4.95-3.991 0-2.555-2.076-3.353-4.152-3.832-1.117-.32-2.554-.639-2.554-1.916 0-1.278 1.437-1.757 2.395-1.757 1.117 0 1.916.48 2.874 1.118.159.16.319.16.798-.479l.16-.479zm4.949-5.748c-.958 0-.958.16-.958.32v3.353h-1.597c-.159 0-.159.16-.159.798v.16c0 .638 0 .798.159.798h1.597v7.504c0 1.597.16 2.555.958 3.193.479.48 1.277.799 2.395.799.958 0 1.916-.16 2.555-.639.159-.16.159-.32.159-.798l-.159-.32c-.16-.479-.16-.479-.479-.479-.479.16-1.118.32-1.597.32-.639 0-.958-.16-1.277-.48-.32-.319-.32-.957-.32-1.915v-7.345h3.034c.16 0 .16-.16.16-.798 0-.639 0-.798-.16-.798h-3.034v-3.353c-.159-.16-.159-.32-1.277-.32zm16.445 3.673c-.798 0-.798 0-.957.319l-.16.958c-.639-.958-1.756-1.597-3.353-1.597-3.193 0-5.588 2.714-5.588 7.025 0 3.513 1.596 6.547 5.269 6.547 1.596 0 3.033-.639 3.832-1.757l.159 1.118c0 .16.16.32.958.32h.16c.798 0 .958-.16.958-.32-.16-1.277-.16-2.874-.16-5.269v-7.185s-.16-.16-1.118-.16c0 0 .16 0 0 0zm-1.117 7.025c0 2.075-.16 2.874-.639 3.353-.638.638-1.596.958-2.395.958-2.554 0-3.353-2.395-3.353-4.63 0-2.875 1.278-4.79 3.513-4.79 1.118 0 2.235.798 2.874 1.596v3.513zm6.865-7.025c-.958 0-.958.16-.958.319v12.455c0 .16.16.319 1.118.319h.16c.958 0 .958-.16.958-.32v-6.546c0-.798.159-1.596.638-2.075.639-1.118 1.597-2.236 3.353-2.236.16 0 .32-.16.32-.958v-.319c0-.479 0-.638-.16-.638h-.479c-1.277 0-2.555.958-3.513 3.033V61.95c-.319-.32-.479-.48-1.437-.48 0 0 .16 0 0 0z" fill="#fff"/></svg>