<svg width="201" height="86" fill="none" xmlns="http://www.w3.org/2000/svg"><g clip-path="url(#clip0)" fill="#fff"><path d="M5.378 85.682c-.429-.095-.905-.19-1.334-.334-1.762-.619-3-2.238-3.095-4.095V27.919c0-3.237 1.143-6 3.429-8.332C9.473 14.49 14.568 9.348 19.71 4.3 21.949 2.063 24.663.968 27.854.968h53.048c2.761 0 4.761 2 4.761 4.761v53.048c0 3.095-1.143 5.81-3.333 8.048a4563.278 4563.278 0 00-15.143 15.19c-2.19 2.19-4.857 3.429-7.952 3.524-.096 0-.19.048-.286.095-17.905.048-35.714.048-53.571.048zm27.761-17c.238-.19.334-.334.429-.429L49.901 51.92l8.286-8.286c.286-.285.333-.428 0-.714-8.238-8.238-16.476-16.476-24.762-24.667l-.333-.333c.047 16.952.047 33.81.047 50.762zm167.572-3.477h-10.572V42.824c0-1.19-.143-2.334-.714-3.381-1-1.857-2.619-2.714-4.667-2.81-2.619-.095-4.714 1-6.619 2.667-.667.572-.905 1.143-.905 2 .048 7.762 0 15.524 0 23.286v.571h-10.142c-.381 0-.524-.095-.524-.524v-22.19c0-1.333-.286-2.572-1.048-3.62-1.048-1.475-2.524-2.142-4.333-2.237-2.381-.096-4.429.857-6.191 2.333-.619.524-1.19 1.143-1.714 1.714-.143.19-.286.477-.286.715v23.714H142.33V28.395h9.428v4.143c.572-.524 1.095-1.047 1.619-1.524 4.048-3.285 8.619-4.38 13.715-3.333 3.095.667 5.571 2.238 7.428 4.81.048.047.048.095.095.142l.048.048a40.056 40.056 0 001.571-1.381c2.286-1.857 4.858-3.19 7.762-3.714 3.715-.667 7.286-.286 10.524 1.714 2.667 1.667 4.333 4.095 5.191 7.048.381 1.19.523 2.428.762 3.666 0 .096.047.19.095.334.143 8.38.143 16.619.143 24.857zm-64.715-26c-1.285-.62-2.476-1.286-3.714-1.762-3.238-1.286-6.571-2-10.048-1.81-1 .048-1.952.239-2.809.715-1.571.904-1.81 2.619-.524 3.904.857.858 2 1.334 3.143 1.715 2 .666 4 1.238 6 1.857 2.333.714 4.619 1.571 6.619 3.048 2.714 1.952 4.095 4.619 4.143 7.952 0 2.095-.381 4.048-1.524 5.857-1.238 1.905-2.952 3.095-5 3.952-2.095.905-4.333 1.381-6.619 1.524-1.952.096-3.905.19-5.809.096-4.143-.191-8.143-1.096-11.858-3.048-.381-.19-.523-.429-.523-.857V54.11c.142.047.238.095.285.142 2.667 1.667 5.619 2.62 8.667 3.239 2.286.428 4.571.619 6.905.428 1-.095 2.047-.19 3-.619 1.762-.762 2.095-2.524.666-3.81-.762-.714-1.666-1.142-2.666-1.476-2.238-.762-4.524-1.428-6.762-2.19-2.238-.762-4.476-1.62-6.381-3.048-3-2.19-4.238-5.143-4-8.762.143-2.428.905-4.571 2.619-6.333 1.381-1.476 3.095-2.428 5-3.047 2.619-.905 5.333-1.191 8.095-1.143 4.429.047 8.667 1.047 12.714 2.904.381.19.524.381.524.81-.047 2.571 0 5.143 0 7.714-.143 0-.143.143-.143.286z"/></g><defs><clipPath id="clip0"><path fill="#fff" transform="translate(.854 .68)" d="M0 0h200v85.238H0z"/></clipPath></defs></svg>