<svg width="201" height="74" fill="none" xmlns="http://www.w3.org/2000/svg"><g clip-path="url(#clip0)" fill="#fff"><path d="M90.154 42.48c0-2-.8-3.2-3.1-3.2h-2l-.1.1v6.3l.1.1h2c2.3-.1 3.1-1.3 3.1-3.3zm-1.3 0c0 1.5-.5 2.1-1.8 2.1h-.8l-.1-.1v-4.1l.1-.1h.8c1.4 0 1.8.7 1.8 2.2zm7.7 3.1v-.9l-.1-.1h-3.1l-.1-.1v-1.5l.1-.1h2.9l.1-.1v-.9l-.1-.1h-2.9l-.1-.1v-1.3l.1-.1h3.1l.1-.1v-.9l-.1-.1h-4.3l-.1.1v6.3l.1.1 4.4-.1zm10.3-1.6c0-.8-.4-1.4-1.1-1.6v-.1c.6-.2.9-.7.9-1.4 0-1.2-.9-1.7-1.8-1.7h-3l-.1.1v6.3l.1.1h3.1c.9 0 1.9-.5 1.9-1.7zm-1.5-2.9c0 .4-.2.7-.7.7h-1.5l-.1-.1v-1.3l.1-.1h1.5c.5 0 .7.3.7.8zm.2 2.7c0 .6-.3.8-.9.8h-1.5l-.1-.1v-1.5l.1-.1h1.5c.6 0 .9.3.9.9zm8.1 1.8v-.9l-2.1-5.4-.1-.1h-1.2l-.1.1-2.1 5.4v.9l.1.1h.8l.1-.1.5-1.2.2-.1h2.3l.2.1.5 1.2.1.1.8-.1zm-2-2.5l-1.7.1-.1-.1.8-2.2h.1l.9 2.2zm9-1.9c0-1.3-.9-1.9-2.2-1.9h-3l-.1.1v6.3l.1.1h1.1l.1-.1v-2.4l.1-.1h.9l.2.1 1.9 2.4h.7l.1-.1v-.9l-1.2-1.6v-.1c.7-.2 1.3-.8 1.3-1.8zm-1.3 0c0 .6-.4.8-.9.8h-1.8l-.1-.1v-1.5l.1-.1h1.8c.5 0 .9.2.9.9zm5.9 3.5c-1.3 0-1.9-.9-1.9-2.2 0-1.3.6-2.2 1.9-2.2.7 0 1.2.3 1.4.8l.1.1h1.1l.1-.1c-.2-1.2-1.2-1.9-2.7-1.9-2 0-3.1 1.4-3.1 3.3s1.1 3.3 3.1 3.3c1.5 0 2.5-.7 2.7-2l-.1-.1h-1.1l-.1.1c-.2.6-.6.9-1.4.9zm9.1.9v-.9l-.1-.1h-3.1l-.1-.1v-1.5l.1-.1h2.9l.1-.1v-.9l-.1-.1h-2.9l-.1-.1v-1.3l.1-.1h3.1l.1-.1v-.9l-.1-.1h-4.4l-.1.1v6.3l.1.1 4.5-.1zm6.4 0v-.9l-.1-.1h-2.9l-.1-.1v-5.2l-.1-.1h-1.1l-.1.1v6.3l.1.1 4.3-.1zm6-3.1c0 1.3-.6 2.2-1.9 2.2-1.2 0-1.8-.9-1.8-2.2 0-1.3.6-2.2 1.8-2.2 1.2 0 1.9.9 1.9 2.2zm1.3 0c0-1.9-1.2-3.3-3.2-3.3-1.9 0-3.1 1.4-3.1 3.3s1.2 3.3 3.1 3.3c2 0 3.2-1.4 3.2-3.3zm1.8-3.2v6.3l.1.1h1.1l.1-.1v-4.3h.1l2.5 4.3.2.1h1.3l.1-.1v-6.3l-.1-.1h-1.1l-.1.1v4.3h-.1l-2.5-4.3-.2-.1h-1.3l-.1.1zm12.8 6.3v-.9l-2.1-5.4-.1-.1h-1.2l-.1.1-2.1 5.4v.9l.1.1h.8l.1-.1.5-1.2.2-.1h2.3l.2.1.5 1.2.1.1.8-.1zm-2-2.5l-1.7.1-.1-.1.8-2.2h.1l.9 2.2zm-70.5-11.4c0-2-.8-3.2-3.1-3.2h-2l-.1.1v6.3l.1.1h2c2.3-.1 3.1-1.3 3.1-3.3zm-1.3 0c0 1.5-.5 2.1-1.8 2.1h-.8l-.1-.1v-4.1l.1-.1h.8c1.4 0 1.8.7 1.8 2.2zm4.5-1.9v-1.3l-.1-.1h-1.3l-.1.1v1.2l.1.1h.3l.1.1v.1l-.6.9v.2h.6l.2-.1.7-.9.1-.3zm6.5 5v-.9l-2.1-5.4-.1-.1h-1.2l-.1.1-2.1 5.4v.9l.1.1h.8l.1-.1.5-1.2.2-.1h2.3l.2.1.5 1.2.1.1.8-.1zm-1.9-2.5l-1.7.1-.1-.1.8-2.2h.1l.9 2.2zm9-1.9c0-1.3-.9-1.9-2.2-1.9h-3.1l-.1.1v6.3l.1.1h1.1l.1-.1v-2.4l.1-.1h.9l.2.1 1.9 2.4.2.1h.6l.1-.1v-.9l-1.2-1.6v-.1c.6-.3 1.3-.9 1.3-1.9zm-1.3 0c0 .6-.4.8-.9.8h-1.8l-.1-.1v-1.5l.1-.1h1.8c.5 0 .9.2.9.9zm7.8-1v-.9l-.1-.1h-5.2l-.1.1v.9l.1.1h1.9l.1.1v5.2l.1.1h1.1l.1-.1v-5.2l.1-.1 1.9-.1zm7.4 4.5c-1.3 0-1.8-.9-1.8-2.2 0-1.3.6-2.2 1.8-2.2.7 0 1.2.3 1.4.8l.1.1h1.1l.1-.1c-.2-1.2-1.2-1.9-2.7-1.9-2 0-3.1 1.4-3.1 3.3s1.1 3.3 3.1 3.3c1.5 0 2.5-.7 2.7-2l-.1-.1h-1.1l-.1.1c-.2.6-.7.9-1.4.9zm9.2-2.2c0 1.3-.6 2.2-1.9 2.2-1.2 0-1.9-.9-1.9-2.2 0-1.3.6-2.2 1.9-2.2 1.2-.1 1.9.9 1.9 2.2zm1.2 0c0-1.9-1.2-3.3-3.2-3.3-1.9 0-3.1 1.4-3.1 3.3s1.2 3.3 3.1 3.3c2.1 0 3.2-1.4 3.2-3.3zm1.9-3.2v6.3l.1.1h1.1l.1-.1v-4.3h.1l2.5 4.3.2.1h1.3l.1-.1v-6.3l-.1-.1h-1.1l-.1.1v4.3h-.1l-2.5-4.3-.2-.1h-1.3l-.1.1zm12.5.9v-.9l-.1-.1h-5.2l-.1.1v.9l.1.1h1.9l.1.1v5.2l.1.1h1.1l.1-.1v-5.2l.1-.1 1.9-.1zm6.1 5.4v-.9l-.1-.1h-3l-.1-.1v-1.5l.1-.1h2.9l.1-.1v-.9l-.1-.1h-2.9l-.1-.1v-1.2l.1-.1h3.1l.1-.1v-.9l-.1-.1h-4.3l-.1.1v6.3l.1.1 4.3-.2zm9 0v-6.3l-.1-.1h-1.4l-.1.1-1.9 4.5h-.1l-1.9-4.5-.1-.1h-1.3l-.1.1v6.3l.1.1h1.1l.1-.1v-3.6h.1l1.5 3.6.1.1h1l.1-.1 1.5-3.6h.1v3.6l.1.1h1.1l.1-.1zm7.6-4.4c0-1.3-.9-1.9-2.2-1.9h-3.1l-.1.1v6.3l.1.1h1.1l.1-.1v-2.4l.1-.1h1.8c1.3-.1 2.2-.7 2.2-2zm-1.3 0c0 .6-.4.8-.9.8h-1.8l-.1-.1v-1.5l.1-.1h1.8c.5 0 .9.2.9.9zm7.6 1.3c0 1.3-.6 2.2-1.8 2.2-1.2 0-1.9-.9-1.9-2.2 0-1.3.6-2.2 1.9-2.2 1.1-.1 1.8.9 1.8 2.2zm1.3 0c0-1.9-1.2-3.3-3.1-3.3-1.9 0-3.2 1.4-3.2 3.3s1.2 3.3 3.2 3.3c1.9 0 3.1-1.4 3.1-3.3zm7.2-1.3c0-1.3-.9-1.9-2.2-1.9h-3.1l-.1.1v6.3l.1.1h1.1l.1-.1v-2.4l.1-.1h.9l.2.1 1.9 2.4.2.1h.6l.1-.1v-.9l-1.2-1.6v-.1c.6-.3 1.3-.9 1.3-1.9zm-1.3 0c0 .6-.4.8-.9.8h-1.8l-.1-.1v-1.5l.1-.1h1.8c.5 0 .9.2.9.9zm8.2 4.4v-.9l-2.1-5.4-.1-.1h-1.2l-.1.1-2.1 5.4v.9l.1.1h.8l.1-.1.5-1.2.2-.1h2.3l.2.1.5 1.2.1.1.8-.1zm-1.9-2.5l-1.7.1-.1-.1.8-2.2h.1l.9 2.2zm3.6-3.8v6.3l.1.1h1.1l.1-.1v-4.3h.1l2.5 4.3.2.1h1.3l.1-.1v-6.3l-.1-.1h-1.1l-.1.1v4.3h-.1l-2.5-4.3-.2-.1-1.4.1zm8.9 6.3v-6.3l-.1-.1h-1.1l-.1.1v6.3l.1.1 1.2-.1zM91.853 23.981v-6.3l-.1-.1h-1.4l-.1.1-1.9 4.5h-.1l-1.8-4.5-.1-.1h-1.4l-.1.1v6.3l.1.1h1.1l.1-.1v-3.6h.1l1.6 3.6.1.1h1l.1-.1 1.5-3.6h.1v3.6l.1.1 1.1-.1zm7.4-6.3l-1.2-.1-.1.1v3.9c0 .9-.4 1.5-1.3 1.5s-1.3-.6-1.3-1.5v-3.9l-.1-.1h-1.1l-.1.1v3.9c0 1.7.9 2.6 2.6 2.6 1.7 0 2.6-.9 2.6-2.6v-3.9zm7.201 4.5c0-1.3-1-1.8-2.3-2-1.3-.2-1.7-.4-1.7-.9 0-.4.3-.6 1.1-.6 1 0 1.3.3 1.3.8l.1.1h1.1l.1-.1c0-1.1-.7-1.9-2.5-1.9s-2.5.8-2.5 1.8c0 1.3 1 1.8 2.3 1.9 1.3.2 1.7.4 1.7 1s-.5.8-1.3.8c-1.1 0-1.5-.4-1.5-1l-.1-.1h-1.1l-.1.1c0 1.2.8 2.1 2.7 2.1 2-.1 2.7-1 2.7-2zm6.3 1.8v-.9l-.1-.1h-3.1l-.1-.1v-1.5l.1-.1h2.9l.1-.1v-.9l-.1-.1h-2.9l-.1-.1v-1.4l.1-.1h3.1l.1-.1v-.9l-.1-.1h-4.3l-.1.1v6.4l.1.1 4.4-.1zm7.3-6.3l-1.2-.1-.1.1v3.9c0 .9-.4 1.5-1.3 1.5s-1.3-.6-1.3-1.5v-3.9l-.1-.1h-1.1l-.1.1v3.9c0 1.7.9 2.6 2.6 2.6 1.7 0 2.6-.9 2.6-2.6v-3.9zm-55.3 32.4h4.3l.3-.3-2.3-6.1h-.3l-2.3 6.1.3.3zm5.3 3h-6.3l-.5.3-1.3 3.3-.3.2h-2.3l-.3-.2v-2.5l5.8-14.6.3-.2h3.3l.3.2 5.6 14v-52l-.3-.3h-72.8l-.2.1v71.5l.2.3h72.8l.3-.3v-16h-2.3l-.3-.2-1.3-3.3-.4-.3zm-26.7-13.6l.3-.2h8.1c2.5 0 5 1.3 5 4.5 0 1.8-.8 3.3-2.5 3.8v.2c2 .5 3 2 3 4.3 0 3.5-2.5 4.8-5 4.8h-8.6l-.3-.2v-17.2zm-12.8-4.5l-.3.3h-3l-.2-.3v-9.8h-.3l-4 9.8-.3.3h-2.8l-.3-.3-4-9.8h-.3v9.8l-.2.2h-3l-.3-.3v-17.1l.3-.2h3.8l.3.2 5 12.3h.3l5.1-12.3.2-.2h3.8l.3.2-.1 17.2zm18.1 0l-.3.3h-2.3l-.2-.3-1.3-3.3-.5-.2h-6.3l-.5.2-1.3 3.3-.2.3h-2.3l-.3-.3v-2.5l5.8-14.6.3-.2h3.3l.3.2 5.8 14.6v2.5zm10.1.5c-5.6 0-8.6-3.8-8.6-9.1s3-9.1 8.6-9.1c4 0 6.8 2 7.3 5.3l-.2.3h-3l-.2-.3c-.5-1.5-1.8-2.3-3.8-2.3-3.5 0-5 2.5-5 6.1 0 3.6 1.5 6.1 5 6.1 2 0 3.3-.8 3.8-2.5l.2-.3h3l.2.3c-.5 3.5-3.3 5.5-7.3 5.5zm-15.7-7.1l.3-.2-2.3-6.1h-.2l-2.3 6.1.3.2h4.2zm4.1 13.9l-.3.2v3.5l.3.3h4.1c1.5 0 2-1 2-2 0-1.3-.5-2-2-2h-4.1zm0 7l-.3.3v4l.3.2h4.1c1.8 0 2.5-.8 2.5-2.3 0-1.5-.8-2.3-2.5-2.3h-4.1v.1z"/></g><defs><clipPath id="clip0"><path fill="#fff" transform="translate(.854 .68)" d="M0 0h200v73H0z"/></clipPath></defs></svg>