<svg width="161" height="81" fill="none" xmlns="http://www.w3.org/2000/svg"><g clip-path="url(#clip0)" fill-rule="evenodd" clip-rule="evenodd" fill="#fff"><path d="M4.703 44.118h151.241V5.036H4.703v39.082zm151.241 4.26H4.703V76.41h151.241V48.377zM.47.775h159.734v79.867H.47V.776z"/><path d="M96.79 66.108c0-3.168-1.545-4.553-4.82-5.591-1.383-.453-3.087-.852-3.087-1.944 0-.905.559-1.304 1.384-1.304h.48c.931 0 1.65.506 2.156 1.464l.559.08 2.901-1.943.054-.613c-.373-.612-.826-1.198-1.331-1.624-1.092-.958-2.556-1.49-4.366-1.49h-.426c-3.834 0-6.123 2.076-6.123 5.59 0 3.142 1.677 4.366 4.658 5.405 1.864.638 3.275.825 3.275 2.076 0 .825-.56 1.305-1.411 1.305h-.879c-.931 0-1.65-.506-2.156-1.465l-.559-.08-2.902 1.944-.053.586a5.815 5.815 0 001.118 1.437c1.118 1.092 2.689 1.73 4.606 1.73h.852c3.886 0 6.07-2.076 6.07-5.563zm36.898 4.925V53.755l-.319-.293h-4.1l-.24.293v17.278l.24.293h4.1l.319-.293zm-6.602-13.657v-3.621l-.267-.293h-11.633l-.24.293v17.278l.24.293h4.126l.293-.293V64.67l.319-.32h5.644l.266-.239v-3.647l-.266-.267h-5.644l-.319-.319v-1.943l.319-.32h6.869l.293-.24zm17.251 7.827l-.24.24h-1.624l-.266-.24.506-2.21c.399-1.677.586-3.488.586-3.488h.08s.186 1.81.532 3.488l.426 2.21zm6.549 5.75l-5.83-17.278-.24-.186h-3.035l-.293.186-5.857 17.278.267.373h4.312l.24-.187.745-2.13.347-.186h3.354l.373.187.719 2.13.239.186h4.393l.266-.373zm-88.706.026V53.755l-.266-.293h-3.94l-.24.293v4.579c0 2.502.134 4.712.134 4.712h-.08s-.213-.612-.612-1.358l-4.127-7.96-.373-.266h-3.54l-.24.293v17.224l.24.267h4.02l.266-.266v-4.5c0-2.316-.16-4.552-.16-4.552h.106s.213.612.586 1.278l4.153 7.773.32.24h3.487l.267-.24zm-16 0V53.755l-.319-.293h-4.1l-.24.293v17.224l.24.267h4.1l.32-.266zm61.924-4.605c0 .665-.506 1.145-1.358 1.145h-1.943c-.985 0-1.491-.453-1.491-1.145V58.44c0-.585.666-1.198 1.491-1.198h1.943c.799 0 1.358.506 1.358 1.198v7.934zm4.632 0V58.44c0-3.22-2.422-5.297-5.99-5.297h-1.943c-3.568 0-6.043 2.103-6.043 5.297v7.934c0 3.195 2.422 5.298 6.043 5.298h1.943c3.568 0 5.99-2.103 5.99-5.298zm-40.04-1.198l-.24.24h-1.623l-.266-.24.505-2.21c.4-1.65.586-3.46.586-3.46h.08s.186 1.81.532 3.46l.426 2.21zm6.55 5.724l-5.83-17.225-.24-.186H70.14l-.267.186-5.83 17.225.266.372h4.287l.24-.186.745-2.13.346-.186h3.354l.373.186.719 2.13.24.186h4.365l.266-.372zm-40.413.08v-3.621l-.267-.24h-6.868l-.346-.32v-2.182l.346-.32h5.644l.293-.24V60.41l-.293-.266h-5.644l-.346-.32v-1.943l.346-.32h6.868l.267-.239v-3.62l-.267-.293H26.96l-.24.293v17.224l.24.266h11.607l.267-.212zm-14.43-.08l-2.742-7.082.133-.612c1.225-.799 2.024-2.157 2.024-3.887v-.266c0-3.461-2.343-5.591-5.99-5.591h-7.774l-.24.293v17.224l.24.267h4.127l.266-.266v-6.363l.346-.32h1.917l.24.187 2.555 6.549.24.186h4.392l.267-.32zM19.24 59.346c0 .772-.533 1.118-1.385 1.118h-3.061l-.346-.32v-2.236l.346-.32h3.035c.931 0 1.384.426 1.384 1.198v.56h.027zm78.348-36.5H96.23c-2.422 0-3.966-1.41-3.966-3.514v-5.67c0-2.103 1.57-3.514 3.966-3.514h1.358c2.37 0 3.914 1.41 3.914 3.514v.825h-2.69v-.825c0-.666-.532-1.118-1.224-1.118H96.23c-.665 0-1.304.505-1.304 1.118v5.644c0 .692.532 1.091 1.304 1.091h1.358c.719 0 1.225-.452 1.225-1.091v-.799h2.689v.825c0 2.077-1.544 3.514-3.914 3.514zM86.94 10.414l4.02 12.193h-2.902l-.479-1.491-.506-.32H84.73l-.479.32-.505 1.49h-2.85l4.02-12.192h2.024zm-.266 8.093l-.16.186h-1.145l-.186-.186.346-1.57c.266-1.199.4-2.477.4-2.477h.053s.133 1.305.373 2.476l.319 1.571zm27.208 4.366h-1.358c-2.422 0-3.967-1.41-3.967-3.514v-5.67c0-2.104 1.571-3.515 3.967-3.515h1.358c2.369 0 3.913 1.411 3.913 3.514v5.67c0 2.104-1.544 3.515-3.913 3.515zm.958-3.54c0 .479-.346.825-.958.825h-1.358c-.692 0-1.038-.32-1.038-.826v-5.67c0-.426.479-.852 1.038-.852h1.358c.559 0 .958.372.958.852v5.67zm21.751-8.92l4.02 12.194h-2.902l-.479-1.491-.506-.32h-2.343l-.479.32-.506 1.49h-2.849l4.02-12.192h2.024zm-.266 8.094l-.187.186h-1.118l-.186-.186.346-1.57c.266-1.199.399-2.477.399-2.477h.053s.133 1.305.373 2.476l.32 1.571zm-29.897-8.093v12.193h-2.716V10.414h2.716zm44.166 9.77v2.423h-7.933V10.414h2.715v9.397l.373.373h4.845zm-71.587-9.77v12.193H76.69l-3.807-6.656v6.656h-2.636V10.414h2.37l3.913 6.842v-6.842h2.476zm-45.844 0v8.945c0 2.103-1.544 3.514-3.913 3.514h-1.36c-2.423 0-3.94-1.41-3.94-3.514v-8.945h2.635v8.945c0 .692.48 1.091 1.305 1.091h1.358c.798 0 1.25-.425 1.25-1.091v-8.945h2.663zM60.93 22.846h-1.358c-2.422 0-3.966-1.41-3.966-3.514v-5.67c0-2.103 1.57-3.514 3.966-3.514h1.358c2.37 0 3.914 1.41 3.914 3.514v5.67c0 2.103-1.544 3.514-3.914 3.514zm.959-3.514c0 .48-.346.826-.959.826h-1.358c-.692 0-1.038-.32-1.038-.826v-5.67c0-.426.48-.852 1.038-.852h1.358c.56 0 .959.372.959.852v5.67zm-20.526-5.59c-.373-.746-.932-1.172-1.73-1.172h-.32c-.692 0-1.251.373-1.251 1.198 0 .56.426.905.852 1.118l.745.293.745.24c2.21.719 3.195 1.65 3.195 3.727 0 2.316-1.384 3.7-3.993 3.7h-.613c-1.277 0-2.29-.425-3.034-1.144l-.746-.985-.027-.08 2.024-1.385c.399.72.958 1.172 1.73 1.172h.612c.72 0 1.252-.453 1.252-1.198 0-.586-.346-.932-.799-1.172l-.745-.292-.906-.293c-2.05-.72-3.088-1.544-3.088-3.62 0-2.344 1.491-3.728 4.02-3.728h.293c1.198 0 2.183.373 2.875 1.012l.879 1.118.053.08-2.023 1.41zM21.13 10.414v12.193H18.6v-6.523l-1.97 4.979-.08.026h-1.89l-.08-.026-1.943-5.005v6.522h-2.582V10.387h2.769l2.848 7.135 2.716-7.135 2.742.027zm107.927 0v12.193h-2.317l-3.806-6.656v6.656h-2.636V10.414h2.369l3.914 6.842v-6.842h2.476zm-75.208 9.77v2.423h-7.934V10.414h7.934v2.422h-4.872l-.346.32v1.757l.372.293h4.02v2.422h-4.02l-.346.293v1.97l.373.267h4.819v.026zm60.165 6.363l4.02 12.193h-2.902l-.479-1.464-.506-.32h-2.343l-.479.32-.506 1.49h-2.848l4.02-12.192h2.023v-.027zm-.266 8.12l-.187.186h-1.118l-.186-.186.346-1.571c.266-1.198.399-2.476.399-2.476h.054s.133 1.305.372 2.476l.32 1.57zm14.296-.906l1.864 4.979h-2.849l-1.784-4.659-.426-.32h-1.357l-.506.506v4.473h-2.716V26.547h5.351c2.423 0 3.914 1.41 3.914 3.727v.186c0 1.172-.533 2.05-1.305 2.556l-.186.745zm-1.651-3.274c0 .532-.372.799-.985.799h-2.129l-.24-.213v-1.598l.24-.213h2.129c.639 0 .985.293.985.852v.373zm-38.096 4.739c0 .426-.426.825-.985.825h-2.13l-.24-.213v-6.363l.24-.213h2.13c.532 0 .985.453.985.852v5.112zm-6.336-8.68h5.35c2.423 0 3.914 1.412 3.914 3.728v4.792c0 2.29-1.49 3.674-3.913 3.674H81.96V26.547zm-51.967 9.771v2.423h-7.933V26.547h7.933v2.422h-4.872l-.346.32v1.757l.373.293h3.993v2.422h-4.02l-.346.293v1.97l.373.267h4.845v.026zm32.852-2.556l1.864 4.979h-2.85l-1.783-4.659-.426-.32h-1.49l-.373.347v4.632h-2.716V26.547h5.351c2.423 0 3.914 1.41 3.914 3.727v.186c0 1.172-.533 2.05-1.305 2.556l-.186.745zm-1.464-3.274c0 .532-.373.799-.985.799h-2.45l-.24-.213v-1.598l.24-.213h2.45c.639 0 .985.293.985.852v.373zM72.084 38.9h-1.358c-2.422 0-3.967-1.411-3.967-3.514v-5.671c0-2.103 1.571-3.514 3.967-3.514h1.358c2.37 0 3.913 1.41 3.913 3.514v5.67c0 2.104-1.544 3.515-3.913 3.515zm.932-3.514c0 .479-.346.825-.959.825H70.7c-.692 0-1.038-.32-1.038-.825v-5.671c0-.426.48-.852 1.038-.852h1.358c.56 0 .959.373.959.852v5.67zm-20.42-8.84v2.424h-2.449l-.373.266v9.504h-2.688v-9.478l-.373-.293h-2.476v-2.422h8.36zM15.405 38.9h-1.358c-2.422 0-3.966-1.411-3.966-3.514v-5.671c0-2.103 1.57-3.514 3.966-3.514h1.358c2.37 0 3.914 1.41 3.914 3.514v.825h-2.69v-.825c0-.666-.532-1.118-1.224-1.118h-1.358c-.665 0-1.304.506-1.304 1.118v5.67c0 .693.506 1.092 1.304 1.092h1.358c.719 0 1.225-.426 1.225-1.091v-.826h2.689v.825c0 2.104-1.545 3.515-3.914 3.515zm26.356-12.353V38.74h-2.316l-3.807-6.656v6.656h-2.636V26.547h2.37l3.913 6.842v-6.842h2.476zm108.832 9.77v2.423h-7.933V26.547h7.933v2.422h-4.872l-.346.32v1.757l.373.293h3.993v2.422h-4.02l-.346.293v1.97l.373.267h4.845v.026zm-48.373 0v2.423h-7.933V26.547h7.933v2.422h-4.872l-.346.32v1.757l.373.293h3.967v2.422h-4.02l-.346.293v1.97l.372.267h4.872v.026zm37.564-9.77v2.422h-2.449l-.373.267v9.504h-2.688v-9.478l-.373-.293h-2.476v-2.422h8.359z"/></g><defs><clipPath id="clip0"><path fill="#fff" transform="translate(.443 .67)" d="M0 0h160v80.133H0z"/></clipPath></defs></svg>