<svg width="190" height="72" fill="none" xmlns="http://www.w3.org/2000/svg"><g clip-path="url(#clip0)" fill-rule="evenodd" clip-rule="evenodd" fill="#fff"><path d="M102.125 38.835V50.92c0 3.858-2.5 5.358-5.175 5.358-2.942 0-5.067-1.875-5.067-4.992v-12.45h-5.108V51.17c0 6.683 4.3 9.625 10.25 9.625 5.583 0 10.208-2.5 10.208-9.659v-12.3h-5.108zm13.408 7.009h-4.366v14.658h4.366V51.06c1.142-1.8 1.95-2.425 3.009-2.425 1.25 0 2.166.884 2.166 2.942v8.925h4.334V51.21c0-4.333-2.867-5.616-5.034-5.616-1.766 0-3.125.7-4.483 2.35l.008-2.1zm17.55 0h-4.333v14.658h4.333V45.844zm15.792 10.65c-1.95.775-2.867 1.025-3.925 1.025-2.458 0-4.117-1.725-4.117-4.334 0-2.575 1.65-4.225 4.3-4.225 1.067 0 2.392.367 3.525.992v-3.417c-1.433-.591-3.233-.958-4.666-.958-4.559 0-7.825 3.158-7.825 7.642 0 4.558 3.158 7.566 8.008 7.566 1.467 0 2.933-.333 4.7-.991v-3.3zm17.042.375c-1.025.766-1.359.841-1.65.841-.475 0-.734-.291-.734-1.025v-6.65c0-3.233-2.35-4.441-5.841-4.441-2.2 0-4.225.591-6.025 1.766v3.75c1.391-1.508 3.375-2.458 5.108-2.458 1.908 0 2.5 1.1 2.425 2.458-5.8 1.909-8.225 2.609-8.225 6.1 0 1.834 1.65 3.6 3.858 3.6 1.509 0 2.9-.475 4.55-1.65.334 1.175.992 1.65 2.459 1.65 1.141 0 2.866-.591 4.075-1.358v-2.583zm-6.717.066c-.733.7-1.617 1.1-2.425 1.1-.767 0-1.392-.7-1.392-1.541 0-1.467 1.209-2.092 3.817-3.084v3.525zm13.033-11.091h-4.375v13.958c0 2.392-.658 3.567-2.241 3.817l1.391 4.183c2.2-.217 5.217-1.908 5.217-6.908v-15.05h.008zm17.742 11.025c-1.025.766-1.358.841-1.65.841-.475 0-.733-.291-.733-1.025v-6.65c0-3.233-2.35-4.441-5.842-4.441-2.2 0-4.225.591-6.025 1.766v3.75c1.392-1.508 3.375-2.458 5.108-2.458 1.909 0 2.5 1.1 2.425 2.458-5.8 1.909-8.225 2.609-8.225 6.1 0 1.834 1.65 3.6 3.859 3.6 1.508 0 2.9-.475 4.55-1.65.333 1.175.991 1.65 2.458 1.65 1.142 0 2.867-.591 4.075-1.358v-2.583zm-6.725.066c-.733.7-1.617 1.1-2.425 1.1-.775 0-1.392-.7-1.392-1.541 0-1.467 1.209-2.092 3.817-3.084v3.525zM.317 68.469H189.5v2.683H.317v-2.683zm46.275-5.875A12717.48 12717.48 0 00.025 24.328S5.9 15.436 15.484 9.269l31.108 53.325zm-2.167-7.233C31.534 33.769 16.884 8.678 16.884 8.678S25.4 3.244 33.592 1.844l10.833 53.517zm.367-6.242c-3.967-19.725-9.075-47.525-9.075-47.525S42.625.27 50.26 1.261l-5.467 47.858zm2.5-6.066a1883.824 1883.824 0 004.742-41.609s6.908.659 11.425 3.2c-.009 0-5.775 13.659-16.167 38.409zm3.45-3.484C60.367 17.278 65.325 5.228 65.325 5.228s4.259 1.175 8.592 4.85L50.742 39.569zm4.15-2.758C71.934 15.328 75.06 10.886 75.06 10.886s1.466.258 5.583 4.775l-25.75 21.15zm3.6-.767C79.06 19.478 82 17.278 82 17.278s2.567 2.425 3.817 4.7L58.492 36.044zm7.458-1.841c14.1-7.275 21.042-10.467 21.042-10.467s.767.775 1.65 2.867l-22.692 7.6zm4.3.116c19.425-5.95 18.875-5.983 18.875-5.983s.775 1.358.775 2.35l-19.65 3.633zm55.709 4.033a3.947 3.947 0 013.933-3.967h.033a3.966 3.966 0 013.967 3.967c0 2.167-1.8 3.967-3.967 3.967a3.97 3.97 0 01-3.966-3.967zm39.633.15c0-2.275 1.833-4.117 4.075-4.117 2.266-.008 4.108 1.834 4.116 4.1v.017c0 2.242-1.833 4.075-4.116 4.075a4.086 4.086 0 01-4.075-4.075z"/></g><defs><clipPath id="clip0"><path fill="#fff" transform="translate(0 .835)" d="M0 0h190v70.333H0z"/></clipPath></defs></svg>