<svg width="200" height="48" fill="none" xmlns="http://www.w3.org/2000/svg"><g clip-path="url(#clip0)" fill="#fff"><path d="M7.273 11.373v12.02h.1c1.617-2.221 3.637-3.232 6.364-3.232 5.05 0 7.475 3.435 7.475 8.485v12.425h-7.07V30.667c0-2.324-.304-4.849-3.233-4.849-2.828 0-3.737 2.424-3.737 4.848v10.405H.102V11.374h7.17zM38.687 27.94c-.303-1.92-2.121-3.233-4.04-3.233-2.02 0-3.738 1.11-4.243 3.232h8.283zm6.666 4.14H30.404c0 2.93 1.515 4.546 4.444 4.546 1.516 0 2.627-.505 3.435-1.818h6.868c-1.11 4.747-5.656 6.97-10.202 6.97-6.666 0-11.616-3.839-11.616-10.808 0-6.768 4.546-10.809 11.111-10.809 6.97 0 10.91 4.344 10.91 11.212v.708zm2.021 8.99h7.07V11.374h-7.07v29.698m20.606-9.901l4.747-10.404h7.98L70.303 41.07h-4.646L55.152 20.767h7.98l4.848 10.404zm26.364-3.231c-.304-1.92-2.122-3.233-4.04-3.233-2.021 0-3.738 1.11-4.243 3.232h8.282zm6.565 4.14h-14.95c0 2.93 1.516 4.546 4.445 4.546 1.515 0 2.626-.505 3.434-1.818h6.869c-1.111 4.747-5.656 6.97-10.202 6.97-6.667 0-11.616-3.839-11.616-10.808 0-6.768 4.545-10.809 11.111-10.809 6.97 0 10.909 4.344 10.909 11.212v.708zm10.505 8.99h-7.07V26.727h-2.324v-5.96h2.324v-6.06h7.07v6.06h4.041v5.96h-4.041V41.07m12.424 0h-7.07V20.767h7.07V41.07zm.505-26.666c0 2.222-1.818 4.04-3.939 4.04-2.222 0-3.939-1.818-3.939-4.04 0-2.223 1.818-4.04 3.939-4.04s3.939 1.817 3.939 4.04zm8.889 16.566c0 2.525 1.717 4.545 4.546 4.545 2.929 0 4.545-2.02 4.545-4.546 0-2.525-1.717-4.545-4.545-4.545-2.829-.101-4.546 2.02-4.546 4.546zm16.061 10.1h-7.071v-2.222h-.101c-1.212 2.02-3.737 2.93-6.061 2.93-5.959 0-10.101-5.051-10.101-10.808 0-5.758 4.142-10.809 10-10.809 2.324 0 4.748.91 6.162 2.627v-2.02h7.071V41.07m17.172-6.97l7.979-2.12 1.718-4.04-3.536-8.284-.808 2.02-5.353 12.425zm17.878-25.959L180.909.565l-8.081 1.819 3.233 7.676 8.181-1.919zm-12.323 10.303l.101-.303 3.233-7.474-3.233-7.273-12.626 29.899 5.758 1.01 6.767-15.859z"/><path d="M175.253 10.666l-.202-.404-2.93-6.97-.101.102 3.233 7.272zm-.708 22.424l-6.565 1.617 11.717 2.121-1.212-3.03-3.94-.707zm-9.292 2.324l-2.223-.404h.101l-4.242-.808-2.626 6.464 27.272 4.95-3.232-7.576-15.05-2.626z"/><path d="M163.232 34.909l-4.343-.707 4.242.808.101-.101zm-.101.101h-.101l2.223.404-.102-.101-2.02-.303z"/><path d="M165.757 35.414l-.303-.101-.202.101 15.051 2.626v-.1l-14.546-2.526z"/><path d="M165.252 35.414l.202-.101h-.303l.101.101zm-.1-.101l-1.92-.404-.101.1 2.021.304zm.303 0l.303.101-.303-.101zm11.01-24.243l2.02 4.647 13.434 31.313 7.98-2.323L184.646 9.15l-4.04.91-4.141 1.01z"/><path d="M180.606 10.06l4.04-.909-4.04.91zm-7.475 8.283l4.041 9.495v.101l3.939 9.091 1.515 3.636 2.223 5.152 5.959 1.111-8.99-21.01-6.06-13.838-2.627 6.262z"/><path d="M177.172 27.94v-.102l-4.041-9.495-.101.101 4.142 9.495zm-1.414-15.86v-.1l-2.728 6.262.101.101 2.627-6.262z"/><path d="M173.03 18.444l.101-.1-.101-.102v.202zm8.081 18.586l1.515 3.636-1.515-3.636zm9.697 9.9l-8.99-21.011 8.99 21.01z"/></g><defs><clipPath id="clip0"><path fill="#fff" transform="translate(0 .161)" d="M0 0h200v47.475H0z"/></clipPath></defs></svg>