<svg width="73" height="87" fill="none" xmlns="http://www.w3.org/2000/svg"><g clip-path="url(#clip0)"><path fill-rule="evenodd" clip-rule="evenodd" d="M72.805.341H-.057v85.602h72.862V.34zM19.108 41.777V42.8l-8.622-6.807v-.63l8.622-6.809v1.024l-7.723 6.1 7.723 6.098zm34.53 0V42.8l8.624-6.807v-.63l-8.624-6.809v1.024l7.725 6.1-7.725 6.098zM24.29 14.544v19.374h5.333V14.544H24.29zm18.066 4.838a17.05 17.05 0 013.69 1.493l2.53-4.398a39.444 39.444 0 00-1.625-.696 23.578 23.578 0 00-1.944-.681 19.831 19.831 0 00-2.154-.512 12.747 12.747 0 00-2.289-.206 10.647 10.647 0 00-3.027.425 8.185 8.185 0 00-2.541 1.23 5.834 5.834 0 00-2.41 4.885c-.012.642.095 1.28.316 1.883a4.05 4.05 0 00.98 1.465 6.667 6.667 0 001.685 1.146c.788.378 1.604.691 2.442.94a39.6 39.6 0 001.82.519c.574.146 1.082.293 1.523.44.372.11.723.281 1.04.505a.854.854 0 01.376.696.7.7 0 01-.377.614c-.25.154-.699.231-1.34.231a9.57 9.57 0 01-2.486-.327 16.84 16.84 0 01-2.184-.732 18.113 18.113 0 01-2.203-1.065l-2.53 4.666c.673.36 1.374.67 2.094.928 1.554.561 3.165.954 4.804 1.172.8.108 1.603.164 2.409.164a14.019 14.019 0 002.938-.314 8.329 8.329 0 002.62-1.025 5.477 5.477 0 001.868-1.905c.473-.788.708-1.765.708-2.93a5.384 5.384 0 00-.452-2.331 4.497 4.497 0 00-1.295-1.624 8.477 8.477 0 00-2.033-1.16c-.87-.353-1.76-.654-2.666-.901a67.403 67.403 0 00-1.672-.463 10.55 10.55 0 01-1.25-.396 2.631 2.631 0 01-.784-.45.811.811 0 01-.27-.628.756.756 0 01.467-.733 2.992 2.992 0 011.25-.218 7.172 7.172 0 011.972.293zM24.29 38.15v19.374h6.91a11.095 11.095 0 004.022-.696 8.903 8.903 0 003.085-1.965 8.65 8.65 0 001.983-3.056c.48-1.278.716-2.633.697-3.997a11.046 11.046 0 00-.63-3.752 8.52 8.52 0 00-4.923-5.144c-1.224-.509-2.637-.764-4.24-.764H24.29zm10.98 7.609a6.56 6.56 0 01.302 2.051 6.767 6.767 0 01-.294 2.017 4.72 4.72 0 01-.847 1.612 3.894 3.894 0 01-1.383 1.064 4.34 4.34 0 01-1.853.382h-1.572V42.791h1.572a4.446 4.446 0 011.833.36 3.891 3.891 0 011.38 1.025c.39.466.683 1.004.863 1.583zm7.822-7.609v19.374h5.333V38.15h-5.333zm-32.784 28.9v4.634l1.651-.001c.32.004.637-.052.936-.167a1.995 1.995 0 001.167-1.203c.112-.306.166-.63.162-.955 0-.305-.049-.608-.147-.897a2.097 2.097 0 00-.429-.733 2.022 2.022 0 00-.706-.495 2.468 2.468 0 00-.986-.183h-1.648zm3.066 1.638c.069.218.104.444.1.673.005.225-.026.45-.09.665a1.537 1.537 0 01-.294.532 1.34 1.34 0 01-.477.353 1.584 1.584 0 01-.652.127h-.916v-3.342h.915c.22-.004.44.038.642.125a1.375 1.375 0 01.771.867zm1.805-1.638v4.634h.734V67.05h-.734zm4.594 4.506a1.84 1.84 0 00.613-.446l.003.579h.615v-2.344h-1.598v.54h.975v.497a1.993 1.993 0 01-.618.515c-.21.107-.442.163-.677.163a1.347 1.347 0 01-.595-.133 1.49 1.49 0 01-.474-.364 1.652 1.652 0 01-.315-.534 2.026 2.026 0 01-.013-1.298 1.66 1.66 0 01.294-.54 1.43 1.43 0 01.458-.37c.184-.097.388-.147.595-.147.257-.003.51.063.734.19.228.131.411.329.525.566l.562-.403a1.802 1.802 0 00-.681-.732 2.301 2.301 0 00-2.002-.091c-.265.12-.503.292-.7.505a2.465 2.465 0 00-.461 2.539c.106.28.262.536.462.758.194.216.43.392.693.519.27.128.565.194.863.191a1.84 1.84 0 00.742-.16zm2.3-4.506v4.634h.735V67.05h-.735zm3.747.648h1.546v-.646H23.53v.646h1.556v3.988h.734v-3.988zm3.738-.648h-.641l-1.845 4.634h.778l.485-1.26h1.792l.49 1.26h.773l-1.832-4.634zm-.321.843l.746 1.99h-1.517l.77-1.99zm2.858-.843v4.634h3.232v-.646H32.83V67.05h-.735zm7.694.648h1.545v-.646h-3.835v.646h1.555v3.988h.735v-3.988zm3.742-.648h-.642l-1.85 4.634h.778l.485-1.26H44.1l.49 1.26h.773l-1.832-4.634zm-.32.843l.745 1.99h-1.518l.773-1.99zm2.853-.843v4.634h3.231v-.646h-2.497V67.05h-.734zm7.122 4.634v-.646l-2.453.002v-1.417h2.074v-.607h-2.074v-1.318h2.394v-.648H50v4.634h3.186zm1.617 0V68.42l2.628 3.264h.6v-4.628h-.735v3.336L54.64 67.05h-.571v4.634h.734zm6.256-3.986h1.544v-.646h-3.834v.646h1.555v3.988h.735v-3.988z" fill="#fff"/></g><defs><clipPath id="clip0"><path fill="#fff" transform="translate(0 .302)" d="M0 0h72.853v85.71H0z"/></clipPath></defs></svg>