<svg width="200" height="45" fill="none" xmlns="http://www.w3.org/2000/svg"><g clip-path="url(#clip0)" fill="#fff"><path d="M24.208 33.366c4.645 1.093 9.29 2.24 13.88 3.333-.547-1.53-1.367-2.787-1.312-3.989 0-1.257.601-2.678 1.311-3.77 1.64-2.678 4.099-4.481 7.104-5.465 1.967-.656 3.935-.82 5.52.437a113.84 113.84 0 013.497-1.093c.109.11.164.219.273.328-2.077 3.661-4.208 7.377-6.284 11.038l.382.383c1.203-.929 2.35-1.858 3.607-2.842.874.383 1.202.875.273 1.585-1.202.984-2.404 2.077-3.77 2.842-1.585.874-2.46.382-3.115-1.367-.328.164-.71.274-.984.547-4.098 3.497-8.907 3.497-13.825 2.842-2.95-.383-5.902-1.039-8.743-2.022-2.95-.984-5.792-.984-8.798-.71-3.115.272-6.284.054-9.453-.055-.71 0-1.476-.164-2.022-.602-.71-.546-1.694-1.42-1.64-2.076 0-.71 1.039-1.913 1.749-1.967 3.06-.328 6.175-.601 9.235-.328 3.06.273 6.066 1.202 9.126 1.748.71.11 1.639.055 2.295-.273 3.06-1.42 5.136-3.934 7.104-6.885-1.913 1.038-3.607 2.022-5.356 2.842-3.06 1.42-6.23 1.967-9.563 1.311-2.076-.437-3.88-1.366-5.3-3.005-.219-.219-.164-.656-.219-.984.328 0 .71-.055 1.039 0 .273.055.492.273.71.437 3.607 3.279 7.814 3.279 11.913 1.53 4.863-2.076 9.125-4.918 11.803-9.781 2.841-5.191 6.23-10 10.82-13.825 1.255-1.04 2.677-1.858 4.153-2.57.546-.273 1.694-.109 2.076.274.383.382.383 1.53.11 2.076-.711 1.42-1.53 2.95-2.624 4.098-3.169 3.443-6.557 6.667-9.836 10a8.715 8.715 0 00-1.366 1.804c-1.202 2.076-2.295 4.207-3.606 6.175-2.077 3.169-4.973 5.464-8.525 6.885-.546.218-1.038.492-1.585.71-.054.055-.054.219-.054.383zm17.54 1.366a45.793 45.793 0 002.405-1.038c2.732-1.257 3.77-3.935 5.137-6.34.328-.546.6-1.584.382-1.802-.6-.492-1.53-.93-2.295-.93-3.388.165-7.705 4.481-8.033 7.815-.109 1.42.656 2.295 2.405 2.295zm8.744-32.787c-5.3 2.623-7.65 7.65-10.492 12.896 3.88-2.568 10.273-10.218 10.492-12.896zM14.208 33.912C10.6 32.82 7.049 31.398 3.224 31.781c-.656.055-1.202.656-1.858.984.547.382 1.038.983 1.64 1.093 3.715.82 7.431.655 11.202.054zm155.683.82c1.311-.929 2.677-1.803 4.098-2.787.273.219.601.492 1.093.874 5.246-9.726 10.437-19.29 15.628-28.907l-.273-.273c-.874.601-1.694 1.202-2.677 1.858-.274-.328-.601-.656-1.039-1.093 1.312-.929 2.405-1.967 3.716-2.568.82-.383 1.913-.273 2.896-.383-.054.984.164 2.077-.218 2.842-1.476 3.005-3.115 5.847-4.7 8.798-3.606 6.612-7.213 13.224-10.765 19.781-.273.437-.437.929-.546 1.53 2.131-.765 4.098-1.64 5.082-3.825 1.803-4.044 4.918-6.448 9.071-7.541 1.639-.437 3.279-.328 4.481.71 1.257-.437 2.404-.765 3.552-1.147.109.11.164.218.273.273-2.131 3.716-4.208 7.432-6.339 11.148.164.109.273.273.437.382 1.148-.929 2.295-1.858 3.607-2.896.273.219.601.437 1.257.984-1.694 1.256-3.115 2.513-4.754 3.497-1.585.929-2.459.437-3.061-1.148-1.639.492-3.224 1.202-4.918 1.476-1.967.328-3.333-.71-4.043-2.569-1.312.82-2.459 1.749-3.825 2.295-.875.328-2.132.438-2.897.055-.491-.273-.491-1.585-.765-2.459-.164.11-.546.383-.929.656-.655.492-1.311.983-2.021 1.366-1.257.656-2.678 1.585-3.935.382-1.202-1.093-.273-2.459.328-3.606 4.863-9.071 9.781-18.142 14.645-27.159.218-.437.437-.929.437-1.639-.82.601-1.585 1.202-2.568 1.858a14.14 14.14 0 01-.984-.874c.164-.219.219-.383.328-.437 1.421-.984 2.841-1.968 4.371-2.842.438-.219 1.367-.219 1.64.11.382.382.546 1.201.382 1.748-.164.82-.655 1.585-1.093 2.35-4.918 9.016-9.836 18.087-14.754 27.104-.273.546-.546 1.147-.819 1.693.328.164.491.274.601.383zm14.645-2.35c-.11 1.585.874 2.514 2.459 2.077 1.038-.274 2.021-.82 2.95-1.312 2.405-1.311 3.224-3.88 4.536-6.01.984-1.585.328-2.624-1.639-2.624-3.388 0-8.142 4.481-8.306 7.87zM98.197 7.792C93.224 6.59 88.525 5.17 83.716 5.934c-7.213 1.148-12.568 5.3-15.956 11.749-1.148 2.186-1.476 4.645.054 6.994.219.328-.054.984-.109 1.585-2.131-1.257-2.95-3.661-2.076-6.557 1.857-6.12 5.792-10.547 11.42-13.443 6.12-3.115 12.678-3.333 19.29-2.131 1.858.328 3.716.82 5.628 1.093.765.11 1.64-.055 2.35-.273 4.098-1.257 8.251-2.623 12.623-2.022.82.109 1.749.382 2.459.82.656.437 1.475 1.256 1.475 1.912 0 .601-.874 1.585-1.584 1.803-2.077.71-4.263 1.53-6.448 1.585-3.388.11-6.886-.11-10.219-.601-1.967-.273-3.388.164-4.809 1.311-3.388 2.678-5.737 6.23-7.65 10.055-1.475 2.95-2.732 6.066-4.59 8.852-4.809 7.213-11.476 11.257-20.383 10.547-2.13-.164-4.371-1.148-6.12-2.35-2.404-1.64-2.295-4.918.164-6.667-.055.875 0 1.53-.164 2.132-.546 1.857-.273 2.841 1.312 3.934 3.114 2.077 6.448 2.459 10 1.202 3.005-1.093 5.573-2.841 7.54-5.3 2.46-3.006 4.81-6.066 6.722-9.4C87.978 17.083 91.858 12 97.432 8.34c.218-.055.382-.22.765-.547zm7.869-1.585c1.147.219 2.295.601 3.442.601 2.951.055 5.902-.054 8.853-.163.382 0 .765-.656 1.093-.984-.383-.273-.711-.71-1.093-.82-4.263-1.257-8.306-.328-12.295 1.366z"/><path d="M115.902 23.858c1.475-.438 2.568-.71 3.661-1.039.109.164.219.274.382.438-3.551 5.628-7.049 11.366-10.765 16.94-1.584 2.35-3.934 4.043-7.049 3.66-.819-.109-1.967-.874-2.131-1.53-.219-.82.273-1.912.82-2.732.218-.328 1.421-.492 1.803-.218.71.491.437 1.202-.382 1.694-.219.109-.492.655-.438.765.219.273.601.546.875.492.874-.164 2.022-.274 2.568-.82 1.803-1.967 3.388-4.099 4.918-6.339-5.574 1.64-6.885 1.42-8.197-1.694-1.202.874-2.295 1.803-3.552 2.568-1.858 1.093-2.677.765-3.552-1.038-1.311.492-2.568 1.148-3.934 1.42-3.333.766-5.355-1.256-4.754-4.59.71-4.316 6.995-9.18 11.42-8.742.93.109 1.859.6 2.569.82 1.202-.383 2.35-.711 3.443-1.094.054.11.164.219.218.328-2.076 3.716-4.207 7.377-6.284 11.093.11.11.273.219.383.328 1.967-1.148 3.77-2.459 4.918-4.59 1.912-3.388 4.754-5.629 8.524-6.667 2.186-.6 2.896-.437 4.536.547zm-27.268 8.688c-.11 1.585.71 2.46 2.24 2.186.984-.164 1.913-.656 2.842-1.148 2.568-1.311 3.497-3.934 4.863-6.175.93-1.584.274-2.677-1.53-2.732-3.278-.054-8.196 4.59-8.415 7.87zm18.415 1.694c.437-.164 1.257-.382 2.022-.71 2.623-1.203 4.153-3.443 5.355-5.902.328-.601.656-1.858.492-1.967-.765-.492-1.749-.984-2.623-.874-3.224.437-6.83 4.098-7.541 7.213-.218 1.475.383 2.24 2.295 2.24zm41.694-1.585c1.476-2.459 2.951-4.972 4.536-7.65-.82-.11-1.53-.164-2.241-.218-.054-1.203.438-1.858 1.694-1.64 1.366.219 2.077-.437 2.678-1.584.656-1.367 1.53-2.623 2.076-4.208-.546.492-1.202.929-1.694 1.475-.71.82-1.256.656-2.021-.328 1.311-1.038 2.568-2.185 3.989-3.005.601-.383 1.639-.11 2.459-.164 0 .82.273 1.694 0 2.404-.492 1.257-1.312 2.405-1.968 3.552-.273.492-.546 1.039-.928 1.694.819.11 1.475.164 2.131.219.218 1.257-.219 1.858-1.476 1.64-1.421-.22-2.131.382-2.787 1.584-1.475 2.678-3.06 5.246-4.426 8.033 2.404-.765 4.59-1.804 5.847-4.099 1.913-3.552 4.754-6.065 8.689-7.158.054 0 .109-.055.164-.055 1.475-.273 3.005-.546 3.989.984.71 1.093.054 2.896-1.476 4.098-2.131 1.749-4.754 2.35-7.431 2.787-1.531.273-2.241 1.038-1.968 2.295.274 1.42 1.476 1.312 2.459 1.202.875-.109 1.804-.437 2.623-.765.82-.328 1.53-.82 2.295-1.256.875.655 1.093 1.256-.054 1.748-1.967.765-3.88 1.749-5.902 2.131-2.35.437-3.497-.546-4.262-2.896-.875.656-1.749 1.366-2.678 1.913-.765.437-1.639.874-2.513 1.093-1.749.382-2.733-.656-2.186-2.46 0-.491.218-.928.382-1.366zm10.984-3.005c2.841-.546 5.3-.984 6.885-3.06.328-.383.273-1.093.437-1.64-.546-.109-1.147-.382-1.639-.218-2.404.656-4.044 2.35-5.683 4.918z"/><path d="M148.798 32.6c-1.476 1.148-2.896 2.46-4.536 3.443-1.694 1.038-2.677.601-3.333-.983-1.749.491-3.388 1.202-5.137 1.42-1.967.274-3.278-.874-3.879-2.896-.875.656-1.64 1.257-2.459 1.749-.765.437-1.53.929-2.35 1.038-.765.055-1.858-.11-2.295-.656-.383-.437-.328-1.584-.055-2.24 1.148-2.295 2.459-4.48 3.661-6.721.274-.492.492-1.039.711-1.53-.11-.11-.219-.219-.383-.328-1.147.929-2.295 1.858-3.442 2.841-1.203-.655-1.312-.765-.328-1.584 1.257-1.093 2.623-2.132 4.098-2.897.601-.328 1.913-.218 2.35.219.437.437.437 1.694.164 2.35-1.148 2.404-2.514 4.7-3.771 7.049-.273.492-.492.929-.601 1.53 2.295-.874 4.317-2.077 5.465-4.317 1.858-3.552 4.808-5.902 8.688-6.885 2.186-.547 2.842-.383 4.536.6 1.311-.382 2.459-.764 3.552-1.092.054.11.164.218.218.328l-6.229 10.983.382.383c1.202-.929 2.35-1.803 3.607-2.787.437.383.874.71 1.366.984 0 0-.055.054 0 0zm-11.749 2.186a45.694 45.694 0 002.405-1.038c2.787-1.311 3.77-4.098 5.191-6.502.273-.438.601-1.367.382-1.53-.546-.492-1.366-1.039-2.076-1.039-3.388-.055-8.251 4.7-8.361 8.033.055 1.311.656 2.022 2.459 2.076z"/><path d="M118.689 34.677c.71-.437 1.366-.765 2.076-1.257.656-.437 1.312-.983 2.131-1.639.273.328.547.656.765.93-.054.218-.054.382-.164.436-1.53 1.038-2.951 2.24-4.59 3.06-.71.328-2.076.219-2.623-.273-.437-.382-.382-1.803-.054-2.514 2.295-4.535 4.699-8.961 7.103-13.388 2.678-4.972 5.356-9.945 8.088-14.918.218-.382.328-.765.328-1.366-.875.601-1.694 1.202-2.623 1.858-.274-.273-.547-.6-.82-.874.055-.164.055-.328.109-.383 1.203-.874 2.405-1.912 3.716-2.623.711-.382 1.694-.109 2.568-.163 0 .874.219 1.857-.109 2.568-1.748 3.442-3.606 6.83-5.464 10.218-3.388 6.285-6.831 12.514-10.219 18.798-.218.383-.382.875-.546 1.312.054 0 .164.109.328.218zM136.12 14.24c-.273-.328-.874-.82-.929-1.311-.054-1.203.82-1.913 1.967-1.913.438 0 1.257.765 1.312 1.257.109 1.148-.765 1.803-2.35 1.967z"/></g><defs><clipPath id="clip0"><path fill="#fff" transform="translate(0 .306)" d="M0 0h200v43.716H0z"/></clipPath></defs></svg>