<svg width="270" height="49" fill="none" xmlns="http://www.w3.org/2000/svg"><g clip-path="url(#clip0)"><path fill-rule="evenodd" clip-rule="evenodd" d="M180.32 36.517v6.334c-.571.341-1.259.603-2.067.787a11.11 11.11 0 01-2.474.276c-1.168 0-2.223-.184-3.166-.552-.944-.367-1.748-.872-2.413-1.512a6.441 6.441 0 01-1.528-2.289c-.352-.885-.529-1.852-.529-2.901 0-1.186.21-2.265.631-3.24a7.854 7.854 0 011.701-2.513 7.644 7.644 0 012.484-1.635 7.758 7.758 0 012.983-.582 9.494 9.494 0 012.26.286c.38.095.747.208 1.099.337.353.13.672.283.957.46l-1.221 2.043a3.039 3.039 0 00-.682-.316 9.739 9.739 0 00-.825-.235 7.639 7.639 0 00-.845-.154 6.486 6.486 0 00-.784-.05c-.692 0-1.354.139-1.985.418a5.666 5.666 0 00-1.68 1.134 5.406 5.406 0 00-1.171 1.707 5.174 5.174 0 00-.438 2.115c0 .681.129 1.328.387 1.941a5.153 5.153 0 001.079 1.625 5.177 5.177 0 003.747 1.543 8.98 8.98 0 001.018-.072 5.777 5.777 0 001.161-.255v-2.534h-2.77v-2.166h5.071zm8.389 7.397a6.28 6.28 0 01-2.25-.398 5.571 5.571 0 01-1.823-1.114 5.16 5.16 0 01-1.221-1.727c-.299-.674-.448-1.42-.448-2.238v-9.584h2.484v9.523c0 .436.085.845.254 1.226.17.382.401.716.693 1.002.291.286.634.514 1.028.684.394.17.821.256 1.283.256.461 0 .892-.086 1.293-.256.4-.17.75-.398 1.048-.684.299-.286.533-.62.703-1.002.17-.381.254-.79.254-1.226v-9.523h2.485v9.584c0 .818-.15 1.564-.448 2.238a5.118 5.118 0 01-1.232 1.727 5.664 5.664 0 01-1.843 1.114 6.362 6.362 0 01-2.26.398zm9.061-.163V28.853h9.855v2.269h-7.371v4.005h6.557v2.33h-6.557v3.964h7.656v2.33h-10.14zm12.604 0V28.853h4.194c.815 0 1.558.11 2.23.327.672.218 1.242.532 1.711.94a4.16 4.16 0 011.089 1.512c.258.6.387 1.274.387 2.024a6.3 6.3 0 01-.122 1.226 5.317 5.317 0 01-.387 1.185 4.2 4.2 0 01-1.711 1.88l.876 1.4a381.24 381.24 0 001.771 2.81l1.018 1.594h-2.993c-.611-.954-1.188-1.857-1.731-2.708a202.887 202.887 0 00-1.567-2.422h-2.281v5.13h-2.484zm2.484-7.48h1.996c.515 0 .943-.088 1.282-.265.34-.178.611-.392.815-.644.203-.252.346-.525.427-.818.082-.292.123-.561.123-.807 0-.231-.038-.494-.112-.786a2.302 2.302 0 00-.408-.828 2.354 2.354 0 00-.804-.654c-.339-.177-.774-.266-1.303-.266h-2.016v5.068zm23.579-7.418v15.592a9.192 9.192 0 00-.631-.674 80.268 80.268 0 00-1.201-1.175 937.59 937.59 0 00-1.578-1.512 455.29 455.29 0 00-1.762-1.676c-.597-.565-1.181-1.12-1.751-1.665a246.89 246.89 0 01-1.558-1.502c-.468-.457-.862-.845-1.181-1.165a9.024 9.024 0 01-.621-.664 1.776 1.776 0 00-.162-.215 6.043 6.043 0 01-.245-.317l.061.654v9.217h-2.484V28.179c.095.123.306.344.631.664.326.32.727.705 1.202 1.155.475.45 1.001.94 1.578 1.471.577.531 1.164 1.073 1.761 1.625.597.551 1.181 1.096 1.751 1.634.57.539 1.093 1.029 1.568 1.472.475.442.872.82 1.191 1.134.319.313.526.531.621.654l.387.572-.061-.695v-9.012h2.484zm3.421 0h2.505v14.898h-2.505V28.853zm17.104 13.794a7.148 7.148 0 01-1.72.807c-.401.13-.852.239-1.354.327a9.282 9.282 0 01-1.609.133c-1.168 0-2.213-.2-3.136-.603a6.976 6.976 0 01-2.341-1.624 7.06 7.06 0 01-1.467-2.391 8.209 8.209 0 01-.509-2.882c0-1.117.204-2.149.611-3.096a7.642 7.642 0 011.66-2.452 7.506 7.506 0 012.443-1.604 7.783 7.783 0 012.983-.572c.407 0 .818.03 1.232.092.414.061.804.14 1.171.235.367.095.689.204.967.327.278.122.479.252.601.388a8.69 8.69 0 00-.285.47c-.068.123-.139.249-.214.378-.075.13-.156.276-.244.44-.089.163-.214.388-.377.674a2.658 2.658 0 00-.591-.286 4.873 4.873 0 00-.722-.194 9.4 9.4 0 00-.764-.113 6.652 6.652 0 00-.692-.04c-.76 0-1.463.142-2.108.428a5.44 5.44 0 00-1.669 1.135 5.134 5.134 0 00-1.1 1.645 4.936 4.936 0 00-.397 1.941c0 .654.126 1.29.377 1.91a5.19 5.19 0 001.058 1.646 5.36 5.36 0 001.619 1.154c.625.293 1.317.44 2.077.44.435 0 .855-.045 1.263-.133a9.267 9.267 0 001.079-.296 4.98 4.98 0 00.763-.327c.197-.11.302-.184.316-.225l1.079 2.268zm10.975 1.104c-.04-.096-.112-.266-.213-.511l-.377-.9c-.15-.354-.312-.745-.489-1.175l-.55-1.338h-5.111l-1.628 3.924h-2.464c.054-.123.183-.426.387-.91.203-.483.458-1.083.763-1.798.306-.715.645-1.512 1.018-2.391.374-.879.757-1.774 1.151-2.687.393-.913.777-1.809 1.15-2.688l1.018-2.39c.306-.716.56-1.315.764-1.799.203-.483.332-.786.387-.909l.397.91c.21.483.468 1.082.774 1.798l1.018 2.39c.373.88.756 1.775 1.15 2.688.394.913.777 1.808 1.151 2.687.373.879.712 1.676 1.018 2.39.305.716.56 1.316.763 1.8.204.483.333.786.387.909h-2.464zm-5.884-6.029h3.38l-1.466-3.556c-.014-.013-.048-.105-.102-.275a4.333 4.333 0 01-.122-.46 4.33 4.33 0 01-.122.46c-.055.17-.082.262-.082.276l-1.486 3.555zM168.62 20.76V9.987h2.932a5.09 5.09 0 011.547.223c.469.149.874.369 1.215.661.34.293.604.65.792 1.07.187.421.281.905.281 1.45 0 .297-.029.591-.089.884a3.383 3.383 0 01-.799 1.605 2.716 2.716 0 01-.756.587c.395.624.825 1.315 1.289 2.073.464.758.933 1.499 1.407 2.222h-1.94c-.198-.307-.403-.63-.615-.966-.212-.337-.424-.671-.637-1.003a191.13 191.13 0 01-.622-.981c-.202-.322-.392-.622-.57-.9h-1.806v3.85h-1.629zm1.629-5.38h1.466c.395 0 .725-.066.992-.2a1.79 1.79 0 00.955-1.137c.064-.227.096-.436.096-.624s-.032-.394-.096-.617a1.738 1.738 0 00-.333-.624 1.856 1.856 0 00-.63-.483c-.261-.129-.585-.193-.97-.193h-1.48v3.879zm7.671 5.38V9.987h7.048v1.471h-5.42v3.151h4.828v1.501h-4.828v3.15h5.628v1.502h-7.256zm10.765-5.38h1.467c.394 0 .725-.068.992-.207a1.87 1.87 0 00.629-.505c.153-.199.262-.412.326-.64.064-.227.096-.43.096-.609a2.25 2.25 0 00-.096-.617 1.738 1.738 0 00-.333-.624 1.856 1.856 0 00-.63-.483c-.261-.129-.585-.193-.97-.193h-1.481v3.879zm-1.628 5.38V9.987h2.932a5.09 5.09 0 011.547.223c.469.149.874.369 1.214.661a3 3 0 01.793 1.07c.187.421.281.905.281 1.45 0 .425-.064.849-.192 1.27a3.103 3.103 0 01-.622 1.13 3.18 3.18 0 01-1.126.81c-.464.208-1.027.312-1.688.312h-1.511v3.849h-1.628zm8.544 0V9.987h7.049v1.471h-5.42v3.151h4.828v1.501h-4.828v3.15h5.627v1.502h-7.256zm18.555-10.774v11.265c-.138-.178-.404-.465-.799-.862l-1.363-1.367a168.31 168.31 0 00-1.636-1.62 284.286 284.286 0 01-1.636-1.612c-.514-.51-.963-.966-1.348-1.368a12.015 12.015 0 01-.77-.854l-.281-.387.044.476v7.104h-1.629V9.48c.109.138.289.337.541.594a87.162 87.162 0 002.014 2.006l1.244 1.204c.419.407.834.805 1.244 1.197.409.391.784.755 1.125 1.092.341.337.634.634.881.892.247.257.42.45.518.58l.282.416-.045-.506v-6.97h1.614zm8.782.595l-.577 1.322a9.563 9.563 0 00-1.207-.357 5.287 5.287 0 00-1.148-.133c-.622 0-1.118.129-1.488.386-.371.258-.556.585-.556.981a.97.97 0 00.4.81c.267.203.597.386.992.55.395.163.825.327 1.289.49.464.164.893.374 1.288.632a3.5 3.5 0 01.992.973c.267.392.4.895.4 1.509 0 .476-.086.904-.259 1.285a2.702 2.702 0 01-.77.989c-.341.277-.765.49-1.274.639-.508.148-1.103.223-1.784.223a7 7 0 01-1.177-.09 6.322 6.322 0 01-.948-.23 5.338 5.338 0 01-.741-.304 9.255 9.255 0 01-.54-.298l.711-1.411a5.85 5.85 0 001.318.55 4.82 4.82 0 001.318.207c.197 0 .441-.024.733-.074.291-.05.57-.136.836-.26a2.18 2.18 0 00.689-.498c.193-.208.289-.47.289-.788 0-.287-.077-.532-.23-.735a2.142 2.142 0 00-.607-.535 5.34 5.34 0 00-.859-.416 97.66 97.66 0 01-.985-.387 19.597 19.597 0 01-.984-.423 3.76 3.76 0 01-.859-.543 2.568 2.568 0 01-.607-.743c-.153-.282-.23-.622-.23-1.018 0-.367.074-.728.222-1.085.148-.356.37-.674.667-.951.296-.277.663-.5 1.103-.669.439-.168.95-.252 1.532-.252.356 0 .704.03 1.044.089.341.06.65.126.926.2.276.075.511.147.703.216.193.07.319.119.378.149zm8.871 10.18c-.05-.109-.119-.268-.208-.476-.089-.208-.19-.448-.303-.72l-.371-.892a83.92 83.92 0 01-.407-1.003h-3.791l-1.273 3.09h-1.6l4.783-11.28c.06.14.166.392.319.759l.548 1.315a412.07 412.07 0 001.51 3.574c.272.634.538 1.259.8 1.873.262.614.501 1.179.718 1.694l.555 1.315.319.75h-1.599zm-4.517-4.459h2.68a80.181 80.181 0 01-.392-.943l-.341-.833a67.619 67.619 0 00-.274-.661 9.502 9.502 0 01-.177-.446 3.884 3.884 0 01-.149-.535 3.549 3.549 0 01-.162.535l-1.185 2.883zm7.449 4.459V9.986h2.932c.563 0 1.078.074 1.547.223.469.149.874.369 1.215.661.34.293.604.65.792 1.07.187.421.281.905.281 1.45 0 .297-.029.591-.089.884a3.383 3.383 0 01-.799 1.605 2.716 2.716 0 01-.756.587c.395.624.825 1.315 1.289 2.073.464.758.933 1.499 1.407 2.222h-1.94c-.198-.307-.403-.63-.615-.966-.212-.337-.424-.671-.637-1.003a191.13 191.13 0 01-.622-.981c-.202-.322-.392-.622-.57-.9h-1.806v3.85h-1.629zm1.629-5.38h1.466c.395 0 .725-.067.992-.2a1.793 1.793 0 00.955-1.138c.064-.227.096-.436.096-.624s-.032-.394-.096-.617a1.738 1.738 0 00-.333-.624 1.856 1.856 0 00-.63-.483c-.261-.129-.585-.193-.97-.193h-1.48v3.879zM119.661 40.503c0-1.924-.952-2.766-2.94-3.401-.849-.275-1.886-.516-1.886-1.185 0-.55.339-.79.85-.79h.288c.578 0 1.003.308 1.308.893.068.137.221.137.341.051l1.766-1.185c.17-.103.102-.275.034-.378a3.875 3.875 0 00-.815-.996c-.663-.585-1.563-.91-2.667-.91h-.255c-2.328 0-3.739 1.271-3.739 3.4 0 1.907 1.02 2.663 2.838 3.298 1.138.396 1.988.498 1.988 1.272 0 .497-.34.79-.867.79h-.526c-.578 0-1.003-.31-1.308-.894-.068-.136-.221-.136-.341-.05l-1.766 1.184c-.17.103-.102.258-.034.36.187.328.408.62.679.877.68.67 1.631 1.048 2.804 1.048h.526c2.396 0 3.721-1.271 3.721-3.384h.001zm22.47 2.989V32.967c0-.137-.119-.172-.187-.172h-2.496c-.086 0-.153.035-.153.172v10.525c0 .137.068.172.153.172h2.497c.102 0 .187-.035.187-.172h-.001zm-4.019-8.32v-2.205c0-.137-.102-.171-.17-.171h-7.066c-.085 0-.153.034-.153.171v10.525c0 .137.068.172.153.172h2.513c.085 0 .171-.035.171-.172v-3.876c0-.12.051-.19.204-.19h3.43c.086 0 .171-.034.171-.155V37.05c0-.12-.085-.155-.171-.155h-3.43c-.153 0-.205-.069-.205-.19v-1.188c0-.12.052-.189.205-.189h4.178c.102 0 .17-.034.17-.155zm14.505 8.268l-3.554-10.516c-.034-.103-.085-.12-.153-.12h-1.855c-.102 0-.136.034-.169.12l-3.555 10.516c-.052.137.016.224.169.224h2.62c.085 0 .119-.035.153-.12l.459-1.291c.034-.087.068-.121.204-.121h2.042c.136 0 .187.034.221.12l.442 1.291c.033.086.051.121.153.121h2.671c.187 0 .204-.087.153-.224h-.001zm-3.996-3.494c.016.086-.035.155-.153.155h-.987c-.136 0-.187-.068-.171-.156l.306-1.341c.239-1.015.358-2.117.358-2.117h.05s.12 1.102.324 2.117l.273 1.342zm-50.03 3.518V32.97c0-.137-.102-.172-.169-.172h-2.396c-.102 0-.153.035-.153.172v2.782c0 1.53.085 2.87.085 2.87h-.05s-.137-.38-.375-.826l-2.514-4.843c-.052-.103-.12-.155-.221-.155H90.64c-.085 0-.153.035-.153.172v10.495c0 .137.068.172.153.172h2.446c.103 0 .17-.034.17-.172v-2.732c0-1.408-.102-2.765-.102-2.765h.069s.136.378.356.773l2.533 4.74c.05.087.101.156.186.156h2.123c.102 0 .17-.034.17-.172zm-9.744 0V32.97c0-.137-.118-.172-.187-.172h-2.497c-.086 0-.153.035-.153.172v10.495c0 .137.068.172.153.172h2.497c.103 0 .187-.034.187-.172zm40.525-2.807v-4.826c0-1.958-1.478-3.229-3.653-3.229h-1.188c-2.176 0-3.688 1.288-3.688 3.229v4.826c0 1.942 1.478 3.23 3.687 3.23h1.188c2.176 0 3.654-1.288 3.654-3.23zm-2.82 0c0 .412-.306.705-.833.705h-1.188c-.595 0-.901-.275-.901-.705v-4.826c0-.36.407-.72.9-.72h1.188c.494 0 .834.308.834.72v4.826zm-17.569 2.756l-3.551-10.495c-.034-.104-.085-.121-.153-.121h-1.85c-.103 0-.137.035-.171.12l-3.55 10.496c-.052.136.016.223.17.223h2.615c.086 0 .119-.034.154-.121l.458-1.288c.034-.085.068-.12.205-.12h2.038c.137 0 .187.035.221.12l.442 1.288c.034.087.051.12.153.12h2.667c.188 0 .204-.085.153-.223h-.001zm-3.993-3.487c.017.085-.033.154-.152.154h-.986c-.136 0-.187-.069-.169-.154l.305-1.34c.238-1.014.356-2.113.356-2.113h.052s.119 1.1.322 2.114l.273 1.339h-.001zm-20.62 3.538v-2.199c0-.12-.085-.154-.17-.154h-4.178c-.154 0-.205-.068-.205-.189V39.6c0-.12.05-.188.205-.188h3.431c.085 0 .17-.036.17-.156V37.04c0-.121-.085-.155-.17-.155h-3.432c-.153 0-.205-.068-.205-.19v-1.184c0-.12.052-.189.205-.189h4.18c.102 0 .169-.035.169-.155v-2.198c0-.137-.102-.172-.17-.172h-7.067c-.085 0-.153.035-.153.172v10.495c0 .137.068.172.153.172H84.2c.103 0 .17-.034.17-.172zM72.434 36.37c0 .464-.323.687-.85.687h-1.852c-.153 0-.204-.068-.204-.189V35.51c0-.12.051-.188.204-.188h1.853c.56 0 .849.258.849.721v.327zm3.143 7.042L73.912 39.1c-.051-.154-.069-.275.085-.377.747-.482 1.24-1.305 1.24-2.371v-.155c0-2.112-1.427-3.401-3.652-3.401h-4.74c-.087 0-.154.035-.154.172v10.495c0 .137.068.172.153.172h2.513c.085 0 .17-.034.17-.172V39.6c0-.12.051-.188.204-.188h1.172c.068 0 .12.034.154.12l1.562 3.984c.034.07.086.12.153.12h2.651c.17 0 .204-.102.153-.223h.001zM122.7 11.996c0 1.388-1.033 2.309-2.552 2.309h-.83c-1.542 0-2.574-.92-2.574-2.309V8.545c0-1.388 1.055-2.31 2.574-2.31h.831c1.519 0 2.551.909 2.551 2.309v.662h-1.97v-.662c0-.295-.237-.516-.581-.516h-.831c-.344 0-.629.258-.629.517v3.451c0 .307.214.504.629.504h.831c.368 0 .581-.21.581-.504v-.662h1.97v.662zm-48.942 2.046V6.529c0-.098-.049-.123-.12-.123h-1.721a.13.13 0 00-.119.074l-1.366 3.775a7.557 7.557 0 00-.154.492h-.048s-.024-.221-.13-.492L68.686 6.48a.13.13 0 00-.12-.074h-1.769c-.072 0-.107.025-.107.123v7.512c0 .097.035.123.107.123h1.675c.082 0 .118-.025.118-.123V12.43c0-1.168-.107-2.237-.107-2.237h.036s.108.516.297 1.069l.63 1.857c.035.098.142.122.213.122h1.152c.071 0 .166-.024.202-.123l.63-1.819c.19-.553.296-1.106.296-1.106h.036s-.084 1.106-.084 2.261v1.587c0 .097.025.123.108.123h1.639c.071 0 .119-.025.119-.123zm19.76-.005v-1.574c0-.086-.059-.11-.118-.11h-2.765c-.107 0-.142-.049-.142-.136v-.946c0-.086.035-.136.142-.136h2.242c.06 0 .12-.024.12-.11V9.438c0-.086-.06-.11-.12-.11h-2.242c-.107 0-.142-.05-.142-.137v-.847c0-.086.035-.136.142-.136H93.4c.07 0 .117-.024.117-.11V6.525c0-.098-.07-.122-.117-.122h-4.784c-.06 0-.108.024-.108.122v7.512c0 .097.047.123.108.123H93.4c.071 0 .119-.025.119-.123zm-6.073-2.139c0-1.377-.664-1.98-2.054-2.435-.595-.196-1.318-.368-1.318-.847 0-.395.236-.565.594-.565h.201c.404 0 .7.22.914.638.049.098.155.098.238.037l1.235-.848c.119-.075.07-.197.024-.271a2.755 2.755 0 00-.57-.713c-.463-.418-1.093-.651-1.865-.651h-.178c-1.627 0-2.612.909-2.612 2.434 0 1.364.712 1.905 1.983 2.36.795.282 1.389.357 1.389.91 0 .356-.237.565-.605.565h-.368c-.405 0-.702-.22-.915-.64-.048-.097-.155-.097-.238-.035l-1.235.847c-.119.074-.07.185-.023.26.13.233.285.441.474.625.475.48 1.14.75 1.96.75h.368c1.675 0 2.6-.91 2.6-2.42zm12.939.11V8.555c0-1.402-1.034-2.311-2.554-2.311h-.831c-1.52 0-2.577.921-2.577 2.311v3.454c0 1.39 1.032 2.311 2.577 2.311h.83c1.521 0 2.555-.92 2.555-2.31v-.002zm-1.972 0c0 .295-.214.505-.582.505h-.831c-.416 0-.63-.197-.63-.505V8.555c0-.259.285-.516.63-.516h.83c.346 0 .583.221.583.516v3.454zm-17.324.005V6.529c0-.097-.036-.122-.107-.122h-1.745c-.06 0-.108.025-.108.123v5.484c0 .307-.178.504-.594.504h-.83c-.44 0-.63-.197-.63-.505V6.529c0-.097-.06-.122-.107-.122h-1.722c-.071 0-.107.025-.107.123v5.484c0 1.388 1.022 2.31 2.566 2.31h.83c1.52 0 2.554-.922 2.554-2.311zm27.906 2.03v-7.51c0-.1-.072-.125-.119-.125H107.2c-.071 0-.107.026-.107.124v1.991c0 1.095.06 2.053.06 2.053h-.036s-.094-.27-.261-.59l-1.758-3.466c-.035-.074-.083-.112-.154-.112h-1.509c-.058 0-.107.026-.107.124v7.512c0 .097.049.123.107.123h1.711c.071 0 .119-.025.119-.123v-1.955c0-1.008-.071-1.98-.071-1.98h.047s.095.27.25.554l1.768 3.393c.036.062.072.11.132.11h1.484c.071 0 .119-.024.119-.122zm43.598 0V12.47c0-.086-.06-.111-.119-.111h-2.922c-.107 0-.142-.049-.142-.135V6.532c0-.098-.072-.124-.119-.124h-1.757c-.06 0-.108.026-.108.124v7.512c0 .097.048.123.108.123h4.94c.071 0 .119-.025.119-.123zm-13.115 0v-7.51c0-.1-.071-.125-.119-.125h-1.674c-.072 0-.107.026-.107.124v1.991c0 1.095.058 2.053.058 2.053h-.035s-.094-.27-.261-.59l-1.758-3.466c-.036-.074-.084-.112-.155-.112h-1.507c-.06 0-.108.026-.108.124v7.512c0 .097.048.123.108.123h1.709c.072 0 .119-.025.119-.123v-1.955c0-1.008-.071-1.98-.071-1.98h.048s.095.27.249.554l1.77 3.393c.035.062.071.11.13.11h1.485c.071 0 .118-.024.118-.122h.001zm-13.779 0v-7.51c0-.1-.084-.125-.131-.125h-1.746c-.059 0-.107.026-.107.124v7.512c0 .097.048.123.107.123h1.746c.071 0 .131-.025.131-.123zm20.837-.036l-2.482-7.512c-.024-.074-.06-.087-.107-.087h-1.295c-.07 0-.095.026-.118.087l-2.482 7.512c-.036.097.012.16.118.16h1.829c.059 0 .084-.025.107-.086l.321-.922c.023-.062.047-.086.142-.086h1.425c.095 0 .131.024.156.085l.308.923c.023.061.036.086.107.086h1.864c.131 0 .142-.062.107-.16zm-2.791-2.496c.012.062-.024.11-.108.11h-.687c-.096 0-.131-.048-.119-.11l.213-.959c.166-.726.25-1.513.25-1.513h.036s.082.787.225 1.513l.19.96zm-11.114.504V8.56c0-1.402-1.033-2.311-2.553-2.311h-.832c-1.519 0-2.577.922-2.577 2.311v3.455c0 1.389 1.033 2.311 2.577 2.311h.832c1.519 0 2.553-.922 2.553-2.311zm-1.972 0c0 .295-.214.505-.581.505h-.832c-.415 0-.629-.197-.629-.505V8.56c0-.258.284-.516.629-.516h.832c.345 0 .581.222.581.516v3.455zm-14.364 1.99l-2.483-7.51c-.024-.075-.059-.087-.107-.087h-1.295c-.07 0-.094.025-.118.086l-2.483 7.512c-.035.098.013.16.119.16h1.829c.06 0 .083-.025.108-.086l.32-.921c.023-.063.047-.087.142-.087h1.425c.096 0 .131.024.155.087l.309.92c.023.062.035.088.107.088h1.864c.131 0 .143-.063.108-.161zm-2.792-2.495c.012.062-.023.111-.107.111h-.689c-.094 0-.13-.048-.119-.11l.215-.959c.165-.726.249-1.513.249-1.513h.035s.084.787.226 1.513l.19.958zM72.654 21.78c0 1.389-1.032 2.31-2.552 2.31h-.83c-1.542 0-2.575-.921-2.575-2.31v-3.452c0-1.388 1.057-2.309 2.575-2.309h.831c1.519 0 2.551.908 2.551 2.309v.662h-1.97v-.662c0-.294-.237-.517-.58-.517h-.832c-.344 0-.629.259-.629.517v3.453c0 .306.214.503.63.503h.83c.367 0 .58-.208.58-.503v-.663h1.971v.663zm20.258-3.845v-1.574c0-.098-.071-.123-.107-.123h-5.189c-.058 0-.119.025-.119.123v1.574c0 .086.06.111.12.111h1.454c.13 0 .154.049.154.135v5.694c0 .097.048.122.107.122h1.746c.058 0 .119-.025.119-.122V18.18c0-.086.023-.135.142-.135h1.467c.058 0 .107-.025.107-.11h-.001zm-6.606 5.94V16.36c0-.098-.071-.123-.118-.123h-1.675c-.071 0-.107.025-.107.123v1.992c0 1.095.06 2.053.06 2.053h-.036s-.094-.27-.26-.59l-1.758-3.467c-.036-.075-.084-.11-.155-.11H80.75c-.06 0-.107.024-.107.122v7.514c0 .097.048.122.107.122h1.71c.07 0 .119-.024.119-.122v-1.956c0-1.008-.072-1.98-.072-1.98h.05s.094.27.248.554l1.77 3.393c.034.062.07.111.13.111h1.484c.071 0 .118-.024.118-.122zm20.86-2.093v-3.455c0-1.403-1.033-2.312-2.553-2.312h-.831c-1.519 0-2.577.922-2.577 2.312v3.455c0 1.39 1.032 2.312 2.577 2.312h.831c1.519 0 2.553-.922 2.553-2.312zm-1.971 0c0 .296-.214.504-.582.504h-.831c-.416 0-.629-.197-.629-.504v-3.455c0-.258.284-.517.629-.517h.831c.345 0 .582.222.582.517v3.455zm-4.889 2.056l-1.164-3.088c-.035-.11-.047-.196.06-.27.522-.344.866-.935.866-1.697v-.11c0-1.513-.997-2.436-2.552-2.436h-3.313c-.06 0-.108.026-.108.124v7.514c0 .097.048.122.108.122h1.757c.06 0 .119-.024.119-.122v-2.767c0-.087.035-.136.142-.136h.819c.049 0 .084.024.107.086l1.093 2.854c.023.049.058.085.107.085h1.852c.119 0 .143-.074.107-.16zm-2.196-5.042c0 .331-.226.492-.594.492h-1.295c-.107 0-.142-.049-.142-.136v-.971c0-.086.035-.135.142-.135h1.295c.39 0 .593.184.593.516v.234h.001zm-18.96 5.079V22.3c0-.087-.059-.111-.119-.111H76.11c-.107 0-.142-.049-.142-.136v-.946c0-.087.036-.136.142-.136h2.399c.058 0 .119-.024.119-.11v-1.587c0-.086-.06-.11-.119-.11H76.11c-.107 0-.142-.05-.142-.136v-.847c0-.087.036-.137.142-.137h2.922c.071 0 .118-.024.118-.11V16.36c0-.098-.071-.123-.119-.123h-4.94c-.059 0-.106.025-.106.123v7.514c0 .097.047.122.107.122h4.94c.071 0 .118-.024.118-.122zm73.441 0V22.3c0-.087-.06-.111-.119-.111h-2.922c-.107 0-.141-.049-.141-.136v-.946c0-.086.035-.136.142-.136h2.398c.059 0 .119-.024.119-.11v-1.588c0-.084-.059-.11-.119-.11h-2.398c-.107 0-.142-.048-.142-.134v-.85c0-.085.035-.134.142-.134h2.921c.071 0 .119-.025.119-.11V16.36c0-.098-.072-.123-.119-.123h-4.94c-.059 0-.108.025-.108.123v7.514c0 .097.049.122.108.122h4.94c.071 0 .119-.025.119-.122zm-6.579-5.94v-1.574c0-.098-.072-.123-.107-.123h-5.191c-.058 0-.118.025-.118.123v1.574c0 .086.059.111.118.111h1.456c.13 0 .153.049.153.135v5.694c0 .097.048.122.108.122h1.745c.058 0 .119-.025.119-.122V18.18c0-.086.023-.135.142-.135h1.467c.058 0 .107-.025.107-.11h.001zm-22.883 5.94V22.3c0-.087-.058-.111-.119-.111h-2.921c-.107 0-.142-.049-.142-.136v-.946c0-.086.035-.136.142-.136h2.399c.06 0 .119-.024.119-.11v-1.588c0-.084-.059-.11-.119-.11h-2.399c-.107 0-.142-.048-.142-.134v-.85c0-.085.035-.134.142-.134h2.922c.071 0 .118-.025.118-.11V16.36c0-.098-.071-.123-.119-.123h-4.939c-.059 0-.107.025-.107.123v7.514c0 .097.048.122.107.122h4.939c.072 0 .119-.025.119-.122zm-8.641-2.19c0 .26-.261.505-.594.505h-1.295c-.107 0-.142-.049-.142-.136v-3.873c0-.086.036-.135.142-.135h1.295c.321 0 .594.27.594.516v3.123zm1.959-.097v-2.915c0-1.512-.998-2.435-2.553-2.435h-3.313c-.06 0-.107.025-.107.123v7.514c0 .097.047.122.107.122h3.313c1.555 0 2.552-.922 2.552-2.41h.001zm23.576 2.25l-1.164-3.088c-.035-.11-.047-.196.059-.27.523-.344.867-.935.867-1.697v-.11c0-1.512-.997-2.436-2.553-2.436h-3.312c-.06 0-.108.026-.108.124v7.514c0 .097.048.122.108.122h1.757c.058 0 .118-.024.118-.122v-2.767c0-.086.036-.136.143-.136h.819c.049 0 .084.025.107.087l1.093 2.852c.023.048.058.086.107.086h1.852c.118 0 .142-.074.107-.16zm-2.197-5.042c0 .331-.226.492-.594.492h-1.294c-.107 0-.143-.049-.143-.136v-.971c0-.086.036-.135.143-.135h1.294c.392 0 .594.184.594.516v.234zm-5.033 5.042l-2.482-7.514c-.024-.074-.059-.086-.107-.086h-1.294c-.071 0-.095.025-.119.086l-2.483 7.514c-.036.097.012.16.118.16h1.83c.059 0 .083-.025.107-.087l.321-.922c.023-.061.047-.086.141-.086h1.425c.096 0 .132.025.155.086l.309.922c.023.062.035.086.107.086h1.864c.131 0 .143-.06.108-.16zm-2.791-2.497c.012.062-.023.111-.107.111h-.689c-.094 0-.13-.05-.118-.11l.214-.96c.165-.726.249-1.513.249-1.513h.036s.083.787.225 1.513l.19.96z" fill="#fff"/><path fill-rule="evenodd" clip-rule="evenodd" d="M63.586 27.106h92.109V3.302H63.587l-.002 23.804h.001zm92.11 2.587H63.587v17.074h92.108l.001-17.074zM61 49.354h97.281V.714H61v48.64z" fill="#fff"/><path fill="#ED6F6B" d="M1 .684h48v48H1z"/><g clip-path="url(#clip1)"><path fill-rule="evenodd" clip-rule="evenodd" d="M40.87 34.875a.837.837 0 01.125.545c-.021.198-.094.38-.218.546a.938.938 0 01-.437.327.804.804 0 01-.561.016l-5.02-1.123-1.715 4.77a.9.9 0 01-.327.453 1.054 1.054 0 01-.515.203h-.093a.982.982 0 01-.515-.14.93.93 0 01-.358-.39l-5.207-9.51a7.949 7.949 0 01-1.029.062 10.108 10.108 0 01-1.122-.062l-5.114 9.51a.93.93 0 01-.358.39.982.982 0 01-.515.14h-.062a1.087 1.087 0 01-.546-.203.9.9 0 01-.327-.452l-1.715-4.77-5.02 1.122a.804.804 0 01-.561-.016.874.874 0 01-.437-.358.92.92 0 01-.218-.515.837.837 0 01.125-.545l5.862-10.695a10.819 10.819 0 01-.718-2.167 10.97 10.97 0 01-.249-2.354c0-1.517.286-2.94.857-4.271a11.064 11.064 0 012.354-3.492 11.065 11.065 0 013.492-2.354A10.704 10.704 0 0125 8.684c1.517 0 2.941.286 4.271.858a10.88 10.88 0 013.477 2.354 11.423 11.423 0 012.354 3.492 10.54 10.54 0 01.873 4.271c0 .79-.083 1.554-.25 2.292-.166.738-.394 1.45-.685 2.136l5.83 10.788zM18.078 37.15l3.742-6.984a11.09 11.09 0 01-3.165-1.56 10.8 10.8 0 01-2.479-2.431l-4.24 7.7 3.71-.84a.916.916 0 01.702.093c.218.124.38.301.483.53l1.247 3.492zM16.02 19.659c0 1.227.234 2.386.702 3.477a8.881 8.881 0 001.933 2.853 9.477 9.477 0 002.853 1.933 8.534 8.534 0 003.492.717c1.226 0 2.385-.24 3.477-.717a9.226 9.226 0 002.852-1.933 9.009 9.009 0 001.918-2.853 8.732 8.732 0 00.701-3.477 8.731 8.731 0 00-.701-3.476 9.008 9.008 0 00-1.918-2.853 9.228 9.228 0 00-2.852-1.933A8.568 8.568 0 0025 10.68a8.534 8.534 0 00-3.492.717 9.479 9.479 0 00-2.853 1.933 8.88 8.88 0 00-1.933 2.853 8.731 8.731 0 00-.702 3.476zm18.334 13.376l3.71.842-4.21-7.764a11.351 11.351 0 01-2.54 2.495 10.995 10.995 0 01-3.227 1.59l3.835 6.984 1.247-3.523c.104-.229.265-.406.483-.53a.916.916 0 01.702-.094z" fill="#fff"/></g></g><defs><clipPath id="clip0"><path fill="#fff" transform="translate(0 .714)" d="M0 0h270v48H0z"/></clipPath><clipPath id="clip1"><path fill="#fff" transform="translate(9 8.684)" d="M0 0h32v32H0z"/></clipPath></defs></svg>