<svg width="200" height="56" fill="none" xmlns="http://www.w3.org/2000/svg"><g clip-path="url(#clip0)" fill="#fff"><path d="M151.805 42.568v.142h18.522l.112-.085-.028-.028-.084-.029h-18.522zm43.169-17.11l.198-.14h-30.436l-.113.084.029.029.084.028h30.238z"/><path d="M200 .67l-35.235 24.648h-12.96v30.351l18.522-12.96H200v-17.39h-4.8l4.8-3.36V.67zm-32.356 34.219c-.141.734.029 3.05.904 3.219.31.056.565 0 .819-.142l.762-.423.141 3.077h-4.884c.169-1.27.254-2.315.338-3.246l.17-2.485c-.988-.141-2.061-.508-2.965-1.214-.79-.65-1.242-1.44-1.298-2.4-.113-1.694 2.117-3.811 4.997-3.811h.847c.311.028.621.056.96.14-.198.424-.452.932-.508 1.808a3.228 3.228 0 00-.932-.142c-2.089 0-2.654 1.412-2.654 1.949 0 1.383 1.355 1.863 2.372 1.948a2.983 2.983 0 002.061-.509c.451-.31.564-.423.79-.931.537.282 1.751.367 2.626.056-.198 1.75-2.569 3.05-4.546 3.106zM2.086 43.128C.761 43.128 0 42.383 0 41.19V25.293h3.223v15.176h8.353v2.659M21.937 28.36l-3.05 8.823h5.999l-2.949-8.824zM26.8 43.127l-1.247-3.514h-7.357l-1.247 3.514h-3.24l5.977-16.463c.337-1.035 1.075-1.56 2.322-1.56 1.168 0 1.937.556 2.274 1.537l5.804 16.486H26.8zm4.847-8.862c0-6.094 3.623-9.066 8.533-9.066 1.623 0 3.263.353 5.082.886l1.389.408-.479 2.682-1.506-.423c-1.647-.487-3.043-.793-4.266-.793-3.428 0-5.538 1.985-5.538 6.338 0 4.47 2.228 6.533 5.647 6.533 1.13 0 2.118-.126 3.27-.33v-4.03h-3.913v-2.377h4.824c1.27 0 2.086.792 2.086 1.937v4.055c0 1.498-.408 2.157-1.78 2.541-1.53.408-3.216.675-4.738.675-4.988 0-8.611-2.879-8.611-9.036zm26.085 9.177c-4.674 0-7.215-2.518-7.215-6.761V25.293h3.215v11.482c0 2.573 1.342 3.977 4 3.977 2.706 0 4.032-1.404 4.032-3.977V25.293h3.208V36.68c0 4.227-2.542 6.76-7.24 6.76zm14.071-.314H68.98V27.183c0-1.364.839-2.063 2.227-2.063 1.153 0 1.827.589 2.306 1.35l7.333 12.297V25.293h2.847v15.945c0 1.341-.855 2.04-2.243 2.04-1.13 0-1.804-.581-2.259-1.35l-7.388-12.29m30.008-1.278l-3.06 8.823h6.001l-2.941-8.824zm4.862 14.768l-1.247-3.514H98.07l-1.255 3.514h-3.24l5.977-16.463c.33-1.035 1.074-1.56 2.329-1.56 1.169 0 1.937.556 2.267 1.537l5.812 16.486h-3.287zm13.71-15.435h-4.463v6.259h5.278l.816-1.122c.526-.698 1.012-1.53 1.012-2.423 0-1.608-.745-2.714-2.643-2.714zm3.184 15.435l-2.996-6.8h-4.651v6.8h-3.184V27.214c0-1.152.768-1.921 2.039-1.921h6.016c3.309 0 5.302 1.749 5.302 5.035 0 1.396-.597 2.588-1.412 3.592l-1.216 1.522 3.506 7.686h-3.404zm14.078-15.49c-3.286 0-5.192 2.376-5.192 6.627 0 4.267 2.024 6.643 5.31 6.643 3.278 0 5.184-2.36 5.184-6.643 0-4.25-2.015-6.627-5.302-6.627zm0 15.686c-5.051 0-8.439-3.286-8.439-9.059 0-5.788 3.506-9.098 8.557-9.098 5.059 0 8.423 3.287 8.423 9.098 0 5.851-3.45 9.059-8.541 9.059z"/></g><defs><clipPath id="clip0"><path fill="#fff" transform="translate(0 .67)" d="M0 0h200v54.999H0z"/></clipPath></defs></svg>