<svg width="200" height="27" fill="none" xmlns="http://www.w3.org/2000/svg"><g clip-path="url(#clip0)"><path fill-rule="evenodd" clip-rule="evenodd" d="M10 10.9h2.233c2.767 0 4.167-1 4.167-2.967 0-.967-.333-1.7-.967-2.2-.633-.5-1.5-.734-2.6-.734H10v5.9zm16.267 10.8v4.266H18.6l-5.7-11.033h-2.867v6.766H13.2v4.267H.033v-4.267H3.5V5H.033V.733h15.2c2.867 0 4.934.733 6.167 2.166 1.267 1.434 1.9 3.067 1.9 4.9 0 2.867-1.467 4.967-4.367 6.267l4.1 7.6h3.234v.033zm17.6-16.734c-1.934 0-3.567.733-4.934 2.167-1.333 1.466-2 3.566-2 6.366 0 2.467.667 4.467 2 5.934 1.334 1.5 2.967 2.233 4.934 2.233 1.933 0 3.566-.733 4.933-2.167 1.367-1.466 2.033-3.566 2.033-6.3 0-2.433-.633-4.433-1.933-5.966-1.3-1.5-2.967-2.267-5.033-2.267zm0-4.6c4.333 0 7.766 1.267 10.266 3.767s3.734 5.566 3.734 9.2c0 3.633-1.234 6.7-3.734 9.2-2.5 2.5-5.933 3.733-10.266 3.733-4.5 0-7.967-1.3-10.367-3.867-2.4-2.6-3.633-5.6-3.633-9.1 0-3.6 1.233-6.666 3.7-9.166 2.5-2.5 5.933-3.767 10.3-3.767zm29.7 21.333h1.566c1.9 0 3.434-.233 4.534-.733 1.133-.5 2.033-1.367 2.7-2.6.666-1.267 1-2.9 1-4.9 0-1.933-.334-3.567-1.034-4.9-.666-1.333-1.6-2.267-2.766-2.767-1.167-.5-2.634-.766-4.434-.766h-1.566v16.666zM63.2 25.966v-4.267h3.833V5H63.2V.733h11.933c2.5 0 4.534.166 6.067.466 1.533.3 3 1 4.4 2.034 1.4 1.066 2.533 2.466 3.367 4.233.833 1.767 1.266 3.733 1.266 5.9 0 1.767-.3 3.433-.9 5.033-.6 1.567-1.333 2.867-2.2 3.834-.866.966-1.933 1.733-3.133 2.333-1.233.567-2.333.933-3.367 1.1-1 .167-2.6.233-4.733.233H63.2v.067zm31.933 0v-4.267h3.834V5h-3.834V.733h14.234v4.266H105.5v16.7h3.867v4.267H95.133zm21.234 0v-4.267h3.6V5h-3.6V.733H130.2v4.266h-3.667v16.7h7.434v-7.8h4.9v12.034h-22.5v.033zm29.166 0v-4.267h3.6V5h-3.6V.733h13.834v4.266H155.7v16.7h7.433v-7.8h4.9v12.034h-22.5v.033zM188.6 13.699l-2.1-7.6-2.267 7.6h4.367zm11.367 8v4.267h-12.4v-4.267h3.233l-1.2-4.333h-6.533l-1.334 4.333h3.367v4.267h-11.167v-4.267h3.1l4.9-16.7h-3.366V.733h16.466v4.266h-3.4l5.3 16.7h3.034z" fill="#fff"/></g><defs><clipPath id="clip0"><path fill="#fff" transform="translate(0 .166)" d="M0 0h200v26.333H0z"/></clipPath></defs></svg>