<svg width="200" height="71" fill="none" xmlns="http://www.w3.org/2000/svg"><g clip-path="url(#clip0)" fill="#fff"><path d="M25.875 43.785l-1.373-.458c-.915-.356-.915-.406-.762-1.372.356-2.491 1.677-4.524 3.253-6.405 1.322-1.525 2.694-3.05 4.016-4.576.305-.355.61-.762.864-1.169.56-.915.814-1.779.407-2.846-.61-1.729-.56-3.61-.458-5.389 0-.254.051-.56.051-.915-.305.254-.407.508-.508.762-.915 2.186-1.78 4.423-1.881 6.863 0 .102 0 .254-.153.305-.203.051-.254-.102-.254-.254-.05-.305-.152-.61-.254-1.017-.356.407-.61.763-.915 1.068-.102.101-.152.305-.305.152-.407-.254-.712-.559-.864-1.067-.102-.407.05-.763.407-1.017.406-.305.711-.66 1.169-.915.813-.407 1.169-1.067 1.322-1.982.305-1.78.508-3.61 1.22-5.338 1.067-2.694 2.49-5.185 4.066-7.625a7.182 7.182 0 001.22-4.525c-.05-.66-.305-.864-.965-.66-.153.05-.356.152-.509.203-.864.407-1.728.457-2.542-.102-.711-.457-1.423-.356-2.084.153l-1.22 1.067c-1.372 1.17-2.897 1.474-4.626.712-.915-.407-1.88-.56-2.897-.254-.153.05-.356.101-.509.254-.101.102-.152.356-.356.203-.152-.101-.101-.305-.05-.457.152-.509.457-.915.762-1.271 1.017-1.271 2.288-2.135 4.016-2.186.966-.05 1.78-.61 2.44-1.322.61-.66 1.22-1.321 2.135-1.576.814-.203 1.576-.254 2.339.102 1.22.56 2.389.56 3.558-.05.102-.052.203-.102.356-.153 1.22-.356 1.576-.153 1.982 1.118.153.407.305.813.61 1.17.661.914.661 1.88.356 2.897-.152.508-.61.813-.966 1.118-.203.153-.406.356-.406.661.05 1.678-.255 3.355.254 4.982 1.322 4.626 4.22 7.727 8.998 8.845.813.204 1.626.102 2.49.153.153 0 .407-.102.458.152.05.254-.203.305-.407.356-.152.05-.305.102-.508.152.153.305.508.407.712.61.203.153.508.255.406.61a.977.977 0 01-.762.56 1.027 1.027 0 01-.915-.305c-1.017-.966-2.288-1.373-3.61-1.525-1.779-.255-3.253-1.119-4.625-2.288a11.404 11.404 0 01-2.237-2.643c-.05.254-.102.406-.153.559-.254 4.168.61 8.032 2.847 11.641a34.603 34.603 0 006.05 7.27c.508.457 1.067.864 1.575 1.372.204.203.356.203.509-.05.457-.662 1.169-.916 1.88-1.17.509-.203.61.05.61.457-.101.916-.61 1.627-1.118 2.339-.915 1.22-2.033 2.237-3.253 3.202-.305.255-.61.407-1.068.153-3.762-1.728-6.862-4.321-9.303-7.625-.101-.153-.254-.305-.406-.509-.763 1.17-1.881 1.83-2.898 2.593-1.372 1.068-2.338 2.44-3.253 3.914-.203.305-.153.458.203.61.254.102.509.305.763.458.152.101.355.101.355.305 0 .203-.254.254-.406.305-.56.152-1.068.356-1.627.508-.102.051-.203 0-.254.102h-3zm24.604-6.456a4.418 4.418 0 00-1.322.813c-.407.356-.457.61.05.915.153.102.306.508.51.203a6.552 6.552 0 00.965-1.626c0-.102.05-.305-.203-.305zm-21.35 5.897c.508-.153.965-.305 1.473-.458-1.118-.762-1.22-.762-1.474.458zm42.049 15.27c-.61 0-1.271 0-1.881.051-.458.05-.66-.102-.712-.508-.101-.712-.508-.966-1.22-.915-.813.05-1.576 0-2.389-.051-.457-.051-.712.152-.763.559-.101.66-.457 1.017-1.22.864-.305-.05-.61 0-.915 0-.61 0-.711-.102-.457-.66.407-1.017.864-2.034 1.27-3 .662-1.474 1.322-2.898 1.932-4.372.153-.356.356-.508.763-.508 1.88-.102 1.932-.153 2.643 1.525.915 2.084 1.78 4.22 2.746 6.303.05.102.05.255.203.306v.406zm-4.88-3.507c.152 0 .305.05.508.05.305 0 .457-.101.356-.457-.153-.56-.356-1.068-.509-1.627-.05-.152-.152-.254-.305-.254-.152 0-.254.152-.305.254-.152.356-.254.661-.406 1.017-.356.966-.356.966.66 1.017zm-41.685 8.743c.407-1.067.966-1.88 1.83-2.44 1.728-1.118 4.27-.915 5.795.457.254.255.203.407 0 .61l-.915.916c-.254.254-.457.152-.712 0-.762-.509-1.575-.56-2.49-.255-1.271.458-1.475 2.237-1.119 3.254.407 1.169 1.576 1.677 2.745 1.27.305-.101.661-.203.864-.406.458-.407.763-.254 1.068.203.05.102.152.153.203.255.814.965.763 1.016-.356 1.626-1.626.915-4.27.763-5.693-.457-1.017-.864-1.474-1.983-1.474-3.305v-.864c-.407.661-.814 1.22-1.525 1.474-.356.102-.102.306 0 .407a65.993 65.993 0 001.728 2.237c.102.152.305.254.254.457-.101.204-.305.102-.508.153H23.8c-1.83 0-1.83 0-2.898-1.576l-.61-.915c-.203-.356-.56-.407-.915-.305-.305.102-.203.407-.203.61 0 .56.05 1.118.05 1.627 0 .356-.101.559-.508.508a7.65 7.65 0 00-1.525 0c-.457 0-.61-.203-.56-.61.153-1.983-.1-4.016.103-5.998.05-.458 0-.915-.051-1.373 0-.407.101-.66.61-.66 1.423.05 2.796 0 4.219.05 1.728 0 2.745 1.068 3.101 3.05zm-5.287-.152c.051 1.067.051 1.067 1.119 1.016.203 0 .406 0 .61-.05.711-.051.965-.306.965-.916 0-.711-.254-1.016-.915-1.118-.254-.05-.508-.05-.711-.05-1.068.1-1.068.1-1.068 1.118zm33.653-9.913c-.509.61-1.017 1.27-1.525 1.881-.509.66-.661.66-1.22 0-.509-.61-.915-1.322-1.576-1.932v4.321c0 .407-.102.56-.56.56-1.779.05-1.779.05-1.779-1.678 0-2.135 0-4.27-.05-6.405 0-.407.152-.61.559-.509.254.051.559.102.762 0 .763-.203 1.271.102 1.678.763l1.22 1.677c.254.305.407.305.66 0 .509-.711 1.068-1.372 1.577-2.084.152-.203.305-.356.61-.305a8.15 8.15 0 001.575 0c.356 0 .509.102.458.508-.153 2.288.102 4.576-.05 6.863-.102 1.22 0 1.22-1.22 1.17h-.357c-.559.05-.711-.204-.711-.763.05-1.373 0-2.694 0-4.067h-.051zm-24.045.61v3.508c0 .711 0 .762-.711.762h-1.271c-.458.051-.56-.203-.56-.56.051-1.982.051-3.964.102-5.947 0-.508-.05-1.067-.05-1.576 0-.355.152-.508.508-.457h.101c1.068-.203 1.83.254 2.44 1.17.763 1.117 1.627 2.134 2.542 3.354v-1.728c0-.712 0-1.474-.05-2.186 0-.458.152-.66.61-.66.508.05.965 0 1.474.05.355 0 .508.152.457.56-.254 2.236.102 4.472-.05 6.71-.102 1.27-.102 1.27-1.424 1.423-.508.05-.813-.153-1.118-.56a105.901 105.901 0 00-2.847-3.761c0-.153-.102-.153-.153-.102zM61.52 64.901v-3.71c0-.458.152-.61.61-.61 1.422.05 2.795 0 4.218.05 1.271.051 2.288.712 2.746 1.932.355.966.254 1.982-.509 2.796-.152.152-.305.356-.508.407-.61.203-.61.508-.203.965.508.61 1.016 1.271 1.525 1.932.101.153.305.254.203.458-.102.203-.305.101-.508.101-.56 0-1.119 0-1.729.051-.305 0-.508-.102-.712-.356l-1.525-2.135c-.254-.356-.559-.406-.915-.305-.355.102-.203.458-.203.661 0 .56 0 1.118.05 1.627 0 .305-.1.508-.457.457-.508 0-.965-.05-1.474 0-.508 0-.712-.152-.712-.712.102-1.169.102-2.389.102-3.609zm3.608-.305h.61c.712-.05 1.017-.305 1.017-.915 0-.66-.305-1.067-1.017-1.118-.254 0-.508-.051-.711 0-.814.05-1.17-.153-.915.966.05.152.05.305 0 .406-.102.509.152.712.61.661h.406zM36.102 53.921c.102-2.948 1.83-4.474 4.677-4.524 2.948-.051 4.473 1.982 4.473 4.473 0 3.152-1.88 4.677-4.372 4.677-2.897.05-4.778-1.627-4.778-4.626zm2.338 0c0 1.423.966 2.44 2.288 2.44 1.169 0 2.084-1.017 2.084-2.44 0-1.373-.864-2.44-2.084-2.44-1.373.05-2.237.966-2.288 2.44zm-22.164-.001c.051-2.948 1.83-4.422 4.626-4.523 2.695-.051 4.525 1.779 4.525 4.473 0 3.1-1.881 4.677-4.423 4.677-2.847.05-4.779-1.627-4.728-4.626zm6.71.052c0-1.424-.813-2.44-2.033-2.44-1.372 0-2.338.915-2.338 2.389 0 1.372.966 2.44 2.287 2.49 1.22 0 2.085-1.016 2.085-2.44zM.06 54.175v-3.66c0-.458.152-.61.61-.61a53.95 53.95 0 005.744 0c.407 0 .61.152.56.559 0 .153-.051.305-.051.508-.051 1.119-.051 1.119-1.17 1.119-.915 0-1.83 0-2.745-.051-.457 0-.508.254-.508.61s0 .66.508.66c1.017-.05 2.034-.05 3.05-.101.458 0 .712.152.661.61v.102c.051 1.321.051 1.27-1.22 1.27-.813 0-1.677.051-2.49 0-.56-.05-.458.407-.458.712-.051.356 0 .56.457.56 1.17-.051 2.339 0 3.457-.051.508 0 .712.152.712.711-.051 1.627.05 1.373-1.322 1.373-1.728.05-3.406.05-5.083.101-.661 0-.814-.152-.763-.813.102-1.22 0-2.44.05-3.61zm36.449 9.303v2.338c.05 1.017.457 1.627 1.22 1.729 1.067.203 1.931-.407 1.931-1.525.051-1.475.102-3 0-4.525-.05-.915.051-.965.966-.864.305.051.61 0 .915 0 .458-.05.661.153.661.56 0 1.677.05 3.354-.05 5.032-.153 2.287-1.678 3.558-3.966 3.508-1.576-.051-2.897-.458-3.61-1.983a4.58 4.58 0 01-.457-1.627V61.09c0-.356.102-.509.509-.509.457 0 .915.051 1.423 0 .407 0 .56.153.56.56-.102.813-.051 1.575-.102 2.338.05 0 .05 0 0 0zm19.825-2.898c.711-.152 1.22.153 1.576 1.017.915 2.338 1.982 4.575 2.948 6.863.305.66.204.813-.559.762-.102 0-.203-.05-.305 0-.966.204-1.627 0-1.83-1.118-.05-.254-.254-.254-.458-.305-1.016 0-2.084 0-3.1-.05-.356 0-.407.253-.509.507-.305.915-.203 1.017-1.322.915-.254 0-.508 0-.762.051-.661.051-.763-.101-.508-.711.457-1.119.965-2.186 1.423-3.305.56-1.22 1.17-2.44 1.627-3.71.254-.661.61-.966 1.27-.865.102-.05.204-.05.509-.05zm-.204 5.135h.56c.254 0 .355-.153.305-.407a21.592 21.592 0 00-.56-1.678c-.05-.152-.101-.254-.305-.254-.152 0-.254.153-.305.255-.152.355-.254.66-.406 1.016-.305.966-.458 1.068.712 1.068z"/><path d="M10.633 54.073c0 2.085 1.729 3 3.66 1.932.763-.457.763-.457 1.322.254.865 1.017.814 1.068-.356 1.729-1.321.762-4.168.813-5.642-.509-1.424-1.22-1.932-3.558-.966-5.642 1.27-2.695 5.083-3.406 7.32-1.322.254.203.203.407 0 .61-.305.305-.61.61-.915.966-.254.254-.407.102-.66-.051-.51-.356-1.12-.56-1.73-.457-1.423.203-2.033 1.016-2.033 2.49zM8.55 69.73c-2.746.052-4.525-1.168-4.88-3.507-.56-3.456 1.778-6.05 5.286-5.642.915.101 1.627.559 2.338 1.067.305.254.305.458.051.712l-.101.102c-.56.711-1.068 1.169-2.085.508-.762-.508-2.084-.153-2.592.508-.712.864-.763 1.881-.356 2.898.305.864 1.067 1.322 1.983 1.322.61 0 1.22-.255 1.677-.61.407-.305.66-.204.915.152.153.203.305.356.458.56.559.66.559.66-.102 1.168-.864.61-1.881.763-2.593.763zm35.177-4.829v-3.71c0-.458.152-.61.61-.56.407.051.813.051 1.22 0 .356 0 .508.153.508.508 0 1.83 0 3.66-.05 5.49 0 .458.101.661.61.61.864-.05 1.728.051 2.541-.101.458-.05.712.05.661.56-.05.304 0 .66 0 .965.05.508-.203.66-.66.61-1.628-.152-3.254 0-4.881 0-.407 0-.61-.102-.61-.56.05-1.32.05-2.592.05-3.812zm-31.01 0V61.14c0-.407.102-.61.509-.56a7.12 7.12 0 001.474 0c.458-.05.56.204.56.56 0 1.27.05 2.592 0 3.863-.052 1.27.05 2.491-.052 3.762-.05.406-.152.508-.508.457h-.508c-1.424-.05-1.424-.05-1.475-1.474v-2.847zM57.96 54.073v-3.761c0-.305.051-.458.407-.458.458 0 .915 0 1.424-.05.406-.052.559.101.559.558v3.915c0 1.22-.05 2.49 0 3.71 0 .509-.203.712-.66.61-.153 0-.306-.05-.408-.05-1.169-.051-1.169-.051-1.22-1.22-.101-1.118-.101-2.186-.101-3.254zm3.05-7.116c-.304.61-.711 1.067-1.118 1.575-.102.153-.305.204-.508.153-.356 0-.712-.05-1.119-.05-.305 0-.406-.102-.254-.408.254-.457.356-1.016.712-1.372.203-.05 1.932 0 2.288.102zm32.206 19.559c-1.2 0-2.276-1.104-2.276-3.71 0-1.6.51-3.752 2.262-3.752.993 0 1.945 1.145 2 1.2a.3.3 0 00.22.096c.166 0 .29-.124.29-.29v-2.11a.296.296 0 00-.151-.262c-.855-.538-1.448-.855-2.676-.855-1.42 0-4.096.91-4.096 5.959 0 4.234 1.972 5.93 4.082 5.93 1.145 0 1.986-.4 2.704-.91a.307.307 0 00.138-.234V65.55a.283.283 0 00-.29-.29c-.4 0-.883 1.256-2.207 1.256zm13.724-5.063c-.29 0-1.104.083-1.104.759 0 .62.662.717 1.021.8 2.855.69 2.62 2.552 2.62 3.31 0 .773-.551 2.4-3.131 2.4-1.351 0-2.358-.607-2.358-.607a.29.29 0 01-.152-.248v-1.71c0-.193.248-.442.511-.193 0 0 .524.648 1.806.841.676.096 1.366-.166 1.366-.704 0-.468-.221-.813-.938-.91-.566-.069-2.703-.138-2.703-2.772 0-2.428 2.124-2.8 3.075-2.8a4.62 4.62 0 012.083.51c.124.07.193.152.193.276v1.517c0 .276-.276.345-.469.249-.207-.125-.772-.718-1.82-.718zm3.338-.11c0 .165.124.29.289.29h.511v4.496c0 2.359 1.476 2.593 2.234 2.593.469 0 .828-.083 1.297-.18.124-.027.207-.151.207-.275v-1.283a.295.295 0 00-.373-.276c-.138.028-.593.166-1.034-.013-.359-.138-.4-.621-.4-.842V61.62h1.517a.299.299 0 00.29-.276v-1.31a.292.292 0 00-.29-.29h-1.503V57.08a.291.291 0 00-.29-.29l-1.393.166c-.138.014-.248.138-.262.276v2.496h-.511c-.165.014-.289.138-.289.29v1.324zm33.888 5.172h-3.075c-.028 0-.276-.014-.29-.275v-9.09c0-.193-.138-.359-.317-.331l-1.435.165c-.179.014-.303.138-.303.304v11.145c0 .165.124.303.29.303h5.144a.319.319 0 00.331-.331V66.86c0-.234-.082-.345-.345-.345zm18.635-9.324a.269.269 0 00-.276-.276h-1.904a.284.284 0 00-.275.207l-1.587 5.407c-.027.069-.069.124-.151.124-.083 0-.124-.055-.152-.124l-1.586-5.407a.295.295 0 00-.276-.207h-1.903a.28.28 0 00-.29.276v11.227c0 .166.138.318.303.318h1.311c.22 0 .344-.124.344-.331v-7.366l1.421 4.8c.042.11.097.166.235.166h1.144c.138 0 .235-.042.262-.166l1.421-4.8v7.407c0 .152.11.276.276.276h1.379c.166 0 .29-.124.29-.303l.014-11.228zm-26.179 6.524a.283.283 0 00-.29-.29h-2.386c-.165 0-.29.097-.29.29v1.641c0 .166.097.276.304.276h2.386c.179 0 .29-.11.29-.29-.014 0-.014-1.627-.014-1.627zm-15.724 5.007c.179 0 .29-.124.29-.276V57.095c0-.166-.124-.318-.29-.29l-1.352.152c-.193.027-.289.138-.289.29v11.172c0 .179.124.303.289.303h1.352zm3.2 0c.179 0 .29-.124.29-.276V57.095c0-.166-.125-.318-.29-.29l-1.352.152c-.193.027-.289.138-.289.29v11.172c0 .179.124.303.289.303h1.352zm-6.386-9.958a.298.298 0 00.289-.276v-1.393c0-.166-.124-.304-.289-.29l-1.352.152c-.166.014-.29.138-.29.29v1.213c0 .166.124.304.29.304h1.352zm-1.642 9.654c0 .194.124.304.29.304h1.365c.18 0 .29-.11.29-.29l-.014-8.386c0-.165-.11-.29-.276-.29h-1.365c-.193 0-.29.125-.29.29v8.372zm-15.475-5.503c.234-.027.262-.234.262-.317 0-.814-.841-.993-1.586-.993-.814 0-1.435.51-1.67.51a.291.291 0 01-.289-.29v-1.392c0-.249.097-.318.235-.359.179-.055 1.103-.345 2.124-.345 3.076 0 3.076 1.945 3.076 2.966v5.544a.298.298 0 01-.276.276l-1.159.07c-.055 0-.469.04-.524-.483 0-.07-.345.634-1.959.634-.69 0-2.04-.62-2.04-2.676.013-2.896 2.302-2.993 3.806-3.145zm.262 1.89a.28.28 0 00-.317-.276 6.21 6.21 0 00-1.2.262.842.842 0 00-.442.373c-.193.33-.179.827-.124 1.076.055.248.317.675.98.62.193-.014 1.103-.262 1.103-.717v-1.338zm28.4-1.89c.22-.027.262-.234.262-.317 0-.814-.842-.993-1.587-.993-.813 0-1.448.51-1.669.51a.291.291 0 01-.289-.29v-1.392c0-.249.096-.318.234-.359.18-.055 1.104-.345 2.124-.345 3.076 0 3.076 1.945 3.076 2.966v5.544a.297.297 0 01-.276.276l-1.158.07c-.055 0-.469.04-.524-.483 0-.07-.345.634-1.959.634-.69 0-2.041-.62-2.041-2.676.013-2.896 2.303-2.993 3.807-3.145zm.262 1.89a.28.28 0 00-.318-.276c-.013 0-.634.07-1.2.262a.844.844 0 00-.441.373c-.193.33-.179.827-.124 1.076.055.248.317.675.979.62.193-.014 1.104-.262 1.104-.717v-1.338zm19.64-1.89c.221-.027.263-.234.263-.317 0-.814-.842-.993-1.573-.993-.814 0-1.448.51-1.669.51a.291.291 0 01-.289-.29v-1.392c0-.249.096-.318.234-.359.179-.055 1.103-.345 2.124-.345 3.076 0 3.076 1.945 3.076 2.966v5.544a.297.297 0 01-.276.276l-1.158.07c-.056 0-.469.04-.525-.483 0-.07-.344.634-1.958.634-.69 0-2.042-.62-2.042-2.676 0-2.896 2.29-2.993 3.793-3.145zm.263 1.89a.28.28 0 00-.318-.276c-.013 0-.634.07-1.213.262a.842.842 0 00-.442.373c-.193.33-.179.827-.124 1.076.055.248.317.675.979.62.193-.014 1.09-.262 1.09-.717l.028-1.338zm18.261-1.89c.235-.027.262-.234.262-.317 0-.814-.841-.993-1.572-.993-.814 0-1.434.51-1.669.51a.291.291 0 01-.289-.29v-1.392c0-.249.096-.318.234-.359.179-.055 1.103-.345 2.124-.345 3.076 0 3.076 1.945 3.076 2.966v5.544a.297.297 0 01-.276.276l-1.159.07c-.055 0-.482.04-.524-.483 0-.07-.345.634-1.958.634-.69 0-2.042-.62-2.042-2.676 0-2.896 2.29-2.993 3.793-3.145zm.262 1.89a.279.279 0 00-.317-.276c-.014 0-.634.07-1.214.262a.844.844 0 00-.441.373c-.193.33-.179.827-.124 1.076.055.248.317.675.979.62.193-.014 1.104-.262 1.104-.717v-1.338h.013zm27.89-1.89c.22-.027.262-.234.262-.317 0-.814-.842-.993-1.573-.993-.813 0-1.434.51-1.668.51a.291.291 0 01-.29-.29v-1.392c0-.249.096-.318.234-.359.18-.055 1.104-.345 2.124-.345 3.09 0 3.076 1.945 3.076 2.966v5.544a.297.297 0 01-.276.276l-1.158.07c-.055 0-.469.04-.524-.483 0-.07-.345.634-1.959.634-.69 0-2.041-.62-2.041-2.676 0-2.896 2.303-2.993 3.793-3.145zm.276 1.89a.28.28 0 00-.318-.276c-.013 0-.634.07-1.213.262a.846.846 0 00-.442.373c-.193.33-.179.827-.124 1.076.055.248.317.675.979.62.194-.014 1.09-.262 1.09-.717l.028-1.338zm-11.131 3.834c-.083-.083-.083-.152-.083-.193V57.315s-.014-.096.069-.18c.096-.096.248-.096.248-.096s1.228-.138 1.338-.138c0 0 .097-.014.193.07a.233.233 0 01.083.165v3.682c.441-.772 1.062-1.172 1.958-1.172 1.462 0 2.166.8 2.166 2.593v6.207c0 .11 0 .165-.083.234a.403.403 0 01-.221.083h-1.379s-.124 0-.207-.083c-.069-.082-.069-.138-.069-.193v-5.13c0-.911-.289-1.27-.993-1.27-.8 0-1.172.497-1.172 1.504v4.938c0 .041 0 .096-.083.165-.069.07-.179.07-.179.07H185.2c-.027-.042-.138-.042-.22-.125zm-13.821.001c-.082-.083-.082-.18-.082-.18v-8.413s-.014-.097.069-.18c.096-.096.248-.096.248-.096s1.227-.138 1.338-.138c0 0 .096-.014.193.069a.233.233 0 01.083.165v.938c.441-.772 1.062-1.172 1.958-1.172 1.462 0 2.166.8 2.166 2.593v6.248c0 .027 0 .124-.083.18-.11.082-.221.082-.221.082h-1.379s-.124 0-.207-.083c-.069-.083-.069-.152-.069-.193v-5.13c0-.911-.29-1.27-.993-1.27-.8 0-1.172.497-1.172 1.504v4.869c0 .096 0 .151-.083.22a.284.284 0 01-.18.07h-1.393s-.11 0-.193-.084zm10.566-8.952c-1.09 0-3.504.634-3.504 4.551 0 4.055 2.648 4.483 3.559 4.483 1.131 0 1.876-.566 1.889-.566.125-.083.152-.179.152-.441v-1.462c0-.386-.317-.386-.538-.124-.193.22-.469.648-1.448.648-.524 0-1.628-.248-1.628-2.51 0-2.304 1.076-2.593 1.6-2.593.911 0 1.38.593 1.518.8.137.207.496.069.496-.152v-1.683c.014-.524-.896-.952-2.096-.952zm-27.131-41.434h-22.399c-1.297 0-2.345 1.035-2.345 2.276v22.027c0 2.828 1.531 5.09 4.4 6.538 2.303 1.145 5.462 1.752 9.145 1.752 3.682 0 6.841-.607 9.144-1.752 2.883-1.434 4.4-3.696 4.4-6.538V20.544c0-1.255-1.048-2.29-2.345-2.29zM140.967 37.44a.62.62 0 01-.579.62h-2.497v-2.247a1.171 1.171 0 10-2.344 0v2.234h-2.497a.627.627 0 01-.565-.62v-.11l.565-6.194v-1.807h1.779v1.766h1.007V27.55h1.779v3.53h.994v-1.765h1.779v1.78l.579 6.22v.124zm14.276 4.345c0 7.145-10.455 7.31-10.469 7.296-1.145.042-1.076-1.255-1.076-1.255V21.261c0-.717.497-1.296 1.131-1.296h9.269c.579 0 1.076.496 1.145 1.13v20.69zM151.822 6.13a3.79 3.79 0 00-2.469.924 3.921 3.921 0 00-2.869-1.214 4.013 4.013 0 00-3.076 1.435 4.018 4.018 0 00-3.089-1.435 3.977 3.977 0 00-2.883 1.214 3.68 3.68 0 00-2.455-.924 3.702 3.702 0 00-3.71 3.71c0 .842.303 1.614.772 2.248.234.318.538.552.938.566.552.014 1.214-.566.883-1.283-.111-.22-.621-.758-.594-1.517.028-.965.745-1.752 1.711-1.752.607 0 1.186.331 1.503.8a4.285 4.285 0 00-.124.952c0 .855.276 1.504.276 1.504.193.496.538.855 1.09.84a1.11 1.11 0 001.131-1.13c0-.18-.111-.497-.152-.607a1.622 1.622 0 01-.124-.635 1.74 1.74 0 011.738-1.737c.951 0 1.751.786 1.751 1.737v1.366a1.36 1.36 0 001.338 1.352 1.34 1.34 0 001.338-1.338l.014-1.366a1.73 1.73 0 011.738-1.738c.965 0 1.752.773 1.752 1.738 0 .22-.042.428-.125.635-.041.11-.138.441-.151.607-.014.634.482 1.117 1.131 1.13.538 0 .896-.358 1.089-.84 0 0 .276-.649.276-1.504 0-.331-.041-.648-.124-.952a1.86 1.86 0 011.503-.8c.966 0 1.711.8 1.725 1.752 0 .758-.497 1.296-.594 1.517-.344.717.318 1.283.869 1.283.414-.014.718-.235.938-.566.483-.62.786-1.407.786-2.248-.027-2.055-1.696-3.724-3.751-3.724zm-4.717 9.186c0 .676.538 1.228 1.228 1.228a1.23 1.23 0 001.227-1.228 1.23 1.23 0 00-1.227-1.227 1.23 1.23 0 00-1.228 1.227zm-9.848 0a1.23 1.23 0 001.228 1.228 1.23 1.23 0 001.227-1.228 1.23 1.23 0 00-1.227-1.227 1.23 1.23 0 00-1.228 1.227zm14.758 0a1.23 1.23 0 001.227 1.228 1.23 1.23 0 001.228-1.228 1.23 1.23 0 00-1.228-1.227 1.23 1.23 0 00-1.227 1.227zm-9.848 0a1.23 1.23 0 001.227 1.228 1.23 1.23 0 001.228-1.228 1.23 1.23 0 00-1.228-1.227 1.23 1.23 0 00-1.227 1.227zm-9.848.001a1.23 1.23 0 001.227 1.227 1.23 1.23 0 001.228-1.227 1.23 1.23 0 00-1.228-1.228c-.689 0-1.227.552-1.227 1.228zM145.063 2.24h-1.117V1.123a.553.553 0 00-.552-.551.553.553 0 00-.551.551V2.24h-1.104a.565.565 0 00-.565.552c0 .304.262.552.565.552h1.104v1.103c0 .304.248.566.551.566a.565.565 0 00.552-.566V3.344h1.117a.553.553 0 00.552-.552.553.553 0 00-.552-.552z"/></g><defs><clipPath id="clip0"><path fill="#fff" transform="translate(0 .572)" d="M0 0h200v70.109H0z"/></clipPath></defs></svg>