<svg width="200" height="48" fill="none" xmlns="http://www.w3.org/2000/svg"><path fill-rule="evenodd" clip-rule="evenodd" d="M17.153 28.002c-3.533 2.133-7.566 2.467-8.999-.2 12.432.867 6.733-15.032-1.967-8.732-1.6-5.433 3.567-9.866 10.033-6.833l.1-6.066C8.154 2.47-5.378 9.237 2.255 24.203.22 34.668 11.42 38.335 19.953 32.768c1.466 1.634 5.266 2.867 8.866.534l.066-4.633c-2.033 1.7-5.5 1.3-4.466.033 10.632-22.831-10.699-23.731-7.266-.7zm-7.7-3.833c-.666 0-1.166-.533-1.166-1.2 0-.666.567-1.166 1.2-1.166.667 0 1.167.533 1.167 1.2 0 .666-.534 1.166-1.2 1.166z" fill="#fff"/><path d="M21.086 21.07c-.233 1.733 0 3.2.5 3.266.533.067 1.133-1.267 1.367-3 .233-1.733 0-3.2-.5-3.266-.5-.067-1.1 1.266-1.367 3z" fill="#fff"/><path fill-rule="evenodd" clip-rule="evenodd" d="M53.25 32.335C27.652 48.234 21.52 2.838 49.983 7.238l-.133 5.432c-20.365-5.232-15.265 26.731.333 15.032-1.066-5.4 5.833-7.266 6-3.466-.134 1.8-.034 4.8 2.166 4.933 2.133.166 3.567-2.3 1.2-2.633-9.132-3.067 1.2-16.765 6.6-5.5 2.333.034 4.366.767 5.699 2.733.167-.966 2.166-2.066 3.7-1.666l-.067 4.8c-1.533.066-2.766.766-2.733 2.466l-.067 4.833-4.233-.067.067-4.633c.033-1.3-.867-2.166-2.8-2.166-.067 3.9-6.066 9.032-12.465 5zm7.8-9.599a.911.911 0 01-.867-.9c0-.5.4-.9.9-.866a.91.91 0 01.866.9c0 .5-.4.866-.9.866zm17.564-.4l.834-10.532 4.666-.034-1.034 11.166 1.434.034c7.466-14.633 21.598-.534 5.966 5.966 2.033 2.833 5.133 1.666 7.632-.067l-.1 5.4c-3.133 3.032-11.065 2.766-13.365-4.3-.733-2.033-2-1.6-1.966-.933l-.1 5.832-4.667-.066.134-7.7-1.1-.066.066-4.733 1.6.033zm11.232 2.133c-.4-.266-.233-1.166.367-2 .567-.833 1.4-1.266 1.8-.966.4.267.233 1.166-.367 2-.6.833-1.4 1.266-1.8.966zm18.498-4.333L107.078.105l4.999-.033 1.167 17.665c2.4-.234 6.333.4 8.199 4.766 2.167-2.867 10.199-4.567 10.899 6.133l-.1 6.066-5.399-.1.1-6.166c0-3.367-3.867-3.433-3.967-.167l-.133 7.6-5.099-.068-.334-9.065c-.366-2.8-4.666-4.5-3.666-.534l.029.266c.314 2.84 2.306 20.858-5.962 21.5-7.9-.5-6.966-20.532.533-27.832zm-.199 19.832c-.5-.033-.834-2.467-.667-5.433.133-2.966.7-5.333 1.233-5.333.534.034.834 2.467.667 5.433-.167 2.967-.7 5.366-1.233 5.333z" fill="#fff"/><path d="M142.875 40.801c-.067.7.367 1.333.967 1.367.599.066 1.133-.467 1.199-1.2.067-.7-.366-1.334-.966-1.4-.6-.033-1.133.5-1.2 1.233z" fill="#fff"/><path fill-rule="evenodd" clip-rule="evenodd" d="M143.008 47.467c6.433.6 7.4-5.766 7-9.566l5.932-4.1c1.967 3.834 10.566 3.467 14.632 1 1.7 1.367 6.067.767 7.433-.366l12.166-7.233c3.666-2.2 4.599 1.334 3.433 2.567-1.8 1.8-5.233 2.8-6.033 2.966l-.1 5.4c13.732-.467 16.565-17.032 6.566-16.999-3.223-.262-7.711 2.47-11.729 4.916-2.631 1.602-5.062 3.082-6.803 3.517 5.166-12-15.465-12.866-10.732 2-2.133.933-4 .166-4.766-1 4.666-6 6.666-15.599-.9-16.965-4.6-.8-9.366 7.132-5.966 16.731-1.034.434-3.1 1.067-3.1 1.067l.1-7-5.066-.066c-1.4 3.733-5.166 5.633-5.833 4.9-.767-2.667 2.8-5.5 9.632-5.833l.1-5.333c-8.865.3-14.665 4.866-15.631 10.099-.334 7.666 6.666 7.3 10.999 4.266l-.034 1.7c-8.332 3.066-8.266 12.632-1.3 13.332zM156.94 22.27c-.267 1.633-.067 3.033.433 3.1.5.1 1.1-1.167 1.367-2.8.267-1.634.067-3.034-.433-3.1-.5-.1-1.1 1.166-1.367 2.8zm13.532 6.699c-.7 0-1.233-.867-1.233-1.933.033-1.067.6-1.9 1.3-1.9.7 0 1.233.867 1.233 1.933-.033 1.067-.6 1.9-1.3 1.9z" fill="#fff"/><path d="M186.671 11.17l2.6 4.5-10.433 6.5-3.233-4.1 11.066-6.9z" fill="#fff"/></svg>