<svg width="251" height="41" fill="none" xmlns="http://www.w3.org/2000/svg"><path d="M10.32 20.657v1.531H6.611v5.32H5V16.224h6.448v1.531H6.612v2.902h3.707zm9.425 7.012a4.897 4.897 0 01-1.95-.387 4.707 4.707 0 01-1.547-1.096 4.542 4.542 0 01-.87-1.403c-.205-.537-.307-1.187-.307-1.95v-6.61h1.612v6.69c0 .538.059.984.177 1.338.13.344.306.64.532.887.28.312.618.559 1.016.741.408.172.854.258 1.337.258.484 0 .925-.086 1.322-.258.409-.182.753-.43 1.032-.741.226-.247.398-.543.516-.887.129-.354.193-.8.193-1.338v-6.69h1.612v6.61c0 .763-.107 1.413-.322 1.95a4.313 4.313 0 01-.854 1.403c-.43.462-.946.827-1.548 1.096a4.897 4.897 0 01-1.95.387zm11.046-8.447v8.285H29.18V16.224h1.129l6.77 8.285v-8.285h1.612v11.284H37.56l-6.77-8.286zm20.706 2.644c0-.634-.123-1.225-.37-1.773a3.83 3.83 0 00-1-1.387 3.569 3.569 0 00-1.29-.709c-.494-.161-1.139-.242-1.934-.242h-1.692v8.221h1.692c.795 0 1.44-.08 1.934-.242a3.569 3.569 0 001.29-.709 3.83 3.83 0 001-1.386c.246-.548.37-1.14.37-1.773zM43.6 27.508V16.224h3.385c.902 0 1.655.091 2.256.274.613.183 1.15.446 1.612.79a5.417 5.417 0 011.645 1.966 5.64 5.64 0 01.612 2.612c0 .945-.199 1.816-.596 2.611a5.418 5.418 0 01-1.645 1.967 5.132 5.132 0 01-1.611.79c-.613.182-1.37.273-2.273.273H43.6zm19.775-2.902h-4.756l-1.176 2.901h-1.677l4.675-11.283h1.128l4.675 11.284h-1.677l-1.192-2.902zm-4.11-1.531h3.481l-1.74-4.191-1.742 4.19zm9.641-1.209c0-.817.145-1.575.435-2.273a5.65 5.65 0 011.193-1.838 5.7 5.7 0 011.806-1.241 5.683 5.683 0 012.272-.451 5.7 5.7 0 012.29.467c.73.301 1.343.726 1.837 1.274l-1.08 1.064c-.333-.366-.774-.667-1.322-.903a4.077 4.077 0 00-1.725-.371 3.999 3.999 0 00-2.917 1.225 4.192 4.192 0 00-.87 1.354 4.56 4.56 0 00-.307 1.693c0 .634.108 1.214.323 1.74.214.527.51.978.886 1.355a4.07 4.07 0 001.354.87 4.513 4.513 0 001.676.306c.377 0 .726-.048 1.048-.145a4.286 4.286 0 001.628-.87c.215-.194.403-.387.564-.58l1.145 1.031a5.355 5.355 0 01-.854.854 5.537 5.537 0 01-2.257 1.08 5.09 5.09 0 01-1.273.162 6.196 6.196 0 01-2.338-.436 5.706 5.706 0 01-1.854-1.209 5.734 5.734 0 01-1.225-1.837 6.071 6.071 0 01-.435-2.321zm14.031-5.642h1.612v11.284h-1.612V16.224zm5.646 5.642c0-.817.145-1.58.435-2.29a5.655 5.655 0 011.193-1.837 5.312 5.312 0 011.79-1.225 5.499 5.499 0 012.224-.451c.795 0 1.537.15 2.225.451.687.29 1.284.699 1.789 1.225a5.653 5.653 0 011.193 1.838c.29.709.435 1.472.435 2.289 0 .827-.145 1.596-.435 2.305a5.891 5.891 0 01-1.193 1.837 5.64 5.64 0 01-1.79 1.226 5.662 5.662 0 01-2.224.435 5.664 5.664 0 01-2.224-.436 5.64 5.64 0 01-1.79-1.225 5.893 5.893 0 01-1.193-1.837 6.03 6.03 0 01-.435-2.305zm1.612 0c0 .612.102 1.182.306 1.708.205.516.484.967.839 1.354.365.377.79.672 1.273.887a3.999 3.999 0 001.612.322c.58 0 1.112-.107 1.596-.322.494-.215.919-.51 1.273-.887.366-.387.65-.838.855-1.354a4.686 4.686 0 00.306-1.708c0-.613-.102-1.177-.306-1.693a3.982 3.982 0 00-.855-1.354 3.717 3.717 0 00-1.273-.903 3.886 3.886 0 00-1.596-.322c-.58 0-1.118.107-1.612.322a3.934 3.934 0 00-1.273.903 4.119 4.119 0 00-.839 1.354 4.56 4.56 0 00-.306 1.693zm3.466-6.448L94.709 13H96.4l-1.692 2.418H93.66zm11.84 3.804v8.285h-1.612V16.224h1.129l6.77 8.285v-8.285h1.612v11.284h-1.129l-6.77-8.286zm19.151 6.013c.129.28.322.5.58.66.269.162.575.242.919.242.247 0 .484-.059.709-.177.237-.118.425-.269.565-.451.096-.13.172-.285.225-.468.054-.193.081-.462.081-.806v-8.011h1.612v7.898c0 .452-.032.828-.097 1.129a2.99 2.99 0 01-.29.79 3.282 3.282 0 01-1.161 1.176 3.098 3.098 0 01-1.644.452 3.417 3.417 0 01-1.773-.468 2.864 2.864 0 01-1.161-1.354l1.435-.612zm13.959 2.434a4.899 4.899 0 01-1.951-.387 4.715 4.715 0 01-1.547-1.096 4.553 4.553 0 01-.871-1.403c-.204-.537-.306-1.187-.306-1.95v-6.61h1.612v6.69c0 .538.059.984.177 1.338.129.344.307.64.532.887.28.312.618.559 1.016.741a3.41 3.41 0 001.338.258 3.3 3.3 0 001.322-.258 3.02 3.02 0 001.031-.741c.226-.247.398-.543.516-.887.129-.354.194-.8.194-1.338v-6.69h1.612v6.61c0 .763-.108 1.413-.323 1.95a4.314 4.314 0 01-.854 1.403c-.43.462-.946.827-1.548 1.096a4.894 4.894 0 01-1.95.387zm15.672-3.063h-4.755l-1.177 2.901h-1.677l4.675-11.283h1.128l4.675 11.284h-1.676l-1.193-2.902zm-4.111-1.531h3.482l-1.741-4.191-1.741 4.19zm12.141-3.853v8.285h-1.612V16.224h1.128l6.77 8.285v-8.285h1.612v11.284h-1.128l-6.77-8.286zm25.212 5.868h-1.129l-3.304-5.175v7.593h-1.612V16.224h1.128l4.352 6.883 4.353-6.883h1.128v11.284h-1.612v-7.593l-3.304 5.175zm16.076-.484h-4.755l-1.177 2.901h-1.676l4.675-11.283h1.128l4.675 11.284h-1.677l-1.193-2.902zm-4.11-1.531h3.482l-1.741-4.191-1.741 4.19zm12.14-.887v5.32h-1.612V16.224h3.95c.516 0 .945.059 1.289.177.344.108.645.269.903.484.344.28.613.618.806 1.015.204.398.306.833.306 1.306 0 .473-.102.908-.306 1.306a2.958 2.958 0 01-.806 1.015 2.64 2.64 0 01-.596.37 3.04 3.04 0 01-.726.227l4.046 5.384h-1.95l-4.014-5.32h-1.29zm2.257-1.531c.366 0 .65-.038.855-.113.204-.075.37-.177.499-.306a1.4 1.4 0 00.419-1.032 1.38 1.38 0 00-.113-.564 1.409 1.409 0 00-.306-.468 1.357 1.357 0 00-.499-.306c-.205-.075-.489-.113-.855-.113h-2.257v2.902h2.257zm7.571 1.209c0-.817.145-1.575.435-2.273a5.65 5.65 0 011.193-1.838 5.698 5.698 0 011.805-1.241 5.685 5.685 0 012.273-.451 5.7 5.7 0 012.289.467 5.002 5.002 0 011.838 1.274l-1.08 1.064c-.334-.366-.774-.667-1.322-.903a4.082 4.082 0 00-1.725-.371 4 4 0 00-2.918 1.225 4.198 4.198 0 00-.87 1.354 4.562 4.562 0 00-.306 1.693c0 .634.107 1.214.322 1.74.215.527.51.978.887 1.355.386.376.838.666 1.354.87a4.508 4.508 0 001.676.306c.376 0 .725-.048 1.048-.145.333-.096.634-.22.902-.37a4.49 4.49 0 00.726-.5c.215-.194.403-.387.564-.58l1.145 1.031a5.523 5.523 0 01-3.112 1.934 5.1 5.1 0 01-1.273.162 6.195 6.195 0 01-2.337-.436 5.704 5.704 0 01-1.854-1.209 5.733 5.733 0 01-1.225-1.837 6.075 6.075 0 01-.435-2.321zm21.929.322h-6.287v5.32h-1.611V16.224h1.611v4.433h6.287v-4.433H245v11.284h-1.612v-5.32z" fill="#fff"/></svg>