<svg width="316" height="56" fill="none" xmlns="http://www.w3.org/2000/svg"><path fill="#000" d="M0 0h315.684v55.053H0z"/><path fill-rule="evenodd" clip-rule="evenodd" d="M142.211 6h-7.457v40.481h7.457V6zm-12.618 12.829h-7.169v2.223c-2.18-1.768-4.99-2.794-8.145-2.794-7.571 0-13.651 6.272-13.651 14.425 0 3.763 1.377 7.184 3.557 9.693 2.466 2.85 6.367 4.675 10.495 4.675 2.811 0 5.45-.856 7.743-2.794v2.223h7.169l.001-27.651zm-7.456 17.96c-1.434 2.052-3.901 3.42-6.71 3.42-4.188 0-7.343-3.193-7.343-7.526 0-3.99 2.811-7.582 7.17-7.582a8.574 8.574 0 016.883 3.42v8.267zM77.113 46.48V28.52c1.032-1.424 3.614-3.42 6.767-3.42 1.722 0 3.212.57 4.188 1.54 1.032 1.026 1.663 2.451 1.663 5.187V46.48h7.456V32.4c0-4.731-1.033-7.525-2.868-9.691-2.294-2.737-5.793-4.448-9.636-4.448-3.097 0-5.735 1.083-7.858 2.794V18.83h-7.168v27.652h7.456zM65.64 18.83h-7.17v2.223c-2.18-1.767-4.99-2.793-8.143-2.793-7.571 0-13.65 6.271-13.65 14.424 0 3.764 1.376 7.184 3.555 9.694 2.467 2.85 6.367 4.675 10.497 4.675 2.81 0 5.448-.856 7.743-2.795v2.224h7.17L65.64 18.83zm-7.455 17.96c-1.433 2.053-3.901 3.422-6.71 3.422-4.188 0-7.342-3.194-7.342-7.527 0-3.99 2.81-7.582 7.17-7.582a8.575 8.575 0 016.882 3.42v8.267zm-28.391-.228c-1.205 1.825-3.614 3.65-6.653 3.65-4.532 0-7.683-3.194-7.683-7.527 0-4.22 3.21-7.582 7.513-7.582 2.695 0 4.932 1.368 6.422 3.306l5.276-4.619c-2.58-3.306-6.883-5.53-11.7-5.53C14.481 18.26 8 24.644 8 32.684c0 7.983 6.31 14.369 14.913 14.369 5.22 0 9.349-1.882 12.618-6.215l-5.736-4.277z" fill="#29DBFF"/><path fill-rule="evenodd" clip-rule="evenodd" d="M287.89 28.522c1.017-1.426 3.563-3.42 6.675-3.42 1.694 0 3.165.57 4.127 1.538 1.018 1.027 1.639 2.452 1.639 5.191v14.652h7.353V32.4c0-4.733-1.018-7.527-2.828-9.694a12.315 12.315 0 00-9.5-4.448 12.082 12.082 0 00-7.466 2.566V6h-7.351v40.483h7.351V28.522zm-16.398 8.04c-1.188 1.824-3.564 3.648-6.561 3.648-4.467 0-7.579-3.192-7.579-7.526 0-4.219 3.167-7.582 7.41-7.582 2.657 0 4.863 1.367 6.332 3.306l5.204-4.619c-2.545-3.307-6.786-5.53-11.538-5.53-8.368 0-14.76 6.384-14.76 14.425 0 7.982 6.222 14.369 14.705 14.369 5.146 0 9.218-1.882 12.441-6.214l-5.654-4.277zm-21.773-18.075c-.792-.114-1.414-.229-2.486-.229-3.337 0-6.332 1.313-7.973 3.365v-2.794h-7.072v27.654h7.352V29.092c.905-1.653 3.448-3.99 6.673-3.99 1.073 0 2.149.114 2.659.284l.847-6.899zm-23.752.342h-7.069v2.224c-2.149-1.768-4.918-2.795-8.029-2.795-7.465 0-13.459 6.273-13.459 14.427 0 3.763 1.357 7.183 3.506 9.692 2.431 2.85 6.278 4.676 10.35 4.676 2.769 0 5.371-.855 7.634-2.794v2.224h7.069l-.002-27.654zm-7.35 17.96c-1.414 2.054-3.848 3.421-6.617 3.421-4.129 0-7.238-3.192-7.238-7.526 0-3.99 2.771-7.582 7.067-7.582a8.411 8.411 0 016.788 3.42v8.268zm-63.055 9.694V28.522c1.017-1.313 3.279-3.42 6.392-3.42 1.413 0 2.997.456 4.129 1.71.847.969 1.356 2.223 1.356 4.732v14.939h7.351V31.83c0-1.141-.112-2.167-.225-3.08.961-1.425 3.45-3.648 6.615-3.648 1.415 0 2.999.456 4.129 1.71.85.969 1.357 2.223 1.357 4.732v14.939h7.351V31.83c0-4.106-1.018-6.957-2.771-9.124-2.206-2.737-5.826-4.448-9.614-4.448-4.072 0-7.522 1.996-9.726 4.334a11.911 11.911 0 00-9.219-4.334c-2.657 0-5.258.856-7.408 2.795V18.83h-7.069v27.654h7.352z" fill="#fff"/></svg>