<svg width="200" height="71" viewBox="0 0 200 71" fill="none" xmlns="http://www.w3.org/2000/svg">
<g clip-path="url(#clip0)">
<path d="M25.8747 43.7848C25.4172 43.6323 24.9597 43.4798 24.5022 43.3273C23.5872 42.9714 23.5872 42.9206 23.7397 41.9547C24.0955 39.4638 25.4172 37.4305 26.9931 35.5496C28.3148 34.0245 29.6873 32.4995 31.009 30.9744C31.314 30.6186 31.6191 30.2119 31.8732 29.8052C32.4324 28.8902 32.6866 28.026 32.2799 26.9585C31.6699 25.2301 31.7207 23.3492 31.8224 21.57C31.8224 21.3158 31.8732 21.0108 31.8732 20.655C31.5682 20.9092 31.4665 21.1633 31.3649 21.4175C30.4499 23.6034 29.5857 25.8401 29.484 28.2802C29.484 28.3819 29.484 28.5344 29.3315 28.5852C29.1282 28.636 29.0773 28.4835 29.0773 28.331C29.0265 28.026 28.9248 27.721 28.8231 27.3143C28.4673 27.721 28.2131 28.0769 27.9081 28.3819C27.8064 28.4835 27.7556 28.6869 27.6031 28.5344C27.1964 28.2802 26.8914 27.9752 26.7389 27.4668C26.6372 27.0602 26.7898 26.7043 27.1456 26.4501C27.5523 26.1451 27.8573 25.7893 28.3148 25.5351C29.1282 25.1284 29.484 24.4676 29.6365 23.5526C29.9415 21.7734 30.1448 19.9433 30.8565 18.2149C31.9241 15.5207 33.3474 13.0298 34.9233 10.5897C35.8383 9.21717 36.245 7.69213 36.1433 6.06542C36.0925 5.40457 35.8383 5.20123 35.1775 5.40457C35.025 5.4554 34.8216 5.55707 34.6691 5.60791C33.8049 6.01458 32.9408 6.06542 32.1274 5.50624C31.4157 5.04872 30.704 5.15039 30.0432 5.65874C29.6365 6.01458 29.2298 6.37043 28.8231 6.72627C27.4506 7.89547 25.9256 8.20048 24.1972 7.43796C23.2822 7.03128 22.3163 6.87877 21.2996 7.18378C21.1471 7.23462 20.9438 7.28545 20.7913 7.43796C20.6896 7.53963 20.6387 7.7938 20.4354 7.64129C20.2829 7.53963 20.3337 7.33629 20.3846 7.18378C20.5371 6.67544 20.8421 6.26876 21.1471 5.91291C22.1638 4.64205 23.4347 3.77786 25.163 3.72702C26.1289 3.67619 26.9423 3.117 27.6031 2.40532C28.2131 1.74447 28.8231 1.08361 29.7382 0.829441C30.5515 0.626102 31.314 0.575267 32.0766 0.93111C33.2966 1.49029 34.4658 1.49029 35.635 0.880275C35.7367 0.829441 35.8383 0.778606 35.9908 0.727771C37.2109 0.371928 37.5667 0.575267 37.9734 1.84614C38.1259 2.25281 38.2784 2.65949 38.5834 3.01533C39.2443 3.93036 39.2443 4.89622 38.9393 5.91291C38.7868 6.42126 38.3292 6.72627 37.9734 7.03128C37.7701 7.18378 37.5667 7.38712 37.5667 7.69213C37.6176 9.36968 37.3125 11.0472 37.8209 12.6739C39.1426 17.2999 42.0402 20.4008 46.8186 21.5192C47.632 21.7225 48.4454 21.6208 49.3095 21.6717C49.462 21.6717 49.7162 21.57 49.7671 21.8242C49.8179 22.0784 49.5637 22.1292 49.3604 22.18C49.2079 22.2309 49.0554 22.2817 48.852 22.3325C49.0045 22.6375 49.3604 22.7392 49.5637 22.9425C49.7671 23.0951 50.0721 23.1967 49.9704 23.5526C49.8179 23.8576 49.5637 24.0609 49.2079 24.1117C48.852 24.1626 48.547 24.0609 48.2928 23.8067C47.2762 22.8409 46.0053 22.4342 44.6836 22.2817C42.9044 22.0275 41.4302 21.1633 40.0576 19.9941C39.1934 19.2316 38.4817 18.4183 37.8209 17.3507C37.7701 17.6049 37.7192 17.7574 37.6684 17.9099C37.4142 22.0784 38.2784 25.9418 40.5151 29.5511C42.1927 32.2453 44.2261 34.6854 46.5645 36.8204C47.0728 37.2779 47.632 37.6846 48.1403 38.193C48.3437 38.3963 48.4962 38.3963 48.6487 38.1421C49.1062 37.4813 49.8179 37.2271 50.5296 36.9729C51.0379 36.7696 51.1396 37.0238 51.1396 37.4304C51.0379 38.3455 50.5296 39.0572 50.0212 39.7688C49.1062 40.9889 47.9878 42.0056 46.7678 42.9714C46.4628 43.2256 46.1578 43.3781 45.7003 43.1239C41.9385 41.3956 38.8376 38.803 36.3975 35.4987C36.2958 35.3462 36.1433 35.1937 35.9908 34.9904C35.2283 36.1596 34.11 36.8204 33.0933 37.583C31.7207 38.6505 30.7549 40.023 29.8398 41.4972C29.6365 41.8022 29.6873 41.9547 30.0432 42.1072C30.2973 42.2089 30.5515 42.4123 30.8057 42.5648C30.9582 42.6664 31.1615 42.6664 31.1615 42.8698C31.1615 43.0731 30.9074 43.1239 30.7549 43.1748C30.1957 43.3273 29.6873 43.5306 29.1282 43.6831C29.0265 43.734 28.9248 43.6831 28.874 43.7848C27.8064 43.7848 26.8406 43.7848 25.8747 43.7848ZM50.4787 37.3288C49.9704 37.5321 49.5637 37.7863 49.157 38.1421C48.7504 38.498 48.6995 38.7522 49.2079 39.0572C49.3604 39.1588 49.5129 39.5655 49.7162 39.2605C50.1229 38.7522 50.4279 38.2438 50.6821 37.6338C50.6821 37.5321 50.7329 37.3288 50.4787 37.3288ZM29.1282 43.2256C29.6365 43.0731 30.094 42.9206 30.6024 42.7681C29.484 42.0056 29.3823 42.0056 29.1282 43.2256Z" fill="white"/>
<path d="M71.1778 58.4962C70.5678 58.4962 69.9069 58.4962 69.2969 58.547C68.8394 58.5978 68.6361 58.4453 68.5852 58.0387C68.4836 57.327 68.0769 57.0728 67.3652 57.1236C66.5518 57.1745 65.7893 57.1236 64.976 57.0728C64.5185 57.022 64.2643 57.2253 64.2134 57.632C64.1118 58.2928 63.7559 58.6487 62.9934 58.4962C62.6884 58.4453 62.3834 58.4962 62.0784 58.4962C61.4684 58.4962 61.3667 58.3945 61.6209 57.8353C62.0276 56.8186 62.4851 55.8019 62.8917 54.8361C63.5526 53.3619 64.2134 51.9385 64.8235 50.4643C64.976 50.1084 65.1793 49.9559 65.586 49.9559C67.4669 49.8543 67.5177 49.8034 68.2294 51.481C69.1444 53.5652 70.0086 55.7003 70.9745 57.7845C71.0253 57.8861 71.0253 58.0386 71.1778 58.0895C71.1778 58.1912 71.1778 58.3437 71.1778 58.4962ZM66.2977 54.9886C66.4502 54.9886 66.6027 55.0394 66.806 55.0394C67.111 55.0394 67.2635 54.9377 67.1619 54.5819C67.0094 54.0227 66.806 53.5144 66.6535 52.9552C66.6027 52.8027 66.501 52.701 66.3485 52.701C66.196 52.701 66.0943 52.8535 66.0435 52.9552C65.891 53.311 65.7893 53.616 65.6368 53.9719C65.281 54.9377 65.281 54.9377 66.2977 54.9886Z" fill="white"/>
<path d="M24.613 63.7321C25.0196 62.6646 25.5788 61.8512 26.443 61.292C28.1714 60.1737 30.7131 60.377 32.2382 61.7495C32.4923 62.0037 32.4415 62.1562 32.2382 62.3596C31.9332 62.6646 31.6282 62.9696 31.3231 63.2746C31.069 63.5288 30.8656 63.4271 30.6115 63.2746C29.8489 62.7662 29.0356 62.7154 28.1206 63.0204C26.8497 63.4779 26.6463 65.2571 27.0022 66.2738C27.4089 67.443 28.5781 67.9514 29.7473 67.5447C30.0523 67.443 30.4081 67.3414 30.6115 67.138C31.069 66.7314 31.374 66.8839 31.679 67.3414C31.7298 67.443 31.8315 67.4939 31.8823 67.5955C32.6957 68.5614 32.6448 68.6122 31.5265 69.2223C29.8998 70.1373 27.2564 69.9848 25.833 68.7647C24.8163 67.9006 24.3588 66.7822 24.3588 65.4605C24.3588 65.2063 24.3588 64.9521 24.3588 64.5963C23.9521 65.2571 23.5454 65.8163 22.8337 66.0705C22.4779 66.1722 22.7321 66.3755 22.8337 66.4772C23.3929 67.2397 23.9521 67.9514 24.5621 68.7139C24.6638 68.8664 24.8671 68.9681 24.8163 69.1714C24.7146 69.3748 24.5113 69.2731 24.3079 69.3239C24.1554 69.3239 24.0029 69.3239 23.7996 69.3239C21.9695 69.3239 21.9695 69.3239 20.902 67.748C20.6987 67.443 20.4953 67.138 20.292 66.833C20.0887 66.4772 19.7328 66.4263 19.377 66.528C19.072 66.6297 19.1736 66.9347 19.1736 67.138C19.1736 67.6972 19.2245 68.2564 19.2245 68.7647C19.2245 69.1206 19.1228 69.3239 18.7161 69.2731C18.2078 69.2223 17.6994 69.2223 17.1911 69.2731C16.7336 69.2731 16.5811 69.0698 16.6319 68.6631C16.7844 66.6805 16.5302 64.6471 16.7336 62.6646C16.7844 62.2071 16.7336 61.7496 16.6827 61.292C16.6827 60.8854 16.7844 60.6312 17.2928 60.6312C18.7161 60.682 20.0887 60.6312 21.512 60.682C23.2404 60.682 24.2571 61.7496 24.613 63.7321ZM19.3261 63.5796C19.377 64.6471 19.377 64.6471 20.4445 64.5963C20.6478 64.5963 20.8512 64.5963 21.0545 64.5455C21.7662 64.4946 22.0204 64.2405 22.0204 63.6304C22.0204 62.9187 21.7662 62.6137 21.1054 62.5121C20.8512 62.4612 20.597 62.4612 20.3937 62.4612C19.3261 62.5629 19.3261 62.5629 19.3261 63.5796Z" fill="white"/>
<path d="M52.9787 53.6671C52.4704 54.2771 51.9621 54.9379 51.4537 55.548C50.9454 56.2088 50.7928 56.2088 50.2337 55.548C49.7253 54.9379 49.3186 54.2263 48.6578 53.6162C48.6578 54.4804 48.6578 55.2938 48.6578 56.0563C48.6578 56.6663 48.6578 57.3272 48.6578 57.9372C48.6578 58.3439 48.5561 58.4964 48.0986 58.4964C46.3194 58.5472 46.3194 58.5472 46.3194 56.8188C46.3194 54.6838 46.3194 52.5487 46.2686 50.4136C46.2686 50.007 46.4211 49.8036 46.8277 49.9053C47.0819 49.9561 47.3869 50.007 47.5903 49.9053C48.3528 49.702 48.8611 50.007 49.2678 50.6678C49.6745 51.227 50.0812 51.7862 50.4878 52.3454C50.742 52.6504 50.8945 52.6504 51.1487 52.3454C51.657 51.6337 52.2162 50.9728 52.7246 50.2611C52.8771 50.0578 53.0296 49.9053 53.3346 49.9561C53.8429 50.007 54.4021 50.007 54.9105 49.9561C55.2663 49.9561 55.4188 50.0578 55.368 50.4645C55.2155 52.752 55.4696 55.0396 55.3171 57.3272C55.2155 58.5472 55.3171 58.5472 54.0971 58.4964C53.9954 58.4964 53.8429 58.4964 53.7413 58.4964C53.1821 58.5472 53.0296 58.293 53.0296 57.7338C53.0804 56.3613 53.0296 55.0396 53.0296 53.6671C53.0296 53.6671 52.9787 53.6671 52.9787 53.6671Z" fill="white"/>
<path d="M28.9343 54.277C28.9343 55.4462 28.9343 56.6154 28.9343 57.7846C28.9343 58.4963 28.9343 58.5471 28.2226 58.5471C27.8159 58.5471 27.3584 58.5471 26.9518 58.5471C26.4942 58.598 26.3926 58.3438 26.3926 57.9879C26.4434 56.0054 26.4434 54.0228 26.4942 52.0403C26.4942 51.5319 26.4434 50.9727 26.4434 50.4644C26.4434 50.1086 26.5959 49.9561 26.9518 50.0069C27.0026 50.0069 27.0534 50.0069 27.0534 50.0069C28.121 49.8036 28.8835 50.2611 29.4935 51.1761C30.256 52.2945 31.1202 53.3111 32.0352 54.5312C32.0352 53.8703 32.0352 53.362 32.0352 52.8028C32.0352 52.0911 32.0352 51.3286 31.9844 50.6169C31.9844 50.1594 32.1369 49.9561 32.5944 49.9561C33.1028 50.0069 33.5603 49.9561 34.0686 50.0069C34.4245 50.0069 34.577 50.1594 34.5261 50.5661C34.272 52.8028 34.6278 55.0395 34.4753 57.2763C34.3736 58.5471 34.3736 58.5471 33.0519 58.6996C32.5436 58.7505 32.2386 58.5471 31.9336 58.1404C31.0185 56.8696 30.0527 55.5987 29.0868 54.3787C29.0868 54.2262 28.9851 54.2262 28.9343 54.277Z" fill="white"/>
<path d="M61.5191 64.9013C61.5191 63.6812 61.5191 62.4104 61.5191 61.1903C61.5191 60.7328 61.6717 60.5803 62.1292 60.5803C63.5525 60.6312 64.9251 60.5803 66.3484 60.6312C67.6193 60.682 68.636 61.3428 69.0935 62.5629C69.4494 63.5287 69.3477 64.5454 68.5852 65.3588C68.4327 65.5113 68.2802 65.7146 68.0768 65.7655C67.4668 65.9688 67.4668 66.2738 67.8735 66.7313C68.3818 67.3413 68.8902 68.0022 69.3985 68.663C69.5002 68.8156 69.7035 68.9172 69.6019 69.1206C69.5002 69.3239 69.2969 69.2222 69.0935 69.2222C68.5343 69.2222 67.9752 69.2222 67.3651 69.2731C67.0601 69.2731 66.8568 69.1714 66.6535 68.9172C66.1451 68.2055 65.6368 67.4938 65.1284 66.7822C64.8742 66.4263 64.5692 66.3755 64.2134 66.4772C63.8575 66.5788 64.0101 66.9347 64.0101 67.138C64.0101 67.6972 64.0101 68.2564 64.0609 68.7647C64.0609 69.0697 63.9592 69.2731 63.6034 69.2222C63.095 69.2222 62.6375 69.1714 62.1292 69.2222C61.6208 69.2222 61.4175 69.0697 61.4175 68.5105C61.5191 67.3413 61.5191 66.1213 61.5191 64.9013ZM65.1284 64.5963C65.3318 64.5963 65.5351 64.5963 65.7384 64.5963C66.4501 64.5454 66.7551 64.2913 66.7551 63.6812C66.7551 63.0204 66.4501 62.6137 65.7384 62.5629C65.4843 62.5629 65.2301 62.512 65.0268 62.5629C64.2134 62.6137 63.8575 62.4104 64.1117 63.5287C64.1626 63.6812 64.1626 63.8337 64.1117 63.9354C64.0101 64.4438 64.2642 64.6471 64.7217 64.5963C64.8234 64.5963 64.9759 64.5963 65.1284 64.5963Z" fill="white"/>
<path d="M36.1018 53.921C36.2035 50.9726 37.9319 49.4475 40.7786 49.3967C43.727 49.3459 45.2521 51.3792 45.2521 53.8701C45.2521 57.0219 43.3712 58.5469 40.8803 58.5469C37.9827 58.5978 36.1018 56.9202 36.1018 53.921ZM38.4402 53.921C38.4402 55.3443 39.4061 56.361 40.7278 56.361C41.897 56.361 42.812 55.3443 42.812 53.921C42.812 52.5484 41.9478 51.4809 40.7278 51.4809C39.3552 51.5317 38.491 52.4468 38.4402 53.921Z" fill="white"/>
<path d="M16.2764 53.9208C16.3272 50.9724 18.1064 49.4982 20.9023 49.3965C23.5966 49.3457 25.4266 51.1758 25.4266 53.87C25.4266 56.9709 23.5457 58.5468 21.004 58.5468C18.1573 58.5976 16.2255 56.9201 16.2764 53.9208ZM22.9866 53.9717C22.9866 52.5483 22.1732 51.5316 20.9532 51.5316C19.5806 51.5316 18.6148 52.4466 18.6148 53.9208C18.6148 55.2934 19.5806 56.3609 20.9023 56.4117C22.1224 56.4117 22.9866 55.395 22.9866 53.9717Z" fill="white"/>
<path d="M0.0598406 54.1749C0.0598406 52.9549 0.0598406 51.7348 0.0598406 50.5148C0.0598406 50.0573 0.212343 49.9048 0.669856 49.9048C2.60158 50.0065 4.48246 50.0065 6.41418 49.9048C6.82086 49.9048 7.0242 50.0573 6.97336 50.464C6.97336 50.6165 6.92253 50.769 6.92253 50.9723C6.8717 52.0907 6.87169 52.0907 5.75333 52.0907C4.8383 52.0907 3.92328 52.0907 3.00826 52.0398C2.55074 52.0398 2.49991 52.294 2.49991 52.6499C2.49991 53.0057 2.49991 53.3107 3.00826 53.3107C4.02495 53.2599 5.04165 53.2599 6.05834 53.209C6.51585 53.209 6.77003 53.3615 6.71919 53.8191C6.71919 53.8699 6.71919 53.9207 6.71919 53.9207C6.77003 55.2424 6.77002 55.1916 5.49916 55.1916C4.6858 55.1916 3.82161 55.2424 3.00826 55.1916C2.44907 55.1408 2.55074 55.5983 2.55074 55.9033C2.49991 56.2591 2.55074 56.4625 3.00826 56.4625C4.17746 56.4116 5.34665 56.4625 6.46502 56.4116C6.97336 56.4116 7.1767 56.5641 7.1767 57.1233C7.12587 58.75 7.22754 58.4959 5.855 58.4959C4.12662 58.5467 2.44907 58.5467 0.771528 58.5975C0.110676 58.5975 -0.0418281 58.445 0.00900664 57.7842C0.110676 56.5641 0.00900586 55.3441 0.0598406 54.1749Z" fill="white"/>
<path d="M36.5086 63.4779C36.5086 64.2404 36.5086 65.0029 36.5086 65.8163C36.5595 66.833 36.9661 67.443 37.7287 67.5447C38.7962 67.748 39.6604 67.138 39.6604 66.0196C39.7112 64.5454 39.762 63.0204 39.6604 61.4953C39.6095 60.5803 39.7112 60.5295 40.6262 60.6312C40.9312 60.682 41.2363 60.6312 41.5413 60.6312C41.9988 60.5803 42.2021 60.7837 42.2021 61.1903C42.2021 62.8679 42.2529 64.5454 42.1513 66.223C41.9988 68.5105 40.4737 69.7814 38.1862 69.7306C36.6103 69.6797 35.2886 69.2731 34.5769 67.748C34.3227 67.2397 34.1702 66.6805 34.1194 66.1213C34.1194 64.4438 34.1194 62.7662 34.1194 61.0887C34.1194 60.7328 34.2211 60.5803 34.6277 60.5803C35.0852 60.5803 35.5428 60.6312 36.0511 60.5803C36.4578 60.5803 36.6103 60.7328 36.6103 61.1395C36.5086 61.9529 36.5595 62.7154 36.5086 63.4779C36.5595 63.4779 36.5595 63.4779 36.5086 63.4779Z" fill="white"/>
<path d="M56.3338 60.5804C57.0455 60.4279 57.5539 60.7329 57.9097 61.5971C58.8248 63.9355 59.8923 66.1722 60.8581 68.4598C61.1632 69.1206 61.0615 69.2731 60.299 69.2223C60.1973 69.2223 60.0956 69.1715 59.9939 69.2223C59.0281 69.4256 58.3672 69.2223 58.1639 68.1039C58.1131 67.8498 57.9097 67.8498 57.7064 67.7989C56.6897 67.7989 55.6222 67.7989 54.6055 67.7481C54.2496 67.7481 54.1988 68.0023 54.0971 68.2564C53.7921 69.1715 53.8938 69.2731 52.7754 69.1715C52.5212 69.1715 52.2671 69.1715 52.0129 69.2223C51.352 69.2731 51.2504 69.1206 51.5045 68.5106C51.9621 67.3922 52.4704 66.3247 52.9279 65.2064C53.4871 63.9863 54.0971 62.7663 54.5546 61.4954C54.8088 60.8346 55.1647 60.5296 55.8255 60.6312C55.9272 60.5804 56.0288 60.5804 56.3338 60.5804ZM56.1305 65.7147C56.3339 65.7147 56.4864 65.7147 56.6897 65.7147C56.9439 65.7147 57.0455 65.5622 56.9947 65.308C56.8422 64.7488 56.6389 64.1897 56.4355 63.6305C56.3847 63.478 56.3339 63.3763 56.1305 63.3763C55.978 63.3763 55.8763 63.5288 55.8255 63.6305C55.673 63.9863 55.5713 64.2913 55.4188 64.6472C55.1138 65.613 54.9613 65.7147 56.1305 65.7147Z" fill="white"/>
<path d="M10.6335 54.0734C10.6335 56.1576 12.3618 57.0726 14.2936 56.0051C15.0561 55.5476 15.0561 55.5476 15.6153 56.2593C16.4795 57.276 16.4286 57.3268 15.2594 57.9877C13.9377 58.7502 11.091 58.801 9.61676 57.4793C8.19339 56.2593 7.68504 53.9209 8.6509 51.8367C9.92177 49.1424 13.7344 48.4307 15.9711 50.5149C16.2253 50.7183 16.1744 50.9216 15.9711 51.125C15.6661 51.43 15.3611 51.735 15.0561 52.0908C14.8019 52.345 14.6494 52.1925 14.3952 52.04C13.8869 51.6841 13.2769 51.4808 12.6668 51.5825C11.2435 51.7858 10.6335 52.5992 10.6335 54.0734Z" fill="white"/>
<path d="M8.54936 69.7309C5.80429 69.7817 4.02507 68.5617 3.66923 66.2233C3.11005 62.7665 5.44844 60.1739 8.95604 60.5806C9.87107 60.6823 10.5828 61.1398 11.2944 61.6482C11.5994 61.9023 11.5994 62.1057 11.3453 62.3598C11.2944 62.4107 11.2944 62.4107 11.2436 62.4615C10.6844 63.1732 10.1761 63.6307 9.15938 62.9699C8.39686 62.4615 7.07516 62.8174 6.56681 63.4782C5.85512 64.3424 5.80429 65.3591 6.21097 66.3758C6.51597 67.24 7.2785 67.6975 8.19352 67.6975C8.80354 67.6975 9.41356 67.4433 9.87107 67.0875C10.2777 66.7825 10.5319 66.8841 10.7861 67.24C10.9386 67.4433 11.0911 67.5958 11.2436 67.7992C11.8028 68.46 11.8028 68.46 11.1419 68.9684C10.2777 69.5784 9.26105 69.7309 8.54936 69.7309Z" fill="white"/>
<path d="M43.7269 64.9013C43.7269 63.6813 43.7269 62.4104 43.7269 61.1904C43.7269 60.7328 43.8794 60.5803 44.3369 60.6312C44.7436 60.682 45.1502 60.682 45.5569 60.6312C45.9128 60.6312 46.0653 60.7837 46.0653 61.1395C46.0653 62.9696 46.0653 64.7996 46.0144 66.6297C46.0144 67.0872 46.1161 67.2905 46.6244 67.2397C47.4886 67.1888 48.3528 67.2905 49.1662 67.138C49.6237 67.0872 49.8779 67.1888 49.827 67.6972C49.7762 68.0022 49.827 68.358 49.827 68.6631C49.8779 69.1714 49.6237 69.3239 49.1662 69.2731C47.5395 69.1206 45.9128 69.2731 44.286 69.2731C43.8794 69.2731 43.676 69.1714 43.676 68.7139C43.7269 67.3922 43.7269 66.1213 43.7269 64.9013Z" fill="white"/>
<path d="M12.7175 64.9014C12.7175 63.6305 12.7175 62.4105 12.7175 61.1396C12.7175 60.7329 12.8192 60.5296 13.2259 60.5804C13.7342 60.6313 14.1917 60.6313 14.7001 60.5804C15.1576 60.5296 15.2593 60.7838 15.2593 61.1396C15.2593 62.4105 15.3101 63.7322 15.2593 65.0031C15.2084 66.2739 15.3101 67.494 15.2084 68.7648C15.1576 69.1715 15.0559 69.2732 14.7001 69.2223C14.5476 69.2223 14.3951 69.2223 14.1917 69.2223C12.7684 69.1715 12.7684 69.1715 12.7175 67.7481C12.7175 66.8331 12.7175 65.8672 12.7175 64.9014Z" fill="white"/>
<path d="M57.9607 54.0734C57.9607 52.8025 57.9607 51.5825 57.9607 50.3116C57.9607 50.0066 58.0115 49.8541 58.3674 49.8541C58.8249 49.8541 59.2824 49.8541 59.7907 49.8033C60.1974 49.7525 60.3499 49.905 60.3499 50.3625C60.3499 51.6842 60.3499 52.955 60.3499 54.2767C60.3499 55.4968 60.2991 56.7676 60.3499 57.9877C60.3499 58.496 60.1466 58.6994 59.6891 58.5977C59.5366 58.5977 59.3841 58.5469 59.2824 58.5469C58.1132 58.496 58.1132 58.496 58.0624 57.3268C57.9607 56.2085 57.9607 55.1409 57.9607 54.0734Z" fill="white"/>
<path d="M61.0105 46.9566C60.7055 47.5666 60.2988 48.0241 59.8921 48.5324C59.7904 48.685 59.5871 48.7358 59.3838 48.685C59.0279 48.685 58.6721 48.6341 58.2654 48.6341C57.9604 48.6341 57.8587 48.5325 58.0112 48.2274C58.2654 47.7699 58.3671 47.2107 58.7229 46.8549C58.9262 46.8041 60.6546 46.8549 61.0105 46.9566Z" fill="white"/>
<path d="M93.2161 66.5158C92.0161 66.5158 90.9403 65.4124 90.9403 62.8056C90.9403 61.2056 91.4506 59.0539 93.2023 59.0539C94.1954 59.0539 95.1471 60.1987 95.2022 60.2539C95.2574 60.309 95.3264 60.3504 95.4229 60.3504C95.5884 60.3504 95.7126 60.2263 95.7126 60.0608V57.9505C95.7126 57.8401 95.6574 57.7436 95.5609 57.6884C94.7057 57.1505 94.1126 56.8333 92.885 56.8333C91.4644 56.8333 88.7886 57.7436 88.7886 62.7918C88.7886 67.0262 90.761 68.7227 92.8713 68.7227C94.0161 68.7227 94.8574 68.3227 95.5747 67.8124C95.6712 67.7434 95.7126 67.6468 95.7126 67.5779C95.7126 67.4951 95.7126 65.5503 95.7126 65.5503C95.7126 65.3848 95.5884 65.2607 95.4229 65.2607C95.0229 65.2607 94.5402 66.5158 93.2161 66.5158Z" fill="white"/>
<path d="M106.94 61.4533C106.65 61.4533 105.836 61.5361 105.836 62.2119C105.836 62.8326 106.498 62.9292 106.857 63.0119C109.712 63.7016 109.477 65.5636 109.477 66.3222C109.477 67.0946 108.926 68.7222 106.346 68.7222C104.995 68.7222 103.988 68.1153 103.988 68.1153C103.891 68.0601 103.836 67.9636 103.836 67.867V66.1567C103.836 65.9636 104.084 65.7153 104.347 65.9636C104.347 65.9636 104.871 66.6119 106.153 66.805C106.829 66.9015 107.519 66.6395 107.519 66.1015C107.519 65.6326 107.298 65.2878 106.581 65.1912C106.015 65.1222 103.878 65.0533 103.878 62.4188C103.878 59.9913 106.002 59.6189 106.953 59.6189C108.029 59.6189 108.857 60.0327 109.036 60.1292C109.16 60.1982 109.229 60.281 109.229 60.4051V61.9223C109.229 62.1982 108.953 62.2671 108.76 62.1706C108.553 62.0464 107.988 61.4533 106.94 61.4533Z" fill="white"/>
<path d="M110.278 61.3429C110.278 61.5084 110.402 61.6325 110.567 61.6325H111.078V66.129C111.078 68.4876 112.554 68.7221 113.312 68.7221C113.781 68.7221 114.14 68.6393 114.609 68.5428C114.733 68.5152 114.816 68.391 114.816 68.2669V66.9842C114.816 66.8187 114.65 66.6531 114.443 66.7083C114.305 66.7359 113.85 66.8738 113.409 66.6945C113.05 66.5566 113.009 66.0738 113.009 65.8532C113.009 65.6325 113.009 61.6188 113.009 61.6188H114.526C114.678 61.6188 114.802 61.4946 114.816 61.3429V60.0326C114.816 59.8671 114.678 59.7429 114.526 59.7429H113.023V57.0809C113.023 56.9154 112.885 56.7913 112.733 56.7913L111.34 56.9568C111.202 56.9706 111.092 57.0947 111.078 57.2326V59.7291H110.567C110.402 59.7429 110.278 59.8671 110.278 60.0188V61.3429Z" fill="white"/>
<path d="M144.166 66.5153C144.166 66.5153 141.104 66.5153 141.091 66.5153C141.063 66.5153 140.815 66.5015 140.801 66.2395C140.801 65.9774 140.801 57.15 140.801 57.15C140.801 56.9569 140.663 56.7914 140.484 56.8189L139.049 56.9845C138.87 56.9982 138.746 57.1224 138.746 57.2879C138.746 57.2879 138.746 68.4187 138.746 68.4325C138.746 68.598 138.87 68.736 139.036 68.736H144.18C144.373 68.736 144.511 68.598 144.511 68.4049V66.8601C144.511 66.6257 144.429 66.5153 144.166 66.5153Z" fill="white"/>
<path d="M162.801 57.1911C162.801 57.0394 162.69 56.9153 162.525 56.9153H160.621C160.484 56.9153 160.373 57.0118 160.346 57.1222L158.759 62.529C158.732 62.5979 158.69 62.6531 158.608 62.6531C158.525 62.6531 158.484 62.5979 158.456 62.529L156.87 57.1222C156.828 56.998 156.718 56.9153 156.594 56.9153H154.691C154.525 56.9153 154.401 57.0394 154.401 57.1911C154.401 57.1911 154.401 68.4047 154.401 68.4185C154.401 68.584 154.539 68.7357 154.704 68.7357H156.015C156.235 68.7357 156.359 68.6116 156.359 68.4047V61.0393L157.78 65.8393C157.822 65.9496 157.877 66.0048 158.015 66.0048H159.159C159.297 66.0048 159.394 65.9634 159.421 65.8393L160.842 61.0393V68.4461C160.842 68.5978 160.952 68.722 161.118 68.722H162.497C162.663 68.722 162.787 68.5978 162.787 68.4185L162.801 57.1911Z" fill="white"/>
<path d="M136.622 63.7152C136.622 63.5497 136.498 63.4255 136.332 63.4255H133.946C133.781 63.4255 133.656 63.5221 133.656 63.7152V65.3565C133.656 65.522 133.753 65.6324 133.96 65.6324H136.346C136.525 65.6324 136.636 65.5221 136.636 65.3427C136.622 65.3427 136.622 63.7152 136.622 63.7152Z" fill="white"/>
<path d="M120.898 68.722C121.077 68.722 121.188 68.5979 121.188 68.4462V57.0947C121.188 56.9292 121.064 56.7774 120.898 56.805L119.546 56.9567C119.353 56.9843 119.257 57.0947 119.257 57.2464V68.4186C119.257 68.5979 119.381 68.722 119.546 68.722H120.898Z" fill="white"/>
<path d="M124.098 68.722C124.277 68.722 124.388 68.5979 124.388 68.4462V57.0947C124.388 56.9292 124.263 56.7774 124.098 56.805L122.746 56.9567C122.553 56.9843 122.457 57.0947 122.457 57.2464V68.4186C122.457 68.5979 122.581 68.722 122.746 68.722H124.098Z" fill="white"/>
<path d="M117.712 58.7637C117.863 58.7637 117.988 58.6396 118.001 58.4879V57.0948C118.001 56.9293 117.877 56.7914 117.712 56.8052L116.36 56.9569C116.194 56.9707 116.07 57.0948 116.07 57.2465V58.4603C116.07 58.6258 116.194 58.7637 116.36 58.7637H117.712Z" fill="white"/>
<path d="M116.07 68.4185C116.07 68.6116 116.194 68.7219 116.36 68.7219H117.725C117.905 68.7219 118.015 68.6116 118.015 68.4323L118.001 60.0462C118.001 59.8807 117.891 59.7566 117.725 59.7566H116.36C116.167 59.7566 116.07 59.8807 116.07 60.0462V68.4185Z" fill="white"/>
<path d="M100.595 62.9154C100.829 62.8878 100.857 62.6809 100.857 62.5982C100.857 61.7844 100.016 61.6051 99.2708 61.6051C98.457 61.6051 97.8363 62.1154 97.6019 62.1154C97.4363 62.1154 97.3122 61.9775 97.3122 61.8258V60.4327C97.3122 60.1844 97.4088 60.1154 97.5467 60.0741C97.726 60.0189 98.6501 59.7292 99.6708 59.7292C102.747 59.7292 102.747 61.674 102.747 62.6947C102.747 62.6947 102.747 68.2256 102.747 68.2394C102.733 68.3912 102.622 68.5015 102.471 68.5153L101.312 68.5843C101.257 68.5843 100.843 68.6256 100.788 68.1015C100.788 68.0325 100.443 68.736 98.8294 68.736C98.1398 68.736 96.7881 68.1153 96.7881 66.0602C96.8019 63.1637 99.0915 63.0671 100.595 62.9154ZM100.857 64.805C100.857 64.6395 100.705 64.5016 100.54 64.5292C100.526 64.5292 99.9053 64.5981 99.3398 64.7912C99.1467 64.8602 98.9949 64.9981 98.8984 65.1636C98.7053 65.4947 98.7191 65.9912 98.7743 66.2395C98.8294 66.4877 99.0915 66.9153 99.7535 66.8602C99.9466 66.8464 100.857 66.5981 100.857 66.1429V64.805V64.805Z" fill="white"/>
<path d="M129.257 62.9154C129.477 62.8878 129.519 62.6809 129.519 62.5982C129.519 61.7844 128.677 61.6051 127.932 61.6051C127.119 61.6051 126.484 62.1154 126.263 62.1154C126.098 62.1154 125.974 61.9775 125.974 61.8258V60.4327C125.974 60.1844 126.07 60.1154 126.208 60.0741C126.388 60.0189 127.312 59.7292 128.332 59.7292C131.408 59.7292 131.408 61.674 131.408 62.6947C131.408 62.6947 131.408 68.2256 131.408 68.2394C131.394 68.3912 131.284 68.5015 131.132 68.5153L129.974 68.5843C129.919 68.5843 129.505 68.6256 129.45 68.1015C129.45 68.0325 129.105 68.736 127.491 68.736C126.801 68.736 125.45 68.1153 125.45 66.0602C125.463 63.1637 127.753 63.0671 129.257 62.9154ZM129.519 64.805C129.519 64.6395 129.367 64.5016 129.201 64.5292C129.188 64.5292 128.567 64.5981 128.001 64.7912C127.808 64.8602 127.657 64.9981 127.56 65.1636C127.367 65.4947 127.381 65.9912 127.436 66.2395C127.491 66.4877 127.753 66.9153 128.415 66.8602C128.608 66.8464 129.519 66.5981 129.519 66.1429V64.805Z" fill="white"/>
<path d="M149.159 62.9154C149.38 62.8878 149.422 62.6809 149.422 62.5982C149.422 61.7844 148.58 61.6051 147.849 61.6051C147.035 61.6051 146.401 62.1154 146.18 62.1154C146.015 62.1154 145.891 61.9775 145.891 61.8258V60.4327C145.891 60.1844 145.987 60.1154 146.125 60.0741C146.304 60.0189 147.228 59.7292 148.249 59.7292C151.325 59.7292 151.325 61.674 151.325 62.6947C151.325 62.6947 151.325 68.2256 151.325 68.2394C151.311 68.3912 151.201 68.5015 151.049 68.5153L149.891 68.5843C149.835 68.5843 149.422 68.6256 149.366 68.1015C149.366 68.0325 149.022 68.736 147.408 68.736C146.718 68.736 145.366 68.1153 145.366 66.0602C145.366 63.1637 147.656 63.0671 149.159 62.9154ZM149.422 64.805C149.422 64.6395 149.27 64.5016 149.104 64.5292C149.091 64.5292 148.47 64.5981 147.891 64.7912C147.697 64.8602 147.546 64.9981 147.449 65.1636C147.256 65.4947 147.27 65.9912 147.325 66.2395C147.38 66.4877 147.642 66.9153 148.304 66.8602C148.497 66.8464 149.394 66.5981 149.394 66.1429L149.422 64.805Z" fill="white"/>
<path d="M167.683 62.9154C167.918 62.8878 167.945 62.6809 167.945 62.5982C167.945 61.7844 167.104 61.6051 166.373 61.6051C165.559 61.6051 164.939 62.1154 164.704 62.1154C164.539 62.1154 164.415 61.9775 164.415 61.8258V60.4327C164.415 60.1844 164.511 60.1154 164.649 60.0741C164.828 60.0189 165.752 59.7292 166.773 59.7292C169.849 59.7292 169.849 61.674 169.849 62.6947C169.849 62.6947 169.849 68.2256 169.849 68.2394C169.835 68.3912 169.725 68.5015 169.573 68.5153L168.414 68.5843C168.359 68.5843 167.932 68.6256 167.89 68.1015C167.89 68.0325 167.545 68.736 165.932 68.736C165.242 68.736 163.89 68.1153 163.89 66.0602C163.89 63.1637 166.18 63.0671 167.683 62.9154ZM167.945 64.805C167.945 64.6395 167.794 64.5016 167.628 64.5292C167.614 64.5292 166.994 64.5981 166.414 64.7912C166.221 64.8602 166.07 64.9981 165.973 65.1636C165.78 65.4947 165.794 65.9912 165.849 66.2395C165.904 66.4877 166.166 66.9153 166.828 66.8602C167.021 66.8464 167.932 66.5981 167.932 66.1429V64.805H167.945Z" fill="white"/>
<path d="M195.835 62.9154C196.055 62.8878 196.097 62.6809 196.097 62.5982C196.097 61.7844 195.255 61.6051 194.524 61.6051C193.711 61.6051 193.09 62.1154 192.856 62.1154C192.69 62.1154 192.566 61.9775 192.566 61.8258V60.4327C192.566 60.1844 192.662 60.1154 192.8 60.0741C192.98 60.0189 193.904 59.7292 194.924 59.7292C198.014 59.7292 198 61.674 198 62.6947C198 62.6947 198 68.2256 198 68.2394C197.986 68.3912 197.876 68.5015 197.724 68.5153L196.566 68.5843C196.511 68.5843 196.097 68.6256 196.042 68.1015C196.042 68.0325 195.697 68.736 194.083 68.736C193.393 68.736 192.042 68.1153 192.042 66.0602C192.042 63.1637 194.345 63.0671 195.835 62.9154ZM196.111 64.805C196.111 64.6395 195.959 64.5016 195.793 64.5292C195.78 64.5292 195.159 64.5981 194.58 64.7912C194.387 64.8602 194.235 64.9981 194.138 65.1636C193.945 65.4947 193.959 65.9912 194.014 66.2395C194.069 66.4877 194.331 66.9153 194.993 66.8602C195.187 66.8464 196.083 66.5981 196.083 66.1429L196.111 64.805Z" fill="white"/>
<path d="M184.98 68.639C184.897 68.5562 184.897 68.4872 184.897 68.4459C184.897 68.4045 184.897 57.315 184.897 57.315C184.897 57.315 184.883 57.2185 184.966 57.1357C185.062 57.0392 185.214 57.0392 185.214 57.0392C185.214 57.0392 186.442 56.9013 186.552 56.9013C186.552 56.9013 186.649 56.8875 186.745 56.9702C186.828 57.0392 186.828 57.1357 186.828 57.1357V60.8184C187.269 60.046 187.89 59.646 188.786 59.646C190.248 59.646 190.952 60.446 190.952 62.2391C190.952 62.2391 190.952 68.3217 190.952 68.4459C190.952 68.5562 190.952 68.6114 190.869 68.6803C190.759 68.7631 190.648 68.7631 190.648 68.7631H189.269C189.269 68.7631 189.145 68.7631 189.062 68.6803C188.993 68.5976 188.993 68.5424 188.993 68.4872C188.993 68.4321 188.993 63.3563 188.993 63.3563C188.993 62.446 188.704 62.0874 188 62.0874C187.2 62.0874 186.828 62.5839 186.828 63.5908C186.828 63.5908 186.828 68.4734 186.828 68.5286C186.828 68.57 186.828 68.6252 186.745 68.6941C186.676 68.7631 186.566 68.7631 186.566 68.7631C186.566 68.7631 185.228 68.7631 185.2 68.7631C185.173 68.7217 185.062 68.7217 184.98 68.639Z" fill="white"/>
<path d="M171.159 68.6394C171.077 68.5567 171.077 68.4601 171.077 68.4601V60.0465C171.077 60.0465 171.063 59.9499 171.146 59.8672C171.242 59.7706 171.394 59.7706 171.394 59.7706C171.394 59.7706 172.621 59.6327 172.732 59.6327C172.732 59.6327 172.828 59.6189 172.925 59.7017C173.008 59.7706 173.008 59.8672 173.008 59.8672V60.8051C173.449 60.0327 174.07 59.6327 174.966 59.6327C176.428 59.6327 177.132 60.4327 177.132 62.2258V68.4739C177.132 68.5015 177.132 68.598 177.049 68.6532C176.939 68.736 176.828 68.736 176.828 68.736H175.449C175.449 68.736 175.325 68.736 175.242 68.6532C175.173 68.5705 175.173 68.5015 175.173 68.4601C175.173 68.4187 175.173 63.3292 175.173 63.3292C175.173 62.4189 174.883 62.0602 174.18 62.0602C173.38 62.0602 173.008 62.5568 173.008 63.5637C173.008 63.5637 173.008 68.3498 173.008 68.4325C173.008 68.5291 173.008 68.5843 172.925 68.6532C172.856 68.7222 172.745 68.7222 172.745 68.7222H171.352C171.352 68.7222 171.242 68.7222 171.159 68.6394Z" fill="white"/>
<path d="M181.725 59.6875C180.635 59.6875 178.221 60.322 178.221 64.2391C178.221 68.2942 180.869 68.7218 181.78 68.7218C182.911 68.7218 183.656 68.1563 183.669 68.1563C183.794 68.0735 183.821 67.977 183.821 67.7149V66.2529C183.821 65.8667 183.504 65.8667 183.283 66.1288C183.09 66.3494 182.814 66.777 181.835 66.777C181.311 66.777 180.207 66.5287 180.207 64.2667C180.207 61.9633 181.283 61.6737 181.807 61.6737C182.718 61.6737 183.187 62.2668 183.325 62.4737C183.462 62.6805 183.821 62.5426 183.821 62.3219C183.821 62.3219 183.821 60.653 183.821 60.6392C183.835 60.1151 182.925 59.6875 181.725 59.6875Z" fill="white"/>
<path d="M154.594 18.2544H132.195C130.898 18.2544 129.85 19.2889 129.85 20.5302V42.5574C129.85 45.3849 131.381 47.6469 134.25 49.0952C136.553 50.24 139.712 50.8469 143.395 50.8469C147.077 50.8469 150.236 50.24 152.539 49.0952C155.422 47.6607 156.939 45.3987 156.939 42.5574V20.544C156.939 19.2889 155.891 18.2544 154.594 18.2544ZM140.967 37.4402C140.967 37.7713 140.705 38.0471 140.388 38.0609C140.374 38.0609 140.346 38.0609 140.346 38.0609H137.891V35.8127C137.891 35.1644 137.367 34.6403 136.719 34.6403C136.071 34.6403 135.547 35.1644 135.547 35.8127V35.8403V38.0471H133.105C133.091 38.0471 133.064 38.0471 133.05 38.0471C132.733 38.0195 132.485 37.7437 132.485 37.4264C132.485 37.3851 132.485 37.3161 132.485 37.3161L133.05 31.1231V29.3163H134.829V31.0817H135.836V27.5508H137.615V31.0817H138.609V29.3163H140.388V31.0955L140.967 37.3161C140.967 37.3161 140.967 37.3989 140.967 37.4402ZM155.243 41.785C155.243 48.9297 144.788 49.0952 144.774 49.0814C143.629 49.1228 143.698 47.8263 143.698 47.8263V21.2612C143.698 20.544 144.195 19.9647 144.829 19.9647H154.098C154.677 19.9647 155.174 20.4612 155.243 21.0957V22.1854V41.785Z" fill="white"/>
<path d="M151.822 6.12998C150.87 6.12998 150.015 6.4886 149.353 7.0541C148.636 6.2955 147.615 5.84033 146.484 5.84033C145.256 5.84033 144.125 6.40584 143.408 7.27479C142.663 6.39205 141.56 5.84033 140.319 5.84033C139.188 5.84033 138.167 6.2955 137.436 7.0541C136.788 6.4748 135.919 6.12998 134.981 6.12998C132.926 6.12998 131.271 7.78512 131.271 9.84026C131.271 10.6816 131.574 11.454 132.043 12.0885C132.277 12.4057 132.581 12.6402 132.981 12.654C133.533 12.6678 134.195 12.0885 133.864 11.3713C133.753 11.1506 133.243 10.6127 133.27 9.85405C133.298 8.88855 134.015 8.10236 134.981 8.10236C135.588 8.10236 136.167 8.43339 136.484 8.90234C136.415 9.20579 136.36 9.52302 136.36 9.85405C136.36 10.7092 136.636 11.3575 136.636 11.3575C136.829 11.854 137.174 12.2126 137.726 12.1988C138.36 12.1988 138.857 11.7161 138.857 11.0678C138.857 10.8885 138.746 10.5713 138.705 10.4609C138.622 10.2678 138.581 10.0471 138.581 9.82646C138.581 8.86096 139.367 8.08857 140.319 8.08857C141.27 8.08857 142.07 8.87476 142.07 9.82646C142.07 9.82646 142.07 11.1782 142.07 11.192C142.07 11.9368 142.677 12.5299 143.408 12.5437C144.153 12.5437 144.746 11.9368 144.746 11.2057C144.746 11.192 144.76 9.84026 144.76 9.84026C144.76 8.87476 145.532 8.10236 146.498 8.10236C147.463 8.10236 148.25 8.87476 148.25 9.84026C148.25 10.0609 148.208 10.2678 148.125 10.4747C148.084 10.5851 147.987 10.9161 147.974 11.0816C147.96 11.7161 148.456 12.1988 149.105 12.2126C149.643 12.2126 150.001 11.854 150.194 11.3713C150.194 11.3713 150.47 10.723 150.47 9.86784C150.47 9.53681 150.429 9.21958 150.346 8.91614C150.663 8.44718 151.243 8.11615 151.849 8.11615C152.815 8.11615 153.56 8.91614 153.574 9.86784C153.574 10.6264 153.077 11.1644 152.98 11.3851C152.636 12.1023 153.298 12.6678 153.849 12.6678C154.263 12.654 154.567 12.4333 154.787 12.1023C155.27 11.4816 155.573 10.6954 155.573 9.85405C155.546 7.79892 153.877 6.12998 151.822 6.12998Z" fill="white"/>
<path d="M147.105 15.3164C147.105 15.9923 147.643 16.544 148.333 16.544C149.008 16.544 149.56 15.9923 149.56 15.3164C149.56 14.6406 149.008 14.0889 148.333 14.0889C147.657 14.0889 147.105 14.6406 147.105 15.3164Z" fill="white"/>
<path d="M137.257 15.3164C137.257 15.9923 137.809 16.544 138.485 16.544C139.16 16.544 139.712 15.9923 139.712 15.3164C139.712 14.6406 139.16 14.0889 138.485 14.0889C137.809 14.0889 137.257 14.6406 137.257 15.3164Z" fill="white"/>
<path d="M152.015 15.3164C152.015 15.9923 152.567 16.544 153.242 16.544C153.918 16.544 154.47 15.9923 154.47 15.3164C154.47 14.6406 153.918 14.0889 153.242 14.0889C152.567 14.0889 152.015 14.6406 152.015 15.3164Z" fill="white"/>
<path d="M142.167 15.3164C142.167 15.9923 142.718 16.544 143.394 16.544C144.07 16.544 144.622 15.9923 144.622 15.3164C144.622 14.6406 144.07 14.0889 143.394 14.0889C142.718 14.0889 142.167 14.6406 142.167 15.3164Z" fill="white"/>
<path d="M132.319 15.3167C132.319 15.9925 132.871 16.5442 133.546 16.5442C134.222 16.5442 134.774 15.9925 134.774 15.3167C134.774 14.6408 134.222 14.0891 133.546 14.0891C132.857 14.0891 132.319 14.6408 132.319 15.3167Z" fill="white"/>
<path d="M145.063 2.24047H143.946V1.12325C143.946 0.819804 143.698 0.571533 143.394 0.571533C143.091 0.571533 142.843 0.819804 142.843 1.12325V2.24047H141.739C141.436 2.24047 141.174 2.48874 141.174 2.79218C141.174 3.09562 141.436 3.3439 141.739 3.3439H142.843V4.44732C142.843 4.75077 143.091 5.01283 143.394 5.01283C143.698 5.01283 143.946 4.75077 143.946 4.44732V3.3439H145.063C145.367 3.3439 145.615 3.09562 145.615 2.79218C145.615 2.48874 145.367 2.24047 145.063 2.24047Z" fill="white"/>
</g>
<defs>
<clipPath id="clip0">
<rect width="200" height="70.1095" fill="white" transform="translate(0 0.571533)"/>
</clipPath>
</defs>
</svg>
