<svg width="200" height="49" fill="none" xmlns="http://www.w3.org/2000/svg"><g clip-path="url(#clip0)" fill="#fff"><path d="M125.116 39.081c.233.93 1.396 1.86 2.791 1.86 1.861 0 2.558-.93 2.558-1.86 0-.465-.232-.93-.697-1.395-.466-.232-1.163-.697-2.326-1.163-2.093-.93-3.023-1.628-3.023-3.488s1.395-3.023 3.488-3.023c1.628 0 2.791.697 3.256 2.093l-1.395.697c-.466-.697-1.163-1.162-1.861-1.162-1.163 0-1.86.465-1.86 1.395 0 .93.697 1.395 2.558 2.093 2.325.93 3.488 1.86 3.488 3.72 0 1.861-1.395 3.257-4.186 3.257-2.093 0-3.953-.93-4.418-2.791l1.627-.233zm7.907-2.558c0-1.86.466-3.256 1.628-4.418 1.163-1.163 2.558-1.628 4.186-1.628 1.628 0 2.791.465 3.721 1.628.931 1.163 1.396 2.558 1.396 4.186v.697h-9.303c0 2.559 1.628 4.187 4.186 4.187 1.628 0 2.559-.466 3.489-1.628l1.163 1.162c-1.163 1.396-2.791 2.093-4.652 2.093-1.628 0-3.023-.465-4.186-1.627-1.162-1.396-1.628-2.791-1.628-4.652zm9.303-1.163c0-.93-.233-1.627-.93-2.325-.698-.698-1.628-.93-2.559-.93-1.162 0-1.86.232-2.79.93-.698.698-1.163 1.395-1.163 2.326h7.442zm3.953 8.838c1.395.93 3.023 1.628 4.651 1.628 1.163 0 2.093-.233 2.791-.93.698-.698 1.163-1.86 1.163-3.489v-.93c-.698 1.163-2.093 2.093-4.186 2.093-1.628 0-3.024-.465-4.186-1.628-1.163-1.163-1.628-2.558-1.628-4.419 0-1.628.465-3.255 1.628-4.186 1.162-1.162 2.558-1.628 4.186-1.628 2.093 0 3.488.93 4.186 2.094v-1.628h1.628v9.534c0 1.396-.233 2.791-.465 3.489-.233.93-.698 1.628-1.396 2.325-.93.698-2.325 1.163-3.953 1.163-2.093 0-3.954-.697-5.349-1.86l.93-1.628zm7.442-4.651c.93-.93 1.163-1.86 1.163-3.256 0-1.163-.465-2.326-1.163-3.256-.698-.93-1.86-1.395-3.023-1.395s-2.093.465-3.024 1.163c-.697.93-1.162 1.86-1.162 3.255 0 1.163.465 2.326 1.162 3.256.698.93 1.861 1.163 3.024 1.163 1.395.233 2.325 0 3.023-.93zm4.651-8.837H160v6.976c0 1.86 1.163 3.256 2.791 3.256 1.86 0 3.023-1.395 3.256-3.256V30.71h1.627v8.838c0 .93.233 1.395.931 1.395h.697v1.395c-.232 0-.697.233-1.162.233-.698 0-1.163-.233-1.396-.465a1.78 1.78 0 01-.465-1.163c-.698 1.163-1.86 1.628-3.721 1.628-2.558 0-4.186-1.628-4.186-4.419V30.71zm12.093 11.627V30.71h1.628v1.86c.698-1.395 1.861-2.092 3.489-2.092h.697v1.86h-1.163c-1.86 0-3.023 1.396-3.023 3.256v6.744h-1.628zm6.047-5.814c0-1.628.697-3.256 1.86-4.418 1.163-1.163 2.558-1.86 4.419-1.86 1.628 0 3.256.697 4.418 1.86 1.163 1.162 1.861 2.558 1.861 4.418 0 1.628-.698 3.256-1.861 4.419-1.162 1.163-2.558 1.628-4.418 1.628-1.628 0-3.256-.698-4.419-1.86-1.395-.931-1.86-2.559-1.86-4.187zm1.628 0c0 1.396.465 2.326 1.162 3.256.931.93 1.861 1.395 3.256 1.395 1.396 0 2.326-.465 3.256-1.162.93-.93 1.163-1.86 1.163-3.256 0-1.396-.465-2.326-1.163-3.256-.93-.93-1.86-1.395-3.256-1.395-1.395 0-2.325.465-3.256 1.395-.697.698-1.162 1.628-1.162 3.023zm12.558 2.791c.232.93 1.395 1.86 2.79 1.86 1.861 0 2.559-.93 2.559-1.86 0-.465-.233-.93-.698-1.395-.465-.233-1.163-.698-2.326-1.163-2.093-.93-3.023-1.628-3.023-3.489 0-1.86 1.395-3.023 3.488-3.023 1.628 0 2.791.698 3.256 2.093l-1.395.698c-.465-.698-1.163-1.163-1.861-1.163-1.162 0-1.86.465-1.86 1.395 0 .93.698 1.396 2.558 2.093 2.326.93 3.488 1.86 3.488 3.721 0 1.86-1.395 3.256-4.186 3.256-2.093 0-3.953-.93-4.418-2.79l1.628-.233zM18.372 1.175H14.42v8.837c-.698-1.627-2.559-2.79-5.35-2.79-2.325 0-4.418.93-6.046 2.558C1.395 11.408.698 13.5.698 16.059c0 2.558.697 4.651 2.325 6.28 1.628 1.627 3.721 2.557 6.047 2.557 2.79 0 4.651-.93 5.814-2.558.232.93.697 1.628 1.395 2.093.698.465 1.395.465 2.326.465l-.233-23.72zM13.023 19.78c-.93.93-2.325 1.395-3.72 1.395-1.396 0-2.559-.465-3.489-1.395-.93-.93-1.395-2.326-1.395-3.721s.465-2.79 1.395-3.72c.93-.931 2.093-1.396 3.488-1.396 1.396 0 2.791.465 3.721 1.395.93.93 1.396 2.326 1.396 3.721s-.465 2.79-1.396 3.72zM22.79 5.593c1.396 0 2.326-.93 2.326-2.326 0-1.395-1.163-2.325-2.325-2.325-1.396 0-2.326.93-2.326 2.325-.232 1.396.93 2.326 2.326 2.326zm2.094 2.326H20.93v12.79c0 2.791 1.396 4.186 3.954 4.186V7.92zm19.767-2.094c1.396 0 2.326-.93 2.326-2.325s-1.163-2.326-2.326-2.326c-1.395 0-2.325.93-2.325 2.326 0 1.163.93 2.093 2.325 2.325zm1.629 2.094h-3.954v12.79c0 2.791 1.395 4.186 3.953 4.186h.233L46.279 7.92zm11.627-.465c-2.325 0-3.953 1.395-4.884 3.023V8.15H49.07v16.977h3.953V15.36c0-2.326 1.628-3.954 3.721-3.954 2.326 0 3.489 1.395 3.489 3.721v5.581c0 3.024 1.395 4.419 3.953 4.419V13.965c0-3.953-2.558-6.511-6.279-6.511zm25.814.465h-3.953v2.325c-.698-1.628-2.559-2.79-5.35-2.79-2.325 0-4.418.93-6.046 2.558-1.628 1.628-2.325 3.72-2.325 6.279 0 2.558.697 4.651 2.325 6.279 1.628 1.628 3.721 2.558 6.047 2.558 2.79 0 4.65-.93 5.814-2.558.232.93.697 1.628 1.395 2.093.465.465 1.395.465 2.326.465l-.233-17.21zm-5.116 12.093c-.93.93-2.326 1.395-3.721 1.395s-2.558-.465-3.489-1.395c-.93-.93-1.395-2.326-1.395-3.721 0-1.396.465-2.79 1.395-3.721.93-.93 2.094-1.396 3.489-1.396s2.558.466 3.72 1.396c.931.93 1.396 2.325 1.396 3.72 0 1.396-.465 2.559-1.395 3.722zM41.395 5.593h-1.86c-1.395 0-2.326 1.163-2.79 2.093-.466.93-3.722 11.395-3.722 11.395s-1.395-3.255-1.86-4.186c-.465-.93-1.628-1.628-3.023-1.628h-1.86l5.348 11.396h3.488l6.28-19.07zm137.21 2.093c-2.326 0-4.186 1.163-5.117 2.791V7.919h-3.953v13.72c.232 2.094 1.628 3.257 3.953 3.257v-9.535c.233-2.558 1.861-3.954 4.652-3.954.697 0 1.162 0 1.627.233V7.686h-1.162zm-33.023.233V1.407h-3.954v6.512h-2.093v3.72h2.093v9.303c0 2.79 1.396 4.186 3.954 4.186h.232V11.64h3.721V7.918h-3.953zm-25.814 2.325c-.698-1.628-2.559-2.79-5.349-2.79-2.326 0-4.419.93-6.047 2.558-1.628 1.628-2.325 3.72-2.325 6.279 0 2.558.697 4.651 2.325 6.279 1.628 1.628 3.721 2.558 6.047 2.558 2.79 0 4.651-.93 5.814-2.558.232.93.697 1.628 1.395 2.093.698.465 1.395.465 2.326.465V7.918h-4.186v2.326zm-1.163 9.768c-.93.93-2.326 1.395-3.721 1.395s-2.558-.465-3.489-1.395c-.93-.93-1.395-2.326-1.395-3.721 0-1.396.465-2.79 1.395-3.721.931-.93 2.094-1.396 3.489-1.396s2.791.466 3.721 1.396c.93.93 1.395 2.325 1.395 3.72.233 1.396-.465 2.791-1.395 3.722zm75.349-11.861v2.558c-.698-1.628-2.559-2.79-5.349-2.79-2.326 0-4.419.93-6.047 2.558-1.628 1.628-2.325 3.72-2.325 6.279 0 2.558.697 4.651 2.325 6.279 1.628 1.628 3.721 2.558 6.047 2.558 2.79 0 4.651-.93 5.814-2.558.232.93.697 1.628 1.395 2.093.698.465 1.395.465 2.326.465V8.383l-4.186-.232zm-1.163 12.093c-.93.93-2.326 1.396-3.721 1.396s-2.558-.466-3.488-1.396c-.931-.93-1.396-2.325-1.396-3.72 0-1.396.465-2.791 1.396-3.722.93-.93 2.093-1.395 3.488-1.395s2.791.465 3.721 1.395c.93.93 1.395 2.326 1.395 3.721.233 1.396-.465 2.791-1.395 3.721zm-34.186-12.79c-2.558 0-4.651.93-6.512 2.558-1.628 1.628-2.558 3.953-2.558 6.279 0 2.558.93 4.651 2.558 6.279 1.861 1.628 3.954 2.558 6.512 2.558 2.558 0 4.651-.93 6.511-2.558 1.861-1.628 2.791-3.954 2.791-6.28 0-2.557-.93-4.65-2.558-6.278-1.861-1.628-3.954-2.558-6.744-2.558zm3.721 12.79c-.931.93-2.326 1.396-3.721 1.396-1.396 0-2.791-.466-3.721-1.628-.93-.93-1.396-2.326-1.396-3.721 0-1.396.466-2.79 1.396-3.721.93-.93 2.325-1.628 3.721-1.628 1.395 0 2.79.465 3.721 1.628.93.93 1.395 2.325 1.395 3.72.233 1.629-.233 2.791-1.395 3.954zm-27.675-5.348c-.698-.233-1.628-.466-2.093-.698-.465-.233-1.163-.465-1.395-.698-.465-.232-.698-.698-.698-1.163 0-.93.698-1.395 2.093-1.395s2.558.465 3.256 1.395l2.326-2.325c-1.163-1.628-3.024-2.558-5.349-2.558-1.628 0-3.024.465-4.186 1.395-1.163.93-1.628 2.093-1.628 3.72 0 2.326 1.395 3.722 4.186 4.652.465.233 1.628.465 2.093.698.465.232 1.163.465 1.628.697.465.233.93.698.93 1.396 0 .93-.93 1.86-3.023 1.86-1.163 0-2.093-.232-2.791-.698-1.628-.697-2.558-.465-3.488.233l-.698.698c1.163 1.86 3.488 3.256 6.744 3.256 4.651 0 6.977-2.326 6.977-5.35-.465-2.557-1.861-3.953-4.884-5.115zm-47.907 5.116v10.697h.698-.698V20.012z"/><path d="M102.093 9.78c-1.628-1.629-3.72-2.559-6.046-2.559-2.791 0-4.884 1.163-5.35 2.79V7.455h-3.953V30.71h.698c2.093-.232 3.256-1.395 3.488-3.72v-5.117c.698 1.628 2.559 2.79 5.35 2.79 2.325 0 4.418-.93 6.046-2.557 1.628-1.628 2.558-3.721 2.558-6.28-.465-2.325-1.163-4.418-2.791-6.046zm-3.023 10c-.93.93-2.093 1.394-3.488 1.394-1.396 0-2.558-.465-3.721-1.395-.93-.93-1.396-2.326-1.396-3.72 0-1.396.465-2.792 1.396-3.722.93-.93 2.325-1.395 3.72-1.395 1.396 0 2.559.465 3.489 1.395.93.93 1.395 2.326 1.395 3.721s-.465 2.79-1.395 3.721z"/></g><defs><clipPath id="clip0"><path fill="#fff" transform="translate(0 .012)" d="M0 0h200v48.837H0z"/></clipPath></defs></svg>