<svg width="200" height="45" fill="none" xmlns="http://www.w3.org/2000/svg"><path d="M199.778 13.145h-19c-2.111 0-4 1.556-4.222 3.667-.334 2.889-2.556 4.555-5.223 4.666a5.216 5.216 0 01-5.222-5.222 5.216 5.216 0 015.222-5.222c1.889 0 3.556 1 4.445 2.555.111.112.222.112.333 0 .556-.666 1.222-1.222 2-1.555.111 0 .111-.222.111-.333-1.444-2.223-4-3.667-6.889-3.667-4.555 0-8.222 3.667-8.333 8.333 0 4.556 3.667 8.334 8.333 8.334 4.223-.111 7.778-2.89 8.223-7.334.111-.555.555-1 1.222-1H197v2.223c0 1.222-.333 3-1.889 3-1.555 0-1.889-1.778-1.889-3v-.667A.239.239 0 00193 17.7h-2.667a.239.239 0 00-.222.222v.555c0 1.223-.333 3-1.889 3-1.555 0-1.889-1.777-1.889-3v-.555a.239.239 0 00-.222-.222h-2.667a.239.239 0 00-.222.222v.555c0 3 1.667 6 4.889 6 1.333 0 2.556-.555 3.333-1.555.889 1 2 1.555 3.334 1.555 3.333 0 4.889-3.11 4.889-6v-5.11c.444-.112.333-.223.111-.223zM56.556 15.923c-5.112 0-8.556 3.667-8.556 9.111 0 5.444 3.667 9.111 8.889 9.111 2.555 0 4.889-.556 7-2.333.111-.111.111-.223 0-.223l-1.667-2.333c-.11-.11-.222-.11-.333 0-1.445 1.111-3.111 1.667-4.778 1.667-3.333 0-5.333-2.445-5.333-5.556 0-3 1.444-5.889 4.778-5.889 2.444 0 4 1.556 4.333 4.223h-7.222c-.111 0-.223.11-.223.11a9.829 9.829 0 000 2.556c0 .111.112.111.223.111h10.777a.239.239 0 00.223-.222v-1.222c0-5.444-3.334-9.111-8.111-9.111zm-18.667 0c-2.445 0-4.222 1-5.445 2.555v-2a.239.239 0 00-.222-.222H28.89a.239.239 0 00-.222.222v24.556c0 .111.11.222.222.222h3.333a.239.239 0 00.222-.222v-17c0-2.667 2.445-4.556 5-4.556 3.223 0 5.223 2.556 5.223 5.556s-2 5.556-5.223 5.556c-1.11 0-2.222-.334-3-.89-.11-.11-.333 0-.333.112v3.11c0 .112.111.223.222.334 1 .556 2.111.89 3.556.89 4.778 0 8.667-3.779 8.667-9.112s-3.89-9.111-8.667-9.111zm38.111 0c-1.778 0-3.889.555-5.222 2.555v-2a.239.239 0 00-.222-.222h-3.334a.239.239 0 00-.222.222v16.89c0 .11.111.221.222.221h3.334a.239.239 0 00.222-.222v-9.333c0-3 2-4.556 4.444-4.556 2.556 0 4 1.667 4 4.556v9.444c0 .111.111.223.222.223h3.334a.239.239 0 00.222-.223V22.812c0-4.111-2.889-6.89-7-6.89zm-61.667-8a.239.239 0 00-.222.222v3.556c0 .11.111.222.222.222 4.556.444 7.89 4.111 7.89 9.111 0 5.444-3.779 9.222-8.89 9.222-5.11 0-8.889-3.778-8.889-9.222 0-5 3.223-8.667 7.89-9.111a.24.24 0 00.222-.222V8.145c-.223-.111-.334-.222-.445-.222C4.89 8.478 0 13.812 0 20.923c0 7.555 5.444 13.111 13.222 13.111s13.222-5.556 13.222-13.111c0-7.111-5-12.445-12.11-13zM159.89 33.256l-7-8.778 6.889-7.777c.111-.111 0-.334-.111-.334h-4.111c-.112 0-.223 0-.334.111l-5.555 6.445h-1.556V8.59a.239.239 0 00-.222-.223h-3.333a.239.239 0 00-.223.223v24.777a.24.24 0 00.223.223h3.333a.239.239 0 00.222-.223v-7.11h1.556l5.666 7.11c.111.111.223.111.334.111h4.111c.222.111.222-.11.111-.222zm-25.333-17.333c-1.778 0-3.889.555-5.223 2.555v-2a.239.239 0 00-.222-.222h-3.333a.239.239 0 00-.222.222v16.89c0 .11.111.221.222.221h3.333a.239.239 0 00.222-.222v-9.333c0-3 2-4.556 4.445-4.556 2.555 0 4 1.667 4 4.556v9.444c0 .111.111.223.222.223h3.333a.24.24 0 00.223-.223V22.812c0-4.111-2.889-6.89-7-6.89zm-12 .444h-3.334a.239.239 0 00-.222.223v1.888c-1.222-1.555-2.889-2.555-5.444-2.555-4.778 0-8.667 3.778-8.667 9.111s3.778 9.111 8.667 9.111c1.444 0 2.555-.333 3.555-.889.111-.11.222-.222.222-.333v-3.111c0-.111-.222-.223-.333-.111-.778.555-1.889.889-3 .889-3.222 0-5.222-2.556-5.222-5.556s2-5.556 5.222-5.556c2.556 0 5 1.89 5 4.556v9.333c0 .111.111.223.222.223h3.334a.239.239 0 00.222-.223V16.478c0-.11-.111-.11-.222-.11zM95 15.923c-1.444 0-2.556.333-3.556.889-.11.11-.222.222-.222.333v3c0 .111.222.222.334.111.777-.555 1.888-.889 3-.889 3.222 0 5.222 2.556 5.222 5.556s-2 5.555-5.223 5.555c-2.555 0-5-1.889-5-4.555V8.59a.239.239 0 00-.222-.223H86a.239.239 0 00-.222.223v24.777c0 .111.11.223.222.223h3.333a.239.239 0 00.222-.223v-1.889c1.223 1.556 2.89 2.556 5.445 2.556 4.778 0 8.667-3.778 8.667-9.111-.111-5.222-3.89-9-8.667-9z" fill="#fff"/></svg>