<svg width="200" height="58" fill="none" xmlns="http://www.w3.org/2000/svg"><g clip-path="url(#clip0)"><path fill-rule="evenodd" clip-rule="evenodd" d="M192.637 56.714c-1.062 0-2.619-.571-3.54-1v-4h.709c.283 1.715.92 4 2.972 4 1.134 0 1.912-.785 1.912-1.857 0-2.785-5.593-2.143-5.593-5.929 0-2.357 2.196-3.571 4.248-3.571 1.133 0 2.053.357 3.044.857l-.212 3.285h-.708c-.283-1.356-.708-3.142-2.407-3.142-.92 0-1.7.786-1.7 1.714 0 2.786 5.664 2.215 5.664 6.072 0 2.5-2.194 3.571-4.389 3.571zm-10.62 0c-.991 0-2.619-.571-3.539-1v-4h.708c.283 1.715.991 4 3.044 4 1.063 0 1.841-.785 1.841-1.857 0-2.785-5.522-2.143-5.522-5.929 0-2.357 2.195-3.571 4.248-3.571 1.061 0 2.052.357 2.973.857l-.141 3.285h-.709c-.353-1.356-.778-3.142-2.478-3.142-.92 0-1.628.786-1.628 1.714 0 2.786 5.664 2.215 5.664 6.072 0 2.5-2.265 3.571-4.461 3.571zm-2.831-54.072c-.637 0-1.416.072-2.124.286V25c0 3.786 1.487 4.714 5.239 4.714 7.645 0 11.753-5.785 11.753-13.07 0-9.002-6.373-14-14.868-14v-.002zM175.363 55c-.07.5-.283.928-.425 1.429h-9.841v-.786c1.912-.285 2.194-.357 2.265-2.357.072-.715.072-1.429.072-2.072v-1.572c0-.642 0-1.284-.072-1.928-.071-1.857-.424-2.143-2.265-2.285v-.786h9.983l-.072 3.5h-.778c-.07-.642-.142-1.429-.637-1.857-.708-.644-2.619-.644-3.539-.644h-.284l-.071 4c.495 0 2.478.072 2.832-.213.212-.143.424-1.143.495-1.357h.709v4.856h-.78c-.141-1.429-.141-1.856-1.627-1.856h-1.629v2.07c.071 1.644 0 2.287 1.911 2.287 2.196 0 3.116-1.715 3.683-3.572L176 52c-.213 1-.354 2.072-.637 3zm-11.257 1.5c-.991 0-1.912 0-2.832-.214-2.619-.572-4.106-3.928-5.309-6.072 1.345-.357 2.406-.643 2.406-2.357 0-1.714-1.557-2.286-2.973-2.428v5.857c0 2.786-.566 4.07 2.619 4.357v.786h-7.15v-.786c2.62-.357 2.266-1.357 2.266-3.786v-1.571c0-.857-.071-1.644-.071-2.5 0-2-.424-2.144-2.265-2.43v-.713c1.699 0 3.397-.072 5.097-.072 2.053 0 5.168.429 5.168 3.143 0 1.5-1.062 2.286-2.265 2.787.99 2.07 3.115 4.857 5.451 5.284v.714h-.142zm-20.319-4.715V51c1.771-.286 2.691-.5 2.691-2.642 0-2.072-1.982-2.787-3.752-2.857v5.213c0 .787.071 1.572.071 2.357.07 2.215.353 2.43 2.619 2.571v.787h-7.293v-.786c.496-.072 1.629-.214 1.983-.643.425-.571.355-3.215.355-4 0-1.143.211-4.429-.567-5.072-.424-.286-1.204-.427-1.771-.5v-.714c1.7-.07 3.399-.143 5.027-.143 2.124 0 5.947.644 5.947 3.429 0 3.143-2.832 3.643-5.31 3.785zm51.965-25.856c-3.185 3.286-7.858 5.214-12.459 5.214l-16.002.07h-.353c-.354.073-.92 0-1.274 0-3.824-.07-5.31-.285-8.637-2.357-5.664-3.57-8.213-7.57-12.248-12.927 3.256 0 7.93-3.072 7.93-6.643 0-4.857-4.815-6.644-8.85-6.644h-.072c-.07 7.429-.211 14.787-.211 22.215 0 4.572 1.486 4.429 5.805 5v1.357h-11.044c.07-7.785.282-15.5.282-23.214 0-1.143 0-4.07-.992-4.93-.636-.57-2.052-.499-2.901-.499V1.286c3.823-.072 7.576-.215 11.328-.215 4.743 0 12.317.857 12.317 7.215 0 4.215-3.539 7-7.291 8.07 2.69 3.215 11.185 13.501 15.717 13.501 4.318 0 5.522-1.857 5.522-6.072V8.642c0-4.571-.78-5.571-5.381-6.285V1.214c4.107-.071 8.212-.143 12.318-.143C189.522 1.07 200 3.857 200 16.143c0 3.714-1.627 7.143-4.248 9.786zm-67.681 20c-.78.572-3.469 5.071-3.469 5.856 0 2.644-.354 3.572 2.549 3.858v.786h-7.364v-.786c2.832-.285 2.478-1.142 2.478-3.714-.566-1.072-3.043-5.5-4.106-6.072-.424-.286-1.062-.428-1.486-.428v-.786h6.159v.714c-.425.144-1.345.214-1.345.786 0 .642 1.983 3.428 2.478 4.214.354-.715 1.77-3.357 1.77-4.214 0-.572-.709-.714-1.133-.786v-.714h5.027v.714c-.567.144-1.133.214-1.558.571v.001zm-12.956 2.713h-.141c-.567-2.857-1.134-2.642-3.823-2.714v5.857c0 2.716-.354 3.5 2.478 3.858v.786h-7.222v-.786c1.912-.285 2.337-.357 2.408-2.357.07-.928.07-1.787.07-2.715 0-1.571 0-3.07-.07-4.643-2.761 0-3.257-.214-3.753 2.786l-.779-.072c.142-1.356.212-2.714.284-4 1.202.072 2.407.215 3.68.215 1.204 0 2.337-.07 3.54-.07 1.276 0 2.549 0 3.754-.144 0 .214-.071.428-.071.643 0 1.143.14 2.285.211 3.357h-.566zm8.355-41.714c-2.054-3.214-5.028-5.357-8.921-5.357-7.93 0-10.478 7.286-10.478 14.071 0 3.286.566 7.001 2.336 9.787 2.054 3.142 5.168 5.285 8.991 5.285 8.141 0 10.337-7.285 10.337-14.215 0-3.213-.567-6.857-2.265-9.571zm-8.638 25.358c-9.558 0-16.709-6.357-16.709-16.215C98.123 6.215 105.415 0 114.903 0c9.77 0 16.778 6.286 16.778 16.357 0 9.714-7.504 15.929-16.849 15.929zM95.575 56.429v-.786c1.912-.285 2.266-.357 2.337-2.357v-2.643c0-1 .211-4.144-.496-4.715-.354-.286-1.345-.5-1.84-.571v-.714h7.008v.714c-2.62.43-2.407 1.286-2.407 3.786V51.5c0 .499.071.998.071 1.57.071 2.072.283 2.358 2.336 2.571v.787h-7.01zm-6.513.285c-.991 0-2.62-.571-3.54-1v-4h.709c.282 1.715.99 4 3.043 4 1.063 0 1.84-.785 1.84-1.857 0-2.785-5.52-2.143-5.52-5.929 0-2.357 2.193-3.571 4.246-3.571 1.063 0 2.054.357 2.975.857l-.142 3.285h-.708c-.355-1.356-.779-3.142-2.478-3.142-.92 0-1.629.786-1.629 1.714 0 2.786 5.664 2.215 5.664 6.072 0 2.5-2.266 3.571-4.46 3.571zm-5.168-.215c-.92 0-1.84 0-2.761-.213-2.62-.572-4.178-3.928-5.381-6.072 1.345-.357 2.478-.643 2.478-2.357 0-1.714-1.628-2.286-3.044-2.428v5.857c0 2.786-.567 4.07 2.62 4.357v.786h-7.151v-.786c2.69-.357 2.265-1.357 2.265-3.786v-4.07c-.07-2-.424-2.145-2.336-2.43v-.714c1.7 0 3.399-.072 5.097-.072 2.054 0 5.168.429 5.168 3.143 0 1.5-.99 2.286-2.265 2.787 1.063 2.07 3.186 4.857 5.522 5.284v.714h-.212zm-16.284-.07h-9.84v-.786c1.982-.285 2.265-.357 2.336-2.357v-5.572c-.07-1.857-.496-2.143-2.336-2.285v-.786h10.053l-.142 3.5h-.708c-.141-.642-.141-1.429-.708-1.857-.707-.644-2.548-.644-3.54-.644h-.282l-.072 4c.496 0 2.478.072 2.903-.213.213-.143.425-1.143.496-1.357h.709v.214c0 1.5-.072 3.07-.072 4.642h-.709c-.14-1.429-.211-1.856-1.698-1.856h-1.629l.072 2.07c0 1.644 0 2.287 1.911 2.287 2.124 0 3.045-1.715 3.612-3.572l.707.143c-.212 1.571-.567 2.93-1.063 4.429zM55.293 46c-.991.93-4.603 9.5-5.311 11.143h-.355l-4.317-9.93c-.566-1.285-.991-1.642-2.407-1.855v-.715h6.583v.714c-.425.072-1.77.285-1.77.929 0 .929 2.337 6 2.831 6.928.355-.928 2.62-5.857 2.62-6.857 0-.643-1.486-.858-1.982-1v-.714h5.592v.714c-.495.144-1.131.285-1.486.643h.002zM35.186 56.429v-.786c1.911-.285 2.195-.357 2.265-2.357.071-.857.071-1.787.071-2.643 0-1 .142-4.144-.565-4.715-.355-.286-1.347-.5-1.772-.571v-.714h7.01v.714c-2.691.43-2.408 1.286-2.408 3.786V51.5c0 .499 0 .998.071 1.57.071 2.072.284 2.358 2.336 2.571v.787h-7.008zM94.301 7.785c-.637-5.214-5.381-4.999-9.416-4.999h-2.69v11.57h3.115c1.84 0 3.68 0 5.451-.285v7.428h-1.063c-.282-5.642-2.76-4.714-7.504-4.714v7.358c0 5.286.638 5 5.664 5.929v1.143H58.407l-8-12.644c-1.274 1.572-5.452 7.286-5.452 9.072 0 1.572 2.195 2.071 3.328 2.5l-.07 1.07H35.045v-1.356c5.38-.286 6.937-2.428 9.769-6.643l4.39-6.286L44.46 9c-2.125-3.5-4.815-6.5-9.133-6.571V1.07h9.982l7.363 11.5c1.062-1.643 4.46-6.571 4.46-8.356 0-1.573-2.053-1.644-3.186-1.857V1.07H66.62v1.287c-5.098.357-7.01 2.572-9.699 6.643a206.167 206.167 0 01-3.257 5.07l6.229 9.787c1.912 3 4.249 6 8.142 6 4.461 0 9.133-.286 9.133-5.857V7.714c0-4.357-.92-4.928-5.239-5.571V1H95.08l.495 6.785H94.3zM31.718 46c-.709.714-.496 9.5-.496 10.429h-.78c-2.477-2.858-5.239-5.429-7.787-8.215v4.715c.07 2.428.78 2.572 2.974 2.714v.786h-6.584v-.786c1.769-.214 2.194-.643 2.265-2.357.07-1.358.141-2.715.141-4.071V47.57c0-.214-.07-.5-.07-.714-.85-1-1.346-1.215-2.62-1.5v-.714h4.106c.92 1.715 5.523 6.142 7.151 7.928 0-.786.071-1.499.071-2.285 0-.785-.07-1.572-.143-2.358-.07-2.214-.849-2.427-2.903-2.5v-.785c2.1.071 4.202.071 6.302 0v.714c-.495.072-1.203.214-1.628.643zM25.344 6.928c-2.053-3.214-5.026-5.357-8.85-5.357-8 0-10.548 7.214-10.548 14.071 0 3.286.566 7.001 2.407 9.787 2.053 3.07 5.168 5.214 8.92 5.214 8.213 0 10.336-7.285 10.336-14.142 0-3.215-.566-6.858-2.265-9.573zM10.126 56.786c-3.045 0-5.097-.571-5.523-3.858-.141-1.5-.212-3.07-.425-4.571-.141-1.071-.354-2.643-1.7-2.786H1.63v-.928c1.628 0 3.327 0 4.955-.072.071 2.786.213 5.643.567 8.429.142 1.714 1.486 2.5 3.045 2.5 1.345 0 2.618-.5 2.972-1.929.425-1.786.709-4.07.709-5.857 0-1.5-.85-2.285-2.267-2.285v-.786h6.302v.786c-5.735 0 .071 11.357-7.787 11.357zm6.651-24.5C7.152 32.286 0 25.929 0 16 0 6.143 7.291 0 16.778 0c9.772 0 16.78 6.214 16.78 16.286 0 9.785-7.435 16-16.779 16h-.002z" fill="#002147"/></g><defs><clipPath id="clip0"><path fill="#fff" d="M0 0h200v57.143H0z"/></clipPath></defs></svg>