<svg width="200" height="49" fill="none" xmlns="http://www.w3.org/2000/svg"><g clip-path="url(#clip0)" fill="#fff"><path d="M172.033.207c-10.366 0-18.903 8.374-18.903 18.902 0 10.366 8.374 18.903 18.903 18.903 10.365 0 18.902-8.374 18.902-18.903 0-10.528-8.537-18.902-18.902-18.902zm14.634 8.374c-.935.61-1.992 1.22-3.049 1.829-.61-1.22-1.382-2.439-2.277-3.496.773-.447 1.545-1.057 2.155-1.545 1.341.773 2.398 1.992 3.171 3.212zm-7.927-6.22c1.545.61 2.886 1.382 4.268 2.44-.61.609-1.382 1.056-2.154 1.544-.935-1.057-1.992-1.992-3.049-2.886.325-.488.65-.813.935-1.098zm1.545 4.269c-1.057.61-2.155.935-3.212 1.382-.447-1.057-.935-2.155-1.545-3.05.61-.324 1.22-.609 1.667-1.056a14.86 14.86 0 013.09 2.724zm-2.317-4.594c-.326.325-.61.61-.773.935-1.057-.61-1.992-1.22-3.211-1.667 1.423-.04 2.764.285 3.984.732zm-1.342 1.382c-.447.325-.935.61-1.382.773-.61-.935-1.22-1.667-1.829-2.602 1.057.447 2.113 1.057 3.211 1.83zm-4.309-1.667c.772.773 1.382 1.667 1.992 2.765-.61.162-1.22.325-1.992.325V1.75zm0 3.781c.772 0 1.667-.163 2.439-.447.61.935 1.057 1.992 1.545 3.049-1.22.325-2.602.447-3.984.61V5.531zm-.732-3.78V4.8c-.609 0-1.219-.162-1.991-.325.772-.894 1.382-1.83 1.991-2.723zm-2.601 2.439c-.447-.163-1.057-.448-1.382-.773 1.057-.61 2.154-1.22 3.211-1.667-.772.732-1.382 1.505-1.829 2.44zm1.057-3.05c-1.057.448-2.155 1.058-3.212 1.667-.325-.325-.609-.61-.772-.935 1.26-.284 2.602-.61 3.984-.731zm12.967 32.318c-2.439-1.382-2.601-3.374-2.439-3.984.163-.772.61-.447.935-.447 1.667 0 3.374-.447 5.488-2.764 2.439-2.44 3.211-7.927-.61-11.423-3.984-3.821-8.252-3.211-10.975.325-.61.772-1.992 1.22-3.049 1.22-1.83 0-.61 1.382-.61 1.666 0 .326-.325.448-.447.448-.61-.163-.325.772-.325.934 0 .163-.326.448-.326.448-.772 0-.609.61-.447.934 0 .163 0 .448-.325.61-.325.163-.447.773-.447 1.22 0 .772.772 1.382 1.992 2.276 1.219.935 1.382 1.83 1.382 2.44 0 .609.163 1.666.325 2.276.325.772.325 2.276-1.382 2.276-2.154.163-5.813 1.667-6.098 1.83-1.219.447-2.764.61-3.983.325-.61-.448-1.22-.935-1.83-1.545-.325-.773.163-1.667.61-2.277.773.773 1.667.61 2.277.61.609 0 3.374-.447 3.821-.61.447-.162.61-.162.772 0 1.057.448 2.602.448 3.211-1.544.61-2.155-.772-1.545-1.056-1.382-.163.162-.448 0-.326-.163.326-.447-.162-.447-.325-.447-.61 0-1.382.61-1.545.772-.325.163-.447.163-.609.163-.773-.447-3.049.162-3.821-1.057 0-.325-.61-5.325-.935-6.26 0-.163-.163-.447.162-.773.61-.935 2.155 0 3.049 0 1.057 0 1.219-.447 1.545-.772.325-.325.447-.163.609-.325.163-.163 0-.325 0-.447s.163 0 .326-.163c.162-.163 0-.447 0-.61.325-.447.935-.162.609-1.057-.162-.61.163-1.22.448-1.544.447-.61 2.439-3.374-.935-6.26-3.212-2.765-6.545-2.44-8.7-.163-2.154 2.276-1.056 5.65-.935 6.545.163.935-.447 1.666-1.219 1.992-.61.325-1.992 1.219-2.886 1.991.162-7.317 4.593-13.74 11.301-16.3.325.325.609.772.935 1.056-.773.61-2.439 1.992-2.439 1.992s.162 0 .447.163c.162 0 .447.163.447.163s1.382-1.22 2.154-1.667c.447.447 1.057.772 1.667 1.057-.325.61-1.22 2.154-1.22 2.154s.163.163.326.163a.502.502 0 00.325.162s.935-1.666 1.219-2.276a5.82 5.82 0 002.277.447v3.049c-.447 0-1.545 0-1.992-.163h-.325l.162.326c.163.162.163.325.326.447h1.829v5.65h.772v-1.382c1.22 0 2.155-.163 3.212-.325l1.056-.935h-.609c-1.22.163-2.277.325-3.212.325h-.447V9.353c1.382 0 2.886-.162 4.268-.61.326.935 1.057 3.212 1.057 3.212l.773-.325s-.773-2.277-1.057-3.212c1.219-.325 2.276-.935 3.374-1.382.935 1.057 1.666 2.276 2.276 3.496-.61.325-1.545.61-1.545.61.773.162 1.383.325 1.383.325s.325-.163.447-.163c0 .163.162.447.162.447l1.057.448-.162-.325s-.326-.773-.447-.936a16.176 16.176 0 003.211-1.829c1.992 2.886 2.886 6.423 2.886 9.919.285 5.894-2.602 11.057-6.87 14.43zM151.463 5.247l-.325.326c-1.057.935-3.658 3.496-3.211 6.422v.163l.162.61.326-.325c1.544-1.383 2.764-3.822 3.211-6.545l.163-.773-.326.122zm-5.203 4.878l-.162.326c-.163.447-.447 1.544-.61 2.764-.325 1.83-.163 4.593 1.382 6.544l.325.61.326-1.22c.325-2.154-.163-6.544-.935-8.536l-.326-.61v.122zm-1.829 7.602v.325c-.163 1.83 0 6.545 3.821 9.147l.447.325v-.61c0-1.83-2.154-7.154-3.658-8.984l-.447-.61-.163.407zm.61 8.415v.325c.61 2.764 3.049 7.033 7.032 8.374l.61.163-.163-.61c-.772-1.992-4.593-6.707-7.032-8.252l-.447-.325v.325zm8.089-16.789l-.447.163c-2.886 1.829-4.268 3.983-4.268 6.707v.61l.447-.325c1.545-1.383 3.658-4.716 4.106-6.545l.162-.773v.163zm-1.829 5.813l-.163.325c-.772.773-3.211 3.374-3.048 6.545 0 .447.162 1.057.325 1.545l.162.447.326-.447c1.219-1.667 2.764-5.935 2.601-7.927v-.61l-.203.122zm.163 5.65l-.163.326c-1.22 1.829-1.829 3.658-1.829 5.487 0 1.22.447 2.44 1.219 3.659l.325.447.163-.447c.447-1.057.935-4.268.935-6.87 0-.935-.163-1.667-.325-2.154l-.163-.61-.162.162zm1.341 5.936l-.162.325c-.326 1.22-.61 2.276-.448 3.496 0 2.439 1.22 4.43 3.374 5.813l.326.162.162-.447v-.447c0-1.992-1.545-7.155-2.764-8.7l-.325-.446-.163.244zm-4.106 7.926l.163.325c1.545 2.602 4.268 6.098 9.309 5.204h.447l-.325-.325c-.935-1.383-7.033-4.879-9.147-5.204l-.609-.162.162.162zm7.48 6.708l-.772.162.772.325c3.211 1.383 7.155 1.667 9.594.936.935-.326 1.382-.773 1.991-1.383 4.106.447 7.927 3.822 10.204 6.545l.162.163h.163c.325-.163.61-.447.772-.61l.163-.163-.163-.162c-2.276-3.05-5.935-4.878-6.097-5.04-3.374-1.546-9.187-2.765-16.789-.773z"/><path d="M156.342 32.849v.325c.447 3.049 1.666 7.033 6.87 6.545h.325l-.163-.325c-.325-1.382-5.04-5.325-6.707-6.423l-.447-.325.122.203zm35.975-27.927l.163.773c.447 2.764 1.666 5.203 3.211 6.544l.325.326.163-.61v-.163c.447-2.886-2.155-5.488-3.211-6.422l-.326-.326-.325-.122zm5.325 4.878l-.325.61c-.772 1.992-1.057 6.423-.935 8.537l.325 1.22.163-.164.163-.325c1.666-1.992 1.666-4.593 1.382-6.544a13.158 13.158 0 00-.61-2.765l-.163-.325V9.8zm1.992 7.643l-.447.61c-1.545 1.991-3.658 7.154-3.658 8.983v.61l.447-.325c3.821-2.44 3.983-7.155 3.821-9.147v-.325l-.163-.406zm-.609 8.374l-.61.325c-2.439 1.545-6.26 6.26-7.033 8.252l-.162.61.609-.163c3.984-1.22 6.545-5.65 7.033-8.374v-.325l.163-.325zm-8.09-16.748l.163.772c.609 1.992 2.439 5.325 4.105 6.707l.447.326v-.61c.163-2.764-1.219-4.878-4.105-6.708l-.325-.162-.285-.325zm1.667 5.934v.61c-.163 1.992 1.544 6.423 2.601 7.927l.325.447.163-.447c.163-.61.325-1.057.325-1.545.163-3.211-2.276-5.813-3.048-6.544l-.163-.163-.203-.285zm-.122 5.488l-.163.61c-.162.447-.325 1.22-.325 2.154 0 2.602.325 5.813.935 6.87l.163.448.325-.448c.772-1.057 1.219-2.276 1.219-3.658 0-1.667-.61-3.659-1.829-5.488l-.163-.325-.162-.163zm-1.382 5.935l-.325.447c-1.22 1.545-2.765 6.708-2.765 8.7v.447l.163.447.325-.163c2.155-1.382 3.211-3.374 3.374-5.813 0-1.057-.163-2.276-.447-3.496l-.163-.325-.162-.244zm4.431 7.927l-.61.163c-2.155.325-8.252 3.82-9.147 5.203l-.325.325h.447c5.041.935 7.765-2.601 9.309-5.203l.163-.325.163-.163zm-24.269 7.805c-.162 0-3.821 1.992-6.097 5.04l-.163.163.163.163c.162.163.609.447.772.61h.163l.162-.163c2.277-2.764 6.098-6.26 10.203-6.545.61.61 1.22 1.057 1.992 1.383 2.277.772 6.423.447 9.594-.935l.772-.326-.772-.162c-7.764-1.992-13.577-.773-16.789.772zm16.464-9.634l-.447.325c-1.667 1.057-6.26 5.04-6.708 6.423l-.162.325h.325c5.041.447 6.26-3.496 6.87-6.545v-.365l.122-.163zM59.024 2.036h6.423V7.85h-6.423V2.036zm.61 12.52h5.325V42.93h-5.325V14.557zm-40.406 0h5.325V42.93H19.35v-4.146h-.163c-2.154 3.496-5.813 5.04-9.756 5.04-5.935 0-9.309-4.593-9.309-10.203V14.556h5.325v16.789c0 4.878 1.057 8.537 6.26 8.537 2.155 0 5.204-1.057 6.26-4.106 1.058-2.602 1.058-5.935 1.058-6.707V14.597h.203v-.04zm16.016 4.106c1.992-3.496 5.813-5.04 8.7-5.04 1.991 0 10.69.447 10.69 9.593v19.512H49.31V24.882c0-4.716-1.992-7.155-6.545-7.155 0 0-2.886-.163-5.203 2.154-.772.773-2.276 1.992-2.276 7.643V42.93H29.96V14.556h5.325l-.041 4.106zm52.154 4.878c-.325-3.496-1.992-5.935-5.813-5.935-5.04 0-7.032 4.431-7.032 10.976 0 6.544 1.992 10.975 7.032 10.975 3.496 0 5.65-2.276 5.935-6.422h5.326c-.448 6.422-5.204 10.203-11.423 10.203-8.984 0-12.642-6.423-12.642-14.634 0-8.212 4.105-15.082 13.13-15.082 5.935 0 10.365 3.821 10.69 9.919h-5.203zm13.415 6.098c-.447 4.878 1.667 10.08 7.033 10.08 4.105 0 6.26-1.666 6.869-5.812h5.61c-.935 6.423-5.813 9.593-12.52 9.593-8.984 0-12.642-6.422-12.642-14.634 0-8.211 4.105-15.081 13.13-15.081 8.374.162 12.357 5.488 12.357 13.252v2.602h-19.837zm14.35-3.659c.162-4.715-1.992-8.374-7.155-8.374-4.431 0-7.032 3.821-7.032 8.374h14.187zm11.585 16.626v-24.39h-4.878v-3.659h4.878V8.46c.163-6.098 4.878-7.764 8.862-7.764 1.22 0 2.602.325 3.821.61v4.43c-.935 0-1.829-.162-2.764-.162-3.049 0-4.716.772-4.594 3.82v5.204h6.545v3.659h-6.545v24.39l-5.325-.04z"/></g><defs><clipPath id="clip0"><path fill="#fff" transform="translate(0 .166)" d="M0 0h200v47.968H0z"/></clipPath></defs></svg>