<svg width="200" height="64" viewBox="0 0 200 64" fill="none" xmlns="http://www.w3.org/2000/svg">
<g clip-path="url(#clip0_1094:980)">
<g clip-path="url(#clip1_1094:980)">
<path d="M159.328 47.4872L157.911 47.0288L158.804 44.937H160.871L159.328 47.4872Z" fill="white"/>
<path d="M53.975 35.4445C51.6824 33.2289 48.6486 31.956 45.6474 31.9516H45.6236C40.9364 31.9516 38.4531 34.1238 36.4595 35.8616C34.7953 37.317 33.6966 38.2814 31.2869 38.2814H31.2739C30.687 38.2809 30.1033 38.196 29.5404 38.0295C27.632 37.3898 26.1873 35.8094 25.7179 33.848C25.6984 33.7676 25.6789 33.6872 25.6615 33.6047C25.6442 33.5221 25.6312 33.4157 25.6182 33.3201C25.6052 33.2245 25.5922 33.1333 25.5813 33.0399C25.564 32.8618 25.5532 32.6815 25.5532 32.499C25.5533 31.7443 25.7005 30.9968 25.9866 30.2986C26.0537 30.14 26.1231 29.9858 26.2033 29.8337C26.2596 29.7251 26.3181 29.6165 26.381 29.5188C26.4655 29.3732 26.5586 29.2342 26.6562 29.0974C28.1128 27.0621 30.704 26.1876 33.092 26.9252C34.6223 27.2408 36.1414 26.3398 36.6022 24.8434C37.063 23.347 36.3147 21.7445 34.8733 21.1406C33.7648 20.7815 32.6079 20.5954 31.443 20.5889C30.3491 20.5852 29.2585 20.7076 28.1925 20.9538C25.5163 21.6445 23.1608 23.4605 21.5768 25.8C21.5551 25.8304 21.5335 25.8586 21.514 25.889C21.3081 26.1975 21.1152 26.5124 20.9375 26.8383L20.9115 26.8926C20.7382 27.2119 20.5822 27.5442 20.4391 27.8722C20.4391 27.8853 20.4283 27.8983 20.4218 27.9135C19.8179 29.298 19.4987 30.7904 19.4835 32.3014C19.4849 32.7635 19.5095 33.2254 19.5572 33.6851C19.568 33.8089 19.5919 33.9305 19.6092 34.0543C19.646 34.3411 19.6829 34.6256 19.737 34.9037L19.7501 34.9514C20.632 39.3197 23.6918 42.6693 27.8285 43.877C28.9758 44.2376 30.1712 44.4207 31.3736 44.4201C35.155 44.4201 38.5809 42.0936 40.4554 40.4515C42.1196 38.9939 43.2204 38.0295 45.6366 38.0295H45.6496C47.0993 38.0295 48.6053 38.6811 49.782 39.8215C50.9661 40.9234 51.6476 42.4639 51.6672 44.0834C51.6672 49.5421 43.5303 57.7834 31.2978 57.7834H31.2588C17.5441 57.7617 6.24772 46.5358 6.07653 32.7553C5.99078 25.9761 8.61697 19.4448 13.3686 14.62C18.1202 9.79526 24.6015 7.07897 31.365 7.07777H31.404C38.111 7.07069 44.5428 9.75081 49.2684 14.5219C50.4669 15.6021 52.2989 15.5542 53.4397 14.413C54.5805 13.2717 54.632 11.4354 53.5568 10.2318C47.696 4.31122 39.7159 0.986957 31.3953 0.999916H31.3476C22.9644 0.999916 14.9307 4.36662 9.04088 10.3466C3.15107 16.3266 -0.104083 24.4221 0.00253914 32.8249C0.219235 49.907 14.2243 63.8243 31.2306 63.8482H31.2804C46.395 63.8482 57.7022 53.4217 57.7174 44.0812C57.7063 40.8084 56.354 37.684 53.9772 35.4402" fill="white"/>
<path d="M70.5132 53.1676C70.5104 52.5442 70.6168 51.9251 70.8275 51.3386C71.0274 50.7763 71.3368 50.2594 71.7376 49.818C72.1434 49.3783 72.6335 49.0251 73.1787 48.7797C73.7773 48.5139 74.4266 48.382 75.0812 48.3931C75.935 48.3683 76.7772 48.5949 77.5039 49.0447C78.1548 49.4596 78.6742 50.0518 79.0013 50.7521L76.8343 51.4559C76.3138 50.5072 75.1441 50.1323 74.1711 50.6022C73.8948 50.7374 73.6497 50.929 73.4517 51.1648C73.2379 51.4212 73.0746 51.7161 72.9706 52.0337C72.8518 52.3967 72.7933 52.7768 72.7973 53.1589C72.7926 53.5417 72.8542 53.9224 72.9793 54.2841C73.0888 54.6038 73.2539 54.9017 73.4669 55.1638C73.6627 55.4041 73.9081 55.599 74.1863 55.7351C74.4589 55.8709 74.7595 55.9408 75.0639 55.9393C75.4535 55.9408 75.8354 55.8308 76.1647 55.6221C76.4724 55.4427 76.7175 55.1727 76.8668 54.8488L79.0338 55.5505C78.729 56.2622 78.215 56.8639 77.5603 57.2752C76.8216 57.736 75.9639 57.9687 75.0943 57.9442C74.4397 57.954 73.7907 57.8221 73.1917 57.5576C72.6459 57.3105 72.1562 56.9542 71.7528 56.5106C71.3514 56.0639 71.0395 55.544 70.834 54.9792C70.6204 54.3993 70.5117 53.7858 70.5132 53.1676Z" fill="white"/>
<path d="M84.395 57.9529C83.7404 57.9627 83.0915 57.8308 82.4924 57.5663C81.9482 57.3207 81.4611 56.9641 81.0622 56.5192C80.6671 56.0751 80.3611 55.5589 80.1608 54.9987C79.9498 54.4183 79.8434 53.8049 79.8465 53.1871C79.8426 52.5636 79.9489 51.9443 80.1608 51.3581C80.3609 50.7979 80.667 50.2816 81.0622 49.8376C81.4606 49.392 81.9478 49.0353 82.4924 48.7906C83.0912 48.5251 83.7404 48.3932 84.395 48.4039C85.0476 48.3923 85.6949 48.5243 86.2911 48.7906C86.8324 49.0366 87.3166 49.3932 87.7126 49.8376C88.1078 50.2816 88.4139 50.7979 88.6141 51.3581C88.8259 51.9443 88.9323 52.5636 88.9283 53.1871C88.9314 53.8049 88.8251 54.4183 88.6141 54.9987C88.4143 55.5572 88.1114 56.073 87.7213 56.5192C87.3261 56.9654 86.8408 57.3223 86.2976 57.5663C85.6985 57.8308 85.0496 57.9627 84.395 57.9529ZM82.1284 53.1741C82.1238 53.554 82.1824 53.9321 82.3017 54.2927C82.4092 54.6087 82.5721 54.903 82.7828 55.1616C82.9786 55.4019 83.224 55.5969 83.5022 55.7329C84.0672 56.0052 84.725 56.0052 85.2899 55.7329C85.5681 55.5969 85.8136 55.4019 86.0094 55.1616C86.222 54.9006 86.3843 54.6023 86.4883 54.2819C86.6083 53.9191 86.6669 53.5388 86.6616 53.1567C86.6657 52.7803 86.6071 52.4059 86.4883 52.0489C86.3822 51.7327 86.2199 51.4383 86.0094 51.18C85.813 50.9402 85.5677 50.7454 85.2899 50.6087C85.011 50.4735 84.7048 50.4044 84.395 50.4066C84.0843 50.4062 83.7781 50.4807 83.5022 50.6239C83.2254 50.766 82.9806 50.9634 82.7828 51.2039C82.5713 51.466 82.4084 51.7639 82.3017 52.0836C82.1846 52.4388 82.1261 52.8108 82.1284 53.1849V53.1741Z" fill="white"/>
<path d="M98.4757 57.7769H96.2589V52.6049C96.2589 51.8663 96.1375 51.3269 95.8948 50.9866C95.6675 50.6545 95.2866 50.462 94.885 50.4761C94.652 50.479 94.4217 50.527 94.2068 50.6173C93.9709 50.7144 93.7516 50.8478 93.5567 51.0127C93.3457 51.1899 93.1592 51.3944 93.002 51.6209C92.8352 51.8546 92.7119 52.1166 92.6379 52.3942V57.7769H90.4189V48.5603H92.419V50.2654C92.7379 49.6811 93.2219 49.2043 93.8102 48.8948C94.4417 48.5591 95.1477 48.3894 95.8623 48.4017C96.3239 48.3813 96.7819 48.4912 97.1842 48.7188C97.5165 48.9198 97.7906 49.2044 97.9795 49.5443C98.1736 49.9068 98.3047 50.2998 98.3674 50.7064C98.4395 51.1422 98.4757 51.5832 98.4757 52.0249V57.7769Z" fill="white"/>
<path d="M101.124 57.777V50.6826H99.8235V48.556H101.124V45.5692H103.405V48.5603H105.408V50.6826H103.405V57.7726L101.124 57.777Z" fill="white"/>
<path d="M111.844 50.6C111.219 50.6004 110.603 50.7414 110.041 51.0127C109.53 51.2582 109.124 51.68 108.899 52.2009V57.7769H106.682V48.5603H108.721V50.5305C108.869 50.2255 109.052 49.939 109.267 49.6768C109.469 49.436 109.697 49.2175 109.945 49.0251C110.17 48.8475 110.418 48.7013 110.682 48.5907C110.91 48.495 111.154 48.4441 111.402 48.4408H111.675C111.733 48.4408 111.791 48.4467 111.848 48.4582L111.844 50.6Z" fill="white"/>
<path d="M116.659 57.9528C116.089 57.9588 115.526 57.8324 115.014 57.5836C114.514 57.3387 114.071 56.9908 113.714 56.5626C113.34 56.1118 113.052 55.5965 112.862 55.0421C112.655 54.4391 112.552 53.8052 112.557 53.1675C112.552 52.5312 112.652 51.8985 112.853 51.2951C113.035 50.744 113.313 50.2292 113.673 49.7745C114.009 49.3554 114.429 49.0113 114.906 48.7644C115.381 48.5172 115.909 48.3904 116.444 48.3952C117.056 48.3856 117.658 48.553 118.178 48.8774C118.683 49.1982 119.095 49.648 119.369 50.1807V48.6602H121.586V57.7552H119.374V56.2585C119.115 56.7544 118.736 57.1777 118.273 57.4902C117.793 57.8015 117.231 57.9625 116.659 57.9528ZM119.374 52.2182C119.194 51.711 118.882 51.2611 118.47 50.9149C118.101 50.5926 117.629 50.4144 117.14 50.4131C116.818 50.4103 116.501 50.4919 116.221 50.6499C115.938 50.8094 115.69 51.0252 115.493 51.2842C115.285 51.5539 115.125 51.8574 115.02 52.1813C114.91 52.5184 114.854 52.8712 114.856 53.2261C114.854 53.5881 114.912 53.9479 115.029 54.2905C115.137 54.6078 115.302 54.9023 115.517 55.1594C115.724 55.4046 115.981 55.6024 116.271 55.7394C116.567 55.8833 116.893 55.9576 117.222 55.9566C117.686 55.9673 118.139 55.8178 118.505 55.533C118.878 55.2316 119.175 54.846 119.372 54.4078L119.374 52.2182Z" fill="white"/>
<path d="M131.583 57.9529C130.934 57.9621 130.292 57.8333 129.697 57.5749C129.152 57.3354 128.662 56.9848 128.258 56.5453C127.856 56.1034 127.544 55.5868 127.34 55.0247C127.124 54.4446 127.014 53.8301 127.017 53.211C127.012 52.5789 127.119 51.951 127.331 51.3559C127.533 50.7945 127.842 50.278 128.241 49.8354C128.646 49.3895 129.139 49.0329 129.689 48.7884C130.291 48.5232 130.942 48.3913 131.6 48.4017C132.252 48.3901 132.898 48.5221 133.494 48.7884C134.034 49.0341 134.518 49.3873 134.917 49.8267C135.314 50.2684 135.617 50.7855 135.81 51.3472C136.014 51.9233 136.117 52.5302 136.116 53.1414C136.116 53.2935 136.116 53.4412 136.116 53.5759C136.112 53.6942 136.099 53.8119 136.075 53.9278H129.366C129.391 54.2629 129.476 54.5908 129.615 54.8966C129.74 55.1664 129.913 55.4109 130.126 55.6178C130.542 56.0128 131.094 56.2329 131.667 56.2325C132.106 56.2323 132.537 56.1137 132.915 55.8893C133.28 55.6914 133.564 55.3706 133.717 54.9835L135.62 55.5461C135.291 56.2632 134.759 56.8676 134.09 57.2838C133.337 57.747 132.465 57.9796 131.583 57.9529ZM133.834 52.3942C133.809 51.7699 133.552 51.1775 133.115 50.7325C132.482 50.1175 131.546 49.9374 130.731 50.2741C130.474 50.3845 130.241 50.543 130.044 50.7412C129.839 50.9499 129.674 51.1943 129.556 51.4623C129.428 51.757 129.354 52.0729 129.34 52.3942H133.834Z" fill="white"/>
<path d="M137.507 44.937H139.724V57.7769H137.507V44.937Z" fill="white"/>
<path d="M145.217 53.1675C145.213 52.544 145.32 51.9247 145.531 51.3385C145.73 50.7758 146.04 50.2588 146.441 49.8179C146.846 49.3778 147.336 49.0246 147.88 48.7796C148.479 48.514 149.128 48.3821 149.783 48.393C150.637 48.368 151.48 48.5945 152.208 49.0446C152.858 49.46 153.377 50.0521 153.705 50.752L151.538 51.4558C151.018 50.5072 149.848 50.1322 148.875 50.6021C148.599 50.7378 148.354 50.9294 148.156 51.1647C147.942 51.4213 147.78 51.7161 147.677 52.0336C147.556 52.3962 147.497 52.7765 147.501 53.1588C147.496 53.5416 147.558 53.9223 147.683 54.284C147.792 54.6043 147.958 54.9023 148.173 55.1637C148.369 55.4041 148.614 55.599 148.892 55.735C149.162 55.8692 149.458 55.9391 149.759 55.9392C150.149 55.9413 150.531 55.8313 150.86 55.6221C151.168 55.443 151.414 55.173 151.564 54.8488L153.731 55.5504C153.427 56.2626 152.913 56.8644 152.258 57.2751C151.52 57.7363 150.663 57.969 149.794 57.9441C149.139 57.9539 148.49 57.8221 147.891 57.5575C147.345 57.3105 146.854 56.9542 146.45 56.5105C146.049 56.0637 145.738 55.5438 145.534 54.9791C145.32 54.3992 145.213 53.7855 145.217 53.1675Z" fill="white"/>
<path d="M158.667 57.9529C158.098 57.9588 157.535 57.8324 157.023 57.5836C156.523 57.3387 156.079 56.9908 155.723 56.5626C155.349 56.1118 155.06 55.5965 154.871 55.0421C154.664 54.4391 154.56 53.8052 154.565 53.1675C154.561 52.5312 154.661 51.8985 154.862 51.2951C155.044 50.744 155.321 50.2292 155.681 49.7745C156.018 49.3559 156.438 49.0119 156.914 48.7644C157.389 48.5175 157.918 48.3907 158.453 48.3952C159.065 48.3856 159.667 48.553 160.186 48.8774C160.692 49.1982 161.103 49.648 161.378 50.1807V48.6602H163.595V57.7552H161.378V56.2585C161.119 56.7544 160.741 57.1777 160.277 57.4902C159.798 57.801 159.238 57.9621 158.667 57.9529ZM161.378 52.2182C161.198 51.711 160.886 51.2611 160.475 50.9149C160.106 50.5926 159.633 50.4144 159.144 50.4131C158.823 50.4103 158.506 50.4919 158.225 50.6499C157.942 50.8094 157.694 51.0252 157.497 51.2842C157.29 51.5539 157.13 51.8574 157.025 52.1813C156.915 52.5187 156.86 52.8713 156.86 53.2261C156.858 53.5881 156.917 53.9479 157.034 54.2905C157.141 54.6083 157.307 54.903 157.523 55.1594C157.729 55.405 157.986 55.6029 158.275 55.7394C158.572 55.8833 158.897 55.9576 159.227 55.9566C159.69 55.9673 160.143 55.8178 160.509 55.533C160.883 55.2316 161.18 54.846 161.376 54.4078L161.378 52.2182Z" fill="white"/>
<path d="M173.659 57.7769H171.442V52.6049C171.442 51.8663 171.32 51.3269 171.078 50.9866C170.85 50.6545 170.469 50.462 170.068 50.4761C169.835 50.479 169.605 50.527 169.39 50.6173C169.154 50.7151 168.935 50.8484 168.74 51.0127C168.53 51.1905 168.344 51.395 168.187 51.6209C168.02 51.8546 167.897 52.1166 167.823 52.3942V57.7769H165.602V48.5603H167.602V50.2654C167.921 49.6811 168.405 49.2043 168.993 48.8948C169.625 48.5591 170.331 48.3894 171.045 48.4017C171.507 48.3813 171.965 48.4912 172.367 48.7188C172.699 48.9198 172.974 49.2044 173.162 49.5443C173.356 49.9068 173.488 50.2998 173.55 50.7064C173.622 51.1422 173.659 51.5832 173.659 52.0249V57.7769Z" fill="white"/>
<path d="M175.048 53.1676C175.045 52.5442 175.151 51.9251 175.362 51.3386C175.562 50.7763 175.871 50.2594 176.272 49.818C176.678 49.3783 177.168 49.0251 177.713 48.7797C178.312 48.5139 178.961 48.382 179.615 48.3931C180.469 48.3683 181.311 48.5949 182.038 49.0447C182.689 49.4596 183.208 50.0518 183.536 50.7521L181.369 51.4559C180.846 50.5145 179.683 50.1433 178.714 50.6087C178.438 50.7439 178.193 50.9355 177.995 51.1713C177.781 51.4278 177.617 51.7226 177.514 52.0402C177.395 52.4032 177.336 52.7833 177.34 53.1654C177.336 53.5482 177.397 53.9289 177.522 54.2906C177.632 54.6103 177.797 54.9082 178.01 55.1703C178.201 55.4097 178.441 55.6053 178.714 55.7438C178.987 55.8796 179.287 55.9495 179.592 55.948C179.981 55.9499 180.363 55.8398 180.692 55.6308C181 55.4514 181.245 55.1814 181.395 54.8575L183.562 55.5591C183.257 56.2709 182.743 56.8726 182.088 57.2839C181.349 57.7447 180.492 57.9774 179.622 57.9529C178.967 57.9627 178.318 57.8308 177.719 57.5663C177.174 57.3192 176.684 56.9629 176.281 56.5193C175.88 56.072 175.568 55.5522 175.362 54.9879C175.149 54.4048 175.043 53.7883 175.048 53.1676Z" fill="white"/>
<path d="M188.946 57.953C188.298 57.9626 187.656 57.8338 187.061 57.575C186.515 57.3348 186.025 56.9843 185.62 56.5454C185.219 56.1028 184.908 55.5864 184.703 55.0248C184.487 54.445 184.377 53.8303 184.381 53.2111C184.376 52.579 184.482 51.9511 184.695 51.356C184.895 50.7938 185.204 50.277 185.605 49.8355C186.01 49.3896 186.503 49.033 187.052 48.7885C187.654 48.5233 188.306 48.3914 188.964 48.4018C189.616 48.3904 190.262 48.5224 190.858 48.7885C191.397 49.0342 191.882 49.3874 192.281 49.8268C192.677 50.269 192.98 50.786 193.174 51.3473C193.378 51.9234 193.481 52.5303 193.48 53.1415C193.48 53.2936 193.48 53.4413 193.48 53.576C193.477 53.6943 193.464 53.8122 193.438 53.9279H186.732C186.757 54.2628 186.84 54.5908 186.979 54.8967C187.104 55.1666 187.278 55.411 187.492 55.6179C187.697 55.8147 187.939 55.9696 188.203 56.074C188.466 56.1795 188.747 56.2334 189.031 56.2326C189.471 56.2328 189.903 56.1142 190.281 55.8894C190.646 55.6909 190.93 55.3703 191.083 54.9836L192.986 55.5462C192.656 56.2629 192.124 56.8671 191.456 57.2839C190.702 57.7476 189.83 57.9801 188.946 57.953ZM191.198 52.3943C191.172 51.7698 190.914 51.1774 190.476 50.7326C190.067 50.3216 189.508 50.0957 188.929 50.107C188.642 50.1051 188.358 50.1621 188.095 50.2742C187.838 50.3846 187.605 50.5431 187.408 50.7413C187.202 50.9494 187.037 51.194 186.92 51.4624C186.792 51.7571 186.718 52.073 186.703 52.3943H191.198Z" fill="white"/>
<path d="M200 50.5999C199.375 50.6003 198.758 50.7413 198.195 51.0126C197.684 51.2581 197.278 51.68 197.053 52.2008V57.7769H194.836V48.5602H196.871V50.5304C197.156 49.9349 197.576 49.4143 198.097 49.0099C198.321 48.8318 198.568 48.6856 198.832 48.5754C199.06 48.4799 199.304 48.429 199.551 48.4255H199.824C199.883 48.4257 199.942 48.4315 200 48.4429V50.5999Z" fill="white"/>
<path d="M75.0813 39.0331C74.4325 39.0425 73.7892 38.9137 73.1939 38.6551C72.6485 38.4151 72.1586 38.0645 71.755 37.6255C71.3525 37.1837 71.0404 36.6671 70.8362 36.1049C70.6205 35.5255 70.5111 34.9118 70.5133 34.2933C70.5099 33.6614 70.6162 33.0337 70.8275 32.4383C71.0283 31.8731 71.3375 31.3529 71.7377 30.9069C72.1434 30.462 72.6362 30.1057 73.1852 29.8599C73.7875 29.5959 74.4392 29.4641 75.0965 29.4732C75.749 29.4629 76.3959 29.5948 76.9925 29.8599C77.5318 30.1056 78.0155 30.4589 78.4141 30.8982C78.8099 31.3402 79.1135 31.8572 79.3069 32.4187C79.5125 32.9944 79.6166 33.6015 79.6146 34.213C79.6146 34.3672 79.6146 34.5127 79.6146 34.6474C79.6112 34.7657 79.5974 34.8834 79.5734 34.9993H72.8645C72.8894 35.3336 72.9731 35.6608 73.1115 35.9659C73.2326 36.2382 73.4039 36.4851 73.6164 36.6936C73.8217 36.8908 74.063 37.0465 74.3272 37.152C74.5906 37.2568 74.8715 37.3106 75.155 37.3105C75.5942 37.3106 76.0254 37.1921 76.4031 36.9673C76.7681 36.7683 77.0524 36.448 77.2071 36.0615L79.1097 36.6241C78.7809 37.342 78.2479 37.9465 77.5776 38.3619C76.8283 38.8241 75.9608 39.0574 75.0813 39.0331ZM77.3306 33.4744C77.3052 32.8501 77.0487 32.2577 76.6112 31.8127C76.201 31.4034 75.6426 31.1784 75.064 31.1893C74.7766 31.1866 74.4918 31.2435 74.2275 31.3565C73.9713 31.4653 73.7387 31.6232 73.5428 31.8214C73.3377 32.0304 73.1718 32.2747 73.053 32.5425C72.9258 32.8377 72.8524 33.1533 72.8363 33.4744H77.3306Z" fill="white"/>
<path d="M84.2474 39.033C83.5201 39.0329 82.7982 38.908 82.1129 38.6637C81.4512 38.4383 80.8427 38.079 80.3252 37.608L81.153 36.1309C81.6272 36.499 82.1474 36.8035 82.7002 37.0367C83.1742 37.2372 83.6831 37.342 84.1975 37.3452C84.5637 37.3648 84.9272 37.2724 85.2398 37.0802C85.4884 36.9111 85.6319 36.6251 85.6191 36.3243C85.6316 36.0149 85.4548 35.7292 85.1727 35.6031C84.7028 35.3868 84.2157 35.2103 83.7165 35.0752C83.1552 34.9123 82.6742 34.7538 82.2776 34.6017C81.9337 34.4774 81.6102 34.3024 81.3177 34.0825C81.0892 33.9065 80.9076 33.6767 80.7889 33.4135C80.6721 33.1262 80.616 32.8178 80.6242 32.5077C80.6171 32.072 80.7043 31.6399 80.8799 31.2413C81.0454 30.8722 81.2912 30.5449 81.5994 30.2834C81.9182 30.0127 82.286 29.8062 82.6828 29.6752C83.1174 29.5298 83.5726 29.4564 84.0307 29.4579C84.6529 29.453 85.2714 29.5544 85.8596 29.7577C86.4429 29.9665 86.9759 30.2958 87.4241 30.7243L86.5292 32.1493C86.143 31.8292 85.7114 31.5685 85.2485 31.376C84.8574 31.2172 84.4397 31.1346 84.0177 31.1327C83.6861 31.1209 83.3583 31.2071 83.0751 31.3803C82.8146 31.5553 82.6688 31.8577 82.6937 32.171C82.6879 32.3114 82.7193 32.4508 82.7847 32.575C82.856 32.6924 82.9559 32.7896 83.0751 32.8574C83.2364 32.9516 83.4071 33.0288 83.5843 33.0877C83.801 33.1637 84.0675 33.2441 84.3861 33.3266C84.982 33.4895 85.4934 33.6546 85.9181 33.8175C86.2907 33.954 86.6417 34.1435 86.9604 34.3801C87.2134 34.5732 87.4176 34.8232 87.5563 35.11C87.6894 35.4243 87.7536 35.7635 87.7449 36.1049C87.7816 36.926 87.4328 37.7169 86.8022 38.2423C86.1796 38.7694 85.328 39.033 84.2474 39.033Z" fill="white"/>
<path d="M94.3888 39.033C93.7594 39.0483 93.139 38.88 92.6032 38.5486C92.096 38.2297 91.6842 37.7794 91.4114 37.2452V42.6106H89.1946V29.6404H91.1297V31.2239C91.432 30.7025 91.8587 30.2644 92.3713 29.9488C92.9006 29.6318 93.508 29.47 94.1244 29.4818C94.687 29.4766 95.2428 29.6062 95.7453 29.8598C96.238 30.1087 96.6746 30.4561 97.0282 30.8807C97.3987 31.3322 97.6844 31.8474 97.8711 32.4012C98.0782 32.9923 98.1823 33.6147 98.1788 34.2411C98.1825 34.879 98.0875 35.5136 97.8971 36.1222C97.7256 36.6713 97.4594 37.1859 97.1105 37.6428C96.7885 38.0651 96.3799 38.4132 95.9122 38.6637C95.4426 38.911 94.9192 39.0379 94.3888 39.033ZM93.6455 37.028C93.9644 37.0341 94.2797 36.9593 94.5622 36.8108C94.8435 36.6587 95.0895 36.4484 95.2837 36.1939C95.488 35.9237 95.6441 35.6202 95.7453 35.2968C95.8563 34.9567 95.9126 34.6011 95.9122 34.2433C95.9161 33.8733 95.8545 33.5055 95.7301 33.1572C95.6172 32.8386 95.446 32.5439 95.2252 32.2883C95.014 32.0448 94.7551 31.8474 94.4646 31.7083C94.1675 31.564 93.8414 31.4897 93.5112 31.4911C93.2896 31.4925 93.0698 31.5314 92.8611 31.6062C92.6409 31.682 92.434 31.7919 92.2478 31.932C92.0599 32.0741 91.8903 32.239 91.7429 32.423C91.5963 32.608 91.482 32.8165 91.4049 33.0399V35.2121C91.5898 35.7186 91.9035 36.1678 92.315 36.5154C92.6813 36.8432 93.1545 37.0255 93.6455 37.028Z" fill="white"/>
<path d="M103.258 39.0331C102.688 39.0386 102.125 38.9122 101.611 38.6638C101.111 38.4199 100.667 38.0719 100.311 37.6429C99.9365 37.1924 99.6472 36.6771 99.4573 36.1224C99.2501 35.5202 99.1467 34.8869 99.1518 34.2499C99.1466 33.6127 99.2477 32.9791 99.4508 32.3753C99.6304 31.8237 99.9071 31.3087 100.268 30.8548C100.605 30.4359 101.025 30.0913 101.501 29.8425C101.976 29.5965 102.504 29.4698 103.039 29.4733C103.652 29.4641 104.254 29.6323 104.773 29.9577C105.279 30.2777 105.691 30.7277 105.965 31.261V29.7404H108.182V38.8333H105.971V37.3388C105.712 37.8347 105.334 38.258 104.87 38.5704C104.391 38.8818 103.83 39.0429 103.258 39.0331ZM105.971 33.305C105.792 32.7979 105.481 32.348 105.07 32.0017C104.7 31.6795 104.227 31.5015 103.737 31.4999C103.415 31.4978 103.099 31.5802 102.818 31.7389C102.536 31.8994 102.289 32.1143 102.09 32.371C101.884 32.6411 101.725 32.9445 101.62 33.2681C101.509 33.6058 101.452 33.9594 101.453 34.3151C101.451 34.6773 101.51 35.0372 101.629 35.3795C101.735 35.6973 101.901 35.992 102.116 36.2483C102.323 36.4927 102.579 36.6904 102.868 36.8283C103.165 36.9723 103.49 37.0466 103.819 37.0455C104.283 37.0564 104.735 36.9076 105.102 36.6241C105.475 36.3214 105.772 35.9353 105.969 35.4968L105.971 33.305Z" fill="white"/>
<path d="M118.256 38.8571H116.03V33.6851C116.03 32.9466 115.909 32.4078 115.666 32.069C115.44 31.7362 115.058 31.5435 114.657 31.5585C114.423 31.5606 114.193 31.6086 113.978 31.6997C113.743 31.7973 113.523 31.9306 113.328 32.0951C113.117 32.2715 112.931 32.4753 112.773 32.7011C112.609 32.936 112.486 33.1976 112.409 33.4744V38.8571H110.19V29.6405H112.188V31.35C112.506 30.7647 112.989 30.287 113.577 29.9772C114.209 29.6427 114.915 29.4731 115.63 29.4841C116.092 29.465 116.55 29.5748 116.954 29.8012C117.286 30.0019 117.56 30.2875 117.747 30.6288C117.943 30.9899 118.075 31.3824 118.137 31.7888C118.208 32.2246 118.243 32.6656 118.243 33.1073L118.256 38.8571ZM115.46 28.2698C115.238 28.2736 115.016 28.2315 114.81 28.146C114.623 28.0691 114.442 27.9783 114.269 27.8745C114.108 27.7767 113.948 27.6855 113.79 27.6029C113.634 27.5212 113.461 27.4787 113.285 27.4791C113.131 27.4712 112.978 27.5148 112.851 27.6029C112.753 27.6782 112.672 27.7738 112.613 27.8832C112.562 27.9732 112.529 28.0719 112.513 28.1742C112.503 28.2611 112.496 28.3111 112.496 28.3241H111.272C111.285 28.1421 111.318 27.9621 111.371 27.7876C111.444 27.5219 111.552 27.2675 111.694 27.0317C111.849 26.7729 112.051 26.5459 112.29 26.3626C112.554 26.1636 112.879 26.0609 113.209 26.0715C113.433 26.0666 113.655 26.1119 113.859 26.204C114.035 26.2894 114.206 26.3836 114.373 26.4864C114.533 26.5864 114.691 26.6798 114.852 26.7666C115.016 26.8567 115.201 26.9024 115.389 26.8991C115.555 26.9083 115.721 26.865 115.861 26.7753C115.969 26.703 116.06 26.6072 116.126 26.4951C116.181 26.4024 116.221 26.3011 116.243 26.1954C116.254 26.1372 116.262 26.0784 116.267 26.0194H117.491C117.475 26.1868 117.442 26.3521 117.391 26.5125C117.317 26.7799 117.203 27.0346 117.053 27.2684C116.885 27.5345 116.672 27.7696 116.425 27.9635C116.145 28.1751 115.802 28.2833 115.452 28.2698H115.46Z" fill="white"/>
<path d="M124.187 39.0331C123.532 39.0438 122.883 38.9119 122.284 38.6464C121.739 38.4017 121.252 38.045 120.854 37.5994C120.459 37.1554 120.153 36.6391 119.952 36.0789C119.533 34.9017 119.533 33.6155 119.952 32.4383C120.153 31.8781 120.459 31.3619 120.854 30.9178C121.253 30.4729 121.74 30.1163 122.284 29.8708C122.883 29.6062 123.532 29.4743 124.187 29.4841C124.839 29.4736 125.486 29.6055 126.083 29.8708C126.624 30.1176 127.108 30.4741 127.504 30.9178C127.899 31.3619 128.205 31.8781 128.406 32.4383C128.828 33.615 128.828 34.9022 128.406 36.0789C128.206 36.6375 127.903 37.1534 127.513 37.5994C127.118 38.0462 126.633 38.4032 126.089 38.6464C125.491 38.9123 124.841 39.0442 124.187 39.0331ZM121.92 34.2673C121.915 34.6467 121.974 35.0243 122.096 35.3838C122.202 35.7 122.364 35.9943 122.574 36.2527C122.771 36.4924 123.016 36.6872 123.294 36.824C123.859 37.0934 124.516 37.0934 125.082 36.824C125.359 36.6872 125.605 36.4924 125.801 36.2527C126.013 35.9911 126.175 35.693 126.28 35.3729C126.4 35.0102 126.458 34.6299 126.453 34.2477C126.458 33.8713 126.399 33.4969 126.28 33.1399C126.176 32.8195 126.014 32.5212 125.801 32.2602C125.605 32.0197 125.36 31.8241 125.082 31.6867C124.803 31.5515 124.496 31.4824 124.187 31.4846C123.876 31.4843 123.57 31.5588 123.294 31.7019C123.016 31.8427 122.771 32.0402 122.574 32.2819C122.362 32.5429 122.199 32.8412 122.096 33.1616C121.976 33.5178 121.917 33.8915 121.92 34.2673Z" fill="white"/>
<path d="M130.243 26.0171H132.46V38.857H130.243V26.0171Z" fill="white"/>
<path d="M138.103 39.0331C137.533 39.0388 136.969 38.9124 136.456 38.6638C135.955 38.4197 135.512 38.0717 135.156 37.6429C134.783 37.1918 134.494 36.6766 134.304 36.1224C134.097 35.5202 133.994 34.8869 133.999 34.2499C133.994 33.6129 134.094 32.9795 134.296 32.3753C134.477 31.8239 134.754 31.3091 135.115 30.8548C135.452 30.4359 135.872 30.0913 136.348 29.8425C136.823 29.5965 137.351 29.4698 137.886 29.4733C138.499 29.4641 139.101 29.6323 139.62 29.9577C140.126 30.2777 140.538 30.7277 140.812 31.261V29.7404H143.028V38.8333H140.816V37.3388C140.557 37.8347 140.179 38.258 139.715 38.5704C139.236 38.8818 138.674 39.0429 138.103 39.0331ZM140.816 33.305C140.636 32.7983 140.325 32.3486 139.915 32.0017C139.545 31.6795 139.072 31.5015 138.582 31.4999C138.26 31.4978 137.943 31.5802 137.663 31.7389C137.38 31.8983 137.133 32.1133 136.935 32.371C136.728 32.6406 136.569 32.9441 136.465 33.2681C136.353 33.6058 136.297 33.9594 136.298 34.3151C136.296 34.6773 136.355 35.0372 136.473 35.3795C136.58 35.6973 136.745 35.992 136.961 36.2483C137.168 36.4927 137.424 36.6904 137.713 36.8283C138.009 36.9723 138.335 37.0466 138.664 37.0455C139.127 37.056 139.58 36.9073 139.947 36.6241C140.32 36.3214 140.617 35.9353 140.814 35.4968L140.816 33.305Z" fill="white"/>
<path d="M74.6347 20.0894C74.0647 20.0951 73.5011 19.9687 72.9878 19.7201C72.4876 19.4752 72.0446 19.1273 71.6876 18.6992C71.3139 18.2484 71.0253 17.7332 70.836 17.1786C70.6286 16.5765 70.5252 15.9432 70.5305 15.3062C70.5256 14.6699 70.6259 14.0372 70.8273 13.4338C71.0092 12.8826 71.2865 12.3679 71.6464 11.9132C71.9832 11.4946 72.4031 11.1506 72.8794 10.9031C73.3546 10.6562 73.8828 10.5294 74.418 10.5339C75.0301 10.5239 75.6321 10.6914 76.1516 11.0161C76.6571 11.3369 77.0684 11.7867 77.3434 12.3194V10.7989H79.5602V19.8939H77.3477V18.3972C77.0886 18.8931 76.7103 19.3164 76.2469 19.6289C75.7671 19.9395 75.2058 20.0998 74.6347 20.0894ZM77.3477 14.3548C77.1681 13.8478 76.8569 13.3979 76.4463 13.0514C76.0765 12.7293 75.6035 12.5512 75.1136 12.5497C74.7919 12.5468 74.4752 12.6285 74.1948 12.7864C73.9115 12.9459 73.6637 13.1618 73.4667 13.4207C73.259 13.69 73.0999 13.9936 72.9965 14.3178C72.8849 14.6548 72.8286 15.0076 72.8296 15.3627C72.8278 15.7247 72.8864 16.0844 73.003 16.427C73.1106 16.7448 73.2767 17.0395 73.4927 17.2959C73.6978 17.5439 73.9544 17.744 74.2446 17.8824C74.5411 18.0264 74.8665 18.1007 75.1959 18.0996C75.6607 18.1073 76.1139 17.9538 76.4788 17.6652C76.852 17.3638 77.149 16.9782 77.3455 16.54L77.3477 14.3548Z" fill="white"/>
<path d="M84.8433 20.0893C84.116 20.0891 83.3941 19.9642 82.7089 19.72C82.0479 19.4929 81.4397 19.1338 80.9211 18.6643L81.7489 17.1872C82.2243 17.5536 82.7442 17.858 83.2961 18.093C83.7706 18.2918 84.2792 18.3958 84.7935 18.3993C85.1594 18.4192 85.5228 18.3276 85.8358 18.1364C86.0843 17.9673 86.2278 17.6813 86.215 17.3805C86.2276 17.0712 86.0507 16.7854 85.7686 16.6593C85.2987 16.4431 84.8116 16.2665 84.3124 16.1315C83.7512 15.9664 83.2701 15.8078 82.8736 15.6558C82.5293 15.5322 82.2057 15.3572 81.9136 15.1366C81.6852 14.9614 81.5036 14.7323 81.3849 14.4698C81.2675 14.1826 81.2107 13.8742 81.218 13.564C81.2114 13.1281 81.2993 12.696 81.4759 12.2976C81.6419 11.9281 81.8876 11.6002 82.1953 11.3374C82.5148 11.0682 82.8825 10.8625 83.2788 10.7314C83.7131 10.585 84.1685 10.5116 84.6266 10.5142C85.2486 10.5097 85.8669 10.6103 86.4555 10.8118C87.039 11.0214 87.572 11.3514 88.0201 11.7806L87.1251 13.2055C86.7381 12.886 86.3067 12.6248 85.8445 12.4301C85.4525 12.2712 85.0342 12.1879 84.6115 12.1846C84.2795 12.1733 83.9514 12.2585 83.6667 12.4301C83.4063 12.606 83.2613 12.9093 83.2875 13.2229C83.2822 13.3632 83.3135 13.5025 83.3785 13.6269C83.4496 13.743 83.5487 13.8394 83.6667 13.9072C83.8321 14.0046 84.0071 14.0847 84.1889 14.1461C84.4056 14.2221 84.6721 14.3003 84.9907 14.3829C85.5866 14.548 86.098 14.7109 86.5227 14.876C86.8955 15.012 87.2466 15.2015 87.565 15.4386C87.819 15.6306 88.0233 15.8809 88.1609 16.1684C88.2941 16.4819 88.3584 16.8205 88.3495 17.1611C88.3862 17.9822 88.0374 18.7732 87.4068 19.2986C86.7784 19.8271 85.9239 20.0907 84.8433 20.0893Z" fill="white"/>
<path d="M93.7929 20.0892C93.1384 20.099 92.4894 19.9672 91.8903 19.7026C91.3462 19.4571 90.8591 19.1005 90.4601 18.6556C90.0651 18.2114 89.759 17.6952 89.5587 17.1351C89.3477 16.5546 89.2413 15.9412 89.2445 15.3234C89.2405 14.6999 89.3469 14.0807 89.5587 13.4944C89.7588 12.9342 90.0649 12.4179 90.4601 11.9739C90.8585 11.5284 91.3457 11.1717 91.8903 10.9269C92.4891 10.6615 93.1383 10.5296 93.7929 10.5403C94.4456 10.5286 95.0928 10.6606 95.689 10.9269C96.2304 11.173 96.7145 11.5296 97.1105 11.9739C97.5058 12.4179 97.8119 12.9342 98.012 13.4944C98.2238 14.0807 98.3302 14.6999 98.3262 15.3234C98.3294 15.9412 98.223 16.5546 98.012 17.1351C97.8122 17.6936 97.5093 18.2094 97.1192 18.6556C96.724 19.1017 96.2387 19.4586 95.6955 19.7026C95.0965 19.9672 94.4475 20.099 93.7929 20.0892ZM91.5263 15.3213C91.5216 15.7005 91.5802 16.0779 91.6997 16.4378C91.8069 16.7539 91.9698 17.0482 92.1807 17.3067C92.3767 17.5488 92.6229 17.7452 92.9023 17.8823C93.4673 18.1546 94.1251 18.1546 94.69 17.8823C94.9682 17.7462 95.2137 17.5513 95.4095 17.311C95.6221 17.05 95.7844 16.7517 95.8884 16.4313C96.0084 16.0685 96.067 15.6882 96.0617 15.3061C96.0658 14.9297 96.0072 14.5553 95.8884 14.1982C95.784 13.878 95.6216 13.5798 95.4095 13.3185C95.2131 13.0788 94.9678 12.884 94.69 12.7472C94.4111 12.612 94.1049 12.5429 93.7951 12.5451C93.4844 12.5447 93.1782 12.6192 92.9023 12.7624C92.6256 12.9045 92.3807 13.1019 92.1829 13.3424C91.9714 13.6045 91.8085 13.9025 91.7018 14.2221C91.5842 14.5765 91.5249 14.9478 91.5263 15.3213Z" fill="white"/>
<path d="M99.2688 15.304C99.2655 14.6803 99.3727 14.0611 99.5852 13.475C99.9896 12.3416 100.838 11.4229 101.934 10.9313C102.533 10.6655 103.182 10.5336 103.837 10.5447C104.691 10.52 105.534 10.7466 106.262 11.1963C106.911 11.6118 107.43 12.204 107.757 12.9037L105.59 13.6075C105.069 12.6588 103.9 12.2839 102.927 12.7538C102.65 12.8888 102.405 13.0805 102.207 13.3164C101.994 13.5734 101.831 13.8681 101.726 14.1853C101.607 14.5483 101.549 14.9284 101.553 15.3105C101.548 15.6933 101.61 16.074 101.735 16.4357C101.844 16.7554 102.009 17.0533 102.222 17.3154C102.419 17.5558 102.665 17.7507 102.944 17.8867C103.213 18.0209 103.51 18.0907 103.811 18.0909C104.2 18.0928 104.582 17.9827 104.912 17.7737C105.219 17.5936 105.465 17.3239 105.616 17.0004L107.783 17.7021C107.478 18.4138 106.964 19.0155 106.309 19.4268C105.571 19.8877 104.714 20.1204 103.845 20.0958C103.191 20.1056 102.542 19.9737 101.943 19.7092C101.396 19.4621 100.906 19.1059 100.502 18.6622C100.102 18.2151 99.7904 17.6952 99.5852 17.1308C99.3702 16.5461 99.263 15.9271 99.2688 15.304Z" fill="white"/>
<path d="M109.154 9.41077V7.07349H111.365V9.41077H109.154ZM109.154 19.9134V10.6967H111.365V19.9134H109.154Z" fill="white"/>
<path d="M116.94 20.0892C116.37 20.0946 115.807 19.9683 115.294 19.7199C114.794 19.4746 114.351 19.1268 113.993 18.699C113.62 18.2483 113.331 17.733 113.142 17.1785C112.933 16.5766 112.83 15.9431 112.836 15.306C112.83 14.6696 112.931 14.0368 113.133 13.4336C113.315 12.8825 113.592 12.3678 113.952 11.913C114.288 11.4939 114.708 11.1499 115.185 10.903C115.66 10.6557 116.188 10.529 116.724 10.5337C117.336 10.5244 117.938 10.6918 118.457 11.0159C118.963 11.3362 119.373 11.7862 119.647 12.3192V10.7987H121.864V19.8937H119.653V18.3971C119.396 18.8933 119.018 19.3168 118.555 19.6287C118.074 19.939 117.512 20.0993 116.94 20.0892ZM119.653 14.3546C119.475 13.8468 119.164 13.3966 118.752 13.0513C118.383 12.7296 117.911 12.5515 117.421 12.5495C117.1 12.5466 116.783 12.6283 116.503 12.7863C116.219 12.9457 115.972 13.1616 115.775 13.4205C115.567 13.6903 115.407 13.9937 115.302 14.3177C115.191 14.6548 115.136 15.0076 115.137 15.3625C115.136 15.7245 115.194 16.0843 115.311 16.4269C115.418 16.7445 115.583 17.0392 115.798 17.2958C116.005 17.541 116.263 17.7387 116.553 17.8757C116.849 18.0197 117.174 18.094 117.504 18.0929C117.968 18.101 118.421 17.9475 118.785 17.6585C119.158 17.3574 119.455 16.9718 119.651 16.5333L119.653 14.3546Z" fill="white"/>
<path d="M123.326 15.304C123.324 14.6806 123.43 14.0615 123.641 13.475C123.841 12.9127 124.15 12.3958 124.551 11.9544C124.958 11.5202 125.448 11.1723 125.992 10.9313C126.591 10.6655 127.24 10.5336 127.894 10.5447C128.748 10.52 129.59 10.7465 130.317 11.1963C130.968 11.6112 131.487 12.2034 131.814 12.9037L129.647 13.6075C129.127 12.6589 127.957 12.2839 126.984 12.7538C126.707 12.888 126.462 13.0798 126.265 13.3164C126.051 13.5729 125.888 13.8677 125.784 14.1853C125.665 14.5483 125.606 14.9284 125.61 15.3105C125.606 15.6933 125.667 16.074 125.792 16.4357C125.902 16.7555 126.067 17.0533 126.28 17.3154C126.476 17.5557 126.721 17.7507 126.999 17.8867C127.269 18.0209 127.565 18.0907 127.866 18.0909C128.256 18.0924 128.638 17.9824 128.967 17.7738C129.275 17.5944 129.52 17.3244 129.669 17.0005L131.836 17.7021C131.531 18.4138 131.017 19.0155 130.363 19.4268C129.624 19.8876 128.766 20.1203 127.897 20.0958C127.242 20.1056 126.593 19.9738 125.994 19.7092C125.448 19.4621 124.959 19.1058 124.555 18.6622C124.154 18.2151 123.842 17.6953 123.636 17.1308C123.425 16.5454 123.32 15.9266 123.326 15.304Z" fill="white"/>
<path d="M132.874 9.41077V7.07349H135.091V9.41077H132.874ZM132.874 19.9134V10.6967H135.091V19.9134H132.874Z" fill="white"/>
<path d="M141.098 20.0894C140.443 20.0992 139.794 19.9673 139.195 19.7027C138.65 19.4572 138.162 19.1006 137.763 18.6557C137.368 18.211 137.062 17.6949 136.861 17.1352C136.65 16.5547 136.544 15.9413 136.547 15.3236C136.543 14.7001 136.649 14.0808 136.861 13.4946C137.062 12.9347 137.368 12.4186 137.763 11.974C138.162 11.5284 138.65 11.1718 139.195 10.927C139.794 10.6612 140.443 10.5293 141.098 10.5404C141.75 10.529 142.396 10.661 142.992 10.927C143.533 11.1736 144.018 11.5301 144.415 11.974C144.809 12.4191 145.115 12.9351 145.317 13.4946C145.527 14.0811 145.634 14.7001 145.631 15.3236C145.633 15.9412 145.527 16.5545 145.317 17.1352C145.116 17.6938 144.812 18.2096 144.422 18.6557C144.027 19.1014 143.542 19.4582 143 19.7027C142.401 19.9673 141.752 20.0992 141.098 20.0894ZM138.842 15.3214C138.836 15.7007 138.895 16.0783 139.015 16.4379C139.121 16.7543 139.283 17.0487 139.494 17.3068C139.69 17.5471 139.935 17.742 140.213 17.8781C140.778 18.1503 141.436 18.1503 142.001 17.8781C142.279 17.742 142.525 17.5471 142.721 17.3068C142.933 17.0454 143.096 16.7472 143.202 16.427C143.321 16.0641 143.379 15.6839 143.375 15.3018C143.378 14.9255 143.32 14.5513 143.202 14.194C143.096 13.874 142.933 13.576 142.721 13.3143C142.524 13.0745 142.279 12.8797 142.001 12.743C141.723 12.6078 141.418 12.5387 141.108 12.5409C140.797 12.5407 140.49 12.6152 140.213 12.7582C139.937 12.9003 139.692 13.0977 139.494 13.3382C139.282 13.5997 139.12 13.8979 139.015 14.2179C138.897 14.5736 138.838 14.9465 138.842 15.3214ZM141.659 9.62804L140.237 9.16971L141.13 7.07788H143.197L141.659 9.62804Z" fill="white"/>
<path d="M155.176 19.9132H152.96V14.7412C152.96 14.0026 152.838 13.4632 152.596 13.1229C152.368 12.7908 151.987 12.5982 151.586 12.6124C151.353 12.6155 151.122 12.6635 150.907 12.7536C150.672 12.8512 150.453 12.9845 150.257 13.149C150.047 13.3268 149.861 13.5312 149.703 13.7572C149.538 13.9919 149.414 14.2535 149.339 14.5305V19.9132H147.12V10.6966H149.122V12.4017C149.439 11.817 149.923 11.34 150.511 11.0311C151.142 10.6956 151.848 10.526 152.563 10.538C153.025 10.5179 153.484 10.6277 153.887 10.8551C154.219 11.0555 154.493 11.3403 154.68 11.6806C154.876 12.0419 155.008 12.4343 155.07 12.8405C155.142 13.2771 155.177 13.7188 155.176 14.1612V19.9132Z" fill="white"/>
</g>
</g>
<defs>
<clipPath id="clip0_1094:980">
<rect width="200" height="63" fill="white" transform="translate(0 0.756104)"/>
</clipPath>
<clipPath id="clip1_1094:980">
<rect width="200" height="62.8483" fill="white" transform="translate(0 1)"/>
</clipPath>
</defs>
</svg>
