<svg width="201" height="68" fill="none" xmlns="http://www.w3.org/2000/svg"><g clip-path="url(#clip0)"><path fill-rule="evenodd" clip-rule="evenodd" d="M188.081 67.592h12.461V55.13h-12.461v12.46zm9.136-8.19c.251-.123.501-.246.873-.466.286.433.359 1.429.369 2.222.257-.505.561-2.392.428-2.734.395-.257.457-.381.535-.539.014-.029.029-.06.047-.092-.105.01-.2.016-.286.023-.296.022-.497.037-.692.1-.641-.394-1.97-.797-3.053-.881.335.138 1.706.882 1.879 1.12-.734.1-2.115.517-2.813.887.802-.18 1.927-.27 2.696-.307a8.983 8.983 0 01-.956 1.193c.431-.258.703-.392.973-.525zm-5.885 5.621c.35.33.667.521 1.115.687a4.546 4.546 0 01-1.23-.196c-.03.29-.012.514.068.792a3.32 3.32 0 01-.732-1.045 7.516 7.516 0 01-.957-.522 4.28 4.28 0 01.715-.255c-.088-.502-.061-.953.006-1.582.131.596.244 1.017.499 1.468a16.7 16.7 0 01.937-.154 3.318 3.318 0 00-.421.807zm2.266-5.593c-.14.175-.301.514-.347.666a5.73 5.73 0 012.066.75c-1.002-.182-1.533-.16-1.899-.126-.377.035-.447.085-.447.085-.266.587-.432 1.6-.432 1.6-.181-.43-.444-1.315-.444-1.315-.505.27-1.661 1.363-1.661 1.363.637-1.28 1.281-1.864 1.281-1.864-.218-.224-.803-.334-1.229-.359.22-.092.792-.195 1.226-.21.434-.02.701.008.701.008.388-.306.979-.568 1.185-.598zm.612 6.23c.222-.25.395-.469.595-.746l.005.074c.009.158.017.285.035.43a5.96 5.96 0 00.959-.56 9.4 9.4 0 01-.922.838c.033.152.056.236.088.353-.138.026-.325.04-.524.033-.374.224-.893.39-1.287.488.233-.146.439-.304.674-.528a2.777 2.777 0 01-.687-.236 3.859 3.859 0 001.064-.147zm-71.082-4.863c0 .301-.023.603-.023.903 0 .22.012.389.023.553.046.006.285.006.439.006.482 0 1.15-.133 1.15-.755 0-.606-.685-.715-1.203-.715-.066 0-.32 0-.386.008zm.82-.637c.99 0 2.188.277 2.188 1.344 0 .935-.85 1.4-2.569 1.4-.104 0-.382 0-.462-.008.035.64.029 1.412.069 1.847h-1.499c.06-.629.076-1.665.076-2.404 0-.66-.016-1.745-.076-2.179h2.273zm-6.069 0c-.024.31-.035.623-.035.945v2.184c0 .594.189.943.776.943.508 0 1.006-.202 1.006-1.136V60.87c0-.465-.01-.515-.038-.711h1.261c-.05.4-.05 1.148-.05 1.89v1.302c0 1.052-.737 1.51-2.198 1.51-1.324 0-2.135-.281-2.135-1.581v-1.673c0-.432-.019-1.122-.067-1.448h1.48zm11.139.468c-.66 0-1.074.647-1.074 1.83 0 1.181.414 1.815 1.074 1.815.656 0 1.059-.634 1.059-1.814 0-1.184-.403-1.83-1.059-1.83zm0 4.246c-1.424 0-2.491-.982-2.491-2.415 0-1.448 1.067-2.419 2.491-2.419 1.416 0 2.483.971 2.483 2.419 0 1.433-1.067 2.415-2.483 2.415zm-15.719-4.714c1.003 0 2.197.356 2.197 1.422 0 .567-.422.976-1.086 1.238.137.24 1.247 1.683 1.467 1.923h-1.634a27.614 27.614 0 00-1.388-2.313c.658.087 1.224-.226 1.224-.858 0-.608-.695-.783-1.031-.783-.159 0-.441 0-.549.008a46.18 46.18 0 00-.031 1.542c0 .394 0 1.712.077 2.404h-1.524c.075-.678.092-1.488.092-2.404 0-.773-.012-1.71-.079-2.179h2.265zm-3.185 2.357a87.88 87.88 0 00-.067 1.949c-.493.25-1.267.396-2.01.396-1.698 0-2.785-1.069-2.785-2.387 0-1.388 1.139-2.435 2.996-2.435a7.38 7.38 0 011.509.176l-.329.907c-.317-.201-.842-.357-1.198-.357-1.068 0-1.45.95-1.45 1.719 0 1.28.688 1.7 1.459 1.7.09 0 .386-.01.483-.035 0-.555-.008-1.259-.05-1.633h1.442zm71.87-2.475c.587 0 1.155.083 1.512.195v1.166c-.501-.288-.993-.538-1.644-.538-.514 0-.552.208-.552.361 0 .773 2.603.783 2.603 2.17 0 .899-.841 1.467-2.239 1.467a4.943 4.943 0 01-1.627-.275v-1.113c.958.453 1.466.6 1.909.6.355 0 .618-.163.618-.472 0-.876-2.594-.792-2.594-2.277 0-.815.815-1.284 2.014-1.284zm-4.506 3.003c-.179-.444-.425-.994-.543-1.378-.126.393-.401.992-.535 1.378.169.008.397.016.552.016.214 0 .32-.008.526-.016zm.126-2.885c.168.542 1.679 3.844 2.027 4.584h-1.502c-.058-.18-.179-.427-.398-1.005-.228-.009-.465-.009-.779-.009-.306 0-.529.009-.772.018-.137.377-.256.676-.366.996h-1.302c.251-.568 1.756-3.851 2.022-4.584h1.07zm-5.957.58c-.225 0-.443.015-.553.034-.026.594-.034.884-.034 1.565 0 .825 0 1.13.034 1.786h.661c.78 0 1.152-.232 1.152-.706 0-.527-.482-.776-1.119-.776h-.38l.261-.692h.279c.324 0 .754-.169.754-.583 0-.444-.397-.627-1.055-.627zm.692-.58c.845 0 1.772.31 1.772 1.089 0 .423-.366.81-.907.996.723.264 1.136.682 1.136 1.223 0 .956-1.156 1.276-2.239 1.276h-2.483c.059-.594.077-1.454.077-2.405 0-.627-.01-1.584-.071-2.178h2.715zm-3.704 0a48.567 48.567 0 00-.059 2.187c0 .407 0 1.768.059 2.397h-1.508c.077-.694.083-2.01.083-2.397 0-.434-.024-1.666-.056-2.187h1.481zm-4.678 0c.998 0 2.195.359 2.195 1.423 0 .568-.424.975-1.085 1.239.135.24 1.244 1.682 1.465 1.922h-1.634a29.422 29.422 0 00-1.382-2.313c.652.087 1.223-.226 1.223-.857 0-.608-.697-.783-1.037-.783-.152 0-.442 0-.544.007a44.004 44.004 0 00-.032 1.541c0 .395 0 1.711.073 2.405h-1.522c.075-.676.091-1.489.091-2.405 0-.772-.008-1.708-.074-2.178h2.263zm-4.958 2.885c-.181-.444-.428-.994-.544-1.378-.128.393-.397.992-.535 1.378.17.008.399.016.553.016.209 0 .322-.008.526-.016zm.124-2.885c.172.542 1.679 3.844 2.026 4.584h-1.497c-.06-.18-.179-.427-.4-1.005-.228-.009-.466-.009-.779-.009-.306 0-.527.009-.775.018-.134.377-.251.676-.362.996h-1.304c.254-.568 1.754-3.851 2.026-4.584h1.065zm-5.675.638c0 .303-.016.605-.016.904 0 .218.006.388.016.552.051.007.288.007.441.007.483 0 1.154-.133 1.154-.755 0-.607-.687-.715-1.206-.715-.066 0-.319 0-.389.007zm.821-.638c.995 0 2.189.278 2.189 1.346 0 .935-.848 1.4-2.569 1.4-.1 0-.381 0-.457-.007.032.637.025 1.41.067 1.845h-1.5c.06-.63.075-1.665.075-2.405 0-.658-.015-1.744-.075-2.178h2.27zm-7.739.638c0 .303-.015.605-.015.904 0 .218.008.388.015.552.052.007.29.007.442.007.484 0 1.152-.133 1.152-.755 0-.607-.688-.715-1.204-.715-.067 0-.322 0-.39.007zm.822-.638c.993 0 2.19.278 2.19 1.346 0 .935-.848 1.4-2.57 1.4-.104 0-.38 0-.457-.007.032.637.026 1.41.067 1.845h-1.501c.061-.63.076-1.665.076-2.405 0-.658-.015-1.744-.076-2.178h2.271zm-3.33 0a39.73 39.73 0 00-.068 2.18c0 .413.009 1.775.068 2.404h-1.076l-1.729-2.557c-.146-.206-.248-.405-.286-.629v1.452c0 .555.015 1.339.065 1.734h-1.231c.077-.694.085-2.01.085-2.405 0-.433-.023-1.658-.058-2.178h1.398l1.46 2.383a.982.982 0 01.135.278V60.16h1.237zm-7.73.58a3.85 3.85 0 00-.552.034 30.3 30.3 0 00-.035 1.565c0 .825 0 1.13.035 1.786h.662c.78 0 1.149-.232 1.149-.706 0-.527-.48-.776-1.116-.776h-.381l.264-.692h.277c.321 0 .754-.169.754-.583 0-.444-.399-.627-1.057-.627zm.693-.58c.848 0 1.774.31 1.774 1.089 0 .423-.365.81-.91.996.724.264 1.138.682 1.138 1.223 0 .956-1.154 1.276-2.239 1.276h-2.485c.062-.594.079-1.454.079-2.405 0-.627-.008-1.584-.069-2.178h2.712zm-19.579-14.665a3.007 3.007 0 01-3.002-3.011V3.414a3.007 3.007 0 013.002-3.012 3.006 3.006 0 013.002 3.011v39.07a3.006 3.006 0 01-3.002 3.012zm83.424-19.137c-.017-6.701-5.455-12.162-12.138-12.162-3.644 0-6.909 1.626-9.136 4.185-2.227-2.559-5.492-4.185-9.136-4.185-6.688 0-12.13 5.46-12.138 12.17l-.001 16.118a3.006 3.006 0 003.002 3.011 3.006 3.006 0 003.002-3.011V26.376c0-3.392 2.753-6.158 6.135-6.158 3.383 0 6.135 2.766 6.135 6.159v16.107a3.006 3.006 0 003.002 3.011 3.006 3.006 0 003.002-3.011V26.371c.001-3.39 2.752-6.153 6.133-6.153 3.382 0 6.135 2.77 6.135 6.163l.001 16.103a3.006 3.006 0 003.002 3.011 3.006 3.006 0 003.002-3.011l-.002-16.126zM76.78 39.472c-3.382 0-5.827-2.76-5.827-6.153v-13.05h6.233a2.74 2.74 0 002.736-2.744 2.74 2.74 0 00-2.736-2.745h-6.233V8.066a3.006 3.006 0 00-3.002-3.012 3.006 3.006 0 00-3.002 3.012v25.253c0 6.714 5.138 12.176 11.831 12.176a3.007 3.007 0 003.003-3.011 3.007 3.007 0 00-3.003-3.012zm53.688-12.327c.762-4.491 4.926-7.684 9.398-7.684 4.764 0 8.421 4.055 9.1 7.684h-18.498zm24.186 1.42c0-8.595-7.646-14.37-14.788-14.37-8.569 0-15.542 6.995-15.542 15.592 0 8.955 6.807 15.708 15.832 15.708 4.786 0 8.364-1.723 10.055-2.741.803-.472 1.47-1.435 1.47-2.518a2.71 2.71 0 00-2.741-2.69c-.474 0-1.061.18-1.527.413-1.851 1.032-4.346 2.155-7.257 2.155-4.648 0-8.73-2.817-9.684-7.479h20.416c2.006 0 3.766-1.901 3.766-4.07zm-117.52-1.42c.761-4.491 4.926-7.684 9.399-7.684 4.763 0 8.42 4.055 9.1 7.684h-18.5zm24.186 1.42c0-8.595-7.646-14.37-14.788-14.37-8.57 0-15.541 6.995-15.541 15.592 0 8.955 6.806 15.708 15.832 15.708 4.785 0 8.363-1.723 10.054-2.741.803-.472 1.47-1.435 1.47-2.518a2.71 2.71 0 00-2.741-2.69c-.474 0-1.061.18-1.528.413-1.85 1.032-4.346 2.155-7.256 2.155-4.648 0-8.73-2.817-9.684-7.479h20.416c2.006 0 3.766-1.901 3.766-4.07zm25.458-1.42c.761-4.491 4.926-7.684 9.398-7.684 4.764 0 8.421 4.055 9.1 7.684H86.778zm24.185 1.42c0-8.595-7.646-14.37-14.787-14.37-8.57 0-15.542 6.995-15.542 15.592 0 8.955 6.807 15.708 15.832 15.708 4.786 0 8.364-1.723 10.055-2.741.803-.472 1.47-1.435 1.47-2.518a2.71 2.71 0 00-2.741-2.69c-.474 0-1.061.18-1.528.413-1.85 1.032-4.346 2.155-7.256 2.155-4.648 0-8.73-2.817-9.684-7.479h20.415c2.006 0 3.766-1.901 3.766-4.07z" fill="#fff"/><mask id="mask0" maskUnits="userSpaceOnUse" x="0" y="14" width="29" height="32"><path d="M.854 14.195h27.473v31.3H.854v-31.3z" fill="#fff"/></mask><g mask="url(#mask0)"><path fill-rule="evenodd" clip-rule="evenodd" d="M16.429 45.495c-3.99 0-7.981-1.524-11.019-4.577-6.076-6.102-6.076-16.034 0-22.137a15.441 15.441 0 0111.018-4.586c4.163 0 8.076 1.63 11.02 4.586a3.024 3.024 0 010 4.264 2.992 2.992 0 01-4.246 0 9.495 9.495 0 00-6.774-2.817 9.49 9.49 0 00-6.772 2.817c-3.736 3.752-3.736 9.858 0 13.61 3.735 3.75 9.812 3.75 13.546 0a2.992 2.992 0 014.246 0 3.024 3.024 0 010 4.263 15.494 15.494 0 01-11.019 4.577z" fill="#fff"/></g><path fill-rule="evenodd" clip-rule="evenodd" d="M26.14 55.637H5.444a2.74 2.74 0 01-2.736-2.745 2.74 2.74 0 012.736-2.745H26.14a2.74 2.74 0 012.737 2.745 2.74 2.74 0 01-2.737 2.745z" fill="#fff"/></g><defs><clipPath id="clip0"><path fill="#fff" transform="translate(.854 .302)" d="M0 0h200v67.29H0z"/></clipPath></defs></svg>