<svg width="200" height="32" fill="none" xmlns="http://www.w3.org/2000/svg"><g clip-path="url(#clip0)" fill="#fff"><path d="M194.164 31.452h4.55v-1.194h-3.21v-6.341h-1.34v7.535zm-13.787-2.884l1.183-3.063 1.16 3.064h-2.343zm-2.647 2.884h1.498l.687-1.723h3.266l.699 1.723h1.532l-3.245-7.535h-1.159l-3.278 7.535zm-15.386 0h1.34v-5.823h.022l3.583 5.823h1.7v-7.535h-1.34v5.643h-.022l-3.504-5.643h-1.779v7.535zm-15.77-4.877a2.6 2.6 0 01.53-.867 2.467 2.467 0 011.869-.8c.394 0 .744.067 1.07.214.317.146.597.338.823.586.226.247.406.54.529.867.124.338.192.698.192 1.081 0 .406-.056.777-.192 1.115a2.63 2.63 0 01-.529.879c-.236.248-.506.44-.823.585a2.628 2.628 0 01-1.047.203c-.382 0-.732-.067-1.047-.203a2.344 2.344 0 01-.823-.585 2.488 2.488 0 01-.529-.879 3.215 3.215 0 01-.191-1.115 2.781 2.781 0 01.168-1.081zm-1.34 2.692c.202.484.484.901.845 1.261.36.35.788.62 1.273.823a4.398 4.398 0 001.611.293 4.54 4.54 0 001.633-.293 3.804 3.804 0 001.284-.823 3.65 3.65 0 00.844-1.261 4.142 4.142 0 00.305-1.61c0-.598-.102-1.15-.305-1.634a3.556 3.556 0 00-.844-1.24 3.729 3.729 0 00-1.284-.788 4.733 4.733 0 00-1.633-.27c-.587 0-1.116.09-1.611.27-.496.18-.923.451-1.273.789a3.545 3.545 0 00-.845 1.239c-.203.484-.304 1.025-.304 1.633 0 .586.101 1.127.304 1.61zm-10.948 2.185h1.341v-7.535h-1.341v7.535zm-8.955-6.59a1.918 1.918 0 00-.541-.506 3.58 3.58 0 00-.687-.36 3.399 3.399 0 00-.754-.214 4.763 4.763 0 00-2.377.203c-.495.18-.924.45-1.295.788a3.585 3.585 0 00-.856 1.239c-.214.484-.316 1.025-.316 1.633 0 .586.102 1.126.293 1.61.203.485.473.902.833 1.262.361.35.778.62 1.273.822.496.203 1.037.293 1.622.293.642 0 1.217-.112 1.69-.349.484-.236.89-.552 1.228-.969l-1.081-.754a2.08 2.08 0 01-.755.63 2.372 2.372 0 01-1.07.237 2.65 2.65 0 01-1.059-.203 2.273 2.273 0 01-.8-.574 2.617 2.617 0 01-.517-.879 3.256 3.256 0 01-.181-1.126c0-.394.067-.755.191-1.081.125-.338.305-.62.529-.868a2.523 2.523 0 011.893-.8c.304 0 .62.057.935.18.315.125.574.316.777.598l1.025-.811zm-20.06 3.707l1.182-3.064 1.161 3.064h-2.343zm-2.647 2.883h1.497l.676-1.723h3.267l.699 1.723h1.532l-3.245-7.535h-1.16l-3.266 7.535zm-15.387 0h1.34v-5.823h.023l3.582 5.823h1.7v-7.535h-1.34v5.643h-.022l-3.503-5.643h-1.78v7.535zm-22.076-4.877a2.6 2.6 0 01.529-.867c.225-.248.496-.44.81-.586a2.472 2.472 0 011.06-.214c.394 0 .743.067 1.058.214.316.146.597.338.823.586.225.247.405.54.53.867.123.338.19.698.19 1.081 0 .406-.067.777-.19 1.115a2.682 2.682 0 01-.53.879 2.67 2.67 0 01-.823.585 2.672 2.672 0 01-1.047.203c-.383 0-.732-.067-1.048-.203a2.343 2.343 0 01-.822-.585 2.479 2.479 0 01-.53-.879 3.215 3.215 0 01-.19-1.115 2.6 2.6 0 01.18-1.081zm-1.352 2.692c.203.484.484.901.845 1.261.36.35.788.62 1.273.823a4.447 4.447 0 001.61.293c.586 0 1.138-.102 1.633-.293a3.802 3.802 0 001.284-.823c.36-.349.642-.766.845-1.261a4.147 4.147 0 00.304-1.61 4.22 4.22 0 00-.304-1.634 3.563 3.563 0 00-.845-1.24 3.727 3.727 0 00-1.284-.788 4.732 4.732 0 00-1.633-.27c-.586 0-1.115.09-1.61.27a3.57 3.57 0 00-1.273.789c-.36.338-.642.755-.845 1.239a4.181 4.181 0 00-.304 1.633c0 .586.101 1.127.304 1.61zm-14.44 2.185h5.181v-1.194h-3.84V28.13h3.457v-1.126H50.71v-1.915h3.65v-1.171h-4.99v7.535zm-9.394-6.927a2.85 2.85 0 00-1.025-.608 3.563 3.563 0 00-1.172-.203 3.78 3.78 0 00-1.002.135c-.327.09-.62.225-.879.406a2.05 2.05 0 00-.63.687 1.986 1.986 0 00-.237.99c0 .361.056.654.17.89.112.237.258.44.438.598.18.168.383.292.609.394.225.101.45.18.687.259.236.079.461.158.675.225.215.068.395.158.552.248a1.2 1.2 0 01.372.338c.09.135.135.293.135.495 0 .203-.045.372-.124.519a1.17 1.17 0 01-.315.349c-.135.09-.282.157-.44.203a2.353 2.353 0 01-.472.056c-.293 0-.597-.079-.913-.225a1.971 1.971 0 01-.743-.609l-.958.89c.293.36.676.62 1.15.8.472.18.945.27 1.441.27.372 0 .72-.045 1.059-.146.338-.102.62-.248.878-.45a2.2 2.2 0 00.597-.755c.147-.305.226-.654.226-1.06 0-.37-.068-.675-.203-.923a2.013 2.013 0 00-.53-.62 3.103 3.103 0 00-.709-.394c-.26-.101-.507-.191-.755-.27-.214-.067-.405-.124-.585-.191a1.867 1.867 0 01-.451-.226 1.067 1.067 0 01-.293-.304.907.907 0 01-.112-.439c0-.18.045-.338.123-.473a.94.94 0 01.316-.316c.124-.078.27-.146.428-.18.157-.045.315-.056.473-.056.259 0 .518.056.777.18.26.124.462.282.597.462l.845-.946zm-14.316-.62h-1.34v4.72c0 .225-.023.44-.09.653a1.657 1.657 0 01-.282.586 1.596 1.596 0 01-.519.417c-.214.112-.484.157-.8.157-.315 0-.585-.056-.799-.157a1.369 1.369 0 01-.518-.417 1.491 1.491 0 01-.282-.586 2.61 2.61 0 01-.09-.653v-4.72H19.6v4.765c0 .45.079.867.225 1.228.158.371.36.675.642.934.27.26.597.451.957.586a3.47 3.47 0 001.206.203 3.52 3.52 0 001.205-.203c.372-.135.687-.338.957-.585.27-.26.485-.564.642-.935a3.06 3.06 0 00.237-1.228v-4.765h-.011zM1.847 31.452H3.12v-6.06h.023l2.252 6.06h.935l2.287-6.06h.022v6.06h1.33v-7.535H7.861l-1.937 5.35H5.89l-1.96-5.35H1.836v7.535h.011zm190.92-24.33l1.689-4.393 1.667 4.393h-3.356zm-3.785 4.123h2.152l.979-2.478h4.686l1.003 2.478h2.196L195.347.432h-1.667l-4.698 10.813zm-10.205 0h8.256V9.533h-6.002l5.913-7.355V.432h-8.076V2.11h5.789l-5.88 7.389v1.746zm-2.872-9.923a4.118 4.118 0 00-1.475-.868 5.204 5.204 0 00-1.667-.293 5.7 5.7 0 00-1.442.192 3.947 3.947 0 00-1.262.586 2.984 2.984 0 00-.9.98c-.226.394-.35.867-.35 1.419 0 .507.079.935.248 1.273.158.337.372.63.631.867.259.236.551.428.878.563.327.146.654.27.98.372.338.112.653.214.957.326.305.102.575.226.789.36.225.136.406.305.541.485.134.192.202.428.202.71 0 .293-.056.54-.18.743a1.49 1.49 0 01-.462.496 1.774 1.774 0 01-.63.281 2.935 2.935 0 01-.687.08c-.429 0-.868-.102-1.307-.316a2.788 2.788 0 01-1.059-.867l-1.374 1.284c.429.507.98.89 1.644 1.148.676.26 1.364.395 2.061.395a5.11 5.11 0 001.51-.214c.474-.147.89-.36 1.25-.642.361-.282.642-.642.856-1.082.215-.428.315-.935.315-1.52 0-.53-.1-.969-.292-1.33a2.791 2.791 0 00-.766-.89 3.942 3.942 0 00-1.025-.562c-.372-.147-.732-.27-1.081-.383a14.55 14.55 0 01-.834-.27 3.205 3.205 0 01-.653-.316 1.412 1.412 0 01-.417-.44 1.22 1.22 0 01-.157-.63c0-.26.056-.496.18-.676a1.47 1.47 0 01.45-.462 2.17 2.17 0 01.608-.259c.226-.056.451-.079.676-.079.372 0 .755.09 1.127.27.372.18.653.395.867.665l1.25-1.396zm-12.593 9.923h1.926V.432h-1.926v10.813zm-15.577 0h1.835V2.56h.035l3.232 8.684h1.34l3.278-8.684h.034v8.684h1.915V.432h-3.019l-2.782 7.682h-.045L150.754.432h-3.008v10.813h-.011zm-10.835 0h7.433V9.533h-5.507V6.48h4.955V4.858h-4.955V2.11h5.237V.432H136.9v10.813zm-13.439 0h1.926V2.898h.035l5.125 8.347h2.443V.432h-1.926v8.087h-.033L126.007.432h-2.546v10.813zm-9.202-6.15V2.054h1.746c.247 0 .495.022.755.056.259.045.495.113.698.225.203.113.372.26.507.45.135.192.202.429.202.722 0 .326-.067.597-.213.8a1.484 1.484 0 01-.541.484 2.13 2.13 0 01-.744.225 6.87 6.87 0 01-.822.056h-1.588v.023zm-1.926 6.15h1.926V6.66h1.408l2.5 4.584h2.321l-2.884-4.798c.766-.17 1.363-.507 1.814-1.003.439-.496.665-1.138.665-1.915 0-.574-.114-1.047-.338-1.453a2.692 2.692 0 00-.891-.957 3.887 3.887 0 00-1.272-.53 6.469 6.469 0 00-1.487-.157h-3.751v10.813h-.011zM99.683 4.25a3.9 3.9 0 01.755-1.25 3.54 3.54 0 011.172-.845c.45-.203.957-.304 1.52-.304.564 0 1.071.101 1.532.304.462.203.845.484 1.171.845.328.36.575.777.755 1.25.18.473.271 1.003.271 1.554 0 .586-.091 1.116-.271 1.6-.18.484-.427.901-.765 1.261a3.42 3.42 0 01-1.184.834c-.461.203-.956.293-1.509.293a3.773 3.773 0 01-1.497-.293 3.468 3.468 0 01-1.172-.834 3.863 3.863 0 01-.766-1.261 4.56 4.56 0 01-.27-1.6 4.165 4.165 0 01.259-1.554zm-1.925 3.875a5.567 5.567 0 001.205 1.802 5.291 5.291 0 001.836 1.171c.709.282 1.476.417 2.309.417.845 0 1.622-.135 2.331-.417a5.69 5.69 0 001.848-1.171 5.405 5.405 0 001.216-1.802c.293-.699.44-1.464.44-2.31 0-.867-.147-1.644-.44-2.342a5.2 5.2 0 00-1.216-1.78 5.236 5.236 0 00-1.848-1.126c-.709-.27-1.486-.394-2.331-.394a6.63 6.63 0 00-2.309.394 5.355 5.355 0 00-1.836 1.126c-.518.485-.912 1.082-1.205 1.78-.293.698-.44 1.475-.44 2.343 0 .845.147 1.61.44 2.309zM88.364 6.48h1.802c.788 0 1.363.113 1.757.338.383.226.586.62.586 1.194 0 .36-.08.642-.237.856-.157.214-.36.383-.597.485-.236.112-.507.18-.788.225a6.822 6.822 0 01-.789.056h-1.723V6.48h-.011zm0-4.449h1.543c.732 0 1.273.102 1.622.304.349.203.518.552.518 1.037 0 .473-.169.833-.507 1.08-.338.26-.822.384-1.464.384h-1.712V2.03zm-1.926 9.214h3.897c.507 0 1.014-.056 1.498-.158a4.043 4.043 0 001.318-.53 2.82 2.82 0 00.924-.968c.236-.405.349-.901.349-1.487 0-.732-.214-1.318-.654-1.757-.439-.44-1.002-.698-1.678-.8v-.033a2.89 2.89 0 001.363-.856c.35-.395.518-.902.518-1.51 0-.484-.101-.9-.293-1.25-.191-.35-.45-.63-.755-.845a2.828 2.828 0 00-1.058-.473 5.44 5.44 0 00-1.205-.146h-4.213v10.813h-.011zm-3.334-5.452h-3.661v1.555h3.66V5.793zM66.59 11.245h1.926V2.898h.034l5.125 8.347h2.444V.432h-1.926v8.087h-.034L69.137.432H66.59v10.813zm-10.847 0h7.434V9.533H57.67V6.48h4.967V4.858H57.67V2.11h5.238V.432h-7.164v10.813zm-3.526-9.923a4.124 4.124 0 00-1.475-.868 5.215 5.215 0 00-1.678-.293 5.69 5.69 0 00-1.442.192 3.822 3.822 0 00-1.262.586 2.995 2.995 0 00-.9.98c-.226.394-.35.867-.35 1.419 0 .507.079.935.248 1.273.158.337.372.63.63.867.26.236.553.428.88.563.326.146.653.27.98.372.337.112.653.214.957.326.304.102.574.226.8.36.225.136.405.305.529.485a1.2 1.2 0 01.202.71c0 .293-.056.54-.18.743-.112.203-.27.36-.461.496a1.778 1.778 0 01-.631.281 2.925 2.925 0 01-.687.08 2.97 2.97 0 01-1.307-.316c-.44-.214-.8-.507-1.059-.867l-1.374 1.284c.428.507.98.89 1.645 1.148a5.72 5.72 0 002.06.395 5.11 5.11 0 001.51-.214c.484-.147.89-.36 1.25-.642.36-.282.642-.642.856-1.082.214-.428.327-.935.327-1.52 0-.53-.101-.969-.293-1.33a2.795 2.795 0 00-.766-.89 3.78 3.78 0 00-1.025-.562c-.371-.147-.732-.27-1.081-.383-.304-.09-.586-.18-.845-.27a3.206 3.206 0 01-.653-.316 1.402 1.402 0 01-.417-.44 1.217 1.217 0 01-.158-.63c0-.26.057-.496.17-.676a1.47 1.47 0 01.45-.462c.18-.112.383-.202.608-.259a2.78 2.78 0 01.676-.079c.372 0 .755.09 1.126.27.372.18.654.395.868.665l1.273-1.396zm-10.295 0a4.125 4.125 0 00-1.475-.868A5.202 5.202 0 0038.78.161c-.484 0-.969.068-1.442.192a3.823 3.823 0 00-1.261.586 3 3 0 00-.901.98c-.226.394-.35.867-.35 1.419 0 .507.08.935.248 1.273.158.337.372.63.63.867.26.236.553.428.88.563.326.146.653.27.98.372.337.112.653.214.957.326.304.102.574.226.8.36.225.136.405.305.529.485a1.2 1.2 0 01.203.71c0 .293-.057.54-.18.743a1.5 1.5 0 01-.462.496 1.778 1.778 0 01-.631.281 2.925 2.925 0 01-.687.08c-.428 0-.867-.102-1.307-.316a2.791 2.791 0 01-1.059-.867l-1.374 1.284c.428.507.98.89 1.645 1.148a5.72 5.72 0 002.061.395c.53 0 1.036-.068 1.51-.214a3.87 3.87 0 001.25-.642 3.02 3.02 0 00.856-1.082c.214-.428.326-.935.326-1.52 0-.53-.101-.969-.293-1.33a2.663 2.663 0 00-.766-.89 3.952 3.952 0 00-1.024-.562c-.372-.147-.733-.27-1.082-.383a19.05 19.05 0 01-.845-.27 3.21 3.21 0 01-.653-.316 1.4 1.4 0 01-.416-.44 1.217 1.217 0 01-.158-.63c0-.26.056-.496.18-.676a1.47 1.47 0 01.45-.462 1.84 1.84 0 01.609-.259 2.77 2.77 0 01.676-.079c.371 0 .754.09 1.126.27.372.18.653.395.867.665l1.25-1.396zM26.75 11.245h1.926V6.559L32.743.443h-2.23l-2.748 4.55L25.05.444h-2.354l4.067 6.116v4.686h-.012zm-15.42 0h1.926V6.447h5.058v4.798h1.915V.432h-1.927v4.37h-5.057V.432H11.33v10.813zm-8.02 0h1.927V2.11h3.311V.432H0V2.11h3.312v9.135z"/></g><defs><clipPath id="clip0"><path fill="#fff" transform="translate(0 .161)" d="M0 0h200v31.527H0z"/></clipPath></defs></svg>