<svg width="160" height="23" fill="none" xmlns="http://www.w3.org/2000/svg"><g clip-path="url(#clip0)" fill-rule="evenodd" clip-rule="evenodd" fill="#fff"><path d="M149.443 12.185c.543-.76 1.9-1.824 3.56-1.824.903 0 1.688.304 2.201.82.543.548.874 1.308.874 2.769v7.814H160v-7.51c0-2.524-.543-4.015-1.508-5.17a6.57 6.57 0 00-5.067-2.372 6.444 6.444 0 00-3.982 1.368V.173h-3.921v21.591h3.921v-9.579zm-8.746 4.288c-.633.973-1.9 1.946-3.499 1.946-2.382 0-4.042-1.703-4.042-4.014 0-2.25 1.689-4.044 3.952-4.044 1.417 0 2.594.73 3.377 1.763l2.776-2.463c-1.358-1.764-3.62-2.95-6.154-2.95-4.463 0-7.872 3.405-7.872 7.694 0 4.257 3.318 7.663 7.843 7.663 2.744 0 4.916-1.004 6.635-3.314l-3.016-2.281zm-11.612-9.64c-.422-.06-.754-.122-1.326-.122-1.779 0-3.377.7-4.252 1.795v-1.49h-3.772v14.748h3.921V12.49c.483-.882 1.839-2.128 3.559-2.128.573 0 1.146.06 1.418.152l.452-3.68zm-12.667.183h-3.771v1.186c-1.146-.943-2.623-1.491-4.282-1.491-3.981 0-7.178 3.345-7.178 7.694 0 2.007.724 3.831 1.87 5.17 1.297 1.52 3.348 2.493 5.52 2.493 1.477 0 2.865-.456 4.071-1.49v1.186h3.77V7.016zm-3.92 9.579a4.278 4.278 0 01-3.53 1.824c-2.202 0-3.86-1.703-3.86-4.014 0-2.129 1.478-4.044 3.769-4.044a4.489 4.489 0 013.621 1.824v4.41zm-33.63 5.17v-9.58c.543-.7 1.75-1.824 3.409-1.824.754 0 1.598.243 2.202.912.452.517.723 1.186.723 2.524v7.967h3.921V13.95c0-.608-.06-1.155-.12-1.642.513-.76 1.84-1.946 3.528-1.946.755 0 1.6.243 2.202.912.453.517.724 1.186.724 2.524v7.967h3.92V13.95c0-2.19-.543-3.71-1.477-4.866-1.177-1.46-3.108-2.372-5.128-2.372-2.172 0-4.012 1.064-5.187 2.311a6.351 6.351 0 00-4.917-2.311c-1.417 0-2.804.457-3.95 1.49V7.017h-3.77v14.748h3.92zM71.579.173h-3.977v21.59h3.977V.173zm-6.73 6.842h-3.823v1.186c-1.162-.943-2.661-1.49-4.344-1.49-4.038 0-7.28 3.345-7.28 7.693 0 2.007.734 3.832 1.896 5.17 1.316 1.52 3.396 2.493 5.598 2.493 1.5 0 2.906-.456 4.13-1.49v1.186h3.823V7.015zm-3.976 9.579c-.765 1.095-2.08 1.825-3.579 1.825-2.233 0-3.916-1.704-3.916-4.014 0-2.128 1.5-4.044 3.824-4.044a4.573 4.573 0 013.671 1.823v4.41zm-24.013 5.17v-9.58c.55-.759 1.928-1.823 3.61-1.823.918 0 1.713.303 2.233.82.55.548.887 1.308.887 2.768v7.814h3.976v-7.51c0-2.524-.55-4.014-1.53-5.169a6.702 6.702 0 00-5.138-2.372c-1.652 0-3.06.578-4.191 1.49V7.016h-3.824v14.747h3.977zM30.742 7.015h-3.824V8.2c-1.162-.942-2.661-1.49-4.343-1.49-4.038 0-7.28 3.345-7.28 7.694 0 2.007.734 3.831 1.896 5.17 1.316 1.52 3.396 2.493 5.598 2.493 1.5 0 2.906-.457 4.13-1.49v1.185h3.823V7.016zm-3.976 9.578c-.765 1.095-2.08 1.825-3.58 1.825-2.232 0-3.915-1.703-3.915-4.014 0-2.128 1.5-4.044 3.824-4.044a4.573 4.573 0 013.67 1.824v4.41zm-15.142-.121c-.643.973-1.928 1.946-3.548 1.946-2.417 0-4.098-1.703-4.098-4.014 0-2.25 1.713-4.044 4.007-4.044 1.438 0 2.63.73 3.425 1.763l2.814-2.463c-1.376-1.763-3.67-2.95-6.24-2.95C3.457 6.712 0 10.118 0 14.406c0 4.257 3.365 7.663 7.954 7.663 2.783 0 4.986-1.004 6.73-3.315l-3.06-2.28z"/></g><defs><clipPath id="clip0"><path fill="#fff" transform="translate(0 .173)" d="M0 0h160v21.895H0z"/></clipPath></defs></svg>