<svg width="200" height="64" fill="none" xmlns="http://www.w3.org/2000/svg"><g clip-path="url(#clip0_1094:980)"><g clip-path="url(#clip1_1094:980)" fill="#fff"><path d="M159.328 47.487l-1.417-.458.893-2.092h2.067l-1.543 2.55zM53.975 35.444c-2.293-2.215-5.326-3.488-8.328-3.492h-.023c-4.688 0-7.17 2.172-9.165 3.91-1.664 1.455-2.762 2.42-5.172 2.42h-.013a6.13 6.13 0 01-1.734-.252 5.842 5.842 0 01-3.822-4.182c-.02-.08-.04-.16-.056-.243-.018-.083-.03-.19-.044-.285-.013-.096-.026-.187-.037-.28a5.59 5.59 0 01-.028-.541 5.806 5.806 0 01.65-2.665c.057-.109.115-.218.178-.315a5.806 5.806 0 016.711-2.594 3.033 3.033 0 003.51-2.082 3.043 3.043 0 00-1.729-3.702 11.335 11.335 0 00-3.43-.552 14.23 14.23 0 00-3.25.365c-2.677.69-5.032 2.506-6.616 4.846-.022.03-.044.059-.063.089-.206.309-.399.623-.576.95l-.026.054c-.174.319-.33.651-.473.98 0 .012-.01.025-.017.04a11.259 11.259 0 00-.939 4.388c.002.462.026.924.074 1.384.011.124.035.245.052.37.037.286.074.57.128.849l.013.047c.882 4.369 3.942 7.718 8.078 8.926 1.148.36 2.343.544 3.546.543 3.781 0 7.207-2.326 9.081-3.968 1.665-1.458 2.765-2.422 5.182-2.422h.013c1.45 0 2.955.651 4.132 1.791a5.92 5.92 0 011.885 4.262c0 5.46-8.137 13.7-20.37 13.7h-.038C17.544 57.762 6.248 46.536 6.077 32.755a25.388 25.388 0 017.292-18.135 25.265 25.265 0 0117.996-7.542h.039a25.106 25.106 0 0117.864 7.444 3.028 3.028 0 004.172-.109 3.046 3.046 0 00.117-4.181A31.115 31.115 0 0031.395 1h-.047A31.31 31.31 0 009.04 10.347 31.465 31.465 0 00.003 32.825c.216 17.082 14.221 31 31.228 31.023h.05c15.114 0 26.421-10.426 26.436-19.767a11.939 11.939 0 00-3.74-8.64m16.536 17.727a5.34 5.34 0 01.314-1.83c.2-.562.51-1.079.91-1.52a4.44 4.44 0 011.442-1.038 4.5 4.5 0 011.902-.387 4.362 4.362 0 012.423.652A4.064 4.064 0 0179 50.752l-2.167.704a2.03 2.03 0 00-2.663-.854 2.205 2.205 0 00-.72.563 2.64 2.64 0 00-.48.869 3.5 3.5 0 00-.174 1.125c-.004.383.057.763.182 1.125.11.32.275.618.488.88.196.24.441.435.72.571a2.041 2.041 0 001.978-.113c.307-.18.553-.45.702-.773l2.167.702a3.806 3.806 0 01-1.474 1.724 4.424 4.424 0 01-2.466.67 4.542 4.542 0 01-1.902-.387 4.395 4.395 0 01-1.44-1.047 4.69 4.69 0 01-.918-1.532 5.205 5.205 0 01-.32-1.811zm13.882 4.785a4.542 4.542 0 01-1.903-.387 4.292 4.292 0 01-1.43-1.047 4.635 4.635 0 01-.901-1.52 5.226 5.226 0 01-.314-1.812 5.283 5.283 0 01.314-1.829c.2-.56.506-1.076.901-1.52a4.261 4.261 0 011.43-1.047 4.512 4.512 0 011.903-.387c.653-.012 1.3.12 1.896.387a4.271 4.271 0 011.422 1.047c.395.444.7.96.901 1.52a5.28 5.28 0 01.314 1.83 5.226 5.226 0 01-.314 1.81 4.732 4.732 0 01-.893 1.521c-.395.446-.88.803-1.423 1.047-.6.265-1.248.397-1.903.387zm-2.267-4.779c-.004.38.054.758.174 1.119.107.316.27.61.48.869.197.24.442.435.72.57a2.058 2.058 0 001.788 0c.278-.135.524-.33.72-.57a2.74 2.74 0 00.478-.88 3.44 3.44 0 00.174-1.125 3.392 3.392 0 00-.174-1.108 2.77 2.77 0 00-.479-.869 2.166 2.166 0 00-.72-.571 2.019 2.019 0 00-1.787.015 2.28 2.28 0 00-.72.58c-.21.262-.374.56-.48.88a3.45 3.45 0 00-.174 1.1v-.01zm16.348 4.603h-2.217v-5.172c0-.739-.121-1.278-.364-1.618a1.174 1.174 0 00-1.01-.51c-.233.002-.463.05-.678.14a2.45 2.45 0 00-.65.396 3.109 3.109 0 00-.555.608c-.167.234-.29.496-.364.773v5.383h-2.22V48.56h2.001v1.705a3.376 3.376 0 011.391-1.37 4.217 4.217 0 012.052-.493c.462-.02.92.09 1.322.317.332.2.607.485.796.825.194.363.325.756.387 1.162.072.436.109.877.109 1.319v5.752zm2.648 0v-7.094h-1.3v-2.127h1.3v-2.987h2.281v2.991h2.003v2.123h-2.003v7.09l-2.281.004zm10.72-7.177c-.625 0-1.241.141-1.803.413a2.355 2.355 0 00-1.142 1.188v5.576h-2.217V48.56h2.039v1.97a4.32 4.32 0 01.546-.853c.202-.241.43-.46.678-.652.225-.178.473-.324.737-.434.228-.096.472-.147.72-.15h.273c.058 0 .116.006.173.017l-.004 2.142zm4.815 7.353a3.675 3.675 0 01-1.645-.37 3.961 3.961 0 01-1.3-1.02 4.835 4.835 0 01-.852-1.52 5.637 5.637 0 01-.305-1.876 5.781 5.781 0 01.296-1.872c.182-.551.46-1.066.82-1.52.336-.42.756-.764 1.233-1.01a3.268 3.268 0 011.538-.37 3.182 3.182 0 011.734.482c.505.321.917.771 1.191 1.304v-1.52h2.217v9.094h-2.212v-1.497c-.259.496-.638.92-1.101 1.232a2.877 2.877 0 01-1.614.463zm2.715-5.735a3.023 3.023 0 00-.904-1.303 2.03 2.03 0 00-1.33-.502 1.838 1.838 0 00-.919.237c-.283.16-.531.375-.728.634a2.97 2.97 0 00-.473.897 3.31 3.31 0 00-.164 1.045c-.002.362.056.722.173 1.065.108.317.273.611.488.868.207.246.464.443.754.58.296.144.622.219.951.218.464.01.917-.14 1.283-.424a3.06 3.06 0 00.867-1.125l.002-2.19zm12.209 5.735a4.569 4.569 0 01-1.886-.378 4.31 4.31 0 01-1.439-1.03 4.584 4.584 0 01-.918-1.52 5.127 5.127 0 01-.323-1.814 5.402 5.402 0 01.314-1.855 4.593 4.593 0 01.91-1.52 4.335 4.335 0 011.448-1.048 4.558 4.558 0 011.911-.386 4.447 4.447 0 011.894.386c.54.246 1.024.6 1.423 1.039.397.441.7.959.893 1.52.204.576.307 1.183.306 1.794v.435a2.08 2.08 0 01-.041.352h-6.709c.025.335.11.663.249.969.125.27.298.514.511.72.416.396.968.616 1.541.616.439 0 .87-.12 1.248-.344a1.77 1.77 0 00.802-.906l1.903.563a4.02 4.02 0 01-1.53 1.738 4.525 4.525 0 01-2.507.669zm2.251-5.559a2.516 2.516 0 00-.719-1.661 2.21 2.21 0 00-2.384-.459 2.18 2.18 0 00-.687.467 2.42 2.42 0 00-.488.721c-.128.295-.202.61-.216.932h4.494zm3.673-7.457h2.217v12.84h-2.217v-12.84zm7.71 8.23a5.302 5.302 0 01.314-1.828c.199-.563.509-1.08.91-1.521.405-.44.895-.793 1.439-1.038a4.508 4.508 0 011.903-.387 4.368 4.368 0 012.425.652 4.08 4.08 0 011.497 1.707l-2.167.704a2.03 2.03 0 00-2.663-.854 2.22 2.22 0 00-.719.563 2.616 2.616 0 00-.479.869 3.44 3.44 0 00-.176 1.125c-.005.383.057.763.182 1.125.109.32.275.618.49.88.196.24.441.435.719.571.27.134.566.204.867.204a2.03 2.03 0 001.101-.317 1.74 1.74 0 00.704-.773l2.167.701a3.793 3.793 0 01-1.473 1.725 4.41 4.41 0 01-2.464.67 4.54 4.54 0 01-1.903-.388 4.405 4.405 0 01-1.441-1.047 4.666 4.666 0 01-.916-1.53 5.136 5.136 0 01-.317-1.813zm13.45 4.786a3.675 3.675 0 01-1.644-.37 3.951 3.951 0 01-1.3-1.02 4.815 4.815 0 01-.852-1.52 5.638 5.638 0 01-.306-1.876 5.81 5.81 0 01.297-1.872 4.95 4.95 0 01.819-1.52 3.883 3.883 0 011.233-1.01 3.279 3.279 0 011.539-.37 3.176 3.176 0 011.733.482c.506.321.917.771 1.192 1.304v-1.52h2.217v9.094h-2.217v-1.497c-.259.496-.637.92-1.101 1.232a2.872 2.872 0 01-1.61.463zm2.711-5.735a3.029 3.029 0 00-.903-1.303 2.032 2.032 0 00-1.331-.502 1.843 1.843 0 00-.919.237c-.283.16-.531.375-.728.634-.207.27-.367.573-.472.897a3.37 3.37 0 00.009 2.11c.107.317.273.612.489.868.206.246.463.444.752.58.297.144.622.219.952.218.463.01.916-.14 1.282-.424.374-.301.671-.687.867-1.125l.002-2.19zm12.281 5.559h-2.217v-5.172c0-.739-.122-1.278-.364-1.618a1.176 1.176 0 00-1.01-.51c-.233.002-.463.05-.678.14a2.484 2.484 0 00-.65.396 3.16 3.16 0 00-.553.608c-.167.234-.29.496-.364.773v5.383h-2.221V48.56h2v1.705a3.378 3.378 0 011.391-1.37 4.22 4.22 0 012.052-.493c.462-.02.92.09 1.322.317.332.2.607.485.795.825.194.363.326.756.388 1.162.072.436.109.877.109 1.319v5.752zm1.389-4.609a5.327 5.327 0 01.314-1.83c.2-.562.509-1.079.91-1.52.406-.44.896-.793 1.441-1.038a4.5 4.5 0 011.902-.387 4.363 4.363 0 012.423.652 4.07 4.07 0 011.498 1.707l-2.167.704a2.031 2.031 0 00-2.655-.847 2.206 2.206 0 00-.719.562 2.619 2.619 0 00-.481.87 3.495 3.495 0 00-.174 1.124c-.004.383.057.764.182 1.126.11.32.275.617.488.88.191.239.431.434.704.573a2.034 2.034 0 001.978-.113c.308-.18.553-.45.703-.773l2.167.701a3.806 3.806 0 01-1.474 1.725 4.424 4.424 0 01-2.466.669 4.542 4.542 0 01-1.903-.387 4.396 4.396 0 01-1.438-1.047 4.718 4.718 0 01-.919-1.531 5.183 5.183 0 01-.314-1.82zm13.898 4.785c-.648.01-1.29-.12-1.885-.378a4.337 4.337 0 01-1.441-1.03 4.627 4.627 0 01-.917-1.52 5.103 5.103 0 01-.322-1.814 5.378 5.378 0 01.314-1.855c.2-.562.509-1.079.91-1.52a4.341 4.341 0 011.447-1.047 4.563 4.563 0 011.912-.387 4.453 4.453 0 011.894.386 4.373 4.373 0 011.423 1.039c.396.442.699.959.893 1.52.204.576.307 1.183.306 1.794v.435a1.813 1.813 0 01-.042.352h-6.706c.025.335.108.663.247.969.125.27.299.514.513.72a2.207 2.207 0 001.539.615c.44 0 .872-.118 1.25-.343.365-.198.649-.519.802-.905l1.903.562a4.04 4.04 0 01-1.53 1.738 4.525 4.525 0 01-2.51.669zm2.252-5.559a2.519 2.519 0 00-.722-1.661 2.124 2.124 0 00-1.547-.626 2.092 2.092 0 00-.834.167c-.257.11-.49.27-.687.467a2.37 2.37 0 00-.488.721 2.65 2.65 0 00-.217.932h4.495zM200 50.6c-.625 0-1.242.141-1.805.413a2.355 2.355 0 00-1.142 1.188v5.576h-2.217V48.56h2.035v1.97a4.245 4.245 0 011.226-1.52 3.13 3.13 0 01.735-.435c.228-.095.472-.146.719-.15h.273a.93.93 0 01.176.018V50.6zM75.081 39.033a4.57 4.57 0 01-1.887-.378 4.316 4.316 0 01-1.439-1.03 4.579 4.579 0 01-.919-1.52 5.14 5.14 0 01-.323-1.812 5.459 5.459 0 01.314-1.855c.201-.565.51-1.085.91-1.531a4.383 4.383 0 011.448-1.047 4.602 4.602 0 011.912-.387 4.503 4.503 0 011.896.387 4.363 4.363 0 011.421 1.038c.396.442.7.96.893 1.52.206.576.31 1.184.308 1.795v.434a2.021 2.021 0 01-.042.352h-6.708c.024.335.108.662.247.967a2.208 2.208 0 002.043 1.345c.44 0 .87-.119 1.248-.344.365-.199.65-.519.804-.905l1.903.562a4.007 4.007 0 01-1.532 1.738 4.517 4.517 0 01-2.497.671zm2.25-5.559a2.516 2.516 0 00-.72-1.661 2.134 2.134 0 00-1.547-.624 2.078 2.078 0 00-.836.168 2.137 2.137 0 00-.685.464 2.445 2.445 0 00-.49.721c-.127.296-.2.611-.217.932h4.495zm6.916 5.559a6.337 6.337 0 01-2.134-.37 5.098 5.098 0 01-1.788-1.055l.828-1.477c.474.368.994.672 1.547.906.474.2.983.305 1.498.308.366.02.73-.073 1.042-.265a.87.87 0 00.38-.756.756.756 0 00-.447-.72 9.28 9.28 0 00-1.457-.529 18.446 18.446 0 01-1.438-.473 3.678 3.678 0 01-.96-.52 1.755 1.755 0 01-.53-.669 2.247 2.247 0 01-.164-.905 3.02 3.02 0 01.256-1.267 2.71 2.71 0 01.72-.958c.318-.27.686-.477 1.083-.608a4.2 4.2 0 011.348-.217 5.467 5.467 0 011.829.3 4.42 4.42 0 011.564.966l-.895 1.425a5.04 5.04 0 00-1.28-.773 3.311 3.311 0 00-1.231-.243 1.691 1.691 0 00-.943.247.87.87 0 00-.381.791c-.006.14.025.28.09.404a.806.806 0 00.291.282c.161.095.332.172.51.23.216.077.483.157.801.24.596.163 1.107.328 1.532.49a4.15 4.15 0 011.042.563c.253.193.458.443.596.73.133.314.198.654.189.995a2.63 2.63 0 01-.943 2.137c-.622.527-1.474.791-2.555.791zm10.142 0a3.245 3.245 0 01-1.786-.484 3.327 3.327 0 01-1.192-1.304v5.366h-2.216V29.64h1.935v1.583c.302-.521.729-.96 1.241-1.275a3.29 3.29 0 011.753-.467 3.525 3.525 0 011.621.378c.493.249.93.596 1.283 1.02.37.452.656.967.843 1.521a5.49 5.49 0 01.308 1.84 6.18 6.18 0 01-.282 1.881 4.924 4.924 0 01-.787 1.52 3.71 3.71 0 01-1.198 1.022c-.47.247-.993.374-1.523.369zm-.743-2.005c.318.006.634-.069.916-.217a2.26 2.26 0 00.722-.617c.204-.27.36-.574.461-.897.111-.34.168-.696.167-1.054a3.131 3.131 0 00-.182-1.086 2.718 2.718 0 00-.505-.869 2.35 2.35 0 00-.76-.58 2.161 2.161 0 00-.954-.217c-.221.002-.441.04-.65.115a2.23 2.23 0 00-.613.326 2.848 2.848 0 00-.505.491 2.074 2.074 0 00-.338.617v2.172c.185.507.498.956.91 1.303.366.328.84.51 1.33.513zm9.612 2.005a3.701 3.701 0 01-1.647-.37 3.928 3.928 0 01-1.3-1.02 4.821 4.821 0 01-.854-1.52 5.618 5.618 0 01-.305-1.873 5.733 5.733 0 01.299-1.875c.18-.551.456-1.066.817-1.52a3.903 3.903 0 011.233-1.012 3.298 3.298 0 011.538-.37 3.174 3.174 0 011.734.485c.506.32.918.77 1.192 1.303v-1.52h2.217v9.092h-2.211V37.34a3.352 3.352 0 01-1.101 1.231 2.866 2.866 0 01-1.612.463zm2.713-5.728a3.017 3.017 0 00-.901-1.303 2.04 2.04 0 00-1.333-.502 1.842 1.842 0 00-.919.239 2.45 2.45 0 00-.728.632c-.206.27-.365.573-.47.897a3.324 3.324 0 00-.167 1.047c-.002.362.057.722.176 1.065.106.317.272.612.487.868a2.255 2.255 0 001.703.797 2.02 2.02 0 001.283-.42c.373-.304.67-.69.867-1.128l.002-2.192zm12.285 5.552h-2.226v-5.172c0-.738-.121-1.277-.364-1.616a1.168 1.168 0 00-1.009-.51c-.234.002-.464.05-.679.14a2.49 2.49 0 00-.65.396 3.12 3.12 0 00-.555.606 2.54 2.54 0 00-.364.773v5.383h-2.219v-9.216h1.998v1.709a3.368 3.368 0 011.389-1.373 4.249 4.249 0 012.053-.493c.462-.019.92.09 1.324.317.332.2.606.487.793.828.196.36.328.753.39 1.16a8.2 8.2 0 01.106 1.318l.013 5.75zM115.46 28.27a1.626 1.626 0 01-.65-.124 4.034 4.034 0 01-.541-.271 8.608 8.608 0 00-.479-.272 1.082 1.082 0 00-.505-.124.7.7 0 00-.434.124.88.88 0 00-.238.28.858.858 0 00-.1.291c-.01.087-.017.137-.017.15h-1.224c.013-.182.046-.362.099-.536a3.01 3.01 0 01.323-.756 2.39 2.39 0 01.596-.67 1.45 1.45 0 01.919-.29 1.5 1.5 0 01.65.132c.176.085.347.18.514.282.16.1.318.194.479.28.164.09.349.136.537.133a.795.795 0 00.737-.404.98.98 0 00.117-.3 1.73 1.73 0 00.024-.176h1.224a2.37 2.37 0 01-.1.494 2.766 2.766 0 01-.338.755 2.753 2.753 0 01-.628.695c-.28.212-.623.32-.973.307h.008zm8.727 10.763a4.513 4.513 0 01-1.903-.387 4.253 4.253 0 01-1.43-1.047 4.65 4.65 0 01-.902-1.52 5.43 5.43 0 010-3.64 4.65 4.65 0 01.902-1.521 4.293 4.293 0 011.43-1.047 4.54 4.54 0 011.903-.387 4.49 4.49 0 011.896.387 4.293 4.293 0 011.421 1.047c.395.444.701.96.902 1.52a5.393 5.393 0 010 3.64 4.734 4.734 0 01-.893 1.521 4.17 4.17 0 01-1.424 1.047 4.496 4.496 0 01-1.902.387zm-2.267-4.766c-.005.38.054.757.176 1.117.106.316.268.61.478.869.197.24.442.434.72.571.565.27 1.222.27 1.788 0 .277-.137.523-.332.719-.571.212-.262.374-.56.479-.88a3.44 3.44 0 00.173-1.125 3.362 3.362 0 00-.173-1.108 2.717 2.717 0 00-.479-.88 2.165 2.165 0 00-.719-.573 2.022 2.022 0 00-1.788.015c-.278.14-.523.338-.72.58a2.71 2.71 0 00-.478.88c-.12.356-.179.73-.176 1.105zm8.323-8.25h2.217v12.84h-2.217v-12.84zm7.86 13.016a3.693 3.693 0 01-1.647-.37 3.923 3.923 0 01-1.3-1.02 4.86 4.86 0 01-.852-1.52 5.625 5.625 0 01-.305-1.873 5.769 5.769 0 01.297-1.875 4.9 4.9 0 01.819-1.52 3.903 3.903 0 011.233-1.012 3.298 3.298 0 011.538-.37 3.174 3.174 0 011.734.485c.506.32.918.77 1.192 1.303v-1.52h2.216v9.092h-2.212V37.34a3.352 3.352 0 01-1.101 1.231 2.869 2.869 0 01-1.612.463zm2.713-5.728a3.04 3.04 0 00-.901-1.303 2.04 2.04 0 00-1.333-.502 1.84 1.84 0 00-.919.239c-.283.16-.53.374-.728.632-.207.27-.366.573-.47.897a3.296 3.296 0 00-.167 1.047c-.002.362.057.722.175 1.065.107.317.272.612.488.868a2.255 2.255 0 001.703.797c.463.011.916-.138 1.283-.42.373-.304.67-.69.867-1.128l.002-2.192zM74.635 20.09a3.693 3.693 0 01-1.647-.37 3.961 3.961 0 01-1.3-1.02 4.824 4.824 0 01-.852-1.521 5.607 5.607 0 01-.305-1.873 5.774 5.774 0 01.296-1.872 4.95 4.95 0 01.82-1.52 3.878 3.878 0 011.232-1.01 3.277 3.277 0 011.539-.37 3.173 3.173 0 011.734.482c.505.32.916.77 1.191 1.303V10.8h2.217v9.095h-2.212v-1.497c-.26.496-.638.92-1.101 1.232a2.87 2.87 0 01-1.612.46zm2.713-5.735a3.029 3.029 0 00-.902-1.304c-.37-.322-.843-.5-1.332-.501a1.839 1.839 0 00-.92.236c-.282.16-.53.376-.727.635a2.906 2.906 0 00-.47.897c-.112.337-.168.69-.167 1.045-.002.362.056.721.173 1.064.108.318.274.613.49.869a2.21 2.21 0 001.703.804c.465.007.918-.146 1.283-.435a3.05 3.05 0 00.867-1.125l.002-2.185zm7.495 5.735a6.362 6.362 0 01-2.134-.37 5.164 5.164 0 01-1.788-1.056l.828-1.477a7.04 7.04 0 001.547.906c.475.199.983.303 1.497.306.366.02.73-.071 1.043-.263a.87.87 0 00.379-.755.756.756 0 00-.446-.722 9.28 9.28 0 00-1.457-.527 19.38 19.38 0 01-1.438-.476 3.625 3.625 0 01-.96-.52 1.748 1.748 0 01-.53-.666 2.254 2.254 0 01-.166-.906 3.012 3.012 0 01.258-1.266c.166-.37.412-.698.72-.96a3.28 3.28 0 011.083-.607c.434-.146.89-.22 1.348-.217a5.523 5.523 0 011.829.298c.583.21 1.116.54 1.564.969l-.895 1.425a5.155 5.155 0 00-1.28-.776 3.352 3.352 0 00-1.233-.245 1.717 1.717 0 00-.945.245.87.87 0 00-.38.793.81.81 0 00.091.404c.072.116.17.212.289.28.165.098.34.178.522.24.217.075.483.153.802.236.596.165 1.107.328 1.532.493.373.136.724.325 1.042.563.254.192.458.442.596.73.133.313.197.651.189.992a2.63 2.63 0 01-.943 2.138c-.629.528-1.483.792-2.564.79zm8.95 0a4.54 4.54 0 01-1.903-.387 4.293 4.293 0 01-1.43-1.047 4.639 4.639 0 01-.901-1.52 5.224 5.224 0 01-.314-1.813 5.283 5.283 0 01.314-1.829c.2-.56.506-1.076.901-1.52a4.264 4.264 0 011.43-1.047 4.513 4.513 0 011.903-.387c.653-.011 1.3.12 1.896.387a4.273 4.273 0 011.422 1.047c.395.444.7.96.901 1.52.212.587.318 1.206.314 1.83a5.224 5.224 0 01-.314 1.811 4.732 4.732 0 01-.893 1.52c-.395.447-.88.804-1.424 1.048a4.54 4.54 0 01-1.902.386zm-2.267-4.769c-.004.38.054.757.174 1.117.107.316.27.61.48.869.197.242.443.438.722.575a2.058 2.058 0 001.788 0c.278-.136.524-.33.72-.571a2.74 2.74 0 00.478-.88 3.44 3.44 0 00.174-1.125 3.393 3.393 0 00-.174-1.108 2.747 2.747 0 00-.479-.88 2.169 2.169 0 00-.719-.57 2.019 2.019 0 00-1.788.014 2.28 2.28 0 00-.72.58c-.21.262-.374.56-.48.88a3.45 3.45 0 00-.176 1.1zm7.743-.017a5.284 5.284 0 01.316-1.829 4.412 4.412 0 014.252-2.93 4.374 4.374 0 012.425.651 4.078 4.078 0 011.495 1.708l-2.167.704a2.03 2.03 0 00-2.663-.854 2.196 2.196 0 00-.72.562 2.682 2.682 0 00-.481.87 3.494 3.494 0 00-.173 1.124c-.005.383.057.764.182 1.126.109.32.274.617.487.88.197.24.443.435.722.57.269.135.566.205.867.205a2.04 2.04 0 001.101-.317c.307-.18.553-.45.704-.774l2.167.702a3.806 3.806 0 01-1.474 1.725 4.415 4.415 0 01-2.464.669 4.54 4.54 0 01-1.902-.387 4.396 4.396 0 01-1.441-1.047 4.713 4.713 0 01-.917-1.531 5.154 5.154 0 01-.316-1.827zm9.885-5.894V7.074h2.211v2.338h-2.211zm0 10.503v-9.216h2.211v9.216h-2.211zm7.786.177a3.695 3.695 0 01-1.646-.37 3.986 3.986 0 01-1.301-1.021 4.83 4.83 0 01-.851-1.52 5.549 5.549 0 01-.306-1.873 5.727 5.727 0 01.297-1.872 4.951 4.951 0 01.819-1.521c.336-.42.756-.763 1.233-1.01a3.269 3.269 0 011.539-.37 3.181 3.181 0 011.733.483c.506.32.916.77 1.19 1.303V10.8h2.217v9.095h-2.211v-1.497c-.257.496-.635.92-1.098 1.232-.481.31-1.043.47-1.615.46zm2.713-5.735a2.99 2.99 0 00-.901-1.304 2.037 2.037 0 00-1.331-.502 1.836 1.836 0 00-.918.237c-.284.16-.531.376-.728.635a2.97 2.97 0 00-.473.897 3.31 3.31 0 00-.165 1.045c-.001.362.057.721.174 1.064a2.7 2.7 0 00.487.869c.207.245.465.443.755.58.296.144.621.218.951.217.464.008.917-.145 1.281-.434.373-.302.67-.687.866-1.126l.002-2.178zm3.673.949a5.352 5.352 0 01.315-1.829c.2-.562.509-1.08.91-1.52a4.44 4.44 0 011.441-1.024 4.5 4.5 0 011.902-.386 4.364 4.364 0 012.423.651 4.062 4.062 0 011.497 1.708l-2.167.704a2.03 2.03 0 00-2.663-.854 2.162 2.162 0 00-.719.562 2.637 2.637 0 00-.481.87 3.495 3.495 0 00-.174 1.124c-.004.383.057.764.182 1.126.11.32.275.617.488.88.196.24.441.435.719.57.27.135.566.205.867.205a2.05 2.05 0 001.101-.317c.308-.18.553-.45.702-.774l2.167.702a3.81 3.81 0 01-1.473 1.725 4.426 4.426 0 01-2.466.669 4.54 4.54 0 01-1.903-.387 4.4 4.4 0 01-1.439-1.047 4.714 4.714 0 01-.919-1.531 5.24 5.24 0 01-.31-1.827zm9.548-5.894V7.074h2.217v2.338h-2.217zm0 10.503v-9.216h2.217v9.216h-2.217zm8.224.177a4.54 4.54 0 01-1.903-.387 4.29 4.29 0 01-1.432-1.047 4.662 4.662 0 01-.902-1.52 5.228 5.228 0 01-.314-1.812 5.278 5.278 0 01.314-1.83 4.66 4.66 0 01.902-1.52 4.272 4.272 0 011.432-1.047 4.502 4.502 0 011.903-.387 4.454 4.454 0 011.894.387 4.305 4.305 0 011.423 1.047c.394.445.7.961.902 1.52a5.35 5.35 0 01.314 1.83 5.277 5.277 0 01-.314 1.811 4.759 4.759 0 01-.895 1.52c-.395.446-.88.803-1.422 1.048a4.54 4.54 0 01-1.902.386zm-2.256-4.769c-.006.38.053.757.173 1.117.106.316.268.61.479.869a2.06 2.06 0 002.507.571c.278-.136.524-.33.72-.571.212-.262.375-.56.481-.88.119-.363.177-.743.173-1.125a3.444 3.444 0 00-.173-1.108 2.793 2.793 0 00-.481-.88 2.172 2.172 0 00-.72-.571 2.007 2.007 0 00-1.788.015c-.276.142-.521.34-.719.58-.212.262-.374.56-.479.88a3.39 3.39 0 00-.173 1.103zm2.817-5.693l-1.422-.458.893-2.092h2.067l-1.538 2.55zm13.517 10.285h-2.216v-5.172c0-.738-.122-1.278-.364-1.618a1.175 1.175 0 00-1.01-.51 1.821 1.821 0 00-.679.14 2.534 2.534 0 00-.65.396 3.2 3.2 0 00-.554.608 2.467 2.467 0 00-.364.774v5.382h-2.219v-9.216h2.002v1.705a3.355 3.355 0 011.389-1.37 4.22 4.22 0 012.052-.494c.462-.02.921.09 1.324.317.332.2.606.485.793.826.196.36.328.753.39 1.16.072.436.107.878.106 1.32v5.752z"/></g></g><defs><clipPath id="clip0_1094:980"><path fill="#fff" transform="translate(0 .756)" d="M0 0h200v63H0z"/></clipPath><clipPath id="clip1_1094:980"><path fill="#fff" transform="translate(0 1)" d="M0 0h200v62.848H0z"/></clipPath></defs></svg>