<svg width="239" height="41" fill="none" xmlns="http://www.w3.org/2000/svg"><g clip-path="url(#clip0)"><g clip-path="url(#clip1)"><path d="M0 11.04v18.898h4.315v-5.234c2.492 0 4.751.05 7.011-.009 3.96-.104 6.784-2.887 6.87-6.697.082-3.702-2.782-6.793-6.67-6.93-3.774-.132-7.557-.027-11.526-.027zm115.168 14.565c.864-.619 1.582-1.042 2.191-1.587 1.642-1.474 1.969-3.406 1.442-5.411-.532-2.037-1.928-3.688-4.024-3.86-3.351-.278-6.739-.073-10.19-.073V30.01h3.406V15.732c4.133-.695 6.561.3 7.211 3.06.246 1.037.273 2.451-.25 3.27-.818 1.273-2.201 2.187-3.456 3.355 2.165 1.528 2.879 5.761 7.448 4.46-.723-.809-1.314-1.463-1.9-2.123-.596-.677-1.183-1.355-1.878-2.15zm-84.358-.582c3.51 5.188 4.26 5.67 7.38 4.715l-3.647-4.129c.714-.482 1.305-.8 1.805-1.228 1.782-1.51 2.5-3.45 1.864-5.701-.596-2.105-1.996-3.797-4.215-3.97-3.283-.254-6.607-.063-10.017-.063V30.01h3.424V15.729c4.129-.664 6.497.4 7.28 3.123.74 2.597-.573 4.693-3.874 6.17zm120.401-9.626c.004-.223.014-.441.018-.664h-16.432c-.009.205-.019.41-.023.618h6.47v14.655h3.542v-14.61h6.425zm-103.078-.728h-3.31V30.01h3.31V14.67zm77.752 15.337h3.383V14.715h-3.383v15.29zm34.115.04v-15.35h-3.228v15.35H160z" fill="#000"/><path d="M115.168 25.605c.695.795 1.282 1.473 1.878 2.146.586.659 1.177 1.314 1.9 2.123-4.569 1.296-5.283-2.937-7.448-4.46 1.255-1.169 2.633-2.083 3.456-3.356.527-.818.496-2.232.25-3.27-.65-2.76-3.083-3.755-7.211-3.06v14.278h-3.406V14.669c3.451 0 6.839-.204 10.19.073 2.096.173 3.492 1.819 4.024 3.86.523 2.006.2 3.938-1.442 5.411-.609.55-1.327.973-2.191 1.592zm-84.358-.582c3.3-1.478 4.62-3.57 3.874-6.17-.782-2.724-3.151-3.788-7.28-3.124V30.01H23.98V14.646c3.41 0 6.734-.191 10.017.068 2.219.173 3.62 1.86 4.215 3.97.636 2.25-.082 4.192-1.864 5.701-.5.423-1.091.746-1.805 1.228 1.268 1.436 2.455 2.778 3.646 4.128-3.123.946-3.874.464-7.38-4.72zm120.401-9.626h-6.429v14.609h-3.542V15.351h-6.471c.009-.204.018-.409.023-.618h16.432c0 .223-.009.446-.013.664zM48.133 14.67v15.34h-3.31V14.67h3.31zm77.752 15.336V14.715h3.383v15.291h-3.383zm34.115.041h-3.229v-15.35H160v15.35z" fill="#fff"/><path fill-rule="evenodd" clip-rule="evenodd" d="M3.641 11.02c-1.2.01-2.411.02-3.641.02 0 6.385 0 12.673-.005 18.898H4.31v-5.234c.802 0 1.579.005 2.34.01 1.607.011 3.14.021 4.672-.019 3.965-.104 6.788-2.887 6.87-6.697.082-3.702-2.778-6.793-6.666-6.93-2.604-.09-5.213-.07-7.885-.047zm1.827 12.616c-.382-.01-.769-.022-1.158-.027V12.354c.44-.014.88-.04 1.32-.067 2.572-.155 5.079-.306 7.006 2.118a5.45 5.45 0 011.209 3.345c.013 1.02-.26 2.055-.818 3.016-1.771 3.04-4.55 2.959-7.558 2.87z" fill="#fff"/><path d="M55.758 16.652v.745h1.96l-3.637 12.686h2.66s2.1-7.93 6.015-11.894c0 0 2.66-2.192 3.36.186.7 2.378-3.405 12.036-3.405 12.036h2.75s2.051-7.557 4.897-10.636c2.847-3.078 4.293-2.846 4.852-1.49.56 1.354-2.892 8.956-2.987 10.307-.096 1.355.372 2.892 2.287 2.892 1.914 0 4.524-3.36 4.524-3.36v-.605s-3.078 3.637-4.292 3.033c-1.215-.605 3.45-9.563 3.123-11.85-.327-2.287-1.914-3.032-4.151-2.66-2.8.469-5.41 4.852-5.41 4.852s1.068-4.951-1.774-5.129c-4.383-.282-7.043 4.993-7.043 4.993l1.26-4.62-4.989.514zm43.664 2.218c.545-2.696-.623-5.578-5.361-5.578-5.288 0-10.503 5.388-11.085 10.794-.723 6.738 2.537 8.985 7.102 8.985 5.506 0 8.116-5.361 8.116-5.361h-.723s-1.45 2.61-4.201 3.842c-2.755 1.232-5.31 1.423-6.52-.796-2.174-3.983-.364-7.825-.364-7.825s11.804 2.028 13.036-4.06zm-8.262-4.055c1.66-1.023 4.274-.723 4.929.65.932 1.969.364 4.783-3.115 6.375-1.714.786-6.015-.146-6.015-.146s1.737-5.356 4.201-6.88z" fill="#fff"/></g><g clip-path="url(#clip2)" fill="#fff"><path d="M194.454 33.121V4.548H186v35.104h15.038v-6.531h-6.584zm24.099-26.783V4.601h-5.837v-.053h-8.454v.048h-5.227v6.531h5.227v28.52h8.454v-28.52h3.453c.146-1.096.385-2.007.739-2.644a9.598 9.598 0 011.645-2.145z"/><path d="M230.912 31.715l-3.095 1.486s-1.353-7.548-2.194-12.001c-.84-4.453-1.675-10.325-1.675-10.325h3.033L227.684 3l-3.741.195s-3.033.813-5.39 3.143v4.794h-2.383c-.544 4.103.256 10.882 1.578 16.387 1.548 6.451 4.519 11.487 5.355 12.39.84.901 5.938 1.03 7.809.773 1.87-.256 4.258-1.87 4.258-1.87l-4.258-7.097z"/></g></g><defs><clipPath id="clip0"><path fill="#fff" transform="translate(.443 .77)" d="M0 0h238v40H0z"/></clipPath><clipPath id="clip1"><path fill="#fff" transform="translate(0 11)" d="M0 0h160v22.075H0z"/></clipPath><clipPath id="clip2"><path fill="#fff" transform="translate(186 3)" d="M0 0h49.17v37.802H0z"/></clipPath></defs></svg>