<svg width="200" height="80" fill="none" xmlns="http://www.w3.org/2000/svg"><g clip-path="url(#clip0)" fill="#fff"><path d="M32.253 8.412c4.977.282 5.07 8.685-.798 8.263v11.127h12.583v7.042H31.455V49.21c1.362-.047 2.348-.047 3.662-.047-1.361 7.606-2.676 15.634-4.131 23.521-.658 3.005-.564 6.385-3.24 6.385-2.065 0-1.971-2.253-2.863-6.479-1.033-5.68-1.221-6.573-1.174-6.62-1.503-8.356-1.409-8.826-3.005-16.76h3.615V34.797H11.784v-7.042h12.535V16.769c-5.587.187-5.868-7.84-.798-8.357 1.08-2.3 1.878-7.794 4.413-7.794 2.864 0 3.052 5.4 4.32 7.794zM8.732 23.999c.047 1.55-.046 9.343-.046 13.99l-1.409-.939c-1.033-.704-1.784-1.126-2.91-1.924C2.722 33.999.234 33.013.234 31.04c-.047-1.737 1.267-2.253 5.587-5.164 1.737-1.174 2.488-1.643 2.91-1.878zm38.263-.047c1.456.892 5.68 3.521 7.559 5.023 3.099 2.911-1.925 5.306-3.803 6.62-1.314.892-2.582 1.737-3.803 2.441V23.952h.047zm117.606 31.22c.423.376.892.705 1.409.94-.47.844-1.315 1.502-2.066 2.159-3.005 2.582-7.183 4.789-12.301 5.211-8.779.704-17.042-3.333-17.887-11.83-.563-5.54 2.16-9.86 5.211-12.207 3.428-2.676 8.216-4.413 13.897-4.742 3.991-.235 8.592.188 11.268 1.596 1.079.61 2.347 1.878 2.159 3.427-.281 2.3-3.803 2.817-6.056 1.972-3.286-1.22-4.601-5.023-9.014-4.93-2.77.048-5.164 1.738-6.432 3.334-1.221 1.502-2.301 4.178-2.535 6.526-.705 6.666 2.77 13.098 9.483 13.615 6.104.516 9.39-2.488 12.864-5.07zm33.615 0a5.67 5.67 0 001.408.94c-.469.844-1.314 1.502-2.065 2.159-3.052 2.63-7.23 4.789-12.301 5.211-10.469.845-19.014-4.93-17.887-14.882.422-3.803 2.629-7.09 5.117-9.108 3.427-2.723 8.451-4.507 14.038-4.836 4.037-.235 8.732.235 11.267 1.596.986.564 2.489 1.784 2.066 3.71-.422 1.924-3.709 2.487-5.868 1.69-3.756-1.362-5.728-6.104-11.174-4.555-7.324 2.113-9.437 14.601-3.427 20.658 1.737 1.126 3.474 2.253 5.962 2.44 5.869.564 9.765-2.581 12.864-5.023zm-113.709-6.15c-2.113 1.127-7.136 2.817-8.826 4.46-1.55 1.503-1.737 4.883 0 6.526 3.286 2.3 6.76-.704 9.202-1.878-.047-3.052.14-6.385-.094-9.296-.141 0-.188.141-.282.188zm14.695 9.625c.235.375.376.75.657 1.032-2.347 1.925-7.7 5.447-12.3 4.179-1.502-.423-2.535-1.831-2.63-3.897-2.816 1.596-5.351 4.273-10.61 4.085-4.084-.141-7.98-1.972-8.45-5.963-.376-3.145 1.737-5.305 3.709-6.244 4.225-2.113 11.643-2.394 15.352-5.023.047-3.522.188-6.949-2.442-8.451-2.3-1.315-8.075-.845-8.122 2.16 0 .939.517 1.314.845 2.065-2.018.564-3.709 1.22-5.774 1.878-.517.188-1.643.657-1.972.564-.845-.188-1.174-1.831-1.033-2.536.188-1.032 1.127-2.018 1.784-2.629 2.723-2.535 7.606-4.319 12.395-4.741 5.023-.423 9.765 1.126 11.549 3.896 1.502 2.348.939 8.45.939 12.395 0 1.971-.61 8.122 1.033 8.826 1.83.798 3.896-1.127 5.07-1.596zm13.146-21.362c-3.522.892-5.071 4.366-5.681 8.31h15.727c-.281-5.493-4.131-9.86-10.046-8.31zm19.906 8.404v1.784h-25.681c.188 4.272 1.69 7.793 4.366 9.953 1.737 1.408 4.319 2.441 7.277 2.63 5.211.422 8.967-2.207 12.019-4.649.61.282.986.751 1.502 1.033-3.521 5.305-11.455 8.216-20.282 7.465-4.366-.376-8.638-2.582-10.704-5.587-1.972-2.864-2.864-7.37-2.065-11.268.563-2.723 2.253-5.305 3.99-6.995 3.193-3.099 7.747-4.554 13.333-4.836 5.963-.281 10.846 1.878 13.052 5.681 1.033 1.737 1.174 3.944 3.193 4.789zm3.802 21.831c.047.328-.047 1.174-.094 1.408-.469 2.958-.422 2.442-.845 5.07 0 .094-.234 1.362-.563 2.77.376.188.798-.563 1.08-.704.094-.047.094.188.188.235-.329.329-.986.986-1.55 1.22-.188.048-.469.048-.563-.234-.423-.376.188-3.145.516-4.93a91.28 91.28 0 00.705-3.99c-.235-.047-.752.375-.752.375-.094-.093-.187-.093-.281-.234.563-.423 1.69-.94 2.159-.986zm20.47.14h1.22a24.047 24.047 0 01-1.69 2.865h-.563c.235-1.033.751-1.785 1.033-2.864zm-45.869 1.738h.282c-.047.704-.423 1.268-.516 1.878.234 0 .328-.047.985 0v.657h-1.173a94.224 94.224 0 00-.705 4.085c-.046.281-.093.516 0 .657.564.047 1.033-.845 1.174-.892.094 0 .141.094.282.14-.563.705-1.643 1.785-2.394 1.456-.047-.047-.235-.375-.188-.61.094-1.033.657-3.334.751-4.836h-.563c0-.094 0-.375.046-.375.235 0 .376-.094.611-.33.141-.14.469-.422.704-.656.282-.329.47-.705.704-1.174zM98.263 71.98c-.282-.235-.235-.235-.657-.094-.61.517-1.127 1.69-1.174 3.005-.047.61.14 1.408.47 1.878.375.14.704.047.938-.188.704-.704 1.033-2.441.798-3.709a1.566 1.566 0 00-.375-.892zm.563-.751c.282.047.61.375.798.751.423 1.127.235 2.958-.516 3.99-.751.799-1.784 1.69-2.723 1.456-1.22-.329-1.127-2.488-.94-3.099.189-.657.236-.798.517-1.22.517-.751 1.08-1.362 1.644-1.644.234-.093.657-.328 1.22-.234zm4.601.047c.282.188 0 1.502-.187 2.91.046-.047.046 0 .093-.047.517-.61.752-1.032 1.409-1.971.892-.892 1.408-1.315 1.831-.705.094.141 0 .986-.047 1.503-.188 1.174-.517 2.535-.798 3.568 0 .094.141.047.235.047.234-.094.422-.329.938-.986 0 .047.235.188.188.188-1.033 1.408-1.878 1.972-2.347 1.549-.47-.47 1.08-4.883.657-5.164-.329-.282-2.066 2.206-2.3 2.77-.094.187-.376 1.502-.423 2.441h-1.08c.188-1.737.845-4.272.798-4.93-.14-.14-.422.423-.657.705 0 0-.328-.094-.375-.094a13.62 13.62 0 011.126-1.456c.188-.188.376-.375.564-.516.094.094.187.047.375.188zm10.611-.094c.234.094.328.094.328.422.047.61-.422 2.019-.563 3.052-.094.751 0 .563 0 .751.516-1.174 1.08-4.131 2.206-4.272.282 0 .329.047.376.14.235.33-.047.893-.188 1.127-.281 0-.61-.187-.845 0-.563.423-1.22 3.287-1.878 4.93-.375 0-.657.047-.986 0-.047-.704.705-4.131.752-4.507.046-.376.046-.61-.047-.564-.188-.281-.423.376-.658.47-.047.047-.188-.094-.234-.188.234-.14.845-1.267 1.737-1.361zm15.586 3.192c.611-.281 1.08-.47 1.503-1.032.469-.658.375-1.644-.094-1.597-.939.376-1.362 1.503-1.409 2.63zm2.583-2.816c.892 1.737-1.315 2.676-2.77 3.098-.188.892-.141 1.925.469 2.254 1.033.14 1.268-.282 1.925-.61 0 .046.188.14.141.187-1.127 1.08-2.911 1.643-3.568.329-.892-1.737.845-5.963 3.427-5.493.141.047.329.14.376.235zm37.323 1.032c-.375.188-.657.094-.798-.14-.141-.235-.328-.517-.751-.47-.282.282-.469.798-.563 1.08-.517 1.83-.798 3.662-.047 3.85.751.234 1.173-.61 1.549-.846.094-.046.188.047.329.047-1.08 1.55-2.958 1.972-3.428.564-.61-1.878 1.456-6.057 3.334-5.305.328.14.657.798.375 1.22zm-51.408 3.85c.564 0 1.362-.939 1.831-1.55.047-.046.329-1.971.423-2.628-1.596 0-2.301 1.408-2.395 2.91 0 .47.047.94.141 1.268zm3.521-5.117a82.257 82.257 0 01-.845 5.117c.047.047.094.094.141.094.235 0 .423-.47.657-.47 0 .047.141.094.094.141-.375.517-.986 1.268-1.831 1.315-.375-.47-.047-1.174 0-1.831-.375.329-1.737 1.784-2.159 1.784-.517 0-.892-.61-.751-1.784.281-2.113 1.737-4.554 4.694-4.366zm-27.23-2.817c-.188.892-.188 1.361-.422 2.394 0 0-.47.047-.47 0-.047-.563 0-.939-.14-1.314-.235-.658-.705-.892-1.41-1.127-3.661-.564-5.962 3.897-4.647 6.995 1.08 2.63 4.742 1.784 5.822-.704 0 0 .422-.047.375.047-.094.845-.516 1.69-.61 2.535-.986-.188-2.676.423-4.32.188-3.286-.423-3.896-4.695-2.112-7.183 1.737-2.348 4.742-2.817 7.934-1.831zm66.808 2.864c.281.188 0 1.502-.188 2.91.047-.046.047 0 .094-.046.516-.61.751-1.033 1.408-1.972.892-.892 1.409-1.315 1.831-.704.094.14 0 .985-.047 1.502-.187 1.174-.516 2.535-.798 3.568 0 .094.141.047.235.047.235-.094.423-.329.939-.986 0 .047.235.188.188.188-1.033 1.408-1.878 1.972-2.348 1.549-.469-.47 1.08-4.883.658-5.164-.329-.282-2.066 2.206-2.301 2.77-.094.188-.375 1.502-.422 2.441h-1.08c.188-1.737.845-4.272.798-4.93-.141-.14-.423.423-.657.705 0 0-.329-.094-.376-.094a13.64 13.64 0 011.127-1.456c.188-.188.375-.375.563-.516.141.094.188.094.376.188zm16.619-.047c.235.094.329.094.329.422.047.61-.423 2.02-.563 3.052-.094.751 0 .563 0 .751.516-1.174 1.079-4.131 2.206-4.272.282 0 .329.047.376.14.235.33 0 .893-.188 1.127-.282 0-.61-.187-.845 0-.563.423-1.221 3.287-1.878 4.93-.376 0-.657.047-.986 0-.047-.704.704-4.131.751-4.507.047-.376.047-.61-.047-.563-.188-.282-.422.375-.657.47-.047.046-.188-.095-.235-.142.235-.188.845-1.314 1.737-1.408zm-26.056-2.77c-.188.892-.188 1.361-.422 2.394 0 0-.47.047-.47 0-.047-.563 0-.939-.141-1.314-.235-.658-.704-.892-1.408-1.127-3.662-.564-5.963 3.897-4.648 6.995 1.08 2.63 4.742 1.784 5.821-.704 0 0 .423-.047.376.047-.094.845-.516 1.69-.61 2.535-.986-.188-2.676.423-4.32.188-3.286-.423-3.896-4.695-2.112-7.183 1.737-2.348 4.742-2.817 7.934-1.831zm2.348 7.981c.563 0 1.361-.939 1.831-1.55.046-.046.328-1.971.422-2.628-1.596 0-2.3 1.408-2.394 2.91 0 .47.047.94.141 1.268zm3.521-5.117a83.756 83.756 0 01-.845 5.117c.047.047.093.094.14.094.235 0 .423-.47.658-.47 0 .047.141.094.094.141-.376.517-.986 1.268-1.831 1.315-.376-.47-.047-1.174 0-1.831-.376.329-1.737 1.784-2.16 1.784-.516 0-.892-.61-.751-1.784.282-2.113 1.737-4.554 4.695-4.366zm14.694 2.911c.611-.282 1.08-.47 1.503-1.033.469-.658.375-1.644-.094-1.597-.939.423-1.362 1.55-1.409 2.63zm2.583-2.77c.892 1.737-1.315 2.676-2.77 3.098-.188.892-.141 1.925.469 2.254 1.033.14 1.268-.282 1.925-.61 0 .046.188.14.094.187-1.127 1.08-2.911 1.643-3.568.329-.892-1.737.845-5.963 3.427-5.493.188.047.376.14.423.235z"/></g><defs><clipPath id="clip0"><path fill="#fff" transform="translate(0 .572)" d="M0 0h200v78.873H0z"/></clipPath></defs></svg>