<svg width="201" height="68" viewBox="0 0 201 68" fill="none" xmlns="http://www.w3.org/2000/svg">
<g clip-path="url(#clip0)">
<path fill-rule="evenodd" clip-rule="evenodd" d="M188.081 67.5917H200.542V55.1306H188.081V67.5917ZM197.217 59.4026L197.217 59.4026C197.468 59.2789 197.718 59.1561 198.09 58.9356C198.376 59.3687 198.449 60.3648 198.459 61.1583C198.716 60.6535 199.02 58.7665 198.887 58.4236C199.282 58.1673 199.344 58.0427 199.422 57.8853C199.436 57.856 199.451 57.8256 199.469 57.793C199.364 57.8021 199.269 57.8092 199.183 57.8157C198.887 57.838 198.686 57.8531 198.491 57.9152C197.85 57.5219 196.521 57.1186 195.438 57.0347C195.773 57.1727 197.144 57.917 197.317 58.1548C196.583 58.2558 195.202 58.6717 194.504 59.0421C195.306 58.8621 196.431 58.7714 197.2 58.7349C196.898 59.1734 196.728 59.4003 196.244 59.9281C196.675 59.6699 196.947 59.5357 197.217 59.4026ZM191.332 65.0234C191.682 65.3537 191.999 65.544 192.447 65.71C191.982 65.6965 191.63 65.6352 191.217 65.5143C191.187 65.8048 191.205 66.0281 191.285 66.306C190.956 65.9794 190.753 65.6911 190.553 65.2612C190.188 65.097 189.921 64.9413 189.596 64.7388C189.827 64.6337 190.031 64.5584 190.311 64.4835C190.223 63.9818 190.25 63.5312 190.317 62.9023C190.448 63.4982 190.561 63.9191 190.816 64.3698C191.128 64.3089 191.391 64.2669 191.753 64.2155C191.556 64.5029 191.436 64.7334 191.332 65.0234ZM193.598 59.4302C193.458 59.6047 193.297 59.944 193.251 60.096C194.397 60.2548 195.317 60.8458 195.317 60.8458C194.315 60.664 193.784 60.6865 193.418 60.7199C193.041 60.7546 192.971 60.8052 192.971 60.8052C192.705 61.3925 192.539 62.4057 192.539 62.4057C192.358 61.9744 192.095 61.0903 192.095 61.0903C191.59 61.3609 190.434 62.4531 190.434 62.4531C191.071 61.1724 191.715 60.5886 191.715 60.5886C191.497 60.3649 190.912 60.2548 190.486 60.2304C190.706 60.138 191.278 60.0347 191.712 60.0193C192.146 59.9999 192.413 60.0279 192.413 60.0279C192.801 59.722 193.392 59.4599 193.598 59.4302ZM194.21 65.6593C194.432 65.4098 194.605 65.191 194.805 64.9136C194.807 64.9391 194.808 64.9638 194.81 64.9877C194.819 65.1457 194.827 65.2727 194.845 65.4184C195.212 65.2452 195.485 65.0828 195.804 64.8577C195.504 65.1599 195.243 65.413 194.882 65.6963C194.915 65.8483 194.938 65.9322 194.97 66.0495C194.832 66.0752 194.645 66.0892 194.446 66.0824C194.072 66.3062 193.553 66.4722 193.159 66.5701C193.392 66.4235 193.598 66.266 193.833 66.0423C193.598 65.9935 193.373 65.9196 193.146 65.8063C193.514 65.805 193.822 65.7644 194.21 65.6593Z" fill="white"/>
<path fill-rule="evenodd" clip-rule="evenodd" d="M123.128 60.797C123.128 61.0984 123.105 61.4002 123.105 61.6997C123.105 61.9203 123.117 62.089 123.128 62.2528C123.174 62.2591 123.413 62.2591 123.567 62.2591C124.049 62.2591 124.717 62.1264 124.717 61.5039C124.717 60.8976 124.032 60.7889 123.514 60.7889C123.448 60.7889 123.194 60.7889 123.128 60.797ZM123.948 60.16C124.938 60.16 126.136 60.437 126.136 61.5039C126.136 62.4391 125.286 62.9046 123.567 62.9046C123.463 62.9046 123.185 62.9046 123.105 62.8965C123.14 63.5353 123.134 64.3085 123.174 64.7429H121.675C121.735 64.1141 121.751 63.0778 121.751 62.3385C121.751 61.6789 121.735 60.5945 121.675 60.16H123.948ZM117.879 60.16C117.855 60.4695 117.844 60.7826 117.844 61.1051V63.289C117.844 63.8835 118.033 64.2322 118.62 64.2322C119.128 64.2322 119.626 64.0297 119.626 63.0959V60.8714C119.626 60.4063 119.616 60.3558 119.588 60.16H120.849C120.799 60.5602 120.799 61.3077 120.799 62.0502V63.3521C120.799 64.4041 120.062 64.8616 118.601 64.8616C117.277 64.8616 116.466 64.581 116.466 63.2808V61.6077C116.466 61.1764 116.447 60.4857 116.399 60.16H117.879ZM129.018 60.6283C128.358 60.6283 127.944 61.2752 127.944 62.4589C127.944 63.639 128.358 64.2728 129.018 64.2728C129.674 64.2728 130.077 63.639 130.077 62.4589C130.077 61.2752 129.674 60.6283 129.018 60.6283ZM129.018 64.8742C127.594 64.8742 126.527 63.8917 126.527 62.4589C126.527 61.0113 127.594 60.04 129.018 60.04C130.434 60.04 131.501 61.0113 131.501 62.4589C131.501 63.8917 130.434 64.8742 129.018 64.8742ZM113.299 60.16C114.302 60.16 115.496 60.5164 115.496 61.5815C115.496 62.149 115.074 62.5577 114.41 62.8203C114.547 63.0603 115.657 64.5029 115.877 64.7429H114.243C113.955 64.1948 113.402 63.2402 112.855 62.4296C113.513 62.5171 114.079 62.204 114.079 61.572C114.079 60.9639 113.384 60.7889 113.048 60.7889C112.889 60.7889 112.607 60.7889 112.499 60.797C112.477 61.3582 112.468 62.0308 112.468 62.3385C112.468 62.7327 112.468 64.0509 112.545 64.7429H111.021C111.096 64.0653 111.113 63.2547 111.113 62.3385C111.113 61.5657 111.101 60.6283 111.034 60.16H113.299ZM110.114 62.5171C110.089 62.966 110.061 63.9178 110.047 64.4659C109.554 64.7154 108.78 64.8616 108.037 64.8616C106.339 64.8616 105.252 63.7933 105.252 62.4747C105.252 61.0875 106.391 60.04 108.248 60.04C108.672 60.04 109.309 60.1082 109.757 60.2164L109.428 61.1232C109.111 60.922 108.586 60.7663 108.23 60.7663C107.162 60.7663 106.78 61.7164 106.78 62.4846C106.78 63.7653 107.468 64.1853 108.239 64.1853C108.329 64.1853 108.625 64.1754 108.722 64.1497C108.722 63.5953 108.714 62.8915 108.672 62.5171H110.114ZM181.984 60.0418C182.571 60.0418 183.139 60.1253 183.496 60.2372V61.4029C182.995 61.1146 182.503 60.8647 181.852 60.8647C181.338 60.8647 181.3 61.0726 181.3 61.2265C181.3 61.9988 183.903 62.0092 183.903 63.3968C183.903 64.295 183.062 64.8629 181.664 64.8629C181.036 64.8629 180.442 64.7366 180.037 64.5882V63.4753C180.995 63.9277 181.503 64.0748 181.946 64.0748C182.301 64.0748 182.564 63.912 182.564 63.6029C182.564 62.7273 179.97 62.8112 179.97 61.3257C179.97 60.5115 180.785 60.0418 181.984 60.0418ZM177.478 63.0454C177.299 62.6015 177.053 62.0511 176.935 61.6668C176.809 62.0597 176.534 62.6592 176.4 63.0454C176.569 63.0526 176.797 63.0612 176.952 63.0612C177.166 63.0612 177.272 63.0526 177.478 63.0454ZM177.604 60.1605C177.772 60.7023 179.283 64.0044 179.631 64.7438H178.129C178.071 64.5638 177.95 64.3175 177.731 63.7387C177.503 63.7302 177.266 63.7302 176.952 63.7302C176.646 63.7302 176.423 63.7387 176.18 63.7478C176.043 64.1253 175.924 64.424 175.814 64.7438H174.512C174.763 64.1759 176.268 60.8926 176.534 60.1605H177.604ZM171.647 60.7406C171.422 60.7406 171.204 60.7546 171.094 60.7736C171.068 61.3681 171.06 61.6577 171.06 62.3394C171.06 63.1645 171.06 63.4681 171.094 64.1253H171.755C172.535 64.1253 172.907 63.8926 172.907 63.4189C172.907 62.8915 172.425 62.6434 171.788 62.6434H171.408L171.669 61.9514H171.948C172.272 61.9514 172.702 61.7822 172.702 61.3681C172.702 60.9242 172.305 60.7406 171.647 60.7406ZM172.339 60.1605C173.184 60.1605 174.111 60.4695 174.111 61.249C174.111 61.6717 173.745 62.0597 173.204 62.2451C173.927 62.509 174.34 62.9267 174.34 63.4681C174.34 64.424 173.184 64.7438 172.101 64.7438H169.618C169.677 64.1497 169.695 63.2899 169.695 62.3394C169.695 61.7119 169.685 60.7546 169.624 60.1605H172.339ZM168.635 60.1605C168.6 60.6811 168.576 61.9059 168.576 62.3466C168.576 62.7535 168.576 64.1145 168.635 64.7438H167.127C167.204 64.05 167.21 62.7341 167.21 62.3466C167.21 61.9131 167.186 60.6811 167.154 60.1605H168.635ZM163.957 60.1605C164.955 60.1605 166.152 60.5187 166.152 61.5829C166.152 62.1508 165.728 62.5577 165.067 62.8216C165.202 63.0612 166.311 64.5043 166.532 64.7438H164.898C164.608 64.1948 164.057 63.2407 163.516 62.4305C164.168 62.5176 164.739 62.2049 164.739 61.5738C164.739 60.9662 164.042 60.7911 163.702 60.7911C163.55 60.7911 163.26 60.7911 163.158 60.7984C163.135 61.3591 163.126 62.0317 163.126 62.3394C163.126 62.7341 163.126 64.05 163.199 64.7438H161.677C161.752 64.0676 161.768 63.2551 161.768 62.3394C161.768 61.5671 161.76 60.6306 161.694 60.1605H163.957ZM158.999 63.0454C158.818 62.6015 158.571 62.0511 158.455 61.6668C158.327 62.0597 158.058 62.6592 157.92 63.0454C158.09 63.0526 158.319 63.0612 158.473 63.0612C158.682 63.0612 158.795 63.0526 158.999 63.0454ZM159.123 60.1605C159.295 60.7023 160.802 64.0044 161.149 64.7438H159.652C159.592 64.5638 159.473 64.3175 159.252 63.7387C159.024 63.7302 158.786 63.7302 158.473 63.7302C158.167 63.7302 157.946 63.7387 157.698 63.7478C157.564 64.1253 157.447 64.424 157.336 64.7438H156.032C156.286 64.1759 157.786 60.8926 158.058 60.1605H159.123ZM153.448 60.7984C153.448 61.1006 153.432 61.4029 153.432 61.7015C153.432 61.9198 153.438 62.0895 153.448 62.2537C153.499 62.2609 153.736 62.2609 153.889 62.2609C154.372 62.2609 155.043 62.1278 155.043 61.5057C155.043 60.8994 154.356 60.7911 153.837 60.7911C153.771 60.7911 153.518 60.7911 153.448 60.7984ZM154.269 60.1605C155.264 60.1605 156.458 60.4384 156.458 61.5057C156.458 62.4409 155.61 62.9055 153.889 62.9055C153.789 62.9055 153.508 62.9055 153.432 62.8988C153.464 63.5362 153.457 64.3085 153.499 64.7438H151.999C152.059 64.1145 152.074 63.0787 152.074 62.3394C152.074 61.6807 152.059 60.5954 151.999 60.1605H154.269ZM146.53 60.7984C146.53 61.1006 146.515 61.4029 146.515 61.7015C146.515 61.9198 146.523 62.0895 146.53 62.2537C146.582 62.2609 146.82 62.2609 146.972 62.2609C147.456 62.2609 148.124 62.1278 148.124 61.5057C148.124 60.8994 147.436 60.7911 146.92 60.7911C146.853 60.7911 146.598 60.7911 146.53 60.7984ZM147.352 60.1605C148.345 60.1605 149.542 60.4384 149.542 61.5057C149.542 62.4409 148.694 62.9055 146.972 62.9055C146.868 62.9055 146.592 62.9055 146.515 62.8988C146.547 63.5362 146.541 64.3085 146.582 64.7438H145.081C145.142 64.1145 145.157 63.0787 145.157 62.3394C145.157 61.6807 145.142 60.5954 145.081 60.1605H147.352ZM144.022 60.1605C143.98 60.6811 143.954 61.8869 143.954 62.3394C143.954 62.7535 143.963 64.1145 144.022 64.7438H142.946L141.217 62.1873C141.071 61.9812 140.969 61.7822 140.931 61.558V63.0102C140.931 63.5646 140.946 64.3486 140.996 64.7438H139.765C139.842 64.05 139.85 62.7341 139.85 62.3394C139.85 61.9058 139.827 60.6811 139.792 60.1605H141.19L142.65 62.5437C142.724 62.6592 142.753 62.7183 142.785 62.8216V60.1605H144.022ZM136.292 60.7406C136.069 60.7406 135.85 60.7546 135.74 60.7736C135.715 61.3681 135.705 61.6577 135.705 62.3394C135.705 63.1645 135.705 63.4681 135.74 64.1253H136.402C137.182 64.1253 137.551 63.8926 137.551 63.4189C137.551 62.8915 137.071 62.6434 136.435 62.6434H136.054L136.318 61.9514H136.595C136.916 61.9514 137.349 61.7822 137.349 61.3681C137.349 60.9242 136.95 60.7406 136.292 60.7406ZM136.985 60.1605C137.833 60.1605 138.759 60.4695 138.759 61.249C138.759 61.6717 138.394 62.0597 137.849 62.2451C138.573 62.509 138.987 62.9267 138.987 63.4681C138.987 64.424 137.833 64.7438 136.748 64.7438H134.263C134.325 64.1497 134.342 63.2899 134.342 62.3394C134.342 61.7119 134.334 60.7546 134.273 60.1605H136.985Z" fill="white"/>
<path fill-rule="evenodd" clip-rule="evenodd" d="M117.406 45.4953C115.748 45.4953 114.404 44.1474 114.404 42.4837V3.41324C114.404 1.74954 115.748 0.401611 117.406 0.401611C119.065 0.401611 120.408 1.74954 120.408 3.41324V42.4837C120.408 44.1474 119.065 45.4953 117.406 45.4953Z" fill="white"/>
<path fill-rule="evenodd" clip-rule="evenodd" d="M200.83 26.3576C200.813 19.6567 195.375 14.1956 188.692 14.1956C185.048 14.1956 181.783 15.8223 179.556 18.381C177.329 15.8223 174.064 14.1956 170.42 14.1956C163.732 14.1956 158.29 19.6567 158.282 26.3652L158.281 42.484C158.281 44.1472 159.625 45.4951 161.283 45.4951C162.941 45.4951 164.285 44.1472 164.285 42.484V26.3765C164.285 22.9837 167.038 20.2184 170.42 20.2184C173.803 20.2184 176.555 22.9837 176.555 26.3765L176.555 42.484C176.555 44.1472 177.899 45.4951 179.557 45.4951C181.215 45.4951 182.559 44.1472 182.559 42.484V26.3711C182.56 22.9805 185.311 20.2184 188.692 20.2184C192.074 20.2184 194.827 22.9878 194.827 26.3806L194.828 42.484C194.828 44.1472 196.172 45.4951 197.83 45.4951C199.489 45.4951 200.832 44.1472 200.832 42.484L200.83 26.3576Z" fill="white"/>
<path fill-rule="evenodd" clip-rule="evenodd" d="M76.7804 39.4721C73.3985 39.4721 70.9532 36.7118 70.9532 33.3189V20.2696H77.1856C78.6969 20.2696 79.9218 19.0408 79.9218 17.5246C79.9218 16.0079 78.6969 14.7795 77.1856 14.7795H70.9532V8.06562C70.9532 6.40237 69.6096 5.05444 67.9512 5.05444C66.2933 5.05444 64.9492 6.40237 64.9492 8.06562V33.3189C64.9492 40.0328 70.0871 45.4954 76.7804 45.4954C78.4388 45.4954 79.7829 44.147 79.7829 42.4837C79.7829 40.82 78.4388 39.4721 76.7804 39.4721Z" fill="white"/>
<path fill-rule="evenodd" clip-rule="evenodd" d="M130.468 27.1454C131.23 22.6537 135.394 19.4607 139.866 19.4607C144.63 19.4607 148.287 23.5158 148.966 27.1454H130.468ZM154.654 28.5651C154.654 19.9696 147.008 14.1953 139.866 14.1953C131.297 14.1953 124.324 21.1898 124.324 29.7871C124.324 38.7422 131.131 45.4954 140.156 45.4954C144.942 45.4954 148.52 43.7717 150.211 42.7535C151.014 42.2816 151.681 41.3194 151.681 40.2363C151.681 38.8599 150.572 37.5458 148.94 37.5458C148.466 37.5458 147.879 37.7254 147.413 37.9595C145.562 38.9908 143.067 40.1136 140.156 40.1136C135.508 40.1136 131.426 37.2973 130.472 32.635H150.888C152.894 32.635 154.654 30.7336 154.654 28.5651Z" fill="white"/>
<path fill-rule="evenodd" clip-rule="evenodd" d="M37.1341 27.1454C37.8954 22.6537 42.0602 19.4607 46.5326 19.4607C51.2964 19.4607 54.9531 23.5158 55.6321 27.1454H37.1341ZM61.3199 28.5651C61.3199 19.9696 53.6738 14.1953 46.5321 14.1953C37.9628 14.1953 30.9907 21.1898 30.9907 29.7871C30.9907 38.7422 37.7969 45.4954 46.8226 45.4954C51.608 45.4954 55.186 43.7717 56.8772 42.7535C57.6803 42.2816 58.3472 41.3194 58.3472 40.2363C58.3472 38.8599 57.2378 37.5458 55.606 37.5458C55.132 37.5458 54.5448 37.7254 54.0785 37.9595C52.2281 38.9908 49.7324 40.1136 46.8222 40.1136C42.174 40.1136 38.0923 37.2973 37.1381 32.635H57.5539C59.5604 32.635 61.3199 30.7336 61.3199 28.5651Z" fill="white"/>
<path fill-rule="evenodd" clip-rule="evenodd" d="M86.7776 27.1454C87.5394 22.6537 91.7037 19.4607 96.1761 19.4607C100.94 19.4607 104.597 23.5158 105.276 27.1454H86.7776ZM110.963 28.5651C110.963 19.9696 103.317 14.1953 96.1761 14.1953C87.6068 14.1953 80.6343 21.1898 80.6343 29.7871C80.6343 38.7422 87.4409 45.4954 96.4662 45.4954C101.252 45.4954 104.83 43.7717 106.521 42.7535C107.324 42.2816 107.991 41.3194 107.991 40.2363C107.991 38.8599 106.882 37.5458 105.25 37.5458C104.776 37.5458 104.189 37.7254 103.722 37.9595C101.872 38.9908 99.3764 40.1136 96.4662 40.1136C91.8175 40.1136 87.7359 37.2973 86.7821 32.635H107.197C109.203 32.635 110.963 30.7336 110.963 28.5651Z" fill="white"/>
<mask id="mask0" mask-type="alpha" maskUnits="userSpaceOnUse" x="0" y="14" width="29" height="32">
<path d="M0.853516 14.1953H28.3271V45.4954H0.853516V14.1953Z" fill="white"/>
</mask>
<g mask="url(#mask0)">
<path fill-rule="evenodd" clip-rule="evenodd" d="M16.429 45.4954C12.4386 45.4954 8.4478 43.971 5.4103 40.9184C-0.666062 34.8157 -0.666062 24.8844 5.4103 18.7813C8.35247 15.8243 12.2659 14.1953 16.4285 14.1953C20.5911 14.1953 24.5045 15.8243 27.4476 18.7813C28.6199 19.9592 28.6199 21.8687 27.4472 23.0453C26.2749 24.2231 24.3741 24.2231 23.2023 23.0453C21.3928 21.2277 18.9871 20.2276 16.4285 20.2276C13.8703 20.2276 11.4642 21.2277 9.65561 23.0453C5.92022 26.7967 5.92022 32.903 9.65561 36.6544C13.3914 40.405 19.4678 40.405 23.2023 36.6544C24.375 35.4766 26.2749 35.4766 27.4476 36.6544C28.6199 37.8327 28.6199 39.7423 27.4472 40.9184C24.4092 43.971 20.4189 45.4954 16.429 45.4954Z" fill="white"/>
</g>
<path fill-rule="evenodd" clip-rule="evenodd" d="M26.1394 55.6366H5.44521C3.93388 55.6366 2.70898 54.4082 2.70898 52.8915C2.70898 51.3754 3.93388 50.147 5.44521 50.147H26.1394C27.6503 50.147 28.8756 51.3754 28.8756 52.8915C28.8756 54.4082 27.6503 55.6366 26.1394 55.6366Z" fill="white"/>
</g>
<defs>
<clipPath id="clip0">
<rect width="200" height="67.2897" fill="white" transform="translate(0.853516 0.301758)"/>
</clipPath>
</defs>
</svg>
