<svg width="200" height="36" fill="none" xmlns="http://www.w3.org/2000/svg"><path d="M198.296 20.602c-1.136-1.08-3.05-1.928-5.741-2.546l-1.305-.294c-.786-.169-1.318-.35-1.598-.548a.892.892 0 01-.421-.756c0-.449.252-.778.757-.988.506-.21 1.221-.315 2.146-.315.5.004 1 .045 1.494.124.546.085 1.085.19 1.617.316.534.127 1.025.267 1.473.421.352.11.69.259 1.011.442.375-.322.682-.715.904-1.157a3.582 3.582 0 00.358-1.662 2.71 2.71 0 00-.589-1.745 4.294 4.294 0 00-1.599-1.2 9.577 9.577 0 00-2.377-.694 17.655 17.655 0 00-2.923-.231 14.388 14.388 0 00-3.766.462 9.478 9.478 0 00-2.923 1.305 5.8 5.8 0 00-2.565 4.922c0 1.907.595 3.372 1.787 4.394 1.192 1.026 3.008 1.777 5.447 2.253l1.261.252c.786.14 1.347.323 1.683.546a1.06 1.06 0 01.505.927c0 .42-.23.756-.694 1.009-.463.253-1.129.377-1.998.377-1.374 0-2.587-.175-3.639-.525a16.796 16.796 0 01-2.798-1.199 4.288 4.288 0 00-1.009 1.157c-.28.462-.42 1.03-.42 1.704-.016.682.199 1.35.61 1.894a4.61 4.61 0 001.682 1.324c.715.351 1.578.611 2.588.78 1.085.174 2.183.258 3.282.252 3.113 0 5.468-.604 7.066-1.811 1.6-1.204 2.399-2.872 2.398-5.006 0-1.71-.568-3.104-1.704-4.184zm-21.859-7.826a10.19 10.19 0 00-3.47-2.186c-1.346-.52-2.846-.78-4.501-.78-1.655.001-3.155.254-4.501.757a9.895 9.895 0 00-3.471 2.169 9.635 9.635 0 00-2.251 3.428c-.534 1.346-.8 2.846-.8 4.5 0 1.683.267 3.197.8 4.543a9.617 9.617 0 002.251 3.428 9.895 9.895 0 003.471 2.169c1.345.504 2.845.757 4.501.757 1.654 0 3.154-.24 4.501-.717a9.553 9.553 0 003.47-2.103 9.459 9.459 0 002.252-3.428c.532-1.361.798-2.91.798-4.648 0-1.627-.266-3.113-.798-4.46a9.712 9.712 0 00-2.252-3.429zm-5.216 11.8c-.631.925-1.536 1.388-2.715 1.39-1.176 0-2.096-.456-2.753-1.367-.661-.913-.991-2.225-.989-3.934 0-1.684.322-2.981.966-3.892.646-.91 1.558-1.366 2.736-1.368 1.177 0 2.089.456 2.734 1.368.643.913.966 2.21.967 3.892 0 1.682-.315 2.985-.946 3.911zm-17.185 6.649V17.477a9.714 9.714 0 00-.063-1.078V6.445c0-.7-.083-1.27-.25-1.702a2.284 2.284 0 00-.758-1.032 2.854 2.854 0 00-1.24-.506 10 10 0 00-1.664-.125 11.914 11.914 0 00-1.892.148 11.15 11.15 0 00-1.346.273v6.52a17.935 17.935 0 00-2.868-.241v.02h-.014a14.728 14.728 0 00-2.282.173c-.71.104-1.411.268-2.094.49a9.576 9.576 0 00-3.49 1.998 9.184 9.184 0 00-2.334 3.386c-.562 1.362-.842 2.968-.842 4.818 0 1.682.259 3.189.778 4.522a9.399 9.399 0 002.273 3.43c.994.952 2.214 1.682 3.659 2.187 1.445.505 3.079.757 4.901.757.673 0 1.346-.04 2.015-.117h.004c.203-.024.405-.049.602-.08h.007l.033-.007a13.066 13.066 0 002.824-.751c-.001 0 2.092.817 4.041.619zm-7.17-6.06c-.283.23-.604.408-.948.526-.199.075-.405.13-.614.167a4.39 4.39 0 01-.689.054c-1.369 0-2.419-.416-3.17-1.223-.035-.037-.079-.063-.112-.102-.758-.884-1.136-2.195-1.135-3.934a7.884 7.884 0 01.281-2.204c.202-.704.51-1.292.938-1.75.602-.643 1.396-1.048 2.382-1.215a6.884 6.884 0 011.046-.079c.786 0 1.457.17 2.021.505v9.256zm-21.458 5.434s2.092.817 4.044.619V17.472c0-1.319-.239-2.461-.715-3.428a6.359 6.359 0 00-2.042-2.398c-.882-.632-1.947-1.102-3.196-1.411-.38-.094-.795-.146-1.199-.21a18.259 18.259 0 00-2.932-.252v.022l-.014-.001a13.858 13.858 0 00-4.311.652 9.634 9.634 0 00-3.493 1.998c-.092.085-.174.181-.262.268a9.277 9.277 0 00-2.07 3.12c-.564 1.36-.844 2.965-.842 4.816 0 1.683.26 3.19.778 4.521a9.488 9.488 0 002.271 3.43c.995.953 2.215 1.682 3.661 2.188 1.024.346 2.085.569 3.161.664.388.026.778.052 1.183.063.188.007.363.031.555.031.858.002 1.716-.06 2.565-.186a12.674 12.674 0 001.896-.426c.337-.106.655-.217.962-.332v-.002zm-3.066-5.45c-.282.23-.602.407-.946.524-.438.16-.901.24-1.367.233-1.369 0-2.419-.417-3.17-1.222-.035-.038-.079-.063-.112-.103-.758-.883-1.137-2.195-1.136-3.934a7.997 7.997 0 01.282-2.203c.202-.705.51-1.294.937-1.75.815-.87 1.979-1.304 3.493-1.304.179 0 .359.01.537.03.523.049 1.028.21 1.482.475v9.253zM101.339.976c-1.178 0-2.124.365-2.839 1.095-.716.73-1.074 1.626-1.073 2.691 0 1.066.358 1.964 1.073 2.694.715.729 1.661 1.093 2.839 1.092 1.177 0 2.124-.365 2.84-1.092.714-.73 1.071-1.629 1.071-2.694 0-1.064-.357-1.961-1.071-2.69-.717-.731-1.664-1.097-2.84-1.096zm2.525 10.012a2.856 2.856 0 00-1.244-.504 9.938 9.938 0 00-1.661-.127c-.612 0-1.224.05-1.83.15a71.12 71.12 0 00-1.366.231v17.12c0 .702.09 1.27.273 1.704.162.408.431.764.779 1.031.368.264.793.437 1.24.505a9.98 9.98 0 001.663.125c.612 0 1.224-.049 1.829-.148a78.482 78.482 0 001.367-.231v-17.12c0-.701-.092-1.27-.275-1.705a2.44 2.44 0 00-.775-1.03zM92.48 3.711a2.86 2.86 0 00-1.24-.506 9.966 9.966 0 00-1.663-.125c-.613 0-1.225.049-1.83.148a75.89 75.89 0 00-1.367.231v24.399c0 .702.09 1.27.273 1.704.161.408.43.764.777 1.031.369.264.794.437 1.242.505.55.088 1.105.13 1.66.125.614 0 1.227-.049 1.832-.148a83.169 83.169 0 001.367-.231V6.445c0-.7-.092-1.27-.273-1.702a2.44 2.44 0 00-.779-1.032zM78.599.976c-1.178 0-2.124.365-2.84 1.095-.717.73-1.074 1.626-1.073 2.691 0 1.066.357 1.964 1.073 2.694.715.729 1.661 1.093 2.84 1.092 1.178 0 2.125-.365 2.84-1.092.715-.73 1.072-1.629 1.071-2.694 0-1.064-.357-1.961-1.071-2.69-.717-.731-1.663-1.097-2.84-1.096zm2.524 10.012a2.84 2.84 0 00-1.242-.504 9.962 9.962 0 00-1.66-.127c-.614 0-1.226.05-1.83.15a73.46 73.46 0 00-1.367.231v17.12c0 .702.09 1.27.273 1.704.162.408.431.764.78 1.031a2.85 2.85 0 001.24.505c.548.088 1.104.13 1.66.125a11.3 11.3 0 001.831-.148 81.588 81.588 0 001.367-.231v-17.12c0-.701-.092-1.27-.275-1.705a2.45 2.45 0 00-.777-1.03zm-12.934.569a7.994 7.994 0 00-2.736-1.325 11.805 11.805 0 00-3.132-.421c-1.49 0-2.759.182-3.81.546a12.483 12.483 0 00-2.837 1.39 8.346 8.346 0 00-2.882-1.451 12.03 12.03 0 00-3.386-.485 15.494 15.494 0 00-4.439.63c-1.417.422-2.602.969-3.554 1.643-.51.342-.958.768-1.326 1.26-.323.449-.484 1.053-.483 1.81v12.704c0 .703.09 1.27.275 1.704.16.408.428.764.775 1.032.369.263.794.436 1.242.504.55.088 1.106.13 1.663.125.626.001 1.25-.04 1.871-.125a9.77 9.77 0 001.325-.254V16.08c.3-.164.61-.312.925-.443a3.356 3.356 0 011.305-.231c.729 0 1.352.19 1.871.568.52.378.78.988.78 1.83v10.054c0 .703.09 1.27.272 1.704.163.408.432.764.78 1.032.367.264.792.436 1.24.504.549.088 1.104.13 1.66.125.613 0 1.225-.041 1.832-.125a11.7 11.7 0 001.367-.254V16.562a1.25 1.25 0 00-.044-.315 3.654 3.654 0 011.012-.567 3.34 3.34 0 011.26-.274c.813 0 1.458.19 1.935.568.476.378.714.988.714 1.83v10.054c0 .703.093 1.27.275 1.704.162.407.43.764.778 1.032a2.88 2.88 0 001.242.504c.55.088 1.105.13 1.662.125a13.65 13.65 0 001.872-.125 9.557 9.557 0 001.323-.254v-13.25c0-1.43-.238-2.643-.715-3.639a6.39 6.39 0 00-1.912-2.398zM31.635 30.606s2.094.817 4.043.619V17.479c0-1.319-.238-2.461-.714-3.428a6.349 6.349 0 00-2.04-2.399c-.884-.63-1.95-1.101-3.197-1.41-.38-.094-.795-.146-1.2-.21-.97-.163-1.95-.247-2.933-.252v.022l-.012-.001a13.866 13.866 0 00-4.312.652 9.613 9.613 0 00-3.492 1.998c-.092.085-.174.18-.262.268a9.272 9.272 0 00-2.072 3.12c-.562 1.36-.842 2.965-.842 4.816 0 1.683.26 3.19.778 4.521a9.517 9.517 0 002.273 3.43c.995.953 2.215 1.682 3.66 2.188a13.61 13.61 0 003.163.664c.387.026.777.052 1.182.063.186.006.362.03.555.03.858.003 1.715-.06 2.563-.185a12.624 12.624 0 001.896-.426c.337-.106.658-.217.962-.332v-.002zm-3.065-5.45a3.07 3.07 0 01-.946.524c-.438.16-.902.24-1.368.233-1.367 0-2.418-.417-3.169-1.222-.035-.038-.078-.064-.111-.103-.759-.883-1.137-2.195-1.136-3.934a7.959 7.959 0 01.28-2.203c.203-.705.511-1.294.939-1.75.812-.87 1.976-1.304 3.492-1.304.18 0 .36.01.538.03a3.63 3.63 0 011.482.475v9.253zM13.387 1.818c-.706-.447-1.974-.91-4.048-.91a13.864 13.864 0 00-3.64.463 8.287 8.287 0 00-2.965 1.45A7.036 7.036 0 00.736 5.346C.246 6.37 0 8.03 0 9.459v25.67s1.36.002 2.342 0c.982-.001 2.803-.482 3.751-1.484.949-1.002 1.056-2.144 1.058-3.18.002-1.036 0-12.727 0-12.727s1.835.007 2.53 0c.68-.019 1.33-.29 1.82-.762.41-.42.87-1.067.928-1.951.058-.884-.022-1.261-.097-1.793a8.648 8.648 0 00-.305-1.224H6.772V9.711c0-1.008.337-1.717 1.01-2.125.673-.405 1.613-.608 2.82-.609.756 0 1.508.136 2.084.235a26.77 26.77 0 011.574.356c.193-.418.35-.852.47-1.297.157-.634.332-1.644.13-2.549-.201-.904-.767-1.457-1.473-1.904z" fill="#fff"/></svg>