<svg width="528" height="278" fill="none" xmlns="http://www.w3.org/2000/svg"><path fill="#008168" d="M0 0h528v278H0z"/><path d="M298.348 142.996c-4.099 0-8.199.039-12.298 0-.955 0-1.791.199-2.587.756-3.423 2.388-6.846 4.736-10.269 7.084-.955.637-1.95 1.354-3.104.796-1.115-.557-.916-1.791-.956-2.825-.199-3.702.08-7.403-.238-11.065-.08-1.115-.438-1.95-1.155-2.786-9.393-11.144-7.243-28.617 4.577-36.975 3.344-2.388 7.125-3.781 11.304-3.781 8.915-.04 17.871-.16 26.786 0 10.587.199 20.338 9.552 21.453 20.099.796 7.483-.359 14.368-5.214 20.299-4.299 5.293-9.99 8.159-16.836 8.358-3.781.119-7.602.04-11.463.04zm13.533-30.647c-.359-1.314-1.194-2.149-2.388-2.707-.956-.477-1.632-.318-2.468.438-6.09 5.453-13.731 5.373-20.02-.119-1.075-.916-2.826-.637-3.901.796-.796 1.074-1.393 2.069.08 3.383 5.294 4.657 5.294 12.139 0 16.836-1.592 1.393-.796 2.467.08 3.502 1.194 1.433 2.746 1.592 3.86.557 5.891-5.373 14.01-5.373 19.861 0 1.114 1.035 2.587.836 3.861-.517 1.114-1.154 1.114-2.07-.199-3.264-5.851-5.293-5.692-12.537.318-17.592.398-.438.955-.676.916-1.313zm-14.687-1.632c3.622-.04 6.527-2.706 6.567-6.01 0-3.383-2.985-6.05-6.766-6.01-3.542.04-6.647 2.866-6.607 6.01 0 3.304 3.105 6.05 6.806 6.01zm-94.766 59.621c-3.304 0-6.607.08-9.911-.04-1.791-.039-1.631.558-.915 1.752 2.706 4.457 8.876 6.049 13.373 3.383.518-.319.955-.677 1.473-.995 1.512-.916 3.383-.637 4.258.636.916 1.314.558 3.025-.835 4.219-4.776 4.02-12.936 4.378-18.388.876-6.329-4.1-8.796-11.304-6.209-18.109 2.467-6.528 9.631-10.667 16.716-9.632 7.721 1.114 12.577 5.85 13.771 13.373.478 3.104-.676 4.497-3.781 4.497-3.224.04-6.368.04-9.552.04zm6.726-5.851c-1.393-3.781-4.736-6.288-8.597-6.408-3.98-.119-7.164 1.513-9.234 5.055-.398.677-.756 1.353.597 1.353h17.234zm34.508-8.955v-6.806c0-1.791 1.114-2.626 2.746-2.825 1.592-.199 3.184.995 3.224 2.547 0 7.124.756 14.328-.239 21.373-1.672 11.622-16 16.876-25.234 9.632-5.214-4.1-7.283-10.468-5.333-16.398 1.91-5.97 7.522-10.189 13.93-10.587 3.821-.279 7.363.637 10.906 3.064zm-9.752 21.254c5.334 0 9.752-4.298 9.712-9.433-.04-4.935-4.577-9.194-9.791-9.233-5.294 0-9.672 4.298-9.632 9.472.04 5.174 4.338 9.234 9.711 9.194zm93.851-24.436c8.796-.04 15.761 6.527 15.881 15.005.119 8.239-6.926 15.283-15.443 15.323-9.035.04-16.159-6.487-16.199-14.846-.04-8.875 6.647-15.442 15.761-15.482zm-.04 24.358c5.334 0 9.672-4.099 9.672-9.194 0-5.055-4.378-9.353-9.592-9.393-5.134-.04-9.711 4.338-9.751 9.274 0 5.054 4.418 9.313 9.671 9.313zm-46.089-9.156v11.503c0 1.592-.398 2.945-2.07 3.422-1.552.478-2.905 0-3.661-1.512-.598-1.194-1.155-.358-1.712-.08-6.806 3.423-14.726 1.672-19.184-4.258-1.99-2.627-2.786-5.652-2.826-8.916-.04-3.821-.04-7.681 0-11.502 0-2.508 1.194-3.941 3.184-3.901 1.911.04 2.985 1.393 2.985 3.861 0 3.98-.04 7.92 0 11.9.04 4.936 3.582 8.597 8.398 8.637 4.975.08 8.717-3.462 8.836-8.438.08-4.099.04-8.199.04-12.298 0-2.309 1.114-3.662 2.945-3.702 1.99-.039 3.105 1.274 3.105 3.702 0 3.9-.04 7.721-.04 11.582zm18.627-15.204c3.542-.08 6.766.955 9.552 3.184 1.711 1.353 2.07 3.025 1.035 4.458-1.075 1.472-2.906 1.671-4.737.358-2.427-1.711-5.014-2.587-8-1.91-3.82.875-6.487 3.064-7.403 6.845-.955 3.901.279 7.244 3.583 9.592 3.303 2.309 6.845 2.548 10.467.637.637-.318 1.194-.836 1.831-1.194 1.512-.875 3.383-.517 4.259.756.875 1.314.557 3.025-.836 4.219-4.935 4.179-13.095 4.538-18.707.876-5.771-3.781-8.318-10.428-6.487-16.876 1.871-6.408 7.96-10.905 14.846-10.945h.597z" fill="#fff"/></svg>