<svg width="528" height="278" viewBox="0 0 528 278" fill="none" xmlns="http://www.w3.org/2000/svg">
<rect width="528" height="278" fill="#1CABE2"/>
<path d="M336.156 115C325.776 115 317.227 123.386 317.227 133.929C317.227 144.31 325.613 152.859 336.156 152.859C346.537 152.859 355.086 144.473 355.086 133.929C355.086 123.386 346.537 115 336.156 115ZM350.812 123.386C349.875 123.997 348.817 124.607 347.758 125.218C347.148 123.997 346.374 122.775 345.479 121.717C346.252 121.269 347.026 120.658 347.636 120.17C348.98 120.943 350.038 122.165 350.812 123.386ZM342.873 117.158C344.42 117.768 345.764 118.542 347.148 119.6C346.537 120.211 345.764 120.658 344.99 121.147C344.054 120.089 342.995 119.152 341.937 118.257C342.263 117.768 342.588 117.443 342.873 117.158ZM344.42 121.432C343.362 122.043 342.263 122.368 341.204 122.816C340.757 121.758 340.268 120.658 339.657 119.763C340.268 119.437 340.879 119.152 341.326 118.704C342.426 119.437 343.484 120.333 344.42 121.432ZM342.1 116.832C341.774 117.158 341.489 117.443 341.326 117.768C340.268 117.158 339.332 116.547 338.11 116.099C339.535 116.058 340.879 116.384 342.1 116.832ZM340.757 118.216C340.309 118.542 339.82 118.827 339.372 118.989C338.762 118.053 338.151 117.32 337.541 116.384C338.599 116.832 339.657 117.443 340.757 118.216ZM336.441 116.547C337.215 117.32 337.826 118.216 338.436 119.315C337.826 119.478 337.215 119.641 336.441 119.641V116.547ZM336.441 120.333C337.215 120.333 338.11 120.17 338.884 119.885C339.495 120.821 339.942 121.88 340.431 122.938C339.21 123.264 337.826 123.386 336.441 123.549V120.333ZM335.709 116.547V119.6C335.098 119.6 334.487 119.437 333.714 119.274C334.487 118.379 335.098 117.443 335.709 116.547ZM333.103 118.989C332.656 118.827 332.045 118.542 331.719 118.216C332.778 117.605 333.877 116.995 334.935 116.547C334.162 117.28 333.551 118.053 333.103 118.989ZM334.162 115.936C333.103 116.384 332.004 116.995 330.946 117.605C330.62 117.28 330.335 116.995 330.172 116.669C331.434 116.384 332.778 116.058 334.162 115.936ZM347.148 148.3C344.705 146.915 344.542 144.921 344.705 144.31C344.868 143.537 345.316 143.862 345.642 143.862C347.311 143.862 349.02 143.414 351.137 141.094C353.58 138.652 354.353 133.156 350.527 129.655C346.537 125.828 342.263 126.439 339.535 129.981C338.925 130.754 337.541 131.202 336.482 131.202C334.65 131.202 335.872 132.586 335.872 132.871C335.872 133.197 335.546 133.319 335.424 133.319C334.813 133.156 335.098 134.092 335.098 134.255C335.098 134.418 334.772 134.703 334.772 134.703C333.999 134.703 334.162 135.314 334.325 135.639C334.325 135.802 334.325 136.087 333.999 136.25C333.673 136.413 333.551 137.023 333.551 137.471C333.551 138.245 334.325 138.855 335.546 139.751C336.767 140.687 336.93 141.583 336.93 142.193C336.93 142.804 337.093 143.862 337.256 144.473C337.581 145.246 337.581 146.753 335.872 146.753C333.714 146.915 330.05 148.422 329.765 148.584C328.544 149.032 326.997 149.195 325.776 148.91C325.165 148.462 324.555 147.974 323.944 147.363C323.618 146.59 324.107 145.694 324.555 145.084C325.328 145.857 326.224 145.694 326.834 145.694C327.445 145.694 330.213 145.246 330.661 145.084C331.109 144.921 331.271 144.921 331.434 145.084C332.493 145.531 334.04 145.531 334.65 143.537C335.261 141.379 333.877 141.99 333.592 142.153C333.429 142.315 333.144 142.153 333.266 141.99C333.592 141.542 333.103 141.542 332.94 141.542C332.33 141.542 331.556 142.153 331.394 142.315C331.068 142.478 330.946 142.478 330.783 142.478C330.009 142.03 327.73 142.641 326.956 141.42C326.956 141.094 326.346 136.087 326.02 135.151C326.02 134.988 325.857 134.703 326.183 134.377C326.794 133.441 328.34 134.377 329.236 134.377C330.294 134.377 330.457 133.929 330.783 133.604C331.109 133.278 331.231 133.441 331.394 133.278C331.556 133.115 331.394 132.952 331.394 132.83C331.394 132.708 331.556 132.83 331.719 132.667C331.882 132.505 331.719 132.22 331.719 132.057C332.045 131.609 332.656 131.894 332.33 130.998C332.167 130.388 332.493 129.777 332.778 129.451C333.225 128.841 335.22 126.073 331.841 123.182C328.625 120.414 325.287 120.74 323.13 123.02C320.972 125.299 322.071 128.678 322.193 129.574C322.356 130.51 321.746 131.243 320.972 131.568C320.362 131.894 318.978 132.79 318.082 133.563C318.245 126.236 322.682 119.804 329.399 117.239C329.725 117.565 330.009 118.012 330.335 118.297C329.562 118.908 327.893 120.292 327.893 120.292C327.893 120.292 328.055 120.292 328.34 120.455C328.503 120.455 328.788 120.618 328.788 120.618C328.788 120.618 330.172 119.397 330.946 118.949C331.394 119.397 332.004 119.722 332.615 120.007C332.289 120.618 331.394 122.165 331.394 122.165C331.394 122.165 331.556 122.328 331.719 122.328C331.882 122.49 332.045 122.49 332.045 122.49C332.045 122.49 332.981 120.821 333.266 120.211C334.04 120.536 334.813 120.658 335.546 120.658V123.712C335.098 123.712 333.999 123.712 333.551 123.549H333.225L333.388 123.874C333.551 124.037 333.551 124.2 333.714 124.322H335.546V129.981H336.319V128.597C337.541 128.597 338.477 128.434 339.535 128.271L340.594 127.335H339.983C338.762 127.497 337.703 127.66 336.767 127.66H336.319V124.159C337.703 124.159 339.21 123.997 340.594 123.549C340.919 124.485 341.652 126.765 341.652 126.765L342.426 126.439C342.426 126.439 341.652 124.159 341.367 123.223C342.588 122.897 343.647 122.287 344.746 121.839C345.682 122.897 346.415 124.119 347.026 125.34C346.415 125.666 345.479 125.951 345.479 125.951C346.252 126.113 346.863 126.276 346.863 126.276C346.863 126.276 347.188 126.113 347.311 126.113C347.311 126.276 347.473 126.561 347.473 126.561L348.532 127.009L348.369 126.683C348.369 126.683 348.043 125.91 347.921 125.747C348.98 125.299 350.079 124.689 351.137 123.915C353.132 126.805 354.027 130.347 354.027 133.848C354.312 139.751 351.422 144.921 347.148 148.3Z" fill="black"/>
<path d="M315.558 120.048L315.232 120.374C314.174 121.31 311.568 123.875 312.016 126.806V126.968L312.179 127.579L312.505 127.253C314.051 125.869 315.273 123.427 315.721 120.699L315.883 119.926L315.558 120.048Z" fill="black"/>
<path d="M310.346 124.933L310.184 125.258C310.021 125.706 309.736 126.805 309.573 128.027C309.247 129.858 309.41 132.627 310.957 134.581L311.283 135.191L311.608 133.97C311.934 131.812 311.446 127.416 310.672 125.421L310.346 124.811V124.933Z" fill="black"/>
<path d="M308.515 132.546V132.871C308.352 134.703 308.515 139.425 312.341 142.031L312.789 142.356V141.746C312.789 139.914 310.632 134.581 309.125 132.749L308.678 132.139L308.515 132.546Z" fill="black"/>
<path d="M309.126 140.972V141.298C309.737 144.066 312.179 148.34 316.169 149.684L316.779 149.847L316.616 149.236C315.843 147.241 312.016 142.519 309.574 140.972L309.126 140.646V140.972Z" fill="black"/>
<path d="M317.227 124.161L316.779 124.324C313.888 126.156 312.504 128.313 312.504 131.041V131.651L312.952 131.326C314.499 129.941 316.616 126.603 317.064 124.772L317.227 123.998V124.161Z" fill="black"/>
<path d="M315.395 129.98L315.232 130.305C314.458 131.079 312.016 133.684 312.179 136.859C312.179 137.307 312.342 137.918 312.504 138.406L312.667 138.854L312.993 138.406C314.214 136.737 315.761 132.463 315.598 130.468V129.857L315.395 129.98Z" fill="black"/>
<path d="M315.557 135.639L315.394 135.965C314.173 137.797 313.562 139.629 313.562 141.461C313.562 142.682 314.01 143.903 314.784 145.124L315.109 145.572L315.272 145.124C315.72 144.066 316.209 140.85 316.209 138.245C316.209 137.308 316.046 136.576 315.883 136.087L315.72 135.477L315.557 135.639Z" fill="black"/>
<path d="M316.901 141.582L316.738 141.908C316.412 143.129 316.127 144.187 316.29 145.409C316.29 147.851 317.511 149.846 319.669 151.23L319.994 151.393L320.157 150.945V150.497C320.157 148.503 318.61 143.333 317.389 141.786L317.063 141.338L316.901 141.582Z" fill="black"/>
<path d="M312.79 149.52L312.953 149.846C314.5 152.451 317.227 155.952 322.275 155.057H322.723L322.397 154.731C321.461 153.347 315.354 149.846 313.238 149.52L312.627 149.357L312.79 149.52Z" fill="black"/>
<path d="M320.28 156.239L319.506 156.402L320.28 156.727C323.496 158.112 327.444 158.397 329.887 157.664C330.823 157.338 331.271 156.89 331.882 156.28C335.993 156.727 339.82 160.106 342.1 162.834L342.262 162.997H342.425C342.751 162.834 343.036 162.549 343.199 162.386L343.361 162.223L343.199 162.06C340.919 159.007 337.255 157.175 337.092 157.012C333.714 155.466 327.892 154.244 320.28 156.239Z" fill="black"/>
<path d="M320.442 147.688V148.014C320.89 151.067 322.111 155.056 327.322 154.568H327.648L327.485 154.242C327.159 152.858 322.437 148.909 320.768 147.81L320.32 147.484L320.442 147.688Z" fill="black"/>
<path d="M356.469 119.721L356.632 120.494C357.08 123.262 358.301 125.705 359.848 127.048L360.174 127.374L360.337 126.763V126.6C360.784 123.71 358.179 121.105 357.121 120.168L356.795 119.843L356.469 119.721Z" fill="black"/>
<path d="M361.802 124.609L361.477 125.22C360.703 127.215 360.418 131.652 360.54 133.769L360.866 134.99L361.029 134.827L361.192 134.502C362.861 132.507 362.861 129.901 362.576 127.947C362.413 126.563 362.128 125.668 361.965 125.179L361.802 124.854V124.609Z" fill="black"/>
<path d="M363.797 132.262L363.349 132.872C361.802 134.867 359.686 140.037 359.686 141.869V142.48L360.133 142.154C363.96 139.711 364.123 134.989 363.96 132.994V132.669L363.797 132.262Z" fill="black"/>
<path d="M363.186 140.646L362.576 140.972C360.133 142.519 356.306 147.241 355.533 149.236L355.37 149.847L355.981 149.684C359.97 148.463 362.535 144.025 363.023 141.298V140.972L363.186 140.646Z" fill="black"/>
<path d="M355.085 123.875L355.248 124.648C355.859 126.643 357.691 129.981 359.36 131.365L359.808 131.691V131.08C359.97 128.312 358.586 126.195 355.696 124.364L355.37 124.201L355.085 123.875Z" fill="black"/>
<path d="M356.754 129.818V130.429C356.592 132.424 358.301 136.861 359.36 138.367L359.686 138.815L359.848 138.367C360.011 137.757 360.174 137.309 360.174 136.82C360.337 133.604 357.894 130.999 357.121 130.266L356.958 130.103L356.754 129.818Z" fill="black"/>
<path d="M356.633 135.314L356.47 135.925C356.307 136.373 356.144 137.146 356.144 138.083C356.144 140.688 356.47 143.904 357.08 144.962L357.243 145.41L357.569 144.962C358.342 143.904 358.79 142.683 358.79 141.299C358.79 139.63 358.179 137.635 356.958 135.803L356.795 135.477L356.633 135.314Z" fill="black"/>
<path d="M355.249 141.258L354.923 141.706C353.702 143.253 352.155 148.422 352.155 150.417V150.865L352.318 151.313L352.643 151.15C354.801 149.766 355.859 147.771 356.022 145.329C356.022 144.27 355.859 143.049 355.574 141.828L355.411 141.502L355.249 141.258Z" fill="black"/>
<path d="M359.686 149.193L359.075 149.356C356.917 149.682 350.811 153.183 349.916 154.567L349.59 154.893H350.038C355.085 155.829 357.813 152.287 359.36 149.682L359.523 149.356L359.686 149.193Z" fill="black"/>
<path d="M335.382 157.012C335.22 157.012 331.556 159.007 329.276 162.06L329.113 162.223L329.276 162.386C329.439 162.549 329.887 162.834 330.05 162.997H330.212L330.375 162.834C332.655 160.066 336.482 156.565 340.593 156.28C341.204 156.89 341.814 157.338 342.588 157.664C344.867 158.437 349.02 158.112 352.195 156.727L352.968 156.402L352.195 156.239C344.42 154.244 338.598 155.466 335.382 157.012Z" fill="black"/>
<path d="M351.87 147.363L351.422 147.689C349.753 148.747 345.153 152.737 344.705 154.121L344.542 154.447H344.868C349.916 154.894 351.137 150.946 351.747 147.892V147.526L351.87 147.363Z" fill="black"/>
<path d="M222.987 116.832H229.419V122.653H222.987V116.832ZM223.597 129.37H228.93V157.785H223.597V129.37Z" fill="black"/>
<path d="M183.133 129.371H188.466V157.786H183.255V153.633H183.092C180.935 157.134 177.271 158.681 173.322 158.681C167.379 158.681 164 154.081 164 148.463V129.371H169.333V146.184C169.333 151.069 170.391 154.732 175.602 154.732C177.759 154.732 180.813 153.674 181.871 150.621C182.929 148.016 182.929 144.677 182.929 143.904V129.412H183.133V129.371Z" fill="black"/>
<path d="M199.172 133.483C201.167 129.982 204.994 128.436 207.884 128.436C209.879 128.436 218.59 128.883 218.59 138.043V157.583H213.258V139.712C213.258 134.99 211.263 132.547 206.704 132.547C206.704 132.547 203.813 132.384 201.493 134.705C200.719 135.478 199.213 136.699 199.213 142.358V157.786H193.88V129.372H199.213L199.172 133.483Z" fill="black"/>
<path d="M251.401 138.368C251.075 134.867 249.406 132.425 245.58 132.425C240.532 132.425 238.537 136.862 238.537 143.416C238.537 149.97 240.532 154.408 245.58 154.408C249.08 154.408 251.238 152.128 251.523 147.976H256.856C256.408 154.408 251.645 158.193 245.417 158.193C236.42 158.193 232.756 151.761 232.756 143.538C232.756 135.315 236.868 128.436 245.905 128.436C251.849 128.436 256.286 132.262 256.611 138.368H251.401Z" fill="black"/>
<path d="M264.835 144.472C264.387 149.357 266.504 154.568 271.878 154.568C275.989 154.568 278.147 152.899 278.758 148.746H284.375C283.439 155.178 278.554 158.354 271.837 158.354C262.841 158.354 259.177 151.922 259.177 143.699C259.177 135.475 263.288 128.596 272.326 128.596C280.712 128.759 284.701 134.091 284.701 141.867V144.472H264.835ZM279.205 140.808C279.368 136.086 277.211 132.422 272.041 132.422C267.603 132.422 264.998 136.249 264.998 140.808H279.205Z" fill="black"/>
<path d="M290.807 157.459V133.034H285.922V129.37H290.807V123.264C290.97 117.157 295.692 115.488 299.681 115.488C300.903 115.488 302.287 115.814 303.508 116.099V120.536C302.572 120.536 301.676 120.373 300.74 120.373C297.687 120.373 296.018 121.147 296.14 124.2V129.411H302.694V133.074H296.14V157.499L290.807 157.459Z" fill="black"/>
</svg>
