<svg width="528" height="278" viewBox="0 0 528 278" fill="none" xmlns="http://www.w3.org/2000/svg">
<rect width="528" height="278" fill="#003883"/>
<path d="M176.836 160.378C176.894 161.235 176.775 162.093 176.487 162.902C176.199 163.71 175.747 164.45 175.161 165.076C174.574 165.702 173.865 166.201 173.077 166.541C172.29 166.882 171.44 167.056 170.582 167.055C169.779 167.075 168.981 166.926 168.24 166.616C167.499 166.306 166.832 165.843 166.283 165.257V166.82H164.719V148.574H166.283V155.891C166.839 155.264 167.527 154.766 168.297 154.434C169.067 154.102 169.9 153.943 170.739 153.968C171.571 153.951 172.398 154.107 173.166 154.428C173.935 154.748 174.628 155.225 175.202 155.828C175.776 156.431 176.217 157.147 176.499 157.931C176.78 158.714 176.895 159.548 176.836 160.378V160.378ZM175.273 160.378C175.32 159.734 175.234 159.087 175.019 158.478C174.805 157.868 174.467 157.31 174.027 156.837C173.586 156.365 173.053 155.988 172.46 155.731C171.868 155.474 171.228 155.342 170.582 155.344C169.742 155.332 168.911 155.525 168.162 155.907C167.413 156.288 166.768 156.846 166.283 157.533V163.459C166.783 164.142 167.44 164.696 168.2 165.071C168.959 165.447 169.798 165.634 170.645 165.616C171.304 165.62 171.956 165.484 172.559 165.219C173.162 164.953 173.703 164.564 174.145 164.076C174.588 163.587 174.923 163.011 175.128 162.385C175.333 161.759 175.403 161.096 175.335 160.441L175.273 160.378Z" fill="white"/>
<path d="M190.563 154.203L184.825 168.087C183.825 170.495 182.355 171.761 180.229 171.761C179.502 171.767 178.783 171.618 178.118 171.323V169.76C178.748 170.081 179.444 170.252 180.151 170.26C180.825 170.3 181.494 170.12 182.057 169.748C182.621 169.376 183.049 168.832 183.278 168.196L183.825 166.82L178.462 154.141H180.198L184.575 164.96L188.906 154.141L190.563 154.203Z" fill="white"/>
<path d="M205.104 167.305C202.98 167.334 200.918 166.59 199.303 165.21V161.442C200.949 163.008 203.101 163.934 205.37 164.053C206.933 164.053 208.387 163.443 208.387 161.942C208.387 160.441 206.667 160.003 204.932 159.503C202.102 158.706 198.928 157.658 198.928 153.937C198.928 150.216 202.055 148.449 205.448 148.449C207.15 148.448 208.819 148.925 210.263 149.825V153.249C208.823 152.291 207.146 151.75 205.417 151.686C203.666 151.686 202.29 152.436 202.29 153.89C202.29 155.344 203.947 155.844 206.183 156.47C208.731 157.158 211.702 158.033 211.702 161.676C211.702 165.319 208.497 167.305 205.104 167.305Z" fill="white"/>
<path d="M214.281 149.699C214.266 149.279 214.376 148.864 214.597 148.507C214.819 148.15 215.142 147.868 215.525 147.695C215.908 147.523 216.334 147.469 216.748 147.54C217.162 147.611 217.545 147.804 217.849 148.095C218.153 148.385 218.363 148.759 218.452 149.17C218.542 149.58 218.507 150.008 218.353 150.398C218.198 150.789 217.93 151.124 217.584 151.362C217.237 151.599 216.828 151.728 216.408 151.731C216.131 151.751 215.854 151.712 215.593 151.619C215.333 151.525 215.094 151.377 214.894 151.186C214.694 150.994 214.536 150.763 214.43 150.507C214.325 150.251 214.274 149.976 214.281 149.699ZM214.75 166.819V153.732H217.877V166.819H214.75Z" fill="white"/>
<path d="M233.919 158.862V166.82H230.792V159.143C230.797 158.763 230.72 158.386 230.568 158.037C230.415 157.689 230.19 157.377 229.907 157.123C229.625 156.868 229.291 156.677 228.929 156.561C228.566 156.446 228.183 156.41 227.805 156.454C227.268 156.432 226.733 156.54 226.245 156.768C225.758 156.997 225.333 157.34 225.007 157.767V166.82H221.88V153.734H224.897V154.938C225.384 154.455 225.963 154.075 226.599 153.823C227.236 153.57 227.918 153.449 228.603 153.468C229.32 153.421 230.039 153.528 230.71 153.784C231.382 154.039 231.991 154.437 232.495 154.948C233 155.46 233.388 156.075 233.633 156.75C233.879 157.425 233.976 158.146 233.919 158.862V158.862Z" fill="white"/>
<path d="M250.304 156.687H247.302C247.62 156.956 247.871 157.295 248.034 157.678C248.197 158.061 248.267 158.477 248.24 158.892C248.24 162.019 245.363 162.894 243.425 163.285C241.486 163.676 240.517 163.598 240.517 164.364C240.517 165.13 241.627 165.24 242.471 165.255H243.8C245.551 165.255 249.241 165.474 249.241 168.726C249.241 171.712 246.114 172.963 242.549 172.963C238.984 172.963 236.483 171.853 236.483 169.445C236.483 167.976 237.484 166.803 239.485 166.412C239.011 166.311 238.581 166.063 238.256 165.704C237.93 165.345 237.726 164.892 237.671 164.411C237.671 163.473 238.312 162.848 239.235 162.597C238.592 162.181 238.07 161.605 237.719 160.925C237.368 160.245 237.2 159.485 237.233 158.72C237.233 155.593 239.672 153.686 243.175 153.686H250.257L250.304 156.687ZM239.36 169.039C239.36 170.18 240.767 170.602 242.69 170.602C244.613 170.602 246.208 170.274 246.208 169.039C246.208 167.804 244.848 167.804 242.799 167.804C240.751 167.804 239.391 167.819 239.391 169.101L239.36 169.039ZM245.285 158.814C245.235 158.174 244.946 157.577 244.475 157.142C244.004 156.707 243.386 156.465 242.745 156.465C242.103 156.465 241.485 156.707 241.015 157.142C240.544 157.577 240.254 158.174 240.204 158.814C240.254 159.453 240.544 160.05 241.015 160.486C241.485 160.921 242.103 161.163 242.745 161.163C243.386 161.163 244.004 160.921 244.475 160.486C244.946 160.05 245.235 159.453 245.285 158.814Z" fill="white"/>
<path d="M264.313 153.734V166.821H261.342V165.617C260.313 166.576 258.949 167.093 257.543 167.055C256.833 167.083 256.125 166.961 255.465 166.698C254.805 166.435 254.207 166.037 253.711 165.528C253.214 165.02 252.83 164.413 252.582 163.747C252.335 163.081 252.23 162.37 252.274 161.661V153.734H255.401V161.411C255.411 161.784 255.496 162.151 255.651 162.491C255.806 162.83 256.029 163.135 256.305 163.386C256.581 163.637 256.905 163.83 257.257 163.953C257.61 164.075 257.984 164.126 258.356 164.1C258.888 164.111 259.416 164.005 259.902 163.788C260.389 163.572 260.822 163.252 261.17 162.849V153.734H264.313Z" fill="white"/>
<path d="M268.174 166.82V148.574H271.301V166.82H268.174Z" fill="white"/>
<path d="M285.248 166.821H282.246V165.054C281.784 165.699 281.169 166.219 280.457 166.569C279.745 166.918 278.958 167.085 278.165 167.056C277.663 167.121 277.153 167.075 276.671 166.92C276.189 166.766 275.747 166.507 275.377 166.162C275.007 165.817 274.717 165.394 274.529 164.925C274.34 164.455 274.258 163.949 274.288 163.444C274.288 160.098 277.618 159.645 280.338 158.941C281.292 158.707 282.121 158.457 282.121 157.565C282.121 156.674 280.995 156.221 279.807 156.221C278.094 156.236 276.439 156.837 275.116 157.925V155.033C276.561 154 278.297 153.453 280.072 153.469C283.293 153.469 285.263 155.033 285.263 157.722L285.248 166.821ZM282.121 160.724C281.61 160.922 281.088 161.089 280.557 161.224C278.65 161.74 277.43 162.021 277.43 163.303C277.43 164.054 277.868 164.492 278.994 164.492C279.391 164.524 279.792 164.474 280.169 164.344C280.546 164.214 280.893 164.008 281.187 163.737C281.48 163.467 281.715 163.139 281.876 162.774C282.036 162.408 282.12 162.014 282.121 161.615V160.724Z" fill="white"/>
<path d="M297.036 153.779V156.781C296.526 156.648 296 156.579 295.473 156.578C294.846 156.547 294.221 156.674 293.655 156.947C293.09 157.22 292.602 157.631 292.236 158.141V166.787H289.109V153.732H291.986V155.296C292.384 154.728 292.92 154.272 293.544 153.971C294.168 153.67 294.859 153.534 295.551 153.576C296.052 153.594 296.549 153.663 297.036 153.779Z" fill="white"/>
<path d="M318.753 161.582C318.753 164.709 316.189 166.82 312.671 166.82H305.698V148.855H312.499C313.136 148.793 313.779 148.867 314.385 149.072C314.992 149.277 315.548 149.609 316.016 150.045C316.485 150.481 316.856 151.011 317.104 151.602C317.352 152.192 317.471 152.828 317.455 153.468C317.498 154.192 317.349 154.915 317.022 155.563C316.695 156.211 316.203 156.761 315.595 157.157C316.531 157.45 317.347 158.041 317.917 158.839C318.487 159.638 318.78 160.601 318.753 161.582V161.582ZM308.997 155.969H311.686C313.093 155.969 314.078 155.203 314.078 153.937C314.078 152.67 313.202 152.014 311.811 152.014H308.997V155.969ZM315.454 161.285C315.454 159.925 314.313 159.096 312.702 159.096H308.997V163.787H312.468C314.266 163.662 315.454 162.661 315.454 161.285Z" fill="white"/>
<path d="M331.902 166.821H328.884V165.055C328.422 165.699 327.808 166.22 327.096 166.569C326.384 166.918 325.596 167.085 324.804 167.056C324.302 167.121 323.792 167.075 323.31 166.92C322.828 166.766 322.386 166.507 322.016 166.162C321.645 165.817 321.356 165.394 321.167 164.925C320.979 164.455 320.897 163.949 320.926 163.444C320.926 160.098 324.272 159.645 326.993 158.941C327.931 158.707 328.759 158.457 328.759 157.566C328.759 156.674 327.634 156.221 326.445 156.221C324.732 156.23 323.074 156.832 321.755 157.925V155.033C323.199 153.998 324.935 153.451 326.711 153.469C329.838 153.469 331.886 155.033 331.886 157.722L331.902 166.821ZM328.775 160.724C328.264 160.922 327.742 161.089 327.211 161.224C325.304 161.74 324.084 162.021 324.084 163.303C324.084 164.054 324.522 164.492 325.648 164.492C326.046 164.524 326.446 164.474 326.823 164.344C327.201 164.214 327.547 164.008 327.841 163.737C328.135 163.467 328.369 163.139 328.53 162.774C328.691 162.409 328.774 162.014 328.775 161.615V160.724Z" fill="white"/>
<path d="M347.724 158.862V166.82H344.597V159.143C344.602 158.765 344.526 158.389 344.374 158.042C344.223 157.694 343.999 157.383 343.718 157.129C343.437 156.875 343.106 156.683 342.745 156.567C342.384 156.45 342.003 156.412 341.627 156.454C341.089 156.432 340.554 156.54 340.067 156.768C339.579 156.997 339.155 157.34 338.828 157.768V166.82H335.701V153.734H338.703V154.938C339.198 154.45 339.788 154.069 340.436 153.819C341.084 153.569 341.777 153.455 342.471 153.484C343.182 153.446 343.892 153.56 344.555 153.819C345.218 154.078 345.818 154.475 346.315 154.984C346.812 155.493 347.195 156.102 347.438 156.771C347.681 157.44 347.779 158.152 347.724 158.862V158.862Z" fill="white"/>
<path d="M357.746 160.175L364 166.82H359.888L354.619 161.129V166.82H351.492V148.574H354.619V159.206L359.7 153.734H363.781L357.746 160.175Z" fill="white"/>
<path d="M175.445 140.493C171.512 140.526 167.702 139.132 164.719 136.568V129.548C167.772 132.47 171.772 134.201 175.992 134.426C178.9 134.426 181.62 133.269 181.62 130.502C181.62 127.735 178.493 126.875 175.179 125.968C169.926 124.483 164 122.528 164 115.602C164 108.676 169.785 105.377 176.133 105.377C179.286 105.384 182.375 106.278 185.044 107.957V114.383C182.358 112.615 179.237 111.62 176.023 111.506C172.771 111.506 170.191 112.897 170.191 115.618C170.191 118.635 173.318 119.245 177.462 120.402C182.152 121.684 187.718 123.31 187.718 130.096C187.718 137.1 181.652 140.493 175.445 140.493Z" fill="white"/>
<path d="M214.328 129.593H197.661C197.849 132.798 201.101 134.94 205.057 134.94C208.151 134.821 211.142 133.793 213.656 131.985V137.239C210.89 139.109 207.613 140.076 204.275 140.006C196.692 140.006 191.767 134.94 191.767 127.311C191.767 119.681 196.676 114.803 203.603 114.803C210.294 114.803 214.312 119.384 214.312 126.795L214.328 129.593ZM197.708 125.2H208.653C208.714 124.517 208.628 123.828 208.4 123.182C208.172 122.535 207.808 121.944 207.332 121.451C206.856 120.957 206.28 120.571 205.641 120.32C205.003 120.068 204.319 119.957 203.634 119.993C202.158 119.899 200.705 120.395 199.594 121.371C198.483 122.347 197.805 123.724 197.708 125.2V125.2Z" fill="white"/>
<path d="M219.816 139.584V105.625H225.695V139.584H219.816Z" fill="white"/>
<path d="M249.147 111.113C247.866 110.447 246.447 110.088 245.004 110.066C242.518 110.066 240.657 111.301 240.657 113.974V115.225H248.006V120.713H240.657V139.584H234.763V120.713H229.744V115.225H234.763V113.881C234.763 108.127 239.156 105 244.175 105C245.892 105.007 247.591 105.347 249.178 106.001L249.147 111.113Z" fill="white"/>
<path d="M278.024 129.827C278.024 135.518 273.334 139.583 266.705 139.583H253.728V106.141H266.345C271.739 106.141 275.57 109.393 275.57 114.693C275.652 116.041 275.378 117.387 274.774 118.594C274.17 119.802 273.258 120.829 272.13 121.572C273.883 122.11 275.409 123.21 276.475 124.702C277.54 126.194 278.085 127.995 278.024 129.827ZM259.888 119.368H264.891C267.518 119.368 269.332 117.945 269.332 115.6C269.332 113.254 267.768 112.019 265.141 112.019H259.888V119.368ZM271.864 129.124C271.864 126.591 269.769 125.059 266.752 125.059H259.888V133.705H266.345C269.675 133.705 271.864 131.844 271.864 129.124Z" fill="white"/>
<path d="M302.477 139.584H296.895V136.269C296.034 137.469 294.89 138.436 293.564 139.085C292.238 139.735 290.772 140.046 289.297 139.991C284.528 139.991 282.089 137.223 282.089 133.252C282.089 126.998 288.343 126.185 293.362 124.903C295.129 124.465 296.661 123.996 296.661 122.323C296.661 120.369 294.55 119.837 292.361 119.837C289.176 119.846 286.09 120.95 283.622 122.964V117.711C286.297 115.766 289.523 114.725 292.83 114.74C298.803 114.74 302.477 117.711 302.477 122.667V139.584ZM296.614 128.218C295.676 128.595 294.715 128.914 293.737 129.171C290.204 130.125 287.874 130.641 287.874 133.033C287.874 134.425 288.672 135.238 290.782 135.238C291.523 135.298 292.267 135.205 292.97 134.964C293.673 134.723 294.318 134.339 294.865 133.837C295.413 133.335 295.851 132.725 296.152 132.046C296.453 131.367 296.61 130.633 296.614 129.89V128.218Z" fill="white"/>
<path d="M331.902 124.777V139.583H326.023V125.324C326.023 122.197 323.647 120.321 320.488 120.321C319.49 120.279 318.496 120.478 317.591 120.9C316.685 121.321 315.893 121.954 315.282 122.744V139.583H309.403V115.224H315.001V117.507C315.919 116.593 317.017 115.879 318.226 115.411C319.434 114.943 320.726 114.73 322.021 114.786C327.508 114.739 331.902 118.132 331.902 124.777Z" fill="white"/>
<path d="M350.523 127.201L362.124 139.584H354.494L344.691 128.968V139.584H338.828V105.625H344.691V125.325L354.072 115.162H361.717L350.523 127.201Z" fill="white"/>
</svg>
