<svg width="528" height="278" fill="none" xmlns="http://www.w3.org/2000/svg"><path fill="#F3F3F3" d="M0 0h528v278H0z"/><path d="M171.273 126.213v12.02h.101c1.616-2.222 3.636-3.232 6.363-3.232 5.051 0 7.475 3.434 7.475 8.485v12.424h-7.071v-10.404c0-2.323-.303-4.849-3.232-4.849-2.828 0-3.737 2.425-3.737 4.849v10.404h-7.071v-29.697h7.172zm31.414 16.565c-.303-1.919-2.121-3.233-4.04-3.233-2.021 0-3.738 1.112-4.243 3.233h8.283zm6.667 4.141h-14.95c0 2.929 1.515 4.546 4.445 4.546 1.515 0 2.626-.505 3.434-1.819h6.869c-1.111 4.748-5.657 6.97-10.202 6.97-6.667 0-11.617-3.838-11.617-10.808 0-6.768 4.546-10.808 11.112-10.808 6.969 0 10.909 4.343 10.909 11.212v.707zm2.02 8.991h7.07v-29.697h-7.07v29.697m20.606-9.9l4.747-10.405h7.98l-10.404 20.303h-4.647l-10.505-20.303h7.98l4.849 10.405zm26.363-3.232c-.303-1.919-2.121-3.233-4.04-3.233-2.02 0-3.738 1.112-4.243 3.233h8.283zm6.566 4.141h-14.95c0 2.929 1.516 4.546 4.445 4.546 1.515 0 2.626-.505 3.434-1.819h6.869c-1.111 4.748-5.657 6.97-10.202 6.97-6.667 0-11.616-3.838-11.616-10.808 0-6.768 4.545-10.808 11.111-10.808 6.969 0 10.909 4.343 10.909 11.212v.707zm10.505 8.99h-7.071v-14.344h-2.323v-5.959h2.323v-6.061h7.071v6.061h4.04v5.959h-4.04v14.344m12.425-.001h-7.071v-20.303h7.071v20.303zm.505-26.666c0 2.222-1.819 4.04-3.94 4.04-2.222 0-3.939-1.818-3.939-4.04 0-2.223 1.818-4.041 3.939-4.041s3.94 1.818 3.94 4.041zm8.888 16.566c0 2.525 1.717 4.546 4.546 4.546 2.929 0 4.545-2.021 4.545-4.546 0-2.525-1.717-4.545-4.545-4.545-2.829-.101-4.546 2.02-4.546 4.545zm16.061 10.101h-7.071v-2.222h-.101c-1.212 2.02-3.737 2.929-6.061 2.929-5.959 0-10.101-5.05-10.101-10.808 0-5.757 4.142-10.808 10-10.808 2.324 0 4.748.909 6.162 2.626v-2.02h7.071v20.303" fill="#000"/><path d="M330.364 148.939l7.98-2.122 1.717-4.04-3.536-8.283-.808 2.02-5.353 12.425zm17.878-25.959l-3.333-7.576-8.081 1.818 3.232 7.677 8.182-1.919z" fill="#533863"/><path d="M335.919 133.283l.101-.303 3.233-7.475-3.233-7.273-12.626 29.899 5.758 1.011 6.767-15.859z" fill="#875EA0"/><path d="M339.252 125.505l-.202-.404-2.929-6.97-.101.101 3.232 7.273z" fill="#000"/><path d="M338.546 147.93l-6.566 1.616 11.717 2.121-1.212-3.03-3.939-.707z" fill="#006B71"/><path d="M329.253 150.253l-2.223-.404h.101l-4.242-.808-2.626 6.465 27.272 4.949-3.232-7.576-15.05-2.626z" fill="#00A2A9"/><path d="M327.232 149.748l-4.343-.707 4.242.808.101-.101z" fill="#000"/><path d="M327.131 149.848h-.101l2.223.404-.102-.101-2.02-.303zm2.626.405l-.303-.101-.202.101 15.051 2.627v-.101l-14.546-2.526z" fill="#000"/><path d="M329.252 150.253l.202-.101h-.303l.101.101zm-.1-.101l-1.92-.404-.101.101 2.021.303zm.303 0l.303.101-.303-.101z" fill="#000"/><path d="M340.465 125.909l2.02 4.647 13.434 31.313 7.98-2.323-15.252-35.556-4.041.909-4.141 1.01z" fill="#B70417"/><path d="M344.606 124.899l4.04-.909-4.04.909z" fill="#000"/><path d="M337.131 133.183l4.041 9.494v.102l3.939 9.09 1.515 3.637 2.223 5.151 5.959 1.111-8.99-21.01-6.06-13.838-2.627 6.263z" fill="#E3001B"/><path d="M341.172 142.778v-.101l-4.041-9.495-.101.101 4.142 9.495zm-1.414-15.859v-.101l-2.728 6.263.101.101 2.627-6.263z" fill="#000"/><path d="M337.03 133.282l.101-.101-.101-.101v.202zm8.081 18.587l1.515 3.637-1.515-3.637zm9.697 9.899l-8.99-21.01 8.99 21.01z" fill="#000"/></svg>