<svg width="528" height="278" fill="none" xmlns="http://www.w3.org/2000/svg"><path fill="#000" d="M0 0h528v278H0z"/><path d="M144.541 138.976v1.595h-3.862v5.541H139v-11.754h6.716v1.595h-5.037v3.023h3.862zm9.819 7.304a5.097 5.097 0 01-2.032-.403 4.913 4.913 0 01-1.612-1.142 4.72 4.72 0 01-.906-1.461c-.213-.559-.319-1.237-.319-2.031v-6.885h1.679v6.969c0 .559.061 1.024.184 1.393.135.358.319.666.554.924.291.324.644.582 1.058.772.426.179.89.269 1.394.269.504 0 .963-.09 1.377-.269.425-.19.783-.448 1.074-.772.236-.258.415-.566.538-.924.134-.369.201-.834.201-1.393v-6.969h1.679v6.885c0 .794-.112 1.472-.335 2.031a4.503 4.503 0 01-.89 1.461 4.913 4.913 0 01-1.612 1.142 5.097 5.097 0 01-2.032.403zm11.506-8.799v8.631h-1.679v-11.754h1.175l7.052 8.631v-8.631h1.679v11.754h-1.175l-7.052-8.631zm21.568 2.754c0-.66-.128-1.276-.386-1.847a3.983 3.983 0 00-1.041-1.444 3.71 3.71 0 00-1.343-.739c-.515-.168-1.187-.252-2.015-.252h-1.763v8.564h1.763c.828 0 1.5-.084 2.015-.252a3.71 3.71 0 001.343-.739 3.983 3.983 0 001.041-1.444 4.43 4.43 0 00.386-1.847zm-8.227 5.877v-11.754h3.526c.94 0 1.724.095 2.351.286.638.19 1.198.464 1.679.822a5.669 5.669 0 011.713 2.049 5.87 5.87 0 01.638 2.72c0 .985-.207 1.892-.622 2.72a5.648 5.648 0 01-1.712 2.049 5.368 5.368 0 01-1.679.823c-.639.19-1.428.285-2.368.285h-3.526zm20.6-3.022h-4.953l-1.226 3.022h-1.746l4.869-11.754h1.175l4.87 11.754h-1.747l-1.242-3.022zm-4.282-1.596h3.627l-1.813-4.365-1.814 4.365zm10.044-1.259c0-.851.151-1.64.453-2.367a5.898 5.898 0 011.243-1.915 5.953 5.953 0 011.88-1.293 5.93 5.93 0 012.368-.47 5.95 5.95 0 012.384.487c.761.314 1.4.756 1.914 1.327l-1.125 1.108c-.347-.381-.806-.694-1.376-.94a4.243 4.243 0 00-1.797-.387 4.161 4.161 0 00-3.039 1.277 4.357 4.357 0 00-.907 1.41 4.741 4.741 0 00-.319 1.763c0 .661.112 1.265.336 1.814.224.548.532 1.018.923 1.41.403.392.873.694 1.411.907a4.713 4.713 0 001.746.319 3.8 3.8 0 001.091-.151c.347-.101.661-.23.941-.387.28-.156.532-.33.755-.52.224-.202.42-.403.588-.605l1.192 1.075a5.753 5.753 0 01-3.24 2.015 5.323 5.323 0 01-1.327.168 6.46 6.46 0 01-2.435-.453 5.961 5.961 0 01-1.931-1.26 5.982 5.982 0 01-1.276-1.914 6.331 6.331 0 01-.453-2.418zm14.615-5.877h1.679v11.754h-1.679v-11.754zm5.882 5.877c0-.851.151-1.645.453-2.384a5.883 5.883 0 011.243-1.914 5.532 5.532 0 011.864-1.277 5.72 5.72 0 012.317-.47c.828 0 1.6.157 2.317.47a5.542 5.542 0 011.864 1.277 5.88 5.88 0 011.242 1.914 6.22 6.22 0 01.454 2.384c0 .862-.151 1.662-.454 2.401a6.123 6.123 0 01-1.242 1.914 5.879 5.879 0 01-1.864 1.277 5.906 5.906 0 01-2.317.453 5.9 5.9 0 01-2.317-.453 5.867 5.867 0 01-1.864-1.277 6.126 6.126 0 01-1.243-1.914 6.285 6.285 0 01-.453-2.401zm1.679 0c0 .638.106 1.231.319 1.78a4.55 4.55 0 00.873 1.41c.381.392.823.7 1.327.924a4.161 4.161 0 001.679.336c.604 0 1.158-.112 1.662-.336a3.99 3.99 0 001.327-.924c.38-.403.677-.873.889-1.41.213-.549.32-1.142.32-1.78 0-.638-.107-1.226-.32-1.763a4.142 4.142 0 00-.889-1.41 3.88 3.88 0 00-1.327-.941 4.046 4.046 0 00-1.662-.336c-.605 0-1.164.112-1.679.336a4.103 4.103 0 00-1.327.941c-.369.391-.66.862-.873 1.41a4.741 4.741 0 00-.319 1.763zm3.61-6.716l1.091-2.519h1.764l-1.764 2.519h-1.091zm12.334 3.962v8.631h-1.679v-11.754h1.175l7.052 8.631v-8.631h1.679v11.754h-1.175l-7.052-8.631zm19.949 6.263c.134.292.335.521.604.689.28.168.599.252.957.252.258 0 .504-.062.739-.185.246-.123.442-.28.588-.47.1-.134.179-.297.235-.487.056-.202.084-.481.084-.84v-8.345h1.679v8.228c0 .47-.034.862-.101 1.175a3.13 3.13 0 01-.302.823 3.429 3.429 0 01-1.209 1.226 3.235 3.235 0 01-1.713.47 3.555 3.555 0 01-1.847-.487 2.988 2.988 0 01-1.209-1.41l1.495-.639zm14.54 2.536a5.097 5.097 0 01-2.032-.403 4.913 4.913 0 01-1.612-1.142 4.72 4.72 0 01-.906-1.461c-.213-.559-.319-1.237-.319-2.031v-6.885h1.679v6.969c0 .559.061 1.024.184 1.393.135.358.319.666.554.924.292.324.644.582 1.058.772.426.179.89.269 1.394.269.504 0 .963-.09 1.377-.269.425-.19.783-.448 1.074-.772.236-.258.415-.566.538-.924.134-.369.201-.834.201-1.393v-6.969h1.679v6.885c0 .794-.112 1.472-.335 2.031a4.503 4.503 0 01-.89 1.461 4.913 4.913 0 01-1.612 1.142 5.097 5.097 0 01-2.032.403zm16.325-3.19h-4.953l-1.226 3.022h-1.747l4.87-11.754h1.175l4.87 11.754h-1.747l-1.242-3.022zm-4.282-1.596h3.627l-1.813-4.365-1.814 4.365zm12.646-4.013v8.631h-1.679v-11.754h1.176l7.052 8.631v-8.631h1.679v11.754h-1.175l-7.053-8.631zm26.263 6.112h-1.176l-3.442-5.39v7.909h-1.679v-11.754h1.176l4.533 7.17 4.534-7.17h1.175v11.754h-1.679v-7.909l-3.442 5.39zm16.746-.503h-4.953l-1.226 3.022h-1.746l4.869-11.754h1.176l4.869 11.754h-1.746l-1.243-3.022zm-4.281-1.596h3.627l-1.814-4.365-1.813 4.365zm12.646-.923v5.541h-1.679v-11.754h4.114c.537 0 .985.062 1.343.185.358.112.672.28.94.504.359.291.638.643.84 1.057.213.415.319.868.319 1.361 0 .492-.106.945-.319 1.36a3.084 3.084 0 01-1.461 1.444c-.213.1-.464.179-.755.235l4.214 5.608h-2.032l-4.181-5.541h-1.343zm2.351-1.595c.38 0 .677-.039.89-.118.212-.078.386-.184.52-.319a1.46 1.46 0 00.437-1.074 1.44 1.44 0 00-.118-.588 1.456 1.456 0 00-.319-.487 1.415 1.415 0 00-.52-.319c-.213-.078-.51-.118-.89-.118h-2.351v3.023h2.351zm7.886 1.259c0-.851.151-1.64.453-2.367a5.898 5.898 0 011.243-1.915 5.953 5.953 0 011.88-1.293 5.93 5.93 0 012.368-.47 5.95 5.95 0 012.384.487 5.21 5.21 0 011.914 1.327l-1.125 1.108c-.347-.381-.806-.694-1.377-.94a4.235 4.235 0 00-1.796-.387 4.161 4.161 0 00-3.039 1.277 4.357 4.357 0 00-.907 1.41 4.741 4.741 0 00-.319 1.763c0 .661.112 1.265.336 1.814a4.23 4.23 0 00.923 1.41c.403.392.873.694 1.411.907a4.713 4.713 0 001.746.319 3.8 3.8 0 001.091-.151c.347-.101.661-.23.941-.387.28-.156.531-.33.755-.52.224-.202.42-.403.588-.605l1.192 1.075a5.753 5.753 0 01-3.241 2.015 5.309 5.309 0 01-1.326.168 6.46 6.46 0 01-2.435-.453 5.95 5.95 0 01-1.931-1.26 5.982 5.982 0 01-1.276-1.914 6.331 6.331 0 01-.453-2.418zm22.843.336h-6.549v5.541h-1.679v-11.754h1.679v4.618h6.549v-4.618H389v11.754h-1.679v-5.541z" fill="#fff"/></svg>