<svg width="528" height="278" fill="none" xmlns="http://www.w3.org/2000/svg"><path fill="#F9C1C1" d="M0 0h528v278H0z"/><path d="M342.637 140.755c-.909-.864-2.44-1.543-4.593-2.037l-1.044-.235c-.629-.135-1.054-.279-1.278-.438a.713.713 0 01-.337-.605c0-.359.202-.622.605-.79.405-.169.977-.253 1.717-.252.4.003.8.036 1.195.099.437.068.868.152 1.294.253.427.101.82.213 1.179.336.281.089.552.208.808.354.3-.258.546-.572.723-.925.201-.414.299-.871.287-1.33.01-.506-.157-1-.472-1.396a3.427 3.427 0 00-1.278-.96 7.617 7.617 0 00-1.902-.555 14.1 14.1 0 00-2.339-.186 11.504 11.504 0 00-3.012.371 7.568 7.568 0 00-2.339 1.043 4.638 4.638 0 00-2.052 3.938c0 1.526.477 2.698 1.43 3.515.953.821 2.406 1.422 4.358 1.802l1.008.202c.629.113 1.078.258 1.347.437a.841.841 0 01.403.742c0 .336-.184.605-.555.806-.37.204-.903.302-1.598.302-1.099 0-2.07-.14-2.911-.42a13.437 13.437 0 01-2.238-.958c-.323.257-.596.57-.807.925-.225.37-.337.824-.337 1.363-.013.546.159 1.08.488 1.515.359.454.821.817 1.346 1.06.572.281 1.262.488 2.07.623a16.03 16.03 0 002.626.202c2.49 0 4.374-.483 5.652-1.449 1.28-.963 1.92-2.298 1.919-4.004 0-1.368-.454-2.484-1.363-3.348zm-17.488-6.262a8.153 8.153 0 00-2.775-1.749c-1.077-.416-2.277-.624-3.601-.623-1.324.001-2.524.202-3.601.605a7.94 7.94 0 00-2.777 1.735 7.707 7.707 0 00-1.8 2.743c-.427 1.076-.641 2.277-.641 3.6 0 1.346.214 2.557.641 3.634a7.698 7.698 0 001.8 2.743 7.94 7.94 0 002.777 1.735c1.076.403 2.276.605 3.601.605 1.323 0 2.523-.191 3.601-.573a7.645 7.645 0 002.775-1.682 7.564 7.564 0 001.802-2.743c.426-1.089.639-2.329.639-3.719 0-1.301-.213-2.49-.639-3.567a7.752 7.752 0 00-1.802-2.744zm-4.172 9.44c-.505.741-1.229 1.111-2.172 1.112-.941 0-1.677-.364-2.202-1.094-.529-.73-.793-1.779-.792-3.147 0-1.347.258-2.384.773-3.113.517-.728 1.246-1.093 2.189-1.094.942 0 1.671.364 2.187 1.094.515.73.773 1.768.774 3.113 0 1.346-.253 2.389-.757 3.129zm-13.748 5.319v-10.998a8.04 8.04 0 00-.05-.863v-7.962c0-.561-.067-1.016-.2-1.362a1.835 1.835 0 00-.607-.825 2.277 2.277 0 00-.992-.405 7.915 7.915 0 00-1.331-.1 9.48 9.48 0 00-1.514.118 9.17 9.17 0 00-1.077.218v5.217a14.34 14.34 0 00-2.294-.194v.017h-.011a11.63 11.63 0 00-1.826.138c-.568.083-1.128.214-1.675.392a7.666 7.666 0 00-2.792 1.598 7.352 7.352 0 00-1.867 2.709c-.45 1.09-.674 2.374-.674 3.854 0 1.346.208 2.552.622 3.618a7.551 7.551 0 001.819 2.744c.795.762 1.771 1.345 2.927 1.75 1.156.403 2.463.605 3.921.605a14 14 0 001.612-.093h.003c.163-.02.324-.039.481-.064h.006l.026-.006a10.327 10.327 0 001.489-.335c.271-.085.526-.174.771-.266 0 0 1.673.654 3.233.495zm-5.736-4.847a2.488 2.488 0 01-.759.42c-.159.06-.323.105-.491.134a3.499 3.499 0 01-.551.043c-1.095 0-1.935-.333-2.536-.978-.028-.03-.063-.05-.089-.082-.607-.707-.91-1.756-.909-3.148a6.318 6.318 0 01.226-1.762c.161-.564.407-1.034.749-1.4.482-.515 1.117-.839 1.907-.973.276-.042.556-.063.836-.062.628 0 1.166.135 1.616.403l.001 7.405zm-17.166 4.348s1.673.654 3.234.495v-10.997c0-1.055-.19-1.969-.571-2.742a5.08 5.08 0 00-1.634-1.919c-.705-.505-1.558-.881-2.557-1.128-.303-.076-.636-.117-.959-.168a14.512 14.512 0 00-2.346-.202v.018l-.011-.001c-1.17-.01-2.334.166-3.449.521a7.699 7.699 0 00-2.794 1.599c-.074.068-.139.145-.21.214a7.41 7.41 0 00-1.655 2.496c-.451 1.088-.676 2.372-.674 3.853 0 1.347.207 2.552.622 3.617a7.62 7.62 0 001.817 2.744c.796.762 1.772 1.346 2.929 1.75.819.277 1.668.455 2.529.532.31.021.622.041.946.05.15.005.291.025.444.025a13.82 13.82 0 002.052-.149 10.234 10.234 0 001.517-.341c.269-.085.524-.174.769-.266l.001-.001zm-2.453-4.361a2.457 2.457 0 01-.757.42c-.35.129-.721.192-1.094.187-1.095 0-1.935-.334-2.536-.978-.028-.031-.063-.05-.089-.082-.607-.707-.91-1.756-.909-3.148a6.354 6.354 0 01.225-1.762c.162-.564.408-1.036.75-1.4.652-.696 1.583-1.044 2.794-1.044.144.001.287.009.43.024.418.039.823.169 1.186.38v7.403zm-16.803-19.337c-.942 0-1.699.292-2.271.876-.573.583-.859 1.301-.858 2.153 0 .852.286 1.571.858 2.155.572.583 1.329.874 2.271.873.942 0 1.699-.291 2.272-.873.572-.585.857-1.303.857-2.155 0-.852-.286-1.569-.857-2.153-.573-.584-1.331-.877-2.272-.876zm2.02 8.009a2.287 2.287 0 00-.995-.404 8.971 8.971 0 00-2.792.019c-.483.078-.848.14-1.094.185v13.696c0 .562.072 1.015.219 1.363.129.326.345.611.623.825.294.211.634.35.992.404.44.07.885.104 1.33.1.49 0 .98-.039 1.464-.118.481-.078.847-.141 1.093-.186v-13.696c0-.56-.073-1.015-.219-1.363a1.958 1.958 0 00-.621-.825zm-9.108-5.822a2.277 2.277 0 00-.992-.405 7.887 7.887 0 00-1.33-.1c-.49-.001-.98.039-1.463.118-.483.078-.848.14-1.094.185v19.519c0 .562.072 1.015.218 1.363.13.326.344.611.622.825.295.211.635.35.994.404.439.07.883.104 1.328.1.491 0 .981-.039 1.465-.118.482-.078.846-.141 1.094-.185v-19.519c0-.561-.074-1.016-.219-1.362a1.946 1.946 0 00-.623-.825zm-11.104-2.187c-.942 0-1.699.292-2.272.876-.573.583-.859 1.301-.858 2.153 0 .852.286 1.571.858 2.155.572.583 1.329.874 2.272.873.943 0 1.7-.291 2.272-.873.572-.585.858-1.303.857-2.155 0-.852-.285-1.569-.857-2.153-.573-.584-1.33-.877-2.272-.876zm2.019 8.009a2.28 2.28 0 00-.993-.404 8.96 8.96 0 00-2.792.019c-.485.078-.848.14-1.094.185v13.696c0 .562.072 1.015.219 1.363.129.326.345.611.623.825.294.212.634.35.992.404.439.07.884.104 1.328.1.491 0 .981-.039 1.465-.118a59.81 59.81 0 001.094-.186v-13.696c0-.56-.073-1.015-.22-1.363a1.952 1.952 0 00-.622-.825zm-10.347.454a6.393 6.393 0 00-2.189-1.06 9.465 9.465 0 00-2.505-.337c-1.192 0-2.207.146-3.047.437a10.01 10.01 0 00-2.271 1.112 6.696 6.696 0 00-2.306-1.161 9.656 9.656 0 00-2.708-.388 12.441 12.441 0 00-3.551.505c-1.134.337-2.082.775-2.844 1.314a4.359 4.359 0 00-1.06 1.008c-.259.359-.388.842-.387 1.449v10.162c0 .562.072 1.016.22 1.364.128.326.343.611.62.825.295.21.636.349.994.403.44.071.885.104 1.33.1a10.86 10.86 0 001.497-.1 7.774 7.774 0 001.06-.203v-11.811c.24-.131.488-.25.74-.355.332-.13.687-.193 1.044-.185.583 0 1.082.152 1.497.455.416.302.624.79.623 1.464v8.043c0 .562.072 1.016.219 1.364.129.326.345.611.623.825.294.211.634.349.992.403.439.071.884.104 1.329.1.49.001.979-.033 1.465-.1a9.427 9.427 0 001.093-.203v-11.426a.968.968 0 00-.035-.251c.245-.194.518-.347.81-.454a2.675 2.675 0 011.009-.22c.649 0 1.165.152 1.547.455.381.302.572.79.572 1.464v8.043c0 .562.073 1.016.22 1.364.129.325.344.61.621.825.295.211.635.349.994.403.44.071.885.104 1.33.1a10.86 10.86 0 001.497-.1c.357-.043.711-.11 1.059-.203v-10.6c0-1.144-.191-2.114-.572-2.911a5.122 5.122 0 00-1.53-1.919zm-29.243 15.24s1.675.654 3.235.496v-10.997c0-1.055-.191-1.969-.572-2.742a5.075 5.075 0 00-1.632-1.919c-.707-.505-1.559-.881-2.557-1.129-.304-.075-.636-.116-.961-.168a14.623 14.623 0 00-2.345-.201v.018l-.01-.002a11.098 11.098 0 00-3.45.522 7.695 7.695 0 00-2.793 1.599c-.074.068-.14.144-.211.214a7.43 7.43 0 00-1.657 2.496c-.449 1.088-.673 2.372-.673 3.853 0 1.346.207 2.552.622 3.617a7.603 7.603 0 001.818 2.744c.796.762 1.772 1.345 2.928 1.75.819.277 1.669.455 2.531.531.31.021.621.042.945.05.149.006.29.025.444.025.687.002 1.372-.048 2.051-.148a10.206 10.206 0 001.517-.341c.27-.085.526-.174.769-.266l.001-.002zm-2.452-4.36a2.434 2.434 0 01-.757.42c-.35.129-.721.192-1.095.187-1.093 0-1.934-.334-2.534-.978-.028-.031-.063-.052-.09-.082-.606-.707-.909-1.756-.908-3.148a6.354 6.354 0 01.224-1.762c.163-.564.409-1.036.751-1.4.65-.696 1.581-1.044 2.794-1.044.144 0 .287.009.43.024.418.04.822.169 1.185.38v7.403zm-12.147-18.671c-.565-.357-1.578-.727-3.238-.727a11.091 11.091 0 00-2.912.37 6.638 6.638 0 00-2.372 1.161 5.638 5.638 0 00-1.599 2.018c-.392.821-.588 2.148-.588 3.292v20.536h1.873c.786-.002 2.243-.386 3.002-1.188.759-.801.845-1.715.846-2.544v-10.182s1.468.007 2.024 0a2.188 2.188 0 001.456-.609c.328-.336.695-.854.742-1.561.046-.707-.017-1.009-.077-1.434a6.87 6.87 0 00-.245-.979h-4.203v-1.838c0-.807.269-1.373.808-1.7.538-.324 1.29-.486 2.255-.487.605 0 1.207.108 1.668.188.459.079 1.259.285 1.259.285.154-.335.28-.682.376-1.038.126-.507.265-1.315.104-2.039-.161-.724-.614-1.166-1.179-1.524z" fill="#242424"/></svg>