<svg width="528" height="278" fill="none" xmlns="http://www.w3.org/2000/svg"><path fill="#24C347" d="M0 0h528v278H0z"/><path d="M323.328 154.488l-1.417-.459.893-2.091h2.067l-1.543 2.55zm-105.353-12.043c-2.293-2.216-5.326-3.489-8.328-3.493h-.023c-4.688 0-7.171 2.172-9.165 3.91-1.664 1.455-2.762 2.42-5.172 2.42h-.013a6.17 6.17 0 01-1.734-.252 5.843 5.843 0 01-3.822-4.182 6.147 6.147 0 01-.056-.243c-.018-.083-.031-.189-.044-.285-.013-.095-.026-.187-.037-.28a5.679 5.679 0 01.622-3.206c.057-.109.115-.217.178-.315a5.808 5.808 0 016.711-2.594 3.033 3.033 0 003.51-2.081 3.043 3.043 0 00-1.729-3.703 11.35 11.35 0 00-3.43-.552 14.213 14.213 0 00-3.25.365c-2.677.691-5.032 2.507-6.616 4.846-.022.03-.044.059-.063.089a12.42 12.42 0 00-.576.949l-.026.055c-.174.319-.33.651-.473.979 0 .013-.011.026-.017.042a11.247 11.247 0 00-.938 4.387c.001.463.025.924.073 1.384.011.124.035.246.052.369.037.287.074.572.128.85l.013.048c.882 4.368 3.942 7.717 8.078 8.925 1.148.361 2.343.544 3.546.543 3.781 0 7.207-2.326 9.081-3.968 1.665-1.458 2.765-2.422 5.182-2.422h.013c1.449 0 2.955.651 4.132 1.792a5.915 5.915 0 011.885 4.261c0 5.459-8.137 13.701-20.369 13.701h-.039c-13.715-.022-25.011-11.248-25.182-25.029a25.386 25.386 0 017.292-18.135 25.261 25.261 0 0117.996-7.542h.039a25.105 25.105 0 0117.864 7.444 3.03 3.03 0 004.172-.109 3.046 3.046 0 00.117-4.181A31.114 31.114 0 00195.395 108h-.047a31.31 31.31 0 00-22.307 9.347 31.462 31.462 0 00-9.038 22.478c.216 17.082 14.221 30.999 31.228 31.023h.049c15.115 0 26.422-10.426 26.437-19.767a11.94 11.94 0 00-3.74-8.641m16.536 17.729a5.346 5.346 0 01.314-1.829c.2-.562.51-1.079.911-1.521a4.44 4.44 0 011.441-1.038 4.497 4.497 0 011.902-.387 4.369 4.369 0 012.423.652 4.063 4.063 0 011.497 1.707l-2.167.704a2.03 2.03 0 00-2.663-.853 2.2 2.2 0 00-.719.562 2.638 2.638 0 00-.481.869 3.494 3.494 0 00-.174 1.125c-.004.383.057.764.182 1.125.11.32.275.618.488.88.196.24.441.435.719.571.273.136.573.206.878.205.389.001.771-.109 1.101-.318.307-.179.553-.449.702-.773l2.167.702a3.81 3.81 0 01-1.474 1.725 4.432 4.432 0 01-2.466.669 4.562 4.562 0 01-1.902-.387 4.382 4.382 0 01-1.439-1.047 4.682 4.682 0 01-.919-1.531 5.211 5.211 0 01-.321-1.812zm13.882 4.783a4.532 4.532 0 01-1.903-.387 4.285 4.285 0 01-1.43-1.047 4.63 4.63 0 01-.901-1.52 5.232 5.232 0 01-.315-1.812 5.304 5.304 0 01.315-1.829c.2-.56.506-1.076.901-1.52a4.258 4.258 0 011.43-1.047 4.501 4.501 0 011.903-.387c.653-.012 1.3.12 1.896.387a4.268 4.268 0 011.422 1.047c.395.444.701.96.901 1.52a5.28 5.28 0 01.314 1.829 5.232 5.232 0 01-.314 1.812 4.738 4.738 0 01-.893 1.52c-.395.447-.88.803-1.423 1.047-.6.265-1.248.397-1.903.387zm-2.267-4.779c-.004.38.054.758.174 1.119.107.316.27.61.481.869a2.06 2.06 0 003.226 0c.213-.261.375-.56.479-.88a3.44 3.44 0 00.174-1.125 3.388 3.388 0 00-.174-1.108 2.759 2.759 0 00-.479-.869 2.16 2.16 0 00-.719-.571 2.024 2.024 0 00-1.788.015c-.277.142-.521.34-.719.58-.212.262-.375.56-.481.88a3.46 3.46 0 00-.174 1.101v-.011zm16.348 4.605h-2.217v-5.172c0-.739-.121-1.278-.364-1.618a1.175 1.175 0 00-1.01-.511 1.816 1.816 0 00-.678.141 2.473 2.473 0 00-.65.396 3.112 3.112 0 00-.555.608c-.167.234-.29.496-.364.773v5.383h-2.219v-9.217h2v1.706a3.371 3.371 0 011.391-1.371 4.22 4.22 0 012.052-.493c.462-.021.92.089 1.322.317.332.201.607.485.795.825.195.363.326.756.388 1.162.072.436.109.877.109 1.319v5.752zm2.648 0v-7.094h-1.3v-2.127h1.3v-2.987h2.282v2.991h2.002v2.123h-2.002v7.09l-2.282.004zm10.72-7.177a4.15 4.15 0 00-1.803.412 2.36 2.36 0 00-1.142 1.188v5.577h-2.217v-9.217h2.039v1.97c.148-.305.331-.591.546-.854.202-.24.43-.459.678-.651.225-.178.473-.324.737-.435.228-.095.472-.146.72-.15h.273a.84.84 0 01.173.018l-.004 2.142zm4.815 7.352a3.673 3.673 0 01-1.645-.37 3.952 3.952 0 01-1.3-1.021 4.828 4.828 0 01-.852-1.52 5.639 5.639 0 01-.305-1.875 5.752 5.752 0 01.297-1.872 4.935 4.935 0 01.819-1.521 3.85 3.85 0 011.233-1.01 3.268 3.268 0 011.538-.369 3.182 3.182 0 011.734.482 3.39 3.39 0 011.192 1.303v-1.52h2.216v9.095h-2.212v-1.497a3.363 3.363 0 01-1.101 1.232 2.885 2.885 0 01-1.614.463zm2.715-5.735a3.022 3.022 0 00-.904-1.303 2.023 2.023 0 00-1.33-.502 1.836 1.836 0 00-.919.237 2.38 2.38 0 00-.728.634c-.208.27-.367.573-.472.897-.111.337-.167.69-.165 1.045-.002.362.057.722.173 1.064.108.318.273.612.488.869.207.245.464.443.754.58.296.144.622.218.951.217a2.01 2.01 0 001.283-.423c.373-.302.67-.687.867-1.125l.002-2.19zm12.209 5.736a4.566 4.566 0 01-1.886-.378 4.309 4.309 0 01-1.439-1.029 4.587 4.587 0 01-.918-1.521 5.151 5.151 0 01-.323-1.814 5.401 5.401 0 01.314-1.855 4.589 4.589 0 01.91-1.52 4.327 4.327 0 011.448-1.047 4.553 4.553 0 011.911-.387 4.43 4.43 0 011.894.387c.54.245 1.024.599 1.424 1.038.396.442.699.959.892 1.521.204.576.308 1.183.306 1.794v.434a2.075 2.075 0 01-.041.352h-6.709c.025.335.11.663.249.969.125.27.298.514.511.721a2.24 2.24 0 001.541.615c.439 0 .87-.119 1.248-.343.366-.198.649-.519.802-.906l1.903.562a4.015 4.015 0 01-1.53 1.738 4.524 4.524 0 01-2.507.669zm2.251-5.558a2.515 2.515 0 00-.719-1.662 2.21 2.21 0 00-2.384-.459c-.257.111-.49.269-.687.468a2.41 2.41 0 00-.488.721c-.128.294-.202.61-.216.932h4.494zm3.673-7.458h2.217v12.839h-2.217v-12.839zm7.71 8.229a5.275 5.275 0 01.314-1.829c.199-.563.509-1.08.91-1.521.405-.44.895-.793 1.439-1.038a4.532 4.532 0 011.903-.387 4.37 4.37 0 012.425.652 4.085 4.085 0 011.497 1.708l-2.167.703a2.03 2.03 0 00-2.663-.853 2.227 2.227 0 00-.72.562 2.64 2.64 0 00-.478.869c-.121.363-.18.743-.176 1.125-.005.383.057.764.182 1.126.109.32.275.618.49.879.196.241.441.435.719.572.27.134.566.204.867.204.39.002.772-.108 1.101-.317.308-.179.554-.45.704-.774l2.167.702a3.796 3.796 0 01-1.473 1.725 4.42 4.42 0 01-2.464.669 4.547 4.547 0 01-1.903-.387 4.4 4.4 0 01-1.441-1.047 4.694 4.694 0 01-.917-1.531 5.16 5.16 0 01-.316-1.812zm13.45 4.786a3.672 3.672 0 01-1.644-.37 3.952 3.952 0 01-1.3-1.021 4.809 4.809 0 01-.852-1.52 5.64 5.64 0 01-.306-1.875 5.806 5.806 0 01.297-1.872 4.957 4.957 0 01.819-1.521 3.897 3.897 0 011.233-1.01 3.274 3.274 0 011.539-.369 3.176 3.176 0 011.733.482c.506.321.917.771 1.192 1.303v-1.52h2.217v9.095h-2.217v-1.497a3.363 3.363 0 01-1.101 1.232 2.872 2.872 0 01-1.61.463zm2.711-5.735a3.028 3.028 0 00-.903-1.303 2.027 2.027 0 00-1.331-.502 1.841 1.841 0 00-.919.237 2.38 2.38 0 00-.728.634c-.207.27-.367.573-.472.897a3.368 3.368 0 00.009 2.109c.107.318.273.613.489.869.206.246.463.444.752.58.297.144.622.218.952.217.463.011.916-.138 1.282-.423.374-.302.671-.687.867-1.125l.002-2.19zm12.28 5.56h-2.216v-5.172c0-.739-.122-1.278-.364-1.618a1.177 1.177 0 00-1.01-.511 1.812 1.812 0 00-.678.141 2.495 2.495 0 00-.651.396 3.19 3.19 0 00-.552.608c-.167.234-.29.496-.364.773v5.383h-2.221v-9.217h2v1.706a3.371 3.371 0 011.391-1.371 4.214 4.214 0 012.052-.493c.462-.021.92.089 1.322.317.332.201.606.485.795.825.194.363.326.756.388 1.162.072.436.108.877.108 1.319v5.752zm1.389-4.609a5.347 5.347 0 01.315-1.829c.2-.562.509-1.079.91-1.521a4.45 4.45 0 011.441-1.038 4.5 4.5 0 011.902-.387 4.369 4.369 0 012.423.652 4.063 4.063 0 011.497 1.707l-2.166.704a2.032 2.032 0 00-2.655-.847 2.202 2.202 0 00-.719.563 2.63 2.63 0 00-.482.869 3.52 3.52 0 00-.173 1.125c-.005.383.057.763.182 1.125.11.32.275.618.488.88.191.239.431.435.704.573.273.136.573.206.878.204.389.002.771-.108 1.1-.317.308-.179.553-.449.703-.773l2.166.701a3.796 3.796 0 01-1.473 1.725 4.418 4.418 0 01-2.466.669 4.546 4.546 0 01-1.903-.386 4.417 4.417 0 01-1.439-1.047 4.736 4.736 0 01-.918-1.532 5.203 5.203 0 01-.315-1.82zm13.899 4.785a4.545 4.545 0 01-1.885-.378 4.33 4.33 0 01-1.441-1.029 4.629 4.629 0 01-.917-1.521 5.125 5.125 0 01-.323-1.814 5.402 5.402 0 01.315-1.855c.2-.562.509-1.079.91-1.52a4.333 4.333 0 011.447-1.047 4.557 4.557 0 011.912-.387 4.46 4.46 0 011.894.387 4.367 4.367 0 011.423 1.038c.396.442.699.959.893 1.521.204.576.307 1.183.306 1.794v.434a1.891 1.891 0 01-.042.352h-6.706c.025.335.108.663.247.969.125.27.299.514.513.721.205.197.447.352.711.456.263.106.544.16.828.159.44 0 .872-.119 1.25-.343.365-.199.649-.519.802-.906l1.902.562a4.03 4.03 0 01-1.529 1.738 4.524 4.524 0 01-2.51.669zm2.252-5.558a2.519 2.519 0 00-.722-1.662 2.126 2.126 0 00-1.547-.626 2.092 2.092 0 00-.834.167c-.257.111-.49.269-.687.467a2.379 2.379 0 00-.488.722c-.128.294-.202.61-.217.932h4.495zM364 157.6a4.177 4.177 0 00-1.805.413 2.356 2.356 0 00-1.142 1.188v5.576h-2.217v-9.217h2.035v1.971a4.247 4.247 0 011.226-1.521c.224-.178.471-.324.735-.434.228-.096.472-.147.719-.15h.273c.059 0 .118.006.176.017v2.157zm-124.919-11.567a4.567 4.567 0 01-1.887-.378 4.302 4.302 0 01-1.439-1.03 4.56 4.56 0 01-.919-1.52 5.136 5.136 0 01-.323-1.812 5.478 5.478 0 01.314-1.855 4.59 4.59 0 01.911-1.531 4.375 4.375 0 011.447-1.047 4.603 4.603 0 011.911-.387c.653-.01 1.3.122 1.896.387.54.246 1.023.599 1.422 1.038.396.442.699.959.893 1.521.205.575.31 1.183.308 1.794v.434a2.076 2.076 0 01-.042.352h-6.709c.025.335.109.662.247.967.122.272.293.519.505.728a2.23 2.23 0 001.539.617c.439 0 .87-.119 1.248-.344a1.79 1.79 0 00.804-.905l1.903.562a4.008 4.008 0 01-1.532 1.738 4.524 4.524 0 01-2.497.671zm2.25-5.559a2.516 2.516 0 00-.72-1.661 2.13 2.13 0 00-1.547-.624 2.126 2.126 0 00-1.521.632 2.453 2.453 0 00-.49.722c-.127.295-.201.61-.217.931h4.495zm6.916 5.558a6.36 6.36 0 01-2.134-.369 5.096 5.096 0 01-1.788-1.056l.828-1.477c.474.368.994.673 1.547.906.474.2.983.305 1.498.308.366.02.729-.072 1.042-.265a.87.87 0 00.379-.755.756.756 0 00-.446-.722 9.28 9.28 0 00-1.457-.527 18.436 18.436 0 01-1.438-.474 3.657 3.657 0 01-.96-.519 1.755 1.755 0 01-.529-.669 2.248 2.248 0 01-.165-.906 3.01 3.01 0 01.256-1.266c.165-.37.411-.697.719-.958a3.246 3.246 0 011.084-.609c.434-.145.89-.218 1.348-.217a5.477 5.477 0 011.829.3 4.415 4.415 0 011.564.967l-.895 1.425a5.038 5.038 0 00-1.28-.774 3.313 3.313 0 00-1.231-.243 1.684 1.684 0 00-.943.248.87.87 0 00-.381.79.787.787 0 00.091.404.803.803 0 00.29.283c.161.094.332.171.509.23.217.076.484.156.802.239.596.163 1.107.328 1.532.491.373.136.724.326 1.042.562.253.193.458.443.596.73.133.315.198.654.189.995a2.63 2.63 0 01-.943 2.138c-.622.527-1.474.79-2.555.79zm10.142 0a3.242 3.242 0 01-1.786-.484 3.331 3.331 0 01-1.192-1.303v5.365h-2.216v-12.97h1.935v1.583a3.65 3.65 0 011.241-1.275 3.29 3.29 0 011.753-.467 3.52 3.52 0 011.621.378c.493.249.93.596 1.283 1.021.371.451.656.967.843 1.521.207.591.311 1.213.308 1.839a6.15 6.15 0 01-.282 1.881 4.924 4.924 0 01-.786 1.521 3.707 3.707 0 01-1.199 1.021 3.206 3.206 0 01-1.523.369zm-.743-2.005c.318.006.634-.068.916-.217.282-.152.528-.362.722-.617.204-.27.36-.574.461-.897.111-.34.168-.696.167-1.053a3.122 3.122 0 00-.182-1.087 2.712 2.712 0 00-.505-.868 2.343 2.343 0 00-.76-.58 2.16 2.16 0 00-.954-.218 2.004 2.004 0 00-.65.115 2.23 2.23 0 00-.613.326 2.828 2.828 0 00-.505.491 2.086 2.086 0 00-.338.617v2.172c.185.507.499.956.91 1.304.366.327.84.51 1.331.512zm9.612 2.008a3.713 3.713 0 01-1.647-.369 3.919 3.919 0 01-1.3-1.021 4.819 4.819 0 01-.854-1.521 5.621 5.621 0 01-.305-1.872 5.741 5.741 0 01.299-1.875 4.846 4.846 0 01.817-1.521 3.917 3.917 0 011.233-1.012 3.304 3.304 0 011.538-.369 3.179 3.179 0 011.734.484c.506.32.918.77 1.192 1.304v-1.521h2.216v9.093h-2.21v-1.494a3.36 3.36 0 01-1.101 1.231 2.863 2.863 0 01-1.612.463zm2.713-5.728a3.024 3.024 0 00-.901-1.304c-.37-.322-.843-.5-1.333-.501a1.838 1.838 0 00-.919.239 2.45 2.45 0 00-.728.632c-.206.27-.365.573-.47.897a3.324 3.324 0 00.009 2.111c.106.318.272.613.487.869.207.244.463.442.752.58.297.144.622.218.951.217.464.011.916-.138 1.283-.421.373-.303.67-.689.867-1.128l.002-2.191zm12.285 5.55h-2.226v-5.172c0-.738-.121-1.277-.364-1.616a1.169 1.169 0 00-1.01-.51c-.233.002-.463.05-.678.141a2.486 2.486 0 00-.65.395c-.211.177-.397.38-.555.606a2.542 2.542 0 00-.364.774v5.382h-2.219v-9.216h1.998v1.709a3.371 3.371 0 011.389-1.373 4.253 4.253 0 012.052-.493c.463-.019.921.091 1.324.317.333.201.607.487.794.828.196.361.328.754.39 1.16.071.436.106.877.106 1.318l.013 5.75zm-2.796-10.587a1.614 1.614 0 01-.65-.124 4.14 4.14 0 01-.541-.271 8.748 8.748 0 00-.479-.272 1.084 1.084 0 00-.505-.124.7.7 0 00-.434.124.88.88 0 00-.238.28.839.839 0 00-.1.291 2.522 2.522 0 00-.017.15h-1.224c.012-.182.046-.362.099-.536.073-.266.181-.52.323-.756.155-.259.357-.486.596-.669.264-.199.589-.302.919-.291a1.5 1.5 0 01.65.132c.176.085.347.18.514.283.16.099.318.193.478.28.165.09.35.135.538.132a.795.795 0 00.737-.404.971.971 0 00.117-.3 1.47 1.47 0 00.023-.175h1.225a2.383 2.383 0 01-.1.493 2.805 2.805 0 01-.966 1.451c-.28.211-.623.319-.973.306h.008zm8.727 10.764a4.501 4.501 0 01-1.903-.387 4.238 4.238 0 01-1.43-1.047 4.65 4.65 0 01-.902-1.52 5.43 5.43 0 010-3.641 4.65 4.65 0 01.902-1.52 4.285 4.285 0 011.43-1.047 4.532 4.532 0 011.903-.387 4.473 4.473 0 011.896.387 4.278 4.278 0 011.421 1.047c.395.444.701.96.902 1.52a5.394 5.394 0 010 3.641 4.738 4.738 0 01-.893 1.52 4.17 4.17 0 01-1.424 1.047 4.497 4.497 0 01-1.902.387zm-2.267-4.766c-.005.38.054.757.176 1.117.106.316.268.61.478.869.197.239.442.434.72.571a2.082 2.082 0 001.788 0c.277-.137.523-.332.719-.571.212-.262.374-.56.479-.88a3.44 3.44 0 00.173-1.125 3.361 3.361 0 00-.173-1.108 2.713 2.713 0 00-.479-.88 2.165 2.165 0 00-.719-.573 2 2 0 00-.895-.202 1.927 1.927 0 00-.893.217 2.225 2.225 0 00-.72.58 2.716 2.716 0 00-.478.879c-.12.357-.179.73-.176 1.106zm8.323-8.25h2.217v12.839h-2.217v-12.839zm7.86 13.017a3.71 3.71 0 01-1.647-.369 3.945 3.945 0 01-1.3-1.021 4.875 4.875 0 01-.852-1.521 5.621 5.621 0 01-.305-1.872 5.77 5.77 0 01.297-1.875 4.914 4.914 0 01.819-1.521 3.917 3.917 0 011.233-1.012 3.304 3.304 0 011.538-.369 3.179 3.179 0 011.734.484c.506.32.918.77 1.192 1.304v-1.521h2.216v9.093h-2.212v-1.494a3.36 3.36 0 01-1.101 1.231 2.863 2.863 0 01-1.612.463zm2.713-5.728a3.041 3.041 0 00-.901-1.304c-.37-.322-.843-.5-1.333-.501a1.838 1.838 0 00-.919.239c-.283.159-.53.374-.728.632a2.95 2.95 0 00-.47.897 3.296 3.296 0 00-.167 1.047c-.002.362.057.722.175 1.064.107.318.272.613.488.869.207.244.463.442.752.58.296.144.622.218.951.217.463.011.916-.138 1.283-.421.373-.303.67-.689.867-1.128l.002-2.191zm-66.181-13.218a3.697 3.697 0 01-1.647-.369 3.965 3.965 0 01-1.3-1.021 4.813 4.813 0 01-.852-1.521 5.622 5.622 0 01-.306-1.872 5.806 5.806 0 01.297-1.872c.182-.552.46-1.066.819-1.521a3.87 3.87 0 011.233-1.01 3.274 3.274 0 011.539-.369 3.173 3.173 0 011.734.482c.505.321.916.77 1.191 1.303v-1.52h2.217v9.095h-2.212v-1.497a3.372 3.372 0 01-1.101 1.232 2.87 2.87 0 01-1.612.46zm2.713-5.734a3.035 3.035 0 00-.902-1.304 2.038 2.038 0 00-1.332-.502 1.846 1.846 0 00-.919.237c-.283.16-.531.376-.728.634-.208.27-.367.573-.471.898a3.305 3.305 0 00-.166 1.044c-.002.362.056.722.173 1.065.108.318.274.612.49.869.205.248.461.448.752.586.296.144.622.218.951.217a2.01 2.01 0 001.283-.434c.373-.301.67-.687.867-1.125l.002-2.185zm7.495 5.734a6.36 6.36 0 01-2.134-.369 5.175 5.175 0 01-1.788-1.056l.828-1.477c.475.366.995.671 1.547.906.475.198.983.302 1.498.306a1.81 1.81 0 001.042-.263.87.87 0 00.379-.756.755.755 0 00-.446-.721 9.284 9.284 0 00-1.457-.528 19.243 19.243 0 01-1.438-.476 3.584 3.584 0 01-.96-.519 1.741 1.741 0 01-.529-.667 2.262 2.262 0 01-.167-.905 3.004 3.004 0 01.258-1.267c.166-.369.412-.697.719-.96.32-.269.688-.475 1.084-.606.434-.146.89-.22 1.348-.217a5.525 5.525 0 011.829.297c.583.21 1.116.54 1.564.969l-.895 1.425a5.147 5.147 0 00-1.28-.775 3.367 3.367 0 00-1.233-.246 1.716 1.716 0 00-.945.246.866.866 0 00-.379.793.801.801 0 00.091.404c.071.116.17.212.288.28.165.097.34.177.522.239.217.076.483.154.802.237.596.165 1.107.328 1.532.493.373.136.724.325 1.042.562.254.192.458.443.596.73a2.4 2.4 0 01.189.993 2.632 2.632 0 01-.943 2.137c-.628.529-1.483.792-2.564.791zm8.95 0a4.532 4.532 0 01-1.903-.387 4.285 4.285 0 01-1.43-1.047 4.63 4.63 0 01-.901-1.52 5.232 5.232 0 01-.315-1.812 5.276 5.276 0 01.315-1.829c.2-.56.506-1.077.901-1.521a4.275 4.275 0 011.43-1.047 4.516 4.516 0 011.903-.386 4.45 4.45 0 011.896.386 4.281 4.281 0 011.422 1.047c.395.444.701.961.901 1.521.212.586.318 1.205.314 1.829a5.232 5.232 0 01-.314 1.812 4.738 4.738 0 01-.893 1.52c-.395.446-.88.803-1.423 1.047-.6.265-1.249.397-1.903.387zm-2.267-4.768c-.004.379.054.756.174 1.116.107.316.27.611.481.869a2.06 2.06 0 003.228.005c.213-.261.375-.56.479-.88a3.44 3.44 0 00.174-1.125 3.388 3.388 0 00-.174-1.108 2.723 2.723 0 00-.479-.88 2.147 2.147 0 00-.719-.571 2.01 2.01 0 00-.895-.202 1.927 1.927 0 00-.893.217 2.28 2.28 0 00-.719.58c-.212.262-.375.56-.481.88a3.445 3.445 0 00-.176 1.099zm7.743-.017a5.3 5.3 0 01.316-1.829 4.417 4.417 0 012.349-2.544 4.516 4.516 0 011.903-.386 4.377 4.377 0 012.425.651 4.08 4.08 0 011.495 1.708l-2.167.704a2.03 2.03 0 00-2.663-.854 2.196 2.196 0 00-.72.563 2.67 2.67 0 00-.481.868 3.5 3.5 0 00-.173 1.126c-.005.382.057.763.182 1.125.109.32.274.617.487.88.197.24.443.435.722.571.269.134.566.204.867.204.389.002.771-.108 1.101-.317.307-.18.553-.45.704-.773l2.167.701a3.804 3.804 0 01-1.474 1.725 4.411 4.411 0 01-2.464.669 4.53 4.53 0 01-1.902-.387 4.39 4.39 0 01-1.441-1.047 4.711 4.711 0 01-.917-1.531 5.152 5.152 0 01-.316-1.827zm9.885-5.892v-2.338h2.211v2.338h-2.211zm0 10.502v-9.217h2.211v9.217h-2.211zm7.786.175a3.695 3.695 0 01-1.646-.369 3.98 3.98 0 01-1.301-1.021 4.83 4.83 0 01-.851-1.521 5.547 5.547 0 01-.306-1.872 5.736 5.736 0 01.297-1.873 4.952 4.952 0 01.819-1.52 3.87 3.87 0 011.233-1.01 3.272 3.272 0 011.539-.369 3.176 3.176 0 011.733.482c.506.32.917.77 1.19 1.303v-1.52h2.217v9.095h-2.21v-1.497a3.35 3.35 0 01-1.099 1.232c-.481.31-1.043.47-1.615.46zm2.714-5.735a3.003 3.003 0 00-.902-1.303 2.035 2.035 0 00-1.33-.502 1.846 1.846 0 00-.919.237c-.284.16-.531.375-.728.634-.208.27-.368.574-.473.898a3.275 3.275 0 00-.164 1.044c-.002.362.056.722.173 1.065a2.7 2.7 0 00.487.869c.208.245.465.443.755.58.296.144.621.218.951.217.464.008.917-.146 1.281-.435.373-.301.67-.686.866-1.125l.003-2.179zm3.673.95a5.33 5.33 0 01.314-1.829c.2-.562.509-1.079.91-1.52a4.43 4.43 0 011.441-1.024 4.514 4.514 0 011.902-.386 4.368 4.368 0 012.423.651 4.066 4.066 0 011.497 1.708l-2.166.704a2.03 2.03 0 00-2.664-.854 2.156 2.156 0 00-.719.563 2.633 2.633 0 00-.481.868 3.5 3.5 0 00-.174 1.126 3.34 3.34 0 00.182 1.125c.11.32.275.617.488.88.196.24.441.435.719.571.27.134.566.204.867.204.39.002.772-.108 1.101-.317.308-.18.553-.45.702-.773l2.167.701a3.808 3.808 0 01-1.473 1.725 4.428 4.428 0 01-2.466.669 4.532 4.532 0 01-1.903-.387 4.393 4.393 0 01-1.439-1.047 4.716 4.716 0 01-.919-1.531 5.213 5.213 0 01-.309-1.827zm9.547-5.892v-2.338h2.217v2.338h-2.217zm0 10.502v-9.217h2.217v9.217h-2.217zm8.224.176a4.547 4.547 0 01-1.903-.387 4.296 4.296 0 01-1.432-1.047 4.664 4.664 0 01-.902-1.521 5.222 5.222 0 01-.314-1.811 5.275 5.275 0 01.314-1.829c.201-.56.507-1.076.902-1.521a4.283 4.283 0 011.432-1.047 4.5 4.5 0 011.903-.386 4.445 4.445 0 011.894.386 4.31 4.31 0 011.423 1.047c.394.445.7.961.902 1.521.211.586.317 1.205.314 1.829a5.273 5.273 0 01-.314 1.811 4.738 4.738 0 01-.895 1.521 4.211 4.211 0 01-1.422 1.047 4.546 4.546 0 01-1.902.387zm-2.256-4.768c-.006.379.053.757.173 1.116.106.317.268.611.479.869.196.24.441.435.72.571a2.052 2.052 0 001.787 0 2.15 2.15 0 00.72-.571c.212-.261.375-.56.481-.88.119-.363.177-.743.173-1.125a3.45 3.45 0 00-.173-1.108 2.782 2.782 0 00-.481-.879 2.176 2.176 0 00-.72-.572 2.011 2.011 0 00-1.787.015c-.277.143-.522.34-.72.58-.212.262-.374.56-.479.88a3.394 3.394 0 00-.173 1.104zm2.817-5.694l-1.422-.458.893-2.092h2.067l-1.538 2.55zm13.517 10.285h-2.216v-5.172c0-.739-.122-1.278-.364-1.619a1.176 1.176 0 00-1.01-.51 1.821 1.821 0 00-.679.141 2.53 2.53 0 00-.65.395c-.21.178-.396.383-.554.609a2.458 2.458 0 00-.364.773v5.383h-2.219v-9.217h2.002v1.705a3.353 3.353 0 011.389-1.37 4.226 4.226 0 012.052-.494c.462-.02.921.09 1.324.318.332.2.606.485.793.825.196.361.328.754.39 1.16.072.437.107.878.106 1.321v5.752z" fill="#fff"/></svg>