<svg width="528" height="278" fill="none" xmlns="http://www.w3.org/2000/svg"><path fill="#fff" d="M0 0h528v278H0z"/><g clip-path="url(#clip0_2490_2095)"><path d="M262.801 173.77c.626 2.378 2.917 3.645 5.719 3.645 3.854 0 5.572-2.23 5.572-4.399 0-2.439-1.685-3.733-4.608-4.851-2.021-.754-3.315-1.388-3.315-2.742s1.024-1.953 2.385-1.953a2.64 2.64 0 012.56 1.502l1.805-.93a4.606 4.606 0 00-1.801-1.979 4.605 4.605 0 00-2.598-.641c-2.694 0-4.581 1.657-4.581 4.001 0 2.345 1.718 3.47 4.13 4.433 2.412.963 3.793 1.502 3.793 3.16 0 .875-.539 2.317-3.369 2.317-2.256 0-3.462-1.138-3.826-2.29l-1.866.727zm12.288-4.13c0 4.716 3.132 7.802 7.653 7.802a7.661 7.661 0 006.143-2.695l-1.475-1.442a5.78 5.78 0 01-4.668 2.109c-3.2 0-5.302-2.142-5.424-5.484h12.315v-.963c0-4.19-2.775-7.559-6.993-7.559-4.331 0-7.585 3.193-7.585 8.084l.034.148zm2.378-1.657c.148-2.465 2.438-4.486 5.207-4.486a4.567 4.567 0 014.615 4.486h-9.822zm15.245 11.601l-1.145 1.778a12.032 12.032 0 007.194 2.345 8.3 8.3 0 005.12-1.597c2.264-1.778 2.412-4.278 2.412-7.558v-12.679h-2.23v2.257c-.754-1.294-2.405-2.695-5.389-2.695a7.91 7.91 0 000 15.811c2.984 0 4.635-1.414 5.389-2.694v1.259c0 1.658-.182 3.557-1.563 4.716a5.956 5.956 0 01-3.765 1.112 9.648 9.648 0 01-6.023-2.055zm.512-10.24c0-3.368 2.317-5.847 5.45-5.847a5.83 5.83 0 013.996 1.776 5.83 5.83 0 010 8.109 5.834 5.834 0 01-3.996 1.776c-3.133 0-5.45-2.473-5.45-5.814zm15.629 2.223c0 3.409 2.075 5.726 5.45 5.726 2.654 0 4.157-1.145 4.851-2.196.076.555.309 1.077.673 1.503a2.374 2.374 0 001.866.673c.485.039.971-.044 1.415-.242v-1.685a7.56 7.56 0 01-.781.061c-.843 0-1.146-.572-1.146-1.9v-11.654h-2.23v9.067c0 2.56-1.717 4.272-4.122 4.272s-3.766-1.59-3.766-4.123v-9.196h-2.23l.02 9.694zm15.966 5.484h2.23v-8.839a4.033 4.033 0 011.116-3.031 4.038 4.038 0 012.98-1.247c.505-.01 1.01.042 1.502.155v-2.411a6.88 6.88 0 00-.929-.061 4.904 4.904 0 00-4.669 2.803v-2.56h-2.23v15.191zm8.158-7.592a8.087 8.087 0 009.632 7.981 8.086 8.086 0 006.377-6.34 8.085 8.085 0 00-7.925-9.678 7.94 7.94 0 00-5.744 2.306 7.933 7.933 0 00-2.34 5.731zm2.23 0a5.846 5.846 0 115.848 5.968 5.74 5.74 0 01-5.467-3.677 5.746 5.746 0 01-.381-2.291zm14.821 4.311c.633 2.378 2.924 3.645 5.726 3.645 3.854 0 5.571-2.23 5.571-4.399 0-2.439-1.69-3.733-4.607-4.851-1.988-.754-3.315-1.388-3.315-2.742s1.011-1.926 2.358-1.926a2.624 2.624 0 012.56 1.502l1.805-.93a4.578 4.578 0 00-4.365-2.647c-2.695 0-4.581 1.657-4.581 4.001 0 2.345 1.718 3.47 4.13 4.433 2.411.963 3.792 1.502 3.792 3.16 0 .875-.545 2.317-3.368 2.317-2.264 0-3.469-1.138-3.827-2.29l-1.879.727zm-130.477-68.627a5.518 5.518 0 11.002-11.037 5.518 5.518 0 01-.002 11.037zm50.182 0a5.5 5.5 0 003.909-1.608 5.494 5.494 0 001.608-3.91 5.555 5.555 0 00-3.412-5.167 5.558 5.558 0 10-2.105 10.685zm-72.636 32.673a11.404 11.404 0 003.49-8.549 11.398 11.398 0 00-3.49-8.542 11.618 11.618 0 00-8.468-3.416 11.251 11.251 0 00-8.313 3.416 11.834 11.834 0 00-3.267 8.542 11.849 11.849 0 003.267 8.549 11.264 11.264 0 008.313 3.449 11.607 11.607 0 008.468-3.422v-.027zm12.127 12.065a10.05 10.05 0 01-5.208-1.226 7.69 7.69 0 01-3.2-5.012c-2.695 4.116-7.222 6.131-13.44 6.131a18.583 18.583 0 01-13.972-5.902c-3.732-3.954-5.598-8.778-5.598-14.605s1.866-10.637 5.598-14.524a18.585 18.585 0 0113.979-5.902c6.292 0 11.035 2.796 12.51 6.521V94.701h9.317l.014 55.18zm15.171-39.571h-9.324v29.641c0 6.602 3.368 9.944 9.324 9.944.087 0 0-39.599 0-39.599v.014zm50-.014h-9.331v29.642c0 6.602 3.039 9.943 9.021 9.943h.31v-39.585zm26.569-1.347a12.327 12.327 0 00-11.29 6.986v-5.625h-9.243v39.538h9.243v-22.905c0-5.39 3.651-9.081 8.858-9.081 5.208 0 8.233 3.368 8.233 8.697v13.069c0 6.838 3.031 10.253 9.168 10.253v-25.916c0-8.953-6.171-15.023-14.996-15.023l.027.007zm48.215 28.961a11.453 11.453 0 003.496-8.549 11.401 11.401 0 00-3.496-8.542 11.617 11.617 0 00-8.468-3.422 11.213 11.213 0 00-8.306 3.422 11.806 11.806 0 00-3.268 8.542 11.841 11.841 0 003.295 8.536 11.212 11.212 0 003.797 2.573 11.22 11.22 0 004.509.842 11.616 11.616 0 008.468-3.415l-.027.013zm12.153 11.783a10.112 10.112 0 01-5.207-1.233 7.228 7.228 0 01-3.187-4.716c-2.695 4.116-7.222 6.137-13.473 6.137a18.593 18.593 0 01-13.952-5.921c-3.732-3.961-5.592-8.758-5.592-14.605 0-5.848 1.86-10.644 5.592-14.525a18.602 18.602 0 0113.979-5.901c6.292 0 11.028 2.796 12.51 6.521v-5.679h9.323l.007 39.922zm-98.686-44.638s-3.416-.04-4.554 0c-3.106.108-5.268 2.695-6.313 5.053-1.044 2.358-8.373 26.347-8.373 26.347l-.148.243s-3.369-7.559-4.379-9.843c-1.011-2.283-3.685-3.503-6.798-3.611-1.138-.04-4.554 0-4.554 0l12.362 26.61h7.916l14.841-44.799z" fill="#F7BE00"/><path fill-rule="evenodd" clip-rule="evenodd" d="M361.33 134.24l-.005-24.469h-9.323v5.679c-1.482-3.725-6.218-6.521-12.51-6.521a18.602 18.602 0 00-13.979 5.901c-3.732 3.881-5.592 8.677-5.592 14.525 0 1.717.161 3.344.482 4.885h9.636a11.86 11.86 0 01-.902-4.879 11.806 11.806 0 013.268-8.542 11.22 11.22 0 018.306-3.422 11.61 11.61 0 018.468 3.422 11.405 11.405 0 013.496 8.542 11.447 11.447 0 01-.947 4.879h9.602zm-45.397 0v-10.275c0-8.953-6.171-15.023-14.996-15.023l.027.007a12.327 12.327 0 00-11.29 6.986v-5.625h-9.243v23.93h9.243v-7.297c0-5.39 3.651-9.081 8.858-9.081 5.208 0 8.233 3.368 8.233 8.697v7.681h9.168zm-41.538 0v-23.944h-9.331v23.944h9.331zm-21.417 0l9.668-29.185s-3.416-.04-4.554 0c-3.106.108-5.268 2.695-6.313 5.053-.849 1.917-5.854 18.137-7.694 24.132h8.893zm-10.815 0a4173.474 4173.474 0 01-3.284-7.385c-1.011-2.283-3.685-3.503-6.798-3.611-1.138-.04-4.554 0-4.554 0l5.108 10.996h9.528zm-17.732 0c-.008-11.067-.036-23.944-.036-23.944v.014h-9.324v23.93h9.36zm-15.211 0l-.01-39.54h-9.317v20.662c-1.475-3.725-6.218-6.521-12.51-6.521a18.585 18.585 0 00-13.979 5.902c-3.732 3.887-5.598 8.697-5.598 14.524 0 1.747.168 3.403.503 4.973h9.663a11.858 11.858 0 01-.923-4.973 11.836 11.836 0 013.267-8.542 11.265 11.265 0 018.313-3.416 11.618 11.618 0 018.468 3.416 11.4 11.4 0 013.49 8.542 11.428 11.428 0 01-.982 4.973h9.615zm7.266-30.027a5.518 5.518 0 106.132-9.177 5.518 5.518 0 00-6.132 9.177zm55.362.517a5.5 5.5 0 01-2.115.413 5.554 5.554 0 01-5.167-3.412 5.554 5.554 0 014.052-7.599 5.558 5.558 0 016.632 5.493 5.482 5.482 0 01-3.402 5.105z" fill="#004A98"/></g><defs><clipPath id="clip0_2490_2095"><path fill="#fff" transform="translate(164 94)" d="M0 0h200v89.679H0z"/></clipPath></defs></svg>