<svg width="528" height="278" viewBox="0 0 528 278" fill="none" xmlns="http://www.w3.org/2000/svg">
<rect width="528" height="278" fill="#8CABD1"/>
<path fill-rule="evenodd" clip-rule="evenodd" d="M328.846 158.7C328.102 158.7 327.013 158.3 326.368 158V155.2H326.864C327.062 156.4 327.508 158 328.945 158C329.738 158 330.283 157.45 330.283 156.7C330.283 154.75 326.368 155.2 326.368 152.55C326.368 150.9 327.905 150.05 329.342 150.05C330.134 150.05 330.778 150.3 331.472 150.65L331.324 152.95H330.828C330.63 152 330.333 150.75 329.143 150.75C328.499 150.75 327.954 151.3 327.954 151.95C327.954 153.9 331.918 153.5 331.918 156.2C331.918 157.95 330.382 158.7 328.846 158.7ZM321.412 158.7C320.718 158.7 319.578 158.3 318.934 158V155.2H319.43C319.628 156.4 320.124 158 321.561 158C322.305 158 322.85 157.45 322.85 156.7C322.85 154.75 318.984 155.2 318.984 152.55C318.984 150.9 320.521 150.05 321.958 150.05C322.701 150.05 323.394 150.3 324.039 150.65L323.94 152.95H323.444C323.197 152 322.899 150.75 321.71 150.75C321.066 150.75 320.57 151.3 320.57 151.95C320.57 153.9 324.534 153.5 324.534 156.2C324.534 157.95 322.949 158.7 321.412 158.7ZM319.43 120.85C318.984 120.85 318.439 120.9 317.943 121.05V136.5C317.943 139.15 318.984 139.8 321.61 139.8C326.962 139.8 329.838 135.75 329.838 130.65C329.838 124.35 325.377 120.85 319.43 120.85V120.85ZM316.754 157.5C316.705 157.85 316.556 158.15 316.457 158.5H309.568V157.95C310.906 157.75 311.104 157.7 311.154 156.3C311.204 155.8 311.204 155.3 311.204 154.85V153.75C311.204 153.3 311.204 152.85 311.154 152.4C311.104 151.1 310.857 150.9 309.568 150.8V150.25H316.556L316.506 152.7H315.961C315.912 152.25 315.862 151.7 315.515 151.4C315.019 150.95 313.682 150.95 313.038 150.95H312.839L312.79 153.75C313.136 153.75 314.524 153.8 314.772 153.6C314.92 153.5 315.069 152.8 315.118 152.65H315.614V156.05H315.069C314.97 155.05 314.97 154.75 313.93 154.75H312.79V156.2C312.839 157.35 312.79 157.8 314.127 157.8C315.664 157.8 316.308 156.6 316.705 155.3L317.2 155.4C317.051 156.1 316.952 156.85 316.754 157.5V157.5ZM308.874 158.55C308.181 158.55 307.536 158.55 306.892 158.4C305.058 158 304.018 155.65 303.175 154.15C304.117 153.9 304.86 153.7 304.86 152.5C304.86 151.3 303.77 150.9 302.778 150.8V154.9C302.778 156.85 302.382 157.75 304.612 157.95V158.5H299.607V157.95C301.441 157.7 301.193 157 301.193 155.3V154.2C301.193 153.6 301.143 153.05 301.143 152.45C301.143 151.05 300.846 150.95 299.558 150.75V150.25C300.747 150.25 301.936 150.2 303.126 150.2C304.563 150.2 306.743 150.5 306.743 152.4C306.743 153.45 306 154 305.158 154.35C305.851 155.8 307.338 157.75 308.974 158.05V158.55H308.874V158.55ZM294.651 155.25V154.7C295.89 154.5 296.534 154.35 296.534 152.85C296.534 151.4 295.147 150.9 293.908 150.85V154.5C293.908 155.05 293.958 155.6 293.958 156.15C294.007 157.7 294.205 157.85 295.791 157.95V158.5H290.686V157.95C291.034 157.9 291.826 157.8 292.074 157.5C292.372 157.1 292.322 155.25 292.322 154.7C292.322 153.9 292.47 151.6 291.926 151.15C291.629 150.95 291.083 150.85 290.686 150.8V150.3C291.876 150.25 293.066 150.2 294.205 150.2C295.692 150.2 298.368 150.65 298.368 152.6C298.368 154.8 296.386 155.15 294.651 155.25V155.25ZM331.026 137.15C328.797 139.45 325.526 140.8 322.305 140.8L311.104 140.85H310.857C310.609 140.9 310.213 140.85 309.965 140.85C307.288 140.8 306.248 140.65 303.919 139.199C299.954 136.7 298.17 133.9 295.346 130.15C297.625 130.15 300.896 128 300.896 125.5C300.896 122.1 297.526 120.85 294.702 120.85H294.651C294.602 126.05 294.503 131.2 294.503 136.4C294.503 139.6 295.543 139.5 298.566 139.9V140.85H290.836C290.885 135.4 291.034 130 291.034 124.6C291.034 123.8 291.034 121.75 290.339 121.15C289.894 120.75 288.902 120.8 288.308 120.8V119.9C290.984 119.85 293.611 119.75 296.238 119.75C299.558 119.75 304.86 120.35 304.86 124.8C304.86 127.75 302.382 129.7 299.756 130.45C301.639 132.7 307.586 139.9 310.758 139.9C313.781 139.9 314.623 138.6 314.623 135.65V125.05C314.623 121.85 314.078 121.15 310.857 120.65V119.85C313.731 119.8 316.605 119.75 319.479 119.75C326.666 119.75 334 121.7 334 130.3C334 132.9 332.861 135.3 331.026 137.15V137.15ZM283.65 151.15C283.104 151.55 281.222 154.7 281.222 155.25C281.222 157.1 280.974 157.75 283.006 157.95V158.5H277.851V157.95C279.834 157.75 279.586 157.15 279.586 155.35C279.19 154.6 277.455 151.5 276.711 151.1C276.414 150.9 275.968 150.8 275.671 150.8V150.25H279.982V150.75C279.685 150.85 279.041 150.9 279.041 151.3C279.041 151.75 280.429 153.7 280.775 154.25C281.023 153.75 282.014 151.9 282.014 151.3C282.014 150.9 281.518 150.8 281.222 150.75V150.25H284.74V150.75C284.343 150.85 283.947 150.9 283.65 151.15V151.15ZM274.581 153.05H274.482C274.085 151.05 273.688 151.2 271.806 151.15V155.25C271.806 157.15 271.558 157.7 273.54 157.95V158.5H268.485V157.95C269.823 157.75 270.121 157.7 270.17 156.3C270.219 155.65 270.219 155.05 270.219 154.4C270.219 153.3 270.219 152.25 270.17 151.15C268.238 151.15 267.89 151 267.543 153.1L266.998 153.05C267.098 152.1 267.146 151.15 267.197 150.25C268.038 150.3 268.882 150.4 269.773 150.4C270.616 150.4 271.409 150.35 272.251 150.35C273.144 150.35 274.035 150.35 274.878 150.25C274.878 150.4 274.829 150.55 274.829 150.7C274.829 151.5 274.927 152.3 274.977 153.05H274.581V153.05ZM280.429 123.85C278.991 121.6 276.91 120.1 274.184 120.1C268.634 120.1 266.85 125.2 266.85 129.95C266.85 132.25 267.246 134.85 268.485 136.8C269.922 139 272.102 140.5 274.778 140.5C280.478 140.5 282.014 135.4 282.014 130.55C282.014 128.3 281.618 125.75 280.429 123.85V123.85ZM274.382 141.6C267.692 141.6 262.686 137.15 262.686 130.25C262.686 123.35 267.79 119 274.432 119C281.271 119 286.177 123.4 286.177 130.45C286.177 137.25 280.924 141.6 274.382 141.6V141.6ZM260.902 158.5V157.95C262.241 157.75 262.489 157.7 262.538 156.3V154.45C262.538 153.75 262.686 151.55 262.191 151.15C261.943 150.95 261.25 150.8 260.903 150.75V150.25H265.809V150.75C263.975 151.05 264.124 151.65 264.124 153.4V155.05C264.124 155.4 264.174 155.75 264.174 156.15C264.223 157.6 264.372 157.8 265.809 157.95V158.5H260.902V158.5ZM256.343 158.7C255.65 158.7 254.51 158.3 253.866 158V155.2H254.362C254.559 156.4 255.055 158 256.492 158C257.236 158 257.78 157.45 257.78 156.7C257.78 154.75 253.915 155.2 253.915 152.55C253.915 150.9 255.451 150.05 256.888 150.05C257.632 150.05 258.326 150.3 258.97 150.65L258.871 152.95H258.375C258.127 152 257.83 150.75 256.641 150.75C255.997 150.75 255.501 151.3 255.501 151.95C255.501 153.9 259.466 153.5 259.466 156.2C259.466 157.95 257.879 158.7 256.343 158.7V158.7ZM252.726 158.55C252.082 158.55 251.438 158.55 250.793 158.4C248.959 158 247.869 155.65 247.026 154.15C247.968 153.9 248.761 153.7 248.761 152.5C248.761 151.3 247.622 150.9 246.63 150.8V154.9C246.63 156.85 246.234 157.75 248.464 157.95V158.5H243.458V157.95C245.342 157.7 245.044 157 245.044 155.3V152.45C244.994 151.05 244.747 150.95 243.409 150.75V150.25C244.598 150.25 245.788 150.2 246.977 150.2C248.414 150.2 250.594 150.5 250.594 152.4C250.594 153.45 249.901 154 249.009 154.35C249.753 155.8 251.239 157.75 252.874 158.05V158.55H252.726V158.55ZM241.327 158.5H234.439V157.95C235.826 157.75 236.025 157.7 236.074 156.3V152.4C236.025 151.1 235.727 150.9 234.439 150.8V150.25H241.476L241.377 152.7H240.881C240.782 152.25 240.782 151.7 240.386 151.4C239.89 150.95 238.602 150.95 237.908 150.95H237.71L237.66 153.75C238.007 153.75 239.394 153.8 239.692 153.6C239.841 153.5 239.99 152.8 240.039 152.65H240.535V152.8C240.535 153.85 240.485 154.95 240.485 156.05H239.989C239.89 155.05 239.841 154.75 238.8 154.75H237.66L237.71 156.2C237.71 157.35 237.71 157.8 239.048 157.8C240.534 157.8 241.179 156.6 241.576 155.3L242.071 155.4C241.922 156.5 241.674 157.45 241.327 158.5V158.5ZM232.705 151.2C232.011 151.85 229.483 157.85 228.987 159H228.739L225.717 152.05C225.321 151.15 225.023 150.9 224.032 150.75V150.25H228.64V150.75C228.342 150.8 227.401 150.95 227.401 151.4C227.401 152.05 229.037 155.6 229.383 156.25C229.631 155.6 231.217 152.15 231.217 151.45C231.217 151 230.177 150.85 229.83 150.75V150.25H233.744V150.75C233.398 150.85 232.952 150.95 232.704 151.2H232.705ZM218.63 158.5V157.95C219.968 157.75 220.166 157.7 220.216 156.3C220.266 155.7 220.266 155.05 220.266 154.45C220.266 153.75 220.365 151.55 219.87 151.15C219.622 150.95 218.927 150.8 218.63 150.75V150.25H223.536V150.75C221.653 151.05 221.851 151.65 221.851 153.4V155.05C221.851 155.4 221.851 155.75 221.901 156.15C221.95 157.6 222.099 157.8 223.536 157.95V158.5H218.63V158.5ZM260.01 124.45C259.565 120.8 256.244 120.95 253.419 120.95H251.536V129.05H253.717C255.005 129.05 256.294 129.05 257.533 128.85V134.05H256.789C256.591 130.1 254.857 130.75 251.536 130.75V135.9C251.536 139.6 251.982 139.4 255.501 140.05V140.85H234.885L229.285 132C228.393 133.1 225.469 137.1 225.469 138.35C225.469 139.45 227.005 139.8 227.798 140.1L227.749 140.85H218.531V139.9C222.298 139.7 223.387 138.2 225.37 135.25L228.442 130.85L225.122 125.3C223.635 122.85 221.752 120.75 218.73 120.7V119.75H225.717L230.871 127.8C231.614 126.65 233.993 123.2 233.993 121.95C233.993 120.85 232.556 120.8 231.763 120.65V119.75H240.634V120.65C237.066 120.9 235.727 122.45 233.845 125.3C233.101 126.5 232.358 127.65 231.565 128.85L235.925 135.7C237.263 137.8 238.899 139.9 241.625 139.9C244.747 139.9 248.018 139.7 248.018 135.8V124.4C248.018 121.35 247.374 120.95 244.35 120.5V119.7H260.556L260.902 124.45H260.01ZM216.202 151.2C215.706 151.7 215.855 157.85 215.855 158.5H215.31C213.575 156.5 211.642 154.7 209.858 152.75V156.05C209.908 157.75 210.404 157.85 211.94 157.95V158.5H207.331V157.95C208.57 157.8 208.867 157.5 208.917 156.3C208.966 155.35 209.016 154.4 209.016 153.45V152.3C209.016 152.15 208.966 151.95 208.966 151.8C208.372 151.1 208.025 150.95 207.133 150.75V150.25H210.007C210.651 151.45 213.873 154.55 215.013 155.8C215.013 155.25 215.062 154.75 215.062 154.2C215.062 153.65 215.013 153.1 214.962 152.55C214.914 151 214.368 150.85 212.93 150.8V150.25C214.4 150.3 215.872 150.3 217.342 150.25V150.75C216.995 150.8 216.499 150.9 216.202 151.2H216.202ZM211.741 123.85C210.304 121.6 208.222 120.1 205.546 120.1C199.946 120.1 198.162 125.15 198.162 129.95C198.162 132.25 198.558 134.85 199.847 136.8C201.284 138.95 203.465 140.45 206.091 140.45C211.84 140.45 213.326 135.35 213.326 130.55C213.326 128.3 212.93 125.75 211.741 123.85V123.85ZM201.088 158.75C198.957 158.75 197.52 158.35 197.222 156.05C197.123 155 197.074 153.9 196.925 152.85C196.826 152.1 196.677 151 195.735 150.9H195.141V150.25C196.281 150.25 197.47 150.25 198.61 150.2C198.659 152.15 198.758 154.15 199.006 156.1C199.106 157.3 200.046 157.85 201.138 157.85C202.079 157.85 202.97 157.5 203.218 156.5C203.516 155.25 203.714 153.65 203.714 152.4C203.714 151.35 203.119 150.8 202.128 150.8V150.25H206.539V150.8C202.525 150.8 206.589 158.75 201.088 158.75V158.75ZM205.744 141.6C199.006 141.6 194 137.15 194 130.2C194 123.3 199.104 119 205.745 119C212.585 119 217.49 123.35 217.49 130.4C217.49 137.25 212.286 141.6 205.746 141.6H205.744Z" fill="black"/>
</svg>
