<svg width="528" height="278" viewBox="0 0 528 278" fill="none" xmlns="http://www.w3.org/2000/svg">
<rect width="528" height="278" fill="#3A913F"/>
<g clip-path="url(#clip0_2505_1922)">
<path fill-rule="evenodd" clip-rule="evenodd" d="M351.248 172.199H363.71V159.736H351.248V172.199ZM360.386 164.01L360.386 164.01C360.637 163.886 360.886 163.763 361.259 163.543C361.545 163.976 361.618 164.972 361.628 165.766C361.885 165.261 362.189 163.374 362.056 163.031C362.45 162.774 362.512 162.65 362.59 162.492L362.59 162.492C362.605 162.463 362.62 162.433 362.638 162.4C362.533 162.409 362.438 162.416 362.351 162.423C362.056 162.445 361.854 162.46 361.66 162.522C361.019 162.129 359.69 161.726 358.606 161.642C358.941 161.78 360.312 162.524 360.485 162.762C359.752 162.863 358.37 163.279 357.672 163.649C358.474 163.469 359.599 163.379 360.369 163.342C360.066 163.781 359.897 164.008 359.412 164.535C359.843 164.277 360.115 164.143 360.386 164.01ZM354.499 169.63C354.849 169.961 355.166 170.151 355.614 170.317C355.149 170.303 354.798 170.242 354.385 170.121C354.355 170.412 354.372 170.635 354.452 170.913C354.124 170.586 353.921 170.298 353.721 169.868C353.355 169.704 353.088 169.548 352.763 169.346C352.994 169.241 353.198 169.165 353.479 169.09C353.39 168.589 353.417 168.138 353.484 167.509C353.615 168.105 353.728 168.526 353.984 168.977C354.295 168.916 354.558 168.874 354.921 168.822C354.723 169.11 354.604 169.34 354.499 169.63ZM356.765 164.037C356.625 164.212 356.464 164.551 356.418 164.703C357.564 164.862 358.484 165.453 358.484 165.453C357.482 165.271 356.951 165.293 356.584 165.327C356.208 165.362 356.138 165.412 356.138 165.412C355.872 165.999 355.706 167.013 355.706 167.013C355.524 166.581 355.261 165.697 355.261 165.697C354.756 165.968 353.6 167.06 353.6 167.06C354.237 165.779 354.882 165.195 354.882 165.195C354.664 164.972 354.079 164.862 353.652 164.837C353.873 164.745 354.445 164.641 354.879 164.626C355.313 164.607 355.58 164.635 355.58 164.635C355.968 164.329 356.559 164.067 356.765 164.037ZM357.377 170.266C357.6 170.017 357.773 169.798 357.972 169.521C357.974 169.546 357.975 169.571 357.977 169.595C357.987 169.753 357.994 169.88 358.012 170.026C358.38 169.852 358.652 169.69 358.971 169.465C358.672 169.767 358.41 170.02 358.049 170.303C358.082 170.455 358.105 170.539 358.138 170.657C357.999 170.682 357.813 170.696 357.613 170.69C357.239 170.913 356.72 171.079 356.326 171.177C356.559 171.031 356.765 170.873 357 170.649C356.765 170.601 356.54 170.527 356.313 170.414C356.682 170.412 356.99 170.372 357.377 170.266Z" fill="white"/>
<path fill-rule="evenodd" clip-rule="evenodd" d="M286.287 165.402C286.287 165.703 286.264 166.005 286.264 166.304C286.264 166.525 286.276 166.694 286.287 166.857C286.333 166.864 286.572 166.864 286.726 166.864C287.208 166.864 287.876 166.731 287.876 166.109C287.876 165.502 287.191 165.393 286.673 165.393C286.607 165.393 286.353 165.393 286.287 165.402ZM287.107 164.765C288.097 164.765 289.295 165.042 289.295 166.109C289.295 167.044 288.445 167.509 286.726 167.509C286.622 167.509 286.344 167.509 286.264 167.501C286.298 168.14 286.293 168.913 286.333 169.348H284.833C284.894 168.719 284.909 167.683 284.909 166.943C284.909 166.284 284.894 165.199 284.833 164.765H287.107ZM281.038 164.765C281.013 165.074 281.002 165.387 281.002 165.71V167.894C281.002 168.488 281.191 168.837 281.779 168.837C282.286 168.837 282.785 168.635 282.785 167.701V165.476C282.785 165.011 282.775 164.96 282.746 164.765H284.008C283.958 165.165 283.958 165.912 283.958 166.655V167.957C283.958 169.009 283.22 169.467 281.759 169.467C280.435 169.467 279.624 169.186 279.624 167.886V166.212C279.624 165.781 279.605 165.09 279.557 164.765H281.038ZM292.177 165.233C291.517 165.233 291.104 165.88 291.104 167.064C291.104 168.244 291.517 168.878 292.177 168.878C292.833 168.878 293.237 168.244 293.237 167.064C293.237 165.88 292.833 165.233 292.177 165.233ZM292.177 169.479C290.753 169.479 289.687 168.497 289.687 167.064C289.687 165.616 290.753 164.645 292.177 164.645C293.594 164.645 294.66 165.616 294.66 167.064C294.66 168.497 293.594 169.479 292.177 169.479ZM276.457 164.765C277.46 164.765 278.654 165.121 278.654 166.186C278.654 166.754 278.232 167.162 277.568 167.425C277.705 167.665 278.815 169.108 279.036 169.348H277.401C277.113 168.8 276.559 167.845 276.013 167.034C276.671 167.122 277.237 166.809 277.237 166.177C277.237 165.569 276.541 165.393 276.205 165.393C276.047 165.393 275.765 165.393 275.657 165.402C275.635 165.963 275.625 166.636 275.625 166.943C275.625 167.338 275.625 168.656 275.703 169.348H274.179C274.253 168.67 274.271 167.86 274.271 166.943C274.271 166.17 274.258 165.233 274.192 164.765H276.457ZM273.271 167.122C273.246 167.571 273.218 168.523 273.204 169.071C272.712 169.32 271.938 169.467 271.194 169.467C269.497 169.467 268.409 168.398 268.409 167.079C268.409 165.692 269.548 164.645 271.405 164.645C271.83 164.645 272.466 164.713 272.914 164.821L272.585 165.728C272.269 165.527 271.743 165.371 271.388 165.371C270.32 165.371 269.937 166.321 269.937 167.089C269.937 168.37 270.625 168.79 271.397 168.79C271.486 168.79 271.782 168.78 271.879 168.755C271.879 168.2 271.871 167.496 271.83 167.122H273.271ZM345.15 164.646C345.736 164.646 346.304 164.73 346.661 164.842V166.007C346.16 165.719 345.668 165.469 345.018 165.469C344.503 165.469 344.465 165.677 344.465 165.831C344.465 166.603 347.069 166.614 347.069 168.002C347.069 168.9 346.228 169.468 344.83 169.468C344.202 169.468 343.608 169.342 343.202 169.193V168.08C344.16 168.533 344.669 168.68 345.111 168.68C345.467 168.68 345.73 168.517 345.73 168.208C345.73 167.332 343.135 167.416 343.135 165.93C343.135 165.116 343.95 164.646 345.15 164.646ZM340.643 167.65C340.464 167.206 340.218 166.656 340.099 166.271C339.974 166.664 339.699 167.264 339.565 167.65C339.734 167.657 339.962 167.666 340.117 167.666C340.331 167.666 340.437 167.657 340.643 167.65ZM340.769 164.765C340.937 165.307 342.448 168.609 342.796 169.349H341.294C341.236 169.169 341.115 168.922 340.896 168.344C340.667 168.335 340.431 168.335 340.117 168.335C339.811 168.335 339.588 168.344 339.345 168.353C339.208 168.73 339.089 169.029 338.979 169.349H337.677C337.927 168.781 339.433 165.497 339.699 164.765H340.769ZM334.811 165.345C334.586 165.345 334.368 165.359 334.258 165.378C334.232 165.973 334.224 166.262 334.224 166.944C334.224 167.769 334.224 168.073 334.258 168.73H334.92C335.699 168.73 336.072 168.497 336.072 168.024C336.072 167.496 335.59 167.248 334.952 167.248H334.572L334.833 166.556H335.112C335.436 166.556 335.866 166.387 335.866 165.973C335.866 165.529 335.469 165.345 334.811 165.345ZM335.504 164.765C336.349 164.765 337.276 165.074 337.276 165.854C337.276 166.276 336.91 166.664 336.368 166.85C337.092 167.114 337.505 167.532 337.505 168.073C337.505 169.029 336.349 169.349 335.265 169.349H332.782C332.841 168.755 332.859 167.895 332.859 166.944C332.859 166.317 332.849 165.359 332.788 164.765H335.504ZM331.799 164.765C331.764 165.286 331.74 166.511 331.74 166.951C331.74 167.358 331.74 168.719 331.799 169.349H330.291C330.368 168.655 330.374 167.339 330.374 166.951C330.374 166.518 330.35 165.286 330.318 164.765H331.799ZM327.12 164.765C328.119 164.765 329.315 165.123 329.315 166.188C329.315 166.756 328.892 167.162 328.23 167.426C328.365 167.666 329.475 169.109 329.696 169.349H328.061C327.771 168.8 327.22 167.846 326.679 167.035C327.331 167.122 327.902 166.81 327.902 166.178C327.902 165.571 327.205 165.396 326.866 165.396C326.713 165.396 326.423 165.396 326.321 165.403C326.298 165.964 326.289 166.636 326.289 166.944C326.289 167.339 326.289 168.655 326.362 169.349H324.841C324.915 168.673 324.931 167.86 324.931 166.944C324.931 166.172 324.923 165.235 324.858 164.765H327.12ZM322.162 167.65C321.981 167.206 321.734 166.656 321.618 166.271C321.49 166.664 321.221 167.264 321.082 167.65C321.253 167.657 321.482 167.666 321.635 167.666C321.845 167.666 321.958 167.657 322.162 167.65ZM322.286 164.765C322.457 165.307 323.965 168.609 324.313 169.349H322.815C322.755 169.169 322.636 168.922 322.415 168.344C322.187 168.335 321.948 168.335 321.635 168.335C321.33 168.335 321.109 168.344 320.861 168.353C320.727 168.73 320.61 169.029 320.499 169.349H319.194C319.448 168.781 320.948 165.497 321.221 164.765H322.286ZM316.61 165.403C316.61 165.705 316.594 166.007 316.594 166.306C316.594 166.525 316.6 166.694 316.61 166.858C316.661 166.866 316.898 166.866 317.051 166.866C317.534 166.866 318.205 166.733 318.205 166.11C318.205 165.504 317.518 165.396 316.999 165.396C316.934 165.396 316.68 165.396 316.61 165.403ZM317.431 164.765C318.426 164.765 319.621 165.043 319.621 166.11C319.621 167.046 318.772 167.51 317.051 167.51C316.951 167.51 316.671 167.51 316.594 167.504C316.626 168.141 316.619 168.913 316.661 169.349H315.161C315.221 168.719 315.236 167.684 315.236 166.944C315.236 166.285 315.221 165.2 315.161 164.765H317.431ZM309.692 165.403C309.692 165.705 309.677 166.007 309.677 166.306C309.677 166.525 309.685 166.694 309.692 166.858C309.744 166.866 309.981 166.866 310.134 166.866C310.617 166.866 311.286 166.733 311.286 166.11C311.286 165.504 310.598 165.396 310.082 165.396C310.015 165.396 309.76 165.396 309.692 165.403ZM310.514 164.765C311.507 164.765 312.704 165.043 312.704 166.11C312.704 167.046 311.855 167.51 310.134 167.51C310.03 167.51 309.753 167.51 309.677 167.504C309.709 168.141 309.702 168.913 309.744 169.349H308.242C308.304 168.719 308.319 167.684 308.319 166.944C308.319 166.285 308.304 165.2 308.242 164.765H310.514ZM307.183 164.765C307.141 165.286 307.115 166.492 307.115 166.944C307.115 167.358 307.124 168.719 307.183 169.349H306.107L304.378 166.792C304.232 166.586 304.13 166.387 304.091 166.163V167.615C304.091 168.169 304.107 168.954 304.157 169.349H302.926C303.003 168.655 303.01 167.339 303.01 166.944C303.01 166.511 302.987 165.286 302.953 164.765H304.351L305.811 167.148C305.885 167.264 305.914 167.323 305.947 167.426V164.765H307.183ZM299.452 165.345C299.229 165.345 299.01 165.359 298.9 165.378C298.876 165.973 298.866 166.262 298.866 166.944C298.866 167.769 298.866 168.073 298.9 168.73H299.563C300.343 168.73 300.712 168.497 300.712 168.024C300.712 167.496 300.231 167.248 299.596 167.248H299.214L299.479 166.556H299.755C300.076 166.556 300.51 166.387 300.51 165.973C300.51 165.529 300.111 165.345 299.452 165.345ZM300.146 164.765C300.994 164.765 301.92 165.074 301.92 165.854C301.92 166.276 301.555 166.664 301.01 166.85C301.733 167.114 302.148 167.532 302.148 168.073C302.148 169.029 300.994 169.349 299.909 169.349H297.424C297.486 168.755 297.502 167.895 297.502 166.944C297.502 166.317 297.495 165.359 297.433 164.765H300.146Z" fill="white"/>
<path fill-rule="evenodd" clip-rule="evenodd" d="M280.566 150.099C278.908 150.099 277.563 148.751 277.563 147.087V108.012C277.563 106.348 278.908 105 280.566 105C282.225 105 283.568 106.348 283.568 108.012V147.087C283.568 148.751 282.225 150.099 280.566 150.099Z" fill="white"/>
<path fill-rule="evenodd" clip-rule="evenodd" d="M363.999 130.958C363.982 124.257 358.543 118.795 351.86 118.795C348.215 118.795 344.95 120.422 342.722 122.981C340.496 120.422 337.23 118.795 333.585 118.795C326.897 118.795 321.454 124.257 321.446 130.966L321.445 147.086C321.445 148.75 322.789 150.098 324.448 150.098C326.106 150.098 327.45 148.75 327.45 147.086V130.977C327.45 127.584 330.204 124.818 333.585 124.818C336.969 124.818 339.721 127.584 339.721 130.977L339.722 147.086C339.722 148.75 341.065 150.098 342.723 150.098C344.382 150.098 345.726 148.75 345.726 147.086V130.972C345.727 127.581 348.479 124.818 351.86 124.818C355.242 124.818 357.995 127.588 357.995 130.981L357.996 147.086C357.996 148.75 359.341 150.098 360.998 150.098C362.657 150.098 364.001 148.75 364.001 147.086L363.999 130.958Z" fill="white"/>
<path fill-rule="evenodd" clip-rule="evenodd" d="M239.935 144.076C236.553 144.076 234.107 141.315 234.107 137.922V124.871H240.34C241.852 124.871 243.077 123.642 243.077 122.126C243.077 120.609 241.852 119.38 240.34 119.38H234.107V112.666C234.107 111.002 232.763 109.654 231.105 109.654C229.447 109.654 228.103 111.002 228.103 112.666V137.922C228.103 144.637 233.241 150.1 239.935 150.1C241.594 150.1 242.938 148.751 242.938 147.088C242.938 145.424 241.594 144.076 239.935 144.076Z" fill="white"/>
<path fill-rule="evenodd" clip-rule="evenodd" d="M293.628 131.746C294.39 127.254 298.555 124.061 303.028 124.061C307.792 124.061 311.449 128.116 312.129 131.746H293.628ZM317.817 133.166C317.817 124.57 310.17 118.795 303.028 118.795C294.457 118.795 287.484 125.79 287.484 134.388C287.484 143.344 294.292 150.098 303.318 150.098C308.104 150.098 311.683 148.374 313.374 147.356C314.177 146.884 314.844 145.922 314.844 144.839C314.844 143.462 313.735 142.148 312.102 142.148C311.629 142.148 311.042 142.328 310.575 142.562C308.724 143.593 306.229 144.716 303.318 144.716C298.669 144.716 294.587 141.899 293.632 137.237H314.05C316.057 137.237 317.817 135.335 317.817 133.166Z" fill="white"/>
<path fill-rule="evenodd" clip-rule="evenodd" d="M200.284 131.746C201.045 127.254 205.21 124.061 209.683 124.061C214.448 124.061 218.105 128.116 218.784 131.746H200.284ZM224.472 133.166C224.472 124.57 216.825 118.795 209.683 118.795C201.113 118.795 194.14 125.79 194.14 134.388C194.14 143.344 200.947 150.098 209.973 150.098C214.759 150.098 218.338 148.374 220.029 147.356C220.832 146.884 221.499 145.922 221.499 144.839C221.499 143.462 220.39 142.148 218.758 142.148C218.284 142.148 217.696 142.328 217.23 142.562C215.379 143.593 212.883 144.716 209.973 144.716C205.324 144.716 201.242 141.899 200.288 137.237H220.706C222.712 137.237 224.472 135.335 224.472 133.166Z" fill="white"/>
<path fill-rule="evenodd" clip-rule="evenodd" d="M249.933 131.746C250.695 127.254 254.86 124.061 259.333 124.061C264.097 124.061 267.754 128.116 268.434 131.746H249.933ZM274.122 133.166C274.122 124.57 266.475 118.795 259.333 118.795C250.762 118.795 243.789 125.79 243.789 134.388C243.789 143.344 250.596 150.098 259.623 150.098C264.409 150.098 267.987 148.374 269.678 147.356C270.482 146.884 271.149 145.922 271.149 144.839C271.149 143.462 270.039 142.148 268.407 142.148C267.933 142.148 267.347 142.328 266.88 142.562C265.029 143.593 262.533 144.716 259.623 144.716C254.974 144.716 250.891 141.899 249.938 137.237H270.355C272.361 137.237 274.122 135.335 274.122 133.166Z" fill="white"/>
<mask id="mask0_2505_1922" style="mask-type:alpha" maskUnits="userSpaceOnUse" x="164" y="118" width="28" height="33">
<path d="M164 118.797H191.477V150.1H164V118.797Z" fill="white"/>
</mask>
<g mask="url(#mask0_2505_1922)">
<path fill-rule="evenodd" clip-rule="evenodd" d="M179.577 150.1C175.586 150.1 171.595 148.576 168.557 145.523C162.48 139.42 162.48 129.487 168.557 123.383C171.499 120.426 175.413 118.797 179.576 118.797C183.739 118.797 187.653 120.426 190.597 123.383C191.769 124.561 191.769 126.471 190.596 127.648C189.424 128.826 187.523 128.826 186.351 127.648C184.541 125.83 182.135 124.83 179.576 124.83C177.018 124.83 174.611 125.83 172.803 127.648C169.067 131.4 169.067 137.507 172.803 141.258C176.539 145.009 182.616 145.009 186.351 141.258C187.524 140.08 189.424 140.08 190.597 141.258C191.769 142.437 191.769 144.347 190.596 145.523C187.558 148.576 183.567 150.1 179.577 150.1Z" fill="white"/>
</g>
<path fill-rule="evenodd" clip-rule="evenodd" d="M189.288 160.242H168.592C167.08 160.242 165.855 159.014 165.855 157.497C165.855 155.98 167.08 154.752 168.592 154.752H189.288C190.799 154.752 192.025 155.98 192.025 157.497C192.025 159.014 190.799 160.242 189.288 160.242Z" fill="white"/>
</g>
<defs>
<clipPath id="clip0_2505_1922">
<rect width="200" height="67.198" fill="white" transform="translate(164 105)"/>
</clipPath>
</defs>
</svg>
