<svg width="528" height="278" viewBox="0 0 528 278" fill="none" xmlns="http://www.w3.org/2000/svg">
<rect width="528" height="278" fill="#EEEEEE"/>
<g clip-path="url(#clip0_2473_2983)">
<rect width="100" height="117.484" transform="translate(214 80)" fill="white"/>
<path fill-rule="evenodd" clip-rule="evenodd" d="M314 80H214V197.484H314V80ZM240.303 136.869V138.274L228.47 128.932V128.067L240.303 118.723V120.129L229.703 128.5L240.303 136.869ZM287.694 136.869V138.274L299.53 128.932V128.067L287.694 118.723V120.129L298.296 128.5L287.694 136.869ZM247.415 99.4936V126.083H254.735V99.4936H247.415ZM272.21 106.133C273.973 106.616 275.673 107.304 277.274 108.182L280.748 102.146C280.087 101.846 279.345 101.523 278.516 101.191C277.688 100.859 276.801 100.543 275.849 100.256C274.877 99.9661 273.89 99.7329 272.892 99.5539C271.856 99.3649 270.805 99.2704 269.751 99.2704C268.345 99.2639 266.946 99.4603 265.596 99.8535C264.344 100.21 263.164 100.782 262.109 101.543C261.052 102.307 260.199 103.318 259.622 104.486C259.046 105.654 258.764 106.945 258.801 108.247C258.785 109.127 258.932 110.003 259.234 110.831C259.529 111.591 259.988 112.278 260.579 112.841C261.264 113.483 262.046 114.012 262.893 114.414C263.974 114.933 265.094 115.363 266.243 115.705C267.124 115.976 267.957 116.216 268.743 116.417C269.529 116.618 270.227 116.819 270.832 117.02C271.342 117.172 271.824 117.406 272.259 117.714C272.416 117.82 272.544 117.962 272.634 118.128C272.724 118.294 272.772 118.48 272.775 118.669C272.773 118.843 272.724 119.013 272.634 119.161C272.543 119.31 272.413 119.431 272.259 119.511C271.914 119.722 271.299 119.829 270.418 119.829C269.267 119.83 268.12 119.679 267.007 119.381C265.985 119.115 264.986 118.777 264.01 118.375C262.97 117.957 261.96 117.468 260.986 116.913L257.513 123.318C258.438 123.812 259.4 124.237 260.387 124.591C262.521 125.362 264.732 125.901 266.981 126.199C268.078 126.348 269.181 126.424 270.287 126.424C271.643 126.423 272.994 126.279 274.319 125.994C275.589 125.732 276.806 125.256 277.915 124.587C278.973 123.939 279.854 123.041 280.48 121.973C281.129 120.891 281.451 119.549 281.451 117.951C281.485 116.852 281.272 115.759 280.83 114.752C280.42 113.881 279.811 113.118 279.052 112.524C278.201 111.867 277.262 111.331 276.262 110.931C275.068 110.447 273.847 110.034 272.604 109.694C271.747 109.447 270.981 109.234 270.309 109.059C269.727 108.914 269.154 108.732 268.594 108.516C268.202 108.374 267.838 108.165 267.517 107.899C267.396 107.791 267.301 107.657 267.236 107.508C267.172 107.359 267.142 107.198 267.147 107.036C267.137 106.823 267.194 106.613 267.308 106.433C267.423 106.253 267.59 106.113 267.788 106.031C268.332 105.81 268.916 105.707 269.503 105.731C270.42 105.738 271.331 105.874 272.21 106.133ZM247.415 131.892V158.481H256.9C258.783 158.507 260.655 158.183 262.419 157.526C264.002 156.929 265.444 156.011 266.653 154.829C267.848 153.639 268.775 152.21 269.374 150.635C270.033 148.882 270.358 147.021 270.332 145.149C270.343 143.396 270.051 141.653 269.467 140C268.919 138.406 268.031 136.949 266.864 135.73C265.698 134.512 264.28 133.56 262.71 132.94C261.03 132.242 259.091 131.892 256.89 131.892H247.415ZM262.486 142.334C262.772 143.245 262.911 144.194 262.899 145.149C262.905 146.087 262.769 147.021 262.496 147.918C262.256 148.722 261.861 149.474 261.333 150.13C260.819 150.753 260.171 151.253 259.436 151.59C258.637 151.95 257.769 152.129 256.892 152.115H254.735V138.26H256.892C257.756 138.245 258.614 138.414 259.408 138.755C260.137 139.077 260.784 139.558 261.302 140.162C261.837 140.801 262.24 141.539 262.486 142.334ZM273.22 131.892V158.481H280.54V131.892H273.22ZM228.226 171.555V177.915L230.492 177.913C230.931 177.92 231.366 177.842 231.776 177.684C232.147 177.542 232.483 177.32 232.76 177.035C233.037 176.75 233.248 176.408 233.378 176.033C233.532 175.613 233.606 175.169 233.6 174.722C233.6 174.304 233.534 173.888 233.399 173.492C233.274 173.12 233.072 172.778 232.81 172.486C232.54 172.193 232.209 171.961 231.84 171.807C231.411 171.632 230.951 171.545 230.488 171.555H228.226ZM232.433 173.803C232.528 174.103 232.576 174.413 232.572 174.726C232.578 175.036 232.536 175.344 232.447 175.639C232.362 175.907 232.225 176.156 232.044 176.369C231.865 176.578 231.641 176.743 231.389 176.854C231.107 176.974 230.8 177.035 230.494 177.029H229.238V172.442H230.494C230.796 172.436 231.096 172.495 231.375 172.613C231.628 172.722 231.853 172.885 232.036 173.091C232.219 173.297 232.355 173.54 232.433 173.803ZM234.911 171.555V177.915H235.918V171.555H234.911ZM241.216 177.739C241.536 177.596 241.822 177.388 242.057 177.127L242.061 177.922H242.906V174.704H240.712V175.446H242.051V176.128C241.819 176.419 241.53 176.66 241.202 176.836C240.914 176.982 240.595 177.059 240.273 177.059C239.991 177.061 239.71 176.999 239.456 176.876C239.208 176.755 238.987 176.586 238.805 176.377C238.616 176.162 238.471 175.913 238.374 175.643C238.173 175.067 238.166 174.442 238.356 173.862C238.443 173.592 238.58 173.341 238.759 173.122C238.931 172.911 239.145 172.738 239.388 172.613C239.64 172.48 239.92 172.412 240.204 172.412C240.557 172.408 240.905 172.497 241.212 172.671C241.525 172.852 241.776 173.124 241.932 173.449L242.704 172.896C242.494 172.48 242.17 172.132 241.769 171.891C241.35 171.665 240.885 171.536 240.409 171.514C239.933 171.493 239.459 171.579 239.021 171.766C238.657 171.931 238.331 172.167 238.061 172.46C237.788 172.758 237.573 173.104 237.428 173.482C237.119 174.274 237.119 175.153 237.428 175.945C237.573 176.327 237.788 176.68 238.061 176.984C238.329 177.281 238.652 177.523 239.013 177.696C239.383 177.873 239.788 177.963 240.198 177.96C240.549 177.958 240.896 177.883 241.216 177.739ZM244.373 171.555V177.915H245.381V171.555H244.373ZM249.516 172.444H251.636V171.557H246.373V172.444H248.508V177.917H249.516V172.444ZM254.646 171.555H253.765L251.233 177.915H252.302L252.967 176.186H255.426L256.099 177.915H257.16L254.646 171.555ZM254.205 172.711L255.229 175.442H253.146L254.205 172.711ZM258.127 171.555V177.915H262.562V177.029H259.135V171.555H258.127ZM268.687 172.444H270.807V171.557H265.544V172.444H267.679V177.917H268.687V172.444ZM273.823 171.555H272.942L270.402 177.915H271.471L272.136 176.186H274.603L275.277 177.915H276.337L273.823 171.555ZM273.384 172.711L274.406 175.442H272.323L273.384 172.711ZM277.299 171.555V177.915H281.733V177.029H278.306V171.555H277.299ZM287.074 177.915V177.029L283.707 177.031V175.086H286.553V174.254H283.707V172.444H286.993V171.555H282.701V177.915H287.074ZM289.293 177.915V173.435L292.899 177.915H293.722V171.563H292.714V176.142L289.069 171.555H288.285V177.915H289.293ZM297.879 172.444H299.997V171.557H294.736V172.444H296.871V177.917H297.879V172.444Z" fill="black"/>
</g>
<defs>
<clipPath id="clip0_2473_2983">
<rect width="100" height="117.484" fill="white" transform="translate(214 80)"/>
</clipPath>
</defs>
</svg>
