<svg width="528" height="278" viewBox="0 0 528 278" fill="none" xmlns="http://www.w3.org/2000/svg">
<rect width="528" height="278" fill="black"/>
<path d="M195.356 105C197.695 105 199.913 105.963 201.345 107.525L199.775 109.071C198.82 108.019 197.112 107.226 195.356 107.226C192.014 107.226 189.415 109.888 189.415 113.425C189.415 117.124 192.078 119.625 195.567 119.625C197.768 119.625 199.354 118.411 200.269 117.31L201.928 118.807C200.52 120.596 198.092 121.834 195.567 121.834C190.678 121.834 187.076 118.257 187.076 113.417C187.076 108.691 190.63 105 195.356 105V105ZM216.237 117.391H209.342L207.634 121.6H205.198L211.98 105.235H213.615L220.397 121.6H217.961L216.237 117.391V117.391ZM210.272 115.165H215.323L212.798 109.087L210.272 115.165V115.165ZM227.293 109.581V121.6H224.954V105.227H226.597L236.414 117.253V105.227H238.753V121.6H237.119L227.293 109.581ZM254.35 117.391H247.454L245.746 121.6H243.318L250.101 105.235H251.735L258.518 121.6H256.082L254.35 117.391V117.391ZM248.385 115.165H253.435L250.91 109.087L248.385 115.165V115.165ZM265.413 119.374H272.657V121.6H263.074V105.227H265.413V119.374Z" fill="#47C8FF"/>
<path d="M186 137.965H342.674V140.304H186V137.965ZM260.007 169.537H258.372L253.581 162.027V173.042H251.242V156.677H252.877L259.189 166.656L265.502 156.677H267.137V173.042H264.806V162.027L260.007 169.537ZM282.741 168.833H275.846L274.138 173.042H271.71L278.492 156.677H280.127L286.91 173.042H284.473L282.741 168.833V168.833ZM276.777 166.616H281.827L279.302 160.537L276.777 166.616V166.616ZM293.797 165.329V173.042H291.458V156.677H297.188C298.686 156.677 299.616 157.025 300.369 157.632C301.348 158.425 301.98 159.639 301.98 160.999C301.98 162.358 301.348 163.573 300.369 164.366C299.851 164.787 299.268 165.086 298.451 165.232L304.319 173.042H301.486L295.667 165.329H293.797V165.329ZM297.075 163.103C298.127 163.103 298.661 162.868 299.042 162.496C299.414 162.124 299.649 161.582 299.649 160.999C299.649 160.416 299.414 159.874 299.042 159.502C298.669 159.129 298.127 158.894 297.075 158.894H293.797V163.103H297.075V163.103ZM315.285 156.442C317.624 156.442 319.842 157.405 321.275 158.967L319.704 160.513C318.749 159.461 317.042 158.668 315.285 158.668C311.943 158.668 309.345 161.331 309.345 164.867C309.345 168.566 312.008 171.067 315.496 171.067C317.697 171.067 319.284 169.853 320.198 168.752L321.857 170.25C320.457 172.054 318.021 173.293 315.496 173.293C310.607 173.293 307.006 169.715 307.006 164.876C307.014 160.133 310.567 156.442 315.285 156.442V156.442ZM338.23 165.329H329.109V173.042H326.77V156.677H329.109V163.103H338.23V156.677H340.561V173.042H338.23V165.329Z" fill="white"/>
</svg>
