<svg width="528" height="278" fill="none" xmlns="http://www.w3.org/2000/svg"><path fill="#98A92A" d="M0 0h528v278H0z"/><path d="M205.177 120.201c-.168-8.235-3.53-13.277-14.622-13.277 0 0-6.219-.168-6.219 0l-.168 17.143c-8.067 1.176-17.143 3.865-18.823 4.202l.168-31.597h22.353c14.117 0 23.361 1.008 29.748 7.563 2.857 2.857 5.546 7.059 6.05 14.622-6.387.336-12.101.504-18.487 1.344zm-.505 3.195c11.597-1.177 19.496-1.681 19.496-1.681 0 7.059-2.857 12.605-6.891 15.966-5.546 4.538-11.092 5.715-25.714 5.715h-25.882v-11.765c2.016-.504 10.588-3.193 18.655-4.202 0 0-.168 6.051 0 6.051h6.051c5.546-.337 14.117-2.858 14.285-10.084zm143.866 4.704c-5.715-1.512-10.757-3.193-15.799-4.201l10.42-27.06h19.16L348.538 128.1zm-40.672-8.403l-9.916-23.025h20.84l10.084 26.218c-7.563-1.512-14.118-2.353-21.008-3.193zm22.184 6.219s.841 2.017 1.009 1.681l.672-1.345c5.21 1.177 9.916 3.025 15.798 4.538l-5.042 12.437h-23.865l-9.244-20.672c6.891.84 13.109 1.848 20.672 3.361zm-52.436-7.9c-6.555-.168-15.126-.336-22.185-.336.168 0 16.47-21.008 16.47-21.008h22.857l-17.142 21.344zm-21.009 2.353c.672 0 14.454 0 22.353.672l18.319 22.185h-24.033l-16.639-22.857zm-3.865 0v22.521h-18.992v-21.681c6.219-.336 12.269-.672 18.992-.84zm-.001-2.857c-6.89.168-12.941.168-19.159.673v-21.85h19.159v21.177zm-76.806 40.169c.168-.336.336-.84.168-.84-1.009-.84-2.857-1.344-4.37-1.344-2.857 0-5.378 1.848-5.378 5.21 0 5.546 8.235 4.537 8.235 9.075 0 1.849-1.681 3.026-3.697 3.026-1.177 0-2.689-.505-3.866-1.345-.168-.168-.504 0-.672.504l-.168.336c-.336.505-.336.841-.168 1.009 1.176.84 3.025 1.512 5.21 1.512 3.865 0 5.882-2.185 5.882-5.378 0-5.882-8.235-5.21-8.235-9.075 0-1.345 1.008-2.69 3.193-2.69 1.345 0 2.353.337 3.193.841.168.168.505 0 .673-.504v-.337zm13.613 3.026c-.84 0-.84 0-1.008.336l-.168 1.176c-.673-1.008-2.017-1.68-3.53-1.68-3.361 0-5.882 2.857-5.882 7.395 0 3.697 1.68 6.89 5.546 6.89 1.681 0 3.193-.672 3.866-1.848l.168 1.176c0 .168.168.336 1.008.336h.168c.84 0 1.009-.168 1.009-.336-.169-1.344-.169-3.025-.169-5.546v-7.563c0-.168 0-.336-1.008-.336zm-1.344 7.395c0 2.185-.169 3.025-.673 3.529-.672.672-1.68 1.008-2.521 1.008-2.689 0-3.529-2.521-3.529-4.874 0-3.025 1.344-5.042 3.697-5.042 1.177 0 2.353.841 3.026 1.681v3.698zm7.058-13.446c-.84 0-1.176.168-1.176.336.168 1.009.168 4.37.168 7.059v8.74c0 1.344.168 2.185.504 2.689.504.672 1.177.84 1.849.84.336 0 .84-.168 1.176-.168.168 0 .168-.168.168-.84 0-.504 0-.673-.168-.673h-.168c-.84 0-1.008-.336-1.008-1.344v-8.572c0-3.865 0-6.89-.168-7.731 0-.168-.168-.336-1.177-.336 0 0 .168 0 0 0zm6.555 6.051c-1.008 0-1.008.168-1.008.336v7.899c0 2.017.336 3.529 1.344 4.37.84.84 2.017 1.344 3.361 1.344 1.849 0 3.362-.672 4.202-1.68v1.176c0 .168.168.336 1.009.336h.168c1.008 0 1.008-.168 1.008-.336v-13.109c0-.168-.168-.336-1.008-.336h-.168c-.841 0-1.009.168-1.009.336v6.386c0 2.857-.336 3.698-.84 4.202-.672.672-1.849 1.008-2.857 1.008-1.009 0-1.849-.336-2.353-.84-.504-.672-.673-1.681-.673-3.865v-6.891c0-.168-.168-.336-1.008-.336h-.168zm23.529-6.051c-.84 0-1.008.168-1.008.336v6.219c-.672-.504-1.849-.84-2.857-.84-4.202 0-6.219 3.529-6.219 7.394 0 4.202 2.017 6.891 5.547 6.891 1.848 0 3.193-.84 3.865-1.68.336 1.008 1.009 1.512 1.849 1.512.504 0 .84 0 1.176-.168.168 0 .168-.168.168-.84v-.168c0-.504-.168-.673-.168-.673-.672 0-.84-.168-.84-1.344V155.16c-.336-.336-.504-.504-1.513-.504zm-1.008 13.446c0 2.185-.168 3.025-.672 3.697-.673.672-1.513.84-2.353.84-2.017 0-3.53-1.68-3.53-4.874 0-3.193 1.513-5.21 4.034-5.21 1.008 0 2.185.337 2.689 1.009v4.538h-.168zm13.95-7.059c0-.168-.337-.336-1.345-.336s-1.345 0-1.176.336l5.042 13.445c-1.009 2.857-2.017 3.866-3.698 3.866-.504 0-1.008-.168-1.344-.168-.337-.168-.337 0-.505.672l-.168.336c-.168.504-.168.672.168.84.505.337 1.345.505 2.017.505 1.513 0 2.689-.505 3.866-1.513.84-.84 1.512-2.185 2.185-4.202l4.874-13.613c.168-.336-.169-.336-1.177-.336-.84 0-1.008 0-1.176.336l-2.353 6.723c-.505 1.512-1.009 3.025-1.345 4.201a40.011 40.011 0 00-1.344-4.37l-2.521-6.722zm20.672 8.067c0-1.513 0-2.857.168-3.529.168-1.177.336-1.513.672-1.849.672-.672 1.513-1.009 2.521-1.009 2.185 0 3.193 1.681 3.193 4.706 0 3.026-1.512 5.21-4.369 5.21-.673 0-1.513-.168-2.185-.504v-3.025zm-1.345-14.454c-1.008 0-1.176.168-1.176.336v18.488c0 .168 0 .168.168.336 1.176.504 2.689.84 4.706.84 4.37 0 6.554-2.857 6.554-7.395 0-1.512-.336-2.857-.84-3.865-.84-1.849-2.353-2.857-4.37-2.857-1.512 0-3.025.672-3.865 1.512v-7.059c.168-.168 0-.336-1.177-.336zm14.454 6.051c-1.008 0-1.008.168-1.008.336v13.109c0 .168 0 .336 1.008.336h.168c1.009 0 1.009-.168 1.009-.336v-13.109c0-.168 0-.336-1.177-.336 0 0 .168 0 0 0zm-1.513-4.202c0 .84.673 1.681 1.681 1.681.84 0 1.681-.673 1.681-1.681s-.672-1.681-1.681-1.681c-1.008.168-1.681.841-1.681 1.681zm17.311 11.933c.168 0 .168-.168.168-1.009 0-1.512-.168-3.025-.84-4.201-.84-1.681-2.353-2.857-4.706-2.857-3.865 0-6.218 3.025-6.218 7.394 0 4.202 2.185 6.891 6.218 6.891 1.681 0 3.362-.336 4.706-1.176.168-.168.168-.336 0-1.009l-.168-.336c-.168-.672-.336-.672-.672-.504-1.177.504-2.353.84-3.362.84-1.344 0-2.352-.336-3.025-1.008-.84-.672-1.176-1.849-1.344-3.193l9.243.168zm-9.075-1.849c.336-2.689 1.849-3.866 3.697-3.866 2.185 0 3.194 2.017 3.194 3.866h-6.891zm13.277-5.882c-1.008 0-1.008.168-1.008.336v13.109c0 .168.168.336 1.008.336h.168c1.009 0 1.009-.168 1.009-.336v-5.042c0-1.513 0-2.857.168-3.529.168-1.177.336-1.513.672-1.849.672-.672 1.849-1.009 2.689-1.009 1.176 0 2.017.337 2.353.841.672.672.672 1.68.672 3.865v6.723c0 .168.168.336 1.009.336h.168c1.008 0 1.008-.168 1.008-.336v-7.899c0-2.017-.336-3.53-1.344-4.37-.841-.84-2.017-1.344-3.53-1.344s-3.193.672-4.202 1.68v-1.176c.337-.168.337-.336-.84-.336zm24.706 7.731c.168 0 .168-.168.168-1.009 0-1.512-.168-3.025-.84-4.201-.841-1.681-2.353-2.857-4.706-2.857-3.866 0-6.219 3.025-6.219 7.394 0 4.202 2.185 6.891 6.219 6.891 1.68 0 3.361-.336 4.706-1.176.168-.168.168-.336 0-1.009l-.168-.336c-.168-.672-.337-.672-.673-.504-1.176.504-2.353.84-3.361.84-1.345 0-2.353-.336-3.025-1.008-.841-.672-1.177-1.849-1.345-3.193l9.244.168zm-8.908-1.849c.337-2.689 1.849-3.866 3.698-3.866 2.185 0 3.193 2.017 3.193 3.866h-6.891zm20.337-3.697c.336-.505.336-.841.168-1.009-1.009-.84-2.353-1.344-4.034-1.344-2.521 0-4.706 1.512-4.706 4.033 0 1.009.336 1.849 1.009 2.521.672.672 1.68 1.009 3.025 1.345 1.344.336 3.025.672 3.025 2.185 0 1.512-1.681 2.016-2.857 2.016-1.177 0-2.353-.504-3.362-1.008-.336-.168-.504-.168-.84.504l-.168.336c-.336.505-.336.673-.168 1.009 1.008.672 2.521 1.344 4.202 1.344 2.857 0 5.21-1.512 5.21-4.201 0-2.689-2.185-3.53-4.37-4.034-1.176-.336-2.689-.672-2.689-2.017 0-1.344 1.513-1.849 2.521-1.849 1.176 0 2.017.505 3.025 1.177.168.168.336.168.84-.504l.169-.504zm5.21-6.051c-1.009 0-1.009.168-1.009.336v3.53h-1.68c-.169 0-.169.168-.169.84v.168c0 .672 0 .84.169.84h1.68v7.9c0 1.68.168 2.689 1.009 3.361.504.504 1.344.84 2.521.84 1.008 0 2.016-.168 2.689-.672.168-.168.168-.336.168-.84l-.168-.336c-.168-.505-.168-.505-.504-.505-.505.168-1.177.336-1.681.336-.672 0-1.009-.168-1.345-.504-.336-.336-.336-1.008-.336-2.017v-7.731h3.193c.168 0 .169-.168.169-.84 0-.672-.001-.84-.169-.84h-3.193v-3.53c-.168-.168-.168-.336-1.344-.336zm17.311 3.866c-.841 0-.841 0-1.009.336l-.168 1.008c-.672-1.008-1.849-1.68-3.529-1.68-3.362 0-5.883 2.857-5.883 7.394 0 3.698 1.681 6.891 5.547 6.891 1.68 0 3.193-.672 4.033-1.848l.168 1.176c0 .168.168.336 1.009.336h.168c.84 0 1.008-.168 1.008-.336-.168-1.345-.168-3.025-.168-5.546v-7.563s-.168-.168-1.176-.168c0 0 .168 0 0 0zm-1.177 7.395c0 2.185-.168 3.025-.672 3.529-.672.672-1.681 1.008-2.521 1.008-2.689 0-3.53-2.521-3.53-4.874 0-3.025 1.345-5.042 3.698-5.042 1.176 0 2.353.841 3.025 1.681v3.698zm7.227-7.395c-1.008 0-1.008.168-1.008.336v13.109c0 .168.168.336 1.176.336h.168c1.008 0 1.009-.168 1.009-.336v-6.891c0-.84.168-1.68.672-2.185.672-1.176 1.68-2.353 3.529-2.353.168 0 .336-.168.336-1.008v-.336c0-.504 0-.672-.168-.672h-.504c-1.344 0-2.689 1.008-3.697 3.193v-2.689c-.337-.336-.505-.504-1.513-.504 0 0 .168 0 0 0z" fill="#fff"/></svg>