<svg width="528" height="278" fill="none" xmlns="http://www.w3.org/2000/svg"><path fill="#F2F1EE" d="M0 0h528v278H0z"/><path d="M358.165 154.291h4.551v-1.194h-3.21v-6.342h-1.341v7.536zm-13.786-2.884l1.182-3.063 1.161 3.063h-2.343zm-2.647 2.884h1.497l.688-1.723h3.266l.699 1.723h1.532l-3.245-7.536h-1.159l-3.278 7.536zm-15.387 0h1.34v-5.823h.023l3.582 5.823h1.701v-7.536h-1.34v5.644h-.023l-3.503-5.644h-1.78v7.536zm-15.769-4.877c.124-.338.304-.62.53-.868a2.459 2.459 0 011.869-.799c.394 0 .744.067 1.07.214.316.146.597.338.822.585.226.248.406.541.529.868.125.338.193.698.193 1.081 0 .406-.057.777-.193 1.115a2.63 2.63 0 01-.529.879 2.645 2.645 0 01-.822.585 2.619 2.619 0 01-1.048.203c-.382 0-.732-.067-1.047-.203a2.505 2.505 0 01-1.352-1.464 3.213 3.213 0 01-.191-1.115 2.779 2.779 0 01.169-1.081zm-1.34 2.692c.202.484.484.901.844 1.261.361.35.788.62 1.273.823a4.416 4.416 0 001.611.292c.585 0 1.138-.101 1.633-.292a3.794 3.794 0 001.284-.823c.361-.349.643-.766.845-1.261a4.143 4.143 0 00.304-1.611c0-.597-.101-1.149-.304-1.633a3.54 3.54 0 00-.845-1.239 3.731 3.731 0 00-1.284-.789 4.733 4.733 0 00-1.633-.27c-.586 0-1.115.09-1.611.27a3.601 3.601 0 00-2.117 2.028 4.174 4.174 0 00-.305 1.633c0 .586.102 1.126.305 1.611zm-10.949 2.185h1.341v-7.536h-1.341v7.536zm-8.955-6.589a1.911 1.911 0 00-.541-.507 3.58 3.58 0 00-.686-.361 3.44 3.44 0 00-.755-.214 4.758 4.758 0 00-2.376.203c-.496.18-.925.451-1.296.789a3.57 3.57 0 00-.856 1.239c-.214.484-.315 1.025-.315 1.633 0 .586.101 1.126.292 1.61.203.485.473.902.834 1.262.36.349.777.62 1.273.822.495.203 1.036.293 1.621.293.643 0 1.217-.112 1.69-.349a3.546 3.546 0 001.229-.969l-1.082-.754c-.191.259-.44.473-.755.63a2.367 2.367 0 01-1.07.237c-.394 0-.744-.068-1.059-.203a2.276 2.276 0 01-.8-.574 2.62 2.62 0 01-.517-.879 3.28 3.28 0 01-.181-1.126 3 3 0 01.192-1.081c.124-.338.304-.62.529-.868a2.55 2.55 0 01.822-.586 2.532 2.532 0 011.07-.214c.305 0 .62.057.935.181.315.124.575.315.778.597l1.024-.811zm-20.06 3.705l1.182-3.063 1.161 3.063h-2.343zm-2.647 2.884h1.497l.676-1.723h3.267l.699 1.723h1.532l-3.245-7.536h-1.16l-3.266 7.536zm-15.387 0h1.341v-5.823h.022l3.582 5.823h1.701v-7.536h-1.341v5.644h-.022l-3.503-5.644h-1.78v7.536zm-22.077-4.877c.124-.338.304-.62.53-.868a2.466 2.466 0 011.869-.799c.394 0 .744.067 1.059.214.316.146.597.338.822.585.226.248.406.541.53.868.124.338.191.698.191 1.081 0 .406-.067.777-.191 1.115a2.649 2.649 0 01-.53.879 2.645 2.645 0 01-.822.585 2.656 2.656 0 01-1.047.203c-.383 0-.733-.067-1.048-.203a2.338 2.338 0 01-.822-.585 2.478 2.478 0 01-.53-.879 3.213 3.213 0 01-.191-1.115 2.607 2.607 0 01.18-1.081zm-1.352 2.692c.203.484.485.901.845 1.261.361.35.789.62 1.273.823a4.459 4.459 0 001.611.292 4.54 4.54 0 001.633-.292 3.794 3.794 0 001.284-.823c.361-.349.642-.766.845-1.261a4.143 4.143 0 00.304-1.611c0-.597-.101-1.149-.304-1.633a3.553 3.553 0 00-.845-1.239 3.731 3.731 0 00-1.284-.789 4.737 4.737 0 00-1.633-.27c-.586 0-1.115.09-1.611.27a3.583 3.583 0 00-1.273.789c-.36.338-.642.754-.845 1.239a4.192 4.192 0 00-.304 1.633c0 .586.102 1.126.304 1.611zm-14.44 2.185h5.182v-1.194h-3.841v-2.129h3.458v-1.126h-3.458v-1.915h3.649v-1.172h-4.99v7.536zm-9.394-6.927a2.857 2.857 0 00-1.025-.609 3.562 3.562 0 00-1.171-.202c-.338 0-.676.045-1.003.135-.326.09-.619.225-.878.405a2.062 2.062 0 00-.631.688 1.98 1.98 0 00-.237.991c0 .36.057.653.169.89.113.236.259.439.44.597.18.168.383.292.608.394.225.101.45.18.687.259.237.079.462.158.676.225.214.068.394.158.552.248.157.09.281.214.371.338a.85.85 0 01.136.495c0 .203-.045.372-.124.519a1.174 1.174 0 01-.316.349c-.135.09-.281.157-.439.202a2.346 2.346 0 01-.473.057c-.293 0-.597-.079-.912-.226a1.965 1.965 0 01-.744-.608l-.957.89c.293.361.676.62 1.149.8.473.18.946.27 1.441.27.372 0 .721-.045 1.059-.146.338-.102.62-.248.879-.451.248-.203.45-.45.597-.755.146-.304.225-.653.225-1.058 0-.372-.068-.676-.203-.924a2.005 2.005 0 00-.529-.619 3.12 3.12 0 00-.71-.395 12.828 12.828 0 00-.754-.27c-.214-.068-.406-.124-.586-.191a1.897 1.897 0 01-.451-.226 1.065 1.065 0 01-.293-.304.912.912 0 01-.112-.439c0-.18.045-.338.124-.473a.943.943 0 01.315-.316c.124-.078.27-.146.428-.18.158-.045.316-.056.473-.056.259 0 .518.056.777.18.26.124.462.282.597.462l.845-.946zm-14.316-.62h-1.34v4.72c0 .225-.023.439-.091.653a1.654 1.654 0 01-.281.586 1.583 1.583 0 01-.518.416c-.214.113-.485.158-.8.158-.315 0-.586-.056-.8-.158a1.364 1.364 0 01-.518-.416 1.492 1.492 0 01-.281-.586 2.577 2.577 0 01-.091-.653v-4.72h-1.34v4.765c0 .45.079.867.225 1.228.158.371.361.675.642.934.271.26.597.451.958.586.371.135.766.203 1.205.203a3.52 3.52 0 001.205-.203c.372-.135.687-.338.958-.586.27-.259.484-.563.642-.934.157-.361.236-.778.236-1.228v-4.765h-.011zm-23.812 7.547h1.273v-6.06h.023l2.252 6.06h.935l2.287-6.06h.022v6.06h1.329v-7.536h-2.106l-1.937 5.351h-.034l-1.96-5.351h-2.095v7.536h.011zm190.922-24.33l1.689-4.393 1.667 4.393h-3.356zm-3.785 4.123h2.152l.979-2.478h4.686l1.003 2.478H364l-4.651-10.814h-1.667l-4.698 10.814zm-10.205 0h8.256v-1.712h-6.003l5.914-7.356v-1.746h-8.076v1.679h5.789l-5.88 7.389v1.746zm-2.872-9.924a4.114 4.114 0 00-1.476-.867 5.18 5.18 0 00-1.667-.293c-.483 0-.968.068-1.441.191-.473.124-.89.327-1.262.586a2.997 2.997 0 00-.901.98c-.225.394-.349.867-.349 1.419 0 .507.078.935.248 1.273.157.338.371.631.63.868.259.236.552.428.879.563.326.146.653.27.98.371.337.113.653.214.957.327.305.101.575.225.788.361.226.135.406.304.541.484a1.2 1.2 0 01.203.709c0 .293-.056.541-.18.744a1.49 1.49 0 01-.462.496 1.767 1.767 0 01-.631.281 2.938 2.938 0 01-.686.079c-.429 0-.868-.101-1.307-.315a2.785 2.785 0 01-1.059-.868l-1.374 1.284c.428.507.98.89 1.644 1.149a5.729 5.729 0 002.061.394c.53 0 1.037-.067 1.509-.214a3.84 3.84 0 001.251-.642 3.02 3.02 0 00.856-1.081c.215-.428.315-.935.315-1.521 0-.529-.1-.968-.292-1.329a2.814 2.814 0 00-.766-.89 3.942 3.942 0 00-1.026-.563c-.371-.146-.732-.27-1.08-.383a14.31 14.31 0 01-.834-.27 3.233 3.233 0 01-.653-.315 1.414 1.414 0 01-.417-.44 1.22 1.22 0 01-.158-.63c0-.26.057-.496.181-.676a1.46 1.46 0 01.45-.462 2.09 2.09 0 01.608-.259c.226-.056.451-.079.676-.079.372 0 .754.09 1.127.27.371.181.653.395.867.665l1.25-1.397zm-12.593 9.924h1.926V123.27h-1.926v10.814zm-15.578 0h1.836v-8.685h.034l3.233 8.685h1.34l3.278-8.685h.033v8.685h1.916V123.27h-3.019l-2.783 7.682h-.045l-2.804-7.682h-3.008v10.814h-.011zm-10.835 0h7.433v-1.712h-5.507v-3.053h4.956v-1.622h-4.956v-2.748h5.237v-1.679h-7.163v10.814zm-13.439 0h1.926v-8.347h.035l5.125 8.347h2.443V123.27h-1.926v8.088h-.033l-5.024-8.088h-2.546v10.814zm-9.202-6.15v-3.042h1.746c.247 0 .496.023.755.057.259.045.495.112.698.225a1.5 1.5 0 01.507.45c.135.192.203.428.203.721 0 .327-.068.597-.214.8a1.477 1.477 0 01-.541.484 2.128 2.128 0 01-.744.226 7.037 7.037 0 01-.822.056h-1.588v.023zm-1.926 6.15h1.926v-4.585h1.408l2.501 4.585h2.32l-2.884-4.799c.767-.169 1.364-.507 1.814-1.002.439-.496.665-1.138.665-1.915 0-.575-.113-1.048-.338-1.453a2.7 2.7 0 00-.891-.958 3.912 3.912 0 00-1.272-.529 6.449 6.449 0 00-1.487-.158h-3.751v10.814h-.011zm-12.649-6.995c.18-.473.427-.89.754-1.251.328-.36.722-.642 1.172-.844.45-.203.958-.304 1.52-.304.564 0 1.071.101 1.532.304.462.202.845.484 1.172.844.327.361.574.778.754 1.251.181.473.271 1.002.271 1.554 0 .586-.09 1.115-.271 1.6-.18.484-.427.901-.765 1.261a3.408 3.408 0 01-1.184.834c-.461.202-.956.293-1.509.293a3.782 3.782 0 01-1.497-.293 3.466 3.466 0 01-1.172-.834 3.854 3.854 0 01-.766-1.261 4.549 4.549 0 01-.27-1.6 4.161 4.161 0 01.259-1.554zm-1.926 3.875a5.567 5.567 0 001.205 1.802 5.281 5.281 0 001.836 1.171c.709.282 1.476.417 2.309.417.845 0 1.622-.135 2.331-.417a5.679 5.679 0 001.848-1.171 5.427 5.427 0 001.217-1.802c.292-.699.439-1.465.439-2.31 0-.867-.147-1.644-.439-2.342a5.206 5.206 0 00-1.217-1.78 5.236 5.236 0 00-1.848-1.127c-.709-.27-1.486-.394-2.331-.394a6.63 6.63 0 00-2.309.394 5.373 5.373 0 00-1.836 1.127c-.518.484-.912 1.081-1.205 1.78-.293.698-.44 1.475-.44 2.342 0 .845.147 1.611.44 2.31zm-9.394-1.645h1.802c.788 0 1.363.113 1.757.338.383.225.586.619.586 1.194 0 .36-.079.642-.237.856-.158.214-.36.383-.597.484a2.93 2.93 0 01-.788.226 7.006 7.006 0 01-.789.056h-1.723v-3.154h-.011zm0-4.449h1.543c.732 0 1.273.101 1.622.304.349.203.518.552.518 1.036 0 .473-.169.834-.507 1.082-.338.259-.822.382-1.464.382h-1.712v-2.804zm-1.927 9.214h3.898c.507 0 1.014-.057 1.498-.158a4.055 4.055 0 001.318-.53c.383-.247.687-.563.923-.968.237-.406.35-.901.35-1.487 0-.732-.214-1.318-.654-1.757-.439-.439-1.002-.699-1.678-.8v-.034a2.884 2.884 0 001.363-.856c.349-.394.518-.901.518-1.509 0-.484-.101-.901-.293-1.25a2.47 2.47 0 00-.755-.845 2.828 2.828 0 00-1.058-.473c-.395-.09-.8-.147-1.206-.147h-4.212v10.814h-.012zm-3.334-5.452h-3.66v1.554h3.66v-1.554zm-16.512 5.452h1.926v-8.347h.034l5.125 8.347h2.444V123.27h-1.926v8.088h-.034l-5.024-8.088h-2.545v10.814zm-10.847 0h7.434v-1.712h-5.508v-3.053h4.967v-1.622h-4.967v-2.748h5.237v-1.679h-7.163v10.814zm-3.526-9.924a4.114 4.114 0 00-1.476-.867 5.198 5.198 0 00-1.678-.293c-.484 0-.968.068-1.442.191a3.82 3.82 0 00-1.261.586 2.997 2.997 0 00-.901.98c-.225.394-.349.867-.349 1.419 0 .507.078.935.247 1.273.158.338.372.631.631.868.259.236.552.428.879.563.326.146.653.27.98.371.338.113.653.214.957.327.304.101.575.225.8.361.225.135.405.304.529.484a1.2 1.2 0 01.203.709c0 .293-.056.541-.18.744a1.51 1.51 0 01-.462.496 1.775 1.775 0 01-.631.281 2.94 2.94 0 01-.687.079 2.97 2.97 0 01-1.307-.315 2.781 2.781 0 01-1.058-.868l-1.375 1.284c.429.507.98.89 1.645 1.149a5.725 5.725 0 002.061.394c.53 0 1.037-.067 1.51-.214.484-.146.889-.36 1.25-.642a3.02 3.02 0 00.856-1.081c.214-.428.327-.935.327-1.521 0-.529-.102-.968-.293-1.329a2.814 2.814 0 00-.766-.89 3.797 3.797 0 00-1.025-.563c-.372-.146-.732-.27-1.082-.383-.304-.09-.585-.18-.844-.27a3.27 3.27 0 01-.654-.315 1.4 1.4 0 01-.416-.44 1.21 1.21 0 01-.158-.63c0-.26.056-.496.169-.676a1.47 1.47 0 01.45-.462c.181-.113.383-.203.609-.259a2.78 2.78 0 01.676-.079c.371 0 .754.09 1.126.27.372.181.653.395.867.665l1.273-1.397zm-10.295 0a4.114 4.114 0 00-1.476-.867 5.185 5.185 0 00-1.667-.293c-.484 0-.968.068-1.441.191a3.816 3.816 0 00-1.262.586 2.997 2.997 0 00-.901.98c-.225.394-.349.867-.349 1.419 0 .507.079.935.248 1.273.157.338.371.631.63.868.259.236.552.428.879.563.326.146.653.27.98.371.338.113.653.214.957.327.304.101.575.225.8.361.225.135.405.304.529.484.136.191.203.428.203.709 0 .293-.056.541-.18.744a1.5 1.5 0 01-.462.496 1.767 1.767 0 01-.631.281 2.94 2.94 0 01-.687.079c-.428 0-.867-.101-1.306-.315-.44-.214-.8-.507-1.059-.868l-1.374 1.284c.428.507.98.89 1.644 1.149a5.725 5.725 0 002.061.394c.53 0 1.037-.067 1.51-.214.473-.146.89-.36 1.25-.642a3.01 3.01 0 00.856-1.081c.214-.428.327-.935.327-1.521 0-.529-.102-.968-.293-1.329a2.682 2.682 0 00-.766-.89 3.953 3.953 0 00-1.025-.563c-.372-.146-.732-.27-1.081-.383-.305-.09-.586-.18-.845-.27a3.233 3.233 0 01-.653-.315 1.392 1.392 0 01-.417-.44 1.21 1.21 0 01-.158-.63c0-.26.056-.496.18-.676.113-.192.271-.338.451-.462a1.83 1.83 0 01.608-.259c.225-.056.451-.079.676-.079.372 0 .755.09 1.126.27.372.181.654.395.868.665l1.25-1.397zm-15.172 9.924h1.926v-4.686l4.066-6.116h-2.23l-2.749 4.55-2.714-4.55h-2.354l4.066 6.116v4.686h-.011zm-15.421 0h1.926v-4.799h5.058v4.799h1.915V123.27h-1.926v4.371h-5.058v-4.371h-1.915v10.814zm-8.019 0h1.926v-9.135h3.311v-1.679H164v1.679h3.312v9.135z" fill="#000"/></svg>