<svg width="528" height="278" fill="none" xmlns="http://www.w3.org/2000/svg"><path fill="#F3F3F3" d="M0 0h528v278H0z"/><path d="M171.273 116.213v12.02h.101c1.616-2.222 3.636-3.232 6.363-3.232 5.051 0 7.475 3.434 7.475 8.485v12.424h-7.071v-10.404c0-2.323-.303-4.849-3.232-4.849-2.828 0-3.737 2.425-3.737 4.849v10.404h-7.071v-29.697h7.172zm31.414 16.565c-.303-1.919-2.121-3.233-4.04-3.233-2.021 0-3.738 1.112-4.243 3.233h8.283zm6.667 4.141h-14.95c0 2.929 1.515 4.546 4.445 4.546 1.515 0 2.626-.505 3.434-1.819h6.869c-1.111 4.748-5.657 6.97-10.202 6.97-6.667 0-11.617-3.838-11.617-10.808 0-6.768 4.546-10.808 11.112-10.808 6.969 0 10.909 4.343 10.909 11.212v.707zm2.02 8.991h7.07v-29.697h-7.07v29.697m20.606-9.9l4.747-10.405h7.98l-10.404 20.303h-4.647l-10.505-20.303h7.98l4.849 10.405zm26.363-3.232c-.303-1.919-2.121-3.233-4.04-3.233-2.02 0-3.738 1.112-4.243 3.233h8.283zm6.566 4.141h-14.95c0 2.929 1.516 4.546 4.445 4.546 1.515 0 2.626-.505 3.434-1.819h6.869c-1.111 4.748-5.657 6.97-10.202 6.97-6.667 0-11.616-3.838-11.616-10.808 0-6.768 4.545-10.808 11.111-10.808 6.969 0 10.909 4.343 10.909 11.212v.707zm10.505 8.99h-7.071v-14.344h-2.323v-5.959h2.323v-6.061h7.071v6.061h4.04v5.959h-4.04v14.344m12.425-.001h-7.071v-20.303h7.071v20.303zm.505-26.666c0 2.222-1.819 4.04-3.94 4.04-2.222 0-3.939-1.818-3.939-4.04 0-2.223 1.818-4.041 3.939-4.041s3.94 1.818 3.94 4.041zm8.888 16.566c0 2.525 1.717 4.546 4.546 4.546 2.929 0 4.545-2.021 4.545-4.546 0-2.525-1.717-4.545-4.545-4.545-2.829-.101-4.546 2.02-4.546 4.545zm16.061 10.101h-7.071v-2.222h-.101c-1.212 2.02-3.737 2.929-6.061 2.929-5.959 0-10.101-5.05-10.101-10.808 0-5.757 4.142-10.808 10-10.808 2.324 0 4.748.909 6.162 2.626v-2.02h7.071v20.303" fill="#000"/><path d="M330.364 138.939l7.98-2.122 1.717-4.04-3.536-8.283-.808 2.02-5.353 12.425zm17.878-25.959l-3.333-7.576-8.081 1.818 3.232 7.677 8.182-1.919z" fill="#533863"/><path d="M335.919 123.283l.101-.303 3.233-7.475-3.233-7.273-12.626 29.899 5.758 1.011 6.767-15.859z" fill="#875EA0"/><path d="M339.252 115.505l-.202-.404-2.929-6.97-.101.101 3.232 7.273z" fill="#000"/><path d="M338.546 137.93l-6.566 1.616 11.717 2.121-1.212-3.03-3.939-.707z" fill="#006B71"/><path d="M329.253 140.253l-2.223-.404h.101l-4.242-.808-2.626 6.465 27.272 4.949-3.232-7.576-15.05-2.626z" fill="#00A2A9"/><path d="M327.232 139.748l-4.343-.707 4.242.808.101-.101z" fill="#000"/><path d="M327.131 139.848h-.101l2.223.404-.102-.101-2.02-.303zm2.626.405l-.303-.101-.202.101 15.051 2.627v-.101l-14.546-2.526z" fill="#000"/><path d="M329.252 140.253l.202-.101h-.303l.101.101zm-.1-.101l-1.92-.404-.101.101 2.021.303zm.303 0l.303.101-.303-.101z" fill="#000"/><path d="M340.465 115.909l2.02 4.647 13.434 31.313 7.98-2.323-15.252-35.556-4.041.909-4.141 1.01z" fill="#B70417"/><path d="M344.606 114.899l4.04-.909-4.04.909z" fill="#000"/><path d="M337.131 123.183l4.041 9.494v.102l3.939 9.09 1.515 3.637 2.223 5.151 5.959 1.111-8.99-21.01-6.06-13.838-2.627 6.263z" fill="#E3001B"/><path d="M341.172 132.778v-.101l-4.041-9.495-.101.101 4.142 9.495zm-1.414-15.859v-.101l-2.728 6.263.101.101 2.627-6.263z" fill="#000"/><path d="M337.03 123.282l.101-.101-.101-.101v.202zm8.081 18.587l1.515 3.637-1.515-3.637zm9.697 9.899l-8.99-21.01 8.99 21.01zm-141.323 19.207h1.057v-8.888h-1.057v8.888zm3.105 0h.945v-2.871c0-.609 0-1.069.323-1.467.311-.386.796-.597 1.355-.597.995 0 1.48.547 1.48 1.666v3.269h.945v-3.779c0-1.255-.796-1.977-2.089-1.977-.87 0-1.542.336-2.026 1.057v-4.712h-.933v9.411zm6.933 0h.945v-2.71c0-1.454.497-2.175 1.504-2.175.174 0 .373.037.584.112l.323-.858a1.897 1.897 0 00-.646-.112c-.845 0-1.368.398-1.865 1.343v-1.157h-.845v5.557zm9.306-2.635v-.187c0-1.84-1.044-2.946-2.673-2.946-1.616 0-2.772 1.218-2.772 2.971 0 1.815 1.144 3.034 2.835 3.034 1.143 0 2.014-.51 2.573-1.517l-.721-.485c-.46.808-1.057 1.206-1.803 1.206-1.069 0-1.84-.783-1.84-1.989v-.087h4.401zm-1.019-.771h-3.382c.1-.945.784-1.529 1.691-1.529 1.007 0 1.629.547 1.691 1.529zm9.443-1.529l-1.268-.559c-.808-.349-1.193-.796-1.193-1.43 0-.758.559-1.293 1.355-1.293.634 0 1.119.348 1.504 1.019l.87-.559c-.435-.883-1.231-1.343-2.3-1.343-1.479 0-2.499.945-2.499 2.188 0 1.082.572 1.853 1.753 2.35l1.082.46c.92.398 1.38.982 1.38 1.778 0 .969-.709 1.653-1.778 1.653-.895 0-1.504-.559-1.765-1.641l-.958.473c.336 1.317 1.318 2.063 2.723 2.063 1.716 0 2.847-1.094 2.847-2.722 0-1.119-.584-1.94-1.753-2.437zm7.318 3.618c-.584.422-1.118.634-1.715.634-1.156 0-1.989-.895-1.989-2.014 0-1.318.845-2.139 2.063-2.139.547 0 1.07.174 1.542.485v-1.019a3.956 3.956 0 00-1.728-.386c-1.666 0-2.897 1.219-2.897 3.034 0 1.753 1.132 2.959 2.86 2.959.721 0 1.355-.149 1.864-.448v-1.106zm1.321 1.317h.945v-2.871c0-.609 0-1.069.323-1.467.311-.386.796-.597 1.355-.597.995 0 1.48.547 1.48 1.666v3.269h.944v-3.779c0-1.255-.795-1.977-2.088-1.977-.87 0-1.542.336-2.027 1.057v-4.712h-.932v9.411zm10.327-5.756h-.15l-1.69 3.991-1.48-3.792h-1.057l2.474 5.906 1.828-4.265 1.827 4.265 2.474-5.906h-1.069l-1.492 3.792-1.665-3.991zm10.161 3.121v-.187c0-1.84-1.044-2.946-2.673-2.946-1.616 0-2.772 1.218-2.772 2.971 0 1.815 1.144 3.034 2.835 3.034 1.143 0 2.014-.51 2.573-1.517l-.721-.485c-.46.808-1.057 1.206-1.803 1.206-1.069 0-1.84-.783-1.84-1.989v-.087h4.401zm-1.019-.771h-3.382c.1-.945.784-1.529 1.691-1.529 1.007 0 1.629.547 1.691 1.529zm2.495 3.406h.944v-5.557h-.944v5.557zm-.224-8.23c0 .398.311.697.696.697a.685.685 0 00.696-.684.706.706 0 00-.696-.709.695.695 0 00-.696.696zm2.402 8.23h4.836v-.832h-3.158l3.182-4.725h-4.662v.833h2.984l-3.182 4.724zm11.097-2.635v-.187c0-1.84-1.044-2.946-2.673-2.946-1.616 0-2.772 1.218-2.772 2.971 0 1.815 1.144 3.034 2.834 3.034 1.144 0 2.014-.51 2.574-1.517l-.721-.485c-.46.808-1.057 1.206-1.803 1.206-1.069 0-1.84-.783-1.84-1.989v-.087h4.401zm-1.019-.771h-3.382c.1-.945.783-1.529 1.691-1.529 1.007 0 1.629.547 1.691 1.529zm2.457 3.406h.945v-2.71c0-1.454.497-2.175 1.504-2.175.174 0 .373.037.585.112l.323-.858a1.907 1.907 0 00-.647-.112c-.845 0-1.367.398-1.864 1.343v-1.157h-.846v5.557zm10.648.349l3.742-9.237h-1.143l-2.599 6.8-2.61-6.8h-1.144l3.754 9.237zm8.845-2.984v-.187c0-1.84-1.045-2.946-2.673-2.946-1.616 0-2.773 1.218-2.773 2.971 0 1.815 1.144 3.034 2.835 3.034 1.144 0 2.014-.51 2.573-1.517l-.721-.485c-.46.808-1.057 1.206-1.802 1.206-1.07 0-1.84-.783-1.84-1.989v-.087h4.401zm-1.02-.771h-3.381c.099-.945.783-1.529 1.69-1.529 1.007 0 1.629.547 1.691 1.529zm2.458 3.406h.944v-2.71c0-1.454.498-2.175 1.505-2.175.174 0 .373.037.584.112l.323-.858a1.897 1.897 0 00-.646-.112c-.846 0-1.368.398-1.865 1.343v-1.157h-.845v5.557zm3.761-.932c.435.783 1.157 1.169 2.188 1.169 1.231 0 2.027-.734 2.027-1.766 0-.907-.535-1.305-1.616-1.653-.92-.298-1.43-.373-1.43-.957 0-.485.385-.833.945-.833.584 0 1.044.286 1.268.795l.771-.472c-.299-.709-1.02-1.107-1.977-1.107-1.181 0-1.964.709-1.964 1.679 0 1.094.82 1.33 2.188 1.802.584.199.87.423.87.846 0 .485-.41.833-1.044.833-.634 0-1.107-.286-1.418-.883l-.808.547zm5.697.932h.945v-5.557h-.945v5.557zm-.224-8.23c0 .398.311.697.696.697a.685.685 0 00.697-.684.707.707 0 00-.697-.709.695.695 0 00-.696.696zm7.449 6.913c-.584.422-1.119.634-1.715.634-1.156 0-1.989-.895-1.989-2.014 0-1.318.845-2.139 2.063-2.139.547 0 1.07.174 1.542.485v-1.019a3.959 3.959 0 00-1.728-.386c-1.666 0-2.897 1.219-2.897 3.034 0 1.753 1.132 2.959 2.86 2.959.721 0 1.355-.149 1.864-.448v-1.106zm1.321 1.317h.945v-2.871c0-.609 0-1.069.323-1.467.311-.386.796-.597 1.355-.597.995 0 1.479.547 1.479 1.666v3.269h.945v-3.779c0-1.255-.795-1.977-2.088-1.977-.871 0-1.542.336-2.027 1.057v-4.712h-.932v9.411zm11.88-2.635v-.187c0-1.84-1.044-2.946-2.672-2.946-1.617 0-2.773 1.218-2.773 2.971 0 1.815 1.144 3.034 2.835 3.034 1.143 0 2.014-.51 2.573-1.517l-.721-.485c-.46.808-1.057 1.206-1.803 1.206-1.069 0-1.84-.783-1.84-1.989v-.087h4.401zm-1.019-.771h-3.382c.1-.945.784-1.529 1.691-1.529 1.007 0 1.629.547 1.691 1.529zm2.457 3.406h.945v-2.71c0-1.454.498-2.175 1.505-2.175.174 0 .373.037.584.112l.323-.858a1.9 1.9 0 00-.646-.112c-.846 0-1.368.398-1.865 1.343v-1.157h-.846v5.557zm5.217-5.557h-.945v3.32c0 1.628.883 2.474 2.499 2.474 1.666 0 2.536-.871 2.536-2.549v-3.245h-.945v2.735c-.025 1.467-.348 2.151-1.566 2.151-1.219 0-1.579-.684-1.579-2.151v-2.735zm5.928 5.557h.945v-2.871c0-.609 0-1.069.323-1.467.311-.386.796-.597 1.355-.597.995 0 1.48.547 1.48 1.666v3.269h.945v-3.779c0-1.255-.796-1.977-2.089-1.977-.87 0-1.541.336-2.014 1.057v-.858h-.945v5.557zm12.117-5.557h-.97v1.032c-.41-.808-1.119-1.231-2.039-1.231-1.554 0-2.61 1.107-2.61 2.959 0 1.803 1.069 2.972 2.66 2.972.858 0 1.579-.436 2.014-1.231v.932c0 .51-.025.92-.236 1.268-.286.485-.833.734-1.591.734-1.069 0-1.654-.485-1.654-1.306v-.074h-1.069c.037 1.392 1.007 2.213 2.71 2.213.982 0 1.728-.286 2.238-.846.522-.547.547-1.168.547-1.964v-5.458zm-.945 2.798c0 1.28-.696 2.026-1.815 2.026-1.181 0-1.852-.758-1.852-2.101 0-1.268.671-2.002 1.815-2.002 1.069 0 1.852.784 1.852 2.077z" fill="#000"/></svg>