<svg width="528" height="278" viewBox="0 0 528 278" fill="none" xmlns="http://www.w3.org/2000/svg">
<rect width="528" height="278" fill="#EA650D"/>
<path d="M164 142.913C164.067 142.347 164.1 141.78 164.167 141.214C164.467 138.515 165.233 136.015 166.932 133.883C168.832 131.484 171.364 130.084 174.263 129.318C176.063 128.851 177.895 128.651 179.761 128.651C188.192 128.651 196.622 128.651 205.086 128.651C205.22 128.651 205.386 128.651 205.553 128.651C204.253 135.182 202.954 141.68 201.621 148.245C201.021 147.378 200.488 146.579 199.988 145.779C197.256 141.647 194.523 137.482 191.757 133.35C191.391 132.783 190.858 132.517 190.158 132.517C187.559 132.517 184.926 132.517 182.327 132.517C181.594 132.517 181.194 132.85 181.061 133.583C179.628 140.547 178.229 147.545 176.796 154.509C176.662 155.109 176.962 155.476 177.562 155.476C179.495 155.476 181.461 155.476 183.394 155.476C183.993 155.476 184.46 155.109 184.56 154.476C185.193 151.31 185.826 148.178 186.493 145.012C186.826 143.38 187.159 141.747 187.492 140.114C187.525 140.014 187.559 139.914 187.592 139.748C187.959 140.281 188.259 140.747 188.592 141.247C191.524 145.679 194.457 150.077 197.389 154.509C197.822 155.176 198.422 155.476 199.188 155.476C201.721 155.476 204.253 155.476 206.786 155.476C207.585 155.476 208.019 155.109 208.185 154.343C209.518 147.745 210.884 141.147 212.251 134.549C212.417 133.683 212.584 132.783 212.784 131.917C212.917 131.284 212.817 130.651 212.484 130.117C210.851 127.552 209.218 124.986 207.552 122.453C207.186 121.887 206.619 121.654 205.919 121.654C194.09 121.654 182.261 121.654 170.398 121.654C170.098 121.654 169.798 121.654 169.531 121.587C169.098 121.52 168.965 121.287 169.165 120.887C169.332 120.554 169.565 120.221 169.798 119.921C173.93 114.989 179.028 111.524 185.293 110.024C196.589 107.292 206.453 110.024 214.683 118.255C219.315 122.887 222.014 128.551 222.814 135.049C223.98 144.379 221.414 152.61 215.05 159.574C210.485 164.573 204.786 167.605 198.122 168.771C196.856 169.004 195.556 169.071 194.29 169.204C194.19 169.204 194.123 169.238 194.023 169.271C193.324 169.271 192.624 169.271 191.957 169.271C191.857 169.238 191.757 169.204 191.657 169.204C190.458 169.071 189.258 169.038 188.092 168.838C179.128 167.238 172.231 162.573 167.466 154.843C165.666 151.944 164.533 148.778 164.167 145.346C164.133 144.946 164.067 144.579 164.033 144.179C164 143.713 164 143.313 164 142.913Z" fill="white"/>
<path d="M364 155.809C363.833 155.876 363.633 155.976 363.467 156.009C362.934 156.042 362.367 156.009 361.834 156.009C361.368 156.009 361.301 155.942 361.301 155.476C361.301 153.343 361.301 151.177 361.301 149.045C361.301 148.645 361.268 148.212 361.201 147.812C360.868 146.346 359.235 145.779 357.935 146.679C357.002 147.312 356.636 148.245 356.602 149.311C356.569 151.311 356.569 153.31 356.569 155.309C356.569 156.009 356.536 156.009 355.869 156.009C355.403 156.009 354.903 156.009 354.436 156.009C353.937 156.009 353.87 155.942 353.87 155.443C353.87 152.743 353.87 150.044 353.87 147.312C353.87 146.412 353.87 145.513 353.87 144.646C353.87 144.18 353.97 144.113 354.403 144.113C354.87 144.113 355.303 144.113 355.769 144.113C356.136 144.113 356.269 144.246 356.303 144.613C356.336 144.913 356.369 145.213 356.403 145.579C356.602 145.379 356.769 145.213 356.936 145.079C358.135 144.013 359.501 143.613 361.068 143.946C362.667 144.313 363.7 145.579 363.933 147.445C363.933 147.545 364 147.679 364 147.778C364 150.411 364 153.11 364 155.809Z" fill="white"/>
<path d="M335.676 145.08C335.676 143.747 335.676 142.447 335.676 141.181C335.676 140.715 335.676 140.281 335.676 139.815C335.676 139.515 335.776 139.348 336.109 139.315C336.742 139.248 337.342 139.182 337.975 139.148C338.109 139.148 338.242 139.315 338.342 139.448C338.409 139.515 338.342 139.648 338.342 139.748C338.342 144.947 338.342 150.178 338.342 155.376C338.342 155.976 338.309 156.009 337.709 156.009C337.342 156.009 336.976 156.009 336.576 156.009C336.176 156.043 335.976 155.876 335.943 155.476C335.909 155.176 335.843 154.91 335.809 154.543C335.243 155.276 334.577 155.743 333.743 156.043C331.677 156.776 329.412 155.943 328.312 153.877C327.012 151.444 326.979 148.912 328.179 146.413C329.578 143.58 333.044 142.914 335.476 144.947C335.543 144.98 335.576 144.98 335.676 145.08ZM335.709 149.945C335.709 149.145 335.676 148.345 335.31 147.612C334.843 146.646 334.043 146.079 332.977 146.079C331.944 146.079 331.178 146.646 330.744 147.579C329.978 149.245 330.011 150.945 330.811 152.577C331.244 153.477 331.977 154.043 332.977 154.01C334.01 154.01 334.743 153.444 335.21 152.544C335.643 151.711 335.709 150.845 335.709 149.945Z" fill="white"/>
<path d="M269.265 145.047C269.265 143.647 269.265 142.381 269.265 141.081C269.265 140.648 269.265 140.215 269.265 139.815C269.265 139.515 269.398 139.349 269.698 139.315C270.298 139.282 270.931 139.182 271.531 139.149C271.797 139.115 271.931 139.215 271.964 139.515C271.964 139.615 271.964 139.715 271.964 139.848C271.964 145.047 271.964 150.212 271.964 155.41C271.964 156.076 271.964 156.076 271.298 156.076C270.931 156.076 270.564 156.043 270.231 156.076C269.831 156.11 269.631 155.91 269.598 155.543C269.565 155.243 269.498 154.977 269.465 154.71C269.065 155.043 268.698 155.41 268.265 155.71C266.333 156.943 263.867 156.476 262.434 154.677C261.501 153.511 261.134 152.144 261.034 150.712C260.934 149.179 261.134 147.679 261.901 146.313C263.4 143.714 266.599 143.081 268.965 144.913C269.065 144.88 269.132 144.947 269.265 145.047ZM269.398 149.978C269.298 148.845 269.165 148.112 268.832 147.479C267.865 145.713 265.566 145.613 264.5 147.279C263.533 148.812 263.6 151.478 264.633 152.944C265.466 154.11 266.966 154.41 268.032 153.477C268.432 153.111 268.798 152.611 268.998 152.078C269.198 151.411 269.265 150.678 269.398 149.978Z" fill="white"/>
<path d="M309.352 132.817C308.852 133.217 308.419 133.683 307.885 133.983C306.053 135.016 303.687 134.383 302.387 132.517C301.354 131.017 301.054 129.351 301.154 127.585C301.221 126.219 301.587 124.919 302.42 123.786C303.887 121.887 306.552 121.354 308.419 122.62C308.785 122.887 309.118 123.187 309.485 123.52C309.518 123.253 309.551 122.987 309.585 122.687C309.618 122.354 309.785 122.187 310.151 122.187C310.551 122.187 310.984 122.187 311.384 122.187C311.717 122.187 311.884 122.32 311.884 122.653C311.884 123.32 311.884 124.02 311.884 124.686C311.884 127.618 311.884 130.551 311.884 133.483C311.884 134.05 311.851 134.116 311.284 134.116C310.884 134.116 310.451 134.116 310.051 134.116C309.685 134.15 309.551 133.983 309.485 133.65C309.452 133.383 309.418 133.083 309.352 132.817ZM309.252 128.385C309.185 127.618 309.152 126.985 309.018 126.386C308.785 125.119 307.952 124.32 306.886 124.186C305.819 124.086 304.853 124.653 304.353 125.819C303.687 127.452 303.72 129.085 304.52 130.684C304.82 131.284 305.286 131.75 305.953 131.984C307.119 132.384 308.285 131.817 308.752 130.517C309.052 129.851 309.118 129.018 309.252 128.385Z" fill="white"/>
<path d="M256.503 123.587C256.569 123.221 256.602 122.921 256.636 122.621C256.669 122.354 256.836 122.188 257.136 122.221C257.569 122.221 258.002 122.221 258.469 122.221C258.802 122.221 258.935 122.388 258.935 122.688C258.935 126.353 258.935 130.018 258.935 133.684C258.935 134.017 258.802 134.184 258.469 134.15C258.002 134.15 257.502 134.15 257.036 134.15C256.736 134.15 256.602 134.017 256.569 133.751C256.536 133.417 256.469 133.084 256.403 132.784C256.069 133.084 255.803 133.417 255.436 133.684C253.77 134.95 251.338 134.65 249.871 133.051C248.938 132.018 248.472 130.785 248.305 129.419C248.105 127.719 248.239 126.053 249.072 124.487C250.105 122.554 252.237 121.555 254.303 122.088C255.136 122.288 255.836 122.821 256.503 123.587ZM256.303 128.052C256.169 127.319 256.103 126.586 255.903 125.886C255.603 124.92 254.936 124.32 253.937 124.22C252.904 124.12 252.104 124.587 251.637 125.487C250.704 127.286 250.738 129.119 251.704 130.885C252.204 131.784 253.004 132.251 254.07 132.118C255.07 131.984 255.669 131.318 255.936 130.418C256.069 129.652 256.169 128.852 256.303 128.052Z" fill="white"/>
<path d="M309.418 154.676C308.918 155.076 308.485 155.543 307.952 155.843C306.219 156.842 303.853 156.242 302.554 154.51C301.488 153.077 301.154 151.411 301.221 149.678C301.254 148.412 301.521 147.212 302.187 146.146C303.387 144.18 305.753 143.28 307.719 144.113C308.385 144.38 308.952 144.913 309.585 145.313C309.618 145.146 309.685 144.879 309.685 144.58C309.718 144.246 309.885 144.113 310.218 144.113C310.651 144.113 311.084 144.113 311.484 144.113C311.784 144.113 311.951 144.213 311.951 144.546C311.951 148.212 311.951 151.91 311.951 155.576C311.951 155.909 311.784 156.042 311.484 156.009C311.018 156.009 310.518 156.009 310.051 156.009C309.718 156.009 309.585 155.843 309.551 155.576C309.485 155.243 309.452 154.943 309.418 154.676ZM309.252 149.978C309.218 149.478 309.185 148.978 309.118 148.512C309.085 148.212 308.985 147.878 308.852 147.579C308.485 146.712 307.852 146.179 306.886 146.079C305.953 146.012 305.253 146.412 304.72 147.145C304.153 147.945 303.953 148.911 303.953 149.878C303.953 150.977 304.12 152.077 304.786 152.977C305.953 154.576 307.985 154.31 308.785 152.51C309.185 151.711 309.252 150.844 309.252 149.978Z" fill="white"/>
<path d="M322.614 129.149C322.814 131.349 324.28 132.448 326.513 132.082C327.212 131.982 327.912 131.715 328.612 131.482C328.978 131.349 329.178 131.382 329.312 131.748C329.445 132.115 329.611 132.482 329.778 132.848C329.911 133.115 329.845 133.315 329.578 133.448C327.512 134.481 325.346 134.814 323.147 133.981C321.814 133.481 320.881 132.482 320.348 131.182C319.548 129.149 319.548 127.117 320.415 125.117C321.348 122.885 323.314 121.752 325.746 121.918C328.045 122.085 329.711 123.451 330.311 125.817C330.545 126.717 330.578 127.65 330.644 128.583C330.678 129.049 330.545 129.149 330.078 129.149C327.745 129.149 325.413 129.149 323.08 129.149C322.947 129.149 322.78 129.149 322.614 129.149ZM322.614 127.15C324.38 127.15 326.113 127.15 327.879 127.15C327.845 125.317 326.879 124.218 325.346 124.151C323.88 124.084 322.78 125.317 322.614 127.15Z" fill="white"/>
<path d="M277.262 151.01C277.429 152.876 278.495 153.942 280.195 154.009C281.094 154.042 281.994 153.875 282.86 153.509C283.027 153.442 283.194 153.376 283.36 153.276C283.594 153.176 283.793 153.242 283.893 153.476C284.093 153.909 284.26 154.342 284.427 154.808C284.56 155.142 284.293 155.275 284.06 155.375C282.561 156.141 280.961 156.408 279.295 156.241C277.695 156.075 276.396 155.342 275.463 153.975C274.83 153.076 274.53 152.043 274.43 150.943C274.297 149.377 274.463 147.844 275.23 146.445C276.296 144.512 278.262 143.512 280.594 143.779C282.827 144.045 284.16 145.345 284.86 147.411C285.193 148.411 285.26 149.41 285.26 150.443C285.26 150.81 285.093 150.976 284.726 150.943C282.394 150.943 280.028 150.943 277.695 150.943C277.595 151.01 277.429 151.01 277.262 151.01ZM277.296 149.01C279.062 149.01 280.794 149.01 282.561 149.01C282.527 147.244 281.561 146.111 280.128 146.045C278.362 145.945 277.462 147.378 277.296 149.01Z" fill="white"/>
<path d="M343.54 151.01C343.673 152.976 344.973 154.109 346.872 154.009C347.805 153.943 348.705 153.743 349.572 153.343C349.971 153.176 350.105 153.21 350.238 153.61C350.405 153.976 350.538 154.343 350.704 154.709C350.804 154.976 350.771 155.176 350.505 155.309C348.439 156.342 346.273 156.675 344.073 155.842C342.54 155.276 341.574 154.076 341.108 152.543C340.541 150.677 340.574 148.845 341.308 147.045C342.207 144.813 344.107 143.68 346.639 143.78C348.805 143.879 350.471 145.212 351.204 147.412C351.538 148.445 351.604 149.511 351.604 150.577C351.604 150.944 351.371 151.01 351.071 151.01C348.738 151.01 346.373 151.01 344.04 151.01C343.84 151.01 343.707 151.01 343.54 151.01ZM348.805 149.011C348.805 147.278 347.805 146.112 346.339 146.045C344.64 145.945 343.707 147.412 343.573 149.011C345.306 149.011 347.039 149.011 348.805 149.011Z" fill="white"/>
<path d="M251.104 151.011C251.171 152.877 252.537 154.11 254.303 154.01C255.303 153.944 256.236 153.744 257.102 153.344C257.436 153.177 257.635 153.277 257.769 153.61C257.902 154.01 258.069 154.377 258.235 154.743C258.335 154.977 258.302 155.177 258.035 155.31C255.936 156.343 253.77 156.709 251.504 155.843C250.171 155.31 249.238 154.31 248.738 153.011C247.939 150.878 247.972 148.745 248.972 146.679C250.704 143.081 255.503 143.114 257.436 145.28C258.435 146.413 258.902 147.746 259.035 149.212C259.068 149.645 259.068 150.078 259.068 150.478C259.068 150.945 258.968 151.045 258.502 151.045C256.169 151.045 253.837 151.045 251.504 151.045C251.404 151.011 251.271 151.011 251.104 151.011ZM256.336 149.012C256.336 147.079 255.203 146.113 253.937 146.046C252.404 145.98 251.271 147.146 251.138 149.012C252.87 149.012 254.603 149.012 256.336 149.012Z" fill="white"/>
<path d="M286.559 127.984C286.526 129.883 286.126 131.483 284.893 132.749C283.327 134.382 281.361 134.782 279.228 134.215C277.129 133.682 275.929 132.183 275.396 130.117C275.03 128.75 275.063 127.351 275.463 125.985C276.229 123.286 278.495 121.72 281.294 121.919C284.027 122.119 285.993 124.019 286.426 126.751C286.493 127.251 286.526 127.718 286.559 127.984ZM277.929 128.184C277.929 129.084 278.095 129.95 278.529 130.75C279.028 131.65 279.761 132.149 280.828 132.149C281.894 132.149 282.627 131.65 283.127 130.75C283.56 130.017 283.727 129.217 283.727 128.384C283.76 127.284 283.593 126.218 282.927 125.318C281.827 123.785 279.661 123.852 278.628 125.418C278.129 126.251 277.962 127.184 277.929 128.184Z" fill="white"/>
<path d="M238.342 145.578C239.008 144.845 239.708 144.345 240.541 144.045C243.14 143.112 245.573 144.612 245.873 147.344C245.939 147.777 245.939 148.244 245.939 148.71C245.939 150.943 245.939 153.175 245.939 155.441C245.939 155.974 245.873 156.041 245.34 156.041C244.806 156.041 244.307 156.041 243.773 156.041C243.307 156.041 243.24 155.974 243.24 155.475C243.24 153.275 243.24 151.043 243.24 148.844C243.24 148.577 243.24 148.277 243.174 148.01C242.874 146.478 241.374 145.811 240.008 146.611C238.908 147.277 238.542 148.344 238.508 149.543C238.475 151.509 238.508 153.475 238.508 155.408C238.508 156.008 238.442 156.041 237.875 156.041C237.409 156.041 236.942 156.041 236.476 156.041C235.843 156.041 235.809 156.008 235.809 155.375C235.809 152.875 235.809 150.376 235.809 147.844C235.809 146.778 235.809 145.745 235.809 144.678C235.809 144.145 235.876 144.078 236.409 144.078C236.809 144.078 237.242 144.112 237.642 144.078C238.075 144.045 238.209 144.245 238.242 144.645C238.275 144.911 238.309 145.178 238.342 145.578Z" fill="white"/>
<path d="M317.482 145.412C318.149 144.979 318.748 144.479 319.415 144.145C322.081 142.946 324.813 144.579 325.013 147.478C325.113 148.811 325.08 150.177 325.08 151.51C325.08 152.809 325.08 154.109 325.08 155.442C325.08 155.908 325.013 156.008 324.513 156.008C323.98 156.008 323.48 156.008 322.947 156.008C322.414 156.008 322.381 155.941 322.381 155.442C322.381 153.342 322.381 151.243 322.381 149.11C322.381 148.777 322.381 148.411 322.314 148.077C322.181 147.278 321.847 146.611 321.014 146.378C320.148 146.111 319.315 146.278 318.648 146.911C317.882 147.644 317.649 148.544 317.649 149.544C317.649 151.476 317.649 153.376 317.649 155.308C317.649 155.942 317.615 155.975 316.949 155.975C316.483 155.975 316.016 155.975 315.55 155.975C314.983 155.975 314.916 155.908 314.916 155.375C314.916 152.743 314.916 150.11 314.916 147.444C314.916 146.511 314.916 145.578 314.916 144.645C314.916 144.145 314.983 144.045 315.483 144.045C315.949 144.045 316.416 144.045 316.882 144.045C317.149 144.045 317.316 144.145 317.316 144.445C317.416 144.812 317.449 145.145 317.482 145.412Z" fill="white"/>
<path d="M238.342 123.654C238.708 123.354 239.008 123.054 239.342 122.788C240.375 122.021 241.541 121.755 242.807 121.988C244.54 122.321 245.639 123.587 245.839 125.42C245.906 126.087 245.906 126.786 245.939 127.453C245.939 129.452 245.939 131.485 245.939 133.484C245.939 134.051 245.873 134.084 245.306 134.084C244.84 134.084 244.34 134.084 243.873 134.084C243.274 134.084 243.24 134.051 243.24 133.417C243.24 131.251 243.24 129.086 243.24 126.886C243.24 126.62 243.24 126.353 243.174 126.087C243.04 125.32 242.707 124.687 241.907 124.454C241.041 124.187 240.275 124.354 239.608 124.92C238.808 125.62 238.542 126.553 238.542 127.586C238.542 129.519 238.542 131.485 238.542 133.417C238.542 134.017 238.509 134.051 237.909 134.051C237.376 134.051 236.876 134.051 236.343 134.051C235.943 134.051 235.809 133.884 235.809 133.517C235.809 132.418 235.809 131.318 235.809 130.185C235.809 127.719 235.809 125.22 235.809 122.754C235.809 122.188 235.876 122.088 236.443 122.088C236.842 122.088 237.276 122.088 237.675 122.088C238.042 122.055 238.209 122.254 238.242 122.588C238.275 123.021 238.309 123.321 238.342 123.654Z" fill="white"/>
<path d="M291.324 123.588C291.857 123.188 292.357 122.755 292.924 122.455C295.723 120.989 298.722 122.588 298.888 125.754C299.022 128.386 298.955 131.052 298.955 133.718C298.955 134.051 298.788 134.184 298.455 134.184C297.889 134.151 297.322 134.151 296.789 134.184C296.423 134.184 296.256 134.051 296.256 133.684C296.256 131.485 296.256 129.252 296.256 127.053C296.256 126.82 296.223 126.587 296.189 126.353C296.089 125.554 295.756 124.887 294.923 124.621C294.057 124.321 293.257 124.487 292.59 125.087C291.757 125.82 291.524 126.787 291.491 127.82C291.491 129.752 291.491 131.652 291.491 133.584C291.491 134.184 291.457 134.251 290.824 134.251C290.325 134.251 289.825 134.251 289.358 134.251C288.858 134.251 288.825 134.184 288.825 133.684C288.825 130.685 288.825 127.686 288.825 124.687C288.825 124.054 288.825 123.421 288.825 122.821C288.825 122.455 288.958 122.288 289.325 122.321C289.791 122.321 290.291 122.321 290.758 122.321C291.058 122.321 291.224 122.455 291.258 122.788C291.258 122.988 291.291 123.288 291.324 123.588Z" fill="white"/>
<path d="M264.666 122.22C265.4 122.22 266.099 122.22 266.799 122.22C267.432 122.22 267.466 122.253 267.466 122.92C267.466 123.253 267.466 123.553 267.466 123.886C267.499 124.253 267.332 124.419 266.932 124.419C266.299 124.419 265.666 124.419 265.066 124.419C264.933 124.419 264.8 124.419 264.633 124.419C264.633 124.586 264.6 124.719 264.6 124.852C264.6 126.852 264.6 128.851 264.6 130.85C264.6 130.917 264.6 130.984 264.6 131.05C264.666 132.017 265.066 132.35 266.033 132.217C266.333 132.183 266.632 132.083 266.932 132.017C267.232 131.95 267.399 132.05 267.432 132.35C267.499 132.783 267.532 133.216 267.632 133.649C267.665 133.883 267.566 134.016 267.366 134.116C266.199 134.549 265 134.682 263.8 134.316C262.667 133.949 262.001 132.983 261.934 131.617C261.901 130.617 261.901 129.651 261.901 128.651C261.901 125.652 261.901 122.686 261.901 119.687C261.901 118.988 261.934 118.988 262.6 118.921C263.067 118.888 263.5 118.821 263.967 118.788C264.533 118.721 264.6 118.821 264.6 119.354C264.6 120.221 264.6 121.087 264.6 121.953C264.633 121.987 264.633 122.053 264.666 122.22Z" fill="white"/>
<path d="M298.955 147.58C298.955 150.179 298.955 152.745 298.955 155.344C298.955 155.977 298.888 156.044 298.289 156.044C297.789 156.044 297.289 156.044 296.756 156.044C296.423 156.044 296.256 155.877 296.256 155.544C296.256 150.312 296.256 145.081 296.256 139.849C296.256 139.516 296.389 139.383 296.722 139.349C297.322 139.316 297.922 139.249 298.522 139.183C298.788 139.149 298.922 139.283 298.955 139.516C298.955 139.649 298.955 139.783 298.955 139.916C298.955 142.448 298.955 145.014 298.955 147.58Z" fill="white"/>
<path d="M317.449 125.719C317.449 128.318 317.449 130.917 317.449 133.517C317.449 134.083 317.416 134.15 316.849 134.15C316.316 134.15 315.749 134.15 315.216 134.15C314.916 134.15 314.783 134.016 314.75 133.716C314.75 133.617 314.75 133.517 314.75 133.45C314.75 128.352 314.75 123.287 314.75 118.188C314.75 117.555 314.816 117.489 315.45 117.422C315.916 117.389 316.349 117.355 316.816 117.289C317.382 117.222 317.482 117.289 317.482 117.855C317.449 120.488 317.449 123.12 317.449 125.719Z" fill="white"/>
<path d="M290.258 145.578C290.358 145.445 290.425 145.278 290.558 145.178C291.391 144.378 292.391 143.879 293.557 143.812C294.09 143.779 294.157 143.845 294.157 144.345C294.157 144.912 294.157 145.478 294.157 146.011C294.157 146.511 294.09 146.611 293.524 146.544C292.524 146.411 291.691 146.744 291.058 147.511C290.491 148.21 290.358 149.01 290.358 149.877C290.358 151.709 290.358 153.542 290.358 155.375C290.358 155.941 290.325 155.975 289.758 155.975C289.225 155.975 288.692 155.975 288.159 155.975C287.825 155.975 287.692 155.841 287.692 155.508C287.692 151.843 287.692 148.21 287.692 144.545C287.692 144.178 287.825 144.045 288.192 144.045C288.658 144.045 289.158 144.045 289.625 144.045C289.958 144.045 290.091 144.178 290.091 144.512C290.125 144.812 290.158 145.145 290.191 145.445C290.158 145.511 290.225 145.545 290.258 145.578Z" fill="white"/>
<path d="M272.83 128.218C272.83 130.017 272.83 131.817 272.83 133.616C272.83 134.116 272.797 134.149 272.264 134.149C271.731 134.149 271.164 134.149 270.631 134.149C270.265 134.149 270.131 134.016 270.131 133.649C270.131 130.084 270.131 126.485 270.131 122.92C270.131 122.62 270.265 122.453 270.564 122.42C271.164 122.353 271.797 122.286 272.397 122.253C272.797 122.22 272.83 122.453 272.83 122.753C272.83 124.552 272.83 126.385 272.83 128.218Z" fill="white"/>
<path d="M273.064 119.088C273.064 119.987 272.364 120.687 271.464 120.687C270.598 120.687 269.898 119.987 269.898 119.121C269.898 118.221 270.564 117.555 271.431 117.521C272.364 117.521 273.064 118.221 273.064 119.088Z" fill="white"/>
</svg>
