<svg width="528" height="278" viewBox="0 0 528 278" fill="none" xmlns="http://www.w3.org/2000/svg">
<rect width="528" height="278" fill="#F2F1EE"/>
<path d="M358.165 154.291H362.716V153.097H359.506V146.755H358.165V154.291ZM344.379 151.407L345.561 148.344L346.722 151.407H344.379ZM341.732 154.291H343.229L343.917 152.568H347.183L347.882 154.291H349.414L346.169 146.755H345.01L341.732 154.291ZM326.345 154.291H327.685V148.468H327.708L331.29 154.291H332.991V146.755H331.651V152.399H331.628L328.125 146.755H326.345V154.291ZM310.576 149.414C310.7 149.076 310.88 148.794 311.106 148.546C311.33 148.299 311.601 148.107 311.917 147.961C312.232 147.814 312.581 147.747 312.975 147.747C313.369 147.747 313.719 147.814 314.045 147.961C314.361 148.107 314.642 148.299 314.867 148.546C315.093 148.794 315.273 149.087 315.396 149.414C315.521 149.752 315.589 150.112 315.589 150.495C315.589 150.901 315.532 151.272 315.396 151.61C315.273 151.948 315.093 152.241 314.867 152.489C314.631 152.737 314.361 152.928 314.045 153.074C313.729 153.21 313.381 153.277 312.997 153.277C312.615 153.277 312.265 153.21 311.95 153.074C311.635 152.939 311.364 152.748 311.127 152.489C310.891 152.241 310.723 151.948 310.598 151.61C310.474 151.272 310.407 150.901 310.407 150.495C310.395 150.101 310.452 149.74 310.576 149.414ZM309.236 152.106C309.438 152.59 309.72 153.007 310.08 153.367C310.441 153.717 310.868 153.987 311.353 154.19C311.849 154.381 312.378 154.482 312.964 154.482C313.549 154.482 314.102 154.381 314.597 154.19C315.093 153.998 315.521 153.717 315.881 153.367C316.242 153.018 316.524 152.601 316.726 152.106C316.929 151.621 317.03 151.081 317.03 150.495C317.03 149.898 316.929 149.346 316.726 148.862C316.524 148.377 316.242 147.961 315.881 147.623C315.521 147.285 315.093 147.015 314.597 146.834C314.102 146.654 313.561 146.564 312.964 146.564C312.378 146.564 311.849 146.654 311.353 146.834C310.858 147.015 310.43 147.285 310.08 147.623C309.72 147.961 309.438 148.377 309.236 148.862C309.033 149.346 308.931 149.887 308.931 150.495C308.931 151.081 309.033 151.621 309.236 152.106ZM298.287 154.291H299.628V146.755H298.287V154.291ZM289.332 147.702C289.186 147.499 289.006 147.33 288.791 147.195C288.578 147.048 288.353 146.936 288.105 146.834C287.868 146.733 287.609 146.665 287.35 146.62C287.091 146.575 286.832 146.553 286.595 146.553C286.01 146.553 285.48 146.643 284.974 146.823C284.478 147.003 284.049 147.274 283.678 147.612C283.317 147.949 283.025 148.366 282.822 148.851C282.608 149.335 282.507 149.876 282.507 150.484C282.507 151.07 282.608 151.61 282.799 152.094C283.002 152.579 283.272 152.996 283.633 153.356C283.993 153.705 284.41 153.976 284.906 154.178C285.401 154.381 285.942 154.471 286.527 154.471C287.17 154.471 287.744 154.359 288.217 154.122C288.702 153.886 289.108 153.57 289.446 153.153L288.364 152.399C288.173 152.658 287.924 152.872 287.609 153.029C287.294 153.187 286.933 153.266 286.539 153.266C286.145 153.266 285.795 153.198 285.48 153.063C285.165 152.928 284.906 152.737 284.68 152.489C284.455 152.241 284.286 151.948 284.163 151.61C284.039 151.272 283.982 150.889 283.982 150.484C283.982 150.09 284.049 149.729 284.174 149.403C284.298 149.065 284.478 148.783 284.703 148.535C284.928 148.287 285.21 148.096 285.525 147.949C285.841 147.803 286.201 147.735 286.595 147.735C286.9 147.735 287.215 147.792 287.53 147.916C287.845 148.04 288.105 148.231 288.308 148.513L289.332 147.702ZM269.272 151.407L270.454 148.344L271.615 151.407H269.272ZM266.625 154.291H268.122L268.798 152.568H272.065L272.764 154.291H274.296L271.051 146.755H269.891L266.625 154.291ZM251.238 154.291H252.579V148.468H252.601L256.183 154.291H257.884V146.755H256.543V152.399H256.521L253.018 146.755H251.238V154.291ZM229.161 149.414C229.285 149.076 229.465 148.794 229.691 148.546C229.916 148.299 230.186 148.107 230.501 147.961C230.817 147.814 231.166 147.747 231.56 147.747C231.954 147.747 232.304 147.814 232.619 147.961C232.935 148.107 233.216 148.299 233.441 148.546C233.667 148.794 233.847 149.087 233.971 149.414C234.095 149.752 234.162 150.112 234.162 150.495C234.162 150.901 234.095 151.272 233.971 151.61C233.847 151.948 233.667 152.241 233.441 152.489C233.205 152.737 232.935 152.928 232.619 153.074C232.304 153.21 231.943 153.277 231.572 153.277C231.189 153.277 230.839 153.21 230.524 153.074C230.209 152.939 229.938 152.748 229.702 152.489C229.465 152.241 229.296 151.948 229.172 151.61C229.048 151.272 228.981 150.901 228.981 150.495C228.97 150.101 229.026 149.74 229.161 149.414ZM227.809 152.106C228.012 152.59 228.294 153.007 228.654 153.367C229.015 153.717 229.443 153.987 229.927 154.19C230.423 154.381 230.963 154.482 231.538 154.482C232.123 154.482 232.675 154.381 233.171 154.19C233.667 153.998 234.095 153.717 234.455 153.367C234.816 153.018 235.097 152.601 235.3 152.106C235.503 151.621 235.604 151.081 235.604 150.495C235.604 149.898 235.503 149.346 235.3 148.862C235.097 148.377 234.816 147.961 234.455 147.623C234.095 147.285 233.667 147.015 233.171 146.834C232.675 146.654 232.135 146.564 231.538 146.564C230.952 146.564 230.423 146.654 229.927 146.834C229.431 147.015 229.003 147.285 228.654 147.623C228.294 147.961 228.012 148.377 227.809 148.862C227.607 149.346 227.505 149.887 227.505 150.495C227.505 151.081 227.607 151.621 227.809 152.106ZM213.369 154.291H218.551V153.097H214.71V150.968H218.168V149.842H214.71V147.927H218.359V146.755H213.369V154.291ZM203.975 147.364C203.682 147.093 203.344 146.891 202.95 146.755C202.556 146.62 202.173 146.553 201.779 146.553C201.441 146.553 201.103 146.598 200.776 146.688C200.45 146.778 200.157 146.913 199.898 147.093C199.639 147.274 199.425 147.499 199.267 147.781C199.109 148.062 199.03 148.389 199.03 148.772C199.03 149.132 199.087 149.425 199.199 149.662C199.312 149.898 199.458 150.101 199.639 150.259C199.819 150.427 200.022 150.551 200.247 150.653C200.472 150.754 200.697 150.833 200.934 150.912C201.171 150.991 201.396 151.07 201.61 151.137C201.824 151.205 202.004 151.295 202.162 151.385C202.319 151.475 202.443 151.599 202.533 151.723C202.624 151.858 202.669 152.016 202.669 152.218C202.669 152.421 202.624 152.59 202.545 152.737C202.466 152.872 202.353 152.996 202.229 153.086C202.094 153.176 201.948 153.243 201.79 153.288C201.632 153.322 201.463 153.345 201.317 153.345C201.024 153.345 200.72 153.266 200.405 153.119C200.1 152.973 199.853 152.77 199.661 152.511L198.704 153.401C198.997 153.762 199.38 154.021 199.853 154.201C200.326 154.381 200.799 154.471 201.294 154.471C201.666 154.471 202.015 154.426 202.353 154.325C202.691 154.223 202.973 154.077 203.232 153.874C203.48 153.671 203.682 153.424 203.829 153.119C203.975 152.815 204.054 152.466 204.054 152.061C204.054 151.689 203.986 151.385 203.851 151.137C203.716 150.889 203.536 150.687 203.322 150.518C203.108 150.36 202.871 150.225 202.612 150.123C202.353 150.022 202.105 149.932 201.858 149.853C201.644 149.785 201.452 149.729 201.272 149.662C201.092 149.594 200.945 149.526 200.821 149.436C200.697 149.346 200.596 149.245 200.528 149.132C200.461 149.008 200.416 148.862 200.416 148.693C200.416 148.513 200.461 148.355 200.54 148.22C200.619 148.085 200.731 147.983 200.855 147.904C200.979 147.826 201.125 147.758 201.283 147.724C201.441 147.679 201.599 147.668 201.756 147.668C202.015 147.668 202.274 147.724 202.533 147.848C202.793 147.972 202.995 148.13 203.13 148.31L203.975 147.364ZM189.659 146.744H188.319V151.464C188.319 151.689 188.296 151.903 188.228 152.117C188.172 152.331 188.082 152.523 187.947 152.703C187.812 152.872 187.643 153.007 187.429 153.119C187.215 153.232 186.944 153.277 186.629 153.277C186.314 153.277 186.043 153.221 185.829 153.119C185.615 153.018 185.435 152.872 185.311 152.703C185.176 152.534 185.086 152.342 185.03 152.117C184.973 151.903 184.939 151.678 184.939 151.464V146.744H183.599V151.509C183.599 151.959 183.678 152.376 183.824 152.737C183.982 153.108 184.185 153.412 184.466 153.671C184.737 153.931 185.063 154.122 185.424 154.257C185.795 154.392 186.19 154.46 186.629 154.46C187.057 154.46 187.462 154.392 187.834 154.257C188.206 154.122 188.521 153.919 188.792 153.671C189.062 153.412 189.276 153.108 189.434 152.737C189.591 152.376 189.67 151.959 189.67 151.509V146.744H189.659ZM165.847 154.291H167.12V148.231H167.143L169.395 154.291H170.33L172.617 148.231H172.639V154.291H173.968V146.755H171.862L169.925 152.106H169.891L167.931 146.755H165.836V154.291H165.847Z" fill="black"/>
<path d="M356.769 129.961L358.458 125.568L360.125 129.961H356.769ZM352.984 134.084H355.136L356.115 131.606H360.801L361.804 134.084H364L359.349 123.27H357.682L352.984 134.084ZM342.779 134.084H351.035V132.372H345.032L350.946 125.016V123.27H342.87V124.949H348.659L342.779 132.338V134.084ZM339.907 124.16C339.49 123.777 338.995 123.484 338.431 123.293C337.869 123.101 337.305 123 336.764 123C336.281 123 335.796 123.068 335.323 123.191C334.85 123.315 334.433 123.518 334.061 123.777C333.689 124.036 333.385 124.363 333.16 124.757C332.935 125.151 332.811 125.624 332.811 126.176C332.811 126.683 332.889 127.111 333.059 127.449C333.216 127.787 333.43 128.08 333.689 128.317C333.948 128.553 334.241 128.745 334.568 128.88C334.894 129.026 335.221 129.15 335.548 129.251C335.885 129.364 336.201 129.465 336.505 129.578C336.81 129.679 337.08 129.803 337.293 129.939C337.519 130.074 337.699 130.243 337.834 130.423C337.969 130.614 338.037 130.851 338.037 131.132C338.037 131.425 337.981 131.673 337.857 131.876C337.745 132.079 337.587 132.236 337.395 132.372C337.204 132.507 337.001 132.597 336.764 132.653C336.528 132.709 336.302 132.732 336.078 132.732C335.649 132.732 335.21 132.631 334.771 132.417C334.332 132.203 333.971 131.91 333.712 131.549L332.338 132.833C332.766 133.34 333.318 133.723 333.982 133.982C334.658 134.241 335.346 134.376 336.043 134.376C336.573 134.376 337.08 134.309 337.552 134.162C338.026 134.016 338.443 133.802 338.803 133.52C339.163 133.239 339.445 132.878 339.659 132.439C339.874 132.011 339.974 131.504 339.974 130.918C339.974 130.389 339.874 129.95 339.682 129.589C339.479 129.229 339.231 128.936 338.916 128.699C338.601 128.463 338.263 128.271 337.89 128.136C337.519 127.99 337.158 127.866 336.81 127.753C336.505 127.663 336.223 127.573 335.976 127.483C335.717 127.393 335.503 127.28 335.323 127.168C335.143 127.044 335.008 126.897 334.906 126.728C334.805 126.559 334.748 126.345 334.748 126.098C334.748 125.838 334.805 125.602 334.929 125.422C335.041 125.23 335.199 125.084 335.379 124.96C335.559 124.847 335.762 124.757 335.987 124.701C336.213 124.645 336.438 124.622 336.663 124.622C337.035 124.622 337.417 124.712 337.79 124.892C338.161 125.073 338.443 125.287 338.657 125.557L339.907 124.16ZM327.314 134.084H329.24V123.27H327.314V134.084ZM311.736 134.084H313.572V125.399H313.606L316.839 134.084H318.179L321.457 125.399H321.49V134.084H323.406V123.27H320.387L317.604 130.952H317.559L314.755 123.27H311.747V134.084H311.736ZM300.901 134.084H308.334V132.372H302.827V129.319H307.783V127.697H302.827V124.949H308.064V123.27H300.901V134.084ZM287.462 134.084H289.388V125.737H289.423L294.548 134.084H296.991V123.27H295.065V131.358H295.032L290.008 123.27H287.462V134.084ZM278.26 127.934V124.892H280.006C280.253 124.892 280.502 124.915 280.761 124.949C281.02 124.994 281.256 125.061 281.459 125.174C281.662 125.287 281.831 125.433 281.966 125.624C282.101 125.816 282.169 126.052 282.169 126.345C282.169 126.672 282.101 126.942 281.955 127.145C281.808 127.359 281.628 127.517 281.414 127.629C281.2 127.742 280.952 127.821 280.67 127.855C280.389 127.888 280.118 127.911 279.848 127.911H278.26V127.934ZM276.334 134.084H278.26V129.499H279.668L282.169 134.084H284.489L281.605 129.285C282.372 129.116 282.969 128.778 283.419 128.283C283.858 127.787 284.084 127.145 284.084 126.368C284.084 125.793 283.971 125.32 283.746 124.915C283.52 124.521 283.228 124.194 282.855 123.957C282.484 123.71 282.056 123.541 281.583 123.428C281.099 123.315 280.614 123.27 280.096 123.27H276.345V134.084H276.334ZM263.685 127.089C263.865 126.616 264.112 126.199 264.439 125.838C264.767 125.478 265.161 125.196 265.611 124.994C266.061 124.791 266.569 124.69 267.131 124.69C267.695 124.69 268.202 124.791 268.663 124.994C269.125 125.196 269.508 125.478 269.835 125.838C270.162 126.199 270.409 126.616 270.589 127.089C270.77 127.562 270.86 128.091 270.86 128.643C270.86 129.229 270.77 129.758 270.589 130.243C270.409 130.727 270.162 131.144 269.824 131.504C269.497 131.865 269.103 132.135 268.64 132.338C268.179 132.54 267.684 132.631 267.131 132.631C266.579 132.631 266.084 132.529 265.634 132.338C265.183 132.135 264.788 131.865 264.462 131.504C264.135 131.144 263.876 130.727 263.696 130.243C263.516 129.758 263.426 129.229 263.426 128.643C263.415 128.091 263.504 127.573 263.685 127.089ZM261.759 130.964C262.052 131.662 262.457 132.259 262.964 132.766C263.482 133.273 264.091 133.667 264.8 133.937C265.509 134.219 266.276 134.354 267.109 134.354C267.954 134.354 268.731 134.219 269.44 133.937C270.15 133.656 270.77 133.261 271.288 132.766C271.806 132.259 272.212 131.662 272.505 130.964C272.797 130.265 272.944 129.499 272.944 128.654C272.944 127.787 272.797 127.01 272.505 126.312C272.212 125.613 271.806 125.027 271.288 124.532C270.77 124.036 270.15 123.665 269.44 123.405C268.731 123.135 267.954 123.011 267.109 123.011C266.276 123.011 265.499 123.146 264.8 123.405C264.091 123.665 263.482 124.048 262.964 124.532C262.446 125.016 262.052 125.613 261.759 126.312C261.466 127.01 261.319 127.787 261.319 128.654C261.319 129.499 261.466 130.265 261.759 130.964ZM252.365 129.319H254.167C254.955 129.319 255.53 129.432 255.924 129.657C256.307 129.882 256.51 130.276 256.51 130.851C256.51 131.211 256.431 131.493 256.273 131.707C256.115 131.921 255.913 132.09 255.676 132.191C255.44 132.304 255.169 132.371 254.888 132.417C254.606 132.45 254.336 132.473 254.099 132.473H252.376V129.319H252.365ZM252.365 124.87H253.908C254.64 124.87 255.181 124.971 255.53 125.174C255.879 125.377 256.048 125.726 256.048 126.21C256.048 126.683 255.879 127.044 255.541 127.292C255.203 127.551 254.719 127.674 254.077 127.674H252.365V124.87ZM250.438 134.084H254.336C254.843 134.084 255.35 134.027 255.834 133.926C256.329 133.813 256.769 133.644 257.152 133.396C257.535 133.149 257.839 132.833 258.075 132.428C258.312 132.022 258.425 131.527 258.425 130.941C258.425 130.209 258.211 129.623 257.771 129.184C257.332 128.745 256.769 128.485 256.093 128.384V128.35C256.656 128.181 257.107 127.889 257.456 127.494C257.805 127.1 257.974 126.593 257.974 125.985C257.974 125.501 257.873 125.084 257.681 124.735C257.49 124.385 257.231 124.104 256.926 123.89C256.622 123.665 256.262 123.507 255.868 123.417C255.473 123.327 255.068 123.27 254.662 123.27H250.45V134.084H250.438ZM247.104 128.632H243.444V130.186H247.104V128.632ZM230.592 134.084H232.518V125.737H232.552L237.677 134.084H240.121V123.27H238.195V131.358H238.161L233.137 123.27H230.592V134.084ZM219.745 134.084H227.179V132.372H221.671V129.319H226.638V127.697H221.671V124.949H226.908V123.27H219.745V134.084ZM216.219 124.16C215.802 123.777 215.307 123.484 214.743 123.293C214.18 123.101 213.617 123 213.065 123C212.581 123 212.097 123.068 211.623 123.191C211.15 123.315 210.722 123.518 210.362 123.777C209.99 124.036 209.686 124.363 209.461 124.757C209.236 125.151 209.112 125.624 209.112 126.176C209.112 126.683 209.19 127.111 209.359 127.449C209.517 127.787 209.731 128.08 209.99 128.317C210.249 128.553 210.542 128.745 210.869 128.88C211.195 129.026 211.522 129.15 211.849 129.251C212.187 129.364 212.502 129.465 212.806 129.578C213.11 129.679 213.381 129.803 213.606 129.939C213.831 130.074 214.011 130.243 214.135 130.423C214.27 130.614 214.338 130.851 214.338 131.132C214.338 131.425 214.282 131.673 214.158 131.876C214.045 132.079 213.887 132.236 213.696 132.372C213.504 132.507 213.302 132.597 213.065 132.653C212.829 132.709 212.603 132.732 212.378 132.732C211.95 132.732 211.511 132.631 211.071 132.417C210.632 132.203 210.272 131.91 210.013 131.549L208.638 132.833C209.067 133.34 209.618 133.723 210.283 133.982C210.959 134.241 211.646 134.376 212.344 134.376C212.874 134.376 213.381 134.309 213.854 134.162C214.338 134.016 214.743 133.802 215.104 133.52C215.464 133.239 215.746 132.878 215.96 132.439C216.174 132.011 216.287 131.504 216.287 130.918C216.287 130.389 216.185 129.95 215.994 129.589C215.791 129.229 215.543 128.936 215.228 128.699C214.924 128.463 214.574 128.271 214.203 128.136C213.831 127.99 213.471 127.866 213.121 127.753C212.817 127.663 212.536 127.573 212.277 127.483C212.018 127.393 211.804 127.28 211.623 127.168C211.443 127.044 211.308 126.897 211.207 126.728C211.105 126.559 211.049 126.345 211.049 126.098C211.049 125.838 211.105 125.602 211.218 125.422C211.331 125.23 211.488 125.084 211.668 124.96C211.849 124.847 212.051 124.757 212.277 124.701C212.502 124.645 212.727 124.622 212.953 124.622C213.324 124.622 213.707 124.712 214.079 124.892C214.451 125.073 214.732 125.287 214.946 125.557L216.219 124.16ZM205.924 124.16C205.507 123.777 205.012 123.484 204.448 123.293C203.885 123.101 203.322 123 202.781 123C202.297 123 201.813 123.068 201.34 123.191C200.866 123.315 200.438 123.518 200.078 123.777C199.706 124.036 199.402 124.363 199.177 124.757C198.952 125.151 198.828 125.624 198.828 126.176C198.828 126.683 198.907 127.111 199.076 127.449C199.233 127.787 199.447 128.08 199.706 128.317C199.965 128.553 200.258 128.745 200.585 128.88C200.911 129.026 201.238 129.15 201.565 129.251C201.903 129.364 202.218 129.465 202.522 129.578C202.826 129.679 203.097 129.803 203.322 129.939C203.547 130.074 203.727 130.243 203.851 130.423C203.987 130.614 204.054 130.851 204.054 131.132C204.054 131.425 203.998 131.673 203.874 131.876C203.761 132.079 203.604 132.236 203.412 132.372C203.221 132.507 203.018 132.597 202.781 132.653C202.545 132.709 202.319 132.732 202.094 132.732C201.666 132.732 201.227 132.631 200.788 132.417C200.348 132.203 199.988 131.91 199.729 131.549L198.355 132.833C198.783 133.34 199.335 133.723 199.999 133.982C200.675 134.241 201.362 134.376 202.06 134.376C202.59 134.376 203.097 134.309 203.57 134.162C204.043 134.016 204.46 133.802 204.82 133.52C205.181 133.239 205.462 132.878 205.676 132.439C205.89 132.011 206.003 131.504 206.003 130.918C206.003 130.389 205.901 129.95 205.71 129.589C205.518 129.229 205.259 128.936 204.944 128.699C204.629 128.463 204.291 128.271 203.919 128.136C203.547 127.99 203.187 127.866 202.838 127.753C202.533 127.663 202.252 127.573 201.993 127.483C201.734 127.393 201.52 127.28 201.34 127.168C201.159 127.044 201.024 126.897 200.923 126.728C200.821 126.559 200.765 126.345 200.765 126.098C200.765 125.838 200.821 125.602 200.945 125.422C201.058 125.23 201.216 125.084 201.396 124.96C201.576 124.836 201.779 124.757 202.004 124.701C202.229 124.645 202.455 124.622 202.68 124.622C203.052 124.622 203.435 124.712 203.806 124.892C204.178 125.073 204.46 125.287 204.674 125.557L205.924 124.16ZM190.752 134.084H192.678V129.398L196.744 123.282H194.514L191.765 127.832L189.051 123.282H186.697L190.763 129.398V134.084H190.752ZM175.331 134.084H177.257V129.285H182.315V134.084H184.23V123.27H182.304V127.641H177.246V123.27H175.331V134.084ZM167.312 134.084H169.238V124.949H172.549V123.27H164V124.949H167.312V134.084Z" fill="black"/>
</svg>
