<svg width="528" height="278" viewBox="0 0 528 278" fill="none" xmlns="http://www.w3.org/2000/svg">
<rect width="528" height="278" fill="#EEE5D5"/>
<path fill-rule="evenodd" clip-rule="evenodd" d="M169.3 143.267H358.667V94.3333H169.3V143.267ZM358.667 148.6H169.3V183.7H358.667V148.6ZM164 89H364V189H164V89V89Z" fill="black"/>
<path fill-rule="evenodd" clip-rule="evenodd" d="M284.6 170.8C284.6 166.833 282.666 165.1 278.566 163.8C276.833 163.233 274.7 162.733 274.7 161.366C274.7 160.233 275.4 159.733 276.433 159.733H277.033C278.2 159.733 279.1 160.366 279.733 161.566L280.433 161.666L284.066 159.233L284.133 158.466C283.666 157.7 283.1 156.966 282.466 156.433C281.1 155.233 279.266 154.566 277 154.566H276.466C271.666 154.566 268.8 157.166 268.8 161.566C268.8 165.5 270.9 167.033 274.633 168.333C276.966 169.133 278.733 169.366 278.733 170.933C278.733 171.966 278.033 172.566 276.966 172.566H275.866C274.7 172.566 273.8 171.933 273.166 170.733L272.466 170.633L268.833 173.066L268.766 173.8C269.133 174.466 269.6 175.066 270.166 175.6C271.566 176.966 273.533 177.766 275.933 177.766H277C281.866 177.766 284.6 175.166 284.6 170.8ZM330.8 176.966V155.333L330.4 154.966H325.266L324.966 155.333V176.966L325.266 177.333H330.4L330.8 176.966ZM322.533 159.866V155.333L322.2 154.966H307.633L307.333 155.333V176.966L307.633 177.333H312.8L313.166 176.966V169L313.566 168.6H320.633L320.966 168.3V163.733L320.633 163.4H313.566L313.166 163V160.566L313.566 160.166H322.166L322.533 159.866ZM344.133 169.666L343.833 169.966H341.8L341.466 169.666L342.1 166.9C342.6 164.8 342.833 162.533 342.833 162.533H342.933C342.933 162.533 343.166 164.8 343.6 166.9L344.133 169.666ZM352.333 176.866L345.033 155.233L344.733 155H340.933L340.566 155.233L333.233 176.866L333.566 177.333H338.966L339.266 177.1L340.2 174.433L340.633 174.2H344.833L345.3 174.433L346.2 177.1L346.5 177.333H352L352.333 176.866ZM241.266 176.9V155.333L240.933 154.966H236L235.7 155.333V161.066C235.7 164.2 235.866 166.966 235.866 166.966H235.766C235.766 166.966 235.5 166.2 235 165.266L229.833 155.3L229.366 154.966H224.933L224.633 155.333V176.9L224.933 177.233H229.966L230.3 176.9V171.266C230.3 168.366 230.1 165.566 230.1 165.566H230.233C230.233 165.566 230.5 166.333 230.966 167.166L236.166 176.9L236.566 177.2H240.933L241.266 176.9ZM221.233 176.9V155.333L220.833 154.966H215.7L215.4 155.333V176.9L215.7 177.233H220.833L221.233 176.9ZM298.766 171.133C298.766 171.966 298.133 172.566 297.066 172.566H294.633C293.4 172.566 292.766 172 292.766 171.133V161.2C292.766 160.466 293.6 159.7 294.633 159.7H297.066C298.066 159.7 298.766 160.333 298.766 161.2V171.133ZM304.566 171.133V161.2C304.566 157.166 301.533 154.566 297.066 154.566H294.633C290.166 154.566 287.066 157.2 287.066 161.2V171.133C287.066 175.133 290.1 177.766 294.633 177.766H297.066C301.533 177.766 304.566 175.133 304.566 171.133ZM254.433 169.633L254.133 169.933H252.1L251.766 169.633L252.4 166.866C252.9 164.8 253.133 162.533 253.133 162.533H253.233C253.233 162.533 253.466 164.8 253.9 166.866L254.433 169.633ZM262.633 176.8L255.333 155.233L255.033 155H251.233L250.9 155.233L243.6 176.8L243.933 177.266H249.3L249.6 177.033L250.533 174.366L250.966 174.133H255.166L255.633 174.366L256.533 177.033L256.833 177.266H262.3L262.633 176.8ZM212.033 176.9V172.366L211.7 172.066H203.1L202.666 171.666V168.933L203.1 168.533H210.166L210.533 168.233V163.666L210.166 163.333H203.1L202.666 162.933V160.5L203.1 160.1H211.7L212.033 159.8V155.266L211.7 154.9H197.166L196.866 155.266V176.833L197.166 177.166H211.7L212.033 176.9ZM193.966 176.8L190.533 167.933L190.7 167.166C192.233 166.166 193.233 164.466 193.233 162.3V161.966C193.233 157.633 190.3 154.966 185.733 154.966H176L175.7 155.333V176.9L176 177.233H181.166L181.5 176.9V168.933L181.933 168.533H184.333L184.633 168.766L187.833 176.966L188.133 177.2H193.633L193.966 176.8ZM187.5 162.333C187.5 163.3 186.833 163.733 185.766 163.733H181.933L181.5 163.333V160.533L181.933 160.133H185.733C186.9 160.133 187.466 160.666 187.466 161.633V162.333H187.5Z" fill="black"/>
<path fill-rule="evenodd" clip-rule="evenodd" d="M285.601 116.633H283.901C280.867 116.633 278.934 114.866 278.934 112.233V105.133C278.934 102.499 280.901 100.733 283.901 100.733H285.601C288.567 100.733 290.501 102.499 290.501 105.133V106.166H287.134V105.133C287.134 104.299 286.467 103.733 285.601 103.733H283.901C283.067 103.733 282.267 104.366 282.267 105.133V112.199C282.267 113.066 282.934 113.566 283.901 113.566H285.601C286.501 113.566 287.134 112.999 287.134 112.199V111.199H290.501V112.233C290.501 114.833 288.567 116.633 285.601 116.633ZM272.267 101.066L277.301 116.333H273.667L273.067 114.466L272.434 114.066H269.501L268.901 114.466L268.267 116.333H264.701L269.734 101.066H272.267V101.066ZM271.934 111.199L271.734 111.433H270.301L270.067 111.199L270.501 109.233C270.834 107.733 271.001 106.133 271.001 106.133H271.067C271.067 106.133 271.234 107.766 271.534 109.233L271.934 111.199ZM306.001 116.666H304.301C301.267 116.666 299.334 114.899 299.334 112.266V105.166C299.334 102.533 301.301 100.766 304.301 100.766H306.001C308.967 100.766 310.901 102.533 310.901 105.166V112.266C310.901 114.899 308.967 116.666 306.001 116.666ZM307.201 112.233C307.201 112.833 306.767 113.266 306.001 113.266H304.301C303.434 113.266 303.001 112.866 303.001 112.233V105.133C303.001 104.599 303.601 104.066 304.301 104.066H306.001C306.701 104.066 307.201 104.533 307.201 105.133V112.233V112.233ZM334.434 101.066L339.467 116.333H335.834L335.234 114.466L334.601 114.066H331.667L331.067 114.466L330.434 116.333H326.867L331.901 101.066H334.434V101.066ZM334.101 111.199L333.867 111.433H332.467L332.234 111.199L332.667 109.233C333.001 107.733 333.167 106.133 333.167 106.133H333.234C333.234 106.133 333.401 107.766 333.701 109.233L334.101 111.199ZM296.667 101.066V116.333H293.267V101.066H296.667V101.066ZM351.967 113.299V116.333H342.034V101.066H345.434V112.833L345.901 113.299H351.967V113.299ZM262.334 101.066V116.333H259.434L254.667 107.999V116.333H251.367V101.066H254.334L259.234 109.633V101.066H262.334V101.066ZM204.934 101.066V112.266C204.934 114.899 203 116.666 200.034 116.666H198.334C195.3 116.666 193.4 114.899 193.4 112.266V101.066H196.7V112.266C196.7 113.133 197.3 113.633 198.334 113.633H200.034C201.034 113.633 201.6 113.099 201.6 112.266V101.066H204.934ZM239.701 116.633H238.001C234.967 116.633 233.034 114.866 233.034 112.233V105.133C233.034 102.499 235.001 100.733 238.001 100.733H239.701C242.667 100.733 244.6 102.499 244.6 105.133V112.233C244.6 114.866 242.667 116.633 239.701 116.633ZM240.901 112.233C240.901 112.833 240.467 113.266 239.701 113.266H238.001C237.134 113.266 236.701 112.866 236.701 112.233V105.133C236.701 104.599 237.301 104.066 238.001 104.066H239.701C240.401 104.066 240.901 104.533 240.901 105.133V112.233ZM215.2 105.233C214.734 104.299 214.034 103.766 213.034 103.766H212.634C211.767 103.766 211.067 104.233 211.067 105.266C211.067 105.966 211.6 106.399 212.134 106.666L213.067 107.033L214 107.333C216.767 108.233 218 109.399 218 111.999C218 114.899 216.267 116.633 213 116.633H212.234C210.634 116.633 209.367 116.099 208.434 115.199L207.5 113.966L207.467 113.866L210 112.133C210.5 113.033 211.2 113.599 212.167 113.599H212.934C213.834 113.599 214.5 113.033 214.5 112.099C214.5 111.366 214.067 110.933 213.5 110.633L212.567 110.266L211.434 109.899C208.867 108.999 207.567 107.966 207.567 105.366C207.567 102.433 209.434 100.699 212.6 100.699H212.967C214.467 100.699 215.7 101.166 216.567 101.966L217.667 103.366L217.734 103.466L215.2 105.233ZM189.867 101.066V116.333H186.7V113.166V108.166L184.234 114.399L184.134 114.433H181.767L181.667 114.399L179.234 108.133V113.066V116.299H176V101.033H179.467L183.034 109.966L186.434 101.033L189.867 101.066ZM325.001 101.066V116.333H322.101L317.334 107.999V116.333H314.034V101.066H317.001L321.901 109.633V101.066H325.001V101.066ZM230.834 113.299V116.333H220.901V101.066H230.834V104.099H224.734L224.3 104.499V106.699L224.767 107.066H229.8V110.099H224.767L224.334 110.466V112.933L224.8 113.266H230.834V113.299Z" fill="black"/>
<path fill-rule="evenodd" clip-rule="evenodd" d="M306.167 121.267L311.2 136.534H307.567L306.967 134.701L306.333 134.301H303.4L302.8 134.701L302.167 136.567H298.6L303.633 121.301H306.167V121.267ZM305.833 131.434L305.6 131.667H304.2L303.967 131.434L304.4 129.467C304.733 127.967 304.9 126.367 304.9 126.367H304.967C304.967 126.367 305.133 128.001 305.433 129.467L305.833 131.434ZM323.733 130.301L326.067 136.534H322.5L320.267 130.701L319.733 130.301H318.033L317.4 130.934V136.534H314V121.267H320.7C323.733 121.267 325.6 123.034 325.6 125.934V126.167C325.6 127.634 324.933 128.734 323.967 129.367L323.733 130.301ZM321.667 126.201C321.667 126.867 321.2 127.201 320.433 127.201H317.767L317.467 126.934V124.934L317.767 124.667H320.433C321.233 124.667 321.667 125.034 321.667 125.734V126.201ZM273.967 132.134C273.967 132.667 273.433 133.167 272.733 133.167H270.067L269.767 132.901V124.934L270.067 124.667H272.733C273.4 124.667 273.967 125.234 273.967 125.734V132.134ZM266.033 121.267H272.733C275.767 121.267 277.633 123.034 277.633 125.934V131.934C277.633 134.801 275.767 136.534 272.733 136.534H266.033V121.267ZM200.967 133.501V136.534H191.033V121.267H200.967V124.301H194.867L194.433 124.701V126.901L194.9 127.267H199.9V130.301H194.867L194.433 130.667V133.134L194.9 133.467H200.967V133.501ZM242.1 130.301L244.433 136.534H240.867L238.633 130.701L238.1 130.301H236.233L235.767 130.734V136.534H232.367V121.267H239.067C242.1 121.267 243.967 123.034 243.967 125.934V126.167C243.967 127.634 243.3 128.734 242.333 129.367L242.1 130.301ZM240.267 126.201C240.267 126.867 239.8 127.201 239.033 127.201H235.967L235.667 126.934V124.934L235.967 124.667H239.033C239.833 124.667 240.267 125.034 240.267 125.734V126.201ZM253.667 136.734H251.967C248.933 136.734 247 134.967 247 132.334V125.234C247 122.601 248.967 120.834 251.967 120.834H253.667C256.633 120.834 258.567 122.601 258.567 125.234V132.334C258.567 134.967 256.633 136.734 253.667 136.734ZM254.833 132.334C254.833 132.934 254.4 133.367 253.633 133.367H251.933C251.067 133.367 250.633 132.967 250.633 132.334V125.234C250.633 124.701 251.233 124.167 251.933 124.167H253.633C254.333 124.167 254.833 124.634 254.833 125.234V132.334ZM229.267 121.267V124.301H226.2L225.733 124.634V136.534H222.367V124.667L221.9 124.301H218.8V121.267H229.267V121.267ZM182.7 136.734H181C177.967 136.734 176.033 134.967 176.033 132.334V125.234C176.033 122.601 178 120.834 181 120.834H182.7C185.667 120.834 187.6 122.601 187.6 125.234V126.267H184.233V125.234C184.233 124.401 183.567 123.834 182.7 123.834H181C180.167 123.834 179.367 124.467 179.367 125.234V132.334C179.367 133.201 180 133.701 181 133.701H182.7C183.6 133.701 184.233 133.167 184.233 132.334V131.301H187.6V132.334C187.6 134.967 185.667 136.734 182.7 136.734ZM215.7 121.267V136.534H212.8L208.033 128.201V136.534H204.733V121.267H207.7L212.6 129.834V121.267H215.7ZM351.967 133.501V136.534H342.033V121.267H351.967V124.301H345.867L345.433 124.701V126.901L345.9 127.267H350.9V130.301H345.867L345.433 130.667V133.134L345.9 133.467H351.967V133.501ZM291.4 133.501V136.534H281.467V121.267H291.4V124.301H285.3L284.867 124.701V126.901L285.333 127.267H290.3V130.301H285.267L284.833 130.667V133.134L285.3 133.467H291.4V133.501ZM338.433 121.267V124.301H335.367L334.9 124.634V136.534H331.533V124.667L331.067 124.301H327.967V121.267H338.433V121.267Z" fill="black"/>
</svg>
