<svg width="528" height="278" viewBox="0 0 528 278" fill="none" xmlns="http://www.w3.org/2000/svg">
<rect width="528" height="278" fill="#278600"/>
<path fill-rule="evenodd" clip-rule="evenodd" d="M271.502 141.949V154.672C271.502 158.734 268.87 160.314 266.053 160.314C262.956 160.314 260.718 158.34 260.718 155.058V141.949H255.34V154.935C255.34 161.972 259.867 165.069 266.132 165.069C272.011 165.069 276.88 162.437 276.88 154.9V141.949H271.502ZM285.62 149.328H281.022V164.762H285.62V154.821C286.822 152.926 287.673 152.268 288.787 152.268C290.103 152.268 291.068 153.198 291.068 155.365V164.762H295.631V154.979C295.631 150.416 292.613 149.065 290.331 149.065C288.471 149.065 287.041 149.802 285.611 151.539L285.62 149.328ZM304.098 149.328H299.536V164.762H304.098V149.328ZM320.725 160.542C318.672 161.358 317.707 161.621 316.593 161.621C314.004 161.621 312.258 159.805 312.258 157.058C312.258 154.347 313.996 152.61 316.786 152.61C317.909 152.61 319.304 152.996 320.497 153.654V150.057C318.988 149.434 317.093 149.048 315.584 149.048C310.784 149.048 307.345 152.373 307.345 157.094C307.345 161.893 310.67 165.061 315.777 165.061C317.321 165.061 318.865 164.71 320.725 164.016V160.542ZM338.669 160.937C337.589 161.744 337.239 161.823 336.931 161.823C336.431 161.823 336.159 161.516 336.159 160.744V153.742C336.159 150.337 333.685 149.065 330.009 149.065C327.692 149.065 325.56 149.688 323.665 150.925V154.874C325.13 153.286 327.218 152.285 329.043 152.285C331.053 152.285 331.676 153.443 331.597 154.874C325.49 156.883 322.936 157.62 322.936 161.296C322.936 163.227 324.674 165.087 326.999 165.087C328.587 165.087 330.052 164.587 331.79 163.35C332.141 164.587 332.834 165.087 334.378 165.087C335.58 165.087 337.396 164.464 338.669 163.657V160.937ZM331.597 161.007C330.825 161.744 329.894 162.165 329.043 162.165C328.236 162.165 327.578 161.428 327.578 160.542C327.578 158.998 328.85 158.34 331.597 157.295V161.007ZM345.32 149.328H340.713V164.025C340.713 166.543 340.02 167.781 338.353 168.044L339.818 172.448C342.135 172.22 345.311 170.439 345.311 165.175V149.328H345.32ZM364 160.937C362.921 161.744 362.57 161.823 362.263 161.823C361.763 161.823 361.491 161.516 361.491 160.744V153.742C361.491 150.337 359.016 149.065 355.34 149.065C353.023 149.065 350.891 149.688 348.996 150.925V154.874C350.461 153.286 352.55 152.285 354.375 152.285C356.384 152.285 357.007 153.443 356.928 154.874C350.821 156.883 348.268 157.62 348.268 161.296C348.268 163.227 350.005 165.087 352.33 165.087C353.918 165.087 355.384 164.587 357.121 163.35C357.472 164.587 358.165 165.087 359.709 165.087C360.911 165.087 362.728 164.464 364 163.657V160.937ZM356.919 161.007C356.147 161.744 355.217 162.165 354.366 162.165C353.55 162.165 352.901 161.428 352.901 160.542C352.901 158.998 354.173 158.34 356.919 157.295V161.007V161.007Z" fill="white"/>
<path fill-rule="evenodd" clip-rule="evenodd" d="M164.307 173.152H363.5V175.978H164.307V173.152Z" fill="white"/>
<path fill-rule="evenodd" clip-rule="evenodd" d="M213.031 166.966C187.892 146.198 164 126.675 164 126.675C164 126.675 170.186 117.313 180.276 110.82L213.031 166.966ZM210.749 159.35C197.175 136.616 181.75 110.197 181.75 110.197C181.75 110.197 190.718 104.476 199.343 103.002L210.749 159.35ZM211.135 152.778C206.959 132.01 201.58 102.739 201.58 102.739C201.58 102.739 208.854 101.344 216.891 102.388L211.135 152.778ZM213.768 146.391C216.672 123.341 218.76 102.581 218.76 102.581C218.76 102.581 226.034 103.274 230.79 105.95C230.781 105.95 224.709 120.331 213.768 146.391ZM217.4 142.723C227.534 119.252 232.755 106.564 232.755 106.564C232.755 106.564 237.239 107.802 241.801 111.671L217.4 142.723ZM221.77 139.819C239.713 117.199 243.003 112.522 243.003 112.522C243.003 112.522 244.548 112.794 248.882 117.55L221.77 139.819ZM225.56 139.012C247.215 121.568 250.312 119.252 250.312 119.252C250.312 119.252 253.015 121.805 254.331 124.201L225.56 139.012ZM233.413 137.072C248.259 129.412 255.568 126.052 255.568 126.052C255.568 126.052 256.375 126.868 257.305 129.07L233.413 137.072ZM237.941 137.195C258.393 130.93 257.814 130.895 257.814 130.895C257.814 130.895 258.63 132.326 258.63 133.37L237.941 137.195Z" fill="white"/>
<path fill-rule="evenodd" clip-rule="evenodd" d="M296.596 141.442C296.587 139.143 298.439 137.274 300.738 137.266C300.746 137.266 300.764 137.266 300.773 137.266C303.08 137.266 304.949 139.135 304.949 141.442C304.949 143.723 303.054 145.619 300.773 145.619C298.465 145.619 296.605 143.75 296.596 141.442Z" fill="white"/>
<path fill-rule="evenodd" clip-rule="evenodd" d="M338.327 141.6C338.327 139.205 340.257 137.266 342.617 137.266C345.004 137.257 346.943 139.196 346.952 141.583C346.952 141.591 346.952 141.591 346.952 141.6C346.952 143.96 345.021 145.891 342.617 145.891C340.248 145.882 338.335 143.969 338.327 141.6Z" fill="white"/>
</svg>
